<svg id="Camada_1" data-name="Camada 1" xmlns="http://www.w3.org/2000/svg" xmlns:xlink="http://www.w3.org/1999/xlink" viewBox="0 0 472.06 482.6"><defs><style>.cls-1{fill:none;}.cls-2{fill:#65c4d1;}.cls-3{fill:#f4f3f3;}.cls-4{fill:#fff;}.cls-5{clip-path:url(#clip-path);}.cls-6{fill:#eac2a7;}.cls-7{fill:#c9a68f;}.cls-8{fill:#c99f4b;}.cls-9{fill:#6d5f56;}.cls-10{fill:#f4f4f4;}.cls-11{clip-path:url(#clip-path-2);}.cls-12{fill:#aa7e30;}.cls-13{fill:#ddd;}.cls-14{fill:#eaa000;}.cls-15{fill:#b7b6b6;}.cls-16{fill:#413f3f;}.cls-17{fill:#a6dbf8;}.cls-18{fill:#fdcf79;}.cls-19{fill:#ef7e57;}.cls-20{fill:#50becf;}.cls-21{fill:#f3921a;}.cls-22{fill:#e5ebde;}.cls-23{fill:#0d3653;}</style><clipPath id="clip-path"><path class="cls-1" d="M245.87,463.59s-52.54,38.16-121.71,6.24C49.32,435.3,46.92,220,46.92,220S118,114.36,133.86,117.19,242.39,138,242.39,172s41.23,187,41.23,187,17.32,67.06,8.66,72.16"/></clipPath><clipPath id="clip-path-2"><path class="cls-1" d="M124.8,406.4c6.36,2.64.88-8.78.88-8.78s-.61-11.44-3.85-13.39a47.11,47.11,0,0,1-7.06-5.77L131,367.3l44.46-30.48s6.15-8.56-7.9-13.83a16.71,16.71,0,0,0-17-5.05s-6.15-7.35-15-.6c0,0-17.89-1-22,7.73A6.67,6.67,0,0,0,107,328.8s-3.73,1.43-4.45,4.45c0,0-9,3.57-9.6,9.6,0,0-4.94,6.92-1,12.52,0,0-2.61,4.91.77,8.28,0,0-7.57,8.29,0,13.45,0,0-1.87,5.37,9.22,7.57l3.29,6.8s3.17-1.44,12.29,7.69Z"/></clipPath></defs><title>fidipidesPensando</title><ellipse class="cls-2" cx="179.72" cy="378.12" rx="114.98" ry="104.48"/><path class="cls-3" d="M443.33,176.1a64.69,64.69,0,0,0-37.56-88.55A64.66,64.66,0,0,0,301,41.45a100.47,100.47,0,0,0-161.63,8.08,93,93,0,1,0-79.93,167.9,69.38,69.38,0,0,0,99,94.8,92.62,92.62,0,0,0,130.19,10.2A115.81,115.81,0,0,0,443.33,176.1Z"/><path class="cls-4" d="M228.58,349a97.05,97.05,0,0,1-70.88-30.73,73.12,73.12,0,0,1-41.28,12.61A73.89,73.89,0,0,1,52.85,219.27,97.5,97.5,0,0,1,97.48,35.1a96.41,96.41,0,0,1,40.32,8.71,105,105,0,0,1,163.84-8.5,68.39,68.39,0,0,1,39.62-12.47A69.34,69.34,0,0,1,410,84.32a69.18,69.18,0,0,1,38.19,92A120.3,120.3,0,0,1,289.3,327.63,97.12,97.12,0,0,1,228.58,349ZM159,306.08l2.76,3.21A88.12,88.12,0,0,0,285.63,319l2.14-1.82,2.57,1.12A111.31,111.31,0,0,0,439.11,177.66l-.66-1.76.8-1.71A60.17,60.17,0,0,0,404.3,91.81l-2.82-1-.2-3a60.32,60.32,0,0,0-60-56A59.57,59.57,0,0,0,303.76,45l-3.48,2.78-2.81-3.45A96,96,0,0,0,143.07,52l-2.21,3.33-3.57-1.8A87.49,87.49,0,0,0,97.48,44.1,88.5,88.5,0,0,0,61.23,213.32l4.94,2.22L63.08,220a64.89,64.89,0,0,0,92.55,88.66Z"/><g class="cls-5"><path class="cls-6" d="M134.51,425.39l6.26,24s1,5.92-1.15,8.06S127.43,471,127.43,471l-5.6,11,32.44,18.44L193,490.09l-1.16-27.16S172,461.66,160.44,453c-2.27-1.7-4.2-21.51-4.2-21.51Z"/><path class="cls-7" d="M157.31,440.22c-.61-4.43-1.11-8.9-1.11-8.9l-21.73-6.09,1.74,6.69s6.81,4.44,8.92,5.36A41.48,41.48,0,0,0,157.31,440.22Z"/><path class="cls-6" d="M121.72,415.4s12.58,22.38,50.11,22.39c15.53,0,21.29-3.63,22.17-8.67,5.5-31.67-6.21-71.73-22.45-84C157.31,334.43,106.8,375,106.8,375l10.75,24.15s-11-11.86-15.36-5.27,9.55,20.52,9.55,20.52S118,419.13,121.72,415.4Z"/><path class="cls-6" d="M196.73,466.16c3.73-2,7.08,2.68,7.08,2.68l37.88,66.3L209,593.8s11,18.44,5.49,26.78l7.57,7.57s1.21,4.06-4.28,4.06-18.44-9.66-18.44-9.66l1.5-41.34,24.41-44-22.42-33.33-7-6.21S189.77,469.85,196.73,466.16Z"/><path class="cls-8" d="M124.8,406.4c6.36,2.64.88-8.78.88-8.78s-.61-11.44-3.85-13.39a47.11,47.11,0,0,1-7.06-5.77l60.73-41.64s6.15-8.56-7.9-13.83a16.71,16.71,0,0,0-17-5.05s-6.15-7.35-15-.6c0,0-17.89-1-22,7.73A6.67,6.67,0,0,0,107,328.8s-3.73,1.43-4.45,4.45c0,0-9,3.57-9.6,9.6,0,0-4.94,6.92-1,12.52,0,0-2.61,4.91.77,8.28,0,0-7.57,8.29,0,13.45,0,0-1.87,5.37,9.22,7.57l3.29,6.8s3.17-1.44,12.29,7.69Z"/><path class="cls-7" d="M169,406.36a1.5,1.5,0,1,1,0-3c2.73,0,10.22-2.39,14-3.69-1.24-11.77-8.73-20.54-13.18-24.79a1.5,1.5,0,1,1,2.08-2.17c4.9,4.68,13.26,14.53,14.19,27.88l.08,1.13-1.07.39C183.9,402.54,173.12,406.36,169,406.36Z"/><ellipse class="cls-9" cx="147.94" cy="379.85" rx="2.95" ry="4.03" transform="translate(-88.1 47.5) rotate(-14.1)"/><path class="cls-9" d="M144.92,381.35h-.07a1.5,1.5,0,0,1-1.43-1.57c0-.21.26-5.32,3.74-7.2,2.2-1.19,5-.79,8.35,1.21a1.5,1.5,0,1,1-1.54,2.57c-1.62-1-3.88-1.95-5.38-1.14-1.65.89-2.14,3.76-2.18,4.69A1.5,1.5,0,0,1,144.92,381.35Z"/><ellipse class="cls-9" cx="174.55" cy="372.65" rx="2.95" ry="4.03" transform="translate(-85.55 53.77) rotate(-14.1)"/><path class="cls-9" d="M171.52,372.55a1.41,1.41,0,0,1-.4-.05,1.49,1.49,0,0,1-1-1.84c0-.21,1.44-5.13,5.26-6.19,2.41-.66,5.06.36,7.86,3a1.5,1.5,0,1,1-2.07,2.17c-1.37-1.3-3.34-2.76-5-2.32s-2.9,3.13-3.17,4.1A1.51,1.51,0,0,1,171.52,372.55Z"/><path class="cls-7" d="M117.06,412.88s-.33-14.41-11.44-17.87"/><path class="cls-10" d="M127.43,471s-10.54,3.89-15.45,8.8c0,0,29.56,42.86,9.36,57,0,0,18.6,35.53,16.63,42.77s-35,99.5-35,99.5S205,677.28,208.65,610.55l-4.83-38.42a322,322,0,0,0,2.86-39c.2-18.75-1.85-40.29-3.35-55a23.71,23.71,0,0,0-6.93-14.92l-9.61-.89s7.58,25.42-10,27.83C167.36,491.49,144.55,494.55,127.43,471Z"/><path class="cls-10" d="M127.43,471s-10.54,3.89-15.45,8.8c0,0,29.56,42.86,9.36,57,0,0,18.6,35.53,16.63,42.77s-35,99.5-35,99.5S205,677.28,208.65,610.55l-4.83-38.42a322,322,0,0,0,2.86-39c.2-18.75-1.85-40.29-3.35-55a23.71,23.71,0,0,0-6.93-14.92l-9.61-.89s7.58,25.42-10,27.83C167.36,491.49,144.55,494.55,127.43,471Z"/><g class="cls-11"><path class="cls-12" d="M120.8,341.65s-5.39,6.53,1.45,10.89c2.39,1.53-7.08,8.89-7.08,8.89l-3.83,21.48s4.94-2,8.24-2l17.32,19.85-11.11,6.94L90.34,383.83l-23.6-45.59,30.4-27.6,33.26-7.74-5.85,11.58s-14.12,8.63-8.72,14.85C112.45,331.7,111.79,341,120.8,341.65Z"/></g><path class="cls-4" d="M105.43,391.47s-6.37-2.85-6.37-8.12,24.81-55.09,76.61-46.53c0,0,8,5.59,5.27,8.34,0,0,4.94,6.13,1,9.43S158.77,353.05,105.43,391.47Z"/><path class="cls-13" d="M108.23,379.85s33.14-40.4,68.59-35.13C176.82,344.72,143.79,346.49,108.23,379.85Z"/><path class="cls-7" d="M170.32,417.26c5.39-2.6,12.15-4.78,16.47-8.86-1.22,1.15.62,3,1.84,1.84,2.16-2-.5-3.9-2.64-3.36-2.58.65-5.21,2.46-7.61,3.61L169,415c-1.5.73-.19,3,1.31,2.24Z"/><path class="cls-6" d="M116.48,477.22S101,486,99.55,487.4s-2.8,20.2-2.8,20.2l7.68,18,60.26,14.17,19.15,2.64,7-72.74-15.62-4L170.94,521l-33.36-8.78-10.81-23.93-5.92-12.95Z"/><path class="cls-6" d="M190.25,470.48c1.55-2.21,5.61-8.53,7.81-10,3.76-2.47.86-7,1.19-7.61a5.91,5.91,0,0,0,1-4.56c-.67-2.81-2-.81-1.53-3.65a5.89,5.89,0,0,0,0-2.55c-1.11-2.08-2.54-.54-2.52-2.91,0-1.38,1.72-5.42,2.73-8.09a7.28,7.28,0,0,0-.86-5.74,2.17,2.17,0,0,0-2.74-.8c-1.53,1-1.93,3.81-3,5.31-2.4,3.35-2.68,3.11-5.67,5.88-1.14,1.07-6.34,8-8,7.75-1.49-.21-3.47-5.74-6.1-5.74-4.4,0-7.81-.52-7.81-.29,0,2.17,2.71,10.12,3.52,10.94,1.07,1.07,5.32,6.65,5.78,10.48s1.75,6.51,1.11,10.3Z"/><path class="cls-7" d="M172.3,522.89l-35.25-9.28c-.51-.19-12.53-4.73-15.26-12.66a1.5,1.5,0,1,1,2.83-1c2.19,6.35,12.51,10.46,13.41,10.81l31.55,8.3c.7-9,3.69-47.43,4-50.06.28-2.18-.7-7.81-1.1-9.8l0-.3c0-2.6-4.2-8.28-5.34-9.42-.84-.84-2.16-4.75-3.91-11.63a1.5,1.5,0,0,1,2.9-.74c1.1,4.31,2.63,9.44,3.19,10.3.83.89,6,7.25,6.15,11.33.25,1.24,1.5,7.72,1.11,10.65s-4.12,51.2-4.15,51.69Zm-3-75.51,0,0Z"/><path class="cls-7" d="M178.6,445a1.5,1.5,0,0,1-.93-2.68c.12-.1,11.76-9.3,15.56-17.68a3.32,3.32,0,0,1,1.8-1.93,3.1,3.1,0,0,1,2.74.32,1.5,1.5,0,0,1-1.49,2.6l-.17-.08a.83.83,0,0,0-.07.13l0,.13c-4.08,9.08-16,18.47-16.47,18.87A1.51,1.51,0,0,1,178.6,445Z"/><path class="cls-7" d="M184.06,428.52a.91.91,0,0,1-.39-.08,1,1,0,0,1-.52-1.32c.16-.37,4-9.19,9.32-7.26a1,1,0,1,1-.68,1.88c-3.47-1.27-6.78,6.1-6.81,6.18A1,1,0,0,1,184.06,428.52Z"/><path class="cls-10" d="M112,479.79s16.67,8.93,21.13,20.67-8.61-28.27-8.61-28.27S116.25,475.51,112,479.79Z"/><path class="cls-14" d="M143,314.48a10.61,10.61,0,0,1,7.57,3.46,18,18,0,0,1,4.59-.6A16.68,16.68,0,0,1,167.6,323c13.66,5.12,8.24,13.35,7.92,13.8l.15,0s8,5.59,5.27,8.34c0,0,4.94,6.13,1,9.43a4.44,4.44,0,0,1-1.43.72c10.67,16.62,17.24,45.32,14.07,70a3.06,3.06,0,0,1,.74-.7,1.65,1.65,0,0,1,.85-.23,2.41,2.41,0,0,1,1.89,1,7.28,7.28,0,0,1,.86,5.74c-1,2.67-2.71,6.71-2.73,8.09,0,2.37,1.41.83,2.52,2.91a5.89,5.89,0,0,1,0,2.55c-.44,2.84.86.84,1.53,3.65a5.91,5.91,0,0,1-1,4.56c-.33.58,2.57,5.14-1.19,7.61a13.52,13.52,0,0,0-2.6,2.67l.94.08a25.29,25.29,0,0,1,2.14,2.43h.1c2.89,0,5.17,3.16,5.17,3.16l37.88,66.3L209,593.8s11,18.44,5.49,26.78l7.57,7.57s1.21,4.06-4.28,4.06c-1.64,0-3.94-.86-6.36-2.07a415.54,415.54,0,0,1,1.51,43,41.94,41.94,0,0,0-4.42-.67l0,2.81h0c-.11,19.49,0,47.64,1.1,54.06,1.81,10,0,15,0,15s4.94,78.15,4.94,78.75,6.92,9.5,6.92,9.5,9.14,7.19,16.26,12.9h0s4.28,1.12,6,2.52a5.82,5.82,0,0,1,1.8,3.74c.47.32,1.26.85,2.16,1.5a22.93,22.93,0,0,0,6.18,1.15c1,1,0,2-1.28,2.89.71.76,1.14,1.43,1,1.86-.47,1.71-7.09,8.68-19.06,8.68-.67,0-1.36,0-2.07-.07-12.56-.82-30-14.21-31.41-17.94a11.1,11.1,0,0,1,.18-7.52c0-3.18,1.92-7,3-8.89,1.65-3,2.8-11.36,2.8-11.36-18.11-63.55-7.74-72.49-9.71-77.1C196,742,184.79,700.36,176.8,670.43h0l0-.09c-.47-1.75-.92-3.46-1.36-5.11a21.44,21.44,0,0,1-4.13-2.44,130,130,0,0,1-21.74,8.61l-23.87,59.88s-4.09,15.06-9,19.92a214.46,214.46,0,0,1-12,34.73c-8.23,18.44-11.85,43.8-11.85,43.8s5.9,15,6.59,24.33c6.94,9.49,13.17,21.22,4.9,24.67a47.45,47.45,0,0,1-18,3.16c-10,0-18.89-2.33-21-4.41-3.34-3.35,6.16-28.7,6.16-28.7.29-2.31.93-4.53,2.27-5.47,3.3-2.31,7.25-7.9,7.25-7.9s-1.24-3.3,2.22-7.74,8.56-33,8.56-36.69-4.61-31.61,10.76-42.58c0,0,1.75-35.65,6.26-61.43h0c.49-2.93,1-5.72,1.6-8.32-4.72.39-7.55.44-7.55.44s24.67-68.84,32.65-92.25c-2-4.09,1.16-5.92,2.12-6.37.11-.36.2-.66.26-.88,2-7.24-16.63-42.77-16.63-42.77l-5-8.41-11.94-2.81-7.68-18s1.38-18.77,2.8-20.2c.93-.92,7.73-4.91,12.43-7.61h0c4.91-4.91,15.45-8.8,15.45-8.8s10-11.36,12.19-13.5,1.15-8.06,1.15-8.06l-5.5-21.13c-9.71-6.1-13.55-12.9-13.55-12.9a4.85,4.85,0,0,1-3.58,1.44c-3.19,0-6.4-2.43-6.4-2.43s-13.94-13.94-9.55-20.52a4.13,4.13,0,0,1,3.61-2c2.87,0,6.3,2.36,8.7,4.39-4.94-4.31-7.58-4.9-8.65-4.9l-.34,0-.08.06-.07,0-.1,0-.05-.1c-1-.52-5.7-3.08-6.1-7.42-7.88-2.47-6.36-6.85-6.36-6.85-7.57-5.16,0-13.45,0-13.45-3.38-3.37-.77-8.28-.77-8.28-4-5.6,1-12.52,1-12.52.55-6,9.6-9.6,9.6-9.6.72-3,4.45-4.45,4.45-4.45a6.6,6.6,0,0,1,6.08-3.75c.32,0,.5,0,.5,0,3.28-7.09,15.6-7.77,20.2-7.77,1.09,0,1.75,0,1.75,0a12.3,12.3,0,0,1,7.47-2.86m35.67,129c1.65,0,6.08-5.72,7.63-7.41-3.36,1-8,1.64-14.16,1.66h.34c2.63,0,4.61,5.53,6.1,5.74h.09m-21.38-3.31h0c.78,5.54,1.91,11.84,3.15,12.77a45.06,45.06,0,0,0,13.63,6.54c0-.2-.06-.4-.08-.61-.46-3.83-4.71-9.41-5.78-10.48-.81-.82-3.5-8.77-3.52-10.94h0c-2.79-.23-5.41-.59-7.88-1,.15,1.18.31,2.47.49,3.76m47.62,133.62,20.32-36.65-19.32-28.72c.51,8.24.83,16.73.75,24.7a322,322,0,0,1-2.86,39,2.73,2.73,0,0,1,1.11,1.71m40,277.52h0M143,309.29h0a16.7,16.7,0,0,0-9,2.81h-.18c-6.63,0-17.78,1.11-23.2,8a11.58,11.58,0,0,0-7.26,4.74,13,13,0,0,0-4.74,4.52C95.32,331,89.36,334.84,88,340.94c-2.09,3.48-4,9.32-1.72,14.83a12.58,12.58,0,0,0,.24,7.67,15.29,15.29,0,0,0-2.27,9.26,11.56,11.56,0,0,0,3.29,6.81,9.78,9.78,0,0,0,.89,2.68,12.74,12.74,0,0,0,6.32,5.66,13.76,13.76,0,0,0,2.58,4c-2.45,4.56-1.22,10.51,3.67,17.69a68.42,68.42,0,0,0,7,8.54l.26.25.29.22c.77.58,4.84,3.47,9.53,3.47a11.42,11.42,0,0,0,1.87-.15,51.57,51.57,0,0,0,10.74,9.67l4.92,18.92a11.74,11.74,0,0,1,0,3.64c-2.24,2.32-8.82,9.72-11.27,12.49-3.11,1.24-10.82,4.6-15.55,9-11.41,6.58-12.33,7.51-13,8.13-1.31,1.31-2.79,2.79-4.32,23.48l-.09,1.26.5,1.17,7.68,18,1,2.41,2.56.6L113,533l3.78,6.38c.54,1,4.61,8.9,8.53,17.55,6,13.29,7.29,18.68,7.54,20.61a9.1,9.1,0,0,0-2.79,9.4c-8.45,24.61-31.79,89.77-32,90.44l-2.54,7.08,7.53-.13,1,0c-.09.56-.19,1.12-.29,1.69l-.17.72,0,.16c-3.8,22.18-5.61,50.62-6.08,59-13.66,12-11.69,35.34-11,43.26.07.78.14,1.67.15,1.94-.07,4.13-5.13,29.91-7.5,33.52a15.45,15.45,0,0,0-3.5,9.46,28.65,28.65,0,0,1-4.82,5.08c-2.32,1.63-3.75,4.39-4.36,8.45-.63,1.71-2.58,7.13-4.26,12.93-3.47,12-3.61,17.62-.5,20.72,3.9,3.9,15.35,5.94,24.64,5.94a52.56,52.56,0,0,0,20-3.56,11.06,11.06,0,0,0,6.68-7.34c1.64-5.87-1.08-13.53-8.55-24-1-8.3-4.87-19.22-6.29-23,.86-5.33,4.46-25.89,11.26-41.11a222.26,222.26,0,0,0,12-34.37c4.83-5.93,8.28-17.65,9.14-20.75l22.85-57.3a135.23,135.23,0,0,0,17.47-6.87l.06,0,.77,2.88,0,.08c17.23,64.57,19.85,73,20.52,74.77,0,.46-.19,1.39-.32,2.15-1.24,7.45-4.14,24.81,9.67,73.66-.53,3.35-1.42,7.37-2,8.48-2.21,4-3.4,7.42-3.6,10.44a16,16,0,0,0,.12,10.35c1.82,4.76,10.86,10.83,13.58,12.58,4.69,3,13.82,8.14,22.35,8.7.81.05,1.62.08,2.41.08,13.76,0,22.85-8,24.07-12.52a5.6,5.6,0,0,0,.15-2.38,6.46,6.46,0,0,0,.66-2.26,6.3,6.3,0,0,0-1.89-5.15L256,849.23l-2-.08a20.15,20.15,0,0,1-4-.62A10.16,10.16,0,0,0,247,844a21,21,0,0,0-6.87-3.25c-6-4.76-13-10.36-15-11.87-2.12-2.74-4.48-5.88-5.52-7.37-.24-4.09-1.18-19.24-4.81-76.64.58-2.34,1.43-7.85-.12-16.45-.78-4.33-1.16-22.33-1-49.6l4.32,1.37.16-6.92c0-.81.38-17.62-.9-35.84l.55,0c4.48,0,6.83-1.89,8-3.48a8.39,8.39,0,0,0,1.25-7.26l-.38-1.26-.93-.93-5.1-5.11c1.2-4.5.55-10.23-1.95-17.09a72.14,72.14,0,0,0-3.75-8.46l31.3-56.15,1.42-2.56-1.45-2.54-37.88-66.31-.13-.23-.16-.22a14.53,14.53,0,0,0-4.21-3.84c1.42-2.23,1.72-5,.92-8.37a10.42,10.42,0,0,0,.56-6.47,8.49,8.49,0,0,0-1.29-3,7.47,7.47,0,0,0-.73-4.44,8.07,8.07,0,0,0-1.36-1.87c.39-1.08.89-2.36,1.22-3.2.23-.57.44-1.12.63-1.62a12.33,12.33,0,0,0-1.43-10.52,7.51,7.51,0,0,0-2.06-2c1.56-21.82-3.53-46.79-13.08-64,2.35-3.61,1.63-8.19-.52-12a7.57,7.57,0,0,0,0-1.26c-.28-3.13-2.58-6-4.91-8.1a12.3,12.3,0,0,0-.29-6.25c-1.36-4.33-5-7.75-10.83-10.18a22.17,22.17,0,0,0-15.47-6.47,22.73,22.73,0,0,0-3.07.21,15.36,15.36,0,0,0-9.09-3.06ZM211.1,552c.39-5.59.7-12,.77-18.77q0-3.18,0-6.64l7.3,10.87L211.1,552Z"/><path class="cls-7" d="M176,440.91a1.51,1.51,0,0,1-.86-.27,49.91,49.91,0,0,0-5.9-3.43,4,4,0,0,0-2.08-.3,1.42,1.42,0,0,0-1.06,1,1.51,1.51,0,0,1-1.83,1.05,1.48,1.48,0,0,1-1.08-1.78,4.42,4.42,0,0,1,3.34-3.17,6.74,6.74,0,0,1,3.75.41,52.44,52.44,0,0,1,6.59,3.79,1.5,1.5,0,0,1-.87,2.73Z"/></g><path class="cls-15" d="M95.22,258.23a1.6,1.6,0,0,1,.11.29v0C95.22,258.2,95.22,258.16,95.22,258.23Z"/><path class="cls-15" d="M103.35,231.06a1.27,1.27,0,0,1,.13.11Z"/><path class="cls-15" d="M132.19,243.25a4.15,4.15,0,0,0-4.86-.63c.49-.22-.16.07-.36.14l-.72.2c-.15-.16-.33-.29-.49-.45L124.11,241a4.49,4.49,0,0,0-2.68-1.14l-.13-.16a10.36,10.36,0,0,0-1.21-1.09,11,11,0,0,0-.18-7.86c-.84-2.23-3.57-4-5.89-2.41-2.14,1.45-4.24,3.17-5,5.71-.11,0-.22-.06-.34-.11s-.44-.15-.66-.24-.25-.09-.34-.14a22.18,22.18,0,0,1-2.68-1.43c-.51-.31-1-.64-1.47-1-.23-.16-.29-.25-.16-.14l-.53-.46c-.54-.47-1-1-1.52-1.48-.27-.33-.56-.65-.85-.94a4.07,4.07,0,0,0-5.69,0,4.15,4.15,0,0,0,0,5.7l.73.82c.14.23.29.45.43.67s.09.14.11.2.11.38.16.58v.25c0,.11-.16.38-.21.51a2.45,2.45,0,0,1-.2.32.11.11,0,0,0,0,.09c-.34.35-.65.71-1,1s-.78.7-1.18,1c-.22.18-.47.36-.69.56l-.09.09c-.05,0-.09.07-.16.11a17,17,0,0,1-1.43,1c-.22.13-.44.25-.67.36,0,0,0,0,0,0l-.18,0a1.3,1.3,0,0,0-.29.07c.14,0,.18,0-.2,0a.17.17,0,0,1-.09,0,0,0,0,0,1,0,0h-.61a.07.07,0,0,1,0,0s-.07,0-.18,0h0c-.43,0-.27,0-.07,0a7.76,7.76,0,0,0-.89-.29c-.25-.13-.49-.29-.74-.42s-.27-.25-.4-.38-.33-.47-.49-.72a4,4,0,0,0-7.14,3.62,3.5,3.5,0,0,0-.88,2.48,4.09,4.09,0,0,0,4,4h.27c.11,0,.49.06.58.09l.14,0a3.6,3.6,0,0,1,.37.22,3.27,3.27,0,0,0-.93,1.77,16.62,16.62,0,0,0-.11,5.67c0,.2-.09.42-.16.62-.11.38-.22.74-.36,1.12.07-.25-.33.73-.42.87-.23.42-.49.8-.74,1.2-.07.09-.11.18-.16.23s-.2.24-.31.35h0c-.22.25-.42.54-.62.81A4,4,0,0,0,81,268a4,4,0,0,0,5.27-.32,7.75,7.75,0,0,0,.52-.62l.09,0,.51,0c-.18,0-.31-.08.09,0h.15s0,0,0,0h0a4,4,0,0,1,.52.15l.22.09c.11.09.24.16.29.2a.58.58,0,0,0,.18.11.17.17,0,0,0,.09.07,4,4,0,0,0,.29.29c.2.34.4.65.58,1,0,.07.06.14.09.18s.11.34.18.49c.11.34.2.7.29,1s.15.72.22,1.09c0,.07.07.59.09.72.09,1,.13,1.94.15,2.9a4,4,0,0,0,7.48,2l.27-.4v0l.6-.58s.58-.4.74-.49,1.41-.58.45-.25c.4-.13.78-.27,1.18-.38.07,0,.31-.09.51-.13a7.58,7.58,0,0,1,2.28,0l.36.06c.4.09.8.23,1.2.36-.93-.31.27.16.47.27s.81.6.74.51a7.93,7.93,0,0,1,.58.58s0,0,0,.07a17.6,17.6,0,0,0,.25,2.25,4,4,0,0,0,4.4,2.88c2.12-.29,3.24-1.92,3.48-3.95a7.93,7.93,0,0,0-.13-2.72,2.2,2.2,0,0,1,.09-.43c.06-.29.15-.58.24-.87s.11-.31.16-.47a10.59,10.59,0,0,1,.58-1,6.41,6.41,0,0,1,.45-.7c0,.05.37-.44.49-.58s.49-.51.76-.76.26-.24.4-.35a11.43,11.43,0,0,1,1-.65l.47-.27c-.09.07.67-.27.78-.29l.16,0a10.31,10.31,0,0,0,2.92,1.67,8,8,0,0,0,2.62.4,4.07,4.07,0,0,0,4-4,4.16,4.16,0,0,0-3.23-4,4.39,4.39,0,0,0-2.26-2.1s0,0-.07,0c.29-1,.59-1.9.94-2.84.11-.31.25-.62.36-.91,0-.07.07-.16.09-.22.22-.52.45-1,.69-1.52a41,41,0,0,1,3-5.14,4.15,4.15,0,0,0,3.06-3.88A3.81,3.81,0,0,0,132.19,243.25Zm-14.4,12.32a1.7,1.7,0,0,1-1.31,1.41l-.2.2a12.75,12.75,0,0,0,.55,5l-.18.08a4.16,4.16,0,0,0-5.22.38c-.11.12-.6.43,0,0a3.36,3.36,0,0,0-.43.31c-.33.22-.69.45-1,.65l-.81.42c-.07,0-.13.07-.15.07-.23.09-.45.15-.67.22a14.27,14.27,0,0,1-2.1.51s-.61.05-.81.05a10.9,10.9,0,0,1-1.4,0c-.29,0-1.3-.2-.52-.05-.4-.09-.8-.15-1.18-.27s-.63-.17-.94-.29l-.22-.06-.34-.14a15.61,15.61,0,0,1-2-1.14s0,0-.07,0,0,0-.11-.07l-.22-.15.17.13s-.11-.07-.13-.11c-.33-.29-.65-.58-1-.89s-.54-.56-.78-.85a1.29,1.29,0,0,0-.16-.18s0,0,0-.05c-.42-.71-.87-1.38-1.23-2.12h0s0,.05,0,.07,0,0,0-.09a2.75,2.75,0,0,1-.11-.29l-.07-.2a10.53,10.53,0,0,1-.38-1.36c0-.2-.09-.4-.11-.6V256c0-.43,0-.89,0-1.32v-.2a1.67,1.67,0,0,0,0-.31c.09-.4.18-.81.29-1.18s.15-.45.22-.67c0,0,0-.09.07-.16s.06-.16.09-.18a6.44,6.44,0,0,1,.42-.78c.2-.36.43-.72.65-1.07a.13.13,0,0,0,0-.07c3.82-2.59,7.66-5.18,11.48-7.75.4.12.8.2,1.2.29a5.25,5.25,0,0,0,.47,1.75,1.89,1.89,0,0,1,1.7.13C115.49,246.68,118.82,250.55,117.79,255.57Z"/><path class="cls-15" d="M87.48,267a.9.9,0,0,0,.22,0l-.11,0Z"/><path class="cls-15" d="M98.62,262.71l0,.05a.41.41,0,0,1,.11.07A.75.75,0,0,0,98.62,262.71Z"/><path class="cls-15" d="M89.2,241.57a.68.68,0,0,0-.21,0l.07,0Z"/><path class="cls-15" d="M89.84,241.57l.2,0a.53.53,0,0,0-.26,0h.06Z"/><path class="cls-15" d="M161.28,244l-.29.2h0C161.28,244.05,161.33,244,161.28,244Z"/><path class="cls-15" d="M142.37,262.45l0,0C142.4,262.42,142.37,262.42,142.37,262.45Z"/><path class="cls-15" d="M163.74,289.84s.09,0,.18.07Z"/><path class="cls-15" d="M213.84,262.53a4.38,4.38,0,0,0,0-1.25c-.29-2.12-1.92-3.23-3.95-3.48-.67-.06-1.32-.13-2-.15-.18-.12-.38-.25-.58-.36s-.22-.2-.31-.29a3.39,3.39,0,0,1-.4-.45,5.94,5.94,0,0,0-.41-.62c-.2-.34-.35-.67-.51-1,.36.67-.13-.36-.15-.44-.14-.36-.25-.72-.36-1.1-.2-.65-.36-1.32-.52-2,0-.08-.06-.2-.08-.31a2.14,2.14,0,0,1,0-.24c0-.11,0-.2,0-.32,0-.31,0-.6,0-.91a3.39,3.39,0,0,1,0-.45v-.06s0-.07,0-.09c1.43-.41,2.88-.45,4.16-1.34,3.1-2.21,4.24-7.79.15-9.76-1.47-.71-3.7-.8-4.87.63-.22.29-.51.51-.73.8l-.07.07-.11.06a7.58,7.58,0,0,1-.67.38,3.53,3.53,0,0,1-.51.16l-.45.11a.11.11,0,0,0-.07,0h-.76L200,240c-.16-.08-.49-.24-.56-.26s-.16-.09-.23-.14a.57.57,0,0,0-.08-.09c-.16-.15-.32-.33-.47-.49a3.4,3.4,0,0,1-.27-.4c-.07-.13-.25-.56-.25-.56,0-.18-.11-.33-.15-.51a.27.27,0,0,1,0-.14v0c0-.42,0-.83,0-1.25a3,3,0,0,0-.26-1.54c.29-.87.6-1.74.89-2.61a4,4,0,0,0-1.85-4.53,4.15,4.15,0,0,0-4.87.62,47.2,47.2,0,0,0-3.51,4,2.9,2.9,0,0,0-.73,0c-.76.05-1.52.07-2.28.05l-1-.07-.26,0a1.79,1.79,0,0,0-.32-.07c-.67-.13-1.34-.29-2-.49-.4-.11-.78-.27-1.18-.4a.18.18,0,0,0-.09,0s0,0,0,0a7.88,7.88,0,0,1-.76-.4c-.05,0-.2-.13-.36-.22l-.45-.38a.23.23,0,0,0-.11-.09.37.37,0,0,0-.09-.14s0,0,0-.06h0s0-.09,0-.16l.14-.2a4,4,0,0,0-1.45-5.49,4.1,4.1,0,0,0-5.49,1.45,6.85,6.85,0,0,0-1.23,3.06c-.36,0-.72-.07-1.05-.11a1.75,1.75,0,0,0-.31,0l-.25,0a20.06,20.06,0,0,1-3-.71l-.22-.09-.27-.14a10.93,10.93,0,0,0-1-.6l-.07,0c-.11-.08-.22-.2-.33-.29a4,4,0,0,1-.4-.42.17.17,0,0,1-.07-.09,4.13,4.13,0,0,0-5.22-1.58,3.75,3.75,0,0,0-1.79,1,4.46,4.46,0,0,0-1,1.74,3.84,3.84,0,0,0-.25,4.36l1.45,2.21a4.68,4.68,0,0,0-.49.58c-.09.11-.38.49-.4.53a9.73,9.73,0,0,1-.65.79l-.73.78-.52.47c-.15.08-.71.46-.8.51-.74.45.45-.27-.38.13l-.34.09h-.35l-.14,0-.18-.11a6.53,6.53,0,0,0-.91-.47,6.16,6.16,0,0,0-4-.56,5.2,5.2,0,0,0-3.91,6.32,3.8,3.8,0,0,0,2.75,2.74c-.61,1.14-1.32,2.24-2,3.31q-.54.84-1.14,1.65c-.07.07-.51.62-.6.71-.22.25-.45.49-.67.72s-.63.58-.94.87c.69-.6,0,0-.2.13-.36.25-.74.43-1.09.65l-.11,0a2,2,0,0,1-.43.14,4.06,4.06,0,0,0-2.88,3.35,3.94,3.94,0,0,0,1.92,4,14.15,14.15,0,0,0,3.33,1.16l1.31.36s0,0,.05,0,.13.25.2.36.11.4.18.6.18,1,.18.85c0,.36.06.72.09,1.07,0,.83,0,1.63-.07,2.44,0,.18-.07.38-.11.58-.09.4-.2.8-.31,1.2a3.75,3.75,0,0,1-.16.43,0,0,0,0,1,0,0c-.2.33-.43.69-.61,1-.11.11-.2.24-.31.33l-.38.36-.11.07a4,4,0,0,0,1,7.34,6.6,6.6,0,0,0,5.07-.67,7.32,7.32,0,0,0,1.29-.91,13.22,13.22,0,0,0,.83,1.47,28.88,28.88,0,0,0,2.61,3.15c.38.4.76.78,1.12,1.18.15.16.29.34.42.49s.18.25.27.4.22.41.33.61a.57.57,0,0,1,.07.2.65.65,0,0,1,.05.15v.07c-2.35,1.12-3.51,4.62-1.25,6.52a5,5,0,0,0,5.69.85,7.78,7.78,0,0,0,2.48-2.12,4.57,4.57,0,0,1,.42-.47l0,0h0a2.36,2.36,0,0,1,.26-.12l.36-.11,0,0,.62,0h.18c.16,0,.47.09.49.09a4.26,4.26,0,0,1,.47.15c-.09,0,.07,0,.27.09a13.37,13.37,0,0,1,1.47.85c.27.18.54.36.78.54s.43.33.09.06l.27.23a5.11,5.11,0,0,0,.47,1.58c.82,1.61,1.65,3.24,2.45,4.85a4,4,0,0,0,3.46,2,4.12,4.12,0,0,0,3.46-2,6.21,6.21,0,0,0,.72-5.7c.74-.24,1.47-.47,2.23-.64.38-.09.76-.18,1.14-.25l.6-.11h.07c.78,0,1.56-.09,2.34-.05-.26,0,.41.14.78.2a8.63,8.63,0,0,0,3.47,4.29,4,4,0,0,0,4.46-.31,4.22,4.22,0,0,0,1.45-4.22,7.85,7.85,0,0,0-1.9-4.15c.05-.16.09-.34.14-.49s.09-.25.13-.38c.18-.34.38-.65.56-1h0l.38-.45a13.48,13.48,0,0,1,1-1c.52-.47,1.05-.92,1.59-1.34,3,2.56,7.59,3.05,10.51.08a4.08,4.08,0,0,0-.8-6.31l-2.5-1.7c.36-.8.63-1.67.94-2.46s.78-1.87,1.16-2.83.78-1.88,1.16-2.84c.07-.15.13-.31.18-.44a.31.31,0,0,1,0-.09,0,0,0,0,1,0,0c.09.09.67.54.76.63a4.12,4.12,0,0,0,5.7,0A4.24,4.24,0,0,0,213.84,262.53Zm-49.3-20.2a4.4,4.4,0,0,0,2.81-2.81l.34-.07h.09c.31,0,.65,0,1,0,.56,0,1.09,0,1.65.06l.83.09.11,0,1.45.27a2.11,2.11,0,0,1,3-1.58c2.26,1.14,4.49,2.32,6.77,3.44a11.68,11.68,0,0,1,7.16,3.21c3.62,3.44,5.05,8.75,5.23,13.57s-.87,9.92-4,13.62a1.62,1.62,0,0,1-1.05.58c-.22.38-.47.78-.71,1.14-.09.11-.2.22-.29.34a19,19,0,0,1-1.19,1.78,17.47,17.47,0,0,1-14.44,7.17,2,2,0,0,1-1.83-2.73l-.11,0c-.58-.13-1.14-.24-1.7-.4l-.85-.27c-.11,0-1-.44-.45-.18a20.86,20.86,0,0,1-2.85-1.65l-.29-.2-.4-.31a17.37,17.37,0,0,1-1.41-1.3,26.1,26.1,0,0,1-2.32-2.59s0,0,0,0c-.17-.25-.33-.47-.51-.71-.38-.56-.76-1.12-1.12-1.68a35.53,35.53,0,0,1-1.78-3.19c-.22-.45-.43-.89-.63-1.34,0-.11-.26-.67-.26-.69-.14-.36-.27-.72-.38-1.1a27.52,27.52,0,0,1-1.05-4.06s-.07-.38-.09-.6-.09-.87-.09-1c0-.63-.07-1.28-.07-1.9s.05-1.52.11-2.28v-.13c.05-.34.11-.67.18-1a20.08,20.08,0,0,1,1.05-3.41s0-.05,0-.09c.13-.29.29-.58.42-.87a15.66,15.66,0,0,1,1-1.68c.11-.18.25-.35.36-.53s.18-.25.27-.38c.38-.45.76-.89,1.16-1.3s.91-.87,1.38-1.27l0,0s0,0,0,0,0,0,0,0a2.21,2.21,0,0,1,.29-.2l.44-.31a12.61,12.61,0,0,1,1.68-.94l.24-.11C163.6,242.71,164.41,242.4,164.54,242.33Z"/><path class="cls-16" d="M196.78,254.88a18.13,18.13,0,0,0-6.94-11.72,29.72,29.72,0,0,0-13-6,16.44,16.44,0,0,0-13.44,3.17c-7.28,5.78-10.54,16.43-8.87,25.4,1.79,9.56,10.21,17.51,20.1,17.66a1.75,1.75,0,0,0,.51-.07,16.32,16.32,0,0,0,12.37-2.83,21.93,21.93,0,0,0,7.92-11.23A32.4,32.4,0,0,0,196.78,254.88Zm-3.62,9.69c-.82,4.37-2.59,8.75-5.91,11.83-3.08,2.83-7.44,4.51-11.61,3.57a2.07,2.07,0,0,0-.9,0h-.08c-7.17-.11-13.69-5.35-16-12a23.92,23.92,0,0,1,4.42-22.66c2.54-3,5.87-5.11,9.89-5.2,4.28-.09,8.5,1.61,12.12,3.79,3.17,1.92,6.16,4.58,7.52,8.11C194.12,255.9,193.92,260.5,193.16,264.57Z"/><path class="cls-16" d="M215.13,257.51c-1.29-1.38-3-1-4.64-.8-1.3.15-1.88-.38-2.33-1.59a9.47,9.47,0,0,1-.58-4.44c.21-1.25,1.46-1.43,2.48-1.76a5.48,5.48,0,0,0,3.35-2.06c1-1.69.16-3.44-.65-5-.58-1.11-1.13-2.23-1.72-3.35a7.63,7.63,0,0,0-1.69-2.68c-1.94-1.54-4.22.54-6,1.41-1.19.58-3.66,1.23-3.91-.74s1.85-3.57,3.22-4.68a1.4,1.4,0,0,0,.55-1.1,2.56,2.56,0,0,0-.11-.24,3,3,0,0,1-.29-.32c-.4-.38-.82-.71-1.2-1.11l-.23,0a29.16,29.16,0,0,0-6.58-5.18,1.69,1.69,0,0,0-2,.26c-1.92,1.95-3.87,3.91-5.79,5.85l-2.27-.47a18.94,18.94,0,0,0-2.77-.58s-.09,0-.11,0a5.3,5.3,0,0,1,0-.69v-1.34c0-1.19,0-2.37,0-3.57a1.67,1.67,0,0,0-1.22-1.61,37.33,37.33,0,0,0-10.45,0,1.68,1.68,0,0,0-1.23,1.61c0,1.18,0,2.34.07,3.52a6.8,6.8,0,0,1-3.08-.58c-1.32-.65-1.54-1.63-1.77-2.94a3.37,3.37,0,0,0-2.27-3c-1-.24-1.79.47-2.57,1s-1.59,1-2.39,1.48c-1.32.8-3.33,1.63-4.11,3s-.09,2.86,1,3.93c2,2.1-.18,4.09-2.12,5.36l-2.43-1.7c-1-.69-2-1.56-3.28-1.2-1.08.31-1.66,1.34-2.26,2.19-.74,1.07-1.45,2.16-2.12,3.28-1.12,1.85-2.81,4.15-1.27,6.25a4.83,4.83,0,0,0,2.68,1.7c.46.11.93.17,1.4.26l-1.54,3.37c-.22.5-.47,1.46-.91,1.77s-1.3.09-1.74.07a6.12,6.12,0,0,0-6.26,4.37,6,6,0,0,0,2.64,6.65,13,13,0,0,0,5.69,2,11.58,11.58,0,0,1-1.38,5.24c-1.28,2.08-4.89,1.81-4.65,4.83.23,2.81,2.71,5.42,5.27,6.34a7.51,7.51,0,0,0,6.43-.74l3.91,4.78a5.64,5.64,0,0,1,.8.94c0,.33-.76,1.16-.93,1.45l-2.37,3.5a1.69,1.69,0,0,0,0,1.7,6.62,6.62,0,0,0,7.81,3,5.53,5.53,0,0,0,3.44-2.72l.4.11c.6.22,1.19.47,1.79.71s1.4.56,2.1.85a8,8,0,0,0,7.52,8.13c2,.11,4.6-.56,5.72-2.32s-.34-3.78.58-5.63c.6-1.21,2-2.32,3.3-1.38s2.05,2.83,3.15,4.1a5.72,5.72,0,0,0,5.07,2.12,5.32,5.32,0,0,0,4.64-4.24,5.65,5.65,0,0,0-.45-3.53c-.51-1-1.78-2-1.94-3.17-.27-2,1.81-3.37,3.51-4.28a16.27,16.27,0,0,0,4.08,2,17.85,17.85,0,0,0,2.81.63,3.13,3.13,0,0,0,2.86-.83c2.68-2.16,5.14-5.62,3.19-9.13a4.5,4.5,0,0,0-1.63-1.67,19.43,19.43,0,0,0-2.23-.83s-.36-.18-.29-.07c-.15-.22.18-1.16.22-1.43a10.83,10.83,0,0,1,.94-2.83,3.26,3.26,0,0,1,1.59-1.52,2.19,2.19,0,0,1,1.94.31c1.54.78,3.39,1.52,4.82.07,1.25-1.27,1.14-3.71,1.39-5.34S216.58,259.05,215.13,257.51ZM212.54,261c-.07.56-.16,1.09-.22,1.65-.14.89-.25,1.79-.38,2.68,0,0-.09.45-.16.76,0,0-.07,0-.09,0a6,6,0,0,0-4.46-1.14,6.3,6.3,0,0,0-4,2.74,13.14,13.14,0,0,0-1.87,5.83c-.2,2,1,3.33,2.83,3.93.54.18,1.21.24,1.59.69a2.22,2.22,0,0,1,.31,1.72c-.24,1.45-1.56,2.57-2.72,3.48a12.72,12.72,0,0,1-6.21-2.52,1.76,1.76,0,0,0-2-.27,12.67,12.67,0,0,0-5,3.89,6,6,0,0,0-.67,5.69c.67,1.5,2.77,2.9,1.78,4.73-.84,1.54-2.67,1.12-3.66.05s-1.69-2.62-2.74-3.78a5.41,5.41,0,0,0-4.71-1.83,6.19,6.19,0,0,0-4.27,3.08,7.06,7.06,0,0,0-.87,2.44,10.34,10.34,0,0,0,.2,2.94c.23,1.61-3.61,1.21-4.57.74a4.79,4.79,0,0,1-2.44-5.07.69.69,0,0,0,0-.35,1.74,1.74,0,0,0-1.22-1.63,45.47,45.47,0,0,0-5.79-2.28,3,3,0,0,0-2.79.62,18.15,18.15,0,0,0-1.11,1.5,3.29,3.29,0,0,1-4.54,0L155,287.9a3.66,3.66,0,0,0,.36-4.13,32.51,32.51,0,0,0-2.86-3.58l-3.24-4a1.68,1.68,0,0,0-2.36,0,4.07,4.07,0,0,1-5.45.56,8.45,8.45,0,0,1-1.79-2.32l-.07-.2.32-.09a7.57,7.57,0,0,0,1.38-.65c3.62-2.23,4.22-7,4.35-10.87A1.69,1.69,0,0,0,144,261a11.78,11.78,0,0,1-5.63-1.65,2.63,2.63,0,0,1-.42-4.2,3.11,3.11,0,0,1,2.59-.67,4.81,4.81,0,0,0,3.53-.87,9.18,9.18,0,0,0,2-3.44c.65-1.42,1.32-2.85,2-4.28a1.74,1.74,0,0,0-.6-2.3,6.7,6.7,0,0,0-3-1.07,3.69,3.69,0,0,1-1.23-.36c-.38-.22-.31-.16,0-.67.56-1.09,1.23-2.14,1.87-3.19.36-.58.74-1.16,1.12-1.72l.47-.67.11-.16c.49.34,1,.72,1.45,1.05.85.58,1.68,1.19,2.53,1.77a1.65,1.65,0,0,0,1.69,0c3-1.86,6.48-4.71,5.29-8.76a5.23,5.23,0,0,0-1.4-2.23l-.29-.31.35-.22c1.5-.94,3-1.88,4.51-2.79a9.32,9.32,0,0,0,.25,1.4,5.91,5.91,0,0,0,2,2.88c2.15,1.65,4.87,1.74,7.46,1.65a1.67,1.67,0,0,0,1.67-1.67l-.06-3.68a30.39,30.39,0,0,1,6.18,0c0,.69,0,1.38,0,2.09a10.76,10.76,0,0,0,.2,3.26c.72,2.19,3.46,2.26,5.36,2.64a28.53,28.53,0,0,0,3.31.67c1.22.09,2-1.05,2.76-1.86,1.37-1.38,2.75-2.76,4.11-4.15a27.63,27.63,0,0,1,4.42,3.57c-1.83,1.9-3.17,4.27-2.21,7,1.25,3.6,5.38,3.69,8.33,2.3.78-.36,1.52-.82,2.28-1.25.06,0,.26-.11.38-.18a9.31,9.31,0,0,0,.58,1c.44.87.89,1.74,1.34,2.58a12.15,12.15,0,0,1,1.25,2.53c0,.29,0,.22-.34.38a13,13,0,0,1-1.49.49,7.07,7.07,0,0,0-3.29,1.78c-1.94,2.15-1.34,6.17-.38,8.67a6.06,6.06,0,0,0,2.48,3.21c1.41.8,2.82.56,4.33.36a2.62,2.62,0,0,1,.83-.07A4.84,4.84,0,0,1,212.54,261Z"/><path class="cls-16" d="M115.36,245.12c-3.91-3.48-9.51-4.64-14.11-1.78a16.49,16.49,0,0,0-5.8,5.67,11.23,11.23,0,0,0-1,7.32c1,5.6,5.89,10,11.38,11a1.55,1.55,0,0,0,1.34-.31c2.59-.27,5.32-.58,7.51-2.07a11.59,11.59,0,0,0,4.37-6.12A13.13,13.13,0,0,0,115.36,245.12Zm.89,10.94a8.84,8.84,0,0,1-2.77,5.6c-1.74,1.54-4.21,1.79-6.42,2a2.72,2.72,0,0,0-.9.29,11.16,11.16,0,0,1-7.88-6.36,8.85,8.85,0,0,1-.47-5.56,9.35,9.35,0,0,1,3.33-4.49c1.61-1.33,3.46-2.56,5.6-2.56a9.64,9.64,0,0,1,5.14,1.65A9.91,9.91,0,0,1,116.25,256.06Z"/><path class="cls-16" d="M134.34,246.53c-.49-1.88-1-3.75-1.45-5.63a1.75,1.75,0,0,0-1.61-1.23,5.19,5.19,0,0,0-2.7.52c-.78.33-1.5.8-2.26.22a23.06,23.06,0,0,1-2.36-2.48c-.72-.76-1.43-1.54-2.17-2.3.31-.76.6-1.54.91-2.3a3.93,3.93,0,0,0,.23-3.39c-.94-1.81-3.44-2.9-5.23-3.62s-4.3-1.65-5.8,0a14.26,14.26,0,0,0-1.7,2.79c-.42.79-.82,1.59-1.2,2.37l-2.61-.49-1.3-.25c-.09,0-1.5-.26-1.23,0-.22-.18-.22-1.16-.27-1.41l-.2-1.25c-.17-1.11-.35-2.21-.53-3.32a1.67,1.67,0,0,0-2.06-1.16c-2.18.51-4.37,1.09-6.49,1.8a3.46,3.46,0,0,0-2.15,1.37,3.39,3.39,0,0,0,0,2.79c.31,1.11.65,2.21,1,3.32l.38,1.25c.07.2.22,1.25.43,1.1a11,11,0,0,1-1.23.73l-1.43.9L89.42,238a24.94,24.94,0,0,0-3.19-2.59c-1.59-1-3,0-4.13,1.07a37.38,37.38,0,0,0-3.4,3.71c-.91,1.16-2.45,2.65-2.52,4.21-.07,1.72,1.47,2.64,2.66,3.6L81,249.7c.09.07.6.51.53.38a3.53,3.53,0,0,1-.11,1.4c-.13,1.79-.2,3.6-.42,5.38-.09.83-.25,2.24-1.1,2.66s-1.47.29-2.12.85a3,3,0,0,0-1,2.19,21.42,21.42,0,0,0,.89,6.09,1.71,1.71,0,0,0,1.61,1.23,18.86,18.86,0,0,0,6.49-1.54l2.82,3.15c.27.29,1.11.94,1.18,1.36,0,.27-.53,1.07-.67,1.34-.56,1.09-1.32,2.25-1.2,3.53a3.55,3.55,0,0,0,1.92,2.63,20.35,20.35,0,0,0,7,2.79c2.65.49,3.7-2.63,4.15-4.84l3-.2c.43,0,.85-.05,1.25-.09a3,3,0,0,1,1.12-.05c.36.2.62,1.14.8,1.52.63,1.38,1.14,2.95,1.9,4.26,1,1.63,2.52,1.41,4.09.94,2.32-.69,6.85-1.38,5.78-4.89-.34-1.11-1.45-1.94-1.68-3.06-.24-1.31.81-2.54,1.66-3.37.64-.64,1.65-1.89,2.63-1.92a5.92,5.92,0,0,1,1.9.56,7.3,7.3,0,0,0,2.16.45c3.06,0,5.07-2.53,6.1-5.11.47-1.19,1.11-2.68.76-4s-1.52-1.83-2.68-2.37c-1.9-.87-1-3.61-.52-5.17a5.36,5.36,0,0,1,1.5-2.8,5.33,5.33,0,0,1,1.85-.53,3.26,3.26,0,0,0,1.79-1.21C135.36,249.79,134.74,248.05,134.34,246.53Zm-2.77,2.7a3.56,3.56,0,0,1-.49.09c-2.37.45-3.75,2.1-4.62,4.26a12.94,12.94,0,0,0-1,6.74,4.8,4.8,0,0,0,1.36,2.66,4.86,4.86,0,0,0,1.3.85l.78.33c.11,0,.2.12.31.16-.51,1.94-1.68,5.25-4.2,4.64a15.58,15.58,0,0,0-3.46-.89,5.31,5.31,0,0,0-3.5,1.54c-2.06,1.72-4.16,3.91-4.16,6.77a5.64,5.64,0,0,0,1.17,3.3c.06.11.29.51.44.74-.2.06-.4.18-.49.2-.4.11-.78.24-1.18.36-.16,0-1.52.37-2.1.58,0-.07-.07-.14-.09-.21-.18-.4-.36-.8-.54-1.18-.62-1.38-1.11-3.21-2.14-4.37-1.18-1.34-2.75-1.21-4.38-1.12l-5.24.33a1.77,1.77,0,0,0-1.59,2.15,14.57,14.57,0,0,1-.42,1.67c-.09.25-.18.47-.29.72a.82.82,0,0,1-.14.2c-.49-.14-1-.34-1.47-.47a20.58,20.58,0,0,1-2.48-1c-.33-.18-1.6-.62-1.83-1.05.14.18.52-.73.58-.82.2-.41.41-.81.61-1.21.89-1.79,1-3.24-.29-4.84s-2.62-2.93-3.93-4.4l-.18-.18a1.68,1.68,0,0,0-2.41-1,15.18,15.18,0,0,1-4.94,1.62,14.63,14.63,0,0,1-.47-3.46l.12,0,.29-.07a4.82,4.82,0,0,0,1-.4A4.51,4.51,0,0,0,83,261c1.72-2.39,1.45-6,1.65-8.75.14-1.63.49-3.28-.8-4.56-.6-.6-1.36-1.11-2-1.65a10.52,10.52,0,0,0-2.12-1.72s0,0,0,0v0a9.33,9.33,0,0,0,.67-.94c.53-.72,1.09-1.41,1.67-2.08s1-1.16,1.59-1.7a13.38,13.38,0,0,1,1.13-1.13c.12.09.21.17.32.24l1,.83,2,1.65a1.73,1.73,0,0,0,2,.27c1.76-1.12,3.59-2.19,5.34-3.37A3.5,3.5,0,0,0,97.14,236a6,6,0,0,0-.47-3c-.31-1-.62-2.07-.91-3.1-.09-.31-.18-.92-.31-1.34,1.49-.49,3-.92,4.51-1.3.13.79.24,1.57.38,2.35.17,1.11.24,2.43,1.07,3.28s2.14,1,3.28,1.21c1.45.26,2.9.53,4.35.82a1.45,1.45,0,0,0,.83,0,1.33,1.33,0,0,0,1.69-.81c.47-1,1-2.05,1.52-3.05.25-.47.52-.94.78-1.41.14-.22.27-.58.45-.83a10.81,10.81,0,0,1,4.73,2c.18.11.94.49,1,.73a6.05,6.05,0,0,1-.51,1.21l-1.25,3.15a1.66,1.66,0,0,0,1.12,2l2.61,2.79a16.29,16.29,0,0,0,3,2.86,4.2,4.2,0,0,0,3.41.4c.6-.18,1.16-.49,1.76-.69l.88,3.37c.17.71.37,1.43.55,2.16a1.6,1.6,0,0,0,0,.54Z"/><path class="cls-16" d="M135.85,291.27a52.41,52.41,0,0,1-10-3.2,1.75,1.75,0,0,0-2.3.61,1.69,1.69,0,0,0,.6,2.3,54.07,54.07,0,0,0,6.61,2.45,50.87,50.87,0,0,1-39.47-2.63,48,48,0,0,1-10-6.74c-1.6-1.43-4,.93-2.36,2.36a53.93,53.93,0,0,0,42,12.77,51,51,0,0,0,12.32-3.1,22.53,22.53,0,0,1-1.92,5.45c-1,1.92,1.92,3.61,2.91,1.69a27.91,27.91,0,0,0,2.83-10.31A1.68,1.68,0,0,0,135.85,291.27Z"/><path class="cls-16" d="M195.71,206.48c-8.51-5.32-18.8-5.45-28.42-4.11-9.09,1.25-18.62,3.33-26.81,7.57a33.71,33.71,0,0,0-9.76,7.43c-.09-.76-.2-1.52-.36-2.3-.4-2.12-3.61-1.23-3.23.9a32.47,32.47,0,0,1,.46,7.63,1.69,1.69,0,0,0,1.68,1.67c3-.31,6-.62,9-1a1.71,1.71,0,0,0,1.68-1.67,1.68,1.68,0,0,0-1.68-1.67l-6.92.73a2.36,2.36,0,0,0,.54-.51c5-6.74,13.15-10.2,21-12.41,8.62-2.41,17.86-4.27,26.86-3.71a30.36,30.36,0,0,1,14.31,4.31C195.84,210.52,197.54,207.62,195.71,206.48Z"/><path class="cls-17" d="M398.64,208.12c2.91-1.41,5.9-2.65,8.91-3.83a6.19,6.19,0,0,0,.28-3.5,64.53,64.53,0,0,0-1.92-6.3c-1.32-4-2.76-7.91-4.28-11.81a240.77,240.77,0,0,0-10.46-23,57.16,57.16,0,0,0-3.18-5.87,7.13,7.13,0,0,0-4-3,1.78,1.78,0,0,1-.39,0,13.73,13.73,0,0,0-2,.44A20,20,0,0,0,378,153c-2.44,1.4-4.84,3-7.57,3.77a1.87,1.87,0,0,1-1.83-.42l-42,20.55-5.53,2.7a4.27,4.27,0,0,0-2.09,2.24,3.57,3.57,0,0,0-1,4q5.22,11.7,10.45,23.42,2.64,5.9,5.26,11.81l2.6,5.81c1,2.15,1.84,4.48,4.13,5.47,2,.88,4.09.3,6.12-.11,2.2-.43,4.41-.9,6.58-1.49a44.69,44.69,0,0,0,11.17-5c1.7-1,3.35-2.13,5-3.2.77-.48,1.53-1,2.31-1.41l.62-.36s.26-.14.4-.21.19-.1.18-.12l1-.49a58.52,58.52,0,0,1,10.52-3.74c.89-.25,1.79-.48,2.71-.73A47.52,47.52,0,0,1,398.64,208.12ZM343.7,226.06l0-.06C344,226.23,343.83,226.29,343.7,226.06Z"/><path class="cls-16" d="M407.68,194.86l-5.47-12.71q-5.5-12.81-11-25.63c-.45-1-.89-2.05-1.34-3.09a6.72,6.72,0,0,0-1.56-2.54c-1.65-1.4-3.72-.57-5.45,0-4.18,1.41-8.35,2.91-12.46,4.49a362.51,362.51,0,0,0-48.48,22.72l-4,2.3a1.47,1.47,0,0,0-2.09,1.32,1.63,1.63,0,0,0,.66,2.22s.12.06.18.11q10,25,22.11,48.94a9.4,9.4,0,0,0,1.51,2.34,1.54,1.54,0,0,0,2.32,1h.12a6,6,0,0,0,2.35-.7l3.31-1.52,12.21-5.61,24.76-11.37c4.07-1.86,8.13-3.75,12.2-5.61l6.27-2.89,2.79-1.29a15.81,15.81,0,0,0,2.81-1.43c1.53-1.18,1.61-3,.95-4.77C409.57,199.05,408.58,197,407.68,194.86ZM387.5,155.19c.47,1.09.93,2.18,1.41,3.28l2.58,6,5.23,12.16c3.22,7.52,6.47,15,9.69,22.56a189,189,0,0,0-29.69-13.73c1.18-3,2.31-6.06,3.44-9.11,2.58-7,5-14.14,7.31-21.27A.27.27,0,0,0,387.5,155.19Zm-24.13,6.21c3.93-1.6,7.86-3.13,11.83-4.6q2.93-1.08,5.87-2.1l2.87-1,1-.4c-4.12,12.9-8.66,25.68-13.78,38.17-1,2.53-2.37,5.53-5.39,5.82a15.41,15.41,0,0,1-4.57-.53c-1.62-.32-3.24-.66-4.84-1a160.93,160.93,0,0,1-18.66-5.54,165.56,165.56,0,0,1-17.59-7.62A353.85,353.85,0,0,1,363.37,161.4Zm-22.09,70.22c-.39-.74-.76-1.52-1.13-2.27-1-2-2-4-3-6q-2.9-5.94-5.63-11.93-5.51-12-10.5-24.19c-.17-.4-.32-.79-.48-1.2a166.64,166.64,0,0,0,32.05,11.79,1.32,1.32,0,0,0-.31.55Q346.76,215,341.28,231.62Zm59.41-24.77-11.85,5.45L365.64,223,354,228.32,348,231l-2.79,1.29c-.4.2-.87.46-1.35.71q5.52-16.71,11.05-33.39a1.55,1.55,0,0,0-.1-1.24,57.32,57.32,0,0,0,9.39,1.85,8.09,8.09,0,0,0,7.92-4.14,45.62,45.62,0,0,0,3.48-7.92,188.76,188.76,0,0,1,31.66,14.9,1.5,1.5,0,0,0,.59.21c-.18.49-1,.72-1.44.91C404.53,205.07,402.6,206,400.69,206.85Z"/><path class="cls-17" d="M383.65,120.74a17.06,17.06,0,0,0-2.95-8.15,29.65,29.65,0,0,0-24.88-13.47c-.44,0-.88,0-1.31.06a3.58,3.58,0,0,0-3.82.63l-.16.13a8.82,8.82,0,0,0-3.13,1.93,43.76,43.76,0,0,0-5.22,6.52c-3,4.29-5.16,9.53-4.53,14.84a14.85,14.85,0,0,0,2.9,7.56,13.3,13.3,0,0,0,5.7,4.24,15.84,15.84,0,0,0,4.11,2.12c5.11,1.79,10.86.8,15.89-.67s10.91-3.23,14.35-7.49A12.34,12.34,0,0,0,383.65,120.74Z"/><path class="cls-18" d="M385.23,139.86a3.46,3.46,0,0,0-4.76,0l-5.69,4.86a3.37,3.37,0,0,0,0,4.76,3.46,3.46,0,0,0,4.76,0l5.69-4.85A3.39,3.39,0,0,0,385.23,139.86Z"/><path class="cls-15" d="M370.49,103.87a.6.6,0,0,0-.13-.09.34.34,0,0,1,.13.09Z"/><path class="cls-15" d="M385.23,108.67A36.15,36.15,0,0,0,373.85,96.3,53,53,0,0,0,367,92.2c-3-1.5-6.2-2.82-9.6-2.66-6.22.29-11.09,4.45-15.18,8.8a3,3,0,0,0-3.31.75,40,40,0,0,0-8.49,17.38,28.65,28.65,0,0,0,2.22,18.28,24.53,24.53,0,0,0,11.72,11.51,21.9,21.9,0,0,0,6.73,1.77h.15a17,17,0,0,0,2.14.07h.22a28,28,0,0,0,5.84-.86,15.62,15.62,0,0,0,3-.2c3.11-.52,5.8-2.34,8.38-4,.31-.2.6-.4.91-.58s.47-.24.71-.37c.76-.31,1.54-.6,2.31-.91a4.22,4.22,0,0,0,1.87-1.43c1.13-.69,2.25-1.42,3.33-2.18a3.28,3.28,0,0,0,.31-.2l.41-.33c.09-.06.17-.13.26-.18h0c1.09-.82,2.14-1.68,3.16-2.58a2.84,2.84,0,0,0,1-2.15,19.79,19.79,0,0,0,2.88-7.82A25.71,25.71,0,0,0,385.23,108.67Zm-5.11,15.56s0,.2,0,.34c0-.12-.08.53-.11.66a16.18,16.18,0,0,1-.82,3,.25.25,0,0,0,0,.11v0c-.11.22-.2.43-.32.65a16.62,16.62,0,0,1-.88,1.46,1.86,1.86,0,0,1-.14.2h0c-2.86,1.91-5.69,3.83-8.58,5.69q-4.59,1.8-9.2,3.54c-.77.29-1.51.55-2.27.77l-.4-.06c-.35,0-.7-.11-1-.18-.66-.11-1.29-.24-2-.36-1.2-.24-2.38-.48-3.56-.79-.62-.16-1.22-.32-1.82-.52l-.82-.28-.4-.14a.89.89,0,0,0-.25-.09l-.55-.26-.76-.38c-.54-.29-1.05-.62-1.56-1l-.15-.09a.37.37,0,0,0-.11-.09l-.63-.57c-.2-.18-.38-.38-.57-.58a5.42,5.42,0,0,0-.49-.54,20,20,0,0,1-1.54-2.66,1.23,1.23,0,0,1-.09-.23l-.28-.77c-.18-.56-.34-1.13-.47-1.71s-.25-1.16-.34-1.74l-.06-.33q-.06-.43-.09-.87a46.05,46.05,0,0,1,0-7.24c0-.62.09-1.23.17-1.85,0-.29.07-.57.09-.86s0-.38.09-.58a30.69,30.69,0,0,1,.82-3.74c.18-.64.38-1.28.61-1.89.09-.24.17-.46.28-.7,0,0,.23-.5.29-.63a21.33,21.33,0,0,1,1.78-3s.18-.24.27-.35l.6-.67.27-.29a2.92,2.92,0,0,0,.71-.57c.22-.23.42-.47.64-.69l.16-.14.09-.07a.28.28,0,0,1,.08-.06c.45-.33.91-.64,1.4-.94a14.94,14.94,0,0,1,1.36-.77c.24-.13.47-.23.71-.34l.36-.17,0,0h0a29.28,29.28,0,0,1,3.1-1c.51-.13,1-.22,1.55-.31a.32.32,0,0,1,.13,0h0l.91-.09a21.44,21.44,0,0,1,3.4,0l.78.07.19,0c.56.09,1.1.2,1.67.34a25,25,0,0,1,3.11,1l.41.18.73.35c.53.25,1,.55,1.53.84s.91.56,1.36.87c.22.14.44.31.66.47l.18.13c-.09-.07-.07-.07.11.09h0l0,0a0,0,0,0,1,0,0,28.87,28.87,0,0,1,2.6,2.35c.38.38.74.78,1.11,1.2.18.2.34.41.52.61s.17.22.26.31l.18.24.29.4c.16.22.31.43.47.67.37.53.69,1.06,1,1.6.58,1,1.07,2,1.55,3a.36.36,0,0,0,.05.09s0,0,0,.07l.27.71c.2.57.38,1.13.55,1.71a30,30,0,0,1,.67,3.07c0,.08,0,.15,0,.24,0,.26.05.51.07.76q.06.83.06,1.68A15.32,15.32,0,0,1,380.12,124.23Z"/><path class="cls-19" d="M418.88,182.39c-1.6-3.17-4.34-5.71-6.69-8.31q-3.78-4.17-7.49-8.44-8.34-9.57-16.32-19.43a3.29,3.29,0,0,0-4.64,0,3.44,3.44,0,0,0-.91,1.94,2.9,2.9,0,0,0-2.94.11c-1.37.87-2.26,3-1.18,4.47a340.25,340.25,0,0,0,28,33.27c1.24,1.29,2.49,2.58,3.77,3.88,1.47,1.49,3,3.29,5.31,3.3,2.94,0,4.21-2.76,4.41-5.3A10,10,0,0,0,418.88,182.39Z"/><path class="cls-16" d="M421.68,183.42c-1-4.09-4-7.34-6.74-10.36q-5-5.46-9.93-11-10.93-12.3-21.38-25a30.17,30.17,0,0,0,5-9.36,29.18,29.18,0,0,0,.18-17.78C385,98,373.09,92.05,361.69,89.12c-1.38-.34-2.76-.67-4.16-1a1.23,1.23,0,0,0-1-.09A35.87,35.87,0,0,0,331.26,133c1.81,6,5.43,11.89,11.27,14.76s12.8,3,19.1,1.91a38.83,38.83,0,0,0,9.31-2.83l18.91,22.94c3.25,3.94,6.51,7.91,9.78,11.85,1.62,1.95,3.22,3.91,4.84,5.86a58.56,58.56,0,0,0,4.41,5.16,8.08,8.08,0,0,0,5.17,2.49,6.91,6.91,0,0,0,4.69-1.78A10,10,0,0,0,421.68,183.42Zm-56.05-37.54a34.77,34.77,0,0,1-17.21,1,17.88,17.88,0,0,1-8.18-3.93,21,21,0,0,1-5-7,32.35,32.35,0,0,1-2.46-17.85A33.34,33.34,0,0,1,353.29,92a31.93,31.93,0,0,1,3.54-1.18c10.39,2.16,22,6.09,27.58,15.85s3,22.7-4.56,30.63A32.77,32.77,0,0,1,365.63,145.88Zm12.66-3.51a31.36,31.36,0,0,0,3.51-3.2c1.18,1.44,2.36,2.86,3.56,4.27a69.45,69.45,0,0,1-8.56,6.22c-1.13-1.36-2.26-2.74-3.39-4.11A34,34,0,0,0,378.29,142.37Zm40,47.31a5.51,5.51,0,0,1-3.28,2.63,4.73,4.73,0,0,1-4.21-1.6,53.15,53.15,0,0,1-4.19-4.89L402,180.24q-4.56-5.51-9.09-11-7.18-8.7-14.37-17.41a73.15,73.15,0,0,0,8.57-6.26q6.15,7.32,12.45,14.51,4.57,5.24,9.27,10.38c2.8,3.09,6,6.07,8.29,9.56C419.06,183,420.17,186.48,418.25,189.68Z"/><path class="cls-16" d="M380.78,111.7c-3.47-9.51-13.49-15.07-23.38-14.45h0a1.26,1.26,0,0,0-.8-.27c-4.91-.13-9.15,2.81-12,6.6a31.57,31.57,0,0,0-3.53,6.25,44.26,44.26,0,0,0-2.67,7.44,20.77,20.77,0,0,0,.91,14,15.13,15.13,0,0,0,9.91,7.95,29.71,29.71,0,0,0,13.07.25A28.4,28.4,0,0,0,374,134.65a19.64,19.64,0,0,0,7.25-10A21.1,21.1,0,0,0,380.78,111.7Zm-6.27,18.93c-5.28,5.25-13.57,7.23-20.82,6.63-3.73-.31-7.55-1.56-10.13-4.4-2.74-3-3.52-7.4-3.16-11.36a29.85,29.85,0,0,1,1.91-7.6,41,41,0,0,1,3.16-6.74c2.35-4,6.15-7.53,11-7.46a1.25,1.25,0,0,0,.89.28c7.62-.48,15.6,3,19.49,9.76S380,125.14,374.51,130.63Z"/><path class="cls-16" d="M351,104.54a95.74,95.74,0,0,0-5.8,25.78c-.14,1.74,2.58,1.74,2.73,0a93.46,93.46,0,0,1,5.71-25C354.22,103.61,351.58,102.9,351,104.54Z"/><path class="cls-16" d="M357.91,106.05q-2.3,6.87-3.89,13.94c-.39,1.71,2.23,2.44,2.63.73q1.62-7.06,3.89-13.94C361.09,105.1,358.47,104.39,357.91,106.05Z"/><path class="cls-18" d="M313.32,40.67A7.59,7.59,0,0,0,307.83,36a12,12,0,0,0-6.78.67,13.16,13.16,0,0,0-4.4,2.27,3.1,3.1,0,0,0-2.76-.45c-1.65.54-3.11,2.45-2.41,4.27a43,43,0,0,0,2.82,6.67,6.68,6.68,0,0,0,6.54,3.24c4.35-.37,9.28-1.46,11.7-5.47A7.81,7.81,0,0,0,313.32,40.67Z"/><path class="cls-15" d="M341.75,60c-.17-2-.47-4.06-.79-6.07a100,100,0,0,0-5.9-21.43,105,105,0,0,0-4.89-10.61c-.88-1.67-1.82-3.3-2.79-4.91a9,9,0,0,0-1.93-2.51c-1.35-1-2.89-1-4.48-.65-4.48.91-8.94,1.93-13.4,3a12.12,12.12,0,0,0-5.43-5.69,15.11,15.11,0,0,0-9-2.27A12.45,12.45,0,0,0,285.09,13a24.5,24.5,0,0,0-4.24,8.15A2.49,2.49,0,0,0,282.09,24c-2.7.85-5.4,1.73-8.08,2.63-1.89.63-3.76,1.27-5.64,1.93a3.78,3.78,0,0,0-1.22.69,3.86,3.86,0,0,0-.71.3c-6.05,3.58-8.71,11.05-8,17.82A42.32,42.32,0,0,0,262,59.54c1.52,3.52,3.15,7,4.82,10.45a94.73,94.73,0,0,0,5.54,10.07,18.23,18.23,0,0,0,3.7,4.62,8.85,8.85,0,0,0,6.29,2c4-.28,8-1.68,11.83-2.9s7.62-2.63,11.42-4l23.58-8.45c1.91-.69,3.84-1.36,5.75-2.06,2.21-.78,4.37-1.55,5.73-3.61A9,9,0,0,0,341.75,60Zm-56-37.62a19.55,19.55,0,0,1,2.74-5.68,7,7,0,0,1,2.28-1.93,7.81,7.81,0,0,1,2.7-.9c-.05,0,.58,0,.57,0h.71a6.86,6.86,0,0,1,1.35.19,13.82,13.82,0,0,1,3.28,1.29,10.63,10.63,0,0,1,2.26,1.58,5.39,5.39,0,0,1,1,1.14q-8.61,2.22-17.09,4.82A2.06,2.06,0,0,0,285.72,22.42Zm26.39,24.19c-.23.21-.47.39-.72.6l-.3.24v0c-.57.39-1.11.81-1.69,1.18a33.1,33.1,0,0,1-3.58,2l-.86.42-.53.22c-.58.23-1.16.45-1.76.66a33.64,33.64,0,0,1-3.82,1l-.62.11s-.35,0-.52,0a4.67,4.67,0,0,1-.75,0l-.4-.11c0-.1-.41-.49-.24-.19a16.39,16.39,0,0,1-.86-1.52c-.68-1.31-1.35-2.64-2-4-.73-1.5-1.42-3-2.1-4.5-.24-.54-.48-1.09-.73-1.63,4.8-1.44,9.61-2.77,14.47-4,1.33-.34,2.64-.67,4-1,.94,2.94,1.86,5.88,2.79,8.84.11.34.23.67.32,1a3.46,3.46,0,0,1,.11.34A.43.43,0,0,0,312.11,46.61Z"/><path class="cls-16" d="M343.83,56.32a26,26,0,0,0-1.58-5.72c-.63-2-1.27-3.92-1.93-5.88-1.25-3.81-2.56-7.59-3.89-11.36s-2.79-7.76-4.24-11.63l-2.13-5.63c-.6-1.55-1.05-3.67-2.48-4.72s-3.43-.6-5.06-.17c-1.85.51-3.69,1.11-5.51,1.77-2.94,1.06-5.84,2.24-8.75,3.39a15.38,15.38,0,0,0-12.74-8.06,14.62,14.62,0,0,0-13.3,7.59,15,15,0,0,0-2,7.19c-2.56.47-5.11,1-7.66,1.61-3,.74-6.13,1.65-8.32,3.92a6.65,6.65,0,0,0-1.48,2.32,1.37,1.37,0,0,0-1.42,1l-1.86,5.9c-.56,1.8-1.22,3.6-1.61,5.44-.83,3.93.67,7.3,2.25,10.83,3.28,7.38,6.46,14.84,9.91,22.14A120.87,120.87,0,0,0,276,87.42a1.36,1.36,0,0,0,1.7,1.61q29.49-8.91,59-17.84c2.23-.67,5-1.12,5.79-3.65a20.61,20.61,0,0,0,.49-3.92l.39-4.25a1.93,1.93,0,0,0,0-.34A5.09,5.09,0,0,0,343.83,56.32Zm-4.27-5A24.54,24.54,0,0,1,341,56.58c.13,1.53-.85,2.4-2.14,3-1.55.73-3.24,1.23-4.87,1.81s-3.47,1.2-5.21,1.8q-10.54,3.54-21.25,6.43c-7.18,1.93-14.43,3.78-21.73,5.15-1.48.28-3.06.45-4.26-.65a9.78,9.78,0,0,1-2.06-3.58c-1.42-3.6-2.77-7.22-4.18-10.83-.65-1.73-1.33-3.45-2-5.19q9.36-2.7,18.7-5.49a8.21,8.21,0,0,0,3.14,3.16,7.74,7.74,0,0,0,6.06.42,41.51,41.51,0,0,0,6-2.29,18.46,18.46,0,0,0,5.14-3,4.5,4.5,0,0,0,1-4.83c2.81-.88,5.6-1.78,8.41-2.68q6.27-2,12.52-4.12C336.09,40.88,337.85,46.1,339.56,51.37Zm-46-5.74a27.8,27.8,0,0,1-.78-3.86,12.53,12.53,0,0,1,3.48-1.49c1.67-.53,3.38-1,5.08-1.41a51.22,51.22,0,0,1,5.34-1.14,1.25,1.25,0,0,1,1.5.67,19.92,19.92,0,0,1,1.31,2.29v0Q301.58,43.23,293.57,45.63Zm17.15-2.36a2,2,0,0,1-.11,1.75c-.85,1.18-2.66,1.83-3.92,2.43A45.18,45.18,0,0,1,302,49.4c-1.42.51-3.11,1.14-4.62.71a4.73,4.73,0,0,1-2.65-1.93C300.09,46.59,305.42,44.94,310.72,43.27ZM288.46,13.09a12.23,12.23,0,0,1,17.16,4.27q-.87.32-1.74.6a11.39,11.39,0,0,0-11.43-4.05,11.52,11.52,0,0,0-8.34,8.51l-.11,0-.92.17A12.62,12.62,0,0,1,288.46,13.09Zm12.44,5.77a140,140,0,0,1-13.73,3,8.32,8.32,0,0,1,13.73-3ZM265.21,32.78c.35-2.62,3.22-3.88,5.43-4.63a73.68,73.68,0,0,1,10.17-2.3l.19,0a1.61,1.61,0,0,0,1.71-.3,175.76,175.76,0,0,0,19.35-4c6.84-2,13.27-5.25,20.11-7.27.95-.28,3.31-1.35,4-.26a13.37,13.37,0,0,1,.9,2.25c.37,1,.75,1.93,1.1,2.88,1.35,3.51,2.66,7,3.94,10.57.39,1.11.8,2.23,1.2,3.34q-10.51,3.51-21.06,6.83A15.62,15.62,0,0,0,310,36.13c-1.61-1.81-3.86-1.18-6-.74-2.47.52-4.95,1.14-7.36,1.85-2.23.66-4.54,1.29-6.3,2.87A1.36,1.36,0,0,0,290,41.7a1,1,0,0,0,0,.24,30.48,30.48,0,0,0,.93,4.48l-4.68,1.41q-6.86,2.06-13.76,4l-.15,0q-2.68-7-5.39-14c-.62-1.6-1.22-3.19-1.84-4.78A1.52,1.52,0,0,0,265.21,32.78Zm3.44,33.54c-1.61-3.63-3.24-7.27-4.85-10.9-.77-1.75-1.61-3.49-2.32-5.27a11.15,11.15,0,0,1-1-5.13,29.94,29.94,0,0,1,1.62-5.91c.35-1.1.69-2.23,1.05-3.33,2.71,7.06,5.43,14.15,8.17,21.21q2.26,5.92,4.55,11.86c.84,2.21,1.61,4.84,3.2,6.69-.69,2.66-1.38,5.34-2.08,8C273.82,78,271.24,72.15,268.65,66.32Zm70,1.37c-1.16.41-2.38.73-3.56,1.09l-14.13,4.27-28.07,8.49-13.55,4.1c.72-2.77,1.43-5.53,2.16-8.3a8.55,8.55,0,0,0,4.76.2c2-.37,3.92-.82,5.86-1.25q5.75-1.26,11.42-2.74,11.55-2.94,22.87-6.63,5.76-1.86,11.43-3.92a20.6,20.6,0,0,0,2.55-1,37.83,37.83,0,0,1-.45,4.28A1.6,1.6,0,0,1,338.62,67.69Z"/><path class="cls-19" d="M341.91,281.52c-2-1.06-4-2.06-6-3-.7-.34-1.43-.67-2.13-1-9.23-7.42-20.54-10.71-31.91-12.39-5.75-.84-11.52-1.38-17.3-1.9a168.43,168.43,0,0,0-18.49-.9q-1.8,0-3.57.15c0-.12,0-.26,0-.39a26.2,26.2,0,0,0-1.91-11.51,3.15,3.15,0,0,0-2.84-2.15,2.73,2.73,0,0,0-2.68,2.11,50.8,50.8,0,0,0-22.78,16.29,3,3,0,0,0,.14,4,3.25,3.25,0,0,0,2.24.85q9,7.95,18.06,15.89a2.91,2.91,0,0,0,3.11.62,2.7,2.7,0,0,0,1.69-2.61,33.3,33.3,0,0,1-.19-8.1c5,.39,10,.56,15,.53a2.51,2.51,0,0,0,2.47-1.68c4.79.6,9.54,1.4,14.29,2.43A161.08,161.08,0,0,1,322.44,290a158.31,158.31,0,0,1,17.73,9.63,2.86,2.86,0,0,0,3.86-1.06,26.33,26.33,0,0,0,3.11-5.86c.84-2.23,1.59-4.6.34-6.92C346.32,283.64,343.93,282.59,341.91,281.52Z"/><path class="cls-16" d="M328.11,271A114.63,114.63,0,0,0,286,260.53a107.51,107.51,0,0,0-22.27,1.2,120.85,120.85,0,0,0-2-16.13,1.68,1.68,0,0,0-2.48-1.29,263.46,263.46,0,0,0-29.95,21.28,1.6,1.6,0,0,0-.43,2.19,96.69,96.69,0,0,0,26.26,24.1,1.55,1.55,0,0,0,2.28-1.47c.05-3.77.11-7.57.16-11.34a149.06,149.06,0,0,1,64.53,13.37,156.21,156.21,0,0,1,17,9.07,1.43,1.43,0,0,0,1.06.22c.1,1.35,2.25,2.17,3,.67,2.08-3.83,4.14-7.68,6.21-11.52.85-1.58,2-3.31,1.26-5.23-.62-1.59-2.36-2.58-3.68-3.55A111,111,0,0,0,328.11,271ZM341,281.69c1.61,1,3.17,2.13,4.71,3.28a7.48,7.48,0,0,1,2,1.62c.36.62-.41,1.57-.68,2.1-1.93,3.59-3.86,7.19-5.8,10.75a1.83,1.83,0,0,0-.65-.72,153.86,153.86,0,0,0-65.22-22.1A146.87,146.87,0,0,0,256,276a1.57,1.57,0,0,0-1.46,1.65l-.14,10a92.62,92.62,0,0,1-21.93-20.39,263.34,263.34,0,0,1,26.62-19,118.81,118.81,0,0,1,1.62,15.39,1.7,1.7,0,0,0,2.12,1.45,105.68,105.68,0,0,1,40.47.86A111,111,0,0,1,341,281.69Z"/><path class="cls-19" d="M410.5,269.24q2.44-2.33,4.75-4.76c.54-.56,1.08-1.15,1.62-1.71,9.94-6.43,16.62-16.13,21.79-26.4,2.61-5.19,4.94-10.5,7.25-15.82a167.64,167.64,0,0,0,6.67-17.27c.35-1.15.68-2.3,1-3.44.1.06.23.11.35.17a26.36,26.36,0,0,0,11.52,1.8,3.16,3.16,0,0,0,2.94-2,2.75,2.75,0,0,0-1.16-3.21,50.77,50.77,0,0,0-8.3-26.74,3,3,0,0,0-3.88-1.15,3.26,3.26,0,0,0-1.51,1.87q-10.39,6.06-20.76,12.14a2.92,2.92,0,0,0-1.57,2.76,2.71,2.71,0,0,0,1.95,2.43,33.56,33.56,0,0,1,7.75,2.36c-1.94,4.61-3.68,9.31-5.22,14.06a2.51,2.51,0,0,0,.81,2.88q-3.11,6.52-6.8,12.8a159.94,159.94,0,0,1-35.82,41.91,2.83,2.83,0,0,0-.21,4,26,26,0,0,0,4.58,4.8c1.85,1.5,3.87,2.95,6.46,2.5C407.1,272.76,408.84,270.82,410.5,269.24Z"/><path class="cls-16" d="M424.86,259.46A114.86,114.86,0,0,0,448,222.79a107.07,107.07,0,0,0,5.87-21.52,121.86,121.86,0,0,0,15.94,3.19,1.68,1.68,0,0,0,2-2A264.62,264.62,0,0,0,461,167.39a1.61,1.61,0,0,0-1.94-1.1A96.38,96.38,0,0,0,428,183.64a1.54,1.54,0,0,0,.68,2.62L439.34,190a149.16,149.16,0,0,1-33,57.05,154.26,154.26,0,0,1-14,13.32,1.41,1.41,0,0,0-.53.94c-1.32-.33-2.77,1.46-1.6,2.68,3,3.17,6,6.34,9,9.51,1.23,1.3,2.52,2.93,4.57,2.85,1.7-.09,3.2-1.43,4.53-2.38A112.1,112.1,0,0,0,424.86,259.46Zm-14.24,8.88c-1.5,1.19-3,2.34-4.59,3.43a7.65,7.65,0,0,1-2.18,1.42c-.7.15-1.36-.89-1.78-1.3L393.68,263a2,2,0,0,0,.9-.39,153.81,153.81,0,0,0,41.49-55,148.37,148.37,0,0,0,6.75-18.23,1.57,1.57,0,0,0-1.11-1.9l-9.5-3.3a93,93,0,0,1,26.26-14.4,261.23,261.23,0,0,1,9.64,31.25A121.62,121.62,0,0,1,453,197.75a1.69,1.69,0,0,0-2,1.55,105.62,105.62,0,0,1-13.55,38.15A111.23,111.23,0,0,1,410.62,268.34Z"/><path class="cls-19" d="M113.08,98.26q3.83-1.59,7.56-3.35l2.61-1.24c14.25-3,26.22-11.11,36.71-20.59,5.29-4.8,10.31-9.85,15.33-14.92A209.69,209.69,0,0,0,190.6,41.32c.92-1.16,1.8-2.33,2.66-3.5a3.48,3.48,0,0,0,.33.34A32.22,32.22,0,0,0,206,45.35a3.9,3.9,0,0,0,4.26-1,3.37,3.37,0,0,0,.1-4.2A62.36,62.36,0,0,0,212.71,5.8a3.61,3.61,0,0,0-3.93-3,4,4,0,0,0-2.57,1.46C196.48,5.79,186.75,7.38,177,8.94a3.54,3.54,0,0,0-3,2.46,3.3,3.3,0,0,0,1.15,3.65A41,41,0,0,1,183,21.2c-4.26,4.42-8.35,9-12.23,13.8a3.1,3.1,0,0,0-.34,3.66Q164,44.77,156.94,50.32a197.59,197.59,0,0,1-36.67,22.85,197,197,0,0,1-23,9.29,3.5,3.5,0,0,0-2,4.48,32.29,32.29,0,0,0,3.13,7.54c1.46,2.54,3.13,5.1,6.29,5.73C107.62,100.78,110.48,99.34,113.08,98.26Z"/><path class="cls-16" d="M133.88,93.42a141,141,0,0,0,42.81-31.77A131.22,131.22,0,0,0,193,39.59a148,148,0,0,0,16.86,10.73A2.07,2.07,0,0,0,213,49a323.59,323.59,0,0,0,3.23-45,2,2,0,0,0-1.73-2.12,118.61,118.61,0,0,0-43.41,6.07c-1.57.53-1.41,2.44-.38,3.31l10.63,9A183.56,183.56,0,0,1,118.19,71,193.57,193.57,0,0,1,96.25,80a1.77,1.77,0,0,0-1,.83c-1.36-1-3.82.45-3,2.36,2,5,4.06,9.93,6.08,14.9.83,2,1.58,4.47,4,5.29,2,.65,4.3-.22,6.25-.72A136.56,136.56,0,0,0,133.88,93.42Zm-20.27,3.85c-2.24.71-4.49,1.35-6.78,1.91a9,9,0,0,1-3.13.65c-.87-.13-1.17-1.62-1.46-2.28-1.9-4.64-3.8-9.29-5.67-13.91a2.26,2.26,0,0,0,1.2-.06,189,189,0,0,0,72-44.58,182.47,182.47,0,0,0,15.83-17.91,1.92,1.92,0,0,0-.43-2.67l-9.42-8a114,114,0,0,1,36.49-4.85,324.36,324.36,0,0,1-2.81,40.1,150.23,150.23,0,0,1-15.87-10.5,2.07,2.07,0,0,0-3,.87A129.87,129.87,0,0,1,158,73.75,136.21,136.21,0,0,1,113.61,97.27Z"/><path class="cls-20" d="M188.41,117.1c-.5-4.06-1-8.13-1.66-12.16a10.94,10.94,0,0,0-.46-1.94l.21-.18a2.34,2.34,0,0,0,.66-1.53,2.16,2.16,0,0,0-.66-1.54A2.26,2.26,0,0,0,185,99.1h-.9a2.09,2.09,0,0,0-1.07.28,20.21,20.21,0,0,0-2.34-.91,76,76,0,0,0-47.32-.37,1.91,1.91,0,0,0-1,.65,2,2,0,0,0-2.25,2.1q1.41,32,2.81,63.91a2.21,2.21,0,0,0,3.29,1.88,18.74,18.74,0,0,1,1.84-.94,2.14,2.14,0,0,0,2,.5,89.78,89.78,0,0,1,50.07,2.66,2.2,2.2,0,0,0,2.78-2.1Q191.47,141.83,188.41,117.1Z"/><path class="cls-21" d="M130.62,189.14c-22.81-1.72-45.75-3.41-68.63-1.78q-8.49.6-16.88,1.87c-.18-1.06-.37-2.15-.53-3.22a1.92,1.92,0,0,0,.6-1.56Q43.86,148.21,42.55,112c-.25-6.88-.5-13.76-.75-20.6-.09-2.81-4.47-2.81-4.38,0q1.13,30.75,2.22,61.48a1.85,1.85,0,0,0-.53,1.53q.8,14.34,1.63,28.69a2.15,2.15,0,0,0-.69,2.06c.41,2.38.78,4.75,1.19,7.13.22,1.25,1.62,1.68,2.69,1.53,1.9-.31,3.81-.6,5.75-.85a1.94,1.94,0,0,0,1.84,1.07c5.59.06,11.19.12,16.78.22s11,.25,16.44-.19,10.91-1.91,16.44-2.16c5.32-.25,10.1,1.47,15.19,2.66s10.72,1.47,15.41-1.35A2.23,2.23,0,0,0,130.62,189.14Z"/><path class="cls-21" d="M199.66,187.61c-8.12.22-16.28.4-24.41.62a2,2,0,0,0-2,1.44c-2.15-.16-4.31-.34-6.46-.53-2.82-.25-2.79,4.13,0,4.38,3.34.31,6.68.56,10.06.78a1.71,1.71,0,0,0,2,1.18l7.59-.78h.13c3.28.1,6.59.16,9.87.07,2.16-.07,4.35-1.13,4.38-3.13C202.41,190.61,202,187.55,199.66,187.61Z"/><path class="cls-22" d="M201.41,183.89q-2.21-40.56-4.37-81.07c-.19-3.44,0-7.1-.69-10.47a8.46,8.46,0,0,0-.63-1.94,1.94,1.94,0,0,0-.9-2.59c-17-9.16-36.41-7.72-54.91-4.85a50.12,50.12,0,0,0-8.19,1.34,2,2,0,0,0-1.28.88c-3.19.5-6.38,1.06-9.54,1.75a1.54,1.54,0,0,0-.12-.34c-.81-1.88-2.63-2.94-4.44-3.75a50.85,50.85,0,0,0-7-2.54,60.34,60.34,0,0,0-14.5-2.06c-.63,0-1.28,0-1.91,0a61,61,0,0,0-46.57,8.69,2.33,2.33,0,0,0-.81.94,2.12,2.12,0,0,0-.47,1.28,690.36,690.36,0,0,0,.16,75.44c.4,7.22.94,14.41,1.56,21.6a2.31,2.31,0,0,0,4.06,1.28,2.32,2.32,0,0,0,.44.06h.35a2.23,2.23,0,0,0,1.31-.43,2.23,2.23,0,0,0,1.5-.25c1.53-.88,3.9-.47,5.59-.47,2.28,0,4.53,0,6.82.09,3.62.1,7.22.28,10.81.5a1.79,1.79,0,0,0,2.12.53l1.22-.43a2.4,2.4,0,0,0,1.38-1.19,2,2,0,0,0,1.41.44c15-.91,29.84,2.37,44.78,3.46,14.78,1.07,29.54-.65,44.32-1.4a152.93,152.93,0,0,1,25.41.5,2.2,2.2,0,0,0,2.19-2.19,2.28,2.28,0,0,0-.19-.91A1.85,1.85,0,0,0,201.41,183.89Zm-61.22-87.1a2.07,2.07,0,0,0,1.43-1.35c7.07-1.47,14.32-.62,21.38.44,3.85.56,7.66,1.19,11.5,1.59,1.72.19,3.44.32,5.19.38a21.05,21.05,0,0,1,5.44.4c2.81.88,3.41,4,3.75,6.6.53,3.87.88,7.78,1.28,11.69.85,8.22,1.53,16.47,2.1,24.69q.88,13.31,1.34,26.69c-20.32-5.22-42.22-6.28-62.2.62a119.12,119.12,0,0,0-1.84-18,2.55,2.55,0,0,0,1-4.59c-.06-.69-.09-1.35-.16-2-.09-1.22-.18-2.47-.25-3.69-.15-2.56-.28-5.13-.37-7.69-.19-5-.25-10.06-.22-15.06s.22-10.07.5-15.07c.06-.81-.16-2.31.28-3s1.38-.62,2-.78C134.94,98,137.56,97.38,140.19,96.79Z"/><path class="cls-23" d="M203.57,187.23a2,2,0,0,0,.12-.59q-.69-38.25-4-76.45c-.56-6.37-1.15-12.75-1.81-19.12-.12-1.19,0-2.91-.78-3.85a17.14,17.14,0,0,0-3.16-2.47,31.9,31.9,0,0,0-6.22-3.22c-9.37-3.65-19.87-3.28-29.75-2.81-12.66.59-25.47,1.41-37.32,6.25-8.22-6.84-19.12-8.22-29.44-8.78-11.34-.66-23-.72-34,2.5a52.8,52.8,0,0,0-8.1,3.09c-2.37,1.13-5,2.44-6.18,4.91a6.06,6.06,0,0,0-.44,1.09c-2.6-.62-5.16,1.29-6.13,3.66-1.28,3.22-.59,7.28-.56,10.66q.18,11.81.37,23.63.38,23.34.79,46.69c.06,3.87.12,7.78.18,11.66,0,1.93.07,3.87.1,5.84,0,1.56-.07,3.22,1.15,4.41s2.72,1.09,4.16,1.12l5.81.1c3.88.06,7.75.06,11.63.06,7.75,0,15.5-.09,23.22-.31,4-.1,7.94-.25,11.91-.41a104.19,104.19,0,0,1,11.31-.31c3.85.25,7.44,2,11.25,2.5,4,.5,7.91-.78,11.79-1.63a80.27,80.27,0,0,1,22-1.72,66.85,66.85,0,0,0,.78,6.79,1.74,1.74,0,0,0,1.69,1.28l6.53-.66a12.4,12.4,0,0,0,2.31-.37l.75,0a1.78,1.78,0,0,0,1.75-1.76c0-1.37,0-2.81-.09-4.21,9.69.59,19.38,1.09,29,2,1.16.1,2.32.22,3.47.35a10.2,10.2,0,0,0,3.35.12c2.34-.5,2.59-2.43,2.56-4.5,0-1.15,0-2.34,0-3.5C203.51,188.55,203.57,187.89,203.57,187.23ZM120,110.82a188.74,188.74,0,0,1,1.56-21.91,1.94,1.94,0,0,0,0-.59s.06,0,.06,0c9.88-4.18,20.69-5.25,31.29-5.81,9.37-.53,19.09-1.28,28.31.78a29.83,29.83,0,0,1,12.91,6.1q4,37.79,5.41,75.76.38,9.79.56,19.56a38.94,38.94,0,0,1-6.22-1.62c-2.63-.82-5.28-1.57-8-2.16a100.44,100.44,0,0,0-16.5-2.25,127.45,127.45,0,0,0-32.88,2.69,157.62,157.62,0,0,0-15.94,4.18C122.53,160.64,119.47,135.7,120,110.82ZM46.68,87.28c1.71-1.78,4.65-2.84,6.9-3.72C63.8,79.53,75,79,85.84,79.41s23.62.75,32.41,8.16a1.25,1.25,0,0,0-.13.4c-3.5,25.88-.47,51.88-.37,77.85,0,6.91-.19,13.85-.75,20.73a210,210,0,0,0-54.63-1.47c-4.79.5-9.57,1.18-14.32,2q-2.86-36.44-2.84-73c0-6.28.06-12.6.22-18.88C45.43,92.78,44.86,89.16,46.68,87.28Zm87,103.77c-3.46.53-6.81,1.43-10.22,2.15a19,19,0,0,1-9.56-.56,33.32,33.32,0,0,0-9.44-1.66c-3.59,0-7.22.32-10.84.44-7.35.28-14.72.47-22.07.6q-10.72.14-21.5,0c-1.84,0-3.69,0-5.53-.1-.88,0-1.75,0-2.63-.06s-1.12,0-1.18-.84c-.25-3.66-.13-7.41-.19-11.1l-.72-43.75c-.13-8.16-.28-16.35-.41-24.51-.06-4.18-.12-8.37-.22-12.53,0-1.62-.75-9,2.66-7.91-.06,1.32,0,2.63,0,3.88-.06,3.28-.13,6.59-.16,9.87q-.22,19.74.44,39.48c.47,14.91,1.34,29.78,2.53,44.63a1.78,1.78,0,0,0,2.22,1.69,206.72,206.72,0,0,1,72.07-.41,1.71,1.71,0,0,0,1-.09,2,2,0,0,0,1.06.12c4.22-.75,8.66.06,13,.56C133.87,191,133.78,191.05,133.65,191.05Zm26.13-7.41a27.64,27.64,0,0,0-6.62-.25,1.81,1.81,0,0,0-1.75,1.75c-.07,1-.13,1.94-.16,2.91a128.85,128.85,0,0,1-15.09-.32c-2.6-.22-5.19-.59-7.82-.84,18.07-4.88,37.19-6.72,55.6-2.81,2.94.62,5.88,1.4,8.75,2.31.16.06.35.09.5.16-9.53,0-19.09,0-28.63.25a1.58,1.58,0,0,0-.78.18c-.06-.22-.15-.43-.22-.68C162.94,184.45,161.6,183.92,159.78,183.64Zm38.13,9.88c-3.75-.38-7.53-.69-11.31-1-7.28-.53-14.6-.94-21.88-1.38a7.69,7.69,0,0,0-.16-.87q17.73-.44,35.45-.22V192a6.31,6.31,0,0,0,0,1.15,1,1,0,0,0-.1.53A10.06,10.06,0,0,1,197.91,193.52Z"/><path class="cls-23" d="M106,94.19a93.47,93.47,0,0,0-53.6,1.66c-2.13.72-1.22,4.12.93,3.37a90,90,0,0,1,51.73-1.65A1.76,1.76,0,0,0,106,94.19Z"/><path class="cls-23" d="M103,107.54a89.35,89.35,0,0,0-48.17,0,1.75,1.75,0,0,0,.94,3.37,85.62,85.62,0,0,1,46.29,0C104.28,111.54,105.18,108.16,103,107.54Z"/><path class="cls-23" d="M106.81,122.6a99.34,99.34,0,0,0-49.88-2.94c-2.22.44-1.28,3.82.93,3.38a95.52,95.52,0,0,1,48,2.94C108,126.69,108.93,123.29,106.81,122.6Z"/><path class="cls-23" d="M108.84,137.63A78.87,78.87,0,0,0,55,137.29c-2.13.75-1.19,4.16.94,3.38a75.65,75.65,0,0,1,52,.34C110,141.82,110.93,138.42,108.84,137.63Z"/><path class="cls-23" d="M109.28,151.85A94.17,94.17,0,0,0,56,151.67c-2.16.62-1.25,4,.94,3.37a91,91,0,0,1,51.38.19C110.5,155.89,111.43,152.51,109.28,151.85Z"/><path class="cls-23" d="M108,167.57a106.26,106.26,0,0,0-49.92.85c-2.18.56-1.25,4,.94,3.37a102,102,0,0,1,48-.84C109.31,171.45,110.25,168.07,108,167.57Z"/><path class="cls-23" d="M195,167.89q-3.24-34.14-5.63-68.35a1.84,1.84,0,0,0-1.28-1.69,67.12,67.12,0,0,0-27.91-4.69c-10.09.34-20.19,1.31-30.28,2a1.8,1.8,0,0,0-1.66,2.16A450.32,450.32,0,0,0,130.9,169a1.81,1.81,0,0,0,2.66,1.53c3.94-2.34,8.53-2.87,13-3.25,5.13-.4,10.29-.59,15.44-.56a174.92,174.92,0,0,1,30.82,2.91C193.85,169.76,195.16,169.11,195,167.89Zm-33.63-4.72q-8,0-15.94.65a37.28,37.28,0,0,0-11.38,2.44,445.3,445.3,0,0,1-2.37-67.72c9.28-.69,18.59-1.5,27.91-1.88A66.29,66.29,0,0,1,186,100.72q2.25,32.53,5.35,65A188.39,188.39,0,0,0,161.41,163.17Z"/><path class="cls-15" d="M258.79,237.07a6.2,6.2,0,0,0-7.46-4.26c-.88.24-1.76.48-2.67.65-.07,0-.47.06-.68.1l-1,.1a30.36,30.36,0,0,1-5.47-.17c-3.17-.37-6.21,3.07-6.07,6.08.17,3.61,2.66,5.67,6.07,6.07a33.55,33.55,0,0,0,13.07-1.08A6.18,6.18,0,0,0,258.79,237.07Z"/><path class="cls-17" d="M204.51,126.42c-.07.17-.1.34-.17.5a3.81,3.81,0,0,0,.17-.5Z"/><path class="cls-17" d="M293.45,102.76C286.8,90.87,275.8,81.29,262.7,77.31c-14.92-4.53-32.23-1.42-45.84,5.7-13.33,7-24,19.58-26.83,34.53a42.28,42.28,0,0,0,1.25,21.81c0,.1.06.17.1.27,1.38,8,5.26,15.83,10.09,22.28,4.73,6.27,10.06,12,15,18.12.07.07.2.24.3.37s.34.44.47.64c.58.78,1.15,1.56,1.69,2.33s1.25,1.86,1.82,2.8a38.73,38.73,0,0,1,1.42,5.88c.47,3.24,4.76,5.3,7.7,4.35.27-.1.54-.2.77-.3a6,6,0,0,0,.78.17c4.39.88,9.22.34,13.67.34,4.22,0,8.44,0,12.69-.07a17.63,17.63,0,0,0,6.72-1.12,15.25,15.25,0,0,0,5.5-4.08c2.7-3,5.54-5.74,8.37-8.57,10.4-10.43,18.23-23.84,21.17-38.38C302.33,130.2,300.61,115.52,293.45,102.76Z"/><path class="cls-17" d="M283.7,153.22c0-.1.1-.2.13-.3s0,0,0-.07C283.63,153.32,283.63,153.36,283.7,153.22Z"/><path class="cls-18" d="M273.57,210a28.62,28.62,0,0,0-2-7.19c-1.49-2.94-4.05-4.59-7-5.67a41.67,41.67,0,0,0-14.88-2.06c-7.73.1-17.72.06-23.43,6.11-3,.33-6.07,2.86-5.8,6.21.37,4.86.64,9.75,1.18,14.61.3,3,1,5.84,3,8.14,2.29,2.6,5.33,3.34,8.64,3.71,10.09,1.11,20.35,1.76,30.41,0,5.2-.91,10-3.78,11.31-9.25C276.07,219.75,274.58,214.72,273.57,210Z"/><path class="cls-15" d="M272.73,134.11c-1.18-.94-2.37-1.92-3.45-3-.4-.4-.81-.81-1.18-1.21-.17-.17-.3-.37-.47-.54a3.55,3.55,0,0,0-.3-.47c-.14-.27-.95-2.2-.58-1-.13-.44-.27-.88-.37-1.32.24.95.2-1.38,0-.51l.1-.4a2.29,2.29,0,0,0,.13-.27c1.86-3.24.27-8.07-3.64-8.91-1.42-.31-2.87-.61-4.25-1-.21-.07-1.52-.61-1.46-.54-.4-.2-.81-.44-1.21-.67.3.17-.24-.27-.64-.58,0,0-.1-.17-.21-.3a10,10,0,0,0-.4-4.49,6.12,6.12,0,0,0-11.71,0,11.7,11.7,0,0,0-.51,2.84,4.58,4.58,0,0,0-2,1.11,9.64,9.64,0,0,0-1.42-1.52c-2.43-2.06-6.24-2.57-8.6,0-2.1,2.26-2.6,6.38,0,8.61h0a2.68,2.68,0,0,0-.07.27c-.07.13-.14.23-.2.37.4-.68-1.15.88-.51.47a15.16,15.16,0,0,1-1.59,1c-.3.17-.6.3-.91.44,0,0-.06,0-.13,0-.68.24-1.35.51-2,.74a6.14,6.14,0,0,0-4.35,5.07,6,6,0,0,0,2.9,6l1.08.6s0,0,.07,0c.24.23.47.47.74.71l.31.27c.23.34.54.84.74,1.21a1.29,1.29,0,0,0,.1.41c.1.4.24.77.34,1.18,0,0,.06.17.1.37v.07a4.09,4.09,0,0,1,0,.61c0,.4,0,.81,0,1.24h0c-.1.54-.24,1.83-.58,2,.34-.74.41-.94.21-.5-.1.16-.21.37-.31.54-.2.33-1,1.35,0,.13-1.89,2.4-2.46,5.4-.47,8a6.13,6.13,0,0,0,7.66,1.65h0c-1.15.58-.48.24.06,0,.17,0,.41.07.61.1a2.36,2.36,0,0,1,.24.14,3.16,3.16,0,0,1,.5.34,5.26,5.26,0,0,1,.48.47c.1.13.17.27.27.4s0,.1,0,.14c0,.27,0,.34,0,.17,0,0,0,.06,0,.1s0-.14,0-.17v0s0,0,0,0c-.2,3,1,6.07,4.32,6.82a6.18,6.18,0,0,0,7.46-4.26s.13-.37.2-.6a3,3,0,0,1,.31-.61c.16-.27,1-1.35.16-.34.21-.23.41-.47.65-.71s1-.87.57-.57c.13-.1.3-.2.44-.3s.57-.34.84-.48a3.81,3.81,0,0,1,.58-.17c.23-.06.81-.13.74-.13h.61a6.73,6.73,0,0,1,.77.07c.2,0,.41.1.61.13s.51.17.78.24c.06,0,.3.17.57.3l.54.31c.27.23.54.5.78.74a6.08,6.08,0,1,0,8.6-8.61l-.2-.2a3.6,3.6,0,0,0-.47-.74l0,0c-.11-.34-.17-.67-.27-1,.13.41,0,.78,0,.07v-.07s0-.07,0-.07a.1.1,0,0,0,0,.07c0-.13,0-.44,0-.64,0,0,0-.1,0-.13s.07,0,.1-.07a1.08,1.08,0,0,1,.24-.1h0c2.43,1.55,5.71,1.82,7.87-.54C274.75,140.46,275.33,136.27,272.73,134.11Zm-24.47,7.3a17.84,17.84,0,0,0-5.34,2.53,12.48,12.48,0,0,0-1.15-.88,14.43,14.43,0,0,0-2.63-1.45,19.51,19.51,0,0,0-.34-5.77,18,18,0,0,0-1.92-5.1,13.8,13.8,0,0,0,4.12-4.56,13.35,13.35,0,0,0,1.25-3.24,7.59,7.59,0,0,0,3.95.34,9.25,9.25,0,0,0,1.31-.3,20.09,20.09,0,0,0,6.75,3.74,17.46,17.46,0,0,0,1.72,6.89c.14.23.24.5.38.74a10.31,10.31,0,0,0-1.08,1.11,12.47,12.47,0,0,0-2.64,5.34A18.87,18.87,0,0,0,248.26,141.41Z"/><path class="cls-16" d="M302.23,111.36a62.18,62.18,0,0,0-17.59-26c-16.4-14.48-42.19-21.6-62.38-10.6A66.84,66.84,0,0,0,207.88,86a111.12,111.12,0,0,0-12.49,14.15,51.67,51.67,0,0,0-5.63,50.46,62.15,62.15,0,0,0,8.74,14c6.58,8.31,14.65,15.6,19.65,25.05a34.76,34.76,0,0,1,2.83,7.12,2.65,2.65,0,0,0,.84,1.32l-1.31.2a2.49,2.49,0,0,0-1.86,2.43c.2,3.75.41,7.49.61,11.24l-3,.51c-3.21.54-1.86,5.4,1.35,4.89l1.92-.3c.13,2.43.27,4.89.4,7.32l-6,1.32c-3.18.67-1.83,5.57,1.35,4.89,1.62-.33,3.27-.71,4.89-1.08a9.08,9.08,0,0,0,.81,3.65,6.87,6.87,0,0,0,3.58,3.17,17,17,0,0,0,7.05.91,2.83,2.83,0,0,0,.14.88c2.36,6.82,9.28,12,16.71,11.24A15.41,15.41,0,0,0,262,235.92c2.06-.14,4.12-.27,6.18-.44,1.86-.13,3.85-.27,5.27-1.65a6.92,6.92,0,0,0,1.75-4.73c.2-2.4.24-4.79.27-7.16v-1.18l2.94-.27c3.2-.3,3.24-5.36,0-5.06-1,.1-2,.2-3,.27-.06-2.6-.2-5.2-.4-7.76l3.48-.58c3.2-.54,1.85-5.4-1.35-4.89-.85.13-1.73.27-2.57.44-.1-.81-.2-1.62-.34-2.43a5.1,5.1,0,0,0-.88-2.13,2.76,2.76,0,0,0-.4-1.42c.74-4.82,4.39-8.71,7.73-12,3.88-3.85,7.8-7.53,11.14-11.92a68.38,68.38,0,0,0,12.69-29.54A64.79,64.79,0,0,0,302.23,111.36Zm-77.94,99.88c-.14-2.76-.3-5.5-.44-8.27a223.66,223.66,0,0,1,44.32-2.32,2.32,2.32,0,0,0,1.08.94,4.74,4.74,0,0,0,.14.84c.06.44.1.88.13,1.32Zm32.17-15.86q-10.59,0-21.17,1.11.26-18.83.48-37.63a22,22,0,0,0,6.44,4.76c3,1.48,5.74.33,7.09-2.7a11.8,11.8,0,0,1,3.38-4.53,7.7,7.7,0,0,0,5.4,3.28C257.57,171.55,257,183.46,256.46,195.38Zm-31.9,20.93q22.73-3.75,45.47-7.53c.06.71.1,1.42.13,2.13.1,1.75.17,3.51.24,5.3-8.17.74-16.37,1.52-24.47,2.93-7,1.22-14,2.74-21,4.26C224.8,221,224.66,218.67,224.56,216.31ZM248,244.43c-4.83.47-9.55-2.87-11.24-7.3,6.72-.16,13.44-.47,20.12-.84A10.34,10.34,0,0,1,248,244.43Zm22.45-22.79c0,1.76-.07,3.48-.17,5.2,0,.84,0,1.69-.14,2.53s0,.78-.57.91a27.46,27.46,0,0,1-4.69.37l-6,.41c-7.29.44-14.61.78-21.9,1-3,.07-6.31.54-9.32,0-.78-.14-1.79-.37-2.16-1.15a5.32,5.32,0,0,1-.4-2.4c7.15-1.58,14.34-3.14,21.56-4.42,7.87-1.38,15.84-2.16,23.8-2.87A2.38,2.38,0,0,0,270.4,221.64Zm29.77-83.31A64.25,64.25,0,0,1,289.91,167a65.54,65.54,0,0,1-9.86,11.54c-3.71,3.58-7.73,7.19-10.12,11.85a19.62,19.62,0,0,0-1.83,5.23c-2.19-.1-4.39-.17-6.58-.2.57-12.15,1.11-24.27,1.69-36.42a58.74,58.74,0,0,0,6.78-3.21,2.54,2.54,0,0,0,.51-4c-1.05-.81-3.41-2.57-3.95-4.29a5.79,5.79,0,0,0,2,.27,7.43,7.43,0,0,0,5.84-3.41c2.66-3.81,4.28-9.92-.41-12.79-1.79-1.08-3.85-1.18-5.7-2-.38-.17-1.73-.85-1.73-1.42a10.21,10.21,0,0,0,2-1.35c1.76-1.69,2.09-4.19,1.82-6.51s-.91-5.07-2.53-6.82-4.25-2-6.55-1.42c-1,.24-2.66,1.15-4,1.21l-.54-5.84c-.23-2.49-.64-4.89-3.31-5.87-3.27-1.21-8.17-.5-10.7,2a6.37,6.37,0,0,0-1.79,5.1c-.37-.51-.84-1-1.18-1.38-2.9-3.41-7.73-2.6-10.56.43-3,3.28-2.7,7.4-1.89,11.41a8.4,8.4,0,0,0-6.62,4.49c-2.06,3.89-2.36,9.72,2.2,11.92.84.4,1.75.64,2.59,1.05s.71.74.38,1.55c-.92,2.09-2.91,3.44-3.68,5.64-1.76,5,2.06,9.72,5.46,13a2.56,2.56,0,0,0,3,.4q-.25,20-.5,39.93l-4.73.61a2.29,2.29,0,0,0,.37-2.09c-5.8-20.56-27.34-31.49-33.31-52a47.09,47.09,0,0,1,2.12-32.21,59.29,59.29,0,0,1,10.09-14.78,119.14,119.14,0,0,1,12.63-12.39A40.58,40.58,0,0,1,232.76,76a47.19,47.19,0,0,1,17.15-1.15,56.7,56.7,0,0,1,27.27,10.93,56.37,56.37,0,0,1,23,52.59Zm-69.54-3.64a6.59,6.59,0,0,0-3.74-3c-1-.4-2.4-.57-2.57-1.86a6.46,6.46,0,0,1,1.45-4.69c.71-.81,2.2-1.48,3.14-.67a2.55,2.55,0,0,0,4.22-2.47c-.64-3.2-3-8.57.14-11.17.81-.68,1.75-1.11,2.6-.34,1.48,1.39,2,3.07,4.08,3.88a4.43,4.43,0,0,0,4.79-.77c1.59-1.52,1.25-3.41,1.22-5.37,0-1,.54-1.42,1.52-1.75s3.14-.78,4.12-.21c-.27-.17,0,.48,0,.81s.06.85.1,1.25c.1,1.15.2,2.3.34,3.45.23,2.39-.14,5.06,2.49,6.07,3.11,1.18,5.57-.81,8.58-1.08,1.21-.1,1.35.68,1.65,1.79s1.08,3.24.3,4.42a7.14,7.14,0,0,1-1.58,1.25,5.4,5.4,0,0,0-1.79,2.43,5.19,5.19,0,0,0,1.25,5.1,9.82,9.82,0,0,0,5.1,3c1,.27,3.3.54,3.81,1.52s-1,4.12-1.62,5.09c-.51.75-2.09,2.16-2.73.81-.75-1.55-2.87-1.48-4-.5a7.14,7.14,0,0,0-1.85,7.26,9.92,9.92,0,0,0,2.49,4,20.85,20.85,0,0,1-3.81,1.48c-1.45.34-3.85.1-3.68-1.86a2.53,2.53,0,0,0-3.21-2.43,15.88,15.88,0,0,0-6,4.12,15.24,15.24,0,0,0-1.86,2.57,7.42,7.42,0,0,0-.91,2l-.06.16s-.07.07-.07.11a15.86,15.86,0,0,1-4.49-3.21c-1.49-1.38-2.57-2.9-2.4-5,.2-2.39-2.53-3-4.05-1.85a1.82,1.82,0,0,0-1.15.37c-.94.71-1.85,1.42-2.8,2.12-1.89-2-3.78-4.55-2.29-7,.91-1.45,2.19-2.6,2.93-4.15A6,6,0,0,0,230.63,134.69Z"/><path class="cls-16" d="M257.54,124.56c-2.74-4-8.14-6.24-12.8-5a2.59,2.59,0,0,0-1.24,0,13.56,13.56,0,0,0-10.13,12.32c-.37,5.8,3.41,11.51,8.54,14,5.67,2.73,12.45,1.65,15.66-4.12C260.44,136.68,261,129.52,257.54,124.56Zm-7.7,17.59c-4.72,1.28-9.75-2.67-11.07-7.09a8.58,8.58,0,0,1,3.21-9.32,2.12,2.12,0,0,0,2.06-.2c3.61-2.77,8.6-.51,10.12,3.48S254.7,140.83,249.84,142.15Z"/><path class="cls-16" d="M230.53,87.36c-8.91,4.49-17.18,10.47-23.12,18.6s-8.88,18.4-7.19,28.42c.54,3.21,5.44,1.86,4.9-1.35-1.49-8.84,1.68-18,7-24.94,5.43-7.16,13-12.32,21-16.34C236,90.27,233.44,85.88,230.53,87.36Z"/><path class="cls-16" d="M176.66,125.37l-9.32-.67c-3.24-.24-3.24,4.82,0,5.06s6.22.44,9.32.68C179.93,130.67,179.9,125.61,176.66,125.37Z"/><path class="cls-16" d="M188.91,91.52c-2.26-2.7-4.55-5.37-6.81-8.07-2.1-2.5-5.68,1.11-3.58,3.58,2.26,2.7,4.55,5.36,6.82,8.06C187.46,97.59,191,94,188.91,91.52Z"/><path class="cls-16" d="M214.23,69.61c-1.89-3.31-3.75-6.62-5.64-9.89-1.62-2.84-6-.27-4.39,2.56,1.9,3.31,3.75,6.62,5.64,9.89C211.46,75,215.85,72.44,214.23,69.61Z"/><path class="cls-16" d="M285,55.36a115.52,115.52,0,0,0-8.31,13.54c-1.48,2.9,2.87,5.47,4.39,2.57a109.36,109.36,0,0,1,8.3-13.54C291.22,55.26,286.84,52.73,285,55.36Z"/><path class="cls-16" d="M244.54,46.52A37.44,37.44,0,0,0,243.83,61a2.52,2.52,0,0,0,4.86-1.35,30.18,30.18,0,0,1,.71-11.78C250.25,44.73,245.35,43.38,244.54,46.52Z"/><path class="cls-16" d="M314.48,87.09c-3.68,3.14-7.36,6.32-11,9.46-2.46,2.12,1.12,5.7,3.58,3.57,3.68-3.14,7.36-6.31,11-9.45C320.52,88.55,317,85,314.48,87.09Z"/><path class="cls-16" d="M330.55,128.55a53.55,53.55,0,0,1-14.82-1.25c-3.17-.75-4.52,4.15-1.35,4.89a57.84,57.84,0,0,0,16.17,1.45C333.79,133.41,333.82,128.34,330.55,128.55Z"/><path class="cls-4" d="M244.58,69.59c14.75,0,29.74,6.36,40.61,16a62.27,62.27,0,0,1,17.59,26,64.91,64.91,0,0,1,2.26,32.1,68.5,68.5,0,0,1-12.69,29.54,116.36,116.36,0,0,1-11.14,11.91c-3.35,3.31-7,7.19-7.73,12a2.76,2.76,0,0,1,.4,1.42,5.25,5.25,0,0,1,.88,2.12c.13.81.24,1.63.34,2.44.84-.17,1.72-.31,2.56-.44a2.45,2.45,0,0,1,.46,0c2.87,0,3.94,4.42.89,4.93l-3.47.57c.2,2.57.33,5.17.4,7.77,1-.07,2-.17,3-.27l.28,0c3,0,2.84,4.79-.28,5.08-1,.1-1.95.17-2.93.27v1.18c0,2.37-.07,4.76-.27,7.16A6.9,6.9,0,0,1,274,234c-1.41,1.39-3.41,1.52-5.26,1.66-2.06.17-4.12.3-6.18.44A15.42,15.42,0,0,1,249,249.63a12.9,12.9,0,0,1-1.52.08c-6.83,0-13-5-15.18-11.32a2.56,2.56,0,0,1-.14-.88l-1.25,0a15,15,0,0,1-5.8-.93,6.87,6.87,0,0,1-3.58-3.17,9,9,0,0,1-.81-3.65c-1.62.37-3.28.74-4.9,1.08a3.06,3.06,0,0,1-.59.07c-2.73,0-3.73-4.33-.76-5l6-1.32c-.13-2.43-.27-4.89-.4-7.32l-1.93.3a3.73,3.73,0,0,1-.46,0c-2.87,0-3.94-4.42-.89-4.93l3-.51c-.21-3.75-.41-7.49-.61-11.24a2.49,2.49,0,0,1,1.86-2.43l1.31-.2a2.7,2.7,0,0,1-.84-1.32,34.8,34.8,0,0,0-2.84-7.12c-5-9.45-13.06-16.75-19.64-25a62.19,62.19,0,0,1-8.75-14,51.74,51.74,0,0,1,5.64-50.47,110.35,110.35,0,0,1,12.49-14.14A66.29,66.29,0,0,1,222.81,75a45.15,45.15,0,0,1,21.77-5.36M223.51,80.41a66.91,66.91,0,0,1,24.82-5,55.65,55.65,0,0,1,7.87.55,50.51,50.51,0,0,0-5.74-1,52.63,52.63,0,0,0-5.62-.31,44.83,44.83,0,0,0-11.53,1.45,37.22,37.22,0,0,0-9.8,4.25m45.14,115.38a20.8,20.8,0,0,1,1-3.3,14.59,14.59,0,0,1-4.57,3.13l-.14,0c1.25,0,2.5.06,3.75.12M226,197.85l4.72-.61v-.78l-.34.14a5,5,0,0,1-1.54.23,6.62,6.62,0,0,1-2.38-.46,2.3,2.3,0,0,1-.47,1.48m.9,34.05c-.26-.18-.52-.38-.77-.59a1.9,1.9,0,0,0,.77.59M244.58,64.59a49.88,49.88,0,0,0-24.16,6,71.56,71.56,0,0,0-15.5,12.1,116.8,116.8,0,0,0-13,14.79,56.66,56.66,0,0,0-6.17,55.34A66.73,66.73,0,0,0,195.12,168c2.22,2.8,4.59,5.47,6.88,8.06,4.72,5.33,9.17,10.36,12.27,16.22a30.1,30.1,0,0,1,1.71,3.84,7.37,7.37,0,0,0-1.77,5.19l.37,6.9a7,7,0,0,0-4.58,7.29,7.89,7.89,0,0,0,3.15,5.67,7.17,7.17,0,0,0-5.44,7.83,7.63,7.63,0,0,0,7.52,7,7.47,7.47,0,0,0,1.63-.18l.22,0a11.74,11.74,0,0,0,6.08,5.5,17.63,17.63,0,0,0,5.42,1.24c3.57,7.33,11,12.26,18.9,12.26a20.14,20.14,0,0,0,19.1-13.84l2.55-.2c2.24-.16,5.63-.41,8.35-3.06a11.79,11.79,0,0,0,3.24-7.92c.13-1.44.19-2.88.23-4.3a7.65,7.65,0,0,0,5.4-7.83,7.2,7.2,0,0,0-3.75-6.1,7,7,0,0,0,3.22-6.62,7.87,7.87,0,0,0-6.74-7.14c-.12-.28-.25-.56-.39-.83v-.07c.89-2.84,3.46-5.56,6-8.12q.79-.8,1.59-1.56a103,103,0,0,0,10-10.88A73.19,73.19,0,0,0,310,144.52a69.78,69.78,0,0,0-2.47-34.58,67,67,0,0,0-19-28.14C276.29,71,259.87,64.59,244.58,64.59Z"/><path class="cls-4" d="M167.67,124.9h.22c3.11.24,6.21.44,9.32.68s3.27,5.07.22,5.07h-.22l-9.32-.67c-3.17-.23-3.24-5.07-.22-5.07m0-5a7.15,7.15,0,0,0-7.2,7.07,7.56,7.56,0,0,0,7.06,8l4.67.33,4.63.34.6,0a7.17,7.17,0,0,0,7.22-7.06,7.68,7.68,0,0,0-7.08-8l-4.65-.33-4.65-.34c-.21,0-.41,0-.6,0Z"/><path class="cls-4" d="M181,82.81a2.12,2.12,0,0,1,1.65.85c2.26,2.7,4.56,5.36,6.82,8.06a2.71,2.71,0,0,1-1.91,4.42,2.16,2.16,0,0,1-1.67-.84c-2.26-2.7-4.55-5.37-6.82-8.07A2.73,2.73,0,0,1,181,82.81m0-5a7.65,7.65,0,0,0-6.84,4.53,7.55,7.55,0,0,0,1.1,8.13l3.41,4c1.13,1.34,2.27,2.67,3.39,4a7.14,7.14,0,0,0,5.5,2.63,7.63,7.63,0,0,0,6.83-4.51,7.55,7.55,0,0,0-1.11-8.14c-1.11-1.33-2.26-2.68-3.4-4s-2.27-2.67-3.39-4A7.1,7.1,0,0,0,181,77.81Z"/><path class="cls-4" d="M207.12,58.69a2.28,2.28,0,0,1,2,1.24c1.89,3.27,3.75,6.58,5.64,9.89a2.58,2.58,0,0,1-2.37,3.8,2.29,2.29,0,0,1-2-1.24c-1.89-3.27-3.75-6.58-5.64-9.89a2.59,2.59,0,0,1,2.37-3.8m0-5a7.81,7.81,0,0,0-6.7,3.86,7.35,7.35,0,0,0,0,7.38l2.21,3.89q1.72,3,3.46,6.06a7.27,7.27,0,0,0,6.35,3.74,7.92,7.92,0,0,0,6.73-3.89,7.34,7.34,0,0,0,0-7.39l-2.19-3.85q-1.73-3-3.46-6.06a7.27,7.27,0,0,0-6.35-3.74Z"/><path class="cls-4" d="M287.62,54.46c1.82,0,3.59,1.81,2.26,3.68a110,110,0,0,0-8.3,13.53,2.17,2.17,0,0,1-2,1.28,2.67,2.67,0,0,1-2.41-3.84,114.63,114.63,0,0,1,8.3-13.54,2.58,2.58,0,0,1,2.13-1.11m0-5a7.55,7.55,0,0,0-6.19,3.2,120.25,120.25,0,0,0-8.67,14.14,7.48,7.48,0,0,0,.23,7.4A7.82,7.82,0,0,0,279.6,78,7.16,7.16,0,0,0,286,74a104.76,104.76,0,0,1,7.93-12.93,7.07,7.07,0,0,0,.62-7.46,7.86,7.86,0,0,0-6.94-4.14Z"/><path class="cls-4" d="M247.38,44.94A2.49,2.49,0,0,1,250,48.05a30.17,30.17,0,0,0-.71,11.78,2.58,2.58,0,0,1-1.75,3.1,2.09,2.09,0,0,1-.61.08,2.47,2.47,0,0,1-2.5-1.83,37.05,37.05,0,0,1,.71-14.45,2.26,2.26,0,0,1,2.29-1.79m0-5a7.28,7.28,0,0,0-7.13,5.54,41.77,41.77,0,0,0-.82,16.38v.06A7.42,7.42,0,0,0,246.88,68a7.28,7.28,0,0,0,2-.27,7.53,7.53,0,0,0,5.33-8.66,24.75,24.75,0,0,1,.6-9.77A7.28,7.28,0,0,0,253.56,43a7.79,7.79,0,0,0-6.18-3Z"/><path class="cls-4" d="M316.71,86.65c2,0,3.83,2.56,1.9,4.23-3.68,3.14-7.36,6.31-11,9.45a2.52,2.52,0,0,1-1.68.65c-2.05,0-3.83-2.56-1.9-4.23,3.68-3.14,7.36-6.31,11-9.45a2.52,2.52,0,0,1,1.68-.65m0-5a7.52,7.52,0,0,0-4.95,1.87l-5.51,4.71L300.75,93a7.05,7.05,0,0,0-2.13,8,7.9,7.9,0,0,0,7.27,5.06,7.51,7.51,0,0,0,4.95-1.86l5.49-4.71,5.52-4.73a7,7,0,0,0,2.13-8,7.89,7.89,0,0,0-7.27-5.07Z"/><path class="cls-4" d="M315.64,127.43a2.91,2.91,0,0,1,.64.07,52.68,52.68,0,0,0,11.84,1.33c1,0,2,0,3-.08h.18c3.09,0,3,4.87-.18,5.1-1,.05-2,.07-3,.07a57.71,57.71,0,0,1-13.21-1.52c-2.95-.69-2-5,.71-5m0-5h0a7.61,7.61,0,0,0-7.47,6.83,7.26,7.26,0,0,0,5.62,8,62.55,62.55,0,0,0,14.35,1.65c1.06,0,2.14,0,3.2-.08h.12a7.57,7.57,0,0,0,7.07-8,7.19,7.19,0,0,0-7.24-7.09h-.5c-.87,0-1.78.07-2.67.07a48.35,48.35,0,0,1-10.73-1.2,7.83,7.83,0,0,0-1.75-.2Z"/><path class="cls-17" d="M351.38,248.21a2.67,2.67,0,0,0-3.05-.4l-.72.32-.19.08-1.14.47-2.67,1.11c-1.62.66-3.24,1.32-4.86,2q-5,2-10,3.85-10,3.71-20.08,6.92c-3.16,1-6.33,2-9.51,2.91h0a2.77,2.77,0,0,0-2.73,1,2.53,2.53,0,0,0,.15,4.23l14.24,6.58c-.1,1.69-.21,3.37-.3,5.06-.12,2,2.2,3,3.78,2.18l4.62-2.48a59.46,59.46,0,0,1,5.87,6c.53.62,1.05,1.26,1.55,1.9l.08.11.1.13.35.46c.26.34.51.69.76,1q1.5,2.11,2.81,4.32a2.55,2.55,0,0,0,4.6-.6q2.21-9,5.28-17.81,1.54-4.39,3.29-8.69l.85-2.08a.76.76,0,0,0,0-.11c.09-.19.17-.37.24-.56.16-.38.32-.76.5-1.15.61-1.42,1.25-2.84,1.91-4.24q2.22-4.78,4.69-9.44A2.54,2.54,0,0,0,351.38,248.21Z"/><path class="cls-16" d="M353.49,246.51q-23.85,7.45-47.44,15.71-6.72,2.36-13.41,4.78a1,1,0,0,0-.24,1.86,72.06,72.06,0,0,0,16.8,7.48h.07c0,.34,0,.7.07,1,.09,1.07.2,2.15.31,3.23.2,2.15.42,4.3.63,6.45.08.86,1.19,1.4,1.77.71a1.81,1.81,0,0,0,.29-.19,47.47,47.47,0,0,1,6.7-4.31,142.78,142.78,0,0,0,13.78,16.37,1,1,0,0,0,1.71-.45q7.13-20.22,15.36-40,2.34-5.61,4.77-11.19C355,247.24,354.43,246.21,353.49,246.51Zm-8.34,4.78c.79-.25,1.56-.51,2.35-.75a230.34,230.34,0,0,1-23.72,20.52c-2.5,1.88-5,3.71-7.62,5.48a.91.91,0,0,0-.72.49L312,283.6c-.07-.68-.14-1.36-.19-2-.17-1.74-.47-3.54-.48-5.3s1.28-2.56,2.49-3.5,2.7-2.08,4.06-3.1q8.19-6.15,16.82-11.7c3.3-2.12,6.65-4.18,10-6.15A1.09,1.09,0,0,0,345.15,251.29Zm-35.56,23a70.4,70.4,0,0,1-14.28-6.12q21-7.56,42.27-14.48-6.12,3.78-12,7.89-4.41,3.06-8.73,6.29-2.15,1.61-4.27,3.27A8.59,8.59,0,0,0,309.59,274.32Zm4.57,9.49,2.24-4.26,1.43,2.09C316.59,282.33,315.35,283,314.16,283.81Zm22.52,3.42q-1.81,4.9-3.56,9.83a140.7,140.7,0,0,1-15.34-19.15,234.53,234.53,0,0,0,26.58-21.5c2.45-2.31,4.84-4.66,7.2-7.06l.11-.13.28-.09Q343.8,268,336.68,287.23Z"/></svg>