<svg id="Camada_1" data-name="Camada 1" xmlns="http://www.w3.org/2000/svg" xmlns:xlink="http://www.w3.org/1999/xlink" viewBox="0 0 709.69 222.39"><defs><style>.cls-1{fill:none;}.cls-2{fill:#ffd478;}.cls-3{fill:#027e8f;}.cls-4{fill:#f9f9f9;}.cls-5{clip-path:url(#clip-path);}.cls-6{fill:#eac2a7;}.cls-7{fill:#c9a68f;}.cls-8{fill:#d6aa8b;}.cls-9{fill:#d6d6d6;}.cls-10{fill:#c99f4b;}.cls-11{fill:#6d5f56;}.cls-12{fill:#493e38;}.cls-13{clip-path:url(#clip-path-2);}.cls-14{fill:#fcfcfc;}.cls-15{fill:#d32222;}.cls-16{fill:#f4f4f4;}.cls-17{clip-path:url(#clip-path-3);}.cls-18{fill:#b7b7b7;}.cls-19{fill:#6d472e;}.cls-20{fill:#c99e32;}.cls-21{clip-path:url(#clip-path-4);}.cls-22{fill:#aa7e30;}.cls-23{fill:#fff;}.cls-24{fill:#ddd;}.cls-25{fill:#846829;}.cls-26{fill:#e8cd95;}.cls-27{fill:#eaa000;}</style><clipPath id="clip-path"><path class="cls-1" d="M131.37,205.6s-28.07,21.32-75.08,3.8-47-152.1-47-152.1S49.09,0,85,0c9.82,0,43.26,7.4,43.26,28.13s25.1,113.81,25.1,113.81,10.54,40.81,5.27,43.92"/></clipPath><clipPath id="clip-path-2"><path class="cls-1" d="M93.06,62.93c-.22-.23,13.34.85,18.52-3,0,0,1,10.31-3.6,11.44S97.73,70.67,93.06,62.93Z"/></clipPath><clipPath id="clip-path-3"><path class="cls-1" d="M100.74,215.62c3.15,6.25,25.3,7.57,27.13,8.15,0,0,.58-25.08-3-39.17S100.74,215.62,100.74,215.62Z"/></clipPath><clipPath id="clip-path-4"><path class="cls-1" d="M73.81,60.18c3.91,1.61.54-5.39.54-5.39s-.37-7-2.36-8.21A29,29,0,0,1,67.66,43l10-6.84,27.27-18.7s3.77-5.25-4.84-8.48a10.28,10.28,0,0,0-10.44-3.1s-3.77-4.51-9.22-.37c0,0-11-.64-13.47,4.75a4.09,4.09,0,0,0-4,2.29s-2.28.87-2.72,2.72c0,0-5.56,2.19-5.89,5.9,0,0-3,4.24-.61,7.67,0,0-1.6,3,.47,5.08,0,0-4.64,5.09,0,8.25,0,0-1.14,3.3,5.66,4.65l2,4.17s1.94-.88,7.54,4.71Z"/></clipPath></defs><title>info1</title><path class="cls-2" d="M131.74,79.56H699.69a10,10,0,0,1,10,10v88a10,10,0,0,1-10,10H131.74a0,0,0,0,1,0,0v-108A0,0,0,0,1,131.74,79.56Z"/><path class="cls-3" d="M227,103.07v.78l-1.55.12v11.9h-1.13l-7.84-11h-.06V115l1.55.11v.78h-4.24v-.78l1.55-.11V104l-1.55-.12v-.78h2.69l7.85,11h.05V104l-1.54-.12v-.78H227Z"/><path class="cls-3" d="M235.69,115.87a7.1,7.1,0,0,1-.16-.84,4.17,4.17,0,0,1-.05-.71,4.48,4.48,0,0,1-1.52,1.24,4.53,4.53,0,0,1-2.14.49,3.44,3.44,0,0,1-2.33-.72,2.46,2.46,0,0,1-.83-2,2.36,2.36,0,0,1,1.23-2.09,6.11,6.11,0,0,1,3.32-.77h2.27v-1.26a2,2,0,0,0-.71-1.6,3,3,0,0,0-2-.58,5.45,5.45,0,0,0-1.56.21,3.73,3.73,0,0,0-1.18.59l-.1,1.27H229v-1.83a6.17,6.17,0,0,1,1.71-.82,6.9,6.9,0,0,1,2.11-.32,4.36,4.36,0,0,1,2.73.8,2.75,2.75,0,0,1,1,2.3V114c0,.2,0,.38,0,.56a4.35,4.35,0,0,0,.06.52l1,.06v.78Zm-3.74-.75a4.36,4.36,0,0,0,2.17-.53,3.18,3.18,0,0,0,1.36-1.36v-1.91h-2.29a4.49,4.49,0,0,0-2.47.6,1.73,1.73,0,0,0-.93,1.5,1.49,1.49,0,0,0,.58,1.23A2.44,2.44,0,0,0,232,115.12Z"/><path class="cls-3" d="M243.75,107.14v-.78h2.49l.14,1.47a3.73,3.73,0,0,1,1.34-1.22,4.07,4.07,0,0,1,1.9-.43,3.45,3.45,0,0,1,2.9,1.37,5.87,5.87,0,0,1,1,3.64v.19a5.21,5.21,0,0,1-1,3.4,3.53,3.53,0,0,1-2.88,1.27,4.46,4.46,0,0,1-1.89-.38,3.46,3.46,0,0,1-1.33-1.09v4l1.55.11v.78h-4.22v-.78l1.54-.11V107.25Zm8.67,4a5.11,5.11,0,0,0-.78-3,2.59,2.59,0,0,0-2.28-1.14,3.22,3.22,0,0,0-1.86.5,3.16,3.16,0,0,0-1.08,1.32v4.57a3,3,0,0,0,1.13,1.23,3.45,3.45,0,0,0,1.83.44,2.66,2.66,0,0,0,2.27-1,4.53,4.53,0,0,0,.77-2.75Z"/><path class="cls-3" d="M262.5,115.87a7.1,7.1,0,0,1-.16-.84,5.52,5.52,0,0,1,0-.71,4.38,4.38,0,0,1-1.52,1.24,4.52,4.52,0,0,1-2.13.49,3.45,3.45,0,0,1-2.34-.72,2.45,2.45,0,0,1-.82-2,2.35,2.35,0,0,1,1.22-2.09,6.14,6.14,0,0,1,3.32-.77h2.27v-1.26a1.94,1.94,0,0,0-.71-1.6,3,3,0,0,0-2-.58,5.57,5.57,0,0,0-1.57.21,3.73,3.73,0,0,0-1.18.59l-.09,1.27h-.94v-1.83a6,6,0,0,1,1.7-.82,7,7,0,0,1,2.11-.32,4.37,4.37,0,0,1,2.74.8,2.74,2.74,0,0,1,1,2.3V114c0,.2,0,.38,0,.56a3,3,0,0,0,.06.52l1,.06v.78Zm-3.74-.75a4.36,4.36,0,0,0,2.17-.53,3.18,3.18,0,0,0,1.36-1.36v-1.91H260a4.49,4.49,0,0,0-2.47.6,1.72,1.72,0,0,0-.92,1.5,1.51,1.51,0,0,0,.57,1.23A2.44,2.44,0,0,0,258.76,115.12Zm1.93-12.39h1.39l0,0-2.36,2.29h-1Z"/><path class="cls-3" d="M266.18,111.19a5.81,5.81,0,0,1,1.05-3.64,3.47,3.47,0,0,1,2.91-1.37,3.78,3.78,0,0,1,1.89.45,3.61,3.61,0,0,1,1.33,1.25l.13-1.52h1v9.38a3.93,3.93,0,0,1-1.07,2.91,4.1,4.1,0,0,1-3,1.06,8.19,8.19,0,0,1-1.58-.17,6.2,6.2,0,0,1-1.47-.46l.3-.88a7.31,7.31,0,0,0,1.3.42,6.6,6.6,0,0,0,1.43.15,2.86,2.86,0,0,0,2.2-.8,3.18,3.18,0,0,0,.74-2.23v-1.2a3.48,3.48,0,0,1-1.32,1.12,4.19,4.19,0,0,1-1.87.39,3.52,3.52,0,0,1-2.89-1.27,5.19,5.19,0,0,1-1.05-3.4Zm1.14.19a4.44,4.44,0,0,0,.76,2.73,2.59,2.59,0,0,0,2.25,1,3.41,3.41,0,0,0,1.85-.47,3.12,3.12,0,0,0,1.13-1.28V109a3.4,3.4,0,0,0-1.09-1.36,3.09,3.09,0,0,0-1.87-.52,2.54,2.54,0,0,0-2.26,1.14,5.19,5.19,0,0,0-.77,3Z"/><path class="cls-3" d="M277,115.09l1.54-.11v-7.73l-1.54-.11v-.78h2.67V115l1.55.11v.78H277Zm2.67-11.46H278.5v-1.47h1.13Z"/><path class="cls-3" d="M282.88,115.09l1.54-.11v-7.73l-1.54-.11v-.78h2.55l.1,1.66a3.5,3.5,0,0,1,1.34-1.36,3.94,3.94,0,0,1,2-.48,3.29,3.29,0,0,1,2.54.95,4.24,4.24,0,0,1,.87,3V115l1.55.11v.78h-4.23v-.78l1.55-.11v-4.9a3.25,3.25,0,0,0-.66-2.31,2.51,2.51,0,0,0-1.88-.67,3.08,3.08,0,0,0-2,.58,3.28,3.28,0,0,0-1.09,1.55V115l1.55.11v.78h-4.23Z"/><path class="cls-3" d="M302.7,115.87c-.08-.32-.13-.6-.17-.84a5.53,5.53,0,0,1,0-.71,4.48,4.48,0,0,1-1.52,1.24,4.56,4.56,0,0,1-2.14.49,3.44,3.44,0,0,1-2.33-.72,2.46,2.46,0,0,1-.83-2,2.36,2.36,0,0,1,1.23-2.09,6.11,6.11,0,0,1,3.32-.77h2.27v-1.26a2,2,0,0,0-.71-1.6,3,3,0,0,0-2-.58,5.45,5.45,0,0,0-1.56.21,3.62,3.62,0,0,0-1.18.59l-.1,1.27H296v-1.83a6,6,0,0,1,1.71-.82,6.9,6.9,0,0,1,2.11-.32,4.36,4.36,0,0,1,2.73.8,2.75,2.75,0,0,1,1,2.3V114c0,.2,0,.38,0,.56a4.35,4.35,0,0,0,.06.52l1,.06v.78Zm-3.74-.75a4.39,4.39,0,0,0,2.17-.53,3.18,3.18,0,0,0,1.36-1.36v-1.91H300.2a4.47,4.47,0,0,0-2.47.6,1.73,1.73,0,0,0-.93,1.5,1.49,1.49,0,0,0,.58,1.23A2.42,2.42,0,0,0,299,115.12Z"/><path class="cls-3" d="M318.51,109.29h-.93l-.14-1.34a2.78,2.78,0,0,0-1.07-.64,4.34,4.34,0,0,0-1.5-.23,2.93,2.93,0,0,0-1.86.49,1.46,1.46,0,0,0-.62,1.17,1.33,1.33,0,0,0,.53,1.09,5.47,5.47,0,0,0,2.14.76,7.29,7.29,0,0,1,2.75,1,2.1,2.1,0,0,1,.91,1.78,2.26,2.26,0,0,1-1,1.92,4.68,4.68,0,0,1-2.75.73,7,7,0,0,1-2.07-.29,5.16,5.16,0,0,1-1.62-.83V113h.92l.16,1.35a2.66,2.66,0,0,0,1.15.62,5.84,5.84,0,0,0,1.46.18,3.32,3.32,0,0,0,1.95-.5,1.45,1.45,0,0,0,.71-1.21,1.51,1.51,0,0,0-.6-1.17,5.11,5.11,0,0,0-2.14-.82,7.46,7.46,0,0,1-2.72-1,1.94,1.94,0,0,1-.88-1.71,2.25,2.25,0,0,1,1-1.84,4.27,4.27,0,0,1,2.63-.75,6.47,6.47,0,0,1,2.07.32,4.37,4.37,0,0,1,1.52.87Z"/><path class="cls-3" d="M325.31,116.05a4.27,4.27,0,0,1-3.2-1.31,4.62,4.62,0,0,1-1.28-3.35v-.48a4.74,4.74,0,0,1,1.27-3.38,4,4,0,0,1,3.06-1.35,4,4,0,0,1,3,1.11,4,4,0,0,1,1.08,2.95v.9H322v.25a4,4,0,0,0,.93,2.69,3,3,0,0,0,2.42,1.08,5.35,5.35,0,0,0,1.81-.27,3.61,3.61,0,0,0,1.28-.78l.48.72a4,4,0,0,1-1.46.89A6,6,0,0,1,325.31,116.05Zm-.15-9a2.83,2.83,0,0,0-2.11.89,3.68,3.68,0,0,0-1,2.24l0,0h6V110a2.94,2.94,0,0,0-.78-2.08A2.83,2.83,0,0,0,325.16,107.08Z"/><path class="cls-3" d="M331.29,111.19a5.81,5.81,0,0,1,1-3.64,3.47,3.47,0,0,1,2.91-1.37,3.78,3.78,0,0,1,1.89.45,3.61,3.61,0,0,1,1.33,1.25l.13-1.52h1v9.38a3.93,3.93,0,0,1-1.07,2.91,4.12,4.12,0,0,1-3,1.06,8.19,8.19,0,0,1-1.58-.17,6.2,6.2,0,0,1-1.47-.46l.3-.88a7.31,7.31,0,0,0,1.3.42,6.6,6.6,0,0,0,1.43.15,2.86,2.86,0,0,0,2.2-.8,3.18,3.18,0,0,0,.74-2.23v-1.2a3.48,3.48,0,0,1-1.32,1.12,4.19,4.19,0,0,1-1.87.39,3.52,3.52,0,0,1-2.89-1.27,5.19,5.19,0,0,1-1-3.4Zm1.14.19a4.44,4.44,0,0,0,.76,2.73,2.59,2.59,0,0,0,2.25,1,3.41,3.41,0,0,0,1.85-.47,3.12,3.12,0,0,0,1.13-1.28V109a3.4,3.4,0,0,0-1.09-1.36,3.09,3.09,0,0,0-1.87-.52,2.53,2.53,0,0,0-2.26,1.14,5.19,5.19,0,0,0-.77,3Z"/><path class="cls-3" d="M349.69,114.3a3.46,3.46,0,0,1-1.33,1.3,4.13,4.13,0,0,1-2,.45,3.22,3.22,0,0,1-2.53-1,4.57,4.57,0,0,1-.92-3.16v-4.62l-1.27-.11v-.78h2.4v5.53a3.82,3.82,0,0,0,.64,2.49,2.24,2.24,0,0,0,1.82.76,3.56,3.56,0,0,0,2.05-.53,2.81,2.81,0,0,0,1.08-1.46v-5.9l-1.46-.11v-.78h2.6V115l1.37.11v.78h-2.37Z"/><path class="cls-3" d="M353.76,115.09l1.55-.11v-7.73l-1.55-.11v-.78h2.68V115l1.54.11v.78h-4.22Zm2.68-11.46h-1.13v-1.47h1.13Z"/><path class="cls-3" d="M359.68,115.09l1.55-.11v-7.73l-1.55-.11v-.78h2.55l.11,1.66a3.48,3.48,0,0,1,1.33-1.36,4,4,0,0,1,2-.48,3.29,3.29,0,0,1,2.54.95,4.2,4.2,0,0,1,.88,3V115l1.54.11v.78h-4.23v-.78l1.55-.11v-4.9a3.25,3.25,0,0,0-.66-2.31,2.51,2.51,0,0,0-1.88-.67,3.12,3.12,0,0,0-1.95.58,3.26,3.26,0,0,0-1.08,1.55V115l1.54.11v.78h-4.23Z"/><path class="cls-3" d="M375,103.92v2.44h2.26v.86H375v6.2a1.93,1.93,0,0,0,.36,1.32,1.29,1.29,0,0,0,1,.39l.53,0,.61-.08.17.78a2.84,2.84,0,0,1-.7.18,5.52,5.52,0,0,1-.81.06,2.23,2.23,0,0,1-1.69-.63,2.83,2.83,0,0,1-.6-2v-6.2h-1.76v-.86h1.76v-2.44Z"/><path class="cls-3" d="M383.89,116.05a4.27,4.27,0,0,1-3.2-1.31,4.62,4.62,0,0,1-1.28-3.35v-.48a4.74,4.74,0,0,1,1.27-3.38,4,4,0,0,1,3.06-1.35,4,4,0,0,1,3,1.11,4,4,0,0,1,1.08,2.95v.9h-7.25v.25a4,4,0,0,0,.93,2.69,3,3,0,0,0,2.42,1.08,5.35,5.35,0,0,0,1.81-.27,3.61,3.61,0,0,0,1.28-.78l.48.72a4,4,0,0,1-1.46.89A6,6,0,0,1,383.89,116.05Zm-.15-9a2.83,2.83,0,0,0-2.11.89,3.68,3.68,0,0,0-1,2.24l0,0h6V110a2.94,2.94,0,0,0-.78-2.08A2.83,2.83,0,0,0,383.74,107.08Z"/><path class="cls-3" d="M391.48,115.45a3.75,3.75,0,0,1-.36,1.58,4,4,0,0,1-1,1.31l-.68-.46a4.39,4.39,0,0,0,.66-1.15,3.64,3.64,0,0,0,.22-1.27v-1.24h1.13Z"/><path class="cls-3" d="M400.88,103.92v2.44h2.26v.86h-2.26v6.2a1.88,1.88,0,0,0,.37,1.32,1.25,1.25,0,0,0,1,.39l.54,0,.6-.08.17.78a2.87,2.87,0,0,1-.69.18,5.76,5.76,0,0,1-.82.06,2.21,2.21,0,0,1-1.68-.63,2.78,2.78,0,0,1-.61-2v-6.2H398v-.86h1.76v-2.44Z"/><path class="cls-3" d="M409.76,116.05a4.3,4.3,0,0,1-3.21-1.31,4.61,4.61,0,0,1-1.27-3.35v-.48a4.73,4.73,0,0,1,1.26-3.38,4.06,4.06,0,0,1,3.06-1.35,4,4,0,0,1,3,1.11,4,4,0,0,1,1.09,2.95v.9h-7.25v.25a4,4,0,0,0,.92,2.69,3.05,3.05,0,0,0,2.43,1.08,5.33,5.33,0,0,0,1.8-.27,3.53,3.53,0,0,0,1.28-.78l.48.72a4,4,0,0,1-1.46.89A6,6,0,0,1,409.76,116.05Zm-.16-9a2.83,2.83,0,0,0-2.11.89,3.74,3.74,0,0,0-1,2.24l0,0h6V110a2.9,2.9,0,0,0-.79-2.08A2.83,2.83,0,0,0,409.6,107.08Z"/><path class="cls-3" d="M415.48,115.09,417,115v-7.73l-1.55-.11v-.78H418l.11,1.66a3.48,3.48,0,0,1,1.33-1.36,3.94,3.94,0,0,1,2-.48,3.29,3.29,0,0,1,2.54.95,4.24,4.24,0,0,1,.88,3V115l1.54.11v.78h-4.23v-.78l1.55-.11v-4.9a3.25,3.25,0,0,0-.66-2.31,2.51,2.51,0,0,0-1.88-.67,3.08,3.08,0,0,0-1.95.58,3.35,3.35,0,0,0-1.09,1.55V115l1.55.11v.78h-4.23Z"/><path class="cls-3" d="M430.82,103.92v2.44h2.26v.86h-2.26v6.2a1.93,1.93,0,0,0,.36,1.32,1.28,1.28,0,0,0,1,.39l.54,0c.17,0,.38,0,.6-.08l.17.78a2.87,2.87,0,0,1-.69.18,5.52,5.52,0,0,1-.81.06,2.22,2.22,0,0,1-1.69-.63,2.83,2.83,0,0,1-.6-2v-6.2H427.9v-.86h1.77v-2.44Z"/><path class="cls-3" d="M439.69,116.05a4.3,4.3,0,0,1-3.21-1.31,4.61,4.61,0,0,1-1.27-3.35v-.48a4.7,4.7,0,0,1,1.27-3.38,4,4,0,0,1,3.06-1.35,4,4,0,0,1,3,1.11,4,4,0,0,1,1.08,2.95v.9h-7.25v.25a4,4,0,0,0,.93,2.69,3,3,0,0,0,2.42,1.08,5.33,5.33,0,0,0,1.8-.27,3.53,3.53,0,0,0,1.28-.78l.49.72a4.09,4.09,0,0,1-1.46.89A6,6,0,0,1,439.69,116.05Zm-.15-9a2.82,2.82,0,0,0-2.11.89,3.63,3.63,0,0,0-1,2.24v0h6V110a2.9,2.9,0,0,0-.79-2.08A2.79,2.79,0,0,0,439.54,107.08Z"/><path class="cls-3" d="M453.33,107.14l-1.28.09,2.56,6.26.33,1.11H455l.36-1.11,2.53-6.26-1.29-.09v-.78h3.46v.78l-1,.08-3.62,8.65h-.91l-3.64-8.65-1-.08v-.78h3.46Z"/><path class="cls-3" d="M461.17,111a4.84,4.84,0,0,1,1.24-3.44,4.71,4.71,0,0,1,6.6,0,4.84,4.84,0,0,1,1.24,3.44v.29a4.85,4.85,0,0,1-1.24,3.45,4.23,4.23,0,0,1-3.29,1.34,4.27,4.27,0,0,1-3.31-1.34,4.85,4.85,0,0,1-1.24-3.45Zm1.14.29a4.32,4.32,0,0,0,.9,2.78,3.35,3.35,0,0,0,5,0,4.32,4.32,0,0,0,.9-2.78V111a4.32,4.32,0,0,0-.9-2.76,3.06,3.06,0,0,0-2.51-1.13,3,3,0,0,0-2.49,1.13,4.32,4.32,0,0,0-.9,2.76Z"/><path class="cls-3" d="M476.49,115.16a3.41,3.41,0,0,0,2-.59,1.91,1.91,0,0,0,.86-1.66h1l0,0a2.53,2.53,0,0,1-1.14,2.2,4.37,4.37,0,0,1-2.74.89,4,4,0,0,1-3.24-1.33,5,5,0,0,1-1.15-3.42v-.37a5,5,0,0,1,1.15-3.41,4,4,0,0,1,3.23-1.34,5.49,5.49,0,0,1,2.17.42,4.19,4.19,0,0,1,1.6,1.12l.05,2.07h-1l-.18-1.68a3.11,3.11,0,0,0-1.13-.75,4,4,0,0,0-1.54-.28,2.83,2.83,0,0,0-2.45,1.09,4.57,4.57,0,0,0-.79,2.76v.37a4.56,4.56,0,0,0,.79,2.77A2.81,2.81,0,0,0,476.49,115.16Z"/><path class="cls-3" d="M487,116.05a4.27,4.27,0,0,1-3.2-1.31,4.62,4.62,0,0,1-1.28-3.35v-.48a4.74,4.74,0,0,1,1.27-3.38,4.06,4.06,0,0,1,3.06-1.35,4,4,0,0,1,3,1.11,4,4,0,0,1,1.08,2.95v.9h-7.25v.25a4,4,0,0,0,.93,2.69,3,3,0,0,0,2.42,1.08,5.35,5.35,0,0,0,1.81-.27,3.61,3.61,0,0,0,1.28-.78l.48.72a4,4,0,0,1-1.46.89A6,6,0,0,1,487,116.05Zm-.15-9a2.83,2.83,0,0,0-2.11.89,3.68,3.68,0,0,0-1,2.24l0,0h6V110a2.94,2.94,0,0,0-.78-2.08A2.83,2.83,0,0,0,486.86,107.08Zm2.69-2.55v.16h-1.07l-1.58-1.48-1.58,1.48h-1v-.19l2.14-1.94h.93Z"/><path class="cls-3" d="M497.42,107.14v-.78H500l.1,1.57a3.41,3.41,0,0,1,1.32-1.29,4,4,0,0,1,2-.46,3.45,3.45,0,0,1,2,.53,3,3,0,0,1,1.13,1.63,3.74,3.74,0,0,1,1.32-1.58,3.65,3.65,0,0,1,2.1-.58,3.24,3.24,0,0,1,2.54,1,4.68,4.68,0,0,1,.89,3.13V115l1.55.12v.78h-4.24v-.78l1.54-.12V110.3a3.63,3.63,0,0,0-.67-2.48,2.4,2.4,0,0,0-1.86-.72,2.65,2.65,0,0,0-2.05.78,3.61,3.61,0,0,0-.88,2V110a.66.66,0,0,1,0,.15V115l1.54.11v.78H504v-.78l1.55-.11V110.3a3.62,3.62,0,0,0-.68-2.46,2.39,2.39,0,0,0-1.87-.74,2.74,2.74,0,0,0-2.91,2.09V115l1.55.11v.78h-4.24v-.78L499,115v-7.73Z"/><path class="cls-3" d="M520.7,116.05a4.3,4.3,0,0,1-3.21-1.31,4.61,4.61,0,0,1-1.27-3.35v-.48a4.73,4.73,0,0,1,1.26-3.38,4.07,4.07,0,0,1,3.07-1.35,4,4,0,0,1,3,1.11,4,4,0,0,1,1.08,2.95v.9h-7.25v.25a4,4,0,0,0,.92,2.69,3.05,3.05,0,0,0,2.43,1.08,5.33,5.33,0,0,0,1.8-.27,3.53,3.53,0,0,0,1.28-.78l.49.72a4.13,4.13,0,0,1-1.47.89A6,6,0,0,1,520.7,116.05Zm-.15-9a2.85,2.85,0,0,0-2.12.89,3.74,3.74,0,0,0-1,2.24l0,0h6V110a2.9,2.9,0,0,0-.79-2.08A2.81,2.81,0,0,0,520.55,107.08Z"/><path class="cls-3" d="M534.08,109.29h-.93L533,108a2.9,2.9,0,0,0-1.08-.64,4.3,4.3,0,0,0-1.5-.23,3,3,0,0,0-1.86.49,1.49,1.49,0,0,0-.62,1.17,1.36,1.36,0,0,0,.53,1.09,5.47,5.47,0,0,0,2.14.76,7.22,7.22,0,0,1,2.75,1,2.1,2.1,0,0,1,.91,1.78,2.26,2.26,0,0,1-1,1.92,4.66,4.66,0,0,1-2.75.73,7,7,0,0,1-2.07-.29,5.27,5.27,0,0,1-1.62-.83V113h.92l.16,1.35A2.66,2.66,0,0,0,529,115a5.9,5.9,0,0,0,1.46.18,3.32,3.32,0,0,0,2-.5,1.45,1.45,0,0,0,.71-1.21,1.53,1.53,0,0,0-.59-1.17,5.23,5.23,0,0,0-2.14-.82,7.32,7.32,0,0,1-2.72-1,1.93,1.93,0,0,1-.89-1.71,2.23,2.23,0,0,1,1-1.84,4.24,4.24,0,0,1,2.62-.75,6.42,6.42,0,0,1,2.07.32,4.37,4.37,0,0,1,1.52.87Z"/><path class="cls-3" d="M536.11,107.14v-.78h2.55l.11,1.57a3.41,3.41,0,0,1,1.32-1.29,3.92,3.92,0,0,1,2-.46,3.49,3.49,0,0,1,2,.53,3,3,0,0,1,1.13,1.63,3.74,3.74,0,0,1,1.32-1.58,3.62,3.62,0,0,1,2.09-.58,3.23,3.23,0,0,1,2.54,1,4.62,4.62,0,0,1,.9,3.13V115l1.55.12v.78H549.3v-.78l1.55-.12V110.3a3.63,3.63,0,0,0-.67-2.48,2.41,2.41,0,0,0-1.86-.72,2.65,2.65,0,0,0-2.05.78,3.62,3.62,0,0,0-.89,2s0,.09,0,.14v5l1.55.11v.78h-4.23v-.78l1.54-.11V110.3a3.62,3.62,0,0,0-.67-2.46,2.4,2.4,0,0,0-1.87-.74,2.74,2.74,0,0,0-2.91,2.09V115l1.54.11v.78h-4.23v-.78l1.55-.11v-7.73Z"/><path class="cls-3" d="M554.86,111a4.84,4.84,0,0,1,1.24-3.44,4.71,4.71,0,0,1,6.6,0,4.89,4.89,0,0,1,1.24,3.44v.29a4.85,4.85,0,0,1-1.24,3.45,4.23,4.23,0,0,1-3.29,1.34,4.27,4.27,0,0,1-3.31-1.34,4.85,4.85,0,0,1-1.24-3.45Zm1.14.29a4.32,4.32,0,0,0,.9,2.78,3.35,3.35,0,0,0,5,0,4.32,4.32,0,0,0,.9-2.78V111a4.27,4.27,0,0,0-.91-2.76,3.32,3.32,0,0,0-5,0A4.32,4.32,0,0,0,556,111Z"/><path class="cls-3" d="M578.06,114.3a3.37,3.37,0,0,1-1.32,1.3,4.13,4.13,0,0,1-2,.45,3.24,3.24,0,0,1-2.54-1,4.62,4.62,0,0,1-.92-3.16v-4.62l-1.27-.11v-.78h2.4v5.53a3.88,3.88,0,0,0,.64,2.49,2.25,2.25,0,0,0,1.82.76,3.59,3.59,0,0,0,2.06-.53,2.74,2.74,0,0,0,1.07-1.46v-5.9l-1.46-.11v-.78h2.6V115l1.38.11v.78h-2.37Z"/><path class="cls-3" d="M582,107.14v-.78h2.56l.1,1.57a3.41,3.41,0,0,1,1.32-1.29,4,4,0,0,1,2-.46,3.49,3.49,0,0,1,2,.53,3,3,0,0,1,1.13,1.63,3.74,3.74,0,0,1,1.32-1.58,3.65,3.65,0,0,1,2.1-.58,3.2,3.2,0,0,1,2.53,1,4.62,4.62,0,0,1,.9,3.13V115l1.55.12v.78h-4.24v-.78l1.54-.12V110.3a3.63,3.63,0,0,0-.67-2.48,2.4,2.4,0,0,0-1.86-.72,2.65,2.65,0,0,0-2,.78,3.61,3.61,0,0,0-.88,2V110s0,.09,0,.15V115l1.54.11v.78h-4.23v-.78l1.55-.11V110.3a3.62,3.62,0,0,0-.68-2.46,2.39,2.39,0,0,0-1.87-.74,2.74,2.74,0,0,0-2.91,2.09V115l1.55.11v.78H582v-.78l1.55-.11v-7.73Z"/><path class="cls-3" d="M607.89,115.87c-.07-.32-.13-.6-.16-.84a5.53,5.53,0,0,1,0-.71,4.48,4.48,0,0,1-1.52,1.24,4.59,4.59,0,0,1-2.14.49,3.42,3.42,0,0,1-2.33-.72,2.46,2.46,0,0,1-.83-2,2.36,2.36,0,0,1,1.23-2.09,6.11,6.11,0,0,1,3.32-.77h2.27v-1.26a2,2,0,0,0-.71-1.6,3,3,0,0,0-2-.58,5.45,5.45,0,0,0-1.56.21,3.62,3.62,0,0,0-1.18.59l-.1,1.27h-.94v-1.83a6,6,0,0,1,1.71-.82,6.9,6.9,0,0,1,2.11-.32,4.36,4.36,0,0,1,2.73.8,2.74,2.74,0,0,1,1,2.3V114c0,.2,0,.38,0,.56a4.35,4.35,0,0,0,.06.52l1,.06v.78Zm-3.74-.75a4.4,4.4,0,0,0,2.18-.53,3.24,3.24,0,0,0,1.36-1.36v-1.91H605.4a4.47,4.47,0,0,0-2.47.6,1.73,1.73,0,0,0-.93,1.5,1.51,1.51,0,0,0,.57,1.23A2.46,2.46,0,0,0,604.15,115.12Z"/><path class="cls-3" d="M218.55,137.65a4.3,4.3,0,0,1-3.21-1.31,4.61,4.61,0,0,1-1.27-3.35v-.48a4.73,4.73,0,0,1,1.26-3.38,4.06,4.06,0,0,1,3.06-1.35,4,4,0,0,1,3,1.11,4,4,0,0,1,1.08,3v.9H215.2V133a4,4,0,0,0,.92,2.69,3.05,3.05,0,0,0,2.43,1.08,5.33,5.33,0,0,0,1.8-.27,3.53,3.53,0,0,0,1.28-.78l.48.72a4,4,0,0,1-1.46.89A6,6,0,0,1,218.55,137.65Zm-.16-9a2.85,2.85,0,0,0-2.11.89,3.74,3.74,0,0,0-1,2.24l0,0h6v-.26a2.9,2.9,0,0,0-.79-2.08A2.83,2.83,0,0,0,218.39,128.68Z"/><path class="cls-3" d="M231.93,130.89H231l-.13-1.34a2.9,2.9,0,0,0-1.08-.64,4.3,4.3,0,0,0-1.5-.23,3,3,0,0,0-1.86.49,1.46,1.46,0,0,0-.62,1.17,1.36,1.36,0,0,0,.53,1.09,5.47,5.47,0,0,0,2.14.76,7.29,7.29,0,0,1,2.75,1,2.09,2.09,0,0,1,.91,1.78,2.26,2.26,0,0,1-1,1.92,4.66,4.66,0,0,1-2.75.73,7,7,0,0,1-2.07-.29,5.16,5.16,0,0,1-1.62-.83v-1.92h.92l.16,1.35a2.55,2.55,0,0,0,1.15.61,5.41,5.41,0,0,0,1.46.19,3.32,3.32,0,0,0,2-.5,1.46,1.46,0,0,0,.71-1.21,1.51,1.51,0,0,0-.59-1.17,5.09,5.09,0,0,0-2.15-.82,7.33,7.33,0,0,1-2.71-1,1.93,1.93,0,0,1-.89-1.71,2.25,2.25,0,0,1,1-1.84,4.29,4.29,0,0,1,2.63-.75,6.47,6.47,0,0,1,2.07.32,4.22,4.22,0,0,1,1.52.87Z"/><path class="cls-3" d="M236.82,125.52V128h2.26v.86h-2.26V135a1.93,1.93,0,0,0,.36,1.32,1.29,1.29,0,0,0,1,.39l.53,0c.18,0,.38,0,.6-.08l.18.78a3.1,3.1,0,0,1-.7.18,5.52,5.52,0,0,1-.81.06,2.22,2.22,0,0,1-1.69-.63,2.83,2.83,0,0,1-.6-2v-6.2H233.9V128h1.77v-2.44Z"/><path class="cls-3" d="M243.62,128l.15,1.58v.11a3.39,3.39,0,0,1,1.19-1.37,3.18,3.18,0,0,1,1.78-.5,3,3,0,0,1,.43,0,1.87,1.87,0,0,1,.33.07l-.15,1-.84-.05a2.71,2.71,0,0,0-1.76.56,3,3,0,0,0-1,1.53v5.68l1.54.11v.78h-4.22v-.78l1.55-.11v-7.73l-1.55-.11V128h2.53Z"/><path class="cls-3" d="M256.06,137.47c-.07-.32-.12-.6-.16-.84a5.53,5.53,0,0,1,0-.71,4.48,4.48,0,0,1-1.52,1.24,4.59,4.59,0,0,1-2.14.49,3.44,3.44,0,0,1-2.33-.72,2.46,2.46,0,0,1-.83-2,2.36,2.36,0,0,1,1.23-2.09,6.11,6.11,0,0,1,3.32-.78h2.27v-1.25a2,2,0,0,0-.71-1.6,3,3,0,0,0-2-.58,5.45,5.45,0,0,0-1.56.21,3.62,3.62,0,0,0-1.18.59l-.1,1.27h-.94v-1.83a6,6,0,0,1,1.71-.82,6.9,6.9,0,0,1,2.11-.32,4.36,4.36,0,0,1,2.73.8,2.73,2.73,0,0,1,1,2.3v4.67c0,.19,0,.38,0,.56a4.35,4.35,0,0,0,.06.52l1,.06v.78Zm-3.73-.75a4.39,4.39,0,0,0,2.17-.53,3.18,3.18,0,0,0,1.36-1.36v-1.91h-2.29a4.47,4.47,0,0,0-2.47.6,1.73,1.73,0,0,0-.93,1.5,1.5,1.5,0,0,0,.58,1.23A2.42,2.42,0,0,0,252.33,136.72Z"/><path class="cls-3" d="M262.31,125.52V128h2.26v.86h-2.26V135a1.88,1.88,0,0,0,.37,1.32,1.25,1.25,0,0,0,1,.39l.54,0,.6-.08.17.78a2.87,2.87,0,0,1-.69.18,5.76,5.76,0,0,1-.82.06,2.25,2.25,0,0,1-1.69-.63,2.83,2.83,0,0,1-.6-2v-6.2H259.4V128h1.76v-2.44Z"/><path class="cls-3" d="M271.18,137.65a4.27,4.27,0,0,1-3.2-1.31A4.62,4.62,0,0,1,266.7,133v-.48a4.74,4.74,0,0,1,1.27-3.38,4.06,4.06,0,0,1,3.06-1.35,4,4,0,0,1,3,1.11,4,4,0,0,1,1.09,3v.9h-7.26V133a4,4,0,0,0,.93,2.69,3,3,0,0,0,2.42,1.08,5.35,5.35,0,0,0,1.81-.27,3.61,3.61,0,0,0,1.28-.78l.48.72a4,4,0,0,1-1.46.89A6,6,0,0,1,271.18,137.65Zm-.15-9a2.83,2.83,0,0,0-2.11.89,3.68,3.68,0,0,0-1,2.24l0,0h6v-.26a2.94,2.94,0,0,0-.79-2.08A2.83,2.83,0,0,0,271,128.68Zm1.08-4.35h1.39l0,0-2.36,2.29h-1Z"/><path class="cls-3" d="M277.16,132.79a5.81,5.81,0,0,1,1-3.64,3.47,3.47,0,0,1,2.91-1.37,3.84,3.84,0,0,1,1.9.45,3.66,3.66,0,0,1,1.32,1.25l.13-1.52h1v9.38a3.9,3.9,0,0,1-1.07,2.9,4.07,4.07,0,0,1-3,1.07,8.27,8.27,0,0,1-1.58-.17,6.2,6.2,0,0,1-1.47-.46l.31-.88a7,7,0,0,0,1.29.42,6.6,6.6,0,0,0,1.43.15,2.86,2.86,0,0,0,2.2-.8,3.15,3.15,0,0,0,.74-2.23v-1.2a3.48,3.48,0,0,1-1.32,1.12,4.19,4.19,0,0,1-1.87.39,3.52,3.52,0,0,1-2.89-1.27,5.19,5.19,0,0,1-1-3.4Zm1.14.19a4.44,4.44,0,0,0,.76,2.73,2.59,2.59,0,0,0,2.25,1,3.41,3.41,0,0,0,1.85-.47,3.05,3.05,0,0,0,1.13-1.28v-4.41a3.32,3.32,0,0,0-1.09-1.36,3.07,3.07,0,0,0-1.87-.52,2.54,2.54,0,0,0-2.26,1.14,5.19,5.19,0,0,0-.77,2.95Z"/><path class="cls-3" d="M287.94,136.69l1.54-.11v-7.73l-1.54-.11V128h2.67v8.62l1.55.11v.78h-4.22Zm2.67-11.46h-1.13v-1.47h1.13Z"/><path class="cls-3" d="M301.16,137.47a7.1,7.1,0,0,1-.16-.84,4.17,4.17,0,0,1-.05-.71,4.48,4.48,0,0,1-1.52,1.24,4.53,4.53,0,0,1-2.14.49,3.44,3.44,0,0,1-2.33-.72,2.46,2.46,0,0,1-.83-2,2.36,2.36,0,0,1,1.23-2.09,6.13,6.13,0,0,1,3.32-.78H301v-1.25a2,2,0,0,0-.71-1.6,3,3,0,0,0-2-.58,5.45,5.45,0,0,0-1.56.21,3.73,3.73,0,0,0-1.18.59l-.09,1.27h-.94v-1.83a6.17,6.17,0,0,1,1.71-.82,6.9,6.9,0,0,1,2.11-.32,4.36,4.36,0,0,1,2.73.8,2.73,2.73,0,0,1,1,2.3v4.67c0,.19,0,.38,0,.56a4.35,4.35,0,0,0,.06.52l1,.06v.78Zm-3.74-.75a4.36,4.36,0,0,0,2.17-.53,3.18,3.18,0,0,0,1.36-1.36v-1.91h-2.29a4.49,4.49,0,0,0-2.47.6,1.73,1.73,0,0,0-.93,1.5,1.5,1.5,0,0,0,.58,1.23A2.44,2.44,0,0,0,297.42,136.72Z"/><path class="cls-3" d="M309.22,128.74V128h2.49l.14,1.47a3.73,3.73,0,0,1,1.34-1.22,4.07,4.07,0,0,1,1.9-.43,3.46,3.46,0,0,1,2.9,1.37,5.87,5.87,0,0,1,1,3.64V133a5.21,5.21,0,0,1-1,3.4,3.53,3.53,0,0,1-2.88,1.27,4.46,4.46,0,0,1-1.89-.38,3.46,3.46,0,0,1-1.33-1.09v4l1.55.11v.78h-4.22v-.78l1.54-.11V128.85Zm8.67,4a5.11,5.11,0,0,0-.78-2.95,2.59,2.59,0,0,0-2.28-1.14,3,3,0,0,0-2.94,1.82v4.57a3,3,0,0,0,1.13,1.23,3.54,3.54,0,0,0,1.83.44,2.66,2.66,0,0,0,2.27-1,4.53,4.53,0,0,0,.77-2.75Z"/><path class="cls-3" d="M328,137.47a7.1,7.1,0,0,1-.16-.84,5.52,5.52,0,0,1-.05-.71,4.38,4.38,0,0,1-1.52,1.24,4.52,4.52,0,0,1-2.13.49,3.45,3.45,0,0,1-2.34-.72,2.45,2.45,0,0,1-.82-2,2.37,2.37,0,0,1,1.22-2.09,6.13,6.13,0,0,1,3.32-.78h2.27v-1.25a1.94,1.94,0,0,0-.71-1.6,3,3,0,0,0-2-.58,5.57,5.57,0,0,0-1.57.21,3.73,3.73,0,0,0-1.18.59l-.09,1.27h-.94v-1.83a6,6,0,0,1,1.7-.82,7,7,0,0,1,2.11-.32,4.37,4.37,0,0,1,2.74.8,2.73,2.73,0,0,1,1,2.3v4.67c0,.19,0,.38,0,.56a4.34,4.34,0,0,0,.07.52l1,.06v.78Zm-3.74-.75a4.36,4.36,0,0,0,2.17-.53,3.18,3.18,0,0,0,1.36-1.36v-1.91h-2.29a4.49,4.49,0,0,0-2.47.6,1.72,1.72,0,0,0-.92,1.5,1.52,1.52,0,0,0,.57,1.23A2.44,2.44,0,0,0,324.23,136.72Z"/><path class="cls-3" d="M334.06,128l.15,1.58v.11a3.39,3.39,0,0,1,1.19-1.37,3.19,3.19,0,0,1,1.79-.5,3,3,0,0,1,.42,0,2.24,2.24,0,0,1,.34.07l-.16,1-.84-.05a2.71,2.71,0,0,0-1.76.56,3,3,0,0,0-1,1.53v5.68l1.54.11v.78h-4.22v-.78l1.55-.11v-7.73l-1.55-.11V128h2.53Z"/><path class="cls-3" d="M346.51,137.47a7.1,7.1,0,0,1-.16-.84,4.17,4.17,0,0,1-.05-.71,4.48,4.48,0,0,1-1.52,1.24,4.56,4.56,0,0,1-2.14.49,3.44,3.44,0,0,1-2.33-.72,2.46,2.46,0,0,1-.83-2,2.36,2.36,0,0,1,1.23-2.09,6.11,6.11,0,0,1,3.32-.78h2.27v-1.25a2,2,0,0,0-.71-1.6,3,3,0,0,0-2-.58,5.45,5.45,0,0,0-1.56.21,3.73,3.73,0,0,0-1.18.59l-.1,1.27h-.94v-1.83a6.17,6.17,0,0,1,1.71-.82,6.9,6.9,0,0,1,2.11-.32,4.36,4.36,0,0,1,2.73.8,2.73,2.73,0,0,1,1,2.3v4.67c0,.19,0,.38,0,.56a4.35,4.35,0,0,0,.06.52l1,.06v.78Zm-3.74-.75a4.39,4.39,0,0,0,2.17-.53,3.18,3.18,0,0,0,1.36-1.36v-1.91H344a4.47,4.47,0,0,0-2.47.6,1.73,1.73,0,0,0-.93,1.5,1.5,1.5,0,0,0,.58,1.23A2.44,2.44,0,0,0,342.77,136.72Z"/><path class="cls-3" d="M362,137.47a7.1,7.1,0,0,1-.16-.84,5.52,5.52,0,0,1-.05-.71,4.57,4.57,0,0,1-3.65,1.73,3.45,3.45,0,0,1-2.34-.72,2.45,2.45,0,0,1-.82-2,2.35,2.35,0,0,1,1.22-2.09,6.13,6.13,0,0,1,3.32-.78h2.27v-1.25a2,2,0,0,0-.71-1.6,3,3,0,0,0-2-.58,5.45,5.45,0,0,0-1.56.21,3.73,3.73,0,0,0-1.18.59l-.09,1.27h-.94v-1.83a6,6,0,0,1,1.7-.82,6.9,6.9,0,0,1,2.11-.32,4.36,4.36,0,0,1,2.73.8,2.73,2.73,0,0,1,1,2.3v4.67c0,.19,0,.38,0,.56a4.35,4.35,0,0,0,.06.52l1,.06v.78Zm-3.74-.75a4.36,4.36,0,0,0,2.17-.53,3.18,3.18,0,0,0,1.36-1.36v-1.91h-2.29a4.49,4.49,0,0,0-2.47.6,1.73,1.73,0,0,0-.93,1.5,1.53,1.53,0,0,0,.58,1.23A2.44,2.44,0,0,0,358.22,136.72Z"/><path class="cls-3" d="M372.93,125.52V128h2.26v.86h-2.26V135a1.88,1.88,0,0,0,.37,1.32,1.25,1.25,0,0,0,1,.39l.53,0,.61-.08.17.78a2.87,2.87,0,0,1-.69.18,5.76,5.76,0,0,1-.82.06,2.25,2.25,0,0,1-1.69-.63,2.83,2.83,0,0,1-.6-2v-6.2H370V128h1.76v-2.44Z"/><path class="cls-3" d="M379.73,128l.15,1.58v.11a3.39,3.39,0,0,1,1.19-1.37,3.19,3.19,0,0,1,1.79-.5,3,3,0,0,1,.42,0,2,2,0,0,1,.34.07l-.15,1-.85-.05a2.71,2.71,0,0,0-1.76.56,3,3,0,0,0-1,1.53v5.68l1.54.11v.78H377.2v-.78l1.55-.11v-7.73l-1.55-.11V128h2.53Z"/><path class="cls-3" d="M392.18,137.47a7.1,7.1,0,0,1-.16-.84,4.17,4.17,0,0,1,0-.71,4.48,4.48,0,0,1-1.52,1.24,4.53,4.53,0,0,1-2.14.49,3.44,3.44,0,0,1-2.33-.72,2.46,2.46,0,0,1-.83-2,2.36,2.36,0,0,1,1.23-2.09,6.11,6.11,0,0,1,3.32-.78H392v-1.25a2,2,0,0,0-.71-1.6,3,3,0,0,0-2-.58,5.45,5.45,0,0,0-1.56.21,3.73,3.73,0,0,0-1.18.59l-.09,1.27h-.94v-1.83a6,6,0,0,1,1.7-.82,6.9,6.9,0,0,1,2.11-.32,4.36,4.36,0,0,1,2.73.8,2.73,2.73,0,0,1,1,2.3v4.67c0,.19,0,.38,0,.56a4.35,4.35,0,0,0,.06.52l1,.06v.78Zm-3.74-.75a4.36,4.36,0,0,0,2.17-.53,3.18,3.18,0,0,0,1.36-1.36v-1.91h-2.29a4.49,4.49,0,0,0-2.47.6,1.73,1.73,0,0,0-.93,1.5,1.53,1.53,0,0,0,.58,1.23A2.44,2.44,0,0,0,388.44,136.72Z"/><path class="cls-3" d="M398.65,128.74l-1.28.09,2.56,6.26.33,1.11h.06l.36-1.11,2.53-6.26-1.28-.09V128h3.45v.78l-1,.08-3.62,8.65h-.91l-3.64-8.65-1-.08V128h3.45Z"/><path class="cls-3" d="M411,137.65a4.3,4.3,0,0,1-3.21-1.31,4.61,4.61,0,0,1-1.27-3.35v-.48a4.73,4.73,0,0,1,1.26-3.38,4.06,4.06,0,0,1,3.06-1.35,4,4,0,0,1,3,1.11,4,4,0,0,1,1.08,3v.9h-7.25V133a4,4,0,0,0,.92,2.69,3.05,3.05,0,0,0,2.43,1.08,5.33,5.33,0,0,0,1.8-.27,3.53,3.53,0,0,0,1.28-.78l.49.72a4.13,4.13,0,0,1-1.47.89A6,6,0,0,1,411,137.65Zm-.16-9a2.85,2.85,0,0,0-2.11.89,3.74,3.74,0,0,0-1,2.24l0,0h6v-.26a2.9,2.9,0,0,0-.79-2.08A2.83,2.83,0,0,0,410.88,128.68Z"/><path class="cls-3" d="M424.42,130.89h-.93l-.13-1.34a2.9,2.9,0,0,0-1.08-.64,4.3,4.3,0,0,0-1.5-.23,2.93,2.93,0,0,0-1.86.49,1.46,1.46,0,0,0-.62,1.17,1.36,1.36,0,0,0,.53,1.09,5.47,5.47,0,0,0,2.14.76,7.29,7.29,0,0,1,2.75,1,2.09,2.09,0,0,1,.91,1.78,2.26,2.26,0,0,1-1,1.92,4.66,4.66,0,0,1-2.75.73,7,7,0,0,1-2.07-.29,5.16,5.16,0,0,1-1.62-.83v-1.92h.92l.16,1.35a2.55,2.55,0,0,0,1.15.61,5.41,5.41,0,0,0,1.46.19,3.32,3.32,0,0,0,2-.5,1.46,1.46,0,0,0,.71-1.21,1.49,1.49,0,0,0-.6-1.17,5,5,0,0,0-2.14-.82,7.33,7.33,0,0,1-2.71-1,1.93,1.93,0,0,1-.89-1.71,2.25,2.25,0,0,1,1-1.84,4.27,4.27,0,0,1,2.63-.75,6.47,6.47,0,0,1,2.07.32,4.22,4.22,0,0,1,1.52.87Z"/><path class="cls-3" d="M434.15,130.89h-.93l-.14-1.34a2.78,2.78,0,0,0-1.07-.64,4.38,4.38,0,0,0-1.5-.23,2.93,2.93,0,0,0-1.86.49,1.47,1.47,0,0,0-.63,1.17,1.34,1.34,0,0,0,.54,1.09,5.47,5.47,0,0,0,2.14.76,7.16,7.16,0,0,1,2.74,1,2.07,2.07,0,0,1,.92,1.78,2.26,2.26,0,0,1-1,1.92,4.68,4.68,0,0,1-2.75.73,7.16,7.16,0,0,1-2.08-.29,5.21,5.21,0,0,1-1.61-.83v-1.92h.92L428,136a2.55,2.55,0,0,0,1.15.61,5.41,5.41,0,0,0,1.46.19,3.26,3.26,0,0,0,1.94-.5,1.45,1.45,0,0,0,.72-1.21,1.49,1.49,0,0,0-.6-1.17,5,5,0,0,0-2.14-.82,7.46,7.46,0,0,1-2.72-1,1.94,1.94,0,0,1-.88-1.71,2.25,2.25,0,0,1,1-1.84,4.27,4.27,0,0,1,2.63-.75,6.47,6.47,0,0,1,2.07.32,4.22,4.22,0,0,1,1.52.87Z"/><path class="cls-3" d="M436.35,136.69l1.55-.11v-7.73l-1.55-.11V128H439v8.62l1.54.11v.78h-4.22ZM439,125.23H437.9v-1.47H439Z"/><path class="cls-3" d="M449.57,137.47a7.1,7.1,0,0,1-.16-.84,5.52,5.52,0,0,1-.05-.71,4.38,4.38,0,0,1-1.52,1.24,4.52,4.52,0,0,1-2.13.49,3.45,3.45,0,0,1-2.34-.72,2.45,2.45,0,0,1-.82-2,2.37,2.37,0,0,1,1.22-2.09,6.13,6.13,0,0,1,3.32-.78h2.27v-1.25a1.94,1.94,0,0,0-.71-1.6,3,3,0,0,0-2-.58,5.57,5.57,0,0,0-1.57.21,3.73,3.73,0,0,0-1.18.59l-.09,1.27h-.94v-1.83a6,6,0,0,1,1.7-.82,7,7,0,0,1,2.11-.32,4.37,4.37,0,0,1,2.74.8,2.73,2.73,0,0,1,1,2.3v4.67c0,.19,0,.38,0,.56a4.35,4.35,0,0,0,.06.52l1,.06v.78Zm-3.74-.75a4.36,4.36,0,0,0,2.17-.53,3.18,3.18,0,0,0,1.36-1.36v-1.91h-2.29a4.49,4.49,0,0,0-2.47.6,1.72,1.72,0,0,0-.92,1.5,1.52,1.52,0,0,0,.57,1.23A2.44,2.44,0,0,0,445.83,136.72Z"/><path class="cls-3" d="M465.07,136.1a3.49,3.49,0,0,1-1.32,1.15,4.19,4.19,0,0,1-1.9.4,3.5,3.5,0,0,1-2.88-1.27,5.25,5.25,0,0,1-1-3.4v-.19a5.87,5.87,0,0,1,1-3.64,3.44,3.44,0,0,1,2.9-1.37,3.87,3.87,0,0,1,1.86.42,3.55,3.55,0,0,1,1.31,1.19v-4.74l-1.55-.11v-.78h2.69v12.82l1.55.11v.78h-2.57Zm-6-3.12a4.54,4.54,0,0,0,.75,2.74,2.58,2.58,0,0,0,2.24,1,3.36,3.36,0,0,0,1.83-.46A3,3,0,0,0,465,135v-4.5a3.26,3.26,0,0,0-1.1-1.31,3.09,3.09,0,0,0-1.85-.51,2.56,2.56,0,0,0-2.26,1.13,5.3,5.3,0,0,0-.75,3Z"/><path class="cls-3" d="M469.47,132.57a4.85,4.85,0,0,1,1.25-3.44,4.7,4.7,0,0,1,6.59,0,4.85,4.85,0,0,1,1.25,3.44v.29a4.9,4.9,0,0,1-1.24,3.45,4.73,4.73,0,0,1-6.6,0,4.86,4.86,0,0,1-1.25-3.45Zm1.14.29a4.32,4.32,0,0,0,.9,2.78,3.36,3.36,0,0,0,5,0,4.32,4.32,0,0,0,.9-2.78v-.29a4.32,4.32,0,0,0-.91-2.76,3.33,3.33,0,0,0-5,0,4.32,4.32,0,0,0-.9,2.76Z"/><path class="cls-3" d="M487.59,128l.14,1.58v.11a3.46,3.46,0,0,1,1.19-1.37,3.21,3.21,0,0,1,1.79-.5,3,3,0,0,1,.43,0,2.09,2.09,0,0,1,.33.07l-.15,1-.84-.05a2.69,2.69,0,0,0-1.76.56,3.05,3.05,0,0,0-1,1.53v5.68l1.55.11v.78h-4.22v-.78l1.54-.11v-7.73l-1.54-.11V128h2.53Z"/><path class="cls-3" d="M492.87,136.69l1.55-.11v-7.73l-1.55-.11V128h2.68v8.62l1.54.11v.78h-4.22Zm2.68-11.46h-1.13v-1.47h1.13Z"/><path class="cls-3" d="M506.09,137.47a7.1,7.1,0,0,1-.16-.84,5.52,5.52,0,0,1-.05-.71,4.38,4.38,0,0,1-1.52,1.24,4.52,4.52,0,0,1-2.13.49,3.45,3.45,0,0,1-2.34-.72,2.45,2.45,0,0,1-.82-2,2.37,2.37,0,0,1,1.22-2.09,6.13,6.13,0,0,1,3.32-.78h2.27v-1.25a1.94,1.94,0,0,0-.71-1.6,3,3,0,0,0-2-.58,5.57,5.57,0,0,0-1.57.21,3.73,3.73,0,0,0-1.18.59l-.09,1.27h-.94v-1.83a6,6,0,0,1,1.7-.82,7,7,0,0,1,2.11-.32,4.37,4.37,0,0,1,2.74.8,2.73,2.73,0,0,1,1,2.3v4.67c0,.19,0,.38,0,.56a4.34,4.34,0,0,0,.07.52l1,.06v.78Zm-3.74-.75a4.36,4.36,0,0,0,2.17-.53,3.18,3.18,0,0,0,1.36-1.36v-1.91h-2.29a4.49,4.49,0,0,0-2.47.6,1.72,1.72,0,0,0-.92,1.5,1.52,1.52,0,0,0,.57,1.23A2.44,2.44,0,0,0,502.35,136.72Z"/><path class="cls-3" d="M514.11,136.76a3.46,3.46,0,0,0,2-.59,1.92,1.92,0,0,0,.87-1.66h1l0,.05a2.52,2.52,0,0,1-1.13,2.2,4.42,4.42,0,0,1-2.75.89,4.05,4.05,0,0,1-3.24-1.33,5.08,5.08,0,0,1-1.14-3.42v-.37a5.07,5.07,0,0,1,1.14-3.41,4,4,0,0,1,3.23-1.34,5.63,5.63,0,0,1,2.17.41,4.36,4.36,0,0,1,1.61,1.13l0,2.07h-1l-.18-1.68a3.15,3.15,0,0,0-1.14-.75,3.92,3.92,0,0,0-1.54-.28,2.8,2.8,0,0,0-2.44,1.09,4.58,4.58,0,0,0-.8,2.76v.37a4.63,4.63,0,0,0,.79,2.77A2.83,2.83,0,0,0,514.11,136.76Z"/><path class="cls-3" d="M519.78,124.54v-.78h2.67v5.82a3.62,3.62,0,0,1,1.37-1.32,4,4,0,0,1,2-.48,3.21,3.21,0,0,1,2.49.93,4.13,4.13,0,0,1,.87,2.89v5l1.55.11v.78h-4.23v-.78l1.54-.11v-5a3.1,3.1,0,0,0-.66-2.22,2.41,2.41,0,0,0-1.81-.67,3.14,3.14,0,0,0-3.11,2.07v5.81l1.55.11v.78h-4.22v-.78l1.54-.11V124.65Z"/><path class="cls-3" d="M532.33,132.57a4.85,4.85,0,0,1,1.25-3.44,4.7,4.7,0,0,1,6.59,0,4.85,4.85,0,0,1,1.25,3.44v.29a4.9,4.9,0,0,1-1.24,3.45,4.73,4.73,0,0,1-6.6,0,4.86,4.86,0,0,1-1.25-3.45Zm1.14.29a4.32,4.32,0,0,0,.9,2.78,3.05,3.05,0,0,0,2.52,1.12,3,3,0,0,0,2.49-1.12,4.32,4.32,0,0,0,.9-2.78v-.29a4.27,4.27,0,0,0-.91-2.76,3.33,3.33,0,0,0-5,0,4.32,4.32,0,0,0-.9,2.76Z"/><path class="cls-3" d="M544.92,137.05a3.75,3.75,0,0,1-.36,1.58,4,4,0,0,1-1,1.31l-.67-.46a5,5,0,0,0,.66-1.15,3.64,3.64,0,0,0,.21-1.27v-1.25h1.13Z"/><path class="cls-3" d="M558.85,136.1a3.49,3.49,0,0,1-1.32,1.15,4.19,4.19,0,0,1-1.9.4,3.53,3.53,0,0,1-2.88-1.27,5.25,5.25,0,0,1-1-3.4v-.19a5.87,5.87,0,0,1,1-3.64,3.45,3.45,0,0,1,2.9-1.37,3.87,3.87,0,0,1,1.86.42,3.48,3.48,0,0,1,1.31,1.19v-4.74l-1.54-.11v-.78H560v12.82l1.55.11v.78H559Zm-6-3.12a4.54,4.54,0,0,0,.75,2.74,2.58,2.58,0,0,0,2.24,1,3.36,3.36,0,0,0,1.83-.46,3,3,0,0,0,1.14-1.26v-4.5a3.31,3.31,0,0,0-1.09-1.31,3.15,3.15,0,0,0-1.86-.51,2.53,2.53,0,0,0-2.25,1.13,5.22,5.22,0,0,0-.76,3Z"/><path class="cls-3" d="M567.78,137.65a4.3,4.3,0,0,1-3.21-1.31A4.65,4.65,0,0,1,563.3,133v-.48a4.74,4.74,0,0,1,1.27-3.38,4,4,0,0,1,3.06-1.35,4,4,0,0,1,3,1.11,4,4,0,0,1,1.08,3v.9h-7.25V133a4,4,0,0,0,.93,2.69,3,3,0,0,0,2.42,1.08,5.39,5.39,0,0,0,1.81-.27,3.61,3.61,0,0,0,1.28-.78l.48.72a4,4,0,0,1-1.46.89A6,6,0,0,1,567.78,137.65Zm-.15-9a2.83,2.83,0,0,0-2.11.89,3.68,3.68,0,0,0-1,2.24l0,0h6v-.26a2.94,2.94,0,0,0-.78-2.08A2.83,2.83,0,0,0,567.63,128.68Z"/><path class="cls-3" d="M581.05,125.52V128h2.26v.86h-2.26V135a1.88,1.88,0,0,0,.37,1.32,1.25,1.25,0,0,0,1,.39l.54,0,.6-.08.17.78a2.87,2.87,0,0,1-.69.18,5.76,5.76,0,0,1-.82.06,2.21,2.21,0,0,1-1.68-.63,2.78,2.78,0,0,1-.61-2v-6.2h-1.76V128h1.76v-2.44Z"/><path class="cls-3" d="M592.49,137.47a7.1,7.1,0,0,1-.16-.84,4.17,4.17,0,0,1-.05-.71,4.48,4.48,0,0,1-1.52,1.24,4.53,4.53,0,0,1-2.14.49,3.44,3.44,0,0,1-2.33-.72,2.46,2.46,0,0,1-.83-2,2.36,2.36,0,0,1,1.23-2.09,6.11,6.11,0,0,1,3.32-.78h2.27v-1.25a2,2,0,0,0-.71-1.6,3,3,0,0,0-2-.58,5.45,5.45,0,0,0-1.56.21,3.73,3.73,0,0,0-1.18.59l-.09,1.27h-1v-1.83a6.17,6.17,0,0,1,1.71-.82,6.9,6.9,0,0,1,2.11-.32,4.36,4.36,0,0,1,2.73.8,2.73,2.73,0,0,1,1,2.3v4.67c0,.19,0,.38,0,.56a4.35,4.35,0,0,0,.06.52l1,.06v.78Zm-3.74-.75a4.36,4.36,0,0,0,2.17-.53,3.18,3.18,0,0,0,1.36-1.36v-1.91H590a4.49,4.49,0,0,0-2.47.6,1.73,1.73,0,0,0-.93,1.5,1.5,1.5,0,0,0,.58,1.23A2.44,2.44,0,0,0,588.75,136.72Z"/><path class="cls-3" d="M595.89,124.54v-.78h2.68v12.82l1.55.11v.78h-4.23v-.78l1.55-.11V124.65Z"/><path class="cls-3" d="M606.48,128.82V128h1.7v-1.39a3.06,3.06,0,0,1,.77-2.22,3,3,0,0,1,2.18-.78,4.44,4.44,0,0,1,.62.05q.33,0,.66.12l-.14.87a3.55,3.55,0,0,0-.47-.08,4.32,4.32,0,0,0-.56,0,1.87,1.87,0,0,0-1.43.55,2.18,2.18,0,0,0-.49,1.53V128h2.44v.86h-2.44v7.76l1.54.11v.78h-4.23v-.78l1.55-.11v-7.76Z"/><path class="cls-3" d="M613.52,132.57a4.84,4.84,0,0,1,1.24-3.44,4.71,4.71,0,0,1,6.6,0,4.84,4.84,0,0,1,1.24,3.44v.29a4.85,4.85,0,0,1-1.24,3.45,4.22,4.22,0,0,1-3.28,1.34,4.3,4.3,0,0,1-3.32-1.34,4.85,4.85,0,0,1-1.24-3.45Zm1.14.29a4.32,4.32,0,0,0,.9,2.78,3,3,0,0,0,2.52,1.12,3,3,0,0,0,2.48-1.12,4.32,4.32,0,0,0,.9-2.78v-.29a4.32,4.32,0,0,0-.9-2.76,3.33,3.33,0,0,0-5,0,4.32,4.32,0,0,0-.9,2.76Z"/><path class="cls-3" d="M626.91,128l.14,1.58v.11a3.54,3.54,0,0,1,1.19-1.37,3.21,3.21,0,0,1,1.79-.5,3,3,0,0,1,.43,0,2.09,2.09,0,0,1,.33.07l-.15,1-.84-.05a2.69,2.69,0,0,0-1.76.56,3.05,3.05,0,0,0-1,1.53v5.68l1.55.11v.78h-4.22v-.78l1.54-.11v-7.73l-1.54-.11V128h2.53Z"/><path class="cls-3" d="M632,128.74V128h2.55l.11,1.57a3.32,3.32,0,0,1,1.31-1.29,4,4,0,0,1,2-.46,3.45,3.45,0,0,1,2,.53,2.9,2.9,0,0,1,1.13,1.63,3.76,3.76,0,0,1,1.33-1.58,3.62,3.62,0,0,1,2.09-.58,3.24,3.24,0,0,1,2.54,1,4.62,4.62,0,0,1,.9,3.13v4.65l1.54.12v.78h-4.24v-.78l1.55-.12V131.9a3.66,3.66,0,0,0-.67-2.48,2.43,2.43,0,0,0-1.87-.72,2.64,2.64,0,0,0-2,.78,3.55,3.55,0,0,0-.89,2,.53.53,0,0,0,0,.13v5l1.55.11v.78h-4.24v-.78l1.55-.11V131.9a3.57,3.57,0,0,0-.68-2.46,2.37,2.37,0,0,0-1.86-.74,3,3,0,0,0-1.92.56,3,3,0,0,0-1,1.53v5.79l1.55.11v.78H632v-.78l1.54-.11v-7.73Z"/><path class="cls-3" d="M658,137.47a7.1,7.1,0,0,1-.16-.84,5.52,5.52,0,0,1,0-.71,4.57,4.57,0,0,1-3.65,1.73,3.45,3.45,0,0,1-2.34-.72,2.45,2.45,0,0,1-.82-2,2.35,2.35,0,0,1,1.22-2.09,6.13,6.13,0,0,1,3.32-.78h2.27v-1.25a2,2,0,0,0-.71-1.6,3,3,0,0,0-2-.58,5.45,5.45,0,0,0-1.56.21,3.73,3.73,0,0,0-1.18.59l-.09,1.27h-.94v-1.83a6,6,0,0,1,1.7-.82,7,7,0,0,1,2.11-.32,4.34,4.34,0,0,1,2.73.8,2.73,2.73,0,0,1,1,2.3v4.67c0,.19,0,.38,0,.56a4.35,4.35,0,0,0,.06.52l1,.06v.78Zm-3.74-.75a4.36,4.36,0,0,0,2.17-.53,3.18,3.18,0,0,0,1.36-1.36v-1.91h-2.29a4.49,4.49,0,0,0-2.47.6,1.73,1.73,0,0,0-.93,1.5,1.53,1.53,0,0,0,.58,1.23A2.44,2.44,0,0,0,654.21,136.72Z"/><path class="cls-3" d="M214,154.39a5.87,5.87,0,0,1,1-3.64,3.44,3.44,0,0,1,2.9-1.37,3.93,3.93,0,0,1,1.84.41,3.5,3.5,0,0,1,1.31,1.17l.11-1.4h1v12.27l1.55.11v.78h-4.24v-.78l1.55-.11v-4a3.38,3.38,0,0,1-1.31,1.06,4.18,4.18,0,0,1-1.83.37,3.5,3.5,0,0,1-2.88-1.27,5.25,5.25,0,0,1-1-3.4Zm1.15.19a4.64,4.64,0,0,0,.74,2.75,2.59,2.59,0,0,0,2.25,1,3.35,3.35,0,0,0,1.79-.44,3,3,0,0,0,1.13-1.22v-4.64a3.5,3.5,0,0,0-1.1-1.28,3.11,3.11,0,0,0-1.8-.5,2.53,2.53,0,0,0-2.26,1.15,5.3,5.3,0,0,0-.75,3Z"/><path class="cls-3" d="M232.42,157.5a3.37,3.37,0,0,1-1.32,1.3,4.13,4.13,0,0,1-2,.45,3.24,3.24,0,0,1-2.54-1,4.62,4.62,0,0,1-.92-3.16v-4.62l-1.27-.11v-.78h2.4v5.53a3.81,3.81,0,0,0,.65,2.49,2.22,2.22,0,0,0,1.81.76,3.59,3.59,0,0,0,2.06-.53,2.74,2.74,0,0,0,1.07-1.46v-5.9l-1.46-.11v-.78h2.6v8.62l1.38.11v.78h-2.37Z"/><path class="cls-3" d="M241.1,159.25a4.3,4.3,0,0,1-3.21-1.31,4.61,4.61,0,0,1-1.27-3.35v-.48a4.7,4.7,0,0,1,1.27-3.38,4,4,0,0,1,3.06-1.35,4,4,0,0,1,3,1.11,4,4,0,0,1,1.08,2.95v.9h-7.25v.25a4,4,0,0,0,.92,2.69,3.05,3.05,0,0,0,2.43,1.08,5.33,5.33,0,0,0,1.8-.27,3.53,3.53,0,0,0,1.28-.78l.49.72a4.13,4.13,0,0,1-1.47.89A6,6,0,0,1,241.1,159.25Zm-.15-9a2.85,2.85,0,0,0-2.12.89,3.74,3.74,0,0,0-1,2.24l0,0h6v-.26a2.9,2.9,0,0,0-.79-2.08A2.81,2.81,0,0,0,241,150.28Z"/><path class="cls-3" d="M258.85,159.07a7.1,7.1,0,0,1-.16-.84,4.17,4.17,0,0,1-.05-.71,4.48,4.48,0,0,1-1.52,1.24,4.56,4.56,0,0,1-2.14.49,3.44,3.44,0,0,1-2.33-.72,2.46,2.46,0,0,1-.83-1.95,2.36,2.36,0,0,1,1.23-2.09,6.11,6.11,0,0,1,3.32-.77h2.27v-1.26a2,2,0,0,0-.71-1.6,3,3,0,0,0-2-.58,5.45,5.45,0,0,0-1.56.21,3.62,3.62,0,0,0-1.18.59l-.1,1.27h-.94v-1.83a6.47,6.47,0,0,1,1.71-.82,6.9,6.9,0,0,1,2.11-.32,4.36,4.36,0,0,1,2.73.8,2.75,2.75,0,0,1,1,2.3v4.67c0,.2,0,.38,0,.56a4.35,4.35,0,0,0,.06.52l1,.06v.78Zm-3.74-.75a4.28,4.28,0,0,0,2.17-.53,3.18,3.18,0,0,0,1.36-1.36v-1.91h-2.29a4.47,4.47,0,0,0-2.47.6,1.73,1.73,0,0,0-.93,1.5,1.49,1.49,0,0,0,.58,1.23A2.44,2.44,0,0,0,255.11,158.32Z"/><path class="cls-3" d="M269.93,152.49H269l-.13-1.34a2.82,2.82,0,0,0-1.08-.64,4.28,4.28,0,0,0-1.49-.23,3,3,0,0,0-1.87.49,1.49,1.49,0,0,0-.62,1.17,1.34,1.34,0,0,0,.54,1.09,5.4,5.4,0,0,0,2.14.76,7.23,7.23,0,0,1,2.74,1,2.08,2.08,0,0,1,.91,1.78,2.26,2.26,0,0,1-1,1.92,4.66,4.66,0,0,1-2.75.73,7,7,0,0,1-2.07-.29,5.38,5.38,0,0,1-1.62-.83v-1.92h.92l.16,1.35a2.7,2.7,0,0,0,1.16.62,5.76,5.76,0,0,0,1.45.18,3.3,3.3,0,0,0,1.95-.5,1.45,1.45,0,0,0,.71-1.21,1.53,1.53,0,0,0-.59-1.17,5.23,5.23,0,0,0-2.14-.82,7.59,7.59,0,0,1-2.72-1,2,2,0,0,1-.89-1.71,2.24,2.24,0,0,1,1-1.85,4.25,4.25,0,0,1,2.63-.75,6.4,6.4,0,0,1,2.06.32,4.37,4.37,0,0,1,1.52.87Z"/><path class="cls-3" d="M279.4,149.56l.14,1.58v.11a3.46,3.46,0,0,1,1.19-1.37,3.19,3.19,0,0,1,1.79-.5,3,3,0,0,1,.42,0l.34.07-.16,1-.84-.05a2.71,2.71,0,0,0-1.76.56,3,3,0,0,0-1,1.53v5.68l1.54.11v.78h-4.22v-.78l1.55-.11v-7.73l-1.55-.11v-.78h2.54Z"/><path class="cls-3" d="M289.09,159.25a4.27,4.27,0,0,1-3.2-1.31,4.62,4.62,0,0,1-1.28-3.35v-.48a4.74,4.74,0,0,1,1.27-3.38,4.06,4.06,0,0,1,3.06-1.35,4,4,0,0,1,3,1.11,4,4,0,0,1,1.09,2.95v.9h-7.26v.25a4,4,0,0,0,.93,2.69,3,3,0,0,0,2.42,1.08,5.35,5.35,0,0,0,1.81-.27,3.61,3.61,0,0,0,1.28-.78l.48.72a4,4,0,0,1-1.46.89A6,6,0,0,1,289.09,159.25Zm-.15-9a2.83,2.83,0,0,0-2.11.89,3.68,3.68,0,0,0-1,2.24l0,0h6v-.26a2.94,2.94,0,0,0-.79-2.08A2.83,2.83,0,0,0,288.94,150.28Z"/><path class="cls-3" d="M302.48,152.49h-.93l-.14-1.34a2.78,2.78,0,0,0-1.07-.64,4.34,4.34,0,0,0-1.5-.23,2.93,2.93,0,0,0-1.86.49,1.46,1.46,0,0,0-.62,1.17,1.33,1.33,0,0,0,.53,1.09,5.47,5.47,0,0,0,2.14.76,7.16,7.16,0,0,1,2.74,1,2.08,2.08,0,0,1,.92,1.78,2.26,2.26,0,0,1-1,1.92,4.68,4.68,0,0,1-2.75.73,7,7,0,0,1-2.07-.29,5.16,5.16,0,0,1-1.62-.83v-1.92h.92l.16,1.35a2.66,2.66,0,0,0,1.15.62,5.84,5.84,0,0,0,1.46.18,3.32,3.32,0,0,0,2-.5,1.45,1.45,0,0,0,.71-1.21,1.51,1.51,0,0,0-.6-1.17,5.11,5.11,0,0,0-2.14-.82,7.67,7.67,0,0,1-2.72-1,2,2,0,0,1-.88-1.71,2.25,2.25,0,0,1,1-1.85,4.27,4.27,0,0,1,2.63-.75,6.47,6.47,0,0,1,2.07.32,4.37,4.37,0,0,1,1.52.87Z"/><path class="cls-3" d="M307.37,147.12v2.44h2.25v.86h-2.25v6.2a1.93,1.93,0,0,0,.36,1.32,1.27,1.27,0,0,0,1,.39l.54,0,.6-.08.17.79a3.48,3.48,0,0,1-.69.17,5.55,5.55,0,0,1-.82.06,2.21,2.21,0,0,1-1.68-.63,2.83,2.83,0,0,1-.6-2v-6.2h-1.77v-.86h1.77v-2.44Z"/><path class="cls-3" d="M314.17,149.56l.14,1.58v.11a3.46,3.46,0,0,1,1.19-1.37,3.21,3.21,0,0,1,1.79-.5,3,3,0,0,1,.43,0l.33.07-.15,1-.84-.05a2.69,2.69,0,0,0-1.76.56,3.05,3.05,0,0,0-1,1.53v5.68l1.55.11v.78h-4.22v-.78l1.54-.11v-7.73l-1.54-.11v-.78h2.53Z"/><path class="cls-3" d="M319.45,158.29l1.54-.11v-7.73l-1.54-.11v-.78h2.67v8.62l1.55.11v.78h-4.22Zm2.67-11.46H321v-1.47h1.13Z"/><path class="cls-3" d="M330,158.36a3.42,3.42,0,0,0,2-.59,1.93,1.93,0,0,0,.86-1.66h1l0,0a2.53,2.53,0,0,1-1.14,2.2,4.4,4.4,0,0,1-2.75.89,4,4,0,0,1-3.23-1.33,5,5,0,0,1-1.15-3.42v-.37a5,5,0,0,1,1.15-3.41,4,4,0,0,1,3.22-1.34,5.54,5.54,0,0,1,2.18.42,4.19,4.19,0,0,1,1.6,1.12l0,2.07h-1l-.18-1.68a3.11,3.11,0,0,0-1.13-.75,4,4,0,0,0-1.55-.28,2.81,2.81,0,0,0-2.44,1.09,4.57,4.57,0,0,0-.79,2.76v.37a4.56,4.56,0,0,0,.79,2.77A2.8,2.8,0,0,0,330,158.36Zm.3.79-.11.56a2.27,2.27,0,0,1,1.21.43,1.25,1.25,0,0,1,.46,1.07,1.45,1.45,0,0,1-.75,1.28,4,4,0,0,1-2.14.48l-.07-.69a3.55,3.55,0,0,0,1.43-.26.85.85,0,0,0,.58-.79.73.73,0,0,0-.38-.7,4.1,4.1,0,0,0-1.38-.27l.27-1.11Z"/><path class="cls-3" d="M336,154.17a4.85,4.85,0,0,1,1.25-3.44,4.7,4.7,0,0,1,6.59,0,4.85,4.85,0,0,1,1.25,3.44v.29a4.9,4.9,0,0,1-1.24,3.45,4.73,4.73,0,0,1-6.6,0,4.86,4.86,0,0,1-1.25-3.45Zm1.14.29a4.32,4.32,0,0,0,.9,2.78,3,3,0,0,0,2.52,1.12,3,3,0,0,0,2.48-1.12,4.27,4.27,0,0,0,.91-2.78v-.29a4.32,4.32,0,0,0-.91-2.76,3.33,3.33,0,0,0-5,0,4.32,4.32,0,0,0-.9,2.76Zm6.68-8.56a1.72,1.72,0,0,1-.52,1.29,1.82,1.82,0,0,1-1.3.5,2.58,2.58,0,0,1-1.43-.48,2.41,2.41,0,0,0-1.25-.48,1,1,0,0,0-.75.31,1.06,1.06,0,0,0-.3.78l-.75-.16a1.74,1.74,0,0,1,1.8-1.78,2.76,2.76,0,0,1,1.4.48,2.69,2.69,0,0,0,1.28.48,1,1,0,0,0,.75-.31,1.1,1.1,0,0,0,.31-.8Z"/><path class="cls-3" d="M351.42,159.25a4.27,4.27,0,0,1-3.2-1.31,4.62,4.62,0,0,1-1.28-3.35v-.48a4.74,4.74,0,0,1,1.27-3.38,4.06,4.06,0,0,1,3.06-1.35,4,4,0,0,1,3,1.11,4,4,0,0,1,1.08,2.95v.9h-7.25v.25a4,4,0,0,0,.93,2.69,3,3,0,0,0,2.42,1.08,5.35,5.35,0,0,0,1.81-.27,3.61,3.61,0,0,0,1.28-.78l.48.72a4,4,0,0,1-1.46.89A6,6,0,0,1,351.42,159.25Zm-.15-9a2.83,2.83,0,0,0-2.11.89,3.68,3.68,0,0,0-1,2.24l0,0h6v-.26a2.94,2.94,0,0,0-.78-2.08A2.83,2.83,0,0,0,351.27,150.28Z"/><path class="cls-3" d="M364.81,152.49h-.93l-.14-1.34a2.78,2.78,0,0,0-1.07-.64,4.38,4.38,0,0,0-1.5-.23,2.93,2.93,0,0,0-1.86.49,1.47,1.47,0,0,0-.63,1.17,1.34,1.34,0,0,0,.54,1.09,5.47,5.47,0,0,0,2.14.76,7.16,7.16,0,0,1,2.74,1,2.08,2.08,0,0,1,.91,1.78,2.25,2.25,0,0,1-1,1.92,4.68,4.68,0,0,1-2.75.73,7.16,7.16,0,0,1-2.08-.29,5.38,5.38,0,0,1-1.62-.83v-1.92h.93l.16,1.35a2.66,2.66,0,0,0,1.15.62,5.78,5.78,0,0,0,1.46.18,3.26,3.26,0,0,0,1.94-.5,1.43,1.43,0,0,0,.71-1.21,1.5,1.5,0,0,0-.59-1.17,5.17,5.17,0,0,0-2.14-.82,7.59,7.59,0,0,1-2.72-1,2,2,0,0,1-.89-1.71,2.26,2.26,0,0,1,1-1.85,4.27,4.27,0,0,1,2.63-.75,6.4,6.4,0,0,1,2.06.32,4.33,4.33,0,0,1,1.53.87Z"/><path class="cls-3" d="M379,157.7a3.49,3.49,0,0,1-1.32,1.15,4.19,4.19,0,0,1-1.9.4,3.5,3.5,0,0,1-2.88-1.27,5.25,5.25,0,0,1-1-3.4v-.19a5.87,5.87,0,0,1,1-3.64,3.44,3.44,0,0,1,2.9-1.37,3.93,3.93,0,0,1,1.86.42,3.72,3.72,0,0,1,1.31,1.19v-4.74l-1.55-.11v-.78h2.69v12.82l1.55.11v.78H379Zm-6-3.12a4.59,4.59,0,0,0,.74,2.74,2.61,2.61,0,0,0,2.25,1,3.32,3.32,0,0,0,1.82-.46,3,3,0,0,0,1.15-1.26v-4.5a3.33,3.33,0,0,0-1.1-1.31,3.11,3.11,0,0,0-1.85-.51,2.54,2.54,0,0,0-2.26,1.14,5.25,5.25,0,0,0-.75,2.95Z"/><path class="cls-3" d="M383.35,154.17a4.89,4.89,0,0,1,1.24-3.44,4.71,4.71,0,0,1,6.6,0,4.84,4.84,0,0,1,1.24,3.44v.29a4.89,4.89,0,0,1-1.23,3.45,4.75,4.75,0,0,1-6.61,0,4.9,4.9,0,0,1-1.24-3.45Zm1.14.29a4.32,4.32,0,0,0,.9,2.78,3,3,0,0,0,2.52,1.12,3,3,0,0,0,2.48-1.12,4.32,4.32,0,0,0,.91-2.78v-.29a4.32,4.32,0,0,0-.91-2.76,3.33,3.33,0,0,0-5,0,4.32,4.32,0,0,0-.9,2.76Z"/><path class="cls-3" d="M398.71,150.34v-.78h2.49l.15,1.47a3.62,3.62,0,0,1,1.33-1.22,4.09,4.09,0,0,1,1.9-.43,3.45,3.45,0,0,1,2.9,1.37,5.87,5.87,0,0,1,1,3.64v.19a5.21,5.21,0,0,1-1,3.4,3.53,3.53,0,0,1-2.88,1.27,4.46,4.46,0,0,1-1.89-.38,3.54,3.54,0,0,1-1.33-1.09v4.05l1.55.11v.78h-4.22v-.78l1.54-.11V150.45Zm8.67,4a5.14,5.14,0,0,0-.78-2.95,2.56,2.56,0,0,0-2.27-1.14,3.23,3.23,0,0,0-1.87.5,3.16,3.16,0,0,0-1.08,1.32v4.57a3,3,0,0,0,1.13,1.23,3.46,3.46,0,0,0,1.84.44,2.65,2.65,0,0,0,2.26-1,4.53,4.53,0,0,0,.77-2.75Z"/><path class="cls-3" d="M412.83,149.56l.14,1.58v.11a3.46,3.46,0,0,1,1.19-1.37,3.21,3.21,0,0,1,1.79-.5,3,3,0,0,1,.43,0l.33.07-.15,1-.84-.05A2.69,2.69,0,0,0,414,151a3.05,3.05,0,0,0-1,1.53v5.68l1.55.11v.78H410.3v-.78l1.54-.11v-7.73l-1.54-.11v-.78h2.53Z"/><path class="cls-3" d="M418,154.17a4.85,4.85,0,0,1,1.25-3.44,4.7,4.7,0,0,1,6.59,0,4.85,4.85,0,0,1,1.25,3.44v.29a4.9,4.9,0,0,1-1.24,3.45,4.73,4.73,0,0,1-6.6,0,4.86,4.86,0,0,1-1.25-3.45Zm1.14.29a4.32,4.32,0,0,0,.9,2.78,3.05,3.05,0,0,0,2.52,1.12,3,3,0,0,0,2.49-1.12,4.32,4.32,0,0,0,.9-2.78v-.29a4.27,4.27,0,0,0-.91-2.76,3.33,3.33,0,0,0-5,0,4.32,4.32,0,0,0-.9,2.76Z"/><path class="cls-3" d="M437.75,154.58a5.15,5.15,0,0,1-1,3.4,3.5,3.5,0,0,1-2.88,1.27,4.31,4.31,0,0,1-1.94-.41,3.39,3.39,0,0,1-1.32-1.2l-.12,1.43h-1V146.25l-1.55-.11v-.78h2.68v5.69a3.59,3.59,0,0,1,1.31-1.23,3.89,3.89,0,0,1,1.9-.44,3.43,3.43,0,0,1,2.89,1.37,5.81,5.81,0,0,1,1,3.64Zm-1.14-.19a5.25,5.25,0,0,0-.76-2.95,2.53,2.53,0,0,0-2.24-1.14,3.12,3.12,0,0,0-1.92.54,3.18,3.18,0,0,0-1.08,1.4v4.3a3.06,3.06,0,0,0,1.13,1.31,3.38,3.38,0,0,0,1.89.49,2.6,2.6,0,0,0,2.23-1,4.52,4.52,0,0,0,.75-2.74Z"/><path class="cls-3" d="M439.36,146.14v-.78H442v12.82l1.54.11v.78h-4.22v-.78l1.55-.11V146.25Z"/><path class="cls-3" d="M449.9,159.25a4.27,4.27,0,0,1-3.2-1.31,4.62,4.62,0,0,1-1.28-3.35v-.48a4.74,4.74,0,0,1,1.27-3.38,4.06,4.06,0,0,1,3.06-1.35,4,4,0,0,1,3,1.11,4.05,4.05,0,0,1,1.09,2.95v.9h-7.26v.25a4,4,0,0,0,.93,2.69,3,3,0,0,0,2.42,1.08,5.35,5.35,0,0,0,1.81-.27,3.61,3.61,0,0,0,1.28-.78l.48.72a4,4,0,0,1-1.46.89A6,6,0,0,1,449.9,159.25Zm-.15-9a2.83,2.83,0,0,0-2.11.89,3.68,3.68,0,0,0-1,2.24l0,0h6v-.26a2.94,2.94,0,0,0-.79-2.08A2.83,2.83,0,0,0,449.75,150.28Z"/><path class="cls-3" d="M455.59,150.34v-.78h2.55l.11,1.57a3.41,3.41,0,0,1,1.32-1.29,3.92,3.92,0,0,1,2-.46,3.51,3.51,0,0,1,2,.53,3,3,0,0,1,1.13,1.63A3.74,3.74,0,0,1,466,150a3.62,3.62,0,0,1,2.09-.58,3.23,3.23,0,0,1,2.54,1,4.62,4.62,0,0,1,.9,3.13v4.65l1.54.12v.78h-4.24v-.78l1.55-.12V153.5a3.63,3.63,0,0,0-.67-2.48,2.43,2.43,0,0,0-1.86-.72,2.65,2.65,0,0,0-2.05.78,3.65,3.65,0,0,0-.89,2,.66.66,0,0,0,0,.14v5l1.55.11v.78h-4.23v-.78l1.54-.11V153.5a3.57,3.57,0,0,0-.68-2.46,2.37,2.37,0,0,0-1.86-.74,2.74,2.74,0,0,0-2.91,2.09v5.79l1.54.11v.78h-4.23v-.78l1.55-.11v-7.73Z"/><path class="cls-3" d="M481.52,159.07a7.1,7.1,0,0,1-.16-.84,5.52,5.52,0,0,1-.05-.71,4.38,4.38,0,0,1-1.52,1.24,4.52,4.52,0,0,1-2.13.49,3.45,3.45,0,0,1-2.34-.72,2.45,2.45,0,0,1-.82-1.95,2.35,2.35,0,0,1,1.22-2.09,6.14,6.14,0,0,1,3.32-.77h2.27v-1.26a1.94,1.94,0,0,0-.71-1.6,3,3,0,0,0-2-.58,5.52,5.52,0,0,0-1.57.21,3.73,3.73,0,0,0-1.18.59l-.09,1.27h-.94v-1.83a6.25,6.25,0,0,1,1.7-.82,7,7,0,0,1,2.11-.32,4.37,4.37,0,0,1,2.74.8,2.74,2.74,0,0,1,1,2.3v4.67c0,.2,0,.38,0,.56a3,3,0,0,0,.07.52l1,.06v.78Zm-3.74-.75a4.26,4.26,0,0,0,2.17-.53,3.18,3.18,0,0,0,1.36-1.36v-1.91H479a4.49,4.49,0,0,0-2.47.6,1.72,1.72,0,0,0-.92,1.5,1.51,1.51,0,0,0,.57,1.23A2.44,2.44,0,0,0,477.78,158.32Z"/><path class="cls-3" d="M497.33,152.49h-.93l-.13-1.34a2.9,2.9,0,0,0-1.08-.64,4.28,4.28,0,0,0-1.49-.23,3,3,0,0,0-1.87.49,1.49,1.49,0,0,0-.62,1.17,1.34,1.34,0,0,0,.54,1.09,5.4,5.4,0,0,0,2.14.76,7.23,7.23,0,0,1,2.74,1,2.08,2.08,0,0,1,.91,1.78,2.26,2.26,0,0,1-1,1.92,4.66,4.66,0,0,1-2.75.73,7,7,0,0,1-2.07-.29,5.38,5.38,0,0,1-1.62-.83v-1.92H491l.16,1.35a2.7,2.7,0,0,0,1.16.62,5.76,5.76,0,0,0,1.45.18,3.27,3.27,0,0,0,1.95-.5,1.45,1.45,0,0,0,.71-1.21,1.53,1.53,0,0,0-.59-1.17,5.23,5.23,0,0,0-2.14-.82,7.59,7.59,0,0,1-2.72-1,2,2,0,0,1-.89-1.71,2.24,2.24,0,0,1,1-1.85,4.25,4.25,0,0,1,2.63-.75,6.4,6.4,0,0,1,2.06.32,4.37,4.37,0,0,1,1.52.87Z"/><path class="cls-3" d="M504.14,159.25a4.3,4.3,0,0,1-3.21-1.31,4.61,4.61,0,0,1-1.27-3.35v-.48a4.73,4.73,0,0,1,1.26-3.38,4.06,4.06,0,0,1,3.06-1.35,4,4,0,0,1,3,1.11,4,4,0,0,1,1.08,2.95v.9h-7.25v.25a4,4,0,0,0,.92,2.69,3.05,3.05,0,0,0,2.43,1.08,5.33,5.33,0,0,0,1.8-.27,3.53,3.53,0,0,0,1.28-.78l.49.72a4.13,4.13,0,0,1-1.47.89A6,6,0,0,1,504.14,159.25Zm-.16-9a2.85,2.85,0,0,0-2.11.89,3.74,3.74,0,0,0-1,2.24l0,0h6v-.26a2.9,2.9,0,0,0-.79-2.08A2.82,2.82,0,0,0,504,150.28Z"/><path class="cls-3" d="M513,159.85a3.12,3.12,0,0,1-.76,2.26,2.77,2.77,0,0,1-2.11.8,3.12,3.12,0,0,1-.55,0,3.52,3.52,0,0,1-.52-.12l.13-.89.4.09a2.9,2.9,0,0,0,.47.05,1.66,1.66,0,0,0,1.33-.55,2.31,2.31,0,0,0,.47-1.59v-9.4l-1.54-.11v-.78H513Zm-.05-13h-1.14v-1.44h1.14Z"/><path class="cls-3" d="M522.49,159.07c-.07-.32-.13-.6-.16-.84a5.52,5.52,0,0,1-.05-.71,4.44,4.44,0,0,1-1.51,1.24,4.59,4.59,0,0,1-2.14.49,3.47,3.47,0,0,1-2.34-.72,2.45,2.45,0,0,1-.82-1.95,2.37,2.37,0,0,1,1.22-2.09,6.17,6.17,0,0,1,3.33-.77h2.26v-1.26a2,2,0,0,0-.7-1.6,3,3,0,0,0-2-.58,5.45,5.45,0,0,0-1.56.21,3.52,3.52,0,0,0-1.18.59l-.1,1.27h-.94v-1.83a6.25,6.25,0,0,1,1.7-.82,7,7,0,0,1,2.12-.32,4.36,4.36,0,0,1,2.73.8,2.74,2.74,0,0,1,1,2.3v4.67c0,.2,0,.38,0,.56a4.35,4.35,0,0,0,.06.52l1,.06v.78Zm-3.74-.75a4.29,4.29,0,0,0,2.18-.53,3.16,3.16,0,0,0,1.35-1.36v-1.91H520a4.53,4.53,0,0,0-2.48.6,1.74,1.74,0,0,0-.92,1.5,1.51,1.51,0,0,0,.57,1.23A2.46,2.46,0,0,0,518.75,158.32Z"/><path class="cls-3" d="M525.88,150.34v-.78h2.55l.11,1.57a3.41,3.41,0,0,1,1.32-1.29,3.92,3.92,0,0,1,2-.46,3.49,3.49,0,0,1,2,.53,3,3,0,0,1,1.13,1.63,3.74,3.74,0,0,1,1.32-1.58,3.62,3.62,0,0,1,2.09-.58,3.23,3.23,0,0,1,2.54,1,4.62,4.62,0,0,1,.9,3.13v4.65l1.55.12v.78h-4.25v-.78l1.55-.12V153.5A3.63,3.63,0,0,0,540,151a2.41,2.41,0,0,0-1.86-.72,2.65,2.65,0,0,0-2.05.78,3.65,3.65,0,0,0-.89,2,.66.66,0,0,0,0,.14v5l1.55.11v.78h-4.23v-.78l1.54-.11V153.5a3.62,3.62,0,0,0-.67-2.46,2.4,2.4,0,0,0-1.87-.74,2.74,2.74,0,0,0-2.91,2.09v5.79l1.54.11v.78h-4.23v-.78l1.55-.11v-7.73Z"/><path class="cls-3" d="M551.91,149.56l.14,1.58v.11a3.46,3.46,0,0,1,1.19-1.37,3.19,3.19,0,0,1,1.79-.5l.42,0,.34.07-.15,1-.85-.05A2.73,2.73,0,0,0,553,151a3,3,0,0,0-1,1.53v5.68l1.55.11v.78h-4.23v-.78l1.55-.11v-7.73l-1.55-.11v-.78h2.54Z"/><path class="cls-3" d="M561.61,159.25a4.29,4.29,0,0,1-3.21-1.31,4.61,4.61,0,0,1-1.27-3.35v-.48a4.73,4.73,0,0,1,1.26-3.38,4.06,4.06,0,0,1,3.06-1.35,4,4,0,0,1,3,1.11,4,4,0,0,1,1.09,2.95v.9h-7.25v.25a4,4,0,0,0,.92,2.69,3.05,3.05,0,0,0,2.43,1.08,5.33,5.33,0,0,0,1.8-.27,3.53,3.53,0,0,0,1.28-.78l.48.72a4,4,0,0,1-1.46.89A6,6,0,0,1,561.61,159.25Zm-.16-9a2.83,2.83,0,0,0-2.11.89,3.74,3.74,0,0,0-1,2.24l0,0h6v-.26a2.94,2.94,0,0,0-.79-2.08A2.83,2.83,0,0,0,561.45,150.28Z"/><path class="cls-3" d="M575,152.49h-.93l-.13-1.34a2.9,2.9,0,0,0-1.08-.64,4.34,4.34,0,0,0-1.5-.23,2.93,2.93,0,0,0-1.86.49,1.46,1.46,0,0,0-.62,1.17,1.33,1.33,0,0,0,.53,1.09,5.47,5.47,0,0,0,2.14.76,7.29,7.29,0,0,1,2.75,1,2.1,2.1,0,0,1,.91,1.78,2.26,2.26,0,0,1-1,1.92,4.68,4.68,0,0,1-2.75.73,7,7,0,0,1-2.07-.29,5.16,5.16,0,0,1-1.62-.83v-1.92h.92l.16,1.35a2.66,2.66,0,0,0,1.15.62,5.84,5.84,0,0,0,1.46.18,3.32,3.32,0,0,0,2-.5,1.45,1.45,0,0,0,.71-1.21,1.51,1.51,0,0,0-.6-1.17,5.17,5.17,0,0,0-2.14-.82,7.67,7.67,0,0,1-2.72-1,2,2,0,0,1-.88-1.71,2.25,2.25,0,0,1,1-1.85,4.27,4.27,0,0,1,2.63-.75,6.47,6.47,0,0,1,2.07.32,4.37,4.37,0,0,1,1.52.87Z"/><path class="cls-3" d="M577,150.34v-.78h2.5l.14,1.47a3.7,3.7,0,0,1,1.33-1.22,4.14,4.14,0,0,1,1.91-.43,3.43,3.43,0,0,1,2.89,1.37,5.81,5.81,0,0,1,1,3.64v.19a5.16,5.16,0,0,1-1,3.4,3.49,3.49,0,0,1-2.87,1.27,4.5,4.5,0,0,1-1.9-.38,3.43,3.43,0,0,1-1.32-1.09v4.05l1.55.11v.78H577v-.78l1.55-.11V150.45Zm8.68,4a5.14,5.14,0,0,0-.78-2.95,2.59,2.59,0,0,0-2.28-1.14,3,3,0,0,0-2.94,1.82v4.57a3,3,0,0,0,1.12,1.23,3.48,3.48,0,0,0,1.84.44,2.64,2.64,0,0,0,2.26-1,4.46,4.46,0,0,0,.78-2.75Z"/><path class="cls-3" d="M593.15,159.25a4.27,4.27,0,0,1-3.2-1.31,4.62,4.62,0,0,1-1.28-3.35v-.48a4.74,4.74,0,0,1,1.27-3.38,4.06,4.06,0,0,1,3.06-1.35,4,4,0,0,1,3,1.11,4.05,4.05,0,0,1,1.09,2.95v.9H589.8v.25a4,4,0,0,0,.93,2.69,3,3,0,0,0,2.42,1.08,5.35,5.35,0,0,0,1.81-.27,3.61,3.61,0,0,0,1.28-.78l.48.72a4,4,0,0,1-1.46.89A6,6,0,0,1,593.15,159.25Zm-.15-9a2.83,2.83,0,0,0-2.11.89,3.68,3.68,0,0,0-1,2.24l0,0h6v-.26a2.94,2.94,0,0,0-.79-2.08A2.83,2.83,0,0,0,593,150.28Z"/><path class="cls-3" d="M599,158.29l1.55-.11v-7.73l-1.55-.11v-.78h2.68v8.62l1.54.11v.78H599Zm2.68-11.46h-1.13v-1.47h1.13Z"/><path class="cls-3" d="M607.75,147.12v2.44H610v.86h-2.26v6.2a1.88,1.88,0,0,0,.37,1.32,1.27,1.27,0,0,0,1,.39l.54,0,.6-.08.17.79a3.48,3.48,0,0,1-.69.17,5.66,5.66,0,0,1-.82.06,2.21,2.21,0,0,1-1.68-.63,2.78,2.78,0,0,1-.61-2v-6.2h-1.76v-.86h1.76v-2.44Z"/><path class="cls-3" d="M619.19,159.07a7.1,7.1,0,0,1-.16-.84,5.52,5.52,0,0,1,0-.71,4.57,4.57,0,0,1-3.65,1.73,3.45,3.45,0,0,1-2.34-.72,2.45,2.45,0,0,1-.82-1.95,2.35,2.35,0,0,1,1.22-2.09,6.14,6.14,0,0,1,3.32-.77H619v-1.26a2,2,0,0,0-.71-1.6,3,3,0,0,0-2-.58,5.45,5.45,0,0,0-1.56.21,3.73,3.73,0,0,0-1.18.59l-.09,1.27h-.94v-1.83a6.25,6.25,0,0,1,1.7-.82,7,7,0,0,1,2.11-.32,4.34,4.34,0,0,1,2.73.8,2.75,2.75,0,0,1,1,2.3v4.67c0,.2,0,.38,0,.56a3,3,0,0,0,.07.52l1,.06v.78Zm-3.74-.75a4.26,4.26,0,0,0,2.17-.53,3.18,3.18,0,0,0,1.36-1.36v-1.91h-2.29a4.49,4.49,0,0,0-2.47.6,1.73,1.73,0,0,0-.93,1.5,1.52,1.52,0,0,0,.58,1.23A2.44,2.44,0,0,0,615.45,158.32Z"/><path class="cls-3" d="M630,157.7a3.49,3.49,0,0,1-1.32,1.15,4.19,4.19,0,0,1-1.9.4,3.53,3.53,0,0,1-2.88-1.27,5.25,5.25,0,0,1-1-3.4v-.19a5.87,5.87,0,0,1,1-3.64,3.45,3.45,0,0,1,2.9-1.37,3.87,3.87,0,0,1,1.86.42,3.64,3.64,0,0,1,1.31,1.19v-4.74l-1.54-.11v-.78h2.68v12.82l1.55.11v.78h-2.56Zm-6-3.12a4.52,4.52,0,0,0,.75,2.74,2.58,2.58,0,0,0,2.24,1,3.36,3.36,0,0,0,1.83-.46,3,3,0,0,0,1.14-1.26v-4.5a3.39,3.39,0,0,0-1.09-1.31,3.15,3.15,0,0,0-1.86-.51,2.51,2.51,0,0,0-2.25,1.14,5.17,5.17,0,0,0-.76,2.95Z"/><path class="cls-3" d="M641.45,159.07c-.07-.32-.13-.6-.16-.84a5.53,5.53,0,0,1,0-.71,4.48,4.48,0,0,1-1.52,1.24,4.59,4.59,0,0,1-2.14.49,3.44,3.44,0,0,1-2.33-.72,2.46,2.46,0,0,1-.83-1.95,2.36,2.36,0,0,1,1.23-2.09,6.11,6.11,0,0,1,3.32-.77h2.27v-1.26a2,2,0,0,0-.71-1.6,3,3,0,0,0-2-.58,5.45,5.45,0,0,0-1.56.21,3.62,3.62,0,0,0-1.18.59l-.1,1.27h-.94v-1.83a6.32,6.32,0,0,1,1.71-.82,6.9,6.9,0,0,1,2.11-.32,4.36,4.36,0,0,1,2.73.8,2.75,2.75,0,0,1,1,2.3v4.67c0,.2,0,.38,0,.56a4.35,4.35,0,0,0,.06.52l1,.06v.78Zm-3.73-.75a4.28,4.28,0,0,0,2.17-.53,3.18,3.18,0,0,0,1.36-1.36v-1.91H639a4.47,4.47,0,0,0-2.47.6,1.73,1.73,0,0,0-.93,1.5,1.51,1.51,0,0,0,.57,1.23A2.47,2.47,0,0,0,637.72,158.32Z"/><path class="cls-3" d="M652.54,152.49h-.93l-.13-1.34a2.9,2.9,0,0,0-1.08-.64,4.3,4.3,0,0,0-1.5-.23,3,3,0,0,0-1.86.49,1.49,1.49,0,0,0-.62,1.17A1.36,1.36,0,0,0,647,153a5.47,5.47,0,0,0,2.14.76,7.22,7.22,0,0,1,2.75,1,2.1,2.1,0,0,1,.91,1.78,2.26,2.26,0,0,1-1,1.92,4.66,4.66,0,0,1-2.75.73,7,7,0,0,1-2.07-.29,5.27,5.27,0,0,1-1.62-.83v-1.92h.92l.16,1.35a2.66,2.66,0,0,0,1.15.62,5.9,5.9,0,0,0,1.46.18,3.32,3.32,0,0,0,1.95-.5,1.45,1.45,0,0,0,.71-1.21,1.53,1.53,0,0,0-.59-1.17,5.23,5.23,0,0,0-2.14-.82,7.52,7.52,0,0,1-2.72-1,2,2,0,0,1-.89-1.71,2.24,2.24,0,0,1,1-1.85,4.24,4.24,0,0,1,2.62-.75,6.42,6.42,0,0,1,2.07.32,4.37,4.37,0,0,1,1.52.87Z"/><path class="cls-3" d="M656.57,159.07h-1.3v-1.44h1.3Z"/><circle class="cls-4" cx="91" cy="131.39" r="88"/><path class="cls-3" d="M91,46.39a85,85,0,1,1-85,85,85,85,0,0,1,85-85m0-6a91,91,0,1,0,91,91,91.11,91.11,0,0,0-91-91Z"/><path class="cls-2" d="M90.78,46.55a84.78,84.78,0,1,0,84.77,84.77A84.77,84.77,0,0,0,90.78,46.55Zm0,163.9a79.13,79.13,0,1,1,79.12-79.13A79.13,79.13,0,0,1,90.78,210.45Z"/><path class="cls-2" d="M130.79,69.74a2.86,2.86,0,0,0-2.13-.4,2.9,2.9,0,0,0-1.79,1.22l-4.62,7.11a2.82,2.82,0,0,0,.9,4,38.71,38.71,0,0,1,3.17,2.25c.63.49,1.27,1,1.77,1.33.88.72,1.72,1.48,2.56,2.25l-2,2a56.11,56.11,0,0,0-12.39-8.48l5.78-13a2.79,2.79,0,0,0,.06-2.16,2.83,2.83,0,0,0-1.49-1.57,73.88,73.88,0,0,0-26-6.2,2.82,2.82,0,0,0-3,2.67l-.44,8.47a2.83,2.83,0,0,0,2.67,3l3,.15,3.17.48,1.22.19c.61.09,1.22.17,1.76.3l.39.09-.74,2.77a57.91,57.91,0,0,0-15-1.21L86.21,60.77a2.83,2.83,0,0,0-3.1-2.52A72.94,72.94,0,0,0,57.43,65.9a2.83,2.83,0,0,0-1.23,3.8l3.86,7.55a2.81,2.81,0,0,0,3.7,1.28c.57-.26,1.13-.54,1.69-.81a30.55,30.55,0,0,1,4-1.74l.73-.27c.85-.31,1.67-.62,2.49-.89l.73,2.73c-.7.24-1.37.49-2,.74l-.67.25a26.27,26.27,0,0,0-4,1.71l-1.7.82-4.79,2.76L59.9,84,51.57,72.56a2.83,2.83,0,0,0-1.85-1.13,2.77,2.77,0,0,0-2.1.51A73.38,73.38,0,0,0,29.19,91.31,2.83,2.83,0,0,0,30,95.23l7.11,4.62a2.8,2.8,0,0,0,2.16.39A2.84,2.84,0,0,0,41.08,99a36.28,36.28,0,0,1,2.25-3.16c.49-.64,1-1.28,1.33-1.78.72-.87,1.48-1.72,2.25-2.56l2,2a56.15,56.15,0,0,0-8.49,12.39l-13-5.78a2.83,2.83,0,0,0-3.74,1.43,74.15,74.15,0,0,0-6.2,26,2.83,2.83,0,0,0,2.68,3l8.47.43a2.79,2.79,0,0,0,3-2.66l.15-3,.48-3.17c.08-.4.13-.81.19-1.22.09-.62.18-1.23.3-1.76l.1-.39,2.77.74a57.48,57.48,0,0,0-1.22,15l-14.14,1.47a2.85,2.85,0,0,0-1.9,1,2.82,2.82,0,0,0-.61,2.07,73.63,73.63,0,0,0,7.65,25.68,2.8,2.8,0,0,0,1.64,1.4,2.85,2.85,0,0,0,2.16-.17l7.55-3.85A2.83,2.83,0,0,0,38,158.34c-.26-.56-.53-1.11-.8-1.67a29.75,29.75,0,0,1-1.75-4.06l-.27-.75c-.32-.84-.62-1.66-.89-2.47l2.77-.74a55.69,55.69,0,0,0,6.45,13.53L32,170.53a2.82,2.82,0,0,0-.62,3.95,73.58,73.58,0,0,0,19.38,18.43,2.81,2.81,0,0,0,3.91-.83L59.3,185a2.83,2.83,0,0,0-.89-4,35.65,35.65,0,0,1-3.17-2.26c-.64-.49-1.28-1-1.77-1.32-.88-.72-1.72-1.48-2.56-2.25l2-2c.75.69,1.53,1.39,2.47,2.16.55.39,1.09.8,1.62,1.21a34.36,34.36,0,0,0,3.15,2.22l5.05,2.89.06,0-5.79,13a2.86,2.86,0,0,0-.06,2.17,2.82,2.82,0,0,0,1.49,1.56,73.94,73.94,0,0,0,26,6.21h.15a2.83,2.83,0,0,0,2.82-2.68l.44-8.46a2.82,2.82,0,0,0-2.67-3l-3-.15-3.17-.49-1.22-.18c-.62-.09-1.23-.18-1.76-.3l-.39-.1.74-2.77a57.85,57.85,0,0,0,15,1.22l1.46,14.13a2.81,2.81,0,0,0,3.11,2.52,72.8,72.8,0,0,0,25.68-7.65,2.82,2.82,0,0,0,1.23-3.8l-3.86-7.55a2.83,2.83,0,0,0-3.7-1.28l-1.7.82a28.22,28.22,0,0,1-4,1.73l-.72.27c-.85.32-1.67.62-2.49.9l-.74-2.77a56.17,56.17,0,0,0,13.52-6.45L130,190.09a2.82,2.82,0,0,0,3.94.62,73.41,73.41,0,0,0,18.43-19.38,2.81,2.81,0,0,0,.4-2.13,2.84,2.84,0,0,0-1.22-1.78l-7.11-4.63a2.85,2.85,0,0,0-4,.9,35,35,0,0,1-2.25,3.17c-.49.64-1,1.28-1.32,1.78-.73.87-1.49,1.71-2.26,2.55l-1.95-1.95a56.11,56.11,0,0,0,8.48-12.39l13,5.78a2.84,2.84,0,0,0,3.73-1.43,73.72,73.72,0,0,0,6.2-26,2.83,2.83,0,0,0-2.68-3l-8.46-.44a2.85,2.85,0,0,0-3,2.67l-.15,3-.48,3.16c-.07.41-.13.82-.19,1.23-.09.61-.17,1.22-.29,1.75l-.1.39-2.73-.72,0-.07c.15-.66.25-1.33.34-2,.05-.32.09-.63.15-1l.43-2.78a2.54,2.54,0,0,0,0-.29l.14-3v-5.91l14.2-1.47a2.85,2.85,0,0,0,1.9-1,2.88,2.88,0,0,0,.62-2.08A73.86,73.86,0,0,0,156.2,98a2.83,2.83,0,0,0-3.8-1.23l-7.55,3.85a2.82,2.82,0,0,0-1.28,3.71c.26.56.53,1.11.8,1.67a28.07,28.07,0,0,1,1.75,4.06l.27.74c.32.85.62,1.66.89,2.47l-2.77.74a55.8,55.8,0,0,0-6.45-13.52l11.48-8.36a2.81,2.81,0,0,0,1.13-1.84,2.76,2.76,0,0,0-.51-2.1A73.38,73.38,0,0,0,130.79,69.74Zm1.72,27.78a2.84,2.84,0,0,0-.63,4,50.31,50.31,0,0,1,8,16.69,2.84,2.84,0,0,0,3.46,2L151.5,118a2.83,2.83,0,0,0,2-3.32,40.85,40.85,0,0,0-1.85-5.84l-.22-.61a29.72,29.72,0,0,0-1.59-3.83l2.52-1.29a68,68,0,0,1,5.47,18.35l-14,1.45a2.82,2.82,0,0,0-2.53,3l.14,2.74V134l-.14,2.66-.41,2.6c-.06.37-.11.74-.17,1.11a13.19,13.19,0,0,1-.23,1.42l-.7,2.72a2.82,2.82,0,0,0,2,3.44l8.19,2.19a2.83,2.83,0,0,0,3.47-2l.83-3.23c.17-.75.29-1.52.4-2.28,0-.37.1-.73.17-1.13l.52-3.5,0-.43,2.77.14a68.19,68.19,0,0,1-4.42,18.61L141,150.56a2.84,2.84,0,0,0-2.16-.05,2.8,2.8,0,0,0-1.57,1.49,50.66,50.66,0,0,1-10.48,15.29,2.84,2.84,0,0,0,0,4l6,6a2.76,2.76,0,0,0,2.08.83,2.83,2.83,0,0,0,2-1l1.53-1.68c1-1.07,2-2.13,3-3.4.43-.61.88-1.2,1.33-1.79.32-.41.64-.83.95-1.25l2.37,1.54a67.58,67.58,0,0,1-13.17,13.85l-8.28-11.38a2.82,2.82,0,0,0-4-.62,50.41,50.41,0,0,1-16.69,8,2.78,2.78,0,0,0-1.72,1.31,2.83,2.83,0,0,0-.29,2.15l2.2,8.19a2.82,2.82,0,0,0,3.32,2,41.93,41.93,0,0,0,5.86-1.85l.58-.22a27.29,27.29,0,0,0,3.83-1.58L119,193a68.82,68.82,0,0,1-18.35,5.47l-1.45-14a2.78,2.78,0,0,0-3.08-2.52,52,52,0,0,1-18.51-1.51,2.86,2.86,0,0,0-2.14.28,2.82,2.82,0,0,0-1.32,1.72L72,190.59a2.82,2.82,0,0,0,2,3.47l3.21.82c.76.18,1.53.29,2.3.4l1.12.17,3.49.52.44,0-.15,2.77a68.5,68.5,0,0,1-18.6-4.43l5.73-12.84a2.83,2.83,0,0,0-1.36-3.7l-2.34-1.12L63,173.91a27.21,27.21,0,0,1-2.57-1.83c-.61-.46-1.2-.92-1.64-1.22-.82-.67-1.6-1.39-2.38-2.11-.58-.53-1.16-1.06-1.76-1.59a2.84,2.84,0,0,0-3.86.13l-6,6a2.82,2.82,0,0,0,.12,4.11c.55.49,1.11,1,1.66,1.51,1.07,1,2.15,2,3.42,3,.61.43,1.2.88,1.78,1.33l1.26,1-1.54,2.37a67.58,67.58,0,0,1-13.85-13.17l11.38-8.28a2.82,2.82,0,0,0,.62-3.95,50.56,50.56,0,0,1-8-16.7,2.83,2.83,0,0,0-3.45-2l-8.2,2.19A2.84,2.84,0,0,0,28,148a42.41,42.41,0,0,0,1.84,5.83l.23.61a29.67,29.67,0,0,0,1.58,3.83l-2.51,1.29a68.48,68.48,0,0,1-5.48-18.35l14-1.45a2.82,2.82,0,0,0,2.52-3.09,52,52,0,0,1,1.51-18.5,2.79,2.79,0,0,0-.28-2.15,2.86,2.86,0,0,0-1.72-1.32l-8.19-2.18a2.79,2.79,0,0,0-2.15.29A2.84,2.84,0,0,0,28,114.54l-.82,3.23c-.18.75-.29,1.51-.4,2.28-.05.36-.1.72-.17,1.13l-.52,3.49,0,.43L23.33,125a68.77,68.77,0,0,1,4.42-18.6l12.85,5.72a2.82,2.82,0,0,0,2.17.06,2.87,2.87,0,0,0,1.57-1.49,50.68,50.68,0,0,1,10.47-15.3,2.82,2.82,0,0,0,0-4l-6-6a2.84,2.84,0,0,0-4.11.12c-.5.57-1,1.13-1.53,1.69-1,1.06-2,2.13-3,3.4-.43.61-.89,1.2-1.34,1.79l-1,1.25-2.37-1.54A67.89,67.89,0,0,1,48.69,78.21L57,89.59a2.82,2.82,0,0,0,4,.62l.65-.49a9.24,9.24,0,0,1,1.39-1l4.62-2.68q.82-.37,1.62-.78a22.39,22.39,0,0,1,3.31-1.41l.85-.31a27.78,27.78,0,0,1,4.09-1.3,2.83,2.83,0,0,0,2.16-3.5L77.43,70.6a2.82,2.82,0,0,0-3.32-2,41.11,41.11,0,0,0-5.86,1.85l-.59.22a28.32,28.32,0,0,0-3.83,1.58L62.54,69.7a68.82,68.82,0,0,1,18.35-5.47l1.45,14a2.79,2.79,0,0,0,3.08,2.52,52,52,0,0,1,18.51,1.51,2.81,2.81,0,0,0,3.46-2l2.19-8.19a2.83,2.83,0,0,0-2-3.47l-3.22-.82c-.76-.18-1.52-.29-2.29-.4l-1.13-.18-3.49-.52-.44,0,.15-2.77a68,68,0,0,1,18.6,4.42L110,81.15a2.8,2.8,0,0,0,1.44,3.73,51,51,0,0,1,15.29,10.48,2.82,2.82,0,0,0,4,0l6-6a2.79,2.79,0,0,0,.82-2.08,2.82,2.82,0,0,0-.94-2c-.56-.49-1.11-1-1.66-1.51-1.08-1-2.15-2-3.43-3-.6-.43-1.19-.89-1.78-1.34l-1.26-1L130,76.07a68.1,68.1,0,0,1,13.85,13.17Z"/><path class="cls-2" d="M90.78,86.11a45.12,45.12,0,0,0-39,68,2.75,2.75,0,0,0,.17.29,45.43,45.43,0,0,0,11.53,12.9c.07.05.11.12.19.17l.06,0a44.88,44.88,0,0,0,54.06,0s0,0,.07,0,.13-.12.2-.17a45.4,45.4,0,0,0,11.52-12.9,1.75,1.75,0,0,0,.18-.29,45.13,45.13,0,0,0-39-68Zm-5.1,6L54.32,146.68A39.52,39.52,0,0,1,85.68,92.13ZM68.81,164.21l22-38.19,22,38.19a39.48,39.48,0,0,1-43.93,0Zm48.41-3.55L94.45,121.08a4.24,4.24,0,0,0-7.35,0L64.33,160.66a39.8,39.8,0,0,1-6.88-8.1l33.33-58,6.46,11.21c0,.08.08.17.13.25l26.73,46.5a39.49,39.49,0,0,1-6.88,8.1Zm10-14L102.4,103.47a2.1,2.1,0,0,0-.13-.26L95.88,92.13a39.53,39.53,0,0,1,31.36,54.55Z"/><g class="cls-5"><path class="cls-6" d="M79.77,71.82l3.84,14.75s.6,3.63-.71,4.94-7.47,8.28-7.47,8.28L72,106.56l19.9,11.31,23.73-6.36-.71-16.66s-12.15-.78-19.24-6.1c-1.39-1-2.57-13.19-2.57-13.19Z"/><path class="cls-7" d="M93.75,80.92c-.37-2.72-.68-5.46-.68-5.46L79.74,71.72l1.07,4.11s4.17,2.72,5.47,3.29A25.37,25.37,0,0,0,93.75,80.92Z"/><path class="cls-6" d="M68.71,103.61S59.2,109,58.33,109.86s-7.67,7-7.67,7L50.4,138.9l-8.83-21-7.67,3.4L44.82,154l6,9.31L55.37,165l6.69-30.9,9.63,6,11.81-8.63L75,110.4l-3.63-8Z"/><path class="cls-6" d="M33.57,121.17a10.41,10.41,0,0,1-4.53-3.8,37.79,37.79,0,0,1-4.75.24.7.7,0,0,1-.43-.09.81.81,0,0,1-.25-.53,46.64,46.64,0,0,0-2.45-8.6,1.44,1.44,0,0,1-.14-.76c.1-.46.64-.67,1.11-.72a2.76,2.76,0,0,0,1.38-.27c.52-.36.68-1.16,1.28-1.36s1,.17,1.49,0,.6-.82.93-1.23a3.28,3.28,0,0,1,2.05-.81,14.59,14.59,0,0,0,3.61-1.45.35.35,0,0,0,.21-.18.5.5,0,0,0,0-.21c-.56-2.58-1.73-5.17-2.28-7.75a58.26,58.26,0,0,1-.94-7.4,3.92,3.92,0,0,1,2.05-2.49.83.83,0,0,1,.76-.1,1,1,0,0,1,.45.8c.63,2.88,2.32,10.19,3,13.07.39,1.84,3.72,6.43,4.43,7s.81,1.23,1.62,1.84a1.69,1.69,0,0,1,.56.57,1.83,1.83,0,0,1,.15.81l.12,4.88c0,1.9,0,4-1.33,5.37Z"/><path class="cls-7" d="M40.21,104.08c-1-.27-1.94-.9-3-.72a6.84,6.84,0,0,0-2.44,1.26c-2.15,1.47-3.69,3.72-6,4.94a1,1,0,0,0-.19,1.49c1.32,1.28,3.23,2.8,5.19,2.36a6,6,0,0,0,4-3.79l-1.39.56a7.51,7.51,0,0,0,2,1.06c1.15.44,1.62-1.38.5-1.83-3.73-1.5-5.28,3.37-4,6,.52,1.1,2.16.14,1.64-1-.59-1.25-.26-4.12,1.87-3.26l.5-1.83a4.53,4.53,0,0,1-1.51-.86,1,1,0,0,0-1.4.56c-1.13,3-4.18,2.44-6.07.6l-.19,1.49a19.8,19.8,0,0,0,4.15-3.43,15,15,0,0,1,2.4-1.87c1.14-.71,2.2-.33,3.43,0a1,1,0,0,0,.5-1.83Z"/><path class="cls-7" d="M32.65,107.69l-.43-2.2-1.83.5a2.53,2.53,0,0,0,1.39,1.71,1,1,0,0,0,1.3-.34,1,1,0,0,0-.34-1.3.74.74,0,0,1-.52-.57.95.95,0,1,0-1.83.5l.43,2.21a.95.95,0,1,0,1.83-.51Z"/><path class="cls-6" d="M71.93,65.7s7.71,13.72,30.73,13.73c9.52,0,13.06-2.23,13.6-5.32,3.37-19.43-3.81-44-13.77-51.5C93.75,16,62.77,40.92,62.77,40.92l6.6,14.81s-6.74-7.27-9.43-3.23S65.8,65.09,65.8,65.09,69.64,68,71.93,65.7Z"/><path class="cls-6" d="M117.93,96.83c2.29-1.21,4.35,1.65,4.35,1.65l23.23,40.66-20,36s6.73,11.31,3.36,16.43l4.65,4.64s.74,2.49-2.63,2.49-11.31-5.92-11.31-5.92l.92-25.36,15-27L121.68,120l-4.3-3.81S113.67,99.09,117.93,96.83Z"/><path class="cls-6" d="M93.81,210.66,74.35,259.45s-2.51,9.24-5.49,12.22A131.62,131.62,0,0,1,61.49,293c-5.05,11.31-7.27,26.86-7.27,26.86s4.59,11.66,4,16.91c0,0,4.39,6.06,2.62,9.54s-8.68,1.42-8.68,1.42-11.56,1.51-13.28-1.37,2.17-10.6,2.17-10.6-.55-6.16,1.47-7.57A25.2,25.2,0,0,0,47,323.32s-.76-2,1.36-4.75,5.25-20.21,5.25-22.5-2.82-19.39,6.6-26.12c0,0,2.29-46.45,8.75-52.91s24.85-10.3,24.85-10.3Z"/><path class="cls-8" d="M93.81,210.66l-6.23,15.6S79,230.1,76.8,230.64c-1.62.39-13.14,4-12.75,1.63C65.26,225,66.93,219.06,69,217c6.47-6.47,24.85-10.3,24.85-10.3Z"/><path class="cls-6" d="M100.74,203.44S117,265,118.24,267.8s-5.15,8.31,6,47.29c0,0-.71,5.15-1.72,7s-3.33,6.46-.4,8.08,12.42,9.69,16.46,10.4,11.61-2.83,11.61-2.83,4-1.51,2.78-2.78c0,0-3.69-.15-4.9-1.36s-14.94-12-14.94-12-4.24-5.45-4.24-5.82-3-48.3-3-48.3,1.11-3,0-9.19-.58-45-.58-45Z"/><path class="cls-8" d="M100.74,203.44s3.83,14.43,5,18.69c.44,1.63,19.43,3,19.43,3l.1-11.81Z"/><path class="cls-9" d="M100.74,215.62c3.15,6.25,25.3,7.57,27.13,8.15,0,0,.58-25.08-3-39.17S100.74,215.62,100.74,215.62Z"/><path class="cls-10" d="M73.81,60.18c3.91,1.61.54-5.39.54-5.39s-.37-7-2.36-8.21A29,29,0,0,1,67.66,43l37.25-25.54s3.77-5.25-4.84-8.48a10.28,10.28,0,0,0-10.44-3.1s-3.77-4.51-9.22-.37c0,0-11-.64-13.47,4.75a4.09,4.09,0,0,0-4,2.29s-2.28.87-2.72,2.72c0,0-5.56,2.19-5.89,5.9,0,0-3,4.24-.61,7.67,0,0-1.6,3,.47,5.08,0,0-4.64,5.09,0,8.25,0,0-1.14,3.3,5.66,4.65l2,4.17s1.94-.88,7.54,4.71Z"/><path class="cls-7" d="M100.94,60.73a1.5,1.5,0,0,1,0-3c1.38,0,5.22-1.15,8-2.08-.88-6.81-5.24-11.9-7.85-14.39a1.5,1.5,0,0,1,2.07-2.17c3.07,2.93,8.3,9.1,8.89,17.48l.08,1.13-1.07.39C110.25,58.36,103.55,60.73,100.94,60.73Z"/><ellipse class="cls-11" cx="88.93" cy="45.67" rx="1.81" ry="2.47" transform="translate(-8.45 23.05) rotate(-14.1)"/><path class="cls-11" d="M86.15,45.39h-.06a1.51,1.51,0,0,1-1.44-1.57c0-.36.22-3.62,2.6-4.9,1.54-.84,3.46-.58,5.69.75a1.5,1.5,0,0,1-1.53,2.58c-1.21-.72-2.21-1-2.73-.69-.73.39-1,1.89-1,2.39A1.51,1.51,0,0,1,86.15,45.39Z"/><ellipse class="cls-11" cx="105.72" cy="40.6" rx="1.81" ry="2.47" transform="translate(-6.71 26.99) rotate(-14.1)"/><path class="cls-11" d="M102.47,40a1.41,1.41,0,0,1-.4-.05,1.49,1.49,0,0,1-1-1.84c.1-.36,1-3.48,3.63-4.2,1.69-.47,3.51.21,5.39,2A1.5,1.5,0,0,1,108,38.07c-1-1-1.93-1.44-2.51-1.28-.79.22-1.4,1.62-1.53,2.1A1.5,1.5,0,0,1,102.47,40Z"/><path class="cls-12" d="M93.06,62.93c-.22-.23,13.34.85,18.52-3,0,0,1,10.31-3.6,11.44S97.73,70.67,93.06,62.93Z"/><g class="cls-13"><path class="cls-14" d="M92.18,64.55s12.68,3.62,18.32-2L109.79,60,91.2,61.22Z"/><path class="cls-15" d="M94.41,69.2s4.07-3.94,10.57-1.32,0,7.38,0,7.38Z"/></g><path class="cls-7" d="M105.19,72.79c-7.76,0-12.94-9.27-13-9.38l-.86-1.57,1.79.09c.12,0,12.51.6,17.92-2.81a1,1,0,0,1,1.38.31,1,1,0,0,1-.31,1.38C107.46,63.74,98.74,64,94.91,64c2,3,7.16,8.91,13.69,6.06a1,1,0,1,1,.8,1.84A10.47,10.47,0,0,1,105.19,72.79Z"/><path class="cls-7" d="M69.06,64.15s-.2-8.84-7-11"/><path class="cls-7" d="M62.06,134.13s5.82-7.8,5-6.62c-4.26,6.6,10.92,14.22,14.48,10.15a9.11,9.11,0,0,1-9.9,2.51Z"/><path class="cls-16" d="M75.43,99.79S69,102.18,66,105.19c0,0,18.13,26.29,5.74,35,0,0,11.41,21.8,10.2,26.24s-21.49,61-21.49,61,62.61-1.11,64.84-42.05l-3-23.56a196.21,196.21,0,0,0,1.75-23.9c.13-11.49-1.13-24.71-2-33.73a14.55,14.55,0,0,0-4.25-9.15l-5.89-.55s4.65,15.59-6.12,17.07C99.91,112.37,85.93,114.24,75.43,99.79Z"/><g class="cls-17"><path class="cls-18" d="M62.74,229s62.61-1.11,64.84-42Z"/></g><path class="cls-16" d="M75.43,99.79S69,102.18,66,105.19c0,0,18.13,26.29,5.74,35,0,0,11.41,21.8,10.2,26.24s-21.49,61-21.49,61,62.61-1.11,64.84-42.05l-3-23.56a196.21,196.21,0,0,0,1.75-23.9c.13-11.49-1.13-24.71-2-33.73a14.55,14.55,0,0,0-4.25-9.15l-5.89-.55s4.65,15.59-6.12,17.07C99.91,112.37,85.93,114.24,75.43,99.79Z"/><path class="cls-19" d="M80.5,171s33,4.39,42.17-6.11c0,0,1-2.07-.39-3,.2,1.94-15.5,10.4-40.39,5A2.71,2.71,0,0,0,80.5,171Z"/><circle class="cls-20" cx="107.92" cy="169.4" r="7.7"/><g class="cls-21"><path class="cls-22" d="M71.36,20.46s-3.31,4,.89,6.68c1.46.93-4.35,5.45-4.35,5.45L65.56,45.77a17.55,17.55,0,0,1,5-1.22L81.23,56.72,74.42,61,52.67,46.33l-14.47-28L56.85,1.44,77.24-3.31l-3.58,7.1S65,9.09,68.31,12.9C66.24,14.36,65.83,20.07,71.36,20.46Z"/></g><path class="cls-23" d="M61.93,51S58,49.27,58,46s15.22-33.8,47-28.55c0,0,4.92,3.44,3.24,5.12,0,0,3,3.76.6,5.78S94.65,27.45,61.93,51Z"/><path class="cls-24" d="M63.64,43.89S84,19.11,105.72,22.34C105.72,22.34,85.46,23.43,63.64,43.89Z"/><path class="cls-25" d="M108.77,176a7.66,7.66,0,0,1-5.64-2.2c-1.52-1.69-1.94-4.13-1.27-7.26a1.5,1.5,0,0,1,2.93.63c-.46,2.13-.27,3.68.56,4.62,1.26,1.42,3.76,1.2,3.79,1.2a1.5,1.5,0,0,1,.3,3S109.15,176,108.77,176Z"/><path class="cls-26" d="M112.57,173.4a1.24,1.24,0,0,1-.33,0,1.5,1.5,0,0,1-1.14-1.78c.48-2.14.29-3.69-.54-4.63-1.25-1.42-3.73-1.22-3.76-1.21a1.5,1.5,0,1,1-.29-3c.16,0,4-.36,6.3,2.21,1.5,1.7,1.92,4.14,1.22,7.26A1.49,1.49,0,0,1,112.57,173.4Z"/><path class="cls-7" d="M29.37,117.93a2.1,2.1,0,0,0,0-3.59c-.86-.65-2,.79-1.15,1.49a3.86,3.86,0,0,0,3.18,1.3A2.65,2.65,0,0,0,33.51,115l-1.39.56a3,3,0,0,0,3.09.1c1.09-.55.13-2.19-1-1.64a1.06,1.06,0,0,1-1.17-.1,1,1,0,0,0-1.4.57c-.26,1.35-1.46.51-2.08,0L28.45,116l0,.31c-1,.69-.05,2.34,1,1.64Z"/><path class="cls-7" d="M24,105.77q.66,3.08,1.47,6.13a1,1,0,0,0,1.83-.51q-.81-3-1.47-6.13c-.26-1.19-2.09-.69-1.83.51Z"/><path class="cls-7" d="M49.35,138.65a19,19,0,0,1,2.15,7.46c.1,1.21,2,1.22,1.9,0A21.6,21.6,0,0,0,51,137.69c-.57-1.08-2.21-.12-1.64,1Z"/><path class="cls-27" d="M85,3.79a6.54,6.54,0,0,1,4.64,2.12,11.14,11.14,0,0,1,2.81-.37A10.25,10.25,0,0,1,100.07,9c8.37,3.14,5.05,8.19,4.85,8.47H105s4.92,3.44,3.24,5.12c0,0,3,3.76.6,5.78a2.49,2.49,0,0,1-.88.44c6.89,10.73,11,29.67,8.29,45.28-.54,3.09-4.07,5.32-13.59,5.32h0a50.45,50.45,0,0,1-9.21-.82c.09.73.19,1.52.3,2.31h0c.48,3.4,1.17,7.26,1.93,7.83,4.86,3.65,12.1,5.16,16.17,5.75l5.89.55A14,14,0,0,1,119,96.54h.06c1.78,0,3.18,2,3.18,2l23.23,40.66-20,36s6.73,11.31,3.36,16.43l4.65,4.64s.74,2.49-2.63,2.49a10.1,10.1,0,0,1-3.9-1.27,255.26,255.26,0,0,1,.93,26.36,25.23,25.23,0,0,0-2.71-.41l0,1.72h0c-.07,11.95,0,29.22.68,33.16,1.11,6.16,0,9.19,0,9.19s3,47.93,3,48.3,4.24,5.82,4.24,5.82,5.61,4.42,10,7.92h0a12.53,12.53,0,0,1,3.65,1.54,3.64,3.64,0,0,1,1.11,2.3c.29.19.77.52,1.32.92a14.11,14.11,0,0,0,3.79.7c.6.6,0,1.26-.78,1.78.43.47.7.87.62,1.14-.28,1-4.34,5.32-11.69,5.32-.41,0-.83,0-1.27,0-7.7-.5-18.39-8.72-19.27-11a6.75,6.75,0,0,1,.12-4.61,12.84,12.84,0,0,1,1.82-5.45c1-1.82,1.72-7,1.72-7-11.11-39-4.75-44.47-6-47.29-.81-1.91-8.47-30.43-13.38-48.86a13.31,13.31,0,0,1-2.53-1.5A79.89,79.89,0,0,1,89,222.72l-1.4,3.54L74.35,259.45s-2.51,9.24-5.49,12.22A131.27,131.27,0,0,1,61.49,293c-5.05,11.31-7.27,26.86-7.27,26.86s3.62,9.18,4,14.92c4.26,5.83,8.08,13,3,15.14a29.17,29.17,0,0,1-11,1.94c-6.11,0-11.59-1.44-12.87-2.71-2.05-2.05,3.78-17.61,3.78-17.61.18-1.41.57-2.78,1.4-3.35A25.2,25.2,0,0,0,47,323.32s-.76-2,1.36-4.75,5.25-20.21,5.25-22.5-2.82-19.39,6.6-26.12c0,0,1.08-21.86,3.84-37.68h0c.3-1.79.63-3.51,1-5.1-2.89.24-4.63.27-4.63.27s15.13-42.23,20-56.59a2.65,2.65,0,0,1,1.3-3.9c.07-.22.12-.41.16-.54,1.21-4.44-10.2-26.24-10.2-26.24l-9.63-6L55.37,165l-4.54-1.72-6-9.31L33.9,121.27l-.33-.1a10.41,10.41,0,0,1-4.53-3.8,38.07,38.07,0,0,1-4.27.25h-.48a.7.7,0,0,1-.43-.09.81.81,0,0,1-.25-.53,46.64,46.64,0,0,0-2.45-8.6,1.44,1.44,0,0,1-.14-.76c.1-.46.64-.67,1.11-.72a2.76,2.76,0,0,0,1.38-.27c.52-.36.68-1.16,1.28-1.36a1,1,0,0,1,.3,0c.27,0,.56.08.84.08a.83.83,0,0,0,.35-.06c.48-.2.6-.82.93-1.23a3.28,3.28,0,0,1,2.05-.81,14.59,14.59,0,0,0,3.61-1.45.35.35,0,0,0,.21-.18.5.5,0,0,0,0-.21c-.56-2.58-1.73-5.17-2.28-7.75a58.26,58.26,0,0,1-.94-7.4,3.92,3.92,0,0,1,2.05-2.49,1.09,1.09,0,0,1,.52-.16.53.53,0,0,1,.24.06,1,1,0,0,1,.45.8c.63,2.88,2.32,10.19,3,13.07.39,1.84,3.72,6.43,4.43,7s.81,1.23,1.62,1.84a1.69,1.69,0,0,1,.56.57,1.83,1.83,0,0,1,.15.81l.12,4.88c0,1.9,0,4-1.33,5.37h0l8.73,20.8-.17-.59.23.46.26-21.8s6.79-6.1,7.67-7c.56-.57,4.74-3,7.62-4.67h0c3-3,9.48-5.4,9.48-5.4s6.16-7,7.47-8.28.71-4.94.71-4.94l-3.38-13a25.5,25.5,0,0,1-8.3-7.91,3,3,0,0,1-2.2.88,7.73,7.73,0,0,1-3.93-1.49s-8.55-8.55-5.86-12.59a2.54,2.54,0,0,1,2.22-1.22c1.76,0,3.86,1.45,5.34,2.7-3-2.65-4.66-3-5.31-3H62l0,0,0,0-.06,0,0-.07c-.64-.31-3.5-1.88-3.75-4.55-4.83-1.51-3.9-4.2-3.9-4.2-4.64-3.16,0-8.25,0-8.25-2.07-2.07-.47-5.08-.47-5.08-2.42-3.43.61-7.67.61-7.67.33-3.71,5.89-5.9,5.89-5.9.44-1.85,2.72-2.72,2.72-2.72a4,4,0,0,1,3.73-2.3h.31c2-4.35,9.57-4.77,12.39-4.77.67,0,1.08,0,1.08,0A7.54,7.54,0,0,1,85,3.79m38,159.09,12.47-22.48-11.85-17.62c.31,5.06.51,10.26.45,15.15a196.21,196.21,0,0,1-1.75,23.9,1.65,1.65,0,0,1,.68,1m24.56,170.23h0M85,0h0a10.74,10.74,0,0,0-5.72,1.73c-4.14,0-11,.71-14.51,5a7.65,7.65,0,0,0-4.52,3,8.32,8.32,0,0,0-2.94,2.79c-2.12,1.1-5.73,3.51-6.62,7.33-1.31,2.22-2.49,5.87-1.12,9.37a8.37,8.37,0,0,0,.11,4.59,9.71,9.71,0,0,0-1.32,5.82A7.59,7.59,0,0,0,50.41,44,6.58,6.58,0,0,0,51,45.6a8.3,8.3,0,0,0,4,3.64,9.12,9.12,0,0,0,1.33,2.11c-1.37,2.95-.54,6.68,2.48,11.1a39.79,39.79,0,0,0,4.39,5.32l.18.19.21.16a11.31,11.31,0,0,0,6.22,2.25,8.49,8.49,0,0,0,.88-.05A32.32,32.32,0,0,0,76.93,76l2.95,11.35a8,8,0,0,1,0,1.82c-1.46,1.53-5.19,5.72-6.72,7.44-2,.81-6.63,2.86-9.54,5.54-7,4.05-7.58,4.62-8,5.05s-4.92,4.49-7.51,6.82l-1.25,1.11v1.67l0,3.79-.94-2.24a13.36,13.36,0,0,0,.87-5.85l-.13-4.87a5.44,5.44,0,0,0-.58-2.49,5.14,5.14,0,0,0-1.52-1.74l0-.08A7.26,7.26,0,0,0,43,101.59a24.61,24.61,0,0,1-3.21-4.93c-.31-1.47-.9-4-1.47-6.54s-1.15-5.07-1.46-6.48a4.6,4.6,0,0,0-2.56-3.44,4.33,4.33,0,0,0-1.84-.41,4.76,4.76,0,0,0-2.35.63,7.52,7.52,0,0,0-4,5.39c-.21,2,1,8.55,1,8.61a39,39,0,0,0,1.25,4.29c.08.26.17.51.25.77l-.09,0-.24,0a6.38,6.38,0,0,0-3.88,1.95,4.94,4.94,0,0,0-.76.18,4.75,4.75,0,0,0-2.2,1.51,4.77,4.77,0,0,0-4.11,3.66,5,5,0,0,0,.32,2.94,42.19,42.19,0,0,1,2.25,7.9,4.43,4.43,0,0,0,1.82,3,4.5,4.5,0,0,0,2.54.77h.53c.86,0,1.72,0,2.58-.08A14.7,14.7,0,0,0,30.82,124l10.4,31.16.16.46.25.4,6,9.31.68,1,1.17.44L54,168.58l4.12,1.55.93-4.3,5.54-25.61,4.17,2.61c.87,1.7,2.82,5.56,4.72,9.74,3.47,7.65,4.37,11,4.6,12.33a6.42,6.42,0,0,0-1.54,2.39,6.26,6.26,0,0,0-.15,3.58C71.19,186.09,57,225.75,56.83,226.16L55,231.33l5.4-.1-.06.33-.11.55v.08c-2.29,13.4-3.4,30.46-3.71,35.87-8.4,7.6-7.19,22-6.78,26.88,0,.44.09,1,.09,1.14-.07,2.51-3.06,17.84-4.49,20.22a9.84,9.84,0,0,0-2.26,5.93,16.53,16.53,0,0,1-2.69,2.83c-1.56,1.09-2.51,2.9-2.92,5.53-.41,1.12-1.6,4.45-2.62,8-2.22,7.68-2.25,11.15-.14,13.26,2.63,2.62,9.9,3.82,15.55,3.82a32.79,32.79,0,0,0,12.48-2.23,7.4,7.4,0,0,0,4.45-4.9c1-3.77-.61-8.59-5.24-15.13a72,72,0,0,0-3.82-13.94c.57-3.48,2.76-15.78,6.84-24.91a138.3,138.3,0,0,0,7.37-21c3-3.76,5.08-10.86,5.62-12.81l13.16-33,.74-1.85a85.93,85.93,0,0,0,9.89-3.86c10.42,39.07,12.34,45.49,12.86,46.93,0,.28-.11.75-.18,1.15-.77,4.6-2.56,15.32,5.91,45.31a25.19,25.19,0,0,1-1.16,4.88,16.26,16.26,0,0,0-2.29,6.62,10.44,10.44,0,0,0,.12,6.64c1.18,3.09,6.86,6.91,8.57,8,2.92,1.88,8.63,5.08,14,5.43.5,0,1,.05,1.51.05,8.75,0,14.56-5.21,15.35-8.13a3.88,3.88,0,0,0,.13-1.51,4.46,4.46,0,0,0-.95-5.08l-1-1.05-1.48-.06a12.49,12.49,0,0,1-2-.27,6.7,6.7,0,0,0-1.95-2.77,13.32,13.32,0,0,0-4.31-2.07c-3.58-2.86-7.79-6.19-9-7.17-1.22-1.58-2.57-3.37-3.22-4.29-.17-2.79-.77-12.45-2.94-46.74a25.17,25.17,0,0,0-.09-10.27c-.22-1.24-.72-6.59-.63-29.48l2.63.83.11-5c0-.49.23-10.44-.5-21.39a6.19,6.19,0,0,0,5.08-2.37,5.77,5.77,0,0,0,.87-5l-.28-.92-.68-.68-2.9-2.9c1.22-5.35-1.66-12-3.45-15.48l19-34.14,1.05-1.87-1.07-1.86L125.57,96.59l-.1-.17-.11-.16a9.09,9.09,0,0,0-4.29-3.21c-.21-.23-.43-.46-.65-.68l-1-1-1.37-.13-5.79-.54c-3.42-.5-9.52-1.74-13.7-4.56A27.22,27.22,0,0,1,97.91,83c1.55.12,3.14.19,4.75.19,3.93,0,15.87,0,17.34-8.46,2.51-14.49-.51-32.91-7.21-45.23,1.33-2.31.89-5.14-.4-7.52a5.3,5.3,0,0,0,0-.69,8.55,8.55,0,0,0-3-5.13,8.17,8.17,0,0,0-.25-3.8c-.88-2.81-3.2-5-6.9-6.59a14,14,0,0,0-9.82-4,14.29,14.29,0,0,0-1.72.1A10,10,0,0,0,85,0Zm42.53,146.83c.16-2.75.27-5.73.31-8.85,0-.67,0-1.36,0-2.06l3.14,4.67-3.46,6.24Z"/><polyline class="cls-6" points="33.57 121.17 34.09 121.47 42.13 118.2"/></g></svg>