<svg id="Camada_1" data-name="Camada 1" xmlns="http://www.w3.org/2000/svg" xmlns:xlink="http://www.w3.org/1999/xlink" viewBox="0 0 709.69 219.4"><defs><style>.cls-1{fill:none;}.cls-2{fill:#ffd478;}.cls-3{fill:#027e8f;}.cls-4{fill:#f9f9f9;}.cls-5{clip-path:url(#clip-path);}.cls-6{fill:#eaa000;}.cls-7{fill:#eac2a7;}.cls-8{fill:#c9a68f;}.cls-9{fill:#d6aa8b;}.cls-10{fill:#d6d6d6;}.cls-11{fill:#c99f4b;}.cls-12{fill:#6d5f56;}.cls-13{fill:#493e38;}.cls-14{clip-path:url(#clip-path-2);}.cls-15{fill:#fcfcfc;}.cls-16{fill:#d32222;}.cls-17{fill:#f4f4f4;}.cls-18{clip-path:url(#clip-path-3);}.cls-19{fill:#b7b7b7;}.cls-20{fill:#6d472e;}.cls-21{fill:#c99e32;}.cls-22{clip-path:url(#clip-path-4);}.cls-23{fill:#aa7e30;}.cls-24{fill:#fff;}.cls-25{fill:#ddd;}.cls-26{fill:#846829;}.cls-27{fill:#e8cd95;}</style><clipPath id="clip-path"><path class="cls-1" d="M131.35,204.61s-28.28,21.48-75.64,3.83S8.34,55.21,8.34,55.21s43.57-64.75,53.31-63,66.56,12.75,66.56,33.63,25.28,114.65,25.28,114.65,10.62,41.12,5.31,44.25"/></clipPath><clipPath id="clip-path-2"><path class="cls-1" d="M85.87,61.83c-.2-.3,14.62,3.48,21.08.24,0,0-.83,11.63-6.17,12C95.28,74.45,89.56,71.3,85.87,61.83Z"/></clipPath><clipPath id="clip-path-3"><path class="cls-1" d="M97.74,219.05c3.2,6.35,25.73,7.7,27.59,8.29,0,0,.59-25.52-3-39.85S97.74,219.05,97.74,219.05Z"/></clipPath><clipPath id="clip-path-4"><path class="cls-1" d="M70.35,60.94c4,1.64.55-5.48.55-5.48s-.38-7.14-2.4-8.36a28.85,28.85,0,0,1-4.41-3.6l10.15-7,27.74-19s3.84-5.34-4.93-8.63A10.44,10.44,0,0,0,86.44,5.74s-3.84-4.58-9.38-.37c0,0-11.16-.65-13.7,4.83a4.16,4.16,0,0,0-4.11,2.32s-2.32.89-2.77,2.78c0,0-5.65,2.22-6,6,0,0-3.08,4.31-.62,7.81,0,0-1.62,3.06.48,5.16,0,0-4.72,5.18,0,8.39,0,0-1.16,3.36,5.75,4.73l2.06,4.24s2-.89,7.67,4.8Z"/></clipPath></defs><title>amarelo</title><path class="cls-2" d="M131.74,53.72H699.69a10,10,0,0,1,10,10V197.46a10,10,0,0,1-10,10H131.74a0,0,0,0,1,0,0V53.72A0,0,0,0,1,131.74,53.72Z"/><path class="cls-3" d="M337.66,79.48l-1.29.09,3.82,9.76.27.85h.06l.27-.85,3.81-9.76-1.29-.09v-.79h3.59v.79l-1.08.08L341,91.49H340l-4.81-11.93-1.07-.08v-.79h3.59Z"/><path class="cls-3" d="M352.42,91.68a4.28,4.28,0,0,1-3.21-1.32A4.59,4.59,0,0,1,347.94,87v-.49a4.73,4.73,0,0,1,1.27-3.38,4.35,4.35,0,0,1,6-.24,4.07,4.07,0,0,1,1.08,3v.89h-7.25V87A4,4,0,0,0,350,89.7a3,3,0,0,0,2.42,1.09,5.33,5.33,0,0,0,1.8-.27,3.69,3.69,0,0,0,1.28-.79l.49.72a4.11,4.11,0,0,1-1.46.9A6,6,0,0,1,352.42,91.68Zm-.15-9a2.82,2.82,0,0,0-2.11.89,3.69,3.69,0,0,0-1,2.24l0,0h6v-.27a2.88,2.88,0,0,0-.79-2.07A2.76,2.76,0,0,0,352.27,82.7Z"/><path class="cls-3" d="M358.14,90.72l1.55-.12V82.88l-1.55-.12V82h2.56l.1,1.66a3.55,3.55,0,0,1,1.33-1.36,4.07,4.07,0,0,1,2-.47,3.31,3.31,0,0,1,2.55.94,4.24,4.24,0,0,1,.87,3v4.9l1.55.12v.77h-4.24v-.77l1.55-.12V85.71a3.25,3.25,0,0,0-.66-2.31,2.49,2.49,0,0,0-1.87-.68,3.14,3.14,0,0,0-1.95.58,3.19,3.19,0,0,0-1.09,1.56V90.6l1.55.12v.77h-4.24Z"/><path class="cls-3" d="M370.54,78.56v-.78h2.67v5.83a3.72,3.72,0,0,1,1.37-1.33,4,4,0,0,1,2-.47,3.25,3.25,0,0,1,2.5.93,4.16,4.16,0,0,1,.86,2.89v5l1.55.12v.77h-4.23v-.77l1.54-.12v-5a3.1,3.1,0,0,0-.65-2.22,2.43,2.43,0,0,0-1.82-.67,3.22,3.22,0,0,0-1.95.57,3.39,3.39,0,0,0-1.16,1.5V90.6l1.55.12v.77h-4.22v-.77l1.54-.12V78.68Z"/><path class="cls-3" d="M390.28,91.49a7.38,7.38,0,0,1-.16-.83,5.81,5.81,0,0,1-.05-.72,4.36,4.36,0,0,1-1.52,1.24,4.52,4.52,0,0,1-2.13.5,3.45,3.45,0,0,1-2.34-.72,2.49,2.49,0,0,1-.82-2,2.37,2.37,0,0,1,1.22-2.09,6.23,6.23,0,0,1,3.32-.77h2.27V84.88a2,2,0,0,0-.71-1.6,3.07,3.07,0,0,0-2-.58,5.11,5.11,0,0,0-1.56.22,3.72,3.72,0,0,0-1.18.58l-.09,1.28h-.94V83a6,6,0,0,1,1.7-.83,7,7,0,0,1,2.11-.31,4.33,4.33,0,0,1,2.74.8,2.73,2.73,0,0,1,1,2.29v4.68c0,.19,0,.38,0,.55a3.07,3.07,0,0,0,.07.53l1,.06v.77Zm-3.74-.75a4.36,4.36,0,0,0,2.17-.52,3.2,3.2,0,0,0,1.36-1.37V87h-2.29a4.58,4.58,0,0,0-2.47.59,1.75,1.75,0,0,0-.93,1.5,1.52,1.52,0,0,0,.58,1.23A2.38,2.38,0,0,0,386.54,90.74Z"/><path class="cls-3" d="M403,90.79a3.41,3.41,0,0,0,2-.6,1.92,1.92,0,0,0,.86-1.66h1l0,0a2.55,2.55,0,0,1-1.14,2.21,4.43,4.43,0,0,1-2.74.89,4,4,0,0,1-3.24-1.34,5,5,0,0,1-1.15-3.42v-.37a5,5,0,0,1,1.15-3.41A4,4,0,0,1,403,81.81a5.48,5.48,0,0,1,2.17.41,4.19,4.19,0,0,1,1.6,1.12l0,2.08h-1l-.18-1.69a3.11,3.11,0,0,0-1.13-.75A4,4,0,0,0,403,82.7a2.83,2.83,0,0,0-2.45,1.1,4.54,4.54,0,0,0-.79,2.75v.37a4.6,4.6,0,0,0,.79,2.78A2.81,2.81,0,0,0,403,90.79Z"/><path class="cls-3" d="M409,86.6a4.89,4.89,0,0,1,1.25-3.45,4.72,4.72,0,0,1,6.59,0,4.89,4.89,0,0,1,1.25,3.45v.29a4.93,4.93,0,0,1-1.24,3.45,4.73,4.73,0,0,1-6.6,0A4.89,4.89,0,0,1,409,86.89Zm1.14.29a4.29,4.29,0,0,0,.9,2.77,3.06,3.06,0,0,0,2.52,1.13,3,3,0,0,0,2.49-1.13,4.29,4.29,0,0,0,.9-2.77V86.6a4.23,4.23,0,0,0-.91-2.76,3.31,3.31,0,0,0-5,0,4.28,4.28,0,0,0-.9,2.76Z"/><path class="cls-3" d="M419.71,82.76V82h2.55l.11,1.57a3.55,3.55,0,0,1,1.32-1.29,4,4,0,0,1,2-.45,3.41,3.41,0,0,1,2,.53A2.93,2.93,0,0,1,428.75,84a3.8,3.8,0,0,1,1.32-1.58,3.69,3.69,0,0,1,2.09-.57,3.19,3.19,0,0,1,2.54,1,4.59,4.59,0,0,1,.9,3.13v4.64l1.55.13v.77H432.9v-.77l1.55-.13V85.93a3.66,3.66,0,0,0-.67-2.49,2.41,2.41,0,0,0-1.86-.72,2.65,2.65,0,0,0-2.05.78,3.65,3.65,0,0,0-.89,2s0,.09,0,.13v5l1.55.12v.77h-4.23v-.77l1.54-.12V85.93a3.65,3.65,0,0,0-.67-2.47,2.44,2.44,0,0,0-1.87-.74,2.76,2.76,0,0,0-2.91,2.09V90.6l1.54.12v.77h-4.23v-.77l1.55-.12V82.88Z"/><path class="cls-3" d="M438.48,90.72,440,90.6V82.88l-1.54-.12V82h2.67V90.6l1.55.12v.77h-4.22Zm2.67-11.46H440V77.78h1.13Z"/><path class="cls-3" d="M444.65,86.82a5.84,5.84,0,0,1,1.05-3.65,3.46,3.46,0,0,1,2.91-1.36,3.84,3.84,0,0,1,1.9.44,3.75,3.75,0,0,1,1.32,1.25L452,82h1v9.39a3.93,3.93,0,0,1-1.07,2.9,4.06,4.06,0,0,1-3,1.06,8.22,8.22,0,0,1-1.58-.16,7.28,7.28,0,0,1-1.47-.46l.31-.89a7,7,0,0,0,1.29.42,6.6,6.6,0,0,0,1.43.15,2.83,2.83,0,0,0,2.2-.8,3.1,3.1,0,0,0,.74-2.22V90.16a3.4,3.4,0,0,1-1.32,1.12,4.06,4.06,0,0,1-1.87.4,3.53,3.53,0,0,1-2.89-1.28,5.18,5.18,0,0,1-1.05-3.4Zm1.14.18a4.47,4.47,0,0,0,.76,2.74,2.61,2.61,0,0,0,2.25,1,3.41,3.41,0,0,0,1.85-.46A3,3,0,0,0,451.78,89V84.6a3.32,3.32,0,0,0-1.09-1.36,3.07,3.07,0,0,0-1.87-.52,2.54,2.54,0,0,0-2.26,1.14,5.22,5.22,0,0,0-.77,3Z"/><path class="cls-3" d="M455.5,86.6a4.89,4.89,0,0,1,1.25-3.45,4.72,4.72,0,0,1,6.59,0,4.89,4.89,0,0,1,1.25,3.45v.29a4.93,4.93,0,0,1-1.24,3.45,4.73,4.73,0,0,1-6.6,0,4.89,4.89,0,0,1-1.25-3.45Zm1.14.29a4.29,4.29,0,0,0,.9,2.77,3,3,0,0,0,2.52,1.13,3,3,0,0,0,2.48-1.13,4.24,4.24,0,0,0,.91-2.77V86.6a4.28,4.28,0,0,0-.91-2.76,3.31,3.31,0,0,0-5,0,4.28,4.28,0,0,0-.9,2.76Z"/><path class="cls-3" d="M471,90.72l1.55-.12V82.88L471,82.76V82h2.56l.1,1.66A3.5,3.5,0,0,1,475,82.28a4,4,0,0,1,2-.47,3.31,3.31,0,0,1,2.55.94,4.24,4.24,0,0,1,.87,3v4.9l1.55.12v.77h-4.24v-.77l1.55-.12V85.71a3.25,3.25,0,0,0-.66-2.31,2.49,2.49,0,0,0-1.87-.68,3.14,3.14,0,0,0-1.95.58,3.19,3.19,0,0,0-1.09,1.56V90.6l1.55.12v.77H471Z"/><path class="cls-3" d="M488.11,91.68a4.24,4.24,0,0,1-3.2-1.32A4.59,4.59,0,0,1,483.63,87v-.49a4.77,4.77,0,0,1,1.27-3.38A4.05,4.05,0,0,1,488,81.81a4,4,0,0,1,3,1.1,4.07,4.07,0,0,1,1.08,3v.89h-7.25V87a4,4,0,0,0,.93,2.68,3,3,0,0,0,2.42,1.09,5.35,5.35,0,0,0,1.81-.27,3.79,3.79,0,0,0,1.28-.79l.48.72a4,4,0,0,1-1.46.9A6,6,0,0,1,488.11,91.68Zm-.15-9a2.83,2.83,0,0,0-2.11.89,3.68,3.68,0,0,0-1,2.24l0,0h6v-.27a2.92,2.92,0,0,0-.79-2.07A2.8,2.8,0,0,0,488,82.7Z"/><path class="cls-3" d="M501.5,84.92h-.93l-.14-1.35a2.91,2.91,0,0,0-1.07-.64,4.63,4.63,0,0,0-1.5-.23,2.93,2.93,0,0,0-1.86.5,1.45,1.45,0,0,0-.63,1.16,1.33,1.33,0,0,0,.54,1.09,5.47,5.47,0,0,0,2.14.76,7.33,7.33,0,0,1,2.74,1,2.08,2.08,0,0,1,.92,1.78,2.26,2.26,0,0,1-1,1.92,4.68,4.68,0,0,1-2.75.74,6.83,6.83,0,0,1-2.08-.3,4.81,4.81,0,0,1-1.61-.83V88.64h.92l.16,1.35a2.76,2.76,0,0,0,1.15.61,5.41,5.41,0,0,0,1.46.19,3.34,3.34,0,0,0,1.94-.5,1.41,1.41,0,0,0,.12-2.38,4.9,4.9,0,0,0-2.14-.82,7.57,7.57,0,0,1-2.72-1,2,2,0,0,1-.88-1.71,2.23,2.23,0,0,1,1-1.84,4.27,4.27,0,0,1,2.63-.75,6.24,6.24,0,0,1,2.07.32,4.2,4.2,0,0,1,1.52.86Z"/><path class="cls-3" d="M506.38,79.55V82h2.26v.86h-2.26V89a1.93,1.93,0,0,0,.37,1.32,1.27,1.27,0,0,0,1,.39,4.78,4.78,0,0,0,.54,0l.6-.07.17.78a3.48,3.48,0,0,1-.69.17,4.54,4.54,0,0,1-.82.07,2.18,2.18,0,0,1-1.68-.64,2.83,2.83,0,0,1-.6-2v-6.2h-1.77V82h1.77V79.55Z"/><path class="cls-3" d="M517.82,91.49c-.07-.32-.13-.6-.16-.83a5.81,5.81,0,0,1,0-.72,4.27,4.27,0,0,1-1.52,1.24,4.52,4.52,0,0,1-2.13.5,3.45,3.45,0,0,1-2.34-.72,2.49,2.49,0,0,1-.82-2A2.39,2.39,0,0,1,512,86.91a6.25,6.25,0,0,1,3.32-.77h2.27V84.88a2,2,0,0,0-.7-1.6,3.11,3.11,0,0,0-2-.58,5.11,5.11,0,0,0-1.56.22,3.67,3.67,0,0,0-1.19.58l-.09,1.28h-.94V83a6,6,0,0,1,1.7-.83,7,7,0,0,1,2.11-.31,4.31,4.31,0,0,1,2.74.8,2.71,2.71,0,0,1,1,2.29v4.68c0,.19,0,.38,0,.55a4.52,4.52,0,0,0,.06.53l1,.06v.77Zm-3.74-.75a4.36,4.36,0,0,0,2.17-.52,3.2,3.2,0,0,0,1.36-1.37V87h-2.28a4.6,4.6,0,0,0-2.48.59,1.76,1.76,0,0,0-.92,1.5,1.51,1.51,0,0,0,.57,1.23A2.38,2.38,0,0,0,514.08,90.74Z"/><path class="cls-3" d="M529.16,82.76l-1.28.09,2.56,6.26.34,1.12h.05l.36-1.12,2.53-6.26-1.28-.09V82h3.45v.78l-1,.08-3.63,8.65h-.91l-3.64-8.65-1-.08V82h3.45Z"/><path class="cls-3" d="M537.07,90.72l1.55-.12V82.88l-1.55-.12V82h2.68V90.6l1.54.12v.77h-4.22Zm2.68-11.46h-1.13V77.78h1.13Z"/><path class="cls-3" d="M550.29,91.49a7.38,7.38,0,0,1-.16-.83,5.81,5.81,0,0,1,0-.72,4.27,4.27,0,0,1-1.52,1.24,4.52,4.52,0,0,1-2.13.5,3.45,3.45,0,0,1-2.34-.72,2.49,2.49,0,0,1-.82-2,2.37,2.37,0,0,1,1.22-2.09,6.23,6.23,0,0,1,3.32-.77h2.27V84.88a1.94,1.94,0,0,0-.71-1.6,3.06,3.06,0,0,0-2-.58,5.18,5.18,0,0,0-1.57.22,3.72,3.72,0,0,0-1.18.58l-.09,1.28h-.94V83a6,6,0,0,1,1.7-.83,7,7,0,0,1,2.11-.31,4.31,4.31,0,0,1,2.74.8,2.71,2.71,0,0,1,1,2.29v4.68c0,.19,0,.38,0,.55a3.07,3.07,0,0,0,.07.53l1,.06v.77Zm-3.74-.75a4.36,4.36,0,0,0,2.17-.52,3.2,3.2,0,0,0,1.36-1.37V87h-2.29a4.58,4.58,0,0,0-2.47.59,1.74,1.74,0,0,0-.92,1.5,1.51,1.51,0,0,0,.57,1.23A2.38,2.38,0,0,0,546.55,90.74Z"/><path class="cls-3" d="M554,86.82a5.84,5.84,0,0,1,1-3.65,3.46,3.46,0,0,1,2.91-1.36,3.77,3.77,0,0,1,1.89.44,3.7,3.7,0,0,1,1.33,1.25l.13-1.52h1v9.39a3.93,3.93,0,0,1-1.07,2.9,4.06,4.06,0,0,1-3,1.06,8.14,8.14,0,0,1-1.58-.16,7.28,7.28,0,0,1-1.47-.46l.3-.89a7.05,7.05,0,0,0,1.3.42,6.6,6.6,0,0,0,1.43.15,2.83,2.83,0,0,0,2.2-.8,3.15,3.15,0,0,0,.74-2.22V90.16a3.48,3.48,0,0,1-1.32,1.12,4.06,4.06,0,0,1-1.87.4A3.53,3.53,0,0,1,555,90.4a5.18,5.18,0,0,1-1-3.4Zm1.14.18a4.47,4.47,0,0,0,.76,2.74,2.61,2.61,0,0,0,2.25,1A3.41,3.41,0,0,0,560,90.3,3.09,3.09,0,0,0,561.1,89V84.6A3.4,3.4,0,0,0,560,83.24a3.09,3.09,0,0,0-1.87-.52,2.53,2.53,0,0,0-2.26,1.14,5.22,5.22,0,0,0-.77,3Z"/><path class="cls-3" d="M569.35,91.68a4.28,4.28,0,0,1-3.21-1.32A4.59,4.59,0,0,1,564.87,87v-.49a4.77,4.77,0,0,1,1.26-3.38,4.06,4.06,0,0,1,3.07-1.34,4,4,0,0,1,3,1.1,4.07,4.07,0,0,1,1.08,3v.89H566V87a4,4,0,0,0,.92,2.68,3,3,0,0,0,2.43,1.09,5.33,5.33,0,0,0,1.8-.27,3.69,3.69,0,0,0,1.28-.79l.49.72a4.15,4.15,0,0,1-1.47.9A6,6,0,0,1,569.35,91.68Zm-.15-9a2.85,2.85,0,0,0-2.12.89,3.74,3.74,0,0,0-1,2.24l0,0h6v-.27a2.88,2.88,0,0,0-.79-2.07A2.78,2.78,0,0,0,569.2,82.7Z"/><path class="cls-3" d="M575,82.76V82h2.55l.11,1.57A3.55,3.55,0,0,1,579,82.26a4,4,0,0,1,2-.45,3.41,3.41,0,0,1,2,.53A2.93,2.93,0,0,1,584.07,84a3.8,3.8,0,0,1,1.32-1.58,3.69,3.69,0,0,1,2.09-.57,3.18,3.18,0,0,1,2.54,1,4.59,4.59,0,0,1,.9,3.13v4.64l1.55.13v.77h-4.25v-.77l1.55-.13V85.93a3.66,3.66,0,0,0-.67-2.49,2.4,2.4,0,0,0-1.86-.72,2.65,2.65,0,0,0-2,.78,3.57,3.57,0,0,0-.88,2v5.1l1.55.12v.77h-4.23v-.77l1.55-.12V85.93a3.65,3.65,0,0,0-.68-2.47,2.44,2.44,0,0,0-1.87-.74,2.76,2.76,0,0,0-2.91,2.09V90.6l1.55.12v.77H575v-.77l1.55-.12V82.88Z"/><path class="cls-3" d="M595.66,91.49h-1.35V90h1.35Zm-.12-4.2h-1.13v-8.6h1.13Z"/><path class="cls-3" d="M405.32,181.32a3.41,3.41,0,0,1-1.32,1.15,4.19,4.19,0,0,1-1.9.41,3.52,3.52,0,0,1-2.88-1.28,5.23,5.23,0,0,1-1-3.4V178a5.9,5.9,0,0,1,1-3.65,3.43,3.43,0,0,1,2.9-1.36,4,4,0,0,1,1.86.41,3.64,3.64,0,0,1,1.31,1.19v-4.73l-1.55-.12V169h2.69V181.8l1.55.12v.77h-2.56Zm-6-3.12a4.52,4.52,0,0,0,.75,2.74,2.58,2.58,0,0,0,2.24,1,3.45,3.45,0,0,0,1.83-.45,3.16,3.16,0,0,0,1.14-1.26v-4.5a3.34,3.34,0,0,0-1.09-1.32,3.15,3.15,0,0,0-1.86-.51,2.54,2.54,0,0,0-2.26,1.14,5.28,5.28,0,0,0-.75,3Z"/><path class="cls-3" d="M409.65,181.92l1.54-.12v-7.72l-1.54-.12v-.78h2.67v8.62l1.55.12v.77h-4.22Zm2.67-11.46h-1.13V169h1.13Z"/><path class="cls-3" d="M415.83,178a5.84,5.84,0,0,1,1.05-3.65,3.43,3.43,0,0,1,2.9-1.36,3.84,3.84,0,0,1,1.9.44A3.75,3.75,0,0,1,423,174.7l.13-1.52h1v9.39a3.89,3.89,0,0,1-1.07,2.9,4,4,0,0,1-3,1.06,8.22,8.22,0,0,1-1.58-.16,7.28,7.28,0,0,1-1.47-.46l.31-.89a7,7,0,0,0,1.29.42,6.67,6.67,0,0,0,1.43.15,2.81,2.81,0,0,0,2.2-.8,3.1,3.1,0,0,0,.74-2.22v-1.21a3.33,3.33,0,0,1-1.32,1.12,4,4,0,0,1-1.86.4,3.55,3.55,0,0,1-2.9-1.28,5.17,5.17,0,0,1-1-3.4Zm1.14.18a4.54,4.54,0,0,0,.75,2.74,2.61,2.61,0,0,0,2.25,1,3.41,3.41,0,0,0,1.85-.46,3,3,0,0,0,1.13-1.29V175.8a3.32,3.32,0,0,0-1.09-1.36,3.07,3.07,0,0,0-1.87-.52,2.54,2.54,0,0,0-2.26,1.14,5.22,5.22,0,0,0-.76,3Z"/><path class="cls-3" d="M426.67,177.8a4.89,4.89,0,0,1,1.25-3.45,4.72,4.72,0,0,1,6.59,0,4.89,4.89,0,0,1,1.25,3.45v.29a4.93,4.93,0,0,1-1.24,3.45,4.73,4.73,0,0,1-6.6,0,4.89,4.89,0,0,1-1.25-3.45Zm1.14.29a4.29,4.29,0,0,0,.9,2.77,3.06,3.06,0,0,0,2.52,1.13,3,3,0,0,0,2.49-1.13,4.29,4.29,0,0,0,.9-2.77v-.29a4.23,4.23,0,0,0-.91-2.76,3.31,3.31,0,0,0-5,0,4.28,4.28,0,0,0-.9,2.76Z"/><path class="cls-3" d="M439.36,182.69h-1.3v-1.44h1.3Z"/><path class="cls-3" d="M443.79,182.69h-1.3v-1.44h1.3Z"/><path class="cls-3" d="M448.21,182.69h-1.3v-1.44h1.3Z"/><path class="cls-3" d="M455.07,181.15l1-.13,4.2-11.13h2.84L467.28,181l1,.13v1.54h-4.7v-1.54l1-.15-.61-1.76h-4.48l-.61,1.76,1,.15v1.54h-4.71Zm5-3.8h3.17l-1.55-4.51h-.06Z"/><path class="cls-3" d="M472.22,170.85v2.33H474V175h-1.81v4.85a1,1,0,0,0,.25.79.9.9,0,0,0,.66.23,3.78,3.78,0,0,0,.5,0c.14,0,.3,0,.48-.07l.24,1.85a6.33,6.33,0,0,1-.92.2,7.56,7.56,0,0,1-1,.07,3.15,3.15,0,0,1-2.21-.73,3.08,3.08,0,0,1-.77-2.31V175H468v-1.8h1.51v-2.33Z"/><path class="cls-3" d="M480.3,182.88a4.82,4.82,0,0,1-3.55-1.32,4.51,4.51,0,0,1-1.33-3.35v-.35a5,5,0,0,1,1.26-3.49,4.37,4.37,0,0,1,7.75,2.93v1.4H478.3l0,.05a2.34,2.34,0,0,0,.68,1.55,2.16,2.16,0,0,0,1.63.61,5.88,5.88,0,0,0,1.53-.17,8.08,8.08,0,0,0,1.33-.54l.75,1.58a5.51,5.51,0,0,1-1.65.78A7.5,7.5,0,0,1,480.3,182.88Zm-.17-13.4h2.93l0,.05-2.62,2.29h-2.22Zm-.08,5.5a1.48,1.48,0,0,0-1.21.55,2.68,2.68,0,0,0-.55,1.43l0,0h3.39v-.23a1.94,1.94,0,0,0-.41-1.31A1.55,1.55,0,0,0,480.05,175Z"/><path class="cls-3" d="M490.21,170.53V169h4.25v11.91l1.34.26v1.54h-5.45v-1.54l1.34-.26v-10.1Z"/><path class="cls-3" d="M496.51,177.85a4.87,4.87,0,0,1,1.29-3.49,5.36,5.36,0,0,1,7.11,0,4.85,4.85,0,0,1,1.29,3.49V178a4.86,4.86,0,0,1-1.29,3.5,5.36,5.36,0,0,1-7.11,0,4.86,4.86,0,0,1-1.29-3.5Zm2.77.18a3.87,3.87,0,0,0,.5,2.09,1.72,1.72,0,0,0,1.59.79,1.74,1.74,0,0,0,1.57-.79,3.92,3.92,0,0,0,.5-2.09v-.18a3.92,3.92,0,0,0-.5-2.07,1.76,1.76,0,0,0-1.59-.8,1.7,1.7,0,0,0-1.57.8,3.92,3.92,0,0,0-.5,2.07Z"/><path class="cls-3" d="M507.58,178a5.84,5.84,0,0,1,1.05-3.63,3.54,3.54,0,0,1,3-1.38,3.22,3.22,0,0,1,1.52.35,3.29,3.29,0,0,1,1.12,1l.2-1.2h2.41v9.23a3.81,3.81,0,0,1-1.28,3,5.11,5.11,0,0,1-3.5,1.12,7.15,7.15,0,0,1-1.66-.2,7.81,7.81,0,0,1-1.61-.54l.51-1.8a8.86,8.86,0,0,0,1.33.42,6.35,6.35,0,0,0,1.41.15,1.94,1.94,0,0,0,1.52-.57,2.35,2.35,0,0,0,.5-1.59v-.62a3,3,0,0,1-1.07.81,3.4,3.4,0,0,1-1.42.29,3.61,3.61,0,0,1-2.95-1.29,5.2,5.2,0,0,1-1.05-3.39Zm2.77.18a3.65,3.65,0,0,0,.45,2,1.63,1.63,0,0,0,1.48.72,2.48,2.48,0,0,0,1.08-.21,1.8,1.8,0,0,0,.71-.63v-4.13a1.83,1.83,0,0,0-.71-.67,2.18,2.18,0,0,0-1.06-.24,1.58,1.58,0,0,0-1.48.84,4.33,4.33,0,0,0-.47,2.18Z"/><path class="cls-3" d="M518.51,177.85a4.87,4.87,0,0,1,1.29-3.49,5.36,5.36,0,0,1,7.11,0,4.85,4.85,0,0,1,1.29,3.49V178a4.86,4.86,0,0,1-1.29,3.5,5.36,5.36,0,0,1-7.11,0,4.86,4.86,0,0,1-1.29-3.5Zm2.77.18a3.87,3.87,0,0,0,.5,2.09,1.72,1.72,0,0,0,1.59.79,1.74,1.74,0,0,0,1.57-.79,3.92,3.92,0,0,0,.5-2.09v-.18a3.92,3.92,0,0,0-.5-2.07,1.76,1.76,0,0,0-1.59-.8,1.7,1.7,0,0,0-1.57.8,3.92,3.92,0,0,0-.5,2.07Z"/><path class="cls-3" d="M532.71,178.28h-2.77v-8.39h2.77Zm0,4.41h-2.77v-2.25h2.77Z"/><path class="cls-3" d="M344,132.33a7.15,7.15,0,0,1-1.68,5.14,6,6,0,0,1-4.54,1.75,6.09,6.09,0,0,1-4.57-1.75,7.15,7.15,0,0,1-1.68-5.14v-3.76a7.17,7.17,0,0,1,1.68-5.14,6,6,0,0,1,4.55-1.77,6,6,0,0,1,4.55,1.77,7.17,7.17,0,0,1,1.69,5.14Zm-8.79-3.2h5.1v-.92a5.26,5.26,0,0,0-.66-3,2.38,2.38,0,0,0-3.79,0,5.31,5.31,0,0,0-.65,3Zm5.1,2.54h-5.1v1a5.43,5.43,0,0,0,.65,3,2.21,2.21,0,0,0,1.92.93,2.15,2.15,0,0,0,1.89-.93,5.44,5.44,0,0,0,.64-3Z"/><path class="cls-3" d="M358.43,126.3v8.63a2.44,2.44,0,0,0,.22,1.23.75.75,0,0,0,.68.35h.14l.12,0,.32,2.45a2.9,2.9,0,0,1-.76.24,4.19,4.19,0,0,1-.84.07,3.77,3.77,0,0,1-2-.48,2.89,2.89,0,0,1-1.21-1.44,4.38,4.38,0,0,1-1.48,1.43,4.12,4.12,0,0,1-2,.49,4.79,4.79,0,0,1-3.93-1.71,6.9,6.9,0,0,1-1.41-4.53v-.24a7.73,7.73,0,0,1,1.41-4.84,4.67,4.67,0,0,1,4-1.84,3.84,3.84,0,0,1,1.88.45,4.38,4.38,0,0,1,1.41,1.28l.28-1.49ZM350,133a5,5,0,0,0,.6,2.65,2.12,2.12,0,0,0,1.95,1,2.63,2.63,0,0,0,1.3-.3,2.42,2.42,0,0,0,.89-.88c0-.06,0-.13,0-.21V130a2.58,2.58,0,0,0-.88-.94,2.38,2.38,0,0,0-1.27-.33,2.09,2.09,0,0,0-2,1.12,6.07,6.07,0,0,0-.62,2.93Z"/><path class="cls-3" d="M381.48,128.94h-3.26a6.63,6.63,0,0,1,1.64,1.83,4.23,4.23,0,0,1,.64,2.23v.24a5.83,5.83,0,0,1-1.67,4.28,6.15,6.15,0,0,1-4.58,1.7,6.26,6.26,0,0,1-4.77-1.8,6.48,6.48,0,0,1-1.71-4.66v-.25a6.13,6.13,0,0,1,1.71-4.48,6.34,6.34,0,0,1,4.74-1.74h7.26Zm-10,3.82a5.15,5.15,0,0,0,.66,2.78,2.33,2.33,0,0,0,2.13,1.05,2.09,2.09,0,0,0,1.94-1.05,5.38,5.38,0,0,0,.62-2.78v-.25a4.73,4.73,0,0,0-.62-2.57,2.16,2.16,0,0,0-2-1,2.32,2.32,0,0,0-2.09,1,4.53,4.53,0,0,0-.67,2.57Z"/><path class="cls-3" d="M395.86,126.3v8.63a2.44,2.44,0,0,0,.22,1.23.76.76,0,0,0,.68.35h.14l.13,0,.31,2.45a3,3,0,0,1-.75.24,4.19,4.19,0,0,1-.84.07,3.77,3.77,0,0,1-2-.48,2.91,2.91,0,0,1-1.22-1.44,4.35,4.35,0,0,1-1.47,1.43,4.15,4.15,0,0,1-2,.49,4.82,4.82,0,0,1-3.94-1.71,6.9,6.9,0,0,1-1.41-4.53v-.24a7.73,7.73,0,0,1,1.41-4.84,4.69,4.69,0,0,1,4-1.84,3.82,3.82,0,0,1,1.88.45,4.38,4.38,0,0,1,1.41,1.28l.28-1.49ZM387.43,133a5,5,0,0,0,.6,2.65,2.14,2.14,0,0,0,2,1,2.63,2.63,0,0,0,1.3-.3,2.58,2.58,0,0,0,.89-.88,1.34,1.34,0,0,1,0-.21V130a2.69,2.69,0,0,0-.89-.94,2.38,2.38,0,0,0-1.27-.33,2.1,2.1,0,0,0-2,1.12,6.07,6.07,0,0,0-.62,2.93Z"/><path class="cls-3" d="M405.2,126.06a6,6,0,0,1,4.06,1.3,4.29,4.29,0,0,1,1.48,3.55l0,.07h-3.36a2.43,2.43,0,0,0-.55-1.64,2,2,0,0,0-1.61-.65,2.15,2.15,0,0,0-2,1.07,5.36,5.36,0,0,0-.61,2.71v.35a3.25,3.25,0,0,0,.75,2.32,5.11,5.11,0,0,0,2.44,1.25,10.82,10.82,0,0,1,3,1.11,2.28,2.28,0,0,1,.9,1.92,3.5,3.5,0,0,1-.9,2.09,7.69,7.69,0,0,1-2,1.84l-1.93-1.3a5.09,5.09,0,0,0,.88-1.08,1.82,1.82,0,0,0,.29-.91.88.88,0,0,0-.33-.72,2.56,2.56,0,0,0-1-.41,8.87,8.87,0,0,1-4.35-2.14,5.45,5.45,0,0,1-1.4-4v-.35a6.57,6.57,0,0,1,1.65-4.6A6,6,0,0,1,405.2,126.06Z"/><path class="cls-3" d="M420.2,124.31a3.15,3.15,0,0,1,1.43-2.75,6.78,6.78,0,0,1,4-1,7.65,7.65,0,0,1,1.88.25,12.93,12.93,0,0,1,2,.72l-.56,2.17a15.26,15.26,0,0,0-1.51-.44,7.08,7.08,0,0,0-1.65-.19,2.94,2.94,0,0,0-1.49.32,1,1,0,0,0-.54.84,1.28,1.28,0,0,0,.41.86,4.07,4.07,0,0,0,1.57.8,10,10,0,0,1,4.47,2.63,5.91,5.91,0,0,1,1.5,4.1v.23a6.26,6.26,0,0,1-1.75,4.58,6.35,6.35,0,0,1-4.74,1.78,6.49,6.49,0,0,1-4.79-1.74,6.05,6.05,0,0,1-1.74-4.47v-.24a5.3,5.3,0,0,1,1.11-3.35,4.94,4.94,0,0,1,2.77-1.83l.05-.13a4.57,4.57,0,0,1-1.74-1.3A2.86,2.86,0,0,1,420.2,124.31Zm2.11,8.4a5.07,5.07,0,0,0,.71,2.79,2.39,2.39,0,0,0,2.14,1.09,2.34,2.34,0,0,0,2.09-1.09,5,5,0,0,0,.72-2.79v-.23a4.09,4.09,0,0,0-.79-2.41,3.2,3.2,0,0,0-2-1.38,2.4,2.4,0,0,0-2.12,1.09,4.69,4.69,0,0,0-.73,2.7Z"/><path class="cls-3" d="M433.19,132.51a6.45,6.45,0,0,1,1.72-4.64,7.14,7.14,0,0,1,9.49,0,6.51,6.51,0,0,1,1.71,4.65v.25a6.48,6.48,0,0,1-1.71,4.66,7.15,7.15,0,0,1-9.49,0,6.45,6.45,0,0,1-1.72-4.66Zm3.7.25a5.15,5.15,0,0,0,.66,2.78,2.65,2.65,0,0,0,4.22,0,5.18,5.18,0,0,0,.66-2.78v-.25a5.07,5.07,0,0,0-.67-2.75,2.32,2.32,0,0,0-2.11-1.07,2.27,2.27,0,0,0-2.1,1.07,5.16,5.16,0,0,0-.66,2.75Z"/><path class="cls-3" d="M453,134.09a3.34,3.34,0,0,0,.43,1.91,1.34,1.34,0,0,0,1.15.59,2.29,2.29,0,0,0,2-1.29,5.58,5.58,0,0,0,.77-3,15.57,15.57,0,0,0-.37-3,23,23,0,0,0-.92-3h3.52a13,13,0,0,1,1.05,2.74,12.78,12.78,0,0,1,.4,3.31,7.57,7.57,0,0,1-1.58,5,5.86,5.86,0,0,1-4.77,1.91,5.74,5.74,0,0,1-4-1.28,4.94,4.94,0,0,1-1.42-3.88v-4.29a1,1,0,0,0-.22-.74,1,1,0,0,0-.68-.21,2.25,2.25,0,0,0-.4,0l-.46.1-.38-2.32a5.86,5.86,0,0,1,1.26-.4,7.49,7.49,0,0,1,1.55-.16,3.32,3.32,0,0,1,2.23.68,2.56,2.56,0,0,1,.79,2.06ZM454.29,120h3.52l-2.66,4.26h-1.82Z"/><path class="cls-3" d="M473.56,138.18a3.67,3.67,0,0,1-1.27.77,4.44,4.44,0,0,1-1.58.27,4.91,4.91,0,0,1-1.18-.13,3.09,3.09,0,0,1-1-.38v5.14h-3.68V128.71l-2-.36v-2.06h5.66v7.27a3.69,3.69,0,0,0,.56,2.37,2.17,2.17,0,0,0,1.7.63,3.59,3.59,0,0,0,1.6-.32,2.3,2.3,0,0,0,1-1v-6.58l-2-.36v-2.06h5.66v10.28l1.78.35V139h-5.21Z"/><path class="cls-3" d="M486.53,133.6a3.74,3.74,0,0,0-1.86.38,1.26,1.26,0,0,0-.66,1.18,1.34,1.34,0,0,0,.66,1.11,3.15,3.15,0,0,0,1.84.46,3.35,3.35,0,0,0,1.85-.43,1.28,1.28,0,0,0,.67-1.08h3.56l0,.07a3.05,3.05,0,0,1-1.71,2.91,8.37,8.37,0,0,1-4.2,1,9.23,9.23,0,0,1-4.59-1,3.11,3.11,0,0,1-1.79-2.79,2.6,2.6,0,0,1,.67-1.81,4.09,4.09,0,0,1,1.93-1.14,4.18,4.18,0,0,1-1.74-1.13,2.32,2.32,0,0,1-.62-1.55,3,3,0,0,1,1.68-2.72,8.83,8.83,0,0,1,4.46-1,7.47,7.47,0,0,1,4.09,1.05,3,3,0,0,1,1.59,2.75l0,.07h-3.56a1.12,1.12,0,0,0-.64-1,3.25,3.25,0,0,0-1.65-.38,2.75,2.75,0,0,0-1.69.44,1.28,1.28,0,0,0-.56,1,1.14,1.14,0,0,0,.58,1,3.12,3.12,0,0,0,1.68.37h2.37v2.21Z"/><path class="cls-3" d="M514.3,128.94H511a6.51,6.51,0,0,1,1.65,1.83,4.31,4.31,0,0,1,.63,2.23v.24a5.83,5.83,0,0,1-1.67,4.28,6.13,6.13,0,0,1-4.58,1.7,6.29,6.29,0,0,1-4.77-1.8,6.48,6.48,0,0,1-1.71-4.66v-.25a6.13,6.13,0,0,1,1.71-4.48,6.37,6.37,0,0,1,4.74-1.74h7.27Zm-10,3.82a5.15,5.15,0,0,0,.65,2.78,2.33,2.33,0,0,0,2.13,1.05,2.1,2.1,0,0,0,1.95-1.05,5.48,5.48,0,0,0,.62-2.78v-.25a4.73,4.73,0,0,0-.63-2.57,2.15,2.15,0,0,0-2-1,2.32,2.32,0,0,0-2.09,1,4.6,4.6,0,0,0-.66,2.57Z"/><path class="cls-3" d="M521.35,134.09a3.27,3.27,0,0,0,.43,1.91,1.33,1.33,0,0,0,1.15.59,2.3,2.3,0,0,0,2-1.29,5.68,5.68,0,0,0,.77-3,15.59,15.59,0,0,0-.38-3,21.57,21.57,0,0,0-.92-3H528a13,13,0,0,1,1,2.74,12.77,12.77,0,0,1,.41,3.31,7.52,7.52,0,0,1-1.59,5,5.85,5.85,0,0,1-4.76,1.91,5.74,5.74,0,0,1-4-1.28,4.94,4.94,0,0,1-1.43-3.88v-4.29a1,1,0,0,0-.22-.74.94.94,0,0,0-.67-.21,2.17,2.17,0,0,0-.4,0l-.46.1-.38-2.32a5.86,5.86,0,0,1,1.26-.4,7.32,7.32,0,0,1,1.54-.16,3.35,3.35,0,0,1,2.24.68,2.56,2.56,0,0,1,.79,2.06ZM522.66,120h3.52l-2.66,4.26H521.7Z"/><path class="cls-3" d="M537.17,128.35l-1.29.23,1.8,5.67.24,1.19H538l.27-1.19,1.78-5.66-1.32-.24v-2.06H545v2.06l-1.19.18-4,10.44h-3.53l-4.05-10.44-1.19-.18v-2.06h6.22Z"/><path class="cls-3" d="M557.3,126.29v2.62h-3.91v6.3a1.48,1.48,0,0,0,.28,1,1.12,1.12,0,0,0,.87.3,4,4,0,0,0,.58,0l.65-.17.38,2.46a6.08,6.08,0,0,1-1.13.32,7.37,7.37,0,0,1-1.23.09,4.3,4.3,0,0,1-3-1,4.06,4.06,0,0,1-1.06-3.06v-6.25H546v-2.62Z"/><path class="cls-3" d="M558.49,132.51a6.48,6.48,0,0,1,1.71-4.64,7.15,7.15,0,0,1,9.5,0,6.51,6.51,0,0,1,1.71,4.65v.25a6.48,6.48,0,0,1-1.71,4.66,7.17,7.17,0,0,1-9.5,0,6.48,6.48,0,0,1-1.71-4.66Zm3.69.25a5.15,5.15,0,0,0,.66,2.78,2.33,2.33,0,0,0,2.13,1.05,2.29,2.29,0,0,0,2.09-1.05,5.09,5.09,0,0,0,.67-2.78v-.25a5.16,5.16,0,0,0-.67-2.75,2.32,2.32,0,0,0-2.12-1.07,2.29,2.29,0,0,0-2.1,1.07,5.16,5.16,0,0,0-.66,2.75Z"/><path class="cls-3" d="M583.6,138.18a3.77,3.77,0,0,1-1.27.77,4.48,4.48,0,0,1-1.58.27,4.93,4.93,0,0,1-1.19-.13,3.28,3.28,0,0,1-1-.38v5.14h-3.68V128.71l-2-.36v-2.06h5.65v7.27a3.62,3.62,0,0,0,.57,2.37,2.15,2.15,0,0,0,1.7.63,3.54,3.54,0,0,0,1.59-.32,2.38,2.38,0,0,0,1-1v-6.58l-2-.36v-2.06h5.65v10.28l1.79.35V139h-5.22Z"/><path class="cls-3" d="M602.64,126.3v8.63a2.55,2.55,0,0,0,.22,1.23.76.76,0,0,0,.68.35h.15l.12,0,.31,2.45a3,3,0,0,1-.75.24,4.19,4.19,0,0,1-.84.07,3.77,3.77,0,0,1-2-.48,2.91,2.91,0,0,1-1.22-1.44,4.26,4.26,0,0,1-1.47,1.43,4.15,4.15,0,0,1-2,.49,4.82,4.82,0,0,1-3.94-1.71,6.89,6.89,0,0,1-1.4-4.53v-.24a7.73,7.73,0,0,1,1.4-4.84,4.69,4.69,0,0,1,4-1.84,3.82,3.82,0,0,1,1.88.45,4.18,4.18,0,0,1,1.41,1.28l.28-1.49ZM594.21,133a5,5,0,0,0,.61,2.65,2.12,2.12,0,0,0,1.95,1,2.63,2.63,0,0,0,1.3-.3,2.5,2.5,0,0,0,.89-.88,1.34,1.34,0,0,1,0-.21V130a2.6,2.6,0,0,0-.89-.94,2.32,2.32,0,0,0-1.26-.33,2.11,2.11,0,0,0-2,1.12,6.07,6.07,0,0,0-.62,2.93Z"/><path class="cls-3" d="M609.84,133.09h-3.69V121.91h3.69Zm0,5.88h-3.69v-3h3.69Z"/><circle class="cls-4" cx="91" cy="128.4" r="88"/><path class="cls-3" d="M91,43.4a85,85,0,1,1-85,85,85,85,0,0,1,85-85m0-6a91,91,0,1,0,91,91,91.1,91.1,0,0,0-91-91Z"/><path class="cls-2" d="M90.78,43.55a84.78,84.78,0,1,0,84.77,84.78A84.78,84.78,0,0,0,90.78,43.55Zm0,163.91a79.13,79.13,0,1,1,79.12-79.13A79.13,79.13,0,0,1,90.78,207.46Z"/><path class="cls-2" d="M130.79,66.75a2.86,2.86,0,0,0-2.13-.4,2.82,2.82,0,0,0-1.79,1.22l-4.62,7.11a2.81,2.81,0,0,0,.9,3.95c1.09.7,2.15,1.46,3.17,2.26.63.49,1.27,1,1.77,1.32.88.73,1.72,1.49,2.56,2.26l-2,2a56.49,56.49,0,0,0-12.39-8.49l5.78-13a2.79,2.79,0,0,0,.06-2.16,2.83,2.83,0,0,0-1.49-1.57,73.66,73.66,0,0,0-26-6.2,2.82,2.82,0,0,0-3,2.67l-.44,8.47a2.84,2.84,0,0,0,2.67,3l3,.15,3.17.48,1.22.19c.61.09,1.22.17,1.76.29l.39.1-.74,2.77a57.91,57.91,0,0,0-15-1.21L86.21,57.78a2.75,2.75,0,0,0-1-1.9,2.78,2.78,0,0,0-2.07-.62,72.94,72.94,0,0,0-25.68,7.65,2.82,2.82,0,0,0-1.23,3.8l3.86,7.55a2.82,2.82,0,0,0,3.7,1.28c.57-.26,1.13-.54,1.69-.81a30.55,30.55,0,0,1,4-1.74l.73-.27c.85-.31,1.67-.62,2.49-.89l.73,2.73c-.7.24-1.37.49-2,.74l-.67.25a27.26,27.26,0,0,0-4,1.7l-1.7.83-4.79,2.76L59.9,81,51.57,69.57a2.84,2.84,0,0,0-4-.63A73.57,73.57,0,0,0,29.19,88.32,2.83,2.83,0,0,0,30,92.24l7.11,4.62a2.8,2.8,0,0,0,2.16.39A2.84,2.84,0,0,0,41.08,96a34.82,34.82,0,0,1,2.25-3.16c.49-.64,1-1.28,1.33-1.78.72-.88,1.48-1.72,2.25-2.56l2,2a56.32,56.32,0,0,0-8.49,12.38L27.42,97a2.84,2.84,0,0,0-3.74,1.44,74.15,74.15,0,0,0-6.2,26,2.83,2.83,0,0,0,2.68,3l8.47.43a2.79,2.79,0,0,0,3-2.67l.15-3,.48-3.17c.08-.41.13-.82.19-1.23.09-.61.18-1.22.3-1.75l.1-.39,2.77.74a57.48,57.48,0,0,0-1.22,15L20.22,132.9a2.81,2.81,0,0,0-2.51,3.1,73.63,73.63,0,0,0,7.65,25.68,2.8,2.8,0,0,0,1.64,1.4,2.85,2.85,0,0,0,2.16-.17l7.55-3.86a2.82,2.82,0,0,0,1.27-3.7c-.26-.56-.53-1.11-.8-1.67a29.75,29.75,0,0,1-1.75-4.06l-.27-.75c-.32-.84-.62-1.66-.89-2.47l2.77-.74a55.69,55.69,0,0,0,6.45,13.53L32,167.54a2.85,2.85,0,0,0-1.13,1.84,2.89,2.89,0,0,0,.51,2.11,73.58,73.58,0,0,0,19.38,18.43,2.84,2.84,0,0,0,3.91-.83L59.3,182a2.8,2.8,0,0,0,.39-2.16A2.83,2.83,0,0,0,58.41,178a35.65,35.65,0,0,1-3.17-2.26c-.64-.49-1.28-1-1.77-1.32-.88-.72-1.72-1.48-2.56-2.25l2-2c.75.69,1.53,1.39,2.47,2.16.55.39,1.09.8,1.62,1.21a34.36,34.36,0,0,0,3.15,2.22l5.05,2.89.06,0-5.79,13a2.82,2.82,0,0,0,1.43,3.73,73.94,73.94,0,0,0,26,6.21h.15A2.83,2.83,0,0,0,89.91,199l.44-8.47a2.82,2.82,0,0,0-2.67-3l-3-.15-3.17-.49-1.22-.18c-.62-.09-1.23-.18-1.76-.3l-.39-.1.74-2.77a57.41,57.41,0,0,0,15,1.21l1.46,14.14a2.81,2.81,0,0,0,3.11,2.52,72.8,72.8,0,0,0,25.68-7.65,2.82,2.82,0,0,0,1.23-3.8l-3.86-7.55a2.83,2.83,0,0,0-3.7-1.28l-1.7.82a28.22,28.22,0,0,1-4,1.73l-.72.27c-.85.32-1.67.62-2.49.9l-.74-2.77a56.21,56.21,0,0,0,13.52-6.46L130,187.1a2.82,2.82,0,0,0,3.94.62,73.41,73.41,0,0,0,18.43-19.38,2.81,2.81,0,0,0,.4-2.13,2.84,2.84,0,0,0-1.22-1.78l-7.11-4.63a2.85,2.85,0,0,0-4,.9,33.48,33.48,0,0,1-2.25,3.16c-.49.64-1,1.29-1.32,1.78-.73.88-1.49,1.72-2.26,2.56l-1.95-2a56,56,0,0,0,8.48-12.38l13,5.78a2.84,2.84,0,0,0,3.73-1.43,73.72,73.72,0,0,0,6.2-26.05,2.83,2.83,0,0,0-2.68-3l-8.46-.44a2.85,2.85,0,0,0-3,2.67l-.15,3-.48,3.16c-.07.41-.13.82-.19,1.23-.09.61-.17,1.22-.29,1.75l-.1.39-2.73-.73,0-.06c.15-.66.25-1.33.34-2,.05-.31.09-.62.15-1l.43-2.78a2.89,2.89,0,0,0,0-.29l.14-3v-5.9l14.2-1.47a2.85,2.85,0,0,0,1.9-1,2.88,2.88,0,0,0,.62-2.08A73.91,73.91,0,0,0,156.2,95a2.83,2.83,0,0,0-3.8-1.22l-7.55,3.85a2.82,2.82,0,0,0-1.28,3.71c.26.56.53,1.11.8,1.66a28.68,28.68,0,0,1,1.75,4.07l.27.74c.32.84.62,1.66.89,2.47l-2.77.74a55.8,55.8,0,0,0-6.45-13.52l11.48-8.36a2.81,2.81,0,0,0,1.13-1.84,2.76,2.76,0,0,0-.51-2.1A73.22,73.22,0,0,0,130.79,66.75Zm1.72,27.78a2.83,2.83,0,0,0-.63,4,50.12,50.12,0,0,1,8,16.69,2.83,2.83,0,0,0,3.46,2L151.5,115a2.84,2.84,0,0,0,2-3.33,41.26,41.26,0,0,0-1.85-5.84l-.22-.6a29.15,29.15,0,0,0-1.59-3.83l2.52-1.29a68,68,0,0,1,5.47,18.34l-14,1.46a2.81,2.81,0,0,0-2.53,2.95l.14,2.74V131l-.14,2.66-.41,2.6c-.06.37-.11.74-.17,1.11a13.19,13.19,0,0,1-.23,1.42l-.7,2.72a2.82,2.82,0,0,0,2,3.44l8.19,2.19a2.82,2.82,0,0,0,3.47-2l.83-3.22c.17-.75.29-1.52.4-2.29,0-.36.1-.72.17-1.13l.52-3.49,0-.43,2.77.14a68.19,68.19,0,0,1-4.42,18.61L141,147.57a2.81,2.81,0,0,0-3.73,1.44,50.66,50.66,0,0,1-10.48,15.29,2.84,2.84,0,0,0,0,4l6,6a2.76,2.76,0,0,0,2.08.83,2.87,2.87,0,0,0,2-1l1.53-1.68c1-1.07,2-2.13,3-3.4.43-.61.88-1.2,1.33-1.79.32-.41.64-.83.95-1.25l2.37,1.54a67.58,67.58,0,0,1-13.17,13.85l-8.28-11.38a2.82,2.82,0,0,0-4-.62,50.61,50.61,0,0,1-16.69,8,2.78,2.78,0,0,0-1.72,1.31,2.83,2.83,0,0,0-.29,2.15l2.2,8.19a2.82,2.82,0,0,0,3.32,2,41.93,41.93,0,0,0,5.86-1.85l.58-.22a29.92,29.92,0,0,0,3.83-1.58L119,190a68.82,68.82,0,0,1-18.35,5.47l-1.45-14a2.8,2.8,0,0,0-1-1.91,2.87,2.87,0,0,0-2.07-.62,51.8,51.8,0,0,1-18.51-1.5,2.82,2.82,0,0,0-3.46,2L72,187.6a2.84,2.84,0,0,0,2,3.47l3.21.82c.76.18,1.53.29,2.3.4l1.12.17,3.49.52.44,0-.15,2.77a68.5,68.5,0,0,1-18.6-4.43l5.73-12.84a2.83,2.83,0,0,0-1.36-3.7l-2.34-1.12L63,170.92a27.31,27.31,0,0,1-2.57-1.84c-.61-.45-1.2-.91-1.64-1.21-.82-.67-1.6-1.39-2.38-2.11-.58-.53-1.16-1.07-1.76-1.59a2.84,2.84,0,0,0-3.86.13l-6,6a2.82,2.82,0,0,0,.12,4.11l1.66,1.5c1.07,1,2.15,2,3.42,3,.61.43,1.19.88,1.78,1.33l1.26,1-1.54,2.37a67.58,67.58,0,0,1-13.85-13.17l11.38-8.28a2.82,2.82,0,0,0,.62-3.95,50.66,50.66,0,0,1-8-16.7,2.83,2.83,0,0,0-3.45-2l-8.2,2.19A2.83,2.83,0,0,0,28,145a42.12,42.12,0,0,0,1.84,5.84l.23.61a29.67,29.67,0,0,0,1.58,3.83l-2.51,1.29a68.48,68.48,0,0,1-5.48-18.35l14-1.45a2.82,2.82,0,0,0,2.52-3.09,52,52,0,0,1,1.51-18.5,2.79,2.79,0,0,0-.28-2.15,2.86,2.86,0,0,0-1.72-1.32l-8.19-2.19a2.86,2.86,0,0,0-3.47,2l-.82,3.22c-.18.76-.29,1.52-.4,2.29-.05.36-.1.72-.17,1.13l-.52,3.49,0,.43L23.33,122a68.93,68.93,0,0,1,4.42-18.61l12.85,5.73a2.82,2.82,0,0,0,2.17.06,2.87,2.87,0,0,0,1.57-1.49,50.68,50.68,0,0,1,10.47-15.3,2.82,2.82,0,0,0,0-4l-6-6a2.79,2.79,0,0,0-2.08-.82,2.82,2.82,0,0,0-2,.94c-.5.57-1,1.13-1.53,1.69-1,1.06-2,2.13-3,3.4-.43.6-.89,1.2-1.34,1.79l-1,1.25-2.37-1.55A67.84,67.84,0,0,1,48.69,75.22L57,86.6a2.82,2.82,0,0,0,4,.62l.65-.49a9.24,9.24,0,0,1,1.39-1l4.62-2.68q.82-.37,1.62-.78a22.39,22.39,0,0,1,3.31-1.41l.85-.32a29,29,0,0,1,4.09-1.29,2.84,2.84,0,0,0,2.16-3.5l-2.19-8.19a2.81,2.81,0,0,0-3.32-2,41.11,41.11,0,0,0-5.86,1.85l-.59.22a28.32,28.32,0,0,0-3.83,1.58l-1.29-2.52a68.46,68.46,0,0,1,18.35-5.47l1.45,14a2.81,2.81,0,0,0,3.08,2.52,52,52,0,0,1,18.51,1.51,2.83,2.83,0,0,0,3.46-2l2.19-8.19a2.83,2.83,0,0,0-2-3.47l-3.22-.83c-.76-.17-1.52-.29-2.29-.4l-1.13-.17-3.49-.52-.44,0,.15-2.78a68.42,68.42,0,0,1,18.6,4.43L110,78.16a2.81,2.81,0,0,0,1.44,3.73,51,51,0,0,1,15.29,10.48,2.82,2.82,0,0,0,4,0l6-6a2.79,2.79,0,0,0,.82-2.08,2.82,2.82,0,0,0-.94-2L135,80.75c-1.08-1-2.15-2-3.43-3-.6-.43-1.19-.88-1.78-1.33l-1.26-1L130,73.08a68.1,68.1,0,0,1,13.85,13.17Z"/><path class="cls-2" d="M90.78,83.12a45.12,45.12,0,0,0-39,68,2.75,2.75,0,0,0,.17.29,45.43,45.43,0,0,0,11.53,12.9c.07,0,.11.12.19.17l.06,0a44.88,44.88,0,0,0,54.06,0s0,0,.07,0,.13-.12.2-.17a45.4,45.4,0,0,0,11.52-12.9,1.75,1.75,0,0,0,.18-.29,45.13,45.13,0,0,0-39-68Zm-5.1,6L54.32,143.69A39.51,39.51,0,0,1,85.68,89.14ZM68.81,161.22l22-38.19,22,38.18a39.44,39.44,0,0,1-43.93,0Zm48.41-3.55L94.45,118.09a4.24,4.24,0,0,0-7.35,0L64.33,157.67a39.8,39.8,0,0,1-6.88-8.1l33.33-58,6.46,11.21c0,.09.08.17.13.26l26.73,46.5a39.49,39.49,0,0,1-6.88,8.1Zm10-14L102.4,100.47c0-.08-.08-.17-.13-.25L95.88,89.14a39.52,39.52,0,0,1,31.36,54.54Z"/><g class="cls-5"><path class="cls-6" d="M81.72,3.59a6.62,6.62,0,0,1,4.72,2.15,11.58,11.58,0,0,1,2.86-.37,10.41,10.41,0,0,1,7.75,3.52c8.52,3.2,5.14,8.33,4.94,8.62h.1s5,3.5,3.28,5.21c0,0,3.09,3.83.62,5.88a2.84,2.84,0,0,1-.89.45c7,10.91,11.18,30.17,8.42,46.05-.54,3.15-4.14,5.41-13.82,5.41h0a51.26,51.26,0,0,1-9.37-.83c.1.74.2,1.54.31,2.35h0c.49,3.46,1.19,7.4,2,8,4.94,3.7,12.3,5.24,16.44,5.84l6,.56a14.41,14.41,0,0,1,1.33,1.51h.07c1.8,0,3.22,2,3.22,2l23.64,41.37-20.4,36.59s6.85,11.51,3.42,16.71l4.73,4.73s.75,2.53-2.67,2.53a10.28,10.28,0,0,1-4-1.29,259,259,0,0,1,.94,26.81,24.66,24.66,0,0,0-2.76-.42v1.75h0c-.06,12.16,0,29.72.7,33.73,1.13,6.26,0,9.34,0,9.34s3.08,48.76,3.08,49.14,4.31,5.92,4.31,5.92,5.71,4.49,10.15,8.05h0a13,13,0,0,1,3.71,1.57,3.58,3.58,0,0,1,1.12,2.33c.3.2.79.54,1.35.94a14.53,14.53,0,0,0,3.85.72c.61.61,0,1.27-.79,1.8.44.48.71.89.63,1.16-.29,1.07-4.42,5.42-11.88,5.42-.42,0-.86,0-1.3,0-7.84-.52-18.71-8.87-19.6-11.2a6.91,6.91,0,0,1,.12-4.69,13,13,0,0,1,1.86-5.55c1-1.85,1.74-7.09,1.74-7.09-11.3-39.64-4.83-45.22-6.06-48.1-.78-1.83-7.76-27.78-12.75-46.45h0l0-.09c-.29-1.08-.57-2.13-.84-3.16a13.62,13.62,0,0,1-2.58-1.52,80.48,80.48,0,0,1-13.56,5.37l-1.43,3.6L70.9,263.63s-2.56,9.4-5.59,12.43a133.76,133.76,0,0,1-7.49,21.67c-5.14,11.5-7.4,27.32-7.4,27.32s3.68,9.35,4.11,15.18c4.33,5.93,8.22,13.24,3.06,15.4a29.7,29.7,0,0,1-11.21,2c-6.21,0-11.79-1.46-13.08-2.76-2.09-2.08,3.84-17.9,3.84-17.9.18-1.44.58-2.83,1.42-3.41a25.75,25.75,0,0,0,4.52-4.93s-.77-2.06,1.38-4.83,5.34-20.56,5.34-22.89-2.87-19.72,6.72-26.57c0,0,1.09-22.24,3.9-38.32h0c.31-1.82.64-3.56,1-5.19-2.94.25-4.71.28-4.71.28s2.84-7.93,6.48-18.14c-3.1-.3-1.06-5.11-1.06-5.11a25.76,25.76,0,0,0,3.64-2.15c.4-1.1.79-2.22,1.19-3.34-1-2.53,1.54-10.4,1.54-10.4l-9.42-7.1L31.73,164.2s22-51.84,22.87-52.73c.57-.57,4.82-3.06,7.75-4.75,3.06-3.06,9.64-5.48,9.64-5.48s6.27-7.09,7.6-8.43.72-5,.72-5L76.88,74.6a25.85,25.85,0,0,1-8.45-8,3.05,3.05,0,0,1-2.23.9,7.86,7.86,0,0,1-4-1.51s-8.7-8.7-6-12.81a2.6,2.6,0,0,1,2.26-1.24c1.79,0,3.92,1.47,5.43,2.74-3.09-2.69-4.74-3.06-5.41-3.06h-.21l-.05,0,0,0-.06,0,0-.06c-.65-.32-3.56-1.92-3.81-4.63-4.92-1.54-4-4.28-4-4.28-4.72-3.21,0-8.39,0-8.39-2.1-2.1-.48-5.16-.48-5.16-2.46-3.5.62-7.81.62-7.81.34-3.77,6-6,6-6,.45-1.89,2.77-2.78,2.77-2.78a4.13,4.13,0,0,1,3.8-2.34,1.92,1.92,0,0,1,.31,0c2-4.43,9.73-4.86,12.6-4.86.69,0,1.1,0,1.1,0a7.63,7.63,0,0,1,4.66-1.78M120.34,165.4,133,142.54,121,124.62c.32,5.14.52,10.43.46,15.41a201.52,201.52,0,0,1-1.78,24.31,1.64,1.64,0,0,1,.69,1.06M74,182.43c1.23-3.5,2.29-6.57,3.09-8.92a2.7,2.7,0,0,1,1.32-4c.07-.23.13-.41.16-.55,1.24-4.52-10.37-26.69-10.37-26.69l-9.8-6.14L44.65,162l22,15.3L74,182.43m71.33,156.12h0M81.72.4h0a10.37,10.37,0,0,0-5.63,1.76H76c-4.13,0-11.08.69-14.44,5a7.2,7.2,0,0,0-4.52,3,8.11,8.11,0,0,0-3,2.82c-2,1-5.76,3.41-6.59,7.21-1.3,2.16-2.51,5.8-1.07,9.22a7.86,7.86,0,0,0,.16,4.8,9.39,9.39,0,0,0-1.42,5.77,7.09,7.09,0,0,0,2.05,4.22,5.67,5.67,0,0,0,.55,1.68,7.85,7.85,0,0,0,3.94,3.51,8.53,8.53,0,0,0,1.63,2.54c-1.54,2.83-.78,6.53,2.27,11A41.48,41.48,0,0,0,60,68.19l.33.29a10.79,10.79,0,0,0,5.92,2.15,6.56,6.56,0,0,0,1.18-.1,31.89,31.89,0,0,0,6.73,6.06l3.08,11.83a7.56,7.56,0,0,1,0,2.31c-1.39,1.44-5.52,6.09-7,7.81-1.93.77-6.75,2.87-9.7,5.62-7.12,4.1-7.69,4.68-8.07,5.06-.62.62-1,1-12.45,27.69-5.54,12.93-11,25.92-11.11,26.05l1,3.78,27.36,20.64,7.63,5.76c-.79,2.83-1.53,6.42-1.15,9l-.53,1.49c-1.15.73-2.34,1.3-2.35,1.31l-1.57,1.64c-.44,1-1.72,4.55-.16,7.18a5.09,5.09,0,0,0,.31.45c-3.22,9-5.64,15.78-5.64,15.78l3.06,4.27.72,0-.21,1.23h0c-2.43,13.92-3.58,32-3.87,37.25-8.52,7.45-7.3,22-6.88,27,0,.49.09,1.05.09,1.21,0,2.59-3.2,18.7-4.69,20.95a9.63,9.63,0,0,0-2.18,5.89,17.75,17.75,0,0,1-3,3.2c-1.44,1-2.32,2.72-2.7,5.24-.39,1.06-1.61,4.44-2.66,8.06-2.16,7.47-2.25,11-.33,12.88,2.42,2.42,9.55,3.69,15.34,3.69a32.7,32.7,0,0,0,12.44-2.22A6.83,6.83,0,0,0,63,354c1-3.65-.68-8.42-5.34-15-.6-5.18-3-12-3.92-14.37.53-3.3,2.78-16.15,7-25.67a138.42,138.42,0,0,0,7.49-21.45c3-3.69,5.17-11,5.7-12.94l13.4-33.59.87-2.18a83.36,83.36,0,0,0,10.94-4.31l.09.05.47,1.79,0,0v0c10.8,40.45,12.4,45.57,12.81,46.66,0,.29-.12.87-.2,1.36-.78,4.64-2.58,15.47,6,45.94a25.06,25.06,0,0,1-1.28,5.32,16.23,16.23,0,0,0-2.24,6.51,9.92,9.92,0,0,0,.08,6.42c1.15,3,7.24,7,8.45,7.82,2.92,1.87,8.61,5.07,13.91,5.42.51,0,1,0,1.51,0,8.55,0,14.2-5,15-7.76a3.61,3.61,0,0,0,.09-1.48,4.15,4.15,0,0,0,.41-1.41,3.87,3.87,0,0,0-1.16-3.16l-2.12-.94a11.5,11.5,0,0,1-2.51-.39,6.27,6.27,0,0,0-1.9-2.85,12.8,12.8,0,0,0-4.28-2c-3.72-3-8.16-6.48-9.35-7.42-1.33-1.72-2.82-3.69-3.46-4.62-.15-2.52-.73-11.93-3-47.84a25,25,0,0,0-.08-10.25c-.5-2.78-.73-14.59-.64-32.43l2.78-2c0-.5.24-11-.56-22.42l.4,0a5.78,5.78,0,0,0,4.95-2.15,5.15,5.15,0,0,0,.77-4.48l-.8-1.35-3.21-3.2c.76-2.81.36-6.38-1.2-10.66a44.7,44.7,0,0,0-2.35-5.3l19.54-35.06,0-3.13L122.41,98.31l-.18-.28A8.49,8.49,0,0,0,118,95c-.24-.27-.5-.54-.76-.8l-2-.92-5.91-.56c-3.6-.52-10-1.84-14.44-4.88a31.53,31.53,0,0,1-.92-4.37c1.84.18,3.73.27,5.64.27,3.86,0,15.57,0,17-8,2.56-14.74-.56-33.51-7.44-45.92,1.48-2.24,1-5.09-.32-7.47a5.34,5.34,0,0,0,0-.8c-.17-1.94-1.61-3.72-3.07-5a7.52,7.52,0,0,0-.17-3.9c-.84-2.69-3.11-4.81-6.74-6.32a13.76,13.76,0,0,0-9.62-4,14,14,0,0,0-1.93.14A9.47,9.47,0,0,0,81.72.4ZM124.12,152c.25-3.55.45-7.63.5-12,0-1.38,0-2.83,0-4.33l4.68,7L124.12,152Zm-75.33,9L59.6,140.68l6.16,3.86c.85,1.66,2.95,5.8,5,10.28,3.78,8.34,4.55,11.7,4.7,12.89a5.86,5.86,0,0,0-1.65,2.4,5.78,5.78,0,0,0-.09,3.44c-.39,1.13-.83,2.42-1.34,3.87l-3.92-2.74L48.79,161Z"/><path class="cls-7" d="M76.41,72.78l3.9,15s.62,3.7-.72,5-7.6,8.43-7.6,8.43l-3.49,6.88,20.23,11.5,24.14-6.47-.72-17S99.79,95.42,92.59,90C91.17,88.94,90,76.58,90,76.58Z"/><path class="cls-8" d="M90.63,82c-.38-2.77-.69-5.56-.69-5.56l-13.56-3.8,1.09,4.18S81.71,79.63,83,80.2A25.86,25.86,0,0,0,90.63,82Z"/><path class="cls-7" d="M65.16,105.12s-9.67,5.46-10.56,6.35S31.73,164.2,31.73,164.2l27.35,20.63,9.42,7.1s-3,9.15-1.23,10.89-5.14,5-5.14,5-2.67,6.3,2.74,4.93a81,81,0,0,0,12.74-5l3.63-20.27L66.62,177.3l-22-15.3,13.74-25.84,9.8,6.14,12-8.78L71.58,112l-3.7-8.08Z"/><path class="cls-7" d="M68.43,66.55s7.84,14,31.26,14c9.69,0,13.29-2.26,13.83-5.41,3.43-19.76-3.87-44.75-14-52.38C90.63,16,59.12,41.35,59.12,41.35l6.71,15.07S59,49,56.24,53.13s6,12.81,6,12.81S66.1,68.88,68.43,66.55Z"/><path class="cls-7" d="M115.23,98.22c2.33-1.23,4.41,1.67,4.41,1.67l23.64,41.37-20.4,36.59s6.85,11.51,3.42,16.71l4.73,4.73s.75,2.53-2.67,2.53-11.51-6-11.51-6l.94-25.8L133,142.54l-14-20.8-4.37-3.87S110.89,100.52,115.23,98.22Z"/><path class="cls-7" d="M90.69,214,70.9,263.63s-2.56,9.4-5.59,12.43a133.76,133.76,0,0,1-7.49,21.67c-5.14,11.5-7.4,27.32-7.4,27.32s4.67,11.87,4.11,17.21c0,0,4.47,6.16,2.67,9.7s-8.83,1.44-8.83,1.44S36.61,354.94,34.86,352s2.21-10.79,2.21-10.79-.57-6.27,1.49-7.7a25.75,25.75,0,0,0,4.52-4.93s-.77-2.06,1.38-4.83,5.34-20.56,5.34-22.89-2.87-19.72,6.72-26.57c0,0,2.32-47.25,8.9-53.82S90.69,210,90.69,210Z"/><path class="cls-9" d="M90.69,214l-6.33,15.87s-8.76,3.91-11,4.45c-1.64.41-13.36,4-13,1.66,1.23-7.38,2.93-13.43,5-15.49C72,213.91,90.69,210,90.69,210Z"/><path class="cls-7" d="M97.74,206.66s16.57,62.58,17.8,65.46-5.24,8.46,6.06,48.1c0,0-.72,5.24-1.74,7.09s-3.39,6.58-.41,8.22,12.63,9.86,16.74,10.58S148,343.23,148,343.23s4.11-1.54,2.82-2.82c0,0-3.74-.16-5-1.39s-15.2-12.22-15.2-12.22-4.31-5.55-4.31-5.92-3.08-49.14-3.08-49.14,1.13-3.08,0-9.34-.59-45.75-.59-45.75Z"/><path class="cls-9" d="M97.74,206.66s3.9,14.67,5.05,19c.45,1.66,19.77,3,19.77,3l.1-12Z"/><path class="cls-10" d="M97.74,219.05c3.2,6.35,25.73,7.7,27.59,8.29,0,0,.59-25.52-3-39.85S97.74,219.05,97.74,219.05Z"/><path class="cls-11" d="M70.35,60.94c4,1.64.55-5.48.55-5.48s-.38-7.14-2.4-8.36a28.85,28.85,0,0,1-4.41-3.6l37.89-26s3.84-5.34-4.93-8.63A10.44,10.44,0,0,0,86.44,5.74s-3.84-4.58-9.38-.37c0,0-11.16-.65-13.7,4.83a4.16,4.16,0,0,0-4.11,2.32s-2.32.89-2.77,2.78c0,0-5.65,2.22-6,6,0,0-3.08,4.31-.62,7.81,0,0-1.62,3.06.48,5.16,0,0-4.72,5.18,0,8.39,0,0-1.16,3.36,5.75,4.73l2.06,4.24s2-.89,7.67,4.8Z"/><path class="cls-8" d="M97.94,61.48a1.5,1.5,0,0,1,0-3c1.41,0,5.34-1.18,8.12-2.13-.89-6.94-5.34-12.13-8-14.67a1.5,1.5,0,0,1,2.07-2.17c3.12,3,8.44,9.25,9,17.76l.08,1.13-1.07.39C107.41,59.06,100.59,61.48,97.94,61.48Z"/><path class="cls-12" d="M87.35,50.18h-.07a1.49,1.49,0,0,1-1.43-1.55c0-.4.23-3.93,2.76-5.28,1.61-.86,3.6-.57,5.93.85A1.5,1.5,0,1,1,93,46.76C91.66,46,90.61,45.68,90,46c-.81.42-1.14,2-1.18,2.75A1.49,1.49,0,0,1,87.35,50.18Z"/><path class="cls-12" d="M102.92,44.15A1.5,1.5,0,0,1,101.57,42c.93-2,2.16-3,3.66-3.1,2.46-.16,4.19,2.44,4.38,2.74a1.5,1.5,0,0,1-2.52,1.63c-.43-.66-1.22-1.37-1.65-1.37h0c-.19,0-.63.32-1.15,1.39A1.49,1.49,0,0,1,102.92,44.15Z"/><path class="cls-13" d="M85.87,61.83c-.2-.3,14.62,3.48,21.08.24,0,0-.83,11.63-6.17,12C95.28,74.45,89.56,71.3,85.87,61.83Z"/><g class="cls-14"><path class="cls-15" d="M84.57,63.46S98,69.88,105.26,64.71l-.29-3L84.13,59.58Z"/><path class="cls-16" d="M86.17,69s5.26-3.6,12,.55-1.4,8.17-1.4,8.17Z"/></g><path class="cls-8" d="M99.31,75.1C89.5,75.1,85,62.3,84.92,62.16l-.58-1.7,1.75.4c.13,0,13.78,3,20.47.28a1,1,0,0,1,1.31.55,1,1,0,0,1-.54,1.3c-5.79,2.4-15.72.95-19.83.19,1.64,3.61,6.24,11.58,14.26,9.61a1,1,0,1,1,.48,1.94A11.94,11.94,0,0,1,99.31,75.1Z"/><path class="cls-8" d="M65.52,65s-.21-9-7.14-11.15"/><path class="cls-8" d="M58.39,136.16s5.92-7.94,5.14-6.73c-4.33,6.71,11.11,14.46,14.73,10.32a9.26,9.26,0,0,1-10.07,2.55Z"/><path class="cls-17" d="M72,101.24s-6.58,2.42-9.64,5.48c0,0,18.44,26.75,5.84,35.58,0,0,11.61,22.17,10.37,26.69s-21.85,62.08-21.85,62.08,63.68-1.13,65.95-42.77l-3-24A201.52,201.52,0,0,0,121.43,140c.13-11.7-1.15-25.14-2.09-34.31A14.76,14.76,0,0,0,115,96.41l-6-.56s4.73,15.86-6.22,17.36C96.9,114,82.67,115.93,72,101.24Z"/><g class="cls-18"><path class="cls-19" d="M59.08,232.63s63.69-1.13,66-42.77Z"/></g><path class="cls-17" d="M72,101.24s-6.58,2.42-9.64,5.48c0,0,18.44,26.75,5.84,35.58,0,0,11.61,22.17,10.37,26.69s-21.85,62.08-21.85,62.08,63.68-1.13,65.95-42.77l-3-24A201.52,201.52,0,0,0,121.43,140c.13-11.7-1.15-25.14-2.09-34.31A14.76,14.76,0,0,0,115,96.41l-6-.56s4.73,15.86-6.22,17.36C96.9,114,82.67,115.93,72,101.24Z"/><path class="cls-7" d="M59.08,184.83l9.42,7.1s-3,9.15-1.23,10.89-5.14,5-5.14,5-2.67,6.3,2.74,4.93a81,81,0,0,0,12.74-5l3.07-17.19s.95-3.38-2.89-5.63c-3-1.74-11.17-7.63-11.17-7.63Z"/><path class="cls-20" d="M77.15,173.65s33.57,4.47,42.89-6.21c0,0,1-2.11-.39-3.1.2,2-15.77,10.57-41.09,5.13A2.76,2.76,0,0,0,77.15,173.65Z"/><circle class="cls-21" cx="105.04" cy="172.03" r="7.83"/><g class="cls-22"><path class="cls-23" d="M67.85,20.54s-3.36,4.07.91,6.79c1.49,1-4.42,5.55-4.42,5.55L62,46.28A17.84,17.84,0,0,1,67.09,45L77.9,57.43,71,61.76,48.85,46.85,34.12,18.41l19-17.22L73.84-3.64,70.19,3.59S61.39,9,64.75,12.85C62.64,14.33,62.23,20.14,67.85,20.54Z"/></g><path class="cls-24" d="M58.26,51.62s-4-1.78-4-5.06,15.48-34.38,47.8-29c0,0,5,3.5,3.28,5.21,0,0,3.09,3.82.62,5.88S91.54,27.65,58.26,51.62Z"/><path class="cls-25" d="M60,44.37s20.68-25.2,42.8-21.92C102.81,22.45,82.19,23.56,60,44.37Z"/><path class="cls-26" d="M105.91,178.73a7.75,7.75,0,0,1-5.72-2.23c-1.54-1.71-2-4.19-1.29-7.36a1.5,1.5,0,0,1,2.93.63c-.46,2.18-.27,3.76.58,4.72,1.29,1.45,3.84,1.23,3.87,1.23a1.5,1.5,0,1,1,.3,3A5,5,0,0,1,105.91,178.73Z"/><path class="cls-27" d="M109.77,176.08a1.17,1.17,0,0,1-.32,0,1.5,1.5,0,0,1-1.14-1.79c.48-2.17.29-3.76-.56-4.73-1.29-1.44-3.83-1.24-3.85-1.24a1.5,1.5,0,1,1-.29-3c.17,0,4.07-.37,6.38,2.23,1.53,1.73,2,4.2,1.25,7.37A1.51,1.51,0,0,1,109.77,176.08Z"/><path class="cls-12" d="M85.38,41.67c.46-1.59,1.81-2.65,3.08-3.61.81-.61,0-2-.8-1.37-1.62,1.22-3.23,2.53-3.82,4.55a.8.8,0,0,0,1.54.43Z"/><path class="cls-12" d="M102.3,34.53a3.43,3.43,0,0,1,2.83,1c.73.72,1.86-.41,1.12-1.13A5.09,5.09,0,0,0,101.87,33c-1,.13-.58,1.67.43,1.53Z"/></g></svg>