<?xml version="1.0" encoding="UTF-8" standalone="no"?>
<svg
   xmlns:dc="http://purl.org/dc/elements/1.1/"
   xmlns:cc="http://creativecommons.org/ns#"
   xmlns:rdf="http://www.w3.org/1999/02/22-rdf-syntax-ns#"
   xmlns:svg="http://www.w3.org/2000/svg"
   xmlns="http://www.w3.org/2000/svg"
   xmlns:sodipodi="http://sodipodi.sourceforge.net/DTD/sodipodi-0.dtd"
   xmlns:inkscape="http://www.inkscape.org/namespaces/inkscape"
   id="Camada_1"
   data-name="Camada 1"
   viewBox="0 0 880.37 250.36"
   version="1.1"
   sodipodi:docname="introduzir2.svg"
   inkscape:version="0.92.4 (5da689c313, 2019-01-14)">
  <metadata
     id="metadata6592">
    <rdf:RDF>
      <cc:Work
         rdf:about="">
        <dc:format>image/svg+xml</dc:format>
        <dc:type
           rdf:resource="http://purl.org/dc/dcmitype/StillImage" />
      </cc:Work>
    </rdf:RDF>
  </metadata>
  <sodipodi:namedview
     pagecolor="#ffffff"
     bordercolor="#666666"
     borderopacity="1"
     objecttolerance="10"
     gridtolerance="10"
     guidetolerance="10"
     inkscape:pageopacity="0"
     inkscape:pageshadow="2"
     inkscape:window-width="1366"
     inkscape:window-height="705"
     id="namedview6590"
     showgrid="false"
     inkscape:zoom="0.4316367"
     inkscape:cx="440.185"
     inkscape:cy="125.18"
     inkscape:window-x="-8"
     inkscape:window-y="-8"
     inkscape:window-maximized="1"
     inkscape:current-layer="Camada_1" />
  <defs
     id="defs6407">
    <style
       id="style6393">.cls-1{fill:none;}.cls-2{fill:#65c4d1;}.cls-3{fill:#f9f9f9;}.cls-4{fill:#97d8dd;}.cls-5{clip-path:url(#clip-path);}.cls-6{fill:#eaa000;}.cls-7{fill:#eac2a7;}.cls-8{fill:#c9a68f;}.cls-9{fill:#d6aa8b;}.cls-10{fill:#d6d6d6;}.cls-11{fill:#c99f4b;}.cls-12{fill:#6d5f56;}.cls-13{fill:#493e38;}.cls-14{clip-path:url(#clip-path-2);}.cls-15{fill:#fcfcfc;}.cls-16{fill:#d32222;}.cls-17{fill:#f4f4f4;}.cls-18{clip-path:url(#clip-path-3);}.cls-19{fill:#b7b7b7;}.cls-20{fill:#6d472e;}.cls-21{fill:#c99e32;}.cls-22{clip-path:url(#clip-path-4);}.cls-23{fill:#aa7e30;}.cls-24{fill:#fff;}.cls-25{fill:#ddd;}.cls-26{fill:#846829;}.cls-27{fill:#e8cd95;}</style>
    <clipPath
       id="clip-path">
      <ellipse
         class="cls-1"
         cx="108.97"
         cy="116.32"
         rx="131.22"
         ry="126.95"
         id="ellipse6395" />
    </clipPath>
    <clipPath
       id="clip-path-2">
      <path
         class="cls-1"
         d="M95.75,66.25c-.24-.25,14.12.89,19.61-3.14,0,0,1.08,10.92-3.82,12.12S100.69,74.44,95.75,66.25Z"
         id="path6398" />
    </clipPath>
    <clipPath
       id="clip-path-3">
      <path
         class="cls-1"
         d="M103.88,228c3.33,6.61,26.79,8,28.73,8.62,0,0,.61-26.56-3.13-41.48S103.88,228,103.88,228Z"
         id="path6401" />
    </clipPath>
    <clipPath
       id="clip-path-4">
      <path
         class="cls-1"
         d="M75.36,63.33c4.13,1.71.57-5.7.57-5.7s-.39-7.44-2.5-8.7a30.8,30.8,0,0,1-4.59-3.75l10.57-7.25,28.89-19.8s4-5.56-5.14-9a10.88,10.88,0,0,0-11-3.28s-4-4.77-9.77-.39c0,0-11.62-.68-14.26,5a4.32,4.32,0,0,0-4.27,2.42s-2.43.93-2.89,2.89c0,0-5.88,2.32-6.24,6.24,0,0-3.21,4.49-.64,8.13,0,0-1.69,3.19.5,5.38,0,0-4.92,5.38,0,8.73,0,0-1.21,3.5,6,4.92l2.14,4.42s2-.93,8,5Z"
         id="path6404" />
    </clipPath>
  </defs>
  <title
     id="title6409">introduzir2</title>
  <path
     class="cls-2"
     d="M871,188.6H182.84V115.91H871a10,10,0,0,1,10,10V178.6A10,10,0,0,1,871,188.6Z"
     id="path6411" />
  <path
     class="cls-3"
     d="M255.73,149.71a9.86,9.86,0,0,1-.85,4.14,7.75,7.75,0,0,1-2.35,3l3.45,2.44-1.58,1.4L250.52,158a9.54,9.54,0,0,1-1.2.29,7.68,7.68,0,0,1-1.27.1,6.69,6.69,0,0,1-5.37-2.46,9.32,9.32,0,0,1-2.06-6.18v-.25a9.36,9.36,0,0,1,2.06-6.19,6.67,6.67,0,0,1,5.37-2.47,7,7,0,0,1,5.54,2.47,9.15,9.15,0,0,1,2.14,6.19Zm-2.31-.27a7.82,7.82,0,0,0-1.43-4.86,4.67,4.67,0,0,0-3.94-1.88,4.4,4.4,0,0,0-3.77,1.88,8.17,8.17,0,0,0-1.35,4.86v.27a8.19,8.19,0,0,0,1.35,4.88,4.4,4.4,0,0,0,3.77,1.88,4.67,4.67,0,0,0,4-1.88,7.91,7.91,0,0,0,1.41-4.88Z"
     id="path6413" />
  <path
     class="cls-3"
     d="M266.75,156.23a4.15,4.15,0,0,1-1.54,1.57,4.19,4.19,0,0,1-2.17.55,4,4,0,0,1-3.22-1.32,6.11,6.11,0,0,1-1.16-4.12v-5.66l-1.46-.33v-1.49H261v7.5a4.72,4.72,0,0,0,.6,2.79,2.22,2.22,0,0,0,1.87.76,3.82,3.82,0,0,0,2-.5,3.1,3.1,0,0,0,1.21-1.41v-7.32l-1.7-.33v-1.49h4V156.3l1.45.33v1.48h-3.52Z"
     id="path6415" />
  <path
     class="cls-3"
     d="M278.05,158.35a5.32,5.32,0,0,1-4.21-1.76,6.6,6.6,0,0,1-1.57-4.58v-.51a6.52,6.52,0,0,1,1.61-4.51,5,5,0,0,1,3.82-1.8,4.81,4.81,0,0,1,3.87,1.55,6.15,6.15,0,0,1,1.32,4.13v1.44h-8.23l0,.06a5,5,0,0,0,.92,3,3,3,0,0,0,2.5,1.18,5.9,5.9,0,0,0,2.06-.33,4.88,4.88,0,0,0,1.53-.92l.9,1.5a5.57,5.57,0,0,1-1.8,1.1A7.21,7.21,0,0,1,278.05,158.35ZM277.7,147a2.52,2.52,0,0,0-2,1,4.64,4.64,0,0,0-1,2.45l0,.06h5.85v-.3a3.57,3.57,0,0,0-.72-2.28A2.63,2.63,0,0,0,277.7,147Z"
     id="path6417" />
  <path
     class="cls-3"
     d="M295.16,142.37v3.06h2.4v1.71h-2.4v7.7a1.7,1.7,0,0,0,.37,1.25,1.35,1.35,0,0,0,1,.37,4.37,4.37,0,0,0,.68-.06,5.55,5.55,0,0,0,.64-.11l.32,1.58a3,3,0,0,1-1,.35,6.08,6.08,0,0,1-1.27.13,3,3,0,0,1-2.24-.85,3.69,3.69,0,0,1-.83-2.66v-7.7h-2v-1.71h2v-3.06Z"
     id="path6419" />
  <path
     class="cls-3"
     d="M308.19,158.11c-.07-.35-.12-.65-.16-.93a7.34,7.34,0,0,1-.08-.82,5.79,5.79,0,0,1-1.67,1.43,4.84,4.84,0,0,1-5.16-.4,3.6,3.6,0,0,1-1-2.73,3.16,3.16,0,0,1,1.46-2.78,7.15,7.15,0,0,1,4-1h2.38v-1.48a2.27,2.27,0,0,0-.7-1.76,2.79,2.79,0,0,0-2-.65,4.83,4.83,0,0,0-1.53.22,2.92,2.92,0,0,0-1.07.61l-.24,1.34h-1.79v-2.46a7,7,0,0,1,2.1-1.11,8.21,8.21,0,0,1,2.67-.42,5.3,5.3,0,0,1,3.5,1.11,3.84,3.84,0,0,1,1.33,3.15v6.1c0,.17,0,.33,0,.48a3.59,3.59,0,0,0,0,.47l.93.13v1.48Zm-3.71-1.69a4.06,4.06,0,0,0,2.09-.55,3.4,3.4,0,0,0,1.36-1.32v-2.09h-2.46a3.49,3.49,0,0,0-2.24.66,2,2,0,0,0-.83,1.59,1.56,1.56,0,0,0,.52,1.27A2.36,2.36,0,0,0,304.48,156.42Z"
     id="path6421" />
  <path
     class="cls-3"
     d="M312.82,141.32v-1.49H317V156.3l1.91.33v1.48h-6.13v-1.48l1.91-.33V141.64Z"
     id="path6423" />
  <path
     class="cls-3"
     d="M335.73,156.23a4.11,4.11,0,0,1-3.71,2.12,4.08,4.08,0,0,1-3.23-1.32,6.16,6.16,0,0,1-1.16-4.12v-5.66l-1.45-.33v-1.49h3.76v7.5a4.72,4.72,0,0,0,.6,2.79,2.22,2.22,0,0,0,1.86.76,3.85,3.85,0,0,0,2-.5,3.16,3.16,0,0,0,1.21-1.41v-7.32l-1.7-.33v-1.49h4V156.3l1.45.33v1.48h-3.53Z"
     id="path6425" />
  <path
     class="cls-3"
     d="M340.78,156.63l1.91-.33v-9.05l-1.91-.33v-1.49h4l.15,1.65a4,4,0,0,1,1.57-1.39,4.78,4.78,0,0,1,2.22-.5,4,4,0,0,1,2.18.59,3.55,3.55,0,0,1,1.36,1.76,4.68,4.68,0,0,1,1.59-1.71,4.15,4.15,0,0,1,2.29-.64,3.82,3.82,0,0,1,3.07,1.33,6.11,6.11,0,0,1,1.13,4v5.77l1.91.33v1.48H356.1v-1.48l1.91-.33v-5.8a4.2,4.2,0,0,0-.65-2.65,2.33,2.33,0,0,0-1.91-.78,2.43,2.43,0,0,0-1.94.85,3.78,3.78,0,0,0-.85,2.14v6.24l1.91.33v1.48h-6.12v-1.48l1.91-.33v-5.8a4.15,4.15,0,0,0-.67-2.6,2.28,2.28,0,0,0-1.91-.83,3.18,3.18,0,0,0-1.74.43,2.83,2.83,0,0,0-1,1.22v7.58l1.91.33v1.48h-6.13Z"
     id="path6427" />
  <path
     class="cls-3"
     d="M373.8,159.15a4.22,4.22,0,0,1-1,3,3.69,3.69,0,0,1-2.8,1.06,4.61,4.61,0,0,1-.68,0,5.44,5.44,0,0,1-.64-.16l.16-1.82a2.6,2.6,0,0,0,.48.1,3.64,3.64,0,0,0,.51,0,1.53,1.53,0,0,0,1.21-.51,2.5,2.5,0,0,0,.46-1.68v-11.9l-1.91-.33v-1.49h4.21Zm-.07-17h-2.3v-2.31h2.3Z"
     id="path6429" />
  <path
     class="cls-3"
     d="M376.58,151.65a7,7,0,0,1,1.53-4.63,5.08,5.08,0,0,1,4.13-1.83A5.16,5.16,0,0,1,386.4,147a7,7,0,0,1,1.53,4.64v.26a6.92,6.92,0,0,1-1.53,4.64,5.66,5.66,0,0,1-8.29,0,6.91,6.91,0,0,1-1.53-4.63Zm2.31.26a6,6,0,0,0,.85,3.33,2.83,2.83,0,0,0,2.53,1.31,2.8,2.8,0,0,0,2.49-1.31,6,6,0,0,0,.86-3.33v-.26a6,6,0,0,0-.86-3.32,3.06,3.06,0,0,0-5,0,6.11,6.11,0,0,0-.84,3.32Z"
     id="path6431" />
  <path
     class="cls-3"
     d="M390.05,152a8.31,8.31,0,0,1,1.33-4.93,4.29,4.29,0,0,1,3.69-1.88,4.52,4.52,0,0,1,2.1.47,4.18,4.18,0,0,1,1.51,1.36l.21-1.59h1.95v12.51a5.36,5.36,0,0,1-1.37,3.88,5.21,5.21,0,0,1-3.9,1.41,8.52,8.52,0,0,1-2-.25,7.67,7.67,0,0,1-1.88-.69l.6-1.79a7.45,7.45,0,0,0,3.23.78,2.78,2.78,0,0,0,2.27-.86,3.8,3.8,0,0,0,.72-2.48v-1.2a4,4,0,0,1-1.49,1.2,4.51,4.51,0,0,1-2,.41,4.44,4.44,0,0,1-3.67-1.68,6.93,6.93,0,0,1-1.33-4.42Zm2.31.25a5.26,5.26,0,0,0,.8,3.07,2.81,2.81,0,0,0,2.46,1.16,3,3,0,0,0,1.75-.48,3.48,3.48,0,0,0,1.16-1.34v-5.83a3.62,3.62,0,0,0-1.16-1.29,3.1,3.1,0,0,0-1.72-.47,2.68,2.68,0,0,0-2.47,1.38,6.86,6.86,0,0,0-.82,3.55Z"
     id="path6433" />
  <path
     class="cls-3"
     d="M403.63,151.65a7,7,0,0,1,1.52-4.63,5.62,5.62,0,0,1,8.29,0,7,7,0,0,1,1.53,4.64v.26a7,7,0,0,1-1.52,4.64,5.67,5.67,0,0,1-8.3,0,7,7,0,0,1-1.52-4.63Zm2.31.26a6,6,0,0,0,.85,3.33,3.06,3.06,0,0,0,5,0,6,6,0,0,0,.85-3.33v-.26a6,6,0,0,0-.85-3.32,3.06,3.06,0,0,0-5,0,6.11,6.11,0,0,0-.84,3.32Z"
     id="path6435" />
  <path
     class="cls-3"
     d="M422.77,161.5l1.91-.33V147.25l-1.91-.33v-1.49h3.89l.21,1.55a4.26,4.26,0,0,1,1.54-1.33,4.64,4.64,0,0,1,2.1-.46,4.22,4.22,0,0,1,3.66,1.87,8.49,8.49,0,0,1,1.31,4.94v.25a7,7,0,0,1-1.31,4.42,4.34,4.34,0,0,1-3.62,1.68,5.08,5.08,0,0,1-2.06-.39A4.06,4.06,0,0,1,427,156.8v4.37l1.91.33V163h-6.12Zm10.39-9.5a6.76,6.76,0,0,0-.84-3.55,2.76,2.76,0,0,0-2.51-1.38,3.15,3.15,0,0,0-1.69.44,3.43,3.43,0,0,0-1.14,1.22v6.18a3,3,0,0,0,2.85,1.64,2.85,2.85,0,0,0,2.49-1.2,5.26,5.26,0,0,0,.84-3.1Z"
     id="path6437" />
  <path
     class="cls-3"
     d="M445.85,158.11c-.07-.35-.12-.65-.16-.93a7.34,7.34,0,0,1-.08-.82,5.79,5.79,0,0,1-1.67,1.43,4.84,4.84,0,0,1-5.16-.4,3.6,3.6,0,0,1-1-2.73,3.16,3.16,0,0,1,1.46-2.78,7.15,7.15,0,0,1,4-1h2.38v-1.48a2.27,2.27,0,0,0-.7-1.76,2.79,2.79,0,0,0-2-.65,4.83,4.83,0,0,0-1.53.22,2.92,2.92,0,0,0-1.07.61l-.24,1.34H438.3v-2.46a7,7,0,0,1,2.1-1.11,8.21,8.21,0,0,1,2.67-.42,5.3,5.3,0,0,1,3.5,1.11,3.84,3.84,0,0,1,1.33,3.15v6.1c0,.17,0,.33,0,.48a3.59,3.59,0,0,0,0,.47l.93.13v1.48Zm-3.71-1.69a4.06,4.06,0,0,0,2.09-.55,3.4,3.4,0,0,0,1.36-1.32v-2.09h-2.46a3.49,3.49,0,0,0-2.24.66,2,2,0,0,0-.83,1.59,1.56,1.56,0,0,0,.52,1.27A2.36,2.36,0,0,0,442.14,156.42Z"
     id="path6439" />
  <path
     class="cls-3"
     d="M450.8,146.92v-1.49h4l.22,1.84a4.32,4.32,0,0,1,1.33-1.52,3.08,3.08,0,0,1,1.81-.56,3.64,3.64,0,0,1,.56.05,2.52,2.52,0,0,1,.44.08l-.31,2.15-1.31-.07a2.58,2.58,0,0,0-1.53.43,2.63,2.63,0,0,0-1,1.2v7.27l1.91.33v1.48H450.8v-1.48l1.91-.33v-9.05Z"
     id="path6441" />
  <path
     class="cls-3"
     d="M469,158.11c-.07-.35-.13-.65-.17-.93s-.06-.54-.08-.82a5.66,5.66,0,0,1-1.67,1.43,4.83,4.83,0,0,1-5.15-.4,3.57,3.57,0,0,1-1-2.73,3.14,3.14,0,0,1,1.46-2.78,7.1,7.1,0,0,1,4-1h2.38v-1.48a2.28,2.28,0,0,0-.71-1.76,2.77,2.77,0,0,0-1.95-.65,4.75,4.75,0,0,0-1.53.22,2.84,2.84,0,0,0-1.07.61l-.25,1.34h-1.78v-2.46a7,7,0,0,1,2.1-1.11,8.21,8.21,0,0,1,2.67-.42,5.27,5.27,0,0,1,3.49,1.11,3.84,3.84,0,0,1,1.34,3.15V156l0,.47.94.13v1.48Zm-3.72-1.69a4.07,4.07,0,0,0,2.1-.55,3.53,3.53,0,0,0,1.36-1.32v-2.09h-2.46a3.5,3.5,0,0,0-2.25.66,2,2,0,0,0-.82,1.59,1.59,1.59,0,0,0,.51,1.27A2.4,2.4,0,0,0,465.28,156.42Z"
     id="path6443" />
  <path
     class="cls-3"
     d="M485.7,158.35a5.35,5.35,0,0,1-4.22-1.76,6.64,6.64,0,0,1-1.56-4.58v-.51a6.48,6.48,0,0,1,1.61-4.51,5,5,0,0,1,3.81-1.8,4.82,4.82,0,0,1,3.88,1.55,6.14,6.14,0,0,1,1.31,4.13v1.44h-8.22l0,.06a5.07,5.07,0,0,0,.93,3,2.93,2.93,0,0,0,2.5,1.18,5.84,5.84,0,0,0,2.05-.33,4.88,4.88,0,0,0,1.53-.92l.9,1.5a5.57,5.57,0,0,1-1.8,1.1A7.16,7.16,0,0,1,485.7,158.35ZM485.34,147a2.52,2.52,0,0,0-2,1,4.63,4.63,0,0,0-1,2.45l0,.06h5.85v-.3a3.58,3.58,0,0,0-.73-2.28A2.61,2.61,0,0,0,485.34,147Z"
     id="path6445" />
  <path
     class="cls-3"
     d="M492.47,156.63l1.91-.33v-9.05l-1.91-.33v-1.49h4l.17,1.89a4.56,4.56,0,0,1,1.58-1.57,4.26,4.26,0,0,1,2.18-.56,4.11,4.11,0,0,1,3.17,1.21,5.25,5.25,0,0,1,1.13,3.7v6.2l1.91.33v1.48h-6.13v-1.48l1.91-.33v-6.15a3.44,3.44,0,0,0-.66-2.38,2.65,2.65,0,0,0-2-.7,3.26,3.26,0,0,0-1.77.48,3.5,3.5,0,0,0-1.22,1.31v7.44l1.91.33v1.48h-6.13Z"
     id="path6447" />
  <path
     class="cls-3"
     d="M512.28,142.37v3.06h2.41v1.71h-2.41v7.7a1.74,1.74,0,0,0,.37,1.25,1.37,1.37,0,0,0,1,.37,4.49,4.49,0,0,0,.69-.06,6.44,6.44,0,0,0,.64-.11l.31,1.58a3,3,0,0,1-1,.35,6,6,0,0,1-1.26.13,3,3,0,0,1-2.24-.85,3.64,3.64,0,0,1-.83-2.66v-7.7h-2v-1.71h2v-3.06Z"
     id="path6449" />
  <path
     class="cls-3"
     d="M522.83,158.35a5.33,5.33,0,0,1-4.21-1.76,6.65,6.65,0,0,1-1.57-4.58v-.51a6.48,6.48,0,0,1,1.62-4.51,5,5,0,0,1,3.81-1.8,4.81,4.81,0,0,1,3.87,1.55,6.15,6.15,0,0,1,1.32,4.13v1.44h-8.22l0,.06a4.94,4.94,0,0,0,.93,3,2.92,2.92,0,0,0,2.49,1.18,5.9,5.9,0,0,0,2.06-.33,4.88,4.88,0,0,0,1.53-.92l.9,1.5a5.57,5.57,0,0,1-1.8,1.1A7.18,7.18,0,0,1,522.83,158.35ZM522.48,147a2.52,2.52,0,0,0-2,1,4.64,4.64,0,0,0-1,2.45l0,.06h5.84v-.3a3.57,3.57,0,0,0-.72-2.28A2.63,2.63,0,0,0,522.48,147Z"
     id="path6451" />
  <path
     class="cls-3"
     d="M529.61,156.63l1.91-.33v-9.05l-1.91-.33v-1.49h4l.16,1.89a4.5,4.5,0,0,1,1.59-1.57,4.25,4.25,0,0,1,2.17-.56,4.12,4.12,0,0,1,3.18,1.21,5.25,5.25,0,0,1,1.12,3.7v6.2l1.91.33v1.48h-6.12v-1.48l1.91-.33v-6.15a3.39,3.39,0,0,0-.67-2.38,2.64,2.64,0,0,0-2-.7,3.25,3.25,0,0,0-1.76.48,3.61,3.61,0,0,0-1.23,1.31v7.44l1.91.33v1.48h-6.12Z"
     id="path6453" />
  <path
     class="cls-3"
     d="M553.82,156.6a4.23,4.23,0,0,1-1.52,1.31,4.58,4.58,0,0,1-2.08.44,4.34,4.34,0,0,1-3.63-1.68,7,7,0,0,1-1.31-4.42V152a8.46,8.46,0,0,1,1.31-4.93,4.2,4.2,0,0,1,3.65-1.88,4.51,4.51,0,0,1,2,.42,4.23,4.23,0,0,1,1.47,1.2v-5.17l-1.91-.32v-1.49H556V156.3l1.91.33v1.48H554Zm-6.23-4.35a5.41,5.41,0,0,0,.79,3.07,2.72,2.72,0,0,0,2.42,1.16,3.09,3.09,0,0,0,1.74-.47,3.58,3.58,0,0,0,1.16-1.32V148.8a3.53,3.53,0,0,0-1.16-1.26,3.09,3.09,0,0,0-1.71-.47,2.65,2.65,0,0,0-2.45,1.37,7.14,7.14,0,0,0-.79,3.56Z"
     id="path6455" />
  <path
     class="cls-3"
     d="M565.46,158.35a5.33,5.33,0,0,1-4.21-1.76,6.64,6.64,0,0,1-1.56-4.58v-.51A6.48,6.48,0,0,1,561.3,147a5,5,0,0,1,3.81-1.8,4.82,4.82,0,0,1,3.88,1.55,6.2,6.2,0,0,1,1.31,4.13v1.44h-8.22l0,.06a5,5,0,0,0,.93,3,2.92,2.92,0,0,0,2.49,1.18,5.86,5.86,0,0,0,2.06-.33,4.88,4.88,0,0,0,1.53-.92l.9,1.5a5.57,5.57,0,0,1-1.8,1.1A7.18,7.18,0,0,1,565.46,158.35ZM565.11,147a2.52,2.52,0,0,0-2,1,4.72,4.72,0,0,0-1,2.45l0,.06H568v-.3a3.58,3.58,0,0,0-.73-2.28A2.62,2.62,0,0,0,565.11,147Z"
     id="path6457" />
  <path
     class="cls-3"
     d="M572.58,146.92v-1.49h4l.22,1.84a4.42,4.42,0,0,1,1.33-1.52,3.08,3.08,0,0,1,1.81-.56,3.64,3.64,0,0,1,.56.05,2.52,2.52,0,0,1,.44.08l-.3,2.15-1.32-.07a2.58,2.58,0,0,0-1.53.43,2.63,2.63,0,0,0-1,1.2v7.27l1.91.33v1.48h-6.13v-1.48l1.91-.33v-9.05Z"
     id="path6459" />
  <path
     class="cls-3"
     d="M588,156.63l1.91-.33v-9.05l-1.91-.33v-1.49h4l.15,1.65a4,4,0,0,1,1.57-1.39,4.79,4.79,0,0,1,2.23-.5,3.94,3.94,0,0,1,2.17.59,3.55,3.55,0,0,1,1.36,1.76,4.68,4.68,0,0,1,1.59-1.71,4.15,4.15,0,0,1,2.29-.64,3.82,3.82,0,0,1,3.07,1.33,6.11,6.11,0,0,1,1.13,4v5.77l1.91.33v1.48h-6.14v-1.48l1.91-.33v-5.8a4.2,4.2,0,0,0-.65-2.65,2.33,2.33,0,0,0-1.91-.78,2.43,2.43,0,0,0-1.94.85,3.78,3.78,0,0,0-.85,2.14v6.24l1.91.33v1.48h-6.12v-1.48l1.91-.33v-5.8a4.15,4.15,0,0,0-.67-2.6,2.28,2.28,0,0,0-1.91-.83,3.18,3.18,0,0,0-1.74.43,2.83,2.83,0,0,0-1,1.22v7.58l1.91.33v1.48H588Z"
     id="path6461" />
  <path
     class="cls-3"
     d="M616.82,158.35a5.35,5.35,0,0,1-4.22-1.76A6.64,6.64,0,0,1,611,152v-.51a6.52,6.52,0,0,1,1.61-4.51,5,5,0,0,1,3.81-1.8,4.82,4.82,0,0,1,3.88,1.55,6.15,6.15,0,0,1,1.32,4.13v1.44h-8.23l0,.06a5.07,5.07,0,0,0,.93,3,2.94,2.94,0,0,0,2.5,1.18,5.84,5.84,0,0,0,2-.33,4.88,4.88,0,0,0,1.53-.92l.9,1.5a5.63,5.63,0,0,1-1.79,1.1A7.25,7.25,0,0,1,616.82,158.35ZM616.46,147a2.52,2.52,0,0,0-2,1,4.63,4.63,0,0,0-1,2.45l0,.06h5.85v-.3a3.52,3.52,0,0,0-.73-2.28A2.61,2.61,0,0,0,616.46,147Z"
     id="path6463" />
  <path
     class="cls-3"
     d="M623.61,141.32v-1.49h4.22V156.3l1.91.33v1.48h-6.13v-1.48l1.91-.33V141.64Z"
     id="path6465" />
  <path
     class="cls-3"
     d="M631.17,156.63l1.91-.33V141.64l-1.91-.32v-1.49h4.22v7.29A4.55,4.55,0,0,1,637,145.7a4.36,4.36,0,0,1,2.11-.51,4.11,4.11,0,0,1,3.16,1.22,5.41,5.41,0,0,1,1.12,3.75v6.14l1.91.33v1.48h-6.12v-1.48l1.91-.33v-6.16a3.38,3.38,0,0,0-.68-2.32,2.57,2.57,0,0,0-2-.75,3.41,3.41,0,0,0-1.73.45,3.76,3.76,0,0,0-1.28,1.23v7.55l1.91.33v1.48h-6.13Z"
     id="path6467" />
  <path
     class="cls-3"
     d="M646.87,151.65A7,7,0,0,1,648.4,147a5.08,5.08,0,0,1,4.13-1.83,5.16,5.16,0,0,1,4.16,1.82,7,7,0,0,1,1.53,4.64v.26a7,7,0,0,1-1.52,4.64,5.67,5.67,0,0,1-8.3,0,6.91,6.91,0,0,1-1.53-4.63Zm2.31.26a6.1,6.1,0,0,0,.85,3.33,2.83,2.83,0,0,0,2.53,1.31,2.8,2.8,0,0,0,2.49-1.31,6,6,0,0,0,.86-3.33v-.26a6,6,0,0,0-.86-3.32,2.81,2.81,0,0,0-2.52-1.32,2.78,2.78,0,0,0-2.5,1.32,6,6,0,0,0-.85,3.32Z"
     id="path6469" />
  <path
     class="cls-3"
     d="M660.33,146.92v-1.49h4l.22,1.84a4.42,4.42,0,0,1,1.33-1.52,3.08,3.08,0,0,1,1.81-.56,3.64,3.64,0,0,1,.56.05,2.52,2.52,0,0,1,.44.08l-.3,2.15L667,147.4a2.58,2.58,0,0,0-1.53.43,2.63,2.63,0,0,0-1,1.2v7.27l1.91.33v1.48h-6.13v-1.48l1.91-.33v-9.05Z"
     id="path6471" />
  <path
     class="cls-3"
     d="M676.22,156.63l1.91-.33v-9.05l-1.91-.33v-1.49h4.22V156.3l1.91.33v1.48h-6.13Zm4.22-14.45h-2.31v-2.35h2.31Z"
     id="path6473" />
  <path
     class="cls-3"
     d="M693.81,149.41h-1.74l-.37-1.52a3.1,3.1,0,0,0-1.06-.64,4.12,4.12,0,0,0-1.45-.24,2.67,2.67,0,0,0-1.83.54,1.67,1.67,0,0,0-.59,1.3,1.43,1.43,0,0,0,.52,1.18,5.5,5.5,0,0,0,2.15.78,9.16,9.16,0,0,1,3.57,1.4,2.82,2.82,0,0,1,1.17,2.37,3.26,3.26,0,0,1-1.36,2.73,5.69,5.69,0,0,1-3.57,1,9.41,9.41,0,0,1-2.59-.33,6.58,6.58,0,0,1-2-1v-2.89h1.73l.44,1.7a2.38,2.38,0,0,0,1.08.53,6,6,0,0,0,1.4.16,3.3,3.3,0,0,0,1.93-.5,1.54,1.54,0,0,0,.69-1.3,1.57,1.57,0,0,0-.58-1.26,5.31,5.31,0,0,0-2.19-.85,9.24,9.24,0,0,1-3.48-1.38,2.74,2.74,0,0,1-1.17-2.34,3.31,3.31,0,0,1,1.31-2.64,5.24,5.24,0,0,1,3.43-1.09,8.3,8.3,0,0,1,2.59.38,5.46,5.46,0,0,1,1.91,1Z"
     id="path6475" />
  <path
     class="cls-3"
     d="M706,149.41h-1.73l-.38-1.52a3,3,0,0,0-1.06-.64,4.06,4.06,0,0,0-1.44-.24,2.67,2.67,0,0,0-1.83.54,1.68,1.68,0,0,0-.6,1.3,1.44,1.44,0,0,0,.53,1.18,5.44,5.44,0,0,0,2.14.78,9.28,9.28,0,0,1,3.58,1.4,2.82,2.82,0,0,1,1.17,2.37,3.27,3.27,0,0,1-1.37,2.73,5.69,5.69,0,0,1-3.57,1,9.41,9.41,0,0,1-2.59-.33,6.8,6.8,0,0,1-2-1v-2.89h1.74l.43,1.7a2.49,2.49,0,0,0,1.08.53,6,6,0,0,0,1.4.16,3.28,3.28,0,0,0,1.93-.5,1.52,1.52,0,0,0,.7-1.3,1.57,1.57,0,0,0-.58-1.26,5.43,5.43,0,0,0-2.2-.85,9.24,9.24,0,0,1-3.48-1.38,2.74,2.74,0,0,1-1.17-2.34,3.32,3.32,0,0,1,1.32-2.64,5.24,5.24,0,0,1,3.43-1.09,8.34,8.34,0,0,1,2.59.38,5.55,5.55,0,0,1,1.91,1Z"
     id="path6477" />
  <path
     class="cls-3"
     d="M708.59,151.65a6.94,6.94,0,0,1,1.52-4.63,5.09,5.09,0,0,1,4.14-1.83A5.14,5.14,0,0,1,718.4,147a7,7,0,0,1,1.53,4.64v.26a7,7,0,0,1-1.52,4.64,5.67,5.67,0,0,1-8.3,0,6.91,6.91,0,0,1-1.52-4.63Zm2.3.26a6.1,6.1,0,0,0,.85,3.33,3.07,3.07,0,0,0,5,0,6,6,0,0,0,.85-3.33v-.26a6,6,0,0,0-.85-3.32,3.06,3.06,0,0,0-5,0,6.11,6.11,0,0,0-.85,3.32Z"
     id="path6479" />
  <path
     class="cls-3"
     d="M725.21,153.3a7.13,7.13,0,0,1,.29-2.36,6.17,6.17,0,0,1,1.47-1.73,21.18,21.18,0,0,0,1.65-2.11,3.11,3.11,0,0,0,.5-1.78,2.59,2.59,0,0,0-.67-1.91,2.56,2.56,0,0,0-1.89-.66,2.84,2.84,0,0,0-1.81.58A2,2,0,0,0,724,145H721.8l0-.07a3.65,3.65,0,0,1,1.32-3,5.24,5.24,0,0,1,3.47-1.14,5.08,5.08,0,0,1,3.59,1.18,4.24,4.24,0,0,1,1.28,3.28,5,5,0,0,1-.83,2.77,15.31,15.31,0,0,1-2.19,2.57,2.81,2.81,0,0,0-.75,1.13,6.59,6.59,0,0,0-.14,1.57Zm2.38,4.81h-2.4v-2.44h2.4Z"
     id="path6481" />
  <path
     class="cls-3"
     d="M744.07,142.53l-1.56.25,3.82,11.09.39,1.34h.07l.39-1.34,3.8-11.1-1.53-.24v-1.48h5.38v1.48l-1.37.19-5.72,15.39h-2L740,142.72l-1.36-.19v-1.48h5.39Z"
     id="path6483" />
  <path
     class="cls-3"
     d="M764.13,158.11c-.07-.35-.12-.65-.16-.93a7.34,7.34,0,0,1-.08-.82,5.79,5.79,0,0,1-1.67,1.43,4.83,4.83,0,0,1-5.15-.4,3.57,3.57,0,0,1-1-2.73,3.16,3.16,0,0,1,1.46-2.78,7.16,7.16,0,0,1,4-1h2.37v-1.48a2.27,2.27,0,0,0-.7-1.76,2.79,2.79,0,0,0-2-.65,4.72,4.72,0,0,0-1.52.22,2.88,2.88,0,0,0-1.08.61l-.24,1.34h-1.78v-2.46a6.8,6.8,0,0,1,2.09-1.11,8.23,8.23,0,0,1,2.68-.42,5.29,5.29,0,0,1,3.49,1.11,3.84,3.84,0,0,1,1.33,3.15v6.1c0,.17,0,.33,0,.48a3.59,3.59,0,0,0,0,.47l.94.13v1.48Zm-3.71-1.69a4.12,4.12,0,0,0,2.1-.55,3.43,3.43,0,0,0,1.35-1.32v-2.09h-2.46a3.49,3.49,0,0,0-2.24.66,2,2,0,0,0-.83,1.59,1.59,1.59,0,0,0,.52,1.27A2.36,2.36,0,0,0,760.42,156.42Z"
     id="path6485" />
  <path
     class="cls-3"
     d="M768.62,156.63l1.91-.33v-9.05l-1.91-.33v-1.49h4l.15,1.65a4,4,0,0,1,1.57-1.39,4.78,4.78,0,0,1,2.22-.5,4,4,0,0,1,2.18.59,3.55,3.55,0,0,1,1.36,1.76,4.68,4.68,0,0,1,1.59-1.71,4.15,4.15,0,0,1,2.29-.64,3.82,3.82,0,0,1,3.07,1.33,6.11,6.11,0,0,1,1.13,4v5.77l1.91.33v1.48h-6.14v-1.48l1.91-.33v-5.8a4.2,4.2,0,0,0-.65-2.65,2.33,2.33,0,0,0-1.91-.78,2.43,2.43,0,0,0-1.94.85,3.71,3.71,0,0,0-.85,2.14v6.24l1.91.33v1.48h-6.13v-1.48l1.92-.33v-5.8a4.15,4.15,0,0,0-.67-2.6,2.28,2.28,0,0,0-1.91-.83,3.18,3.18,0,0,0-1.74.43,2.83,2.83,0,0,0-1,1.22v7.58l1.91.33v1.48h-6.13Z"
     id="path6487" />
  <path
     class="cls-3"
     d="M791.65,151.65a7,7,0,0,1,1.52-4.63,5.62,5.62,0,0,1,8.29,0,7,7,0,0,1,1.53,4.64v.26a7,7,0,0,1-1.52,4.64,5.67,5.67,0,0,1-8.3,0,7,7,0,0,1-1.52-4.63Zm2.31.26a6,6,0,0,0,.85,3.33,3.06,3.06,0,0,0,5,0,6,6,0,0,0,.85-3.33v-.26a6,6,0,0,0-.85-3.32,3.06,3.06,0,0,0-5,0,6.11,6.11,0,0,0-.84,3.32Z"
     id="path6489" />
  <path
     class="cls-3"
     d="M814.8,149.41h-1.73l-.37-1.52a3.14,3.14,0,0,0-1.07-.64,4,4,0,0,0-1.44-.24,2.67,2.67,0,0,0-1.83.54,1.68,1.68,0,0,0-.6,1.3,1.44,1.44,0,0,0,.53,1.18,5.5,5.5,0,0,0,2.14.78,9.21,9.21,0,0,1,3.58,1.4,2.82,2.82,0,0,1,1.17,2.37,3.27,3.27,0,0,1-1.37,2.73,5.68,5.68,0,0,1-3.56,1,9.3,9.3,0,0,1-2.59-.33,6.58,6.58,0,0,1-2-1l0-2.89h1.74l.43,1.7a2.47,2.47,0,0,0,1.09.53,5.89,5.89,0,0,0,1.4.16,3.25,3.25,0,0,0,1.92-.5,1.52,1.52,0,0,0,.7-1.3,1.57,1.57,0,0,0-.58-1.26,5.43,5.43,0,0,0-2.2-.85,9.24,9.24,0,0,1-3.48-1.38,2.74,2.74,0,0,1-1.17-2.34,3.32,3.32,0,0,1,1.32-2.64,5.24,5.24,0,0,1,3.43-1.09,8.34,8.34,0,0,1,2.59.38,5.55,5.55,0,0,1,1.91,1Z"
     id="path6491" />
  <path
     class="cls-3"
     d="M823,141.32v-1.49h4.22V156.3l1.91.33v1.48H823v-1.48l1.91-.33V141.64Z"
     id="path6493" />
  <path
     class="cls-3"
     d="M839.13,158.11c-.07-.35-.12-.65-.16-.93a7.34,7.34,0,0,1-.08-.82,5.79,5.79,0,0,1-1.67,1.43,4.83,4.83,0,0,1-5.15-.4,3.57,3.57,0,0,1-1-2.73,3.16,3.16,0,0,1,1.46-2.78,7.16,7.16,0,0,1,4-1h2.37v-1.48a2.27,2.27,0,0,0-.7-1.76,2.79,2.79,0,0,0-2-.65,4.72,4.72,0,0,0-1.52.22,2.88,2.88,0,0,0-1.08.61l-.24,1.34h-1.78v-2.46a6.8,6.8,0,0,1,2.09-1.11,8.23,8.23,0,0,1,2.68-.42,5.29,5.29,0,0,1,3.49,1.11,3.84,3.84,0,0,1,1.33,3.15v6.1c0,.17,0,.33,0,.48a3.59,3.59,0,0,0,0,.47l.94.13v1.48Zm-3.71-1.69a4.12,4.12,0,0,0,2.1-.55,3.43,3.43,0,0,0,1.35-1.32v-2.09h-2.46a3.49,3.49,0,0,0-2.24.66,2,2,0,0,0-.83,1.59,1.59,1.59,0,0,0,.52,1.27A2.36,2.36,0,0,0,835.42,156.42ZM837,140.55h2.7l0,.07-3.15,3h-1.73Z"
     id="path6495" />
  <path
     class="cls-3"
     d="M847,152.51h-2.31V141.05H847Zm0,5.6h-2.31v-2.39H847Z"
     id="path6497" />
  <path
     style="fill:#f9f9f9"
     d="M 209,144.36 A 103,103 0 0 1 106,247.36 103,103 0 0 1 3,144.36 103,103 0 0 1 106,41.360001 103,103 0 0 1 209,144.36 Z"
     id="circle6499" />
  <path
     class="cls-2"
     d="M106,44.36a100,100,0,1,1-100,100,100,100,0,0,1,100-100m0-6a106,106,0,1,0,106,106,106.12,106.12,0,0,0-106-106Z"
     id="path6501" />
  <path
     class="cls-4"
     d="M105.74,44.54a99.74,99.74,0,1,0,99.74,99.74A99.74,99.74,0,0,0,105.74,44.54Zm0,192.83a93.09,93.09,0,1,1,93.09-93.09A93.09,93.09,0,0,1,105.74,237.37Z"
     id="path6503" />
  <path
     class="cls-4"
     d="M152.81,71.83a3.33,3.33,0,0,0-4.61,1l-5.43,8.36a3.32,3.32,0,0,0-.46,2.55,3.28,3.28,0,0,0,1.51,2.1,42.72,42.72,0,0,1,3.73,2.66c.75.57,1.5,1.14,2.08,1.55,1,.85,2,1.75,3,2.66L150.34,95a66.28,66.28,0,0,0-14.57-10l6.8-15.25a3.32,3.32,0,0,0-1.69-4.39,86.9,86.9,0,0,0-30.63-7.3,3.32,3.32,0,0,0-3.49,3.15l-.52,10a3.33,3.33,0,0,0,3.14,3.49l3.5.18,3.73.57,1.44.22c.72.1,1.44.2,2.07.34l.45.12-.87,3.26a68.05,68.05,0,0,0-17.61-1.43l-1.72-16.63a3.33,3.33,0,0,0-3.66-3,85.53,85.53,0,0,0-30.2,9,3.32,3.32,0,0,0-1.45,4.47l4.54,8.88A3.33,3.33,0,0,0,74,82.18c.67-.31,1.33-.64,2-1a34.37,34.37,0,0,1,4.75-2l.85-.31c1-.37,2-.73,2.93-1.06L85.34,81c-.82.28-1.61.57-2.4.87l-.79.3a30.1,30.1,0,0,0-4.72,2l-2,1L69.8,88.4c-.13.07-.26.14-.38.22L59.61,75.15A3.33,3.33,0,0,0,55,74.41a86.67,86.67,0,0,0-21.69,22.8,3.31,3.31,0,0,0-.46,2.51,3.35,3.35,0,0,0,1.44,2.1l8.36,5.44a3.33,3.33,0,0,0,4.65-1.06,42.46,42.46,0,0,1,2.65-3.72c.58-.76,1.15-1.51,1.56-2.1.85-1,1.75-2,2.65-3l2.3,2.3a66.28,66.28,0,0,0-10,14.57l-15.25-6.8a3.34,3.34,0,0,0-4.4,1.68,87,87,0,0,0-7.29,30.64,3.32,3.32,0,0,0,3.15,3.49l10,.52a3.32,3.32,0,0,0,2.4-.85,3.26,3.26,0,0,0,1.09-2.29l.18-3.5.56-3.73c.09-.48.16-1,.22-1.44.11-.72.21-1.44.35-2.07l.12-.45,3.25.87a67.57,67.57,0,0,0-1.42,17.6l-16.64,1.73a3.33,3.33,0,0,0-3,3.65,86.68,86.68,0,0,0,9,30.21A3.33,3.33,0,0,0,33.24,185l8.88-4.53a3.33,3.33,0,0,0,1.51-4.37c-.31-.66-.63-1.31-1-2a34.21,34.21,0,0,1-2-4.78l-.33-.88c-.37-1-.72-1.95-1-2.9l3.26-.87a65.71,65.71,0,0,0,7.59,15.91L36.6,190.41a3.31,3.31,0,0,0-.73,4.64,86.47,86.47,0,0,0,22.8,21.68,3.32,3.32,0,0,0,4.6-1l5.44-8.36a3.31,3.31,0,0,0-1.06-4.65c-1.28-.82-2.53-1.71-3.73-2.66-.74-.57-1.49-1.14-2.08-1.55-1-.85-2-1.75-3-2.65l2.35-2.36c.89.82,1.81,1.64,2.92,2.55.64.45,1.27.94,1.9,1.42a39.9,39.9,0,0,0,3.71,2.61l5.93,3.41.08,0-6.81,15.27a3.32,3.32,0,0,0,1.68,4.39,87,87,0,0,0,30.64,7.3h.17a3.32,3.32,0,0,0,3.32-3.15l.51-10a3.31,3.31,0,0,0-3.14-3.49l-3.49-.18-3.73-.57-1.44-.22c-.72-.1-1.44-.2-2.07-.35l-.46-.11.88-3.26a68,68,0,0,0,17.6,1.43l1.73,16.63a3.33,3.33,0,0,0,3.65,3,85.78,85.78,0,0,0,30.21-9,3.32,3.32,0,0,0,1.45-4.47l-4.54-8.89a3.31,3.31,0,0,0-4.35-1.5c-.67.31-1.33.63-2,1a35.57,35.57,0,0,1-4.75,2l-.85.31c-1,.37-2,.74-2.93,1.06l-.88-3.26A66,66,0,0,0,142,199.91l9.83,13.5a3.32,3.32,0,0,0,4.64.74,86.47,86.47,0,0,0,21.68-22.8,3.34,3.34,0,0,0,.47-2.5,3.29,3.29,0,0,0-1.44-2.1l-8.36-5.45a3.37,3.37,0,0,0-2.55-.45,3.32,3.32,0,0,0-2.1,1.51,42.46,42.46,0,0,1-2.65,3.72c-.58.76-1.15,1.51-1.56,2.1-.85,1-1.75,2-2.66,3l-2.29-2.3a66.28,66.28,0,0,0,10-14.57l15.25,6.8a3.32,3.32,0,0,0,4.39-1.68,87,87,0,0,0,7.3-30.64,3.33,3.33,0,0,0-3.15-3.49l-10-.51a3.34,3.34,0,0,0-3.49,3.14l-.18,3.5-.57,3.72c-.08.48-.15,1-.22,1.45-.1.71-.2,1.44-.35,2.06l-.11.46-3.21-.86,0-.08a23.27,23.27,0,0,0,.41-2.36c.05-.36.1-.73.17-1.15l.51-3.26c0-.12,0-.23,0-.34l.17-3.48v-6.94l16.7-1.74a3.31,3.31,0,0,0,3-3.65,86.68,86.68,0,0,0-9-30.21,3.33,3.33,0,0,0-4.47-1.45l-8.88,4.54a3.33,3.33,0,0,0-1.51,4.36c.31.66.63,1.31.95,2a34.21,34.21,0,0,1,2.05,4.78l.33.88c.37,1,.73,1.95,1,2.9l-3.25.87A66.08,66.08,0,0,0,161.37,108l13.5-9.83A3.29,3.29,0,0,0,176.2,96a3.34,3.34,0,0,0-.59-2.47A86.47,86.47,0,0,0,152.81,71.83Zm2,32.68a3.32,3.32,0,0,0-.73,4.65,59.12,59.12,0,0,1,9.37,19.64,3.33,3.33,0,0,0,4.07,2.35l9.64-2.57a3.33,3.33,0,0,0,2.39-3.91,48.49,48.49,0,0,0-2.17-6.87l-.26-.71a34.82,34.82,0,0,0-1.87-4.51l3-1.51a80.15,80.15,0,0,1,6.44,21.58l-16.46,1.71a3.33,3.33,0,0,0-3,3.48l.17,3.22v6.36l-.17,3.13-.47,3c-.07.44-.14.87-.2,1.31-.08.59-.16,1.18-.27,1.68l-.83,3.19a3.32,3.32,0,0,0,2.36,4.05l9.63,2.58a3.32,3.32,0,0,0,2.54-.35,3.28,3.28,0,0,0,1.54-2l1-3.79c.2-.88.33-1.79.46-2.69.06-.42.12-.85.2-1.33l.62-4.1,0-.51,3.27.16a80.75,80.75,0,0,1-5.21,21.89l-15.11-6.74a3.35,3.35,0,0,0-4.4,1.69,59.45,59.45,0,0,1-12.32,18,3.33,3.33,0,0,0,0,4.7l7.05,7a3.25,3.25,0,0,0,2.45,1,3.35,3.35,0,0,0,2.38-1.11q.9-1,1.8-2c1.16-1.26,2.31-2.51,3.53-4,.5-.72,1-1.41,1.57-2.11q.56-.72,1.11-1.47l2.8,1.82a79.82,79.82,0,0,1-15.5,16.29l-9.75-13.39a3.34,3.34,0,0,0-4.64-.73A59.12,59.12,0,0,1,121.22,202a3.34,3.34,0,0,0-2.36,4.08l2.58,9.63a3.32,3.32,0,0,0,3.91,2.39,48.74,48.74,0,0,0,6.89-2.17l.69-.26a33.47,33.47,0,0,0,4.51-1.87l1.51,3a80.24,80.24,0,0,1-21.58,6.43l-1.71-16.45a3.26,3.26,0,0,0-1.19-2.24,3.31,3.31,0,0,0-2.44-.73A61.22,61.22,0,0,1,90.26,202a3.32,3.32,0,0,0-4.07,2.35L83.61,214a3.3,3.3,0,0,0,.34,2.53,3.33,3.33,0,0,0,2,1.54l3.79,1c.89.21,1.8.35,2.7.48l1.32.2,4.11.61.51,0-.17,3.26a80.4,80.4,0,0,1-21.88-5.21l6.73-15.11A3.33,3.33,0,0,0,81.51,199l-2.76-1.32-5.67-3.26a32,32,0,0,1-3-2.16c-.7-.54-1.41-1.08-1.92-1.42-1-.8-1.88-1.64-2.8-2.48-.68-.63-1.37-1.26-2.07-1.88a3.34,3.34,0,0,0-4.54.16l-7,7.05a3.32,3.32,0,0,0,.14,4.84q1,.87,1.95,1.77c1.27,1.16,2.53,2.32,4,3.55.71.51,1.4,1,2.1,1.57l1.48,1.12-1.82,2.79a79.82,79.82,0,0,1-16.29-15.5l13.38-9.74a3.33,3.33,0,0,0,.74-4.64A59.49,59.49,0,0,1,48,159.76a3.32,3.32,0,0,0-4.06-2.35L34.3,160a3.31,3.31,0,0,0-2.39,3.9,48,48,0,0,0,2.16,6.87l.27.71A34.9,34.9,0,0,0,36.2,176l-3,1.51a80.58,80.58,0,0,1-6.44-21.59l16.46-1.71a3.32,3.32,0,0,0,3-3.62A61,61,0,0,1,48,128.8a3.32,3.32,0,0,0-2.35-4.07L36,122.15a3.35,3.35,0,0,0-4.08,2.39l-1,3.79c-.2.89-.34,1.79-.47,2.69-.06.43-.12.85-.2,1.33l-.61,4.11,0,.5-3.26-.16a80.45,80.45,0,0,1,5.2-21.89l15.12,6.74A3.33,3.33,0,0,0,51.1,120a59.66,59.66,0,0,1,12.33-18,3.32,3.32,0,0,0,0-4.69l-7.05-7.06a3.3,3.3,0,0,0-2.45-1,3.35,3.35,0,0,0-2.39,1.11c-.59.67-1.19,1.33-1.8,2-1.15,1.25-2.3,2.5-3.52,4-.51.71-1,1.4-1.57,2.1-.37.48-.75,1-1.12,1.47l-2.79-1.82A79.82,79.82,0,0,1,56.23,81.8L66,95.19a3.35,3.35,0,0,0,4.65.73l.77-.59A11.16,11.16,0,0,1,73,94.22l5.44-3.15,1.91-.92a26.14,26.14,0,0,1,3.89-1.66l1-.37a34.15,34.15,0,0,1,4.82-1.53,3.32,3.32,0,0,0,2.54-4.11L90,72.84a3.33,3.33,0,0,0-3.91-2.39,49.2,49.2,0,0,0-6.89,2.18l-.69.25A34.69,34.69,0,0,0,74,74.75l-1.52-3a80.33,80.33,0,0,1,21.59-6.44l1.7,16.46a3.29,3.29,0,0,0,3.63,3,61,61,0,0,1,21.77,1.78,3.39,3.39,0,0,0,2.53-.34,3.27,3.27,0,0,0,1.54-2l2.58-9.63a3.32,3.32,0,0,0-2.38-4.08l-3.78-1c-.9-.21-1.8-.34-2.71-.47l-1.32-.21-4.1-.61-.52,0,.17-3.26a80.47,80.47,0,0,1,21.89,5.21l-6.74,15.11a3.35,3.35,0,0,0,1.69,4.4,59.45,59.45,0,0,1,18,12.32,3.33,3.33,0,0,0,4.7,0l7.05-7a3.33,3.33,0,0,0-.14-4.83l-2-1.78c-1.26-1.16-2.52-2.31-4-3.55-.71-.5-1.4-1-2.09-1.56l-1.48-1.12,1.81-2.8a79.61,79.61,0,0,1,16.3,15.5Z"
     id="path6505" />
  <path
     class="cls-4"
     d="M105.74,91.09a53.09,53.09,0,0,0-45.87,80,3.79,3.79,0,0,0,.2.34,53.59,53.59,0,0,0,13.56,15.17c.09.06.14.15.23.2l.07,0a52.79,52.79,0,0,0,63.6,0l.09,0c.09,0,.14-.14.22-.2a53.29,53.29,0,0,0,13.56-15.17,2.39,2.39,0,0,0,.21-.34,53.09,53.09,0,0,0-45.87-80Zm-6,7.08-36.9,64.18a46.5,46.5,0,0,1,36.9-64.18ZM79.9,183l25.84-44.92L131.58,183a46.44,46.44,0,0,1-51.68,0Zm56.95-4.17-26.79-46.57a5,5,0,0,0-8.65,0L74.62,178.8a47,47,0,0,1-8.09-9.53l39.21-68.2,7.6,13.19.15.3,31.45,54.71a47,47,0,0,1-8.09,9.53Zm11.78-16.46-29.22-50.83a3,3,0,0,0-.15-.31l-7.52-13a46.5,46.5,0,0,1,36.89,64.17Z"
     id="path6507" />
  <g
     class="cls-5"
     clip-path="url(#clip-path)"
     id="g6587">
    <path
       class="cls-6"
       d="M87.2,3.62a6.87,6.87,0,0,1,4.91,2.24,12.15,12.15,0,0,1,3-.39,10.85,10.85,0,0,1,8.07,3.67c8.87,3.33,5.35,8.68,5.15,9l.09,0s5.21,3.63,3.43,5.42c0,0,3.21,4,.64,6.12a2.88,2.88,0,0,1-.93.47c7.29,11.36,11.64,31.41,8.77,48-.57,3.27-4.31,5.63-14.39,5.63h0a53.29,53.29,0,0,1-9.75-.87c.09.77.2,1.61.32,2.45h0c.5,3.6,1.24,7.69,2,8.3,5.15,3.86,12.81,5.46,17.12,6.08l6.24.58a14.83,14.83,0,0,1,3.24,4.76h0l36.43,33.81,28.75-24.31s1.91-7.5,12.55-7.5a27.32,27.32,0,0,1,4.38.37c14.51,2.36-1.32,4.07-1.32,4.07s1.65-.14,4.07-.14c3.64,0,9,.31,13.26,1.85l2.19,2.67-5,5s-11.59,1.6-18.22,1.6c-2.11,0-3.72-.16-4.3-.59a.46.46,0,0,0-.25-.07c-3.95,0-36.43,30.63-36.43,30.63l-33.44-27c.5,6.63.85,13.72.78,20.28A210,210,0,0,1,126.69,171c1.46,1,.41,3.23.41,3.23l2.73,21.72c0,.17,0,.32,0,.48,3.39,15.12,2.82,40.16,2.82,40.16-.35-.11-1.39-.24-2.87-.43l0,1.82h0c-.07,12.66,0,31,.72,35.12,1.18,6.52,0,9.73,0,9.73s3.21,50.76,3.21,51.16,4.49,6.16,4.49,6.16,5.94,4.68,10.57,8.39h0a13.4,13.4,0,0,1,3.87,1.63,3.74,3.74,0,0,1,1.16,2.43c.31.21.82.55,1.4,1a15.27,15.27,0,0,0,4,.74c.63.64,0,1.33-.83,1.88.46.5.74.93.66,1.21-.3,1.11-4.6,5.64-12.38,5.64-.43,0-.88,0-1.34-.05-8.17-.53-19.48-9.23-20.41-11.65a7.21,7.21,0,0,1,.12-4.89c0-2.06,1.25-4.54,1.94-5.77,1.06-1.93,1.81-7.38,1.81-7.38-11.76-41.28-5-47.09-6.31-50.09-.81-1.9-8.08-28.92-13.27-48.36h0l0-.07c-.3-1.13-.59-2.24-.88-3.31a13.85,13.85,0,0,1-2.68-1.59,84.63,84.63,0,0,1-14.12,5.6L75.93,274.37s-2.66,9.79-5.81,12.94a139.19,139.19,0,0,1-7.81,22.57c-5.35,12-7.7,28.44-7.7,28.44s3.83,9.73,4.28,15.81c4.51,6.17,8.55,13.78,3.19,16a31,31,0,0,1-11.68,2c-6.47,0-12.27-1.51-13.62-2.87-2.17-2.17,4-18.64,4-18.64.19-1.5.61-2.94,1.48-3.55A26.49,26.49,0,0,0,47,342s-.8-2.13,1.45-5S54,315.58,54,313.16s-3-20.54,7-27.67c0,0,1.14-23.15,4.06-39.9h0c.32-1.9.67-3.72,1-5.41-3.06.26-4.9.29-4.9.29s3-8.26,6.75-18.89c-3.23-.3-1.11-5.32-1.11-5.32A25.85,25.85,0,0,0,70.59,214l1.24-3.48c-1.07-2.64,1.6-10.83,1.6-10.83l-9.8-7.39L35.15,170.85S58,116.87,59,116c.6-.6,5-3.19,8.07-5,3.19-3.19,10-5.71,10-5.71s6.52-7.38,7.91-8.77.75-5.24.75-5.24L82.16,77.56c-6.31-4-8.8-8.38-8.8-8.38a3.19,3.19,0,0,1-2.32.93,8.2,8.2,0,0,1-4.17-1.58s-9.05-9.05-6.2-13.33A2.68,2.68,0,0,1,63,53.91c1.86,0,4.09,1.54,5.65,2.85-3.21-2.8-4.93-3.18-5.62-3.18h-.22l-.06,0,0,0-.06,0,0-.07c-.67-.33-3.7-2-4-4.81-5.12-1.61-4.13-4.46-4.13-4.46-4.92-3.35,0-8.73,0-8.73-2.19-2.19-.5-5.38-.5-5.38-2.57-3.64.64-8.13.64-8.13.36-3.92,6.24-6.24,6.24-6.24.46-2,2.89-2.89,2.89-2.89a4.29,4.29,0,0,1,4-2.44,2.15,2.15,0,0,1,.32,0c2.14-4.61,10.13-5,13.13-5,.71,0,1.13,0,1.13,0A8,8,0,0,1,87.2,3.62m-8,186.21c1.28-3.65,2.39-6.85,3.22-9.29a2.8,2.8,0,0,1,1.37-4.13c.08-.24.13-.43.17-.57,1.29-4.71-10.8-27.79-10.8-27.79l-10.2-6.39L48.6,168.55l22.87,15.94,7.68,5.34m74.27,162.55h0M87.2-.14h0a11.23,11.23,0,0,0-6,1.83h0c-4.35,0-11.64.73-15.29,5.23A7.88,7.88,0,0,0,61.16,10a8.85,8.85,0,0,0-3.11,3c-2.2,1.14-6,3.65-6.95,7.66-1.37,2.32-2.63,6.16-1.16,9.81a8.58,8.58,0,0,0,.14,4.9,10.09,10.09,0,0,0-1.43,6.11A7.86,7.86,0,0,0,50.81,46a6.57,6.57,0,0,0,.59,1.73,8.53,8.53,0,0,0,4.16,3.79,9.12,9.12,0,0,0,1.51,2.38c-1.51,3.06-.66,7,2.53,11.65a44,44,0,0,0,4.61,5.6l.19.19.21.16A11.7,11.7,0,0,0,71,73.87a8.93,8.93,0,0,0,1-.07,33.43,33.43,0,0,0,6.81,6.1L82,92a8.32,8.32,0,0,1,0,2.11c-1.52,1.57-5.59,6.16-7.2,8-2.09.84-7,3-10.1,5.86-7.42,4.28-8,4.88-8.46,5.32-.73.73-1.09,1.09-13,29-5.77,13.46-11.51,27-11.57,27.12l-1.14,2.7,2.34,1.77,28.49,21.48,7.71,5.82c-.79,2.9-1.5,6.47-1.15,9.14l-.47,1.32a24.69,24.69,0,0,1-2.27,1.26l-1.29.61-.56,1.32c-.47,1.11-1.87,4.95-.13,7.87a3.45,3.45,0,0,0,.2.32c-3.31,9.31-5.79,16.21-5.79,16.21l-1.84,5.13,5.45-.1h.21l-.12.75v0c-2.5,14.35-3.7,32.93-4,38.61-8.89,7.93-7.61,23.14-7.17,28.31,0,.48.09,1.06.09,1.23-.06,2.71-3.25,19.08-4.8,21.56A10.12,10.12,0,0,0,43.06,341a18.43,18.43,0,0,1-3,3.12c-1.59,1.11-2.57,3-3,5.71-.42,1.15-1.68,4.65-2.76,8.38C32,366.22,32,369.84,34.12,372c2.73,2.73,10.35,4,16.28,4a34.58,34.58,0,0,0,13.13-2.34,7.54,7.54,0,0,0,4.56-5c1.09-3.92-.67-9-5.56-15.86-.65-5.35-3.11-12.29-4.05-14.83.58-3.6,2.91-16.76,7.26-26.51a145.44,145.44,0,0,0,7.81-22.31c3.14-3.93,5.38-11.49,6-13.53l14.77-37a89.12,89.12,0,0,0,10.83-4.24l.39,1.46v0c10.92,40.92,12.82,47.17,13.32,48.54,0,.3-.12.84-.2,1.29-.81,4.85-2.7,16.18,6.27,47.93a25.69,25.69,0,0,1-1.27,5.3,17.14,17.14,0,0,0-2.39,6.9,10.91,10.91,0,0,0,.11,6.93c1.22,3.2,7.17,7.21,9,8.36,3.08,2,9.08,5.34,14.7,5.71.53,0,1.07.05,1.59.05,9.13,0,15.19-5.39,16-8.41a4.25,4.25,0,0,0,.12-1.58,4.94,4.94,0,0,0,.42-1.5,4.54,4.54,0,0,0-1.34-3.65l-1-1-1.46-.06a13.1,13.1,0,0,1-2.29-.34,6.93,6.93,0,0,0-2-2.94,13.89,13.89,0,0,0-4.53-2.16c-3.81-3.06-8.33-6.63-9.63-7.65-1.32-1.71-2.79-3.66-3.48-4.64-.17-2.83-.79-12.92-3.11-49.6a26.47,26.47,0,0,0-.1-10.81c-.24-1.33-.77-7.06-.67-31.63l2.79.89.12-5c0-1,.53-25.1-2.79-40.51h0l0-.34,0-.34-2.62-20.83a6.62,6.62,0,0,0-.32-4.67,213.56,213.56,0,0,0,1.68-24.25c0-3.65,0-7.63-.25-12l26.8,21.67,2.55,2.07,2.39-2.25c13.32-12.56,29.38-26.73,33.88-29.36a18.51,18.51,0,0,0,4.52.41,177.65,177.65,0,0,0,18.73-1.64l1.25-.17.89-.89,5-5,2.41-2.41-2.16-2.63-2.19-2.68-.66-.79-1-.36a34.35,34.35,0,0,0-7.65-1.69c-.41-1.12-1.42-2.27-3.61-3a32.91,32.91,0,0,0-5.43-1.23,31.38,31.38,0,0,0-5-.42c-10.63,0-14.51,6.23-15.72,9l-25.47,21.53-33.44-31a19,19,0,0,0-3.69-5.17l-1-.95-1.35-.13L116.08,96c-3.67-.54-10.23-1.88-14.71-4.93a31.85,31.85,0,0,1-.81-3.78c1.75.16,3.54.24,5.35.24,4.11,0,16.59,0,18.1-8.75,2.67-15.34-.55-34.86-7.67-47.86,1.45-2.41,1-5.39-.39-7.9a6.62,6.62,0,0,0,0-.77c-.19-2.07-1.64-3.95-3.16-5.36a8.23,8.23,0,0,0-.23-4c-.92-2.91-3.34-5.21-7.2-6.83A14.52,14.52,0,0,0,95.09,1.71a15.27,15.27,0,0,0-1.9.12,10.33,10.33,0,0,0-6-2ZM53.49,167.37,64.33,147l5.91,3.71c.91,1.77,3,5.94,5.06,10.45,3.77,8.31,4.68,11.84,4.89,13.19a6.48,6.48,0,0,0-1.66,2.53,6.37,6.37,0,0,0-.14,3.71l-1.16,3.35-3.61-2.52-20.13-14ZM137.4,334Z"
       id="path6509" />
    <path
       class="cls-7"
       d="M125.12,105l36.43,33.81,28.75-24.31s2.41-9.48,16.93-7.13-1.32,4.07-1.32,4.07,10.27-.86,17.33,1.71l2.19,2.67-5,5s-20.11,2.78-22.52,1-36.68,30.56-36.68,30.56l-33.44-27-6.57-5.6Z"
       id="path6511" />
    <path
       class="cls-7"
       d="M81.67,75.66l4.06,15.62s.64,3.85-.75,5.24-7.91,8.77-7.91,8.77l-3.64,7.16,21.07,12,25.13-6.74-.75-17.64S106,99.23,98.51,93.6c-1.47-1.11-2.73-14-2.73-14Z"
       id="path6513" />
    <path
       class="cls-8"
       d="M96.48,85.3c-.4-2.88-.72-5.78-.72-5.78l-14.12-4,1.13,4.35s4.42,2.88,5.8,3.48A26.92,26.92,0,0,0,96.48,85.3Z"
       id="path6515" />
    <path
       class="cls-7"
       d="M70,109.33S59.89,115,59,116s-23.81,54.9-23.81,54.9l28.48,21.48,9.8,7.39s-3.1,9.52-1.28,11.34-5.35,5.2-5.35,5.2-2.78,6.56,2.85,5.14a84.11,84.11,0,0,0,13.26-5.21l3.78-21.1-15.22-10.6L48.6,168.55l14.31-26.89,10.2,6.39,12.51-9.14-9-22.39-3.85-8.41Z"
       id="path6517" />
    <path
       class="cls-7"
       d="M73.36,69.18s8.17,14.53,32.55,14.54c10.09,0,13.83-2.36,14.4-5.63,3.57-20.58-4-46.6-14.58-54.54-9.25-7-42.07,19.39-42.07,19.39l7,15.68s-7.13-7.7-10-3.42,6.2,13.33,6.2,13.33S70.94,71.6,73.36,69.18Z"
       id="path6519" />
    <path
       class="cls-7"
       d="M96.53,222.7l-20.6,51.67s-2.66,9.79-5.81,12.94a139.19,139.19,0,0,1-7.81,22.57c-5.35,12-7.7,28.44-7.7,28.44s4.87,12.36,4.28,17.92c0,0,4.65,6.42,2.78,10.1s-9.2,1.5-9.2,1.5-12.24,1.61-14.06-1.44,2.3-11.23,2.3-11.23-.59-6.52,1.55-8A26.49,26.49,0,0,0,47,342s-.8-2.13,1.45-5S54,315.58,54,313.16s-3-20.54,7-27.67c0,0,2.42-49.19,9.26-56s26.31-10.91,26.31-10.91Z"
       id="path6521" />
    <path
       class="cls-9"
       d="M96.53,222.7,90,239.22s-9.12,4.07-11.43,4.64c-1.71.42-13.91,4.19-13.5,1.73,1.29-7.69,3.06-14,5.2-16.14,6.85-6.84,26.31-10.91,26.31-10.91Z"
       id="path6523" />
    <path
       class="cls-7"
       d="M103.88,215.05s17.25,65.17,18.53,68.16S117,292,128.72,333.3c0,0-.75,5.45-1.81,7.38s-3.53,6.84-.43,8.55,13.15,10.27,17.43,11,12.3-3,12.3-3,4.28-1.6,2.94-2.94c0,0-3.9-.16-5.19-1.44s-15.83-12.73-15.83-12.73-4.49-5.77-4.49-6.16-3.21-51.16-3.21-51.16,1.18-3.21,0-9.73-.6-47.63-.6-47.63Z"
       id="path6525" />
    <path
       class="cls-9"
       d="M103.88,215.05l5.26,19.8c.46,1.73,20.58,3.12,20.58,3.12l.11-12.51Z"
       id="path6527" />
    <path
       class="cls-10"
       d="M103.88,228c3.33,6.61,26.79,8,28.73,8.62,0,0,.61-26.56-3.13-41.48S103.88,228,103.88,228Z"
       id="path6529" />
    <path
       class="cls-11"
       d="M75.36,63.33c4.13,1.71.57-5.7.57-5.7s-.39-7.44-2.5-8.7a30.8,30.8,0,0,1-4.59-3.75l39.46-27s4-5.56-5.14-9a10.88,10.88,0,0,0-11-3.28s-4-4.77-9.77-.39c0,0-11.62-.68-14.26,5a4.32,4.32,0,0,0-4.27,2.42s-2.43.93-2.89,2.89c0,0-5.88,2.32-6.24,6.24,0,0-3.21,4.49-.64,8.13,0,0-1.69,3.19.5,5.38,0,0-4.92,5.38,0,8.73,0,0-1.21,3.5,6,4.92l2.14,4.42s2-.93,8,5Z"
       id="path6531" />
    <path
       transform="translate(-9.11 24.15) rotate(-14.1)"
       style="fill:#6d5f56"
       d="m 94.970003,48.91 a 1.92,2.6199999 0 0 1 -1.92,2.62 1.92,2.6199999 0 0 1 -1.92,-2.62 1.92,2.6199999 0 0 1 1.92,-2.62 1.92,2.6199999 0 0 1 1.92,2.62 z"
       id="ellipse6533" />
    <path
       class="cls-12"
       d="M90.59,47.58h-.07A1.5,1.5,0,0,1,89.09,46c0-.39.23-3.79,2.71-5.12,1.6-.87,3.6-.6,5.94.79a1.5,1.5,0,0,1-1.54,2.58c-1.33-.79-2.38-1.05-3-.74-.79.42-1.11,1.95-1.15,2.62A1.5,1.5,0,0,1,90.59,47.58Z"
       id="path6535" />
    <path
       transform="translate(-7.56 28.27) rotate(-14.1)"
       style="fill:#6d5f56"
       d="m 112.4,44.689999 a 1.92,2.6199999 0 0 1 -1.92,2.62 1.92,2.6199999 0 0 1 -1.92,-2.62 1.92,2.6199999 0 0 1 1.92,-2.62 1.92,2.6199999 0 0 1 1.92,2.62 z"
       id="ellipse6537" />
    <path
       class="cls-12"
       d="M108.44,43.12a1.83,1.83,0,0,1-.4,0A1.51,1.51,0,0,1,107,41.23c.11-.37,1.08-3.64,3.79-4.39,1.75-.48,3.65.22,5.61,2.1a1.5,1.5,0,1,1-2.07,2.17c-1.12-1.06-2.08-1.55-2.74-1.38-.85.23-1.51,1.65-1.69,2.3A1.51,1.51,0,0,1,108.44,43.12Z"
       id="path6539" />
    <path
       class="cls-13"
       d="M95.75,66.25c-.24-.25,14.12.89,19.61-3.14,0,0,1.08,10.92-3.82,12.12S100.69,74.44,95.75,66.25Z"
       id="path6541" />
    <g
       class="cls-14"
       clip-path="url(#clip-path-2)"
       id="g6547">
      <path
         class="cls-15"
         d="M94.81,68s13.43,3.84,19.4-2.13l-.75-2.72L93.78,64.44Z"
         id="path6543" />
      <path
         class="cls-16"
         d="M97.17,72.88s4.32-4.17,11.2-1.39,0,7.81,0,7.81Z"
         id="path6545" />
    </g>
    <path
       class="cls-8"
       d="M108.59,76.63c-8.18,0-13.65-9.79-13.72-9.9L94,65.15l1.79.1c.13,0,13.27.64,19-3a1,1,0,0,1,1.38.32,1,1,0,0,1-.31,1.37c-5,3.13-14.29,3.4-18.3,3.35,2.13,3.11,7.62,9.59,14.63,6.53a1,1,0,1,1,.8,1.84A11.09,11.09,0,0,1,108.59,76.63Z"
       id="path6549" />
    <path
       class="cls-8"
       d="M70.33,67.54s-.21-9.36-7.43-11.61"
       id="path6551" />
    <path
       class="cls-8"
       d="M62.91,141.66s6.17-8.27,5.35-7c-4.51,7,11.56,15,15.33,10.74a9.63,9.63,0,0,1-10.48,2.66Z"
       id="path6553" />
    <path
       class="cls-17"
       d="M77.07,105.29s-6.85,2.52-10,5.71c0,0,19.2,27.85,6.08,37.05,0,0,12.09,23.08,10.8,27.79s-22.75,64.63-22.75,64.63,66.31-1.18,68.67-44.53L126.69,171a210,210,0,0,0,1.86-25.31c.13-12.18-1.2-26.17-2.18-35.73a15.42,15.42,0,0,0-4.5-9.69l-6.24-.58s4.92,16.52-6.48,18.08C103,118.6,88.19,120.59,77.07,105.29Z"
       id="path6555" />
    <g
       class="cls-18"
       clip-path="url(#clip-path-3)"
       id="g6559">
      <path
         class="cls-19"
         d="M63.63,242.09s66.31-1.18,68.67-44.53Z"
         id="path6557" />
    </g>
    <path
       class="cls-17"
       d="M77.07,105.29s-6.85,2.52-10,5.71c0,0,19.2,27.85,6.08,37.05,0,0,12.09,23.08,10.8,27.79s-22.75,64.63-22.75,64.63,66.31-1.18,68.67-44.53L126.69,171a210,210,0,0,0,1.86-25.31c.13-12.18-1.2-26.17-2.18-35.73a15.42,15.42,0,0,0-4.5-9.69l-6.24-.58s4.92,16.52-6.48,18.08C103,118.6,88.19,120.59,77.07,105.29Z"
       id="path6561" />
    <path
       class="cls-7"
       d="M63.63,192.33l9.8,7.39s-3.1,9.52-1.28,11.34-5.35,5.2-5.35,5.2-2.78,6.56,2.85,5.14a84.11,84.11,0,0,0,13.26-5.21l3.21-17.9s1-3.51-3-5.86c-3.09-1.81-11.64-7.94-11.64-7.94Z"
       id="path6563" />
    <path
       class="cls-20"
       d="M82.44,180.69s35,4.65,44.66-6.47c0,0,1.05-2.2-.41-3.23.21,2.06-16.42,11-42.78,5.35A2.87,2.87,0,0,0,82.44,180.69Z"
       id="path6565" />
    <path
       style="fill:#c99e32"
       d="m 119.63,179 a 8.1499996,8.1499996 0 0 1 -8.15,8.15 8.1499996,8.1499996 0 0 1 -8.15,-8.15 8.1499996,8.1499996 0 0 1 8.15,-8.15 8.1499996,8.1499996 0 0 1 8.15,8.15 z"
       id="circle6567" />
    <g
       class="cls-22"
       clip-path="url(#clip-path-4)"
       id="g6571">
      <path
         class="cls-23"
         d="M72.76,21.26s-3.5,4.25.94,7.08c1.56,1-4.6,5.78-4.6,5.78l-2.49,14A18.72,18.72,0,0,1,72,46.78l11.26,12.9L76,64.19,53,48.67,37.64,19.05,57.39,1.12,79-3.9,75.2,3.62S66,9.22,69.53,13.26C67.34,14.8,66.91,20.85,72.76,21.26Z"
         id="path6569" />
    </g>
    <path
       class="cls-24"
       d="M62.77,53.63s-4.13-1.85-4.13-5.27S74.75,12.57,108.4,18.13c0,0,5.21,3.63,3.43,5.42,0,0,3.21,4,.64,6.12S97.42,28.68,62.77,53.63Z"
       id="path6573" />
    <path
       class="cls-25"
       d="M64.59,46.08s21.53-26.24,44.56-22.82C109.15,23.26,87.69,24.41,64.59,46.08Z"
       id="path6575" />
    <path
       class="cls-26"
       d="M112.38,185.92a8,8,0,0,1-5.91-2.3c-1.58-1.77-2-4.33-1.32-7.62a1.5,1.5,0,1,1,2.93.64c-.49,2.28-.28,4,.62,5,1.36,1.54,4,1.3,4.08,1.3a1.5,1.5,0,0,1,.3,3S112.78,185.92,112.38,185.92Z"
       id="path6577" />
    <path
       class="cls-27"
       d="M116.41,183.15l-.33,0a1.5,1.5,0,0,1-1.14-1.79c.51-2.29.31-4-.59-5-1.36-1.53-4-1.32-4.06-1.31a1.5,1.5,0,0,1-.3-3c.18,0,4.21-.38,6.6,2.31,1.57,1.77,2,4.34,1.28,7.62A1.5,1.5,0,0,1,116.41,183.15Z"
       id="path6579" />
    <path
       class="cls-8"
       d="M104.09,63.83a1.5,1.5,0,0,1,0-3c1.48,0,5.62-1.25,8.52-2.23-.92-7.27-5.57-12.71-8.35-15.37a1.5,1.5,0,0,1,2.07-2.17c3.24,3.1,8.76,9.61,9.38,18.46l.08,1.13-1.07.39C113.92,61.32,106.84,63.83,104.09,63.83Z"
       id="path6581" />
    <path
       class="cls-8"
       d="M201.82,115.71a3.68,3.68,0,0,1-.73-.07,1.5,1.5,0,1,1,.52-3c1.1.21,2.57-1.35,3.07-2.08a1.5,1.5,0,0,1,2.47,1.69C206.9,112.67,204.74,115.71,201.82,115.71Z"
       id="path6583" />
    <path
       class="cls-8"
       d="M212.62,121.08a1.07,1.07,0,0,1-.35-.06,1,1,0,0,1-.59-1.28c.7-1.93-1.65-5.24-2.53-6.25a1,1,0,0,1,1.51-1.32c.43.49,4.13,4.88,2.9,8.26A1,1,0,0,1,212.62,121.08Z"
       id="path6585" />
  </g>
</svg>
