<svg id="Camada_1" data-name="Camada 1" xmlns="http://www.w3.org/2000/svg" xmlns:xlink="http://www.w3.org/1999/xlink" viewBox="0 0 881 239.73"><defs><style>.cls-1{fill:none;}.cls-2{fill:#65c4d1;}.cls-3{fill:#f9f9f9;}.cls-4{fill:#97d8dd;}.cls-5{clip-path:url(#clip-path);}.cls-6{fill:#eac2a7;}.cls-7{fill:#c9a68f;}.cls-8{fill:#d6aa8b;}.cls-9{fill:#d6d6d6;}.cls-10{fill:#c99f4b;}.cls-11{fill:#6d5f56;}.cls-12{fill:#493e38;}.cls-13{clip-path:url(#clip-path-2);}.cls-14{fill:#fcfcfc;}.cls-15{fill:#d32222;}.cls-16{fill:#f4f4f4;}.cls-17{clip-path:url(#clip-path-3);}.cls-18{fill:#b7b7b7;}.cls-19{fill:#6d472e;}.cls-20{fill:#c99e32;}.cls-21{clip-path:url(#clip-path-4);}.cls-22{fill:#aa7e30;}.cls-23{fill:#fff;}.cls-24{fill:#ddd;}.cls-25{fill:#846829;}.cls-26{fill:#e8cd95;}.cls-27{fill:#eaa000;}</style><clipPath id="clip-path"><path class="cls-1" d="M149.19,222.15s-30.33,23-81.13,4.11S17.26,61.91,17.26,61.91C-14.95,59,54.56,0,99.08,0c10.61,0,46.74,8,46.74,30.4s27.11,123,27.11,123,11.4,44.1,5.7,47.46"/></clipPath><clipPath id="clip-path-2"><path class="cls-1" d="M107.8,68c-.24-.25,14.41.92,20-3.2,0,0,1.11,11.15-3.89,12.37S112.84,76.36,107.8,68Z"/></clipPath><clipPath id="clip-path-3"><path class="cls-1" d="M116.09,233c3.41,6.75,27.34,8.18,29.32,8.8,0,0,.62-27.1-3.2-42.32S116.09,233,116.09,233Z"/></clipPath><clipPath id="clip-path-4"><path class="cls-1" d="M87,65c4.22,1.75.58-5.82.58-5.82s-.4-7.58-2.55-8.87a31,31,0,0,1-4.68-3.83l10.78-7.39L120.6,18.9s4.08-5.67-5.23-9.16a11.07,11.07,0,0,0-11.28-3.35S100,1.52,94.13,6c0,0-11.86-.69-14.55,5.13a4.42,4.42,0,0,0-4.37,2.47s-2.47.95-2.94,2.95c0,0-6,2.36-6.37,6.36,0,0-3.27,4.58-.65,8.29,0,0-1.73,3.26.51,5.5,0,0-5,5.49,0,8.91,0,0-1.24,3.56,6.11,5l2.18,4.5s2.1-.95,8.15,5.1S87,65,87,65Z"/></clipPath></defs><title>introduzir1</title><path class="cls-2" d="M871,223H161.74V60.25H871a10,10,0,0,1,10,10V213A10,10,0,0,1,871,223Z"/><path class="cls-3" d="M259.59,103.41l1.27-.18,6-15.41h2l5.86,15.41,1.26.18v1.48H271v-1.48l1.29-.22-1.13-3.14h-6.83l-1.16,3.14,1.29.22v1.48h-4.89Zm5.48-5.3h5.41l-2.65-7.32h-.07Z"/><path class="cls-3" d="M277.23,103.41l1.91-.33V94l-1.91-.32V92.21h4l.17,1.88A4.56,4.56,0,0,1,283,92.53a4.22,4.22,0,0,1,2.17-.56,4.12,4.12,0,0,1,3.17,1.2,5.28,5.28,0,0,1,1.13,3.71v6.2l1.91.33v1.48h-6.13v-1.48l1.91-.33V96.93a3.44,3.44,0,0,0-.66-2.38,2.65,2.65,0,0,0-2-.7,3.28,3.28,0,0,0-1.77.48,3.5,3.5,0,0,0-1.22,1.31v7.44l1.91.33v1.48h-6.13Z"/><path class="cls-3" d="M297.05,89.15v3.06h2.4v1.71h-2.4v7.7a1.7,1.7,0,0,0,.37,1.25,1.32,1.32,0,0,0,1,.36,4.31,4.31,0,0,0,.69,0,6,6,0,0,0,.64-.11l.32,1.58a3,3,0,0,1-1,.35,6,6,0,0,1-1.26.13,3,3,0,0,1-2.24-.85,3.69,3.69,0,0,1-.83-2.66v-7.7h-2V92.21h2V89.15Z"/><path class="cls-3" d="M307.59,105.13a5.36,5.36,0,0,1-4.21-1.76,6.66,6.66,0,0,1-1.56-4.58v-.51a6.48,6.48,0,0,1,1.61-4.51,5,5,0,0,1,3.81-1.8,4.82,4.82,0,0,1,3.88,1.55,6.19,6.19,0,0,1,1.31,4.12v1.45h-8.22l0,0a5,5,0,0,0,.93,3,2.92,2.92,0,0,0,2.49,1.18,5.63,5.63,0,0,0,2.06-.34,4.7,4.7,0,0,0,1.53-.92l.9,1.5a5.42,5.42,0,0,1-1.8,1.11A7.18,7.18,0,0,1,307.59,105.13Zm-.35-11.34a2.52,2.52,0,0,0-2,1,4.64,4.64,0,0,0-1,2.45l0,.06h5.85V97a3.58,3.58,0,0,0-.73-2.28A2.59,2.59,0,0,0,307.24,93.79Z"/><path class="cls-3" d="M324.41,96.19h-1.73l-.38-1.52a3,3,0,0,0-1.06-.64,4.12,4.12,0,0,0-1.45-.24,2.67,2.67,0,0,0-1.83.54,1.71,1.71,0,0,0-.59,1.3,1.44,1.44,0,0,0,.52,1.18,5.57,5.57,0,0,0,2.15.78,9.16,9.16,0,0,1,3.57,1.4,2.83,2.83,0,0,1,1.18,2.37,3.29,3.29,0,0,1-1.37,2.73,5.69,5.69,0,0,1-3.57,1,9.41,9.41,0,0,1-2.59-.33,6.92,6.92,0,0,1-2.05-1v-2.89h1.73l.44,1.7a2.37,2.37,0,0,0,1.08.52,6,6,0,0,0,1.4.17,3.3,3.3,0,0,0,1.93-.5,1.55,1.55,0,0,0,.7-1.31,1.6,1.6,0,0,0-.58-1.25,5.56,5.56,0,0,0-2.2-.86A9.08,9.08,0,0,1,316.22,98a2.77,2.77,0,0,1-1.17-2.34,3.32,3.32,0,0,1,1.32-2.64A5.21,5.21,0,0,1,319.79,92a8.3,8.3,0,0,1,2.59.38,5.37,5.37,0,0,1,1.91,1Z"/><path class="cls-3" d="M341.45,103.37a4.08,4.08,0,0,1-1.52,1.32,4.72,4.72,0,0,1-2.08.44,4.35,4.35,0,0,1-3.63-1.68,7,7,0,0,1-1.3-4.42v-.25a8.46,8.46,0,0,1,1.3-4.93A4.22,4.22,0,0,1,337.88,92a4.44,4.44,0,0,1,2,.42,4.06,4.06,0,0,1,1.47,1.2V88.42l-1.91-.33V86.61h4.22v16.47l1.91.33v1.48h-3.91ZM335.23,99a5.44,5.44,0,0,0,.78,3.07,2.74,2.74,0,0,0,2.43,1.16,3.06,3.06,0,0,0,1.73-.47,3.45,3.45,0,0,0,1.16-1.33V95.58a3.44,3.44,0,0,0-1.16-1.26,3,3,0,0,0-1.71-.47A2.61,2.61,0,0,0,336,95.22a7,7,0,0,0-.79,3.56Z"/><path class="cls-3" d="M353.1,105.13a5.38,5.38,0,0,1-4.22-1.76,6.66,6.66,0,0,1-1.56-4.58v-.51a6.52,6.52,0,0,1,1.61-4.51,5,5,0,0,1,3.82-1.8,4.81,4.81,0,0,1,3.87,1.55,6.14,6.14,0,0,1,1.32,4.12v1.45h-8.23l0,0a5,5,0,0,0,.92,3,3,3,0,0,0,2.5,1.18,5.61,5.61,0,0,0,2-.34,4.7,4.7,0,0,0,1.53-.92l.91,1.5a5.63,5.63,0,0,1-1.8,1.11A7.25,7.25,0,0,1,353.1,105.13Zm-.35-11.34a2.49,2.49,0,0,0-2,1,4.56,4.56,0,0,0-1,2.45l0,.06h5.85V97a3.52,3.52,0,0,0-.73-2.28A2.57,2.57,0,0,0,352.75,93.79Z"/><path class="cls-3" d="M375.88,96.19h-1.74l-.37-1.52a3.1,3.1,0,0,0-1.06-.64,4.12,4.12,0,0,0-1.45-.24,2.67,2.67,0,0,0-1.83.54,1.71,1.71,0,0,0-.59,1.3,1.44,1.44,0,0,0,.52,1.18,5.5,5.5,0,0,0,2.15.78,9.16,9.16,0,0,1,3.57,1.4,2.82,2.82,0,0,1,1.17,2.37,3.28,3.28,0,0,1-1.36,2.73,5.69,5.69,0,0,1-3.57,1,9.41,9.41,0,0,1-2.59-.33,6.81,6.81,0,0,1-2.05-1v-2.89h1.73l.44,1.7a2.37,2.37,0,0,0,1.08.52,6,6,0,0,0,1.4.17,3.3,3.3,0,0,0,1.93-.5,1.55,1.55,0,0,0,.7-1.31,1.6,1.6,0,0,0-.58-1.25,5.56,5.56,0,0,0-2.2-.86A9.08,9.08,0,0,1,367.69,98a2.77,2.77,0,0,1-1.17-2.34,3.34,3.34,0,0,1,1.31-2.64A5.26,5.26,0,0,1,371.26,92a8.3,8.3,0,0,1,2.59.38,5.46,5.46,0,0,1,1.91,1Z"/><path class="cls-3" d="M384.2,105.13a5.35,5.35,0,0,1-4.21-1.76,6.62,6.62,0,0,1-1.57-4.58v-.51A6.52,6.52,0,0,1,380,93.77a5,5,0,0,1,3.82-1.8,4.81,4.81,0,0,1,3.87,1.55A6.14,6.14,0,0,1,389,97.64v1.45h-8.23l0,0a5,5,0,0,0,.92,3,3,3,0,0,0,2.5,1.18,5.67,5.67,0,0,0,2.06-.34,4.7,4.7,0,0,0,1.53-.92l.9,1.5a5.63,5.63,0,0,1-1.8,1.11A7.21,7.21,0,0,1,384.2,105.13Zm-.35-11.34a2.49,2.49,0,0,0-2,1,4.56,4.56,0,0,0-1,2.45l0,.06h5.85V97A3.52,3.52,0,0,0,386,94.7,2.57,2.57,0,0,0,383.85,93.79Z"/><path class="cls-3" d="M391.32,98.78a8.31,8.31,0,0,1,1.34-4.93A4.29,4.29,0,0,1,396.35,92a4.52,4.52,0,0,1,2.1.47A4.17,4.17,0,0,1,400,93.8l.21-1.59h1.95v12.51a5.37,5.37,0,0,1-1.37,3.88,5.22,5.22,0,0,1-3.91,1.41,9.09,9.09,0,0,1-2-.25,7.74,7.74,0,0,1-1.87-.69l.6-1.79a7.23,7.23,0,0,0,1.52.56,6.92,6.92,0,0,0,1.71.22,2.81,2.81,0,0,0,2.27-.86,3.8,3.8,0,0,0,.72-2.48v-1.2a4.08,4.08,0,0,1-1.49,1.2,4.51,4.51,0,0,1-2,.41,4.43,4.43,0,0,1-3.67-1.68A6.93,6.93,0,0,1,391.32,99Zm2.31.25a5.28,5.28,0,0,0,.81,3.07,2.81,2.81,0,0,0,2.46,1.16,3,3,0,0,0,1.75-.48,3.57,3.57,0,0,0,1.16-1.34V95.61a3.62,3.62,0,0,0-1.16-1.29,3.1,3.1,0,0,0-1.72-.47,2.7,2.7,0,0,0-2.48,1.38,7,7,0,0,0-.82,3.55Z"/><path class="cls-3" d="M414,103a4.11,4.11,0,0,1-3.71,2.12,4.06,4.06,0,0,1-3.22-1.32,6.12,6.12,0,0,1-1.16-4.13V94l-1.46-.32V92.21h3.77v7.5a4.81,4.81,0,0,0,.59,2.79,2.25,2.25,0,0,0,1.87.76,3.82,3.82,0,0,0,2-.5,3,3,0,0,0,1.21-1.41V94l-1.7-.32V92.21h4v10.87l1.45.33v1.48h-3.52Z"/><path class="cls-3" d="M419.47,103.41l1.91-.33V94l-1.91-.32V92.21h4.22v10.87l1.91.33v1.48h-6.13ZM423.69,89h-2.31V86.61h2.31Z"/><path class="cls-3" d="M427.36,93.7V92.21h4l.22,1.84a4.55,4.55,0,0,1,1.33-1.53A3.18,3.18,0,0,1,434.7,92a5.28,5.28,0,0,1,.55,0l.44.09-.3,2.15-1.32-.07a2.65,2.65,0,0,0-1.53.42,2.81,2.81,0,0,0-1,1.2v7.28l1.91.33v1.48h-6.13v-1.48l1.91-.33V94Z"/><path class="cls-3" d="M436.83,103.41l1.91-.33V94l-1.91-.32V92.21h4l.15,1.65a4.18,4.18,0,0,1,1.58-1.4,4.9,4.9,0,0,1,2.22-.49,4,4,0,0,1,2.18.59,3.55,3.55,0,0,1,1.36,1.76,4.74,4.74,0,0,1,1.58-1.71,4.1,4.1,0,0,1,2.3-.64,3.82,3.82,0,0,1,3.07,1.33,6.08,6.08,0,0,1,1.13,4v5.78l1.91.33v1.48h-6.15v-1.48l1.91-.33v-5.8a4.2,4.2,0,0,0-.64-2.65,2.34,2.34,0,0,0-1.91-.78,2.43,2.43,0,0,0-1.94.85,3.68,3.68,0,0,0-.85,2.14v6.24l1.91.33v1.48h-6.13v-1.48l1.91-.33v-5.8a4.17,4.17,0,0,0-.66-2.61,2.31,2.31,0,0,0-1.92-.82,3.15,3.15,0,0,0-1.73.43,2.83,2.83,0,0,0-1,1.22v7.58l1.91.33v1.48h-6.13Z"/><path class="cls-3" d="M459.86,98.43a7,7,0,0,1,1.52-4.64,5.63,5.63,0,0,1,8.29,0,7,7,0,0,1,1.53,4.64v.26a7,7,0,0,1-1.52,4.64,5.67,5.67,0,0,1-8.3,0,6.91,6.91,0,0,1-1.52-4.63Zm2.3.26A6.1,6.1,0,0,0,463,102a3.07,3.07,0,0,0,5,0,6,6,0,0,0,.85-3.33v-.26a6,6,0,0,0-.85-3.32,2.82,2.82,0,0,0-2.52-1.32A2.78,2.78,0,0,0,463,95.11a6.11,6.11,0,0,0-.85,3.32Z"/><path class="cls-3" d="M483,96.19h-1.73l-.38-1.52a3,3,0,0,0-1.06-.64,4.08,4.08,0,0,0-1.45-.24,2.62,2.62,0,0,0-1.82.54,1.68,1.68,0,0,0-.6,1.3,1.42,1.42,0,0,0,.53,1.18,5.44,5.44,0,0,0,2.14.78,9.16,9.16,0,0,1,3.57,1.4,2.8,2.8,0,0,1,1.18,2.37,3.29,3.29,0,0,1-1.37,2.73,5.69,5.69,0,0,1-3.57,1,9.41,9.41,0,0,1-2.59-.33,6.92,6.92,0,0,1-2.05-1v-2.89h1.74l.43,1.7a2.43,2.43,0,0,0,1.08.52,6,6,0,0,0,1.4.17,3.28,3.28,0,0,0,1.93-.5,1.53,1.53,0,0,0,.7-1.31,1.6,1.6,0,0,0-.58-1.25,5.56,5.56,0,0,0-2.2-.86A9.08,9.08,0,0,1,474.82,98a2.77,2.77,0,0,1-1.17-2.34A3.32,3.32,0,0,1,475,93.06,5.23,5.23,0,0,1,478.39,92a8.25,8.25,0,0,1,2.59.38,5.37,5.37,0,0,1,1.91,1Z"/><path class="cls-3" d="M497.3,105.13a5.38,5.38,0,0,1-4.22-1.76,6.66,6.66,0,0,1-1.56-4.58v-.51a6.52,6.52,0,0,1,1.61-4.51A5,5,0,0,1,497,92a4.81,4.81,0,0,1,3.87,1.55,6.14,6.14,0,0,1,1.32,4.12v1.45h-8.23l0,0a5,5,0,0,0,.92,3,2.94,2.94,0,0,0,2.5,1.18,5.61,5.61,0,0,0,2.05-.34,4.7,4.7,0,0,0,1.53-.92l.91,1.5a5.63,5.63,0,0,1-1.8,1.11A7.25,7.25,0,0,1,497.3,105.13ZM497,93.79a2.52,2.52,0,0,0-2,1,4.63,4.63,0,0,0-1,2.45l0,.06h5.85V97a3.52,3.52,0,0,0-.73-2.28A2.57,2.57,0,0,0,497,93.79Z"/><path class="cls-3" d="M504,103.41l1.91-.33V94L504,93.7V92.21h4l.15,1.65a4.23,4.23,0,0,1,1.57-1.4,4.92,4.92,0,0,1,2.23-.49,3.91,3.91,0,0,1,2.17.59,3.57,3.57,0,0,1,1.37,1.76A4.57,4.57,0,0,1,517,92.61,4.07,4.07,0,0,1,519.3,92a3.85,3.85,0,0,1,3.08,1.33,6.08,6.08,0,0,1,1.12,4v5.78l1.91.33v1.48h-6.14v-1.48l1.91-.33v-5.8a4.27,4.27,0,0,0-.64-2.65,2.34,2.34,0,0,0-1.91-.78,2.41,2.41,0,0,0-1.94.85,3.62,3.62,0,0,0-.85,2.14v6.24l1.91.33v1.48h-6.13v-1.48l1.91-.33v-5.8a4.17,4.17,0,0,0-.66-2.61,2.32,2.32,0,0,0-1.92-.82,3.21,3.21,0,0,0-1.74.43,2.83,2.83,0,0,0-1,1.22v7.58l1.91.33v1.48H504Z"/><path class="cls-3" d="M532.71,103.41l1.91-.33V94l-1.91-.32V92.21h4l.17,1.88a4.56,4.56,0,0,1,1.59-1.56,4.22,4.22,0,0,1,2.17-.56,4.15,4.15,0,0,1,3.18,1.2,5.28,5.28,0,0,1,1.12,3.71v6.2l1.91.33v1.48h-6.13v-1.48l1.91-.33V96.93a3.44,3.44,0,0,0-.66-2.38,2.65,2.65,0,0,0-2-.7,3.28,3.28,0,0,0-1.77.48,3.5,3.5,0,0,0-1.22,1.31v7.44l1.91.33v1.48h-6.13Z"/><path class="cls-3" d="M548.39,98.43a7,7,0,0,1,1.52-4.64,5.64,5.64,0,0,1,8.3,0,7,7,0,0,1,1.52,4.64v.26a6.93,6.93,0,0,1-1.52,4.64,5.67,5.67,0,0,1-8.3,0,7,7,0,0,1-1.52-4.63Zm2.31.26a6,6,0,0,0,.85,3.33,3.06,3.06,0,0,0,5,0,6,6,0,0,0,.86-3.33v-.26a6,6,0,0,0-.86-3.32,3.06,3.06,0,0,0-5,0,6.11,6.11,0,0,0-.84,3.32Z"/><path class="cls-3" d="M571.55,96.19h-1.74l-.37-1.52a3.1,3.1,0,0,0-1.06-.64,4.12,4.12,0,0,0-1.45-.24,2.67,2.67,0,0,0-1.83.54,1.68,1.68,0,0,0-.6,1.3,1.45,1.45,0,0,0,.53,1.18,5.5,5.5,0,0,0,2.15.78,9.16,9.16,0,0,1,3.57,1.4,2.82,2.82,0,0,1,1.17,2.37,3.28,3.28,0,0,1-1.36,2.73,5.69,5.69,0,0,1-3.57,1,9.35,9.35,0,0,1-2.59-.33,6.81,6.81,0,0,1-2-1v-2.89h1.73l.43,1.7a2.47,2.47,0,0,0,1.09.52,5.9,5.9,0,0,0,1.4.17,3.3,3.3,0,0,0,1.93-.5,1.54,1.54,0,0,0,.69-1.31,1.57,1.57,0,0,0-.58-1.25,5.5,5.5,0,0,0-2.19-.86A9.08,9.08,0,0,1,563.36,98a2.75,2.75,0,0,1-1.18-2.34,3.32,3.32,0,0,1,1.32-2.64A5.24,5.24,0,0,1,566.93,92a8.34,8.34,0,0,1,2.59.38,5.46,5.46,0,0,1,1.91,1Z"/><path class="cls-3" d="M583.78,96.19h-1.73l-.38-1.52a3,3,0,0,0-1.06-.64,4.08,4.08,0,0,0-1.45-.24,2.62,2.62,0,0,0-1.82.54,1.68,1.68,0,0,0-.6,1.3,1.42,1.42,0,0,0,.53,1.18,5.44,5.44,0,0,0,2.14.78A9.16,9.16,0,0,1,583,99a2.8,2.8,0,0,1,1.18,2.37,3.29,3.29,0,0,1-1.37,2.73,5.69,5.69,0,0,1-3.57,1,9.41,9.41,0,0,1-2.59-.33,6.92,6.92,0,0,1-2-1v-2.89h1.73l.44,1.7a2.43,2.43,0,0,0,1.08.52,6,6,0,0,0,1.4.17,3.28,3.28,0,0,0,1.93-.5,1.53,1.53,0,0,0,.7-1.31,1.6,1.6,0,0,0-.58-1.25,5.56,5.56,0,0,0-2.2-.86A9.08,9.08,0,0,1,575.59,98a2.77,2.77,0,0,1-1.17-2.34,3.32,3.32,0,0,1,1.32-2.64A5.23,5.23,0,0,1,579.16,92a8.25,8.25,0,0,1,2.59.38,5.37,5.37,0,0,1,1.91,1Z"/><path class="cls-3" d="M594.59,104.89c-.07-.35-.13-.66-.17-.93s-.06-.55-.08-.82a5.49,5.49,0,0,1-1.67,1.42,4.79,4.79,0,0,1-5.15-.39,3.57,3.57,0,0,1-1-2.73A3.14,3.14,0,0,1,588,98.66a7.1,7.1,0,0,1,4-1h2.38V96.2a2.3,2.3,0,0,0-.7-1.76,2.81,2.81,0,0,0-2-.65,4.75,4.75,0,0,0-1.53.22,2.84,2.84,0,0,0-1.07.61L588.82,96H587V93.5a7,7,0,0,1,2.1-1.11,8.21,8.21,0,0,1,2.67-.42,5.32,5.32,0,0,1,3.49,1.1,3.88,3.88,0,0,1,1.34,3.16v6.58l0,.47.94.13v1.48Zm-3.72-1.69a4.07,4.07,0,0,0,2.1-.55,3.48,3.48,0,0,0,1.36-1.33V99.24h-2.46a3.56,3.56,0,0,0-2.25.65,2,2,0,0,0-.82,1.6,1.59,1.59,0,0,0,.51,1.27A2.4,2.4,0,0,0,590.87,103.2Z"/><path class="cls-3" d="M609.42,105.93a4.19,4.19,0,0,1-1,3,3.69,3.69,0,0,1-2.8,1.06,3.58,3.58,0,0,1-.68-.06,4.08,4.08,0,0,1-.63-.15l.15-1.82a2.6,2.6,0,0,0,.48.1,3.76,3.76,0,0,0,.52,0,1.53,1.53,0,0,0,1.21-.51,2.56,2.56,0,0,0,.45-1.68V94l-1.91-.32V92.21h4.22Zm-.07-17H607v-2.3h2.31Z"/><path class="cls-3" d="M612.2,98.43a7,7,0,0,1,1.52-4.64,5.63,5.63,0,0,1,8.29,0,7,7,0,0,1,1.53,4.64v.26a6.93,6.93,0,0,1-1.52,4.64,5.67,5.67,0,0,1-8.3,0,7,7,0,0,1-1.52-4.63Zm2.31.26a6,6,0,0,0,.85,3.33,3.06,3.06,0,0,0,5,0,6,6,0,0,0,.85-3.33v-.26a6,6,0,0,0-.85-3.32,3.06,3.06,0,0,0-5,0,6.11,6.11,0,0,0-.84,3.32Z"/><path class="cls-3" d="M625.65,93.7V92.21h4l.22,1.84a4.44,4.44,0,0,1,1.33-1.53A3.15,3.15,0,0,1,633,92a5.28,5.28,0,0,1,.55,0,3.27,3.27,0,0,1,.44.09l-.3,2.15-1.31-.07a2.71,2.71,0,0,0-1.54.42,2.88,2.88,0,0,0-1,1.2v7.28l1.91.33v1.48h-6.13v-1.48l1.91-.33V94Z"/><path class="cls-3" d="M635.24,103.41l1.91-.33V94l-1.91-.32V92.21h4l.17,1.88A4.62,4.62,0,0,1,641,92.53a4.26,4.26,0,0,1,2.18-.56,4.14,4.14,0,0,1,3.17,1.2,5.28,5.28,0,0,1,1.13,3.71v6.2l1.91.33v1.48h-6.13v-1.48l1.91-.33V96.93a3.44,3.44,0,0,0-.66-2.38,2.65,2.65,0,0,0-2-.7,3.26,3.26,0,0,0-1.77.48,3.5,3.5,0,0,0-1.22,1.31v7.44l1.91.33v1.48h-6.13Z"/><path class="cls-3" d="M659.3,104.89c-.07-.35-.13-.66-.17-.93s-.06-.55-.08-.82a5.37,5.37,0,0,1-1.67,1.42,4.79,4.79,0,0,1-5.15-.39,3.57,3.57,0,0,1-1-2.73,3.16,3.16,0,0,1,1.46-2.78,7.1,7.1,0,0,1,4-1H659V96.2a2.3,2.3,0,0,0-.7-1.76,2.81,2.81,0,0,0-2-.65,4.75,4.75,0,0,0-1.53.22,2.84,2.84,0,0,0-1.07.61L653.53,96h-1.78V93.5a7,7,0,0,1,2.1-1.11,8.21,8.21,0,0,1,2.67-.42,5.32,5.32,0,0,1,3.49,1.1,3.88,3.88,0,0,1,1.34,3.16v6.58l0,.47.94.13v1.48Zm-3.72-1.69a4.07,4.07,0,0,0,2.1-.55,3.42,3.42,0,0,0,1.36-1.33V99.24h-2.46a3.56,3.56,0,0,0-2.25.65,2,2,0,0,0-.82,1.6,1.59,1.59,0,0,0,.51,1.27A2.4,2.4,0,0,0,655.58,103.2Z"/><path class="cls-3" d="M672.79,103.37a4.16,4.16,0,0,1-1.52,1.32,4.72,4.72,0,0,1-2.08.44,4.34,4.34,0,0,1-3.63-1.68A7,7,0,0,1,664.25,99v-.25a8.46,8.46,0,0,1,1.31-4.93A4.2,4.2,0,0,1,669.21,92a4.51,4.51,0,0,1,2,.42,4.23,4.23,0,0,1,1.47,1.2V88.42l-1.91-.33V86.61H675v16.47l1.91.33v1.48H673ZM666.56,99a5.36,5.36,0,0,0,.79,3.07,2.72,2.72,0,0,0,2.42,1.16,3.09,3.09,0,0,0,1.74-.47,3.53,3.53,0,0,0,1.16-1.33V95.58a3.62,3.62,0,0,0-1.16-1.26,3,3,0,0,0-1.71-.47,2.63,2.63,0,0,0-2.45,1.37,7.14,7.14,0,0,0-.79,3.56Z"/><path class="cls-3" d="M686.92,104.89c-.07-.35-.13-.66-.17-.93s-.06-.55-.08-.82a5.37,5.37,0,0,1-1.67,1.42,4.79,4.79,0,0,1-5.15-.39,3.57,3.57,0,0,1-1-2.73,3.16,3.16,0,0,1,1.46-2.78,7.13,7.13,0,0,1,4-1h2.38V96.2a2.27,2.27,0,0,0-.7-1.76,2.79,2.79,0,0,0-2-.65,4.75,4.75,0,0,0-1.53.22,2.84,2.84,0,0,0-1.07.61L681.15,96h-1.78V93.5a7,7,0,0,1,2.1-1.11,8.21,8.21,0,0,1,2.67-.42,5.32,5.32,0,0,1,3.49,1.1A3.88,3.88,0,0,1,689,96.23v6.58l0,.47.94.13v1.48Zm-3.72-1.69a4.07,4.07,0,0,0,2.1-.55,3.42,3.42,0,0,0,1.36-1.33V99.24H684.2a3.53,3.53,0,0,0-2.24.65,2,2,0,0,0-.83,1.6,1.59,1.59,0,0,0,.51,1.27A2.4,2.4,0,0,0,683.2,103.2Z"/><path class="cls-3" d="M694.51,104a5.83,5.83,0,0,1-.57,2.41,6,6,0,0,1-1.55,2.08l-1.3-.87a7,7,0,0,0,.83-1.72,6,6,0,0,0,.28-1.86V102.3h2.31Z"/><path class="cls-3" d="M706.91,93.7l-1.52.23,2.61,7.22.21.91h.07l.22-.91L711,93.93l-1.54-.23V92.21h4.9V93.7l-1,.17-4.26,11h-1.74l-4.31-11-1-.17V92.21h4.9Z"/><path class="cls-3" d="M724.05,104.89c-.07-.35-.12-.66-.16-.93a7.58,7.58,0,0,1-.08-.82,5.49,5.49,0,0,1-1.67,1.42,4.79,4.79,0,0,1-5.15-.39,3.57,3.57,0,0,1-1-2.73,3.14,3.14,0,0,1,1.46-2.78,7.1,7.1,0,0,1,4-1h2.38V96.2a2.28,2.28,0,0,0-.71-1.76,2.77,2.77,0,0,0-2-.65,4.75,4.75,0,0,0-1.53.22,2.84,2.84,0,0,0-1.07.61L718.29,96h-1.78V93.5a7,7,0,0,1,2.1-1.11,8.21,8.21,0,0,1,2.67-.42,5.34,5.34,0,0,1,3.49,1.1,3.88,3.88,0,0,1,1.34,3.16v6.58l0,.47.94.13v1.48Zm-3.71-1.69a4.09,4.09,0,0,0,2.1-.55,3.48,3.48,0,0,0,1.36-1.33V99.24h-2.46a3.56,3.56,0,0,0-2.25.65,2,2,0,0,0-.82,1.6,1.59,1.59,0,0,0,.51,1.27A2.38,2.38,0,0,0,720.34,103.2Z"/><path class="cls-3" d="M728.54,103.41l1.91-.33V94l-1.91-.32V92.21h4l.15,1.65a4.23,4.23,0,0,1,1.57-1.4,4.92,4.92,0,0,1,2.23-.49,3.94,3.94,0,0,1,2.17.59A3.57,3.57,0,0,1,740,94.32a4.57,4.57,0,0,1,1.58-1.71,4.07,4.07,0,0,1,2.29-.64A3.82,3.82,0,0,1,747,93.3a6.08,6.08,0,0,1,1.13,4v5.78l1.91.33v1.48h-6.14v-1.48l1.91-.33v-5.8a4.27,4.27,0,0,0-.64-2.65,2.35,2.35,0,0,0-1.92-.78,2.4,2.4,0,0,0-1.93.85,3.62,3.62,0,0,0-.85,2.14v6.24l1.91.33v1.48h-6.13v-1.48l1.91-.33v-5.8a4.17,4.17,0,0,0-.66-2.61,2.32,2.32,0,0,0-1.92-.82,3.21,3.21,0,0,0-1.74.43,2.83,2.83,0,0,0-1,1.22v7.58l1.91.33v1.48h-6.13Z"/><path class="cls-3" d="M751.57,98.43a7,7,0,0,1,1.52-4.64,5.63,5.63,0,0,1,8.29,0,7,7,0,0,1,1.53,4.64v.26a6.93,6.93,0,0,1-1.52,4.64,5.67,5.67,0,0,1-8.3,0,7,7,0,0,1-1.52-4.63Zm2.31.26a6,6,0,0,0,.85,3.33,3.06,3.06,0,0,0,5,0,6,6,0,0,0,.86-3.33v-.26a6,6,0,0,0-.86-3.32,3.06,3.06,0,0,0-5,0,6.11,6.11,0,0,0-.84,3.32Z"/><path class="cls-3" d="M774.73,96.19H773l-.37-1.52a3.1,3.1,0,0,0-1.06-.64,4.12,4.12,0,0,0-1.45-.24,2.67,2.67,0,0,0-1.83.54,1.68,1.68,0,0,0-.6,1.3,1.45,1.45,0,0,0,.53,1.18,5.5,5.5,0,0,0,2.15.78,9.16,9.16,0,0,1,3.57,1.4,2.82,2.82,0,0,1,1.17,2.37,3.28,3.28,0,0,1-1.36,2.73,5.69,5.69,0,0,1-3.57,1,9.35,9.35,0,0,1-2.59-.33,6.81,6.81,0,0,1-2.05-1v-2.89h1.73l.43,1.7a2.47,2.47,0,0,0,1.09.52,5.9,5.9,0,0,0,1.4.17,3.3,3.3,0,0,0,1.93-.5,1.54,1.54,0,0,0,.69-1.31,1.57,1.57,0,0,0-.58-1.25,5.5,5.5,0,0,0-2.19-.86A9.08,9.08,0,0,1,766.54,98a2.75,2.75,0,0,1-1.18-2.34,3.32,3.32,0,0,1,1.32-2.64A5.24,5.24,0,0,1,770.11,92a8.34,8.34,0,0,1,2.59.38,5.55,5.55,0,0,1,1.91,1Z"/><path class="cls-3" d="M265.78,133.93a5.36,5.36,0,0,1-4.21-1.76,6.67,6.67,0,0,1-1.57-4.58v-.51a6.48,6.48,0,0,1,1.62-4.51,5,5,0,0,1,3.81-1.8,4.81,4.81,0,0,1,3.87,1.55,6.14,6.14,0,0,1,1.32,4.12v1.45h-8.23l0,0a5,5,0,0,0,.93,3,2.92,2.92,0,0,0,2.49,1.18,5.67,5.67,0,0,0,2.06-.34,4.7,4.7,0,0,0,1.53-.92l.9,1.5a5.42,5.42,0,0,1-1.8,1.11A7.21,7.21,0,0,1,265.78,133.93Zm-.35-11.34a2.49,2.49,0,0,0-2,1,4.64,4.64,0,0,0-1,2.45l0,.06h5.85v-.3a3.57,3.57,0,0,0-.72-2.28A2.6,2.6,0,0,0,265.43,122.59Z"/><path class="cls-3" d="M272.58,132.21l1.36-.27,3.74-4.66-3.63-4.52-1.35-.27V121h5v1.48l-1.14.15,2.36,3,2.38-3.06-1.13-.13V121h5v1.48l-1.36.27-3.62,4.52,3.73,4.66,1.37.27v1.48h-5v-1.48l1.12-.13-2.48-3.19-2.49,3.19,1.14.13v1.48h-5Z"/><path class="cls-3" d="M295.14,133.69c-.07-.35-.13-.66-.17-.93s-.06-.55-.08-.82a5.37,5.37,0,0,1-1.67,1.42,4.79,4.79,0,0,1-5.15-.39,3.57,3.57,0,0,1-1-2.73,3.16,3.16,0,0,1,1.46-2.78,7.1,7.1,0,0,1,4-1h2.38V125a2.3,2.3,0,0,0-.7-1.76,2.81,2.81,0,0,0-2-.65,4.75,4.75,0,0,0-1.53.22,2.84,2.84,0,0,0-1.07.61l-.25,1.34h-1.78V122.3a6.76,6.76,0,0,1,2.1-1.11,8.21,8.21,0,0,1,2.67-.42,5.32,5.32,0,0,1,3.49,1.1,3.88,3.88,0,0,1,1.34,3.16v6.58l0,.47.94.13v1.48ZM291.42,132a4.07,4.07,0,0,0,2.1-.55,3.42,3.42,0,0,0,1.36-1.33V128h-2.46a3.56,3.56,0,0,0-2.25.65,2,2,0,0,0-.82,1.6,1.59,1.59,0,0,0,.51,1.27A2.4,2.4,0,0,0,291.42,132Z"/><path class="cls-3" d="M299.63,132.21l1.91-.33v-9.06l-1.91-.33V121h4l.15,1.65a4.23,4.23,0,0,1,1.57-1.4,4.92,4.92,0,0,1,2.23-.49,3.91,3.91,0,0,1,2.17.59,3.52,3.52,0,0,1,1.37,1.76,4.65,4.65,0,0,1,1.58-1.71,4.1,4.1,0,0,1,2.3-.64,3.84,3.84,0,0,1,3.07,1.33,6.08,6.08,0,0,1,1.12,4v5.78l1.91.33v1.48h-6.14v-1.48l1.91-.33v-5.8a4.2,4.2,0,0,0-.64-2.65,2.34,2.34,0,0,0-1.91-.78,2.42,2.42,0,0,0-1.94.85,3.68,3.68,0,0,0-.85,2.14v6.24l1.91.33v1.48h-6.13v-1.48l1.91-.33v-5.8a4.17,4.17,0,0,0-.66-2.61,2.31,2.31,0,0,0-1.92-.82,3.15,3.15,0,0,0-1.73.43,2.85,2.85,0,0,0-1.05,1.22v7.58l1.91.33v1.48h-6.12Z"/><path class="cls-3" d="M322.76,132.21l1.91-.33v-9.06l-1.91-.33V121H327v10.87l1.91.33v1.48h-6.13ZM327,117.76h-2.31v-2.35H327Z"/><path class="cls-3" d="M330.3,132.21l1.91-.33v-9.06l-1.91-.33V121h4l.16,1.88a4.56,4.56,0,0,1,1.59-1.56,4.25,4.25,0,0,1,2.17-.56,4.15,4.15,0,0,1,3.18,1.2,5.28,5.28,0,0,1,1.12,3.71v6.2l1.91.33v1.48h-6.12v-1.48l1.91-.33v-6.15a3.44,3.44,0,0,0-.67-2.38,2.64,2.64,0,0,0-2-.7,3.25,3.25,0,0,0-1.76.48,3.61,3.61,0,0,0-1.23,1.31v7.44l1.91.33v1.48H330.3Z"/><path class="cls-3" d="M354.36,133.69c-.07-.35-.12-.66-.16-.93a7.58,7.58,0,0,1-.08-.82,5.49,5.49,0,0,1-1.67,1.42,4.79,4.79,0,0,1-5.15-.39,3.57,3.57,0,0,1-1-2.73,3.15,3.15,0,0,1,1.45-2.78,7.16,7.16,0,0,1,4-1h2.38V125a2.28,2.28,0,0,0-.71-1.76,2.78,2.78,0,0,0-1.95-.65,4.75,4.75,0,0,0-1.53.22,2.88,2.88,0,0,0-1.08.61l-.24,1.34h-1.78V122.3a6.59,6.59,0,0,1,2.09-1.11,8.27,8.27,0,0,1,2.68-.42,5.34,5.34,0,0,1,3.49,1.1,3.87,3.87,0,0,1,1.33,3.16v6.1c0,.17,0,.33,0,.48a3.71,3.71,0,0,0,0,.47l.94.13v1.48ZM350.65,132a4.12,4.12,0,0,0,2.1-.55,3.48,3.48,0,0,0,1.36-1.33V128h-2.47a3.55,3.55,0,0,0-2.24.65,2,2,0,0,0-.83,1.6,1.59,1.59,0,0,0,.52,1.27A2.36,2.36,0,0,0,350.65,132Z"/><path class="cls-3" d="M359.31,122.49V121h4l.22,1.84a4.55,4.55,0,0,1,1.33-1.53,3.15,3.15,0,0,1,1.81-.55,5.46,5.46,0,0,1,.56,0l.44.09-.3,2.15L366,123a2.65,2.65,0,0,0-1.53.42,2.73,2.73,0,0,0-1,1.2v7.28l1.91.33v1.48h-6.13v-1.48l1.91-.33v-9.06Z"/><path class="cls-3" d="M384.27,131.81a4.3,4.3,0,0,1-1.54,1.57,4.2,4.2,0,0,1-2.18.55,4.08,4.08,0,0,1-3.22-1.32,6.17,6.17,0,0,1-1.16-4.13v-5.66l-1.45-.33V121h3.76v7.5a4.72,4.72,0,0,0,.6,2.79,2.24,2.24,0,0,0,1.86.76,3.79,3.79,0,0,0,2-.5,3.12,3.12,0,0,0,1.22-1.41v-7.33l-1.7-.33V121h4v10.87l1.45.33v1.48h-3.53Z"/><path class="cls-3" d="M389.32,132.21l1.91-.33v-9.06l-1.91-.33V121h4l.16,1.65a4.15,4.15,0,0,1,1.57-1.4,4.9,4.9,0,0,1,2.22-.49,4,4,0,0,1,2.18.59,3.51,3.51,0,0,1,1.36,1.76,4.68,4.68,0,0,1,1.59-1.71,4.07,4.07,0,0,1,2.29-.64,3.82,3.82,0,0,1,3.07,1.33,6.08,6.08,0,0,1,1.13,4v5.78l1.91.33v1.48h-6.14v-1.48l1.91-.33v-5.8a4.2,4.2,0,0,0-.65-2.65,2.33,2.33,0,0,0-1.91-.78,2.43,2.43,0,0,0-1.94.85,3.68,3.68,0,0,0-.85,2.14v6.24l1.91.33v1.48H397v-1.48l1.91-.33v-5.8a4.17,4.17,0,0,0-.66-2.61,2.3,2.3,0,0,0-1.91-.82,3.18,3.18,0,0,0-1.74.43,2.83,2.83,0,0,0-1,1.22v7.58l1.91.33v1.48h-6.13Z"/><path class="cls-3" d="M424.21,133.93a5.38,5.38,0,0,1-4.22-1.76,6.66,6.66,0,0,1-1.56-4.58v-.51a6.52,6.52,0,0,1,1.61-4.51,5,5,0,0,1,3.82-1.8,4.81,4.81,0,0,1,3.87,1.55,6.14,6.14,0,0,1,1.32,4.12v1.45h-8.23l0,0a5,5,0,0,0,.92,3,2.94,2.94,0,0,0,2.5,1.18,5.61,5.61,0,0,0,2.05-.34,4.7,4.7,0,0,0,1.53-.92l.91,1.5a5.63,5.63,0,0,1-1.8,1.11A7.25,7.25,0,0,1,424.21,133.93Zm-.35-11.34a2.46,2.46,0,0,0-2,1,4.56,4.56,0,0,0-1,2.45l0,.06h5.85v-.3a3.52,3.52,0,0,0-.73-2.28A2.57,2.57,0,0,0,423.86,122.59Z"/><path class="cls-3" d="M431,132.21l1.36-.27,3.74-4.66-3.62-4.52-1.36-.27V121h5v1.48l-1.15.15,2.37,3,2.38-3.06-1.14-.13V121h5v1.48l-1.35.27-3.63,4.52,3.73,4.66,1.37.27v1.48h-5v-1.48l1.13-.13-2.49-3.19-2.48,3.19,1.14.13v1.48h-5Z"/><path class="cls-3" d="M450.84,133.93a5.36,5.36,0,0,1-4.21-1.76,6.66,6.66,0,0,1-1.56-4.58v-.51a6.48,6.48,0,0,1,1.61-4.51,5,5,0,0,1,3.81-1.8,4.82,4.82,0,0,1,3.88,1.55,6.19,6.19,0,0,1,1.31,4.12v1.45h-8.22l0,0a5,5,0,0,0,.93,3,2.92,2.92,0,0,0,2.49,1.18,5.63,5.63,0,0,0,2.06-.34,4.7,4.7,0,0,0,1.53-.92l.9,1.5a5.42,5.42,0,0,1-1.8,1.11A7.18,7.18,0,0,1,450.84,133.93Zm-.35-11.34a2.49,2.49,0,0,0-2,1,4.64,4.64,0,0,0-1,2.45l0,.06h5.85v-.3a3.58,3.58,0,0,0-.73-2.28A2.59,2.59,0,0,0,450.49,122.59Z"/><path class="cls-3" d="M457.5,132.21l1.91-.33v-9.06l-1.91-.33V121h4l.16,1.65a4.15,4.15,0,0,1,1.57-1.4,4.9,4.9,0,0,1,2.22-.49,4,4,0,0,1,2.18.59,3.51,3.51,0,0,1,1.36,1.76,4.74,4.74,0,0,1,1.58-1.71,4.12,4.12,0,0,1,2.3-.64,3.82,3.82,0,0,1,3.07,1.33,6.08,6.08,0,0,1,1.13,4v5.78l1.91.33v1.48h-6.14v-1.48l1.91-.33v-5.8a4.2,4.2,0,0,0-.65-2.65,2.33,2.33,0,0,0-1.91-.78,2.43,2.43,0,0,0-1.94.85,3.68,3.68,0,0,0-.85,2.14v6.24l1.91.33v1.48h-6.13v-1.48l1.91-.33v-5.8a4.17,4.17,0,0,0-.66-2.61,2.3,2.3,0,0,0-1.91-.82,3.16,3.16,0,0,0-1.74.43,2.83,2.83,0,0,0-1,1.22v7.58l1.91.33v1.48H457.5Z"/><path class="cls-3" d="M480.35,137.07l1.91-.33V122.82l-1.91-.33V121h3.89l.21,1.54a4.4,4.4,0,0,1,1.54-1.32,4.58,4.58,0,0,1,2.11-.46,4.22,4.22,0,0,1,3.66,1.87,8.47,8.47,0,0,1,1.31,4.94v.25a6.94,6.94,0,0,1-1.32,4.42,4.33,4.33,0,0,1-3.62,1.68,5,5,0,0,1-2.05-.39,3.91,3.91,0,0,1-1.51-1.17v4.37l1.91.33v1.49h-6.13Zm10.4-9.49a6.76,6.76,0,0,0-.85-3.55,2.75,2.75,0,0,0-2.51-1.38,3.14,3.14,0,0,0-1.68.44,3.43,3.43,0,0,0-1.14,1.22v6.18a3.3,3.3,0,0,0,1.13,1.21,3.21,3.21,0,0,0,1.72.43,2.84,2.84,0,0,0,2.48-1.2,5.26,5.26,0,0,0,.85-3.1Z"/><path class="cls-3" d="M494.73,116.89v-1.48H499v16.47l1.91.33v1.48h-6.13v-1.48l1.91-.33V117.22Z"/><path class="cls-3" d="M502.38,127.23a7,7,0,0,1,1.53-4.64,5.1,5.1,0,0,1,4.13-1.82,5.16,5.16,0,0,1,4.16,1.82,7,7,0,0,1,1.53,4.64v.26a6.94,6.94,0,0,1-1.53,4.64,5.66,5.66,0,0,1-8.29,0,6.93,6.93,0,0,1-1.53-4.63Zm2.31.26a6,6,0,0,0,.85,3.33,2.83,2.83,0,0,0,2.53,1.31,2.8,2.8,0,0,0,2.49-1.31,6,6,0,0,0,.86-3.33v-.26a6,6,0,0,0-.86-3.32,2.81,2.81,0,0,0-2.52-1.32,2.77,2.77,0,0,0-2.5,1.32,6,6,0,0,0-.85,3.32Z"/><path class="cls-3" d="M530.34,132.17a4.13,4.13,0,0,1-1.51,1.32,4.72,4.72,0,0,1-2.08.44,4.34,4.34,0,0,1-3.63-1.68,7,7,0,0,1-1.31-4.42v-.25a8.46,8.46,0,0,1,1.31-4.93,4.2,4.2,0,0,1,3.65-1.88,4.51,4.51,0,0,1,2,.42,4.23,4.23,0,0,1,1.47,1.2v-5.17l-1.91-.33v-1.48h4.22v16.47l1.91.33v1.48h-3.92Zm-6.22-4.34a5.36,5.36,0,0,0,.79,3.07,2.72,2.72,0,0,0,2.42,1.16,3.09,3.09,0,0,0,1.74-.47,3.61,3.61,0,0,0,1.16-1.33v-5.88a3.62,3.62,0,0,0-1.16-1.26,3,3,0,0,0-1.71-.47,2.62,2.62,0,0,0-2.45,1.37,7,7,0,0,0-.79,3.56Z"/><path class="cls-3" d="M542,133.93a5.36,5.36,0,0,1-4.21-1.76,6.67,6.67,0,0,1-1.57-4.58v-.51a6.48,6.48,0,0,1,1.62-4.51,5,5,0,0,1,3.81-1.8,4.81,4.81,0,0,1,3.87,1.55,6.14,6.14,0,0,1,1.32,4.12v1.45h-8.22l0,0a5,5,0,0,0,.93,3,2.92,2.92,0,0,0,2.49,1.18,5.67,5.67,0,0,0,2.06-.34,4.7,4.7,0,0,0,1.53-.92l.9,1.5a5.42,5.42,0,0,1-1.8,1.11A7.18,7.18,0,0,1,542,133.93Zm-.35-11.34a2.49,2.49,0,0,0-2,1,4.64,4.64,0,0,0-1,2.45l0,.06h5.84v-.3a3.57,3.57,0,0,0-.72-2.28A2.6,2.6,0,0,0,541.64,122.59Z"/><path class="cls-3" d="M554.79,137.07l1.91-.33V122.82l-1.91-.33V121h3.89l.21,1.54a4.32,4.32,0,0,1,1.54-1.32,4.58,4.58,0,0,1,2.11-.46,4.22,4.22,0,0,1,3.66,1.87,8.47,8.47,0,0,1,1.3,4.94v.25a6.94,6.94,0,0,1-1.31,4.42,4.33,4.33,0,0,1-3.62,1.68,5.08,5.08,0,0,1-2.06-.39,3.88,3.88,0,0,1-1.5-1.17v4.37l1.91.33v1.49h-6.13Zm10.39-9.49a6.76,6.76,0,0,0-.84-3.55,2.75,2.75,0,0,0-2.51-1.38,3.17,3.17,0,0,0-1.69.44,3.5,3.5,0,0,0-1.13,1.22v6.18a3.22,3.22,0,0,0,1.13,1.21,3.18,3.18,0,0,0,1.72.43,2.84,2.84,0,0,0,2.48-1.2,5.26,5.26,0,0,0,.84-3.1Z"/><path class="cls-3" d="M569.6,122.49V121h4l.23,1.84a4.44,4.44,0,0,1,1.33-1.53,3.12,3.12,0,0,1,1.81-.55,5.28,5.28,0,0,1,.55,0,3.27,3.27,0,0,1,.44.09l-.3,2.15-1.31-.07a2.71,2.71,0,0,0-1.54.42,2.88,2.88,0,0,0-1,1.2v7.28l1.91.33v1.48H569.6v-1.48l1.91-.33v-9.06Z"/><path class="cls-3" d="M579.3,127.23a7,7,0,0,1,1.53-4.64,5.1,5.1,0,0,1,4.13-1.82,5.16,5.16,0,0,1,4.16,1.82,7,7,0,0,1,1.53,4.64v.26a7,7,0,0,1-1.52,4.64,5.67,5.67,0,0,1-8.3,0,6.93,6.93,0,0,1-1.53-4.63Zm2.31.26a6.1,6.1,0,0,0,.85,3.33,2.83,2.83,0,0,0,2.53,1.31,2.8,2.8,0,0,0,2.49-1.31,6,6,0,0,0,.86-3.33v-.26a6,6,0,0,0-.86-3.32,2.81,2.81,0,0,0-2.52-1.32,2.78,2.78,0,0,0-2.5,1.32,6,6,0,0,0-.85,3.32Z"/><path class="cls-3" d="M604.36,127.83a6.94,6.94,0,0,1-1.32,4.42,4.36,4.36,0,0,1-3.63,1.68,4.7,4.7,0,0,1-2.15-.47,4.17,4.17,0,0,1-1.53-1.4l-.21,1.63h-2V117.22l-1.91-.33v-1.48h4.22v7.1a3.89,3.89,0,0,1,1.48-1.29,4.51,4.51,0,0,1,2.07-.45,4.23,4.23,0,0,1,3.66,1.88,8.46,8.46,0,0,1,1.31,4.93Zm-2.32-.25a7,7,0,0,0-.8-3.56,2.62,2.62,0,0,0-2.44-1.37,3,3,0,0,0-1.79.51,3.71,3.71,0,0,0-1.17,1.39v5.6a3.57,3.57,0,0,0,1.18,1.39,3,3,0,0,0,1.81.52,2.75,2.75,0,0,0,2.42-1.16,5.36,5.36,0,0,0,.79-3.07Z"/><path class="cls-3" d="M606.22,116.89v-1.48h4.22v16.47l1.91.33v1.48h-6.13v-1.48l1.91-.33V117.22Z"/><path class="cls-3" d="M619.89,133.93a5.38,5.38,0,0,1-4.22-1.76,6.66,6.66,0,0,1-1.56-4.58v-.51a6.52,6.52,0,0,1,1.61-4.51,5,5,0,0,1,3.82-1.8,4.81,4.81,0,0,1,3.87,1.55,6.14,6.14,0,0,1,1.32,4.12v1.45H616.5l0,0a5.11,5.11,0,0,0,.93,3,2.94,2.94,0,0,0,2.5,1.18,5.61,5.61,0,0,0,2.05-.34,4.7,4.7,0,0,0,1.53-.92l.91,1.5a5.63,5.63,0,0,1-1.8,1.11A7.25,7.25,0,0,1,619.89,133.93Zm-.35-11.34a2.49,2.49,0,0,0-2,1,4.63,4.63,0,0,0-1,2.45l0,.06h5.85v-.3a3.52,3.52,0,0,0-.73-2.28A2.57,2.57,0,0,0,619.54,122.59Z"/><path class="cls-3" d="M626.54,132.21l1.91-.33v-9.06l-1.91-.33V121h4l.15,1.65a4.23,4.23,0,0,1,1.57-1.4,4.92,4.92,0,0,1,2.23-.49,3.94,3.94,0,0,1,2.17.59,3.52,3.52,0,0,1,1.37,1.76,4.57,4.57,0,0,1,1.58-1.71,4.07,4.07,0,0,1,2.29-.64A3.82,3.82,0,0,1,645,122.1a6.08,6.08,0,0,1,1.13,4v5.78l1.91.33v1.48h-6.14v-1.48l1.91-.33v-5.8a4.27,4.27,0,0,0-.64-2.65,2.35,2.35,0,0,0-1.92-.78,2.4,2.4,0,0,0-1.93.85,3.62,3.62,0,0,0-.85,2.14v6.24l1.91.33v1.48h-6.13v-1.48l1.91-.33v-5.8a4.17,4.17,0,0,0-.66-2.61,2.32,2.32,0,0,0-1.92-.82,3.21,3.21,0,0,0-1.74.43,2.83,2.83,0,0,0-1,1.22v7.58l1.91.33v1.48h-6.13Z"/><path class="cls-3" d="M658,133.69c-.07-.35-.13-.66-.16-.93s-.07-.55-.09-.82a5.37,5.37,0,0,1-1.67,1.42,4.79,4.79,0,0,1-5.15-.39,3.6,3.6,0,0,1-1-2.73,3.16,3.16,0,0,1,1.46-2.78,7.13,7.13,0,0,1,4-1h2.38V125a2.27,2.27,0,0,0-.7-1.76,2.79,2.79,0,0,0-2-.65,4.75,4.75,0,0,0-1.53.22,2.84,2.84,0,0,0-1.07.61l-.25,1.34H650.4V122.3a6.76,6.76,0,0,1,2.1-1.11,8.21,8.21,0,0,1,2.67-.42,5.32,5.32,0,0,1,3.49,1.1A3.88,3.88,0,0,1,660,125v6.1c0,.17,0,.33,0,.48a3.71,3.71,0,0,0,0,.47l.93.13v1.48ZM654.23,132a4.07,4.07,0,0,0,2.1-.55,3.42,3.42,0,0,0,1.36-1.33V128h-2.46a3.55,3.55,0,0,0-2.24.65,2,2,0,0,0-.83,1.6,1.56,1.56,0,0,0,.52,1.27A2.35,2.35,0,0,0,654.23,132Z"/><path class="cls-3" d="M674.55,132.13a3.16,3.16,0,0,0,2-.71,2.16,2.16,0,0,0,.87-1.74h2.07l0,.07a3.56,3.56,0,0,1-1.46,2.91,5.32,5.32,0,0,1-3.54,1.27,5.11,5.11,0,0,1-4.22-1.8,7,7,0,0,1-1.46-4.54v-.49a7,7,0,0,1,1.47-4.52,5.11,5.11,0,0,1,4.21-1.81,7,7,0,0,1,2.74.51,5.38,5.38,0,0,1,2,1.38l.11,2.81h-1.84l-.51-2a3,3,0,0,0-1-.65,4.18,4.18,0,0,0-1.46-.24A2.76,2.76,0,0,0,672,123.9a6.12,6.12,0,0,0-.78,3.2v.49a6.27,6.27,0,0,0,.77,3.24A2.79,2.79,0,0,0,674.55,132.13Z"/><path class="cls-3" d="M690.87,131.81a4.3,4.3,0,0,1-1.54,1.57,4.23,4.23,0,0,1-2.18.55,4.06,4.06,0,0,1-3.22-1.32,6.17,6.17,0,0,1-1.16-4.13v-5.66l-1.45-.33V121h3.76v7.5a4.72,4.72,0,0,0,.6,2.79,2.23,2.23,0,0,0,1.86.76,3.79,3.79,0,0,0,2-.5,3.12,3.12,0,0,0,1.22-1.41v-7.33l-1.7-.33V121h4v10.87l1.46.33v1.48H691Z"/><path class="cls-3" d="M700.3,134.73a4.24,4.24,0,0,1-1,3,3.69,3.69,0,0,1-2.8,1.06,3.58,3.58,0,0,1-.68-.06,4.08,4.08,0,0,1-.63-.15l.15-1.82a2.6,2.6,0,0,0,.48.1,3.76,3.76,0,0,0,.52,0,1.53,1.53,0,0,0,1.21-.51,2.56,2.56,0,0,0,.45-1.68V122.82l-1.91-.33V121h4.22Zm-.07-17h-2.31v-2.3h2.31Z"/><path class="cls-3" d="M703.08,127.23a7,7,0,0,1,1.52-4.64,5.63,5.63,0,0,1,8.29,0,7,7,0,0,1,1.53,4.64v.26a7,7,0,0,1-1.52,4.64,5.67,5.67,0,0,1-8.3,0,7,7,0,0,1-1.52-4.63Zm2.31.26a6,6,0,0,0,.85,3.33,3.06,3.06,0,0,0,5,0,6,6,0,0,0,.85-3.33v-.26a6,6,0,0,0-.85-3.32,3.06,3.06,0,0,0-5,0,6.11,6.11,0,0,0-.84,3.32Z"/><path class="cls-3" d="M259.71,165.87l1.91-.33V151.62l-1.91-.33v-1.48h3.89l.21,1.54a4.32,4.32,0,0,1,1.54-1.32,4.58,4.58,0,0,1,2.11-.46,4.22,4.22,0,0,1,3.66,1.87,8.47,8.47,0,0,1,1.31,4.94v.25a7,7,0,0,1-1.32,4.42,4.33,4.33,0,0,1-3.62,1.68,5,5,0,0,1-2.05-.39,3.91,3.91,0,0,1-1.51-1.17v4.37l1.91.33v1.49h-6.13Zm10.4-9.49a6.76,6.76,0,0,0-.85-3.55,2.75,2.75,0,0,0-2.51-1.38,3.14,3.14,0,0,0-1.68.44,3.43,3.43,0,0,0-1.14,1.22v6.18a3.3,3.3,0,0,0,1.13,1.21,3.21,3.21,0,0,0,1.72.43,2.84,2.84,0,0,0,2.48-1.2,5.26,5.26,0,0,0,.85-3.1Z"/><path class="cls-3" d="M274.52,151.29v-1.48h4l.22,1.84a4.44,4.44,0,0,1,1.33-1.53,3.15,3.15,0,0,1,1.81-.55c.18,0,.36,0,.56,0l.44.09-.31,2.15-1.31-.07a2.71,2.71,0,0,0-1.54.42,2.88,2.88,0,0,0-1,1.2v7.28l1.91.33v1.48h-6.13V161l1.91-.33v-9.06Z"/><path class="cls-3" d="M284.23,156a7,7,0,0,1,1.52-4.64,5.63,5.63,0,0,1,8.29,0,7,7,0,0,1,1.53,4.64v.26a7,7,0,0,1-1.52,4.64,5.67,5.67,0,0,1-8.3,0,6.92,6.92,0,0,1-1.52-4.63Zm2.31.26a6.09,6.09,0,0,0,.84,3.33,3.07,3.07,0,0,0,5,0,6,6,0,0,0,.85-3.33V156a6,6,0,0,0-.85-3.32,3.06,3.06,0,0,0-5,0,6.11,6.11,0,0,0-.84,3.32Z"/><path class="cls-3" d="M303.38,160.93a3.15,3.15,0,0,0,2-.71,2.16,2.16,0,0,0,.87-1.74h2.07l0,.07a3.56,3.56,0,0,1-1.46,2.91,5.32,5.32,0,0,1-3.53,1.27,5.12,5.12,0,0,1-4.23-1.8,7,7,0,0,1-1.46-4.54v-.49a7,7,0,0,1,1.47-4.52,5.12,5.12,0,0,1,4.22-1.81,7,7,0,0,1,2.73.51,5.38,5.38,0,0,1,2,1.38l.11,2.81h-1.84l-.51-2a3,3,0,0,0-1.05-.65,4.16,4.16,0,0,0-1.45-.24,2.77,2.77,0,0,0-2.6,1.31,6.12,6.12,0,0,0-.78,3.2v.49a6.27,6.27,0,0,0,.77,3.24A2.79,2.79,0,0,0,303.38,160.93Z"/><path class="cls-3" d="M316.41,162.73a5.38,5.38,0,0,1-4.22-1.76,6.66,6.66,0,0,1-1.56-4.58v-.51a6.52,6.52,0,0,1,1.61-4.51,5,5,0,0,1,3.81-1.8,4.82,4.82,0,0,1,3.88,1.55,6.14,6.14,0,0,1,1.32,4.12v1.45H313l0,.05a5.11,5.11,0,0,0,.93,3,2.94,2.94,0,0,0,2.5,1.18,5.61,5.61,0,0,0,2-.34,4.7,4.7,0,0,0,1.53-.92l.9,1.5a5.47,5.47,0,0,1-1.79,1.11A7.25,7.25,0,0,1,316.41,162.73Zm-.36-11.34a2.49,2.49,0,0,0-2,1,4.63,4.63,0,0,0-1,2.45l0,.06h5.85v-.3a3.52,3.52,0,0,0-.73-2.28A2.58,2.58,0,0,0,316.05,151.39Z"/><path class="cls-3" d="M333.22,153.79h-1.73l-.38-1.52a3,3,0,0,0-1.06-.64,4.06,4.06,0,0,0-1.44-.24,2.67,2.67,0,0,0-1.83.54,1.68,1.68,0,0,0-.6,1.3,1.45,1.45,0,0,0,.53,1.18,5.44,5.44,0,0,0,2.14.78,9.28,9.28,0,0,1,3.58,1.4A2.82,2.82,0,0,1,333.6,159a3.29,3.29,0,0,1-1.37,2.73,5.75,5.75,0,0,1-3.57,1,9.41,9.41,0,0,1-2.59-.33,7,7,0,0,1-2.05-1v-2.89h1.74l.43,1.7a2.48,2.48,0,0,0,1.08.52,6,6,0,0,0,1.4.17,3.28,3.28,0,0,0,1.93-.5,1.53,1.53,0,0,0,.7-1.31,1.57,1.57,0,0,0-.58-1.25,5.56,5.56,0,0,0-2.2-.86,9.08,9.08,0,0,1-3.48-1.37,2.77,2.77,0,0,1-1.17-2.34,3.32,3.32,0,0,1,1.32-2.64,5.24,5.24,0,0,1,3.43-1.09,8.34,8.34,0,0,1,2.59.38,5.39,5.39,0,0,1,1.91,1Z"/><path class="cls-3" d="M345.46,153.79h-1.74l-.37-1.52a3.1,3.1,0,0,0-1.06-.64,4.12,4.12,0,0,0-1.45-.24,2.67,2.67,0,0,0-1.83.54,1.68,1.68,0,0,0-.6,1.3,1.45,1.45,0,0,0,.53,1.18,5.5,5.5,0,0,0,2.15.78,9.16,9.16,0,0,1,3.57,1.4,2.82,2.82,0,0,1,1.17,2.37,3.28,3.28,0,0,1-1.36,2.73,5.75,5.75,0,0,1-3.57,1,9.35,9.35,0,0,1-2.59-.33,6.81,6.81,0,0,1-2.05-1v-2.89H338l.43,1.7a2.47,2.47,0,0,0,1.09.52,6,6,0,0,0,1.4.17,3.3,3.3,0,0,0,1.93-.5,1.54,1.54,0,0,0,.69-1.31,1.57,1.57,0,0,0-.58-1.25,5.5,5.5,0,0,0-2.19-.86,9.08,9.08,0,0,1-3.48-1.37,2.75,2.75,0,0,1-1.18-2.34,3.32,3.32,0,0,1,1.32-2.64,5.24,5.24,0,0,1,3.43-1.09,8.34,8.34,0,0,1,2.59.38,5.3,5.3,0,0,1,1.91,1Z"/><path class="cls-3" d="M348,156a7,7,0,0,1,1.52-4.64,5.63,5.63,0,0,1,8.29,0,7,7,0,0,1,1.53,4.64v.26a6.93,6.93,0,0,1-1.52,4.64,5.67,5.67,0,0,1-8.3,0,7,7,0,0,1-1.52-4.63Zm2.31.26a6,6,0,0,0,.85,3.33,3.06,3.06,0,0,0,5,0,6,6,0,0,0,.86-3.33V156a6,6,0,0,0-.86-3.32,3.06,3.06,0,0,0-5,0,6.11,6.11,0,0,0-.84,3.32Z"/><path class="cls-3" d="M376,161a4.08,4.08,0,0,1-1.52,1.32,4.68,4.68,0,0,1-2.08.44,4.33,4.33,0,0,1-3.62-1.68,7,7,0,0,1-1.31-4.42v-.25a8.46,8.46,0,0,1,1.31-4.93,4.19,4.19,0,0,1,3.65-1.88,4.44,4.44,0,0,1,2,.42,4.06,4.06,0,0,1,1.47,1.2V146l-1.91-.33V144.2h4.22v16.48l1.91.33v1.48h-3.91Zm-6.22-4.34a5.44,5.44,0,0,0,.78,3.07,2.75,2.75,0,0,0,2.43,1.16,3.06,3.06,0,0,0,1.73-.47,3.52,3.52,0,0,0,1.16-1.33v-5.88a3.44,3.44,0,0,0-1.16-1.26,3,3,0,0,0-1.71-.47,2.62,2.62,0,0,0-2.44,1.37,7,7,0,0,0-.79,3.56Z"/><path class="cls-3" d="M387.61,162.73A5.35,5.35,0,0,1,383.4,161a6.62,6.62,0,0,1-1.57-4.58v-.51a6.52,6.52,0,0,1,1.61-4.51,5,5,0,0,1,3.82-1.8,4.81,4.81,0,0,1,3.87,1.55,6.14,6.14,0,0,1,1.32,4.12v1.45h-8.23l0,.05a5,5,0,0,0,.92,3,3,3,0,0,0,2.5,1.18,5.67,5.67,0,0,0,2.06-.34,4.7,4.7,0,0,0,1.53-.92l.9,1.5a5.63,5.63,0,0,1-1.8,1.11A7.21,7.21,0,0,1,387.61,162.73Zm-.35-11.34a2.46,2.46,0,0,0-2,1,4.56,4.56,0,0,0-1,2.45l0,.06h5.85v-.3a3.52,3.52,0,0,0-.73-2.28A2.57,2.57,0,0,0,387.26,151.39Z"/><path class="cls-3" d="M412.29,156.63a7,7,0,0,1-1.32,4.42,4.36,4.36,0,0,1-3.63,1.68,4.7,4.7,0,0,1-2.15-.47,4.17,4.17,0,0,1-1.53-1.4l-.21,1.63h-2V146l-1.91-.33V144.2h4.22v7.11a3.89,3.89,0,0,1,1.48-1.29,4.51,4.51,0,0,1,2.07-.45,4.23,4.23,0,0,1,3.66,1.88,8.46,8.46,0,0,1,1.31,4.93Zm-2.32-.25a7,7,0,0,0-.8-3.56,2.62,2.62,0,0,0-2.44-1.37,3,3,0,0,0-1.79.51,3.71,3.71,0,0,0-1.17,1.39V159a3.57,3.57,0,0,0,1.18,1.39,3,3,0,0,0,1.81.52,2.75,2.75,0,0,0,2.42-1.16,5.36,5.36,0,0,0,.79-3.07Z"/><path class="cls-3" d="M423.66,160.61a4.38,4.38,0,0,1-1.54,1.57,4.23,4.23,0,0,1-2.18.55,4.06,4.06,0,0,1-3.22-1.32,6.17,6.17,0,0,1-1.16-4.13v-5.66l-1.45-.33v-1.48h3.76v7.5a4.81,4.81,0,0,0,.59,2.79,2.25,2.25,0,0,0,1.87.76,3.79,3.79,0,0,0,2-.5,3,3,0,0,0,1.21-1.41v-7.33l-1.69-.33v-1.48h4v10.87l1.46.33v1.48h-3.53Z"/><path class="cls-3" d="M438.87,153.79h-1.74l-.37-1.52a3.1,3.1,0,0,0-1.06-.64,4.12,4.12,0,0,0-1.45-.24,2.67,2.67,0,0,0-1.83.54,1.68,1.68,0,0,0-.6,1.3,1.45,1.45,0,0,0,.53,1.18,5.5,5.5,0,0,0,2.15.78,9.16,9.16,0,0,1,3.57,1.4,2.82,2.82,0,0,1,1.17,2.37,3.28,3.28,0,0,1-1.36,2.73,5.75,5.75,0,0,1-3.57,1,9.35,9.35,0,0,1-2.59-.33,6.81,6.81,0,0,1-2.05-1v-2.89h1.73l.43,1.7a2.47,2.47,0,0,0,1.09.52,6,6,0,0,0,1.4.17,3.3,3.3,0,0,0,1.93-.5,1.54,1.54,0,0,0,.69-1.31,1.57,1.57,0,0,0-.58-1.25,5.5,5.5,0,0,0-2.19-.86,9.08,9.08,0,0,1-3.48-1.37,2.75,2.75,0,0,1-1.18-2.34,3.32,3.32,0,0,1,1.32-2.64,5.24,5.24,0,0,1,3.43-1.09,8.34,8.34,0,0,1,2.59.38,5.3,5.3,0,0,1,1.91,1Z"/><path class="cls-3" d="M447.09,160.93a3.16,3.16,0,0,0,2-.71,2.16,2.16,0,0,0,.87-1.74h2.07l0,.07a3.56,3.56,0,0,1-1.46,2.91,5.32,5.32,0,0,1-3.54,1.27,5.11,5.11,0,0,1-4.22-1.8,7,7,0,0,1-1.46-4.54v-.49a7,7,0,0,1,1.47-4.52,5.11,5.11,0,0,1,4.21-1.81,7,7,0,0,1,2.74.51,5.38,5.38,0,0,1,2,1.38l.11,2.81h-1.84l-.51-2a3,3,0,0,0-1.05-.65,4.18,4.18,0,0,0-1.46-.24,2.76,2.76,0,0,0-2.59,1.31,6.12,6.12,0,0,0-.78,3.2v.49a6.27,6.27,0,0,0,.77,3.24A2.79,2.79,0,0,0,447.09,160.93Z"/><path class="cls-3" d="M462.61,162.49c-.07-.35-.13-.66-.16-.93s-.07-.55-.09-.82a5.37,5.37,0,0,1-1.67,1.42,4.79,4.79,0,0,1-5.15-.39,3.6,3.6,0,0,1-1-2.73,3.16,3.16,0,0,1,1.46-2.78,7.13,7.13,0,0,1,4-1h2.38V153.8a2.27,2.27,0,0,0-.7-1.76,2.79,2.79,0,0,0-2-.65,4.75,4.75,0,0,0-1.53.22,2.84,2.84,0,0,0-1.07.61l-.25,1.34h-1.78V151.1a6.76,6.76,0,0,1,2.1-1.11,8.21,8.21,0,0,1,2.67-.42,5.32,5.32,0,0,1,3.49,1.1,3.88,3.88,0,0,1,1.34,3.16v6.1c0,.17,0,.33,0,.48a3.71,3.71,0,0,0,0,.47l.93.13v1.48Zm-3.72-1.69a4.07,4.07,0,0,0,2.1-.55,3.35,3.35,0,0,0,1.36-1.33v-2.08h-2.46a3.55,3.55,0,0,0-2.24.65,2,2,0,0,0-.83,1.6,1.56,1.56,0,0,0,.52,1.27A2.35,2.35,0,0,0,458.89,160.8Z"/><path class="cls-3" d="M482.06,161a4.08,4.08,0,0,1-1.52,1.32,4.68,4.68,0,0,1-2.08.44,4.33,4.33,0,0,1-3.62-1.68,7,7,0,0,1-1.31-4.42v-.25a8.46,8.46,0,0,1,1.31-4.93,4.2,4.2,0,0,1,3.65-1.88,4.44,4.44,0,0,1,2,.42,4.18,4.18,0,0,1,1.48,1.2V146l-1.91-.33V144.2h4.21v16.48l1.91.33v1.48h-3.91Zm-6.22-4.34a5.36,5.36,0,0,0,.79,3.07,2.72,2.72,0,0,0,2.42,1.16,3.09,3.09,0,0,0,1.74-.47,3.7,3.7,0,0,0,1.16-1.33v-5.88a3.62,3.62,0,0,0-1.16-1.26,3,3,0,0,0-1.72-.47,2.62,2.62,0,0,0-2.44,1.37,7,7,0,0,0-.79,3.56Z"/><path class="cls-3" d="M493.71,162.73A5.36,5.36,0,0,1,489.5,161a6.67,6.67,0,0,1-1.57-4.58v-.51a6.52,6.52,0,0,1,1.61-4.51,5,5,0,0,1,3.82-1.8,4.81,4.81,0,0,1,3.87,1.55,6.14,6.14,0,0,1,1.32,4.12v1.45h-8.23l0,.05a5,5,0,0,0,.92,3,3,3,0,0,0,2.5,1.18,5.67,5.67,0,0,0,2.06-.34,4.7,4.7,0,0,0,1.53-.92l.9,1.5a5.42,5.42,0,0,1-1.8,1.11A7.21,7.21,0,0,1,493.71,162.73Zm-.35-11.34a2.49,2.49,0,0,0-2,1,4.64,4.64,0,0,0-1,2.45l0,.06h5.85v-.3a3.57,3.57,0,0,0-.72-2.28A2.6,2.6,0,0,0,493.36,151.39Z"/><path class="cls-3" d="M516.49,153.79h-1.73l-.38-1.52a3,3,0,0,0-1.06-.64,4.06,4.06,0,0,0-1.44-.24,2.65,2.65,0,0,0-1.83.54,1.68,1.68,0,0,0-.6,1.3,1.45,1.45,0,0,0,.53,1.18,5.44,5.44,0,0,0,2.14.78,9.28,9.28,0,0,1,3.58,1.4,2.82,2.82,0,0,1,1.17,2.37,3.29,3.29,0,0,1-1.37,2.73,5.75,5.75,0,0,1-3.57,1,9.41,9.41,0,0,1-2.59-.33,6.92,6.92,0,0,1-2-1v-2.89H509l.43,1.7a2.43,2.43,0,0,0,1.08.52,6,6,0,0,0,1.4.17,3.28,3.28,0,0,0,1.93-.5,1.53,1.53,0,0,0,.7-1.31,1.57,1.57,0,0,0-.58-1.25,5.56,5.56,0,0,0-2.2-.86,9.08,9.08,0,0,1-3.48-1.37,2.77,2.77,0,0,1-1.17-2.34,3.32,3.32,0,0,1,1.32-2.64,5.24,5.24,0,0,1,3.43-1.09,8.23,8.23,0,0,1,2.58.38,5.35,5.35,0,0,1,1.92,1Z"/><path class="cls-3" d="M519,156a7,7,0,0,1,1.52-4.64,5.63,5.63,0,0,1,8.29,0,7,7,0,0,1,1.53,4.64v.26a7,7,0,0,1-1.52,4.64,5.67,5.67,0,0,1-8.3,0,6.92,6.92,0,0,1-1.52-4.63Zm2.3.26a6.1,6.1,0,0,0,.85,3.33,2.83,2.83,0,0,0,2.53,1.31,2.8,2.8,0,0,0,2.49-1.31,5.93,5.93,0,0,0,.86-3.33V156a5.94,5.94,0,0,0-.86-3.32,3,3,0,0,0-5,0,6.11,6.11,0,0,0-.85,3.32Z"/><path class="cls-3" d="M531.94,145.69V144.2h4.22v16.48l1.91.33v1.48h-6.13V161l1.91-.33V146Z"/><path class="cls-3" d="M548.88,160.61a4.3,4.3,0,0,1-1.54,1.57,4.19,4.19,0,0,1-2.17.55,4,4,0,0,1-3.22-1.32,6.12,6.12,0,0,1-1.16-4.13v-5.66l-1.46-.33v-1.48h3.76v7.5a4.72,4.72,0,0,0,.6,2.79,2.24,2.24,0,0,0,1.86.76,3.83,3.83,0,0,0,2-.5A3.1,3.1,0,0,0,548.8,159v-7.33l-1.7-.33v-1.48h4v10.87l1.45.33v1.48H549Z"/><path class="cls-3" d="M560.09,160.93a3.13,3.13,0,0,0,2-.71,2.16,2.16,0,0,0,.87-1.74h2.07l0,.07a3.56,3.56,0,0,1-1.46,2.91,5.32,5.32,0,0,1-3.53,1.27,5.12,5.12,0,0,1-4.23-1.8,7,7,0,0,1-1.46-4.54v-.49a7,7,0,0,1,1.47-4.52,5.12,5.12,0,0,1,4.22-1.81,7,7,0,0,1,2.73.51,5.38,5.38,0,0,1,2,1.38l.11,2.81H563.1l-.51-2a3,3,0,0,0-1.05-.65,4.12,4.12,0,0,0-1.45-.24,2.78,2.78,0,0,0-2.6,1.31,6.12,6.12,0,0,0-.78,3.2v.49a6.27,6.27,0,0,0,.77,3.24A2.79,2.79,0,0,0,560.09,160.93Zm.09,1.66-.14.61a2.34,2.34,0,0,1,1.26.61,1.85,1.85,0,0,1,.51,1.42,2.09,2.09,0,0,1-.93,1.79,4.43,4.43,0,0,1-2.65.67l-.08-1.28a2.69,2.69,0,0,0,1.36-.29.92.92,0,0,0,.51-.86.8.8,0,0,0-.43-.78,4.08,4.08,0,0,0-1.44-.31l.38-1.58Z"/><path class="cls-3" d="M567.34,156a7,7,0,0,1,1.52-4.64,5.63,5.63,0,0,1,8.29,0,7,7,0,0,1,1.53,4.64v.26a6.93,6.93,0,0,1-1.52,4.64,5.67,5.67,0,0,1-8.3,0,7,7,0,0,1-1.52-4.63ZM577,144.69a2.64,2.64,0,0,1-.7,1.86,2.26,2.26,0,0,1-1.75.76,3.38,3.38,0,0,1-1.73-.54,3,3,0,0,0-1.5-.55,1.1,1.1,0,0,0-.84.38,1.34,1.34,0,0,0-.35.92l-1.25-.3a2.83,2.83,0,0,1,.69-1.9,2.2,2.2,0,0,1,1.75-.8,3.57,3.57,0,0,1,1.64.55,3.48,3.48,0,0,0,1.59.55,1.07,1.07,0,0,0,.83-.38,1.29,1.29,0,0,0,.36-.93Zm-7.31,11.6a6,6,0,0,0,.85,3.33,3.06,3.06,0,0,0,5,0,6,6,0,0,0,.86-3.33V156a6,6,0,0,0-.86-3.32,3.06,3.06,0,0,0-5,0,6.11,6.11,0,0,0-.84,3.32Z"/><path class="cls-3" d="M586.58,162.73a5.36,5.36,0,0,1-4.21-1.76,6.67,6.67,0,0,1-1.57-4.58v-.51a6.48,6.48,0,0,1,1.62-4.51,5,5,0,0,1,3.81-1.8,4.81,4.81,0,0,1,3.87,1.55,6.14,6.14,0,0,1,1.32,4.12v1.45H583.2l0,.05a5,5,0,0,0,.93,3,2.92,2.92,0,0,0,2.49,1.18,5.67,5.67,0,0,0,2.06-.34,4.7,4.7,0,0,0,1.53-.92l.9,1.5a5.42,5.42,0,0,1-1.8,1.11A7.18,7.18,0,0,1,586.58,162.73Zm-.35-11.34a2.49,2.49,0,0,0-2,1,4.64,4.64,0,0,0-1,2.45l0,.06h5.84v-.3a3.57,3.57,0,0,0-.72-2.28A2.6,2.6,0,0,0,586.23,151.39Z"/><path class="cls-3" d="M603.4,153.79h-1.74l-.37-1.52a3.1,3.1,0,0,0-1.06-.64,4.12,4.12,0,0,0-1.45-.24,2.67,2.67,0,0,0-1.83.54,1.67,1.67,0,0,0-.59,1.3,1.44,1.44,0,0,0,.52,1.18,5.5,5.5,0,0,0,2.15.78,9.16,9.16,0,0,1,3.57,1.4,2.82,2.82,0,0,1,1.17,2.37,3.28,3.28,0,0,1-1.36,2.73,5.75,5.75,0,0,1-3.57,1,9.41,9.41,0,0,1-2.59-.33,6.81,6.81,0,0,1-2-1v-2.89h1.73l.44,1.7a2.37,2.37,0,0,0,1.08.52,6,6,0,0,0,1.4.17,3.3,3.3,0,0,0,1.93-.5,1.54,1.54,0,0,0,.69-1.31,1.57,1.57,0,0,0-.58-1.25,5.43,5.43,0,0,0-2.19-.86,9.08,9.08,0,0,1-3.48-1.37A2.77,2.77,0,0,1,594,153.3a3.31,3.31,0,0,1,1.31-2.64,5.26,5.26,0,0,1,3.43-1.09,8.3,8.3,0,0,1,2.59.38,5.3,5.3,0,0,1,1.91,1Z"/><path class="cls-3" d="M611.61,165.87l1.91-.33V151.62l-1.91-.33v-1.48h3.89l.21,1.54a4.35,4.35,0,0,1,1.55-1.32,4.51,4.51,0,0,1,2.1-.46,4.22,4.22,0,0,1,3.66,1.87,8.47,8.47,0,0,1,1.31,4.94v.25a7,7,0,0,1-1.31,4.42,4.36,4.36,0,0,1-3.63,1.68,5,5,0,0,1-2-.39,4,4,0,0,1-1.51-1.17v4.37l1.91.33v1.49h-6.13Zm10.4-9.49a6.67,6.67,0,0,0-.85-3.55,2.74,2.74,0,0,0-2.5-1.38,3.15,3.15,0,0,0-1.69.44,3.43,3.43,0,0,0-1.14,1.22v6.18A3.3,3.3,0,0,0,617,160.5a3.21,3.21,0,0,0,1.72.43,2.84,2.84,0,0,0,2.48-1.2,5.19,5.19,0,0,0,.85-3.1Z"/><path class="cls-3" d="M626.44,156a7,7,0,0,1,1.52-4.64,5.63,5.63,0,0,1,8.29,0,7,7,0,0,1,1.53,4.64v.26a7,7,0,0,1-1.52,4.64,5.67,5.67,0,0,1-8.3,0,7,7,0,0,1-1.52-4.63Zm2.31.26a6,6,0,0,0,.85,3.33,3.06,3.06,0,0,0,5,0,6,6,0,0,0,.85-3.33V156a6,6,0,0,0-.85-3.32,3.06,3.06,0,0,0-5,0,6.11,6.11,0,0,0-.84,3.32Z"/><path class="cls-3" d="M648.43,161a4.13,4.13,0,0,1-1.51,1.32,4.72,4.72,0,0,1-2.08.44,4.34,4.34,0,0,1-3.63-1.68,7,7,0,0,1-1.31-4.42v-.25a8.46,8.46,0,0,1,1.31-4.93,4.2,4.2,0,0,1,3.65-1.88,4.51,4.51,0,0,1,2,.42,4.23,4.23,0,0,1,1.47,1.2V146l-1.91-.33V144.2h4.22v16.48l1.91.33v1.48h-3.92Zm-6.22-4.34a5.36,5.36,0,0,0,.79,3.07,2.72,2.72,0,0,0,2.42,1.16,3.09,3.09,0,0,0,1.74-.47,3.61,3.61,0,0,0,1.16-1.33v-5.88a3.62,3.62,0,0,0-1.16-1.26,3,3,0,0,0-1.71-.47,2.62,2.62,0,0,0-2.45,1.37,7,7,0,0,0-.79,3.56Z"/><path class="cls-3" d="M660.08,162.73a5.36,5.36,0,0,1-4.21-1.76,6.67,6.67,0,0,1-1.57-4.58v-.51a6.48,6.48,0,0,1,1.62-4.51,5,5,0,0,1,3.81-1.8,4.81,4.81,0,0,1,3.87,1.55,6.14,6.14,0,0,1,1.32,4.12v1.45H656.7l0,.05a5,5,0,0,0,.93,3,2.92,2.92,0,0,0,2.49,1.18,5.67,5.67,0,0,0,2.06-.34,4.7,4.7,0,0,0,1.53-.92l.9,1.5a5.42,5.42,0,0,1-1.8,1.11A7.18,7.18,0,0,1,660.08,162.73Zm-.35-11.34a2.49,2.49,0,0,0-2,1,4.64,4.64,0,0,0-1,2.45l0,.06h5.84v-.3a3.57,3.57,0,0,0-.72-2.28A2.6,2.6,0,0,0,659.73,151.39Z"/><path class="cls-3" d="M271.59,185.43a7,7,0,0,1-1.31,4.42,4.36,4.36,0,0,1-3.63,1.68,4.71,4.71,0,0,1-2.16-.47,4.06,4.06,0,0,1-1.52-1.4l-.21,1.63h-2V174.82l-1.91-.33V173h4.21v7.1a4,4,0,0,1,1.49-1.29,4.51,4.51,0,0,1,2.07-.45,4.2,4.2,0,0,1,3.65,1.88,8.38,8.38,0,0,1,1.31,4.93Zm-2.32-.25a7,7,0,0,0-.79-3.56,2.63,2.63,0,0,0-2.44-1.37,3.08,3.08,0,0,0-1.8.51,3.71,3.71,0,0,0-1.17,1.39v5.6a3.66,3.66,0,0,0,1.18,1.39,3.07,3.07,0,0,0,1.81.52,2.72,2.72,0,0,0,2.42-1.16,5.36,5.36,0,0,0,.79-3.07Z"/><path class="cls-3" d="M279.68,191.53a5.32,5.32,0,0,1-4.21-1.76,6.62,6.62,0,0,1-1.57-4.58v-.51a6.52,6.52,0,0,1,1.61-4.51,5,5,0,0,1,3.82-1.8,4.81,4.81,0,0,1,3.87,1.55,6.14,6.14,0,0,1,1.32,4.12v1.45h-8.23l0,0a5,5,0,0,0,.92,3,3,3,0,0,0,2.5,1.18,5.67,5.67,0,0,0,2.06-.34,4.53,4.53,0,0,0,1.53-.92l.9,1.5a5.52,5.52,0,0,1-1.8,1.11A7.21,7.21,0,0,1,279.68,191.53Zm-.35-11.34a2.49,2.49,0,0,0-2,1,4.56,4.56,0,0,0-1,2.45l0,.06h5.85v-.3a3.52,3.52,0,0,0-.73-2.28A2.57,2.57,0,0,0,279.33,180.19Z"/><path class="cls-3" d="M286.45,189.81l1.91-.33v-9.06l-1.91-.32v-1.49h4l.16,1.88a4.56,4.56,0,0,1,1.59-1.56,4.22,4.22,0,0,1,2.17-.56,4.15,4.15,0,0,1,3.18,1.2,5.28,5.28,0,0,1,1.12,3.71v6.2l1.91.33v1.48h-6.13v-1.48l1.91-.33v-6.15a3.44,3.44,0,0,0-.66-2.38,2.64,2.64,0,0,0-2-.7,3.25,3.25,0,0,0-1.76.48,3.52,3.52,0,0,0-1.23,1.31v7.44l1.91.33v1.48h-6.13Z"/><path class="cls-3" d="M307.91,191.53a5.32,5.32,0,0,1-4.21-1.76,6.62,6.62,0,0,1-1.57-4.58v-.51a6.52,6.52,0,0,1,1.61-4.51,5,5,0,0,1,3.82-1.8,4.81,4.81,0,0,1,3.87,1.55,6.14,6.14,0,0,1,1.32,4.12v1.45h-8.23l0,0a5,5,0,0,0,.92,3,3,3,0,0,0,2.5,1.18,5.67,5.67,0,0,0,2.06-.34,4.53,4.53,0,0,0,1.53-.92l.9,1.5a5.42,5.42,0,0,1-1.8,1.11A7.21,7.21,0,0,1,307.91,191.53Zm-.35-11.34a2.52,2.52,0,0,0-2,1,4.64,4.64,0,0,0-1,2.45l0,.06h5.85v-.3a3.52,3.52,0,0,0-.73-2.28A2.57,2.57,0,0,0,307.56,180.19Z"/><path class="cls-3" d="M314.51,180.32v-1.71h2v-1.37a4.32,4.32,0,0,1,1.25-3.31,4.89,4.89,0,0,1,3.47-1.17,6.32,6.32,0,0,1,1.55.19c.51.12,1.11.3,1.78.52l-.39,1.88a9.72,9.72,0,0,0-1.32-.42,5.8,5.8,0,0,0-1.44-.18,2.69,2.69,0,0,0-2,.61,2.59,2.59,0,0,0-.6,1.88v1.37H326v10.87l1.91.33v1.48h-6.13v-1.48l1.91-.33v-9.16H318.8v9.16l1.91.33v1.48h-6.13v-1.48l1.91-.33v-9.16Z"/><path class="cls-3" d="M335.24,189.73a3.13,3.13,0,0,0,2-.71,2.16,2.16,0,0,0,.87-1.74h2.08l0,.07a3.56,3.56,0,0,1-1.46,2.91,5.32,5.32,0,0,1-3.53,1.27,5.13,5.13,0,0,1-4.23-1.8,7,7,0,0,1-1.46-4.54v-.49a7,7,0,0,1,1.47-4.52,5.13,5.13,0,0,1,4.22-1.81,7,7,0,0,1,2.73.51,5.38,5.38,0,0,1,2,1.38l.11,2.81h-1.84l-.5-2a3,3,0,0,0-1.06-.64,3.9,3.9,0,0,0-1.45-.25,2.78,2.78,0,0,0-2.6,1.31,6.14,6.14,0,0,0-.78,3.2v.49a6.17,6.17,0,0,0,.78,3.24A2.77,2.77,0,0,0,335.24,189.73Z"/><path class="cls-3" d="M342.48,189.81l1.91-.33v-9.06l-1.91-.32v-1.49h4.22v10.87l1.91.33v1.48h-6.13Zm4.22-14.45h-2.31V173h2.31Z"/><path class="cls-3" d="M358.64,191.29c-.07-.35-.12-.66-.16-.93s-.07-.55-.09-.82a5.37,5.37,0,0,1-1.67,1.42,4.22,4.22,0,0,1-2.13.57,4.29,4.29,0,0,1-3-1,3.6,3.6,0,0,1-1-2.73,3.16,3.16,0,0,1,1.46-2.78,7.13,7.13,0,0,1,4-1h2.38V182.6a2.27,2.27,0,0,0-.7-1.76,2.79,2.79,0,0,0-2-.65,4.75,4.75,0,0,0-1.53.22,2.84,2.84,0,0,0-1.07.61l-.24,1.34h-1.79V179.9a7,7,0,0,1,2.1-1.11,8.21,8.21,0,0,1,2.67-.42,5.37,5.37,0,0,1,3.5,1.1,3.87,3.87,0,0,1,1.33,3.16v6.1c0,.17,0,.33,0,.48a3.59,3.59,0,0,0,0,.47l.93.13v1.48Zm-3.71-1.69a4.06,4.06,0,0,0,2.09-.55,3.35,3.35,0,0,0,1.36-1.33v-2.08h-2.46a3.55,3.55,0,0,0-2.24.65,2,2,0,0,0-.83,1.6,1.56,1.56,0,0,0,.52,1.27A2.36,2.36,0,0,0,354.93,189.6Z"/><path class="cls-3" d="M363.59,180.1v-1.49h4l.22,1.84a4.44,4.44,0,0,1,1.33-1.53,3.15,3.15,0,0,1,1.81-.55,5.46,5.46,0,0,1,.56,0l.44.09-.31,2.15-1.31-.07a2.65,2.65,0,0,0-1.53.42,2.83,2.83,0,0,0-1,1.2v7.28l1.91.33v1.48h-6.12v-1.48l1.91-.33v-9.06Z"/><path class="cls-3" d="M380,185h-5.73v-1.8H380Z"/><path class="cls-3" d="M392.55,182.59h-1.73l-.37-1.52a3.14,3.14,0,0,0-1.07-.64,4,4,0,0,0-1.44-.24,2.67,2.67,0,0,0-1.83.54,1.68,1.68,0,0,0-.6,1.3,1.45,1.45,0,0,0,.53,1.18,5.5,5.5,0,0,0,2.14.78,9.15,9.15,0,0,1,3.58,1.4,2.82,2.82,0,0,1,1.17,2.37,3.29,3.29,0,0,1-1.37,2.73,5.68,5.68,0,0,1-3.56,1,9.35,9.35,0,0,1-2.59-.33,6.81,6.81,0,0,1-2.05-1l0-2.89h1.74l.43,1.7a2.47,2.47,0,0,0,1.09.52,5.9,5.9,0,0,0,1.4.17,3.25,3.25,0,0,0,1.92-.5,1.53,1.53,0,0,0,.7-1.31,1.57,1.57,0,0,0-.58-1.25,5.56,5.56,0,0,0-2.2-.86,9.08,9.08,0,0,1-3.48-1.37,2.75,2.75,0,0,1-1.17-2.34,3.32,3.32,0,0,1,1.32-2.64,5.24,5.24,0,0,1,3.43-1.09,8.34,8.34,0,0,1,2.59.38,5.55,5.55,0,0,1,1.91,1Z"/><path class="cls-3" d="M400.88,191.53a5.35,5.35,0,0,1-4.22-1.76,6.66,6.66,0,0,1-1.56-4.58v-.51a6.48,6.48,0,0,1,1.61-4.51,5,5,0,0,1,3.81-1.8,4.82,4.82,0,0,1,3.88,1.55,6.14,6.14,0,0,1,1.31,4.12v1.45h-8.22l0,0a5.08,5.08,0,0,0,.93,3,2.93,2.93,0,0,0,2.5,1.18,5.61,5.61,0,0,0,2.05-.34,4.53,4.53,0,0,0,1.53-.92l.9,1.5a5.42,5.42,0,0,1-1.8,1.11A7.16,7.16,0,0,1,400.88,191.53Zm-.36-11.34a2.52,2.52,0,0,0-2,1,4.63,4.63,0,0,0-1,2.45l0,.06h5.85v-.3a3.58,3.58,0,0,0-.73-2.28A2.58,2.58,0,0,0,400.52,180.19Z"/><path class="cls-3" d="M422.5,189.78a4.23,4.23,0,0,1-1.52,1.31,4.72,4.72,0,0,1-2.08.44,4.34,4.34,0,0,1-3.63-1.68,7,7,0,0,1-1.31-4.42v-.25a8.46,8.46,0,0,1,1.31-4.93,4.2,4.2,0,0,1,3.65-1.88,4.51,4.51,0,0,1,2,.42,4.23,4.23,0,0,1,1.47,1.2v-5.17l-1.91-.33V173h4.22v16.47l1.91.33v1.48h-3.92Zm-6.23-4.35a5.44,5.44,0,0,0,.79,3.07,2.72,2.72,0,0,0,2.42,1.16,3.09,3.09,0,0,0,1.74-.47,3.58,3.58,0,0,0,1.16-1.32V182a3.53,3.53,0,0,0-1.16-1.26,3,3,0,0,0-1.71-.47,2.63,2.63,0,0,0-2.45,1.37,7.14,7.14,0,0,0-.79,3.56Z"/><path class="cls-3" d="M428.37,184.83a7,7,0,0,1,1.52-4.63,5.62,5.62,0,0,1,8.29,0,7,7,0,0,1,1.53,4.64v.26a7,7,0,0,1-1.52,4.64,5.67,5.67,0,0,1-8.3,0,7,7,0,0,1-1.52-4.63Zm2.31.26a6,6,0,0,0,.85,3.33,3.06,3.06,0,0,0,5,0,6,6,0,0,0,.85-3.33v-.26a6,6,0,0,0-.85-3.32,3.06,3.06,0,0,0-5,0,6.11,6.11,0,0,0-.84,3.32Z"/><path class="cls-3" d="M455.41,174.22a6,6,0,0,1,4.25,1.41,5.29,5.29,0,0,1,0,7.42,6,6,0,0,1-4.25,1.39h-3.62v5l1.91.33v1.48h-6.13v-1.48l1.91-.33V176l-1.91-.33v-1.49h7.84Zm-3.62,8.42h3.62a3.1,3.1,0,0,0,3.46-3.28A3.4,3.4,0,0,0,458,177a3.34,3.34,0,0,0-2.6-1h-3.62Z"/><path class="cls-3" d="M468.67,191.53a5.32,5.32,0,0,1-4.21-1.76,6.62,6.62,0,0,1-1.57-4.58v-.51a6.52,6.52,0,0,1,1.61-4.51,5,5,0,0,1,3.82-1.8,4.81,4.81,0,0,1,3.87,1.55,6.14,6.14,0,0,1,1.32,4.12v1.45h-8.23l0,0a5,5,0,0,0,.92,3,3,3,0,0,0,2.5,1.18,5.61,5.61,0,0,0,2.05-.34,4.53,4.53,0,0,0,1.53-.92l.91,1.5a5.63,5.63,0,0,1-1.8,1.11A7.25,7.25,0,0,1,468.67,191.53Zm-.35-11.34a2.49,2.49,0,0,0-2,1,4.56,4.56,0,0,0-1,2.45l0,.06h5.85v-.3a3.52,3.52,0,0,0-.73-2.28A2.57,2.57,0,0,0,468.32,180.19Z"/><path class="cls-3" d="M475.44,189.81l1.91-.33v-9.06l-1.91-.32v-1.49h4l.17,1.88a4.56,4.56,0,0,1,1.59-1.56,4.22,4.22,0,0,1,2.17-.56,4.15,4.15,0,0,1,3.18,1.2,5.28,5.28,0,0,1,1.12,3.71v6.2l1.91.33v1.48h-6.13v-1.48l1.91-.33v-6.15a3.44,3.44,0,0,0-.66-2.38,2.65,2.65,0,0,0-2-.7,3.28,3.28,0,0,0-1.77.48,3.5,3.5,0,0,0-1.22,1.31v7.44l1.91.33v1.48h-6.13Z"/><path class="cls-3" d="M500.93,182.59H499.2l-.38-1.52a3,3,0,0,0-1.06-.64,4.12,4.12,0,0,0-1.45-.24,2.67,2.67,0,0,0-1.83.54,1.71,1.71,0,0,0-.59,1.3,1.44,1.44,0,0,0,.52,1.18,5.57,5.57,0,0,0,2.15.78,9.16,9.16,0,0,1,3.57,1.4,2.82,2.82,0,0,1,1.17,2.37,3.28,3.28,0,0,1-1.36,2.73,5.69,5.69,0,0,1-3.57,1,9.41,9.41,0,0,1-2.59-.33,6.92,6.92,0,0,1-2-1v-2.89h1.73l.44,1.7a2.37,2.37,0,0,0,1.08.52,6,6,0,0,0,1.4.17,3.3,3.3,0,0,0,1.93-.5,1.55,1.55,0,0,0,.7-1.31,1.6,1.6,0,0,0-.58-1.25,5.56,5.56,0,0,0-2.2-.86,9.08,9.08,0,0,1-3.48-1.37,2.75,2.75,0,0,1-1.17-2.34,3.34,3.34,0,0,1,1.31-2.64,5.26,5.26,0,0,1,3.43-1.09,8.3,8.3,0,0,1,2.59.38,5.46,5.46,0,0,1,1.91,1Z"/><path class="cls-3" d="M511.73,191.29c-.07-.35-.12-.66-.16-.93a7.58,7.58,0,0,1-.08-.82,5.49,5.49,0,0,1-1.67,1.42,4.79,4.79,0,0,1-5.15-.39,3.57,3.57,0,0,1-1-2.73,3.14,3.14,0,0,1,1.46-2.78,7.1,7.1,0,0,1,4-1h2.38V182.6a2.28,2.28,0,0,0-.71-1.76,2.78,2.78,0,0,0-1.95-.65,4.75,4.75,0,0,0-1.53.22,3,3,0,0,0-1.08.61l-.24,1.34h-1.78V179.9a6.85,6.85,0,0,1,2.1-1.11,8.21,8.21,0,0,1,2.67-.42,5.34,5.34,0,0,1,3.49,1.1,3.88,3.88,0,0,1,1.34,3.16v6.58a3.59,3.59,0,0,0,0,.47l.94.13v1.48ZM508,189.6a4.09,4.09,0,0,0,2.1-.55,3.48,3.48,0,0,0,1.36-1.33v-2.08H509a3.56,3.56,0,0,0-2.25.65,2,2,0,0,0-.82,1.6,1.59,1.59,0,0,0,.51,1.27A2.36,2.36,0,0,0,508,189.6Z"/><path class="cls-3" d="M516.22,189.81l1.91-.33v-9.06l-1.91-.32v-1.49h4l.15,1.65a4.12,4.12,0,0,1,1.57-1.39,4.79,4.79,0,0,1,2.23-.5,3.94,3.94,0,0,1,2.17.59,3.57,3.57,0,0,1,1.37,1.76,4.57,4.57,0,0,1,1.58-1.71,4.07,4.07,0,0,1,2.29-.64,3.82,3.82,0,0,1,3.07,1.33,6.08,6.08,0,0,1,1.13,4v5.78l1.91.33v1.48h-6.14v-1.48l1.91-.33v-5.8a4.2,4.2,0,0,0-.65-2.65,2.31,2.31,0,0,0-1.91-.78,2.4,2.4,0,0,0-1.93.85,3.62,3.62,0,0,0-.85,2.14v6.24l1.91.33v1.48h-6.13v-1.48l1.91-.33v-5.8a4.1,4.1,0,0,0-.67-2.61,2.3,2.3,0,0,0-1.91-.82,3.21,3.21,0,0,0-1.74.43,2.83,2.83,0,0,0-1,1.22v7.58l1.91.33v1.48h-6.13Z"/><path class="cls-3" d="M545,191.53a5.35,5.35,0,0,1-4.22-1.76,6.66,6.66,0,0,1-1.56-4.58v-.51a6.52,6.52,0,0,1,1.61-4.51,5,5,0,0,1,3.82-1.8,4.81,4.81,0,0,1,3.87,1.55,6.14,6.14,0,0,1,1.32,4.12v1.45h-8.23l0,0a5,5,0,0,0,.92,3,3,3,0,0,0,2.5,1.18,5.61,5.61,0,0,0,2.05-.34,4.53,4.53,0,0,0,1.53-.92l.91,1.5a5.63,5.63,0,0,1-1.8,1.11A7.25,7.25,0,0,1,545,191.53Zm-.35-11.34a2.49,2.49,0,0,0-2,1,4.56,4.56,0,0,0-1,2.45l0,.06h5.85v-.3a3.52,3.52,0,0,0-.73-2.28A2.57,2.57,0,0,0,544.68,180.19Z"/><path class="cls-3" d="M551.8,189.81l1.91-.33v-9.06l-1.91-.32v-1.49h4l.17,1.88a4.56,4.56,0,0,1,1.59-1.56,4.22,4.22,0,0,1,2.17-.56,4.15,4.15,0,0,1,3.18,1.2,5.28,5.28,0,0,1,1.12,3.71v6.2l1.91.33v1.48h-6.13v-1.48l1.91-.33v-6.15A3.44,3.44,0,0,0,561,181a2.65,2.65,0,0,0-2-.7,3.28,3.28,0,0,0-1.77.48A3.5,3.5,0,0,0,556,182v7.44l1.91.33v1.48H551.8Z"/><path class="cls-3" d="M571.62,175.55v3.06H574v1.71h-2.4V188a1.7,1.7,0,0,0,.37,1.25,1.32,1.32,0,0,0,1,.36,4.31,4.31,0,0,0,.69,0,6,6,0,0,0,.64-.11l.32,1.58a3,3,0,0,1-1,.35,6,6,0,0,1-1.26.13,3,3,0,0,1-2.24-.85,3.69,3.69,0,0,1-.83-2.66v-7.7h-2v-1.71h2v-3.06Z"/><path class="cls-3" d="M576.15,184.83a6.93,6.93,0,0,1,1.53-4.63,5.08,5.08,0,0,1,4.13-1.83,5.16,5.16,0,0,1,4.16,1.82,7,7,0,0,1,1.53,4.64v.26a6.92,6.92,0,0,1-1.53,4.64,5.66,5.66,0,0,1-8.29,0,6.91,6.91,0,0,1-1.53-4.63Zm2.31.26a6,6,0,0,0,.85,3.33,2.83,2.83,0,0,0,2.53,1.31,2.8,2.8,0,0,0,2.49-1.31,6,6,0,0,0,.86-3.33v-.26a6,6,0,0,0-.86-3.32,3.06,3.06,0,0,0-5,0,6.11,6.11,0,0,0-.84,3.32Z"/><path class="cls-3" d="M608.59,179.46H607l-.43-2.41a4.39,4.39,0,0,0-1.39-.9,5.34,5.34,0,0,0-6,1.57,8,8,0,0,0-1.43,4.9v.26a8.13,8.13,0,0,0,1.4,4.91,4.53,4.53,0,0,0,3.88,1.94,5.87,5.87,0,0,0,2.11-.36,4.06,4.06,0,0,0,1.47-.9l.43-2.41h1.63v3a6.47,6.47,0,0,1-2.21,1.69,7.5,7.5,0,0,1-3.43.74,6.9,6.9,0,0,1-5.46-2.46,9.11,9.11,0,0,1-2.13-6.19v-.24a9.23,9.23,0,0,1,2.1-6.21A6.89,6.89,0,0,1,603,174a7.5,7.5,0,0,1,3.43.75,6.61,6.61,0,0,1,2.21,1.7Z"/><path class="cls-3" d="M611.06,184.83a6.93,6.93,0,0,1,1.53-4.63,5.08,5.08,0,0,1,4.13-1.83,5.16,5.16,0,0,1,4.16,1.82,7,7,0,0,1,1.53,4.64v.26a6.92,6.92,0,0,1-1.53,4.64,5.66,5.66,0,0,1-8.29,0,6.91,6.91,0,0,1-1.53-4.63Zm2.31.26a6,6,0,0,0,.85,3.33,2.83,2.83,0,0,0,2.53,1.31,2.8,2.8,0,0,0,2.49-1.31,6,6,0,0,0,.86-3.33v-.26a6,6,0,0,0-.86-3.32,3.06,3.06,0,0,0-5,0,6.11,6.11,0,0,0-.84,3.32Z"/><path class="cls-3" d="M624.06,189.81l1.91-.33v-9.06l-1.91-.32v-1.49h4l.16,1.65a4,4,0,0,1,1.57-1.39,4.78,4.78,0,0,1,2.22-.5,4,4,0,0,1,2.18.59,3.55,3.55,0,0,1,1.36,1.76,4.74,4.74,0,0,1,1.58-1.71,4.12,4.12,0,0,1,2.3-.64,3.82,3.82,0,0,1,3.07,1.33,6.08,6.08,0,0,1,1.13,4v5.78l1.91.33v1.48h-6.14v-1.48l1.91-.33v-5.8a4.2,4.2,0,0,0-.65-2.65,2.34,2.34,0,0,0-1.91-.78,2.43,2.43,0,0,0-1.94.85,3.68,3.68,0,0,0-.85,2.14v6.24l1.91.33v1.48h-6.13v-1.48l1.91-.33v-5.8a4.17,4.17,0,0,0-.66-2.61,2.31,2.31,0,0,0-1.92-.82,3.15,3.15,0,0,0-1.73.43,2.83,2.83,0,0,0-1,1.22v7.58l1.91.33v1.48h-6.13Z"/><path class="cls-3" d="M646.91,194.67l1.91-.32V180.42l-1.91-.32v-1.49h3.89l.21,1.54a4.32,4.32,0,0,1,1.54-1.32,4.71,4.71,0,0,1,2.11-.46,4.22,4.22,0,0,1,3.66,1.87,8.47,8.47,0,0,1,1.31,4.94v.25a6.94,6.94,0,0,1-1.32,4.42,4.33,4.33,0,0,1-3.62,1.68,5.08,5.08,0,0,1-2.06-.39,3.88,3.88,0,0,1-1.5-1.17v4.38l1.91.32v1.49h-6.13Zm10.39-9.49a6.76,6.76,0,0,0-.84-3.55,2.75,2.75,0,0,0-2.51-1.38,3.11,3.11,0,0,0-1.68.44,3.43,3.43,0,0,0-1.14,1.22v6.18a3.15,3.15,0,0,0,1.13,1.21,3.18,3.18,0,0,0,1.72.43,2.84,2.84,0,0,0,2.48-1.2,5.26,5.26,0,0,0,.84-3.1Z"/><path class="cls-3" d="M670.79,189.41a4.11,4.11,0,0,1-3.71,2.12,4,4,0,0,1-3.22-1.32,6.12,6.12,0,0,1-1.16-4.13v-5.66l-1.46-.32v-1.49H665v7.5a4.72,4.72,0,0,0,.6,2.79,2.24,2.24,0,0,0,1.86.76,3.83,3.83,0,0,0,2-.5,3.1,3.1,0,0,0,1.21-1.41v-7.33l-1.7-.32v-1.49h4v10.87l1.45.33v1.48H671Z"/><path class="cls-3" d="M680.33,175.55v3.06h2.4v1.71h-2.4V188a1.74,1.74,0,0,0,.37,1.25,1.35,1.35,0,0,0,1,.36,4.47,4.47,0,0,0,.69,0,5.73,5.73,0,0,0,.63-.11l.32,1.58a3,3,0,0,1-1,.35,6,6,0,0,1-1.27.13,3,3,0,0,1-2.23-.85A3.64,3.64,0,0,1,678,188v-7.7h-2v-1.71h2v-3.06Z"/><path class="cls-3" d="M693.36,191.29c-.07-.35-.12-.66-.16-.93a7.58,7.58,0,0,1-.08-.82,5.49,5.49,0,0,1-1.67,1.42,4.79,4.79,0,0,1-5.15-.39,3.57,3.57,0,0,1-1-2.73,3.15,3.15,0,0,1,1.45-2.78,7.16,7.16,0,0,1,4-1h2.38V182.6a2.28,2.28,0,0,0-.71-1.76,2.78,2.78,0,0,0-1.95-.65,4.75,4.75,0,0,0-1.53.22,2.88,2.88,0,0,0-1.08.61l-.24,1.34h-1.78V179.9a6.8,6.8,0,0,1,2.09-1.11,8.27,8.27,0,0,1,2.68-.42,5.34,5.34,0,0,1,3.49,1.1,3.87,3.87,0,0,1,1.33,3.16v6.1c0,.17,0,.33,0,.48a3.59,3.59,0,0,0,0,.47l.94.13v1.48Zm-3.71-1.69a4.12,4.12,0,0,0,2.1-.55,3.48,3.48,0,0,0,1.36-1.33v-2.08h-2.47a3.55,3.55,0,0,0-2.24.65,2,2,0,0,0-.83,1.6,1.59,1.59,0,0,0,.52,1.27A2.36,2.36,0,0,0,689.65,189.6Z"/><path class="cls-3" d="M704,189.73a3.16,3.16,0,0,0,2-.71,2.16,2.16,0,0,0,.87-1.74H709l0,.07a3.56,3.56,0,0,1-1.46,2.91,5.32,5.32,0,0,1-3.54,1.27,5.11,5.11,0,0,1-4.22-1.8,7,7,0,0,1-1.46-4.54v-.49a7,7,0,0,1,1.47-4.52,5.11,5.11,0,0,1,4.21-1.81,7,7,0,0,1,2.74.51,5.38,5.38,0,0,1,2,1.38l.11,2.81H707l-.51-2a2.87,2.87,0,0,0-1-.64,4,4,0,0,0-1.46-.25,2.76,2.76,0,0,0-2.59,1.31,6.14,6.14,0,0,0-.78,3.2v.49a6.27,6.27,0,0,0,.77,3.24A2.79,2.79,0,0,0,704,189.73Z"/><path class="cls-3" d="M711.25,189.81l1.91-.33v-9.06l-1.91-.32v-1.49h4.21v10.87l1.92.33v1.48h-6.13Zm4.21-14.45h-2.3V173h2.3Z"/><path class="cls-3" d="M719.14,184.83a6.93,6.93,0,0,1,1.53-4.63,5.08,5.08,0,0,1,4.13-1.83,5.16,5.16,0,0,1,4.16,1.82,7,7,0,0,1,1.53,4.64v.26a6.92,6.92,0,0,1-1.53,4.64,5.66,5.66,0,0,1-8.29,0,6.91,6.91,0,0,1-1.53-4.63Zm2.31.26a6.1,6.1,0,0,0,.85,3.33,2.83,2.83,0,0,0,2.53,1.31,2.8,2.8,0,0,0,2.49-1.31,6,6,0,0,0,.86-3.33v-.26a6,6,0,0,0-.86-3.32,2.81,2.81,0,0,0-2.52-1.32,2.78,2.78,0,0,0-2.5,1.32,6,6,0,0,0-.85,3.32Z"/><path class="cls-3" d="M732.26,189.81l1.91-.33v-9.06l-1.91-.32v-1.49h4l.16,1.88a4.73,4.73,0,0,1,1.59-1.56,4.26,4.26,0,0,1,2.18-.56,4.14,4.14,0,0,1,3.17,1.2,5.28,5.28,0,0,1,1.13,3.71v6.2l1.91.33v1.48h-6.13v-1.48l1.91-.33v-6.15a3.44,3.44,0,0,0-.66-2.38,2.67,2.67,0,0,0-2-.7,3.25,3.25,0,0,0-1.76.48,3.5,3.5,0,0,0-1.22,1.31v7.44l1.91.33v1.48h-6.13Z"/><path class="cls-3" d="M756.32,191.29c-.07-.35-.13-.66-.17-.93s-.06-.55-.08-.82A5.37,5.37,0,0,1,754.4,191a4.79,4.79,0,0,1-5.15-.39,3.57,3.57,0,0,1-1-2.73,3.16,3.16,0,0,1,1.46-2.78,7.1,7.1,0,0,1,4-1h2.38V182.6a2.3,2.3,0,0,0-.7-1.76,2.81,2.81,0,0,0-2-.65,4.75,4.75,0,0,0-1.53.22,2.84,2.84,0,0,0-1.07.61l-.25,1.34h-1.78V179.9a7,7,0,0,1,2.1-1.11,8.21,8.21,0,0,1,2.67-.42,5.32,5.32,0,0,1,3.49,1.1,3.88,3.88,0,0,1,1.34,3.16v6.58l0,.47.94.13v1.48Zm-3.72-1.69a4.07,4.07,0,0,0,2.1-.55,3.42,3.42,0,0,0,1.36-1.33v-2.08H753.6a3.56,3.56,0,0,0-2.25.65,2,2,0,0,0-.82,1.6,1.59,1.59,0,0,0,.51,1.27A2.4,2.4,0,0,0,752.6,189.6Z"/><path class="cls-3" d="M761,174.49V173h4.21v16.47l1.91.33v1.48H761v-1.48l1.91-.33V174.82Z"/><path class="cls-3" d="M771.79,191.29h-2.31v-2.37h2.31Z"/><circle class="cls-3" cx="106" cy="133.73" r="103"/><path class="cls-2" d="M106,33.73a100,100,0,1,1-100,100,100,100,0,0,1,100-100m0-6a106,106,0,1,0,106,106,106.12,106.12,0,0,0-106-106Z"/><path class="cls-4" d="M105.74,33.91a99.74,99.74,0,1,0,99.74,99.73A99.73,99.73,0,0,0,105.74,33.91Zm0,192.82a93.09,93.09,0,1,1,93.09-93.09A93.09,93.09,0,0,1,105.74,226.73Z"/><path class="cls-4" d="M152.81,61.19a3.33,3.33,0,0,0-4.61,1l-5.43,8.36a3.33,3.33,0,0,0,1,4.66,42.61,42.61,0,0,1,3.73,2.65c.75.58,1.5,1.15,2.08,1.56,1,.85,2,1.74,3,2.65l-2.3,2.3a66.33,66.33,0,0,0-14.57-10l6.8-15.25a3.32,3.32,0,0,0-1.69-4.39,86.89,86.89,0,0,0-30.63-7.29,3.3,3.3,0,0,0-3.49,3.14l-.52,10a3.34,3.34,0,0,0,3.14,3.5l3.5.17,3.73.57,1.44.22c.72.1,1.44.2,2.07.35l.45.12-.87,3.25a67.61,67.61,0,0,0-17.61-1.42l-1.72-16.64a3.34,3.34,0,0,0-1.21-2.24,3.38,3.38,0,0,0-2.45-.72,85.52,85.52,0,0,0-30.2,9,3.32,3.32,0,0,0-1.45,4.47L69.6,70A3.32,3.32,0,0,0,74,71.54c.67-.31,1.33-.64,2-1a34.31,34.31,0,0,1,4.75-2l.85-.32c1-.37,2-.73,2.93-1l.86,3.22c-.82.27-1.61.57-2.4.86l-.79.3a32.12,32.12,0,0,0-4.72,2c-.57.28-1.14.57-2,1L69.8,77.77l-.38.21L59.61,64.51a3.35,3.35,0,0,0-2.17-1.33,3.3,3.3,0,0,0-2.47.6,86.52,86.52,0,0,0-21.69,22.8,3.33,3.33,0,0,0,1,4.6l8.36,5.44a3.33,3.33,0,0,0,4.65-1.06,42.46,42.46,0,0,1,2.65-3.72c.58-.75,1.15-1.51,1.56-2.09.85-1,1.75-2,2.65-3l2.3,2.3a66.28,66.28,0,0,0-10,14.57L31.2,96.81a3.34,3.34,0,0,0-4.4,1.69,86.94,86.94,0,0,0-7.29,30.64,3.32,3.32,0,0,0,3.15,3.48l10,.52A3.3,3.3,0,0,0,36.11,130l.18-3.5.56-3.73c.09-.48.16-1,.22-1.44.11-.72.21-1.44.35-2.06l.12-.46,3.25.87a67.61,67.61,0,0,0-1.42,17.61L22.73,139a3.35,3.35,0,0,0-3,3.66,86.8,86.8,0,0,0,9,30.21,3.31,3.31,0,0,0,4.47,1.44l8.88-4.53a3.32,3.32,0,0,0,1.51-4.36c-.31-.66-.63-1.31-1-2a34.73,34.73,0,0,1-2-4.78l-.33-.88c-.37-1-.72-1.95-1-2.91l3.26-.87a65.71,65.71,0,0,0,7.59,15.91L36.6,179.77a3.31,3.31,0,0,0-.73,4.64,86.47,86.47,0,0,0,22.8,21.68,3.25,3.25,0,0,0,2.5.47,3.34,3.34,0,0,0,2.1-1.43l5.44-8.37a3.31,3.31,0,0,0-1.06-4.65c-1.28-.82-2.53-1.71-3.73-2.66-.74-.57-1.49-1.14-2.08-1.55-1-.85-2-1.75-3-2.65l2.35-2.35c.89.81,1.81,1.63,2.92,2.54.64.45,1.27.94,1.9,1.42a39.9,39.9,0,0,0,3.71,2.61l5.93,3.41.08,0-6.81,15.27a3.32,3.32,0,0,0,1.68,4.39,86.79,86.79,0,0,0,30.64,7.3h.17a3.33,3.33,0,0,0,3.32-3.16l.51-10a3.31,3.31,0,0,0-3.14-3.49l-3.49-.17-3.73-.57-1.44-.22c-.72-.11-1.44-.21-2.07-.35l-.46-.12.88-3.26a68,68,0,0,0,17.6,1.43l1.73,16.64a3.31,3.31,0,0,0,3.65,3,85.78,85.78,0,0,0,30.21-9,3.32,3.32,0,0,0,1.45-4.47l-4.54-8.88a3.32,3.32,0,0,0-4.35-1.51c-.67.31-1.33.64-2,1a34.31,34.31,0,0,1-4.75,2l-.85.32c-1,.37-2,.73-2.93,1.05l-.88-3.26A65.6,65.6,0,0,0,142,189.27l9.83,13.51a3.32,3.32,0,0,0,4.64.73,86.47,86.47,0,0,0,21.68-22.8,3.34,3.34,0,0,0,.47-2.5,3.29,3.29,0,0,0-1.44-2.1l-8.36-5.44a3.37,3.37,0,0,0-2.55-.46,3.3,3.3,0,0,0-2.1,1.52q-1.23,1.92-2.65,3.72c-.58.75-1.15,1.51-1.56,2.09-.85,1-1.75,2-2.66,3l-2.29-2.3a66.28,66.28,0,0,0,10-14.57l15.25,6.8a3.33,3.33,0,0,0,4.39-1.69,87,87,0,0,0,7.3-30.64,3.34,3.34,0,0,0-3.15-3.49l-10-.51a3.35,3.35,0,0,0-3.49,3.14l-.18,3.5-.57,3.72c-.08.48-.15,1-.22,1.45-.1.72-.2,1.44-.35,2.06l-.11.46-3.21-.86,0-.08a23.08,23.08,0,0,0,.41-2.35c.05-.37.1-.74.17-1.15l.51-3.27c0-.11,0-.22,0-.34l.17-3.48V130l16.7-1.73a3.33,3.33,0,0,0,3-3.66,86.8,86.8,0,0,0-9-30.21A3.32,3.32,0,0,0,178.23,93l-8.88,4.53a3.33,3.33,0,0,0-1.51,4.36c.31.66.63,1.31.95,2a34.73,34.73,0,0,1,2.05,4.78l.33.88c.37,1,.73,2,1,2.91l-3.25.87a65.91,65.91,0,0,0-7.59-15.91l13.5-9.83a3.31,3.31,0,0,0,1.33-2.17,3.37,3.37,0,0,0-.59-2.48A86.47,86.47,0,0,0,152.81,61.19Zm2,32.69a3.31,3.31,0,0,0-.73,4.64,59.12,59.12,0,0,1,9.37,19.64,3.35,3.35,0,0,0,4.07,2.36l9.64-2.58a3.32,3.32,0,0,0,2.39-3.91,48.36,48.36,0,0,0-2.17-6.86l-.26-.72a35.41,35.41,0,0,0-1.87-4.51l3-1.51A80.26,80.26,0,0,1,184.67,122l-16.46,1.71a3.33,3.33,0,0,0-3,3.48l.17,3.22v6.36l-.17,3.13-.47,3.06c-.07.43-.14.87-.2,1.3-.08.59-.16,1.18-.27,1.68l-.83,3.2a3.33,3.33,0,0,0,2.36,4l9.63,2.57a3.32,3.32,0,0,0,4.08-2.38l1-3.79c.2-.89.33-1.79.46-2.69.06-.43.12-.85.2-1.33l.62-4.11,0-.51,3.27.17A80.93,80.93,0,0,1,179.88,163l-15.11-6.74a3.32,3.32,0,0,0-4.4,1.69,59.53,59.53,0,0,1-12.32,18,3.33,3.33,0,0,0,0,4.7l7.05,7.05a3.21,3.21,0,0,0,2.45,1,3.27,3.27,0,0,0,2.38-1.11l1.8-2c1.16-1.25,2.31-2.51,3.53-4,.5-.71,1-1.41,1.57-2.11q.56-.72,1.11-1.47l2.8,1.82a79.87,79.87,0,0,1-15.5,16.3l-9.75-13.39a3.31,3.31,0,0,0-4.64-.73,59.32,59.32,0,0,1-19.64,9.37,3.28,3.28,0,0,0-2,1.55,3.32,3.32,0,0,0-.34,2.52l2.58,9.64a3.33,3.33,0,0,0,3.91,2.39,50.12,50.12,0,0,0,6.89-2.18l.69-.26a33.42,33.42,0,0,0,4.51-1.86l1.51,3a80.62,80.62,0,0,1-21.58,6.44l-1.71-16.46a3.3,3.3,0,0,0-3.63-3,61,61,0,0,1-21.77-1.77,3.32,3.32,0,0,0-4.07,2.35l-2.58,9.64a3.32,3.32,0,0,0,.34,2.54,3.37,3.37,0,0,0,2,1.54l3.79,1c.89.21,1.8.34,2.7.47l1.32.2,4.11.61.51,0L98.25,213a80.38,80.38,0,0,1-21.88-5.2l6.73-15.12a3.31,3.31,0,0,0-1.59-4.34L78.75,187l-5.67-3.25a36.12,36.12,0,0,1-3-2.16c-.7-.54-1.41-1.08-1.92-1.43-1-.79-1.88-1.64-2.8-2.48-.68-.63-1.37-1.26-2.07-1.87a3.33,3.33,0,0,0-4.54.15l-7,7a3.32,3.32,0,0,0,.14,4.84l1.95,1.77c1.27,1.16,2.53,2.32,4,3.55.71.51,1.4,1,2.1,1.57l1.48,1.12-1.82,2.79a79.77,79.77,0,0,1-16.29-15.49l13.38-9.74a3.34,3.34,0,0,0,.74-4.65A59.34,59.34,0,0,1,48,149.13a3.33,3.33,0,0,0-4.06-2.36l-9.64,2.58a3.33,3.33,0,0,0-2.39,3.91,48.45,48.45,0,0,0,2.16,6.87l.27.71a34.77,34.77,0,0,0,1.86,4.51l-3,1.51a80.62,80.62,0,0,1-6.44-21.58l16.46-1.71a3.33,3.33,0,0,0,3-3.63A61,61,0,0,1,48,118.17a3.33,3.33,0,0,0-2.35-4.08L36,111.52a3.29,3.29,0,0,0-2.53.34,3.35,3.35,0,0,0-1.55,2l-1,3.79c-.2.89-.34,1.79-.47,2.69-.06.43-.12.85-.2,1.33l-.61,4.11,0,.51-3.26-.17a80.54,80.54,0,0,1,5.2-21.89L46.71,111a3.31,3.31,0,0,0,4.39-1.69,59.49,59.49,0,0,1,12.33-18,3.33,3.33,0,0,0,0-4.7l-7.05-7.06a3.38,3.38,0,0,0-2.45-1,3.32,3.32,0,0,0-2.39,1.12q-.89,1-1.8,2c-1.15,1.25-2.3,2.5-3.52,4-.51.71-1,1.41-1.57,2.1-.37.49-.75,1-1.12,1.48l-2.79-1.82a79.87,79.87,0,0,1,15.5-16.3L66,84.55a3.35,3.35,0,0,0,2.18,1.33,3.3,3.3,0,0,0,2.47-.6l.77-.58A11.22,11.22,0,0,1,73,83.58l5.44-3.15c.64-.29,1.28-.6,1.91-.91a26.19,26.19,0,0,1,3.89-1.67l1-.37A32.86,32.86,0,0,1,90.07,76a3.32,3.32,0,0,0,2.54-4.12L90,62.2a3.33,3.33,0,0,0-3.91-2.39A50.55,50.55,0,0,0,79.23,62l-.69.26A34.64,34.64,0,0,0,74,64.11l-1.52-3a80.69,80.69,0,0,1,21.59-6.44l1.7,16.46A3.25,3.25,0,0,0,97,73.41a3.3,3.3,0,0,0,2.43.73,61.2,61.2,0,0,1,21.77,1.77,3.34,3.34,0,0,0,2.53-.33,3.3,3.3,0,0,0,1.54-2l2.58-9.64a3.33,3.33,0,0,0-2.38-4.08l-3.78-1c-.9-.21-1.8-.34-2.71-.47l-1.32-.2-4.1-.61-.52,0,.17-3.27a80.84,80.84,0,0,1,21.89,5.21l-6.74,15.12A3.34,3.34,0,0,0,130.06,79a59.81,59.81,0,0,1,18,12.32,3.33,3.33,0,0,0,4.7,0l7.05-7a3.34,3.34,0,0,0-.14-4.84c-.66-.58-1.31-1.18-2-1.77-1.26-1.16-2.52-2.32-4-3.55-.71-.51-1.4-1-2.09-1.57l-1.48-1.12,1.81-2.79a79.84,79.84,0,0,1,16.3,15.49Z"/><path class="cls-4" d="M105.74,80.45a53.09,53.09,0,0,0-45.87,80,4,4,0,0,0,.2.35A53.87,53.87,0,0,0,73.63,176c.09.06.14.14.23.19s0,0,.07,0a52.79,52.79,0,0,0,63.6,0l.09,0c.09-.05.14-.14.22-.19a53.56,53.56,0,0,0,13.56-15.17,2.5,2.5,0,0,0,.21-.35,53.09,53.09,0,0,0-45.87-80Zm-6,7.08-36.9,64.18a46.5,46.5,0,0,1,36.9-64.18ZM79.9,172.33l25.84-44.92,25.84,44.92a46.4,46.4,0,0,1-51.68,0Zm56.95-4.17-26.79-46.57a5,5,0,0,0-8.65,0L74.62,168.16a46.7,46.7,0,0,1-8.09-9.53l39.21-68.19,7.6,13.18.15.3,31.45,54.71a46.7,46.7,0,0,1-8.09,9.53Zm11.78-16.45-29.22-50.84c0-.1-.1-.2-.15-.3l-7.52-13a46.51,46.51,0,0,1,36.89,64.18Z"/><g class="cls-5"><path class="cls-6" d="M93.43,77.6l4.15,15.93s.66,3.93-.76,5.35-8.08,9-8.08,9L85,115.14l21.5,12.22,25.64-6.87-.76-18s-13.13-.83-20.79-6.58c-1.5-1.13-2.78-14.26-2.78-14.26Z"/><path class="cls-7" d="M108.54,87.43c-.4-2.93-.73-5.89-.73-5.89l-14.4-4,1.15,4.43s4.51,2.94,5.91,3.56A27.44,27.44,0,0,0,108.54,87.43Z"/><path class="cls-6" d="M81.48,112s-10.27,5.81-11.21,6.75S62,126.23,62,126.23l-.28,23.85-9.54-22.72L43.87,131,55.68,166.4l6.49,10.06,4.9,1.85,7.23-33.38,10.41,6.52,12.76-9.32-9.16-22.85-3.93-8.58Z"/><path class="cls-6" d="M43.52,130.92a11.24,11.24,0,0,1-4.9-4.1,40,40,0,0,1-5.13.26A.8.8,0,0,1,33,127a.83.83,0,0,1-.27-.57,50,50,0,0,0-2.65-9.29,1.5,1.5,0,0,1-.15-.82c.11-.5.69-.73,1.2-.78a3.11,3.11,0,0,0,1.49-.3c.56-.38.73-1.25,1.38-1.46s1.11.18,1.61,0,.65-.89,1-1.33a3.6,3.6,0,0,1,2.22-.89,15.6,15.6,0,0,0,3.9-1.56.43.43,0,0,0,.23-.19.45.45,0,0,0,0-.23c-.59-2.79-1.86-5.58-2.46-8.37a64.08,64.08,0,0,1-1-8,4.21,4.21,0,0,1,2.21-2.69.93.93,0,0,1,.82-.11c.32.14.42.53.5.86.67,3.12,2.5,11,3.17,14.13.43,2,4,7,4.8,7.53s.87,1.33,1.75,2a1.84,1.84,0,0,1,.6.61,2,2,0,0,1,.16.88l.13,5.27c.06,2.06,0,4.36-1.44,5.81Z"/><path class="cls-7" d="M50.69,112.45c-1.06-.29-2.09-1-3.24-.77A7.26,7.26,0,0,0,44.82,113c-2.33,1.59-4,4-6.49,5.34a1,1,0,0,0-.2,1.61c1.42,1.39,3.49,3,5.6,2.55a6.53,6.53,0,0,0,4.38-4.1l-1.5.62a8.68,8.68,0,0,0,2.12,1.14c1.24.47,1.75-1.5.55-2-4-1.62-5.7,3.64-4.33,6.54.56,1.19,2.33.15,1.77-1-.64-1.35-.29-4.45,2-3.52l.55-2a4.87,4.87,0,0,1-1.64-.94c-.58-.43-1.3.07-1.5.62-1.23,3.25-4.52,2.63-6.56.64l-.21,1.61a21.22,21.22,0,0,0,4.48-3.71,16.78,16.78,0,0,1,2.59-2c1.23-.77,2.38-.36,3.71,0a1,1,0,0,0,.54-2Z"/><path class="cls-7" d="M42.53,116.36,42.05,114l-2,.54a2.7,2.7,0,0,0,1.5,1.85A1.07,1.07,0,0,0,43,116a1,1,0,0,0-.37-1.4.85.85,0,0,1-.57-.62,1,1,0,0,0-1.26-.72,1,1,0,0,0-.71,1.26l.47,2.39a1,1,0,0,0,1.26.71,1,1,0,0,0,.72-1.26Z"/><path class="cls-6" d="M85,71s8.33,14.84,33.21,14.84c10.29,0,14.11-2.4,14.69-5.74,3.65-21-4.11-47.55-14.88-55.65-9.43-7.11-42.91,19.79-42.91,19.79l7.13,16S74.92,52.36,72,56.73s6.33,13.6,6.33,13.6S82.49,73.46,85,71Z"/><path class="cls-6" d="M134.67,104.63c2.48-1.31,4.69,1.77,4.69,1.77l25.11,43.95L142.8,189.22s7.28,12.22,3.64,17.75l5,5s.8,2.69-2.84,2.69-12.22-6.4-12.22-6.4l1-27.41,16.17-29.17-14.85-22.09-4.65-4.11S130.06,107.07,134.67,104.63Z"/><path class="cls-6" d="M108.6,227.62l-21,52.72s-2.71,10-5.93,13.2a142.4,142.4,0,0,1-8,23c-5.46,12.22-7.86,29-7.86,29s5,12.61,4.36,18.28c0,0,4.75,6.55,2.84,10.31s-9.38,1.53-9.38,1.53-12.5,1.64-14.35-1.47,2.34-11.46,2.34-11.46-.6-6.66,1.59-8.18a27.24,27.24,0,0,0,4.8-5.24s-.82-2.18,1.47-5.13,5.67-21.84,5.67-24.31-3.05-21,7.13-28.23c0,0,2.48-50.19,9.46-57.17s26.84-11.13,26.84-11.13Z"/><path class="cls-8" d="M108.6,227.62l-6.72,16.85s-9.3,4.15-11.65,4.73c-1.75.43-14.2,4.28-13.78,1.77,1.31-7.85,3.12-14.27,5.31-16.46,7-7,26.84-11.13,26.84-11.13Z"/><path class="cls-6" d="M116.09,219.81S133.7,286.3,135,289.36s-5.57,9,6.43,51.1c0,0-.76,5.56-1.85,7.53s-3.6,7-.44,8.72,13.42,10.48,17.79,11.24,12.55-3.05,12.55-3.05,4.36-1.64,3-3c0,0-4-.17-5.3-1.48s-16.14-13-16.14-13-4.59-5.89-4.59-6.29S143.19,289,143.19,289s1.2-3.28,0-9.93-.62-48.6-.62-48.6Z"/><path class="cls-8" d="M116.09,219.81s4.15,15.59,5.37,20.2c.48,1.77,21,3.19,21,3.19l.11-12.77Z"/><path class="cls-9" d="M116.09,233c3.41,6.75,27.34,8.18,29.32,8.8,0,0,.62-27.1-3.2-42.32S116.09,233,116.09,233Z"/><path class="cls-10" d="M87,65c4.22,1.75.58-5.82.58-5.82s-.4-7.58-2.55-8.87a31,31,0,0,1-4.68-3.83L120.6,18.9s4.08-5.67-5.23-9.16a11.07,11.07,0,0,0-11.28-3.35S100,1.52,94.13,6c0,0-11.86-.69-14.55,5.13a4.42,4.42,0,0,0-4.37,2.47s-2.47.95-2.94,2.95c0,0-6,2.36-6.37,6.36,0,0-3.27,4.58-.65,8.29,0,0-1.73,3.26.51,5.5,0,0-5,5.49,0,8.91,0,0-1.24,3.56,6.11,5l2.18,4.5s2.1-.95,8.15,5.1S87,65,87,65Z"/><path class="cls-7" d="M116.31,65.5a1.5,1.5,0,0,1,0-3c1.52,0,5.76-1.28,8.72-2.29-.93-7.44-5.68-13-8.53-15.72a1.5,1.5,0,1,1,2.07-2.17c3.31,3.16,8.94,9.8,9.57,18.81l.08,1.14-1.07.38C126.33,62.94,119.11,65.5,116.31,65.5Z"/><ellipse class="cls-11" cx="103.34" cy="49.35" rx="1.96" ry="2.67" transform="translate(-8.91 26.67) rotate(-14.1)"/><path class="cls-11" d="M100.33,48.92h-.07a1.5,1.5,0,0,1-1.43-1.56c0-.39.23-3.84,2.75-5.2,1.62-.88,3.65-.61,6,.81a1.5,1.5,0,1,1-1.54,2.57c-1.36-.81-2.44-1.07-3.06-.74-.81.43-1.15,2-1.18,2.69A1.51,1.51,0,0,1,100.33,48.92Z"/><ellipse class="cls-11" cx="121.48" cy="43.87" rx="1.96" ry="2.67" transform="translate(-7.03 30.92) rotate(-14.1)"/><path class="cls-11" d="M118,43.09a1.9,1.9,0,0,1-.4-.05,1.51,1.51,0,0,1-1-1.84c.1-.38,1.08-3.7,3.84-4.46,1.78-.49,3.7.23,5.69,2.14A1.5,1.5,0,0,1,124,41.05c-1.15-1.1-2.15-1.6-2.82-1.42-.88.24-1.56,1.7-1.75,2.37A1.51,1.51,0,0,1,118,43.09Z"/><path class="cls-12" d="M107.8,68c-.24-.25,14.41.92,20-3.2,0,0,1.11,11.15-3.89,12.37S112.84,76.36,107.8,68Z"/><g class="cls-13"><path class="cls-14" d="M106.84,69.75s13.71,3.91,19.8-2.18l-.76-2.78-20.09,1.36Z"/><path class="cls-15" d="M109.26,74.77s4.4-4.26,11.42-1.42,0,8,0,8Z"/></g><path class="cls-7" d="M120.9,78.57c-8.33,0-13.91-10-14-10.1l-.86-1.57,1.79.09c.14,0,13.54.66,19.42-3a1,1,0,0,1,1.38.31,1,1,0,0,1-.31,1.38c-5.07,3.19-14.65,3.44-18.7,3.4,2.16,3.18,7.78,9.85,15,6.72a1,1,0,0,1,.8,1.83A11.19,11.19,0,0,1,120.9,78.57Z"/><path class="cls-7" d="M81.87,69.31s-.22-9.55-7.58-11.84"/><path class="cls-7" d="M74.3,144.93s6.29-8.43,5.46-7.15c-4.61,7.13,11.79,15.36,15.64,11a9.82,9.82,0,0,1-10.69,2.7Z"/><path class="cls-16" d="M88.74,107.83s-7,2.57-10.24,5.83c0,0,19.59,28.41,6.21,37.79,0,0,12.33,23.56,11,28.36s-23.22,65.94-23.22,65.94,67.65-1.2,70.06-45.43l-3.2-25.46A214.39,214.39,0,0,0,141.26,149c.14-12.43-1.22-26.7-2.22-36.45a15.67,15.67,0,0,0-4.59-9.89l-6.36-.59s5,16.85-6.61,18.44C115.2,121.41,100.09,123.44,88.74,107.83Z"/><g class="cls-17"><path class="cls-18" d="M75,247.4s67.65-1.2,70.06-45.43Z"/></g><path class="cls-16" d="M88.74,107.83s-7,2.57-10.24,5.83c0,0,19.59,28.41,6.21,37.79,0,0,12.33,23.56,11,28.36s-23.22,65.94-23.22,65.94,67.65-1.2,70.06-45.43l-3.2-25.46A214.39,214.39,0,0,0,141.26,149c.14-12.43-1.22-26.7-2.22-36.45a15.67,15.67,0,0,0-4.59-9.89l-6.36-.59s5,16.85-6.61,18.44C115.2,121.41,100.09,123.44,88.74,107.83Z"/><path class="cls-19" d="M94.22,184.75s35.67,4.75,45.57-6.6c0,0,1.07-2.24-.42-3.29.21,2.1-16.75,11.23-43.64,5.46A2.92,2.92,0,0,0,94.22,184.75Z"/><circle class="cls-20" cx="123.85" cy="183.03" r="8.32"/><g class="cls-21"><path class="cls-22" d="M84.35,22.1s-3.57,4.33,1,7.22c1.58,1-4.7,5.89-4.7,5.89L78.08,49.45a19,19,0,0,1,5.46-1.31L95,61.29l-7.37,4.6L64.16,50.06,48.52,19.85,68.67,1.55l22-5.13L86.83,4.1s-9.35,5.72-5.78,9.84C78.81,15.51,78.38,21.68,84.35,22.1Z"/></g><path class="cls-23" d="M74.16,55.12s-4.22-1.88-4.22-5.38S86.38,13.23,120.71,18.9c0,0,5.31,3.71,3.49,5.53,0,0,3.28,4.07.66,6.25S109.51,29.66,74.16,55.12Z"/><path class="cls-24" d="M76,47.42s22-26.77,45.47-23.28C121.48,24.14,99.58,25.31,76,47.42Z"/><path class="cls-25" d="M124.77,190.06a8.17,8.17,0,0,1-6-2.34c-1.61-1.79-2.06-4.4-1.34-7.74a1.5,1.5,0,1,1,2.93.64c-.5,2.34-.29,4.06.65,5.1,1.4,1.57,4.14,1.33,4.17,1.32a1.5,1.5,0,1,1,.31,3S125.18,190.06,124.77,190.06Z"/><path class="cls-26" d="M128.88,187.24a1.24,1.24,0,0,1-.33,0,1.5,1.5,0,0,1-1.14-1.79c.52-2.34.31-4.06-.61-5.1-1.4-1.58-4.14-1.36-4.17-1.35a1.5,1.5,0,1,1-.29-3c.17,0,4.28-.38,6.7,2.35,1.6,1.8,2,4.41,1.3,7.74A1.49,1.49,0,0,1,128.88,187.24Z"/><path class="cls-7" d="M39,127.42a2.27,2.27,0,0,0,0-3.88c-.92-.7-2.12.85-1.24,1.61s2.08,1.66,3.44,1.4a2.84,2.84,0,0,0,2.23-2.28l-1.5.62a3.26,3.26,0,0,0,3.33.1c1.18-.59.15-2.36-1-1.77a1.15,1.15,0,0,1-1.27-.1,1,1,0,0,0-1.5.61c-.29,1.45-1.58.55-2.25,0L38,125.31l0,.34c-1.07.75,0,2.53,1,1.77Z"/><path class="cls-7" d="M33.21,114.28q.72,3.33,1.59,6.62a1,1,0,0,0,2-.54c-.58-2.2-1.1-4.4-1.59-6.62-.27-1.29-2.25-.75-2,.54Z"/><path class="cls-7" d="M60.57,149.81a20.56,20.56,0,0,1,2.32,8.06c.1,1.31,2.16,1.32,2,0a23,23,0,0,0-2.6-9.09c-.62-1.17-2.39-.14-1.77,1Z"/><path class="cls-27" d="M99.08,4.1a7,7,0,0,1,5,2.29,12.17,12.17,0,0,1,3-.4,11.07,11.07,0,0,1,8.24,3.75c9,3.39,5.45,8.84,5.24,9.15h.1s5.31,3.71,3.49,5.53c0,0,3.28,4.07.66,6.25a3.11,3.11,0,0,1-1,.48c7.44,11.59,11.88,32.05,9,48.92-.58,3.34-4.4,5.74-14.68,5.74h0a54.55,54.55,0,0,1-10-.88l.32,2.49h0c.52,3.68,1.27,7.85,2.09,8.47,5.25,3.94,13.07,5.57,17.47,6.21l6.36.59a14.43,14.43,0,0,1,1.42,1.61h.07c1.91,0,3.42,2.09,3.42,2.09l25.11,43.95L142.8,189.22s7.28,12.22,3.64,17.75l5,5s.8,2.69-2.84,2.69a10.93,10.93,0,0,1-4.22-1.37,273.1,273.1,0,0,1,1,28.47,29.24,29.24,0,0,0-2.93-.44l0,1.86h0c-.08,12.92,0,31.57.73,35.83,1.2,6.65,0,9.93,0,9.93s3.27,51.79,3.27,52.19,4.59,6.29,4.59,6.29,6.06,4.77,10.77,8.55h0a13.69,13.69,0,0,1,4,1.67,3.9,3.9,0,0,1,1.19,2.48c.31.21.83.56,1.43,1a15.1,15.1,0,0,0,4.1.77c.64.64,0,1.35-.85,1.92.47.5.75.94.68,1.22-.31,1.14-4.7,5.76-12.63,5.76-.45,0-.91,0-1.38-.05-8.33-.54-19.87-9.42-20.82-11.89a7.4,7.4,0,0,1,.12-5c0-2.11,1.28-4.63,2-5.89,1.09-2,1.85-7.53,1.85-7.53-12-42.12-5.12-48-6.43-51.1-.89-2.06-9.16-32.89-14.46-52.8a13.86,13.86,0,0,1-2.74-1.62,85.17,85.17,0,0,1-14.41,5.71l-1.52,3.82-14.3,35.87s-2.71,10-5.93,13.2a142.4,142.4,0,0,1-8,23c-5.46,12.22-7.86,29-7.86,29s3.91,9.93,4.37,16.13c4.59,6.29,8.72,14.06,3.25,16.35a31.39,31.39,0,0,1-11.91,2.1c-6.6,0-12.52-1.55-13.9-2.93-2.22-2.21,4.08-19,4.08-19,.19-1.53.62-3,1.51-3.62a27.24,27.24,0,0,0,4.8-5.24s-.82-2.18,1.47-5.13,5.67-21.84,5.67-24.31-3.05-21,7.13-28.23c0,0,1.17-23.62,4.15-40.71h0c.33-1.94.68-3.79,1.06-5.51-3.12.25-5,.29-5,.29s16.35-45.63,21.64-61.14a2.87,2.87,0,0,1,1.4-4.22c.08-.24.14-.44.18-.58,1.31-4.8-11-28.36-11-28.36L74.3,144.93l-7.23,33.38-4.9-1.85L55.68,166.4,43.87,131l-.35-.11a11.24,11.24,0,0,1-4.9-4.1,39.45,39.45,0,0,1-4.61.26h-.52A.8.8,0,0,1,33,127a.83.83,0,0,1-.27-.57,50,50,0,0,0-2.65-9.29,1.5,1.5,0,0,1-.15-.82c.1-.5.69-.73,1.2-.78a3.11,3.11,0,0,0,1.49-.3c.56-.38.73-1.25,1.38-1.46a.86.86,0,0,1,.32-.05c.3,0,.61.09.91.09a1,1,0,0,0,.38-.06c.52-.22.65-.89,1-1.33a3.6,3.6,0,0,1,2.22-.89,15.6,15.6,0,0,0,3.9-1.56.43.43,0,0,0,.23-.19.45.45,0,0,0,0-.23c-.59-2.79-1.86-5.58-2.46-8.37a64.08,64.08,0,0,1-1-8,4.21,4.21,0,0,1,2.21-2.69,1.26,1.26,0,0,1,.56-.17.58.58,0,0,1,.26.06c.32.14.42.53.5.86.67,3.12,2.5,11,3.17,14.13.43,2,4,7,4.8,7.53s.87,1.33,1.75,2a1.84,1.84,0,0,1,.6.61,2,2,0,0,1,.16.88c0,1.76.09,3.52.13,5.27.06,2.06,0,4.36-1.44,5.81h0l9.43,22.47-.18-.64.25.5L62,126.23s7.34-6.58,8.29-7.53c.61-.61,5.12-3.25,8.23-5h0c3.25-3.26,10.24-5.83,10.24-5.83s6.66-7.53,8.08-9,.76-5.35.76-5.35l-3.64-14c-6.44-4-9-8.55-9-8.55a3.21,3.21,0,0,1-2.37,1,8.36,8.36,0,0,1-4.25-1.61S69.1,61.09,72,56.73a2.74,2.74,0,0,1,2.4-1.32c1.9,0,4.17,1.57,5.76,2.91-3.27-2.86-5-3.25-5.73-3.25h-.23l0,0,0,0-.06,0,0-.06c-.69-.35-3.78-2-4-4.92-5.22-1.63-4.21-4.54-4.21-4.54-5-3.42,0-8.91,0-8.91-2.24-2.24-.51-5.5-.51-5.5-2.62-3.71.65-8.29.65-8.29.37-4,6.37-6.36,6.37-6.36.47-2,2.94-2.95,2.94-2.95a4.37,4.37,0,0,1,4-2.49,2.47,2.47,0,0,1,.34,0C81.75,6.42,89.91,6,93,6c.73,0,1.17,0,1.17,0a8.11,8.11,0,0,1,5-1.89M140.1,176l13.47-24.29-12.8-19c.34,5.46.55,11.08.49,16.37a214.39,214.39,0,0,1-1.89,25.82,1.78,1.78,0,0,1,.73,1.13m26.54,183.94h0M99.08,0h0A11.7,11.7,0,0,0,92.9,1.86c-4.48,0-11.89.78-15.68,5.37a8.3,8.3,0,0,0-4.89,3.22,9.22,9.22,0,0,0-3.18,3C66.87,14.67,63,17.26,62,21.39c-1.41,2.4-2.69,6.35-1.21,10.12a9,9,0,0,0,.13,5,10.53,10.53,0,0,0-1.44,6.29,8.33,8.33,0,0,0,2.23,4.75,7,7,0,0,0,.61,1.76,9,9,0,0,0,4.27,3.94A9.62,9.62,0,0,0,68,55.48c-1.47,3.19-.58,7.22,2.68,12a45,45,0,0,0,4.74,5.76l.2.2.23.17A12.2,12.2,0,0,0,82.59,76a7.46,7.46,0,0,0,1-.06,34.7,34.7,0,0,0,6.83,6.11l3.19,12.27a7.69,7.69,0,0,1,0,2c-1.57,1.65-5.6,6.17-7.25,8-2.17.87-7.16,3.08-10.31,6-7.57,4.37-8.2,5-8.65,5.45-.63.64-5.32,4.86-8.13,7.38l-1.34,1.2,0,1.8-.05,4.1-1-2.42a14.4,14.4,0,0,0,.93-6.32l-.13-5.27a5.83,5.83,0,0,0-.63-2.69,5.69,5.69,0,0,0-1.64-1.88.35.35,0,0,0-.05-.08,7.89,7.89,0,0,0-1.63-1.85,26.73,26.73,0,0,1-3.46-5.32c-.34-1.59-1-4.38-1.59-7.07s-1.25-5.48-1.58-7a5,5,0,0,0-2.77-3.72,4.66,4.66,0,0,0-2-.44,5.23,5.23,0,0,0-2.54.68,8.13,8.13,0,0,0-4.31,5.83c-.24,2.14,1.07,9.24,1.08,9.3a44.69,44.69,0,0,0,1.35,4.63c.1.28.19.56.28.83l-.1,0-.26,0a6.79,6.79,0,0,0-4.19,2.11,5.43,5.43,0,0,0-.82.18,5.26,5.26,0,0,0-2.39,1.64,5.15,5.15,0,0,0-4.43,4,5.37,5.37,0,0,0,.34,3.16,46.21,46.21,0,0,1,2.43,8.54,4.67,4.67,0,0,0,4.72,4H34c.93,0,1.86,0,2.79-.08A15.34,15.34,0,0,0,40.54,134L51.79,167.7l.16.49.28.43,6.49,10.06.73,1.14,1.27.48,4.91,1.85,4.45,1.68,1-4.65,6-27.67,4.51,2.82c.93,1.83,3,6,5.09,10.53,3.76,8.26,4.73,11.89,5,13.32a6.65,6.65,0,0,0-1.83,6.44c-5.65,16.45-21,59.3-21.16,59.75l-2,5.59,5.83-.11-.06.35-.12.59v.09c-2.48,14.48-3.67,32.91-4,38.76-9.08,8.21-7.77,23.75-7.33,29,0,.48.09,1.07.09,1.24-.07,2.71-3.3,19.27-4.85,21.84a10.73,10.73,0,0,0-2.44,6.41,18.13,18.13,0,0,1-2.9,3.06c-1.69,1.17-2.72,3.13-3.16,6-.45,1.22-1.73,4.81-2.83,8.6-2.4,8.3-2.44,12.05-.15,14.33,2.83,2.84,10.69,4.13,16.8,4.13A35.43,35.43,0,0,0,75,381.85a8.08,8.08,0,0,0,4.81-5.29c1.13-4.07-.67-9.29-5.67-16.35-.68-5.44-3.14-12.43-4.12-15.07.61-3.75,3-17,7.38-26.91a147.93,147.93,0,0,0,8-22.75c3.22-4.05,5.5-11.73,6.08-13.84L105.69,246l.8-2a91.34,91.34,0,0,0,10.68-4.17c11.26,42.22,13.34,49.15,13.9,50.71,0,.3-.12.81-.19,1.23-.83,5-2.77,16.56,6.38,49A26.16,26.16,0,0,1,136,346a17.66,17.66,0,0,0-2.46,7.15,11.17,11.17,0,0,0,.12,7.17c1.28,3.34,7.41,7.47,9.26,8.66,3.16,2,9.33,5.49,15.13,5.87.54,0,1.1,0,1.64,0,9.45,0,15.72-5.63,16.58-8.78a4.35,4.35,0,0,0,.14-1.64,5.1,5.1,0,0,0,.42-1.54,4.89,4.89,0,0,0-1.44-3.94l-1.13-1.13-1.6-.07a12.53,12.53,0,0,1-2.15-.3,7.37,7.37,0,0,0-2.11-3,14.44,14.44,0,0,0-4.66-2.24c-3.86-3.09-8.41-6.68-9.76-7.74-1.32-1.71-2.78-3.64-3.49-4.64-.17-3-.82-13.44-3.16-50.5a27.34,27.34,0,0,0-.1-11.09c-.25-1.34-.78-7.12-.69-31.86l2.84.9.13-5.46c0-.53.24-11.27-.55-23.11a6.74,6.74,0,0,0,5.5-2.56,6.26,6.26,0,0,0,.93-5.39l-.3-1-.73-.73L151.23,206c1.31-5.79-1.8-13-3.74-16.73l20.56-36.89,1.12-2-1.14-2-25.11-43.94-.1-.19-.13-.17a9.76,9.76,0,0,0-4.63-3.47c-.23-.25-.46-.49-.71-.74l-1-1-1.47-.13L128.57,98c-3.7-.54-10.28-1.88-14.8-4.92a30.54,30.54,0,0,1-.74-3.4c1.69.14,3.4.21,5.14.21,4.24,0,17.14,0,18.73-9.14,2.72-15.65-.54-35.56-7.78-48.87,1.43-2.5,1-5.55-.44-8.13a6.15,6.15,0,0,0,0-.74c-.19-2.15-1.65-4.08-3.19-5.55a8.84,8.84,0,0,0-.28-4.11c-1-3-3.46-5.42-7.45-7.11a15.11,15.11,0,0,0-10.61-4.38,16.89,16.89,0,0,0-1.87.11,10.74,10.74,0,0,0-6.18-2Zm46,158.65c.17-3,.29-6.19.33-9.57,0-.72,0-1.46,0-2.22l3.4,5L145,158.65Z"/><polyline class="cls-6" points="43.52 130.92 44.08 131.25 52.76 127.72"/></g></svg>