<svg id="Camada_1" data-name="Camada 1" xmlns="http://www.w3.org/2000/svg" viewBox="0 0 778.18 396.96"><defs><style>.cls-1{fill:#027e8f;}.cls-2{fill:#707070;}.cls-3{fill:#a3a3a3;}.cls-4{fill:#777572;}.cls-5{fill:#f9c287;}.cls-6{fill:#919191;}.cls-7{fill:#b5b5b5;}</style></defs><title>pilares</title><path class="cls-1" d="M25.05,33.38l1.22-.17,5.19-14.84H35l5.16,14.84,1.22.17v2.06H35.53V33.38l1.18-.21L36,30.83H30.43l-.75,2.34,1.18.21v2.06H25.05Zm6.19-5.07h3.91l-1.92-6h-.07Z"/><path class="cls-1" d="M54.8,29.45A7.42,7.42,0,0,1,53.54,34a4.26,4.26,0,0,1-3.66,1.7A3.85,3.85,0,0,1,48,35.22a3.92,3.92,0,0,1-1.38-1.34l-.25,1.56h-3V19.57l-1.82-.35V17.15h5.23v7a3.88,3.88,0,0,1,1.32-1.17,3.72,3.72,0,0,1,1.76-.41,4.2,4.2,0,0,1,3.68,1.82A8.42,8.42,0,0,1,54.8,29.2Zm-3.41-.25a6.63,6.63,0,0,0-.54-2.93A1.9,1.9,0,0,0,49,25.18a2.51,2.51,0,0,0-1.35.34,2.34,2.34,0,0,0-.86.95v5.36a2.19,2.19,0,0,0,.87.89A2.86,2.86,0,0,0,49,33a2,2,0,0,0,1.85-.93,5.44,5.44,0,0,0,.52-2.64Z"/><path class="cls-1" d="M66.73,27.12H64.44l-.37-1.59a3.15,3.15,0,0,0-.88-.47A3.7,3.7,0,0,0,62,24.88a2.29,2.29,0,0,0-1.43.4,1.24,1.24,0,0,0-.53,1,1.14,1.14,0,0,0,.51,1,5.36,5.36,0,0,0,2,.67,8.43,8.43,0,0,1,3.5,1.38,3,3,0,0,1,1.13,2.5,3.33,3.33,0,0,1-1.47,2.8,6.38,6.38,0,0,1-3.87,1.08,8,8,0,0,1-2.69-.43A6.7,6.7,0,0,1,57,34l0-2.85h2.39l.47,1.65a1.83,1.83,0,0,0,.83.38,4.42,4.42,0,0,0,1.1.13A2.78,2.78,0,0,0,63.34,33a1.17,1.17,0,0,0,.55-1,1.21,1.21,0,0,0-.55-1,5.94,5.94,0,0,0-2-.73,8,8,0,0,1-3.38-1.35,2.94,2.94,0,0,1-1.14-2.44A3.52,3.52,0,0,1,58.1,23.7a5.47,5.47,0,0,1,3.74-1.16,9.8,9.8,0,0,1,2.79.4,6.05,6.05,0,0,1,2.07,1Z"/><path class="cls-1" d="M73.79,19.65v3.11H76v2.4H73.79v6.46a1.5,1.5,0,0,0,.3,1.05,1.11,1.11,0,0,0,.82.32,5.59,5.59,0,0,0,.62,0c.18,0,.37-.06.59-.1l.29,2.47a6.8,6.8,0,0,1-1.13.26,7.77,7.77,0,0,1-1.22.09,3.66,3.66,0,0,1-2.73-1,4.3,4.3,0,0,1-1-3.08V25.16H68.52v-2.4h1.86V19.65Z"/><path class="cls-1" d="M78,33.38,79.59,33V25.17l-1.82-.35V22.76h5l.15,1.85a4,4,0,0,1,1.15-1.54,2.61,2.61,0,0,1,1.63-.55c.18,0,.37,0,.57,0a3.8,3.8,0,0,1,.49.1l-.36,3.12-1.41,0a2.35,2.35,0,0,0-1.24.3,1.84,1.84,0,0,0-.75.83V33l1.64.35v2.06H78Z"/><path class="cls-1" d="M95.63,35.44c-.09-.22-.17-.43-.24-.65a5.63,5.63,0,0,1-.17-.68,4.65,4.65,0,0,1-1.48,1.14,4.42,4.42,0,0,1-2,.43,4.22,4.22,0,0,1-3-1,3.59,3.59,0,0,1-1.09-2.76,3.13,3.13,0,0,1,1.43-2.76,7.52,7.52,0,0,1,4.19-1h1.75V26.94a1.89,1.89,0,0,0-.53-1.42A2.2,2.2,0,0,0,93,25a3.65,3.65,0,0,0-1,.13,3,3,0,0,0-.74.32L91,26.83H88.39V24A9.37,9.37,0,0,1,90.55,23a7.8,7.8,0,0,1,2.65-.44A6,6,0,0,1,97,23.68,3.92,3.92,0,0,1,98.49,27V32.2c0,.2,0,.38,0,.55a3.74,3.74,0,0,0,0,.49l1,.14v2.06Zm-3-2.29a3,3,0,0,0,1.4-.33,2.85,2.85,0,0,0,1-.84V30H93.31a2.4,2.4,0,0,0-1.65.51,1.62,1.62,0,0,0-.56,1.23,1.3,1.3,0,0,0,.41,1A1.73,1.73,0,0,0,92.67,33.15Z"/><path class="cls-1" d="M106.7,33.06a2,2,0,0,0,1.46-.54,1.87,1.87,0,0,0,.55-1.42h3.09l0,.07a4,4,0,0,1-1.44,3.22,6.11,6.11,0,0,1-8.08-.5,6.86,6.86,0,0,1-1.53-4.61v-.35a6.68,6.68,0,0,1,1.58-4.6,5.61,5.61,0,0,1,4.49-1.81,7.66,7.66,0,0,1,2.75.46,5.28,5.28,0,0,1,2,1.29l0,3.38h-2.78l-.56-2a2.45,2.45,0,0,0-.64-.37,2.48,2.48,0,0,0-.85-.14,2.16,2.16,0,0,0-2,1.05,5.48,5.48,0,0,0-.6,2.72v.35a5.8,5.8,0,0,0,.55,2.74A2,2,0,0,0,106.7,33.06Zm1,2.33-.13.67a2.34,2.34,0,0,1,1.26.61,1.88,1.88,0,0,1,.5,1.41,2.34,2.34,0,0,1-1.07,2,5.27,5.27,0,0,1-3,.75L105.13,39a1.64,1.64,0,0,0,.94-.24.81.81,0,0,0,.36-.73.71.71,0,0,0-.38-.68,3.8,3.8,0,0,0-1.29-.25l.37-1.66Z"/><path class="cls-1" d="M121.46,35.44c-.09-.22-.17-.43-.25-.65a5.58,5.58,0,0,1-.16-.68,4.77,4.77,0,0,1-1.48,1.14,4.42,4.42,0,0,1-2,.43,4.22,4.22,0,0,1-3-1,3.59,3.59,0,0,1-1.09-2.76A3.13,3.13,0,0,1,115,29.15a7.52,7.52,0,0,1,4.19-1h1.75V26.94a1.89,1.89,0,0,0-.53-1.42,2.2,2.2,0,0,0-1.56-.5,3.65,3.65,0,0,0-1,.13,2.87,2.87,0,0,0-.74.32l-.22,1.36h-2.58V24A9.37,9.37,0,0,1,116.38,23a7.78,7.78,0,0,1,2.64-.44,6,6,0,0,1,3.83,1.16A3.92,3.92,0,0,1,124.32,27V32.2c0,.2,0,.38,0,.55a2.56,2.56,0,0,0,0,.49l1,.14v2.06Zm2.18-17.72a2.75,2.75,0,0,1-.7,1.91,2.23,2.23,0,0,1-1.76.79,4.29,4.29,0,0,1-1.86-.51,4.06,4.06,0,0,0-1.64-.51.84.84,0,0,0-.71.39,1.45,1.45,0,0,0-.29.9l-1.82-.49a2.87,2.87,0,0,1,.7-1.91,2.2,2.2,0,0,1,1.75-.82,4.66,4.66,0,0,1,1.78.51,4.57,4.57,0,0,0,1.73.51.89.89,0,0,0,.71-.37,1.49,1.49,0,0,0,.29-.93ZM118.5,33.15a3,3,0,0,0,1.4-.33,3,3,0,0,0,1-.84V30h-1.75a2.36,2.36,0,0,0-1.65.51,1.58,1.58,0,0,0-.56,1.23,1.27,1.27,0,0,0,.41,1A1.71,1.71,0,0,0,118.5,33.15Z"/><path class="cls-1" d="M126.57,29a6.8,6.8,0,0,1,1.59-4.65,6.24,6.24,0,0,1,8.79,0A6.76,6.76,0,0,1,138.54,29v.24A6.77,6.77,0,0,1,137,33.88a6.27,6.27,0,0,1-8.79,0,6.77,6.77,0,0,1-1.59-4.66Zm3.42.24A5.6,5.6,0,0,0,130.6,32a2.11,2.11,0,0,0,2,1.05A2.08,2.08,0,0,0,134.51,32a5.48,5.48,0,0,0,.62-2.78V29a5.4,5.4,0,0,0-.63-2.76,2.32,2.32,0,0,0-3.9,0A5.61,5.61,0,0,0,130,29Z"/><path class="cls-1" d="M211.61,18.37a7,7,0,0,1,5.16,2,6.89,6.89,0,0,1,2,5.13v2.82a6.86,6.86,0,0,1-2,5.13,7.08,7.08,0,0,1-5.16,2h-7.67V33.38l1.82-.35V20.79l-1.82-.35V18.37h7.67ZM209.18,21v11.8h2.26a3.54,3.54,0,0,0,2.88-1.24,4.86,4.86,0,0,0,1-3.25V25.47a4.81,4.81,0,0,0-1-3.22A3.54,3.54,0,0,0,211.44,21Z"/><path class="cls-1" d="M226.63,35.68a5.7,5.7,0,0,1-4.39-1.76,6.29,6.29,0,0,1-1.64-4.46V29a6.92,6.92,0,0,1,1.56-4.65,5.78,5.78,0,0,1,8.15-.27,6,6,0,0,1,1.41,4.18v1.87h-7.57l0,.07a3.28,3.28,0,0,0,.84,2.06,2.6,2.6,0,0,0,2,.81,6.68,6.68,0,0,0,1.89-.23,8.56,8.56,0,0,0,1.64-.72l.92,2.11a6.76,6.76,0,0,1-2,1A8.68,8.68,0,0,1,226.63,35.68Zm-.31-10.52a1.79,1.79,0,0,0-1.5.72,3.85,3.85,0,0,0-.68,1.91l0,.06h4.19v-.3a2.73,2.73,0,0,0-.51-1.74A1.84,1.84,0,0,0,226.32,25.16Z"/><path class="cls-1" d="M239.29,33.06a2,2,0,0,0,1.47-.54,1.87,1.87,0,0,0,.55-1.42h3.09l0,.07A4,4,0,0,1,243,34.39a6.11,6.11,0,0,1-8.08-.5,6.86,6.86,0,0,1-1.53-4.61v-.35a6.72,6.72,0,0,1,1.57-4.6,5.63,5.63,0,0,1,4.5-1.81,7.66,7.66,0,0,1,2.75.46,5.36,5.36,0,0,1,2,1.29l0,3.38h-2.78l-.56-2a2.62,2.62,0,0,0-.64-.37,2.48,2.48,0,0,0-.85-.14,2.16,2.16,0,0,0-2.05,1.05,5.48,5.48,0,0,0-.6,2.72v.35a5.8,5.8,0,0,0,.55,2.74A2,2,0,0,0,239.29,33.06Z"/><path class="cls-1" d="M246,29a6.79,6.79,0,0,1,1.58-4.65,6.24,6.24,0,0,1,8.79,0A6.76,6.76,0,0,1,258,29v.24a6.77,6.77,0,0,1-1.59,4.66,6.27,6.27,0,0,1-8.79,0A6.77,6.77,0,0,1,246,29.22Zm3.42.24A5.5,5.5,0,0,0,250,32a2.1,2.1,0,0,0,2,1.05A2.06,2.06,0,0,0,253.92,32a5.38,5.38,0,0,0,.62-2.78V29a5.5,5.5,0,0,0-.62-2.76,2.1,2.1,0,0,0-2-1.06A2.06,2.06,0,0,0,250,26.22a5.5,5.5,0,0,0-.61,2.76Z"/><path class="cls-1" d="M259,24.82V22.76h5l.14,1.67A4.29,4.29,0,0,1,265.71,23a4.47,4.47,0,0,1,2.13-.5,3.89,3.89,0,0,1,2.09.54,3.32,3.32,0,0,1,1.31,1.63,4.39,4.39,0,0,1,1.52-1.59,4.09,4.09,0,0,1,2.21-.58,3.62,3.62,0,0,1,2.95,1.3A6,6,0,0,1,279,27.76V33l1.65.35v2.06h-6.55V33.38l1.48-.35V27.75a3.25,3.25,0,0,0-.47-2,1.73,1.73,0,0,0-1.4-.56,2.46,2.46,0,0,0-1.26.32,2.54,2.54,0,0,0-.85.9,3.79,3.79,0,0,0,0,.38c0,.11,0,.21,0,.32V33l1.38.35v2.06h-6.18V33.38l1.39-.35V27.75a3.25,3.25,0,0,0-.47-2,1.72,1.72,0,0,0-1.41-.58,2.6,2.6,0,0,0-1.21.27,2.27,2.27,0,0,0-.86.74V33l1.48.35v2.06h-6.54V33.38l1.65-.35V25.17Z"/><path class="cls-1" d="M281.51,24.82V22.76h5l.17,1.47A4,4,0,0,1,288,23a3.59,3.59,0,0,1,1.82-.45,4.22,4.22,0,0,1,3.66,1.84,8.2,8.2,0,0,1,1.3,4.84v.25a7.26,7.26,0,0,1-1.3,4.52,4.31,4.31,0,0,1-3.63,1.71,4,4,0,0,1-1.77-.37,3.54,3.54,0,0,1-1.33-1.08V37.9l1.66.35v2.06h-6.72V38.25l1.65-.35V25.17Zm9.84,4.38a6.17,6.17,0,0,0-.6-2.91,2,2,0,0,0-1.83-1.11,2.63,2.63,0,0,0-1.32.32,2.26,2.26,0,0,0-.86.9V32a2.19,2.19,0,0,0,.86.82,3.06,3.06,0,0,0,1.35.28,2,2,0,0,0,1.82-1,5.05,5.05,0,0,0,.58-2.63Z"/><path class="cls-1" d="M296.29,29a6.8,6.8,0,0,1,1.59-4.65,6.24,6.24,0,0,1,8.79,0A6.76,6.76,0,0,1,308.26,29v.24a6.77,6.77,0,0,1-1.59,4.66,6.27,6.27,0,0,1-8.79,0,6.77,6.77,0,0,1-1.59-4.66Zm3.43.24a5.5,5.5,0,0,0,.61,2.79,2.09,2.09,0,0,0,2,1.05A2.07,2.07,0,0,0,304.23,32a5.48,5.48,0,0,0,.62-2.78V29a5.5,5.5,0,0,0-.62-2.76,2.11,2.11,0,0,0-2-1.06,2.06,2.06,0,0,0-1.94,1.06,5.5,5.5,0,0,0-.61,2.76Z"/><path class="cls-1" d="M320.09,27.12H317.8l-.37-1.59a3.15,3.15,0,0,0-.88-.47,3.7,3.7,0,0,0-1.18-.18,2.29,2.29,0,0,0-1.43.4,1.23,1.23,0,0,0-.52,1,1.13,1.13,0,0,0,.5,1,5.43,5.43,0,0,0,2,.67,8.37,8.37,0,0,1,3.5,1.38,3,3,0,0,1,1.13,2.5,3.33,3.33,0,0,1-1.47,2.8,6.38,6.38,0,0,1-3.87,1.08,8,8,0,0,1-2.69-.43A6.7,6.7,0,0,1,310.36,34l0-2.85h2.39l.47,1.65a1.83,1.83,0,0,0,.83.38,4.42,4.42,0,0,0,1.1.13A2.78,2.78,0,0,0,316.7,33a1.17,1.17,0,0,0,.55-1,1.21,1.21,0,0,0-.55-1,5.94,5.94,0,0,0-2-.73,8,8,0,0,1-3.38-1.35,2.94,2.94,0,0,1-1.14-2.44,3.52,3.52,0,0,1,1.31-2.75,5.47,5.47,0,0,1,3.74-1.16,9.8,9.8,0,0,1,2.79.4,6.05,6.05,0,0,1,2.07,1Z"/><path class="cls-1" d="M322,33.38l1.66-.35V25.17l-1.83-.35V22.76h5.25V33l1.64.35v2.06H322Zm5.08-13.66h-3.42V17.15h3.42Z"/><path class="cls-1" d="M335.79,33.06a2,2,0,0,0,1.46-.54,1.87,1.87,0,0,0,.55-1.42h3.1l0,.07a4,4,0,0,1-1.44,3.22,6.1,6.1,0,0,1-8.07-.5,6.81,6.81,0,0,1-1.54-4.61v-.35a6.73,6.73,0,0,1,1.58-4.6A5.63,5.63,0,0,1,336,22.52a7.66,7.66,0,0,1,2.75.46,5.28,5.28,0,0,1,2,1.29l0,3.38H338l-.56-2a2.38,2.38,0,0,0-.63-.37,2.54,2.54,0,0,0-.86-.14,2.16,2.16,0,0,0-2.05,1.05,5.48,5.48,0,0,0-.6,2.72v.35a5.92,5.92,0,0,0,.55,2.74A2,2,0,0,0,335.79,33.06Zm1,2.33-.13.67a2.34,2.34,0,0,1,1.26.61,1.88,1.88,0,0,1,.5,1.41,2.34,2.34,0,0,1-1.07,2,5.27,5.27,0,0,1-3,.75L334.22,39a1.69,1.69,0,0,0,.95-.24.83.83,0,0,0,.35-.73.71.71,0,0,0-.38-.68,3.8,3.8,0,0,0-1.29-.25l.37-1.66Z"/><path class="cls-1" d="M350.55,35.44c-.09-.22-.17-.43-.24-.65a5.63,5.63,0,0,1-.17-.68,4.65,4.65,0,0,1-1.48,1.14,4.42,4.42,0,0,1-2,.43,4.22,4.22,0,0,1-3-1,3.59,3.59,0,0,1-1.09-2.76A3.13,3.13,0,0,1,344,29.15a7.52,7.52,0,0,1,4.19-1H350V26.94a1.89,1.89,0,0,0-.53-1.42,2.2,2.2,0,0,0-1.56-.5,3.65,3.65,0,0,0-1,.13,2.87,2.87,0,0,0-.74.32l-.22,1.36h-2.58V24A9.37,9.37,0,0,1,345.47,23a7.78,7.78,0,0,1,2.64-.44,6,6,0,0,1,3.83,1.16A3.92,3.92,0,0,1,353.41,27V32.2c0,.2,0,.38,0,.55a2.56,2.56,0,0,0,0,.49l1,.14v2.06Zm2.18-17.72a2.75,2.75,0,0,1-.7,1.91,2.23,2.23,0,0,1-1.76.79,4.29,4.29,0,0,1-1.86-.51,4.06,4.06,0,0,0-1.64-.51.86.86,0,0,0-.71.39,1.45,1.45,0,0,0-.29.9L344,20.2a2.87,2.87,0,0,1,.7-1.91,2.2,2.2,0,0,1,1.75-.82,4.66,4.66,0,0,1,1.78.51,4.57,4.57,0,0,0,1.73.51.89.89,0,0,0,.71-.37,1.44,1.44,0,0,0,.3-.93Zm-5.14,15.43a3,3,0,0,0,1.4-.33,2.85,2.85,0,0,0,1-.84V30h-1.75a2.38,2.38,0,0,0-1.65.51,1.58,1.58,0,0,0-.56,1.23,1.3,1.3,0,0,0,.41,1A1.71,1.71,0,0,0,347.59,33.15Z"/><path class="cls-1" d="M355.66,29a6.8,6.8,0,0,1,1.59-4.65,6.24,6.24,0,0,1,8.79,0A6.76,6.76,0,0,1,367.63,29v.24A6.77,6.77,0,0,1,366,33.88a6.27,6.27,0,0,1-8.79,0,6.77,6.77,0,0,1-1.59-4.66Zm3.42.24a5.6,5.6,0,0,0,.61,2.79,2.12,2.12,0,0,0,2,1.05A2.08,2.08,0,0,0,363.6,32a5.48,5.48,0,0,0,.62-2.78V29a5.4,5.4,0,0,0-.63-2.76,2.32,2.32,0,0,0-3.9,0,5.61,5.61,0,0,0-.61,2.76Z"/><path class="cls-1" d="M405.15,1.22a7.06,7.06,0,0,1,4.56,1.33,4.46,4.46,0,0,1,1.65,3.67,3.7,3.7,0,0,1-.69,2.24,4.8,4.8,0,0,1-2,1.54,3.66,3.66,0,0,1,2.18,1.48,4.7,4.7,0,0,1,.66,2.57v.87a1.47,1.47,0,0,0,.22.87,1,1,0,0,0,.74.37l.42.06v2.06h-1.77a2.77,2.77,0,0,1-2.35-.9,3.79,3.79,0,0,1-.68-2.33v-1a2.77,2.77,0,0,0-.66-2,2.54,2.54,0,0,0-1.87-.74h-2.8v4.5l1.82.35v2.05h-7.06V16.23l1.81-.35V3.63l-1.81-.35V1.22h7.66Zm-2.42,7.52h2.36a3.23,3.23,0,0,0,2.15-.61A2.18,2.18,0,0,0,408,6.38a2.42,2.42,0,0,0-.71-1.84,2.88,2.88,0,0,0-2.09-.68h-2.42Z"/><path class="cls-1" d="M420.14,18.53a5.7,5.7,0,0,1-4.38-1.76,6.26,6.26,0,0,1-1.64-4.47v-.46a6.92,6.92,0,0,1,1.55-4.66,5.81,5.81,0,0,1,8.15-.27,6,6,0,0,1,1.42,4.19V13h-7.57l0,.07a3.37,3.37,0,0,0,.84,2.06,2.61,2.61,0,0,0,2,.81,6.33,6.33,0,0,0,1.89-.23A8.3,8.3,0,0,0,424,15l.93,2.11a6.83,6.83,0,0,1-2,1.05A8.68,8.68,0,0,1,420.14,18.53ZM419.84,8a1.78,1.78,0,0,0-1.5.73,3.69,3.69,0,0,0-.68,1.91l0,.06h4.2v-.31a2.77,2.77,0,0,0-.51-1.74A1.86,1.86,0,0,0,419.84,8Z"/><path class="cls-1" d="M432.81,15.9a2,2,0,0,0,1.46-.53,1.88,1.88,0,0,0,.55-1.42h3.1l0,.07a4,4,0,0,1-1.44,3.21,6.07,6.07,0,0,1-8.07-.5,6.79,6.79,0,0,1-1.54-4.6v-.35a6.77,6.77,0,0,1,1.58-4.61A5.65,5.65,0,0,1,433,5.37a8,8,0,0,1,2.76.45,5.57,5.57,0,0,1,2,1.29l.05,3.39H435l-.56-2a2.14,2.14,0,0,0-.63-.37A2.31,2.31,0,0,0,433,8a2.17,2.17,0,0,0-2.05,1.06,5.45,5.45,0,0,0-.6,2.72v.35a5.85,5.85,0,0,0,.56,2.74A2,2,0,0,0,432.81,15.9Z"/><path class="cls-1" d="M439.5,11.82a6.75,6.75,0,0,1,1.59-4.64,6.25,6.25,0,0,1,8.79,0,6.79,6.79,0,0,1,1.58,4.65v.25a6.77,6.77,0,0,1-1.58,4.66,6.27,6.27,0,0,1-8.79,0,6.77,6.77,0,0,1-1.59-4.66Zm3.42.25a5.56,5.56,0,0,0,.61,2.78,2.34,2.34,0,0,0,3.91,0,5.51,5.51,0,0,0,.61-2.78v-.25a5.36,5.36,0,0,0-.62-2.75,2.31,2.31,0,0,0-3.9,0,5.57,5.57,0,0,0-.61,2.75Z"/><path class="cls-1" d="M452.77,16.23l1.64-.35V8l-1.82-.36V5.6h5l.16,1.82a4.65,4.65,0,0,1,1.55-1.51,4.06,4.06,0,0,1,2.08-.54,3.83,3.83,0,0,1,3,1.2,5.59,5.59,0,0,1,1.08,3.79v5.52l1.64.35v2.05h-6.54V16.23l1.46-.35V10.37a2.59,2.59,0,0,0-.51-1.81A2.12,2.12,0,0,0,460,8a2.7,2.7,0,0,0-1.22.27,2.6,2.6,0,0,0-.9.78v6.8l1.38.35v2.05h-6.44Z"/><path class="cls-1" d="M468,16.23l1.65-.35V2.41l-1.83-.35V0h5.24V7.22a4.36,4.36,0,0,1,1.47-1.37,4.25,4.25,0,0,1,5,.84,6.09,6.09,0,0,1,1.13,4.07v5.12l1.64.35v2.05H475.8V16.23l1.48-.35V10.73a3.25,3.25,0,0,0-.52-2.09A1.93,1.93,0,0,0,475.21,8a2.71,2.71,0,0,0-1.25.26,2.44,2.44,0,0,0-.9.72v6.87l1.48.35v2.05H468Z"/><path class="cls-1" d="M489.4,18.53A5.7,5.7,0,0,1,485,16.77a6.26,6.26,0,0,1-1.64-4.47v-.46a6.92,6.92,0,0,1,1.55-4.66,5.8,5.8,0,0,1,8.15-.27,6,6,0,0,1,1.42,4.19V13h-7.57l0,.07a3.26,3.26,0,0,0,.84,2.06,2.61,2.61,0,0,0,2,.81,6.33,6.33,0,0,0,1.89-.23,8.3,8.3,0,0,0,1.64-.72l.92,2.11a6.77,6.77,0,0,1-2,1.05A8.68,8.68,0,0,1,489.4,18.53ZM489.09,8a1.8,1.8,0,0,0-1.5.73,3.87,3.87,0,0,0-.68,1.91l0,.06h4.19v-.31a2.77,2.77,0,0,0-.51-1.74A1.83,1.83,0,0,0,489.09,8Z"/><path class="cls-1" d="M502.07,15.9a2,2,0,0,0,1.46-.53,1.88,1.88,0,0,0,.55-1.42h3.1l0,.07a4,4,0,0,1-1.44,3.21,6.07,6.07,0,0,1-8.07-.5,6.79,6.79,0,0,1-1.54-4.6v-.35a6.77,6.77,0,0,1,1.58-4.61,5.65,5.65,0,0,1,4.49-1.8,7.89,7.89,0,0,1,2.75.45,5.53,5.53,0,0,1,2,1.29l.05,3.39h-2.78l-.56-2a2.14,2.14,0,0,0-.63-.37,2.31,2.31,0,0,0-.86-.15,2.17,2.17,0,0,0-2.05,1.06,5.45,5.45,0,0,0-.6,2.72v.35a6,6,0,0,0,.55,2.74A2,2,0,0,0,502.07,15.9Z"/><path class="cls-1" d="M508.65,16.23l1.65-.35V8l-1.82-.36V5.6h5.25V15.88l1.64.35v2.05h-6.72Zm5.08-13.66H510.3V0h3.43Z"/><path class="cls-1" d="M516.09,7.66V5.6h5l.14,1.68a4.13,4.13,0,0,1,1.53-1.41,4.29,4.29,0,0,1,2.12-.5,3.87,3.87,0,0,1,2.09.54,3.27,3.27,0,0,1,1.31,1.63,4.36,4.36,0,0,1,1.53-1.6,4.14,4.14,0,0,1,2.2-.57,3.66,3.66,0,0,1,3,1.29,6.09,6.09,0,0,1,1.08,3.95v5.27l1.65.35v2.05h-6.55V16.23l1.48-.35V10.59a3.2,3.2,0,0,0-.47-2A1.69,1.69,0,0,0,530.78,8a2.32,2.32,0,0,0-1.26.32,2.24,2.24,0,0,0-.85.9c0,.14,0,.27,0,.38s0,.21,0,.32v5.93l1.38.35v2.05H523.9V16.23l1.38-.35V10.59a3.14,3.14,0,0,0-.47-2,1.68,1.68,0,0,0-1.4-.58,2.77,2.77,0,0,0-1.22.26,2.38,2.38,0,0,0-.86.75v6.84l1.48.35v2.05h-6.54V16.23l1.65-.35V8Z"/><path class="cls-1" d="M544.77,18.53a5.7,5.7,0,0,1-4.38-1.76,6.26,6.26,0,0,1-1.64-4.47v-.46a6.92,6.92,0,0,1,1.55-4.66,5.8,5.8,0,0,1,8.15-.27,6,6,0,0,1,1.42,4.19V13H542.3l0,.07a3.37,3.37,0,0,0,.84,2.06,2.61,2.61,0,0,0,2,.81,6.33,6.33,0,0,0,1.89-.23,8.3,8.3,0,0,0,1.64-.72l.93,2.11a7,7,0,0,1-2,1.05A8.68,8.68,0,0,1,544.77,18.53ZM544.46,8a1.8,1.8,0,0,0-1.5.73,3.77,3.77,0,0,0-.67,1.91l0,.06h4.2v-.31A2.77,2.77,0,0,0,546,8.65,1.86,1.86,0,0,0,544.46,8Z"/><path class="cls-1" d="M551.3,16.23l1.64-.35V8l-1.82-.36V5.6h5l.15,1.82a4.59,4.59,0,0,1,1.56-1.51,4,4,0,0,1,2.07-.54,3.83,3.83,0,0,1,3,1.2A5.59,5.59,0,0,1,564,10.36v5.52l1.64.35v2.05h-6.54V16.23l1.46-.35V10.37A2.59,2.59,0,0,0,560,8.56,2.09,2.09,0,0,0,558.48,8a2.7,2.7,0,0,0-1.22.27,2.6,2.6,0,0,0-.9.78v6.8l1.38.35v2.05H551.3Z"/><path class="cls-1" d="M571.77,2.5V5.6H574V8h-2.23v6.46a1.54,1.54,0,0,0,.3,1.06,1.1,1.1,0,0,0,.82.31,5.59,5.59,0,0,0,.62,0,5.2,5.2,0,0,0,.59-.1l.29,2.48a9.65,9.65,0,0,1-1.13.26,7.77,7.77,0,0,1-1.22.09,3.66,3.66,0,0,1-2.73-1,4.27,4.27,0,0,1-.95-3.08V8H566.5V5.6h1.86V2.5Z"/><path class="cls-1" d="M575.32,11.82a6.75,6.75,0,0,1,1.59-4.64,6.25,6.25,0,0,1,8.79,0,6.8,6.8,0,0,1,1.59,4.65v.25a6.77,6.77,0,0,1-1.59,4.66,6.27,6.27,0,0,1-8.79,0,6.77,6.77,0,0,1-1.59-4.66Zm3.42.25a5.56,5.56,0,0,0,.61,2.78,2.34,2.34,0,0,0,3.91,0,5.5,5.5,0,0,0,.62-2.78v-.25a5.36,5.36,0,0,0-.63-2.75,2.31,2.31,0,0,0-3.9,0,5.57,5.57,0,0,0-.61,2.75Z"/><path class="cls-1" d="M439.8,45.54a4.23,4.23,0,0,1-1.41,1.33,3.72,3.72,0,0,1-1.86.46,4.3,4.3,0,0,1-3.64-1.71,7.34,7.34,0,0,1-1.29-4.53v-.24A8.18,8.18,0,0,1,432.9,36a4.19,4.19,0,0,1,3.65-1.84,3.54,3.54,0,0,1,1.71.41,4.16,4.16,0,0,1,1.34,1.18V31.21l-1.83-.35V28.8H443V44.68l1.64.35v2h-4.6ZM435,41.09a5.21,5.21,0,0,0,.55,2.62,2,2,0,0,0,1.83,1,2.58,2.58,0,0,0,1.3-.31,2.37,2.37,0,0,0,.9-.88V38.11a2.5,2.5,0,0,0-.9-1,2.41,2.41,0,0,0-1.28-.33,1.92,1.92,0,0,0-1.83,1.11,6.38,6.38,0,0,0-.57,2.91Z"/><path class="cls-1" d="M451.82,47.33a5.7,5.7,0,0,1-4.38-1.76,6.29,6.29,0,0,1-1.64-4.46v-.47A7,7,0,0,1,447.35,36a5.19,5.19,0,0,1,4.17-1.81,5.12,5.12,0,0,1,4,1.54,6,6,0,0,1,1.42,4.19v1.86h-7.57l0,.07a3.29,3.29,0,0,0,.83,2.06,2.62,2.62,0,0,0,2,.81,6.31,6.31,0,0,0,1.88-.23,8.3,8.3,0,0,0,1.64-.72l.93,2.11a6.55,6.55,0,0,1-2,1A8.74,8.74,0,0,1,451.82,47.33Zm-.3-10.53a1.78,1.78,0,0,0-1.5.73,3.72,3.72,0,0,0-.68,1.91l0,.06h4.2v-.3a2.73,2.73,0,0,0-.51-1.74A1.82,1.82,0,0,0,451.52,36.8Z"/><path class="cls-1" d="M464.16,36.46V34.4h5l.17,1.48a4,4,0,0,1,1.34-1.27,3.75,3.75,0,0,1,1.83-.44A4.22,4.22,0,0,1,476.13,36a8.25,8.25,0,0,1,1.3,4.84v.24a7.34,7.34,0,0,1-1.3,4.53,4.31,4.31,0,0,1-3.64,1.71,4,4,0,0,1-1.77-.37,3.79,3.79,0,0,1-1.32-1.08v3.66l1.65.35V52h-6.71V49.89l1.65-.35V36.82ZM474,40.85a6.11,6.11,0,0,0-.6-2.91,2,2,0,0,0-1.83-1.11,2.6,2.6,0,0,0-1.32.31,2.36,2.36,0,0,0-.86.91V43.6a2.12,2.12,0,0,0,.86.82,2.89,2.89,0,0,0,1.34.28,2,2,0,0,0,1.83-1,5.22,5.22,0,0,0,.58-2.64Z"/><path class="cls-1" d="M487,47.08a5.12,5.12,0,0,1-.25-.65,4.07,4.07,0,0,1-.16-.67,4.63,4.63,0,0,1-1.49,1.13,4.43,4.43,0,0,1-2,.44,4.15,4.15,0,0,1-2.95-1,3.56,3.56,0,0,1-1.1-2.76,3.15,3.15,0,0,1,1.43-2.75,7.45,7.45,0,0,1,4.2-1h1.74V38.59a1.83,1.83,0,0,0-.53-1.42,2.15,2.15,0,0,0-1.55-.51,3.71,3.71,0,0,0-1.05.14,3,3,0,0,0-.74.32l-.22,1.36h-2.58l0-2.81A9.59,9.59,0,0,1,482,34.6a7.7,7.7,0,0,1,2.64-.43,6,6,0,0,1,3.82,1.15,3.94,3.94,0,0,1,1.47,3.29v5.24c0,.19,0,.38,0,.55a3.89,3.89,0,0,0,0,.49l1,.14v2Zm-3-2.28a2.88,2.88,0,0,0,1.41-.34,2.69,2.69,0,0,0,1-.83V41.69h-1.74a2.41,2.41,0,0,0-1.66.51,1.62,1.62,0,0,0-.56,1.23,1.24,1.24,0,0,0,.42,1A1.64,1.64,0,0,0,484.06,44.8Z"/><path class="cls-1" d="M500.38,45.54A4.05,4.05,0,0,1,499,46.87a3.65,3.65,0,0,1-1.85.46,4.29,4.29,0,0,1-3.64-1.71,7.27,7.27,0,0,1-1.3-4.53v-.24a8.25,8.25,0,0,1,1.3-4.84,4.22,4.22,0,0,1,3.66-1.84,3.6,3.6,0,0,1,1.71.41,4.26,4.26,0,0,1,1.34,1.18V31.21l-1.83-.35V28.8h5.25V44.68l1.64.35v2h-4.61Zm-4.78-4.45a5.2,5.2,0,0,0,.56,2.62,1.94,1.94,0,0,0,1.82,1,2.55,2.55,0,0,0,1.3-.31,2.4,2.4,0,0,0,.91-.88V38.11a2.66,2.66,0,0,0-.9-1,2.41,2.41,0,0,0-1.28-.33,1.92,1.92,0,0,0-1.83,1.11,6.38,6.38,0,0,0-.58,2.91Z"/><path class="cls-1" d="M506.6,45l1.64-.35V36.82l-1.82-.36V34.4h5l.16,1.85a4,4,0,0,1,1.14-1.53,2.57,2.57,0,0,1,1.63-.55,3.82,3.82,0,0,1,.57,0,3.65,3.65,0,0,1,.5.1l-.36,3.12-1.41,0a2.45,2.45,0,0,0-1.24.29,1.91,1.91,0,0,0-.75.84v6.16l1.64.35v2h-6.7Z"/><path class="cls-1" d="M516.21,40.63A6.78,6.78,0,0,1,517.79,36a6.25,6.25,0,0,1,8.79,0,6.81,6.81,0,0,1,1.59,4.66v.24a6.77,6.77,0,0,1-1.59,4.66,6.27,6.27,0,0,1-8.79,0,6.77,6.77,0,0,1-1.58-4.66Zm10.25-11.29a2.79,2.79,0,0,1-.7,1.92,2.26,2.26,0,0,1-1.76.79,4.29,4.29,0,0,1-1.86-.51,4,4,0,0,0-1.65-.51.83.83,0,0,0-.7.38,1.4,1.4,0,0,0-.29.91l-1.82-.5a2.82,2.82,0,0,1,.7-1.91,2.22,2.22,0,0,1,1.75-.82,4.66,4.66,0,0,1,1.78.51,4.58,4.58,0,0,0,1.72.51.87.87,0,0,0,.71-.37,1.44,1.44,0,0,0,.3-.93Zm-6.83,11.53a5.43,5.43,0,0,0,.61,2.78,2.1,2.1,0,0,0,2,1.05,2.07,2.07,0,0,0,1.93-1.05,5.48,5.48,0,0,0,.62-2.78v-.24a5.48,5.48,0,0,0-.62-2.76,2.12,2.12,0,0,0-2-1.07,2.07,2.07,0,0,0-1.94,1.07,5.48,5.48,0,0,0-.61,2.76Z"/><path class="cls-1" d="M535.73,47.33a5.7,5.7,0,0,1-4.38-1.76,6.25,6.25,0,0,1-1.64-4.46v-.47A6.92,6.92,0,0,1,531.26,36a5.8,5.8,0,0,1,8.15-.27,6,6,0,0,1,1.42,4.19v1.86h-7.57l0,.07a3.29,3.29,0,0,0,.84,2.06,2.61,2.61,0,0,0,2,.81,6.33,6.33,0,0,0,1.89-.23,8.3,8.3,0,0,0,1.64-.72l.93,2.11a6.72,6.72,0,0,1-2,1A8.68,8.68,0,0,1,535.73,47.33Zm-.31-10.53a1.8,1.8,0,0,0-1.5.73,3.91,3.91,0,0,0-.68,1.91l0,.06h4.19v-.3a2.73,2.73,0,0,0-.51-1.74A1.81,1.81,0,0,0,535.42,36.8Z"/><path class="cls-1" d="M552.79,38.76h-2.3l-.36-1.58a3,3,0,0,0-.88-.47,3.69,3.69,0,0,0-1.18-.19,2.29,2.29,0,0,0-1.43.41,1.24,1.24,0,0,0-.53,1,1.17,1.17,0,0,0,.51,1,5.29,5.29,0,0,0,2,.67A8.06,8.06,0,0,1,552.12,41a3,3,0,0,1,1.14,2.5,3.32,3.32,0,0,1-1.47,2.79,6.32,6.32,0,0,1-3.87,1.09,8,8,0,0,1-2.69-.43,6.85,6.85,0,0,1-2.18-1.22l0-2.85h2.39l.47,1.65a1.94,1.94,0,0,0,.83.38,4.94,4.94,0,0,0,1.1.12,2.79,2.79,0,0,0,1.59-.37,1.18,1.18,0,0,0,0-2,5.4,5.4,0,0,0-2-.73A8.22,8.22,0,0,1,544,40.54a3,3,0,0,1-1.14-2.45,3.55,3.55,0,0,1,1.31-2.74,5.51,5.51,0,0,1,3.74-1.16,9.48,9.48,0,0,1,2.8.4,6.05,6.05,0,0,1,2.07,1Z"/><path class="cls-1" d="M627.92,34.66l1.22-.18,5.19-14.83h3.51L643,34.48l1.22.18v2.05H638.4V34.66l1.18-.21-.75-2.35H633.3l-.75,2.35,1.18.21v2.05h-5.81Zm6.19-5.08H638l-1.92-6H636Z"/><path class="cls-1" d="M645.05,20.49V18.43h5.25V34.31l1.66.35v2.05h-6.73V34.66l1.65-.35V20.84Z"/><path class="cls-1" d="M653.28,30.48a8.18,8.18,0,0,1,1.31-4.84,4.22,4.22,0,0,1,3.66-1.84,3.56,3.56,0,0,1,1.87.47,4.35,4.35,0,0,1,1.39,1.35l.24-1.59h3v12.3a5.27,5.27,0,0,1-1.58,4,6.06,6.06,0,0,1-4.33,1.49,8.91,8.91,0,0,1-2-.26,10.19,10.19,0,0,1-2-.72l.63-2.41a10.7,10.7,0,0,0,1.65.56,6.89,6.89,0,0,0,1.73.21,2.25,2.25,0,0,0,1.87-.77,3.21,3.21,0,0,0,.63-2.12v-.83A3.83,3.83,0,0,1,660,36.58a3.9,3.9,0,0,1-1.74.38,4.32,4.32,0,0,1-3.64-1.72,7.29,7.29,0,0,1-1.31-4.52Zm3.42.24a5.23,5.23,0,0,0,.56,2.62,2,2,0,0,0,1.83,1,2.81,2.81,0,0,0,1.33-.29,2.15,2.15,0,0,0,.88-.84V27.66a2.35,2.35,0,0,0-.88-.89,2.55,2.55,0,0,0-1.3-.31,1.94,1.94,0,0,0-1.84,1.11,6.38,6.38,0,0,0-.58,2.91Z"/><path class="cls-1" d="M666.78,30.25a6.75,6.75,0,0,1,1.59-4.64,6.25,6.25,0,0,1,8.79,0,6.76,6.76,0,0,1,1.59,4.65v.25a6.77,6.77,0,0,1-1.59,4.66,6.27,6.27,0,0,1-8.79,0,6.77,6.77,0,0,1-1.59-4.66Zm3.42.25a5.56,5.56,0,0,0,.61,2.78,2.34,2.34,0,0,0,3.91,0,5.5,5.5,0,0,0,.62-2.78v-.25a5.36,5.36,0,0,0-.63-2.75,2.31,2.31,0,0,0-3.9,0,5.57,5.57,0,0,0-.61,2.75Z"/><path class="cls-1" d="M680.49,34.66l1.64-.35V26.44l-1.81-.35V24h5l.15,1.85a4,4,0,0,1,1.15-1.53,2.55,2.55,0,0,1,1.63-.55,3.82,3.82,0,0,1,.57,0,2.75,2.75,0,0,1,.5.1L689,27.05l-1.4,0a2.49,2.49,0,0,0-1.25.29,2,2,0,0,0-.75.83v6.17l1.64.35v2.05h-6.7Z"/><path class="cls-1" d="M690.23,34.66l1.65-.35V26.44l-1.83-.35V24h5.25V34.31l1.64.35v2.05h-6.71ZM695.3,21h-3.42V18.43h3.42Z"/><path class="cls-1" d="M703.12,20.92V24h2.23v2.4h-2.23v6.46a1.5,1.5,0,0,0,.3,1,1.08,1.08,0,0,0,.83.32,5.53,5.53,0,0,0,.61,0,5.2,5.2,0,0,0,.59-.1l.3,2.47a8.51,8.51,0,0,1-1.14.27,7.77,7.77,0,0,1-1.22.09,3.62,3.62,0,0,1-2.72-1,4.24,4.24,0,0,1-1-3.08V26.43h-1.86V24h1.86V20.92Z"/><path class="cls-1" d="M706.62,26.09V24h5l.14,1.68a4.24,4.24,0,0,1,1.53-1.42,4.39,4.39,0,0,1,2.12-.49,4,4,0,0,1,2.09.53A3.31,3.31,0,0,1,718.82,26a4.33,4.33,0,0,1,1.53-1.59,4.14,4.14,0,0,1,2.2-.57,3.66,3.66,0,0,1,3,1.29A6.06,6.06,0,0,1,726.59,29v5.28l1.66.35v2.05h-6.56V34.66l1.48-.35V29a3.2,3.2,0,0,0-.47-2,1.69,1.69,0,0,0-1.39-.56,2.32,2.32,0,0,0-1.26.32,2.28,2.28,0,0,0-.85.89c0,.15,0,.28,0,.39s0,.21,0,.32v5.93l1.38.35v2.05h-6.17V34.66l1.38-.35V29a3.13,3.13,0,0,0-.47-2,1.68,1.68,0,0,0-1.4-.58,2.64,2.64,0,0,0-1.22.26,2.45,2.45,0,0,0-.86.74v6.85l1.48.35v2.05H706.8V34.66l1.65-.35V26.44Z"/><path class="cls-1" d="M729.23,30.25a6.75,6.75,0,0,1,1.59-4.64,6.25,6.25,0,0,1,8.79,0,6.76,6.76,0,0,1,1.58,4.65v.25a6.77,6.77,0,0,1-1.58,4.66,6.27,6.27,0,0,1-8.79,0,6.77,6.77,0,0,1-1.59-4.66Zm3.42.25a5.46,5.46,0,0,0,.61,2.78,2.34,2.34,0,0,0,3.91,0,5.51,5.51,0,0,0,.61-2.78v-.25a5.36,5.36,0,0,0-.62-2.75,2.31,2.31,0,0,0-3.9,0,5.46,5.46,0,0,0-.61,2.75Z"/><path class="cls-1" d="M753,28.39h-2.3l-.36-1.58a2.82,2.82,0,0,0-.88-.47,3.44,3.44,0,0,0-1.18-.19,2.29,2.29,0,0,0-1.43.41,1.23,1.23,0,0,0-.53,1,1.16,1.16,0,0,0,.5.95,5.39,5.39,0,0,0,2,.68,8.12,8.12,0,0,1,3.49,1.38,3,3,0,0,1,1.14,2.5A3.32,3.32,0,0,1,752,35.87,6.39,6.39,0,0,1,748.16,37a8.2,8.2,0,0,1-2.69-.43,7,7,0,0,1-2.18-1.23l0-2.84h2.39l.47,1.65a1.94,1.94,0,0,0,.83.38,4.94,4.94,0,0,0,1.1.12,2.81,2.81,0,0,0,1.59-.37,1.18,1.18,0,0,0,0-2,5.47,5.47,0,0,0-2-.73,8.37,8.37,0,0,1-3.38-1.35,3,3,0,0,1-1.14-2.45A3.57,3.57,0,0,1,744.39,25a5.49,5.49,0,0,1,3.74-1.15,9.48,9.48,0,0,1,2.8.4,5.71,5.71,0,0,1,2.07,1Z"/><ellipse class="cls-2" cx="389.09" cy="375.12" rx="389.09" ry="21.84"/><rect class="cls-3" x="39.31" y="89.35" width="90.92" height="248.06"/><rect class="cls-4" x="39.31" y="89.35" width="90.92" height="27"/><path class="cls-3" d="M133.81,65H35.72A22.18,22.18,0,0,0,13.53,87.15h0a22.18,22.18,0,0,0,22.19,22.18h98.12A22.18,22.18,0,0,0,156,87.15h0A22.23,22.23,0,0,0,133.81,65Z"/><path class="cls-4" d="M133.81,65H35.72a22.2,22.2,0,0,0-18.47,9.88h135A22.16,22.16,0,0,0,133.81,65Z"/><path class="cls-5" d="M18.57,87.12h0A22.18,22.18,0,0,1,40.75,64.93h-5A22.18,22.18,0,0,0,13.53,87.12h0A22.18,22.18,0,0,0,35.72,109.3h5A22.17,22.17,0,0,1,18.57,87.12Z"/><path class="cls-5" d="M133.81,65h-4A22.18,22.18,0,0,1,152,87.15h0a22.18,22.18,0,0,1-22.19,22.18h4A22.18,22.18,0,0,0,156,87.15h0A22.18,22.18,0,0,0,133.81,65Z"/><path class="cls-4" d="M117.79,92.84a9.4,9.4,0,0,1,9.38-9.37h2.36a7,7,0,0,1,7,7,3.56,3.56,0,1,1-7.11,0V89.32a2.27,2.27,0,0,0-4.54,0v1.16a8.06,8.06,0,0,0,16.12,0A11.52,11.52,0,0,0,129.5,79h-2.36a13.84,13.84,0,0,0-11.36,5.91c-.1,0-.19,0-.28,0H56A13.89,13.89,0,0,0,44.66,79H42.3A11.52,11.52,0,0,0,30.78,90.48a8.06,8.06,0,1,0,16.11,0V89.32a2.27,2.27,0,1,0-4.53,0v1.16a3.56,3.56,0,1,1-7.11,0,7,7,0,0,1,7-7h2.36A9.39,9.39,0,0,1,54,92.84a16.32,16.32,0,0,1-16.3,16.3H33.14a21.82,21.82,0,0,0,2.55.16H50.45a20.77,20.77,0,0,0,8.08-16.46,13.61,13.61,0,0,0-.44-3.46H113.7a14.08,14.08,0,0,0-.44,3.46,20.83,20.83,0,0,0,8.09,16.46h12.46a21.82,21.82,0,0,0,2.55-.16h-2.3A16.3,16.3,0,0,1,117.79,92.84Z"/><path class="cls-4" d="M55.54,120.13h0a4.13,4.13,0,0,0-4.12,4.12V337.38h8.25V124.25A4.12,4.12,0,0,0,55.54,120.13Z"/><path class="cls-4" d="M70.21,120.13h0a4.13,4.13,0,0,0-4.12,4.12V337.38h8.24V124.25A4.13,4.13,0,0,0,70.21,120.13Z"/><path class="cls-4" d="M84.87,120.13h0a4.13,4.13,0,0,0-4.12,4.12V337.38H89V124.25A4.14,4.14,0,0,0,84.87,120.13Z"/><path class="cls-4" d="M99.54,120.13h0a4.13,4.13,0,0,0-4.12,4.12V337.38h8.24V124.25A4.13,4.13,0,0,0,99.54,120.13Z"/><path class="cls-4" d="M114.17,120.13h0a4.13,4.13,0,0,0-4.12,4.12V337.38h8.25V124.25A4.1,4.1,0,0,0,114.17,120.13Z"/><rect class="cls-5" x="125.75" y="116.32" width="4.47" height="221.06"/><rect class="cls-5" x="39.31" y="116.32" width="4.47" height="221.06"/><rect class="cls-5" x="21.72" y="337.38" width="122.6" height="31.81"/><rect class="cls-3" x="21.72" y="337.38" width="114.87" height="31.81"/><rect class="cls-6" x="21.72" y="364.32" width="114.87" height="4.87"/><rect class="cls-7" x="21.72" y="337.38" width="114.87" height="4.87"/><rect class="cls-5" x="21.72" y="337.38" width="7.51" height="31.81"/><rect class="cls-3" x="242.57" y="89.35" width="90.92" height="248.06"/><rect class="cls-4" x="242.57" y="89.35" width="90.92" height="27"/><path class="cls-3" d="M337.08,65H239A22.18,22.18,0,0,0,216.8,87.15h0A22.18,22.18,0,0,0,239,109.33h98.12A22.18,22.18,0,0,0,359.3,87.15h0A22.24,22.24,0,0,0,337.08,65Z"/><path class="cls-4" d="M337.08,65H239a22.23,22.23,0,0,0-18.48,9.88h135A22.16,22.16,0,0,0,337.08,65Z"/><path class="cls-5" d="M221.84,87.12h0A22.18,22.18,0,0,1,244,64.93h-5A22.18,22.18,0,0,0,216.8,87.12h0A22.18,22.18,0,0,0,239,109.3h5A22.17,22.17,0,0,1,221.84,87.12Z"/><path class="cls-5" d="M337.08,65h-4a22.18,22.18,0,0,1,22.19,22.19h0a22.18,22.18,0,0,1-22.19,22.18h4a22.17,22.17,0,0,0,22.18-22.18h0A22.18,22.18,0,0,0,337.08,65Z"/><path class="cls-4" d="M321.06,92.84a9.4,9.4,0,0,1,9.38-9.37h2.36a7,7,0,0,1,7,7,3.56,3.56,0,1,1-7.12,0V89.32a2.27,2.27,0,1,0-4.53,0v1.16a8.06,8.06,0,1,0,16.12,0A11.53,11.53,0,0,0,332.77,79h-2.36a13.83,13.83,0,0,0-11.36,5.91c-.1,0-.19,0-.29,0H259.25A13.86,13.86,0,0,0,247.92,79h-2.36a11.52,11.52,0,0,0-11.51,11.51,8.06,8.06,0,1,0,16.11,0V89.32a2.27,2.27,0,1,0-4.53,0v1.16a3.56,3.56,0,1,1-7.12,0,7,7,0,0,1,7-7h2.36a9.4,9.4,0,0,1,9.38,9.37,16.32,16.32,0,0,1-16.3,16.3h-4.56a21.82,21.82,0,0,0,2.55.16h14.75a20.78,20.78,0,0,0,8.09-16.46,14.08,14.08,0,0,0-.44-3.46H317a14.08,14.08,0,0,0-.44,3.46,20.83,20.83,0,0,0,8.09,16.46h12.46a21.82,21.82,0,0,0,2.55-.16h-2.3A16.3,16.3,0,0,1,321.06,92.84Z"/><path class="cls-4" d="M258.81,120.13h0a4.13,4.13,0,0,0-4.12,4.12V337.38h8.25V124.25A4.12,4.12,0,0,0,258.81,120.13Z"/><path class="cls-4" d="M273.48,120.13h0a4.13,4.13,0,0,0-4.12,4.12V337.38h8.24V124.25A4.13,4.13,0,0,0,273.48,120.13Z"/><path class="cls-4" d="M288.14,120.13h0a4.13,4.13,0,0,0-4.12,4.12V337.38h8.25V124.25A4.14,4.14,0,0,0,288.14,120.13Z"/><path class="cls-4" d="M302.81,120.13h0a4.13,4.13,0,0,0-4.12,4.12V337.38h8.24V124.25A4.13,4.13,0,0,0,302.81,120.13Z"/><path class="cls-4" d="M317.44,120.13h0a4.13,4.13,0,0,0-4.12,4.12V337.38h8.24V124.25A4.08,4.08,0,0,0,317.44,120.13Z"/><rect class="cls-5" x="329.02" y="116.32" width="4.47" height="221.06"/><rect class="cls-5" x="242.57" y="116.32" width="4.47" height="221.06"/><rect class="cls-5" x="224.99" y="337.38" width="122.6" height="31.81"/><rect class="cls-3" x="224.99" y="337.38" width="114.87" height="31.81"/><rect class="cls-6" x="224.99" y="364.32" width="114.87" height="4.87"/><rect class="cls-7" x="224.99" y="337.38" width="114.87" height="4.87"/><rect class="cls-5" x="224.99" y="337.38" width="7.51" height="31.81"/><rect class="cls-3" x="445.84" y="89.35" width="90.92" height="248.06"/><rect class="cls-4" x="445.84" y="89.35" width="90.92" height="27"/><path class="cls-3" d="M540.35,65h-98.1a22.18,22.18,0,0,0-22.18,22.19h0a22.17,22.17,0,0,0,22.18,22.18h98.13a22.17,22.17,0,0,0,22.18-22.18h0A22.22,22.22,0,0,0,540.35,65Z"/><path class="cls-4" d="M540.35,65h-98.1a22.21,22.21,0,0,0-18.47,9.88h135A22.17,22.17,0,0,0,540.35,65Z"/><path class="cls-5" d="M425.1,87.12h0a22.18,22.18,0,0,1,22.19-22.19h-5a22.18,22.18,0,0,0-22.18,22.19h0a22.17,22.17,0,0,0,22.18,22.18h5A22.18,22.18,0,0,1,425.1,87.12Z"/><path class="cls-5" d="M540.35,65h-4A22.18,22.18,0,0,1,558.5,87.15h0a22.17,22.17,0,0,1-22.18,22.18h4a22.17,22.17,0,0,0,22.18-22.18h0A22.18,22.18,0,0,0,540.35,65Z"/><path class="cls-4" d="M524.33,92.84a9.4,9.4,0,0,1,9.38-9.37h2.36a7,7,0,0,1,7,7,3.56,3.56,0,1,1-7.11,0V89.32a2.27,2.27,0,1,0-4.53,0v1.16a8.06,8.06,0,1,0,16.11,0A11.52,11.52,0,0,0,536,79h-2.36a13.85,13.85,0,0,0-11.36,5.91c-.09,0-.18,0-.28,0H462.52A13.88,13.88,0,0,0,451.19,79h-2.36a11.52,11.52,0,0,0-11.52,11.51,8.06,8.06,0,1,0,16.12,0V89.32a2.27,2.27,0,1,0-4.54,0v1.16a3.56,3.56,0,1,1-7.11,0,7,7,0,0,1,7-7h2.36a9.4,9.4,0,0,1,9.38,9.37,16.32,16.32,0,0,1-16.3,16.3h-4.57a21.82,21.82,0,0,0,2.55.16H457a20.78,20.78,0,0,0,8.09-16.46,14.08,14.08,0,0,0-.44-3.46h55.61a13.61,13.61,0,0,0-.44,3.46,20.82,20.82,0,0,0,8.08,16.46h12.47a21.82,21.82,0,0,0,2.55-.16h-2.3A16.3,16.3,0,0,1,524.33,92.84Z"/><path class="cls-4" d="M462.08,120.13h0a4.13,4.13,0,0,0-4.12,4.12V337.38h8.24V124.25A4.11,4.11,0,0,0,462.08,120.13Z"/><path class="cls-4" d="M476.75,120.13h0a4.14,4.14,0,0,0-4.13,4.12V337.38h8.25V124.25A4.13,4.13,0,0,0,476.75,120.13Z"/><path class="cls-4" d="M491.41,120.13h0a4.13,4.13,0,0,0-4.12,4.12V337.38h8.24V124.25A4.13,4.13,0,0,0,491.41,120.13Z"/><path class="cls-4" d="M506.08,120.13h0a4.14,4.14,0,0,0-4.13,4.12V337.38h8.25V124.25A4.13,4.13,0,0,0,506.08,120.13Z"/><path class="cls-4" d="M520.71,120.13h0a4.13,4.13,0,0,0-4.12,4.12V337.38h8.24V124.25A4.09,4.09,0,0,0,520.71,120.13Z"/><rect class="cls-5" x="532.29" y="116.32" width="4.47" height="221.06"/><rect class="cls-5" x="445.84" y="116.32" width="4.47" height="221.06"/><rect class="cls-5" x="428.26" y="337.38" width="122.6" height="31.81"/><rect class="cls-3" x="428.26" y="337.38" width="114.87" height="31.81"/><rect class="cls-6" x="428.26" y="364.32" width="114.87" height="4.87"/><rect class="cls-7" x="428.26" y="337.38" width="114.87" height="4.87"/><rect class="cls-5" x="428.26" y="337.38" width="7.51" height="31.81"/><rect class="cls-3" x="649.11" y="89.35" width="90.92" height="248.06"/><rect class="cls-4" x="649.11" y="89.35" width="90.92" height="27"/><path class="cls-3" d="M743.61,65H645.52a22.18,22.18,0,0,0-22.18,22.19h0a22.17,22.17,0,0,0,22.18,22.18h98.13a22.17,22.17,0,0,0,22.18-22.18h0A22.22,22.22,0,0,0,743.61,65Z"/><path class="cls-4" d="M743.61,65H645.52a22.21,22.21,0,0,0-18.47,9.88h135A22.19,22.19,0,0,0,743.61,65Z"/><path class="cls-5" d="M628.37,87.12h0a22.18,22.18,0,0,1,22.19-22.19h-5a22.18,22.18,0,0,0-22.18,22.19h0a22.17,22.17,0,0,0,22.18,22.18h5A22.18,22.18,0,0,1,628.37,87.12Z"/><path class="cls-5" d="M743.61,65h-4a22.18,22.18,0,0,1,22.18,22.19h0a22.17,22.17,0,0,1-22.18,22.18h4A22.18,22.18,0,0,0,765.8,87.15h0A22.18,22.18,0,0,0,743.61,65Z"/><path class="cls-4" d="M727.6,92.84A9.39,9.39,0,0,1,737,83.47h2.36a7,7,0,0,1,7,7,3.56,3.56,0,1,1-7.11,0V89.32a2.27,2.27,0,1,0-4.53,0v1.16a8.06,8.06,0,1,0,16.11,0A11.52,11.52,0,0,0,739.3,79h-2.36a13.84,13.84,0,0,0-11.36,5.91l-.28,0H665.79A13.88,13.88,0,0,0,654.46,79H652.1a11.52,11.52,0,0,0-11.52,11.51,8.06,8.06,0,1,0,16.11,0V89.32a2.27,2.27,0,1,0-4.53,0v1.16a3.56,3.56,0,1,1-7.11,0,7,7,0,0,1,7-7h2.36a9.4,9.4,0,0,1,9.38,9.37,16.32,16.32,0,0,1-16.31,16.3h-4.56a21.82,21.82,0,0,0,2.55.16h14.76a20.78,20.78,0,0,0,8.09-16.46,14.08,14.08,0,0,0-.44-3.46h55.6a14.08,14.08,0,0,0-.44,3.46,20.83,20.83,0,0,0,8.09,16.46h12.46a21.82,21.82,0,0,0,2.55-.16h-2.29A16.3,16.3,0,0,1,727.6,92.84Z"/><path class="cls-4" d="M665.35,120.13h0a4.13,4.13,0,0,0-4.12,4.12V337.38h8.24V124.25A4.11,4.11,0,0,0,665.35,120.13Z"/><path class="cls-4" d="M680,120.13h0a4.13,4.13,0,0,0-4.12,4.12V337.38h8.25V124.25A4.14,4.14,0,0,0,680,120.13Z"/><path class="cls-4" d="M694.68,120.13h0a4.13,4.13,0,0,0-4.12,4.12V337.38h8.24V124.25A4.13,4.13,0,0,0,694.68,120.13Z"/><path class="cls-4" d="M709.34,120.13h0a4.13,4.13,0,0,0-4.12,4.12V337.38h8.25V124.25A4.14,4.14,0,0,0,709.34,120.13Z"/><path class="cls-4" d="M724,120.13h0a4.14,4.14,0,0,0-4.13,4.12V337.38h8.25V124.25A4.1,4.1,0,0,0,724,120.13Z"/><rect class="cls-5" x="735.56" y="116.32" width="4.47" height="221.06"/><rect class="cls-5" x="649.11" y="116.32" width="4.47" height="221.06"/><rect class="cls-5" x="631.52" y="337.38" width="122.6" height="31.81"/><rect class="cls-3" x="631.52" y="337.38" width="114.87" height="31.81"/><rect class="cls-6" x="631.52" y="364.32" width="114.87" height="4.87"/><rect class="cls-7" x="631.52" y="337.38" width="114.87" height="4.87"/><rect class="cls-5" x="631.52" y="337.38" width="7.51" height="31.81"/></svg>