<svg id="Camada_1" data-name="Camada 1" xmlns="http://www.w3.org/2000/svg" xmlns:xlink="http://www.w3.org/1999/xlink" viewBox="0 0 850 509.83"><defs><style>.cls-1{fill:none;}.cls-2{fill:#eaa000;}.cls-3{fill:#97d8dd;}.cls-4{fill:#027e8f;}.cls-5{fill:#65c4d1;}.cls-6{fill:#fff;}.cls-7{clip-path:url(#clip-path);}.cls-8{fill:#eac2a7;}.cls-9{fill:#c9a68f;}.cls-10{fill:#d6aa8b;}.cls-11{fill:#d6d6d6;}.cls-12{fill:#c99f4b;}.cls-13{fill:#6d5f56;}.cls-14{fill:#493e38;}.cls-15{clip-path:url(#clip-path-2);}.cls-16{fill:#fcfcfc;}.cls-17{fill:#d32222;}.cls-18{fill:#f4f4f4;}.cls-19{clip-path:url(#clip-path-3);}.cls-20{fill:#b7b7b7;}.cls-21{fill:#6d472e;}.cls-22{fill:#c99e32;}.cls-23{clip-path:url(#clip-path-4);}.cls-24{fill:#aa7e30;}.cls-25{fill:#ddd;}.cls-26{fill:#846829;}.cls-27{fill:#e8cd95;}.cls-28{clip-path:url(#clip-path-5);}</style><clipPath id="clip-path"><path class="cls-1" d="M241.77,483.68S194.88,519.3,116.33,490,37.79,235.92,37.79,235.92s72.24-107.37,88.4-104.5,110.37,21.13,110.37,55.77,41.93,190.12,41.93,190.12,17.61,68.19,8.8,73.38"/></clipPath><clipPath id="clip-path-2"><path class="cls-1" d="M166.34,246.91c-.33-.5,24.25,5.76,35,.39,0,0-1.37,19.28-10.22,19.9C182,267.83,172.47,262.6,166.34,246.91Z"/></clipPath><clipPath id="clip-path-3"><path class="cls-1" d="M186,507.62c5.31,10.54,42.67,12.76,45.77,13.74,0,0,1-42.31-5-66.07S186,507.62,186,507.62Z"/></clipPath><clipPath id="clip-path-4"><path class="cls-1" d="M140.61,245.42c6.59,2.73.91-9.08.91-9.08s-.62-11.84-4-13.86a48,48,0,0,1-7.31-6L147.06,205l46-31.54s6.36-8.86-8.17-14.31a17.29,17.29,0,0,0-17.6-5.22s-6.36-7.61-15.56-.63c0,0-18.51-1.08-22.71,8a6.92,6.92,0,0,0-6.82,3.86s-3.86,1.47-4.6,4.6c0,0-9.36,3.69-9.93,9.93,0,0-5.11,7.16-1,13,0,0-2.7,5.08.79,8.57,0,0-7.83,8.58,0,13.91,0,0-1.93,5.57,9.54,7.84l3.41,7s3.28-1.49,12.72,8S140.61,245.42,140.61,245.42Z"/></clipPath><clipPath id="clip-path-5"><path class="cls-1" d="M241.77-231s-46.89,35.62-125.44,6.36S37.79-478.77,37.79-478.77s72.24-107.37,88.4-104.5,110.37,21.13,110.37,55.77,41.93,190.12,41.93,190.12,17.61,68.19,8.8,73.38"/></clipPath></defs><title>Fala3</title><path class="cls-2" d="M178.5,158.73c93.46.11,169.21,76.64,169.31,171.09S272,500.92,178.5,500.92,9.18,424.32,9.18,329.82,85,158.73,178.5,158.73m0-8h0a174.65,174.65,0,0,0-69,14.09,176.58,176.58,0,0,0-56.37,38.4,180.11,180.11,0,0,0,0,253.21,176.74,176.74,0,0,0,56.37,38.4,176.24,176.24,0,0,0,138.1,0,176.81,176.81,0,0,0,56.36-38.4,179.73,179.73,0,0,0-56.39-291.56,175.08,175.08,0,0,0-69-14.14Z"/><path class="cls-3" d="M178.49,158.73C85,158.73,9.18,235.33,9.18,329.82S85,500.92,178.49,500.92s169.32-76.6,169.32-171.1S272,158.84,178.49,158.73Zm0,330.78c-87.27,0-158-71.49-158-159.69s70.75-159.68,158-159.68,158,71.49,158,159.68S265.73,489.41,178.49,489.51Z"/><path class="cls-3" d="M258.4,205.54a5.59,5.59,0,0,0-4.25-.81,5.65,5.65,0,0,0-3.56,2.47l-9.24,14.35a5.74,5.74,0,0,0,1.8,8,74,74,0,0,1,6.33,4.56c1.27,1,2.54,2,3.53,2.66,1.75,1.46,3.44,3,5.11,4.55l-3.9,3.94a112.82,112.82,0,0,0-24.74-17.13L241,202a5.75,5.75,0,0,0,.11-4.37,5.67,5.67,0,0,0-3-3.17,146.34,146.34,0,0,0-52-12.51,5.55,5.55,0,0,0-4.08,1.45,5.69,5.69,0,0,0-1.85,3.95l-.87,17.08a5.68,5.68,0,0,0,5.33,6l5.94.3,6.33,1c.81.14,1.63.26,2.44.38,1.22.17,2.44.35,3.51.59l.78.2-1.48,5.59A113.7,113.7,0,0,0,172.31,216l-2.93-28.54a5.66,5.66,0,0,0-2.06-3.84,5.57,5.57,0,0,0-4.15-1.24,144.11,144.11,0,0,0-51.28,15.44,5.73,5.73,0,0,0-2.45,7.67l7.7,15.23a5.63,5.63,0,0,0,7.4,2.59c1.13-.53,2.25-1.09,3.38-1.65a57.68,57.68,0,0,1,8.07-3.5l1.44-.54c1.7-.64,3.34-1.26,5-1.81l1.46,5.52c-1.39.47-2.74,1-4.08,1.48l-1.34.52a52.9,52.9,0,0,0-8,3.43c-1,.48-1.93,1-3.4,1.67L117.48,234l-.65.37-16.64-23.11A5.61,5.61,0,0,0,92.3,210a147.7,147.7,0,0,0-36.8,39.11,5.73,5.73,0,0,0,1.65,7.9l14.19,9.33a5.61,5.61,0,0,0,7.9-1.82,76.25,76.25,0,0,1,4.49-6.38c1-1.29,2-2.58,2.65-3.59,1.45-1.77,3-3.47,4.51-5.16l3.9,3.95a113.82,113.82,0,0,0-17,25L52,266.64a5.63,5.63,0,0,0-7.46,2.89,150.52,150.52,0,0,0-12.38,52.56,5.67,5.67,0,0,0,5.35,6l16.91.89a5.61,5.61,0,0,0,4.07-1.45,5.69,5.69,0,0,0,1.85-3.94l.3-6,1-6.39c.15-.83.26-1.65.38-2.48.17-1.23.34-2.47.59-3.54l.19-.79,5.54,1.5a116.91,116.91,0,0,0-2.43,30.2l-28.24,3a5.58,5.58,0,0,0-3.79,2.08,5.68,5.68,0,0,0-1.23,4.18,149.58,149.58,0,0,0,15.28,51.82,5.58,5.58,0,0,0,7.59,2.48l15.07-7.77a5.74,5.74,0,0,0,2.56-7.48c-.52-1.14-1.07-2.25-1.61-3.37a60.45,60.45,0,0,1-3.49-8.2l-.55-1.5c-.63-1.7-1.23-3.35-1.77-5l5.53-1.49a113.44,113.44,0,0,0,12.88,27.29L61.13,409a5.72,5.72,0,0,0-1.24,8,147.24,147.24,0,0,0,38.7,37.2,5.61,5.61,0,0,0,7.81-1.67l9.23-14.34a5.73,5.73,0,0,0-1.79-8,74.63,74.63,0,0,1-6.33-4.56c-1.27-1-2.54-2-3.53-2.66-1.76-1.46-3.44-3-5.11-4.55l4-4c1.51,1.4,3.06,2.81,4.94,4.36,1.1.78,2.17,1.62,3.24,2.45a67.54,67.54,0,0,0,6.29,4.47l10.08,5.85.12.06L116,457.69a5.75,5.75,0,0,0-.11,4.37,5.62,5.62,0,0,0,3,3.16,146.3,146.3,0,0,0,52,12.52h.29a5.67,5.67,0,0,0,5.63-5.41l.88-17.09a5.67,5.67,0,0,0-5.33-6l-5.94-.31L160,448c-.81-.14-1.63-.26-2.44-.38-1.22-.18-2.44-.35-3.51-.6l-.78-.2,1.48-5.59a114.13,114.13,0,0,0,29.89,2.45l2.93,28.54a5.74,5.74,0,0,0,2.06,3.84,5.62,5.62,0,0,0,4.15,1.24,144.31,144.31,0,0,0,51.28-15.44,5.74,5.74,0,0,0,2.46-7.67l-7.71-15.24a5.62,5.62,0,0,0-7.39-2.58c-1.14.53-2.26,1.09-3.39,1.65a58.08,58.08,0,0,1-8.06,3.5l-1.44.54c-1.7.64-3.35,1.26-5,1.81l-1.49-5.59a111.5,111.5,0,0,0,27-13l16.68,23.17a5.62,5.62,0,0,0,7.89,1.26,148.06,148.06,0,0,0,36.81-39.11,5.8,5.8,0,0,0,.79-4.3,5.68,5.68,0,0,0-2.45-3.6l-14.19-9.33a5.62,5.62,0,0,0-7.9,1.81,73.1,73.1,0,0,1-4.49,6.38c-1,1.3-2,2.59-2.65,3.6-1.45,1.76-3,3.46-4.51,5.15l-3.9-3.94a113.64,113.64,0,0,0,16.95-25L305,393a5.63,5.63,0,0,0,7.45-2.89,150.37,150.37,0,0,0,12.39-52.57,5.69,5.69,0,0,0-5.35-6l-16.91-.88a5.7,5.7,0,0,0-5.92,5.39l-.3,6-1,6.39c-.15.82-.26,1.65-.38,2.48-.18,1.23-.35,2.47-.59,3.53l-.2.79-5.44-1.47,0-.14c.3-1.33.5-2.68.68-4,.09-.64.17-1.27.3-2l.86-5.6a5.7,5.7,0,0,0,.06-.58l.3-6V323.85l0-.26,28.35-3a5.6,5.6,0,0,0,3.8-2.08,5.77,5.77,0,0,0,1.23-4.18,150.07,150.07,0,0,0-15.28-51.83,5.61,5.61,0,0,0-7.59-2.47l-15.08,7.77a5.73,5.73,0,0,0-2.55,7.48c.52,1.13,1.06,2.25,1.6,3.37a58.4,58.4,0,0,1,3.49,8.19l.55,1.51c.63,1.7,1.24,3.35,1.78,5l-5.53,1.49a113.47,113.47,0,0,0-12.89-27.29l22.93-16.87a5.7,5.7,0,0,0,2.26-3.72,5.76,5.76,0,0,0-1-4.24A147.36,147.36,0,0,0,258.4,205.54Zm3.44,56.07a5.73,5.73,0,0,0-1.25,8,102.16,102.16,0,0,1,15.92,33.7,5.66,5.66,0,0,0,6.9,4l16.36-4.42a5.72,5.72,0,0,0,4.07-6.71,83.76,83.76,0,0,0-3.69-11.78l-.45-1.22a59.81,59.81,0,0,0-3.16-7.74l5-2.59a138.89,138.89,0,0,1,10.94,37l-27.95,2.93a5.68,5.68,0,0,0-5.05,6l.28,5.53v10.9l-.28,5.38-.8,5.23c-.13.75-.23,1.5-.34,2.25-.14,1-.27,2-.46,2.87l-1.41,5.49a5.71,5.71,0,0,0,4,6.94l16.36,4.42a5.61,5.61,0,0,0,4.31-.59,5.68,5.68,0,0,0,2.61-3.5l1.66-6.5c.35-1.52.57-3.07.79-4.62.11-.73.2-1.46.34-2.28l1-7,.05-.88,5.54.29a139.33,139.33,0,0,1-8.84,37.55L278.7,368.65a5.54,5.54,0,0,0-4.32-.11,5.69,5.69,0,0,0-3.14,3,102.26,102.26,0,0,1-20.92,30.87,5.74,5.74,0,0,0,0,8.05l12,12.1a5.47,5.47,0,0,0,4.15,1.67,5.61,5.61,0,0,0,4.05-1.91q1.51-1.71,3.06-3.4c2-2.15,3.91-4.3,6-6.86.86-1.22,1.77-2.42,2.67-3.61.63-.83,1.27-1.67,1.89-2.53l4.74,3.12a136.05,136.05,0,0,1-26.3,28L246,414a5.65,5.65,0,0,0-3.68-2.28,5.58,5.58,0,0,0-4.2,1,100.21,100.21,0,0,1-33.35,16.07,5.68,5.68,0,0,0-3.43,2.66,5.74,5.74,0,0,0-.56,4.33l4.37,16.53a5.65,5.65,0,0,0,6.64,4.1,82.93,82.93,0,0,0,11.7-3.74l1.17-.44a57.49,57.49,0,0,0,7.65-3.2l2.57,5.09a135.64,135.64,0,0,1-36.64,11L195.34,437a5.67,5.67,0,0,0-2-3.84,5.56,5.56,0,0,0-4.13-1.24,102.62,102.62,0,0,1-37-3.05,5.59,5.59,0,0,0-4.28.58,5.67,5.67,0,0,0-2.63,3.46l-4.38,16.53a5.75,5.75,0,0,0,.58,4.35,5.64,5.64,0,0,0,3.47,2.65l6.43,1.66c1.51.36,3,.59,4.58.81.72.1,1.43.21,2.24.35l7,1.05.87,0-.29,5.6A135.3,135.3,0,0,1,128.63,457l11.44-25.92a5.74,5.74,0,0,0-2.7-7.47l-4.69-2.26-9.63-5.59a58,58,0,0,1-5.13-3.7c-1.2-.93-2.4-1.86-3.28-2.45-1.63-1.36-3.18-2.81-4.74-4.25-1.16-1.08-2.33-2.16-3.52-3.22a5.6,5.6,0,0,0-7.7.27l-12,12.09a5.74,5.74,0,0,0,.23,8.3c1.12,1,2.22,2,3.32,3,2.14,2,4.29,4,6.84,6.09,1.21.87,2.38,1.78,3.56,2.69q1.23,1,2.52,1.92l-3.09,4.79a135.59,135.59,0,0,1-27.66-26.58l22.72-16.71a5.74,5.74,0,0,0,1.25-8,102.26,102.26,0,0,1-15.92-33.7,5.63,5.63,0,0,0-6.9-4l-16.36,4.42a5.71,5.71,0,0,0-4.07,6.7,85.09,85.09,0,0,0,3.69,11.78l.45,1.22a59.24,59.24,0,0,0,3.16,7.74l-5,2.6a139.07,139.07,0,0,1-10.94-37l27.95-2.94a5.68,5.68,0,0,0,5-6.22,105.67,105.67,0,0,1,3-37.35,5.74,5.74,0,0,0-.56-4.33,5.67,5.67,0,0,0-3.44-2.66l-16.35-4.41a5.65,5.65,0,0,0-4.31.58A5.72,5.72,0,0,0,53.2,296l-1.65,6.5c-.35,1.52-.57,3.07-.79,4.61-.11.74-.21,1.46-.34,2.29l-1,7-.05.87L43.79,317a139.24,139.24,0,0,1,8.84-37.55L78.29,291a5.62,5.62,0,0,0,7.45-2.9,102.17,102.17,0,0,1,20.93-30.87,5.77,5.77,0,0,0,0-8.06l-12-12.1a5.61,5.61,0,0,0-8.2.24c-1,1.15-2,2.28-3.06,3.41-2,2.14-3.91,4.29-6,6.86-.87,1.22-1.77,2.41-2.67,3.61-.63.83-1.27,1.66-1.89,2.52l-4.75-3.11a136.37,136.37,0,0,1,26.31-28l16.55,23a5.6,5.6,0,0,0,7.89,1.25l1.31-1a19.54,19.54,0,0,1,2.77-1.92l9.23-5.4c1.09-.5,2.16-1,3.24-1.57a44,44,0,0,1,6.61-2.86l1.68-.63a57.54,57.54,0,0,1,8.17-2.62,5.61,5.61,0,0,0,3.67-2.59,5.78,5.78,0,0,0,.65-4.47l-4.38-16.53a5.65,5.65,0,0,0-6.63-4.1,83.06,83.06,0,0,0-11.71,3.74l-1.16.44a56.94,56.94,0,0,0-7.65,3.2l-2.57-5.09a135.89,135.89,0,0,1,36.64-11l2.89,28.24a5.67,5.67,0,0,0,2,3.84,5.58,5.58,0,0,0,4.13,1.24,102.88,102.88,0,0,1,37,3,5.59,5.59,0,0,0,4.28-.58,5.71,5.71,0,0,0,2.63-3.46l4.37-16.53a5.79,5.79,0,0,0-.57-4.35,5.64,5.64,0,0,0-3.47-2.65l-6.42-1.67c-1.52-.35-3.05-.58-4.59-.8-.72-.11-1.43-.21-2.25-.35l-7-1.05-.87,0,.29-5.6a135.68,135.68,0,0,1,37.16,8.94l-11.44,25.92a5.78,5.78,0,0,0-.11,4.38,5.64,5.64,0,0,0,3,3.16,101.33,101.33,0,0,1,30.55,21.14,5.59,5.59,0,0,0,8,0l12-12.09a5.74,5.74,0,0,0-.23-8.3c-1.12-1-2.22-2-3.32-3-2.15-2-4.29-4-6.84-6.09-1.21-.87-2.38-1.78-3.56-2.69-.82-.63-1.66-1.28-2.52-1.92l3.09-4.79a135.85,135.85,0,0,1,27.66,26.58Z"/><path class="cls-3" d="M178.49,238.57a90,90,0,0,0-78.36,45.77,91.89,91.89,0,0,0,.49,91.45,5.73,5.73,0,0,0,.35.59,91.65,91.65,0,0,0,23,26c.15.1.23.25.39.34s.08,0,.12,0a88.86,88.86,0,0,0,108,0,1.56,1.56,0,0,1,.15-.06c.16-.09.24-.24.38-.34a91.53,91.53,0,0,0,23-26,5.73,5.73,0,0,0,.35-.59,91.87,91.87,0,0,0,.48-91.45A90,90,0,0,0,178.49,238.57Zm-10.17,12.15L105.67,360.81A80.52,80.52,0,0,1,110,290.07,78.92,78.92,0,0,1,168.32,250.72ZM134.63,396.19l43.86-77.06,43.87,77.05a78.09,78.09,0,0,1-87.73,0ZM231.32,389l-45.48-79.89a8.43,8.43,0,0,0-14.69,0L125.67,389a79.94,79.94,0,0,1-13.73-16.34l66.56-117,12.91,22.63a4.66,4.66,0,0,0,.25.5l53.39,93.86A80.26,80.26,0,0,1,231.32,389Zm20-28.23-49.6-87.21c-.08-.17-.17-.35-.27-.52l-12.75-22.35A78.88,78.88,0,0,1,247,290.08a80.49,80.49,0,0,1,4.31,70.73Z"/><path class="cls-4" d="M597.35,34.08c-131.17,0-239,88.61-251.43,202l-74.67,29.74s-4.88,1.81-4.39,8.81a9.51,9.51,0,0,0,5.58,8.16l78.16,23.46c24.89,100.48,125.91,175.68,246.75,175.68C736.89,481.89,850,381.64,850,258S736.89,34.08,597.35,34.08Z"/><path class="cls-5" d="M597.31.92c-131.17,0-239,88.6-251.43,202l-74.67,29.74s-4.88,1.8-4.39,8.8a9.53,9.53,0,0,0,5.58,8.17L350.56,273c24.89,100.48,125.91,175.68,246.75,175.68C736.85,448.72,850,348.48,850,224.82S736.85.92,597.31.92Z"/><path class="cls-6" d="M412.69,159.7l-1.44.12,4.28,12,.31,1h.06l.31-1,4.27-12L419,159.7v-1h4v1l-1.2.1-5.39,14.62h-1.21l-5.4-14.62-1.19-.1v-1h4Z"/><path class="cls-6" d="M432.12,174.42q-.12-.58-.18-1a6.35,6.35,0,0,1-.05-.87,5.26,5.26,0,0,1-1.71,1.52,4.8,4.8,0,0,1-2.4.6,3.69,3.69,0,0,1-2.62-.88,3.14,3.14,0,0,1-.92-2.39,3,3,0,0,1,1.37-2.57,6.5,6.5,0,0,1,3.73-.94h2.55v-1.54a2.48,2.48,0,0,0-.8-2,3.19,3.19,0,0,0-2.22-.72,5.4,5.4,0,0,0-1.75.27,3.92,3.92,0,0,0-1.33.71l-.11,1.57h-1.05V164a6.55,6.55,0,0,1,1.91-1,7.4,7.4,0,0,1,2.37-.38,4.55,4.55,0,0,1,3.07,1,3.46,3.46,0,0,1,1.17,2.81v5.73c0,.23,0,.46,0,.68a4.48,4.48,0,0,0,.07.64l1.15.08v.94Zm-4.2-.91a4.56,4.56,0,0,0,2.44-.65,3.83,3.83,0,0,0,1.53-1.67v-2.33h-2.57a4.82,4.82,0,0,0-2.78.72,2.19,2.19,0,0,0-1,1.84,1.93,1.93,0,0,0,.65,1.51A2.53,2.53,0,0,0,427.92,173.51Z"/><path class="cls-6" d="M435.93,163.73v-1h2.86l.12,1.93a4,4,0,0,1,1.48-1.58,4.13,4.13,0,0,1,2.21-.56,3.33,3.33,0,0,1,3.47,2.63,4.53,4.53,0,0,1,1.49-1.93,3.85,3.85,0,0,1,2.35-.7,3.47,3.47,0,0,1,2.85,1.23,6.06,6.06,0,0,1,1,3.84v5.69l1.74.16v.94h-4.76v-.94l1.74-.16v-5.71a4.79,4.79,0,0,0-.76-3.05,2.58,2.58,0,0,0-2.09-.88,2.86,2.86,0,0,0-2.3.95,4.64,4.64,0,0,0-1,2.45v.16a1.09,1.09,0,0,1,0,.19v5.9l1.73.15v.94h-4.75v-.94l1.74-.15v-5.72a4.75,4.75,0,0,0-.76-3,2.59,2.59,0,0,0-2.1-.91,3.18,3.18,0,0,0-2.16.69,3.74,3.74,0,0,0-1.11,1.87v7.09l1.74.15v.94h-4.75v-.94l1.73-.15v-9.46Z"/><path class="cls-6" d="M457,168.42a6.32,6.32,0,0,1,1.4-4.22,5,5,0,0,1,7.4,0,6.27,6.27,0,0,1,1.4,4.22v.36a6.32,6.32,0,0,1-1.39,4.23,5,5,0,0,1-7.41,0,6.33,6.33,0,0,1-1.4-4.23Zm1.28.36a5.62,5.62,0,0,0,1,3.4,3.32,3.32,0,0,0,2.83,1.38,3.28,3.28,0,0,0,2.79-1.38,5.62,5.62,0,0,0,1-3.4v-.36a5.58,5.58,0,0,0-1-3.38,3.53,3.53,0,0,0-5.61,0,5.64,5.64,0,0,0-1,3.38Z"/><path class="cls-6" d="M477.61,166.37h-1l-.15-1.65a3.22,3.22,0,0,0-1.21-.79,4.81,4.81,0,0,0-1.68-.28,3.12,3.12,0,0,0-2.09.61,1.84,1.84,0,0,0-.7,1.43,1.72,1.72,0,0,0,.6,1.34,5.76,5.76,0,0,0,2.41.92,7.82,7.82,0,0,1,3.08,1.27,2.62,2.62,0,0,1,1,2.18,2.82,2.82,0,0,1-1.17,2.35,4.9,4.9,0,0,1-3.08.9,7.12,7.12,0,0,1-2.33-.36,5.47,5.47,0,0,1-1.82-1v-2.35h1l.19,1.66a2.87,2.87,0,0,0,1.29.75,5.91,5.91,0,0,0,1.64.23,3.49,3.49,0,0,0,2.18-.61,1.84,1.84,0,0,0,.8-1.49,1.88,1.88,0,0,0-.67-1.43,5.34,5.34,0,0,0-2.4-1,8,8,0,0,1-3.05-1.2,2.47,2.47,0,0,1-1-2.1,2.79,2.79,0,0,1,1.12-2.25,4.47,4.47,0,0,1,2.95-.92,6.6,6.6,0,0,1,2.32.39,4.57,4.57,0,0,1,1.71,1.06Z"/><path class="cls-6" d="M488.24,162.77l.16,1.94v.14a4.06,4.06,0,0,1,1.34-1.69,3.36,3.36,0,0,1,2-.6,3.64,3.64,0,0,1,.48,0l.38.08-.17,1.21-.95-.06a2.85,2.85,0,0,0-2,.68,3.82,3.82,0,0,0-1.1,1.88v7l1.73.15v.94h-4.74v-.94l1.74-.15v-9.46l-1.74-.14v-1h2.85Z"/><path class="cls-6" d="M499.13,174.65a4.61,4.61,0,0,1-3.6-1.61,6,6,0,0,1-1.43-4.1v-.59a6.11,6.11,0,0,1,1.42-4.15,4.42,4.42,0,0,1,3.44-1.64,4.25,4.25,0,0,1,3.33,1.35,5.23,5.23,0,0,1,1.22,3.62v1.1h-8.14v.31a5.14,5.14,0,0,0,1,3.29,3.28,3.28,0,0,0,2.72,1.33,5.51,5.51,0,0,0,2-.33,3.92,3.92,0,0,0,1.44-1l.55.88a4.69,4.69,0,0,1-1.64,1.1A6.49,6.49,0,0,1,499.13,174.65Zm-.17-11a3,3,0,0,0-2.37,1.1,4.75,4.75,0,0,0-1.13,2.74l0,0h6.75v-.32a3.74,3.74,0,0,0-.88-2.54A3,3,0,0,0,499,163.65Z"/><path class="cls-6" d="M514.16,166.37h-1l-.15-1.65a3.22,3.22,0,0,0-1.21-.79,4.77,4.77,0,0,0-1.68-.28,3.12,3.12,0,0,0-2.09.61,1.84,1.84,0,0,0-.7,1.43,1.72,1.72,0,0,0,.6,1.34,5.88,5.88,0,0,0,2.41.92,7.82,7.82,0,0,1,3.08,1.27,2.62,2.62,0,0,1,1,2.18,2.82,2.82,0,0,1-1.17,2.35,4.9,4.9,0,0,1-3.08.9,7.16,7.16,0,0,1-2.33-.36,5.47,5.47,0,0,1-1.82-1v-2.35h1l.18,1.66a2.87,2.87,0,0,0,1.29.75,5.91,5.91,0,0,0,1.64.23,3.49,3.49,0,0,0,2.18-.61,1.84,1.84,0,0,0,.8-1.49,1.9,1.9,0,0,0-.66-1.43,5.44,5.44,0,0,0-2.41-1,8,8,0,0,1-3.05-1.2,2.47,2.47,0,0,1-1-2.1,2.82,2.82,0,0,1,1.12-2.25,4.47,4.47,0,0,1,2.95-.92,6.6,6.6,0,0,1,2.32.39A4.57,4.57,0,0,1,514.1,164Z"/><path class="cls-6" d="M516.71,168.42a6.32,6.32,0,0,1,1.4-4.22,5,5,0,0,1,7.4,0,6.27,6.27,0,0,1,1.4,4.22v.36a6.32,6.32,0,0,1-1.39,4.23,5,5,0,0,1-7.41,0,6.33,6.33,0,0,1-1.4-4.23Zm1.28.36a5.62,5.62,0,0,0,1,3.4,3.32,3.32,0,0,0,2.83,1.38,3.28,3.28,0,0,0,2.79-1.38,5.62,5.62,0,0,0,1-3.4v-.36a5.58,5.58,0,0,0-1-3.38,3.53,3.53,0,0,0-5.61,0,5.64,5.64,0,0,0-1,3.38Z"/><path class="cls-6" d="M528.52,158.58v-1h3v15.71l1.74.15v.94h-4.74v-.94l1.74-.15V158.72Z"/><path class="cls-6" d="M538.62,163.73l-1.44.11,2.88,7.66.37,1.37h.07l.4-1.37,2.84-7.66-1.44-.11v-1h3.88v1l-1.13.1L541,174.42h-1l-4.08-10.59-1.13-.1v-1h3.88Z"/><path class="cls-6" d="M552.53,174.65a4.61,4.61,0,0,1-3.6-1.61,6,6,0,0,1-1.43-4.1v-.59a6.11,6.11,0,0,1,1.42-4.15,4.42,4.42,0,0,1,3.44-1.64,4.29,4.29,0,0,1,3.34,1.35,5.28,5.28,0,0,1,1.21,3.62v1.1h-8.14v.31a5.14,5.14,0,0,0,1,3.29,3.28,3.28,0,0,0,2.72,1.33,5.51,5.51,0,0,0,2-.33,3.92,3.92,0,0,0,1.44-1l.55.88a4.69,4.69,0,0,1-1.64,1.1A6.45,6.45,0,0,1,552.53,174.65Zm-.17-11a3,3,0,0,0-2.37,1.1,4.75,4.75,0,0,0-1.13,2.74l0,0h6.75v-.32a3.74,3.74,0,0,0-.88-2.54A3,3,0,0,0,552.36,163.65Z"/><path class="cls-6" d="M562,162.77l.16,1.94v.14a4.14,4.14,0,0,1,1.34-1.69,3.37,3.37,0,0,1,2-.6,3.59,3.59,0,0,1,.47,0l.38.08-.17,1.21-.95-.06a2.87,2.87,0,0,0-2,.68,3.82,3.82,0,0,0-1.1,1.88v7l1.74.15v.94H559.1v-.94l1.74-.15v-9.46l-1.74-.14v-1H562Z"/><path class="cls-6" d="M573.27,168.42a6.31,6.31,0,0,1,1.39-4.22,5,5,0,0,1,7.41,0,6.32,6.32,0,0,1,1.4,4.22v.36a6.38,6.38,0,0,1-1.39,4.23,5,5,0,0,1-7.42,0,6.32,6.32,0,0,1-1.39-4.23Zm1.28.36a5.55,5.55,0,0,0,1,3.4,3.54,3.54,0,0,0,5.61,0,5.55,5.55,0,0,0,1-3.4v-.36a5.58,5.58,0,0,0-1-3.38,3.53,3.53,0,0,0-5.61,0,5.57,5.57,0,0,0-1,3.38Z"/><path class="cls-6" d="M593.91,166.37h-1l-.14-1.65a3.3,3.3,0,0,0-1.21-.79,4.85,4.85,0,0,0-1.68-.28,3.17,3.17,0,0,0-2.1.61,1.86,1.86,0,0,0-.69,1.43,1.72,1.72,0,0,0,.6,1.34,5.76,5.76,0,0,0,2.4.92,7.75,7.75,0,0,1,3.08,1.27,2.62,2.62,0,0,1,1,2.18,2.84,2.84,0,0,1-1.16,2.35,4.93,4.93,0,0,1-3.09.9,7.16,7.16,0,0,1-2.33-.36,5.43,5.43,0,0,1-1.81-1v-2.35h1l.18,1.66a2.85,2.85,0,0,0,1.3.75,5.84,5.84,0,0,0,1.63.23,3.54,3.54,0,0,0,2.19-.61,1.84,1.84,0,0,0,.8-1.49,1.92,1.92,0,0,0-.67-1.43,5.45,5.45,0,0,0-2.4-1,8,8,0,0,1-3.06-1.2,2.48,2.48,0,0,1-1-2.1,2.79,2.79,0,0,1,1.12-2.25,4.45,4.45,0,0,1,3-.92,6.64,6.64,0,0,1,2.32.39,4.65,4.65,0,0,1,1.71,1.06Z"/><path class="cls-6" d="M609.79,172.74a4.07,4.07,0,0,1-1.48,1.41,4.42,4.42,0,0,1-2.14.5,3.82,3.82,0,0,1-3.23-1.56,6.79,6.79,0,0,1-1.17-4.17v-.23a7.65,7.65,0,0,1,1.17-4.46,3.73,3.73,0,0,1,3.26-1.67,4.08,4.08,0,0,1,2.08.51,4.19,4.19,0,0,1,1.47,1.46v-5.81l-1.73-.14v-1h3v15.71l1.74.15v.94h-2.88Zm-6.73-3.82a5.93,5.93,0,0,0,.84,3.36,2.84,2.84,0,0,0,2.52,1.25,3.59,3.59,0,0,0,2.05-.56,3.67,3.67,0,0,0,1.28-1.54v-5.51a4,4,0,0,0-1.23-1.62,3.26,3.26,0,0,0-2.08-.62,2.76,2.76,0,0,0-2.53,1.39,6.86,6.86,0,0,0-.85,3.62Z"/><path class="cls-6" d="M619.81,174.65a4.63,4.63,0,0,1-3.6-1.61,6,6,0,0,1-1.43-4.1v-.59a6.12,6.12,0,0,1,1.43-4.15,4.4,4.4,0,0,1,3.43-1.64,4.26,4.26,0,0,1,3.34,1.35,5.23,5.23,0,0,1,1.21,3.62v1.1h-8.14v.31a5.2,5.2,0,0,0,1,3.29,3.28,3.28,0,0,0,2.72,1.33,5.57,5.57,0,0,0,2-.33,4.09,4.09,0,0,0,1.44-1l.54.88a4.6,4.6,0,0,1-1.64,1.1A6.45,6.45,0,0,1,619.81,174.65Zm-.17-11a3.06,3.06,0,0,0-2.37,1.1,4.68,4.68,0,0,0-1.12,2.74l0,0h6.76v-.32a3.75,3.75,0,0,0-.89-2.54A3,3,0,0,0,619.64,163.65Z"/><path class="cls-6" d="M634.84,166.37h-1.05l-.14-1.65a3.3,3.3,0,0,0-1.21-.79,4.85,4.85,0,0,0-1.68-.28,3.17,3.17,0,0,0-2.1.61,1.86,1.86,0,0,0-.69,1.43,1.72,1.72,0,0,0,.6,1.34,5.76,5.76,0,0,0,2.4.92,7.75,7.75,0,0,1,3.08,1.27,2.62,2.62,0,0,1,1,2.18,2.84,2.84,0,0,1-1.16,2.35,4.93,4.93,0,0,1-3.09.9,7.16,7.16,0,0,1-2.33-.36,5.43,5.43,0,0,1-1.81-1v-2.35h1l.18,1.66a2.85,2.85,0,0,0,1.3.75,5.84,5.84,0,0,0,1.63.23A3.52,3.52,0,0,0,633,173a1.84,1.84,0,0,0,.8-1.49,1.92,1.92,0,0,0-.67-1.43,5.39,5.39,0,0,0-2.4-1,8.1,8.1,0,0,1-3.06-1.2,2.48,2.48,0,0,1-1-2.1,2.79,2.79,0,0,1,1.12-2.25,4.45,4.45,0,0,1,3-.92,6.64,6.64,0,0,1,2.32.39,4.57,4.57,0,0,1,1.71,1.06Z"/><path class="cls-6" d="M645.36,174.42a8.53,8.53,0,0,1-.18-1,6.36,6.36,0,0,1-.06-.87,5.12,5.12,0,0,1-1.7,1.52,4.8,4.8,0,0,1-2.4.6,3.69,3.69,0,0,1-2.62-.88,3.15,3.15,0,0,1-.93-2.39,3,3,0,0,1,1.38-2.57,6.48,6.48,0,0,1,3.73-.94h2.54v-1.54a2.48,2.48,0,0,0-.79-2,3.19,3.19,0,0,0-2.22-.72,5.46,5.46,0,0,0-1.76.27,3.87,3.87,0,0,0-1.32.71l-.11,1.57h-1V164a6.55,6.55,0,0,1,1.91-1,7.36,7.36,0,0,1,2.37-.38,4.56,4.56,0,0,1,3.07,1,3.48,3.48,0,0,1,1.16,2.81v5.73c0,.23,0,.46,0,.68a4.48,4.48,0,0,0,.07.64l1.15.08v.94Zm-4.2-.91a4.59,4.59,0,0,0,2.44-.65,3.81,3.81,0,0,0,1.52-1.67v-2.33h-2.57a4.78,4.78,0,0,0-2.77.72,2.19,2.19,0,0,0-1,1.84,1.92,1.92,0,0,0,.64,1.51A2.56,2.56,0,0,0,641.16,173.51Z"/><path class="cls-6" d="M649.2,173.48l1.74-.15v-9.5H649v-1.06h1.91v-1.48a3.53,3.53,0,0,1,3.84-3.89,6.55,6.55,0,0,1,1.44.16,10.2,10.2,0,0,1,1.49.47l-.2,1.11a8.46,8.46,0,0,0-1.26-.42,6,6,0,0,0-1.4-.15,2.6,2.6,0,0,0-2,.7,2.8,2.8,0,0,0-.67,2v1.48h6.62v10.56l1.74.15v.94h-4.75v-.94l1.74-.15v-9.5h-5.35v9.5l1.74.15v.94H649.2Z"/><path class="cls-6" d="M662.32,168.42a6.32,6.32,0,0,1,1.4-4.22,5,5,0,0,1,7.41,0,6.31,6.31,0,0,1,1.39,4.22v.36a6.32,6.32,0,0,1-1.39,4.23,5,5,0,0,1-7.41,0,6.33,6.33,0,0,1-1.4-4.23Zm1.28.36a5.62,5.62,0,0,0,1,3.4,3.32,3.32,0,0,0,2.83,1.38,3.28,3.28,0,0,0,2.79-1.38,5.55,5.55,0,0,0,1-3.4v-.36a5.58,5.58,0,0,0-1-3.38,3.53,3.53,0,0,0-5.61,0,5.64,5.64,0,0,0-1,3.38Z"/><path class="cls-6" d="M687.92,172.74a4,4,0,0,1-1.48,1.41,4.41,4.41,0,0,1-2.13.5,3.82,3.82,0,0,1-3.24-1.56,6.79,6.79,0,0,1-1.16-4.17v-.23a7.65,7.65,0,0,1,1.16-4.46,3.75,3.75,0,0,1,3.26-1.67,4.12,4.12,0,0,1,2.09.51,4.19,4.19,0,0,1,1.47,1.46v-5.81l-1.74-.14v-1h3v15.71l1.73.15v.94H688Zm-6.72-3.82a5.93,5.93,0,0,0,.83,3.36,2.84,2.84,0,0,0,2.52,1.25,3.59,3.59,0,0,0,2.05-.56,3.76,3.76,0,0,0,1.29-1.54v-5.51a4.16,4.16,0,0,0-1.23-1.62,3.29,3.29,0,0,0-2.09-.62,2.77,2.77,0,0,0-2.53,1.39,7,7,0,0,0-.84,3.62Z"/><path class="cls-6" d="M698,174.65a4.65,4.65,0,0,1-3.61-1.61,6,6,0,0,1-1.42-4.1v-.59a6.11,6.11,0,0,1,1.42-4.15,4.4,4.4,0,0,1,3.44-1.64,4.25,4.25,0,0,1,3.33,1.35,5.23,5.23,0,0,1,1.22,3.62v1.1h-8.14v.31a5.19,5.19,0,0,0,1,3.29,3.3,3.3,0,0,0,2.73,1.33,5.51,5.51,0,0,0,2-.33,4.09,4.09,0,0,0,1.44-1l.54.88a4.6,4.6,0,0,1-1.64,1.1A6.44,6.44,0,0,1,698,174.65Zm-.17-11a3,3,0,0,0-2.37,1.1,4.69,4.69,0,0,0-1.13,2.74l0,0h6.76v-.32a3.75,3.75,0,0,0-.89-2.54A3,3,0,0,0,697.78,163.65Z"/><path class="cls-6" d="M713,166.37h-1l-.15-1.65a3.22,3.22,0,0,0-1.21-.79,4.85,4.85,0,0,0-1.68-.28,3.12,3.12,0,0,0-2.09.61,1.84,1.84,0,0,0-.7,1.43,1.72,1.72,0,0,0,.6,1.34,5.76,5.76,0,0,0,2.4.92,7.75,7.75,0,0,1,3.08,1.27,2.6,2.6,0,0,1,1,2.18,2.82,2.82,0,0,1-1.17,2.35,4.92,4.92,0,0,1-3.08.9,7.12,7.12,0,0,1-2.33-.36,5.47,5.47,0,0,1-1.82-1v-2.35h1l.18,1.66a3,3,0,0,0,1.3.75,5.91,5.91,0,0,0,1.64.23,3.49,3.49,0,0,0,2.18-.61,1.84,1.84,0,0,0,.8-1.49,1.88,1.88,0,0,0-.67-1.43,5.34,5.34,0,0,0-2.4-1,8,8,0,0,1-3-1.2,2.47,2.47,0,0,1-1-2.1,2.79,2.79,0,0,1,1.12-2.25,4.45,4.45,0,0,1,2.95-.92,6.6,6.6,0,0,1,2.32.39,4.57,4.57,0,0,1,1.71,1.06Z"/><path class="cls-6" d="M723.9,166.37h-1l-.15-1.65a3.22,3.22,0,0,0-1.21-.79,4.77,4.77,0,0,0-1.68-.28,3.12,3.12,0,0,0-2.09.61,1.84,1.84,0,0,0-.7,1.43,1.72,1.72,0,0,0,.6,1.34A5.88,5.88,0,0,0,720,168a7.82,7.82,0,0,1,3.08,1.27,2.62,2.62,0,0,1,1,2.18,2.82,2.82,0,0,1-1.17,2.35,4.9,4.9,0,0,1-3.08.9,7.16,7.16,0,0,1-2.33-.36,5.47,5.47,0,0,1-1.82-1v-2.35h1l.18,1.66a2.87,2.87,0,0,0,1.29.75,5.91,5.91,0,0,0,1.64.23,3.49,3.49,0,0,0,2.18-.61,1.84,1.84,0,0,0,.8-1.49,1.9,1.9,0,0,0-.66-1.43,5.44,5.44,0,0,0-2.41-1,8,8,0,0,1-3-1.2,2.49,2.49,0,0,1-1-2.1,2.82,2.82,0,0,1,1.12-2.25,4.47,4.47,0,0,1,2.95-.92,6.6,6.6,0,0,1,2.32.39,4.57,4.57,0,0,1,1.71,1.06Z"/><path class="cls-6" d="M734.41,174.42q-.12-.58-.18-1a8.46,8.46,0,0,1-.05-.87,5.26,5.26,0,0,1-1.71,1.52,4.79,4.79,0,0,1-2.39.6,3.71,3.71,0,0,1-2.63-.88,3.18,3.18,0,0,1-.92-2.39,3,3,0,0,1,1.37-2.57,6.5,6.5,0,0,1,3.73-.94h2.55v-1.54a2.48,2.48,0,0,0-.8-2,3.15,3.15,0,0,0-2.22-.72,5.4,5.4,0,0,0-1.75.27,3.92,3.92,0,0,0-1.33.71l-.1,1.57h-1.06V164a6.55,6.55,0,0,1,1.91-1,7.46,7.46,0,0,1,2.38-.38,4.58,4.58,0,0,1,3.07,1,3.48,3.48,0,0,1,1.16,2.81v5.73c0,.23,0,.46,0,.68s0,.43.07.64l1.15.08v.94Zm-4.2-.91a4.56,4.56,0,0,0,2.44-.65,3.77,3.77,0,0,0,1.53-1.67v-2.33h-2.57a4.82,4.82,0,0,0-2.78.72,2.19,2.19,0,0,0-1,1.84,1.93,1.93,0,0,0,.65,1.51A2.53,2.53,0,0,0,730.21,173.51Z"/><path class="cls-6" d="M412.4,201.84a4.09,4.09,0,0,1-.86,2.78,3,3,0,0,1-2.37,1,4,4,0,0,1-.62-.05l-.58-.15.14-1.09a3.59,3.59,0,0,0,1,.16,1.8,1.8,0,0,0,1.49-.66,3,3,0,0,0,.54-2V190.33l-1.74-.14v-.95h3Zm-.07-16h-1.28v-1.76h1.28Z"/><path class="cls-6" d="M415.13,194.89a6.3,6.3,0,0,1,1.4-4.22,5,5,0,0,1,7.41,0,6.3,6.3,0,0,1,1.39,4.22v.35a6.29,6.29,0,0,1-1.39,4.23,4.56,4.56,0,0,1-3.69,1.64,4.62,4.62,0,0,1-3.72-1.64,6.29,6.29,0,0,1-1.4-4.23Zm1.28.35a5.59,5.59,0,0,0,1,3.41,3.54,3.54,0,0,0,5.61,0,5.58,5.58,0,0,0,1-3.41v-.35a5.53,5.53,0,0,0-1-3.38,3.53,3.53,0,0,0-5.61,0,5.54,5.54,0,0,0-1,3.38Z"/><path class="cls-6" d="M430.17,189.24l.16,1.93v.14a4.11,4.11,0,0,1,1.34-1.68,3.31,3.31,0,0,1,2-.61,2.42,2.42,0,0,1,.47,0,2.49,2.49,0,0,1,.38.08l-.17,1.2-.95-.06a2.92,2.92,0,0,0-2,.68,3.86,3.86,0,0,0-1.1,1.88v7l1.74.14v.95h-4.74v-.95l1.73-.14v-9.47l-1.73-.14v-.95h2.84Z"/><path class="cls-6" d="M436,199.94l1.73-.14v-9.47l-1.73-.14v-.95h2.86l.12,2a4,4,0,0,1,3.73-2.25,3.56,3.56,0,0,1,2.86,1.16,5.52,5.52,0,0,1,1,3.61v6l1.73.14v.95h-4.75v-.95l1.74-.14v-6a4.27,4.27,0,0,0-.74-2.83,2.7,2.7,0,0,0-2.11-.83,3.28,3.28,0,0,0-2.19.72,4,4,0,0,0-1.22,1.9v7l1.74.14v.95H436Z"/><path class="cls-6" d="M458.2,200.89a9,9,0,0,1-.18-1A6.15,6.15,0,0,1,458,199a5,5,0,0,1-1.7,1.52,4.8,4.8,0,0,1-2.4.6,3.64,3.64,0,0,1-2.62-.88,3.15,3.15,0,0,1-.93-2.39,3,3,0,0,1,1.38-2.56,6.4,6.4,0,0,1,3.73-.95H458v-1.54a2.49,2.49,0,0,0-.79-2,3.23,3.23,0,0,0-2.22-.71,5.64,5.64,0,0,0-1.75.26,4,4,0,0,0-1.33.72l-.11,1.56h-1.05v-2.24a6.53,6.53,0,0,1,1.91-1A7.1,7.1,0,0,1,455,189a4.62,4.62,0,0,1,3.07,1,3.48,3.48,0,0,1,1.16,2.81v5.73c0,.24,0,.46,0,.68a4.32,4.32,0,0,0,.07.64l1.15.08v.95ZM454,200a4.58,4.58,0,0,0,2.44-.64,3.86,3.86,0,0,0,1.52-1.67v-2.34H455.4a4.72,4.72,0,0,0-2.78.73,2.16,2.16,0,0,0-1,1.83,1.92,1.92,0,0,0,.65,1.52A2.58,2.58,0,0,0,454,200Z"/><path class="cls-6" d="M470.29,199.21a3.92,3.92,0,0,1-1.48,1.41,4.35,4.35,0,0,1-2.13.49,3.79,3.79,0,0,1-3.23-1.56,6.79,6.79,0,0,1-1.17-4.17v-.22a7.68,7.68,0,0,1,1.17-4.47A3.74,3.74,0,0,1,466.7,189a4.12,4.12,0,0,1,2.09.51,4.19,4.19,0,0,1,1.47,1.46v-5.8l-1.74-.14v-1h3V199.8l1.74.14v.95H470.4Zm-6.72-3.83a5.93,5.93,0,0,0,.84,3.36,2.8,2.8,0,0,0,2.52,1.25,3.53,3.53,0,0,0,2.05-.56,3.61,3.61,0,0,0,1.28-1.54v-5.51a4,4,0,0,0-1.23-1.62,3.34,3.34,0,0,0-2.08-.62,2.76,2.76,0,0,0-2.53,1.39,6.87,6.87,0,0,0-.85,3.63Z"/><path class="cls-6" d="M483.2,200.89a9,9,0,0,1-.18-1A6.15,6.15,0,0,1,483,199a5,5,0,0,1-1.7,1.52,4.8,4.8,0,0,1-2.4.6,3.64,3.64,0,0,1-2.62-.88,3.15,3.15,0,0,1-.93-2.39,3,3,0,0,1,1.38-2.56,6.4,6.4,0,0,1,3.73-.95H483v-1.54a2.49,2.49,0,0,0-.79-2,3.23,3.23,0,0,0-2.22-.71,5.64,5.64,0,0,0-1.75.26,4,4,0,0,0-1.33.72l-.11,1.56h-1.05v-2.24a6.53,6.53,0,0,1,1.91-1A7.1,7.1,0,0,1,480,189a4.62,4.62,0,0,1,3.07,1,3.48,3.48,0,0,1,1.16,2.81v5.73c0,.24,0,.46,0,.68a4.32,4.32,0,0,0,.07.64l1.15.08v.95ZM479,200a4.58,4.58,0,0,0,2.44-.64,3.86,3.86,0,0,0,1.52-1.67v-2.34H480.4a4.72,4.72,0,0,0-2.78.73,2.16,2.16,0,0,0-1,1.83,1.92,1.92,0,0,0,.65,1.52A2.58,2.58,0,0,0,479,200Z"/><path class="cls-6" d="M497.51,200a3.61,3.61,0,0,0,2.24-.74,2.41,2.41,0,0,0,1-2h1.13l0,.06a3.23,3.23,0,0,1-1.28,2.71,4.72,4.72,0,0,1-3.08,1.08,4.36,4.36,0,0,1-3.63-1.63,6.55,6.55,0,0,1-1.29-4.19v-.46a6.53,6.53,0,0,1,1.29-4.17A4.34,4.34,0,0,1,497.5,189a5.76,5.76,0,0,1,2.44.51,4.69,4.69,0,0,1,1.8,1.37l.05,2.55h-1.08l-.21-2.07a3.5,3.5,0,0,0-1.27-.92,4.14,4.14,0,0,0-1.73-.34,3.08,3.08,0,0,0-2.75,1.34,6,6,0,0,0-.88,3.37v.46a6,6,0,0,0,.88,3.4A3.08,3.08,0,0,0,497.51,200Z"/><path class="cls-6" d="M504.24,194.89a6.3,6.3,0,0,1,1.4-4.22,5,5,0,0,1,7.41,0,6.3,6.3,0,0,1,1.39,4.22v.35a6.29,6.29,0,0,1-1.39,4.23,4.57,4.57,0,0,1-3.69,1.64,4.62,4.62,0,0,1-3.72-1.64,6.29,6.29,0,0,1-1.4-4.23Zm1.28.35a5.59,5.59,0,0,0,1,3.41,3.54,3.54,0,0,0,5.61,0,5.58,5.58,0,0,0,1-3.41v-.35a5.53,5.53,0,0,0-1-3.38,3.29,3.29,0,0,0-2.81-1.39,3.25,3.25,0,0,0-2.8,1.39,5.54,5.54,0,0,0-1,3.38Z"/><path class="cls-6" d="M516.24,190.19v-.95h2.87l.12,1.92a4,4,0,0,1,1.48-1.58,4.22,4.22,0,0,1,2.21-.56,3.32,3.32,0,0,1,3.47,2.64,4.47,4.47,0,0,1,1.49-1.93,3.79,3.79,0,0,1,2.35-.71,3.48,3.48,0,0,1,2.85,1.24,6,6,0,0,1,1,3.83v5.7l1.74.15v.95h-4.76v-.95l1.73-.15v-5.72a4.74,4.74,0,0,0-.75-3,2.6,2.6,0,0,0-2.09-.89,2.83,2.83,0,0,0-2.3,1,4.6,4.6,0,0,0-1,2.44v.16c0,.05,0,.12,0,.2v5.9l1.73.14v.95h-4.75v-.95l1.74-.14v-5.73a4.77,4.77,0,0,0-.76-3,2.59,2.59,0,0,0-2.1-.91,3.18,3.18,0,0,0-2.16.69,3.71,3.71,0,0,0-1.11,1.87v7.1l1.74.14v.95h-4.76v-.95l1.74-.14v-9.47Z"/><path class="cls-6" d="M542.7,194.89a6.3,6.3,0,0,1,1.4-4.22,5,5,0,0,1,7.41,0,6.3,6.3,0,0,1,1.39,4.22v.35a6.29,6.29,0,0,1-1.39,4.23,5,5,0,0,1-7.41,0,6.29,6.29,0,0,1-1.4-4.23Zm1.28.35a5.59,5.59,0,0,0,1,3.41,3.54,3.54,0,0,0,5.61,0,5.58,5.58,0,0,0,1-3.41v-.35a5.6,5.6,0,0,0-1-3.38,3.29,3.29,0,0,0-2.81-1.39,3.25,3.25,0,0,0-2.8,1.39,5.54,5.54,0,0,0-1,3.38Z"/><path class="cls-6" d="M560.29,195.16a7.76,7.76,0,0,1,1.16-4.47,3.77,3.77,0,0,1,3.26-1.67,4.15,4.15,0,0,1,2.07.5,4,4,0,0,1,1.47,1.44l.13-1.72h1.11v15l1.74.14v1h-4.75v-1l1.73-.14v-4.91a4,4,0,0,1-1.47,1.3,4.45,4.45,0,0,1-2,.45,3.82,3.82,0,0,1-3.24-1.56,6.85,6.85,0,0,1-1.16-4.17Zm1.29.22a6,6,0,0,0,.83,3.38,2.83,2.83,0,0,0,2.52,1.27,3.43,3.43,0,0,0,3.28-2V192.3a4.17,4.17,0,0,0-1.24-1.57,3.2,3.2,0,0,0-2-.61,2.78,2.78,0,0,0-2.53,1.4,7,7,0,0,0-.84,3.64Z"/><path class="cls-6" d="M581,199a3.92,3.92,0,0,1-1.49,1.58,4.21,4.21,0,0,1-2.22.56,3.48,3.48,0,0,1-2.85-1.25,6,6,0,0,1-1-3.87v-5.66l-1.43-.14v-.95h2.7V196a5.06,5.06,0,0,0,.72,3.06,2.45,2.45,0,0,0,2,.92,3.75,3.75,0,0,0,2.31-.64,3.48,3.48,0,0,0,1.21-1.79v-7.23l-1.64-.14v-.95h2.92V199.8l1.54.14v.95h-2.66Z"/><path class="cls-6" d="M590.69,201.11a4.58,4.58,0,0,1-3.6-1.61,6,6,0,0,1-1.43-4.09v-.6a6.11,6.11,0,0,1,1.42-4.14,4.4,4.4,0,0,1,3.44-1.65,4.26,4.26,0,0,1,3.34,1.36,5.21,5.21,0,0,1,1.21,3.62v1.09h-8.14v.32a5.16,5.16,0,0,0,1,3.29,3.3,3.3,0,0,0,2.72,1.33,5.5,5.5,0,0,0,2-.34,3.8,3.8,0,0,0,1.44-1l.55.89a4.66,4.66,0,0,1-1.64,1.09A6.25,6.25,0,0,1,590.69,201.11Zm-.17-11a3,3,0,0,0-2.37,1.09A4.75,4.75,0,0,0,587,194l0,.06h6.75v-.33a3.74,3.74,0,0,0-.88-2.54A3,3,0,0,0,590.52,190.12Z"/><path class="cls-6" d="M606,190.19l-1.44.11,2.88,7.67.37,1.37h.07l.4-1.37,2.84-7.67-1.44-.11v-.95h3.88v.95l-1.13.1-4.07,10.6h-1l-4.08-10.6-1.13-.1v-.95H606Z"/><path class="cls-6" d="M614.8,194.89a6.3,6.3,0,0,1,1.4-4.22,5,5,0,0,1,7.41,0,6.3,6.3,0,0,1,1.39,4.22v.35a6.29,6.29,0,0,1-1.39,4.23,4.56,4.56,0,0,1-3.69,1.64,4.62,4.62,0,0,1-3.72-1.64,6.29,6.29,0,0,1-1.4-4.23Zm1.28.35a5.59,5.59,0,0,0,1,3.41,3.54,3.54,0,0,0,5.61,0,5.58,5.58,0,0,0,1-3.41v-.35a5.53,5.53,0,0,0-1-3.38,3.53,3.53,0,0,0-5.61,0,5.54,5.54,0,0,0-1,3.38Z"/><path class="cls-6" d="M632,200a3.59,3.59,0,0,0,2.24-.74,2.39,2.39,0,0,0,1-2h1.13l0,.06a3.22,3.22,0,0,1-1.27,2.71,4.73,4.73,0,0,1-3.09,1.08,4.36,4.36,0,0,1-3.63-1.63,6.55,6.55,0,0,1-1.29-4.19v-.46a6.53,6.53,0,0,1,1.29-4.17A4.36,4.36,0,0,1,632,189a5.73,5.73,0,0,1,2.44.51,4.81,4.81,0,0,1,1.81,1.37l0,2.55H635.2l-.2-2.07a3.58,3.58,0,0,0-1.27-.92,4.19,4.19,0,0,0-1.74-.34,3.07,3.07,0,0,0-2.74,1.34,6,6,0,0,0-.89,3.37v.46a6,6,0,0,0,.89,3.4A3.05,3.05,0,0,0,632,200Z"/><path class="cls-6" d="M643.82,201.11a4.58,4.58,0,0,1-3.6-1.61,6,6,0,0,1-1.43-4.09v-.6a6.11,6.11,0,0,1,1.43-4.14,4.36,4.36,0,0,1,3.43-1.65,4.23,4.23,0,0,1,3.34,1.36A5.21,5.21,0,0,1,648.2,194v1.09h-8.14v.32a5.22,5.22,0,0,0,1,3.29,3.3,3.3,0,0,0,2.72,1.33,5.56,5.56,0,0,0,2-.34,4,4,0,0,0,1.44-1l.54.89a4.58,4.58,0,0,1-1.64,1.09A6.25,6.25,0,0,1,643.82,201.11Zm-.17-11a3,3,0,0,0-2.37,1.09,4.68,4.68,0,0,0-1.12,2.74l0,.06h6.75v-.33a3.74,3.74,0,0,0-.88-2.54A3,3,0,0,0,643.65,190.12Zm3-3.12v.19h-1.2l-1.77-1.81-1.77,1.81h-1.17V187l2.41-2.38h1.05Z"/><path class="cls-6" d="M658.85,192.83H657.8l-.14-1.65a3.37,3.37,0,0,0-1.21-.78,4.62,4.62,0,0,0-1.68-.28,3.12,3.12,0,0,0-2.1.61,1.85,1.85,0,0,0-.7,1.42,1.71,1.71,0,0,0,.61,1.34,5.88,5.88,0,0,0,2.4.93,7.76,7.76,0,0,1,3.08,1.26,2.62,2.62,0,0,1,1,2.18,2.84,2.84,0,0,1-1.16,2.35,4.93,4.93,0,0,1-3.09.9,7.16,7.16,0,0,1-2.33-.36,5.43,5.43,0,0,1-1.81-1v-2.34h1l.18,1.65a2.85,2.85,0,0,0,1.3.75,5.5,5.5,0,0,0,1.63.24,3.54,3.54,0,0,0,2.19-.62,1.81,1.81,0,0,0,.79-1.48,1.91,1.91,0,0,0-.66-1.44,5.45,5.45,0,0,0-2.4-1,8,8,0,0,1-3.06-1.2,2.48,2.48,0,0,1-1-2.09,2.81,2.81,0,0,1,1.12-2.26,4.49,4.49,0,0,1,2.95-.92,6.59,6.59,0,0,1,2.31.39,4.7,4.7,0,0,1,1.71,1.06Z"/><path class="cls-6" d="M671.64,200a3.58,3.58,0,0,0,2.23-.74,2.39,2.39,0,0,0,1-2H676l0,.06a3.2,3.2,0,0,1-1.27,2.71,4.72,4.72,0,0,1-3.08,1.08,4.36,4.36,0,0,1-3.64-1.63,6.55,6.55,0,0,1-1.29-4.19v-.46a6.53,6.53,0,0,1,1.29-4.17,4.36,4.36,0,0,1,3.63-1.64,5.8,5.8,0,0,1,2.44.51,4.85,4.85,0,0,1,1.8,1.37l0,2.55h-1.09l-.2-2.07a3.58,3.58,0,0,0-1.27-.92,4.17,4.17,0,0,0-1.73-.34,3.07,3.07,0,0,0-2.75,1.34,6,6,0,0,0-.89,3.37v.46a6,6,0,0,0,.89,3.4A3.07,3.07,0,0,0,671.64,200Z"/><path class="cls-6" d="M678,185.05v-1h3v7.14a4.32,4.32,0,0,1,1.54-1.63,4.2,4.2,0,0,1,2.24-.58,3.47,3.47,0,0,1,2.79,1.14,5.36,5.36,0,0,1,1,3.54v6.1l1.73.14v.95h-4.75v-.95l1.74-.14v-6.12a4.06,4.06,0,0,0-.74-2.72,2.62,2.62,0,0,0-2-.82,3.41,3.41,0,0,0-2.19.69,4.08,4.08,0,0,0-1.3,1.85v7.12l1.74.14v.95H678v-.95l1.73-.14V185.19Z"/><path class="cls-6" d="M700.16,200.89c-.08-.4-.14-.74-.18-1a8.14,8.14,0,0,1-.05-.87,5.15,5.15,0,0,1-1.71,1.52,4.79,4.79,0,0,1-2.39.6,3.67,3.67,0,0,1-2.63-.88,3.18,3.18,0,0,1-.92-2.39,3,3,0,0,1,1.37-2.56,6.42,6.42,0,0,1,3.73-.95h2.55v-1.54a2.5,2.5,0,0,0-.8-2,3.2,3.2,0,0,0-2.22-.71,5.69,5.69,0,0,0-1.75.26,4.12,4.12,0,0,0-1.33.72l-.1,1.56h-1.06v-2.24a6.53,6.53,0,0,1,1.91-1A7.2,7.2,0,0,1,697,189a4.63,4.63,0,0,1,3.07,1,3.48,3.48,0,0,1,1.16,2.81v5.73c0,.24,0,.46,0,.68a6.27,6.27,0,0,0,.07.64l1.15.08v.95ZM696,200a4.56,4.56,0,0,0,2.44-.64,3.82,3.82,0,0,0,1.53-1.67v-2.34h-2.57a4.74,4.74,0,0,0-2.78.73,2.16,2.16,0,0,0-1,1.83,2,2,0,0,0,.65,1.52A2.58,2.58,0,0,0,696,200Z"/><path class="cls-6" d="M704,190.19v-.95h2.86l.12,1.92a4,4,0,0,1,1.48-1.58,4.24,4.24,0,0,1,2.21-.56,3.32,3.32,0,0,1,3.47,2.64,4.55,4.55,0,0,1,1.49-1.93A3.81,3.81,0,0,1,718,189a3.45,3.45,0,0,1,2.85,1.24,6,6,0,0,1,1,3.83v5.7l1.73.15v.95h-4.76v-.95l1.74-.15v-5.72a4.74,4.74,0,0,0-.75-3,2.62,2.62,0,0,0-2.1-.89,2.81,2.81,0,0,0-2.29,1,4.61,4.61,0,0,0-1,2.44v.16a1.15,1.15,0,0,1,0,.2v5.9l1.74.14v.95h-4.76v-.95l1.74-.14v-5.73a4.71,4.71,0,0,0-.76-3,2.59,2.59,0,0,0-2.1-.91,3.17,3.17,0,0,0-2.15.69A3.8,3.8,0,0,0,707,192.7v7.1l1.74.14v.95H704v-.95l1.73-.14v-9.47Z"/><path class="cls-6" d="M733.08,200.89c-.08-.4-.14-.74-.18-1a6.17,6.17,0,0,1,0-.87,5.15,5.15,0,0,1-1.71,1.52,4.8,4.8,0,0,1-2.4.6,3.64,3.64,0,0,1-2.62-.88,3.14,3.14,0,0,1-.92-2.39,2.94,2.94,0,0,1,1.37-2.56,6.42,6.42,0,0,1,3.73-.95h2.55v-1.54a2.5,2.5,0,0,0-.8-2,3.23,3.23,0,0,0-2.22-.71,5.69,5.69,0,0,0-1.75.26,4.12,4.12,0,0,0-1.33.72l-.11,1.56h-1v-2.24a6.53,6.53,0,0,1,1.91-1,7.14,7.14,0,0,1,2.37-.39,4.6,4.6,0,0,1,3.07,1,3.46,3.46,0,0,1,1.17,2.81v5.73c0,.24,0,.46,0,.68a4.32,4.32,0,0,0,.07.64l1.15.08v.95Zm-4.2-.92a4.56,4.56,0,0,0,2.44-.64,3.88,3.88,0,0,0,1.53-1.67v-2.34h-2.57a4.74,4.74,0,0,0-2.78.73,2.16,2.16,0,0,0-1,1.83,2,2,0,0,0,.65,1.52A2.58,2.58,0,0,0,728.88,200Z"/><path class="cls-6" d="M736.89,190.19v-.95h2.86l.12,1.92a4,4,0,0,1,1.48-1.58,4.22,4.22,0,0,1,2.21-.56,3.32,3.32,0,0,1,3.47,2.64,4.47,4.47,0,0,1,1.49-1.93,3.79,3.79,0,0,1,2.35-.71,3.45,3.45,0,0,1,2.85,1.24,6,6,0,0,1,1,3.83v5.7l1.74.15v.95H751.7v-.95l1.74-.15v-5.72a4.74,4.74,0,0,0-.76-3,2.59,2.59,0,0,0-2.09-.89,2.83,2.83,0,0,0-2.3,1,4.6,4.6,0,0,0-1,2.44v.16a1.15,1.15,0,0,1,0,.2v5.9l1.73.14v.95h-4.75v-.95l1.74-.14v-5.73a4.77,4.77,0,0,0-.76-3,2.59,2.59,0,0,0-2.1-.91,3.18,3.18,0,0,0-2.16.69,3.79,3.79,0,0,0-1.11,1.87v7.1l1.74.14v.95h-4.75v-.95l1.73-.14v-9.47Z"/><path class="cls-6" d="M771.36,199.21a4,4,0,0,1-1.48,1.41,4.41,4.41,0,0,1-2.13.49,3.82,3.82,0,0,1-3.24-1.56,6.79,6.79,0,0,1-1.17-4.17v-.22a7.68,7.68,0,0,1,1.17-4.47,3.77,3.77,0,0,1,3.26-1.67,4.12,4.12,0,0,1,2.09.51,4.19,4.19,0,0,1,1.47,1.46v-5.8l-1.74-.14v-1h3V199.8l1.73.14v.95h-2.87Zm-6.73-3.83a5.93,5.93,0,0,0,.84,3.36A2.82,2.82,0,0,0,768,200a3.51,3.51,0,0,0,2-.56,3.7,3.7,0,0,0,1.29-1.54v-5.51a4.16,4.16,0,0,0-1.23-1.62,3.35,3.35,0,0,0-2.09-.62,2.77,2.77,0,0,0-2.53,1.39,7,7,0,0,0-.85,3.63Z"/><path class="cls-6" d="M781.39,201.11a4.61,4.61,0,0,1-3.61-1.61,5.94,5.94,0,0,1-1.42-4.09v-.6a6.11,6.11,0,0,1,1.42-4.14,4.38,4.38,0,0,1,3.44-1.65,4.23,4.23,0,0,1,3.33,1.36,5.22,5.22,0,0,1,1.22,3.62v1.09h-8.14v.32a5.21,5.21,0,0,0,1,3.29,3.32,3.32,0,0,0,2.73,1.33,5.54,5.54,0,0,0,2-.34,4,4,0,0,0,1.44-1l.54.89a4.58,4.58,0,0,1-1.64,1.09A6.23,6.23,0,0,1,781.39,201.11Zm-.17-11a3.06,3.06,0,0,0-2.38,1.09,4.74,4.74,0,0,0-1.12,2.74l0,.06h6.76v-.33a3.75,3.75,0,0,0-.89-2.54A3,3,0,0,0,781.22,190.12Z"/><path class="cls-6" d="M415.41,211.67a5.29,5.29,0,0,1,3.78,1.26,4.33,4.33,0,0,1,1.34,3.32,4.38,4.38,0,0,1-1.34,3.34,5.34,5.34,0,0,1-3.78,1.25h-3.54v5.42l1.74.14v.95h-4.74v-.95l1.74-.14V212.77l-1.74-.14v-1h6.54Zm-3.54,8.07h3.54a3.84,3.84,0,0,0,2.88-1,3.36,3.36,0,0,0,1-2.48,3.46,3.46,0,0,0-1-2.5,3.81,3.81,0,0,0-2.89-1h-3.54Z"/><path class="cls-6" d="M427.69,227.58a4.61,4.61,0,0,1-3.6-1.61,5.92,5.92,0,0,1-1.43-4.1v-.59a6.11,6.11,0,0,1,1.42-4.15,4.38,4.38,0,0,1,3.44-1.65,4.26,4.26,0,0,1,3.33,1.36,5.23,5.23,0,0,1,1.22,3.62v1.1h-8.14v.31a5.14,5.14,0,0,0,1,3.29,3.28,3.28,0,0,0,2.72,1.33,5.51,5.51,0,0,0,2-.33,4.23,4.23,0,0,0,1.44-1l.55.88a4.71,4.71,0,0,1-1.65,1.09A6.23,6.23,0,0,1,427.69,227.58Zm-.17-11a3,3,0,0,0-2.37,1.1,4.69,4.69,0,0,0-1.13,2.74l0,.05h6.76v-.32a3.79,3.79,0,0,0-.88-2.54A3,3,0,0,0,427.52,216.58Z"/><path class="cls-6" d="M434.11,226.4l1.74-.14V216.8l-1.74-.14v-1H437l.12,2a4,4,0,0,1,3.73-2.26,3.52,3.52,0,0,1,2.85,1.16,5.48,5.48,0,0,1,1,3.61v6l1.74.14v.95h-4.75v-.95l1.73-.14v-6a4.24,4.24,0,0,0-.74-2.84,2.67,2.67,0,0,0-2.1-.83,3.25,3.25,0,0,0-2.19.72,4,4,0,0,0-1.22,1.9v7l1.74.14v.95h-4.76Z"/><path class="cls-6" d="M456.77,219.3h-1l-.14-1.65a3.3,3.3,0,0,0-1.21-.79,4.85,4.85,0,0,0-1.68-.28,3.17,3.17,0,0,0-2.1.61,1.86,1.86,0,0,0-.69,1.43,1.69,1.69,0,0,0,.6,1.33,5.74,5.74,0,0,0,2.4.93,7.75,7.75,0,0,1,3.08,1.27,2.62,2.62,0,0,1,1,2.18,2.85,2.85,0,0,1-1.16,2.35,4.93,4.93,0,0,1-3.09.9,7.16,7.16,0,0,1-2.33-.36,5.43,5.43,0,0,1-1.81-1v-2.35h1l.18,1.66a3,3,0,0,0,1.3.75,5.84,5.84,0,0,0,1.63.23,3.54,3.54,0,0,0,2.19-.61,1.84,1.84,0,0,0,.8-1.49,1.9,1.9,0,0,0-.67-1.43,5.28,5.28,0,0,0-2.4-1,8.19,8.19,0,0,1-3.06-1.2,2.48,2.48,0,0,1-1-2.1,2.79,2.79,0,0,1,1.12-2.25,4.46,4.46,0,0,1,2.95-.93,6.64,6.64,0,0,1,2.32.4,4.57,4.57,0,0,1,1.71,1.06Z"/><path class="cls-6" d="M467.29,227.35a8.53,8.53,0,0,1-.18-1,6.36,6.36,0,0,1-.06-.87,5,5,0,0,1-1.7,1.51,4.71,4.71,0,0,1-2.4.61,3.65,3.65,0,0,1-2.62-.89,3.12,3.12,0,0,1-.93-2.39,3,3,0,0,1,1.38-2.56,6.48,6.48,0,0,1,3.73-1h2.54v-1.54a2.5,2.5,0,0,0-.79-2,3.23,3.23,0,0,0-2.22-.71,5.46,5.46,0,0,0-1.76.27,3.78,3.78,0,0,0-1.32.71l-.11,1.57H459.8v-2.25a6.78,6.78,0,0,1,1.91-1,7.1,7.1,0,0,1,2.37-.39,4.63,4.63,0,0,1,3.07,1,3.5,3.5,0,0,1,1.16,2.82V225c0,.24,0,.47,0,.69a4.48,4.48,0,0,0,.07.64l1.15.07v.95Zm-4.2-.91a4.59,4.59,0,0,0,2.44-.65,3.81,3.81,0,0,0,1.52-1.67v-2.34h-2.57a4.78,4.78,0,0,0-2.77.73,2.19,2.19,0,0,0-1,1.84,1.92,1.92,0,0,0,.64,1.51A2.59,2.59,0,0,0,463.09,226.44Z"/><path class="cls-6" d="M471.09,216.66v-1H474l.12,1.93a4.06,4.06,0,0,1,1.48-1.59,4.18,4.18,0,0,1,2.2-.56,3.35,3.35,0,0,1,3.48,2.64,4.45,4.45,0,0,1,1.48-1.93,3.9,3.9,0,0,1,2.35-.71,3.48,3.48,0,0,1,2.85,1.24,6.06,6.06,0,0,1,1,3.84v5.69l1.74.15v.95H485.9v-.95l1.74-.15v-5.71a4.78,4.78,0,0,0-.75-3,2.6,2.6,0,0,0-2.09-.89,2.83,2.83,0,0,0-2.3,1,4.65,4.65,0,0,0-1,2.45.81.81,0,0,0,0,.16v6.09l1.74.14v.95H478.5v-.95l1.74-.14v-5.72a4.73,4.73,0,0,0-.77-3,2.6,2.6,0,0,0-2.09-.91,3.19,3.19,0,0,0-2.16.7,3.63,3.63,0,0,0-1.11,1.87v7.09l1.73.14v.95h-4.75v-.95l1.74-.14V216.8Z"/><path class="cls-6" d="M497.22,227.58a4.61,4.61,0,0,1-3.6-1.61,6,6,0,0,1-1.43-4.1v-.59a6.16,6.16,0,0,1,1.42-4.15,4.4,4.4,0,0,1,3.44-1.65,4.28,4.28,0,0,1,3.34,1.36,5.23,5.23,0,0,1,1.21,3.62v1.1h-8.14v.31a5.2,5.2,0,0,0,1,3.29,3.28,3.28,0,0,0,2.72,1.33,5.61,5.61,0,0,0,2-.33,4.09,4.09,0,0,0,1.43-1l.55.88a4.66,4.66,0,0,1-1.64,1.09A6.25,6.25,0,0,1,497.22,227.58Zm-.17-11a3,3,0,0,0-2.37,1.1,4.68,4.68,0,0,0-1.12,2.74l0,.05h6.75v-.32a3.74,3.74,0,0,0-.88-2.54A3,3,0,0,0,497.05,216.58Z"/><path class="cls-6" d="M503.65,226.4l1.73-.14V216.8l-1.73-.14v-1h2.86l.12,2a4,4,0,0,1,3.73-2.26,3.56,3.56,0,0,1,2.86,1.16,5.54,5.54,0,0,1,1,3.61v6l1.73.14v.95h-4.75v-.95l1.74-.14v-6a4.3,4.3,0,0,0-.74-2.84,2.7,2.7,0,0,0-2.11-.83,3.28,3.28,0,0,0-2.19.72,4,4,0,0,0-1.22,1.9v7l1.74.14v.95h-4.75Z"/><path class="cls-6" d="M520.87,212.72v3h2.53v1.06h-2.53v7.59a2.46,2.46,0,0,0,.41,1.62,1.36,1.36,0,0,0,1.09.48,5.74,5.74,0,0,0,.6,0l.68-.09.19,1a3.36,3.36,0,0,1-.78.21,5.59,5.59,0,0,1-.91.08,2.4,2.4,0,0,1-1.9-.78,3.66,3.66,0,0,1-.67-2.45v-7.59h-2V215.7h2v-3Z"/><path class="cls-6" d="M525.54,221.35a6.31,6.31,0,0,1,1.39-4.22,5,5,0,0,1,7.41,0,6.31,6.31,0,0,1,1.39,4.22v.36a6.32,6.32,0,0,1-1.39,4.23,4.59,4.59,0,0,1-3.69,1.64,4.65,4.65,0,0,1-3.72-1.64,6.32,6.32,0,0,1-1.39-4.23Zm1.27.36a5.55,5.55,0,0,0,1,3.4,3.54,3.54,0,0,0,5.61,0,5.55,5.55,0,0,0,1-3.4v-.36a5.58,5.58,0,0,0-1-3.38,3.53,3.53,0,0,0-5.61,0,5.58,5.58,0,0,0-1,3.38Z"/><path class="cls-6" d="M555.19,216.58h-1L554,214.2a4.63,4.63,0,0,0-1.61-1.2,5.47,5.47,0,0,0-2.29-.46,5,5,0,0,0-4.13,1.92,7.59,7.59,0,0,0-1.54,4.93v.23a7.75,7.75,0,0,0,1.52,4.95,4.84,4.84,0,0,0,4,1.92,5.91,5.91,0,0,0,2.38-.46,4.32,4.32,0,0,0,1.68-1.2l.18-2.38h1v2.76a5.52,5.52,0,0,1-2.11,1.69,7.07,7.07,0,0,1-3.12.68,6.1,6.1,0,0,1-4.88-2.24,8.49,8.49,0,0,1-1.9-5.72v-.2a8.58,8.58,0,0,1,1.89-5.74,6.18,6.18,0,0,1,4.95-2.23,6.75,6.75,0,0,1,3.09.68,5.58,5.58,0,0,1,2.08,1.7Z"/><path class="cls-6" d="M557.49,221.35a6.32,6.32,0,0,1,1.4-4.22,5,5,0,0,1,7.41,0,6.31,6.31,0,0,1,1.39,4.22v.36a6.32,6.32,0,0,1-1.39,4.23,4.6,4.6,0,0,1-3.69,1.64,4.65,4.65,0,0,1-3.72-1.64,6.33,6.33,0,0,1-1.4-4.23Zm1.28.36a5.55,5.55,0,0,0,1,3.4,3.54,3.54,0,0,0,5.61,0,5.55,5.55,0,0,0,1-3.4v-.36a5.57,5.57,0,0,0-1-3.38,3.31,3.31,0,0,0-2.81-1.39,3.27,3.27,0,0,0-2.8,1.39,5.58,5.58,0,0,0-1,3.38Z"/><path class="cls-6" d="M569.49,216.66v-1h2.87l.12,1.93A4.13,4.13,0,0,1,574,216a4.22,4.22,0,0,1,2.21-.56,3.35,3.35,0,0,1,3.47,2.64,4.47,4.47,0,0,1,1.49-1.93,3.86,3.86,0,0,1,2.35-.71,3.51,3.51,0,0,1,2.85,1.24,6.06,6.06,0,0,1,1,3.84v5.69l1.74.15v.95h-4.76v-.95l1.73-.15v-5.71a4.78,4.78,0,0,0-.75-3,2.6,2.6,0,0,0-2.09-.89,2.83,2.83,0,0,0-2.3,1,4.64,4.64,0,0,0-1,2.45v.16c0,.05,0,.11,0,.19v5.9l1.73.14v.95H576.9v-.95l1.74-.14v-5.72a4.8,4.8,0,0,0-.76-3,2.62,2.62,0,0,0-2.1-.91,3.19,3.19,0,0,0-2.16.7,3.63,3.63,0,0,0-1.11,1.87v7.09l1.74.14v.95h-4.76v-.95l1.74-.14V216.8Z"/><path class="cls-6" d="M590.31,216.66v-1h2.8l.16,1.81a4,4,0,0,1,3.63-2,3.74,3.74,0,0,1,3.25,1.68,7.65,7.65,0,0,1,1.18,4.46v.23a6.79,6.79,0,0,1-1.18,4.17,3.82,3.82,0,0,1-3.23,1.56,4.6,4.6,0,0,1-2.12-.47,3.9,3.9,0,0,1-1.49-1.33v4.95l1.74.14v1h-4.74v-1l1.73-.14V216.8Zm9.74,5a6.78,6.78,0,0,0-.88-3.62,2.83,2.83,0,0,0-2.56-1.4,3.35,3.35,0,0,0-2.09.62,3.82,3.82,0,0,0-1.21,1.61v5.6a3.47,3.47,0,0,0,1.26,1.51,3.63,3.63,0,0,0,2.07.55,2.88,2.88,0,0,0,2.54-1.27,5.87,5.87,0,0,0,.87-3.37Z"/><path class="cls-6" d="M611.88,225.43a4,4,0,0,1-1.49,1.59,4.31,4.31,0,0,1-2.22.56,3.48,3.48,0,0,1-2.85-1.25,6,6,0,0,1-1-3.88V216.8l-1.43-.14v-1h2.7v6.77a5.07,5.07,0,0,0,.71,3.06,2.44,2.44,0,0,0,2.05.93,3.74,3.74,0,0,0,2.3-.65,3.38,3.38,0,0,0,1.21-1.79V216.8l-1.64-.14v-1h2.92v10.56l1.55.14v.95H612Z"/><path class="cls-6" d="M619.46,212.72v3H622v1.06h-2.54v7.59a2.52,2.52,0,0,0,.41,1.62,1.38,1.38,0,0,0,1.09.48,6.08,6.08,0,0,0,.61,0l.67-.09.2,1a3.66,3.66,0,0,1-.78.21,5.72,5.72,0,0,1-.92.08,2.37,2.37,0,0,1-1.89-.78,3.66,3.66,0,0,1-.68-2.45v-7.59h-2V215.7h2v-3Z"/><path class="cls-6" d="M632.3,227.35q-.12-.58-.18-1a8.46,8.46,0,0,1,0-.87,5.12,5.12,0,0,1-1.71,1.51,4.7,4.7,0,0,1-2.39.61,3.67,3.67,0,0,1-2.63-.89,3.15,3.15,0,0,1-.92-2.39,3,3,0,0,1,1.37-2.56,6.5,6.5,0,0,1,3.73-1h2.55v-1.54a2.54,2.54,0,0,0-.79-2,3.24,3.24,0,0,0-2.23-.71,5.4,5.4,0,0,0-1.75.27,3.92,3.92,0,0,0-1.33.71l-.1,1.57h-1.06v-2.25a6.84,6.84,0,0,1,1.92-1,7.1,7.1,0,0,1,2.37-.39,4.63,4.63,0,0,1,3.07,1,3.5,3.5,0,0,1,1.16,2.82V225c0,.24,0,.47,0,.69s0,.43.07.64l1.15.07v.95Zm-4.19-.91a4.55,4.55,0,0,0,2.43-.65,3.77,3.77,0,0,0,1.53-1.67v-2.34H629.5a4.82,4.82,0,0,0-2.78.73,2.18,2.18,0,0,0-1,1.84,1.92,1.92,0,0,0,.64,1.51A2.59,2.59,0,0,0,628.11,226.44Z"/><path class="cls-6" d="M641.31,226.49a3.62,3.62,0,0,0,2.24-.73,2.43,2.43,0,0,0,1-2h1.13l0,.07a3.23,3.23,0,0,1-1.28,2.7,4.73,4.73,0,0,1-3.08,1.09,4.4,4.4,0,0,1-3.64-1.63,6.64,6.64,0,0,1-1.29-4.2v-.45a6.62,6.62,0,0,1,1.29-4.18,4.36,4.36,0,0,1,3.63-1.64,5.76,5.76,0,0,1,2.44.51,4.82,4.82,0,0,1,1.8,1.38l.05,2.54h-1.08l-.21-2.07a3.75,3.75,0,0,0-1.27-.92,4.34,4.34,0,0,0-1.73-.34,3.08,3.08,0,0,0-2.75,1.34,6,6,0,0,0-.89,3.38v.45a6.09,6.09,0,0,0,.89,3.41A3.09,3.09,0,0,0,641.31,226.49Z"/><path class="cls-6" d="M648,226.4l1.74-.14V216.8l-1.74-.14v-1h3v10.56l1.74.14v.95H648Zm3-14H649.7v-1.81H651Z"/><path class="cls-6" d="M654.84,221.35a6.32,6.32,0,0,1,1.4-4.22,5,5,0,0,1,7.4,0,6.27,6.27,0,0,1,1.4,4.22v.36a6.32,6.32,0,0,1-1.39,4.23,5,5,0,0,1-7.41,0,6.33,6.33,0,0,1-1.4-4.23Zm1.28.36a5.62,5.62,0,0,0,1,3.4,3.32,3.32,0,0,0,2.83,1.38,3.28,3.28,0,0,0,2.79-1.38,5.62,5.62,0,0,0,1-3.4v-.36a5.58,5.58,0,0,0-1-3.38,3.53,3.53,0,0,0-5.61,0,5.64,5.64,0,0,0-1,3.38Z"/><path class="cls-6" d="M666.88,226.4l1.74-.14V216.8l-1.74-.14v-1h2.87l.12,2a4,4,0,0,1,3.73-2.26,3.52,3.52,0,0,1,2.85,1.16,5.48,5.48,0,0,1,1,3.61v6l1.74.14v.95h-4.75v-.95l1.74-.14v-6a4.3,4.3,0,0,0-.74-2.84,2.7,2.7,0,0,0-2.11-.83,3.27,3.27,0,0,0-2.19.72,4,4,0,0,0-1.22,1.9v7l1.74.14v.95h-4.76Z"/><path class="cls-6" d="M689.13,227.35q-.12-.58-.18-1a8.46,8.46,0,0,1-.05-.87,5.09,5.09,0,0,1-1.7,1.51,4.73,4.73,0,0,1-2.4.61,3.63,3.63,0,0,1-2.62-.89,3.12,3.12,0,0,1-.93-2.39,3,3,0,0,1,1.37-2.56,6.5,6.5,0,0,1,3.73-1h2.55v-1.54a2.5,2.5,0,0,0-.79-2,3.24,3.24,0,0,0-2.23-.71,5.44,5.44,0,0,0-1.75.27,3.92,3.92,0,0,0-1.33.71l-.1,1.57h-1.06v-2.25a6.84,6.84,0,0,1,1.92-1,7.1,7.1,0,0,1,2.37-.39,4.63,4.63,0,0,1,3.07,1,3.5,3.5,0,0,1,1.16,2.82V225c0,.24,0,.47,0,.69s0,.43.07.64l1.15.07v.95Zm-4.19-.91a4.61,4.61,0,0,0,2.44-.65,3.81,3.81,0,0,0,1.52-1.67v-2.34h-2.57a4.76,4.76,0,0,0-2.77.73,2.17,2.17,0,0,0-1,1.84,1.92,1.92,0,0,0,.64,1.51A2.59,2.59,0,0,0,684.94,226.44Z"/><path class="cls-6" d="M693,211.51v-1h3v15.71l1.73.14v.95H693v-.95l1.74-.14V211.65Z"/><path class="cls-6" d="M701.69,227.35h-1.46v-1.76h1.46Z"/><path class="cls-6" d="M719.08,219.76h-6.36v6.5h7.33l.1-2.34h1.13v3.43H709.71v-.95l1.74-.14V212.77l-1.74-.14v-1h11.51v3.45h-1.13l-.09-2.35h-7.28v5.89h6.36Z"/><path class="cls-6" d="M737,227.35q-.12-.58-.18-1a6.35,6.35,0,0,1,0-.87A5.12,5.12,0,0,1,735,227a4.71,4.71,0,0,1-2.4.61,3.65,3.65,0,0,1-2.62-.89,3.11,3.11,0,0,1-.92-2.39,3,3,0,0,1,1.37-2.56,6.5,6.5,0,0,1,3.73-1h2.55v-1.54a2.51,2.51,0,0,0-.8-2,3.23,3.23,0,0,0-2.22-.71,5.4,5.4,0,0,0-1.75.27,3.92,3.92,0,0,0-1.33.71l-.11,1.57h-1v-2.25a6.78,6.78,0,0,1,1.91-1,7.14,7.14,0,0,1,2.37-.39,4.6,4.6,0,0,1,3.07,1,3.48,3.48,0,0,1,1.17,2.82V225c0,.24,0,.47,0,.69a4.48,4.48,0,0,0,.07.64l1.15.07v.95Zm-4.2-.91a4.56,4.56,0,0,0,2.44-.65,3.83,3.83,0,0,0,1.53-1.67v-2.34h-2.57a4.82,4.82,0,0,0-2.78.73,2.19,2.19,0,0,0-1,1.84,1.93,1.93,0,0,0,.65,1.51A2.58,2.58,0,0,0,732.76,226.44Z"/><path class="cls-6" d="M740.81,226.4l1.73-.14V216.8l-1.73-.14v-1h2.86l.12,2a4,4,0,0,1,3.73-2.26,3.56,3.56,0,0,1,2.86,1.16,5.54,5.54,0,0,1,1,3.61v6l1.73.14v.95h-4.75v-.95l1.74-.14v-6a4.3,4.3,0,0,0-.74-2.84,2.7,2.7,0,0,0-2.11-.83,3.28,3.28,0,0,0-2.19.72,4,4,0,0,0-1.22,1.9v7l1.74.14v.95h-4.75Z"/><path class="cls-6" d="M758,212.72v3h2.54v1.06H758v7.59a2.52,2.52,0,0,0,.41,1.62,1.36,1.36,0,0,0,1.09.48,5.74,5.74,0,0,0,.6,0l.68-.09.19,1a3.36,3.36,0,0,1-.78.21,5.59,5.59,0,0,1-.91.08,2.37,2.37,0,0,1-1.89-.78,3.6,3.6,0,0,1-.68-2.45v-7.59h-2V215.7h2v-3Z"/><path class="cls-6" d="M768,227.58a4.61,4.61,0,0,1-3.6-1.61,6,6,0,0,1-1.43-4.1v-.59a6.12,6.12,0,0,1,1.43-4.15,4.36,4.36,0,0,1,3.43-1.65,4.27,4.27,0,0,1,3.34,1.36,5.23,5.23,0,0,1,1.21,3.62v1.1h-8.14v.31a5.2,5.2,0,0,0,1,3.29,3.28,3.28,0,0,0,2.72,1.33,5.57,5.57,0,0,0,2-.33,4.23,4.23,0,0,0,1.44-1l.54.88a4.58,4.58,0,0,1-1.64,1.09A6.25,6.25,0,0,1,768,227.58Zm-.17-11a3,3,0,0,0-2.37,1.1,4.68,4.68,0,0,0-1.12,2.74l0,.05h6.75v-.32a3.74,3.74,0,0,0-.88-2.54A3,3,0,0,0,767.82,216.58Z"/><path class="cls-6" d="M783,219.3h-1l-.14-1.65a3.39,3.39,0,0,0-1.21-.79,4.85,4.85,0,0,0-1.68-.28,3.17,3.17,0,0,0-2.1.61,1.87,1.87,0,0,0-.7,1.43,1.69,1.69,0,0,0,.61,1.33,5.74,5.74,0,0,0,2.4.93,7.75,7.75,0,0,1,3.08,1.27,2.62,2.62,0,0,1,1,2.18,2.85,2.85,0,0,1-1.16,2.35,4.93,4.93,0,0,1-3.09.9,7.16,7.16,0,0,1-2.33-.36,5.43,5.43,0,0,1-1.81-1v-2.35h1l.18,1.66a3,3,0,0,0,1.3.75,5.84,5.84,0,0,0,1.63.23,3.54,3.54,0,0,0,2.19-.61,1.83,1.83,0,0,0,.79-1.49,1.89,1.89,0,0,0-.66-1.43,5.33,5.33,0,0,0-2.4-1,8.19,8.19,0,0,1-3.06-1.2,2.48,2.48,0,0,1-1-2.1,2.79,2.79,0,0,1,1.12-2.25,4.44,4.44,0,0,1,3-.93,6.59,6.59,0,0,1,2.31.4,4.57,4.57,0,0,1,1.71,1.06Z"/><path class="cls-6" d="M409.15,248.09a7.76,7.76,0,0,1,1.16-4.47,3.77,3.77,0,0,1,3.26-1.67,4.17,4.17,0,0,1,2.07.5,4,4,0,0,1,1.47,1.44l.12-1.73h1.12v15l1.74.14v1h-4.75v-1l1.73-.14v-4.91a4,4,0,0,1-1.47,1.3,4.45,4.45,0,0,1-2.05.45,3.82,3.82,0,0,1-3.24-1.56,6.85,6.85,0,0,1-1.16-4.17Zm1.29.22a6,6,0,0,0,.83,3.38,2.83,2.83,0,0,0,2.52,1.26,3.55,3.55,0,0,0,2-.54,3.64,3.64,0,0,0,1.27-1.49v-5.69a4.09,4.09,0,0,0-1.24-1.57,3.2,3.2,0,0,0-2-.61,2.78,2.78,0,0,0-2.53,1.4,7,7,0,0,0-.84,3.64Z"/><path class="cls-6" d="M429.81,251.9a3.92,3.92,0,0,1-1.49,1.58,4.31,4.31,0,0,1-2.22.56,3.48,3.48,0,0,1-2.85-1.25,6,6,0,0,1-1-3.87v-5.66l-1.43-.14v-1h2.7v6.78a5.06,5.06,0,0,0,.72,3.06,2.45,2.45,0,0,0,2,.92,3.75,3.75,0,0,0,2.31-.64,3.52,3.52,0,0,0,1.21-1.79v-7.23l-1.64-.14v-1h2.92v10.57l1.54.14v.95h-2.66Z"/><path class="cls-6" d="M439.55,254a4.61,4.61,0,0,1-3.6-1.61,6,6,0,0,1-1.43-4.1v-.59a6.09,6.09,0,0,1,1.42-4.14,4.4,4.4,0,0,1,3.44-1.65,4.23,4.23,0,0,1,3.33,1.36,5.21,5.21,0,0,1,1.22,3.61V248h-8.14v.31a5.12,5.12,0,0,0,1,3.29,3.28,3.28,0,0,0,2.72,1.33,5.51,5.51,0,0,0,2-.33,3.8,3.8,0,0,0,1.44-1l.55.88a4.69,4.69,0,0,1-1.64,1.1A6.29,6.29,0,0,1,439.55,254Zm-.17-11a3,3,0,0,0-2.37,1.09,4.75,4.75,0,0,0-1.13,2.74l0,.05h6.75v-.32a3.74,3.74,0,0,0-.88-2.54A3,3,0,0,0,439.38,243.05Z"/><path class="cls-6" d="M451.17,243.12v-1H454l.16,1.81a4,4,0,0,1,3.63-2,3.75,3.75,0,0,1,3.25,1.67,7.68,7.68,0,0,1,1.17,4.47v.22a6.8,6.8,0,0,1-1.17,4.18,3.83,3.83,0,0,1-3.23,1.55,4.45,4.45,0,0,1-2.12-.47,3.82,3.82,0,0,1-1.49-1.33v5l1.74.14v1h-4.75v-1l1.74-.14V243.26Zm9.75,5a6.76,6.76,0,0,0-.88-3.62,2.83,2.83,0,0,0-2.56-1.4,3.35,3.35,0,0,0-2.09.62,3.76,3.76,0,0,0-1.21,1.61v5.6a3.44,3.44,0,0,0,1.26,1.5,3.62,3.62,0,0,0,2.06.55,2.89,2.89,0,0,0,2.55-1.27,5.85,5.85,0,0,0,.87-3.37Z"/><path class="cls-6" d="M469.36,254a4.65,4.65,0,0,1-3.61-1.61,6,6,0,0,1-1.42-4.1v-.59a6.09,6.09,0,0,1,1.42-4.14,4.38,4.38,0,0,1,3.43-1.65,4.23,4.23,0,0,1,3.34,1.36,5.21,5.21,0,0,1,1.22,3.61V248h-8.15v.31a5.18,5.18,0,0,0,1,3.29,3.3,3.3,0,0,0,2.73,1.33,5.55,5.55,0,0,0,2-.33,4,4,0,0,0,1.44-1l.54.88a4.6,4.6,0,0,1-1.64,1.1A6.23,6.23,0,0,1,469.36,254Zm-.18-11a3.05,3.05,0,0,0-2.37,1.09,4.74,4.74,0,0,0-1.12,2.74l0,.05h6.76v-.32a3.75,3.75,0,0,0-.89-2.54A3,3,0,0,0,469.18,243.05Z"/><path class="cls-6" d="M478.78,242.16l.15,1.94v.14a4.12,4.12,0,0,1,1.34-1.68,3.35,3.35,0,0,1,2-.61,2.59,2.59,0,0,1,.48,0,2.33,2.33,0,0,1,.37.08l-.17,1.2-.95-.06a2.88,2.88,0,0,0-2,.68,3.83,3.83,0,0,0-1.11,1.88v7l1.74.14v.95h-4.74v-.95l1.74-.14v-9.47l-1.74-.14v-1h2.85Z"/><path class="cls-6" d="M484.64,248.09a7.68,7.68,0,0,1,1.17-4.47,3.8,3.8,0,0,1,3.27-1.67,4.06,4.06,0,0,1,2.13.54,4.38,4.38,0,0,1,1.48,1.54l.15-1.87h1.08v11.51a5,5,0,0,1-1.21,3.55,4.33,4.33,0,0,1-3.35,1.3,8.82,8.82,0,0,1-1.78-.2,7.32,7.32,0,0,1-1.64-.56l.34-1.09a7.8,7.8,0,0,0,1.45.52,7,7,0,0,0,1.61.18,3.08,3.08,0,0,0,2.47-1,4.09,4.09,0,0,0,.83-2.72v-1.48a4,4,0,0,1-1.48,1.37,4.4,4.4,0,0,1-2.1.48,3.83,3.83,0,0,1-3.25-1.56,6.79,6.79,0,0,1-1.17-4.17Zm1.28.22a6,6,0,0,0,.84,3.36,2.87,2.87,0,0,0,2.53,1.25,3.57,3.57,0,0,0,2.08-.57,3.68,3.68,0,0,0,1.27-1.57v-5.41a4,4,0,0,0-1.23-1.66,3.22,3.22,0,0,0-2.09-.64,2.8,2.8,0,0,0-2.55,1.4,6.86,6.86,0,0,0-.85,3.62Z"/><path class="cls-6" d="M505.29,251.9a3.92,3.92,0,0,1-1.49,1.58,4.31,4.31,0,0,1-2.22.56,3.48,3.48,0,0,1-2.85-1.25,6,6,0,0,1-1-3.87v-5.66l-1.43-.14v-1H499v6.78a5.06,5.06,0,0,0,.72,3.06,2.45,2.45,0,0,0,2,.92,3.77,3.77,0,0,0,2.31-.64,3.52,3.52,0,0,0,1.21-1.79v-7.23l-1.64-.14v-1h2.92v10.57l1.54.14v.95h-2.66Z"/><path class="cls-6" d="M509.71,252.87l1.74-.14v-9.47l-1.74-.14v-1h2.87l.12,2a4,4,0,0,1,1.49-1.66,4.08,4.08,0,0,1,2.23-.59,3.5,3.5,0,0,1,2.86,1.16,5.52,5.52,0,0,1,1,3.61v6l1.74.14v.95h-4.75v-.95l1.73-.14v-6a4.2,4.2,0,0,0-.74-2.83,2.64,2.64,0,0,0-2.1-.83,3.25,3.25,0,0,0-2.19.72,3.92,3.92,0,0,0-1.22,1.9v7l1.73.14v.95h-4.75Z"/><path class="cls-6" d="M526.93,239.18v3h2.54v1.06h-2.54v7.59a2.52,2.52,0,0,0,.41,1.62,1.38,1.38,0,0,0,1.09.48,6.08,6.08,0,0,0,.61,0,4.79,4.79,0,0,0,.67-.09l.2,1a3.63,3.63,0,0,1-.78.22,5.7,5.7,0,0,1-.92.07,2.39,2.39,0,0,1-1.89-.77,3.71,3.71,0,0,1-.68-2.46v-7.59h-2v-1.06h2v-3Z"/><path class="cls-6" d="M536.9,254a4.65,4.65,0,0,1-3.61-1.61,6,6,0,0,1-1.42-4.1v-.59a6.09,6.09,0,0,1,1.42-4.14,4.38,4.38,0,0,1,3.44-1.65,4.23,4.23,0,0,1,3.33,1.36,5.21,5.21,0,0,1,1.22,3.61V248h-8.15v.31a5.18,5.18,0,0,0,1,3.29A3.3,3.3,0,0,0,536.9,253a5.55,5.55,0,0,0,2-.33,4,4,0,0,0,1.44-1l.54.88a4.6,4.6,0,0,1-1.64,1.1A6.23,6.23,0,0,1,536.9,254Zm-.17-11a3.06,3.06,0,0,0-2.38,1.09,4.74,4.74,0,0,0-1.12,2.74l0,.05H540v-.32a3.75,3.75,0,0,0-.89-2.54A3,3,0,0,0,536.73,243.05Z"/><path class="cls-6" d="M543.28,243.12v-1h2.87l.11,1.93a4.11,4.11,0,0,1,1.48-1.58A4.24,4.24,0,0,1,550,242a3.66,3.66,0,0,1,2.21.65,3.55,3.55,0,0,1,1.26,2,4.58,4.58,0,0,1,1.49-1.94,3.87,3.87,0,0,1,2.35-.7,3.45,3.45,0,0,1,2.85,1.24,6,6,0,0,1,1,3.83v5.7l1.74.15v.95h-4.77v-.95l1.74-.15V247a4.74,4.74,0,0,0-.75-3,2.58,2.58,0,0,0-2.1-.89,2.81,2.81,0,0,0-2.29,1,4.61,4.61,0,0,0-1,2.44.81.81,0,0,0,0,.16v6.1l1.74.14v.95h-4.75v-.95l1.73-.14V247a4.69,4.69,0,0,0-.76-3,2.58,2.58,0,0,0-2.09-.91,3.18,3.18,0,0,0-2.16.69,3.8,3.8,0,0,0-1.12,1.87v7.1l1.74.14v.95h-4.75v-.95l1.74-.14v-9.47Z"/><path class="cls-6" d="M566.29,253.3a5.07,5.07,0,0,1-.4,1.94,4.66,4.66,0,0,1-1.1,1.6l-.75-.56a5.64,5.64,0,0,0,.74-1.41,4.76,4.76,0,0,0,.24-1.55v-1.53h1.27Z"/><path class="cls-6" d="M577.17,254.77a4.09,4.09,0,0,1-.86,2.78,3,3,0,0,1-2.37,1,3.76,3.76,0,0,1-.61,0l-.59-.15.14-1.09.46.11a3.49,3.49,0,0,0,.52.05,1.83,1.83,0,0,0,1.5-.66,3.1,3.1,0,0,0,.53-2V243.26l-1.74-.14v-1h3Zm-.07-16h-1.28V237h1.28Z"/><path class="cls-6" d="M587.87,253.82a9,9,0,0,1-.18-1,6.25,6.25,0,0,1-.06-.87,5,5,0,0,1-1.7,1.52,4.8,4.8,0,0,1-2.4.6,3.64,3.64,0,0,1-2.62-.88,3.15,3.15,0,0,1-.93-2.39,3,3,0,0,1,1.38-2.56,6.37,6.37,0,0,1,3.72-1h2.55v-1.54a2.48,2.48,0,0,0-.79-2,3.19,3.19,0,0,0-2.22-.71,5.46,5.46,0,0,0-1.76.26,4,4,0,0,0-1.32.72l-.11,1.56h-1v-2.24a6.3,6.3,0,0,1,1.91-1,7.1,7.1,0,0,1,2.37-.39,4.63,4.63,0,0,1,3.07,1,3.48,3.48,0,0,1,1.16,2.81v5.73c0,.24,0,.46,0,.68a4.48,4.48,0,0,0,.07.64l1.15.08v.95Zm-4.2-.92a4.61,4.61,0,0,0,2.44-.65,3.75,3.75,0,0,0,1.52-1.67v-2.33h-2.57a4.78,4.78,0,0,0-2.77.72,2.17,2.17,0,0,0-1,1.84,1.91,1.91,0,0,0,.64,1.51A2.54,2.54,0,0,0,583.67,252.9Zm2.16-15.18h1.57l0,.06-2.65,2.8h-1.14Z"/><path class="cls-6" d="M600,242.16l.16,1.94v.14a4.12,4.12,0,0,1,1.34-1.68,3.35,3.35,0,0,1,2-.61,2.59,2.59,0,0,1,.48,0,2.33,2.33,0,0,1,.37.08l-.17,1.2-1-.06a2.88,2.88,0,0,0-2,.68,3.76,3.76,0,0,0-1.11,1.88v7l1.74.14v.95h-4.74v-.95l1.74-.14v-9.47l-1.74-.14v-1H600Z"/><path class="cls-6" d="M610.91,254a4.63,4.63,0,0,1-3.61-1.61,6,6,0,0,1-1.42-4.1v-.59a6.09,6.09,0,0,1,1.42-4.14,4.38,4.38,0,0,1,3.43-1.65,4.23,4.23,0,0,1,3.34,1.36,5.21,5.21,0,0,1,1.22,3.61V248h-8.15v.31a5.18,5.18,0,0,0,1,3.29,3.3,3.3,0,0,0,2.73,1.33,5.55,5.55,0,0,0,2-.33,4,4,0,0,0,1.44-1l.54.88a4.6,4.6,0,0,1-1.64,1.1A6.23,6.23,0,0,1,610.91,254Zm-.18-11a3.05,3.05,0,0,0-2.37,1.09,4.74,4.74,0,0,0-1.12,2.74l0,.05H614v-.32a3.75,3.75,0,0,0-.89-2.54A3,3,0,0,0,610.73,243.05Z"/><path class="cls-6" d="M625.93,245.76h-1l-.15-1.65a3.28,3.28,0,0,0-1.21-.78,4.62,4.62,0,0,0-1.68-.28,3.12,3.12,0,0,0-2.1.61,1.84,1.84,0,0,0-.69,1.42,1.71,1.71,0,0,0,.6,1.34,5.76,5.76,0,0,0,2.4.92,7.75,7.75,0,0,1,3.08,1.27,2.63,2.63,0,0,1,1,2.18,2.82,2.82,0,0,1-1.17,2.35,4.93,4.93,0,0,1-3.09.9,7.16,7.16,0,0,1-2.33-.36,5.43,5.43,0,0,1-1.81-1v-2.34h1L619,252a2.85,2.85,0,0,0,1.3.75,5.49,5.49,0,0,0,1.63.23,3.52,3.52,0,0,0,2.19-.61,1.83,1.83,0,0,0,.8-1.49,1.92,1.92,0,0,0-.67-1.43,5.34,5.34,0,0,0-2.4-1,8.1,8.1,0,0,1-3.06-1.2,2.48,2.48,0,0,1-1-2.09,2.81,2.81,0,0,1,1.12-2.26,4.51,4.51,0,0,1,3-.92,6.64,6.64,0,0,1,2.32.39,4.7,4.7,0,0,1,1.71,1.06Z"/><path class="cls-6" d="M628.15,243.12v-1H631l.16,1.81a4.05,4.05,0,0,1,3.63-2,3.75,3.75,0,0,1,3.25,1.67,7.68,7.68,0,0,1,1.18,4.47v.22a6.8,6.8,0,0,1-1.18,4.18,3.82,3.82,0,0,1-3.23,1.55,4.51,4.51,0,0,1-2.12-.47,3.89,3.89,0,0,1-1.49-1.33v5l1.74.14v1h-4.74v-1l1.73-.14V243.26Zm9.74,5a6.67,6.67,0,0,0-.88-3.62,2.83,2.83,0,0,0-2.55-1.4,3.38,3.38,0,0,0-2.1.62,3.84,3.84,0,0,0-1.21,1.61v5.6a3.4,3.4,0,0,0,1.27,1.5,3.57,3.57,0,0,0,2.06.55,2.88,2.88,0,0,0,2.54-1.27,5.85,5.85,0,0,0,.87-3.37Z"/><path class="cls-6" d="M641.24,247.82a6.28,6.28,0,0,1,1.4-4.22,5,5,0,0,1,7.41,0,6.28,6.28,0,0,1,1.39,4.22v.35a6.3,6.3,0,0,1-1.39,4.23,5,5,0,0,1-7.41,0,6.31,6.31,0,0,1-1.4-4.23Zm1.28.35a5.59,5.59,0,0,0,1,3.41,3.56,3.56,0,0,0,5.61,0,5.58,5.58,0,0,0,1-3.41v-.35a5.6,5.6,0,0,0-1-3.38,3.29,3.29,0,0,0-2.81-1.39,3.25,3.25,0,0,0-2.8,1.39,5.54,5.54,0,0,0-1,3.38Z"/><path class="cls-6" d="M653.29,252.87l1.73-.14v-9.47l-1.73-.14v-1h2.86l.12,2a4.1,4.1,0,0,1,1.5-1.66A4.06,4.06,0,0,1,660,242a3.53,3.53,0,0,1,2.86,1.16,5.52,5.52,0,0,1,1,3.61v6l1.73.14v.95h-4.75v-.95l1.74-.14v-6a4.25,4.25,0,0,0-.74-2.83,2.67,2.67,0,0,0-2.11-.83,3.28,3.28,0,0,0-2.19.72,4,4,0,0,0-1.22,1.9v7l1.74.14v.95h-4.75Z"/><path class="cls-6" d="M675.48,252.14a3.92,3.92,0,0,1-1.48,1.41,4.35,4.35,0,0,1-2.13.49,3.79,3.79,0,0,1-3.23-1.56,6.79,6.79,0,0,1-1.17-4.17v-.22a7.68,7.68,0,0,1,1.17-4.47,3.74,3.74,0,0,1,3.25-1.67,4.12,4.12,0,0,1,2.09.51,4.19,4.19,0,0,1,1.47,1.46v-5.8l-1.74-.14v-1h3v15.71l1.74.14v.95h-2.88Zm-6.72-3.83a5.93,5.93,0,0,0,.84,3.36,2.8,2.8,0,0,0,2.52,1.25,3.53,3.53,0,0,0,2-.56,3.61,3.61,0,0,0,1.28-1.54v-5.51a4,4,0,0,0-1.23-1.62,3.34,3.34,0,0,0-2.08-.62,2.75,2.75,0,0,0-2.53,1.39,6.87,6.87,0,0,0-.85,3.63Z"/><path class="cls-6" d="M680.43,247.82a6.28,6.28,0,0,1,1.39-4.22,5,5,0,0,1,7.41,0,6.28,6.28,0,0,1,1.4,4.22v.35a6.36,6.36,0,0,1-1.39,4.23,5,5,0,0,1-7.42,0,6.3,6.3,0,0,1-1.39-4.23Zm1.28.35a5.58,5.58,0,0,0,1,3.41,3.56,3.56,0,0,0,5.61,0,5.59,5.59,0,0,0,1-3.41v-.35a5.54,5.54,0,0,0-1-3.38,3.53,3.53,0,0,0-5.61,0,5.53,5.53,0,0,0-1,3.38Z"/><path class="cls-6" d="M694.56,253.3a5.07,5.07,0,0,1-.4,1.94,4.78,4.78,0,0,1-1.09,1.6l-.76-.56a5.64,5.64,0,0,0,.74-1.41,4.76,4.76,0,0,0,.24-1.55v-1.53h1.27Z"/><path class="cls-6" d="M702,252.87l1.74-.14v-9.47l-1.74-.14v-1h2.87l.12,2a4.15,4.15,0,0,1,1.49-1.66,4.09,4.09,0,0,1,2.24-.59,3.49,3.49,0,0,1,2.85,1.16,5.46,5.46,0,0,1,1,3.61v6l1.74.14v.95h-4.75v-.95l1.73-.14v-6a4.2,4.2,0,0,0-.74-2.83,2.64,2.64,0,0,0-2.1-.83,3.25,3.25,0,0,0-2.19.72,4,4,0,0,0-1.22,1.9v7l1.74.14v.95H702Z"/><path class="cls-6" d="M724.2,253.82c-.08-.4-.14-.74-.18-1a8.3,8.3,0,0,1,0-.87,5.15,5.15,0,0,1-1.71,1.52,4.79,4.79,0,0,1-2.39.6,3.63,3.63,0,0,1-2.62-.88,3.15,3.15,0,0,1-.93-2.39,3,3,0,0,1,1.37-2.56,6.42,6.42,0,0,1,3.73-1H724v-1.54a2.48,2.48,0,0,0-.79-2,3.2,3.2,0,0,0-2.23-.71,5.4,5.4,0,0,0-1.75.26,4.12,4.12,0,0,0-1.33.72l-.1,1.56h-1.06v-2.24a6.36,6.36,0,0,1,1.92-1A7.1,7.1,0,0,1,721,242a4.63,4.63,0,0,1,3.07,1,3.48,3.48,0,0,1,1.16,2.81v5.73c0,.24,0,.46,0,.68s0,.43.07.64l1.15.08v.95Zm.46-16.15a2.22,2.22,0,0,1-.58,1.58,1.94,1.94,0,0,1-1.46.62,2.76,2.76,0,0,1-1.61-.59,2.51,2.51,0,0,0-1.4-.59,1.09,1.09,0,0,0-.84.37,1.36,1.36,0,0,0-.34,1l-.84-.19a2.24,2.24,0,0,1,.57-1.56,1.86,1.86,0,0,1,1.45-.63,2.93,2.93,0,0,1,1.57.59,2.82,2.82,0,0,0,1.44.6,1.11,1.11,0,0,0,.84-.39,1.43,1.43,0,0,0,.35-1ZM720,252.9a4.61,4.61,0,0,0,2.44-.65,3.75,3.75,0,0,0,1.52-1.67v-2.33H721.4a4.76,4.76,0,0,0-2.77.72,2.17,2.17,0,0,0-1,1.84,1.91,1.91,0,0,0,.64,1.51A2.54,2.54,0,0,0,720,252.9Z"/><path class="cls-6" d="M728.29,247.82a6.28,6.28,0,0,1,1.39-4.22,5,5,0,0,1,7.41,0,6.28,6.28,0,0,1,1.39,4.22v.35a6.3,6.3,0,0,1-1.39,4.23A4.59,4.59,0,0,1,733.4,254a4.65,4.65,0,0,1-3.72-1.64,6.3,6.3,0,0,1-1.39-4.23Zm1.27.35a5.59,5.59,0,0,0,1,3.41,3.56,3.56,0,0,0,5.61,0,5.59,5.59,0,0,0,1-3.41v-.35a5.54,5.54,0,0,0-1-3.38,3.53,3.53,0,0,0-5.61,0,5.54,5.54,0,0,0-1,3.38Z"/><path class="cls-6" d="M742.42,253.3a5.07,5.07,0,0,1-.4,1.94,4.66,4.66,0,0,1-1.1,1.6l-.75-.56a5.64,5.64,0,0,0,.74-1.41,4.76,4.76,0,0,0,.24-1.55v-1.53h1.27Z"/><path class="cls-6" d="M749.81,252.87l1.74-.14v-9.47l-1.74-.14v-1h2.87l.12,2a4,4,0,0,1,3.73-2.25,3.49,3.49,0,0,1,2.85,1.16,5.46,5.46,0,0,1,1,3.61v6l1.74.14v.95h-4.75v-.95l1.73-.14v-6a4.2,4.2,0,0,0-.74-2.83,2.64,2.64,0,0,0-2.1-.83,3.25,3.25,0,0,0-2.19.72,3.92,3.92,0,0,0-1.22,1.9v7l1.73.14v.95h-4.75Z"/><path class="cls-6" d="M772.06,253.82c-.08-.4-.14-.74-.18-1a8.3,8.3,0,0,1,0-.87,5.15,5.15,0,0,1-1.71,1.52,4.79,4.79,0,0,1-2.39.6,3.67,3.67,0,0,1-2.63-.88,3.18,3.18,0,0,1-.92-2.39,2.94,2.94,0,0,1,1.37-2.56,6.42,6.42,0,0,1,3.73-1h2.55v-1.54a2.48,2.48,0,0,0-.8-2,3.19,3.19,0,0,0-2.22-.71,5.4,5.4,0,0,0-1.75.26,4.12,4.12,0,0,0-1.33.72l-.1,1.56h-1.06v-2.24a6.3,6.3,0,0,1,1.91-1,7.2,7.2,0,0,1,2.38-.39,4.59,4.59,0,0,1,3.06,1,3.46,3.46,0,0,1,1.17,2.81v5.73c0,.24,0,.46,0,.68s0,.43.07.64l1.15.08v.95Zm.46-16.15a2.18,2.18,0,0,1-.59,1.58,1.93,1.93,0,0,1-1.46.62,2.76,2.76,0,0,1-1.6-.59,2.54,2.54,0,0,0-1.4-.59,1.08,1.08,0,0,0-.84.37,1.36,1.36,0,0,0-.34,1l-.85-.19a2.24,2.24,0,0,1,.57-1.56,1.89,1.89,0,0,1,1.46-.63,2.93,2.93,0,0,1,1.57.59,2.83,2.83,0,0,0,1.43.6,1.12,1.12,0,0,0,.85-.39,1.43,1.43,0,0,0,.35-1Zm-4.66,15.23a4.56,4.56,0,0,0,2.44-.65,3.72,3.72,0,0,0,1.53-1.67v-2.33h-2.57a4.82,4.82,0,0,0-2.78.72,2.19,2.19,0,0,0-1,1.84,1.92,1.92,0,0,0,.65,1.51A2.53,2.53,0,0,0,767.86,252.9Z"/><path class="cls-6" d="M776.14,247.82a6.28,6.28,0,0,1,1.4-4.22,5,5,0,0,1,7.41,0,6.28,6.28,0,0,1,1.39,4.22v.35A6.3,6.3,0,0,1,785,252.4a5,5,0,0,1-7.41,0,6.31,6.31,0,0,1-1.4-4.23Zm1.28.35a5.59,5.59,0,0,0,1,3.41,3.56,3.56,0,0,0,5.61,0,5.58,5.58,0,0,0,1-3.41v-.35a5.6,5.6,0,0,0-1-3.38,3.29,3.29,0,0,0-2.81-1.39,3.25,3.25,0,0,0-2.8,1.39,5.54,5.54,0,0,0-1,3.38Z"/><path class="cls-6" d="M417.51,272.23h-1l-.15-1.65a3.3,3.3,0,0,0-1.21-.79,4.85,4.85,0,0,0-1.68-.28,3.07,3.07,0,0,0-2.09.61,1.84,1.84,0,0,0-.7,1.43,1.69,1.69,0,0,0,.6,1.33,5.88,5.88,0,0,0,2.4.93,7.91,7.91,0,0,1,3.08,1.26,2.62,2.62,0,0,1,1,2.18,2.84,2.84,0,0,1-1.17,2.36,4.93,4.93,0,0,1-3.09.9,7.1,7.1,0,0,1-2.32-.36,5.47,5.47,0,0,1-1.82-1v-2.35h1l.18,1.66a3.1,3.1,0,0,0,1.3.75,5.89,5.89,0,0,0,1.63.23,3.5,3.5,0,0,0,2.19-.62,1.81,1.81,0,0,0,.8-1.48,1.87,1.87,0,0,0-.67-1.43,5.23,5.23,0,0,0-2.4-1,8.12,8.12,0,0,1-3.05-1.21,2.44,2.44,0,0,1-1-2.09,2.82,2.82,0,0,1,1.12-2.26,4.51,4.51,0,0,1,2.95-.92,6.38,6.38,0,0,1,2.32.4,4.57,4.57,0,0,1,1.71,1.06Z"/><path class="cls-6" d="M425.15,280.51a4.61,4.61,0,0,1-3.6-1.61,6,6,0,0,1-1.43-4.1v-.59a6.16,6.16,0,0,1,1.42-4.15,4.4,4.4,0,0,1,3.44-1.65,4.27,4.27,0,0,1,3.34,1.36,5.21,5.21,0,0,1,1.21,3.62v1.1h-8.14v.31a5.2,5.2,0,0,0,1,3.29,3.28,3.28,0,0,0,2.72,1.33,5.36,5.36,0,0,0,2-.34,4.07,4.07,0,0,0,1.44-.95l.54.88a4.58,4.58,0,0,1-1.64,1.09A6.25,6.25,0,0,1,425.15,280.51Zm-.17-11a3.06,3.06,0,0,0-2.37,1.09,4.71,4.71,0,0,0-1.12,2.75l0,0h6.75v-.32a3.72,3.72,0,0,0-.88-2.54A3,3,0,0,0,425,269.51Z"/><path class="cls-6" d="M431.73,279.33l1.73-.14v-9.46l-1.73-.14v-1h3v10.56l1.74.14v.95h-4.74Zm3-14h-1.27v-1.81h1.27Z"/><path class="cls-6" d="M443.92,274.28a6.31,6.31,0,0,1,1.39-4.22,5,5,0,0,1,7.41,0,6.32,6.32,0,0,1,1.4,4.22v.36a6.33,6.33,0,0,1-1.39,4.22,5,5,0,0,1-7.42,0,6.28,6.28,0,0,1-1.39-4.22Zm1.28.36a5.55,5.55,0,0,0,1,3.4,3.3,3.3,0,0,0,2.82,1.38,3.26,3.26,0,0,0,2.79-1.38,5.55,5.55,0,0,0,1-3.4v-.36a5.56,5.56,0,0,0-1-3.38,3.53,3.53,0,0,0-5.61,0,5.55,5.55,0,0,0-1,3.38Z"/><path class="cls-6" d="M461.5,274.55a7.63,7.63,0,0,1,1.17-4.46,3.74,3.74,0,0,1,3.25-1.68,4.18,4.18,0,0,1,2.08.5,4.27,4.27,0,0,1,1.46,1.44l.13-1.72h1.12v15l1.73.14v1h-4.75v-1l1.74-.14v-4.91a3.9,3.9,0,0,1-1.47,1.3,4.37,4.37,0,0,1-2.06.46,3.81,3.81,0,0,1-3.23-1.56,6.83,6.83,0,0,1-1.17-4.17Zm1.29.23a6,6,0,0,0,.84,3.37,2.79,2.79,0,0,0,2.52,1.27,3.59,3.59,0,0,0,2-.54,3.74,3.74,0,0,0,1.27-1.5V271.7a4.19,4.19,0,0,0-1.24-1.57,3.2,3.2,0,0,0-2-.62,2.76,2.76,0,0,0-2.53,1.41,6.89,6.89,0,0,0-.85,3.63Z"/><path class="cls-6" d="M482.16,278.36a3.92,3.92,0,0,1-1.48,1.59,4.31,4.31,0,0,1-2.22.56,3.52,3.52,0,0,1-2.86-1.25,6.1,6.1,0,0,1-1-3.88v-5.65l-1.43-.14v-1h2.69v6.77a5.06,5.06,0,0,0,.72,3.06,2.43,2.43,0,0,0,2,.93,3.75,3.75,0,0,0,2.31-.65,3.42,3.42,0,0,0,1.21-1.79v-7.22l-1.64-.14v-1h2.92v10.56l1.55.14v.95h-2.67Z"/><path class="cls-6" d="M491.9,280.51a4.63,4.63,0,0,1-3.6-1.61,6,6,0,0,1-1.43-4.1v-.59a6.12,6.12,0,0,1,1.43-4.15,4.38,4.38,0,0,1,3.43-1.65,4.27,4.27,0,0,1,3.34,1.36,5.21,5.21,0,0,1,1.21,3.62v1.1h-8.14v.31a5.2,5.2,0,0,0,1,3.29,3.28,3.28,0,0,0,2.72,1.33,5.36,5.36,0,0,0,2-.34,4.07,4.07,0,0,0,1.44-.95l.54.88a4.58,4.58,0,0,1-1.64,1.09A6.25,6.25,0,0,1,491.9,280.51Zm-.17-11a3.07,3.07,0,0,0-2.37,1.09,4.71,4.71,0,0,0-1.12,2.75l0,0H495v-.32a3.73,3.73,0,0,0-.89-2.54A3,3,0,0,0,491.73,269.51Z"/><path class="cls-6" d="M509,280.51a4.61,4.61,0,0,1-3.6-1.61,6,6,0,0,1-1.43-4.1v-.59a6.12,6.12,0,0,1,1.43-4.15,4.36,4.36,0,0,1,3.43-1.65,4.27,4.27,0,0,1,3.34,1.36,5.21,5.21,0,0,1,1.21,3.62v1.1h-8.14v.31a5.2,5.2,0,0,0,1,3.29,3.28,3.28,0,0,0,2.72,1.33,5.36,5.36,0,0,0,2-.34,4.07,4.07,0,0,0,1.44-.95l.54.88a4.58,4.58,0,0,1-1.64,1.09A6.25,6.25,0,0,1,509,280.51Zm-.17-11a3.07,3.07,0,0,0-2.37,1.09,4.71,4.71,0,0,0-1.12,2.75l0,0h6.76v-.32a3.73,3.73,0,0,0-.89-2.54A3,3,0,0,0,508.78,269.51Zm1.21-5.33h1.56l0,.07-2.66,2.8h-1.14Z"/><path class="cls-6" d="M529.39,278.36a4,4,0,0,1-1.48,1.59,4.32,4.32,0,0,1-2.23.56,3.51,3.51,0,0,1-2.85-1.25,6.1,6.1,0,0,1-1-3.88v-5.65l-1.42-.14v-1h2.69v6.77a5.06,5.06,0,0,0,.72,3.06,2.43,2.43,0,0,0,2,.93,3.75,3.75,0,0,0,2.31-.65,3.42,3.42,0,0,0,1.21-1.79v-7.22l-1.64-.14v-1h2.92v10.56l1.54.14v.95h-2.66Z"/><path class="cls-6" d="M533.77,269.59v-1h2.87l.12,1.93a4.06,4.06,0,0,1,1.48-1.59,4.21,4.21,0,0,1,2.2-.56,3.35,3.35,0,0,1,3.48,2.64,4.53,4.53,0,0,1,1.48-1.93,3.9,3.9,0,0,1,2.35-.71,3.48,3.48,0,0,1,2.85,1.24,6,6,0,0,1,1,3.84v5.69l1.74.15v.95h-4.77v-.95l1.74-.15v-5.72a4.76,4.76,0,0,0-.75-3,2.6,2.6,0,0,0-2.09-.89,2.83,2.83,0,0,0-2.3,1,4.65,4.65,0,0,0-1,2.45c0,.05,0,.11,0,.16v6.09l1.74.14v.95h-4.75v-.95l1.74-.14v-5.73a4.72,4.72,0,0,0-.77-3,2.58,2.58,0,0,0-2.09-.91,3.14,3.14,0,0,0-2.16.7,3.63,3.63,0,0,0-1.11,1.87v7.09l1.74.14v.95h-4.76v-.95l1.74-.14v-9.46Z"/><path class="cls-6" d="M565.16,279.42a3.64,3.64,0,0,0,2.23-.73,2.41,2.41,0,0,0,1-2h1.13l0,.07a3.19,3.19,0,0,1-1.27,2.7,4.73,4.73,0,0,1-3.08,1.09,4.39,4.39,0,0,1-3.64-1.63,6.58,6.58,0,0,1-1.29-4.2v-.45a6.54,6.54,0,0,1,1.29-4.18,4.36,4.36,0,0,1,3.62-1.64,5.73,5.73,0,0,1,2.44.51,4.93,4.93,0,0,1,1.81,1.38l.05,2.54h-1.09l-.2-2.07a3.71,3.71,0,0,0-1.27-.92,4.35,4.35,0,0,0-1.74-.34,3.07,3.07,0,0,0-2.74,1.34,6,6,0,0,0-.89,3.38v.45a6,6,0,0,0,.89,3.4A3.07,3.07,0,0,0,565.16,279.42Z"/><path class="cls-6" d="M571.89,274.28a6.32,6.32,0,0,1,1.4-4.22,5,5,0,0,1,7.4,0,6.32,6.32,0,0,1,1.4,4.22v.36a6.28,6.28,0,0,1-1.39,4.22,5,5,0,0,1-7.41,0,6.28,6.28,0,0,1-1.4-4.22Zm1.28.36a5.62,5.62,0,0,0,1,3.4,3.55,3.55,0,0,0,5.62,0,5.62,5.62,0,0,0,1-3.4v-.36a5.56,5.56,0,0,0-1-3.38,3.53,3.53,0,0,0-5.61,0,5.62,5.62,0,0,0-1,3.38Z"/><path class="cls-6" d="M583.89,269.59v-1h2.87l.11,1.93a4.14,4.14,0,0,1,1.48-1.59,4.24,4.24,0,0,1,2.21-.56,3.6,3.6,0,0,1,2.21.66,3.53,3.53,0,0,1,1.26,2,4.55,4.55,0,0,1,1.49-1.93,3.88,3.88,0,0,1,2.35-.71,3.48,3.48,0,0,1,2.85,1.24,6.06,6.06,0,0,1,1,3.84v5.69l1.74.15v.95H598.7v-.95l1.74-.15v-5.72a4.76,4.76,0,0,0-.75-3,2.61,2.61,0,0,0-2.1-.89,2.81,2.81,0,0,0-2.29,1,4.65,4.65,0,0,0-1,2.45.86.86,0,0,0,0,.16v6.09l1.74.14v.95H591.3v-.95l1.73-.14v-5.73a4.73,4.73,0,0,0-.76-3,2.61,2.61,0,0,0-2.09-.91,3.14,3.14,0,0,0-2.16.7,3.63,3.63,0,0,0-1.11,1.87v7.09l1.73.14v.95h-4.75v-.95l1.74-.14v-9.46Z"/><path class="cls-6" d="M604.7,269.59v-1h2.8l.16,1.81a4.15,4.15,0,0,1,1.5-1.5,4.22,4.22,0,0,1,2.14-.53,3.75,3.75,0,0,1,3.25,1.68,7.63,7.63,0,0,1,1.17,4.46v.23a6.79,6.79,0,0,1-1.17,4.17,3.82,3.82,0,0,1-3.23,1.56,4.64,4.64,0,0,1-2.13-.47,3.94,3.94,0,0,1-1.48-1.33v5l1.73.14v1H604.7v-1l1.74-.14V269.73Zm9.74,5a6.78,6.78,0,0,0-.87-3.62,2.84,2.84,0,0,0-2.56-1.4,3.33,3.33,0,0,0-2.09.62,3.82,3.82,0,0,0-1.21,1.61v5.6a3.53,3.53,0,0,0,1.26,1.51,3.62,3.62,0,0,0,2.06.55,2.87,2.87,0,0,0,2.54-1.27,5.87,5.87,0,0,0,.87-3.37Z"/><path class="cls-6" d="M626.27,278.36a4,4,0,0,1-1.49,1.59,4.28,4.28,0,0,1-2.22.56,3.51,3.51,0,0,1-2.85-1.25,6.1,6.1,0,0,1-1-3.88v-5.65l-1.43-.14v-1H620v6.77a5.06,5.06,0,0,0,.72,3.06,2.43,2.43,0,0,0,2,.93,3.75,3.75,0,0,0,2.31-.65,3.48,3.48,0,0,0,1.21-1.79v-7.22l-1.64-.14v-1h2.92v10.56l1.54.14v.95h-2.66Z"/><path class="cls-6" d="M633.86,265.65v3h2.53v1.05h-2.53v7.6a2.46,2.46,0,0,0,.41,1.62,1.36,1.36,0,0,0,1.09.48,5.74,5.74,0,0,0,.6,0l.68-.09.19,1a3.36,3.36,0,0,1-.78.21,5.59,5.59,0,0,1-.91.08,2.37,2.37,0,0,1-1.89-.78,3.62,3.62,0,0,1-.68-2.45v-7.6h-2v-1.05h2v-3Z"/><path class="cls-6" d="M646.7,280.28a8.89,8.89,0,0,1-.18-1,6.4,6.4,0,0,1-.06-.88,4.92,4.92,0,0,1-1.7,1.52,4.71,4.71,0,0,1-2.4.61,3.65,3.65,0,0,1-2.62-.89,3.12,3.12,0,0,1-.93-2.39,3,3,0,0,1,1.38-2.56,6.48,6.48,0,0,1,3.73-.95h2.54v-1.54a2.5,2.5,0,0,0-.79-2,3.23,3.23,0,0,0-2.22-.71,5.4,5.4,0,0,0-1.75.27,3.83,3.83,0,0,0-1.33.71l-.11,1.56h-1v-2.24a6.78,6.78,0,0,1,1.91-1,7.1,7.1,0,0,1,2.37-.39,4.62,4.62,0,0,1,3.07,1,3.46,3.46,0,0,1,1.16,2.81v5.73c0,.24,0,.47,0,.69a4.48,4.48,0,0,0,.07.64l1.15.07v.95Zm-4.2-.91a4.59,4.59,0,0,0,2.44-.65,3.81,3.81,0,0,0,1.52-1.67v-2.34H643.9a4.79,4.79,0,0,0-2.78.73,2.18,2.18,0,0,0-1,1.84,1.93,1.93,0,0,0,.65,1.51A2.58,2.58,0,0,0,642.5,279.37Z"/><path class="cls-6" d="M658.79,278.6a3.92,3.92,0,0,1-1.48,1.41,4.35,4.35,0,0,1-2.13.5A3.81,3.81,0,0,1,652,279a6.83,6.83,0,0,1-1.17-4.17v-.23a7.63,7.63,0,0,1,1.17-4.46,3.74,3.74,0,0,1,3.25-1.68,4.1,4.1,0,0,1,2.09.51,4.28,4.28,0,0,1,1.47,1.46v-5.8l-1.73-.14v-1h3v15.71l1.74.14v.95H658.9Zm-6.72-3.82a6,6,0,0,0,.84,3.36,2.82,2.82,0,0,0,2.52,1.25,3.61,3.61,0,0,0,2.05-.56,3.73,3.73,0,0,0,1.28-1.54v-5.52a3.88,3.88,0,0,0-1.23-1.61,3.26,3.26,0,0,0-2.08-.63,2.77,2.77,0,0,0-2.53,1.4,6.86,6.86,0,0,0-.85,3.62Z"/><path class="cls-6" d="M663.74,274.28a6.31,6.31,0,0,1,1.39-4.22,5,5,0,0,1,7.41,0,6.32,6.32,0,0,1,1.4,4.22v.36a6.33,6.33,0,0,1-1.39,4.22,5,5,0,0,1-7.42,0,6.28,6.28,0,0,1-1.39-4.22Zm1.28.36a5.55,5.55,0,0,0,1,3.4,3.55,3.55,0,0,0,5.62,0,5.62,5.62,0,0,0,1-3.4v-.36a5.56,5.56,0,0,0-1-3.38,3.53,3.53,0,0,0-5.61,0,5.55,5.55,0,0,0-1,3.38Z"/><path class="cls-6" d="M678.78,268.63l.15,1.94v.14a4.22,4.22,0,0,1,1.34-1.69,3.42,3.42,0,0,1,2-.61,3.88,3.88,0,0,1,.48,0l.37.08-.17,1.21-1-.07a2.83,2.83,0,0,0-2,.69,3.79,3.79,0,0,0-1.11,1.88v6.95l1.74.14v.95h-4.74v-.95l1.74-.14v-9.46l-1.74-.14v-1h2.85Z"/><path class="cls-6" d="M686.79,280.28h-1.51v-1.8h1.51Zm-.13-5.15h-1.27V264.6h1.27Z"/><g class="cls-7"><path class="cls-2" d="M159.47,150.32a11,11,0,0,1,7.83,3.58,18.76,18.76,0,0,1,4.74-.63,17.28,17.28,0,0,1,12.86,5.85c14.12,5.3,8.52,13.81,8.19,14.28l.15,0s8.29,5.79,5.45,8.63c0,0,5.12,6.35,1,9.75a4.55,4.55,0,0,1-1.48.75c11.61,18.09,18.54,50,14,76.37-.91,5.21-6.87,9-22.93,9h0a85,85,0,0,1-15.53-1.37c.15,1.22.32,2.56.51,3.89h0c.8,5.74,2,12.26,3.26,13.22,8.19,6.15,20.4,8.69,27.27,9.69l9.94.92a27.31,27.31,0,0,1,2.2,2.51H217c3,0,5.35,3.27,5.35,3.27l39.19,68.6-33.82,60.69s11.35,19.07,5.67,27.7l7.84,7.84s1.25,4.2-4.43,4.2c-1.69,0-4.08-.89-6.58-2.14a431,431,0,0,1,1.57,44.45,44.44,44.44,0,0,0-4.58-.68l0,2.9h0c-.11,20.16-.05,49.28,1.15,55.92,1.88,10.39,0,15.5,0,15.5s5.11,80.85,5.11,81.48,7.16,9.82,7.16,9.82,9.46,7.45,16.82,13.35h0s4.43,1.16,6.16,2.61a6,6,0,0,1,1.86,3.87c.49.33,1.3.88,2.23,1.55a24,24,0,0,0,6.4,1.19c1,1,0,2.11-1.32,3,.73.78,1.17,1.47,1.05,1.91-.48,1.78-7.33,9-19.72,9-.69,0-1.41,0-2.14-.07-13-.85-31-14.71-32.5-18.57a11.47,11.47,0,0,1,.19-7.78c0-3.29,2-7.23,3.08-9.2,1.7-3.06,2.9-11.75,2.9-11.75-18.74-65.75-8-75-10.05-79.77-1.3-3-12.88-46.07-21.14-77h0c0-.05,0-.1,0-.15q-.72-2.69-1.4-5.24a22.07,22.07,0,0,1-4.27-2.52,135.18,135.18,0,0,1-22.49,8.91l-2.38,6-22.32,56s-4.23,15.58-9.26,20.61a221.24,221.24,0,0,1-12.43,35.94c-8.52,19.07-12.26,45.31-12.26,45.31s6.1,15.49,6.81,25.17c7.18,9.83,13.63,21.95,5.08,25.53a49.16,49.16,0,0,1-18.6,3.27c-10.3,0-19.54-2.42-21.69-4.57-3.46-3.46,6.36-29.69,6.36-29.69.31-2.39,1-4.69,2.36-5.66,3.41-2.39,7.5-8.18,7.5-8.18s-1.28-3.4,2.3-8,8.85-34.1,8.85-38-4.77-32.7,11.13-44.06c0,0,1.82-36.88,6.48-63.55h0c.51-3,1.06-5.91,1.65-8.6-4.87.4-7.8.45-7.8.45s4.71-13.15,10.74-30.08C123.6,497,127,489,127,489a42.36,42.36,0,0,0,6-3.56c.66-1.83,1.32-3.69,2-5.54-1.7-4.2,2.54-17.25,2.54-17.25l-15.61-11.77L76.56,416.66s36.46-86,37.93-87.43c1-1,8-5.08,12.86-7.88,5.07-5.08,16-9.1,16-9.1s10.39-11.75,12.6-14,1.19-8.34,1.19-8.34l-5.69-21.86c-10-6.31-14-13.35-14-13.35a5,5,0,0,1-3.7,1.49c-3.31,0-6.63-2.51-6.63-2.51s-14.42-14.42-9.88-21.23a4.28,4.28,0,0,1,3.74-2.06c3,0,6.51,2.44,9,4.55-5.11-4.47-7.85-5.08-9-5.08l-.35,0-.08.07-.07,0-.1,0-.06-.11c-1.07-.54-5.89-3.19-6.31-7.68-8.15-2.55-6.58-7.09-6.58-7.09-7.83-5.33,0-13.91,0-13.91-3.49-3.49-.79-8.57-.79-8.57-4.09-5.79,1-13,1-13,.57-6.24,9.93-9.93,9.93-9.93.74-3.13,4.6-4.6,4.6-4.6a6.83,6.83,0,0,1,6.3-3.89,3.87,3.87,0,0,1,.52,0c3.39-7.34,16.13-8.05,20.89-8.05,1.14,0,1.82,0,1.82,0a12.69,12.69,0,0,1,7.73-3m64,268.34,21-37.92-20-29.72c.53,8.54.86,17.31.77,25.56a332.24,332.24,0,0,1-2.95,40.31,2.82,2.82,0,0,1,1.14,1.77M146.65,446.9c2-5.81,3.8-10.91,5.13-14.79-2.1-4.23,1.19-6.13,2.19-6.59.11-.37.21-.68.27-.91,2-7.49-17.21-44.26-17.21-44.26l-16.25-10.18L98,413l36.42,25.38,12.23,8.51M264.94,705.79h0M159.47,144.32h0a17.86,17.86,0,0,0-9.54,2.91h0c-6.92,0-18.53,1.17-24.35,8.34a12.57,12.57,0,0,0-7.58,5,13.94,13.94,0,0,0-4.95,4.71c-3.5,1.82-9.62,5.82-11.07,12.21-2.19,3.69-4.19,9.81-1.85,15.63a13.75,13.75,0,0,0,.21,7.81,16.06,16.06,0,0,0-2.27,9.73,12.49,12.49,0,0,0,3.44,7.26,10.54,10.54,0,0,0,1,2.76,13.6,13.6,0,0,0,6.61,6,14.87,14.87,0,0,0,2.4,3.78c-2.39,4.88-1,11.12,4,18.56a69.31,69.31,0,0,0,7.35,8.92l.63.55c.83.62,5.19,3.72,10.25,3.72a12.82,12.82,0,0,0,1.65-.11,53.86,53.86,0,0,0,10.84,9.72l5,19.31a12.87,12.87,0,0,1,0,3.34c-2.41,2.51-8.9,9.81-11.46,12.7-3.33,1.34-11.19,4.8-16.09,9.33-11.82,6.82-12.77,7.78-13.47,8.47-1.16,1.16-1.74,1.74-20.79,46.15-9.2,21.44-18.33,43-18.42,43.19L73,421.45l45.37,34.22,12.28,9.26c-1.26,4.61-2.39,10.3-1.83,14.56l-.74,2.09a40.54,40.54,0,0,1-3.62,2l-3,3.08c-.75,1.77-3,7.9-.21,12.55.1.17.21.34.32.5-5.28,14.82-9.22,25.82-9.22,25.82l5.76,8h.32c-.07.38-.13.77-.2,1.17h0c-4,22.86-5.89,52.49-6.41,61.55-14.16,12.64-12.12,36.87-11.42,45.1.06.76.14,1.69.14,2-.09,4.3-5.17,30.37-7.64,34.33a16.21,16.21,0,0,0-3.74,9.93,29.16,29.16,0,0,1-4.71,4.95c-2.54,1.78-4.1,4.76-4.77,9.1C79,703.48,77,709.05,75.29,715c-3.72,12.83-3.81,18.61-.37,22,4.35,4.35,16.5,6.33,25.94,6.33a54.78,54.78,0,0,0,20.91-3.74,12,12,0,0,0,7.28-8c1.74-6.25-1.08-14.3-8.86-25.27-1-8.52-4.94-19.58-6.45-23.62.93-5.73,4.63-26.69,11.57-42.22A231.33,231.33,0,0,0,137.74,605c5-6.26,8.57-18.29,9.48-21.55l22.2-55.68,1.32-3.3A140.32,140.32,0,0,0,188,517.73l.6,2.27,0,.16c17.38,65.1,20.4,75.06,21.19,77.25,0,.48-.19,1.33-.3,2-1.3,7.74-4.31,25.78,10,76.35a41.07,41.07,0,0,1-2,8.44c-2.32,4.16-3.57,7.77-3.8,11a17.09,17.09,0,0,0,.16,11.06c1.95,5.1,11.44,11.49,14.3,13.32,4.9,3.15,14.45,8.51,23.42,9.09.85.06,1.7.09,2.53.09,14.55,0,24.2-8.6,25.51-13.41a6.53,6.53,0,0,0,.19-2.52,7,7,0,0,0,.66-2.39,7.18,7.18,0,0,0-2.13-5.82l-4-1.75a21.31,21.31,0,0,1-3.64-.53,11.1,11.1,0,0,0-3.25-4.7,22,22,0,0,0-7.21-3.44c-6.08-4.87-13.27-10.54-15.33-12.17-2.11-2.72-4.45-5.82-5.55-7.39-.27-4.51-1.26-20.59-5-79,.64-2.57,1.47-8.26-.14-17.21-.4-2.17-1.28-11.75-1.06-53.64l4.61-3.3c0-.82.39-17.83-.88-36.45,4.83,0,7.39-2.1,8.69-3.85a9.29,9.29,0,0,0,1.39-8.06l-1.51-2.53-5-5.05c2.17-9-2.82-20.46-5.85-26.25l32.2-57.77,0-5.89-39.19-68.6-.34-.53a14.84,14.84,0,0,0-7.14-5.3c-.36-.41-.75-.81-1.15-1.22l-3.69-1.73-9.78-.91c-5.85-.86-16.28-3-23.42-7.84a50.81,50.81,0,0,1-1.28-6c2.78.25,5.62.37,8.5.37,6.55,0,26.43,0,28.85-13.93,4.24-24.44-.88-55.53-12.22-76.23,2.31-3.85,1.57-8.6-.63-12.59a7.12,7.12,0,0,0,0-1.22c-.29-3.31-2.61-6.3-5-8.55a13.21,13.21,0,0,0-.38-6.43c-1.45-4.64-5.31-8.3-11.47-10.89A23.16,23.16,0,0,0,172,147.27a25.78,25.78,0,0,0-3,.19,16.39,16.39,0,0,0-9.55-3.14Zm71.23,249c.32-5.11.56-10.75.62-16.68,0-1.55,0-3.15,0-4.8l6.18,9.2-6.81,12.28Zm-124.91,17.8,17.26-32.45,9.41,5.89c1.44,2.82,4.79,9.45,8,16.64,6,13.22,7.45,18.85,7.78,21a10.32,10.32,0,0,0-2.64,4,10.13,10.13,0,0,0-.23,5.92c-.54,1.58-1.15,3.36-1.83,5.31l-5.74-4-32.06-22.33ZM239.44,676.47Z"/><path class="cls-8" d="M150.66,265.07l6.47,24.87s1,6.13-1.19,8.34-12.6,14-12.6,14l-5.8,11.41,33.56,19.08,40-10.73-1.19-28.11s-20.5-1.3-32.45-10.27c-2.35-1.77-4.35-22.26-4.35-22.26Z"/><path class="cls-9" d="M174.25,280.41c-.63-4.58-1.15-9.21-1.15-9.21l-22.48-6.3,1.8,6.93s7,4.58,9.23,5.54A42.78,42.78,0,0,0,174.25,280.41Z"/><path class="cls-8" d="M132,318.69s-16,9.06-17.51,10.54-37.93,87.43-37.93,87.43l45.37,34.22,15.61,11.77s-4.94,15.16-2,18.06S127,489,127,489s-4.43,10.45,4.55,8.18,21.12-8.29,21.12-8.29l6-33.62-24.25-16.88L98,413l22.78-42.84L137,380.35,157,365.79l-14.31-35.66-6.13-13.39Z"/><path class="cls-8" d="M137.43,254.73s13,23.16,51.84,23.16c16.07,0,22-3.75,22.94-9,5.69-32.77-6.42-74.22-23.23-86.87C174.25,171,122,213,122,213l11.13,25s-11.36-12.27-15.9-5.45,9.88,21.23,9.88,21.23S133.57,258.59,137.43,254.73Z"/><path class="cls-8" d="M215,307.25c3.86-2,7.32,2.77,7.32,2.77l39.19,68.6-33.82,60.69s11.35,19.07,5.67,27.7l7.84,7.84s1.25,4.2-4.43,4.2-19.08-10-19.08-10l1.56-42.78,25.25-45.54-23.19-34.48-7.25-6.43S207.83,311.07,215,307.25Z"/><path class="cls-8" d="M174.34,499.25l-32.82,82.3s-4.23,15.58-9.26,20.61a221.24,221.24,0,0,1-12.43,35.94c-8.52,19.08-12.26,45.31-12.26,45.31s7.75,19.67,6.81,28.53c0,0,7.41,10.22,4.43,16.09s-14.65,2.39-14.65,2.39-19.5,2.55-22.4-2.3,3.66-17.89,3.66-17.89-.93-10.39,2.47-12.77,7.5-8.18,7.5-8.18-1.28-3.4,2.3-8,8.85-34.1,8.85-38-4.77-32.7,11.13-44.06c0,0,3.86-78.35,14.76-89.25s41.91-17.38,41.91-17.38Z"/><path class="cls-10" d="M174.34,499.25l-10.5,26.31S149.33,532,145.65,533c-2.72.67-22.15,6.67-21.5,2.75,2-12.24,4.86-22.27,8.28-25.69,10.91-10.9,41.91-17.38,41.91-17.38Z"/><path class="cls-8" d="M186,487.07s27.48,103.79,29.53,108.56-8.69,14,10.05,79.77c0,0-1.2,8.69-2.9,11.75s-5.62,10.91-.68,13.63,20.95,16.35,27.76,17.54,19.59-4.76,19.59-4.76,6.82-2.56,4.69-4.69c0,0-6.22-.25-8.26-2.3S240.6,686.3,240.6,686.3s-7.16-9.2-7.16-9.82S228.33,595,228.33,595s1.88-5.11,0-15.5-1-75.85-1-75.85Z"/><path class="cls-10" d="M186,487.07s6.47,24.34,8.39,31.53c.73,2.75,32.77,5,32.77,5l.18-19.93Z"/><path class="cls-11" d="M186,507.62c5.31,10.54,42.67,12.76,45.77,13.74,0,0,1-42.31-5-66.07S186,507.62,186,507.62Z"/><path class="cls-12" d="M140.61,245.42c6.59,2.73.91-9.08.91-9.08s-.62-11.84-4-13.86a48,48,0,0,1-7.31-6l62.84-43.08s6.36-8.86-8.17-14.31a17.29,17.29,0,0,0-17.6-5.22s-6.36-7.61-15.56-.63c0,0-18.51-1.08-22.71,8a6.92,6.92,0,0,0-6.82,3.86s-3.86,1.47-4.6,4.6c0,0-9.36,3.69-9.93,9.93,0,0-5.11,7.16-1,13,0,0-2.7,5.08.79,8.57,0,0-7.83,8.58,0,13.91,0,0-1.93,5.57,9.54,7.84l3.41,7s3.28-1.49,12.72,8S140.61,245.42,140.61,245.42Z"/><path class="cls-9" d="M186.37,245.33a1.5,1.5,0,0,1,0-3c2.84,0,10.64-2.5,14.53-3.84-1.27-12.21-9-21.31-13.65-25.72a1.5,1.5,0,1,1,2.07-2.17c5.07,4.84,13.71,15,14.67,28.81l.08,1.14-1.07.38C201.75,241.38,190.6,245.33,186.37,245.33Z"/><path class="cls-13" d="M168.8,226.61h-.06A1.51,1.51,0,0,1,167.3,225c0-.24.29-5.9,4.06-7.91,2.34-1.25,5.31-.78,8.84,1.39a1.5,1.5,0,1,1-1.57,2.55c-1.75-1.08-4.2-2.18-5.86-1.29-1.88,1-2.43,4.31-2.47,5.39A1.51,1.51,0,0,1,168.8,226.61Z"/><path class="cls-13" d="M194.62,216.59a1.64,1.64,0,0,1-.64-.14,1.5,1.5,0,0,1-.71-2c1.38-2.91,3.15-4.45,5.25-4.58,3.48-.24,6.08,3.64,6.37,4.09a1.5,1.5,0,0,1-2.52,1.63c-.49-.74-2.16-2.84-3.67-2.73-1.15.08-2.12,1.61-2.72,2.88A1.51,1.51,0,0,1,194.62,216.59Z"/><path class="cls-14" d="M166.34,246.91c-.33-.5,24.25,5.76,35,.39,0,0-1.37,19.28-10.22,19.9C182,267.83,172.47,262.6,166.34,246.91Z"/><g class="cls-15"><path class="cls-16" d="M164.2,249.61s22.18,10.65,34.31,2.06l-.49-4.94-34.56-3.55Z"/><path class="cls-17" d="M166.84,258.85s8.73-6,19.84.92-2.32,13.55-2.32,13.55Z"/></g><path class="cls-9" d="M188.65,268.25c-15.82,0-23.17-20.79-23.25-21l-.58-1.69,1.74.39c.23,0,23.07,5.12,34.36.44a1,1,0,0,1,1.31.55,1,1,0,0,1-.55,1.3c-10.06,4.17-27.92,1.18-33.72.05,2.29,5.29,10.4,21,24.9,17.45a1,1,0,1,1,.47,1.94A19.67,19.67,0,0,1,188.65,268.25Z"/><path class="cls-9" d="M132.6,252.12s-.34-14.9-11.83-18.48"/><path class="cls-9" d="M120.78,370.17S130.61,357,129.31,359c-7.19,11.13,18.41,24,24.42,17.11,0,0-6,7.61-16.7,4.23Z"/><path class="cls-18" d="M143.34,312.25s-10.92,4-16,9.1c0,0,30.58,44.35,9.68,59,0,0,19.25,36.77,17.21,44.26S118,527.55,118,527.55s105.6-1.87,109.37-70.91l-5-39.75a332.24,332.24,0,0,0,2.95-40.31c.22-19.39-1.9-41.68-3.46-56.9a24.62,24.62,0,0,0-7.16-15.44l-9.95-.92s7.85,26.3-10.31,28.79C184.64,333.46,161.05,336.62,143.34,312.25Z"/><g class="cls-19"><path class="cls-20" d="M121.93,530.14s105.61-1.88,109.37-70.92Z"/></g><path class="cls-18" d="M143.34,312.25s-10.92,4-16,9.1c0,0,30.58,44.35,9.68,59,0,0,19.25,36.77,17.21,44.26S118,527.55,118,527.55s105.6-1.87,109.37-70.91l-5-39.75a332.24,332.24,0,0,0,2.95-40.31c.22-19.39-1.9-41.68-3.46-56.9a24.62,24.62,0,0,0-7.16-15.44l-9.95-.92s7.85,26.3-10.31,28.79C184.64,333.46,161.05,336.62,143.34,312.25Z"/><path class="cls-8" d="M121.93,450.88l15.61,11.77s-4.94,15.16-2,18.06S127,489,127,489s-4.43,10.45,4.55,8.18,21.12-8.29,21.12-8.29l5.1-28.52s1.57-5.59-4.8-9.33c-4.92-2.88-18.53-12.65-18.53-12.65Z"/><path class="cls-21" d="M151.89,432.33S207.57,439.75,223,422c0,0,1.68-3.49-.65-5.14.33,3.28-26.15,17.54-68.13,8.52C154.24,425.41,149.17,427.22,151.89,432.33Z"/><circle class="cls-22" cx="198.14" cy="429.65" r="12.99"/><g class="cls-23"><path class="cls-24" d="M136.47,178.42s-5.57,6.76,1.5,11.27c2.48,1.59-7.32,9.2-7.32,9.2l-4,22.23s5.11-2.05,8.52-2.05l17.92,20.53-11.5,7.18L105,222.07,80.54,174.9,112,146.34l34.41-8-6.05,12s-14.6,8.93-9,15.36C127.83,168.14,127.15,177.77,136.47,178.42Z"/></g><path class="cls-6" d="M120.57,230S114,227,114,221.58s25.66-57,79.26-48.15c0,0,8.29,5.79,5.45,8.63,0,0,5.12,6.35,1,9.75S175.76,190.23,120.57,230Z"/><path class="cls-25" d="M123.46,218s34.3-41.8,71-36.35C194.44,181.6,160.26,183.44,123.46,218Z"/><path class="cls-26" d="M199.54,439.78c-1.92,0-6-.39-8.71-3.37-2.33-2.59-3-6.41-1.9-11.34a1.5,1.5,0,1,1,2.93.63c-.85,3.94-.44,6.87,1.2,8.7,2.47,2.76,7.18,2.35,7.23,2.35a1.5,1.5,0,1,1,.31,3A8.89,8.89,0,0,1,199.54,439.78Z"/><path class="cls-27" d="M206,435.37a1.84,1.84,0,0,1-.33,0,1.5,1.5,0,0,1-1.14-1.79c.87-3.93.49-6.86-1.14-8.7-2.47-2.81-7.18-2.4-7.23-2.4a1.5,1.5,0,0,1-.29-3c.26,0,6.26-.56,9.76,3.39,2.3,2.6,2.92,6.42,1.83,11.35A1.49,1.49,0,0,1,206,435.37Z"/><path class="cls-13" d="M165.71,213.51c.75-2.58,3-4.31,5-5.87,1.52-1.15,0-3.75-1.52-2.59-2.72,2.06-5.42,4.26-6.4,7.67a1.5,1.5,0,0,0,2.89.79Z"/><path class="cls-13" d="M193.64,201.81a5.47,5.47,0,0,1,4.52,1.59c1.38,1.35,3.5-.77,2.12-2.12a8.63,8.63,0,0,0-7.44-2.37,1.51,1.51,0,0,0-1,1.85,1.53,1.53,0,0,0,1.84,1.05Z"/></g><g class="cls-28"><path class="cls-2" d="M159.47-564.37a11,11,0,0,1,7.83,3.58,18.76,18.76,0,0,1,4.74-.63,17.28,17.28,0,0,1,12.86,5.85c14.12,5.3,8.52,13.81,8.19,14.28l.15,0s8.29,5.79,5.45,8.63c0,0,5.12,6.34,1,9.75a4.75,4.75,0,0,1-1.48.75c11.61,18.09,18.54,50,14,76.37-.91,5.21-6.87,9-22.93,9h0a85,85,0,0,1-15.53-1.37c.15,1.22.32,2.55.51,3.89h0c.8,5.73,2,12.25,3.26,13.22,8.19,6.14,20.4,8.69,27.27,9.69l9.94.92a24.85,24.85,0,0,1,2.2,2.51H217c3,0,5.35,3.27,5.35,3.27l39.19,68.6-33.82,60.69s11.35,19.07,5.67,27.7l7.84,7.84s1.25,4.2-4.43,4.2c-1.69,0-4.08-.89-6.58-2.14a431,431,0,0,1,1.57,44.45,44.44,44.44,0,0,0-4.58-.68l0,2.89h0c-.11,20.17-.05,49.29,1.15,55.93,1.88,10.39,0,15.5,0,15.5s5.11,80.85,5.11,81.48,7.16,9.82,7.16,9.82,9.46,7.44,16.82,13.35h0s4.43,1.16,6.16,2.61a6,6,0,0,1,1.86,3.87c.49.33,1.3.88,2.23,1.55a24,24,0,0,0,6.4,1.19c1,1,0,2.11-1.32,3,.73.78,1.17,1.47,1.05,1.91-.48,1.78-7.33,9-19.72,9-.69,0-1.41,0-2.14-.07-13-.86-31-14.71-32.5-18.57a11.47,11.47,0,0,1,.19-7.78c0-3.29,2-7.23,3.08-9.2,1.7-3.06,2.9-11.75,2.9-11.75-18.74-65.75-8-75-10.05-79.77-1.3-3-12.88-46.07-21.14-77h0s0-.09,0-.14q-.72-2.69-1.4-5.24a22.07,22.07,0,0,1-4.27-2.52,135.18,135.18,0,0,1-22.49,8.91l-2.38,6-22.32,56s-4.23,15.58-9.26,20.61a221.24,221.24,0,0,1-12.43,35.94c-8.52,19.07-12.26,45.3-12.26,45.3s6.1,15.5,6.81,25.18c7.18,9.82,13.63,22,5.08,25.53a49.16,49.16,0,0,1-18.6,3.27c-10.3,0-19.54-2.42-21.69-4.57-3.46-3.46,6.36-29.69,6.36-29.69.31-2.39,1-4.69,2.36-5.66,3.41-2.39,7.5-8.18,7.5-8.18s-1.28-3.41,2.3-8,8.85-34.1,8.85-38-4.77-32.7,11.13-44.06c0,0,1.82-36.88,6.48-63.55h0c.51-3,1.06-5.91,1.65-8.6-4.87.4-7.8.45-7.8.45s4.71-13.15,10.74-30.08c-5.14-.49-1.76-8.47-1.76-8.47a42.36,42.36,0,0,0,6-3.56c.66-1.83,1.32-3.69,2-5.55C133.3-239,137.54-252,137.54-252l-15.61-11.77L76.56-298s36.46-86,37.93-87.44c1-.95,8-5.08,12.86-7.87,5.07-5.08,16-9.1,16-9.1s10.39-11.75,12.6-14,1.19-8.35,1.19-8.35l-5.69-21.85c-10-6.32-14-13.35-14-13.35a5,5,0,0,1-3.7,1.49c-3.31,0-6.63-2.51-6.63-2.51s-14.42-14.42-9.88-21.23a4.27,4.27,0,0,1,3.74-2.07c3,0,6.51,2.45,9,4.55-5.11-4.46-7.85-5.07-9-5.07l-.35,0-.08.06-.07,0-.1,0-.06-.1c-1.07-.54-5.89-3.19-6.31-7.68-8.15-2.55-6.58-7.09-6.58-7.09-7.83-5.34,0-13.91,0-13.91-3.49-3.49-.79-8.57-.79-8.57-4.09-5.79,1-12.95,1-12.95.57-6.24,9.93-9.93,9.93-9.93.74-3.13,4.6-4.6,4.6-4.6a6.83,6.83,0,0,1,6.3-3.89,3.87,3.87,0,0,1,.52,0c3.39-7.34,16.13-8.05,20.89-8.05,1.14,0,1.82,0,1.82,0a12.69,12.69,0,0,1,7.73-3m64,268.34,21-37.92-20-29.72c.53,8.53.86,17.31.77,25.56a332.24,332.24,0,0,1-2.95,40.31,2.82,2.82,0,0,1,1.14,1.77m-76.86,28.24c2-5.82,3.8-10.91,5.13-14.79-2.1-4.23,1.19-6.13,2.19-6.59.11-.38.21-.68.27-.91,2-7.49-17.21-44.26-17.21-44.26l-16.25-10.18L98-301.68l36.42,25.38,12.23,8.51M264.94-8.9h0M159.47-570.37h0a17.86,17.86,0,0,0-9.54,2.91h0c-6.92,0-18.53,1.17-24.35,8.33a12.63,12.63,0,0,0-7.58,5,13.85,13.85,0,0,0-4.95,4.71c-3.5,1.82-9.62,5.82-11.07,12.21-2.19,3.69-4.19,9.81-1.85,15.63a13.75,13.75,0,0,0,.21,7.81,16.06,16.06,0,0,0-2.27,9.73,12.49,12.49,0,0,0,3.44,7.26,10.67,10.67,0,0,0,1,2.76,13.6,13.6,0,0,0,6.61,6,15.05,15.05,0,0,0,2.4,3.78c-2.39,4.88-1,11.11,4,18.56a69.31,69.31,0,0,0,7.35,8.92l.63.55c.83.62,5.19,3.72,10.25,3.72a12.82,12.82,0,0,0,1.65-.11,54.16,54.16,0,0,0,10.84,9.72l5,19.31a12.87,12.87,0,0,1,0,3.34c-2.41,2.51-8.9,9.81-11.46,12.7-3.33,1.34-11.19,4.79-16.09,9.33-11.82,6.82-12.77,7.77-13.47,8.47-1.16,1.16-1.74,1.74-20.79,46.15-9.2,21.44-18.33,43-18.42,43.19L73-293.24,118.32-259l12.28,9.26c-1.26,4.61-2.39,10.3-1.83,14.56l-.74,2.09a40.54,40.54,0,0,1-3.62,2l-3,3.08c-.75,1.76-3,7.9-.21,12.55.1.17.21.34.32.5-5.28,14.82-9.22,25.82-9.22,25.82l5.76,8h.32c-.07.39-.13.78-.2,1.17h0c-4,22.86-5.89,52.49-6.41,61.55C97.66-105.78,99.7-81.55,100.4-73.32c.06.75.14,1.69.14,2C100.45-67.06,95.37-41,92.9-37a16.21,16.21,0,0,0-3.74,9.92,28.89,28.89,0,0,1-4.71,5c-2.54,1.78-4.1,4.76-4.77,9.1C79-11.21,77-5.64,75.29.31c-3.72,12.83-3.81,18.6-.37,22.05,4.35,4.35,16.5,6.33,25.94,6.33A54.78,54.78,0,0,0,121.77,25a12,12,0,0,0,7.28-8c1.74-6.25-1.08-14.31-8.86-25.27-1-8.52-4.94-19.58-6.45-23.63.93-5.73,4.63-26.68,11.57-42.21a231.7,231.7,0,0,0,12.43-35.53c5-6.26,8.57-18.3,9.48-21.55l22.2-55.68,1.32-3.3A141.94,141.94,0,0,0,188-197l.6,2.27,0,.15c17.38,65.11,20.4,75.07,21.19,77.26,0,.48-.19,1.33-.3,2-1.3,7.74-4.31,25.78,10,76.35a41.07,41.07,0,0,1-2,8.44c-2.32,4.16-3.57,7.77-3.8,11a17.09,17.09,0,0,0,.16,11.06c1.95,5.1,11.44,11.49,14.3,13.32C233,8,242.58,13.41,251.55,14c.85.06,1.7.09,2.53.09,14.55,0,24.2-8.6,25.51-13.41a6.53,6.53,0,0,0,.19-2.52,7.09,7.09,0,0,0,.66-2.39,7.18,7.18,0,0,0-2.13-5.82l-4-1.75a21.31,21.31,0,0,1-3.64-.53,11,11,0,0,0-3.25-4.7,22,22,0,0,0-7.21-3.44C254.14-25.35,247-31,244.89-32.65c-2.11-2.72-4.45-5.82-5.55-7.39-.27-4.52-1.26-20.59-5-79,.64-2.57,1.47-8.26-.14-17.21-.4-2.18-1.28-11.75-1.06-53.64l4.61-3.3c0-.82.39-17.83-.88-36.45,4.83,0,7.39-2.11,8.69-3.85a9.29,9.29,0,0,0,1.39-8.06l-1.51-2.53-5-5c2.17-9-2.82-20.46-5.85-26.25l32.2-57.77,0-5.89-39.19-68.6-.34-.53a14.84,14.84,0,0,0-7.14-5.3c-.36-.41-.75-.82-1.15-1.22l-3.69-1.73-9.78-.91c-5.85-.86-16.28-3-23.42-7.84a51.33,51.33,0,0,1-1.28-6c2.78.25,5.62.37,8.5.37,6.55,0,26.43,0,28.85-13.94,4.24-24.43-.88-55.52-12.22-76.23,2.31-3.84,1.57-8.59-.63-12.58a7.1,7.1,0,0,0,0-1.22c-.29-3.31-2.61-6.3-5-8.55a13.21,13.21,0,0,0-.38-6.43c-1.45-4.64-5.31-8.3-11.47-10.89A23.16,23.16,0,0,0,172-567.42a25.78,25.78,0,0,0-3,.19,16.39,16.39,0,0,0-9.55-3.14Zm71.23,249c.32-5.11.56-10.75.62-16.68,0-1.55,0-3.15,0-4.8l6.18,9.19-6.81,12.29Zm-124.91,17.8L123.05-336l9.41,5.89c1.44,2.83,4.79,9.46,8,16.65,6,13.22,7.45,18.85,7.78,21a10.25,10.25,0,0,0-2.64,4,10.13,10.13,0,0,0-.23,5.92c-.54,1.58-1.15,3.36-1.83,5.31l-5.74-4-32.06-22.33ZM239.44-38.22Z"/><path class="cls-21" d="M219.63-18.34a11.47,11.47,0,0,0-.19,7.78C220.91-6.7,238.94,7.15,251.94,8c13.74.9,21.35-7,21.86-8.92s-8.86-8-8.86-8Z"/><path class="cls-21" d="M85.53-11.57s-9.82,26.23-6.36,29.69,25.22,7.6,40.29,1.3S103-19.76,103-19.76Z"/><path class="cls-8" d="M174.34-215.44l-32.82,82.3s-4.23,15.58-9.26,20.61a221.24,221.24,0,0,1-12.43,35.94c-8.52,19.07-12.26,45.3-12.26,45.3s7.75,19.68,6.81,28.54c0,0,7.41,10.22,4.43,16.09s-14.65,2.39-14.65,2.39-19.5,2.55-22.4-2.3S85.42-4.46,85.42-4.46s-.93-10.39,2.47-12.77,7.5-8.18,7.5-8.18-1.28-3.41,2.3-8,8.85-34.1,8.85-38-4.77-32.7,11.13-44.06c0,0,3.86-78.35,14.76-89.25s41.91-17.38,41.91-17.38Z"/><path class="cls-8" d="M186-227.62s27.48,103.79,29.53,108.56-8.69,14,10.05,79.77c0,0-1.2,8.69-2.9,11.75s-5.62,10.9-.68,13.63S243,2.44,249.79,3.63s19.59-4.77,19.59-4.77,6.82-2.55,4.69-4.68c0,0-6.22-.26-8.26-2.3S240.6-28.39,240.6-28.39s-7.16-9.2-7.16-9.82-5.11-81.48-5.11-81.48,1.88-5.11,0-15.5-1-75.85-1-75.85Z"/><path class="cls-21" d="M80.44,8.43s19.51-8.34,39-2A8.52,8.52,0,0,0,118,1.7C116.38-.85,91.94-4.77,81.55,3.79,81.55,3.79,79.34,7,80.44,8.43Z"/><path class="cls-21" d="M245.38,1.94s.76-17.18,19.56-10.84l.51.42a6.12,6.12,0,0,0-1.87-3.95c-1.73-1.45-6.16-2.61-6.16-2.61S240.2-19.28,240.45-1C240.45-1,243.14,2.8,245.38,1.94Z"/></g></svg>