<svg id="Camada_1" data-name="Camada 1" xmlns="http://www.w3.org/2000/svg" xmlns:xlink="http://www.w3.org/1999/xlink" viewBox="0 0 848.82 508"><defs><style>.cls-1{fill:none;}.cls-2{clip-path:url(#clip-path);}.cls-3{fill:#eaa000;}.cls-4{fill:#97d8dd;}.cls-5{fill:#027e8f;}.cls-6{fill:#65c4d1;}.cls-7{fill:#fff;}.cls-8{clip-path:url(#clip-path-2);}.cls-9{fill:#c9a68f;}.cls-10{fill:#eac2a7;}.cls-11{fill:#d6aa8b;}.cls-12{fill:#d6d6d6;}.cls-13{fill:#c99f4b;}.cls-14{fill:#6d5f56;}.cls-15{fill:#f4f4f4;}.cls-16{clip-path:url(#clip-path-3);}.cls-17{fill:#b7b7b7;}.cls-18{fill:#6d472e;}.cls-19{fill:#c99e32;}.cls-20{clip-path:url(#clip-path-4);}.cls-21{fill:#aa7e30;}.cls-22{fill:#ddd;}.cls-23{fill:#846829;}.cls-24{fill:#e8cd95;}</style><clipPath id="clip-path"><path class="cls-1" d="M250.18-246.36S203.25-210.71,124.64-240,46-494.33,46-494.33s72.3-107.45,88.47-104.58S245-577.76,245-543.09s42,190.28,42,190.28,17.62,68.25,8.81,73.44"/></clipPath><clipPath id="clip-path-2"><path class="cls-1" d="M250.18,483.49s-46.93,35.65-125.54,6.36S46,235.52,46,235.52s72.3-107.46,88.47-104.59S245,152.09,245,186.75s42,190.29,42,190.29,17.62,68.24,8.81,73.44"/></clipPath><clipPath id="clip-path-3"><path class="cls-1" d="M186.33,498c5.22,10.37,42,12.56,45,13.52,0,0,1-41.62-4.9-65S186.33,498,186.33,498Z"/></clipPath><clipPath id="clip-path-4"><path class="cls-1" d="M141.64,240c6.48,2.68.9-8.94.9-8.94s-.61-11.65-3.91-13.63a46.92,46.92,0,0,1-7.19-5.88L148,200.23l45.26-31s6.26-8.71-8-14.07A17,17,0,0,0,167.89,150s-6.25-7.48-15.3-.61c0,0-18.21-1.06-22.34,7.87a6.79,6.79,0,0,0-6.7,3.8s-3.8,1.45-4.53,4.52c0,0-9.21,3.63-9.77,9.78,0,0-5,7-1,12.73,0,0-2.65,5,.79,8.44,0,0-7.71,8.43,0,13.68,0,0-1.9,5.47,9.38,7.71l3.35,6.92s3.23-1.46,12.51,7.82S141.64,240,141.64,240Z"/></clipPath></defs><title>fala2</title><g class="cls-2"><path class="cls-3" d="M160.19-583.37a10.8,10.8,0,0,1,7.71,3.52,18.58,18.58,0,0,1,4.66-.62,17,17,0,0,1,12.65,5.75c13.9,5.22,8.38,13.59,8.06,14.06l.15,0s8.15,5.7,5.36,8.49c0,0,5,6.24,1,9.59a4.52,4.52,0,0,1-1.46.74c10.86,16.91,17.55,46.13,14.33,71.23a2.79,2.79,0,0,1,.75-.71,1.58,1.58,0,0,1,.86-.24,2.44,2.44,0,0,1,1.93,1.05,7.4,7.4,0,0,1,.88,5.84c-1,2.71-2.77,6.83-2.78,8.23,0,2.42,1.43.84,2.56,3a6.12,6.12,0,0,1,0,2.6c-.45,2.88.88.85,1.55,3.71a6.09,6.09,0,0,1-1,4.65c-.34.59,2.62,5.22-1.21,7.74a13.93,13.93,0,0,0-2.65,2.71l1,.09a25,25,0,0,1,2.17,2.47h.11c2.94,0,5.26,3.22,5.26,3.22l38.55,67.48L227.34-299.1s11.17,18.77,5.58,27.26l7.71,7.71s1.23,4.13-4.35,4.13c-1.67,0-4-.88-6.48-2.1a421.88,421.88,0,0,1,1.54,43.72,43.51,43.51,0,0,0-4.5-.67l0,2.85h0c-.11,19.84-.05,48.48,1.13,55,1.84,10.22,0,15.24,0,15.24s5,79.54,5,80.15,7,9.66,7,9.66S249.31-48.8,256.55-43h0s4.36,1.13,6.06,2.56a5.94,5.94,0,0,1,1.83,3.81c.48.32,1.28.86,2.19,1.52a23.57,23.57,0,0,0,6.3,1.18c1,1,0,2.07-1.3,2.94.72.77,1.15,1.45,1,1.89-.47,1.74-7.21,8.84-19.39,8.84-.69,0-1.39,0-2.11-.07-12.79-.84-30.52-14.47-32-18.27a11.26,11.26,0,0,1,.18-7.65c0-3.23,2-7.11,3-9,1.67-3,2.85-11.56,2.85-11.56-18.44-64.68-7.88-73.78-9.89-78.47-1.28-3-12.67-45.32-20.8-75.78h0a.29.29,0,0,0,0-.09c-.47-1.78-.94-3.52-1.39-5.2a21.87,21.87,0,0,1-4.2-2.49,131.65,131.65,0,0,1-22.12,8.77l-24.3,60.94s-4.16,15.33-9.11,20.27a217.93,217.93,0,0,1-12.23,35.36C112.82-84.78,109.14-59,109.14-59s6,15.24,6.71,24.76c7.06,9.66,13.4,21.6,5,25.11a48.28,48.28,0,0,1-18.29,3.22c-10.13,0-19.22-2.38-21.34-4.5-3.4-3.4,6.27-29.21,6.27-29.21.29-2.34,1-4.61,2.32-5.56,3.35-2.35,7.37-8,7.37-8s-1.26-3.35,2.26-7.88,8.71-33.54,8.71-37.34-4.69-32.17,11-43.34c0,0,1.79-36.28,6.37-62.52h0c.5-3,1-5.82,1.63-8.47-4.8.4-7.68.45-7.68.45s25.1-70.06,33.23-93.89c-2.07-4.15,1.18-6,2.15-6.47q.18-.57.27-.9c2-7.37-16.92-43.54-16.92-43.54l-5.06-8.56-12.16-2.86-7.82-18.32s1.41-19.1,2.86-20.55c.94-.94,7.87-5,12.65-7.75h0c5-5,15.73-8.95,15.73-8.95s10.22-11.56,12.39-13.74S157.9-446,157.9-446l-5.6-21.5c-9.88-6.21-13.78-13.13-13.78-13.13a5,5,0,0,1-3.65,1.46c-3.25,0-6.52-2.47-6.52-2.47s-14.18-14.18-9.72-20.88a4.21,4.21,0,0,1,3.68-2c2.92,0,6.41,2.41,8.86,4.47-5-4.39-7.72-5-8.82-5l-.34,0-.08.07-.07,0-.1,0-.05-.11c-1.06-.53-5.8-3.13-6.21-7.55-8-2.51-6.47-7-6.47-7-7.71-5.26,0-13.69,0-13.69-3.44-3.43-.79-8.43-.79-8.43-4-5.7,1-12.74,1-12.74.56-6.14,9.77-9.77,9.77-9.77.73-3.07,4.53-4.53,4.53-4.53a6.72,6.72,0,0,1,6.19-3.82,3.62,3.62,0,0,1,.51,0c3.34-7.22,15.87-7.92,20.56-7.92,1.11,0,1.78,0,1.78,0a12.54,12.54,0,0,1,7.6-2.9M196.49-452c1.68,0,6.2-5.83,7.77-7.55-3.42,1.07-8.11,1.68-14.41,1.7h.35c2.67,0,4.68,5.63,6.2,5.84h.09m-21.76-3.37h0c.79,5.64,1.94,12,3.2,13a46.3,46.3,0,0,0,13.87,6.66c0-.21-.06-.42-.08-.63-.47-3.9-4.79-9.58-5.88-10.67-.83-.83-3.56-8.92-3.59-11.13h0c-2.83-.23-5.5-.6-8-1.06.15,1.2.32,2.52.5,3.83m48.47,136,20.68-37.29-19.66-29.24c.52,8.39.85,17,.76,25.14a329.09,329.09,0,0,1-2.91,39.65,2.81,2.81,0,0,1,1.13,1.74M264-36.95h0M160.19-589.37h0a17.6,17.6,0,0,0-9.4,2.86c-6.83,0-18.24,1.16-24,8.21a12.44,12.44,0,0,0-7.47,4.91,13.67,13.67,0,0,0-4.87,4.63c-3.47,1.8-9.48,5.75-10.92,12-2.16,3.65-4.12,9.67-1.83,15.42a13.58,13.58,0,0,0,.21,7.66,15.9,15.9,0,0,0-2.23,9.6,12.41,12.41,0,0,0,3.39,7.18,10.7,10.7,0,0,0,.94,2.71,13.44,13.44,0,0,0,6.51,6,14.64,14.64,0,0,0,2.33,3.67c-2.33,4.82-1,11,4,18.29a68.38,68.38,0,0,0,7.25,8.8l.29.29.34.25c.81.62,5.13,3.68,10.13,3.68a11.91,11.91,0,0,0,1.59-.1,52.71,52.71,0,0,0,10.62,9.51l4.93,19a12.45,12.45,0,0,1,0,3.22c-2.39,2.49-8.72,9.61-11.24,12.46-3.29,1.33-11,4.72-15.83,9.18-11.63,6.71-12.57,7.66-13.26,8.35-1.49,1.49-3,3-4.6,24.35l-.11,1.46.58,1.34,7.82,18.32,1.19,2.79,3,.69,9.66,2.28,3.68,6.22c.58,1.11,4.63,8.95,8.57,17.61,5.87,12.93,7.31,18.48,7.65,20.61a10.17,10.17,0,0,0-2.59,4,10.07,10.07,0,0,0-.23,5.85C137.62-280.95,114-215,113.75-214.31l-2.93,8.18,8.69-.16h.2c0,.19-.06.38-.1.57l-.28.86.06.47c-3.82,22.33-5.65,50.8-6.16,59.65C99.3-132.26,101.31-108.42,102-100.31c.06.73.14,1.65.14,1.91-.09,4.22-5.08,29.81-7.5,33.72a16,16,0,0,0-3.69,9.78,27.76,27.76,0,0,1-4.6,4.83c-2.51,1.77-4.06,4.72-4.73,9C81-39.24,79-33.77,77.29-27.93,73.63-15.26,73.54-9.55,77-6.13,81.26-1.84,93.23.12,102.54.12a54.13,54.13,0,0,0,20.61-3.68,11.91,11.91,0,0,0,7.21-7.93c1.72-6.17-1-14.12-8.7-24.92-1-8.37-4.86-19.22-6.35-23.21.92-5.67,4.57-26.23,11.37-41.48a227,227,0,0,0,12.23-35c4.93-6.17,8.44-18,9.33-21.21l23.11-58a140.41,140.41,0,0,0,16.83-6.58l.57,2.16,0,.06c17,63.84,20.06,73.82,20.85,76-.05.46-.18,1.29-.3,2-1.27,7.61-4.23,25.37,9.81,75.12a40.46,40.46,0,0,1-2,8.25c-2.28,4.11-3.52,7.67-3.75,10.84a17.1,17.1,0,0,0,.17,10.92c1.93,5,11.28,11.33,14.1,13.14,4.83,3.1,14.25,8.38,23.09,9,.83.06,1.68.09,2.5.09,14.36,0,23.89-8.51,25.18-13.26a6.38,6.38,0,0,0,.2-2.49,7.4,7.4,0,0,0,.65-2.36,7.23,7.23,0,0,0-2.13-5.81l-1.66-1.65-2.33-.1a20.67,20.67,0,0,1-3.51-.5A10.9,10.9,0,0,0,266.46-45a21.43,21.43,0,0,0-7.11-3.4c-6-4.78-13-10.35-15.06-12-2.06-2.66-4.34-5.69-5.43-7.23-.26-4.49-1.25-20.36-4.87-77.67.62-2.55,1.44-8.16-.15-17-.37-2.07-1.2-11-1.05-49.38l4.37,1.38.18-8c0-.81.38-17.48-.86-35.76,4.72-.06,7.24-2.1,8.52-3.82a9.23,9.23,0,0,0,1.38-8L246-267.3l-1.07-1.07L240-273.3c2.11-8.88-2.77-20.08-5.75-25.79l31.65-56.78,1.65-3-1.68-2.94-38.55-67.48-.15-.27-.19-.26a15.81,15.81,0,0,0-3.91-3.73,11.65,11.65,0,0,0,.73-8.21,11.28,11.28,0,0,0,.52-6.81,9.54,9.54,0,0,0-1.28-3.1,8.11,8.11,0,0,0-.84-4.66A9.13,9.13,0,0,0,221-458c.36-1,.79-2.09,1.09-2.84l.63-1.64c1.47-3.84.34-8.62-1.52-11.36a8.19,8.19,0,0,0-2-2c1.5-22.09-3.63-47.25-13.22-64.78,2.26-3.8,1.53-8.47-.63-12.41a7.75,7.75,0,0,0,0-1.18c-.29-3.27-2.56-6.22-4.93-8.44A13.07,13.07,0,0,0,200-569c-1.44-4.58-5.25-8.2-11.32-10.76a22.89,22.89,0,0,0-16.13-6.68,22.55,22.55,0,0,0-2.94.19,16.26,16.26,0,0,0-9.43-3.09Zm70.2,244.62c.3-4.91.52-10.31.59-16,0-1.42,0-2.89,0-4.39l5.86,8.72-6.46,11.65Z"/></g><path class="cls-3" d="M177.32,157.82c93.46.1,169.21,76.64,169.31,171.09S270.83,500,177.32,500,8,423.4,8,328.91,83.8,157.82,177.32,157.82m0-8h0a174.65,174.65,0,0,0-69,14.09A176.66,176.66,0,0,0,51.9,202.3a180.16,180.16,0,0,0,0,253.22,176.66,176.66,0,0,0,56.37,38.39,176.24,176.24,0,0,0,138.1,0,176.62,176.62,0,0,0,56.36-38.39,180.08,180.08,0,0,0-.06-253.16A176.68,176.68,0,0,0,246.34,164a174.72,174.72,0,0,0-69-14.14Z"/><path class="cls-4" d="M177.32,157.82C83.8,157.82,8,234.42,8,328.91S83.8,500,177.32,500s169.31-76.6,169.31-171.09S270.78,157.92,177.32,157.82Zm0,330.77c-87.28,0-158-71.49-158-159.68S90,169.22,177.32,169.22s158,71.49,158,159.69S264.55,488.49,177.32,488.59Z"/><path class="cls-4" d="M257.22,204.63a5.59,5.59,0,0,0-7.81,1.66l-9.23,14.34a5.73,5.73,0,0,0,1.79,8,76.27,76.27,0,0,1,6.33,4.56c1.27,1,2.54,2,3.53,2.67,1.75,1.45,3.44,3,5.11,4.54l-3.9,4A112.59,112.59,0,0,0,228.3,227.2L239.84,201a5.73,5.73,0,0,0,.11-4.36,5.61,5.61,0,0,0-3-3.17A146.3,146.3,0,0,0,185,181a5.59,5.59,0,0,0-4.08,1.45,5.73,5.73,0,0,0-1.85,3.95l-.87,17.09a5.69,5.69,0,0,0,5.33,6l5.94.3,6.33,1c.81.14,1.63.26,2.44.38,1.22.18,2.45.35,3.51.6l.78.2L201,217.51a114.13,114.13,0,0,0-29.89-2.45l-2.93-28.53a5.7,5.7,0,0,0-2.06-3.85,5.6,5.6,0,0,0-4.15-1.24,144.31,144.31,0,0,0-51.28,15.44,5.73,5.73,0,0,0-2.45,7.67l7.7,15.24a5.61,5.61,0,0,0,7.4,2.58c1.13-.53,2.26-1.09,3.38-1.64a58.25,58.25,0,0,1,8.07-3.51l1.44-.54c1.7-.63,3.35-1.25,5-1.81l1.46,5.52c-1.39.48-2.74,1-4.08,1.49l-1.34.51a52,52,0,0,0-8,3.44c-1,.48-1.93,1-3.39,1.66l-9.57,5.57-.65.36L99,210.31A5.67,5.67,0,0,0,95.32,208a5.6,5.6,0,0,0-4.19,1,147.43,147.43,0,0,0-36.81,39.11A5.72,5.72,0,0,0,56,256.06l14.19,9.34a5.63,5.63,0,0,0,7.9-1.82,74.75,74.75,0,0,1,4.5-6.38c1-1.29,2-2.59,2.65-3.59,1.44-1.77,3-3.47,4.5-5.16l3.9,4a113.35,113.35,0,0,0-17,25L50.77,265.73a5.62,5.62,0,0,0-7.45,2.89,150.26,150.26,0,0,0-12.39,52.56,5.69,5.69,0,0,0,5.35,6l16.91.88a5.56,5.56,0,0,0,4.07-1.44,5.67,5.67,0,0,0,1.85-3.94l.3-6,1-6.39c.15-.82.26-1.65.38-2.48.18-1.23.35-2.47.59-3.53l.2-.79,5.53,1.5a116.84,116.84,0,0,0-2.43,30.2l-28.23,3a5.69,5.69,0,0,0-5,6.27,149.65,149.65,0,0,0,15.28,51.82,5.6,5.6,0,0,0,7.59,2.48l15.07-7.78a5.74,5.74,0,0,0,2.56-7.48c-.52-1.13-1.07-2.25-1.61-3.36a59.16,59.16,0,0,1-3.48-8.2l-.56-1.51c-.63-1.7-1.23-3.35-1.77-5l5.53-1.5a113.71,113.71,0,0,0,12.89,27.3L60,408a5.73,5.73,0,0,0-1.24,8,147.36,147.36,0,0,0,38.7,37.19,5.59,5.59,0,0,0,4.25.81,5.65,5.65,0,0,0,3.56-2.47l9.23-14.34a5.74,5.74,0,0,0-1.79-8,73.9,73.9,0,0,1-6.33-4.55c-1.27-1-2.54-2-3.53-2.67-1.75-1.46-3.44-3-5.11-4.55l4-4c1.51,1.39,3.06,2.8,4.94,4.36,1.1.78,2.17,1.61,3.24,2.44a67.64,67.64,0,0,0,6.29,4.48l10.08,5.84.12.06-11.56,26.2a5.74,5.74,0,0,0,2.86,7.53,146.3,146.3,0,0,0,52,12.52H170a5.67,5.67,0,0,0,5.63-5.41l.88-17.08a5.68,5.68,0,0,0-5.33-6l-5.94-.3-6.33-1c-.81-.14-1.63-.26-2.44-.37-1.22-.18-2.44-.36-3.51-.6l-.78-.2,1.48-5.59a114.16,114.16,0,0,0,29.89,2.45l2.93,28.53a5.74,5.74,0,0,0,2.06,3.84,5.57,5.57,0,0,0,4.15,1.24,144.29,144.29,0,0,0,51.28-15.43,5.74,5.74,0,0,0,2.46-7.67L238.68,438a5.62,5.62,0,0,0-7.4-2.58c-1.14.53-2.26,1.08-3.39,1.64a58.08,58.08,0,0,1-8.06,3.5l-1.44.55c-1.7.63-3.35,1.25-5,1.8l-1.49-5.59a110.77,110.77,0,0,0,27-13l16.69,23.17a5.6,5.6,0,0,0,7.88,1.26,147.9,147.9,0,0,0,36.81-39.11,5.78,5.78,0,0,0,.79-4.29,5.7,5.7,0,0,0-2.45-3.61l-14.19-9.33a5.61,5.61,0,0,0-7.9,1.82,74,74,0,0,1-4.49,6.38c-1,1.29-2,2.58-2.65,3.59-1.45,1.77-3,3.47-4.51,5.16l-3.9-3.95a113.58,113.58,0,0,0,17-25l25.89,11.66a5.62,5.62,0,0,0,7.45-2.89,150.09,150.09,0,0,0,12.39-52.56,5.68,5.68,0,0,0-5.35-6l-16.91-.89a5.72,5.72,0,0,0-5.92,5.39l-.3,6-1,6.39c-.15.82-.26,1.65-.38,2.47-.17,1.24-.35,2.47-.59,3.54l-.19.79-5.45-1.47,0-.14c.31-1.33.5-2.68.69-4,.09-.63.17-1.26.29-2l.86-5.61a5.42,5.42,0,0,0,.06-.58l.3-6V322.94l0-.27,28.35-3a5.65,5.65,0,0,0,3.8-2.08,5.8,5.8,0,0,0,1.23-4.19A150,150,0,0,0,308,261.61a5.62,5.62,0,0,0-7.59-2.48l-15.08,7.78a5.73,5.73,0,0,0-2.55,7.48c.52,1.13,1.06,2.24,1.6,3.36a58,58,0,0,1,3.49,8.2l.55,1.51c.63,1.7,1.24,3.35,1.78,5l-5.53,1.49a113.47,113.47,0,0,0-12.89-27.29l22.93-16.86a5.73,5.73,0,0,0,1.24-8A147.16,147.16,0,0,0,257.22,204.63Zm3.44,56.06a5.75,5.75,0,0,0-1.24,8,102.28,102.28,0,0,1,15.91,33.69,5.65,5.65,0,0,0,6.9,4L298.59,302a5.71,5.71,0,0,0,4.07-6.7A84.63,84.63,0,0,0,299,283.49l-.46-1.23a58.3,58.3,0,0,0-3.16-7.73l5-2.6a139.24,139.24,0,0,1,10.93,37l-27.95,2.94a5.67,5.67,0,0,0-5.05,6l.28,5.53v10.91l-.27,5.37-.81,5.24c-.13.75-.23,1.49-.34,2.24-.14,1-.27,2-.46,2.88l-1.41,5.48a5.71,5.71,0,0,0,4,6.95l16.36,4.41a5.6,5.6,0,0,0,4.31-.58,5.73,5.73,0,0,0,2.62-3.5l1.65-6.51c.35-1.52.57-3.06.79-4.61.11-.73.21-1.46.35-2.28l1-7.05.05-.87,5.54.28a139.15,139.15,0,0,1-8.84,37.55l-25.66-11.56a5.62,5.62,0,0,0-7.45,2.9,102.17,102.17,0,0,1-20.93,30.87,5.77,5.77,0,0,0,0,8.06l12,12.1a5.5,5.5,0,0,0,4.15,1.67,5.63,5.63,0,0,0,4.05-1.91c1-1.15,2-2.28,3.06-3.41,2-2.14,3.91-4.29,6-6.86.86-1.22,1.77-2.41,2.67-3.61.63-.83,1.27-1.66,1.89-2.52l4.75,3.12a136.58,136.58,0,0,1-26.31,27.95l-16.55-23a5.6,5.6,0,0,0-7.88-1.26A100.37,100.37,0,0,1,203.6,428a5.62,5.62,0,0,0-3.44,2.65,5.74,5.74,0,0,0-.56,4.33L204,451.46a5.62,5.62,0,0,0,6.63,4.1,82.48,82.48,0,0,0,11.7-3.73l1.17-.44a58.84,58.84,0,0,0,7.65-3.2l2.57,5.08a135.29,135.29,0,0,1-36.64,11l-2.89-28.23a5.67,5.67,0,0,0-2-3.84A5.52,5.52,0,0,0,188,431a102.62,102.62,0,0,1-37-3,5.58,5.58,0,0,0-4.28.57,5.7,5.7,0,0,0-2.63,3.46l-4.38,16.54a5.8,5.8,0,0,0,.58,4.35,5.66,5.66,0,0,0,3.47,2.64l6.43,1.67c1.51.35,3.05.58,4.58.81.72.1,1.43.2,2.25.34l7,1.05.87.05-.29,5.6a135.68,135.68,0,0,1-37.16-8.94l11.44-25.92a5.73,5.73,0,0,0-2.7-7.46l-4.69-2.27-9.63-5.59a56,56,0,0,1-5.13-3.7c-1.2-.93-2.4-1.85-3.27-2.45-1.64-1.36-3.19-2.81-4.75-4.25-1.16-1.08-2.33-2.16-3.52-3.21a5.6,5.6,0,0,0-7.7.26l-12,12.1a5.73,5.73,0,0,0,.23,8.29c1.12,1,2.22,2,3.32,3.05,2.15,2,4.29,4,6.84,6.09,1.21.86,2.38,1.77,3.56,2.68.82.64,1.66,1.29,2.52,1.93l-3.09,4.79a135.9,135.9,0,0,1-27.66-26.59L94,397.13a5.69,5.69,0,0,0,2.26-3.72,5.76,5.76,0,0,0-1-4.24,102.14,102.14,0,0,1-15.91-33.7,5.66,5.66,0,0,0-6.91-4L56,355.85a5.7,5.7,0,0,0-4.06,6.7,83.44,83.44,0,0,0,3.68,11.79l.45,1.22a59.81,59.81,0,0,0,3.16,7.74l-5,2.59a138.58,138.58,0,0,1-10.93-37l27.94-2.93a5.67,5.67,0,0,0,5-6.22,105.63,105.63,0,0,1,3-37.35,5.74,5.74,0,0,0-.56-4.33,5.65,5.65,0,0,0-3.43-2.66L59,291a5.58,5.58,0,0,0-4.3.59A5.69,5.69,0,0,0,52,295l-1.66,6.51c-.34,1.52-.57,3.06-.79,4.61-.11.73-.21,1.46-.34,2.28l-1,7-.05.88-5.54-.29a139.33,139.33,0,0,1,8.84-37.55l25.66,11.56a5.54,5.54,0,0,0,4.32.11,5.65,5.65,0,0,0,3.14-3,102.26,102.26,0,0,1,20.92-30.87,5.74,5.74,0,0,0,0-8.05l-12-12.1a5.59,5.59,0,0,0-8.2.24c-1,1.15-2,2.27-3.06,3.4-2,2.15-3.91,4.3-6,6.86-.86,1.22-1.77,2.42-2.67,3.61-.63.83-1.27,1.67-1.89,2.53L67,249.68a135.75,135.75,0,0,1,26.3-28l16.55,23a5.6,5.6,0,0,0,7.89,1.25l1.31-1a19.22,19.22,0,0,1,2.77-1.91l9.24-5.41c1.08-.5,2.16-1,3.23-1.57a44.36,44.36,0,0,1,6.61-2.85l1.68-.63a56.29,56.29,0,0,1,8.17-2.62,5.64,5.64,0,0,0,3.67-2.59,5.79,5.79,0,0,0,.65-4.47l-4.38-16.53a5.63,5.63,0,0,0-6.63-4.1A83,83,0,0,0,132.31,206l-1.16.44a56.94,56.94,0,0,0-7.65,3.2l-2.57-5.08a135.18,135.18,0,0,1,36.64-11l2.89,28.23a5.68,5.68,0,0,0,2,3.84,5.55,5.55,0,0,0,4.13,1.25,102.88,102.88,0,0,1,37,3,5.58,5.58,0,0,0,4.28-.57,5.69,5.69,0,0,0,2.63-3.47l4.38-16.53a5.75,5.75,0,0,0-.58-4.35,5.66,5.66,0,0,0-3.47-2.64l-6.42-1.67c-1.52-.35-3-.59-4.59-.81-.71-.1-1.43-.21-2.24-.35l-7-1-.88-.05.29-5.6a135.3,135.3,0,0,1,37.16,8.93l-11.44,25.93a5.75,5.75,0,0,0-.11,4.37,5.66,5.66,0,0,0,3,3.17,101.33,101.33,0,0,1,30.55,21.14,5.6,5.6,0,0,0,8,0l12-12.1a5.73,5.73,0,0,0-.23-8.29c-1.12-1-2.22-2-3.32-3-2.15-2-4.29-4-6.84-6.1-1.21-.86-2.38-1.77-3.56-2.68-.82-.64-1.66-1.29-2.52-1.93l3.09-4.79A135.9,135.9,0,0,1,283.38,244Z"/><path class="cls-4" d="M177.32,237.66A90,90,0,0,0,99,283.43a91.89,91.89,0,0,0,.48,91.45c.11.2.22.4.35.59a91.64,91.64,0,0,0,23,26c.14.1.22.25.38.34l.12,0a88.88,88.88,0,0,0,108,0,.84.84,0,0,0,.14-.06,4.32,4.32,0,0,0,.39-.34,91.61,91.61,0,0,0,23-26,5.08,5.08,0,0,0,.35-.59,91.87,91.87,0,0,0,.48-91.45A89.94,89.94,0,0,0,177.32,237.66Zm-10.18,12.15L104.49,359.9a80.51,80.51,0,0,1,4.32-70.74A78.89,78.89,0,0,1,167.14,249.81ZM133.45,395.27l43.87-77.06,43.86,77.06a78.09,78.09,0,0,1-87.73,0Zm96.69-7.15-45.48-79.89a8.44,8.44,0,0,0-14.69,0l-45.48,79.89a80,80,0,0,1-13.73-16.35l66.56-117,12.91,22.62c.08.17.16.34.25.51l53.39,93.85a80.32,80.32,0,0,1-13.73,16.35Zm20-28.23-49.6-87.2c-.08-.18-.17-.35-.26-.52l-12.76-22.36a78.88,78.88,0,0,1,58.31,39.35,80.53,80.53,0,0,1,4.32,70.73Z"/><path class="cls-5" d="M596.18,33.17c-131.18,0-239,88.6-251.44,202l-74.67,29.74s-4.88,1.81-4.39,8.81a9.53,9.53,0,0,0,5.58,8.16l78.16,23.46C374.31,405.77,475.33,481,596.18,481c139.53,0,252.64-100.24,252.64-223.9S735.71,33.17,596.18,33.17Z"/><path class="cls-6" d="M596.14,0C465,0,357.14,88.6,344.7,202L270,231.7s-4.88,1.81-4.39,8.81a9.53,9.53,0,0,0,5.58,8.16l78.16,23.46C374.27,372.6,475.29,447.81,596.14,447.81c139.53,0,252.64-100.25,252.64-223.91S735.67,0,596.14,0Z"/><path class="cls-7" d="M423.26,139.59v1l-1.81.14v15.21h-1.32l-9.19-14.06h-.07V154.8l1.81.15v1h-5v-1l1.82-.15V140.73l-1.82-.14v-1h3.15l9.19,14h.07V140.73l-1.81-.14v-1h4.94Z"/><path class="cls-7" d="M433.39,155.94a9.82,9.82,0,0,1-.19-1.07,6.84,6.84,0,0,1-.06-.91,5.15,5.15,0,0,1-1.78,1.58,5,5,0,0,1-2.5.63,3.76,3.76,0,0,1-2.73-.92,3.25,3.25,0,0,1-1-2.49,3.08,3.08,0,0,1,1.44-2.67,6.73,6.73,0,0,1,3.89-1h2.65v-1.61a2.56,2.56,0,0,0-.83-2,3.31,3.31,0,0,0-2.31-.74,5.86,5.86,0,0,0-1.83.27,4.19,4.19,0,0,0-1.39.75l-.11,1.63h-1.1V145a7,7,0,0,1,2-1.05,7.44,7.44,0,0,1,2.47-.41,4.78,4.78,0,0,1,3.2,1,3.61,3.61,0,0,1,1.21,2.93v6c0,.25,0,.48,0,.71s0,.45.07.67l1.2.08v1Zm.47-16.84a2.28,2.28,0,0,1-.61,1.64,2,2,0,0,1-1.52.65,2.87,2.87,0,0,1-1.68-.61,2.6,2.6,0,0,0-1.45-.62,1.15,1.15,0,0,0-.88.39,1.43,1.43,0,0,0-.36,1l-.88-.2a2.3,2.3,0,0,1,.6-1.62,2,2,0,0,1,1.52-.66,3.09,3.09,0,0,1,1.64.62,2.9,2.9,0,0,0,1.49.61,1.15,1.15,0,0,0,.88-.4,1.48,1.48,0,0,0,.36-1ZM429,155a4.75,4.75,0,0,0,2.54-.67,3.9,3.9,0,0,0,1.59-1.74v-2.44h-2.68a4.9,4.9,0,0,0-2.89.76,2.26,2.26,0,0,0-1.09,1.91,2,2,0,0,0,.68,1.58A2.66,2.66,0,0,0,429,155Z"/><path class="cls-7" d="M437.64,149.68a6.58,6.58,0,0,1,1.46-4.4,5.19,5.19,0,0,1,7.72,0,6.58,6.58,0,0,1,1.46,4.4v.37a6.62,6.62,0,0,1-1.45,4.41,5.22,5.22,0,0,1-7.73,0,6.57,6.57,0,0,1-1.46-4.41Zm1.34.37a5.86,5.86,0,0,0,1,3.55,3.46,3.46,0,0,0,3,1.44,3.43,3.43,0,0,0,2.91-1.44,5.86,5.86,0,0,0,1.06-3.55v-.37a5.77,5.77,0,0,0-1.07-3.52,3.68,3.68,0,0,0-5.85,0,5.83,5.83,0,0,0-1,3.52Z"/><path class="cls-7" d="M455.89,155l1.81-.15v-9.87l-1.81-.14v-1H459v11l1.81.15v1h-4.95ZM459,140.3H457.7v-1.88H459Z"/><path class="cls-7" d="M462.78,144.79v-1h3l.12,2a4.19,4.19,0,0,1,1.55-1.65,4.35,4.35,0,0,1,2.3-.59,3.8,3.8,0,0,1,2.3.68,3.67,3.67,0,0,1,1.32,2.07,4.78,4.78,0,0,1,1.55-2,4,4,0,0,1,2.45-.74,3.62,3.62,0,0,1,3,1.29,6.29,6.29,0,0,1,1.05,4v5.94l1.81.16v1h-5v-1l1.81-.16v-6a5,5,0,0,0-.78-3.17,2.69,2.69,0,0,0-2.18-.93,3,3,0,0,0-2.4,1,4.82,4.82,0,0,0-1,2.55,1,1,0,0,0,0,.17v6.35l1.81.15v1h-4.95v-1l1.81-.15v-6a4.91,4.91,0,0,0-.8-3.15,2.69,2.69,0,0,0-2.18-1,3.3,3.3,0,0,0-2.25.72,3.92,3.92,0,0,0-1.16,2v7.4l1.81.15v1h-5v-1l1.81-.15v-9.87Z"/><path class="cls-7" d="M493.15,155.94a9.82,9.82,0,0,1-.19-1.07,6.84,6.84,0,0,1-.06-.91,5.15,5.15,0,0,1-1.78,1.58,5,5,0,0,1-2.5.63,3.76,3.76,0,0,1-2.73-.92,3.25,3.25,0,0,1-1-2.49,3.08,3.08,0,0,1,1.44-2.67,6.73,6.73,0,0,1,3.89-1h2.65v-1.61a2.59,2.59,0,0,0-.83-2,3.31,3.31,0,0,0-2.31-.74,5.86,5.86,0,0,0-1.83.27,4.19,4.19,0,0,0-1.39.75l-.11,1.63h-1.1V145a7,7,0,0,1,2-1.05,7.44,7.44,0,0,1,2.47-.41,4.78,4.78,0,0,1,3.2,1,3.61,3.61,0,0,1,1.21,2.93v6c0,.25,0,.48,0,.71s0,.45.07.67l1.2.08v1Zm-4.38-1a4.75,4.75,0,0,0,2.54-.67,3.9,3.9,0,0,0,1.59-1.74v-2.44h-2.68a4.9,4.9,0,0,0-2.89.76,2.26,2.26,0,0,0-1.09,1.91,2,2,0,0,0,.68,1.58A2.66,2.66,0,0,0,488.77,155Z"/><path class="cls-7" d="M497.46,150a7.91,7.91,0,0,1,1.23-4.65,3.91,3.91,0,0,1,3.4-1.75,4.22,4.22,0,0,1,2.22.57,4.49,4.49,0,0,1,1.55,1.6l.16-1.94h1.12v12a5.26,5.26,0,0,1-1.26,3.71,4.55,4.55,0,0,1-3.5,1.36,8.94,8.94,0,0,1-1.85-.22,7.37,7.37,0,0,1-1.72-.58l.36-1.14a6.71,6.71,0,0,0,1.52.54,7,7,0,0,0,1.67.19,3.2,3.2,0,0,0,2.58-1,4.25,4.25,0,0,0,.86-2.84v-1.54a4.13,4.13,0,0,1-1.54,1.43,4.48,4.48,0,0,1-2.19.5,4,4,0,0,1-3.39-1.63,7.07,7.07,0,0,1-1.22-4.34Zm1.33.24a6.23,6.23,0,0,0,.88,3.5,3,3,0,0,0,2.64,1.31,3.73,3.73,0,0,0,2.17-.6,3.85,3.85,0,0,0,1.32-1.64v-5.64a4.22,4.22,0,0,0-1.27-1.73,3.39,3.39,0,0,0-2.19-.67,2.91,2.91,0,0,0-2.65,1.46,7.09,7.09,0,0,0-.9,3.77Z"/><path class="cls-7" d="M510.07,155l1.81-.15v-9.87l-1.81-.14v-1h3.14v11L515,155v1h-4.95Zm3.14-14.65h-1.33v-1.88h1.33Z"/><path class="cls-7" d="M517,155l1.81-.15v-9.87l-1.81-.14v-1h3l.12,2.12a4.33,4.33,0,0,1,1.56-1.74,4.4,4.4,0,0,1,2.33-.61,3.68,3.68,0,0,1,3,1.21,5.76,5.76,0,0,1,1,3.77v6.26l1.81.15v1h-5v-1l1.81-.15v-6.25a4.43,4.43,0,0,0-.78-3,2.79,2.79,0,0,0-2.19-.86,3.43,3.43,0,0,0-2.29.75,4.15,4.15,0,0,0-1.27,2v7.34L522,155v1h-5Z"/><path class="cls-7" d="M531.8,149.68a6.58,6.58,0,0,1,1.46-4.4,5.19,5.19,0,0,1,7.72,0,6.58,6.58,0,0,1,1.46,4.4v.37a6.62,6.62,0,0,1-1.45,4.41,5.22,5.22,0,0,1-7.73,0,6.57,6.57,0,0,1-1.46-4.41Zm1.33.37a5.86,5.86,0,0,0,1.06,3.55,3.7,3.7,0,0,0,5.86,0,5.86,5.86,0,0,0,1.05-3.55v-.37a5.77,5.77,0,0,0-1.06-3.52,3.68,3.68,0,0,0-5.85,0,5.83,5.83,0,0,0-1.06,3.52Z"/><path class="cls-7" d="M550.14,150a8,8,0,0,1,1.21-4.65,3.92,3.92,0,0,1,3.4-1.75,4.1,4.1,0,0,1,3.69,2l.13-1.79h1.17v15.67l1.81.15v1h-5v-1l1.82-.15v-5.12a4.1,4.1,0,0,1-1.54,1.36,4.56,4.56,0,0,1-2.14.47,4,4,0,0,1-3.38-1.63,7.07,7.07,0,0,1-1.21-4.34Zm1.34.24a6.3,6.3,0,0,0,.87,3.52A3,3,0,0,0,555,155a3.7,3.7,0,0,0,2.1-.57,3.81,3.81,0,0,0,1.33-1.55V147a4.41,4.41,0,0,0-1.3-1.64,3.31,3.31,0,0,0-2.1-.64,2.89,2.89,0,0,0-2.64,1.46,7.26,7.26,0,0,0-.89,3.79Z"/><path class="cls-7" d="M571.69,153.94a4.18,4.18,0,0,1-1.55,1.65,4.47,4.47,0,0,1-2.32.58,3.62,3.62,0,0,1-3-1.3,6.27,6.27,0,0,1-1.08-4v-5.9l-1.48-.14v-1h2.81v7.06a5.27,5.27,0,0,0,.75,3.19,2.55,2.55,0,0,0,2.12,1,3.92,3.92,0,0,0,2.41-.68,3.53,3.53,0,0,0,1.26-1.86v-7.54l-1.71-.14v-1H573v11l1.61.15v1h-2.78Z"/><path class="cls-7" d="M581.84,156.17a4.79,4.79,0,0,1-3.75-1.68,6.19,6.19,0,0,1-1.49-4.27v-.62a6.38,6.38,0,0,1,1.48-4.32,4.58,4.58,0,0,1,3.59-1.72,4.43,4.43,0,0,1,3.48,1.42,5.45,5.45,0,0,1,1.26,3.77v1.15h-8.49v.32a5.36,5.36,0,0,0,1.09,3.43,3.4,3.4,0,0,0,2.83,1.39,5.81,5.81,0,0,0,2.12-.35,4.16,4.16,0,0,0,1.5-1l.56.92a4.75,4.75,0,0,1-1.71,1.14A6.55,6.55,0,0,1,581.84,156.17Zm-.17-11.46a3.2,3.2,0,0,0-2.48,1.14,4.9,4.9,0,0,0-1.17,2.86l0,0h7.05v-.34a4,4,0,0,0-.92-2.65A3.14,3.14,0,0,0,581.67,144.71Z"/><path class="cls-7" d="M603.05,147.54H602l-.15-1.72a3.4,3.4,0,0,0-1.27-.82,4.72,4.72,0,0,0-1.75-.29,3.24,3.24,0,0,0-2.18.63,1.91,1.91,0,0,0-.73,1.49,1.76,1.76,0,0,0,.63,1.39,6,6,0,0,0,2.51,1,8.07,8.07,0,0,1,3.21,1.32,2.73,2.73,0,0,1,1.06,2.27,3,3,0,0,1-1.21,2.46,5.17,5.17,0,0,1-3.22.93,7.47,7.47,0,0,1-2.43-.37,5.8,5.8,0,0,1-1.89-1.06v-2.45h1.08l.18,1.73a3.13,3.13,0,0,0,1.35.78,6.09,6.09,0,0,0,1.71.24,3.65,3.65,0,0,0,2.28-.64,1.91,1.91,0,0,0,.83-1.55,2,2,0,0,0-.69-1.49,5.62,5.62,0,0,0-2.51-1.05,8.29,8.29,0,0,1-3.18-1.25,2.56,2.56,0,0,1-1-2.18,3,3,0,0,1,1.16-2.36,4.71,4.71,0,0,1,3.08-1,6.9,6.9,0,0,1,2.42.41,4.91,4.91,0,0,1,1.79,1.11Z"/><path class="cls-7" d="M611,156.17a4.81,4.81,0,0,1-3.76-1.68,6.19,6.19,0,0,1-1.49-4.27v-.62a6.39,6.39,0,0,1,1.49-4.32,4.56,4.56,0,0,1,3.58-1.72,4.4,4.4,0,0,1,3.48,1.42,5.46,5.46,0,0,1,1.27,3.77v1.15H607.1v.32a5.41,5.41,0,0,0,1.08,3.43A3.42,3.42,0,0,0,611,155a5.79,5.79,0,0,0,2.11-.35,4,4,0,0,0,1.5-1l.57.92a4.75,4.75,0,0,1-1.71,1.14A6.58,6.58,0,0,1,611,156.17Zm-.18-11.46a3.16,3.16,0,0,0-2.47,1.14,4.9,4.9,0,0,0-1.17,2.86l0,0h7v-.34a3.91,3.91,0,0,0-.92-2.65A3.13,3.13,0,0,0,610.84,144.71Z"/><path class="cls-7" d="M620.84,143.79l.17,2V146a4.37,4.37,0,0,1,1.39-1.75,3.47,3.47,0,0,1,2.1-.64,2.63,2.63,0,0,1,.49,0l.4.09-.18,1.25-1-.06a3,3,0,0,0-2.06.71,3.9,3.9,0,0,0-1.15,2v7.25l1.81.15v1h-4.94v-1l1.81-.15v-9.87l-1.81-.14v-1h3Z"/><path class="cls-7" d="M635.41,155.94c-.09-.41-.15-.77-.19-1.07a9.08,9.08,0,0,1-.05-.91,5.25,5.25,0,0,1-1.78,1.58,5,5,0,0,1-2.5.63,3.76,3.76,0,0,1-2.73-.92,3.25,3.25,0,0,1-1-2.49,3.1,3.1,0,0,1,1.43-2.67,6.75,6.75,0,0,1,3.89-1h2.66v-1.61a2.59,2.59,0,0,0-.83-2,3.32,3.32,0,0,0-2.32-.74,5.84,5.84,0,0,0-1.82.27,4.09,4.09,0,0,0-1.39.75l-.11,1.63h-1.1V145a7,7,0,0,1,2-1.05,7.44,7.44,0,0,1,2.47-.41,4.8,4.8,0,0,1,3.2,1,3.61,3.61,0,0,1,1.21,2.93v6c0,.25,0,.48,0,.71a4.9,4.9,0,0,0,.07.67l1.2.08v1ZM631,155a4.76,4.76,0,0,0,2.55-.67,4,4,0,0,0,1.59-1.74v-2.44h-2.68a5,5,0,0,0-2.9.76,2.25,2.25,0,0,0-1.08,1.91,2,2,0,0,0,.67,1.58A2.69,2.69,0,0,0,631,155Zm2.26-15.83h1.63l0,.06-2.77,2.92H631Z"/><path class="cls-7" d="M645,144.89v-1.1h2V142a4,4,0,0,1,.91-2.83,3.27,3.27,0,0,1,2.54-1,4.81,4.81,0,0,1,.74.06,7.37,7.37,0,0,1,.76.16l-.16,1.11a4.86,4.86,0,0,0-.55-.11,4.11,4.11,0,0,0-.65,0,2.06,2.06,0,0,0-1.68.7,2.93,2.93,0,0,0-.58,1.95v1.78h2.87v1.1h-2.87v9.91l1.81.15v1h-5v-1l1.82-.15v-9.91Z"/><path class="cls-7" d="M661.56,155.94c-.08-.41-.15-.77-.18-1.07a6.84,6.84,0,0,1-.06-.91,5.15,5.15,0,0,1-1.78,1.58,5,5,0,0,1-2.5.63,3.76,3.76,0,0,1-2.73-.92,3.25,3.25,0,0,1-1-2.49,3.1,3.1,0,0,1,1.43-2.67,6.77,6.77,0,0,1,3.89-1h2.66v-1.61a2.59,2.59,0,0,0-.83-2,3.32,3.32,0,0,0-2.32-.74,5.84,5.84,0,0,0-1.82.27,4.09,4.09,0,0,0-1.39.75l-.11,1.63h-1.1V145a7,7,0,0,1,2-1.05,7.44,7.44,0,0,1,2.47-.41,4.8,4.8,0,0,1,3.2,1,3.61,3.61,0,0,1,1.21,2.93v6c0,.25,0,.48,0,.71a4.9,4.9,0,0,0,.07.67l1.2.08v1Zm-4.37-1a4.75,4.75,0,0,0,2.54-.67,4,4,0,0,0,1.59-1.74v-2.44h-2.68a4.9,4.9,0,0,0-2.89.76,2.24,2.24,0,0,0-1.09,1.91,2,2,0,0,0,.67,1.58A2.7,2.7,0,0,0,657.19,155Zm2.25-15.83h1.64l0,.06-2.77,2.92h-1.19Z"/><path class="cls-7" d="M671,155a3.81,3.81,0,0,0,2.33-.76,2.53,2.53,0,0,0,1-2.13h1.18l0,.07a3.34,3.34,0,0,1-1.33,2.82,4.93,4.93,0,0,1-3.21,1.13,4.53,4.53,0,0,1-3.79-1.7,6.81,6.81,0,0,1-1.35-4.37v-.47a6.82,6.82,0,0,1,1.35-4.36,4.51,4.51,0,0,1,3.77-1.71,6.09,6.09,0,0,1,2.55.53,5,5,0,0,1,1.88,1.44l0,2.65h-1.13l-.21-2.16a4,4,0,0,0-1.33-1,4.49,4.49,0,0,0-1.81-.35,3.19,3.19,0,0,0-2.86,1.4,6.21,6.21,0,0,0-.92,3.52v.47a6.27,6.27,0,0,0,.92,3.55A3.19,3.19,0,0,0,671,155Z"/><path class="cls-7" d="M677.89,155l1.81-.15v-9.87l-1.81-.14v-1H681v11l1.82.15v1h-5ZM681,140.3H679.7v-1.88H681Z"/><path class="cls-7" d="M684.8,139.42v-1h3.14V154.8l1.81.15v1h-5v-1l1.82-.15V139.56Z"/><path class="cls-7" d="M693.91,155.94h-1.53V154.1h1.53Z"/><path class="cls-7" d="M411.71,168.19l-1.51.12,4.47,12.46.32,1.09h.07l.32-1.09,4.46-12.46-1.51-.12v-1h4.2v1l-1.26.1-5.62,15.25h-1.26l-5.63-15.25-1.25-.1v-1h4.2Z"/><path class="cls-7" d="M423.67,177.28a6.58,6.58,0,0,1,1.46-4.4,5.19,5.19,0,0,1,7.72,0,6.58,6.58,0,0,1,1.46,4.4v.37a6.57,6.57,0,0,1-1.45,4.41,5.22,5.22,0,0,1-7.73,0,6.57,6.57,0,0,1-1.46-4.41Zm1.34.37a5.86,5.86,0,0,0,1.05,3.55,3.46,3.46,0,0,0,2.95,1.44,3.41,3.41,0,0,0,2.91-1.44,5.86,5.86,0,0,0,1.06-3.55v-.37a5.77,5.77,0,0,0-1.07-3.52,3.68,3.68,0,0,0-5.85,0,5.83,5.83,0,0,0-1.05,3.52Z"/><path class="cls-7" d="M445.31,181.54a4.12,4.12,0,0,1-1.55,1.65,4.47,4.47,0,0,1-2.32.58,3.64,3.64,0,0,1-3-1.3,6.27,6.27,0,0,1-1.07-4v-5.9l-1.49-.15v-1h2.81v7.06a5.27,5.27,0,0,0,.75,3.19,2.55,2.55,0,0,0,2.13,1,3.87,3.87,0,0,0,2.4-.68,3.6,3.6,0,0,0,1.27-1.86v-7.54l-1.72-.15v-1h3.05v11l1.61.15v1h-2.78Z"/><path class="cls-7" d="M455.35,172.38v-1h2.92l.17,1.88a4.19,4.19,0,0,1,3.79-2.11,3.91,3.91,0,0,1,3.39,1.75,8,8,0,0,1,1.22,4.65v.24a7.08,7.08,0,0,1-1.22,4.35,4,4,0,0,1-3.37,1.62,4.72,4.72,0,0,1-2.22-.49,4,4,0,0,1-1.55-1.38v5.16l1.81.15v1h-4.94v-1l1.81-.15V172.53Zm10.15,5.18a7,7,0,0,0-.91-3.77,2.94,2.94,0,0,0-2.66-1.46,3.5,3.5,0,0,0-2.19.64,4,4,0,0,0-1.26,1.68v5.84a3.66,3.66,0,0,0,1.32,1.58,3.8,3.8,0,0,0,2.15.57,3,3,0,0,0,2.65-1.33,6.13,6.13,0,0,0,.9-3.51Z"/><path class="cls-7" d="M471.89,171.39l.16,2v.14a4.24,4.24,0,0,1,1.4-1.75,3.44,3.44,0,0,1,2.09-.64,2.74,2.74,0,0,1,.5,0,2.28,2.28,0,0,1,.39.09l-.18,1.25-1-.07a3,3,0,0,0-2.06.72,4,4,0,0,0-1.15,2v7.25l1.81.15v1h-4.94v-1l1.81-.15v-9.87l-1.81-.15v-1h3Z"/><path class="cls-7" d="M483.24,183.77a4.79,4.79,0,0,1-3.75-1.68,6.16,6.16,0,0,1-1.49-4.27v-.62a6.38,6.38,0,0,1,1.48-4.32,4.56,4.56,0,0,1,3.58-1.72,4.4,4.4,0,0,1,3.48,1.42,5.41,5.41,0,0,1,1.27,3.77v1.15h-8.49v.32a5.41,5.41,0,0,0,1.08,3.43,3.42,3.42,0,0,0,2.84,1.39,5.71,5.71,0,0,0,2.11-.35,4,4,0,0,0,1.5-1l.57.92a4.75,4.75,0,0,1-1.71,1.14A6.55,6.55,0,0,1,483.24,183.77Zm-.18-11.46a3.18,3.18,0,0,0-2.47,1.14,4.9,4.9,0,0,0-1.17,2.85l0,.06h7.05V176a3.94,3.94,0,0,0-.92-2.65A3.15,3.15,0,0,0,483.06,172.31Z"/><path class="cls-7" d="M495.32,182.64a3.83,3.83,0,0,0,2.34-.76,2.53,2.53,0,0,0,1-2.13h1.18l0,.07a3.36,3.36,0,0,1-1.33,2.82,4.94,4.94,0,0,1-3.22,1.13,4.54,4.54,0,0,1-3.79-1.7,6.86,6.86,0,0,1-1.34-4.37v-.47a6.87,6.87,0,0,1,1.34-4.36,4.54,4.54,0,0,1,3.78-1.71,6.09,6.09,0,0,1,2.55.53,5,5,0,0,1,1.88,1.44l.05,2.65h-1.13l-.21-2.16a4,4,0,0,0-1.33-1,4.33,4.33,0,0,0-1.81-.35,3.18,3.18,0,0,0-2.86,1.4,6.21,6.21,0,0,0-.93,3.52v.47a6.37,6.37,0,0,0,.92,3.55A3.24,3.24,0,0,0,495.32,182.64Z"/><path class="cls-7" d="M502.26,182.55l1.81-.15v-9.87l-1.81-.15v-1h3.13v11l1.81.15v1h-4.94Zm3.13-14.65h-1.32V166h1.32Z"/><path class="cls-7" d="M518.16,175.14h-1.09l-.15-1.72a3.44,3.44,0,0,0-1.26-.82,4.8,4.8,0,0,0-1.75-.29,3.27,3.27,0,0,0-2.19.63,1.94,1.94,0,0,0-.73,1.49,1.76,1.76,0,0,0,.63,1.39,6,6,0,0,0,2.51,1,8.07,8.07,0,0,1,3.21,1.32,2.73,2.73,0,0,1,1.07,2.27,3,3,0,0,1-1.22,2.45,5.09,5.09,0,0,1-3.22.94,7.47,7.47,0,0,1-2.43-.37,5.8,5.8,0,0,1-1.89-1.06v-2.45h1.08l.19,1.73a3,3,0,0,0,1.35.78,6,6,0,0,0,1.7.24,3.65,3.65,0,0,0,2.28-.64,1.9,1.9,0,0,0,.83-1.55,2,2,0,0,0-.69-1.49,5.56,5.56,0,0,0-2.51-1.05,8.29,8.29,0,0,1-3.18-1.25,2.59,2.59,0,0,1-1-2.19,2.94,2.94,0,0,1,1.17-2.35,4.67,4.67,0,0,1,3.08-1,6.89,6.89,0,0,1,2.41.41,4.79,4.79,0,0,1,1.79,1.11Z"/><path class="cls-7" d="M529.13,183.54c-.09-.41-.15-.77-.19-1.07a9.08,9.08,0,0,1-.05-.91,5.35,5.35,0,0,1-1.78,1.58,5,5,0,0,1-2.5.63,3.8,3.8,0,0,1-2.74-.92,3.28,3.28,0,0,1-1-2.49,3.06,3.06,0,0,1,1.43-2.67,6.75,6.75,0,0,1,3.89-1h2.66v-1.61a2.59,2.59,0,0,0-.83-2,3.33,3.33,0,0,0-2.32-.74,5.86,5.86,0,0,0-1.83.27,4.14,4.14,0,0,0-1.38.75l-.11,1.63h-1.1v-2.34a6.71,6.71,0,0,1,2-1.05,7.5,7.5,0,0,1,2.48-.41,4.82,4.82,0,0,1,3.2,1,3.61,3.61,0,0,1,1.21,2.93v6c0,.25,0,.48,0,.71a4.9,4.9,0,0,0,.07.67l1.2.08v1Zm-4.38-1a4.81,4.81,0,0,0,2.55-.67,4,4,0,0,0,1.59-1.74v-2.44h-2.68a5,5,0,0,0-2.9.76,2.25,2.25,0,0,0-1.08,1.91,2,2,0,0,0,.67,1.58A2.69,2.69,0,0,0,524.75,182.58Z"/><path class="cls-7" d="M536.27,171.39l.16,2v.14a4.24,4.24,0,0,1,1.4-1.75,3.46,3.46,0,0,1,2.09-.64,2.74,2.74,0,0,1,.5,0,2.28,2.28,0,0,1,.39.09l-.18,1.25-1-.07a3,3,0,0,0-2.06.72,4,4,0,0,0-1.15,2v7.25l1.81.15v1H533.3v-1l1.81-.15v-9.87l-1.81-.15v-1h3Z"/><path class="cls-7" d="M556.43,181.79a4.28,4.28,0,0,1-1.55,1.47,4.61,4.61,0,0,1-2.22.51,4,4,0,0,1-3.37-1.63,7,7,0,0,1-1.22-4.34v-.24a7.9,7.9,0,0,1,1.22-4.65,3.89,3.89,0,0,1,3.39-1.75,4.32,4.32,0,0,1,2.18.53,4.39,4.39,0,0,1,1.53,1.53v-6.06l-1.81-.14v-1h3.15V182.4l1.81.15v1h-3Zm-7-4a6.21,6.21,0,0,0,.88,3.5,2.94,2.94,0,0,0,2.63,1.31,3.69,3.69,0,0,0,2.13-.59,3.77,3.77,0,0,0,1.34-1.6v-5.75a4.16,4.16,0,0,0-1.28-1.69,3.46,3.46,0,0,0-2.17-.65,2.89,2.89,0,0,0-2.64,1.45,7.19,7.19,0,0,0-.89,3.78Z"/><path class="cls-7" d="M566.88,183.77a4.79,4.79,0,0,1-3.75-1.68,6.21,6.21,0,0,1-1.49-4.27v-.62a6.38,6.38,0,0,1,1.48-4.32,4.58,4.58,0,0,1,3.59-1.72,4.43,4.43,0,0,1,3.48,1.42,5.45,5.45,0,0,1,1.26,3.77v1.15H563v.32a5.36,5.36,0,0,0,1.09,3.43,3.4,3.4,0,0,0,2.83,1.39,5.81,5.81,0,0,0,2.12-.35,4.16,4.16,0,0,0,1.5-1l.56.92a4.75,4.75,0,0,1-1.71,1.14A6.55,6.55,0,0,1,566.88,183.77Zm-.17-11.46a3.2,3.2,0,0,0-2.48,1.14,4.9,4.9,0,0,0-1.17,2.85l0,.06h7V176a3.94,3.94,0,0,0-.92-2.65A3.14,3.14,0,0,0,566.71,172.31Z"/><path class="cls-7" d="M582.42,168.28v3.11h2.65v1.1h-2.65v7.91a2.62,2.62,0,0,0,.43,1.69,1.42,1.42,0,0,0,1.14.5l.63,0c.2,0,.44,0,.7-.1l.2,1a3.15,3.15,0,0,1-.81.22,5.15,5.15,0,0,1-1,.08,2.48,2.48,0,0,1-2-.81,3.82,3.82,0,0,1-.7-2.56v-7.91H579v-1.1h2.07v-3.11Z"/><path class="cls-7" d="M592.81,183.77a4.79,4.79,0,0,1-3.75-1.68,6.16,6.16,0,0,1-1.49-4.27v-.62a6.38,6.38,0,0,1,1.48-4.32,4.58,4.58,0,0,1,3.59-1.72,4.43,4.43,0,0,1,3.48,1.42,5.45,5.45,0,0,1,1.26,3.77v1.15h-8.49v.32a5.41,5.41,0,0,0,1.08,3.43,3.43,3.43,0,0,0,2.84,1.39,5.81,5.81,0,0,0,2.12-.35,4.16,4.16,0,0,0,1.5-1l.56.92a4.75,4.75,0,0,1-1.71,1.14A6.55,6.55,0,0,1,592.81,183.77Zm-.17-11.46a3.18,3.18,0,0,0-2.48,1.14A4.9,4.9,0,0,0,589,176.3l0,.06h7V176a3.94,3.94,0,0,0-.92-2.65A3.14,3.14,0,0,0,592.64,172.31Z"/><path class="cls-7" d="M604.89,182.64a3.83,3.83,0,0,0,2.34-.76,2.53,2.53,0,0,0,1-2.13h1.18l0,.07a3.36,3.36,0,0,1-1.33,2.82,4.94,4.94,0,0,1-3.22,1.13,4.54,4.54,0,0,1-3.79-1.7,6.86,6.86,0,0,1-1.34-4.37v-.47a6.87,6.87,0,0,1,1.34-4.36,4.54,4.54,0,0,1,3.78-1.71,6.09,6.09,0,0,1,2.55.53,5,5,0,0,1,1.88,1.44l.05,2.65h-1.13l-.21-2.16a4,4,0,0,0-1.33-1,4.33,4.33,0,0,0-1.81-.35,3.18,3.18,0,0,0-2.86,1.4,6.21,6.21,0,0,0-.93,3.52v.47a6.29,6.29,0,0,0,.93,3.55A3.21,3.21,0,0,0,604.89,182.64Z"/><path class="cls-7" d="M611.67,182.55l1.82-.15v-9.87l-1.82-.15v-1h3l.13,2.12a4.26,4.26,0,0,1,1.56-1.74,4.36,4.36,0,0,1,2.32-.61,3.66,3.66,0,0,1,3,1.21,5.76,5.76,0,0,1,1,3.77v6.26l1.81.15v1h-5v-1l1.81-.15v-6.25a4.47,4.47,0,0,0-.77-3,2.83,2.83,0,0,0-2.2-.86,3.4,3.4,0,0,0-2.28.75,4.08,4.08,0,0,0-1.27,2v7.34l1.81.15v1h-5Z"/><path class="cls-7" d="M626.47,177.28a6.57,6.57,0,0,1,1.45-4.4,5.2,5.2,0,0,1,7.73,0,6.57,6.57,0,0,1,1.45,4.4v.37a6.57,6.57,0,0,1-1.45,4.41,5.22,5.22,0,0,1-7.73,0,6.57,6.57,0,0,1-1.45-4.41Zm1.33.37a5.8,5.8,0,0,0,1.06,3.55,3.69,3.69,0,0,0,5.85,0,5.8,5.8,0,0,0,1.06-3.55v-.37a5.83,5.83,0,0,0-1.06-3.52,3.43,3.43,0,0,0-2.93-1.45,3.39,3.39,0,0,0-2.92,1.45,5.77,5.77,0,0,0-1.06,3.52Z"/><path class="cls-7" d="M638.78,167v-1h3.13V182.4l1.82.15v1h-5v-1l1.81-.15V167.16Z"/><path class="cls-7" d="M645.6,177.28a6.58,6.58,0,0,1,1.46-4.4,5.19,5.19,0,0,1,7.72,0,6.58,6.58,0,0,1,1.46,4.4v.37a6.57,6.57,0,0,1-1.45,4.41,5.22,5.22,0,0,1-7.73,0,6.57,6.57,0,0,1-1.46-4.41Zm1.34.37a5.86,5.86,0,0,0,1,3.55,3.46,3.46,0,0,0,3,1.44,3.4,3.4,0,0,0,2.91-1.44,5.86,5.86,0,0,0,1.06-3.55v-.37a5.77,5.77,0,0,0-1.07-3.52,3.68,3.68,0,0,0-5.85,0,5.83,5.83,0,0,0-1,3.52Z"/><path class="cls-7" d="M658.46,177.56a7.91,7.91,0,0,1,1.23-4.65,3.92,3.92,0,0,1,3.41-1.75,4.15,4.15,0,0,1,2.21.57,4.41,4.41,0,0,1,1.55,1.6l.16-1.94h1.12v12a5.3,5.3,0,0,1-1.25,3.71,4.57,4.57,0,0,1-3.51,1.36,8.85,8.85,0,0,1-1.84-.22,7.37,7.37,0,0,1-1.72-.58l.35-1.14a7.43,7.43,0,0,0,1.52.54,7,7,0,0,0,1.67.19,3.2,3.2,0,0,0,2.58-1,4.25,4.25,0,0,0,.87-2.84v-1.54a4.16,4.16,0,0,1-1.55,1.43,4.48,4.48,0,0,1-2.19.5,4,4,0,0,1-3.39-1.63,7.07,7.07,0,0,1-1.22-4.34Zm1.33.24a6.17,6.17,0,0,0,.89,3.5,3,3,0,0,0,2.64,1.31,3.67,3.67,0,0,0,2.16-.6,3.87,3.87,0,0,0,1.33-1.64v-5.64a4.24,4.24,0,0,0-1.28-1.73,3.39,3.39,0,0,0-2.19-.67,2.92,2.92,0,0,0-2.65,1.46,7.09,7.09,0,0,0-.9,3.77Z"/><path class="cls-7" d="M671.08,182.55l1.81-.15v-9.87l-1.81-.15v-1h3.13v11l1.81.15v1h-4.94Zm3.13-14.65h-1.32V166h1.32Z"/><path class="cls-7" d="M686.56,183.54c-.09-.41-.15-.77-.19-1.07a6.84,6.84,0,0,1-.06-.91,5.22,5.22,0,0,1-1.77,1.58,5,5,0,0,1-2.51.63,3.79,3.79,0,0,1-2.73-.92,3.28,3.28,0,0,1-1-2.49,3.07,3.07,0,0,1,1.44-2.67,6.73,6.73,0,0,1,3.89-1h2.65v-1.61a2.59,2.59,0,0,0-.82-2,3.35,3.35,0,0,0-2.32-.74,5.86,5.86,0,0,0-1.83.27,4.14,4.14,0,0,0-1.38.75l-.12,1.63h-1.09v-2.34a6.71,6.71,0,0,1,2-1.05,7.49,7.49,0,0,1,2.47-.41,4.78,4.78,0,0,1,3.2,1,3.62,3.62,0,0,1,1.22,2.93v6c0,.25,0,.48,0,.71s0,.45.07.67l1.2.08v1Zm-4.38-1a4.75,4.75,0,0,0,2.54-.67,3.9,3.9,0,0,0,1.59-1.74v-2.44h-2.68a4.92,4.92,0,0,0-2.89.76,2.25,2.25,0,0,0-1.08,1.91,2,2,0,0,0,.67,1.58A2.67,2.67,0,0,0,682.18,182.58Z"/><path class="cls-7" d="M696,172.38v-1h2.93l.16,1.88a4.42,4.42,0,0,1,1.57-1.56,4.3,4.3,0,0,1,2.22-.55,3.89,3.89,0,0,1,3.39,1.75,7.91,7.91,0,0,1,1.23,4.65v.24a7,7,0,0,1-1.23,4.35,4,4,0,0,1-3.36,1.62,4.72,4.72,0,0,1-2.22-.49,4,4,0,0,1-1.55-1.38v5.16l1.81.15v1h-5v-1l1.82-.15V172.53Zm10.16,5.18a7,7,0,0,0-.91-3.77,3,3,0,0,0-2.67-1.46,3.48,3.48,0,0,0-2.18.64,4,4,0,0,0-1.26,1.68v5.84a3.66,3.66,0,0,0,1.32,1.58,3.8,3.8,0,0,0,2.15.57,3,3,0,0,0,2.65-1.33,6.13,6.13,0,0,0,.9-3.51Z"/><path class="cls-7" d="M718,183.54a9.82,9.82,0,0,1-.19-1.07,6.84,6.84,0,0,1-.06-.91,5.26,5.26,0,0,1-1.78,1.58,5,5,0,0,1-2.5.63,3.76,3.76,0,0,1-2.73-.92,3.25,3.25,0,0,1-1-2.49,3.07,3.07,0,0,1,1.44-2.67,6.71,6.71,0,0,1,3.88-1h2.66v-1.61a2.59,2.59,0,0,0-.83-2,3.31,3.31,0,0,0-2.31-.74,5.86,5.86,0,0,0-1.83.27,4.19,4.19,0,0,0-1.39.75l-.11,1.63h-1.1v-2.34a6.77,6.77,0,0,1,2-1.05,7.44,7.44,0,0,1,2.47-.41,4.8,4.8,0,0,1,3.2,1,3.61,3.61,0,0,1,1.21,2.93v6c0,.25,0,.48,0,.71a4.9,4.9,0,0,0,.07.67l1.2.08v1Zm-4.38-1a4.75,4.75,0,0,0,2.54-.67,4,4,0,0,0,1.59-1.74v-2.44H715a4.9,4.9,0,0,0-2.89.76,2.26,2.26,0,0,0-1.09,1.91,2,2,0,0,0,.68,1.58A2.66,2.66,0,0,0,713.58,182.58Z"/><path class="cls-7" d="M725.09,171.39l.17,2v.14a4.22,4.22,0,0,1,1.39-1.75,3.47,3.47,0,0,1,2.1-.64,2.63,2.63,0,0,1,.49,0,2.69,2.69,0,0,1,.4.09l-.18,1.25-1-.07a3,3,0,0,0-2.06.72,3.9,3.9,0,0,0-1.15,2v7.25l1.81.15v1h-5v-1l1.81-.15v-9.87l-1.81-.15v-1h3Z"/><path class="cls-7" d="M739.66,183.54c-.09-.41-.15-.77-.19-1.07a6.85,6.85,0,0,1-.05-.91,5.35,5.35,0,0,1-1.78,1.58,5,5,0,0,1-2.5.63,3.8,3.8,0,0,1-2.74-.92,3.28,3.28,0,0,1-1-2.49,3.06,3.06,0,0,1,1.43-2.67,6.75,6.75,0,0,1,3.89-1h2.66v-1.61a2.59,2.59,0,0,0-.83-2,3.33,3.33,0,0,0-2.32-.74,5.86,5.86,0,0,0-1.83.27,4.14,4.14,0,0,0-1.38.75L733,175h-1.1v-2.34a6.71,6.71,0,0,1,2-1.05,7.5,7.5,0,0,1,2.48-.41,4.82,4.82,0,0,1,3.2,1,3.64,3.64,0,0,1,1.21,2.93v6c0,.25,0,.48,0,.71s0,.45.08.67l1.2.08v1Zm-4.38-1a4.81,4.81,0,0,0,2.55-.67,4,4,0,0,0,1.59-1.74v-2.44h-2.68a4.93,4.93,0,0,0-2.9.76,2.25,2.25,0,0,0-1.08,1.91,2,2,0,0,0,.67,1.58A2.69,2.69,0,0,0,735.28,182.58Z"/><path class="cls-7" d="M749.16,172.38v-1h3l.13,2a4,4,0,0,1,1.54-1.65,4.35,4.35,0,0,1,2.3-.59,3.78,3.78,0,0,1,2.3.68,3.67,3.67,0,0,1,1.32,2.07,4.78,4.78,0,0,1,1.55-2,4,4,0,0,1,2.45-.74,3.62,3.62,0,0,1,3,1.29,6.29,6.29,0,0,1,1,4v5.94l1.81.16v1h-5v-1l1.81-.16v-6a5,5,0,0,0-.78-3.17,2.69,2.69,0,0,0-2.18-.93,3,3,0,0,0-2.4,1,4.79,4.79,0,0,0-1,2.55,1,1,0,0,0,0,.17v6.35l1.81.15v1h-5v-1l1.81-.15v-6a4.91,4.91,0,0,0-.8-3.15,2.69,2.69,0,0,0-2.18-.95,3.3,3.3,0,0,0-2.25.72,3.92,3.92,0,0,0-1.16,1.95v7.4l1.81.15v1h-5v-1l1.81-.15v-9.87Z"/><path class="cls-7" d="M776.41,183.77a4.79,4.79,0,0,1-3.75-1.68,6.21,6.21,0,0,1-1.49-4.27v-.62a6.38,6.38,0,0,1,1.48-4.32,4.58,4.58,0,0,1,3.59-1.72,4.43,4.43,0,0,1,3.48,1.42,5.45,5.45,0,0,1,1.26,3.77v1.15h-8.49v.32a5.36,5.36,0,0,0,1.09,3.43,3.4,3.4,0,0,0,2.83,1.39,5.81,5.81,0,0,0,2.12-.35,4.16,4.16,0,0,0,1.5-1l.56.92a4.75,4.75,0,0,1-1.71,1.14A6.55,6.55,0,0,1,776.41,183.77Zm-.17-11.46a3.18,3.18,0,0,0-2.48,1.14,4.9,4.9,0,0,0-1.17,2.85l0,.06h7V176a3.94,3.94,0,0,0-.92-2.65A3.14,3.14,0,0,0,776.24,172.31Z"/><path class="cls-7" d="M416.31,211.14c-.08-.41-.15-.77-.18-1.07a6.84,6.84,0,0,1-.06-.91,5.28,5.28,0,0,1-1.78,1.59,5.06,5.06,0,0,1-2.5.62,3.76,3.76,0,0,1-2.73-.92,3.25,3.25,0,0,1-1-2.49,3.1,3.1,0,0,1,1.43-2.67,6.77,6.77,0,0,1,3.89-1h2.66v-1.61a2.59,2.59,0,0,0-.83-2,3.32,3.32,0,0,0-2.32-.74,5.84,5.84,0,0,0-1.82.27,4.09,4.09,0,0,0-1.39.75l-.11,1.63h-1.1v-2.34a7,7,0,0,1,2-1.05,7.44,7.44,0,0,1,2.47-.41,4.8,4.8,0,0,1,3.2,1,3.61,3.61,0,0,1,1.21,2.93v6c0,.25,0,.48,0,.71a4.9,4.9,0,0,0,.07.67l1.2.08v1Zm-4.37-1a4.75,4.75,0,0,0,2.54-.67,4,4,0,0,0,1.59-1.74v-2.44h-2.68a4.9,4.9,0,0,0-2.89.76,2.24,2.24,0,0,0-1.09,1.91,2,2,0,0,0,.67,1.58A2.7,2.7,0,0,0,411.94,210.18Z"/><path class="cls-7" d="M420.22,200v-1h2.92l.17,1.88a4.32,4.32,0,0,1,1.56-1.56,4.4,4.4,0,0,1,2.22-.55,3.89,3.89,0,0,1,3.39,1.75,7.91,7.91,0,0,1,1.23,4.65v.24a7,7,0,0,1-1.23,4.35,4,4,0,0,1-3.36,1.62,4.72,4.72,0,0,1-2.22-.49,4,4,0,0,1-1.55-1.38v5.16l1.81.15v1h-4.94v-1l1.81-.15V200.13Zm10.15,5.17a7,7,0,0,0-.91-3.77,3,3,0,0,0-2.67-1.46,3.43,3.43,0,0,0-2.18.65,4,4,0,0,0-1.26,1.67v5.84a3.66,3.66,0,0,0,1.32,1.58,3.8,3.8,0,0,0,2.15.57,3,3,0,0,0,2.65-1.33,6.13,6.13,0,0,0,.9-3.51Z"/><path class="cls-7" d="M433.87,204.88a6.58,6.58,0,0,1,1.46-4.4,5.19,5.19,0,0,1,7.72,0,6.53,6.53,0,0,1,1.46,4.4v.37a6.57,6.57,0,0,1-1.45,4.41,5.22,5.22,0,0,1-7.73,0,6.57,6.57,0,0,1-1.46-4.41Zm1.34.37a5.86,5.86,0,0,0,1.05,3.55,3.46,3.46,0,0,0,2.95,1.44,3.4,3.4,0,0,0,2.91-1.44,5.8,5.8,0,0,0,1.06-3.55v-.37a5.83,5.83,0,0,0-1.06-3.52,3.69,3.69,0,0,0-5.86,0,5.83,5.83,0,0,0-1.05,3.52Z"/><path class="cls-7" d="M446.59,210.15l1.81-.15v-9.87l-1.81-.14v-1h3.13v11l1.81.15v1h-4.94Zm3.13-14.65H448.4v-1.88h1.32Z"/><path class="cls-7" d="M462.07,211.14c-.09-.41-.15-.77-.19-1.07a6.85,6.85,0,0,1-.05-.91,5.38,5.38,0,0,1-1.78,1.59,5.09,5.09,0,0,1-2.5.62,3.8,3.8,0,0,1-2.74-.92,3.28,3.28,0,0,1-1-2.49,3.07,3.07,0,0,1,1.43-2.67,6.75,6.75,0,0,1,3.89-1h2.66v-1.61a2.59,2.59,0,0,0-.83-2,3.33,3.33,0,0,0-2.32-.74,5.86,5.86,0,0,0-1.83.27,4.14,4.14,0,0,0-1.38.75l-.11,1.63h-1.1v-2.34a7,7,0,0,1,2-1.05,7.5,7.5,0,0,1,2.48-.41,4.82,4.82,0,0,1,3.2,1,3.61,3.61,0,0,1,1.21,2.93v6c0,.25,0,.48,0,.71a4.9,4.9,0,0,0,.07.67l1.2.08v1Zm-4.38-1a4.81,4.81,0,0,0,2.55-.67,4,4,0,0,0,1.59-1.74v-2.44h-2.68a4.93,4.93,0,0,0-2.9.76,2.25,2.25,0,0,0-1.08,1.91,2,2,0,0,0,.67,1.58A2.69,2.69,0,0,0,457.69,210.18Z"/><path class="cls-7" d="M469.21,199l.16,2v.14a4.31,4.31,0,0,1,1.4-1.75,3.44,3.44,0,0,1,2.09-.64,2.74,2.74,0,0,1,.5,0l.39.09-.18,1.25-1-.06a3,3,0,0,0-2.06.71,4,4,0,0,0-1.15,2V210l1.81.15v1h-4.94v-1l1.81-.15v-9.87l-1.81-.14v-1h3Z"/><path class="cls-7" d="M480.76,210.15l1.82-.15v-9.87l-1.82-.14v-1h3l.13,2.12a4.26,4.26,0,0,1,1.56-1.74,4.37,4.37,0,0,1,2.33-.61,3.66,3.66,0,0,1,3,1.21,5.7,5.7,0,0,1,1,3.77V210l1.81.15v1h-5v-1l1.81-.15v-6.25a4.44,4.44,0,0,0-.77-3,2.8,2.8,0,0,0-2.19-.86,3.41,3.41,0,0,0-2.29.75,4.08,4.08,0,0,0-1.27,2V210l1.81.15v1h-5Z"/><path class="cls-7" d="M504,211.14c-.09-.41-.15-.77-.19-1.07a6.85,6.85,0,0,1,0-.91,5.38,5.38,0,0,1-1.78,1.59,5.09,5.09,0,0,1-2.5.62,3.8,3.8,0,0,1-2.74-.92,3.28,3.28,0,0,1-1-2.49,3.07,3.07,0,0,1,1.43-2.67,6.73,6.73,0,0,1,3.89-1h2.66v-1.61a2.59,2.59,0,0,0-.83-2,3.33,3.33,0,0,0-2.32-.74,5.86,5.86,0,0,0-1.83.27,4.14,4.14,0,0,0-1.38.75l-.11,1.63h-1.1v-2.34a7,7,0,0,1,2-1.05,7.5,7.5,0,0,1,2.48-.41,4.82,4.82,0,0,1,3.2,1,3.64,3.64,0,0,1,1.21,2.93v6c0,.25,0,.48,0,.71s0,.45.08.67l1.2.08v1Zm-4.38-1a4.81,4.81,0,0,0,2.55-.67,4,4,0,0,0,1.59-1.74v-2.44h-2.68a4.93,4.93,0,0,0-2.9.76,2.25,2.25,0,0,0-1.08,1.91,2,2,0,0,0,.67,1.58A2.69,2.69,0,0,0,499.59,210.18Z"/><path class="cls-7" d="M522.49,202.74H521.4l-.16-1.72a3.28,3.28,0,0,0-1.26-.82,4.76,4.76,0,0,0-1.75-.29,3.24,3.24,0,0,0-2.18.63,1.91,1.91,0,0,0-.73,1.49,1.76,1.76,0,0,0,.63,1.39,6,6,0,0,0,2.5,1,8.07,8.07,0,0,1,3.21,1.32,2.73,2.73,0,0,1,1.07,2.27,3,3,0,0,1-1.22,2.46,5.14,5.14,0,0,1-3.21.93,7.47,7.47,0,0,1-2.43-.37,6,6,0,0,1-1.9-1.06v-2.45h1.08l.19,1.73a3.13,3.13,0,0,0,1.35.78,6,6,0,0,0,1.71.24,3.6,3.6,0,0,0,2.27-.64,1.9,1.9,0,0,0,.84-1.55,1.94,1.94,0,0,0-.7-1.49,5.51,5.51,0,0,0-2.5-1.05,8.41,8.41,0,0,1-3.19-1.25,2.58,2.58,0,0,1-1-2.18,3,3,0,0,1,1.17-2.36,4.71,4.71,0,0,1,3.08-1,6.94,6.94,0,0,1,2.42.41,4.87,4.87,0,0,1,1.78,1.11Z"/><path class="cls-7" d="M525.15,204.88a6.58,6.58,0,0,1,1.46-4.4,5.19,5.19,0,0,1,7.72,0,6.58,6.58,0,0,1,1.46,4.4v.37a6.57,6.57,0,0,1-1.45,4.41,5.22,5.22,0,0,1-7.73,0,6.57,6.57,0,0,1-1.46-4.41Zm1.34.37a5.86,5.86,0,0,0,1,3.55,3.46,3.46,0,0,0,3,1.44,3.4,3.4,0,0,0,2.91-1.44,5.86,5.86,0,0,0,1.06-3.55v-.37a5.77,5.77,0,0,0-1.07-3.52,3.68,3.68,0,0,0-5.85,0,5.83,5.83,0,0,0-1,3.52Z"/><path class="cls-7" d="M537.47,194.62v-1h3.13V210l1.81.15v1h-4.94v-1l1.81-.15V194.76Z"/><path class="cls-7" d="M553.35,209.14a4.18,4.18,0,0,1-1.55,1.65,4.47,4.47,0,0,1-2.32.58,3.62,3.62,0,0,1-3-1.3,6.27,6.27,0,0,1-1.07-4v-5.9L544,200v-1h2.81v7.06a5.27,5.27,0,0,0,.75,3.19,2.55,2.55,0,0,0,2.13,1,3.89,3.89,0,0,0,2.4-.68,3.53,3.53,0,0,0,1.26-1.86v-7.54l-1.71-.14v-1h3v11l1.61.15v1h-2.78Z"/><path class="cls-7" d="M563.34,210.24a3.81,3.81,0,0,0,2.33-.76,2.5,2.5,0,0,0,1-2.13h1.18l0,.07a3.35,3.35,0,0,1-1.32,2.82,4.93,4.93,0,0,1-3.22,1.13,4.54,4.54,0,0,1-3.79-1.7,6.8,6.8,0,0,1-1.34-4.37v-.47a6.81,6.81,0,0,1,1.34-4.36,4.54,4.54,0,0,1,3.78-1.71,6.08,6.08,0,0,1,2.54.53,5,5,0,0,1,1.88,1.44l.06,2.65h-1.14l-.21-2.16a3.86,3.86,0,0,0-1.33-1,4.48,4.48,0,0,0-1.8-.35,3.17,3.17,0,0,0-2.86,1.4,6.21,6.21,0,0,0-.93,3.52v.47a6.35,6.35,0,0,0,.92,3.55A3.21,3.21,0,0,0,563.34,210.24Zm.34,1-.12.72a2.64,2.64,0,0,1,1.42.54,1.69,1.69,0,0,1,.54,1.38,1.89,1.89,0,0,1-.88,1.63,4.35,4.35,0,0,1-2.51.61l-.08-.87a3.79,3.79,0,0,0,1.67-.34,1.09,1.09,0,0,0,.69-1A.94.94,0,0,0,564,213a4.09,4.09,0,0,0-1.61-.34l.31-1.43Z"/><path class="cls-7" d="M578.67,211.14a9.82,9.82,0,0,1-.19-1.07,6.84,6.84,0,0,1-.06-.91,5.28,5.28,0,0,1-1.78,1.59,5.06,5.06,0,0,1-2.5.62,3.76,3.76,0,0,1-2.73-.92,3.25,3.25,0,0,1-1-2.49,3.1,3.1,0,0,1,1.43-2.67,6.77,6.77,0,0,1,3.89-1h2.66v-1.61a2.59,2.59,0,0,0-.83-2,3.31,3.31,0,0,0-2.31-.74,5.86,5.86,0,0,0-1.83.27,4.19,4.19,0,0,0-1.39.75l-.11,1.63h-1.1v-2.34a7,7,0,0,1,2-1.05,7.44,7.44,0,0,1,2.47-.41,4.8,4.8,0,0,1,3.2,1,3.61,3.61,0,0,1,1.21,2.93v6c0,.25,0,.48,0,.71a4.9,4.9,0,0,0,.07.67l1.2.08v1Zm.47-16.84a2.28,2.28,0,0,1-.61,1.64,2,2,0,0,1-1.52.65,2.87,2.87,0,0,1-1.68-.61,2.6,2.6,0,0,0-1.46-.62,1.13,1.13,0,0,0-.87.39,1.43,1.43,0,0,0-.36,1l-.88-.2a2.3,2.3,0,0,1,.6-1.62,1.93,1.93,0,0,1,1.51-.66,3,3,0,0,1,1.64.62,3,3,0,0,0,1.5.61,1.15,1.15,0,0,0,.88-.4,1.48,1.48,0,0,0,.36-1Zm-4.85,15.88a4.75,4.75,0,0,0,2.54-.67,4,4,0,0,0,1.59-1.74v-2.44h-2.68a4.9,4.9,0,0,0-2.89.76,2.24,2.24,0,0,0-1.09,1.91,2,2,0,0,0,.68,1.58A2.66,2.66,0,0,0,574.29,210.18Z"/><path class="cls-7" d="M582.92,204.88a6.58,6.58,0,0,1,1.46-4.4,5.19,5.19,0,0,1,7.72,0,6.58,6.58,0,0,1,1.46,4.4v.37a6.62,6.62,0,0,1-1.45,4.41,5.22,5.22,0,0,1-7.73,0,6.57,6.57,0,0,1-1.46-4.41Zm1.34.37a5.86,5.86,0,0,0,1,3.55,3.7,3.7,0,0,0,5.86,0,5.86,5.86,0,0,0,1.05-3.55v-.37a5.77,5.77,0,0,0-1.06-3.52,3.68,3.68,0,0,0-5.85,0,5.83,5.83,0,0,0-1,3.52Z"/><path class="cls-7" d="M609.62,209.39a4.28,4.28,0,0,1-1.55,1.47,4.61,4.61,0,0,1-2.22.51,4,4,0,0,1-3.37-1.62,7.12,7.12,0,0,1-1.22-4.35v-.24a8,8,0,0,1,1.22-4.65,3.89,3.89,0,0,1,3.39-1.75,4.08,4.08,0,0,1,3.71,2.06v-6.06l-1.81-.14v-1h3.15V210l1.81.15v1h-3Zm-7-4a6.21,6.21,0,0,0,.88,3.5,2.94,2.94,0,0,0,2.63,1.31,3.74,3.74,0,0,0,2.14-.59,3.82,3.82,0,0,0,1.33-1.6v-5.75a4.16,4.16,0,0,0-1.28-1.69,3.46,3.46,0,0,0-2.17-.65,2.89,2.89,0,0,0-2.64,1.45,7.19,7.19,0,0,0-.89,3.78Z"/><path class="cls-7" d="M620.08,211.37a4.8,4.8,0,0,1-3.76-1.68,6.19,6.19,0,0,1-1.49-4.27v-.62a6.38,6.38,0,0,1,1.48-4.32,4.58,4.58,0,0,1,3.59-1.72,4.43,4.43,0,0,1,3.48,1.42,5.45,5.45,0,0,1,1.26,3.77v1.15h-8.49v.32a5.36,5.36,0,0,0,1.09,3.43,3.42,3.42,0,0,0,2.84,1.39,5.79,5.79,0,0,0,2.11-.35,4.16,4.16,0,0,0,1.5-1l.56.92a4.75,4.75,0,0,1-1.71,1.14A6.53,6.53,0,0,1,620.08,211.37Zm-.18-11.46a3.2,3.2,0,0,0-2.48,1.14,4.9,4.9,0,0,0-1.17,2.86l0,.05h7.05v-.34a4,4,0,0,0-.92-2.65A3.14,3.14,0,0,0,619.9,199.91Z"/><path class="cls-7" d="M635.75,202.74h-1.09L634.5,201a3.28,3.28,0,0,0-1.26-.82,4.76,4.76,0,0,0-1.75-.29,3.24,3.24,0,0,0-2.18.63,1.91,1.91,0,0,0-.73,1.49,1.76,1.76,0,0,0,.63,1.39,6,6,0,0,0,2.5,1,8.07,8.07,0,0,1,3.21,1.32A2.73,2.73,0,0,1,636,208a3,3,0,0,1-1.22,2.46,5.14,5.14,0,0,1-3.21.93,7.47,7.47,0,0,1-2.43-.37,6,6,0,0,1-1.9-1.06v-2.45h1.08l.19,1.73a3.13,3.13,0,0,0,1.35.78,6,6,0,0,0,1.71.24,3.6,3.6,0,0,0,2.27-.64,1.9,1.9,0,0,0,.84-1.55,1.94,1.94,0,0,0-.7-1.49,5.57,5.57,0,0,0-2.5-1.05,8.41,8.41,0,0,1-3.19-1.25,2.58,2.58,0,0,1-1-2.18,3,3,0,0,1,1.17-2.36,4.69,4.69,0,0,1,3.08-1,6.94,6.94,0,0,1,2.42.41,4.87,4.87,0,0,1,1.78,1.11Z"/><path class="cls-7" d="M641.47,195.88V199h2.64v1.1h-2.64V208a2.56,2.56,0,0,0,.43,1.69,1.39,1.39,0,0,0,1.14.5l.62,0c.21,0,.44,0,.71-.1l.2,1a3.15,3.15,0,0,1-.81.22,5.18,5.18,0,0,1-1,.08,2.5,2.5,0,0,1-2-.8,3.87,3.87,0,0,1-.71-2.57v-7.91h-2.06V199h2.06v-3.11Z"/><path class="cls-7" d="M651.86,211.37a4.82,4.82,0,0,1-3.76-1.68,6.18,6.18,0,0,1-1.48-4.27v-.62a6.38,6.38,0,0,1,1.48-4.32,4.56,4.56,0,0,1,3.58-1.72,4.4,4.4,0,0,1,3.48,1.42,5.41,5.41,0,0,1,1.27,3.77v1.15h-8.49v.32a5.41,5.41,0,0,0,1.08,3.43,3.42,3.42,0,0,0,2.84,1.39,5.75,5.75,0,0,0,2.11-.35,4,4,0,0,0,1.5-1l.57.92a4.75,4.75,0,0,1-1.71,1.14A6.55,6.55,0,0,1,651.86,211.37Zm-.18-11.46a3.18,3.18,0,0,0-2.47,1.14,4.9,4.9,0,0,0-1.17,2.86l0,.05h7.05v-.34a3.91,3.91,0,0,0-.93-2.65A3.12,3.12,0,0,0,651.68,199.91Z"/><path class="cls-7" d="M664,200v-1h2.92l.17,1.88a4.32,4.32,0,0,1,1.56-1.56,4.41,4.41,0,0,1,2.23-.55,3.88,3.88,0,0,1,3.38,1.75,7.91,7.91,0,0,1,1.23,4.65v.24a7,7,0,0,1-1.23,4.35,4,4,0,0,1-3.36,1.62,4.72,4.72,0,0,1-2.22-.49,4,4,0,0,1-1.55-1.38v5.16l1.81.15v1H664v-1l1.81-.15V200.13Zm10.15,5.17a7,7,0,0,0-.91-3.77,3,3,0,0,0-2.66-1.46,3.44,3.44,0,0,0-2.19.65,4,4,0,0,0-1.26,1.67v5.84a3.66,3.66,0,0,0,1.32,1.58,3.8,3.8,0,0,0,2.15.57,3,3,0,0,0,2.65-1.33,6.13,6.13,0,0,0,.9-3.51Z"/><path class="cls-7" d="M680.52,199l.17,2v.14a4.37,4.37,0,0,1,1.39-1.75,3.47,3.47,0,0,1,2.1-.64,2.56,2.56,0,0,1,.49,0l.4.09-.18,1.25-1-.06a3,3,0,0,0-2.06.71,3.9,3.9,0,0,0-1.15,2V210l1.81.15v1h-4.94v-1l1.81-.15v-9.87l-1.81-.14v-1h3Z"/><path class="cls-7" d="M686.57,204.88a6.58,6.58,0,0,1,1.46-4.4,5.19,5.19,0,0,1,7.72,0,6.58,6.58,0,0,1,1.46,4.4v.37a6.62,6.62,0,0,1-1.45,4.41,5.22,5.22,0,0,1-7.73,0,6.57,6.57,0,0,1-1.46-4.41Zm1.33.37A5.86,5.86,0,0,0,689,208.8a3.7,3.7,0,0,0,5.86,0,5.86,5.86,0,0,0,1-3.55v-.37a5.77,5.77,0,0,0-1.06-3.52,3.68,3.68,0,0,0-5.85,0,5.83,5.83,0,0,0-1.06,3.52Z"/><path class="cls-7" d="M709.71,205.4a7.08,7.08,0,0,1-1.22,4.35,4,4,0,0,1-3.37,1.62,4.58,4.58,0,0,1-2.28-.53,4.11,4.11,0,0,1-1.54-1.53l-.15,1.83H700V194.76l-1.81-.14v-1h3.13v7.28a4.1,4.1,0,0,1,3.76-2.14,3.91,3.91,0,0,1,3.39,1.75,8,8,0,0,1,1.22,4.65Zm-1.35-.24a7.1,7.1,0,0,0-.89-3.78,2.87,2.87,0,0,0-2.62-1.45,3.42,3.42,0,0,0-2.25.7,4.17,4.17,0,0,0-1.26,1.78v5.49a3.78,3.78,0,0,0,1.33,1.68,3.69,3.69,0,0,0,2.2.63,3,3,0,0,0,2.62-1.31,6.21,6.21,0,0,0,.87-3.5Z"/><path class="cls-7" d="M711.59,194.62v-1h3.13V210l1.81.15v1h-4.94v-1l1.81-.15V194.76Z"/><path class="cls-7" d="M723.93,211.37a4.79,4.79,0,0,1-3.75-1.68,6.14,6.14,0,0,1-1.49-4.27v-.62a6.38,6.38,0,0,1,1.48-4.32,4.58,4.58,0,0,1,3.59-1.72,4.43,4.43,0,0,1,3.48,1.42A5.45,5.45,0,0,1,728.5,204v1.15H720v.32a5.41,5.41,0,0,0,1.08,3.43,3.43,3.43,0,0,0,2.84,1.39,5.81,5.81,0,0,0,2.12-.35,4.16,4.16,0,0,0,1.5-1l.56.92A4.75,4.75,0,0,1,726.4,211,6.55,6.55,0,0,1,723.93,211.37Zm-.17-11.46a3.18,3.18,0,0,0-2.48,1.14,4.9,4.9,0,0,0-1.17,2.86l0,.05h7v-.34a4,4,0,0,0-.92-2.65A3.14,3.14,0,0,0,723.76,199.91Z"/><path class="cls-7" d="M730.59,200v-1h3l.12,2a4.26,4.26,0,0,1,1.55-1.65,4.35,4.35,0,0,1,2.3-.59,3.46,3.46,0,0,1,3.62,2.75,4.7,4.7,0,0,1,1.55-2,4,4,0,0,1,2.45-.74,3.63,3.63,0,0,1,3,1.29,6.29,6.29,0,0,1,1.05,4V210l1.81.16v1h-5v-1l1.81-.16v-6a5,5,0,0,0-.78-3.17,2.71,2.71,0,0,0-2.19-.93,2.94,2.94,0,0,0-2.39,1,4.82,4.82,0,0,0-1,2.55,1,1,0,0,0,0,.17V210l1.81.15v1h-4.95v-1l1.81-.15v-6a4.91,4.91,0,0,0-.8-3.15,2.71,2.71,0,0,0-2.18-.95,3.3,3.3,0,0,0-2.25.72,3.92,3.92,0,0,0-1.16,1.95V210l1.81.15v1h-5v-1l1.81-.15v-9.87Z"/><path class="cls-7" d="M761,211.14c-.08-.41-.15-.77-.18-1.07a6.84,6.84,0,0,1-.06-.91,5.28,5.28,0,0,1-1.78,1.59,5.06,5.06,0,0,1-2.5.62,3.76,3.76,0,0,1-2.73-.92,3.25,3.25,0,0,1-1-2.49,3.1,3.1,0,0,1,1.43-2.67,6.77,6.77,0,0,1,3.89-1h2.66v-1.61a2.59,2.59,0,0,0-.83-2,3.32,3.32,0,0,0-2.32-.74,5.84,5.84,0,0,0-1.82.27,4.09,4.09,0,0,0-1.39.75l-.11,1.63h-1.1v-2.34a7,7,0,0,1,2-1.05,7.44,7.44,0,0,1,2.47-.41,4.8,4.8,0,0,1,3.2,1,3.61,3.61,0,0,1,1.21,2.93v6c0,.25,0,.48,0,.71a4.9,4.9,0,0,0,.07.67l1.2.08v1Zm-4.37-1a4.75,4.75,0,0,0,2.54-.67,4,4,0,0,0,1.59-1.74v-2.44H758a4.9,4.9,0,0,0-2.89.76,2.24,2.24,0,0,0-1.09,1.91,2,2,0,0,0,.67,1.58A2.7,2.7,0,0,0,756.58,210.18Z"/><path class="cls-7" d="M767.27,211.14h-1.53V209.3h1.53Z"/><path class="cls-7" d="M422,258.27a10.17,10.17,0,0,1-.86,4.27,7.07,7.07,0,0,1-2.4,2.91l3.35,2.42-.93.85-3.64-2.62a6.44,6.44,0,0,1-1.23.36,7.86,7.86,0,0,1-1.3.11,6.17,6.17,0,0,1-5-2.31,9.07,9.07,0,0,1-1.92-6v-.21a9.13,9.13,0,0,1,1.91-6,6.15,6.15,0,0,1,5-2.32,6.3,6.3,0,0,1,5.07,2.32,9,9,0,0,1,1.95,6Zm-1.34-.23a8.17,8.17,0,0,0-1.53-5.15,5,5,0,0,0-4.15-2,4.83,4.83,0,0,0-4.06,2,8.28,8.28,0,0,0-1.49,5.15v.23a8.29,8.29,0,0,0,1.5,5.17,4.84,4.84,0,0,0,4.06,2,5,5,0,0,0,4.16-2,8.24,8.24,0,0,0,1.51-5.18Z"/><path class="cls-7" d="M433.11,264.34a4.18,4.18,0,0,1-1.55,1.65,4.47,4.47,0,0,1-2.32.58,3.62,3.62,0,0,1-3-1.3,6.27,6.27,0,0,1-1.07-4v-5.9l-1.49-.14v-1h2.81v7.06a5.27,5.27,0,0,0,.75,3.19,2.55,2.55,0,0,0,2.13,1,3.89,3.89,0,0,0,2.4-.68,3.53,3.53,0,0,0,1.26-1.86v-7.54l-1.71-.14v-1h3v11l1.61.15v1h-2.78Z"/><path class="cls-7" d="M446.27,266.34c-.09-.41-.15-.77-.19-1.07a6.84,6.84,0,0,1-.06-.91,5.19,5.19,0,0,1-1.78,1.59,5.06,5.06,0,0,1-2.5.62,3.78,3.78,0,0,1-2.73-.92,3.28,3.28,0,0,1-1-2.49,3.08,3.08,0,0,1,1.44-2.67,6.73,6.73,0,0,1,3.89-1H446v-1.61a2.56,2.56,0,0,0-.83-2,3.31,3.31,0,0,0-2.31-.74,5.86,5.86,0,0,0-1.83.27,4.14,4.14,0,0,0-1.38.75l-.12,1.63h-1.1v-2.34a7.14,7.14,0,0,1,2-1,7.44,7.44,0,0,1,2.47-.41,4.78,4.78,0,0,1,3.2,1,3.63,3.63,0,0,1,1.21,2.94v6c0,.25,0,.48,0,.71s0,.45.07.67l1.2.08v1Zm-4.38-1a4.75,4.75,0,0,0,2.54-.67A3.9,3.9,0,0,0,446,263v-2.44h-2.68a4.92,4.92,0,0,0-2.89.76,2.26,2.26,0,0,0-1.08,1.92,2,2,0,0,0,.67,1.57A2.67,2.67,0,0,0,441.89,265.38Z"/><path class="cls-7" d="M450.28,265.35l1.81-.15v-9.87l-1.81-.14v-1h3l.12,2.12a4.12,4.12,0,0,1,3.89-2.35,3.68,3.68,0,0,1,3,1.21,5.76,5.76,0,0,1,1,3.77v6.26l1.81.15v1h-4.95v-1l1.81-.15V259a4.49,4.49,0,0,0-.77-3,2.83,2.83,0,0,0-2.2-.86,3.4,3.4,0,0,0-2.28.75,4.19,4.19,0,0,0-1.28,2v7.34l1.82.15v1h-5Z"/><path class="cls-7" d="M473.43,264.59a4.28,4.28,0,0,1-1.55,1.47,4.61,4.61,0,0,1-2.22.51,4,4,0,0,1-3.37-1.62,7.12,7.12,0,0,1-1.22-4.35v-.24a8,8,0,0,1,1.22-4.65,3.89,3.89,0,0,1,3.39-1.75,4.22,4.22,0,0,1,2.18.54A4.31,4.31,0,0,1,473.4,256V250l-1.82-.14v-1h3.15V265.2l1.81.15v1h-3Zm-7-4a6.21,6.21,0,0,0,.87,3.5,3,3,0,0,0,2.63,1.31,3.74,3.74,0,0,0,2.14-.59,3.91,3.91,0,0,0,1.34-1.6v-5.75a4.27,4.27,0,0,0-1.29-1.69,3.46,3.46,0,0,0-2.17-.65,2.89,2.89,0,0,0-2.64,1.45,7.2,7.2,0,0,0-.88,3.78Z"/><path class="cls-7" d="M478.59,260.08a6.57,6.57,0,0,1,1.45-4.4,5.2,5.2,0,0,1,7.73,0,6.57,6.57,0,0,1,1.45,4.4v.37a6.57,6.57,0,0,1-1.45,4.41,5.22,5.22,0,0,1-7.73,0,6.57,6.57,0,0,1-1.45-4.41Zm1.33.37A5.8,5.8,0,0,0,481,264a3.69,3.69,0,0,0,5.85,0,5.8,5.8,0,0,0,1.06-3.55v-.37a5.83,5.83,0,0,0-1.06-3.52,3.43,3.43,0,0,0-2.93-1.45,3.39,3.39,0,0,0-2.92,1.45,5.77,5.77,0,0,0-1.06,3.52Z"/><path class="cls-7" d="M505.65,257.94h-1.09l-.16-1.72a3.28,3.28,0,0,0-1.26-.82,5,5,0,0,0-1.75-.29,3.24,3.24,0,0,0-2.18.63,1.92,1.92,0,0,0-.73,1.49,1.76,1.76,0,0,0,.63,1.39,6.05,6.05,0,0,0,2.5,1,8.19,8.19,0,0,1,3.22,1.32,2.73,2.73,0,0,1,1.06,2.27,3,3,0,0,1-1.21,2.46,5.19,5.19,0,0,1-3.22.93,7.47,7.47,0,0,1-2.43-.37,6,6,0,0,1-1.9-1.06v-2.45h1.08l.19,1.73a3.13,3.13,0,0,0,1.35.78,6.09,6.09,0,0,0,1.71.24,3.65,3.65,0,0,0,2.28-.64,1.91,1.91,0,0,0,.83-1.55,2,2,0,0,0-.69-1.49,5.62,5.62,0,0,0-2.51-1.05,8.29,8.29,0,0,1-3.18-1.25,2.56,2.56,0,0,1-1-2.18,3,3,0,0,1,1.16-2.36,4.71,4.71,0,0,1,3.08-1,6.94,6.94,0,0,1,2.42.41,4.87,4.87,0,0,1,1.78,1.11Z"/><path class="cls-7" d="M513.62,266.57a4.81,4.81,0,0,1-3.76-1.68,6.19,6.19,0,0,1-1.49-4.27V260a6.43,6.43,0,0,1,1.48-4.32,4.61,4.61,0,0,1,3.59-1.72,4.43,4.43,0,0,1,3.48,1.42,5.45,5.45,0,0,1,1.26,3.77v1.15h-8.49v.32a5.36,5.36,0,0,0,1.09,3.43,3.42,3.42,0,0,0,2.84,1.39,5.79,5.79,0,0,0,2.11-.35,4.16,4.16,0,0,0,1.5-1l.57.92a4.88,4.88,0,0,1-1.72,1.14A6.53,6.53,0,0,1,513.62,266.57Zm-.18-11.46a3.16,3.16,0,0,0-2.47,1.14,4.84,4.84,0,0,0-1.18,2.86l0,.05h7v-.34a4,4,0,0,0-.92-2.65A3.14,3.14,0,0,0,513.44,255.11Z"/><path class="cls-7" d="M529.59,255.19l-1.5.11,3,8,.39,1.43h.06l.43-1.43,2.95-8-1.5-.11v-1h4.05v1l-1.18.1-4.25,11H531l-4.26-11-1.18-.1v-1h4.05Z"/><path class="cls-7" d="M538.85,265.35l1.81-.15v-9.87l-1.81-.14v-1H542v11l1.81.15v1h-4.94ZM542,250.71h-1.32v-1.89H542Z"/><path class="cls-7" d="M549.51,255.19l-1.5.11,3,8,.38,1.43h.07l.42-1.43,3-8-1.5-.11v-1h4v1l-1.17.1-4.25,11H550.9l-4.25-11-1.18-.1v-1h4Z"/><path class="cls-7" d="M564,266.57a4.81,4.81,0,0,1-3.76-1.68,6.19,6.19,0,0,1-1.49-4.27V260a6.39,6.39,0,0,1,1.49-4.32,4.59,4.59,0,0,1,3.58-1.72,4.4,4.4,0,0,1,3.48,1.42,5.46,5.46,0,0,1,1.27,3.77v1.15H560.1v.32a5.41,5.41,0,0,0,1.08,3.43,3.42,3.42,0,0,0,2.84,1.39,5.79,5.79,0,0,0,2.11-.35,4,4,0,0,0,1.5-1l.57.92a4.75,4.75,0,0,1-1.71,1.14A6.58,6.58,0,0,1,564,266.57Zm-.18-11.46a3.16,3.16,0,0,0-2.47,1.14,4.9,4.9,0,0,0-1.17,2.86l0,.05h7v-.34a3.91,3.91,0,0,0-.92-2.65A3.13,3.13,0,0,0,563.84,255.11Z"/><path class="cls-7" d="M581.8,266.57a4.82,4.82,0,0,1-3.76-1.68,6.18,6.18,0,0,1-1.48-4.27V260a6.38,6.38,0,0,1,1.48-4.32,4.59,4.59,0,0,1,3.58-1.72,4.4,4.4,0,0,1,3.48,1.42,5.41,5.41,0,0,1,1.27,3.77v1.15h-8.49v.32a5.41,5.41,0,0,0,1.08,3.43,3.42,3.42,0,0,0,2.84,1.39,5.75,5.75,0,0,0,2.11-.35,4,4,0,0,0,1.5-1l.57.92a4.75,4.75,0,0,1-1.71,1.14A6.55,6.55,0,0,1,581.8,266.57Zm-.18-11.46a3.18,3.18,0,0,0-2.47,1.14,4.9,4.9,0,0,0-1.17,2.86l0,.05h7v-.34a3.91,3.91,0,0,0-.93-2.65A3.12,3.12,0,0,0,581.62,255.11Z"/><path class="cls-7" d="M588.46,255.19v-1h3l.12,2a4.26,4.26,0,0,1,1.55-1.65,4.35,4.35,0,0,1,2.3-.59,3.46,3.46,0,0,1,3.62,2.75,4.7,4.7,0,0,1,1.55-2A4,4,0,0,1,603,254a3.61,3.61,0,0,1,3,1.29,6.29,6.29,0,0,1,1,4v5.94l1.81.16v1h-5v-1l1.81-.16v-6a4.88,4.88,0,0,0-.79-3.17,2.69,2.69,0,0,0-2.18-.93,2.93,2.93,0,0,0-2.39,1,4.82,4.82,0,0,0-1,2.55v.17a1.15,1.15,0,0,1,0,.2v6.15l1.81.15v1h-5v-1l1.81-.15v-6a4.91,4.91,0,0,0-.79-3.15,2.71,2.71,0,0,0-2.18-.95,3.35,3.35,0,0,0-2.26.72,4,4,0,0,0-1.16,2v7.4l1.82.15v1h-5v-1l1.81-.15v-9.87Z"/><path class="cls-7" d="M624.58,261.07h2.53v1.14h-2.53v3l1.81.15v1h-4.94v-1l1.81-.15v-3h-7.58v-.77L623.12,250h1.46Zm-7.33,0h6v-9.32l-.07,0-.57,1.22Z"/><path class="cls-7" d="M633.68,265.44a3.47,3.47,0,0,0,3-1.46,7.68,7.68,0,0,0,1.06-4.5V259a4.2,4.2,0,0,1-1.58,1.58,4.45,4.45,0,0,1-2.21.56,4.51,4.51,0,0,1-3.56-1.55,5.86,5.86,0,0,1-1.35-4,6.24,6.24,0,0,1,1.41-4.16,4.44,4.44,0,0,1,3.52-1.67,4.8,4.8,0,0,1,3.76,1.56,6.9,6.9,0,0,1,1.39,4.72v3.42a8.27,8.27,0,0,1-1.46,5.35,4.84,4.84,0,0,1-3.94,1.77,9.28,9.28,0,0,1-1.73-.16,8.32,8.32,0,0,1-1.67-.52l.24-1.12a7.19,7.19,0,0,0,1.5.51A7.67,7.67,0,0,0,633.68,265.44Zm.23-5.44a3.89,3.89,0,0,0,2.42-.74,4.15,4.15,0,0,0,1.37-1.85v-1.48a6,6,0,0,0-1-3.79A3.29,3.29,0,0,0,634,250.9a3.08,3.08,0,0,0-2.58,1.37,5.37,5.37,0,0,0-1,3.31,5.14,5.14,0,0,0,1,3.16A3.06,3.06,0,0,0,633.91,260Z"/><path class="cls-7" d="M652.12,260a7.79,7.79,0,0,1-1.33,4.88,4.86,4.86,0,0,1-7.39,0,7.76,7.76,0,0,1-1.34-4.87v-3.65a7.78,7.78,0,0,1,1.33-4.87,4.37,4.37,0,0,1,3.68-1.72,4.43,4.43,0,0,1,3.71,1.72,7.78,7.78,0,0,1,1.34,4.87Zm-1.33-3.87a6.62,6.62,0,0,0-1-3.87,3.48,3.48,0,0,0-5.5,0,6.75,6.75,0,0,0-1,3.87v4.08a6.65,6.65,0,0,0,1,3.86,3.16,3.16,0,0,0,2.75,1.38,3.13,3.13,0,0,0,2.75-1.37,6.77,6.77,0,0,0,.95-3.87Z"/><path class="cls-7" d="M668.5,266.34c-.09-.41-.15-.77-.19-1.07a9.08,9.08,0,0,1,0-.91,5.38,5.38,0,0,1-1.78,1.59,5.09,5.09,0,0,1-2.5.62,3.8,3.8,0,0,1-2.74-.92,3.28,3.28,0,0,1-1-2.49,3.07,3.07,0,0,1,1.43-2.67,6.75,6.75,0,0,1,3.89-1h2.66v-1.61a2.59,2.59,0,0,0-.83-2,3.33,3.33,0,0,0-2.32-.74,5.86,5.86,0,0,0-1.83.27,4.14,4.14,0,0,0-1.38.75l-.11,1.63h-1.1v-2.34a7,7,0,0,1,2-1,7.5,7.5,0,0,1,2.48-.41,4.82,4.82,0,0,1,3.2,1,3.63,3.63,0,0,1,1.21,2.94v6c0,.25,0,.48,0,.71a4.9,4.9,0,0,0,.07.67l1.2.08v1Zm-4.38-1a4.81,4.81,0,0,0,2.55-.67,4,4,0,0,0,1.59-1.74v-2.44h-2.68a5,5,0,0,0-2.9.76,2.26,2.26,0,0,0-1.08,1.92,2,2,0,0,0,.67,1.57A2.69,2.69,0,0,0,664.12,265.38Z"/><path class="cls-7" d="M674.81,266.34h-1.52V264.5h1.52Z"/><path class="cls-7" d="M690.53,255.11h-1l-.19-2.48a4.71,4.71,0,0,0-1.68-1.26,5.63,5.63,0,0,0-2.39-.47,5.22,5.22,0,0,0-4.31,2,7.94,7.94,0,0,0-1.6,5.15v.23a8,8,0,0,0,1.58,5.16,5,5,0,0,0,4.16,2,6.28,6.28,0,0,0,2.49-.48,4.77,4.77,0,0,0,1.75-1.25l.19-2.48h1v2.87a5.79,5.79,0,0,1-2.21,1.77,7.31,7.31,0,0,1-3.25.7,6.36,6.36,0,0,1-5.09-2.33,8.89,8.89,0,0,1-2-6v-.21a8.91,8.91,0,0,1,2-6,6.43,6.43,0,0,1,5.16-2.33,7.16,7.16,0,0,1,3.22.71,6,6,0,0,1,2.17,1.77Z"/><path class="cls-7" d="M695,266.34h-1.52V264.5H695Z"/><path class="cls-7" d="M700,265.8a5.12,5.12,0,0,1-.42,2,4.7,4.7,0,0,1-1.13,1.67l-.79-.58a6.31,6.31,0,0,0,.77-1.47,4.92,4.92,0,0,0,.25-1.62v-1.59H700Z"/><path class="cls-7" d="M716.72,257.94h-1.09l-.15-1.72a3.36,3.36,0,0,0-1.26-.82,5,5,0,0,0-1.75-.29,3.29,3.29,0,0,0-2.19.63,2,2,0,0,0-.73,1.49,1.76,1.76,0,0,0,.63,1.39,6.11,6.11,0,0,0,2.51,1,8.07,8.07,0,0,1,3.21,1.32,2.73,2.73,0,0,1,1.07,2.27,3,3,0,0,1-1.22,2.46,5.15,5.15,0,0,1-3.22.93,7.36,7.36,0,0,1-2.42-.37,5.74,5.74,0,0,1-1.9-1.06v-2.45h1.08l.19,1.73a3,3,0,0,0,1.35.78,6,6,0,0,0,1.7.24,3.61,3.61,0,0,0,2.28-.64,1.9,1.9,0,0,0,.84-1.55,2,2,0,0,0-.7-1.49,5.56,5.56,0,0,0-2.51-1.05,8.29,8.29,0,0,1-3.18-1.25,2.58,2.58,0,0,1-1-2.18,3,3,0,0,1,1.17-2.36,4.69,4.69,0,0,1,3.08-1,6.89,6.89,0,0,1,2.41.41,4.91,4.91,0,0,1,1.79,1.11Z"/><path class="cls-7" d="M724.69,266.57a4.79,4.79,0,0,1-3.75-1.68,6.14,6.14,0,0,1-1.49-4.27V260a6.38,6.38,0,0,1,1.48-4.32,4.59,4.59,0,0,1,3.58-1.72,4.4,4.4,0,0,1,3.48,1.42,5.41,5.41,0,0,1,1.27,3.77v1.15h-8.49v.32a5.41,5.41,0,0,0,1.08,3.43,3.42,3.42,0,0,0,2.84,1.39,5.75,5.75,0,0,0,2.11-.35,4,4,0,0,0,1.5-1l.57.92a4.75,4.75,0,0,1-1.71,1.14A6.55,6.55,0,0,1,724.69,266.57Zm-.18-11.46a3.18,3.18,0,0,0-2.47,1.14,4.9,4.9,0,0,0-1.17,2.86l0,.05h7.05v-.34a3.91,3.91,0,0,0-.93-2.65A3.12,3.12,0,0,0,724.51,255.11Z"/><path class="cls-7" d="M731.35,255.19v-1h3l.12,2a4.26,4.26,0,0,1,1.55-1.65,4.35,4.35,0,0,1,2.3-.59,3.46,3.46,0,0,1,3.62,2.75,4.7,4.7,0,0,1,1.55-2,4,4,0,0,1,2.45-.74,3.61,3.61,0,0,1,3,1.29,6.29,6.29,0,0,1,1.05,4v5.94l1.81.16v1h-5v-1l1.81-.16v-6a5,5,0,0,0-.78-3.17,2.73,2.73,0,0,0-2.19-.93,2.93,2.93,0,0,0-2.39,1,4.82,4.82,0,0,0-1,2.55v.17a1.15,1.15,0,0,1,0,.2v6.15l1.81.15v1h-5v-1l1.81-.15v-6a4.91,4.91,0,0,0-.79-3.15,2.71,2.71,0,0,0-2.18-.95,3.3,3.3,0,0,0-2.25.72,3.93,3.93,0,0,0-1.17,2v7.4l1.82.15v1h-5v-1l1.81-.15v-9.87Z"/><path class="cls-7" d="M407.72,282.79v-1h3l.13,2a4.17,4.17,0,0,1,1.54-1.65,4.37,4.37,0,0,1,2.3-.59,3.78,3.78,0,0,1,2.3.68,3.67,3.67,0,0,1,1.32,2.07,4.78,4.78,0,0,1,1.55-2,4.07,4.07,0,0,1,2.45-.74,3.62,3.62,0,0,1,3,1.29,6.29,6.29,0,0,1,1.05,4v5.94l1.81.16v1h-5v-1l1.81-.16v-6a5,5,0,0,0-.78-3.17,2.69,2.69,0,0,0-2.18-.93,3,3,0,0,0-2.4,1,4.82,4.82,0,0,0-1,2.55,1,1,0,0,0,0,.17v6.35l1.81.15v1h-4.95v-1l1.81-.15v-6a4.91,4.91,0,0,0-.8-3.15,2.69,2.69,0,0,0-2.18-.95,3.3,3.3,0,0,0-2.25.72,3.92,3.92,0,0,0-1.16,1.95v7.4l1.81.15v1h-5v-1l1.82-.15v-9.87Z"/><path class="cls-7" d="M438.62,291.94a4.12,4.12,0,0,1-1.55,1.65,4.47,4.47,0,0,1-2.32.58,3.64,3.64,0,0,1-3-1.3,6.27,6.27,0,0,1-1.07-4v-5.9l-1.49-.14v-1H432v7.06a5.27,5.27,0,0,0,.75,3.19,2.55,2.55,0,0,0,2.13,1,3.87,3.87,0,0,0,2.4-.68,3.6,3.6,0,0,0,1.27-1.86v-7.54l-1.72-.14v-1h3.05v11l1.61.15v1h-2.78Z"/><path class="cls-7" d="M443.39,293l1.81-.15v-9.87l-1.81-.14v-1h3.13v11l1.81.15v1h-4.94Zm3.13-14.65H445.2v-1.88h1.32Z"/><path class="cls-7" d="M453.62,278.68v3.11h2.65v1.1h-2.65v7.91a2.62,2.62,0,0,0,.43,1.69,1.42,1.42,0,0,0,1.14.5l.63,0c.2,0,.44-.05.71-.1l.2,1a3.35,3.35,0,0,1-.82.22,5,5,0,0,1-1,.08,2.49,2.49,0,0,1-2-.8,3.81,3.81,0,0,1-.71-2.57v-7.91h-2.07v-1.1h2.07v-3.11Z"/><path class="cls-7" d="M458.49,287.68a6.58,6.58,0,0,1,1.46-4.4,5.19,5.19,0,0,1,7.72,0,6.58,6.58,0,0,1,1.46,4.4v.37a6.62,6.62,0,0,1-1.45,4.41,5.22,5.22,0,0,1-7.73,0,6.57,6.57,0,0,1-1.46-4.41Zm1.34.37a5.86,5.86,0,0,0,1.05,3.55,3.7,3.7,0,0,0,5.86,0,5.86,5.86,0,0,0,1.05-3.55v-.37a5.77,5.77,0,0,0-1.06-3.52,3.68,3.68,0,0,0-5.85,0,5.83,5.83,0,0,0-1.05,3.52Z"/><path class="cls-7" d="M480,285.54h-1.09l-.16-1.72a3.28,3.28,0,0,0-1.26-.82,4.72,4.72,0,0,0-1.75-.29,3.24,3.24,0,0,0-2.18.63,1.91,1.91,0,0,0-.73,1.49,1.76,1.76,0,0,0,.63,1.39,6,6,0,0,0,2.51,1,8.07,8.07,0,0,1,3.21,1.32,2.73,2.73,0,0,1,1.06,2.27,3,3,0,0,1-1.21,2.46,5.17,5.17,0,0,1-3.22.93,7.47,7.47,0,0,1-2.43-.37,5.8,5.8,0,0,1-1.89-1.06v-2.45h1.07l.19,1.73a3.13,3.13,0,0,0,1.35.78,6.09,6.09,0,0,0,1.71.24,3.65,3.65,0,0,0,2.28-.64,1.91,1.91,0,0,0,.83-1.55,2,2,0,0,0-.69-1.49,5.62,5.62,0,0,0-2.51-1.05,8.29,8.29,0,0,1-3.18-1.25,2.56,2.56,0,0,1-1-2.18,3,3,0,0,1,1.16-2.36,4.71,4.71,0,0,1,3.08-1,6.94,6.94,0,0,1,2.42.41,4.87,4.87,0,0,1,1.78,1.11Z"/><path class="cls-7" d="M491.1,281.79l.17,2V284a4.29,4.29,0,0,1,1.39-1.75,3.47,3.47,0,0,1,2.1-.64,2.63,2.63,0,0,1,.49,0l.4.09-.18,1.25-1-.06a3,3,0,0,0-2.06.71,3.9,3.9,0,0,0-1.15,2v7.25l1.81.15v1h-4.95v-1l1.81-.15v-9.87l-1.81-.14v-1h3Z"/><path class="cls-7" d="M502.46,294.17a4.81,4.81,0,0,1-3.76-1.68,6.19,6.19,0,0,1-1.49-4.27v-.62a6.39,6.39,0,0,1,1.49-4.32,4.56,4.56,0,0,1,3.58-1.72,4.42,4.42,0,0,1,3.48,1.42,5.46,5.46,0,0,1,1.27,3.77v1.15h-8.49v.32a5.41,5.41,0,0,0,1.08,3.43,3.42,3.42,0,0,0,2.84,1.39,5.79,5.79,0,0,0,2.11-.35,4,4,0,0,0,1.5-1l.57.92a4.75,4.75,0,0,1-1.71,1.14A6.58,6.58,0,0,1,502.46,294.17Zm-.18-11.46a3.16,3.16,0,0,0-2.47,1.14,4.9,4.9,0,0,0-1.17,2.86l0,.05h7v-.34a3.91,3.91,0,0,0-.92-2.65A3.13,3.13,0,0,0,502.28,282.71Z"/><path class="cls-7" d="M514.54,293a3.81,3.81,0,0,0,2.33-.76,2.5,2.5,0,0,0,1-2.13h1.18l0,.07a3.35,3.35,0,0,1-1.32,2.82,5,5,0,0,1-3.22,1.13,4.54,4.54,0,0,1-3.79-1.7,6.81,6.81,0,0,1-1.35-4.37v-.47a6.82,6.82,0,0,1,1.35-4.36,4.54,4.54,0,0,1,3.78-1.71,6.08,6.08,0,0,1,2.54.53,5,5,0,0,1,1.88,1.44l.06,2.65h-1.14l-.21-2.16a3.86,3.86,0,0,0-1.33-1,4.48,4.48,0,0,0-1.8-.35,3.17,3.17,0,0,0-2.86,1.4,6.21,6.21,0,0,0-.93,3.52v.47a6.27,6.27,0,0,0,.92,3.55A3.2,3.2,0,0,0,514.54,293Z"/><path class="cls-7" d="M530.4,291.94a4.18,4.18,0,0,1-1.55,1.65,4.47,4.47,0,0,1-2.32.58,3.62,3.62,0,0,1-3-1.3,6.27,6.27,0,0,1-1.07-4v-5.9l-1.49-.14v-1h2.81v7.06a5.27,5.27,0,0,0,.75,3.19,2.55,2.55,0,0,0,2.13,1,3.89,3.89,0,0,0,2.4-.68,3.53,3.53,0,0,0,1.26-1.86v-7.54l-1.71-.14v-1h3.05v11l1.61.15v1h-2.78Z"/><path class="cls-7" d="M538.13,281.79l.17,2V284a4.37,4.37,0,0,1,1.39-1.75,3.47,3.47,0,0,1,2.1-.64,2.63,2.63,0,0,1,.49,0l.4.09-.18,1.25-1-.06a3,3,0,0,0-2.06.71,3.9,3.9,0,0,0-1.15,2v7.25l1.81.15v1h-4.94v-1l1.81-.15v-9.87l-1.81-.14v-1h3Z"/><path class="cls-7" d="M553.13,285.54H552l-.16-1.72a3.28,3.28,0,0,0-1.26-.82,4.76,4.76,0,0,0-1.75-.29,3.24,3.24,0,0,0-2.18.63,1.91,1.91,0,0,0-.73,1.49,1.78,1.78,0,0,0,.62,1.39,6.11,6.11,0,0,0,2.51,1,8.07,8.07,0,0,1,3.21,1.32,2.73,2.73,0,0,1,1.07,2.27,3,3,0,0,1-1.22,2.46,5.14,5.14,0,0,1-3.21.93,7.47,7.47,0,0,1-2.43-.37,6,6,0,0,1-1.9-1.06v-2.45h1.08l.19,1.73a3.13,3.13,0,0,0,1.35.78,6,6,0,0,0,1.71.24,3.6,3.6,0,0,0,2.27-.64,1.9,1.9,0,0,0,.84-1.55,1.94,1.94,0,0,0-.7-1.49,5.57,5.57,0,0,0-2.5-1.05,8.41,8.41,0,0,1-3.19-1.25,2.58,2.58,0,0,1-1-2.18,3,3,0,0,1,1.17-2.36,4.69,4.69,0,0,1,3.08-1,6.94,6.94,0,0,1,2.42.41,4.87,4.87,0,0,1,1.78,1.11Z"/><path class="cls-7" d="M555.79,287.68a6.58,6.58,0,0,1,1.46-4.4,5.19,5.19,0,0,1,7.72,0,6.58,6.58,0,0,1,1.46,4.4v.37a6.57,6.57,0,0,1-1.45,4.41,5.22,5.22,0,0,1-7.73,0,6.57,6.57,0,0,1-1.46-4.41Zm1.34.37a5.86,5.86,0,0,0,1,3.55,3.46,3.46,0,0,0,3,1.44A3.41,3.41,0,0,0,564,291.6a5.86,5.86,0,0,0,1.06-3.55v-.37a5.77,5.77,0,0,0-1.07-3.52,3.68,3.68,0,0,0-5.85,0,5.83,5.83,0,0,0-1,3.52Z"/><path class="cls-7" d="M577.32,285.54h-1.09l-.15-1.72a3.4,3.4,0,0,0-1.27-.82,4.72,4.72,0,0,0-1.75-.29,3.24,3.24,0,0,0-2.18.63,1.91,1.91,0,0,0-.73,1.49,1.76,1.76,0,0,0,.63,1.39,6,6,0,0,0,2.51,1,8.07,8.07,0,0,1,3.21,1.32,2.73,2.73,0,0,1,1.06,2.27,3,3,0,0,1-1.21,2.46,5.17,5.17,0,0,1-3.22.93,7.47,7.47,0,0,1-2.43-.37,5.8,5.8,0,0,1-1.89-1.06v-2.45h1.07l.19,1.73a3.13,3.13,0,0,0,1.35.78,6.09,6.09,0,0,0,1.71.24,3.65,3.65,0,0,0,2.28-.64,1.91,1.91,0,0,0,.83-1.55,2,2,0,0,0-.69-1.49,5.62,5.62,0,0,0-2.51-1.05,8.29,8.29,0,0,1-3.18-1.25,2.56,2.56,0,0,1-1-2.18,3,3,0,0,1,1.16-2.36,4.71,4.71,0,0,1,3.08-1,6.9,6.9,0,0,1,2.42.41,4.87,4.87,0,0,1,1.78,1.11Z"/><path class="cls-7" d="M581.92,293.4a5.12,5.12,0,0,1-.42,2,4.7,4.7,0,0,1-1.13,1.67l-.79-.58a6.31,6.31,0,0,0,.77-1.47,4.92,4.92,0,0,0,.25-1.62v-1.59h1.32Z"/><path class="cls-7" d="M595.18,294.17a4.82,4.82,0,0,1-3.76-1.68,6.19,6.19,0,0,1-1.49-4.27v-.62a6.39,6.39,0,0,1,1.49-4.32,4.56,4.56,0,0,1,3.58-1.72,4.4,4.4,0,0,1,3.48,1.42,5.41,5.41,0,0,1,1.27,3.77v1.15h-8.49v.32a5.41,5.41,0,0,0,1.08,3.43,3.42,3.42,0,0,0,2.84,1.39,5.75,5.75,0,0,0,2.11-.35,4,4,0,0,0,1.5-1l.57.92a4.75,4.75,0,0,1-1.71,1.14A6.55,6.55,0,0,1,595.18,294.17ZM595,282.71a3.16,3.16,0,0,0-2.47,1.14,4.9,4.9,0,0,0-1.17,2.86l0,.05h7v-.34a3.91,3.91,0,0,0-.93-2.65A3.13,3.13,0,0,0,595,282.71Zm1.26-5.56h1.63l0,.06-2.76,2.92H594Z"/><path class="cls-7" d="M607.31,282.79v-1h2.92l.17,1.88a4.32,4.32,0,0,1,1.56-1.56,4.4,4.4,0,0,1,2.22-.55,3.89,3.89,0,0,1,3.39,1.75A7.91,7.91,0,0,1,618.8,288v.24a7,7,0,0,1-1.23,4.35,4,4,0,0,1-3.36,1.62,4.72,4.72,0,0,1-2.22-.49,4,4,0,0,1-1.55-1.38v5.16l1.81.15v1h-4.94v-1l1.81-.15V282.93ZM617.46,288a7,7,0,0,0-.91-3.77,3,3,0,0,0-2.67-1.46,3.43,3.43,0,0,0-2.18.65,4,4,0,0,0-1.26,1.67v5.84a3.66,3.66,0,0,0,1.32,1.58,3.8,3.8,0,0,0,2.15.57,3,3,0,0,0,2.65-1.33,6.13,6.13,0,0,0,.9-3.51Z"/><path class="cls-7" d="M623.84,281.79l.17,2V284a4.37,4.37,0,0,1,1.39-1.75,3.47,3.47,0,0,1,2.1-.64,2.63,2.63,0,0,1,.49,0l.4.09-.18,1.25-1-.06a3,3,0,0,0-2.06.71,3.9,3.9,0,0,0-1.15,2v7.25l1.81.15v1h-4.94v-1l1.81-.15v-9.87l-1.81-.14v-1h3Z"/><path class="cls-7" d="M635.2,294.17a4.79,4.79,0,0,1-3.75-1.68,6.14,6.14,0,0,1-1.49-4.27v-.62a6.38,6.38,0,0,1,1.48-4.32,4.56,4.56,0,0,1,3.58-1.72A4.4,4.4,0,0,1,638.5,283a5.41,5.41,0,0,1,1.27,3.77v1.15h-8.49v.32a5.41,5.41,0,0,0,1.08,3.43A3.42,3.42,0,0,0,635.2,293a5.75,5.75,0,0,0,2.11-.35,4,4,0,0,0,1.5-1l.57.92a4.75,4.75,0,0,1-1.71,1.14A6.55,6.55,0,0,1,635.2,294.17ZM635,282.71a3.18,3.18,0,0,0-2.47,1.14,4.9,4.9,0,0,0-1.17,2.86l0,.05h7.05v-.34a3.91,3.91,0,0,0-.93-2.65A3.12,3.12,0,0,0,635,282.71Z"/><path class="cls-7" d="M647.28,293a3.86,3.86,0,0,0,2.34-.76,2.53,2.53,0,0,0,1-2.13h1.18l0,.07A3.39,3.39,0,0,1,650.5,293a5,5,0,0,1-3.22,1.13,4.54,4.54,0,0,1-3.79-1.7,6.86,6.86,0,0,1-1.34-4.37v-.47a6.87,6.87,0,0,1,1.34-4.36,4.54,4.54,0,0,1,3.78-1.71,6.13,6.13,0,0,1,2.55.53,4.92,4.92,0,0,1,1.87,1.44l.06,2.65h-1.13l-.21-2.16a4,4,0,0,0-1.33-1,4.49,4.49,0,0,0-1.81-.35,3.18,3.18,0,0,0-2.86,1.4,6.21,6.21,0,0,0-.93,3.52v.47a6.35,6.35,0,0,0,.92,3.55A3.21,3.21,0,0,0,647.28,293Z"/><path class="cls-7" d="M654.22,293l1.81-.15v-9.87l-1.81-.14v-1h3.13v11l1.81.15v1h-4.94Zm3.13-14.65H656v-1.88h1.32Z"/><path class="cls-7" d="M670.12,285.54H669l-.15-1.72a3.4,3.4,0,0,0-1.27-.82,4.72,4.72,0,0,0-1.75-.29,3.26,3.26,0,0,0-2.18.63,1.94,1.94,0,0,0-.73,1.49,1.76,1.76,0,0,0,.63,1.39,6,6,0,0,0,2.51,1,8.07,8.07,0,0,1,3.21,1.32,2.73,2.73,0,0,1,1.07,2.27,3,3,0,0,1-1.22,2.46,5.17,5.17,0,0,1-3.22.93,7.47,7.47,0,0,1-2.43-.37,5.8,5.8,0,0,1-1.89-1.06v-2.45h1.08l.18,1.73a3.13,3.13,0,0,0,1.35.78,6.09,6.09,0,0,0,1.71.24,3.65,3.65,0,0,0,2.28-.64,1.91,1.91,0,0,0,.83-1.55,2,2,0,0,0-.69-1.49,5.62,5.62,0,0,0-2.51-1.05,8.29,8.29,0,0,1-3.18-1.25,2.56,2.56,0,0,1-1-2.18,3,3,0,0,1,1.17-2.36,4.66,4.66,0,0,1,3.07-1,6.9,6.9,0,0,1,2.42.41,4.91,4.91,0,0,1,1.79,1.11Z"/><path class="cls-7" d="M672.79,287.68a6.57,6.57,0,0,1,1.45-4.4,5.2,5.2,0,0,1,7.73,0,6.57,6.57,0,0,1,1.45,4.4v.37a6.57,6.57,0,0,1-1.45,4.41,4.79,4.79,0,0,1-3.85,1.71,4.85,4.85,0,0,1-3.88-1.71,6.57,6.57,0,0,1-1.45-4.41Zm1.33.37a5.8,5.8,0,0,0,1.06,3.55,3.69,3.69,0,0,0,5.85,0,5.8,5.8,0,0,0,1.06-3.55v-.37a5.77,5.77,0,0,0-1.06-3.52,3.68,3.68,0,0,0-5.85,0,5.77,5.77,0,0,0-1.06,3.52Z"/><path class="cls-7" d="M696.43,294.17a4.81,4.81,0,0,1-3.76-1.68,6.19,6.19,0,0,1-1.49-4.27v-.62a6.39,6.39,0,0,1,1.49-4.32,4.54,4.54,0,0,1,3.58-1.72,4.43,4.43,0,0,1,3.48,1.42,5.46,5.46,0,0,1,1.27,3.77v1.15h-8.5v.32a5.41,5.41,0,0,0,1.09,3.43,3.42,3.42,0,0,0,2.84,1.39,5.79,5.79,0,0,0,2.11-.35,4.16,4.16,0,0,0,1.5-1l.57.92a4.88,4.88,0,0,1-1.72,1.14A6.49,6.49,0,0,1,696.43,294.17Zm-.18-11.46a3.16,3.16,0,0,0-2.47,1.14,4.91,4.91,0,0,0-1.18,2.86l0,.05h7v-.34a3.91,3.91,0,0,0-.92-2.65A3.14,3.14,0,0,0,696.25,282.71Z"/><path class="cls-7" d="M706.72,282.79l-1.5.11,3,8,.39,1.43h.06l.43-1.43,2.95-8-1.5-.11v-1h4.05v1l-1.18.1-4.25,11.05h-1.06l-4.26-11.05-1.18-.1v-1h4.05Z"/><path class="cls-7" d="M716,293l1.81-.15v-9.87l-1.81-.14v-1h3.13v11l1.81.15v1H716Zm3.13-14.65h-1.32v-1.88h1.32Z"/><path class="cls-7" d="M726.21,278.68v3.11h2.65v1.1h-2.65v7.91a2.62,2.62,0,0,0,.43,1.69,1.42,1.42,0,0,0,1.14.5l.63,0c.2,0,.44-.05.7-.1l.2,1a3.15,3.15,0,0,1-.81.22,5.15,5.15,0,0,1-1,.08,2.51,2.51,0,0,1-2-.8,3.87,3.87,0,0,1-.7-2.57v-7.91H722.8v-1.1h2.07v-3.11Z"/><path class="cls-7" d="M739.6,293.94c-.08-.41-.15-.77-.18-1.07a6.84,6.84,0,0,1-.06-.91,5.15,5.15,0,0,1-1.78,1.58,5,5,0,0,1-2.5.63,3.76,3.76,0,0,1-2.73-.92,3.25,3.25,0,0,1-1-2.49,3.1,3.1,0,0,1,1.43-2.67,6.77,6.77,0,0,1,3.89-1h2.66v-1.61a2.59,2.59,0,0,0-.83-2,3.32,3.32,0,0,0-2.32-.74,5.84,5.84,0,0,0-1.82.27,4.09,4.09,0,0,0-1.39.75l-.11,1.63h-1.1V283a7,7,0,0,1,2-1,7.44,7.44,0,0,1,2.47-.41,4.8,4.8,0,0,1,3.2,1,3.61,3.61,0,0,1,1.21,2.93v6c0,.25,0,.48,0,.71a4.9,4.9,0,0,0,.07.67l1.2.08v1Zm-4.37-1a4.75,4.75,0,0,0,2.54-.67,4,4,0,0,0,1.59-1.74v-2.44h-2.68a4.9,4.9,0,0,0-2.89.76,2.24,2.24,0,0,0-1.09,1.91,2,2,0,0,0,.67,1.58A2.7,2.7,0,0,0,735.23,293Z"/><path class="cls-7" d="M746.74,281.79l.17,2V284a4.29,4.29,0,0,1,1.39-1.75,3.47,3.47,0,0,1,2.1-.64,2.63,2.63,0,0,1,.49,0l.4.09-.18,1.25-1-.06a3,3,0,0,0-2.06.71,3.9,3.9,0,0,0-1.15,2v7.25l1.81.15v1h-5v-1l1.81-.15v-9.87l-1.81-.14v-1h3Z"/><path class="cls-7" d="M758.54,287.68a6.58,6.58,0,0,1,1.46-4.4,5.19,5.19,0,0,1,7.72,0,6.58,6.58,0,0,1,1.46,4.4v.37a6.57,6.57,0,0,1-1.45,4.41,5.22,5.22,0,0,1-7.73,0,6.57,6.57,0,0,1-1.46-4.41Zm1.34.37a5.86,5.86,0,0,0,1,3.55,3.46,3.46,0,0,0,3,1.44,3.41,3.41,0,0,0,2.91-1.44,5.86,5.86,0,0,0,1.06-3.55v-.37a5.77,5.77,0,0,0-1.07-3.52,3.68,3.68,0,0,0-5.85,0,5.83,5.83,0,0,0-1,3.52Z"/><path class="cls-7" d="M416.37,319.79a4.25,4.25,0,0,1-1.54,1.47,4.62,4.62,0,0,1-2.23.51,4,4,0,0,1-3.37-1.63A7.07,7.07,0,0,1,408,315.8v-.24a8,8,0,0,1,1.22-4.65,3.89,3.89,0,0,1,3.39-1.75,4.32,4.32,0,0,1,2.18.53,4.42,4.42,0,0,1,1.54,1.53v-6.06l-1.81-.14v-1h3.14V320.4l1.81.15v1h-3Zm-7-4a6.21,6.21,0,0,0,.87,3.5,3,3,0,0,0,2.63,1.31A3.74,3.74,0,0,0,415,320a3.91,3.91,0,0,0,1.34-1.6v-5.75a4.27,4.27,0,0,0-1.29-1.69,3.46,3.46,0,0,0-2.17-.65,2.89,2.89,0,0,0-2.64,1.45,7.2,7.2,0,0,0-.88,3.78Z"/><path class="cls-7" d="M426.83,321.77a4.81,4.81,0,0,1-3.76-1.68,6.21,6.21,0,0,1-1.49-4.27v-.62a6.39,6.39,0,0,1,1.49-4.32,4.56,4.56,0,0,1,3.58-1.72,4.42,4.42,0,0,1,3.48,1.42,5.46,5.46,0,0,1,1.27,3.77v1.15h-8.49v.32a5.41,5.41,0,0,0,1.08,3.43,3.42,3.42,0,0,0,2.84,1.39,5.79,5.79,0,0,0,2.11-.35,4,4,0,0,0,1.5-1l.57.92a4.75,4.75,0,0,1-1.71,1.14A6.58,6.58,0,0,1,426.83,321.77Zm-.18-11.46a3.16,3.16,0,0,0-2.47,1.14A4.9,4.9,0,0,0,423,314.3l0,.06h7V314a3.89,3.89,0,0,0-.92-2.65A3.13,3.13,0,0,0,426.65,310.31Z"/><path class="cls-7" d="M442.5,313.14h-1.09l-.16-1.72a3.28,3.28,0,0,0-1.26-.82,4.72,4.72,0,0,0-1.75-.29,3.24,3.24,0,0,0-2.18.63,1.91,1.91,0,0,0-.73,1.49,1.76,1.76,0,0,0,.63,1.39,6.05,6.05,0,0,0,2.5,1,8.19,8.19,0,0,1,3.22,1.32,2.73,2.73,0,0,1,1.06,2.27,2.94,2.94,0,0,1-1.21,2.45,5.13,5.13,0,0,1-3.22.94,7.47,7.47,0,0,1-2.43-.37,5.8,5.8,0,0,1-1.89-1.06v-2.45h1.07l.19,1.73a3.13,3.13,0,0,0,1.35.78,6.09,6.09,0,0,0,1.71.24,3.65,3.65,0,0,0,2.28-.64,1.93,1.93,0,0,0,.83-1.55,2,2,0,0,0-.69-1.49,5.62,5.62,0,0,0-2.51-1,8.29,8.29,0,0,1-3.18-1.25,2.56,2.56,0,0,1-1-2.19,3,3,0,0,1,1.16-2.35,4.71,4.71,0,0,1,3.08-1,6.94,6.94,0,0,1,2.42.41,4.74,4.74,0,0,1,1.78,1.11Z"/><path class="cls-7" d="M444.81,310.38v-1h2.92l.17,1.88a4.48,4.48,0,0,1,1.56-1.56,4.34,4.34,0,0,1,2.23-.55,3.91,3.91,0,0,1,3.39,1.75,8,8,0,0,1,1.22,4.65v.24a7.08,7.08,0,0,1-1.22,4.35,4,4,0,0,1-3.37,1.62,4.71,4.71,0,0,1-2.21-.49,4,4,0,0,1-1.56-1.38v5.16l1.82.15v1h-4.95v-1l1.81-.15V310.53ZM455,315.56a7.08,7.08,0,0,0-.91-3.77,3,3,0,0,0-2.67-1.46,3.47,3.47,0,0,0-2.18.64,4.11,4.11,0,0,0-1.27,1.68v5.84a3.53,3.53,0,0,0,3.47,2.15,3,3,0,0,0,2.65-1.33,6.05,6.05,0,0,0,.91-3.51Z"/><path class="cls-7" d="M463.77,321.77a4.82,4.82,0,0,1-3.76-1.68,6.2,6.2,0,0,1-1.48-4.27v-.62a6.38,6.38,0,0,1,1.48-4.32,4.56,4.56,0,0,1,3.58-1.72,4.4,4.4,0,0,1,3.48,1.42,5.41,5.41,0,0,1,1.27,3.77v1.15h-8.49v.32a5.41,5.41,0,0,0,1.08,3.43,3.42,3.42,0,0,0,2.84,1.39,5.75,5.75,0,0,0,2.11-.35,4,4,0,0,0,1.5-1l.57.92a4.75,4.75,0,0,1-1.71,1.14A6.55,6.55,0,0,1,463.77,321.77Zm-.18-11.46a3.18,3.18,0,0,0-2.47,1.14A4.9,4.9,0,0,0,460,314.3l0,.06h7V314a3.9,3.9,0,0,0-.93-2.65A3.12,3.12,0,0,0,463.59,310.31Z"/><path class="cls-7" d="M473.6,309.39l.16,2v.14a4.24,4.24,0,0,1,1.4-1.75,3.44,3.44,0,0,1,2.09-.64,2.74,2.74,0,0,1,.5,0,2.28,2.28,0,0,1,.39.09l-.18,1.25-1-.07a3,3,0,0,0-2.06.72,3.9,3.9,0,0,0-1.15,2v7.25l1.81.15v1h-4.94v-1l1.81-.15v-9.87l-1.81-.15v-1h3Z"/><path class="cls-7" d="M488,319.79a4.28,4.28,0,0,1-1.55,1.47,4.61,4.61,0,0,1-2.22.51,4,4,0,0,1-3.37-1.63,7.07,7.07,0,0,1-1.22-4.34v-.24a8,8,0,0,1,1.22-4.65,3.89,3.89,0,0,1,3.39-1.75,4.32,4.32,0,0,1,2.18.53,4.42,4.42,0,0,1,1.54,1.53v-6.06l-1.81-.14v-1h3.14V320.4l1.81.15v1h-3Zm-7-4a6.21,6.21,0,0,0,.87,3.5,3,3,0,0,0,2.63,1.31,3.74,3.74,0,0,0,2.14-.59,3.91,3.91,0,0,0,1.34-1.6v-5.75a4.27,4.27,0,0,0-1.29-1.69,3.46,3.46,0,0,0-2.17-.65,2.89,2.89,0,0,0-2.64,1.45,7.2,7.2,0,0,0-.88,3.78Z"/><path class="cls-7" d="M493.09,310.38v-1h3.13v11l1.82.15v1h-5v-1l1.81-.15v-9.87Zm3.69-5.5h1.63l0,.07-2.77,2.92h-1.19Z"/><path class="cls-7" d="M505.38,320.64a3.81,3.81,0,0,0,2.33-.76,2.51,2.51,0,0,0,1-2.13h1.17l0,.07a3.39,3.39,0,0,1-1.33,2.82,5,5,0,0,1-3.22,1.13,4.54,4.54,0,0,1-3.79-1.7,6.8,6.8,0,0,1-1.34-4.37v-.47a6.81,6.81,0,0,1,1.34-4.36,4.54,4.54,0,0,1,3.78-1.71,6.13,6.13,0,0,1,2.55.53,4.92,4.92,0,0,1,1.87,1.44l.06,2.65h-1.14l-.21-2.16a3.82,3.82,0,0,0-1.32-1,4.36,4.36,0,0,0-1.81-.35,3.18,3.18,0,0,0-2.86,1.4,6.21,6.21,0,0,0-.93,3.52v.47a6.37,6.37,0,0,0,.92,3.55A3.24,3.24,0,0,0,505.38,320.64Z"/><path class="cls-7" d="M512.32,320.55l1.81-.15v-9.87l-1.81-.15v-1h3.13v11l1.81.15v1h-4.94Zm3.13-14.65h-1.32V304h1.32Z"/><path class="cls-7" d="M519.5,315.28a6.57,6.57,0,0,1,1.45-4.4,5.19,5.19,0,0,1,7.72,0,6.53,6.53,0,0,1,1.46,4.4v.37a6.57,6.57,0,0,1-1.45,4.41,5.22,5.22,0,0,1-7.73,0,6.57,6.57,0,0,1-1.45-4.41Zm1.33.37a5.86,5.86,0,0,0,1,3.55,3.46,3.46,0,0,0,3,1.44,3.4,3.4,0,0,0,2.91-1.44,5.8,5.8,0,0,0,1.06-3.55v-.37a5.83,5.83,0,0,0-1.06-3.52,3.69,3.69,0,0,0-5.86,0,5.83,5.83,0,0,0-1,3.52Z"/><path class="cls-7" d="M534.35,321.54h-1.52V319.7h1.52Z"/><g class="cls-8"><polyline class="cls-9" points="138.13 372.76 129.79 358.66 147.05 361 143.37 372.76"/><path class="cls-10" d="M151.53,259.35l6.37,24.46s1,6-1.18,8.21-12.39,13.74-12.39,13.74L138.63,317l33,18.77L211,325.2l-1.17-27.65s-20.16-1.28-31.92-10.11c-2.31-1.73-4.27-21.89-4.27-21.89Z"/><path class="cls-9" d="M174.73,274.44c-.62-4.51-1.12-9.05-1.12-9.05l-22.12-6.2,1.77,6.81s6.93,4.51,9.08,5.46A42.12,42.12,0,0,0,174.73,274.44Z"/><path class="cls-10" d="M138.52,249.19s12.79,22.77,51,22.78c15.81,0,21.67-3.69,22.56-8.82,5.6-32.24-6.31-73-22.84-85.46-14.49-10.91-65.91,30.39-65.91,30.39l11,24.57s-11.17-12.06-15.64-5.36,9.72,20.89,9.72,20.89S134.72,253,138.52,249.19Z"/><path class="cls-10" d="M214.86,300.85c3.8-2,7.2,2.73,7.2,2.73l38.55,67.48-33.27,59.69s11.17,18.77,5.58,27.26l7.71,7.7s1.23,4.14-4.35,4.14S217.51,460,217.51,460L219,417.94l24.84-44.8-22.81-33.92-7.13-6.32S207.77,304.6,214.86,300.85Z"/><path class="cls-10" d="M174.82,489.72l-32.28,80.95S138.38,586,133.43,591A218,218,0,0,1,121.2,626.3c-8.38,18.77-12.06,44.57-12.06,44.57s7.62,19.35,6.7,28.07c0,0,7.29,10,4.36,15.83s-14.41,2.35-14.41,2.35-19.19,2.51-22-2.27,3.61-17.59,3.61-17.59-.93-10.22,2.43-12.57,7.37-8,7.37-8-1.26-3.35,2.26-7.87,8.71-33.54,8.71-37.34-4.69-32.17,11-43.34c0,0,3.8-77.08,14.52-87.8s41.22-17.09,41.22-17.09Z"/><path class="cls-11" d="M174.82,489.72,164.5,515.6s-14.28,6.37-17.89,7.26c-2.69.66-21.8,6.57-21.16,2.72,2-12.05,4.79-21.92,8.15-25.28,10.73-10.73,41.22-17.09,41.22-17.09Z"/><path class="cls-10" d="M186.33,477.73s27,102.1,29,106.79-8.55,13.8,9.89,78.48c0,0-1.18,8.54-2.85,11.56s-5.53,10.72-.67,13.4,20.61,16.09,27.31,17.26,19.27-4.69,19.27-4.69,6.7-2.51,4.61-4.61c0,0-6.12-.25-8.13-2.26S240,673.72,240,673.72s-7-9.05-7-9.66-5-80.15-5-80.15,1.84-5,0-15.25S227,494,227,494Z"/><path class="cls-11" d="M186.33,477.73l8.24,31c.73,2.71,32.25,4.9,32.25,4.9L227,494Z"/><path class="cls-12" d="M186.33,498c5.22,10.37,42,12.56,45,13.52,0,0,1-41.62-4.9-65S186.33,498,186.33,498Z"/><path class="cls-13" d="M141.64,240c6.48,2.68.9-8.94.9-8.94s-.61-11.65-3.91-13.63a46.92,46.92,0,0,1-7.19-5.88l61.81-42.38s6.26-8.71-8-14.07A17,17,0,0,0,167.89,150s-6.25-7.48-15.3-.61c0,0-18.21-1.06-22.34,7.87a6.79,6.79,0,0,0-6.7,3.8s-3.8,1.45-4.53,4.52c0,0-9.21,3.63-9.77,9.78,0,0-5,7-1,12.73,0,0-2.65,5,.79,8.44,0,0-7.71,8.43,0,13.68,0,0-1.9,5.47,9.38,7.71l3.35,6.92s3.23-1.46,12.51,7.82S141.64,240,141.64,240Z"/><path class="cls-9" d="M186.66,240a1.5,1.5,0,0,1,0-3c2.79,0,10.44-2.45,14.27-3.77-1.26-12-8.89-20.94-13.42-25.27a1.5,1.5,0,0,1,2.07-2.17c5,4.77,13.49,14.79,14.44,28.36l.08,1.14-1.07.38C201.79,236.07,190.82,240,186.66,240Z"/><ellipse class="cls-14" cx="165.2" cy="213" rx="3.01" ry="4.11" transform="translate(-46.92 46.68) rotate(-14.1)"/><path class="cls-14" d="M162.12,214.5h-.07a1.5,1.5,0,0,1-1.43-1.56c0-.22.27-5.41,3.8-7.31,2.23-1.21,5.08-.8,8.47,1.22a1.5,1.5,0,0,1-1.54,2.58c-1.66-1-4-2-5.5-1.17-1.69.91-2.18,3.78-2.23,4.81A1.5,1.5,0,0,1,162.12,214.5Z"/><ellipse class="cls-14" cx="192.28" cy="205.68" rx="3.01" ry="4.11" transform="translate(-44.32 53.06) rotate(-14.1)"/><path class="cls-14" d="M189.2,205.55a1.37,1.37,0,0,1-.4-.05,1.51,1.51,0,0,1-1.05-1.85c.06-.21,1.47-5.2,5.34-6.27,2.44-.68,5.13.36,8,3.09a1.5,1.5,0,0,1-2.08,2.17c-1.39-1.34-3.42-2.85-5.1-2.37-1.85.51-3,3.26-3.25,4.18A1.48,1.48,0,0,1,189.2,205.55Z"/><path class="cls-9" d="M133.77,246.62s-.34-14.66-11.65-18.18"/><path class="cls-15" d="M144.33,305.76s-10.74,4-15.73,8.95c0,0,30.08,43.63,9.53,58.05,0,0,18.93,36.16,16.92,43.54S119.4,517.56,119.4,517.56,223.29,515.71,227,447.8l-4.92-39.1A329.09,329.09,0,0,0,225,369.05c.21-19.08-1.88-41-3.41-56a24.15,24.15,0,0,0-7-15.18l-9.78-.91s7.72,25.87-10.15,28.32C185,326.63,161.75,329.74,144.33,305.76Z"/><g class="cls-16"><path class="cls-17" d="M123.27,520.1s103.88-1.85,107.59-69.76Z"/></g><path class="cls-15" d="M144.33,305.76s-10.74,4-15.73,8.95c0,0,30.08,43.63,9.53,58.05,0,0,18.93,36.16,16.92,43.54S119.4,517.56,119.4,517.56,223.29,515.71,227,447.8l-4.92-39.1A329.09,329.09,0,0,0,225,369.05c.21-19.08-1.88-41-3.41-56a24.15,24.15,0,0,0-7-15.18l-9.78-.91s7.72,25.87-10.15,28.32C185,326.63,161.75,329.74,144.33,305.76Z"/><path class="cls-18" d="M152.74,423.89s54.77,7.29,70-10.13c0,0,1.65-3.44-.64-5.06.33,3.22-25.72,17.25-67,8.38C155.05,417.08,150.06,418.87,152.74,423.89Z"/><circle class="cls-19" cx="198.24" cy="421.25" r="12.78"/><g class="cls-20"><path class="cls-21" d="M137.58,174.12s-5.49,6.65,1.47,11.09c2.43,1.55-7.21,9-7.21,9L128,216.12s5-2,8.38-2L154,234.3l-11.31,7.07-36.08-24.32-24-46.39,30.94-28.1,33.85-7.87-6,11.79s-14.37,8.78-8.88,15.1C129.08,164,128.41,173.48,137.58,174.12Z"/></g><path class="cls-7" d="M121.93,224.83s-6.48-2.9-6.48-8.26,25.24-56.08,78-47.37c0,0,8.15,5.7,5.36,8.49,0,0,5,6.25,1,9.6S176.22,185.73,121.93,224.83Z"/><path class="cls-22" d="M124.78,213s33.73-41.11,69.81-35.75C194.59,177.25,161,179.05,124.78,213Z"/><path class="cls-23" d="M199.62,431.24c-1.9,0-6-.38-8.59-3.33-2.3-2.55-2.93-6.31-1.88-11.17a1.5,1.5,0,1,1,2.93.63c-.83,3.86-.44,6.73,1.17,8.53,2.44,2.73,7.05,2.31,7.1,2.31a1.51,1.51,0,0,1,1.64,1.34,1.49,1.49,0,0,1-1.33,1.64A8.73,8.73,0,0,1,199.62,431.24Z"/><path class="cls-24" d="M206,426.91a1.86,1.86,0,0,1-.33,0,1.5,1.5,0,0,1-1.14-1.79c.85-3.86.48-6.73-1.12-8.54-2.42-2.75-7-2.35-7.08-2.35a1.51,1.51,0,0,1-1.64-1.35,1.49,1.49,0,0,1,1.35-1.63c.25,0,6.16-.56,9.61,3.33,2.28,2.57,2.89,6.33,1.81,11.19A1.51,1.51,0,0,1,206,426.91Z"/><path class="cls-9" d="M188.07,251.24l8.26-4,3.82-1.84,1.91-.92a3.56,3.56,0,0,0,2.55-2.54c-1.41,1.33.72,3.44,2.12,2.12,2.34-2.2-.51-4.31-2.85-3.72-2.65.67-5.33,2.51-7.79,3.7l-9.54,4.6c-1.73.84-.21,3.43,1.52,2.6Z"/><path class="cls-10" d="M133.18,312.1S117.4,321,116,322.46,113.09,343,113.09,343l7.82,18.32,61.33,14.43,19.5,2.68,7.12-74L193,300.35l-4.35,56.3-34-8.94-11-24.35-6-13.18Z"/><path class="cls-10" d="M208.26,305.25c1.57-2.26,5.71-8.69,8-10.16,3.83-2.52.87-7.15,1.21-7.75a6,6,0,0,0,1-4.64c-.67-2.86-2-.83-1.55-3.72a6.07,6.07,0,0,0,0-2.59c-1.13-2.12-2.59-.55-2.56-3,0-1.41,1.74-5.52,2.78-8.24a7.4,7.4,0,0,0-.88-5.84,2.2,2.2,0,0,0-2.79-.81c-1.55,1-2,3.88-3.06,5.4-2.44,3.41-2.73,3.16-5.76,6-1.17,1.08-6.46,8.12-8.19,7.88-1.52-.21-3.53-5.84-6.2-5.84-4.48,0-8-.53-8-.29,0,2.2,2.76,10.3,3.59,11.13,1.09,1.09,5.41,6.77,5.88,10.67s1.79,6.63,1.13,10.48Z"/><path class="cls-9" d="M190,358.55l-35.83-9.43c-.52-.2-12.75-4.81-15.53-12.87a1.5,1.5,0,0,1,2.84-1c2.22,6.45,12.75,10.65,13.67,11l32.14,8.46c.7-9.07,3.75-48.3,4.11-51,.29-2.22-.71-8-1.12-10l0-.3c0-2.66-4.28-8.45-5.44-9.61-.85-.85-2.19-4.83-4-11.82a1.5,1.5,0,0,1,2.91-.74c1.12,4.39,2.67,9.62,3.24,10.49.84.89,6.13,7.36,6.26,11.51.25,1.26,1.52,7.86,1.13,10.84s-4.19,52.11-4.23,52.61Zm-3.07-76.8,0,0Z"/><path class="cls-9" d="M196.4,279.31a1.5,1.5,0,0,1-.93-2.68c.12-.09,12-9.46,15.85-18a3.3,3.3,0,0,1,1.81-1.95,3.16,3.16,0,0,1,2.77.32,1.5,1.5,0,0,1-1.49,2.61l-.2-.1-.08.16,0,.13c-4.15,9.23-16.24,18.79-16.76,19.19A1.45,1.45,0,0,1,196.4,279.31Z"/><path class="cls-9" d="M202,262.52a.91.91,0,0,1-.39-.08,1,1,0,0,1-.52-1.32c.16-.38,4.13-9.34,9.47-7.38a1,1,0,0,1-.69,1.88c-3.55-1.29-6.92,6.22-7,6.3A1,1,0,0,1,202,262.52Z"/><path class="cls-15" d="M128.6,314.71s17,9.09,21.51,21.05S141.34,307,141.34,307,133,310.36,128.6,314.71Z"/><path class="cls-3" d="M160.19,146.48A10.81,10.81,0,0,1,167.9,150a18.55,18.55,0,0,1,4.66-.61,17,17,0,0,1,12.65,5.75c13.9,5.21,8.38,13.59,8.06,14.05l.15,0s8.15,5.7,5.36,8.49c0,0,5,6.25,1,9.6a4.32,4.32,0,0,1-1.46.73c10.86,16.92,17.55,46.13,14.33,71.23a3,3,0,0,1,.75-.71,1.66,1.66,0,0,1,.86-.23,2.45,2.45,0,0,1,1.93,1,7.4,7.4,0,0,1,.88,5.84c-1,2.72-2.77,6.83-2.78,8.24,0,2.41,1.43.84,2.56,3a6.07,6.07,0,0,1,0,2.59c-.45,2.89.88.86,1.55,3.72a6,6,0,0,1-1,4.64c-.34.6,2.62,5.23-1.21,7.75a13.93,13.93,0,0,0-2.65,2.71l1,.09a23.87,23.87,0,0,1,2.17,2.47h.11c2.94,0,5.26,3.22,5.26,3.22l38.55,67.48-33.27,59.69s11.17,18.77,5.58,27.26l7.71,7.7s1.23,4.14-4.35,4.14c-1.67,0-4-.88-6.48-2.11a422,422,0,0,1,1.54,43.73,42.4,42.4,0,0,0-4.5-.68l0,2.86h0c-.11,19.83-.05,48.48,1.13,55,1.84,10.22,0,15.25,0,15.25s5,79.53,5,80.15,7,9.66,7,9.66,9.31,7.32,16.55,13.13h0s4.36,1.14,6.06,2.56a6,6,0,0,1,1.83,3.81c.48.33,1.28.87,2.19,1.53a23.81,23.81,0,0,0,6.3,1.17c1,1,0,2.08-1.3,3,.72.77,1.15,1.44,1,1.88-.47,1.75-7.21,8.84-19.39,8.84-.69,0-1.39,0-2.11-.07-12.79-.84-30.52-14.46-32-18.26a11.26,11.26,0,0,1,.18-7.65c0-3.24,2-7.11,3-9.05,1.67-3,2.85-11.56,2.85-11.56-18.44-64.68-7.88-73.79-9.89-78.48-1.28-3-12.67-45.32-20.8-75.77h0a.36.36,0,0,0,0-.1c-.47-1.78-.94-3.51-1.39-5.2A21.86,21.86,0,0,1,189,501a132.46,132.46,0,0,1-22.12,8.76l-24.3,60.94S138.38,586,133.43,591A218,218,0,0,1,121.2,626.3c-8.38,18.77-12.06,44.57-12.06,44.57s6,15.24,6.71,24.76c7.06,9.67,13.4,21.6,5,25.12A48.28,48.28,0,0,1,102.54,724c-10.13,0-19.22-2.38-21.34-4.5-3.4-3.4,6.27-29.21,6.27-29.21.29-2.35,1-4.61,2.32-5.57,3.35-2.34,7.37-8,7.37-8s-1.26-3.35,2.26-7.87,8.71-33.54,8.71-37.34-4.69-32.17,11-43.34c0,0,1.79-36.28,6.37-62.52h0c.5-3,1-5.82,1.63-8.47-4.8.4-7.68.45-7.68.45s25.1-70.07,33.23-93.89c-2.07-4.16,1.18-6,2.15-6.48.12-.37.21-.67.27-.89,2-7.38-16.92-43.54-16.92-43.54l-5.06-8.56-12.16-2.86L113.09,343s1.41-19.1,2.86-20.56c.94-.94,7.87-5,12.65-7.74h0c5-5,15.73-8.95,15.73-8.95S154.55,294.2,156.72,292s1.18-8.21,1.18-8.21l-5.6-21.49c-9.88-6.22-13.78-13.13-13.78-13.13a5,5,0,0,1-3.65,1.46c-3.25,0-6.52-2.47-6.52-2.47s-14.18-14.19-9.72-20.89a4.21,4.21,0,0,1,3.68-2c2.92,0,6.41,2.41,8.86,4.48-5-4.39-7.72-5-8.82-5l-.34,0-.08.06-.07,0-.1,0-.05-.11c-1.06-.52-5.8-3.13-6.21-7.54-8-2.51-6.47-7-6.47-7-7.71-5.25,0-13.68,0-13.68-3.44-3.44-.79-8.44-.79-8.44-4-5.69,1-12.73,1-12.73.56-6.15,9.77-9.78,9.77-9.78.73-3.07,4.53-4.52,4.53-4.52a6.7,6.7,0,0,1,6.19-3.82c.32,0,.51,0,.51,0,3.34-7.22,15.87-7.91,20.56-7.91,1.11,0,1.78,0,1.78,0a12.54,12.54,0,0,1,7.6-2.9m36.3,131.34c1.68,0,6.2-5.83,7.77-7.55-3.42,1.06-8.11,1.67-14.41,1.69h.35c2.67,0,4.68,5.63,6.2,5.84h.09m-21.76-3.38h0c.79,5.65,1.94,12.06,3.2,13a46.06,46.06,0,0,0,13.87,6.66c0-.2-.06-.41-.08-.62-.47-3.9-4.79-9.58-5.88-10.67-.83-.83-3.56-8.93-3.59-11.13h0a78.32,78.32,0,0,1-8-1.06c.15,1.21.32,2.52.5,3.83m48.47,136,20.68-37.3-19.66-29.23c.52,8.39.85,17,.76,25.14a329.09,329.09,0,0,1-2.91,39.65,2.78,2.78,0,0,1,1.13,1.74M264,692.89h0M160.19,140.48h0a17.6,17.6,0,0,0-9.4,2.86c-6.83,0-18.24,1.15-24,8.21a12.39,12.39,0,0,0-7.47,4.91,13.67,13.67,0,0,0-4.87,4.63c-3.47,1.8-9.48,5.75-10.92,12-2.16,3.64-4.12,9.67-1.83,15.41a13.62,13.62,0,0,0,.21,7.67,15.89,15.89,0,0,0-2.23,9.59,12.36,12.36,0,0,0,3.39,7.18,10.57,10.57,0,0,0,.94,2.71,13.41,13.41,0,0,0,6.51,6,14.4,14.4,0,0,0,2.33,3.66c-2.33,4.83-1,11,4,18.3a68.71,68.71,0,0,0,7.25,8.79l.29.3.34.25c.81.61,5.13,3.68,10.13,3.68a11.9,11.9,0,0,0,1.59-.11,52.71,52.71,0,0,0,10.62,9.52L152,285a12.46,12.46,0,0,1,0,3.22c-2.39,2.49-8.72,9.61-11.24,12.46-3.29,1.32-11,4.72-15.83,9.18-11.63,6.71-12.57,7.65-13.26,8.34-1.49,1.49-3,3-4.6,24.36L107,344l.58,1.34,7.82,18.32,1.19,2.79,3,.7,9.66,2.27,3.68,6.22c.58,1.11,4.63,9,8.57,17.62,5.87,12.93,7.31,18.47,7.65,20.61a9.92,9.92,0,0,0-2.82,9.8c-8.66,25.2-32.28,91.15-32.53,91.84l-2.93,8.18,8.69-.16h.2c0,.19-.06.38-.1.57l-.28.87.06.46c-3.82,22.34-5.65,50.81-6.16,59.66C99.3,597.59,101.31,621.42,102,629.53c.06.74.14,1.66.14,1.92-.09,4.22-5.08,29.8-7.5,33.71A16,16,0,0,0,90.94,675a28.51,28.51,0,0,1-4.6,4.83c-2.51,1.76-4.06,4.71-4.73,9-.66,1.82-2.62,7.29-4.32,13.13-3.66,12.67-3.75,18.37-.33,21.79,4.3,4.3,16.27,6.26,25.58,6.26a54.13,54.13,0,0,0,20.61-3.69,11.91,11.91,0,0,0,7.21-7.92c1.72-6.18-1-14.12-8.7-24.92-1-8.38-4.86-19.22-6.35-23.22.92-5.67,4.57-26.23,11.37-41.47a227.76,227.76,0,0,0,12.23-35c4.93-6.18,8.44-18,9.33-21.22l23.11-58A140.41,140.41,0,0,0,188.18,508l.57,2.16,0,.05c17,63.84,20.06,73.83,20.85,76-.05.47-.18,1.29-.3,2-1.27,7.62-4.23,25.37,9.81,75.12a40.1,40.1,0,0,1-2,8.25c-2.28,4.12-3.52,7.68-3.75,10.84a17.1,17.1,0,0,0,.17,10.92c1.93,5,11.28,11.34,14.1,13.15,4.83,3.1,14.25,8.38,23.09,9,.83,0,1.68.08,2.5.08,14.36,0,23.89-8.5,25.18-13.26a6.38,6.38,0,0,0,.2-2.49,7.34,7.34,0,0,0,.65-2.35,7.22,7.22,0,0,0-2.13-5.81L275.51,690l-2.33-.1a19.8,19.8,0,0,1-3.51-.51,11,11,0,0,0-3.21-4.61,21.83,21.83,0,0,0-7.11-3.4c-6-4.78-13-10.34-15.06-11.95-2.06-2.66-4.34-5.69-5.43-7.23-.26-4.49-1.25-20.36-4.87-77.68.62-2.55,1.44-8.15-.15-16.95-.37-2.08-1.2-11-1.05-49.38l4.37,1.38.18-8c0-.81.38-17.49-.86-35.76,4.72-.06,7.24-2.11,8.52-3.83a9.23,9.23,0,0,0,1.38-8l-.43-1.45-1.07-1.08L240,456.55c2.11-8.88-2.77-20.09-5.75-25.79L265.85,374l1.65-3-1.68-2.94L227.27,300.6l-.15-.27-.19-.26a16,16,0,0,0-3.91-3.74,11.64,11.64,0,0,0,.73-8.21,11.27,11.27,0,0,0,.52-6.81,9.57,9.57,0,0,0-1.28-3.09,8.13,8.13,0,0,0-.84-4.67,9,9,0,0,0-1.19-1.73c.36-1,.79-2.09,1.09-2.85.22-.57.44-1.13.63-1.64,1.47-3.84.34-8.62-1.52-11.36a8.55,8.55,0,0,0-2-2c1.5-22.09-3.63-47.24-13.22-64.78,2.26-3.79,1.53-8.47-.63-12.4a7.9,7.9,0,0,0,0-1.19c-.29-3.27-2.56-6.21-4.93-8.44a13,13,0,0,0-.39-6.32c-1.44-4.59-5.25-8.2-11.32-10.76a22.85,22.85,0,0,0-16.13-6.68,24.42,24.42,0,0,0-2.94.18,16.26,16.26,0,0,0-9.43-3.08Zm70.2,244.61c.3-4.9.52-10.31.59-16,0-1.43,0-2.89,0-4.4l5.86,8.72-6.46,11.65Z"/><path class="cls-9" d="M193.8,275.12a1.56,1.56,0,0,1-.87-.27,52.79,52.79,0,0,0-6-3.5,4,4,0,0,0-2.13-.3,1.49,1.49,0,0,0-1.1,1,1.5,1.5,0,1,1-2.91-.7,4.45,4.45,0,0,1,3.37-3.21,6.87,6.87,0,0,1,3.81.42,53,53,0,0,1,6.69,3.86,1.5,1.5,0,0,1-.86,2.72Z"/></g></svg>