<svg xmlns="http://www.w3.org/2000/svg" xmlns:xlink="http://www.w3.org/1999/xlink" viewBox="0 0 398.64 489.35"><defs><style>.cls-1{fill:none;}.cls-2{fill:#afa7a0;}.cls-3{fill:#ffaeae;}.cls-4{fill:#af6868;}.cls-5{fill:#994a4a;}.cls-6{fill:#b0ffd0;}.cls-7{fill:#68af86;}.cls-8{fill:#448c61;}.cls-9{fill:#ffefae;}.cls-10{fill:#afa368;}.cls-11{fill:#96884b;}.cls-12{fill:#c5ddf9;}.cls-13{fill:#6868af;}.cls-14{fill:#4e4e93;}.cls-15{fill:#d4ffab;}.cls-16{fill:#88b267;}.cls-17{fill:#62893f;}.cls-18{fill:#8ac48a;}.cls-19{fill:#eac2a7;}.cls-20{fill:#6d472e;}.cls-21{fill:#c9a68f;}.cls-22{fill:#d6aa8b;}.cls-23{fill:#6d5f56;}.cls-24{fill:#7c7c7c;}.cls-25{fill:#8e8e8e;}.cls-26{fill:#d1af9b;}.cls-27{fill:#f2f2f2;}.cls-28{fill:#b7b7b7;}.cls-29{fill:#848484;}.cls-30{clip-path:url(#clip-path);}.cls-31{fill:#fff;}</style><clipPath id="clip-path"><path class="cls-1" d="M173.89,206.37s-1-4.1-.48-5.72a11.07,11.07,0,0,1,2.43-3.55s.42-4,3.28-4,10.73,2.39,10.73,2.39,3.71,1,3.71,3.72c0,0,4.2-1.86,5.89-1.86a19.62,19.62,0,0,1,4.55.94s5.61-2,7.6-4a8.25,8.25,0,0,1,5.17-2l.25-.54s.37-7,2.34-8.18a28.43,28.43,0,0,0,4.32-3.53s-4.18-2.87-4.7-4.39c-1.08-3.2,1.84-11-.45-13.52-2.43-2.64-10.33-1.23-14.31-.42-2.22.45-8.18-.4-8.66-2.61a4.12,4.12,0,0,0-2.49-2.86c-1.57-.51-4.69,2.3-4.69,2.3l-1.23-4.25s.24-2.84,5.95-5a10.2,10.2,0,0,1,10.39-3.09s3.75-4.49,9.18-.37c0,0,10.93-.63,13.41,4.73a4.09,4.09,0,0,1,4,2.28s2.83-.25,3.9,1.59c0,0,2.57.14,2.91,3.82,0,0,3,4.23.6,7.65,0,0,1.59,3-.47,5.06,0,0,2.83,3.8-1.79,6.95,0,0,3,4.56-3.75,5.91,0,0-.93,3.76-2,4.15-2.08.75-1.94-.88-7.51,4.69l-1.56,1.57c-.33,1.48-1.09,3.74-.52,4.37,1.87,2.09,2.5,4-4,9.27,0,0,.92,1.66,0,2.57s-2.39,2.24-3.43,2.24c0,0,0,2.68-3.75,3.74s-4.94-.57-4.94-.57.68,2.64-.69,3.05a4.71,4.71,0,0,1-2.62,0,4.82,4.82,0,0,1-4.9,1.08,2.92,2.92,0,0,1-3.56.91s-5.23,1.25-8.05,0-2.82-1.74-2.82-1.74-4.4.91-6.39-1.08a5.54,5.54,0,0,1-1.15-1.8,12.86,12.86,0,0,1-.84-4.34S172.79,207.47,173.89,206.37Z"/></clipPath></defs><title>1-lixos</title><g id="Camada_2" data-name="Camada 2"><g id="Camada_1-2" data-name="Camada 1"><path class="cls-2" d="M273.34,472.48S186,506.4,128.45,478s131.27-17.61,131.27-17.61S293.84,461.3,273.34,472.48Z"/><path class="cls-3" d="M152.71,14.87,168,7.33S190,3.81,192.54,5.07s11.79,10.3,11.79,10.3l12.78-.5,17.38,8L251.36,46,262.6,78.7l-7.66,7-4.09,6.54L257,96.79v10.55l-8.18,8.55,7.16,6-4.29,20.36-33.54,20.35-41.91,4-4.6-7-1,5-18.23,2.52-26.24-6.54-20-18.19.25-41.87L98.52,99.3,92.39,82.72l1-38.2,25.16-23.36L144,6.83Z"/><polygon class="cls-4" points="159.45 40.7 159.97 40.7 165.42 39.47 169.15 40.29 173.21 41.64 175.09 46.77 175.54 51.32 173.7 53.04 172.96 53.45 173.17 54.27 171.49 54.43 169.85 54.72 166.32 55.42 165.84 55.42 165.47 55.42 165.34 55.42 165.26 55.01 164.97 55.01 164.93 55.01 164.93 54.15 163.54 53.69 162.17 53.18 162.17 53.18 162.1 53.15 162.1 53.15 162.02 53.12 161.98 53.41 160.38 53.94 159.72 54.56 157.92 54.8 156.07 55.17 155.96 55.12 155.96 55.12 155.34 54.8 155.46 54.23 155.53 54.15 154.68 54.18 153.41 54.18 153.41 53.69 153.12 53.45 153.33 53.12 154.6 52.42 155.58 52.11 154.51 50.83 153.29 49.02 153 47.46 152.38 47.05 152.34 46.48 152.2 46.48 152.17 46.48 151 46.48 150.78 46.48 149.8 45.45 149.78 45.38 149.78 45.38 149.47 44.35 149.5 44.29 149.5 44.3 149.81 43.68 149.81 43.68 150.17 42.95 151.57 39.59 152.18 38.82 152.38 36.97 151.93 33.32 151.97 31.39 153.12 29.34 153.45 29.34 153.53 29.63 154.56 32.46 154.31 34.14 153.49 37.05 153.66 37.51 153.81 37.4 153.81 37.4 154.27 37.07 154.27 37.07 154.64 36.81 155.01 36.33 155.01 36.33 156.36 34.63 158.9 32.91 160.95 32.01 161.36 31.8 162.14 32.75 161.57 34.22 159.6 35.62 156.69 38.32 156.48 38.81 156.81 39.67 157.76 40.82 157.95 40.8 157.95 40.8 158.82 40.7 159.45 40.7"/><path class="cls-4" d="M247.33,60.71a40.36,40.36,0,0,1,2.28-3.6l-.83-2.69-.55-3.59.55-6.57-1.17-9.33-2.56-4.7h-2.59l0-.07-6.57-5.32-5.94-.13-7.53,2.62s-4.15,1-4.5,1l-9.67-.07-3.94-1.52-2.05-1.37,0-.36-2.54-5.07h0l-.09-.18,0,0h0l-.2-.36h0l-.25-.44h0l-1.82-3.21h0l-.19-.33h0L194,9.85l-1.35-1.27-.08-.08h0l-2-1.83-.33,0h0l-.14,0-.5-.07h0l-6.4-1h-.12l-1.74-1.87-.42.29.14.53h0l.29,1.16-1.53.09-1.66,1.66-1.11,1.52,1.8,1,.27.05-2.34,2.92-3,2.62-3,2.09v-.2l-.52.57V18l-.74.65-1,1.38.28,3.67.48.3h0l.37.22,1.79,1.14,1.65-.63.42-.25.09.08.57-.38-.07-.07.45-.27,4.56-1.25.6.06,0,.15.67.05.05-.14.18,0-.14,2.42.9,8.57,3.11,10.71.27,5,2.54,2.87h0l1.75,2,.76,6.29.76,5.87.06,3.82h0l.08,4.89-.76,4.49-1.27,1.42h0l-.46.52-1.24,2.83,5.59.55,1.45-.55-.27-2.21L195,81.1l1.59.13,2.76-.62-.13-.83h0l-.07-.48.41-1,.69-1.73-.06-5.94h0v-.9l-.84-6.63.14-6.84,1.06-2.42,3.57-.55,4.7-.42,8.85-.76,6.48-2.62,3.82,2.69,2.69,3.66s2.42,5.74,2.56,6a15.07,15.07,0,0,1,.41,1.93l-2.28,11.4L229.37,77l-.28.76-.62.62-1,3,.49.35,4.14-.42,2.28-.89V78.88l-.76-1.17.07-1.25,1.45-1.65-.48-2.49.85-4.18h0l.67-3.28,1.31-2.37.07.15,1.8,2.84-.9,5.87-1.87,7.53-2.07,1.32-.62,1-.83,3,.76.42,3.87-1,2.83-1-.69-1.8,1-2.42.62-.9.55-4.15L242,72h0l.1-3.93.33-1.37.29,2.06,1.87,4.14.62,2.42L244.64,77l.41.2,1-2.07.21-2.14.9-1.73,1.17.62v-.62l-.76-.83s-.76-2.41-.76-2.62S247.33,61,247.33,60.71ZM194.63,71l0-.87V63.54l.65-3.71.31,3.09,1,5.88.14,6.14-.21,2.35-1.66,1h0L194.64,71Z"/><path class="cls-4" d="M191,145.69l-.47.17.12.52L192.3,149h0l.13.2h0l.34.55.34-.3.12-.3,2.18.21,1.37.51,2.22.43,3.07-1,2.78-1,.72.55L206,150l-.17.94.47,2.95-.42,3a3.14,3.14,0,0,0-.39.68c0,.13-.43,1.49-.43,1.49l-1.45,1.63.3.47,1.7-.27h0l.79-.12,1.32-.47-.21-.77.72-1.41.34-1.23,1.24-3.38.61-.63.42,3.07,0,1.24-1.45,1.11,0,.55h1.4l1.63-.17L213,158l.68-6.58L214,151l.73-1.15,1.4.67,3.07,1.33,3.46,0,1.67-.64,3.71-1.16,2.22-1,1.07,1.53.34.86-.21,2.13.51.6,1.24,1.67-.13,1.19-.13,1.92-1.32,1.54v.3l3.33.17-.09-.64.52-.68-.13-1.41.08-.28,1.24.06,1.2-.68,0-1.37.73-1.32,1.11-4.7,1.06-2,.29-2.14.78-.85.55-3.84.33-1.28,1,1.92.64.17,1.45,1.41,1.88.51.68-.89-1,.13-1.19-.26-.86-.73.56-.08,1-.51,1.2-2.91-2.65-1.28-1.66,2.35-.78-1.22.22-.87-1-1.79h0l-.82-1.46-3.89-2.56-7.3-2.65-6.79.17-3-.08-4.09,1.07H207.5l-4.83,1.92-1.41,1.43h0l-.64.66-1.07.93-1.19-.68-1.2-1.32-3.84-.81,0,.9,1.5,1.06.65,1.16.12.51.47,1.62.1.25-.28.22-.55,1.62-.3,1.76-1.79,1.87-1.45,1.28Zm53.4-5.72.47-.9.86-.77.94.48.12.59-1.06,1.71-1-.3Z"/><path class="cls-4" d="M95,146.73l1.66,7L95.5,156l.64.64,2.69-2.85,1-10.21-.48-1.5,1.51-6.65.39-14,3.72,16.1-.87,3.25-.39,2.85,2.77,3.48-.32,7.52L106,156l1.74,1.51.32,1.42,1,2h5.3l.24-.63-2-2.77-.47-1-1.43-1.11.71-8.47.16-2,.5-1.07,1.08,4.72,1,3.32-.31,2.77.87-.24.63,1.43-.08,2.13,1.51.4,3.72-.47-.08-.8-2.62-3-.47-3.24-.71-7.91.21-1.11.58.31-.32,1.9.87.4,1-1.66,1.51.55.55,2.77,1.27.08.16-2.3,1.26-.55,1.51,1.82.71-1-.48-1.9,2-1.5,1.4-2.31,3.51-.38,10.92,1.82,10.28.24h0l1.27,5.06.63,3.25-1.19,8.07.88.32.31,1.11.71.79V162l4.67.95.16-.79.95-.16-.9-2.82.74.13,1.9.16,1.51-.71-1.59-2.54-1.58-.87.4-.95,1.18-7,1.19-2.77.76-5.51,2.33-1.06,2.93-4.83,3.32-6.49,5.86-4,4.27-2.77,1.11-1.83h0l.71-1.18,1.19-1,4.43.86h4l.71-.86,1.51.07,1.11-1.34.71-3.17v-1.11l-2.14-.79-6-3.88-.15-.71-7.65-4.72.05-.11,1.58-.31,2.85.39H190l1.19-1.9-.08-1.9-1.27,1.59-2.77.71-3.4-1-2.53.71-1,1.82v.24l-.48-.71-3.88-1.35-.71,1-.08,1.27,2.56,1.5-1.84,1-1,.2h0l-.56.11-5.93.47-5.39-.87-2.61-.72h0l-3.4-.94-2.46.47-6.8,2.14-3.64.71-8.47-.55-6.46.55h0l-6.59.56-3.64-.95h-4.2l-7.84,3-.37.39h0l-5.72,5.87,0,.82-.66,1.16-.64,19.31-1.74,7Zm64.11,6.33.72-7.44.05-.08,0,2.77-.15,6.33-.3.63Z"/><path class="cls-4" d="M246.71,100.71l-1.18-.92-.92.06h-1.2l-.49,2-1,.71-.12,1.46-.82.44-.57,1.39-1.38-.07-.53,2.54-1.18.37-.21.58h0l-.26.72s-.82,2.19-.83,2.33-2.27,2.91-2.27,2.91L232,116.32l-.22.9-.36.32h0l0,0-.29,2.47.22,1.81.6,1.07.31.28h0l.81.73v.59h0v.33l-1.34,0-1.15-.14-.32-1h0l0-.13,0-.55-1.29-.56.24-.68-.07-.83-.19-4-2.09-1v-1.16l-.26-.71h-2.86l-4.92.39-2.7-.91-1.8.64L212,115.44l-.86,1.5-.74,1h0l0,0v1.62l.41,1.78.75.39.43.58h0l.07.1.59.19.71,1.42h0l.2.4-.24.12-.6,0,.11.37-.93.07-2.22-.41-.08-.28h0l-.21-.71.08-.41-.34-.13h0l-.65-.24.15-1.28-.33-1.64-.68-2.78h0l-.05-.18.29-.76-.92-2.8-.44-4.92-.46-4.61.1-.91h0l.25-2.29-.17-1.9.51-1.72,1.75-1,1.11-1.21,4.61-.55L218,94l5.43.16,4.16,0,4.2.53,1.87-.87,1-1.12,2.79-.83-.79-1.08,0-1.2.72.15,2.18,1.18h0l1-.13.88-.69.67-.5,2.55.9,1.53,1.64.25.48.47.9-.75.77,2.52,3,.69.63,0,.6-.2.77-.06.73-.63.32-.66.78Z"/><path class="cls-4" d="M92.92,61.66l-.23-.83.19-2.08,1.32-.69,2-1.13,2.51-1.86,1.7-1.19,3-2.17.61-.06.3-1.55,2.45-2.92,5.19-2.26.38.47-3.87,2-1.79,2.83-.36,1.37L109,52.72l2.26,4.77,3.27,3,2.55,2,3.49.57s2.07,1.51,2.36,1.6,6.41,1,6.41,1l7.45-1.23,3.49-1.13,4,.38,5,1.6.85,1.32,2.74-.09,2.83-1.8.84.43h0l.29.14-.94,4-2,1.13-2.45-.94-.75.94.28,2.27L150,75.19l-1.42,3.68.79,4.67h0l.15.9,2,1.69-.1,1-.19.45h0L150,90.38l-.85,6.51.19,1.22-1.32,1-.1.94.3.84h0l.17.48L145,102.45l-1.32-.37-.1-1,1.32-2,1.11-.92h0l0,0,.48-4-.28-5.47-1.7-1.51-.23-.2L144,89.25l-.38,4,.29,2.92-.85.76V98l.66,1.13-2.36,1.13-2-.18-.28-.95,1.13-1.6,1-1.32.28-1.23.66-4.62-.28-.85-1.14-1.72V89l-1.13.1-.47-1-.85.19-.19,1.32-.85-.38-.47-.85-2.26-2.92-.63-2.06-.6.08-6.5,1.23-7.93-2.08-1.79-.66-.85,1.7.19,3.68.38,2-1,2.17-1,.84-1.31,7,.37,1.22-.32.23h0l-.62.43-.14.32h0l-.43,1-2.64.47-1.69-.18.09-2.08h0l.87-.4-1.75-.53.85-1.61,1.32-.75V96.13l1.13-3.77-.19-2.92-.66-3.87-.21-4.67-1.39-1.27L106.93,76l-.09-3-3.49-7.45-1.42-3-1.63.12-2.89-.06.37,1.2-.25,2.76-.94,1.7-.25,1-.51-.37v-1.2L95,65l-1-2.33-.88-.19-.2-.73h0Z"/><polygon class="cls-4" points="206.96 67.54 206.4 67.63 206.04 67.3 205.66 67.49 205.39 66.8 205.31 65.79 204.6 65.69 203.94 65.61 203.99 65.52 203.99 65.52 204.07 65.35 204.53 65.04 205.26 64.7 205.27 64.66 205.27 64.66 205.38 64.36 205.38 64.36 205.44 64.19 205.82 63.77 206 63.26 206 63.26 206.06 63.06 206.57 62.76 206.81 62.49 207.16 61.81 208.03 61.36 208.27 61.83 208.27 61.83 208.41 62.11 209.04 61.45 209.73 61.63 209.98 62.09 209.98 62.09 210.05 62.23 210.37 62.3 210.37 62.3 210.56 62.34 210.41 63.51 211.07 64.94 211.07 64.94 211.33 65.5 212.7 68.75 213.12 69.22 215.41 69.43 218.42 69.94 219.43 69.67 220.95 68.72 221.75 66.42 223.51 65.44 223.95 65.78 223.95 65.78 224.11 65.9 224.11 65.9 224.13 65.92 224.16 66.57 224.24 66.64 224.24 66.64 224.27 66.67 225.09 67.44 225.14 67.46 225.14 67.46 225.24 67.5 225.71 67.7 225.98 68.18 225.8 68.98 225.8 70 226.01 71.01 225.65 71.75 225.03 72.64 224.25 74.91 224.25 74.91 223.99 75.68 223.18 77.41 221.28 78.06 220.89 78.69 218.83 79.8 218.83 79.8 218.69 79.88 217.32 80.53 215.74 82.11 215.29 82.29 215.29 82.31 215.29 82.31 214.82 84.14 214.82 85.4 214.82 85.45 215.5 85.66 216.6 86.1 216.75 86.22 216.6 86.31 216.13 86.19 215.71 86.25 214.17 85.96 214.17 85.96 214.13 85.95 213.15 86.46 212.08 86.7 211.21 87.06 210.92 87.29 210.8 87.29 211.03 86.91 211.17 86.79 211.17 86.79 211.51 86.52 212.76 85.92 212.7 85.9 212.7 85.9 212.29 85.78 211 85.83 210.71 85.71 209.99 85.98 209.9 85.8 210.68 85.39 211 85.12 211.75 85.3 212.61 85.36 213.86 85.24 214.28 84.49 214.43 82.27 214.43 82.27 214.43 82.2 213.83 81.87 213.09 80.74 212.26 79.25 210.29 78.51 208.24 77.38 207.34 76.13 206.7 75.52 206.71 75.52 206.66 75.47 206.57 74.58 206.12 73.66 206.3 70.47 206.21 69.49 207.02 67.76 207.22 66.6 207.18 66.63 206.96 67.54"/><polygon class="cls-4" points="145.6 20.66 145.59 20.66 144.88 26.6 145.15 27.05 144.97 27.63 138.95 28.8 138.77 31.4 141.69 32.7 142.36 32.75 142.59 33.11 142.23 35.17 138.73 36.2 138.24 36.7 135.63 35.89 132.85 38.94 127.69 42.04 125.4 42.48 124.39 43.14 124.39 43.14 123.61 43.65 123.61 43.68 123.61 45.45 123.61 45.49 125.76 46.03 127.15 45.9 127.64 46.52 128.36 46.79 128.5 47.24 127.83 47.06 126.79 46.93 126.3 47.11 124.55 47.06 122.39 47.96 119.03 48.63 118.67 48.99 118.04 49.03 117.86 49.35 117.64 48.86 117.9 48.44 117.9 48.44 118.31 47.78 120.33 47.24 122.13 46.61 121.96 46.61 118.94 46.61 117.1 46.52 116.38 46.79 115.93 46.79 115.73 46.96 115.74 46.96 115.62 47.06 115.71 46.3 117.19 45.63 118.54 45.8 121.27 45.54 121.77 45.18 121.77 43.58 121.77 43.29 121.19 43.08 121.19 43.08 118.18 41.99 112.03 39.52 107.77 35.8 105.79 33.51 104.65 28.25 104.65 28.25 104.56 27.84 104.56 27.84 104.22 26.29 105.39 23.1 107.09 20.23 107.63 19.65 107.63 19.65 108.08 19.15 108.84 17.22 110.01 15.92 110.77 14.62 110.86 12.24 111 11.34 109.75 10.91 109.75 10.91 109.7 10.89 109.29 11.61 109.38 14.44 108.93 16.01 108.69 15.97 108.69 15.97 108.04 15.88 108.35 14.71 107.99 12.87 108.26 10.63 107.63 10.54 107.81 10.13 108.53 9.75 108.53 9.75 109.34 9.32 109.74 8.79 109.76 8.73 109.76 8.73 110.19 7.66 111.67 6.68 113.06 6.05 113.38 6.27 114.5 6.27 114.54 6.72 114.85 6.83 114.85 6.83 115.62 7.13 116.34 8.96 116.11 10.54 115.04 14.21 113.51 16.32 113.54 17.01 113.54 17.01 113.56 17.36 114.12 17.92 114.12 17.92 114.14 17.94 117.64 15.7 122.26 11.39 122.08 10.8 123.02 10.54 128.21 12.37 128.21 12.37 128.36 12.42 129.13 12.33 131.41 11.16 133.66 9.05 134.69 7.04 134.69 6.45 137.83 6.09 139.94 6.09 142.05 6.09 145.24 7.98 145.61 9.72 145.61 9.72 145.7 10.16 146.14 12.18 146.14 12.18 146.45 13.63 145.67 20.06 145.6 20.66"/><polygon class="cls-4" points="162.58 91.25 159.32 88.93 157.75 88.25 156.93 86.83 156.66 86.08 156.93 85.63 157.6 86.01 157.79 85.63 158.54 85.94 158.53 85.94 158.68 86.01 160.59 84.92 163.36 82.68 166.21 80.24 168.15 78.56 171.26 77.55 171.97 76.28 171.97 75.04 170.55 69.54 169.57 65.05 169.72 63.1 171.22 60.97 171.52 60.71 172.16 60.63 175.07 60.33 175.07 60.33 175.08 60.33 175.45 60.41 175.57 60.55 175.57 60.55 176.05 61.16 176.61 62.02 178.33 62.28 178.82 62.73 178.78 63.22 177.88 63.25 176.77 63.46 176.77 63.46 176.28 63.55 176.05 63.59 176.05 63.59 175.86 63.63 174.85 64.6 173.8 65.13 173.06 66.28 172.76 67.52 173.62 71.11 175.19 74.82 177.32 77.77 177.62 79.53 177.62 81.93 177.43 82.31 177.43 82.31 176.8 83.58 176.39 85.48 175.86 87.84 174.07 89.9 171.37 91.62 170.32 92.78 168.9 93.53 168.9 93.55 168.9 93.55 168.94 95.81 169.5 96.45 170.32 96.26 172.34 95.96 172.63 96.32 172.63 96.32 172.83 96.56 173.95 97.2 173.88 97.63 173.88 97.63 173.88 97.65 172.91 97.39 171.26 97.39 170.32 97.61 168.49 97.46 168.3 96.94 168.04 96.41 167.63 96.6 167.44 96.11 167.74 95.44 167.7 94.2 167.58 93.49 167.58 93.49 167.55 93.34 167.28 93.16 167.28 93.16 166.09 92.33 162.58 91.25"/><path class="cls-5" d="M181.34,3.63l1.56,1.68c2.81-.3,5.44-.52,7.28-.52a6.5,6.5,0,0,1,2.36.28c2.59,1.26,11.79,10.3,11.79,10.3l12.78-.5,17.38,8,1.47,2,6.47,5.24,0,.07h2.59l2.56,4.7.91,7.21L251.36,46,262.6,78.7l-7.66,7-4.09,6.54L257,96.79v10.55l-8.18,8.55,7.16,6-4.29,20.36L240,149.39l-.26.48-1.11,4.7-.73,1.32,0,1.37-1.2.68-1.24-.06-.08.28.13,1.41-.52.68.09.64-3.33-.17v-.3l1.32-1.54.13-1.92.13-1.19-1.18-1.59-13.93,8.45-41.91,4-4.6-7-1,5-18.23,2.52-26.24-6.54-8.48-7.72.17,1.18,2.62,3,.08.8-3.72.47-1.51-.4.08-2.13-.63-1.43-.87.24.31-2.77-.82-2.87-1.9-1.73-.68,8.08,1.43,1.11.47,1,2,2.77-.24.63h-5.3l-1-2-.32-1.42L106,156l.08-1.42.32-7.52-2.77-3.48.39-2.85.87-3.25-3.72-16.1-.39,14-1.51,6.65.48,1.5-1,10.21-2.69,2.85L95.5,156l1.11-2.21-1.66-7,2.61-4.6,1.74-7,.64-19.31.66-1.16,0-.82,5.72-5.87h0l.06-.07.05-7.3L98.52,99.3,92.39,82.72,93,61.79l0-.06h0v-.07l-.23-.83.19-2.08.15-.08.38-14.15,12.3-11.41-1.06-4.86-.09-.41h0l-.34-1.55,1.17-3.18,1.7-2.87.53-.58h0l.46-.5.76-1.93,1.17-1.3.76-1.3.09-2.38.14-.9-1.25-.43h0l0,0-.41.72.09,2.83L108.93,16l-.24,0h0l-.65-.09.31-1.17L108,12.87l.27-2.24-.63-.09.18-.41.72-.38h0l.81-.43.4-.53,0-.06h0l.43-1.07,1.48-1,1.39-.63.32.22h1.12l0,.45.31.12h0l.77.3L116.34,9l-.23,1.58L115,14.21l-1.53,2.11,0,.69,0,.35.56.56,0,0,3.5-2.24,4.62-4.31-.18-.59.94-.26,5.19,1.83h0l.15.06.77-.09,2.28-1.17,2.25-2.1,1-2V6.45l3.14-.36h4.22l1.6,1,.37-.21,8.69,8L168,7.33s6.81-1.09,13.28-1.84l-.26-1h0l-.14-.53.42-.29m0-3.63a3.67,3.67,0,0,0-2.11.67l-.41.3a3.55,3.55,0,0,0-1.13,1.31c-5.31.68-10,1.43-10.23,1.47a3.69,3.69,0,0,0-1,.33l-13.1,6.44-6.86-6.35a3.64,3.64,0,0,0-2.17-1L143.9,3a3.64,3.64,0,0,0-1.85-.5h-4.22a2.82,2.82,0,0,0-.41,0l-3.14.36a3.61,3.61,0,0,0-3.2,3.29l-.37.7-1.4,1.33-.86.43-4.22-1.49a3.84,3.84,0,0,0-1.21-.2,3.34,3.34,0,0,0-1,.14l-.94.27a3.48,3.48,0,0,0-1.27.65,3,3,0,0,0-.1-.32L119,5.81a3.58,3.58,0,0,0-1.79-1.94,3.59,3.59,0,0,0-2.71-1.22h-.18a3.6,3.6,0,0,0-1.26-.23,3.73,3.73,0,0,0-1.49.32l-1.39.63a3.29,3.29,0,0,0-.52.29l-1.48,1a3.71,3.71,0,0,0-1.36,1.67l-.12.3-.58.32a3.56,3.56,0,0,0-1.62,1.72l-.18.4a3.61,3.61,0,0,0,.1,3.16l0,.23a3.83,3.83,0,0,0,0,1.12l.2,1-.1.35a3.65,3.65,0,0,0,.22,2.48l-.33.37a2.9,2.9,0,0,0-.44.6l-1.71,2.87a4.15,4.15,0,0,0-.29.6L100.82,25a3.53,3.53,0,0,0-.14,2l.34,1.56.09.41.61,2.84-10.78,10a3.64,3.64,0,0,0-1.15,2.57l-.36,13.18a3.75,3.75,0,0,0-.16.81l-.19,2.08a3.65,3.65,0,0,0,.11,1.27l.12.45-.55,20.4A3.74,3.74,0,0,0,89,84l6.13,16.58A3.62,3.62,0,0,0,98,102.88l4.8.77,0,2.73L98,111.27a3.63,3.63,0,0,0-1,2.44l-.14.25a3.64,3.64,0,0,0-.49,1.7l-.62,18.93-1.53,6.19-2.36,4.15a3.61,3.61,0,0,0-.38,2.63l1.36,5.76-.52,1a3.62,3.62,0,0,0,.68,4.19l.63.63a3.63,3.63,0,0,0,2.57,1.07h0a3.65,3.65,0,0,0,2.58-1.14l2.7-2.85a3.64,3.64,0,0,0,1-2.15l.11-1.16-.06,1.41-.08,1.42a3.63,3.63,0,0,0,1.25,2.95l.83.72.06.25a3.94,3.94,0,0,0,.32.89l1,2a3.64,3.64,0,0,0,3.22,2h5.3a3.64,3.64,0,0,0,3.4-2.35l.11-.3,3-.39a2.85,2.85,0,0,0,.58-.12l2.12,1.94a3.8,3.8,0,0,0,1.57.84l26.24,6.53a3.32,3.32,0,0,0,.88.11,4.19,4.19,0,0,0,.5,0l18.22-2.52a3.4,3.4,0,0,0,1.47-.55l.62.95a3.64,3.64,0,0,0,3,1.64h.35l41.91-4a3.84,3.84,0,0,0,1.54-.51l8-4.87a3.63,3.63,0,0,0,3.44,3.48l3.33.17H235a3.62,3.62,0,0,0,3.6-3.2,4.54,4.54,0,0,0,.21-.45l.81-.46a3.65,3.65,0,0,0,1.82-3l0-.49.3-.56a3.92,3.92,0,0,0,.36-.91l.84-3.6,10.6-6.43a3.63,3.63,0,0,0,1.67-2.35l4.29-20.36a3.66,3.66,0,0,0-1.21-3.53l-4.2-3.54,5.5-5.75a3.6,3.6,0,0,0,1-2.51V96.79a3.62,3.62,0,0,0-1.48-2.92l-3.42-2.53,2-3.27,7.31-6.7a3.63,3.63,0,0,0,1-3.85L254.79,44.85a3.81,3.81,0,0,0-.5-1L252,40.75l-.79-6.27a3.84,3.84,0,0,0-.41-1.28l-2.56-4.7a3.63,3.63,0,0,0-3.19-1.89H243.8l-5.19-4.21-1.19-1.63A3.68,3.68,0,0,0,236,19.62l-17.38-8a3.59,3.59,0,0,0-1.52-.34H217l-11.22.44c-3.3-3.21-9.12-8.67-11.62-9.88a8.7,8.7,0,0,0-3.95-.64c-1.46,0-3.39.11-5.85.35L184,1.16A3.64,3.64,0,0,0,181.34,0Z"/><path class="cls-6" d="M264.19,274.38l17.05-8.77L282.7,268l15.11-3.9,23.38,1.95,7.32,7.89,21.43,2.35,13.64,14.13,11.7,36.05,4.38,26.8-4.38,5.36a76.47,76.47,0,0,1,1.46,7.79c0,1.47.49,10.72-2.93,14.13s-30.2,29.73-30.2,29.73l-18,7.31-3.9-3.9-5.36,5.84-12.18,1L260.77,422l-20-10.72-9.26-25.82-8.28-8.29,3.41-9.25-8.77-8.77L214,332.85l6.22-27.92,14.56-11.14,5-9.18Z"/><path class="cls-7" d="M367.23,329.37l0,.52v0h0c0,.61-.08,1.21-.11,1.32a37.74,37.74,0,0,1-3.41,2.63l1.3,2.52,0,2.92-1.09,1.28-1.5,0-.32,1.38-.67-.13-.07-1.24-1.56,0-.35,1.1-.52-.05v-1h-.51l-1.38-.08-.32.91-.59,0-.07-1.35-1-1.5,1.08-1.28h0l.29-.34.06-.6-1.25.34-5.85,1.31-3.08-.22-14.09.5-5.53-.81-3.51-.71.4,1.29,1.14,4.56-.23.09.56,1.68-.42.34-.82-1.78-.52.19.54,1.72-.5.27-.8-1.71-.6.22.53,1.55-.43.1-.67-1.44-.86.31-.19-.11.26,1.41-.53-.3-.36-1.5-.62-.38-.15-.37h0l-3-7.61-.12,3.22L315,342h-.4l-.24,1.49-.66,0,0-1.42-.84,0-.23,1.29-.45-.14-.07-1.13-1-.93-.23,1.33-.45-.3.19-1.5-.45-.43-.47-4.19.52-4.9.55-.68,2-.52-.21-.23.42-.33-1.36-.47h0l-3-1.05h0l-2.09-.72-.36-.24h0l-.63-.43.07-.55-2.81-.86-3.6-1.41-.83-.92-.12-1.24h0l0-.44-.89.22-.41-1.92,1.15-2,5.67-1.41,1.77.22,5,2,.14-.52,1.59.19h0l.62.08,2.08.53.49.18,1-.92,1.2-1.12,5.38-5.59,4.25-3.73,1.22-.38h0L332,305.8l8-.06,7.63,1.74,6.39,4.17,7.44,8.32,0,.08,2.19,4.25,4,3,0,2Z"/><path class="cls-7" d="M294.07,336.46l-.46-.79h0l-.43-.74h0l-.36-.61h0l-.53-.92h0l-3.2-5.47-4-3.32-2.61-1.3h0l-.89-.43h0l-3.55-1.76h0l-.68-.34-3.14.31h0l-1.09.11h0l-2.58.25-1.38.36-.67.18h0l-.48.12h0l-.91.24-4.95,1.3-2.83,1.12-3.6,3.37h0l-.1.09-2.2,2-.19-2.16-1.88-5.58-1.92-1.9-1.38-.23h0l-.18,0-2.69,1.46-.57,2.89-1.16,2.55-1.57,2.24-.23,2-.28.86h0l0,.14-.89.73-.31,1.3h0l0,.21-1,1-1.82,1.64-2,1.86-.12,1.44.39.63v0h0l.31.5h0l.44.71,3.14,1.5,5.21.88,4.5,1,1.75,0,1.3-1.09,0-.13,3.88.52.42.18-1.13.59-2.26,1.84-2.07,2.4-.24-.14-2,.87-1.79.8-.58,1.56,0,.06h0l.21.39-1.1.69-2.95,1.11-3.35.55,0,2.08h0l0,2.17.32,0h0l5.33-.61,4-1.06,2.5-1.24,2.63.22,0,.07h0l-.54,1.9-1.23,2.9.66,0h.51l1.94-2.42,1.57-2.24,3.17-.26,2.45.15,0,.12.95.75,1,.06-.43-.71v-.06l.93.17.92.9.76.05-.41-.72,1.11.2,6.28.51H276l.39,2h.92l.6-1.07h0l.5-.9h.71l6-1.07,5-.72,1.08-.46,2.55,4.16,1.33,4.72-.58,2.56-2.11,2.39-2.73.38-2.17-.35L286,368l-.55-3.34,1.74-1.29,1.93-.26,2.18,1.34.7,1.73-.74,1.94-1.33.6-1.22-.85-.76-1.3.38-.76.57-.06-.12.81,1.35.9.61-.54.19-1.17-1.62-1.44-1.93.25-.95,1.13.7,2.68L288.3,370l2.17.18,2.15-.82,1.61-2.41-.12-2.84-1.55-2.58L289,359l-3.73,1-4.17,3.09.34,6.51,2.38,3.37,5.25,2,4.71-.11,3.17-1.71,3.82-5.36.26-.5h0l1.89-3.68.24-3.81-.11-.4h0l-.11-.46-.34-1.26h0l-.2-.79h0l-.6-1.21-.12-.24h0l-1.13-2.26,4.43.22.16-.72h0l.37-1.67L300.8,350l-1.73.4-1.7-2.87-.07-.73,0-.33h0l-.15-1.74-.36-1.35,0-.13h0l-.81-3.07Zm-34.16,12.59,1.4-1.58.86.36.4,1.85.79,2.1h0v0l-1,1.41-.16.47-7.41-.81-1.33-.5,0-.32-.2-.2,3-.79Zm28.68,3.61L285,354.09l-5.19,1.12-.65-.28-.19-1,1.72-3.27.7-2.85.12,0,.94.29.62,1.21,1.86.76,1.49.12,1.33,1.13ZM272.25,354l.17.5-5.08-.21-.71-.07.93-.65-.05-1.15.61-2.73,0-.55,3.05.33,4.79-.47-.15.75-.34,2.5Z"/><path class="cls-7" d="M307.13,393.24l2.22-3.08,3.37-2-3-.58-4.22-.94-2.87-1-2-2.49-1-2.75.19-3.58,3.22-2,3.14-1.12h0l1.84-.65,2.6-1.92,1.26-2.22.95-3,1.58-2.75,2-1.68.32.55-1.68,2a26,26,0,0,0-.38,2.81c.06.26.17,2.49.17,2.49l-.54,3.67-1.79,1.89L308.33,377l-2.43,1.15-.7.44.4,1.62,1.48,1,2,.63,5.93-1.07,5.4-1.22,4.81-.65,4,.64,2.45,1.06h0l1.51.66,2.07,2.11.47,3-.67,3.52h0l0,.19,2.71.32,3.09,1.49,3.25.72-.25-1.75-.2-.29h0L340,385.13l-5-9.24-2.34-6.83.22-9.29,1.68-5.58,2.62-2.55,3.64-2.09,1.57-.34,1.05-1.13,1.18-.41h0l1.65-.57,5.6-1.13,4.56-1.32,1.8.74h0l1.63.67,1.93.87.73,1.45-.49,1.3-.66-.12.74.44,1.79,1.18,2.23,1.89,1.78,2.2,1.05,2.05-.13.3-1.35-2.17-.87-1-.4,0,.37.93,1.07,2.92-.3.14-.87-2.36-1.34-2.38L363.47,352l-1.63-1.09-.71-.27-.12,1.14-1.11,1.36-2.82.88,1.38,4.55-.3,6.77-1.79,11.31-1.83,8.6-.77,3,1.38,7-1,6-2.86,2.7-3.4.34h0l-2.6.25-5.79-1.44-3.41-2-1.88-1-2.32.49-7.6,4-5.58,1.58-6.09-1.2L309,401.82l-1.95-4.94Z"/><path class="cls-7" d="M227.91,302h0l.08.59,0,0,1.17,7.07.12.36h0l.79,2.38,2.69,3,8.1.4,7.85,1.07,11.52-1.62,9.25-1,.17-1.06-1.91-1.42-9.3-1.41-9.34-.94-1.43-.47-.53-.88-.61-.19-.37.56L245,308l-.39-.89-.5-.2-.58.6-1.28-.42,0-1.08-.79-.22-.52.77-1.07-.45.11-1.23-.55-.24,1.46-.66,10-2,4.75.75,1.06.14-.7,1.34s.33,1.68.36,1.85a.13.13,0,0,1-.05.11l0,0a2,2,0,0,1-.38.21l.29,1.75h1l.43,1.44.74-.12.08-1.32h1.17l.26,1.42.67-.17.17-1.25h1.11l.13.72,1,.06,0-.84,1.06-.55.36,1.11.86-.09.05-1.68.81-.42-.88-2h0l-.05-.13,0-.36,3,.4,13.66.67,8.2-.06.48,1.25L292,307l3.87,1.05,4.28-.24.74.8.55.11,1,1.64.6-.1-.37-1.44,1.1-.32,1,1.33.72-.28-.33-1.46,1.11-.39,1.28,1.28.72-.35-.69-1.4,1-.35,1.15,1.2.56-.32-.62-1.26.1,0,0-1-.93-1.46-2.56-1-1.3-.87,2.9-.63-.15-.38,4.06-.19,2.35-.39.7,1.12,1.85.47,3.8.14,3.9-1.57,4.56-.37,3,.58L335,301l5.25-2.25,6.17-2.79,1.88-1.16-.05-.74h0l-.07-.94-.52-.37h0l-.68-.48.21-1-.11-1.71-.33,0-.74,2-.5-.19.19-1.18-.2-1.87-.51,0-.26,1.61-.44,1.34h-.67l-2.09-.21.17-2.36-.14-.49-.44.13-.42,1.34-.61,1.35-1.53,0-.73-.1.12-.84-.12-1.42-.48-.1-.64,1.72-.29.44-.52-.07-.91,0,.16-.65-.06-1.08-.39.06-.48,1.3-.16.34H334l-2,.27-.52,0,.1-.43-.18-1.07-.39.07-.24,1-.22.37-.53,0-1.73-.33.13-.61-.31-1.17-.45.08-.12,1-.21.54-.17,0-.16,0-1.86-.73-2.22-.5-1.85.07.21-.69-.22-1.81,1.58-.18,1,0,.24,1.14.34.29.43-.88,0-.5,1.65.07.76,0,.26,1.06.37.17.27-.85-.05-.42h.3l.94-.55.26.33.27.94.34,0,0-1.22-.11-.46,1.22-.71.6-.37.16.24.26.94.36.06.13-.95-.19-.73.92-.56h1l.14.41.17,1,.37.17.24-1-.07-.57h1.38l.9-.1.35.82.29,1.4.33.23.29-1v-1.39l-.12-.57.77-.62.35.57.16,1,.35.06.1-.42v-1.1l-.21-.65.71-.58.58,1.11.35.06,0-.93-.3-.75.86-.66.41,1,.32.18.25-.56,0-.65h.91l.16.6.2,1.19.41,0,.18-1,0-.83h.53l.17.66.23,1,.35.05.26-.91-.09-1.3,1.12-.81-.15-1.05h0l-.38-2.59h0l0-.2L346,273l-2.25-.1-.5,1.16L336.74,276l-7.24,1.82-1.49-.14-1.06-.83-1.05-.29-2.65,1.67-.95-.15-1.25-.1-1.32,1.37-2.33.56h0l-1.81.44-.43.6-1.31.18-.79-1.14-1.05.17-.5,1.31-3.14.45-1.66-.61-.18-1.32-.82-.44-1,1.05-.12-.05-.26-1.07-.95-.13-.21,1-.6-.09-.12-1-.89-.14-.68.9-.46-.06.05-1.12-.52,0-.56,1-.47-.06,0-1.17-.7-.05-.41,1.06-.29,0-.62.06-.35-1-.88-.08-.55,1.31-1.17.13-.61-1.18-1,.23-.12,1.14-1.33.14-.45-.91-.62.1-.19.94-.89.1-.42-.68-.5.15-.15.64-.75.08-1.22.3-.47-.65-.71.29-.08.66-2.95.72-.31-.66-.38.18,0,.64-.63.15-.39-.51-.43.19-.05.53-1.93.47-.27-.63-.55.2-.17.67-1.49.36L270.54,285l-.55-.64-.52.32v.66l-3.63,1.16-.9.12-.31-.79-.5.08-.15.84-6.73.93-.39-1-.67.11-.25,1-1.13.16-.49-1-.73.12-.21,1.08-2.92.55-.48-1.09-.6.16-.22,1.18-1.41.26-.7-1.17-.5.14-.3,1.32-.81.15-.32-1.06-.88.26-.19,1.06-1.93.37-.29-1-.8.08-.3,1.3-1.77.72-.68-.87-.57.38.07,1-1.81.74-.66-.8-1,.35.14,1.08-.84.34-.58-.8-.54.26.12.95-.93.37-.83-.42-.75.71.16.74-.89.81-.78-.55-.65.91.33.64-.84.76.52,3.92Zm10.3,3.47-.28-.12.68-.31Z"/><path class="cls-7" d="M231.25,374.22l0,1h0v.05l.23.37h0l.12.18-.17.58,0,0h0l.47,1,.23.41h0l.21.38h0l0,.07.83,1.61,2.28,2.74,2.49,2,3.64,2.17,2,2.19,2.23,3.12.3.94,1.42-.58,1.67-.89.29-.69.06-.15h0l.07-.17,1.3,2.94,1,.51.15.46,3.5,1.83,2.5.49-.28.34-1.61.12h-2.41l-.81.1-.67.66-.19,1.4-.28.77-.92.61.16.88.33.18.15-.9.45-.22-.25.59.17.95.34.48.15-1,.15-.83.91-.86.29-.65,1.57-.13,1.62-.58-.67.6-1.25.31-1.12.3-.49,1.73,0,.82.68.92v-1.2s.74-.41.73-.6a6.79,6.79,0,0,1,.4-1.09l1.5-.33,1.8-.77,1.14-1.26,1.13-.87,2.37.46,7.81.69,4.82-.9a3.26,3.26,0,0,0,0,.58c.07.19.5,2.76.5,2.76l-3.22,1.48-1.08,1.31-.79.67L267.86,406l-3.67,1.49-.78.8-.26-1.57-.46-.24-.1.45,0,2.47.14.56-.32.84-.07.5-.19,0-.61-1.51-.37-2.45-.37,0-.21,1.08,0,1.78.36,1.23-.79.09-.36-.72-.77-2.94-.38.08.18,2.53s.18.64.31,1.18h0l-5.36.86-.93-2.85-.5,0,0,.76.51,2.22-4.11.66-.74.38-1.14-2.64-.37.09.17.94.54,2-.77.4-.25-.52-1-2.35-.37.14.41,2,.39,1.16-.64.33-1.58-2.79-.44.2.6,2.07.4,1.06-.65.34-.06,0-.14-.22-1-2.49-.37.08-.09.89.28,2,.28.57-1.71,1.27-1.38,1.77.53.54L242,419.2l1.81-.44h0l2.38-.57,5.52-.89,6.8-.68,5.26.07,5.12,0,4.54-.14,7.3.49,8.81.54,13-1.54,3-1,1.53-1.15.68-3.26.21-3.12h0l0-.24-1.56-3.85-1.85-2.6-.06-.28-1.34-2.11-1.6-1.25-2.76-2.8.11-.19.49-1,.1-1.58-.2-.1-.31.57-.49,1-.47.5-.82-.83.34-.45.46-1.09.28-1.47-.17-.21-.35.61-.46,1-.74.92-.87-.89.39-.45.43-1.64.1-1.93-.19-.12-.35,1.29-.48,1.41-.49.81-.57-.62.31-.66.43-1.73.2-2-.23,0-.38,1.19-.43,1.66-.45.92-.44-.48.2-.25s.2-1.09.23-1.18.3-1.82.3-1.82l.1-1.14-.19-.12-.16.7s-.36,1.73-.36,1.82-.4,1-.61,1.45l-.71-.77.32-.47.29-1.19.42-2.55-.19-.11-.26.67-.55,1.83-.61,1.18-.82-.9.64-1,.77-2.69-.15-.34-.74,1.74-1,1.74-1-1.13.65-1,.77-1.84-.14-.25-.51.44a9.92,9.92,0,0,0-.81,1,6.43,6.43,0,0,1-.68.88l-.86-.95.31-.6.68-1,.6-.72-.11-.22-.43.12-.87.51-.9,1.14-.47-.53.19-.9.44-1.45.58-1.16-.16-.12-.61.47-.8,1.27-.48,1.14-1.22-.28-.07-1.47.18-1.75.08-.92-.2-.22-.6.79-.65,2.24-.13,1-1.31-.31V377.7l.48-1.92-.19-.11-.77,1.23-.51,1.29-.28,1.15-1.13-.26-.61-.12-.12-1.87.21-2.42-.19-.08-.38.74-.66,2.28-.08,1.12-.57-.11-.06-.79,0-2.28.34-2.1-.22,0-.2.36s-.63,1.45-.66,1.55-.34,1.66-.34,1.66l-.13,1.37-.51-.1-.06-.77,0-1.36,0-1.39-.19-.08-.41.71-.4,1.6-.09,1.07-.7-.14-.27-1.2-.17-2.33.14-1.78-.25-.05-.49,1.1c-.06.12-.42,1.82-.45,1.94s-.06,1.45-.08,2l-1.46-.28-.09-.71-.09-1.86.26-2.07-.17-.15-.58,1-.61,1.87-.28,1.9h-1.07l-.16-.85-.22-2.11.05-1.75-.26-.08-.22.74-.41,2,0,2h-.91l-.45-2.41-.28,0-.36,1.12-.17,1.27h-1.69V376l.28-2.2-.13-.15-.46.34s-.84,1.71-.84,1.84-.21,1-.33,1.44h-.61l-1.13-.11,0-.5-.12-1.32.13-2.06-.23-.06-.58,1.14-.55,1.8-.24.83-1.29-.13,0-.48-.18-1.79.4-1.63-.19-.09-.81.93-.74,1.93-.31.94-.52-.06v-.72l.05-1.74.36-1.69-.22-.09-.8,1.18-.79,1.52-.42,1.35-.55-.05v-.94l.18-1.59.61-1.77-.25-.05s-.88,1.53-.91,1.62-.54,1.32-.54,1.32l-.25.93-.34-.16.13-.46.22-1.43.54-1.42-.23-.11-.91.8-.72,1-.46.9-.56-.32.12-.35.07-1.21.35-1.28.72-1.55-.26-.05L248,371.36s-.92,1.12-.95,1.22-.31.81-.47,1.2l-.37-.21-.05,0,.2-.88.28-1.49.53-.85-.08-.25-.34.17-.63.7-.72.88-.45,1.31-.24-.09-.08-.08,0,0,.09-.8.29-1.25.52-1.16-.23,0-.75.79-.6.76-.22.92-.38-.32.23-1.22.46-.91-.22,0-.75.85s-.34.53-.5.81l-1.16-.45-1.36-.63h-1.33l-1,.68-.42.53-1.94.47-2.37.67-1.37.51Zm41.66,32.44.81,0-.26.27-.91.8-1.77,2.68,0,.19-2.7.12,1.85-1.67,3-2Zm5.71,4h-.77l-.05-.21-.34-1.81-.23-2.4-.22,0,.21-.36.55-.14,1.75-.53,1.07-1.56.63-1.36,1.17-.81.62-1.61V398.3l1.55.88,2.56.76,1.2-.18.41-.73,1.77.7,4.26,4.07,2.41,2.83-.11,1.91-.46.52-.18.06-.3-.54-.58-1.62-.39-1.56h-.32l-.13,1.15.33,1.88.26,1-.78.23-.71-2-.4-1.94-.38.08-.08,1.08.15,1.83.3,1.2-1,.19-.17-.4-.45-1.56-.2-1.77-.44,0-.16.83.1,2.09s.1.55.17,1l-.81.15h-.07l-.58-1.74-.28-1.95-.38,0-.09.76,0,2,.2,1-4.71,0-.55,0-.38-1-.42-2.2-.38-.11-.15,1s0,1.7,0,1.89,0,.3.07.55l-2.88.1-.08-.26-.53-1.94-.26-1.63-.33-.18s-.09.7-.15.9.09,1.95,0,2.15A4.21,4.21,0,0,0,278.62,410.64Zm-2-1.36c0,.12.06.83.1,1.33l-1,0-.08-.45-.39-1.81v-.52l1.47-1.14-.08.52S276.6,409.09,276.61,409.28Zm-2.33.29c0,.11,0,.57,0,1l-1.5,0,.12-.4,1.5-1.5C274.33,409.1,274.28,409.5,274.28,409.57Zm-10.14.81c0-.32.09-.67.09-.67l1.07-1.44.55-.17v1.22l0,.38-.38.34-.1.89-1,.13Zm2.39-2.49,2.76-.87.12,0-.48.32L266.74,409l-.09-.31Z"/><path class="cls-8" d="M297.81,264.14l23.38,1.95,7.32,7.89,10.91,1.19,3.86-1.14.5-1.16,2.25.1,1.13,1.73,0,.2h0l.17,1.14,2.58.29,13.64,14.13,11.7,36.05,4.38,26.8-4.38,5.36a76.47,76.47,0,0,1,1.46,7.79c0,1.47.49,10.72-2.93,14.13-1.95,2-11.57,11.42-19.44,19.16l-.26,1.48-2.86,2.71-1.28.13-6.36,6.25-18,7.31-3.9-3.9-5.36,5.84-12.18,1L260.77,422,252,417.28l-.28,0-5.52.89-2.38.57h0l-1.81.44-2.28,1.43-.53-.54,1.38-1.77,1.71-1.27-.28-.57-.28-2,.09-.89.37-.08,1,2.49.14.22.06,0,.65-.34-.4-1.06-.6-2.07.29-.14-2.48-1.33-9.26-25.82-8.28-8.29,3.41-9.25-8.77-8.77L214,332.85l6.22-27.92,7.34-5.61-.17-1.28.84-.76-.33-.64.65-.91.78.55.89-.81-.16-.74.75-.71.83.42.93-.37-.12-.95.54-.26.58.8.84-.34-.14-1.08,1-.35.31.37,4.2-7.65,24.37-10.23,17.05-8.77L282.7,268l15.11-3.9M245,415.35l.64-.33-.39-1.16,0-.2-1.67-.89,1.46,2.58m1.46-.76.24-.12-.41-.23.17.35m51.33-154a3.64,3.64,0,0,0-.87.11L284.36,264l-.11-.19a3.52,3.52,0,0,0-3-1.71,3.57,3.57,0,0,0-1.61.39l-16.93,8.71-24.24,10.18a3.49,3.49,0,0,0-1.71,1.55l-3.23,5.87-.35.11a3.4,3.4,0,0,0-1,.55,3.35,3.35,0,0,0-.69.25l-.54.26a3.5,3.5,0,0,0-.91.65,3.44,3.44,0,0,0-1.58.85l-.75.7a1.81,1.81,0,0,0-.24.24,3.56,3.56,0,0,0-1.73,1.28l-.66.91a28.74,28.74,0,0,0-1.14,3.11l-5.81,4.45a3.46,3.46,0,0,0-1.29,2l-6.23,27.91a3.44,3.44,0,0,0,0,1.28l3.89,26.31a3.51,3.51,0,0,0,1,2l7.19,7.18L220,376a3.52,3.52,0,0,0,.81,3.7l7.73,7.72,9,25.09a3.52,3.52,0,0,0,.75,1.21l-.05.51a3.29,3.29,0,0,0,0,.83l.08.58a3.51,3.51,0,0,0-.54.55l-1.37,1.77a3.5,3.5,0,0,0,.25,4.6l.53.55a3.5,3.5,0,0,0,4.39.53l1.79-1.13,1.19-.29h.06l2.25-.55,4.47-.71,7.8,4.19a3.61,3.61,0,0,0,1.66.41h.12l43.37-1.46h.16l12.18-1a3.59,3.59,0,0,0,2.31-1.13l2.88-3.15,1.3,1.31a3.54,3.54,0,0,0,2.49,1,3.61,3.61,0,0,0,1.32-.26l18-7.31a3.58,3.58,0,0,0,1.14-.75l5.48-5.38h.05a3.5,3.5,0,0,0,2.07-.94l2.85-2.71a3.48,3.48,0,0,0,1.05-1.94l.06-.38C365.28,394,374.4,385,376.3,383.08c3.75-3.75,4.05-11,4-16.17,0-.19,0-.34,0-.45a46.65,46.65,0,0,0-1.17-6.89l3.3-4a3.51,3.51,0,0,0,.75-2.79l-4.39-26.8a4.7,4.7,0,0,0-.12-.51l-11.7-36.06a3.39,3.39,0,0,0-.81-1.35l-13.64-14.13a3.53,3.53,0,0,0-2.15-1.06l-.19,0,0,0L349,271a3.48,3.48,0,0,0-2.8-1.58l-2.24-.1h-.15a3.51,3.51,0,0,0-3,1.76l-1.64.48-8.91-1-6.42-6.93a3.57,3.57,0,0,0-2.29-1.11l-23.38-1.95Z"/><polygon class="cls-9" points="66.43 119.61 106.54 105.69 120.67 116.69 131.75 114.36 155.56 120.75 187.17 136.52 196.5 175.6 189.5 177.93 191.83 182.01 195.91 191.35 195.22 222.2 174.92 254.92 138.75 279.42 129.42 273.59 120.09 282.92 85.09 283.5 44.6 279.03 29.68 260.75 26.77 241.51 16.85 232.76 12.19 198.93 11.6 158.69 33.77 144.1 35.52 132.44 66.43 119.61"/><path class="cls-10" d="M115.22,127.72h0l-.67.2-.53.75-1,.1-3.15-.18h0l-.56,0-2.66.11-2,1.69-3.61,1.28-2.54.31-1.07-2.22-.62-.06L96.41,132l-.32,3.29-.85,2.44.22,3.51.41,2.56h0l.34,2.1.32,2.76.85,1,2,1,.85.85v1.17l-2.55.42-3.39-.1-2.44-.64-.53-1.7-1.17-.42-.21-1.17-.64-.32-.21-1.06a12.41,12.41,0,0,0-.21-1.38l-.43-1.23c-.19-.57-.43-1.26-.66-1.91l-.5,2.4-.64,3.82.85,1.49,1.7.63,1.27,1v1.38l-.78.23h0l-.17.06-1.49.45-3.61-.21-3.18-.43L80.85,152h0l-.14-.66-.22-.5h0l-.21-.46.32-.85-.42-1.27-.32-1.07-.74-.32-.43-.63.32-.85-.74-1.38-.53-5.31v-3L73.81,138l-4.56-.64-4.14-.52-2.65,1.48-1.7-.27-1.06,3L58,144.16l-1.38,2.65.21,1.8,2,1.28,1.48,1,.54,1.17-1.49.53H56.23l.6,2-1.16.22-.13,0h0l-.41,0c-.76-.06-2.07-.14-2.22.16H48l-1.81-.74-1.69-2.76-1.28-6.26-2.44-4.67-.42-8.06.21-9.13,7-7.85,6.9-5.52,3.08-.42,10.71.85,8-.53,9-2,2.86-.1,6.9,3.71,4.25,1.17,3.07-.32,3.82.74.23.18.78-.34.8,0,.85.64.37,1-.1.76.26.2L112,118l1.09,2.64h0l.39,1,3.08,2.86.1,0h0l.75.29.11,1.06-1.59,1.7Z"/><polygon class="cls-10" points="92.85 213.14 99.77 212.77 106.06 212.32 109.86 211.71 109.79 211.41 111.61 209.86 112.25 207.4 115.8 196.29 118.08 193.37 125.73 190.46 128.56 190 133.29 191.37 136.48 192.74 137.94 192.37 140.94 191.09 141.85 190.55 143.85 190.82 147.41 191.46 148.29 191.97 148.29 191.97 150.69 193.37 150.76 193.47 150.76 193.47 151.23 194.1 151.42 195.1 151.41 195.13 151.41 195.13 150.32 197.65 149.78 198.02 149.77 198.04 149.77 198.04 149.7 198.21 149.41 198.93 148.01 199.47 148.01 199.47 147.31 199.75 144.95 201.21 144.4 203.74 144.4 203.74 144.4 203.75 143.74 206.41 145.59 207.31 146.86 207.94 147.5 210.04 148.32 211.5 148.14 212.23 147.05 212.04 145.68 210.77 145.22 209.49 142.8 208.87 142.12 210.31 142.31 213.86 142.58 214.96 144.4 215.23 144.49 215.96 143.49 216.87 140.99 216.63 140.99 216.63 139.66 216.51 139.21 216.14 139.49 215.23 137.66 212.59 137.03 211.63 137.03 211.64 136.75 211.22 135.93 211.31 134.57 211.04 132.74 213.23 130.19 214.5 126.7 215.09 127.92 215.14 129.56 215.87 128.96 217.05 128.96 217.06 128.92 217.14 127.19 217.69 122.9 217.24 118.93 216.97 118.93 216.97 117.35 216.87 116.71 216.32 116.81 215.94 116.62 215.96 114.16 215.78 111.34 215.69 111.28 215.6 109.97 216.42 103.87 218.33 96.77 218.78 90.57 216.96 89.66 215.78 90.48 213.78 92.85 213.14"/><path class="cls-10" d="M50.38,177.67l-.76-.43h0l-.49-.29-.26-1.51.27-.17h0l2.62-1.61.59-.85,1.24-2.56.33-.2-.65-.4-.07-.92.86-.78,1.12,1.35.39-.24,1.08-.38.17-1.52,1-.73,1.19.86.34,1.31,2.22.46,3.35-.26,4.8-1.58L74,165.05l2.89-.39,5.78,1,8.81,4.48,3.09,3.21.33,1,2.56,2.36.92.66h0l.48.35,2,1.46,0,0h0l.63.45.84.39h0l.15.07,1.61.74h0l1.34.61,2.37,1.09,4.2,1.77,2.15,1.48h0l.81.56,1.51,2-.19,3.28-1,.79-4,.14-7.36-3.16-4.93-3.48-.18-.16h0l-1.59-1.44-.83-.74h0l0,0-1.36-2a5.14,5.14,0,0,0-.09.79c.06.2-3.68,4.47-3.68,4.47L89,188.06l1.45,1.31.45,1.58-1.57,1L86,193.24h0l-.52.2-1.18.32-.46.66H82l-1.4,0h0l-1.43,0,.13-.92,1.65-.73L84,192l2.62-1.51-.52-.33-1.39-.95-1.83,1.28-1.78,1.38-1,.33-.26.85-3.49.4-.26-.66,1-1.32,2.63-1,1.77-2.43-1.77-1.12-1.71-1.31-.24-.79-1,.39-5.19,1-1.9-.27-.73.66L66.54,189l-1,2.56h0l-.18.47L65,193.64l-.85.4-.4.66-3.61.19v-.59l1-.85,1.51-.66.53-.86.06-1.77-.24-2.56-3.31,1.57-.39.79,1,1.45-.26.59L59,191.87l-1.58-1.64-.13-1.32,1.18-1,.15-.13h0l2.27-2,.78-1.25-.84-1.32-1.78-3.09-2.23-1.84L55.53,178h0l-.69-.14Z"/><path class="cls-10" d="M101,229.87l-1.72,5.85,1.72,2,1.29-.94.56,5.79,1.43,7.72.57,4.42-.85,2-1.57,2-1,1.15.14,1.71L103,268l2,10.14-.29,2.57.86.57.71-.43.86.72.28,1.57,5.29.71,1-.28-.14-.86-2.17-1.78h0l-1-.8-1.14-2.29-1.71-2.43-1-11.28,2-3.57,1.25-2.75h0l0-.08.14,1-.15,3.86-.71,3,2.57,1.57,2.71,2.71,6.29,10.43.13.45h0l.44,1.55,1.14.86.65-.29h0l.64-.28,1.71,2v1.14l5.57.14-2.57-2.57-1.28-.57-.15-1-1.42-.86-2.86-4.28-5.14-9.86-.43-3.28.85-3.29,1.39-2.76h0l.62-1.24,1.15-5.14,1.14-1.29,3.71-1.28,5.29,1.86,7.85.57,7.43.14,2.72-.71.72.06-1,8.93v4.15l.57,1.71-.28,3.86-.57,6.28-.42,1.46h0l-.16.54-.85,2.72.71.14.86-.14.57,1.14-.29,2.43.43,1,6.43-.15a4.39,4.39,0,0,0-.79-1.21l0,0,.52-.62h.86l1.86,3.28.43.86,4.85-.14.86-.43-2.43-2.57-.43-.86-1.85-1.14-1.29-1.29-.29-2.43.58-8.57.28-1.86.57-1.57-.14-1.71.05-.57h0l.24-2.86L161,255l-.29-2.86,1.58-1.14,1.71-2.29.57-3.43,3.71-2.28,2.58-2.86,3-3.14.15,3.57,1.71,2.72,1.14,2,.57-1.28,1.43-1.14.29-4,1.43-2.43,2.14-1,1.29.71,2,1.86,1.28.14.74-.53h0l.23-.16h1.15l2.15.43.71-.86.14-2.28v-2.29l-3.14-4.57-2.71-2.72.14-1.42-1-1.58-4.48-3.39-.63-2.75,2.26-1.71,4-.43,1.89-1h0l2.72-1.39,4.28-4.28.58-1h0l.92-1.52.54-1.92-1-.11-1.18,2.68-.64-.11L195,202l-.54.53-1.39,3.86-2.68,2.79-2.36.53v-1.28l1.4-3,.1-1.72-.85.32-1.4,2.57-2.78,2-1.5-.21-.21-3.75.75-3.11-.43-1.5-.86.54-1.4,6.42-.53,3-1.07-.32-1.07-4-1.4-7.82,1.08-3,.85-1.72-1.18-.32-1.92,3-1.07,4.18.1,1.07h-.86l-1.17-2.89s-.43-2.57-.43-2.89-.75-.32-.75-.32l-.54,3.1-.43.75-1.17-1-.64-3.22-.54-.53-1.07,1.18v3.21l-1.29-1-1.18-2.47-.43.54.75,2.46-.53.75-.75-.64-.32-2.25-.65.32-.42,2.46-1.29.43a4.1,4.1,0,0,1-.86-1,12.46,12.46,0,0,1,0-2l.54-1.39-.86-.21-1,2.67-.27,1.9h0l-.48,3.46,3.21,4.82,4.29,3.11,2.88,1.95-.53,2.34,2.4,2.1-7.08-.35-7.28-.43-3.28,1.14L148,220.44l-14.43,1.14-9.57-.14-3.71-1.57-5-.71L107.11,224l-3.47,3.31h0Zm54.42,49.56a15.48,15.48,0,0,0-.6,3.32l-.13-.15-.21-.24,0-.06-.06-.06h0c-.71-.81-1.38-1.52-1.38-1.52l-.86-2.14L151,276.86l1-4.28,1.43-6,.5-2.24.93,2.52.57,5.15Z"/><polygon class="cls-10" points="132.55 172.12 132.08 173.26 130.84 174.03 128.88 173.36 128.31 169.83 131.17 165.78 134.79 164.64 136.78 165.25 136.78 165.24 137.46 165.45 139.51 168.69 139.75 170.6 139.22 172.79 138.97 173.09 139.6 172.98 140.46 172.83 141.1 172.2 141.1 172.2 141.13 172.17 142.46 171.45 142.84 170.36 143.56 169.12 144.29 168.64 144.18 168.35 144.21 167.32 144.34 166.54 144.86 166.51 145.63 167.21 146.03 166.64 146.39 166.7 146.71 167.19 146.55 167.97 146.47 168.71 148.32 169.74 148.79 170.7 148.79 170.7 149.3 171.74 149.3 171.74 149.32 171.79 149.42 172.17 149.46 172.24 149.46 172.24 149.66 172.6 148.94 173.98 148.94 173.98 148.94 173.98 148.65 174.09 148.65 174.09 148.56 174.12 148.37 174.5 147.94 174.46 146.85 174.41 146.18 174.98 146.37 175.74 147.18 176.17 148.18 175.5 148.94 174.6 149.37 174.55 149.37 174.79 149.66 174.74 149.94 174.98 149.75 175.65 149.56 176.41 148.94 176.65 148.7 176.98 148.04 177.84 145.65 179.12 144.89 179.07 144.89 179.14 144.89 179.14 144.7 181.5 143.79 182.98 143.56 183.6 143.03 184.36 143.56 184.28 143.56 184.28 143.89 184.22 145.37 184.22 145.94 184.36 146.18 185.22 145.85 185.41 145.75 185.75 145.63 185.75 143.99 185.75 141.08 185.6 139.27 185.56 139.09 185.09 138.7 185.22 136.84 185.32 135.79 184.79 135.75 184.67 135.17 185.08 134.12 184.98 132.93 183.03 132.16 181.02 132.16 181.02 131.55 179.46 132.27 176.69 133.36 174.07 133.17 172.36 132.55 172.12"/><polygon class="cls-10" points="195.13 132.19 193.33 133.99 192.31 134.55 191.67 135.56 190.84 135.28 189.36 134.55 188.9 133.81 187.79 132.7 185.86 132.06 185.48 131.91 185.48 131.91 184.74 131.63 184.74 131.63 183.56 131.18 183.56 131.18 182.72 130.86 182.6 130.73 182.6 130.72 181.63 129.68 181.63 129.68 181.56 129.59 181.05 129.05 181.05 129.04 180.6 128.55 178.94 132.06 177.92 133.85 177.92 133.85 177.12 135.25 175.25 138.51 172 142.71 172 142.71 171.75 143.03 169.53 144.16 169.53 144.16 167.6 145.15 167.53 145.32 167.53 145.32 167.03 146.54 167.03 146.54 166.09 148.81 166.1 148.81 165.47 150.32 164.54 151.69 164.54 151.69 164.09 152.35 163.76 152.57 163.2 155.97 162.37 160.63 162.74 162.94 161.88 165.44 161.14 166.27 160.4 171.44 160.13 175.4 160.31 177.06 161.97 178.72 162.71 179.46 162.99 180.57 161.24 181.21 159.89 181.07 161.05 182.32 161.14 183.89 159.48 184.07 156.53 183.15 156.44 181.4 156.39 181.31 156.39 181.31 155.52 179.92 154.59 179.28 155.24 176.05 155.52 166.64 155.06 165.72 155.06 163.05 155.06 162.39 155.06 160.8 155.06 160.3 155.06 159.45 154.81 157.66 154.81 157.66 154.79 157.5 154.41 154.65 153.76 153.55 152.19 153.27 151.26 153.72 151.17 153.76 151.12 153.78 149.05 154.78 149.06 154.78 148.42 155.09 148.42 155.09 147.03 155.76 145.71 155.93 145.71 155.93 144.32 156.11 144.32 156.11 140.58 156.59 139.83 156.54 139.83 156.54 138.06 156.42 135.83 156.27 135.83 156.27 134.85 156.21 130.89 155.94 130.65 155.83 128.77 158.43 125.82 161.66 123.88 163.04 122.22 164.98 121.76 168.58 123.33 174.94 123.98 177.52 126.37 178.54 127.48 180.66 127.57 181.4 125.27 181.58 122.96 181.4 122.22 179.46 122.22 178.91 120.75 178.17 120.38 176.23 120.1 171.99 119.31 169.01 119 169.78 118.9 175.96 120.56 180.29 121.21 181.21 122.5 182.23 123.15 184.16 121.02 184.81 118.44 184.07 118.08 182.87 117.61 181.58 116.41 181.03 115.95 177.52 114.11 168.85 113.83 167.38 114.57 166.18 115.21 164.47 115.21 164.47 115.25 164.36 115.95 162.49 115.86 160.01 115.86 160.01 115.85 159.8 115.77 157.6 113.47 154.1 111.6 149.44 111.6 149.43 111.44 149.03 111.44 154.19 110.6 159.26 109.58 164.15 109.77 164.24 110.24 166.27 109.13 169.78 107.47 172.08 105.53 173.28 104.61 172.91 105.62 172.08 106.82 170.05 107.01 167.66 107.28 164.79 108.21 163.5 108.82 163.79 110.05 157.88 109.77 149.21 110.33 142.94 110.42 142.66 110.42 142.66 110.67 141.84 110.8 141.42 110.8 141.42 112.26 136.67 118.35 131.41 119.17 131.05 119.18 131.05 123 129.4 123 129.39 123.24 129.29 129.78 130.31 131.75 130.36 131.75 130.36 133.72 130.42 133.73 130.42 135.54 130.47 135.54 130.47 136.53 130.5 136.53 130.5 142.42 130.68 145.15 130.25 145.15 130.25 146.39 130.06 146.39 130.06 147.14 129.94 147.14 129.94 148.46 129.74 148.46 129.74 149.94 129.51 149.94 129.51 151 129.35 151 129.35 151.37 129.29 151.73 129.09 150.81 127.72 151.2 127.5 151.2 127.5 152.17 126.94 152.17 126.94 152.57 126.71 152.96 126.35 152.96 126.35 154.4 125.03 154.4 125.02 154.78 124.68 156.06 123.57 156.06 123.57 156.91 122.83 156.91 122.83 157.54 122.28 160.17 120.51 160.92 120 160.92 120 162.86 118.69 162.86 118.69 164.09 117.86 165.91 116.5 165.91 116.5 167.45 115.36 169.16 114.07 172.64 113.38 173.48 113.21 173.48 113.21 174.24 113.06 174.82 112.98 175.86 112.83 175.86 112.83 180.69 112.14 185.86 114.07 190.84 117.39 189.92 117.95 188.48 119.12 188.9 119.88 190.01 122.19 190.65 123.48 191.67 125.05 193.85 128.35 193.85 128.35 195.08 130.21 195.26 132.06 195.13 132.19 195.13 132.19"/><polygon class="cls-10" points="3.51 143.05 4.85 141.19 8.37 138.53 11.79 136.62 14.18 135.67 15.7 133.29 16.94 132.34 18.75 132.42 18.84 129.49 18.84 128.15 18.84 127.77 17.98 127.11 18.36 126.44 21.89 126.34 21.98 127.11 21.22 127.49 21.39 131.79 21.79 131.68 22.84 130.06 23.93 128.05 23.93 128.05 23.98 127.96 23.5 127.2 23.6 126.53 25.79 126.44 27.5 127.96 26.84 128.82 26.07 128.72 25.95 128.96 25.95 128.96 24.45 131.86 24.64 133.06 26.76 134.53 28.93 133.01 30.93 132.15 31.69 132.63 31.21 135.29 29.13 136.92 30.36 138.34 31.93 143.48 36.21 155.9 39.21 166.47 42.92 177.03 45.49 181.17 47.92 183.17 48.94 184.59 51.2 185.6 53.06 191.46 55.34 195.88 58.63 197.88 67.34 203.59 74.19 207.16 79.48 208.73 84.9 212.87 85.04 214.24 85.57 215.63 86.71 220.87 86.9 230.01 86.14 237.62 85.38 245.14 85.66 250 85.76 250.38 86.9 250.66 87.76 252.95 89 257.71 89.47 262.18 88.52 268.56 87 270.56 87.57 267.99 87.47 262.85 86.24 258.75 85.28 255.04 84.71 251.71 85.14 250.79 84.33 247.43 84.43 242 85.19 235.15 85.76 229.44 85.33 225.91 84.62 233.29 81.62 244.14 81.48 255.28 83.05 259.7 81.84 265.06 81.84 265.06 81.76 265.42 81.19 273.13 81.33 278.84 81.33 282.7 79.9 283.7 80.62 286.84 79.76 288.26 76.05 287.84 73.05 287.41 73.88 284.37 73.88 284.37 73.91 284.27 75.48 281.84 76.05 279.98 77.05 271.42 77.62 263.56 76.19 259.99 75.88 257.77 75.29 259.8 72.72 265.42 69.96 273.23 69.48 277.61 70.24 279.89 69.67 280.75 68.91 282.17 68.91 282.97 68.91 284.27 67.29 284.75 63.96 284.75 62.91 283.98 64.25 281.03 65.29 279.7 66.34 274.65 69.39 261.71 70.05 258.47 68.72 254.28 65.96 246.67 64.91 239.32 63.63 239.72 53.92 237.43 50.06 234.58 48.35 239.72 46.92 251.43 47.49 255.28 46.35 256.85 46.78 264.13 47.78 275.42 49.06 279.27 48.06 280.98 47.14 281.49 47.14 281.49 46.49 281.84 47.05 283.76 47.06 283.76 47.2 284.27 47.2 285.41 45.78 285.98 42.07 286.55 39.21 285.84 39.49 283.84 39.52 283.79 37.88 283.79 37.31 283.22 37.67 280.89 37.67 280.89 37.78 280.18 38.64 277.7 39.88 275.89 39.69 274.65 39.69 263.42 39.31 257.14 38.64 255.24 37.69 253.42 37.88 252 38.07 249.81 37.88 246.76 37.21 241.15 34.64 234.58 33.97 228.1 33.46 221.8 32.07 220.01 30.5 212.16 31.5 205.02 31.36 193.45 28.07 181.74 25.07 171.04 24.66 165.15 24.66 165.05 24.59 164.06 24.22 158.75 22.08 148.05 19.36 145.48 17.65 146.05 13.79 146.05 11.22 145.76 5.94 146.48 4.66 146.62 4.45 145.94 4.36 145.65 4.36 145.64 4.23 145.19 3.51 143.05"/><path class="cls-11" d="M106.54,105.69l14.13,11,11.09-2.33,23.81,6.39L158,122l2.16-1.46.75-.51h0l1.94-1.31h0l1.23-.83,1.83-1.36h0l1.54-1.15,1.71-1.28,3.48-.69.84-.17h0l.76-.15.58-.08,1-.15h0l4.83-.69,5.17,1.93,5,3.32-.92.56-1.44,1.17.42.76,1.11,2.31.64,1.29,1,1.57,2.18,3.3h0l1.23,1.85.18,1.85-.13.13h0l-1.8,1.8-1,.56-.64,1-.83-.27-1.48-.74-.46-.74-1.11-1.11-1.93-.64-.38-.15h0l-.74-.28h0l-1.18-.45h0l-.85-.32-.12-.13h0l-1-1h0l-.07-.08-.51-.55h0l-.45-.49-1.66,3.51-.16.28,8.39,4.18,9.33,39.08-7,2.33,2.33,4.08,4.08,9.34-.31,14,1.14-2.59,1,.11-.54,1.92-.92,1.52h0l-.58,1-.11.11-.34,14.86-4.68,7.55,1.84,2.69v2.29l-.14,2.28-.71.86-2.15-.43h-1.15l-.23.16h0l-.74.53L186,238l-.35-.32-10.69,17.23-15.3,10.36,0,.58-.57,1.57-.28,1.86-.58,8.57.29,2.43,1.29,1.29,1.85,1.14.43.86,2.43,2.57-.86.43-4.85.14-.43-.86-1.86-3.28h-.86l-.52.62,0,0a4.39,4.39,0,0,1,.79,1.21l-6.43.15-.43-1,.29-2.43-.57-1.14-.86.14-.71-.14.85-2.72.16-.54h0l.42-1.46.25-2.76-10.17,6.89-9.34-5.83-5.24,5.24,1.36,2,1.42.86.15,1,1.28.57,2.57,2.57-5.57-.14v-1.14l-1.71-2-.64.28h0l-.65.29-1.14-.86-.12-.41-1,1-6.5.11.09.55-1,.28-5.29-.71v0l-22.29.37L80.85,283l-.95.67.72,3.14-.86,1.42-3.71-.42-3-.43.83-3,0-.1,1.21-1.87-6-.66-.23.43v2.1l-1.62.47H64L62.91,284l1.26-2.79-15.25-1.68L48.06,281l-.92.51h0l-.65.35.57,1.92h0l.14.51v1.14l-1.42.57-3.71.57-2.86-.71.29-2,0,0H37.88l-.57-.57.36-2.33h0l.11-.71.86-2.48,1.24-1.81-.19-1.24V273l-10-12.25-2.91-19.25-9.92-8.75-4.66-33.83-.59-40.25,11.14-7.32-.66-3.31-2.72-2.57-1.71.57H13.79l-2.57-.29-5.28.72-1.28.14-.21-.68-.09-.3h0l-.13-.45-.72-2.14,1.34-1.86,3.52-2.66,3.43-1.91,2.38-1,1.52-2.38,1.24-.95,1.81.08.09-2.93v-1.72l-.86-.66.38-.67,3.53-.1.09.77-.76.38.17,4.3.4-.12,1.05-1.61,1.09-2h0L24,128l-.47-.76.09-.66,2.19-.1L27.5,128l-.66.86-.77-.1L26,129h0l-1.49,2.9.19,1.19,2.11,1.48L28.93,133l2-.86.76.48-.48,2.66-2.08,1.63,1.23,1.42,1.57,5.14.51,1.49,1.33-.87,1.75-11.66,4.91-2,.17-7.15,7-7.85,6.9-5.52,3.08-.42,10.71.85,8-.53,9-2,2.86-.1,5,2.68,13.41-4.65m48.25,177.06a15.48,15.48,0,0,1,.6-3.32V272l-.4-3.59-2.43,1.65-.6,2.51-1,4.28,1.14,1.72.86,2.14s.67.71,1.38,1.52h0l.06.06,0,.06.21.24.13.15M106.54,102.18a3.48,3.48,0,0,0-1.15.2l-12,4.14-3.64-2a3.57,3.57,0,0,0-1.67-.42H88l-2.86.1a4.66,4.66,0,0,0-.64.08l-8.75,2-7.44.5L57.85,106h-.28a3.87,3.87,0,0,0-.48,0L54,106.4a3.47,3.47,0,0,0-1.71.74l-6.9,5.52a3.28,3.28,0,0,0-.43.4l-7,7.86a3.48,3.48,0,0,0-.89,2.25L37,128l-2.8,1.16a3.81,3.81,0,0,0-.71.4l-.67-.42a3.48,3.48,0,0,0-1.84-.53,3.53,3.53,0,0,0-1.11-3.3l-1.72-1.53a3.5,3.5,0,0,0-2.33-.88h-.15l-2.19.1a1.84,1.84,0,0,0-.33,0,3.36,3.36,0,0,0-1.23-.23h-.1l-3.52.1a3.5,3.5,0,0,0-3,1.77l-.38.66a3.52,3.52,0,0,0,.29,3.92,2.87,2.87,0,0,0-.43.28l-1.23.95a3.65,3.65,0,0,0-.82.89l-.92,1.43-1.33.53-.4.19-3.43,1.91a3.62,3.62,0,0,0-.41.27l-3.52,2.66a3.46,3.46,0,0,0-.73.75L.66,141a3.49,3.49,0,0,0-.48,3.16l.7,2.09.09.31,0,.11.09.28.2.68a3.51,3.51,0,0,0,3.36,2.5,2.68,2.68,0,0,0,.4,0L6.33,150h.08l4.86-.66,2.14.24.38,0h3.86a3.66,3.66,0,0,0,.81-.09l.32.29-9.11,6a3.52,3.52,0,0,0-1.58,3L8.68,199a3.11,3.11,0,0,0,0,.43l4.66,33.83a3.53,3.53,0,0,0,1.16,2.15l9,7.91,2.72,18A3.68,3.68,0,0,0,27,263l9.22,11.28v.39a2.68,2.68,0,0,0,0,.4l-.46.67a3.41,3.41,0,0,0-.42.83L34.46,279a5.84,5.84,0,0,0-.15.6l-.09.59s0,.09,0,.13l-.36,2.33a3.48,3.48,0,0,0,1,3l.57.57a3.9,3.9,0,0,0,.38.33,3.54,3.54,0,0,0,2.58,2.64l2.86.71a3.47,3.47,0,0,0,.85.1,3.23,3.23,0,0,0,.53,0l3.71-.57a3.46,3.46,0,0,0,.78-.21l1.43-.57a3.54,3.54,0,0,0,2.2-3.26v-1.14a3.7,3.7,0,0,0-.11-.87l.14-.15,8.66.95a3.52,3.52,0,0,0,1.43,2.62l1,.76a3.49,3.49,0,0,0,2.07.68h3.33a3.41,3.41,0,0,0,1-.15l1.26-.37a3.75,3.75,0,0,0,.56,1.6,3.51,3.51,0,0,0,2.44,1.54l3,.43.1,0,3.71.42.4,0a3.52,3.52,0,0,0,3-1.71l.85-1.43a3.47,3.47,0,0,0,.5-1.71l.58.06a2.55,2.55,0,0,0,.39,0h.05l21.94-.36,5.12.69a3.59,3.59,0,0,0,.47,0,3.47,3.47,0,0,0,1-.13l1-.29a3.63,3.63,0,0,0,1-.44l4.53-.08a3.32,3.32,0,0,0,.77-.1,3.71,3.71,0,0,0,1.08.31,3.52,3.52,0,0,0,3.3,2.59l5.57.14H131a3.51,3.51,0,0,0,2.49-6l-2.57-2.57a3.3,3.3,0,0,0-.73-.56,3.44,3.44,0,0,0-1.08-1.34l.86-.86,7,4.35a3.57,3.57,0,0,0,1.86.53,3.51,3.51,0,0,0,2-.6l3-2.05a3.49,3.49,0,0,0,1.87,2.84v.05a3.33,3.33,0,0,0,.26,1.79l.43,1a3.51,3.51,0,0,0,3.22,2.13h.08l5.9-.13.17.33a3.5,3.5,0,0,0,3.14,1.94h.1l4.86-.14a3.66,3.66,0,0,0,1.46-.37l.86-.43a3.51,3.51,0,0,0,1-5.56L165,281.54l-.19-.39a3.52,3.52,0,0,0-1.31-1.42l-1.5-.93-.13-.13-.11-.9.54-8.1.21-1.36.36-1,14-9.49a3.52,3.52,0,0,0,1-1.06l9.38-15.11a3.47,3.47,0,0,0,2-.65h0l1.54.31a3.23,3.23,0,0,0,.69.07,3.48,3.48,0,0,0,2.69-1.26l.72-.86a3.5,3.5,0,0,0,.81-2l.14-2.29c0-.07,0-.14,0-.21v-2.29a3.55,3.55,0,0,0-.62-2l-.55-.79,3.48-5.61a3.45,3.45,0,0,0,.52-1.77l.31-13.84.21-.34,0-.07.88-1.44a3.6,3.6,0,0,0,.38-.88l.54-1.93a3.49,3.49,0,0,0-1.85-4.1l.19-8.25a3.46,3.46,0,0,0-.3-1.49l-4.08-9.33a3.59,3.59,0,0,0-.17-.34l-.21-.36,2.94-1a3.5,3.5,0,0,0,2.3-4.15l-8.53-35.72h.29a3.52,3.52,0,0,0,3-1.62l.16-.25.22-.12a3.89,3.89,0,0,0,.8-.6l1.74-1.74.09-.09.13-.13a3.53,3.53,0,0,0,1-2.81l-.19-1.85a3.46,3.46,0,0,0-.56-1.58l-1.17-1.78-.06-.08-2.16-3.28-.91-1.4-.54-1.07-.22-.47a3.51,3.51,0,0,0-.16-5.73l-5-3.32a4.08,4.08,0,0,0-.72-.37l-5.17-1.93a3.43,3.43,0,0,0-1.23-.22l-.5,0-4.83.69-1,.15-.59.08-.19,0-.66.13-.11,0-.83.16-3.47.7a3.56,3.56,0,0,0-1.42.63l-1.71,1.28-1.53,1.14-.09.06L162.06,115l-1.16.79-2,1.31-.75.51-.46.31-.61-.31a4,4,0,0,0-.65-.25L132.67,111a3.65,3.65,0,0,0-1.64,0l-9.48,2-12.85-10a3.57,3.57,0,0,0-2.16-.74Z"/><path class="cls-12" d="M257.33,104.22l20.3-10.44,1.74,2.9,18-4.64,27.85,2.32,8.71,9.39,25.51,2.79,16.25,16.83,13.92,42.92,5.22,31.91-5.22,6.38s1.74,7.54,1.74,9.28.58,12.76-3.48,16.82-36,35.39-36,35.39l-21.46,8.7-4.64-4.64-6.38,7-14.5,1.16L253.27,280l-23.79-12.76-11-30.74-9.86-9.87,4.06-11-10.44-10.44-4.64-31.32L205,140.61l17.33-13.28,6-10.92Z"/><path class="cls-13" d="M262.88,243.19l-.7,2.47.3,2.69,2.9.32,4.44,2.26-.74,3.47,1.59.72,2.4-1.15.18.73-2.05,6.72-2.13,6-1.33,3.3.94.57,2.26,1.58,2.8,2.29,3.86-.72,3.59-2.43,2.13-.86s2.53-4.88,2.8-5.45,2.79-8.88,2.93-9.31l.19-.92,4.1,1,2.6,1.29.44.09.35,1.52.77-.09.23,1.27.9,1.94,1.5.64-.4-1.29L299,260l.28-1.13.19-.18,0,0,3.7,2.48,2.89,1.07,3.8,1,1.79-.31.5,1.17,1.5.64.75-.4.15.19,1.8-1.08.24-1.29h3.75l1.4-.75.4-5.26-4.19.1-3.8.33h0l2.78-.24-1.58-1.7-2.2-1.61-2.09-1.08-1.6-.86-1.5-.32-2.1-.32,0,0,.13-.5,1.19-1.93,1.3-2.58.11-.66,1-1.17.5-3.22,0-1.14.48-.69,1.07-5.13,2.79-3,5.86-14.47.93-14.62-3.6-6.45.54-3.43-.26-1.13,1.59-.31,1.86-1.57.79-2.2.68,2.91-1.07,2.15.3.21h0l.5.37,1.07-1.3,1.46-3.15-.13-5.16-2.13-5L320,174.43l.35-.41.8-4.59-.94-3.72-3.73-5.59-2.13-4.87-2.79-11-.23,1.13-.17-1.85.93-2.73,1.73-2.72.14-2-1.47.14-2.92,4.16-1.47,4.72.53,6.88,1.73,4.73.94,1.83-.27-.25-.4,1.09-2.4-3.53-1.6-3.3-1.33-6.59-.26-4.58.39-4.59.67-1.29-1.12-.33h0l-.35-.1-1.19,2.73-.67,5.87-.27,5,.54,4.44,1.59,4.44,2,3,2.13,2.87.66,1.49-.51-.49-2.4-3.16-.1.06L305.29,160l-2.39-2.72-2-5.44-1.07-7.59.4-4.59.14-1.43-.5.4h0l-.57.46-.8,2.87.13,5.45s.4,3.86.54,4.29,1.06,4.3,1.06,4.3l2.26,4.88,0,0-1.22-1.48-2.53-3.72-2.93-5.31-1.33-6.3.13-2.58-1.33.43-.16.26h0l-1,1.75.66,6,1.74,4.88,2.88,5.08-4.08-.93-4.93-2-2.79-1.29-1.34-2.44h-.93l.27,3.44,3.19,3.58,5.73,2.29,4.39,2.3,1.47,1.14-2.67-.28H291l-3.46.28-3.46-1.29-1.6-1.72-.7.39h0l-.1.06,1.47,2.72,4.13,2.29,4.79,1.72,3.86-.29,2.93.15,1.21.74h0l-1.58-.32s-4,1.14-4.39,1.14-4.13.58-4.53.58-3.19.14-3.19.14l-.17.43h0l-.23.58,3.47,1.43,5.72-1,1.5-.32-3.1,5.76-.8,2.87-1.86,5.45-1.86,2.58-2.27,2.57.14,1.15-4,4.16.67,1L278,212.28l-2.27,7.59-1.33,3.58a10.33,10.33,0,0,1,.53,1.86c0,.43-3.19,15.05-3.19,15.05l-1.2,3,.8.72-.54,2.3-3-1.26-1.7-1.4Zm43.54,9.24-.79.32-1.8.33-.48,0-1.52-.89-3.2-.76L295,250.6l-2.9-.42-2.09.8c.05-.27.09-.52.13-.75l3.26-3.14L300,243.3l-.14,1.29.7.48.1.91,1.1,2.37,1,2.47.44.09.26.77,1.8.32Zm6.12,3.75-1.77-.36-2.6-.76L307,254.8l1.33-.33,3.45,1.55Zm0,6.55,1.21-.21-.1.5h0l-.65.16Z"/><path class="cls-13" d="M336.27,268.92l7.32,2.94,6.13-.18,0-.06-3.75-.47-4.77-4.89-5.1-8.7.32-5.86,2.23-5.55,2.65-4.89.5-2.15-2.11-.91-.71-.09.09-.64,3.15-2.13.15.08v-.13l1.1-1.38h0l1.34-1.67,4.24-1.52,3.4-.32,3.61,1.19,2.63,3h0l.18.21h0l.26.29.51,1.64h0l.24.75,4.88,3.59L369,244.2l.45,1.21h0l.72,1.94.62,1.27v0l3.94,5L378,258.3l.29.46h0l.57.88h0l.52.82h0l.29.46,1.67,1.22-.48.57-2.23-1.3-4.64-.94.21.58,2.87,2,5.84,4.13,3.39,1.74,4.78,2.71-.75.55-3.14-.28h0l-.57-.05,1.17,1.41-.75.33s-5.74-2.91-9.17-4.51l-.16.6-5.42-2.18-3.35-.92-4.18,3.32-6,2.51,7,1,8.43,1.07,7.88-.82-.63,2.2-6.61.73L358.39,276l-2-.73-3.34-1h-.73l.31.56.63.08-.72,1-1.42-.89-.11-.39-.69.23-.94-.59-2.78,0h-3.74l-4.38-.89-5.41-3.92-3.26-4.16,2-.49Z"/><path class="cls-13" d="M245.52,213l-.55-1.41L245,210l-.17-.29.52-.36-.24-.35,4.09.86,8.52-.84,6.3-1,5.25-2.45,2.77-2.27L271,199.38,266.27,201l-6.12,1.69L252.94,204l-.66,0-.1-.64-2.38-.42-1.72.25-1.22-1.27-.68-1.22L251,198.1l10.32-13.87,1-7.95-1.8-6.43-1.8-2.87,0-.1h0l.63-1.93-.17-2.2-.31-1.38,2.39-.48,2.51-.79,1.86-.9h1.09l0-.13h0l-.17-.76h0l0-.12L264.35,156l-3.49-1.35-1-.09,0-.14-.82-.67-5.41-8.12-1-1.38h0l-1.5-2-1.09-1.48-4.42-4.06-.16.11h0l-.64.47h0l-.35.26.82,1,.18.76h0l.43,1.76h0l0,.18-.29.33h0l-.51.58h0l-.23.26-.77.86-.06.06h0l-.62.64h0l-1,1h0l-.32.34L241,148.21l-2.95,2.53-2.29,2.88-1.8,3.72-1.48.85-1.14,1.65h0l-1.31,1.89-7.87,13-.43,1.28c-1.59,1.94-5.14,6.16-5.14,6.16L213.14,188l-2.51,4.51-1.42,3.5.87,1.35,1.64-1.13,3.06-4.4,1.73-2.51-.75,3-1.31,3.39-1.24,2.85-1.82-.37-.49,3,3.25.85-.14.33-5.4,8.8-8.52,10.65-2.78,5.42.49,2.19,1.57.49h0l.8.25h0l.9.28,1.64-.17.49-1.86,3.94-5.92,6.8-8.76h0l3.17-4.08,6.13-5.44,4,.87,7,.93,5.24,1.36,2.9,1.2.05,1.42.68.1v.4l1,1.64,1,1.07,1,0Zm.24-9.21-3-.68-6.31-1.36-.46-.06,3.41-.36,4.77-.26,1.46,1.19.49,1Zm-13.32-2.55-5-.59-.19,0,.35-.31s2.29.33,2.78.33,2.3.34,2.3.34l1.63-.17.23.69Z"/><polygon class="cls-13" points="197.4 246.73 200.89 245.71 208.28 244.48 213.09 243.87 214.61 243.46 214.85 243.51 214.83 243.44 215.97 242.35 217.73 240.62 219.67 238.9 223.63 238.53 225.74 238.72 228.02 240.62 230.48 242.53 230.54 242.55 232.33 238.44 235.41 234.45 240.07 230.63 240.3 230.5 240.3 230.5 241.83 229.64 243.5 228.09 249.04 224.73 253.96 223.28 257.22 222.74 259.24 222.65 259.68 223.82 259.52 224.11 259.52 224.11 258.71 225.55 258.61 225.69 258.61 225.69 258.18 226.31 256.93 228.08 256.88 228.16 256.88 228.16 256.87 228.18 254.66 230.09 253.34 231.46 261.26 229.45 266.98 229.82 269 231 269.17 232.36 268.82 232.63 268.82 232.63 268.43 232.93 268.43 232.93 267.44 233.69 267.44 233.69 266.44 234.45 265.46 235.41 265.15 235.72 265.15 235.72 264.69 236.17 264.1 236.51 264.09 236.51 260.56 238.53 260.39 238.67 260.39 238.67 259.16 239.67 259.15 239.67 248.51 248.34 246.31 251.06 246.19 251.48 246.19 251.48 246.13 251.72 245.43 254.15 245.12 254.43 245.12 254.43 244.92 254.6 244.92 254.6 244.47 255 244.47 255 244.2 255.24 246.84 259.69 248.69 262.68 252.11 266.04 255.1 269.13 255.44 269.65 255.44 269.66 256.16 270.76 256.6 272.58 255.99 272.4 256.07 273.31 256.6 274.21 256.07 274.67 253.61 272.67 251.06 270.49 250.62 270.95 246.31 267.95 243.41 267.04 240.07 266.5 239.04 266.05 239.08 266.27 238.09 266.2 237.33 265.31 235.73 264.61 235.91 265.04 235.45 265.31 234.72 264.23 234.7 264.07 230.75 261.32 228.29 259.78 226.09 256.24 225.03 253.42 223.71 250.25 221.78 249.97 218.44 248.34 216.85 246.71 216.81 246.66 216.81 246.66 216.28 246.12 215.07 246.25 209.93 245.98 203.07 246.25 200.03 246.66 197.72 247.48 196.67 248.02 196.47 247.61 197.4 246.73"/><path class="cls-13" d="M329.72,116.58l-3.6-2.82-.45.23-2.47-.13h0l-.42,0-11.13-.3-15,.15-11.42,1L277.83,118l-.87,1.19-.12-.36h0l-1.18-3.35,5.06-9.94,9.11-6.68,15.61-4.74,26.44-3.41.32,0h0l2.28.3h0l1.5.2,2.63-2.69,5.85.44,7.15,2L359,99.45l3.9,10,.87,9.12.43,3.12,3.25,1.11,3.88,10.1,1.47,1.84,3.18,9.8,5.35,18.54,3.15,18.25h5.08l.73,3.85-2,6.83-3-.3h-7.69l.46,4.15,6.65,22,.87,7.71-2.75,4.9-7.08,2.37-5.35-.44-3.9-5.05L362,207.15l-1.59-9.5-1.61-6-5.47.18-8.82,1.19-13.87-3-.73-5.49,1.3-4.45,5.35.15,8.54,1.25.06-.33,1.19-.77.15,0-6.76-10s-8-14.46-8-15.13-2.6-13.79-2.6-13.79l.83-2.81h0l1.55-5.21,2.17-6.23-.65-6.9Z"/><path class="cls-13" d="M260.14,127.7,271.62,132l4.83,1.79.39.82-.32.57-6-2.29-1.31-.36h0l-1.33-.38h0l-2.47-.7h0l-1.21-.34h0l-1.5-.42-1.39-.09h0l-.87-.05h0l-1.19-.07h0l-.51,0-.06.13h0l-.57,1.1.34.86h0l.38.95.95,1.31.09.13h0l.83,1.13h0l.86,1.18h0l.36.5,4.67,5.63,3.33,2.13.71.9-.63.57-2.78-1.8-3.87-2.53-4-5.07-6.42-5h0l-2.76-2.16-3.64-1.71-3.05-.07h-.43l-1.42.17-.8-.82-.63.65-1.5.9h0l-.63.06h0l-1.88.18-1.9-.33-.69.5h0l-.1.07-.13,0h0l-.9.31h0l-.16.05-1,.19h0l-.61.11-.62.11H230l-1.64-.23h0l-.32.38h0l-.23.27,0,0-.08.06h0l-1.15.84h0l-.11.09-.52.37-.11.06-.06,0c-.39.19-1.35.61-2.22,1l-.22.1h0l-1.43.62-1.08.67h0l-.1.06,0,.09h0l-.22,1.14-3.24,4.25,0,0h0l-.17.23-.17.22h0l-.75,1-.19.33h0l0,.07-1.76,3.19-1-.24-.11.19h0l-.43.79-.49.89-.16.44h0l-.12.31-.32.91h0l-.2.55-.95.25-1.69,1.16h0l-.14.1-.54.37-1.59,3-.46.3h0l-.48.31h0l-.4.25h0l-2.24,1.44h0l-.13.08-.08,0h0l-.16.11-3.17,2.77-.71-.57.16-6.37,1.11-9.4,1.21-3.09h0l2.9-7.37,3.72-6,5.3-3,3.09-3,2.56-2.81h0l.05-.06-.42-.31h0l-.68-.53h0l-1-.79-1.74-1.72-1.58-1-.59-.84h0l-.84-1.2v-.24l-1.18-.41h-.56l0-.11h0l.27-.55,1.64-.37.16-.37h0l.49-1.22,2.7-1.55,4.19-1.47,2.85-.08,3,.9s2.43-.74,3.36-1h0l.17,0h.15a20.08,20.08,0,0,0,2.22-1l1.42-2.85,2.14-1.23.87-.37h0l7.52-3.23,5.44-2.13h0l9-3.51,9.18-3.19.3.45h0l.41.61-.63.9-1.66,1.06.47.74-.85,1h0l0,0-.22.13h0l-1.44.85-1,.17-1.42,1.3-.49.45h0l-.05,0-1.72,1.57-.27.25h0l-.46.43-.42.38h0L256,99.1l-.29.24h0L255,100h0l-.63.53-1.19.9-1,.66-.08,1-.39.66-.25-.07h0l-.31-.09-.24.62-.1.25h0l-.29.76.19.43h0l.23.5h0l.06.13-.12.34h0l-.23.66h0l-.12.32-.55.81-.1.26h0l0,.07-.27.74.24,1.88a15.53,15.53,0,0,1,.23,2.28.89.89,0,0,1-.35.43h0l-.14.1-.06,0h0l-.14.08h0l.08.73a.92.92,0,0,1,.09.28v0h0a4.52,4.52,0,0,1-.17,1.82,1,1,0,0,0-.07.19l0,.09a1.09,1.09,0,0,1,0,.17l0,.12,0,.16c-.1.41-.18.82-.18.82l.69,1.15h0a9,9,0,0,1,.49.9,13.36,13.36,0,0,0,1.53,1.51l.14.12.19.17.36.33,3.35,2.46h0l.77.56Z"/><path class="cls-14" d="M266.87,87.5l.3.45h0l.41.61-.63.9-1.66,1.06.47.74-.85,1h0l0,0-.22.13h0l-1.44.85-1,.17-1.42,1.3-.49.45h0l-.05,0-1.72,1.57-.27.25h0l-.46.43-.42.38h0L256,99.1l-.29.24h0L255,100h0l-.63.53-1.19.9-1,.66-.08,1-.39.66-.25-.07h0l-.31-.09-.24.62-.1.25h0l-.29.76.19.43h0l.23.5h0l.06.13-.12.34h0l-.17.48,6.66-2.8,20.3-10.44,1.74,2.9,18-4.64L312,93.26l19.89-2.56.32,0h0l2.28.3h0l1.5.2,2.63-2.69,5.85.44,7.15,2L359,99.45l3.9,10,.07.75,12.71,13.16,13.92,42.92,5.22,31.91-5.22,6.38s1.74,7.54,1.74,9.28.58,12.76-3.48,16.82c-1.86,1.87-9.59,9.47-17.41,17.16l.38.78v0l3.94,5L378,258.3l.29.46h0l.57.88h0l.52.82h0l.29.46,1.67,1.22-.48.57-2.23-1.3-4.64-.94.21.58,2.87,2,5.84,4.13,3.39,1.74,4.78,2.71-.75.55-3.14-.28h0l-.57-.05,1.17,1.41-.75.33s-5.74-2.91-9.17-4.51l-.16.6-5.42-2.18-3.35-.92-4.18,3.32-6,2.51,7,1,8.43,1.07,7.88-.82-.63,2.2-6.61.73L358.39,276l-2-.73-3.34-1h-.73l.31.56.63.08-.72,1-1.43-.89-.1-.39-.69.23-.94-.59-2.78,0h-3.74l-4.38-.89-1.61-1.18-6.46,2.62-4.64-4.64-6.38,7-14.5,1.16L253.27,280l-23.79-12.76-6.1-17-1.6-.23-3.34-1.63-1.59-1.64,0,0h0l-.53-.54-1.21.13-5.14-.27-6.86.27-3,.41-2.3.82-1.06.54-.2-.41.93-.88,3.49-1,7.39-1.23,4.82-.61,1.51-.41.24,0,0-.07,1.15-1.09,1.75-1.73,1.68-1.49-.95-2.64-9.86-9.87,4.06-11-.11-.11-5.41,7-3.94,5.92-.49,1.86-1.64.17-.9-.28h0l-.8-.25h0l-1.57-.49-.49-2.19,2.78-5.42,8.33-10.41-6.2-6.2-4.64-31.32,3.52-15.78-1.81,1.58-.71-.57.16-6.37,1.11-9.4,1.21-3.09h0l2.9-7.37,3.72-6,5.3-3,3.09-3,2.56-2.81h0l.05-.06-.42-.31h0l-.68-.53h0l-1-.79-1.74-1.72-1.58-1-.59-.84h0l-.84-1.2v-.25l-1.18-.4h-.56l0-.11h0l.27-.55,1.64-.37.16-.37h0l.49-1.22,2.7-1.55,4.19-1.47,2.85-.08,3,.9s2.42-.74,3.36-1h0l.17,0h.15a20.08,20.08,0,0,0,2.22-1l1.42-2.85,2.14-1.23.87-.37h0l7.52-3.23,5.44-2.13h0l9-3.51,9.18-3.19m76.72,184.36,6.13-.18,0-.06-3.75-.47-1.88-1.93-3.54,1.43,3,1.21M266.87,83.67a4,4,0,0,0-1.26.21l-9.17,3.19-.14.05-8.85,3.46-.12,0-5.44,2.13-.11,0L234.26,96l-.1,0-.77.33a2.87,2.87,0,0,0-.39.2l-2.14,1.22a3.86,3.86,0,0,0-1.53,1.62l-.83,1.68-.34.15h0l-.31.08c-.58.15-1.61.45-2.41.69l-1.91-.57a3.64,3.64,0,0,0-1.09-.16h-.11l-2.85.08a3.61,3.61,0,0,0-1.16.22l-4.19,1.47a4.76,4.76,0,0,0-.65.29l-2.69,1.56a3.78,3.78,0,0,0-1.52,1.62,3.8,3.8,0,0,0-2.31,2l-.28.58,0,.1a3.83,3.83,0,0,0,2.7,5.39l.19.29.6.84a3.69,3.69,0,0,0,1.12,1.07l1.22.75.71.7-2.48,2.43-4.87,2.77a3.74,3.74,0,0,0-1.36,1.32l-3.72,6a3.36,3.36,0,0,0-.3.6l-2.9,7.37,0,.09-1.18,3a4,4,0,0,0-.24.95l-1.11,9.4c0,.12,0,.24,0,.36l-.16,6.37a3.84,3.84,0,0,0,1.43,3.08l.09.07L193.84,173a3.87,3.87,0,0,0-.05,1.4l4.64,31.32a3.85,3.85,0,0,0,1.08,2.15l3.78,3.77-6.19,7.74a4.41,4.41,0,0,0-.42.64l-2.78,5.41a3.82,3.82,0,0,0-.33,2.59l.49,2.2a3.83,3.83,0,0,0,2.6,2.82l1.57.49.8.25.91.28a4,4,0,0,0,1.13.17l.39,0,1.64-.17a3.83,3.83,0,0,0,3.32-2.84l.28-1.06,8.05,8-1.42,1.39-.38.37-.6.16-4.56.58-.14,0-7.39,1.23a3.13,3.13,0,0,0-.44.1l-3.5,1a3.83,3.83,0,0,0-1.58.92l-.92.88a3.84,3.84,0,0,0-.8,4.43l.2.41a3.8,3.8,0,0,0,3.45,2.16,3.75,3.75,0,0,0,1.76-.43l.82-.42,1.69-.6,2.46-.33,6.5-.26,4.88.26.91.93a3.68,3.68,0,0,0,1.06.78l3.34,1.63a3.38,3.38,0,0,0,.44.18l5.35,14.93a3.82,3.82,0,0,0,1.79,2.08l23.79,12.77a3.79,3.79,0,0,0,1.81.45h.13L305,282.08h.18l14.5-1.16a3.84,3.84,0,0,0,2.52-1.23l3.68-4,1.81,1.81a3.84,3.84,0,0,0,4.15.84l4.49-1.82a3.83,3.83,0,0,0,1.38.58l4.38.89a3.84,3.84,0,0,0,.76.08h3.7l1.69,0h0a3.64,3.64,0,0,0,1.4.54l.84.53a3.85,3.85,0,0,0,4.47-.29l.21.06,1.87.69a3.7,3.7,0,0,0,1.19.23l16.56.57H375l.42,0,6.61-.73a3.84,3.84,0,0,0,3.26-2.75h0l.1.06a3.86,3.86,0,0,0,3.27.09l.75-.33a4,4,0,0,0,1.13-.76,3.86,3.86,0,0,0,2.14-.74l.74-.55a3.8,3.8,0,0,0,1.56-3.31,3.84,3.84,0,0,0-1.93-3.11l-4.78-2.71-.14-.08-3.15-1.62-.1-.06a3.84,3.84,0,0,0-1.2-4.74l-1.09-.8-.43-.66-.57-.89-.29-.46-.07-.11-3.26-4.72-.15-.21-2.31-2.91c8.57-8.44,13.65-13.44,15.1-14.89,4.37-4.37,4.72-12.93,4.61-19,0-.23,0-.41,0-.54a58.79,58.79,0,0,0-1.42-8.3l4-4.94a3.79,3.79,0,0,0,.82-3l-5.22-31.9a3.65,3.65,0,0,0-.14-.57l-13.92-42.92a3.74,3.74,0,0,0-.89-1.48l-11.84-12.27-.12-.37-3.9-10a3.66,3.66,0,0,0-.69-1.13l-7.37-8.45a3.84,3.84,0,0,0-1.85-1.18l-7.16-2a4.58,4.58,0,0,0-.74-.13l-5.85-.44h-.29a3.86,3.86,0,0,0-2.75,1.15l-1.28,1.32L332.77,87h-.08l-.31,0a4.07,4.07,0,0,0-.5,0l-.49,0L311.9,89.41l-14.23-1.18-.32,0a3.81,3.81,0,0,0-1,.12l-15.22,3.93-.26-.45A3.85,3.85,0,0,0,277.63,90a3.8,3.8,0,0,0-1.75.43l-7.68,4,.52-.64a3.81,3.81,0,0,0,.71-1.31,4.39,4.39,0,0,0,.65-.71l.63-.9a3.84,3.84,0,0,0,.05-4.34l-.35-.52-.06-.1-.3-.45a3.83,3.83,0,0,0-3.18-1.69Z"/><path class="cls-15" d="M130.79,384.25l-.71,9.25a4.88,4.88,0,0,1-1,3.09c-2.24,2.35-5.17-1.74-7.41-4.09-4.63-4.87-12.25-2.2-18.58-.61a44.18,44.18,0,0,1-30.54-3.43,67.84,67.84,0,0,1-10.7-7A139.91,139.91,0,0,1,30.1,347.09a9.4,9.4,0,0,1-1.85-4.39c-.19-3.26,2.7-5.7,3.82-8.74,2-5.34-1.84-11.29-1-16.95.8-5.4,5.65-9.44,6.19-14.88.28-2.77-.63-5.56-.45-8.34a21.09,21.09,0,0,1,2-6.87l8.32-19.66a4.42,4.42,0,0,1,1.77-2.43,4.72,4.72,0,0,1,3,.09c6.18,1.32,12.22-2.18,18-4.75,13.46-5.93,28.26-7.19,42.78-8.38,4.53-.37,9.11-.74,13.6,0s8.64,2.55,12.8,4.34l21.2,9.12c8.44,3.64,18,8.69,19.76,18.21.5,2.75.28,5.75,1.56,8.2,3,5.74,11.68,4.57,15.83,9.45,2.9,3.41,2.64,8.64,1.81,13.16a79.06,79.06,0,0,1-21.65,41.66c1.9,1.48,1.8,4.7.5,6.8s-3.43,3.39-5.35,4.85A36.55,36.55,0,0,0,159.42,389a5.87,5.87,0,0,1-1.37,3.26,4.46,4.46,0,0,1-2.8.87C151.92,393.36,130.4,389.35,130.79,384.25Z"/><path class="cls-16" d="M17.11,342.23A31.28,31.28,0,0,1,32,337.68c3.07-.12,6.41.15,8.93-1.71a3,3,0,0,0,1-1.17,3.46,3.46,0,0,0,.23-1.2,12,12,0,0,0-1.06-5.53,14.72,14.72,0,0,1,3.3,5.09,19.51,19.51,0,0,0,6-3.58,37,37,0,0,1,1.39,16.55l1.38.24q.15-1,.24-2c0,1.48-.07,2.93-.1,4.33l1.41,0c0-3.14.12-6.52.36-10,0,2,.07,3.89.12,5.83-.08.89-.15,1.78-.26,2.67l.33.05c0,.34,0,.68,0,1l.89,0c0,.5,0,1,0,1.51h1.4a113.7,113.7,0,0,1,.61-12.45,28.05,28.05,0,0,1,6.43,5.79,29.89,29.89,0,0,1,.3,6.63c-.09,2-.62,4.1-.58,5.91.05,3.24,1.23,6.66,6.08,5.25a15.86,15.86,0,0,0,4.44-2.27,7.4,7.4,0,0,1-2.12,2.62,9.78,9.78,0,0,1,3.75-.6,36,36,0,0,1,6,.23L84,365.36a10.49,10.49,0,0,0-5,2.56,5.28,5.28,0,0,0-.89,1.21c-1.45,0-3.94.23-4.34.81.5-.73-1.86-2.35-2.51-2.69a12.22,12.22,0,0,0-7.95-.6c-5.14,1.35-6.19,5.42-6.06,8.78.06,1.93.77,3.83,1,6a33.68,33.68,0,0,1,0,8.41c-.18,1.26-.31,3.19-1.15,4.43.84-1.24,2.78-2.27,4-3a59,59,0,0,1,9.82-4.62c2.95-1.14,6.17-1.82,9-3.07a29.72,29.72,0,0,0,3.92-2L91.5,391c0,1.81,0,3.62,0,5.42l.43-4.84,2,2.53.56,1.61c0-.31,0-.61,0-.91l1.63,2a38.39,38.39,0,0,0-2.34-11.08c0-.16,0-.33-.07-.49l-.32-2.49.71.31c1.08.53,2.15,1.08,3.22,1.64l.64,2.9c-.13,3.3-.26,6.61-.38,9.91l1.23-6,1,4.78v.53l.09-.13.1.48a2.48,2.48,0,0,0,.17-.9l4.41-6.93a9.74,9.74,0,0,1,2.68,2.58c-.75-1.31-.73-3.25-.81-4.53,0-.32,0-.63,0-.95l6.39-10a23,23,0,0,0,2.92.66c2.47.4,5.29.29,7.77.59a38.89,38.89,0,0,1,7.88,1.54c.93.32,2.4.7,2.9,1.42-.5-.72-.29-2.08-.23-3a25.6,25.6,0,0,1,1.5-6.36c.59-1.73,1.58-3.4,2-5,.78-2.85.63-6.19-4-6.43a14.68,14.68,0,0,0-7.72,2.07c-.68.42-3.17,2.31-2.79,2.85-.38-.54-4,.08-4.9.31-.41.1-.84.23-1.26.37a10.67,10.67,0,0,0-6.33.72,10.26,10.26,0,0,0-2.61,2,7.3,7.3,0,0,0-3.7-3.82l2.21-10.78a1.56,1.56,0,0,0,1,.13c-.75.33.51,3,.91,3.63a13.34,13.34,0,0,0,6.4,4.9c4.91,1.71,7.6-1.1,9-4,.8-1.65,1-3.63,1.81-5.53a30,30,0,0,1,3.71-7c.71-.95,1.67-2.5,2.94-3.07-1.27.57-3.35.36-4.73.32a56.19,56.19,0,0,1-10.3-1.58c-3-.68-6-1.89-8.95-2.44-5.5-1-12-.8-10.86,4.92.5,2.57,2.73,5.72,5.37,7.65a21.94,21.94,0,0,0,2.82,1.66,11.46,11.46,0,0,0-3.72,5.31,41.91,41.91,0,0,0-1.54,4.76,12.86,12.86,0,0,0-3.52.11c-.06-.3-.13-.61-.19-.92,2.66-.43,4.56-1.71,3.75-4.64a11.09,11.09,0,0,0-4.77-5.72c-.66-.39-3.34-1.72-3.91-1.4.57-.32-.6-2.36-1-2.84a8.41,8.41,0,0,0-1.62-1.58,16.76,16.76,0,0,0,3-4.29c2.61-5.94-3.25-6.25-8.37-5.33-2.7.48-5.59,1.6-8.27,2.2-2,.43-3.93.81-5.81,1a9.54,9.54,0,0,0,.55-1.52,11.16,11.16,0,0,0,.3-2.58,30.3,30.3,0,0,0-1.2-9.14c.41.68.82,1.36,1.24,2a18.72,18.72,0,0,0-5.13-16c.33-.57.69-1.15,1.08-1.73a3.94,3.94,0,0,0,1.21,2.31,12.11,12.11,0,0,1,1.34-1.83c.53.32,1,.66,1.54,1a13.87,13.87,0,0,0-1,1.63,2.39,2.39,0,0,0,.09,2.86,17.38,17.38,0,0,0,5.51,5.58,11.89,11.89,0,0,1,3.56-3.67,9.92,9.92,0,0,0-1.76,4.44,3.3,3.3,0,0,0,0,1,2.61,2.61,0,0,0,.67,1.16c1.83,2,4.66,2.37,7.21,3A27.26,27.26,0,0,1,96.73,335a19.69,19.69,0,0,1-.07-5.58,23.26,23.26,0,0,0,.42-3.8,12.45,12.45,0,0,0-.45-2.58c-.13-.47-.29-.94-.44-1.4a23.43,23.43,0,0,0,3.66,2.8h.76c.45,0,1.08,0,1.67.07,1.21.08,2.47.23,2.47.23l-1.61.29c-.79.16-1.57.34-1.57.34a17.7,17.7,0,0,0,1.75.76c.59.25,1.23.48,1.9.69l1,.3c.35.1.7.2,1.07.29.74.19,1.52.36,2.35.5l-.77-1.56c-.12-.24-.25-.52-.41-.82l-.52-.93-.6-1.07c-.22-.37-.46-.75-.71-1.15a51.17,51.17,0,0,0-3.74-5.21,56.24,56.24,0,0,0-5-5.26,51.84,51.84,0,0,0-5.72-4.41c-.75-.48-1.49-.93-2.21-1.35h0c.72.42,1.46.87,2.21,1.35a51.84,51.84,0,0,1,5.72,4.41,56.24,56.24,0,0,1,5,5.26,51.17,51.17,0,0,1,3.74,5.21c.25.4.49.78.71,1.15l.6,1.07.52.93c.16.3.29.58.41.82l.77,1.56a13,13,0,0,0,.55-1.28c0,.29,0,.58.1.87a10.94,10.94,0,0,0,.86,2.74,8.45,8.45,0,0,0,1.55,2.27s0-.18.05-.52a14.5,14.5,0,0,1,.25-1.47,16.81,16.81,0,0,1,2-4.85,28.59,28.59,0,0,1,4.57-5.71,38,38,0,0,1,6.56-5,64.05,64.05,0,0,1,14-6.07l1.09-.34h0l-1.09.34a64.54,64.54,0,0,0-14,6.07,38,38,0,0,0-6.56,5,28.59,28.59,0,0,0-4.57,5.71,16.81,16.81,0,0,0-2,4.85,14.5,14.5,0,0,0-.25,1.47l-.05.52a22.56,22.56,0,0,1,4-2.4c1.24-.59,2.37-1.06,3.45-1.57,0,0-.78-.19-1.58-.32S117,328,117,328l.77-.14c.47-.07,1.09-.14,1.7-.18s1.21,0,1.67,0l.75,0a39.73,39.73,0,0,0,4.44-2.82s-.65-.39-1.31-.74l-.92-.49-.43-.21s.91.15,1.78.36c.44.1.86.21,1.19.3l.53.16c1.43-1.09,2.88-2.28,4.36-3.52,0,0-.56-.48-1.15-.94s-1.17-.92-1.17-.92.77.29,1.53.61c.38.15.75.32,1,.44l.46.21c1.51-1.28,3.08-2.62,4.59-3.93l-.86-.86-.24-.22.49,0,0,0,1.14.61.93-.81a44.67,44.67,0,0,0,7.07-1.32c-2.86,9.83-.69,15.16,1.62,17.89-4.28-1.73-11.47-3.1-23.19-1.82,9.42,5.69,16.82,7.06,21.78,7-3,2.33-6.71,6.55-8.67,13.88l-.71.23.61.19a37.43,37.43,0,0,0-.89,4.72c1.78-1.27,3.33-2.48,4.72-3.66,6.63,1.64,11.28,1.63,14.4,1.1,0,.59,0,1.19,0,1.81-1.66,2.52-2.81,6.85-1.11,14.19a25.4,25.4,0,0,0,5-5.9l.23.69c0-.36,0-.71,0-1.07a13.14,13.14,0,0,0,1.58-4.43c1.06-.05,2.09-.11,3.05-.19a43.3,43.3,0,0,0,6.77,5l1,4.87c0-1.41.06-2.83,0-4.24.65.37,1.33.75,2,1.13l.82,2.73c0-.78,0-1.55-.07-2.33.65.34,1.31.67,2,1-.69-1.26-1.38-2.42-2.08-3.5-.08-2.21-.18-4.41-.33-6.62a24.09,24.09,0,0,0,5.67-2.64c0,.23,0,.46-.05.7-1,1.94-1.65,5-.39,9.28,0,.82-.06,1.64-.06,2.46l.27-1.79a28.58,28.58,0,0,0,2.62,5.67c3.1-5.43,3.69-9.47,3.28-12.37l.92-2.19c3.34,1.8,8.47,3.56,16.29,4.46C197,354.56,192,352,188.19,350.8l1-2.32a20.83,20.83,0,0,0,5.77-6.9c1.44,3.49,4.19,7.89,9.21,13.3,1.07-10.51-2.3-16.89-5.31-20.38,4.77,1.43,12.6,2.28,23.95-1-13.27-5-21.22-4.77-25.52-3.7,2.47-1.59,5.82-5.34,5.66-13.77a49.56,49.56,0,0,0,7.87-1.43,64,64,0,0,0-8.2-2.72c-.09-.63-.18-1.28-.3-2-.62.51-1.19,1-1.73,1.5a25.39,25.39,0,0,0-10.64-.28c2.49-1.54,6.09-5.64,4.41-16.21-7.12,5.55-8.07,10.55-7.68,13.69-2.14-3.29-6.4-7.77-14.88-12.69,3.88,8.5,8.29,13.08,11.65,15.52A16.83,16.83,0,0,0,177,313q-1-.63-2.19-1.26c.31.64.62,1.26.93,1.87a25,25,0,0,0-7.13,6,45.71,45.71,0,0,0,9.22-.7,54.34,54.34,0,0,0-5.66,4.25q1.47-1.56,3-3.37c-2.7.7-5.12,1.46-7.29,2.25a36,36,0,0,0-6-11.43c3.63,1.23,9.53,1.68,19.1-.58-8.1-6.31-15.11-6.61-19.57-5.75,3.44-3.8,7.65-10.43,10.32-21.61-9,8.12-13,14.59-14.84,19.07-.25-3.85-2.55-9.57-12.34-14.34.44,13.07,5.69,17,9,18.21a25.69,25.69,0,0,0-7.3,1.15c-.6-.16-1.66-.43-3.08-.72a40.4,40.4,0,0,0-9.26-.86l-.62,1.29c-.31.64-.6,1.29-.6,1.29s.1-.63.19-1.27.21-1.27.21-1.27a30.08,30.08,0,0,0-5.12.71,41.09,41.09,0,0,0,3-5.37l-1.63.08c-.81,0-1.61,0-1.61,0s1-.32,1.92-.7,1.94-.81,1.94-.81a35.7,35.7,0,0,0,2.53-9.35l-.39.13-.88.27-.87.25-.4.11s.18-.11.42-.28l.92-.63c.66-.48,1.32-1,1.32-1a28.29,28.29,0,0,0-.3-7.3,22.71,22.71,0,0,0-1.64-5.37,17.29,17.29,0,0,0-1.77-3.05c-.5-.64-.78-1-.78-1l.17.62c.11.41.24,1,.38,1.78a24.14,24.14,0,0,1,.19,6.48,31.66,31.66,0,0,1-2.26,8.83,48.52,48.52,0,0,1-4.84,8.77h0a48.52,48.52,0,0,0,4.84-8.77,31.66,31.66,0,0,0,2.26-8.83,24.14,24.14,0,0,0-.19-6.48c-.14-.77-.27-1.37-.38-1.78l-.17-.62-.19,1.22a26,26,0,0,1-.79,3.14,28.4,28.4,0,0,1-1.74,4.21,37,37,0,0,1-2.79,4.56s.29.63.56,1.3c.12.34.25.67.34.93s.15.43.15.43l-.23-.33-.52-.7L124,286l-.25-.3c-.8,1.07-1.67,2.15-2.59,3.26.53-1,1.06-2,1.06-2a78,78,0,0,0-2.66-9.87l-1.88,2.06s.38-.79.75-1.58l.74-1.6c-.92-2.57-1.84-4.87-2.81-7.05-.48-1.07-1-2.09-1.49-3s-1-1.75-1.52-2.48a19,19,0,0,0-2.63-3.08c-.34-.31-.61-.53-.8-.68l-.28-.22.38.66c.12.21.25.49.42.8s.33.69.5,1.13a33.34,33.34,0,0,1,2,7.41c.27,1.58.5,3.29.74,5.11s.49,3.73.72,5.71c.45,4,.83,8.22,1,12.48,0,1,.06,2,.08,3h0c0-1,0-2-.08-3-.17-4.26-.55-8.51-1-12.48-.23-2-.47-3.9-.72-5.71s-.48-3.53-.74-5.11a33.34,33.34,0,0,0-2-7.41c-.17-.43-.36-.8-.5-1.13s-.3-.59-.42-.8l-.38-.66.06.37c0,.24.09.59.14,1a26.6,26.6,0,0,1,.15,3.78c0,1.58-.21,3.44-.47,5.58s-.55,4.65-.79,7.27c0,0,.55.63,1.09,1.27L111,280l-2.3-1.43c-.27,3.06-.5,6.29-.69,9.56l1.34,1.7,1.32,1.73-1.37-1-1-.69c-.72-2-1.53-3.89-2.35-5.69l-1,.69-1,.69.82-1,.82-1c-1.48-3.18-3-6-4.09-8-.56-1-1-1.84-1.35-2.41s-.53-.87-.53-.87l.06,1.94c0,1.24.11,3,.26,5.12a147.33,147.33,0,0,0,1.88,15.42c.49,2.78,1.06,5.54,1.66,8.11.35,1.5.73,2.92,1.13,4.24h0c-.4-1.32-.78-2.74-1.13-4.24-.6-2.57-1.18-5.33-1.66-8.11a147.33,147.33,0,0,1-1.88-15.42c-.15-2.11-.22-3.88-.26-5.12l-.06-1.94s-.17.31-.47.9-.72,1.45-1.19,2.55a49,49,0,0,0-2.84,9.08l1,.87,1,.87-1.12-.46-1.11-.48a43.74,43.74,0,0,0-.76,7l1.41,1.09c.7.54,1.41,1.06,1.41,1.06l-1.42-.5-1.41-.52a34.5,34.5,0,0,0,.74,7.22L96.58,302l1.53,1a13,13,0,0,0-1.3-.51c-.52-.18-1-.34-1.53-.5s-1-.25-1.52-.36L93.7,303l-.07,1.24s-.15-.66-.29-1.32-.31-1.34-.31-1.34l-.64-.12-.63-.08-1.23-.14c-.4,0-.79-.07-1.17-.08H88.23a24,24,0,0,0-3.79.3c-.49.07-.94.17-1.33.26-1.54-.35-3.26-.16-3.82,1.31a10,10,0,0,0-4.39-2.22A30.26,30.26,0,0,0,72.83,296l1.64,1.7a18,18,0,0,0-9.38-14.93c-1.6-.82-4-1.1-4.77.59-1.9-1.84-4.52-3.34-7-2.5a8.69,8.69,0,0,0-3.59,3c-.23.29-.47.59-.7.9-.08-.05-.15-.12-.23-.16-2-1.11-4.55-.18-6.46,1.16-.49-1.62-2.61-1.72-4.13-1.24A15.65,15.65,0,0,0,28,296.28L29.68,295a25.52,25.52,0,0,0-3.85,7.14,10.21,10.21,0,0,0-.56,2.24,20,20,0,0,0,.12,3.37,16.87,16.87,0,0,1-.42,4.91,23.82,23.82,0,0,1,10.76-4.83c2.29-.39,4.8-.51,6.53-2.14a2.33,2.33,0,0,0,.67-1,2.59,2.59,0,0,0,.06-.92,8.83,8.83,0,0,0-1.26-4,10.71,10.71,0,0,1,2.9,3.5,14.82,14.82,0,0,0,2.12-1.38q1.59,3.07,2.9,6.3a11.2,11.2,0,0,0-5.58,1.47c-.4-2.21-3.18-2.7-5.26-2.33-6.89,1.24-13,6.73-15.24,13.77L26,319.75a33.54,33.54,0,0,0-6.14,8.76,13.91,13.91,0,0,0-1.08,2.86,27.69,27.69,0,0,0-.34,4.47A22.4,22.4,0,0,1,17.11,342.23Zm146.63,9.6a16.69,16.69,0,0,0,4.24-1l.46,2.21c-.59.28-1.19.59-1.81.93A26.83,26.83,0,0,0,163.74,351.83Zm23.47-10a32.79,32.79,0,0,0-2.62-2.81c5.43-1.52,8-3.86,9.13-5.63,0,.17-.06.35-.09.53A26.26,26.26,0,0,0,187.21,341.85Zm2.15-11.48a19.78,19.78,0,0,0-5,.88l.68-4.47A31.4,31.4,0,0,0,189.36,330.37Zm-3.16-11,.59-3.94a13.47,13.47,0,0,0,1.07,5.38C187.34,320.33,186.79,319.85,186.2,319.36Zm-26.16,17,1.06-.25c-.17.18-.34.38-.51.58Zm6,4.95-.34-.36a4.66,4.66,0,0,0,.16-.49Zm-3.73-9.95.18-.12.34.26Zm1,15-.2.13.1-.17Zm-5.74-27a19,19,0,0,0,1.21,6.78,29.81,29.81,0,0,0-6.07,4.62l-.22,0A54.53,54.53,0,0,0,157.56,319.41ZM181,322.1q1.42,1.88,2.8,3.36c-.49,2.16-.93,4.32-1.34,6.49A23.93,23.93,0,0,0,178,334.4a20.44,20.44,0,0,0-7.33-2.06A39.27,39.27,0,0,0,181,322.1Zm5.67-7.7c-.42,1.45-.84,2.9-1.23,4.36-.47-.39-1-.77-1.5-1.17l.82-1.42A8.78,8.78,0,0,0,186.69,314.4Zm9.68,1.68a18.47,18.47,0,0,0-2.27,4.13,17.82,17.82,0,0,0-2.95-5.19A24.75,24.75,0,0,0,196.37,316.08Zm-3,22.39.38-.91c0,.21.09.44.14.66Zm-11.52,9.95.86-5.7c1.13.14,2.34.26,3.62.34-2.86,2.51-3.91,4.74-4.27,6.27A5.88,5.88,0,0,0,181.83,348.42ZM178,342.63h0c-.35-.33-.73-.66-1.14-1,1.21.32,2.53.6,4,.84-.13,1-.28,2-.39,3A17.57,17.57,0,0,0,178,342.63ZM173.58,351c-.1-1.09-.23-2.18-.36-3.28.21-.16.41-.34.62-.52a16.06,16.06,0,0,0,4,2.95A25,25,0,0,0,173.58,351Zm-2.21,7.79c-.05-.56-.11-1.13-.17-1.69h.07l.77,2.55C171.82,359.33,171.59,359,171.37,358.77Zm-10.52-1.07a9.93,9.93,0,0,0-.14-2.79c.43.56.93,1.16,1.52,1.79C161.77,357,161.31,357.35,160.85,357.7Zm-10.22-19.42.54,1.6a20.46,20.46,0,0,0,1.41,4.24l1.47,4.44a30.57,30.57,0,0,0-9.77.17C148.55,344.34,150.15,340.79,150.63,338.28Zm-3.81-25.11a30.56,30.56,0,0,0,6.17-2.69,22.47,22.47,0,0,0-2.46,7.95A32.76,32.76,0,0,0,146.82,313.17Zm-32.08-3ZM106.43,312h0l-.21-.47h0Zm5.18,12.08h0l.19-.59,0-.08h0l0,.08Zm-3.27-23.67,0,0-.12.11Zm16.81,8.29c-.16.43-.29.83-.37,1.07h-.08c0-.24,0-.59,0-1Zm-17.84-17.22.54-.73c0,.32,0,.64,0,1l-.33.25-1.18.93S106.8,292.19,107.31,291.49Zm-13.43,24-.36.2a2.39,2.39,0,0,0-.13-.21l.37-.09Zm2.17,5.69c-.08-.23-.15-.46-.24-.69l1-.14c.85-.1,1.73-.18,1.73-.18l-1.38.55ZM65.7,309.69a23.55,23.55,0,0,0-1.31,2.06c-1.4-1.1-3.5-1.81-4.58-.41A12.76,12.76,0,0,0,57.9,309c.12-.83.25-1.66.39-2.48,1.63,1.26,3.77,1.79,5.73,2.47Q64.86,309.33,65.7,309.69Zm-16.89,8.06a15.87,15.87,0,0,0-1.36-1.36l.1-.06a12,12,0,0,1,1.85.95ZM47.87,301a15.87,15.87,0,0,0,2-2.2,2.65,2.65,0,0,0,.53-1.06,1.84,1.84,0,0,0,0-.62,17.24,17.24,0,0,0,4.57,5.21,11.84,11.84,0,0,1,3.39-3.08l-.09.41a9.86,9.86,0,0,0-1.58,3.58,3,3,0,0,0-.08,1,2.49,2.49,0,0,0,.49,1.07c-.16.92-.3,1.84-.44,2.76a4.91,4.91,0,0,0-3.08-.81,5.7,5.7,0,0,0-2.39.86A77,77,0,0,0,47.87,301ZM45.3,290.32a9.15,9.15,0,0,1,2.06.77,3.59,3.59,0,0,0,.84,1.45c.15-.22.32-.42.48-.62a9.6,9.6,0,0,1,1.51,1.35l-.16.24a3,3,0,0,0-.53,1.54A13,13,0,0,0,45.3,290.32Zm11-2.48a13.88,13.88,0,0,0-3.56,2.34,11.14,11.14,0,0,0-.52-1.18A10.38,10.38,0,0,1,56.33,287.84Zm32.84,77.33a36.5,36.5,0,0,0-2-3.54,47.71,47.71,0,0,0,5,.88l.38,0,.59,2.69c-.39.37-.62.74-.46,1C92.34,365.74,90.58,365.37,89.17,365.17Zm10.37,23.05.42-2.06.43.26q-.36,3-.43,6.13ZM52.83,333.31a8,8,0,0,0,1.24,1.3c-.23,2-.38,3.95-.48,5.89A39.34,39.34,0,0,0,52.83,333.31Zm-1.29-4.81c.14-.14.29-.26.42-.41a4,4,0,0,0,.72-1,11,11,0,0,1,2-.8c0,.05,0,.11,0,.16a9.61,9.61,0,0,0-2.58,3.36L52,330C51.86,329.5,51.71,329,51.54,328.5Z"/><path class="cls-17" d="M120.61,251.37a34.75,34.75,0,0,1,5.76.43c4.43.74,8.64,2.55,12.8,4.34l21.2,9.12c8.44,3.64,18,8.69,19.76,18.21.5,2.75.28,5.75,1.56,8.2,1.88,3.58,6,4.47,9.78,5.82a28.8,28.8,0,0,1,2.87-2.53,33.45,33.45,0,0,1,.4,4,9.87,9.87,0,0,1,2.78,2.21c2.28,2.68,2.6,6.48,2.24,10.18l.81.15c.54-.5,1.11-1,1.73-1.5.12.68.21,1.33.3,2a64,64,0,0,1,8.2,2.72,49.56,49.56,0,0,1-7.87,1.43c.16,8.43-3.19,12.17-5.66,13.77a24.05,24.05,0,0,1,5.75-.64c4.6,0,11,1,19.77,4.34a53,53,0,0,1-14.6,2.24,32.29,32.29,0,0,1-9.35-1.27c3,3.49,6.38,9.87,5.31,20.38-5-5.41-7.77-9.81-9.21-13.3a20.83,20.83,0,0,1-5.77,6.9l-1,2.32c3.81,1.2,8.76,3.76,14.37,9.07-7.82-.9-12.95-2.66-16.29-4.46l-.92,2.19c.41,2.9-.18,6.94-3.28,12.37a28.58,28.58,0,0,1-2.62-5.67l-.27,1.79c0-.82,0-1.64.06-2.46a16.71,16.71,0,0,1-.48-2.16,7,7,0,0,1-.58,1.27,10.89,10.89,0,0,1-2.37,2.6c.2.35.41.7.61,1.07l-1.2-.6-.78.59c0,.44,0,.89,0,1.33l-.34-1.11c-.44.32-.88.64-1.31,1A36.55,36.55,0,0,0,159.42,389a5.87,5.87,0,0,1-1.37,3.26,4.46,4.46,0,0,1-2.8.87H155c-4,0-24.57-3.95-24.19-8.93-.24,3.08-.47,6.16-.71,9.25a4.88,4.88,0,0,1-1,3.09,2,2,0,0,1-1.49.71c-2,0-4.15-2.94-5.92-4.8a9.47,9.47,0,0,0-7.23-2.79A31.45,31.45,0,0,0,107,390.9a4.28,4.28,0,0,0,.41,1,4.73,4.73,0,0,0-.73-.93c-1.19.31-2.37.63-3.51.91l-.08,0-2.77,4.35a2.48,2.48,0,0,1-.17.9l-.1-.48-.09.13v-.53l-.79-3.58-.52.07-1,4.75.17-4.65c-.67.09-1.35.15-2,.2a27.72,27.72,0,0,1,.39,3.75l-1.63-2c0,.3,0,.6,0,.91L94,394.08l-.71-.89H91.82l-.29,3.2c0-1.07,0-2.13,0-3.2a44.34,44.34,0,0,1-18.9-4.73q-1.36-.69-2.7-1.47a54.84,54.84,0,0,0-8.78,4.2c-1.24.77-3.18,1.8-4,3,.84-1.24,1-3.17,1.15-4.43a33.68,33.68,0,0,0,0-8.41,30.89,30.89,0,0,0-.62-3.34,140.62,140.62,0,0,1-27.49-31,9.4,9.4,0,0,1-1.85-4.39,8.31,8.31,0,0,1,1.66-4.85,31.29,31.29,0,0,0-12.8,4.38,22.4,22.4,0,0,0,1.28-6.39,27.69,27.69,0,0,1,.34-4.47,13.91,13.91,0,0,1,1.08-2.86A33.54,33.54,0,0,1,26,319.75l-2.38,1.37a20.81,20.81,0,0,1,11.28-12.55l.33-.6A23.87,23.87,0,0,0,25,312.69a16.87,16.87,0,0,0,.42-4.91,20,20,0,0,1-.12-3.37,10.21,10.21,0,0,1,.56-2.24A25.52,25.52,0,0,1,29.68,295L28,296.28a15.65,15.65,0,0,1,10.23-11.76,5.3,5.3,0,0,1,1.6-.24H40l7.21-17a4.42,4.42,0,0,1,1.77-2.43,2.47,2.47,0,0,1,1.07-.22,10,10,0,0,1,1.94.31,13,13,0,0,0,2.77.29c5.21,0,10.33-2.86,15.28-5,13.46-5.93,28.26-7.19,42.78-8.38,2.61-.21,5.23-.42,7.84-.42m72,83.51c.34-.32.67-.65,1-.94,0-.18.05-.36.09-.53a9.61,9.61,0,0,1-1,1.27l-.1.2m.75,3.59.52-.25c-.05-.22-.1-.45-.14-.66l-.38.91m-14.65,18.8a9.93,9.93,0,0,1,.93-2.92l0-.46c-.65.69-1.31,1.38-2,2.05a3.42,3.42,0,0,1,1,1.33M120.61,247.86c-2.78,0-5.49.22-8.12.43-14.65,1.2-29.79,2.44-43.92,8.67L66,258.14c-4,1.83-7.7,3.56-11.25,3.56a9.73,9.73,0,0,1-2-.21l-.32-.07a10.06,10.06,0,0,0-2.35-.33,5.85,5.85,0,0,0-2.61.59,7.61,7.61,0,0,0-3.47,4.21l-6.43,15.19-.29.09a19.06,19.06,0,0,0-12.62,14.41,3.06,3.06,0,0,0-.06.95,29.14,29.14,0,0,0-2,4.48,13.64,13.64,0,0,0-.73,3,15.43,15.43,0,0,0,0,3.14c0,.28.05.55.06.82a13.44,13.44,0,0,1-.33,3.9,3.54,3.54,0,0,0,.9,3.25,24.61,24.61,0,0,0-2.22,4.9,3.56,3.56,0,0,0-.16,1.25A37.48,37.48,0,0,0,16.65,327a16.64,16.64,0,0,0-1.34,3.62,19.37,19.37,0,0,0-.38,3.93c0,.37,0,.75,0,1.12a19.54,19.54,0,0,1-1.08,5.41,3.51,3.51,0,0,0,3.3,4.69,3.43,3.43,0,0,0,1.83-.52,27.61,27.61,0,0,1,5.79-2.67c0,.11,0,.23,0,.35a12.71,12.71,0,0,0,2.41,6.1,143.86,143.86,0,0,0,27.25,31c.13.61.24,1.2.31,1.79a30.57,30.57,0,0,1,0,7.54c0,.2-.06.42-.08.65a8.75,8.75,0,0,1-.49,2.3,3.51,3.51,0,1,0,5.79,4,12,12,0,0,1,2.35-1.66l.63-.38a45.84,45.84,0,0,1,6.67-3.3l1.38.72a48.14,48.14,0,0,0,17,4.9,3.51,3.51,0,0,0,3.4,3.4h.11a3.53,3.53,0,0,0,2.09-.68,3.6,3.6,0,0,0,1.8,1,3.52,3.52,0,0,0,1.8.76l.42,0a3.46,3.46,0,0,0,1.71-.45,3.46,3.46,0,0,0,.48.07h.29a3.49,3.49,0,0,0,3.25-2.2,5.51,5.51,0,0,0,.3-1l1.59-2.5.27-.07a3.54,3.54,0,0,0,3.59.06,3.62,3.62,0,0,0,1.27-1.25,21.16,21.16,0,0,1,4.09-.48,5.94,5.94,0,0,1,4.68,1.69c.3.31.62.67,1,1,2,2.28,4.36,4.86,7.52,4.86a5.46,5.46,0,0,0,4-1.79,8.16,8.16,0,0,0,1.92-5.26l.17-2.14c7.28,3.37,18.8,5.07,21.23,5.07h.47a7.78,7.78,0,0,0,5-1.76,8.79,8.79,0,0,0,2.43-5l0-.13a33.2,33.2,0,0,1,11.07-18.56,3.27,3.27,0,0,0,.54,0,3.39,3.39,0,0,0,.55,0,3.57,3.57,0,0,0,2.29-1.39,3.73,3.73,0,0,0,.56-.2c.36.71.75,1.43,1.18,2.15a3.51,3.51,0,0,0,3,1.73h0a3.53,3.53,0,0,0,3-1.77,26.68,26.68,0,0,0,3.82-11.29,57.68,57.68,0,0,0,13.22,2.93l.4,0a3.51,3.51,0,0,0,3-5.29,3.5,3.5,0,0,0,2-2.85,33.31,33.31,0,0,0-1.91-16c.81.05,1.63.07,2.46.07a56.87,56.87,0,0,0,15.57-2.37,3.51,3.51,0,0,0,.28-6.66,64,64,0,0,0-19.21-4.52,22,22,0,0,0,1.51-6.56c1.74-.28,3.54-.67,5.35-1.15a3.51,3.51,0,0,0,.42-6.65c-2.19-.88-4.34-1.63-6.4-2.24a3.52,3.52,0,0,0-2.18-2.47l-.25-.08a13.72,13.72,0,0,0-3.09-7.74,12.17,12.17,0,0,0-2.06-1.92c-.08-.83-.19-1.66-.32-2.51a3.53,3.53,0,0,0-2.18-2.72,3.65,3.65,0,0,0-1.29-.25,3.52,3.52,0,0,0-2.16.75c-.55.43-1.07.86-1.58,1.3-3-1-4.92-1.77-5.8-3.45a12.07,12.07,0,0,1-.84-4.18c-.09-1-.19-2-.37-3-2-10.9-12.14-16.63-21.83-20.8l-21.2-9.13c-4.29-1.85-8.74-3.76-13.61-4.57a37.75,37.75,0,0,0-6.34-.48ZM196,350.47c-.78-.45-1.56-.87-2.34-1.25q.45-.45.87-.93c.46.72.95,1.45,1.47,2.18Z"/><path class="cls-18" d="M161.58,476.32a7.14,7.14,0,0,1-.58-2.44,1.54,1.54,0,0,0-1.5-1.5,1.51,1.51,0,0,0-1.5,1.5,9.39,9.39,0,0,0,.69,3.23,1.54,1.54,0,0,0,1.84,1.05,1.5,1.5,0,0,0,1.05-1.84Z"/><path class="cls-19" d="M176.56,234c-2.28-1.2-4.32,1.64-4.32,1.64l-23.13,40.49,20,35.82s-6.7,11.27-3.35,16.36L161.09,333s-.73,2.48,2.62,2.48S175,329.54,175,329.54l-.92-25.26-13.74-28.6,12.53-18.63,4.27-3.8S180.81,236.27,176.56,234Z"/><path class="cls-20" d="M171.74,461.39a6.79,6.79,0,0,1,.11,4.59c-.87,2.28-11.51,10.45-19.19,11-8.1.53-12.6-4.16-12.9-5.26S145,467,145,467Z"/><path class="cls-20" d="M250.9,465.38s5.8,15.49,3.75,17.53-14.88,4.48-23.78.76,9.71-23.12,9.71-23.12Z"/><path class="cls-19" d="M212.45,206.8l-3.82,14.68s-.6,3.62.7,4.92,9.57,5,9.57,5l1.29,10-19.8,11.26-23.63-6.34.7-16.59a33.39,33.39,0,0,0,15.17-6.06c1.39-1,2.57-13.14,2.57-13.14Z"/><path class="cls-21" d="M198.53,215.85c.37-2.7.67-5.43.67-5.43l13.28-3.72-1.07,4.09s-4.15,2.7-5.44,3.27A25.38,25.38,0,0,1,198.53,215.85Z"/><path class="cls-19" d="M220.56,200s-7.68,13.67-30.6,13.67c-9.49,0-13-2.21-13.54-5.29-3.36-19.34,3.79-43.81,13.7-51.28,4.64-3.49,20.07-.79,29.27,5a25.11,25.11,0,0,1,10.28,13.21l-6.57,14.74s6.71-7.24,9.39-3.22-5.83,12.54-5.83,12.54S222.84,202.25,220.56,200Z"/><path class="cls-19" d="M198.48,345l19.37,48.58s2.49,9.2,5.46,12.16A130.55,130.55,0,0,0,230.65,427c5,11.26,7.24,26.74,7.24,26.74s-4.57,11.62-4,16.85c0,0-4.38,6-2.62,9.5s8.65,1.41,8.65,1.41,11.51,1.5,13.22-1.36S251,469.58,251,469.58s.55-6.13-1.46-7.54a25,25,0,0,1-4.42-4.83s.75-2-1.36-4.72-5.23-20.13-5.23-22.41,2.82-19.3-6.57-26c0,0-2.27-46.25-8.71-52.68s-24.73-10.26-24.73-10.26Z"/><path class="cls-22" d="M198.48,345l6.19,15.53s8.57,3.82,10.74,4.36c1.61.39,13.08,3.94,12.69,1.62-1.21-7.22-2.87-13.14-4.89-15.16-6.43-6.44-24.73-10.26-24.73-10.26Z"/><path class="cls-19" d="M191.57,337.85s-16.22,61.26-17.43,64.08,5.13,8.28-5.93,47.09c0,0,.7,5.13,1.71,6.94s3.32,6.43.4,8-12.37,9.65-16.39,10.36-11.56-2.82-11.56-2.82-4-1.51-2.77-2.76c0,0,3.67-.15,4.88-1.36s14.88-12,14.88-12,4.22-5.43,4.22-5.79,3-48.1,3-48.1-1.1-3,0-9.15.57-44.78.57-44.78Z"/><path class="cls-22" d="M191.57,337.85l-4.95,18.61c-.43,1.62-19.35,2.94-19.35,2.94l-.1-11.77Z"/><ellipse class="cls-23" cx="200.1" cy="179.95" rx="2.46" ry="1.8" transform="translate(-23.19 330.16) rotate(-75.9)"/><path class="cls-24" d="M205.1,180a1,1,0,0,1-1-.94,2.93,2.93,0,0,0-1.11-2.19c-.93-.53-2.38,0-3.43.54a1,1,0,1,1-.91-1.79c2.18-1.11,4-1.27,5.35-.47a4.92,4.92,0,0,1,2.1,3.8,1,1,0,0,1-.95,1Z"/><ellipse class="cls-23" cx="185.37" cy="176.55" rx="2.46" ry="1.8" transform="translate(-31.04 313.31) rotate(-75.9)"/><path class="cls-21" d="M223.11,199.16s.2-8.8,7-10.91"/><path class="cls-20" d="M253.9,477.19s-11.51-4.93-23-1.16a5,5,0,0,1,.86-2.81c1-1.51,15.38-3.82,21.52,1.23C253.25,474.45,254.55,476.33,253.9,477.19Z"/><path class="cls-20" d="M156.54,473.36s-.45-10.14-11.55-6.4l-.3.25a3.64,3.64,0,0,1,1.1-2.34,12.92,12.92,0,0,1,3.64-1.54s10.17-2.5,10,8.3C159.45,471.63,157.86,473.86,156.54,473.36Z"/><path class="cls-25" d="M173.89,206.37s-1-4.1-.48-5.72a11.07,11.07,0,0,1,2.43-3.55s.42-4,3.28-4,10.73,2.39,10.73,2.39,3.71,1,3.71,3.72c0,0,4.2-1.86,5.89-1.86a19.62,19.62,0,0,1,4.55.94s5.61-2,7.6-4a8.25,8.25,0,0,1,5.17-2l.25-.54s.37-7,2.34-8.18a28.43,28.43,0,0,0,4.32-3.53s-4.18-2.87-4.7-4.39c-1.08-3.2,1.84-11-.45-13.52-2.43-2.64-10.33-1.23-14.31-.42-2.22.45-8.18-.4-8.66-2.61a4.12,4.12,0,0,0-2.49-2.86c-1.57-.51-4.69,2.3-4.69,2.3l-1.23-4.25s.24-2.84,5.95-5a10.2,10.2,0,0,1,10.39-3.09s3.75-4.49,9.18-.37c0,0,10.93-.63,13.41,4.73a4.09,4.09,0,0,1,4,2.28s2.83-.25,3.9,1.59c0,0,2.57.14,2.91,3.82,0,0,3,4.23.6,7.65,0,0,1.59,3-.47,5.06,0,0,2.83,3.8-1.79,6.95,0,0,3,4.56-3.75,5.91,0,0-.93,3.76-2,4.15-2.08.75-1.94-.88-7.51,4.69l-1.56,1.57c-.33,1.48-1.09,3.74-.52,4.37,1.87,2.09,2.5,4-4,9.27,0,0,.92,1.66,0,2.57s-2.39,2.24-3.43,2.24c0,0,0,2.68-3.75,3.74s-4.94-.57-4.94-.57.68,2.64-.69,3.05a4.71,4.71,0,0,1-2.62,0,4.82,4.82,0,0,1-4.9,1.08,2.92,2.92,0,0,1-3.56.91s-5.23,1.25-8.05,0-2.82-1.74-2.82-1.74-4.4.91-6.39-1.08a5.54,5.54,0,0,1-1.15-1.8,12.86,12.86,0,0,1-.84-4.34S172.79,207.47,173.89,206.37Z"/><path class="cls-19" d="M189.44,201.31a29.79,29.79,0,0,1-3.31-2.15c-.59-.59-3.55-1.11-4.28-1.83H179.4a2.38,2.38,0,0,1-1.25.19s.84,7,1.92,9.34,5.6.47,5.6.47S189,204,189.44,201.31Z"/><path class="cls-21" d="M186.76,203.08c-1.19,0-4.68-.11-6.33-1.42-1-.77-1.23-1.17-1.33-1.44a.51.51,0,0,1,.06-.55.51.51,0,0,1,.71-.06.65.65,0,0,1,.17.26s.14.32,1,1c1.68,1.33,6,1.21,6.08,1.2a.5.5,0,1,1,0,1Z"/><path class="cls-21" d="M189.05,202.09a.64.64,0,0,1-.23-.05,19.63,19.63,0,0,1-3.34-2.16,15.16,15.16,0,0,1-4.19-1.75,8,8,0,0,1-2.43,0,.5.5,0,1,1,.3-1,8,8,0,0,0,2.24,0l.24,0,.17.18c.67.67,3.15,1.45,4.05,1.69l.13,0,.1.09a17.9,17.9,0,0,0,3.19,2.07.5.5,0,0,1,.22.67A.51.51,0,0,1,189.05,202.09Z"/><path class="cls-21" d="M173.6,237.87,172,229.32S172.14,234.87,173.6,237.87Z"/><path class="cls-26" d="M174.14,401.93a3.71,3.71,0,0,0,0,2.24s-7.16-1.54-7.58-1.95l0-.66a10.26,10.26,0,0,1-.45-2.81C166.28,398,174.14,401.93,174.14,401.93Z"/><path class="cls-26" d="M231.82,402.18l.1,1.89,1.55,1.31s-4.72,3.35-9.65,2.4l-.51-2a15.54,15.54,0,0,1-1.16-1.49C221.73,403.65,231.82,402.18,231.82,402.18Z"/><path class="cls-27" d="M218.4,232.26s-29.54,5.93-38-2.54l1.45,11.17s17.63,6.85,26.26,1.52S218.4,232.26,218.4,232.26Z"/><path class="cls-28" d="M233.26,238.24s-9.56,38.34-6.66,41.25,4.2,24.56-3.49,20.11V304s3.49.34,3.49,2.49S235.36,396,238.44,399c1.72,1.72-20.38,7.81-41.26,7.11-16.66-.57-32.62-7.52-34.54-9.43-4.31-4.32,10.88-97.27,7.1-97.27a5.6,5.6,0,0,0,.38-3c-.38-1.18-2.62-6.66-1.5-10.06s5.43-55.66,4.15-55.66c0,0,6.8-3.16,8-2.55s4.47,27.12,37.71,2.45C218.53,230.6,231.45,229.87,233.26,238.24Z"/><path class="cls-20" d="M224.49,303.69s-45.63,6.22-54.75-4.24c0,0-1-2.06.38-3-.2,1.93,28.21,8.51,53,3.18A2.69,2.69,0,0,1,224.49,303.69Z"/><path class="cls-29" d="M223.75,280.8l-.88-7.48,5.24-26.87v16.39s-3.76,13.94-1.88,15.82,1.59,6.9.44,5.75S223.75,282.3,223.75,280.8Z"/><path class="cls-19" d="M233.59,238.94c.95,1,.8,17-3.49,21.33s-7,15.06-7,15.06l-3.84-31.62a26.64,26.64,0,0,1,4.4-4.92C226.67,236.38,232.63,238,233.59,238.94Z"/><polygon class="cls-21" points="230.48 256.54 221.07 258.52 221.54 262.37 230.48 256.54"/><path class="cls-21" d="M219.33,244.14l5.36-1.73-4.79.45S218.76,244,219.33,244.14Z"/><path class="cls-26" d="M209.21,219.25a16.51,16.51,0,0,0-.7,4.41c0,.27-1.32-3.42-3.73-2.73a41.35,41.35,0,0,1-11.59,1.72l.69-2.77L208,213.65h2.72Z"/><path class="cls-29" d="M228.42,295.65s-3.13,3.66-5.2,1.83c0,0-42.21,5.77-53.76-3l.76,2.42s17.77,11,52.89,2.67C223.11,299.6,227.16,302,228.42,295.65Z"/><g class="cls-30"><path class="cls-29" d="M219.35,199.16s.38,8.07-19.95,16.6-25.06-6.15-25.06-6.15l4.27,11.84s30.25,4.26,32.41,1.35,12.52-20.18,10.91-21.21,11.82-17,11.82-17,4.69-5.36,4.69-7.28,1.07-14.92.1-17-1.34-5.72-2.21-5.72-8.5-5-9.66-5,9,8.59,7.4,12.32-2.4,16.43-4,18-10,10.72-10.93,13.84A8.15,8.15,0,0,0,219.35,199.16Z"/></g><path class="cls-29" d="M223.82,281.62l-5.07-38,.1-.15c5.76-9.22,14.51-5.71,14.6-5.68l-.38.93c-.33-.14-8-3.17-13.28,5.12l5,37.67Z"/><path class="cls-29" d="M194.86,242.48a14.87,14.87,0,0,1-4.66-.7c-4.84-1.57-8.21-5.79-10-12.56l1-.26c1.7,6.42,4.84,10.41,9.34,11.87,11.25,3.65,27.54-9.49,27.7-9.62l.63.77C218.25,232.47,205.83,242.48,194.86,242.48Z"/><path class="cls-19" d="M229.05,241.09c-17.67,5.22-41.12,14.38-41.12,14.38l-7.25-27.37s5.91-2.4,7-7.38c0,0,6.31-4.29,5.58-4.59s-4.2-1.34-5.54,0-4.06,3-6.47,2.15c0,0-2.44-5.32-3.93-6.19s-2.07-7.26-2.94-10.35-3.1-.87-3.1-.87.18,10.4,1.19,10.9c0,0-3,.25-3.26,1.92s-.41,1.88-.91,1.88a2.3,2.3,0,0,0-1.93.69,2.69,2.69,0,0,0-.74,1.74s.24,2.13-.38,2.13-1.76.77-1.79,1.17c-.25,2.83,6.26,7.28,8.51,8L178.55,264s.36,2.05,1.06,2.52a5.55,5.55,0,0,0,2.53.17l48.34-10.16Z"/><path class="cls-26" d="M208.69,170.78a.53.53,0,0,1-.27-.08s-3.43-2.2-9.22-1.09c-6.35,1.21-8.36-1.67-8.44-1.79s-1.15-1.81-4.45-1.12a.49.49,0,0,1-.59-.38.51.51,0,0,1,.39-.6c4-.85,5.44,1.47,5.5,1.57h0s1.77,2.41,7.4,1.34c6.22-1.19,9.81,1.13,10,1.23a.5.5,0,0,1,.14.69A.48.48,0,0,1,208.69,170.78Z"/><path class="cls-26" d="M208.18,166.29a.45.45,0,0,1-.27-.08s-2.75-1.75-7.38-.86c-5.19,1-6.84-1.39-6.91-1.49s-.9-1.41-3.5-.86a.5.5,0,0,1-.2-1c3.33-.7,4.5,1.23,4.54,1.31s1.4,1.89,5.88,1c5.06-1,8,.94,8.12,1a.5.5,0,0,1,.14.69A.51.51,0,0,1,208.18,166.29Z"/><path class="cls-21" d="M188.47,194.79a2.9,2.9,0,0,0,1.79-.92l.19-.17a1,1,0,0,0,.7-.71,1,1,0,0,0-.73-1.21,1.63,1.63,0,0,0-1.47.59,4.45,4.45,0,0,1-.51.4c-1.94-.47-4.43-1.23-6.26-1.79a50.29,50.29,0,0,1,6.41-12.62c.39-.59.72-1.1,1-1.55a1,1,0,0,0-.31-1.38,1,1,0,0,0-1.38.32c-.27.44-.6.95-1,1.51a49.2,49.2,0,0,0-6.36,13.68,2.12,2.12,0,0,0,.07.77,1.74,1.74,0,0,0,.56.45c1.9.64,4.56,2,6.9,2.58A1.64,1.64,0,0,0,188.47,194.79Z"/><path class="cls-21" d="M181.05,267.6a4.45,4.45,0,0,0,1.14-.15l.87-.18,38.88-8.18-.15-.73L182,266.72a2.92,2.92,0,0,1-2.22-.21c-.51-.35-1.59-3.85-1.65-4.74l0,2.93a3,3,0,0,0,1.19,2.43A3,3,0,0,0,181.05,267.6Z"/><path class="cls-21" d="M180.83,228.65c.26-.13,6.54-3.54,7.21-7.72l4.12-3c1.61-1.29,1.52-1.6,1.49-1.76l-1.28-.32a6.45,6.45,0,0,0,.59.29,6.92,6.92,0,0,1-1.25,1.2l-4.37,3.18,0,.16c-.49,3.87-6.62,7.12-6.68,7.15Z"/><polygon class="cls-21" points="166.71 290.15 167.6 290.86 160.88 275.72 171.37 260.13 171.59 257.37 159.74 275.63 166.71 290.15"/><path class="cls-24" d="M188.89,175.61a1,1,0,0,1-1-.72,2.91,2.91,0,0,0-1.56-1.87c-1-.31-2.33.53-3.24,1.29a1,1,0,0,1-1.28-1.54c1.89-1.57,3.61-2.13,5.12-1.66a5,5,0,0,1,2.89,3.23,1,1,0,0,1-.69,1.23A.9.9,0,0,1,188.89,175.61Z"/><path class="cls-31" d="M208.11,144.09a7.56,7.56,0,0,1,4.56,1.74s.4,0,1.07,0c2.81,0,10.33.42,12.34,4.75h.3a4,4,0,0,1,3.72,2.29h.34c.79,0,2.72.15,3.56,1.6,0,0,2.57.14,2.91,3.82,0,0,3,4.23.6,7.65,0,0,1.59,3-.47,5.06,0,0,2.83,3.8-1.79,6.95,0,0,3,4.57-3.75,5.91,0,0-.23.9-.58,1.87a2.57,2.57,0,0,1,1.57,1.14c2.68,4-5.83,12.54-5.83,12.54a7.7,7.7,0,0,1-3.91,1.48,3.06,3.06,0,0,1-1.72-.49c.54,1.64-.41,3.69-5.12,7.51,0,0,.92,1.66,0,2.57s-2.39,2.24-3.43,2.24a3.9,3.9,0,0,1-2.4,3.22l-.87,3.35h0l-.28,1.07a13,13,0,0,0-.42,3.34h0a4.17,4.17,0,0,0,.83,2.74c1,1,6.49,3.59,8.66,4.59l.54-.39s.28,0,.77,0c2.81,0,12.42.53,14,7.66l-.09.41a2,2,0,0,1,.42.29c.95,1,.8,17-3.49,21.33a14,14,0,0,0-1.89,2.41l-1.63,7.91c-.5,3.68-.69,6.63-.34,8.08a4.54,4.54,0,0,1,1,1.81c1.4,3,2.18,10.33,1.18,15.17h0l0,0c-.54,2.63-1.61,4.5-3.39,4.5a3.54,3.54,0,0,1-1.45-.36c.77.45,2.12,1.62.92,3.86l-1.38.18V304s3.49.34,3.49,2.49S235.36,396,238.44,399c.64.64-2,1.87-6.62,3.14h0c.07,1.2.1,1.88.1,1.88a12.55,12.55,0,0,1,1.52,1.28l0,0h0c7.51,7.38,5,22.56,5,24.7s3.12,19.69,5.23,22.41,1.36,4.72,1.36,4.72A25,25,0,0,0,249.5,462c.82.57,1.21,1.93,1.39,3.34h0s5.8,15.49,3.75,17.53c-1.27,1.27-6.72,2.7-12.8,2.7a28.93,28.93,0,0,1-11-1.94c-5.05-2.11-1.24-9.26,3-15.06.42-5.72,4-14.87,4-14.87s-2.21-15.48-7.24-26.74a130.55,130.55,0,0,1-7.34-21.22,7.69,7.69,0,0,1-1-1.24h0l-.12-.19a.1.1,0,0,1,0,0h0a129.83,129.83,0,0,1-21.57,1.91c-1.13,0-2.27,0-3.4-.05a85.78,85.78,0,0,1-23-4.28l0,.06s0,.05,0,.07a3.09,3.09,0,0,0-.13.71,6.54,6.54,0,0,0,.1,1.24c0,.08,0,.15,0,.22h0c.65,4.07,2.95,13.76-5.91,44.85,0,0,.7,5.13,1.71,6.94a12.62,12.62,0,0,1,1.82,5.43h0a6.79,6.79,0,0,1,.11,4.59c-.87,2.28-11.51,10.45-19.19,11-.43,0-.85,0-1.26,0-7.31,0-11.35-4.26-11.64-5.3-.07-.27.19-.67.63-1.14-.79-.52-1.38-1.17-.79-1.76a14.2,14.2,0,0,0,3.78-.71c.55-.39,1-.72,1.32-.91a3.55,3.55,0,0,1,1.09-2.29,12.92,12.92,0,0,1,3.64-1.54h0c4.35-3.48,9.93-7.88,9.93-7.88s4.22-5.43,4.22-5.79,2.62-41.74,3-47.44l0-.62v0a5.47,5.47,0,0,1-.2-.8,6.5,6.5,0,0,1-.25-2h0a14.92,14.92,0,0,1-3.51-2c-2.53-2.53,1.65-35.59,4.78-62.47a9.65,9.65,0,0,1-3.71,1.18c-3.35,0-2.62-2.48-2.62-2.48l4.63-4.62c-3.35-5.09,3.35-16.36,3.35-16.36l-20-35.82,23.13-40.49a5.16,5.16,0,0,1,.46-.54,35.12,35.12,0,0,1-.72-5.8l1,5.28-1-5.28c-2.25-.74-8.76-5.19-8.51-8,0-.4,1.17-1.17,1.79-1.17s.38-2.13.38-2.13a2.69,2.69,0,0,1,.74-1.74,2.19,2.19,0,0,1,1.71-.69h.22c.5,0,.66-.2.91-1.88s3.26-1.92,3.26-1.92c-1-.5-1.19-10.9-1.19-10.9a2.74,2.74,0,0,1,1.59-.77,1.11,1.11,0,0,1,.66.2,11.38,11.38,0,0,1,2-2.94c.18-16,5.9-32.64,13.49-39.41-.42.33-.69.57-.69.57l-1.23-4.25s.24-2.84,5.95-5a10.17,10.17,0,0,1,7.58-3.46,11.14,11.14,0,0,1,2.81.37,6.47,6.47,0,0,1,4.62-2.11M181.26,229a32.86,32.86,0,0,0,11.37-5.33,2.43,2.43,0,0,0,.56-1l.38-1.52-.29,0a3.26,3.26,0,0,1-1.26-.26,24.08,24.08,0,0,1-4.1.54c-1,3.57-5.75,6.47-6.86,7.09.06.13.13.29.2.47m-.55-.86v0h0v0h0M171.37,260c0-.3,0-.61.08-.92h0l-.08.92m-1.71,35.11-.2-.63h0c-.72-2.22-1.65-5.71-.84-8.15.52-1.58,1.73-13.7,2.75-26.23l-10.49,15.59,6.72,15.14,2.06,4.28M145,467h0m63.12-325.87h0a9.17,9.17,0,0,0-5.5,1.88,14,14,0,0,0-1.92-.14,13.29,13.29,0,0,0-9.33,3.92c-6.48,2.67-7.13,6.49-7.2,7.26a2.88,2.88,0,0,0,.11,1.09l.77,2.67c-7,8-12,23.42-12.44,38.45-.24.3-.5.64-.75,1a6,6,0,0,0-2.68,1.53,3,3,0,0,0-.88,2.18c0,.11.05,2.7.22,5.4.09,1.35.19,2.49.31,3.45a4.79,4.79,0,0,0-2.48,3.05,5.25,5.25,0,0,0-2.08,1.3,5.67,5.67,0,0,0-1.62,3.84,4.18,4.18,0,0,0-2.16,3.07c-.37,4.29,5.32,8.4,8.62,10.21.08.88.2,2,.4,3.15l-23,40.26a3,3,0,0,0,0,2.95L165.63,312c-1.77,3.32-4.94,10.35-3.46,15.67l-3.2,3.19a3,3,0,0,0-.75,1.27,5,5,0,0,0,.73,4.28,5.56,5.56,0,0,0,4.76,2.05h.2l-.39,3.33c-5.25,44.72-5.76,54.32-3,57.08a10.93,10.93,0,0,0,2.79,1.86c.05.22.1.45.16.7a4.32,4.32,0,0,0,.11.48V402c-1.22,19.29-2.65,42-2.94,46.73-.62.9-2.09,2.86-3.41,4.56-1.16.91-5.54,4.37-9.2,7.3a12.89,12.89,0,0,0-4.15,1.95,6.08,6.08,0,0,0-1.83,2.78l0,0a12.3,12.3,0,0,1-2.52.4,3,3,0,0,0-2,.87,3.7,3.7,0,0,0-1.1,3,3.8,3.8,0,0,0,.41,1.37,3.41,3.41,0,0,0,.08,1.44c.73,2.69,6.22,7.51,14.53,7.51.48,0,1,0,1.46-.05,8.62-.56,20.38-9.19,21.79-12.88a9.65,9.65,0,0,0,.07-6.25,15.7,15.7,0,0,0-2.18-6.3,24.71,24.71,0,0,1-1.27-5.28c7.52-26.58,6.93-37.87,6.18-43.23a85.08,85.08,0,0,0,19.63,3.16c1.14,0,2.32.05,3.5.05a131.5,131.5,0,0,0,20.08-1.63,136.56,136.56,0,0,0,7.25,20.65c4.18,9.36,6.38,22,6.89,25.2-.85,2.26-3.26,9-3.84,14.09-4.49,6.31-6.2,11.08-5.23,14.57a6.57,6.57,0,0,0,4,4.36,31.82,31.82,0,0,0,12.14,2.17c5.64,0,12.58-1.23,14.93-3.58,1-1,3.38-3.38-3-20.41-.36-2.43-1.21-4.08-2.59-5a18.36,18.36,0,0,1-3-3.2,9,9,0,0,0-2.11-5.73c-1.45-2.14-4.57-18-4.6-20.57,0-.16,0-.71.09-1.19.41-4.83,1.47-17.42-5.32-24.94,3.75-1.32,4.79-2.44,5.17-3.86a3.29,3.29,0,0,0-.56-2.83c-2.9-6.83-11.08-86.15-11.27-90.85a4.76,4.76,0,0,0-1.68-3.64c0-.15,0-.31,0-.46,1.35-.88,2.68-2.62,3.38-5.94,0,0,0-.07,0-.1l0-.14c1-5.06.36-12.91-1.35-16.74a8,8,0,0,0-1-2,34.08,34.08,0,0,1,.46-6.33l1.49-7.24a10.07,10.07,0,0,1,1.19-1.46c3-3,4.12-9.11,4.58-13.75a55.12,55.12,0,0,0,.25-6.66c-.08-2.44-.32-3.75-.92-4.64-2.17-9.05-13.41-9.76-16.83-9.76-.6,0-.94,0-.94,0a2,2,0,0,0-.42,0,53.86,53.86,0,0,1-6.35-3.29,2.93,2.93,0,0,1-.08-.63,1.48,1.48,0,0,0,0-.21,9.74,9.74,0,0,1,.35-2.5l.26-1,.58-2.21a6.9,6.9,0,0,0,2.25-2.8,13.43,13.43,0,0,0,3.09-2.44,4.54,4.54,0,0,0,1.27-3.62,16.3,16.3,0,0,0,4.27-5.14,10.9,10.9,0,0,0,4.89-2c.11-.09.22-.18.32-.28,2.33-2.33,9.5-10.19,6.52-15.8a6.45,6.45,0,0,0,3.17-3.27,6.11,6.11,0,0,0,.31-3.6,7.64,7.64,0,0,0,2-4,7.41,7.41,0,0,0-.32-3.64,7.43,7.43,0,0,0,.32-5.09c1.41-3.31.25-6.84-1-8.94a6.62,6.62,0,0,0-4.06-5.39,6.84,6.84,0,0,0-4-1.89,6.9,6.9,0,0,0-3.92-2.23c-3.25-4.19-10-4.87-14.07-4.87h-.16a10.06,10.06,0,0,0-5.47-1.72ZM164.29,276l3.08-4.58c-.36,3.81-.68,7-1,9.35L164.29,276ZM144,464.12h0Z"/></g></g></svg>