<svg xmlns="http://www.w3.org/2000/svg" xmlns:xlink="http://www.w3.org/1999/xlink" viewBox="0 0 316.71 173"><defs><style>.cls-1{fill:none;}.cls-2{fill:#f9f9f9;}.cls-3{fill:#eb5f23;}.cls-4{fill:#5e3027;}.cls-5{clip-path:url(#clip-path);}.cls-6{fill:#ffd021;}.cls-7{fill:#fff;}.cls-8{fill:#1ca5b0;}.cls-9{fill:#344c5e;}.cls-10{clip-path:url(#clip-path-2);}.cls-11{fill:#bc1828;}.cls-12{fill:#ea573f;}.cls-13{clip-path:url(#clip-path-3);}.cls-14{fill:#752228;}</style><clipPath id="clip-path"><path class="cls-1" d="M250.67,98.68,173,127.83c8.56,12,5,24.73.79,31.25a15.49,15.49,0,0,0,1.57,4.77l74.41-30.56c16.44-19,.88-34.61.88-34.61"/></clipPath><clipPath id="clip-path-2"><path class="cls-1" d="M245.09,59.6,167.43,88.74c8.57,12,5,24.74.8,31.25a15.19,15.19,0,0,0,1.57,4.77L244.21,94.2c16.44-19,.88-34.6.88-34.6"/></clipPath><clipPath id="clip-path-3"><path class="cls-1" d="M246.19,18.45,168.53,47.59c8.56,12,5,24.74.79,31.25a15.49,15.49,0,0,0,1.57,4.77l74.42-30.56c16.44-19,.88-34.6.88-34.6"/></clipPath></defs><title>6-Prob2</title><g id="Camada_2" data-name="Camada 2"><g id="Camada_1-2" data-name="Camada 1"><ellipse class="cls-2" cx="158.35" cy="86.68" rx="158.35" ry="86.32"/><path class="cls-3" d="M250.67,98.68,150.74,80.24,67.16,105.5a2.05,2.05,0,0,0-.5,4.07l.26.05L173,127.83c10.54,14.73,2.82,27.62.3,31.1L67.68,140a1.27,1.27,0,0,0-.27,0A2.05,2.05,0,0,0,67,144l108,19.75,73.89-30.34c16.44-19,1.86-34.75,1.86-34.75Z"/><path class="cls-4" d="M250.67,98.68,173,127.83c8.56,12,5,24.73.79,31.25a15.49,15.49,0,0,0,1.57,4.77l74.41-30.56c16.44-19,.88-34.61.88-34.61Z"/><g class="cls-5"><path class="cls-6" d="M230.81,103s17.21,21.4,2.63,42l-31,11.17s13-24.82-4.35-41.57L230.81,103Z"/></g><path class="cls-7" d="M173.58,159.31c2.51-3.49,10-16.75-.56-31.48L66.92,109.62,67.41,140a1.27,1.27,0,0,1,.27,0l105.9,19.34Z"/><path class="cls-8" d="M245.09,59.6,145.15,41.15,61.58,66.42a2.05,2.05,0,0,0-.5,4.07l.26,0L167.43,88.74c10.55,14.74,2.82,27.62.31,31.11l-105.65-19h-.27a2.05,2.05,0,0,0-.45,4.07l108,19.75,73.89-30.34c16.44-19,1.86-34.75,1.86-34.75Z"/><path class="cls-9" d="M245.09,59.6,167.43,88.74c8.57,12,5,24.74.8,31.25a15.19,15.19,0,0,0,1.57,4.77L244.21,94.2c16.44-19,.88-34.6.88-34.6Z"/><g class="cls-10"><path class="cls-7" d="M225.22,63.93s17.22,21.4,2.64,42l-31,11.16s13-24.81-4.34-41.56l32.72-11.63Z"/></g><path class="cls-7" d="M168,120.23c2.52-3.49,10-16.75-.56-31.49L61.34,70.53l.48,30.34h.27L168,120.23Z"/><path class="cls-11" d="M246.19,18.45,146.25,0,62.68,25.26a2.05,2.05,0,0,0-.5,4.07l.26.05L168.53,47.59c10.55,14.73,2.82,27.62.31,31.1l-105.65-19a1.23,1.23,0,0,0-.27,0,2.05,2.05,0,0,0-.46,4.07l108,19.75,73.89-30.34c16.44-19,1.86-34.74,1.86-34.74Z"/><path class="cls-12" d="M246.19,18.45,168.53,47.59c8.56,12,5,24.74.79,31.25a15.49,15.49,0,0,0,1.57,4.77l74.42-30.56c16.44-19,.88-34.6.88-34.6Z"/><g class="cls-13"><path class="cls-14" d="M226.32,22.77s17.22,21.41,2.64,42L197.94,76s13-24.81-4.34-41.56l32.72-11.64Z"/></g><path class="cls-7" d="M169.09,79.07c2.52-3.48,10-16.75-.56-31.48L62.44,29.38l.48,30.33a1.23,1.23,0,0,1,.27,0l105.9,19.34Z"/></g></g></svg>