<svg id="Camada_1" data-name="Camada 1" xmlns="http://www.w3.org/2000/svg" xmlns:xlink="http://www.w3.org/1999/xlink" viewBox="0 0 709.69 222.4"><defs><style>.cls-1{fill:none;}.cls-2{clip-path:url(#clip-path);}.cls-3{fill:#eaa000;}.cls-4{fill:#6d472e;}.cls-5{fill:#eac2a7;}.cls-6{fill:#ffd478;}.cls-7{fill:#027e8f;}.cls-8{fill:#f9f9f9;}.cls-9{clip-path:url(#clip-path-2);}.cls-10{fill:#c9a68f;}.cls-11{fill:#d6aa8b;}.cls-12{fill:#d6d6d6;}.cls-13{fill:#c99f4b;}.cls-14{fill:#6d5f56;}.cls-15{fill:#493e38;}.cls-16{clip-path:url(#clip-path-3);}.cls-17{fill:#fcfcfc;}.cls-18{fill:#d32222;}.cls-19{fill:#f4f4f4;}.cls-20{clip-path:url(#clip-path-4);}.cls-21{fill:#b7b7b7;}.cls-22{fill:#c99e32;}.cls-23{clip-path:url(#clip-path-5);}.cls-24{fill:#aa7e30;}.cls-25{fill:#fff;}.cls-26{fill:#ddd;}.cls-27{fill:#846829;}.cls-28{fill:#e8cd95;}</style><clipPath id="clip-path"><path class="cls-1" d="M153.53-208.66c0-70.11-80.52-116.46-153-116.46s-72.41,54.4-72.41,124.52S-50.16-81.7,22.31-81.7,153.53-138.54,153.53-208.66Z"/></clipPath><clipPath id="clip-path-2"><path class="cls-1" d="M131.37,205.6s-28.07,21.32-75.08,3.81S9.27,57.3,9.27,57.3,49.35-.56,85,0c9.82.16,43.26,7.41,43.26,28.14s25.1,113.8,25.1,113.8,10.54,40.81,5.27,43.92"/></clipPath><clipPath id="clip-path-3"><path class="cls-1" d="M93.06,62.93c-.22-.23,13.34.85,18.52-3,0,0,1,10.32-3.6,11.44S97.73,70.67,93.06,62.93Z"/></clipPath><clipPath id="clip-path-4"><path class="cls-1" d="M100.74,215.63c3.15,6.24,25.3,7.56,27.13,8.14,0,0,.58-25.08-3-39.17S100.74,215.63,100.74,215.63Z"/></clipPath><clipPath id="clip-path-5"><path class="cls-1" d="M73.81,60.18c3.91,1.61.54-5.39.54-5.39s-.37-7-2.36-8.21A28.53,28.53,0,0,1,67.66,43l10-6.84,27.27-18.7s3.77-5.25-4.84-8.49A10.26,10.26,0,0,0,89.63,5.92s-3.77-4.51-9.22-.37c0,0-11-.64-13.47,4.74a4.11,4.11,0,0,0-4,2.29s-2.28.88-2.72,2.73c0,0-5.56,2.19-5.89,5.89,0,0-3,4.24-.61,7.67,0,0-1.6,3,.47,5.09,0,0-4.64,5.08,0,8.24,0,0-1.14,3.3,5.66,4.65l2,4.17s1.94-.88,7.54,4.72Z"/></clipPath></defs><title>4-Exemp1</title><g class="cls-2"><path class="cls-3" d="M.54-321.36a6.91,6.91,0,0,1,4.92,2.24,12,12,0,0,1,3-.39,10.85,10.85,0,0,1,8.07,3.67c8.87,3.33,5.35,8.68,5.14,9l.1,0s5.2,3.63,3.42,5.42c0,0,3.21,4,.64,6.12a2.78,2.78,0,0,1-.93.47c7.3,11.36,11.65,31.41,8.77,47.95-.56,3.27-4.31,5.63-14.39,5.63h0a53.37,53.37,0,0,1-9.75-.87l.32,2.45h0c.5,3.6,1.24,7.69,2,8.3,5.14,3.86,12.8,5.46,17.12,6.08l6.24.58A15.16,15.16,0,0,1,38.46-220h0l36.43,33.81,28.75-24.31s1.91-7.5,12.56-7.5a27.2,27.2,0,0,1,4.37.37c14.52,2.36-1.31,4.07-1.31,4.07s1.64-.14,4.06-.14c3.64,0,9,.31,13.26,1.85l2.2,2.67-5,5s-11.59,1.6-18.22,1.6c-2.11,0-3.71-.16-4.29-.59a.5.5,0,0,0-.26-.07c-4,0-36.42,30.63-36.42,30.63l-33.44-27c.49,6.63.84,13.72.77,20.28A208.88,208.88,0,0,1,40-154c1.46,1,.4,3.23.4,3.23L43.17-129l0,.48C46.53-113.44,46-88.4,46-88.4a28.06,28.06,0,0,0-2.87-.43l0,1.82h0c-.07,12.66,0,31,.72,35.12,1.18,6.52,0,9.73,0,9.73S47,8.6,47,9s4.49,6.16,4.49,6.16S57.42,19.84,62,23.55h0a13.4,13.4,0,0,1,3.87,1.63,3.82,3.82,0,0,1,1.17,2.43c.31.21.81.55,1.4,1a15.16,15.16,0,0,0,4,.74c.64.64,0,1.33-.83,1.88.47.5.74.93.67,1.21C72,33.53,67.72,38.06,60,38.06c-.44,0-.89,0-1.35-.05-8.16-.53-19.48-9.23-20.41-11.65a7.27,7.27,0,0,1,.12-4.89c0-2.06,1.25-4.53,1.94-5.77,1.07-1.93,1.82-7.38,1.82-7.38C30.3-33,37-38.77,35.76-41.77c-.82-1.9-8.09-28.92-13.27-48.36h0l0-.07c-.3-1.13-.6-2.24-.89-3.31A13.85,13.85,0,0,1,18.9-95.1,84.3,84.3,0,0,1,4.78-89.5L-10.73-50.61s-2.65,9.79-5.81,12.94A139.19,139.19,0,0,1-24.35-15.1c-5.34,12-7.7,28.45-7.7,28.45s3.83,9.72,4.29,15.8c4.5,6.17,8.55,13.78,3.18,16a30.91,30.91,0,0,1-11.67,2c-6.47,0-12.27-1.51-13.63-2.87-2.17-2.17,4-18.64,4-18.64.19-1.5.61-2.94,1.48-3.55A26.67,26.67,0,0,0-39.69,17s-.8-2.13,1.44-5,5.56-21.41,5.56-23.83-3-20.54,7-27.67c0,0,1.14-23.15,4.07-39.9h0c.31-1.9.66-3.72,1-5.41-3.07.26-4.91.29-4.91.29s3-8.26,6.75-18.89c-3.23-.3-1.1-5.32-1.1-5.32a26.43,26.43,0,0,0,3.79-2.23l1.24-3.48c-1.07-2.64,1.6-10.83,1.6-10.83L-23-132.65l-28.48-21.48s22.89-54,23.81-54.9c.6-.6,5-3.19,8.07-4.95,3.19-3.19,10-5.71,10-5.71s6.53-7.38,7.92-8.77.75-5.24.75-5.24L-4.5-247.42c-6.31-4-8.79-8.38-8.79-8.38a3.21,3.21,0,0,1-2.33.93,8.18,8.18,0,0,1-4.16-1.57s-9.06-9.06-6.21-13.34a2.69,2.69,0,0,1,2.35-1.29c1.87,0,4.09,1.54,5.65,2.85-3.21-2.8-4.92-3.18-5.62-3.18h-.22l-.05,0-.05,0-.06,0,0-.07c-.68-.33-3.7-2-4-4.81-5.11-1.61-4.13-4.46-4.13-4.46-4.92-3.35,0-8.73,0-8.73-2.19-2.19-.5-5.38-.5-5.38-2.56-3.64.65-8.13.65-8.13.35-3.92,6.23-6.24,6.23-6.24.47-2,2.89-2.89,2.89-2.89a4.29,4.29,0,0,1,4-2.44,2.22,2.22,0,0,1,.33,0c2.13-4.61,10.13-5,13.12-5,.71,0,1.14,0,1.14,0a8,8,0,0,1,4.85-1.85m-8,186.21c1.28-3.65,2.39-6.85,3.22-9.29a2.8,2.8,0,0,1,1.38-4.13l.17-.57c1.28-4.71-10.8-27.79-10.8-27.79l-10.21-6.39L-38-156.43l22.87,15.94,7.67,5.34M66.76,27.4h0M.54-325.12h0a11.2,11.2,0,0,0-6,1.83h0c-4.35,0-11.63.73-15.28,5.23a7.83,7.83,0,0,0-4.76,3.12,8.69,8.69,0,0,0-3.11,3c-2.2,1.14-6,3.65-6.95,7.66-1.38,2.32-2.63,6.16-1.16,9.81a8.69,8.69,0,0,0,.13,4.91A10.11,10.11,0,0,0-38-283.5a7.88,7.88,0,0,0,2.17,4.56,6.23,6.23,0,0,0,.59,1.73,8.51,8.51,0,0,0,4.15,3.79A9.38,9.38,0,0,0-29.59-271c-1.5,3.06-.65,7,2.53,11.65a43.58,43.58,0,0,0,4.62,5.6l.18.19.21.16a11.73,11.73,0,0,0,6.43,2.33,8.93,8.93,0,0,0,1-.07,33.7,33.7,0,0,0,6.81,6.1l3.16,12.13a8.26,8.26,0,0,1,0,2.11c-1.51,1.57-5.59,6.16-7.2,8-2.09.84-7,3-10.1,5.86-7.42,4.29-8,4.88-8.46,5.32-.72.73-1.09,1.09-13,29-5.77,13.46-11.5,27-11.56,27.12l-1.15,2.7,2.35,1.77,28.48,21.48,7.72,5.82c-.8,2.9-1.51,6.47-1.15,9.15l-.47,1.31c-1.12.71-2.26,1.25-2.27,1.26l-1.3.61-.56,1.32c-.47,1.11-1.86,5-.13,7.87l.21.32C-26.56-92.68-29-85.78-29-85.78l-1.84,5.13,5.44-.1h.22c-.05.25-.09.5-.13.75v0c-2.5,14.35-3.69,32.93-4,38.61C-38.25-33.42-37-18.22-36.54-13c0,.48.09,1.06.09,1.23-.06,2.71-3.25,19.08-4.8,21.56A10.16,10.16,0,0,0-43.59,16a18.43,18.43,0,0,1-3,3.12c-1.6,1.11-2.58,3-3,5.71C-50,26-51.22,29.45-52.3,33.18c-2.34,8.06-2.4,11.68-.23,13.84,2.72,2.73,10.35,4,16.28,4a34.57,34.57,0,0,0,13.12-2.34,7.54,7.54,0,0,0,4.56-5c1.1-3.92-.67-9-5.55-15.86-.65-5.35-3.11-12.29-4.06-14.83.58-3.6,2.91-16.76,7.27-26.51a145,145,0,0,0,7.8-22.31C-10-39.81-7.72-47.37-7.16-49.41l14.77-37a88.65,88.65,0,0,0,10.84-4.24l.39,1.46v0C29.77-48.27,31.66-42,32.16-40.65c0,.3-.12.84-.19,1.29-.81,4.85-2.7,16.18,6.26,47.93A25,25,0,0,1,37,13.87a17.1,17.1,0,0,0-2.38,6.9,10.82,10.82,0,0,0,.1,6.93c1.23,3.2,7.18,7.21,9,8.36,3.08,2,9.08,5.34,14.71,5.71.53,0,1.06,0,1.59,0,9.13,0,15.18-5.39,16-8.41a3.87,3.87,0,0,0,.12-1.58,4.43,4.43,0,0,0,.42-1.5,4.51,4.51,0,0,0-1.34-3.65l-1-1-1.47-.06a14.33,14.33,0,0,1-2.29-.33,6.81,6.81,0,0,0-2-2.95,13.75,13.75,0,0,0-4.52-2.16c-3.82-3.06-8.34-6.62-9.63-7.65-1.33-1.71-2.8-3.66-3.49-4.64-.16-2.83-.79-12.92-3.11-49.6.4-1.62.92-5.19-.09-10.81-.24-1.33-.77-7.06-.68-31.63l2.8.89.11-5c0-1,.54-25.1-2.78-40.51h0v-.34l0-.34-2.62-20.83A6.62,6.62,0,0,0,44-155a218.53,218.53,0,0,0,1.68-24.25c0-3.65,0-7.63-.25-12l26.79,21.68,2.56,2.06,2.38-2.25c13.32-12.56,29.39-26.73,33.89-29.36a18.42,18.42,0,0,0,4.51.41,178.22,178.22,0,0,0,18.74-1.64l1.25-.17.89-.89,5-5,2.41-2.41-2.16-2.63-2.19-2.68-.65-.79-1-.35a34,34,0,0,0-7.66-1.7c-.41-1.12-1.42-2.27-3.61-3a32.66,32.66,0,0,0-5.43-1.23,31.26,31.26,0,0,0-5-.42c-10.63,0-14.52,6.23-15.73,9L75-191.17l-33.45-31a18.73,18.73,0,0,0-3.68-5.17l-1-1-1.35-.13L29.42-229c-3.67-.54-10.22-1.88-14.7-4.93a28,28,0,0,1-.81-3.78q2.63.24,5.34.24c4.11,0,16.59,0,18.11-8.75,2.66-15.34-.55-34.86-7.68-47.86,1.46-2.41,1-5.39-.39-7.9a5,5,0,0,0,0-.77c-.18-2.07-1.64-4-3.15-5.36a8.36,8.36,0,0,0-.24-4c-.91-2.91-3.34-5.21-7.2-6.83a14.51,14.51,0,0,0-10.25-4.26,15.27,15.27,0,0,0-1.9.12,10.34,10.34,0,0,0-6-2ZM-33.17-157.61-22.32-178l5.91,3.71c.91,1.77,3,5.94,5.06,10.45,3.77,8.31,4.68,11.84,4.88,13.19a6.6,6.6,0,0,0-1.66,2.53,6.37,6.37,0,0,0-.14,3.71c-.34,1-.73,2.11-1.15,3.35L-13-143.58l-20.14-14ZM50.75,9Z"/><path class="cls-4" d="M38.31,21.47a7.27,7.27,0,0,0-.12,4.89C39.12,28.78,50.44,37.48,58.6,38c8.63.57,13.41-4.42,13.73-5.59s-5.57-5-5.57-5Z"/><path class="cls-5" d="M9.88-102.28-10.73-50.61s-2.65,9.79-5.81,12.94A139.19,139.19,0,0,1-24.35-15.1c-5.34,12-7.7,28.45-7.7,28.45s4.87,12.35,4.28,17.91c0,0,4.65,6.42,2.78,10.1s-9.2,1.5-9.2,1.5-12.24,1.61-14.06-1.44,2.3-11.23,2.3-11.23-.59-6.52,1.55-8A26.67,26.67,0,0,0-39.69,17s-.8-2.13,1.44-5,5.56-21.41,5.56-23.83-3-20.54,7-27.67c0,0,2.42-49.19,9.27-56s26.31-10.9,26.31-10.9Z"/><path class="cls-5" d="M17.22-109.93S34.47-44.76,35.76-41.77,30.3-33,42.07,8.32c0,0-.75,5.45-1.82,7.38s-3.53,6.84-.43,8.55S53,34.52,57.25,35.27s12.3-3,12.3-3,4.28-1.6,2.94-2.94c0,0-3.9-.16-5.18-1.44S51.48,15.16,51.48,15.16,47,9.39,47,9s-3.21-51.16-3.21-51.16,1.18-3.21,0-9.73-.61-47.63-.61-47.63Z"/><path class="cls-4" d="M54.48,34.2S55,23.42,66.76,27.4l.32.26a3.82,3.82,0,0,0-1.17-2.48A13.4,13.4,0,0,0,62,23.55s-10.81-2.67-10.65,8.82C51.39,32.37,53.07,34.74,54.48,34.2Z"/></g><path class="cls-6" d="M131.74,70.17H699.69a10,10,0,0,1,10,10V187a10,10,0,0,1-10,10H131.74a0,0,0,0,1,0,0V70.17A0,0,0,0,1,131.74,70.17Z"/><path class="cls-7" d="M228.17,96.48a6.66,6.66,0,0,1-1.66,4.69,5.61,5.61,0,0,1-4.32,1.8,5.45,5.45,0,0,1-4.25-1.81,6.67,6.67,0,0,1-1.64-4.68v-.17a6.75,6.75,0,0,1,1.63-4.69,5.45,5.45,0,0,1,4.25-1.81,5.6,5.6,0,0,1,4.33,1.81,6.67,6.67,0,0,1,1.66,4.69ZM227,96.29a6,6,0,0,0-1.31-4,4.39,4.39,0,0,0-3.54-1.54,4.27,4.27,0,0,0-3.47,1.54,6.09,6.09,0,0,0-1.27,4v.19a6.11,6.11,0,0,0,1.28,4,4.26,4.26,0,0,0,3.47,1.54,4.4,4.4,0,0,0,3.55-1.53,6.11,6.11,0,0,0,1.29-4Z"/><path class="cls-7" d="M239,98.3a5.15,5.15,0,0,1-1,3.4,3.51,3.51,0,0,1-2.88,1.27,4.31,4.31,0,0,1-1.94-.41,3.32,3.32,0,0,1-1.32-1.2l-.12,1.43h-1V90l-1.55-.11v-.78h2.68v5.69a3.59,3.59,0,0,1,1.31-1.23,3.89,3.89,0,0,1,1.9-.44,3.44,3.44,0,0,1,2.89,1.37,5.83,5.83,0,0,1,1,3.64Zm-1.14-.19a5.25,5.25,0,0,0-.76-3A2.53,2.53,0,0,0,234.83,94a3.18,3.18,0,0,0-1.93.54,3.29,3.29,0,0,0-1.07,1.4v4.3a3,3,0,0,0,1.13,1.31,3.35,3.35,0,0,0,1.88.49,2.61,2.61,0,0,0,2.24-1,4.52,4.52,0,0,0,.75-2.74Z"/><path class="cls-7" d="M248.35,96.21h-.93l-.13-1.34a2.9,2.9,0,0,0-1.08-.64,4.53,4.53,0,0,0-1.49-.23,3,3,0,0,0-1.87.5,1.47,1.47,0,0,0-.62,1.16,1.34,1.34,0,0,0,.54,1.09,5.4,5.4,0,0,0,2.14.76,7.23,7.23,0,0,1,2.74,1,2.08,2.08,0,0,1,.91,1.78,2.26,2.26,0,0,1-1,1.92,4.66,4.66,0,0,1-2.75.73,7,7,0,0,1-2.07-.29,5.16,5.16,0,0,1-1.62-.83V99.93H242l.16,1.36a2.8,2.8,0,0,0,1.16.61,5.76,5.76,0,0,0,1.45.19,3.29,3.29,0,0,0,1.95-.51,1.45,1.45,0,0,0,.71-1.21,1.53,1.53,0,0,0-.59-1.17,5.11,5.11,0,0,0-2.14-.81,7.77,7.77,0,0,1-2.72-1,2,2,0,0,1-.89-1.71,2.22,2.22,0,0,1,1-1.84,4.19,4.19,0,0,1,2.63-.76,6.4,6.4,0,0,1,2.06.32,4.37,4.37,0,0,1,1.52.87Z"/><path class="cls-7" d="M255.16,103a4.27,4.27,0,0,1-3.21-1.31,4.6,4.6,0,0,1-1.27-3.34v-.49a4.73,4.73,0,0,1,1.26-3.38A4.06,4.06,0,0,1,255,93.1a4,4,0,0,1,3,1.11,4,4,0,0,1,1.08,3v.9h-7.25v.26a4,4,0,0,0,.92,2.68,3.06,3.06,0,0,0,2.43,1.09,5.08,5.08,0,0,0,1.8-.28,3.53,3.53,0,0,0,1.28-.78l.48.72a4,4,0,0,1-1.46.89A6,6,0,0,1,255.16,103ZM255,94a2.83,2.83,0,0,0-2.11.89,3.74,3.74,0,0,0-1,2.24l0,0h6v-.26a2.9,2.9,0,0,0-.79-2.08A2.83,2.83,0,0,0,255,94Z"/><path class="cls-7" d="M263.55,93.28l.14,1.58V95a3.43,3.43,0,0,1,1.19-1.38,3.19,3.19,0,0,1,1.79-.5,2.86,2.86,0,0,1,.42,0l.34.07-.15,1-.85-.05a2.73,2.73,0,0,0-1.76.56,3,3,0,0,0-1,1.53v5.68l1.55.12v.77H261V102l1.55-.12V94.18L261,94.06v-.78h2.54Z"/><path class="cls-7" d="M272.05,94.06l-1.28.09,2.56,6.26.33,1.11h.06l.36-1.11,2.53-6.26-1.28-.09v-.78h3.45v.78l-1,.08-3.62,8.65h-.91l-3.64-8.65-1-.08v-.78h3.45Z"/><path class="cls-7" d="M284.44,103a4.27,4.27,0,0,1-3.21-1.31A4.6,4.6,0,0,1,280,98.32v-.49a4.73,4.73,0,0,1,1.26-3.38,4.06,4.06,0,0,1,3.06-1.35,4,4,0,0,1,3,1.11,4,4,0,0,1,1.08,3v.9h-7.25v.26A4,4,0,0,0,282,101a3.06,3.06,0,0,0,2.43,1.09,5.08,5.08,0,0,0,1.8-.28,3.53,3.53,0,0,0,1.28-.78l.49.72a4.13,4.13,0,0,1-1.47.89A6,6,0,0,1,284.44,103Zm-.16-9a2.85,2.85,0,0,0-2.11.89,3.74,3.74,0,0,0-1,2.24l0,0h6v-.26a2.9,2.9,0,0,0-.79-2.08A2.83,2.83,0,0,0,284.28,94Z"/><path class="cls-7" d="M295.09,98.11a5.89,5.89,0,0,1,1-3.64A3.45,3.45,0,0,1,299,93.1a4,4,0,0,1,1.85.41,3.69,3.69,0,0,1,1.31,1.18l.11-1.41h1v12.27l1.54.11v.79h-4.23v-.79l1.55-.11v-4a3.46,3.46,0,0,1-1.31,1.06A4.26,4.26,0,0,1,299,103a3.53,3.53,0,0,1-2.88-1.27,5.23,5.23,0,0,1-1-3.4Zm1.15.19a4.55,4.55,0,0,0,.75,2.75,2.58,2.58,0,0,0,2.24,1,3.33,3.33,0,0,0,1.79-.45,3.05,3.05,0,0,0,1.14-1.22V95.78a3.52,3.52,0,0,0-1.11-1.28,3.06,3.06,0,0,0-1.8-.5A2.5,2.5,0,0,0,297,95.15a5.3,5.3,0,0,0-.76,3Z"/><path class="cls-7" d="M313.5,101.22a3.39,3.39,0,0,1-1.33,1.3,4.09,4.09,0,0,1-2,.45,3.23,3.23,0,0,1-2.54-1,4.62,4.62,0,0,1-.92-3.16V94.18l-1.27-.12v-.78h2.4v5.53a3.82,3.82,0,0,0,.64,2.49,2.24,2.24,0,0,0,1.82.76,3.56,3.56,0,0,0,2.05-.53,2.81,2.81,0,0,0,1.08-1.46V94.18L312,94.06v-.78h2.6v8.62L316,102v.77H313.6Z"/><path class="cls-7" d="M322.17,103a4.23,4.23,0,0,1-3.2-1.31,4.61,4.61,0,0,1-1.28-3.34v-.49A4.74,4.74,0,0,1,319,94.45,4.06,4.06,0,0,1,322,93.1a4,4,0,0,1,3,1.11,4,4,0,0,1,1.08,3v.9h-7.25v.26a4,4,0,0,0,.93,2.68,3,3,0,0,0,2.42,1.09,5.1,5.1,0,0,0,1.81-.28,3.61,3.61,0,0,0,1.28-.78l.48.72a4,4,0,0,1-1.46.89A6,6,0,0,1,322.17,103ZM322,94a2.83,2.83,0,0,0-2.11.89,3.68,3.68,0,0,0-1,2.24l0,0h6v-.26a2.94,2.94,0,0,0-.79-2.08A2.83,2.83,0,0,0,322,94Z"/><path class="cls-7" d="M339.92,102.79c-.07-.32-.13-.6-.16-.84a5.52,5.52,0,0,1-.05-.71,4.44,4.44,0,0,1-1.51,1.24,4.59,4.59,0,0,1-2.14.49,3.47,3.47,0,0,1-2.34-.72,2.45,2.45,0,0,1-.82-2,2.38,2.38,0,0,1,1.22-2.09,6.17,6.17,0,0,1,3.33-.77h2.26V96.18a2,2,0,0,0-.7-1.6,3,3,0,0,0-2-.58,5.45,5.45,0,0,0-1.56.21,3.62,3.62,0,0,0-1.18.59l-.1,1.27h-.94V94.25a6,6,0,0,1,1.7-.83,7,7,0,0,1,2.12-.32,4.36,4.36,0,0,1,2.73.8,2.74,2.74,0,0,1,1,2.3v4.67c0,.2,0,.38,0,.56a4.35,4.35,0,0,0,.06.52l1,.07v.77Zm-3.74-.75a4.29,4.29,0,0,0,2.18-.53,3.16,3.16,0,0,0,1.35-1.36v-1.9h-2.28a4.51,4.51,0,0,0-2.48.59,1.74,1.74,0,0,0-.92,1.5,1.51,1.51,0,0,0,.57,1.23A2.4,2.4,0,0,0,336.18,102Z"/><path class="cls-7" d="M343.56,97.89a4.84,4.84,0,0,1,1.24-3.44,4.71,4.71,0,0,1,6.6,0,4.84,4.84,0,0,1,1.24,3.44v.29a4.85,4.85,0,0,1-1.24,3.45,4.23,4.23,0,0,1-3.29,1.34,4.27,4.27,0,0,1-3.31-1.34,4.85,4.85,0,0,1-1.24-3.45Zm1.14.29a4.3,4.3,0,0,0,.9,2.78,3.33,3.33,0,0,0,5,0,4.3,4.3,0,0,0,.9-2.78v-.29a4.32,4.32,0,0,0-.9-2.76A3.06,3.06,0,0,0,348.09,94a3,3,0,0,0-2.49,1.13,4.32,4.32,0,0,0-.9,2.76Z"/><path class="cls-7" d="M363.75,103a4.27,4.27,0,0,1-3.21-1.31,4.6,4.6,0,0,1-1.27-3.34v-.49a4.73,4.73,0,0,1,1.26-3.38,4.06,4.06,0,0,1,3.06-1.35,4,4,0,0,1,3,1.11,4,4,0,0,1,1.09,3v.9H360.4v.26a4,4,0,0,0,.92,2.68,3.06,3.06,0,0,0,2.43,1.09,5.08,5.08,0,0,0,1.8-.28,3.53,3.53,0,0,0,1.28-.78l.48.72a4,4,0,0,1-1.46.89A6,6,0,0,1,363.75,103Zm-.16-9a2.83,2.83,0,0,0-2.11.89,3.74,3.74,0,0,0-1,2.24l0,0h6v-.26a2.9,2.9,0,0,0-.79-2.08A2.83,2.83,0,0,0,363.59,94Z"/><path class="cls-7" d="M369.45,89.86v-.78h2.68V101.9l1.54.12v.77h-4.22V102l1.55-.12V90Z"/><path class="cls-7" d="M382.56,102.79a7.1,7.1,0,0,1-.16-.84,4.17,4.17,0,0,1,0-.71,4.48,4.48,0,0,1-1.52,1.24,4.53,4.53,0,0,1-2.14.49,3.44,3.44,0,0,1-2.33-.72,2.46,2.46,0,0,1-.83-2,2.37,2.37,0,0,1,1.23-2.09,6.11,6.11,0,0,1,3.32-.77h2.27V96.18a2,2,0,0,0-.71-1.6,3,3,0,0,0-2-.58,5.45,5.45,0,0,0-1.56.21,3.73,3.73,0,0,0-1.18.59l-.09,1.27h-.95V94.25a6.18,6.18,0,0,1,1.71-.83,6.9,6.9,0,0,1,2.11-.32,4.36,4.36,0,0,1,2.73.8,2.75,2.75,0,0,1,1,2.3v4.67c0,.2,0,.38,0,.56a4.35,4.35,0,0,0,.06.52l1,.07v.77Zm-3.74-.75a4.26,4.26,0,0,0,2.17-.53,3.18,3.18,0,0,0,1.36-1.36v-1.9h-2.29a4.49,4.49,0,0,0-2.47.59,1.73,1.73,0,0,0-.93,1.5,1.49,1.49,0,0,0,.58,1.23A2.38,2.38,0,0,0,378.82,102Z"/><path class="cls-7" d="M395,98.3a5.16,5.16,0,0,1-1,3.4A3.49,3.49,0,0,1,391.1,103a4.38,4.38,0,0,1-2-.41,3.46,3.46,0,0,1-1.32-1.2l-.12,1.43h-1V90l-1.54-.11v-.78h2.67v5.69a3.59,3.59,0,0,1,1.31-1.23,3.92,3.92,0,0,1,1.9-.44A3.43,3.43,0,0,1,394,94.47a5.83,5.83,0,0,1,1,3.64Zm-1.15-.19a5.17,5.17,0,0,0-.76-3A2.52,2.52,0,0,0,390.87,94a3.12,3.12,0,0,0-1.92.54,3.32,3.32,0,0,0-1.08,1.4v4.3a3,3,0,0,0,1.14,1.31,3.35,3.35,0,0,0,1.88.49,2.59,2.59,0,0,0,2.23-1,4.52,4.52,0,0,0,.75-2.74Z"/><path class="cls-7" d="M397,97.89a4.84,4.84,0,0,1,1.24-3.44,4.71,4.71,0,0,1,6.6,0A4.89,4.89,0,0,1,406,97.89v.29a4.85,4.85,0,0,1-1.24,3.45,4.73,4.73,0,0,1-6.6,0A4.85,4.85,0,0,1,397,98.18Zm1.14.29A4.3,4.3,0,0,0,399,101a3.33,3.33,0,0,0,5,0,4.3,4.3,0,0,0,.9-2.78v-.29a4.27,4.27,0,0,0-.91-2.76,3.32,3.32,0,0,0-5,0,4.32,4.32,0,0,0-.9,2.76Z"/><path class="cls-7" d="M410.34,93.28l.14,1.58V95a3.43,3.43,0,0,1,1.19-1.38,3.19,3.19,0,0,1,1.79-.5,2.77,2.77,0,0,1,.42,0l.34.07-.15,1-.85-.05a2.73,2.73,0,0,0-1.76.56,3,3,0,0,0-1,1.53v5.68L412,102v.77H407.8V102l1.55-.12V94.18l-1.55-.12v-.78h2.54Z"/><path class="cls-7" d="M422.78,102.79c-.07-.32-.13-.6-.16-.84a5.52,5.52,0,0,1-.05-.71,4.38,4.38,0,0,1-1.52,1.24,4.52,4.52,0,0,1-2.13.49,3.45,3.45,0,0,1-2.34-.72,2.45,2.45,0,0,1-.82-2A2.38,2.38,0,0,1,417,98.21a6.16,6.16,0,0,1,3.32-.77h2.27V96.18a2,2,0,0,0-.7-1.6,3.05,3.05,0,0,0-2-.58,5.45,5.45,0,0,0-1.56.21,3.68,3.68,0,0,0-1.19.59l-.09,1.27h-.94V94.25a6,6,0,0,1,1.7-.83,7,7,0,0,1,2.11-.32,4.37,4.37,0,0,1,2.74.8,2.74,2.74,0,0,1,1,2.3v4.67c0,.2,0,.38,0,.56a4.35,4.35,0,0,0,.06.52l1,.07v.77ZM419,102a4.26,4.26,0,0,0,2.17-.53,3.18,3.18,0,0,0,1.36-1.36v-1.9h-2.28a4.51,4.51,0,0,0-2.48.59,1.74,1.74,0,0,0-.92,1.5,1.51,1.51,0,0,0,.57,1.23A2.38,2.38,0,0,0,419,102Z"/><path class="cls-7" d="M428.87,93.28l.15,1.58V95a3.35,3.35,0,0,1,1.19-1.38,3.19,3.19,0,0,1,1.79-.5,3,3,0,0,1,.42,0l.34.07-.16,1-.84-.05a2.71,2.71,0,0,0-1.76.56,3,3,0,0,0-1,1.53v5.68l1.54.12v.77h-4.22V102l1.55-.12V94.18l-1.55-.12v-.78h2.53Z"/><path class="cls-7" d="M443.48,103a4.27,4.27,0,0,1-3.21-1.31A4.6,4.6,0,0,1,439,98.32v-.49a4.7,4.7,0,0,1,1.27-3.38,4,4,0,0,1,3.06-1.35,4,4,0,0,1,3,1.11,4,4,0,0,1,1.08,3v.9h-7.25v.26a4,4,0,0,0,.93,2.68,3,3,0,0,0,2.42,1.09,5.08,5.08,0,0,0,1.8-.28,3.66,3.66,0,0,0,1.29-.78l.48.72a4.09,4.09,0,0,1-1.46.89A6,6,0,0,1,443.48,103Zm-.15-9a2.82,2.82,0,0,0-2.11.89,3.63,3.63,0,0,0-1,2.24l0,0h6v-.26a2.9,2.9,0,0,0-.79-2.08A2.79,2.79,0,0,0,443.33,94Z"/><path class="cls-7" d="M456.86,96.21h-.93l-.13-1.34a2.75,2.75,0,0,0-1.08-.64,4.53,4.53,0,0,0-1.49-.23,3,3,0,0,0-1.87.5,1.47,1.47,0,0,0-.62,1.16,1.34,1.34,0,0,0,.54,1.09,5.47,5.47,0,0,0,2.14.76,7.23,7.23,0,0,1,2.74,1,2.08,2.08,0,0,1,.91,1.78,2.24,2.24,0,0,1-1,1.92,4.65,4.65,0,0,1-2.74.73,7.16,7.16,0,0,1-2.08-.29,5.16,5.16,0,0,1-1.62-.83V99.93h.92l.16,1.36a2.8,2.8,0,0,0,1.16.61,5.78,5.78,0,0,0,1.46.19,3.26,3.26,0,0,0,1.94-.51,1.43,1.43,0,0,0,.71-1.21,1.5,1.5,0,0,0-.59-1.17,5.11,5.11,0,0,0-2.14-.81,7.77,7.77,0,0,1-2.72-1,2,2,0,0,1-.89-1.71,2.22,2.22,0,0,1,1-1.84,4.19,4.19,0,0,1,2.63-.76,6.4,6.4,0,0,1,2.06.32,4.42,4.42,0,0,1,1.53.87Z"/><path class="cls-7" d="M466.59,96.21h-.93l-.13-1.34a2.9,2.9,0,0,0-1.08-.64A4.53,4.53,0,0,0,463,94a3,3,0,0,0-1.87.5,1.47,1.47,0,0,0-.62,1.16,1.34,1.34,0,0,0,.54,1.09,5.4,5.4,0,0,0,2.14.76,7.23,7.23,0,0,1,2.74,1,2.08,2.08,0,0,1,.91,1.78,2.26,2.26,0,0,1-1,1.92A4.66,4.66,0,0,1,463,103a7.09,7.09,0,0,1-2.07-.29,5.16,5.16,0,0,1-1.62-.83V99.93h.92l.16,1.36a2.8,2.8,0,0,0,1.16.61,5.76,5.76,0,0,0,1.45.19,3.27,3.27,0,0,0,1.95-.51,1.45,1.45,0,0,0,.71-1.21,1.53,1.53,0,0,0-.59-1.17,5.11,5.11,0,0,0-2.14-.81,7.77,7.77,0,0,1-2.72-1,2,2,0,0,1-.89-1.71,2.22,2.22,0,0,1,1-1.84A4.19,4.19,0,0,1,463,93.1a6.4,6.4,0,0,1,2.06.32,4.51,4.51,0,0,1,1.53.87Z"/><path class="cls-7" d="M473.4,103a4.27,4.27,0,0,1-3.21-1.31,4.6,4.6,0,0,1-1.27-3.34v-.49a4.73,4.73,0,0,1,1.26-3.38,4.07,4.07,0,0,1,3.07-1.35,4,4,0,0,1,3,1.11,4,4,0,0,1,1.08,3v.9h-7.25v.26A4,4,0,0,0,471,101a3.06,3.06,0,0,0,2.43,1.09,5.08,5.08,0,0,0,1.8-.28,3.53,3.53,0,0,0,1.28-.78l.49.72a4.13,4.13,0,0,1-1.47.89A6,6,0,0,1,473.4,103Zm-.15-9a2.85,2.85,0,0,0-2.12.89,3.74,3.74,0,0,0-1,2.24l0,0h6v-.26a2.9,2.9,0,0,0-.79-2.08A2.81,2.81,0,0,0,473.25,94Z"/><path class="cls-7" d="M483.81,94.06v-.78h2.55l.11,1.57a3.55,3.55,0,0,1,1.32-1.29,4,4,0,0,1,2-.46,3.45,3.45,0,0,1,2,.53,2.9,2.9,0,0,1,1.13,1.63,3.76,3.76,0,0,1,1.33-1.58,3.69,3.69,0,0,1,2.09-.58,3.23,3.23,0,0,1,2.54,1,4.62,4.62,0,0,1,.9,3.13v4.65l1.54.13v.77H497V102l1.55-.13V97.23a3.64,3.64,0,0,0-.67-2.49A2.43,2.43,0,0,0,496,94a2.64,2.64,0,0,0-2,.78,3.65,3.65,0,0,0-.89,2,.61.61,0,0,0,0,.14v5l1.55.12v.77h-4.23V102l1.54-.12V97.23a3.59,3.59,0,0,0-.68-2.47,2.4,2.4,0,0,0-1.86-.74,3,3,0,0,0-1.92.56,2.89,2.89,0,0,0-1,1.53v5.79L488,102v.77h-4.23V102l1.55-.12V94.18Z"/><path class="cls-7" d="M509.74,102.79a7.1,7.1,0,0,1-.16-.84,5.52,5.52,0,0,1-.05-.71,4.57,4.57,0,0,1-3.65,1.73,3.45,3.45,0,0,1-2.34-.72,2.45,2.45,0,0,1-.82-2,2.36,2.36,0,0,1,1.22-2.09,6.14,6.14,0,0,1,3.32-.77h2.27V96.18a1.94,1.94,0,0,0-.71-1.6,3,3,0,0,0-2-.58,5.45,5.45,0,0,0-1.56.21,3.73,3.73,0,0,0-1.18.59L504,96.07h-.94V94.25a6,6,0,0,1,1.7-.83,7,7,0,0,1,2.11-.32,4.39,4.39,0,0,1,2.74.8,2.77,2.77,0,0,1,1,2.3v4.67c0,.2,0,.38,0,.56a3,3,0,0,0,.07.52l1,.07v.77ZM506,102a4.26,4.26,0,0,0,2.17-.53,3.18,3.18,0,0,0,1.36-1.36v-1.9h-2.29a4.49,4.49,0,0,0-2.47.59,1.73,1.73,0,0,0-.93,1.5,1.52,1.52,0,0,0,.58,1.23A2.38,2.38,0,0,0,506,102Z"/><path class="cls-7" d="M513.07,94.06v-.78h2.5l.14,1.48A3.64,3.64,0,0,1,517,93.53,4.11,4.11,0,0,1,519,93.1a3.44,3.44,0,0,1,2.89,1.37,5.83,5.83,0,0,1,1,3.64v.19a5.15,5.15,0,0,1-1,3.4A3.51,3.51,0,0,1,519,103a4.31,4.31,0,0,1-1.89-.38,3.41,3.41,0,0,1-1.32-1.08v4l1.54.11v.79h-4.22v-.79l1.55-.11V94.18Zm8.68,4a5.14,5.14,0,0,0-.78-3A2.59,2.59,0,0,0,518.69,94a2.94,2.94,0,0,0-2.94,1.82v4.57a3,3,0,0,0,1.12,1.23,3.46,3.46,0,0,0,1.84.45,2.64,2.64,0,0,0,2.26-1,4.46,4.46,0,0,0,.78-2.75Z"/><path class="cls-7" d="M531.83,102.79c-.08-.32-.13-.6-.17-.84a5.53,5.53,0,0,1,0-.71,4.48,4.48,0,0,1-1.52,1.24A4.59,4.59,0,0,1,528,103a3.44,3.44,0,0,1-2.33-.72,2.46,2.46,0,0,1-.83-2A2.37,2.37,0,0,1,526,98.21a6.11,6.11,0,0,1,3.32-.77h2.27V96.18a2,2,0,0,0-.71-1.6,3,3,0,0,0-2-.58,5.45,5.45,0,0,0-1.56.21,3.62,3.62,0,0,0-1.18.59l-.1,1.27h-.94V94.25a6.18,6.18,0,0,1,1.71-.83A6.9,6.9,0,0,1,529,93.1a4.36,4.36,0,0,1,2.73.8,2.75,2.75,0,0,1,1,2.3v4.67c0,.2,0,.38,0,.56a4.35,4.35,0,0,0,.06.52l1,.07v.77Zm-3.74-.75a4.28,4.28,0,0,0,2.17-.53,3.18,3.18,0,0,0,1.36-1.36v-1.9h-2.29a4.47,4.47,0,0,0-2.47.59,1.73,1.73,0,0,0-.93,1.5,1.49,1.49,0,0,0,.58,1.23A2.38,2.38,0,0,0,528.09,102Z"/><path class="cls-7" d="M537.11,102.37a3.86,3.86,0,0,1-.35,1.58,4,4,0,0,1-1,1.31l-.67-.46a4.39,4.39,0,0,0,.66-1.15,3.64,3.64,0,0,0,.21-1.27v-1.24h1.13Z"/><path class="cls-7" d="M546.89,94.06l-1.28.09,2.56,6.26.33,1.11h.06l.36-1.11,2.52-6.26-1.28-.09v-.78h3.46v.78l-1,.08L549,102.79h-.91l-3.63-8.65-1-.08v-.78h3.46Z"/><path class="cls-7" d="M554.73,97.89A4.84,4.84,0,0,1,556,94.45a4.71,4.71,0,0,1,6.6,0,4.89,4.89,0,0,1,1.24,3.44v.29a4.85,4.85,0,0,1-1.24,3.45,4.23,4.23,0,0,1-3.29,1.34,4.27,4.27,0,0,1-3.31-1.34,4.85,4.85,0,0,1-1.24-3.45Zm1.14.29a4.3,4.3,0,0,0,.9,2.78,3.33,3.33,0,0,0,5,0,4.3,4.3,0,0,0,.9-2.78v-.29a4.27,4.27,0,0,0-.91-2.76,3.32,3.32,0,0,0-5,0,4.32,4.32,0,0,0-.9,2.76Z"/><path class="cls-7" d="M570.05,102.09a3.41,3.41,0,0,0,2-.6,1.92,1.92,0,0,0,.86-1.66h1l0,0a2.56,2.56,0,0,1-1.14,2.21,4.42,4.42,0,0,1-2.74.88,4,4,0,0,1-3.24-1.33,5,5,0,0,1-1.15-3.42v-.37a5,5,0,0,1,1.15-3.41A4,4,0,0,1,570,93.1a5.49,5.49,0,0,1,2.17.42,4.19,4.19,0,0,1,1.6,1.12l.05,2.08h-1L572.71,95a3.11,3.11,0,0,0-1.13-.75A4,4,0,0,0,570,94a2.84,2.84,0,0,0-2.45,1.09,4.57,4.57,0,0,0-.79,2.76v.37a4.62,4.62,0,0,0,.79,2.78A2.83,2.83,0,0,0,570.05,102.09Z"/><path class="cls-7" d="M580.57,103a4.27,4.27,0,0,1-3.21-1.31,4.6,4.6,0,0,1-1.27-3.34v-.49a4.7,4.7,0,0,1,1.27-3.38,4,4,0,0,1,3.06-1.35,4,4,0,0,1,3,1.11,4,4,0,0,1,1.08,3v.9h-7.25v.26a4,4,0,0,0,.93,2.68,3,3,0,0,0,2.42,1.09,5.08,5.08,0,0,0,1.8-.28,3.66,3.66,0,0,0,1.29-.78l.48.72a4.09,4.09,0,0,1-1.46.89A6,6,0,0,1,580.57,103Zm-.15-9a2.82,2.82,0,0,0-2.11.89,3.63,3.63,0,0,0-1,2.24l0,0h6v-.26a2.9,2.9,0,0,0-.79-2.08A2.79,2.79,0,0,0,580.42,94Zm2.69-2.55v.16H582l-1.58-1.48-1.58,1.48h-1v-.19L580,89.48h.93Z"/><path class="cls-7" d="M220.6,123.69a3.39,3.39,0,0,0,2-.6,1.9,1.9,0,0,0,.87-1.66h1l0,0a2.58,2.58,0,0,1-1.13,2.21,4.47,4.47,0,0,1-2.75.88,4.05,4.05,0,0,1-3.24-1.33,5.09,5.09,0,0,1-1.15-3.42v-.37a5.08,5.08,0,0,1,1.15-3.41,4,4,0,0,1,3.23-1.34,5.49,5.49,0,0,1,2.17.42,4.23,4.23,0,0,1,1.61,1.12l0,2.08h-1l-.18-1.69a3.24,3.24,0,0,0-1.14-.75,3.92,3.92,0,0,0-1.54-.28,2.8,2.8,0,0,0-2.44,1.09,4.58,4.58,0,0,0-.8,2.76v.37a4.69,4.69,0,0,0,.79,2.78A2.86,2.86,0,0,0,220.6,123.69Z"/><path class="cls-7" d="M231.12,124.57a4.23,4.23,0,0,1-3.2-1.31,4.62,4.62,0,0,1-1.28-3.35v-.48a4.74,4.74,0,0,1,1.27-3.38A4.06,4.06,0,0,1,231,114.7a4,4,0,0,1,3,1.11,4,4,0,0,1,1.09,3v.9h-7.26v.25a4,4,0,0,0,.93,2.69,3.06,3.06,0,0,0,2.42,1.09,5.34,5.34,0,0,0,1.81-.28,3.61,3.61,0,0,0,1.28-.78l.48.72a4,4,0,0,1-1.46.89A6,6,0,0,1,231.12,124.57Zm-.15-9a2.83,2.83,0,0,0-2.11.89,3.68,3.68,0,0,0-1,2.24l0,0h6v-.26a2.94,2.94,0,0,0-.79-2.08A2.83,2.83,0,0,0,231,115.6Z"/><path class="cls-7" d="M239.51,114.88l.15,1.58v.12a3.43,3.43,0,0,1,1.19-1.38,3.19,3.19,0,0,1,1.79-.5,3,3,0,0,1,.42,0l.34.07-.15,1-.85,0a2.73,2.73,0,0,0-1.76.56,3,3,0,0,0-1,1.53v5.68l1.54.12v.77H237v-.77l1.55-.12v-7.72l-1.55-.12v-.78h2.53Z"/><path class="cls-7" d="M247.78,112.44v2.44H250v.86h-2.26v6.2a1.88,1.88,0,0,0,.37,1.32,1.25,1.25,0,0,0,1,.39l.54,0,.6-.08.17.79a3.48,3.48,0,0,1-.69.17,5.76,5.76,0,0,1-.82.06,2.21,2.21,0,0,1-1.68-.63,2.78,2.78,0,0,1-.61-2v-6.2h-1.76v-.86h1.76v-2.44Z"/><path class="cls-7" d="M259.22,124.39a7.1,7.1,0,0,1-.16-.84,5.52,5.52,0,0,1-.05-.71,4.57,4.57,0,0,1-3.65,1.73,3.45,3.45,0,0,1-2.34-.72,2.45,2.45,0,0,1-.82-1.95,2.36,2.36,0,0,1,1.22-2.09,6.14,6.14,0,0,1,3.32-.77H259v-1.26a2,2,0,0,0-.71-1.6,3,3,0,0,0-2-.58,5.45,5.45,0,0,0-1.56.21,3.73,3.73,0,0,0-1.18.59l-.09,1.27h-.94v-1.82a6,6,0,0,1,1.7-.83,6.9,6.9,0,0,1,2.11-.32,4.34,4.34,0,0,1,2.73.8,2.75,2.75,0,0,1,1,2.3v4.67c0,.2,0,.38,0,.56a4.35,4.35,0,0,0,.06.52l1,.07v.77Zm-3.74-.75a4.26,4.26,0,0,0,2.17-.53,3.18,3.18,0,0,0,1.36-1.36v-1.91h-2.29a4.49,4.49,0,0,0-2.47.6,1.73,1.73,0,0,0-.93,1.5,1.52,1.52,0,0,0,.58,1.23A2.38,2.38,0,0,0,255.48,123.64Z"/><path class="cls-7" d="M262.61,115.66v-.78h2.55l.1,1.57a3.48,3.48,0,0,1,1.32-1.29,4.07,4.07,0,0,1,2-.46,3.45,3.45,0,0,1,2,.53,2.9,2.9,0,0,1,1.13,1.63,3.58,3.58,0,0,1,3.42-2.16,3.24,3.24,0,0,1,2.54,1,4.62,4.62,0,0,1,.9,3.13v4.65l1.54.13v.77H275.8v-.77l1.55-.13v-4.66a3.69,3.69,0,0,0-.67-2.49,2.43,2.43,0,0,0-1.87-.72,2.64,2.64,0,0,0-2,.78,3.58,3.58,0,0,0-.89,2v.14a.66.66,0,0,1,0,.15v4.82l1.55.12v.77H269.2v-.77l1.55-.12v-4.67a3.65,3.65,0,0,0-.68-2.47,2.4,2.4,0,0,0-1.86-.74,3.08,3.08,0,0,0-1.93.56,3,3,0,0,0-1,1.53v5.79l1.55.12v.77h-4.23v-.77l1.54-.12v-7.72Z"/><path class="cls-7" d="M285.88,124.57a4.27,4.27,0,0,1-3.21-1.31,4.61,4.61,0,0,1-1.27-3.35v-.48a4.7,4.7,0,0,1,1.27-3.38,4,4,0,0,1,3.06-1.35,4,4,0,0,1,3,1.11,4,4,0,0,1,1.08,3v.9h-7.25v.25a4,4,0,0,0,.92,2.69,3.06,3.06,0,0,0,2.43,1.09,5.32,5.32,0,0,0,1.8-.28,3.53,3.53,0,0,0,1.28-.78l.49.72a4.09,4.09,0,0,1-1.46.89A6,6,0,0,1,285.88,124.57Zm-.15-9a2.82,2.82,0,0,0-2.11.89,3.69,3.69,0,0,0-1,2.24l0,0h6v-.26a2.9,2.9,0,0,0-.79-2.08A2.79,2.79,0,0,0,285.73,115.6Z"/><path class="cls-7" d="M291.6,123.62l1.55-.12v-7.72l-1.55-.12v-.78h2.56l.1,1.66a3.48,3.48,0,0,1,1.33-1.36,4,4,0,0,1,2-.48,3.31,3.31,0,0,1,2.55,1,4.24,4.24,0,0,1,.87,2.95v4.9l1.55.12v.77h-4.24v-.77l1.55-.12v-4.89a3.3,3.3,0,0,0-.66-2.32,2.49,2.49,0,0,0-1.87-.67,3.08,3.08,0,0,0-1.95.58,3.21,3.21,0,0,0-1.09,1.55v5.75l1.55.12v.77H291.6Z"/><path class="cls-7" d="M306.94,112.44v2.44h2.26v.86h-2.26v6.2a1.88,1.88,0,0,0,.37,1.32,1.25,1.25,0,0,0,1,.39l.54,0,.6-.08.17.79a3.48,3.48,0,0,1-.69.17,5.76,5.76,0,0,1-.82.06,2.25,2.25,0,0,1-1.69-.63,2.83,2.83,0,0,1-.6-2v-6.2H304v-.86h1.76v-2.44Z"/><path class="cls-7" d="M315.81,124.57a4.25,4.25,0,0,1-3.2-1.31,4.61,4.61,0,0,1-1.27-3.35v-.48a4.73,4.73,0,0,1,1.26-3.38,4.06,4.06,0,0,1,3.06-1.35,4,4,0,0,1,3,1.11,4,4,0,0,1,1.09,3v.9h-7.26v.25a4,4,0,0,0,.93,2.69,3.06,3.06,0,0,0,2.42,1.09,5.34,5.34,0,0,0,1.81-.28,3.53,3.53,0,0,0,1.28-.78l.48.72a4,4,0,0,1-1.46.89A6,6,0,0,1,315.81,124.57Zm-.15-9a2.83,2.83,0,0,0-2.11.89,3.68,3.68,0,0,0-1,2.24l0,0h6v-.26a2.94,2.94,0,0,0-.79-2.08A2.83,2.83,0,0,0,315.66,115.6Z"/><path class="cls-7" d="M329.45,115.66l-1.28.09,2.57,6.26.33,1.11h.05l.37-1.11,2.52-6.26-1.28-.09v-.78h3.45v.78l-1,.08-3.63,8.65h-.91L327,115.74l-1-.08v-.78h3.45Z"/><path class="cls-7" d="M344.38,124.39c-.07-.32-.13-.6-.16-.84a5.52,5.52,0,0,1-.05-.71,4.34,4.34,0,0,1-1.51,1.24,4.59,4.59,0,0,1-2.14.49,3.42,3.42,0,0,1-2.33-.72,2.43,2.43,0,0,1-.83-1.95,2.38,2.38,0,0,1,1.22-2.09,6.17,6.17,0,0,1,3.33-.77h2.26v-1.26a2,2,0,0,0-.7-1.6,3,3,0,0,0-2-.58,5.45,5.45,0,0,0-1.56.21,3.62,3.62,0,0,0-1.18.59l-.1,1.27h-.94v-1.82a6.12,6.12,0,0,1,1.7-.83,7,7,0,0,1,2.12-.32,4.36,4.36,0,0,1,2.73.8,2.74,2.74,0,0,1,1,2.3v4.67c0,.2,0,.38,0,.56a4.35,4.35,0,0,0,.06.52l1,.07v.77Zm-3.74-.75a4.29,4.29,0,0,0,2.18-.53,3.16,3.16,0,0,0,1.35-1.36v-1.91h-2.28a4.47,4.47,0,0,0-2.47.6,1.73,1.73,0,0,0-.93,1.5,1.51,1.51,0,0,0,.57,1.23A2.4,2.4,0,0,0,340.64,123.64Z"/><path class="cls-7" d="M347.94,123.62l1.55-.12v-7.72l-1.55-.12v-.78h2.68v8.62l1.55.12v.77h-4.23Zm2.68-11.47h-1.13v-1.47h1.13Z"/><path class="cls-7" d="M358.72,123.62l1.55-.12v-7.72l-1.55-.12v-.78h2.68v8.62l1.55.12v.77h-4.23Zm2.68-11.47h-1.13v-1.47h1.13Z"/><path class="cls-7" d="M364.9,119.71a5.83,5.83,0,0,1,1.05-3.64,3.47,3.47,0,0,1,2.91-1.37,3.84,3.84,0,0,1,1.9.45,3.66,3.66,0,0,1,1.32,1.25l.13-1.52h1v9.39a3.93,3.93,0,0,1-1.07,2.9,4.1,4.1,0,0,1-3,1.06,8.19,8.19,0,0,1-1.58-.17,6.71,6.71,0,0,1-1.47-.45l.31-.89a7,7,0,0,0,1.29.42,6.6,6.6,0,0,0,1.43.15,2.86,2.86,0,0,0,2.2-.8,3.12,3.12,0,0,0,.74-2.22v-1.21a3.48,3.48,0,0,1-1.32,1.12,4.19,4.19,0,0,1-1.87.39A3.52,3.52,0,0,1,366,123.3a5.18,5.18,0,0,1-1.05-3.4Zm1.14.19a4.44,4.44,0,0,0,.76,2.73,2.59,2.59,0,0,0,2.25,1,3.41,3.41,0,0,0,1.85-.47,3.05,3.05,0,0,0,1.13-1.28V117.5a3.32,3.32,0,0,0-1.09-1.36,3.07,3.07,0,0,0-1.87-.52,2.54,2.54,0,0,0-2.26,1.14,5.21,5.21,0,0,0-.77,2.95Z"/><path class="cls-7" d="M375.54,123.62l1.55-.12v-7.72l-1.55-.12v-.78h2.56l.1,1.66a3.48,3.48,0,0,1,1.33-1.36,4,4,0,0,1,2-.48,3.31,3.31,0,0,1,2.55,1,4.24,4.24,0,0,1,.87,2.95v4.9l1.55.12v.77h-4.24v-.77l1.55-.12v-4.89a3.3,3.3,0,0,0-.66-2.32,2.49,2.49,0,0,0-1.87-.67,3.08,3.08,0,0,0-1.95.58,3.21,3.21,0,0,0-1.09,1.55v5.75l1.55.12v.77h-4.24Z"/><path class="cls-7" d="M388.18,119.49a4.84,4.84,0,0,1,1.24-3.44,4.71,4.71,0,0,1,6.6,0,4.89,4.89,0,0,1,1.24,3.44v.29a4.85,4.85,0,0,1-1.24,3.45,4.73,4.73,0,0,1-6.6,0,4.85,4.85,0,0,1-1.24-3.45Zm1.13.29a4.32,4.32,0,0,0,.91,2.78,3.33,3.33,0,0,0,5,0,4.32,4.32,0,0,0,.9-2.78v-.29a4.27,4.27,0,0,0-.91-2.76,3.32,3.32,0,0,0-5,0,4.32,4.32,0,0,0-.91,2.76Z"/><path class="cls-7" d="M401.57,114.88l.14,1.58v.12a3.43,3.43,0,0,1,1.19-1.38,3.19,3.19,0,0,1,1.79-.5,2.77,2.77,0,0,1,.42,0l.34.07-.15,1-.85,0a2.73,2.73,0,0,0-1.76.56,3,3,0,0,0-1,1.53v5.68l1.55.12v.77H399v-.77l1.55-.12v-7.72l-1.55-.12v-.78h2.54Z"/><path class="cls-7" d="M414,124.39a7.1,7.1,0,0,1-.16-.84,5.52,5.52,0,0,1-.05-.71,4.38,4.38,0,0,1-1.52,1.24,4.52,4.52,0,0,1-2.13.49,3.45,3.45,0,0,1-2.34-.72,2.45,2.45,0,0,1-.82-1.95,2.38,2.38,0,0,1,1.22-2.09,6.14,6.14,0,0,1,3.32-.77h2.27v-1.26a1.94,1.94,0,0,0-.71-1.6,3,3,0,0,0-2-.58,5.57,5.57,0,0,0-1.57.21,3.73,3.73,0,0,0-1.18.59l-.09,1.27h-.94v-1.82a6,6,0,0,1,1.7-.83,7,7,0,0,1,2.11-.32,4.37,4.37,0,0,1,2.74.8,2.74,2.74,0,0,1,1,2.3v4.67c0,.2,0,.38,0,.56a4.35,4.35,0,0,0,.06.52l1,.07v.77Zm-3.74-.75a4.26,4.26,0,0,0,2.17-.53,3.18,3.18,0,0,0,1.36-1.36v-1.91h-2.29a4.49,4.49,0,0,0-2.47.6,1.72,1.72,0,0,0-.92,1.5,1.51,1.51,0,0,0,.57,1.23A2.38,2.38,0,0,0,410.27,123.64Z"/><path class="cls-7" d="M420.1,114.88l.15,1.58v.12a3.35,3.35,0,0,1,1.19-1.38,3.19,3.19,0,0,1,1.79-.5,3,3,0,0,1,.42,0l.34.07-.16,1-.84,0a2.71,2.71,0,0,0-1.76.56,3,3,0,0,0-1,1.53v5.68l1.54.12v.77h-4.22v-.77l1.55-.12v-7.72l-1.55-.12v-.78h2.53Z"/><path class="cls-7" d="M437.32,123a3.41,3.41,0,0,1-1.32,1.15,4.19,4.19,0,0,1-1.9.4,3.53,3.53,0,0,1-2.88-1.27,5.23,5.23,0,0,1-1-3.4v-.19a5.89,5.89,0,0,1,1-3.64,3.45,3.45,0,0,1,2.9-1.37,3.87,3.87,0,0,1,1.86.42,3.64,3.64,0,0,1,1.31,1.19v-4.74l-1.54-.11v-.78h2.68V123.5l1.55.12v.77h-2.56Zm-6-3.12a4.52,4.52,0,0,0,.75,2.74,2.58,2.58,0,0,0,2.24,1,3.36,3.36,0,0,0,1.83-.46,3.06,3.06,0,0,0,1.14-1.25v-4.5a3.34,3.34,0,0,0-1.09-1.32,3.15,3.15,0,0,0-1.86-.51,2.51,2.51,0,0,0-2.25,1.14,5.17,5.17,0,0,0-.76,2.95Z"/><path class="cls-7" d="M441.65,123.62l1.55-.12v-7.72l-1.55-.12v-.78h2.68v8.62l1.54.12v.77h-4.22Zm2.68-11.47H443.2v-1.47h1.13Z"/><path class="cls-7" d="M450.76,115.66l-1.28.09L452,122l.33,1.11h.06l.36-1.11,2.53-6.26-1.28-.09v-.78h3.45v.78l-1,.08-3.62,8.65H452l-3.64-8.65-1-.08v-.78h3.45Z"/><path class="cls-7" d="M463.15,124.57a4.25,4.25,0,0,1-3.21-1.31,4.61,4.61,0,0,1-1.27-3.35v-.48a4.73,4.73,0,0,1,1.26-3.38A4.06,4.06,0,0,1,463,114.7a4,4,0,0,1,3,1.11,4,4,0,0,1,1.09,3v.9H459.8v.25a4,4,0,0,0,.92,2.69,3.06,3.06,0,0,0,2.43,1.09,5.32,5.32,0,0,0,1.8-.28,3.53,3.53,0,0,0,1.28-.78l.48.72a4,4,0,0,1-1.46.89A6,6,0,0,1,463.15,124.57Zm-.16-9a2.83,2.83,0,0,0-2.11.89,3.74,3.74,0,0,0-1,2.24l0,0h6v-.26a2.94,2.94,0,0,0-.79-2.08A2.83,2.83,0,0,0,463,115.6Z"/><path class="cls-7" d="M471.54,114.88l.14,1.58v.12a3.43,3.43,0,0,1,1.19-1.38,3.19,3.19,0,0,1,1.79-.5,3,3,0,0,1,.42,0l.34.07-.15,1-.85,0a2.73,2.73,0,0,0-1.76.56,3,3,0,0,0-1,1.53v5.68l1.54.12v.77H469v-.77l1.55-.12v-7.72l-1.55-.12v-.78h2.54Z"/><path class="cls-7" d="M484.34,117.81h-.93l-.13-1.34a2.9,2.9,0,0,0-1.08-.64,4.53,4.53,0,0,0-1.49-.23,3,3,0,0,0-1.87.5,1.47,1.47,0,0,0-.62,1.16,1.34,1.34,0,0,0,.54,1.09,5.4,5.4,0,0,0,2.13.76,7.22,7.22,0,0,1,2.75,1,2.08,2.08,0,0,1,.91,1.78,2.26,2.26,0,0,1-1,1.92,4.66,4.66,0,0,1-2.75.73,7,7,0,0,1-2.07-.29,5.06,5.06,0,0,1-1.62-.83v-1.92H478l.16,1.36a2.82,2.82,0,0,0,1.15.61,5.9,5.9,0,0,0,1.46.19,3.32,3.32,0,0,0,1.95-.51,1.45,1.45,0,0,0,.71-1.21,1.53,1.53,0,0,0-.59-1.17,5.11,5.11,0,0,0-2.14-.81,7.69,7.69,0,0,1-2.72-1,2,2,0,0,1-.89-1.71,2.24,2.24,0,0,1,1-1.85,4.25,4.25,0,0,1,2.63-.75,6.4,6.4,0,0,1,2.06.32,4.37,4.37,0,0,1,1.52.87Z"/><path class="cls-7" d="M486.62,119.49a4.84,4.84,0,0,1,1.24-3.44,4.71,4.71,0,0,1,6.6,0,4.84,4.84,0,0,1,1.24,3.44v.29a4.85,4.85,0,0,1-1.24,3.45,4.23,4.23,0,0,1-3.29,1.34,4.27,4.27,0,0,1-3.31-1.34,4.85,4.85,0,0,1-1.24-3.45Zm1.14.29a4.32,4.32,0,0,0,.9,2.78,3.33,3.33,0,0,0,5,0,4.32,4.32,0,0,0,.9-2.78v-.29a4.32,4.32,0,0,0-.9-2.76,3.06,3.06,0,0,0-2.51-1.13,3,3,0,0,0-2.49,1.13,4.32,4.32,0,0,0-.9,2.76Z"/><path class="cls-7" d="M505,117.81h-.93l-.13-1.34a2.82,2.82,0,0,0-1.08-.64,4.53,4.53,0,0,0-1.49-.23,3,3,0,0,0-1.87.5,1.47,1.47,0,0,0-.62,1.16,1.34,1.34,0,0,0,.54,1.09,5.4,5.4,0,0,0,2.14.76,7.23,7.23,0,0,1,2.74,1,2.08,2.08,0,0,1,.91,1.78,2.26,2.26,0,0,1-1,1.92,4.66,4.66,0,0,1-2.75.73,7.09,7.09,0,0,1-2.07-.29,5.16,5.16,0,0,1-1.62-.83v-1.92h.92l.16,1.36a2.8,2.8,0,0,0,1.16.61,5.76,5.76,0,0,0,1.45.19,3.27,3.27,0,0,0,1.95-.51,1.45,1.45,0,0,0,.71-1.21,1.53,1.53,0,0,0-.59-1.17,5.11,5.11,0,0,0-2.14-.81,7.77,7.77,0,0,1-2.72-1,2,2,0,0,1-.89-1.71,2.24,2.24,0,0,1,1-1.85,4.25,4.25,0,0,1,2.63-.75,6.4,6.4,0,0,1,2.06.32,4.51,4.51,0,0,1,1.53.87Z"/><path class="cls-7" d="M511.78,111.46v-.78h2.68V123.5l1.54.12v.77h-4.22v-.77l1.55-.12V111.57Z"/><path class="cls-7" d="M517.61,119.49a4.84,4.84,0,0,1,1.24-3.44,4.71,4.71,0,0,1,6.6,0,4.89,4.89,0,0,1,1.24,3.44v.29a4.85,4.85,0,0,1-1.24,3.45,4.23,4.23,0,0,1-3.29,1.34,4.27,4.27,0,0,1-3.31-1.34,4.85,4.85,0,0,1-1.24-3.45Zm1.14.29a4.32,4.32,0,0,0,.9,2.78,3.33,3.33,0,0,0,5,0,4.32,4.32,0,0,0,.9-2.78v-.29a4.27,4.27,0,0,0-.91-2.76,3.32,3.32,0,0,0-5,0,4.32,4.32,0,0,0-.9,2.76Z"/><path class="cls-7" d="M532.92,123.69a3.42,3.42,0,0,0,2-.6,1.92,1.92,0,0,0,.86-1.66h1l0,0a2.56,2.56,0,0,1-1.14,2.21,4.45,4.45,0,0,1-2.75.88,4,4,0,0,1-3.23-1.33,5,5,0,0,1-1.15-3.42v-.37a5,5,0,0,1,1.15-3.41,4,4,0,0,1,3.23-1.34,5.49,5.49,0,0,1,2.17.42,4.19,4.19,0,0,1,1.6,1.12l0,2.08h-1l-.18-1.69a3.11,3.11,0,0,0-1.13-.75,4,4,0,0,0-1.54-.28,2.81,2.81,0,0,0-2.45,1.09,4.57,4.57,0,0,0-.79,2.76v.37a4.62,4.62,0,0,0,.79,2.78A2.83,2.83,0,0,0,532.92,123.69Z"/><path class="cls-7" d="M546,124.39c-.07-.32-.13-.6-.16-.84a5.52,5.52,0,0,1-.05-.71,4.44,4.44,0,0,1-1.51,1.24,4.59,4.59,0,0,1-2.14.49,3.42,3.42,0,0,1-2.33-.72,2.46,2.46,0,0,1-.83-1.95,2.38,2.38,0,0,1,1.22-2.09,6.17,6.17,0,0,1,3.33-.77h2.26v-1.26a2,2,0,0,0-.7-1.6,3,3,0,0,0-2-.58,5.45,5.45,0,0,0-1.56.21,3.62,3.62,0,0,0-1.18.59l-.1,1.27h-.94v-1.82a6.12,6.12,0,0,1,1.7-.83,7,7,0,0,1,2.12-.32,4.36,4.36,0,0,1,2.73.8,2.74,2.74,0,0,1,1,2.3v4.67c0,.2,0,.38,0,.56a4.35,4.35,0,0,0,.06.52l1,.07v.77Zm-3.74-.75a4.29,4.29,0,0,0,2.18-.53,3.16,3.16,0,0,0,1.35-1.36v-1.91h-2.28a4.47,4.47,0,0,0-2.47.6,1.73,1.73,0,0,0-.93,1.5,1.51,1.51,0,0,0,.57,1.23A2.4,2.4,0,0,0,542.27,123.64Z"/><path class="cls-7" d="M549.57,123.62l1.55-.12v-7.72l-1.55-.12v-.78h2.68v8.62l1.55.12v.77h-4.23Zm2.68-11.47h-1.13v-1.47h1.13Z"/><path class="cls-7" d="M563.15,117.81h-.93l-.13-1.34a2.75,2.75,0,0,0-1.08-.64,4.53,4.53,0,0,0-1.49-.23,3,3,0,0,0-1.87.5,1.47,1.47,0,0,0-.62,1.16,1.34,1.34,0,0,0,.54,1.09,5.47,5.47,0,0,0,2.14.76,7.23,7.23,0,0,1,2.74,1,2.08,2.08,0,0,1,.91,1.78,2.24,2.24,0,0,1-1,1.92,4.65,4.65,0,0,1-2.74.73,7.16,7.16,0,0,1-2.08-.29,5.16,5.16,0,0,1-1.62-.83v-1.92h.92l.17,1.36a2.7,2.7,0,0,0,1.15.61,5.78,5.78,0,0,0,1.46.19,3.26,3.26,0,0,0,1.94-.51,1.43,1.43,0,0,0,.71-1.21,1.5,1.5,0,0,0-.59-1.17,5,5,0,0,0-2.14-.81,7.77,7.77,0,0,1-2.72-1,2,2,0,0,1-.89-1.71,2.26,2.26,0,0,1,1-1.85,4.25,4.25,0,0,1,2.63-.75,6.4,6.4,0,0,1,2.06.32,4.42,4.42,0,0,1,1.53.87Z"/><path class="cls-7" d="M574.69,124.57a4.27,4.27,0,0,1-3.21-1.31,4.61,4.61,0,0,1-1.27-3.35v-.48a4.73,4.73,0,0,1,1.26-3.38,4.06,4.06,0,0,1,3.06-1.35,4,4,0,0,1,3,1.11,4,4,0,0,1,1.08,3v.9h-7.25v.25a4,4,0,0,0,.92,2.69,3.06,3.06,0,0,0,2.43,1.09,5.32,5.32,0,0,0,1.8-.28,3.53,3.53,0,0,0,1.28-.78l.49.72a4.13,4.13,0,0,1-1.47.89A6,6,0,0,1,574.69,124.57Zm-.16-9a2.85,2.85,0,0,0-2.11.89,3.74,3.74,0,0,0-1,2.24l0,0h6v-.26a2.9,2.9,0,0,0-.79-2.08A2.83,2.83,0,0,0,574.53,115.6Z"/><path class="cls-7" d="M220.6,145.29a3.39,3.39,0,0,0,2-.6,1.9,1.9,0,0,0,.87-1.66h1l0,.05a2.58,2.58,0,0,1-1.13,2.21,4.47,4.47,0,0,1-2.75.88,4.05,4.05,0,0,1-3.24-1.33,5.09,5.09,0,0,1-1.15-3.42v-.37a5.08,5.08,0,0,1,1.15-3.41,4,4,0,0,1,3.23-1.34,5.49,5.49,0,0,1,2.17.42,4.23,4.23,0,0,1,1.61,1.12l0,2.08h-1l-.18-1.69a3.24,3.24,0,0,0-1.14-.75,3.92,3.92,0,0,0-1.54-.28,2.82,2.82,0,0,0-2.44,1.09,4.58,4.58,0,0,0-.8,2.76v.37a4.69,4.69,0,0,0,.79,2.78A2.86,2.86,0,0,0,220.6,145.29Z"/><path class="cls-7" d="M233.69,146a7.1,7.1,0,0,1-.16-.84,4.17,4.17,0,0,1-.05-.71,4.48,4.48,0,0,1-1.52,1.24,4.53,4.53,0,0,1-2.14.49,3.44,3.44,0,0,1-2.33-.72,2.46,2.46,0,0,1-.83-1.95,2.37,2.37,0,0,1,1.23-2.09,6.11,6.11,0,0,1,3.32-.77h2.27v-1.26a2,2,0,0,0-.71-1.6,3,3,0,0,0-2-.58,5.45,5.45,0,0,0-1.56.21,3.73,3.73,0,0,0-1.18.59l-.1,1.27H227v-1.82a6.18,6.18,0,0,1,1.71-.83,6.9,6.9,0,0,1,2.11-.32,4.36,4.36,0,0,1,2.73.8,2.75,2.75,0,0,1,1,2.3v4.67c0,.2,0,.38,0,.56a4.35,4.35,0,0,0,.06.52l1,.07V146Zm-3.74-.75a4.26,4.26,0,0,0,2.17-.53,3.18,3.18,0,0,0,1.36-1.36v-1.9h-2.29a4.49,4.49,0,0,0-2.47.59,1.73,1.73,0,0,0-.93,1.5,1.49,1.49,0,0,0,.58,1.23A2.38,2.38,0,0,0,230,145.24Z"/><path class="cls-7" d="M239.78,136.48l.14,1.58v.12a3.43,3.43,0,0,1,1.19-1.38,3.21,3.21,0,0,1,1.79-.5,3,3,0,0,1,.43,0l.33.07-.15,1-.84,0a2.69,2.69,0,0,0-1.76.56,3.05,3.05,0,0,0-1,1.53v5.68l1.55.12V146h-4.22v-.77l1.54-.12v-7.72l-1.54-.12v-.78h2.53Z"/><path class="cls-7" d="M252.22,146c-.07-.32-.13-.6-.16-.84a5.52,5.52,0,0,1-.05-.71,4.44,4.44,0,0,1-1.51,1.24,4.59,4.59,0,0,1-2.14.49,3.42,3.42,0,0,1-2.33-.72,2.43,2.43,0,0,1-.83-1.95,2.38,2.38,0,0,1,1.22-2.09,6.17,6.17,0,0,1,3.33-.77H252v-1.26a2,2,0,0,0-.7-1.6,3,3,0,0,0-2-.58,5.45,5.45,0,0,0-1.56.21,3.62,3.62,0,0,0-1.18.59l-.1,1.27h-.94v-1.82a6.12,6.12,0,0,1,1.7-.83,7,7,0,0,1,2.12-.32,4.36,4.36,0,0,1,2.73.8,2.74,2.74,0,0,1,1,2.3v4.67c0,.2,0,.38,0,.56a4.35,4.35,0,0,0,.06.52l1,.07V146Zm-3.74-.75a4.29,4.29,0,0,0,2.18-.53,3.16,3.16,0,0,0,1.35-1.36v-1.9h-2.28a4.47,4.47,0,0,0-2.47.59,1.73,1.73,0,0,0-.93,1.5,1.51,1.51,0,0,0,.57,1.23A2.4,2.4,0,0,0,248.48,145.24Z"/><path class="cls-7" d="M260.24,145.29a3.42,3.42,0,0,0,2-.6,1.92,1.92,0,0,0,.86-1.66h1l0,.05a2.56,2.56,0,0,1-1.14,2.21,4.45,4.45,0,0,1-2.75.88,4,4,0,0,1-3.23-1.33,5,5,0,0,1-1.15-3.42v-.37a5,5,0,0,1,1.15-3.41,4,4,0,0,1,3.22-1.34,5.54,5.54,0,0,1,2.18.42,4.19,4.19,0,0,1,1.6,1.12l.05,2.08h-1l-.18-1.69a3.11,3.11,0,0,0-1.13-.75,4,4,0,0,0-1.55-.28,2.83,2.83,0,0,0-2.44,1.09,4.57,4.57,0,0,0-.79,2.76v.37a4.62,4.62,0,0,0,.79,2.78A2.83,2.83,0,0,0,260.24,145.29Z"/><path class="cls-7" d="M268.85,134v2.44h2.26v.86h-2.26v6.2a1.88,1.88,0,0,0,.37,1.32,1.27,1.27,0,0,0,1,.39l.54,0,.6-.08.17.79a3.48,3.48,0,0,1-.69.17,5.66,5.66,0,0,1-.82.06,2.21,2.21,0,0,1-1.68-.63,2.78,2.78,0,0,1-.61-2v-6.2h-1.76v-.86h1.76V134Z"/><path class="cls-7" d="M277.73,146.17a4.27,4.27,0,0,1-3.21-1.31,4.6,4.6,0,0,1-1.27-3.34V141a4.73,4.73,0,0,1,1.26-3.38,4.06,4.06,0,0,1,3.06-1.35,4,4,0,0,1,3,1.11,4,4,0,0,1,1.08,3v.9h-7.25v.26a4,4,0,0,0,.92,2.68,3.06,3.06,0,0,0,2.43,1.09,5.08,5.08,0,0,0,1.8-.28,3.53,3.53,0,0,0,1.28-.78l.49.72a4.13,4.13,0,0,1-1.47.89A6,6,0,0,1,277.73,146.17Zm-.16-9a2.85,2.85,0,0,0-2.11.89,3.74,3.74,0,0,0-1,2.24l0,0h6v-.26a2.9,2.9,0,0,0-.79-2.07A2.8,2.8,0,0,0,277.57,137.2Z"/><path class="cls-7" d="M286.12,136.48l.14,1.58v.12a3.43,3.43,0,0,1,1.19-1.38,3.19,3.19,0,0,1,1.79-.5,2.86,2.86,0,0,1,.42,0l.34.07-.15,1-.85,0a2.73,2.73,0,0,0-1.76.56,3,3,0,0,0-1,1.53v5.68l1.55.12V146h-4.23v-.77l1.55-.12v-7.72l-1.55-.12v-.78h2.54Z"/><path class="cls-7" d="M291.4,137.26v-.78h2.68v8.62l1.55.12V146H291.4v-.77l1.55-.12v-7.72Zm3.15-4.31H296l0,.06-2.37,2.28h-1Z"/><path class="cls-7" d="M305,139.41H304l-.14-1.34a2.78,2.78,0,0,0-1.07-.64,4.63,4.63,0,0,0-1.5-.23,2.93,2.93,0,0,0-1.86.5,1.45,1.45,0,0,0-.63,1.16,1.34,1.34,0,0,0,.54,1.09,5.47,5.47,0,0,0,2.14.76,7.16,7.16,0,0,1,2.74,1,2.08,2.08,0,0,1,.91,1.78,2.25,2.25,0,0,1-1,1.92,4.68,4.68,0,0,1-2.75.73,6.84,6.84,0,0,1-2.08-.29,5,5,0,0,1-1.61-.83v-1.92h.92l.16,1.36a2.76,2.76,0,0,0,1.15.61,5.84,5.84,0,0,0,1.46.19,3.34,3.34,0,0,0,1.94-.5,1.47,1.47,0,0,0,.72-1.22,1.51,1.51,0,0,0-.6-1.17,5,5,0,0,0-2.14-.81,7.77,7.77,0,0,1-2.72-1,2,2,0,0,1-.88-1.71,2.23,2.23,0,0,1,1-1.84,4.21,4.21,0,0,1,2.63-.76,6.4,6.4,0,0,1,2.06.32,4.33,4.33,0,0,1,1.53.87Z"/><path class="cls-7" d="M309.85,134v2.44h2.26v.86h-2.26v6.2a1.93,1.93,0,0,0,.37,1.32,1.27,1.27,0,0,0,1,.39l.54,0,.6-.08.17.79a3.48,3.48,0,0,1-.69.17,5.66,5.66,0,0,1-.82.06,2.21,2.21,0,0,1-1.68-.63,2.83,2.83,0,0,1-.6-2v-6.2h-1.77v-.86h1.77V134Z"/><path class="cls-7" d="M314.13,145.22l1.54-.12v-7.72l-1.54-.12v-.78h2.67v8.62l1.55.12V146h-4.22Zm2.67-11.47h-1.13v-1.47h1.13Z"/><path class="cls-7" d="M324.64,145.29a3.39,3.39,0,0,0,2-.6,1.9,1.9,0,0,0,.87-1.66h1l0,.05a2.55,2.55,0,0,1-1.13,2.21,4.47,4.47,0,0,1-2.75.88,4.05,4.05,0,0,1-3.24-1.33,5.08,5.08,0,0,1-1.14-3.42v-.37a5.07,5.07,0,0,1,1.14-3.41,4.05,4.05,0,0,1,3.23-1.34,5.45,5.45,0,0,1,2.17.42,4.23,4.23,0,0,1,1.61,1.12l0,2.08h-1l-.18-1.69a3.15,3.15,0,0,0-1.14-.75,3.92,3.92,0,0,0-1.54-.28,2.83,2.83,0,0,0-2.44,1.09,4.58,4.58,0,0,0-.8,2.76v.37a4.69,4.69,0,0,0,.79,2.78A2.86,2.86,0,0,0,324.64,145.29Z"/><path class="cls-7" d="M337.73,146a7.1,7.1,0,0,1-.16-.84,5.52,5.52,0,0,1-.05-.71,4.57,4.57,0,0,1-3.65,1.73,3.45,3.45,0,0,1-2.34-.72,2.45,2.45,0,0,1-.82-1.95,2.36,2.36,0,0,1,1.22-2.09,6.14,6.14,0,0,1,3.32-.77h2.27v-1.26a2,2,0,0,0-.71-1.6,3,3,0,0,0-2-.58,5.45,5.45,0,0,0-1.56.21,3.73,3.73,0,0,0-1.18.59l-.09,1.27h-.94v-1.82a6,6,0,0,1,1.7-.83,6.9,6.9,0,0,1,2.11-.32,4.39,4.39,0,0,1,2.74.8,2.77,2.77,0,0,1,1,2.3v4.67c0,.2,0,.38,0,.56a3,3,0,0,0,.07.52l1,.07V146Zm-3.74-.75a4.26,4.26,0,0,0,2.17-.53,3.18,3.18,0,0,0,1.36-1.36v-1.9h-2.29a4.49,4.49,0,0,0-2.47.59,1.72,1.72,0,0,0-.92,1.5,1.51,1.51,0,0,0,.57,1.23A2.38,2.38,0,0,0,334,145.24Z"/><path class="cls-7" d="M348.81,139.41h-.93l-.13-1.34a2.75,2.75,0,0,0-1.08-.64,4.53,4.53,0,0,0-1.49-.23,3,3,0,0,0-1.87.5,1.47,1.47,0,0,0-.62,1.16,1.34,1.34,0,0,0,.54,1.09,5.47,5.47,0,0,0,2.14.76,7.16,7.16,0,0,1,2.74,1,2.08,2.08,0,0,1,.91,1.78,2.24,2.24,0,0,1-1,1.92,4.63,4.63,0,0,1-2.74.73,6.84,6.84,0,0,1-2.08-.29,5,5,0,0,1-1.61-.83v-1.92h.91l.17,1.36a2.7,2.7,0,0,0,1.15.61,5.84,5.84,0,0,0,1.46.19,3.34,3.34,0,0,0,1.94-.5,1.45,1.45,0,0,0,.71-1.22,1.5,1.5,0,0,0-.59-1.17,5,5,0,0,0-2.14-.81,7.77,7.77,0,0,1-2.72-1,2,2,0,0,1-.89-1.71,2.25,2.25,0,0,1,1-1.84,4.19,4.19,0,0,1,2.63-.76,6.4,6.4,0,0,1,2.06.32,4.33,4.33,0,0,1,1.53.87Z"/><path class="cls-7" d="M363,144.62a3.48,3.48,0,0,1-1.32,1.15,4.19,4.19,0,0,1-1.9.4,3.5,3.5,0,0,1-2.88-1.27,5.23,5.23,0,0,1-1-3.4v-.19a5.89,5.89,0,0,1,1-3.64,3.44,3.44,0,0,1,2.9-1.37,3.93,3.93,0,0,1,1.86.42,3.72,3.72,0,0,1,1.31,1.19v-4.74l-1.55-.11v-.78h2.69V145.1l1.54.12V146h-2.56Zm-6-3.12a4.59,4.59,0,0,0,.74,2.74,2.61,2.61,0,0,0,2.25,1,3.35,3.35,0,0,0,1.82-.46,3.09,3.09,0,0,0,1.15-1.25v-4.5a3.37,3.37,0,0,0-1.1-1.32,3.11,3.11,0,0,0-1.85-.51,2.54,2.54,0,0,0-2.26,1.14,5.27,5.27,0,0,0-.75,2.95Z"/><path class="cls-7" d="M367.36,141.09a4.84,4.84,0,0,1,1.24-3.44,4.71,4.71,0,0,1,6.6,0,4.84,4.84,0,0,1,1.24,3.44v.29a4.89,4.89,0,0,1-1.23,3.45,4.75,4.75,0,0,1-6.61,0,4.85,4.85,0,0,1-1.24-3.45Zm1.14.29a4.3,4.3,0,0,0,.9,2.78,3,3,0,0,0,2.52,1.13,3,3,0,0,0,2.48-1.13,4.3,4.3,0,0,0,.9-2.78v-.29a4.32,4.32,0,0,0-.9-2.76,3.33,3.33,0,0,0-5,0,4.32,4.32,0,0,0-.9,2.76Z"/><path class="cls-7" d="M390.47,139.41h-.93l-.13-1.34a2.9,2.9,0,0,0-1.08-.64,4.53,4.53,0,0,0-1.49-.23,3,3,0,0,0-1.87.5,1.47,1.47,0,0,0-.62,1.16,1.34,1.34,0,0,0,.54,1.09,5.4,5.4,0,0,0,2.14.76,7.23,7.23,0,0,1,2.74,1,2.08,2.08,0,0,1,.91,1.78,2.26,2.26,0,0,1-1,1.92,4.66,4.66,0,0,1-2.75.73,6.73,6.73,0,0,1-2.07-.29,5.16,5.16,0,0,1-1.62-.83v-1.92h.92l.16,1.36a2.8,2.8,0,0,0,1.16.61,5.76,5.76,0,0,0,1.45.19,3.39,3.39,0,0,0,1.95-.5,1.48,1.48,0,0,0,.71-1.22,1.53,1.53,0,0,0-.59-1.17,5.11,5.11,0,0,0-2.14-.81,7.77,7.77,0,0,1-2.72-1,2,2,0,0,1-.89-1.71,2.22,2.22,0,0,1,1-1.84,4.19,4.19,0,0,1,2.63-.76,6.4,6.4,0,0,1,2.06.32,4.37,4.37,0,0,1,1.52.87Z"/><path class="cls-7" d="M397.28,146.17a4.27,4.27,0,0,1-3.21-1.31,4.6,4.6,0,0,1-1.27-3.34V141a4.73,4.73,0,0,1,1.26-3.38,4.06,4.06,0,0,1,3.06-1.35,4,4,0,0,1,3,1.11,4,4,0,0,1,1.09,3v.9h-7.25v.26a4,4,0,0,0,.92,2.68,3.06,3.06,0,0,0,2.43,1.09,5.08,5.08,0,0,0,1.8-.28,3.53,3.53,0,0,0,1.28-.78l.48.72a4,4,0,0,1-1.46.89A6,6,0,0,1,397.28,146.17Zm-.16-9a2.85,2.85,0,0,0-2.11.89,3.74,3.74,0,0,0-1,2.24l0,0h6v-.26a2.86,2.86,0,0,0-.79-2.07A2.8,2.8,0,0,0,397.12,137.2Z"/><path class="cls-7" d="M410.75,144.42a3.37,3.37,0,0,1-1.32,1.3,4.13,4.13,0,0,1-2,.45,3.24,3.24,0,0,1-2.54-1A4.62,4.62,0,0,1,404,142v-4.61l-1.28-.12v-.78h2.41V142a3.82,3.82,0,0,0,.64,2.49,2.22,2.22,0,0,0,1.81.76,3.59,3.59,0,0,0,2.06-.53,2.74,2.74,0,0,0,1.07-1.46v-5.89l-1.46-.12v-.78h2.6v8.62l1.38.12V146h-2.37Z"/><path class="cls-7" d="M428.45,141.5a5.15,5.15,0,0,1-1,3.4,3.51,3.51,0,0,1-2.88,1.27,4.31,4.31,0,0,1-1.94-.41,3.39,3.39,0,0,1-1.32-1.2l-.12,1.43h-1V133.17l-1.55-.11v-.78h2.68V138a3.59,3.59,0,0,1,1.31-1.23,3.89,3.89,0,0,1,1.9-.44,3.44,3.44,0,0,1,2.89,1.37,5.83,5.83,0,0,1,1,3.64Zm-1.14-.19a5.27,5.27,0,0,0-.76-2.95,2.53,2.53,0,0,0-2.24-1.14,3.18,3.18,0,0,0-1.93.54,3.29,3.29,0,0,0-1.07,1.4v4.3a3,3,0,0,0,1.13,1.31,3.38,3.38,0,0,0,1.89.49,2.6,2.6,0,0,0,2.23-1,4.52,4.52,0,0,0,.75-2.74Z"/><path class="cls-7" d="M437.47,146c-.07-.32-.13-.6-.16-.84a5.52,5.52,0,0,1-.05-.71,4.38,4.38,0,0,1-1.52,1.24,4.52,4.52,0,0,1-2.13.49,3.45,3.45,0,0,1-2.34-.72,2.45,2.45,0,0,1-.82-1.95,2.38,2.38,0,0,1,1.22-2.09,6.16,6.16,0,0,1,3.32-.77h2.27v-1.26a2,2,0,0,0-.7-1.6,3.05,3.05,0,0,0-2-.58,5.45,5.45,0,0,0-1.56.21,3.68,3.68,0,0,0-1.19.59l-.09,1.27h-.94v-1.82a6,6,0,0,1,1.7-.83,7,7,0,0,1,2.11-.32,4.37,4.37,0,0,1,2.74.8,2.74,2.74,0,0,1,1,2.3v4.67c0,.2,0,.38,0,.56a4.35,4.35,0,0,0,.06.52l1,.07V146Zm-3.74-.75a4.32,4.32,0,0,0,2.18-.53,3.21,3.21,0,0,0,1.35-1.36v-1.9H435a4.51,4.51,0,0,0-2.48.59,1.74,1.74,0,0,0-.92,1.5,1.51,1.51,0,0,0,.57,1.23A2.38,2.38,0,0,0,433.73,145.24Z"/><path class="cls-7" d="M441,145.22l1.55-.12v-7.72l-1.55-.12v-.78h2.68v8.62l1.54.12V146H441Zm2.68-11.47h-1.13v-1.47h1.13Z"/><path class="cls-7" d="M449.62,136.48l.14,1.58v.12A3.43,3.43,0,0,1,451,136.8a3.21,3.21,0,0,1,1.79-.5,3,3,0,0,1,.43,0l.33.07-.15,1-.84,0a2.69,2.69,0,0,0-1.76.56,3.05,3.05,0,0,0-1,1.53v5.68l1.55.12V146h-4.22v-.77l1.54-.12v-7.72l-1.54-.12v-.78h2.53Z"/><path class="cls-7" d="M457.43,136.48l.14,1.58v.12a3.5,3.5,0,0,1,1.19-1.38,3.21,3.21,0,0,1,1.79-.5,3,3,0,0,1,.43,0l.33.07-.15,1-.84,0a2.69,2.69,0,0,0-1.76.56,3.05,3.05,0,0,0-1,1.53v5.68l1.55.12V146H454.9v-.77l1.54-.12v-7.72l-1.54-.12v-.78h2.53Z"/><path class="cls-7" d="M462.6,141.09a4.84,4.84,0,0,1,1.24-3.44,4.71,4.71,0,0,1,6.6,0,4.89,4.89,0,0,1,1.24,3.44v.29a4.85,4.85,0,0,1-1.24,3.45,4.73,4.73,0,0,1-6.6,0,4.85,4.85,0,0,1-1.24-3.45Zm1.13.29a4.3,4.3,0,0,0,.91,2.78,3.33,3.33,0,0,0,5,0,4.3,4.3,0,0,0,.9-2.78v-.29a4.27,4.27,0,0,0-.91-2.76,3.32,3.32,0,0,0-5,0,4.32,4.32,0,0,0-.91,2.76Z"/><path class="cls-7" d="M478.26,141.31a5.83,5.83,0,0,1,1-3.64,3.42,3.42,0,0,1,2.89-1.37,4,4,0,0,1,1.85.41,3.69,3.69,0,0,1,1.31,1.18l.11-1.41h1v12.27l1.54.11v.79h-4.23v-.79l1.55-.11v-4A3.46,3.46,0,0,1,484,145.8a4.24,4.24,0,0,1-1.83.37,3.5,3.5,0,0,1-2.88-1.27,5.17,5.17,0,0,1-1-3.4Zm1.14.19a4.55,4.55,0,0,0,.75,2.75,2.58,2.58,0,0,0,2.24,1,3.33,3.33,0,0,0,1.79-.45,3,3,0,0,0,1.14-1.22V139a3.61,3.61,0,0,0-1.11-1.28,3.06,3.06,0,0,0-1.8-.5,2.5,2.5,0,0,0-2.25,1.15,5.3,5.3,0,0,0-.76,3Z"/><path class="cls-7" d="M496.66,144.42a3.37,3.37,0,0,1-1.32,1.3,4.13,4.13,0,0,1-2,.45,3.23,3.23,0,0,1-2.54-1,4.62,4.62,0,0,1-.92-3.16v-4.61l-1.27-.12v-.78H491V142a3.88,3.88,0,0,0,.64,2.49,2.25,2.25,0,0,0,1.82.76,3.54,3.54,0,0,0,2.05-.53,2.81,2.81,0,0,0,1.08-1.46v-5.89l-1.46-.12v-.78h2.6v8.62l1.38.12V146h-2.38Z"/><path class="cls-7" d="M505.34,146.17a4.24,4.24,0,0,1-3.21-1.31,4.61,4.61,0,0,1-1.28-3.34V141a4.74,4.74,0,0,1,1.27-3.38,4.06,4.06,0,0,1,3.06-1.35,4,4,0,0,1,3,1.11,4,4,0,0,1,1.09,3v.9H502v.26a4,4,0,0,0,.93,2.68,3.06,3.06,0,0,0,2.43,1.09,5.08,5.08,0,0,0,1.8-.28,3.61,3.61,0,0,0,1.28-.78l.48.72a4,4,0,0,1-1.46.89A6,6,0,0,1,505.34,146.17Zm-.16-9a2.83,2.83,0,0,0-2.11.89,3.74,3.74,0,0,0-1,2.24l0,0h6v-.26a2.9,2.9,0,0,0-.79-2.07A2.8,2.8,0,0,0,505.18,137.2Z"/><path class="cls-7" d="M515.78,145.22l1.55-.12v-7.72l-1.55-.12v-.78h2.56l.1,1.66a3.44,3.44,0,0,1,1.34-1.36,3.92,3.92,0,0,1,2-.48,3.31,3.31,0,0,1,2.55.95,4.24,4.24,0,0,1,.87,2.95v4.9l1.55.12V146h-4.24v-.77l1.55-.12v-4.89a3.3,3.3,0,0,0-.66-2.32,2.49,2.49,0,0,0-1.87-.67,3.08,3.08,0,0,0-2,.58,3.21,3.21,0,0,0-1.09,1.55v5.75l1.55.12V146h-4.24Z"/><path class="cls-7" d="M535.6,146c-.07-.32-.13-.6-.16-.84a5.52,5.52,0,0,1-.05-.71,4.38,4.38,0,0,1-1.52,1.24,4.52,4.52,0,0,1-2.13.49,3.45,3.45,0,0,1-2.34-.72,2.45,2.45,0,0,1-.82-1.95,2.38,2.38,0,0,1,1.22-2.09,6.16,6.16,0,0,1,3.32-.77h2.27v-1.26a2,2,0,0,0-.7-1.6,3.05,3.05,0,0,0-2-.58,5.45,5.45,0,0,0-1.56.21A3.68,3.68,0,0,0,530,138l-.09,1.27h-.94v-1.82a6,6,0,0,1,1.7-.83,7,7,0,0,1,2.11-.32,4.37,4.37,0,0,1,2.74.8,2.74,2.74,0,0,1,1,2.3v4.67c0,.2,0,.38,0,.56a4.35,4.35,0,0,0,.06.52l1,.07V146Zm.41-13.18a1.72,1.72,0,0,1-.52,1.29,1.79,1.79,0,0,1-1.3.51,2.57,2.57,0,0,1-1.44-.49,2.38,2.38,0,0,0-1.24-.48,1,1,0,0,0-.75.31,1.06,1.06,0,0,0-.3.78l-.75-.16a1.73,1.73,0,0,1,1.8-1.78,2.76,2.76,0,0,1,1.4.48,2.65,2.65,0,0,0,1.28.48,1,1,0,0,0,.75-.31,1.09,1.09,0,0,0,.31-.8Zm-4.15,12.43a4.32,4.32,0,0,0,2.18-.53,3.21,3.21,0,0,0,1.35-1.36v-1.9h-2.28a4.51,4.51,0,0,0-2.48.59,1.74,1.74,0,0,0-.92,1.5,1.51,1.51,0,0,0,.57,1.23A2.38,2.38,0,0,0,531.86,145.24Z"/><path class="cls-7" d="M539.24,141.09a4.84,4.84,0,0,1,1.24-3.44,4.71,4.71,0,0,1,6.6,0,4.89,4.89,0,0,1,1.24,3.44v.29a4.85,4.85,0,0,1-1.24,3.45,4.23,4.23,0,0,1-3.29,1.34,4.27,4.27,0,0,1-3.31-1.34,4.85,4.85,0,0,1-1.24-3.45Zm1.14.29a4.3,4.3,0,0,0,.9,2.78,3.33,3.33,0,0,0,5,0,4.3,4.3,0,0,0,.9-2.78v-.29a4.27,4.27,0,0,0-.91-2.76,3.32,3.32,0,0,0-5,0,4.32,4.32,0,0,0-.9,2.76Z"/><path class="cls-7" d="M562.35,139.41h-.93l-.14-1.34a2.78,2.78,0,0,0-1.07-.64,4.63,4.63,0,0,0-1.5-.23,2.93,2.93,0,0,0-1.86.5,1.45,1.45,0,0,0-.63,1.16,1.34,1.34,0,0,0,.54,1.09,5.47,5.47,0,0,0,2.14.76,7.16,7.16,0,0,1,2.74,1,2.08,2.08,0,0,1,.92,1.78,2.26,2.26,0,0,1-1,1.92,4.68,4.68,0,0,1-2.75.73,6.84,6.84,0,0,1-2.08-.29,5,5,0,0,1-1.61-.83v-1.92H556l.16,1.36a2.76,2.76,0,0,0,1.15.61,5.84,5.84,0,0,0,1.46.19,3.34,3.34,0,0,0,1.94-.5,1.47,1.47,0,0,0,.72-1.22,1.51,1.51,0,0,0-.6-1.17,5,5,0,0,0-2.14-.81,7.85,7.85,0,0,1-2.72-1,2,2,0,0,1-.88-1.71,2.23,2.23,0,0,1,1-1.84,4.21,4.21,0,0,1,2.63-.76,6.51,6.51,0,0,1,2.07.32,4.37,4.37,0,0,1,1.52.87Z"/><path class="cls-7" d="M571.71,146c-.07-.32-.12-.6-.16-.84a5.53,5.53,0,0,1,0-.71,4.48,4.48,0,0,1-1.52,1.24,4.59,4.59,0,0,1-2.14.49,3.44,3.44,0,0,1-2.33-.72,2.46,2.46,0,0,1-.83-1.95,2.37,2.37,0,0,1,1.23-2.09,6.11,6.11,0,0,1,3.32-.77h2.27v-1.26a2,2,0,0,0-.71-1.6,3,3,0,0,0-2-.58,5.45,5.45,0,0,0-1.56.21,3.62,3.62,0,0,0-1.18.59l-.1,1.27H565v-1.82a6,6,0,0,1,1.71-.83,6.9,6.9,0,0,1,2.11-.32,4.36,4.36,0,0,1,2.73.8,2.75,2.75,0,0,1,1,2.3v4.67c0,.2,0,.38,0,.56a4.35,4.35,0,0,0,.06.52l1,.07V146Zm.41-13.18a1.72,1.72,0,0,1-.52,1.29,1.79,1.79,0,0,1-1.3.51,2.52,2.52,0,0,1-1.43-.49,2.41,2.41,0,0,0-1.25-.48,1,1,0,0,0-.75.31,1.06,1.06,0,0,0-.3.78l-.75-.16a1.74,1.74,0,0,1,1.8-1.78,2.73,2.73,0,0,1,1.4.48,2.69,2.69,0,0,0,1.28.48,1,1,0,0,0,.75-.31,1.09,1.09,0,0,0,.31-.8ZM568,145.24a4.28,4.28,0,0,0,2.17-.53,3.18,3.18,0,0,0,1.36-1.36v-1.9h-2.29a4.47,4.47,0,0,0-2.47.59,1.73,1.73,0,0,0-.93,1.5,1.51,1.51,0,0,0,.57,1.23A2.41,2.41,0,0,0,568,145.24Z"/><path class="cls-7" d="M575.35,141.09a4.84,4.84,0,0,1,1.24-3.44,4.71,4.71,0,0,1,6.6,0,4.84,4.84,0,0,1,1.24,3.44v.29a4.85,4.85,0,0,1-1.24,3.45,4.22,4.22,0,0,1-3.28,1.34,4.3,4.3,0,0,1-3.32-1.34,4.85,4.85,0,0,1-1.24-3.45Zm1.14.29a4.3,4.3,0,0,0,.9,2.78,3,3,0,0,0,2.52,1.13,3,3,0,0,0,2.48-1.13,4.3,4.3,0,0,0,.9-2.78v-.29a4.32,4.32,0,0,0-.9-2.76,3.33,3.33,0,0,0-5,0,4.32,4.32,0,0,0-.9,2.76Z"/><path class="cls-7" d="M218.67,158.08l.14,1.58v.12a3.45,3.45,0,0,1,1.2-1.38,3.16,3.16,0,0,1,1.79-.5,3,3,0,0,1,.42,0l.33.07-.15,1-.84,0a2.71,2.71,0,0,0-1.76.56,3.05,3.05,0,0,0-1,1.53v5.68l1.55.12v.77h-4.22v-.77l1.54-.12V159l-1.54-.12v-.78h2.53Z"/><path class="cls-7" d="M228.37,167.77a4.27,4.27,0,0,1-3.21-1.31,4.64,4.64,0,0,1-1.27-3.34v-.49a4.7,4.7,0,0,1,1.27-3.38,4,4,0,0,1,3.06-1.35,4,4,0,0,1,3,1.11,4,4,0,0,1,1.08,3v.9H225v.26a4,4,0,0,0,.93,2.68,3,3,0,0,0,2.42,1.09,5.38,5.38,0,0,0,1.81-.28,3.7,3.7,0,0,0,1.28-.78l.48.72a4.09,4.09,0,0,1-1.46.89A6,6,0,0,1,228.37,167.77Zm-.15-9a2.82,2.82,0,0,0-2.11.89,3.68,3.68,0,0,0-1,2.24l0,0h6v-.26a2.94,2.94,0,0,0-.78-2.08A2.83,2.83,0,0,0,228.22,158.8Z"/><path class="cls-7" d="M234.08,154.66v-.78h2.67V166.7l1.55.12v.77h-4.22v-.77l1.54-.12V154.77Z"/><path class="cls-7" d="M244.62,167.77a4.27,4.27,0,0,1-3.21-1.31,4.64,4.64,0,0,1-1.27-3.34v-.49a4.7,4.7,0,0,1,1.27-3.38,4,4,0,0,1,3.06-1.35,4,4,0,0,1,3,1.11,4,4,0,0,1,1.08,3v.9h-7.25v.26a4,4,0,0,0,.93,2.68,3,3,0,0,0,2.42,1.09,5.32,5.32,0,0,0,1.8-.28,3.66,3.66,0,0,0,1.29-.78l.48.72a4.09,4.09,0,0,1-1.46.89A6,6,0,0,1,244.62,167.77Zm-.15-9a2.82,2.82,0,0,0-2.11.89,3.63,3.63,0,0,0-1,2.24l0,0h6v-.26a2.9,2.9,0,0,0-.79-2.08A2.79,2.79,0,0,0,244.47,158.8Z"/><path class="cls-7" d="M253.41,158.86l-1.28.09,2.56,6.26.33,1.11h.06l.36-1.11L258,159l-1.29-.09v-.78h3.46v.78l-1,.08-3.62,8.65h-.91L251,158.94l-1-.08v-.78h3.45Z"/><path class="cls-7" d="M268.34,167.59a7.1,7.1,0,0,1-.16-.84,5.52,5.52,0,0,1-.05-.71,4.38,4.38,0,0,1-1.52,1.24,4.52,4.52,0,0,1-2.13.49,3.45,3.45,0,0,1-2.34-.72,2.45,2.45,0,0,1-.82-2,2.36,2.36,0,0,1,1.22-2.09,6.14,6.14,0,0,1,3.32-.77h2.27V161a2,2,0,0,0-.71-1.6,3,3,0,0,0-2-.58,5.5,5.5,0,0,0-1.56.21,3.73,3.73,0,0,0-1.18.59l-.09,1.27h-.94v-1.82a6,6,0,0,1,1.7-.83,7,7,0,0,1,2.11-.32,4.37,4.37,0,0,1,2.74.8,2.74,2.74,0,0,1,1,2.3v4.67c0,.2,0,.38,0,.56a3,3,0,0,0,.07.52l1,.07v.77Zm-3.74-.75a4.26,4.26,0,0,0,2.17-.53,3.18,3.18,0,0,0,1.36-1.36V163h-2.29a4.49,4.49,0,0,0-2.47.6,1.72,1.72,0,0,0-.92,1.5,1.51,1.51,0,0,0,.57,1.23A2.38,2.38,0,0,0,264.6,166.84Z"/><path class="cls-7" d="M271.77,166.82l1.54-.12V159l-1.54-.12v-.78h2.55l.1,1.66a3.5,3.5,0,0,1,1.34-1.36,3.94,3.94,0,0,1,2-.48,3.29,3.29,0,0,1,2.54.95,4.24,4.24,0,0,1,.87,3v4.9l1.55.12v.77h-4.23v-.77l1.54-.12v-4.89a3.3,3.3,0,0,0-.66-2.32,2.49,2.49,0,0,0-1.87-.67,3.08,3.08,0,0,0-1.95.58,3.28,3.28,0,0,0-1.09,1.55v5.75l1.55.12v.77h-4.23Z"/><path class="cls-7" d="M287.1,155.64v2.44h2.26v.86H287.1v6.2a1.93,1.93,0,0,0,.37,1.32,1.27,1.27,0,0,0,1,.39l.54,0,.6-.08.17.79a3.48,3.48,0,0,1-.69.17,5.66,5.66,0,0,1-.82.06,2.21,2.21,0,0,1-1.68-.63,2.83,2.83,0,0,1-.6-2v-6.2h-1.77v-.86H286v-2.44Z"/><path class="cls-7" d="M296,167.77a4.27,4.27,0,0,1-3.21-1.31,4.6,4.6,0,0,1-1.27-3.34v-.49a4.7,4.7,0,0,1,1.27-3.38,4,4,0,0,1,3.06-1.35,4,4,0,0,1,3,1.11,4,4,0,0,1,1.08,3v.9h-7.25v.26a4,4,0,0,0,.92,2.68,3.06,3.06,0,0,0,2.43,1.09,5.32,5.32,0,0,0,1.8-.28,3.53,3.53,0,0,0,1.28-.78l.49.72a4.18,4.18,0,0,1-1.46.89A6.07,6.07,0,0,1,296,167.77Zm-.15-9a2.85,2.85,0,0,0-2.12.89,3.74,3.74,0,0,0-1,2.24l0,0h6v-.26a2.9,2.9,0,0,0-.79-2.08A2.81,2.81,0,0,0,295.83,158.8Z"/><path class="cls-7" d="M309.36,161h-.93l-.13-1.34a2.9,2.9,0,0,0-1.08-.64,4.53,4.53,0,0,0-1.49-.23,3,3,0,0,0-1.87.5,1.47,1.47,0,0,0-.62,1.16,1.34,1.34,0,0,0,.54,1.09,5.4,5.4,0,0,0,2.14.76,7.23,7.23,0,0,1,2.74,1,2.08,2.08,0,0,1,.91,1.78,2.26,2.26,0,0,1-1,1.92,4.66,4.66,0,0,1-2.75.73,7,7,0,0,1-2.07-.29,5.16,5.16,0,0,1-1.62-.83v-1.92H303l.16,1.36a2.8,2.8,0,0,0,1.16.61,5.76,5.76,0,0,0,1.45.19,3.29,3.29,0,0,0,2-.51,1.45,1.45,0,0,0,.71-1.21,1.53,1.53,0,0,0-.59-1.17,5.11,5.11,0,0,0-2.14-.81,7.77,7.77,0,0,1-2.72-1,2,2,0,0,1-.89-1.71,2.22,2.22,0,0,1,1-1.84,4.19,4.19,0,0,1,2.63-.76,6.4,6.4,0,0,1,2.06.32,4.37,4.37,0,0,1,1.52.87Z"/><path class="cls-7" d="M316.06,158.86v-.78h2.5l.14,1.48a3.64,3.64,0,0,1,1.33-1.23,4.11,4.11,0,0,1,1.91-.43,3.43,3.43,0,0,1,2.89,1.37,5.83,5.83,0,0,1,1.05,3.64v.19a5.16,5.16,0,0,1-1.05,3.4,3.49,3.49,0,0,1-2.87,1.27,4.33,4.33,0,0,1-1.9-.38,3.41,3.41,0,0,1-1.32-1.08v4l1.55.11v.79h-4.23v-.79l1.55-.11V159Zm8.68,4A5.14,5.14,0,0,0,324,160a2.59,2.59,0,0,0-2.28-1.14,3.2,3.2,0,0,0-1.86.5,3.16,3.16,0,0,0-1.08,1.32v4.57a3,3,0,0,0,1.12,1.23,3.46,3.46,0,0,0,1.84.45,2.64,2.64,0,0,0,2.26-1,4.46,4.46,0,0,0,.78-2.75Z"/><path class="cls-7" d="M334.82,167.59c-.08-.32-.13-.6-.17-.84a5.53,5.53,0,0,1,0-.71,4.48,4.48,0,0,1-1.52,1.24,4.56,4.56,0,0,1-2.14.49,3.44,3.44,0,0,1-2.33-.72,2.46,2.46,0,0,1-.83-2A2.37,2.37,0,0,1,329,163a6.11,6.11,0,0,1,3.32-.77h2.27V161a2,2,0,0,0-.71-1.6,3,3,0,0,0-2-.58,5.45,5.45,0,0,0-1.56.21,3.62,3.62,0,0,0-1.18.59l-.1,1.27h-.94v-1.82a6.18,6.18,0,0,1,1.71-.83,6.9,6.9,0,0,1,2.11-.32,4.36,4.36,0,0,1,2.73.8,2.75,2.75,0,0,1,1,2.3v4.67c0,.2,0,.38,0,.56a4.35,4.35,0,0,0,.06.52l1,.07v.77Zm-3.74-.75a4.28,4.28,0,0,0,2.17-.53,3.18,3.18,0,0,0,1.36-1.36V163h-2.29a4.47,4.47,0,0,0-2.47.6,1.73,1.73,0,0,0-.93,1.5,1.49,1.49,0,0,0,.58,1.23A2.38,2.38,0,0,0,331.08,166.84Z"/><path class="cls-7" d="M340.91,158.08l.14,1.58v.12a3.43,3.43,0,0,1,1.19-1.38,3.21,3.21,0,0,1,1.79-.5,2.77,2.77,0,0,1,.42,0l.34.07-.15,1-.84,0a2.74,2.74,0,0,0-1.77.56,3.11,3.11,0,0,0-1,1.53v5.68l1.55.12v.77h-4.22v-.77l1.54-.12V159l-1.54-.12v-.78h2.53Z"/><path class="cls-7" d="M353.35,167.59c-.07-.32-.13-.6-.16-.84a5.52,5.52,0,0,1-.05-.71,4.44,4.44,0,0,1-1.51,1.24,4.59,4.59,0,0,1-2.14.49,3.47,3.47,0,0,1-2.34-.72,2.45,2.45,0,0,1-.82-2,2.38,2.38,0,0,1,1.22-2.09,6.17,6.17,0,0,1,3.33-.77h2.26V161a2,2,0,0,0-.7-1.6,3.05,3.05,0,0,0-2-.58,5.45,5.45,0,0,0-1.56.21,3.68,3.68,0,0,0-1.19.59l-.09,1.27h-.94v-1.82a6,6,0,0,1,1.7-.83,7,7,0,0,1,2.12-.32,4.36,4.36,0,0,1,2.73.8,2.74,2.74,0,0,1,1,2.3v4.67c0,.2,0,.38,0,.56a4.35,4.35,0,0,0,.06.52l1,.07v.77Zm-3.74-.75a4.29,4.29,0,0,0,2.18-.53,3.16,3.16,0,0,0,1.35-1.36V163h-2.28a4.51,4.51,0,0,0-2.48.6,1.74,1.74,0,0,0-.92,1.5,1.51,1.51,0,0,0,.57,1.23A2.4,2.4,0,0,0,349.61,166.84Z"/><path class="cls-7" d="M364.69,158.86l-1.28.09,2.57,6.26.33,1.11h.05l.36-1.11,2.53-6.26-1.28-.09v-.78h3.45v.78l-1,.08-3.63,8.65h-.91l-3.63-8.65-1-.08v-.78h3.45Z"/><path class="cls-7" d="M372.53,162.69a4.85,4.85,0,0,1,1.25-3.44,4.7,4.7,0,0,1,6.59,0,4.85,4.85,0,0,1,1.25,3.44V163a4.9,4.9,0,0,1-1.24,3.45,4.73,4.73,0,0,1-6.6,0,4.86,4.86,0,0,1-1.25-3.45Zm1.14.29a4.32,4.32,0,0,0,.9,2.78,3.34,3.34,0,0,0,5,0,4.32,4.32,0,0,0,.9-2.78v-.29a4.32,4.32,0,0,0-.91-2.76,3.33,3.33,0,0,0-5,0,4.32,4.32,0,0,0-.9,2.76Z"/><path class="cls-7" d="M387.85,166.89a3.39,3.39,0,0,0,2-.6,1.9,1.9,0,0,0,.87-1.66h1l0,.05a2.55,2.55,0,0,1-1.13,2.21,4.45,4.45,0,0,1-2.75.88,4,4,0,0,1-3.23-1.33,5,5,0,0,1-1.15-3.42v-.37a5,5,0,0,1,1.15-3.41,4,4,0,0,1,3.22-1.34,5.54,5.54,0,0,1,2.18.42,4.27,4.27,0,0,1,1.6,1.12l.05,2.08h-1l-.18-1.69a3.15,3.15,0,0,0-1.14-.75,3.92,3.92,0,0,0-1.54-.28,2.81,2.81,0,0,0-2.44,1.09,4.57,4.57,0,0,0-.79,2.76V163a4.68,4.68,0,0,0,.78,2.78A2.86,2.86,0,0,0,387.85,166.89Z"/><path class="cls-7" d="M398.38,167.77a4.27,4.27,0,0,1-3.21-1.31,4.6,4.6,0,0,1-1.27-3.34v-.49a4.7,4.7,0,0,1,1.27-3.38,4,4,0,0,1,3.06-1.35,4,4,0,0,1,3,1.11,4,4,0,0,1,1.08,3v.9H395v.26a4,4,0,0,0,.92,2.68,3.06,3.06,0,0,0,2.43,1.09,5.32,5.32,0,0,0,1.8-.28,3.53,3.53,0,0,0,1.28-.78l.49.72a4.13,4.13,0,0,1-1.47.89A6,6,0,0,1,398.38,167.77Zm-.15-9a2.85,2.85,0,0,0-2.12.89,3.74,3.74,0,0,0-1,2.24l0,0h6v-.26a2.9,2.9,0,0,0-.79-2.08A2.81,2.81,0,0,0,398.23,158.8Zm2.68-2.55v.16h-1.06l-1.59-1.48-1.57,1.48h-1v-.19l2.15-1.94h.93Z"/><path class="cls-7" d="M406.07,167.59h-1.31v-1.44h1.31Z"/><circle class="cls-8" cx="91" cy="131.4" r="88"/><path class="cls-7" d="M91,46.4a85,85,0,1,1-85,85,85,85,0,0,1,85-85m0-6a91,91,0,1,0,91,91,91.1,91.1,0,0,0-91-91Z"/><path class="cls-6" d="M90.78,46.55a84.78,84.78,0,1,0,84.77,84.78A84.78,84.78,0,0,0,90.78,46.55Zm0,163.9a79.13,79.13,0,1,1,79.12-79.12A79.12,79.12,0,0,1,90.78,210.45Z"/><path class="cls-6" d="M130.79,69.74a2.83,2.83,0,0,0-3.92.83l-4.62,7.11a2.82,2.82,0,0,0,.9,3.95,38.83,38.83,0,0,1,3.17,2.26c.63.49,1.27,1,1.77,1.32.88.72,1.72,1.48,2.56,2.25l-2,2a56.15,56.15,0,0,0-12.39-8.49l5.78-13a2.82,2.82,0,0,0-1.43-3.73,73.89,73.89,0,0,0-26-6.21,2.82,2.82,0,0,0-3,2.68l-.44,8.47a2.82,2.82,0,0,0,2.67,3l3,.15,3.17.49c.4.07.81.12,1.22.18.61.09,1.22.18,1.76.3l.39.1-.74,2.77a57.92,57.92,0,0,0-15-1.22L86.21,60.78a2.77,2.77,0,0,0-1-1.91,2.82,2.82,0,0,0-2.07-.61,72.73,72.73,0,0,0-25.68,7.65,2.82,2.82,0,0,0-1.23,3.8l3.86,7.55a2.83,2.83,0,0,0,3.7,1.28c.57-.26,1.13-.54,1.69-.82a29.23,29.23,0,0,1,4-1.73l.73-.27c.85-.32,1.67-.62,2.49-.9l.73,2.74c-.7.23-1.37.48-2,.73l-.67.26a25.26,25.26,0,0,0-4,1.7l-1.7.83-4.79,2.75L59.9,84,51.57,72.56a2.82,2.82,0,0,0-4-.62A73.57,73.57,0,0,0,29.19,91.32,2.81,2.81,0,0,0,30,95.23l7.11,4.63a2.84,2.84,0,0,0,3.95-.9,35,35,0,0,1,2.25-3.17c.49-.64,1-1.28,1.33-1.78.72-.87,1.48-1.71,2.25-2.55l2,2a56.39,56.39,0,0,0-8.49,12.39l-13-5.78a2.84,2.84,0,0,0-3.74,1.43,74.15,74.15,0,0,0-6.2,26.05,2.83,2.83,0,0,0,2.68,3l8.47.44a2.85,2.85,0,0,0,2-.72,2.79,2.79,0,0,0,.92-2l.15-3,.48-3.17c.08-.41.13-.82.19-1.23.09-.61.18-1.22.3-1.75l.1-.39,2.77.74a57.37,57.37,0,0,0-1.22,15l-14.14,1.47A2.82,2.82,0,0,0,17.71,139a73.58,73.58,0,0,0,7.65,25.67,2.8,2.8,0,0,0,3.8,1.23l7.55-3.85A2.83,2.83,0,0,0,38,158.34c-.26-.56-.53-1.11-.8-1.66a29.88,29.88,0,0,1-1.75-4.07l-.27-.74c-.32-.84-.62-1.66-.89-2.47l2.77-.74a55.8,55.8,0,0,0,6.45,13.52L32,170.53a2.9,2.9,0,0,0-1.13,1.85,2.85,2.85,0,0,0,.51,2.1,73.26,73.26,0,0,0,19.38,18.43,2.82,2.82,0,0,0,3.91-.82L59.3,185a2.81,2.81,0,0,0,.39-2.17A2.85,2.85,0,0,0,58.41,181a35.55,35.55,0,0,1-3.17-2.25c-.64-.49-1.28-1-1.77-1.32-.88-.73-1.72-1.49-2.56-2.26l2-2c.75.69,1.53,1.39,2.47,2.16.55.39,1.09.8,1.62,1.21a34.36,34.36,0,0,0,3.15,2.22l5.05,2.9.06,0-5.79,13a2.84,2.84,0,0,0-.06,2.16,2.87,2.87,0,0,0,1.49,1.57,73.93,73.93,0,0,0,26,6.2h.15a2.84,2.84,0,0,0,2.82-2.69l.44-8.46a2.83,2.83,0,0,0-2.67-3l-3-.15-3.17-.48-1.22-.19c-.62-.09-1.23-.17-1.76-.3l-.39-.09.74-2.77a57.84,57.84,0,0,0,15,1.21l1.46,14.14a2.83,2.83,0,0,0,3.11,2.52,73,73,0,0,0,25.68-7.65,2.82,2.82,0,0,0,1.23-3.8l-3.86-7.55a2.82,2.82,0,0,0-3.7-1.28c-.57.26-1.13.54-1.7.81a29.45,29.45,0,0,1-4,1.74l-.72.27c-.85.31-1.67.62-2.49.89l-.74-2.77a55.8,55.8,0,0,0,13.52-6.45L130,190.09a2.83,2.83,0,0,0,3.94.63,73.41,73.41,0,0,0,18.43-19.38,2.84,2.84,0,0,0-.82-3.92l-7.11-4.62a2.81,2.81,0,0,0-2.17-.39,2.87,2.87,0,0,0-1.79,1.29,34.82,34.82,0,0,1-2.25,3.16c-.49.64-1,1.28-1.32,1.78-.73.88-1.49,1.72-2.26,2.56l-1.95-2a56.28,56.28,0,0,0,8.48-12.38l13,5.77a2.82,2.82,0,0,0,3.73-1.43,73.71,73.71,0,0,0,6.2-26,2.83,2.83,0,0,0-2.68-3l-8.46-.43a2.85,2.85,0,0,0-3,2.67l-.15,3-.48,3.17c-.07.41-.13.82-.19,1.23-.09.61-.17,1.22-.29,1.75l-.1.39-2.73-.73,0-.07c.15-.66.25-1.33.34-2,.05-.31.09-.63.15-1l.43-2.77c0-.1,0-.2,0-.29l.14-3v-5.9l14.2-1.48a2.81,2.81,0,0,0,1.9-1,2.87,2.87,0,0,0,.62-2.07A73.84,73.84,0,0,0,156.2,98a2.83,2.83,0,0,0-3.8-1.23l-7.55,3.86a2.81,2.81,0,0,0-1.28,3.7c.26.56.53,1.12.8,1.67a28.56,28.56,0,0,1,1.75,4.06l.27.75c.32.84.62,1.66.89,2.47l-2.77.74a55.69,55.69,0,0,0-6.45-13.53l11.48-8.35a2.82,2.82,0,0,0,.62-4A73.54,73.54,0,0,0,130.79,69.74Zm1.72,27.79a2.82,2.82,0,0,0-.63,3.94,50.27,50.27,0,0,1,8,16.7,2.84,2.84,0,0,0,3.46,2L151.5,118a2.83,2.83,0,0,0,2-3.32,41.26,41.26,0,0,0-1.85-5.84l-.22-.61a29.72,29.72,0,0,0-1.59-3.83l2.52-1.28a67.93,67.93,0,0,1,5.47,18.34l-14,1.45a2.83,2.83,0,0,0-2.53,3l.14,2.74V134l-.14,2.67-.41,2.59c-.06.37-.11.74-.17,1.11a13.39,13.39,0,0,1-.23,1.43l-.7,2.72a2.82,2.82,0,0,0,2,3.44l8.19,2.18a2.83,2.83,0,0,0,3.47-2l.83-3.22c.17-.76.29-1.52.4-2.29,0-.36.1-.72.17-1.13l.52-3.49,0-.43,2.77.14a68,68,0,0,1-4.42,18.6L141,150.57a2.79,2.79,0,0,0-2.16-.06,2.83,2.83,0,0,0-1.57,1.49,50.71,50.71,0,0,1-10.48,15.3,2.82,2.82,0,0,0,0,4l6,6a2.79,2.79,0,0,0,2.08.82,2.82,2.82,0,0,0,2-.94l1.53-1.69c1-1.06,2-2.13,3-3.4.43-.6.88-1.2,1.33-1.79.32-.41.64-.82.95-1.25l2.37,1.55a68.1,68.1,0,0,1-13.17,13.85l-8.28-11.38a2.83,2.83,0,0,0-1.85-1.13,2.77,2.77,0,0,0-2.1.51,50.39,50.39,0,0,1-16.69,8,2.84,2.84,0,0,0-2,3.46l2.2,8.19a2.82,2.82,0,0,0,3.32,2,44.76,44.76,0,0,0,5.86-1.85l.58-.22a28.59,28.59,0,0,0,3.83-1.59L119,193a68.1,68.1,0,0,1-18.35,5.47l-1.45-14a2.8,2.8,0,0,0-3.08-2.52,52,52,0,0,1-18.51-1.51,2.84,2.84,0,0,0-3.46,2L72,190.59a2.82,2.82,0,0,0,2,3.47l3.21.83c.76.17,1.53.29,2.3.4l1.12.17,3.49.52.44,0-.15,2.78a68.5,68.5,0,0,1-18.6-4.43l5.73-12.85a2.82,2.82,0,0,0-1.36-3.69l-2.34-1.13L63,173.91a27.21,27.21,0,0,1-2.57-1.83c-.61-.46-1.2-.92-1.64-1.22-.82-.67-1.6-1.39-2.38-2.1-.58-.54-1.16-1.07-1.76-1.59a2.83,2.83,0,0,0-3.86.13l-6,6a2.82,2.82,0,0,0,.12,4.11l1.66,1.51c1.07,1,2.15,2,3.42,3,.61.43,1.2.88,1.78,1.33l1.26,1-1.54,2.38a67.63,67.63,0,0,1-13.85-13.18l11.38-8.28a2.81,2.81,0,0,0,.62-3.94,50.66,50.66,0,0,1-8-16.7,2.82,2.82,0,0,0-3.45-2l-8.2,2.19A2.83,2.83,0,0,0,28,148a42.55,42.55,0,0,0,1.84,5.84l.23.6a29.23,29.23,0,0,0,1.58,3.84l-2.51,1.28a68.41,68.41,0,0,1-5.48-18.34l14-1.46a2.81,2.81,0,0,0,2.52-3.08,52,52,0,0,1,1.51-18.51,2.76,2.76,0,0,0-.28-2.14,2.82,2.82,0,0,0-1.72-1.32l-8.19-2.19a2.84,2.84,0,0,0-3.47,2l-.82,3.22c-.18.75-.29,1.52-.4,2.28-.05.37-.1.73-.17,1.14l-.52,3.49,0,.43L23.33,125a68.93,68.93,0,0,1,4.42-18.61l12.85,5.73a2.84,2.84,0,0,0,3.74-1.44A50.63,50.63,0,0,1,54.81,95.36a2.84,2.84,0,0,0,0-4l-6-6a2.84,2.84,0,0,0-2.08-.83,2.87,2.87,0,0,0-2,.95q-.75.86-1.53,1.68c-1,1.07-2,2.13-3,3.4-.43.61-.89,1.2-1.34,1.79l-1,1.25-2.37-1.54A67.58,67.58,0,0,1,48.69,78.22L57,89.6a2.82,2.82,0,0,0,4,.62l.65-.5a11,11,0,0,1,1.39-1l4.62-2.67c.55-.25,1.09-.52,1.62-.78a22.44,22.44,0,0,1,3.31-1.42l.85-.31a29,29,0,0,1,4.09-1.3A2.8,2.8,0,0,0,79.29,81a2.83,2.83,0,0,0,.33-2.22L77.43,70.6a2.83,2.83,0,0,0-3.32-2,41.11,41.11,0,0,0-5.86,1.85l-.59.22a29.72,29.72,0,0,0-3.83,1.59l-1.29-2.52a68.1,68.1,0,0,1,18.35-5.47l1.45,14a2.81,2.81,0,0,0,3.08,2.52,52,52,0,0,1,18.51,1.5,2.81,2.81,0,0,0,3.46-2l2.19-8.19a2.82,2.82,0,0,0-2-3.46l-3.22-.83c-.76-.18-1.52-.29-2.29-.4l-1.13-.17-3.49-.52-.44,0,.15-2.77a68.42,68.42,0,0,1,18.6,4.43L110,81.15a2.82,2.82,0,0,0-.06,2.17,2.85,2.85,0,0,0,1.5,1.57,50.76,50.76,0,0,1,15.29,10.47,2.82,2.82,0,0,0,4,0l6-6a2.84,2.84,0,0,0-.12-4.11L135,83.75c-1.08-1-2.15-2-3.43-3-.6-.43-1.19-.88-1.78-1.33-.41-.32-.83-.64-1.26-1L130,76.07a68.37,68.37,0,0,1,13.85,13.17Z"/><path class="cls-6" d="M90.78,86.11a45.12,45.12,0,0,0-39,68c.05.1.11.19.17.29a45.53,45.53,0,0,0,11.53,12.89c.07.05.11.13.19.17l.06,0a44.87,44.87,0,0,0,54.06,0l.07,0c.08,0,.13-.12.2-.17a45.49,45.49,0,0,0,11.52-12.89,2.29,2.29,0,0,0,.18-.29,45.13,45.13,0,0,0-39-68Zm-5.1,6L54.32,146.68A39.52,39.52,0,0,1,85.68,92.13ZM68.81,164.21l22-38.18,22,38.18a39.44,39.44,0,0,1-43.93,0Zm48.41-3.54L94.45,121.08a4.25,4.25,0,0,0-7.35,0L64.33,160.67a40.07,40.07,0,0,1-6.88-8.1l33.33-58,6.46,11.21c0,.08.08.17.13.25l26.73,46.51a39.75,39.75,0,0,1-6.88,8.1Zm10-14L102.4,103.47l-.13-.26L95.88,92.13a39.53,39.53,0,0,1,31.36,54.55Z"/><g class="cls-9"><path class="cls-5" d="M79.77,71.83l3.84,14.74s.6,3.63-.71,5-7.47,8.28-7.47,8.28L72,106.56l19.9,11.31,23.73-6.36-.71-16.66s-12.15-.77-19.24-6.09c-1.39-1.05-2.57-13.2-2.57-13.2Z"/><path class="cls-10" d="M93.75,80.92c-.37-2.72-.68-5.46-.68-5.46L79.74,71.73l1.07,4.1s4.17,2.72,5.47,3.29A25.37,25.37,0,0,0,93.75,80.92Z"/><path class="cls-5" d="M68.71,103.62S59.2,109,58.33,109.86s-7.67,7-7.67,7l-.26,22.08-8.83-21-7.67,3.4L44.82,154l6,9.31L55.37,165l6.69-30.89,9.63,6,11.81-8.63L75,110.4l-3.63-7.94Z"/><path class="cls-5" d="M33.57,121.17a10.41,10.41,0,0,1-4.53-3.8,36,36,0,0,1-4.75.25.88.88,0,0,1-.43-.09.85.85,0,0,1-.25-.53,46.74,46.74,0,0,0-2.45-8.61,1.42,1.42,0,0,1-.14-.75c.1-.47.64-.68,1.11-.72a2.87,2.87,0,0,0,1.38-.28c.52-.35.68-1.16,1.28-1.35s1,.17,1.49,0,.6-.83.93-1.24a3.34,3.34,0,0,1,2.05-.81,14.59,14.59,0,0,0,3.61-1.45.35.35,0,0,0,.21-.18.45.45,0,0,0,0-.2c-.56-2.59-1.73-5.17-2.28-7.76a58.26,58.26,0,0,1-.94-7.4,4,4,0,0,1,2.05-2.49.9.9,0,0,1,.76-.1c.29.13.39.49.45.8.63,2.88,2.32,10.19,3,13.08.39,1.84,3.72,6.43,4.43,7s.81,1.22,1.62,1.83a1.69,1.69,0,0,1,.56.57,1.9,1.9,0,0,1,.15.82l.12,4.87c0,1.9,0,4-1.33,5.38Z"/><path class="cls-10" d="M40.21,104.08c-1-.27-1.94-.9-3-.72a6.71,6.71,0,0,0-2.44,1.27c-2.15,1.46-3.69,3.71-6,4.93a1,1,0,0,0-.19,1.49c1.32,1.29,3.23,2.8,5.19,2.36a6,6,0,0,0,4-3.79l-1.39.57a7.81,7.81,0,0,0,2,1.06c1.15.44,1.62-1.39.5-1.83-3.73-1.51-5.28,3.37-4,6,.52,1.11,2.16.15,1.64-.95-.59-1.25-.26-4.12,1.87-3.26l.5-1.83a4.38,4.38,0,0,1-1.51-.87c-.54-.4-1.2.06-1.4.57-1.13,3-4.18,2.44-6.07.59l-.19,1.49a19.2,19.2,0,0,0,4.15-3.43,15,15,0,0,1,2.4-1.86c1.14-.71,2.2-.33,3.43,0a1,1,0,0,0,.5-1.83Z"/><path class="cls-10" d="M32.65,107.7l-.43-2.21-1.83.5a2.54,2.54,0,0,0,1.39,1.72,1,1,0,0,0,1.3-.34,1,1,0,0,0-.34-1.3.77.77,0,0,1-.52-.58.95.95,0,0,0-1.83.5l.43,2.21a.95.95,0,1,0,1.83-.5Z"/><path class="cls-5" d="M71.93,65.7s7.71,13.73,30.73,13.73c9.52,0,13.06-2.22,13.6-5.31,3.37-19.43-3.81-44-13.77-51.51C93.75,16,62.77,40.93,62.77,40.93l6.6,14.81s-6.74-7.27-9.43-3.24S65.8,65.09,65.8,65.09,69.64,68,71.93,65.7Z"/><path class="cls-5" d="M117.93,96.84c2.29-1.22,4.35,1.64,4.35,1.64l23.23,40.67-20,36s6.73,11.31,3.36,16.43l4.65,4.65s.74,2.49-2.63,2.49-11.31-5.93-11.31-5.93l.92-25.36,15-27L121.68,120l-4.3-3.81S113.67,99.1,117.93,96.84Z"/><path class="cls-5" d="M93.81,210.66,74.35,259.45s-2.51,9.24-5.49,12.22A131.27,131.27,0,0,1,61.49,293c-5.05,11.31-7.27,26.86-7.27,26.86s4.59,11.66,4,16.92c0,0,4.39,6.05,2.62,9.54s-8.68,1.41-8.68,1.41-11.56,1.52-13.28-1.36,2.17-10.6,2.17-10.6-.55-6.16,1.47-7.58A24.9,24.9,0,0,0,47,323.32s-.76-2,1.36-4.74,5.25-20.22,5.25-22.5-2.82-19.39,6.6-26.12c0,0,2.29-46.46,8.75-52.92s24.85-10.3,24.85-10.3Z"/><path class="cls-11" d="M93.81,210.66l-6.23,15.6S79,230.1,76.8,230.64c-1.62.4-13.14,4-12.75,1.63C65.26,225,66.93,219.07,69,217c6.47-6.46,24.85-10.3,24.85-10.3Z"/><path class="cls-5" d="M100.74,203.44S117,265,118.24,267.8s-5.15,8.31,6,47.29c0,0-.71,5.15-1.72,7s-3.33,6.47-.4,8.08,12.42,9.7,16.46,10.4,11.61-2.83,11.61-2.83,4-1.51,2.78-2.77c0,0-3.69-.15-4.9-1.37s-14.94-12-14.94-12-4.24-5.46-4.24-5.83-3-48.3-3-48.3,1.11-3,0-9.19-.58-45-.58-45Z"/><path class="cls-11" d="M100.74,203.44s3.83,14.43,5,18.69c.44,1.64,19.43,3,19.43,3l.1-11.81Z"/><path class="cls-12" d="M100.74,215.63c3.15,6.24,25.3,7.56,27.13,8.14,0,0,.58-25.08-3-39.17S100.74,215.63,100.74,215.63Z"/><path class="cls-13" d="M73.81,60.18c3.91,1.61.54-5.39.54-5.39s-.37-7-2.36-8.21A28.53,28.53,0,0,1,67.66,43L104.91,17.5s3.77-5.25-4.84-8.49A10.26,10.26,0,0,0,89.63,5.92s-3.77-4.51-9.22-.37c0,0-11-.64-13.47,4.74a4.11,4.11,0,0,0-4,2.29s-2.28.88-2.72,2.73c0,0-5.56,2.19-5.89,5.89,0,0-3,4.24-.61,7.67,0,0-1.6,3,.47,5.09,0,0-4.64,5.08,0,8.24,0,0-1.14,3.3,5.66,4.65l2,4.17s1.94-.88,7.54,4.72Z"/><path class="cls-10" d="M100.94,60.74a1.5,1.5,0,0,1,0-3c1.38,0,5.22-1.16,8-2.09-.88-6.8-5.24-11.89-7.85-14.39a1.5,1.5,0,0,1,2.07-2.17c3.07,2.93,8.3,9.1,8.89,17.48l.08,1.14-1.07.38C110.25,58.36,103.55,60.74,100.94,60.74Z"/><ellipse class="cls-14" cx="88.93" cy="45.68" rx="1.81" ry="2.47" transform="translate(-8.45 23.05) rotate(-14.1)"/><path class="cls-14" d="M86.15,45.39h-.07a1.5,1.5,0,0,1-1.43-1.56c0-.37.22-3.62,2.6-4.91,1.55-.83,3.46-.58,5.69.75a1.5,1.5,0,0,1-1.53,2.58c-1.21-.72-2.2-1-2.73-.69-.71.38-1,1.78-1,2.4A1.51,1.51,0,0,1,86.15,45.39Z"/><ellipse class="cls-14" cx="105.72" cy="40.61" rx="1.81" ry="2.47" transform="translate(-6.71 26.99) rotate(-14.1)"/><path class="cls-14" d="M102.47,40a1.39,1.39,0,0,1-.4-.06,1.49,1.49,0,0,1-1-1.84c.1-.35,1-3.48,3.64-4.2,1.68-.47,3.5.21,5.38,2A1.5,1.5,0,0,1,108,38.08c-1-1-1.93-1.44-2.5-1.29-.77.21-1.38,1.51-1.55,2.11A1.5,1.5,0,0,1,102.47,40Z"/><path class="cls-15" d="M93.06,62.93c-.22-.23,13.34.85,18.52-3,0,0,1,10.32-3.6,11.44S97.73,70.67,93.06,62.93Z"/><g class="cls-16"><path class="cls-17" d="M92.18,64.56s12.68,3.61,18.32-2L109.79,60,91.2,61.22Z"/><path class="cls-18" d="M94.41,69.2s4.07-3.94,10.57-1.31,0,7.37,0,7.37Z"/></g><path class="cls-10" d="M105.19,72.79c-7.76,0-12.94-9.27-13-9.38l-.86-1.57,1.79.09c.12,0,12.51.61,17.93-2.81a1,1,0,0,1,1.06,1.7C107.46,63.75,98.76,64,94.91,64c2,3,7.16,8.91,13.69,6.07a1,1,0,1,1,.8,1.83A10.47,10.47,0,0,1,105.19,72.79Z"/><path class="cls-10" d="M69.06,64.15s-.2-8.83-7-11"/><path class="cls-10" d="M62.06,134.14s5.82-7.81,5-6.62c-4.26,6.6,10.92,14.21,14.48,10.15a9.1,9.1,0,0,1-9.9,2.5Z"/><path class="cls-19" d="M75.43,99.8S69,102.18,66,105.19c0,0,18.13,26.3,5.74,35,0,0,11.41,21.8,10.2,26.24s-21.49,61-21.49,61,62.61-1.11,64.84-42l-3-23.56a196.45,196.45,0,0,0,1.75-23.9c.13-11.5-1.13-24.71-2-33.74a14.55,14.55,0,0,0-4.25-9.15l-5.89-.55s4.65,15.6-6.12,17.07C99.91,112.37,85.93,114.25,75.43,99.8Z"/><g class="cls-20"><path class="cls-21" d="M62.74,229s62.61-1.11,64.84-42Z"/></g><path class="cls-19" d="M75.43,99.8S69,102.18,66,105.19c0,0,18.13,26.3,5.74,35,0,0,11.41,21.8,10.2,26.24s-21.49,61-21.49,61,62.61-1.11,64.84-42l-3-23.56a196.45,196.45,0,0,0,1.75-23.9c.13-11.5-1.13-24.71-2-33.74a14.55,14.55,0,0,0-4.25-9.15l-5.89-.55s4.65,15.6-6.12,17.07C99.91,112.37,85.93,114.25,75.43,99.8Z"/><path class="cls-4" d="M80.5,171s33,4.4,42.17-6.11c0,0,1-2.07-.39-3,.2,1.94-15.5,10.39-40.39,5A2.71,2.71,0,0,0,80.5,171Z"/><circle class="cls-22" cx="107.92" cy="169.4" r="7.7"/><g class="cls-23"><path class="cls-24" d="M71.36,20.46s-3.31,4,.89,6.68c1.46.94-4.35,5.45-4.35,5.45L65.56,45.77a17.55,17.55,0,0,1,5-1.22L81.23,56.73,74.42,61,52.67,46.33l-14.47-28L56.85,1.44,77.24-3.31,73.66,3.8S65,9.09,68.31,12.9C66.24,14.36,65.83,20.07,71.36,20.46Z"/></g><path class="cls-25" d="M61.93,51S58,49.27,58,46,73.24,12.25,105,17.5c0,0,4.92,3.43,3.24,5.11,0,0,3,3.77.6,5.79S94.65,27.46,61.93,51Z"/><path class="cls-26" d="M63.64,43.89S84,19.11,105.72,22.34C105.72,22.34,85.46,23.43,63.64,43.89Z"/><path class="cls-27" d="M108.77,176a7.66,7.66,0,0,1-5.64-2.2c-1.52-1.69-1.95-4.13-1.27-7.26a1.5,1.5,0,1,1,2.93.64c-.46,2.12-.27,3.68.56,4.61,1.26,1.42,3.76,1.2,3.78,1.2a1.5,1.5,0,0,1,.31,3A5.1,5.1,0,0,1,108.77,176Z"/><path class="cls-28" d="M112.57,173.4l-.33,0a1.51,1.51,0,0,1-1.14-1.79c.48-2.13.29-3.69-.54-4.63-1.25-1.41-3.74-1.21-3.76-1.21a1.5,1.5,0,1,1-.29-3c.16,0,4-.36,6.3,2.21,1.5,1.7,1.92,4.15,1.22,7.27A1.49,1.49,0,0,1,112.57,173.4Z"/><path class="cls-10" d="M29.37,117.93a2.1,2.1,0,0,0,0-3.59c-.86-.65-2,.79-1.15,1.49a3.86,3.86,0,0,0,3.18,1.3A2.64,2.64,0,0,0,33.51,115l-1.39.57a3,3,0,0,0,3.09.09c1.09-.55.13-2.19-1-1.64a1,1,0,0,1-1.17-.09,1,1,0,0,0-1.4.57c-.26,1.34-1.46.51-2.08,0L28.45,116l0,.31c-1,.7-.05,2.34,1,1.64Z"/><path class="cls-10" d="M24,105.77q.66,3.09,1.47,6.13a1,1,0,0,0,1.83-.5q-.81-3.06-1.47-6.13c-.26-1.2-2.09-.69-1.83.5Z"/><path class="cls-10" d="M49.35,138.65a19,19,0,0,1,2.15,7.47c.1,1.21,2,1.22,1.9,0A21.55,21.55,0,0,0,51,137.7c-.57-1.09-2.21-.13-1.64,1Z"/><path class="cls-3" d="M85,3.8a6.5,6.5,0,0,1,4.64,2.12,11.14,11.14,0,0,1,2.81-.37A10.26,10.26,0,0,1,100.07,9c8.37,3.15,5.05,8.19,4.85,8.47l.09,0s4.92,3.43,3.24,5.11c0,0,3,3.77.6,5.79a2.49,2.49,0,0,1-.88.44c6.89,10.73,11,29.66,8.29,45.28-.54,3.09-4.07,5.31-13.59,5.31h0a50.45,50.45,0,0,1-9.21-.82c.09.73.19,1.52.3,2.31h0c.48,3.4,1.17,7.27,1.93,7.84,4.86,3.64,12.1,5.15,16.17,5.74l5.89.55A15.14,15.14,0,0,1,119,96.54h.06c1.78,0,3.18,1.94,3.18,1.94l23.23,40.67-20,36s6.73,11.31,3.36,16.43l4.65,4.65s.74,2.49-2.63,2.49a10.1,10.1,0,0,1-3.9-1.27,255,255,0,0,1,.93,26.35,26.31,26.31,0,0,0-2.71-.4l0,1.71h0c-.07,12,0,29.22.68,33.16,1.11,6.16,0,9.19,0,9.19s3,47.93,3,48.3,4.24,5.83,4.24,5.83,5.61,4.41,10,7.91h0a12.65,12.65,0,0,1,3.65,1.55,3.6,3.6,0,0,1,1.11,2.29c.29.2.77.52,1.32.92a14.31,14.31,0,0,0,3.79.71c.6.6,0,1.25-.78,1.77.43.47.7.88.62,1.14-.28,1-4.34,5.33-11.69,5.33-.41,0-.83,0-1.27-.05-7.7-.5-18.39-8.71-19.27-11a6.75,6.75,0,0,1,.12-4.61,12.89,12.89,0,0,1,1.82-5.46c1-1.82,1.72-7,1.72-7-11.11-39-4.75-44.46-6-47.29-.81-1.9-8.47-30.43-13.38-48.86a12.34,12.34,0,0,1-2.53-1.5A79.94,79.94,0,0,1,89,222.73l-1.4,3.53L74.35,259.45s-2.51,9.24-5.49,12.22A131.27,131.27,0,0,1,61.49,293c-5.05,11.31-7.27,26.86-7.27,26.86s3.62,9.19,4,14.93c4.26,5.82,8.08,13,3,15.13a29.17,29.17,0,0,1-11,1.94c-6.11,0-11.59-1.43-12.87-2.71-2.05-2.05,3.78-17.6,3.78-17.6.18-1.42.57-2.78,1.4-3.36A24.9,24.9,0,0,0,47,323.32s-.76-2,1.36-4.74,5.25-20.22,5.25-22.5-2.82-19.39,6.6-26.12c0,0,1.08-21.87,3.84-37.68h0c.3-1.79.63-3.5,1-5.1-2.89.24-4.63.27-4.63.27s15.13-42.22,20-56.58a2.65,2.65,0,0,1,1.3-3.91c.07-.22.12-.4.16-.54,1.21-4.44-10.2-26.24-10.2-26.24l-9.63-6L55.37,165l-4.54-1.71-6-9.31L33.9,121.27l-.33-.1a10.41,10.41,0,0,1-4.53-3.8,35.84,35.84,0,0,1-4.27.25h-.48a.88.88,0,0,1-.43-.09.85.85,0,0,1-.25-.53,46.74,46.74,0,0,0-2.45-8.61,1.42,1.42,0,0,1-.14-.75c.1-.47.64-.68,1.11-.72a2.87,2.87,0,0,0,1.38-.28c.52-.35.68-1.16,1.28-1.35a.73.73,0,0,1,.3-.05c.27,0,.56.09.84.09a1,1,0,0,0,.35-.06c.48-.2.6-.83.93-1.24a3.34,3.34,0,0,1,2.05-.81,14.59,14.59,0,0,0,3.61-1.45.35.35,0,0,0,.21-.18.45.45,0,0,0,0-.2c-.56-2.59-1.73-5.17-2.28-7.76a58.26,58.26,0,0,1-.94-7.4,4,4,0,0,1,2.05-2.49,1.2,1.2,0,0,1,.52-.15.52.52,0,0,1,.24,0c.29.13.39.49.45.8.63,2.88,2.32,10.19,3,13.08.39,1.84,3.72,6.43,4.43,7s.81,1.22,1.62,1.83a1.69,1.69,0,0,1,.56.57,1.9,1.9,0,0,1,.15.82l.12,4.87c0,1.9,0,4-1.33,5.38h0l8.73,20.8-.17-.58.23.45.26-21.8s6.79-6.09,7.67-7c.56-.56,4.74-3,7.62-4.67h0c3-3,9.48-5.39,9.48-5.39s6.16-7,7.47-8.28.71-5,.71-5l-3.38-13a25.39,25.39,0,0,1-8.3-7.91,3,3,0,0,1-2.2.88,7.73,7.73,0,0,1-3.93-1.49s-8.55-8.55-5.86-12.59a2.56,2.56,0,0,1,2.22-1.22c1.76,0,3.86,1.45,5.34,2.7-3-2.65-4.66-3-5.31-3H62l0,0,0,0-.06,0,0-.06c-.64-.32-3.5-1.89-3.75-4.55-4.83-1.51-3.9-4.21-3.9-4.21-4.64-3.16,0-8.24,0-8.24-2.07-2.07-.47-5.09-.47-5.09-2.42-3.43.61-7.67.61-7.67.33-3.7,5.89-5.89,5.89-5.89.44-1.85,2.72-2.73,2.72-2.73a4,4,0,0,1,3.73-2.3h.31c2-4.35,9.57-4.77,12.39-4.77.67,0,1.08,0,1.08,0A7.48,7.48,0,0,1,85,3.8m38,159.08,12.47-22.47-11.85-17.62c.31,5,.51,10.26.45,15.15a196.45,196.45,0,0,1-1.75,23.9,1.63,1.63,0,0,1,.68,1m24.56,170.23h0M85,0h0a10.74,10.74,0,0,0-5.72,1.73c-4.14,0-11,.72-14.51,5a7.65,7.65,0,0,0-4.52,3,8.32,8.32,0,0,0-2.94,2.79c-2.12,1.11-5.73,3.51-6.62,7.33-1.31,2.22-2.49,5.88-1.12,9.37a8.37,8.37,0,0,0,.11,4.59,9.75,9.75,0,0,0-1.32,5.82A7.59,7.59,0,0,0,50.41,44,6.58,6.58,0,0,0,51,45.6a8.27,8.27,0,0,0,4,3.65,9.27,9.27,0,0,0,1.33,2.1c-1.37,2.95-.54,6.68,2.48,11.1a41,41,0,0,0,4.39,5.33l.18.18.21.16a11.29,11.29,0,0,0,6.22,2.26,6.4,6.4,0,0,0,.88-.06A32.32,32.32,0,0,0,76.93,76l2.95,11.35a8,8,0,0,1,0,1.82c-1.46,1.53-5.19,5.72-6.72,7.45-2,.81-6.63,2.85-9.54,5.53-7,4.05-7.58,4.63-8,5.05-.58.58-4.92,4.5-7.51,6.82l-1.25,1.12v1.66l0,3.8-.94-2.24a13.38,13.38,0,0,0,.87-5.85l-.13-4.88a5.49,5.49,0,0,0-.58-2.49,5.35,5.35,0,0,0-1.52-1.74l0-.07A7.06,7.06,0,0,0,43,101.6a24.9,24.9,0,0,1-3.21-4.93c-.31-1.47-.9-4-1.47-6.54s-1.15-5.07-1.46-6.49a4.62,4.62,0,0,0-2.56-3.44,4.33,4.33,0,0,0-1.84-.41,4.76,4.76,0,0,0-2.35.63,7.54,7.54,0,0,0-4,5.4c-.21,2,1,8.54,1,8.61a38.82,38.82,0,0,0,1.25,4.28c.08.26.17.52.25.77l-.09,0-.24,0a6.33,6.33,0,0,0-3.88,2,4.91,4.91,0,0,0-.76.17,4.75,4.75,0,0,0-2.2,1.51,4.78,4.78,0,0,0-4.11,3.67,5,5,0,0,0,.32,2.93,42.63,42.63,0,0,1,2.25,7.9,4.3,4.3,0,0,0,4.36,3.73h.53c.86,0,1.72,0,2.58-.08A14.2,14.2,0,0,0,30.82,124l10.4,31.17.16.45.25.4,6,9.32.68,1.05,1.17.44L54,168.58l4.12,1.56.93-4.31,5.54-25.61,4.17,2.62c.87,1.69,2.82,5.55,4.72,9.74,3.47,7.65,4.37,11,4.6,12.32a6.5,6.5,0,0,0-1.54,2.39,6.27,6.27,0,0,0-.15,3.58C71.19,186.09,57,225.75,56.83,226.16L55,231.34l5.4-.1-.06.32-.11.55v.08c-2.29,13.4-3.4,30.46-3.71,35.88-8.4,7.59-7.19,22-6.78,26.87,0,.44.09,1,.09,1.14-.07,2.52-3.06,17.84-4.49,20.22a9.88,9.88,0,0,0-2.26,5.93,16.53,16.53,0,0,1-2.69,2.83c-1.56,1.09-2.51,2.9-2.92,5.53-.41,1.13-1.6,4.46-2.62,8-2.22,7.68-2.25,11.15-.14,13.26,2.63,2.63,9.9,3.82,15.55,3.82a32.79,32.79,0,0,0,12.48-2.23,7.41,7.41,0,0,0,4.45-4.89c1-3.77-.61-8.6-5.24-15.14a72,72,0,0,0-3.82-13.94c.57-3.47,2.76-15.78,6.84-24.9a138.67,138.67,0,0,0,7.37-21.06c3-3.75,5.08-10.86,5.62-12.81l13.16-33,.74-1.86a84.14,84.14,0,0,0,9.89-3.85c10.42,39.07,12.34,45.48,12.86,46.93,0,.28-.11.75-.18,1.14-.77,4.6-2.56,15.32,5.91,45.31a24.8,24.8,0,0,1-1.16,4.88,16.31,16.31,0,0,0-2.29,6.62,10.44,10.44,0,0,0,.12,6.64c1.18,3.09,6.86,6.92,8.57,8,2.92,1.88,8.63,5.08,14,5.43.5,0,1,.05,1.51.05,8.75,0,14.56-5.21,15.35-8.12a4,4,0,0,0,.13-1.52,4.4,4.4,0,0,0,.39-1.43,4.52,4.52,0,0,0-1.34-3.65l-1-1-1.48-.06a12.61,12.61,0,0,1-2-.28,6.68,6.68,0,0,0-1.95-2.76,13.15,13.15,0,0,0-4.31-2.08c-3.58-2.86-7.79-6.18-9-7.17-1.22-1.57-2.57-3.36-3.22-4.29-.17-2.78-.77-12.44-2.94-46.74a25.13,25.13,0,0,0-.09-10.26c-.22-1.24-.72-6.59-.63-29.49l2.63.83.11-5c0-.48.23-10.43-.5-21.38a6.22,6.22,0,0,0,5.08-2.38,5.75,5.75,0,0,0,.87-5l-.28-.93-.68-.68-2.9-2.89c1.22-5.36-1.66-12-3.45-15.49l19-34.13,1.05-1.87-1.07-1.86L125.57,96.6l-.1-.18-.11-.16a9.15,9.15,0,0,0-4.29-3.21c-.21-.23-.43-.45-.65-.68l-1-1-1.37-.13-5.79-.54c-3.42-.5-9.52-1.74-13.7-4.56A26.19,26.19,0,0,1,97.91,83c1.55.13,3.14.19,4.75.19,3.93,0,15.87,0,17.34-8.46,2.51-14.48-.51-32.9-7.21-45.22,1.33-2.32.89-5.14-.4-7.53a5.4,5.4,0,0,0,0-.69,8.61,8.61,0,0,0-3-5.13,8.17,8.17,0,0,0-.25-3.8c-.88-2.81-3.2-5-6.9-6.58a14,14,0,0,0-9.82-4.06,14.32,14.32,0,0,0-1.72.11A10,10,0,0,0,85,0Zm42.53,146.84c.16-2.75.27-5.74.31-8.86,0-.67,0-1.36,0-2.06L131,140.6l-3.46,6.24Z"/><polyline class="cls-5" points="33.57 121.17 34.09 121.47 42.13 118.21"/></g></svg>