<svg id="Camada_1" data-name="Camada 1" xmlns="http://www.w3.org/2000/svg" xmlns:xlink="http://www.w3.org/1999/xlink" viewBox="0 0 709.69 222.41"><defs><style>.cls-1{fill:none;}.cls-2{fill:#ffd478;}.cls-3{fill:#027e8f;}.cls-4{fill:#f9f9f9;}.cls-5{clip-path:url(#clip-path);}.cls-6{fill:#eac2a7;}.cls-7{fill:#c9a68f;}.cls-8{fill:#d6aa8b;}.cls-9{fill:#d6d6d6;}.cls-10{fill:#c99f4b;}.cls-11{fill:#6d5f56;}.cls-12{fill:#493e38;}.cls-13{clip-path:url(#clip-path-2);}.cls-14{fill:#fcfcfc;}.cls-15{fill:#d32222;}.cls-16{fill:#f4f4f4;}.cls-17{clip-path:url(#clip-path-3);}.cls-18{fill:#b7b7b7;}.cls-19{fill:#6d472e;}.cls-20{fill:#c99e32;}.cls-21{clip-path:url(#clip-path-4);}.cls-22{fill:#aa7e30;}.cls-23{fill:#fff;}.cls-24{fill:#ddd;}.cls-25{fill:#846829;}.cls-26{fill:#e8cd95;}.cls-27{fill:#eaa000;}.cls-28{clip-path:url(#clip-path-5);}</style><clipPath id="clip-path"><path class="cls-1" d="M131.37,205.62s-28.07,21.32-75.08,3.8-47-152.1-47-152.1S36.15,2.08,85,0c9.82-.42,43.26,7.4,43.26,28.13S153.35,142,153.35,142s10.54,40.82,5.27,43.92"/></clipPath><clipPath id="clip-path-2"><path class="cls-1" d="M93.06,62.94c-.22-.23,13.34.85,18.52-3,0,0,1,10.32-3.6,11.45S97.73,70.69,93.06,62.94Z"/></clipPath><clipPath id="clip-path-3"><path class="cls-1" d="M100.74,215.64c3.15,6.24,25.3,7.56,27.13,8.14,0,0,.58-25.08-3-39.17S100.74,215.64,100.74,215.64Z"/></clipPath><clipPath id="clip-path-4"><path class="cls-1" d="M73.81,60.19c3.91,1.62.54-5.39.54-5.39s-.37-7-2.36-8.21a28.53,28.53,0,0,1-4.33-3.54l10-6.84,27.27-18.7s3.77-5.25-4.84-8.48a10.26,10.26,0,0,0-10.44-3.1s-3.77-4.51-9.22-.37c0,0-11-.64-13.47,4.75a4.1,4.1,0,0,0-4,2.28s-2.28.88-2.72,2.73c0,0-5.56,2.19-5.89,5.89,0,0-3,4.24-.61,7.68,0,0-1.6,3,.47,5.08,0,0-4.64,5.08,0,8.25,0,0-1.14,3.29,5.66,4.64l2,4.17s1.94-.88,7.54,4.72Z"/></clipPath><clipPath id="clip-path-5"><path class="cls-1" d="M132.37-85.51s-28.07,21.32-75.08,3.8-47-152.1-47-152.1S50.35-291.67,86-291.11c9.82.16,43.26,7.4,43.26,28.14s25.1,113.8,25.1,113.8,10.54,40.81,5.27,43.92"/></clipPath></defs><title>4-Exemp2</title><path class="cls-2" d="M131.74,70.18H699.69a10,10,0,0,1,10,10V187a10,10,0,0,1-10,10H131.74a0,0,0,0,1,0,0V70.18A0,0,0,0,1,131.74,70.18Z"/><path class="cls-3" d="M220.09,90v.79l-1.55.11v7.78a3.14,3.14,0,0,0,1,2.52,4,4,0,0,0,2.73.9,4.23,4.23,0,0,0,2.78-.89,3.12,3.12,0,0,0,1.07-2.53V90.9l-1.55-.11V90h4.23v.79l-1.55.11v7.78a3.87,3.87,0,0,1-1.38,3.2,5.56,5.56,0,0,1-3.6,1.1,5.34,5.34,0,0,1-3.54-1.11,3.87,3.87,0,0,1-1.36-3.19V90.9l-1.55-.11V90h4.23Z"/><path class="cls-3" d="M230.08,94.07v-.78h2.55l.11,1.57a3.55,3.55,0,0,1,1.32-1.29,4,4,0,0,1,2-.45,3.41,3.41,0,0,1,2,.53,2.93,2.93,0,0,1,1.13,1.62,3.74,3.74,0,0,1,1.32-1.58,3.69,3.69,0,0,1,2.09-.57,3.22,3.22,0,0,1,2.54,1,4.62,4.62,0,0,1,.9,3.13v4.65l1.55.13v.77h-4.25V102l1.55-.13V97.24a3.64,3.64,0,0,0-.67-2.49,2.41,2.41,0,0,0-1.86-.72,2.65,2.65,0,0,0-2,.78,3.65,3.65,0,0,0-.89,2,.57.57,0,0,0,0,.13v5l1.55.12v.77h-4.23V102l1.54-.12V97.24a3.65,3.65,0,0,0-.67-2.47,2.44,2.44,0,0,0-1.87-.74,2.76,2.76,0,0,0-2.91,2.09v5.79l1.54.12v.77h-4.23V102l1.55-.12V94.19Z"/><path class="cls-3" d="M256,102.8a7.1,7.1,0,0,1-.16-.84,5.52,5.52,0,0,1,0-.71,4.38,4.38,0,0,1-1.52,1.24,4.52,4.52,0,0,1-2.13.49,3.45,3.45,0,0,1-2.34-.72,2.45,2.45,0,0,1-.82-2,2.36,2.36,0,0,1,1.22-2.09,6.14,6.14,0,0,1,3.32-.77h2.27V96.19a1.94,1.94,0,0,0-.71-1.6,3,3,0,0,0-2-.58,5.23,5.23,0,0,0-1.57.22,3.52,3.52,0,0,0-1.18.58l-.09,1.28h-.94V94.26a6,6,0,0,1,1.7-.83,7,7,0,0,1,2.11-.31,4.37,4.37,0,0,1,2.74.79,2.74,2.74,0,0,1,1,2.3v4.67c0,.2,0,.38,0,.56a4.35,4.35,0,0,0,.06.52l1,.07v.77Zm-3.74-.75a4.36,4.36,0,0,0,2.17-.52,3.26,3.26,0,0,0,1.36-1.37v-1.9h-2.29a4.49,4.49,0,0,0-2.47.59,1.73,1.73,0,0,0-.92,1.5,1.51,1.51,0,0,0,.57,1.23A2.38,2.38,0,0,0,252.27,102.05Z"/><path class="cls-3" d="M271.82,96.23h-.93l-.13-1.35a3,3,0,0,0-1.08-.64,4.53,4.53,0,0,0-1.49-.23,3,3,0,0,0-1.87.5,1.47,1.47,0,0,0-.62,1.16,1.34,1.34,0,0,0,.54,1.09,5.4,5.4,0,0,0,2.14.76,7.4,7.4,0,0,1,2.74,1,2.08,2.08,0,0,1,.91,1.78,2.26,2.26,0,0,1-1,1.92,4.66,4.66,0,0,1-2.75.73,6.77,6.77,0,0,1-2.07-.29,5.16,5.16,0,0,1-1.62-.83V99.94h.92l.16,1.36a2.8,2.8,0,0,0,1.16.61,5.34,5.34,0,0,0,1.45.19,3.35,3.35,0,0,0,1.95-.5,1.45,1.45,0,0,0,.71-1.22,1.53,1.53,0,0,0-.59-1.17,5.11,5.11,0,0,0-2.14-.81,7.77,7.77,0,0,1-2.72-1,2,2,0,0,1-.89-1.71,2.22,2.22,0,0,1,1-1.84,4.25,4.25,0,0,1,2.63-.75,6.14,6.14,0,0,1,2.06.32,4.25,4.25,0,0,1,1.53.86Z"/><path class="cls-3" d="M274.1,97.9a4.86,4.86,0,0,1,1.24-3.44,4.73,4.73,0,0,1,6.6,0,4.86,4.86,0,0,1,1.24,3.44v.3a4.88,4.88,0,0,1-1.23,3.44,4.75,4.75,0,0,1-6.61,0,4.84,4.84,0,0,1-1.24-3.44Zm1.14.3a4.29,4.29,0,0,0,.9,2.77,3,3,0,0,0,2.52,1.13,3,3,0,0,0,2.48-1.13,4.29,4.29,0,0,0,.91-2.77v-.3a4.32,4.32,0,0,0-.91-2.76,3.33,3.33,0,0,0-5,0,4.32,4.32,0,0,0-.9,2.76Z"/><path class="cls-3" d="M284.62,89.87v-.78h2.67v12.82l1.55.12v.77h-4.22V102l1.54-.12V90Z"/><path class="cls-3" d="M298.18,101.24a3.41,3.41,0,0,1-1.32,1.29,4.13,4.13,0,0,1-2,.45,3.24,3.24,0,0,1-2.54-1,4.6,4.6,0,0,1-.92-3.16V94.19l-1.27-.12v-.78h2.4v5.53a3.82,3.82,0,0,0,.64,2.49,2.24,2.24,0,0,0,1.82.76,3.56,3.56,0,0,0,2.05-.53,2.81,2.81,0,0,0,1.08-1.46V94.19l-1.46-.12v-.78h2.6v8.62l1.38.12v.77h-2.38Z"/><path class="cls-3" d="M306.71,102.1a3.42,3.42,0,0,0,2-.6,1.92,1.92,0,0,0,.86-1.66h1v0a2.52,2.52,0,0,1-1.13,2.21,4.45,4.45,0,0,1-2.75.88,4,4,0,0,1-3.23-1.33,5,5,0,0,1-1.15-3.42v-.37a5,5,0,0,1,1.15-3.41,4,4,0,0,1,3.22-1.33,5.53,5.53,0,0,1,2.18.41,4.27,4.27,0,0,1,1.6,1.12l0,2.08h-1L309.38,95a3.11,3.11,0,0,0-1.13-.75A4,4,0,0,0,306.7,94a2.81,2.81,0,0,0-2.44,1.1,4.54,4.54,0,0,0-.79,2.75v.37a4.66,4.66,0,0,0,.78,2.78A2.86,2.86,0,0,0,306.71,102.1Zm.3.78-.11.56a2.36,2.36,0,0,1,1.21.43,1.25,1.25,0,0,1,.46,1.08,1.45,1.45,0,0,1-.75,1.27,4,4,0,0,1-2.14.48l-.07-.68a3.41,3.41,0,0,0,1.43-.27.85.85,0,0,0,.58-.79.73.73,0,0,0-.39-.7,3.85,3.85,0,0,0-1.37-.26l.26-1.12Z"/><path class="cls-3" d="M319.8,102.8a7.1,7.1,0,0,1-.16-.84,5.52,5.52,0,0,1-.05-.71,4.38,4.38,0,0,1-1.52,1.24,4.52,4.52,0,0,1-2.13.49,3.45,3.45,0,0,1-2.34-.72,2.45,2.45,0,0,1-.82-2A2.38,2.38,0,0,1,314,98.22a6.14,6.14,0,0,1,3.32-.77h2.27V96.19a1.94,1.94,0,0,0-.71-1.6,3,3,0,0,0-2-.58,5.23,5.23,0,0,0-1.57.22,3.52,3.52,0,0,0-1.18.58l-.09,1.28h-.94V94.26a6,6,0,0,1,1.7-.83,7,7,0,0,1,2.11-.31,4.37,4.37,0,0,1,2.74.79,2.74,2.74,0,0,1,1,2.3v4.67c0,.2,0,.38,0,.56a4.35,4.35,0,0,0,.06.52l1,.07v.77Zm.41-13.18a1.72,1.72,0,0,1-.52,1.29,1.79,1.79,0,0,1-1.3.51,2.63,2.63,0,0,1-1.44-.48,2.32,2.32,0,0,0-1.24-.49,1,1,0,0,0-.75.31,1.06,1.06,0,0,0-.3.78l-.75-.16a1.75,1.75,0,0,1,.51-1.27,1.72,1.72,0,0,1,1.29-.51,2.76,2.76,0,0,1,1.4.48,2.69,2.69,0,0,0,1.28.49,1,1,0,0,0,.75-.32,1.09,1.09,0,0,0,.31-.8Zm-4.15,12.43a4.36,4.36,0,0,0,2.17-.52,3.26,3.26,0,0,0,1.36-1.37v-1.9H317.3a4.49,4.49,0,0,0-2.47.59,1.73,1.73,0,0,0-.92,1.5,1.51,1.51,0,0,0,.57,1.23A2.38,2.38,0,0,0,316.06,102.05Z"/><path class="cls-3" d="M323.44,97.9a4.86,4.86,0,0,1,1.24-3.44,4.73,4.73,0,0,1,6.6,0,4.91,4.91,0,0,1,1.24,3.44v.3a4.84,4.84,0,0,1-1.24,3.44A4.23,4.23,0,0,1,328,103a4.27,4.27,0,0,1-3.31-1.34,4.84,4.84,0,0,1-1.24-3.44Zm1.14.3a4.29,4.29,0,0,0,.9,2.77,3.33,3.33,0,0,0,5,0,4.29,4.29,0,0,0,.9-2.77v-.3a4.27,4.27,0,0,0-.91-2.76,3.32,3.32,0,0,0-5,0,4.32,4.32,0,0,0-.9,2.76Z"/><path class="cls-3" d="M339.1,98.12a5.83,5.83,0,0,1,1-3.64,3.43,3.43,0,0,1,2.9-1.36,4,4,0,0,1,1.84.4,3.69,3.69,0,0,1,1.31,1.18l.11-1.41h1v12.27l1.54.11v.79h-4.23v-.79l1.55-.11v-4a3.48,3.48,0,0,1-1.31,1.07A4.39,4.39,0,0,1,343,103a3.5,3.5,0,0,1-2.88-1.27,5.17,5.17,0,0,1-1-3.4Zm1.15.19a4.55,4.55,0,0,0,.74,2.75,2.59,2.59,0,0,0,2.24,1,3.33,3.33,0,0,0,1.79-.45,3,3,0,0,0,1.14-1.21V95.79a3.61,3.61,0,0,0-1.11-1.28,3.06,3.06,0,0,0-1.8-.5A2.5,2.5,0,0,0,341,95.16a5.3,5.3,0,0,0-.75,3Z"/><path class="cls-3" d="M357.5,101.24a3.41,3.41,0,0,1-1.32,1.29,4.13,4.13,0,0,1-2,.45,3.24,3.24,0,0,1-2.54-1,4.6,4.6,0,0,1-.92-3.16V94.19l-1.27-.12v-.78h2.4v5.53a3.88,3.88,0,0,0,.64,2.49,2.25,2.25,0,0,0,1.82.76,3.54,3.54,0,0,0,2.05-.53,2.81,2.81,0,0,0,1.08-1.46V94.19L356,94.07v-.78h2.6v8.62L360,102v.77H357.6Z"/><path class="cls-3" d="M366.18,103a4.25,4.25,0,0,1-3.21-1.31,4.6,4.6,0,0,1-1.27-3.34v-.49A4.75,4.75,0,0,1,363,94.46,4.05,4.05,0,0,1,366,93.12a4,4,0,0,1,3,1.1,4,4,0,0,1,1.09,3v.89h-7.25v.26a4,4,0,0,0,.92,2.68,3,3,0,0,0,2.43,1.09,5.08,5.08,0,0,0,1.8-.28,3.53,3.53,0,0,0,1.28-.78l.48.72a4,4,0,0,1-1.46.9A6.27,6.27,0,0,1,366.18,103ZM366,94a2.83,2.83,0,0,0-2.11.89,3.74,3.74,0,0,0-1,2.24l0,0h6v-.26a2.9,2.9,0,0,0-.79-2.07A2.8,2.8,0,0,0,366,94Z"/><path class="cls-3" d="M384.28,96.23h-.93l-.13-1.35a2.87,2.87,0,0,0-1.08-.64,4.53,4.53,0,0,0-1.49-.23,3,3,0,0,0-1.87.5,1.47,1.47,0,0,0-.62,1.16,1.34,1.34,0,0,0,.54,1.09,5.47,5.47,0,0,0,2.14.76,7.4,7.4,0,0,1,2.74,1,2.08,2.08,0,0,1,.91,1.78,2.24,2.24,0,0,1-1,1.92,4.65,4.65,0,0,1-2.74.73,6.84,6.84,0,0,1-2.08-.29,5.16,5.16,0,0,1-1.62-.83V99.94h.92l.17,1.36a2.7,2.7,0,0,0,1.15.61,5.36,5.36,0,0,0,1.46.19,3.34,3.34,0,0,0,1.94-.5,1.45,1.45,0,0,0,.71-1.22,1.5,1.5,0,0,0-.59-1.17,5,5,0,0,0-2.14-.81,7.77,7.77,0,0,1-2.72-1,2,2,0,0,1-.89-1.71,2.25,2.25,0,0,1,1-1.84,4.25,4.25,0,0,1,2.63-.75,6.14,6.14,0,0,1,2.06.32,4.25,4.25,0,0,1,1.53.86Z"/><path class="cls-3" d="M394.11,101.24a3.44,3.44,0,0,1-1.33,1.29,4.13,4.13,0,0,1-2,.45,3.22,3.22,0,0,1-2.53-1,4.6,4.6,0,0,1-.92-3.16V94.19l-1.27-.12v-.78h2.4v5.53a3.82,3.82,0,0,0,.64,2.49,2.24,2.24,0,0,0,1.82.76,3.56,3.56,0,0,0,2.05-.53,2.81,2.81,0,0,0,1.08-1.46V94.19l-1.46-.12v-.78h2.6v8.62l1.38.12v.77h-2.38Z"/><path class="cls-3" d="M400.71,93.29l.15,1.58V95a3.35,3.35,0,0,1,1.19-1.38,3.18,3.18,0,0,1,1.79-.49,2,2,0,0,1,.42,0l.34.06-.16,1-.84-.06a2.71,2.71,0,0,0-1.76.56,3,3,0,0,0-1,1.53v5.68l1.54.12v.77h-4.22V102l1.55-.12V94.19l-1.55-.12v-.78h2.53Z"/><path class="cls-3" d="M405.93,98.12A5.83,5.83,0,0,1,407,94.48a3.46,3.46,0,0,1,2.91-1.36,3.84,3.84,0,0,1,1.9.44,3.75,3.75,0,0,1,1.32,1.25l.13-1.52h1v9.39a3.93,3.93,0,0,1-1.07,2.9,4.06,4.06,0,0,1-3,1.06,7.47,7.47,0,0,1-1.58-.17,6.71,6.71,0,0,1-1.47-.45l.31-.89a7,7,0,0,0,1.29.42,6.6,6.6,0,0,0,1.43.15,2.86,2.86,0,0,0,2.2-.8,3.1,3.1,0,0,0,.74-2.22v-1.21a3.48,3.48,0,0,1-1.32,1.12,4.19,4.19,0,0,1-1.87.39,3.52,3.52,0,0,1-2.89-1.27,5.18,5.18,0,0,1-1.05-3.4Zm1.14.19a4.47,4.47,0,0,0,.76,2.74,2.61,2.61,0,0,0,2.25,1,3.41,3.41,0,0,0,1.85-.46,3.08,3.08,0,0,0,1.13-1.29V95.91A3.32,3.32,0,0,0,412,94.55,3.07,3.07,0,0,0,410.1,94a2.54,2.54,0,0,0-2.26,1.14,5.21,5.21,0,0,0-.77,3Z"/><path class="cls-3" d="M421.31,103a4.27,4.27,0,0,1-3.21-1.31,4.6,4.6,0,0,1-1.27-3.34v-.49a4.72,4.72,0,0,1,1.27-3.38,4,4,0,0,1,3.06-1.34,4,4,0,0,1,3,1.1,4.07,4.07,0,0,1,1.08,3v.89H418v.26a4,4,0,0,0,.92,2.68,3,3,0,0,0,2.43,1.09,5.08,5.08,0,0,0,1.8-.28,3.53,3.53,0,0,0,1.28-.78l.49.72a4.11,4.11,0,0,1-1.46.9A6.29,6.29,0,0,1,421.31,103Zm-.15-9a2.82,2.82,0,0,0-2.11.89,3.69,3.69,0,0,0-1,2.24l0,0h6v-.26a2.86,2.86,0,0,0-.79-2.07A2.76,2.76,0,0,0,421.16,94Z"/><path class="cls-3" d="M439.1,101.43a3.45,3.45,0,0,1-1.31,1.15,4.19,4.19,0,0,1-1.9.4,3.5,3.5,0,0,1-2.88-1.27,5.17,5.17,0,0,1-1-3.4v-.19a5.83,5.83,0,0,1,1-3.64,3.43,3.43,0,0,1,2.9-1.36,3.92,3.92,0,0,1,1.86.41,3.72,3.72,0,0,1,1.31,1.19V90l-1.55-.12v-.78h2.69v12.82l1.54.12v.77H439.2Zm-6-3.12a4.52,4.52,0,0,0,.74,2.74,2.61,2.61,0,0,0,2.25,1,3.35,3.35,0,0,0,1.82-.46,3.16,3.16,0,0,0,1.15-1.25v-4.5a3.37,3.37,0,0,0-1.1-1.32,3.13,3.13,0,0,0-1.85-.51,2.53,2.53,0,0,0-2.26,1.14,5.27,5.27,0,0,0-.75,3Z"/><path class="cls-3" d="M448,103a4.27,4.27,0,0,1-3.21-1.31,4.6,4.6,0,0,1-1.27-3.34v-.49a4.75,4.75,0,0,1,1.26-3.38,4.05,4.05,0,0,1,3.06-1.34,4,4,0,0,1,3,1.1,4,4,0,0,1,1.09,3v.89h-7.25v.26a4,4,0,0,0,.92,2.68A3,3,0,0,0,448,102.1a5.08,5.08,0,0,0,1.8-.28,3.53,3.53,0,0,0,1.28-.78l.48.72a4,4,0,0,1-1.46.9A6.27,6.27,0,0,1,448,103Zm-.16-9a2.83,2.83,0,0,0-2.11.89,3.74,3.74,0,0,0-1,2.24l0,0h6v-.26a2.86,2.86,0,0,0-.79-2.07A2.8,2.8,0,0,0,447.88,94Z"/><path class="cls-3" d="M458.62,102l1.55-.12V94.19l-1.55-.12v-.78h2.68v8.62l1.54.12v.77h-4.22Zm2.68-11.46h-1.13V89.09h1.13Z"/><path class="cls-3" d="M464.5,94.07v-.78h2.56l.1,1.57a3.55,3.55,0,0,1,1.32-1.29,4.05,4.05,0,0,1,2-.45,3.41,3.41,0,0,1,2,.53,2.93,2.93,0,0,1,1.13,1.62A3.53,3.53,0,0,1,477,93.12a3.2,3.2,0,0,1,2.53,1,4.62,4.62,0,0,1,.9,3.13v4.65l1.55.13v.77H477.7V102l1.54-.13V97.24a3.64,3.64,0,0,0-.67-2.49,2.4,2.4,0,0,0-1.86-.72,2.65,2.65,0,0,0-2,.78,3.64,3.64,0,0,0-.88,2v.13s0,.09,0,.16v4.81l1.54.12v.77H471.1V102l1.55-.12V97.24a3.65,3.65,0,0,0-.68-2.47A2.42,2.42,0,0,0,470.1,94a2.76,2.76,0,0,0-2.91,2.09v5.79l1.55.12v.77H464.5V102l1.55-.12V94.19Z"/><path class="cls-3" d="M487.78,103a4.27,4.27,0,0,1-3.21-1.31,4.6,4.6,0,0,1-1.27-3.34v-.49a4.75,4.75,0,0,1,1.26-3.38,4.05,4.05,0,0,1,3.06-1.34,4,4,0,0,1,3,1.1,4,4,0,0,1,1.09,3v.89h-7.25v.26a4,4,0,0,0,.92,2.68,3,3,0,0,0,2.43,1.09,5.08,5.08,0,0,0,1.8-.28,3.53,3.53,0,0,0,1.28-.78l.48.72a4,4,0,0,1-1.46.9A6.23,6.23,0,0,1,487.78,103Zm-.16-9a2.85,2.85,0,0,0-2.11.89,3.74,3.74,0,0,0-1,2.24l0,0h6v-.26a2.86,2.86,0,0,0-.79-2.07A2.8,2.8,0,0,0,487.62,94Z"/><path class="cls-3" d="M500.84,101.43a3.45,3.45,0,0,1-1.31,1.15,4.19,4.19,0,0,1-1.9.4,3.5,3.5,0,0,1-2.88-1.27,5.17,5.17,0,0,1-1-3.4v-.19a5.83,5.83,0,0,1,1-3.64,3.43,3.43,0,0,1,2.9-1.36,3.92,3.92,0,0,1,1.86.41,3.72,3.72,0,0,1,1.31,1.19V90l-1.55-.12v-.78H502v12.82l1.54.12v.77h-2.56Zm-6-3.12a4.52,4.52,0,0,0,.74,2.74,2.61,2.61,0,0,0,2.25,1,3.35,3.35,0,0,0,1.82-.46,3.09,3.09,0,0,0,1.15-1.25v-4.5a3.37,3.37,0,0,0-1.1-1.32,3.13,3.13,0,0,0-1.85-.51,2.53,2.53,0,0,0-2.26,1.14,5.27,5.27,0,0,0-.75,3Z"/><path class="cls-3" d="M505.17,102l1.55-.12V94.19l-1.55-.12v-.78h2.68v8.62l1.55.12v.77h-4.23Zm2.68-11.46h-1.13V89.09h1.13Z"/><path class="cls-3" d="M518.39,102.8c-.07-.32-.13-.6-.16-.84a5.53,5.53,0,0,1,0-.71,4.48,4.48,0,0,1-1.52,1.24,4.59,4.59,0,0,1-2.14.49,3.44,3.44,0,0,1-2.33-.72,2.46,2.46,0,0,1-.83-2,2.37,2.37,0,0,1,1.23-2.09,6.11,6.11,0,0,1,3.32-.77h2.27V96.19a2,2,0,0,0-.71-1.6,3,3,0,0,0-2-.58,5.11,5.11,0,0,0-1.56.22,3.43,3.43,0,0,0-1.18.58l-.1,1.28h-.94V94.26a6,6,0,0,1,1.71-.83,6.9,6.9,0,0,1,2.11-.31,4.36,4.36,0,0,1,2.73.79,2.75,2.75,0,0,1,1,2.3v4.67c0,.2,0,.38,0,.56a4.35,4.35,0,0,0,.06.52l1,.07v.77Zm-3.73-.75a4.38,4.38,0,0,0,2.17-.52,3.26,3.26,0,0,0,1.36-1.37v-1.9H515.9a4.47,4.47,0,0,0-2.47.59,1.74,1.74,0,0,0-.93,1.5,1.51,1.51,0,0,0,.57,1.23A2.41,2.41,0,0,0,514.66,102.05Z"/><path class="cls-3" d="M524.64,90.86v2.43h2.26v.86h-2.26v6.2a1.88,1.88,0,0,0,.37,1.32,1.25,1.25,0,0,0,1,.39l.53,0a5.41,5.41,0,0,0,.61-.08l.17.79a3.42,3.42,0,0,1-.7.17,5.52,5.52,0,0,1-.81.06,2.25,2.25,0,0,1-1.69-.63,2.83,2.83,0,0,1-.6-2v-6.2h-1.76v-.86h1.76V90.86Z"/><path class="cls-3" d="M528.8,97.9A4.86,4.86,0,0,1,530,94.46a4.73,4.73,0,0,1,6.6,0,4.91,4.91,0,0,1,1.24,3.44v.3a4.84,4.84,0,0,1-1.24,3.44,4.73,4.73,0,0,1-6.6,0,4.84,4.84,0,0,1-1.24-3.44Zm1.13.3a4.29,4.29,0,0,0,.91,2.77,3.33,3.33,0,0,0,5,0,4.29,4.29,0,0,0,.9-2.77v-.3a4.27,4.27,0,0,0-.91-2.76,3.32,3.32,0,0,0-5,0,4.32,4.32,0,0,0-.91,2.76Z"/><path class="cls-3" d="M549,103a4.23,4.23,0,0,1-3.2-1.31,4.61,4.61,0,0,1-1.28-3.34v-.49a4.76,4.76,0,0,1,1.27-3.38,4.05,4.05,0,0,1,3.06-1.34,4,4,0,0,1,3,1.1,4.07,4.07,0,0,1,1.08,3v.89h-7.25v.26a4,4,0,0,0,.93,2.68A3,3,0,0,0,549,102.1a5.1,5.1,0,0,0,1.81-.28,3.61,3.61,0,0,0,1.28-.78l.48.72a4,4,0,0,1-1.46.9A6.29,6.29,0,0,1,549,103Zm-.15-9a2.83,2.83,0,0,0-2.11.89,3.68,3.68,0,0,0-1,2.24l0,0h6v-.26a2.9,2.9,0,0,0-.79-2.07A2.8,2.8,0,0,0,548.83,94Zm1.07-4.35h1.4l0,0L549,92h-1Z"/><path class="cls-3" d="M566.73,102.8c-.07-.32-.13-.6-.16-.84a5.52,5.52,0,0,1-.05-.71,4.38,4.38,0,0,1-1.52,1.24,4.52,4.52,0,0,1-2.13.49,3.45,3.45,0,0,1-2.34-.72,2.45,2.45,0,0,1-.82-2,2.38,2.38,0,0,1,1.22-2.09,6.16,6.16,0,0,1,3.32-.77h2.27V96.19a2,2,0,0,0-.7-1.6,3.05,3.05,0,0,0-2-.58,5.11,5.11,0,0,0-1.56.22,3.48,3.48,0,0,0-1.19.58L561,96.09h-.94V94.26a6,6,0,0,1,1.7-.83,7,7,0,0,1,2.11-.31,4.37,4.37,0,0,1,2.74.79,2.74,2.74,0,0,1,1,2.3v4.67c0,.2,0,.38,0,.56a4.35,4.35,0,0,0,.06.52l1,.07v.77Zm-3.74-.75a4.42,4.42,0,0,0,2.18-.52,3.29,3.29,0,0,0,1.35-1.37v-1.9h-2.28a4.51,4.51,0,0,0-2.48.59,1.75,1.75,0,0,0-.92,1.5,1.51,1.51,0,0,0,.57,1.23A2.38,2.38,0,0,0,563,102.05Z"/><path class="cls-3" d="M216.21,119.5a4.85,4.85,0,0,1,1.25-3.44,4.7,4.7,0,0,1,6.59,0,4.85,4.85,0,0,1,1.25,3.44v.29a4.9,4.9,0,0,1-1.24,3.45,4.73,4.73,0,0,1-6.6,0,4.86,4.86,0,0,1-1.25-3.45Zm1.14.29a4.25,4.25,0,0,0,.91,2.78,3.33,3.33,0,0,0,5,0,4.3,4.3,0,0,0,.9-2.78v-.29a4.27,4.27,0,0,0-.91-2.76,3.32,3.32,0,0,0-5,0,4.27,4.27,0,0,0-.91,2.76Z"/><path class="cls-3" d="M229.61,114.89l.14,1.58v.12a3.43,3.43,0,0,1,1.19-1.38,3.19,3.19,0,0,1,1.79-.5,2,2,0,0,1,.42,0l.34.06-.15,1-.85-.05a2.73,2.73,0,0,0-1.76.56,3,3,0,0,0-1,1.53v5.68l1.55.12v.77h-4.23v-.77l1.55-.12v-7.72l-1.55-.12v-.78h2.54Z"/><path class="cls-3" d="M234.83,119.72a5.83,5.83,0,0,1,1-3.64,3.44,3.44,0,0,1,2.9-1.37,3.84,3.84,0,0,1,1.9.45,3.66,3.66,0,0,1,1.32,1.25l.13-1.52h1v9.39a3.89,3.89,0,0,1-1.07,2.9,4,4,0,0,1-3,1.06,7.54,7.54,0,0,1-1.58-.17,6.71,6.71,0,0,1-1.47-.45l.31-.89a7,7,0,0,0,1.29.42,6.67,6.67,0,0,0,1.43.15,2.85,2.85,0,0,0,2.2-.8,3.1,3.1,0,0,0,.74-2.22v-1.21a3.33,3.33,0,0,1-1.32,1.12,4.19,4.19,0,0,1-1.87.39,3.53,3.53,0,0,1-2.89-1.27,5.17,5.17,0,0,1-1-3.4Zm1.13.19a4.56,4.56,0,0,0,.76,2.74,2.61,2.61,0,0,0,2.25,1,3.32,3.32,0,0,0,1.85-.47,3,3,0,0,0,1.13-1.28v-4.41a3.32,3.32,0,0,0-1.09-1.36,3.07,3.07,0,0,0-1.87-.52,2.54,2.54,0,0,0-2.26,1.14,5.21,5.21,0,0,0-.77,3Z"/><path class="cls-3" d="M252.76,124.4c-.07-.32-.13-.6-.16-.84a5.53,5.53,0,0,1,0-.71,4.48,4.48,0,0,1-1.52,1.24,4.59,4.59,0,0,1-2.14.49,3.44,3.44,0,0,1-2.33-.72,2.46,2.46,0,0,1-.83-2,2.37,2.37,0,0,1,1.23-2.09,6.11,6.11,0,0,1,3.32-.77h2.27v-1.26a2,2,0,0,0-.71-1.6,3,3,0,0,0-2-.58,5.11,5.11,0,0,0-1.56.22,3.43,3.43,0,0,0-1.18.58l-.1,1.28h-.94v-1.83a6,6,0,0,1,1.71-.83,6.9,6.9,0,0,1,2.11-.32,4.36,4.36,0,0,1,2.73.8,2.75,2.75,0,0,1,1,2.3v4.67c0,.2,0,.38,0,.56a4.35,4.35,0,0,0,.06.52l1,.07v.77Zm-3.73-.75a4.28,4.28,0,0,0,2.17-.53,3.18,3.18,0,0,0,1.36-1.36v-1.9h-2.29a4.47,4.47,0,0,0-2.47.59,1.74,1.74,0,0,0-.93,1.5,1.49,1.49,0,0,0,.58,1.23A2.37,2.37,0,0,0,249,123.65Z"/><path class="cls-3" d="M256.19,123.63l1.55-.12v-7.72l-1.55-.12v-.78h2.55l.11,1.66a3.48,3.48,0,0,1,1.33-1.36,4,4,0,0,1,2-.48,3.29,3.29,0,0,1,2.54,1,4.2,4.2,0,0,1,.88,3v4.9l1.54.12v.77H262.9v-.77l1.55-.12v-4.89a3.3,3.3,0,0,0-.66-2.32,2.51,2.51,0,0,0-1.88-.67,3.12,3.12,0,0,0-2,.58,3.26,3.26,0,0,0-1.08,1.55v5.75l1.54.12v.77h-4.23Z"/><path class="cls-3" d="M268.84,123.63l1.55-.12v-7.72l-1.55-.12v-.78h2.68v8.62l1.55.12v.77h-4.23Zm2.68-11.46h-1.13v-1.48h1.13Z"/><path class="cls-3" d="M276.55,123.51h5.58l.09-1.8h1v2.69h-8.08v-.77l6.19-7.84h-5.07l-.07,1.8h-1v-2.7h7.6v.78Z"/><path class="cls-3" d="M292.31,124.4c-.07-.32-.13-.6-.16-.84a5.53,5.53,0,0,1,0-.71,4.48,4.48,0,0,1-1.52,1.24,4.59,4.59,0,0,1-2.14.49,3.44,3.44,0,0,1-2.33-.72,2.46,2.46,0,0,1-.83-2,2.37,2.37,0,0,1,1.23-2.09,6.11,6.11,0,0,1,3.32-.77h2.27v-1.26a2,2,0,0,0-.71-1.6,3,3,0,0,0-2-.58,5.11,5.11,0,0,0-1.56.22,3.43,3.43,0,0,0-1.18.58l-.1,1.28h-.94v-1.83a6,6,0,0,1,1.71-.83,6.9,6.9,0,0,1,2.11-.32,4.36,4.36,0,0,1,2.73.8,2.75,2.75,0,0,1,1,2.3v4.67c0,.2,0,.38,0,.56a4.35,4.35,0,0,0,.06.52l1,.07v.77Zm-3.73-.75a4.28,4.28,0,0,0,2.17-.53,3.18,3.18,0,0,0,1.36-1.36v-1.9h-2.29a4.47,4.47,0,0,0-2.47.59,1.74,1.74,0,0,0-.93,1.5,1.49,1.49,0,0,0,.58,1.23A2.37,2.37,0,0,0,288.58,123.65Z"/><path class="cls-3" d="M300.34,123.7a3.41,3.41,0,0,0,2-.6,1.92,1.92,0,0,0,.86-1.66h1l0,0a2.55,2.55,0,0,1-1.14,2.21,4.42,4.42,0,0,1-2.74.88,4,4,0,0,1-3.24-1.33,5,5,0,0,1-1.15-3.42v-.37a5,5,0,0,1,1.15-3.41,4,4,0,0,1,3.23-1.34,5.49,5.49,0,0,1,2.17.42,4.19,4.19,0,0,1,1.6,1.12l0,2.08h-1l-.18-1.69a3.11,3.11,0,0,0-1.13-.75,4,4,0,0,0-1.54-.28,2.84,2.84,0,0,0-2.45,1.09,4.6,4.6,0,0,0-.79,2.76v.37a4.62,4.62,0,0,0,.79,2.78A2.83,2.83,0,0,0,300.34,123.7Zm.29.78-.11.56a2.36,2.36,0,0,1,1.21.43,1.25,1.25,0,0,1,.47,1.07,1.45,1.45,0,0,1-.75,1.28,4,4,0,0,1-2.15.48l-.07-.68a3.38,3.38,0,0,0,1.43-.27.86.86,0,0,0,.59-.79.73.73,0,0,0-.39-.7,3.91,3.91,0,0,0-1.38-.26l.27-1.12Z"/><path class="cls-3" d="M313.42,124.4c-.07-.32-.13-.6-.16-.84a5.52,5.52,0,0,1-.05-.71,4.34,4.34,0,0,1-1.51,1.24,4.59,4.59,0,0,1-2.14.49,3.42,3.42,0,0,1-2.33-.72,2.43,2.43,0,0,1-.83-2,2.38,2.38,0,0,1,1.22-2.09,6.17,6.17,0,0,1,3.33-.77h2.26v-1.26a2,2,0,0,0-.7-1.6,3,3,0,0,0-2-.58,5.11,5.11,0,0,0-1.56.22,3.43,3.43,0,0,0-1.18.58l-.1,1.28h-.94v-1.83a6,6,0,0,1,1.7-.83,7,7,0,0,1,2.12-.32,4.36,4.36,0,0,1,2.73.8,2.74,2.74,0,0,1,1,2.3v4.67c0,.2,0,.38,0,.56a4.35,4.35,0,0,0,.06.52l1,.07v.77Zm.41-13.18a1.72,1.72,0,0,1-.52,1.29,1.79,1.79,0,0,1-1.3.51,2.58,2.58,0,0,1-1.43-.48,2.38,2.38,0,0,0-1.25-.49,1,1,0,0,0-.75.31,1.06,1.06,0,0,0-.3.78l-.75-.16a1.74,1.74,0,0,1,1.8-1.78,2.76,2.76,0,0,1,1.4.48,2.69,2.69,0,0,0,1.28.49,1,1,0,0,0,.75-.32,1.09,1.09,0,0,0,.31-.8Zm-4.15,12.43a4.29,4.29,0,0,0,2.18-.53,3.16,3.16,0,0,0,1.35-1.36v-1.9h-2.28a4.53,4.53,0,0,0-2.48.59,1.75,1.75,0,0,0-.92,1.5,1.51,1.51,0,0,0,.57,1.23A2.4,2.4,0,0,0,309.68,123.65Z"/><path class="cls-3" d="M317.06,119.5a4.84,4.84,0,0,1,1.24-3.44,4.71,4.71,0,0,1,6.6,0,4.84,4.84,0,0,1,1.24,3.44v.29a4.85,4.85,0,0,1-1.24,3.45,4.23,4.23,0,0,1-3.29,1.34,4.27,4.27,0,0,1-3.31-1.34,4.85,4.85,0,0,1-1.24-3.45Zm1.14.29a4.3,4.3,0,0,0,.9,2.78,3.33,3.33,0,0,0,5,0,4.3,4.3,0,0,0,.9-2.78v-.29a4.32,4.32,0,0,0-.9-2.76,3.06,3.06,0,0,0-2.51-1.13,3,3,0,0,0-2.49,1.13,4.32,4.32,0,0,0-.9,2.76Z"/><path class="cls-3" d="M332.42,115.67v-.78h2.49l.14,1.48a3.67,3.67,0,0,1,1.34-1.23,4.07,4.07,0,0,1,1.9-.43,3.43,3.43,0,0,1,2.89,1.37,5.83,5.83,0,0,1,1.05,3.64v.19a5.16,5.16,0,0,1-1.05,3.4,3.49,3.49,0,0,1-2.87,1.27,4.31,4.31,0,0,1-1.89-.38,3.35,3.35,0,0,1-1.33-1.08v4l1.55.11v.79h-4.22v-.79l1.54-.11V115.79Zm8.67,4a5.14,5.14,0,0,0-.78-3,2.59,2.59,0,0,0-2.28-1.14,3.22,3.22,0,0,0-1.86.5,3.16,3.16,0,0,0-1.08,1.32V122a3,3,0,0,0,1.13,1.23,3.45,3.45,0,0,0,1.83.45,2.66,2.66,0,0,0,2.27-1,4.53,4.53,0,0,0,.77-2.75Z"/><path class="cls-3" d="M348.61,124.58a4.27,4.27,0,0,1-3.21-1.31,4.6,4.6,0,0,1-1.27-3.34v-.49a4.73,4.73,0,0,1,1.26-3.38,4.07,4.07,0,0,1,3.07-1.35,4,4,0,0,1,3,1.11,4.05,4.05,0,0,1,1.08,3v.89h-7.25v.26a4,4,0,0,0,.92,2.68,3,3,0,0,0,2.43,1.09,5.08,5.08,0,0,0,1.8-.28,3.53,3.53,0,0,0,1.28-.78l.49.72a4.15,4.15,0,0,1-1.47.9A6.23,6.23,0,0,1,348.61,124.58Zm-.15-9a2.85,2.85,0,0,0-2.12.89,3.74,3.74,0,0,0-1,2.24l0,0h6v-.26a2.86,2.86,0,0,0-.79-2.07A2.78,2.78,0,0,0,348.46,115.61Z"/><path class="cls-3" d="M354.31,111.47v-.78H357v12.82l1.54.12v.77h-4.22v-.77l1.55-.12V111.59Z"/><path class="cls-3" d="M360.14,119.5a4.84,4.84,0,0,1,1.24-3.44,4.71,4.71,0,0,1,6.6,0,4.84,4.84,0,0,1,1.24,3.44v.29a4.85,4.85,0,0,1-1.24,3.45,4.23,4.23,0,0,1-3.29,1.34,4.27,4.27,0,0,1-3.31-1.34,4.85,4.85,0,0,1-1.24-3.45Zm1.14.29a4.3,4.3,0,0,0,.9,2.78,3.33,3.33,0,0,0,5,0,4.3,4.3,0,0,0,.9-2.78v-.29a4.32,4.32,0,0,0-.9-2.76,3.06,3.06,0,0,0-2.51-1.13,3,3,0,0,0-2.49,1.13,4.32,4.32,0,0,0-.9,2.76Z"/><path class="cls-3" d="M378.41,112.45v2.44h2.26v.86h-2.26V122a1.93,1.93,0,0,0,.36,1.32,1.29,1.29,0,0,0,1,.39l.53,0,.61-.08.17.79a3.42,3.42,0,0,1-.7.17,5.52,5.52,0,0,1-.81.06,2.23,2.23,0,0,1-1.69-.63,2.83,2.83,0,0,1-.6-2v-6.2H375.5v-.86h1.76v-2.44Z"/><path class="cls-3" d="M382.68,123.63l1.55-.12v-7.72l-1.55-.12v-.78h2.68v8.62l1.54.12v.77h-4.22Zm2.68-11.46h-1.13v-1.48h1.13Z"/><path class="cls-3" d="M388.51,115.67v-.78H391l.15,1.48a3.56,3.56,0,0,1,1.33-1.23,4.09,4.09,0,0,1,1.9-.43,3.45,3.45,0,0,1,2.9,1.37,5.89,5.89,0,0,1,1,3.64v.19a5.21,5.21,0,0,1-1,3.4,3.53,3.53,0,0,1-2.88,1.27,4.31,4.31,0,0,1-1.89-.38,3.42,3.42,0,0,1-1.33-1.08v4l1.55.11v.79h-4.22v-.79l1.54-.11V115.79Zm8.67,4a5.14,5.14,0,0,0-.78-3,2.56,2.56,0,0,0-2.27-1.14,3.23,3.23,0,0,0-1.87.5,3.16,3.16,0,0,0-1.08,1.32V122a3,3,0,0,0,1.13,1.23,3.46,3.46,0,0,0,1.84.45,2.66,2.66,0,0,0,2.26-1,4.53,4.53,0,0,0,.77-2.75Z"/><path class="cls-3" d="M400.17,119.5a4.85,4.85,0,0,1,1.25-3.44,4.7,4.7,0,0,1,6.59,0,4.85,4.85,0,0,1,1.25,3.44v.29a4.9,4.9,0,0,1-1.24,3.45,4.73,4.73,0,0,1-6.6,0,4.86,4.86,0,0,1-1.25-3.45Zm1.14.29a4.3,4.3,0,0,0,.9,2.78,3,3,0,0,0,2.52,1.13,3,3,0,0,0,2.48-1.13,4.25,4.25,0,0,0,.91-2.78v-.29a4.32,4.32,0,0,0-.91-2.76,3.33,3.33,0,0,0-5,0,4.32,4.32,0,0,0-.9,2.76Z"/><path class="cls-3" d="M423,123a3.41,3.41,0,0,1-1.32,1.15,4.19,4.19,0,0,1-1.9.4,3.51,3.51,0,0,1-2.88-1.27,5.23,5.23,0,0,1-1-3.4v-.19a5.89,5.89,0,0,1,1-3.64,3.44,3.44,0,0,1,2.9-1.37,3.87,3.87,0,0,1,1.86.42,3.64,3.64,0,0,1,1.31,1.19v-4.73l-1.55-.12v-.78h2.69v12.82l1.55.12v.77h-2.56Zm-6-3.12a4.52,4.52,0,0,0,.75,2.74,2.58,2.58,0,0,0,2.24,1,3.36,3.36,0,0,0,1.83-.46,3.06,3.06,0,0,0,1.14-1.25v-4.5a3.34,3.34,0,0,0-1.09-1.32,3.15,3.15,0,0,0-1.86-.51,2.51,2.51,0,0,0-2.25,1.14,5.19,5.19,0,0,0-.76,3Z"/><path class="cls-3" d="M431.9,124.58a4.27,4.27,0,0,1-3.21-1.31,4.6,4.6,0,0,1-1.27-3.34v-.49a4.7,4.7,0,0,1,1.27-3.38,4,4,0,0,1,3.06-1.35,4,4,0,0,1,3,1.11,4.05,4.05,0,0,1,1.08,3v.89h-7.25v.26a4,4,0,0,0,.93,2.68,3,3,0,0,0,2.42,1.09,5.08,5.08,0,0,0,1.8-.28,3.66,3.66,0,0,0,1.29-.78l.48.72a4.11,4.11,0,0,1-1.46.9A6.29,6.29,0,0,1,431.9,124.58Zm-.15-9a2.82,2.82,0,0,0-2.11.89,3.63,3.63,0,0,0-1,2.24l0,0h6v-.26a2.86,2.86,0,0,0-.79-2.07A2.76,2.76,0,0,0,431.75,115.61Z"/><path class="cls-3" d="M446.94,123.7a3.42,3.42,0,0,0,2-.6,1.92,1.92,0,0,0,.86-1.66h1l0,0a2.55,2.55,0,0,1-1.14,2.21,4.45,4.45,0,0,1-2.75.88,4,4,0,0,1-3.23-1.33,5,5,0,0,1-1.15-3.42v-.37a5,5,0,0,1,1.15-3.41,4,4,0,0,1,3.22-1.34,5.5,5.5,0,0,1,2.18.42,4.19,4.19,0,0,1,1.6,1.12l.05,2.08h-1l-.18-1.69a3.11,3.11,0,0,0-1.13-.75,4,4,0,0,0-1.55-.28,2.83,2.83,0,0,0-2.44,1.09,4.6,4.6,0,0,0-.79,2.76v.37a4.62,4.62,0,0,0,.79,2.78A2.83,2.83,0,0,0,446.94,123.7Z"/><path class="cls-3" d="M452.94,119.5a4.85,4.85,0,0,1,1.25-3.44,4.7,4.7,0,0,1,6.59,0A4.85,4.85,0,0,1,462,119.5v.29a4.9,4.9,0,0,1-1.24,3.45,4.73,4.73,0,0,1-6.6,0,4.86,4.86,0,0,1-1.25-3.45Zm1.14.29a4.3,4.3,0,0,0,.9,2.78,3.06,3.06,0,0,0,2.52,1.13,3,3,0,0,0,2.49-1.13,4.3,4.3,0,0,0,.9-2.78v-.29a4.27,4.27,0,0,0-.91-2.76,3.33,3.33,0,0,0-5,0,4.32,4.32,0,0,0-.9,2.76Z"/><path class="cls-3" d="M463.67,123.63l1.54-.12v-7.72l-1.54-.12v-.78h2.55l.11,1.66a3.41,3.41,0,0,1,1.33-1.36,3.94,3.94,0,0,1,2-.48,3.29,3.29,0,0,1,2.54,1,4.24,4.24,0,0,1,.87,3v4.9l1.55.12v.77h-4.23v-.77l1.54-.12v-4.89a3.3,3.3,0,0,0-.65-2.32,2.51,2.51,0,0,0-1.88-.67,3.08,3.08,0,0,0-1.95.58,3.35,3.35,0,0,0-1.09,1.55v5.75l1.55.12v.77h-4.23Z"/><path class="cls-3" d="M479,112.45v2.44h2.25v.86H479V122a1.93,1.93,0,0,0,.36,1.32,1.27,1.27,0,0,0,1,.39l.54,0c.17,0,.38,0,.6-.08l.17.79a3.48,3.48,0,0,1-.69.17,5.55,5.55,0,0,1-.82.06,2.21,2.21,0,0,1-1.68-.63,2.83,2.83,0,0,1-.6-2v-6.2h-1.77v-.86h1.77v-2.44Z"/><path class="cls-3" d="M487.88,124.58a4.27,4.27,0,0,1-3.21-1.31,4.6,4.6,0,0,1-1.27-3.34v-.49a4.7,4.7,0,0,1,1.27-3.38,4,4,0,0,1,3.06-1.35,4,4,0,0,1,3,1.11,4.05,4.05,0,0,1,1.08,3v.89h-7.25v.26a4,4,0,0,0,.93,2.68,3,3,0,0,0,2.42,1.09,5.08,5.08,0,0,0,1.8-.28,3.53,3.53,0,0,0,1.28-.78l.49.72a4.11,4.11,0,0,1-1.46.9A6.29,6.29,0,0,1,487.88,124.58Zm-.15-9a2.82,2.82,0,0,0-2.11.89,3.69,3.69,0,0,0-1,2.24l0,0h6v-.26a2.86,2.86,0,0,0-.79-2.07A2.76,2.76,0,0,0,487.73,115.61Z"/><path class="cls-3" d="M501.36,122.84a3.5,3.5,0,0,1-1.33,1.29,4.13,4.13,0,0,1-2,.45,3.26,3.26,0,0,1-2.54-1,4.62,4.62,0,0,1-.91-3.16v-4.61l-1.27-.12v-.78h2.4v5.53a3.82,3.82,0,0,0,.64,2.49,2.24,2.24,0,0,0,1.82.76,3.56,3.56,0,0,0,2.05-.53,2.81,2.81,0,0,0,1.08-1.46v-5.89l-1.46-.12v-.78h2.6v8.62l1.37.12v.77h-2.37Zm-2.13-11.47h1.4l0,0-2.36,2.28h-1Z"/><path class="cls-3" d="M512.64,123a3.41,3.41,0,0,1-1.32,1.15,4.16,4.16,0,0,1-1.9.4,3.53,3.53,0,0,1-2.88-1.27,5.22,5.22,0,0,1-1-3.4v-.19a5.89,5.89,0,0,1,1-3.64,3.45,3.45,0,0,1,2.9-1.37,3.87,3.87,0,0,1,1.86.42,3.56,3.56,0,0,1,1.31,1.19v-4.73l-1.54-.12v-.78h2.68v12.82l1.55.12v.77h-2.56Zm-6-3.12a4.52,4.52,0,0,0,.75,2.74,2.58,2.58,0,0,0,2.24,1,3.36,3.36,0,0,0,1.83-.46,3.06,3.06,0,0,0,1.14-1.25v-4.5a3.26,3.26,0,0,0-1.09-1.32,3.15,3.15,0,0,0-1.86-.51,2.51,2.51,0,0,0-2.25,1.14,5.19,5.19,0,0,0-.76,3Z"/><path class="cls-3" d="M517.05,119.5a4.84,4.84,0,0,1,1.24-3.44,4.71,4.71,0,0,1,6.6,0,4.89,4.89,0,0,1,1.24,3.44v.29a4.85,4.85,0,0,1-1.24,3.45,4.73,4.73,0,0,1-6.6,0,4.85,4.85,0,0,1-1.24-3.45Zm1.13.29a4.3,4.3,0,0,0,.91,2.78,3.33,3.33,0,0,0,5,0,4.3,4.3,0,0,0,.9-2.78v-.29a4.27,4.27,0,0,0-.91-2.76,3.32,3.32,0,0,0-5,0,4.32,4.32,0,0,0-.91,2.76Z"/><path class="cls-3" d="M539.84,123a3.41,3.41,0,0,1-1.32,1.15,4.15,4.15,0,0,1-1.89.4,3.5,3.5,0,0,1-2.88-1.27,5.17,5.17,0,0,1-1-3.4v-.19a5.83,5.83,0,0,1,1-3.64,3.42,3.42,0,0,1,2.89-1.37,3.94,3.94,0,0,1,1.87.42,3.61,3.61,0,0,1,1.3,1.19v-4.73l-1.54-.12v-.78H541v12.82l1.55.12v.77h-2.56Zm-6-3.12a4.52,4.52,0,0,0,.75,2.74,2.59,2.59,0,0,0,2.24,1,3.36,3.36,0,0,0,1.83-.46,3.06,3.06,0,0,0,1.14-1.25v-4.5a3.26,3.26,0,0,0-1.09-1.32,3.15,3.15,0,0,0-1.86-.51,2.51,2.51,0,0,0-2.25,1.14,5.27,5.27,0,0,0-.76,3Z"/><path class="cls-3" d="M544.25,119.5a4.84,4.84,0,0,1,1.24-3.44,4.71,4.71,0,0,1,6.6,0,4.84,4.84,0,0,1,1.24,3.44v.29a4.85,4.85,0,0,1-1.24,3.45,4.23,4.23,0,0,1-3.29,1.34,4.27,4.27,0,0,1-3.31-1.34,4.85,4.85,0,0,1-1.24-3.45Zm1.14.29a4.3,4.3,0,0,0,.9,2.78,3.33,3.33,0,0,0,5,0,4.3,4.3,0,0,0,.9-2.78v-.29a4.27,4.27,0,0,0-.91-2.76,3.32,3.32,0,0,0-5,0,4.32,4.32,0,0,0-.9,2.76Z"/><path class="cls-3" d="M562.63,117.83h-.93l-.13-1.35a2.9,2.9,0,0,0-1.08-.64,4.53,4.53,0,0,0-1.49-.23,3,3,0,0,0-1.87.5,1.47,1.47,0,0,0-.62,1.16,1.34,1.34,0,0,0,.54,1.09,5.4,5.4,0,0,0,2.14.76,7.23,7.23,0,0,1,2.74,1,2.08,2.08,0,0,1,.91,1.78,2.26,2.26,0,0,1-1,1.92,4.66,4.66,0,0,1-2.75.73,6.73,6.73,0,0,1-2.07-.29,5.16,5.16,0,0,1-1.62-.83v-1.92h.92l.16,1.36a2.8,2.8,0,0,0,1.16.61,5.76,5.76,0,0,0,1.45.19,3.37,3.37,0,0,0,2-.5,1.48,1.48,0,0,0,.71-1.22,1.53,1.53,0,0,0-.59-1.17A5.11,5.11,0,0,0,559,120a7.77,7.77,0,0,1-2.72-1,2,2,0,0,1-.89-1.71,2.22,2.22,0,0,1,1-1.84,4.19,4.19,0,0,1,2.63-.76,6.14,6.14,0,0,1,2.06.33,4.2,4.2,0,0,1,1.52.86Z"/><path class="cls-3" d="M572.25,112.45v2.44h2.26v.86h-2.26V122a1.93,1.93,0,0,0,.36,1.32,1.27,1.27,0,0,0,1,.39l.54,0c.17,0,.38,0,.6-.08l.17.79a3.48,3.48,0,0,1-.69.17,5.55,5.55,0,0,1-.82.06,2.21,2.21,0,0,1-1.68-.63,2.83,2.83,0,0,1-.6-2v-6.2h-1.77v-.86h1.77v-2.44Z"/><path class="cls-3" d="M581.12,124.58a4.27,4.27,0,0,1-3.21-1.31,4.6,4.6,0,0,1-1.27-3.34v-.49a4.7,4.7,0,0,1,1.27-3.38,4,4,0,0,1,3.06-1.35,4,4,0,0,1,3,1.11,4.05,4.05,0,0,1,1.08,3v.89h-7.25v.26a4,4,0,0,0,.93,2.68,3,3,0,0,0,2.42,1.09,5.08,5.08,0,0,0,1.8-.28,3.53,3.53,0,0,0,1.28-.78l.49.72a4.11,4.11,0,0,1-1.46.9A6.29,6.29,0,0,1,581.12,124.58Zm-.15-9a2.82,2.82,0,0,0-2.11.89,3.69,3.69,0,0,0-1,2.24l0,0h6v-.26a2.86,2.86,0,0,0-.79-2.07A2.76,2.76,0,0,0,581,115.61Z"/><path class="cls-3" d="M586.82,123.63l1.15-.1,3.25-4-3.1-3.79-1.15-.1v-.78h3.48v.78l-1.06,0,2.45,3.06,2.45-3.06-1,0v-.78h3.48v.78l-1.15.1-3.09,3.79,3.24,4,1.16.1v.77H593.4v-.77l1.06,0-2.62-3.23-2.6,3.23,1.06,0v.77h-3.48Z"/><path class="cls-3" d="M601,112.45v2.44h2.26v.86H601V122a1.93,1.93,0,0,0,.37,1.32,1.27,1.27,0,0,0,1,.39l.54,0,.6-.08.17.79a3.48,3.48,0,0,1-.69.17,5.55,5.55,0,0,1-.82.06,2.21,2.21,0,0,1-1.68-.63,2.83,2.83,0,0,1-.6-2v-6.2h-1.77v-.86h1.77v-2.44Z"/><path class="cls-3" d="M605.13,119.5a4.85,4.85,0,0,1,1.25-3.44,4.7,4.7,0,0,1,6.59,0,4.85,4.85,0,0,1,1.25,3.44v.29a4.9,4.9,0,0,1-1.24,3.45,4.73,4.73,0,0,1-6.6,0,4.86,4.86,0,0,1-1.25-3.45Zm1.14.29a4.3,4.3,0,0,0,.9,2.78,3,3,0,0,0,2.52,1.13,3,3,0,0,0,2.48-1.13,4.25,4.25,0,0,0,.91-2.78v-.29a4.32,4.32,0,0,0-.91-2.76,3.33,3.33,0,0,0-5,0,4.32,4.32,0,0,0-.9,2.76Z"/><path class="cls-3" d="M623.52,117.83h-.93l-.14-1.35a2.78,2.78,0,0,0-1.07-.64,4.63,4.63,0,0,0-1.5-.23,2.93,2.93,0,0,0-1.86.5,1.45,1.45,0,0,0-.63,1.16,1.34,1.34,0,0,0,.54,1.09,5.47,5.47,0,0,0,2.14.76,7.16,7.16,0,0,1,2.74,1,2.08,2.08,0,0,1,.92,1.78,2.26,2.26,0,0,1-1,1.92,4.68,4.68,0,0,1-2.75.73,6.84,6.84,0,0,1-2.08-.29,5,5,0,0,1-1.61-.83v-1.92h.92l.16,1.36a2.76,2.76,0,0,0,1.15.61,5.84,5.84,0,0,0,1.46.19,3.34,3.34,0,0,0,1.94-.5,1.47,1.47,0,0,0,.72-1.22,1.51,1.51,0,0,0-.6-1.17,5,5,0,0,0-2.14-.81,7.85,7.85,0,0,1-2.72-1,2,2,0,0,1-.88-1.71,2.23,2.23,0,0,1,1-1.84,4.21,4.21,0,0,1,2.63-.76A6.24,6.24,0,0,1,622,115a4.2,4.2,0,0,1,1.52.86Z"/><path class="cls-3" d="M627.45,124a3.71,3.71,0,0,1-.36,1.58,3.86,3.86,0,0,1-1,1.31l-.68-.46a4.24,4.24,0,0,0,.66-1.15,3.4,3.4,0,0,0,.22-1.26v-1.25h1.13Z"/><path class="cls-3" d="M634.24,119.5a4.85,4.85,0,0,1,1.25-3.44,4.7,4.7,0,0,1,6.59,0,4.85,4.85,0,0,1,1.25,3.44v.29a4.9,4.9,0,0,1-1.24,3.45,4.73,4.73,0,0,1-6.6,0,4.86,4.86,0,0,1-1.25-3.45Zm1.14.29a4.3,4.3,0,0,0,.9,2.78,3,3,0,0,0,2.52,1.13,3,3,0,0,0,2.48-1.13,4.25,4.25,0,0,0,.91-2.78v-.29a4.32,4.32,0,0,0-.91-2.76,3.33,3.33,0,0,0-5,0,4.32,4.32,0,0,0-.9,2.76Z"/><path class="cls-3" d="M216.21,141.32a5.89,5.89,0,0,1,1-3.64,3.45,3.45,0,0,1,2.9-1.37,4,4,0,0,1,1.85.41,3.58,3.58,0,0,1,1.3,1.18l.12-1.41h1v12.27l1.55.11v.79h-4.23v-.79l1.55-.11v-4a3.58,3.58,0,0,1-1.31,1.07,4.41,4.41,0,0,1-1.84.37,3.53,3.53,0,0,1-2.88-1.28,5.23,5.23,0,0,1-1-3.4Zm1.15.19a4.55,4.55,0,0,0,.75,2.75,2.57,2.57,0,0,0,2.24,1,3.33,3.33,0,0,0,1.79-.45,3.09,3.09,0,0,0,1.14-1.21V139a3.56,3.56,0,0,0-1.11-1.29,3.06,3.06,0,0,0-1.8-.5,2.5,2.5,0,0,0-2.25,1.15,5.22,5.22,0,0,0-.76,3Z"/><path class="cls-3" d="M234.62,144.44a3.44,3.44,0,0,1-1.33,1.29,4.14,4.14,0,0,1-2,.46,3.22,3.22,0,0,1-2.53-1,4.65,4.65,0,0,1-.92-3.17v-4.61l-1.27-.12v-.78H229V142a3.87,3.87,0,0,0,.64,2.5,2.26,2.26,0,0,0,1.82.75,3.48,3.48,0,0,0,2.05-.53,2.79,2.79,0,0,0,1.08-1.45v-5.9l-1.46-.12v-.78h2.6v8.62l1.37.12V146h-2.37Z"/><path class="cls-3" d="M243.29,146.19a4.28,4.28,0,0,1-3.21-1.32,4.63,4.63,0,0,1-1.27-3.34V141a4.76,4.76,0,0,1,1.27-3.38,4,4,0,0,1,3.06-1.35,4,4,0,0,1,3,1.11,4,4,0,0,1,1.08,3v.9h-7.25v.26a4,4,0,0,0,.93,2.68,3,3,0,0,0,2.42,1.09,5.35,5.35,0,0,0,1.81-.27,3.79,3.79,0,0,0,1.28-.79l.48.72a4.16,4.16,0,0,1-1.46.9A6.27,6.27,0,0,1,243.29,146.19Zm-.15-9a2.83,2.83,0,0,0-2.11.89,3.68,3.68,0,0,0-1,2.24l0,0h6v-.26a2.89,2.89,0,0,0-.78-2.07A2.8,2.8,0,0,0,243.14,137.21Z"/><path class="cls-3" d="M253.65,137.27v-.78h2.49l.15,1.48a3.46,3.46,0,0,1,1.33-1.22,4,4,0,0,1,1.9-.44,3.45,3.45,0,0,1,2.9,1.37,5.89,5.89,0,0,1,1,3.64v.19a5.21,5.21,0,0,1-1,3.4,3.53,3.53,0,0,1-2.88,1.28,4.31,4.31,0,0,1-1.89-.39,3.42,3.42,0,0,1-1.33-1.08v4l1.55.11v.79h-4.22v-.79l1.54-.11V137.39Zm8.67,4a5.14,5.14,0,0,0-.78-2.95,2.56,2.56,0,0,0-2.27-1.14,3.23,3.23,0,0,0-1.87.5,3.16,3.16,0,0,0-1.08,1.32v4.57a3,3,0,0,0,1.13,1.23,3.46,3.46,0,0,0,1.84.45,2.66,2.66,0,0,0,2.26-1,4.53,4.53,0,0,0,.77-2.75Z"/><path class="cls-3" d="M265.31,141.11a4.88,4.88,0,0,1,1.25-3.45,4.7,4.7,0,0,1,6.59,0,4.88,4.88,0,0,1,1.25,3.45v.28a4.9,4.9,0,0,1-1.24,3.45,4.71,4.71,0,0,1-6.6,0,4.86,4.86,0,0,1-1.25-3.45Zm1.14.28a4.3,4.3,0,0,0,.9,2.78,3,3,0,0,0,2.52,1.13,3,3,0,0,0,2.48-1.13,4.25,4.25,0,0,0,.91-2.78v-.28a4.28,4.28,0,0,0-.91-2.76,3.31,3.31,0,0,0-5,0,4.28,4.28,0,0,0-.9,2.76Z"/><path class="cls-3" d="M283.38,144.63a3.41,3.41,0,0,1-1.32,1.15,4.15,4.15,0,0,1-1.89.41,3.51,3.51,0,0,1-2.88-1.28,5.17,5.17,0,0,1-1-3.4v-.19a5.83,5.83,0,0,1,1-3.64,3.42,3.42,0,0,1,2.89-1.37,3.94,3.94,0,0,1,1.87.42,3.72,3.72,0,0,1,1.31,1.19v-4.73l-1.55-.12v-.78h2.68v12.82l1.55.12V146h-2.56Zm-6-3.12a4.52,4.52,0,0,0,.75,2.74,2.59,2.59,0,0,0,2.24,1,3.36,3.36,0,0,0,1.83-.46,3.16,3.16,0,0,0,1.15-1.25v-4.5a3.37,3.37,0,0,0-1.1-1.32,3.15,3.15,0,0,0-1.86-.51,2.51,2.51,0,0,0-2.25,1.14,5.27,5.27,0,0,0-.76,2.95Z"/><path class="cls-3" d="M292.31,146.19a4.25,4.25,0,0,1-3.2-1.32,4.59,4.59,0,0,1-1.27-3.34V141a4.75,4.75,0,0,1,1.26-3.38,4.06,4.06,0,0,1,3.06-1.35,4,4,0,0,1,3,1.11,4,4,0,0,1,1.09,3v.9H289v.26a4,4,0,0,0,.93,2.68,3,3,0,0,0,2.42,1.09,5.35,5.35,0,0,0,1.81-.27,3.69,3.69,0,0,0,1.28-.79l.48.72a4.16,4.16,0,0,1-1.46.9A6.27,6.27,0,0,1,292.31,146.19Zm-.15-9a2.83,2.83,0,0,0-2.11.89,3.68,3.68,0,0,0-1,2.24l0,0h6v-.26a2.9,2.9,0,0,0-.79-2.07A2.8,2.8,0,0,0,292.16,137.21Z"/><path class="cls-3" d="M302.75,133.07v-.78h2.67v12.82l1.55.12V146h-4.22v-.77l1.54-.12V133.19Z"/><path class="cls-3" d="M313.29,146.19a4.28,4.28,0,0,1-3.21-1.32,4.59,4.59,0,0,1-1.27-3.34V141a4.72,4.72,0,0,1,1.27-3.38,4,4,0,0,1,3.06-1.35,4,4,0,0,1,3,1.11,4,4,0,0,1,1.08,3v.9h-7.25v.26a4,4,0,0,0,.93,2.68,3,3,0,0,0,2.42,1.09,5.33,5.33,0,0,0,1.8-.27,3.83,3.83,0,0,0,1.29-.79l.48.72a4.25,4.25,0,0,1-1.46.9A6.27,6.27,0,0,1,313.29,146.19Zm-.15-9a2.82,2.82,0,0,0-2.11.89,3.63,3.63,0,0,0-1,2.24l0,0h6v-.26a2.86,2.86,0,0,0-.79-2.07A2.76,2.76,0,0,0,313.14,137.21Z"/><path class="cls-3" d="M322.08,137.27l-1.28.09,2.56,6.26.33,1.11h.06l.36-1.11,2.52-6.26-1.28-.09v-.78h3.46v.78l-1,.08L324.18,146h-.91l-3.64-8.65-1-.08v-.78h3.45Z"/><path class="cls-3" d="M337,146a7.38,7.38,0,0,1-.16-.83,5.81,5.81,0,0,1-.05-.72,4.27,4.27,0,0,1-1.52,1.24,4.52,4.52,0,0,1-2.13.5,3.4,3.4,0,0,1-2.34-.73,2.45,2.45,0,0,1-.82-2,2.36,2.36,0,0,1,1.22-2.09,6.23,6.23,0,0,1,3.32-.77h2.27v-1.26a2,2,0,0,0-.71-1.6,3,3,0,0,0-2-.58,5.16,5.16,0,0,0-1.56.22,3.72,3.72,0,0,0-1.18.58l-.09,1.28h-.94v-1.83a6,6,0,0,1,1.7-.83,7,7,0,0,1,2.11-.32,4.32,4.32,0,0,1,2.74.81,2.71,2.71,0,0,1,1,2.29v4.67c0,.2,0,.38,0,.56a3.07,3.07,0,0,0,.07.53l1,.06V146Zm-3.74-.75a4.36,4.36,0,0,0,2.17-.52,3.26,3.26,0,0,0,1.36-1.37v-1.9h-2.29a4.49,4.49,0,0,0-2.47.59,1.74,1.74,0,0,0-.92,1.5,1.51,1.51,0,0,0,.57,1.23A2.38,2.38,0,0,0,333.27,145.25Z"/><path class="cls-3" d="M343.1,136.49l.15,1.58v.12a3.35,3.35,0,0,1,1.19-1.38,3.19,3.19,0,0,1,1.79-.5,3,3,0,0,1,.42,0l.33.06-.15,1-.84-.06a2.71,2.71,0,0,0-1.76.56,3,3,0,0,0-1,1.54v5.67l1.54.12V146h-4.22v-.77l1.55-.12v-7.72l-1.55-.12v-.78h2.53Z"/><path class="cls-3" d="M360.27,146c-.07-.32-.13-.6-.16-.83a5.81,5.81,0,0,1-.05-.72,4.33,4.33,0,0,1-1.51,1.24,4.59,4.59,0,0,1-2.14.5,3.42,3.42,0,0,1-2.34-.73,2.45,2.45,0,0,1-.82-2,2.38,2.38,0,0,1,1.22-2.09,6.26,6.26,0,0,1,3.33-.77h2.26v-1.26a2,2,0,0,0-.7-1.6,3.05,3.05,0,0,0-2-.58,5.11,5.11,0,0,0-1.56.22,3.67,3.67,0,0,0-1.19.58l-.09,1.28h-.94v-1.83a6,6,0,0,1,1.7-.83,7,7,0,0,1,2.11-.32,4.32,4.32,0,0,1,2.74.81,2.71,2.71,0,0,1,1,2.29v4.67c0,.2,0,.38,0,.56a4.52,4.52,0,0,0,.06.53l1,.06V146Zm-3.74-.75a4.39,4.39,0,0,0,2.18-.52,3.23,3.23,0,0,0,1.35-1.37v-1.9h-2.28a4.51,4.51,0,0,0-2.48.59,1.76,1.76,0,0,0-.92,1.5,1.51,1.51,0,0,0,.57,1.23A2.38,2.38,0,0,0,356.53,145.25Zm1.54-10.18H357l-2.29-2.3,0,0h1.46Z"/><path class="cls-3" d="M373,145.3a3.39,3.39,0,0,0,2-.6,1.9,1.9,0,0,0,.87-1.66h1l0,.05a2.58,2.58,0,0,1-1.13,2.21,4.48,4.48,0,0,1-2.75.89,4.06,4.06,0,0,1-3.24-1.34,5.09,5.09,0,0,1-1.15-3.42v-.37a5.08,5.08,0,0,1,1.15-3.41,4,4,0,0,1,3.23-1.34,5.49,5.49,0,0,1,2.17.42,4.23,4.23,0,0,1,1.61,1.12l0,2.08h-1l-.18-1.69a3.24,3.24,0,0,0-1.14-.75,3.92,3.92,0,0,0-1.54-.28,2.82,2.82,0,0,0-2.44,1.09,4.6,4.6,0,0,0-.8,2.76v.37a4.69,4.69,0,0,0,.79,2.78A2.85,2.85,0,0,0,373,145.3Z"/><path class="cls-3" d="M381.48,136.49l.14,1.58v.12a3.43,3.43,0,0,1,1.19-1.38,3.19,3.19,0,0,1,1.79-.5,3,3,0,0,1,.42,0l.34.06-.15,1-.85-.06a2.73,2.73,0,0,0-1.76.56,3,3,0,0,0-1,1.54v5.67l1.55.12V146h-4.23v-.77l1.55-.12v-7.72l-1.55-.12v-.78h2.54Z"/><path class="cls-3" d="M386.75,145.23l1.55-.12v-7.72l-1.55-.12v-.78h2.68v8.62l1.55.12V146h-4.23Zm2.68-11.46H388.3v-1.48h1.13Z"/><path class="cls-3" d="M400,146c-.07-.32-.13-.6-.16-.83a5.79,5.79,0,0,1,0-.72,4.36,4.36,0,0,1-1.52,1.24,4.59,4.59,0,0,1-2.14.5,3.39,3.39,0,0,1-2.33-.73,2.46,2.46,0,0,1-.83-2,2.37,2.37,0,0,1,1.23-2.09,6.2,6.2,0,0,1,3.32-.77h2.27v-1.26a2,2,0,0,0-.71-1.6,3,3,0,0,0-2-.58,5.11,5.11,0,0,0-1.56.22,3.61,3.61,0,0,0-1.18.58l-.1,1.28h-.94v-1.83a6,6,0,0,1,1.71-.83,6.9,6.9,0,0,1,2.11-.32,4.31,4.31,0,0,1,2.73.81,2.71,2.71,0,0,1,1,2.29v4.67c0,.2,0,.38,0,.56a4.52,4.52,0,0,0,.06.53l1,.06V146Zm-3.73-.75a4.38,4.38,0,0,0,2.17-.52,3.26,3.26,0,0,0,1.36-1.37v-1.9h-2.29a4.47,4.47,0,0,0-2.47.59,1.75,1.75,0,0,0-.93,1.5,1.51,1.51,0,0,0,.57,1.23A2.41,2.41,0,0,0,396.24,145.25Z"/><path class="cls-3" d="M408,145.3a3.42,3.42,0,0,0,2-.6,1.92,1.92,0,0,0,.86-1.66h1l0,.05a2.56,2.56,0,0,1-1.14,2.21,4.46,4.46,0,0,1-2.75.89,4,4,0,0,1-3.23-1.34,5,5,0,0,1-1.15-3.42v-.37a5,5,0,0,1,1.15-3.41,4,4,0,0,1,3.22-1.34,5.5,5.5,0,0,1,2.18.42,4.19,4.19,0,0,1,1.6,1.12l.05,2.08h-1l-.18-1.69a3.11,3.11,0,0,0-1.13-.75,4,4,0,0,0-1.55-.28,2.83,2.83,0,0,0-2.44,1.09,4.6,4.6,0,0,0-.79,2.76v.37a4.62,4.62,0,0,0,.79,2.78A2.83,2.83,0,0,0,408,145.3Zm.3.78-.11.56a2.45,2.45,0,0,1,1.21.43,1.25,1.25,0,0,1,.46,1.07,1.45,1.45,0,0,1-.75,1.28,4,4,0,0,1-2.14.48l-.07-.68a3.38,3.38,0,0,0,1.43-.27.86.86,0,0,0,.59-.79.73.73,0,0,0-.39-.7,3.91,3.91,0,0,0-1.38-.26l.27-1.12Z"/><path class="cls-3" d="M421.08,146c-.07-.32-.13-.6-.16-.83a5.81,5.81,0,0,1-.05-.72,4.33,4.33,0,0,1-1.51,1.24,4.59,4.59,0,0,1-2.14.5,3.42,3.42,0,0,1-2.34-.73,2.48,2.48,0,0,1-.82-2,2.38,2.38,0,0,1,1.22-2.09,6.26,6.26,0,0,1,3.33-.77h2.26v-1.26a2,2,0,0,0-.7-1.6,3,3,0,0,0-2-.58,5.11,5.11,0,0,0-1.56.22,3.61,3.61,0,0,0-1.18.58l-.1,1.28h-.94v-1.83a6,6,0,0,1,1.7-.83,7,7,0,0,1,2.12-.32,4.31,4.31,0,0,1,2.73.81,2.71,2.71,0,0,1,1,2.29v4.67c0,.2,0,.38,0,.56a4.52,4.52,0,0,0,.06.53l1,.06V146Zm.41-13.17a1.71,1.71,0,0,1-.52,1.28,1.79,1.79,0,0,1-1.3.51,2.52,2.52,0,0,1-1.43-.49,2.44,2.44,0,0,0-1.25-.48,1,1,0,0,0-.75.31,1.07,1.07,0,0,0-.3.78l-.75-.16a1.74,1.74,0,0,1,1.8-1.78,2.76,2.76,0,0,1,1.4.48,2.59,2.59,0,0,0,1.28.49,1,1,0,0,0,.75-.32,1.09,1.09,0,0,0,.31-.8Zm-4.15,12.42a4.39,4.39,0,0,0,2.18-.52,3.23,3.23,0,0,0,1.35-1.37v-1.9h-2.28a4.53,4.53,0,0,0-2.48.59,1.76,1.76,0,0,0-.92,1.5,1.51,1.51,0,0,0,.57,1.23A2.4,2.4,0,0,0,417.34,145.25Z"/><path class="cls-3" d="M424.72,141.11a4.87,4.87,0,0,1,1.24-3.45,4.71,4.71,0,0,1,6.6,0,4.87,4.87,0,0,1,1.24,3.45v.28a4.85,4.85,0,0,1-1.24,3.45,4.24,4.24,0,0,1-3.29,1.35,4.28,4.28,0,0,1-3.31-1.35,4.85,4.85,0,0,1-1.24-3.45Zm1.14.28a4.3,4.3,0,0,0,.9,2.78,3.33,3.33,0,0,0,5,0,4.3,4.3,0,0,0,.9-2.78v-.28a4.28,4.28,0,0,0-.9-2.76,3,3,0,0,0-2.51-1.14,3,3,0,0,0-2.49,1.14,4.28,4.28,0,0,0-.9,2.76Z"/><path class="cls-3" d="M447.51,144.63a3.45,3.45,0,0,1-1.31,1.15,4.19,4.19,0,0,1-1.9.41,3.51,3.51,0,0,1-2.88-1.28,5.17,5.17,0,0,1-1-3.4v-.19a5.83,5.83,0,0,1,1-3.64,3.44,3.44,0,0,1,2.9-1.37,3.93,3.93,0,0,1,1.86.42,3.72,3.72,0,0,1,1.31,1.19v-4.73l-1.55-.12v-.78h2.69v12.82l1.54.12V146h-2.56Zm-6-3.12a4.52,4.52,0,0,0,.74,2.74,2.61,2.61,0,0,0,2.25,1,3.35,3.35,0,0,0,1.82-.46,3.16,3.16,0,0,0,1.15-1.25v-4.5a3.37,3.37,0,0,0-1.1-1.32,3.13,3.13,0,0,0-1.85-.51,2.53,2.53,0,0,0-2.26,1.14,5.27,5.27,0,0,0-.75,2.95Z"/><path class="cls-3" d="M456.45,146.19a4.28,4.28,0,0,1-3.21-1.32,4.59,4.59,0,0,1-1.27-3.34V141a4.75,4.75,0,0,1,1.26-3.38,4.06,4.06,0,0,1,3.06-1.35,4,4,0,0,1,3,1.11,4,4,0,0,1,1.09,3v.9H453.1v.26a4,4,0,0,0,.92,2.68,3,3,0,0,0,2.43,1.09,5.33,5.33,0,0,0,1.8-.27,3.69,3.69,0,0,0,1.28-.79l.48.72a4.16,4.16,0,0,1-1.46.9A6.25,6.25,0,0,1,456.45,146.19Zm-.16-9a2.85,2.85,0,0,0-2.11.89,3.74,3.74,0,0,0-1,2.24l0,0h6v-.26a2.86,2.86,0,0,0-.79-2.07A2.8,2.8,0,0,0,456.29,137.21Z"/><path class="cls-3" d="M474.65,144.44a3.41,3.41,0,0,1-1.32,1.29,4.14,4.14,0,0,1-2,.46,3.23,3.23,0,0,1-2.54-1,4.65,4.65,0,0,1-.92-3.17v-4.61l-1.27-.12v-.78H469V142a3.93,3.93,0,0,0,.64,2.5,2.28,2.28,0,0,0,1.82.75,3.46,3.46,0,0,0,2-.53,2.79,2.79,0,0,0,1.08-1.45v-5.9l-1.46-.12v-.78h2.6v8.62l1.38.12V146h-2.38Z"/><path class="cls-3" d="M478.55,137.27v-.78h2.55l.11,1.57a3.55,3.55,0,0,1,1.32-1.29,4,4,0,0,1,2-.46,3.41,3.41,0,0,1,2,.54,2.93,2.93,0,0,1,1.13,1.62,3.8,3.8,0,0,1,1.32-1.58,3.69,3.69,0,0,1,2.09-.58,3.2,3.2,0,0,1,2.54,1,4.58,4.58,0,0,1,.9,3.12v4.65l1.55.13V146h-4.25v-.77l1.55-.13v-4.66a3.66,3.66,0,0,0-.67-2.49,2.41,2.41,0,0,0-1.86-.72,2.65,2.65,0,0,0-2.05.78,3.65,3.65,0,0,0-.89,2s0,.09,0,.13v5l1.55.12V146h-4.23v-.77l1.54-.12v-4.67A3.65,3.65,0,0,0,486,138a2.44,2.44,0,0,0-1.87-.74,2.74,2.74,0,0,0-2.91,2.09v5.79l1.54.12V146h-4.23v-.77l1.55-.12v-7.72Z"/><path class="cls-3" d="M504.48,146c-.07-.32-.13-.6-.16-.83a5.81,5.81,0,0,1-.05-.72,4.27,4.27,0,0,1-1.52,1.24,4.52,4.52,0,0,1-2.13.5,3.4,3.4,0,0,1-2.34-.73,2.45,2.45,0,0,1-.82-2,2.38,2.38,0,0,1,1.22-2.09,6.25,6.25,0,0,1,3.32-.77h2.27v-1.26a2,2,0,0,0-.7-1.6,3.05,3.05,0,0,0-2-.58,5.11,5.11,0,0,0-1.56.22,3.67,3.67,0,0,0-1.19.58l-.09,1.28h-.94v-1.83a6,6,0,0,1,1.7-.83,7,7,0,0,1,2.11-.32,4.32,4.32,0,0,1,2.74.81,2.71,2.71,0,0,1,1,2.29v4.67c0,.2,0,.38,0,.56a4.52,4.52,0,0,0,.06.53l1,.06V146Zm-3.74-.75a4.42,4.42,0,0,0,2.18-.52,3.29,3.29,0,0,0,1.35-1.37v-1.9H502a4.51,4.51,0,0,0-2.48.59,1.76,1.76,0,0,0-.92,1.5,1.51,1.51,0,0,0,.57,1.23A2.38,2.38,0,0,0,500.74,145.25Z"/><path class="cls-3" d="M512.61,133.07v-.78h2.68v12.82l1.55.12V146h-4.23v-.77l1.55-.12V133.19Z"/><path class="cls-3" d="M518.56,145.23l1.54-.12v-7.72l-1.54-.12v-.78h2.67v8.62l1.55.12V146h-4.22Zm2.67-11.46H520.1v-1.48h1.13Z"/><path class="cls-3" d="M532.14,139.43h-.93l-.13-1.35a3,3,0,0,0-1.08-.64,4.55,4.55,0,0,0-1.5-.23,2.93,2.93,0,0,0-1.86.5,1.44,1.44,0,0,0-.62,1.16,1.34,1.34,0,0,0,.53,1.09,5.47,5.47,0,0,0,2.14.76,7.22,7.22,0,0,1,2.75,1,2.1,2.1,0,0,1,.91,1.78,2.26,2.26,0,0,1-1,1.92,4.66,4.66,0,0,1-2.75.74,6.72,6.72,0,0,1-2.07-.3,4.77,4.77,0,0,1-1.62-.83v-1.92h.92l.16,1.36a2.76,2.76,0,0,0,1.15.61,5.84,5.84,0,0,0,1.46.19,3.39,3.39,0,0,0,2-.5,1.48,1.48,0,0,0,.71-1.22,1.53,1.53,0,0,0-.59-1.17,5.1,5.1,0,0,0-2.15-.81,7.51,7.51,0,0,1-2.71-1,2,2,0,0,1-.89-1.71,2.22,2.22,0,0,1,1-1.84,4.18,4.18,0,0,1,2.62-.76,6.47,6.47,0,0,1,2.07.32,4.37,4.37,0,0,1,1.52.87Z"/><path class="cls-3" d="M537,134.06v2.43h2.26v.86H537v6.2a1.93,1.93,0,0,0,.36,1.32,1.29,1.29,0,0,0,1,.39,4.61,4.61,0,0,0,.53,0c.18,0,.38,0,.6-.07l.17.78a3.31,3.31,0,0,1-.69.17,5.54,5.54,0,0,1-.81.07,2.22,2.22,0,0,1-1.69-.64,2.83,2.83,0,0,1-.6-2v-6.2h-1.77v-.86h1.77v-2.43Z"/><path class="cls-3" d="M548.46,146c-.07-.32-.13-.6-.16-.83a5.79,5.79,0,0,1,0-.72,4.36,4.36,0,0,1-1.52,1.24,4.59,4.59,0,0,1-2.14.5,3.37,3.37,0,0,1-2.33-.73,2.46,2.46,0,0,1-.83-2,2.37,2.37,0,0,1,1.23-2.09,6.2,6.2,0,0,1,3.32-.77h2.27v-1.26a2,2,0,0,0-.71-1.6,3,3,0,0,0-2-.58,5.11,5.11,0,0,0-1.56.22,3.61,3.61,0,0,0-1.18.58l-.1,1.28h-.94v-1.83a6,6,0,0,1,1.71-.83,6.9,6.9,0,0,1,2.11-.32,4.31,4.31,0,0,1,2.73.81,2.71,2.71,0,0,1,1,2.29v4.67c0,.2,0,.38,0,.56a4.52,4.52,0,0,0,.06.53l1,.06V146Zm-3.74-.75a4.39,4.39,0,0,0,2.18-.52,3.32,3.32,0,0,0,1.36-1.37v-1.9H546a4.47,4.47,0,0,0-2.47.59,1.75,1.75,0,0,0-.93,1.5,1.51,1.51,0,0,0,.57,1.23A2.4,2.4,0,0,0,544.72,145.25Z"/><path class="cls-3" d="M564,144.63a3.41,3.41,0,0,1-1.32,1.15,4.15,4.15,0,0,1-1.89.41,3.54,3.54,0,0,1-2.89-1.28,5.22,5.22,0,0,1-1-3.4v-.19a5.89,5.89,0,0,1,1-3.64,3.45,3.45,0,0,1,2.9-1.37,3.87,3.87,0,0,1,1.86.42,3.56,3.56,0,0,1,1.31,1.19v-4.73l-1.54-.12v-.78h2.68v12.82l1.55.12V146h-2.56Zm-6-3.12a4.52,4.52,0,0,0,.75,2.74,2.58,2.58,0,0,0,2.24,1,3.36,3.36,0,0,0,1.83-.46,3.06,3.06,0,0,0,1.14-1.25v-4.5a3.26,3.26,0,0,0-1.09-1.32,3.15,3.15,0,0,0-1.86-.51,2.51,2.51,0,0,0-2.25,1.14,5.19,5.19,0,0,0-.76,2.95Z"/><path class="cls-3" d="M572.89,146.19a4.24,4.24,0,0,1-3.2-1.32,4.59,4.59,0,0,1-1.28-3.34V141a4.76,4.76,0,0,1,1.27-3.38,4.06,4.06,0,0,1,3.06-1.35,4,4,0,0,1,3,1.11,4,4,0,0,1,1.08,3v.9h-7.25v.26a4,4,0,0,0,.93,2.68,3,3,0,0,0,2.42,1.09,5.35,5.35,0,0,0,1.81-.27,3.79,3.79,0,0,0,1.28-.79l.48.72a4.16,4.16,0,0,1-1.46.9A6.27,6.27,0,0,1,572.89,146.19Zm-.15-9a2.83,2.83,0,0,0-2.11.89,3.68,3.68,0,0,0-1,2.24l0,0h6v-.26a2.9,2.9,0,0,0-.79-2.07A2.8,2.8,0,0,0,572.74,137.21Z"/><path class="cls-3" d="M583.6,141.32a5.83,5.83,0,0,1,1-3.64,3.47,3.47,0,0,1,2.91-1.37,3.8,3.8,0,0,1,1.89.45,3.51,3.51,0,0,1,1.32,1.25l.14-1.52h1v9.39a3.89,3.89,0,0,1-1.08,2.9,4,4,0,0,1-3,1.06,7.54,7.54,0,0,1-1.58-.17,6.45,6.45,0,0,1-1.46-.45l.3-.89a6.82,6.82,0,0,0,1.3.42,6.57,6.57,0,0,0,1.42.15,2.89,2.89,0,0,0,2.21-.8,3.15,3.15,0,0,0,.74-2.22v-1.21a3.48,3.48,0,0,1-1.32,1.12,4.22,4.22,0,0,1-1.87.4,3.55,3.55,0,0,1-2.9-1.28,5.23,5.23,0,0,1-1-3.4Zm1.14.19a4.56,4.56,0,0,0,.75,2.74,2.64,2.64,0,0,0,2.26,1,3.29,3.29,0,0,0,1.84-.47,3.08,3.08,0,0,0,1.14-1.28v-4.41a3.48,3.48,0,0,0-1.09-1.36,3.09,3.09,0,0,0-1.87-.52,2.56,2.56,0,0,0-2.27,1.14,5.21,5.21,0,0,0-.76,2.95Z"/><path class="cls-3" d="M599,146.19a4.24,4.24,0,0,1-3.2-1.32,4.59,4.59,0,0,1-1.28-3.34V141a4.76,4.76,0,0,1,1.27-3.38,4.06,4.06,0,0,1,3.06-1.35,4,4,0,0,1,3,1.11,4.05,4.05,0,0,1,1.09,3v.9h-7.26v.26a4,4,0,0,0,.93,2.68A3,3,0,0,0,599,145.3a5.35,5.35,0,0,0,1.81-.27,3.79,3.79,0,0,0,1.28-.79l.48.72a4.16,4.16,0,0,1-1.46.9A6.27,6.27,0,0,1,599,146.19Zm-.15-9a2.83,2.83,0,0,0-2.11.89,3.68,3.68,0,0,0-1,2.24l0,0h6v-.26a2.9,2.9,0,0,0-.79-2.07A2.8,2.8,0,0,0,598.82,137.21Zm2.69-2.55v.16h-1.06l-1.59-1.48-1.57,1.48h-1v-.18l2.15-1.95h.93Z"/><path class="cls-3" d="M604.7,145.23l1.54-.12v-7.72l-1.54-.12v-.78h2.55l.1,1.66a3.57,3.57,0,0,1,1.34-1.36,3.94,3.94,0,0,1,2-.48,3.29,3.29,0,0,1,2.54.95,4.24,4.24,0,0,1,.87,3v4.9l1.55.12V146h-4.23v-.77l1.54-.12v-4.89a3.3,3.3,0,0,0-.65-2.31,2.48,2.48,0,0,0-1.88-.68,3.08,3.08,0,0,0-1.95.58,3.26,3.26,0,0,0-1.09,1.56v5.74l1.55.12V146H604.7Z"/><path class="cls-3" d="M621.86,146.19a4.28,4.28,0,0,1-3.21-1.32,4.59,4.59,0,0,1-1.27-3.34V141a4.75,4.75,0,0,1,1.26-3.38,4.07,4.07,0,0,1,3.07-1.35,4,4,0,0,1,3,1.11,4,4,0,0,1,1.08,3v.9h-7.25v.26a4,4,0,0,0,.92,2.68,3,3,0,0,0,2.43,1.09,5.33,5.33,0,0,0,1.8-.27,3.69,3.69,0,0,0,1.28-.79l.49.72a4.3,4.3,0,0,1-1.47.9A6.21,6.21,0,0,1,621.86,146.19Zm-.15-9a2.85,2.85,0,0,0-2.12.89,3.74,3.74,0,0,0-1,2.24l0,0h6v-.26a2.86,2.86,0,0,0-.79-2.07A2.78,2.78,0,0,0,621.71,137.21Z"/><path class="cls-3" d="M630.25,136.49l.14,1.58v.12a3.43,3.43,0,0,1,1.19-1.38,3.19,3.19,0,0,1,1.79-.5,2.85,2.85,0,0,1,.42,0l.34.06-.15,1-.85-.06a2.73,2.73,0,0,0-1.76.56,3.07,3.07,0,0,0-1,1.54v5.67l1.55.12V146h-4.23v-.77l1.55-.12v-7.72l-1.55-.12v-.78h2.54Z"/><path class="cls-3" d="M635.41,141.11a4.87,4.87,0,0,1,1.24-3.45,4.71,4.71,0,0,1,6.6,0,4.87,4.87,0,0,1,1.24,3.45v.28a4.89,4.89,0,0,1-1.23,3.45,4.72,4.72,0,0,1-6.61,0,4.85,4.85,0,0,1-1.24-3.45Zm1.14.28a4.3,4.3,0,0,0,.9,2.78A3,3,0,0,0,640,145.3a3,3,0,0,0,2.48-1.13,4.3,4.3,0,0,0,.9-2.78v-.28a4.28,4.28,0,0,0-.9-2.76,3.31,3.31,0,0,0-5,0,4.28,4.28,0,0,0-.9,2.76Z"/><path class="cls-3" d="M653.79,139.43h-.93l-.13-1.35a2.87,2.87,0,0,0-1.08-.64,4.53,4.53,0,0,0-1.49-.23,3,3,0,0,0-1.87.5,1.47,1.47,0,0,0-.62,1.16,1.33,1.33,0,0,0,.54,1.09,5.47,5.47,0,0,0,2.14.76,7.23,7.23,0,0,1,2.74,1,2.08,2.08,0,0,1,.91,1.78,2.24,2.24,0,0,1-1,1.92,4.65,4.65,0,0,1-2.74.74,6.83,6.83,0,0,1-2.08-.3,5,5,0,0,1-1.62-.83v-1.92h.92l.17,1.36a2.7,2.7,0,0,0,1.15.61,5.78,5.78,0,0,0,1.46.19,3.34,3.34,0,0,0,1.94-.5,1.45,1.45,0,0,0,.71-1.22,1.5,1.5,0,0,0-.59-1.17,5.11,5.11,0,0,0-2.14-.81,7.57,7.57,0,0,1-2.72-1,2,2,0,0,1-.89-1.71,2.25,2.25,0,0,1,1-1.84,4.19,4.19,0,0,1,2.63-.76,6.4,6.4,0,0,1,2.06.32,4.42,4.42,0,0,1,1.53.87Z"/><path class="cls-3" d="M216,154.67v-.78h2.67v12.82l1.55.12v.77H216v-.77l1.54-.12V154.79Z"/><path class="cls-3" d="M221.93,166.83l1.54-.12V159l-1.54-.12v-.78h2.67v8.62l1.55.12v.77h-4.22Zm2.67-11.46h-1.13v-1.48h1.13Z"/><path class="cls-3" d="M230.67,155.66v2.43h2.26V159h-2.26v6.2a1.93,1.93,0,0,0,.36,1.32,1.29,1.29,0,0,0,1,.39,4.61,4.61,0,0,0,.53,0c.18,0,.38,0,.61-.07l.17.78a3.42,3.42,0,0,1-.7.17,5.54,5.54,0,0,1-.81.07,2.24,2.24,0,0,1-1.69-.64,2.83,2.83,0,0,1-.6-2V159h-1.76v-.86h1.76v-2.43Z"/><path class="cls-3" d="M239.54,167.79a4.24,4.24,0,0,1-3.2-1.32,4.59,4.59,0,0,1-1.28-3.34v-.49a4.76,4.76,0,0,1,1.27-3.38,4,4,0,0,1,3.06-1.35,4,4,0,0,1,3,1.11,4,4,0,0,1,1.08,2.95v.9h-7.25v.26a4,4,0,0,0,.93,2.68,3,3,0,0,0,2.42,1.09,5.1,5.1,0,0,0,1.81-.28,3.61,3.61,0,0,0,1.28-.78l.48.72a4,4,0,0,1-1.46.89A6,6,0,0,1,239.54,167.79Zm-.15-9a2.83,2.83,0,0,0-2.11.89,3.68,3.68,0,0,0-1,2.24l0,0h6v-.26a2.89,2.89,0,0,0-.78-2.07A2.8,2.8,0,0,0,239.39,158.81Z"/><path class="cls-3" d="M247.93,158.09l.15,1.58v.12a3.35,3.35,0,0,1,1.19-1.38,3.19,3.19,0,0,1,1.79-.5,3,3,0,0,1,.42,0l.34.06-.16,1-.84-.06a2.71,2.71,0,0,0-1.76.56,3,3,0,0,0-1,1.54v5.67l1.54.12v.77H245.4v-.77l1.55-.12V159l-1.55-.12v-.78h2.53Z"/><path class="cls-3" d="M260.38,167.6c-.08-.32-.13-.6-.17-.83a5.79,5.79,0,0,1,0-.72,4.48,4.48,0,0,1-1.52,1.24,4.56,4.56,0,0,1-2.14.5,3.44,3.44,0,0,1-2.33-.73,2.46,2.46,0,0,1-.83-1.95,2.37,2.37,0,0,1,1.23-2.09,6.2,6.2,0,0,1,3.32-.77h2.27V161a2,2,0,0,0-.71-1.6,3,3,0,0,0-2-.58,5.11,5.11,0,0,0-1.56.22,3.61,3.61,0,0,0-1.18.58l-.1,1.27h-.94v-1.82a6.18,6.18,0,0,1,1.71-.83,6.9,6.9,0,0,1,2.11-.32,4.36,4.36,0,0,1,2.73.8,2.75,2.75,0,0,1,1,2.3v4.67c0,.2,0,.38,0,.56a4.52,4.52,0,0,0,.06.53l1,.06v.77Zm-3.74-.75a4.38,4.38,0,0,0,2.17-.52,3.26,3.26,0,0,0,1.36-1.37v-1.9h-2.29a4.47,4.47,0,0,0-2.47.59,1.73,1.73,0,0,0-.93,1.5,1.49,1.49,0,0,0,.58,1.23A2.38,2.38,0,0,0,256.64,166.85Zm1.92-12.39H260l0,0-2.37,2.29h-1Z"/><path class="cls-3" d="M266.47,158.09l.14,1.58v.12a3.43,3.43,0,0,1,1.19-1.38,3.21,3.21,0,0,1,1.79-.5,2.72,2.72,0,0,1,.42,0l.34.06-.15,1-.85-.06a2.73,2.73,0,0,0-1.76.56,3.09,3.09,0,0,0-1,1.54v5.67l1.55.12v.77h-4.22v-.77l1.54-.12V159l-1.54-.12v-.78h2.53Z"/><path class="cls-3" d="M271.75,166.83l1.54-.12V159l-1.54-.12v-.78h2.67v8.62l1.55.12v.77h-4.22Zm2.67-11.46h-1.13v-1.48h1.13Z"/><path class="cls-3" d="M277.88,162.7a4.86,4.86,0,0,1,1.24-3.44,4.71,4.71,0,0,1,6.6,0A4.86,4.86,0,0,1,287,162.7V163a4.85,4.85,0,0,1-1.24,3.45,4.24,4.24,0,0,1-3.29,1.35,4.28,4.28,0,0,1-3.31-1.35,4.85,4.85,0,0,1-1.24-3.45ZM279,163a4.3,4.3,0,0,0,.9,2.78,3.33,3.33,0,0,0,5,0,4.3,4.3,0,0,0,.9-2.78v-.29a4.27,4.27,0,0,0-.9-2.75,3,3,0,0,0-2.51-1.14,3,3,0,0,0-2.49,1.14,4.27,4.27,0,0,0-.9,2.75Z"/><path class="cls-3" d="M296.26,161h-.93l-.13-1.35a3,3,0,0,0-1.08-.64,4.53,4.53,0,0,0-1.49-.23,3,3,0,0,0-1.87.5,1.47,1.47,0,0,0-.62,1.16,1.33,1.33,0,0,0,.54,1.09,5.4,5.4,0,0,0,2.14.76,7.23,7.23,0,0,1,2.74,1,2.08,2.08,0,0,1,.91,1.78,2.26,2.26,0,0,1-1,1.92,4.66,4.66,0,0,1-2.75.74,6.72,6.72,0,0,1-2.07-.3,5.16,5.16,0,0,1-1.62-.83v-1.92h.92l.16,1.36a2.8,2.8,0,0,0,1.16.61,5.76,5.76,0,0,0,1.45.19,3.35,3.35,0,0,0,1.95-.5,1.48,1.48,0,0,0,.71-1.22,1.53,1.53,0,0,0-.59-1.17,5.11,5.11,0,0,0-2.14-.81,7.77,7.77,0,0,1-2.72-1,2,2,0,0,1-.89-1.71,2.22,2.22,0,0,1,1-1.84,4.19,4.19,0,0,1,2.63-.76,6.4,6.4,0,0,1,2.06.32,4.37,4.37,0,0,1,1.52.87Z"/><path class="cls-3" d="M303.27,162.7a4.86,4.86,0,0,1,1.24-3.44,4.71,4.71,0,0,1,6.6,0,4.86,4.86,0,0,1,1.24,3.44V163a4.85,4.85,0,0,1-1.24,3.45,4.24,4.24,0,0,1-3.29,1.35,4.28,4.28,0,0,1-3.31-1.35,4.85,4.85,0,0,1-1.24-3.45Zm1.14.29a4.3,4.3,0,0,0,.9,2.78,3.33,3.33,0,0,0,5,0,4.3,4.3,0,0,0,.9-2.78v-.29a4.22,4.22,0,0,0-.91-2.75,3.3,3.3,0,0,0-5,0,4.27,4.27,0,0,0-.9,2.75Z"/><path class="cls-3" d="M321.75,166a3.5,3.5,0,0,1-1.33,1.29,4.14,4.14,0,0,1-2,.46,3.24,3.24,0,0,1-2.54-1,4.65,4.65,0,0,1-.91-3.17V159l-1.27-.12v-.78h2.4v5.53a3.87,3.87,0,0,0,.64,2.5,2.26,2.26,0,0,0,1.82.75,3.48,3.48,0,0,0,2.05-.53,2.77,2.77,0,0,0,1.08-1.46V159l-1.46-.12v-.78h2.6v8.62l1.37.12v.77h-2.37Z"/><path class="cls-3" d="M337.71,167.6a7.38,7.38,0,0,1-.16-.83,5.81,5.81,0,0,1-.05-.72,4.38,4.38,0,0,1-1.52,1.24,4.52,4.52,0,0,1-2.13.5,3.45,3.45,0,0,1-2.34-.73,2.45,2.45,0,0,1-.82-1.95,2.36,2.36,0,0,1,1.22-2.09,6.25,6.25,0,0,1,3.32-.77h2.27V161a2,2,0,0,0-.7-1.6,3.05,3.05,0,0,0-2-.58,5.11,5.11,0,0,0-1.56.22,3.67,3.67,0,0,0-1.19.58l-.09,1.27H331v-1.82a6,6,0,0,1,1.7-.83,7,7,0,0,1,2.11-.32,4.37,4.37,0,0,1,2.74.8,2.74,2.74,0,0,1,1,2.3v4.67c0,.2,0,.38,0,.56a4.52,4.52,0,0,0,.06.53l1,.06v.77Zm-3.74-.75a4.36,4.36,0,0,0,2.17-.52A3.26,3.26,0,0,0,337.5,165v-1.9h-2.29a4.49,4.49,0,0,0-2.47.59,1.74,1.74,0,0,0-.92,1.5,1.51,1.51,0,0,0,.57,1.23A2.38,2.38,0,0,0,334,166.85Z"/><path class="cls-3" d="M353.62,166a3.44,3.44,0,0,1-1.33,1.29,4.14,4.14,0,0,1-2,.46,3.22,3.22,0,0,1-2.53-1,4.65,4.65,0,0,1-.92-3.17V159l-1.27-.12v-.78H348v5.53a3.87,3.87,0,0,0,.64,2.5,2.26,2.26,0,0,0,1.82.75,3.48,3.48,0,0,0,2.05-.53,2.77,2.77,0,0,0,1.08-1.46V159l-1.46-.12v-.78h2.6v8.62l1.37.12v.77h-2.37Z"/><path class="cls-3" d="M357.52,158.87v-.78h2.55l.11,1.57a3.55,3.55,0,0,1,1.32-1.29,4,4,0,0,1,2-.46,3.38,3.38,0,0,1,2,.54,2.84,2.84,0,0,1,1.13,1.62,3.76,3.76,0,0,1,1.33-1.58,3.69,3.69,0,0,1,2.09-.58,3.2,3.2,0,0,1,2.54,1,4.58,4.58,0,0,1,.9,3.12v4.65l1.54.13v.77h-4.24v-.77l1.55-.13V162a3.66,3.66,0,0,0-.67-2.49,2.43,2.43,0,0,0-1.87-.72,2.64,2.64,0,0,0-2,.78,3.65,3.65,0,0,0-.89,2,.57.57,0,0,0,0,.13v5l1.55.12v.77h-4.23v-.77l1.54-.12V162a3.59,3.59,0,0,0-.68-2.47,2.4,2.4,0,0,0-1.86-.74,3,3,0,0,0-1.92.56,2.89,2.89,0,0,0-1,1.53v5.79l1.54.12v.77h-4.23v-.77l1.55-.12V159Z"/><path class="cls-3" d="M383.45,167.6a7.38,7.38,0,0,1-.16-.83,5.81,5.81,0,0,1-.05-.72,4.48,4.48,0,0,1-1.52,1.24,4.52,4.52,0,0,1-2.13.5,3.45,3.45,0,0,1-2.34-.73,2.45,2.45,0,0,1-.82-1.95,2.36,2.36,0,0,1,1.22-2.09,6.23,6.23,0,0,1,3.32-.77h2.27V161a1.94,1.94,0,0,0-.71-1.6,3,3,0,0,0-2-.58A5.11,5.11,0,0,0,379,159a3.72,3.72,0,0,0-1.18.58l-.09,1.27h-.94v-1.82a6,6,0,0,1,1.7-.83,7,7,0,0,1,2.11-.32,4.39,4.39,0,0,1,2.74.8,2.77,2.77,0,0,1,1,2.3v4.67c0,.2,0,.38,0,.56a3.07,3.07,0,0,0,.07.53l1,.06v.77Zm-3.74-.75a4.36,4.36,0,0,0,2.17-.52,3.26,3.26,0,0,0,1.36-1.37v-1.9H381a4.49,4.49,0,0,0-2.47.59,1.73,1.73,0,0,0-.93,1.5,1.52,1.52,0,0,0,.58,1.23A2.38,2.38,0,0,0,379.71,166.85Z"/><path class="cls-3" d="M391.58,154.67v-.78h2.68v12.82l1.55.12v.77h-4.23v-.77l1.55-.12V154.79Z"/><path class="cls-3" d="M397.52,166.83l1.55-.12V159l-1.55-.12v-.78h2.68v8.62l1.55.12v.77h-4.23Zm2.68-11.46h-1.13v-1.48h1.13Z"/><path class="cls-3" d="M411.11,161h-.93l-.14-1.35A2.91,2.91,0,0,0,409,159a4.63,4.63,0,0,0-1.5-.23,2.93,2.93,0,0,0-1.86.5,1.45,1.45,0,0,0-.63,1.16,1.33,1.33,0,0,0,.54,1.09,5.47,5.47,0,0,0,2.14.76,7.16,7.16,0,0,1,2.74,1,2.08,2.08,0,0,1,.92,1.78,2.26,2.26,0,0,1-1,1.92,4.68,4.68,0,0,1-2.75.74,6.83,6.83,0,0,1-2.08-.3,5,5,0,0,1-1.61-.83v-1.92h.92l.16,1.36a2.76,2.76,0,0,0,1.15.61,5.84,5.84,0,0,0,1.46.19,3.34,3.34,0,0,0,1.94-.5,1.47,1.47,0,0,0,.72-1.22,1.51,1.51,0,0,0-.6-1.17,5,5,0,0,0-2.14-.81,7.85,7.85,0,0,1-2.72-1,2,2,0,0,1-.88-1.71,2.23,2.23,0,0,1,1-1.84,4.21,4.21,0,0,1,2.63-.76,6.51,6.51,0,0,1,2.07.32,4.37,4.37,0,0,1,1.52.87Z"/><path class="cls-3" d="M416,155.66v2.43h2.26V159H416v6.2a1.93,1.93,0,0,0,.37,1.32,1.27,1.27,0,0,0,1,.39,4.7,4.7,0,0,0,.54,0l.6-.07.17.78a3.48,3.48,0,0,1-.69.17,5.55,5.55,0,0,1-.82.07,2.21,2.21,0,0,1-1.68-.64,2.83,2.83,0,0,1-.6-2V159h-1.77v-.86h1.77v-2.43Z"/><path class="cls-3" d="M427.43,167.6c-.07-.32-.13-.6-.16-.83a5.81,5.81,0,0,1,0-.72,4.38,4.38,0,0,1-1.52,1.24,4.52,4.52,0,0,1-2.13.5,3.45,3.45,0,0,1-2.34-.73,2.45,2.45,0,0,1-.82-1.95,2.38,2.38,0,0,1,1.22-2.09,6.25,6.25,0,0,1,3.32-.77h2.27V161a2,2,0,0,0-.7-1.6,3.05,3.05,0,0,0-2-.58A5.11,5.11,0,0,0,423,159a3.67,3.67,0,0,0-1.19.58l-.09,1.27h-.94v-1.82a6,6,0,0,1,1.7-.83,7,7,0,0,1,2.11-.32,4.37,4.37,0,0,1,2.74.8,2.74,2.74,0,0,1,1,2.3v4.67c0,.2,0,.38,0,.56a4.52,4.52,0,0,0,.06.53l1,.06v.77Zm-3.74-.75a4.42,4.42,0,0,0,2.18-.52,3.29,3.29,0,0,0,1.35-1.37v-1.9h-2.28a4.51,4.51,0,0,0-2.48.59,1.74,1.74,0,0,0-.92,1.5,1.51,1.51,0,0,0,.57,1.23A2.38,2.38,0,0,0,423.69,166.85Z"/><path class="cls-3" d="M442.93,166.23a3.41,3.41,0,0,1-1.32,1.15,4.19,4.19,0,0,1-1.9.41,3.52,3.52,0,0,1-2.88-1.28,5.23,5.23,0,0,1-1-3.4v-.19a5.89,5.89,0,0,1,1-3.64,3.44,3.44,0,0,1,2.9-1.37,3.87,3.87,0,0,1,1.86.42,3.64,3.64,0,0,1,1.31,1.19v-4.73l-1.55-.12v-.78H444v12.82l1.55.12v.77H443Zm-6-3.12a4.52,4.52,0,0,0,.75,2.74,2.58,2.58,0,0,0,2.24,1,3.36,3.36,0,0,0,1.83-.46,3.06,3.06,0,0,0,1.14-1.25v-4.5a3.34,3.34,0,0,0-1.09-1.32,3.15,3.15,0,0,0-1.86-.51A2.51,2.51,0,0,0,437.7,160a5.19,5.19,0,0,0-.76,2.95Z"/><path class="cls-3" d="M451.86,167.79a4.28,4.28,0,0,1-3.21-1.32,4.59,4.59,0,0,1-1.27-3.34v-.49a4.72,4.72,0,0,1,1.27-3.38,4,4,0,0,1,3.06-1.35,4,4,0,0,1,3,1.11,4,4,0,0,1,1.08,2.95v.9h-7.25v.26a4,4,0,0,0,.93,2.68,3,3,0,0,0,2.42,1.09,5.08,5.08,0,0,0,1.8-.28,3.66,3.66,0,0,0,1.29-.78l.48.72a4.09,4.09,0,0,1-1.46.89A6,6,0,0,1,451.86,167.79Zm-.15-9a2.82,2.82,0,0,0-2.11.89,3.63,3.63,0,0,0-1,2.24l0,0h6v-.26a2.86,2.86,0,0,0-.79-2.07A2.76,2.76,0,0,0,451.71,158.81Z"/><path class="cls-3" d="M465.13,155.66v2.43h2.26V159h-2.26v6.2a1.88,1.88,0,0,0,.37,1.32,1.25,1.25,0,0,0,1,.39,4.61,4.61,0,0,0,.53,0c.18,0,.38,0,.61-.07l.17.78a3.48,3.48,0,0,1-.69.17,5.79,5.79,0,0,1-.82.07,2.25,2.25,0,0,1-1.69-.64,2.83,2.83,0,0,1-.6-2V159h-1.76v-.86H464v-2.43Z"/><path class="cls-3" d="M469.29,162.7a4.86,4.86,0,0,1,1.24-3.44,4.71,4.71,0,0,1,6.6,0,4.86,4.86,0,0,1,1.24,3.44V163a4.85,4.85,0,0,1-1.24,3.45,4.24,4.24,0,0,1-3.29,1.35,4.28,4.28,0,0,1-3.31-1.35,4.85,4.85,0,0,1-1.24-3.45Zm1.14.29a4.3,4.3,0,0,0,.9,2.78,3.33,3.33,0,0,0,5,0,4.3,4.3,0,0,0,.9-2.78v-.29a4.22,4.22,0,0,0-.91-2.75,3.3,3.3,0,0,0-5,0,4.27,4.27,0,0,0-.9,2.75Zm4.46-8.52h1.39l0,.05L474,156.81h-1Z"/><path class="cls-3" d="M479.92,158.87v-.78h2.49l.15,1.48a3.46,3.46,0,0,1,1.33-1.22,4,4,0,0,1,1.9-.44,3.45,3.45,0,0,1,2.9,1.37,5.89,5.89,0,0,1,1,3.64v.19a5.21,5.21,0,0,1-1,3.4,3.53,3.53,0,0,1-2.88,1.28,4.31,4.31,0,0,1-1.89-.39,3.35,3.35,0,0,1-1.33-1.08v4l1.55.11v.79h-4.22v-.79l1.54-.11V159Zm8.67,4a5.14,5.14,0,0,0-.78-2.95,2.56,2.56,0,0,0-2.27-1.14,3.23,3.23,0,0,0-1.87.5,3.16,3.16,0,0,0-1.08,1.32v4.57a3,3,0,0,0,1.13,1.23,3.45,3.45,0,0,0,1.83.45,2.66,2.66,0,0,0,2.27-1,4.53,4.53,0,0,0,.77-2.75Z"/><path class="cls-3" d="M491.51,166.83l1.54-.12V159l-1.54-.12v-.78h2.67v8.62l1.55.12v.77h-4.22Zm2.67-11.46h-1.13v-1.48h1.13Z"/><path class="cls-3" d="M502,166.9a3.42,3.42,0,0,0,2-.6,1.92,1.92,0,0,0,.86-1.66h1v.05a2.53,2.53,0,0,1-1.13,2.21,4.46,4.46,0,0,1-2.75.89,4,4,0,0,1-3.23-1.34,5,5,0,0,1-1.15-3.42v-.37a5,5,0,0,1,1.15-3.41,4,4,0,0,1,3.22-1.34,5.54,5.54,0,0,1,2.18.42,4.27,4.27,0,0,1,1.6,1.12l0,2.08h-1l-.18-1.69a3.11,3.11,0,0,0-1.13-.75,4,4,0,0,0-1.55-.28,2.83,2.83,0,0,0-2.44,1.09,4.57,4.57,0,0,0-.79,2.76V163a4.68,4.68,0,0,0,.78,2.78A2.86,2.86,0,0,0,502,166.9Z"/><path class="cls-3" d="M508,162.7a4.91,4.91,0,0,1,1.24-3.44,4.71,4.71,0,0,1,6.6,0,4.86,4.86,0,0,1,1.24,3.44V163a4.89,4.89,0,0,1-1.23,3.45,4.72,4.72,0,0,1-6.61,0A4.9,4.9,0,0,1,508,163Zm1.14.29a4.3,4.3,0,0,0,.9,2.78,3,3,0,0,0,2.52,1.13,3,3,0,0,0,2.48-1.13A4.25,4.25,0,0,0,516,163v-.29a4.28,4.28,0,0,0-.91-2.75,3.31,3.31,0,0,0-5,0,4.27,4.27,0,0,0-.9,2.75Z"/><path class="cls-3" d="M526.41,161h-.93l-.14-1.35a2.91,2.91,0,0,0-1.07-.64,4.63,4.63,0,0,0-1.5-.23,2.93,2.93,0,0,0-1.86.5,1.45,1.45,0,0,0-.63,1.16,1.33,1.33,0,0,0,.54,1.09,5.47,5.47,0,0,0,2.14.76,7.16,7.16,0,0,1,2.74,1,2.08,2.08,0,0,1,.91,1.78,2.25,2.25,0,0,1-1,1.92,4.68,4.68,0,0,1-2.75.74,6.83,6.83,0,0,1-2.08-.3,5.16,5.16,0,0,1-1.62-.83v-1.92h.93l.16,1.36a2.76,2.76,0,0,0,1.15.61,5.84,5.84,0,0,0,1.46.19,3.34,3.34,0,0,0,1.94-.5,1.45,1.45,0,0,0,.71-1.22,1.5,1.5,0,0,0-.59-1.17,5,5,0,0,0-2.14-.81,7.77,7.77,0,0,1-2.72-1,2,2,0,0,1-.89-1.71,2.25,2.25,0,0,1,1-1.84,4.21,4.21,0,0,1,2.63-.76,6.51,6.51,0,0,1,2.07.32,4.37,4.37,0,0,1,1.52.87Z"/><path class="cls-3" d="M533.11,158.87v-.78h2.49l.15,1.48a3.46,3.46,0,0,1,1.33-1.22,4,4,0,0,1,1.9-.44,3.46,3.46,0,0,1,2.9,1.37,5.89,5.89,0,0,1,1,3.64v.19a5.21,5.21,0,0,1-1,3.4,3.53,3.53,0,0,1-2.88,1.28,4.31,4.31,0,0,1-1.89-.39,3.35,3.35,0,0,1-1.33-1.08v4l1.55.11v.79h-4.22v-.79l1.54-.11V159Zm8.67,4A5.14,5.14,0,0,0,541,160a2.59,2.59,0,0,0-2.28-1.14,3.22,3.22,0,0,0-1.86.5,3.16,3.16,0,0,0-1.08,1.32v4.57a3,3,0,0,0,1.13,1.23,3.45,3.45,0,0,0,1.83.45,2.66,2.66,0,0,0,2.27-1,4.53,4.53,0,0,0,.77-2.75Z"/><path class="cls-3" d="M544.77,162.7a4.91,4.91,0,0,1,1.24-3.44,4.71,4.71,0,0,1,6.6,0,4.86,4.86,0,0,1,1.24,3.44V163a4.89,4.89,0,0,1-1.23,3.45,4.72,4.72,0,0,1-6.61,0,4.9,4.9,0,0,1-1.24-3.45Zm1.14.29a4.3,4.3,0,0,0,.9,2.78,3,3,0,0,0,2.52,1.13,3,3,0,0,0,2.48-1.13,4.25,4.25,0,0,0,.91-2.78v-.29a4.28,4.28,0,0,0-.91-2.75,3.31,3.31,0,0,0-5,0,4.27,4.27,0,0,0-.9,2.75Z"/><path class="cls-3" d="M558.16,158.09l.15,1.58v.12a3.35,3.35,0,0,1,1.19-1.38,3.19,3.19,0,0,1,1.79-.5,3,3,0,0,1,.42,0l.34.06-.16,1-.84-.06a2.71,2.71,0,0,0-1.76.56,3,3,0,0,0-1,1.54v5.67l1.54.12v.77h-4.22v-.77l1.55-.12V159l-1.55-.12v-.78h2.53Z"/><path class="cls-3" d="M575.38,166.23a3.41,3.41,0,0,1-1.32,1.15,4.19,4.19,0,0,1-1.9.41,3.52,3.52,0,0,1-2.88-1.28,5.23,5.23,0,0,1-1-3.4v-.19a5.89,5.89,0,0,1,1-3.64,3.44,3.44,0,0,1,2.9-1.37,3.87,3.87,0,0,1,1.86.42,3.64,3.64,0,0,1,1.31,1.19v-4.73l-1.55-.12v-.78h2.69v12.82l1.55.12v.77h-2.56Zm-6-3.12a4.52,4.52,0,0,0,.75,2.74,2.58,2.58,0,0,0,2.24,1,3.36,3.36,0,0,0,1.83-.46,3.06,3.06,0,0,0,1.14-1.25v-4.5a3.34,3.34,0,0,0-1.09-1.32,3.15,3.15,0,0,0-1.86-.51,2.51,2.51,0,0,0-2.25,1.14,5.19,5.19,0,0,0-.76,2.95Z"/><path class="cls-3" d="M579.71,166.83l1.55-.12V159l-1.55-.12v-.78h2.67v8.62l1.55.12v.77h-4.22Zm2.67-11.46h-1.12v-1.48h1.12Z"/><path class="cls-3" d="M593.29,161h-.93l-.13-1.35a3,3,0,0,0-1.08-.64,4.53,4.53,0,0,0-1.49-.23,3,3,0,0,0-1.87.5,1.47,1.47,0,0,0-.62,1.16,1.33,1.33,0,0,0,.54,1.09,5.4,5.4,0,0,0,2.13.76,7.22,7.22,0,0,1,2.75,1,2.08,2.08,0,0,1,.91,1.78,2.26,2.26,0,0,1-1,1.92,4.66,4.66,0,0,1-2.75.74,6.72,6.72,0,0,1-2.07-.3,5.06,5.06,0,0,1-1.62-.83v-1.92h.92l.16,1.36a2.8,2.8,0,0,0,1.16.61,5.76,5.76,0,0,0,1.45.19,3.39,3.39,0,0,0,1.95-.5,1.48,1.48,0,0,0,.71-1.22,1.53,1.53,0,0,0-.59-1.17,5.11,5.11,0,0,0-2.14-.81,7.77,7.77,0,0,1-2.72-1,2,2,0,0,1-.89-1.71,2.22,2.22,0,0,1,1-1.84,4.19,4.19,0,0,1,2.63-.76,6.4,6.4,0,0,1,2.06.32,4.37,4.37,0,0,1,1.52.87Z"/><path class="cls-3" d="M600,166.9a3.42,3.42,0,0,0,2-.6,1.92,1.92,0,0,0,.86-1.66h1l0,.05a2.56,2.56,0,0,1-1.14,2.21,4.46,4.46,0,0,1-2.75.89,4,4,0,0,1-3.23-1.34,5,5,0,0,1-1.15-3.42v-.37a5,5,0,0,1,1.15-3.41,4,4,0,0,1,3.22-1.34,5.54,5.54,0,0,1,2.18.42,4.19,4.19,0,0,1,1.6,1.12l0,2.08h-1l-.18-1.69a3.11,3.11,0,0,0-1.13-.75,4,4,0,0,0-1.55-.28,2.83,2.83,0,0,0-2.44,1.09,4.57,4.57,0,0,0-.79,2.76V163a4.62,4.62,0,0,0,.79,2.78A2.83,2.83,0,0,0,600,166.9Z"/><path class="cls-3" d="M605.88,166.83l1.54-.12V159l-1.54-.12v-.78h2.67v8.62l1.55.12v.77h-4.22Zm2.67-11.46h-1.13v-1.48h1.13Z"/><path class="cls-3" d="M611.7,158.87v-.78h2.5l.14,1.48a3.49,3.49,0,0,1,1.34-1.22,4,4,0,0,1,1.9-.44,3.43,3.43,0,0,1,2.89,1.37,5.83,5.83,0,0,1,1,3.64v.19a5.16,5.16,0,0,1-1,3.4,3.5,3.5,0,0,1-2.87,1.28,4.39,4.39,0,0,1-1.9-.39,3.32,3.32,0,0,1-1.32-1.08v4l1.55.11v.79H611.7v-.79l1.55-.11V159Zm8.68,4a5.14,5.14,0,0,0-.78-2.95,2.59,2.59,0,0,0-2.28-1.14,3.22,3.22,0,0,0-1.86.5,3.16,3.16,0,0,0-1.08,1.32v4.57a2.92,2.92,0,0,0,1.13,1.23,3.45,3.45,0,0,0,1.83.45,2.66,2.66,0,0,0,2.27-1,4.53,4.53,0,0,0,.77-2.75Z"/><path class="cls-3" d="M623.05,154.67v-.78h2.67v12.82l1.55.12v.77h-4.22v-.77l1.54-.12V154.79Z"/><path class="cls-3" d="M629,166.83l1.54-.12V159l-1.54-.12v-.78h2.67v8.62l1.55.12v.77H629Zm2.67-11.46h-1.13v-1.48h1.13Z"/><path class="cls-3" d="M634.91,166.83l1.55-.12V159l-1.55-.12v-.78h2.55l.11,1.66a3.55,3.55,0,0,1,1.33-1.36,3.94,3.94,0,0,1,2-.48,3.29,3.29,0,0,1,2.54,1,4.2,4.2,0,0,1,.88,2.95v4.9l1.54.12v.77h-4.23v-.77l1.55-.12v-4.89a3.25,3.25,0,0,0-.66-2.31,2.48,2.48,0,0,0-1.88-.68,3.12,3.12,0,0,0-2,.58A3.26,3.26,0,0,0,637.6,161v5.75l1.54.12v.77h-4.23Z"/><path class="cls-3" d="M654.73,167.6a7.38,7.38,0,0,1-.16-.83,4.36,4.36,0,0,1-.05-.72,4.48,4.48,0,0,1-1.52,1.24,4.53,4.53,0,0,1-2.14.5,3.44,3.44,0,0,1-2.33-.73,2.46,2.46,0,0,1-.83-1.95,2.37,2.37,0,0,1,1.23-2.09,6.2,6.2,0,0,1,3.32-.77h2.27V161a2,2,0,0,0-.71-1.6,3,3,0,0,0-2-.58,5.11,5.11,0,0,0-1.56.22,3.72,3.72,0,0,0-1.18.58l-.09,1.27h-1v-1.82a6.18,6.18,0,0,1,1.71-.83,6.9,6.9,0,0,1,2.11-.32,4.36,4.36,0,0,1,2.73.8,2.75,2.75,0,0,1,1,2.3v4.67c0,.2,0,.38,0,.56a4.52,4.52,0,0,0,.06.53l1,.06v.77Zm-3.74-.75a4.36,4.36,0,0,0,2.17-.52,3.26,3.26,0,0,0,1.36-1.37v-1.9h-2.29a4.49,4.49,0,0,0-2.47.59,1.73,1.73,0,0,0-.93,1.5,1.49,1.49,0,0,0,.58,1.23A2.38,2.38,0,0,0,651,166.85Z"/><path class="cls-3" d="M665.81,161h-.93l-.13-1.35a3,3,0,0,0-1.08-.64,4.53,4.53,0,0,0-1.49-.23,3,3,0,0,0-1.87.5,1.47,1.47,0,0,0-.62,1.16,1.33,1.33,0,0,0,.54,1.09,5.47,5.47,0,0,0,2.14.76,7.23,7.23,0,0,1,2.74,1,2.08,2.08,0,0,1,.91,1.78,2.26,2.26,0,0,1-1,1.92,4.66,4.66,0,0,1-2.75.74,6.77,6.77,0,0,1-2.07-.3,5.16,5.16,0,0,1-1.62-.83v-1.92h.92l.16,1.36a2.8,2.8,0,0,0,1.16.61,5.76,5.76,0,0,0,1.45.19,3.35,3.35,0,0,0,1.95-.5,1.48,1.48,0,0,0,.71-1.22,1.53,1.53,0,0,0-.59-1.17,5.11,5.11,0,0,0-2.14-.81,7.77,7.77,0,0,1-2.72-1,2,2,0,0,1-.89-1.71,2.22,2.22,0,0,1,1-1.84,4.19,4.19,0,0,1,2.63-.76,6.4,6.4,0,0,1,2.06.32,4.42,4.42,0,0,1,1.53.87Z"/><path class="cls-3" d="M669.85,167.6h-1.3v-1.44h1.3Z"/><circle class="cls-4" cx="91" cy="131.41" r="88"/><path class="cls-3" d="M91,46.41a85,85,0,1,1-85,85,85,85,0,0,1,85-85m0-6a91,91,0,1,0,91,91,91.1,91.1,0,0,0-91-91Z"/><path class="cls-2" d="M90.78,46.56a84.78,84.78,0,1,0,84.77,84.78A84.78,84.78,0,0,0,90.78,46.56Zm0,163.9a79.13,79.13,0,1,1,79.12-79.12A79.12,79.12,0,0,1,90.78,210.46Z"/><path class="cls-2" d="M130.79,69.76a2.84,2.84,0,0,0-3.92.82l-4.62,7.11a2.82,2.82,0,0,0,.9,4,38.83,38.83,0,0,1,3.17,2.26c.63.49,1.27,1,1.77,1.32.88.72,1.72,1.49,2.56,2.25l-2,2a56.49,56.49,0,0,0-12.39-8.49l5.78-13a2.82,2.82,0,0,0-1.43-3.73,73.66,73.66,0,0,0-26-6.2,2.78,2.78,0,0,0-2,.71,2.85,2.85,0,0,0-.93,2l-.44,8.47a2.82,2.82,0,0,0,2.67,3l3,.15,3.17.49c.4.07.81.13,1.22.18.61.09,1.22.18,1.76.3l.39.1-.74,2.77a57.48,57.48,0,0,0-15-1.21L86.21,60.79a2.79,2.79,0,0,0-1-1.91,2.82,2.82,0,0,0-2.07-.61,72.73,72.73,0,0,0-25.68,7.65,2.82,2.82,0,0,0-1.23,3.8l3.86,7.55a2.82,2.82,0,0,0,3.7,1.28c.57-.26,1.13-.54,1.69-.82a30.49,30.49,0,0,1,4-1.73l.73-.27c.85-.31,1.67-.62,2.49-.9l.73,2.74c-.7.23-1.37.49-2,.73l-.67.26a26.22,26.22,0,0,0-4,1.7l-1.7.83-4.79,2.75L59.9,84,51.57,72.57a2.82,2.82,0,0,0-4-.62A73.57,73.57,0,0,0,29.19,91.33,2.81,2.81,0,0,0,30,95.24l7.11,4.63a2.84,2.84,0,0,0,3.95-.9,33.48,33.48,0,0,1,2.25-3.16c.49-.64,1-1.29,1.33-1.78.72-.88,1.48-1.72,2.25-2.56l2,2a56.09,56.09,0,0,0-8.49,12.38l-13-5.78a2.84,2.84,0,0,0-3.74,1.43,74.2,74.2,0,0,0-6.2,26.05,2.82,2.82,0,0,0,2.68,3l8.47.44a2.85,2.85,0,0,0,2-.72,2.79,2.79,0,0,0,.92-1.95l.15-3,.48-3.17c.08-.41.13-.82.19-1.23.09-.61.18-1.22.3-1.75l.1-.39,2.77.74a57.37,57.37,0,0,0-1.22,15L20.22,135.9A2.82,2.82,0,0,0,17.71,139a73.7,73.7,0,0,0,7.65,25.68,2.8,2.8,0,0,0,1.64,1.4,2.85,2.85,0,0,0,2.16-.17l7.55-3.86a2.82,2.82,0,0,0,1.27-3.7c-.26-.57-.53-1.12-.8-1.67a30.3,30.3,0,0,1-1.75-4.06l-.27-.75c-.32-.84-.62-1.66-.89-2.47l2.77-.74a55.62,55.62,0,0,0,6.45,13.52L32,170.55a2.81,2.81,0,0,0-.62,3.94,73.26,73.26,0,0,0,19.38,18.43,2.82,2.82,0,0,0,3.91-.82L59.3,185a2.82,2.82,0,0,0-.89-4,37.82,37.82,0,0,1-3.17-2.26c-.64-.49-1.28-1-1.77-1.32-.88-.73-1.72-1.49-2.56-2.26l2-2c.75.7,1.53,1.39,2.47,2.17.55.38,1.09.79,1.62,1.21a36.32,36.32,0,0,0,3.15,2.21l5.05,2.9.06,0-5.79,13a2.82,2.82,0,0,0,1.43,3.73,73.71,73.71,0,0,0,26,6.2h.15A2.84,2.84,0,0,0,89.91,202l.44-8.47a2.83,2.83,0,0,0-2.67-3l-3-.15-3.17-.48-1.22-.19c-.62-.08-1.23-.17-1.76-.29l-.39-.1.74-2.77a57.84,57.84,0,0,0,15,1.21l1.46,14.14a2.83,2.83,0,0,0,3.11,2.52,72.8,72.8,0,0,0,25.68-7.65,2.82,2.82,0,0,0,1.23-3.8l-3.86-7.55a2.82,2.82,0,0,0-3.7-1.28c-.57.26-1.13.54-1.7.81a29.45,29.45,0,0,1-4,1.74l-.72.27c-.85.31-1.67.62-2.49.89l-.74-2.77a55.8,55.8,0,0,0,13.52-6.45L130,190.1a2.83,2.83,0,0,0,3.94.63,73.41,73.41,0,0,0,18.43-19.38,2.84,2.84,0,0,0-.82-3.92l-7.11-4.62a2.81,2.81,0,0,0-2.17-.39,2.87,2.87,0,0,0-1.79,1.29,34.82,34.82,0,0,1-2.25,3.16c-.49.64-1,1.28-1.32,1.78-.73.88-1.49,1.72-2.26,2.56l-1.95-2a56,56,0,0,0,8.48-12.38l13,5.78a2.83,2.83,0,0,0,3.73-1.44,73.66,73.66,0,0,0,6.2-26,2.82,2.82,0,0,0-2.68-3l-8.46-.44a2.85,2.85,0,0,0-3,2.67l-.15,3-.48,3.17c-.07.41-.13.82-.19,1.23-.09.61-.17,1.22-.29,1.75l-.1.39-2.73-.73,0-.07c.15-.66.25-1.33.34-2,.05-.31.09-.63.15-1l.43-2.77a2.89,2.89,0,0,0,0-.29l.14-3v-5.9l14.2-1.47a2.82,2.82,0,0,0,1.9-1,2.86,2.86,0,0,0,.62-2.07A73.84,73.84,0,0,0,156.2,98a2.83,2.83,0,0,0-3.8-1.23l-7.55,3.86a2.81,2.81,0,0,0-1.28,3.7c.26.56.53,1.12.8,1.67a29.06,29.06,0,0,1,1.75,4.06l.27.75c.32.84.62,1.66.89,2.47l-2.77.74a55.45,55.45,0,0,0-6.45-13.52l11.48-8.36a2.82,2.82,0,0,0,.62-3.95A73.34,73.34,0,0,0,130.79,69.76Zm1.72,27.78a2.82,2.82,0,0,0-.63,3.94,50.27,50.27,0,0,1,8,16.7,2.84,2.84,0,0,0,3.46,2L151.5,118a2.83,2.83,0,0,0,2-3.32,41.26,41.26,0,0,0-1.85-5.84l-.22-.6a29.28,29.28,0,0,0-1.59-3.84l2.52-1.28a68,68,0,0,1,5.47,18.34l-14,1.45a2.83,2.83,0,0,0-2.53,3l.14,2.74V134l-.14,2.67-.41,2.59c-.06.37-.11.74-.17,1.11a13,13,0,0,1-.23,1.43l-.7,2.72a2.82,2.82,0,0,0,2,3.44l8.19,2.19a2.82,2.82,0,0,0,3.47-2l.83-3.22c.17-.76.29-1.52.4-2.29,0-.36.1-.72.17-1.13l.52-3.49,0-.43,2.77.14a68.19,68.19,0,0,1-4.42,18.61L141,150.58a2.79,2.79,0,0,0-2.16-.06,2.83,2.83,0,0,0-1.57,1.49,50.71,50.71,0,0,1-10.48,15.3,2.82,2.82,0,0,0,0,4l6,6a2.79,2.79,0,0,0,2.08.82,2.82,2.82,0,0,0,2-.94l1.53-1.69c1-1.06,2-2.13,3-3.4.43-.6.88-1.2,1.33-1.79.32-.41.64-.82.95-1.25L146,170.6a67.84,67.84,0,0,1-13.17,13.85l-8.28-11.38a2.82,2.82,0,0,0-4-.62,50.39,50.39,0,0,1-16.69,8,2.84,2.84,0,0,0-2,3.46l2.2,8.19a2.82,2.82,0,0,0,3.32,2,43.3,43.3,0,0,0,5.86-1.85l.58-.22a28.59,28.59,0,0,0,3.83-1.59L119,193a68.1,68.1,0,0,1-18.35,5.47l-1.45-14a2.78,2.78,0,0,0-1-1.9,2.82,2.82,0,0,0-2.07-.62,51.81,51.81,0,0,1-18.51-1.51,2.84,2.84,0,0,0-3.46,2L72,190.6a2.82,2.82,0,0,0,2,3.47l3.21.83c.76.17,1.53.29,2.3.4l1.12.17,3.49.52.44,0-.15,2.78a68.5,68.5,0,0,1-18.6-4.43l5.73-12.85a2.82,2.82,0,0,0-1.36-3.69l-2.34-1.13L63,173.93a29.25,29.25,0,0,1-2.57-1.84c-.61-.46-1.2-.92-1.64-1.21-.82-.68-1.6-1.39-2.38-2.11-.58-.53-1.16-1.07-1.76-1.59a2.83,2.83,0,0,0-3.86.13l-6,6a2.85,2.85,0,0,0-.83,2.08,2.81,2.81,0,0,0,.95,2l1.66,1.51c1.07,1,2.15,2,3.42,3,.61.43,1.2.88,1.78,1.33l1.26.95-1.54,2.38a67.63,67.63,0,0,1-13.85-13.18l11.38-8.28a2.81,2.81,0,0,0,.62-3.94,50.66,50.66,0,0,1-8-16.7,2.83,2.83,0,0,0-3.45-2l-8.2,2.19A2.83,2.83,0,0,0,28,148a42.55,42.55,0,0,0,1.84,5.84l.23.6a29.23,29.23,0,0,0,1.58,3.84l-2.51,1.28a68.3,68.3,0,0,1-5.48-18.34l14-1.46a2.81,2.81,0,0,0,2.52-3.08,52,52,0,0,1,1.51-18.51,2.77,2.77,0,0,0-.28-2.14,2.82,2.82,0,0,0-1.72-1.32l-8.19-2.19a2.84,2.84,0,0,0-3.47,2l-.82,3.22c-.18.75-.29,1.52-.4,2.29-.05.36-.1.72-.17,1.13l-.52,3.49,0,.43L23.33,125a68.93,68.93,0,0,1,4.42-18.61L40.6,112.1a2.82,2.82,0,0,0,2.17.06,2.85,2.85,0,0,0,1.57-1.5A50.63,50.63,0,0,1,54.81,95.37a2.82,2.82,0,0,0,0-4l-6-6a2.84,2.84,0,0,0-2.08-.83,2.87,2.87,0,0,0-2,1c-.5.57-1,1.13-1.53,1.69-1,1.06-2,2.13-3,3.4-.43.6-.89,1.19-1.34,1.78l-1,1.26-2.37-1.55A67.84,67.84,0,0,1,48.69,78.23L57,89.61a2.81,2.81,0,0,0,1.84,1.13,2.87,2.87,0,0,0,2.11-.51l.65-.5a11,11,0,0,1,1.39-1l4.62-2.67c.55-.25,1.09-.52,1.62-.78a23.56,23.56,0,0,1,3.31-1.42l.85-.31a29,29,0,0,1,4.09-1.3,2.83,2.83,0,0,0,2.16-3.49l-2.19-8.2a2.83,2.83,0,0,0-3.32-2,41.11,41.11,0,0,0-5.86,1.85l-.59.22a29.72,29.72,0,0,0-3.83,1.59l-1.29-2.52a68.1,68.1,0,0,1,18.35-5.47l1.45,14a2.81,2.81,0,0,0,3.08,2.52,52,52,0,0,1,18.51,1.51,2.83,2.83,0,0,0,3.46-2l2.19-8.2a2.82,2.82,0,0,0-2-3.46l-3.22-.83c-.76-.17-1.52-.29-2.29-.4l-1.13-.17-3.49-.52-.44,0,.15-2.78a68.42,68.42,0,0,1,18.6,4.43L110,81.16a2.82,2.82,0,0,0,1.44,3.74,50.61,50.61,0,0,1,15.29,10.48,2.83,2.83,0,0,0,4,0l6-6a2.84,2.84,0,0,0-.12-4.11L135,83.76c-1.08-1-2.15-2-3.43-3-.6-.43-1.19-.88-1.78-1.33-.41-.32-.83-.64-1.26-1L130,76.08a68.15,68.15,0,0,1,13.85,13.18Z"/><path class="cls-2" d="M90.78,86.12a45.12,45.12,0,0,0-39,68,2.75,2.75,0,0,0,.17.29A45.53,45.53,0,0,0,63.49,167.3c.07.06.11.13.19.17l.06,0a44.87,44.87,0,0,0,54.06,0s0,0,.07,0,.13-.12.2-.17a45.49,45.49,0,0,0,11.52-12.89,1.75,1.75,0,0,0,.18-.29,45.13,45.13,0,0,0-39-68Zm-5.1,6L54.32,146.69A39.52,39.52,0,0,1,85.68,92.14ZM68.81,164.22l22-38.18,22,38.18a39.44,39.44,0,0,1-43.93,0Zm48.41-3.54L94.45,121.09a4.25,4.25,0,0,0-7.35,0L64.33,160.68a40.07,40.07,0,0,1-6.88-8.1l33.33-58,6.46,11.21a2,2,0,0,0,.13.25l26.73,46.51a39.75,39.75,0,0,1-6.88,8.1Zm10-14L102.4,103.48l-.13-.26L95.88,92.15a39.52,39.52,0,0,1,31.36,54.54Z"/><g class="cls-5"><path class="cls-6" d="M79.77,71.84l3.84,14.74s.6,3.64-.71,5-7.47,8.28-7.47,8.28L72,106.58l19.9,11.31,23.73-6.37-.71-16.66s-12.15-.77-19.24-6.09c-1.39-1-2.57-13.2-2.57-13.2Z"/><path class="cls-7" d="M93.75,80.93c-.37-2.71-.68-5.45-.68-5.45L79.74,71.74l1.07,4.1s4.17,2.72,5.47,3.29A25.37,25.37,0,0,0,93.75,80.93Z"/><path class="cls-6" d="M68.71,103.63S59.2,109,58.33,109.87s-7.67,7-7.67,7l-.26,22.08-8.83-21-7.67,3.39L44.82,154l6,9.31L55.37,165l6.68-30.89,9.64,6,11.81-8.64L75,110.41l-3.63-7.94Z"/><path class="cls-6" d="M33.57,121.18A10.38,10.38,0,0,1,29,117.39a37.79,37.79,0,0,1-4.75.24.78.78,0,0,1-.43-.09.85.85,0,0,1-.25-.53,46.64,46.64,0,0,0-2.45-8.6,1.47,1.47,0,0,1-.14-.76c.1-.46.64-.68,1.11-.72a2.76,2.76,0,0,0,1.38-.28c.52-.35.68-1.16,1.28-1.35s1,.17,1.49,0,.6-.83.93-1.23a3.29,3.29,0,0,1,2.05-.82,14.56,14.56,0,0,0,3.61-1.44c.09-.05.18-.1.21-.19a.45.45,0,0,0,0-.2c-.56-2.59-1.73-5.17-2.28-7.75a58.18,58.18,0,0,1-.94-7.41,4,4,0,0,1,2.05-2.49.9.9,0,0,1,.76-.1,1,1,0,0,1,.45.8c.63,2.88,2.32,10.19,3,13.08.39,1.84,3.72,6.43,4.43,7s.81,1.22,1.62,1.83a1.79,1.79,0,0,1,.56.57,1.9,1.9,0,0,1,.15.82L43,112.6c0,1.9,0,4-1.33,5.37Z"/><path class="cls-7" d="M40.21,104.09c-1-.27-1.94-.9-3-.72a6.86,6.86,0,0,0-2.44,1.27c-2.15,1.47-3.69,3.71-6,4.94a1,1,0,0,0-.19,1.49c1.32,1.28,3.23,2.79,5.19,2.35a6,6,0,0,0,4-3.79l-1.39.57a7.81,7.81,0,0,0,2,1.06c1.15.44,1.62-1.38.5-1.83-3.73-1.51-5.28,3.37-4,6,.52,1.1,2.16.14,1.64-1s-.26-4.12,1.87-3.26l.5-1.83a4.38,4.38,0,0,1-1.51-.87c-.54-.4-1.2.06-1.4.57-1.13,3-4.18,2.44-6.07.59l-.19,1.49a19.2,19.2,0,0,0,4.15-3.43,15.54,15.54,0,0,1,2.4-1.86c1.14-.71,2.2-.33,3.43,0a1,1,0,0,0,.5-1.83Z"/><path class="cls-7" d="M32.65,107.71l-.43-2.21-1.83.51a2.53,2.53,0,0,0,1.39,1.71,1,1,0,0,0,1.3-.34,1,1,0,0,0-.34-1.3.77.77,0,0,1-.52-.58.95.95,0,0,0-1.83.51l.43,2.2a1,1,0,0,0,1.17.67,1,1,0,0,0,.66-1.17Z"/><path class="cls-6" d="M71.93,65.71s7.71,13.73,30.73,13.73c9.52,0,13.06-2.22,13.6-5.31,3.37-19.43-3.81-44-13.77-51.51-8.74-6.57-39.72,18.32-39.72,18.32l6.6,14.81s-6.74-7.27-9.43-3.23S65.8,65.11,65.8,65.11,69.64,68,71.93,65.71Z"/><path class="cls-6" d="M117.93,96.85c2.29-1.21,4.35,1.64,4.35,1.64l23.23,40.67-20,36s6.73,11.31,3.36,16.42l4.65,4.65s.74,2.49-2.63,2.49-11.31-5.93-11.31-5.93l.92-25.36,15-27L121.68,120l-4.3-3.81S113.67,99.11,117.93,96.85Z"/><path class="cls-6" d="M93.81,210.68,74.35,259.46s-2.51,9.24-5.49,12.22A131.27,131.27,0,0,1,61.49,293c-5.05,11.31-7.27,26.86-7.27,26.86s4.59,11.67,4,16.92c0,0,4.39,6.06,2.62,9.54s-8.68,1.41-8.68,1.41-11.56,1.52-13.28-1.36,2.17-10.6,2.17-10.6-.55-6.16,1.47-7.58A25,25,0,0,0,47,323.34s-.76-2,1.36-4.75,5.25-20.21,5.25-22.5S50.79,276.7,60.21,270c0,0,2.29-46.46,8.75-52.92s24.85-10.3,24.85-10.3Z"/><path class="cls-8" d="M93.81,210.68l-6.23,15.59s-8.6,3.85-10.78,4.38c-1.62.4-13.14,4-12.75,1.64,1.21-7.26,2.88-13.21,4.91-15.24,6.47-6.46,24.85-10.3,24.85-10.3Z"/><path class="cls-6" d="M100.74,203.45S117,265,118.24,267.81s-5.15,8.32,6,47.3c0,0-.71,5.15-1.72,7s-3.33,6.47-.4,8.08,12.42,9.7,16.46,10.4,11.61-2.82,11.61-2.82,4-1.52,2.78-2.78c0,0-3.69-.15-4.9-1.36s-14.94-12-14.94-12-4.24-5.45-4.24-5.82-3-48.31-3-48.31,1.11-3,0-9.19-.58-45-.58-45Z"/><path class="cls-8" d="M100.74,203.45s3.83,14.43,5,18.69c.44,1.64,19.43,3,19.43,3l.1-11.82Z"/><path class="cls-9" d="M100.74,215.64c3.15,6.24,25.3,7.56,27.13,8.14,0,0,.58-25.08-3-39.17S100.74,215.64,100.74,215.64Z"/><path class="cls-10" d="M73.81,60.19c3.91,1.62.54-5.39.54-5.39s-.37-7-2.36-8.21a28.53,28.53,0,0,1-4.33-3.54l37.25-25.54s3.77-5.25-4.84-8.48a10.26,10.26,0,0,0-10.44-3.1s-3.77-4.51-9.22-.37c0,0-11-.64-13.47,4.75a4.1,4.1,0,0,0-4,2.28s-2.28.88-2.72,2.73c0,0-5.56,2.19-5.89,5.89,0,0-3,4.24-.61,7.68,0,0-1.6,3,.47,5.08,0,0-4.64,5.08,0,8.25,0,0-1.14,3.29,5.66,4.64l2,4.17s1.94-.88,7.54,4.72Z"/><path class="cls-7" d="M100.94,60.75a1.5,1.5,0,0,1,0-3c1.38,0,5.22-1.16,8-2.09-.88-6.8-5.24-11.89-7.85-14.39a1.5,1.5,0,1,1,2.07-2.16c3.07,2.93,8.3,9.1,8.89,17.48l.08,1.13L111,58.1C110.25,58.37,103.55,60.75,100.94,60.75Z"/><ellipse class="cls-11" cx="88.93" cy="45.69" rx="1.81" ry="2.47" transform="translate(-8.45 23.05) rotate(-14.1)"/><path class="cls-11" d="M86.15,45.4h-.07a1.5,1.5,0,0,1-1.43-1.56c0-.37.22-3.62,2.6-4.91,1.55-.83,3.46-.58,5.69.76a1.5,1.5,0,0,1-1.53,2.57c-1.21-.72-2.2-1-2.73-.69-.71.38-1,1.78-1,2.4A1.51,1.51,0,0,1,86.15,45.4Z"/><ellipse class="cls-11" cx="105.72" cy="40.62" rx="1.81" ry="2.47" transform="translate(-6.71 26.99) rotate(-14.1)"/><path class="cls-11" d="M102.47,40a1.39,1.39,0,0,1-.4-.06,1.49,1.49,0,0,1-1-1.84c.1-.35,1-3.48,3.64-4.2,1.68-.46,3.5.21,5.38,2A1.5,1.5,0,0,1,108,38.09c-1-1-1.92-1.44-2.5-1.29-.77.21-1.38,1.52-1.55,2.11A1.5,1.5,0,0,1,102.47,40Z"/><path class="cls-12" d="M93.06,62.94c-.22-.23,13.34.85,18.52-3,0,0,1,10.32-3.6,11.45S97.73,70.69,93.06,62.94Z"/><g class="cls-13"><path class="cls-14" d="M92.18,64.57s12.68,3.62,18.32-2L109.79,60,91.2,61.23Z"/><path class="cls-15" d="M94.41,69.21S98.48,65.27,105,67.9s0,7.37,0,7.37Z"/></g><path class="cls-7" d="M105.19,72.81c-7.76,0-12.94-9.28-13-9.39l-.86-1.57,1.79.09c.12,0,12.51.61,17.93-2.8a1,1,0,0,1,1.37.31,1,1,0,0,1-.31,1.38C107.46,63.76,98.76,64,94.91,64c2,3,7.16,8.91,13.69,6.07a1,1,0,1,1,.8,1.83A10.49,10.49,0,0,1,105.19,72.81Z"/><path class="cls-7" d="M69.06,64.16s-.2-8.83-7-10.95"/><path class="cls-7" d="M62.05,134.15s5.83-7.81,5.06-6.62c-4.26,6.6,10.92,14.22,14.48,10.15a9.11,9.11,0,0,1-9.9,2.51Z"/><path class="cls-16" d="M75.43,99.81S69,102.19,66,105.2c0,0,18.13,26.3,5.74,35,0,0,11.41,21.79,10.2,26.24s-21.49,61-21.49,61,62.61-1.11,64.84-42l-3-23.56A196.45,196.45,0,0,0,124,138c.13-11.5-1.13-24.71-2-33.73a14.56,14.56,0,0,0-4.25-9.16l-5.89-.55s4.65,15.6-6.12,17.08C99.91,112.38,85.93,114.26,75.43,99.81Z"/><g class="cls-17"><path class="cls-18" d="M62.74,229s62.61-1.11,64.84-42Z"/></g><path class="cls-16" d="M75.43,99.81S69,102.19,66,105.2c0,0,18.13,26.3,5.74,35,0,0,11.41,21.79,10.2,26.24s-21.49,61-21.49,61,62.61-1.11,64.84-42l-3-23.56A196.45,196.45,0,0,0,124,138c.13-11.5-1.13-24.71-2-33.73a14.56,14.56,0,0,0-4.25-9.16l-5.89-.55s4.65,15.6-6.12,17.08C99.91,112.38,85.93,114.26,75.43,99.81Z"/><path class="cls-19" d="M80.5,171s33,4.4,42.17-6.1c0,0,1-2.08-.39-3.05.2,1.94-15.5,10.39-40.39,5.05A2.7,2.7,0,0,0,80.5,171Z"/><circle class="cls-20" cx="107.92" cy="169.41" r="7.7"/><g class="cls-21"><path class="cls-22" d="M71.36,20.47s-3.31,4,.89,6.68c1.46.94-4.35,5.46-4.35,5.46L65.56,45.78a17.66,17.66,0,0,1,5-1.21L81.23,56.74,74.42,61,52.67,46.34l-14.47-28L56.85,1.45,77.24-3.29l-3.58,7.1S65,9.1,68.31,12.91C66.24,14.37,65.83,20.08,71.36,20.47Z"/></g><path class="cls-23" d="M61.93,51S58,49.28,58,46.05s15.22-33.79,47-28.54c0,0,4.92,3.43,3.24,5.11,0,0,3,3.77.6,5.79S94.65,27.47,61.93,51Z"/><path class="cls-24" d="M63.64,43.9S84,19.12,105.72,22.36C105.72,22.36,85.46,23.44,63.64,43.9Z"/><path class="cls-25" d="M108.77,176a7.62,7.62,0,0,1-5.64-2.2c-1.52-1.69-1.95-4.13-1.27-7.25a1.5,1.5,0,1,1,2.93.63c-.46,2.13-.27,3.68.56,4.61,1.26,1.42,3.76,1.2,3.78,1.2a1.5,1.5,0,0,1,.31,3S109.15,176,108.77,176Z"/><path class="cls-26" d="M112.57,173.41a1.84,1.84,0,0,1-.33,0,1.51,1.51,0,0,1-1.14-1.79c.48-2.12.3-3.68-.53-4.62-1.25-1.42-3.75-1.22-3.77-1.22a1.5,1.5,0,0,1-.29-3c.16,0,4-.37,6.3,2.2,1.5,1.7,1.92,4.15,1.22,7.27A1.49,1.49,0,0,1,112.57,173.41Z"/><path class="cls-7" d="M29.37,117.94a2.1,2.1,0,0,0,0-3.59c-.86-.64-2,.79-1.15,1.49a3.83,3.83,0,0,0,3.18,1.3A2.64,2.64,0,0,0,33.51,115l-1.39.57a3,3,0,0,0,3.09.09c1.09-.55.13-2.18-1-1.64a1,1,0,0,1-1.17-.09,1,1,0,0,0-1.4.57c-.26,1.34-1.46.51-2.08,0L28.45,116l0,.32c-1,.69-.05,2.33,1,1.63Z"/><path class="cls-7" d="M24,105.78q.66,3.09,1.47,6.13a1,1,0,0,0,1.83-.5c-.54-2-1-4.08-1.47-6.13-.26-1.19-2.09-.69-1.83.5Z"/><path class="cls-7" d="M49.35,138.67a18.88,18.88,0,0,1,2.15,7.46c.1,1.21,2,1.22,1.9,0A21.55,21.55,0,0,0,51,137.71c-.57-1.08-2.21-.13-1.64,1Z"/><path class="cls-27" d="M85,3.81a6.5,6.5,0,0,1,4.64,2.12,11.14,11.14,0,0,1,2.81-.37A10.25,10.25,0,0,1,100.07,9c8.37,3.14,5.05,8.18,4.85,8.46l.09,0s4.92,3.43,3.24,5.11c0,0,3,3.77.6,5.79a2.49,2.49,0,0,1-.88.44c6.89,10.73,11,29.66,8.29,45.28-.54,3.09-4.07,5.31-13.59,5.31h0a50.5,50.5,0,0,1-9.21-.81c.09.72.19,1.51.3,2.3h0c.48,3.4,1.17,7.27,1.93,7.84,4.86,3.64,12.1,5.15,16.17,5.74l5.89.55A15.14,15.14,0,0,1,119,96.55h.06c1.78,0,3.18,1.94,3.18,1.94l23.23,40.67-20,36s6.73,11.31,3.36,16.42l4.65,4.65s.74,2.49-2.63,2.49a10.1,10.1,0,0,1-3.9-1.27,255,255,0,0,1,.93,26.35,26.31,26.31,0,0,0-2.71-.4l0,1.72h0c-.07,12,0,29.22.68,33.15,1.11,6.16,0,9.19,0,9.19s3,47.94,3,48.31,4.24,5.82,4.24,5.82,5.61,4.41,10,7.91h0a12.65,12.65,0,0,1,3.65,1.55,3.62,3.62,0,0,1,1.11,2.29l1.32.92a14.31,14.31,0,0,0,3.79.71c.6.6,0,1.25-.78,1.78.43.46.7.87.62,1.13-.28,1.05-4.34,5.33-11.69,5.33-.41,0-.83,0-1.27,0-7.7-.51-18.39-8.72-19.27-11a6.75,6.75,0,0,1,.12-4.61,12.89,12.89,0,0,1,1.82-5.46c1-1.81,1.72-7,1.72-7-11.11-39-4.75-44.47-6-47.3-.81-1.9-8.47-30.43-13.38-48.86a12.34,12.34,0,0,1-2.53-1.5A79.94,79.94,0,0,1,89,222.74l-1.4,3.53L74.35,259.46s-2.51,9.24-5.49,12.22A131.27,131.27,0,0,1,61.49,293c-5.05,11.31-7.27,26.86-7.27,26.86s3.62,9.19,4,14.93c4.26,5.82,8.08,13,3,15.13a29.17,29.17,0,0,1-11,1.94c-6.11,0-11.59-1.43-12.87-2.71-2.05-2.05,3.78-17.6,3.78-17.6.18-1.42.57-2.78,1.4-3.36A25,25,0,0,0,47,323.34s-.76-2,1.36-4.75,5.25-20.21,5.25-22.5S50.79,276.7,60.21,270c0,0,1.08-21.87,3.84-37.68h0c.3-1.8.63-3.51,1-5.11-2.89.24-4.63.27-4.63.27s15.13-42.22,20-56.58a2.66,2.66,0,0,1,1.3-3.91c.07-.22.12-.4.16-.53,1.21-4.45-10.2-26.24-10.2-26.24l-9.63-6L55.37,165l-4.54-1.71-6-9.31L33.9,121.28l-.33-.1A10.38,10.38,0,0,1,29,117.39a38.06,38.06,0,0,1-4.27.24h-.48a.78.78,0,0,1-.43-.09.85.85,0,0,1-.25-.53,46.64,46.64,0,0,0-2.45-8.6,1.47,1.47,0,0,1-.14-.76c.1-.46.64-.68,1.11-.72a2.76,2.76,0,0,0,1.38-.28c.52-.35.68-1.16,1.28-1.35a.94.94,0,0,1,.3,0c.27,0,.56.09.84.09a1,1,0,0,0,.35-.06c.48-.2.6-.83.93-1.23a3.29,3.29,0,0,1,2.05-.82,14.56,14.56,0,0,0,3.61-1.44c.09-.05.18-.1.21-.19a.45.45,0,0,0,0-.2c-.56-2.59-1.73-5.17-2.28-7.75a58.18,58.18,0,0,1-.94-7.41,4,4,0,0,1,2.05-2.49,1.2,1.2,0,0,1,.52-.15.69.69,0,0,1,.24.05,1,1,0,0,1,.45.8c.63,2.88,2.32,10.19,3,13.08.39,1.84,3.72,6.43,4.43,7s.81,1.22,1.62,1.83a1.79,1.79,0,0,1,.56.57,1.9,1.9,0,0,1,.15.82L43,112.6c0,1.9,0,4-1.33,5.37h0l8.73,20.8-.17-.58.23.45.26-21.8s6.79-6.09,7.67-7c.56-.56,4.74-3,7.62-4.67h0c3-3,9.48-5.39,9.48-5.39s6.16-7,7.47-8.28.71-5,.71-5l-3.38-13a25.39,25.39,0,0,1-8.3-7.91,3,3,0,0,1-2.2.88,7.76,7.76,0,0,1-3.93-1.48s-8.55-8.55-5.86-12.59a2.55,2.55,0,0,1,2.22-1.23c1.76,0,3.86,1.46,5.34,2.7-3-2.65-4.66-3-5.31-3L62,51l0,0,0,0-.06,0,0-.06c-.64-.32-3.5-1.89-3.75-4.55-4.83-1.51-3.9-4.2-3.9-4.2-4.64-3.17,0-8.25,0-8.25-2.07-2.07-.47-5.08-.47-5.08-2.42-3.44.61-7.68.61-7.68.33-3.7,5.89-5.89,5.89-5.89.44-1.85,2.72-2.73,2.72-2.73a4,4,0,0,1,3.73-2.3,1.92,1.92,0,0,1,.31,0C69,6,76.51,5.54,79.33,5.54c.67,0,1.08,0,1.08,0A7.54,7.54,0,0,1,85,3.81m38,159.08,12.47-22.47L123.58,122.8c.31,5.06.51,10.26.45,15.15a196.45,196.45,0,0,1-1.75,23.9,1.63,1.63,0,0,1,.68,1m24.56,170.23h0M85,0h0a10.73,10.73,0,0,0-5.72,1.72c-4.14,0-11,.72-14.51,5a7.69,7.69,0,0,0-4.52,3,8.41,8.41,0,0,0-2.94,2.79c-2.12,1.11-5.73,3.51-6.62,7.33-1.31,2.22-2.49,5.88-1.12,9.37a8.37,8.37,0,0,0,.11,4.59,9.75,9.75,0,0,0-1.32,5.82A7.59,7.59,0,0,0,50.41,44,6.45,6.45,0,0,0,51,45.61a8.27,8.27,0,0,0,4,3.65,8.85,8.85,0,0,0,1.33,2.1c-1.37,3-.54,6.68,2.48,11.1a40.25,40.25,0,0,0,4.39,5.33l.18.19.21.15a11.29,11.29,0,0,0,6.22,2.26,6.4,6.4,0,0,0,.88-.06A32,32,0,0,0,76.93,76l2.95,11.35a8.05,8.05,0,0,1,0,1.82c-1.46,1.53-5.19,5.72-6.72,7.45-2,.81-6.63,2.85-9.54,5.54-7,4-7.58,4.62-8,5-.58.59-4.92,4.5-7.51,6.83l-1.25,1.11v1.67l0,3.79-.94-2.24a13.38,13.38,0,0,0,.87-5.85l-.13-4.88a5.49,5.49,0,0,0-.58-2.49,5.35,5.35,0,0,0-1.52-1.74l0-.07A7.06,7.06,0,0,0,43,101.61a24.9,24.9,0,0,1-3.21-4.93c-.31-1.47-.9-4.05-1.47-6.54s-1.15-5.07-1.46-6.49a4.62,4.62,0,0,0-2.56-3.44,4.32,4.32,0,0,0-1.84-.4,4.86,4.86,0,0,0-2.35.62,7.54,7.54,0,0,0-4,5.4c-.21,2,1,8.55,1,8.61a38.82,38.82,0,0,0,1.25,4.28c.08.26.17.52.25.77l-.09,0-.24,0a6.33,6.33,0,0,0-3.88,2,4.94,4.94,0,0,0-.76.18,4.61,4.61,0,0,0-2.2,1.51,4.76,4.76,0,0,0-4.11,3.66,5,5,0,0,0,.32,2.93,42.63,42.63,0,0,1,2.25,7.9,4.3,4.3,0,0,0,4.36,3.73h.53q1.29,0,2.58-.09a14.2,14.2,0,0,0,3.47,2.71l10.4,31.17.16.45.25.41,6,9.31.68,1.05,1.17.44L54,168.59l4.12,1.56.93-4.3,5.54-25.62,4.17,2.62c.87,1.69,2.82,5.55,4.72,9.74,3.47,7.65,4.37,11,4.6,12.33a6.42,6.42,0,0,0-1.54,2.39,6.23,6.23,0,0,0-.15,3.57C71.19,186.1,57,225.76,56.83,226.17L55,231.35l5.4-.1-.06.32-.11.55v.08c-2.29,13.41-3.4,30.47-3.71,35.88-8.4,7.59-7.19,22-6.78,26.87,0,.44.09,1,.09,1.15-.07,2.51-3.06,17.84-4.49,20.21a9.89,9.89,0,0,0-2.26,5.94,16.06,16.06,0,0,1-2.69,2.82c-1.56,1.09-2.51,2.91-2.92,5.53-.41,1.13-1.6,4.46-2.62,8-2.22,7.68-2.25,11.15-.14,13.27,2.63,2.62,9.9,3.82,15.55,3.82a32.78,32.78,0,0,0,12.48-2.24,7.41,7.41,0,0,0,4.45-4.89c1-3.77-.61-8.6-5.24-15.14a72.4,72.4,0,0,0-3.82-13.94c.57-3.47,2.76-15.77,6.84-24.9a138.29,138.29,0,0,0,7.37-21.06c3-3.75,5.08-10.85,5.62-12.81l13.16-33,.74-1.86a84.14,84.14,0,0,0,9.89-3.85c10.42,39.07,12.34,45.48,12.86,46.93,0,.28-.11.75-.18,1.14-.77,4.6-2.56,15.32,5.91,45.32a24.84,24.84,0,0,1-1.16,4.87,16.31,16.31,0,0,0-2.29,6.62,10.44,10.44,0,0,0,.12,6.64c1.18,3.1,6.86,6.92,8.57,8,2.92,1.87,8.63,5.07,14,5.42.5,0,1,.05,1.51.05,8.75,0,14.56-5.2,15.35-8.12a3.93,3.93,0,0,0,.13-1.52,4.4,4.4,0,0,0,.39-1.43,4.5,4.5,0,0,0-1.34-3.64l-1-1-1.48-.06a12.61,12.61,0,0,1-2-.28,6.68,6.68,0,0,0-1.95-2.76,13.15,13.15,0,0,0-4.31-2.08c-3.58-2.86-7.79-6.18-9-7.16-1.22-1.58-2.57-3.37-3.22-4.3-.17-2.78-.77-12.44-2.94-46.74a25.11,25.11,0,0,0-.09-10.26c-.22-1.24-.72-6.59-.63-29.49l2.63.84.11-5.06c0-.48.23-10.43-.5-21.38a6.25,6.25,0,0,0,5.08-2.37,5.78,5.78,0,0,0,.87-5l-.28-.93-.68-.68-2.9-2.89c1.22-5.36-1.66-12-3.45-15.49l19-34.13,1.05-1.87-1.07-1.86L125.57,96.61l-.1-.17-.11-.17a9.15,9.15,0,0,0-4.29-3.21c-.21-.23-.43-.45-.65-.68l-1-1-1.37-.12-5.79-.55c-3.42-.5-9.52-1.74-13.7-4.55A27.06,27.06,0,0,1,97.91,83c1.55.13,3.14.2,4.75.2,3.93,0,15.87,0,17.34-8.46,2.51-14.49-.51-32.91-7.21-45.23,1.33-2.32.89-5.14-.4-7.53a5.2,5.2,0,0,0,0-.68,8.6,8.6,0,0,0-3-5.14,8.17,8.17,0,0,0-.25-3.8c-.88-2.81-3.2-5-6.9-6.58a14,14,0,0,0-9.82-4.06,14.32,14.32,0,0,0-1.72.11A10,10,0,0,0,85,0Zm42.53,146.83c.16-2.75.27-5.74.31-8.86,0-.67,0-1.36,0-2.06l3.14,4.68-3.46,6.24Z"/><polyline class="cls-6" points="33.57 121.18 34.09 121.48 42.13 118.22"/></g><g class="cls-28"><path class="cls-19" d="M121.66,36.4a6.83,6.83,0,0,0-.12,4.61c.88,2.29,11.57,10.51,19.27,11,8.15.53,12.66-4.17,13-5.28S148.52,42,148.52,42Z"/><path class="cls-19" d="M42.16,40.41S36.33,56,38.38,58s14.95,4.5,23.89.77-9.75-23.23-9.75-23.23Z"/><path class="cls-6" d="M94.81-80.45,75.35-31.66s-2.51,9.24-5.49,12.22A131.27,131.27,0,0,1,62.49,1.87c-5.05,11.31-7.27,26.86-7.27,26.86s4.59,11.66,4,16.91c0,0,4.39,6.06,2.62,9.55S53.2,56.6,53.2,56.6s-11.56,1.51-13.28-1.36,2.17-10.61,2.17-10.61-.55-6.16,1.47-7.57A25.2,25.2,0,0,0,48,32.21s-.76-2,1.36-4.74S54.61,7.25,54.61,5s-2.82-19.39,6.6-26.12c0,0,2.29-46.45,8.75-52.91s24.85-10.3,24.85-10.3Z"/><path class="cls-6" d="M101.74-87.67S118-26.14,119.24-23.31,114.09-15,125.2,24c0,0-.71,5.15-1.72,7s-3.33,6.46-.4,8.08,12.42,9.69,16.46,10.4,11.61-2.83,11.61-2.83,4-1.51,2.78-2.78c0,0-3.69-.15-4.9-1.36s-14.94-12-14.94-12-4.24-5.45-4.24-5.82-3-48.3-3-48.3,1.11-3,0-9.19-.58-45-.58-45Z"/><path class="cls-19" d="M39.14,52.27s11.56-4.94,23.13-1.16a5.07,5.07,0,0,0-.86-2.83c-1-1.51-15.45-3.83-21.61,1.24C39.8,49.52,38.48,51.42,39.14,52.27Z"/><path class="cls-19" d="M136.92,48.42s.45-10.18,11.6-6.42l.3.25a3.63,3.63,0,0,0-1.11-2.35,12.53,12.53,0,0,0-3.65-1.54S133.85,35.85,134,46.69C134,46.69,135.59,48.93,136.92,48.42Z"/><path class="cls-27" d="M86-287.31a6.51,6.51,0,0,1,4.64,2.11,11.14,11.14,0,0,1,2.81-.37,10.25,10.25,0,0,1,7.63,3.47c8.37,3.14,5.05,8.19,4.85,8.47H106s4.92,3.44,3.24,5.12c0,0,3,3.76.6,5.78a2.67,2.67,0,0,1-.88.45c6.89,10.72,11,29.66,8.29,45.27-.54,3.09-4.07,5.32-13.59,5.32h0a50.45,50.45,0,0,1-9.21-.82c.09.73.19,1.52.3,2.31h0c.48,3.4,1.17,7.26,1.93,7.83,4.86,3.65,12.1,5.16,16.17,5.75l5.89.55a14,14,0,0,1,1.31,1.49h.06c1.78,0,3.18,1.94,3.18,1.94L146.51-152l-20,36s6.73,11.31,3.36,16.43l4.65,4.64s.74,2.49-2.63,2.49a10.06,10.06,0,0,1-3.9-1.26,255,255,0,0,1,.93,26.35,25.23,25.23,0,0,0-2.71-.41l0,1.72h0c-.07,12,0,29.22.68,33.16,1.11,6.16,0,9.19,0,9.19s3,47.93,3,48.3,4.24,5.82,4.24,5.82,5.61,4.42,10,7.92h0a12.53,12.53,0,0,1,3.65,1.54,3.64,3.64,0,0,1,1.11,2.3c.29.19.77.52,1.32.92a14.11,14.11,0,0,0,3.79.7c.6.6,0,1.26-.78,1.78.43.47.7.87.62,1.14-.28,1-4.34,5.32-11.69,5.32-.41,0-.83,0-1.27,0-7.7-.5-18.39-8.72-19.27-11a6.76,6.76,0,0,1,.12-4.61A12.84,12.84,0,0,1,123.48,31c1-1.82,1.72-7,1.72-7-11.11-39-4.75-44.47-6-47.29-.81-1.91-8.47-30.43-13.38-48.86a12.81,12.81,0,0,1-2.53-1.5A79.89,79.89,0,0,1,90-68.39l-1.4,3.54L75.35-31.66s-2.51,9.24-5.49,12.22A131.27,131.27,0,0,1,62.49,1.87c-5.05,11.31-7.27,26.86-7.27,26.86s3.62,9.18,4,14.92c4.26,5.83,8.08,13,3,15.14a29.17,29.17,0,0,1-11,1.94c-6.11,0-11.59-1.44-12.87-2.71C36.33,56,42.16,40.41,42.16,40.41c.18-1.41.57-2.78,1.4-3.35A25.2,25.2,0,0,0,48,32.21s-.76-2,1.36-4.74S54.61,7.25,54.61,5s-2.82-19.39,6.6-26.12c0,0,1.08-21.86,3.84-37.68h0c.3-1.79.63-3.51,1-5.1-2.89.24-4.63.27-4.63.27s15.13-42.23,20-56.59a2.65,2.65,0,0,1,1.3-3.9c.07-.22.12-.41.16-.54,1.21-4.44-10.2-26.24-10.2-26.24l-9.63-6-6.69,30.9-4.54-1.71-6-9.32L34.9-169.84l-.33-.1a10.41,10.41,0,0,1-4.53-3.8,38.07,38.07,0,0,1-4.27.25h-.48a.7.7,0,0,1-.43-.09.81.81,0,0,1-.25-.53,46.86,46.86,0,0,0-2.45-8.6,1.44,1.44,0,0,1-.14-.76c.1-.46.64-.67,1.11-.72a2.76,2.76,0,0,0,1.38-.27c.52-.36.68-1.16,1.28-1.36a1,1,0,0,1,.3,0c.27,0,.56.09.84.09a.84.84,0,0,0,.35-.07c.48-.2.6-.82.93-1.23a3.28,3.28,0,0,1,2.05-.81,14.59,14.59,0,0,0,3.61-1.45.35.35,0,0,0,.21-.18.5.5,0,0,0,0-.21c-.56-2.58-1.73-5.17-2.28-7.75a58.26,58.26,0,0,1-.94-7.4,3.92,3.92,0,0,1,2-2.49,1.09,1.09,0,0,1,.52-.16.53.53,0,0,1,.24.06,1,1,0,0,1,.45.8c.63,2.88,2.32,10.19,3,13.07.39,1.84,3.72,6.44,4.43,7s.81,1.23,1.62,1.84a1.69,1.69,0,0,1,.56.57,1.83,1.83,0,0,1,.15.81l.12,4.88c0,1.9,0,4-1.33,5.38h0l8.73,20.8-.17-.59.23.46.26-21.8s6.79-6.1,7.67-7c.56-.57,4.74-3,7.62-4.67h0c3-3,9.48-5.4,9.48-5.4s6.16-7,7.47-8.28.71-4.94.71-4.94l-3.38-13a25.39,25.39,0,0,1-8.3-7.91,3,3,0,0,1-2.2.88A7.73,7.73,0,0,1,66.8-226s-8.55-8.55-5.86-12.59a2.54,2.54,0,0,1,2.22-1.22c1.76,0,3.86,1.45,5.34,2.7-3-2.65-4.66-3-5.31-3H63l0,0,0,0-.06,0,0-.07c-.64-.31-3.5-1.88-3.75-4.55-4.83-1.51-3.9-4.2-3.9-4.2-4.64-3.16,0-8.25,0-8.25-2.07-2.07-.47-5.08-.47-5.08-2.42-3.43.61-7.67.61-7.67.33-3.71,5.89-5.89,5.89-5.89.44-1.86,2.72-2.73,2.72-2.73a4,4,0,0,1,3.73-2.3h.31c2-4.35,9.57-4.77,12.39-4.77.67,0,1.08,0,1.08,0A7.52,7.52,0,0,1,86-287.31m38,159.08,12.47-22.48-11.85-17.62c.31,5.06.51,10.26.45,15.16a196.16,196.16,0,0,1-1.75,23.89,1.65,1.65,0,0,1,.68,1.05M148.52,42h0M86-291.11h0a10.74,10.74,0,0,0-5.72,1.73c-4.14,0-11,.71-14.51,5a7.65,7.65,0,0,0-4.52,3,8.32,8.32,0,0,0-2.94,2.79c-2.12,1.11-5.73,3.51-6.62,7.33-1.31,2.22-2.49,5.87-1.12,9.37a8.37,8.37,0,0,0,.11,4.59,9.73,9.73,0,0,0-1.32,5.82,7.59,7.59,0,0,0,2.06,4.39,6.58,6.58,0,0,0,.56,1.63,8.36,8.36,0,0,0,4,3.65,9.27,9.27,0,0,0,1.33,2.1c-1.37,2.95-.54,6.68,2.48,11.1a39.79,39.79,0,0,0,4.39,5.32l.18.19.21.16a11.31,11.31,0,0,0,6.22,2.25,8.49,8.49,0,0,0,.88,0,32.32,32.32,0,0,0,6.32,5.66l2.95,11.35a8,8,0,0,1,0,1.82c-1.46,1.53-5.19,5.72-6.72,7.44-2,.81-6.63,2.86-9.54,5.54-7,4-7.58,4.62-8,5-.58.58-4.92,4.49-7.51,6.82L47.88-176v1.67l0,3.79-.94-2.24a13.34,13.34,0,0,0,.87-5.84l-.13-4.88A5.49,5.49,0,0,0,47-186a5.24,5.24,0,0,0-1.52-1.74l0-.07A7.07,7.07,0,0,0,44-189.52a24.61,24.61,0,0,1-3.21-4.93c-.31-1.47-.9-4-1.47-6.54s-1.15-5.07-1.46-6.48a4.6,4.6,0,0,0-2.56-3.44,4.33,4.33,0,0,0-1.84-.41,4.76,4.76,0,0,0-2.35.63,7.52,7.52,0,0,0-4,5.39c-.21,2,1,8.55,1,8.61a39,39,0,0,0,1.25,4.29c.08.26.17.51.25.77l-.09,0-.24,0a6.41,6.41,0,0,0-3.88,2,4,4,0,0,0-.76.17,4.75,4.75,0,0,0-2.2,1.51,4.77,4.77,0,0,0-4.11,3.67,5,5,0,0,0,.32,2.93,42.41,42.41,0,0,1,2.25,7.9,4.43,4.43,0,0,0,1.82,3,4.5,4.5,0,0,0,2.54.77h.53c.86,0,1.72,0,2.58-.08a14.7,14.7,0,0,0,3.47,2.71l10.4,31.17.16.45.25.4,6,9.31.68,1,1.17.45L55-122.53,59.15-121l.93-4.3,5.54-25.61,4.17,2.61c.87,1.7,2.82,5.56,4.72,9.74,3.47,7.65,4.37,11,4.6,12.33a6.5,6.5,0,0,0-1.54,2.39,6.27,6.27,0,0,0-.15,3.58C72.19-105,58-65.36,57.83-64.95L56-59.78l5.4-.09-.06.32-.11.55v.08c-2.29,13.4-3.4,30.46-3.71,35.87-8.4,7.6-7.19,22-6.78,26.88,0,.44.09,1,.09,1.14-.07,2.51-3.06,17.84-4.49,20.22a9.86,9.86,0,0,0-2.26,5.93A16.53,16.53,0,0,1,41.38,34c-1.56,1.09-2.51,2.9-2.92,5.53-.41,1.12-1.6,4.45-2.62,8-2.22,7.68-2.25,11.15-.14,13.26,2.63,2.63,9.9,3.82,15.55,3.82a32.79,32.79,0,0,0,12.48-2.23,7.4,7.4,0,0,0,4.45-4.9c1-3.77-.61-8.59-5.24-15.13a72,72,0,0,0-3.82-13.94c.57-3.48,2.76-15.78,6.84-24.91a138.3,138.3,0,0,0,7.37-21c3-3.76,5.08-10.86,5.62-12.81l13.16-33,.74-1.85a84.14,84.14,0,0,0,9.89-3.86c10.42,39.07,12.34,45.49,12.86,46.93,0,.28-.11.75-.18,1.15-.77,4.6-2.56,15.32,5.91,45.31a25,25,0,0,1-1.16,4.88,16.26,16.26,0,0,0-2.29,6.62,10.44,10.44,0,0,0,.12,6.64c1.18,3.09,6.86,6.91,8.57,8,2.92,1.88,8.63,5.08,14,5.43.5,0,1,0,1.51,0,8.75,0,14.56-5.21,15.35-8.13a3.88,3.88,0,0,0,.13-1.51,4.46,4.46,0,0,0-.95-5.08l-1-1L154.09,40a12.49,12.49,0,0,1-2-.27A6.7,6.7,0,0,0,150.15,37a13.32,13.32,0,0,0-4.31-2.07c-3.58-2.86-7.79-6.18-9-7.17-1.22-1.58-2.57-3.37-3.22-4.29-.17-2.79-.77-12.45-2.94-46.74a25.17,25.17,0,0,0-.09-10.27c-.22-1.24-.72-6.58-.63-29.48l2.63.83.11-5c0-.49.23-10.44-.5-21.39A6.19,6.19,0,0,0,137.24-91a5.77,5.77,0,0,0,.87-5l-.28-.92-.68-.68-2.9-2.9c1.22-5.35-1.66-12-3.45-15.48l19-34.14,1.05-1.87-1.07-1.86-23.23-40.67-.1-.17-.11-.16a9.15,9.15,0,0,0-4.29-3.21c-.21-.23-.43-.46-.65-.68l-1-1-1.37-.13-5.79-.54c-3.42-.5-9.52-1.74-13.7-4.56a27.22,27.22,0,0,1-.68-3.14c1.55.13,3.14.19,4.75.19,3.93,0,15.87,0,17.34-8.46,2.51-14.49-.51-32.91-7.21-45.23,1.33-2.31.89-5.14-.4-7.52a5.3,5.3,0,0,0,0-.69,8.58,8.58,0,0,0-3-5.13,8.17,8.17,0,0,0-.25-3.8c-.88-2.81-3.2-5-6.9-6.59a14,14,0,0,0-9.82-4.05,14.29,14.29,0,0,0-1.72.1A10,10,0,0,0,86-291.11Zm42.53,146.83c.16-2.75.27-5.73.31-8.85,0-.67,0-1.36,0-2.06l3.14,4.67-3.46,6.24Z"/></g></svg>