<svg id="Camada_1" data-name="Camada 1" xmlns="http://www.w3.org/2000/svg" xmlns:xlink="http://www.w3.org/1999/xlink" viewBox="0 0 850 509.83"><defs><style>.cls-1{fill:none;}.cls-2{clip-path:url(#clip-path);}.cls-3{fill:#6d472e;}.cls-4{fill:#eac2a7;}.cls-5{fill:#eaa000;}.cls-6{fill:#97d8dd;}.cls-7{fill:#027e8f;}.cls-8{fill:#65c4d1;}.cls-9{fill:#fff;}.cls-10{clip-path:url(#clip-path-2);}.cls-11{fill:#c9a68f;}.cls-12{fill:#d6aa8b;}.cls-13{fill:#d6d6d6;}.cls-14{fill:#c99f4b;}.cls-15{fill:#6d5f56;}.cls-16{fill:#f4f4f4;}.cls-17{clip-path:url(#clip-path-3);}.cls-18{fill:#b7b7b7;}.cls-19{fill:#c99e32;}.cls-20{clip-path:url(#clip-path-4);}.cls-21{fill:#aa7e30;}.cls-22{fill:#ddd;}.cls-23{fill:#846829;}.cls-24{fill:#e8cd95;}</style><clipPath id="clip-path"><path class="cls-1" d="M276.57-123S229.64-87.33,151-116.62,72.42-370.95,72.42-370.95s72.31-107.46,88.48-104.58,110.46,21.15,110.46,55.81,42,190.29,42,190.29S331-161.19,322.14-156"/></clipPath><clipPath id="clip-path-2"><path class="cls-1" d="M251.36,484.4s-46.93,35.65-125.54,6.36S47.21,236.43,47.21,236.43,119.51,129,135.68,131.85,246.14,153,246.14,187.67s42,190.28,42,190.28,17.62,68.25,8.81,73.44"/></clipPath><clipPath id="clip-path-3"><path class="cls-1" d="M187.5,498.87c5.23,10.36,42,12.55,45,13.51,0,0,1-41.62-4.91-65S187.5,498.87,187.5,498.87Z"/></clipPath><clipPath id="clip-path-4"><path class="cls-1" d="M142.82,240.94c6.48,2.68.9-8.94.9-8.94s-.62-11.64-3.91-13.62a47.88,47.88,0,0,1-7.2-5.88l16.56-11.35,45.26-31s6.26-8.71-8-14.07a17,17,0,0,0-17.32-5.14s-6.25-7.49-15.3-.62c0,0-18.21-1.06-22.34,7.88a6.79,6.79,0,0,0-6.7,3.8s-3.8,1.45-4.53,4.52c0,0-9.21,3.63-9.77,9.77,0,0-5,7-1,12.74,0,0-2.65,5,.79,8.43,0,0-7.71,8.44,0,13.69,0,0-1.9,5.47,9.38,7.7l3.35,6.93s3.23-1.47,12.51,7.82S142.82,240.94,142.82,240.94Z"/></clipPath></defs><title>Fala3</title><g class="cls-2"><path class="cls-3" d="M245.77,77.14a11.3,11.3,0,0,0-.19,7.65c1.45,3.8,19.19,17.43,32,18.26,13.51.89,21-6.92,21.5-8.76s-8.72-7.86-8.72-7.86Z"/><path class="cls-3" d="M113.86,83.79S104.2,109.6,107.6,113s24.81,7.48,39.63,1.28-16.17-38.54-16.17-38.54Z"/><path class="cls-4" d="M201.22-116.75l-32.29,81s-4.16,15.34-9.1,20.28A217.65,217.65,0,0,1,147.6,19.83C139.22,38.6,135.53,64.4,135.53,64.4s7.63,19.36,6.71,28.07c0,0,7.29,10,4.35,15.83s-14.41,2.35-14.41,2.35-19.18,2.51-22-2.26,3.6-17.6,3.6-17.6-.92-10.22,2.43-12.56,7.37-8,7.37-8-1.25-3.35,2.27-7.87,8.71-33.54,8.71-37.34S129.84-7.2,145.48-18.37c0,0,3.79-77.08,14.52-87.8s41.22-17.09,41.22-17.09Z"/><path class="cls-4" d="M212.72-128.73s27,102.09,29.05,106.79-8.55,13.79,9.88,78.47c0,0-1.17,8.54-2.85,11.56s-5.53,10.72-.67,13.4,20.61,16.09,27.31,17.26,19.27-4.69,19.27-4.69,6.71-2.51,4.61-4.61c0,0-6.11-.25-8.13-2.26S266.4,67.25,266.4,67.25s-7-9-7-9.66-5-80.15-5-80.15,1.85-5,0-15.25-1-74.61-1-74.61Z"/><path class="cls-3" d="M108.86,103.47s19.18-8.21,38.37-1.92a8.46,8.46,0,0,0-1.43-4.7c-1.59-2.51-25.63-6.36-35.86,2.06C109.94,98.91,107.77,102.05,108.86,103.47Z"/><path class="cls-3" d="M271.1,97.09s.75-16.9,19.24-10.66l.5.41A6,6,0,0,0,289,83c-1.71-1.43-6.06-2.56-6.06-2.56S266,76.22,266.25,94.22C266.25,94.22,268.89,97.93,271.1,97.09Z"/><path class="cls-5" d="M186.59-460a10.8,10.8,0,0,1,7.7,3.51,18.62,18.62,0,0,1,4.67-.61,17,17,0,0,1,12.65,5.75c13.89,5.21,8.37,13.59,8,14l.16,0s8.15,5.69,5.36,8.49c0,0,5,6.24,1,9.59a4.46,4.46,0,0,1-1.45.74c10.86,16.91,17.55,46.13,14.32,71.22a3,3,0,0,1,.76-.71,1.63,1.63,0,0,1,.86-.23,2.45,2.45,0,0,1,1.92,1,7.42,7.42,0,0,1,.88,5.85c-1,2.71-2.76,6.83-2.78,8.23,0,2.42,1.44.84,2.57,3a6.28,6.28,0,0,1,0,2.6c-.45,2.88.87.85,1.55,3.71a6,6,0,0,1-1,4.64c-.34.6,2.61,5.23-1.22,7.75a13.94,13.94,0,0,0-2.64,2.71l1,.09a25.12,25.12,0,0,1,2.17,2.47h.11c2.94,0,5.26,3.22,5.26,3.22L287-235.41l-33.27,59.69s11.17,18.77,5.58,27.26l7.71,7.71s1.23,4.13-4.36,4.13c-1.66,0-4-.88-6.47-2.11A422.1,422.1,0,0,1,257.74-95a44,44,0,0,0-4.5-.67l0,2.85h0c-.11,19.83,0,48.48,1.13,55,1.85,10.22,0,15.25,0,15.25s5,79.54,5,80.15,7,9.66,7,9.66,9.3,7.32,16.55,13.14h0S287.3,81.52,289,83a5.86,5.86,0,0,1,1.82,3.8c.49.33,1.28.87,2.2,1.53a23.26,23.26,0,0,0,6.29,1.17c1,1,0,2.08-1.3,3,.73.77,1.16,1.45,1,1.89-.47,1.74-7.21,8.83-19.39,8.83-.69,0-1.39,0-2.11-.07-12.79-.83-30.53-14.46-32-18.26a11.3,11.3,0,0,1,.19-7.65c0-3.24,2-7.11,3-9,1.68-3,2.85-11.56,2.85-11.56-18.43-64.68-7.87-73.78-9.88-78.47-1.28-3-12.67-45.32-20.8-75.78h0a.36.36,0,0,1,0-.1c-.48-1.77-.94-3.51-1.39-5.2a21.45,21.45,0,0,1-4.21-2.48,132.41,132.41,0,0,1-22.11,8.77L168.93-35.8s-4.16,15.34-9.1,20.28A217.65,217.65,0,0,1,147.6,19.83C139.22,38.6,135.53,64.4,135.53,64.4s6,15.25,6.71,24.77c7.06,9.66,13.4,21.59,5,25.11a48.35,48.35,0,0,1-18.29,3.22c-10.13,0-19.22-2.38-21.34-4.5-3.41-3.4,6.26-29.21,6.26-29.21.3-2.34,1-4.61,2.32-5.56,3.35-2.35,7.37-8,7.37-8s-1.25-3.35,2.27-7.87,8.71-33.54,8.71-37.34S129.84-7.2,145.48-18.37c0,0,1.78-36.28,6.37-62.52h0c.5-3,1-5.82,1.63-8.47-4.8.4-7.68.45-7.68.45S170.9-159,179-182.8c-2.07-4.16,1.17-6,2.15-6.48.11-.37.2-.67.26-.89,2-7.37-16.92-43.54-16.92-43.54l-5.06-8.56-12.15-2.86-7.82-18.32s1.41-19.1,2.86-20.55c.94-.94,7.86-5,12.64-7.75h0c5-5,15.73-8.95,15.73-8.95s10.22-11.56,12.4-13.74,1.17-8.21,1.17-8.21l-5.59-21.5c-9.89-6.21-13.79-13.13-13.79-13.13a5,5,0,0,1-3.64,1.46c-3.25,0-6.52-2.47-6.52-2.47s-14.19-14.18-9.72-20.89a4.22,4.22,0,0,1,3.68-2c2.92,0,6.4,2.41,8.85,4.47-5-4.39-7.72-5-8.81-5l-.34,0-.09.06-.06,0-.1,0,0-.1c-1.06-.53-5.8-3.14-6.22-7.55-8-2.51-6.47-7-6.47-7-7.71-5.25,0-13.68,0-13.68-3.43-3.44-.78-8.43-.78-8.43-4-5.7,1-12.74,1-12.74.55-6.14,9.77-9.77,9.77-9.77.73-3.07,4.52-4.53,4.52-4.53a6.73,6.73,0,0,1,6.19-3.82,3.69,3.69,0,0,1,.52,0c3.34-7.23,15.87-7.92,20.55-7.92,1.12,0,1.79,0,1.79,0a12.49,12.49,0,0,1,7.6-2.9m36.3,131.34c1.68,0,6.19-5.83,7.77-7.55-3.42,1.06-8.12,1.68-14.41,1.7h.34c2.68,0,4.69,5.63,6.2,5.84h.1M201.13-332h0c.79,5.65,1.95,12.06,3.21,13a46.19,46.19,0,0,0,13.87,6.66l-.09-.63c-.46-3.9-4.78-9.58-5.87-10.67-.83-.83-3.57-8.93-3.59-11.13h0a80.8,80.8,0,0,1-8-1.06c.15,1.2.32,2.51.5,3.83m48.46,136,20.69-37.29-19.67-29.24c.53,8.39.85,17,.76,25.14a328,328,0,0,1-2.9,39.65,2.72,2.72,0,0,1,1.12,1.74M290.34,86.43h0M186.59-466h0a17.65,17.65,0,0,0-9.41,2.86c-6.82,0-18.23,1.16-24,8.21a12.42,12.42,0,0,0-7.47,4.91,13.75,13.75,0,0,0-4.87,4.63c-3.46,1.8-9.47,5.75-10.91,12.05-2.16,3.64-4.13,9.67-1.83,15.41a13.61,13.61,0,0,0,.2,7.67,16,16,0,0,0-2.23,9.59,12.49,12.49,0,0,0,3.4,7.19,10.27,10.27,0,0,0,.93,2.71,13.51,13.51,0,0,0,6.52,6,14.9,14.9,0,0,0,2.32,3.67c-2.33,4.82-1,11,4,18.29a69.21,69.21,0,0,0,7.25,8.8l.3.29.33.25c.82.62,5.13,3.68,10.14,3.68a13.85,13.85,0,0,0,1.59-.1,52.89,52.89,0,0,0,10.61,9.51l4.94,19a12.86,12.86,0,0,1,0,3.22c-2.38,2.49-8.71,9.61-11.24,12.46-3.29,1.32-11,4.72-15.82,9.18-11.63,6.71-12.57,7.65-13.26,8.34-1.49,1.49-3,3-4.6,24.36l-.11,1.45.57,1.35,7.82,18.32L143-240l3,.69L155.6-237l3.68,6.23c.57,1.1,4.63,8.95,8.56,17.61,5.87,12.93,7.31,18.47,7.65,20.61a10.28,10.28,0,0,0-2.59,4,10.24,10.24,0,0,0-.23,5.85c-8.65,25.19-32.28,91.15-32.52,91.83l-2.93,8.18,8.69-.16h.2c0,.18-.07.37-.1.56l-.29.87.06.47c-3.82,22.33-5.65,50.8-6.15,59.65C125.7-8.88,127.7,15,128.39,23.07c.06.73.14,1.65.14,1.91-.1,4.22-5.09,29.81-7.5,33.72a16,16,0,0,0-3.7,9.78,28.12,28.12,0,0,1-4.59,4.83c-2.52,1.76-4.07,4.71-4.73,9-.67,1.82-2.63,7.29-4.32,13.13-3.67,12.67-3.76,18.37-.33,21.8,4.29,4.29,16.27,6.25,25.58,6.25a54.32,54.32,0,0,0,20.61-3.68,11.91,11.91,0,0,0,7.21-7.93c1.72-6.18-1-14.12-8.71-24.92-1-8.37-4.85-19.22-6.34-23.22.92-5.66,4.56-26.23,11.37-41.47a227.39,227.39,0,0,0,12.23-34.95c4.93-6.17,8.43-18,9.32-21.21l23.12-58a139.59,139.59,0,0,0,16.82-6.58l.58,2.16v0c17,63.84,20.06,73.83,20.86,76-.05.47-.19,1.3-.3,2-1.27,7.62-4.24,25.37,9.81,75.13a40.46,40.46,0,0,1-2,8.25c-2.29,4.11-3.52,7.67-3.75,10.84A17,17,0,0,0,240,86.93c1.93,5,11.28,11.34,14.1,13.15,4.83,3.1,14.24,8.38,23.09,9,.83.06,1.67.08,2.5.08,14.36,0,23.88-8.5,25.18-13.26a6.54,6.54,0,0,0,.2-2.48,7.45,7.45,0,0,0,.64-2.36,7.18,7.18,0,0,0-2.13-5.81l-1.65-1.65-2.34-.1a20.81,20.81,0,0,1-3.51-.5,10.87,10.87,0,0,0-3.2-4.62,21.92,21.92,0,0,0-7.11-3.4c-6-4.78-13-10.34-15.06-11.95-2.07-2.66-4.35-5.69-5.43-7.23C265,51.27,264,35.4,260.39-21.91c.62-2.55,1.43-8.16-.15-17-.38-2.08-1.21-11-1.06-49.38l4.37,1.38.19-8c0-.81.38-17.49-.86-35.76,4.72-.06,7.23-2.11,8.52-3.83a9.27,9.27,0,0,0,1.38-8l-.43-1.46L271.27-145l-4.92-4.92c2.11-8.88-2.77-20.09-5.75-25.79l31.65-56.78,1.65-3-1.68-2.94-38.55-67.48-.16-.27-.18-.26a15.89,15.89,0,0,0-3.92-3.74,11.5,11.5,0,0,0,.73-8.2,11.19,11.19,0,0,0,.53-6.81,9.76,9.76,0,0,0-1.28-3.1,8.2,8.2,0,0,0-.84-4.66,8.84,8.84,0,0,0-1.2-1.74c.37-1,.8-2.09,1.09-2.84.23-.58.45-1.14.64-1.65a13.31,13.31,0,0,0-1.53-11.35,8.37,8.37,0,0,0-2-2c1.5-22.08-3.63-47.24-13.22-64.77,2.25-3.8,1.52-8.48-.63-12.41a9.49,9.49,0,0,0,0-1.19c-.29-3.26-2.56-6.21-4.94-8.43a13.05,13.05,0,0,0-.38-6.33c-1.44-4.59-5.25-8.2-11.32-10.76A22.89,22.89,0,0,0,199-463.09a22.44,22.44,0,0,0-2.94.19,16.19,16.19,0,0,0-9.43-3.09Zm70.2,244.62c.3-4.91.52-10.31.58-16,0-1.42,0-2.89,0-4.4l5.87,8.73-6.46,11.65Z"/></g><path class="cls-5" d="M178.5,158.73c93.46.11,169.21,76.65,169.31,171.09S272,500.92,178.5,500.92,9.18,424.32,9.18,329.82,85,158.73,178.5,158.73m0-8h0a174.74,174.74,0,0,0-69.06,14.09,176.64,176.64,0,0,0-56.36,38.4,180.11,180.11,0,0,0,0,253.21,176.81,176.81,0,0,0,56.36,38.4,176.26,176.26,0,0,0,138.11,0,176.81,176.81,0,0,0,56.36-38.4,179.73,179.73,0,0,0-56.39-291.56,175.08,175.08,0,0,0-69-14.14Z"/><path class="cls-6" d="M178.49,158.73C85,158.73,9.18,235.33,9.18,329.82S85,500.92,178.49,500.92s169.32-76.6,169.32-171.1S272,158.84,178.49,158.73Zm0,330.78c-87.27,0-158-71.49-158-159.69s70.75-159.68,158-159.68,158,71.49,158,159.68S265.73,489.41,178.49,489.51Z"/><path class="cls-6" d="M258.4,205.54a5.59,5.59,0,0,0-4.25-.81,5.65,5.65,0,0,0-3.56,2.47l-9.24,14.35a5.74,5.74,0,0,0,1.8,8,74,74,0,0,1,6.33,4.56c1.27,1,2.54,2,3.53,2.66,1.75,1.46,3.44,3,5.11,4.55l-3.9,3.94a112.82,112.82,0,0,0-24.74-17.13L241,202a5.75,5.75,0,0,0,.11-4.37,5.67,5.67,0,0,0-3-3.17,146.34,146.34,0,0,0-52-12.51,5.55,5.55,0,0,0-4.08,1.45,5.69,5.69,0,0,0-1.85,3.95l-.87,17.08a5.68,5.68,0,0,0,5.33,6l5.94.3,6.33,1c.81.14,1.63.26,2.44.38,1.22.17,2.44.35,3.51.59l.78.2-1.48,5.59A113.7,113.7,0,0,0,172.31,216l-2.93-28.54a5.66,5.66,0,0,0-2.06-3.84,5.57,5.57,0,0,0-4.15-1.24,144.11,144.11,0,0,0-51.28,15.44,5.73,5.73,0,0,0-2.45,7.67l7.7,15.23a5.63,5.63,0,0,0,7.4,2.59c1.13-.53,2.25-1.09,3.38-1.65a57.68,57.68,0,0,1,8.07-3.5l1.44-.54c1.7-.64,3.34-1.26,5-1.81l1.46,5.52c-1.39.47-2.74,1-4.08,1.48l-1.34.52a52.9,52.9,0,0,0-8,3.43c-1,.48-1.93,1-3.4,1.67L117.48,234l-.65.37-16.64-23.11A5.61,5.61,0,0,0,92.3,210a147.7,147.7,0,0,0-36.8,39.11,5.73,5.73,0,0,0,1.65,7.9l14.19,9.33a5.61,5.61,0,0,0,7.9-1.82,76.25,76.25,0,0,1,4.49-6.38c1-1.29,2-2.58,2.65-3.59,1.45-1.77,3-3.47,4.51-5.16l3.9,3.95a113.82,113.82,0,0,0-17,25L52,266.64a5.63,5.63,0,0,0-7.46,2.89,150.52,150.52,0,0,0-12.38,52.56,5.67,5.67,0,0,0,5.35,6l16.91.89a5.61,5.61,0,0,0,4.07-1.45,5.69,5.69,0,0,0,1.85-3.94l.3-6,1-6.39c.15-.83.26-1.65.38-2.48.17-1.23.34-2.47.59-3.54l.19-.79,5.54,1.5a116.91,116.91,0,0,0-2.43,30.2l-28.24,3a5.58,5.58,0,0,0-3.79,2.08,5.68,5.68,0,0,0-1.23,4.18,149.58,149.58,0,0,0,15.28,51.82,5.58,5.58,0,0,0,7.59,2.48l15.07-7.77a5.74,5.74,0,0,0,2.56-7.48c-.52-1.14-1.07-2.25-1.61-3.37a60.45,60.45,0,0,1-3.49-8.2l-.55-1.5c-.63-1.7-1.23-3.35-1.77-5l5.53-1.49a113.44,113.44,0,0,0,12.88,27.29L61.13,409a5.72,5.72,0,0,0-1.24,8,147.24,147.24,0,0,0,38.7,37.2,5.61,5.61,0,0,0,7.81-1.67l9.23-14.34a5.73,5.73,0,0,0-1.79-8,74.63,74.63,0,0,1-6.33-4.56c-1.27-1-2.54-2-3.53-2.66-1.76-1.46-3.44-3-5.11-4.55l4-4c1.51,1.4,3.06,2.81,4.94,4.36,1.1.78,2.17,1.62,3.24,2.45a67.54,67.54,0,0,0,6.29,4.47l10.08,5.85.12.06L116,457.69a5.75,5.75,0,0,0-.11,4.37,5.62,5.62,0,0,0,3,3.16,146.3,146.3,0,0,0,52,12.52h.29a5.67,5.67,0,0,0,5.63-5.41l.88-17.09a5.67,5.67,0,0,0-5.33-6l-5.94-.31L160,448c-.81-.14-1.63-.26-2.44-.38-1.22-.18-2.44-.35-3.51-.6l-.78-.2,1.48-5.59a114.13,114.13,0,0,0,29.89,2.45l2.93,28.54a5.74,5.74,0,0,0,2.06,3.84,5.62,5.62,0,0,0,4.15,1.24,144.31,144.31,0,0,0,51.28-15.44,5.74,5.74,0,0,0,2.46-7.67l-7.71-15.24a5.62,5.62,0,0,0-7.39-2.58c-1.14.53-2.26,1.09-3.39,1.65a58.08,58.08,0,0,1-8.06,3.5l-1.44.54c-1.7.64-3.35,1.26-5,1.81l-1.49-5.59a111.5,111.5,0,0,0,27-13l16.68,23.17a5.62,5.62,0,0,0,7.89,1.26,148.06,148.06,0,0,0,36.81-39.11,5.8,5.8,0,0,0,.79-4.3,5.68,5.68,0,0,0-2.45-3.6l-14.19-9.33a5.62,5.62,0,0,0-7.9,1.81,73.1,73.1,0,0,1-4.49,6.38c-1,1.3-2,2.59-2.65,3.6-1.45,1.76-3,3.46-4.51,5.15l-3.9-3.94a113.64,113.64,0,0,0,16.95-25L305,393a5.63,5.63,0,0,0,7.45-2.89,150.37,150.37,0,0,0,12.39-52.57,5.69,5.69,0,0,0-5.35-6l-16.91-.88a5.7,5.7,0,0,0-5.92,5.39l-.3,6-1,6.39c-.15.82-.26,1.65-.38,2.48-.18,1.23-.35,2.47-.59,3.53l-.2.79-5.44-1.47,0-.14c.3-1.33.5-2.68.68-4,.09-.64.17-1.27.3-2l.86-5.6a5.7,5.7,0,0,0,.06-.58l.3-6V323.85l0-.26,28.35-3a5.6,5.6,0,0,0,3.8-2.08,5.77,5.77,0,0,0,1.23-4.18,150.07,150.07,0,0,0-15.28-51.83,5.61,5.61,0,0,0-7.59-2.47l-15.08,7.77a5.73,5.73,0,0,0-2.55,7.48c.52,1.13,1.06,2.25,1.6,3.37a58.4,58.4,0,0,1,3.49,8.19l.55,1.51c.63,1.7,1.24,3.35,1.78,5l-5.53,1.49a113.47,113.47,0,0,0-12.89-27.29l22.93-16.87a5.7,5.7,0,0,0,2.26-3.72,5.76,5.76,0,0,0-1-4.24A147.36,147.36,0,0,0,258.4,205.54Zm3.44,56.07a5.73,5.73,0,0,0-1.25,8,102.16,102.16,0,0,1,15.92,33.7,5.66,5.66,0,0,0,6.9,4l16.36-4.42a5.72,5.72,0,0,0,4.07-6.7,83.48,83.48,0,0,0-3.69-11.79l-.45-1.22a59.81,59.81,0,0,0-3.16-7.74l5-2.59a138.89,138.89,0,0,1,10.94,37l-27.95,2.93a5.68,5.68,0,0,0-5.05,6l.28,5.53v10.9l-.28,5.38-.8,5.23c-.13.75-.23,1.5-.34,2.25-.14,1-.27,2-.46,2.87l-1.41,5.49a5.71,5.71,0,0,0,4,6.94l16.36,4.42a5.61,5.61,0,0,0,4.31-.59,5.68,5.68,0,0,0,2.61-3.5l1.66-6.5c.35-1.52.57-3.07.79-4.62.11-.73.2-1.46.34-2.28l1-7,.05-.88,5.54.29a139.33,139.33,0,0,1-8.84,37.55L278.7,368.65a5.54,5.54,0,0,0-4.32-.11,5.69,5.69,0,0,0-3.14,3,102.26,102.26,0,0,1-20.92,30.87,5.74,5.74,0,0,0,0,8.05l12,12.1a5.47,5.47,0,0,0,4.15,1.67,5.61,5.61,0,0,0,4.05-1.91q1.51-1.71,3.06-3.4c2-2.15,3.91-4.3,6-6.86.86-1.22,1.77-2.42,2.67-3.61.63-.83,1.27-1.67,1.89-2.53l4.74,3.12a136.05,136.05,0,0,1-26.3,28L246,414a5.65,5.65,0,0,0-3.68-2.28,5.58,5.58,0,0,0-4.2,1,100.21,100.21,0,0,1-33.35,16.07,5.68,5.68,0,0,0-3.43,2.66,5.74,5.74,0,0,0-.56,4.33l4.37,16.53a5.65,5.65,0,0,0,6.64,4.1,82.93,82.93,0,0,0,11.7-3.74l1.17-.44a57.49,57.49,0,0,0,7.65-3.2l2.57,5.09a135.64,135.64,0,0,1-36.64,11L195.34,437a5.67,5.67,0,0,0-2-3.84,5.56,5.56,0,0,0-4.13-1.24,102.62,102.62,0,0,1-37-3.05,5.59,5.59,0,0,0-4.28.58,5.67,5.67,0,0,0-2.63,3.46l-4.38,16.53a5.75,5.75,0,0,0,.58,4.35,5.64,5.64,0,0,0,3.47,2.65l6.43,1.66c1.51.36,3,.59,4.58.81.72.1,1.43.21,2.24.35l7,1.05.87,0-.29,5.6A135.3,135.3,0,0,1,128.63,457l11.44-25.92a5.74,5.74,0,0,0-2.7-7.47l-4.69-2.26-9.63-5.59a58,58,0,0,1-5.13-3.7c-1.2-.93-2.4-1.86-3.28-2.45-1.63-1.36-3.18-2.81-4.74-4.25-1.16-1.08-2.33-2.16-3.52-3.22a5.6,5.6,0,0,0-7.7.27l-12,12.09a5.74,5.74,0,0,0,.23,8.3c1.12,1,2.22,2,3.32,3,2.14,2,4.29,4,6.84,6.09,1.21.87,2.38,1.78,3.56,2.69q1.23,1,2.52,1.92l-3.09,4.79a135.59,135.59,0,0,1-27.66-26.58l22.72-16.71a5.74,5.74,0,0,0,1.25-8,102.26,102.26,0,0,1-15.92-33.7,5.63,5.63,0,0,0-6.9-4l-16.36,4.42a5.71,5.71,0,0,0-4.07,6.7,85.09,85.09,0,0,0,3.69,11.78l.45,1.22a59.24,59.24,0,0,0,3.16,7.74l-5,2.6a139.07,139.07,0,0,1-10.94-37l27.95-2.94a5.68,5.68,0,0,0,5-6.22,105.67,105.67,0,0,1,3-37.35,5.74,5.74,0,0,0-.56-4.33,5.67,5.67,0,0,0-3.44-2.66l-16.35-4.41a5.65,5.65,0,0,0-4.31.58A5.72,5.72,0,0,0,53.2,296l-1.65,6.5c-.35,1.52-.57,3.07-.79,4.61-.11.74-.21,1.46-.34,2.29l-1,7-.05.87L43.79,317a139.24,139.24,0,0,1,8.84-37.55L78.29,291a5.62,5.62,0,0,0,7.45-2.9,102.17,102.17,0,0,1,20.93-30.87,5.77,5.77,0,0,0,0-8.06l-12-12.1a5.61,5.61,0,0,0-8.2.24c-1,1.15-2,2.28-3.06,3.41-2,2.14-3.91,4.29-6,6.86-.87,1.22-1.77,2.41-2.67,3.61-.63.83-1.27,1.66-1.89,2.52l-4.75-3.11a136.37,136.37,0,0,1,26.31-28l16.55,23a5.6,5.6,0,0,0,7.89,1.25l1.31-1a19.54,19.54,0,0,1,2.77-1.92l9.23-5.4c1.09-.5,2.16-1,3.24-1.57a44,44,0,0,1,6.61-2.86l1.68-.63a57.54,57.54,0,0,1,8.17-2.62,5.61,5.61,0,0,0,3.67-2.59,5.78,5.78,0,0,0,.65-4.47l-4.38-16.53a5.65,5.65,0,0,0-6.63-4.1,83.06,83.06,0,0,0-11.71,3.74l-1.16.44a56.94,56.94,0,0,0-7.65,3.2l-2.57-5.09a135.89,135.89,0,0,1,36.64-11l2.89,28.24a5.67,5.67,0,0,0,2,3.84,5.58,5.58,0,0,0,4.13,1.24,102.88,102.88,0,0,1,37,3,5.59,5.59,0,0,0,4.28-.58,5.71,5.71,0,0,0,2.63-3.46l4.37-16.53a5.79,5.79,0,0,0-.57-4.35,5.64,5.64,0,0,0-3.47-2.65l-6.42-1.67c-1.52-.35-3.05-.58-4.59-.8-.72-.11-1.43-.21-2.25-.35l-7-1.05-.87,0,.29-5.6a135.68,135.68,0,0,1,37.16,8.94l-11.44,25.92a5.78,5.78,0,0,0-.11,4.38,5.64,5.64,0,0,0,3,3.16,101.33,101.33,0,0,1,30.55,21.14,5.59,5.59,0,0,0,8,0l12-12.09a5.74,5.74,0,0,0-.23-8.3c-1.12-1-2.22-2-3.32-3-2.15-2-4.29-4-6.84-6.09-1.21-.87-2.38-1.78-3.56-2.69-.82-.63-1.66-1.28-2.52-1.92l3.09-4.79a135.85,135.85,0,0,1,27.66,26.58Z"/><path class="cls-6" d="M178.49,238.57a90,90,0,0,0-78.36,45.77,91.89,91.89,0,0,0,.49,91.45,5.73,5.73,0,0,0,.35.59,91.65,91.65,0,0,0,23,26c.15.1.23.25.39.34l.12,0a88.86,88.86,0,0,0,108,0,1.56,1.56,0,0,1,.15-.06c.16-.09.24-.24.38-.34a91.53,91.53,0,0,0,23-26,5.73,5.73,0,0,0,.35-.59,91.87,91.87,0,0,0,.48-91.45A90,90,0,0,0,178.49,238.57Zm-10.17,12.15L105.67,360.81A80.52,80.52,0,0,1,110,290.07,78.92,78.92,0,0,1,168.32,250.72ZM134.63,396.19l43.86-77.06,43.87,77.05a78.09,78.09,0,0,1-87.73,0ZM231.32,389l-45.48-79.89a8.43,8.43,0,0,0-14.69,0L125.67,389a79.94,79.94,0,0,1-13.73-16.34l66.56-117,12.91,22.63a4.66,4.66,0,0,0,.25.5l53.39,93.86A80.26,80.26,0,0,1,231.32,389Zm20-28.23-49.6-87.21c-.08-.17-.17-.35-.27-.52l-12.75-22.35A78.88,78.88,0,0,1,247,290.08a80.49,80.49,0,0,1,4.31,70.73Z"/><path class="cls-7" d="M597.35,34.08c-131.17,0-239,88.61-251.43,202l-74.67,29.74s-4.88,1.81-4.39,8.81a9.51,9.51,0,0,0,5.58,8.16l78.16,23.46c24.89,100.48,125.91,175.68,246.75,175.68C736.89,481.89,850,381.64,850,258S736.89,34.08,597.35,34.08Z"/><path class="cls-8" d="M597.31.92c-131.17,0-239,88.6-251.43,202l-74.67,29.74s-4.88,1.8-4.39,8.8a9.53,9.53,0,0,0,5.58,8.17L350.56,273c24.89,100.48,125.91,175.68,246.75,175.68C736.85,448.72,850,348.48,850,224.82S736.85.92,597.31.92Z"/><path class="cls-9" d="M420.86,137.22h-1.14l-.2-2.41a4.09,4.09,0,0,0-1.7-1.25,6.53,6.53,0,0,0-2.53-.45A5.13,5.13,0,0,0,412,134a2.79,2.79,0,0,0-1.17,2.28,2.69,2.69,0,0,0,1.05,2.15,9.69,9.69,0,0,0,3.64,1.51,10.44,10.44,0,0,1,4.14,1.9,3.91,3.91,0,0,1,1.42,3.15,3.81,3.81,0,0,1-1.64,3.25,7,7,0,0,1-4.21,1.21,8.64,8.64,0,0,1-3.36-.65,6.34,6.34,0,0,1-2.53-1.84v-3h1.13l.2,2.5a4.83,4.83,0,0,0,2,1.34,7.32,7.32,0,0,0,2.6.45,5.37,5.37,0,0,0,3.23-.89,2.77,2.77,0,0,0,1.23-2.35,2.86,2.86,0,0,0-1-2.28,9.6,9.6,0,0,0-3.59-1.57,11.32,11.32,0,0,1-4.2-1.82,3.68,3.68,0,0,1-1.43-3,3.84,3.84,0,0,1,1.62-3.19,6.77,6.77,0,0,1,4.19-1.23,8,8,0,0,1,3.29.65,5.78,5.78,0,0,1,2.28,1.74Z"/><path class="cls-9" d="M428.92,149.47a5,5,0,0,1-3.92-1.75,6.47,6.47,0,0,1-1.56-4.46v-.65A6.68,6.68,0,0,1,425,138.1a4.75,4.75,0,0,1,3.74-1.79,4.63,4.63,0,0,1,3.63,1.47,5.71,5.71,0,0,1,1.32,3.94v1.2h-8.86v.34a5.67,5.67,0,0,0,1.13,3.58,3.61,3.61,0,0,0,3,1.44,6,6,0,0,0,2.2-.36,4.45,4.45,0,0,0,1.57-1l.59,1a5.1,5.1,0,0,1-1.79,1.19A6.84,6.84,0,0,1,428.92,149.47Zm-.19-12a3.32,3.32,0,0,0-2.58,1.19,5.08,5.08,0,0,0-1.22,3l0,.06h7.35v-.35a4.07,4.07,0,0,0-1-2.76A3.25,3.25,0,0,0,428.73,137.5Z"/><path class="cls-9" d="M436.07,148.19,438,148v-10.3l-1.89-.16v-1h3.27V148l1.89.15v1h-5.16Zm3.27-15.28H438v-2h1.38Z"/><path class="cls-9" d="M449.34,143a8.3,8.3,0,0,1,1.27-4.86,4.07,4.07,0,0,1,3.54-1.82,4.24,4.24,0,0,1,3.85,2.11l.14-1.88h1.22V152.9l1.89.15v1h-5.17v-1l1.89-.15v-5.34a4.32,4.32,0,0,1-1.6,1.41,4.83,4.83,0,0,1-2.24.5,4.16,4.16,0,0,1-3.52-1.7,7.39,7.39,0,0,1-1.27-4.54Zm1.4.24a6.66,6.66,0,0,0,.91,3.68,3.1,3.1,0,0,0,2.75,1.37,3.8,3.8,0,0,0,2.18-.59,3.87,3.87,0,0,0,1.39-1.62v-6.19a4.65,4.65,0,0,0-1.35-1.71,3.47,3.47,0,0,0-2.2-.67,3,3,0,0,0-2.75,1.53,7.54,7.54,0,0,0-.93,4Z"/><path class="cls-9" d="M471.83,147.14a4.41,4.41,0,0,1-1.62,1.72,4.7,4.7,0,0,1-2.42.61,3.82,3.82,0,0,1-3.1-1.36,6.55,6.55,0,0,1-1.12-4.22v-6.15l-1.55-.16v-1H465v7.37a5.51,5.51,0,0,0,.78,3.33,2.67,2.67,0,0,0,2.22,1,4.16,4.16,0,0,0,2.52-.7,3.71,3.71,0,0,0,1.31-2v-7.86l-1.78-.16v-1h3.17V148l1.68.15v1H472Z"/><path class="cls-9" d="M482.43,149.47a5,5,0,0,1-3.92-1.75,6.47,6.47,0,0,1-1.56-4.46v-.65a6.68,6.68,0,0,1,1.55-4.51,4.75,4.75,0,0,1,3.74-1.79,4.63,4.63,0,0,1,3.63,1.47,5.71,5.71,0,0,1,1.32,3.94v1.2h-8.86v.34a5.67,5.67,0,0,0,1.13,3.58,3.61,3.61,0,0,0,3,1.44,6,6,0,0,0,2.2-.36,4.45,4.45,0,0,0,1.57-1l.59,1A5.1,5.1,0,0,1,485,149,6.84,6.84,0,0,1,482.43,149.47Zm-.19-12a3.32,3.32,0,0,0-2.58,1.19,5.08,5.08,0,0,0-1.22,3l0,.06h7.35v-.35a4.07,4.07,0,0,0-1-2.76A3.25,3.25,0,0,0,482.24,137.5Z"/><path class="cls-9" d="M495.08,137.58v-1h3.05l.17,2a4.37,4.37,0,0,1,4-2.2,4.07,4.07,0,0,1,3.54,1.82,8.3,8.3,0,0,1,1.27,4.86v.24a7.37,7.37,0,0,1-1.27,4.54,4.17,4.17,0,0,1-3.52,1.7A5,5,0,0,1,500,149a4.26,4.26,0,0,1-1.62-1.45v5.39l1.89.15v1h-5.16v-1l1.89-.15V137.74Zm10.6,5.41a7.37,7.37,0,0,0-.95-3.94,3.06,3.06,0,0,0-2.78-1.52,3.61,3.61,0,0,0-2.28.67,4.14,4.14,0,0,0-1.32,1.75v6.1a3.89,3.89,0,0,0,1.38,1.64,4,4,0,0,0,2.24.59,3.13,3.13,0,0,0,2.76-1.38,6.38,6.38,0,0,0,.95-3.67Z"/><path class="cls-9" d="M512.34,136.54l.17,2.11v.15A4.47,4.47,0,0,1,514,137a3.63,3.63,0,0,1,2.18-.66,3,3,0,0,1,.52,0,2.85,2.85,0,0,1,.41.09l-.18,1.31-1-.07a3.15,3.15,0,0,0-2.15.74,4.14,4.14,0,0,0-1.2,2.05V148l1.89.15v1h-5.16v-1l1.89-.15v-10.3l-1.89-.16v-1h3.1Z"/><path class="cls-9" d="M518.65,142.69a6.88,6.88,0,0,1,1.51-4.59,5.43,5.43,0,0,1,8.06,0,6.83,6.83,0,0,1,1.52,4.59v.39a6.85,6.85,0,0,1-1.51,4.6,5,5,0,0,1-4,1.79,5.07,5.07,0,0,1-4.05-1.79,6.85,6.85,0,0,1-1.51-4.6Zm1.39.39a6,6,0,0,0,1.1,3.7,3.86,3.86,0,0,0,6.11,0,6.1,6.1,0,0,0,1.1-3.7v-.39a6.06,6.06,0,0,0-1.11-3.68,3.84,3.84,0,0,0-6.1,0,6.06,6.06,0,0,0-1.1,3.68Zm5.45-11.37h1.7l0,.07-2.89,3.05H523.1Z"/><path class="cls-9" d="M531.48,148.19l1.41-.13,4-5.3-3.78-5-1.41-.13v-1h4.25v1l-1.3.07,3,4.07,3-4.08-1.29-.06v-1h4.26v1l-1.4.13-3.78,5,4,5.3,1.41.13v1h-4.24v-1l1.29-.06-3.19-4.31-3.18,4.31,1.29.06v1h-4.25Z"/><path class="cls-9" d="M545.49,148.19l1.89-.15v-10.3l-1.89-.16v-1h3.27V148l1.89.15v1h-5.16Zm3.27-15.28h-1.38v-2h1.38Z"/><path class="cls-9" d="M552.68,137.58v-1h3.12l.13,2.1a4.39,4.39,0,0,1,1.61-1.72,4.56,4.56,0,0,1,2.4-.61,3.62,3.62,0,0,1,3.78,2.87,5,5,0,0,1,1.62-2.11,4.22,4.22,0,0,1,2.56-.76,3.78,3.78,0,0,1,3.1,1.34,6.57,6.57,0,0,1,1.1,4.18V148l1.89.16v1H568.8v-1l1.89-.16V141.8a5.23,5.23,0,0,0-.81-3.31,2.85,2.85,0,0,0-2.28-1,3.05,3.05,0,0,0-2.5,1,5,5,0,0,0-1.09,2.66c0,.06,0,.12,0,.17V148l1.9.15v1h-5.18v-1l1.89-.15V141.8a5.07,5.07,0,0,0-.83-3.28,2.8,2.8,0,0,0-2.27-1,3.45,3.45,0,0,0-2.35.75,4,4,0,0,0-1.21,2V148l1.89.15v1h-5.18v-1l1.89-.15v-10.3Z"/><path class="cls-9" d="M575.59,142.69a6.83,6.83,0,0,1,1.52-4.59,5.43,5.43,0,0,1,8.06,0,6.89,6.89,0,0,1,1.52,4.59v.39a6.86,6.86,0,0,1-1.52,4.6,5.43,5.43,0,0,1-8.06,0,6.81,6.81,0,0,1-1.52-4.6Zm1.39.39a6.1,6.1,0,0,0,1.1,3.7,3.86,3.86,0,0,0,6.11,0,6,6,0,0,0,1.1-3.7v-.39a6.06,6.06,0,0,0-1.1-3.68,3.85,3.85,0,0,0-6.11,0,6.12,6.12,0,0,0-1.1,3.68Z"/><path class="cls-9" d="M603.39,149.22a11.15,11.15,0,0,1-.2-1.11,7.46,7.46,0,0,1-.06-1,5.59,5.59,0,0,1-1.85,1.65,5.22,5.22,0,0,1-2.61.66,4,4,0,0,1-2.86-1,3.44,3.44,0,0,1-1-2.61,3.2,3.2,0,0,1,1.5-2.78,7,7,0,0,1,4.06-1h2.77v-1.67a2.71,2.71,0,0,0-.86-2.13,3.49,3.49,0,0,0-2.42-.78,6.07,6.07,0,0,0-1.91.29,4.13,4.13,0,0,0-1.44.78l-.12,1.7h-1.15v-2.44a7.26,7.26,0,0,1,2.09-1.1,7.76,7.76,0,0,1,2.58-.42,5,5,0,0,1,3.34,1.06,3.78,3.78,0,0,1,1.26,3.06v6.24c0,.25,0,.5,0,.74a5.35,5.35,0,0,0,.07.7l1.26.08v1Zm-4.57-1a5,5,0,0,0,2.65-.7,4.12,4.12,0,0,0,1.66-1.81v-2.55h-2.79a5.28,5.28,0,0,0-3,.79,2.38,2.38,0,0,0-1.13,2,2.11,2.11,0,0,0,.71,1.65A2.77,2.77,0,0,0,598.82,148.22Z"/><path class="cls-9" d="M620.32,132.17a6.4,6.4,0,0,1,4.17,1.2,4.19,4.19,0,0,1,1.45,3.45,4,4,0,0,1-.77,2.4,4.3,4.3,0,0,1-2.2,1.55,3.66,3.66,0,0,1,2.26,1.43,4.51,4.51,0,0,1,.69,2.58v1.56a2.44,2.44,0,0,0,.28,1.33,1,1,0,0,0,.84.47l.57,0v1h-.88a1.83,1.83,0,0,1-1.72-.84,4.14,4.14,0,0,1-.48-2.07V144.8a3.18,3.18,0,0,0-1-2.45,4,4,0,0,0-2.73-.95h-4.25V148l1.89.16v1H613.3v-1l1.89-.16V133.37l-1.89-.17v-1Zm-3.75,8h3.59a5,5,0,0,0,3.34-.93,3.12,3.12,0,0,0,1-2.47,3.17,3.17,0,0,0-1-2.54,4.83,4.83,0,0,0-3.18-.9h-3.75Z"/><path class="cls-9" d="M638.2,149.22c-.09-.43-.16-.8-.2-1.11a7.46,7.46,0,0,1,0-1,5.73,5.73,0,0,1-1.86,1.65,5.17,5.17,0,0,1-2.61.66,4,4,0,0,1-2.85-1,3.41,3.41,0,0,1-1-2.61,3.21,3.21,0,0,1,1.49-2.78,7.06,7.06,0,0,1,4.06-1H638v-1.67a2.69,2.69,0,0,0-.87-2.13,3.47,3.47,0,0,0-2.42-.78,6,6,0,0,0-1.9.29,4.27,4.27,0,0,0-1.45.78l-.11,1.7h-1.15v-2.44a7.2,7.2,0,0,1,2.08-1.1,7.84,7.84,0,0,1,2.58-.42,5,5,0,0,1,3.34,1.06,3.79,3.79,0,0,1,1.27,3.06v6.24c0,.25,0,.5,0,.74a5.35,5.35,0,0,0,.08.7l1.25.08v1Zm-4.57-1a5,5,0,0,0,2.66-.7,4.24,4.24,0,0,0,1.66-1.81v-2.55h-2.8a5.22,5.22,0,0,0-3,.79,2.38,2.38,0,0,0-1.13,2,2.1,2.1,0,0,0,.7,1.65A2.78,2.78,0,0,0,633.63,148.22Z"/><path class="cls-9" d="M642.39,148.19l1.89-.15V137.69H642.2v-1.15h2.08v-1.62a4.22,4.22,0,0,1,1.1-3.12,4.16,4.16,0,0,1,3.07-1.11,7.21,7.21,0,0,1,1.57.18,9.8,9.8,0,0,1,1.62.52l-.22,1.2a8.43,8.43,0,0,0-1.37-.45,6.36,6.36,0,0,0-1.52-.17,2.82,2.82,0,0,0-2.14.76,3.08,3.08,0,0,0-.72,2.19v1.62h7.2V148l1.89.15v1H649.6v-1l1.89-.15V137.69h-5.82V148l1.89.15v1h-5.17Z"/><path class="cls-9" d="M656.41,148.19l1.89-.15v-10.3l-1.89-.16v-1h3.12l.12,2.22a4.33,4.33,0,0,1,4.06-2.45,3.85,3.85,0,0,1,3.11,1.26,6,6,0,0,1,1.07,3.93V148l1.89.15v1h-5.17v-1l1.89-.15v-6.53a4.6,4.6,0,0,0-.81-3.08,2.92,2.92,0,0,0-2.29-.9,3.6,3.6,0,0,0-2.38.77,4.31,4.31,0,0,0-1.33,2.07V148l1.89.15v1h-5.17Z"/><path class="cls-9" d="M680.62,149.22a10.8,10.8,0,0,1-.19-1.11,7.46,7.46,0,0,1-.06-1,5.73,5.73,0,0,1-1.86,1.65,5.17,5.17,0,0,1-2.61.66,4,4,0,0,1-2.85-1,3.44,3.44,0,0,1-1-2.61,3.2,3.2,0,0,1,1.5-2.78,7,7,0,0,1,4.06-1h2.77v-1.67a2.69,2.69,0,0,0-.87-2.13,3.46,3.46,0,0,0-2.41-.78,6,6,0,0,0-1.91.29,4.27,4.27,0,0,0-1.45.78l-.11,1.7h-1.15v-2.44a7.33,7.33,0,0,1,2.08-1.1,7.84,7.84,0,0,1,2.58-.42,5,5,0,0,1,3.34,1.06,3.76,3.76,0,0,1,1.27,3.06v6.24c0,.25,0,.5,0,.74a5.35,5.35,0,0,0,.07.7l1.25.08v1Zm-4.57-1a5,5,0,0,0,2.66-.7,4.18,4.18,0,0,0,1.66-1.81v-2.55h-2.8a5.24,5.24,0,0,0-3,.79,2.38,2.38,0,0,0-1.13,2,2.1,2.1,0,0,0,.7,1.65A2.78,2.78,0,0,0,676.05,148.22Z"/><path class="cls-9" d="M690.43,132v-1h3.27v7.77a4.47,4.47,0,0,1,4.11-2.4,3.76,3.76,0,0,1,3,1.24,5.82,5.82,0,0,1,1.06,3.85V148l1.9.15v1h-5.18v-1l1.89-.15v-6.66a4.44,4.44,0,0,0-.8-3,2.83,2.83,0,0,0-2.22-.89,3.77,3.77,0,0,0-2.39.75,4.59,4.59,0,0,0-1.41,2V148l1.89.15v1h-5.16v-1l1.89-.15v-15.9Z"/><path class="cls-9" d="M714.56,149.22a11.15,11.15,0,0,1-.2-1.11,7.46,7.46,0,0,1-.06-1,5.53,5.53,0,0,1-1.86,1.65,5.16,5.16,0,0,1-2.6.66,4,4,0,0,1-2.86-1,3.44,3.44,0,0,1-1-2.61,3.2,3.2,0,0,1,1.5-2.78,7,7,0,0,1,4.06-1h2.77v-1.67a2.71,2.71,0,0,0-.86-2.13,3.5,3.5,0,0,0-2.42-.78,6.07,6.07,0,0,0-1.91.29,4.13,4.13,0,0,0-1.44.78l-.12,1.7H706.4v-2.44a7.26,7.26,0,0,1,2.09-1.1,7.76,7.76,0,0,1,2.58-.42,5,5,0,0,1,3.34,1.06,3.78,3.78,0,0,1,1.26,3.06v6.24c0,.25,0,.5,0,.74a5.35,5.35,0,0,0,.07.7l1.25.08v1Zm-4.57-1a5,5,0,0,0,2.65-.7,4.12,4.12,0,0,0,1.66-1.81v-2.55h-2.79a5.25,5.25,0,0,0-3,.79,2.38,2.38,0,0,0-1.13,2,2.11,2.11,0,0,0,.71,1.65A2.77,2.77,0,0,0,710,148.22Zm2.35-16.52H714l0,.07-2.89,3H710Z"/><path class="cls-9" d="M733.44,149.22a11.15,11.15,0,0,1-.2-1.11,7.46,7.46,0,0,1-.06-1,5.53,5.53,0,0,1-1.86,1.65,5.16,5.16,0,0,1-2.6.66,4,4,0,0,1-2.86-1,3.44,3.44,0,0,1-1-2.61,3.2,3.2,0,0,1,1.5-2.78,7,7,0,0,1,4.06-1h2.77v-1.67a2.71,2.71,0,0,0-.86-2.13,3.5,3.5,0,0,0-2.42-.78,6.07,6.07,0,0,0-1.91.29,4.13,4.13,0,0,0-1.44.78l-.12,1.7h-1.15v-2.44a7.26,7.26,0,0,1,2.09-1.1,7.76,7.76,0,0,1,2.58-.42,5,5,0,0,1,3.34,1.06,3.78,3.78,0,0,1,1.26,3.06v6.24c0,.25,0,.5,0,.74a5.35,5.35,0,0,0,.07.7l1.25.08v1Zm-4.57-1a5,5,0,0,0,2.65-.7,4.12,4.12,0,0,0,1.66-1.81v-2.55h-2.79a5.25,5.25,0,0,0-3,.79,2.38,2.38,0,0,0-1.13,2,2.11,2.11,0,0,0,.71,1.65A2.77,2.77,0,0,0,728.87,148.22Z"/><path class="cls-9" d="M737.6,132v-1h3.27V148l1.89.15v1H737.6v-1l1.89-.15v-15.9Z"/><path class="cls-9" d="M744.89,143a8.23,8.23,0,0,1,1.29-4.86,4.07,4.07,0,0,1,3.55-1.82,4.32,4.32,0,0,1,2.31.59,4.56,4.56,0,0,1,1.62,1.67l.16-2H755v12.52a5.42,5.42,0,0,1-1.31,3.86,4.7,4.7,0,0,1-3.65,1.42,9,9,0,0,1-1.93-.22,7.51,7.51,0,0,1-1.79-.61l.37-1.18a7.8,7.8,0,0,0,1.58.56,7.63,7.63,0,0,0,1.75.2A3.33,3.33,0,0,0,752.7,152a4.45,4.45,0,0,0,.9-3v-1.61A4.36,4.36,0,0,1,752,149a4.85,4.85,0,0,1-2.28.52,4.18,4.18,0,0,1-3.54-1.7,7.39,7.39,0,0,1-1.28-4.54Zm1.39.24a6.37,6.37,0,0,0,.93,3.65,3.1,3.1,0,0,0,2.75,1.37,3.91,3.91,0,0,0,2.26-.62,4,4,0,0,0,1.38-1.71V140a4.52,4.52,0,0,0-1.33-1.81,3.57,3.57,0,0,0-2.29-.69,3,3,0,0,0-2.76,1.52,7.46,7.46,0,0,0-.94,3.94Z"/><path class="cls-9" d="M767.37,147.14a4.34,4.34,0,0,1-1.62,1.72,4.7,4.7,0,0,1-2.42.61,3.82,3.82,0,0,1-3.1-1.36,6.55,6.55,0,0,1-1.12-4.22v-6.15l-1.55-.16v-1h2.93v7.37a5.51,5.51,0,0,0,.78,3.33,2.67,2.67,0,0,0,2.22,1,4.16,4.16,0,0,0,2.52-.7,3.71,3.71,0,0,0,1.31-2v-7.86l-1.78-.16v-1h3.17V148l1.69.15v1h-2.9Z"/><path class="cls-9" d="M772.18,148.19l1.89-.15v-10.3l-1.89-.16v-1h3.12l.13,2.22a4.35,4.35,0,0,1,1.63-1.81,4.45,4.45,0,0,1,2.43-.64,3.86,3.86,0,0,1,3.11,1.26,6,6,0,0,1,1.06,3.93V148l1.89.15v1h-5.17v-1l1.89-.15v-6.53a4.67,4.67,0,0,0-.8-3.08,2.93,2.93,0,0,0-2.29-.9,3.63,3.63,0,0,0-2.39.77,4.38,4.38,0,0,0-1.33,2.07V148l1.89.15v1h-5.17Z"/><path class="cls-9" d="M796.84,140.46H795.7l-.16-1.8a3.58,3.58,0,0,0-1.32-.85,4.93,4.93,0,0,0-1.82-.31,3.37,3.37,0,0,0-2.28.66,2,2,0,0,0-.76,1.56,1.86,1.86,0,0,0,.65,1.45,6.42,6.42,0,0,0,2.62,1,8.44,8.44,0,0,1,3.35,1.37,2.88,2.88,0,0,1,1.11,2.38,3.07,3.07,0,0,1-1.27,2.56,5.34,5.34,0,0,1-3.35,1,7.56,7.56,0,0,1-2.54-.4,6.14,6.14,0,0,1-2-1.1v-2.56h1.13l.2,1.81a3.28,3.28,0,0,0,1.41.81,6.13,6.13,0,0,0,1.78.25,3.83,3.83,0,0,0,2.37-.66,2,2,0,0,0,.87-1.62,2.07,2.07,0,0,0-.72-1.56,5.85,5.85,0,0,0-2.62-1.09,8.65,8.65,0,0,1-3.32-1.31,2.68,2.68,0,0,1-1.08-2.28,3.07,3.07,0,0,1,1.21-2.45,4.92,4.92,0,0,1,3.22-1,7.24,7.24,0,0,1,2.52.42,5.09,5.09,0,0,1,1.86,1.16Z"/><path class="cls-9" d="M414.6,177.08a3.91,3.91,0,0,0,2.43-.79,2.63,2.63,0,0,0,1.06-2.22h1.23l0,.07a3.48,3.48,0,0,1-1.39,2.94,5.13,5.13,0,0,1-3.35,1.19,4.75,4.75,0,0,1-4-1.78,7.15,7.15,0,0,1-1.4-4.56v-.5a7.15,7.15,0,0,1,1.4-4.54,4.73,4.73,0,0,1,3.94-1.78,6.27,6.27,0,0,1,2.66.55,5.09,5.09,0,0,1,2,1.5l.06,2.76h-1.19l-.22-2.25a4,4,0,0,0-1.38-1,4.68,4.68,0,0,0-1.89-.37,3.33,3.33,0,0,0-3,1.46,6.47,6.47,0,0,0-1,3.67v.5a6.58,6.58,0,0,0,1,3.7A3.34,3.34,0,0,0,414.6,177.08Z"/><path class="cls-9" d="M421.93,171.49a6.88,6.88,0,0,1,1.51-4.59,5.43,5.43,0,0,1,8.06,0,6.83,6.83,0,0,1,1.52,4.59v.39a6.85,6.85,0,0,1-1.51,4.6,5,5,0,0,1-4,1.79,5.07,5.07,0,0,1-4.05-1.79,6.85,6.85,0,0,1-1.51-4.6Zm1.39.39a6,6,0,0,0,1.1,3.7,3.86,3.86,0,0,0,6.11,0,6,6,0,0,0,1.1-3.7v-.39a6.06,6.06,0,0,0-1.11-3.68,3.84,3.84,0,0,0-6.1,0,6.06,6.06,0,0,0-1.1,3.68Zm5.45-11.37h1.7l0,.07-2.89,3h-1.24Z"/><path class="cls-9" d="M438.29,165.34l.17,2.11v.15a4.47,4.47,0,0,1,1.46-1.83,3.63,3.63,0,0,1,2.18-.66,3,3,0,0,1,.52,0,2.57,2.57,0,0,1,.41.09l-.18,1.31-1-.07a3.15,3.15,0,0,0-2.15.74,4.14,4.14,0,0,0-1.2,2.05v7.57l1.89.15v1h-5.16v-1l1.89-.15v-10.3l-1.89-.16v-1h3.1Z"/><path class="cls-9" d="M447.83,165.34l.18,2.11v.15a4.45,4.45,0,0,1,1.45-1.83,3.69,3.69,0,0,1,2.19-.66,2.78,2.78,0,0,1,.51,0,2.73,2.73,0,0,1,.42.09l-.19,1.31-1-.07a3.14,3.14,0,0,0-2.15.74,4.14,4.14,0,0,0-1.2,2.05v7.57l1.89.15v1h-5.16v-1l1.89-.15v-10.3l-1.89-.16v-1h3.09Z"/><path class="cls-9" d="M459.69,178.27a5,5,0,0,1-3.92-1.76,6.43,6.43,0,0,1-1.56-4.45v-.65a6.68,6.68,0,0,1,1.55-4.51,4.75,4.75,0,0,1,3.74-1.79,4.63,4.63,0,0,1,3.63,1.47,5.71,5.71,0,0,1,1.32,3.94v1.2h-8.86v.34a5.67,5.67,0,0,0,1.13,3.58,3.6,3.6,0,0,0,3,1.44,6,6,0,0,0,2.2-.36,4.32,4.32,0,0,0,1.56-1l.6,1a5.19,5.19,0,0,1-1.79,1.19A6.87,6.87,0,0,1,459.69,178.27Zm-.19-12a3.32,3.32,0,0,0-2.58,1.19,5.15,5.15,0,0,0-1.23,3l0,.06h7.35v-.35a4.07,4.07,0,0,0-1-2.76A3.25,3.25,0,0,0,459.5,166.3Z"/><path class="cls-9" d="M467,171.79a8.3,8.3,0,0,1,1.28-4.86,4.1,4.1,0,0,1,3.56-1.82,4.32,4.32,0,0,1,2.31.59,4.72,4.72,0,0,1,1.62,1.67l.16-2h1.17v12.52a5.47,5.47,0,0,1-1.31,3.86,4.7,4.7,0,0,1-3.65,1.42,9,9,0,0,1-1.93-.22,7.36,7.36,0,0,1-1.79-.61l.37-1.18a7.8,7.8,0,0,0,1.58.56,7.54,7.54,0,0,0,1.74.2,3.35,3.35,0,0,0,2.7-1.07,4.45,4.45,0,0,0,.9-3v-1.61a4.44,4.44,0,0,1-1.61,1.5,4.87,4.87,0,0,1-2.29.52,4.18,4.18,0,0,1-3.53-1.7A7.41,7.41,0,0,1,467,172Zm1.39.24a6.45,6.45,0,0,0,.92,3.65,3.13,3.13,0,0,0,2.76,1.37,3.88,3.88,0,0,0,2.25-.62,4.06,4.06,0,0,0,1.39-1.71v-5.89a4.52,4.52,0,0,0-1.33-1.81,3.59,3.59,0,0,0-2.29-.69,3,3,0,0,0-2.76,1.52,7.37,7.37,0,0,0-.94,3.94Z"/><path class="cls-9" d="M480.25,171.49a6.83,6.83,0,0,1,1.52-4.59,5.43,5.43,0,0,1,8.06,0,6.89,6.89,0,0,1,1.52,4.59v.39a6.86,6.86,0,0,1-1.52,4.6,5.43,5.43,0,0,1-8.06,0,6.81,6.81,0,0,1-1.52-4.6Zm1.39.39a6.1,6.1,0,0,0,1.1,3.7,3.86,3.86,0,0,0,6.11,0,6,6,0,0,0,1.1-3.7v-.39a6.12,6.12,0,0,0-1.1-3.68,3.85,3.85,0,0,0-6.11,0,6.12,6.12,0,0,0-1.1,3.68Z"/><path class="cls-9" d="M502.71,169.26h-1.14l-.16-1.8a3.58,3.58,0,0,0-1.32-.85,4.89,4.89,0,0,0-1.82-.31A3.41,3.41,0,0,0,496,167a2,2,0,0,0-.76,1.56,1.86,1.86,0,0,0,.65,1.45,6.42,6.42,0,0,0,2.62,1,8.44,8.44,0,0,1,3.35,1.37,2.88,2.88,0,0,1,1.11,2.38,3.07,3.07,0,0,1-1.27,2.56,5.34,5.34,0,0,1-3.35,1,7.56,7.56,0,0,1-2.54-.4,6,6,0,0,1-2-1.1v-2.56H495l.2,1.81a3.28,3.28,0,0,0,1.41.81,6.18,6.18,0,0,0,1.78.25,3.87,3.87,0,0,0,2.38-.66,2,2,0,0,0,.86-1.62,2.05,2.05,0,0,0-.72-1.56,5.79,5.79,0,0,0-2.62-1.09,8.72,8.72,0,0,1-3.32-1.31,2.68,2.68,0,0,1-1.08-2.28,3.05,3.05,0,0,1,1.22-2.45,4.87,4.87,0,0,1,3.21-1,7.24,7.24,0,0,1,2.52.42,5.09,5.09,0,0,1,1.86,1.16Z"/><path class="cls-9" d="M511,166.38v-1h3.12l.12,2.1a4.41,4.41,0,0,1,1.62-1.72,4.51,4.51,0,0,1,2.4-.61A3.62,3.62,0,0,1,522,168a5.07,5.07,0,0,1,1.61-2.11,4.24,4.24,0,0,1,2.56-.76,3.78,3.78,0,0,1,3.1,1.34,6.51,6.51,0,0,1,1.1,4.18v6.2l1.89.16v1h-5.18v-1l1.89-.16V170.6a5.22,5.22,0,0,0-.82-3.31,2.85,2.85,0,0,0-2.28-1,3.06,3.06,0,0,0-2.5,1A5,5,0,0,0,522.3,170v.17a1.41,1.41,0,0,1,0,.22v6.42l1.89.15v1H519v-1l1.89-.15V170.6a5.13,5.13,0,0,0-.83-3.28,2.83,2.83,0,0,0-2.28-1,3.47,3.47,0,0,0-2.35.75,4,4,0,0,0-1.21,2v7.73l1.89.15v1H511v-1l1.89-.15v-10.3Z"/><path class="cls-9" d="M543.21,175.93a4.37,4.37,0,0,1-1.62,1.73,4.73,4.73,0,0,1-2.42.61,3.81,3.81,0,0,1-3.1-1.36,6.55,6.55,0,0,1-1.12-4.22v-6.15l-1.55-.16v-1h2.93v7.37a5.51,5.51,0,0,0,.78,3.33,2.65,2.65,0,0,0,2.22,1,4.13,4.13,0,0,0,2.51-.7,3.73,3.73,0,0,0,1.32-1.95v-7.86l-1.79-.16v-1h3.18v11.5l1.68.15v1h-2.9Z"/><path class="cls-9" d="M548.18,177l1.89-.15v-10.3l-1.89-.16v-1h3.27v11.5l1.89.15v1h-5.16Zm3.27-15.28h-1.38v-2h1.38Z"/><path class="cls-9" d="M558.86,162.1v3.24h2.76v1.15h-2.76v8.26a2.68,2.68,0,0,0,.45,1.76,1.48,1.48,0,0,0,1.19.53c.22,0,.44,0,.65,0l.74-.1.21,1a3.47,3.47,0,0,1-.85.23,5.52,5.52,0,0,1-1,.09,2.56,2.56,0,0,1-2.06-.85,4,4,0,0,1-.74-2.67v-8.26H555.3v-1.15h2.16V162.1Z"/><path class="cls-9" d="M563.94,171.49a6.89,6.89,0,0,1,1.52-4.59,5.43,5.43,0,0,1,8.06,0,6.83,6.83,0,0,1,1.52,4.59v.39a6.85,6.85,0,0,1-1.51,4.6,5.44,5.44,0,0,1-8.07,0,6.86,6.86,0,0,1-1.52-4.6Zm1.4.39a6,6,0,0,0,1.1,3.7,3.86,3.86,0,0,0,6.11,0,6.1,6.1,0,0,0,1.1-3.7v-.39a6.06,6.06,0,0,0-1.11-3.68,3.84,3.84,0,0,0-6.1,0,6.06,6.06,0,0,0-1.1,3.68Z"/><path class="cls-9" d="M582.71,166.38v-1h3l.17,2a4.37,4.37,0,0,1,4-2.2,4.05,4.05,0,0,1,3.53,1.82,8.3,8.3,0,0,1,1.28,4.86V172a7.37,7.37,0,0,1-1.28,4.54,4.15,4.15,0,0,1-3.51,1.7,5,5,0,0,1-2.31-.51,4.34,4.34,0,0,1-1.62-1.45v5.39l1.89.15v1.05h-5.16v-1.05l1.89-.15V166.54Zm10.6,5.41a7.37,7.37,0,0,0-.95-3.94,3.08,3.08,0,0,0-2.79-1.52,3.6,3.6,0,0,0-2.27.67,4.06,4.06,0,0,0-1.32,1.75v6.1a3.87,3.87,0,0,0,1.37,1.64,4,4,0,0,0,2.25.59,3.13,3.13,0,0,0,2.76-1.38,6.38,6.38,0,0,0,.95-3.67Z"/><path class="cls-9" d="M602.49,178.27a5,5,0,0,1-3.92-1.76,6.47,6.47,0,0,1-1.55-4.45v-.65a6.68,6.68,0,0,1,1.55-4.51,4.75,4.75,0,0,1,3.74-1.79,4.63,4.63,0,0,1,3.63,1.47,5.71,5.71,0,0,1,1.32,3.94v1.2H598.4v.34a5.67,5.67,0,0,0,1.13,3.58,3.58,3.58,0,0,0,3,1.44,6.05,6.05,0,0,0,2.21-.36,4.32,4.32,0,0,0,1.56-1l.59,1a5.06,5.06,0,0,1-1.78,1.19A6.89,6.89,0,0,1,602.49,178.27Zm-.18-12a3.32,3.32,0,0,0-2.58,1.19,5.15,5.15,0,0,0-1.23,3l0,.06h7.35v-.35a4.07,4.07,0,0,0-1-2.76A3.26,3.26,0,0,0,602.31,166.3Z"/><path class="cls-9" d="M609.74,171.79a8.3,8.3,0,0,1,1.27-4.86,4.07,4.07,0,0,1,3.54-1.82,4.53,4.53,0,0,1,2.26.54,4.42,4.42,0,0,1,1.59,1.57l.14-1.88h1.22V181.7l1.89.15v1.05h-5.17v-1.05l1.89-.15v-5.34a4.32,4.32,0,0,1-1.6,1.41,4.83,4.83,0,0,1-2.24.5,4.16,4.16,0,0,1-3.52-1.7,7.41,7.41,0,0,1-1.27-4.54Zm1.41.24a6.58,6.58,0,0,0,.91,3.68,3.07,3.07,0,0,0,2.74,1.37,3.8,3.8,0,0,0,2.18-.59,3.87,3.87,0,0,0,1.39-1.62v-6.19A4.65,4.65,0,0,0,617,167a3.47,3.47,0,0,0-2.2-.67,3,3,0,0,0-2.75,1.53,7.54,7.54,0,0,0-.92,4Z"/><path class="cls-9" d="M632.23,175.93a4.3,4.3,0,0,1-1.62,1.73,4.7,4.7,0,0,1-2.42.61,3.82,3.82,0,0,1-3.1-1.36,6.55,6.55,0,0,1-1.12-4.22v-6.15l-1.55-.16v-1h2.93v7.37a5.51,5.51,0,0,0,.78,3.33,2.67,2.67,0,0,0,2.22,1,4.16,4.16,0,0,0,2.52-.7,3.71,3.71,0,0,0,1.31-1.95v-7.86l-1.78-.16v-1h3.17v11.5l1.69.15v1h-2.9Z"/><path class="cls-9" d="M642.83,178.27a5,5,0,0,1-3.92-1.76,6.43,6.43,0,0,1-1.56-4.45v-.65a6.68,6.68,0,0,1,1.55-4.51,4.77,4.77,0,0,1,3.74-1.79,4.63,4.63,0,0,1,3.63,1.47,5.71,5.71,0,0,1,1.33,3.94v1.2h-8.87v.34a5.62,5.62,0,0,0,1.14,3.58,3.58,3.58,0,0,0,3,1.44,6,6,0,0,0,2.2-.36,4.36,4.36,0,0,0,1.57-1l.59,1a5.1,5.1,0,0,1-1.79,1.19A6.8,6.8,0,0,1,642.83,178.27Zm-.19-12a3.32,3.32,0,0,0-2.58,1.19,5.14,5.14,0,0,0-1.22,3l0,.06h7.36v-.35a4,4,0,0,0-1-2.76A3.25,3.25,0,0,0,642.64,166.3Z"/><path class="cls-9" d="M649.82,177l1.89-.15v-10.3l-1.89-.16v-1h3.12l.13,2.22a4.33,4.33,0,0,1,4.06-2.45,3.86,3.86,0,0,1,3.11,1.26,6,6,0,0,1,1.06,3.93v6.54l1.89.15v1H658v-1l1.89-.15v-6.53a4.67,4.67,0,0,0-.8-3.08,2.92,2.92,0,0,0-2.29-.9,3.63,3.63,0,0,0-2.39.77,4.38,4.38,0,0,0-1.33,2.07v7.67L655,177v1h-5.17Z"/><path class="cls-9" d="M665.26,171.49a6.83,6.83,0,0,1,1.52-4.59,5.43,5.43,0,0,1,8.06,0,6.89,6.89,0,0,1,1.52,4.59v.39a6.86,6.86,0,0,1-1.52,4.6,5.43,5.43,0,0,1-8.06,0,6.81,6.81,0,0,1-1.52-4.6Zm1.39.39a6.1,6.1,0,0,0,1.1,3.7,3.6,3.6,0,0,0,3.07,1.5,3.55,3.55,0,0,0,3-1.5,6,6,0,0,0,1.11-3.7v-.39a6.06,6.06,0,0,0-1.11-3.68,3.85,3.85,0,0,0-6.11,0,6.12,6.12,0,0,0-1.1,3.68Z"/><path class="cls-9" d="M687.72,169.26h-1.14l-.16-1.8a3.54,3.54,0,0,0-1.31-.85,4.94,4.94,0,0,0-1.83-.31A3.41,3.41,0,0,0,681,167a2,2,0,0,0-.76,1.56,1.84,1.84,0,0,0,.66,1.45,6.29,6.29,0,0,0,2.61,1,8.44,8.44,0,0,1,3.35,1.37,2.89,2.89,0,0,1,1.12,2.38,3.1,3.1,0,0,1-1.27,2.56,5.39,5.39,0,0,1-3.36,1,7.6,7.6,0,0,1-2.54-.4,6.09,6.09,0,0,1-2-1.1v-2.56H680l.2,1.81a3.28,3.28,0,0,0,1.41.81,6.18,6.18,0,0,0,1.78.25,3.87,3.87,0,0,0,2.38-.66,2,2,0,0,0,.87-1.62,2.06,2.06,0,0,0-.73-1.56,5.75,5.75,0,0,0-2.61-1.09,8.71,8.71,0,0,1-3.33-1.31,2.68,2.68,0,0,1-1.08-2.28,3.08,3.08,0,0,1,1.22-2.45,4.87,4.87,0,0,1,3.21-1,7.24,7.24,0,0,1,2.52.42,5.09,5.09,0,0,1,1.86,1.16Z"/><path class="cls-9" d="M701.81,178.27a5,5,0,0,1-3.92-1.76,6.47,6.47,0,0,1-1.55-4.45v-.65a6.63,6.63,0,0,1,1.55-4.51,4.74,4.74,0,0,1,3.74-1.79,4.66,4.66,0,0,1,3.63,1.47,5.71,5.71,0,0,1,1.32,3.94v1.2h-8.86v.34a5.61,5.61,0,0,0,1.13,3.58,3.58,3.58,0,0,0,3,1.44,6.09,6.09,0,0,0,2.21-.36,4.32,4.32,0,0,0,1.56-1l.59,1a5.15,5.15,0,0,1-1.78,1.19A6.89,6.89,0,0,1,701.81,178.27Zm-.18-12a3.31,3.31,0,0,0-2.58,1.19,5.15,5.15,0,0,0-1.23,3l0,.06h7.35v-.35a4,4,0,0,0-1-2.76A3.24,3.24,0,0,0,701.63,166.3Z"/><path class="cls-9" d="M714.46,166.38v-1h3l.18,2a4.36,4.36,0,0,1,3.95-2.2,4.07,4.07,0,0,1,3.54,1.82,8.3,8.3,0,0,1,1.28,4.86V172a7.37,7.37,0,0,1-1.28,4.54,4.15,4.15,0,0,1-3.51,1.7,5,5,0,0,1-2.32-.51,4.34,4.34,0,0,1-1.62-1.45v5.39l1.89.15v1.05h-5.16v-1.05l1.89-.15V166.54Zm10.6,5.41a7.28,7.28,0,0,0-.95-3.94,3.06,3.06,0,0,0-2.78-1.52,3.61,3.61,0,0,0-2.28.67,4.22,4.22,0,0,0-1.32,1.75v6.1a3.89,3.89,0,0,0,1.38,1.64,4,4,0,0,0,2.24.59,3.14,3.14,0,0,0,2.77-1.38,6.38,6.38,0,0,0,.94-3.67Z"/><path class="cls-9" d="M731.72,165.34l.18,2.11v.15a4.45,4.45,0,0,1,1.45-1.83,3.66,3.66,0,0,1,2.19-.66,2.85,2.85,0,0,1,.51,0,2.34,2.34,0,0,1,.41.09l-.18,1.31-1-.07a3.14,3.14,0,0,0-2.15.74,4,4,0,0,0-1.2,2.05v7.57l1.88.15v1h-5.16v-1l1.9-.15v-10.3l-1.9-.16v-1h3.1Z"/><path class="cls-9" d="M743.57,178.27a5,5,0,0,1-3.92-1.76,6.47,6.47,0,0,1-1.55-4.45v-.65a6.68,6.68,0,0,1,1.55-4.51,4.75,4.75,0,0,1,3.74-1.79,4.63,4.63,0,0,1,3.63,1.47,5.71,5.71,0,0,1,1.32,3.94v1.2h-8.86v.34a5.67,5.67,0,0,0,1.13,3.58,3.58,3.58,0,0,0,3,1.44,6.05,6.05,0,0,0,2.21-.36,4.32,4.32,0,0,0,1.56-1l.59,1a5.06,5.06,0,0,1-1.78,1.19A6.89,6.89,0,0,1,743.57,178.27Zm-.18-12a3.32,3.32,0,0,0-2.58,1.19,5.15,5.15,0,0,0-1.23,3l0,.06H747v-.35a4.07,4.07,0,0,0-1-2.76A3.26,3.26,0,0,0,743.39,166.3Z"/><path class="cls-9" d="M756.18,177.08a3.91,3.91,0,0,0,2.43-.79,2.61,2.61,0,0,0,1.06-2.22h1.23l0,.07a3.5,3.5,0,0,1-1.38,2.94,5.17,5.17,0,0,1-3.36,1.19,4.75,4.75,0,0,1-4-1.78,7.15,7.15,0,0,1-1.4-4.56v-.5a7.15,7.15,0,0,1,1.4-4.54,4.74,4.74,0,0,1,3.95-1.78,6.26,6.26,0,0,1,2.65.55,5,5,0,0,1,2,1.5l.06,2.76h-1.18l-.22-2.25a4.06,4.06,0,0,0-1.39-1,4.67,4.67,0,0,0-1.88-.37,3.35,3.35,0,0,0-3,1.46,6.47,6.47,0,0,0-1,3.67v.5a6.51,6.51,0,0,0,1,3.7A3.33,3.33,0,0,0,756.18,177.08Z"/><path class="cls-9" d="M763.42,177l1.89-.15v-10.3l-1.89-.16v-1h3.27v11.5l1.89.15v1h-5.16Zm3.27-15.28h-1.38v-2h1.38Z"/><path class="cls-9" d="M780,169.26h-1.13l-.17-1.8a3.46,3.46,0,0,0-1.31-.85,4.94,4.94,0,0,0-1.83-.31,3.41,3.41,0,0,0-2.28.66,2,2,0,0,0-.76,1.56,1.84,1.84,0,0,0,.66,1.45,6.36,6.36,0,0,0,2.61,1,8.44,8.44,0,0,1,3.35,1.37,2.86,2.86,0,0,1,1.12,2.38,3.1,3.1,0,0,1-1.27,2.56,5.39,5.39,0,0,1-3.36,1,7.5,7.5,0,0,1-2.53-.4,6,6,0,0,1-2-1.1v-2.56h1.12l.2,1.81a3.28,3.28,0,0,0,1.41.81,6.18,6.18,0,0,0,1.78.25,3.85,3.85,0,0,0,2.38-.66,2,2,0,0,0,.87-1.62,2,2,0,0,0-.73-1.56,5.75,5.75,0,0,0-2.61-1.09,8.65,8.65,0,0,1-3.32-1.31,2.67,2.67,0,0,1-1.09-2.28,3.08,3.08,0,0,1,1.22-2.45,4.87,4.87,0,0,1,3.21-1,7.24,7.24,0,0,1,2.52.42,5,5,0,0,1,1.86,1.16Z"/><path class="cls-9" d="M782.8,171.49a6.88,6.88,0,0,1,1.51-4.59,5.43,5.43,0,0,1,8.06,0,6.83,6.83,0,0,1,1.52,4.59v.39a6.85,6.85,0,0,1-1.51,4.6,5,5,0,0,1-4,1.79,5.07,5.07,0,0,1-4.05-1.79,6.85,6.85,0,0,1-1.51-4.6Zm1.39.39a6,6,0,0,0,1.1,3.7,3.86,3.86,0,0,0,6.11,0,6,6,0,0,0,1.1-3.7v-.39a6.12,6.12,0,0,0-1.1-3.68,3.85,3.85,0,0,0-6.11,0,6.06,6.06,0,0,0-1.1,3.68Z"/><path class="cls-9" d="M409.15,205.79l1.89-.15v-10.3l-1.89-.16v-1h3.27v11.5l1.89.15v1h-5.16Zm3.27-15.28H411v-2h1.38Z"/><path class="cls-9" d="M425.36,205a4.39,4.39,0,0,1-1.61,1.54,4.76,4.76,0,0,1-2.32.54,4.15,4.15,0,0,1-3.52-1.7,7.41,7.41,0,0,1-1.27-4.54v-.24a8.3,8.3,0,0,1,1.27-4.86,4,4,0,0,1,3.54-1.82,4.27,4.27,0,0,1,3.87,2.14v-6.32l-1.89-.15v-1h3.29v17.1l1.88.15v1h-3.13ZM418,200.83a6.48,6.48,0,0,0,.91,3.66,3.09,3.09,0,0,0,2.74,1.36,4,4,0,0,0,2.24-.61,4.12,4.12,0,0,0,1.39-1.68v-6A4.36,4.36,0,0,0,424,195.8a3.59,3.59,0,0,0-2.26-.67,3,3,0,0,0-2.76,1.51,7.57,7.57,0,0,0-.92,4Z"/><path class="cls-9" d="M436.27,207.07a5,5,0,0,1-3.92-1.76,6.47,6.47,0,0,1-1.55-4.45v-.65a6.61,6.61,0,0,1,1.55-4.51,4.74,4.74,0,0,1,3.74-1.79,4.66,4.66,0,0,1,3.63,1.47,5.71,5.71,0,0,1,1.32,3.94v1.2h-8.86v.34a5.61,5.61,0,0,0,1.13,3.58,3.58,3.58,0,0,0,3,1.44,6.09,6.09,0,0,0,2.21-.36,4.32,4.32,0,0,0,1.56-1l.59,1a5.15,5.15,0,0,1-1.78,1.19A6.89,6.89,0,0,1,436.27,207.07Zm-.18-12a3.31,3.31,0,0,0-2.58,1.19,5.15,5.15,0,0,0-1.23,3l0,.06h7.35V199a4,4,0,0,0-1-2.76A3.24,3.24,0,0,0,436.09,195.1Z"/><path class="cls-9" d="M443.27,205.79l1.88-.15v-10.3l-1.88-.16v-1h3.11l.13,2.22a4.42,4.42,0,0,1,1.63-1.81,4.5,4.5,0,0,1,2.43-.64,3.85,3.85,0,0,1,3.11,1.26,6,6,0,0,1,1.07,3.93v6.54l1.89.15v1h-5.18v-1l1.89-.15v-6.53a4.61,4.61,0,0,0-.8-3.08,2.92,2.92,0,0,0-2.29-.9,3.63,3.63,0,0,0-2.39.77,4.36,4.36,0,0,0-1.32,2.07v7.67l1.89.15v1h-5.17Z"/><path class="cls-9" d="M462,190.89v3.25h2.76v1.15H462v8.26a2.68,2.68,0,0,0,.44,1.76,1.5,1.5,0,0,0,1.19.53c.23,0,.44,0,.66,0l.73-.1.21,1a3.38,3.38,0,0,1-.84.23,5.72,5.72,0,0,1-1,.09,2.57,2.57,0,0,1-2.06-.85,4,4,0,0,1-.74-2.67v-8.26h-2.15v-1.15h2.15v-3.25Z"/><path class="cls-9" d="M467.23,205.79l1.89-.15v-10.3l-1.89-.16v-1h3.27v11.5l1.89.15v1h-5.16Zm3.27-15.28h-1.38v-2h1.38Z"/><path class="cls-9" d="M474.46,205.79l1.89-.15V195.29h-2.07v-1.15h2.07v-1.62a4.23,4.23,0,0,1,1.11-3.13,4.18,4.18,0,0,1,3.07-1.1,7.05,7.05,0,0,1,1.56.18,10.53,10.53,0,0,1,1.63.51l-.22,1.21a10,10,0,0,0-1.37-.46,7,7,0,0,0-1.52-.16,2.81,2.81,0,0,0-2.14.76,3.08,3.08,0,0,0-.73,2.19v1.62H485v11.5l1.89.15v1h-5.16v-1l1.89-.15V195.29h-5.83v10.35l1.89.15v1h-5.17Z"/><path class="cls-9" d="M494.1,205.88a3.91,3.91,0,0,0,2.43-.79,2.65,2.65,0,0,0,1.06-2.22h1.23l0,.07a3.48,3.48,0,0,1-1.39,2.94,5.13,5.13,0,0,1-3.35,1.19,4.78,4.78,0,0,1-4-1.78,7.15,7.15,0,0,1-1.4-4.56v-.5a7.15,7.15,0,0,1,1.4-4.54,4.73,4.73,0,0,1,3.94-1.78,6.27,6.27,0,0,1,2.66.55,5.09,5.09,0,0,1,2,1.5l.06,2.76h-1.19l-.22-2.25a4,4,0,0,0-1.38-1,4.52,4.52,0,0,0-1.89-.37,3.33,3.33,0,0,0-3,1.46,6.47,6.47,0,0,0-1,3.67v.5a6.58,6.58,0,0,0,1,3.7A3.34,3.34,0,0,0,494.1,205.88Z"/><path class="cls-9" d="M510.09,206.82c-.09-.43-.16-.8-.2-1.11a7.57,7.57,0,0,1-.06-1,5.59,5.59,0,0,1-1.85,1.65,5.22,5.22,0,0,1-2.61.66,4,4,0,0,1-2.85-1,3.41,3.41,0,0,1-1-2.61,3.21,3.21,0,0,1,1.49-2.78,7,7,0,0,1,4.06-1h2.77V198a2.68,2.68,0,0,0-.86-2.13,3.49,3.49,0,0,0-2.42-.78,6.07,6.07,0,0,0-1.91.29,4.31,4.31,0,0,0-1.44.78l-.12,1.7h-1.14v-2.44a7.2,7.2,0,0,1,2.08-1.1,7.84,7.84,0,0,1,2.58-.42A5,5,0,0,1,510,195a3.78,3.78,0,0,1,1.26,3.06v6.24c0,.25,0,.5,0,.74a5.35,5.35,0,0,0,.08.7l1.25.08v1Zm-4.57-1a5,5,0,0,0,2.65-.7,4.09,4.09,0,0,0,1.66-1.82v-2.54H507a5.22,5.22,0,0,0-3,.79,2.36,2.36,0,0,0-1.13,2,2.1,2.1,0,0,0,.7,1.65A2.78,2.78,0,0,0,505.52,205.82Z"/><path class="cls-9" d="M517.53,194.14l.18,2.11v.15a4.45,4.45,0,0,1,1.45-1.83,3.69,3.69,0,0,1,2.19-.66,2.78,2.78,0,0,1,.51,0,1.9,1.9,0,0,1,.42.09l-.19,1.31-1-.07a3.15,3.15,0,0,0-2.15.74,4.14,4.14,0,0,0-1.2,2v7.57l1.89.15v1h-5.16v-1l1.89-.15v-10.3l-1.89-.16v-1h3.09Z"/><path class="cls-9" d="M538.51,206.82c-.09-.43-.16-.8-.2-1.11s0-.63,0-1a5.73,5.73,0,0,1-1.86,1.65,5.17,5.17,0,0,1-2.61.66,4,4,0,0,1-2.85-1,3.44,3.44,0,0,1-1-2.61,3.2,3.2,0,0,1,1.5-2.78,7,7,0,0,1,4.05-1h2.78V198a2.69,2.69,0,0,0-.87-2.13,3.46,3.46,0,0,0-2.41-.78,6,6,0,0,0-1.91.29,4.27,4.27,0,0,0-1.45.78l-.11,1.7h-1.15v-2.44a7.33,7.33,0,0,1,2.08-1.1,7.84,7.84,0,0,1,2.58-.42,5,5,0,0,1,3.34,1.06,3.76,3.76,0,0,1,1.27,3.06v6.24c0,.25,0,.5,0,.74s0,.47.08.7l1.25.08v1Zm-4.57-1a5,5,0,0,0,2.66-.7,4.14,4.14,0,0,0,1.66-1.82v-2.54h-2.8a5.22,5.22,0,0,0-3,.79,2.38,2.38,0,0,0-1.13,2,2.1,2.1,0,0,0,.7,1.65A2.78,2.78,0,0,0,533.94,205.82Z"/><path class="cls-9" d="M552.37,195.18l-1.56.12,3.13,8.34.4,1.49h.07l.44-1.49,3.09-8.34-1.57-.12v-1h4.22v1l-1.23.11-4.43,11.53h-1.11l-4.44-11.53-1.23-.11v-1h4.22Z"/><path class="cls-9" d="M567.51,207.07a5,5,0,0,1-3.92-1.76,6.43,6.43,0,0,1-1.56-4.45v-.65a6.66,6.66,0,0,1,1.55-4.51,4.75,4.75,0,0,1,3.74-1.79,4.63,4.63,0,0,1,3.63,1.47,5.71,5.71,0,0,1,1.32,3.94v1.2h-8.86v.34a5.67,5.67,0,0,0,1.13,3.58,3.6,3.6,0,0,0,3,1.44,6,6,0,0,0,2.2-.36,4.32,4.32,0,0,0,1.56-1l.6,1a5.19,5.19,0,0,1-1.79,1.19A6.87,6.87,0,0,1,567.51,207.07Zm-.19-12a3.32,3.32,0,0,0-2.58,1.19,5.08,5.08,0,0,0-1.22,3l0,.06h7.35V199a4.07,4.07,0,0,0-1-2.76A3.25,3.25,0,0,0,567.32,195.1Z"/><path class="cls-9" d="M574.81,200.59a8.3,8.3,0,0,1,1.28-4.86,4.1,4.1,0,0,1,3.56-1.82,4.32,4.32,0,0,1,2.31.59,4.72,4.72,0,0,1,1.62,1.67l.16-2h1.17v12.52a5.42,5.42,0,0,1-1.31,3.86,4.7,4.7,0,0,1-3.65,1.42,9,9,0,0,1-1.93-.22,7.36,7.36,0,0,1-1.79-.61l.37-1.18a7.8,7.8,0,0,0,1.58.56,7.56,7.56,0,0,0,1.75.2,3.35,3.35,0,0,0,2.69-1.07,4.45,4.45,0,0,0,.9-3v-1.61a4.36,4.36,0,0,1-1.61,1.5,4.87,4.87,0,0,1-2.29.52,4.18,4.18,0,0,1-3.53-1.7,7.41,7.41,0,0,1-1.28-4.54Zm1.39.24a6.45,6.45,0,0,0,.92,3.65,3.13,3.13,0,0,0,2.76,1.37,3.93,3.93,0,0,0,2.26-.62,4.11,4.11,0,0,0,1.38-1.71v-5.89a4.52,4.52,0,0,0-1.33-1.81,3.57,3.57,0,0,0-2.29-.69,3,3,0,0,0-2.76,1.52,7.37,7.37,0,0,0-.94,3.94Z"/><path class="cls-9" d="M593.6,207.07a5,5,0,0,1-3.92-1.76,6.43,6.43,0,0,1-1.56-4.45v-.65a6.66,6.66,0,0,1,1.55-4.51,4.77,4.77,0,0,1,3.74-1.79,4.63,4.63,0,0,1,3.63,1.47,5.71,5.71,0,0,1,1.32,3.94v1.2H589.5v.34a5.62,5.62,0,0,0,1.14,3.58,3.58,3.58,0,0,0,3,1.44,6,6,0,0,0,2.2-.36,4.36,4.36,0,0,0,1.57-1l.59,1a5.1,5.1,0,0,1-1.79,1.19A6.84,6.84,0,0,1,593.6,207.07Zm-.19-12a3.32,3.32,0,0,0-2.58,1.19,5.14,5.14,0,0,0-1.22,3l0,.06H597V199a4.07,4.07,0,0,0-1-2.76A3.25,3.25,0,0,0,593.41,195.1Z"/><path class="cls-9" d="M604,190.89v3.25h2.76v1.15H604v8.26a2.74,2.74,0,0,0,.44,1.76,1.5,1.5,0,0,0,1.19.53c.23,0,.44,0,.66,0l.73-.1.21,1a3.38,3.38,0,0,1-.84.23,5.72,5.72,0,0,1-1,.09,2.57,2.57,0,0,1-2.06-.85,4,4,0,0,1-.74-2.67v-8.26h-2.15v-1.15h2.15v-3.25Z"/><path class="cls-9" d="M618,206.82c-.09-.43-.16-.8-.2-1.11a7.56,7.56,0,0,1,0-1,5.73,5.73,0,0,1-1.86,1.65,5.17,5.17,0,0,1-2.61.66,4,4,0,0,1-2.85-1,3.44,3.44,0,0,1-1-2.61,3.2,3.2,0,0,1,1.5-2.78,7,7,0,0,1,4.05-1h2.78V198a2.69,2.69,0,0,0-.87-2.13,3.47,3.47,0,0,0-2.42-.78,6,6,0,0,0-1.9.29,4.27,4.27,0,0,0-1.45.78l-.11,1.7h-1.15v-2.44a7.2,7.2,0,0,1,2.08-1.1,7.84,7.84,0,0,1,2.58-.42,5,5,0,0,1,3.34,1.06,3.79,3.79,0,0,1,1.27,3.06v6.24c0,.25,0,.5,0,.74a5.35,5.35,0,0,0,.08.7l1.25.08v1Zm-4.57-1a5,5,0,0,0,2.66-.7,4.14,4.14,0,0,0,1.66-1.82v-2.54H615a5.22,5.22,0,0,0-3,.79,2.38,2.38,0,0,0-1.13,2,2.1,2.1,0,0,0,.7,1.65A2.78,2.78,0,0,0,613.44,205.82Z"/><path class="cls-9" d="M627.81,205.88a4,4,0,0,0,2.44-.79,2.64,2.64,0,0,0,1-2.22h1.23l0,.07a3.5,3.5,0,0,1-1.38,2.94,5.13,5.13,0,0,1-3.36,1.19,4.75,4.75,0,0,1-3.95-1.78,7.09,7.09,0,0,1-1.41-4.56v-.5a7.09,7.09,0,0,1,1.41-4.54,4.72,4.72,0,0,1,3.94-1.78,6.22,6.22,0,0,1,2.65.55,5,5,0,0,1,2,1.5l.06,2.76h-1.18l-.22-2.25a4,4,0,0,0-1.39-1,4.51,4.51,0,0,0-1.88-.37,3.35,3.35,0,0,0-3,1.46,6.55,6.55,0,0,0-1,3.67v.5a6.51,6.51,0,0,0,1,3.7A3.33,3.33,0,0,0,627.81,205.88Zm.36,1.05-.13.75a2.83,2.83,0,0,1,1.48.56,1.75,1.75,0,0,1,.56,1.44,2,2,0,0,1-.91,1.71,4.61,4.61,0,0,1-2.62.63l-.08-.91a3.86,3.86,0,0,0,1.74-.36,1.12,1.12,0,0,0,.71-1.05,1,1,0,0,0-.47-.93,4.81,4.81,0,0,0-1.68-.36l.32-1.48Z"/><path class="cls-9" d="M643.8,206.82c-.09-.43-.15-.8-.19-1.11a7.57,7.57,0,0,1-.06-1,5.63,5.63,0,0,1-1.86,1.65,5.17,5.17,0,0,1-2.61.66,4,4,0,0,1-2.85-1,3.44,3.44,0,0,1-1-2.61,3.2,3.2,0,0,1,1.5-2.78,7,7,0,0,1,4.06-1h2.77V198a2.69,2.69,0,0,0-.87-2.13,3.46,3.46,0,0,0-2.41-.78,6,6,0,0,0-1.91.29,4.27,4.27,0,0,0-1.45.78l-.11,1.7h-1.15v-2.44a7.33,7.33,0,0,1,2.08-1.1,7.84,7.84,0,0,1,2.58-.42,5,5,0,0,1,3.34,1.06,3.76,3.76,0,0,1,1.27,3.06v6.24c0,.25,0,.5,0,.74a5.35,5.35,0,0,0,.07.7l1.25.08v1Zm.5-17.57a2.41,2.41,0,0,1-.64,1.72,2.08,2.08,0,0,1-1.59.67,3,3,0,0,1-1.75-.64,2.75,2.75,0,0,0-1.51-.64,1.17,1.17,0,0,0-.92.41,1.47,1.47,0,0,0-.37,1l-.92-.21a2.47,2.47,0,0,1,.62-1.7,2.07,2.07,0,0,1,1.59-.68,3.17,3.17,0,0,1,1.71.64,3,3,0,0,0,1.55.65,1.19,1.19,0,0,0,.92-.42,1.53,1.53,0,0,0,.38-1.07Zm-5.07,16.57a5,5,0,0,0,2.66-.7,4.14,4.14,0,0,0,1.66-1.82v-2.54h-2.8a5.24,5.24,0,0,0-3,.79,2.38,2.38,0,0,0-1.13,2,2.14,2.14,0,0,0,.7,1.65A2.78,2.78,0,0,0,639.23,205.82Z"/><path class="cls-9" d="M648.24,200.29a6.87,6.87,0,0,1,1.52-4.59,5.43,5.43,0,0,1,8.06,0,6.82,6.82,0,0,1,1.52,4.59v.39a6.87,6.87,0,0,1-1.51,4.6,5,5,0,0,1-4,1.79,5.07,5.07,0,0,1-4-1.79,6.88,6.88,0,0,1-1.52-4.6Zm1.4.39a6,6,0,0,0,1.1,3.7,3.86,3.86,0,0,0,6.11,0,6.1,6.1,0,0,0,1.1-3.7v-.39a6.06,6.06,0,0,0-1.11-3.68,3.84,3.84,0,0,0-6.1,0,6.06,6.06,0,0,0-1.1,3.68Z"/><path class="cls-9" d="M667.38,200.59a8.3,8.3,0,0,1,1.27-4.86,4.07,4.07,0,0,1,3.54-1.82,4.53,4.53,0,0,1,2.26.54A4.42,4.42,0,0,1,676,196l.14-1.88h1.22V210.5l1.89.15v1h-5.17v-1l1.89-.15v-5.34a4.32,4.32,0,0,1-1.6,1.41,4.83,4.83,0,0,1-2.24.5,4.16,4.16,0,0,1-3.52-1.7,7.41,7.41,0,0,1-1.27-4.54Zm1.4.24a6.66,6.66,0,0,0,.91,3.68,3.09,3.09,0,0,0,2.75,1.37,3.8,3.8,0,0,0,2.18-.59,3.94,3.94,0,0,0,1.39-1.62v-6.19a4.76,4.76,0,0,0-1.35-1.71,3.47,3.47,0,0,0-2.2-.67,3,3,0,0,0-2.76,1.53,7.64,7.64,0,0,0-.92,4Z"/><path class="cls-9" d="M689.87,204.73a4.37,4.37,0,0,1-1.62,1.73,4.73,4.73,0,0,1-2.42.61,3.81,3.81,0,0,1-3.1-1.36,6.57,6.57,0,0,1-1.12-4.22v-6.15l-1.55-.16v-1H683v7.37a5.51,5.51,0,0,0,.78,3.33,2.65,2.65,0,0,0,2.22,1,4.07,4.07,0,0,0,2.51-.71,3.66,3.66,0,0,0,1.32-1.94v-7.86l-1.79-.16v-1h3.18v11.5l1.68.15v1H690Z"/><path class="cls-9" d="M700.47,207.07a5,5,0,0,1-3.92-1.76,6.43,6.43,0,0,1-1.56-4.45v-.65a6.66,6.66,0,0,1,1.55-4.51,4.75,4.75,0,0,1,3.74-1.79,4.63,4.63,0,0,1,3.63,1.47,5.71,5.71,0,0,1,1.32,3.94v1.2h-8.86v.34a5.67,5.67,0,0,0,1.13,3.58,3.6,3.6,0,0,0,3,1.44,6,6,0,0,0,2.2-.36,4.45,4.45,0,0,0,1.57-1l.59,1a5.1,5.1,0,0,1-1.79,1.19A6.87,6.87,0,0,1,700.47,207.07Zm-.19-12a3.32,3.32,0,0,0-2.58,1.19,5.08,5.08,0,0,0-1.22,3l0,.06h7.35V199a4.07,4.07,0,0,0-1-2.76A3.25,3.25,0,0,0,700.28,195.1Z"/><path class="cls-9" d="M713.24,205.79l1.89-.15V195.29h-2.08v-1.15h2.08v-1.62a4.22,4.22,0,0,1,1.1-3.13,4.18,4.18,0,0,1,3.07-1.1,7.21,7.21,0,0,1,1.57.18,10.77,10.77,0,0,1,1.62.51l-.22,1.21a9.59,9.59,0,0,0-1.37-.46,7,7,0,0,0-1.52-.16,2.82,2.82,0,0,0-2.14.76,3.08,3.08,0,0,0-.72,2.19v1.62h7.2v11.5l1.89.15v1h-5.16v-1l1.89-.15V195.29h-5.82v10.35l1.89.15v1h-5.17Z"/><path class="cls-9" d="M732.87,205.88a3.91,3.91,0,0,0,2.43-.79,2.62,2.62,0,0,0,1.06-2.22h1.23l0,.07a3.5,3.5,0,0,1-1.38,2.94,5.15,5.15,0,0,1-3.36,1.19,4.78,4.78,0,0,1-4-1.78,7.15,7.15,0,0,1-1.4-4.56v-.5a7.15,7.15,0,0,1,1.4-4.54,4.74,4.74,0,0,1,4-1.78,6.26,6.26,0,0,1,2.65.55,5,5,0,0,1,2,1.5l.06,2.76h-1.18l-.22-2.25a4.06,4.06,0,0,0-1.39-1,4.51,4.51,0,0,0-1.88-.37,3.35,3.35,0,0,0-3,1.46,6.55,6.55,0,0,0-1,3.67v.5a6.51,6.51,0,0,0,1,3.7A3.33,3.33,0,0,0,732.87,205.88Z"/><path class="cls-9" d="M748.86,206.82c-.09-.43-.16-.8-.2-1.11s0-.63,0-1a5.73,5.73,0,0,1-1.86,1.65,5.17,5.17,0,0,1-2.61.66,4,4,0,0,1-2.85-1,3.44,3.44,0,0,1-1-2.61,3.2,3.2,0,0,1,1.5-2.78,7,7,0,0,1,4.05-1h2.78V198a2.69,2.69,0,0,0-.87-2.13,3.47,3.47,0,0,0-2.42-.78,6,6,0,0,0-1.9.29,4.27,4.27,0,0,0-1.45.78l-.11,1.7h-1.15v-2.44a7.2,7.2,0,0,1,2.08-1.1,7.84,7.84,0,0,1,2.58-.42,5,5,0,0,1,3.34,1.06A3.79,3.79,0,0,1,750,198v6.24c0,.25,0,.5,0,.74s0,.47.08.7l1.25.08v1Zm-4.57-1a5,5,0,0,0,2.66-.7,4.14,4.14,0,0,0,1.66-1.82v-2.54h-2.8a5.22,5.22,0,0,0-3,.79,2.38,2.38,0,0,0-1.13,2,2.1,2.1,0,0,0,.7,1.65A2.78,2.78,0,0,0,744.29,205.82Z"/><path class="cls-9" d="M764.61,207.07a5,5,0,0,1-3.92-1.76,6.42,6.42,0,0,1-1.55-4.45v-.65a6.61,6.61,0,0,1,1.55-4.51,4.74,4.74,0,0,1,3.73-1.79,4.67,4.67,0,0,1,3.64,1.47,5.71,5.71,0,0,1,1.32,3.94v1.2h-8.86v.34a5.61,5.61,0,0,0,1.13,3.58,3.58,3.58,0,0,0,3,1.44,6,6,0,0,0,2.2-.36,4.36,4.36,0,0,0,1.57-1l.59,1a5.15,5.15,0,0,1-1.78,1.19A6.89,6.89,0,0,1,764.61,207.07Zm-.19-12a3.32,3.32,0,0,0-2.58,1.19,5.21,5.21,0,0,0-1.22,3l0,.06H768V199a4,4,0,0,0-1-2.76A3.25,3.25,0,0,0,764.42,195.1Z"/><path class="cls-9" d="M771.56,195.18v-1h3.12l.12,2.1a4.41,4.41,0,0,1,1.62-1.72,4.51,4.51,0,0,1,2.4-.61,3.62,3.62,0,0,1,3.78,2.87,5,5,0,0,1,1.62-2.11,4.21,4.21,0,0,1,2.55-.76,3.78,3.78,0,0,1,3.1,1.34,6.51,6.51,0,0,1,1.1,4.18v6.2l1.89.16v1h-5.18v-1l1.89-.16V199.4a5.16,5.16,0,0,0-.82-3.31,2.83,2.83,0,0,0-2.28-1,3.08,3.08,0,0,0-2.5,1,5,5,0,0,0-1.08,2.66V199a1.41,1.41,0,0,1,0,.22v6.42l1.89.15v1h-5.17v-1l1.89-.15V199.4a5.13,5.13,0,0,0-.83-3.28,2.81,2.81,0,0,0-2.28-1,3.47,3.47,0,0,0-2.35.75,4.08,4.08,0,0,0-1.21,2v7.73l1.89.15v1h-5.17v-1l1.89-.15v-10.3Z"/><path class="cls-9" d="M412.43,219.7v3.24h2.76v1.15h-2.76v8.26a2.8,2.8,0,0,0,.44,1.77,1.52,1.52,0,0,0,1.19.52c.23,0,.44,0,.66,0l.73-.1.21,1a3.85,3.85,0,0,1-.84.24,6.85,6.85,0,0,1-1,.08,2.57,2.57,0,0,1-2.06-.85,4,4,0,0,1-.74-2.67v-8.26h-2.15v-1.15H411V219.7Z"/><path class="cls-9" d="M417.51,229.09A6.83,6.83,0,0,1,419,224.5a5.43,5.43,0,0,1,8.06,0,6.88,6.88,0,0,1,1.51,4.59v.39a6.85,6.85,0,0,1-1.51,4.6,5.43,5.43,0,0,1-8.06,0,6.81,6.81,0,0,1-1.52-4.6Zm1.39.39a6.1,6.1,0,0,0,1.1,3.7,3.86,3.86,0,0,0,6.11,0,6,6,0,0,0,1.1-3.7v-.39a6.12,6.12,0,0,0-1.1-3.68,3.85,3.85,0,0,0-6.11,0,6.12,6.12,0,0,0-1.1,3.68Z"/><path class="cls-9" d="M433.87,222.94l.17,2.11v.15a4.47,4.47,0,0,1,1.46-1.83,3.64,3.64,0,0,1,2.19-.66,2.92,2.92,0,0,1,.51,0,2.57,2.57,0,0,1,.41.09l-.18,1.31-1-.07a3.16,3.16,0,0,0-2.16.74,4.14,4.14,0,0,0-1.2,2.05v7.57l1.89.15v1h-5.16v-1l1.89-.15v-10.3l-1.89-.16v-1h3.1Z"/><path class="cls-9" d="M440.16,234.59l1.89-.15v-10.3l-1.89-.16v-1h3.11l.13,2.22a4.33,4.33,0,0,1,4.06-2.45,3.85,3.85,0,0,1,3.11,1.26,6,6,0,0,1,1.07,3.93v6.54l1.89.15v1h-5.18v-1l1.89-.15v-6.53a4.61,4.61,0,0,0-.8-3.08,2.92,2.92,0,0,0-2.29-.9,3.54,3.54,0,0,0-2.38.78,4.23,4.23,0,0,0-1.33,2.06v7.67l1.89.15v1h-5.17Z"/><path class="cls-9" d="M455.59,229.09a6.89,6.89,0,0,1,1.52-4.59,5.43,5.43,0,0,1,8.06,0,6.89,6.89,0,0,1,1.52,4.59v.39a6.85,6.85,0,0,1-1.51,4.6,5.44,5.44,0,0,1-8.07,0,6.86,6.86,0,0,1-1.52-4.6Zm1.39.39a6.1,6.1,0,0,0,1.1,3.7,3.87,3.87,0,0,0,6.12,0,6.1,6.1,0,0,0,1.1-3.7v-.39a6.06,6.06,0,0,0-1.11-3.68,3.85,3.85,0,0,0-6.11,0,6.12,6.12,0,0,0-1.1,3.68Z"/><path class="cls-9" d="M483.45,233.79a4.39,4.39,0,0,1-1.61,1.54,4.76,4.76,0,0,1-2.32.54,4.15,4.15,0,0,1-3.52-1.7,7.39,7.39,0,0,1-1.27-4.54v-.24a8.3,8.3,0,0,1,1.27-4.86,4,4,0,0,1,3.54-1.82,4.46,4.46,0,0,1,2.27.55,4.59,4.59,0,0,1,1.6,1.59v-6.31l-1.89-.16v-1h3.29v17.1l1.88.15v1h-3.13Zm-7.32-4.16a6.48,6.48,0,0,0,.91,3.66,3.07,3.07,0,0,0,2.74,1.36A3.89,3.89,0,0,0,482,234a4.12,4.12,0,0,0,1.39-1.68v-6a4.26,4.26,0,0,0-1.34-1.75,3.54,3.54,0,0,0-2.26-.68,3,3,0,0,0-2.76,1.51,7.6,7.6,0,0,0-.92,3.95Z"/><path class="cls-9" d="M494.36,235.87a5,5,0,0,1-3.92-1.75,6.51,6.51,0,0,1-1.55-4.46V229a6.63,6.63,0,0,1,1.55-4.51,4.74,4.74,0,0,1,3.74-1.79,4.66,4.66,0,0,1,3.63,1.47,5.71,5.71,0,0,1,1.32,3.94v1.2h-8.86v.34a5.61,5.61,0,0,0,1.13,3.58,3.58,3.58,0,0,0,3,1.44,6,6,0,0,0,2.2-.36,4.27,4.27,0,0,0,1.57-1l.59,1a5,5,0,0,1-1.78,1.19A6.89,6.89,0,0,1,494.36,235.87Zm-.18-12a3.31,3.31,0,0,0-2.58,1.19,5.18,5.18,0,0,0-1.23,3l0,.06h7.35v-.35a4,4,0,0,0-1-2.76A3.24,3.24,0,0,0,494.18,223.9Z"/><path class="cls-9" d="M501.33,218.38v-1h3.27v17.1l1.89.15v1h-5.16v-1l1.89-.15v-15.9Z"/><path class="cls-9" d="M514.22,235.87a5,5,0,0,1-3.92-1.75,6.47,6.47,0,0,1-1.56-4.46V229a6.68,6.68,0,0,1,1.55-4.51,4.75,4.75,0,0,1,3.74-1.79,4.63,4.63,0,0,1,3.63,1.47,5.71,5.71,0,0,1,1.32,3.94v1.2h-8.86v.34a5.67,5.67,0,0,0,1.13,3.58,3.6,3.6,0,0,0,3,1.44,6,6,0,0,0,2.2-.36,4.32,4.32,0,0,0,1.56-1l.6,1a5.06,5.06,0,0,1-1.79,1.19A6.87,6.87,0,0,1,514.22,235.87Zm-.19-12a3.32,3.32,0,0,0-2.58,1.19,5.11,5.11,0,0,0-1.22,3l0,.06h7.35v-.35a4.07,4.07,0,0,0-1-2.76A3.25,3.25,0,0,0,514,223.9Z"/><path class="cls-9" d="M530.57,226.86h-1.14l-.16-1.8a3.58,3.58,0,0,0-1.32-.85,4.93,4.93,0,0,0-1.82-.31,3.37,3.37,0,0,0-2.28.66,2,2,0,0,0-.76,1.56,1.86,1.86,0,0,0,.65,1.45,6.42,6.42,0,0,0,2.62,1,8.29,8.29,0,0,1,3.35,1.38,2.85,2.85,0,0,1,1.11,2.37,3.07,3.07,0,0,1-1.27,2.56,5.34,5.34,0,0,1-3.35,1,7.56,7.56,0,0,1-2.54-.4,6,6,0,0,1-2-1.1v-2.56h1.12l.2,1.81a3.28,3.28,0,0,0,1.41.81,6.13,6.13,0,0,0,1.78.25,3.83,3.83,0,0,0,2.37-.66,2,2,0,0,0,.87-1.62,2.07,2.07,0,0,0-.72-1.56,5.85,5.85,0,0,0-2.62-1.09,8.65,8.65,0,0,1-3.32-1.31,2.68,2.68,0,0,1-1.08-2.28,3.07,3.07,0,0,1,1.21-2.45,4.92,4.92,0,0,1,3.22-1,7,7,0,0,1,2.52.43,4.94,4.94,0,0,1,1.86,1.15Z"/><path class="cls-9" d="M535.37,235.06a5.39,5.39,0,0,1-.44,2.11,5,5,0,0,1-1.18,1.74l-.83-.61a6,6,0,0,0,.81-1.53,5.3,5.3,0,0,0,.26-1.69v-1.66h1.38Z"/><path class="cls-9" d="M543.3,224v-1h3.05l.17,2a4.37,4.37,0,0,1,4-2.2,4.07,4.07,0,0,1,3.54,1.82,8.3,8.3,0,0,1,1.27,4.86v.24a7.35,7.35,0,0,1-1.27,4.54,4.17,4.17,0,0,1-3.52,1.7,5,5,0,0,1-2.31-.51,4.26,4.26,0,0,1-1.62-1.45v5.39l1.89.15v1.05H543.3v-1.05l1.89-.15V224.14Zm10.6,5.41a7.39,7.39,0,0,0-.95-3.94,3.06,3.06,0,0,0-2.78-1.52,3.61,3.61,0,0,0-2.28.67,4.14,4.14,0,0,0-1.32,1.75v6.1a3.89,3.89,0,0,0,1.38,1.64,4,4,0,0,0,2.24.59A3.15,3.15,0,0,0,553,233.3a6.38,6.38,0,0,0,.94-3.67Z"/><path class="cls-9" d="M566.22,235.62a11.15,11.15,0,0,1-.2-1.11,7.46,7.46,0,0,1-.06-.95,5.59,5.59,0,0,1-1.85,1.65,5.22,5.22,0,0,1-2.61.66,4,4,0,0,1-2.86-1,3.44,3.44,0,0,1-1-2.61,3.19,3.19,0,0,1,1.49-2.78,7,7,0,0,1,4.06-1H566v-1.67a2.71,2.71,0,0,0-.86-2.13,3.49,3.49,0,0,0-2.42-.78,6.07,6.07,0,0,0-1.91.29,4.31,4.31,0,0,0-1.44.78l-.12,1.7h-1.15l0-2.44a7.2,7.2,0,0,1,2.08-1.1,7.84,7.84,0,0,1,2.58-.42,5,5,0,0,1,3.34,1.06,3.78,3.78,0,0,1,1.26,3.06v6.24c0,.25,0,.5,0,.74a5.35,5.35,0,0,0,.08.7l1.25.08v1Zm-4.57-1a5,5,0,0,0,2.65-.71,4.12,4.12,0,0,0,1.66-1.81v-2.55h-2.79a5.22,5.22,0,0,0-3,.79,2.36,2.36,0,0,0-1.13,2,2.1,2.1,0,0,0,.7,1.65A2.79,2.79,0,0,0,561.65,234.63Z"/><path class="cls-9" d="M573.66,222.94l.18,2.11v.15a4.45,4.45,0,0,1,1.45-1.83,3.69,3.69,0,0,1,2.19-.66,2.78,2.78,0,0,1,.51,0,2.73,2.73,0,0,1,.42.09l-.19,1.31-1-.07a3.14,3.14,0,0,0-2.15.74,4.14,4.14,0,0,0-1.2,2.05v7.57l1.89.15v1h-5.16v-1l1.89-.15v-10.3l-1.89-.16v-1h3.09Z"/><path class="cls-9" d="M588.87,235.62a11.15,11.15,0,0,1-.2-1.11,7.46,7.46,0,0,1-.06-.95,5.59,5.59,0,0,1-1.85,1.65,5.22,5.22,0,0,1-2.61.66,4,4,0,0,1-2.86-1,3.44,3.44,0,0,1-1-2.61,3.2,3.2,0,0,1,1.5-2.78,7,7,0,0,1,4.06-1h2.77v-1.67a2.71,2.71,0,0,0-.86-2.13,3.5,3.5,0,0,0-2.42-.78,6.07,6.07,0,0,0-1.91.29A4.13,4.13,0,0,0,582,225l-.12,1.7h-1.15v-2.44a7.26,7.26,0,0,1,2.09-1.1,7.76,7.76,0,0,1,2.58-.42,5,5,0,0,1,3.34,1.06,3.78,3.78,0,0,1,1.26,3.06v6.24c0,.25,0,.5,0,.74a5.35,5.35,0,0,0,.07.7l1.26.08v1Zm-4.57-1a5,5,0,0,0,2.65-.71,4.12,4.12,0,0,0,1.66-1.81v-2.55h-2.79a5.28,5.28,0,0,0-3,.79,2.38,2.38,0,0,0-1.13,2,2.11,2.11,0,0,0,.71,1.65A2.77,2.77,0,0,0,584.3,234.63Z"/><path class="cls-9" d="M604.44,234.68a4,4,0,0,0,2.44-.79,2.63,2.63,0,0,0,1-2.22h1.23l0,.07a3.5,3.5,0,0,1-1.38,2.94,5.13,5.13,0,0,1-3.36,1.19,4.72,4.72,0,0,1-4-1.78,7.09,7.09,0,0,1-1.41-4.56V229a7.1,7.1,0,0,1,1.41-4.55,4.72,4.72,0,0,1,3.94-1.78,6.22,6.22,0,0,1,2.65.55,5.21,5.21,0,0,1,2,1.5l.06,2.76h-1.18l-.22-2.25a4,4,0,0,0-1.39-1,4.67,4.67,0,0,0-1.88-.37,3.35,3.35,0,0,0-3,1.46,6.56,6.56,0,0,0-1,3.68v.49a6.51,6.51,0,0,0,1,3.7A3.33,3.33,0,0,0,604.44,234.68Z"/><path class="cls-9" d="M611.77,229.09a6.89,6.89,0,0,1,1.52-4.59,5.43,5.43,0,0,1,8.06,0,6.89,6.89,0,0,1,1.52,4.59v.39a6.86,6.86,0,0,1-1.52,4.6,5,5,0,0,1-4,1.79,5,5,0,0,1-4.05-1.79,6.86,6.86,0,0,1-1.52-4.6Zm1.39.39a6.1,6.1,0,0,0,1.1,3.7,3.61,3.61,0,0,0,3.08,1.5,3.54,3.54,0,0,0,3-1.5,6,6,0,0,0,1.11-3.7v-.39a6.06,6.06,0,0,0-1.11-3.68,3.85,3.85,0,0,0-6.11,0,6.12,6.12,0,0,0-1.1,3.68Z"/><path class="cls-9" d="M624.87,234.59l1.89-.15v-10.3l-1.89-.16v-1H628l.13,2.22a4.33,4.33,0,0,1,4.06-2.45,3.85,3.85,0,0,1,3.11,1.26,6,6,0,0,1,1.06,3.93v6.54l1.9.15v1h-5.18v-1l1.89-.15v-6.53a4.67,4.67,0,0,0-.8-3.08,2.92,2.92,0,0,0-2.29-.9,3.58,3.58,0,0,0-2.39.78,4.28,4.28,0,0,0-1.32,2.06v7.67l1.89.15v1h-5.18Z"/><path class="cls-9" d="M649.53,226.86h-1.14l-.16-1.8a3.58,3.58,0,0,0-1.32-.85,4.85,4.85,0,0,0-1.82-.31,3.41,3.41,0,0,0-2.28.66,2,2,0,0,0-.76,1.56,1.86,1.86,0,0,0,.65,1.45,6.42,6.42,0,0,0,2.62,1,8.29,8.29,0,0,1,3.35,1.38,2.85,2.85,0,0,1,1.11,2.37,3.09,3.09,0,0,1-1.26,2.56,5.39,5.39,0,0,1-3.36,1,7.6,7.6,0,0,1-2.54-.4,6,6,0,0,1-2-1.1v-2.56h1.12l.2,1.81a3.28,3.28,0,0,0,1.41.81,6.18,6.18,0,0,0,1.78.25,3.87,3.87,0,0,0,2.38-.66,2,2,0,0,0,.86-1.62,2.07,2.07,0,0,0-.72-1.56,5.79,5.79,0,0,0-2.62-1.09,8.72,8.72,0,0,1-3.32-1.31,2.68,2.68,0,0,1-1.08-2.28,3.05,3.05,0,0,1,1.22-2.45,4.87,4.87,0,0,1,3.21-1,7,7,0,0,1,2.52.43,4.94,4.94,0,0,1,1.86,1.15Z"/><path class="cls-9" d="M657.85,235.87a5,5,0,0,1-3.92-1.75,6.47,6.47,0,0,1-1.56-4.46V229a6.68,6.68,0,0,1,1.55-4.51,4.75,4.75,0,0,1,3.74-1.79,4.63,4.63,0,0,1,3.63,1.47,5.71,5.71,0,0,1,1.32,3.94v1.2h-8.86v.34a5.67,5.67,0,0,0,1.13,3.58,3.6,3.6,0,0,0,3,1.44,6,6,0,0,0,2.2-.36,4.32,4.32,0,0,0,1.56-1l.6,1a5.06,5.06,0,0,1-1.79,1.19A6.87,6.87,0,0,1,657.85,235.87Zm-.19-12a3.32,3.32,0,0,0-2.58,1.19,5.18,5.18,0,0,0-1.23,3l0,.06h7.35v-.35a4.07,4.07,0,0,0-1-2.76A3.25,3.25,0,0,0,657.66,223.9Z"/><path class="cls-9" d="M665.15,229.39a8.3,8.3,0,0,1,1.28-4.86,4.1,4.1,0,0,1,3.56-1.82,4.32,4.32,0,0,1,2.31.59,4.72,4.72,0,0,1,1.62,1.67l.16-2h1.17v12.52a5.47,5.47,0,0,1-1.31,3.86,4.7,4.7,0,0,1-3.65,1.42,9,9,0,0,1-1.93-.22,7.36,7.36,0,0,1-1.79-.61l.37-1.18a7.8,7.8,0,0,0,1.58.56,7.56,7.56,0,0,0,1.75.2,3.35,3.35,0,0,0,2.69-1.07,4.45,4.45,0,0,0,.9-3v-1.61a4.36,4.36,0,0,1-1.61,1.5,4.87,4.87,0,0,1-2.29.52,4.18,4.18,0,0,1-3.53-1.7,7.39,7.39,0,0,1-1.28-4.54Zm1.39.24a6.45,6.45,0,0,0,.92,3.65,3.13,3.13,0,0,0,2.76,1.37,3.93,3.93,0,0,0,2.26-.62,4.11,4.11,0,0,0,1.38-1.71v-5.89a4.52,4.52,0,0,0-1.33-1.81,3.57,3.57,0,0,0-2.29-.69,3,3,0,0,0-2.76,1.52,7.39,7.39,0,0,0-.94,3.94Z"/><path class="cls-9" d="M687.63,233.54a4.41,4.41,0,0,1-1.62,1.72,4.73,4.73,0,0,1-2.42.61,3.81,3.81,0,0,1-3.1-1.36,6.55,6.55,0,0,1-1.12-4.22v-6.15l-1.56-.16v-1h2.94v7.37a5.51,5.51,0,0,0,.78,3.33,2.65,2.65,0,0,0,2.22,1,4.13,4.13,0,0,0,2.51-.7,3.73,3.73,0,0,0,1.32-1.95v-7.86l-1.79-.16v-1H689v11.5l1.68.15v1h-2.9Z"/><path class="cls-9" d="M692.6,234.59l1.89-.15v-10.3L692.6,224v-1h3.27v11.5l1.89.15v1H692.6Zm3.27-15.28h-1.38v-2h1.38Z"/><path class="cls-9" d="M703.1,222.94l.17,2.11v.15a4.47,4.47,0,0,1,1.46-1.83,3.63,3.63,0,0,1,2.18-.66,3,3,0,0,1,.52,0,2.57,2.57,0,0,1,.41.09l-.18,1.31-1-.07a3.15,3.15,0,0,0-2.15.74,4.14,4.14,0,0,0-1.2,2.05v7.57l1.89.15v1H700v-1l1.89-.15v-10.3L700,224v-1h3.1Z"/><path class="cls-9" d="M417.9,264.42c-.09-.43-.16-.8-.2-1.11a7.46,7.46,0,0,1-.05-.95,5.73,5.73,0,0,1-1.86,1.65,5.17,5.17,0,0,1-2.61.66,4,4,0,0,1-2.85-1,3.41,3.41,0,0,1-1-2.61,3.21,3.21,0,0,1,1.49-2.78,7.06,7.06,0,0,1,4.06-1h2.78v-1.67a2.69,2.69,0,0,0-.87-2.13,3.47,3.47,0,0,0-2.42-.78,6,6,0,0,0-1.9.29,4.27,4.27,0,0,0-1.45.78l-.11,1.7h-1.15V253a7.2,7.2,0,0,1,2.08-1.1,7.84,7.84,0,0,1,2.58-.42,5,5,0,0,1,3.34,1.06,3.79,3.79,0,0,1,1.27,3.06v6.24c0,.25,0,.5,0,.74a5.35,5.35,0,0,0,.08.7l1.25.08v1Zm-4.57-1a5,5,0,0,0,2.66-.71,4.18,4.18,0,0,0,1.66-1.81v-2.55h-2.8a5.22,5.22,0,0,0-3,.79,2.38,2.38,0,0,0-1.13,2,2.1,2.1,0,0,0,.7,1.65A2.79,2.79,0,0,0,413.33,263.43Z"/><path class="cls-9" d="M427.7,263.48a4,4,0,0,0,2.44-.79,2.63,2.63,0,0,0,1.05-2.22h1.23l0,.07a3.5,3.5,0,0,1-1.38,2.94,5.13,5.13,0,0,1-3.36,1.19,4.72,4.72,0,0,1-3.95-1.78,7.09,7.09,0,0,1-1.41-4.56v-.49a7.1,7.1,0,0,1,1.41-4.55,4.72,4.72,0,0,1,3.94-1.78,6.26,6.26,0,0,1,2.65.55,5.21,5.21,0,0,1,2,1.5l.06,2.76h-1.18l-.22-2.25a4,4,0,0,0-1.39-1,4.67,4.67,0,0,0-1.88-.37,3.35,3.35,0,0,0-3,1.46,6.56,6.56,0,0,0-1,3.68v.49a6.51,6.51,0,0,0,1,3.7A3.33,3.33,0,0,0,427.7,263.48Z"/><path class="cls-9" d="M434.62,247.18v-1h3.27v7.77a4.47,4.47,0,0,1,4.11-2.4,3.76,3.76,0,0,1,3,1.24,5.82,5.82,0,0,1,1.06,3.85v6.64l1.9.15v1h-5.18v-1l1.89-.15v-6.66a4.44,4.44,0,0,0-.8-3,2.83,2.83,0,0,0-2.22-.89,3.77,3.77,0,0,0-2.39.75,4.59,4.59,0,0,0-1.41,2v7.75l1.89.15v1h-5.16v-1l1.89-.15v-15.9Z"/><path class="cls-9" d="M458.75,264.42a11.15,11.15,0,0,1-.2-1.11,7.46,7.46,0,0,1-.06-.95,5.59,5.59,0,0,1-1.85,1.65,5.22,5.22,0,0,1-2.61.66,4,4,0,0,1-2.86-1,3.44,3.44,0,0,1-1-2.61,3.2,3.2,0,0,1,1.5-2.78,7,7,0,0,1,4.06-1h2.77v-1.67a2.71,2.71,0,0,0-.86-2.13,3.5,3.5,0,0,0-2.42-.78,6.07,6.07,0,0,0-1.91.29,4.13,4.13,0,0,0-1.44.78l-.12,1.7h-1.15V253a7.26,7.26,0,0,1,2.09-1.1,7.76,7.76,0,0,1,2.58-.42,5,5,0,0,1,3.34,1.06,3.78,3.78,0,0,1,1.26,3.06v6.24c0,.25,0,.5,0,.74a5.35,5.35,0,0,0,.07.7l1.26.08v1Zm-4.57-1a5,5,0,0,0,2.65-.71,4.12,4.12,0,0,0,1.66-1.81v-2.55H455.7a5.28,5.28,0,0,0-3,.79,2.38,2.38,0,0,0-1.13,2,2.11,2.11,0,0,0,.71,1.65A2.77,2.77,0,0,0,454.18,263.43Zm2.35-16.53h1.7l0,.07L455.38,250h-1.24Z"/><path class="cls-9" d="M469.39,257.74h-5.54v-1.18h5.54Z"/><path class="cls-9" d="M472.1,247.18v-1h3.28v17.1l1.89.15v1H472.1v-1l1.9-.15v-15.9Z"/><path class="cls-9" d="M479.23,257.89a6.88,6.88,0,0,1,1.51-4.59,5.43,5.43,0,0,1,8.06,0,6.83,6.83,0,0,1,1.52,4.59v.39a6.85,6.85,0,0,1-1.51,4.6,5,5,0,0,1-4,1.79,5.07,5.07,0,0,1-4.05-1.79,6.85,6.85,0,0,1-1.51-4.6Zm1.39.39a6,6,0,0,0,1.1,3.7,3.86,3.86,0,0,0,6.11,0,6.1,6.1,0,0,0,1.1-3.7v-.39a6.06,6.06,0,0,0-1.11-3.68,3.84,3.84,0,0,0-6.1,0,6.06,6.06,0,0,0-1.1,3.68Z"/><path class="cls-9" d="M501.69,255.66h-1.14l-.16-1.8a3.58,3.58,0,0,0-1.32-.85,4.93,4.93,0,0,0-1.82-.31,3.37,3.37,0,0,0-2.28.66,2,2,0,0,0-.76,1.56,1.86,1.86,0,0,0,.65,1.45,6.42,6.42,0,0,0,2.62,1,8.29,8.29,0,0,1,3.35,1.38,2.85,2.85,0,0,1,1.11,2.37,3.07,3.07,0,0,1-1.27,2.56,5.34,5.34,0,0,1-3.35,1,7.56,7.56,0,0,1-2.54-.4,6,6,0,0,1-2-1.1v-2.56h1.12l.2,1.81a3.28,3.28,0,0,0,1.41.81,6.13,6.13,0,0,0,1.78.25,3.83,3.83,0,0,0,2.37-.66,2,2,0,0,0,.87-1.62,2.07,2.07,0,0,0-.72-1.56,5.85,5.85,0,0,0-2.62-1.09,8.65,8.65,0,0,1-3.32-1.31,2.68,2.68,0,0,1-1.08-2.28,3.07,3.07,0,0,1,1.21-2.45,4.92,4.92,0,0,1,3.22-1,7.24,7.24,0,0,1,2.52.42,5.09,5.09,0,0,1,1.86,1.16Z"/><path class="cls-9" d="M519,262.59a4.39,4.39,0,0,1-1.61,1.54,4.76,4.76,0,0,1-2.32.54,4.15,4.15,0,0,1-3.52-1.7,7.39,7.39,0,0,1-1.27-4.54v-.24a8.3,8.3,0,0,1,1.27-4.86,4,4,0,0,1,3.54-1.82,4.27,4.27,0,0,1,3.87,2.14v-6.31l-1.89-.16v-1h3.28v17.1l1.89.15v1h-3.13Zm-7.32-4.16a6.48,6.48,0,0,0,.91,3.66,3.07,3.07,0,0,0,2.74,1.36,3.89,3.89,0,0,0,2.24-.61,4.12,4.12,0,0,0,1.39-1.68v-6a4.26,4.26,0,0,0-1.34-1.75,3.54,3.54,0,0,0-2.26-.68,3,3,0,0,0-2.76,1.51,7.6,7.6,0,0,0-.92,3.95Z"/><path class="cls-9" d="M533.57,262.34a4.27,4.27,0,0,1-1.62,1.72,4.7,4.7,0,0,1-2.42.61,3.82,3.82,0,0,1-3.1-1.36,6.61,6.61,0,0,1-1.12-4.22v-6.15l-1.55-.16v-1h2.93v7.37a5.43,5.43,0,0,0,.79,3.33,2.65,2.65,0,0,0,2.22,1,4.15,4.15,0,0,0,2.51-.7,3.71,3.71,0,0,0,1.31-1.95v-7.86l-1.78-.16v-1h3.17v11.5l1.69.15v1h-2.9Z"/><path class="cls-9" d="M541.64,251.74l.17,2.11V254a4.55,4.55,0,0,1,1.46-1.83,3.66,3.66,0,0,1,2.19-.66,2.85,2.85,0,0,1,.51,0,2.34,2.34,0,0,1,.41.09L546.2,253l-1-.07a3.14,3.14,0,0,0-2.15.74,4.08,4.08,0,0,0-1.21,2v7.57l1.89.15v1h-5.16v-1l1.9-.15v-10.3l-1.9-.16v-1h3.1Z"/><path class="cls-9" d="M556.85,264.42a11.15,11.15,0,0,1-.2-1.11,7.46,7.46,0,0,1-.06-.95,5.53,5.53,0,0,1-1.86,1.65,5.16,5.16,0,0,1-2.6.66,4,4,0,0,1-2.86-1,3.44,3.44,0,0,1-1-2.61,3.2,3.2,0,0,1,1.5-2.78,7,7,0,0,1,4.06-1h2.77v-1.67a2.71,2.71,0,0,0-.86-2.13,3.5,3.5,0,0,0-2.42-.78,6.07,6.07,0,0,0-1.91.29,4.13,4.13,0,0,0-1.44.78l-.12,1.7h-1.15V253a7.26,7.26,0,0,1,2.09-1.1,7.76,7.76,0,0,1,2.58-.42,5,5,0,0,1,3.34,1.06,3.78,3.78,0,0,1,1.26,3.06v6.24c0,.25,0,.5,0,.74a5.35,5.35,0,0,0,.07.7l1.25.08v1Zm-4.57-1a5,5,0,0,0,2.65-.71,4.12,4.12,0,0,0,1.66-1.81v-2.55H553.8a5.25,5.25,0,0,0-3,.79,2.38,2.38,0,0,0-1.13,2,2.11,2.11,0,0,0,.71,1.65A2.77,2.77,0,0,0,552.28,263.43Z"/><path class="cls-9" d="M561,263.39l1.89-.15v-10.3l-1.89-.16v-1h3.12l.13,2.22a4.33,4.33,0,0,1,4.06-2.45,3.83,3.83,0,0,1,3.1,1.26,6,6,0,0,1,1.07,3.93v6.54l1.89.15v1h-5.17v-1l1.89-.15v-6.53a4.6,4.6,0,0,0-.81-3.08,2.9,2.9,0,0,0-2.29-.9,3.57,3.57,0,0,0-2.38.78,4.3,4.3,0,0,0-1.33,2.06v7.67l1.89.15v1H561Z"/><path class="cls-9" d="M579.77,248.5v3.24h2.76v1.15h-2.76v8.26a2.73,2.73,0,0,0,.45,1.77,1.51,1.51,0,0,0,1.19.52c.22,0,.44,0,.65,0l.74-.1.21,1a4.13,4.13,0,0,1-.85.24,6.63,6.63,0,0,1-1,.08,2.59,2.59,0,0,1-2.06-.85,4,4,0,0,1-.73-2.67v-8.26h-2.16v-1.15h2.16V248.5Z"/><path class="cls-9" d="M590.62,264.67a5,5,0,0,1-3.92-1.75,6.47,6.47,0,0,1-1.56-4.46v-.65a6.68,6.68,0,0,1,1.55-4.51,4.75,4.75,0,0,1,3.74-1.79,4.63,4.63,0,0,1,3.63,1.47,5.71,5.71,0,0,1,1.32,3.94v1.2h-8.86v.34a5.67,5.67,0,0,0,1.13,3.58,3.6,3.6,0,0,0,3,1.44,6,6,0,0,0,2.2-.36,4.45,4.45,0,0,0,1.57-1l.59,1a5.1,5.1,0,0,1-1.79,1.19A6.87,6.87,0,0,1,590.62,264.67Zm-.19-12a3.32,3.32,0,0,0-2.58,1.19,5.08,5.08,0,0,0-1.22,3l0,.06H594v-.35a4.07,4.07,0,0,0-1-2.76A3.25,3.25,0,0,0,590.43,252.7Z"/><path class="cls-9" d="M612.3,264.42c-.09-.43-.16-.8-.2-1.11s-.05-.63-.05-.95a5.73,5.73,0,0,1-1.86,1.65,5.17,5.17,0,0,1-2.61.66,4,4,0,0,1-2.85-1,3.44,3.44,0,0,1-1-2.61,3.2,3.2,0,0,1,1.5-2.78,7,7,0,0,1,4-1h2.78v-1.67a2.69,2.69,0,0,0-.87-2.13,3.46,3.46,0,0,0-2.41-.78,6,6,0,0,0-1.91.29,4.27,4.27,0,0,0-1.45.78l-.11,1.7h-1.15V253a7.33,7.33,0,0,1,2.08-1.1,7.84,7.84,0,0,1,2.58-.42,5,5,0,0,1,3.34,1.06,3.76,3.76,0,0,1,1.27,3.06v6.24c0,.25,0,.5,0,.74s0,.47.08.7l1.25.08v1Zm-4.57-1a5,5,0,0,0,2.66-.71,4.18,4.18,0,0,0,1.66-1.81v-2.55h-2.8a5.22,5.22,0,0,0-3,.79,2.38,2.38,0,0,0-1.13,2,2.1,2.1,0,0,0,.7,1.65A2.79,2.79,0,0,0,607.73,263.43Z"/><path class="cls-9" d="M627.88,263.48a3.91,3.91,0,0,0,2.43-.79,2.61,2.61,0,0,0,1.06-2.22h1.23l0,.07a3.48,3.48,0,0,1-1.39,2.94,5.13,5.13,0,0,1-3.35,1.19,4.75,4.75,0,0,1-4-1.78,7.15,7.15,0,0,1-1.4-4.56v-.49a7.16,7.16,0,0,1,1.4-4.55,4.74,4.74,0,0,1,4-1.78,6.26,6.26,0,0,1,2.65.55,5.21,5.21,0,0,1,2,1.5l.06,2.76h-1.18l-.22-2.25a4.06,4.06,0,0,0-1.39-1,4.67,4.67,0,0,0-1.88-.37,3.35,3.35,0,0,0-3,1.46,6.48,6.48,0,0,0-1,3.68v.49a6.58,6.58,0,0,0,1,3.7A3.36,3.36,0,0,0,627.88,263.48Z"/><path class="cls-9" d="M635.21,257.89a6.83,6.83,0,0,1,1.52-4.59,5.43,5.43,0,0,1,8.06,0,6.89,6.89,0,0,1,1.52,4.59v.39a6.86,6.86,0,0,1-1.52,4.6,5.43,5.43,0,0,1-8.06,0,6.81,6.81,0,0,1-1.52-4.6Zm1.39.39a6.1,6.1,0,0,0,1.1,3.7,3.6,3.6,0,0,0,3.07,1.5,3.56,3.56,0,0,0,3-1.5,6,6,0,0,0,1.1-3.7v-.39a6.06,6.06,0,0,0-1.1-3.68,3.85,3.85,0,0,0-6.11,0,6.12,6.12,0,0,0-1.1,3.68Z"/><path class="cls-9" d="M651.57,251.74l.17,2.11V254a4.55,4.55,0,0,1,1.46-1.83,3.64,3.64,0,0,1,2.19-.66,2.85,2.85,0,0,1,.51,0,2.34,2.34,0,0,1,.41.09l-.18,1.31-1-.07a3.18,3.18,0,0,0-2.16.74,4.14,4.14,0,0,0-1.2,2v7.57l1.89.15v1h-5.16v-1l1.89-.15v-10.3l-1.89-.16v-1h3.1Z"/><path class="cls-9" d="M661.12,251.74l.17,2.11V254a4.53,4.53,0,0,1,1.45-1.83,3.69,3.69,0,0,1,2.19-.66,3,3,0,0,1,.52,0,2.85,2.85,0,0,1,.41.09l-.19,1.31-1-.07a3.15,3.15,0,0,0-2.15.74,4.14,4.14,0,0,0-1.2,2v7.57l1.89.15v1H658v-1l1.89-.15v-10.3l-1.89-.16v-1h3.1Z"/><path class="cls-9" d="M667.56,263.39l1.89-.15v-10.3l-1.89-.16v-1h3.27v11.5l1.89.15v1h-5.16Zm3.27-15.28h-1.38v-2h1.38Z"/><path class="cls-9" d="M683.78,262.59a4.34,4.34,0,0,1-1.62,1.54,4.74,4.74,0,0,1-2.32.54,4.16,4.16,0,0,1-3.52-1.7,7.45,7.45,0,0,1-1.26-4.54v-.24a8.38,8.38,0,0,1,1.26-4.86,4.07,4.07,0,0,1,3.55-1.82,4.27,4.27,0,0,1,3.87,2.14v-6.31l-1.89-.16v-1h3.28v17.1l1.89.15v1h-3.13Zm-7.32-4.16a6.48,6.48,0,0,0,.91,3.66,3.07,3.07,0,0,0,2.74,1.36,3.85,3.85,0,0,0,2.23-.61,4.06,4.06,0,0,0,1.4-1.68v-6a4.26,4.26,0,0,0-1.34-1.75,3.55,3.55,0,0,0-2.27-.68,3,3,0,0,0-2.75,1.51,7.6,7.6,0,0,0-.92,3.95Z"/><path class="cls-9" d="M697.82,264.42c-.09-.43-.16-.8-.2-1.11a7.46,7.46,0,0,1-.06-.95,5.59,5.59,0,0,1-1.85,1.65,5.17,5.17,0,0,1-2.61.66,4,4,0,0,1-2.85-1,3.41,3.41,0,0,1-1-2.61,3.21,3.21,0,0,1,1.49-2.78,7,7,0,0,1,4.06-1h2.77v-1.67a2.68,2.68,0,0,0-.86-2.13,3.49,3.49,0,0,0-2.42-.78,6.12,6.12,0,0,0-1.91.29,4.31,4.31,0,0,0-1.44.78l-.12,1.7h-1.14V253a7.2,7.2,0,0,1,2.08-1.1,7.84,7.84,0,0,1,2.58-.42,5,5,0,0,1,3.34,1.06,3.78,3.78,0,0,1,1.26,3.06v6.24c0,.25,0,.5,0,.74a5.35,5.35,0,0,0,.08.7l1.25.08v1Zm-4.57-1a5,5,0,0,0,2.66-.71,4.15,4.15,0,0,0,1.65-1.81v-2.55h-2.79a5.22,5.22,0,0,0-3,.79,2.36,2.36,0,0,0-1.13,2,2.1,2.1,0,0,0,.7,1.65A2.79,2.79,0,0,0,693.25,263.43Z"/><path class="cls-9" d="M704.44,264.42H702.8v-2h1.64Zm-.14-5.6h-1.38V247.36h1.38Z"/><path class="cls-9" d="M408.94,306v-1h5.16v1l-1.89.15V313h9.6v-6.82l-1.89-.15v-1h5.16v1l-1.89.15v14.69l1.89.15v1h-5.16v-1l1.89-.15v-6.67h-9.6v6.67l1.89.15v1h-5.16v-1l1.89-.15V306.15Z"/><path class="cls-9" d="M432.6,322.27a5,5,0,0,1-3.92-1.76,6.43,6.43,0,0,1-1.56-4.45v-.65a6.68,6.68,0,0,1,1.55-4.51,4.75,4.75,0,0,1,3.74-1.79,4.63,4.63,0,0,1,3.63,1.47,5.71,5.71,0,0,1,1.32,3.94v1.2H428.5v.34a5.67,5.67,0,0,0,1.13,3.58,3.6,3.6,0,0,0,3,1.44,6,6,0,0,0,2.2-.36,4.32,4.32,0,0,0,1.56-1l.6,1a5.19,5.19,0,0,1-1.79,1.19A6.87,6.87,0,0,1,432.6,322.27Zm-.19-12a3.32,3.32,0,0,0-2.58,1.19,5.15,5.15,0,0,0-1.23,3l0,.06H436v-.35a4.07,4.07,0,0,0-1-2.76A3.25,3.25,0,0,0,432.41,310.3Z"/><path class="cls-9" d="M442.85,309.34l.17,2.11v.15a4.47,4.47,0,0,1,1.46-1.83,3.63,3.63,0,0,1,2.18-.66,3,3,0,0,1,.52,0,2.85,2.85,0,0,1,.41.09l-.19,1.31-1-.07a3.15,3.15,0,0,0-2.15.74,4.14,4.14,0,0,0-1.2,2v7.57l1.89.15v1h-5.16v-1l1.89-.15v-10.3l-1.89-.16v-1h3.1Z"/><path class="cls-9" d="M458.05,322c-.09-.43-.16-.8-.2-1.11a7.46,7.46,0,0,1-.05-1,5.73,5.73,0,0,1-1.86,1.65,5.17,5.17,0,0,1-2.61.66,4,4,0,0,1-2.85-1,3.41,3.41,0,0,1-1-2.61,3.21,3.21,0,0,1,1.49-2.78,7,7,0,0,1,4.06-1h2.78v-1.67a2.69,2.69,0,0,0-.87-2.13,3.49,3.49,0,0,0-2.42-.78,6.12,6.12,0,0,0-1.91.29,4.31,4.31,0,0,0-1.44.78l-.11,1.7H449.9v-2.44a7.2,7.2,0,0,1,2.08-1.1,7.84,7.84,0,0,1,2.58-.42,5,5,0,0,1,3.34,1.06,3.79,3.79,0,0,1,1.27,3.06v6.24c0,.25,0,.5,0,.74a5.35,5.35,0,0,0,.08.7l1.25.08v1Zm-4.57-1a5,5,0,0,0,2.66-.7,4.24,4.24,0,0,0,1.66-1.81V316H455a5.22,5.22,0,0,0-3,.79,2.38,2.38,0,0,0-1.13,2,2.1,2.1,0,0,0,.7,1.65A2.78,2.78,0,0,0,453.48,321Z"/><path class="cls-9" d="M464.51,321.46a5.39,5.39,0,0,1-.44,2.11,5,5,0,0,1-1.18,1.74l-.83-.61a6,6,0,0,0,.81-1.53,5.3,5.3,0,0,0,.26-1.69v-1.66h1.38Z"/><path class="cls-9" d="M479.31,305a6.8,6.8,0,0,1,5.11,2.08,7.37,7.37,0,0,1,2,5.36v2.19a7.36,7.36,0,0,1-2,5.36,6.83,6.83,0,0,1-5.11,2.07h-6.8v-1l1.89-.15V306.15l-1.89-.15v-1h6.8Zm-3.53,1.19v14.69h3.53a5.34,5.34,0,0,0,4.12-1.77,6.37,6.37,0,0,0,1.62-4.48v-2.23a6.29,6.29,0,0,0-1.63-4.44,5.33,5.33,0,0,0-4.11-1.77Z"/><path class="cls-9" d="M494.59,322.27a5,5,0,0,1-3.92-1.76,6.47,6.47,0,0,1-1.55-4.45v-.65a6.63,6.63,0,0,1,1.55-4.51,4.74,4.74,0,0,1,3.74-1.79,4.66,4.66,0,0,1,3.63,1.47,5.71,5.71,0,0,1,1.32,3.94v1.2H490.5v.34a5.61,5.61,0,0,0,1.13,3.58,3.58,3.58,0,0,0,3,1.44,6.09,6.09,0,0,0,2.21-.36,4.32,4.32,0,0,0,1.56-1l.59,1a5.06,5.06,0,0,1-1.78,1.19A6.89,6.89,0,0,1,494.59,322.27Zm-.18-12a3.32,3.32,0,0,0-2.58,1.19,5.15,5.15,0,0,0-1.23,3l0,.06H498v-.35a4.07,4.07,0,0,0-1-2.76A3.28,3.28,0,0,0,494.41,310.3Z"/><path class="cls-9" d="M511.06,319.93a4.23,4.23,0,0,1-1.62,1.73,4.7,4.7,0,0,1-2.42.61,3.82,3.82,0,0,1-3.1-1.36,6.61,6.61,0,0,1-1.12-4.22v-6.15l-1.55-.16v-1h2.93v7.37A5.43,5.43,0,0,0,505,320a2.65,2.65,0,0,0,2.22,1,4.15,4.15,0,0,0,2.51-.7,3.71,3.71,0,0,0,1.31-2v-7.86l-1.78-.16v-1h3.17v11.5l1.69.15v1h-2.9Z"/><path class="cls-9" d="M525.23,313.26H524.1l-.17-1.8a3.46,3.46,0,0,0-1.31-.85,4.94,4.94,0,0,0-1.83-.31,3.41,3.41,0,0,0-2.28.66,2,2,0,0,0-.76,1.56,1.84,1.84,0,0,0,.66,1.45,6.36,6.36,0,0,0,2.61,1,8.44,8.44,0,0,1,3.35,1.37,2.86,2.86,0,0,1,1.12,2.38,3.1,3.1,0,0,1-1.27,2.56,5.39,5.39,0,0,1-3.36,1,7.5,7.5,0,0,1-2.53-.4,6,6,0,0,1-2-1.1v-2.56h1.12l.2,1.81a3.28,3.28,0,0,0,1.41.81,6.18,6.18,0,0,0,1.78.25,3.87,3.87,0,0,0,2.38-.66,2,2,0,0,0,.87-1.62,2,2,0,0,0-.73-1.56,5.75,5.75,0,0,0-2.61-1.09,8.71,8.71,0,0,1-3.33-1.31,2.68,2.68,0,0,1-1.08-2.28,3.08,3.08,0,0,1,1.22-2.45,4.87,4.87,0,0,1,3.21-1,7.24,7.24,0,0,1,2.52.42,5.09,5.09,0,0,1,1.86,1.16Z"/><path class="cls-9" d="M536.68,322c-.09-.43-.16-.8-.2-1.11a7.46,7.46,0,0,1-.06-1,5.59,5.59,0,0,1-1.85,1.65,5.22,5.22,0,0,1-2.61.66,4,4,0,0,1-2.86-1,3.44,3.44,0,0,1-1-2.61,3.21,3.21,0,0,1,1.49-2.78,7,7,0,0,1,4.06-1h2.77v-1.67a2.68,2.68,0,0,0-.86-2.13,3.49,3.49,0,0,0-2.42-.78,6.07,6.07,0,0,0-1.91.29,4.31,4.31,0,0,0-1.44.78l-.12,1.7h-1.15l0-2.44a7.2,7.2,0,0,1,2.08-1.1,7.84,7.84,0,0,1,2.58-.42,5,5,0,0,1,3.34,1.06,3.78,3.78,0,0,1,1.26,3.06v6.24c0,.25,0,.5,0,.74a5.35,5.35,0,0,0,.08.7l1.25.08v1Zm-4.57-1a5,5,0,0,0,2.65-.7,4.12,4.12,0,0,0,1.66-1.81V316h-2.79a5.22,5.22,0,0,0-3,.79,2.36,2.36,0,0,0-1.13,2,2.1,2.1,0,0,0,.7,1.65A2.78,2.78,0,0,0,532.11,321Z"/><path class="cls-9" d="M555.62,320.19a4.34,4.34,0,0,1-1.62,1.54,4.74,4.74,0,0,1-2.32.54,4.16,4.16,0,0,1-3.52-1.7A7.47,7.47,0,0,1,546.9,316v-.24a8.38,8.38,0,0,1,1.26-4.86,4.07,4.07,0,0,1,3.55-1.82,4.27,4.27,0,0,1,3.87,2.14v-6.32l-1.89-.15v-1H557v17.1l1.89.15v1h-3.13ZM548.3,316a6.48,6.48,0,0,0,.91,3.66,3.06,3.06,0,0,0,2.74,1.36,3.85,3.85,0,0,0,2.23-.61,4.06,4.06,0,0,0,1.4-1.68v-6a4.26,4.26,0,0,0-1.34-1.75,3.55,3.55,0,0,0-2.27-.68,3,3,0,0,0-2.75,1.51,7.57,7.57,0,0,0-.92,4Z"/><path class="cls-9" d="M569.66,322c-.09-.43-.16-.8-.2-1.11a7.46,7.46,0,0,1-.05-1,5.73,5.73,0,0,1-1.86,1.65,5.17,5.17,0,0,1-2.61.66,4,4,0,0,1-2.85-1,3.41,3.41,0,0,1-1-2.61,3.21,3.21,0,0,1,1.49-2.78,7.06,7.06,0,0,1,4.06-1h2.78v-1.67a2.69,2.69,0,0,0-.87-2.13,3.47,3.47,0,0,0-2.42-.78,6,6,0,0,0-1.9.29,4.27,4.27,0,0,0-1.45.78l-.11,1.7h-1.15v-2.44a7.2,7.2,0,0,1,2.08-1.1,7.84,7.84,0,0,1,2.58-.42,5,5,0,0,1,3.34,1.06,3.79,3.79,0,0,1,1.27,3.06v6.24c0,.25,0,.5,0,.74a5.35,5.35,0,0,0,.08.7l1.25.08v1Zm-4.57-1a5,5,0,0,0,2.66-.7,4.24,4.24,0,0,0,1.66-1.81V316h-2.8a5.22,5.22,0,0,0-3,.79,2.38,2.38,0,0,0-1.13,2,2.1,2.1,0,0,0,.7,1.65A2.78,2.78,0,0,0,565.09,321Z"/><path class="cls-9" d="M583.21,313.26h-1.14l-.16-1.8a3.58,3.58,0,0,0-1.32-.85,4.94,4.94,0,0,0-1.83-.31,3.41,3.41,0,0,0-2.28.66,2,2,0,0,0-.75,1.56,1.83,1.83,0,0,0,.65,1.45,6.42,6.42,0,0,0,2.62,1,8.51,8.51,0,0,1,3.35,1.37,2.88,2.88,0,0,1,1.11,2.38,3.07,3.07,0,0,1-1.27,2.56,5.37,5.37,0,0,1-3.36,1,7.54,7.54,0,0,1-2.53-.4,6.14,6.14,0,0,1-2-1.1v-2.56h1.13l.19,1.81a3.34,3.34,0,0,0,1.41.81,6.22,6.22,0,0,0,1.78.25,3.85,3.85,0,0,0,2.38-.66,2,2,0,0,0,.87-1.62,2,2,0,0,0-.72-1.56,5.85,5.85,0,0,0-2.62-1.09,8.65,8.65,0,0,1-3.32-1.31,2.67,2.67,0,0,1-1.09-2.28,3.08,3.08,0,0,1,1.22-2.45,4.87,4.87,0,0,1,3.21-1,7.34,7.34,0,0,1,2.53.42,5.09,5.09,0,0,1,1.86,1.16Z"/><path class="cls-9" d="M591.39,310.38v-1h3.05l.18,2a4.36,4.36,0,0,1,4-2.2,4.07,4.07,0,0,1,3.54,1.82,8.3,8.3,0,0,1,1.27,4.86V316a7.37,7.37,0,0,1-1.27,4.54,4.15,4.15,0,0,1-3.51,1.7,5,5,0,0,1-2.32-.51,4.34,4.34,0,0,1-1.62-1.45v5.39l1.89.15v1h-5.16v-1l1.89-.15V310.54Zm10.6,5.41a7.28,7.28,0,0,0-1-3.94,3.06,3.06,0,0,0-2.78-1.52A3.61,3.61,0,0,0,596,311a4.22,4.22,0,0,0-1.32,1.75v6.1a3.89,3.89,0,0,0,1.38,1.64,4,4,0,0,0,2.24.59,3.14,3.14,0,0,0,2.77-1.38A6.38,6.38,0,0,0,602,316Z"/><path class="cls-9" d="M605.25,304.78v-1h3.27v17.1l1.89.15v1h-5.16v-1l1.89-.15V304.93Z"/><path class="cls-9" d="M621.27,322a11.15,11.15,0,0,1-.2-1.11,7.46,7.46,0,0,1-.06-1,5.59,5.59,0,0,1-1.85,1.65,5.22,5.22,0,0,1-2.61.66,4,4,0,0,1-2.86-1,3.44,3.44,0,0,1-1-2.61,3.19,3.19,0,0,1,1.49-2.78,7,7,0,0,1,4.06-1H621v-1.67a2.71,2.71,0,0,0-.86-2.13,3.49,3.49,0,0,0-2.42-.78,6.07,6.07,0,0,0-1.91.29,4.31,4.31,0,0,0-1.44.78l-.12,1.7h-1.15l0-2.44a7.2,7.2,0,0,1,2.08-1.1,7.84,7.84,0,0,1,2.58-.42,5,5,0,0,1,3.34,1.06,3.78,3.78,0,0,1,1.26,3.06v6.24c0,.25,0,.5,0,.74s0,.47.07.7l1.26.08v1Zm-4.57-1a5,5,0,0,0,2.65-.7,4.12,4.12,0,0,0,1.66-1.81V316h-2.79a5.22,5.22,0,0,0-3,.79,2.37,2.37,0,0,0-1.14,2,2.11,2.11,0,0,0,.71,1.65A2.77,2.77,0,0,0,616.7,321Z"/><path class="cls-9" d="M625.45,321l1.89-.15v-10.3l-1.89-.16v-1h3.12l.13,2.22a4.33,4.33,0,0,1,4.06-2.45,3.85,3.85,0,0,1,3.11,1.26,6,6,0,0,1,1.06,3.93v6.54l1.89.15v1h-5.17v-1l1.89-.15v-6.53a4.67,4.67,0,0,0-.8-3.08,2.92,2.92,0,0,0-2.29-.9,3.63,3.63,0,0,0-2.39.77,4.46,4.46,0,0,0-1.33,2.07v7.67l1.9.15v1h-5.18Z"/><path class="cls-9" d="M644.19,306.1v3.24H647v1.15h-2.76v8.26a2.68,2.68,0,0,0,.45,1.76,1.48,1.48,0,0,0,1.19.53c.22,0,.44,0,.65,0l.74-.1.21,1a3.35,3.35,0,0,1-.85.23,5.52,5.52,0,0,1-1,.09,2.56,2.56,0,0,1-2.06-.85,4,4,0,0,1-.74-2.67v-8.26h-2.16v-1.15h2.16V306.1Z"/><path class="cls-9" d="M658.17,322c-.09-.43-.16-.8-.2-1.11a7.46,7.46,0,0,1-.06-1,5.59,5.59,0,0,1-1.85,1.65,5.17,5.17,0,0,1-2.61.66,4,4,0,0,1-2.85-1,3.41,3.41,0,0,1-1-2.61,3.21,3.21,0,0,1,1.49-2.78,7,7,0,0,1,4.06-1h2.77v-1.67a2.68,2.68,0,0,0-.86-2.13,3.49,3.49,0,0,0-2.42-.78,6.12,6.12,0,0,0-1.91.29,4.31,4.31,0,0,0-1.44.78l-.12,1.7H650v-2.44a7.2,7.2,0,0,1,2.08-1.1,7.84,7.84,0,0,1,2.58-.42,5,5,0,0,1,3.34,1.06,3.78,3.78,0,0,1,1.26,3.06v6.24c0,.25,0,.5,0,.74a5.35,5.35,0,0,0,.08.7l1.25.08v1Zm-4.57-1a5,5,0,0,0,2.66-.7,4.15,4.15,0,0,0,1.65-1.81V316h-2.79a5.22,5.22,0,0,0-3,.79,2.36,2.36,0,0,0-1.13,2,2.1,2.1,0,0,0,.7,1.65A2.78,2.78,0,0,0,653.6,321Z"/><path class="cls-9" d="M671.71,313.26h-1.13l-.16-1.8a3.58,3.58,0,0,0-1.32-.85,4.94,4.94,0,0,0-1.83-.31A3.41,3.41,0,0,0,665,311a2,2,0,0,0-.76,1.56,1.84,1.84,0,0,0,.66,1.45,6.42,6.42,0,0,0,2.61,1,8.5,8.5,0,0,1,3.36,1.37,2.88,2.88,0,0,1,1.11,2.38,3.07,3.07,0,0,1-1.27,2.56,5.39,5.39,0,0,1-3.36,1,7.5,7.5,0,0,1-2.53-.4,6.14,6.14,0,0,1-2-1.1v-2.56H664l.19,1.81a3.28,3.28,0,0,0,1.41.81,6.18,6.18,0,0,0,1.78.25,3.85,3.85,0,0,0,2.38-.66,2,2,0,0,0,.87-1.62,2,2,0,0,0-.73-1.56,5.75,5.75,0,0,0-2.61-1.09,8.65,8.65,0,0,1-3.32-1.31,2.67,2.67,0,0,1-1.09-2.28,3.08,3.08,0,0,1,1.22-2.45,4.87,4.87,0,0,1,3.21-1,7.34,7.34,0,0,1,2.53.42,5.09,5.09,0,0,1,1.86,1.16Z"/><path class="cls-9" d="M676.52,321.46a5.39,5.39,0,0,1-.44,2.11,5,5,0,0,1-1.19,1.74l-.82-.61a5.92,5.92,0,0,0,.8-1.53,5,5,0,0,0,.27-1.69v-1.66h1.38Z"/><path class="cls-9" d="M684.52,310.38v-1h3.12l.12,2.1a4.41,4.41,0,0,1,1.62-1.72,4.51,4.51,0,0,1,2.4-.61,3.62,3.62,0,0,1,3.78,2.87,5,5,0,0,1,1.62-2.11,4.21,4.21,0,0,1,2.55-.76,3.78,3.78,0,0,1,3.1,1.34,6.51,6.51,0,0,1,1.1,4.18v6.2l1.89.16v1h-5.18v-1l1.89-.16V314.6a5.16,5.16,0,0,0-.82-3.31,2.83,2.83,0,0,0-2.28-1,3.08,3.08,0,0,0-2.5,1,5,5,0,0,0-1.08,2.66v.17a1.41,1.41,0,0,1,0,.22v6.42l1.89.15v1h-5.17v-1l1.89-.15V314.6a5.13,5.13,0,0,0-.83-3.28,2.81,2.81,0,0,0-2.28-1,3.47,3.47,0,0,0-2.35.75,4.08,4.08,0,0,0-1.21,2v7.73l1.89.15v1h-5.17v-1l1.89-.15v-10.3Z"/><path class="cls-9" d="M713,322.27a5,5,0,0,1-3.92-1.76,6.47,6.47,0,0,1-1.55-4.45v-.65A6.68,6.68,0,0,1,709,310.9a4.75,4.75,0,0,1,3.74-1.79,4.63,4.63,0,0,1,3.63,1.47,5.71,5.71,0,0,1,1.32,3.94v1.2h-8.86v.34a5.67,5.67,0,0,0,1.13,3.58,3.58,3.58,0,0,0,3,1.44,6.05,6.05,0,0,0,2.21-.36,4.32,4.32,0,0,0,1.56-1l.59,1a5.06,5.06,0,0,1-1.78,1.19A6.89,6.89,0,0,1,713,322.27Zm-.18-12a3.32,3.32,0,0,0-2.58,1.19,5.15,5.15,0,0,0-1.23,3l0,.06h7.35v-.35a4.07,4.07,0,0,0-1-2.76A3.25,3.25,0,0,0,712.77,310.3Z"/><path class="cls-9" d="M734.64,322c-.09-.43-.16-.8-.2-1.11a7.46,7.46,0,0,1-.05-1,5.73,5.73,0,0,1-1.86,1.65,5.17,5.17,0,0,1-2.61.66,4,4,0,0,1-2.85-1,3.41,3.41,0,0,1-1-2.61,3.21,3.21,0,0,1,1.49-2.78,7,7,0,0,1,4.06-1h2.78v-1.67a2.69,2.69,0,0,0-.87-2.13,3.49,3.49,0,0,0-2.42-.78,6.12,6.12,0,0,0-1.91.29,4.31,4.31,0,0,0-1.44.78l-.11,1.7h-1.15v-2.44a7.2,7.2,0,0,1,2.08-1.1,7.84,7.84,0,0,1,2.58-.42,5,5,0,0,1,3.34,1.06,3.79,3.79,0,0,1,1.27,3.06v6.24c0,.25,0,.5,0,.74a5.35,5.35,0,0,0,.08.7l1.25.08v1Zm-4.57-1a5,5,0,0,0,2.66-.7,4.24,4.24,0,0,0,1.66-1.81V316h-2.8a5.22,5.22,0,0,0-3,.79,2.36,2.36,0,0,0-1.13,2,2.1,2.1,0,0,0,.7,1.65A2.78,2.78,0,0,0,730.07,321Z"/><path class="cls-9" d="M742.62,323.06a4.44,4.44,0,0,1-.93,3,3.24,3.24,0,0,1-2.58,1.06,3.48,3.48,0,0,1-.67-.06,4.85,4.85,0,0,1-.63-.16l.15-1.18.49.11a3.07,3.07,0,0,0,.57.06,2,2,0,0,0,1.63-.72,3.38,3.38,0,0,0,.58-2.13V310.54l-1.89-.16v-1h3.28Zm-.07-17.4h-1.39v-1.92h1.39Z"/><path class="cls-9" d="M754.82,319.93a4.23,4.23,0,0,1-1.62,1.73,4.7,4.7,0,0,1-2.42.61,3.82,3.82,0,0,1-3.1-1.36,6.61,6.61,0,0,1-1.12-4.22v-6.15l-1.55-.16v-1h2.93v7.37a5.43,5.43,0,0,0,.79,3.33,2.65,2.65,0,0,0,2.22,1,4.15,4.15,0,0,0,2.51-.7,3.71,3.71,0,0,0,1.31-2v-7.86l-1.78-.16v-1h3.17v11.5l1.69.15v1H755Z"/><path class="cls-9" d="M768.61,320.19a4.39,4.39,0,0,1-1.61,1.54,4.76,4.76,0,0,1-2.32.54,4.15,4.15,0,0,1-3.52-1.7,7.41,7.41,0,0,1-1.27-4.54v-.24a8.3,8.3,0,0,1,1.27-4.86,4,4,0,0,1,3.54-1.82,4.27,4.27,0,0,1,3.87,2.14v-6.32l-1.89-.15v-1H770v17.1l1.88.15v1h-3.13ZM761.29,316a6.48,6.48,0,0,0,.91,3.66,3.07,3.07,0,0,0,2.74,1.36,3.89,3.89,0,0,0,2.24-.61,4.12,4.12,0,0,0,1.39-1.68v-6a4.26,4.26,0,0,0-1.34-1.75,3.54,3.54,0,0,0-2.26-.68,3,3,0,0,0-2.76,1.51,7.57,7.57,0,0,0-.92,4Z"/><path class="cls-9" d="M779.52,322.27a5,5,0,0,1-3.92-1.76,6.47,6.47,0,0,1-1.55-4.45v-.65a6.63,6.63,0,0,1,1.55-4.51,4.75,4.75,0,0,1,3.74-1.79,4.63,4.63,0,0,1,3.63,1.47,5.71,5.71,0,0,1,1.32,3.94v1.2h-8.86v.34a5.67,5.67,0,0,0,1.13,3.58,3.58,3.58,0,0,0,3,1.44,6.09,6.09,0,0,0,2.21-.36,4.32,4.32,0,0,0,1.56-1l.59,1a5.06,5.06,0,0,1-1.78,1.19A6.89,6.89,0,0,1,779.52,322.27Zm-.18-12a3.32,3.32,0,0,0-2.58,1.19,5.15,5.15,0,0,0-1.23,3l0,.06h7.35v-.35a4.07,4.07,0,0,0-1-2.76A3.26,3.26,0,0,0,779.34,310.3Z"/><path class="cls-9" d="M789,322H787.3v-2H789Zm-.14-5.6h-1.38V305h1.38Z"/><g class="cls-10"><polyline class="cls-11" points="139.31 373.67 130.97 359.57 148.23 361.92 144.54 373.67"/><path class="cls-4" d="M152.71,260.27l6.37,24.46s1,6-1.18,8.21-12.4,13.74-12.4,13.74l-5.69,11.23,33,18.76,39.37-10.55L211,298.47s-20.16-1.29-31.92-10.11c-2.31-1.73-4.27-21.89-4.27-21.89Z"/><path class="cls-11" d="M175.91,275.36c-.62-4.51-1.12-9.06-1.12-9.06l-22.12-6.2,1.77,6.81s6.92,4.52,9.08,5.46A42,42,0,0,0,175.91,275.36Z"/><path class="cls-4" d="M139.7,250.1s12.79,22.78,51,22.78c15.8,0,21.67-3.68,22.56-8.82,5.6-32.23-6.31-73-22.84-85.45C175.92,167.7,124.5,209,124.5,209l10.95,24.58s-11.17-12.07-15.64-5.36,9.72,20.89,9.72,20.89S135.9,253.9,139.7,250.1Z"/><path class="cls-4" d="M216,301.76c3.79-2,7.2,2.73,7.2,2.73L261.79,372l-33.27,59.7s11.17,18.76,5.58,27.25l7.71,7.71s1.23,4.13-4.36,4.13-18.76-9.83-18.76-9.83l1.53-42.08,24.84-44.79-22.81-33.93-7.14-6.32S209,305.51,216,301.76Z"/><path class="cls-4" d="M176,490.63l-32.28,81s-4.16,15.33-9.11,20.27a217.93,217.93,0,0,1-12.23,35.36C114,646,110.32,671.79,110.32,671.79s7.62,19.35,6.7,28.06c0,0,7.29,10.06,4.36,15.84S107,718,107,718s-19.19,2.52-22-2.26,3.6-17.59,3.6-17.59S87.61,688,91,685.61s7.38-8,7.38-8-1.26-3.35,2.26-7.88,8.71-33.54,8.71-37.34-4.69-32.17,11-43.34c0,0,3.8-77.07,14.52-87.8S176,484.12,176,484.12Z"/><path class="cls-12" d="M176,490.63l-10.32,25.88s-14.28,6.38-17.9,7.27c-2.68.66-21.79,6.57-21.15,2.71,2-12,4.78-21.91,8.15-25.28C145.5,490.49,176,484.12,176,484.12Z"/><path class="cls-4" d="M187.51,478.65s27,102.1,29,106.79-8.55,13.79,9.88,78.47c0,0-1.17,8.55-2.84,11.56s-5.53,10.73-.67,13.41,20.6,16.08,27.31,17.26,19.27-4.7,19.27-4.7,6.7-2.51,4.6-4.6c0,0-6.11-.26-8.12-2.27s-24.8-19.94-24.8-19.94-7-9-7-9.66-5-80.15-5-80.15,1.84-5,0-15.24-1-74.62-1-74.62Z"/><path class="cls-12" d="M187.51,478.65l8.24,31c.73,2.72,32.25,4.9,32.25,4.9l.17-19.6Z"/><path class="cls-13" d="M187.5,498.87c5.23,10.36,42,12.55,45,13.51,0,0,1-41.62-4.91-65S187.5,498.87,187.5,498.87Z"/><path class="cls-14" d="M142.82,240.94c6.48,2.68.9-8.94.9-8.94s-.62-11.64-3.91-13.62a47.88,47.88,0,0,1-7.2-5.88l61.82-42.38s6.26-8.71-8-14.07a17,17,0,0,0-17.32-5.14s-6.25-7.49-15.3-.62c0,0-18.21-1.06-22.34,7.88a6.79,6.79,0,0,0-6.7,3.8s-3.8,1.45-4.53,4.52c0,0-9.21,3.63-9.77,9.77,0,0-5,7-1,12.74,0,0-2.65,5,.79,8.43,0,0-7.71,8.44,0,13.69,0,0-1.9,5.47,9.38,7.7l3.35,6.93s3.23-1.47,12.51,7.82S142.82,240.94,142.82,240.94Z"/><path class="cls-11" d="M187.84,240.88a1.5,1.5,0,0,1,0-3c2.79,0,10.44-2.45,14.27-3.78-1.26-12-8.89-20.93-13.42-25.26a1.5,1.5,0,1,1,2.07-2.17c5,4.76,13.49,14.79,14.44,28.36l.08,1.13-1.07.38C203,237,192,240.88,187.84,240.88Z"/><ellipse class="cls-15" cx="166.38" cy="213.92" rx="3.01" ry="4.11" transform="translate(-47.11 46.99) rotate(-14.1)"/><path class="cls-15" d="M163.3,215.41h-.07a1.49,1.49,0,0,1-1.43-1.56c0-.22.27-5.4,3.8-7.31,2.23-1.21,5.08-.79,8.46,1.23a1.5,1.5,0,1,1-1.53,2.57c-1.66-1-4-2-5.5-1.16-1.69.9-2.18,3.77-2.23,4.8A1.5,1.5,0,0,1,163.3,215.41Z"/><ellipse class="cls-15" cx="193.46" cy="206.59" rx="3.01" ry="4.11" transform="translate(-44.51 53.37) rotate(-14.1)"/><path class="cls-15" d="M190.38,206.47a1.39,1.39,0,0,1-.4-.06,1.49,1.49,0,0,1-1-1.84c.06-.21,1.47-5.21,5.34-6.28,2.44-.68,5.13.37,8,3.09a1.5,1.5,0,0,1-2.08,2.17c-1.4-1.34-3.42-2.84-5.11-2.36-1.85.51-3,3.25-3.24,4.17A1.49,1.49,0,0,1,190.38,206.47Z"/><path class="cls-11" d="M135,247.53s-.34-14.66-11.65-18.18"/><path class="cls-16" d="M145.5,306.68s-10.73,4-15.72,8.95c0,0,30.08,43.63,9.53,58,0,0,18.93,36.17,16.92,43.54s-35.65,101.26-35.65,101.26,103.88-1.84,107.59-69.76l-4.92-39.09a328.26,328.26,0,0,0,2.9-39.66c.22-19.08-1.87-41-3.4-56a24.19,24.19,0,0,0-7.05-15.19l-9.78-.91s7.72,25.88-10.15,28.33C186.14,327.54,162.93,330.65,145.5,306.68Z"/><g class="cls-17"><path class="cls-18" d="M124.45,521S228.33,519.17,232,451.25Z"/></g><path class="cls-16" d="M145.5,306.68s-10.73,4-15.72,8.95c0,0,30.08,43.63,9.53,58,0,0,18.93,36.17,16.92,43.54s-35.65,101.26-35.65,101.26,103.88-1.84,107.59-69.76l-4.92-39.09a328.26,328.26,0,0,0,2.9-39.66c.22-19.08-1.87-41-3.4-56a24.19,24.19,0,0,0-7.05-15.19l-9.78-.91s7.72,25.88-10.15,28.33C186.14,327.54,162.93,330.65,145.5,306.68Z"/><path class="cls-3" d="M153.92,424.81s54.77,7.29,70-10.14c0,0,1.65-3.44-.64-5.05.33,3.22-25.73,17.25-67,8.37C156.23,418,151.24,419.78,153.92,424.81Z"/><circle class="cls-19" cx="199.42" cy="422.17" r="12.78"/><g class="cls-20"><path class="cls-21" d="M138.76,175s-5.49,6.64,1.47,11.08c2.43,1.56-7.21,9-7.21,9L129.13,217s5-2,8.38-2l17.63,20.21-11.31,7.06L107.75,218l-24-46.39,30.94-28.09,33.85-7.88-6,11.79s-14.37,8.78-8.88,15.11C130.26,164.91,129.59,174.39,138.76,175Z"/></g><path class="cls-9" d="M123.11,225.75s-6.48-2.91-6.48-8.27,25.24-56.07,78-47.36c0,0,8.15,5.7,5.36,8.49,0,0,5,6.24,1,9.6S177.4,186.65,123.11,225.75Z"/><path class="cls-22" d="M126,213.92s33.73-41.12,69.81-35.76C195.77,178.16,162.15,180,126,213.92Z"/><path class="cls-23" d="M200.8,432.15c-1.9,0-6-.37-8.6-3.32-2.29-2.56-2.92-6.32-1.87-11.18a1.52,1.52,0,0,1,1.78-1.15,1.5,1.5,0,0,1,1.15,1.78c-.83,3.86-.44,6.73,1.17,8.53,2.44,2.74,7,2.32,7.1,2.31a1.51,1.51,0,0,1,1.64,1.35,1.49,1.49,0,0,1-1.33,1.64C201.78,432.11,201.39,432.15,200.8,432.15Z"/><path class="cls-24" d="M207.14,427.82l-.33,0a1.5,1.5,0,0,1-1.14-1.79c.86-3.87.48-6.74-1.13-8.55-2.4-2.72-7-2.35-7.07-2.34a1.5,1.5,0,0,1-.3-3c.26,0,6.17-.55,9.62,3.34,2.27,2.57,2.88,6.33,1.81,11.18A1.5,1.5,0,0,1,207.14,427.82Z"/><path class="cls-11" d="M189.25,252.15l8.26-4,3.82-1.85,1.91-.92a3.54,3.54,0,0,0,2.55-2.54c-1.41,1.33.72,3.45,2.12,2.12,2.33-2.2-.51-4.31-2.85-3.72-2.65.67-5.34,2.52-7.79,3.7l-9.54,4.61c-1.73.84-.22,3.43,1.52,2.59Z"/><path class="cls-4" d="M134.36,313s-15.78,8.92-17.23,10.37-2.86,20.55-2.86,20.55l7.82,18.32,61.33,14.43,19.5,2.69,7.12-74-15.9-4.07-4.35,56.29-34-8.94-11-24.35-6-13.18Z"/><path class="cls-4" d="M209.44,306.16c1.57-2.25,5.71-8.69,7.94-10.16,3.84-2.52.88-7.15,1.22-7.74a6.09,6.09,0,0,0,1-4.65c-.68-2.86-2-.82-1.55-3.71a6.12,6.12,0,0,0,0-2.6c-1.13-2.12-2.59-.54-2.56-3,0-1.4,1.74-5.52,2.78-8.23a7.4,7.4,0,0,0-.88-5.84,2.2,2.2,0,0,0-2.79-.81c-1.56,1-2,3.87-3.06,5.39-2.44,3.41-2.73,3.17-5.76,6-1.17,1.08-6.46,8.12-8.19,7.88-1.52-.22-3.53-5.85-6.2-5.85-4.49,0-8-.53-8-.29,0,2.21,2.76,10.3,3.59,11.13,1.09,1.09,5.41,6.77,5.88,10.67s1.78,6.63,1.13,10.48Z"/><path class="cls-11" d="M191.14,359.47,155.31,350c-.52-.19-12.75-4.81-15.53-12.87a1.5,1.5,0,0,1,2.84-1c2.23,6.48,12.75,10.66,13.67,11l32.14,8.46c.7-9.06,3.75-48.29,4.11-51,.29-2.23-.71-8-1.12-10l0-.3c0-2.65-4.28-8.44-5.44-9.6-.85-.86-2.19-4.84-4-11.82a1.5,1.5,0,0,1,2.91-.75c1.12,4.4,2.67,9.62,3.24,10.5.84.89,6.12,7.36,6.26,11.51.25,1.25,1.52,7.85,1.13,10.84s-4.19,52.11-4.23,52.61Zm-3.07-76.81,0,0Z"/><path class="cls-11" d="M197.58,280.23a1.48,1.48,0,0,1-1.18-.58,1.5,1.5,0,0,1,.25-2.1c.12-.1,12-9.47,15.85-18a3.3,3.3,0,0,1,1.81-1.95,3.09,3.09,0,0,1,2.77.32,1.5,1.5,0,0,1-1.49,2.6l-.2-.09-.08.16-.05.13C211.11,270,199,279.5,198.5,279.91A1.51,1.51,0,0,1,197.58,280.23Z"/><path class="cls-11" d="M203.14,263.44a1,1,0,0,1-.4-.09,1,1,0,0,1-.51-1.31c.16-.38,4.11-9.34,9.47-7.38a1,1,0,0,1-.69,1.87c-3.52-1.29-6.92,6.23-6.95,6.31A1,1,0,0,1,203.14,263.44Z"/><path class="cls-16" d="M129.78,315.63s17,9.09,21.51,21-8.77-28.77-8.77-28.77S134.13,311.28,129.78,315.63Z"/><path class="cls-5" d="M161.37,147.39a10.79,10.79,0,0,1,7.7,3.52,18.72,18.72,0,0,1,4.67-.62,17,17,0,0,1,12.65,5.76c13.89,5.21,8.38,13.58,8.06,14l.15,0s8.15,5.7,5.36,8.49c0,0,5,6.24,1,9.6a4.73,4.73,0,0,1-1.46.73c10.86,16.91,17.55,46.13,14.33,71.23a2.65,2.65,0,0,1,.75-.71,1.58,1.58,0,0,1,.86-.24,2.44,2.44,0,0,1,1.93,1,7.4,7.4,0,0,1,.88,5.84c-1,2.71-2.77,6.83-2.78,8.23,0,2.42,1.43.84,2.56,3a6.12,6.12,0,0,1,0,2.6c-.45,2.89.87.85,1.55,3.71a6.09,6.09,0,0,1-1,4.65c-.34.59,2.62,5.22-1.22,7.74a14,14,0,0,0-2.64,2.72l1,.08a26.36,26.36,0,0,1,2.17,2.47H218c2.94,0,5.26,3.22,5.26,3.22L261.79,372l-33.27,59.7s11.17,18.76,5.58,27.25l7.71,7.71s1.23,4.13-4.36,4.13c-1.66,0-4-.88-6.47-2.1a421.88,421.88,0,0,1,1.54,43.72,43.51,43.51,0,0,0-4.5-.67l0,2.85h0c-.11,19.84-.05,48.49,1.13,55,1.84,10.22,0,15.24,0,15.24s5,79.54,5,80.15,7,9.66,7,9.66,9.31,7.33,16.55,13.14h0s4.36,1.14,6.06,2.56a5.94,5.94,0,0,1,1.83,3.81c.48.32,1.28.86,2.19,1.52a23.46,23.46,0,0,0,6.29,1.18c1,1,0,2.07-1.29,2.94.72.78,1.15,1.45,1,1.89-.47,1.74-7.21,8.84-19.39,8.84-.69,0-1.39,0-2.11-.07-12.79-.84-30.52-14.47-32-18.27a11.31,11.31,0,0,1,.19-7.65c0-3.23,2-7.11,3-9,1.67-3,2.84-11.56,2.84-11.56-18.43-64.68-7.87-73.78-9.88-78.47-1.28-3-12.67-45.32-20.8-75.78h0a.29.29,0,0,0,0-.09c-.48-1.78-.94-3.52-1.39-5.2a21.87,21.87,0,0,1-4.2-2.49A131.65,131.65,0,0,1,168,510.65l-24.3,60.94s-4.16,15.33-9.11,20.27a217.93,217.93,0,0,1-12.23,35.36C114,646,110.32,671.79,110.32,671.79s6,15.24,6.7,24.76c7.06,9.67,13.4,21.6,5,25.11a48.12,48.12,0,0,1-18.29,3.22c-10.13,0-19.22-2.38-21.34-4.49-3.4-3.41,6.27-29.21,6.27-29.21.29-2.35.95-4.61,2.31-5.57,3.36-2.35,7.38-8,7.38-8s-1.26-3.35,2.26-7.88,8.71-33.54,8.71-37.34-4.69-32.17,11-43.34c0,0,1.79-36.27,6.37-62.52h0c.5-3,1-5.82,1.63-8.47-4.8.4-7.68.45-7.68.45s25.1-70.06,33.23-93.89c-2.07-4.15,1.18-6,2.15-6.47q.18-.57.27-.9c2-7.37-16.92-43.54-16.92-43.54l-5.06-8.56-12.16-2.86-7.82-18.32s1.41-19.1,2.86-20.55c.94-.94,7.87-5,12.65-7.75h0c5-5,15.72-8.95,15.72-8.95s10.23-11.56,12.4-13.74,1.18-8.21,1.18-8.21l-5.6-21.5C143.6,257,139.7,250.1,139.7,250.1a5,5,0,0,1-3.65,1.46c-3.25,0-6.52-2.46-6.52-2.46s-14.19-14.19-9.72-20.89a4.21,4.21,0,0,1,3.68-2c2.92,0,6.41,2.41,8.86,4.47-5-4.39-7.72-5-8.82-5l-.34,0-.08.07-.07,0-.1,0,0-.11c-1.06-.53-5.8-3.13-6.22-7.55-8-2.51-6.46-7-6.46-7-7.71-5.25,0-13.69,0-13.69-3.44-3.43-.79-8.43-.79-8.43-4-5.7,1-12.74,1-12.74.56-6.14,9.77-9.77,9.77-9.77.73-3.07,4.53-4.52,4.53-4.52a6.71,6.71,0,0,1,6.19-3.83,3.62,3.62,0,0,1,.51,0c3.34-7.22,15.87-7.92,20.56-7.92,1.11,0,1.78,0,1.78,0a12.54,12.54,0,0,1,7.6-2.9m36.3,131.34c1.68,0,6.19-5.83,7.77-7.55-3.42,1.07-8.12,1.68-14.41,1.7h.35c2.67,0,4.68,5.63,6.2,5.85h.09m-21.76-3.37h0c.8,5.64,2,12.05,3.21,13A46.19,46.19,0,0,0,193,295c0-.21-.06-.42-.08-.63-.47-3.9-4.79-9.58-5.88-10.67-.83-.83-3.57-8.92-3.59-11.13h0a78,78,0,0,1-8-1.06c.15,1.2.32,2.52.5,3.83m48.47,136,20.68-37.29L225.4,344.82c.52,8.39.85,17,.75,25.14a328.26,328.26,0,0,1-2.9,39.66,2.76,2.76,0,0,1,1.13,1.73m40.75,282.46h0M161.37,141.39h0a17.6,17.6,0,0,0-9.4,2.86c-6.83,0-18.24,1.16-24,8.21a12.44,12.44,0,0,0-7.47,4.91,13.77,13.77,0,0,0-4.88,4.63c-3.46,1.8-9.47,5.76-10.91,12.05-2.16,3.65-4.12,9.68-1.83,15.42a13.67,13.67,0,0,0,.2,7.66,16,16,0,0,0-2.22,9.6,12.41,12.41,0,0,0,3.39,7.18,10.57,10.57,0,0,0,.94,2.71,13.44,13.44,0,0,0,6.51,6,14.64,14.64,0,0,0,2.33,3.67c-2.34,4.82-1,11,4,18.29a68.38,68.38,0,0,0,7.25,8.8l.29.29.34.26c.81.61,5.13,3.67,10.13,3.67a11.91,11.91,0,0,0,1.59-.1A52.71,52.71,0,0,0,148.26,267l4.93,18.95a12.45,12.45,0,0,1,0,3.22c-2.39,2.49-8.72,9.61-11.24,12.46-3.29,1.33-11,4.72-15.83,9.18-11.63,6.71-12.57,7.66-13.26,8.35-1.49,1.49-3,3-4.6,24.35l-.11,1.46.57,1.34,7.82,18.32,1.2,2.79,3,.69,9.66,2.28,3.68,6.22c.58,1.11,4.63,9,8.57,17.61,5.87,12.93,7.31,18.48,7.65,20.61a9.93,9.93,0,0,0-2.82,9.81c-8.66,25.19-32.28,91.15-32.53,91.83L112,524.63l8.69-.16h.2c0,.19-.07.38-.1.57l-.29.86.06.47c-3.81,22.33-5.65,50.81-6.15,59.65-13.93,12.48-11.92,36.32-11.24,44.43.06.73.14,1.65.14,1.91-.1,4.22-5.09,29.81-7.5,33.72a16.1,16.1,0,0,0-3.7,9.78,27.39,27.39,0,0,1-4.59,4.83c-2.51,1.77-4.06,4.72-4.73,9-.66,1.82-2.62,7.29-4.32,13.14-3.66,12.66-3.75,18.37-.33,21.79,4.29,4.29,16.27,6.25,25.58,6.25a54.13,54.13,0,0,0,20.61-3.68,11.91,11.91,0,0,0,7.21-7.93c1.72-6.17-1-14.12-8.71-24.92-1-8.37-4.85-19.21-6.34-23.21.92-5.67,4.56-26.23,11.37-41.48a227,227,0,0,0,12.23-34.95c4.93-6.17,8.43-18,9.32-21.21l23.12-58A139.59,139.59,0,0,0,189.35,509l.58,2.16,0,.06C207,575,210,585,210.8,587.21c-.05.46-.19,1.29-.3,2-1.27,7.61-4.24,25.37,9.81,75.12a40.46,40.46,0,0,1-2,8.25c-2.29,4.11-3.52,7.67-3.75,10.84a17.1,17.1,0,0,0,.17,10.92c1.93,5,11.28,11.34,14.1,13.15,4.83,3.09,14.25,8.37,23.09,8.95.83.06,1.67.09,2.5.09,14.36,0,23.88-8.5,25.18-13.26a6.58,6.58,0,0,0,.2-2.49,7.2,7.2,0,0,0-1.48-8.17l-1.66-1.65-2.33-.1a20.67,20.67,0,0,1-3.51-.5,10.9,10.9,0,0,0-3.21-4.61,21.72,21.72,0,0,0-7.11-3.4c-6-4.78-13-10.35-15.06-12-2.06-2.67-4.35-5.7-5.43-7.24-.27-4.49-1.25-20.36-4.87-77.67.62-2.55,1.44-8.16-.15-17-.37-2.07-1.2-11-1.05-49.38l4.37,1.38.18-8c0-.81.38-17.48-.86-35.76,4.72-.06,7.24-2.1,8.52-3.82a9.23,9.23,0,0,0,1.38-8l-.43-1.46-1.08-1.07-4.92-4.93c2.11-8.88-2.77-20.08-5.75-25.79L267,374.89l1.65-3L267,369l-38.55-67.48-.16-.27-.18-.26a15.81,15.81,0,0,0-3.91-3.73,11.65,11.65,0,0,0,.73-8.21,11.28,11.28,0,0,0,.52-6.81,9.76,9.76,0,0,0-1.28-3.1,8.11,8.11,0,0,0-.84-4.66,9.13,9.13,0,0,0-1.19-1.74c.36-1,.79-2.08,1.08-2.84.23-.58.45-1.13.64-1.64,1.47-3.84.34-8.62-1.53-11.36a8.15,8.15,0,0,0-2-2c1.5-22.09-3.63-47.25-13.22-64.78,2.26-3.8,1.53-8.47-.63-12.41a7.77,7.77,0,0,0,0-1.18c-.29-3.27-2.56-6.22-4.93-8.44a13,13,0,0,0-.39-6.32c-1.44-4.59-5.25-8.21-11.32-10.77a22.89,22.89,0,0,0-16.13-6.68,24.44,24.44,0,0,0-2.94.19,16.26,16.26,0,0,0-9.43-3.09ZM231.57,386c.3-4.91.52-10.31.58-16,0-1.42,0-2.89,0-4.39l5.87,8.72L231.57,386Z"/><path class="cls-11" d="M195,276a1.5,1.5,0,0,1-.87-.28,52.52,52.52,0,0,0-6-3.49A4.07,4.07,0,0,0,186,272a1.51,1.51,0,0,0-1.11,1,1.51,1.51,0,0,1-1.83,1,1.48,1.48,0,0,1-1.07-1.79,4.48,4.48,0,0,1,3.37-3.21,6.87,6.87,0,0,1,3.81.42,53,53,0,0,1,6.69,3.86A1.5,1.5,0,0,1,195,276Z"/></g></svg>