<svg id="Camada_1" data-name="Camada 1" xmlns="http://www.w3.org/2000/svg" xmlns:xlink="http://www.w3.org/1999/xlink" viewBox="0 0 849.53 508.08"><defs><style>.cls-1{fill:none;}.cls-2{clip-path:url(#clip-path);}.cls-3{fill:#eaa000;}.cls-4{fill:#6d472e;}.cls-5{fill:#eac2a7;}.cls-6{fill:#97d8dd;}.cls-7{fill:#027e8f;}.cls-8{fill:#65c4d1;}.cls-9{fill:#ffd478;}.cls-10{fill:#fff;}.cls-11{clip-path:url(#clip-path-2);}.cls-12{fill:#c9a68f;}.cls-13{fill:#d6aa8b;}.cls-14{fill:#d6d6d6;}.cls-15{fill:#c99f4b;}.cls-16{fill:#6d5f56;}.cls-17{fill:#493e38;}.cls-18{clip-path:url(#clip-path-3);}.cls-19{fill:#fcfcfc;}.cls-20{fill:#d32222;}.cls-21{fill:#f4f4f4;}.cls-22{clip-path:url(#clip-path-4);}.cls-23{fill:#b7b7b7;}.cls-24{fill:#c99e32;}.cls-25{clip-path:url(#clip-path-5);}.cls-26{fill:#aa7e30;}.cls-27{fill:#ddd;}.cls-28{fill:#846829;}.cls-29{fill:#e8cd95;}</style><clipPath id="clip-path"><path class="cls-1" d="M246.15-94.87s-47.6,36.16-127.34,6.45S39.08-346.37,39.08-346.37s73.34-109,89.74-106.08,112,21.45,112,56.62,42.56,193,42.56,193,17.88,69.22,8.94,74.49"/></clipPath><clipPath id="clip-path-2"><path class="cls-1" d="M245.56,482.52S198,518.68,118.23,489,38.49,231,38.49,231s73.34-109,89.74-106.08,112,21.46,112,56.62,42.56,193,42.56,193,17.88,69.22,8.94,74.49"/></clipPath><clipPath id="clip-path-3"><path class="cls-1" d="M169,242.17c-.33-.51,24.62,5.85,35.49.39,0,0-1.39,19.58-10.38,20.2C184.85,263.41,175.21,258.1,169,242.17Z"/></clipPath><clipPath id="clip-path-4"><path class="cls-1" d="M189,506.83c5.39,10.69,43.31,12.95,46.45,13.94,0,0,1-42.94-5.06-67.07S189,506.83,189,506.83Z"/></clipPath><clipPath id="clip-path-5"><path class="cls-1" d="M142.87,240.66c6.69,2.77.92-9.22.92-9.22s-.63-12-4-14.06a48.57,48.57,0,0,1-7.42-6.07l17.08-11.71,46.71-32s6.45-9-8.3-14.53a17.57,17.57,0,0,0-17.87-5.3s-6.46-7.72-15.79-.63c0,0-18.79-1.1-23.06,8.12a7,7,0,0,0-6.91,3.92s-3.92,1.5-4.67,4.67c0,0-9.51,3.75-10.09,10.09,0,0-5.19,7.26-1,13.14,0,0-2.74,5.16.81,8.7,0,0-7.95,8.7,0,14.12,0,0-2,5.65,9.68,8l3.46,7.14s3.33-1.51,12.91,8.07Z"/></clipPath></defs><title>Fala1</title><g class="cls-2"><path class="cls-3" d="M162.6-433.26a11.16,11.16,0,0,1,8,3.63,18.92,18.92,0,0,1,4.81-.64,17.57,17.57,0,0,1,13.06,5.94c14.34,5.38,8.64,14,8.31,14.5l.16,0s8.41,5.88,5.53,8.76c0,0,5.19,6.45,1,9.91a4.77,4.77,0,0,1-1.5.75c11.79,18.37,18.82,50.79,14.18,77.53-.92,5.29-7,9.1-23.27,9.1h0a85.67,85.67,0,0,1-15.76-1.4c.15,1.25.33,2.6.52,4h0c.81,5.83,2,12.44,3.3,13.42,8.32,6.24,20.71,8.83,27.68,9.84l10.09.94a25.3,25.3,0,0,1,2.24,2.54H221c3,0,5.43,3.33,5.43,3.33l39.77,69.63-34.33,61.6s11.53,19.37,5.77,28.13l8,8s1.27,4.27-4.5,4.27c-1.72,0-4.13-.91-6.68-2.17A434.2,434.2,0,0,1,236-56.61a43.08,43.08,0,0,0-4.64-.7l0,3h0c-.11,20.47-.05,50,1.17,56.77,1.9,10.55,0,15.73,0,15.73s5.18,82.08,5.18,82.71,7.27,10,7.27,10,9.6,7.56,17.08,13.56h0s4.49,1.17,6.25,2.64a6.13,6.13,0,0,1,1.89,3.93c.49.33,1.32.9,2.26,1.58a24.45,24.45,0,0,0,6.49,1.2c1,1,0,2.15-1.34,3.05.75.79,1.2,1.49,1.07,1.94-.49,1.8-7.44,9.12-20,9.12-.71,0-1.43,0-2.18-.07-13.19-.86-31.49-14.93-33-18.85a11.64,11.64,0,0,1,.19-7.89c0-3.34,2-7.34,3.13-9.34,1.73-3.11,2.94-11.93,2.94-11.93-19-66.75-8.13-76.14-10.2-81-1.32-3.08-13.07-46.77-21.46-78.2h0l0-.14c-.48-1.82-1-3.6-1.42-5.32a22.5,22.5,0,0,1-4.34-2.57,135.4,135.4,0,0,1-22.82,9.05l-2.42,6L144.38,4.48S140.09,20.31,135,25.41a225.34,225.34,0,0,1-12.63,36.48c-8.64,19.37-12.45,46-12.45,46s6.2,15.73,6.93,25.56c7.28,10,13.82,22.28,5.14,25.91a49.74,49.74,0,0,1-18.87,3.33c-10.46,0-19.84-2.46-22-4.64-3.52-3.52,6.46-30.15,6.46-30.15.31-2.42,1-4.75,2.39-5.74,3.46-2.42,7.61-8.3,7.61-8.3s-1.3-3.46,2.34-8.13,9-34.61,9-38.53S104,34,120.17,22.47c0,0,1.85-37.44,6.58-64.52h0c.51-3.07,1.07-6,1.68-8.74-5,.41-7.93.47-7.93.47s4.79-13.36,10.91-30.54c-5.22-.5-1.78-8.6-1.78-8.6a43.86,43.86,0,0,0,6.13-3.61q1-2.81,2-5.63c-1.73-4.26,2.59-17.51,2.59-17.51l-15.85-12-46-34.73s37-87.26,38.5-88.76c1-1,8.11-5.16,13-8,5.16-5.15,16.24-9.24,16.24-9.24s10.54-11.93,12.79-14.17,1.21-8.48,1.21-8.48l-5.77-22.18c-10.2-6.41-14.23-13.55-14.23-13.55a5.12,5.12,0,0,1-3.76,1.51c-3.35,0-6.73-2.55-6.73-2.55s-14.64-14.64-10-21.55a4.35,4.35,0,0,1,3.8-2.1c3,0,6.61,2.49,9.14,4.62-5.19-4.53-8-5.15-9.1-5.15l-.35,0-.09.07-.07,0-.1,0,0-.11c-1.09-.55-6-3.24-6.42-7.79-8.27-2.59-6.67-7.2-6.67-7.2-8-5.42,0-14.12,0-14.12-3.55-3.55-.81-8.71-.81-8.71-4.15-5.87,1-13.14,1-13.14.58-6.34,10.09-10.08,10.09-10.08.75-3.17,4.66-4.67,4.66-4.67a6.93,6.93,0,0,1,6.39-3.94c.33,0,.53,0,.53,0,3.45-7.45,16.38-8.17,21.21-8.17,1.15,0,1.85,0,1.85,0a12.87,12.87,0,0,1,7.84-3m65,272.39L249-199.35l-20.29-30.18c.54,8.67.88,17.57.78,25.95a339.5,339.5,0,0,1-3,40.92,2.82,2.82,0,0,1,1.16,1.79m-78,28.67c2.07-5.9,3.86-11.07,5.21-15-2.14-4.29,1.21-6.21,2.22-6.68.12-.38.21-.69.27-.92,2.08-7.61-17.46-44.93-17.46-44.93l-16.5-10.34L100.2-166.6l37,25.76,12.41,8.64M269.67,130.61h0M162.6-438.63h0a17.5,17.5,0,0,0-9.47,3h-.22c-6.95,0-18.65,1.17-24.31,8.39a12,12,0,0,0-7.61,5,13.51,13.51,0,0,0-5,4.74c-3.43,1.75-9.7,5.73-11.09,12.13-2.19,3.63-4.23,9.77-1.8,15.53a13.15,13.15,0,0,0,.26,8.08,16,16,0,0,0-2.4,9.7,12,12,0,0,0,3.46,7.11,9.68,9.68,0,0,0,.93,2.82,13.2,13.2,0,0,0,6.63,5.92,14.2,14.2,0,0,0,2.75,4.27c-2.6,4.77-1.32,11,3.82,18.54a69,69,0,0,0,7.38,9l.56.49c.8.61,5.06,3.63,10,3.63a11.91,11.91,0,0,0,2-.17,53.91,53.91,0,0,0,11.32,10.2L155-290.45a12.29,12.29,0,0,1,0,3.88c-2.33,2.42-9.29,10.25-11.87,13.15-3.25,1.3-11.36,4.82-16.32,9.45-12,6.91-13,7.88-13.6,8.53-1,1-1.66,1.66-21,46.62C82.87-187.06,73.6-165.2,73.51-165l1.71,6.38,46.05,34.73,12.86,9.7c-1.34,4.77-2.59,10.81-1.95,15.15l-.89,2.52a42.38,42.38,0,0,1-4,2.2l-2.64,2.75c-.73,1.72-2.9,7.66-.26,12.09a8,8,0,0,0,.52.77c-5.43,15.22-9.49,26.57-9.49,26.57L120.6-45l1.22,0-.36,2.07h0c-4.09,23.43-6,53.9-6.51,62.7-14.35,12.54-12.29,37.08-11.59,45.39.07.82.15,1.76.15,2-.06,4.36-5.38,31.47-7.88,35.26A16.14,16.14,0,0,0,92,112.38a30.61,30.61,0,0,1-5.09,5.38c-2.42,1.69-3.91,4.58-4.55,8.82-.66,1.78-2.71,7.48-4.47,13.58-3.64,12.56-3.79,18.44-.56,21.67,4.08,4.08,16.08,6.21,25.82,6.21a54.87,54.87,0,0,0,20.94-3.74,11.47,11.47,0,0,0,7-7.64c1.71-6.14-1.14-14.17-9-25.18-1-8.73-5.12-20.23-6.6-24.18.89-5.56,4.68-27.2,11.83-43.22A233,233,0,0,0,139.88,28c5.06-6.2,8.7-18.53,9.59-21.78L172-50.36,173.49-54a142.9,142.9,0,0,0,18.43-7.25l.14.08.8,3,0,.08V-58C211.07,10,213.76,18.66,214.45,20.49c0,.49-.2,1.48-.34,2.29-1.3,7.82-4.34,26,10.16,77.34-.55,3.54-1.5,7.78-2.16,9-2.29,4.13-3.55,7.81-3.77,11a16.68,16.68,0,0,0,.13,10.8c1.95,5.1,12.19,11.86,14.22,13.17,4.92,3.15,14.5,8.53,23.43,9.11.85.06,1.7.09,2.53.09,14.4,0,23.91-8.39,25.19-13.08a6.12,6.12,0,0,0,.15-2.49,6.6,6.6,0,0,0,.69-2.37,6.5,6.5,0,0,0-1.95-5.33l-3.57-1.56a20.77,20.77,0,0,1-4.22-.67,10.58,10.58,0,0,0-3.21-4.8,21.77,21.77,0,0,0-7.19-3.4c-6.27-5-13.74-10.91-15.75-12.49-2.24-2.9-4.74-6.21-5.82-7.77-.25-4.25-1.23-20.1-5.05-80.54.6-2.44,1.5-8.21-.13-17.25-.85-4.69-1.24-24.56-1.09-54.6l4.69-3.35c0-.84.4-18.56-.95-37.73.23,0,.45,0,.67,0,4.67,0,7.11-2,8.34-3.61a8.69,8.69,0,0,0,1.3-7.54l-1.35-2.27L244-113c1.28-4.72.6-10.73-2-17.94a75.93,75.93,0,0,0-3.95-8.92l32.89-59,0-5.27L231.1-273.8l-.3-.48a14.27,14.27,0,0,0-7.06-5.17c-.41-.45-.83-.9-1.28-1.35l-3.3-1.55-9.95-.93c-6.05-.88-16.92-3.1-24.29-8.22a48.74,48.74,0,0,1-1.56-7.36c3.1.31,6.27.46,9.49.46,6.5,0,26.22,0,28.57-13.54,4.31-24.82-.94-56.42-12.53-77.29,2.49-3.78,1.73-8.59-.53-12.59a7.39,7.39,0,0,0,0-1.33c-.29-3.28-2.72-6.27-5.17-8.49a12.76,12.76,0,0,0-.29-6.57c-1.42-4.52-5.23-8.1-11.34-10.64a23.16,23.16,0,0,0-16.19-6.78,24,24,0,0,0-3.26.23,16,16,0,0,0-9.51-3.23ZM234-183.39c.43-6,.76-12.84.85-20.13,0-2.32,0-4.75,0-7.28l7.88,11.71L234-183.39Zm-126.8,15.11,18.19-34.21,10.38,6.5c1.43,2.79,5,9.77,8.37,17.31,6.37,14,7.68,19.69,7.92,21.69a9.84,9.84,0,0,0-2.77,4.05,9.7,9.7,0,0,0-.16,5.79q-1,2.85-2.25,6.51l-6.61-4.6-33.07-23Z"/><path class="cls-4" d="M223.67,121a11.64,11.64,0,0,0-.19,7.89c1.5,3.92,19.8,18,33,18.85,13.95.91,21.68-7.15,22.19-9.05s-9-8.11-9-8.11Z"/><path class="cls-4" d="M87.55,127.89s-10,26.63-6.46,30.15,25.6,7.71,40.89,1.31-16.69-39.76-16.69-39.76Z"/><path class="cls-5" d="M177.7-79,144.38,4.48S140.09,20.31,135,25.41a225.34,225.34,0,0,1-12.63,36.48c-8.64,19.37-12.45,46-12.45,46s7.87,20,6.92,29c0,0,7.52,10.37,4.5,16.34s-14.87,2.42-14.87,2.42-19.8,2.59-22.74-2.34,3.72-18.15,3.72-18.15-1-10.55,2.5-13,7.61-8.3,7.61-8.3-1.3-3.46,2.34-8.13,9-34.61,9-38.53S104,34,120.17,22.47c0,0,3.92-79.54,15-90.61S177.7-85.77,177.7-85.77Z"/><path class="cls-5" d="M189.57-91.42s27.89,105.36,30,110.2-8.82,14.23,10.2,81c0,0-1.21,8.82-2.94,11.93s-5.7,11.06-.69,13.83,21.27,16.6,28.18,17.81,19.89-4.84,19.89-4.84,6.92-2.59,4.75-4.76c0,0-6.31-.25-8.38-2.33S245,110.82,245,110.82s-7.27-9.33-7.27-10-5.18-82.71-5.18-82.71,1.9-5.18,0-15.73-1-77-1-77Z"/><path class="cls-4" d="M82.38,148.2s19.8-8.47,39.6-2a8.68,8.68,0,0,0-1.47-4.84c-1.64-2.59-26.46-6.57-37,2.12C83.51,143.49,81.26,146.73,82.38,148.2Z"/><path class="cls-4" d="M249.81,141.61s.78-17.44,19.86-11l.51.43a6.19,6.19,0,0,0-1.89-4c-1.76-1.47-6.25-2.64-6.25-2.64s-17.49-4.31-17.23,14.27C244.81,138.65,247.54,142.48,249.81,141.61Z"/></g><path class="cls-3" d="M177.67,157.85C271.14,158,346.88,234.5,347,329S271.19,500,177.67,500,8.36,423.44,8.36,329s75.8-171.1,169.31-171.1m0-8h0a174.72,174.72,0,0,0-69,14.09,176.7,176.7,0,0,0-56.36,38.4,180.11,180.11,0,0,0,0,253.21A176.53,176.53,0,0,0,108.62,494a176.24,176.24,0,0,0,138.1,0,178.86,178.86,0,0,0,94.34-95.32A180.09,180.09,0,0,0,303,202.4,176.72,176.72,0,0,0,246.69,164a174.87,174.87,0,0,0-69-14.15Z"/><path class="cls-6" d="M177.67,157.85C84.16,157.85,8.36,234.45,8.36,329S84.16,500,177.67,500,347,423.44,347,329,271.14,158,177.67,157.85Zm0,330.78c-87.28,0-158-71.49-158-159.68s70.75-159.69,158-159.69,158,71.49,158,159.69S264.91,488.53,177.67,488.63Z"/><path class="cls-6" d="M257.58,204.66a5.62,5.62,0,0,0-7.82,1.67l-9.23,14.34a5.79,5.79,0,0,0-.78,4.37,5.71,5.71,0,0,0,2.57,3.61,76.42,76.42,0,0,1,6.34,4.56c1.26,1,2.54,2,3.53,2.66,1.75,1.46,3.43,3,5.11,4.55l-3.9,4a112.65,112.65,0,0,0-24.75-17.13l11.54-26.16a5.72,5.72,0,0,0-2.86-7.54,146.45,146.45,0,0,0-52-12.51,5.57,5.57,0,0,0-4.08,1.45,5.71,5.71,0,0,0-1.85,4l-.88,17.08a5.69,5.69,0,0,0,5.33,6l6,.31,6.33,1c.81.14,1.62.26,2.44.38,1.22.18,2.44.35,3.51.6l.78.2-1.48,5.58a114.16,114.16,0,0,0-29.89-2.44l-2.93-28.54a5.76,5.76,0,0,0-2.06-3.84,5.62,5.62,0,0,0-4.15-1.24,144.31,144.31,0,0,0-51.28,15.44,5.73,5.73,0,0,0-2.45,7.67l7.7,15.24a5.61,5.61,0,0,0,7.39,2.58c1.14-.53,2.26-1.09,3.39-1.64a58.13,58.13,0,0,1,8.06-3.51l1.45-.54c1.69-.63,3.34-1.25,5-1.81l1.46,5.52c-1.38.48-2.73,1-4.08,1.48l-1.33.52a52.9,52.9,0,0,0-8,3.43c-1,.49-1.94,1-3.4,1.67l-9.56,5.56-.65.37L99.36,210.35a5.6,5.6,0,0,0-7.88-1.26A148.06,148.06,0,0,0,54.67,248.2a5.8,5.8,0,0,0-.79,4.3,5.68,5.68,0,0,0,2.45,3.6l14.19,9.33a5.62,5.62,0,0,0,7.9-1.81,71,71,0,0,1,4.49-6.38c1-1.3,2-2.59,2.65-3.6,1.45-1.76,3-3.46,4.51-5.15l3.9,3.94a113.64,113.64,0,0,0-17,25L51.13,265.76a5.63,5.63,0,0,0-7.46,2.9,150.25,150.25,0,0,0-12.38,52.56,5.67,5.67,0,0,0,5.34,6l16.91.88a5.57,5.57,0,0,0,4.08-1.44,5.71,5.71,0,0,0,1.85-3.95l.3-6,1-6.39c.14-.82.26-1.65.38-2.48.17-1.23.34-2.47.59-3.53l.19-.79L67.42,305A116.9,116.9,0,0,0,65,335.19l-28.24,3a5.68,5.68,0,0,0-3.8,2.08,5.78,5.78,0,0,0-1.23,4.19A150.08,150.08,0,0,0,47,396.25a5.68,5.68,0,0,0,3.29,2.83,5.59,5.59,0,0,0,4.3-.35L69.68,391a5.73,5.73,0,0,0,2.55-7.48c-.52-1.13-1.06-2.25-1.6-3.37a58.7,58.7,0,0,1-3.49-8.2l-.55-1.5c-.63-1.7-1.23-3.35-1.77-5l5.53-1.49a113.68,113.68,0,0,0,12.88,27.3L60.31,408.07a5.74,5.74,0,0,0-1.25,8,147.51,147.51,0,0,0,38.7,37.19A5.61,5.61,0,0,0,102,454a5.67,5.67,0,0,0,3.57-2.47l9.23-14.35a5.73,5.73,0,0,0-1.79-8,72.47,72.47,0,0,1-6.33-4.56c-1.27-1-2.54-2-3.54-2.66-1.75-1.46-3.43-3-5.1-4.55l4-4c1.51,1.39,3,2.8,4.94,4.36,1.1.78,2.17,1.61,3.24,2.44a68.86,68.86,0,0,0,6.28,4.48l10.08,5.84.13.06-11.56,26.19a5.8,5.8,0,0,0-.12,4.37,5.72,5.72,0,0,0,3,3.17,146.29,146.29,0,0,0,52,12.51h.29a5.67,5.67,0,0,0,5.63-5.41l.88-17.08a5.69,5.69,0,0,0-5.33-6l-5.94-.31-6.33-1c-.81-.14-1.63-.26-2.44-.38-1.22-.17-2.45-.35-3.52-.6l-.77-.19,1.48-5.59a114.12,114.12,0,0,0,29.89,2.44l2.93,28.54a5.66,5.66,0,0,0,2.06,3.84,5.59,5.59,0,0,0,4.14,1.24A144.28,144.28,0,0,0,244.28,461a5.74,5.74,0,0,0,2.45-7.68L239,438.07a5.63,5.63,0,0,0-7.4-2.59c-1.13.53-2.25,1.09-3.38,1.65a57.68,57.68,0,0,1-8.07,3.5l-1.44.55c-1.69.63-3.34,1.25-5,1.8l-1.48-5.59a110.77,110.77,0,0,0,27-13L256,447.54a5.6,5.6,0,0,0,7.88,1.26,147.73,147.73,0,0,0,36.81-39.11,5.73,5.73,0,0,0-1.65-7.9l-14.19-9.33a5.61,5.61,0,0,0-7.9,1.82,76.37,76.37,0,0,1-4.5,6.38c-1,1.29-1.95,2.58-2.65,3.59-1.44,1.77-3,3.47-4.5,5.16l-3.9-4a113.82,113.82,0,0,0,16.95-25l25.88,11.66a5.63,5.63,0,0,0,7.46-2.89,150.54,150.54,0,0,0,12.39-52.56,5.69,5.69,0,0,0-5.35-6l-16.91-.89a5.7,5.7,0,0,0-5.92,5.39l-.3,6-1,6.39c-.14.83-.26,1.65-.37,2.48-.18,1.23-.35,2.47-.59,3.54l-.2.79L288,352.93l0-.14c.31-1.33.51-2.68.69-4,.09-.63.17-1.27.29-2l.87-5.61a5.42,5.42,0,0,0,.06-.58l.3-6V323.27a2.81,2.81,0,0,0,0-.29l0-.27,28.36-3a5.63,5.63,0,0,0,3.79-2.08,5.72,5.72,0,0,0,1.23-4.19,149.78,149.78,0,0,0-15.27-51.82,5.62,5.62,0,0,0-7.59-2.48L285.66,267a5.73,5.73,0,0,0-2.56,7.48c.52,1.13,1.07,2.24,1.61,3.36a59.21,59.21,0,0,1,3.49,8.2l.55,1.5c.63,1.7,1.23,3.35,1.77,5L285,294a113.44,113.44,0,0,0-12.88-27.29L295,249.82a5.75,5.75,0,0,0,1.24-8A147.51,147.51,0,0,0,257.58,204.66ZM261,260.73a5.71,5.71,0,0,0-2.26,3.72,5.78,5.78,0,0,0,1,4.25,102,102,0,0,1,15.91,33.69,5.67,5.67,0,0,0,6.91,4L299,302a5.7,5.7,0,0,0,4.06-6.7,82.16,82.16,0,0,0-3.68-11.79l-.45-1.22a59.81,59.81,0,0,0-3.16-7.74l5-2.59a138.51,138.51,0,0,1,10.93,37l-27.94,2.93a5.7,5.7,0,0,0-5.06,6l.29,5.53v10.91l-.28,5.37-.8,5.24c-.13.74-.24,1.49-.34,2.24-.14,1-.27,2-.47,2.88l-1.41,5.48a5.72,5.72,0,0,0,4,6.95L296,366.9a5.62,5.62,0,0,0,4.3-.58,5.72,5.72,0,0,0,2.62-3.51l1.66-6.5c.34-1.52.57-3.07.79-4.61.1-.74.2-1.46.34-2.29l1-7,0-.87,5.54.28a139.7,139.7,0,0,1-8.84,37.55l-25.66-11.56a5.58,5.58,0,0,0-4.32-.11,5.69,5.69,0,0,0-3.14,3,102.14,102.14,0,0,1-20.92,30.87,5.76,5.76,0,0,0,0,8.06l12,12.1a5.48,5.48,0,0,0,4.16,1.66,5.57,5.57,0,0,0,4.05-1.91q1.51-1.71,3.06-3.4c2-2.14,3.91-4.29,6-6.86.86-1.22,1.77-2.41,2.67-3.61.63-.83,1.26-1.66,1.89-2.52l4.74,3.11a136.32,136.32,0,0,1-26.3,28l-16.55-23a5.59,5.59,0,0,0-7.88-1.25A100.21,100.21,0,0,1,204,428a5.68,5.68,0,0,0-3.43,2.66A5.74,5.74,0,0,0,200,435l4.37,16.53a5.64,5.64,0,0,0,6.64,4.1,83.31,83.31,0,0,0,11.7-3.73l1.17-.44a57.54,57.54,0,0,0,7.65-3.21l2.57,5.09a135.75,135.75,0,0,1-36.64,11l-2.9-28.23a5.62,5.62,0,0,0-2-3.84,5.53,5.53,0,0,0-4.13-1.25,102.62,102.62,0,0,1-37-3,5.57,5.57,0,0,0-4.28.57,5.66,5.66,0,0,0-2.63,3.46l-4.38,16.53a5.78,5.78,0,0,0,.58,4.36,5.66,5.66,0,0,0,3.47,2.64l6.42,1.67c1.52.35,3,.58,4.59.81.71.1,1.43.2,2.24.34l7,1.05.88.05-.3,5.6a135.7,135.7,0,0,1-37.15-8.94l11.44-25.92a5.73,5.73,0,0,0-2.71-7.46l-4.69-2.27-9.62-5.59a56.16,56.16,0,0,1-5.14-3.7c-1.2-.93-2.39-1.85-3.27-2.45-1.63-1.36-3.18-2.81-4.74-4.25-1.17-1.08-2.33-2.16-3.53-3.22a5.6,5.6,0,0,0-7.69.27l-12,12.1a5.74,5.74,0,0,0,.24,8.29c1.11,1,2.22,2,3.32,3,2.14,2,4.29,4,6.84,6.09,1.21.87,2.38,1.78,3.55,2.69.83.64,1.67,1.29,2.52,1.93l-3.08,4.79A136.21,136.21,0,0,1,71.6,413.88l22.73-16.71a5.72,5.72,0,0,0,1.24-8,102.53,102.53,0,0,1-15.91-33.7,5.65,5.65,0,0,0-6.9-4L56.4,355.89a5.7,5.7,0,0,0-4.07,6.7A84.76,84.76,0,0,0,56,374.38l.46,1.22a58.43,58.43,0,0,0,3.16,7.74l-5,2.59a139.31,139.31,0,0,1-10.93-37l28-2.93a5.7,5.7,0,0,0,5-6.23,105.59,105.59,0,0,1,3-37.34,5.77,5.77,0,0,0-.56-4.34,5.65,5.65,0,0,0-3.44-2.65L59.3,291a5.59,5.59,0,0,0-4.3.59,5.73,5.73,0,0,0-2.62,3.5l-1.65,6.5c-.35,1.52-.58,3.07-.79,4.62-.11.73-.21,1.46-.35,2.28l-1,7-.05.87L43,316.11a139.31,139.31,0,0,1,8.83-37.55l25.67,11.56a5.54,5.54,0,0,0,4.32.11,5.67,5.67,0,0,0,3.13-3,102.44,102.44,0,0,1,20.92-30.87,5.73,5.73,0,0,0,0-8.05l-12-12.1a5.6,5.6,0,0,0-8.21.24c-1,1.14-2,2.27-3.06,3.4-2,2.15-3.9,4.3-6,6.86-.86,1.22-1.76,2.42-2.67,3.61-.62.83-1.26,1.67-1.89,2.53l-4.74-3.12a136.37,136.37,0,0,1,26.31-28l16.55,23a5.6,5.6,0,0,0,7.89,1.25l1.31-1a19.54,19.54,0,0,1,2.77-1.92l9.23-5.4c1.09-.5,2.16-1,3.24-1.57a45,45,0,0,1,6.61-2.86l1.68-.62a55.51,55.51,0,0,1,8.17-2.62,5.66,5.66,0,0,0,3.66-2.59,5.76,5.76,0,0,0,.66-4.47L151,206.4a5.64,5.64,0,0,0-6.64-4.1,83.31,83.31,0,0,0-11.7,3.73l-1.17.44a58,58,0,0,0-7.65,3.2l-2.56-5.08a135.55,135.55,0,0,1,36.64-11.05l2.89,28.24a5.64,5.64,0,0,0,2,3.84,5.55,5.55,0,0,0,4.13,1.25,102.62,102.62,0,0,1,37,3,5.65,5.65,0,0,0,4.29-.57,5.76,5.76,0,0,0,2.63-3.47l4.37-16.53a5.75,5.75,0,0,0-.58-4.35,5.61,5.61,0,0,0-3.46-2.64l-6.43-1.67c-1.51-.36-3-.59-4.58-.81-.72-.1-1.44-.21-2.25-.35l-7-1-.87,0,.29-5.6a135.23,135.23,0,0,1,37.15,8.93L216.1,227.69a5.7,5.7,0,0,0,2.87,7.53,101.36,101.36,0,0,1,30.55,21.15,5.61,5.61,0,0,0,8,0l12-12.1a5.74,5.74,0,0,0-.24-8.29c-1.11-1-2.21-2-3.31-3.05-2.15-2-4.29-4-6.84-6.09-1.21-.86-2.38-1.77-3.56-2.68-.83-.64-1.66-1.29-2.52-1.93l3.09-4.79A135.9,135.9,0,0,1,283.74,244Z"/><path class="cls-6" d="M177.67,237.7a90,90,0,0,0-78.36,45.76,91.91,91.91,0,0,0,.49,91.46,4.25,4.25,0,0,0,.35.58,91.51,91.51,0,0,0,23,26c.14.1.23.25.38.34l.13,0a88.86,88.86,0,0,0,108,0c.05,0,.1,0,.15-.06s.24-.24.38-.34a91.36,91.36,0,0,0,23-26,5.65,5.65,0,0,0,.36-.58,91.91,91.91,0,0,0,.48-91.46A89.94,89.94,0,0,0,177.67,237.7ZM167.5,249.85,104.85,359.93a80.52,80.52,0,0,1,4.31-70.74A78.92,78.92,0,0,1,167.5,249.85ZM133.8,395.31l43.87-77.06,43.87,77.06a78.12,78.12,0,0,1-87.73,0Zm96.69-7.15L185,308.27a8.42,8.42,0,0,0-14.68,0l-45.48,79.89a80.27,80.27,0,0,1-13.73-16.35l66.56-117,12.9,22.63c.08.17.16.34.26.51l53.38,93.85a80.27,80.27,0,0,1-13.73,16.35Zm20-28.23-49.6-87.2a4.25,4.25,0,0,0-.27-.52l-12.76-22.36a78.9,78.9,0,0,1,58.32,39.35,80.53,80.53,0,0,1,4.31,70.73Z"/><path class="cls-7" d="M596.53,33.21c-131.18,0-239,88.6-251.44,202l-74.66,29.74s-4.88,1.8-4.39,8.8a9.53,9.53,0,0,0,5.58,8.17l78.16,23.46C374.67,405.81,475.68,481,596.53,481c139.53,0,252.65-100.24,252.65-223.9S736.06,33.21,596.53,33.21Z"/><path class="cls-8" d="M596.49,0c-131.18,0-239,88.6-251.43,202l-74.67,29.74s-4.88,1.81-4.39,8.81a9.53,9.53,0,0,0,5.58,8.16l78.16,23.46c24.89,100.47,125.9,175.67,246.75,175.67,139.53,0,252.65-100.24,252.65-223.9S736,0,596.49,0Z"/><path class="cls-9" d="M538.09,77.3v5.14H527.93v21.89h-6.08v-27Z"/><path class="cls-9" d="M553.4,103a15.2,15.2,0,0,1-7.62,1.8c-4.24,0-8.81-1.56-8.81-6A5,5,0,0,1,541.22,94v-.2a4.3,4.3,0,0,1-3.33-4.09c0-2.69,2.65-5.46,8.45-5.46a12.09,12.09,0,0,1,6.51,1.49l-1,3.84a10.41,10.41,0,0,0-4.57-1.12c-2.1,0-3.29.76-3.29,1.89s1.62,1.72,4.44,1.72h1.91v4h-1.87c-2.82,0-5,.44-5,2s1.87,2.2,3.89,2.2a13.25,13.25,0,0,0,5.2-1.2Z"/><path class="cls-9" d="M562.41,98.24c0,1.48.55,2,1.82,1.88l-.31,4.25a7.38,7.38,0,0,1-2.54.4c-3.14,0-5-1.32-5-6V84.72h6Z"/><path class="cls-9" d="M586.18,84.72c-.28,3.09-.56,8.62-.56,12.79,0,2.21.76,2.77,1.83,2.69l-.36,4.25a6.26,6.26,0,0,1-2.1.32c-2.26,0-3.65-1.2-4.21-3.57h-.08a7,7,0,0,1-6.23,3.57c-4.48,0-8.09-3.81-8.09-9.82,0-6.62,4.44-10.67,8.81-10.67a5.72,5.72,0,0,1,5.31,3h.16a20,20,0,0,1,.48-2.57Zm-10,15.24c1.75,0,3.13-1.72,3.53-3.65a15.63,15.63,0,0,0,.12-2,10.28,10.28,0,0,0-.08-1.65c-.36-2.24-1.71-3.77-3.41-3.77-2.34,0-3.81,2.61-3.81,5.7S574,100,576.14,100Z"/><path class="cls-9" d="M619.15,88.69c-.95,0-2.26-.08-4.2-.28l0,.2a8.51,8.51,0,0,1,2.54,6c0,7-4.76,10.14-9.88,10.14-5.68,0-10.05-3.69-10.05-10s4.09-10.47,10.76-10.47h11.15Zm-7.65,5.78c0-2.89-1.08-5.86-3.74-5.86-2.93,0-4,3-4,5.9,0,3.37,1.38,5.89,3.88,5.89S611.5,98,611.5,94.47Z"/><path class="cls-9" d="M641.38,94.31c0,7.18-5,10.46-10.24,10.46-5.68,0-10-3.77-10-10.1s4.12-10.39,10.35-10.39C637.41,84.28,641.38,88.41,641.38,94.31Zm-14,.2c0,3.37,1.39,5.89,4,5.89,2.34,0,3.84-2.36,3.84-5.89,0-2.93-1.11-5.9-3.84-5.9C628.4,88.61,627.33,91.62,627.33,94.51Z"/><path class="cls-9" d="M661.85,84.72a18.57,18.57,0,0,1,1.47,7.46c0,6.14-2.38,12.59-9.92,12.59-4.81,0-8.62-2.72-8.62-8.46V91.22a26.73,26.73,0,0,0-.47-6.5h5.91c.44.48.6,1.57.6,3.81v7.38c0,2.61,1.39,3.93,3,3.93,2.54,0,3.54-3.33,3.54-7.26a25.58,25.58,0,0,0-1.2-7.86Z"/><path class="cls-9" d="M666.57,101.12a3.55,3.55,0,1,1,7.1,0,3.55,3.55,0,1,1-7.1,0Zm1.31-5.65L667,77.3h6.31l-.88,18.17Z"/><path class="cls-10" d="M423,180.36a9.38,9.38,0,0,1-2,6.25,6.56,6.56,0,0,1-5.28,2.41,6.46,6.46,0,0,1-5.2-2.41,9.51,9.51,0,0,1-2-6.25v-.22a9.58,9.58,0,0,1,2-6.26,6.45,6.45,0,0,1,5.2-2.42,6.57,6.57,0,0,1,5.28,2.42,9.39,9.39,0,0,1,2,6.26Zm-1.39-.25a8.48,8.48,0,0,0-1.6-5.36,5.21,5.21,0,0,0-4.33-2.06,5.05,5.05,0,0,0-4.24,2.06,8.6,8.6,0,0,0-1.56,5.36v.25a8.61,8.61,0,0,0,1.57,5.39,5,5,0,0,0,4.24,2.05,5.18,5.18,0,0,0,4.33-2,8.58,8.58,0,0,0,1.59-5.4Z"/><path class="cls-10" d="M425.16,171.53v-1h3.27v17.1l1.89.15v1h-5.16v-1l1.89-.15v-15.9Z"/><path class="cls-10" d="M441.18,188.77c-.09-.43-.16-.8-.2-1.11a7.46,7.46,0,0,1-.06-.95,5.49,5.49,0,0,1-1.85,1.65,5.22,5.22,0,0,1-2.61.66,4,4,0,0,1-2.86-1,3.43,3.43,0,0,1-1-2.6,3.23,3.23,0,0,1,1.49-2.79,7,7,0,0,1,4.06-1h2.77V180a2.68,2.68,0,0,0-.86-2.13,3.49,3.49,0,0,0-2.42-.78,6.07,6.07,0,0,0-1.91.29,4.31,4.31,0,0,0-1.44.78l-.12,1.7H433l0-2.44a7.2,7.2,0,0,1,2.08-1.1,7.84,7.84,0,0,1,2.58-.42,5,5,0,0,1,3.34,1.07,3.78,3.78,0,0,1,1.26,3v6.24c0,.26,0,.5,0,.74a5.35,5.35,0,0,0,.08.7l1.25.08v1Zm-4.57-1a5,5,0,0,0,2.65-.71,4.06,4.06,0,0,0,1.66-1.81v-2.55h-2.79a5.15,5.15,0,0,0-3,.8,2.33,2.33,0,0,0-1.13,2,2.1,2.1,0,0,0,.7,1.65A2.79,2.79,0,0,0,436.61,187.78ZM439,171.25h1.71l0,.07-2.89,3.05h-1.24Z"/><path class="cls-10" d="M447.8,188.77h-1.65v-2h1.65Zm-.14-5.6h-1.38V171.71h1.38Z"/><path class="cls-10" d="M468.33,176.77h-1.14l-.2-2.41a4.09,4.09,0,0,0-1.7-1.25,6.53,6.53,0,0,0-2.53-.45,5.13,5.13,0,0,0-3.25.91,2.79,2.79,0,0,0-1.17,2.28,2.68,2.68,0,0,0,1.05,2.15,9.84,9.84,0,0,0,3.64,1.52,10.44,10.44,0,0,1,4.14,1.89,3.92,3.92,0,0,1,1.42,3.16,3.82,3.82,0,0,1-1.64,3.24,6.91,6.91,0,0,1-4.21,1.21,8.64,8.64,0,0,1-3.36-.65,6.34,6.34,0,0,1-2.53-1.84v-3H458l.2,2.49a4.83,4.83,0,0,0,2,1.34,7.28,7.28,0,0,0,2.6.46,5.37,5.37,0,0,0,3.23-.9,2.75,2.75,0,0,0,1.23-2.35,2.86,2.86,0,0,0-1-2.28,9.44,9.44,0,0,0-3.6-1.56,11.34,11.34,0,0,1-4.19-1.83,3.67,3.67,0,0,1-1.43-3,3.85,3.85,0,0,1,1.62-3.19,6.77,6.77,0,0,1,4.19-1.23,8,8,0,0,1,3.29.65,5.71,5.71,0,0,1,2.28,1.75Z"/><path class="cls-10" d="M470.85,182.25a6.9,6.9,0,0,1,1.52-4.6,5.43,5.43,0,0,1,8.06,0,6.84,6.84,0,0,1,1.52,4.6v.38a6.85,6.85,0,0,1-1.51,4.6,5,5,0,0,1-4,1.79,5.07,5.07,0,0,1-4.05-1.79,6.86,6.86,0,0,1-1.52-4.6Zm1.4.38a6.07,6.07,0,0,0,1.1,3.71,3.86,3.86,0,0,0,6.11,0,6.13,6.13,0,0,0,1.1-3.71v-.38a6,6,0,0,0-1.11-3.68,3.82,3.82,0,0,0-6.1,0,6,6,0,0,0-1.1,3.68Z"/><path class="cls-10" d="M493.43,186.69a4.31,4.31,0,0,1-1.61,1.72,4.63,4.63,0,0,1-2.42.61,3.78,3.78,0,0,1-3.1-1.36,6.55,6.55,0,0,1-1.12-4.22v-6.15l-1.56-.15v-1h2.94v7.37a5.51,5.51,0,0,0,.78,3.33,2.65,2.65,0,0,0,2.22,1,4.06,4.06,0,0,0,2.51-.7,3.79,3.79,0,0,0,1.32-1.95v-7.86l-1.79-.15v-1h3.18v11.5l1.68.15v1h-2.9Z"/><path class="cls-10" d="M509.81,189a5,5,0,0,1-3.92-1.75,6.46,6.46,0,0,1-1.55-4.46v-.65a6.63,6.63,0,0,1,1.55-4.51,4.77,4.77,0,0,1,3.73-1.79,4.64,4.64,0,0,1,3.64,1.48,5.66,5.66,0,0,1,1.32,3.93v1.2h-8.86v.34a5.61,5.61,0,0,0,1.13,3.58,3.59,3.59,0,0,0,3,1.45,6,6,0,0,0,2.2-.37,4.36,4.36,0,0,0,1.57-1l.59,1a5,5,0,0,1-1.78,1.19A6.89,6.89,0,0,1,509.81,189Zm-.19-12a3.32,3.32,0,0,0-2.58,1.19,5.24,5.24,0,0,0-1.22,3l0,.05h7.36v-.35a4,4,0,0,0-1-2.76A3.28,3.28,0,0,0,509.62,177.05Z"/><path class="cls-10" d="M526.28,186.69a4.34,4.34,0,0,1-1.62,1.72,4.6,4.6,0,0,1-2.42.61,3.79,3.79,0,0,1-3.1-1.36,6.55,6.55,0,0,1-1.12-4.22v-6.15l-1.55-.15v-1h2.93v7.37a5.51,5.51,0,0,0,.78,3.33,2.67,2.67,0,0,0,2.22,1,4.1,4.1,0,0,0,2.52-.7,3.71,3.71,0,0,0,1.31-1.95v-7.86l-1.78-.15v-1h3.17v11.5l1.68.15v1h-2.89Z"/><path class="cls-10" d="M545.84,186.94a4.24,4.24,0,0,1-1.61,1.54,4.76,4.76,0,0,1-2.32.54,4.16,4.16,0,0,1-3.52-1.7,7.43,7.43,0,0,1-1.27-4.54v-.24a8.42,8.42,0,0,1,1.27-4.86,4.09,4.09,0,0,1,3.54-1.82,4.38,4.38,0,0,1,2.28.56,4.65,4.65,0,0,1,1.6,1.58v-6.31l-1.89-.16v-1h3.28v17.1l1.89.15v1H546Zm-7.31-4.16a6.46,6.46,0,0,0,.91,3.66,3.06,3.06,0,0,0,2.74,1.36,3.85,3.85,0,0,0,2.23-.61,4,4,0,0,0,1.4-1.67v-6a4.38,4.38,0,0,0-1.34-1.76,3.55,3.55,0,0,0-2.27-.68,3,3,0,0,0-2.75,1.52,7.44,7.44,0,0,0-.92,3.94Z"/><path class="cls-10" d="M556.76,189a5,5,0,0,1-3.92-1.75,6.47,6.47,0,0,1-1.56-4.46v-.65a6.68,6.68,0,0,1,1.55-4.51,4.79,4.79,0,0,1,3.74-1.79,4.6,4.6,0,0,1,3.63,1.48,5.66,5.66,0,0,1,1.32,3.93v1.2h-8.86v.34a5.67,5.67,0,0,0,1.13,3.58,3.61,3.61,0,0,0,3,1.45,6,6,0,0,0,2.2-.37,4.45,4.45,0,0,0,1.57-1l.59,1a5,5,0,0,1-1.79,1.19A6.87,6.87,0,0,1,556.76,189Zm-.19-12a3.32,3.32,0,0,0-2.58,1.19,5.11,5.11,0,0,0-1.22,3l0,.05h7.35v-.35a4.07,4.07,0,0,0-1-2.76A3.28,3.28,0,0,0,556.57,177.05Z"/><path class="cls-10" d="M573.42,177.14l-1.56.11L575,185.6l.4,1.49h.07l.44-1.49,3.09-8.35-1.57-.11v-1h4.22v1l-1.22.1L576,188.77h-1.11l-4.44-11.53-1.23-.1v-1h4.22Z"/><path class="cls-10" d="M583,182.25a6.9,6.9,0,0,1,1.52-4.6,5.43,5.43,0,0,1,8.06,0,6.9,6.9,0,0,1,1.52,4.6v.38a6.85,6.85,0,0,1-1.51,4.6,5.44,5.44,0,0,1-8.07,0,6.86,6.86,0,0,1-1.52-4.6Zm1.39.38a6.13,6.13,0,0,0,1.1,3.71,3.87,3.87,0,0,0,6.12,0,6.13,6.13,0,0,0,1.1-3.71v-.38a6,6,0,0,0-1.11-3.68,3.83,3.83,0,0,0-6.11,0,6.08,6.08,0,0,0-1.1,3.68Z"/><path class="cls-10" d="M595.85,171.53v-1h3.27v17.1l1.89.15v1h-5.16v-1l1.89-.15v-15.9Z"/><path class="cls-10" d="M606.39,172.85v3.24h2.76v1.15h-2.76v8.26a2.73,2.73,0,0,0,.45,1.77,1.51,1.51,0,0,0,1.19.52c.22,0,.44,0,.65,0s.46,0,.74-.1l.21,1a4,4,0,0,1-.85.24,6.63,6.63,0,0,1-1,.08,2.58,2.58,0,0,1-2-.84,4,4,0,0,1-.74-2.68v-8.26h-2.16v-1.15H605v-3.24Z"/><path class="cls-10" d="M620.37,188.77a11.15,11.15,0,0,1-.2-1.11,7.46,7.46,0,0,1-.06-.95,5.49,5.49,0,0,1-1.85,1.65,5.22,5.22,0,0,1-2.61.66,4,4,0,0,1-2.86-1,3.43,3.43,0,0,1-1-2.6,3.2,3.2,0,0,1,1.49-2.79,7,7,0,0,1,4.06-1h2.77V180a2.71,2.71,0,0,0-.86-2.13,3.49,3.49,0,0,0-2.42-.78,6.07,6.07,0,0,0-1.91.29,4.31,4.31,0,0,0-1.44.78l-.12,1.7h-1.15l0-2.44a7.2,7.2,0,0,1,2.08-1.1,7.84,7.84,0,0,1,2.58-.42,5,5,0,0,1,3.34,1.07,3.78,3.78,0,0,1,1.26,3v6.24c0,.26,0,.5,0,.74a5.35,5.35,0,0,0,.08.7l1.25.08v1Zm-4.57-1a5,5,0,0,0,2.65-.71,4.06,4.06,0,0,0,1.66-1.81v-2.55h-2.79a5.15,5.15,0,0,0-3,.8,2.33,2.33,0,0,0-1.13,2,2.1,2.1,0,0,0,.7,1.65A2.79,2.79,0,0,0,615.8,187.78Z"/><path class="cls-10" d="M627,188.77h-1.58v-1.92H627Z"/><path class="cls-10" d="M632.36,188.77h-1.59v-1.92h1.59Z"/><path class="cls-10" d="M637.76,188.77h-1.59v-1.92h1.59Z"/><path class="cls-10" d="M408.11,245.34l1.9-.15V230.51l-1.9-.16v-1h12.67v3.75h-1.23l-.11-2.55h-8.05v6.66h7.05v1.21h-7.05v6.81l1.89.15v1h-5.17Z"/><path class="cls-10" d="M422.91,245.34l1.89-.15v-10.3l-1.89-.15v-1.05h3.27v11.5l1.89.15v1h-5.16Zm3.27-15.28H424.8v-2h1.38Z"/><path class="cls-10" d="M432.33,245.19h6.82l.1-2.4h1.24v3.58h-9.86v-1l7.56-10.44H432l-.09,2.39h-1.24v-3.6h9.28v1.05Z"/><path class="cls-10" d="M448.28,246.62a5,5,0,0,1-3.92-1.75,6.47,6.47,0,0,1-1.56-4.46v-.65a6.68,6.68,0,0,1,1.55-4.51,4.79,4.79,0,0,1,3.74-1.79,4.6,4.6,0,0,1,3.63,1.48,5.66,5.66,0,0,1,1.32,3.93v1.2h-8.86v.34a5.67,5.67,0,0,0,1.13,3.58,3.61,3.61,0,0,0,3,1.45,6,6,0,0,0,2.2-.37,4.32,4.32,0,0,0,1.56-1l.6,1a5.06,5.06,0,0,1-1.79,1.19A6.87,6.87,0,0,1,448.28,246.62Zm-.19-12a3.32,3.32,0,0,0-2.58,1.19,5.11,5.11,0,0,0-1.22,3l0,0h7.35v-.35a4.07,4.07,0,0,0-1-2.76A3.28,3.28,0,0,0,448.09,234.65Z"/><path class="cls-10" d="M455.22,234.74v-1.05h3.12l.13,2.1a4.39,4.39,0,0,1,1.61-1.72,4.51,4.51,0,0,1,2.4-.61,3.62,3.62,0,0,1,3.78,2.87,4.92,4.92,0,0,1,1.62-2.1,4.16,4.16,0,0,1,2.56-.77,3.77,3.77,0,0,1,3.1,1.35,6.54,6.54,0,0,1,1.1,4.17v6.2l1.89.16v1h-5.19v-1l1.89-.16V239a5.16,5.16,0,0,0-.82-3.31,2.81,2.81,0,0,0-2.27-1,3.08,3.08,0,0,0-2.5,1,5,5,0,0,0-1.09,2.66,1.09,1.09,0,0,0,0,.18v6.63l1.89.15v1h-5.17v-1l1.89-.15V239a5.07,5.07,0,0,0-.83-3.28,2.81,2.81,0,0,0-2.28-1,3.43,3.43,0,0,0-2.34.75,4.08,4.08,0,0,0-1.22,2v7.72l1.89.15v1h-5.17v-1l1.89-.15v-10.3Z"/><path class="cls-10" d="M478.13,239.85a6.84,6.84,0,0,1,1.52-4.6,5.43,5.43,0,0,1,8.06,0,6.89,6.89,0,0,1,1.51,4.6v.38a6.85,6.85,0,0,1-1.51,4.6,5.43,5.43,0,0,1-8.06,0,6.81,6.81,0,0,1-1.52-4.6Zm1.39.38a6.13,6.13,0,0,0,1.1,3.71,3.86,3.86,0,0,0,6.11,0,6.07,6.07,0,0,0,1.1-3.71v-.38a6.08,6.08,0,0,0-1.1-3.68,3.83,3.83,0,0,0-6.11,0,6.08,6.08,0,0,0-1.1,3.68Z"/><path class="cls-10" d="M500.59,237.61h-1.14l-.16-1.8A3.58,3.58,0,0,0,498,235a5.1,5.1,0,0,0-1.82-.31,3.36,3.36,0,0,0-2.28.67,2,2,0,0,0-.76,1.55,1.86,1.86,0,0,0,.65,1.45,6.42,6.42,0,0,0,2.62,1,8.44,8.44,0,0,1,3.35,1.38,2.85,2.85,0,0,1,1.11,2.37,3.07,3.07,0,0,1-1.27,2.56,5.34,5.34,0,0,1-3.35,1,7.83,7.83,0,0,1-2.54-.39,6,6,0,0,1-2-1.11v-2.56h1.12l.2,1.81a3.18,3.18,0,0,0,1.41.81,6.18,6.18,0,0,0,1.78.26,3.89,3.89,0,0,0,2.38-.67,2,2,0,0,0,.86-1.62,2.08,2.08,0,0,0-.72-1.56,5.91,5.91,0,0,0-2.62-1.09,8.65,8.65,0,0,1-3.32-1.31,2.68,2.68,0,0,1-1.08-2.27,3.08,3.08,0,0,1,1.21-2.46,4.92,4.92,0,0,1,3.22-1,7,7,0,0,1,2.52.43,5.07,5.07,0,0,1,1.86,1.15Z"/><path class="cls-10" d="M518.37,244.29a4.41,4.41,0,0,1-1.62,1.72,4.6,4.6,0,0,1-2.42.61,3.78,3.78,0,0,1-3.1-1.36,6.55,6.55,0,0,1-1.12-4.22v-6.15l-1.55-.15v-1.05h2.93v7.37a5.51,5.51,0,0,0,.78,3.33,2.67,2.67,0,0,0,2.22,1,4.1,4.1,0,0,0,2.52-.7,3.71,3.71,0,0,0,1.31-1.95v-7.86l-1.78-.15v-1.05h3.17v11.5l1.68.15v1H518.5Z"/><path class="cls-10" d="M523.13,234.74v-1.05h3.12l.13,2.1a4.39,4.39,0,0,1,1.61-1.72,4.56,4.56,0,0,1,2.4-.61,3.64,3.64,0,0,1,3.79,2.87,4.82,4.82,0,0,1,1.61-2.1,4.16,4.16,0,0,1,2.56-.77,3.76,3.76,0,0,1,3.1,1.35,6.54,6.54,0,0,1,1.1,4.17v6.2l1.89.16v1h-5.19v-1l1.89-.16V239a5.23,5.23,0,0,0-.81-3.31,2.85,2.85,0,0,0-2.28-1,3.1,3.1,0,0,0-2.5,1,5.09,5.09,0,0,0-1.09,2.66c0,.06,0,.12,0,.18s0,.12,0,.21v6.42l1.89.15v1h-5.18v-1l1.89-.15V239a5.14,5.14,0,0,0-.82-3.28,2.83,2.83,0,0,0-2.28-1,3.45,3.45,0,0,0-2.35.75,4,4,0,0,0-1.21,2v7.72l1.89.15v1h-5.18v-1l1.89-.15v-10.3Z"/><path class="cls-10" d="M552,240.14a8.32,8.32,0,0,1,1.28-4.86,4.11,4.11,0,0,1,3.55-1.82,4.47,4.47,0,0,1,2.32.59,4.72,4.72,0,0,1,1.62,1.67l.16-2h1.17v12.52a5.51,5.51,0,0,1-1.31,3.87,4.75,4.75,0,0,1-3.65,1.41,9.09,9.09,0,0,1-1.94-.22,7.51,7.51,0,0,1-1.79-.61l.37-1.18a7.89,7.89,0,0,0,1.59.56,7.54,7.54,0,0,0,1.74.2,3.33,3.33,0,0,0,2.69-1.07,4.4,4.4,0,0,0,.91-3V244.6a4.52,4.52,0,0,1-1.61,1.5,4.9,4.9,0,0,1-2.29.52,4.18,4.18,0,0,1-3.54-1.7,7.37,7.37,0,0,1-1.27-4.54Zm1.39.24a6.45,6.45,0,0,0,.92,3.65,3.11,3.11,0,0,0,2.76,1.37,3.9,3.9,0,0,0,2.25-.62,4.13,4.13,0,0,0,1.39-1.71v-5.88a4.51,4.51,0,0,0-1.34-1.82,3.56,3.56,0,0,0-2.28-.69,3.07,3.07,0,0,0-2.77,1.52,7.49,7.49,0,0,0-.93,3.94Z"/><path class="cls-10" d="M568.25,233.69l.17,2.11V236a4.47,4.47,0,0,1,1.46-1.83,3.63,3.63,0,0,1,2.18-.66,3,3,0,0,1,.52,0l.41.09-.19,1.31-1-.07a3.15,3.15,0,0,0-2.15.74,4.14,4.14,0,0,0-1.2,2.05v7.57l1.89.15v1h-5.16v-1l1.89-.15v-10.3l-1.89-.15v-1.05h3.1Z"/><path class="cls-10" d="M583.45,246.37c-.09-.43-.16-.8-.2-1.11a7.46,7.46,0,0,1,0-.95,5.62,5.62,0,0,1-1.86,1.65,5.17,5.17,0,0,1-2.61.66,4,4,0,0,1-2.85-1,3.4,3.4,0,0,1-1-2.6,3.22,3.22,0,0,1,1.49-2.79,7.06,7.06,0,0,1,4.06-1h2.78v-1.68a2.69,2.69,0,0,0-.87-2.13,3.47,3.47,0,0,0-2.42-.78,6,6,0,0,0-1.9.29,4.27,4.27,0,0,0-1.45.78l-.11,1.7H575.3V235a7.2,7.2,0,0,1,2.08-1.1,7.84,7.84,0,0,1,2.58-.42,5,5,0,0,1,3.34,1.07,3.78,3.78,0,0,1,1.27,3.05v6.24c0,.26,0,.5,0,.74a5.35,5.35,0,0,0,.08.7l1.25.08v1Zm-4.57-1a5,5,0,0,0,2.66-.71,4.24,4.24,0,0,0,1.66-1.81v-2.55h-2.8a5.15,5.15,0,0,0-3,.8,2.35,2.35,0,0,0-1.13,2,2.1,2.1,0,0,0,.7,1.65A2.79,2.79,0,0,0,578.88,245.38Z"/><path class="cls-10" d="M587.64,245.34l1.89-.15v-10.3l-1.89-.15v-1.05h3.12l.12,2.22a4.56,4.56,0,0,1,1.63-1.81,4.5,4.5,0,0,1,2.43-.64,3.85,3.85,0,0,1,3.11,1.26,6,6,0,0,1,1.07,3.93v6.54l1.89.15v1h-5.17v-1l1.89-.15v-6.53a4.6,4.6,0,0,0-.81-3.08,2.92,2.92,0,0,0-2.29-.9,3.55,3.55,0,0,0-2.38.78,4.31,4.31,0,0,0-1.33,2.07v7.66l1.89.15v1h-5.17Z"/><path class="cls-10" d="M611.79,244.54a4.24,4.24,0,0,1-1.61,1.54,4.76,4.76,0,0,1-2.32.54,4.16,4.16,0,0,1-3.52-1.7,7.43,7.43,0,0,1-1.27-4.54v-.24a8.4,8.4,0,0,1,1.27-4.86,4.1,4.1,0,0,1,3.55-1.82,4.37,4.37,0,0,1,2.27.56,4.65,4.65,0,0,1,1.6,1.58v-6.31l-1.89-.16v-1h3.28v17.1l1.89.15v1h-3.13Zm-7.31-4.16a6.46,6.46,0,0,0,.91,3.66,3.06,3.06,0,0,0,2.74,1.36,3.85,3.85,0,0,0,2.23-.61,4,4,0,0,0,1.4-1.68v-6a4.42,4.42,0,0,0-1.34-1.75,3.55,3.55,0,0,0-2.27-.68,3,3,0,0,0-2.75,1.51,7.5,7.5,0,0,0-.92,3.95Z"/><path class="cls-10" d="M622.71,246.62a5,5,0,0,1-3.92-1.75,6.47,6.47,0,0,1-1.56-4.46v-.65a6.68,6.68,0,0,1,1.55-4.51,4.79,4.79,0,0,1,3.74-1.79,4.6,4.6,0,0,1,3.63,1.48,5.66,5.66,0,0,1,1.32,3.93v1.2h-8.86v.34a5.67,5.67,0,0,0,1.13,3.58,3.62,3.62,0,0,0,3,1.45,6,6,0,0,0,2.2-.37,4.45,4.45,0,0,0,1.57-1l.59,1a5,5,0,0,1-1.79,1.19A6.84,6.84,0,0,1,622.71,246.62Zm-.19-12a3.32,3.32,0,0,0-2.58,1.19,5.11,5.11,0,0,0-1.22,3l0,0h7.35v-.35a4.07,4.07,0,0,0-1-2.76A3.28,3.28,0,0,0,622.52,234.65Z"/><path class="cls-10" d="M635.36,234.74v-1.05h3l.17,2a4.71,4.71,0,0,1,1.63-1.63,4.6,4.6,0,0,1,2.33-.57,4.1,4.1,0,0,1,3.54,1.82,8.32,8.32,0,0,1,1.27,4.86v.24a7.4,7.4,0,0,1-1.27,4.55,4.2,4.2,0,0,1-3.52,1.69,5,5,0,0,1-2.31-.51,4.26,4.26,0,0,1-1.62-1.45v5.39l1.89.15v1.05h-5.16V250.2l1.89-.15V234.89Zm10.6,5.4a7.39,7.39,0,0,0-1-3.94,3.1,3.1,0,0,0-2.79-1.52,3.6,3.6,0,0,0-2.27.67,4.06,4.06,0,0,0-1.32,1.75v6.1a3.87,3.87,0,0,0,1.37,1.64,4,4,0,0,0,2.25.6,3.14,3.14,0,0,0,2.76-1.39,6.38,6.38,0,0,0,1-3.67Z"/><path class="cls-10" d="M649.22,229.13v-1h3.27v17.1l1.89.15v1h-5.16v-1l1.89-.15v-15.9Z"/><path class="cls-10" d="M665.23,246.37c-.09-.43-.15-.8-.19-1.11a7.46,7.46,0,0,1-.06-.95,5.43,5.43,0,0,1-1.86,1.65,5.17,5.17,0,0,1-2.61.66,4,4,0,0,1-2.85-1,3.43,3.43,0,0,1-1-2.6,3.2,3.2,0,0,1,1.5-2.79,7,7,0,0,1,4.06-1H665v-1.68a2.71,2.71,0,0,0-.86-2.13,3.5,3.5,0,0,0-2.42-.78,6.07,6.07,0,0,0-1.91.29,4.13,4.13,0,0,0-1.44.78l-.12,1.7h-1.15V235a7.26,7.26,0,0,1,2.09-1.1,7.76,7.76,0,0,1,2.58-.42,5,5,0,0,1,3.34,1.07,3.78,3.78,0,0,1,1.26,3.05v6.24c0,.26,0,.5,0,.74a5.35,5.35,0,0,0,.07.7l1.25.08v1Zm-4.56-1a5,5,0,0,0,2.65-.71,4.12,4.12,0,0,0,1.66-1.81v-2.55h-2.8a5.17,5.17,0,0,0-3,.8,2.35,2.35,0,0,0-1.13,2,2.14,2.14,0,0,0,.7,1.65A2.81,2.81,0,0,0,660.67,245.38Z"/><path class="cls-10" d="M669.42,245.34l1.89-.15v-10.3l-1.89-.15v-1.05h3.12l.13,2.22a4.33,4.33,0,0,1,4.06-2.45,3.86,3.86,0,0,1,3.11,1.26,6,6,0,0,1,1.06,3.93v6.54l1.89.15v1h-5.17v-1l1.89-.15v-6.53a4.6,4.6,0,0,0-.81-3.08,2.9,2.9,0,0,0-2.29-.9,3.57,3.57,0,0,0-2.38.78,4.38,4.38,0,0,0-1.33,2.07v7.66l1.89.15v1h-5.17Z"/><path class="cls-10" d="M690.39,246.62a5,5,0,0,1-3.92-1.75,6.47,6.47,0,0,1-1.56-4.46v-.65a6.68,6.68,0,0,1,1.55-4.51,4.8,4.8,0,0,1,3.74-1.79,4.6,4.6,0,0,1,3.63,1.48,5.66,5.66,0,0,1,1.32,3.93v1.2h-8.86v.34a5.62,5.62,0,0,0,1.14,3.58,3.59,3.59,0,0,0,3,1.45,6,6,0,0,0,2.2-.37,4.45,4.45,0,0,0,1.57-1l.59,1a5,5,0,0,1-1.79,1.19A6.84,6.84,0,0,1,690.39,246.62Zm-.19-12a3.32,3.32,0,0,0-2.58,1.19,5.11,5.11,0,0,0-1.22,3l0,0h7.35v-.35a4.07,4.07,0,0,0-1-2.76A3.28,3.28,0,0,0,690.2,234.65Z"/><path class="cls-10" d="M701.17,247.42a4.46,4.46,0,0,1-.92,3,3.25,3.25,0,0,1-2.59,1.06,4.68,4.68,0,0,1-.67-.05,6,6,0,0,1-.63-.17l.15-1.18a2.75,2.75,0,0,0,.5.11,3.07,3.07,0,0,0,.57.06,2,2,0,0,0,1.62-.72,3.31,3.31,0,0,0,.58-2.12V234.89l-1.89-.15v-1.05h3.28ZM701.1,230h-1.39v-1.92h1.39Z"/><path class="cls-10" d="M712.82,246.37a11.15,11.15,0,0,1-.2-1.11,7.46,7.46,0,0,1-.06-.95,5.49,5.49,0,0,1-1.85,1.65,5.22,5.22,0,0,1-2.61.66,4,4,0,0,1-2.86-1,3.43,3.43,0,0,1-1-2.6,3.19,3.19,0,0,1,1.49-2.79,7,7,0,0,1,4.06-1h2.77v-1.68a2.71,2.71,0,0,0-.86-2.13,3.49,3.49,0,0,0-2.42-.78,6.07,6.07,0,0,0-1.91.29,4.31,4.31,0,0,0-1.44.78l-.12,1.7h-1.15l0-2.44a7.2,7.2,0,0,1,2.08-1.1,7.84,7.84,0,0,1,2.58-.42,5,5,0,0,1,3.34,1.07,3.78,3.78,0,0,1,1.26,3.05v6.24c0,.26,0,.5,0,.74a5.35,5.35,0,0,0,.08.7l1.25.08v1Zm-4.57-1a5,5,0,0,0,2.65-.71,4.12,4.12,0,0,0,1.66-1.81v-2.55h-2.79a5.15,5.15,0,0,0-3,.8,2.33,2.33,0,0,0-1.13,2,2.1,2.1,0,0,0,.7,1.65A2.79,2.79,0,0,0,708.25,245.38Z"/><path class="cls-10" d="M717,234.74v-1.05h3.12l.12,2.1a4.41,4.41,0,0,1,1.62-1.72,4.51,4.51,0,0,1,2.4-.61,3.62,3.62,0,0,1,3.78,2.87,4.92,4.92,0,0,1,1.62-2.1,4.15,4.15,0,0,1,2.55-.77,3.76,3.76,0,0,1,3.1,1.35,6.48,6.48,0,0,1,1.1,4.17v6.2l1.89.16v1h-5.18v-1l1.89-.16V239a5.16,5.16,0,0,0-.82-3.31,2.83,2.83,0,0,0-2.28-1,3.11,3.11,0,0,0-2.5,1,5.08,5.08,0,0,0-1.08,2.66v.18a1.22,1.22,0,0,1,0,.21v6.42l1.89.15v1H725v-1l1.89-.15V239a5.13,5.13,0,0,0-.83-3.28,2.81,2.81,0,0,0-2.28-1,3.47,3.47,0,0,0-2.35.75,4.06,4.06,0,0,0-1.21,2v7.72l1.89.15v1H717v-1l1.89-.15v-10.3Z"/><path class="cls-10" d="M745.39,246.62a5.06,5.06,0,0,1-3.92-1.75,6.51,6.51,0,0,1-1.55-4.46v-.65a6.68,6.68,0,0,1,1.55-4.51,4.79,4.79,0,0,1,3.74-1.79,4.6,4.6,0,0,1,3.63,1.48,5.66,5.66,0,0,1,1.32,3.93v1.2H741.3v.34a5.67,5.67,0,0,0,1.13,3.58,3.59,3.59,0,0,0,3,1.45,6,6,0,0,0,2.21-.37,4.32,4.32,0,0,0,1.56-1l.59,1a4.93,4.93,0,0,1-1.78,1.19A6.89,6.89,0,0,1,745.39,246.62Zm-.18-12a3.32,3.32,0,0,0-2.58,1.19,5.18,5.18,0,0,0-1.23,3l0,0h7.35v-.35a4.07,4.07,0,0,0-1-2.76A3.28,3.28,0,0,0,745.21,234.65Z"/><path class="cls-10" d="M752.39,245.34l1.89-.15v-10.3l-1.89-.15v-1.05h3.12l.12,2.22a4.56,4.56,0,0,1,1.63-1.81,4.5,4.5,0,0,1,2.43-.64,3.85,3.85,0,0,1,3.11,1.26,6,6,0,0,1,1.07,3.93v6.54l1.89.15v1h-5.17v-1l1.89-.15v-6.53a4.6,4.6,0,0,0-.81-3.08,2.92,2.92,0,0,0-2.29-.9,3.55,3.55,0,0,0-2.38.78,4.31,4.31,0,0,0-1.33,2.07v7.66l1.89.15v1h-5.17Z"/><path class="cls-10" d="M771.13,230.45v3.24h2.76v1.15h-2.76v8.26a2.8,2.8,0,0,0,.44,1.77,1.52,1.52,0,0,0,1.19.52q.35,0,.66,0c.21,0,.46-.05.73-.1l.21,1a3.85,3.85,0,0,1-.84.24,6.85,6.85,0,0,1-1,.08,2.6,2.6,0,0,1-2.06-.84,4,4,0,0,1-.74-2.68v-8.26h-2.15v-1.15h2.15v-3.24Z"/><path class="cls-10" d="M776.21,239.85a6.84,6.84,0,0,1,1.52-4.6,5.43,5.43,0,0,1,8.06,0,6.9,6.9,0,0,1,1.52,4.6v.38a6.86,6.86,0,0,1-1.52,4.6,5.43,5.43,0,0,1-8.06,0,6.81,6.81,0,0,1-1.52-4.6Zm1.39.38a6.13,6.13,0,0,0,1.1,3.71,3.6,3.6,0,0,0,3.07,1.5,3.55,3.55,0,0,0,3-1.5,6.07,6.07,0,0,0,1.11-3.71v-.38a6,6,0,0,0-1.11-3.68,3.83,3.83,0,0,0-6.11,0,6.08,6.08,0,0,0-1.1,3.68Z"/><path class="cls-10" d="M408.05,263.54v-1.05h3.05l.17,2a4.63,4.63,0,0,1,1.63-1.63,4.56,4.56,0,0,1,2.32-.57,4.09,4.09,0,0,1,3.54,1.82,8.35,8.35,0,0,1,1.28,4.86v.25a7.39,7.39,0,0,1-1.28,4.54,4.15,4.15,0,0,1-3.51,1.69,5,5,0,0,1-2.32-.51,4.16,4.16,0,0,1-1.61-1.45v5.39l1.89.16v1h-5.16v-1l1.89-.16V263.69Zm10.59,5.4a7.3,7.3,0,0,0-.95-3.94,3.08,3.08,0,0,0-2.78-1.52,3.63,3.63,0,0,0-2.28.67,4.18,4.18,0,0,0-1.31,1.75V272a3.8,3.8,0,0,0,1.37,1.64,4,4,0,0,0,2.24.6,3.13,3.13,0,0,0,2.77-1.39,6.37,6.37,0,0,0,.94-3.66Z"/><path class="cls-10" d="M431,275.17c-.09-.43-.16-.8-.2-1.11a7.46,7.46,0,0,1-.05-.95,5.51,5.51,0,0,1-1.86,1.65,5.17,5.17,0,0,1-2.61.66,4,4,0,0,1-2.85-1,3.43,3.43,0,0,1-1-2.6,3.23,3.23,0,0,1,1.5-2.79,7,7,0,0,1,4.05-1h2.78v-1.68a2.69,2.69,0,0,0-.87-2.13,3.47,3.47,0,0,0-2.42-.78,6,6,0,0,0-1.9.29,4.27,4.27,0,0,0-1.45.78l-.11,1.7h-1.15v-2.44a7.2,7.2,0,0,1,2.08-1.1,7.84,7.84,0,0,1,2.58-.42,5,5,0,0,1,3.34,1.07,3.78,3.78,0,0,1,1.27,3.05v6.24c0,.26,0,.5,0,.74a5.35,5.35,0,0,0,.08.7l1.25.08v1Zm-4.57-1a5,5,0,0,0,2.66-.71,4.12,4.12,0,0,0,1.66-1.81v-2.55h-2.8a5.15,5.15,0,0,0-3,.8,2.35,2.35,0,0,0-1.13,2,2.1,2.1,0,0,0,.7,1.65A2.79,2.79,0,0,0,426.39,274.18Z"/><path class="cls-10" d="M438.41,262.49l.17,2.11v.16a4.44,4.44,0,0,1,1.46-1.84,3.63,3.63,0,0,1,2.18-.66,3,3,0,0,1,.52,0l.41.09L443,263.7l-1-.07a3.15,3.15,0,0,0-2.15.74,4.14,4.14,0,0,0-1.2,2.05V274l1.89.15v1h-5.16v-1l1.89-.15v-10.3l-1.89-.15v-1.05h3.1Z"/><path class="cls-10" d="M453.61,275.17c-.09-.43-.16-.8-.2-1.11a7.46,7.46,0,0,1-.06-.95,5.38,5.38,0,0,1-1.85,1.65,5.17,5.17,0,0,1-2.61.66,4,4,0,0,1-2.85-1,3.4,3.4,0,0,1-1-2.6,3.24,3.24,0,0,1,1.49-2.79,7,7,0,0,1,4.06-1h2.77v-1.68a2.68,2.68,0,0,0-.86-2.13,3.49,3.49,0,0,0-2.42-.78,6.12,6.12,0,0,0-1.91.29,4.31,4.31,0,0,0-1.44.78l-.12,1.7h-1.14v-2.44a7.2,7.2,0,0,1,2.08-1.1,7.84,7.84,0,0,1,2.58-.42,5,5,0,0,1,3.34,1.07,3.78,3.78,0,0,1,1.26,3.05v6.24c0,.26,0,.5,0,.74a5.35,5.35,0,0,0,.08.7l1.25.08v1Zm-4.57-1a5,5,0,0,0,2.66-.71,4.1,4.1,0,0,0,1.65-1.81v-2.55h-2.79a5.15,5.15,0,0,0-3,.8,2.33,2.33,0,0,0-1.13,2,2.1,2.1,0,0,0,.7,1.65A2.79,2.79,0,0,0,449,274.18Z"/><path class="cls-10" d="M478.26,275.17c-.09-.43-.15-.8-.19-1.11a7.46,7.46,0,0,1-.06-.95,5.33,5.33,0,0,1-1.86,1.65,5.16,5.16,0,0,1-2.6.66,4,4,0,0,1-2.86-1,3.43,3.43,0,0,1-1-2.6,3.23,3.23,0,0,1,1.5-2.79,7,7,0,0,1,4.06-1H478v-1.68a2.71,2.71,0,0,0-.86-2.13,3.5,3.5,0,0,0-2.42-.78,6.07,6.07,0,0,0-1.91.29,4.13,4.13,0,0,0-1.44.78l-.12,1.7h-1.15v-2.44a7.26,7.26,0,0,1,2.09-1.1,7.76,7.76,0,0,1,2.58-.42,5,5,0,0,1,3.34,1.07,3.78,3.78,0,0,1,1.26,3.05v6.24c0,.26,0,.5,0,.74a5.35,5.35,0,0,0,.07.7l1.25.08v1Zm-4.56-1a5,5,0,0,0,2.65-.71,4.06,4.06,0,0,0,1.66-1.81v-2.55h-2.79a5.18,5.18,0,0,0-3,.8,2.35,2.35,0,0,0-1.13,2,2.14,2.14,0,0,0,.7,1.65A2.81,2.81,0,0,0,473.7,274.18Z"/><path class="cls-10" d="M488.23,274.14l1.89-.15v-10.3l-1.89-.15v-1.05h3.12l.12,2.22a4.56,4.56,0,0,1,1.63-1.81,4.5,4.5,0,0,1,2.43-.64,3.85,3.85,0,0,1,3.11,1.26,6,6,0,0,1,1.07,3.93V274l1.89.15v1h-5.17v-1l1.89-.15v-6.53a4.6,4.6,0,0,0-.81-3.08,2.92,2.92,0,0,0-2.29-.9,3.55,3.55,0,0,0-2.38.78,4.31,4.31,0,0,0-1.33,2.07V274l1.89.15v1h-5.17Z"/><path class="cls-10" d="M503.66,268.65a6.9,6.9,0,0,1,1.52-4.6,5.43,5.43,0,0,1,8.06,0,6.9,6.9,0,0,1,1.52,4.6V269a6.85,6.85,0,0,1-1.51,4.6,5.44,5.44,0,0,1-8.07,0,6.86,6.86,0,0,1-1.52-4.6Zm1.39.38a6.07,6.07,0,0,0,1.11,3.71,3.86,3.86,0,0,0,6.11,0,6.13,6.13,0,0,0,1.1-3.71v-.38a6,6,0,0,0-1.11-3.68,3.82,3.82,0,0,0-6.1,0,6,6,0,0,0-1.11,3.68Z"/><path class="cls-10" d="M526.13,266.41H525l-.16-1.8a3.58,3.58,0,0,0-1.32-.85,5.16,5.16,0,0,0-1.83-.31,3.36,3.36,0,0,0-2.27.67,2,2,0,0,0-.76,1.55,1.82,1.82,0,0,0,.65,1.45,6.27,6.27,0,0,0,2.62,1,8.58,8.58,0,0,1,3.35,1.38,2.85,2.85,0,0,1,1.11,2.37,3.06,3.06,0,0,1-1.27,2.56,5.37,5.37,0,0,1-3.36,1,7.81,7.81,0,0,1-2.53-.39,6,6,0,0,1-2-1.11v-2.56h1.13l.19,1.81A3.29,3.29,0,0,0,520,274a6.23,6.23,0,0,0,1.78.26,3.85,3.85,0,0,0,2.38-.67A2,2,0,0,0,525,272a2.08,2.08,0,0,0-.72-1.56,6,6,0,0,0-2.62-1.09,8.83,8.83,0,0,1-3.32-1.3,2.72,2.72,0,0,1-1.09-2.28,3.09,3.09,0,0,1,1.22-2.46,4.87,4.87,0,0,1,3.21-1,7.07,7.07,0,0,1,2.53.43,5.07,5.07,0,0,1,1.86,1.15Z"/><path class="cls-10" d="M538,266.41h-1.13l-.17-1.8a3.46,3.46,0,0,0-1.31-.85,5.16,5.16,0,0,0-1.83-.31,3.41,3.41,0,0,0-2.28.67,2,2,0,0,0-.76,1.55,1.83,1.83,0,0,0,.66,1.45,6.28,6.28,0,0,0,2.61,1,8.52,8.52,0,0,1,3.35,1.38,2.83,2.83,0,0,1,1.12,2.37,3.06,3.06,0,0,1-1.27,2.56,5.39,5.39,0,0,1-3.36,1,7.76,7.76,0,0,1-2.53-.39,6,6,0,0,1-2-1.11v-2.56h1.12l.2,1.81a3.18,3.18,0,0,0,1.41.81,6.18,6.18,0,0,0,1.78.26,3.85,3.85,0,0,0,2.38-.67,2,2,0,0,0,.87-1.62,2.06,2.06,0,0,0-.73-1.56,5.86,5.86,0,0,0-2.61-1.09,8.83,8.83,0,0,1-3.32-1.3,2.69,2.69,0,0,1-1.09-2.28,3.09,3.09,0,0,1,1.22-2.46,4.87,4.87,0,0,1,3.21-1,7,7,0,0,1,2.52.43,5.12,5.12,0,0,1,1.87,1.15Z"/><path class="cls-10" d="M549.46,275.17c-.09-.43-.16-.8-.2-1.11a7.46,7.46,0,0,1-.06-.95,5.38,5.38,0,0,1-1.85,1.65,5.17,5.17,0,0,1-2.61.66,4,4,0,0,1-2.85-1,3.4,3.4,0,0,1-1-2.6,3.24,3.24,0,0,1,1.49-2.79,7,7,0,0,1,4.06-1h2.77v-1.68a2.68,2.68,0,0,0-.86-2.13,3.49,3.49,0,0,0-2.42-.78,6.12,6.12,0,0,0-1.91.29,4.31,4.31,0,0,0-1.44.78l-.12,1.7h-1.14v-2.44a7.2,7.2,0,0,1,2.08-1.1,7.84,7.84,0,0,1,2.58-.42,5,5,0,0,1,3.34,1.07,3.78,3.78,0,0,1,1.26,3.05v6.24c0,.26,0,.5,0,.74a5.35,5.35,0,0,0,.08.7l1.25.08v1Zm-4.57-1a5,5,0,0,0,2.66-.71,4.1,4.1,0,0,0,1.65-1.81v-2.55h-2.79a5.15,5.15,0,0,0-3,.8,2.33,2.33,0,0,0-1.13,2,2.1,2.1,0,0,0,.7,1.65A2.79,2.79,0,0,0,544.89,274.18Z"/><path class="cls-10" d="M563.21,276.22a4.46,4.46,0,0,1-.92,3,3.26,3.26,0,0,1-2.59,1.06,3.58,3.58,0,0,1-.67-.05,6,6,0,0,1-.63-.17l.15-1.18a3.9,3.9,0,0,0,.49.12,4.4,4.4,0,0,0,.58.05,2,2,0,0,0,1.62-.72,3.31,3.31,0,0,0,.58-2.12V263.69l-1.89-.15v-1.05h3.28Zm-.07-17.41h-1.39v-1.92h1.39Z"/><path class="cls-10" d="M566.19,268.65a6.9,6.9,0,0,1,1.52-4.6,5.43,5.43,0,0,1,8.06,0,6.84,6.84,0,0,1,1.52,4.6V269a6.85,6.85,0,0,1-1.51,4.6,5.44,5.44,0,0,1-8.07,0,6.86,6.86,0,0,1-1.52-4.6Zm1.4.38a6.07,6.07,0,0,0,1.1,3.71,3.86,3.86,0,0,0,6.11,0,6.13,6.13,0,0,0,1.1-3.71v-.38a6,6,0,0,0-1.11-3.68,3.82,3.82,0,0,0-6.1,0,6,6,0,0,0-1.1,3.68Z"/><path class="cls-10" d="M582.56,262.49l.17,2.11v.16a4.44,4.44,0,0,1,1.46-1.84,3.63,3.63,0,0,1,2.18-.66,3,3,0,0,1,.52,0l.41.09-.18,1.31-1-.07a3.15,3.15,0,0,0-2.15.74,4.14,4.14,0,0,0-1.2,2.05V274l1.89.15v1h-5.16v-1l1.89-.15v-10.3l-1.89-.15v-1.05h3.1Z"/><path class="cls-10" d="M588.84,274.14l1.89-.15v-10.3l-1.89-.15v-1.05H592l.13,2.22a4.33,4.33,0,0,1,4.06-2.45,3.85,3.85,0,0,1,3.11,1.26,6,6,0,0,1,1.06,3.93V274l1.89.15v1H597v-1l1.89-.15v-6.53a4.67,4.67,0,0,0-.8-3.08,2.92,2.92,0,0,0-2.29-.9,3.58,3.58,0,0,0-2.39.78,4.38,4.38,0,0,0-1.33,2.07V274l1.89.15v1h-5.17Z"/><path class="cls-10" d="M613.06,275.17c-.09-.43-.16-.8-.2-1.11a7.46,7.46,0,0,1-.06-.95,5.38,5.38,0,0,1-1.85,1.65,5.22,5.22,0,0,1-2.61.66,4,4,0,0,1-2.86-1,3.43,3.43,0,0,1-1-2.6,3.22,3.22,0,0,1,1.49-2.79,7,7,0,0,1,4.06-1h2.77v-1.68a2.71,2.71,0,0,0-.86-2.13,3.49,3.49,0,0,0-2.42-.78,6.07,6.07,0,0,0-1.91.29,4.31,4.31,0,0,0-1.44.78l-.12,1.7H604.9l0-2.44a7.2,7.2,0,0,1,2.08-1.1,7.84,7.84,0,0,1,2.58-.42,5,5,0,0,1,3.34,1.07,3.78,3.78,0,0,1,1.26,3.05v6.24c0,.26,0,.5,0,.74a5.35,5.35,0,0,0,.08.7l1.25.08v1Zm-4.57-1a5,5,0,0,0,2.65-.71,4.06,4.06,0,0,0,1.66-1.81v-2.55H610a5.15,5.15,0,0,0-3,.8,2.33,2.33,0,0,0-1.13,2,2.1,2.1,0,0,0,.7,1.65A2.79,2.79,0,0,0,608.49,274.18Z"/><path class="cls-10" d="M626.22,273.35a4.44,4.44,0,0,1-1.61,1.53,4.76,4.76,0,0,1-2.32.54,4.16,4.16,0,0,1-3.52-1.7,7.36,7.36,0,0,1-1.27-4.53v-.25a8.35,8.35,0,0,1,1.27-4.86,4.09,4.09,0,0,1,3.54-1.82,4.41,4.41,0,0,1,2.28.56,4.65,4.65,0,0,1,1.6,1.58v-6.31l-1.89-.15v-1.05h3.28V274l1.89.15v1h-3.13Zm-7.32-4.16a6.51,6.51,0,0,0,.91,3.65,3.08,3.08,0,0,0,2.75,1.36,3.87,3.87,0,0,0,2.23-.61,4,4,0,0,0,1.4-1.67v-6a4.38,4.38,0,0,0-1.34-1.76,3.57,3.57,0,0,0-2.27-.68,3,3,0,0,0-2.76,1.52,7.53,7.53,0,0,0-.92,3.94Z"/><path class="cls-10" d="M640.26,275.17c-.09-.43-.15-.8-.19-1.11a7.46,7.46,0,0,1-.06-.95,5.33,5.33,0,0,1-1.86,1.65,5.16,5.16,0,0,1-2.6.66,4,4,0,0,1-2.86-1,3.43,3.43,0,0,1-1-2.6,3.23,3.23,0,0,1,1.5-2.79,7,7,0,0,1,4.06-1H640v-1.68a2.71,2.71,0,0,0-.86-2.13,3.5,3.5,0,0,0-2.42-.78,6.07,6.07,0,0,0-1.91.29,4.13,4.13,0,0,0-1.44.78l-.12,1.7h-1.15v-2.44a7.26,7.26,0,0,1,2.09-1.1,7.76,7.76,0,0,1,2.58-.42,5,5,0,0,1,3.34,1.07,3.78,3.78,0,0,1,1.26,3.05v6.24c0,.26,0,.5,0,.74a5.35,5.35,0,0,0,.07.7l1.25.08v1Zm-4.56-1a5,5,0,0,0,2.65-.71,4.06,4.06,0,0,0,1.66-1.81v-2.55h-2.79a5.18,5.18,0,0,0-3,.8,2.35,2.35,0,0,0-1.13,2,2.14,2.14,0,0,0,.7,1.65A2.81,2.81,0,0,0,635.7,274.18Z"/><path class="cls-10" d="M646.89,275.17h-1.65v-1.95h1.65Zm-.14-5.6h-1.38V258.11h1.38Z"/><g class="cls-11"><path class="cls-3" d="M162,144.12a11.13,11.13,0,0,1,8,3.63,19.36,19.36,0,0,1,4.82-.63,17.57,17.57,0,0,1,13.05,5.93c14.34,5.38,8.64,14,8.31,14.5l.16,0s8.41,5.88,5.53,8.76c0,0,5.19,6.44,1,9.9a4.57,4.57,0,0,1-1.5.76c11.79,18.36,18.82,50.79,14.18,77.52-.92,5.3-7,9.1-23.27,9.1h0a86.68,86.68,0,0,1-15.76-1.39c.15,1.24.33,2.59.52,3.95h0c.81,5.82,2,12.44,3.3,13.41,8.32,6.25,20.71,8.83,27.68,9.84l10.1.94a27.1,27.1,0,0,1,2.23,2.55h.12c3,0,5.43,3.32,5.43,3.32l39.78,69.64-34.34,61.6s11.53,19.36,5.77,28.12l8,8s1.27,4.26-4.5,4.26c-1.72,0-4.13-.9-6.68-2.17a434.2,434.2,0,0,1,1.59,45.12c-.56-.17-2.24-.39-4.64-.69l0,2.94h0c-.11,20.47-.05,50,1.17,56.77,1.9,10.55,0,15.74,0,15.74s5.19,82.07,5.19,82.71,7.26,10,7.26,10,9.6,7.55,17.08,13.55h0s4.49,1.17,6.25,2.64a6.17,6.17,0,0,1,1.89,3.93c.5.34,1.32.9,2.26,1.58a24.21,24.21,0,0,0,6.49,1.21c1,1,0,2.14-1.34,3,.75.8,1.2,1.49,1.07,1.94-.49,1.81-7.44,9.13-20,9.13-.71,0-1.43,0-2.18-.08-13.19-.86-31.49-14.92-33-18.84a11.68,11.68,0,0,1,.19-7.9c0-3.34,2-7.34,3.13-9.34,1.73-3.11,2.94-11.93,2.94-11.93-19-66.74-8.13-76.14-10.2-81-1.32-3.08-13.07-46.77-21.46-78.2h0s0-.09,0-.14c-.48-1.82-1-3.59-1.42-5.32a22.6,22.6,0,0,1-4.33-2.56,136.3,136.3,0,0,1-22.83,9L166.46,525l-22.67,56.83s-4.29,15.82-9.39,20.92a225,225,0,0,1-12.63,36.48c-8.64,19.37-12.44,46-12.44,46s6.19,15.73,6.92,25.55c7.28,10,13.82,22.29,5.15,25.92a49.81,49.81,0,0,1-18.88,3.32c-10.46,0-19.84-2.45-22-4.64C77,731.91,87,705.28,87,705.28c.31-2.42,1-4.76,2.39-5.75,3.46-2.42,7.61-8.3,7.61-8.3s-1.29-3.45,2.34-8.12,9-34.61,9-38.53-4.84-33.2,11.29-44.73c0,0,1.85-37.44,6.58-64.51h0c.51-3.07,1.07-6,1.68-8.74-5,.41-7.92.47-7.92.47s4.78-13.36,10.9-30.54c-5.22-.49-1.78-8.6-1.78-8.6a42.76,42.76,0,0,0,6.13-3.61l2-5.63c-1.73-4.26,2.59-17.5,2.59-17.5l-15.85-12-46-34.73s37-87.26,38.5-88.76c1-1,8.11-5.16,13-8,5.15-5.16,16.23-9.24,16.23-9.24s10.54-11.93,12.79-14.18,1.21-8.47,1.21-8.47l-5.77-22.19c-10.2-6.41-14.23-13.55-14.23-13.55a5.12,5.12,0,0,1-3.76,1.51c-3.35,0-6.73-2.54-6.73-2.54s-14.64-14.64-10-21.56a4.36,4.36,0,0,1,3.8-2.09c3,0,6.61,2.48,9.14,4.62-5.19-4.54-8-5.16-9.1-5.16a1.69,1.69,0,0,0-.35,0l-.09.06-.07,0-.1,0,0-.11c-1.09-.54-6-3.23-6.42-7.79-8.27-2.59-6.67-7.2-6.67-7.2-7.95-5.42,0-14.12,0-14.12-3.55-3.54-.81-8.7-.81-8.7-4.15-5.88,1-13.14,1-13.14.58-6.34,10.09-10.09,10.09-10.09.75-3.17,4.67-4.67,4.67-4.67a6.91,6.91,0,0,1,6.38-3.94c.33,0,.53,0,.53,0,3.45-7.45,16.38-8.16,21.21-8.16,1.15,0,1.85,0,1.85,0a12.91,12.91,0,0,1,7.84-3m65,272.39L248.37,378l-20.29-30.17c.54,8.66.88,17.57.78,25.94a339.5,339.5,0,0,1-3,40.92,2.87,2.87,0,0,1,1.16,1.79m-78,28.68c2.07-5.91,3.86-11.08,5.21-15-2.14-4.29,1.21-6.22,2.22-6.69.12-.38.21-.69.27-.92,2.08-7.61-17.46-44.93-17.46-44.93l-16.5-10.33L99.61,410.78l37,25.76L149,445.19M269.08,708h0M162,138.76h0a17.48,17.48,0,0,0-9.47,3h-.22c-6.95,0-18.65,1.17-24.31,8.39a12,12,0,0,0-7.61,5,13.55,13.55,0,0,0-5,4.75c-3.43,1.74-9.7,5.73-11.09,12.12-2.19,3.64-4.23,9.77-1.8,15.54a13.12,13.12,0,0,0,.26,8.07,16,16,0,0,0-2.4,9.71,12.08,12.08,0,0,0,3.46,7.11,9.78,9.78,0,0,0,.93,2.82,13.23,13.23,0,0,0,6.63,5.91,14.39,14.39,0,0,0,2.75,4.27c-2.6,4.77-1.32,11,3.82,18.54a70.38,70.38,0,0,0,7.38,9l.56.49c.81.6,5.06,3.62,10,3.62a10.94,10.94,0,0,0,2-.17A53.91,53.91,0,0,0,149.2,267l5.18,19.91a12.36,12.36,0,0,1,0,3.89c-2.33,2.41-9.29,10.24-11.86,13.15-3.26,1.29-11.37,4.82-16.33,9.45-12,6.91-13,7.88-13.6,8.52-1,1-1.66,1.67-20.94,46.62C82.28,390.32,73,412.18,72.92,412.4l1.71,6.37,46.05,34.74,12.86,9.7C132.2,468,131,474,131.59,478.36l-.89,2.51a42.38,42.38,0,0,1-4,2.2l-2.64,2.76c-.73,1.71-2.9,7.66-.26,12.08a6.92,6.92,0,0,0,.52.77c-5.43,15.23-9.49,26.57-9.49,26.57l5.14,7.17,1.22,0q-.18,1-.36,2.07h0c-4.09,23.42-6,53.89-6.51,62.7-14.35,12.54-12.29,37.07-11.59,45.38.07.83.15,1.76.15,2-.06,4.36-5.38,31.48-7.88,35.27a16.12,16.12,0,0,0-3.67,9.91,30.26,30.26,0,0,1-5.09,5.38c-2.42,1.69-3.91,4.58-4.55,8.82-.66,1.79-2.71,7.48-4.47,13.58-3.64,12.57-3.79,18.44-.56,21.67,4.08,4.08,16.08,6.21,25.82,6.21a55.06,55.06,0,0,0,20.94-3.73,11.49,11.49,0,0,0,7-7.64c1.71-6.15-1.14-14.18-9-25.19-1-8.72-5.13-20.23-6.61-24.18.9-5.56,4.68-27.2,11.83-43.22a233.43,233.43,0,0,0,12.62-36.1c5.06-6.21,8.7-18.54,9.59-21.78L171.44,527l1.46-3.67a142.9,142.9,0,0,0,18.43-7.24l.14.08.8,3,0,.08,0,0c18.17,68.09,20.86,76.72,21.55,78.55,0,.48-.2,1.47-.34,2.29-1.3,7.81-4.34,26,10.16,77.33-.55,3.54-1.5,7.78-2.16,9-2.29,4.12-3.55,7.8-3.77,10.95a16.68,16.68,0,0,0,.13,10.8c2,5.1,12.19,11.87,14.22,13.17,4.92,3.15,14.5,8.53,23.43,9.12.85,0,1.7.08,2.53.08,14.4,0,23.91-8.38,25.19-13.07a6.17,6.17,0,0,0,.15-2.5,6.6,6.6,0,0,0,.69-2.37,6.5,6.5,0,0,0-1.95-5.32l-3.57-1.57a20.7,20.7,0,0,1-4.22-.66,10.61,10.61,0,0,0-3.21-4.81,21.77,21.77,0,0,0-7.19-3.4c-6.27-5-13.74-10.91-15.75-12.49-2.24-2.89-4.74-6.21-5.82-7.77-.25-4.24-1.23-20.09-5-80.53.6-2.45,1.5-8.22-.13-17.26-.85-4.68-1.24-24.55-1.09-54.59l4.69-3.35c0-.85.4-18.56-1-37.74l.67,0c4.67,0,7.11-2,8.34-3.62a8.68,8.68,0,0,0,1.3-7.54l-1.35-2.27-5.4-5.4c1.28-4.72.6-10.73-2-17.94a78.24,78.24,0,0,0-4-8.92l32.89-59,0-5.27-39.78-69.64-.3-.47a14.21,14.21,0,0,0-7.06-5.17c-.41-.46-.83-.91-1.28-1.36l-3.3-1.55-9.95-.93c-6-.88-16.92-3.1-24.29-8.22a48.74,48.74,0,0,1-1.56-7.36c3.1.31,6.27.47,9.49.47,6.5,0,26.22,0,28.57-13.55,4.31-24.81-.94-56.41-12.53-77.29,2.49-3.78,1.73-8.58-.53-12.58a7.5,7.5,0,0,0,0-1.34c-.29-3.28-2.72-6.27-5.17-8.49a12.76,12.76,0,0,0-.29-6.57c-1.42-4.52-5.23-8.1-11.34-10.64a23.2,23.2,0,0,0-16.19-6.78,23.79,23.79,0,0,0-3.25.23,16,16,0,0,0-9.52-3.22ZM233.38,394c.43-6,.77-12.84.85-20.14,0-2.32,0-4.75,0-7.28l7.88,11.72L233.38,394Zm-126.8,15.1,18.19-34.2,10.38,6.5c1.43,2.79,5,9.76,8.37,17.3,6.37,14.05,7.68,19.69,7.92,21.7a9.78,9.78,0,0,0-2.77,4.05,9.63,9.63,0,0,0-.15,5.79c-.66,1.89-1.41,4.07-2.26,6.51l-6.6-4.61-33.08-23Z"/><path class="cls-5" d="M153.07,260.6l6.57,25.25s1,6.22-1.21,8.47-12.79,14.18-12.79,14.18l-5.88,11.58,34.06,19.37,40.63-10.89L213.24,300s-20.8-1.33-32.94-10.44c-2.38-1.79-4.4-22.59-4.4-22.59Z"/><path class="cls-12" d="M177,276.18c-.64-4.66-1.17-9.35-1.17-9.35L153,260.43l1.83,7s7.14,4.66,9.36,5.64A43.68,43.68,0,0,0,177,276.18Z"/><path class="cls-5" d="M134.13,315s-16.27,9.19-17.77,10.69-38.5,88.76-38.5,88.76l46.05,34.73,15.85,12s-5,15.39-2.08,18.33-8.64,8.41-8.64,8.41-4.5,10.61,4.61,8.3,21.44-8.41,21.44-8.41l6.11-34.13-24.61-17.14-37-25.76,23.13-43.48,16.5,10.33,20.23-14.78-14.53-36.2-6.22-13.6Z"/><path class="cls-5" d="M139.64,250.11s13.2,23.51,52.62,23.51c16.32,0,22.37-3.8,23.29-9.1,5.78-33.26-6.52-75.34-23.57-88.18-15-11.26-68,31.35-68,31.35l11.3,25.36s-11.53-12.45-16.14-5.53,10,21.56,10,21.56S135.72,254,139.64,250.11Z"/><path class="cls-5" d="M218.42,303.43c3.92-2.08,7.44,2.81,7.44,2.81l39.78,69.64-34.34,61.6s11.53,19.36,5.77,28.12l8,8s1.27,4.26-4.5,4.26-19.36-10.14-19.36-10.14l1.58-43.43L248.37,378l-23.54-35-7.36-6.52S211.11,307.3,218.42,303.43Z"/><path class="cls-5" d="M177.11,498.33l-33.32,83.54s-4.29,15.82-9.39,20.92a225,225,0,0,1-12.63,36.48c-8.64,19.37-12.44,46-12.44,46s7.86,20,6.91,29c0,0,7.52,10.38,4.5,16.34S105.87,733,105.87,733s-19.8,2.6-22.74-2.33,3.72-18.16,3.72-18.16-.95-10.55,2.5-13,7.61-8.3,7.61-8.3-1.29-3.45,2.34-8.12,9-34.61,9-38.53-4.84-33.2,11.29-44.73c0,0,3.92-79.54,15-90.6s42.54-17.64,42.54-17.64Z"/><path class="cls-13" d="M177.11,498.33,166.46,525s-14.74,6.58-18.47,7.49c-2.77.68-22.49,6.78-21.83,2.8,2.07-12.43,4.94-22.61,8.41-26.08,11.07-11.07,42.54-17.64,42.54-17.64Z"/><path class="cls-5" d="M189,486s27.89,105.36,30,110.2-8.82,14.24,10.2,81c0,0-1.21,8.82-2.94,11.93s-5.7,11.07-.69,13.84,21.27,16.59,28.18,17.8,19.89-4.84,19.89-4.84,6.92-2.59,4.75-4.75c0,0-6.31-.26-8.38-2.34s-25.59-20.57-25.59-20.57-7.26-9.34-7.26-10-5.19-82.71-5.19-82.71,1.9-5.19,0-15.74-1-77-1-77Z"/><path class="cls-13" d="M189,486s6.56,24.71,8.51,32c.75,2.81,33.27,5.06,33.27,5.06l.18-20.23Z"/><path class="cls-14" d="M189,506.83c5.39,10.69,43.31,12.95,46.45,13.94,0,0,1-42.94-5.06-67.07S189,506.83,189,506.83Z"/><path class="cls-15" d="M142.87,240.66c6.69,2.77.92-9.22.92-9.22s-.63-12-4-14.06a48.57,48.57,0,0,1-7.42-6.07l63.79-43.73s6.45-9-8.3-14.53a17.57,17.57,0,0,0-17.87-5.3s-6.46-7.72-15.79-.63c0,0-18.79-1.1-23.06,8.12a7,7,0,0,0-6.91,3.92s-3.92,1.5-4.67,4.67c0,0-9.51,3.75-10.09,10.09,0,0-5.19,7.26-1,13.14,0,0-2.74,5.16.81,8.7,0,0-7.95,8.7,0,14.12,0,0-2,5.65,9.68,8l3.46,7.14s3.33-1.51,12.91,8.07Z"/><path class="cls-12" d="M189.32,241.3a2.26,2.26,0,0,1,0-4.51c2.44,0,9.26-2.06,14-3.67-1.45-11.87-9-20.74-13.57-25.08a2.26,2.26,0,0,1,3.12-3.26c5.22,5,14.12,15.48,15.12,29.73l.11,1.7-1.6.58C205.17,237.25,193.74,241.3,189.32,241.3Z"/><path class="cls-16" d="M171.49,222.29h-.1a2.26,2.26,0,0,1-2.16-2.34c0-.66.38-6.46,4.51-8.66,2.62-1.4,5.89-.91,9.71,1.43a2.26,2.26,0,0,1-2.37,3.85c-2.29-1.41-4.14-1.87-5.22-1.3-1.63.87-2.09,4.06-2.12,4.86A2.26,2.26,0,0,1,171.49,222.29Z"/><path class="cls-16" d="M197.7,212.13a2.25,2.25,0,0,1-2-3.23c1.52-3.2,3.52-4.91,5.93-5.06,3.93-.28,6.82,4,7.13,4.48a2.26,2.26,0,1,1-3.79,2.45c-.67-1-2.17-2.45-3.05-2.43-.48,0-1.3.71-2.15,2.5A2.27,2.27,0,0,1,197.7,212.13Z"/><path class="cls-17" d="M169,242.17c-.33-.51,24.62,5.85,35.49.39,0,0-1.39,19.58-10.38,20.2C184.85,263.41,175.21,258.1,169,242.17Z"/><g class="cls-18"><path class="cls-19" d="M166.82,244.91s22.51,10.81,34.83,2.1l-.5-5-35.08-3.61Z"/><path class="cls-20" d="M169.5,254.29s8.86-6,20.14.93S187.28,269,187.28,269Z"/></g><path class="cls-12" d="M191.62,264.32c-16.39,0-24-21.42-24.05-21.66l-.88-2.55,2.64.59c.23.05,23.26,5.16,34.57.47a1.52,1.52,0,0,1,2,.82,1.5,1.5,0,0,1-.81,2c-9.85,4.09-26.88,1.51-33.6.25,2.71,5.92,10.68,19.94,24.33,16.59a1.5,1.5,0,0,1,.72,2.92A20.45,20.45,0,0,1,191.62,264.32Z"/><path class="cls-12" d="M134.74,247.46s-.34-15.13-12-18.76"/><path class="cls-12" d="M122.74,367.3s10-13.37,8.66-11.34c-7.3,11.3,18.69,24.34,24.78,17.38,0,0-6.05,7.72-16.94,4.29Z"/><path class="cls-21" d="M145.64,308.5s-11.08,4.08-16.23,9.24c0,0,31,45,9.83,59.89,0,0,19.54,37.32,17.46,44.93s-36.78,104.5-36.78,104.5,107.2-1.91,111-72l-5.07-40.35a339.5,339.5,0,0,0,3-40.92c.22-19.69-1.93-42.31-3.51-57.76a25,25,0,0,0-7.27-15.67l-10.1-.94s8,26.71-10.47,29.23C187.57,330,163.62,333.24,145.64,308.5Z"/><g class="cls-22"><path class="cls-23" d="M123.91,529.68s107.2-1.9,111-72Z"/></g><path class="cls-21" d="M145.64,308.5s-11.08,4.08-16.23,9.24c0,0,31,45,9.83,59.89,0,0,19.54,37.32,17.46,44.93s-36.78,104.5-36.78,104.5,107.2-1.91,111-72l-5.07-40.35a339.5,339.5,0,0,0,3-40.92c.22-19.69-1.93-42.31-3.51-57.76a25,25,0,0,0-7.27-15.67l-10.1-.94s8,26.71-10.47,29.23C187.57,330,163.62,333.24,145.64,308.5Z"/><path class="cls-5" d="M123.91,449.22l15.85,12s-5,15.39-2.08,18.33-8.64,8.41-8.64,8.41-4.5,10.61,4.61,8.3,21.44-8.41,21.44-8.41l5.18-28.95s1.59-5.68-4.87-9.47c-5-2.93-18.81-12.85-18.81-12.85Z"/><path class="cls-4" d="M154.32,430.4s56.52,7.53,72.2-10.46c0,0,1.71-3.55-.65-5.22.33,3.33-26.55,17.81-69.17,8.65C156.7,423.37,151.56,425.21,154.32,430.4Z"/><circle class="cls-24" cx="201.27" cy="427.68" r="13.18"/><g class="cls-25"><path class="cls-26" d="M138.67,172.65s-5.66,6.86,1.52,11.44c2.51,1.61-7.44,9.34-7.44,9.34l-4,22.56s5.2-2.08,8.65-2.08l18.2,20.84L143.91,242,106.67,217,81.89,169.08l31.93-29L148.75,132l-6.14,12.16s-14.83,9.06-9.16,15.59C129.9,162.2,129.21,172,138.67,172.65Z"/></g><path class="cls-10" d="M122.52,225s-6.68-3-6.68-8.53,26-57.86,80.46-48.87c0,0,8.41,5.88,5.53,8.76,0,0,5.19,6.44,1,9.9S178.55,184.63,122.52,225Z"/><path class="cls-27" d="M125.46,212.77s34.82-42.43,72.05-36.89C197.51,175.88,162.81,177.74,125.46,212.77Z"/><path class="cls-28" d="M202.72,438.69c-2.06,0-6.5-.42-9.42-3.67-2.52-2.81-3.23-6.9-2.1-12.15a2.26,2.26,0,1,1,4.41.95c-.81,3.76-.45,6.51,1,8.19,2.27,2.53,6.67,2.15,6.71,2.14a2.26,2.26,0,1,1,.47,4.49A9.94,9.94,0,0,1,202.72,438.69Z"/><path class="cls-29" d="M209.24,434.22a2.63,2.63,0,0,1-.49-.05,2.26,2.26,0,0,1-1.72-2.7c.83-3.75.5-6.51-1-8.19-2.25-2.54-6.66-2.19-6.7-2.18a2.26,2.26,0,1,1-.44-4.49c.27,0,6.72-.61,10.52,3.67,2.51,2.83,3.19,6.92,2,12.17A2.27,2.27,0,0,1,209.24,434.22Z"/><path class="cls-16" d="M168.18,208.22c.77-2.67,3-4.45,5.18-6.07,1.36-1,0-3.35-1.35-2.31-2.72,2.06-5.44,4.26-6.42,7.67a1.34,1.34,0,0,0,2.59.71Z"/><path class="cls-16" d="M196.65,196.21a5.76,5.76,0,0,1,4.77,1.66c1.23,1.21,3.13-.68,1.89-1.89a8.58,8.58,0,0,0-7.37-2.36c-1.7.24-1,2.82.71,2.59Z"/></g></svg>