<svg id="Camada_1" data-name="Camada 1" xmlns="http://www.w3.org/2000/svg" xmlns:xlink="http://www.w3.org/1999/xlink" viewBox="0 0 850 511.33"><defs><style>.cls-1{fill:none;}.cls-2{clip-path:url(#clip-path);}.cls-3{fill:#eaa000;}.cls-4{fill:#6d472e;}.cls-5{fill:#eac2a7;}.cls-6{fill:#97d8dd;}.cls-7{fill:#027e8f;}.cls-8{fill:#65c4d1;}.cls-9{fill:#fff;}.cls-10{clip-path:url(#clip-path-2);}.cls-11{fill:#c9a68f;}.cls-12{fill:#d6aa8b;}.cls-13{fill:#d6d6d6;}.cls-14{fill:#c99f4b;}.cls-15{fill:#f4f4f4;}.cls-16{clip-path:url(#clip-path-3);}.cls-17{fill:#b7b7b7;}.cls-18{fill:#c99e32;}.cls-19{clip-path:url(#clip-path-4);}.cls-20{fill:#aa7e30;}.cls-21{fill:#ddd;}.cls-22{fill:#846829;}.cls-23{fill:#e8cd95;}.cls-24{fill:#6d5f56;}.cls-25{fill:#493e38;}.cls-26{fill:#d32222;}.cls-27{fill:#fcfcfc;}</style><clipPath id="clip-path"><path class="cls-1" d="M221.87-429.31c-3.18-11.52-10-24.41-26.26-30.13-65.46-23-62.88-8.05-73.71-10-5.18-.92-26.69,12-44,37.5C65.05-413.11,64-376.16,64-376.16S13.77-151.6,99.83-121.9c80.42,27.77,128.73-5,128.73-5S288.77-187.52,221.87-429.31Z"/></clipPath><clipPath id="clip-path-2"><path class="cls-1" d="M238.76,184.44c-3.19-11.51-10-24.41-26.27-30.12-65.45-23-62.87-8-73.7-10-5.18-.92-26.7,12-44,37.5-12.81,18.8-13.88,55.75-13.88,55.75S30.66,462.15,116.71,491.86c80.43,27.77,128.74-5.05,128.74-5.05S305.66,426.23,238.76,184.44Z"/></clipPath><clipPath id="clip-path-3"><path class="cls-1" d="M187.47,509.72c5.39,10.69,43.31,12.95,46.45,13.95,0,0,1-42.95-5.06-67.08S187.47,509.72,187.47,509.72Z"/></clipPath><clipPath id="clip-path-4"><path class="cls-1" d="M141.36,243.55c6.68,2.77.92-9.22.92-9.22s-.63-12-4-14.06a49.13,49.13,0,0,1-7.42-6.07l17.09-11.71,46.7-32s6.46-9-8.3-14.53a17.55,17.55,0,0,0-17.86-5.3s-6.46-7.72-15.8-.63c0,0-18.79-1.1-23.05,8.13a7,7,0,0,0-6.92,3.91s-3.92,1.5-4.67,4.67c0,0-9.51,3.75-10.08,10.09,0,0-5.19,7.26-1,13.14,0,0-2.74,5.16.81,8.7,0,0-8,8.71,0,14.12,0,0-2,5.65,9.68,8l3.46,7.14s3.33-1.51,12.91,8.07Z"/></clipPath></defs><title>Fala2</title><g class="cls-2"><path class="cls-3" d="M143.61-466.74a11.13,11.13,0,0,1,7.95,3.63,18.94,18.94,0,0,1,4.82-.64,17.54,17.54,0,0,1,13.05,5.94c14.34,5.38,8.64,14,8.31,14.5l.16,0s8.41,5.88,5.53,8.77c0,0,5.19,6.44,1,9.9a4.77,4.77,0,0,1-1.5.75c11.79,18.37,18.82,50.79,14.18,77.53-.92,5.29-7,9.1-23.27,9.1h0a85.78,85.78,0,0,1-15.77-1.4c.15,1.25.33,2.6.52,3.95h0c.81,5.83,2,12.45,3.31,13.42,8.31,6.24,20.7,8.83,27.68,9.84l10.09.94a25.74,25.74,0,0,1,2.24,2.55H202c3,0,5.43,3.33,5.43,3.33L247.24-235l-34.34,61.6s11.53,19.37,5.77,28.13l8,8s1.27,4.26-4.5,4.26c-1.71,0-4.13-.91-6.68-2.17A434.2,434.2,0,0,1,217-90.09a41.45,41.45,0,0,0-4.64-.69l0,2.94h0c-.11,20.47,0,50,1.17,56.77,1.9,10.55,0,15.74,0,15.74s5.19,82.07,5.19,82.7,7.26,10,7.26,10,9.6,7.55,17.08,13.55h0s4.49,1.17,6.25,2.64a6.15,6.15,0,0,1,1.89,3.93c.5.33,1.32.9,2.26,1.58a24.66,24.66,0,0,0,6.49,1.21c1,1,0,2.14-1.34,3,.75.79,1.2,1.49,1.08,1.94-.5,1.8-7.45,9.12-20,9.12-.71,0-1.43,0-2.17-.07-13.2-.86-31.5-14.93-33-18.85a11.64,11.64,0,0,1,.19-7.89c0-3.34,2-7.34,3.13-9.34,1.73-3.11,2.94-11.93,2.94-11.93-19-66.74-8.12-76.14-10.2-81-1.32-3.08-13.07-46.77-21.46-78.2h0a1,1,0,0,0,0-.14c-.48-1.82-1-3.6-1.42-5.32a22.11,22.11,0,0,1-4.33-2.57,135.5,135.5,0,0,1-22.83,9.05l-2.41,6L125.39-29S121.1-13.17,116-8.07a225.48,225.48,0,0,1-12.62,36.48c-8.65,19.37-12.45,46-12.45,46S97.12,90.14,97.85,100c7.28,10,13.82,22.29,5.15,25.92a50,50,0,0,1-18.88,3.32c-10.46,0-19.84-2.46-22-4.64-3.51-3.51,6.46-30.15,6.46-30.15.31-2.42,1-4.75,2.39-5.74,3.46-2.42,7.61-8.3,7.61-8.3s-1.29-3.46,2.34-8.13,9-34.61,9-38.53S85.05.52,101.19-11c0,0,1.84-37.44,6.57-64.52h0c.51-3.07,1.08-6,1.68-8.74-5,.41-7.92.47-7.92.47s4.78-13.36,10.9-30.54c-5.22-.5-1.78-8.6-1.78-8.6a42.76,42.76,0,0,0,6.13-3.61q1-2.8,2-5.63c-1.73-4.26,2.59-17.5,2.59-17.5l-15.85-12L59.46-196.37s37-87.26,38.5-88.76c1-1,8.11-5.16,13.05-8,5.15-5.15,16.23-9.23,16.23-9.23s10.54-11.93,12.79-14.18,1.21-8.48,1.21-8.48l-5.77-22.18c-10.2-6.41-14.23-13.55-14.23-13.55a5.12,5.12,0,0,1-3.76,1.51c-3.35,0-6.73-2.55-6.73-2.55s-14.64-14.64-10-21.55a4.36,4.36,0,0,1,3.8-2.1c3,0,6.61,2.49,9.14,4.62-5.19-4.53-8-5.15-9.1-5.15l-.35,0-.09.07-.07,0-.1,0,0-.11c-1.09-.54-6-3.23-6.41-7.79-8.28-2.59-6.68-7.2-6.68-7.2-8-5.42,0-14.12,0-14.12-3.54-3.55-.81-8.7-.81-8.7-4.15-5.88,1-13.15,1-13.15.58-6.34,10.09-10.08,10.09-10.08.75-3.17,4.67-4.67,4.67-4.67a6.91,6.91,0,0,1,6.38-3.94c.34,0,.53,0,.53,0,3.45-7.45,16.38-8.17,21.22-8.17,1.14,0,1.84,0,1.84,0a12.89,12.89,0,0,1,7.84-3m65,272.39L230-232.83,209.68-263c.54,8.66.88,17.56.78,25.94a339.5,339.5,0,0,1-3,40.92,2.85,2.85,0,0,1,1.16,1.79m-78,28.67c2.07-5.9,3.86-11.07,5.21-15-2.14-4.29,1.21-6.22,2.22-6.69.12-.38.21-.69.27-.92,2.08-7.61-17.46-44.93-17.46-44.93l-16.5-10.34L81.21-200.08l37,25.76,12.41,8.64M250.68,97.13h0M143.61-472.1h0a17.51,17.51,0,0,0-9.47,3h-.21c-7,0-18.66,1.17-24.32,8.39a12,12,0,0,0-7.61,5A13.55,13.55,0,0,0,97-451c-3.43,1.74-9.7,5.73-11.09,12.12-2.19,3.64-4.23,9.77-1.8,15.53a13.15,13.15,0,0,0,.26,8.08A15.89,15.89,0,0,0,82-405.6a12,12,0,0,0,3.45,7.1,9.74,9.74,0,0,0,.93,2.83A13.23,13.23,0,0,0,93-389.76a14.39,14.39,0,0,0,2.75,4.27c-2.6,4.77-1.32,11,3.82,18.54a71.22,71.22,0,0,0,7.38,9l.56.48c.81.61,5.06,3.63,10,3.63a11.91,11.91,0,0,0,2-.17,53.9,53.9,0,0,0,11.32,10.2L136-323.93a12.36,12.36,0,0,1,0,3.89c-2.33,2.41-9.29,10.24-11.86,13.14-3.25,1.3-11.37,4.83-16.33,9.45-12,6.91-13,7.88-13.59,8.53-1,1-1.67,1.66-21,46.62-9.34,21.76-18.61,43.62-18.7,43.84l1.71,6.37,46.05,34.73,12.86,9.7c-1.34,4.77-2.58,10.81-2,15.15L112.3-130a42.38,42.38,0,0,1-4,2.2L105.7-125c-.73,1.71-2.9,7.65-.26,12.08a6.92,6.92,0,0,0,.52.77C100.53-97,96.47-85.61,96.47-85.61l5.14,7.17,1.22,0q-.18,1-.36,2.07h0c-4.09,23.43-6,53.9-6.51,62.7C81.61-1.16,83.67,23.37,84.37,31.68c.07.82.15,1.76.15,2-.06,4.36-5.38,31.47-7.88,35.27A16.1,16.1,0,0,0,73,78.9a30.61,30.61,0,0,1-5.09,5.38C65.46,86,64,88.86,63.33,93.1c-.66,1.78-2.7,7.48-4.47,13.58-3.64,12.56-3.79,18.44-.56,21.67,4.08,4.08,16.08,6.21,25.82,6.21a55,55,0,0,0,20.95-3.74,11.44,11.44,0,0,0,7-7.63c1.71-6.15-1.14-14.18-9-25.19-1-8.72-5.13-20.23-6.61-24.18.9-5.56,4.68-27.2,11.83-43.22A233.43,233.43,0,0,0,120.89-5.5c5.07-6.21,8.7-18.54,9.6-21.79L153-83.84l1.46-3.67a142.9,142.9,0,0,0,18.43-7.24l.14.07.8,3,0,.09,0,0C192.08-23.44,194.77-14.81,195.46-13c0,.49-.2,1.48-.33,2.29-1.31,7.82-4.35,26,10.15,77.34-.55,3.54-1.5,7.78-2.16,9-2.29,4.12-3.55,7.8-3.77,11a16.68,16.68,0,0,0,.13,10.8c2,5.1,12.19,11.86,14.22,13.17,4.92,3.15,14.5,8.53,23.43,9.11.85.06,1.7.09,2.53.09,14.4,0,23.91-8.39,25.19-13.08a6,6,0,0,0,.15-2.49,6.6,6.6,0,0,0,.69-2.37,6.52,6.52,0,0,0-1.95-5.33l-3.57-1.56a21.53,21.53,0,0,1-4.22-.66,10.56,10.56,0,0,0-3.21-4.81,21.77,21.77,0,0,0-7.19-3.4c-6.27-5-13.74-10.91-15.75-12.49-2.24-2.89-4.74-6.21-5.82-7.77-.25-4.25-1.23-20.09-5-80.54.6-2.44,1.5-8.21-.13-17.25-.85-4.69-1.24-24.55-1.09-54.59L222.4-90c0-.84.4-18.56-1-37.73.23,0,.45,0,.67,0,4.67,0,7.11-2,8.35-3.61a8.71,8.71,0,0,0,1.29-7.54l-1.35-2.27-5.4-5.4c1.28-4.72.6-10.73-2-17.94a78.24,78.24,0,0,0-4-8.92l32.89-59,0-5.27-39.78-69.63-.3-.48a14.22,14.22,0,0,0-7.06-5.16c-.41-.46-.83-.91-1.28-1.36l-3.3-1.55-9.95-.93c-6-.88-16.92-3.1-24.29-8.22a48.74,48.74,0,0,1-1.56-7.36c3.1.31,6.27.46,9.49.46,6.5,0,26.22,0,28.57-13.54,4.31-24.81-.94-56.42-12.53-77.29,2.49-3.78,1.73-8.58-.53-12.59a7.38,7.38,0,0,0,0-1.33c-.29-3.28-2.72-6.27-5.17-8.49a12.75,12.75,0,0,0-.28-6.57c-1.43-4.52-5.24-8.1-11.35-10.64a23.16,23.16,0,0,0-16.19-6.78,23.79,23.79,0,0,0-3.25.23,16,16,0,0,0-9.52-3.22ZM215-216.86c.43-6,.77-12.84.85-20.14,0-2.32,0-4.75,0-7.28l7.88,11.72L215-216.86Zm-126.8,15.1L106.37-236l10.38,6.5c1.43,2.78,5,9.76,8.37,17.3,6.37,14,7.68,19.69,7.92,21.69a9.84,9.84,0,0,0-2.77,4.05,9.66,9.66,0,0,0-.15,5.8c-.66,1.89-1.41,4.07-2.25,6.5l-6.61-4.6-33.08-23Z"/><path class="cls-4" d="M204.68,87.55a11.64,11.64,0,0,0-.19,7.89c1.5,3.92,19.8,18,33,18.85,13.94.91,21.67-7.15,22.19-9.05s-9-8.11-9-8.11Z"/><path class="cls-4" d="M68.56,94.41s-10,26.64-6.46,30.15,25.6,7.71,40.9,1.32S86.3,86.11,86.3,86.11Z"/><path class="cls-5" d="M158.71-112.53,125.39-29S121.1-13.17,116-8.07a225.48,225.48,0,0,1-12.62,36.48c-8.65,19.37-12.45,46-12.45,46s7.86,20,6.91,29c0,0,7.52,10.37,4.5,16.34s-14.87,2.42-14.87,2.42-19.8,2.59-22.74-2.34,3.72-18.15,3.72-18.15-1-10.55,2.5-13,7.61-8.3,7.61-8.3-1.29-3.46,2.34-8.13,9-34.61,9-38.53S85.05.52,101.18-11c0,0,3.92-79.54,15-90.61s42.54-17.63,42.54-17.63Z"/><path class="cls-5" d="M170.58-124.9s27.9,105.36,30,110.2-8.82,14.24,10.2,81c0,0-1.21,8.82-2.94,11.93s-5.7,11.07-.69,13.83,21.27,16.6,28.19,17.81S255.19,105,255.19,105s6.92-2.59,4.75-4.75c0,0-6.31-.26-8.38-2.34S226,77.35,226,77.35s-7.26-9.34-7.26-10-5.19-82.7-5.19-82.7,1.9-5.19,0-15.74-1-77-1-77Z"/><path class="cls-4" d="M63.39,114.72s19.8-8.47,39.6-2a8.7,8.7,0,0,0-1.47-4.85c-1.64-2.59-26.45-6.57-37,2.12C64.52,110,62.27,113.25,63.39,114.72Z"/><path class="cls-4" d="M230.83,108.13s.77-17.44,19.85-11l.51.43a6.19,6.19,0,0,0-1.89-4c-1.76-1.47-6.25-2.64-6.25-2.64s-17.49-4.3-17.23,14.27C225.82,105.17,228.55,109,230.83,108.13Z"/></g><path class="cls-3" d="M178.5,159.48c93.46.11,169.21,76.65,169.31,171.09S272,501.67,178.5,501.67,9.18,425.07,9.18,330.57,85,159.48,178.5,159.48m0-8h0a174.74,174.74,0,0,0-69.06,14.09A176.81,176.81,0,0,0,53.08,204a180.11,180.11,0,0,0,0,253.21,176.81,176.81,0,0,0,56.36,38.4,176.26,176.26,0,0,0,138.11,0,176.81,176.81,0,0,0,56.36-38.4,179.73,179.73,0,0,0-56.39-291.56,175.08,175.08,0,0,0-69-14.14Z"/><path class="cls-6" d="M178.49,159.48C85,159.48,9.18,236.08,9.18,330.57S85,501.67,178.49,501.67s169.32-76.6,169.32-171.1S272,159.59,178.49,159.48Zm0,330.78c-87.27,0-158-71.49-158-159.69s70.75-159.68,158-159.68,158,71.49,158,159.68S265.73,490.16,178.49,490.26Z"/><path class="cls-6" d="M258.4,206.29a5.54,5.54,0,0,0-4.25-.8,5.64,5.64,0,0,0-3.56,2.46l-9.24,14.35a5.74,5.74,0,0,0,1.8,8,76.27,76.27,0,0,1,6.33,4.56c1.27,1,2.54,2,3.53,2.66,1.75,1.46,3.44,3,5.11,4.55l-3.9,3.94a112.44,112.44,0,0,0-24.74-17.12L241,202.71a5.75,5.75,0,0,0,.11-4.37,5.67,5.67,0,0,0-3-3.17,146.34,146.34,0,0,0-52-12.51,5.55,5.55,0,0,0-4.08,1.45,5.69,5.69,0,0,0-1.85,3.95l-.87,17.08a5.68,5.68,0,0,0,5.33,6l5.94.3,6.33,1c.81.14,1.63.26,2.44.38,1.22.17,2.44.35,3.51.6l.78.2-1.48,5.58a114.12,114.12,0,0,0-29.89-2.44l-2.93-28.54a5.68,5.68,0,0,0-2.06-3.84,5.57,5.57,0,0,0-4.15-1.24,144.11,144.11,0,0,0-51.28,15.44,5.73,5.73,0,0,0-2.45,7.67l7.7,15.23a5.63,5.63,0,0,0,7.4,2.59c1.13-.53,2.25-1.09,3.38-1.65a57.68,57.68,0,0,1,8.07-3.5l1.44-.54c1.7-.64,3.34-1.26,5-1.81l1.46,5.52c-1.39.48-2.74,1-4.08,1.48l-1.34.52a52.9,52.9,0,0,0-8,3.43c-1,.48-1.93,1-3.4,1.67l-9.56,5.56-.65.37L100.19,212a5.67,5.67,0,0,0-3.69-2.28,5.58,5.58,0,0,0-4.2,1,147.86,147.86,0,0,0-36.8,39.11,5.73,5.73,0,0,0,1.65,7.9l14.19,9.33a5.62,5.62,0,0,0,7.9-1.81,73.1,73.1,0,0,1,4.49-6.38c1-1.3,2-2.59,2.65-3.6,1.45-1.76,3-3.46,4.51-5.16l3.9,3.95a113.64,113.64,0,0,0-17,25L52,267.39a5.63,5.63,0,0,0-7.46,2.89,150.58,150.58,0,0,0-12.38,52.56,5.69,5.69,0,0,0,5.35,6l16.91.88a5.61,5.61,0,0,0,4.07-1.45,5.69,5.69,0,0,0,1.85-3.94l.3-6,1-6.39c.15-.83.26-1.65.38-2.48.17-1.23.34-2.47.59-3.54l.19-.78,5.54,1.49a116.91,116.91,0,0,0-2.43,30.2l-28.24,3a5.58,5.58,0,0,0-3.79,2.08,5.68,5.68,0,0,0-1.23,4.18,149.58,149.58,0,0,0,15.28,51.82,5.58,5.58,0,0,0,7.59,2.48l15.07-7.77a5.74,5.74,0,0,0,2.56-7.48c-.52-1.13-1.07-2.25-1.61-3.37a60.45,60.45,0,0,1-3.49-8.2l-.55-1.5c-.63-1.7-1.23-3.35-1.77-5l5.53-1.49a113.44,113.44,0,0,0,12.88,27.29L61.13,409.7a5.73,5.73,0,0,0-1.24,8,147.36,147.36,0,0,0,38.7,37.19,5.61,5.61,0,0,0,7.81-1.67l9.23-14.34a5.73,5.73,0,0,0-1.79-8,74.63,74.63,0,0,1-6.33-4.56c-1.27-1-2.54-2-3.53-2.66-1.76-1.46-3.44-3-5.11-4.55l4-4c1.51,1.39,3.06,2.8,4.94,4.36,1.1.78,2.17,1.61,3.24,2.44a67.54,67.54,0,0,0,6.29,4.47l10.08,5.85.12.06L116,458.44a5.75,5.75,0,0,0-.11,4.37,5.62,5.62,0,0,0,3,3.16,146.3,146.3,0,0,0,52,12.52h.29a5.67,5.67,0,0,0,5.63-5.41l.88-17.08a5.68,5.68,0,0,0-5.33-6l-5.94-.31-6.33-1c-.81-.14-1.63-.26-2.44-.38-1.22-.18-2.44-.35-3.51-.6l-.78-.2,1.48-5.59a114.13,114.13,0,0,0,29.89,2.45L187.61,473a5.74,5.74,0,0,0,2.06,3.84,5.62,5.62,0,0,0,4.15,1.24A144.31,144.31,0,0,0,245.1,462.6a5.74,5.74,0,0,0,2.46-7.67l-7.71-15.24a5.62,5.62,0,0,0-7.39-2.58c-1.14.53-2.26,1.09-3.39,1.65a58.08,58.08,0,0,1-8.06,3.5l-1.44.54c-1.7.64-3.35,1.26-5,1.81L213.1,439a111.13,111.13,0,0,0,27-13l16.68,23.17a5.62,5.62,0,0,0,7.89,1.26,148.06,148.06,0,0,0,36.81-39.11,5.8,5.8,0,0,0,.79-4.3,5.68,5.68,0,0,0-2.45-3.6l-14.19-9.33a5.62,5.62,0,0,0-7.9,1.81,73.1,73.1,0,0,1-4.49,6.38c-1,1.3-2,2.59-2.65,3.6-1.45,1.76-3,3.46-4.51,5.16l-3.9-4a113.64,113.64,0,0,0,16.95-25L305,393.76a5.63,5.63,0,0,0,7.45-2.89,150.32,150.32,0,0,0,12.39-52.57,5.69,5.69,0,0,0-5.35-6l-16.91-.88a5.7,5.7,0,0,0-5.92,5.39l-.3,6-1,6.39c-.15.83-.26,1.65-.38,2.48-.18,1.23-.35,2.47-.59,3.54l-.2.78-5.44-1.47,0-.13c.3-1.33.5-2.69.68-4,.09-.64.17-1.27.3-2l.86-5.61a5.7,5.7,0,0,0,.06-.58l.3-6V324.6l0-.26,28.35-3a5.6,5.6,0,0,0,3.8-2.08,5.77,5.77,0,0,0,1.23-4.18,150.13,150.13,0,0,0-15.28-51.83,5.61,5.61,0,0,0-7.59-2.47l-15.08,7.77a5.73,5.73,0,0,0-2.55,7.48c.52,1.13,1.06,2.25,1.6,3.37a58,58,0,0,1,3.49,8.2l.55,1.5c.63,1.7,1.24,3.35,1.78,5l-5.53,1.49a113.47,113.47,0,0,0-12.89-27.29l22.93-16.86a5.73,5.73,0,0,0,1.24-8A147.36,147.36,0,0,0,258.4,206.29Zm3.44,56.07a5.73,5.73,0,0,0-1.25,8A102.16,102.16,0,0,1,276.51,304a5.66,5.66,0,0,0,6.9,4l16.36-4.42a5.72,5.72,0,0,0,4.07-6.7,83.48,83.48,0,0,0-3.69-11.79l-.45-1.22a59.81,59.81,0,0,0-3.16-7.74l5-2.59a138.89,138.89,0,0,1,10.94,37l-27.95,2.93a5.68,5.68,0,0,0-5.05,6l.28,5.53V336l-.28,5.37-.8,5.24c-.13.74-.23,1.49-.34,2.24-.14,1-.27,2-.46,2.87l-1.41,5.49a5.71,5.71,0,0,0,4,6.94l16.36,4.42a5.64,5.64,0,0,0,6.92-4.09l1.66-6.5c.35-1.52.57-3.07.79-4.62.11-.73.2-1.46.34-2.28l1-7,.05-.88,5.54.29A139.33,139.33,0,0,1,304.36,381L278.7,369.4a5.54,5.54,0,0,0-4.32-.11,5.69,5.69,0,0,0-3.14,3,102.26,102.26,0,0,1-20.92,30.87,5.76,5.76,0,0,0,0,8.06l12,12.1a5.5,5.5,0,0,0,4.15,1.66,5.57,5.57,0,0,0,4.05-1.91q1.51-1.71,3.06-3.4c2-2.14,3.91-4.3,6-6.86.86-1.22,1.77-2.42,2.67-3.61.63-.83,1.27-1.67,1.89-2.52l4.74,3.11a136.05,136.05,0,0,1-26.3,28l-16.55-23a5.59,5.59,0,0,0-7.88-1.25,100.21,100.21,0,0,1-33.35,16.07,5.68,5.68,0,0,0-3.43,2.66,5.74,5.74,0,0,0-.56,4.33l4.37,16.53a5.65,5.65,0,0,0,6.64,4.1,81.65,81.65,0,0,0,11.7-3.74l1.17-.44a57.49,57.49,0,0,0,7.65-3.2l2.57,5.09a135.64,135.64,0,0,1-36.64,11l-2.9-28.24a5.67,5.67,0,0,0-2-3.84,5.56,5.56,0,0,0-4.13-1.24,102.62,102.62,0,0,1-37-3,5.58,5.58,0,0,0-4.28.57,5.67,5.67,0,0,0-2.63,3.46l-4.38,16.53a5.75,5.75,0,0,0,.58,4.35,5.64,5.64,0,0,0,3.47,2.65l6.43,1.66c1.51.36,3,.59,4.58.81.72.11,1.43.21,2.24.35l7,1.05.87,0-.29,5.6a135.3,135.3,0,0,1-37.16-8.93l11.44-25.92a5.72,5.72,0,0,0-2.7-7.46l-4.69-2.27-9.63-5.59a58,58,0,0,1-5.13-3.7c-1.2-.93-2.4-1.86-3.28-2.45-1.63-1.36-3.18-2.81-4.74-4.25-1.16-1.08-2.33-2.16-3.52-3.22a5.6,5.6,0,0,0-7.7.27l-12,12.09a5.74,5.74,0,0,0,.23,8.3c1.12,1,2.22,2,3.32,3,2.14,2,4.29,4,6.84,6.09,1.21.87,2.38,1.78,3.56,2.69q1.23,1,2.52,1.92l-3.09,4.79a135.59,135.59,0,0,1-27.66-26.58L95.15,398.8a5.74,5.74,0,0,0,1.25-8,102.31,102.31,0,0,1-15.92-33.69,5.64,5.64,0,0,0-6.9-4l-16.36,4.42a5.71,5.71,0,0,0-4.07,6.7A84.8,84.8,0,0,0,56.84,376l.45,1.21A60,60,0,0,0,60.45,385l-5,2.59a139.07,139.07,0,0,1-10.94-37l27.95-2.93a5.69,5.69,0,0,0,5-6.23,105.67,105.67,0,0,1,3-37.35,5.74,5.74,0,0,0-.56-4.33A5.62,5.62,0,0,0,76.48,297l-16.35-4.42a5.61,5.61,0,0,0-4.31.59,5.67,5.67,0,0,0-2.62,3.5l-1.65,6.5c-.35,1.52-.57,3.07-.79,4.62-.11.73-.21,1.45-.34,2.28l-1,7-.05.87-5.54-.28a139.33,139.33,0,0,1,8.84-37.55l25.66,11.56a5.54,5.54,0,0,0,4.32.11,5.64,5.64,0,0,0,3.13-3A102.29,102.29,0,0,1,106.67,258a5.77,5.77,0,0,0,0-8.06l-12-12.1a5.6,5.6,0,0,0-8.2.25c-1,1.14-2,2.27-3.06,3.4-2,2.14-3.91,4.3-6,6.86-.87,1.22-1.77,2.42-2.67,3.61-.63.83-1.27,1.66-1.89,2.52l-4.75-3.11a136.37,136.37,0,0,1,26.31-28l16.55,23a5.6,5.6,0,0,0,7.89,1.25l1.31-1a19.54,19.54,0,0,1,2.77-1.92l9.23-5.4c1.09-.5,2.16-1,3.24-1.57a45,45,0,0,1,6.61-2.86l1.68-.63a57.49,57.49,0,0,1,8.17-2.61,5.68,5.68,0,0,0,3.67-2.59,5.8,5.8,0,0,0,.65-4.47L151.83,208a5.65,5.65,0,0,0-6.63-4.11,83.06,83.06,0,0,0-11.71,3.74l-1.16.44a56.94,56.94,0,0,0-7.65,3.2l-2.57-5.08a135.55,135.55,0,0,1,36.64-11.05l2.89,28.24a5.67,5.67,0,0,0,2,3.84,5.59,5.59,0,0,0,4.13,1.25,102.65,102.65,0,0,1,37,3,5.63,5.63,0,0,0,4.28-.57,5.76,5.76,0,0,0,2.63-3.47L216.05,211a5.79,5.79,0,0,0-.57-4.35A5.68,5.68,0,0,0,212,204l-6.42-1.66c-1.52-.36-3.05-.59-4.59-.81-.72-.11-1.43-.21-2.25-.35l-7-1.05-.87,0,.29-5.6a135.3,135.3,0,0,1,37.16,8.93l-11.44,25.93a5.75,5.75,0,0,0-.11,4.37,5.64,5.64,0,0,0,3,3.16A101.36,101.36,0,0,1,250.34,258a5.61,5.61,0,0,0,8,0l12-12.1a5.73,5.73,0,0,0-.23-8.29c-1.12-1-2.22-2-3.32-3-2.15-2-4.29-4-6.84-6.09-1.21-.87-2.38-1.78-3.56-2.68-.82-.64-1.66-1.29-2.52-1.93l3.09-4.79a136.12,136.12,0,0,1,27.66,26.58Z"/><path class="cls-6" d="M178.49,239.32a90,90,0,0,0-78.36,45.77,91.91,91.91,0,0,0,.49,91.46,5.58,5.58,0,0,0,.35.58,91.51,91.51,0,0,0,23,26c.15.1.23.25.39.34l.12,0a88.86,88.86,0,0,0,108,0,1.56,1.56,0,0,1,.15-.06c.16-.09.24-.24.38-.34a91.39,91.39,0,0,0,23-26,5.58,5.58,0,0,0,.35-.58,91.89,91.89,0,0,0,.48-91.46A90,90,0,0,0,178.49,239.32Zm-10.17,12.15L105.67,361.56A80.52,80.52,0,0,1,110,290.82,78.92,78.92,0,0,1,168.32,251.47ZM134.63,396.94l43.86-77.06,43.87,77.06a78.12,78.12,0,0,1-87.73,0Zm96.69-7.15L185.84,309.9a8.43,8.43,0,0,0-14.69,0l-45.48,79.88a79.94,79.94,0,0,1-13.73-16.34l66.56-117,12.91,22.63a4.66,4.66,0,0,0,.25.5l53.39,93.86a80.26,80.26,0,0,1-13.73,16.34Zm20-28.23-49.6-87.21c-.08-.17-.17-.35-.27-.52l-12.75-22.35A78.88,78.88,0,0,1,247,290.83a80.49,80.49,0,0,1,4.31,70.73Z"/><path class="cls-7" d="M597.35,34.84c-131.17,0-239,88.6-251.43,202l-74.67,29.74s-4.88,1.8-4.39,8.8a9.53,9.53,0,0,0,5.58,8.17L350.6,307c24.89,100.48,125.91,175.68,246.75,175.68C736.89,482.64,850,382.4,850,258.74S736.89,34.84,597.35,34.84Z"/><path class="cls-8" d="M597.31,1.67c-131.17,0-239,88.6-251.43,202l-74.67,29.74s-4.88,1.8-4.39,8.8a9.53,9.53,0,0,0,5.58,8.17l78.16,23.46c24.89,100.47,125.91,175.67,246.75,175.67C736.85,449.47,850,349.23,850,225.57S736.85,1.67,597.31,1.67Z"/><path class="cls-9" d="M420.64,128.66v1l-1.89.16v11a5,5,0,0,1-1.38,3.71,4.78,4.78,0,0,1-3.55,1.38,5.4,5.4,0,0,1-3.76-1.24,4.49,4.49,0,0,1-1.32-3.64l0-.07h1.3a3.39,3.39,0,0,0,3.76,3.77,3.36,3.36,0,0,0,2.54-1.06,4,4,0,0,0,1-2.85v-11l-1.89-.16v-1h5.17Z"/><path class="cls-9" d="M431.33,145.72c-.09-.43-.16-.8-.2-1.11a7.46,7.46,0,0,1-.05-1,5.62,5.62,0,0,1-1.86,1.65,5.17,5.17,0,0,1-2.61.66,4,4,0,0,1-2.85-1,3.4,3.4,0,0,1-1-2.6,3.24,3.24,0,0,1,1.49-2.79,7.06,7.06,0,0,1,4.06-1h2.78v-1.68a2.69,2.69,0,0,0-.87-2.13,3.47,3.47,0,0,0-2.42-.78,6,6,0,0,0-1.9.29,4.27,4.27,0,0,0-1.45.78l-.11,1.7h-1.15v-2.44a7.2,7.2,0,0,1,2.08-1.1,7.84,7.84,0,0,1,2.58-.42,5,5,0,0,1,3.34,1.07,3.78,3.78,0,0,1,1.27,3.05v6.24c0,.26,0,.5,0,.74a5.35,5.35,0,0,0,.08.7l1.25.08v1Zm-4.57-1a5,5,0,0,0,2.66-.71,4.18,4.18,0,0,0,1.66-1.81v-2.55h-2.8a5.15,5.15,0,0,0-3,.8,2.35,2.35,0,0,0-1.13,2,2.1,2.1,0,0,0,.7,1.65A2.79,2.79,0,0,0,426.76,144.73Zm2.36-16.53h1.7l0,.07-2.88,3h-1.24Z"/><path class="cls-9" d="M447.08,146a5,5,0,0,1-3.92-1.75,6.47,6.47,0,0,1-1.56-4.46v-.65a6.68,6.68,0,0,1,1.55-4.51,4.8,4.8,0,0,1,3.74-1.79,4.6,4.6,0,0,1,3.63,1.48,5.67,5.67,0,0,1,1.33,3.93v1.2H443v.34a5.62,5.62,0,0,0,1.14,3.58,3.59,3.59,0,0,0,3,1.45,6,6,0,0,0,2.2-.37,4.36,4.36,0,0,0,1.57-1l.59,1a5,5,0,0,1-1.79,1.19A6.84,6.84,0,0,1,447.08,146Zm-.19-12a3.32,3.32,0,0,0-2.58,1.19,5.17,5.17,0,0,0-1.22,3l0,.06h7.36v-.36a4.08,4.08,0,0,0-1-2.76A3.28,3.28,0,0,0,446.89,134Z"/><path class="cls-9" d="M463.43,137h-1.14l-.16-1.8a3.54,3.54,0,0,0-1.31-.85A5.16,5.16,0,0,0,459,134a3.41,3.41,0,0,0-2.28.67,2,2,0,0,0-.76,1.55,1.83,1.83,0,0,0,.66,1.45,6.16,6.16,0,0,0,2.61,1,8.58,8.58,0,0,1,3.35,1.38,2.86,2.86,0,0,1,1.12,2.37,3.09,3.09,0,0,1-1.27,2.56,5.39,5.39,0,0,1-3.36,1,7.87,7.87,0,0,1-2.54-.39,5.83,5.83,0,0,1-2-1.11v-2.56h1.12l.2,1.81a3.18,3.18,0,0,0,1.41.81,6.18,6.18,0,0,0,1.78.26,3.87,3.87,0,0,0,2.38-.67,2,2,0,0,0,.87-1.62,2.09,2.09,0,0,0-.73-1.56,5.86,5.86,0,0,0-2.61-1.09,8.89,8.89,0,0,1-3.33-1.3,2.71,2.71,0,0,1-1.08-2.28,3.09,3.09,0,0,1,1.22-2.46,4.87,4.87,0,0,1,3.21-1,7,7,0,0,1,2.52.43,5.07,5.07,0,0,1,1.86,1.15Z"/><path class="cls-9" d="M469.4,129.8V133h2.76v1.15H469.4v8.26a2.73,2.73,0,0,0,.45,1.77,1.48,1.48,0,0,0,1.19.52c.22,0,.44,0,.65,0s.46-.05.74-.1l.21,1a4,4,0,0,1-.85.24,6.61,6.61,0,0,1-1,.08,2.58,2.58,0,0,1-2.06-.84,4,4,0,0,1-.74-2.68v-8.26h-2.16V133H468V129.8Z"/><path class="cls-9" d="M474.48,139.2a6.9,6.9,0,0,1,1.52-4.6,5.43,5.43,0,0,1,8.06,0,6.9,6.9,0,0,1,1.52,4.6v.38a6.85,6.85,0,0,1-1.51,4.6,5.44,5.44,0,0,1-8.07,0,6.86,6.86,0,0,1-1.52-4.6Zm1.39.38a6.07,6.07,0,0,0,1.11,3.71,3.86,3.86,0,0,0,6.11,0,6.13,6.13,0,0,0,1.1-3.71v-.38a6,6,0,0,0-1.11-3.68,3.82,3.82,0,0,0-6.1,0,6,6,0,0,0-1.11,3.68Z"/><path class="cls-9" d="M497.06,143.64a4.27,4.27,0,0,1-1.62,1.72A4.59,4.59,0,0,1,493,146a3.8,3.8,0,0,1-3.11-1.36,6.61,6.61,0,0,1-1.11-4.22v-6.15l-1.56-.15V133h2.93v7.37a5.5,5.5,0,0,0,.79,3.33,2.65,2.65,0,0,0,2.22,1,4.06,4.06,0,0,0,2.51-.7,3.79,3.79,0,0,0,1.32-2v-7.86l-1.79-.15V133h3.18v11.5l1.68.15v1h-2.9Z"/><path class="cls-9" d="M513.26,144.79a4,4,0,0,0,2.44-.8,2.63,2.63,0,0,0,1.06-2.22H518l0,.07a3.51,3.51,0,0,1-1.39,2.95,5.18,5.18,0,0,1-3.36,1.18,4.74,4.74,0,0,1-3.95-1.78,7.09,7.09,0,0,1-1.4-4.56v-.49a7.1,7.1,0,0,1,1.4-4.55,4.73,4.73,0,0,1,3.94-1.78,6.3,6.3,0,0,1,2.66.55,5.29,5.29,0,0,1,2,1.5l.06,2.77h-1.19l-.22-2.25a3.92,3.92,0,0,0-1.38-1,4.72,4.72,0,0,0-1.89-.37,3.33,3.33,0,0,0-3,1.46,6.5,6.5,0,0,0-1,3.68v.49a6.58,6.58,0,0,0,1,3.7A3.34,3.34,0,0,0,513.26,144.79Z"/><path class="cls-9" d="M520.59,139.2a6.9,6.9,0,0,1,1.52-4.6,5.43,5.43,0,0,1,8.06,0,6.84,6.84,0,0,1,1.52,4.6v.38a6.85,6.85,0,0,1-1.51,4.6,5,5,0,0,1-4,1.79,5.07,5.07,0,0,1-4-1.79,6.86,6.86,0,0,1-1.52-4.6Zm1.4.38a6.07,6.07,0,0,0,1.1,3.71,3.86,3.86,0,0,0,6.11,0,6.13,6.13,0,0,0,1.1-3.71v-.38a6,6,0,0,0-1.11-3.68,3.82,3.82,0,0,0-6.1,0,6,6,0,0,0-1.1,3.68Z"/><path class="cls-9" d="M537,133l.17,2.11v.16a4.44,4.44,0,0,1,1.46-1.84,3.63,3.63,0,0,1,2.18-.66,3,3,0,0,1,.52,0l.41.09-.18,1.31-1-.07a3.15,3.15,0,0,0-2.15.74,4.14,4.14,0,0,0-1.2,2.05v7.57l1.89.15v1h-5.16v-1l1.89-.15v-10.3l-1.89-.15V133H537Z"/><path class="cls-9" d="M546.5,133l.18,2.11v.16a4.42,4.42,0,0,1,1.45-1.84,3.69,3.69,0,0,1,2.19-.66,2.78,2.78,0,0,1,.51,0l.42.09-.19,1.31-1-.07a3.14,3.14,0,0,0-2.15.74,4.14,4.14,0,0,0-1.2,2.05v7.57l1.89.15v1h-5.16v-1l1.89-.15v-10.3l-1.89-.15V133h3.09Z"/><path class="cls-9" d="M558.35,146a5,5,0,0,1-3.92-1.75,6.51,6.51,0,0,1-1.55-4.46v-.65a6.68,6.68,0,0,1,1.55-4.51,4.79,4.79,0,0,1,3.74-1.79,4.6,4.6,0,0,1,3.63,1.48,5.66,5.66,0,0,1,1.32,3.93v1.2h-8.86v.34a5.67,5.67,0,0,0,1.13,3.58,3.59,3.59,0,0,0,3,1.45,6,6,0,0,0,2.21-.37,4.32,4.32,0,0,0,1.56-1l.59,1a4.93,4.93,0,0,1-1.78,1.19A6.89,6.89,0,0,1,558.35,146Zm-.18-12a3.32,3.32,0,0,0-2.58,1.19,5.18,5.18,0,0,0-1.23,3l0,.06h7.35v-.36a4.07,4.07,0,0,0-1-2.76A3.28,3.28,0,0,0,558.17,134Z"/><path class="cls-9" d="M565.35,144.69l1.89-.15v-10.3l-1.89-.15V133h3.12l.12,2.22a4.56,4.56,0,0,1,1.63-1.81,4.5,4.5,0,0,1,2.43-.64,3.85,3.85,0,0,1,3.11,1.26,6,6,0,0,1,1.07,3.93v6.54l1.89.15v1h-5.17v-1l1.89-.15V138a4.6,4.6,0,0,0-.81-3.08,2.92,2.92,0,0,0-2.29-.9,3.55,3.55,0,0,0-2.38.78,4.31,4.31,0,0,0-1.33,2.07v7.66l1.89.15v1h-5.17Z"/><path class="cls-9" d="M589.5,143.9a4.29,4.29,0,0,1-1.61,1.53,4.76,4.76,0,0,1-2.32.54,4.16,4.16,0,0,1-3.52-1.7,7.42,7.42,0,0,1-1.27-4.53v-.25a8.42,8.42,0,0,1,1.27-4.86,4.1,4.1,0,0,1,3.55-1.82,4.37,4.37,0,0,1,2.27.56,4.65,4.65,0,0,1,1.6,1.58v-6.31l-1.89-.15v-1.05h3.28v17.1l1.89.15v1h-3.13Zm-7.31-4.16a6.43,6.43,0,0,0,.91,3.65,3.06,3.06,0,0,0,2.74,1.36,3.85,3.85,0,0,0,2.23-.61,4,4,0,0,0,1.4-1.67v-6a4.38,4.38,0,0,0-1.34-1.76,3.55,3.55,0,0,0-2.27-.68,3,3,0,0,0-2.75,1.52,7.44,7.44,0,0,0-.92,3.94Z"/><path class="cls-9" d="M594.89,139.2a6.89,6.89,0,0,1,1.51-4.6,5.43,5.43,0,0,1,8.06,0,6.84,6.84,0,0,1,1.52,4.6v.38a6.85,6.85,0,0,1-1.51,4.6,5,5,0,0,1-4,1.79,5.07,5.07,0,0,1-4.05-1.79,6.85,6.85,0,0,1-1.51-4.6Zm1.39.38a6.07,6.07,0,0,0,1.1,3.71,3.86,3.86,0,0,0,6.11,0,6.07,6.07,0,0,0,1.1-3.71v-.38a6,6,0,0,0-1.11-3.68,3.82,3.82,0,0,0-6.1,0,6,6,0,0,0-1.1,3.68Z"/><path class="cls-9" d="M613.82,134.19V133h2.08v-1.85a4.23,4.23,0,0,1,1-2.95,3.39,3.39,0,0,1,2.66-1,6.76,6.76,0,0,1,.76,0c.26,0,.53.1.8.17l-.17,1.16a3.82,3.82,0,0,0-.57-.11,4.58,4.58,0,0,0-.69,0,2.16,2.16,0,0,0-1.74.72,3.09,3.09,0,0,0-.61,2V133h3v1.15h-3v10.35l1.89.15v1H614v-1l1.89-.15V134.19Z"/><path class="cls-9" d="M631.09,145.72c-.09-.43-.16-.8-.2-1.11a7.46,7.46,0,0,1,0-1,5.62,5.62,0,0,1-1.86,1.65,5.17,5.17,0,0,1-2.61.66,4,4,0,0,1-2.85-1,3.43,3.43,0,0,1-1-2.6,3.23,3.23,0,0,1,1.5-2.79,7,7,0,0,1,4-1h2.78v-1.68a2.69,2.69,0,0,0-.87-2.13,3.47,3.47,0,0,0-2.42-.78,6,6,0,0,0-1.9.29,4.27,4.27,0,0,0-1.45.78l-.11,1.7h-1.15v-2.44a7.2,7.2,0,0,1,2.08-1.1,7.84,7.84,0,0,1,2.58-.42,5,5,0,0,1,3.34,1.07,3.78,3.78,0,0,1,1.27,3.05v6.24c0,.26,0,.5,0,.74a5.35,5.35,0,0,0,.08.7l1.25.08v1Zm-4.57-1a5,5,0,0,0,2.66-.71,4.12,4.12,0,0,0,1.66-1.81v-2.55H628a5.15,5.15,0,0,0-3,.8,2.35,2.35,0,0,0-1.13,2,2.1,2.1,0,0,0,.7,1.65A2.79,2.79,0,0,0,626.52,144.73Z"/><path class="cls-9" d="M637.46,144.54h6.82l.1-2.4h1.24v3.58h-9.87v-1l7.56-10.44h-6.19l-.09,2.39h-1.24V133h9.28v1.05Z"/><path class="cls-9" d="M653.53,134.09V133h3.12l.13,2.1a4.39,4.39,0,0,1,1.61-1.72,4.51,4.51,0,0,1,2.4-.61,3.62,3.62,0,0,1,3.78,2.87,4.92,4.92,0,0,1,1.62-2.1,4.23,4.23,0,0,1,2.56-.77,3.77,3.77,0,0,1,3.1,1.35,6.56,6.56,0,0,1,1.09,4.17v6.2l1.89.16v1h-5.18v-1l1.89-.16v-6.22a5.17,5.17,0,0,0-.82-3.32,2.82,2.82,0,0,0-2.28-1,3.07,3.07,0,0,0-2.49,1,5,5,0,0,0-1.09,2.66,1.09,1.09,0,0,0,0,.18v6.63l1.89.15v1h-5.17v-1l1.89-.15v-6.23a5.14,5.14,0,0,0-.83-3.29,2.81,2.81,0,0,0-2.28-1,3.47,3.47,0,0,0-2.35.75,4.11,4.11,0,0,0-1.21,2v7.72l1.89.15v1h-5.17v-1l1.89-.15v-10.3Z"/><path class="cls-9" d="M685.21,145.72c-.09-.43-.15-.8-.19-1.11a7.46,7.46,0,0,1-.06-1,5.43,5.43,0,0,1-1.86,1.65,5.17,5.17,0,0,1-2.61.66,4,4,0,0,1-2.85-1,3.43,3.43,0,0,1-1-2.6,3.23,3.23,0,0,1,1.5-2.79,7,7,0,0,1,4.06-1H685v-1.68a2.71,2.71,0,0,0-.86-2.13,3.5,3.5,0,0,0-2.42-.78,6.07,6.07,0,0,0-1.91.29,4.13,4.13,0,0,0-1.44.78l-.12,1.7h-1.15v-2.44a7.33,7.33,0,0,1,2.08-1.1,7.84,7.84,0,0,1,2.58-.42,5,5,0,0,1,3.34,1.07,3.75,3.75,0,0,1,1.27,3.05v6.24c0,.26,0,.5,0,.74a5.35,5.35,0,0,0,.07.7l1.25.08v1Zm-4.57-1a5,5,0,0,0,2.66-.71,4.06,4.06,0,0,0,1.66-1.81v-2.55h-2.8a5.17,5.17,0,0,0-3,.8,2.35,2.35,0,0,0-1.13,2,2.14,2.14,0,0,0,.7,1.65A2.8,2.8,0,0,0,680.64,144.73Z"/><path class="cls-9" d="M689.56,144.69l1.89-.15v-10.3l-1.89-.15V133h3.27v11.5l1.89.15v1h-5.16Zm3.27-15.28h-1.38v-2h1.38Z"/><path class="cls-9" d="M706.16,137H705l-.16-1.8a3.58,3.58,0,0,0-1.32-.85,5.14,5.14,0,0,0-1.82-.31,3.37,3.37,0,0,0-2.28.67,2,2,0,0,0-.76,1.55,1.85,1.85,0,0,0,.65,1.45,6.27,6.27,0,0,0,2.62,1,8.58,8.58,0,0,1,3.35,1.38,2.85,2.85,0,0,1,1.11,2.37,3.06,3.06,0,0,1-1.27,2.56,5.34,5.34,0,0,1-3.35,1,7.83,7.83,0,0,1-2.54-.39,5.83,5.83,0,0,1-2-1.11v-2.56h1.12l.2,1.81a3.18,3.18,0,0,0,1.41.81,6.13,6.13,0,0,0,1.78.26,3.83,3.83,0,0,0,2.37-.67,2,2,0,0,0,.87-1.62,2.08,2.08,0,0,0-.72-1.56,5.91,5.91,0,0,0-2.62-1.09,8.83,8.83,0,0,1-3.32-1.3,2.71,2.71,0,0,1-1.08-2.28,3.08,3.08,0,0,1,1.21-2.46,4.92,4.92,0,0,1,3.22-1,7,7,0,0,1,2.52.43,5.07,5.07,0,0,1,1.86,1.15Z"/><path class="cls-9" d="M723.44,143.9a4.44,4.44,0,0,1-1.61,1.53,4.76,4.76,0,0,1-2.32.54,4.15,4.15,0,0,1-3.52-1.7,7.36,7.36,0,0,1-1.27-4.53v-.25a8.35,8.35,0,0,1,1.27-4.86,4.07,4.07,0,0,1,3.54-1.82,4.37,4.37,0,0,1,2.27.56,4.56,4.56,0,0,1,1.6,1.58v-6.31l-1.89-.15v-1.05h3.29v17.1l1.88.15v1h-3.13Zm-7.32-4.16a6.43,6.43,0,0,0,.91,3.65,3.07,3.07,0,0,0,2.74,1.36,3.89,3.89,0,0,0,2.24-.61,4,4,0,0,0,1.39-1.67v-6a4.29,4.29,0,0,0-1.34-1.76,3.54,3.54,0,0,0-2.26-.68,3,3,0,0,0-2.76,1.52,7.53,7.53,0,0,0-.92,3.94Z"/><path class="cls-9" d="M734.35,146a5,5,0,0,1-3.92-1.75,6.51,6.51,0,0,1-1.55-4.46v-.65a6.63,6.63,0,0,1,1.55-4.51,4.77,4.77,0,0,1,3.74-1.79,4.63,4.63,0,0,1,3.63,1.48,5.66,5.66,0,0,1,1.32,3.93v1.2h-8.86v.34a5.61,5.61,0,0,0,1.13,3.58,3.59,3.59,0,0,0,3,1.45,6.08,6.08,0,0,0,2.21-.37,4.32,4.32,0,0,0,1.56-1l.59,1a5,5,0,0,1-1.78,1.19A6.89,6.89,0,0,1,734.35,146Zm-.18-12a3.31,3.31,0,0,0-2.58,1.19,5.18,5.18,0,0,0-1.23,3l0,.06h7.35v-.36a4,4,0,0,0-1-2.76A3.27,3.27,0,0,0,734.17,134Z"/><path class="cls-9" d="M747.57,144.69l3-.15V130.15l-3.33.48v-1l4.72-1v15.93l3,.15v1h-7.45Z"/><path class="cls-9" d="M408.83,157.28v-1h3.27V164a4.47,4.47,0,0,1,4.11-2.4,3.77,3.77,0,0,1,3,1.24,5.83,5.83,0,0,1,1.06,3.86v6.63l1.89.15v1H417v-1l1.89-.15v-6.66a4.44,4.44,0,0,0-.8-3,2.87,2.87,0,0,0-2.23-.89,3.74,3.74,0,0,0-2.38.75,4.43,4.43,0,0,0-1.41,2v7.75l1.89.15v1h-5.16v-1l1.89-.15v-15.9Z"/><path class="cls-9" d="M424.17,168a6.9,6.9,0,0,1,1.52-4.6,5.43,5.43,0,0,1,8.06,0,6.84,6.84,0,0,1,1.52,4.6v.38a6.85,6.85,0,0,1-1.51,4.6,5,5,0,0,1-4,1.79,5.07,5.07,0,0,1-4.05-1.79,6.86,6.86,0,0,1-1.52-4.6Zm1.4.38a6.07,6.07,0,0,0,1.1,3.71,3.86,3.86,0,0,0,6.11,0,6.13,6.13,0,0,0,1.1-3.71V168a6,6,0,0,0-1.11-3.68,3.82,3.82,0,0,0-6.1,0,6,6,0,0,0-1.1,3.68Z"/><path class="cls-9" d="M440.54,161.84l.17,2.11v.16a4.44,4.44,0,0,1,1.46-1.84,3.63,3.63,0,0,1,2.18-.66,3,3,0,0,1,.52,0l.41.09-.18,1.31-1-.07a3.15,3.15,0,0,0-2.15.74,4.14,4.14,0,0,0-1.2,2.05v7.57l1.89.15v1h-5.16v-1l1.89-.15V163l-1.89-.15v-1h3.1Z"/><path class="cls-9" d="M455.74,174.52c-.09-.43-.16-.8-.2-1.11s-.05-.63-.05-.95a5.62,5.62,0,0,1-1.86,1.65,5.17,5.17,0,0,1-2.61.66,4,4,0,0,1-2.85-1,3.43,3.43,0,0,1-1-2.6,3.21,3.21,0,0,1,1.5-2.79,7,7,0,0,1,4-1h2.78v-1.68a2.69,2.69,0,0,0-.87-2.13,3.47,3.47,0,0,0-2.42-.78,6,6,0,0,0-1.9.29,4.27,4.27,0,0,0-1.45.78l-.11,1.7h-1.15v-2.44a7.2,7.2,0,0,1,2.08-1.1,7.84,7.84,0,0,1,2.58-.42,5,5,0,0,1,3.34,1.07,3.78,3.78,0,0,1,1.27,3V172c0,.26,0,.5,0,.74a5.35,5.35,0,0,0,.08.7l1.25.08v1Zm-4.57-1a5,5,0,0,0,2.66-.71,4.12,4.12,0,0,0,1.66-1.81v-2.55h-2.8a5.15,5.15,0,0,0-3,.8,2.35,2.35,0,0,0-1.13,2,2.1,2.1,0,0,0,.7,1.65A2.79,2.79,0,0,0,451.17,173.53Z"/><path class="cls-9" d="M471.49,174.77a5,5,0,0,1-3.92-1.75,6.46,6.46,0,0,1-1.55-4.46v-.65a6.67,6.67,0,0,1,1.54-4.51,4.8,4.8,0,0,1,3.74-1.79,4.6,4.6,0,0,1,3.63,1.48,5.62,5.62,0,0,1,1.33,3.93v1.2H467.4v.34a5.61,5.61,0,0,0,1.13,3.58,3.59,3.59,0,0,0,3,1.45,6,6,0,0,0,2.2-.37,4.36,4.36,0,0,0,1.57-1l.59,1a5,5,0,0,1-1.79,1.19A6.8,6.8,0,0,1,471.49,174.77Zm-.19-12a3.32,3.32,0,0,0-2.58,1.19,5.17,5.17,0,0,0-1.22,3l0,.05h7.36v-.35a4,4,0,0,0-1-2.76A3.28,3.28,0,0,0,471.3,162.8Z"/><path class="cls-9" d="M490.05,174.77a5,5,0,0,1-3.92-1.75,6.47,6.47,0,0,1-1.56-4.46v-.65a6.68,6.68,0,0,1,1.55-4.51,4.79,4.79,0,0,1,3.74-1.79,4.6,4.6,0,0,1,3.63,1.48,5.66,5.66,0,0,1,1.32,3.93v1.2H486v.34a5.67,5.67,0,0,0,1.13,3.58,3.61,3.61,0,0,0,3,1.45,6,6,0,0,0,2.2-.37,4.32,4.32,0,0,0,1.56-1l.6,1a5.06,5.06,0,0,1-1.79,1.19A6.87,6.87,0,0,1,490.05,174.77Zm-.19-12a3.32,3.32,0,0,0-2.58,1.19,5.11,5.11,0,0,0-1.22,3l0,.05h7.35v-.35a4.07,4.07,0,0,0-1-2.76A3.28,3.28,0,0,0,489.86,162.8Z"/><path class="cls-9" d="M506.4,165.76h-1.14l-.16-1.8a3.58,3.58,0,0,0-1.32-.85,5.14,5.14,0,0,0-1.82-.31,3.37,3.37,0,0,0-2.28.67,2,2,0,0,0-.76,1.55,1.85,1.85,0,0,0,.65,1.45,6.27,6.27,0,0,0,2.62,1,8.58,8.58,0,0,1,3.35,1.38,2.85,2.85,0,0,1,1.11,2.37,3.07,3.07,0,0,1-1.27,2.56,5.34,5.34,0,0,1-3.35,1,7.83,7.83,0,0,1-2.54-.39,6,6,0,0,1-2-1.11v-2.56h1.12l.2,1.81a3.18,3.18,0,0,0,1.41.81,6.13,6.13,0,0,0,1.78.26,3.83,3.83,0,0,0,2.37-.67,2,2,0,0,0,.87-1.62,2.08,2.08,0,0,0-.72-1.56,6,6,0,0,0-2.62-1.09,8.83,8.83,0,0,1-3.32-1.3,2.71,2.71,0,0,1-1.08-2.28,3.08,3.08,0,0,1,1.21-2.46,4.92,4.92,0,0,1,3.22-1,7,7,0,0,1,2.52.43,5.07,5.07,0,0,1,1.86,1.15Z"/><path class="cls-9" d="M512.37,158.6v3.24h2.76V163h-2.76v8.26a2.73,2.73,0,0,0,.45,1.77,1.49,1.49,0,0,0,1.19.52c.22,0,.44,0,.65,0s.46,0,.74-.1l.21,1a4.13,4.13,0,0,1-.85.24,6.74,6.74,0,0,1-1,.08,2.6,2.6,0,0,1-2.06-.84,4,4,0,0,1-.73-2.68V163h-2.16v-1.15H511V158.6Z"/><path class="cls-9" d="M517.45,168a6.9,6.9,0,0,1,1.52-4.6,5.43,5.43,0,0,1,8.06,0,6.9,6.9,0,0,1,1.52,4.6v.38A6.91,6.91,0,0,1,527,173a5.44,5.44,0,0,1-8.07,0,6.86,6.86,0,0,1-1.52-4.6Zm1.39.38a6.13,6.13,0,0,0,1.1,3.71,3.87,3.87,0,0,0,6.12,0,6.13,6.13,0,0,0,1.1-3.71V168a6,6,0,0,0-1.11-3.68,3.83,3.83,0,0,0-6.11,0,6.08,6.08,0,0,0-1.1,3.68Z"/><path class="cls-9" d="M540,172.44a4.27,4.27,0,0,1-1.62,1.72,4.6,4.6,0,0,1-2.42.61,3.79,3.79,0,0,1-3.1-1.36,6.61,6.61,0,0,1-1.12-4.22V163l-1.55-.15v-1h2.93v7.37a5.43,5.43,0,0,0,.79,3.33,2.65,2.65,0,0,0,2.22,1,4.06,4.06,0,0,0,2.51-.7A3.71,3.71,0,0,0,540,170.9V163l-1.78-.15v-1h3.18v11.5l1.68.15v1h-2.9Z"/><path class="cls-9" d="M556.23,173.59a4,4,0,0,0,2.44-.8,2.63,2.63,0,0,0,1.05-2.22H561l0,.07a3.54,3.54,0,0,1-1.39,3,5.18,5.18,0,0,1-3.36,1.18,4.72,4.72,0,0,1-4-1.78,7.09,7.09,0,0,1-1.41-4.56v-.49a7.1,7.1,0,0,1,1.41-4.55,4.72,4.72,0,0,1,3.94-1.78,6.3,6.3,0,0,1,2.66.55,5.37,5.37,0,0,1,2,1.5l0,2.77h-1.18l-.22-2.25a3.87,3.87,0,0,0-1.39-1,4.67,4.67,0,0,0-1.88-.37,3.36,3.36,0,0,0-3,1.46,6.58,6.58,0,0,0-1,3.68v.49a6.58,6.58,0,0,0,1,3.7A3.34,3.34,0,0,0,556.23,173.59Z"/><path class="cls-9" d="M563.56,168a6.9,6.9,0,0,1,1.52-4.6,5.43,5.43,0,0,1,8.06,0,6.9,6.9,0,0,1,1.52,4.6v.38a6.85,6.85,0,0,1-1.51,4.6,5.44,5.44,0,0,1-8.07,0,6.86,6.86,0,0,1-1.52-4.6Zm1.39.38a6.07,6.07,0,0,0,1.11,3.71,3.86,3.86,0,0,0,6.11,0,6.13,6.13,0,0,0,1.1-3.71V168a6,6,0,0,0-1.11-3.68,3.82,3.82,0,0,0-6.1,0A6,6,0,0,0,565,168Z"/><path class="cls-9" d="M576.62,162.89v-1h3.12l.13,2.1a4.39,4.39,0,0,1,1.61-1.72,4.51,4.51,0,0,1,2.4-.61,3.62,3.62,0,0,1,3.78,2.87,4.92,4.92,0,0,1,1.62-2.1,4.16,4.16,0,0,1,2.56-.77,3.77,3.77,0,0,1,3.1,1.35,6.56,6.56,0,0,1,1.09,4.17v6.2l1.89.16v1h-5.18v-1l1.89-.16v-6.22a5.17,5.17,0,0,0-.82-3.32,2.82,2.82,0,0,0-2.28-1,3.07,3.07,0,0,0-2.49,1,5,5,0,0,0-1.09,2.66,1.09,1.09,0,0,0,0,.18v6.63l1.89.15v1h-5.17v-1l1.89-.15v-6.23a5.14,5.14,0,0,0-.83-3.29,2.81,2.81,0,0,0-2.28-1,3.47,3.47,0,0,0-2.35.75,4.11,4.11,0,0,0-1.21,2v7.72l1.89.15v1h-5.17v-1l1.89-.15V163Z"/><path class="cls-9" d="M605.11,162.89v-1h3.12l.13,2.1a4.39,4.39,0,0,1,1.61-1.72,4.56,4.56,0,0,1,2.4-.61,4,4,0,0,1,2.4.71,3.87,3.87,0,0,1,1.39,2.16,4.82,4.82,0,0,1,1.61-2.1,4.16,4.16,0,0,1,2.56-.77,3.76,3.76,0,0,1,3.1,1.35,6.56,6.56,0,0,1,1.1,4.17v6.2l1.89.16v1h-5.19v-1l1.9-.16v-6.22a5.23,5.23,0,0,0-.82-3.32,2.85,2.85,0,0,0-2.28-1,3.1,3.1,0,0,0-2.5,1,5.09,5.09,0,0,0-1.09,2.66c0,.06,0,.12,0,.18s0,.12,0,.21v6.42l1.89.15v1h-5.17v-1l1.88-.15v-6.23a5.15,5.15,0,0,0-.82-3.29,2.83,2.83,0,0,0-2.28-1,3.45,3.45,0,0,0-2.35.75,4,4,0,0,0-1.21,2v7.72l1.89.15v1h-5.18v-1l1.9-.15V163Z"/><path class="cls-9" d="M637.35,172.44a4.31,4.31,0,0,1-1.61,1.72,4.63,4.63,0,0,1-2.42.61,3.78,3.78,0,0,1-3.1-1.36,6.55,6.55,0,0,1-1.12-4.22V163l-1.56-.15v-1h2.94v7.37a5.51,5.51,0,0,0,.78,3.33,2.65,2.65,0,0,0,2.22,1,4.06,4.06,0,0,0,2.51-.7,3.79,3.79,0,0,0,1.32-1.95V163l-1.79-.15v-1h3.18v11.5l1.68.15v1h-2.9Z"/><path class="cls-9" d="M642.33,173.49l1.89-.15V163l-1.89-.15v-1h3.27v11.5l1.89.15v1h-5.16Zm3.27-15.28h-1.38v-2h1.38Z"/><path class="cls-9" d="M653,158.6v3.24h2.76V163H653v8.26a2.73,2.73,0,0,0,.45,1.77,1.51,1.51,0,0,0,1.19.52c.22,0,.44,0,.65,0s.46,0,.74-.1l.21,1a4,4,0,0,1-.85.24,6.63,6.63,0,0,1-1,.08,2.58,2.58,0,0,1-2-.84,4,4,0,0,1-.74-2.68V163h-2.16v-1.15h2.16V158.6Z"/><path class="cls-9" d="M667,174.52a11.15,11.15,0,0,1-.2-1.11,7.46,7.46,0,0,1-.06-.95,5.49,5.49,0,0,1-1.85,1.65,5.22,5.22,0,0,1-2.61.66,4,4,0,0,1-2.86-1,3.43,3.43,0,0,1-1-2.6,3.21,3.21,0,0,1,1.5-2.79,7,7,0,0,1,4.06-1h2.77v-1.68a2.71,2.71,0,0,0-.86-2.13,3.49,3.49,0,0,0-2.42-.78,6.07,6.07,0,0,0-1.91.29,4.22,4.22,0,0,0-1.44.78l-.12,1.7h-1.15l0-2.44a7.2,7.2,0,0,1,2.08-1.1,7.8,7.8,0,0,1,2.58-.42,5,5,0,0,1,3.34,1.07,3.78,3.78,0,0,1,1.26,3V172c0,.26,0,.5,0,.74s0,.47.07.7l1.26.08v1Zm-4.57-1a5,5,0,0,0,2.65-.71,4.06,4.06,0,0,0,1.66-1.81v-2.55h-2.79a5.15,5.15,0,0,0-3,.8,2.34,2.34,0,0,0-1.14,2,2.11,2.11,0,0,0,.71,1.65A2.77,2.77,0,0,0,662.42,173.53Z"/><path class="cls-9" d="M686.31,165.76h-1.14L685,164a3.58,3.58,0,0,0-1.32-.85,5.14,5.14,0,0,0-1.82-.31,3.37,3.37,0,0,0-2.28.67,2,2,0,0,0-.76,1.55,1.85,1.85,0,0,0,.65,1.45,6.27,6.27,0,0,0,2.62,1,8.58,8.58,0,0,1,3.35,1.38,2.85,2.85,0,0,1,1.11,2.37,3.07,3.07,0,0,1-1.27,2.56,5.35,5.35,0,0,1-3.36,1,7.81,7.81,0,0,1-2.53-.39,6.16,6.16,0,0,1-2-1.11v-2.56h1.13l.2,1.81a3.2,3.2,0,0,0,1.4.81,6.23,6.23,0,0,0,1.78.26,3.85,3.85,0,0,0,2.38-.67,2,2,0,0,0,.87-1.62,2.08,2.08,0,0,0-.72-1.56,6,6,0,0,0-2.62-1.09,8.83,8.83,0,0,1-3.32-1.3,2.72,2.72,0,0,1-1.09-2.28,3.09,3.09,0,0,1,1.22-2.46,4.92,4.92,0,0,1,3.22-1,7,7,0,0,1,2.52.43,5.07,5.07,0,0,1,1.86,1.15Z"/><path class="cls-9" d="M694.62,174.77A5,5,0,0,1,690.7,173a6.51,6.51,0,0,1-1.55-4.46v-.65a6.63,6.63,0,0,1,1.55-4.51,4.79,4.79,0,0,1,3.74-1.79,4.62,4.62,0,0,1,3.63,1.48,5.66,5.66,0,0,1,1.32,3.93v1.2h-8.86v.34a5.61,5.61,0,0,0,1.13,3.58,3.59,3.59,0,0,0,3,1.45,6.08,6.08,0,0,0,2.21-.37,4.32,4.32,0,0,0,1.56-1l.59,1a4.93,4.93,0,0,1-1.78,1.19A6.89,6.89,0,0,1,694.62,174.77Zm-.18-12a3.32,3.32,0,0,0-2.58,1.19,5.18,5.18,0,0,0-1.23,3l0,.05H698v-.35a4.07,4.07,0,0,0-1-2.76A3.31,3.31,0,0,0,694.44,162.8Z"/><path class="cls-9" d="M710.59,172.7a4.37,4.37,0,0,1-1.61,1.53,4.76,4.76,0,0,1-2.32.54,4.16,4.16,0,0,1-3.52-1.7,7.37,7.37,0,0,1-1.27-4.54v-.24a8.35,8.35,0,0,1,1.27-4.86,4.09,4.09,0,0,1,3.54-1.82,4.41,4.41,0,0,1,2.28.56,4.65,4.65,0,0,1,1.6,1.58v-6.31l-1.89-.16v-1H712v17.1l1.89.15v1h-3.13Zm-7.32-4.17a6.54,6.54,0,0,0,.91,3.66,3.09,3.09,0,0,0,2.75,1.36,3.85,3.85,0,0,0,2.23-.61,4.11,4.11,0,0,0,1.4-1.67v-6a4.38,4.38,0,0,0-1.34-1.76,3.57,3.57,0,0,0-2.27-.68,3,3,0,0,0-2.75,1.52,7.44,7.44,0,0,0-.93,3.94Z"/><path class="cls-9" d="M721.51,174.77a5,5,0,0,1-3.92-1.75,6.47,6.47,0,0,1-1.56-4.46v-.65a6.68,6.68,0,0,1,1.55-4.51,4.79,4.79,0,0,1,3.74-1.79,4.6,4.6,0,0,1,3.63,1.48,5.66,5.66,0,0,1,1.32,3.93v1.2h-8.86v.34a5.67,5.67,0,0,0,1.13,3.58,3.61,3.61,0,0,0,3,1.45,6,6,0,0,0,2.2-.37,4.32,4.32,0,0,0,1.56-1l.6,1a5.06,5.06,0,0,1-1.79,1.19A6.87,6.87,0,0,1,721.51,174.77Zm-.19-12a3.32,3.32,0,0,0-2.58,1.19,5.11,5.11,0,0,0-1.22,3l0,.05h7.35v-.35a4.07,4.07,0,0,0-1-2.76A3.28,3.28,0,0,0,721.32,162.8Z"/><path class="cls-9" d="M730.93,174.52h-1.64v-2h1.64Zm-.14-5.6h-1.38V157.46h1.38Z"/><path class="cls-9" d="M420.86,220.12h-1.14l-.2-2.41a4.09,4.09,0,0,0-1.7-1.25,6.53,6.53,0,0,0-2.53-.45,5.19,5.19,0,0,0-3.25.91,2.79,2.79,0,0,0-1.17,2.28,2.68,2.68,0,0,0,1.05,2.15,9.84,9.84,0,0,0,3.64,1.52,10.44,10.44,0,0,1,4.14,1.89,3.92,3.92,0,0,1,1.42,3.16,3.79,3.79,0,0,1-1.64,3.24,6.91,6.91,0,0,1-4.21,1.21,8.63,8.63,0,0,1-3.36-.64,6.43,6.43,0,0,1-2.53-1.84v-3h1.13l.2,2.49a4.83,4.83,0,0,0,2,1.34,7.32,7.32,0,0,0,2.6.46,5.44,5.44,0,0,0,3.23-.89,2.78,2.78,0,0,0,1.23-2.36,2.86,2.86,0,0,0-1-2.28,9.46,9.46,0,0,0-3.59-1.56,11.32,11.32,0,0,1-4.2-1.83,3.67,3.67,0,0,1-1.43-3,3.82,3.82,0,0,1,1.62-3.18,6.77,6.77,0,0,1,4.19-1.23,8,8,0,0,1,3.29.64,5.71,5.71,0,0,1,2.28,1.75Z"/><path class="cls-9" d="M428.92,232.37a5,5,0,0,1-3.92-1.75,6.47,6.47,0,0,1-1.56-4.46v-.65A6.68,6.68,0,0,1,425,221a4.79,4.79,0,0,1,3.74-1.79,4.6,4.6,0,0,1,3.63,1.48,5.66,5.66,0,0,1,1.32,3.93v1.2h-8.86v.34a5.67,5.67,0,0,0,1.13,3.58,3.62,3.62,0,0,0,3,1.45,5.79,5.79,0,0,0,2.2-.37,4.45,4.45,0,0,0,1.57-1l.59,1a5,5,0,0,1-1.79,1.19A6.84,6.84,0,0,1,428.92,232.37Zm-.19-12a3.31,3.31,0,0,0-2.58,1.18,5.11,5.11,0,0,0-1.22,3l0,.06h7.35v-.36a4.07,4.07,0,0,0-1-2.76A3.27,3.27,0,0,0,428.73,220.41Z"/><path class="cls-9" d="M436.07,231.09l1.89-.15v-10.3l-1.89-.15v-1.05h3.27v11.5l1.89.15v1h-5.16Zm3.27-15.28H438v-2h1.38Z"/><path class="cls-9" d="M449.34,225.89a8.35,8.35,0,0,1,1.27-4.86,4.09,4.09,0,0,1,3.54-1.82,4.24,4.24,0,0,1,3.85,2.11l.14-1.88h1.22V235.8l1.89.16v1h-5.17v-1l1.89-.16v-5.34a4.35,4.35,0,0,1-1.6,1.42,4.83,4.83,0,0,1-2.24.49,4.16,4.16,0,0,1-3.52-1.7,7.36,7.36,0,0,1-1.27-4.53Zm1.4.25a6.62,6.62,0,0,0,.91,3.67,3.08,3.08,0,0,0,2.75,1.38,3.8,3.8,0,0,0,2.18-.6A3.87,3.87,0,0,0,458,229v-6.19a4.76,4.76,0,0,0-1.35-1.71,3.53,3.53,0,0,0-2.2-.66,3,3,0,0,0-2.75,1.52,7.54,7.54,0,0,0-.93,4Z"/><path class="cls-9" d="M471.83,230a4.41,4.41,0,0,1-1.62,1.72,4.6,4.6,0,0,1-2.42.61,3.78,3.78,0,0,1-3.1-1.36,6.55,6.55,0,0,1-1.12-4.22v-6.15l-1.55-.15v-1.05H465v7.38a5.5,5.5,0,0,0,.78,3.32,2.65,2.65,0,0,0,2.22,1,4.1,4.1,0,0,0,2.52-.7,3.71,3.71,0,0,0,1.31-1.95v-7.86l-1.78-.15v-1.05h3.17v11.5l1.68.15v1H472Z"/><path class="cls-9" d="M482.43,232.37a5,5,0,0,1-3.92-1.75,6.47,6.47,0,0,1-1.56-4.46v-.65A6.68,6.68,0,0,1,478.5,221a4.79,4.79,0,0,1,3.74-1.79,4.6,4.6,0,0,1,3.63,1.48,5.66,5.66,0,0,1,1.32,3.93v1.2h-8.86v.34a5.67,5.67,0,0,0,1.13,3.58,3.62,3.62,0,0,0,3,1.45,5.79,5.79,0,0,0,2.2-.37,4.45,4.45,0,0,0,1.57-1l.59,1a5,5,0,0,1-1.79,1.19A6.84,6.84,0,0,1,482.43,232.37Zm-.19-12a3.31,3.31,0,0,0-2.58,1.18,5.11,5.11,0,0,0-1.22,3l0,.06h7.35v-.36a4.07,4.07,0,0,0-1-2.76A3.27,3.27,0,0,0,482.24,220.41Z"/><path class="cls-9" d="M495.08,220.49v-1.05h3.05l.17,2a4.71,4.71,0,0,1,1.63-1.63,4.62,4.62,0,0,1,2.33-.57A4.09,4.09,0,0,1,505.8,221a8.35,8.35,0,0,1,1.27,4.86v.25a7.39,7.39,0,0,1-1.27,4.54,4.16,4.16,0,0,1-3.52,1.69,5,5,0,0,1-2.31-.51,4.26,4.26,0,0,1-1.62-1.45v5.39l1.89.16v1h-5.16v-1l1.89-.16V220.64Zm10.6,5.4a7.39,7.39,0,0,0-.95-3.94,3.08,3.08,0,0,0-2.78-1.52,3.61,3.61,0,0,0-2.28.67,4.12,4.12,0,0,0-1.32,1.75V229a3.72,3.72,0,0,0,3.62,2.24,3.12,3.12,0,0,0,2.76-1.39,6.37,6.37,0,0,0,.95-3.66Z"/><path class="cls-9" d="M512.34,219.44l.17,2.11v.16a4.44,4.44,0,0,1,1.46-1.84,3.63,3.63,0,0,1,2.18-.66,3,3,0,0,1,.52,0l.41.09-.19,1.31-1-.07a3.15,3.15,0,0,0-2.15.74,4.14,4.14,0,0,0-1.2,2.05v7.57l1.89.15v1h-5.16v-1l1.89-.15v-10.3l-1.89-.15v-1.05h3.1Z"/><path class="cls-9" d="M524.19,232.37a5,5,0,0,1-3.92-1.75,6.47,6.47,0,0,1-1.56-4.46v-.65a6.68,6.68,0,0,1,1.55-4.51,4.8,4.8,0,0,1,3.74-1.79,4.6,4.6,0,0,1,3.63,1.48,5.66,5.66,0,0,1,1.32,3.93v1.2h-8.86v.34a5.62,5.62,0,0,0,1.14,3.58,3.59,3.59,0,0,0,3,1.45,5.79,5.79,0,0,0,2.2-.37,4.45,4.45,0,0,0,1.57-1l.59,1a5,5,0,0,1-1.79,1.19A6.84,6.84,0,0,1,524.19,232.37Zm-.19-12a3.31,3.31,0,0,0-2.58,1.18,5.11,5.11,0,0,0-1.22,3l0,.06h7.35v-.36a4.07,4.07,0,0,0-1-2.76A3.27,3.27,0,0,0,524,220.41Z"/><path class="cls-9" d="M536.79,231.19a4,4,0,0,0,2.44-.8,2.63,2.63,0,0,0,1.06-2.22h1.23l0,.07a3.51,3.51,0,0,1-1.39,2.95,5.12,5.12,0,0,1-3.36,1.18,4.74,4.74,0,0,1-3.95-1.78,7.09,7.09,0,0,1-1.4-4.56v-.49a7.1,7.1,0,0,1,1.4-4.55,4.73,4.73,0,0,1,3.94-1.78,6.3,6.3,0,0,1,2.66.55,5.29,5.29,0,0,1,2,1.5l.06,2.77h-1.19l-.22-2.25a3.92,3.92,0,0,0-1.38-1,4.72,4.72,0,0,0-1.89-.36,3.32,3.32,0,0,0-3,1.45,6.5,6.5,0,0,0-1,3.68V226a6.58,6.58,0,0,0,1,3.7A3.34,3.34,0,0,0,536.79,231.19Z"/><path class="cls-9" d="M544,231.09l1.89-.15v-10.3l-1.89-.15v-1.05h3.27v11.5l1.89.15v1H544Zm3.27-15.28h-1.38v-2h1.38Z"/><path class="cls-9" d="M560.63,223.36h-1.14l-.16-1.79a3.48,3.48,0,0,0-1.32-.86,5.15,5.15,0,0,0-1.82-.3,3.37,3.37,0,0,0-2.28.66,2,2,0,0,0-.76,1.55,1.85,1.85,0,0,0,.65,1.45,6.27,6.27,0,0,0,2.62,1,8.58,8.58,0,0,1,3.35,1.38,2.85,2.85,0,0,1,1.11,2.37,3.06,3.06,0,0,1-1.27,2.56,5.34,5.34,0,0,1-3.35,1,7.83,7.83,0,0,1-2.54-.39,6,6,0,0,1-2-1.11v-2.55h1.13l.2,1.8a3.18,3.18,0,0,0,1.41.81,6.13,6.13,0,0,0,1.78.26,3.83,3.83,0,0,0,2.37-.67,2,2,0,0,0,.87-1.62,2.08,2.08,0,0,0-.72-1.56,6,6,0,0,0-2.62-1.09,8.83,8.83,0,0,1-3.32-1.3,2.71,2.71,0,0,1-1.08-2.28,3.08,3.08,0,0,1,1.21-2.46,4.92,4.92,0,0,1,3.22-1,7,7,0,0,1,2.52.43,5.07,5.07,0,0,1,1.86,1.15Z"/><path class="cls-9" d="M563.41,225.6a6.9,6.9,0,0,1,1.52-4.6,5.43,5.43,0,0,1,8.06,0,6.9,6.9,0,0,1,1.52,4.6V226a6.91,6.91,0,0,1-1.51,4.6,5.44,5.44,0,0,1-8.07,0,6.86,6.86,0,0,1-1.52-4.6Zm1.39.38a6.13,6.13,0,0,0,1.1,3.71,3.87,3.87,0,0,0,6.12,0,6.13,6.13,0,0,0,1.1-3.71v-.38a6,6,0,0,0-1.11-3.68,3.85,3.85,0,0,0-6.11,0,6.08,6.08,0,0,0-1.1,3.68Z"/><path class="cls-9" d="M585.73,216.2v3.24h2.76v1.15h-2.76v8.26a2.73,2.73,0,0,0,.45,1.77,1.48,1.48,0,0,0,1.19.52c.22,0,.44,0,.65,0s.46-.05.74-.1l.21,1a3.33,3.33,0,0,1-.85.24,6.61,6.61,0,0,1-1,.08,2.58,2.58,0,0,1-2.06-.84,4,4,0,0,1-.74-2.68v-8.26h-2.16v-1.15h2.16V216.2Z"/><path class="cls-9" d="M590.81,225.6a6.9,6.9,0,0,1,1.52-4.6,5.43,5.43,0,0,1,8.06,0,6.84,6.84,0,0,1,1.52,4.6V226a6.85,6.85,0,0,1-1.51,4.6,5,5,0,0,1-4,1.79,5.07,5.07,0,0,1-4-1.79,6.86,6.86,0,0,1-1.52-4.6Zm1.4.38a6.07,6.07,0,0,0,1.1,3.71,3.86,3.86,0,0,0,6.11,0,6.13,6.13,0,0,0,1.1-3.71v-.38a6,6,0,0,0-1.11-3.68,3.84,3.84,0,0,0-6.1,0,6,6,0,0,0-1.1,3.68Z"/><path class="cls-9" d="M603.87,220.49v-1.05H607l.13,2.1a4.46,4.46,0,0,1,1.61-1.72,4.56,4.56,0,0,1,2.4-.61,4,4,0,0,1,2.4.71,3.81,3.81,0,0,1,1.38,2.16,4.92,4.92,0,0,1,1.62-2.1,4.23,4.23,0,0,1,2.56-.77,3.76,3.76,0,0,1,3.1,1.35,6.56,6.56,0,0,1,1.1,4.17v6.2l1.89.16v1H620v-1l1.89-.16v-6.22a5.19,5.19,0,0,0-.81-3.31,2.82,2.82,0,0,0-2.28-1,3.08,3.08,0,0,0-2.5,1,5,5,0,0,0-1.09,2.66c0,.06,0,.12,0,.18s0,.12,0,.21v6.42l1.89.15v1h-5.18v-1l1.89-.15v-6.23a5.08,5.08,0,0,0-.83-3.29,2.8,2.8,0,0,0-2.27-1,3.45,3.45,0,0,0-2.35.75,4,4,0,0,0-1.21,2v7.72l1.89.15v1h-5.18v-1l1.89-.15v-10.3Z"/><path class="cls-9" d="M635.56,232.12a11.15,11.15,0,0,1-.2-1.11,7.46,7.46,0,0,1-.06-.95,5.38,5.38,0,0,1-1.85,1.65,5.22,5.22,0,0,1-2.61.66,4,4,0,0,1-2.86-1,3.43,3.43,0,0,1-1-2.6,3.22,3.22,0,0,1,1.49-2.79,7,7,0,0,1,4.06-1h2.77v-1.68a2.73,2.73,0,0,0-.86-2.13,3.48,3.48,0,0,0-2.42-.77,6.08,6.08,0,0,0-1.91.28,4.31,4.31,0,0,0-1.44.78l-.12,1.7H627.4l0-2.44a7.2,7.2,0,0,1,2.08-1.1,7.84,7.84,0,0,1,2.58-.42,5,5,0,0,1,3.34,1.07,3.78,3.78,0,0,1,1.26,3.05v6.24c0,.26,0,.5,0,.74s0,.47.07.7l1.26.08v1Zm-4.57-1a5,5,0,0,0,2.65-.71,4.06,4.06,0,0,0,1.66-1.81v-2.54h-2.79a5.15,5.15,0,0,0-3,.79,2.34,2.34,0,0,0-1.14,2,2.11,2.11,0,0,0,.71,1.65A2.77,2.77,0,0,0,631,231.13Z"/><path class="cls-9" d="M643,219.44l.18,2.11v.16a4.42,4.42,0,0,1,1.45-1.84,3.69,3.69,0,0,1,2.19-.66,2.78,2.78,0,0,1,.51,0l.42.09-.19,1.31-1-.07a3.14,3.14,0,0,0-2.15.74,4.14,4.14,0,0,0-1.2,2.05v7.57l1.89.15v1h-5.16v-1l1.89-.15v-10.3l-1.89-.15v-1.05H643Z"/><path class="cls-9" d="M664,232.12c-.09-.43-.16-.8-.2-1.11a7.46,7.46,0,0,1,0-.95,5.51,5.51,0,0,1-1.86,1.65,5.17,5.17,0,0,1-2.61.66,4,4,0,0,1-2.85-1,3.4,3.4,0,0,1-1-2.6,3.24,3.24,0,0,1,1.49-2.79,7.06,7.06,0,0,1,4.06-1h2.78v-1.68a2.7,2.7,0,0,0-.87-2.13,3.47,3.47,0,0,0-2.42-.77,6,6,0,0,0-1.9.28,4.27,4.27,0,0,0-1.45.78l-.11,1.7h-1.15v-2.44a7.2,7.2,0,0,1,2.08-1.1,7.84,7.84,0,0,1,2.58-.42,5,5,0,0,1,3.34,1.07,3.78,3.78,0,0,1,1.27,3.05v6.24c0,.26,0,.5,0,.74a5.35,5.35,0,0,0,.08.7l1.25.08v1Zm-4.57-1a5,5,0,0,0,2.66-.71,4.12,4.12,0,0,0,1.66-1.81v-2.54h-2.8a5.15,5.15,0,0,0-3,.79,2.35,2.35,0,0,0-1.13,2,2.1,2.1,0,0,0,.7,1.65A2.79,2.79,0,0,0,659.41,231.13Zm2.36-16.53h1.7l0,.07-2.89,3.05h-1.24Z"/><path class="cls-9" d="M668.48,225.89a8.35,8.35,0,0,1,1.28-4.86,4.13,4.13,0,0,1,3.56-1.82,4.41,4.41,0,0,1,2.31.59,4.81,4.81,0,0,1,1.62,1.67l.16-2h1.17V232a5.51,5.51,0,0,1-1.31,3.87,4.73,4.73,0,0,1-3.65,1.41,9,9,0,0,1-1.93-.22,7.6,7.6,0,0,1-1.8-.61l.38-1.18a7.8,7.8,0,0,0,1.58.56,7.54,7.54,0,0,0,1.74.2,3.3,3.3,0,0,0,2.69-1.07,4.39,4.39,0,0,0,.91-3v-1.61a4.44,4.44,0,0,1-1.61,1.5,4.75,4.75,0,0,1-2.29.52,4.18,4.18,0,0,1-3.53-1.7,7.36,7.36,0,0,1-1.28-4.53Zm1.39.25a6.47,6.47,0,0,0,.92,3.65,3.12,3.12,0,0,0,2.76,1.36,3.9,3.9,0,0,0,2.25-.62,4,4,0,0,0,1.39-1.71v-5.88a4.39,4.39,0,0,0-1.33-1.81,3.54,3.54,0,0,0-2.29-.7,3,3,0,0,0-2.76,1.52,7.39,7.39,0,0,0-.94,3.94Z"/><path class="cls-9" d="M691,230a4.41,4.41,0,0,1-1.62,1.72,4.63,4.63,0,0,1-2.42.61,3.78,3.78,0,0,1-3.1-1.36,6.55,6.55,0,0,1-1.12-4.22v-6.15l-1.56-.15v-1.05h2.94v7.38a5.5,5.5,0,0,0,.78,3.32,2.62,2.62,0,0,0,2.22,1,4.06,4.06,0,0,0,2.51-.7,3.73,3.73,0,0,0,1.32-1.95v-7.86l-1.79-.15v-1.05h3.18v11.5l1.68.15v1h-2.9Z"/><path class="cls-9" d="M704.69,232.12a11.15,11.15,0,0,1-.2-1.11,7.46,7.46,0,0,1-.06-.95,5.38,5.38,0,0,1-1.85,1.65,5.22,5.22,0,0,1-2.61.66,4,4,0,0,1-2.86-1,3.43,3.43,0,0,1-1-2.6,3.23,3.23,0,0,1,1.5-2.79,7,7,0,0,1,4.06-1h2.77v-1.68a2.73,2.73,0,0,0-.86-2.13,3.48,3.48,0,0,0-2.42-.77,6.08,6.08,0,0,0-1.91.28,4.22,4.22,0,0,0-1.44.78l-.12,1.7h-1.15l0-2.44a7.2,7.2,0,0,1,2.08-1.1,7.8,7.8,0,0,1,2.58-.42,5,5,0,0,1,3.34,1.07,3.78,3.78,0,0,1,1.26,3.05v6.24c0,.26,0,.5,0,.74s0,.47.07.7l1.26.08v1Zm-4.57-1a5,5,0,0,0,2.65-.71,4.06,4.06,0,0,0,1.66-1.81v-2.54h-2.79a5.15,5.15,0,0,0-3,.79,2.34,2.34,0,0,0-1.14,2,2.11,2.11,0,0,0,.71,1.65A2.77,2.77,0,0,0,700.12,231.13Z"/><path class="cls-9" d="M714.9,225.6a6.9,6.9,0,0,1,1.52-4.6,5.43,5.43,0,0,1,8.06,0,6.84,6.84,0,0,1,1.52,4.6V226a6.85,6.85,0,0,1-1.51,4.6,5.44,5.44,0,0,1-8.07,0,6.86,6.86,0,0,1-1.52-4.6Zm1.4.38a6.07,6.07,0,0,0,1.1,3.71,3.86,3.86,0,0,0,6.11,0,6.13,6.13,0,0,0,1.1-3.71v-.38a6,6,0,0,0-1.11-3.68,3.84,3.84,0,0,0-6.1,0,6,6,0,0,0-1.1,3.68Z"/><path class="cls-9" d="M737.48,230a4.27,4.27,0,0,1-1.62,1.72,4.59,4.59,0,0,1-2.41.61,3.76,3.76,0,0,1-3.1-1.36,6.55,6.55,0,0,1-1.12-4.22v-6.15l-1.56-.15v-1.05h2.94v7.38a5.5,5.5,0,0,0,.78,3.32,2.62,2.62,0,0,0,2.22,1,4.06,4.06,0,0,0,2.51-.7,3.79,3.79,0,0,0,1.32-1.95v-7.86l-1.79-.15v-1.05h3.18v11.5l1.68.15v1h-2.9Z"/><path class="cls-9" d="M408.87,249.29v-1h3.05l.17,2a4.71,4.71,0,0,1,1.63-1.63,4.6,4.6,0,0,1,2.33-.57,4.09,4.09,0,0,1,3.53,1.82,8.35,8.35,0,0,1,1.28,4.86v.25a7.39,7.39,0,0,1-1.28,4.54,4.15,4.15,0,0,1-3.51,1.69,5,5,0,0,1-2.32-.51,4.16,4.16,0,0,1-1.61-1.45v5.39l1.89.16v1h-5.16v-1l1.89-.16V249.44Zm10.6,5.4a7.39,7.39,0,0,0-1-3.94,3.11,3.11,0,0,0-2.79-1.52,3.65,3.65,0,0,0-2.28.67,4.18,4.18,0,0,0-1.31,1.75v6.1a3.8,3.8,0,0,0,1.37,1.64,4,4,0,0,0,2.25.6,3.12,3.12,0,0,0,2.76-1.39,6.37,6.37,0,0,0,1-3.66Z"/><path class="cls-9" d="M423.12,254.4a6.9,6.9,0,0,1,1.52-4.6,5.43,5.43,0,0,1,8.06,0,6.9,6.9,0,0,1,1.52,4.6v.38a6.86,6.86,0,0,1-1.52,4.6,5,5,0,0,1-4,1.79,5,5,0,0,1-4.05-1.79,6.86,6.86,0,0,1-1.52-4.6Zm1.39.38a6.13,6.13,0,0,0,1.1,3.71,3.61,3.61,0,0,0,3.08,1.5,3.54,3.54,0,0,0,3-1.5,6.07,6.07,0,0,0,1.11-3.71v-.38a6,6,0,0,0-1.11-3.68,3.83,3.83,0,0,0-6.11,0,6.08,6.08,0,0,0-1.1,3.68Z"/><path class="cls-9" d="M445.58,252.16h-1.13l-.17-1.8a3.46,3.46,0,0,0-1.31-.85,5.16,5.16,0,0,0-1.83-.31,3.41,3.41,0,0,0-2.28.67,2,2,0,0,0-.76,1.55,1.83,1.83,0,0,0,.66,1.45,6.22,6.22,0,0,0,2.61,1,8.58,8.58,0,0,1,3.35,1.38,2.83,2.83,0,0,1,1.12,2.37,3.09,3.09,0,0,1-1.27,2.56,5.39,5.39,0,0,1-3.36,1,7.76,7.76,0,0,1-2.53-.39,5.88,5.88,0,0,1-2-1.11v-2.56h1.12l.2,1.81a3.18,3.18,0,0,0,1.41.81,6.18,6.18,0,0,0,1.78.26,3.85,3.85,0,0,0,2.38-.67,2,2,0,0,0,.87-1.62,2.06,2.06,0,0,0-.73-1.56,5.86,5.86,0,0,0-2.61-1.09,8.83,8.83,0,0,1-3.32-1.3,2.69,2.69,0,0,1-1.09-2.28,3.09,3.09,0,0,1,1.22-2.46,4.87,4.87,0,0,1,3.21-1,7,7,0,0,1,2.52.43,5,5,0,0,1,1.86,1.15Z"/><path class="cls-9" d="M457.47,252.16h-1.14l-.16-1.8a3.58,3.58,0,0,0-1.32-.85,5.1,5.1,0,0,0-1.82-.31,3.41,3.41,0,0,0-2.28.67,2,2,0,0,0-.76,1.55,1.85,1.85,0,0,0,.65,1.45,6.27,6.27,0,0,0,2.62,1,8.58,8.58,0,0,1,3.35,1.38,2.85,2.85,0,0,1,1.11,2.37,3.06,3.06,0,0,1-1.27,2.56,5.34,5.34,0,0,1-3.35,1,7.83,7.83,0,0,1-2.54-.39,5.83,5.83,0,0,1-2-1.11v-2.56h1.12l.2,1.81a3.18,3.18,0,0,0,1.41.81,6.18,6.18,0,0,0,1.78.26,3.89,3.89,0,0,0,2.38-.67,2,2,0,0,0,.86-1.62,2.08,2.08,0,0,0-.72-1.56,5.91,5.91,0,0,0-2.62-1.09,8.83,8.83,0,0,1-3.32-1.3,2.71,2.71,0,0,1-1.08-2.28,3.08,3.08,0,0,1,1.21-2.46,4.92,4.92,0,0,1,3.22-1,7,7,0,0,1,2.52.43,5.07,5.07,0,0,1,1.86,1.15Z"/><path class="cls-9" d="M460.25,254.4a6.9,6.9,0,0,1,1.52-4.6,5.43,5.43,0,0,1,8.06,0,6.9,6.9,0,0,1,1.52,4.6v.38a6.85,6.85,0,0,1-1.51,4.6,5.44,5.44,0,0,1-8.07,0,6.86,6.86,0,0,1-1.52-4.6Zm1.39.38a6.07,6.07,0,0,0,1.11,3.71,3.86,3.86,0,0,0,6.11,0,6.13,6.13,0,0,0,1.1-3.71v-.38a6,6,0,0,0-1.11-3.68,3.82,3.82,0,0,0-6.1,0,6,6,0,0,0-1.11,3.68Z"/><path class="cls-9" d="M479.13,259.89l1.89-.15v-10.3l-1.89-.15v-1h3.12l.13,2.22a4.33,4.33,0,0,1,4.06-2.45,3.86,3.86,0,0,1,3.11,1.26,6,6,0,0,1,1.06,3.93v6.54l1.89.15v1h-5.17v-1l1.89-.15v-6.53a4.67,4.67,0,0,0-.8-3.08,2.93,2.93,0,0,0-2.29-.9,3.58,3.58,0,0,0-2.39.78,4.38,4.38,0,0,0-1.33,2.07v7.66l1.89.15v1h-5.17Z"/><path class="cls-9" d="M503.35,260.92a11.15,11.15,0,0,1-.2-1.11,7.46,7.46,0,0,1-.06-.95,5.38,5.38,0,0,1-1.85,1.65,5.22,5.22,0,0,1-2.61.66,4,4,0,0,1-2.86-1,3.43,3.43,0,0,1-1-2.6,3.22,3.22,0,0,1,1.49-2.79,7,7,0,0,1,4.06-1h2.77v-1.68a2.71,2.71,0,0,0-.86-2.13,3.49,3.49,0,0,0-2.42-.78,6.07,6.07,0,0,0-1.91.29,4.31,4.31,0,0,0-1.44.78l-.12,1.7h-1.15l0-2.44a7.2,7.2,0,0,1,2.08-1.1,7.84,7.84,0,0,1,2.58-.42,5,5,0,0,1,3.34,1.07,3.78,3.78,0,0,1,1.26,3v6.24c0,.26,0,.5,0,.74s0,.47.07.7l1.26.08v1Zm.5-17.56a2.45,2.45,0,0,1-.64,1.71,2.12,2.12,0,0,1-1.59.68,3,3,0,0,1-1.75-.65,2.78,2.78,0,0,0-1.52-.64,1.2,1.2,0,0,0-.92.41,1.47,1.47,0,0,0-.37,1l-.92-.21a2.39,2.39,0,0,1,.63-1.69,2,2,0,0,1,1.58-.69,3.19,3.19,0,0,1,1.71.65,3.06,3.06,0,0,0,1.56.64,1.22,1.22,0,0,0,.92-.42,1.56,1.56,0,0,0,.38-1.07Zm-5.07,16.57a5,5,0,0,0,2.65-.71,4.06,4.06,0,0,0,1.66-1.81v-2.55H500.3a5.15,5.15,0,0,0-3,.8,2.34,2.34,0,0,0-1.14,2,2.11,2.11,0,0,0,.71,1.65A2.77,2.77,0,0,0,498.78,259.93Z"/><path class="cls-9" d="M507.79,254.4a6.84,6.84,0,0,1,1.52-4.6,5.43,5.43,0,0,1,8.06,0,6.9,6.9,0,0,1,1.52,4.6v.38a6.86,6.86,0,0,1-1.52,4.6,5.43,5.43,0,0,1-8.06,0,6.81,6.81,0,0,1-1.52-4.6Zm1.39.38a6.13,6.13,0,0,0,1.1,3.71,3.6,3.6,0,0,0,3.07,1.5,3.55,3.55,0,0,0,3-1.5,6.07,6.07,0,0,0,1.11-3.71v-.38a6,6,0,0,0-1.11-3.68,3.83,3.83,0,0,0-6.11,0,6.08,6.08,0,0,0-1.1,3.68Z"/><path class="cls-9" d="M532.28,260a4,4,0,0,0,2.44-.8,2.63,2.63,0,0,0,1-2.22H537l0,.07a3.5,3.5,0,0,1-1.38,2.95,5.12,5.12,0,0,1-3.36,1.18,4.72,4.72,0,0,1-3.95-1.78,7.09,7.09,0,0,1-1.41-4.56v-.49a7.1,7.1,0,0,1,1.41-4.55,4.72,4.72,0,0,1,3.94-1.78,6.3,6.3,0,0,1,2.66.55,5.37,5.37,0,0,1,2,1.5l.05,2.77h-1.18l-.22-2.25a3.87,3.87,0,0,0-1.39-1,4.67,4.67,0,0,0-1.88-.37,3.36,3.36,0,0,0-3,1.46,6.58,6.58,0,0,0-1,3.68v.49a6.58,6.58,0,0,0,1,3.7A3.34,3.34,0,0,0,532.28,260Z"/><path class="cls-9" d="M539.61,254.4a6.9,6.9,0,0,1,1.52-4.6,5.43,5.43,0,0,1,8.06,0,6.9,6.9,0,0,1,1.52,4.6v.38a6.85,6.85,0,0,1-1.51,4.6,5.44,5.44,0,0,1-8.07,0,6.86,6.86,0,0,1-1.52-4.6Zm1.39.38a6.13,6.13,0,0,0,1.1,3.71,3.87,3.87,0,0,0,6.12,0,6.13,6.13,0,0,0,1.1-3.71v-.38a6,6,0,0,0-1.11-3.68,3.83,3.83,0,0,0-6.11,0,6.08,6.08,0,0,0-1.1,3.68Z"/><path class="cls-9" d="M552.72,259.89l1.89-.15v-10.3l-1.89-.15v-1h3.12l.12,2.22A4.33,4.33,0,0,1,560,248a3.85,3.85,0,0,1,3.11,1.26,6,6,0,0,1,1.07,3.93v6.54l1.89.15v1h-5.17v-1l1.89-.15v-6.53a4.6,4.6,0,0,0-.81-3.08,2.92,2.92,0,0,0-2.29-.9,3.54,3.54,0,0,0-2.38.78,4.31,4.31,0,0,0-1.33,2.07v7.66l1.89.15v1h-5.17Z"/><path class="cls-9" d="M577.37,252.16h-1.14l-.16-1.8a3.46,3.46,0,0,0-1.31-.85,5.16,5.16,0,0,0-1.83-.31,3.41,3.41,0,0,0-2.28.67,2,2,0,0,0-.76,1.55,1.83,1.83,0,0,0,.66,1.45,6.16,6.16,0,0,0,2.61,1,8.58,8.58,0,0,1,3.35,1.38,2.83,2.83,0,0,1,1.12,2.37,3.09,3.09,0,0,1-1.27,2.56,5.39,5.39,0,0,1-3.36,1,7.76,7.76,0,0,1-2.53-.39,5.88,5.88,0,0,1-2-1.11v-2.56h1.12l.2,1.81a3.18,3.18,0,0,0,1.41.81A6.18,6.18,0,0,0,573,260a3.87,3.87,0,0,0,2.38-.67,2,2,0,0,0,.87-1.62,2.06,2.06,0,0,0-.73-1.56,5.86,5.86,0,0,0-2.61-1.09,8.89,8.89,0,0,1-3.33-1.3,2.71,2.71,0,0,1-1.08-2.28,3.09,3.09,0,0,1,1.22-2.46,4.87,4.87,0,0,1,3.21-1,7,7,0,0,1,2.52.43,5.07,5.07,0,0,1,1.86,1.15Z"/><path class="cls-9" d="M585.69,261.17a5,5,0,0,1-3.92-1.75,6.47,6.47,0,0,1-1.56-4.46v-.65a6.68,6.68,0,0,1,1.55-4.51A4.79,4.79,0,0,1,585.5,248a4.6,4.6,0,0,1,3.63,1.48,5.66,5.66,0,0,1,1.32,3.93v1.2h-8.86V255a5.67,5.67,0,0,0,1.13,3.58,3.61,3.61,0,0,0,3,1.45,6,6,0,0,0,2.2-.37,4.45,4.45,0,0,0,1.57-1l.59,1a5,5,0,0,1-1.79,1.19A6.87,6.87,0,0,1,585.69,261.17Zm-.19-12a3.32,3.32,0,0,0-2.58,1.19,5.11,5.11,0,0,0-1.22,3l0,.06h7.35v-.36a4.07,4.07,0,0,0-1-2.76A3.28,3.28,0,0,0,585.5,249.2Z"/><path class="cls-9" d="M593,254.69a8.35,8.35,0,0,1,1.28-4.86,4.13,4.13,0,0,1,3.56-1.82,4.41,4.41,0,0,1,2.31.59,4.64,4.64,0,0,1,1.62,1.67l.16-2h1.17v12.52a5.47,5.47,0,0,1-1.31,3.87,4.73,4.73,0,0,1-3.65,1.41,9,9,0,0,1-1.93-.22,7.51,7.51,0,0,1-1.79-.61l.37-1.18a7.8,7.8,0,0,0,1.58.56,7.63,7.63,0,0,0,1.75.2,3.31,3.31,0,0,0,2.69-1.07,4.44,4.44,0,0,0,.9-3v-1.61a4.36,4.36,0,0,1-1.61,1.5,4.74,4.74,0,0,1-2.28.52,4.18,4.18,0,0,1-3.54-1.7,7.36,7.36,0,0,1-1.28-4.53Zm1.39.25a6.39,6.39,0,0,0,.93,3.65,3.09,3.09,0,0,0,2.75,1.36,3.7,3.7,0,0,0,3.64-2.33v-5.88a4.39,4.39,0,0,0-1.33-1.81,3.52,3.52,0,0,0-2.29-.7,3,3,0,0,0-2.76,1.52,7.48,7.48,0,0,0-.94,3.94Z"/><path class="cls-9" d="M615.47,258.84a4.41,4.41,0,0,1-1.62,1.72,4.6,4.6,0,0,1-2.42.61,3.79,3.79,0,0,1-3.1-1.36,6.55,6.55,0,0,1-1.12-4.22v-6.15l-1.55-.15v-1h2.93v7.37a5.51,5.51,0,0,0,.78,3.33,2.67,2.67,0,0,0,2.22,1,4.1,4.1,0,0,0,2.52-.7,3.71,3.71,0,0,0,1.31-1.95v-7.86l-1.78-.15v-1h3.17v11.5l1.68.15v1H615.6Z"/><path class="cls-9" d="M620.44,259.89l1.89-.15v-10.3l-1.89-.15v-1h3.27v11.5l1.89.15v1h-5.16Zm3.27-15.28h-1.38v-2h1.38Z"/><path class="cls-9" d="M630.94,248.24l.17,2.11v.16a4.44,4.44,0,0,1,1.46-1.84,3.64,3.64,0,0,1,2.19-.66,2.92,2.92,0,0,1,.51,0l.41.09-.18,1.31-1-.07a3.16,3.16,0,0,0-2.16.74,4.14,4.14,0,0,0-1.2,2v7.57l1.89.15v1h-5.16v-1l1.89-.15v-10.3l-1.89-.15v-1h3.1Z"/><path class="cls-9" d="M648.61,260a4,4,0,0,0,2.44-.8A2.63,2.63,0,0,0,652.1,257h1.23l0,.07A3.54,3.54,0,0,1,652,260a5.12,5.12,0,0,1-3.36,1.18,4.72,4.72,0,0,1-4-1.78,7.09,7.09,0,0,1-1.4-4.56v-.49a7.1,7.1,0,0,1,1.4-4.55A4.72,4.72,0,0,1,648.6,248a6.3,6.3,0,0,1,2.66.55,5.37,5.37,0,0,1,2,1.5l0,2.77h-1.18l-.22-2.25a3.92,3.92,0,0,0-1.38-1,4.72,4.72,0,0,0-1.89-.37,3.33,3.33,0,0,0-3,1.46,6.5,6.5,0,0,0-1,3.68v.49a6.58,6.58,0,0,0,1,3.7A3.34,3.34,0,0,0,648.61,260Z"/><path class="cls-9" d="M655.54,243.69v-1.05h3.27v7.77a4.47,4.47,0,0,1,4.1-2.4,3.79,3.79,0,0,1,3.05,1.24,5.89,5.89,0,0,1,1.06,3.86v6.63l1.89.15v1h-5.17v-1l1.89-.15v-6.66a4.38,4.38,0,0,0-.81-3,2.86,2.86,0,0,0-2.22-.89,3.72,3.72,0,0,0-2.38.75,4.43,4.43,0,0,0-1.41,2v7.75l1.89.15v1h-5.16v-1l1.89-.15v-15.9Z"/><path class="cls-9" d="M676.41,261.17a5,5,0,0,1-3.92-1.75,6.51,6.51,0,0,1-1.55-4.46v-.65a6.63,6.63,0,0,1,1.55-4.51,4.77,4.77,0,0,1,3.74-1.79,4.63,4.63,0,0,1,3.63,1.48,5.66,5.66,0,0,1,1.32,3.93v1.2h-8.86V255a5.61,5.61,0,0,0,1.13,3.58,3.59,3.59,0,0,0,3,1.45,6,6,0,0,0,2.2-.37,4.27,4.27,0,0,0,1.57-1l.59,1a5,5,0,0,1-1.78,1.19A6.89,6.89,0,0,1,676.41,261.17Zm-.18-12a3.34,3.34,0,0,0-2.59,1.19,5.24,5.24,0,0,0-1.22,3l0,.06h7.36v-.36a4,4,0,0,0-1-2.76A3.27,3.27,0,0,0,676.23,249.2Z"/><path class="cls-9" d="M683.72,254.69a8.27,8.27,0,0,1,1.28-4.86,4.11,4.11,0,0,1,3.55-1.82,4.47,4.47,0,0,1,2.32.59,4.7,4.7,0,0,1,1.61,1.67l.17-2h1.17v12.52a5.51,5.51,0,0,1-1.31,3.87,4.75,4.75,0,0,1-3.66,1.41,9.07,9.07,0,0,1-1.93-.22,7.51,7.51,0,0,1-1.79-.61l.37-1.18a7.89,7.89,0,0,0,1.59.56,7.54,7.54,0,0,0,1.74.2,3.3,3.3,0,0,0,2.69-1.07,4.39,4.39,0,0,0,.91-3v-1.61a4.46,4.46,0,0,1-1.62,1.5,4.71,4.71,0,0,1-2.28.52,4.18,4.18,0,0,1-3.54-1.7,7.36,7.36,0,0,1-1.27-4.53Zm1.39.25a6.47,6.47,0,0,0,.92,3.65,3.11,3.11,0,0,0,2.76,1.36,3.9,3.9,0,0,0,2.25-.62,4,4,0,0,0,1.39-1.71v-5.88a4.41,4.41,0,0,0-1.34-1.81,3.51,3.51,0,0,0-2.28-.7,3.07,3.07,0,0,0-2.77,1.52,7.49,7.49,0,0,0-.93,3.94Z"/><path class="cls-9" d="M705.64,260.92a11.15,11.15,0,0,1-.2-1.11,7.46,7.46,0,0,1-.06-.95,5.38,5.38,0,0,1-1.85,1.65,5.22,5.22,0,0,1-2.61.66,4,4,0,0,1-2.86-1,3.43,3.43,0,0,1-1-2.6,3.23,3.23,0,0,1,1.5-2.79,7,7,0,0,1,4.06-1h2.77v-1.68a2.71,2.71,0,0,0-.86-2.13,3.49,3.49,0,0,0-2.42-.78,6.07,6.07,0,0,0-1.91.29,4.13,4.13,0,0,0-1.44.78l-.12,1.7h-1.15v-2.44a7.26,7.26,0,0,1,2.09-1.1,7.76,7.76,0,0,1,2.58-.42,5,5,0,0,1,3.34,1.07,3.78,3.78,0,0,1,1.26,3v6.24c0,.26,0,.5,0,.74a5.35,5.35,0,0,0,.07.7l1.26.08v1Zm-4.57-1a5,5,0,0,0,2.65-.71,4.06,4.06,0,0,0,1.66-1.81v-2.55h-2.79a5.2,5.2,0,0,0-3,.8,2.35,2.35,0,0,0-1.13,2,2.11,2.11,0,0,0,.71,1.65A2.77,2.77,0,0,0,701.07,259.93Z"/><path class="cls-9" d="M713.08,248.24l.18,2.11v.16a4.42,4.42,0,0,1,1.45-1.84,3.66,3.66,0,0,1,2.19-.66,2.85,2.85,0,0,1,.51,0l.41.09-.18,1.31-1-.07a3.14,3.14,0,0,0-2.15.74,4,4,0,0,0-1.2,2v7.57l1.88.15v1H710v-1l1.9-.15v-10.3l-1.9-.15v-1h3.1Z"/><path class="cls-9" d="M734.12,259.1a4.44,4.44,0,0,1-1.61,1.53,4.76,4.76,0,0,1-2.32.54,4.15,4.15,0,0,1-3.52-1.7,7.36,7.36,0,0,1-1.27-4.53v-.25a8.35,8.35,0,0,1,1.27-4.86,4.07,4.07,0,0,1,3.54-1.82,4.47,4.47,0,0,1,2.27.56,4.56,4.56,0,0,1,1.6,1.58v-6.31l-1.89-.15v-1.05h3.29v17.1l1.88.15v1h-3.13Zm-7.32-4.16a6.43,6.43,0,0,0,.91,3.65,3.07,3.07,0,0,0,2.74,1.36,3.89,3.89,0,0,0,2.24-.61,4,4,0,0,0,1.39-1.67v-6a4.29,4.29,0,0,0-1.34-1.76,3.54,3.54,0,0,0-2.26-.68,3,3,0,0,0-2.76,1.52,7.53,7.53,0,0,0-.92,3.94Z"/><path class="cls-9" d="M745,261.17a5,5,0,0,1-3.92-1.75,6.51,6.51,0,0,1-1.55-4.46v-.65a6.63,6.63,0,0,1,1.55-4.51,4.77,4.77,0,0,1,3.74-1.79,4.63,4.63,0,0,1,3.63,1.48,5.66,5.66,0,0,1,1.32,3.93v1.2h-8.86V255a5.61,5.61,0,0,0,1.13,3.58,3.59,3.59,0,0,0,3,1.45,6,6,0,0,0,2.2-.37,4.27,4.27,0,0,0,1.57-1l.59,1a5,5,0,0,1-1.78,1.19A6.89,6.89,0,0,1,745,261.17Zm-.18-12a3.31,3.31,0,0,0-2.58,1.19,5.18,5.18,0,0,0-1.23,3l0,.06h7.36v-.36a4,4,0,0,0-1-2.76A3.27,3.27,0,0,0,744.85,249.2Z"/><path class="cls-9" d="M755.77,249.29l-1.56.11,3.13,8.35.4,1.49h.07l.44-1.49,3.09-8.35-1.57-.11v-1H764v1l-1.23.1-4.43,11.53h-1.11l-4.44-11.53-1.23-.1v-1h4.22Z"/><path class="cls-9" d="M765.43,259.89l1.89-.15v-10.3l-1.89-.15v-1h3.27v11.5l1.89.15v1h-5.16Zm3.27-15.28h-1.38v-2h1.38Z"/><path class="cls-9" d="M781.64,259.1a4.29,4.29,0,0,1-1.61,1.53,4.74,4.74,0,0,1-2.32.54,4.16,4.16,0,0,1-3.52-1.7,7.42,7.42,0,0,1-1.27-4.53v-.25a8.42,8.42,0,0,1,1.27-4.86,4.1,4.1,0,0,1,3.55-1.82,4.47,4.47,0,0,1,2.27.56,4.65,4.65,0,0,1,1.6,1.58v-6.31l-1.89-.15v-1.05H783v17.1l1.89.15v1h-3.13Zm-7.31-4.16a6.43,6.43,0,0,0,.91,3.65A3.06,3.06,0,0,0,778,260a3.85,3.85,0,0,0,2.23-.61,4,4,0,0,0,1.4-1.67v-6a4.38,4.38,0,0,0-1.34-1.76,3.55,3.55,0,0,0-2.27-.68,3,3,0,0,0-2.75,1.52,7.44,7.44,0,0,0-.92,3.94Z"/><path class="cls-9" d="M787,254.4a6.84,6.84,0,0,1,1.52-4.6,5.42,5.42,0,0,1,8.05,0,6.84,6.84,0,0,1,1.52,4.6v.38a6.85,6.85,0,0,1-1.51,4.6,5.43,5.43,0,0,1-8.06,0,6.81,6.81,0,0,1-1.52-4.6Zm1.39.38a6.07,6.07,0,0,0,1.1,3.71,3.86,3.86,0,0,0,6.11,0,6.07,6.07,0,0,0,1.1-3.71v-.38a6.08,6.08,0,0,0-1.1-3.68,3.83,3.83,0,0,0-6.11,0,6,6,0,0,0-1.1,3.68Z"/><path class="cls-9" d="M417.9,289.72c-.09-.43-.16-.8-.2-1.11a7.46,7.46,0,0,1-.05-.95,5.62,5.62,0,0,1-1.86,1.65,5.17,5.17,0,0,1-2.61.66,4,4,0,0,1-2.85-1,3.4,3.4,0,0,1-1-2.6,3.24,3.24,0,0,1,1.49-2.79,7.06,7.06,0,0,1,4.06-1h2.78v-1.68a2.69,2.69,0,0,0-.87-2.13,3.47,3.47,0,0,0-2.42-.78,6,6,0,0,0-1.9.29,4.27,4.27,0,0,0-1.45.78l-.11,1.7h-1.15v-2.44a7.2,7.2,0,0,1,2.08-1.1,7.84,7.84,0,0,1,2.58-.42,5,5,0,0,1,3.34,1.07,3.78,3.78,0,0,1,1.27,3.05v6.24c0,.26,0,.5,0,.74a5.35,5.35,0,0,0,.08.7l1.25.08v1Zm-4.57-1A5,5,0,0,0,416,288a4.12,4.12,0,0,0,1.66-1.81v-2.55h-2.8a5.15,5.15,0,0,0-3,.8,2.35,2.35,0,0,0-1.13,2,2.1,2.1,0,0,0,.7,1.65A2.79,2.79,0,0,0,413.33,288.73Zm1.88-13.58h-1.36l-2.79-3.06,0-.06h1.79Z"/><path class="cls-9" d="M436.84,287.9a4.44,4.44,0,0,1-1.61,1.53,4.76,4.76,0,0,1-2.32.54,4.15,4.15,0,0,1-3.52-1.7,7.36,7.36,0,0,1-1.27-4.53v-.25a8.35,8.35,0,0,1,1.27-4.86,4.07,4.07,0,0,1,3.54-1.82,4.37,4.37,0,0,1,2.27.56,4.48,4.48,0,0,1,1.6,1.58v-6.31l-1.89-.15v-1.05h3.29v17.1l1.89.15v1H437Zm-7.32-4.16a6.43,6.43,0,0,0,.91,3.65,3.07,3.07,0,0,0,2.74,1.36,3.89,3.89,0,0,0,2.24-.61,4,4,0,0,0,1.39-1.67v-6a4.29,4.29,0,0,0-1.34-1.76,3.54,3.54,0,0,0-2.26-.68,3,3,0,0,0-2.76,1.52,7.53,7.53,0,0,0-.92,3.94Z"/><path class="cls-9" d="M447.75,290a5,5,0,0,1-3.92-1.75,6.51,6.51,0,0,1-1.55-4.46v-.65a6.63,6.63,0,0,1,1.55-4.51,4.77,4.77,0,0,1,3.74-1.79,4.63,4.63,0,0,1,3.63,1.48,5.66,5.66,0,0,1,1.32,3.93v1.2h-8.86v.34a5.61,5.61,0,0,0,1.13,3.58,3.59,3.59,0,0,0,3,1.45,6.08,6.08,0,0,0,2.21-.37,4.32,4.32,0,0,0,1.56-1l.59,1a4.93,4.93,0,0,1-1.78,1.19A6.89,6.89,0,0,1,447.75,290Zm-.18-12a3.32,3.32,0,0,0-2.58,1.19,5.18,5.18,0,0,0-1.23,3l0,.06h7.35v-.36a4.07,4.07,0,0,0-1-2.76A3.31,3.31,0,0,0,447.57,278Z"/><path class="cls-9" d="M464.1,281H463l-.16-1.8a3.58,3.58,0,0,0-1.32-.85,5.16,5.16,0,0,0-1.83-.31,3.41,3.41,0,0,0-2.28.67,2,2,0,0,0-.76,1.55,1.83,1.83,0,0,0,.66,1.45,6.28,6.28,0,0,0,2.61,1,8.64,8.64,0,0,1,3.36,1.38,2.85,2.85,0,0,1,1.11,2.37,3.06,3.06,0,0,1-1.27,2.56,5.39,5.39,0,0,1-3.36,1,7.76,7.76,0,0,1-2.53-.39,6,6,0,0,1-2-1.11v-2.56h1.13l.19,1.81a3.18,3.18,0,0,0,1.41.81,6.18,6.18,0,0,0,1.78.26,3.85,3.85,0,0,0,2.38-.67,2,2,0,0,0,.87-1.62,2.06,2.06,0,0,0-.73-1.56,5.86,5.86,0,0,0-2.61-1.09,8.83,8.83,0,0,1-3.32-1.3,2.69,2.69,0,0,1-1.09-2.28,3.09,3.09,0,0,1,1.22-2.46,4.87,4.87,0,0,1,3.21-1,7,7,0,0,1,2.52.43,5,5,0,0,1,1.87,1.15Z"/><path class="cls-9" d="M466.79,288.69l1.89-.15v-10.3l-1.89-.15v-1h3.27v11.5l1.89.15v1h-5.16Zm3.27-15.28h-1.38v-2h1.38Z"/><path class="cls-9" d="M483,287.9a4.44,4.44,0,0,1-1.61,1.53,4.76,4.76,0,0,1-2.32.54,4.15,4.15,0,0,1-3.52-1.7,7.36,7.36,0,0,1-1.27-4.53v-.25a8.35,8.35,0,0,1,1.27-4.86,4.07,4.07,0,0,1,3.54-1.82,4.37,4.37,0,0,1,2.27.56A4.56,4.56,0,0,1,483,279v-6.31l-1.89-.15v-1.05h3.28v17.1l1.89.15v1h-3.13Zm-7.32-4.16a6.43,6.43,0,0,0,.91,3.65,3.07,3.07,0,0,0,2.74,1.36,3.89,3.89,0,0,0,2.24-.61,4,4,0,0,0,1.39-1.67v-6a4.29,4.29,0,0,0-1.34-1.76,3.54,3.54,0,0,0-2.26-.68,3,3,0,0,0-2.76,1.52,7.53,7.53,0,0,0-.92,3.94Z"/><path class="cls-9" d="M491.39,277l.18,2.11v.16a4.42,4.42,0,0,1,1.45-1.84,3.69,3.69,0,0,1,2.19-.66,2.78,2.78,0,0,1,.51,0l.42.09-.19,1.31-1-.07a3.14,3.14,0,0,0-2.15.74,4.14,4.14,0,0,0-1.2,2.05v7.57l1.89.15v1H488.3v-1l1.89-.15v-10.3l-1.89-.15v-1h3.09Z"/><path class="cls-9" d="M506.6,289.72a11.15,11.15,0,0,1-.2-1.11,7.46,7.46,0,0,1-.06-.95,5.49,5.49,0,0,1-1.85,1.65,5.22,5.22,0,0,1-2.61.66,4,4,0,0,1-2.86-1,3.43,3.43,0,0,1-1-2.6,3.23,3.23,0,0,1,1.5-2.79,7,7,0,0,1,4.06-1h2.77v-1.68a2.71,2.71,0,0,0-.86-2.13,3.49,3.49,0,0,0-2.42-.78,6.07,6.07,0,0,0-1.91.29,4.13,4.13,0,0,0-1.44.78l-.12,1.7h-1.15v-2.44a7.26,7.26,0,0,1,2.09-1.1,7.76,7.76,0,0,1,2.58-.42,5,5,0,0,1,3.34,1.07,3.78,3.78,0,0,1,1.26,3.05v6.24c0,.26,0,.5,0,.74a5.35,5.35,0,0,0,.07.7l1.26.08v1Zm-4.57-1a5,5,0,0,0,2.65-.71,4.06,4.06,0,0,0,1.66-1.81v-2.55h-2.79a5.2,5.2,0,0,0-3,.8,2.35,2.35,0,0,0-1.13,2,2.11,2.11,0,0,0,.71,1.65A2.77,2.77,0,0,0,502,288.73Z"/><path class="cls-9" d="M514.23,273.8V277H517v1.15h-2.76v8.26a2.8,2.8,0,0,0,.44,1.77,1.49,1.49,0,0,0,1.19.52c.23,0,.44,0,.66,0s.46,0,.73-.1l.21,1a3.85,3.85,0,0,1-.84.24,6.85,6.85,0,0,1-1,.08,2.6,2.6,0,0,1-2.06-.84,4,4,0,0,1-.74-2.68v-8.26h-2.15V277h2.15V273.8Z"/><path class="cls-9" d="M528.2,289.72c-.09-.43-.16-.8-.2-1.11s0-.63,0-.95a5.62,5.62,0,0,1-1.86,1.65,5.17,5.17,0,0,1-2.61.66,4,4,0,0,1-2.85-1,3.43,3.43,0,0,1-1-2.6,3.23,3.23,0,0,1,1.5-2.79,7,7,0,0,1,4-1H528v-1.68a2.69,2.69,0,0,0-.87-2.13,3.47,3.47,0,0,0-2.42-.78,6,6,0,0,0-1.9.29,4.27,4.27,0,0,0-1.45.78l-.11,1.7h-1.15v-2.44a7.2,7.2,0,0,1,2.08-1.1,7.84,7.84,0,0,1,2.58-.42,5,5,0,0,1,3.34,1.07,3.78,3.78,0,0,1,1.27,3.05v6.24c0,.26,0,.5,0,.74a5.35,5.35,0,0,0,.08.7l1.25.08v1Zm-4.57-1a5,5,0,0,0,2.66-.71,4.12,4.12,0,0,0,1.66-1.81v-2.55h-2.8a5.15,5.15,0,0,0-3,.8,2.35,2.35,0,0,0-1.13,2,2.1,2.1,0,0,0,.7,1.65A2.79,2.79,0,0,0,523.63,288.73Z"/><path class="cls-9" d="M538,288.79a4,4,0,0,0,2.44-.8,2.63,2.63,0,0,0,1-2.22h1.23l0,.07a3.5,3.5,0,0,1-1.38,3A5.18,5.18,0,0,1,538,290a4.72,4.72,0,0,1-4-1.78,7.09,7.09,0,0,1-1.41-4.56v-.49a7.1,7.1,0,0,1,1.41-4.55,4.72,4.72,0,0,1,3.94-1.78,6.22,6.22,0,0,1,2.65.55,5.21,5.21,0,0,1,2,1.5l.06,2.77h-1.18l-.22-2.25a3.87,3.87,0,0,0-1.39-1A4.67,4.67,0,0,0,538,278a3.35,3.35,0,0,0-3,1.46,6.58,6.58,0,0,0-1,3.68v.49a6.51,6.51,0,0,0,1,3.7A3.34,3.34,0,0,0,538,288.79Zm.36,1-.13.75a2.75,2.75,0,0,1,1.48.57,1.72,1.72,0,0,1,.56,1.43,2,2,0,0,1-.91,1.71,4.61,4.61,0,0,1-2.62.64l-.08-.92a4,4,0,0,0,1.74-.35,1.12,1.12,0,0,0,.71-1.05,1,1,0,0,0-.47-.94,4.63,4.63,0,0,0-1.68-.35l.32-1.49Z"/><path class="cls-9" d="M554,289.72c-.09-.43-.15-.8-.19-1.11a7.46,7.46,0,0,1-.06-.95,5.52,5.52,0,0,1-1.86,1.65,5.17,5.17,0,0,1-2.61.66,4,4,0,0,1-2.85-1,3.43,3.43,0,0,1-1-2.6,3.23,3.23,0,0,1,1.5-2.79,7,7,0,0,1,4.06-1h2.77v-1.68a2.69,2.69,0,0,0-.87-2.13,3.46,3.46,0,0,0-2.41-.78,6,6,0,0,0-1.91.29,4.27,4.27,0,0,0-1.45.78l-.11,1.7h-1.15v-2.44a7.33,7.33,0,0,1,2.08-1.1,7.84,7.84,0,0,1,2.58-.42,5,5,0,0,1,3.34,1.07,3.75,3.75,0,0,1,1.27,3.05v6.24c0,.26,0,.5,0,.74a5.35,5.35,0,0,0,.07.7l1.25.08v1Zm.5-17.56a2.4,2.4,0,0,1-.64,1.71,2.08,2.08,0,0,1-1.58.68,3,3,0,0,1-1.76-.65,2.75,2.75,0,0,0-1.51-.64,1.2,1.2,0,0,0-.92.41,1.47,1.47,0,0,0-.37,1l-.92-.21a2.43,2.43,0,0,1,.62-1.69,2,2,0,0,1,1.59-.69,3.19,3.19,0,0,1,1.71.65,3,3,0,0,0,1.56.64,1.19,1.19,0,0,0,.91-.42,1.51,1.51,0,0,0,.38-1.07Zm-5.07,16.57a5,5,0,0,0,2.66-.71,4.06,4.06,0,0,0,1.66-1.81v-2.55h-2.8a5.17,5.17,0,0,0-3,.8,2.35,2.35,0,0,0-1.13,2,2.14,2.14,0,0,0,.7,1.65A2.79,2.79,0,0,0,549.42,288.73Z"/><path class="cls-9" d="M558.43,283.2a6.9,6.9,0,0,1,1.52-4.6,5.43,5.43,0,0,1,8.06,0,6.84,6.84,0,0,1,1.52,4.6v.38a6.85,6.85,0,0,1-1.51,4.6,5,5,0,0,1-4,1.79,5.07,5.07,0,0,1-4-1.79,6.86,6.86,0,0,1-1.52-4.6Zm1.4.38a6.07,6.07,0,0,0,1.1,3.71,3.86,3.86,0,0,0,6.11,0,6.13,6.13,0,0,0,1.1-3.71v-.38a6,6,0,0,0-1.11-3.68,3.82,3.82,0,0,0-6.1,0,6,6,0,0,0-1.1,3.68Z"/><path class="cls-9" d="M573.94,289.72h-1.59V287.8h1.59Z"/><path class="cls-9" d="M599.45,274.72l-.06,0-6.28,15h-1l-6.26-15h-.07l.12,7.41v6.35l1.89.15v1h-5.16v-1l1.89-.15V273.86l-1.89-.16v-1h3.71l6.21,15h.07l6.23-15h3.72v1l-1.89.16v14.68l1.89.15v1h-5.16v-1l1.89-.15v-6.35Z"/><path class="cls-9" d="M613.22,289.72c-.09-.43-.16-.8-.2-1.11a7.46,7.46,0,0,1,0-.95,5.62,5.62,0,0,1-1.86,1.65,5.17,5.17,0,0,1-2.61.66,4,4,0,0,1-2.85-1,3.4,3.4,0,0,1-1-2.6,3.24,3.24,0,0,1,1.49-2.79,7,7,0,0,1,4.06-1H613v-1.68a2.69,2.69,0,0,0-.87-2.13,3.49,3.49,0,0,0-2.42-.78,6.12,6.12,0,0,0-1.91.29,4.31,4.31,0,0,0-1.44.78l-.11,1.7h-1.15v-2.44a7.2,7.2,0,0,1,2.08-1.1,7.84,7.84,0,0,1,2.58-.42,5,5,0,0,1,3.34,1.07,3.78,3.78,0,0,1,1.27,3.05v6.24c0,.26,0,.5,0,.74a5.35,5.35,0,0,0,.08.7l1.25.08v1Zm-4.57-1a5,5,0,0,0,2.66-.71,4.18,4.18,0,0,0,1.66-1.81v-2.55h-2.8a5.15,5.15,0,0,0-3,.8,2.33,2.33,0,0,0-1.13,2,2.1,2.1,0,0,0,.7,1.65A2.79,2.79,0,0,0,608.65,288.73Z"/><path class="cls-9" d="M626.77,281h-1.14l-.16-1.8a3.58,3.58,0,0,0-1.32-.85,5.16,5.16,0,0,0-1.83-.31,3.41,3.41,0,0,0-2.28.67,2,2,0,0,0-.76,1.55,1.83,1.83,0,0,0,.66,1.45,6.27,6.27,0,0,0,2.62,1,8.65,8.65,0,0,1,3.35,1.38,2.85,2.85,0,0,1,1.11,2.37,3.06,3.06,0,0,1-1.27,2.56,5.39,5.39,0,0,1-3.36,1,7.81,7.81,0,0,1-2.53-.39,6,6,0,0,1-2-1.11v-2.56H619l.19,1.81a3.18,3.18,0,0,0,1.41.81,6.18,6.18,0,0,0,1.78.26,3.85,3.85,0,0,0,2.38-.67,2,2,0,0,0,.87-1.62,2.08,2.08,0,0,0-.72-1.56,6,6,0,0,0-2.62-1.09,8.83,8.83,0,0,1-3.32-1.3,2.69,2.69,0,0,1-1.09-2.28,3.09,3.09,0,0,1,1.22-2.46,4.87,4.87,0,0,1,3.21-1,7.11,7.11,0,0,1,2.53.43,5.07,5.07,0,0,1,1.86,1.15Z"/><path class="cls-9" d="M635.32,283.2a6.9,6.9,0,0,1,1.52-4.6,5.43,5.43,0,0,1,8.06,0,6.84,6.84,0,0,1,1.52,4.6v.38a6.85,6.85,0,0,1-1.51,4.6,5.44,5.44,0,0,1-8.07,0,6.86,6.86,0,0,1-1.52-4.6Zm1.4.38a6.07,6.07,0,0,0,1.1,3.71,3.86,3.86,0,0,0,6.11,0,6.13,6.13,0,0,0,1.1-3.71v-.38a6,6,0,0,0-1.11-3.68,3.82,3.82,0,0,0-6.1,0,6,6,0,0,0-1.1,3.68Z"/><path class="cls-9" d="M648.43,288.69l1.89-.15v-10.3l-1.89-.15v-1h3.12l.13,2.22a4.32,4.32,0,0,1,4.05-2.45,3.83,3.83,0,0,1,3.11,1.26,6,6,0,0,1,1.07,3.93v6.54l1.89.15v1h-5.17v-1l1.89-.15V282a4.6,4.6,0,0,0-.81-3.08,2.9,2.9,0,0,0-2.29-.9,3.55,3.55,0,0,0-2.38.78,4.31,4.31,0,0,0-1.33,2.07v7.66l1.89.15v1h-5.17Z"/><path class="cls-9" d="M672.59,287.9a4.39,4.39,0,0,1-1.62,1.53,4.74,4.74,0,0,1-2.32.54,4.16,4.16,0,0,1-3.52-1.7,7.42,7.42,0,0,1-1.27-4.53v-.25a8.42,8.42,0,0,1,1.27-4.86,4.1,4.1,0,0,1,3.55-1.82,4.37,4.37,0,0,1,2.27.56,4.56,4.56,0,0,1,1.6,1.58v-6.31l-1.89-.15v-1.05h3.28v17.1l1.89.15v1H672.7Zm-7.32-4.16a6.43,6.43,0,0,0,.91,3.65,3.06,3.06,0,0,0,2.74,1.36,3.85,3.85,0,0,0,2.23-.61,4,4,0,0,0,1.4-1.67v-6a4.29,4.29,0,0,0-1.34-1.76,3.55,3.55,0,0,0-2.27-.68,3,3,0,0,0-2.75,1.52,7.53,7.53,0,0,0-.92,3.94Z"/><path class="cls-9" d="M683.5,290a5,5,0,0,1-3.92-1.75,6.47,6.47,0,0,1-1.56-4.46v-.65a6.68,6.68,0,0,1,1.55-4.51,4.8,4.8,0,0,1,3.74-1.79,4.6,4.6,0,0,1,3.63,1.48,5.67,5.67,0,0,1,1.33,3.93v1.2H679.4v.34a5.62,5.62,0,0,0,1.14,3.58,3.59,3.59,0,0,0,3,1.45,6,6,0,0,0,2.2-.37,4.36,4.36,0,0,0,1.57-1l.59,1a5,5,0,0,1-1.79,1.19A6.84,6.84,0,0,1,683.5,290Zm-.19-12a3.32,3.32,0,0,0-2.58,1.19,5.17,5.17,0,0,0-1.22,3l0,.06h7.36v-.36a4.08,4.08,0,0,0-1-2.76A3.28,3.28,0,0,0,683.31,278Z"/><path class="cls-9" d="M700.16,278.09l-1.56.11,3.13,8.35.41,1.49h.07l.44-1.49,3.08-8.35-1.56-.11v-1h4.22v1l-1.23.1-4.43,11.53h-1.12l-4.44-11.53-1.23-.1v-1h4.22Z"/><path class="cls-9" d="M709.74,283.2a6.9,6.9,0,0,1,1.52-4.6,5.43,5.43,0,0,1,8.06,0,6.84,6.84,0,0,1,1.52,4.6v.38a6.85,6.85,0,0,1-1.51,4.6,5.44,5.44,0,0,1-8.07,0,6.86,6.86,0,0,1-1.52-4.6Zm1.4.38a6.07,6.07,0,0,0,1.1,3.71,3.86,3.86,0,0,0,6.11,0,6.13,6.13,0,0,0,1.1-3.71v-.38a6,6,0,0,0-1.11-3.68,3.82,3.82,0,0,0-6.1,0,6,6,0,0,0-1.1,3.68Z"/><path class="cls-9" d="M732.32,287.64a4.27,4.27,0,0,1-1.62,1.72,4.59,4.59,0,0,1-2.41.61,3.8,3.8,0,0,1-3.11-1.36,6.61,6.61,0,0,1-1.11-4.22v-6.15l-1.56-.15v-1h2.94v7.37a5.51,5.51,0,0,0,.78,3.33,2.65,2.65,0,0,0,2.22,1,4.06,4.06,0,0,0,2.51-.7,3.79,3.79,0,0,0,1.32-1.95v-7.86l-1.79-.15v-1h3.18v11.5l1.68.15v1h-2.9Z"/><path class="cls-9" d="M414.6,317.59a3.92,3.92,0,0,0,2.43-.8,2.63,2.63,0,0,0,1.06-2.22h1.23l0,.07a3.48,3.48,0,0,1-1.39,2.95,5.17,5.17,0,0,1-3.35,1.18,4.74,4.74,0,0,1-4-1.78,7.15,7.15,0,0,1-1.4-4.56v-.49a7.16,7.16,0,0,1,1.4-4.55,4.73,4.73,0,0,1,3.94-1.78,6.3,6.3,0,0,1,2.66.55,5.29,5.29,0,0,1,2,1.5l.06,2.77h-1.19l-.22-2.25a3.92,3.92,0,0,0-1.38-1,4.68,4.68,0,0,0-1.89-.37,3.33,3.33,0,0,0-3,1.46,6.5,6.5,0,0,0-1,3.68v.49a6.58,6.58,0,0,0,1,3.7A3.35,3.35,0,0,0,414.6,317.59Z"/><path class="cls-9" d="M421.93,312a6.89,6.89,0,0,1,1.51-4.6,5.43,5.43,0,0,1,8.06,0A6.84,6.84,0,0,1,433,312v.38a6.85,6.85,0,0,1-1.51,4.6,5,5,0,0,1-4,1.79,5.07,5.07,0,0,1-4.05-1.79,6.85,6.85,0,0,1-1.51-4.6Zm1.39.38a6.07,6.07,0,0,0,1.1,3.71,3.86,3.86,0,0,0,6.11,0,6.07,6.07,0,0,0,1.1-3.71V312a6,6,0,0,0-1.11-3.68,3.82,3.82,0,0,0-6.1,0,6,6,0,0,0-1.1,3.68Z"/><path class="cls-9" d="M435,317.49l1.89-.15V307l-1.89-.15v-1.05h3.12l.13,2.22a4.33,4.33,0,0,1,4.06-2.45,3.83,3.83,0,0,1,3.1,1.26,6,6,0,0,1,1.07,3.93v6.54l1.89.15v1h-5.17v-1l1.89-.15v-6.53a4.6,4.6,0,0,0-.81-3.08,2.9,2.9,0,0,0-2.29-.9,3.57,3.57,0,0,0-2.38.78,4.38,4.38,0,0,0-1.33,2.07v7.66l1.89.15v1H435Z"/><path class="cls-9" d="M459.69,309.76h-1.14l-.16-1.8a3.58,3.58,0,0,0-1.32-.85,5.16,5.16,0,0,0-1.83-.31,3.36,3.36,0,0,0-2.27.67,2,2,0,0,0-.76,1.55,1.82,1.82,0,0,0,.65,1.45,6.27,6.27,0,0,0,2.62,1,8.58,8.58,0,0,1,3.35,1.38,2.85,2.85,0,0,1,1.11,2.37,3.07,3.07,0,0,1-1.27,2.56,5.37,5.37,0,0,1-3.36,1,7.81,7.81,0,0,1-2.53-.39,6.16,6.16,0,0,1-2-1.11v-2.56h1.13l.19,1.81a3.29,3.29,0,0,0,1.41.81,6.23,6.23,0,0,0,1.78.26,3.85,3.85,0,0,0,2.38-.67,2,2,0,0,0,.87-1.62,2.08,2.08,0,0,0-.72-1.56,6,6,0,0,0-2.62-1.09,8.83,8.83,0,0,1-3.32-1.3,2.72,2.72,0,0,1-1.09-2.28,3.09,3.09,0,0,1,1.22-2.46,4.87,4.87,0,0,1,3.21-1,7.07,7.07,0,0,1,2.53.43,5.07,5.07,0,0,1,1.86,1.15Z"/><path class="cls-9" d="M468,318.77a5,5,0,0,1-3.92-1.75,6.51,6.51,0,0,1-1.55-4.46v-.65a6.63,6.63,0,0,1,1.55-4.51,4.77,4.77,0,0,1,3.73-1.79,4.64,4.64,0,0,1,3.64,1.48,5.66,5.66,0,0,1,1.32,3.93v1.2h-8.86v.34a5.61,5.61,0,0,0,1.13,3.58,3.59,3.59,0,0,0,3,1.45,6,6,0,0,0,2.2-.37,4.36,4.36,0,0,0,1.57-1l.59,1a5,5,0,0,1-1.78,1.19A6.89,6.89,0,0,1,468,318.77Zm-.19-12a3.32,3.32,0,0,0-2.58,1.19,5.24,5.24,0,0,0-1.22,3l0,0h7.36v-.35a4,4,0,0,0-1-2.76A3.28,3.28,0,0,0,467.81,306.8Z"/><path class="cls-9" d="M475.31,312.29a8.27,8.27,0,0,1,1.28-4.86,4.11,4.11,0,0,1,3.55-1.82,4.47,4.47,0,0,1,2.32.59,4.7,4.7,0,0,1,1.61,1.67l.17-2h1.17v12.52a5.51,5.51,0,0,1-1.31,3.87,4.75,4.75,0,0,1-3.66,1.41,9.07,9.07,0,0,1-1.93-.22,7.51,7.51,0,0,1-1.79-.61l.37-1.18a7.89,7.89,0,0,0,1.59.56,7.54,7.54,0,0,0,1.74.2,3.33,3.33,0,0,0,2.69-1.07,4.4,4.4,0,0,0,.91-3v-1.61a4.46,4.46,0,0,1-1.62,1.5,4.71,4.71,0,0,1-2.28.52,4.18,4.18,0,0,1-3.54-1.7,7.37,7.37,0,0,1-1.27-4.54Zm1.39.24a6.48,6.48,0,0,0,.92,3.66,3.11,3.11,0,0,0,2.76,1.36,3.9,3.9,0,0,0,2.25-.62,4,4,0,0,0,1.39-1.71v-5.88a4.41,4.41,0,0,0-1.34-1.81,3.51,3.51,0,0,0-2.28-.7,3.07,3.07,0,0,0-2.77,1.52,7.49,7.49,0,0,0-.93,3.94Z"/><path class="cls-9" d="M497.78,316.44a4.27,4.27,0,0,1-1.62,1.72,4.59,4.59,0,0,1-2.41.61,3.8,3.8,0,0,1-3.11-1.36,6.61,6.61,0,0,1-1.11-4.22V307l-1.56-.15v-1.05h2.94v7.37a5.51,5.51,0,0,0,.78,3.33,2.65,2.65,0,0,0,2.22,1,4.06,4.06,0,0,0,2.51-.7,3.79,3.79,0,0,0,1.32-2V307l-1.79-.15v-1.05h3.18v11.5l1.68.15v1h-2.9Z"/><path class="cls-9" d="M502.76,317.49l1.89-.15V307l-1.89-.15v-1.05H506v11.5l1.89.15v1h-5.16ZM506,302.21h-1.38v-2H506Z"/><path class="cls-9" d="M513.25,305.84l.18,2.11v.16a4.42,4.42,0,0,1,1.45-1.84,3.69,3.69,0,0,1,2.19-.66,3,3,0,0,1,.52,0l.41.09-.19,1.31-1-.07a3.15,3.15,0,0,0-2.15.74,4.14,4.14,0,0,0-1.2,2v7.57l1.89.15v1h-5.16v-1l1.89-.15V307l-1.89-.15v-1.05h3.09Z"/><path class="cls-9" d="M534.23,318.52a10.8,10.8,0,0,1-.19-1.11,7.46,7.46,0,0,1-.06-1,5.62,5.62,0,0,1-1.86,1.65,5.17,5.17,0,0,1-2.61.66,4,4,0,0,1-2.85-1,3.43,3.43,0,0,1-1-2.6,3.21,3.21,0,0,1,1.5-2.79,7,7,0,0,1,4.06-1H534v-1.68a2.69,2.69,0,0,0-.87-2.13,3.46,3.46,0,0,0-2.41-.78,6,6,0,0,0-1.91.29,4.27,4.27,0,0,0-1.45.78l-.11,1.7h-1.15v-2.44a7.33,7.33,0,0,1,2.08-1.1,7.84,7.84,0,0,1,2.58-.42,5,5,0,0,1,3.34,1.07,3.75,3.75,0,0,1,1.27,3.05V316c0,.26,0,.5,0,.74a5.35,5.35,0,0,0,.07.7l1.25.08v1Zm-4.57-1a5,5,0,0,0,2.66-.71A4.12,4.12,0,0,0,534,315v-2.55h-2.8a5.17,5.17,0,0,0-3,.8,2.35,2.35,0,0,0-1.13,2,2.14,2.14,0,0,0,.7,1.65A2.79,2.79,0,0,0,529.66,317.53ZM532,301h1.7l0,.07-2.89,3.05h-1.24Z"/><path class="cls-9" d="M538.73,312.29a8.35,8.35,0,0,1,1.28-4.86,4.13,4.13,0,0,1,3.56-1.82,4.41,4.41,0,0,1,2.31.59,4.81,4.81,0,0,1,1.62,1.67l.16-2h1.17v12.52a5.47,5.47,0,0,1-1.31,3.87,4.73,4.73,0,0,1-3.65,1.41,9,9,0,0,1-1.93-.22,7.36,7.36,0,0,1-1.79-.61l.37-1.18a7.8,7.8,0,0,0,1.58.56,7.63,7.63,0,0,0,1.75.2,3.35,3.35,0,0,0,2.69-1.07,4.45,4.45,0,0,0,.9-3v-1.61a4.36,4.36,0,0,1-1.61,1.5,4.74,4.74,0,0,1-2.28.52,4.18,4.18,0,0,1-3.54-1.7,7.37,7.37,0,0,1-1.28-4.54Zm1.39.24a6.4,6.4,0,0,0,.93,3.66,3.09,3.09,0,0,0,2.75,1.36,3.93,3.93,0,0,0,2.26-.62,4,4,0,0,0,1.38-1.71v-5.88a4.39,4.39,0,0,0-1.33-1.81,3.52,3.52,0,0,0-2.29-.7,3,3,0,0,0-2.76,1.52,7.39,7.39,0,0,0-.94,3.94Z"/><path class="cls-9" d="M561.21,316.44a4.41,4.41,0,0,1-1.62,1.72,4.6,4.6,0,0,1-2.42.61,3.78,3.78,0,0,1-3.1-1.36,6.55,6.55,0,0,1-1.12-4.22V307l-1.55-.15v-1.05h2.93v7.37a5.51,5.51,0,0,0,.78,3.33,2.67,2.67,0,0,0,2.22,1,4.1,4.1,0,0,0,2.52-.7,3.71,3.71,0,0,0,1.31-2V307l-1.78-.15v-1.05h3.17v11.5l1.68.15v1h-2.89Z"/><path class="cls-9" d="M574.94,318.52c-.09-.43-.16-.8-.2-1.11a7.46,7.46,0,0,1-.06-1,5.49,5.49,0,0,1-1.85,1.65,5.19,5.19,0,0,1-2.61.66,4,4,0,0,1-2.85-1,3.4,3.4,0,0,1-1-2.6,3.23,3.23,0,0,1,1.49-2.79,7,7,0,0,1,4.06-1h2.77v-1.68a2.68,2.68,0,0,0-.86-2.13,3.49,3.49,0,0,0-2.42-.78,6.12,6.12,0,0,0-1.91.29,4.31,4.31,0,0,0-1.44.78l-.12,1.7h-1.14v-2.44a7.2,7.2,0,0,1,2.08-1.1,7.84,7.84,0,0,1,2.58-.42,5,5,0,0,1,3.34,1.07,3.78,3.78,0,0,1,1.26,3.05V316c0,.26,0,.5,0,.74a5.35,5.35,0,0,0,.08.7l1.25.08v1Zm-4.57-1a5,5,0,0,0,2.65-.71,4.06,4.06,0,0,0,1.66-1.81v-2.55h-2.79a5.15,5.15,0,0,0-3,.8,2.33,2.33,0,0,0-1.13,2,2.1,2.1,0,0,0,.7,1.65A2.79,2.79,0,0,0,570.37,317.53Z"/><path class="cls-9" d="M584.9,317.49l1.89-.15V307l-1.89-.15v-1.05H588l.13,2.22a4.33,4.33,0,0,1,4.06-2.45,3.83,3.83,0,0,1,3.1,1.26,6,6,0,0,1,1.07,3.93v6.54l1.89.15v1H593.1v-1l1.89-.15v-6.53a4.6,4.6,0,0,0-.81-3.08,2.9,2.9,0,0,0-2.29-.9,3.57,3.57,0,0,0-2.38.78,4.38,4.38,0,0,0-1.33,2.07v7.66l1.89.15v1H584.9Z"/><path class="cls-9" d="M600.34,312a6.84,6.84,0,0,1,1.52-4.6,5.43,5.43,0,0,1,8.06,0,6.89,6.89,0,0,1,1.51,4.6v.38a6.85,6.85,0,0,1-1.51,4.6,5.43,5.43,0,0,1-8.06,0,6.81,6.81,0,0,1-1.52-4.6Zm1.39.38a6.13,6.13,0,0,0,1.1,3.71,3.86,3.86,0,0,0,6.11,0,6.07,6.07,0,0,0,1.1-3.71V312a6.08,6.08,0,0,0-1.1-3.68,3.83,3.83,0,0,0-6.11,0,6.08,6.08,0,0,0-1.1,3.68Z"/><path class="cls-9" d="M624.83,317.59a4,4,0,0,0,2.44-.8,2.63,2.63,0,0,0,1.05-2.22h1.23l0,.07a3.5,3.5,0,0,1-1.38,2.95,5.18,5.18,0,0,1-3.36,1.18,4.72,4.72,0,0,1-4-1.78,7.09,7.09,0,0,1-1.41-4.56v-.49a7.1,7.1,0,0,1,1.41-4.55,4.72,4.72,0,0,1,3.94-1.78,6.26,6.26,0,0,1,2.65.55,5.21,5.21,0,0,1,2,1.5l.06,2.77h-1.18l-.22-2.25a3.87,3.87,0,0,0-1.39-1,4.67,4.67,0,0,0-1.88-.37,3.35,3.35,0,0,0-3,1.46,6.58,6.58,0,0,0-1,3.68v.49a6.51,6.51,0,0,0,1,3.7A3.34,3.34,0,0,0,624.83,317.59Z"/><path class="cls-9" d="M640.82,318.52a10.8,10.8,0,0,1-.19-1.11,7.46,7.46,0,0,1-.06-1,5.62,5.62,0,0,1-1.86,1.65,5.17,5.17,0,0,1-2.61.66,4,4,0,0,1-2.85-1,3.43,3.43,0,0,1-1-2.6,3.21,3.21,0,0,1,1.5-2.79,7,7,0,0,1,4.06-1h2.77v-1.68a2.69,2.69,0,0,0-.87-2.13,3.46,3.46,0,0,0-2.41-.78,6,6,0,0,0-1.91.29,4.27,4.27,0,0,0-1.45.78l-.11,1.7h-1.15v-2.44a7.33,7.33,0,0,1,2.08-1.1,7.84,7.84,0,0,1,2.58-.42,5,5,0,0,1,3.34,1.07,3.75,3.75,0,0,1,1.27,3.05V316c0,.26,0,.5,0,.74a5.35,5.35,0,0,0,.07.7l1.25.08v1Zm-4.57-1a5,5,0,0,0,2.66-.71,4.12,4.12,0,0,0,1.66-1.81v-2.55h-2.8a5.17,5.17,0,0,0-3,.8,2.35,2.35,0,0,0-1.13,2,2.1,2.1,0,0,0,.7,1.65A2.79,2.79,0,0,0,636.25,317.53Z"/><path class="cls-9" d="M645,306.89v-1.05h3.12l.13,2.1a4.39,4.39,0,0,1,1.61-1.72,4.51,4.51,0,0,1,2.4-.61,4,4,0,0,1,2.4.71,3.86,3.86,0,0,1,1.38,2.16,4.92,4.92,0,0,1,1.62-2.1,4.16,4.16,0,0,1,2.56-.77,3.76,3.76,0,0,1,3.1,1.35,6.56,6.56,0,0,1,1.1,4.17v6.2l1.89.16v1h-5.19v-1l1.89-.16v-6.22a5.17,5.17,0,0,0-.82-3.32,2.81,2.81,0,0,0-2.27-1,3.08,3.08,0,0,0-2.5,1,5,5,0,0,0-1.09,2.66,1.09,1.09,0,0,0,0,.18v6.63l1.89.15v1H653v-1l1.89-.15v-6.23a5.08,5.08,0,0,0-.83-3.29,2.8,2.8,0,0,0-2.27-1,3.44,3.44,0,0,0-2.35.75,4.12,4.12,0,0,0-1.22,2v7.72l1.9.15v1H645v-1l1.89-.15V307Z"/><path class="cls-9" d="M667.89,317.49l1.89-.15V307l-1.89-.15v-1.05h3.27v11.5l1.89.15v1h-5.16Zm3.27-15.28h-1.38v-2h1.38Z"/><path class="cls-9" d="M675.13,317.49l1.89-.15V307l-1.89-.15v-1.05h3.12l.12,2.22a4.56,4.56,0,0,1,1.63-1.81,4.5,4.5,0,0,1,2.43-.64,3.85,3.85,0,0,1,3.11,1.26,6,6,0,0,1,1.07,3.93v6.54l1.89.15v1h-5.17v-1l1.89-.15v-6.53a4.6,4.6,0,0,0-.81-3.08,2.92,2.92,0,0,0-2.29-.9,3.55,3.55,0,0,0-2.38.78,4.31,4.31,0,0,0-1.33,2.07v7.66l1.89.15v1h-5.17Z"/><path class="cls-9" d="M690.27,301.28v-1h3.27V308a4.47,4.47,0,0,1,4.11-2.4,3.76,3.76,0,0,1,3,1.24,5.83,5.83,0,0,1,1.06,3.86v6.63l1.89.15v1h-5.17v-1l1.89-.15v-6.66a4.44,4.44,0,0,0-.8-3,2.86,2.86,0,0,0-2.22-.89,3.77,3.77,0,0,0-2.39.75,4.51,4.51,0,0,0-1.41,2v7.75l1.89.15v1h-5.16v-1l1.89-.15v-15.9Z"/><path class="cls-9" d="M705.62,312a6.84,6.84,0,0,1,1.52-4.6,5.42,5.42,0,0,1,8.05,0,6.84,6.84,0,0,1,1.52,4.6v.38a6.85,6.85,0,0,1-1.51,4.6,5.43,5.43,0,0,1-8.06,0,6.81,6.81,0,0,1-1.52-4.6Zm1.39.38a6.07,6.07,0,0,0,1.1,3.71,3.86,3.86,0,0,0,6.11,0,6.07,6.07,0,0,0,1.1-3.71V312a6.08,6.08,0,0,0-1.1-3.68,3.83,3.83,0,0,0-6.11,0A6,6,0,0,0,707,312Z"/><path class="cls-9" d="M722,313.79a6.46,6.46,0,0,1,.25-2.14,5.22,5.22,0,0,1,1.32-1.6,14.81,14.81,0,0,0,1.82-2.19,4,4,0,0,0,.58-2.25,3.24,3.24,0,0,0-.78-2.32,3,3,0,0,0-2.25-.82,3.08,3.08,0,0,0-2.21.8,2.91,2.91,0,0,0-.84,2.18h-1.29l0-.08a3.75,3.75,0,0,1,1.2-3,4.54,4.54,0,0,1,3.16-1.12,4.09,4.09,0,0,1,4.43,4.39,5.16,5.16,0,0,1-.77,2.8,13.8,13.8,0,0,1-2.19,2.56,2.79,2.79,0,0,0-.88,1.16,6.79,6.79,0,0,0-.15,1.67Zm1.56,4.73H722v-1.8h1.6Z"/><g class="cls-10"><path class="cls-3" d="M160.5,147a11.16,11.16,0,0,1,7.95,3.63,19.34,19.34,0,0,1,4.81-.63,17.54,17.54,0,0,1,13.05,5.93c14.34,5.38,8.65,14,8.32,14.51l.16,0s8.41,5.88,5.53,8.76c0,0,5.19,6.44,1,9.9a4.57,4.57,0,0,1-1.5.76c11.79,18.37,18.82,50.79,14.18,77.52-.92,5.3-7,9.1-23.27,9.1h0A86.51,86.51,0,0,1,175,275.12c.15,1.24.33,2.6.51,3.95h0c.81,5.82,2,12.44,3.3,13.42,8.32,6.24,20.71,8.82,27.68,9.83l10.09.94a25.6,25.6,0,0,1,2.24,2.55h.11c3,0,5.43,3.32,5.43,3.32l39.78,69.64-34.33,61.6s11.53,19.37,5.76,28.13l8,7.95s1.27,4.26-4.5,4.26c-1.72,0-4.13-.9-6.68-2.17a434.37,434.37,0,0,1,1.59,45.13,43.08,43.08,0,0,0-4.64-.7l0,2.94h0c-.11,20.47-.05,50,1.17,56.78,1.9,10.54,0,15.73,0,15.73s5.18,82.07,5.18,82.71,7.27,10,7.27,10,9.6,7.56,17.07,13.55h0s4.5,1.18,6.26,2.65a6.1,6.1,0,0,1,1.88,3.92c.5.34,1.33.9,2.27,1.58a24.15,24.15,0,0,0,6.49,1.21c1,1,0,2.15-1.34,3,.75.8,1.2,1.49,1.07,2-.49,1.8-7.44,9.12-20,9.12-.71,0-1.44,0-2.18-.07-13.2-.87-31.5-14.93-33-18.85a11.68,11.68,0,0,1,.19-7.9c0-3.34,2-7.34,3.13-9.34,1.73-3.11,2.94-11.93,2.94-11.93-19-66.74-8.13-76.13-10.2-81-1.32-3.07-13.07-46.76-21.46-78.19h0c0-.05,0-.1,0-.15-.48-1.81-1-3.59-1.42-5.32a22.49,22.49,0,0,1-4.34-2.56,136.25,136.25,0,0,1-22.82,9l-2.42,6-22.66,56.83s-4.29,15.82-9.4,20.92a224.58,224.58,0,0,1-12.62,36.49c-8.64,19.36-12.45,46-12.45,46s6.2,15.73,6.92,25.56c7.29,10,13.83,22.28,5.15,25.91A49.76,49.76,0,0,1,101,743c-10.46,0-19.84-2.45-22-4.64-3.51-3.51,6.47-30.14,6.47-30.14.31-2.42,1-4.76,2.39-5.74,3.46-2.42,7.61-8.3,7.61-8.3s-1.3-3.46,2.33-8.13,9-34.61,9-38.53-4.85-33.2,11.29-44.73c0,0,1.85-37.43,6.58-64.51h0c.51-3.07,1.07-6,1.68-8.73-5,.41-7.93.46-7.93.46s4.79-13.35,10.91-30.53c-5.22-.5-1.79-8.61-1.79-8.61a42.59,42.59,0,0,0,6.14-3.61l2-5.63c-1.73-4.26,2.58-17.5,2.58-17.5L122.4,452.12,76.34,417.38s37-87.26,38.5-88.76c1-1,8.12-5.15,13-8,5.16-5.16,16.23-9.24,16.23-9.24s10.55-11.93,12.8-14.18,1.21-8.47,1.21-8.47l-5.77-22.19C142.15,260.14,138.13,253,138.13,253a5.08,5.08,0,0,1-3.76,1.51c-3.36,0-6.73-2.54-6.73-2.54s-14.64-14.64-10-21.56a4.35,4.35,0,0,1,3.8-2.09c3,0,6.61,2.48,9.14,4.62-5.2-4.54-8-5.15-9.1-5.15l-.35,0-.09.06-.07,0-.1,0,0-.11c-1.09-.54-6-3.23-6.42-7.79-8.27-2.59-6.67-7.2-6.67-7.2-8-5.41,0-14.12,0-14.12-3.55-3.54-.81-8.7-.81-8.7-4.15-5.88,1-13.14,1-13.14.57-6.34,10.08-10.09,10.08-10.09.75-3.17,4.67-4.67,4.67-4.67a7,7,0,0,1,6.39-3.94,4,4,0,0,1,.53,0c3.45-7.46,16.38-8.17,21.21-8.17,1.15,0,1.84,0,1.84,0a12.94,12.94,0,0,1,7.85-3m65,272.4,21.34-38.49-20.29-30.17c.54,8.66.87,17.57.78,25.95a337.89,337.89,0,0,1-3,40.91,2.89,2.89,0,0,1,1.17,1.8m-78,28.67c2.06-5.91,3.86-11.08,5.21-15-2.14-4.29,1.21-6.22,2.22-6.68.11-.39.21-.7.27-.93,2.08-7.6-17.46-44.93-17.46-44.93l-16.5-10.33L98.1,413.68l37,25.76,12.41,8.64M267.57,710.89h0M160.5,141.65h0a17.39,17.39,0,0,0-9.47,3h-.22c-6.95,0-18.65,1.17-24.31,8.4a12,12,0,0,0-7.62,5,13.61,13.61,0,0,0-5,4.75c-3.43,1.74-9.7,5.73-11.09,12.13-2.19,3.63-4.23,9.76-1.8,15.53a13.12,13.12,0,0,0,.26,8.07,16,16,0,0,0-2.4,9.71,12.05,12.05,0,0,0,3.45,7.11,10.14,10.14,0,0,0,.94,2.82,13.3,13.3,0,0,0,6.62,5.92,14.22,14.22,0,0,0,2.76,4.27c-2.61,4.76-1.32,11,3.81,18.53a68.27,68.27,0,0,0,7.39,9l.56.49c.8.6,5.06,3.63,10,3.63a11,11,0,0,0,2-.18,53.91,53.91,0,0,0,11.32,10.21l5.18,19.91a12.36,12.36,0,0,1,0,3.89c-2.34,2.41-9.3,10.25-11.87,13.15-3.25,1.3-11.37,4.82-16.32,9.45-12,6.91-13,7.88-13.6,8.52-1,1-1.66,1.67-21,46.62-9.33,21.76-18.6,43.62-18.69,43.84l1.7,6.38,46.06,34.73L132,466.1c-1.34,4.77-2.59,10.8-1.95,15.15l-.89,2.52a42.38,42.38,0,0,1-4,2.2l-2.64,2.75c-.73,1.72-2.9,7.66-.26,12.09a7.85,7.85,0,0,0,.52.76c-5.43,15.23-9.5,26.57-9.5,26.57l5.15,7.17,1.21,0c-.12.67-.24,1.36-.35,2.06h0c-4.09,23.43-6,53.89-6.51,62.7-14.35,12.54-12.29,37.07-11.59,45.38.07.83.15,1.77.15,2-.06,4.36-5.38,31.48-7.89,35.27a16.1,16.1,0,0,0-3.66,9.91A30.26,30.26,0,0,1,84.77,698c-2.42,1.69-3.91,4.58-4.55,8.82-.66,1.79-2.71,7.49-4.47,13.58C72.11,733,72,738.87,75.19,742.1c4.08,4.08,16.08,6.21,25.82,6.21A55.06,55.06,0,0,0,122,744.58a11.52,11.52,0,0,0,7-7.64c1.71-6.15-1.15-14.17-9-25.19-1-8.72-5.12-20.23-6.6-24.18.89-5.56,4.68-27.2,11.83-43.22a233.06,233.06,0,0,0,12.62-36.1c5.06-6.21,8.7-18.54,9.59-21.78l22.55-56.55,1.47-3.68A142.75,142.75,0,0,0,189.81,519l.14.08.81,3,0,.08v.05c18.18,68.08,20.86,76.71,21.56,78.54,0,.48-.2,1.47-.34,2.29-1.3,7.81-4.34,26,10.16,77.33-.56,3.54-1.5,7.78-2.16,9-2.29,4.12-3.56,7.8-3.77,10.95a16.61,16.61,0,0,0,.13,10.8c1.94,5.1,12.19,11.87,14.22,13.17,4.92,3.16,14.49,8.53,23.43,9.12.84.05,1.69.08,2.53.08,14.4,0,23.91-8.38,25.19-13.07a6.17,6.17,0,0,0,.15-2.5,6.61,6.61,0,0,0,.69-2.36,6.51,6.51,0,0,0-2-5.33l-3.56-1.57a20.11,20.11,0,0,1-4.23-.66,10.5,10.5,0,0,0-3.2-4.81,22.17,22.17,0,0,0-7.19-3.4c-6.27-5-13.74-10.9-15.75-12.49-2.24-2.89-4.74-6.2-5.82-7.77-.25-4.24-1.23-20.09-5.05-80.53.59-2.44,1.49-8.21-.14-17.26-.84-4.68-1.23-24.55-1.08-54.59l4.68-3.35c0-.85.41-18.56-.94-37.73l.67,0c4.67,0,7.11-2,8.34-3.62a8.72,8.72,0,0,0,1.3-7.54l-1.35-2.26-5.4-5.4c1.27-4.72.6-10.73-2-17.95a76.69,76.69,0,0,0-4-8.92l32.89-59,0-5.27L229,306.47l-.3-.47a14.21,14.21,0,0,0-7.06-5.17c-.41-.46-.83-.91-1.28-1.36l-3.3-1.55-9.95-.92c-6.05-.89-16.92-3.11-24.3-8.23a50.53,50.53,0,0,1-1.55-7.36c3.1.31,6.27.47,9.49.47,6.5,0,26.22,0,28.57-13.55,4.31-24.81-.94-56.41-12.53-77.29,2.49-3.77,1.72-8.58-.53-12.58a8.57,8.57,0,0,0,0-1.34c-.28-3.28-2.71-6.26-5.16-8.49a12.72,12.72,0,0,0-.29-6.56c-1.42-4.53-5.23-8.1-11.34-10.65a23.2,23.2,0,0,0-16.2-6.77,23.88,23.88,0,0,0-3.25.22,16,16,0,0,0-9.51-3.22Zm71.37,255.24c.42-6,.76-12.84.84-20.13q0-3.48,0-7.29l7.89,11.72-8.71,15.7ZM105.07,412l18.19-34.2,10.38,6.5c1.43,2.79,5,9.77,8.37,17.3,6.36,14.05,7.67,19.69,7.92,21.7a9.84,9.84,0,0,0-2.77,4,9.61,9.61,0,0,0-.16,5.79q-1,2.85-2.25,6.51L138.14,435l-33.07-23Z"/><path class="cls-5" d="M151.56,263.49l6.57,25.25s1,6.22-1.21,8.47-12.8,14.18-12.8,14.18L138.24,323l34.07,19.36,40.63-10.89-1.21-28.53s-20.81-1.33-32.94-10.43c-2.38-1.79-4.41-22.6-4.41-22.6Z"/><path class="cls-11" d="M175.5,279.07c-.64-4.65-1.16-9.35-1.16-9.35l-22.82-6.39,1.83,7s7.14,4.65,9.36,5.63A43.65,43.65,0,0,0,175.5,279.07Z"/><path class="cls-5" d="M132.62,317.93s-16.28,9.2-17.78,10.69-38.5,88.76-38.5,88.76l46.06,34.74,15.84,11.95s-5,15.39-2.07,18.33-8.65,8.41-8.65,8.41-4.49,10.61,4.62,8.3,21.44-8.41,21.44-8.41l6.11-34.12-24.61-17.14-37-25.76,23.13-43.49,16.5,10.33L158,365.74l-14.53-36.19-6.22-13.61Z"/><path class="cls-5" d="M138.13,253s13.2,23.51,52.62,23.51c16.31,0,22.37-3.8,23.29-9.1,5.77-33.26-6.52-75.34-23.58-88.18-15-11.26-68,31.35-68,31.35l11.3,25.36s-11.53-12.45-16.14-5.53,10,21.56,10,21.56S134.21,256.92,138.13,253Z"/><path class="cls-5" d="M216.91,306.32c3.92-2.08,7.43,2.81,7.43,2.81l39.78,69.64-34.33,61.6s11.53,19.37,5.76,28.13l8,7.95s1.27,4.26-4.5,4.26-19.36-10.14-19.36-10.14l1.57-43.42,25.64-46.23-23.54-35L216,339.39S209.6,310.19,216.91,306.32Z"/><path class="cls-5" d="M175.59,501.22l-33.31,83.54s-4.29,15.82-9.4,20.92a224.58,224.58,0,0,1-12.62,36.49c-8.64,19.36-12.45,46-12.45,46s7.87,20,6.92,29c0,0,7.52,10.38,4.49,16.34s-14.87,2.42-14.87,2.42-19.79,2.6-22.73-2.33,3.71-18.16,3.71-18.16-1-10.54,2.51-13,7.61-8.3,7.61-8.3-1.3-3.46,2.33-8.13,9-34.61,9-38.53-4.85-33.2,11.29-44.73c0,0,3.92-79.54,15-90.6s42.53-17.64,42.53-17.64Z"/><path class="cls-12" d="M175.59,501.22l-10.65,26.71s-14.73,6.58-18.46,7.49c-2.77.68-22.49,6.78-21.83,2.8,2.07-12.43,4.93-22.61,8.41-26.08,11.06-11.07,42.53-17.64,42.53-17.64Z"/><path class="cls-5" d="M187.47,488.85s27.89,105.36,30,110.2-8.82,14.24,10.2,81c0,0-1.21,8.82-2.94,11.93S219,703,224,705.8s21.27,16.6,28.18,17.81,19.89-4.84,19.89-4.84,6.91-2.6,4.75-4.76c0,0-6.31-.26-8.38-2.33s-25.59-20.58-25.59-20.58-7.27-9.34-7.27-10-5.18-82.71-5.18-82.71,1.9-5.19,0-15.73-1-77-1-77Z"/><path class="cls-12" d="M187.47,488.85s6.56,24.71,8.51,32c.75,2.8,33.27,5,33.27,5l.18-20.23Z"/><path class="cls-13" d="M187.47,509.72c5.39,10.69,43.31,12.95,46.45,13.95,0,0,1-42.95-5.06-67.08S187.47,509.72,187.47,509.72Z"/><path class="cls-14" d="M141.36,243.55c6.68,2.77.92-9.22.92-9.22s-.63-12-4-14.06a49.13,49.13,0,0,1-7.42-6.07l63.79-43.73s6.46-9-8.3-14.53a17.55,17.55,0,0,0-17.86-5.3s-6.46-7.72-15.8-.63c0,0-18.79-1.1-23.05,8.13a7,7,0,0,0-6.92,3.91s-3.92,1.5-4.67,4.67c0,0-9.51,3.75-10.08,10.09,0,0-5.19,7.26-1,13.14,0,0-2.74,5.16.81,8.7,0,0-8,8.71,0,14.12,0,0-2,5.65,9.68,8l3.46,7.14s3.33-1.51,12.91,8.07Z"/><path class="cls-11" d="M187.81,244.19a2.26,2.26,0,0,1,0-4.51c2.44,0,10.61-2.06,15.31-3.67-1.45-11.87-10.39-20.74-14.92-25.07a2.26,2.26,0,0,1,3.11-3.27c5.22,5,14.13,15.49,15.12,29.73l.12,1.71-1.61.57C203.65,240.14,192.23,244.19,187.81,244.19Z"/><path class="cls-11" d="M133.23,250.35s-.35-15.13-12-18.76"/><path class="cls-11" d="M121.23,370.19s10-13.37,8.66-11.34c-7.31,11.3,18.69,24.35,24.78,17.38,0,0-6,7.72-16.94,4.29Z"/><path class="cls-15" d="M144.12,311.39s-11.07,4.08-16.23,9.24c0,0,31.05,45,9.84,59.89,0,0,19.53,37.33,17.46,44.93S118.4,530,118.4,530s107.21-1.9,111-72l-5.08-40.35a337.89,337.89,0,0,0,3-40.91c.22-19.69-1.93-42.32-3.51-57.77a25,25,0,0,0-7.28-15.67l-10.09-.94s8,26.71-10.47,29.24C186.05,332.92,162.11,336.13,144.12,311.39Z"/><g class="cls-16"><path class="cls-17" d="M122.4,532.57s107.2-1.9,111-72Z"/></g><path class="cls-15" d="M144.12,311.39s-11.07,4.08-16.23,9.24c0,0,31.05,45,9.84,59.89,0,0,19.53,37.33,17.46,44.93S118.4,530,118.4,530s107.21-1.9,111-72l-5.08-40.35a337.89,337.89,0,0,0,3-40.91c.22-19.69-1.93-42.32-3.51-57.77a25,25,0,0,0-7.28-15.67l-10.09-.94s8,26.71-10.47,29.24C186.05,332.92,162.11,336.13,144.12,311.39Z"/><path class="cls-5" d="M122.4,452.12l15.84,11.95s-5,15.39-2.07,18.33-8.65,8.41-8.65,8.41-4.49,10.61,4.62,8.3,21.44-8.41,21.44-8.41l5.18-28.94s1.59-5.68-4.87-9.48c-5-2.93-18.81-12.84-18.81-12.84Z"/><path class="cls-4" d="M152.81,433.29s56.52,7.53,72.2-10.46c0,0,1.71-3.54-.66-5.22.34,3.33-26.54,17.81-69.16,8.65C155.19,426.26,150,428.1,152.81,433.29Z"/><circle class="cls-18" cx="199.76" cy="430.57" r="13.18"/><g class="cls-19"><path class="cls-20" d="M137.16,175.54s-5.66,6.86,1.52,11.44c2.51,1.61-7.44,9.34-7.44,9.34l-4,22.56s5.19-2.08,8.65-2.08l18.2,20.84-11.68,7.3-37.23-25.1L80.38,172l31.93-29,34.93-8.13L141.1,147s-14.83,9.06-9.17,15.59C128.39,165.1,127.7,174.88,137.16,175.54Z"/></g><path class="cls-9" d="M121,227.87s-6.68-3-6.68-8.52,26.05-57.87,80.46-48.88c0,0,8.41,5.88,5.53,8.76,0,0,5.19,6.44,1,9.9S177,187.52,121,227.87Z"/><path class="cls-21" d="M124,215.66s34.81-42.42,72.05-36.89C196,178.77,161.3,180.63,124,215.66Z"/><path class="cls-22" d="M201.21,441.58c-2.07,0-6.51-.41-9.42-3.66-2.53-2.82-3.23-6.91-2.1-12.16a2.26,2.26,0,1,1,4.41.95c-.81,3.76-.46,6.51,1.05,8.19,2.26,2.53,6.67,2.15,6.71,2.14a2.26,2.26,0,0,1,.47,4.49A9.94,9.94,0,0,1,201.21,441.58Z"/><path class="cls-23" d="M207.72,437.11a2.81,2.81,0,0,1-.49-.05,2.26,2.26,0,0,1-1.71-2.69c.83-3.76.49-6.52-1-8.2-2.25-2.54-6.66-2.18-6.7-2.18a2.26,2.26,0,0,1-.45-4.49c.28,0,6.73-.61,10.53,3.67,2.5,2.83,3.19,6.93,2,12.17A2.26,2.26,0,0,1,207.72,437.11Z"/><path class="cls-24" d="M168.89,209.9c2-2,4.81-2.45,7.45-2.85,1.68-.26,1.62-2.94-.09-2.68-3.37.51-6.81,1.15-9.3,3.67-1.21,1.23.72,3.09,1.94,1.86Z"/><path class="cls-24" d="M194.84,204.32a5.72,5.72,0,0,1,5-.55,1.34,1.34,0,0,0,.9-2.53,8.6,8.6,0,0,0-7.67,1c-1.44.94.33,3,1.76,2Z"/><ellipse class="cls-24" cx="173.91" cy="214.67" rx="3.01" ry="4.11" transform="translate(-47.07 48.85) rotate(-14.1)"/><ellipse class="cls-24" cx="199.08" cy="210.63" rx="3.01" ry="4.11" transform="translate(-45.32 54.86) rotate(-14.1)"/><path class="cls-25" d="M202.87,248.82s-16.4,3-23.57,9.39c0,0,17.94,4.16,24.49-.11l.47-.55A17.64,17.64,0,0,1,202.87,248.82Z"/><path class="cls-26" d="M184.91,255.53s7.44-1.18,12,3.38l-13.94-.5s-3.35-1.38-.71-2.13Z"/><path class="cls-27" d="M184,256.1s16.32-2.81,20.23-4.25a19.37,19.37,0,0,0,0-2.32C204.14,249,188.74,252.35,184,256.1Z"/><path class="cls-11" d="M205.43,259.47a34.23,34.23,0,0,1-13.13,1.47,94.26,94.26,0,0,1-12.75-2h0a.77.77,0,0,1-.36-1.34,38.56,38.56,0,0,1,12.33-7.06,101.86,101.86,0,0,1,13.62-3.64,1.5,1.5,0,0,1,.63,2.93l-.08,0a99.7,99.7,0,0,0-13.45,2.84,37,37,0,0,0-12.07,6.08l-.36-1.34h0a92.66,92.66,0,0,0,12.57,1.22,31.46,31.46,0,0,0,12-2,1.5,1.5,0,1,1,1.12,2.78l-.08,0Z"/></g></svg>