<svg id="Camada_1" data-name="Camada 1" xmlns="http://www.w3.org/2000/svg" xmlns:xlink="http://www.w3.org/1999/xlink" viewBox="0 0 849.48 508.51"><defs><style>.cls-1,.cls-19,.cls-25,.cls-27,.cls-29,.cls-30,.cls-31,.cls-35,.cls-36{fill:none;}.cls-2{clip-path:url(#clip-path);}.cls-3{fill:#eac2a7;}.cls-4{fill:#eaa000;}.cls-5{fill:#97d8dd;}.cls-6{fill:#027e8f;}.cls-7{fill:#65c4d1;}.cls-8{fill:#ffd478;}.cls-9{clip-path:url(#clip-path-2);}.cls-10{fill:#b7b7b7;}.cls-11{fill:#d6aa8b;}.cls-12{fill:#d6d6d6;}.cls-13{clip-path:url(#clip-path-3);}.cls-14{fill:#c99f4b;}.cls-15{fill:#493e38;}.cls-16{clip-path:url(#clip-path-4);}.cls-17{fill:#fcfcfc;}.cls-18{fill:#d32222;}.cls-19,.cls-25{stroke:#c9a68f;}.cls-19,.cls-25,.cls-27,.cls-29,.cls-31,.cls-35,.cls-36{stroke-linecap:round;}.cls-19,.cls-25,.cls-27,.cls-30,.cls-35,.cls-36{stroke-miterlimit:10;}.cls-19,.cls-29{stroke-width:2px;}.cls-20{fill:#c9a68f;}.cls-21{clip-path:url(#clip-path-5);}.cls-22{fill:#aa7e30;}.cls-23{fill:#fff;}.cls-24{fill:#ddd;}.cls-25,.cls-27,.cls-35,.cls-36{stroke-width:3px;}.cls-26{fill:#6d5f56;}.cls-27{stroke:#6d5f56;}.cls-28{fill:#af9482;}.cls-29{stroke:#eaa000;}.cls-29,.cls-31{stroke-linejoin:round;}.cls-30,.cls-31{stroke:#af9482;}.cls-32{fill:#f4f4f4;}.cls-33{fill:#6d472e;}.cls-34{fill:#c99e32;}.cls-35{stroke:#846829;}.cls-36{stroke:#e8cd95;}</style><clipPath id="clip-path"><path class="cls-1" d="M242.34-122.68s-45.9,31.33-135-4.58c-56-22.55-43.83-246.86-43.83-246.86S128.67-477,165.4-474.84c18.94,1.11,70.92-3.93,70.92,33.32,0,10.4,12.68,4.85,18.13,29.06.66,2.92-7.56,32-6.86,35,14.32,61.48,37.2,140.39,37.2,140.39s20.36,73.33,10.18,78.91"/></clipPath><clipPath id="clip-path-2"><path class="cls-1" d="M237.49,489.48s-45.9,31.32-135-4.59C46.46,462.34,58.61,238,58.61,238s65.21-102.87,101.94-100.72c18.95,1.12,70.92-3.93,70.92,33.32,0,10.41,12.68,4.85,18.13,29.06.66,2.92-7.56,32-6.85,35,14.32,61.47,37.19,140.38,37.19,140.38S300.3,448.42,290.12,454"/></clipPath><clipPath id="clip-path-3"><path class="cls-1" d="M184.3,507.5c5.56,11,44.68,13.37,47.92,14.39,0,0,1-44.3-5.23-69.19S184.3,507.5,184.3,507.5Z"/></clipPath><clipPath id="clip-path-4"><path class="cls-1" d="M181.35,249.75c-.25-.51,22.11,8.26,32.81,4.47,0,0-3.55,18-11.94,17.5C193.58,271.25,185.27,265.22,181.35,249.75Z"/></clipPath><clipPath id="clip-path-5"><path class="cls-1" d="M150.21,235.24c5.77,4.73,3.67-8.83,3.67-8.83s3-12,.22-15.09a50.55,50.55,0,0,1-5.52-8.21L169,196.66,224.64,179s9.06-6.95-3.86-16.82a18.09,18.09,0,0,0-16.05-10.58s-4.07-9.55-15.4-5.35c0,0-18.23-6.7-25.19,1.13a7.24,7.24,0,0,0-8,1.81s-4.32.3-6,3.21c0,0-10.51.86-13,6.94,0,0-7.29,5.62-4.95,12.67,0,0-4.25,4.27-1.81,8.83,0,0-10.45,6.22-4.22,13.94,0,0-3.62,5,7.18,10.75l1.28,8.09s3.74-.5,10.33,11.82Z"/></clipPath></defs><title>Fala4 cópia</title><g class="cls-2"><path class="cls-3" d="M176.9-113.41,142.53-27.24s-4.43-59.47-9.69-54.2a232.19,232.19,0,0,1-13,37.63C110.9-23.83,107,3.64,107,3.64s8.11,20.6,7.13,29.87c0,0,7.76,53.8,4.64,60S103.41,96,103.41,96,83,98.63,80,93.55s3.83-61.82,3.83-61.82-1-10.88,2.59-13.38,7.84-8.56,7.84-8.56-1.33-3.57,2.41-8.38,9.28-35.71,9.28-39.75-5,41.54,11.65,29.65c0,0,4-82,15.46-93.46s43.88-18.2,43.88-18.2Z"/><path class="cls-3" d="M189.14-126.17S217.92-17.49,220.06-12.49,211-73.6,230.58-4.75c0,0-1.24,9.1-3,12.31s-5.88,11.42-.71,14.27S248.78,39,255.91,40.2s20.51-5,20.51-5,7.14-2.68,4.91-4.91c0,0-6.51-.27-8.65-2.41s-26.4-21.22-26.4-21.22S238.79-3,238.79-3.62s-5.35-9.53-5.35-9.53,2-5.35,0-16.23-1-79.43-1-79.43Z"/><path class="cls-4" d="M105.38-33.65h0m0,0C105-26.34,105-13,109.14-8.35c-1.46,7.12-2.16,12-2.16,12s8.11,20.6,7.13,29.87c0,0,7.76,53.8,4.64,60C117.32,96.27,114,97,110.81,97a29.28,29.28,0,0,1-7.4-1.08,96.86,96.86,0,0,1-11,.7c-5.36,0-11-.63-12.44-3.11-3-5.08,3.83-61.82,3.83-61.82s-1-10.88,2.59-13.38,7.84-8.56,7.84-8.56-1.33-3.57,2.41-8.38c3.05-3.93,7.29-25.14,8.75-35.06m0-5.05a5.17,5.17,0,0,0-1.19.14,5.11,5.11,0,0,0-2.11,1.08,5,5,0,0,0-1.25,1.64,5,5,0,0,0-.46,1.53C98.4-21,94.43-4.26,92.62-1.67A15.66,15.66,0,0,0,89,8.41a32.49,32.49,0,0,1-5.48,5.8c-5.16,3.61-5.11,13-4.77,17.43-.32,2.69-1.82,15.49-3,28.64-2.82,31.27-1.17,34-.08,35.86,2.3,3.85,7.47,5.57,16.78,5.57a102.14,102.14,0,0,0,10.65-.62,34,34,0,0,0,7.76,1c7.63,0,11-3.45,12.45-6.34,1-1.94,2.63-5.19-.64-35.12-1.36-12.49-3-24.53-3.43-27.27.62-9.24-5.14-25.33-7-30.29.29-1.86.93-5.63,1.91-10.4a5.05,5.05,0,0,0-1.18-4.39c-1.74-1.94-3.15-9.94-2.49-21.47,0-.15,0-.31,0-.46a5.06,5.06,0,0,0-4.91-5.05Zm0,10.1h0Z"/><path class="cls-4" d="M179.81-468.56a48,48,0,0,1,14.36,2.67,15.67,15.67,0,0,1,5.45-1.07c7.23,0,10,6.42,10,6.42a18.09,18.09,0,0,1,16,10.57c12.55,9.6,4.35,16.43,3.88,16.81l.15.07s6.55,8.32,2.84,10.3a14.47,14.47,0,0,1,.49,1.56c2.73,1,5.49,2.35,6.71,3.91l-1.33.22c.34.2.62.38.84.52h0l.49.32a8.12,8.12,0,0,1,3.9,1h0a11,11,0,0,1,1.76,1.19,1.58,1.58,0,0,1,.58-.12c1.45,0,2.41,2.13.85,2.94a45.88,45.88,0,0,1-16.49,4.79l1.13,5.48s-.07.24-.21.63c2.55,21-1.11,47.95-11.54,68.68-1.49,3-4.63,4.85-10.34,4.85-3.86,0-8.88-.86-15.37-2.82A93.22,93.22,0,0,1,182.24-334s-.06,3.89.13,5.35a3.12,3.12,0,0,0,.76,1.92c8.33,6.25,19.31,8.07,25.73,8.59l-.11-.42,10.41,1a27.76,27.76,0,0,1,2.32,2.64h.1c3.13,0,5.6,3.42,5.6,3.42l41,71.83L232.8-176.19s11.89,20,5.95,29L247-139s1.31,4.4-4.63,4.4c-1.78,0-4.27-.93-6.9-2.24a447.09,447.09,0,0,1,1.64,46.55,46,46,0,0,0-4.79-.72l0,3h0c-.12,21.11-.06,51.61,1.2,58.56,2,10.88,0,16.23,0,16.23s5.35,8.88,5.35,9.53,7.49,10.29,7.49,10.29,24.26,19.08,26.4,21.22,8.65,2.41,8.65,2.41c2.23,2.23-4.91,4.91-4.91,4.91S265.37,40.37,258,40.37a12.55,12.55,0,0,1-2.09-.17C248.78,39,232,24.68,226.84,21.83s-1.07-11.06.71-14.27,3-12.31,3-12.31c-6.81-23.89-9.9-31.53-11.12-31.53-2.18,0,1.53,24.06.79,24.06-.05,0-.11-.09-.19-.27-1.36-3.18-13.48-48.25-22.14-80.67l-.06-.24c-.49-1.84-1-3.65-1.44-5.4a22.65,22.65,0,0,1-4.46-2.65,139.6,139.6,0,0,1-23.56,9.34L142.53-27.24S140-61,136.53-75.39c-1.92.45-3.86.86-5.62,1.14A240.48,240.48,0,0,1,120.36-45c1-10,2.33-20.72,4-30.2h0c.52-3.17,1.1-6.2,1.73-9-5.11.43-8.18.48-8.18.48s26.73-74.6,35.38-100c-2.19-4.42,1.25-6.4,2.29-6.88.12-.39.22-.72.28-.95,2.14-7.85-19.16-56.6-19.16-56.6h.25c0-.18-.08-.44-.16-.8-.32-1.49-1.6-15.78-2.26-23.32-3-8.05-7.84-18.34-14.58-25.07-12.49-12.5-51.43-71.73-51.43-71.73s31.83-15.8,60.53-30.2l7.16-3.83a8.28,8.28,0,0,1-.73-5.15c-7.4-5-4.44-9.1-4.44-9.1-6.24-7.73,4.22-13.94,4.22-13.94-2.44-4.56,1.8-8.84,1.8-8.84-2.34-7,5-12.66,5-12.66,2.46-6.09,13-6.94,13-6.94,1.69-2.91,6-3.22,6-3.22a6.94,6.94,0,0,1,5.21-2.32,7.52,7.52,0,0,1,2.79.52c2.57-2.89,6.68-3.8,10.83-3.8m-32.25,77.94-.21-.34h0l.22.33m-14.27,66.1c1.77-1.77,3.29-2.37,4.53-2.36a4.88,4.88,0,0,1,3.84,2.36A70.81,70.81,0,0,0,153.57-323c1.88,0,3.41-.23,4.06-.88,2.32-2.32,3.15-8.06,3.15-8.06l.81-6.82v-.1l1-8.34c-11.19-10.81-13.53-21.37-13.53-21.37a5.09,5.09,0,0,1-2.46.63c-4.1,0-7.59-4.79-7.59-4.79a65.36,65.36,0,0,1-4.41-10.76c-9.44,5.52-18.48,10.76-23,13.4-7.41,4.58-12.26,7.67-12.26,7.67,4.43,4.43,34,37.88,34,37.88m95.1,126.71,22-39.7-20.93-31.12c.55,8.93.9,18.12.81,26.76a349.83,349.83,0,0,1-3.09,42.21,2.91,2.91,0,0,1,1.19,1.85m-48.58-275.8h0c-5,0-9.13,1.13-12.23,3.36a12.11,12.11,0,0,0-1.39-.08,11.77,11.77,0,0,0-7.52,2.64,13.4,13.4,0,0,0-6.32,3.21c-3.8.65-11.21,2.65-14.42,8.51-3.2,2.87-7.05,8.26-6.3,14.6a13.09,13.09,0,0,0-2.16,8.13,16.12,16.12,0,0,0-5.29,8.76,12,12,0,0,0,1.32,7.9,9.5,9.5,0,0,0,0,3.05,13.34,13.34,0,0,0,4.77,7.68c0,.05,0,.1,0,.16l-3.61,1.93c-28.36,14.22-60.14,30-60.46,30.16a5.07,5.07,0,0,0-2.63,3.2,5.07,5.07,0,0,0,.66,4.1c1.6,2.44,39.37,59.8,52.08,72.52,6,6,10.46,15.51,13.18,22.64,1.38,15.75,1.91,20.6,2.14,22.3a5.15,5.15,0,0,0,.37,2.7c.06.11,5.14,11.76,10,24.36,7.41,19.21,8.68,26,8.87,28.19a9.51,9.51,0,0,0-2.9,4.1,9.58,9.58,0,0,0-.12,5.84c-9.1,26.52-34.5,97.44-34.76,98.17a5,5,0,0,0,.65,4.65,5.06,5.06,0,0,0,4.1,2.1h.1s.69,0,1.83-.06c-.16.89-.31,1.79-.47,2.71v0c-1.47,8.48-2.83,18.73-4,30.48a5.05,5.05,0,0,0,3.74,5.4,5.16,5.16,0,0,0,1.28.16A5.05,5.05,0,0,0,125-43c3.55-8.08,6.31-15.73,8.37-22,2.44,15.65,4.11,37.88,4.13,38.16a5.05,5.05,0,0,0,4.27,4.61,5.09,5.09,0,0,0,.77.06,5.05,5.05,0,0,0,4.69-3.18L172.2-88a147.47,147.47,0,0,0,19.39-7.63l.53.3L193-92.1l.06.23C213.66-14.59,215-11.52,215.42-10.5a5.19,5.19,0,0,0,4.83,3.33A5.11,5.11,0,0,0,224-8.85l.09-.1c.42,1.43.86,2.94,1.32,4.55-.58,3.76-1.57,8.21-2.29,9.51-3.48,6.24-4.6,11.24-3.44,15.28a9.61,9.61,0,0,0,4.7,5.86c1.4.78,4.37,3,7.51,5.27,9.73,7.15,17.61,12.69,23.13,13.66a17.23,17.23,0,0,0,3,.24c7.94,0,18.51-4.69,20.38-5.55,3.38-1.3,7.48-3.6,8.29-7.33a6.23,6.23,0,0,0-1.77-5.81,5.09,5.09,0,0,0-3.36-1.48,16.42,16.42,0,0,1-5.41-1.05C273.46,21.66,254.82,7,249.89,3.08c-2.58-3.34-5.5-7.22-6.38-8.56C243-6.75,241.82-9,238.83-14c.54-2.95,1-8.39-.42-16.3-.86-4.78-1.27-24.74-1.13-54.93a5,5,0,0,0,2.72-.94,5.07,5.07,0,0,0,2.12-4c0-.88.42-19.48-1-39.44.42,0,.82.06,1.22.06,4.61,0,7-1.92,8.21-3.53a8.51,8.51,0,0,0,1.27-7.36,5.1,5.1,0,0,0-1.27-2.13l-5.78-5.77c1.39-4.81.73-11-2-18.49a77.94,77.94,0,0,0-4.17-9.37l34-61.1a5.08,5.08,0,0,0,0-5l-41-71.83c-.09-.15-.19-.31-.29-.45a14.11,14.11,0,0,0-7.14-5.17q-.66-.75-1.41-1.5a5.06,5.06,0,0,0-3.1-1.46l-2.85-.26a13,13,0,0,0,7.41-6.45c10.15-20.18,14.78-47.09,12.17-70.48a5,5,0,0,0,0-2.11l-.06-.29a48.44,48.44,0,0,0,12.82-4.48,6.41,6.41,0,0,0,3.33-7.29,6.85,6.85,0,0,0-5.52-5.11l-.72-.43-.44-.23a12.9,12.9,0,0,0-2.36-1,15.06,15.06,0,0,0-4.76-3.52c.2-3-1.21-6.17-2.79-8.74a12.81,12.81,0,0,0,1.76-6.58c-.06-4.77-2.73-9.35-8-13.62a23,23,0,0,0-17.07-12.12,15.84,15.84,0,0,0-13-6.68,20,20,0,0,0-5.44.8,51.48,51.48,0,0,0-14.37-2.4ZM114.13-365.73C118.48-368.25,125-372,131.89-376c1.35,3.26,2.58,5.57,2.65,5.72s.24.4.38.59c.79,1.09,4.88,6.3,10.71,6.82a56.65,56.65,0,0,0,11.65,17.56l-.7,5.92v.11l-.79,6.73a18.18,18.18,0,0,1-1.33,4.54l-.88,0a58.13,58.13,0,0,1-9.15-1.09,9.39,9.39,0,0,0-6.6-2.82,9.51,9.51,0,0,0-3.68.76c-6-6.79-19.66-22.16-27-30.2,1.91-1.2,4.29-2.68,7-4.35ZM234.31-218.89c.51-6.64.93-14.5,1-22.92,0-2.91,0-5.95-.05-9.12l9.2,13.68-10.18,18.36Z"/></g><path class="cls-4" d="M178.24,158.07c93.47.11,169.21,76.64,169.31,171.09s-75.8,171.09-169.31,171.09S8.92,423.65,8.92,329.16,84.73,158.07,178.24,158.07m0-8h0a174.65,174.65,0,0,0-69.05,14.09,176.51,176.51,0,0,0-56.36,38.39,180.11,180.11,0,0,0,0,253.22,176.51,176.51,0,0,0,56.36,38.39,176.24,176.24,0,0,0,138.1,0,176.51,176.51,0,0,0,56.36-38.39,180,180,0,0,0-.06-253.16,176.68,176.68,0,0,0-56.33-38.4,174.89,174.89,0,0,0-69-14.14Z"/><path class="cls-5" d="M178.24,158.07c-93.52,0-169.32,76.6-169.32,171.09s75.8,171.09,169.32,171.09,169.31-76.6,169.31-171.09S271.7,158.18,178.24,158.07Zm0,330.78c-87.28,0-158-71.5-158-159.69S91,169.47,178.24,169.47s158,71.5,158,159.69S265.47,488.75,178.24,488.85Z"/><path class="cls-5" d="M258.14,204.88a5.59,5.59,0,0,0-7.81,1.66l-9.23,14.34a5.72,5.72,0,0,0,1.79,8,74.63,74.63,0,0,1,6.33,4.56c1.27,1,2.54,2,3.53,2.67,1.76,1.46,3.44,3,5.11,4.55l-3.9,3.94a112.35,112.35,0,0,0-24.74-17.13l11.54-26.16a5.73,5.73,0,0,0,.11-4.36,5.64,5.64,0,0,0-3-3.17,146.3,146.3,0,0,0-52-12.52,5.61,5.61,0,0,0-4.08,1.46,5.69,5.69,0,0,0-1.85,3.94l-.87,17.09a5.68,5.68,0,0,0,5.33,6l5.94.3,6.33,1c.81.14,1.63.26,2.44.37,1.22.18,2.45.35,3.52.6l.77.2-1.48,5.59a114.09,114.09,0,0,0-29.89-2.45l-2.93-28.53a5.66,5.66,0,0,0-2.06-3.84,5.56,5.56,0,0,0-4.14-1.25,144.5,144.5,0,0,0-51.29,15.44,5.73,5.73,0,0,0-2.45,7.67l7.7,15.24a5.63,5.63,0,0,0,7.4,2.59c1.13-.53,2.26-1.09,3.38-1.65a58.2,58.2,0,0,1,8.07-3.5l1.44-.55c1.7-.63,3.35-1.25,5-1.8l1.46,5.52c-1.39.47-2.74,1-4.08,1.48l-1.34.51a53.38,53.38,0,0,0-8,3.44c-1,.48-1.93,1-3.39,1.66l-9.56,5.57-.66.37L99.93,210.57a5.58,5.58,0,0,0-7.88-1.26,147.58,147.58,0,0,0-36.81,39.11,5.73,5.73,0,0,0,1.65,7.9l14.2,9.33a5.58,5.58,0,0,0,4.32.78,5.66,5.66,0,0,0,3.57-2.6,76.37,76.37,0,0,1,4.5-6.38c1-1.29,2-2.59,2.65-3.59,1.44-1.77,3-3.47,4.5-5.16l3.9,4a113.2,113.2,0,0,0-16.94,25L51.7,266a5.63,5.63,0,0,0-7.46,2.89,150.26,150.26,0,0,0-12.39,52.56,5.69,5.69,0,0,0,5.35,6l16.91.88a5.56,5.56,0,0,0,4.07-1.44A5.7,5.7,0,0,0,60,322.91l.29-6,1-6.4c.15-.82.26-1.65.38-2.47.18-1.24.35-2.47.59-3.54l.2-.79,5.53,1.5a116.87,116.87,0,0,0-2.43,30.2l-28.23,3a5.65,5.65,0,0,0-3.8,2.08,5.76,5.76,0,0,0-1.23,4.19,149.8,149.8,0,0,0,15.28,51.82,5.6,5.6,0,0,0,7.59,2.48l15.08-7.78a5.74,5.74,0,0,0,2.55-7.48c-.52-1.13-1.07-2.24-1.61-3.36a59.16,59.16,0,0,1-3.48-8.2l-.56-1.51c-.62-1.69-1.23-3.35-1.77-5l5.53-1.49A113.47,113.47,0,0,0,83.8,391.43L60.87,408.29a5.72,5.72,0,0,0-1.24,8,147.35,147.35,0,0,0,38.7,37.19,5.59,5.59,0,0,0,7.81-1.66l9.24-14.34a5.76,5.76,0,0,0,.77-4.38,5.7,5.7,0,0,0-2.56-3.6,74.79,74.79,0,0,1-6.34-4.56c-1.27-1-2.54-2-3.53-2.67-1.75-1.46-3.43-3-5.11-4.54l4-4c1.51,1.4,3.06,2.81,4.94,4.36,1.11.78,2.18,1.62,3.24,2.45a67.54,67.54,0,0,0,6.29,4.47l10.08,5.85.12.05L115.71,457a5.73,5.73,0,0,0-.11,4.36,5.61,5.61,0,0,0,3,3.17,146.35,146.35,0,0,0,52,12.52h.29a5.7,5.7,0,0,0,5.64-5.41l.87-17.09a5.68,5.68,0,0,0-5.33-6l-5.94-.3-6.33-1c-.81-.14-1.63-.25-2.43-.37-1.23-.18-2.45-.35-3.52-.6l-.78-.2,1.48-5.59A114.16,114.16,0,0,0,184.42,443l2.93,28.53a5.78,5.78,0,0,0,2.06,3.85,5.63,5.63,0,0,0,4.15,1.24,144.31,144.31,0,0,0,51.28-15.44,5.74,5.74,0,0,0,2.46-7.67l-7.7-15.24a5.63,5.63,0,0,0-7.4-2.58c-1.13.53-2.26,1.09-3.39,1.64a57.62,57.62,0,0,1-8.06,3.51l-1.44.54c-1.7.63-3.35,1.25-5,1.81l-1.48-5.59a111.28,111.28,0,0,0,27-13l16.69,23.18a5.61,5.61,0,0,0,7.88,1.25,147.59,147.59,0,0,0,36.81-39.11,5.78,5.78,0,0,0,.79-4.29,5.68,5.68,0,0,0-2.45-3.6l-14.19-9.34a5.61,5.61,0,0,0-4.33-.78,5.69,5.69,0,0,0-3.57,2.6,72.47,72.47,0,0,1-4.49,6.38c-1,1.29-2,2.59-2.65,3.59-1.45,1.77-3,3.47-4.5,5.16l-3.91-3.95a113.58,113.58,0,0,0,16.95-25l25.89,11.66a5.63,5.63,0,0,0,7.46-2.89,150.25,150.25,0,0,0,12.38-52.56,5.68,5.68,0,0,0-5.35-6L302.36,330a5.71,5.71,0,0,0-5.92,5.38l-.3,6-1,6.39c-.15.82-.26,1.65-.38,2.48-.17,1.23-.34,2.47-.59,3.53l-.19.79-5.44-1.47,0-.14c.31-1.33.5-2.68.69-4,.09-.63.17-1.26.29-2l.86-5.6a5.93,5.93,0,0,0,.07-.59l.29-6V323.19l0-.26,28.35-3a5.65,5.65,0,0,0,3.8-2.08,5.8,5.8,0,0,0,1.23-4.19,150.08,150.08,0,0,0-15.28-51.82,5.62,5.62,0,0,0-7.59-2.48l-15.08,7.78a5.73,5.73,0,0,0-2.55,7.48c.52,1.13,1.06,2.25,1.6,3.37a57.41,57.41,0,0,1,3.49,8.19l.55,1.51c.63,1.7,1.24,3.35,1.78,5l-5.53,1.5a113.71,113.71,0,0,0-12.89-27.3L295.6,250a5.73,5.73,0,0,0,1.25-8A147.39,147.39,0,0,0,258.14,204.88Zm3.44,56.06a5.75,5.75,0,0,0-1.24,8,102.24,102.24,0,0,1,15.91,33.7,5.66,5.66,0,0,0,6.91,4l16.35-4.41a5.72,5.72,0,0,0,4.07-6.71,85,85,0,0,0-3.68-11.78l-.46-1.22a57.88,57.88,0,0,0-3.16-7.74l5-2.59a139.28,139.28,0,0,1,10.93,37l-27.95,2.94a5.7,5.7,0,0,0-5.05,6l.29,5.53v10.9l-.27,5.38-.81,5.23c-.13.75-.23,1.5-.34,2.25-.14,1-.27,2-.46,2.87l-1.41,5.49a5.71,5.71,0,0,0,4,6.94l16.36,4.42a5.59,5.59,0,0,0,4.3-.59,5.73,5.73,0,0,0,2.62-3.5l1.65-6.51c.35-1.52.57-3.06.79-4.61.11-.73.21-1.46.35-2.28l1-7.05,0-.87,5.54.29a139.69,139.69,0,0,1-8.83,37.55L278.44,368a5.58,5.58,0,0,0-4.32-.12,5.65,5.65,0,0,0-3.13,3,102.41,102.41,0,0,1-20.93,30.87,5.74,5.74,0,0,0,0,8.05l12,12.1a5.5,5.5,0,0,0,4.15,1.67,5.67,5.67,0,0,0,4.06-1.91c1-1.15,2-2.27,3.05-3.4,2-2.15,3.91-4.3,6-6.86.86-1.22,1.76-2.42,2.66-3.61.63-.83,1.27-1.67,1.9-2.53l4.74,3.12a136.07,136.07,0,0,1-26.31,27.95l-16.55-23a5.65,5.65,0,0,0-3.68-2.28,5.58,5.58,0,0,0-4.2,1,100,100,0,0,1-33.34,16.08,5.61,5.61,0,0,0-3.43,2.65,5.7,5.7,0,0,0-.57,4.33l4.38,16.53a5.63,5.63,0,0,0,6.63,4.11,83.82,83.82,0,0,0,11.7-3.74l1.17-.44a57.49,57.49,0,0,0,7.65-3.2l2.57,5.08A135.66,135.66,0,0,1,198,464.57l-2.89-28.24a5.72,5.72,0,0,0-2-3.84,5.61,5.61,0,0,0-4.13-1.25,102.62,102.62,0,0,1-37-3,5.63,5.63,0,0,0-4.28.57,5.72,5.72,0,0,0-2.63,3.47l-4.38,16.53a5.8,5.8,0,0,0,.58,4.35,5.63,5.63,0,0,0,3.47,2.64l6.43,1.67c1.51.36,3,.58,4.58.81.72.1,1.43.21,2.25.35l7,1,.87.05-.29,5.6a135.66,135.66,0,0,1-37.16-8.93l11.44-25.93a5.73,5.73,0,0,0-2.7-7.46l-4.69-2.26-9.62-5.59a54.92,54.92,0,0,1-5.14-3.71c-1.2-.92-2.4-1.85-3.27-2.45-1.63-1.35-3.19-2.8-4.75-4.25-1.16-1.08-2.33-2.16-3.52-3.21a5.6,5.6,0,0,0-7.7.27l-12,12.09a5.72,5.72,0,0,0,.24,8.29q1.66,1.51,3.31,3.05c2.15,2,4.29,4,6.84,6.09,1.21.87,2.38,1.78,3.56,2.69.83.63,1.66,1.28,2.52,1.92l-3.09,4.79A136.12,136.12,0,0,1,72.17,414.1l22.72-16.71a5.74,5.74,0,0,0,1.25-8,102.14,102.14,0,0,1-15.91-33.7,5.65,5.65,0,0,0-6.91-4L57,356.1a5.72,5.72,0,0,0-4.06,6.71,85,85,0,0,0,3.68,11.78l.45,1.22a57.93,57.93,0,0,0,3.17,7.74l-5,2.59a138.51,138.51,0,0,1-10.93-37l27.94-2.94a5.67,5.67,0,0,0,5-6.22,105.67,105.67,0,0,1,3-37.35,5.74,5.74,0,0,0-.56-4.33,5.65,5.65,0,0,0-3.43-2.66L59.87,291.2a5.58,5.58,0,0,0-4.3.59,5.69,5.69,0,0,0-2.62,3.5l-1.66,6.51c-.34,1.52-.57,3.06-.79,4.61-.11.73-.2,1.46-.34,2.28l-1,7.05,0,.87-5.54-.29a139.7,139.7,0,0,1,8.84-37.55L78,290.34a5.65,5.65,0,0,0,4.33.11,5.72,5.72,0,0,0,3.13-3,102.22,102.22,0,0,1,20.92-30.86,5.76,5.76,0,0,0,0-8.06l-12-12.1a5.6,5.6,0,0,0-8.21.24q-1.52,1.72-3.06,3.4c-2,2.15-3.91,4.3-6,6.86-.86,1.23-1.77,2.42-2.67,3.62-.63.83-1.26,1.66-1.89,2.52l-4.74-3.12a136.26,136.26,0,0,1,26.3-28l16.55,23a5.6,5.6,0,0,0,3.69,2.28,5.54,5.54,0,0,0,4.2-1l1.31-1a21,21,0,0,1,2.77-1.91l9.24-5.4c1.08-.5,2.16-1,3.23-1.57a44.41,44.41,0,0,1,6.61-2.86l1.68-.63a56,56,0,0,1,8.18-2.62,5.62,5.62,0,0,0,3.66-2.59,5.75,5.75,0,0,0,.65-4.47l-4.38-16.53a5.65,5.65,0,0,0-6.63-4.1,82.48,82.48,0,0,0-11.7,3.73l-1.17.45a57.49,57.49,0,0,0-7.65,3.2l-2.57-5.09a135.64,135.64,0,0,1,36.64-11L161.38,222a5.75,5.75,0,0,0,2,3.85,5.59,5.59,0,0,0,4.14,1.24,103.07,103.07,0,0,1,37,3,5.58,5.58,0,0,0,4.28-.57,5.7,5.7,0,0,0,2.63-3.46l4.38-16.53a5.75,5.75,0,0,0-.58-4.35,5.64,5.64,0,0,0-3.47-2.65l-6.42-1.67c-1.52-.35-3.05-.58-4.59-.81-.71-.1-1.43-.2-2.24-.34l-7-1.05-.88-.05.29-5.6A135.66,135.66,0,0,1,228.1,202L216.66,227.9a5.75,5.75,0,0,0-.11,4.37,5.66,5.66,0,0,0,3,3.17,101.38,101.38,0,0,1,30.56,21.14,5.6,5.6,0,0,0,8,0l12-12.09a5.75,5.75,0,0,0-.24-8.3c-1.12-1-2.22-2-3.32-3-2.14-2-4.29-4-6.84-6.09-1.21-.87-2.38-1.78-3.56-2.69-.82-.64-1.66-1.28-2.51-1.92l3.08-4.79a135.59,135.59,0,0,1,27.66,26.58Z"/><path class="cls-5" d="M178.24,237.91a90,90,0,0,0-78.36,45.77,91.89,91.89,0,0,0,.48,91.45,5.73,5.73,0,0,0,.35.59,91.51,91.51,0,0,0,23,26c.14.11.23.26.38.34s.08,0,.12,0a88.85,88.85,0,0,0,108,0,.84.84,0,0,0,.14-.06c.16-.08.25-.24.39-.34a91.47,91.47,0,0,0,23-26,4.36,4.36,0,0,0,.35-.59,91.9,91.9,0,0,0,.49-91.45A90,90,0,0,0,178.24,237.91Zm-10.18,12.15L105.42,360.15a80.48,80.48,0,0,1,4.31-70.74A78.89,78.89,0,0,1,168.06,250.06ZM134.37,395.52l43.87-77,43.86,77a78.09,78.09,0,0,1-87.73,0Zm96.69-7.15-45.48-79.88a8.43,8.43,0,0,0-14.69,0l-45.47,79.88A79.78,79.78,0,0,1,111.68,372l66.56-117,12.91,22.62c.08.17.16.35.25.51L244.79,372a79.94,79.94,0,0,1-13.73,16.34Zm20-28.22-49.6-87.21c-.08-.18-.17-.35-.26-.52l-12.76-22.36a78.92,78.92,0,0,1,58.31,39.36,80.51,80.51,0,0,1,4.32,70.72Z"/><path class="cls-6" d="M597.1,33.42c-131.18,0-239,88.6-251.44,202L271,265.12s-4.89,1.81-4.4,8.81a9.51,9.51,0,0,0,5.58,8.16l78.16,23.46C375.24,406,476.25,481.23,597.1,481.23c139.53,0,252.64-100.25,252.64-223.91S736.63,33.42,597.1,33.42Z"/><path class="cls-7" d="M597.06.25c-131.18,0-239.45,89.42-251.5,202.82l-74.56,30s-4.88,1.83-4.36,8.83a9.52,9.52,0,0,0,5.6,8.14l78.25,23.19c25.23,100.39,125.72,174.84,246.57,174.84,139.53,0,252.64-100.25,252.64-223.9S736.59.25,597.06.25Z"/><path class="cls-8" d="M526.12,233.2h-8.33v7.11h7.94l.22-3h3.76v6.8H510.23v-3l2.62-.51V222.78l-2.62-.52v-3h19.44v6.81h-3.78l-.22-3h-7.88v6.26h8.33Z"/><path class="cls-8" d="M532.19,241.15l2.37-.51V229.17l-2.62-.51v-3h7.22l.22,2.65a6.78,6.78,0,0,1,2.25-2.21,5.84,5.84,0,0,1,3-.78,5.44,5.44,0,0,1,4.32,1.76q1.56,1.76,1.56,5.52v8l2.37.51v3h-9.44v-3l2.12-.51v-8a3.75,3.75,0,0,0-.75-2.64,3,3,0,0,0-2.25-.77,3.77,3.77,0,0,0-1.76.4,3.61,3.61,0,0,0-1.3,1.13v9.92l2,.51v3h-9.31Z"/><path class="cls-8" d="M562.87,240.67a2.9,2.9,0,0,0,2.12-.78,2.77,2.77,0,0,0,.79-2.07h4.47l0,.1a5.81,5.81,0,0,1-2.08,4.69,8.73,8.73,0,0,1-11.66-.73,10,10,0,0,1-2.21-6.71v-.52a9.87,9.87,0,0,1,2.28-6.71,8.06,8.06,0,0,1,6.48-2.63,11.2,11.2,0,0,1,4,.66,7.87,7.87,0,0,1,2.93,1.88l.07,4.94h-4l-.81-2.89a3.22,3.22,0,0,0-2.15-.75,3.11,3.11,0,0,0-3,1.54,8.12,8.12,0,0,0-.86,4v.52a8.6,8.6,0,0,0,.79,4A2.88,2.88,0,0,0,562.87,240.67Z"/><path class="cls-8" d="M572.53,234.72a10,10,0,0,1,2.29-6.77,9,9,0,0,1,12.69,0,10,10,0,0,1,2.29,6.78v.36a10,10,0,0,1-2.29,6.79,9,9,0,0,1-12.69,0,9.91,9.91,0,0,1-2.29-6.79Zm4.94.36a8.07,8.07,0,0,0,.88,4.06,3.36,3.36,0,0,0,5.64,0,8.05,8.05,0,0,0,.89-4v-.36a7.91,7.91,0,0,0-.9-4,3,3,0,0,0-2.83-1.56,3,3,0,0,0-2.8,1.56,8,8,0,0,0-.88,4Z"/><path class="cls-8" d="M591.67,241.15l2.37-.51V229.17l-2.62-.51v-3h7.22l.22,2.65a6.78,6.78,0,0,1,2.25-2.21,5.84,5.84,0,0,1,3-.78,5.44,5.44,0,0,1,4.32,1.76q1.56,1.76,1.56,5.52v8l2.37.51v3h-9.44v-3l2.12-.51v-8a3.75,3.75,0,0,0-.75-2.64,3,3,0,0,0-2.25-.77,3.77,3.77,0,0,0-1.76.4,3.61,3.61,0,0,0-1.3,1.13v9.92l2,.51v3h-9.31Z"/><path class="cls-8" d="M621.22,221.12v4.53h3.21v3.5h-3.21v9.42a2.21,2.21,0,0,0,.44,1.54,1.58,1.58,0,0,0,1.18.46c.34,0,.64,0,.89,0a8.71,8.71,0,0,0,.86-.15L625,244a12.49,12.49,0,0,1-1.64.38,10.78,10.78,0,0,1-1.76.13,5.22,5.22,0,0,1-3.93-1.42,6.26,6.26,0,0,1-1.38-4.5v-9.43h-2.69v-3.5h2.69v-4.53Z"/><path class="cls-8" d="M627.23,241.15l2.36-.51V229.17l-2.62-.51v-3h7.22l.22,2.7a5.82,5.82,0,0,1,1.66-2.24,3.66,3.66,0,0,1,2.35-.8,6,6,0,0,1,.82.06,4.6,4.6,0,0,1,.72.14l-.52,4.55-2-.05a3.5,3.5,0,0,0-1.8.42,2.79,2.79,0,0,0-1.08,1.22v9l2.37.51v3h-9.67Z"/><path class="cls-8" d="M649.87,244.5a8.17,8.17,0,0,1-6.32-2.57,9.19,9.19,0,0,1-2.37-6.51v-.68a10.12,10.12,0,0,1,2.24-6.78,8.3,8.3,0,0,1,11.76-.4,8.73,8.73,0,0,1,2.05,6.1v2.72H646.3l0,.1a4.84,4.84,0,0,0,1.21,3,3.71,3.71,0,0,0,2.91,1.18,9.56,9.56,0,0,0,2.73-.33,13.34,13.34,0,0,0,2.36-1.05l1.34,3.07a9.58,9.58,0,0,1-2.93,1.52A12.38,12.38,0,0,1,649.87,244.5Zm-.44-15.35a2.55,2.55,0,0,0-2.16,1.06,5.55,5.55,0,0,0-1,2.79l.05.08h6.06v-.44a4,4,0,0,0-.74-2.54A2.64,2.64,0,0,0,649.43,229.15Z"/><path class="cls-8" d="M659.41,241.15l2.38-.51V229.17l-2.64-.51v-3h7.58v15l2.37.51v3h-9.69Zm7.32-19.93h-4.94v-3.74h4.94Z"/><path class="cls-8" d="M676.61,235.56h-4.94v-16.3h4.94Zm0,8.58h-4.94v-4.38h4.94Z"/><g class="cls-9"><path class="cls-10" d="M129.28,335.27s2.21,25.89,2.66,27.92-.09.8-.09.8,10,8.68,11.87,1.59S129.28,335.27,129.28,335.27Z"/><path class="cls-3" d="M158.55,258l-2.61,22.21s-.84,5.74-3.15,8.05-16-.66-16-.66l-3.29,27.24,35.14,20,41.92-11.24-1.25-29.43s-18.53.6-31-8.79c-2.46-1.85.62-21,.62-21Z"/><path class="cls-3" d="M214.67,297.69c4-2.14,7.67,2.9,7.67,2.9l41,71.83L228,436s11.89,20,5.94,29l8.21,8.21s1.3,4.4-4.64,4.4-20-10.47-20-10.47l1.63-44.79,26.44-47.69-24.28-36.11-7.59-6.73S207.13,301.68,214.67,297.69Z"/><path class="cls-3" d="M172.05,498.74l-34.37,86.17s-4.43-59.46-9.69-54.2a231.83,231.83,0,0,1-13,37.63c-8.92,20-12.84,47.45-12.84,47.45s8.12,20.6,7.13,29.87c0,0,7.76,53.8,4.64,60s-15.34,2.5-15.34,2.5-20.42,2.68-23.45-2.41,3.83-61.82,3.83-61.82S78,633,81.53,630.5s7.85-8.56,7.85-8.56-1.34-3.57,2.41-8.38,9.27-35.7,9.27-39.75-5,41.54,11.65,29.65c0,0,4.05-82,15.46-93.46s43.88-18.19,43.88-18.19Z"/><path class="cls-11" d="M172.05,498.74l-11,27.55S145.86,533.08,142,534c-2.85.7-23.2,7-22.51,2.89,2.14-12.82,5.09-23.33,8.67-26.91,11.42-11.41,43.88-18.19,43.88-18.19Z"/><path class="cls-3" d="M184.3,486s28.77,108.68,30.91,113.68-9.09-61.1,10.53,7.75c0,0-1.25,9.09-3,12.3S216.82,631.13,222,634s21.94,17.12,29.07,18.37,20.52-5,20.52-5,7.13-2.68,4.9-4.91c0,0-6.51-.26-8.65-2.4s-26.4-21.23-26.4-21.23-7.49-9.63-7.49-10.28-5.35-9.54-5.35-9.54,2-5.35,0-16.23-1-79.43-1-79.43Z"/><path class="cls-11" d="M184.3,486s6.77,25.49,8.78,33c.77,2.89,34.32,5.22,34.32,5.22l.18-20.87Z"/><path class="cls-12" d="M184.3,507.5c5.56,11,44.68,13.37,47.92,14.39,0,0,1-44.3-5.23-69.19S184.3,507.5,184.3,507.5Z"/><g class="cls-13"><path class="cls-10" d="M117.17,531.08s110.59-2,114.53-74.26Z"/></g><path class="cls-3" d="M144.2,243.61s6,27.15,44.92,38.94c16.11,4.88,23.22,2.93,25.71-2,15.65-31.11,16.09-76.33,3.09-94.1C206.52,170.83,141.4,197,141.4,197L145,225.45s-7.66-15.73-14.27-10.28,3.45,24.28,3.45,24.28S139.16,246.31,144.2,243.61Z"/><path class="cls-14" d="M150.21,235.24c5.77,4.73,3.67-8.83,3.67-8.83s3-12,.22-15.09a50.55,50.55,0,0,1-5.52-8.21L224.64,179s9.06-6.95-3.86-16.82a18.09,18.09,0,0,0-16.05-10.58s-4.07-9.55-15.4-5.35c0,0-18.23-6.7-25.19,1.13a7.24,7.24,0,0,0-8,1.81s-4.32.3-6,3.21c0,0-10.51.86-13,6.94,0,0-7.29,5.62-4.95,12.67,0,0-4.25,4.27-1.81,8.83,0,0-10.45,6.22-4.22,13.94,0,0-3.62,5,7.18,10.75l1.28,8.09s3.74-.5,10.33,11.82Z"/><path class="cls-15" d="M181.35,249.75c-.25-.51,22.11,8.26,32.81,4.47,0,0-3.55,18-11.94,17.5C193.58,271.25,185.27,265.22,181.35,249.75Z"/><g class="cls-16"><path class="cls-17" d="M179,252s19.59,12.61,32,6l.11-4.7-32.06-7.39Z"/><path class="cls-18" d="M180.42,261s8.9-4.57,18.54,3.2-3.78,12.46-3.78,12.46Z"/></g><path class="cls-19" d="M214.16,254.22c-11.58,3.18-32.81-4.47-32.81-4.47s5,23.82,22.83,21.73"/><path class="cls-20" d="M140.15,239.53s4.19-15-6.25-22.12"/><g class="cls-21"><path class="cls-22" d="M166.4,166.84s-7.64,5.08-1.92,11.75c2,2.34-10.14,7-10.14,7l-10.71,21.08s5.75-.51,9.16.53l11.73,26-13.7,3.71L121.56,201l-10.15-54.67,40.19-19.08,36.91,2.42-9.7,10.17s-17.34,4.52-13.7,12.65C160.86,153.91,157.25,163.36,166.4,166.84Z"/></g><path class="cls-23" d="M134.81,213.68s-5.7-5-4.05-10.42,43-49.34,94.05-24.2c0,0,6.55,8.32,2.84,10.3,0,0,3.2,7.91-1.93,10.09S202.18,190.59,134.81,213.68Z"/><path class="cls-24" d="M141.36,202.5s47.06-31.48,82.16-14.89C223.52,187.61,188.71,179.08,141.36,202.5Z"/><path class="cls-20" d="M226.58,211.22s-5.83,21.95-41.64,12c0,0-11.84-1.37-19.77-14.46s43.43-9.59,43.43-9.59L225.29,205Z"/><path class="cls-25" d="M208.23,215.9c3.71,6.57,8.86,18.78,5.8,32.2,0,0-13.38.67-17.47-.57"/><ellipse class="cls-26" cx="190.71" cy="218.82" rx="4.37" ry="3.2" transform="translate(-36.98 398.85) rotate(-87.26)"/><path class="cls-27" d="M185.26,214s2.44-6.41,11.1.07"/><ellipse class="cls-26" cx="215.62" cy="218.13" rx="2.98" ry="4.06" transform="translate(-9.89 10.24) rotate(-2.66)"/><path class="cls-27" d="M210.26,215s.31-8.18,9.22-3.89"/><path class="cls-28" d="M212.79,222.26a46.5,46.5,0,0,0-2.1-4.32,1.5,1.5,0,0,0-2.59,1.51,45.47,45.47,0,0,1,2.1,4.33,1.5,1.5,0,0,0,2.59-1.52Z"/><path class="cls-3" d="M128.44,287.63s-29.58-33.45-34-37.88c0,0,74.48-47.25,85.19-47.25a350.17,350.17,0,0,0,42.09,3s12.1-1.39,15.56-3c0,0,4.78-.87,4.78-2.83,0,0-2.83-3.78-7.2-3.78,0,0-8.88-6-14.73-6l-37.68-1.45s-8.46-1.81-13.37,1.45S63.66,243.08,63.66,243.08,102.6,302.3,115.1,314.8,133.52,352,133.52,352s5,15.69,10,20.74,5-43.87-.54-58.23A139.6,139.6,0,0,0,128.44,287.63Z"/><path class="cls-28" d="M240.34,198.19c-11.66,6.07-24.78,5.05-37.4,3.51-6.11-.74-12.23-1.61-18.4-1.76-2.69-.07-5.75-.27-8.36.63-1.25.43-9.05,2.83-15.35,7.65-4.29,3.28-56.07,34.67-56.86,35.11-1.79,1-2.14,1.53-.34.52,1.3-.73,53.22-30.75,57.43-33.94,4.37-3.32,11.3-3.62,14.9-6.26,2.69-2,5.34-.5,6.53-.55,3-.11,2.87.2,5.9.49,6.49.6,16.24,1.65,22.73,2.19,10.62.87,21.24.15,30.83-4.83,1.82-.95.21-3.71-1.61-2.76Z"/><path class="cls-20" d="M129.09,326.94c-.15-6.41.57-13.6-.9-19.87s-6.86-11.73-10.83-16.68c-1.21-1.51-3.32.63-2.12,2.12,4.26,5.31,9.82,10.92,10.41,18,.46,5.42.31,11,.44,16.41,0,1.93,3,1.93,3,0Z"/><path class="cls-20" d="M157.73,265s11.63,10.68,19.67,13.15a45.44,45.44,0,0,0,.19,5.75c.27.92-20.85-10.46-20.85-10.46Z"/><path class="cls-29" d="M123.21,212.38l45.86-23.52s3.74-2.91,13.37-1.46,38.75,1.46,38.75,1.46,10.88,2.41,13.66,6"/><path class="cls-30" d="M238.76,196.93s-17.49,1.69-23.89,1.07-5.38.3-5.38.3"/><path class="cls-31" d="M234.36,195.57s-24.62-.15-28-1"/><path class="cls-28" d="M230.72,193.45s-24.11-.54-25.88-1.26l15.55-.23S229.94,192.66,230.72,193.45Z"/><path class="cls-20" d="M132.69,363.57c8.64.08,10.22-7.92,10.77-15,.4-5.11-.82-10-1.55-15a144.18,144.18,0,0,1-1.41-19.69,1.5,1.5,0,0,0-3,0,147.16,147.16,0,0,0,1.8,22.29c1,6.45,4.26,24.51-6.61,24.41a1.5,1.5,0,0,0,0,3Z"/><path class="cls-32" d="M136.81,287.63s-3.05-5.32-8.37,0c0,0,31.32,78.22,3.41,76.36,0,0,21.29,48.74,19.15,56.59s-37.95,107.8-37.95,107.8,110.59-2,114.53-74.27l-5.23-41.61a350.07,350.07,0,0,0,3.09-42.21c.23-20.31-2-43.65-3.63-59.59a25.7,25.7,0,0,0-7.5-16.16l-10.41-1s8.21,27.54-10.8,30.15C182.84,325.13,155.36,313.15,136.81,287.63Z"/><path class="cls-33" d="M148.55,428.67s58.3,7.76,74.47-10.79c0,0,1.77-3.66-.67-5.38.35,3.42-27.39,18.36-71.35,8.91C151,421.41,145.69,423.32,148.55,428.67Z"/><circle class="cls-34" cx="196.98" cy="425.86" r="13.6"/><path class="cls-35" d="M199.39,434.85s-13.74,1.43-10.53-13.46"/><path class="cls-36" d="M194.75,416.75s13.74-1.35,10.44,13.53"/><path class="cls-4" d="M175,143.6a48.24,48.24,0,0,1,14.37,2.66,15.58,15.58,0,0,1,5.44-1.07c7.23,0,10,6.42,10,6.42a18.09,18.09,0,0,1,16.05,10.58c12.55,9.59,4.35,16.42,3.88,16.8l.15.07s6.55,8.32,2.84,10.3a15.76,15.76,0,0,1,.5,1.56c2.72,1,5.49,2.35,6.7,3.91l-1.33.22.84.52h0l.49.32a8.12,8.12,0,0,1,3.9,1h0a10.55,10.55,0,0,1,1.76,1.19,1.58,1.58,0,0,1,.59-.11c1.45,0,2.41,2.12.85,2.94a46,46,0,0,1-16.5,4.78l1.13,5.49s-.07.23-.21.62c2.55,21-1.11,48-11.54,68.68-1.49,3-4.62,4.85-10.34,4.85-3.86,0-8.88-.86-15.37-2.82a93.05,93.05,0,0,1-11.72-4.43s-.06,3.9.12,5.35a3.06,3.06,0,0,0,.77,1.92c8.32,6.25,19.31,8.07,25.73,8.59-.07-.26-.12-.41-.12-.41l10.41,1a26.11,26.11,0,0,1,2.32,2.63h.1c3.14,0,5.61,3.42,5.61,3.42l41,71.83L228,436s11.89,20,5.94,29l8.21,8.21s1.3,4.4-4.64,4.4c-1.78,0-4.27-.94-6.89-2.24a450.07,450.07,0,0,1,1.64,46.54,46.86,46.86,0,0,0-4.8-.72l0,3h0c-.12,21.11,0,51.61,1.2,58.56,2,10.88,0,16.23,0,16.23s5.35,8.88,5.35,9.54,7.49,10.28,7.49,10.28,24.26,19.09,26.4,21.23,8.65,2.4,8.65,2.4c2.23,2.23-4.9,4.91-4.9,4.91s-11.06,5.16-18.43,5.16a11.56,11.56,0,0,1-2.09-.17c-7.13-1.25-23.9-15.51-29.07-18.37s-1.07-11.06.71-14.27,3-12.3,3-12.3c-6.81-23.9-9.9-31.54-11.13-31.54-2.17,0,1.53,24.06.79,24.06-.05,0-.11-.09-.19-.27-1.36-3.18-13.48-48.24-22.13-80.67l-.07-.24c-.49-1.84-1-3.65-1.44-5.4a23.14,23.14,0,0,1-4.46-2.64,141.3,141.3,0,0,1-23.56,9.34l-25.87,64.86s-2.51-33.76-6-48.15c-1.92.45-3.86.86-5.62,1.14a241.84,241.84,0,0,1-10.54,29.21c1-10,2.32-20.72,4-30.2h0c.53-3.17,1.1-6.2,1.73-9-5.11.42-8.18.47-8.18.47s26.73-74.6,35.38-99.95c-2.18-4.42,1.26-6.41,2.29-6.89.12-.39.22-.71.28-.95,2.14-7.85-19.15-56.59-19.15-56.59h.24c0-.18-.07-.43-.15-.8-.33-1.49-1.6-15.78-2.26-23.32-3-8.05-7.85-18.34-14.58-25.07-12.5-12.5-51.44-71.72-51.44-71.72s31.83-15.81,60.54-30.21l7.16-3.83a8.21,8.21,0,0,1-.74-5.15c-7.39-5-4.44-9.1-4.44-9.1-6.23-7.72,4.22-13.94,4.22-13.94-2.44-4.56,1.81-8.83,1.81-8.83-2.34-7.05,4.95-12.67,4.95-12.67,2.46-6.08,13-6.94,13-6.94,1.69-2.91,6-3.21,6-3.21a6.89,6.89,0,0,1,5.2-2.32,7.74,7.74,0,0,1,2.8.51c2.57-2.88,6.67-3.8,10.82-3.79m-32.25,77.93-.21-.33h0l.22.33m-14.27,66.1c1.78-1.77,3.3-2.36,4.54-2.36a4.85,4.85,0,0,1,3.83,2.36,70.38,70.38,0,0,0,11.91,1.55c1.88,0,3.42-.24,4.07-.89,2.31-2.31,3.15-8.05,3.15-8.05l.8-6.83v-.09l1-8.35c-11.19-10.81-13.53-21.36-13.53-21.36a5.2,5.2,0,0,1-2.46.63c-4.09,0-7.59-4.79-7.59-4.79a66.38,66.38,0,0,1-4.41-10.76c-9.44,5.51-18.48,10.75-23.05,13.39-7.4,4.59-12.26,7.67-12.26,7.67,4.43,4.43,34,37.88,34,37.88m95.11,126.71,22-39.7-20.93-31.12c.56,8.93.91,18.12.81,26.77a349.78,349.78,0,0,1-3.09,42.2,3,3,0,0,1,1.2,1.85M175,138.54h0c-5,0-9.13,1.13-12.23,3.36a12.11,12.11,0,0,0-1.39-.08,11.79,11.79,0,0,0-7.52,2.64,13.54,13.54,0,0,0-6.32,3.21c-3.8.65-11.2,2.66-14.42,8.51-3.2,2.87-7,8.26-6.3,14.61a13,13,0,0,0-2.15,8.13,16.06,16.06,0,0,0-5.3,8.76,12,12,0,0,0,1.32,7.89,9.5,9.5,0,0,0,0,3.05,13.39,13.39,0,0,0,4.77,7.68s0,.11,0,.16l-3.61,1.93c-28.35,14.22-60.14,30-60.45,30.16a5.06,5.06,0,0,0-2,7.3c1.6,2.44,39.37,59.81,52.08,72.52,6,6,10.46,15.51,13.18,22.64,1.38,15.75,1.91,20.6,2.14,22.3a5,5,0,0,0,.38,2.7c0,.12,5.13,11.76,10,24.37,7.42,19.21,8.68,26,8.87,28.18a9.26,9.26,0,0,0-3,9.94C134,455,108.56,525.94,108.3,526.67a5.05,5.05,0,0,0,4.75,6.76h.1l1.84-.07c-.16.89-.32,1.8-.48,2.72v0c-1.48,8.48-2.83,18.73-4,30.48a5.06,5.06,0,0,0,3.74,5.4,5.19,5.19,0,0,0,1.29.17,5.06,5.06,0,0,0,4.62-3c3.55-8.08,6.32-15.72,8.37-22,2.44,15.66,4.12,37.89,4.14,38.16a5.05,5.05,0,0,0,4.27,4.62,4.9,4.9,0,0,0,.77.06,5.06,5.06,0,0,0,4.69-3.18l25-62.63a146.78,146.78,0,0,0,19.4-7.63l.52.3.86,3.23.06.23c20.63,77.27,21.95,80.35,22.38,81.36A5.2,5.2,0,0,0,215.4,605a5.14,5.14,0,0,0,3.78-1.68l.09-.1,1.31,4.55c-.58,3.77-1.57,8.21-2.29,9.51-3.47,6.25-4.6,11.24-3.44,15.28a9.66,9.66,0,0,0,4.7,5.87c1.41.77,4.37,3,7.52,5.26,9.72,7.15,17.6,12.69,23.12,13.66a17.31,17.31,0,0,0,3,.24c8,0,18.51-4.69,20.39-5.55,3.37-1.29,7.48-3.6,8.28-7.33a6.21,6.21,0,0,0-1.77-5.81,5,5,0,0,0-3.36-1.47,17,17,0,0,1-5.41-1c-2.67-2.54-21.31-17.24-26.24-21.13-2.58-3.33-5.5-7.22-6.37-8.55a69.74,69.74,0,0,0-4.69-8.51c.55-2.95,1-8.39-.42-16.29-.86-4.79-1.27-24.74-1.13-54.94a5.05,5.05,0,0,0,4.84-4.93c0-.88.42-19.47-1-39.44.42,0,.83.07,1.22.07,4.61,0,7-1.93,8.22-3.54a8.52,8.52,0,0,0,1.26-7.35,5.13,5.13,0,0,0-1.27-2.14l-5.77-5.77c1.39-4.8.72-11-2-18.48a77.47,77.47,0,0,0-4.17-9.38l34-61.1a5,5,0,0,0,0-5l-41-71.84c-.09-.15-.18-.3-.29-.45a14.06,14.06,0,0,0-7.14-5.16q-.66-.77-1.41-1.5a5,5,0,0,0-3.1-1.46l-2.84-.27a13,13,0,0,0,7.41-6.45c10.15-20.18,14.78-47.08,12.16-70.48a5.17,5.17,0,0,0,0-2.11l-.06-.29a48.5,48.5,0,0,0,12.81-4.48,6.4,6.4,0,0,0,3.33-7.29,6.87,6.87,0,0,0-5.52-5.11c-.24-.15-.47-.29-.71-.42a3.88,3.88,0,0,0-.45-.24,13.64,13.64,0,0,0-2.36-1,15.28,15.28,0,0,0-4.75-3.52c.19-3-1.22-6.17-2.8-8.74a12.71,12.71,0,0,0,1.76-6.57c-.05-4.78-2.73-9.36-7.95-13.63a23.11,23.11,0,0,0-17.07-12.11,15.84,15.84,0,0,0-13-6.69,19.49,19.49,0,0,0-5.43.81A51.51,51.51,0,0,0,175,138.54ZM109.29,246.42c4.34-2.51,10.88-6.3,17.75-10.31,1.35,3.26,2.58,5.57,2.66,5.72a4.6,4.6,0,0,0,.37.6c.8,1.08,4.88,6.29,10.71,6.82a56.81,56.81,0,0,0,11.65,17.55l-.7,5.93v.1l-.79,6.74a18.22,18.22,0,0,1-1.33,4.53l-.88,0a57.11,57.11,0,0,1-9.15-1.09,9.36,9.36,0,0,0-6.59-2.81,9.58,9.58,0,0,0-3.69.75c-6-6.79-19.66-22.16-27-30.2l7-4.35ZM229.46,393.26c.51-6.64.94-14.5,1-22.92,0-2.91,0-5.94,0-9.12l9.19,13.68-10.18,18.36Z"/></g></svg>