<svg xmlns="http://www.w3.org/2000/svg" viewBox="0 0 337.54 206.46"><defs><style>.cls-1{fill:#f9f9f9;}.cls-2{fill:#f19d00;}.cls-3{fill:#e47a09;}.cls-4{fill:#f3c600;}.cls-5{fill:#39485d;}.cls-6{fill:#ffdf4e;}.cls-7{fill:#e69b6d;}.cls-8{fill:#f3f6f7;}.cls-9{fill:#c0311e;}.cls-10{fill:#e24030;}.cls-11{fill:#d14c16;}.cls-12{fill:#8f3714;}.cls-13{fill:#1a6935;}.cls-14{fill:#178743;}.cls-15{fill:#129947;}.cls-16{fill:#23a552;}.cls-17{fill:#b9a486;}.cls-18{fill:#953315;}.cls-19{fill:#64290c;}.cls-20{fill:#ac6018;}.cls-21{fill:#1f5728;}.cls-22{fill:#a12c19;}.cls-23{fill:#088269;}.cls-24{fill:#089b7f;}.cls-25{fill:#2cb195;}.cls-26{fill:#c8cbcf;}.cls-27{fill:#4d698b;}.cls-28{fill:#323e50;}.cls-29{fill:#f1f4f6;}.cls-30{fill:#f3c296;}.cls-31{fill:#fcd4ae;}.cls-32{fill:#ffe052;}.cls-33{fill:#572a11;}.cls-34{fill:#ef7c73;}.cls-35{fill:#077f67;}.cls-36{fill:#eef2cc;}.cls-37{fill:#53b262;}.cls-38{fill:#73bb6a;}</style></defs><title>6-Prob1</title><g id="Camada_2" data-name="Camada 2"><g id="Camada_1-2" data-name="Camada 1"><ellipse class="cls-1" cx="171.41" cy="111.04" rx="124.16" ry="72.27"/><path class="cls-2" d="M225.77,44.14C215,56.85,178.52,72.55,163.61,71.29c-.47,0,.11,3.13-.2,3.26,16.94,17.92,59.74,16.37,62.36-30.41Z"/><path class="cls-3" d="M181.06,80.82c16.64,0,29.58-12,33.56-27.56a52,52,0,0,0,11.15-9.12c-2.48,44.29-41,48-59.44,33.09a33.14,33.14,0,0,0,14.73,3.59Z"/><path class="cls-4" d="M225.14,43.48l.63.66c-6.9,19.12-29.93,40.26-62.16,27.15-.44-.18-.68-2.34-1.12-2.53,14.9,1.47,52.27-17,62.65-25.28Z"/><path class="cls-5" d="M164.39,71.6l-1.9-2.84a9.18,9.18,0,0,0-1.23,2.84c0,.85,1.12,2.85,2.15,3s1.76-2.64,1-3Z"/><path class="cls-2" d="M217.63,49.58a1.2,1.2,0,1,0,1.19-1.23,1.21,1.21,0,0,0-1.19,1.23Z"/><path class="cls-2" d="M216.83,54.31a1,1,0,1,0,1-1,1,1,0,0,0-1,1Z"/><path class="cls-2" d="M209.24,55.64a1.53,1.53,0,1,0,1.53-1.58,1.55,1.55,0,0,0-1.53,1.58Z"/><path class="cls-2" d="M205.81,57.35a.92.92,0,1,0,.92-1,.93.93,0,0,0-.92,1Z"/><path class="cls-2" d="M203,57.92a.67.67,0,1,0,.67-.7.68.68,0,0,0-.67.7Z"/><path class="cls-2" d="M208.42,60.63a1.18,1.18,0,1,0,1.17-1.21,1.19,1.19,0,0,0-1.17,1.21Z"/><path class="cls-2" d="M197,61.32a.67.67,0,1,0,.67-.69.68.68,0,0,0-.67.69Z"/><path class="cls-2" d="M189.24,66.16a1.47,1.47,0,1,0,1.47-1.52,1.5,1.5,0,0,0-1.47,1.52Z"/><path class="cls-2" d="M186.2,66.79a.62.62,0,1,0,.62-.63.63.63,0,0,0-.62.63Z"/><path class="cls-2" d="M181.43,67.11a.92.92,0,1,0,.92-1,.94.94,0,0,0-.92,1Z"/><path class="cls-2" d="M177.89,68a.8.8,0,0,0,.79.81.81.81,0,0,0,0-1.62.8.8,0,0,0-.79.81Z"/><path class="cls-2" d="M226.91,44.93c-2.22,16.76-24.18,50.62-37.29,58.07-.41.24,1.78,2.55,1.58,2.84,23.72,5.27,58.56-20.43,35.71-60.91Z"/><path class="cls-4" d="M226,44.74l.89.19c4.47,19.87-3.4,50.62-37.29,58.07-.46.1-1.82-1.56-2.29-1.47,13.22-7.27,34.5-43.93,38.69-56.79Z"/><path class="cls-5" d="M190.44,102.81l-3.11-1.28a9.5,9.5,0,0,0,.5,3.07c.46.71,2.46,1.73,3.37,1.24s.06-3.21-.76-3Z"/><path class="cls-2" d="M223,54.11a1.16,1.16,0,0,0,1.65.34,1.25,1.25,0,0,0,.34-1.7,1.17,1.17,0,0,0-1.66-.35,1.25,1.25,0,0,0-.33,1.71Z"/><path class="cls-2" d="M224.89,58.5a1,1,0,0,0,1.38.29,1,1,0,0,0,.28-1.42,1,1,0,0,0-1.38-.29,1,1,0,0,0-.28,1.42Z"/><path class="cls-2" d="M219.28,63.94a1.5,1.5,0,0,0,2.12.45,1.61,1.61,0,0,0,.43-2.19,1.5,1.5,0,0,0-2.12-.45,1.6,1.6,0,0,0-.43,2.19Z"/><path class="cls-2" d="M217.33,67.33a.91.91,0,0,0,1.28.26,1,1,0,0,0,.26-1.31.91.91,0,0,0-1.28-.27,1,1,0,0,0-.26,1.32Z"/><path class="cls-2" d="M215.29,69.4a.66.66,0,0,0,.93.2.72.72,0,0,0,.19-1,.66.66,0,0,0-.93-.19.69.69,0,0,0-.19,1Z"/><path class="cls-2" d="M221.27,68.57a1.15,1.15,0,0,0,1.62.34,1.23,1.23,0,0,0,.33-1.68,1.14,1.14,0,0,0-1.62-.34,1.23,1.23,0,0,0-.33,1.68Z"/><path class="cls-2" d="M212.11,75.67a.66.66,0,0,0,.93.19.7.7,0,0,0,.19-1,.66.66,0,0,0-.93-.2.71.71,0,0,0-.19,1Z"/><path class="cls-2" d="M208.24,84.12a1.44,1.44,0,0,0,2,.42,1.54,1.54,0,0,0,.41-2.1,1.44,1.44,0,0,0-2-.43,1.55,1.55,0,0,0-.41,2.11Z"/><path class="cls-2" d="M206.05,86.37a.61.61,0,0,0,.85.18.65.65,0,0,0,.17-.88.61.61,0,0,0-.85-.18.65.65,0,0,0-.17.88Z"/><path class="cls-2" d="M202.24,89.36a.89.89,0,0,0,1.27.26,1,1,0,0,0,.26-1.31.89.89,0,0,0-1.27-.26,1,1,0,0,0-.26,1.31Z"/><path class="cls-2" d="M199.74,92.07a.77.77,0,0,0,1.09.23.82.82,0,0,0,.22-1.12A.76.76,0,0,0,200,91a.82.82,0,0,0-.22,1.12Z"/><path class="cls-4" d="M223.5,33.57c-.82-.72-2.76-.34-3.61,0A5.27,5.27,0,0,0,217.55,35L216,36.63a1.35,1.35,0,0,0-.48,1.55c0,.25.09.49.14.74a9.52,9.52,0,0,0,.29,1.17,3.41,3.41,0,0,0,2.82,2.3,2.65,2.65,0,0,0,2.74-2.18l1,1a9.5,9.5,0,0,1,.78,1,2.28,2.28,0,0,1-.17,2.58c-.15.19-.33.38-.31.62l.34.49c.49.37,1.11.84,1.6.37a2.23,2.23,0,0,0,.48-1.86c.18.59.34,1.18.51,1.76s.1.73.63.68c.7-.08.92-.84.87-1.45A10.5,10.5,0,0,0,226,42.26c-1-2.08-2.09-4.24-2.08-6.62a4.44,4.44,0,0,0-.15-1.67l-.28-.4Z"/><path class="cls-6" d="M222.54,33.2a1.61,1.61,0,0,0-.23,1,2,2,0,0,0,.23.86,1.88,1.88,0,0,1-.45,1.56c-.06.26-.11.49-.14.72a2.49,2.49,0,0,0-.72,1.54,6.07,6.07,0,0,1-3,1,4.74,4.74,0,0,1-2.62-1.51l0-.24a1.35,1.35,0,0,1,.48-1.55L217.55,35a5.27,5.27,0,0,1,2.34-1.47,6.36,6.36,0,0,1,2.65-.33Z"/><path class="cls-7" d="M251.59,142.87a34.46,34.46,0,0,1-8-1c-17.29-4.15-26.94-21.14-23.45-41.31C223.83,79,243.14,62,264,62c16.79,0,31.33,9.91,35.46,24.1a28.83,28.83,0,0,1-5,26.13c-2.92,3.55-6.54,6-9.73,8.1a38.51,38.51,0,0,0-6,4.57,29,29,0,0,0-3.4,4.63c-2.28,3.56-5.13,8-10.85,10.66a30.88,30.88,0,0,1-12.88,2.71Z"/><path class="cls-8" d="M251.59,140.17a30.09,30.09,0,0,1-7.09-.84c-17.65-4.23-22.95-22-20.41-36.68,3.35-19.4,21.28-35.23,40-35.28,12.27,0,27.31,6.63,31.56,21.18A24.75,24.75,0,0,1,291.35,111c-2.55,3.1-5.76,5.24-8.86,7.31a41.4,41.4,0,0,0-6.65,5.1,31.36,31.36,0,0,0-3.93,5.28c-2.21,3.45-4.49,7-9.15,9.17a26.68,26.68,0,0,1-11.17,2.34Z"/><path class="cls-9" d="M226.75,101.76c3-17.52,19.16-33,37.32-33,12.38,0,25.34,6.84,29,19.24,1.94,6.68.7,14.52-3.77,20-4.2,5.11-10.74,7.55-15.35,12.23s-6,11-12.28,13.89a25.82,25.82,0,0,1-16.5,1.33c-15.5-3.72-20.89-19.1-18.38-33.6Z"/><path class="cls-8" d="M259,85.6c-3,1-4.4,4.51-4.9,7.67s-.6,6.59-2.52,9.14c-1.6,2.12-4.16,3.22-6.37,4.7s-4.28,3.82-3.91,6.45a17,17,0,0,1,18.47,1.91,22.74,22.74,0,0,0,3.71,3c3,1.57,6.94-.78,4.2-3.77-2.49-2.71-5.07-4.54-6.9-7.93A26,26,0,0,1,259,85.6Z"/><path class="cls-10" d="M277,76.73a16.13,16.13,0,0,1,14.63,14.08c.6,6.16-2.47,12.07-6.06,17.11-2.43,3.41-5.56,6.86-9.72,7.35-4.59.55-8.81-2.78-11.41-6.6-7.69-11.26-4.87-33,12.56-31.94Z"/><path class="cls-10" d="M261.14,78a14.38,14.38,0,0,0,3.17-1.87,3.25,3.25,0,0,0,1.14-3.28c-.69-2.09-3.64-2.09-5.76-1.5A41.57,41.57,0,0,0,229.26,109a9.52,9.52,0,0,0,.41,4,3.8,3.8,0,0,0,3,2.51c2.34.21,3.87-2.27,5.13-4.25a25,25,0,0,1,8.36-8.1c3.73-2.22,5.24-2.08,5-6.66-.36-7.43,3.21-15,10-18.48Z"/><path class="cls-10" d="M250.12,113.39a19.44,19.44,0,0,1,14.56,8.79c1,1.61,1.83,3.56,1.35,5.41-.63,2.46-3.21,3.84-5.63,4.62a30.94,30.94,0,0,1-22-1.26,11.33,11.33,0,0,1-5.48-4.38c-4.74-8.44,11.48-13.64,17.16-13.18Z"/><path class="cls-9" d="M273,109.23a.85.85,0,1,1-.85-.85.85.85,0,0,1,.85.85Z"/><path class="cls-9" d="M278.78,106.5a1.88,1.88,0,1,1-1.88-1.88,1.88,1.88,0,0,1,1.88,1.88Z"/><path class="cls-9" d="M282.18,105.29a.67.67,0,1,1-.67-.67.67.67,0,0,1,.67.67Z"/><path class="cls-9" d="M272.13,102.86a1.76,1.76,0,1,1-1.76-1.76,1.76,1.76,0,0,1,1.76,1.76Z"/><path class="cls-9" d="M244.32,99.4a1.1,1.1,0,1,1-1.09-1.09,1.09,1.09,0,0,1,1.09,1.09Z"/><path class="cls-9" d="M245.54,95.4a.61.61,0,1,1-.61-.61.61.61,0,0,1,.61.61Z"/><path class="cls-9" d="M249.17,98.13a1.28,1.28,0,1,1-1.27-1.28,1.27,1.27,0,0,1,1.27,1.28Z"/><path class="cls-9" d="M240.76,122.56a1,1,0,0,1-1.9,0,.95.95,0,1,1,1.9,0Z"/><path class="cls-9" d="M245.15,119.18a1.95,1.95,0,1,1-1.94-1.94,1.94,1.94,0,0,1,1.94,1.94Z"/><path class="cls-9" d="M247.9,119.57a.64.64,0,1,1-.64-.64.64.64,0,0,1,.64.64Z"/><path class="cls-9" d="M273.81,83.69a1.28,1.28,0,1,1-1.28-1.28,1.27,1.27,0,0,1,1.28,1.28Z"/><path class="cls-9" d="M287.64,90.6a.91.91,0,1,1-.91-.91.91.91,0,0,1,.91.91Z"/><path class="cls-11" d="M171.25,88.93c-7.92,12.46-21.05,18.31-29.31,13s-8.53-19.62-.61-32.08,21.06-18.31,29.32-13.05,8.53,19.62.6,32.08"/><path class="cls-12" d="M143.79,87.08a49.82,49.82,0,0,0,7.39.38A49.9,49.9,0,0,0,154.65,94a52.71,52.71,0,0,1-7.82.3,52.26,52.26,0,0,1-3-7.21m-2.28-8.83a48.56,48.56,0,0,0,6.77.92,56.87,56.87,0,0,0,2.35,7,49.36,49.36,0,0,1-7.3-.48,65.32,65.32,0,0,1-1.82-7.41m6.32-7.44a52.74,52.74,0,0,0,6.41.28,61.27,61.27,0,0,0,1.84,6.7,52.57,52.57,0,0,1-6.83.11,68.87,68.87,0,0,1-1.42-7.09m6.35-7.9a51.75,51.75,0,0,0,6.12-.27c.38,2.3.84,4.48,1.39,6.52a58.1,58.1,0,0,1-6.45.59c-.44-2.16-.8-4.43-1.06-6.84m13.55-1.47a62.45,62.45,0,0,0,1.66,6.06A63,63,0,0,1,163,69c-.55-2-1-4.17-1.42-6.45,2-.24,4.05-.58,6.2-1.06m2.06,7.24a53.78,53.78,0,0,0,2.35,5.66c-2.3.79-4.51,1.42-6.64,1.93a55.38,55.38,0,0,1-2.2-6.09c2.08-.37,4.25-.87,6.49-1.5m-2.11,14.75a68.68,68.68,0,0,1-7,1.72,51.4,51.4,0,0,1-2.81-6.23,61.59,61.59,0,0,0,6.86-1.17,47.93,47.93,0,0,0,3,5.68M155.51,71.05a57.79,57.79,0,0,0,6.53-.66,58.11,58.11,0,0,0,2.16,6.19,59.51,59.51,0,0,1-6.8,1.1,62.05,62.05,0,0,1-1.89-6.63m3.77,14.34a56.43,56.43,0,0,1-7.25.72,56.18,56.18,0,0,1-2.41-6.87,56,56,0,0,0,6.9-.18,54.51,54.51,0,0,0,2.76,6.33m4.34,6.92a65.27,65.27,0,0,1-7.49,1.5,50.67,50.67,0,0,1-3.53-6.41,58.07,58.07,0,0,0,7.31-.83,47,47,0,0,0,3.71,5.74m-5.41,9a62.19,62.19,0,0,1-6.23.92,47.17,47.17,0,0,1-4.44-6.63,56,56,0,0,0,7.89-.46,45.33,45.33,0,0,0,4.22,5.35c.4-.24.79-.47,1.19-.74A44,44,0,0,1,156.92,95a66.21,66.21,0,0,0,7.52-1.62c.57.71,1.14,1.37,1.72,2l.93-1c-.41-.45-.82-.92-1.22-1.4,1.08-.32,2.17-.68,3.29-1.07.44-.57.86-1.16,1.28-1.76-1.85.67-3.66,1.28-5.41,1.78a46.54,46.54,0,0,1-3.73-5.6,69,69,0,0,0,7-1.8,44.07,44.07,0,0,0,3.05,4.17c.26-.42.5-.84.74-1.26-.83-1-1.66-2.13-2.46-3.34,1.62-.53,3.29-1.16,5-1.84.2-.51.38-1,.56-1.52Q172,82,169,83a49.58,49.58,0,0,1-3-5.59c2.15-.53,4.38-1.19,6.68-2a51.11,51.11,0,0,0,2.74,4.66c.19-.57.35-1.14.51-1.71-.69-1.08-1.36-2.2-2-3.41.94-.35,1.9-.72,2.87-1.12.05-.46.11-.92.14-1.37-1.21.5-2.4,1-3.57,1.4A51.05,51.05,0,0,1,171,68.32c1.81-.54,3.67-1.19,5.58-1.93-.08-.4-.18-.8-.28-1.19-2,.75-3.86,1.4-5.71,2a61.34,61.34,0,0,1-1.67-6c1.56-.38,3.17-.84,4.82-1.36a10.63,10.63,0,0,0-.87-1c-1.43.44-2.84.83-4.21,1.16-.28-1.39-.53-2.82-.74-4.31a11.14,11.14,0,0,0-1.29-.35c.22,1.71.5,3.36.81,4.94a58.89,58.89,0,0,1-6.15,1c-.29-1.9-.5-3.91-.66-6-.4.08-.79.15-1.19.25.14,2,.34,4,.62,5.88a54.72,54.72,0,0,1-6,.23c-.11-1.24-.19-2.53-.24-3.83-.4.22-.79.47-1.18.71.05,1,.11,2.07.2,3.07-1.37-.06-2.66-.19-3.93-.35-.45.37-.9.77-1.34,1.18a49.69,49.69,0,0,0,5.38.5q.38,3.65,1,6.9a48.91,48.91,0,0,1-6.32-.34c-.27-2.09-.45-4.3-.56-6.6L146,64c.1,1.83.24,3.6.44,5.29-1.43-.21-2.77-.49-4.07-.81-.27.4-.55.79-.82,1.21a47.9,47.9,0,0,0,5.07,1,70.24,70.24,0,0,0,1.36,7.14,46.58,46.58,0,0,1-6.66-1c-.29-1.79-.5-3.69-.67-5.65-.37.64-.73,1.27-1.06,1.91.12,1.17.26,2.32.43,3.43-.61-.16-1.2-.33-1.79-.51-.17.43-.35.85-.51,1.27.82.25,1.66.49,2.54.7a63.23,63.23,0,0,0,1.72,7.5,43.91,43.91,0,0,1-6-1.5c-.07.47-.12.93-.16,1.39a44.24,44.24,0,0,0,6.63,1.55,54.74,54.74,0,0,0,2.93,7.34A45.69,45.69,0,0,1,137.41,93c-.67-1.88-1.28-3.89-1.81-6a22.32,22.32,0,0,0,.79,7.2h.08c.47,1.27,1,2.47,1.49,3.63a12.44,12.44,0,0,0,3.43,3.75,50.23,50.23,0,0,1-3.4-7,47.89,47.89,0,0,0,8,1,47.6,47.6,0,0,0,4.34,6.82,48.79,48.79,0,0,1-7.79-.11,12.41,12.41,0,0,0,4.84,1.52c1.27,0,2.57-.07,3.92-.18l.05,0a22,22,0,0,0,6.85-2.33"/><path class="cls-2" d="M157.81,71.14c.35,1.39.75,2.74,1.18,4,1.36-.16,2.75-.38,4.16-.64-.47-1.25-.91-2.54-1.31-3.84-1.35.19-2.7.34-4,.44Z"/><path class="cls-2" d="M165.65,70c.41,1.24.86,2.46,1.35,3.65,1.38-.35,2.73-.73,4.08-1.16q-.75-1.68-1.41-3.45c-1.36.37-2.71.69-4,1"/><path class="cls-2" d="M152.07,79.47c.46,1.45,1,2.85,1.52,4.19,1.45-.07,2.94-.2,4.44-.39-.6-1.28-1.16-2.61-1.67-4-1.44.11-2.88.16-4.29.16Z"/><path class="cls-2" d="M156.27,63.11c.19,1.39.41,2.78.68,4.18,1.28-.07,2.58-.17,3.88-.33-.31-1.3-.59-2.65-.83-4-1.25.11-2.5.17-3.73.2Z"/><path class="cls-2" d="M150.93,75.5c1.35,0,2.73,0,4.14,0-.42-1.37-.79-2.77-1.11-4.19-1.32,0-2.63,0-3.93-.13.26,1.49.56,2.94.9,4.34Z"/><path class="cls-2" d="M143.05,74.52q1.94.41,4,.66c-.31-1.46-.58-2.94-.8-4.43-1.24-.19-2.48-.43-3.7-.71.13,1.51.32,3,.54,4.48Z"/><path class="cls-2" d="M149.05,62.72c.09,1.47.22,2.93.39,4.36,1.22.13,2.47.21,3.74.25-.24-1.42-.44-2.85-.6-4.3-1.19-.06-2.37-.16-3.53-.31Z"/><path class="cls-2" d="M153.68,102.36c.2.23.4.43.6.65a22.84,22.84,0,0,0,3-1.17c-1.22.21-2.41.39-3.57.52"/><path class="cls-2" d="M135.58,88.05a23.68,23.68,0,0,0,.19,3.19l.85.26c-.37-1.1-.72-2.26-1-3.45"/><path class="cls-2" d="M174.48,78.9q-.93-1.49-1.77-3.06c-1.38.47-2.76.89-4.15,1.27.57,1.14,1.17,2.23,1.81,3.29q2.06-.69,4.11-1.5"/><path class="cls-2" d="M149.43,83.68c-.52-1.42-1-2.88-1.41-4.36-1.41-.11-2.81-.28-4.19-.51.34,1.54.73,3,1.17,4.51,1.44.18,2.92.31,4.43.36Z"/><path class="cls-2" d="M163.08,58.7c1.21-.16,2.44-.36,3.66-.6-.17-1-.31-1.93-.45-2.92a14.44,14.44,0,0,0-3.62-.2c.11,1.27.24,2.52.41,3.72"/><path class="cls-2" d="M160.38,78.86c.54,1.3,1.12,2.55,1.73,3.75,1.42-.28,2.86-.62,4.31-1-.63-1.14-1.23-2.32-1.78-3.51-1.42.3-2.85.56-4.26.77"/><path class="cls-2" d="M172.45,83.54c.32.44.65.88,1,1.33.16-.27.3-.53.44-.8s.36-.84.54-1.26c-.66.25-1.32.5-2,.73"/><path class="cls-2" d="M173.41,68c.44,1.12.91,2.21,1.4,3.25.72-.27,1.46-.56,2.21-.87a23.62,23.62,0,0,0-.33-3.54c-1.12.42-2.22.81-3.28,1.16"/><path class="cls-2" d="M153.14,91.78c-.75-1.34-1.46-2.71-2.1-4.11-1.53,0-3.08,0-4.61-.16q.88,2.25,1.93,4.37c1.58,0,3.17,0,4.78-.1Z"/><path class="cls-2" d="M136.64,81.39c1.38.46,2.79.86,4.21,1.19-.37-1.5-.71-3-1-4.61-.75-.19-1.48-.42-2.22-.65a35.26,35.26,0,0,0-1.09,3.51l.09.56Z"/><path class="cls-2" d="M155.88,59.17c1.15,0,2.33,0,3.53-.11-.14-1.13-.25-2.29-.34-3.46a22.74,22.74,0,0,0-3.34,1.2c0,.8.09,1.6.15,2.37Z"/><polygon class="cls-2" points="152.24 59.01 152.22 58.72 151.84 58.96 152.24 59.01 152.24 59.01"/><path class="cls-2" d="M145.71,66.54c-.07-.71-.1-1.42-.15-2.14-.51.57-1,1.15-1.51,1.76.55.12,1.09.27,1.66.38Z"/><path class="cls-2" d="M148.5,100.08c-.92-1.37-1.8-2.81-2.61-4.32a48.47,48.47,0,0,1-5-.53,48.29,48.29,0,0,0,2.42,4.63,50,50,0,0,0,5.21.22"/><path class="cls-2" d="M139.07,90.72a46.49,46.49,0,0,0,4.79.84q-.93-2.2-1.73-4.58c-1.52-.26-3-.58-4.48-1,.41,1.62.89,3.19,1.42,4.72"/><path class="cls-2" d="M166,95.3c-.48-.53-.94-1.07-1.39-1.61q-2.31.61-4.59,1c.9,1.15,1.86,2.26,2.86,3.31l.56-.17c.43-.35.85-.7,1.27-1.08L166,95.3"/><path class="cls-2" d="M166.58,91.84c.46.55.92,1,1.38,1.55.73-.85,1.42-1.76,2.09-2.7-1.17.42-2.34.81-3.47,1.15"/><path class="cls-2" d="M155.34,87.44c.69,1.35,1.43,2.63,2.21,3.86,1.51-.22,3-.51,4.57-.85-.79-1.15-1.53-2.35-2.24-3.58-1.52.25-3,.44-4.54.57"/><path class="cls-2" d="M170.63,87.93c-.79-1-1.52-2-2.21-3.05-1.45.43-2.9.81-4.35,1.15.72,1.15,1.48,2.25,2.27,3.3,1.41-.41,2.84-.88,4.29-1.4"/><path class="cls-2" d="M158.23,99.1q-1.47-1.74-2.79-3.65c-1.65.19-3.28.32-4.88.37a44.12,44.12,0,0,0,2.79,4c1.61-.16,3.24-.4,4.88-.7"/><path class="cls-2" d="M164.59,66.38c1.28-.24,2.59-.52,3.91-.85-.38-1.24-.71-2.47-1-3.72-1.26.26-2.52.48-3.8.67.26,1.33.56,2.64.89,3.9"/><path class="cls-2" d="M171.17,60.92c.31,1.21.64,2.4,1,3.57,1.13-.35,2.32-.77,3.53-1.21A14.32,14.32,0,0,0,174,60.09c-.95.3-1.9.58-2.84.83"/><polyline class="cls-2" points="176.5 74.44 176.71 74.8 176.76 74.34 176.5 74.44"/><path class="cls-13" d="M181.18,45.47c6.27-18.8,18.79-19.21,23-17.23-5.74.67-9.13,14.31-19.64,18.56-1.1.45-3.33-1.33-3.33-1.33Z"/><path class="cls-13" d="M176.5,42.49c14.37-13.64,9.44-25.16,5.87-28.11,1.82,5.49-9.1,14.34-8.49,25.66.06,1.19,2.62,2.45,2.62,2.45Z"/><path class="cls-14" d="M171.82,43.07c-2.78,4.38-6.46,15.51-3.48,17.41S179.85,54.33,182.63,50c9.39-14.76,14-34,14-34s-14.79,11.32-24.84,27.11"/><path class="cls-15" d="M176.53,47.28c13.17-15.09,23-8.64,25.3-4.41-4.71-2.47-13.38,9.12-23.34,7.55-1-.16-2-3.14-2-3.14Z"/><path class="cls-15" d="M176.83,47.47c8.08-18.33-1.91-24.47-6.73-24.79,4.24,3.22-2.59,16,3.05,24.34.59.88,3.68.45,3.68.45Z"/><path class="cls-13" d="M169.49,47.85c-1.9,3-3.86,10.9-1.15,12.63s9.06-3.41,11-6.39c6.39-10,8.32-23.91,8.32-23.91s-11.29,6.92-18.13,17.67"/><path class="cls-16" d="M172.13,55.4c8.37-9.92,16.46-6.09,19.68-2.72-4.18-.12-19.71,9.53-20.92,5.45-.32-1.08,1.24-2.73,1.24-2.73"/><path class="cls-16" d="M171.33,54.89c5.45-11.78-1.45-17.48-5.87-19,1.89,3.74-.28,21.9,3.93,21.27,1.11-.17,1.94-2.29,1.94-2.29"/><path class="cls-14" d="M167.12,52.57c-1,1.59-1.24,6.34,1.22,7.91s6.67-.66,7.68-2.25c3.41-5.36,2.62-13.94,2.62-13.94s-7.86,2.54-11.52,8.28"/><path class="cls-17" d="M138.24,98.29a15.79,15.79,0,0,1-2.65-8.86,17.81,17.81,0,0,0,2.65,8.86"/><path class="cls-18" d="M141.94,102h0a12.62,12.62,0,0,1-3.7-3.69,17.81,17.81,0,0,1-2.65-8.86c0-.11,0-.21,0-.31v.2c0,.65.08,1.29.16,1.92h0a19.63,19.63,0,0,0,.61,2.94h.08c.47,1.27,1,2.47,1.49,3.63a12.44,12.44,0,0,0,3.43,3.75h0a50.23,50.23,0,0,1-3.4-7c1,.23,2.15.43,3.29.59l.22.17-.63-.09a48.29,48.29,0,0,0,2.42,4.63,50,50,0,0,0,5.21.22c-.5-.75-1-1.52-1.47-2.32l.2,0a45.12,45.12,0,0,0,3.11,4.61,48.79,48.79,0,0,1-7.79-.11,12.41,12.41,0,0,0,4.84,1.52c1.27,0,2.57-.07,3.92-.18l.05,0a18.63,18.63,0,0,0,2.92-.68h0a21.72,21.72,0,0,0,2.31-.87q.81-.36,1.62-.78a62.19,62.19,0,0,1-6.23.92A44.52,44.52,0,0,1,148.92,98a11.27,11.27,0,0,0,2.93-.22c.48.7,1,1.37,1.5,2,1.61-.16,3.24-.4,4.88-.7-.89-1-1.74-2.16-2.54-3.3l.1-.09a45.87,45.87,0,0,0,3.86,4.83c.4-.24.79-.47,1.19-.74A44,44,0,0,1,156.92,95a66.21,66.21,0,0,0,7.52-1.62c.57.71,1.14,1.37,1.72,2l.93-1c-.41-.45-.82-.92-1.22-1.4l1.33-.41.76.84c.73-.85,1.42-1.76,2.09-2.7h0l.4-.56c-1.85.67-3.66,1.28-5.41,1.78-.63-.81-1.25-1.67-1.86-2.57a15.38,15.38,0,0,0,1.6-2.22c.51.76,1,1.5,1.57,2.21,1.41-.41,2.84-.88,4.29-1.4-.79-1-1.52-2-2.21-3.05-1,.3-2,.58-3,.83a.56.56,0,0,0,0-.12l.23-.3c.88-.23,1.78-.49,2.69-.78a44.07,44.07,0,0,0,3.05,4.17h0c.26-.42.5-.84.74-1.26-.83-1-1.66-2.13-2.46-3.34,1.62-.53,3.29-1.16,5-1.84.2-.51.38-1,.56-1.52Q172,82,169,83c-.31-.5-.61-1-.92-1.54.07-.16.14-.33.2-.5a4.48,4.48,0,0,0-.28-4.07q2.3-.64,4.69-1.48a51.11,51.11,0,0,0,2.74,4.66h0c.19-.57.35-1.14.51-1.71-.69-1.08-1.36-2.2-2-3.41.94-.35,1.9-.72,2.87-1.12.05-.46.11-.92.14-1.37-1.21.5-2.4,1-3.57,1.4A51.05,51.05,0,0,1,171,68.32c1.81-.54,3.67-1.19,5.58-1.93-.08-.4-.18-.8-.28-1.19-2,.75-3.86,1.4-5.71,2a61.34,61.34,0,0,1-1.67-6l.71-.18a5.1,5.1,0,0,0,1.51,0c.3,1.2.64,2.38,1,3.54,1.13-.35,2.32-.77,3.53-1.21A14.32,14.32,0,0,0,174,60.09l-.79.24c.25-.11.5-.23.74-.36,4.83,6.61,4,18.46-2.71,29-7.92,12.46-21.05,18.31-29.31,13m22.62-8.29q-2.31.61-4.59,1c.9,1.15,1.86,2.26,2.86,3.31l.56-.17c.43-.35.85-.7,1.27-1.08L166,95.3c-.48-.53-.94-1.07-1.39-1.61m9.87-10.88c-.66.25-1.32.5-2,.73.32.44.65.88,1,1.33.16-.27.3-.53.44-.8s.36-.84.54-1.26m-1.72-7c-1.38.47-2.76.89-4.15,1.27.57,1.14,1.17,2.23,1.81,3.29q2.06-.69,4.11-1.5-.93-1.49-1.77-3.06m4-1.5-.26.1.21.36,0-.46m-.07-7.54c-1.12.42-2.22.81-3.28,1.16.44,1.12.91,2.21,1.4,3.25.72-.27,1.46-.56,2.21-.87a23.62,23.62,0,0,0-.33-3.54M137.41,93c-.39-1.08-.75-2.2-1.09-3.37,1.17,1.19,2.16,2.58,3.28,3.85q-1.12-.21-2.19-.48m21.49.35A10.15,10.15,0,0,0,160.73,92a19.34,19.34,0,0,0,1.53-1.6c.44.65.9,1.29,1.36,1.9-1.62.42-3.2.77-4.72,1m8-9.68c.17-.26.34-.52.5-.78.1.18.21.36.32.53l-.82.25m1.45-8.14a5.81,5.81,0,0,0,.8-2.43c.66-.18,1.31-.38,2-.59q-.75-1.68-1.41-3.45c-.78.21-1.56.41-2.33.59a2.88,2.88,0,0,0-.56-.2c1-.23,2-.49,3-.78a53.78,53.78,0,0,0,2.35,5.66c-1.3.44-2.58.84-3.83,1.2m-2.24-7.21a6.44,6.44,0,0,0,.55-2.36l1.88-.44c-.38-1.24-.71-2.47-1-3.72-.91.19-1.81.36-2.72.5a3.82,3.82,0,0,0-.46-.21c1.11-.18,2.25-.4,3.41-.66a62.45,62.45,0,0,0,1.66,6.06c-1.12.32-2.23.59-3.32.83m-3.69-7.23a8,8,0,0,0,.9-2.43c1.14-.15,2.29-.34,3.43-.56a5.2,5.2,0,0,0,.63,1.37c0,.24.1.48.14.72-1.75.39-3.46.68-5.1.9"/><path class="cls-19" d="M142.55,102.3a48.79,48.79,0,0,0,7.79.11,45.12,45.12,0,0,1-3.11-4.61,15.41,15.41,0,0,0,1.68.19h0a44.52,44.52,0,0,0,3.06,4.29,62.19,62.19,0,0,0,6.23-.92q-.81.42-1.62.78l.66-.3c-1.22.21-2.41.39-3.57.52.2.23.4.43.6.65a18.63,18.63,0,0,1-2.92.68l-.05,0c-1.35.11-2.65.16-3.92.18a12.41,12.41,0,0,1-4.84-1.52m-1.16-.73A12.44,12.44,0,0,1,138,97.82c-.52-1.16-1-2.36-1.49-3.63h-.08a19.63,19.63,0,0,1-.61-2.94l.84.26c-.25-.73-.48-1.48-.71-2.26l.41.4c.34,1.17.7,2.29,1.09,3.37q1.07.27,2.19.48a14.63,14.63,0,0,0,1.68,1.66c-1.14-.16-2.24-.36-3.29-.59a50.23,50.23,0,0,0,3.4,7m-5.78-12.25v-.2h0a1.34,1.34,0,0,0,0,.2m24,11.22a45.87,45.87,0,0,1-3.86-4.83,10.2,10.2,0,0,0,1.42-1.58,9.81,9.81,0,0,0,1.69-.77c1.52-.28,3.1-.63,4.72-1-.46-.61-.92-1.25-1.36-1.9l.43-.51.48-.56c.61.9,1.23,1.76,1.86,2.57,1.75-.5,3.56-1.11,5.41-1.78l-.4.56c-1.17.42-2.33.81-3.46,1.15.21.24.41.48.62.71l-1.33.41c.4.48.81,1,1.22,1.4l-.93,1c-.58-.64-1.15-1.3-1.72-2A66.21,66.21,0,0,1,156.92,95a44,44,0,0,0,3.92,4.82c-.4.27-.79.5-1.19.74m6-15.25c.41-.53.82-1.06,1.2-1.61l.82-.25c-.11-.17-.22-.35-.32-.53a11.13,11.13,0,0,0,.72-1.42c.31.53.61,1,.92,1.54q3-1,6.22-2.3c-.18.51-.36,1-.56,1.52-1.69.68-3.36,1.31-5,1.84.8,1.21,1.63,2.3,2.46,3.34-.24.42-.48.84-.74,1.26a44.07,44.07,0,0,1-3.05-4.17c-.91.29-1.81.55-2.69.78M168,76.91a2,2,0,0,0-.42-.39,5.31,5.31,0,0,0,.73-1c1.25-.36,2.53-.76,3.83-1.2a53.78,53.78,0,0,1-2.35-5.66c-1,.29-2,.55-3,.78a3.2,3.2,0,0,0-1.31,0,6.42,6.42,0,0,0,.6-1.09c1.09-.24,2.2-.51,3.32-.83a62.45,62.45,0,0,1-1.66-6.06c-1.16.26-2.3.48-3.41.66a3.92,3.92,0,0,0-2.58,0,8.57,8.57,0,0,0,.64-1c1.64-.22,3.35-.51,5.1-.9,0-.24-.09-.48-.14-.72a3.53,3.53,0,0,0,1,1,3.43,3.43,0,0,0,1.33.48l-.71.18a61.34,61.34,0,0,0,1.67,6c1.85-.55,3.76-1.2,5.71-2,.1.39.2.79.28,1.19-1.91.74-3.77,1.39-5.58,1.93a51.05,51.05,0,0,0,2.35,5.56c1.17-.42,2.36-.9,3.57-1.4,0,.45-.09.91-.14,1.37-1,.4-1.93.77-2.87,1.12.63,1.21,1.3,2.33,2,3.41-.16.57-.32,1.14-.51,1.71a51.11,51.11,0,0,1-2.74-4.66q-2.4.84-4.69,1.48"/><path class="cls-18" d="M162.74,55.76a2.26,2.26,0,0,0-.49-.43,2.52,2.52,0,0,0-.58-.27,14.83,14.83,0,0,1,4.76.12,7.3,7.3,0,0,0,0,.81l-.12-.81a14.44,14.44,0,0,0-3.62-.2c0,.26.05.52.07.78"/><path class="cls-20" d="M169.11,73.11a4.29,4.29,0,0,0-.14-1.53,3.11,3.11,0,0,0-1.29-1.74,2.21,2.21,0,0,0-.34-.18c.77-.18,1.55-.38,2.33-.59q.66,1.77,1.41,3.45c-.66.21-1.31.41-2,.59"/><path class="cls-20" d="M154.28,103h0c-.2-.22-.4-.42-.6-.65,1.16-.13,2.35-.31,3.57-.52l-.66.3a21.72,21.72,0,0,1-2.31.87"/><path class="cls-20" d="M135.77,91.24c-.08-.63-.13-1.27-.16-1.92a1.34,1.34,0,0,1,0-.2V89l.31.28c.23.78.46,1.53.71,2.26l-.84-.26h0"/><path class="cls-20" d="M170.37,80.4c-.64-1.06-1.24-2.15-1.81-3.29,1.39-.38,2.77-.8,4.15-1.27q.84,1.57,1.77,3.06-2.05.81-4.11,1.5"/><path class="cls-20" d="M163.28,58.67a3.41,3.41,0,0,0-.54-2.91c0-.26,0-.52-.07-.78a14.44,14.44,0,0,1,3.62.2l.12.81a8,8,0,0,0,.3,2.12c-1.14.22-2.29.41-3.43.56"/><path class="cls-20" d="M173.45,84.87c-.35-.45-.68-.89-1-1.33.66-.23,1.32-.48,2-.73-.18.42-.34.84-.54,1.26s-.28.53-.44.8"/><path class="cls-20" d="M174.81,71.21c-.49-1-1-2.13-1.4-3.25,1.06-.35,2.16-.74,3.28-1.16a23.62,23.62,0,0,1,.33,3.54c-.75.31-1.49.6-2.21.87"/><path class="cls-20" d="M143.29,99.86a48.29,48.29,0,0,1-2.42-4.63l.63.09a4.56,4.56,0,0,0,.42.31l.47.32A13.18,13.18,0,0,0,147,97.76c.47.8,1,1.57,1.47,2.32a50,50,0,0,1-5.21-.22"/><path class="cls-20" d="M162.83,98.05c-1-1-2-2.16-2.86-3.31q2.28-.43,4.59-1c.45.54.91,1.08,1.39,1.61l-1.29,1.5c-.42.38-.84.73-1.27,1.08l-.56.17"/><path class="cls-20" d="M168,93.39l-.76-.84c-.21-.23-.41-.47-.62-.71,1.13-.34,2.29-.73,3.46-1.15h0c-.67.94-1.36,1.85-2.09,2.7"/><path class="cls-20" d="M166.34,89.33c-.54-.71-1.06-1.45-1.57-2.21a6.79,6.79,0,0,0,.62-1.41c1-.25,2-.53,3-.83.69,1,1.42,2.05,2.21,3.05-1.45.52-2.88,1-4.29,1.4"/><path class="cls-20" d="M153.35,99.8c-.52-.66-1-1.33-1.5-2a8.89,8.89,0,0,0,1.93-.68,8.79,8.79,0,0,0,1.91-1.29c.8,1.14,1.65,2.25,2.54,3.3-1.64.3-3.27.54-4.88.7"/><path class="cls-20" d="M166.62,66a4.59,4.59,0,0,0-.45-2.21,3.36,3.36,0,0,0-1.2-1.33l-.19-.12c.91-.14,1.81-.31,2.72-.5.29,1.25.62,2.48,1,3.72l-1.88.44"/><path class="cls-20" d="M172.19,64.49c-.37-1.16-.71-2.34-1-3.54a8.28,8.28,0,0,0,2-.62l.79-.24a14.32,14.32,0,0,1,1.71,3.19c-1.21.44-2.4.86-3.53,1.21"/><polyline class="cls-20" points="176.71 74.8 176.5 74.44 176.76 74.34 176.71 74.8"/><path class="cls-21" d="M168.34,60.48a3.53,3.53,0,0,1-1-1,5.2,5.2,0,0,1-.63-1.37,8,8,0,0,1-.3-2.12,7.3,7.3,0,0,1,0-.81,12,12,0,0,1,4.22,1.67A12.29,12.29,0,0,1,174,60c-.24.13-.49.25-.74.36a8.28,8.28,0,0,1-2,.62,5.1,5.1,0,0,1-1.51,0,3.43,3.43,0,0,1-1.33-.48"/><path class="cls-13" d="M170.5,58.42c3.82-4.29,10.74-2.09,12.79-.33-3.72.27-7.95,6.18-13.52,2.65-.77-.49.73-2.32.73-2.32Z"/><path class="cls-13" d="M169.29,57.65c2.26-5.28-2.65-10.61-5.12-11.72,1.33,3.48-2.22,9.81,3.33,13.36.77.49,1.79-1.64,1.79-1.64Z"/><path class="cls-16" d="M165.7,54.81c-1,1.56.18,4.1,2.64,5.67s5.28,1.6,6.26,0c1.22-2-.87-8.46-.87-8.46s-6.71.83-8,2.8Z"/><path class="cls-11" d="M137.58,58.45c7,13,5.61,27.33-3,32s-21.28-2.2-28.25-15.22-5.62-27.33,3-32,21.28,2.2,28.25,15.22"/><path class="cls-12" d="M122.49,81.47a50.06,50.06,0,0,0,4-6.25,49,49,0,0,0,7.4.18,53.2,53.2,0,0,1-3.58,7,51.59,51.59,0,0,1-7.77-.89m-8.82-2.35a48.67,48.67,0,0,0,4.13-5.44A57.25,57.25,0,0,0,125,75.05a48.47,48.47,0,0,1-4,6.13,64.25,64.25,0,0,1-7.35-2.06M110.29,70a50.15,50.15,0,0,0,3.39-5.44,64.47,64.47,0,0,0,6.74,1.69,51.2,51.2,0,0,1-3.26,6A66,66,0,0,1,110.29,70m-3.76-9.4a53.67,53.67,0,0,0,2.77-5.47c2.18.8,4.31,1.46,6.35,2A55.84,55.84,0,0,1,113,63c-2.09-.68-4.25-1.47-6.47-2.43M111.89,48c2.11.64,4.14,1.13,6.1,1.52a63.07,63.07,0,0,1-1.9,6.33c-2-.51-4.14-1.15-6.31-1.93.76-1.85,1.48-3.82,2.11-5.92m7.32,1.76a54.85,54.85,0,0,0,6.08.73c-.43,2.38-1,4.62-1.57,6.73a56.26,56.26,0,0,1-6.38-1.07q1.05-3,1.87-6.39M131,58.87a67.07,67.07,0,0,1-1.95,7,52.2,52.2,0,0,1-6.8-.62,60.81,60.81,0,0,0,2.34-6.54,52.14,52.14,0,0,0,6.41.2m-16.76,4.52a59,59,0,0,0,2.63-6,56.36,56.36,0,0,0,6.45,1.15A60.79,60.79,0,0,1,121,65a61,61,0,0,1-6.7-1.61m14.34,3.75a55.88,55.88,0,0,1-2.92,6.68,56.47,56.47,0,0,1-7.18-1.28,52,52,0,0,0,3.23-6.1,53.89,53.89,0,0,0,6.87.7m8.16-.38A63.76,63.76,0,0,1,134.4,74a49.91,49.91,0,0,1-7.31-.07A59.31,59.31,0,0,0,130,67.17a46.08,46.08,0,0,0,6.81-.41M142,75.91a60.85,60.85,0,0,1-2.25,5.89,46.09,46.09,0,0,1-8,.6,54.41,54.41,0,0,0,3.47-7.09,45.37,45.37,0,0,0,6.74-1c0-.46,0-.93-.06-1.4a44.38,44.38,0,0,1-6.13,1,66.29,66.29,0,0,0,2.29-7.35c.89-.15,1.74-.32,2.58-.51-.13-.44-.28-.87-.42-1.31-.59.14-1.2.26-1.82.38q.38-1.65.69-3.39c-.28-.66-.59-1.32-.91-2-.32,1.94-.68,3.81-1.1,5.58a47,47,0,0,1-6.71.51,72.2,72.2,0,0,0,1.89-7,44,44,0,0,0,5.13-.61c-.23-.43-.48-.85-.73-1.27-1.32.22-2.68.41-4.12.51.33-1.67.6-3.44.84-5.24-.34-.43-.7-.83-1-1.23q-.42,3.44-1.05,6.54a50.36,50.36,0,0,1-6.33-.13c.59-2.14,1.1-4.4,1.53-6.81a47.88,47.88,0,0,0,5.4-.1c-.4-.44-.82-.87-1.24-1.28-1.27.07-2.58.1-3.94.06.15-1,.3-2,.42-3-.37-.27-.74-.55-1.11-.8-.16,1.3-.33,2.58-.54,3.8a51.06,51.06,0,0,1-6-.68q.61-2.76,1.06-5.81c-.39-.13-.78-.23-1.17-.34-.31,2.07-.68,4.06-1.11,5.93a59.27,59.27,0,0,1-6.06-1.49c.44-1.55.83-3.17,1.19-4.87a11.41,11.41,0,0,0-1.32.26c-.32,1.46-.67,2.88-1.06,4.24-1.34-.43-2.71-.93-4.11-1.47a10.54,10.54,0,0,0-.94,1c1.6.64,3.17,1.22,4.7,1.72a59.75,59.75,0,0,1-2.12,5.86c-1.8-.68-3.65-1.48-5.55-2.37-.13.39-.26.77-.37,1.17,1.85.87,3.66,1.66,5.43,2.34A53.83,53.83,0,0,1,105.31,60c-1.13-.51-2.29-1.07-3.45-1.67,0,.46,0,.92,0,1.38.93.47,1.86.92,2.77,1.33-.72,1.16-1.47,2.23-2.23,3.25.1.58.23,1.16.37,1.75a50.1,50.1,0,0,0,3.08-4.44c2.24,1,4.41,1.8,6.51,2.5a49.49,49.49,0,0,1-3.4,5.34q-2.93-1.2-6-2.76c.13.52.27,1,.43,1.56,1.64.8,3.26,1.56,4.83,2.21-.89,1.14-1.79,2.17-2.71,3.15.21.43.42.87.65,1.31A48.11,48.11,0,0,0,109.54,71a69.85,69.85,0,0,0,6.89,2.32,47,47,0,0,1-4.14,5.31c-1.71-.63-3.47-1.38-5.26-2.19.37.63.75,1.26,1.15,1.86,1.08.47,2.14.91,3.19,1.31-.44.45-.88.88-1.32,1.3.29.36.57.73.86,1.08.62-.6,1.24-1.21,1.86-1.87a67.59,67.59,0,0,0,7.37,2.18,43.28,43.28,0,0,1-4.26,4.51c.37.3.75.56,1.13.83a45.47,45.47,0,0,0,4.61-5,56.24,56.24,0,0,0,7.82,1,45.66,45.66,0,0,1-4.91,6.28,59.5,59.5,0,0,1-6.15-1.39A22.18,22.18,0,0,0,125,91.4l0-.06c1.34.22,2.63.37,3.89.48a12.51,12.51,0,0,0,5-1.15,50.58,50.58,0,0,1-7.78-.47A48.35,48.35,0,0,0,131,83.72a48.27,48.27,0,0,0,8.07-.43A49.68,49.68,0,0,1,135.14,90a12.4,12.4,0,0,0,3.7-3.48c.61-1.11,1.2-2.27,1.76-3.49l.08,0A21.93,21.93,0,0,0,142,75.91"/><path class="cls-2" d="M115.47,61.43c1.39.37,2.76.69,4.1,1,.53-1.26,1-2.58,1.49-3.94-1.32-.19-2.66-.44-4-.74-.5,1.27-1,2.52-1.6,3.73Z"/><path class="cls-2" d="M118.36,54.06c1.28.25,2.57.45,3.84.61.37-1.37.7-2.74,1-4.12-1.22-.11-2.45-.27-3.7-.47-.35,1.37-.72,2.7-1.13,4"/><path class="cls-2" d="M119.92,70.53c1.49.3,3,.54,4.4.72.65-1.3,1.26-2.65,1.83-4.06-1.4-.1-2.83-.27-4.27-.49-.61,1.32-1.27,2.6-2,3.83Z"/><path class="cls-2" d="M107.72,58.83c1.31.52,2.63,1,4,1.46.57-1.15,1.12-2.33,1.62-3.54-1.29-.37-2.6-.79-3.94-1.26-.52,1.14-1.07,2.26-1.66,3.34Z"/><path class="cls-2" d="M115.9,69.56c.7-1.14,1.38-2.35,2-3.61-1.39-.31-2.79-.67-4.19-1.09-.64,1.15-1.32,2.28-2,3.37,1.42.5,2.83.94,4.22,1.33Z"/><path class="cls-2" d="M111.17,76q1.32-1.49,2.52-3.12c-1.42-.45-2.84-.94-4.25-1.48q-1.16,1.49-2.43,2.88c1.38.62,2.77,1.19,4.16,1.72Z"/><path class="cls-2" d="M103.85,64.93q2,1,4,1.8c.71-1,1.39-2,2-3.13-1.35-.49-2.7-1-4-1.59-.64,1-1.31,2-2,2.92Z"/><path class="cls-2" d="M140.65,80.35l.86-.2A22.69,22.69,0,0,0,142,77c-.41,1.16-.84,2.29-1.3,3.36"/><path class="cls-2" d="M119.3,89.1a23.56,23.56,0,0,0,2.87,1.39l.65-.6c-1.15-.22-2.32-.49-3.52-.79"/><path class="cls-2" d="M130.42,50.72c-1.16.05-2.35.07-3.54,0-.26,1.43-.57,2.84-.92,4.24,1.26.06,2.52.07,3.75,0,.27-1.41.51-2.86.71-4.31"/><path class="cls-2" d="M122.29,74.89c-1.49-.24-3-.55-4.49-.92-.79,1.18-1.63,2.32-2.5,3.4,1.5.46,3,.87,4.5,1.2q1.31-1.74,2.49-3.68Z"/><path class="cls-2" d="M107.22,50.74c.46-1.14.89-2.31,1.28-3.49-.92-.32-1.84-.67-2.77-1a14.08,14.08,0,0,0-1.94,3.06c1.15.52,2.3,1,3.43,1.47"/><path class="cls-2" d="M123.46,63c1.4.17,2.78.28,4.12.33.45-1.37.86-2.79,1.23-4.25-1.3,0-2.62-.06-3.93-.17-.43,1.39-.9,2.76-1.42,4.09"/><path class="cls-2" d="M133.47,54.77c.54-.07,1.08-.14,1.65-.23-.16-.27-.32-.52-.48-.78s-.56-.72-.84-1.08c-.11.7-.21,1.4-.33,2.09"/><path class="cls-2" d="M120.37,46.28c1.19.17,2.36.29,3.52.37.11-.76.22-1.54.32-2.35A23.14,23.14,0,0,0,121,42.85c-.18,1.18-.38,2.33-.59,3.43"/><path class="cls-2" d="M131.17,75.63c-1.54,0-3.08-.06-4.61-.19-.75,1.34-1.55,2.66-2.41,3.94,1.6.23,3.19.38,4.76.46.81-1.35,1.56-2.76,2.26-4.21Z"/><path class="cls-2" d="M114,84.9a42.89,42.89,0,0,0,3.1-3.08c-1.49-.41-3-.87-4.5-1.4-.54.56-1.1,1.09-1.66,1.62a33.94,33.94,0,0,0,2.53,2.67l.53.19Z"/><path class="cls-2" d="M104.09,57.24c.57-1,1.12-2.05,1.64-3.13-1-.43-2.11-.91-3.17-1.4a22.48,22.48,0,0,0-.6,3.49c.72.36,1.44.72,2.13,1Z"/><polygon class="cls-2" points="102.17 60.33 101.92 60.2 101.94 60.66 102.17 60.33 102.17 60.33"/><path class="cls-2" d="M105.53,69.72c-.65-.29-1.29-.62-1.93-.92.23.72.49,1.45.78,2.18.38-.42.78-.82,1.15-1.26Z"/><path class="cls-2" d="M136.13,83.74a49.56,49.56,0,0,1-5,.16A49.74,49.74,0,0,1,128.15,88a50.94,50.94,0,0,0,5.22.17,48.61,48.61,0,0,0,2.76-4.44"/><path class="cls-2" d="M123.34,87.37a45.34,45.34,0,0,0,3.08-3.76c-1.58-.18-3.2-.43-4.84-.75a45.73,45.73,0,0,1-3,3.43c1.61.43,3.22.79,4.81,1.08"/><path class="cls-2" d="M140.52,66.19c-.7.16-1.39.3-2.08.42-.4,1.55-.85,3.06-1.34,4.52,1.44-.22,2.88-.51,4.29-.87l.13-.57c-.1-.54-.19-1.08-.32-1.63s-.45-1.25-.68-1.87"/><path class="cls-2" d="M137.82,64c.7-.13,1.36-.29,2-.45-.39-1-.84-2.1-1.33-3.14-.22,1.23-.44,2.44-.7,3.59"/><path class="cls-2" d="M128.47,71.58c1.51.06,3,0,4.44,0q.83-2.15,1.5-4.41c-1.38.13-2.79.19-4.21.19-.53,1.45-1.11,2.87-1.73,4.24"/><path class="cls-2" d="M136.39,58.5c-1.25.2-2.49.34-3.74.43-.33,1.47-.71,2.93-1.13,4.36,1.36-.07,2.69-.19,4-.37.33-1.42.62-2.9.87-4.42"/><path class="cls-2" d="M140,74.79c-1.49.28-3,.49-4.55.63q-1,2.31-2.07,4.44a42.65,42.65,0,0,0,4.84-.48c.65-1.48,1.24-3,1.78-4.59"/><path class="cls-2" d="M114.66,53.19c.42-1.23.81-2.51,1.17-3.82-1.26-.29-2.5-.6-3.73-1-.39,1.23-.81,2.43-1.28,3.64q1.94.64,3.84,1.14"/><path class="cls-2" d="M113.13,44.77c1.2.33,2.41.62,3.61.87.25-1.16.47-2.4.67-3.67a14.12,14.12,0,0,0-3.61-.07c-.21,1-.43,1.94-.67,2.87"/><polyline class="cls-2" points="127.53 46.77 127.94 46.76 127.56 46.49 127.53 46.77"/><path class="cls-13" d="M104.57,28.47C91.28,13.79,97.06,2.67,100.84,0c-2.23,5.34,8,15,6.54,26.22-.16,1.18-2.81,2.25-2.81,2.25Z"/><path class="cls-13" d="M99.69,31.09c-4.84-19.21-17.3-20.57-21.61-18.91,5.67,1.1,8,15,18.18,20,1.07.53,3.43-1.08,3.43-1.08Z"/><path class="cls-14" d="M97.9,35.45C100.34,40,108.24,48.69,111.36,47s.28-13-2.16-17.62C101,14,86.47.5,86.47.5s2.6,18.45,11.43,35"/><path class="cls-15" d="M103.87,33.42c-6.68-18.89,3.75-24.27,8.58-24.22-4.47,2.89,1.38,16.14-4.87,24-.66.84-3.71.18-3.71.18Z"/><path class="cls-15" d="M104.19,33.25c-12-16-22.26-10.35-24.9-6.31C84.17,24.83,92,37,102,36.23c1.06-.08,2.2-3,2.2-3Z"/><path class="cls-13" d="M100.91,39.83c1.67,3.11,7.61,8.71,10.45,7.19s1.47-9.56-.19-12.68c-5.62-10.49-16.76-19-16.76-19s.49,13.23,6.5,24.47"/><path class="cls-16" d="M108.79,41.23c-4.54-12.16,2.77-17.33,7.29-18.49-2.16,3.59-1.37,21.86-5.52,20.92-1.1-.26-1.77-2.43-1.77-2.43"/><path class="cls-16" d="M108,41.68c-7.6-10.53-15.95-7.32-19.42-4.2,4.18.19,18.94,11,20.46,7,.4-1.05-1-2.81-1-2.81"/><path class="cls-14" d="M103.87,44.2c.89,1.67,4.92,4.2,7.49,2.82s2.7-6.13,1.81-7.79c-3-5.61-10.86-9.12-10.86-9.12s-1.65,8.09,1.56,14.09"/><path class="cls-17" d="M129.53,91.81a15.82,15.82,0,0,1-9-2,17.79,17.79,0,0,0,9,2"/><path class="cls-18" d="M134.56,90.4h0a12.85,12.85,0,0,1-5,1.41,17.79,17.79,0,0,1-9-2l-.27-.16.18.09c.58.3,1.17.56,1.75.79h0a20.24,20.24,0,0,0,2.87.91l0-.06c1.34.22,2.63.37,3.89.48a12.51,12.51,0,0,0,5-1.15h0a50.58,50.58,0,0,1-7.78-.47c.72-.81,1.43-1.67,2.14-2.58l.25-.11-.39.5a50.94,50.94,0,0,0,5.22.17,48.61,48.61,0,0,0,2.76-4.44c-.91.08-1.82.13-2.75.15a1,1,0,0,0,.13-.16,45.74,45.74,0,0,0,5.55-.44A49.68,49.68,0,0,1,135.14,90a12.4,12.4,0,0,0,3.7-3.48c.61-1.11,1.2-2.27,1.76-3.49l.08,0a19.65,19.65,0,0,0,.83-2.88h0a23.45,23.45,0,0,0,.38-2.44c.06-.59.09-1.19.11-1.8a60.85,60.85,0,0,1-2.25,5.89,46.54,46.54,0,0,1-5.24.55,10.9,10.9,0,0,0,1.24-2.65c.85-.08,1.69-.19,2.51-.32.65-1.48,1.24-3,1.78-4.59-1.35.25-2.73.45-4.12.59l0-.13a44.84,44.84,0,0,0,6.11-1c0-.46,0-.93-.06-1.4a44.38,44.38,0,0,1-6.13,1,66.29,66.29,0,0,0,2.29-7.35c.89-.15,1.74-.32,2.58-.51-.13-.44-.28-.87-.42-1.31-.59.14-1.2.26-1.82.38l.3-1.36,1.11-.26c-.39-1-.84-2.1-1.33-3.14h0l-.3-.62c-.32,1.94-.68,3.81-1.1,5.58-1,.15-2.07.27-3.16.36a15.49,15.49,0,0,0-1.14-2.48c.91-.07,1.81-.16,2.7-.29.33-1.42.62-2.9.87-4.42-1.25.2-2.49.34-3.74.43-.23,1-.48,2-.76,3l-.08-.09-.15-.34c.23-.89.44-1.8.64-2.73a44,44,0,0,0,5.13-.61h0c-.23-.43-.48-.85-.73-1.27-1.32.22-2.68.41-4.12.51.33-1.67.6-3.44.84-5.24-.34-.43-.7-.83-1-1.23q-.42,3.44-1.05,6.54c-.59,0-1.18,0-1.79,0l-.34-.41a4.44,4.44,0,0,0-3.69-1.75c.38-1.54.72-3.15,1-4.82a47.88,47.88,0,0,0,5.4-.1h0c-.4-.44-.82-.87-1.24-1.28-1.27.07-2.58.1-3.94.06.15-1,.3-2,.42-3-.37-.27-.74-.55-1.11-.8-.16,1.3-.33,2.58-.54,3.8a51.06,51.06,0,0,1-6-.68q.61-2.76,1.06-5.81c-.39-.13-.78-.23-1.17-.34-.31,2.07-.68,4.06-1.11,5.93a59.27,59.27,0,0,1-6.06-1.49c.07-.23.13-.47.2-.71a5.1,5.1,0,0,0,.73-1.32c1.19.33,2.39.62,3.58.86.25-1.16.47-2.4.67-3.67a14.12,14.12,0,0,0-3.61-.07l-.18.81a7.81,7.81,0,0,0,0-.83c8.14-1,18.05,5.6,23.92,16.57,7,13,5.61,27.33-3,32m3.88-23.79c-.4,1.55-.85,3.06-1.34,4.52,1.44-.22,2.88-.51,4.29-.87l.13-.57c-.1-.54-.19-1.08-.32-1.63s-.45-1.25-.68-1.87c-.7.16-1.39.3-2.08.42M133.8,52.68c-.11.7-.21,1.4-.33,2.09.54-.07,1.08-.14,1.65-.23-.16-.27-.32-.52-.48-.78s-.56-.72-.84-1.08m-6.92-1.92c-.26,1.43-.57,2.84-.92,4.24,1.26.06,2.52.07,3.75,0,.27-1.41.51-2.86.71-4.31-1.16.05-2.35.07-3.54,0m.68-4.27,0,.28h.41l-.38-.27M121,42.85c-.18,1.18-.38,2.33-.59,3.43,1.19.17,2.36.29,3.52.37.11-.76.22-1.54.32-2.35A23.14,23.14,0,0,0,121,42.85m3.57,47.09c-1.14-.19-2.3-.43-3.48-.7,1.61-.44,3.31-.62,5-1-.49.58-1,1.14-1.48,1.67m10.84-18.55a11.06,11.06,0,0,0-.27-2.26,20.65,20.65,0,0,0-.65-2.12c.79-.06,1.56-.15,2.32-.25-.43,1.62-.89,3.16-1.4,4.63M130.84,59.7c-.14-.27-.28-.55-.43-.82H131c-.06.28-.13.56-.19.83m-6.38-5.26a5.66,5.66,0,0,0-1.72-1.88q.24-1,.45-2c-1.22-.11-2.45-.27-3.7-.47-.2.79-.41,1.56-.63,2.32a3.39,3.39,0,0,0-.45.4c.28-1,.55-2,.8-3a54.85,54.85,0,0,0,6.08.73c-.24,1.35-.52,2.65-.83,3.92m-7.37-1.58a6.64,6.64,0,0,0-1.8-1.64c.19-.61.37-1.23.54-1.85-1.26-.29-2.5-.6-3.73-1-.28.88-.58,1.75-.9,2.62a3.79,3.79,0,0,0-.4.3c.38-1.06.75-2.16,1.09-3.3,2.11.64,4.14,1.13,6.1,1.52-.28,1.14-.58,2.24-.9,3.31M109,52.53a8.07,8.07,0,0,0-1.67-2c.42-1.06.82-2.16,1.19-3.26a5.58,5.58,0,0,0,1.51.13l.69.23c-.52,1.72-1.1,3.34-1.72,4.89"/><path class="cls-19" d="M135.14,90a49.68,49.68,0,0,0,3.92-6.73,45.74,45.74,0,0,1-5.55.44,12.24,12.24,0,0,0,1-1.37h0a46.54,46.54,0,0,0,5.24-.55A60.85,60.85,0,0,0,142,75.91c0,.61-.05,1.21-.11,1.8L142,77c-.41,1.16-.84,2.29-1.3,3.36l.86-.2a19.65,19.65,0,0,1-.83,2.88l-.08,0c-.56,1.22-1.15,2.38-1.76,3.49a12.4,12.4,0,0,1-3.7,3.48m-1.21.65a12.51,12.51,0,0,1-5,1.15c-1.26-.11-2.55-.26-3.89-.48l0,.06a20.24,20.24,0,0,1-2.87-.91l.65-.6c-.76-.14-1.53-.31-2.31-.49l.54-.16c1.18.27,2.34.51,3.48.7.5-.53,1-1.09,1.48-1.67a16.07,16.07,0,0,0,2.28-.65c-.71.91-1.42,1.77-2.14,2.58a50.58,50.58,0,0,0,7.78.47m-13.51-1-.18-.09h0l.18.09M142,74.26a44.84,44.84,0,0,1-6.11,1,9.92,9.92,0,0,0-.68-2,8.72,8.72,0,0,0,.16-1.85c.51-1.47,1-3,1.4-4.63-.76.1-1.53.19-2.32.25-.08-.2-.15-.41-.23-.62s-.17-.47-.26-.7c1.09-.09,2.14-.21,3.16-.36.42-1.77.78-3.64,1.1-5.58l.3.62c-.22,1.23-.44,2.43-.7,3.58l.92-.19-.3,1.36c.62-.12,1.23-.24,1.82-.38.14.44.29.87.42,1.31-.84.19-1.69.36-2.58.51a66.29,66.29,0,0,1-2.29,7.35,44.38,44.38,0,0,0,6.13-1c0,.47,0,.94.06,1.4M131.66,61.54c-.26-.62-.52-1.24-.82-1.84.06-.27.13-.55.19-.83h-.62a13.31,13.31,0,0,0-.88-1.33c.61,0,1.2,0,1.79,0q.63-3.1,1.05-6.54c.35.4.71.8,1,1.23-.24,1.8-.51,3.57-.84,5.24,1.44-.1,2.8-.29,4.12-.51.25.42.5.84.73,1.27a44,44,0,0,1-5.13.61c-.2.93-.41,1.84-.64,2.73m-6.16-6.15a1.78,1.78,0,0,0-.54.17,5.11,5.11,0,0,0-.5-1.12c.31-1.27.59-2.57.83-3.92a54.85,54.85,0,0,1-6.08-.73c-.25,1-.52,2-.8,3a3,3,0,0,0-.67,1.11,8,8,0,0,0-.65-1c.32-1.07.62-2.17.9-3.31-2-.39-4-.88-6.1-1.52-.34,1.14-.71,2.24-1.09,3.3a3.9,3.9,0,0,0-1.3,2.23,7.73,7.73,0,0,0-.53-1c.62-1.55,1.2-3.17,1.72-4.89l-.69-.23a3.3,3.3,0,0,0,2.43-1.31c-.07.24-.13.48-.2.71a59.27,59.27,0,0,0,6.06,1.49c.43-1.87.8-3.86,1.11-5.93.39.11.78.21,1.17.34q-.45,3-1.06,5.81a51.06,51.06,0,0,0,6,.68c.21-1.22.38-2.5.54-3.8.37.25.74.53,1.11.8-.12,1-.27,2.06-.42,3,1.36,0,2.67,0,3.94-.06.42.41.84.84,1.24,1.28a47.88,47.88,0,0,1-5.4.1c-.3,1.67-.64,3.28-1,4.82"/><path class="cls-18" d="M104.49,49.58a2.53,2.53,0,0,0-.61.23,2.22,2.22,0,0,0-.52.37,15,15,0,0,1,2.44-4.09,8.1,8.1,0,0,0,.7.42l-.77-.3a14.08,14.08,0,0,0-1.94,3.06l.7.31"/><path class="cls-20" d="M122.74,52.56a4.06,4.06,0,0,0-1.41-.64,3.07,3.07,0,0,0-2.14.28l-.33.2c.22-.76.43-1.53.63-2.32,1.25.2,2.48.36,3.7.47q-.21,1-.45,2"/><path class="cls-20" d="M141.51,80.15h0l-.86.2c.46-1.07.89-2.2,1.3-3.36l-.06.72a23.45,23.45,0,0,1-.38,2.44"/><path class="cls-20" d="M122.17,90.49c-.58-.23-1.17-.49-1.75-.79l-.18-.09-.13-.08.4-.13c.78.18,1.55.35,2.31.49l-.65.6h0"/><path class="cls-20" d="M129.71,55c-1.23,0-2.49,0-3.75,0,.35-1.4.66-2.81.92-4.24,1.19,0,2.38,0,3.54,0-.2,1.45-.44,2.9-.71,4.31"/><path class="cls-20" d="M107.3,50.54a3.46,3.46,0,0,0-2.81-1l-.7-.31a14.08,14.08,0,0,1,1.94-3.06l.77.3a8,8,0,0,0,2,.77c-.37,1.1-.77,2.2-1.19,3.26"/><path class="cls-20" d="M135.12,54.54c-.57.09-1.11.16-1.65.23.12-.69.22-1.39.33-2.09.28.36.56.71.84,1.08s.32.51.48.78"/><path class="cls-20" d="M123.89,46.65c-1.16-.08-2.33-.2-3.52-.37.21-1.1.41-2.25.59-3.43a23.14,23.14,0,0,1,3.25,1.45c-.1.81-.21,1.59-.32,2.35"/><path class="cls-20" d="M133.37,88.18a50.94,50.94,0,0,1-5.22-.17l.39-.5a5,5,0,0,0,.48-.21l.5-.26a13.11,13.11,0,0,0,3.86-3.15c.93,0,1.84-.07,2.75-.15a48.61,48.61,0,0,1-2.76,4.44"/><path class="cls-20" d="M141.39,70.26c-1.41.36-2.85.65-4.29.87.49-1.46.94-3,1.34-4.52.69-.12,1.38-.26,2.08-.42.23.62.45,1.24.68,1.87s.22,1.09.32,1.63l-.13.57"/><path class="cls-20" d="M139.85,63.5l-1.11.26-.92.19c.26-1.15.48-2.35.7-3.58h0c.49,1,.94,2.09,1.33,3.14"/><path class="cls-20" d="M135.52,62.92c-.89.13-1.79.22-2.7.29a7,7,0,0,0-.93-1.24c.28-1,.53-2,.76-3,1.25-.09,2.49-.23,3.74-.43-.25,1.52-.54,3-.87,4.42"/><path class="cls-20" d="M138.26,79.38c-.82.13-1.66.24-2.51.32a8.46,8.46,0,0,0,.17-4.32c1.39-.14,2.77-.34,4.12-.59-.54,1.57-1.13,3.11-1.78,4.59"/><path class="cls-20" d="M115.29,51.22a4.59,4.59,0,0,0-2.14-.7,3.45,3.45,0,0,0-1.75.4l-.2.11c.32-.87.62-1.74.9-2.62,1.23.36,2.47.67,3.73,1-.17.62-.35,1.24-.54,1.85"/><path class="cls-20" d="M116.74,45.64c-1.19-.24-2.39-.53-3.58-.86a7.67,7.67,0,0,0,.46-2.07l.18-.81a14.12,14.12,0,0,1,3.61.07c-.2,1.27-.42,2.51-.67,3.67"/><polyline class="cls-20" points="127.94 46.76 127.53 46.77 127.56 46.49 127.94 46.76"/><path class="cls-21" d="M111.36,47a3.39,3.39,0,0,1-1.36.39,5.58,5.58,0,0,1-1.51-.13,8.63,8.63,0,0,1-2.69-1.19,12.06,12.06,0,0,1,7.86-4.21,7.81,7.81,0,0,1,0,.83,7.67,7.67,0,0,1-.46,2.07,5.1,5.1,0,0,1-.73,1.32,3.36,3.36,0,0,1-1.07.92"/><path class="cls-13" d="M110.62,44.13c-1.86-5.43,3.45-10.38,6-11.3-1.59,3.37,1.48,10-4.33,13.07-.8.44-1.66-1.77-1.66-1.77Z"/><path class="cls-13" d="M109.36,44.81c-3.49-4.56-10.55-2.9-12.73-1.29,3.69.55,7.46,6.75,13.28,3.65.81-.43-.55-2.36-.55-2.36Z"/><path class="cls-16" d="M105.12,46.54c.85,1.68,3.67,1.86,6.24.48s4-3.81,3.06-5.45c-1.17-2.07-7.8-3.39-7.8-3.39s-2.57,6.24-1.5,8.36Z"/><path class="cls-9" d="M199.56,97.83a17.79,17.79,0,0,1-35.53,0c-.71-9.54,7.23-17.91,17.76-17.91s18.48,8.37,17.77,17.91Z"/><path class="cls-10" d="M180.5,96.54a6.87,6.87,0,1,1-6.87-6.87,6.87,6.87,0,0,1,6.87,6.87Z"/><path class="cls-10" d="M173.63,89.67a2.28,2.28,0,1,1-2.28-2.28,2.28,2.28,0,0,1,2.28,2.28Z"/><path class="cls-22" d="M194.61,88.78a3.79,3.79,0,0,0-.65-3.87c-.72-.91-3-2.53-4.2-2a9,9,0,0,1,1.4-.51,18.2,18.2,0,0,0-5.22-2A12.06,12.06,0,0,0,184,82.19c-1.84-.81-3.81-2.12-5.89-1.47A4.36,4.36,0,0,0,175.47,83c1.08-1,3.77-1.38,4.8-.09-3.74-.31-6.5,1.55-8.53,4.54a4.36,4.36,0,0,1,2.43-1.73c2.88-.78,5.25,1.94,8-.25a4.66,4.66,0,0,0-1.12,4,21.8,21.8,0,0,0,1.64,4.26,5.83,5.83,0,0,1,.52,3.83c2.37-3.27,4-7.52,2.84-11.56.28,1,1.25,1,2.06,1,1.52,0,4.59.18,5.32,1.76a2.22,2.22,0,0,1-.15,2.12,12.54,12.54,0,0,0,1.35-2.13Z"/><path class="cls-23" d="M170.2,85.68a4.33,4.33,0,0,1,2.43-1.74c2.88-.77,5.25,2,8-.25a4.66,4.66,0,0,0-1.12,4,21.18,21.18,0,0,0,1.64,4.26,5.92,5.92,0,0,1,.52,3.84c2.37-3.28,4-7.53,2.84-11.57.28,1,1.24,1,2.06,1,1.52,0,4.58.18,5.32,1.76a2.22,2.22,0,0,1-.15,2.12A12.1,12.1,0,0,0,193.06,87a3.76,3.76,0,0,0-.64-3.86c-.72-.92-3-2.53-4.21-2,.41-.18,2.25-1,2.58-.36a4.89,4.89,0,0,0-6.31-2.25,11.87,11.87,0,0,0-2,1.86c-1.84-.8-3.81-2.12-5.89-1.47a4.41,4.41,0,0,0-2.64,2.31c1.09-1,3.78-1.37,4.81-.08-3.75-.32-6.51,1.54-8.53,4.54Z"/><path class="cls-24" d="M183.2,81.84l.14-.42c.07-.28.21-.63.36-1a14.91,14.91,0,0,1,.65-1.37,12.94,12.94,0,0,1,.93-1.43,9.18,9.18,0,0,1,2.21-2.12,5.56,5.56,0,0,1,.81-.45l.3-.12.06,0a1.59,1.59,0,0,0-1.21-3l-.22.11-.47.28a11.63,11.63,0,0,0-1.09.85,11.82,11.82,0,0,0-2.43,3.12,14.53,14.53,0,0,0-.86,1.85,16.08,16.08,0,0,0-.51,1.68c-.12.52-.21.94-.24,1.21s-.07.43-.07.43a.85.85,0,0,0,1.64.39Z"/><path class="cls-25" d="M181.57,82a2,2,0,0,1-1.07-1.93,2.52,2.52,0,0,1,1.09-2,2.83,2.83,0,0,0-.19,1.7,3.48,3.48,0,0,1,2.52-2.27c-.12.71-.24,1.42-.35,2.13.18-.23.37-.45.56-.68-.1.43-.19.87-.29,1.31.44-.34.88-.68,1.31-1l-.06,1.13a3.07,3.07,0,0,1-.45,1.09,2.22,2.22,0,0,1-3.07.6Z"/><path class="cls-9" d="M221.15,114a17.8,17.8,0,0,1-32.59-14.16c3.15-9,13.78-13.55,23.43-9.35s13.62,15,9.16,23.51Z"/><path class="cls-10" d="M204.18,105.18a6.86,6.86,0,1,1-3.56-9,6.86,6.86,0,0,1,3.56,9Z"/><path class="cls-10" d="M200.62,96.15a2.28,2.28,0,1,1-1.18-3,2.28,2.28,0,0,1,1.18,3Z"/><path class="cls-22" d="M220.21,103.69a3.74,3.74,0,0,0,.95-3.8c-.29-1.13-1.73-3.51-3.06-3.5a9.51,9.51,0,0,1,1.49.1,18.19,18.19,0,0,0-4-3.95,11.28,11.28,0,0,0-2.51.88c-1.36-1.48-2.65-3.47-4.81-3.7A4.38,4.38,0,0,0,205,90.79c1.38-.46,4,.24,4.44,1.84-3.31-1.78-6.58-1.18-9.63.76a4.32,4.32,0,0,1,2.91-.62c3,.43,4.05,3.88,7.43,3-1.25.34-2.36,2-2.62,3.21a22.39,22.39,0,0,0-.19,4.56,5.84,5.84,0,0,1-1,3.72c3.48-2.06,6.66-5.31,7.21-9.48-.13,1,.74,1.43,1.48,1.76,1.4.62,4.14,2,4.19,3.73a2.28,2.28,0,0,1-1,1.89,12.86,12.86,0,0,0,2.07-1.42Z"/><path class="cls-23" d="M199.06,91.12A4.29,4.29,0,0,1,202,90.5c3,.43,4.05,3.87,7.42,3-1.25.34-2.35,2-2.61,3.2a21.07,21.07,0,0,0-.19,4.56,5.81,5.81,0,0,1-1.06,3.72c3.48-2.06,6.66-5.31,7.22-9.47-.14,1,.74,1.43,1.48,1.76,1.39.61,4.14,2,4.18,3.73a2.23,2.23,0,0,1-1,1.89,13.4,13.4,0,0,0,2.08-1.42,3.8,3.8,0,0,0,.95-3.81c-.3-1.12-1.73-3.5-3.07-3.49.44,0,2.46,0,2.51.7a4.89,4.89,0,0,0-4.9-4.57,11,11,0,0,0-2.6.9c-1.37-1.48-2.65-3.47-4.82-3.7a4.36,4.36,0,0,0-3.33,1.07c1.38-.46,4,.24,4.44,1.83-3.31-1.78-6.58-1.17-9.64.77Z"/><path class="cls-24" d="M212.52,92.78l.29-.33c.18-.23.44-.49.74-.8s.71-.66,1.15-1a11.64,11.64,0,0,1,1.42-.94A9.26,9.26,0,0,1,219,88.65a5.35,5.35,0,0,1,.92-.09h.39a1.59,1.59,0,1,0,.07-3.18h-.24l-.55.07a9,9,0,0,0-1.34.34,11.94,11.94,0,0,0-3.47,1.89,14.5,14.5,0,0,0-1.52,1.36,17.4,17.4,0,0,0-1.15,1.34c-.31.43-.56.78-.7,1l-.23.37a.85.85,0,0,0,1.35,1Z"/><path class="cls-25" d="M211,92.3a2,2,0,0,1-.22-2.2,2.51,2.51,0,0,1,1.81-1.44,2.76,2.76,0,0,0-.84,1.48,3.49,3.49,0,0,1,3.21-1.09l-1.17,1.83.78-.41-.78,1.09,1.61-.42-.5,1A3.36,3.36,0,0,1,214,93a2.21,2.21,0,0,1-3-.67Z"/><path class="cls-5" d="M205.41,137a65.1,65.1,0,0,1,11.88,9.84,65.31,65.31,0,0,1-11.88,9.83l2.35-9.83L205.41,137Z"/><path class="cls-5" d="M228.12,133.68l3.29,1.27,29.06-2.65s-1.25-6.44-3.18-9.44c-6.68-1.49-22.81-1.38-29.17,10.82Z"/><path class="cls-26" d="M214.1,146.79s15.78,17.59,35.25,17.59,35.26-17.59,35.26-17.59-15.78-17.6-35.26-17.6-35.25,17.6-35.25,17.6Z"/><path class="cls-5" d="M217.72,147.1a22.58,22.58,0,0,1,4.57,2.13c1.52.73,3.38,1.16,4.85.34,1.1-.61,1.88-1.86,3.13-2,1.08-.12,2,.66,3.07,1a5.7,5.7,0,0,0,4.37-.83c1.33-.75,2.51-1.75,3.88-2.42A4.94,4.94,0,0,1,246,145a15.66,15.66,0,0,0,1.9,1.17,4.63,4.63,0,0,0,2.77-.2c2-.57,4-1.56,6.11-1a7.5,7.5,0,0,1,4.52,3.3,16.8,16.8,0,0,0,3.2-3,6,6,0,0,0,1.37-4.07,5.57,5.57,0,0,0-2-3.7,10.27,10.27,0,0,0-3.82-1.95c-6.6-2-13.65,0-20.24,2L219,143.88a9.15,9.15,0,0,0-3,1.14,27,27,0,0,0-2.26,2.39c1.36-.07,2.55-.64,3.94-.31Z"/><path class="cls-27" d="M249.35,129.19c-19.47,0-35.25,17.6-35.25,17.6l.46.49.21-.2a8.24,8.24,0,0,1,5.71-2,7.87,7.87,0,0,1,2.49.49c1,.38,2.05,1,3.09.66,1.57-.47,2.12-2.76,3.74-3,1.17-.22,2.19.77,3.32,1.15,2,.68,4.06-.5,5.74-1.74s3.48-2.66,5.56-2.52,4.13,2.06,6.33,1.77c1.93-.25,3.21-2.1,4.94-3,2.72-1.4,7.11-.2,7.12,3.26a17.5,17.5,0,0,1-.52,3.28,13.7,13.7,0,0,0,1.34,8.34c1,2.3,2.4,4.55,4.72,5.5a65.34,65.34,0,0,0,16.26-12.4s-15.78-17.6-35.26-17.6Z"/><path class="cls-28" d="M268.64,136.22s-.31.22-.87.57l-.46.28-.46.38a7.63,7.63,0,0,0-1,.92,9.52,9.52,0,0,0-1,1.21,5.07,5.07,0,0,0-.43.72,6.17,6.17,0,0,0-.39.77c-.11.28-.24.55-.34.84s-.15.59-.25.89a12.71,12.71,0,0,0-.3,1.88,18.06,18.06,0,0,0-.1,1.95c.06.64,0,1.3.13,1.92s.14,1.25.26,1.82.24,1.14.34,1.65.27,1,.37,1.41.22.8.32,1.1c.19.62.28,1,.28,1s-.28-.24-.76-.7a7.54,7.54,0,0,1-.78-.9,9.82,9.82,0,0,1-.89-1.28,9.55,9.55,0,0,1-.85-1.66L261,150c-.11-.33-.19-.68-.29-1a14.42,14.42,0,0,1-.41-2.23,14.57,14.57,0,0,1,0-2.38,11.78,11.78,0,0,1,.49-2.36q.21-.57.45-1.11c.17-.36.39-.69.58-1a4.65,4.65,0,0,1,.67-.91,5.64,5.64,0,0,1,.75-.79c.27-.22.53-.45.79-.64a6.87,6.87,0,0,1,.82-.47,5.43,5.43,0,0,1,1.52-.61c.24-.06.45-.13.64-.17l.54,0c.65-.05,1-.05,1-.05Z"/><path class="cls-5" d="M273.41,145.87a3,3,0,1,1-3-3,3,3,0,0,1,3,3Z"/><path class="cls-4" d="M273.41,145.87a2.4,2.4,0,0,0-1.49-2.22,2.12,2.12,0,0,0-1.19-.11,2,2,0,0,0-1.09.52,2.42,2.42,0,0,0-.61.88l-.13.47a2.34,2.34,0,0,0,0,.53,2.75,2.75,0,0,0,.18.87,2.31,2.31,0,0,0,.6.88l.47.33.33.12.28.08a2.16,2.16,0,0,0,1.21-.12,2.38,2.38,0,0,0,1.36-1.44,2.44,2.44,0,0,0,.13-.79Zm0,0a3.15,3.15,0,0,1-.09.8,3.7,3.7,0,0,1-2.48,2.76,3.47,3.47,0,0,1-.48.11,2.34,2.34,0,0,1-.44.06,3.55,3.55,0,0,1-1.08-.12,3.72,3.72,0,0,1-2.75-3.68,4.33,4.33,0,0,1,.21-1.18,3.79,3.79,0,0,1,.6-1.1,3.66,3.66,0,0,1,1.94-1.26,3.55,3.55,0,0,1,2,.05,3.76,3.76,0,0,1,1.44.84,3.91,3.91,0,0,1,1.06,1.93,3.09,3.09,0,0,1,.09.79Z"/><path class="cls-5" d="M255.54,162.53s6.36-3.5,7.53-4.78,2.35.37,2,2.55a11.94,11.94,0,0,1-10.71,8.8c1.48-2.12,2.12-5.51,1.17-6.57Z"/><path class="cls-5" d="M223,143.14a.75.75,0,1,1-.75-.75.75.75,0,0,1,.75.75Z"/><path class="cls-5" d="M226.54,143.14a.75.75,0,0,1-1.49,0,.75.75,0,1,1,1.49,0Z"/><path class="cls-5" d="M227.68,141.32a.36.36,0,1,1-.71,0,.36.36,0,0,1,.71,0Z"/><path class="cls-5" d="M231.16,140.3a.68.68,0,1,1-.68-.68.67.67,0,0,1,.68.68Z"/><path class="cls-5" d="M233,142a.36.36,0,1,1-.36-.36.36.36,0,0,1,.36.36Z"/><path class="cls-5" d="M236.2,140.47a.85.85,0,1,1-.85-.85.85.85,0,0,1,.85.85Z"/><path class="cls-5" d="M238.83,140.76a.47.47,0,0,1-.46.46.46.46,0,0,1-.46-.46.45.45,0,0,1,.46-.46.46.46,0,0,1,.46.46Z"/><path class="cls-5" d="M241.31,138.11a1.47,1.47,0,1,1-1.47-1.47,1.47,1.47,0,0,1,1.47,1.47Z"/><path class="cls-5" d="M244.29,138.54a.42.42,0,1,1-.42-.43.42.42,0,0,1,.42.43Z"/><path class="cls-5" d="M247.21,136.6a1,1,0,1,1-1-1,1,1,0,0,1,1,1Z"/><path class="cls-5" d="M250.62,139.18a1.07,1.07,0,1,1-1.07-1.07,1.06,1.06,0,0,1,1.07,1.07Z"/><path class="cls-5" d="M254.37,136.7a1.13,1.13,0,1,1-1.13-1.13,1.13,1.13,0,0,1,1.13,1.13Z"/><path class="cls-5" d="M258.57,136a.46.46,0,0,1-.46.47.47.47,0,0,1,0-.93.46.46,0,0,1,.46.46Z"/><path class="cls-5" d="M261.9,135.15a1.07,1.07,0,1,1-1.07-1.07,1.07,1.07,0,0,1,1.07,1.07Z"/><path class="cls-5" d="M263.23,137.75a.79.79,0,1,1-.79-.8.8.8,0,0,1,.79.8Z"/><path class="cls-29" d="M243.58,105.26c-.85-2.85,1.39-6.46,3.93-8.4,1.2-.92,3.15-1.54,4.58-.71a17.71,17.71,0,0,1,4.58,4.53,32.45,32.45,0,0,0,3.24,3.65c3.66,3.35,7.64,3.41,11.85,3.47a70.26,70.26,0,0,0,14-1.69c6-1.15,11.73-2.24,17.42-1.23,16.27,2.89,24.2,19.44,29.81,35.26.66,1.86,1.23,3.48,1.7,5.06,1.91,6.39,1.74,10.72-4.76,14-8.48,4.28-19.32,5.83-30.51,4.37a59.17,59.17,0,0,1-13.5-3.42c-.31-.12-.65-.23-1-.35-1.07-.37-2.41-.83-2.68-1.48h0c-.32-1.06.25-3.76.59-5.38.21-1,.39-1.83.46-2.47a13.41,13.41,0,0,1,1.13-4.71,3.19,3.19,0,0,1,2.7-1.84l.92-3.41c-6.18-3-9.76-8.39-13.54-14.06-.73-1.08-1.45-2.18-2.21-3.27-3.25-4.7-8.45-11.14-16-12.9a35.45,35.45,0,0,0-4.16-.63c-2.76-.31-5.37-.6-7.14-2.18a4.74,4.74,0,0,1-1.45-2.2Z"/><path class="cls-26" d="M268.85,113.61l.66-.28a3.2,3.2,0,0,1-1.58-2c-3-1.1-5.89-3-9-3.68-2.57-.61-5.2-.47-7.71-1.42-5.3-2-5.18-8,.4-9.4a2.82,2.82,0,0,1,1.42,0,8.68,8.68,0,0,0-.93-.66c-1.43-.83-3.38-.21-4.58.71-2.54,1.94-4.78,5.55-3.93,8.4a4.74,4.74,0,0,0,1.45,2.2c1.77,1.58,4.38,1.87,7.14,2.18a35.45,35.45,0,0,1,4.16.63A22.6,22.6,0,0,1,267,116.69a3,3,0,0,1,1.83-3.08Z"/><path class="cls-30" d="M330.76,160.81c9.78-4.92,7-12.67,3.92-21.27-5.4-15.23-13.54-33.3-31.18-36.43-10.53-1.87-21.06,3-31.73,2.89a21,21,0,0,1-7.39-1c-1.78,2.48-2.19,6.3-2.41,9.75a36.26,36.26,0,0,1,8.89,9.41c4.88,7.05,8.62,14.09,16.44,17.93a4.83,4.83,0,0,0-4.41,2.75,14.65,14.65,0,0,0-1.34,5.36c-.25,2.09-1.73,6.85-.92,8.78.72,1.7,3.05,2.18,4.69,2.82a60.8,60.8,0,0,0,13.91,3.52c10.48,1.37,22,.25,31.53-4.54Z"/><path class="cls-7" d="M330.76,160.81a15.26,15.26,0,0,0,3.76-2.59c-3.64,2.14-7.94,3.08-12.49,3.93-5.51,1-12.63,2.5-18-.1-6.4-3.12-5.59-10.61-.66-14.05a14,14,0,0,1-3.69-10.44c.14-1.82,1.55-8.68,3.85-8.35-6.44-.91-12.65-1-18.64-4a90.62,90.62,0,0,1-21.44-15.49,2.87,2.87,0,0,1-.7-1,33.77,33.77,0,0,0-.82,6,36.26,36.26,0,0,1,8.89,9.41c4.88,7.05,8.62,14.09,16.44,17.93a4.83,4.83,0,0,0-4.41,2.75,14.65,14.65,0,0,0-1.34,5.36c-.25,2.09-1.73,6.85-.92,8.78.72,1.7,3.05,2.18,4.69,2.82a60.8,60.8,0,0,0,13.91,3.52c10.48,1.37,22,.25,31.53-4.54Z"/><path class="cls-31" d="M278.1,116.93a1.36,1.36,0,1,1,.9-1.68,1.35,1.35,0,0,1-.9,1.68Z"/><path class="cls-31" d="M282.05,120.39a.62.62,0,1,1,.41-.76.61.61,0,0,1-.41.76Z"/><path class="cls-31" d="M285,117.32a1.17,1.17,0,1,1,.77-1.46,1.16,1.16,0,0,1-.77,1.46Z"/><path class="cls-31" d="M288.68,120.22a.62.62,0,0,1-.36-1.18.61.61,0,0,1,.76.42.6.6,0,0,1-.4.76Z"/><path class="cls-31" d="M291.43,123.84a1,1,0,1,1,.67-1.26,1,1,0,0,1-.67,1.26Z"/><polygon class="cls-31" points="295.96 120.38 295.42 120.08 295.71 119.54 296.24 119.84 295.96 120.38 295.96 120.38"/><path class="cls-31" d="M298.4,116.68a.56.56,0,0,1-.31-1.07.55.55,0,0,1,.68.38.56.56,0,0,1-.37.69Z"/><path class="cls-31" d="M300.27,124a.85.85,0,1,1,.56-1,.84.84,0,0,1-.56,1Z"/><path class="cls-31" d="M297.05,126.23a.63.63,0,0,1-.78-.43.62.62,0,0,1,.42-.78.63.63,0,0,1,.36,1.21Z"/><path class="cls-31" d="M305.22,126.76a1,1,0,1,1,.69-1.3,1,1,0,0,1-.69,1.3Z"/><path class="cls-31" d="M306.71,122a1.31,1.31,0,1,1,.87-1.63,1.31,1.31,0,0,1-.87,1.63Z"/><path class="cls-31" d="M311.46,128.12a1.54,1.54,0,1,1,1-1.91,1.53,1.53,0,0,1-1,1.91Z"/><path class="cls-31" d="M307.25,131a.75.75,0,0,1-.93-.51.74.74,0,0,1,.49-.93.75.75,0,0,1,.93.51.74.74,0,0,1-.49.93Z"/><path class="cls-31" d="M306.75,138.29A1.85,1.85,0,1,1,308,136a1.84,1.84,0,0,1-1.22,2.3Z"/><path class="cls-31" d="M303.07,137.45a1.47,1.47,0,0,1-1.82-1,1.48,1.48,0,0,1,1-1.84,1.48,1.48,0,0,1,.84,2.84Z"/><path class="cls-31" d="M305.5,142.4a.55.55,0,1,1,.37-.69.55.55,0,0,1-.37.69Z"/><path class="cls-31" d="M311.42,137.54a.62.62,0,0,1-.35-1.18.62.62,0,0,1,.35,1.18Z"/><path class="cls-31" d="M315.53,139.41a2.1,2.1,0,1,1,1.38-2.6,2.08,2.08,0,0,1-1.38,2.6Z"/><path class="cls-31" d="M311.72,144.61a1.14,1.14,0,1,1,.75-1.42,1.14,1.14,0,0,1-.75,1.42Z"/><path class="cls-31" d="M306.07,151.13a1.05,1.05,0,1,1,.69-1.31,1,1,0,0,1-.69,1.31Z"/><path class="cls-31" d="M312.76,152.64a1.68,1.68,0,1,1,1.11-2.08,1.67,1.67,0,0,1-1.11,2.08Z"/><path class="cls-31" d="M308.08,155.68a.77.77,0,0,1-1-.53.78.78,0,1,1,1.49-.45.78.78,0,0,1-.52,1Z"/><path class="cls-31" d="M305.32,158.31a1.26,1.26,0,1,1,.83-1.56,1.25,1.25,0,0,1-.83,1.56Z"/><path class="cls-31" d="M312.61,161.55a1.85,1.85,0,1,1,1.22-2.3,1.83,1.83,0,0,1-1.22,2.3Z"/><path class="cls-31" d="M318.08,161.6a1.12,1.12,0,1,1,.73-1.38,1.1,1.1,0,0,1-.73,1.38Z"/><path class="cls-31" d="M316.29,157.72a1,1,0,1,1,.68-1.29,1,1,0,0,1-.68,1.29Z"/><path class="cls-31" d="M273.26,116.25a.68.68,0,1,1,.45-.85.68.68,0,0,1-.45.85Z"/><path class="cls-16" d="M135.5,100.84c-13.64-3.73-41.09-5.92-54.72-3l-1.45-4.39c14.79-3.12,43.32-.88,58,3.13l-1.82,4.3Z"/><path class="cls-16" d="M140.88,104.49c-13.76-3.76-41.48-6-55.26-3l-1-2.93c14.63-3.09,42.89-.86,57.44,3.12l-1.22,2.86Z"/><path class="cls-16" d="M147,103.1c-12.11-6.36-38.1-14-52.39-14h-.2l0-3h.22c15.17,0,41.66,7.75,54.45,14.46L147,103.1Z"/><path class="cls-2" d="M128.37,109c-11-3.38-1.4-24.72,10-20.47,7.11,2.66,63.46,26.66,62.36,29.74s-63.55-6.56-72.32-9.27Z"/><path class="cls-3" d="M195.59,117c-9-2.72-19.37-3.33-28.69-5.62-5.81-1.43-11.56-3-17.3-4.65-4.57-1.28-9.33-3.41-14.19-3.69-5.48-.32-9.11-2.86-10.9-6-1.89,5-1.23,10.41,3.86,12,8.77,2.71,71.21,12.36,72.32,9.27.05-.14-.06-.34-.25-.58a15.09,15.09,0,0,1-4.85-.67Z"/><path class="cls-3" d="M139.37,106.92l3.61.85c-2.11-.5,1.23-7.09,1.62-7.83-1.33,1-3.41,2.19-4.25,3.52a21.76,21.76,0,0,0-1,3.46Z"/><path class="cls-3" d="M165.19,106.66c-1.63,1.36-1.51,3.81-2.43,5.39-1.79-1.79.94-4.15,2.43-5.39Z"/><path class="cls-3" d="M157.22,99c-.76.44-2.79,4-3.48,3.6-1.12-.61,2.84-3.23,3.48-3.6Z"/><path class="cls-3" d="M132.84,99.5c.61-1.5,2.72-2.66,3.46-4.12-1.92-.7-3.05,3.11-3.46,4.12Z"/><path class="cls-3" d="M177.6,106.11l-.22.19a23,23,0,0,0-2.09,2.23c-.3-.92,1.57-1.85,2.31-2.42Z"/><path class="cls-3" d="M166.59,110.05l.74,0a6,6,0,0,0,2-2.92c-1.07-.35-3,2.56-2.73,2.88Z"/><path class="cls-3" d="M162.89,99.32c.13,1-.76,1.79-1.59,2.49-.31.27-2.6,2.62-2.55,1.24,0-.89,1.74-1.93,2.52-2.42.36-.23,1.68-.85,1.62-1.31Z"/><path class="cls-3" d="M145.89,92.38c-.87.46-3.28,4.48-4.24,3.77s3.51-3.38,4.24-3.77Z"/><path class="cls-16" d="M126.37,116C113.64,110.53,87,104.87,73,106l-.55-4.52c15.22-1.19,42.94,4.66,56.63,10.49l-2.66,4Z"/><path class="cls-16" d="M131,120.24c-12.84-5.47-39.77-11.18-54-10.07l-.37-3c15.06-1.19,42.52,4.62,56.1,10.4L131,120.24Z"/><path class="cls-16" d="M137.26,119.64c-10.69-7.82-34.83-18.65-48.95-20.48l-.19,0,.58-3,.21,0c15,1.94,39.59,13,50.89,21.23l-2.54,2.24Z"/><path class="cls-2" d="M117.72,123.11c-10.15-4.73,3.52-24.59,13.89-18.94,6.49,3.53,57.36,34.41,55.66,37.32s-61.43-14.59-69.55-18.38Z"/><path class="cls-3" d="M182.49,139.6c-8.37-3.83-18.46-5.76-27.21-9.21-5.45-2.15-10.81-4.47-16.16-6.79-4.25-1.85-8.53-4.56-13.28-5.46-5.35-1-8.42-4-9.55-7.35-2.86,4.65-3.29,10.12,1.43,12.32,8.12,3.79,67.84,21.29,69.55,18.38.08-.13,0-.35-.13-.6a14.61,14.61,0,0,1-4.65-1.29Z"/><path class="cls-3" d="M129,122.45l3.4,1.3c-2-.76,2.62-6.85,3.15-7.53-1.52.87-3.8,1.73-4.9,2.94a21.91,21.91,0,0,0-1.65,3.29Z"/><path class="cls-3" d="M154.54,125.49c-1.89,1.13-2.26,3.57-3.48,5-1.41-2,1.76-4,3.48-5Z"/><path class="cls-3" d="M148.18,116.91c-.84.35-3.54,3.57-4.14,3.12-1-.75,3.43-2.83,4.14-3.12Z"/><path class="cls-3" d="M124,114.28c.89-1.4,3.21-2.27,4.23-3.62-1.76-.94-3.63,2.69-4.23,3.62Z"/><path class="cls-3" d="M166.9,126.52l-.26.16a28.8,28.8,0,0,0-2.51,1.94c-.11-.94,1.93-1.63,2.77-2.1Z"/><path class="cls-3" d="M155.24,129l.73.14a6.61,6.61,0,0,0,2.54-2.64c-1-.47-3.52,2.15-3.27,2.5Z"/><path class="cls-3" d="M153.72,117.94c-.07,1-1.11,1.67-2.06,2.26-.37.22-3.09,2.26-2.77.9.21-.87,2.11-1.68,3-2.07.4-.18,1.83-.63,1.86-1.09Z"/><path class="cls-3" d="M138.31,108.93c-.95.34-4.13,4-4.93,3.18s4.13-2.89,4.93-3.18Z"/><path class="cls-32" d="M79.61,80.32a4.13,4.13,0,0,1-3.27,1.82,3.92,3.92,0,0,1-3.89-3.88v-.11l.07-.64L58.15,71.8,44.91,81.66a3.77,3.77,0,0,1-3.68,4.67,3.72,3.72,0,0,1-1.92-.5l-10.08,7.5c2.41,2,1.62,7-2.39,7a3.54,3.54,0,0,1-3.54-2.55l-13.48,10a3.75,3.75,0,0,1-3.7,4.54,3.9,3.9,0,0,1-1.81-.43L0,115.08l99.42-26.9L79.61,80.32Z"/><path class="cls-4" d="M99.13,96.45l.29-8.27L0,115.08l.21,4.57a1.86,1.86,0,0,1,1.11,1.77v.23a1.82,1.82,0,0,1-.95,1.67v0a5.26,5.26,0,0,1,.33,7.32l.18,3.93h0c3.62,0,3.67,5.48.21,5.71L1.27,143c4.72.93,4.84,8.08.43,9.4L1.77,154a2,2,0,0,1,3.15,1.68v.24a2,2,0,0,1-3,1.78l.38,8.45,95.11-21.54.19-5.2a2.05,2.05,0,0,1,.13-3.91l.33-9.16-.1,0c-2.66,0-2.65-4.14,0-4.14l.24,0,0-1.38a4,4,0,0,1-3-3.79v-.24a3.91,3.91,0,0,1,3.25-3.8l.28-7.85a3.56,3.56,0,0,1-2.75,1.16c-5,0-5-7.77,0-7.77a3.86,3.86,0,0,1,1.69.37,2,2,0,0,1,1.37-2.52Z"/><path class="cls-4" d="M45.88,96.7c0,1.8-3.19,3.26-7.13,3.26s-7.13-1.46-7.13-3.26,3.2-3.25,7.13-3.25,7.13,1.45,7.13,3.25Z"/><path class="cls-4" d="M27.6,102.63c0,.59-1,1.07-2.21,1.07s-2.2-.48-2.2-1.07,1-1.08,2.2-1.08,2.21.49,2.21,1.08Z"/><path class="cls-4" d="M35.33,102.41c0,.48-.83.86-1.86.86s-1.85-.38-1.85-.86.83-.86,1.85-.86,1.86.39,1.86.86Z"/><path class="cls-4" d="M63.35,87.11c0,1.57-3.25,2.85-7.25,2.85s-7.25-1.28-7.25-2.85,3.25-2.84,7.25-2.84,7.25,1.27,7.25,2.84Z"/><path class="cls-4" d="M68.93,82.44c0,.6-1.25,1.08-2.79,1.08s-2.79-.48-2.79-1.08,1.25-1.07,2.79-1.07,2.79.48,2.79,1.07Z"/><path class="cls-4" d="M57.12,93.88c0,.62-1.18,1.13-2.63,1.13s-2.63-.51-2.63-1.13,1.18-1.13,2.63-1.13,2.63.51,2.63,1.13Z"/><path class="cls-4" d="M87.4,87.11c0,1.57-3.15,2.85-7,2.85s-7-1.28-7-2.85,3.15-2.84,7-2.84,7,1.27,7,2.84Z"/><path class="cls-4" d="M61.2,77.56c0,.44-.79.8-1.77.8s-1.77-.36-1.77-.8.79-.81,1.77-.81,1.77.36,1.77.81Z"/><path class="cls-4" d="M71.29,92c0,.44-.84.8-1.88.8s-1.88-.36-1.88-.8.85-.81,1.88-.81,1.88.36,1.88.81Z"/><path class="cls-4" d="M17.93,107.24c0,.66-1.05,1.19-2.36,1.19s-2.36-.53-2.36-1.19,1.06-1.18,2.36-1.18,2.36.53,2.36,1.18Z"/><path class="cls-2" d="M36.65,129.88c0-4.47,3.2-8.1,7.14-8.1s7.14,3.63,7.14,8.1-3.2,8.1-7.14,8.1-7.14-3.62-7.14-8.1Z"/><path class="cls-2" d="M81.47,100.29a3.19,3.19,0,1,1,3.17,3.59,3.4,3.4,0,0,1-3.17-3.59Z"/><path class="cls-2" d="M16.76,143.13c0-3.63,2.6-6.58,5.81-6.58s5.8,2.95,5.8,6.58-2.6,6.58-5.8,6.58-5.81-2.94-5.81-6.58Z"/><path class="cls-2" d="M69.48,140.22c0-3.84,2.75-6.95,6.13-6.95s6.14,3.11,6.14,6.95-2.75,7-6.14,7-6.13-3.12-6.13-7Z"/><path class="cls-2" d="M42.76,152.19A2.2,2.2,0,1,1,45,154.67a2.35,2.35,0,0,1-2.19-2.48Z"/><path class="cls-2" d="M51.86,108.43a3.45,3.45,0,1,1,3.42,3.88,3.67,3.67,0,0,1-3.42-3.88Z"/><path class="cls-2" d="M22,124.15c0-3.1,2.21-5.61,4.95-5.61s4.95,2.51,4.95,5.61-2.22,5.61-4.95,5.61S22,127.25,22,124.15Z"/><path class="cls-2" d="M4.66,138.45a1.68,1.68,0,0,1,1.56-1.78,1.79,1.79,0,0,1,0,3.55,1.67,1.67,0,0,1-1.56-1.77Z"/><path class="cls-2" d="M14,150.68a2.91,2.91,0,0,1,2.72-3.08,3.1,3.1,0,0,1,0,6.15A2.91,2.91,0,0,1,14,150.68Z"/><path class="cls-2" d="M77.69,113.39c0-3.45,2.46-6.24,5.5-6.24s5.49,2.79,5.49,6.24-2.46,6.23-5.49,6.23-5.5-2.79-5.5-6.23Z"/><path class="cls-2" d="M83.19,135.17a2.91,2.91,0,1,1,2.88,3.28,3.1,3.1,0,0,1-2.88-3.28Z"/><path class="cls-2" d="M5.15,121.78a3.32,3.32,0,0,1,3.09-3.51,3.54,3.54,0,0,1,0,7,3.32,3.32,0,0,1-3.09-3.51Z"/><path class="cls-2" d="M62,123.85a2.29,2.29,0,1,1,2.27,2.58A2.44,2.44,0,0,1,62,123.85Z"/><path class="cls-2" d="M69.84,111.7A2.91,2.91,0,1,1,72.73,115a3.09,3.09,0,0,1-2.89-3.28Z"/><path class="cls-2" d="M49,133.39a2.91,2.91,0,1,1,2.89,3.28A3.09,3.09,0,0,1,49,133.39Z"/><path class="cls-2" d="M35.87,150.87a3.09,3.09,0,0,1,2.88-3.27,3.3,3.3,0,0,1,0,6.55,3.1,3.1,0,0,1-2.88-3.28Z"/><path class="cls-2" d="M30.65,117a1.72,1.72,0,1,1,1.7,1.94,1.83,1.83,0,0,1-1.7-1.94Z"/><path class="cls-4" d="M241.26,159.21c0,23-37.29,41.56-83.29,41.56s-83.29-18.6-83.29-41.56S112,117.66,158,117.66s83.29,18.6,83.29,41.55Z"/><path class="cls-2" d="M158,117.66c-1,0-1.93,0-2.89,0,44.27.76,79.56,14.88,79.56,32.19,0,17.8-37.3,32.23-83.3,32.23-34.15,0-63.48-8-76.34-19.33,3.63,21.28,39.37,38,83,38,46,0,83.29-18.6,83.29-41.56S204,117.66,158,117.66Z"/><path class="cls-2" d="M101.42,154.76c.52,2.82,1,4.45,1,4.45s.77-1.5,1.83-4.17c.56-1.31,1.09-3,1.92-4.75s1.57-3.71,2.45-5.8c1-2.07,2-4.35,3.07-6.65s2.25-4.73,3.7-7c.72-1.16,1.31-2.41,2-3.59s1.55-2.31,2.27-3.51a14.59,14.59,0,0,1,1.14-1.68A112.76,112.76,0,0,0,103,128c-.66,2.25-1.06,4.49-1.55,6.6-.52,2.86-.68,5.61-.9,8.1-.06,2.55,0,4.89.15,6.91a35,35,0,0,0,.73,5.14Z"/><path class="cls-2" d="M162.37,164.74c.09,1,.14,1.48.14,1.48l.82-1.24c.48-.82,1.29-2,2.13-3.54s1.94-3.39,3-5.56c1.25-2,2.62-4.3,4-6.74s3-5,4.68-7.76c.89-1.34,1.56-2.83,2.56-4.18s1.88-2.79,2.84-4.21c1.75-3,4-5.65,6-8.6a34.87,34.87,0,0,1,2.55-3.29A150.64,150.64,0,0,0,173,118.34c-.37.68-.78,1.36-1.15,2a39,39,0,0,0-2.56,5.34,68.22,68.22,0,0,0-3.85,10.48,67.12,67.12,0,0,0-2.27,9.73c-.47,3.09-.84,5.9-1,8.35-.05,2.43,0,4.58.07,6.35s.17,3.17.21,4.12Z"/><path class="cls-2" d="M134.92,119.28v0l-1.39,2.46c-.42.83-.73,1.7-1.1,2.54-.71,1.69-1.41,3.35-2,5a33,33,0,0,0-1.55,4.93c-.41,1.64-.85,3.21-1.2,4.78A61.79,61.79,0,0,0,126.3,148a50.2,50.2,0,0,0-.34,7.49c.06,2.19.25,4.13.38,5.72s.32,2.87.41,3.73.21,1.33.21,1.33l.75-1.12c.44-.74,1.19-1.8,1.94-3.2s1.77-3.07,2.75-5,2.24-4,3.45-6.28,2.32-4.68,3.88-7.14,2.77-5.18,4.43-7.73,3.08-5.34,5-7.79c.87-1.28,1.8-2.52,2.62-3.85l2.89-3.6,1.4-1.84.91-1a163.85,163.85,0,0,0-22,1.61Z"/><path class="cls-2" d="M206.15,125.33c-.71,1.55-1.36,3.12-1.92,4.67a60.5,60.5,0,0,0-2.64,8.49c-.31,1.38-.68,2.68-.92,4s-.42,2.61-.57,3.84a63.86,63.86,0,0,0-.6,6.68c0,2,.07,3.72.13,5.15s.19,2.59.24,3.36.15,1.21.15,1.21l.79-.93c.47-.61,1.26-1.49,2.07-2.66s1.88-2.56,2.94-4.22l3.62-5.27c1.22-1.92,2.53-4,4-6.11s2.8-4.47,4.36-6.72c.78-1.13,1.51-2.31,2.24-3.5.31-.42.59-.86.89-1.28a89.35,89.35,0,0,0-14.78-6.7Z"/><path class="cls-32" d="M104.07,155c.43-1.32.81-3,1.47-4.81s1.31-3.79,2-6,1.76-4.43,2.72-6.86c1.13-2.34,2.12-4.88,3.47-7.31.66-1.23,1.26-2.51,2-3.73s1.52-2.36,2.22-3.6c-2.58.71-5.06,1.48-7.47,2.32-.46,1-.89,2-1.34,3a80.3,80.3,0,0,0-3,8c-.81,2.6-1.34,5.13-2,7.42-.46,2.33-.78,4.49-1.12,6.39s-.39,3.58-.57,5c-.25,2.75-.4,4.32-.4,4.32l.57.05s.56-1.53,1.39-4.22Z"/><path class="cls-32" d="M213,128l-.63,1.07-2,4c-1.37,2.58-2.45,5.19-3.48,7.66l-1.5,3.6-1.22,3.43c-.77,2.21-1.53,4.21-2.05,6s-1,3.4-1.33,4.7l-1.16,4.1.82.25s1.06-1.3,2.62-3.66c.76-1.18,1.74-2.61,2.68-4.29s2.26-3.39,3.38-5.37c2.33-3.85,5.1-8.4,8-13.05l2.2-3.55c.31-.42.6-.87.9-1.3-2.27-1.27-4.7-2.48-7.27-3.6Z"/><path class="cls-32" d="M163.65,165.06c.45-.82,1.21-2,2-3.57s1.81-3.44,2.79-5.63c1.16-2.08,2.51-4.34,3.76-6.84s3-5.07,4.49-7.88,3.49-5.57,5.26-8.52,4.1-5.67,6-8.71a28.72,28.72,0,0,1,2.26-3c-2.95-.62-6-1.14-9.12-1.59a111.66,111.66,0,0,0-5.79,9.7,89.55,89.55,0,0,0-4.6,9.51,85.76,85.76,0,0,0-3.46,8.81c-.91,2.8-1.74,5.36-2.47,7.63-.54,2.3-1,4.31-1.41,6-.78,3.31-1.22,5.21-1.22,5.21l.83.2.72-1.26Z"/><path class="cls-32" d="M144.5,118.21l-.41.54c-.92,1.49-1.84,3-2.76,4.45-2,2.88-3.21,6.08-4.74,9s-2.41,6-3.56,8.79-1.78,5.6-2.59,8.1a69.05,69.05,0,0,0-1.83,6.94c-.43,2.08-.8,3.9-1.1,5.39-.62,3-1,4.71-1,4.71l.84.18.66-1.14c.4-.75,1.1-1.82,1.78-3.23s1.62-3.11,2.49-5.09,2.13-4.06,3.2-6.35l1.77-3.53c.57-1.21,1.18-2.47,1.91-3.72l2.11-3.87c.75-1.3,1.32-2.71,2.17-4,1.61-2.59,3.12-5.37,4.93-7.91.87-1.3,1.73-2.61,2.6-3.93l3-3.62,1.39-1.88.35-.37q-5.72.07-11.22.52Z"/><path class="cls-32" d="M96,166.72a1.38,1.38,0,1,1-1.38-1.37A1.37,1.37,0,0,1,96,166.72Z"/><path class="cls-32" d="M103.27,166.72a1.38,1.38,0,1,1-1.38-1.37,1.37,1.37,0,0,1,1.38,1.37Z"/><path class="cls-32" d="M107,172.41a1.38,1.38,0,1,1-2.75,0,1.38,1.38,0,0,1,2.75,0Z"/><path class="cls-32" d="M113.57,169.27a1.77,1.77,0,1,1-1.77-1.76,1.77,1.77,0,0,1,1.77,1.76Z"/><path class="cls-32" d="M113.77,174.77a1,1,0,1,1-1-1,1,1,0,0,1,1,1Z"/><path class="cls-32" d="M120.81,175.62a1.83,1.83,0,1,1-1.83-1.83,1.83,1.83,0,0,1,1.83,1.83Z"/><path class="cls-32" d="M126.37,171.53a2.26,2.26,0,1,1-2.25-2.26,2.26,2.26,0,0,1,2.25,2.26Z"/><path class="cls-32" d="M136.19,178.72a1.28,1.28,0,1,1-1.28-1.27,1.28,1.28,0,0,1,1.28,1.27Z"/><path class="cls-32" d="M141.13,170.08a2,2,0,1,1-2-2,2,2,0,0,1,2,2Z"/><path class="cls-32" d="M144.43,177.25a1.5,1.5,0,1,1-1.5-1.5,1.5,1.5,0,0,1,1.5,1.5Z"/><path class="cls-32" d="M152.67,176.34a1.57,1.57,0,1,1-1.57-1.57,1.57,1.57,0,0,1,1.57,1.57Z"/><path class="cls-32" d="M157,168.86a2.14,2.14,0,1,1-2.14-2.14,2.14,2.14,0,0,1,2.14,2.14Z"/><path class="cls-32" d="M165.82,176.6a1,1,0,1,1-1-1,1,1,0,0,1,1,1Z"/><path class="cls-32" d="M175,175.06a1.28,1.28,0,1,1-1.27-1.27,1.27,1.27,0,0,1,1.27,1.27Z"/><path class="cls-32" d="M177.4,171.25a1.18,1.18,0,1,1-1.18-1.17,1.18,1.18,0,0,1,1.18,1.17Z"/><path class="cls-32" d="M190.17,168.79a2.07,2.07,0,1,1-2.07-2.07,2.07,2.07,0,0,1,2.07,2.07Z"/><path class="cls-32" d="M197.81,172.82a1.57,1.57,0,1,1-1.57-1.57,1.57,1.57,0,0,1,1.57,1.57Z"/><polygon class="cls-32" points="204.48 168.68 203.89 169.27 203.3 168.68 203.89 168.09 204.48 168.68 204.48 168.68"/><path class="cls-32" d="M213.31,167.7a2.36,2.36,0,1,1-2.35-2.35,2.36,2.36,0,0,1,2.35,2.35Z"/><path class="cls-32" d="M220.23,162.43a1.2,1.2,0,1,1-1.2-1.21,1.2,1.2,0,0,1,1.2,1.21Z"/><path class="cls-10" d="M85.34,164.58a22,22,0,0,1-44,0c-.89-11.82,8.95-22.18,22-22.18s22.88,10.36,22,22.18Z"/><path class="cls-9" d="M69.27,143.17c-.18-.06-.36-.12-.57-.17a24,24,0,0,0-5.35-.6c-3.31,0-17.36,2.23-13.07,8.09A7.26,7.26,0,0,0,54,152.86a16.83,16.83,0,0,0,13-.9c2.21-1.16,5.19-2.61,7.76-1.54,3.19,1.32,3.71,6.27,3.71,9.28a18.52,18.52,0,0,1-37,.7,19.37,19.37,0,0,0-.14,4.18,22,22,0,0,0,44,0c.75-10-6.11-18.84-16.07-21.41Z"/><path class="cls-33" d="M59.83,147.21s0-.19-.1-.54-.18-.79-.31-1.31a17.21,17.21,0,0,0-.61-1.78,13.92,13.92,0,0,0-1-1.89,11.16,11.16,0,0,0-2.41-2.91,7.31,7.31,0,0,0-.94-.67l-.35-.2-.07,0A2,2,0,0,1,56,134.41l.26.17.54.42A11.7,11.7,0,0,1,58,136.19a14.7,14.7,0,0,1,2.56,4.17,18.66,18.66,0,0,1,.79,2.4c.19.78.31,1.51.4,2.14s.12,1.19.12,1.52l0,.54a1.05,1.05,0,0,1-2.08.25Z"/><path class="cls-16" d="M68.26,140.54c2.44-1.42,5.31-.95,8-.92,1.11,0,6.33-.28,6.52-2-.44,4-2.19,9.25-6.48,10.29a18.14,18.14,0,0,1-6,.07l-8.42-.84a19.22,19.22,0,0,1,5.57-6.06q.4-.28.78-.51Z"/><path class="cls-34" d="M49.1,154.33A1.12,1.12,0,1,1,48,153.21a1.13,1.13,0,0,1,1.12,1.12Z"/><path class="cls-34" d="M51,159a1.15,1.15,0,1,1-1.15-1.16A1.15,1.15,0,0,1,51,159Z"/><path class="cls-34" d="M48.54,159.29a.84.84,0,0,1-1.68,0,.84.84,0,1,1,1.68,0Z"/><path class="cls-34" d="M53.75,163.62a1.94,1.94,0,1,1-1.94-1.93,1.93,1.93,0,0,1,1.94,1.93Z"/><path class="cls-34" d="M54.71,160.78a.65.65,0,0,1-.65.66.66.66,0,1,1,0-1.31.65.65,0,0,1,.65.65Z"/><path class="cls-34" d="M48.42,163.31a1.13,1.13,0,1,1-1.13-1.12,1.13,1.13,0,0,1,1.13,1.12Z"/><path class="cls-34" d="M58.64,164a1.19,1.19,0,1,1-1.18-1.19A1.18,1.18,0,0,1,58.64,164Z"/><path class="cls-34" d="M61.91,162.3a.86.86,0,1,1-.86-.86.85.85,0,0,1,.86.86Z"/><path class="cls-34" d="M55.77,167.28a.86.86,0,1,1-.86-.85.85.85,0,0,1,.86.85Z"/><path class="cls-35" d="M234.14,166a13.63,13.63,0,0,1,2.63-3.85,3.78,3.78,0,0,1,3.06-1.2c1.32.32,1.59,1.87,1.16,3a22.42,22.42,0,0,1,4.86-7.27,10.33,10.33,0,0,1,3.76-2.29c1.81-.59,2.8-.07,2.91,1.83,0-.52,1.45-1.78,1.81-2.13a14.81,14.81,0,0,1,2.44-2c1.34-.87,8.15-4,7.88-.09.06-.84,3.57-1.81,4.23-1.95a5.34,5.34,0,0,1,4.49.89,3.19,3.19,0,0,1,.64,4.42c2.1-.21,3.52,2.47,2.93,4.5s-2.41,3.42-4.11,4.66c-4.26,3.14-8.47,6.24-12.43,9.69-3.16,2.76-8.8,3.24-12.82,3.85a74.13,74.13,0,0,1-15.11.73,69.14,69.14,0,0,1-7.73-.82c-2-.32-4.79-1.55-6.81-1.43a19.88,19.88,0,0,0,12.55-5.71,19.39,19.39,0,0,0,3.66-4.87Z"/><path class="cls-35" d="M233.21,191.62a13.7,13.7,0,0,0,2.78,3.75,3.75,3.75,0,0,0,3.09,1.09c1.31-.37,1.53-1.93,1-3a22.5,22.5,0,0,0,5.12,7.09,10.11,10.11,0,0,0,3.85,2.15c1.83.53,2.8,0,2.83-1.93,0,.52,1.52,1.72,1.89,2.06a16.37,16.37,0,0,0,2.51,1.87c1.38.81,8.29,3.72,7.88-.21.09.85,3.63,1.68,4.3,1.8a5.3,5.3,0,0,0,4.45-1.06,3.16,3.16,0,0,0,.48-4.43c2.11.13,3.43-2.6,2.76-4.6s-2.52-3.33-4.27-4.52c-4.37-3-8.69-5.92-12.78-9.23-3.25-2.64-8.9-2.91-12.94-3.37a74.26,74.26,0,0,0-22.83.91c-2,.41-4.73,1.73-6.75,1.68a19.9,19.9,0,0,1,12.75,5.26,19,19,0,0,1,3.83,4.73Z"/><path class="cls-24" d="M248.47,191.22a13.82,13.82,0,0,1-6-.91,16.83,16.83,0,0,1-4.23-2.68c-1.28-1-2.28-2.55-3.82-3.22a23.54,23.54,0,0,0-5.51-1.18c-5.29-.91-10.83-3.66-15.93-5.39,1.93.66,5.89-.52,7.89-.82,4.08-.62,8.35-1.18,12.09-3.13a49.71,49.71,0,0,0,6-3.7c1.68-1.22,3.5-2,5.57-1.08a11.76,11.76,0,0,1,7.67-6.48c1.28-.34,2.89-.33,3.64.76-.48-.7,3.84-3,4.33-3.22a31,31,0,0,1,5-1.75,3.67,3.67,0,0,1,2.79.28c.79.54.95,2,.07,2.37a18.51,18.51,0,0,1,9.21-2.92,5.88,5.88,0,0,1,4.07,1c1.1.93,1.39,2.87.26,3.76,1.11-.87,3.93-.61,5.22-.45a13.65,13.65,0,0,1,11.78,11.07c.81,3.38-.2,7-3.61,8.45a7.58,7.58,0,0,1-11.44,5.06,8.45,8.45,0,0,1-14.12,3.51,11.75,11.75,0,0,1-17-.3,12.29,12.29,0,0,1-3.92.94Z"/><path class="cls-36" d="M213.71,192.47A124.49,124.49,0,0,1,234,188c3.05-.44,13.76-1.24,13.84-5.08.09-4.54-19.4-1.78-22.11-1.64a61,61,0,0,1-9.16.18c-2.54-.25-5.29-1.12-7.81-.18-3,1.12-3.56,5.86-2.54,8.47a5.11,5.11,0,0,0,3.3,3.22,7.78,7.78,0,0,0,4.19-.52Z"/><path class="cls-4" d="M210.21,185.74c-.27-1.61-1.12-2.9-2.72-2.54s-2.11,2.41-2.22,3.94A4.4,4.4,0,0,0,206,190a2.26,2.26,0,0,0,3.11.61c.94-.75,1.38-3,1.07-4.87Z"/><path class="cls-37" d="M273.48,175.64c.93-.62,1.83-1.29,2.76-1.87a69.93,69.93,0,0,1,12.84-6.18,49.74,49.74,0,0,1,13.86-3,39.52,39.52,0,0,1,6.95.15c2.3.26,4.48,1.23,6.8,1.33a48,48,0,0,0-18,2.92l-19.52,6.9a33.57,33.57,0,0,0,16.95-.15c-10.28,3.73-21.06,4-31.84,3.9a56.08,56.08,0,0,1,6.28-2.48,11.93,11.93,0,0,0,3-1.51Z"/><path class="cls-37" d="M288.09,158.63A50,50,0,0,1,263.61,177a64.89,64.89,0,0,1-15.3,3.06c-5,.45-10.24-.1-15.21.54,14.64-4.93,29.09-10.27,43.22-16.54,2-.89,4.05-1.81,6.06-2.74,1.31-.6,4.9-1.54,5.71-2.69Z"/><path class="cls-37" d="M264.82,183.85a98.74,98.74,0,0,0,11.14-.73,84.32,84.32,0,0,0,28.69-9.78c-1.54.83-3,2.87-4.34,4-1.58,1.34-3.22,2.62-4.92,3.82a59,59,0,0,1-23.15,10.24C263,193.14,253,192,243.8,190q-3.88-.84-7.69-2c-1.31-.41-2.62-.84-3.91-1.3-.89-.32-2.36-1.25-3.27-1.24,3.35,0,6.71.16,10.06.06,4.93-.15,9.87-1,14.8-1.35,3.67-.24,7.35-.26,11-.33Z"/><path class="cls-38" d="M250.67,177.57c11.36-2.91,22.75-5.82,34.36-7.47,13.73-1.94,28.15-1.49,42.06-2a92,92,0,0,0-24.44,3.68c-8.09,2.33-15.69,5.91-23.59,8.78a79.37,79.37,0,0,1-28.34,4.79,77.32,77.32,0,0,1-12-1.11c-3.29-.57-7.46-2.33-10.81-1.74,7.72-1.36,15.13-3,22.72-5Z"/></g></g></svg>