<svg id="Camada_1" data-name="Camada 1" xmlns="http://www.w3.org/2000/svg" xmlns:xlink="http://www.w3.org/1999/xlink" viewBox="0 0 709.69 222.67"><defs><style>.cls-1{fill:none;}.cls-2{fill:#ffd478;}.cls-3{fill:#027e8f;}.cls-4{fill:#f9f9f9;}.cls-5{clip-path:url(#clip-path);}.cls-6{fill:#eac2a7;}.cls-7{fill:#c9a68f;}.cls-8{fill:#d6aa8b;}.cls-9{fill:#d6d6d6;}.cls-10{fill:#c99f4b;}.cls-11{fill:#6d5f56;}.cls-12{fill:#493e38;}.cls-13{clip-path:url(#clip-path-2);}.cls-14{fill:#fcfcfc;}.cls-15{fill:#d32222;}.cls-16{fill:#f4f4f4;}.cls-17{clip-path:url(#clip-path-3);}.cls-18{fill:#b7b7b7;}.cls-19{fill:#6d472e;}.cls-20{fill:#c99e32;}.cls-21{clip-path:url(#clip-path-4);}.cls-22{fill:#aa7e30;}.cls-23{fill:#fff;}.cls-24{fill:#ddd;}.cls-25{fill:#846829;}.cls-26{fill:#e8cd95;}.cls-27{fill:#eaa000;}</style><clipPath id="clip-path"><path class="cls-1" d="M131.37,205.88s-28.07,21.32-75.08,3.8-47-152.1-47-152.1S66.38-3.79,76.05-2.07s52.2,9.75,52.2,30.49,25.1,113.8,25.1,113.8,10.54,40.81,5.27,43.92"/></clipPath><clipPath id="clip-path-2"><path class="cls-1" d="M93.06,63.21c-.22-.23,13.34.85,18.52-3,0,0,1,10.31-3.6,11.44S97.73,71,93.06,63.21Z"/></clipPath><clipPath id="clip-path-3"><path class="cls-1" d="M100.74,215.9c3.15,6.25,25.3,7.57,27.13,8.15,0,0,.58-25.08-3-39.17S100.74,215.9,100.74,215.9Z"/></clipPath><clipPath id="clip-path-4"><path class="cls-1" d="M73.81,60.46c3.91,1.61.54-5.39.54-5.39s-.37-7-2.36-8.21a29,29,0,0,1-4.33-3.55l10-6.84,27.27-18.7s3.77-5.25-4.84-8.48a10.28,10.28,0,0,0-10.44-3.1s-3.77-4.51-9.22-.37c0,0-11-.64-13.47,4.75a4.09,4.09,0,0,0-4,2.29s-2.28.87-2.72,2.73c0,0-5.56,2.18-5.89,5.89,0,0-3,4.24-.61,7.67,0,0-1.6,3,.47,5.08,0,0-4.64,5.09,0,8.25,0,0-1.14,3.3,5.66,4.65l2,4.17s1.94-.88,7.54,4.71Z"/></clipPath></defs><title>1-Info</title><path class="cls-2" d="M131.74,57H699.69a10,10,0,0,1,10,10V200.73a10,10,0,0,1-10,10H131.74a0,0,0,0,1,0,0V57A0,0,0,0,1,131.74,57Z"/><path class="cls-3" d="M221.53,94.19a5.84,5.84,0,0,1,4.18,1.57,5.26,5.26,0,0,1,1.66,4v1.64a5.26,5.26,0,0,1-1.66,4,5.87,5.87,0,0,1-4.18,1.55H216v-.77l1.54-.12v-11L216,95v-.79h5.56Zm-2.89.9v11h2.89a4.53,4.53,0,0,0,4.7-4.68V99.75a4.55,4.55,0,0,0-4.7-4.66Z"/><path class="cls-3" d="M234,107.18a4.28,4.28,0,0,1-3.21-1.32,4.59,4.59,0,0,1-1.27-3.34V102a4.73,4.73,0,0,1,1.27-3.38,4.35,4.35,0,0,1,6-.24,4.07,4.07,0,0,1,1.08,3v.89h-7.25v.26a4,4,0,0,0,.92,2.68,3,3,0,0,0,2.43,1.09,5.33,5.33,0,0,0,1.8-.27,3.69,3.69,0,0,0,1.28-.79l.49.72a4.2,4.2,0,0,1-1.46.9A6.07,6.07,0,0,1,234,107.18Zm-.15-9a2.83,2.83,0,0,0-2.12.9,3.68,3.68,0,0,0-1,2.23l0,0h6v-.27A2.88,2.88,0,0,0,236,99,2.78,2.78,0,0,0,233.89,98.2Z"/><path class="cls-3" d="M239.76,106.22l1.55-.12V98.38l-1.55-.12v-.78h2.56l.1,1.66a3.55,3.55,0,0,1,1.33-1.36,4.07,4.07,0,0,1,2-.47,3.28,3.28,0,0,1,2.54.94,4.2,4.2,0,0,1,.88,3v4.9l1.55.12V107h-4.24v-.77l1.55-.12v-4.89a3.25,3.25,0,0,0-.66-2.31,2.49,2.49,0,0,0-1.87-.68,3.19,3.19,0,0,0-2,.58,3.24,3.24,0,0,0-1.08,1.56v5.74l1.54.12V107h-4.23Z"/><path class="cls-3" d="M252.39,102.1a4.89,4.89,0,0,1,1.25-3.45,4.72,4.72,0,0,1,6.59,0,4.89,4.89,0,0,1,1.25,3.45v.29a4.89,4.89,0,0,1-1.24,3.45,4.73,4.73,0,0,1-6.6,0,4.89,4.89,0,0,1-1.25-3.45Zm1.14.29a4.24,4.24,0,0,0,.91,2.77,3.33,3.33,0,0,0,5,0,4.29,4.29,0,0,0,.9-2.77v-.29a4.23,4.23,0,0,0-.91-2.76,3.3,3.3,0,0,0-5,0,4.23,4.23,0,0,0-.91,2.76Z"/><path class="cls-3" d="M263.08,98.26v-.78h2.56l.1,1.58a3.5,3.5,0,0,1,1.32-1.3,4,4,0,0,1,2-.45,3.41,3.41,0,0,1,2,.53,2.93,2.93,0,0,1,1.13,1.62,3.8,3.8,0,0,1,1.32-1.58,3.69,3.69,0,0,1,2.09-.57,3.18,3.18,0,0,1,2.54,1,4.59,4.59,0,0,1,.9,3.13v4.65l1.55.12V107h-4.24v-.77l1.54-.12v-4.67a3.66,3.66,0,0,0-.67-2.49,2.4,2.4,0,0,0-1.86-.72,2.65,2.65,0,0,0-2.05.78,3.57,3.57,0,0,0-.88,2v5.1l1.55.12V107h-4.23v-.77l1.55-.12v-4.67a3.65,3.65,0,0,0-.68-2.47,2.44,2.44,0,0,0-1.87-.74,2.76,2.76,0,0,0-2.91,2.09v5.79l1.55.12V107h-4.24v-.77l1.55-.12V98.38Z"/><path class="cls-3" d="M281.85,106.22l1.54-.12V98.38l-1.54-.12v-.78h2.67v8.62l1.55.12V107h-4.22Zm2.67-11.46h-1.13V93.28h1.13Z"/><path class="cls-3" d="M287.77,106.22l1.55-.12V98.38l-1.55-.12v-.78h2.55l.11,1.66a3.55,3.55,0,0,1,1.33-1.36,4,4,0,0,1,2-.47,3.28,3.28,0,0,1,2.54.94,4.24,4.24,0,0,1,.87,3v4.9l1.55.12V107h-4.23v-.77l1.55-.12v-4.89a3.25,3.25,0,0,0-.66-2.31,2.52,2.52,0,0,0-1.88-.68,3.14,3.14,0,0,0-1.95.58,3.33,3.33,0,0,0-1.09,1.56v5.74l1.55.12V107h-4.23Z"/><path class="cls-3" d="M307.59,107a7.38,7.38,0,0,1-.16-.83,4.36,4.36,0,0,1-.05-.72,4.36,4.36,0,0,1-1.52,1.24,4.56,4.56,0,0,1-2.14.5,3.44,3.44,0,0,1-2.33-.72,2.49,2.49,0,0,1-.83-2,2.38,2.38,0,0,1,1.23-2.09,6.2,6.2,0,0,1,3.32-.77h2.27v-1.26a2,2,0,0,0-.71-1.6,3.07,3.07,0,0,0-2-.58,5.11,5.11,0,0,0-1.56.22A3.61,3.61,0,0,0,302,99l-.1,1.28h-.94V98.45a6.18,6.18,0,0,1,1.71-.83,6.9,6.9,0,0,1,2.11-.31,4.3,4.3,0,0,1,2.73.8,2.71,2.71,0,0,1,1,2.29v4.68c0,.19,0,.38,0,.55a4.52,4.52,0,0,0,.06.53l1,.06V107Zm-3.74-.75a4.38,4.38,0,0,0,2.17-.52,3.2,3.2,0,0,0,1.36-1.37v-1.9h-2.29a4.56,4.56,0,0,0-2.47.59,1.75,1.75,0,0,0-.93,1.5,1.49,1.49,0,0,0,.58,1.23A2.38,2.38,0,0,0,303.85,106.24Z"/><path class="cls-3" d="M311,98.26v-.78h2.56l.1,1.58a3.5,3.5,0,0,1,1.32-1.3,4.07,4.07,0,0,1,2-.45,3.38,3.38,0,0,1,2,.53A2.89,2.89,0,0,1,320,99.46a3.8,3.8,0,0,1,1.32-1.58,3.72,3.72,0,0,1,2.1-.57,3.21,3.21,0,0,1,2.54,1,4.64,4.64,0,0,1,.89,3.13v4.65l1.55.12V107h-4.24v-.77l1.54-.12v-4.67a3.71,3.71,0,0,0-.66-2.49,2.43,2.43,0,0,0-1.87-.72,2.61,2.61,0,0,0-2,.78,3.58,3.58,0,0,0-.89,2v.13a.71.71,0,0,1,0,.16v4.81l1.54.12V107h-4.23v-.77l1.55-.12v-4.67a3.65,3.65,0,0,0-.68-2.47,2.41,2.41,0,0,0-1.87-.74,2.76,2.76,0,0,0-2.91,2.09v5.79l1.55.12V107H311v-.77l1.55-.12V98.38Z"/><path class="cls-3" d="M329.72,102.1A4.89,4.89,0,0,1,331,98.65a4.73,4.73,0,0,1,6.6,0,4.89,4.89,0,0,1,1.24,3.45v.29a4.89,4.89,0,0,1-1.24,3.45,4.26,4.26,0,0,1-3.28,1.34,4.33,4.33,0,0,1-3.32-1.34,4.89,4.89,0,0,1-1.24-3.45Zm1.14.29a4.29,4.29,0,0,0,.9,2.77,3,3,0,0,0,2.52,1.13,3,3,0,0,0,2.48-1.13,4.29,4.29,0,0,0,.9-2.77v-.29a4.28,4.28,0,0,0-.9-2.76,3.31,3.31,0,0,0-5,0,4.28,4.28,0,0,0-.9,2.76Z"/><path class="cls-3" d="M348.1,100.42h-.93L347,99.07a2.87,2.87,0,0,0-1.08-.64,4.53,4.53,0,0,0-1.49-.23,3,3,0,0,0-1.87.5,1.47,1.47,0,0,0-.62,1.16,1.33,1.33,0,0,0,.54,1.09,5.47,5.47,0,0,0,2.14.76,7.4,7.4,0,0,1,2.74,1,2.08,2.08,0,0,1,.91,1.78,2.24,2.24,0,0,1-1,1.92,4.63,4.63,0,0,1-2.74.74,6.83,6.83,0,0,1-2.08-.3,5,5,0,0,1-1.62-.83v-1.91h.92l.17,1.35a2.7,2.7,0,0,0,1.15.61,5.36,5.36,0,0,0,1.46.19,3.34,3.34,0,0,0,1.94-.5,1.42,1.42,0,0,0,.12-2.38,4.9,4.9,0,0,0-2.14-.82,7.57,7.57,0,0,1-2.72-1,2,2,0,0,1-.89-1.71,2.25,2.25,0,0,1,1-1.84,4.25,4.25,0,0,1,2.63-.75,6.14,6.14,0,0,1,2.06.32,4.25,4.25,0,0,1,1.53.86Z"/><path class="cls-3" d="M362.2,107a7.38,7.38,0,0,1-.16-.83,5.81,5.81,0,0,1-.05-.72,4.27,4.27,0,0,1-1.52,1.24,4.52,4.52,0,0,1-2.13.5,3.45,3.45,0,0,1-2.34-.72,2.49,2.49,0,0,1-.82-2,2.37,2.37,0,0,1,1.22-2.09,6.23,6.23,0,0,1,3.32-.77H362v-1.26a1.94,1.94,0,0,0-.71-1.6,3.06,3.06,0,0,0-2-.58,5.18,5.18,0,0,0-1.57.22,3.72,3.72,0,0,0-1.18.58l-.09,1.28h-.94V98.45a6,6,0,0,1,1.7-.83,7,7,0,0,1,2.11-.31,4.31,4.31,0,0,1,2.74.8,2.71,2.71,0,0,1,1,2.29v4.68c0,.19,0,.38,0,.55a3.07,3.07,0,0,0,.07.53l1,.06V107Zm-3.74-.75a4.36,4.36,0,0,0,2.17-.52,3.2,3.2,0,0,0,1.36-1.37v-1.9H359.7a4.58,4.58,0,0,0-2.47.59,1.74,1.74,0,0,0-.92,1.5,1.51,1.51,0,0,0,.57,1.23A2.38,2.38,0,0,0,358.46,106.24Z"/><path class="cls-3" d="M374.66,102.5a5.26,5.26,0,0,1-1,3.41,3.56,3.56,0,0,1-2.88,1.27,4.18,4.18,0,0,1-1.94-.42,3.32,3.32,0,0,1-1.32-1.2l-.13,1.43h-1V94.18l-1.54-.12v-.78h2.67V99a3.61,3.61,0,0,1,1.31-1.24,4,4,0,0,1,1.9-.43,3.44,3.44,0,0,1,2.9,1.36,5.9,5.9,0,0,1,1,3.65Zm-1.15-.18a5.2,5.2,0,0,0-.76-3,2.51,2.51,0,0,0-2.24-1.14,3.16,3.16,0,0,0-1.92.54,3.4,3.4,0,0,0-1.08,1.4v4.3a3.09,3.09,0,0,0,1.14,1.31,3.35,3.35,0,0,0,1.88.49,2.59,2.59,0,0,0,2.23-1,4.52,4.52,0,0,0,.75-2.74Z"/><path class="cls-3" d="M384,100.42h-.93L383,99.07a3,3,0,0,0-1.08-.64,4.55,4.55,0,0,0-1.5-.23,2.93,2.93,0,0,0-1.86.5,1.44,1.44,0,0,0-.62,1.16,1.34,1.34,0,0,0,.53,1.09,5.47,5.47,0,0,0,2.14.76,7.39,7.39,0,0,1,2.75,1,2.1,2.1,0,0,1,.91,1.78,2.26,2.26,0,0,1-1,1.92,4.66,4.66,0,0,1-2.75.74,6.72,6.72,0,0,1-2.07-.3,4.77,4.77,0,0,1-1.62-.83v-1.91h.92l.16,1.35a2.76,2.76,0,0,0,1.15.61,5.41,5.41,0,0,0,1.46.19,3.39,3.39,0,0,0,2-.5,1.42,1.42,0,0,0,.12-2.38,5,5,0,0,0-2.15-.82,7.51,7.51,0,0,1-2.71-1,2,2,0,0,1-.89-1.71,2.22,2.22,0,0,1,1-1.84,4.24,4.24,0,0,1,2.62-.75,6.2,6.2,0,0,1,2.07.32,4.2,4.2,0,0,1,1.52.86Z"/><path class="cls-3" d="M388.93,95.05v2.43h2.26v.86h-2.26v6.2a1.93,1.93,0,0,0,.36,1.32,1.29,1.29,0,0,0,1,.39,4.61,4.61,0,0,0,.53,0c.18,0,.38,0,.6-.07l.17.78a3.31,3.31,0,0,1-.69.17,4.43,4.43,0,0,1-.81.07,2.19,2.19,0,0,1-1.69-.64,2.83,2.83,0,0,1-.6-2v-6.2H386v-.86h1.77V95.05Z"/><path class="cls-3" d="M395.73,97.48l.14,1.58v.12a3.45,3.45,0,0,1,1.2-1.38,3.16,3.16,0,0,1,1.79-.49,3,3,0,0,1,.42,0l.33.06-.15,1-.84-.06a2.71,2.71,0,0,0-1.76.56,3.08,3.08,0,0,0-1,1.54v5.67l1.55.12V107H393.2v-.77l1.54-.12V98.38l-1.54-.12v-.78h2.53Z"/><path class="cls-3" d="M408.18,107c-.08-.32-.13-.6-.17-.83a5.79,5.79,0,0,1,0-.72,4.36,4.36,0,0,1-1.52,1.24,4.56,4.56,0,0,1-2.14.5,3.44,3.44,0,0,1-2.33-.72,2.49,2.49,0,0,1-.83-2,2.38,2.38,0,0,1,1.23-2.09,6.2,6.2,0,0,1,3.32-.77H408v-1.26a2,2,0,0,0-.71-1.6,3.07,3.07,0,0,0-2-.58,5.11,5.11,0,0,0-1.56.22,3.61,3.61,0,0,0-1.18.58l-.1,1.28h-.94V98.45a6.18,6.18,0,0,1,1.71-.83,6.9,6.9,0,0,1,2.11-.31,4.3,4.3,0,0,1,2.73.8,2.71,2.71,0,0,1,1,2.29v4.68c0,.19,0,.38,0,.55a4.52,4.52,0,0,0,.06.53l1,.06V107Zm-3.74-.75a4.38,4.38,0,0,0,2.17-.52,3.2,3.2,0,0,0,1.36-1.37v-1.9h-2.29a4.56,4.56,0,0,0-2.47.59,1.75,1.75,0,0,0-.93,1.5,1.49,1.49,0,0,0,.58,1.23A2.38,2.38,0,0,0,404.44,106.24Z"/><path class="cls-3" d="M416.2,106.29a3.41,3.41,0,0,0,2-.6,1.92,1.92,0,0,0,.86-1.66h1l0,0a2.55,2.55,0,0,1-1.14,2.21,4.43,4.43,0,0,1-2.74.89,4.06,4.06,0,0,1-3.24-1.33,5,5,0,0,1-1.15-3.43v-.37A5,5,0,0,1,413,98.64a4,4,0,0,1,3.23-1.33,5.48,5.48,0,0,1,2.17.41,4.19,4.19,0,0,1,1.6,1.12l.05,2.08h-1l-.18-1.69a3.11,3.11,0,0,0-1.13-.75,4,4,0,0,0-1.54-.28,2.82,2.82,0,0,0-2.45,1.1,4.54,4.54,0,0,0-.79,2.75v.37a4.6,4.6,0,0,0,.79,2.78A2.81,2.81,0,0,0,416.2,106.29Zm.29.78-.11.56a2.45,2.45,0,0,1,1.21.43,1.26,1.26,0,0,1,.47,1.08,1.46,1.46,0,0,1-.75,1.28,4.11,4.11,0,0,1-2.15.47l-.07-.68a3.38,3.38,0,0,0,1.43-.27.86.86,0,0,0,.59-.79.73.73,0,0,0-.39-.7,3.91,3.91,0,0,0-1.38-.26l.27-1.12Z"/><path class="cls-3" d="M429.28,107c-.07-.32-.13-.6-.16-.83a5.81,5.81,0,0,1-.05-.72,4.24,4.24,0,0,1-1.51,1.24,4.59,4.59,0,0,1-2.14.5,3.42,3.42,0,0,1-2.33-.72,2.49,2.49,0,0,1-.83-2,2.38,2.38,0,0,1,1.23-2.09,6.2,6.2,0,0,1,3.32-.77h2.26v-1.26a2,2,0,0,0-.7-1.6,3.07,3.07,0,0,0-2-.58,5.11,5.11,0,0,0-1.56.22,3.61,3.61,0,0,0-1.18.58l-.1,1.28h-.94V98.45a6.12,6.12,0,0,1,1.7-.83,7,7,0,0,1,2.12-.31,4.3,4.3,0,0,1,2.73.8,2.71,2.71,0,0,1,1,2.29v4.68c0,.19,0,.38,0,.55a4.52,4.52,0,0,0,.06.53l1,.06V107Zm.41-13.17a1.71,1.71,0,0,1-.52,1.28,1.79,1.79,0,0,1-1.3.51,2.58,2.58,0,0,1-1.43-.48,2.38,2.38,0,0,0-1.25-.49,1.06,1.06,0,0,0-.75.31,1.09,1.09,0,0,0-.3.78l-.75-.16a1.74,1.74,0,0,1,1.8-1.78,2.76,2.76,0,0,1,1.4.48,2.62,2.62,0,0,0,1.28.49,1,1,0,0,0,.75-.32,1.09,1.09,0,0,0,.31-.8Zm-4.15,12.42a4.39,4.39,0,0,0,2.18-.52,3.18,3.18,0,0,0,1.35-1.37v-1.9h-2.28a4.56,4.56,0,0,0-2.47.59,1.75,1.75,0,0,0-.93,1.5,1.51,1.51,0,0,0,.57,1.23A2.4,2.4,0,0,0,425.54,106.24Z"/><path class="cls-3" d="M432.92,102.1a4.89,4.89,0,0,1,1.24-3.45,4.73,4.73,0,0,1,6.6,0A4.89,4.89,0,0,1,442,102.1v.29a4.89,4.89,0,0,1-1.24,3.45,4.27,4.27,0,0,1-3.29,1.34,4.31,4.31,0,0,1-3.31-1.34,4.89,4.89,0,0,1-1.24-3.45Zm1.14.29a4.29,4.29,0,0,0,.9,2.77,3.33,3.33,0,0,0,5,0,4.29,4.29,0,0,0,.9-2.77v-.29a4.28,4.28,0,0,0-.9-2.76,3,3,0,0,0-2.51-1.14A3,3,0,0,0,435,99.34a4.28,4.28,0,0,0-.9,2.76Z"/><path class="cls-3" d="M455.67,107a7.38,7.38,0,0,1-.16-.83,5.81,5.81,0,0,1-.05-.72,4.36,4.36,0,0,1-1.52,1.24,4.52,4.52,0,0,1-2.13.5,3.45,3.45,0,0,1-2.34-.72,2.49,2.49,0,0,1-.82-2,2.37,2.37,0,0,1,1.22-2.09,6.23,6.23,0,0,1,3.32-.77h2.27v-1.26a2,2,0,0,0-.71-1.6,3.07,3.07,0,0,0-2-.58,5.11,5.11,0,0,0-1.56.22A3.72,3.72,0,0,0,450,99l-.09,1.28H449V98.45a6,6,0,0,1,1.7-.83,6.9,6.9,0,0,1,2.11-.31,4.28,4.28,0,0,1,2.73.8,2.71,2.71,0,0,1,1,2.29v4.68c0,.19,0,.38,0,.55a4.52,4.52,0,0,0,.06.53l1,.06V107Zm-3.74-.75a4.36,4.36,0,0,0,2.17-.52,3.2,3.2,0,0,0,1.36-1.37v-1.9h-2.29a4.58,4.58,0,0,0-2.47.59,1.75,1.75,0,0,0-.93,1.5,1.52,1.52,0,0,0,.58,1.23A2.38,2.38,0,0,0,451.93,106.24Z"/><path class="cls-3" d="M471.12,107a7.38,7.38,0,0,1-.16-.83,5.81,5.81,0,0,1,0-.72,4.27,4.27,0,0,1-1.52,1.24,4.52,4.52,0,0,1-2.13.5,3.45,3.45,0,0,1-2.34-.72,2.49,2.49,0,0,1-.82-2,2.37,2.37,0,0,1,1.22-2.09,6.23,6.23,0,0,1,3.32-.77h2.27v-1.26a1.94,1.94,0,0,0-.71-1.6,3.06,3.06,0,0,0-2-.58,5.18,5.18,0,0,0-1.57.22,3.72,3.72,0,0,0-1.18.58l-.09,1.28h-.94V98.45a6,6,0,0,1,1.7-.83,7,7,0,0,1,2.11-.31,4.31,4.31,0,0,1,2.74.8,2.71,2.71,0,0,1,1,2.29v4.68c0,.19,0,.38,0,.55a3.07,3.07,0,0,0,.07.53l1,.06V107Zm-3.74-.75a4.36,4.36,0,0,0,2.17-.52,3.2,3.2,0,0,0,1.36-1.37v-1.9h-2.29a4.58,4.58,0,0,0-2.47.59,1.74,1.74,0,0,0-.92,1.5,1.51,1.51,0,0,0,.57,1.23A2.38,2.38,0,0,0,467.38,106.24Z"/><path class="cls-3" d="M479.14,106.29a3.39,3.39,0,0,0,2-.6A1.9,1.9,0,0,0,482,104h1l0,0a2.56,2.56,0,0,1-1.13,2.21,4.48,4.48,0,0,1-2.75.89,4.08,4.08,0,0,1-3.24-1.33,5.1,5.1,0,0,1-1.15-3.43v-.37a5.08,5.08,0,0,1,1.15-3.41,4,4,0,0,1,3.23-1.33,5.45,5.45,0,0,1,2.17.41,4.23,4.23,0,0,1,1.61,1.12l0,2.08h-1l-.18-1.69a3.24,3.24,0,0,0-1.14-.75,3.92,3.92,0,0,0-1.54-.28,2.8,2.8,0,0,0-2.44,1.1,4.55,4.55,0,0,0-.8,2.75v.37a4.66,4.66,0,0,0,.79,2.78A2.83,2.83,0,0,0,479.14,106.29Zm.29.78-.1.56a2.49,2.49,0,0,1,1.21.43,1.25,1.25,0,0,1,.46,1.08,1.46,1.46,0,0,1-.75,1.28,4.09,4.09,0,0,1-2.14.47l-.07-.68a3.41,3.41,0,0,0,1.43-.27.85.85,0,0,0,.58-.79.73.73,0,0,0-.39-.7,3.91,3.91,0,0,0-1.38-.26l.27-1.12Z"/><path class="cls-3" d="M492.23,107a7.38,7.38,0,0,1-.16-.83,4.36,4.36,0,0,1-.05-.72,4.36,4.36,0,0,1-1.52,1.24,4.52,4.52,0,0,1-2.13.5,3.45,3.45,0,0,1-2.34-.72,2.49,2.49,0,0,1-.83-2,2.38,2.38,0,0,1,1.23-2.09,6.2,6.2,0,0,1,3.32-.77H492v-1.26a2,2,0,0,0-.71-1.6,3.07,3.07,0,0,0-2-.58,5.11,5.11,0,0,0-1.56.22,3.72,3.72,0,0,0-1.18.58l-.09,1.28h-.94V98.45a6,6,0,0,1,1.7-.83,6.9,6.9,0,0,1,2.11-.31,4.3,4.3,0,0,1,2.73.8,2.71,2.71,0,0,1,1,2.29v4.68c0,.19,0,.38,0,.55a4.52,4.52,0,0,0,.06.53l1,.06V107Zm.41-13.17a1.72,1.72,0,0,1-.53,1.28,1.77,1.77,0,0,1-1.3.51,2.63,2.63,0,0,1-1.43-.48,2.35,2.35,0,0,0-1.24-.49,1,1,0,0,0-.75.31,1.1,1.1,0,0,0-.31.78l-.75-.16a1.74,1.74,0,0,1,1.81-1.78,2.76,2.76,0,0,1,1.4.48,2.59,2.59,0,0,0,1.27.49,1,1,0,0,0,.75-.32,1.09,1.09,0,0,0,.32-.8Zm-4.15,12.42a4.36,4.36,0,0,0,2.17-.52,3.2,3.2,0,0,0,1.36-1.37v-1.9h-2.29a4.58,4.58,0,0,0-2.47.59,1.75,1.75,0,0,0-.93,1.5,1.52,1.52,0,0,0,.58,1.23A2.38,2.38,0,0,0,488.49,106.24Z"/><path class="cls-3" d="M495.86,102.1a4.89,4.89,0,0,1,1.25-3.45,4.72,4.72,0,0,1,6.59,0A4.89,4.89,0,0,1,505,102.1v.29a4.93,4.93,0,0,1-1.24,3.45,4.73,4.73,0,0,1-6.6,0,4.89,4.89,0,0,1-1.25-3.45Zm1.14.29a4.29,4.29,0,0,0,.9,2.77,3.34,3.34,0,0,0,5,0,4.29,4.29,0,0,0,.9-2.77v-.29a4.28,4.28,0,0,0-.91-2.76,3.31,3.31,0,0,0-5,0,4.28,4.28,0,0,0-.9,2.76Z"/><path class="cls-3" d="M511.52,102.1a4.89,4.89,0,0,1,1.25-3.45,4.72,4.72,0,0,1,6.59,0,4.89,4.89,0,0,1,1.25,3.45v.29a4.93,4.93,0,0,1-1.24,3.45,4.73,4.73,0,0,1-6.6,0,4.89,4.89,0,0,1-1.25-3.45Zm1.14.29a4.29,4.29,0,0,0,.9,2.77,3.34,3.34,0,0,0,5,0,4.29,4.29,0,0,0,.9-2.77v-.29a4.28,4.28,0,0,0-.91-2.76,3.31,3.31,0,0,0-5,0,4.28,4.28,0,0,0-.9,2.76Z"/><path class="cls-3" d="M530,105.43a3.41,3.41,0,0,1-1.32,1.29,4.14,4.14,0,0,1-2,.46,3.24,3.24,0,0,1-2.54-1,4.65,4.65,0,0,1-.92-3.17V98.38L522,98.26v-.78h2.4V103a3.93,3.93,0,0,0,.64,2.5,2.28,2.28,0,0,0,1.82.75,3.52,3.52,0,0,0,2.06-.53,2.72,2.72,0,0,0,1.07-1.45v-5.9l-1.46-.12v-.78h2.6v8.62l1.38.12V107h-2.37Z"/><path class="cls-3" d="M538.88,102.1a4.89,4.89,0,0,1,1.24-3.45,4.73,4.73,0,0,1,6.6,0A4.93,4.93,0,0,1,548,102.1v.29a4.89,4.89,0,0,1-1.24,3.45,4.27,4.27,0,0,1-3.29,1.34,4.31,4.31,0,0,1-3.31-1.34,4.89,4.89,0,0,1-1.24-3.45Zm1.14.29a4.29,4.29,0,0,0,.9,2.77,3.33,3.33,0,0,0,5,0,4.29,4.29,0,0,0,.9-2.77v-.29a4.23,4.23,0,0,0-.91-2.76,3.3,3.3,0,0,0-5,0,4.28,4.28,0,0,0-.9,2.76Z"/><path class="cls-3" d="M559.06,107.18a4.24,4.24,0,0,1-3.2-1.32,4.59,4.59,0,0,1-1.28-3.34V102a4.77,4.77,0,0,1,1.27-3.38,4.05,4.05,0,0,1,3.06-1.34,4,4,0,0,1,3,1.1,4.07,4.07,0,0,1,1.08,3v.89h-7.25v.26a4,4,0,0,0,.93,2.68,3,3,0,0,0,2.42,1.09,5.35,5.35,0,0,0,1.81-.27,3.79,3.79,0,0,0,1.28-.79l.48.72a4,4,0,0,1-1.46.9A6,6,0,0,1,559.06,107.18Zm-.15-9a2.81,2.81,0,0,0-2.11.9,3.63,3.63,0,0,0-1,2.23l0,0h6v-.27a2.92,2.92,0,0,0-.79-2.07A2.8,2.8,0,0,0,558.91,98.2Z"/><path class="cls-3" d="M564.83,98.34v-.86h1.7V96.09a3,3,0,0,1,.78-2.21,2.94,2.94,0,0,1,2.18-.78,4.4,4.4,0,0,1,.62,0c.22,0,.43.07.66.12l-.15.87-.46-.08a4.61,4.61,0,0,0-.56,0,1.85,1.85,0,0,0-1.43.54,2.22,2.22,0,0,0-.5,1.53v1.39h2.45v.86h-2.45v7.76l1.55.12V107H565v-.77l1.54-.12V98.34Z"/><path class="cls-3" d="M576.18,107.18a4.26,4.26,0,0,1-3.21-1.32,4.59,4.59,0,0,1-1.27-3.34V102A4.77,4.77,0,0,1,573,98.65,4.05,4.05,0,0,1,576,97.31a4,4,0,0,1,3,1.1,4,4,0,0,1,1.09,3v.89h-7.26v.26a4,4,0,0,0,.93,2.68,3,3,0,0,0,2.43,1.09A5.33,5.33,0,0,0,578,106a3.69,3.69,0,0,0,1.28-.79l.48.72a4,4,0,0,1-1.46.9A6,6,0,0,1,576.18,107.18Zm-.16-9a2.81,2.81,0,0,0-2.11.9,3.68,3.68,0,0,0-1,2.23l0,0h6v-.27a2.92,2.92,0,0,0-.79-2.07A2.8,2.8,0,0,0,576,98.2Z"/><path class="cls-3" d="M582,106.22l1.55-.12V98.38L582,98.26v-.78h2.68v8.62l1.54.12V107H582Zm2.68-11.46h-1.13V93.28h1.13Z"/><path class="cls-3" d="M590.77,95.05v2.43H593v.86h-2.26v6.2a1.88,1.88,0,0,0,.37,1.32,1.27,1.27,0,0,0,1,.39,4.87,4.87,0,0,0,.54,0l.6-.07.17.78a3.48,3.48,0,0,1-.69.17,4.54,4.54,0,0,1-.82.07,2.18,2.18,0,0,1-1.68-.64,2.78,2.78,0,0,1-.61-2v-6.2h-1.76v-.86h1.76V95.05Z"/><path class="cls-3" d="M594.93,102.1a4.89,4.89,0,0,1,1.24-3.45,4.73,4.73,0,0,1,6.6,0A4.89,4.89,0,0,1,604,102.1v.29a4.92,4.92,0,0,1-1.23,3.45,4.75,4.75,0,0,1-6.61,0,4.89,4.89,0,0,1-1.24-3.45Zm1.14.29a4.29,4.29,0,0,0,.9,2.77,3,3,0,0,0,2.52,1.13,3,3,0,0,0,2.48-1.13,4.29,4.29,0,0,0,.9-2.77v-.29a4.28,4.28,0,0,0-.9-2.76,3.31,3.31,0,0,0-5,0,4.28,4.28,0,0,0-.9,2.76Z"/><path class="cls-3" d="M617.73,105.62a3.41,3.41,0,0,1-1.32,1.15,4.19,4.19,0,0,1-1.9.41,3.51,3.51,0,0,1-2.88-1.28,5.23,5.23,0,0,1-1-3.4v-.18a5.9,5.9,0,0,1,1-3.65,3.43,3.43,0,0,1,2.9-1.36,4,4,0,0,1,1.86.41,3.72,3.72,0,0,1,1.31,1.19V94.18l-1.55-.12v-.78h2.69V106.1l1.55.12V107h-2.57Zm-6-3.12a4.59,4.59,0,0,0,.74,2.74,2.61,2.61,0,0,0,2.25,1,3.45,3.45,0,0,0,1.83-.45,3.16,3.16,0,0,0,1.14-1.26v-4.5a3.29,3.29,0,0,0-1.1-1.32,3.11,3.11,0,0,0-1.85-.51,2.54,2.54,0,0,0-2.26,1.14,5.28,5.28,0,0,0-.75,3Z"/><path class="cls-3" d="M626.66,107.18a4.28,4.28,0,0,1-3.21-1.32,4.59,4.59,0,0,1-1.27-3.34V102a4.73,4.73,0,0,1,1.27-3.38,4.35,4.35,0,0,1,6-.24,4.07,4.07,0,0,1,1.08,3v.89h-7.25v.26a4,4,0,0,0,.92,2.68,3,3,0,0,0,2.43,1.09,5.33,5.33,0,0,0,1.8-.27,3.69,3.69,0,0,0,1.28-.79l.49.72a4.2,4.2,0,0,1-1.46.9A6,6,0,0,1,626.66,107.18Zm-.15-9a2.79,2.79,0,0,0-2.11.9,3.64,3.64,0,0,0-1,2.23l0,0h6v-.27a2.88,2.88,0,0,0-.79-2.07A2.76,2.76,0,0,0,626.51,98.2Z"/><path class="cls-3" d="M223.66,122h-.93l-.13-1.35a2.87,2.87,0,0,0-1.08-.64,4.53,4.53,0,0,0-1.49-.23,3,3,0,0,0-1.87.5,1.47,1.47,0,0,0-.62,1.16,1.33,1.33,0,0,0,.54,1.09,5.47,5.47,0,0,0,2.14.76,7.4,7.4,0,0,1,2.74,1,2.08,2.08,0,0,1,.91,1.78,2.24,2.24,0,0,1-1,1.92,4.63,4.63,0,0,1-2.74.74,6.83,6.83,0,0,1-2.08-.3,5,5,0,0,1-1.62-.83v-1.92h.92l.17,1.36a2.7,2.7,0,0,0,1.15.61,5.36,5.36,0,0,0,1.46.19,3.34,3.34,0,0,0,1.94-.5,1.42,1.42,0,0,0,.12-2.38,4.9,4.9,0,0,0-2.14-.82,7.57,7.57,0,0,1-2.72-1,2,2,0,0,1-.89-1.71,2.25,2.25,0,0,1,1-1.84,4.25,4.25,0,0,1,2.63-.75,6.14,6.14,0,0,1,2.06.32,4.25,4.25,0,0,1,1.53.86Z"/><path class="cls-3" d="M230.47,128.78a4.28,4.28,0,0,1-3.21-1.32,4.59,4.59,0,0,1-1.27-3.34v-.49a4.72,4.72,0,0,1,1.27-3.38,4,4,0,0,1,3.06-1.34,4,4,0,0,1,3,1.1,4.07,4.07,0,0,1,1.08,3v.89h-7.25v.26a4,4,0,0,0,.92,2.68,3,3,0,0,0,2.43,1.09,5.33,5.33,0,0,0,1.8-.27,3.69,3.69,0,0,0,1.28-.79l.49.72a4.11,4.11,0,0,1-1.46.9A6,6,0,0,1,230.47,128.78Zm-.15-9a2.82,2.82,0,0,0-2.11.89,3.69,3.69,0,0,0-1,2.24l0,0h6v-.26a2.88,2.88,0,0,0-.79-2.07A2.76,2.76,0,0,0,230.32,119.8Z"/><path class="cls-3" d="M236.17,115.66v-.78h2.68V127.7l1.55.12v.77h-4.23v-.77l1.55-.12V115.78Z"/><path class="cls-3" d="M246.72,128.78a4.28,4.28,0,0,1-3.21-1.32,4.59,4.59,0,0,1-1.27-3.34v-.49a4.72,4.72,0,0,1,1.27-3.38,4,4,0,0,1,3.06-1.34,4,4,0,0,1,3,1.1,4.07,4.07,0,0,1,1.08,3v.89h-7.25v.26a4,4,0,0,0,.92,2.68,3,3,0,0,0,2.43,1.09,5.33,5.33,0,0,0,1.8-.27,3.69,3.69,0,0,0,1.28-.79l.49.72a4.2,4.2,0,0,1-1.46.9A6.07,6.07,0,0,1,246.72,128.78Zm-.15-9a2.85,2.85,0,0,0-2.12.89,3.74,3.74,0,0,0-1,2.24l0,0h6v-.26a2.88,2.88,0,0,0-.79-2.07A2.76,2.76,0,0,0,246.57,119.8Z"/><path class="cls-3" d="M257,127.89a3.41,3.41,0,0,0,2-.6,1.92,1.92,0,0,0,.86-1.66h1l0,.05a2.55,2.55,0,0,1-1.14,2.21,4.43,4.43,0,0,1-2.74.89,4,4,0,0,1-3.24-1.34,5,5,0,0,1-1.15-3.42v-.37a5,5,0,0,1,1.15-3.41,4,4,0,0,1,3.23-1.33,5.48,5.48,0,0,1,2.17.41,4.19,4.19,0,0,1,1.6,1.12l.05,2.08h-1l-.18-1.69a3.11,3.11,0,0,0-1.13-.75,4,4,0,0,0-1.54-.28,2.83,2.83,0,0,0-2.45,1.1,4.54,4.54,0,0,0-.79,2.75V124a4.6,4.6,0,0,0,.79,2.78A2.83,2.83,0,0,0,257,127.89Z"/><path class="cls-3" d="M263,127.82l1.55-.12V120l-1.55-.12v-.78h2.68v8.62l1.54.12v.77H263Zm2.68-11.46h-1.13v-1.48h1.13Z"/><path class="cls-3" d="M269.09,123.7a4.89,4.89,0,0,1,1.24-3.45,4.73,4.73,0,0,1,6.6,0,4.89,4.89,0,0,1,1.24,3.45V124a4.84,4.84,0,0,1-1.24,3.44,4.23,4.23,0,0,1-3.28,1.35,4.3,4.3,0,0,1-3.32-1.35,4.84,4.84,0,0,1-1.24-3.44Zm1.14.29a4.29,4.29,0,0,0,.9,2.77,3,3,0,0,0,2.52,1.13,3,3,0,0,0,2.48-1.13A4.29,4.29,0,0,0,277,124v-.29a4.28,4.28,0,0,0-.9-2.76,3.31,3.31,0,0,0-5,0,4.28,4.28,0,0,0-.9,2.76Z"/><path class="cls-3" d="M279.81,127.82l1.55-.12V120l-1.55-.12v-.78h2.56l.1,1.66a3.57,3.57,0,0,1,1.34-1.36,4,4,0,0,1,2-.47,3.29,3.29,0,0,1,2.55.94,4.24,4.24,0,0,1,.87,3v4.9l1.55.12v.77h-4.23v-.77l1.54-.12v-4.89a3.25,3.25,0,0,0-.66-2.31,2.49,2.49,0,0,0-1.87-.68,3.08,3.08,0,0,0-2,.58A3.19,3.19,0,0,0,282.5,122v5.74l1.55.12v.77h-4.24Z"/><path class="cls-3" d="M299.63,128.59c-.07-.32-.13-.6-.16-.83a5.81,5.81,0,0,1-.05-.72,4.33,4.33,0,0,1-1.51,1.24,4.59,4.59,0,0,1-2.14.5,3.47,3.47,0,0,1-2.34-.72,2.49,2.49,0,0,1-.82-2,2.38,2.38,0,0,1,1.22-2.09,6.26,6.26,0,0,1,3.33-.77h2.26V122a2,2,0,0,0-.7-1.6,3.09,3.09,0,0,0-2-.58,5.11,5.11,0,0,0-1.56.22,3.67,3.67,0,0,0-1.19.58l-.09,1.28H293v-1.83a6,6,0,0,1,1.7-.83,7,7,0,0,1,2.11-.31,4.31,4.31,0,0,1,2.74.8,2.71,2.71,0,0,1,1,2.29v4.68c0,.19,0,.38,0,.55a4.52,4.52,0,0,0,.06.53l1,.06v.77Zm-3.74-.75a4.39,4.39,0,0,0,2.18-.52,3.18,3.18,0,0,0,1.35-1.37v-1.9h-2.28a4.6,4.6,0,0,0-2.48.59,1.76,1.76,0,0,0-.92,1.5,1.51,1.51,0,0,0,.57,1.23A2.4,2.4,0,0,0,295.89,127.84Z"/><path class="cls-3" d="M305.73,119.08l.14,1.58v.12a3.43,3.43,0,0,1,1.19-1.38,3.18,3.18,0,0,1,1.79-.49,3,3,0,0,1,.42,0l.34.06-.15,1-.85-.06a2.73,2.73,0,0,0-1.76.56,3,3,0,0,0-1,1.54v5.67l1.55.12v.77h-4.23v-.77l1.55-.12V120l-1.55-.12v-.78h2.54Z"/><path class="cls-3" d="M315.8,123.7a4.89,4.89,0,0,1,1.25-3.45,4.72,4.72,0,0,1,6.59,0,4.89,4.89,0,0,1,1.25,3.45V124a4.84,4.84,0,0,1-1.24,3.44,4.71,4.71,0,0,1-6.6,0A4.85,4.85,0,0,1,315.8,124Zm1.14.29a4.24,4.24,0,0,0,.91,2.77,3.33,3.33,0,0,0,5,0,4.29,4.29,0,0,0,.9-2.77v-.29a4.23,4.23,0,0,0-.91-2.76,3.3,3.3,0,0,0-5,0,4.23,4.23,0,0,0-.91,2.76Z"/><path class="cls-3" d="M334.19,122h-.93l-.13-1.35a3,3,0,0,0-1.08-.64,4.55,4.55,0,0,0-1.5-.23,3,3,0,0,0-1.86.5,1.47,1.47,0,0,0-.62,1.16,1.34,1.34,0,0,0,.53,1.09,5.53,5.53,0,0,0,2.14.76,7.39,7.39,0,0,1,2.75,1,2.1,2.1,0,0,1,.91,1.78,2.26,2.26,0,0,1-1,1.92,4.66,4.66,0,0,1-2.75.74,6.72,6.72,0,0,1-2.07-.3,4.87,4.87,0,0,1-1.62-.83v-1.92h.92l.16,1.36a2.82,2.82,0,0,0,1.15.61,5.47,5.47,0,0,0,1.46.19,3.39,3.39,0,0,0,1.95-.5,1.42,1.42,0,0,0,.12-2.38,5,5,0,0,0-2.14-.82,7.5,7.5,0,0,1-2.72-1,2,2,0,0,1-.89-1.71,2.22,2.22,0,0,1,1-1.84,4.24,4.24,0,0,1,2.62-.75,6.16,6.16,0,0,1,2.07.32,4.2,4.2,0,0,1,1.52.86Z"/><path class="cls-3" d="M348.28,128.59c-.07-.32-.13-.6-.16-.83a5.79,5.79,0,0,1,0-.72,4.36,4.36,0,0,1-1.52,1.24,4.59,4.59,0,0,1-2.14.5,3.44,3.44,0,0,1-2.33-.72,2.49,2.49,0,0,1-.83-2,2.37,2.37,0,0,1,1.23-2.09,6.2,6.2,0,0,1,3.32-.77h2.27V122a2,2,0,0,0-.71-1.6,3.07,3.07,0,0,0-2-.58,5.11,5.11,0,0,0-1.56.22,3.61,3.61,0,0,0-1.18.58l-.1,1.28h-.94v-1.83a6.12,6.12,0,0,1,1.7-.83,7,7,0,0,1,2.12-.31,4.3,4.3,0,0,1,2.73.8,2.71,2.71,0,0,1,1,2.29v4.68c0,.19,0,.38,0,.55a4.52,4.52,0,0,0,.06.53l1,.06v.77Zm-3.74-.75a4.39,4.39,0,0,0,2.18-.52,3.26,3.26,0,0,0,1.36-1.37v-1.9h-2.29a4.56,4.56,0,0,0-2.47.59,1.75,1.75,0,0,0-.93,1.5,1.51,1.51,0,0,0,.57,1.23A2.4,2.4,0,0,0,344.54,127.84Z"/><path class="cls-3" d="M359.37,122h-.93l-.13-1.35a3,3,0,0,0-1.08-.64,4.53,4.53,0,0,0-1.49-.23,3,3,0,0,0-1.87.5,1.47,1.47,0,0,0-.62,1.16,1.34,1.34,0,0,0,.53,1.09,5.53,5.53,0,0,0,2.14.76,7.39,7.39,0,0,1,2.75,1,2.08,2.08,0,0,1,.91,1.78,2.26,2.26,0,0,1-1,1.92,4.66,4.66,0,0,1-2.75.74,6.72,6.72,0,0,1-2.07-.3,4.87,4.87,0,0,1-1.62-.83v-1.92H353l.16,1.36a2.82,2.82,0,0,0,1.15.61,5.47,5.47,0,0,0,1.46.19,3.39,3.39,0,0,0,1.95-.5,1.42,1.42,0,0,0,.12-2.38,5,5,0,0,0-2.14-.82,7.5,7.5,0,0,1-2.72-1,2,2,0,0,1-.89-1.71,2.22,2.22,0,0,1,1-1.84,4.25,4.25,0,0,1,2.63-.75,6.14,6.14,0,0,1,2.06.32,4.2,4.2,0,0,1,1.52.86Z"/><path class="cls-3" d="M361.34,119.86v-.78h2.5l.14,1.48a3.56,3.56,0,0,1,1.34-1.22,4,4,0,0,1,1.9-.43,3.42,3.42,0,0,1,2.89,1.36,5.84,5.84,0,0,1,1.05,3.65v.18a5.2,5.2,0,0,1-1.05,3.41,3.52,3.52,0,0,1-2.87,1.27,4.39,4.39,0,0,1-1.9-.39,3.32,3.32,0,0,1-1.32-1.08v4l1.55.12v.78h-4.23v-.78l1.55-.12V120Zm8.68,4.06a5.15,5.15,0,0,0-.78-3,2.59,2.59,0,0,0-2.28-1.14,3.15,3.15,0,0,0-1.86.51,3.07,3.07,0,0,0-1.08,1.31v4.57a3,3,0,0,0,1.13,1.23,3.45,3.45,0,0,0,1.83.45,2.66,2.66,0,0,0,2.27-1,4.53,4.53,0,0,0,.77-2.75Z"/><path class="cls-3" d="M377.54,128.78a4.28,4.28,0,0,1-3.21-1.32,4.59,4.59,0,0,1-1.27-3.34v-.49a4.75,4.75,0,0,1,1.26-3.38,4.05,4.05,0,0,1,3.06-1.34,4,4,0,0,1,3,1.1,4.07,4.07,0,0,1,1.08,3v.89h-7.25v.26a4,4,0,0,0,.92,2.68,3,3,0,0,0,2.43,1.09,5.33,5.33,0,0,0,1.8-.27,3.69,3.69,0,0,0,1.28-.79l.49.72a4.15,4.15,0,0,1-1.47.9A6,6,0,0,1,377.54,128.78Zm-.16-9a2.85,2.85,0,0,0-2.11.89,3.74,3.74,0,0,0-1,2.24l0,0h6v-.26a2.88,2.88,0,0,0-.79-2.07A2.8,2.8,0,0,0,377.38,119.8Z"/><path class="cls-3" d="M387.85,127.89a3.42,3.42,0,0,0,2-.6,1.92,1.92,0,0,0,.86-1.66h1l0,.05a2.55,2.55,0,0,1-1.14,2.21,4.46,4.46,0,0,1-2.75.89,4,4,0,0,1-3.23-1.34,5,5,0,0,1-1.15-3.42v-.37a5,5,0,0,1,1.15-3.41,4,4,0,0,1,3.22-1.33,5.53,5.53,0,0,1,2.18.41,4.19,4.19,0,0,1,1.6,1.12l.05,2.08h-1l-.18-1.69a3.11,3.11,0,0,0-1.13-.75,4,4,0,0,0-1.55-.28,2.81,2.81,0,0,0-2.44,1.1,4.54,4.54,0,0,0-.79,2.75V124a4.6,4.6,0,0,0,.79,2.78A2.83,2.83,0,0,0,387.85,127.89Z"/><path class="cls-3" d="M396.46,116.65v2.43h2.26v.86h-2.26v6.2a1.88,1.88,0,0,0,.37,1.32,1.27,1.27,0,0,0,1,.39,4.87,4.87,0,0,0,.54,0l.6-.07.17.78a3.48,3.48,0,0,1-.69.17,4.54,4.54,0,0,1-.82.07,2.21,2.21,0,0,1-1.68-.64,2.78,2.78,0,0,1-.61-2v-6.2h-1.76v-.86h1.76v-2.43Z"/><path class="cls-3" d="M400.62,123.7a4.89,4.89,0,0,1,1.24-3.45,4.73,4.73,0,0,1,6.6,0,4.89,4.89,0,0,1,1.24,3.45V124a4.84,4.84,0,0,1-1.24,3.44,4.23,4.23,0,0,1-3.28,1.35,4.3,4.3,0,0,1-3.32-1.35,4.84,4.84,0,0,1-1.24-3.44Zm1.14.29a4.29,4.29,0,0,0,.9,2.77,3,3,0,0,0,2.52,1.13,3,3,0,0,0,2.48-1.13,4.29,4.29,0,0,0,.9-2.77v-.29a4.28,4.28,0,0,0-.9-2.76,3.31,3.31,0,0,0-5,0,4.28,4.28,0,0,0-.9,2.76Z"/><path class="cls-3" d="M419,122h-.93l-.13-1.35a2.87,2.87,0,0,0-1.08-.64,4.53,4.53,0,0,0-1.49-.23,3,3,0,0,0-1.87.5,1.47,1.47,0,0,0-.62,1.16,1.33,1.33,0,0,0,.54,1.09,5.47,5.47,0,0,0,2.14.76,7.4,7.4,0,0,1,2.74,1,2.08,2.08,0,0,1,.91,1.78,2.24,2.24,0,0,1-1,1.92,4.65,4.65,0,0,1-2.74.74,6.83,6.83,0,0,1-2.08-.3,5,5,0,0,1-1.62-.83v-1.92h.92l.17,1.36a2.7,2.7,0,0,0,1.15.61,5.36,5.36,0,0,0,1.46.19,3.34,3.34,0,0,0,1.94-.5,1.42,1.42,0,0,0,.12-2.38,5,5,0,0,0-2.14-.82,7.57,7.57,0,0,1-2.72-1,2,2,0,0,1-.89-1.71,2.22,2.22,0,0,1,1-1.84,4.25,4.25,0,0,1,2.63-.75,6.14,6.14,0,0,1,2.06.32,4.25,4.25,0,0,1,1.53.86Z"/><path class="cls-3" d="M433.15,127.22a3.56,3.56,0,0,1-1.32,1.15,4.19,4.19,0,0,1-1.9.41,3.51,3.51,0,0,1-2.88-1.28,5.17,5.17,0,0,1-1-3.4v-.18a5.84,5.84,0,0,1,1-3.65,3.43,3.43,0,0,1,2.9-1.36,4,4,0,0,1,1.86.41,3.72,3.72,0,0,1,1.31,1.19v-4.73l-1.55-.12v-.78h2.69V127.7l1.54.12v.77h-2.56Zm-6-3.12a4.59,4.59,0,0,0,.74,2.74,2.61,2.61,0,0,0,2.25,1,3.35,3.35,0,0,0,1.82-.46,3.09,3.09,0,0,0,1.15-1.25v-4.5a3.37,3.37,0,0,0-1.1-1.32,3.13,3.13,0,0,0-1.85-.51,2.53,2.53,0,0,0-2.26,1.14,5.28,5.28,0,0,0-.75,3Z"/><path class="cls-3" d="M442.08,128.78a4.28,4.28,0,0,1-3.21-1.32,4.59,4.59,0,0,1-1.27-3.34v-.49a4.75,4.75,0,0,1,1.26-3.38,4.05,4.05,0,0,1,3.06-1.34,4,4,0,0,1,3,1.1,4.07,4.07,0,0,1,1.08,3v.89h-7.25v.26a4,4,0,0,0,.92,2.68,3,3,0,0,0,2.43,1.09,5.33,5.33,0,0,0,1.8-.27,3.69,3.69,0,0,0,1.28-.79l.49.72a4.15,4.15,0,0,1-1.47.9A6,6,0,0,1,442.08,128.78Zm-.16-9a2.85,2.85,0,0,0-2.11.89,3.74,3.74,0,0,0-1,2.24l0,0h6v-.26a2.88,2.88,0,0,0-.79-2.07A2.8,2.8,0,0,0,441.92,119.8Z"/><path class="cls-3" d="M452.74,123.7a4.89,4.89,0,0,1,1.24-3.45,4.72,4.72,0,0,1,6.59,0,4.89,4.89,0,0,1,1.25,3.45V124a4.84,4.84,0,0,1-1.24,3.44,4.71,4.71,0,0,1-6.6,0,4.84,4.84,0,0,1-1.24-3.44Zm1.13.29a4.24,4.24,0,0,0,.91,2.77,3.33,3.33,0,0,0,5,0,4.29,4.29,0,0,0,.9-2.77v-.29a4.23,4.23,0,0,0-.91-2.76,3.3,3.3,0,0,0-5,0,4.23,4.23,0,0,0-.91,2.76Z"/><path class="cls-3" d="M472.49,124.1a5.2,5.2,0,0,1-1,3.41,3.53,3.53,0,0,1-2.88,1.27,4.18,4.18,0,0,1-1.94-.42,3.46,3.46,0,0,1-1.32-1.2l-.12,1.43h-1V115.78l-1.55-.12v-.78h2.68v5.7a3.53,3.53,0,0,1,1.31-1.24,3.89,3.89,0,0,1,1.9-.43,3.42,3.42,0,0,1,2.89,1.36,5.84,5.84,0,0,1,1,3.65Zm-1.14-.18a5.28,5.28,0,0,0-.76-3,2.53,2.53,0,0,0-2.24-1.14,3.12,3.12,0,0,0-1.92.54,3.24,3.24,0,0,0-1.08,1.4v4.3a3,3,0,0,0,1.13,1.31,3.38,3.38,0,0,0,1.89.49,2.6,2.6,0,0,0,2.23-1,4.52,4.52,0,0,0,.75-2.74Z"/><path class="cls-3" d="M477.32,129.37a3.19,3.19,0,0,1-.76,2.27,2.79,2.79,0,0,1-2.12.79,3,3,0,0,1-.54,0,3.59,3.59,0,0,1-.52-.13l.12-.88.41.09a4.3,4.3,0,0,0,.46,0,1.67,1.67,0,0,0,1.33-.54,2.34,2.34,0,0,0,.48-1.6V120l-1.55-.12v-.78h2.69Zm-.06-13.05h-1.14v-1.44h1.14Z"/><path class="cls-3" d="M484.28,128.78a4.24,4.24,0,0,1-3.2-1.32,4.59,4.59,0,0,1-1.28-3.34v-.49a4.76,4.76,0,0,1,1.27-3.38,4.05,4.05,0,0,1,3.06-1.34,4,4,0,0,1,3,1.1,4.07,4.07,0,0,1,1.08,3v.89h-7.25v.26a4,4,0,0,0,.93,2.68,3,3,0,0,0,2.42,1.09,5.35,5.35,0,0,0,1.81-.27,3.79,3.79,0,0,0,1.28-.79l.48.72a4,4,0,0,1-1.46.9A6,6,0,0,1,484.28,128.78Zm-.15-9a2.83,2.83,0,0,0-2.11.89,3.68,3.68,0,0,0-1,2.24l0,0h6v-.26a2.92,2.92,0,0,0-.79-2.07A2.8,2.8,0,0,0,484.13,119.8Z"/><path class="cls-3" d="M492.82,116.65v2.43h2.26v.86h-2.26v6.2a1.93,1.93,0,0,0,.37,1.32,1.27,1.27,0,0,0,1,.39,4.7,4.7,0,0,0,.54,0l.6-.07.17.78a3.48,3.48,0,0,1-.69.17,4.47,4.47,0,0,1-.82.07,2.21,2.21,0,0,1-1.68-.64,2.83,2.83,0,0,1-.6-2v-6.2h-1.77v-.86h1.77v-2.43Z"/><path class="cls-3" d="M497,123.7a4.89,4.89,0,0,1,1.25-3.45,4.72,4.72,0,0,1,6.59,0,4.89,4.89,0,0,1,1.25,3.45V124a4.89,4.89,0,0,1-1.24,3.44,4.71,4.71,0,0,1-6.6,0A4.85,4.85,0,0,1,497,124Zm1.14.29a4.29,4.29,0,0,0,.9,2.77,3,3,0,0,0,2.52,1.13,3,3,0,0,0,2.48-1.13,4.24,4.24,0,0,0,.91-2.77v-.29a4.28,4.28,0,0,0-.91-2.76,3.31,3.31,0,0,0-5,0,4.28,4.28,0,0,0-.9,2.76Z"/><path class="cls-3" d="M515.37,122h-.93l-.14-1.35a2.91,2.91,0,0,0-1.07-.64,4.63,4.63,0,0,0-1.5-.23,2.93,2.93,0,0,0-1.86.5,1.45,1.45,0,0,0-.63,1.16,1.33,1.33,0,0,0,.54,1.09,5.47,5.47,0,0,0,2.14.76,7.33,7.33,0,0,1,2.74,1,2.08,2.08,0,0,1,.91,1.78,2.25,2.25,0,0,1-1,1.92,4.68,4.68,0,0,1-2.75.74,6.83,6.83,0,0,1-2.08-.3,4.81,4.81,0,0,1-1.61-.83v-1.92H509l.16,1.36a2.76,2.76,0,0,0,1.15.61,5.41,5.41,0,0,0,1.46.19,3.34,3.34,0,0,0,1.94-.5,1.41,1.41,0,0,0,.12-2.38,4.9,4.9,0,0,0-2.14-.82,7.57,7.57,0,0,1-2.72-1,2,2,0,0,1-.88-1.71,2.23,2.23,0,0,1,1-1.84,4.27,4.27,0,0,1,2.63-.75,6.24,6.24,0,0,1,2.07.32,4.2,4.2,0,0,1,1.52.86Z"/><path class="cls-3" d="M522.37,123.7a4.89,4.89,0,0,1,1.24-3.45,4.73,4.73,0,0,1,6.6,0,4.89,4.89,0,0,1,1.24,3.45V124a4.88,4.88,0,0,1-1.23,3.44,4.72,4.72,0,0,1-6.61,0,4.84,4.84,0,0,1-1.24-3.44Zm1.14.29a4.29,4.29,0,0,0,.9,2.77,3,3,0,0,0,2.52,1.13,3,3,0,0,0,2.48-1.13,4.29,4.29,0,0,0,.91-2.77v-.29a4.28,4.28,0,0,0-.91-2.76,3.31,3.31,0,0,0-5,0,4.28,4.28,0,0,0-.9,2.76Z"/><path class="cls-3" d="M540.85,127a3.41,3.41,0,0,1-1.32,1.29,4.14,4.14,0,0,1-2,.46,3.23,3.23,0,0,1-2.54-1,4.65,4.65,0,0,1-.92-3.17V120l-1.27-.12v-.78h2.4v5.53a3.93,3.93,0,0,0,.64,2.5,2.28,2.28,0,0,0,1.82.75,3.46,3.46,0,0,0,2.05-.53,2.79,2.79,0,0,0,1.08-1.45V120l-1.46-.12v-.78H542v8.62l1.38.12v.77H541Z"/><path class="cls-3" d="M556.86,127.22a3.41,3.41,0,0,1-1.32,1.15,4.19,4.19,0,0,1-1.9.41,3.53,3.53,0,0,1-2.88-1.28,5.23,5.23,0,0,1-1-3.4v-.18a5.9,5.9,0,0,1,1-3.65,3.44,3.44,0,0,1,2.9-1.36,4,4,0,0,1,1.86.41,3.56,3.56,0,0,1,1.31,1.19v-4.73l-1.54-.12v-.78H558V127.7l1.55.12v.77H557Zm-6-3.12a4.52,4.52,0,0,0,.75,2.74,2.58,2.58,0,0,0,2.24,1,3.36,3.36,0,0,0,1.83-.46,3.06,3.06,0,0,0,1.14-1.25v-4.5a3.34,3.34,0,0,0-1.09-1.32,3.15,3.15,0,0,0-1.86-.51,2.51,2.51,0,0,0-2.25,1.14,5.2,5.2,0,0,0-.76,3Z"/><path class="cls-3" d="M565.79,128.78a4.28,4.28,0,0,1-3.21-1.32,4.63,4.63,0,0,1-1.27-3.34v-.49a4.76,4.76,0,0,1,1.27-3.38,4,4,0,0,1,3.06-1.34,4,4,0,0,1,3,1.1,4.07,4.07,0,0,1,1.08,3v.89h-7.25v.26a4,4,0,0,0,.93,2.68,3,3,0,0,0,2.42,1.09,5.39,5.39,0,0,0,1.81-.27,3.79,3.79,0,0,0,1.28-.79l.48.72a4,4,0,0,1-1.46.9A6,6,0,0,1,565.79,128.78Zm-.15-9a2.83,2.83,0,0,0-2.11.89,3.68,3.68,0,0,0-1,2.24l0,0h6v-.26a2.91,2.91,0,0,0-.78-2.07A2.8,2.8,0,0,0,565.64,119.8Z"/><path class="cls-3" d="M215.91,141.46v-.78h2.5l.14,1.48a3.53,3.53,0,0,1,1.33-1.22,4,4,0,0,1,1.91-.43,3.44,3.44,0,0,1,2.89,1.36,5.84,5.84,0,0,1,1,3.65v.18a5.2,5.2,0,0,1-1,3.41,3.54,3.54,0,0,1-2.88,1.27,4.31,4.31,0,0,1-1.89-.39,3.32,3.32,0,0,1-1.32-1.08v4l1.54.12v.78h-4.22v-.78l1.55-.12V141.58Zm8.68,4.06a5.15,5.15,0,0,0-.78-3,2.59,2.59,0,0,0-2.28-1.14,3.16,3.16,0,0,0-1.87.51,3.12,3.12,0,0,0-1.07,1.31v4.57a3,3,0,0,0,1.12,1.23,3.46,3.46,0,0,0,1.84.45,2.64,2.64,0,0,0,2.26-1,4.46,4.46,0,0,0,.78-2.75Z"/><path class="cls-3" d="M230,140.68l.15,1.58v.12a3.35,3.35,0,0,1,1.19-1.38,3.18,3.18,0,0,1,1.79-.49l.42,0,.33.06-.15,1-.84-.06a2.71,2.71,0,0,0-1.76.56,3,3,0,0,0-1,1.54v5.67l1.54.12v.77H227.5v-.77l1.55-.12v-7.72l-1.55-.12v-.78H230Z"/><path class="cls-3" d="M235.2,145.3a4.89,4.89,0,0,1,1.24-3.45,4.73,4.73,0,0,1,6.6,0,4.93,4.93,0,0,1,1.24,3.45v.29A4.89,4.89,0,0,1,243,149a4.73,4.73,0,0,1-6.6,0,4.89,4.89,0,0,1-1.24-3.45Zm1.13.29a4.29,4.29,0,0,0,.91,2.77,3.33,3.33,0,0,0,5,0,4.29,4.29,0,0,0,.9-2.77v-.29a4.23,4.23,0,0,0-.91-2.76,3.3,3.3,0,0,0-5,0,4.28,4.28,0,0,0-.91,2.76Z"/><path class="cls-3" d="M250.51,149.49a3.42,3.42,0,0,0,2-.6,1.92,1.92,0,0,0,.86-1.66h1l0,.05a2.55,2.55,0,0,1-1.14,2.21,4.46,4.46,0,0,1-2.75.89,4,4,0,0,1-3.23-1.33,5,5,0,0,1-1.15-3.43v-.37a5,5,0,0,1,1.15-3.41,4,4,0,0,1,3.23-1.33,5.48,5.48,0,0,1,2.17.41,4.19,4.19,0,0,1,1.6,1.12l.05,2.08h-1l-.18-1.69a3.11,3.11,0,0,0-1.13-.75,4,4,0,0,0-1.54-.28,2.82,2.82,0,0,0-2.45,1.1,4.54,4.54,0,0,0-.79,2.75v.37a4.6,4.6,0,0,0,.79,2.78A2.8,2.8,0,0,0,250.51,149.49Z"/><path class="cls-3" d="M261,150.38a4.28,4.28,0,0,1-3.21-1.32,4.59,4.59,0,0,1-1.27-3.34v-.49a4.73,4.73,0,0,1,1.27-3.38,4.35,4.35,0,0,1,6-.24,4.07,4.07,0,0,1,1.08,3v.89h-7.25v.26a4,4,0,0,0,.93,2.68,3,3,0,0,0,2.42,1.09,5.33,5.33,0,0,0,1.8-.27,3.83,3.83,0,0,0,1.29-.79l.48.72a4.11,4.11,0,0,1-1.46.9A6,6,0,0,1,261,150.38Zm-.15-9a2.79,2.79,0,0,0-2.11.9,3.6,3.6,0,0,0-1,2.23v.05h6v-.27a2.88,2.88,0,0,0-.79-2.07A2.76,2.76,0,0,0,260.89,141.4Z"/><path class="cls-3" d="M274.42,143.62h-.93l-.13-1.35a2.87,2.87,0,0,0-1.08-.64,4.53,4.53,0,0,0-1.49-.23,3,3,0,0,0-1.87.5,1.47,1.47,0,0,0-.62,1.16,1.33,1.33,0,0,0,.54,1.09,5.47,5.47,0,0,0,2.14.76,7.4,7.4,0,0,1,2.74,1,2.08,2.08,0,0,1,.91,1.78,2.24,2.24,0,0,1-1,1.92,4.66,4.66,0,0,1-2.75.74,6.77,6.77,0,0,1-2.07-.3,5,5,0,0,1-1.62-.83v-1.91h.92l.17,1.35a2.7,2.7,0,0,0,1.15.61,5.34,5.34,0,0,0,1.45.19,3.35,3.35,0,0,0,2-.5,1.45,1.45,0,0,0,.71-1.22,1.49,1.49,0,0,0-.59-1.16,5,5,0,0,0-2.14-.82,7.57,7.57,0,0,1-2.72-1,2,2,0,0,1-.89-1.71,2.22,2.22,0,0,1,1-1.84,4.25,4.25,0,0,1,2.63-.75,6.14,6.14,0,0,1,2.06.32,4.25,4.25,0,0,1,1.53.86Z"/><path class="cls-3" d="M284.15,143.62h-.93l-.13-1.35a3,3,0,0,0-1.08-.64,4.53,4.53,0,0,0-1.49-.23,3,3,0,0,0-1.87.5,1.47,1.47,0,0,0-.62,1.16,1.33,1.33,0,0,0,.54,1.09,5.4,5.4,0,0,0,2.14.76,7.4,7.4,0,0,1,2.74,1,2.08,2.08,0,0,1,.91,1.78,2.26,2.26,0,0,1-1,1.92,4.66,4.66,0,0,1-2.75.74,6.72,6.72,0,0,1-2.07-.3,5,5,0,0,1-1.62-.83v-1.91h.92l.16,1.35a2.8,2.8,0,0,0,1.16.61,5.34,5.34,0,0,0,1.45.19,3.37,3.37,0,0,0,1.95-.5,1.42,1.42,0,0,0,.12-2.38,5,5,0,0,0-2.14-.82,7.57,7.57,0,0,1-2.72-1,2,2,0,0,1-.89-1.71,2.22,2.22,0,0,1,1-1.84,4.25,4.25,0,0,1,2.63-.75,6.14,6.14,0,0,1,2.06.32,4.2,4.2,0,0,1,1.52.86Z"/><path class="cls-3" d="M286.43,145.3a4.89,4.89,0,0,1,1.24-3.45,4.73,4.73,0,0,1,6.6,0,4.89,4.89,0,0,1,1.24,3.45v.29a4.89,4.89,0,0,1-1.24,3.45,4.26,4.26,0,0,1-3.28,1.34,4.33,4.33,0,0,1-3.32-1.34,4.89,4.89,0,0,1-1.24-3.45Zm1.14.29a4.29,4.29,0,0,0,.9,2.77,3,3,0,0,0,2.52,1.13,3,3,0,0,0,2.48-1.13,4.29,4.29,0,0,0,.9-2.77v-.29a4.28,4.28,0,0,0-.9-2.76,3.31,3.31,0,0,0-5,0,4.28,4.28,0,0,0-.9,2.76Z"/><path class="cls-3" d="M304.81,143.62h-.93l-.13-1.35a2.87,2.87,0,0,0-1.08-.64,4.53,4.53,0,0,0-1.49-.23,3,3,0,0,0-1.87.5,1.47,1.47,0,0,0-.62,1.16,1.33,1.33,0,0,0,.54,1.09,5.47,5.47,0,0,0,2.14.76,7.4,7.4,0,0,1,2.74,1,2.08,2.08,0,0,1,.91,1.78,2.24,2.24,0,0,1-1,1.92,4.63,4.63,0,0,1-2.74.74,6.83,6.83,0,0,1-2.08-.3,5,5,0,0,1-1.62-.83v-1.91h.92l.17,1.35a2.7,2.7,0,0,0,1.15.61,5.36,5.36,0,0,0,1.46.19,3.34,3.34,0,0,0,1.94-.5,1.42,1.42,0,0,0,.12-2.38,4.9,4.9,0,0,0-2.14-.82,7.57,7.57,0,0,1-2.72-1,2,2,0,0,1-.89-1.71,2.25,2.25,0,0,1,1-1.84,4.25,4.25,0,0,1,2.63-.75,6.14,6.14,0,0,1,2.06.32,4.25,4.25,0,0,1,1.53.86Z"/><path class="cls-3" d="M311.82,145.52a5.9,5.9,0,0,1,1-3.65,3.43,3.43,0,0,1,2.9-1.36,3.93,3.93,0,0,1,1.84.4,3.61,3.61,0,0,1,1.31,1.18l.11-1.41h1V153l1.55.12v.78h-4.24v-.78l1.55-.12v-4a3.41,3.41,0,0,1-1.31,1.07,4.36,4.36,0,0,1-1.83.37,3.51,3.51,0,0,1-2.88-1.28,5.23,5.23,0,0,1-1-3.4Zm1.15.18a4.68,4.68,0,0,0,.74,2.76,2.62,2.62,0,0,0,2.25,1,3.44,3.44,0,0,0,1.79-.44,3.16,3.16,0,0,0,1.13-1.22v-4.64a3.54,3.54,0,0,0-1.11-1.29,3.05,3.05,0,0,0-1.79-.5,2.54,2.54,0,0,0-2.26,1.15,5.32,5.32,0,0,0-.75,3Z"/><path class="cls-3" d="M330.22,148.63a3.41,3.41,0,0,1-1.32,1.29,4.14,4.14,0,0,1-2,.46,3.24,3.24,0,0,1-2.54-1,4.65,4.65,0,0,1-.92-3.17v-4.61l-1.27-.12v-.78h2.4v5.53a3.93,3.93,0,0,0,.64,2.5,2.28,2.28,0,0,0,1.82.75,3.52,3.52,0,0,0,2.06-.53,2.72,2.72,0,0,0,1.07-1.45v-5.9l-1.46-.12v-.78h2.6v8.62l1.38.12v.77h-2.37Z"/><path class="cls-3" d="M338.9,150.38a4.28,4.28,0,0,1-3.21-1.32,4.59,4.59,0,0,1-1.27-3.34v-.49a4.77,4.77,0,0,1,1.26-3.38,4.06,4.06,0,0,1,3.07-1.34,4,4,0,0,1,3,1.1,4.07,4.07,0,0,1,1.08,3v.89h-7.25v.26a4,4,0,0,0,.92,2.68,3,3,0,0,0,2.43,1.09,5.33,5.33,0,0,0,1.8-.27,3.69,3.69,0,0,0,1.28-.79l.49.72a4.15,4.15,0,0,1-1.47.9A6,6,0,0,1,338.9,150.38Zm-.15-9a2.83,2.83,0,0,0-2.12.9,3.71,3.71,0,0,0-1,2.23l0,.05h6v-.27a2.88,2.88,0,0,0-.79-2.07A2.78,2.78,0,0,0,338.75,141.4Z"/><path class="cls-3" d="M356.69,148.82a3.41,3.41,0,0,1-1.32,1.15,4.15,4.15,0,0,1-1.89.41,3.51,3.51,0,0,1-2.88-1.28,5.17,5.17,0,0,1-1-3.4v-.18a5.84,5.84,0,0,1,1-3.65,3.41,3.41,0,0,1,2.89-1.36,4.06,4.06,0,0,1,1.87.41,3.61,3.61,0,0,1,1.3,1.19v-4.73l-1.54-.12v-.78h2.68V149.3l1.55.12v.77h-2.56Zm-6-3.12a4.52,4.52,0,0,0,.75,2.74,2.59,2.59,0,0,0,2.24,1,3.45,3.45,0,0,0,1.83-.45,3.16,3.16,0,0,0,1.14-1.26v-4.5a3.26,3.26,0,0,0-1.09-1.32,3.15,3.15,0,0,0-1.86-.51,2.51,2.51,0,0,0-2.25,1.14,5.28,5.28,0,0,0-.76,3Z"/><path class="cls-3" d="M365.63,150.38a4.26,4.26,0,0,1-3.21-1.32,4.59,4.59,0,0,1-1.27-3.34v-.49a4.77,4.77,0,0,1,1.26-3.38,4.05,4.05,0,0,1,3.06-1.34,4,4,0,0,1,3,1.1,4,4,0,0,1,1.09,3v.89h-7.25v.26a4,4,0,0,0,.92,2.68,3,3,0,0,0,2.43,1.09,5.33,5.33,0,0,0,1.8-.27,3.69,3.69,0,0,0,1.28-.79l.48.72a4,4,0,0,1-1.46.9A6,6,0,0,1,365.63,150.38Zm-.16-9a2.81,2.81,0,0,0-2.11.9,3.71,3.71,0,0,0-1,2.23l0,.05h6v-.27a2.92,2.92,0,0,0-.79-2.07A2.8,2.8,0,0,0,365.47,141.4Z"/><path class="cls-3" d="M374.41,141.46l-1.28.09,2.57,6.26.33,1.12h.05l.36-1.12,2.53-6.26-1.28-.09v-.78h3.45v.78l-1,.08-3.63,8.65h-.91L372,141.54l-1-.08v-.78h3.45Z"/><path class="cls-3" d="M386.8,150.38a4.28,4.28,0,0,1-3.21-1.32,4.59,4.59,0,0,1-1.27-3.34v-.49a4.73,4.73,0,0,1,1.27-3.38,4.35,4.35,0,0,1,6-.24,4.07,4.07,0,0,1,1.08,3v.89h-7.25v.26a4,4,0,0,0,.92,2.68,3,3,0,0,0,2.43,1.09,5.33,5.33,0,0,0,1.8-.27,3.69,3.69,0,0,0,1.28-.79l.49.72a4.2,4.2,0,0,1-1.46.9A6,6,0,0,1,386.8,150.38Zm-.15-9a2.79,2.79,0,0,0-2.11.9,3.66,3.66,0,0,0-1,2.23l0,.05h6v-.27a2.88,2.88,0,0,0-.79-2.07A2.76,2.76,0,0,0,386.65,141.4Z"/><path class="cls-3" d="M392.48,141.46v-.78H395l.1,1.58a3.5,3.5,0,0,1,1.32-1.3,4.07,4.07,0,0,1,2-.45,3.38,3.38,0,0,1,2,.53,2.89,2.89,0,0,1,1.13,1.62,3.8,3.8,0,0,1,1.32-1.58,3.72,3.72,0,0,1,2.1-.57,3.21,3.21,0,0,1,2.54,1,4.64,4.64,0,0,1,.89,3.13v4.65l1.55.12v.77h-4.24v-.77l1.54-.12v-4.67a3.66,3.66,0,0,0-.67-2.49,2.4,2.4,0,0,0-1.86-.72,2.65,2.65,0,0,0-2.05.78,3.64,3.64,0,0,0-.88,2v.13a.71.71,0,0,1,0,.16v4.81l1.54.12v.77h-4.23v-.77l1.55-.12v-4.67a3.65,3.65,0,0,0-.68-2.47,2.42,2.42,0,0,0-1.87-.74,2.76,2.76,0,0,0-2.91,2.09v5.79l1.55.12v.77h-4.24v-.77l1.55-.12v-7.72Z"/><path class="cls-3" d="M423.5,143.62h-.93l-.13-1.35a3,3,0,0,0-1.08-.64,4.53,4.53,0,0,0-1.49-.23,3,3,0,0,0-1.87.5,1.47,1.47,0,0,0-.62,1.16,1.33,1.33,0,0,0,.54,1.09,5.4,5.4,0,0,0,2.14.76,7.4,7.4,0,0,1,2.74,1,2.08,2.08,0,0,1,.91,1.78,2.26,2.26,0,0,1-1,1.92,4.66,4.66,0,0,1-2.75.74,6.72,6.72,0,0,1-2.07-.3,5,5,0,0,1-1.62-.83v-1.91h.92l.16,1.35a2.8,2.8,0,0,0,1.16.61,5.34,5.34,0,0,0,1.45.19,3.35,3.35,0,0,0,1.95-.5,1.42,1.42,0,0,0,.12-2.38,5,5,0,0,0-2.14-.82,7.57,7.57,0,0,1-2.72-1,2,2,0,0,1-.89-1.71,2.22,2.22,0,0,1,1-1.84,4.25,4.25,0,0,1,2.63-.75,6.14,6.14,0,0,1,2.06.32,4.2,4.2,0,0,1,1.52.86Z"/><path class="cls-3" d="M430.31,150.38a4.28,4.28,0,0,1-3.21-1.32,4.59,4.59,0,0,1-1.27-3.34v-.49a4.77,4.77,0,0,1,1.26-3.38,4.06,4.06,0,0,1,3.07-1.34,4,4,0,0,1,3,1.1,4.07,4.07,0,0,1,1.08,3v.89H427v.26a4,4,0,0,0,.92,2.68,3,3,0,0,0,2.43,1.09,5.33,5.33,0,0,0,1.8-.27,3.69,3.69,0,0,0,1.28-.79l.49.72a4.15,4.15,0,0,1-1.47.9A6,6,0,0,1,430.31,150.38Zm-.15-9a2.83,2.83,0,0,0-2.12.9,3.71,3.71,0,0,0-1,2.23l0,.05h6v-.27a2.88,2.88,0,0,0-.79-2.07A2.78,2.78,0,0,0,430.16,141.4Z"/><path class="cls-3" d="M438.7,140.68l.14,1.58v.12A3.43,3.43,0,0,1,440,141a3.18,3.18,0,0,1,1.79-.49,2.86,2.86,0,0,1,.42,0l.34.06-.15,1-.85-.06a2.73,2.73,0,0,0-1.76.56,3.11,3.11,0,0,0-1,1.54v5.67l1.55.12v.77h-4.23v-.77l1.55-.12v-7.72l-1.55-.12v-.78h2.54Z"/><path class="cls-3" d="M453.16,149.49a3.44,3.44,0,0,0,2-.6,1.92,1.92,0,0,0,.86-1.66h1v.05a2.54,2.54,0,0,1-1.13,2.21,4.46,4.46,0,0,1-2.75.89,4,4,0,0,1-3.23-1.33,5,5,0,0,1-1.15-3.43v-.37a5,5,0,0,1,1.15-3.41,4,4,0,0,1,3.22-1.33,5.53,5.53,0,0,1,2.18.41,4.27,4.27,0,0,1,1.6,1.12l.05,2.08h-1l-.18-1.69a3.11,3.11,0,0,0-1.13-.75,4,4,0,0,0-1.55-.28,2.81,2.81,0,0,0-2.44,1.1,4.54,4.54,0,0,0-.79,2.75v.37a4.66,4.66,0,0,0,.78,2.78A2.83,2.83,0,0,0,453.16,149.49Z"/><path class="cls-3" d="M459.16,145.3a4.89,4.89,0,0,1,1.24-3.45,4.73,4.73,0,0,1,6.6,0,4.89,4.89,0,0,1,1.24,3.45v.29A4.92,4.92,0,0,1,467,149a4.75,4.75,0,0,1-6.61,0,4.89,4.89,0,0,1-1.24-3.45Zm1.14.29a4.29,4.29,0,0,0,.9,2.77,3,3,0,0,0,2.52,1.13,3,3,0,0,0,2.48-1.13,4.29,4.29,0,0,0,.91-2.77v-.29a4.28,4.28,0,0,0-.91-2.76,3.31,3.31,0,0,0-5,0,4.28,4.28,0,0,0-.9,2.76Z"/><path class="cls-3" d="M469.89,149.42l1.54-.12v-7.72l-1.54-.12v-.78h2.55l.1,1.66a3.64,3.64,0,0,1,1.34-1.36,4,4,0,0,1,2-.47,3.28,3.28,0,0,1,2.54.94,4.24,4.24,0,0,1,.87,3v4.9l1.55.12v.77H476.6v-.77l1.54-.12v-4.89a3.25,3.25,0,0,0-.66-2.31,2.49,2.49,0,0,0-1.87-.68,3.14,3.14,0,0,0-1.95.58,3.26,3.26,0,0,0-1.09,1.56v5.74l1.55.12v.77h-4.23Z"/><path class="cls-3" d="M490.06,143.62h-.93l-.13-1.35a2.87,2.87,0,0,0-1.08-.64,4.53,4.53,0,0,0-1.49-.23,3,3,0,0,0-1.87.5,1.47,1.47,0,0,0-.62,1.16,1.33,1.33,0,0,0,.54,1.09,5.47,5.47,0,0,0,2.14.76,7.4,7.4,0,0,1,2.74,1,2.08,2.08,0,0,1,.91,1.78,2.24,2.24,0,0,1-1,1.92,4.65,4.65,0,0,1-2.74.74,6.79,6.79,0,0,1-2.08-.3,5,5,0,0,1-1.62-.83v-1.91h.92l.16,1.35a2.8,2.8,0,0,0,1.16.61,5.36,5.36,0,0,0,1.46.19,3.34,3.34,0,0,0,1.94-.5,1.42,1.42,0,0,0,.12-2.38,5,5,0,0,0-2.14-.82,7.57,7.57,0,0,1-2.72-1,2,2,0,0,1-.89-1.71,2.22,2.22,0,0,1,1-1.84,4.25,4.25,0,0,1,2.63-.75,6.14,6.14,0,0,1,2.06.32,4.25,4.25,0,0,1,1.53.86Z"/><path class="cls-3" d="M492.27,149.42l1.54-.12v-7.72l-1.54-.12v-.78h2.67v8.62l1.55.12v.77h-4.22ZM494.94,138h-1.13v-1.48h1.13Z"/><path class="cls-3" d="M505.53,148.82a3.41,3.41,0,0,1-1.32,1.15,4.15,4.15,0,0,1-1.89.41,3.51,3.51,0,0,1-2.88-1.28,5.17,5.17,0,0,1-1-3.4v-.18a5.84,5.84,0,0,1,1-3.65,3.43,3.43,0,0,1,2.9-1.36,4,4,0,0,1,1.86.41,3.72,3.72,0,0,1,1.31,1.19v-4.73l-1.55-.12v-.78h2.69V149.3l1.54.12v.77h-2.56Zm-6-3.12a4.52,4.52,0,0,0,.74,2.74,2.59,2.59,0,0,0,2.24,1,3.45,3.45,0,0,0,1.83-.45,3.25,3.25,0,0,0,1.15-1.26v-4.5a3.37,3.37,0,0,0-1.1-1.32,3.15,3.15,0,0,0-1.86-.51,2.51,2.51,0,0,0-2.25,1.14,5.28,5.28,0,0,0-.75,3Z"/><path class="cls-3" d="M514.47,150.38a4.26,4.26,0,0,1-3.21-1.32,4.59,4.59,0,0,1-1.27-3.34v-.49a4.77,4.77,0,0,1,1.26-3.38,4.05,4.05,0,0,1,3.06-1.34,4,4,0,0,1,3,1.1,4,4,0,0,1,1.09,3v.89h-7.25v.26a4,4,0,0,0,.92,2.68,3,3,0,0,0,2.43,1.09,5.33,5.33,0,0,0,1.8-.27,3.69,3.69,0,0,0,1.28-.79l.48.72a4,4,0,0,1-1.46.9A6,6,0,0,1,514.47,150.38Zm-.16-9a2.81,2.81,0,0,0-2.11.9,3.71,3.71,0,0,0-1,2.23l0,.05h6v-.27a2.92,2.92,0,0,0-.79-2.07A2.8,2.8,0,0,0,514.31,141.4Z"/><path class="cls-3" d="M522.86,140.68l.14,1.58v.12a3.43,3.43,0,0,1,1.19-1.38,3.18,3.18,0,0,1,1.79-.49l.42,0,.34.06-.15,1-.85-.06a2.73,2.73,0,0,0-1.76.56,3,3,0,0,0-1,1.54v5.67l1.54.12v.77h-4.22v-.77l1.55-.12v-7.72l-1.55-.12v-.78h2.54Z"/><path class="cls-3" d="M535.3,150.19a7.38,7.38,0,0,1-.16-.83,5.68,5.68,0,0,1,0-.72,4.36,4.36,0,0,1-1.52,1.24,4.52,4.52,0,0,1-2.13.5,3.45,3.45,0,0,1-2.34-.72,2.47,2.47,0,0,1-.82-2,2.37,2.37,0,0,1,1.22-2.09,6.23,6.23,0,0,1,3.32-.77h2.27v-1.26a2,2,0,0,0-.71-1.6,3.07,3.07,0,0,0-2-.58,5.11,5.11,0,0,0-1.56.22,3.72,3.72,0,0,0-1.18.58l-.09,1.28h-.94v-1.83a6,6,0,0,1,1.7-.83,6.9,6.9,0,0,1,2.11-.31,4.3,4.3,0,0,1,2.73.8,2.71,2.71,0,0,1,1,2.29v4.68c0,.19,0,.38,0,.55a4.52,4.52,0,0,0,.06.53l1,.06v.77Zm-3.74-.75a4.36,4.36,0,0,0,2.17-.52,3.24,3.24,0,0,0,1.36-1.36v-1.91H532.8a4.58,4.58,0,0,0-2.47.59,1.75,1.75,0,0,0-.93,1.5A1.52,1.52,0,0,0,530,149,2.38,2.38,0,0,0,531.56,149.44Z"/><path class="cls-3" d="M546.07,148.82a3.41,3.41,0,0,1-1.32,1.15,4.19,4.19,0,0,1-1.9.41A3.52,3.52,0,0,1,540,149.1a5.23,5.23,0,0,1-1-3.4v-.18a5.9,5.9,0,0,1,1-3.65,3.43,3.43,0,0,1,2.9-1.36,4,4,0,0,1,1.86.41,3.64,3.64,0,0,1,1.31,1.19v-4.73l-1.55-.12v-.78h2.69V149.3l1.55.12v.77h-2.56Zm-6-3.12a4.52,4.52,0,0,0,.75,2.74,2.58,2.58,0,0,0,2.24,1,3.45,3.45,0,0,0,1.83-.45,3.16,3.16,0,0,0,1.14-1.26v-4.5a3.34,3.34,0,0,0-1.09-1.32,3.15,3.15,0,0,0-1.86-.51,2.51,2.51,0,0,0-2.25,1.14,5.2,5.2,0,0,0-.76,3Z"/><path class="cls-3" d="M550.47,145.3a4.89,4.89,0,0,1,1.25-3.45,4.72,4.72,0,0,1,6.59,0,4.89,4.89,0,0,1,1.25,3.45v.29a4.93,4.93,0,0,1-1.24,3.45,4.73,4.73,0,0,1-6.6,0,4.89,4.89,0,0,1-1.25-3.45Zm1.14.29a4.29,4.29,0,0,0,.9,2.77,3.06,3.06,0,0,0,2.52,1.13,3,3,0,0,0,2.49-1.13,4.29,4.29,0,0,0,.9-2.77v-.29a4.23,4.23,0,0,0-.91-2.76,3.31,3.31,0,0,0-5,0,4.28,4.28,0,0,0-.9,2.76Z"/><path class="cls-3" d="M568.86,143.62h-.93l-.13-1.35a3,3,0,0,0-1.08-.64,4.59,4.59,0,0,0-1.5-.23,2.93,2.93,0,0,0-1.86.5,1.44,1.44,0,0,0-.62,1.16,1.32,1.32,0,0,0,.53,1.09,5.47,5.47,0,0,0,2.14.76,7.46,7.46,0,0,1,2.75,1,2.1,2.1,0,0,1,.91,1.78,2.26,2.26,0,0,1-1,1.92,4.68,4.68,0,0,1-2.75.74,6.72,6.72,0,0,1-2.07-.3,4.77,4.77,0,0,1-1.62-.83v-1.91h.92l.16,1.35a2.76,2.76,0,0,0,1.15.61,5.41,5.41,0,0,0,1.46.19,3.39,3.39,0,0,0,2-.5,1.41,1.41,0,0,0,.11-2.38,4.85,4.85,0,0,0-2.14-.82,7.51,7.51,0,0,1-2.71-1,2,2,0,0,1-.89-1.71,2.23,2.23,0,0,1,1-1.84,4.27,4.27,0,0,1,2.63-.75,6.2,6.2,0,0,1,2.07.32,4.2,4.2,0,0,1,1.52.86Z"/><path class="cls-3" d="M575.56,141.46v-.78h2.5l.14,1.48a3.53,3.53,0,0,1,1.33-1.22,4,4,0,0,1,1.9-.43,3.44,3.44,0,0,1,2.9,1.36,5.84,5.84,0,0,1,1,3.65v.18a5.2,5.2,0,0,1-1,3.41,3.56,3.56,0,0,1-2.88,1.27,4.31,4.31,0,0,1-1.89-.39,3.32,3.32,0,0,1-1.32-1.08v4l1.54.12v.78h-4.22v-.78l1.55-.12V141.58Zm8.67,4.06a5.22,5.22,0,0,0-.77-3,2.59,2.59,0,0,0-2.28-1.14,3.16,3.16,0,0,0-1.87.51,3.05,3.05,0,0,0-1.07,1.31v4.57a2.89,2.89,0,0,0,1.12,1.23,3.46,3.46,0,0,0,1.84.45,2.64,2.64,0,0,0,2.26-1,4.46,4.46,0,0,0,.77-2.75Z"/><path class="cls-3" d="M594.31,150.19c-.07-.32-.13-.6-.16-.83a5.69,5.69,0,0,1,0-.72,4.36,4.36,0,0,1-1.52,1.24,4.59,4.59,0,0,1-2.14.5,3.44,3.44,0,0,1-2.33-.72,2.48,2.48,0,0,1-.83-2,2.38,2.38,0,0,1,1.23-2.09,6.2,6.2,0,0,1,3.32-.77h2.27v-1.26a2,2,0,0,0-.71-1.6,3.07,3.07,0,0,0-2-.58,5.11,5.11,0,0,0-1.56.22,3.61,3.61,0,0,0-1.18.58l-.1,1.28h-.94v-1.83a6,6,0,0,1,1.71-.83,6.9,6.9,0,0,1,2.11-.31,4.3,4.3,0,0,1,2.73.8,2.71,2.71,0,0,1,1,2.29v4.68c0,.19,0,.38,0,.55a4.52,4.52,0,0,0,.06.53l1,.06v.77Zm-3.74-.75a4.39,4.39,0,0,0,2.18-.52,3.3,3.3,0,0,0,1.36-1.36v-1.91h-2.29a4.56,4.56,0,0,0-2.47.59,1.75,1.75,0,0,0-.93,1.5A1.51,1.51,0,0,0,589,149,2.4,2.4,0,0,0,590.57,149.44Z"/><path class="cls-3" d="M600.41,140.68l.14,1.58v.12a3.43,3.43,0,0,1,1.19-1.38,3.18,3.18,0,0,1,1.79-.49,2.86,2.86,0,0,1,.42,0l.34.06-.15,1-.85-.06a2.73,2.73,0,0,0-1.76.56,3.11,3.11,0,0,0-1,1.54v5.67l1.55.12v.77h-4.23v-.77l1.55-.12v-7.72l-1.55-.12v-.78h2.54Z"/><path class="cls-3" d="M612.85,150.19a7.38,7.38,0,0,1-.16-.83,5.68,5.68,0,0,1-.05-.72,4.27,4.27,0,0,1-1.52,1.24,4.52,4.52,0,0,1-2.13.5,3.45,3.45,0,0,1-2.34-.72,2.47,2.47,0,0,1-.82-2,2.39,2.39,0,0,1,1.22-2.09,6.23,6.23,0,0,1,3.32-.77h2.27v-1.26a1.94,1.94,0,0,0-.71-1.6,3.06,3.06,0,0,0-2-.58,5.23,5.23,0,0,0-1.57.22,3.72,3.72,0,0,0-1.18.58l-.09,1.28h-.94v-1.83a6,6,0,0,1,1.7-.83,7,7,0,0,1,2.11-.31,4.31,4.31,0,0,1,2.74.8,2.71,2.71,0,0,1,1,2.29v4.68c0,.19,0,.38,0,.55a4.51,4.51,0,0,0,.07.53l1,.06v.77Zm-3.74-.75a4.36,4.36,0,0,0,2.17-.52,3.24,3.24,0,0,0,1.36-1.36v-1.91h-2.29a4.58,4.58,0,0,0-2.47.59,1.74,1.74,0,0,0-.92,1.5,1.51,1.51,0,0,0,.57,1.23A2.38,2.38,0,0,0,609.11,149.44Z"/><path class="cls-3" d="M223.66,165.22h-.93l-.13-1.35a2.87,2.87,0,0,0-1.08-.64A4.53,4.53,0,0,0,220,163a3,3,0,0,0-1.87.5,1.47,1.47,0,0,0-.62,1.16,1.33,1.33,0,0,0,.54,1.09,5.47,5.47,0,0,0,2.14.76,7.4,7.4,0,0,1,2.74,1,2.08,2.08,0,0,1,.91,1.78,2.24,2.24,0,0,1-1,1.92,4.63,4.63,0,0,1-2.74.74,6.83,6.83,0,0,1-2.08-.3,5,5,0,0,1-1.62-.83v-1.92h.92l.17,1.36a2.7,2.7,0,0,0,1.15.61,5.36,5.36,0,0,0,1.46.19,3.34,3.34,0,0,0,1.94-.5,1.42,1.42,0,0,0,.12-2.38,4.9,4.9,0,0,0-2.14-.82,7.57,7.57,0,0,1-2.72-1,2,2,0,0,1-.89-1.71,2.25,2.25,0,0,1,1-1.84,4.25,4.25,0,0,1,2.63-.75,6.14,6.14,0,0,1,2.06.32,4.25,4.25,0,0,1,1.53.86Z"/><path class="cls-3" d="M233,171.79c-.07-.32-.13-.6-.16-.83a5.81,5.81,0,0,1-.05-.72,4.27,4.27,0,0,1-1.52,1.24,4.52,4.52,0,0,1-2.13.5,3.47,3.47,0,0,1-2.34-.72,2.49,2.49,0,0,1-.82-2,2.39,2.39,0,0,1,1.22-2.09,6.25,6.25,0,0,1,3.32-.77h2.27v-1.26a2,2,0,0,0-.7-1.6,3.09,3.09,0,0,0-2-.58,5.11,5.11,0,0,0-1.56.22,3.67,3.67,0,0,0-1.19.58l-.09,1.28h-.94v-1.83a6,6,0,0,1,1.7-.83,7,7,0,0,1,2.11-.31,4.31,4.31,0,0,1,2.74.8,2.71,2.71,0,0,1,1,2.29v4.68c0,.19,0,.38,0,.55a4.52,4.52,0,0,0,.06.53l1,.06v.77Zm-3.74-.75a4.39,4.39,0,0,0,2.18-.52,3.18,3.18,0,0,0,1.35-1.37v-1.9h-2.28a4.6,4.6,0,0,0-2.48.59,1.76,1.76,0,0,0-.92,1.5,1.51,1.51,0,0,0,.57,1.23A2.4,2.4,0,0,0,229.29,171Z"/><path class="cls-3" d="M239.28,159.85v2.43h2.26v.86h-2.26v6.2a1.93,1.93,0,0,0,.36,1.32,1.29,1.29,0,0,0,1,.39,4.61,4.61,0,0,0,.53,0c.18,0,.38,0,.6-.07l.18.78a3.59,3.59,0,0,1-.7.17,4.43,4.43,0,0,1-.81.07,2.24,2.24,0,0,1-1.69-.64,2.83,2.83,0,0,1-.6-2v-6.2h-1.77v-.86h1.77v-2.43Z"/><path class="cls-3" d="M243.55,171l1.55-.12v-7.72l-1.55-.12v-.78h2.68v8.62l1.54.12v.77h-4.22Zm2.68-11.46H245.1v-1.48h1.13Z"/><path class="cls-3" d="M257.13,165.22h-.93l-.13-1.35a3,3,0,0,0-1.08-.64,4.53,4.53,0,0,0-1.49-.23,3,3,0,0,0-1.87.5,1.47,1.47,0,0,0-.62,1.16,1.34,1.34,0,0,0,.53,1.09,5.53,5.53,0,0,0,2.14.76,7.39,7.39,0,0,1,2.75,1,2.08,2.08,0,0,1,.91,1.78,2.26,2.26,0,0,1-1,1.92,4.66,4.66,0,0,1-2.75.74,6.72,6.72,0,0,1-2.07-.3,4.87,4.87,0,0,1-1.62-.83v-1.92h.92l.16,1.36a2.82,2.82,0,0,0,1.15.61,5.47,5.47,0,0,0,1.46.19,3.39,3.39,0,0,0,1.95-.5,1.42,1.42,0,0,0,.12-2.38,5,5,0,0,0-2.14-.82,7.57,7.57,0,0,1-2.72-1,2,2,0,0,1-.89-1.71,2.22,2.22,0,0,1,1-1.84,4.25,4.25,0,0,1,2.63-.75,6.14,6.14,0,0,1,2.06.32,4.2,4.2,0,0,1,1.52.86Z"/><path class="cls-3" d="M259.25,163.14v-.86H261v-1.39a3,3,0,0,1,.77-2.21,3,3,0,0,1,2.18-.78,4.4,4.4,0,0,1,.62,0q.33,0,.66.12l-.14.87-.47-.08a4.5,4.5,0,0,0-.56,0,1.86,1.86,0,0,0-1.43.54,2.22,2.22,0,0,0-.5,1.53v1.39h2.45v.86h-2.45v7.76l1.55.12v.77H259.4V171l1.55-.12v-7.76Z"/><path class="cls-3" d="M273.38,171.79a7.38,7.38,0,0,1-.16-.83,5.81,5.81,0,0,1-.05-.72,4.36,4.36,0,0,1-1.52,1.24,4.52,4.52,0,0,1-2.13.5,3.45,3.45,0,0,1-2.34-.72,2.49,2.49,0,0,1-.82-2,2.37,2.37,0,0,1,1.22-2.09,6.23,6.23,0,0,1,3.32-.77h2.27v-1.26a2,2,0,0,0-.71-1.6,3.07,3.07,0,0,0-2-.58,5.16,5.16,0,0,0-1.56.22,3.72,3.72,0,0,0-1.18.58l-.09,1.28h-.94v-1.83a6,6,0,0,1,1.7-.83,7,7,0,0,1,2.11-.31,4.33,4.33,0,0,1,2.74.8,2.71,2.71,0,0,1,1,2.29v4.68c0,.19,0,.38,0,.55a3.07,3.07,0,0,0,.07.53l1,.06v.77Zm-3.74-.75a4.36,4.36,0,0,0,2.17-.52,3.2,3.2,0,0,0,1.36-1.37v-1.9h-2.29a4.58,4.58,0,0,0-2.47.59,1.74,1.74,0,0,0-.92,1.5,1.51,1.51,0,0,0,.57,1.23A2.38,2.38,0,0,0,269.64,171Z"/><path class="cls-3" d="M278.59,170.9h5.58l.09-1.8h1v2.69H277.2V171l6.18-7.83h-5.07l-.07,1.79h-1v-2.7h7.6v.78Z"/><path class="cls-3" d="M291.64,172a4.28,4.28,0,0,1-3.21-1.32,4.59,4.59,0,0,1-1.27-3.34v-.49a4.72,4.72,0,0,1,1.27-3.38,4,4,0,0,1,3.06-1.34,4,4,0,0,1,3,1.1,4.07,4.07,0,0,1,1.08,3v.89h-7.25v.26a4,4,0,0,0,.93,2.68,3,3,0,0,0,2.42,1.09,5.33,5.33,0,0,0,1.8-.27,3.83,3.83,0,0,0,1.29-.79l.48.72a4.11,4.11,0,0,1-1.46.9A6,6,0,0,1,291.64,172Zm-.15-9a2.82,2.82,0,0,0-2.11.89,3.63,3.63,0,0,0-1,2.24v.05h6v-.27a2.88,2.88,0,0,0-.79-2.07A2.76,2.76,0,0,0,291.49,163Z"/><path class="cls-3" d="M300,162.28l.14,1.58V164a3.43,3.43,0,0,1,1.19-1.38,3.2,3.2,0,0,1,1.79-.49,3,3,0,0,1,.43,0l.33.06-.15,1-.84-.06a2.69,2.69,0,0,0-1.76.56,3.08,3.08,0,0,0-1,1.54v5.67l1.55.12v.77H297.5V171l1.54-.12v-7.72l-1.54-.12v-.78H300Z"/><path class="cls-3" d="M317.66,170.23a3.5,3.5,0,0,1-1.33,1.29,4.14,4.14,0,0,1-2,.46,3.24,3.24,0,0,1-2.54-1,4.65,4.65,0,0,1-.91-3.17v-4.61l-1.27-.12v-.78H312v5.53a3.87,3.87,0,0,0,.64,2.5,2.26,2.26,0,0,0,1.82.75,3.48,3.48,0,0,0,2.05-.53,2.79,2.79,0,0,0,1.08-1.45v-5.9l-1.46-.12v-.78h2.6v8.62l1.37.12v.77h-2.37Z"/><path class="cls-3" d="M321.56,163.06v-.78h2.55l.1,1.57a3.55,3.55,0,0,1,1.32-1.29,4.07,4.07,0,0,1,2-.45,3.38,3.38,0,0,1,2,.53,2.84,2.84,0,0,1,1.13,1.62,3.75,3.75,0,0,1,1.33-1.58,3.69,3.69,0,0,1,2.09-.57,3.21,3.21,0,0,1,2.54,1,4.59,4.59,0,0,1,.9,3.13v4.64L339,171v.77h-4.24V171l1.55-.13v-4.66a3.71,3.71,0,0,0-.67-2.49,2.43,2.43,0,0,0-1.87-.72,2.64,2.64,0,0,0-2,.78,3.58,3.58,0,0,0-.89,2v.13a.71.71,0,0,1,0,.16v4.81l1.55.12v.77h-4.24V171l1.55-.12v-4.67a3.65,3.65,0,0,0-.68-2.47,2.4,2.4,0,0,0-1.86-.74,3,3,0,0,0-1.93.57,3,3,0,0,0-1,1.52v5.79l1.55.12v.77h-4.23V171l1.54-.12v-7.72Z"/><path class="cls-3" d="M352.26,170.42a3.41,3.41,0,0,1-1.32,1.15,4.19,4.19,0,0,1-1.9.41,3.53,3.53,0,0,1-2.88-1.28,5.23,5.23,0,0,1-1-3.4v-.18a5.9,5.9,0,0,1,1-3.65,3.44,3.44,0,0,1,2.9-1.36,4,4,0,0,1,1.86.41,3.64,3.64,0,0,1,1.31,1.19V159l-1.54-.12v-.78h2.68V170.9l1.55.12v.77h-2.56Zm-6-3.12A4.52,4.52,0,0,0,347,170a2.58,2.58,0,0,0,2.24,1,3.36,3.36,0,0,0,1.83-.46,3.06,3.06,0,0,0,1.14-1.25v-4.5a3.34,3.34,0,0,0-1.09-1.32,3.15,3.15,0,0,0-1.86-.51,2.51,2.51,0,0,0-2.25,1.14,5.2,5.2,0,0,0-.76,3Z"/><path class="cls-3" d="M361.19,172a4.24,4.24,0,0,1-3.2-1.32,4.59,4.59,0,0,1-1.28-3.34v-.49a4.76,4.76,0,0,1,1.27-3.38,4,4,0,0,1,3.06-1.34,4,4,0,0,1,3,1.1,4.07,4.07,0,0,1,1.08,3v.89h-7.25v.26a4,4,0,0,0,.93,2.68,3,3,0,0,0,2.42,1.09,5.35,5.35,0,0,0,1.81-.27,3.79,3.79,0,0,0,1.28-.79l.48.72a4,4,0,0,1-1.46.9A6,6,0,0,1,361.19,172Zm-.15-9a2.83,2.83,0,0,0-2.11.89,3.68,3.68,0,0,0-1,2.24l0,.05h6v-.27a2.91,2.91,0,0,0-.78-2.07A2.8,2.8,0,0,0,361,163Z"/><path class="cls-3" d="M369.73,159.85v2.43H372v.86h-2.26v6.2a1.93,1.93,0,0,0,.37,1.32,1.27,1.27,0,0,0,1,.39,4.7,4.7,0,0,0,.54,0l.6-.07.17.78a3.48,3.48,0,0,1-.69.17,4.47,4.47,0,0,1-.82.07,2.21,2.21,0,0,1-1.68-.64,2.83,2.83,0,0,1-.6-2v-6.2h-1.77v-.86h1.77v-2.43Z"/><path class="cls-3" d="M378.61,172a4.28,4.28,0,0,1-3.21-1.32,4.59,4.59,0,0,1-1.27-3.34v-.49a4.72,4.72,0,0,1,1.27-3.38,4,4,0,0,1,3.06-1.34,4,4,0,0,1,3,1.1,4.07,4.07,0,0,1,1.08,3v.89h-7.25v.26a4,4,0,0,0,.92,2.68,3,3,0,0,0,2.43,1.09,5.33,5.33,0,0,0,1.8-.27,3.69,3.69,0,0,0,1.28-.79l.49.72a4.2,4.2,0,0,1-1.46.9A6,6,0,0,1,378.61,172Zm-.15-9a2.82,2.82,0,0,0-2.11.89,3.69,3.69,0,0,0-1,2.24l0,.05h6v-.27a2.88,2.88,0,0,0-.79-2.07A2.76,2.76,0,0,0,378.46,163Z"/><path class="cls-3" d="M387,162.28l.14,1.58V164a3.43,3.43,0,0,1,1.19-1.38,3.2,3.2,0,0,1,1.79-.49,2.77,2.77,0,0,1,.42,0l.34.06-.15,1-.85-.06a2.73,2.73,0,0,0-1.76.56,3.07,3.07,0,0,0-1,1.54v5.67l1.55.12v.77h-4.23V171l1.55-.12v-7.72l-1.55-.12v-.78H387Z"/><path class="cls-3" d="M392.1,163.06v-.78h2.56l.1,1.57a3.55,3.55,0,0,1,1.32-1.29,4.07,4.07,0,0,1,2-.45,3.38,3.38,0,0,1,2,.53,2.89,2.89,0,0,1,1.13,1.62,3.8,3.8,0,0,1,1.32-1.58,3.72,3.72,0,0,1,2.1-.57,3.21,3.21,0,0,1,2.54,1,4.64,4.64,0,0,1,.89,3.13v4.64l1.55.13v.77H405.3V171l1.54-.13v-4.66a3.66,3.66,0,0,0-.67-2.49,2.4,2.4,0,0,0-1.86-.72,2.65,2.65,0,0,0-2.05.78,3.64,3.64,0,0,0-.88,2v.13a.71.71,0,0,1,0,.16v4.81l1.54.12v.77H398.7V171l1.55-.12v-4.67a3.65,3.65,0,0,0-.68-2.47,2.42,2.42,0,0,0-1.87-.74,2.76,2.76,0,0,0-2.91,2.09v5.79l1.55.12v.77H392.1V171l1.55-.12v-7.72Z"/><path class="cls-3" d="M410.87,171l1.55-.12v-7.72l-1.55-.12v-.78h2.68v8.62l1.54.12v.77h-4.22Zm2.68-11.46h-1.13v-1.48h1.13Z"/><path class="cls-3" d="M416.79,171l1.55-.12v-7.72l-1.55-.12v-.78h2.56l.1,1.66a3.55,3.55,0,0,1,1.33-1.36,4.07,4.07,0,0,1,2-.47,3.31,3.31,0,0,1,2.55.94,4.24,4.24,0,0,1,.87,2.95v4.9l1.55.12v.77H423.5V171l1.55-.12V166a3.25,3.25,0,0,0-.66-2.31,2.49,2.49,0,0,0-1.87-.68,3.14,3.14,0,0,0-1.95.58,3.19,3.19,0,0,0-1.09,1.56v5.74L421,171v.77h-4.24Z"/><path class="cls-3" d="M436.61,171.79a7.38,7.38,0,0,1-.16-.83,5.81,5.81,0,0,1-.05-.72,4.36,4.36,0,0,1-1.52,1.24,4.52,4.52,0,0,1-2.13.5,3.45,3.45,0,0,1-2.34-.72,2.49,2.49,0,0,1-.82-2,2.37,2.37,0,0,1,1.22-2.09,6.23,6.23,0,0,1,3.32-.77h2.27v-1.26a2,2,0,0,0-.71-1.6,3.07,3.07,0,0,0-2-.58,5.11,5.11,0,0,0-1.56.22,3.72,3.72,0,0,0-1.18.58l-.09,1.28h-.94v-1.83a6,6,0,0,1,1.7-.83,7,7,0,0,1,2.11-.31,4.28,4.28,0,0,1,2.73.8,2.71,2.71,0,0,1,1,2.29v4.68c0,.19,0,.38,0,.55a3.07,3.07,0,0,0,.07.53l1,.06v.77Zm-3.74-.75a4.36,4.36,0,0,0,2.17-.52,3.2,3.2,0,0,0,1.36-1.37v-1.9h-2.29a4.58,4.58,0,0,0-2.47.59,1.75,1.75,0,0,0-.93,1.5,1.52,1.52,0,0,0,.58,1.23A2.38,2.38,0,0,0,432.87,171Z"/><path class="cls-3" d="M447.38,170.42a3.41,3.41,0,0,1-1.32,1.15,4.19,4.19,0,0,1-1.9.41,3.53,3.53,0,0,1-2.88-1.28,5.23,5.23,0,0,1-1-3.4v-.18a5.9,5.9,0,0,1,1-3.65,3.44,3.44,0,0,1,2.9-1.36,4,4,0,0,1,1.86.41,3.64,3.64,0,0,1,1.31,1.19V159l-1.54-.12v-.78h2.68V170.9L450,171v.77h-2.56Zm-6-3.12a4.52,4.52,0,0,0,.75,2.74,2.58,2.58,0,0,0,2.24,1,3.36,3.36,0,0,0,1.83-.46,3.06,3.06,0,0,0,1.14-1.25v-4.5a3.34,3.34,0,0,0-1.09-1.32,3.15,3.15,0,0,0-1.86-.51,2.51,2.51,0,0,0-2.25,1.14,5.2,5.2,0,0,0-.76,3Z"/><path class="cls-3" d="M451.78,166.9a4.89,4.89,0,0,1,1.25-3.45,4.72,4.72,0,0,1,6.59,0,4.89,4.89,0,0,1,1.25,3.45v.29a4.93,4.93,0,0,1-1.24,3.45,4.73,4.73,0,0,1-6.6,0,4.89,4.89,0,0,1-1.25-3.45Zm1.14.29a4.29,4.29,0,0,0,.9,2.77,3.06,3.06,0,0,0,2.52,1.13,3,3,0,0,0,2.49-1.13,4.29,4.29,0,0,0,.9-2.77v-.29a4.23,4.23,0,0,0-.91-2.76,3.31,3.31,0,0,0-5,0,4.28,4.28,0,0,0-.9,2.76Z"/><path class="cls-3" d="M467.45,166.9a4.89,4.89,0,0,1,1.24-3.45,4.72,4.72,0,0,1,6.59,0,4.89,4.89,0,0,1,1.25,3.45v.29a4.89,4.89,0,0,1-1.24,3.45,4.73,4.73,0,0,1-6.6,0,4.89,4.89,0,0,1-1.24-3.45Zm1.13.29a4.24,4.24,0,0,0,.91,2.77,3.33,3.33,0,0,0,5,0,4.29,4.29,0,0,0,.9-2.77v-.29a4.23,4.23,0,0,0-.91-2.76,3.3,3.3,0,0,0-5,0,4.23,4.23,0,0,0-.91,2.76Z"/><path class="cls-3" d="M487.2,167.3a5.2,5.2,0,0,1-1,3.41,3.53,3.53,0,0,1-2.88,1.27,4.18,4.18,0,0,1-1.94-.42,3.46,3.46,0,0,1-1.32-1.2l-.12,1.43h-1V159l-1.55-.12v-.78h2.68v5.7a3.53,3.53,0,0,1,1.31-1.24,3.89,3.89,0,0,1,1.9-.43,3.42,3.42,0,0,1,2.89,1.36,5.84,5.84,0,0,1,1,3.65Zm-1.14-.18a5.28,5.28,0,0,0-.76-3,2.53,2.53,0,0,0-2.24-1.14,3.12,3.12,0,0,0-1.92.54,3.24,3.24,0,0,0-1.08,1.4v4.3a3,3,0,0,0,1.13,1.31,3.38,3.38,0,0,0,1.89.49,2.6,2.6,0,0,0,2.23-1,4.52,4.52,0,0,0,.75-2.74Z"/><path class="cls-3" d="M492,172.57a3.19,3.19,0,0,1-.76,2.27,2.79,2.79,0,0,1-2.12.79,3,3,0,0,1-.54,0l-.52-.12.12-.89.41.09a4.3,4.3,0,0,0,.46,0,1.67,1.67,0,0,0,1.33-.54,2.34,2.34,0,0,0,.48-1.6v-9.39l-1.55-.12v-.78H492Zm-.06-13h-1.14v-1.44H492Z"/><path class="cls-3" d="M499,172a4.24,4.24,0,0,1-3.2-1.32,4.59,4.59,0,0,1-1.28-3.34v-.49a4.76,4.76,0,0,1,1.27-3.38,4.05,4.05,0,0,1,3.06-1.34,4,4,0,0,1,3,1.1,4.07,4.07,0,0,1,1.08,3v.89h-7.25v.26a4,4,0,0,0,.93,2.68,3,3,0,0,0,2.42,1.09,5.35,5.35,0,0,0,1.81-.27,3.79,3.79,0,0,0,1.28-.79l.48.72a4,4,0,0,1-1.46.9A6,6,0,0,1,499,172Zm-.15-9a2.83,2.83,0,0,0-2.11.89,3.68,3.68,0,0,0-1,2.24l0,.05h6v-.27a2.92,2.92,0,0,0-.79-2.07A2.8,2.8,0,0,0,498.84,163Z"/><path class="cls-3" d="M507.53,159.85v2.43h2.26v.86h-2.26v6.2a1.93,1.93,0,0,0,.37,1.32,1.27,1.27,0,0,0,1,.39,4.7,4.7,0,0,0,.54,0l.6-.07.17.78a3.48,3.48,0,0,1-.69.17,4.47,4.47,0,0,1-.82.07,2.21,2.21,0,0,1-1.68-.64,2.83,2.83,0,0,1-.6-2v-6.2h-1.77v-.86h1.77v-2.43Z"/><path class="cls-3" d="M511.81,171l1.54-.12v-7.72l-1.54-.12v-.78h2.67v8.62L516,171v.77h-4.22Zm2.67-11.46h-1.13v-1.48h1.13Z"/><path class="cls-3" d="M520.92,163.06l-1.28.09,2.56,6.26.33,1.12h.06l.36-1.12,2.53-6.26-1.29-.09v-.78h3.46v.78l-1,.08L523,171.79h-.91l-3.64-8.65-1-.08v-.78h3.46Z"/><path class="cls-3" d="M528.76,166.9a4.89,4.89,0,0,1,1.24-3.45,4.73,4.73,0,0,1,6.6,0,4.89,4.89,0,0,1,1.24,3.45v.29a4.89,4.89,0,0,1-1.24,3.45,4.27,4.27,0,0,1-3.29,1.34,4.31,4.31,0,0,1-3.31-1.34,4.89,4.89,0,0,1-1.24-3.45Zm1.14.29a4.29,4.29,0,0,0,.9,2.77,3.33,3.33,0,0,0,5,0,4.29,4.29,0,0,0,.9-2.77v-.29a4.28,4.28,0,0,0-.9-2.76,3,3,0,0,0-2.51-1.14,3,3,0,0,0-2.49,1.14,4.28,4.28,0,0,0-.9,2.76Z"/><path class="cls-3" d="M541.45,171.79h-1.3v-1.44h1.3Z"/><circle class="cls-4" cx="91" cy="131.67" r="88"/><path class="cls-3" d="M91,46.67a85,85,0,1,1-85,85,85,85,0,0,1,85-85m0-6a91,91,0,1,0,91,91,91.11,91.11,0,0,0-91-91Z"/><path class="cls-2" d="M90.78,46.83a84.78,84.78,0,1,0,84.77,84.77A84.77,84.77,0,0,0,90.78,46.83Zm0,163.9A79.13,79.13,0,1,1,169.9,131.6,79.13,79.13,0,0,1,90.78,210.73Z"/><path class="cls-2" d="M130.79,70a2.86,2.86,0,0,0-2.13-.4,2.9,2.9,0,0,0-1.79,1.22L122.25,78a2.81,2.81,0,0,0-.39,2.17,2.87,2.87,0,0,0,1.29,1.79,38.71,38.71,0,0,1,3.17,2.25c.63.49,1.27,1,1.77,1.33.88.72,1.72,1.48,2.56,2.25l-2,2a56.11,56.11,0,0,0-12.39-8.48l5.78-13a2.79,2.79,0,0,0,.06-2.16,2.83,2.83,0,0,0-1.49-1.57,73.88,73.88,0,0,0-26-6.2,2.82,2.82,0,0,0-3,2.68l-.44,8.46a2.83,2.83,0,0,0,2.67,3l3,.15,3.17.48,1.22.19c.61.09,1.22.17,1.76.3l.39.1-.74,2.76a57.91,57.91,0,0,0-15-1.21L86.21,61.05a2.83,2.83,0,0,0-3.1-2.52,72.94,72.94,0,0,0-25.68,7.65A2.83,2.83,0,0,0,56.2,70l3.86,7.55a2.81,2.81,0,0,0,3.7,1.28c.57-.26,1.13-.53,1.7-.81a29.87,29.87,0,0,1,4-1.74l.73-.27c.85-.31,1.67-.62,2.49-.89l.73,2.73c-.7.24-1.37.49-2,.74l-.67.25a26.27,26.27,0,0,0-4,1.71l-1.7.82-4.79,2.76-.33.18L51.57,72.84a2.83,2.83,0,0,0-1.85-1.13,2.77,2.77,0,0,0-2.1.51A73.58,73.58,0,0,0,29.19,91.6,2.82,2.82,0,0,0,30,95.51l7.11,4.62a2.8,2.8,0,0,0,2.16.39,2.84,2.84,0,0,0,1.79-1.29,36.28,36.28,0,0,1,2.25-3.16c.49-.64,1-1.28,1.33-1.78.72-.87,1.48-1.72,2.25-2.55l2,2a56.15,56.15,0,0,0-8.49,12.39l-13-5.78a2.83,2.83,0,0,0-3.74,1.43,74.15,74.15,0,0,0-6.2,26,2.83,2.83,0,0,0,2.68,3l8.47.43a2.79,2.79,0,0,0,3-2.66l.15-3,.48-3.17c.08-.4.13-.81.19-1.22.09-.61.18-1.23.3-1.76l.1-.39,2.77.75a57.37,57.37,0,0,0-1.22,15l-14.14,1.47a2.85,2.85,0,0,0-1.9,1,2.82,2.82,0,0,0-.61,2.07A73.63,73.63,0,0,0,25.36,165a2.82,2.82,0,0,0,3.8,1.23l7.55-3.85A2.83,2.83,0,0,0,38,158.62c-.26-.56-.53-1.11-.8-1.67a29.23,29.23,0,0,1-1.75-4.06l-.27-.75c-.32-.84-.62-1.66-.89-2.47l2.77-.74a55.69,55.69,0,0,0,6.45,13.53L32,170.81a2.82,2.82,0,0,0-.62,3.95,73.73,73.73,0,0,0,19.38,18.43,2.81,2.81,0,0,0,3.91-.83l4.62-7.1a2.83,2.83,0,0,0-.89-4A35.65,35.65,0,0,1,55.24,179c-.64-.49-1.28-1-1.77-1.32-.88-.72-1.72-1.48-2.56-2.25l2-2c.75.69,1.53,1.39,2.47,2.16.55.39,1.09.8,1.62,1.21a34.36,34.36,0,0,0,3.15,2.22L65.2,182l.06,0-5.79,13a2.91,2.91,0,0,0-.06,2.17,2.82,2.82,0,0,0,1.49,1.56,73.94,73.94,0,0,0,26,6.21h.15a2.83,2.83,0,0,0,2.82-2.68l.44-8.46a2.82,2.82,0,0,0-2.67-3l-3-.15-3.17-.49L80.32,190c-.62-.09-1.23-.18-1.76-.3l-.39-.1.74-2.77a57.88,57.88,0,0,0,15,1.22l1.46,14.14a2.82,2.82,0,0,0,3.11,2.51A72.73,72.73,0,0,0,124.13,197a2.82,2.82,0,0,0,1.23-3.8l-3.86-7.55a2.83,2.83,0,0,0-3.7-1.28l-1.7.82a29.45,29.45,0,0,1-4,1.74l-.72.26c-.85.32-1.67.63-2.49.9l-.74-2.77a56.17,56.17,0,0,0,13.52-6.45L130,190.37a2.82,2.82,0,0,0,3.94.62,73.41,73.41,0,0,0,18.43-19.38,2.81,2.81,0,0,0,.4-2.13,2.84,2.84,0,0,0-1.22-1.78l-7.11-4.63a2.85,2.85,0,0,0-4,.9,37,37,0,0,1-2.24,3.17c-.5.64-1,1.28-1.33,1.78-.73.87-1.49,1.71-2.26,2.55l-1.95-1.95a56.11,56.11,0,0,0,8.48-12.39l13,5.78a2.83,2.83,0,0,0,3.73-1.43,73.72,73.72,0,0,0,6.2-26,2.83,2.83,0,0,0-2.68-3l-8.46-.44a2.85,2.85,0,0,0-3,2.67l-.15,3-.48,3.16c-.07.41-.13.82-.19,1.23-.09.61-.17,1.23-.29,1.75l-.1.39-2.73-.72,0-.07c.15-.66.25-1.33.35-2,0-.32.08-.63.14-1l.43-2.78a2.54,2.54,0,0,0,0-.29l.14-3v-5.91l14.2-1.47a2.82,2.82,0,0,0,1.9-1,2.87,2.87,0,0,0,.62-2.07,73.84,73.84,0,0,0-7.65-25.68A2.83,2.83,0,0,0,152.4,97l-7.55,3.85a2.82,2.82,0,0,0-1.28,3.71c.26.56.53,1.11.8,1.67a28.07,28.07,0,0,1,1.75,4.06l.27.74c.32.85.62,1.66.89,2.47l-2.77.74a55.8,55.8,0,0,0-6.45-13.52l11.48-8.36a2.82,2.82,0,0,0,.63-3.94A73.57,73.57,0,0,0,130.79,70Zm1.72,27.78a2.83,2.83,0,0,0-1.13,1.85,2.77,2.77,0,0,0,.51,2.1,50.44,50.44,0,0,1,8,16.7,2.84,2.84,0,0,0,3.46,2l8.19-2.19a2.83,2.83,0,0,0,2-3.32,40.85,40.85,0,0,0-1.85-5.84l-.22-.61a29.72,29.72,0,0,0-1.59-3.83l2.52-1.29a68,68,0,0,1,5.47,18.35l-14,1.45a2.82,2.82,0,0,0-2.53,3l.14,2.74v5.4l-.14,2.66-.41,2.6c-.06.37-.11.74-.16,1.11s-.14,1-.24,1.42l-.7,2.72a2.82,2.82,0,0,0,2,3.44l8.19,2.19a2.83,2.83,0,0,0,3.47-2l.83-3.23c.17-.75.29-1.52.4-2.28,0-.37.1-.73.17-1.13l.52-3.49,0-.44,2.77.14a68.1,68.1,0,0,1-4.42,18.61L141,150.84a2.84,2.84,0,0,0-2.16-.05,2.8,2.8,0,0,0-1.57,1.49,50.66,50.66,0,0,1-10.48,15.29,2.84,2.84,0,0,0,0,4l6,6a2.76,2.76,0,0,0,2.08.83,2.83,2.83,0,0,0,2-.95l1.53-1.68c1-1.07,2-2.13,3-3.4.43-.61.88-1.2,1.33-1.79.32-.41.64-.83.95-1.25l2.37,1.54a67.58,67.58,0,0,1-13.17,13.85l-8.28-11.38a2.82,2.82,0,0,0-4-.62,50.22,50.22,0,0,1-16.69,8,2.78,2.78,0,0,0-1.72,1.31,2.83,2.83,0,0,0-.29,2.15l2.2,8.19a2.82,2.82,0,0,0,3.32,2,41.93,41.93,0,0,0,5.86-1.85l.58-.22a27.29,27.29,0,0,0,3.83-1.58l1.29,2.52a68.82,68.82,0,0,1-18.35,5.47l-1.45-14a2.78,2.78,0,0,0-3.08-2.52,52,52,0,0,1-18.51-1.51,2.82,2.82,0,0,0-3.46,2L72,190.87a2.82,2.82,0,0,0,2,3.47l3.21.82c.76.18,1.53.29,2.3.4l1.12.18,3.49.51.44,0-.15,2.77a68.86,68.86,0,0,1-18.6-4.42l5.73-12.85a2.83,2.83,0,0,0-1.36-3.7L67.84,177,63,174.19a27.21,27.21,0,0,1-2.57-1.83c-.61-.46-1.2-.92-1.64-1.22-.82-.67-1.6-1.39-2.38-2.1-.58-.54-1.16-1.07-1.76-1.6a2.84,2.84,0,0,0-3.86.13l-6,6a2.82,2.82,0,0,0,.12,4.11c.56.49,1.11,1,1.66,1.51,1.07,1,2.15,2,3.42,3,.61.43,1.2.88,1.78,1.34l1.27,1-1.55,2.37a67.58,67.58,0,0,1-13.85-13.17l11.38-8.28a2.82,2.82,0,0,0,.62-3.95,50.56,50.56,0,0,1-8-16.7,2.83,2.83,0,0,0-3.45-2L30.05,145a2.84,2.84,0,0,0-2,3.33,42,42,0,0,0,1.84,5.83l.23.61a29.1,29.1,0,0,0,1.58,3.83l-2.51,1.29a68.48,68.48,0,0,1-5.48-18.35l14-1.45A2.83,2.83,0,0,0,40.2,137a51.75,51.75,0,0,1,1.5-18.5,2.79,2.79,0,0,0-.28-2.15A2.83,2.83,0,0,0,39.7,115l-8.19-2.18a2.79,2.79,0,0,0-2.15.29A2.84,2.84,0,0,0,28,114.82l-.82,3.23c-.18.75-.29,1.51-.4,2.28-.05.36-.1.72-.17,1.13L26.13,125l0,.43-2.77-.14a68.77,68.77,0,0,1,4.42-18.6l12.85,5.73a2.84,2.84,0,0,0,3.74-1.44,50.68,50.68,0,0,1,10.47-15.3,2.82,2.82,0,0,0,0-4l-6-6a2.87,2.87,0,0,0-2.08-.82,2.79,2.79,0,0,0-2,1q-.75.84-1.53,1.68c-1,1.06-2,2.13-3,3.4-.43.61-.89,1.2-1.34,1.79l-1,1.25-2.37-1.54A67.89,67.89,0,0,1,48.69,78.49L57,89.87a2.82,2.82,0,0,0,4,.62l.65-.49a10,10,0,0,1,1.39-1l4.62-2.68q.82-.37,1.62-.78a22.85,22.85,0,0,1,3.31-1.41l.85-.31a27.78,27.78,0,0,1,4.09-1.3,2.83,2.83,0,0,0,2.16-3.5l-2.19-8.19a2.82,2.82,0,0,0-3.32-2,41.11,41.11,0,0,0-5.86,1.85l-.59.22a28.32,28.32,0,0,0-3.83,1.58L62.54,70a68.82,68.82,0,0,1,18.35-5.47l1.45,14A2.79,2.79,0,0,0,85.42,81a52,52,0,0,1,18.51,1.51,2.81,2.81,0,0,0,3.46-2l2.19-8.19a2.83,2.83,0,0,0-2-3.47l-3.22-.82c-.76-.18-1.52-.29-2.29-.4l-1.13-.18L97.43,67l-.44,0,.15-2.77a68,68,0,0,1,18.6,4.42L110,81.43a2.8,2.8,0,0,0,1.44,3.73,51,51,0,0,1,15.29,10.48,2.82,2.82,0,0,0,4,0l6-6a2.79,2.79,0,0,0,.82-2.08,2.82,2.82,0,0,0-.94-2c-.56-.49-1.11-1-1.66-1.51-1.08-1-2.15-2-3.43-3-.6-.43-1.19-.88-1.78-1.34l-1.26-1L130,76.35a68.1,68.1,0,0,1,13.85,13.17Z"/><path class="cls-2" d="M90.78,86.39a45.12,45.12,0,0,0-39,68,2.75,2.75,0,0,0,.17.29,45.43,45.43,0,0,0,11.53,12.9c.07.05.11.12.19.17l.06,0a44.88,44.88,0,0,0,54.06,0s0,0,.07,0,.13-.12.2-.17a45.4,45.4,0,0,0,11.52-12.9,1.75,1.75,0,0,0,.18-.29,45.13,45.13,0,0,0-39-68Zm-5.1,6L54.32,147A39.53,39.53,0,0,1,85.68,92.41ZM68.81,164.49l22-38.18,22,38.18a39.48,39.48,0,0,1-43.93,0Zm48.41-3.55L94.45,121.36a4.24,4.24,0,0,0-7.35,0L64.33,160.94a39.8,39.8,0,0,1-6.88-8.1l33.33-58,6.46,11.21c0,.08.08.17.13.25l26.73,46.5a39.49,39.49,0,0,1-6.88,8.1Zm10-14L102.4,103.75a2.1,2.1,0,0,0-.13-.26L95.88,92.41A39.53,39.53,0,0,1,127.24,147Z"/><g class="cls-5"><path class="cls-6" d="M79.77,72.1l3.84,14.75s.6,3.63-.71,4.94-7.47,8.28-7.47,8.28L72,106.84l19.9,11.31,23.73-6.36-.71-16.66s-12.15-.78-19.24-6.1c-1.39-1-2.57-13.19-2.57-13.19Z"/><path class="cls-7" d="M93.75,81.2c-.37-2.72-.68-5.46-.68-5.46L79.74,72l1.07,4.11S85,78.83,86.28,79.4A25.37,25.37,0,0,0,93.75,81.2Z"/><path class="cls-6" d="M68.71,103.89s-9.51,5.37-10.38,6.25-7.67,7-7.67,7l-.26,22.07-8.83-21-7.67,3.4,10.92,32.73,6,9.31,4.54,1.72,6.69-30.9,9.63,6,11.82-8.63L75,110.68l-3.63-8Z"/><path class="cls-6" d="M33.57,121.45a10.41,10.41,0,0,1-4.53-3.8,37.79,37.79,0,0,1-4.75.24.7.7,0,0,1-.43-.09.81.81,0,0,1-.25-.53,46.86,46.86,0,0,0-2.45-8.6,1.44,1.44,0,0,1-.14-.76c.1-.46.64-.67,1.11-.72a2.76,2.76,0,0,0,1.38-.27c.52-.36.68-1.16,1.28-1.36s1,.17,1.49,0,.6-.82.93-1.23a3.28,3.28,0,0,1,2.05-.81,14.59,14.59,0,0,0,3.61-1.45.35.35,0,0,0,.21-.18.5.5,0,0,0,0-.21c-.56-2.58-1.73-5.17-2.28-7.75a58.26,58.26,0,0,1-.94-7.4A3.92,3.92,0,0,1,31.91,84a.83.83,0,0,1,.76-.1,1,1,0,0,1,.45.8c.63,2.88,2.32,10.19,3,13.07.39,1.84,3.72,6.44,4.43,7s.81,1.23,1.62,1.84a1.69,1.69,0,0,1,.56.57,1.83,1.83,0,0,1,.15.81l.12,4.88c0,1.9,0,4-1.33,5.38Z"/><path class="cls-7" d="M40.21,104.36c-1-.27-1.94-.9-3-.72a6.84,6.84,0,0,0-2.44,1.26c-2.15,1.47-3.69,3.72-6,4.94a1,1,0,0,0-.19,1.49c1.32,1.28,3.23,2.8,5.19,2.36a6,6,0,0,0,4-3.79l-1.39.57a7.78,7.78,0,0,0,2,1c1.15.44,1.62-1.38.5-1.83-3.73-1.5-5.28,3.37-4,6,.52,1.1,2.16.14,1.64-1-.59-1.25-.26-4.12,1.87-3.26l.5-1.83a4.53,4.53,0,0,1-1.51-.86,1,1,0,0,0-1.4.56c-1.13,3-4.18,2.44-6.07.6l-.19,1.49a19.8,19.8,0,0,0,4.15-3.43,15,15,0,0,1,2.4-1.87c1.14-.71,2.2-.33,3.43,0a1,1,0,0,0,.5-1.83Z"/><path class="cls-7" d="M32.65,108l-.43-2.2-1.83.5A2.53,2.53,0,0,0,31.78,108a1,1,0,0,0,1.3-.34,1,1,0,0,0-.34-1.3.74.74,0,0,1-.52-.57.95.95,0,1,0-1.83.5l.43,2.21a.95.95,0,1,0,1.83-.51Z"/><path class="cls-6" d="M71.93,66s7.71,13.72,30.73,13.73c9.52,0,13.06-2.23,13.6-5.32,3.37-19.43-3.81-44-13.77-51.5C93.75,16.31,62.77,41.2,62.77,41.2L69.37,56s-6.73-7.27-9.43-3.23S65.8,65.37,65.8,65.37,69.64,68.26,71.93,66Z"/><path class="cls-6" d="M117.93,97.11c2.29-1.21,4.35,1.65,4.35,1.65l23.23,40.66-20,36s6.73,11.31,3.36,16.43l4.65,4.64s.74,2.49-2.63,2.49S119.53,193,119.53,193l.92-25.36,15-27-13.75-20.44-4.3-3.81S113.67,99.37,117.93,97.11Z"/><path class="cls-6" d="M93.81,210.94,74.35,259.73S71.84,269,68.86,272a131.27,131.27,0,0,1-7.37,21.31c-5.05,11.31-7.27,26.86-7.27,26.86s4.59,11.66,4,16.91c0,0,4.39,6.06,2.62,9.54S52.2,348,52.2,348s-11.56,1.51-13.28-1.36S41.09,336,41.09,336s-.55-6.16,1.47-7.57A25.2,25.2,0,0,0,47,323.6s-.76-2,1.36-4.75,5.25-20.21,5.25-22.5-2.82-19.39,6.6-26.12c0,0,2.29-46.45,8.75-52.91S93.81,207,93.81,207Z"/><path class="cls-8" d="M93.81,210.94l-6.22,15.6S79,230.38,76.8,230.92c-1.62.39-13.13,4-12.75,1.63,1.21-7.26,2.88-13.21,4.91-15.23,6.47-6.47,24.85-10.3,24.85-10.3Z"/><path class="cls-6" d="M100.74,203.72s16.29,61.53,17.5,64.36-5.15,8.31,6,47.29c0,0-.71,5.15-1.72,7s-3.33,6.46-.4,8.08,12.42,9.69,16.46,10.4S150.15,338,150.15,338s4-1.51,2.78-2.78c0,0-3.68-.15-4.9-1.36s-14.94-12-14.94-12-4.24-5.45-4.24-5.82-3-48.3-3-48.3,1.11-3,0-9.19-.58-45-.58-45Z"/><path class="cls-8" d="M100.74,203.72s3.83,14.43,5,18.69c.44,1.63,19.43,3,19.43,3l.1-11.81Z"/><path class="cls-9" d="M100.74,215.9c3.15,6.25,25.3,7.57,27.13,8.15,0,0,.58-25.08-3-39.17S100.74,215.9,100.74,215.9Z"/><path class="cls-10" d="M73.81,60.46c3.91,1.61.54-5.39.54-5.39s-.37-7-2.36-8.21a29,29,0,0,1-4.33-3.55l37.25-25.54s3.77-5.25-4.84-8.48a10.28,10.28,0,0,0-10.44-3.1s-3.77-4.51-9.22-.37c0,0-11-.64-13.47,4.75a4.09,4.09,0,0,0-4,2.29s-2.28.87-2.72,2.73c0,0-5.56,2.18-5.89,5.89,0,0-3,4.24-.61,7.67,0,0-1.6,3,.47,5.08,0,0-4.64,5.09,0,8.25,0,0-1.14,3.3,5.66,4.65l2,4.17s1.94-.88,7.54,4.71Z"/><path class="cls-7" d="M100.94,61a1.5,1.5,0,0,1,0-3c1.38,0,5.23-1.15,8-2.08C108,49.12,103.65,44,101,41.54a1.5,1.5,0,1,1,2.07-2.17c3.07,2.93,8.3,9.1,8.89,17.48l.08,1.13-1.07.39C110.25,58.64,103.55,61,100.94,61Z"/><ellipse class="cls-11" cx="88.93" cy="45.95" rx="1.81" ry="2.47" transform="translate(-8.52 23.06) rotate(-14.1)"/><path class="cls-11" d="M86.15,45.67h-.06a1.51,1.51,0,0,1-1.44-1.57c0-.36.22-3.62,2.6-4.9,1.55-.83,3.46-.58,5.69.75a1.5,1.5,0,0,1-1.53,2.58c-1.21-.72-2.21-1-2.73-.69-.73.39-1,1.89-1,2.39A1.51,1.51,0,0,1,86.15,45.67Z"/><ellipse class="cls-11" cx="105.72" cy="40.88" rx="1.81" ry="2.47" transform="translate(-6.78 26.99) rotate(-14.1)"/><path class="cls-11" d="M102.47,40.27a1.41,1.41,0,0,1-.4-.05,1.49,1.49,0,0,1-1-1.84c.1-.36,1-3.48,3.64-4.2,1.69-.47,3.5.21,5.38,2A1.5,1.5,0,0,1,108,38.35c-1-1-1.93-1.44-2.51-1.28-.79.22-1.4,1.62-1.53,2.1A1.5,1.5,0,0,1,102.47,40.27Z"/><path class="cls-12" d="M93.06,63.21c-.22-.23,13.34.85,18.52-3,0,0,1,10.31-3.6,11.44S97.73,71,93.06,63.21Z"/><g class="cls-13"><path class="cls-14" d="M92.18,64.83s12.68,3.62,18.32-2l-.71-2.56L91.2,61.5Z"/><path class="cls-15" d="M94.41,69.48s4.07-3.94,10.57-1.32,0,7.38,0,7.38Z"/></g><path class="cls-7" d="M105.19,73.07c-7.76,0-12.94-9.27-13-9.38l-.86-1.57,1.79.09c.12,0,12.51.6,17.93-2.81a1,1,0,0,1,1.06,1.69c-4.65,2.93-13.36,3.2-17.2,3.17,2,3,7.16,8.91,13.69,6.06a1,1,0,1,1,.8,1.84A10.47,10.47,0,0,1,105.19,73.07Z"/><path class="cls-7" d="M69.06,64.43s-.2-8.84-7-11"/><path class="cls-7" d="M62.06,134.41s5.82-7.8,5-6.62C62.85,134.39,78,142,81.59,137.94a9.11,9.11,0,0,1-9.9,2.51Z"/><path class="cls-16" d="M75.43,100.07S69,102.46,66,105.47c0,0,18.13,26.29,5.74,35,0,0,11.41,21.8,10.2,26.24s-21.49,61-21.49,61,62.61-1.11,64.84-42.05l-3-23.56A196.16,196.16,0,0,0,124,138.22c.13-11.5-1.13-24.72-2-33.74a14.55,14.55,0,0,0-4.25-9.15l-5.89-.55s4.65,15.59-6.12,17.07C99.91,112.65,85.93,114.52,75.43,100.07Z"/><g class="cls-17"><path class="cls-18" d="M62.74,229.25s62.61-1.11,64.84-42Z"/></g><path class="cls-16" d="M75.43,100.07S69,102.46,66,105.47c0,0,18.13,26.29,5.74,35,0,0,11.41,21.8,10.2,26.24s-21.49,61-21.49,61,62.61-1.11,64.84-42.05l-3-23.56A196.16,196.16,0,0,0,124,138.22c.13-11.5-1.13-24.72-2-33.74a14.55,14.55,0,0,0-4.25-9.15l-5.89-.55s4.65,15.59-6.12,17.07C99.91,112.65,85.93,114.52,75.43,100.07Z"/><path class="cls-19" d="M80.5,171.27s33,4.39,42.17-6.11c0,0,1-2.07-.39-3,.2,1.94-15.5,10.4-40.39,5A2.71,2.71,0,0,0,80.5,171.27Z"/><circle class="cls-20" cx="107.92" cy="169.68" r="7.7"/><g class="cls-21"><path class="cls-22" d="M71.36,20.74s-3.31,4,.89,6.68c1.46.94-4.35,5.45-4.35,5.45L65.56,46.05a17.55,17.55,0,0,1,5-1.22L81.23,57l-6.81,4.25L52.67,46.61l-14.47-28L56.85,1.72,77.24-3,73.66,4.08S65,9.37,68.31,13.18C66.24,14.64,65.83,20.35,71.36,20.74Z"/></g><path class="cls-23" d="M61.93,51.3S58,49.55,58,46.32s15.22-33.8,47-28.55c0,0,4.92,3.44,3.24,5.12,0,0,3,3.76.6,5.78S94.65,27.73,61.93,51.3Z"/><path class="cls-24" d="M63.64,44.17S84,19.39,105.72,22.62C105.72,22.62,85.46,23.71,63.64,44.17Z"/><path class="cls-25" d="M108.77,176.29a7.66,7.66,0,0,1-5.64-2.2c-1.52-1.69-1.94-4.13-1.27-7.26a1.5,1.5,0,0,1,2.93.63c-.46,2.14-.27,3.69.57,4.63,1.26,1.41,3.74,1.19,3.77,1.19a1.5,1.5,0,1,1,.31,3S109.15,176.29,108.77,176.29Z"/><path class="cls-26" d="M112.57,173.68a1.24,1.24,0,0,1-.33,0,1.5,1.5,0,0,1-1.14-1.78c.48-2.13.3-3.68-.53-4.62-1.25-1.43-3.75-1.22-3.77-1.22a1.5,1.5,0,0,1-.29-3c.16,0,4-.36,6.3,2.21,1.5,1.7,1.92,4.14,1.22,7.26A1.49,1.49,0,0,1,112.57,173.68Z"/><path class="cls-7" d="M29.37,118.21a2.1,2.1,0,0,0,0-3.59c-.86-.65-2,.79-1.15,1.49a3.87,3.87,0,0,0,3.18,1.3,2.65,2.65,0,0,0,2.07-2.11l-1.39.56a3,3,0,0,0,3.09.1c1.09-.55.13-2.19-1-1.64a1.06,1.06,0,0,1-1.17-.1,1,1,0,0,0-1.4.57c-.26,1.35-1.46.51-2.08,0l-1.15,1.49,0,.31c-1,.69-.05,2.34,1,1.64Z"/><path class="cls-7" d="M24,106.05q.66,3.08,1.47,6.13a1,1,0,0,0,1.83-.51q-.81-3-1.47-6.13c-.26-1.19-2.09-.68-1.83.51Z"/><path class="cls-7" d="M49.35,138.93a19,19,0,0,1,2.15,7.46c.1,1.21,2,1.22,1.9,0A21.43,21.43,0,0,0,51,138c-.57-1.08-2.21-.12-1.64,1Z"/><path class="cls-27" d="M85,4.08a6.51,6.51,0,0,1,4.64,2.11,11.2,11.2,0,0,1,2.81-.37,10.25,10.25,0,0,1,7.63,3.47c8.37,3.14,5.05,8.19,4.85,8.47H105s4.92,3.44,3.24,5.12c0,0,3,3.76.6,5.78a2.71,2.71,0,0,1-.87.45c6.88,10.72,11,29.66,8.28,45.27-.54,3.09-4.07,5.32-13.59,5.32h0a50.45,50.45,0,0,1-9.21-.82c.09.73.19,1.52.3,2.31h0c.48,3.4,1.17,7.26,1.93,7.83,4.86,3.65,12.1,5.16,16.17,5.75l5.89.55A14,14,0,0,1,119,96.82h.07c1.77,0,3.17,2,3.17,2l23.23,40.66-20,36s6.73,11.31,3.36,16.43l4.65,4.64s.74,2.49-2.63,2.49a10.06,10.06,0,0,1-3.9-1.26,255,255,0,0,1,.93,26.35,25.23,25.23,0,0,0-2.71-.41l0,1.72h0c-.07,12,0,29.22.68,33.16,1.11,6.16,0,9.19,0,9.19s3,47.93,3,48.3,4.24,5.82,4.24,5.82,5.61,4.42,10,7.92h0a12.53,12.53,0,0,1,3.65,1.54,3.64,3.64,0,0,1,1.11,2.3c.29.19.77.52,1.32.92a14.11,14.11,0,0,0,3.79.7c.6.6,0,1.26-.78,1.78.43.47.7.87.62,1.14-.28,1.05-4.34,5.32-11.69,5.32-.41,0-.83,0-1.27,0-7.7-.5-18.39-8.72-19.27-11a6.82,6.82,0,0,1,.12-4.61,12.84,12.84,0,0,1,1.82-5.45c1-1.82,1.72-7,1.72-7-11.11-39-4.74-44.47-6-47.29-.81-1.91-8.47-30.43-13.38-48.86a12.81,12.81,0,0,1-2.53-1.5A80.13,80.13,0,0,1,89,223l-1.41,3.54L74.35,259.73S71.84,269,68.86,272a131.27,131.27,0,0,1-7.37,21.31c-5.05,11.31-7.27,26.86-7.27,26.86s3.62,9.18,4,14.92c4.26,5.83,8.08,13,3,15.14a29.17,29.17,0,0,1-11,1.94c-6.11,0-11.59-1.44-12.87-2.71-2.05-2.05,3.78-17.61,3.78-17.61.18-1.41.57-2.78,1.4-3.35A25.2,25.2,0,0,0,47,323.6s-.76-2,1.36-4.75,5.25-20.21,5.25-22.5-2.82-19.39,6.6-26.12c0,0,1.08-21.86,3.84-37.68h0c.3-1.79.63-3.51,1-5.1-2.89.24-4.63.27-4.63.27s15.13-42.23,20-56.59a2.65,2.65,0,0,1,1.3-3.9c.07-.22.12-.41.16-.54,1.21-4.44-10.2-26.24-10.2-26.24l-9.63-6-6.69,30.9-4.54-1.72-6-9.31L33.9,121.55l-.33-.1a10.41,10.41,0,0,1-4.53-3.8,38.07,38.07,0,0,1-4.27.25h-.48a.7.7,0,0,1-.43-.09.81.81,0,0,1-.25-.53,46.86,46.86,0,0,0-2.45-8.6,1.44,1.44,0,0,1-.14-.76c.1-.46.64-.67,1.11-.72a2.76,2.76,0,0,0,1.38-.27c.52-.36.68-1.16,1.28-1.36a1,1,0,0,1,.3,0c.28,0,.57.08.84.08a.83.83,0,0,0,.35-.06c.48-.2.6-.82.93-1.23a3.28,3.28,0,0,1,2.05-.81,14.59,14.59,0,0,0,3.61-1.45.35.35,0,0,0,.21-.18.5.5,0,0,0,0-.21c-.56-2.58-1.73-5.17-2.28-7.75a58.26,58.26,0,0,1-.94-7.4A3.92,3.92,0,0,1,31.91,84a1.09,1.09,0,0,1,.52-.16.53.53,0,0,1,.24.06,1,1,0,0,1,.45.8c.63,2.88,2.32,10.19,3,13.07.39,1.84,3.72,6.44,4.43,7s.81,1.23,1.62,1.84a1.69,1.69,0,0,1,.56.57,1.83,1.83,0,0,1,.15.81l.12,4.88c0,1.9,0,4-1.33,5.38h0L50.34,139l-.17-.59.23.46.26-21.8s6.79-6.1,7.67-7c.56-.57,4.74-3,7.62-4.67h0c3-3,9.48-5.4,9.48-5.4s6.16-7,7.47-8.28.71-4.94.71-4.94l-3.38-13A25.39,25.39,0,0,1,71.93,66a3,3,0,0,1-2.2.88,7.73,7.73,0,0,1-3.93-1.49s-8.55-8.55-5.86-12.59a2.54,2.54,0,0,1,2.22-1.22c1.76,0,3.86,1.45,5.34,2.7-3-2.65-4.66-3-5.31-3H62l0,0,0,0-.06,0,0-.07c-.64-.31-3.5-1.88-3.75-4.55-4.83-1.51-3.9-4.2-3.9-4.2-4.64-3.16,0-8.25,0-8.25-2.07-2.07-.47-5.08-.47-5.08-2.42-3.43.61-7.67.61-7.67.33-3.71,5.89-5.89,5.89-5.89.44-1.86,2.72-2.73,2.72-2.73a4,4,0,0,1,3.73-2.3h.31C69,6.22,76.51,5.8,79.33,5.8c.67,0,1.08,0,1.08,0A7.52,7.52,0,0,1,85,4.08m38,159.08,12.47-22.48-11.85-17.62c.31,5.06.51,10.26.45,15.16a196.16,196.16,0,0,1-1.75,23.89,1.65,1.65,0,0,1,.68,1m24.56,170.23h0M85,.28h0A10.74,10.74,0,0,0,79.27,2c-4.14,0-11,.71-14.51,5a7.65,7.65,0,0,0-4.52,3,8.32,8.32,0,0,0-2.94,2.79c-2.12,1.1-5.73,3.51-6.62,7.33-1.31,2.22-2.49,5.87-1.12,9.37A8.37,8.37,0,0,0,49.67,34a9.71,9.71,0,0,0-1.32,5.82,7.59,7.59,0,0,0,2.06,4.39A6.58,6.58,0,0,0,51,45.88a8.3,8.3,0,0,0,4,3.64,9.12,9.12,0,0,0,1.33,2.11c-1.37,2.95-.54,6.68,2.48,11.1a39.79,39.79,0,0,0,4.39,5.32l.18.19.21.16a11.31,11.31,0,0,0,6.22,2.25,8.49,8.49,0,0,0,.88-.05,32.32,32.32,0,0,0,6.32,5.66l2.95,11.35a8,8,0,0,1,0,1.82c-1.46,1.53-5.19,5.72-6.72,7.44-2,.81-6.63,2.86-9.53,5.54-7,4-7.59,4.62-8,5-.58.58-4.92,4.49-7.51,6.82l-1.25,1.11v1.67l0,3.79-.94-2.24a13.34,13.34,0,0,0,.87-5.84l-.13-4.88A5.36,5.36,0,0,0,46,105.4a5.14,5.14,0,0,0-1.52-1.74l0-.07A7.07,7.07,0,0,0,43,101.87a24.61,24.61,0,0,1-3.21-4.93c-.31-1.47-.9-4-1.47-6.54s-1.15-5.07-1.46-6.48a4.6,4.6,0,0,0-2.56-3.44,4.33,4.33,0,0,0-1.84-.41,4.76,4.76,0,0,0-2.35.63,7.48,7.48,0,0,0-4,5.39c-.22,2,1,8.55,1,8.61A39,39,0,0,0,28.34,99c.08.26.17.51.25.77l-.09,0-.24,0a6.41,6.41,0,0,0-3.88,2,4,4,0,0,0-.76.17,4.75,4.75,0,0,0-2.2,1.51,4.77,4.77,0,0,0-4.11,3.66,5,5,0,0,0,.32,2.94,42.41,42.41,0,0,1,2.25,7.9,4.4,4.4,0,0,0,1.83,3,4.46,4.46,0,0,0,2.53.77h.53c.86,0,1.72,0,2.58-.08a14.7,14.7,0,0,0,3.47,2.71l10.4,31.16.16.46.26.4,6,9.31.68,1,1.17.45L54,168.86l4.12,1.55.93-4.3,5.54-25.61,4.17,2.61c.87,1.7,2.82,5.56,4.72,9.74,3.47,7.65,4.37,11,4.6,12.33a6.5,6.5,0,0,0-1.54,2.39,6.27,6.27,0,0,0-.15,3.58C71.19,186.37,57,226,56.83,226.44L55,231.61l5.4-.1-.06.33-.11.55v.08c-2.29,13.4-3.4,30.46-3.71,35.87-8.4,7.6-7.19,22-6.78,26.88,0,.44.09,1,.09,1.14-.07,2.51-3.06,17.84-4.49,20.22a9.86,9.86,0,0,0-2.26,5.93,16.53,16.53,0,0,1-2.69,2.83c-1.56,1.09-2.51,2.9-2.92,5.53-.41,1.12-1.6,4.45-2.62,8-2.22,7.68-2.25,11.15-.14,13.26,2.63,2.63,9.9,3.82,15.55,3.82a32.79,32.79,0,0,0,12.48-2.23,7.4,7.4,0,0,0,4.45-4.9c1-3.77-.61-8.59-5.24-15.13a72,72,0,0,0-3.82-13.94c.57-3.48,2.76-15.78,6.84-24.91a138.3,138.3,0,0,0,7.37-21.05c3-3.76,5.08-10.86,5.62-12.81l13.16-33,.74-1.85a84.14,84.14,0,0,0,9.89-3.86c10.42,39.07,12.34,45.49,12.86,46.93,0,.28-.11.75-.18,1.15-.77,4.6-2.56,15.32,5.91,45.31a24.27,24.27,0,0,1-1.16,4.88,16.26,16.26,0,0,0-2.29,6.62,10.44,10.44,0,0,0,.12,6.64c1.18,3.09,6.86,6.91,8.57,8,2.92,1.88,8.63,5.08,14,5.43.5,0,1,.05,1.51.05,8.75,0,14.56-5.21,15.35-8.13a3.88,3.88,0,0,0,.13-1.51,4.46,4.46,0,0,0-.95-5.08l-1-1-1.48-.07a12.49,12.49,0,0,1-2-.27,6.7,6.7,0,0,0-1.95-2.77,13.32,13.32,0,0,0-4.31-2.07c-3.58-2.86-7.79-6.18-9-7.17-1.22-1.58-2.57-3.37-3.22-4.29-.17-2.79-.77-12.45-2.94-46.74a25.17,25.17,0,0,0-.09-10.27c-.22-1.24-.72-6.58-.63-29.48l2.63.83.11-5.05c0-.49.23-10.44-.5-21.39a6.23,6.23,0,0,0,5.09-2.37,5.8,5.8,0,0,0,.86-5l-.28-.92-.68-.68-2.9-2.9c1.22-5.35-1.66-12-3.45-15.48l19-34.14,1.05-1.87-1.07-1.86L125.57,96.87l-.1-.17-.11-.16a9.15,9.15,0,0,0-4.29-3.21c-.21-.23-.43-.46-.65-.68l-1-1-1.36-.13-5.8-.54c-3.42-.5-9.52-1.74-13.7-4.56a27.22,27.22,0,0,1-.68-3.14c1.56.13,3.14.19,4.75.19,3.93,0,15.87,0,17.34-8.46,2.51-14.49-.51-32.91-7.21-45.23,1.33-2.31.89-5.14-.4-7.52a5.3,5.3,0,0,0,0-.69,8.58,8.58,0,0,0-3-5.13,8,8,0,0,0-.25-3.8c-.88-2.81-3.2-5-6.89-6.59A14,14,0,0,0,92.44,2a14.29,14.29,0,0,0-1.72.1A10,10,0,0,0,85,.28Zm42.53,146.83c.16-2.75.27-5.73.31-8.85,0-.67,0-1.36,0-2.06l3.14,4.67-3.46,6.24Z"/><polyline class="cls-6" points="33.58 121.45 34.09 121.75 42.13 118.48"/></g></svg>