<svg id="Camada_1" data-name="Camada 1" xmlns="http://www.w3.org/2000/svg" xmlns:xlink="http://www.w3.org/1999/xlink" viewBox="0 0 709.69 222.4"><defs><style>.cls-1{fill:none;}.cls-2{clip-path:url(#clip-path);}.cls-3{fill:#6d472e;}.cls-4{fill:#eac2a7;}.cls-5{fill:#eaa000;}.cls-6{fill:#ffd478;}.cls-7{fill:#027e8f;}.cls-8{fill:#f9f9f9;}.cls-9{clip-path:url(#clip-path-2);}.cls-10{fill:#c9a68f;}.cls-11{fill:#d6aa8b;}.cls-12{fill:#d6d6d6;}.cls-13{fill:#c99f4b;}.cls-14{fill:#6d5f56;}.cls-15{fill:#493e38;}.cls-16{clip-path:url(#clip-path-3);}.cls-17{fill:#fcfcfc;}.cls-18{fill:#d32222;}.cls-19{fill:#f4f4f4;}.cls-20{clip-path:url(#clip-path-4);}.cls-21{fill:#b7b7b7;}.cls-22{fill:#c99e32;}.cls-23{clip-path:url(#clip-path-5);}.cls-24{fill:#aa7e30;}.cls-25{fill:#fff;}.cls-26{fill:#ddd;}.cls-27{fill:#846829;}.cls-28{fill:#e8cd95;}</style><clipPath id="clip-path"><path class="cls-1" d="M131.37-60.59S103.3-39.27,56.29-56.78s-47-152.11-47-152.11S36.15-264.12,85-266.19c9.82-.41,43.26,7.41,43.26,28.14s25.1,113.8,25.1,113.8,10.54,40.81,5.27,43.92"/></clipPath><clipPath id="clip-path-2"><path class="cls-1" d="M131.37,205.6s-28.07,21.33-75.08,3.81-47-152.1-47-152.1S36.48,1.13,85,0c9.82-.22,43.26,7.41,43.26,28.14s25.1,113.8,25.1,113.8,10.54,40.81,5.27,43.92"/></clipPath><clipPath id="clip-path-3"><path class="cls-1" d="M93.06,62.93c-.22-.23,13.34.85,18.52-3,0,0,1,10.32-3.6,11.45S97.73,70.67,93.06,62.93Z"/></clipPath><clipPath id="clip-path-4"><path class="cls-1" d="M100.74,215.63c3.15,6.24,25.3,7.56,27.13,8.14,0,0,.58-25.08-3-39.17S100.74,215.63,100.74,215.63Z"/></clipPath><clipPath id="clip-path-5"><path class="cls-1" d="M73.81,60.18c3.91,1.62.54-5.39.54-5.39s-.37-7-2.36-8.21A28.53,28.53,0,0,1,67.66,43l10-6.84,27.27-18.7s3.77-5.25-4.84-8.48a10.26,10.26,0,0,0-10.44-3.1s-3.77-4.51-9.22-.37c0,0-11-.64-13.47,4.74a4.11,4.11,0,0,0-4,2.29s-2.28.88-2.72,2.73c0,0-5.56,2.19-5.89,5.89,0,0-3,4.24-.61,7.68,0,0-1.6,3,.47,5.08,0,0-4.64,5.08,0,8.25,0,0-1.14,3.29,5.66,4.64l2,4.17s1.94-.88,7.54,4.72Z"/></clipPath></defs><title>4-info</title><g class="cls-2"><path class="cls-3" d="M120.66,61.33a6.82,6.82,0,0,0-.12,4.61c.88,2.29,11.57,10.5,19.28,11,8.14.54,12.65-4.17,13-5.28s-5.25-4.74-5.25-4.74Z"/><path class="cls-3" d="M41.16,65.34s-5.83,15.55-3.78,17.6,15,4.51,23.89.77-9.75-23.23-9.75-23.23Z"/><path class="cls-4" d="M93.81-55.53,74.35-6.74S71.84,2.5,68.86,5.48a131.27,131.27,0,0,1-7.37,21.31c-5.05,11.31-7.27,26.86-7.27,26.86s4.6,11.66,4,16.91c0,0,4.39,6.06,2.63,9.55s-8.69,1.41-8.69,1.41S40.64,83,38.92,80.16s2.17-10.6,2.17-10.6S40.54,63.4,42.56,62A24.9,24.9,0,0,0,47,57.13s-.76-2,1.36-4.74,5.26-20.22,5.26-22.5S50.79,10.5,60.21,3.76c0,0,2.29-46.45,8.75-52.91s24.85-10.3,24.85-10.3Z"/><path class="cls-4" d="M100.74-62.75S117-1.22,118.24,1.61s-5.15,8.31,6,47.29c0,0-.7,5.15-1.71,7s-3.34,6.46-.41,8.08,12.42,9.69,16.46,10.4,11.62-2.83,11.62-2.83,4-1.51,2.77-2.77c0,0-3.68-.15-4.9-1.37s-14.94-12-14.94-12-4.24-5.46-4.24-5.83-3-48.3-3-48.3,1.11-3,0-9.19-.57-45-.57-45Z"/><path class="cls-3" d="M38.14,77.2s11.56-5,23.13-1.16a5.05,5.05,0,0,0-.86-2.83c-1-1.52-15.45-3.84-21.61,1.24C38.8,74.45,37.49,76.34,38.14,77.2Z"/><path class="cls-3" d="M135.93,73.35s.45-10.19,11.59-6.43l.3.25a3.62,3.62,0,0,0-1.1-2.34,12.78,12.78,0,0,0-3.66-1.55S132.85,60.77,133,71.62C133,71.62,134.59,73.86,135.93,73.35Z"/><path class="cls-5" d="M85-262.39a6.5,6.5,0,0,1,4.64,2.12,11.22,11.22,0,0,1,2.82-.37,10.25,10.25,0,0,1,7.62,3.46c8.37,3.14,5.05,8.19,4.85,8.47l.1,0s4.91,3.43,3.23,5.11c0,0,3,3.77.6,5.79a2.52,2.52,0,0,1-.87.44c6.88,10.73,11,29.66,8.28,45.27-.54,3.1-4.07,5.32-13.59,5.32h0a50.45,50.45,0,0,1-9.21-.82c.09.73.2,1.52.3,2.31h0c.48,3.4,1.18,7.27,1.93,7.84,4.86,3.64,12.1,5.15,16.17,5.74l5.89.55a15.14,15.14,0,0,1,1.31,1.49h.07c1.77,0,3.17,1.94,3.17,1.94L145.51-127l-20,36s6.73,11.31,3.36,16.43L133.47-70s.74,2.49-2.63,2.49a10.1,10.1,0,0,1-3.9-1.27,255,255,0,0,1,.93,26.35c-.33-.1-1.31-.23-2.71-.41l0,1.72h0c-.07,12,0,29.22.68,33.16,1.11,6.16,0,9.19,0,9.19s3,47.93,3,48.3,4.24,5.83,4.24,5.83,5.61,4.41,10,7.91h0a12.78,12.78,0,0,1,3.66,1.55,3.63,3.63,0,0,1,1.1,2.29c.29.2.77.52,1.32.92a14.31,14.31,0,0,0,3.79.71c.6.6,0,1.25-.78,1.77.44.47.7.88.63,1.14-.29,1-4.35,5.33-11.69,5.33-.42,0-.84,0-1.27,0-7.71-.5-18.4-8.71-19.28-11a6.82,6.82,0,0,1,.12-4.61,12.76,12.76,0,0,1,1.83-5.46c1-1.82,1.71-7,1.71-7-11.11-39-4.74-44.46-6-47.29-.81-1.9-8.47-30.43-13.38-48.86a12.9,12.9,0,0,1-2.53-1.5A79.84,79.84,0,0,1,89-43.46l-1.41,3.53L74.35-6.74S71.84,2.5,68.86,5.48a131.27,131.27,0,0,1-7.37,21.31c-5.05,11.31-7.27,26.86-7.27,26.86s3.62,9.19,4,14.92c4.26,5.83,8.08,13,3,15.14a29.1,29.1,0,0,1-11,1.94c-6.11,0-11.59-1.43-12.87-2.71-2.05-2,3.78-17.6,3.78-17.6.18-1.42.57-2.78,1.4-3.36A24.9,24.9,0,0,0,47,57.13s-.76-2,1.36-4.74,5.26-20.22,5.26-22.5S50.79,10.5,60.21,3.76c0,0,1.08-21.86,3.84-37.67h0c.3-1.79.63-3.5,1-5.1-2.89.24-4.62.27-4.62.27S75.53-81,80.43-95.33a2.65,2.65,0,0,1,1.3-3.91c.07-.22.12-.4.16-.54C83.1-104.22,71.69-126,71.69-126l-9.63-6-6.69,30.89-4.54-1.71-6-9.31L33.9-144.92l-.32-.1a10.38,10.38,0,0,1-4.54-3.8,35.84,35.84,0,0,1-4.27.25h-.48a.78.78,0,0,1-.43-.1.8.8,0,0,1-.25-.52,46,46,0,0,0-2.45-8.61,1.42,1.42,0,0,1-.14-.75c.1-.47.64-.68,1.12-.72a2.86,2.86,0,0,0,1.37-.28c.52-.36.68-1.16,1.28-1.35a.79.79,0,0,1,.3,0c.28,0,.57.09.84.09a1,1,0,0,0,.35-.06c.49-.2.6-.83.93-1.24a3.34,3.34,0,0,1,2.05-.81,14.59,14.59,0,0,0,3.61-1.45.35.35,0,0,0,.21-.18.34.34,0,0,0,0-.2c-.55-2.59-1.73-5.17-2.28-7.76a58.26,58.26,0,0,1-.94-7.4,4,4,0,0,1,2.05-2.49,1.2,1.2,0,0,1,.52-.15.52.52,0,0,1,.24,0c.29.13.39.49.46.8.62,2.88,2.32,10.19,2.94,13.07.39,1.85,3.72,6.44,4.43,7s.82,1.22,1.63,1.83a1.76,1.76,0,0,1,.55.57,1.9,1.9,0,0,1,.15.82l.12,4.87c0,1.9,0,4-1.33,5.38h0l8.73,20.8-.17-.59.23.46.26-21.8s6.79-6.09,7.67-7c.56-.56,4.74-3,7.62-4.67h0c3-3,9.48-5.39,9.48-5.39s6.16-7,7.47-8.28.71-5,.71-5l-3.37-13a25.36,25.36,0,0,1-8.31-7.91,3,3,0,0,1-2.2.88,7.73,7.73,0,0,1-3.93-1.49s-8.55-8.55-5.86-12.59a2.57,2.57,0,0,1,2.22-1.22c1.76,0,3.86,1.45,5.34,2.7-3-2.65-4.66-3-5.31-3H62l0,0,0,0-.06,0,0-.06c-.64-.32-3.5-1.89-3.75-4.55-4.83-1.52-3.9-4.21-3.9-4.21-4.64-3.16,0-8.24,0-8.24-2.07-2.07-.47-5.09-.47-5.09-2.42-3.43.61-7.67.61-7.67.34-3.7,5.89-5.89,5.89-5.89.44-1.85,2.73-2.73,2.73-2.73a4,4,0,0,1,3.73-2.3H67c2-4.35,9.56-4.77,12.38-4.77.68,0,1.08,0,1.08,0A7.5,7.5,0,0,1,85-262.39m38,159.08,12.47-22.47-11.85-17.63c.31,5.06.51,10.27.45,15.16a196.45,196.45,0,0,1-1.75,23.9,1.63,1.63,0,0,1,.68,1M147.52,66.92h0M85-266.19h0a10.74,10.74,0,0,0-5.72,1.73c-4.14,0-11,.72-14.5,5a7.64,7.64,0,0,0-4.53,3,8.4,8.4,0,0,0-2.94,2.79c-2.12,1.11-5.73,3.51-6.62,7.33-1.31,2.22-2.49,5.88-1.12,9.37a8.37,8.37,0,0,0,.11,4.59,9.73,9.73,0,0,0-1.32,5.82,7.65,7.65,0,0,0,2.06,4.39,6.24,6.24,0,0,0,.57,1.63,8.23,8.23,0,0,0,4,3.65,8.91,8.91,0,0,0,1.32,2.1c-1.37,3-.54,6.68,2.48,11.1a42,42,0,0,0,4.39,5.33l.18.18.22.16a11.23,11.23,0,0,0,6.21,2.25,6.55,6.55,0,0,0,.89-.05,31.92,31.92,0,0,0,6.31,5.66l2.95,11.35a7.5,7.5,0,0,1,0,1.82c-1.46,1.53-5.19,5.72-6.71,7.44-2,.82-6.63,2.86-9.54,5.54-7,4.05-7.59,4.63-8,5.05-.58.58-4.92,4.5-7.51,6.82l-1.24,1.12,0,1.66,0,3.79-.94-2.23a13.4,13.4,0,0,0,.87-5.85l-.13-4.88a5.36,5.36,0,0,0-.58-2.49,5.46,5.46,0,0,0-1.51-1.74l-.05-.07A7.06,7.06,0,0,0,43-164.59a24.68,24.68,0,0,1-3.2-4.93c-.32-1.47-.91-4-1.48-6.54s-1.15-5.07-1.45-6.49A4.65,4.65,0,0,0,34.27-186a4.33,4.33,0,0,0-1.84-.41,4.76,4.76,0,0,0-2.35.63,7.5,7.5,0,0,0-4,5.4c-.22,2,1,8.54,1,8.6a39,39,0,0,0,1.25,4.29c.09.26.17.52.25.77l-.09,0-.24.05a6.33,6.33,0,0,0-3.88,1.95,4.91,4.91,0,0,0-.76.17,4.8,4.8,0,0,0-2.2,1.51,4.8,4.8,0,0,0-4.11,3.67,5,5,0,0,0,.32,2.93,42.63,42.63,0,0,1,2.25,7.9,4.4,4.4,0,0,0,1.83,3,4.44,4.44,0,0,0,2.53.76h.53c.86,0,1.72,0,2.58-.08a14.45,14.45,0,0,0,3.47,2.71L41.23-111l.15.45.26.4,6,9.32.68,1,1.17.44L54-97.61,58.15-96l.93-4.31L64.62-126l4.18,2.62c.86,1.69,2.81,5.55,4.71,9.74,3.48,7.65,4.38,11,4.6,12.32a6.5,6.5,0,0,0-1.54,2.39,6.27,6.27,0,0,0-.15,3.58C71.19-80.1,57-40.44,56.83-40L55-34.85l5.4-.1c0,.11,0,.21-.05.32l-.12.55V-34c-2.29,13.4-3.4,30.46-3.71,35.88-8.4,7.59-7.19,22-6.77,26.87,0,.44.08,1,.08,1.14-.06,2.52-3.06,17.84-4.49,20.22A9.88,9.88,0,0,0,43.07,56a16.53,16.53,0,0,1-2.69,2.83c-1.55,1.09-2.51,2.9-2.92,5.53-.41,1.13-1.6,4.46-2.62,8C32.63,80,32.59,83.51,34.7,85.62c2.63,2.63,9.9,3.82,15.55,3.82a32.79,32.79,0,0,0,12.48-2.23,7.45,7.45,0,0,0,4.46-4.89c1-3.77-.62-8.6-5.25-15.14-.62-5-2.9-11.5-3.81-13.94.56-3.47,2.75-15.78,6.83-24.9A137.51,137.51,0,0,0,72.33,7.28c3-3.75,5.08-10.86,5.62-12.81l13.16-33,.74-1.86a84.14,84.14,0,0,0,9.89-3.85C112.16-5.16,114.09,1.25,114.6,2.7c0,.28-.11.75-.18,1.14-.77,4.6-2.55,15.32,5.91,45.31A24.08,24.08,0,0,1,119.17,54a16.27,16.27,0,0,0-2.28,6.62,10.37,10.37,0,0,0,.11,6.64c1.18,3.09,6.86,6.92,8.57,8,2.92,1.88,8.63,5.08,14,5.43.5,0,1,0,1.52,0,8.74,0,14.55-5.21,15.35-8.12a4.38,4.38,0,0,0,.13-1.52,4.65,4.65,0,0,0,.38-1.43,4.54,4.54,0,0,0-1.33-3.65l-1.05-1L153.09,65a12.61,12.61,0,0,1-2-.28,6.76,6.76,0,0,0-1.95-2.77,13.32,13.32,0,0,0-4.31-2.07c-3.58-2.86-7.79-6.18-9-7.17-1.22-1.57-2.57-3.36-3.22-4.29-.17-2.78-.77-12.44-2.93-46.74a25.39,25.39,0,0,0-.1-10.26c-.22-1.24-.72-6.59-.63-29.49l2.63.83.12-5c0-.49.22-10.43-.51-21.38a6.23,6.23,0,0,0,5.09-2.38,5.79,5.79,0,0,0,.86-5l-.28-.92-.68-.68-2.89-2.89c1.21-5.36-1.66-12-3.46-15.49l19-34.14,1.05-1.87-1.07-1.85-23.23-40.67-.1-.18-.11-.16a9.15,9.15,0,0,0-4.29-3.21c-.21-.23-.43-.46-.65-.68l-1-1-1.36-.13-5.8-.54c-3.42-.5-9.52-1.74-13.7-4.56a28.49,28.49,0,0,1-.68-3.14c1.56.13,3.14.19,4.75.19,3.93,0,15.87,0,17.34-8.46,2.51-14.48-.5-32.9-7.21-45.22,1.33-2.32.89-5.14-.4-7.53a5.4,5.4,0,0,0,0-.69,8.61,8.61,0,0,0-3-5.13,8,8,0,0,0-.25-3.8c-.88-2.81-3.2-5-6.89-6.58a14,14,0,0,0-9.82-4.06,14.35,14.35,0,0,0-1.73.11A10,10,0,0,0,85-266.19Zm42.53,146.84c.16-2.75.27-5.74.31-8.86,0-.67,0-1.36,0-2.06l3.14,4.68-3.46,6.24Z"/></g><path class="cls-6" d="M131.74,70.17H699.69a10,10,0,0,1,10,10V187a10,10,0,0,1-10,10H131.74a0,0,0,0,1,0,0V70.17A0,0,0,0,1,131.74,70.17Z"/><path class="cls-7" d="M229.24,90v.79l-1.55.11v11.9h-1.13l-7.85-11h-.06V101.9l1.55.12v.77H216V102l1.54-.12v-11L216,90.78V90h2.68l7.85,11h.06V90.89L225,90.78V90h4.23Z"/><path class="cls-7" d="M237.88,102.79c-.07-.32-.13-.6-.16-.83a5.81,5.81,0,0,1-.05-.72,4.38,4.38,0,0,1-1.52,1.24A4.52,4.52,0,0,1,234,103a3.42,3.42,0,0,1-2.33-.72,2.43,2.43,0,0,1-.83-2,2.38,2.38,0,0,1,1.22-2.09,6.25,6.25,0,0,1,3.32-.77h2.27V96.18a2,2,0,0,0-.7-1.6,3,3,0,0,0-2-.58,5.11,5.11,0,0,0-1.56.22,3.48,3.48,0,0,0-1.19.58l-.09,1.28h-.94V94.25a6,6,0,0,1,1.7-.83A7,7,0,0,1,235,93.1a4.37,4.37,0,0,1,2.74.8,2.74,2.74,0,0,1,1,2.3v4.67c0,.2,0,.38,0,.56a4.52,4.52,0,0,0,.06.53l1,.06v.77Zm-3.74-.75a4.39,4.39,0,0,0,2.18-.52,3.23,3.23,0,0,0,1.35-1.37v-1.9h-2.28a4.53,4.53,0,0,0-2.48.59,1.75,1.75,0,0,0-.92,1.5,1.51,1.51,0,0,0,.57,1.23A2.4,2.4,0,0,0,234.14,102Z"/><path class="cls-7" d="M245.94,94.06v-.78h2.5l.14,1.48a3.53,3.53,0,0,1,1.33-1.22,4,4,0,0,1,1.91-.44,3.44,3.44,0,0,1,2.89,1.37,5.83,5.83,0,0,1,1,3.64v.19a5.15,5.15,0,0,1-1,3.4,3.51,3.51,0,0,1-2.88,1.27,4.31,4.31,0,0,1-1.89-.38,3.32,3.32,0,0,1-1.32-1.08v4l1.54.11v.79h-4.22v-.79l1.55-.11V94.18Zm8.68,4a5.14,5.14,0,0,0-.78-3A2.59,2.59,0,0,0,251.56,94a2.94,2.94,0,0,0-2.94,1.82v4.57a3,3,0,0,0,1.12,1.23,3.46,3.46,0,0,0,1.84.45,2.64,2.64,0,0,0,2.26-1,4.46,4.46,0,0,0,.78-2.75Z"/><path class="cls-7" d="M264.7,102.79c-.08-.32-.13-.6-.17-.83a5.79,5.79,0,0,1,0-.72,4.48,4.48,0,0,1-1.52,1.24,4.59,4.59,0,0,1-2.14.49,3.44,3.44,0,0,1-2.33-.72,2.46,2.46,0,0,1-.83-2,2.37,2.37,0,0,1,1.23-2.09,6.2,6.2,0,0,1,3.32-.77h2.27V96.18a2,2,0,0,0-.71-1.6,3,3,0,0,0-2-.58,5.11,5.11,0,0,0-1.56.22,3.43,3.43,0,0,0-1.18.58l-.1,1.28H258V94.25a6,6,0,0,1,1.71-.83,6.9,6.9,0,0,1,2.11-.32,4.36,4.36,0,0,1,2.73.8,2.75,2.75,0,0,1,1,2.3v4.67c0,.2,0,.38,0,.56a4.52,4.52,0,0,0,.06.53l1,.06v.77ZM261,102a4.38,4.38,0,0,0,2.17-.52,3.26,3.26,0,0,0,1.36-1.37v-1.9H262.2a4.47,4.47,0,0,0-2.47.59,1.74,1.74,0,0,0-.93,1.5,1.49,1.49,0,0,0,.58,1.23A2.37,2.37,0,0,0,261,102Zm1.92-12.39h1.4l0,0L261.94,92h-1Z"/><path class="cls-7" d="M268.38,98.11a5.83,5.83,0,0,1,1.05-3.64,3.47,3.47,0,0,1,2.91-1.37,3.83,3.83,0,0,1,1.89.45,3.66,3.66,0,0,1,1.32,1.25l.14-1.52h.95v9.39a3.89,3.89,0,0,1-1.07,2.9,4,4,0,0,1-3,1.06,7.54,7.54,0,0,1-1.58-.17,6.45,6.45,0,0,1-1.46-.45l.3-.89a7,7,0,0,0,1.29.42,6.67,6.67,0,0,0,1.43.15,2.89,2.89,0,0,0,2.21-.8,3.15,3.15,0,0,0,.74-2.22v-1.21a3.48,3.48,0,0,1-1.32,1.12,4.25,4.25,0,0,1-1.87.39,3.54,3.54,0,0,1-2.9-1.27,5.23,5.23,0,0,1-1-3.4Zm1.14.19a4.56,4.56,0,0,0,.75,2.74,2.63,2.63,0,0,0,2.26,1,3.29,3.29,0,0,0,1.84-.47,3.08,3.08,0,0,0,1.14-1.28V95.9a3.42,3.42,0,0,0-1.1-1.36,3,3,0,0,0-1.87-.52,2.54,2.54,0,0,0-2.26,1.14,5.21,5.21,0,0,0-.76,3Z"/><path class="cls-7" d="M279.15,102l1.55-.12V94.18l-1.55-.12v-.78h2.68v8.62l1.54.12v.77h-4.22Zm2.68-11.46H280.7V89.08h1.13Z"/><path class="cls-7" d="M285.07,102l1.55-.12V94.18l-1.55-.12v-.78h2.56l.1,1.66a3.55,3.55,0,0,1,1.33-1.36,4,4,0,0,1,2-.48,3.31,3.31,0,0,1,2.55,1,4.24,4.24,0,0,1,.87,3v4.9L296,102v.77h-4.24V102l1.55-.12V97a3.25,3.25,0,0,0-.66-2.31A2.46,2.46,0,0,0,290.8,94a3.08,3.08,0,0,0-1.95.58,3.21,3.21,0,0,0-1.09,1.55v5.75l1.55.12v.77h-4.24Z"/><path class="cls-7" d="M304.89,102.79a7.38,7.38,0,0,1-.16-.83,5.81,5.81,0,0,1-.05-.72,4.38,4.38,0,0,1-1.52,1.24A4.52,4.52,0,0,1,301,103a3.45,3.45,0,0,1-2.34-.72,2.45,2.45,0,0,1-.82-2,2.38,2.38,0,0,1,1.22-2.09,6.23,6.23,0,0,1,3.32-.77h2.27V96.18a1.94,1.94,0,0,0-.71-1.6,3,3,0,0,0-2-.58,5.23,5.23,0,0,0-1.57.22,3.52,3.52,0,0,0-1.18.58l-.09,1.28h-.94V94.25a6,6,0,0,1,1.7-.83A7,7,0,0,1,302,93.1a4.37,4.37,0,0,1,2.74.8,2.74,2.74,0,0,1,1,2.3v4.67c0,.2,0,.38,0,.56a4.51,4.51,0,0,0,.07.53l1,.06v.77Zm-3.74-.75a4.36,4.36,0,0,0,2.17-.52,3.26,3.26,0,0,0,1.36-1.37v-1.9h-2.29a4.49,4.49,0,0,0-2.47.59,1.73,1.73,0,0,0-.92,1.5,1.51,1.51,0,0,0,.57,1.23A2.38,2.38,0,0,0,301.15,102Z"/><path class="cls-7" d="M320.7,96.22h-.93l-.13-1.35a2.87,2.87,0,0,0-1.08-.64,4.53,4.53,0,0,0-1.49-.23,3,3,0,0,0-1.87.5,1.47,1.47,0,0,0-.62,1.16,1.34,1.34,0,0,0,.54,1.09,5.4,5.4,0,0,0,2.14.76,7.23,7.23,0,0,1,2.74,1,2.08,2.08,0,0,1,.91,1.78,2.24,2.24,0,0,1-1,1.92,4.66,4.66,0,0,1-2.75.73,6.73,6.73,0,0,1-2.07-.29,5.16,5.16,0,0,1-1.62-.83V99.93h.92l.16,1.36a2.8,2.8,0,0,0,1.16.61,5.76,5.76,0,0,0,1.45.19,3.35,3.35,0,0,0,1.95-.5,1.48,1.48,0,0,0,.71-1.22,1.53,1.53,0,0,0-.59-1.17,5.11,5.11,0,0,0-2.14-.81,7.77,7.77,0,0,1-2.72-1,2,2,0,0,1-.89-1.71,2.22,2.22,0,0,1,1-1.84,4.19,4.19,0,0,1,2.63-.76,6.4,6.4,0,0,1,2.06.32,4.28,4.28,0,0,1,1.52.87Z"/><path class="cls-7" d="M327.51,103a4.27,4.27,0,0,1-3.21-1.31A4.59,4.59,0,0,1,323,98.32v-.49a4.72,4.72,0,0,1,1.27-3.38,4,4,0,0,1,3.06-1.35,4,4,0,0,1,3,1.11,4.05,4.05,0,0,1,1.08,3v.89h-7.25v.26a4,4,0,0,0,.92,2.68,3,3,0,0,0,2.43,1.09,5.08,5.08,0,0,0,1.8-.28,3.53,3.53,0,0,0,1.28-.78l.49.72a4.3,4.3,0,0,1-1.47.9A6.23,6.23,0,0,1,327.51,103Zm-.15-9a2.85,2.85,0,0,0-2.12.89,3.74,3.74,0,0,0-1,2.24l0,0h6v-.26a2.86,2.86,0,0,0-.79-2.07A2.78,2.78,0,0,0,327.36,94Z"/><path class="cls-7" d="M333.49,98.11a5.83,5.83,0,0,1,1.05-3.64,3.46,3.46,0,0,1,2.91-1.37,3.83,3.83,0,0,1,1.89.45,3.59,3.59,0,0,1,1.32,1.25l.14-1.52h.95v9.39a3.89,3.89,0,0,1-1.07,2.9,4,4,0,0,1-3,1.06,7.54,7.54,0,0,1-1.58-.17,6.45,6.45,0,0,1-1.46-.45l.3-.89a7,7,0,0,0,1.29.42,6.67,6.67,0,0,0,1.43.15,2.85,2.85,0,0,0,2.2-.8,3.11,3.11,0,0,0,.75-2.22v-1.21a3.48,3.48,0,0,1-1.32,1.12,4.25,4.25,0,0,1-1.87.39,3.54,3.54,0,0,1-2.9-1.27,5.23,5.23,0,0,1-1-3.4Zm1.14.19a4.56,4.56,0,0,0,.75,2.74,2.63,2.63,0,0,0,2.26,1,3.29,3.29,0,0,0,1.84-.47,3.08,3.08,0,0,0,1.14-1.28V95.9a3.42,3.42,0,0,0-1.1-1.36,3,3,0,0,0-1.87-.52,2.54,2.54,0,0,0-2.26,1.14,5.21,5.21,0,0,0-.76,3Z"/><path class="cls-7" d="M351.88,101.23a3.41,3.41,0,0,1-1.32,1.29,4.13,4.13,0,0,1-2,.45,3.27,3.27,0,0,1-2.54-1,4.65,4.65,0,0,1-.92-3.17V94.18l-1.27-.12v-.78h2.4v5.53a3.88,3.88,0,0,0,.64,2.49,2.25,2.25,0,0,0,1.82.76,3.59,3.59,0,0,0,2.06-.53,2.76,2.76,0,0,0,1.07-1.46V94.18l-1.46-.12v-.78H353v8.62l1.38.12v.77H352Z"/><path class="cls-7" d="M356,102l1.55-.12V94.18L356,94.06v-.78h2.68v8.62l1.55.12v.77H356Zm2.68-11.46H357.5V89.08h1.13Z"/><path class="cls-7" d="M361.88,102l1.54-.12V94.18l-1.54-.12v-.78h2.55l.1,1.66a3.57,3.57,0,0,1,1.34-1.36,3.94,3.94,0,0,1,2-.48,3.29,3.29,0,0,1,2.54,1,4.24,4.24,0,0,1,.87,3v4.9l1.55.12v.77h-4.23V102l1.54-.12V97a3.25,3.25,0,0,0-.66-2.31A2.46,2.46,0,0,0,367.6,94a3.08,3.08,0,0,0-2,.58,3.28,3.28,0,0,0-1.09,1.55v5.75l1.55.12v.77h-4.23Z"/><path class="cls-7" d="M377.21,90.85v2.43h2.26v.86h-2.26v6.2a1.93,1.93,0,0,0,.37,1.32,1.27,1.27,0,0,0,1,.39l.54,0,.6-.07.17.78a3.48,3.48,0,0,1-.69.17,5.66,5.66,0,0,1-.82.06,2.21,2.21,0,0,1-1.68-.63,2.83,2.83,0,0,1-.6-2v-6.2H374.3v-.86h1.77V90.85Z"/><path class="cls-7" d="M386.09,103a4.27,4.27,0,0,1-3.21-1.31,4.59,4.59,0,0,1-1.27-3.34v-.49a4.72,4.72,0,0,1,1.27-3.38,4,4,0,0,1,3.06-1.35,4,4,0,0,1,3,1.11,4.05,4.05,0,0,1,1.08,3v.89h-7.25v.26a4,4,0,0,0,.92,2.68,3,3,0,0,0,2.43,1.09,5.08,5.08,0,0,0,1.8-.28,3.53,3.53,0,0,0,1.28-.78l.49.72a4.35,4.35,0,0,1-1.46.9A6.33,6.33,0,0,1,386.09,103Zm-.15-9a2.85,2.85,0,0,0-2.12.89,3.74,3.74,0,0,0-1,2.24l0,0h6v-.26a2.86,2.86,0,0,0-.79-2.07A2.78,2.78,0,0,0,385.94,94Z"/><path class="cls-7" d="M393.67,102.37a3.86,3.86,0,0,1-1.33,2.89l-.67-.46a4.24,4.24,0,0,0,.66-1.15,3.62,3.62,0,0,0,.21-1.26v-1.25h1.13Z"/><path class="cls-7" d="M403.45,94.06l-1.28.09,2.56,6.26.33,1.11h.06l.36-1.11L408,94.15l-1.28-.09v-.78h3.46v.78l-1,.08-3.63,8.65h-.91L401,94.14l-1-.08v-.78h3.46Z"/><path class="cls-7" d="M418.38,102.79a7.38,7.38,0,0,1-.16-.83,4.36,4.36,0,0,1-.05-.72,4.48,4.48,0,0,1-1.52,1.24,4.56,4.56,0,0,1-2.14.49,3.44,3.44,0,0,1-2.33-.72,2.46,2.46,0,0,1-.83-2,2.37,2.37,0,0,1,1.23-2.09,6.2,6.2,0,0,1,3.32-.77h2.27V96.18a2,2,0,0,0-.71-1.6,3,3,0,0,0-2-.58,5.11,5.11,0,0,0-1.56.22,3.52,3.52,0,0,0-1.18.58l-.1,1.28h-.94V94.25a6.18,6.18,0,0,1,1.71-.83,6.9,6.9,0,0,1,2.11-.32,4.36,4.36,0,0,1,2.73.8,2.75,2.75,0,0,1,1,2.3v4.67c0,.2,0,.38,0,.56a4.52,4.52,0,0,0,.06.53l1,.06v.77Zm-3.74-.75a4.38,4.38,0,0,0,2.17-.52,3.26,3.26,0,0,0,1.36-1.37v-1.9h-2.29a4.49,4.49,0,0,0-2.47.59,1.74,1.74,0,0,0-.93,1.5,1.49,1.49,0,0,0,.58,1.23A2.38,2.38,0,0,0,414.64,102Z"/><path class="cls-7" d="M421.76,94.06v-.78h2.56l.1,1.57a3.55,3.55,0,0,1,1.32-1.29,4.07,4.07,0,0,1,2-.46,3.38,3.38,0,0,1,2,.54,2.89,2.89,0,0,1,1.13,1.62,3.55,3.55,0,0,1,3.42-2.16,3.21,3.21,0,0,1,2.54,1,4.63,4.63,0,0,1,.89,3.12v4.65l1.55.13v.77H435V102l1.54-.13V97.23a3.64,3.64,0,0,0-.67-2.49A2.4,2.4,0,0,0,434,94a2.65,2.65,0,0,0-2.05.78,3.64,3.64,0,0,0-.88,2v.13a.71.71,0,0,1,0,.16v4.81l1.54.12v.77h-4.23V102l1.55-.12V97.23a3.65,3.65,0,0,0-.68-2.47,2.42,2.42,0,0,0-1.87-.74,2.76,2.76,0,0,0-2.91,2.09v5.79L426,102v.77h-4.24V102l1.55-.12V94.18Z"/><path class="cls-7" d="M440.51,97.89a4.86,4.86,0,0,1,1.24-3.44,4.71,4.71,0,0,1,6.6,0,4.86,4.86,0,0,1,1.24,3.44v.29a4.89,4.89,0,0,1-1.23,3.45,4.75,4.75,0,0,1-6.61,0,4.85,4.85,0,0,1-1.24-3.45Zm1.14.29a4.3,4.3,0,0,0,.9,2.78,3,3,0,0,0,2.52,1.13,3,3,0,0,0,2.48-1.13,4.3,4.3,0,0,0,.9-2.78v-.29a4.32,4.32,0,0,0-.9-2.76,3.33,3.33,0,0,0-5,0,4.32,4.32,0,0,0-.9,2.76Z"/><path class="cls-7" d="M458.89,96.22H458l-.13-1.35a2.87,2.87,0,0,0-1.08-.64,4.53,4.53,0,0,0-1.49-.23,3,3,0,0,0-1.87.5,1.47,1.47,0,0,0-.62,1.16,1.34,1.34,0,0,0,.54,1.09,5.47,5.47,0,0,0,2.14.76,7.23,7.23,0,0,1,2.74,1,2.08,2.08,0,0,1,.91,1.78,2.24,2.24,0,0,1-1,1.92,4.65,4.65,0,0,1-2.74.73,6.84,6.84,0,0,1-2.08-.29,5.16,5.16,0,0,1-1.62-.83V99.93h.92l.17,1.36a2.7,2.7,0,0,0,1.15.61,5.78,5.78,0,0,0,1.46.19,3.34,3.34,0,0,0,1.94-.5,1.45,1.45,0,0,0,.71-1.22,1.5,1.5,0,0,0-.59-1.17,5,5,0,0,0-2.14-.81,7.77,7.77,0,0,1-2.72-1,2,2,0,0,1-.89-1.71,2.25,2.25,0,0,1,1-1.84,4.19,4.19,0,0,1,2.63-.76,6.4,6.4,0,0,1,2.06.32,4.42,4.42,0,0,1,1.53.87Z"/><path class="cls-7" d="M468.51,90.85v2.43h2.26v.86h-2.26v6.2a1.93,1.93,0,0,0,.36,1.32,1.29,1.29,0,0,0,1,.39l.53,0c.18,0,.38,0,.61-.07l.17.78a3.42,3.42,0,0,1-.7.17,5.52,5.52,0,0,1-.81.06,2.23,2.23,0,0,1-1.69-.63,2.83,2.83,0,0,1-.6-2v-6.2H465.6v-.86h1.76V90.85Z"/><path class="cls-7" d="M477.38,103a4.23,4.23,0,0,1-3.2-1.31,4.59,4.59,0,0,1-1.28-3.34v-.49a4.76,4.76,0,0,1,1.27-3.38,4.06,4.06,0,0,1,3.06-1.35,4,4,0,0,1,3,1.11,4.05,4.05,0,0,1,1.08,3v.89H474v.26A4,4,0,0,0,475,101a3,3,0,0,0,2.42,1.09,5.1,5.1,0,0,0,1.81-.28,3.61,3.61,0,0,0,1.28-.78l.48.72a4.16,4.16,0,0,1-1.46.9A6.29,6.29,0,0,1,477.38,103Zm-.15-9a2.83,2.83,0,0,0-2.11.89,3.68,3.68,0,0,0-1,2.24l0,0h6v-.26a2.89,2.89,0,0,0-.78-2.07A2.8,2.8,0,0,0,477.23,94Z"/><path class="cls-7" d="M490.77,96.22h-.93l-.14-1.35a2.91,2.91,0,0,0-1.07-.64,4.63,4.63,0,0,0-1.5-.23,2.93,2.93,0,0,0-1.86.5,1.45,1.45,0,0,0-.63,1.16,1.34,1.34,0,0,0,.54,1.09,5.47,5.47,0,0,0,2.14.76,7.16,7.16,0,0,1,2.74,1,2.08,2.08,0,0,1,.91,1.78,2.25,2.25,0,0,1-1,1.92,4.68,4.68,0,0,1-2.75.73,6.84,6.84,0,0,1-2.08-.29,5.16,5.16,0,0,1-1.62-.83V99.93h.93l.16,1.36a2.76,2.76,0,0,0,1.15.61,5.84,5.84,0,0,0,1.46.19,3.34,3.34,0,0,0,1.94-.5,1.45,1.45,0,0,0,.71-1.22,1.5,1.5,0,0,0-.59-1.17,5,5,0,0,0-2.14-.81,7.77,7.77,0,0,1-2.72-1,2,2,0,0,1-.89-1.71,2.25,2.25,0,0,1,1-1.84,4.21,4.21,0,0,1,2.63-.76,6.51,6.51,0,0,1,2.07.32,4.37,4.37,0,0,1,1.52.87Z"/><path class="cls-7" d="M495.65,90.85v2.43h2.26v.86h-2.26v6.2a1.93,1.93,0,0,0,.37,1.32,1.27,1.27,0,0,0,1,.39l.54,0,.6-.07.17.78a3.48,3.48,0,0,1-.69.17,5.66,5.66,0,0,1-.82.06,2.21,2.21,0,0,1-1.68-.63,2.83,2.83,0,0,1-.61-2v-6.2h-1.76v-.86h1.76V90.85Z"/><path class="cls-7" d="M507.09,102.79a7.38,7.38,0,0,1-.16-.83,5.81,5.81,0,0,1-.05-.72,4.38,4.38,0,0,1-1.52,1.24,4.52,4.52,0,0,1-2.13.49,3.45,3.45,0,0,1-2.34-.72,2.45,2.45,0,0,1-.82-2,2.38,2.38,0,0,1,1.22-2.09,6.23,6.23,0,0,1,3.32-.77h2.27V96.18a1.94,1.94,0,0,0-.71-1.6,3,3,0,0,0-2-.58,5.23,5.23,0,0,0-1.57.22,3.52,3.52,0,0,0-1.18.58l-.09,1.28h-.94V94.25a6,6,0,0,1,1.7-.83,7,7,0,0,1,2.11-.32,4.37,4.37,0,0,1,2.74.8,2.74,2.74,0,0,1,1,2.3v4.67c0,.2,0,.38,0,.56a3.07,3.07,0,0,0,.06.53l1,.06v.77Zm-3.74-.75a4.36,4.36,0,0,0,2.17-.52,3.26,3.26,0,0,0,1.36-1.37v-1.9h-2.29a4.49,4.49,0,0,0-2.47.59,1.73,1.73,0,0,0-.92,1.5,1.51,1.51,0,0,0,.57,1.23A2.38,2.38,0,0,0,503.35,102Z"/><path class="cls-7" d="M513.18,93.28l.15,1.58V95a3.35,3.35,0,0,1,1.19-1.38,3.19,3.19,0,0,1,1.79-.5,3,3,0,0,1,.42,0l.34.06-.16,1-.84-.06a2.71,2.71,0,0,0-1.76.56,3,3,0,0,0-1,1.53v5.68l1.54.12v.77h-4.22V102l1.55-.12V94.18l-1.55-.12v-.78h2.53Z"/><path class="cls-7" d="M523.05,102l1.55-.12V94.18l-1.55-.12v-.78h2.56l.1,1.66a3.57,3.57,0,0,1,1.34-1.36,3.92,3.92,0,0,1,2-.48,3.31,3.31,0,0,1,2.55,1,4.24,4.24,0,0,1,.87,3v4.9L534,102v.77h-4.24V102l1.55-.12V97a3.25,3.25,0,0,0-.66-2.31,2.46,2.46,0,0,0-1.87-.68,3.08,3.08,0,0,0-1.95.58,3.21,3.21,0,0,0-1.09,1.55v5.75l1.55.12v.77h-4.24Z"/><path class="cls-7" d="M535.69,97.89a4.86,4.86,0,0,1,1.24-3.44,4.71,4.71,0,0,1,6.6,0,4.86,4.86,0,0,1,1.24,3.44v.29a4.85,4.85,0,0,1-1.24,3.45,4.23,4.23,0,0,1-3.29,1.34,4.27,4.27,0,0,1-3.31-1.34,4.85,4.85,0,0,1-1.24-3.45Zm1.14.29a4.3,4.3,0,0,0,.9,2.78,3.33,3.33,0,0,0,5,0,4.3,4.3,0,0,0,.9-2.78v-.29a4.27,4.27,0,0,0-.91-2.76,3.32,3.32,0,0,0-5,0,4.32,4.32,0,0,0-.9,2.76Z"/><path class="cls-7" d="M554.07,96.22h-.93L553,94.87a3,3,0,0,0-1.08-.64,4.53,4.53,0,0,0-1.49-.23,3,3,0,0,0-1.87.5,1.47,1.47,0,0,0-.62,1.16,1.34,1.34,0,0,0,.54,1.09,5.4,5.4,0,0,0,2.14.76,7.23,7.23,0,0,1,2.74,1,2.08,2.08,0,0,1,.91,1.78,2.26,2.26,0,0,1-1,1.92,4.66,4.66,0,0,1-2.75.73,6.73,6.73,0,0,1-2.07-.29,5.16,5.16,0,0,1-1.62-.83V99.93h.92l.16,1.36a2.8,2.8,0,0,0,1.16.61,5.76,5.76,0,0,0,1.45.19,3.37,3.37,0,0,0,2-.5,1.48,1.48,0,0,0,.71-1.22,1.53,1.53,0,0,0-.59-1.17,5.11,5.11,0,0,0-2.14-.81,7.77,7.77,0,0,1-2.72-1,2,2,0,0,1-.89-1.71,2.22,2.22,0,0,1,1-1.84,4.19,4.19,0,0,1,2.63-.76,6.4,6.4,0,0,1,2.06.32,4.37,4.37,0,0,1,1.52.87Z"/><path class="cls-7" d="M563.8,96.22h-.93l-.13-1.35a3,3,0,0,0-1.08-.64,4.55,4.55,0,0,0-1.5-.23,3,3,0,0,0-1.86.5,1.47,1.47,0,0,0-.62,1.16,1.36,1.36,0,0,0,.53,1.09,5.47,5.47,0,0,0,2.14.76,7.22,7.22,0,0,1,2.75,1,2.1,2.1,0,0,1,.91,1.78,2.26,2.26,0,0,1-1,1.92,4.66,4.66,0,0,1-2.75.73,6.73,6.73,0,0,1-2.07-.29,5.06,5.06,0,0,1-1.62-.83V99.93h.92l.16,1.36a2.76,2.76,0,0,0,1.15.61,5.9,5.9,0,0,0,1.46.19,3.39,3.39,0,0,0,1.95-.5,1.48,1.48,0,0,0,.71-1.22,1.53,1.53,0,0,0-.59-1.17,5.11,5.11,0,0,0-2.14-.81,7.69,7.69,0,0,1-2.72-1,2,2,0,0,1-.89-1.71,2.22,2.22,0,0,1,1-1.84,4.18,4.18,0,0,1,2.62-.76,6.42,6.42,0,0,1,2.07.32,4.37,4.37,0,0,1,1.52.87Z"/><path class="cls-7" d="M566.08,97.89a4.86,4.86,0,0,1,1.24-3.44,4.71,4.71,0,0,1,6.6,0,4.86,4.86,0,0,1,1.24,3.44v.29a4.85,4.85,0,0,1-1.24,3.45,4.23,4.23,0,0,1-3.29,1.34,4.27,4.27,0,0,1-3.31-1.34,4.85,4.85,0,0,1-1.24-3.45Zm1.14.29a4.3,4.3,0,0,0,.9,2.78,3.33,3.33,0,0,0,5,0,4.3,4.3,0,0,0,.9-2.78v-.29a4.27,4.27,0,0,0-.91-2.76,3.32,3.32,0,0,0-5,0,4.32,4.32,0,0,0-.9,2.76Z"/><path class="cls-7" d="M584.46,96.22h-.93l-.13-1.35a3,3,0,0,0-1.08-.64,4.53,4.53,0,0,0-1.49-.23,3,3,0,0,0-1.87.5,1.47,1.47,0,0,0-.62,1.16,1.34,1.34,0,0,0,.54,1.09,5.4,5.4,0,0,0,2.14.76,7.23,7.23,0,0,1,2.74,1,2.08,2.08,0,0,1,.91,1.78,2.26,2.26,0,0,1-1,1.92,4.66,4.66,0,0,1-2.75.73,6.73,6.73,0,0,1-2.07-.29,5.16,5.16,0,0,1-1.62-.83V99.93h.92l.16,1.36a2.8,2.8,0,0,0,1.16.61,5.76,5.76,0,0,0,1.45.19,3.35,3.35,0,0,0,2-.5,1.48,1.48,0,0,0,.71-1.22A1.53,1.53,0,0,0,583,99.2a5.11,5.11,0,0,0-2.14-.81,7.77,7.77,0,0,1-2.72-1,2,2,0,0,1-.89-1.71,2.22,2.22,0,0,1,1-1.84,4.19,4.19,0,0,1,2.63-.76,6.4,6.4,0,0,1,2.06.32,4.37,4.37,0,0,1,1.52.87Z"/><path class="cls-7" d="M220.6,123.69a3.39,3.39,0,0,0,2-.6,1.9,1.9,0,0,0,.87-1.66h1l0,0a2.58,2.58,0,0,1-1.13,2.21,4.47,4.47,0,0,1-2.75.88,4.05,4.05,0,0,1-3.24-1.33,5.09,5.09,0,0,1-1.15-3.42v-.37a5.08,5.08,0,0,1,1.15-3.41,4,4,0,0,1,3.23-1.34,5.45,5.45,0,0,1,2.17.42,4.23,4.23,0,0,1,1.61,1.12l0,2.08h-1l-.18-1.69a3.24,3.24,0,0,0-1.14-.75,4,4,0,0,0-1.54-.28,2.82,2.82,0,0,0-2.44,1.09,4.58,4.58,0,0,0-.8,2.76v.37a4.69,4.69,0,0,0,.79,2.78A2.86,2.86,0,0,0,220.6,123.69Z"/><path class="cls-7" d="M226.6,119.49a4.86,4.86,0,0,1,1.24-3.44,4.71,4.71,0,0,1,6.6,0,4.86,4.86,0,0,1,1.24,3.44v.29a4.85,4.85,0,0,1-1.24,3.45,4.23,4.23,0,0,1-3.29,1.34,4.27,4.27,0,0,1-3.31-1.34,4.85,4.85,0,0,1-1.24-3.45Zm1.14.29a4.3,4.3,0,0,0,.9,2.78,3.33,3.33,0,0,0,5,0,4.3,4.3,0,0,0,.9-2.78v-.29a4.32,4.32,0,0,0-.9-2.76,3.06,3.06,0,0,0-2.51-1.13,3,3,0,0,0-2.49,1.13,4.32,4.32,0,0,0-.9,2.76Z"/><path class="cls-7" d="M237.32,123.62l1.55-.12v-7.72l-1.55-.12v-.78h2.56l.1,1.66a3.55,3.55,0,0,1,1.33-1.36,4,4,0,0,1,2-.48,3.31,3.31,0,0,1,2.55,1,4.24,4.24,0,0,1,.87,2.95v4.9l1.55.12v.77H244v-.77l1.55-.12v-4.89a3.3,3.3,0,0,0-.66-2.32,2.49,2.49,0,0,0-1.87-.67,3.08,3.08,0,0,0-2,.58,3.21,3.21,0,0,0-1.09,1.55v5.75l1.55.12v.77h-4.24Z"/><path class="cls-7" d="M249.72,111.46v-.78h2.68v5.83a3.62,3.62,0,0,1,1.36-1.33,4,4,0,0,1,2-.48,3.22,3.22,0,0,1,2.5.94,4.16,4.16,0,0,1,.86,2.89v5l1.55.12v.77h-4.23v-.77l1.55-.12v-5a3.1,3.1,0,0,0-.66-2.22,2.43,2.43,0,0,0-1.82-.67,3.28,3.28,0,0,0-1.95.56,3.33,3.33,0,0,0-1.15,1.51v5.81l1.54.12v.77h-4.22v-.77l1.55-.12V111.58Z"/><path class="cls-7" d="M266.8,124.57a4.27,4.27,0,0,1-3.21-1.31,4.64,4.64,0,0,1-1.27-3.34v-.49a4.76,4.76,0,0,1,1.27-3.38,4,4,0,0,1,3.06-1.35,4,4,0,0,1,3,1.11,4,4,0,0,1,1.08,3v.9h-7.25v.26a4,4,0,0,0,.93,2.68,3,3,0,0,0,2.42,1.09,5.1,5.1,0,0,0,1.81-.28,3.61,3.61,0,0,0,1.28-.78l.48.72a4.16,4.16,0,0,1-1.46.9A6.29,6.29,0,0,1,266.8,124.57Zm-.15-9a2.83,2.83,0,0,0-2.11.89,3.68,3.68,0,0,0-1,2.24l0,0h6v-.26a2.89,2.89,0,0,0-.78-2.07A2.8,2.8,0,0,0,266.65,115.6Z"/><path class="cls-7" d="M277.12,123.69a3.39,3.39,0,0,0,2-.6,1.9,1.9,0,0,0,.87-1.66h1l0,0a2.55,2.55,0,0,1-1.13,2.21,4.47,4.47,0,0,1-2.75.88,4.05,4.05,0,0,1-3.24-1.33,5.08,5.08,0,0,1-1.14-3.42v-.37a5.07,5.07,0,0,1,1.14-3.41,4,4,0,0,1,3.23-1.34,5.45,5.45,0,0,1,2.17.42,4.23,4.23,0,0,1,1.61,1.12l.05,2.08h-1l-.18-1.69a3.15,3.15,0,0,0-1.14-.75,3.92,3.92,0,0,0-1.54-.28,2.83,2.83,0,0,0-2.44,1.09,4.58,4.58,0,0,0-.8,2.76v.37a4.69,4.69,0,0,0,.79,2.78A2.86,2.86,0,0,0,277.12,123.69Z"/><path class="cls-7" d="M283,123.62l1.55-.12v-7.72l-1.55-.12v-.78h2.68v8.62l1.55.12v.77H283Zm2.68-11.46h-1.13v-1.48h1.13Z"/><path class="cls-7" d="M288.93,115.66v-.78h2.55l.1,1.57a3.55,3.55,0,0,1,1.32-1.29,4.07,4.07,0,0,1,2-.46,3.38,3.38,0,0,1,2,.54,2.84,2.84,0,0,1,1.13,1.62,3.58,3.58,0,0,1,3.42-2.16,3.24,3.24,0,0,1,2.54,1,4.62,4.62,0,0,1,.9,3.13v4.65l1.54.13v.77h-4.24v-.77l1.55-.13v-4.66a3.69,3.69,0,0,0-.67-2.49,2.43,2.43,0,0,0-1.87-.72,2.64,2.64,0,0,0-2,.78,3.58,3.58,0,0,0-.89,2v.13a.71.71,0,0,1,0,.16v4.81l1.55.12v.77h-4.24v-.77l1.55-.12v-4.67a3.65,3.65,0,0,0-.68-2.47,2.4,2.4,0,0,0-1.86-.74,3.08,3.08,0,0,0-1.93.56,3,3,0,0,0-1,1.53v5.79l1.55.12v.77h-4.23v-.77l1.54-.12v-7.72Z"/><path class="cls-7" d="M312.2,124.57a4.27,4.27,0,0,1-3.21-1.31,4.6,4.6,0,0,1-1.27-3.34v-.49a4.72,4.72,0,0,1,1.27-3.38,4,4,0,0,1,3.06-1.35,4,4,0,0,1,3,1.11,4,4,0,0,1,1.08,3v.9h-7.25v.26a4,4,0,0,0,.92,2.68,3,3,0,0,0,2.43,1.09,5.08,5.08,0,0,0,1.8-.28,3.53,3.53,0,0,0,1.28-.78l.49.72a4.35,4.35,0,0,1-1.46.9A6.29,6.29,0,0,1,312.2,124.57Zm-.15-9a2.82,2.82,0,0,0-2.11.89,3.69,3.69,0,0,0-1,2.24l0,0h6v-.26a2.86,2.86,0,0,0-.79-2.07A2.76,2.76,0,0,0,312.05,115.6Z"/><path class="cls-7" d="M317.92,123.62l1.55-.12v-7.72l-1.55-.12v-.78h2.56l.1,1.66a3.55,3.55,0,0,1,1.33-1.36,4,4,0,0,1,2-.48,3.31,3.31,0,0,1,2.55,1,4.24,4.24,0,0,1,.87,2.95v4.9l1.55.12v.77h-4.24v-.77l1.55-.12v-4.89a3.3,3.3,0,0,0-.66-2.32,2.49,2.49,0,0,0-1.87-.67,3.08,3.08,0,0,0-1.95.58,3.21,3.21,0,0,0-1.09,1.55v5.75l1.54.12v.77h-4.23Z"/><path class="cls-7" d="M333.26,112.45v2.43h2.26v.86h-2.26v6.2a1.88,1.88,0,0,0,.37,1.32,1.25,1.25,0,0,0,1,.39l.53,0a5.41,5.41,0,0,0,.61-.08l.17.79a3.48,3.48,0,0,1-.69.17,5.76,5.76,0,0,1-.82.06,2.25,2.25,0,0,1-1.69-.63,2.83,2.83,0,0,1-.6-2v-6.2h-1.76v-.86h1.76v-2.43Z"/><path class="cls-7" d="M337.42,119.49a4.86,4.86,0,0,1,1.24-3.44,4.71,4.71,0,0,1,6.6,0,4.86,4.86,0,0,1,1.24,3.44v.29a4.85,4.85,0,0,1-1.24,3.45,4.23,4.23,0,0,1-3.29,1.34,4.27,4.27,0,0,1-3.31-1.34,4.85,4.85,0,0,1-1.24-3.45Zm1.14.29a4.3,4.3,0,0,0,.9,2.78,3.33,3.33,0,0,0,5,0,4.3,4.3,0,0,0,.9-2.78v-.29a4.27,4.27,0,0,0-.91-2.76,3.32,3.32,0,0,0-5,0,4.32,4.32,0,0,0-.9,2.76Z"/><path class="cls-7" d="M355.8,117.82h-.93l-.13-1.35a3,3,0,0,0-1.08-.64,4.53,4.53,0,0,0-1.49-.23,3,3,0,0,0-1.87.5,1.47,1.47,0,0,0-.62,1.16,1.34,1.34,0,0,0,.54,1.09,5.4,5.4,0,0,0,2.14.76,7.23,7.23,0,0,1,2.74,1,2.08,2.08,0,0,1,.91,1.78,2.26,2.26,0,0,1-1,1.92,4.66,4.66,0,0,1-2.75.73,6.73,6.73,0,0,1-2.07-.29,5.16,5.16,0,0,1-1.62-.83v-1.92h.92l.16,1.36a2.8,2.8,0,0,0,1.16.61,5.76,5.76,0,0,0,1.45.19,3.35,3.35,0,0,0,1.95-.5,1.48,1.48,0,0,0,.71-1.22,1.53,1.53,0,0,0-.59-1.17,5.11,5.11,0,0,0-2.14-.81,7.77,7.77,0,0,1-2.72-1,2,2,0,0,1-.89-1.71,2.22,2.22,0,0,1,1-1.84,4.19,4.19,0,0,1,2.63-.76,6.4,6.4,0,0,1,2.06.32,4.42,4.42,0,0,1,1.53.87Z"/><path class="cls-7" d="M367.33,124.57a4.23,4.23,0,0,1-3.2-1.31,4.61,4.61,0,0,1-1.28-3.34v-.49a4.76,4.76,0,0,1,1.27-3.38,4.06,4.06,0,0,1,3.06-1.35,4,4,0,0,1,3,1.11,4,4,0,0,1,1.08,3v.9H364v.26a4,4,0,0,0,.93,2.68,3,3,0,0,0,2.42,1.09,5.1,5.1,0,0,0,1.81-.28,3.61,3.61,0,0,0,1.28-.78l.48.72a4.16,4.16,0,0,1-1.46.9A6.29,6.29,0,0,1,367.33,124.57Zm-.15-9a2.83,2.83,0,0,0-2.11.89,3.68,3.68,0,0,0-1,2.24l0,0h6v-.26a2.9,2.9,0,0,0-.79-2.07A2.8,2.8,0,0,0,367.18,115.6Z"/><path class="cls-7" d="M373,115.66v-.78h2.55l.11,1.57a3.52,3.52,0,0,1,1.31-1.29,4.1,4.1,0,0,1,2-.46,3.38,3.38,0,0,1,2,.54,2.84,2.84,0,0,1,1.13,1.62,3.76,3.76,0,0,1,1.33-1.58,3.69,3.69,0,0,1,2.09-.58,3.23,3.23,0,0,1,2.54,1,4.62,4.62,0,0,1,.9,3.13v4.65l1.54.13v.77h-4.24v-.77l1.55-.13v-4.66a3.69,3.69,0,0,0-.67-2.49,2.43,2.43,0,0,0-1.87-.72,2.64,2.64,0,0,0-2,.78,3.58,3.58,0,0,0-.89,2,.57.57,0,0,0,0,.13v5l1.55.12v.77h-4.24v-.77l1.55-.12v-4.67a3.59,3.59,0,0,0-.68-2.47,2.4,2.4,0,0,0-1.86-.74,3,3,0,0,0-1.92.56,3,3,0,0,0-1,1.53v5.79l1.55.12v.77H373v-.77l1.55-.12v-7.72Z"/><path class="cls-7" d="M403.68,124.39c-.08-.32-.13-.6-.17-.84a5.53,5.53,0,0,1,0-.71,4.48,4.48,0,0,1-1.52,1.24,4.56,4.56,0,0,1-2.14.49,3.44,3.44,0,0,1-2.33-.72,2.46,2.46,0,0,1-.83-1.95,2.37,2.37,0,0,1,1.23-2.09,6.11,6.11,0,0,1,3.32-.77h2.27v-1.26a2,2,0,0,0-.71-1.6,3,3,0,0,0-2-.58,5.11,5.11,0,0,0-1.56.22,3.43,3.43,0,0,0-1.18.58l-.1,1.27H397v-1.82a6.18,6.18,0,0,1,1.71-.83,6.9,6.9,0,0,1,2.11-.32,4.36,4.36,0,0,1,2.73.8,2.75,2.75,0,0,1,1,2.3v4.67c0,.2,0,.38,0,.56a4.35,4.35,0,0,0,.06.52l1,.07v.77Zm-3.74-.75a4.38,4.38,0,0,0,2.17-.52,3.26,3.26,0,0,0,1.36-1.37v-1.9h-2.29a4.47,4.47,0,0,0-2.47.59,1.74,1.74,0,0,0-.93,1.5,1.49,1.49,0,0,0,.58,1.23A2.38,2.38,0,0,0,399.94,123.64Z"/><path class="cls-7" d="M407.08,111.46v-.78h2.68V123.5l1.55.12v.77h-4.23v-.77l1.55-.12V111.58Z"/><path class="cls-7" d="M413.05,119.71a5.83,5.83,0,0,1,1.05-3.64A3.47,3.47,0,0,1,417,114.7a3.78,3.78,0,0,1,1.89.45,3.61,3.61,0,0,1,1.33,1.25l.13-1.52h1v9.39a3.93,3.93,0,0,1-1.07,2.9,4.06,4.06,0,0,1-3,1.06,8.19,8.19,0,0,1-1.58-.17,6.71,6.71,0,0,1-1.47-.45l.3-.89a7.31,7.31,0,0,0,1.3.42,6.6,6.6,0,0,0,1.43.15,2.86,2.86,0,0,0,2.2-.8,3.15,3.15,0,0,0,.74-2.22v-1.21a3.48,3.48,0,0,1-1.32,1.12,4.19,4.19,0,0,1-1.87.39,3.52,3.52,0,0,1-2.89-1.27,5.18,5.18,0,0,1-1.05-3.4Zm1.14.19a4.49,4.49,0,0,0,.76,2.74,2.61,2.61,0,0,0,2.25,1,3.41,3.41,0,0,0,1.85-.47,3.06,3.06,0,0,0,1.13-1.28V117.5a3.4,3.4,0,0,0-1.09-1.36,3.09,3.09,0,0,0-1.87-.52,2.53,2.53,0,0,0-2.26,1.14,5.21,5.21,0,0,0-.77,2.95Z"/><path class="cls-7" d="M431.45,122.83a3.5,3.5,0,0,1-1.33,1.29,4.13,4.13,0,0,1-2,.45,3.26,3.26,0,0,1-2.54-1,4.61,4.61,0,0,1-.91-3.16v-4.61l-1.27-.12v-.78h2.4v5.53a3.82,3.82,0,0,0,.64,2.49,2.24,2.24,0,0,0,1.82.76,3.56,3.56,0,0,0,2.05-.53,2.81,2.81,0,0,0,1.08-1.46v-5.89l-1.46-.12v-.78h2.6v8.62l1.37.12v.77h-2.37Z"/><path class="cls-7" d="M435.35,115.66v-.78h2.55l.1,1.57a3.55,3.55,0,0,1,1.32-1.29,4.07,4.07,0,0,1,2-.46,3.38,3.38,0,0,1,2,.54,2.89,2.89,0,0,1,1.13,1.62,3.58,3.58,0,0,1,3.42-2.16,3.24,3.24,0,0,1,2.54,1,4.62,4.62,0,0,1,.9,3.13v4.65l1.54.13v.77h-4.24v-.77l1.55-.13v-4.66a3.69,3.69,0,0,0-.67-2.49,2.43,2.43,0,0,0-1.87-.72,2.64,2.64,0,0,0-2,.78,3.58,3.58,0,0,0-.89,2v.13a.71.71,0,0,1,0,.16v4.81l1.55.12v.77h-4.24v-.77l1.55-.12v-4.67a3.65,3.65,0,0,0-.68-2.47,2.4,2.4,0,0,0-1.86-.74,3,3,0,0,0-1.92.56,3,3,0,0,0-1,1.53v5.79l1.55.12v.77h-4.23v-.77l1.54-.12v-7.72Z"/><path class="cls-7" d="M461.28,124.39a7.1,7.1,0,0,1-.16-.84,4.17,4.17,0,0,1-.05-.71,4.48,4.48,0,0,1-1.52,1.24,4.53,4.53,0,0,1-2.14.49,3.44,3.44,0,0,1-2.33-.72,2.46,2.46,0,0,1-.83-1.95,2.37,2.37,0,0,1,1.23-2.09,6.11,6.11,0,0,1,3.32-.77h2.27v-1.26a2,2,0,0,0-.71-1.6,3,3,0,0,0-2-.58,5.11,5.11,0,0,0-1.56.22,3.52,3.52,0,0,0-1.18.58l-.09,1.27h-.94v-1.82a6.18,6.18,0,0,1,1.71-.83,6.9,6.9,0,0,1,2.11-.32,4.36,4.36,0,0,1,2.73.8,2.75,2.75,0,0,1,1,2.3v4.67c0,.2,0,.38,0,.56a4.35,4.35,0,0,0,.06.52l1,.07v.77Zm-3.74-.75a4.36,4.36,0,0,0,2.17-.52,3.26,3.26,0,0,0,1.36-1.37v-1.9h-2.29a4.49,4.49,0,0,0-2.47.59,1.74,1.74,0,0,0-.93,1.5,1.49,1.49,0,0,0,.58,1.23A2.38,2.38,0,0,0,457.54,123.64Z"/><path class="cls-7" d="M472.36,117.82h-.93l-.13-1.35a2.87,2.87,0,0,0-1.08-.64,4.53,4.53,0,0,0-1.49-.23,3,3,0,0,0-1.87.5,1.47,1.47,0,0,0-.62,1.16,1.34,1.34,0,0,0,.54,1.09,5.47,5.47,0,0,0,2.14.76,7.23,7.23,0,0,1,2.74,1,2.08,2.08,0,0,1,.91,1.78,2.24,2.24,0,0,1-1,1.92,4.66,4.66,0,0,1-2.75.73,6.77,6.77,0,0,1-2.07-.29,5.16,5.16,0,0,1-1.62-.83v-1.92H466l.16,1.36a2.8,2.8,0,0,0,1.16.61,5.76,5.76,0,0,0,1.45.19,3.35,3.35,0,0,0,2-.5,1.48,1.48,0,0,0,.71-1.22,1.53,1.53,0,0,0-.59-1.17,5.11,5.11,0,0,0-2.14-.81,7.77,7.77,0,0,1-2.72-1,2,2,0,0,1-.89-1.71,2.22,2.22,0,0,1,1-1.84,4.19,4.19,0,0,1,2.63-.76,6.4,6.4,0,0,1,2.06.32,4.42,4.42,0,0,1,1.53.87Z"/><path class="cls-7" d="M486.46,124.39a7.1,7.1,0,0,1-.16-.84,4.17,4.17,0,0,1-.05-.71,4.48,4.48,0,0,1-1.52,1.24,4.53,4.53,0,0,1-2.14.49,3.44,3.44,0,0,1-2.33-.72,2.46,2.46,0,0,1-.83-1.95,2.37,2.37,0,0,1,1.23-2.09A6.11,6.11,0,0,1,484,119h2.27v-1.26a2,2,0,0,0-.71-1.6,3,3,0,0,0-2-.58,5.11,5.11,0,0,0-1.56.22,3.52,3.52,0,0,0-1.18.58l-.09,1.27h-1v-1.82a6.18,6.18,0,0,1,1.71-.83,6.9,6.9,0,0,1,2.11-.32,4.36,4.36,0,0,1,2.73.8,2.75,2.75,0,0,1,1,2.3v4.67c0,.2,0,.38,0,.56a4.35,4.35,0,0,0,.06.52l1,.07v.77Zm-3.74-.75a4.36,4.36,0,0,0,2.17-.52,3.26,3.26,0,0,0,1.36-1.37v-1.9H484a4.49,4.49,0,0,0-2.47.59,1.74,1.74,0,0,0-.93,1.5,1.49,1.49,0,0,0,.58,1.23A2.38,2.38,0,0,0,482.72,123.64Z"/><path class="cls-7" d="M492.7,112.45v2.43H495v.86H492.7v6.2a1.88,1.88,0,0,0,.37,1.32,1.27,1.27,0,0,0,1,.39l.54,0a5.57,5.57,0,0,0,.6-.08l.17.79a3.48,3.48,0,0,1-.69.17,5.66,5.66,0,0,1-.82.06,2.21,2.21,0,0,1-1.68-.63,2.78,2.78,0,0,1-.61-2v-6.2h-1.76v-.86h1.76v-2.43Z"/><path class="cls-7" d="M497,123.62l1.55-.12v-7.72l-1.55-.12v-.78h2.68v8.62l1.55.12v.77H497Zm2.68-11.46h-1.13v-1.48h1.13Z"/><path class="cls-7" d="M506.09,115.66l-1.29.09,2.57,6.26.33,1.11h.06l.36-1.11,2.52-6.26-1.28-.09v-.78h3.45v.78l-1,.08-3.63,8.65h-.91l-3.63-8.65-1-.08v-.78h3.46Z"/><path class="cls-7" d="M514,123.62l1.55-.12v-7.72l-1.55-.12v-.78h2.68v8.62l1.54.12v.77H514Zm2.68-11.46h-1.13v-1.48h1.13Z"/><path class="cls-7" d="M527.26,123a3.41,3.41,0,0,1-1.32,1.15,4.19,4.19,0,0,1-1.9.4,3.51,3.51,0,0,1-2.88-1.27,5.23,5.23,0,0,1-1-3.4v-.19a5.89,5.89,0,0,1,1-3.64,3.44,3.44,0,0,1,2.9-1.37,3.87,3.87,0,0,1,1.86.42,3.64,3.64,0,0,1,1.31,1.19v-4.73l-1.55-.12v-.78h2.69V123.5l1.55.12v.77h-2.56Zm-6-3.12a4.52,4.52,0,0,0,.75,2.74,2.58,2.58,0,0,0,2.24,1,3.36,3.36,0,0,0,1.83-.46,3.06,3.06,0,0,0,1.14-1.25v-4.5a3.34,3.34,0,0,0-1.09-1.32,3.15,3.15,0,0,0-1.86-.51,2.51,2.51,0,0,0-2.25,1.14,5.19,5.19,0,0,0-.76,2.95Z"/><path class="cls-7" d="M538.75,124.39c-.07-.32-.13-.6-.16-.84a5.52,5.52,0,0,1-.05-.71,4.44,4.44,0,0,1-1.51,1.24,4.59,4.59,0,0,1-2.14.49,3.42,3.42,0,0,1-2.33-.72,2.46,2.46,0,0,1-.83-1.95,2.38,2.38,0,0,1,1.22-2.09,6.17,6.17,0,0,1,3.33-.77h2.26v-1.26a2,2,0,0,0-.7-1.6,3,3,0,0,0-2-.58,5.11,5.11,0,0,0-1.56.22,3.43,3.43,0,0,0-1.18.58l-.1,1.27h-.94v-1.82a6.12,6.12,0,0,1,1.7-.83,7,7,0,0,1,2.12-.32,4.36,4.36,0,0,1,2.73.8,2.74,2.74,0,0,1,1,2.3v4.67c0,.2,0,.38,0,.56a4.35,4.35,0,0,0,.06.52l1,.07v.77Zm-3.74-.75a4.39,4.39,0,0,0,2.18-.52,3.23,3.23,0,0,0,1.35-1.37v-1.9h-2.28a4.53,4.53,0,0,0-2.48.59,1.75,1.75,0,0,0-.92,1.5,1.51,1.51,0,0,0,.57,1.23A2.4,2.4,0,0,0,535,123.64Z"/><path class="cls-7" d="M549.53,123a3.56,3.56,0,0,1-1.32,1.15,4.19,4.19,0,0,1-1.9.4,3.5,3.5,0,0,1-2.88-1.27,5.17,5.17,0,0,1-1-3.4v-.19a5.83,5.83,0,0,1,1-3.64,3.44,3.44,0,0,1,2.9-1.37,3.93,3.93,0,0,1,1.86.42,3.72,3.72,0,0,1,1.31,1.19v-4.73l-1.55-.12v-.78h2.69V123.5l1.54.12v.77h-2.56Zm-6-3.12a4.52,4.52,0,0,0,.74,2.74,2.61,2.61,0,0,0,2.25,1,3.35,3.35,0,0,0,1.82-.46A3.09,3.09,0,0,0,549.5,122v-4.5a3.37,3.37,0,0,0-1.1-1.32,3.13,3.13,0,0,0-1.85-.51,2.53,2.53,0,0,0-2.26,1.14,5.27,5.27,0,0,0-.75,2.95Z"/><path class="cls-7" d="M558.46,124.57a4.27,4.27,0,0,1-3.21-1.31,4.6,4.6,0,0,1-1.27-3.34v-.49a4.75,4.75,0,0,1,1.26-3.38,4.06,4.06,0,0,1,3.06-1.35,4,4,0,0,1,3,1.11,4,4,0,0,1,1.08,3v.9h-7.25v.26a4,4,0,0,0,.92,2.68,3,3,0,0,0,2.43,1.09,5.08,5.08,0,0,0,1.8-.28,3.53,3.53,0,0,0,1.28-.78l.49.72a4.3,4.3,0,0,1-1.47.9A6.23,6.23,0,0,1,558.46,124.57Zm-.16-9a2.85,2.85,0,0,0-2.11.89,3.74,3.74,0,0,0-1,2.24l0,0h6v-.26a2.86,2.86,0,0,0-.79-2.07A2.8,2.8,0,0,0,558.3,115.6Z"/><path class="cls-7" d="M571.84,117.82h-.93l-.13-1.35a3,3,0,0,0-1.08-.64,4.55,4.55,0,0,0-1.5-.23,2.93,2.93,0,0,0-1.86.5,1.44,1.44,0,0,0-.62,1.16,1.36,1.36,0,0,0,.53,1.09,5.47,5.47,0,0,0,2.14.76,7.29,7.29,0,0,1,2.75,1,2.1,2.1,0,0,1,.91,1.78,2.26,2.26,0,0,1-1,1.92,4.66,4.66,0,0,1-2.75.73,6.73,6.73,0,0,1-2.07-.29,5,5,0,0,1-1.62-.83v-1.92h.92l.16,1.36a2.76,2.76,0,0,0,1.15.61,5.84,5.84,0,0,0,1.46.19,3.39,3.39,0,0,0,2-.5,1.48,1.48,0,0,0,.71-1.22,1.51,1.51,0,0,0-.6-1.17,5,5,0,0,0-2.14-.81,7.71,7.71,0,0,1-2.71-1,2,2,0,0,1-.89-1.71,2.23,2.23,0,0,1,1-1.84,4.21,4.21,0,0,1,2.63-.76,6.47,6.47,0,0,1,2.07.32,4.37,4.37,0,0,1,1.52.87Z"/><path class="cls-7" d="M575.9,124.39h-1.35v-1.47h1.35Zm-.11-4.2h-1.13v-8.6h1.13Z"/><path class="cls-7" d="M222.46,159.79l-1.41.23,3.27,10.23.22.94h.08l.22-.91L228.11,160l-1.39-.23v-2.06h6.73v2.06l-1.54.19-5.43,14.81h-3.8L217.24,160l-1.52-.19v-2.06h6.74Z"/><path class="cls-7" d="M242.81,174.79a5.24,5.24,0,0,1-.27-.65,4.16,4.16,0,0,1-.18-.67,5.19,5.19,0,0,1-1.6,1.13,5.11,5.11,0,0,1-2.16.44,4.72,4.72,0,0,1-3.19-1,3.42,3.42,0,0,1-1.18-2.76,3.08,3.08,0,0,1,1.54-2.75,8.57,8.57,0,0,1,4.53-1h1.89v-1.25a1.77,1.77,0,0,0-.57-1.41,2.46,2.46,0,0,0-1.69-.51,4.23,4.23,0,0,0-1.12.14,2.89,2.89,0,0,0-.8.32l-.24,1.36H235v-2.81a10.34,10.34,0,0,1,2.32-1.07,9,9,0,0,1,2.85-.43,6.88,6.88,0,0,1,4.14,1.15,3.84,3.84,0,0,1,1.58,3.29v5.24c0,.19,0,.37,0,.55a3.89,3.89,0,0,0,0,.49l1.13.14v2Zm-3.21-2.29a3.43,3.43,0,0,0,1.52-.33,2.87,2.87,0,0,0,1.07-.84V169.4H240.3a2.7,2.7,0,0,0-1.78.51,1.54,1.54,0,0,0-.61,1.22,1.22,1.22,0,0,0,.45,1A1.93,1.93,0,0,0,239.6,172.5Z"/><path class="cls-7" d="M247.89,164.17v-2.06h5.41l.15,1.68a4.6,4.6,0,0,1,1.65-1.42,5.09,5.09,0,0,1,2.3-.49,4.44,4.44,0,0,1,2.25.54,3.38,3.38,0,0,1,1.42,1.62,4.54,4.54,0,0,1,1.64-1.59,4.79,4.79,0,0,1,2.38-.57,4.11,4.11,0,0,1,3.2,1.29,5.73,5.73,0,0,1,1.17,3.94v5.28l1.78.35v2h-7.07v-2l1.59-.35V167.1a3.05,3.05,0,0,0-.5-2,1.91,1.91,0,0,0-1.51-.56,2.68,2.68,0,0,0-1.36.32,2.45,2.45,0,0,0-.92.89c0,.15,0,.28,0,.39s0,.21,0,.32v5.93l1.49.35v2h-6.67v-2l1.49-.35V167.1a3,3,0,0,0-.5-2,1.91,1.91,0,0,0-1.52-.58,3,3,0,0,0-1.31.26,2.43,2.43,0,0,0-.93.74v6.85l1.59.35v2h-7.06v-2l1.79-.35v-7.87Z"/><path class="cls-7" d="M272.3,168.33a6.47,6.47,0,0,1,1.72-4.64,7.14,7.14,0,0,1,9.49,0,6.48,6.48,0,0,1,1.72,4.65v.25a6.49,6.49,0,0,1-1.72,4.66,7.15,7.15,0,0,1-9.49,0,6.49,6.49,0,0,1-1.72-4.66Zm3.7.25a5.15,5.15,0,0,0,.66,2.78,2.65,2.65,0,0,0,4.22,0,5.2,5.2,0,0,0,.66-2.78v-.25a5.07,5.07,0,0,0-.67-2.75,2.32,2.32,0,0,0-2.11-1.07,2.29,2.29,0,0,0-2.1,1.07,5.16,5.16,0,0,0-.66,2.75Z"/><path class="cls-7" d="M298,166.47h-2.48l-.4-1.58a3.12,3.12,0,0,0-.95-.47,4,4,0,0,0-1.27-.19,2.64,2.64,0,0,0-1.55.41,1.19,1.19,0,0,0-.57,1,1.11,1.11,0,0,0,.55.95,6.07,6.07,0,0,0,2.17.68,9.19,9.19,0,0,1,3.78,1.38,2.94,2.94,0,0,1,1.22,2.5,3.25,3.25,0,0,1-1.59,2.79,7.28,7.28,0,0,1-4.18,1.09,9.54,9.54,0,0,1-2.9-.43,7.52,7.52,0,0,1-2.35-1.23l0-2.84H290l.51,1.65a2.2,2.2,0,0,0,.9.38,5.72,5.72,0,0,0,1.19.12,3.19,3.19,0,0,0,1.71-.37,1.14,1.14,0,0,0,.59-1,1.17,1.17,0,0,0-.59-1,6.26,6.26,0,0,0-2.19-.73,9.37,9.37,0,0,1-3.65-1.35,2.86,2.86,0,0,1-1.24-2.45,3.47,3.47,0,0,1,1.42-2.75,6.23,6.23,0,0,1,4-1.15,11,11,0,0,1,3,.4,6.43,6.43,0,0,1,2.23,1Z"/><path class="cls-7" d="M306.13,158.57v-2.06h5.67v15.88l1.79.35v2h-7.27v-2l1.79-.35V158.92Z"/><path class="cls-7" d="M323.51,174.79c-.1-.21-.19-.43-.27-.65a5.54,5.54,0,0,1-.18-.67,5.19,5.19,0,0,1-1.6,1.13,5.1,5.1,0,0,1-2.15.44,4.73,4.73,0,0,1-3.2-1,3.42,3.42,0,0,1-1.18-2.76,3.08,3.08,0,0,1,1.54-2.75,8.57,8.57,0,0,1,4.53-1h1.89v-1.25a1.77,1.77,0,0,0-.57-1.41,2.46,2.46,0,0,0-1.69-.51,4.23,4.23,0,0,0-1.12.14,2.89,2.89,0,0,0-.8.32l-.24,1.36h-2.78v-2.81a10.34,10.34,0,0,1,2.32-1.07,9,9,0,0,1,2.85-.43A6.88,6.88,0,0,1,325,163a3.82,3.82,0,0,1,1.58,3.29v5.24c0,.19,0,.37,0,.55a3.87,3.87,0,0,0,0,.49l1.12.14v2Zm-3.2-2.29a3.41,3.41,0,0,0,1.51-.33,2.87,2.87,0,0,0,1.07-.84V169.4H321a2.7,2.7,0,0,0-1.78.51,1.54,1.54,0,0,0-.61,1.22,1.22,1.22,0,0,0,.45,1A1.94,1.94,0,0,0,320.31,172.5Zm1.24-15.31h3.91l0,.07L322,160.31h-3Z"/><path class="cls-7" d="M333.43,168.91h-3.7V157.73h3.7Zm0,5.88h-3.7v-3h3.7Z"/><circle class="cls-8" cx="91" cy="131.4" r="88"/><path class="cls-7" d="M91,46.4a85,85,0,1,1-85,85,85,85,0,0,1,85-85m0-6a91,91,0,1,0,91,91,91.1,91.1,0,0,0-91-91Z"/><path class="cls-6" d="M90.78,46.55a84.78,84.78,0,1,0,84.77,84.78A84.78,84.78,0,0,0,90.78,46.55Zm0,163.9a79.13,79.13,0,1,1,79.12-79.12A79.12,79.12,0,0,1,90.78,210.45Z"/><path class="cls-6" d="M130.79,69.75a2.84,2.84,0,0,0-3.92.82l-4.62,7.11a2.82,2.82,0,0,0,.9,3.95,38.83,38.83,0,0,1,3.17,2.26c.63.49,1.27,1,1.77,1.32.88.72,1.72,1.49,2.56,2.25l-2,2a56.15,56.15,0,0,0-12.39-8.49l5.78-13a2.82,2.82,0,0,0-1.43-3.73,73.89,73.89,0,0,0-26-6.21,2.82,2.82,0,0,0-3,2.68l-.44,8.47a2.82,2.82,0,0,0,2.67,3l3,.15,3.17.49c.4.07.81.13,1.22.18.61.09,1.22.18,1.76.3l.39.1-.74,2.77a57.48,57.48,0,0,0-15-1.21L86.21,60.78a2.77,2.77,0,0,0-1-1.91,2.82,2.82,0,0,0-2.07-.61,72.73,72.73,0,0,0-25.68,7.65,2.82,2.82,0,0,0-1.23,3.8l3.86,7.55a2.82,2.82,0,0,0,3.7,1.28c.57-.26,1.13-.54,1.69-.82a30.49,30.49,0,0,1,4-1.73l.73-.27c.85-.32,1.67-.62,2.49-.9l.73,2.74c-.7.23-1.37.48-2,.73l-.67.26a25.26,25.26,0,0,0-4,1.7l-1.7.83-4.79,2.75L59.9,84,51.57,72.56a2.82,2.82,0,0,0-4-.62A73.57,73.57,0,0,0,29.19,91.32,2.81,2.81,0,0,0,30,95.23l7.11,4.63a2.84,2.84,0,0,0,3.95-.9,33.48,33.48,0,0,1,2.25-3.16c.49-.64,1-1.29,1.33-1.78.72-.88,1.48-1.72,2.25-2.56l2,2a56.09,56.09,0,0,0-8.49,12.38l-13-5.78a2.84,2.84,0,0,0-3.74,1.43,74.2,74.2,0,0,0-6.2,26.05,2.82,2.82,0,0,0,2.68,3l8.47.44a2.85,2.85,0,0,0,2-.72,2.79,2.79,0,0,0,.92-2l.15-3,.48-3.17c.08-.41.13-.82.19-1.23.09-.61.18-1.22.3-1.75l.1-.39,2.77.74a57.37,57.37,0,0,0-1.22,15l-14.14,1.47A2.82,2.82,0,0,0,17.71,139a73.7,73.7,0,0,0,7.65,25.68,2.84,2.84,0,0,0,1.64,1.4,2.8,2.8,0,0,0,2.16-.18l7.55-3.85A2.83,2.83,0,0,0,38,158.34c-.26-.56-.53-1.11-.8-1.66a29.88,29.88,0,0,1-1.75-4.07l-.27-.74c-.32-.84-.62-1.66-.89-2.47l2.77-.74a55.62,55.62,0,0,0,6.45,13.52L32,170.54a2.81,2.81,0,0,0-.62,3.94,73.26,73.26,0,0,0,19.38,18.43,2.85,2.85,0,0,0,2.13.4,2.8,2.8,0,0,0,1.78-1.22L59.3,185a2.82,2.82,0,0,0-.89-3.95,37.82,37.82,0,0,1-3.17-2.26c-.64-.49-1.28-1-1.77-1.32-.88-.73-1.72-1.49-2.56-2.26l2-2c.75.69,1.53,1.39,2.47,2.16.55.39,1.09.8,1.62,1.22a36.32,36.32,0,0,0,3.15,2.21l5.05,2.9.06,0-5.79,13a2.82,2.82,0,0,0,1.43,3.73,73.71,73.71,0,0,0,26,6.2h.15A2.84,2.84,0,0,0,89.91,202l.44-8.47a2.83,2.83,0,0,0-2.67-3l-3-.15-3.17-.48-1.22-.19c-.62-.09-1.23-.17-1.76-.29l-.39-.1.74-2.77a57.84,57.84,0,0,0,15,1.21l1.46,14.14a2.83,2.83,0,0,0,3.11,2.52,72.8,72.8,0,0,0,25.68-7.65,2.82,2.82,0,0,0,1.23-3.8l-3.86-7.55a2.82,2.82,0,0,0-3.7-1.28c-.57.26-1.13.54-1.7.81a29.45,29.45,0,0,1-4,1.74l-.72.27c-.85.31-1.67.62-2.49.89l-.74-2.77a55.8,55.8,0,0,0,13.52-6.45L130,190.09a2.83,2.83,0,0,0,3.94.63,73.41,73.41,0,0,0,18.43-19.38,2.84,2.84,0,0,0-.82-3.92l-7.11-4.62a2.81,2.81,0,0,0-2.17-.39,2.87,2.87,0,0,0-1.79,1.29,34.82,34.82,0,0,1-2.25,3.16c-.49.64-1,1.28-1.32,1.78-.73.88-1.49,1.72-2.26,2.56l-1.95-2a56.28,56.28,0,0,0,8.48-12.38l13,5.78a2.83,2.83,0,0,0,3.73-1.44,73.66,73.66,0,0,0,6.2-26,2.84,2.84,0,0,0-2.68-3l-8.46-.43a2.85,2.85,0,0,0-3,2.67l-.15,3-.48,3.17c-.07.41-.13.82-.19,1.23-.09.61-.17,1.22-.29,1.75l-.1.39-2.73-.73,0-.07c.15-.66.25-1.33.34-2,.05-.31.09-.63.15-1l.43-2.77c0-.1,0-.2,0-.29l.14-3v-5.9l14.2-1.48a2.77,2.77,0,0,0,1.9-1,2.87,2.87,0,0,0,.62-2.07A73.84,73.84,0,0,0,156.2,98a2.83,2.83,0,0,0-3.8-1.23l-7.55,3.86a2.81,2.81,0,0,0-1.28,3.7c.26.56.53,1.12.8,1.67a29.06,29.06,0,0,1,1.75,4.06l.27.75c.32.84.62,1.66.89,2.47l-2.77.74a55.69,55.69,0,0,0-6.45-13.53l11.48-8.35a2.82,2.82,0,0,0,.62-4A73.34,73.34,0,0,0,130.79,69.75Zm1.72,27.78a2.82,2.82,0,0,0-.63,3.94,50.27,50.27,0,0,1,8,16.7,2.84,2.84,0,0,0,3.46,2L151.5,118a2.83,2.83,0,0,0,2-3.32,41.26,41.26,0,0,0-1.85-5.84l-.22-.6a29.28,29.28,0,0,0-1.59-3.84l2.52-1.28a67.93,67.93,0,0,1,5.47,18.34l-14,1.45a2.83,2.83,0,0,0-2.53,3l.14,2.74V134l-.14,2.67-.41,2.59c-.06.37-.11.74-.17,1.11a13.39,13.39,0,0,1-.23,1.43l-.7,2.72a2.82,2.82,0,0,0,2,3.44l8.19,2.19a2.84,2.84,0,0,0,3.47-2l.83-3.22c.17-.76.29-1.52.4-2.29,0-.36.1-.72.17-1.13l.52-3.49,0-.43,2.77.14a68,68,0,0,1-4.42,18.6L141,150.57a2.79,2.79,0,0,0-2.16-.06,2.83,2.83,0,0,0-1.57,1.49,50.71,50.71,0,0,1-10.48,15.3,2.82,2.82,0,0,0,0,4l6,6a2.79,2.79,0,0,0,2.08.82,2.82,2.82,0,0,0,2-.94l1.53-1.69c1-1.06,2-2.13,3-3.4.43-.6.88-1.2,1.33-1.79.32-.41.64-.82.95-1.25l2.37,1.55a67.84,67.84,0,0,1-13.17,13.85l-8.28-11.38a2.83,2.83,0,0,0-1.85-1.13,2.77,2.77,0,0,0-2.1.51,50.39,50.39,0,0,1-16.69,8,2.84,2.84,0,0,0-2,3.46l2.2,8.19a2.82,2.82,0,0,0,3.32,2,43.3,43.3,0,0,0,5.86-1.85l.58-.22a28.59,28.59,0,0,0,3.83-1.59L119,193a68.1,68.1,0,0,1-18.35,5.47l-1.45-14a2.78,2.78,0,0,0-1-1.9,2.82,2.82,0,0,0-2.07-.62,52,52,0,0,1-18.51-1.51,2.84,2.84,0,0,0-3.46,2L72,190.59a2.82,2.82,0,0,0,2,3.47l3.21.83c.76.17,1.53.29,2.3.4l1.12.17,3.49.52.44,0-.15,2.78a68.5,68.5,0,0,1-18.6-4.43l5.73-12.85a2.82,2.82,0,0,0-1.36-3.69l-2.34-1.13L63,173.91a27.21,27.21,0,0,1-2.57-1.83c-.61-.46-1.2-.92-1.64-1.21-.82-.68-1.6-1.39-2.38-2.11-.58-.53-1.16-1.07-1.76-1.59a2.83,2.83,0,0,0-3.86.13l-6,6a2.82,2.82,0,0,0,.12,4.11l1.66,1.51c1.07,1,2.15,2,3.42,3,.61.43,1.2.88,1.78,1.33l1.26,1-1.54,2.38a67.63,67.63,0,0,1-13.85-13.18l11.38-8.28a2.81,2.81,0,0,0,.62-3.94,50.66,50.66,0,0,1-8-16.7,2.82,2.82,0,0,0-3.45-2l-8.2,2.19A2.83,2.83,0,0,0,28,148a42.55,42.55,0,0,0,1.84,5.84l.23.6a29.23,29.23,0,0,0,1.58,3.84l-2.51,1.28a68.41,68.41,0,0,1-5.48-18.34l14-1.46a2.81,2.81,0,0,0,2.52-3.08,52,52,0,0,1,1.51-18.51,2.77,2.77,0,0,0-.28-2.14,2.82,2.82,0,0,0-1.72-1.32l-8.19-2.19a2.84,2.84,0,0,0-3.47,2l-.82,3.22c-.18.75-.29,1.52-.4,2.29-.05.36-.1.72-.17,1.13l-.52,3.49,0,.43L23.33,125a68.93,68.93,0,0,1,4.42-18.61l12.85,5.73a2.82,2.82,0,0,0,2.17.06,2.85,2.85,0,0,0,1.57-1.5A50.63,50.63,0,0,1,54.81,95.36a2.82,2.82,0,0,0,0-4l-6-6a2.84,2.84,0,0,0-2.08-.83,2.87,2.87,0,0,0-2,.95c-.5.57-1,1.13-1.53,1.69-1,1.06-2,2.12-3,3.39-.43.61-.89,1.2-1.34,1.79-.31.42-.63.83-1,1.25l-2.37-1.54A67.58,67.58,0,0,1,48.69,78.22L57,89.6a2.82,2.82,0,0,0,4,.62l.65-.5a11,11,0,0,1,1.39-1l4.62-2.67c.55-.25,1.09-.52,1.62-.78a23.56,23.56,0,0,1,3.31-1.42l.85-.31a29,29,0,0,1,4.09-1.3,2.83,2.83,0,0,0,2.16-3.49l-2.19-8.2a2.83,2.83,0,0,0-3.32-2,41.11,41.11,0,0,0-5.86,1.85l-.59.22a29.72,29.72,0,0,0-3.83,1.59l-1.29-2.52a68.1,68.1,0,0,1,18.35-5.47l1.45,14a2.81,2.81,0,0,0,3.08,2.52,52.26,52.26,0,0,1,18.51,1.5,2.81,2.81,0,0,0,3.46-2l2.19-8.19a2.82,2.82,0,0,0-2-3.46l-3.22-.83c-.76-.17-1.52-.29-2.29-.4l-1.13-.17-3.49-.52-.44,0,.15-2.77a68.42,68.42,0,0,1,18.6,4.43L110,81.15a2.82,2.82,0,0,0,1.44,3.74,50.76,50.76,0,0,1,15.29,10.47,2.82,2.82,0,0,0,4,0l6-6a2.84,2.84,0,0,0-.12-4.11L135,83.75c-1.08-1-2.15-2-3.43-3-.6-.43-1.19-.88-1.78-1.33-.41-.32-.83-.64-1.26-1L130,76.07a68.37,68.37,0,0,1,13.85,13.17Z"/><path class="cls-6" d="M90.78,86.11a45.12,45.12,0,0,0-39,68,2.75,2.75,0,0,0,.17.29,45.53,45.53,0,0,0,11.53,12.89c.07.05.11.13.19.17l.06,0a44.87,44.87,0,0,0,54.06,0s0,0,.07,0,.13-.12.2-.17a45.49,45.49,0,0,0,11.52-12.89,1.75,1.75,0,0,0,.18-.29,45.13,45.13,0,0,0-39-68Zm-5.1,6L54.32,146.68A39.52,39.52,0,0,1,85.68,92.13ZM68.81,164.21l22-38.18,22,38.18a39.44,39.44,0,0,1-43.93,0Zm48.41-3.54L94.45,121.08a4.25,4.25,0,0,0-7.35,0L64.33,160.67a40.07,40.07,0,0,1-6.88-8.1l33.33-58,6.46,11.21c0,.08.08.17.13.25l26.73,46.51a39.75,39.75,0,0,1-6.88,8.1Zm10-14L102.4,103.47l-.13-.26L95.88,92.13a39.53,39.53,0,0,1,31.36,54.55Z"/><g class="cls-9"><path class="cls-4" d="M79.77,71.83l3.84,14.74s.6,3.64-.71,5-7.47,8.28-7.47,8.28L72,106.57l19.9,11.31,23.73-6.37-.71-16.66s-12.15-.77-19.24-6.09c-1.39-1.05-2.57-13.2-2.57-13.2Z"/><path class="cls-10" d="M93.75,80.92c-.37-2.71-.68-5.45-.68-5.45L79.74,71.73l1.07,4.1s4.17,2.72,5.47,3.29A25.37,25.37,0,0,0,93.75,80.92Z"/><path class="cls-4" d="M68.71,103.62S59.2,109,58.33,109.86s-7.67,7-7.67,7l-.26,22.08-8.83-21-7.67,3.39L44.82,154l6,9.31L55.37,165l6.68-30.89,9.64,6,11.81-8.64L75,110.4l-3.63-7.94Z"/><path class="cls-4" d="M33.57,121.17a10.41,10.41,0,0,1-4.53-3.8,36,36,0,0,1-4.75.25.78.78,0,0,1-.43-.09.85.85,0,0,1-.25-.53,46.74,46.74,0,0,0-2.45-8.61,1.42,1.42,0,0,1-.14-.75c.1-.46.64-.68,1.11-.72a2.87,2.87,0,0,0,1.38-.28c.52-.35.68-1.16,1.28-1.35s1,.17,1.49,0,.6-.83.93-1.23a3.29,3.29,0,0,1,2.05-.82,14.59,14.59,0,0,0,3.61-1.45.35.35,0,0,0,.21-.18.45.45,0,0,0,0-.2c-.56-2.59-1.73-5.17-2.28-7.76a57.8,57.8,0,0,1-.94-7.4,4,4,0,0,1,2.05-2.49.9.9,0,0,1,.76-.1,1,1,0,0,1,.45.8c.63,2.88,2.32,10.19,3,13.08.39,1.84,3.72,6.43,4.43,7s.81,1.22,1.62,1.83a1.69,1.69,0,0,1,.56.57,1.9,1.9,0,0,1,.15.82l.12,4.88c0,1.9,0,4-1.33,5.37Z"/><path class="cls-10" d="M40.21,104.08c-1-.27-1.94-.9-3-.72a6.71,6.71,0,0,0-2.44,1.27c-2.15,1.47-3.69,3.71-6,4.93a1,1,0,0,0-.19,1.49c1.32,1.29,3.23,2.8,5.19,2.36a6,6,0,0,0,4-3.79l-1.39.57a7.81,7.81,0,0,0,2,1.06c1.15.44,1.62-1.38.5-1.83-3.73-1.51-5.28,3.37-4,6,.52,1.1,2.16.14,1.64-1-.59-1.25-.26-4.12,1.87-3.26l.5-1.83a4.38,4.38,0,0,1-1.51-.87c-.54-.4-1.2.06-1.4.57-1.13,3-4.18,2.44-6.07.59l-.19,1.49a19.2,19.2,0,0,0,4.15-3.43,15,15,0,0,1,2.4-1.86c1.14-.71,2.2-.33,3.43,0a1,1,0,0,0,.5-1.83Z"/><path class="cls-10" d="M32.65,107.7l-.43-2.21-1.83.51a2.55,2.55,0,0,0,1.39,1.71,1,1,0,0,0,1.3-.34,1,1,0,0,0-.34-1.3.77.77,0,0,1-.52-.58.95.95,0,0,0-1.83.51l.43,2.2a.95.95,0,1,0,1.83-.5Z"/><path class="cls-4" d="M71.93,65.7s7.71,13.73,30.73,13.73c9.52,0,13.06-2.22,13.6-5.31,3.37-19.43-3.81-44-13.77-51.51C93.75,16,62.77,40.93,62.77,40.93l6.6,14.81s-6.74-7.27-9.43-3.23S65.8,65.09,65.8,65.09,69.64,68,71.93,65.7Z"/><path class="cls-4" d="M117.93,96.84c2.29-1.21,4.35,1.64,4.35,1.64l23.23,40.67-20,36s6.73,11.31,3.36,16.42l4.65,4.65s.74,2.49-2.63,2.49-11.31-5.93-11.31-5.93l.92-25.36,15-27L121.68,120l-4.3-3.81S113.67,99.1,117.93,96.84Z"/><path class="cls-4" d="M93.81,210.66,74.35,259.45s-2.51,9.24-5.49,12.22A131.27,131.27,0,0,1,61.49,293c-5.05,11.31-7.27,26.86-7.27,26.86s4.59,11.67,4,16.92c0,0,4.39,6.06,2.62,9.54s-8.68,1.41-8.68,1.41-11.56,1.52-13.28-1.36,2.17-10.6,2.17-10.6-.55-6.16,1.47-7.58A25,25,0,0,0,47,323.33s-.76-2,1.36-4.75,5.25-20.21,5.25-22.5-2.82-19.39,6.6-26.12c0,0,2.29-46.46,8.75-52.92s24.85-10.3,24.85-10.3Z"/><path class="cls-11" d="M93.81,210.66l-6.23,15.6S79,230.1,76.8,230.64c-1.62.4-13.14,4-12.75,1.63C65.26,225,66.93,219.07,69,217c6.47-6.46,24.85-10.3,24.85-10.3Z"/><path class="cls-4" d="M100.74,203.44S117,265,118.24,267.8s-5.15,8.32,6,47.3c0,0-.71,5.15-1.72,7s-3.33,6.47-.4,8.08,12.42,9.7,16.46,10.4,11.61-2.82,11.61-2.82,4-1.52,2.78-2.78c0,0-3.69-.15-4.9-1.36s-14.94-12-14.94-12-4.24-5.45-4.24-5.83-3-48.3-3-48.3,1.11-3,0-9.19-.58-45-.58-45Z"/><path class="cls-11" d="M100.74,203.44s3.83,14.43,5,18.69c.44,1.64,19.43,3,19.43,3l.1-11.82Z"/><path class="cls-12" d="M100.74,215.63c3.15,6.24,25.3,7.56,27.13,8.14,0,0,.58-25.08-3-39.17S100.74,215.63,100.74,215.63Z"/><path class="cls-13" d="M73.81,60.18c3.91,1.62.54-5.39.54-5.39s-.37-7-2.36-8.21A28.53,28.53,0,0,1,67.66,43L104.91,17.5s3.77-5.25-4.84-8.48a10.26,10.26,0,0,0-10.44-3.1s-3.77-4.51-9.22-.37c0,0-11-.64-13.47,4.74a4.11,4.11,0,0,0-4,2.29s-2.28.88-2.72,2.73c0,0-5.56,2.19-5.89,5.89,0,0-3,4.24-.61,7.68,0,0-1.6,3,.47,5.08,0,0-4.64,5.08,0,8.25,0,0-1.14,3.29,5.66,4.64l2,4.17s1.94-.88,7.54,4.72Z"/><path class="cls-10" d="M100.94,60.74a1.5,1.5,0,0,1,0-3c1.38,0,5.22-1.16,8-2.09-.88-6.8-5.24-11.89-7.85-14.39a1.5,1.5,0,0,1,2.07-2.17c3.07,2.94,8.3,9.1,8.89,17.49l.08,1.13-1.07.38C110.25,58.36,103.55,60.74,100.94,60.74Z"/><ellipse class="cls-14" cx="88.93" cy="45.68" rx="1.81" ry="2.47" transform="translate(-8.45 23.05) rotate(-14.1)"/><path class="cls-14" d="M86.15,45.39h-.07a1.5,1.5,0,0,1-1.43-1.56c0-.37.22-3.62,2.6-4.91,1.55-.83,3.46-.58,5.69.76a1.5,1.5,0,0,1-1.53,2.57c-1.21-.72-2.2-1-2.73-.69-.71.38-1,1.78-1,2.4A1.51,1.51,0,0,1,86.15,45.39Z"/><ellipse class="cls-14" cx="105.72" cy="40.61" rx="1.81" ry="2.47" transform="translate(-6.71 26.99) rotate(-14.1)"/><path class="cls-14" d="M102.47,40a1.9,1.9,0,0,1-.4,0,1.51,1.51,0,0,1-1-1.85c.1-.35,1-3.48,3.63-4.2,1.7-.46,3.51.21,5.39,2A1.5,1.5,0,0,1,108,38.08c-1-1-1.93-1.45-2.51-1.29-.79.22-1.4,1.62-1.53,2.11A1.52,1.52,0,0,1,102.47,40Z"/><path class="cls-15" d="M93.06,62.93c-.22-.23,13.34.85,18.52-3,0,0,1,10.32-3.6,11.45S97.73,70.67,93.06,62.93Z"/><g class="cls-16"><path class="cls-17" d="M92.18,64.56s12.68,3.61,18.32-2L109.79,60,91.2,61.22Z"/><path class="cls-18" d="M94.41,69.2s4.07-3.94,10.57-1.31,0,7.37,0,7.37Z"/></g><path class="cls-10" d="M105.19,72.79c-7.76,0-12.94-9.27-13-9.38l-.86-1.57,1.79.09c.12,0,12.51.61,17.93-2.8a1,1,0,0,1,1.37.31,1,1,0,0,1-.31,1.38C107.46,63.75,98.75,64,94.91,64c2,3,7.16,8.91,13.69,6.07a1,1,0,1,1,.8,1.83A10.47,10.47,0,0,1,105.19,72.79Z"/><path class="cls-10" d="M69.06,64.15s-.2-8.83-7-11"/><path class="cls-10" d="M62.05,134.14s5.83-7.81,5.06-6.62c-4.26,6.6,10.92,14.22,14.48,10.15a9.11,9.11,0,0,1-9.9,2.51Z"/><path class="cls-19" d="M75.43,99.8S69,102.18,66,105.19c0,0,18.13,26.3,5.74,35,0,0,11.41,21.79,10.2,26.23s-21.49,61-21.49,61,62.61-1.11,64.84-42l-3-23.56a196.45,196.45,0,0,0,1.75-23.9c.13-11.5-1.13-24.71-2-33.74a14.55,14.55,0,0,0-4.25-9.15l-5.89-.55s4.65,15.6-6.12,17.08C99.91,112.37,85.93,114.25,75.43,99.8Z"/><g class="cls-20"><path class="cls-21" d="M62.74,229s62.61-1.11,64.84-42Z"/></g><path class="cls-19" d="M75.43,99.8S69,102.18,66,105.19c0,0,18.13,26.3,5.74,35,0,0,11.41,21.79,10.2,26.23s-21.49,61-21.49,61,62.61-1.11,64.84-42l-3-23.56a196.45,196.45,0,0,0,1.75-23.9c.13-11.5-1.13-24.71-2-33.74a14.55,14.55,0,0,0-4.25-9.15l-5.89-.55s4.65,15.6-6.12,17.08C99.91,112.37,85.93,114.25,75.43,99.8Z"/><path class="cls-3" d="M80.5,171s33,4.4,42.17-6.1c0,0,1-2.08-.39-3,.2,1.94-15.5,10.39-40.39,5A2.7,2.7,0,0,0,80.5,171Z"/><circle class="cls-22" cx="107.92" cy="169.4" r="7.7"/><g class="cls-23"><path class="cls-24" d="M71.36,20.46s-3.31,4,.89,6.68c1.46.94-4.35,5.45-4.35,5.45L65.56,45.77a17.55,17.55,0,0,1,5-1.22L81.23,56.73,74.42,61,52.67,46.33l-14.47-28L56.85,1.44,77.24-3.3,73.66,3.8S65,9.09,68.31,12.9C66.24,14.36,65.83,20.07,71.36,20.46Z"/></g><path class="cls-25" d="M61.93,51S58,49.27,58,46,73.24,12.25,105,17.5c0,0,4.92,3.43,3.24,5.11,0,0,3,3.77.6,5.79S94.65,27.46,61.93,51Z"/><path class="cls-26" d="M63.64,43.89S84,19.11,105.72,22.35C105.72,22.35,85.46,23.43,63.64,43.89Z"/><path class="cls-27" d="M108.77,176a7.62,7.62,0,0,1-5.64-2.2c-1.52-1.69-1.95-4.13-1.27-7.26a1.5,1.5,0,1,1,2.93.64c-.46,2.13-.27,3.69.57,4.62,1.26,1.41,3.74,1.19,3.77,1.19a1.5,1.5,0,1,1,.31,3S109.15,176,108.77,176Z"/><path class="cls-28" d="M112.57,173.4l-.33,0a1.51,1.51,0,0,1-1.14-1.79c.48-2.12.3-3.68-.53-4.62-1.25-1.42-3.75-1.22-3.77-1.22a1.5,1.5,0,0,1-.29-3c.16,0,4-.36,6.3,2.21,1.5,1.7,1.92,4.15,1.22,7.27A1.49,1.49,0,0,1,112.57,173.4Z"/><path class="cls-10" d="M29.37,117.93a2.1,2.1,0,0,0,0-3.59c-.86-.64-2,.79-1.15,1.49a3.83,3.83,0,0,0,3.18,1.3A2.64,2.64,0,0,0,33.51,115l-1.39.57a3,3,0,0,0,3.09.09c1.09-.55.13-2.19-1-1.64a1,1,0,0,1-1.17-.09,1,1,0,0,0-1.4.57c-.26,1.34-1.46.51-2.08,0L28.45,116l0,.31c-1,.7-.05,2.34,1,1.64Z"/><path class="cls-10" d="M24,105.77q.66,3.09,1.47,6.13a1,1,0,0,0,1.83-.5q-.81-3.06-1.47-6.13c-.26-1.19-2.09-.69-1.83.5Z"/><path class="cls-10" d="M49.35,138.65a19,19,0,0,1,2.15,7.47c.1,1.21,2,1.22,1.9,0A21.55,21.55,0,0,0,51,137.7c-.57-1.08-2.21-.13-1.64,1Z"/><path class="cls-5" d="M85,3.8a6.5,6.5,0,0,1,4.64,2.12,11.14,11.14,0,0,1,2.81-.37A10.25,10.25,0,0,1,100.07,9c8.37,3.14,5.05,8.18,4.85,8.46l.09,0s4.92,3.43,3.24,5.11c0,0,3,3.77.6,5.79a2.49,2.49,0,0,1-.88.44c6.89,10.73,11,29.66,8.29,45.28-.54,3.09-4.07,5.31-13.59,5.31h0a49.58,49.58,0,0,1-9.21-.82c.09.73.19,1.52.3,2.31h0c.48,3.4,1.17,7.27,1.93,7.84,4.86,3.64,12.1,5.15,16.17,5.74l5.89.55A15.14,15.14,0,0,1,119,96.54h.06c1.78,0,3.18,1.94,3.18,1.94l23.23,40.67-20,36s6.73,11.31,3.36,16.42l4.65,4.65s.74,2.49-2.63,2.49a10.1,10.1,0,0,1-3.9-1.27,255,255,0,0,1,.93,26.35,26.31,26.31,0,0,0-2.71-.4l0,1.72h0c-.07,12,0,29.23.68,33.16,1.11,6.16,0,9.19,0,9.19s3,47.93,3,48.3,4.24,5.83,4.24,5.83,5.61,4.41,10,7.91h0a12.65,12.65,0,0,1,3.65,1.55,3.6,3.6,0,0,1,1.11,2.29c.29.2.77.52,1.32.92a14.31,14.31,0,0,0,3.79.71c.6.6,0,1.25-.78,1.77.43.47.7.88.62,1.14-.28,1-4.34,5.33-11.69,5.33-.41,0-.83,0-1.27,0-7.7-.51-18.39-8.72-19.27-11a6.75,6.75,0,0,1,.12-4.61,12.89,12.89,0,0,1,1.82-5.46c1-1.81,1.72-7,1.72-7-11.11-39-4.75-44.47-6-47.3-.81-1.9-8.47-30.43-13.38-48.86a12.34,12.34,0,0,1-2.53-1.5A79.94,79.94,0,0,1,89,222.73l-1.4,3.53L74.35,259.45s-2.51,9.24-5.49,12.22A131.27,131.27,0,0,1,61.49,293c-5.05,11.31-7.27,26.86-7.27,26.86s3.62,9.19,4,14.93c4.26,5.82,8.08,13,3,15.13a29.17,29.17,0,0,1-11,1.94c-6.11,0-11.59-1.43-12.87-2.71-2.05-2.05,3.78-17.6,3.78-17.6.18-1.42.57-2.78,1.4-3.36A25,25,0,0,0,47,323.33s-.76-2,1.36-4.75,5.25-20.21,5.25-22.5-2.82-19.39,6.6-26.12c0,0,1.08-21.87,3.84-37.68h0c.3-1.79.63-3.5,1-5.1-2.89.24-4.63.27-4.63.27s15.13-42.22,20-56.58a2.66,2.66,0,0,1,1.3-3.91c.07-.22.12-.4.16-.54,1.21-4.44-10.2-26.23-10.2-26.23l-9.63-6L55.37,165l-4.54-1.71-6-9.31L33.9,121.27l-.33-.1a10.41,10.41,0,0,1-4.53-3.8,35.84,35.84,0,0,1-4.27.25h-.48a.78.78,0,0,1-.43-.09.85.85,0,0,1-.25-.53,46.74,46.74,0,0,0-2.45-8.61,1.42,1.42,0,0,1-.14-.75c.1-.46.64-.68,1.11-.72a2.87,2.87,0,0,0,1.38-.28c.52-.35.68-1.16,1.28-1.35a.94.94,0,0,1,.3-.05c.27,0,.56.09.84.09a1,1,0,0,0,.35-.06c.48-.2.6-.83.93-1.23a3.29,3.29,0,0,1,2.05-.82,14.59,14.59,0,0,0,3.61-1.45.35.35,0,0,0,.21-.18.45.45,0,0,0,0-.2c-.56-2.59-1.73-5.17-2.28-7.76a57.8,57.8,0,0,1-.94-7.4,4,4,0,0,1,2.05-2.49,1.2,1.2,0,0,1,.52-.15.52.52,0,0,1,.24,0,1,1,0,0,1,.45.8c.63,2.88,2.32,10.19,3,13.08.39,1.84,3.72,6.43,4.43,7s.81,1.22,1.62,1.83a1.69,1.69,0,0,1,.56.57,1.9,1.9,0,0,1,.15.82l.12,4.88c0,1.9,0,4-1.33,5.37h0l8.73,20.8-.17-.58.23.45.26-21.8s6.79-6.09,7.67-7c.56-.56,4.74-3,7.62-4.67h0c3-3,9.48-5.39,9.48-5.39s6.16-7,7.47-8.28.71-5,.71-5l-3.38-13a25.39,25.39,0,0,1-8.3-7.91,3,3,0,0,1-2.2.88,7.73,7.73,0,0,1-3.93-1.49s-8.55-8.55-5.86-12.58a2.55,2.55,0,0,1,2.22-1.23c1.76,0,3.86,1.46,5.34,2.7-3-2.65-4.66-3-5.31-3L62,51l0,0,0,0-.06,0,0-.06c-.64-.32-3.5-1.89-3.75-4.55-4.83-1.51-3.9-4.21-3.9-4.21-4.64-3.16,0-8.24,0-8.24-2.07-2.07-.47-5.08-.47-5.08-2.42-3.44.61-7.68.61-7.68.33-3.7,5.89-5.89,5.89-5.89.44-1.85,2.72-2.73,2.72-2.73a4,4,0,0,1,3.73-2.3h.31c2-4.35,9.57-4.77,12.39-4.77.67,0,1.08,0,1.08,0A7.54,7.54,0,0,1,85,3.8m38,159.08,12.47-22.47-11.85-17.62c.31,5,.51,10.26.45,15.15a196.45,196.45,0,0,1-1.75,23.9,1.63,1.63,0,0,1,.68,1m24.56,170.23h0M85,0h0a10.74,10.74,0,0,0-5.72,1.73c-4.14,0-11,.72-14.51,5a7.69,7.69,0,0,0-4.52,3,8.32,8.32,0,0,0-2.94,2.79c-2.12,1.11-5.73,3.51-6.62,7.33-1.31,2.22-2.49,5.88-1.12,9.37a8.37,8.37,0,0,0,.11,4.59,9.75,9.75,0,0,0-1.32,5.82A7.59,7.59,0,0,0,50.41,44,6.58,6.58,0,0,0,51,45.6a8.27,8.27,0,0,0,4,3.65,9.27,9.27,0,0,0,1.33,2.1c-1.37,2.95-.54,6.68,2.48,11.1a40.25,40.25,0,0,0,4.39,5.33l.18.18.21.16a11.29,11.29,0,0,0,6.22,2.26,6.4,6.4,0,0,0,.88-.06A32.32,32.32,0,0,0,76.93,76l2.95,11.35a8,8,0,0,1,0,1.82c-1.46,1.53-5.19,5.72-6.72,7.45-2,.81-6.63,2.85-9.54,5.53-7,4.05-7.58,4.63-8,5.05-.58.58-4.92,4.5-7.51,6.83l-1.25,1.11v1.67l0,3.79-.94-2.24a13.38,13.38,0,0,0,.87-5.85l-.13-4.88a5.49,5.49,0,0,0-.58-2.49,5.35,5.35,0,0,0-1.52-1.74l0-.07A7.06,7.06,0,0,0,43,101.6a24.9,24.9,0,0,1-3.21-4.93c-.31-1.47-.9-4-1.47-6.54s-1.15-5.07-1.46-6.49a4.62,4.62,0,0,0-2.56-3.44,4.33,4.33,0,0,0-1.84-.41,4.87,4.87,0,0,0-2.35.63,7.54,7.54,0,0,0-4,5.4c-.21,2,1,8.55,1,8.61a38.82,38.82,0,0,0,1.25,4.28c.08.26.17.52.25.77l-.09,0-.24,0a6.33,6.33,0,0,0-3.88,2,4.94,4.94,0,0,0-.76.18,4.61,4.61,0,0,0-2.2,1.51,4.76,4.76,0,0,0-4.11,3.66,5,5,0,0,0,.32,2.93,42.63,42.63,0,0,1,2.25,7.9,4.3,4.3,0,0,0,4.36,3.73h.53q1.29,0,2.58-.09A14.2,14.2,0,0,0,30.82,124l10.4,31.17.16.45.25.4,6,9.32.68,1.05,1.17.44L54,168.58l4.12,1.56.93-4.3,5.54-25.62,4.17,2.62c.87,1.69,2.82,5.55,4.72,9.74,3.47,7.65,4.37,11,4.6,12.33a6.47,6.47,0,0,0-1.54,2.38,6.27,6.27,0,0,0-.15,3.58C71.19,186.09,57,225.75,56.83,226.16L55,231.34l5.4-.1-.06.32-.11.55v.08c-2.29,13.41-3.4,30.47-3.71,35.88-8.4,7.59-7.19,22-6.78,26.87,0,.44.09,1,.09,1.15-.07,2.51-3.06,17.84-4.49,20.21a9.88,9.88,0,0,0-2.26,5.93,16.16,16.16,0,0,1-2.69,2.83c-1.56,1.09-2.51,2.9-2.92,5.53-.41,1.13-1.6,4.46-2.62,8-2.22,7.68-2.25,11.15-.14,13.26,2.63,2.63,9.9,3.83,15.55,3.83a32.78,32.78,0,0,0,12.48-2.24,7.41,7.41,0,0,0,4.45-4.89c1-3.77-.61-8.6-5.24-15.14-.63-5-2.91-11.49-3.82-13.94.57-3.47,2.76-15.78,6.84-24.9a138.67,138.67,0,0,0,7.37-21.06c3-3.75,5.08-10.85,5.62-12.81l13.16-33,.74-1.86a84.14,84.14,0,0,0,9.89-3.85c10.42,39.07,12.34,45.48,12.86,46.93,0,.28-.11.75-.18,1.14-.77,4.6-2.56,15.32,5.91,45.32a24.84,24.84,0,0,1-1.16,4.87,16.31,16.31,0,0,0-2.29,6.62,10.44,10.44,0,0,0,.12,6.64c1.18,3.09,6.86,6.92,8.57,8,2.92,1.88,8.63,5.08,14,5.43.5,0,1,.05,1.51.05,8.75,0,14.56-5.21,15.35-8.12a3.93,3.93,0,0,0,.13-1.52,4.4,4.4,0,0,0,.39-1.43,4.5,4.5,0,0,0-1.34-3.64l-1-1.05-1.48-.06a12.61,12.61,0,0,1-2-.28,6.68,6.68,0,0,0-1.95-2.76,13.15,13.15,0,0,0-4.31-2.08c-3.58-2.86-7.79-6.18-9-7.17-1.22-1.57-2.57-3.36-3.22-4.29-.17-2.78-.77-12.44-2.94-46.74a25.12,25.12,0,0,0-.09-10.26c-.22-1.24-.72-6.59-.63-29.49l2.63.83.11-5c0-.48.23-10.43-.5-21.38a6.25,6.25,0,0,0,5.08-2.37,5.78,5.78,0,0,0,.87-5l-.28-.93-.68-.68-2.9-2.89c1.22-5.36-1.66-12-3.45-15.49l19-34.13,1.05-1.87-1.07-1.86L125.57,96.6l-.1-.18-.11-.16a9.15,9.15,0,0,0-4.29-3.21c-.21-.23-.43-.45-.65-.68l-1-1-1.37-.13-5.79-.54c-3.42-.5-9.52-1.74-13.7-4.56A26.19,26.19,0,0,1,97.91,83c1.55.13,3.14.2,4.75.2,3.93,0,15.87,0,17.34-8.46,2.51-14.49-.51-32.91-7.21-45.23,1.33-2.32.89-5.14-.4-7.53a5.4,5.4,0,0,0,0-.69,8.61,8.61,0,0,0-3-5.13,8.17,8.17,0,0,0-.25-3.8c-.88-2.81-3.2-5-6.9-6.58a14,14,0,0,0-9.82-4.06,14.32,14.32,0,0,0-1.72.11A10,10,0,0,0,85,0Zm42.53,146.84c.16-2.75.27-5.74.31-8.86,0-.67,0-1.36,0-2.06L131,140.6l-3.46,6.24Z"/><polyline class="cls-4" points="33.57 121.17 34.09 121.47 42.13 118.21"/></g></svg>