<svg id="Camada_1" data-name="Camada 1" xmlns="http://www.w3.org/2000/svg" xmlns:xlink="http://www.w3.org/1999/xlink" viewBox="0 0 709.69 222.55"><defs><style>.cls-1{fill:none;}.cls-2{clip-path:url(#clip-path);}.cls-3{fill:#6d472e;}.cls-4{fill:#eac2a7;}.cls-5{fill:#eaa000;}.cls-6{fill:#ffd478;}.cls-7{fill:#027e8f;}.cls-8{fill:#f9f9f9;}.cls-9{clip-path:url(#clip-path-2);}.cls-10{fill:#c9a68f;}.cls-11{fill:#d6aa8b;}.cls-12{fill:#d6d6d6;}.cls-13{fill:#c99f4b;}.cls-14{fill:#6d5f56;}.cls-15{fill:#493e38;}.cls-16{clip-path:url(#clip-path-3);}.cls-17{fill:#fcfcfc;}.cls-18{fill:#d32222;}.cls-19{fill:#f4f4f4;}.cls-20{clip-path:url(#clip-path-4);}.cls-21{fill:#b7b7b7;}.cls-22{fill:#c99e32;}.cls-23{clip-path:url(#clip-path-5);}.cls-24{fill:#aa7e30;}.cls-25{fill:#fff;}.cls-26{fill:#ddd;}.cls-27{fill:#846829;}.cls-28{fill:#e8cd95;}</style><clipPath id="clip-path"><path class="cls-1" d="M131.37-67.23s-28.07,21.32-75.08,3.8-47-152.1-47-152.1,43.25-64.27,52.92-62.55,66.06,12.65,66.06,33.38,25.1,113.81,25.1,113.81S163.89-90.08,158.62-87"/></clipPath><clipPath id="clip-path-2"><path class="cls-1" d="M131.37,205.76s-28.07,21.32-75.08,3.8-47-152.1-47-152.1S52.52-6.81,62.19-5.09s66.06,12.65,66.06,33.38,25.1,113.8,25.1,113.8,10.54,40.82,5.27,43.92"/></clipPath><clipPath id="clip-path-3"><path class="cls-1" d="M93.06,63.08c-.22-.23,13.34.85,18.52-3,0,0,1,10.32-3.6,11.45S97.73,70.83,93.06,63.08Z"/></clipPath><clipPath id="clip-path-4"><path class="cls-1" d="M100.74,215.78c3.15,6.25,25.3,7.56,27.13,8.14,0,0,.58-25.08-3-39.17S100.74,215.78,100.74,215.78Z"/></clipPath><clipPath id="clip-path-5"><path class="cls-1" d="M73.81,60.33c3.91,1.62.54-5.38.54-5.38s-.37-7-2.36-8.22a28.53,28.53,0,0,1-4.33-3.54l10-6.84,27.27-18.7s3.77-5.25-4.84-8.48a10.26,10.26,0,0,0-10.44-3.1s-3.77-4.51-9.22-.37c0,0-11-.64-13.47,4.75a4.1,4.1,0,0,0-4,2.28s-2.28.88-2.72,2.73c0,0-5.56,2.19-5.89,5.89,0,0-3,4.24-.61,7.68,0,0-1.6,3,.47,5.08,0,0-4.64,5.08,0,8.25,0,0-1.14,3.3,5.66,4.64l2,4.17s1.94-.88,7.54,4.72Z"/></clipPath></defs><title>1-info2</title><g class="cls-2"><path class="cls-3" d="M120.66,54.68a6.82,6.82,0,0,0-.12,4.61c.88,2.29,11.57,10.51,19.27,11,8.15.53,12.66-4.17,13-5.28s-5.25-4.74-5.25-4.74Z"/><path class="cls-3" d="M41.16,58.69S35.33,74.24,37.38,76.3s15,4.5,23.89.77-9.75-23.23-9.75-23.23Z"/><path class="cls-4" d="M93.81-62.17,74.35-13.38S71.84-4.14,68.86-1.16a131.35,131.35,0,0,1-7.37,21.3C56.44,31.45,54.22,47,54.22,47s4.59,11.66,4,16.91c0,0,4.39,6.06,2.62,9.54s-8.68,1.42-8.68,1.42-11.56,1.51-13.28-1.37,2.17-10.6,2.17-10.6-.55-6.16,1.47-7.57A25.2,25.2,0,0,0,47,50.49s-.76-2,1.36-4.75,5.25-20.21,5.25-22.5S50.79,3.85,60.21-2.88c0,0,2.29-46.45,8.75-52.91s24.85-10.3,24.85-10.3Z"/><path class="cls-4" d="M100.74-69.39S117-7.86,118.24-5s-5.15,8.31,6,47.29c0,0-.71,5.15-1.72,7s-3.33,6.46-.4,8.08S134.5,67,138.54,67.71s11.61-2.83,11.61-2.83,4-1.51,2.78-2.78c0,0-3.68-.15-4.9-1.36s-14.94-12-14.94-12-4.24-5.45-4.24-5.82-3-48.3-3-48.3,1.11-3,0-9.19-.58-45-.58-45Z"/><path class="cls-3" d="M38.14,70.55s11.56-5,23.13-1.16a5.07,5.07,0,0,0-.86-2.83c-1-1.51-15.45-3.83-21.61,1.24C38.8,67.8,37.48,69.69,38.14,70.55Z"/><path class="cls-3" d="M135.92,66.7s.45-10.18,11.6-6.42l.3.25a3.63,3.63,0,0,0-1.11-2.35,12.53,12.53,0,0,0-3.65-1.54S132.85,54.13,133,65C133,65,134.59,67.21,135.92,66.7Z"/><path class="cls-5" d="M85-269a6.5,6.5,0,0,1,4.64,2.12,11.2,11.2,0,0,1,2.81-.37,10.25,10.25,0,0,1,7.63,3.47c8.37,3.14,5.05,8.19,4.85,8.47H105s4.92,3.44,3.24,5.12c0,0,3,3.76.6,5.78a2.52,2.52,0,0,1-.87.44c6.88,10.73,11,29.67,8.28,45.28-.54,3.09-4.07,5.32-13.59,5.32h0a50.45,50.45,0,0,1-9.21-.82c.09.73.19,1.52.3,2.31h0c.48,3.4,1.17,7.26,1.93,7.83,4.86,3.65,12.1,5.16,16.17,5.75l5.89.55a14,14,0,0,1,1.31,1.49h.07c1.77,0,3.17,1.94,3.17,1.94l23.23,40.67-20,36s6.73,11.31,3.36,16.43l4.65,4.64s.74,2.49-2.63,2.49a10.1,10.1,0,0,1-3.9-1.27,255.26,255.26,0,0,1,.93,26.36,25.23,25.23,0,0,0-2.71-.41l0,1.72h0c-.07,12,0,29.22.68,33.16,1.11,6.16,0,9.19,0,9.19s3,47.93,3,48.3,4.24,5.82,4.24,5.82,5.61,4.42,10,7.92h0a12.53,12.53,0,0,1,3.65,1.54,3.64,3.64,0,0,1,1.11,2.3c.29.19.77.52,1.32.92a14.11,14.11,0,0,0,3.79.7c.6.6,0,1.26-.78,1.78.43.46.7.87.62,1.14-.28,1-4.34,5.32-11.69,5.32-.41,0-.83,0-1.27,0-7.7-.5-18.39-8.72-19.27-11a6.82,6.82,0,0,1,.12-4.61,12.84,12.84,0,0,1,1.82-5.45c1-1.82,1.72-7,1.72-7-11.11-39-4.74-44.47-6-47.29-.81-1.91-8.47-30.43-13.38-48.86a13.31,13.31,0,0,1-2.53-1.5A80.13,80.13,0,0,1,89-50.11l-1.41,3.54L74.35-13.38S71.84-4.14,68.86-1.16a131.35,131.35,0,0,1-7.37,21.3C56.44,31.45,54.22,47,54.22,47s3.62,9.18,4,14.92c4.26,5.83,8.08,13,3,15.14a29.17,29.17,0,0,1-11,1.94c-6.11,0-11.59-1.44-12.87-2.71-2.05-2,3.78-17.61,3.78-17.61.18-1.41.57-2.78,1.4-3.35A25.2,25.2,0,0,0,47,50.49s-.76-2,1.36-4.75,5.25-20.21,5.25-22.5S50.79,3.85,60.21-2.88c0,0,1.08-21.86,3.84-37.68h0c.3-1.79.63-3.51,1-5.1-2.89.24-4.63.27-4.63.27s15.13-42.23,20-56.59a2.65,2.65,0,0,1,1.3-3.9l.16-.54c1.21-4.44-10.2-26.24-10.2-26.24l-9.63-6-6.69,30.9-4.54-1.72-6-9.31L33.9-151.56l-.33-.1a10.41,10.41,0,0,1-4.53-3.8,38.07,38.07,0,0,1-4.27.25h-.48a.78.78,0,0,1-.43-.09.81.81,0,0,1-.25-.53,46.64,46.64,0,0,0-2.45-8.6,1.44,1.44,0,0,1-.14-.76c.1-.46.64-.67,1.11-.72a2.76,2.76,0,0,0,1.38-.27c.52-.36.68-1.16,1.28-1.36a1,1,0,0,1,.3,0c.28,0,.57.08.84.08a.83.83,0,0,0,.35-.06c.48-.2.6-.82.93-1.23a3.22,3.22,0,0,1,2.05-.81,14.59,14.59,0,0,0,3.61-1.45.35.35,0,0,0,.21-.18.5.5,0,0,0,0-.21c-.56-2.58-1.73-5.17-2.28-7.75a58.26,58.26,0,0,1-.94-7.4,3.92,3.92,0,0,1,2.05-2.49,1.09,1.09,0,0,1,.52-.16.53.53,0,0,1,.24.06,1,1,0,0,1,.45.79c.63,2.89,2.32,10.2,3,13.08.39,1.84,3.72,6.43,4.43,7s.81,1.23,1.62,1.84a1.76,1.76,0,0,1,.56.56,1.9,1.9,0,0,1,.15.82l.12,4.88c0,1.9,0,4-1.33,5.37h0l8.73,20.79-.17-.58.23.46.26-21.8s6.79-6.1,7.67-7c.56-.57,4.74-3,7.62-4.67h0c3-3,9.48-5.4,9.48-5.4s6.16-7,7.47-8.28.71-4.94.71-4.94l-3.38-13a25.5,25.5,0,0,1-8.3-7.91,3,3,0,0,1-2.2.88,7.73,7.73,0,0,1-3.93-1.49s-8.55-8.55-5.86-12.59a2.54,2.54,0,0,1,2.22-1.22c1.76,0,3.86,1.45,5.34,2.7-3-2.65-4.66-3-5.31-3H62l0,0,0,0-.06,0,0-.07c-.64-.31-3.5-1.88-3.75-4.55-4.83-1.51-3.9-4.2-3.9-4.2-4.64-3.16,0-8.25,0-8.25-2.07-2.07-.47-5.08-.47-5.08-2.42-3.43.61-7.67.61-7.67.33-3.71,5.89-5.9,5.89-5.9.44-1.85,2.72-2.72,2.72-2.72a4,4,0,0,1,3.73-2.3h.31c2-4.35,9.57-4.77,12.39-4.77.67,0,1.08,0,1.08,0A7.54,7.54,0,0,1,85-269m38,159.09,12.47-22.48L123.58-150c.31,5.06.51,10.26.45,15.15a196.21,196.21,0,0,1-1.75,23.9,1.65,1.65,0,0,1,.68,1M147.52,60.28h0M85-272.83h0a10.81,10.81,0,0,0-5.72,1.72c-4.14,0-11,.72-14.51,5a7.68,7.68,0,0,0-4.52,3,8.45,8.45,0,0,0-2.94,2.8c-2.12,1.1-5.73,3.51-6.62,7.33-1.31,2.22-2.49,5.87-1.12,9.37a8.37,8.37,0,0,0,.11,4.59,9.71,9.71,0,0,0-1.32,5.82,7.59,7.59,0,0,0,2.06,4.39,6.58,6.58,0,0,0,.56,1.63,8.3,8.3,0,0,0,4,3.64,9.12,9.12,0,0,0,1.33,2.11c-1.37,2.95-.54,6.68,2.48,11.1a39.79,39.79,0,0,0,4.39,5.32l.18.19.21.16a11.39,11.39,0,0,0,6.22,2.25,8.49,8.49,0,0,0,.88,0,32,32,0,0,0,6.32,5.65l2.95,11.36a8,8,0,0,1,0,1.82c-1.46,1.53-5.19,5.72-6.72,7.44-2,.81-6.63,2.86-9.53,5.54-7,4-7.59,4.62-8,5-.58.58-4.92,4.49-7.51,6.82l-1.25,1.11V-156l0,3.79-.94-2.24a13.36,13.36,0,0,0,.87-5.85l-.13-4.87a5.31,5.31,0,0,0-.58-2.49,5.14,5.14,0,0,0-1.52-1.74l0-.08A7.26,7.26,0,0,0,43-171.24a24.61,24.61,0,0,1-3.21-4.93c-.31-1.47-.9-4.05-1.47-6.54s-1.15-5.07-1.46-6.48a4.6,4.6,0,0,0-2.56-3.44,4.33,4.33,0,0,0-1.84-.41,4.76,4.76,0,0,0-2.35.63,7.48,7.48,0,0,0-4,5.39c-.22,2,1,8.55,1,8.61a39,39,0,0,0,1.25,4.29c.08.26.17.51.25.77l-.09,0-.24,0a6.38,6.38,0,0,0-3.88,1.95,4.94,4.94,0,0,0-.76.18,4.75,4.75,0,0,0-2.2,1.51A4.77,4.77,0,0,0,17.31-166a5,5,0,0,0,.32,2.94,42.19,42.19,0,0,1,2.25,7.9,4.4,4.4,0,0,0,1.83,3,4.46,4.46,0,0,0,2.53.77h.53c.86,0,1.72,0,2.58-.08a14.7,14.7,0,0,0,3.47,2.71l10.4,31.16.16.46.26.4,6,9.31.68,1,1.17.44L54-104.25l4.12,1.55.93-4.3,5.54-25.61L68.79-130c.87,1.7,2.82,5.56,4.72,9.74,3.47,7.65,4.37,11,4.6,12.33a6.42,6.42,0,0,0-1.54,2.39,6.26,6.26,0,0,0-.15,3.58C71.19-86.74,57-47.08,56.83-46.67L55-41.5l5.4-.1-.06.33-.11.55v.08c-2.29,13.4-3.4,30.46-3.71,35.87-8.4,7.6-7.19,22-6.78,26.88,0,.44.09,1,.09,1.14-.07,2.51-3.06,17.84-4.49,20.22a9.84,9.84,0,0,0-2.26,5.93,16.53,16.53,0,0,1-2.69,2.83c-1.56,1.09-2.51,2.9-2.92,5.53-.41,1.12-1.6,4.45-2.62,8C32.62,73.4,32.59,76.87,34.7,79c2.63,2.62,9.9,3.82,15.55,3.82a32.79,32.79,0,0,0,12.48-2.23,7.42,7.42,0,0,0,4.45-4.9c1-3.77-.61-8.59-5.24-15.13A72,72,0,0,0,58.12,46.6c.57-3.48,2.76-15.78,6.84-24.91a138.3,138.3,0,0,0,7.37-21c3-3.76,5.08-10.86,5.62-12.81l13.16-33L91.85-47a85.93,85.93,0,0,0,9.89-3.86C112.16-11.81,114.08-5.39,114.6-3.95c0,.28-.11.75-.18,1.15-.77,4.6-2.56,15.32,5.91,45.31a24.45,24.45,0,0,1-1.16,4.88A16.26,16.26,0,0,0,116.88,54a10.44,10.44,0,0,0,.12,6.64c1.18,3.09,6.86,6.91,8.57,8,2.92,1.88,8.63,5.08,14,5.43.5,0,1,0,1.51,0,8.75,0,14.56-5.21,15.35-8.13a3.88,3.88,0,0,0,.13-1.51,4.46,4.46,0,0,0-.95-5.08l-1-1.05-1.48-.06a12.49,12.49,0,0,1-2-.27,6.7,6.7,0,0,0-1.95-2.77,13.32,13.32,0,0,0-4.31-2.07c-3.58-2.86-7.79-6.19-9-7.17-1.22-1.58-2.57-3.37-3.22-4.3-.17-2.78-.77-12.44-2.94-46.73a25.17,25.17,0,0,0-.09-10.27c-.22-1.24-.72-6.59-.63-29.48l2.63.83.11-5.06c0-.48.23-10.43-.5-21.38a6.23,6.23,0,0,0,5.09-2.37,5.8,5.8,0,0,0,.86-5l-.28-.92-.68-.68-2.9-2.9c1.22-5.35-1.66-12-3.45-15.48l19-34.14,1.05-1.87-1.07-1.86-23.23-40.67-.1-.17-.11-.16a9.09,9.09,0,0,0-4.29-3.21l-.65-.69-1-1-1.36-.13-5.8-.54c-3.42-.5-9.52-1.74-13.7-4.56a27.22,27.22,0,0,1-.68-3.14c1.56.12,3.14.19,4.75.19,3.93,0,15.87,0,17.34-8.46,2.51-14.49-.51-32.91-7.21-45.23,1.33-2.31.89-5.14-.4-7.52a5.3,5.3,0,0,0,0-.69,8.55,8.55,0,0,0-3-5.13,8,8,0,0,0-.25-3.8c-.88-2.81-3.2-5-6.89-6.59a14,14,0,0,0-9.83-4.05,14.29,14.29,0,0,0-1.72.1A10,10,0,0,0,85-272.83ZM127.52-126c.16-2.75.27-5.73.31-8.85,0-.67,0-1.36,0-2.06l3.14,4.67L127.52-126Z"/></g><path class="cls-6" d="M131.74,86.26H699.69a10,10,0,0,1,10,10v74.95a10,10,0,0,1-10,10H131.74a0,0,0,0,1,0,0V86.26A0,0,0,0,1,131.74,86.26Z"/><path class="cls-7" d="M225.72,110.38h-.93l-.16-1.81a3.28,3.28,0,0,0-1.39-.93,5.69,5.69,0,0,0-2.07-.34,4.53,4.53,0,0,0-2.66.68,2,2,0,0,0-1,1.71,2,2,0,0,0,.86,1.61,8.43,8.43,0,0,0,3,1.14,9,9,0,0,1,3.39,1.42,2.84,2.84,0,0,1,1.16,2.37,2.78,2.78,0,0,1-1.35,2.43,6,6,0,0,1-3.44.91,7.51,7.51,0,0,1-2.75-.49,5.24,5.24,0,0,1-2.07-1.38v-2.24h.93l.16,1.87a4,4,0,0,0,1.6,1,6.65,6.65,0,0,0,2.13.34,4.66,4.66,0,0,0,2.64-.67,2,2,0,0,0,1-1.77,2.1,2.1,0,0,0-.84-1.71,8.09,8.09,0,0,0-2.94-1.17,9.69,9.69,0,0,1-3.44-1.37,2.66,2.66,0,0,1-1.17-2.28,2.83,2.83,0,0,1,1.33-2.39,5.94,5.94,0,0,1,3.43-.92,7.13,7.13,0,0,1,2.69.48,4.65,4.65,0,0,1,1.86,1.31Z"/><path class="cls-7" d="M232.32,119.57a4.28,4.28,0,0,1-3.21-1.32,4.59,4.59,0,0,1-1.27-3.34v-.49a4.73,4.73,0,0,1,1.27-3.38,4.35,4.35,0,0,1,6-.24,4.07,4.07,0,0,1,1.08,3v.89H229v.26a4,4,0,0,0,.93,2.68,3,3,0,0,0,2.42,1.09,5.33,5.33,0,0,0,1.8-.27,3.83,3.83,0,0,0,1.29-.79l.48.72a4.11,4.11,0,0,1-1.46.9A6,6,0,0,1,232.32,119.57Zm-.15-9a2.79,2.79,0,0,0-2.11.9,3.6,3.6,0,0,0-1,2.23v0h6v-.27a2.88,2.88,0,0,0-.79-2.07A2.76,2.76,0,0,0,232.17,110.59Z"/><path class="cls-7" d="M238,110.65v-.78h2.55l.1,1.58a3.5,3.5,0,0,1,1.32-1.3,4.07,4.07,0,0,1,2-.45,3.38,3.38,0,0,1,2,.53,2.89,2.89,0,0,1,1.13,1.62,3.75,3.75,0,0,1,1.33-1.58,3.69,3.69,0,0,1,2.09-.57,3.21,3.21,0,0,1,2.54,1,4.59,4.59,0,0,1,.89,3.13v4.65l1.55.12v.77H251.2v-.77l1.55-.12v-4.67a3.71,3.71,0,0,0-.67-2.49,2.43,2.43,0,0,0-1.87-.72,2.62,2.62,0,0,0-2,.78,3.58,3.58,0,0,0-.89,2v.13a.71.71,0,0,1,0,.16v4.81l1.55.12v.77H244.6v-.77l1.55-.12v-4.67a3.65,3.65,0,0,0-.68-2.47,2.4,2.4,0,0,0-1.86-.74,3,3,0,0,0-1.93.57,3,3,0,0,0-1,1.52v5.79l1.55.12v.77H238v-.77l1.54-.12v-7.72Z"/><path class="cls-7" d="M256.54,110.65v-.78H259l.14,1.48a3.53,3.53,0,0,1,1.33-1.22,4,4,0,0,1,1.91-.43,3.42,3.42,0,0,1,2.89,1.36,5.84,5.84,0,0,1,1.05,3.65v.18a5.2,5.2,0,0,1-1.05,3.41,3.52,3.52,0,0,1-2.87,1.27,4.33,4.33,0,0,1-1.9-.39,3.32,3.32,0,0,1-1.32-1.08v4l1.55.12V123h-4.23v-.78l1.55-.12V110.77Zm8.68,4.06a5.15,5.15,0,0,0-.78-3,2.59,2.59,0,0,0-2.28-1.14,3.12,3.12,0,0,0-1.86.51,3.07,3.07,0,0,0-1.08,1.31V117a3,3,0,0,0,1.12,1.23,3.48,3.48,0,0,0,1.84.45,2.64,2.64,0,0,0,2.26-1,4.46,4.46,0,0,0,.78-2.75Z"/><path class="cls-7" d="M270.67,109.87l.14,1.58v.12a3.43,3.43,0,0,1,1.19-1.38,3.18,3.18,0,0,1,1.79-.49,3,3,0,0,1,.42,0l.34.06-.15,1-.85-.06a2.73,2.73,0,0,0-1.76.56,3,3,0,0,0-1,1.54v5.67l1.54.12v.77h-4.22v-.77l1.55-.12v-7.72l-1.55-.12v-.78h2.54Z"/><path class="cls-7" d="M280.36,119.57a4.24,4.24,0,0,1-3.2-1.32,4.59,4.59,0,0,1-1.27-3.34v-.49a4.77,4.77,0,0,1,1.26-3.38,4.05,4.05,0,0,1,3.06-1.34,4,4,0,0,1,3,1.1,4,4,0,0,1,1.09,3v.89H277v.26a4,4,0,0,0,.93,2.68,3,3,0,0,0,2.42,1.09,5.35,5.35,0,0,0,1.81-.27,3.69,3.69,0,0,0,1.28-.79l.48.72a4,4,0,0,1-1.46.9A6,6,0,0,1,280.36,119.57Zm-.15-9a2.81,2.81,0,0,0-2.11.9,3.65,3.65,0,0,0-1,2.23l0,0h6v-.27a2.92,2.92,0,0,0-.79-2.07A2.8,2.8,0,0,0,280.21,110.59Z"/><path class="cls-7" d="M291,114.71a5.9,5.9,0,0,1,1-3.65,3.44,3.44,0,0,1,2.9-1.36,4,4,0,0,1,1.85.4,3.58,3.58,0,0,1,1.3,1.18l.12-1.41h1v12.27l1.55.12V123h-4.23v-.78l1.54-.12v-4a3.38,3.38,0,0,1-1.3,1.07,4.41,4.41,0,0,1-1.84.37,3.53,3.53,0,0,1-2.88-1.28,5.23,5.23,0,0,1-1-3.4Zm1.15.18a4.61,4.61,0,0,0,.75,2.76,2.59,2.59,0,0,0,2.24,1,3.42,3.42,0,0,0,1.79-.44,3.09,3.09,0,0,0,1.13-1.22v-4.64a3.52,3.52,0,0,0-1.1-1.29,3.06,3.06,0,0,0-1.8-.5,2.52,2.52,0,0,0-2.25,1.15,5.24,5.24,0,0,0-.76,3Z"/><path class="cls-7" d="M309.43,117.82a3.5,3.5,0,0,1-1.33,1.29,4.14,4.14,0,0,1-2,.46,3.22,3.22,0,0,1-2.53-1,4.6,4.6,0,0,1-.92-3.17v-4.61l-1.27-.12v-.78h2.4v5.53a3.87,3.87,0,0,0,.64,2.5,2.26,2.26,0,0,0,1.82.75,3.56,3.56,0,0,0,2.05-.52,2.85,2.85,0,0,0,1.08-1.46v-5.9l-1.46-.12v-.78h2.6v8.62l1.37.12v.77h-2.37Z"/><path class="cls-7" d="M318.1,119.57a4.28,4.28,0,0,1-3.21-1.32,4.63,4.63,0,0,1-1.27-3.34v-.49a4.73,4.73,0,0,1,1.27-3.38,4.35,4.35,0,0,1,6-.24,4.07,4.07,0,0,1,1.08,3v.89h-7.25v.26a4,4,0,0,0,.93,2.68,3,3,0,0,0,2.42,1.09,5.39,5.39,0,0,0,1.81-.27,3.79,3.79,0,0,0,1.28-.79l.48.72a4,4,0,0,1-1.46.9A6,6,0,0,1,318.1,119.57Zm-.15-9a2.81,2.81,0,0,0-2.11.9,3.65,3.65,0,0,0-1,2.23l0,0h6v-.27a2.91,2.91,0,0,0-.78-2.07A2.8,2.8,0,0,0,318,110.59Z"/><path class="cls-7" d="M328.55,118.61l1.55-.12v-7.72l-1.55-.12v-.78h2.56l.1,1.66a3.62,3.62,0,0,1,1.33-1.36,4.07,4.07,0,0,1,2-.47,3.31,3.31,0,0,1,2.55.94,4.24,4.24,0,0,1,.87,3v4.9l1.55.12v.77h-4.24v-.77l1.55-.12V113.6a3.25,3.25,0,0,0-.66-2.31,2.49,2.49,0,0,0-1.87-.68,3.19,3.19,0,0,0-2,.58,3.24,3.24,0,0,0-1.08,1.56v5.74l1.55.12v.77h-4.24Z"/><path class="cls-7" d="M341.18,114.49a4.89,4.89,0,0,1,1.25-3.45,4.72,4.72,0,0,1,6.59,0,4.89,4.89,0,0,1,1.25,3.45v.29a4.93,4.93,0,0,1-1.24,3.45,4.73,4.73,0,0,1-6.6,0,4.89,4.89,0,0,1-1.25-3.45Zm1.14.29a4.24,4.24,0,0,0,.91,2.77,3.33,3.33,0,0,0,5,0,4.29,4.29,0,0,0,.9-2.77v-.29a4.23,4.23,0,0,0-.91-2.76,3.3,3.3,0,0,0-5,0,4.23,4.23,0,0,0-.91,2.76Z"/><path class="cls-7" d="M355,110.65l-1.28.09,2.56,6.26.33,1.12h.06L357,117l2.52-6.26-1.28-.09v-.78h3.46v.78l-1,.08-3.63,8.65h-.91l-3.63-8.65-1-.08v-.78H355Z"/><path class="cls-7" d="M369.89,119.38a7.38,7.38,0,0,1-.16-.83,4.28,4.28,0,0,1-.05-.72,4.36,4.36,0,0,1-1.52,1.24,4.56,4.56,0,0,1-2.14.5,3.44,3.44,0,0,1-2.33-.72,2.48,2.48,0,0,1-.83-2,2.38,2.38,0,0,1,1.23-2.09,6.2,6.2,0,0,1,3.32-.77h2.27v-1.26a2,2,0,0,0-.71-1.6,3.07,3.07,0,0,0-2-.58,5.44,5.44,0,0,0-1.56.22,3.72,3.72,0,0,0-1.18.58l-.1,1.28h-.94v-1.83a6.18,6.18,0,0,1,1.71-.83,6.9,6.9,0,0,1,2.11-.31,4.3,4.3,0,0,1,2.73.8,2.71,2.71,0,0,1,1,2.29v4.68c0,.19,0,.38,0,.55a4.52,4.52,0,0,0,.06.53l1,.06v.77Zm-3.74-.75a4.38,4.38,0,0,0,2.17-.52,3.24,3.24,0,0,0,1.36-1.36v-1.91h-2.29a4.58,4.58,0,0,0-2.47.59,1.75,1.75,0,0,0-.93,1.5,1.52,1.52,0,0,0,.58,1.24A2.44,2.44,0,0,0,366.15,118.63Z"/><path class="cls-7" d="M381,112.81H380l-.13-1.35a3,3,0,0,0-1.08-.64,4.53,4.53,0,0,0-1.49-.23,3,3,0,0,0-1.87.5,1.47,1.47,0,0,0-.62,1.16,1.33,1.33,0,0,0,.54,1.09,5.4,5.4,0,0,0,2.14.76,7.4,7.4,0,0,1,2.74,1,2.08,2.08,0,0,1,.91,1.78,2.26,2.26,0,0,1-1,1.92,4.66,4.66,0,0,1-2.75.74,6.72,6.72,0,0,1-2.07-.3,5,5,0,0,1-1.62-.83v-1.91h.92l.16,1.35a2.8,2.8,0,0,0,1.16.61,5.34,5.34,0,0,0,1.45.19,3.35,3.35,0,0,0,1.95-.5,1.42,1.42,0,0,0,.12-2.38,5,5,0,0,0-2.14-.82,7.57,7.57,0,0,1-2.72-1,2,2,0,0,1-.89-1.71,2.22,2.22,0,0,1,1-1.84,4.25,4.25,0,0,1,2.63-.75,6.14,6.14,0,0,1,2.06.32,4.2,4.2,0,0,1,1.52.86Z"/><path class="cls-7" d="M387.9,118.61l1.55-.12v-7.72l-1.55-.12v-.78h2.68v8.62l1.54.12v.77H387.9Zm2.68-11.46h-1.13v-1.48h1.13Z"/><path class="cls-7" d="M393.82,118.61l1.55-.12v-7.72l-1.55-.12v-.78h2.56l.1,1.66a3.62,3.62,0,0,1,1.33-1.36,4.07,4.07,0,0,1,2-.47,3.31,3.31,0,0,1,2.55.94,4.24,4.24,0,0,1,.87,3v4.9l1.55.12v.77h-4.24v-.77l1.55-.12V113.6a3.25,3.25,0,0,0-.66-2.31,2.49,2.49,0,0,0-1.87-.68,3.14,3.14,0,0,0-1.95.58,3.19,3.19,0,0,0-1.09,1.56v5.74l1.55.12v.77h-4.24Z"/><path class="cls-7" d="M406.39,110.73v-.86h1.7v-1.39a3,3,0,0,1,.78-2.21,2.91,2.91,0,0,1,2.17-.78,4.64,4.64,0,0,1,.63,0l.65.12-.14.87-.47-.08a4.39,4.39,0,0,0-.56,0,1.82,1.82,0,0,0-1.42.54,2.17,2.17,0,0,0-.5,1.53v1.39h2.45v.86h-2.45v7.76l1.54.12v.77h-4.23v-.77l1.55-.12v-7.76Z"/><path class="cls-7" d="M413.43,114.49a4.93,4.93,0,0,1,1.24-3.45,4.73,4.73,0,0,1,6.6,0,4.89,4.89,0,0,1,1.24,3.45v.29a4.92,4.92,0,0,1-1.23,3.45,4.75,4.75,0,0,1-6.61,0,4.93,4.93,0,0,1-1.24-3.45Zm1.14.29a4.29,4.29,0,0,0,.9,2.77,3,3,0,0,0,2.52,1.13,3,3,0,0,0,2.48-1.13,4.24,4.24,0,0,0,.91-2.77v-.29a4.28,4.28,0,0,0-.91-2.76,3.31,3.31,0,0,0-5,0,4.28,4.28,0,0,0-.9,2.76Z"/><path class="cls-7" d="M426.82,109.87l.15,1.58v.12a3.35,3.35,0,0,1,1.19-1.38,3.18,3.18,0,0,1,1.79-.49,3,3,0,0,1,.42,0l.34.06-.16,1-.84-.06a2.71,2.71,0,0,0-1.76.56,3,3,0,0,0-1,1.54v5.67l1.54.12v.77h-4.22v-.77l1.55-.12v-7.72l-1.55-.12v-.78h2.53Z"/><path class="cls-7" d="M431.93,110.65v-.78h2.55l.11,1.58a3.5,3.5,0,0,1,1.32-1.3,4,4,0,0,1,2-.45,3.41,3.41,0,0,1,2,.53,2.93,2.93,0,0,1,1.13,1.62,3.8,3.8,0,0,1,1.32-1.58,3.69,3.69,0,0,1,2.09-.57,3.19,3.19,0,0,1,2.54,1,4.59,4.59,0,0,1,.9,3.13v4.65l1.55.12v.77h-4.25v-.77l1.55-.12v-4.67a3.66,3.66,0,0,0-.67-2.49,2.43,2.43,0,0,0-1.86-.72,2.65,2.65,0,0,0-2.05.78,3.65,3.65,0,0,0-.89,2,.57.57,0,0,0,0,.13v5l1.55.12v.77h-4.23v-.77l1.54-.12v-4.67a3.59,3.59,0,0,0-.68-2.47,2.4,2.4,0,0,0-1.86-.74,2.76,2.76,0,0,0-2.91,2.09v5.79l1.54.12v.77h-4.23v-.77l1.55-.12v-7.72Z"/><path class="cls-7" d="M457.86,119.38a7.38,7.38,0,0,1-.16-.83,5.68,5.68,0,0,1-.05-.72,4.27,4.27,0,0,1-1.52,1.24,4.52,4.52,0,0,1-2.13.5,3.45,3.45,0,0,1-2.34-.72,2.47,2.47,0,0,1-.82-2,2.39,2.39,0,0,1,1.22-2.09,6.23,6.23,0,0,1,3.32-.77h2.27v-1.26a1.94,1.94,0,0,0-.71-1.6,3.06,3.06,0,0,0-2-.58,5.57,5.57,0,0,0-1.57.22,3.72,3.72,0,0,0-1.18.58l-.09,1.28h-.94v-1.83a6,6,0,0,1,1.7-.83,7,7,0,0,1,2.11-.31,4.31,4.31,0,0,1,2.74.8,2.71,2.71,0,0,1,1,2.29v4.68c0,.19,0,.38,0,.55a4.51,4.51,0,0,0,.07.53l1,.06v.77Zm-3.74-.75a4.36,4.36,0,0,0,2.17-.52,3.24,3.24,0,0,0,1.36-1.36v-1.91h-2.29a4.58,4.58,0,0,0-2.47.59,1.74,1.74,0,0,0-.92,1.5,1.54,1.54,0,0,0,.57,1.24A2.44,2.44,0,0,0,454.12,118.63Z"/><path class="cls-7" d="M465.88,118.68a3.39,3.39,0,0,0,2-.6,1.9,1.9,0,0,0,.87-1.66h1l0,0a2.54,2.54,0,0,1-1.13,2.21,4.48,4.48,0,0,1-2.75.89,4.08,4.08,0,0,1-3.24-1.33,5.09,5.09,0,0,1-1.14-3.43v-.37a5.07,5.07,0,0,1,1.14-3.41,4,4,0,0,1,3.23-1.33,5.45,5.45,0,0,1,2.17.41,4.23,4.23,0,0,1,1.61,1.12l.05,2.08h-1l-.18-1.69a3.15,3.15,0,0,0-1.14-.75,3.92,3.92,0,0,0-1.54-.28,2.8,2.8,0,0,0-2.44,1.1,4.55,4.55,0,0,0-.8,2.75v.37a4.66,4.66,0,0,0,.79,2.78A2.83,2.83,0,0,0,465.88,118.68Zm.29.78-.1.56a2.49,2.49,0,0,1,1.21.43,1.25,1.25,0,0,1,.46,1.08,1.46,1.46,0,0,1-.75,1.28,4.07,4.07,0,0,1-2.14.47l-.07-.68a3.41,3.41,0,0,0,1.43-.27.85.85,0,0,0,.58-.79.73.73,0,0,0-.39-.7,3.9,3.9,0,0,0-1.37-.26l.26-1.12Z"/><path class="cls-7" d="M471.88,114.49a4.89,4.89,0,0,1,1.24-3.45,4.73,4.73,0,0,1,6.6,0,4.89,4.89,0,0,1,1.24,3.45v.29a4.89,4.89,0,0,1-1.24,3.45,4.27,4.27,0,0,1-3.29,1.34,4.31,4.31,0,0,1-3.31-1.34,4.89,4.89,0,0,1-1.24-3.45Zm1.14.29a4.29,4.29,0,0,0,.9,2.77,3.33,3.33,0,0,0,5,0,4.29,4.29,0,0,0,.9-2.77v-.29a4.28,4.28,0,0,0-.9-2.76,3.31,3.31,0,0,0-5,0,4.28,4.28,0,0,0-.9,2.76Zm6.68-8.56a1.71,1.71,0,0,1-.52,1.28,1.79,1.79,0,0,1-1.3.51,2.63,2.63,0,0,1-1.44-.48,2.32,2.32,0,0,0-1.24-.49,1,1,0,0,0-.75.31,1.07,1.07,0,0,0-.3.78l-.75-.16a1.75,1.75,0,0,1,.51-1.27,1.73,1.73,0,0,1,1.29-.51,2.76,2.76,0,0,1,1.4.48,2.59,2.59,0,0,0,1.28.49,1,1,0,0,0,.75-.32,1.09,1.09,0,0,0,.31-.8Z"/><path class="cls-7" d="M487.34,119.57a4.28,4.28,0,0,1-3.21-1.32,4.59,4.59,0,0,1-1.27-3.34v-.49a4.73,4.73,0,0,1,1.27-3.38,4.35,4.35,0,0,1,6-.24,4.07,4.07,0,0,1,1.08,3v.89H484v.26a4,4,0,0,0,.93,2.68,3,3,0,0,0,2.42,1.09,5.33,5.33,0,0,0,1.8-.27,3.69,3.69,0,0,0,1.28-.79l.49.72a4.11,4.11,0,0,1-1.46.9A6,6,0,0,1,487.34,119.57Zm-.15-9a2.79,2.79,0,0,0-2.11.9,3.66,3.66,0,0,0-1,2.23l0,0h6v-.27a2.88,2.88,0,0,0-.79-2.07A2.76,2.76,0,0,0,487.19,110.59Z"/><path class="cls-7" d="M500.72,112.81h-.93l-.13-1.35a3,3,0,0,0-1.08-.64,4.53,4.53,0,0,0-1.49-.23,3,3,0,0,0-1.87.5,1.47,1.47,0,0,0-.62,1.16,1.33,1.33,0,0,0,.54,1.09,5.4,5.4,0,0,0,2.14.76,7.4,7.4,0,0,1,2.74,1,2.08,2.08,0,0,1,.91,1.78,2.26,2.26,0,0,1-1,1.92,4.66,4.66,0,0,1-2.75.74,6.72,6.72,0,0,1-2.07-.3,5,5,0,0,1-1.62-.83v-1.91h.92l.16,1.35a2.8,2.8,0,0,0,1.16.61,5.34,5.34,0,0,0,1.45.19,3.35,3.35,0,0,0,1.95-.5,1.42,1.42,0,0,0,.12-2.38,5,5,0,0,0-2.14-.82,7.57,7.57,0,0,1-2.72-1,2,2,0,0,1-.89-1.71,2.22,2.22,0,0,1,1-1.84,4.25,4.25,0,0,1,2.63-.75,6.14,6.14,0,0,1,2.06.32,4.2,4.2,0,0,1,1.52.86Z"/><path class="cls-7" d="M504.65,119a3.68,3.68,0,0,1-.36,1.58,3.74,3.74,0,0,1-1,1.31l-.67-.46a4.24,4.24,0,0,0,.66-1.15,3.62,3.62,0,0,0,.21-1.26v-1.25h1.13Z"/><path class="cls-7" d="M511.45,114.49a4.89,4.89,0,0,1,1.24-3.45,4.73,4.73,0,0,1,6.6,0,4.89,4.89,0,0,1,1.24,3.45v.29a4.89,4.89,0,0,1-1.24,3.45,4.27,4.27,0,0,1-3.29,1.34,4.31,4.31,0,0,1-3.31-1.34,4.89,4.89,0,0,1-1.24-3.45Zm1.14.29a4.29,4.29,0,0,0,.9,2.77,3.33,3.33,0,0,0,5,0,4.29,4.29,0,0,0,.9-2.77v-.29a4.23,4.23,0,0,0-.91-2.76,3.3,3.3,0,0,0-5,0,4.28,4.28,0,0,0-.9,2.76Z"/><path class="cls-7" d="M522,106.45v-.78h2.68v12.82l1.55.12v.77H522v-.77l1.55-.12V106.57Z"/><path class="cls-7" d="M527.65,106.45v-.78h2.67v5.83a3.72,3.72,0,0,1,1.37-1.33,4,4,0,0,1,2-.47,3.25,3.25,0,0,1,2.5.93,4.16,4.16,0,0,1,.86,2.89v5l1.55.12v.77h-4.23v-.77l1.55-.12v-5a3.1,3.1,0,0,0-.66-2.22,2.43,2.43,0,0,0-1.82-.67,3.22,3.22,0,0,0-1.95.57,3.39,3.39,0,0,0-1.16,1.5v5.81l1.55.12v.77h-4.22v-.77l1.55-.12V106.57Z"/><path class="cls-7" d="M547.39,119.38a7.38,7.38,0,0,1-.16-.83,5.68,5.68,0,0,1-.05-.72,4.36,4.36,0,0,1-1.52,1.24,4.52,4.52,0,0,1-2.13.5,3.45,3.45,0,0,1-2.34-.72,2.47,2.47,0,0,1-.82-2,2.37,2.37,0,0,1,1.22-2.09,6.23,6.23,0,0,1,3.32-.77h2.27v-1.26a1.94,1.94,0,0,0-.71-1.6,3.06,3.06,0,0,0-2-.58,5.46,5.46,0,0,0-1.57.22,3.72,3.72,0,0,0-1.18.58l-.09,1.28h-.94v-1.83a6,6,0,0,1,1.7-.83,7,7,0,0,1,2.11-.31,4.33,4.33,0,0,1,2.74.8,2.73,2.73,0,0,1,1,2.29v4.68c0,.19,0,.38,0,.55a3.07,3.07,0,0,0,.07.53l1,.06v.77Zm-3.74-.75a4.36,4.36,0,0,0,2.17-.52,3.24,3.24,0,0,0,1.36-1.36v-1.91h-2.29a4.58,4.58,0,0,0-2.47.59,1.74,1.74,0,0,0-.92,1.5,1.54,1.54,0,0,0,.57,1.24A2.44,2.44,0,0,0,543.65,118.63Z"/><path class="cls-7" d="M553.48,109.87l.15,1.58v.12a3.35,3.35,0,0,1,1.19-1.38,3.18,3.18,0,0,1,1.79-.49,3,3,0,0,1,.42,0l.33.06-.15,1-.84-.06a2.71,2.71,0,0,0-1.76.56,3,3,0,0,0-1,1.54v5.67l1.54.12v.77H551v-.77l1.55-.12v-7.72l-1.55-.12v-.78h2.53Z"/><path class="cls-7" d="M563.18,119.57a4.24,4.24,0,0,1-3.2-1.32,4.59,4.59,0,0,1-1.28-3.34v-.49A4.77,4.77,0,0,1,560,111,4.05,4.05,0,0,1,563,109.7a4,4,0,0,1,3,1.1,4.07,4.07,0,0,1,1.08,3v.89h-7.25v.26a4,4,0,0,0,.93,2.68,3,3,0,0,0,2.42,1.09,5.35,5.35,0,0,0,1.81-.27,3.79,3.79,0,0,0,1.28-.79l.48.72a4,4,0,0,1-1.46.9A6,6,0,0,1,563.18,119.57Zm-.15-9a2.81,2.81,0,0,0-2.11.9,3.65,3.65,0,0,0-1,2.23l0,0h6v-.27a2.92,2.92,0,0,0-.79-2.07A2.8,2.8,0,0,0,563,110.59Z"/><path class="cls-7" d="M576.57,112.81h-.93l-.14-1.35a2.91,2.91,0,0,0-1.07-.64,4.63,4.63,0,0,0-1.5-.23,2.93,2.93,0,0,0-1.86.5,1.45,1.45,0,0,0-.63,1.16,1.33,1.33,0,0,0,.54,1.09,5.47,5.47,0,0,0,2.14.76,7.33,7.33,0,0,1,2.74,1,2.08,2.08,0,0,1,.91,1.78,2.25,2.25,0,0,1-1,1.92,4.68,4.68,0,0,1-2.75.74,6.83,6.83,0,0,1-2.08-.3,5,5,0,0,1-1.62-.83v-1.91h.93l.16,1.35a2.76,2.76,0,0,0,1.15.61,5.41,5.41,0,0,0,1.46.19,3.34,3.34,0,0,0,1.94-.5,1.42,1.42,0,0,0,.12-2.38,4.9,4.9,0,0,0-2.14-.82,7.57,7.57,0,0,1-2.72-1,2,2,0,0,1-.89-1.71,2.25,2.25,0,0,1,1-1.84,4.27,4.27,0,0,1,2.63-.75A6.24,6.24,0,0,1,575,110a4.2,4.2,0,0,1,1.52.86Z"/><path class="cls-7" d="M583.57,114.49a4.89,4.89,0,0,1,1.24-3.45,4.73,4.73,0,0,1,6.6,0,4.89,4.89,0,0,1,1.24,3.45v.29a4.92,4.92,0,0,1-1.23,3.45,4.75,4.75,0,0,1-6.61,0,4.89,4.89,0,0,1-1.24-3.45Zm1.14.29a4.29,4.29,0,0,0,.9,2.77,3,3,0,0,0,2.52,1.13,3,3,0,0,0,2.48-1.13,4.29,4.29,0,0,0,.9-2.77v-.29a4.28,4.28,0,0,0-.9-2.76,3.31,3.31,0,0,0-5,0,4.28,4.28,0,0,0-.9,2.76Z"/><path class="cls-7" d="M602.05,117.82a3.41,3.41,0,0,1-1.32,1.29,4.14,4.14,0,0,1-2,.46,3.23,3.23,0,0,1-2.54-1,4.65,4.65,0,0,1-.92-3.17v-4.61l-1.27-.12v-.78h2.4v5.53a3.87,3.87,0,0,0,.64,2.5,2.26,2.26,0,0,0,1.82.75,3.56,3.56,0,0,0,2-.52,2.85,2.85,0,0,0,1.08-1.46v-5.9l-1.46-.12v-.78h2.6v8.62l1.38.12v.77h-2.38Z"/><path class="cls-7" d="M618.06,118a3.41,3.41,0,0,1-1.32,1.15,4.19,4.19,0,0,1-1.9.41,3.53,3.53,0,0,1-2.88-1.28,5.23,5.23,0,0,1-1-3.4v-.18a5.9,5.9,0,0,1,1-3.65,3.44,3.44,0,0,1,2.9-1.36,4,4,0,0,1,1.86.41A3.64,3.64,0,0,1,618,111.3v-4.73l-1.54-.12v-.78h2.68v12.82l1.55.12v.77h-2.56Zm-6-3.12a4.52,4.52,0,0,0,.75,2.74,2.58,2.58,0,0,0,2.24,1,3.45,3.45,0,0,0,1.83-.45,3.16,3.16,0,0,0,1.14-1.26v-4.5a3.34,3.34,0,0,0-1.09-1.32,3.15,3.15,0,0,0-1.86-.51,2.51,2.51,0,0,0-2.25,1.14,5.2,5.2,0,0,0-.76,3Z"/><path class="cls-7" d="M627,119.57a4.28,4.28,0,0,1-3.21-1.32,4.63,4.63,0,0,1-1.27-3.34v-.49a4.73,4.73,0,0,1,1.27-3.38,4.35,4.35,0,0,1,6-.24,4.07,4.07,0,0,1,1.08,3v.89h-7.25v.26a4,4,0,0,0,.93,2.68,3,3,0,0,0,2.42,1.09,5.33,5.33,0,0,0,1.8-.27,3.83,3.83,0,0,0,1.29-.79l.48.72a4.11,4.11,0,0,1-1.46.9A6,6,0,0,1,627,119.57Zm-.15-9a2.79,2.79,0,0,0-2.11.9,3.65,3.65,0,0,0-1,2.23l0,0h6v-.27a2.91,2.91,0,0,0-.78-2.07A2.8,2.8,0,0,0,626.84,110.59Z"/><path class="cls-7" d="M640.37,112.81h-.93l-.13-1.35a2.87,2.87,0,0,0-1.08-.64,4.53,4.53,0,0,0-1.49-.23,3,3,0,0,0-1.87.5,1.47,1.47,0,0,0-.62,1.16,1.33,1.33,0,0,0,.54,1.09,5.47,5.47,0,0,0,2.14.76,7.4,7.4,0,0,1,2.74,1,2.08,2.08,0,0,1,.91,1.78,2.24,2.24,0,0,1-1,1.92,4.65,4.65,0,0,1-2.74.74,6.83,6.83,0,0,1-2.08-.3,5,5,0,0,1-1.62-.83v-1.91H634l.17,1.35a2.7,2.7,0,0,0,1.15.61,5.36,5.36,0,0,0,1.46.19,3.34,3.34,0,0,0,1.94-.5,1.42,1.42,0,0,0,.12-2.38,5,5,0,0,0-2.14-.82,7.57,7.57,0,0,1-2.72-1,2,2,0,0,1-.89-1.71,2.25,2.25,0,0,1,1-1.84,4.25,4.25,0,0,1,2.63-.75,6.14,6.14,0,0,1,2.06.32,4.25,4.25,0,0,1,1.53.86Z"/><path class="cls-7" d="M649.74,119.38c-.07-.32-.13-.6-.16-.83a5.68,5.68,0,0,1-.05-.72,4.27,4.27,0,0,1-1.52,1.24,4.52,4.52,0,0,1-2.13.5,3.45,3.45,0,0,1-2.34-.72,2.47,2.47,0,0,1-.82-2,2.39,2.39,0,0,1,1.22-2.09,6.25,6.25,0,0,1,3.32-.77h2.27v-1.26a2,2,0,0,0-.7-1.6,3.09,3.09,0,0,0-2-.58,5.44,5.44,0,0,0-1.56.22,3.67,3.67,0,0,0-1.19.58l-.09,1.28h-.94v-1.83a6,6,0,0,1,1.7-.83,7,7,0,0,1,2.11-.31,4.31,4.31,0,0,1,2.74.8,2.71,2.71,0,0,1,1,2.29v4.68c0,.19,0,.38,0,.55a4.52,4.52,0,0,0,.06.53l1,.06v.77Zm-3.74-.75a4.39,4.39,0,0,0,2.18-.52,3.27,3.27,0,0,0,1.35-1.36v-1.91h-2.28a4.6,4.6,0,0,0-2.48.59,1.76,1.76,0,0,0-.92,1.5,1.54,1.54,0,0,0,.57,1.24A2.44,2.44,0,0,0,646,118.63Z"/><path class="cls-7" d="M653.17,118.61l1.54-.12v-7.76H653v-.86h1.69v-1.21a3,3,0,0,1,.91-2.35,3.6,3.6,0,0,1,2.51-.82,6.25,6.25,0,0,1,1.28.13,8.61,8.61,0,0,1,1.33.38l-.18.91a7.14,7.14,0,0,0-1.12-.34,5.83,5.83,0,0,0-1.24-.13,2.39,2.39,0,0,0-1.75.58,2.14,2.14,0,0,0-.6,1.64v1.21h5.9v8.62l1.54.12v.77h-4.22v-.77l1.55-.12v-7.76h-4.77v7.76l1.55.12v.77h-4.23Z"/><path class="cls-7" d="M664.85,114.49a4.93,4.93,0,0,1,1.24-3.45,4.73,4.73,0,0,1,6.6,0,4.89,4.89,0,0,1,1.24,3.45v.29a4.92,4.92,0,0,1-1.23,3.45,4.75,4.75,0,0,1-6.61,0,4.93,4.93,0,0,1-1.24-3.45Zm1.14.29a4.29,4.29,0,0,0,.9,2.77,3,3,0,0,0,2.52,1.13,3,3,0,0,0,2.48-1.13,4.24,4.24,0,0,0,.91-2.77v-.29a4.28,4.28,0,0,0-.91-2.76,3.31,3.31,0,0,0-5,0,4.28,4.28,0,0,0-.9,2.76Z"/><path class="cls-7" d="M683.24,112.81h-.93l-.14-1.35a2.91,2.91,0,0,0-1.07-.64,4.63,4.63,0,0,0-1.5-.23,2.93,2.93,0,0,0-1.86.5,1.45,1.45,0,0,0-.63,1.16,1.33,1.33,0,0,0,.54,1.09,5.47,5.47,0,0,0,2.14.76,7.33,7.33,0,0,1,2.74,1,2.08,2.08,0,0,1,.91,1.78,2.25,2.25,0,0,1-1,1.92,4.68,4.68,0,0,1-2.75.74,6.83,6.83,0,0,1-2.08-.3,5,5,0,0,1-1.62-.83v-1.91h.93l.16,1.35a2.76,2.76,0,0,0,1.15.61,5.41,5.41,0,0,0,1.46.19,3.34,3.34,0,0,0,1.94-.5,1.42,1.42,0,0,0,.12-2.38,4.9,4.9,0,0,0-2.14-.82,7.57,7.57,0,0,1-2.72-1,2,2,0,0,1-.89-1.71,2.25,2.25,0,0,1,1-1.84,4.27,4.27,0,0,1,2.63-.75,6.24,6.24,0,0,1,2.07.32,4.2,4.2,0,0,1,1.52.86Z"/><path class="cls-7" d="M223.66,134.41h-.93l-.13-1.35a2.87,2.87,0,0,0-1.08-.64,4.53,4.53,0,0,0-1.49-.23,3,3,0,0,0-1.87.5,1.47,1.47,0,0,0-.62,1.16,1.33,1.33,0,0,0,.54,1.09,5.47,5.47,0,0,0,2.14.76,7.4,7.4,0,0,1,2.74,1,2.08,2.08,0,0,1,.91,1.78,2.24,2.24,0,0,1-1,1.92,4.63,4.63,0,0,1-2.74.74,6.83,6.83,0,0,1-2.08-.3,5,5,0,0,1-1.62-.83v-1.91h.92l.17,1.35a2.7,2.7,0,0,0,1.15.61,5.36,5.36,0,0,0,1.46.19,3.34,3.34,0,0,0,1.94-.5,1.42,1.42,0,0,0,.12-2.38,4.9,4.9,0,0,0-2.14-.82,7.57,7.57,0,0,1-2.72-1,2,2,0,0,1-.89-1.71,2.25,2.25,0,0,1,1-1.84,4.25,4.25,0,0,1,2.63-.75,6.14,6.14,0,0,1,2.06.32,4.17,4.17,0,0,1,1.53.86Z"/><path class="cls-7" d="M233.49,139.42a3.44,3.44,0,0,1-1.33,1.29,4.12,4.12,0,0,1-2,.46,3.23,3.23,0,0,1-2.54-1,4.65,4.65,0,0,1-.92-3.17v-4.61l-1.27-.12v-.78h2.4V137a3.87,3.87,0,0,0,.64,2.5,2.26,2.26,0,0,0,1.82.75,3.48,3.48,0,0,0,2.05-.53,2.79,2.79,0,0,0,1.08-1.45v-5.9l-1.46-.12v-.78h2.6v8.62l1.38.12V141h-2.38Z"/><path class="cls-7" d="M240.09,131.47l.15,1.58v.12a3.35,3.35,0,0,1,1.19-1.38,3.18,3.18,0,0,1,1.79-.49,3,3,0,0,1,.42,0l.34.06-.16,1-.84-.06a2.71,2.71,0,0,0-1.76.56,3,3,0,0,0-1,1.54v5.67l1.54.12V141h-4.22v-.77l1.55-.12v-7.72l-1.55-.12v-.78h2.53Z"/><path class="cls-7" d="M245.31,136.31a5.84,5.84,0,0,1,1.05-3.65,3.46,3.46,0,0,1,2.91-1.36,3.84,3.84,0,0,1,1.9.44,3.75,3.75,0,0,1,1.32,1.25l.13-1.52h1v9.39a3.93,3.93,0,0,1-1.07,2.9,4.06,4.06,0,0,1-3,1.06,8.22,8.22,0,0,1-1.58-.16,7.28,7.28,0,0,1-1.47-.46l.31-.89a7,7,0,0,0,1.29.42,6.6,6.6,0,0,0,1.43.15,2.83,2.83,0,0,0,2.2-.8,3.1,3.1,0,0,0,.74-2.22v-1.21a3.48,3.48,0,0,1-1.32,1.12,4.06,4.06,0,0,1-1.87.4,3.53,3.53,0,0,1-2.89-1.28,5.18,5.18,0,0,1-1.05-3.4Zm1.14.18a4.47,4.47,0,0,0,.76,2.74,2.61,2.61,0,0,0,2.25,1,3.41,3.41,0,0,0,1.85-.46,3,3,0,0,0,1.13-1.29v-4.41a3.32,3.32,0,0,0-1.09-1.36,3.07,3.07,0,0,0-1.87-.52,2.54,2.54,0,0,0-2.26,1.14,5.22,5.22,0,0,0-.77,3Z"/><path class="cls-7" d="M256.09,140.21l1.54-.12v-7.72l-1.54-.12v-.78h2.67v8.62l1.55.12V141h-4.22Zm2.67-11.46h-1.13v-1.48h1.13Z"/><path class="cls-7" d="M264.68,131.47l.14,1.58v.12a3.43,3.43,0,0,1,1.19-1.38,3.18,3.18,0,0,1,1.79-.49,3,3,0,0,1,.42,0l.34.06-.15,1-.85-.06a2.73,2.73,0,0,0-1.76.56,3,3,0,0,0-1,1.54v5.67l1.55.12V141h-4.23v-.77l1.55-.12v-7.72l-1.55-.12v-.78h2.54Z"/><path class="cls-7" d="M274.38,141.17a4.26,4.26,0,0,1-3.21-1.32,4.59,4.59,0,0,1-1.27-3.34V136a4.77,4.77,0,0,1,1.26-3.38,4.05,4.05,0,0,1,3.06-1.34,4,4,0,0,1,3,1.1,4,4,0,0,1,1.09,3v.89H271v.26a4,4,0,0,0,.92,2.68,3,3,0,0,0,2.43,1.09,5.33,5.33,0,0,0,1.8-.27,3.69,3.69,0,0,0,1.28-.79l.48.72a4,4,0,0,1-1.46.9A6,6,0,0,1,274.38,141.17Zm-.16-9a2.83,2.83,0,0,0-2.11.89,3.74,3.74,0,0,0-1,2.24l0,.05h6v-.27a2.92,2.92,0,0,0-.79-2.07A2.8,2.8,0,0,0,274.22,132.19Z"/><path class="cls-7" d="M280.06,132.25v-.78h2.55l.11,1.57a3.55,3.55,0,0,1,1.32-1.29,4,4,0,0,1,2-.45,3.41,3.41,0,0,1,2,.53,2.93,2.93,0,0,1,1.13,1.62,3.8,3.8,0,0,1,1.32-1.58,3.69,3.69,0,0,1,2.09-.57,3.19,3.19,0,0,1,2.54,1,4.59,4.59,0,0,1,.9,3.13v4.64l1.55.13V141h-4.25v-.77l1.55-.13v-4.66a3.66,3.66,0,0,0-.67-2.49,2.41,2.41,0,0,0-1.86-.72,2.65,2.65,0,0,0-2,.78,3.65,3.65,0,0,0-.89,2s0,.09,0,.13v5l1.55.12V141h-4.23v-.77l1.54-.12v-4.67a3.65,3.65,0,0,0-.67-2.47,2.44,2.44,0,0,0-1.87-.74,2.76,2.76,0,0,0-2.91,2.09v5.79l1.54.12V141h-4.23v-.77l1.55-.12v-7.72Z"/><path class="cls-7" d="M300.55,140.56a3.82,3.82,0,0,1-.35,1.58,3.76,3.76,0,0,1-1,1.31l-.67-.46a4.24,4.24,0,0,0,.66-1.15,3.62,3.62,0,0,0,.21-1.26v-1.25h1.13Z"/><path class="cls-7" d="M314.44,141a7.38,7.38,0,0,1-.16-.83,5.81,5.81,0,0,1,0-.72,4.36,4.36,0,0,1-1.52,1.24,4.52,4.52,0,0,1-2.13.5,3.45,3.45,0,0,1-2.34-.72,2.49,2.49,0,0,1-.82-2,2.37,2.37,0,0,1,1.22-2.09,6.23,6.23,0,0,1,3.32-.77h2.27v-1.26a2,2,0,0,0-.71-1.6,3.07,3.07,0,0,0-2-.58,5.11,5.11,0,0,0-1.56.22,3.72,3.72,0,0,0-1.18.58l-.09,1.28h-.94v-1.83a6,6,0,0,1,1.7-.83,6.9,6.9,0,0,1,2.11-.31,4.3,4.3,0,0,1,2.73.8,2.71,2.71,0,0,1,1,2.29v4.68c0,.19,0,.38,0,.55a3.07,3.07,0,0,0,.07.53l1,.06V141Zm-3.74-.75a4.36,4.36,0,0,0,2.17-.52,3.2,3.2,0,0,0,1.36-1.37v-1.9h-2.29a4.58,4.58,0,0,0-2.47.59,1.75,1.75,0,0,0-.93,1.5,1.52,1.52,0,0,0,.58,1.23A2.38,2.38,0,0,0,310.7,140.23Z"/><path class="cls-7" d="M326.9,136.49a5.26,5.26,0,0,1-1,3.41,3.56,3.56,0,0,1-2.88,1.27,4.25,4.25,0,0,1-2-.42,3.36,3.36,0,0,1-1.31-1.2l-.13,1.43h-1V128.17l-1.54-.12v-.78h2.67V133a3.61,3.61,0,0,1,1.31-1.24,3.92,3.92,0,0,1,1.9-.43,3.44,3.44,0,0,1,2.9,1.36,5.9,5.9,0,0,1,1,3.65Zm-1.15-.18a5.2,5.2,0,0,0-.76-3,2.51,2.51,0,0,0-2.24-1.14,3.14,3.14,0,0,0-1.92.54,3.4,3.4,0,0,0-1.08,1.4v4.3a3,3,0,0,0,1.14,1.31,3.35,3.35,0,0,0,1.88.49,2.59,2.59,0,0,0,2.23-1,4.52,4.52,0,0,0,.75-2.74Z"/><path class="cls-7" d="M336.28,134.41h-.93l-.14-1.35a2.91,2.91,0,0,0-1.07-.64,4.59,4.59,0,0,0-1.5-.23,2.93,2.93,0,0,0-1.86.5,1.44,1.44,0,0,0-.62,1.16,1.32,1.32,0,0,0,.53,1.09,5.47,5.47,0,0,0,2.14.76,7.46,7.46,0,0,1,2.75,1,2.1,2.1,0,0,1,.91,1.78,2.26,2.26,0,0,1-1,1.92,4.68,4.68,0,0,1-2.75.74,6.72,6.72,0,0,1-2.07-.3A4.77,4.77,0,0,1,329,140v-1.91h.92l.16,1.35a2.76,2.76,0,0,0,1.15.61,5.41,5.41,0,0,0,1.46.19,3.39,3.39,0,0,0,1.95-.5,1.41,1.41,0,0,0,.11-2.38,4.9,4.9,0,0,0-2.14-.82,7.65,7.65,0,0,1-2.72-1,2,2,0,0,1-.88-1.71,2.23,2.23,0,0,1,1-1.84,4.27,4.27,0,0,1,2.63-.75,6.2,6.2,0,0,1,2.07.32,4.2,4.2,0,0,1,1.52.86Z"/><path class="cls-7" d="M341.17,129v2.43h2.25v.86h-2.25v6.2a1.93,1.93,0,0,0,.36,1.32,1.27,1.27,0,0,0,1,.39,4.7,4.7,0,0,0,.54,0l.6-.07.17.78a3.48,3.48,0,0,1-.69.17,4.47,4.47,0,0,1-.82.07,2.18,2.18,0,0,1-1.68-.64,2.83,2.83,0,0,1-.6-2v-6.2h-1.77v-.86H340V129Z"/><path class="cls-7" d="M348,131.47l.14,1.58v.12a3.43,3.43,0,0,1,1.19-1.38,3.2,3.2,0,0,1,1.79-.49,3,3,0,0,1,.43,0l.33.06-.15,1-.84-.06a2.69,2.69,0,0,0-1.76.56,3.08,3.08,0,0,0-1,1.54v5.67l1.55.12V141h-4.22v-.77l1.54-.12v-7.72l-1.54-.12v-.78H348Z"/><path class="cls-7" d="M360.41,141c-.07-.32-.13-.6-.16-.83a5.81,5.81,0,0,1-.05-.72,4.24,4.24,0,0,1-1.51,1.24,4.59,4.59,0,0,1-2.14.5,3.42,3.42,0,0,1-2.33-.72,2.49,2.49,0,0,1-.83-2,2.39,2.39,0,0,1,1.22-2.09,6.26,6.26,0,0,1,3.33-.77h2.26v-1.26a2,2,0,0,0-.7-1.6,3.07,3.07,0,0,0-2-.58,5.11,5.11,0,0,0-1.56.22,3.61,3.61,0,0,0-1.18.58l-.1,1.28h-.94v-1.83a6.12,6.12,0,0,1,1.7-.83,7,7,0,0,1,2.12-.31,4.3,4.3,0,0,1,2.73.8,2.71,2.71,0,0,1,1,2.29v4.68c0,.19,0,.38,0,.55a4.52,4.52,0,0,0,.06.53l1,.06V141Zm-3.74-.75a4.39,4.39,0,0,0,2.18-.52,3.18,3.18,0,0,0,1.35-1.37v-1.9h-2.28a4.62,4.62,0,0,0-2.48.59,1.76,1.76,0,0,0-.92,1.5,1.51,1.51,0,0,0,.57,1.23A2.4,2.4,0,0,0,356.67,140.23Z"/><path class="cls-7" d="M368.43,140.28a3.42,3.42,0,0,0,2-.6,1.92,1.92,0,0,0,.86-1.66h1l0,0a2.55,2.55,0,0,1-1.14,2.21,4.46,4.46,0,0,1-2.75.89,4,4,0,0,1-3.23-1.34,5,5,0,0,1-1.15-3.42V136a5,5,0,0,1,1.15-3.41,4,4,0,0,1,3.22-1.33,5.53,5.53,0,0,1,2.18.41,4.19,4.19,0,0,1,1.6,1.12l.05,2.08h-1l-.18-1.69a3.11,3.11,0,0,0-1.13-.75,4,4,0,0,0-1.55-.28,2.81,2.81,0,0,0-2.44,1.1,4.54,4.54,0,0,0-.79,2.75v.37a4.6,4.6,0,0,0,.79,2.78A2.8,2.8,0,0,0,368.43,140.28Zm.3.78-.11.56a2.45,2.45,0,0,1,1.21.43,1.25,1.25,0,0,1,.46,1.08,1.48,1.48,0,0,1-.75,1.28,4.07,4.07,0,0,1-2.14.47l-.07-.68a3.38,3.38,0,0,0,1.43-.27.85.85,0,0,0,.58-.79.74.74,0,0,0-.38-.7,3.91,3.91,0,0,0-1.38-.26l.26-1.12Z"/><path class="cls-7" d="M374.43,136.09a4.89,4.89,0,0,1,1.25-3.45,4.72,4.72,0,0,1,6.59,0,4.89,4.89,0,0,1,1.25,3.45v.29a4.93,4.93,0,0,1-1.24,3.45,4.73,4.73,0,0,1-6.6,0,4.89,4.89,0,0,1-1.25-3.45Zm1.14.29a4.29,4.29,0,0,0,.9,2.77,3,3,0,0,0,2.52,1.13,3,3,0,0,0,2.48-1.13,4.24,4.24,0,0,0,.91-2.77v-.29a4.28,4.28,0,0,0-.91-2.76,3.31,3.31,0,0,0-5,0,4.28,4.28,0,0,0-.9,2.76Zm6.68-8.56a1.71,1.71,0,0,1-.52,1.28,1.79,1.79,0,0,1-1.3.51,2.58,2.58,0,0,1-1.43-.48,2.35,2.35,0,0,0-1.25-.49,1,1,0,0,0-.75.31,1.07,1.07,0,0,0-.3.78l-.75-.16a1.74,1.74,0,0,1,1.8-1.78,2.73,2.73,0,0,1,1.4.48,2.72,2.72,0,0,0,1.28.49,1,1,0,0,0,.75-.32,1.09,1.09,0,0,0,.31-.8Z"/><path class="cls-7" d="M389.89,141.17a4.24,4.24,0,0,1-3.2-1.32,4.59,4.59,0,0,1-1.28-3.34V136a4.77,4.77,0,0,1,1.27-3.38,4.05,4.05,0,0,1,3.06-1.34,4,4,0,0,1,3,1.1,4.07,4.07,0,0,1,1.08,3v.89h-7.25v.26a4,4,0,0,0,.93,2.68,3,3,0,0,0,2.42,1.09,5.35,5.35,0,0,0,1.81-.27,3.79,3.79,0,0,0,1.28-.79l.48.72a4,4,0,0,1-1.46.9A6,6,0,0,1,389.89,141.17Zm-.15-9a2.83,2.83,0,0,0-2.11.89,3.68,3.68,0,0,0-1,2.24l0,.05h6v-.27a2.92,2.92,0,0,0-.79-2.07A2.8,2.8,0,0,0,389.74,132.19Z"/><path class="cls-7" d="M403.28,134.41h-.93l-.14-1.35a2.91,2.91,0,0,0-1.07-.64,4.63,4.63,0,0,0-1.5-.23,2.93,2.93,0,0,0-1.86.5,1.45,1.45,0,0,0-.63,1.16,1.33,1.33,0,0,0,.54,1.09,5.47,5.47,0,0,0,2.14.76,7.33,7.33,0,0,1,2.74,1,2.08,2.08,0,0,1,.91,1.78,2.25,2.25,0,0,1-1,1.92,4.68,4.68,0,0,1-2.75.74,6.83,6.83,0,0,1-2.08-.3A5,5,0,0,1,396,140v-1.91h.93l.16,1.35a2.76,2.76,0,0,0,1.15.61,5.41,5.41,0,0,0,1.46.19,3.34,3.34,0,0,0,1.94-.5,1.42,1.42,0,0,0,.12-2.38,4.9,4.9,0,0,0-2.14-.82,7.57,7.57,0,0,1-2.72-1,2,2,0,0,1-.89-1.71,2.25,2.25,0,0,1,1-1.84,4.27,4.27,0,0,1,2.63-.75,6.24,6.24,0,0,1,2.07.32,4.2,4.2,0,0,1,1.52.86Z"/><path class="cls-7" d="M410,132.25v-.78h2.49l.15,1.48a3.46,3.46,0,0,1,1.33-1.22,4,4,0,0,1,1.9-.43,3.46,3.46,0,0,1,2.9,1.36,5.9,5.9,0,0,1,1,3.65v.18a5.26,5.26,0,0,1-1,3.41,3.56,3.56,0,0,1-2.88,1.27,4.31,4.31,0,0,1-1.89-.39,3.35,3.35,0,0,1-1.33-1.08v4l1.55.12v.78H410v-.78l1.54-.12V132.37Zm8.67,4.06a5.15,5.15,0,0,0-.78-3,2.59,2.59,0,0,0-2.28-1.14,3.15,3.15,0,0,0-1.86.51,3.07,3.07,0,0,0-1.08,1.31v4.57a3,3,0,0,0,1.13,1.23,3.45,3.45,0,0,0,1.83.45,2.66,2.66,0,0,0,2.27-1,4.53,4.53,0,0,0,.77-2.75Z"/><path class="cls-7" d="M421.64,136.09a4.93,4.93,0,0,1,1.24-3.45,4.73,4.73,0,0,1,6.6,0,4.89,4.89,0,0,1,1.24,3.45v.29a4.92,4.92,0,0,1-1.23,3.45,4.75,4.75,0,0,1-6.61,0,4.93,4.93,0,0,1-1.24-3.45Zm1.14.29a4.29,4.29,0,0,0,.9,2.77,3,3,0,0,0,2.52,1.13,3,3,0,0,0,2.48-1.13,4.24,4.24,0,0,0,.91-2.77v-.29a4.28,4.28,0,0,0-.91-2.76,3.31,3.31,0,0,0-5,0,4.28,4.28,0,0,0-.9,2.76Z"/><path class="cls-7" d="M439.71,139.61a3.41,3.41,0,0,1-1.32,1.15,4.15,4.15,0,0,1-1.89.41,3.54,3.54,0,0,1-2.89-1.28,5.22,5.22,0,0,1-1-3.4v-.18a5.9,5.9,0,0,1,1-3.65,3.44,3.44,0,0,1,2.9-1.36,4,4,0,0,1,1.86.41,3.56,3.56,0,0,1,1.31,1.19v-4.73l-1.54-.12v-.78h2.68v12.82l1.55.12V141h-2.56Zm-6-3.12a4.52,4.52,0,0,0,.75,2.74,2.58,2.58,0,0,0,2.24,1,3.36,3.36,0,0,0,1.83-.46,3.06,3.06,0,0,0,1.14-1.25V134a3.26,3.26,0,0,0-1.09-1.32,3.15,3.15,0,0,0-1.86-.51,2.51,2.51,0,0,0-2.25,1.14,5.2,5.2,0,0,0-.76,3Z"/><path class="cls-7" d="M448.64,141.17a4.24,4.24,0,0,1-3.2-1.32,4.59,4.59,0,0,1-1.28-3.34V136a4.77,4.77,0,0,1,1.27-3.38,4.05,4.05,0,0,1,3.06-1.34,4,4,0,0,1,3,1.1,4.07,4.07,0,0,1,1.08,3v.89h-7.25v.26a4,4,0,0,0,.93,2.68,3,3,0,0,0,2.42,1.09,5.35,5.35,0,0,0,1.81-.27,3.79,3.79,0,0,0,1.28-.79l.48.72a4,4,0,0,1-1.46.9A6,6,0,0,1,448.64,141.17Zm-.15-9a2.83,2.83,0,0,0-2.11.89,3.68,3.68,0,0,0-1,2.24l0,.05h6v-.27a2.92,2.92,0,0,0-.79-2.07A2.8,2.8,0,0,0,448.49,132.19Z"/><path class="cls-7" d="M457,131.47l.15,1.58v.12a3.35,3.35,0,0,1,1.19-1.38,3.18,3.18,0,0,1,1.79-.49,3,3,0,0,1,.42,0l.34.06-.16,1-.84-.06a2.71,2.71,0,0,0-1.76.56,3,3,0,0,0-1,1.54v5.67l1.54.12V141H454.5v-.77l1.55-.12v-7.72l-1.55-.12v-.78H457Z"/><path class="cls-7" d="M469.48,141a7.38,7.38,0,0,1-.16-.83,4.36,4.36,0,0,1-.05-.72,4.36,4.36,0,0,1-1.52,1.24,4.56,4.56,0,0,1-2.14.5,3.44,3.44,0,0,1-2.33-.72,2.49,2.49,0,0,1-.83-2,2.38,2.38,0,0,1,1.23-2.09,6.2,6.2,0,0,1,3.32-.77h2.27v-1.26a2,2,0,0,0-.71-1.6,3.07,3.07,0,0,0-2-.58,5.11,5.11,0,0,0-1.56.22,3.72,3.72,0,0,0-1.18.58l-.1,1.28h-.94v-1.83a6.18,6.18,0,0,1,1.71-.83,6.9,6.9,0,0,1,2.11-.31,4.3,4.3,0,0,1,2.73.8,2.71,2.71,0,0,1,1,2.29v4.68c0,.19,0,.38,0,.55a4.52,4.52,0,0,0,.06.53l1,.06V141Zm.4-13.17a1.71,1.71,0,0,1-.52,1.28,1.79,1.79,0,0,1-1.3.51,2.6,2.6,0,0,1-1.43-.48,2.35,2.35,0,0,0-1.24-.49,1,1,0,0,0-.75.31,1.06,1.06,0,0,0-.31.78l-.75-.16a1.74,1.74,0,0,1,1.81-1.78,2.79,2.79,0,0,1,1.4.48,2.56,2.56,0,0,0,1.27.49,1,1,0,0,0,.75-.32,1.09,1.09,0,0,0,.32-.8Zm-4.14,12.42a4.38,4.38,0,0,0,2.17-.52,3.2,3.2,0,0,0,1.36-1.37v-1.9H467a4.58,4.58,0,0,0-2.47.59,1.75,1.75,0,0,0-.93,1.5,1.49,1.49,0,0,0,.58,1.23A2.38,2.38,0,0,0,465.74,140.23Z"/><path class="cls-7" d="M473.11,136.09a4.93,4.93,0,0,1,1.24-3.45,4.73,4.73,0,0,1,6.6,0,4.89,4.89,0,0,1,1.24,3.45v.29a4.92,4.92,0,0,1-1.23,3.45,4.75,4.75,0,0,1-6.61,0,4.93,4.93,0,0,1-1.24-3.45Zm1.14.29a4.29,4.29,0,0,0,.9,2.77,3,3,0,0,0,2.52,1.13,3,3,0,0,0,2.48-1.13,4.29,4.29,0,0,0,.91-2.77v-.29a4.28,4.28,0,0,0-.91-2.76,3.31,3.31,0,0,0-5,0,4.28,4.28,0,0,0-.9,2.76Z"/><path class="cls-7" d="M496.22,134.41h-.93l-.13-1.35a3,3,0,0,0-1.08-.64,4.53,4.53,0,0,0-1.49-.23,3,3,0,0,0-1.87.5,1.47,1.47,0,0,0-.62,1.16,1.33,1.33,0,0,0,.54,1.09,5.4,5.4,0,0,0,2.14.76,7.4,7.4,0,0,1,2.74,1,2.08,2.08,0,0,1,.91,1.78,2.26,2.26,0,0,1-1,1.92,4.66,4.66,0,0,1-2.75.74,6.72,6.72,0,0,1-2.07-.3A5,5,0,0,1,489,140v-1.91h.92l.16,1.35a2.8,2.8,0,0,0,1.16.61,5.34,5.34,0,0,0,1.45.19,3.35,3.35,0,0,0,1.95-.5,1.42,1.42,0,0,0,.12-2.38,5,5,0,0,0-2.14-.82,7.57,7.57,0,0,1-2.72-1,2,2,0,0,1-.89-1.71,2.22,2.22,0,0,1,1-1.84,4.25,4.25,0,0,1,2.63-.75,6.14,6.14,0,0,1,2.06.32,4.2,4.2,0,0,1,1.52.86Z"/><path class="cls-7" d="M503,141.17a4.28,4.28,0,0,1-3.21-1.32,4.59,4.59,0,0,1-1.27-3.34V136a4.77,4.77,0,0,1,1.26-3.38,4.06,4.06,0,0,1,3.07-1.34,4,4,0,0,1,3,1.1,4.07,4.07,0,0,1,1.08,3v.89h-7.25v.26a4,4,0,0,0,.92,2.68,3,3,0,0,0,2.43,1.09,5.33,5.33,0,0,0,1.8-.27,3.69,3.69,0,0,0,1.28-.79l.49.72a4.15,4.15,0,0,1-1.47.9A6,6,0,0,1,503,141.17Zm-.15-9a2.85,2.85,0,0,0-2.12.89,3.74,3.74,0,0,0-1,2.24l0,.05h6v-.27A2.88,2.88,0,0,0,505,133,2.78,2.78,0,0,0,502.88,132.19Z"/><path class="cls-7" d="M511.42,131.47l.14,1.58v.12a3.43,3.43,0,0,1,1.19-1.38,3.18,3.18,0,0,1,1.79-.49,2.86,2.86,0,0,1,.42,0l.34.06-.15,1-.85-.06a2.73,2.73,0,0,0-1.76.56,3.07,3.07,0,0,0-1,1.54v5.67l1.55.12V141h-4.23v-.77l1.55-.12v-7.72l-1.55-.12v-.78h2.54Z"/><path class="cls-7" d="M524,131.47l.14,1.58v.12a3.43,3.43,0,0,1,1.19-1.38,3.18,3.18,0,0,1,1.79-.49,3,3,0,0,1,.42,0l.34.06-.15,1-.85-.06a2.73,2.73,0,0,0-1.76.56,3,3,0,0,0-1,1.54v5.67l1.54.12V141h-4.22v-.77l1.55-.12v-7.72l-1.55-.12v-.78H524Z"/><path class="cls-7" d="M533.66,141.17a4.24,4.24,0,0,1-3.21-1.32,4.59,4.59,0,0,1-1.28-3.34V136a4.77,4.77,0,0,1,1.27-3.38,4.05,4.05,0,0,1,3.06-1.34,4,4,0,0,1,3,1.1,4,4,0,0,1,1.09,3v.89H530.3v.26a4,4,0,0,0,.93,2.68,3,3,0,0,0,2.43,1.09,5.33,5.33,0,0,0,1.8-.27,3.79,3.79,0,0,0,1.28-.79l.48.72a4,4,0,0,1-1.46.9A6,6,0,0,1,533.66,141.17Zm-.16-9a2.83,2.83,0,0,0-2.11.89,3.74,3.74,0,0,0-1,2.24l0,.05h6v-.27a2.92,2.92,0,0,0-.79-2.07A2.8,2.8,0,0,0,533.5,132.19Z"/><path class="cls-7" d="M542.44,132.25l-1.28.09,2.57,6.26.33,1.12h.05l.36-1.12,2.53-6.26-1.28-.09v-.78h3.45v.78l-1,.08L544.54,141h-.91L540,132.33l-1-.08v-.78h3.45Z"/><path class="cls-7" d="M550.35,140.21l1.55-.12v-7.72l-1.55-.12v-.78H553v8.62l1.54.12V141h-4.22ZM553,128.75H551.9v-1.48H553Z"/><path class="cls-7" d="M563.93,134.41H563l-.13-1.35a3,3,0,0,0-1.08-.64,4.53,4.53,0,0,0-1.49-.23,3,3,0,0,0-1.87.5,1.47,1.47,0,0,0-.62,1.16,1.33,1.33,0,0,0,.54,1.09,5.4,5.4,0,0,0,2.14.76,7.4,7.4,0,0,1,2.74,1,2.08,2.08,0,0,1,.91,1.78,2.26,2.26,0,0,1-1,1.92,4.66,4.66,0,0,1-2.75.74,6.72,6.72,0,0,1-2.07-.3,5,5,0,0,1-1.62-.83v-1.91h.92l.16,1.35a2.8,2.8,0,0,0,1.16.61,5.34,5.34,0,0,0,1.45.19,3.35,3.35,0,0,0,1.95-.5,1.42,1.42,0,0,0,.12-2.38,5,5,0,0,0-2.14-.82,7.57,7.57,0,0,1-2.72-1,2,2,0,0,1-.89-1.71,2.22,2.22,0,0,1,1-1.84,4.25,4.25,0,0,1,2.63-.75,6.14,6.14,0,0,1,2.06.32,4.2,4.2,0,0,1,1.52.86Z"/><path class="cls-7" d="M573.3,141a7.38,7.38,0,0,1-.16-.83,5.81,5.81,0,0,1,0-.72,4.27,4.27,0,0,1-1.52,1.24,4.52,4.52,0,0,1-2.13.5,3.45,3.45,0,0,1-2.34-.72,2.49,2.49,0,0,1-.82-2,2.37,2.37,0,0,1,1.22-2.09,6.23,6.23,0,0,1,3.32-.77h2.27v-1.26a1.94,1.94,0,0,0-.71-1.6,3.06,3.06,0,0,0-2-.58,5.14,5.14,0,0,0-1.57.22,3.72,3.72,0,0,0-1.18.58l-.09,1.28h-.94v-1.83a6,6,0,0,1,1.7-.83,7,7,0,0,1,2.11-.31,4.33,4.33,0,0,1,2.74.8,2.71,2.71,0,0,1,1,2.29v4.68c0,.19,0,.38,0,.55a3.07,3.07,0,0,0,.07.53l1,.06V141Zm-3.74-.75a4.36,4.36,0,0,0,2.17-.52,3.2,3.2,0,0,0,1.36-1.37v-1.9H570.8a4.58,4.58,0,0,0-2.47.59,1.74,1.74,0,0,0-.92,1.5,1.51,1.51,0,0,0,.57,1.23A2.38,2.38,0,0,0,569.56,140.23Z"/><path class="cls-7" d="M584.07,139.61a3.41,3.41,0,0,1-1.32,1.15,4.19,4.19,0,0,1-1.9.41,3.53,3.53,0,0,1-2.88-1.28,5.23,5.23,0,0,1-1-3.4v-.18a5.9,5.9,0,0,1,1-3.65,3.44,3.44,0,0,1,2.9-1.36,4,4,0,0,1,1.86.41A3.56,3.56,0,0,1,584,132.9v-4.73l-1.54-.12v-.78h2.68v12.82l1.55.12V141h-2.56Zm-6-3.12a4.52,4.52,0,0,0,.75,2.74,2.58,2.58,0,0,0,2.24,1,3.36,3.36,0,0,0,1.83-.46,3.06,3.06,0,0,0,1.14-1.25V134a3.34,3.34,0,0,0-1.09-1.32,3.15,3.15,0,0,0-1.86-.51,2.51,2.51,0,0,0-2.25,1.14,5.2,5.2,0,0,0-.76,3Z"/><path class="cls-7" d="M595.57,141c-.08-.32-.13-.6-.17-.83a5.79,5.79,0,0,1,0-.72,4.36,4.36,0,0,1-1.52,1.24,4.56,4.56,0,0,1-2.14.5,3.44,3.44,0,0,1-2.33-.72,2.49,2.49,0,0,1-.83-2,2.38,2.38,0,0,1,1.23-2.09,6.2,6.2,0,0,1,3.32-.77h2.27v-1.26a2,2,0,0,0-.71-1.6,3.07,3.07,0,0,0-2-.58,5.11,5.11,0,0,0-1.56.22,3.61,3.61,0,0,0-1.18.58l-.1,1.28h-.94v-1.83a6.18,6.18,0,0,1,1.71-.83,6.9,6.9,0,0,1,2.11-.31,4.3,4.3,0,0,1,2.73.8,2.71,2.71,0,0,1,1,2.29v4.68c0,.19,0,.38,0,.55a4.52,4.52,0,0,0,.06.53l1,.06V141Zm-3.74-.75a4.38,4.38,0,0,0,2.17-.52,3.2,3.2,0,0,0,1.36-1.37v-1.9h-2.29a4.56,4.56,0,0,0-2.47.59,1.75,1.75,0,0,0-.93,1.5,1.49,1.49,0,0,0,.58,1.23A2.38,2.38,0,0,0,591.83,140.23Z"/><path class="cls-7" d="M606.65,134.41h-.93l-.13-1.35a3,3,0,0,0-1.08-.64,4.53,4.53,0,0,0-1.49-.23,3,3,0,0,0-1.87.5,1.47,1.47,0,0,0-.62,1.16,1.33,1.33,0,0,0,.54,1.09,5.4,5.4,0,0,0,2.14.76,7.4,7.4,0,0,1,2.74,1,2.08,2.08,0,0,1,.91,1.78,2.26,2.26,0,0,1-1,1.92,4.66,4.66,0,0,1-2.75.74,6.72,6.72,0,0,1-2.07-.3,5,5,0,0,1-1.62-.83v-1.91h.92l.16,1.35a2.8,2.8,0,0,0,1.16.61,5.34,5.34,0,0,0,1.45.19,3.39,3.39,0,0,0,1.95-.5,1.42,1.42,0,0,0,.12-2.38,5,5,0,0,0-2.14-.82,7.57,7.57,0,0,1-2.72-1,2,2,0,0,1-.89-1.71,2.22,2.22,0,0,1,1-1.84,4.25,4.25,0,0,1,2.63-.75,6.14,6.14,0,0,1,2.06.32,4.2,4.2,0,0,1,1.52.86Z"/><path class="cls-7" d="M613.66,136.09a4.89,4.89,0,0,1,1.24-3.45,4.73,4.73,0,0,1,6.6,0,4.93,4.93,0,0,1,1.24,3.45v.29a4.89,4.89,0,0,1-1.24,3.45,4.73,4.73,0,0,1-6.6,0,4.89,4.89,0,0,1-1.24-3.45Zm1.13.29a4.24,4.24,0,0,0,.91,2.77,3.33,3.33,0,0,0,5,0,4.29,4.29,0,0,0,.9-2.77v-.29a4.23,4.23,0,0,0-.91-2.76,3.3,3.3,0,0,0-5,0,4.23,4.23,0,0,0-.91,2.76Z"/><path class="cls-7" d="M632.13,139.42a3.41,3.41,0,0,1-1.32,1.29,4.14,4.14,0,0,1-2,.46,3.24,3.24,0,0,1-2.54-1,4.65,4.65,0,0,1-.91-3.17v-4.61l-1.28-.12v-.78h2.41V137a3.87,3.87,0,0,0,.64,2.5,2.24,2.24,0,0,0,1.81.75,3.52,3.52,0,0,0,2.06-.53,2.79,2.79,0,0,0,1.08-1.45v-5.9l-1.47-.12v-.78h2.61v8.62l1.37.12V141h-2.37Z"/><path class="cls-7" d="M218.67,153.07l.14,1.58v.12a3.45,3.45,0,0,1,1.2-1.38,3.15,3.15,0,0,1,1.78-.49,3,3,0,0,1,.43,0l.33.06-.15,1-.84-.06a2.71,2.71,0,0,0-1.76.56,3.13,3.13,0,0,0-1,1.54v5.67l1.55.12v.77h-4.22v-.77l1.55-.12V154l-1.55-.12v-.78h2.53Z"/><path class="cls-7" d="M228.37,162.77a4.28,4.28,0,0,1-3.21-1.32,4.63,4.63,0,0,1-1.27-3.34v-.48a4.74,4.74,0,0,1,1.27-3.39,4.35,4.35,0,0,1,6-.24,4.07,4.07,0,0,1,1.08,3v.89H225v.26a4,4,0,0,0,.93,2.68,3,3,0,0,0,2.42,1.09,5.39,5.39,0,0,0,1.81-.27,3.79,3.79,0,0,0,1.28-.79l.48.72a4,4,0,0,1-1.46.9A6,6,0,0,1,228.37,162.77Zm-.15-9a2.81,2.81,0,0,0-2.11.9,3.65,3.65,0,0,0-1,2.23l0,.05h6v-.27a2.91,2.91,0,0,0-.78-2.07A2.8,2.8,0,0,0,228.22,153.79Z"/><path class="cls-7" d="M238.69,161.88a3.39,3.39,0,0,0,2-.6,1.9,1.9,0,0,0,.87-1.66h1l0,0a2.54,2.54,0,0,1-1.13,2.21,4.48,4.48,0,0,1-2.75.89,4.08,4.08,0,0,1-3.24-1.33A5.1,5.1,0,0,1,234.3,158v-.37a5.08,5.08,0,0,1,1.15-3.41,4,4,0,0,1,3.23-1.33,5.45,5.45,0,0,1,2.17.41,4.23,4.23,0,0,1,1.61,1.12l0,2.08h-1l-.18-1.69a3.24,3.24,0,0,0-1.14-.75,3.92,3.92,0,0,0-1.54-.28,2.8,2.8,0,0,0-2.44,1.1,4.57,4.57,0,0,0-.8,2.75V158a4.66,4.66,0,0,0,.79,2.78A2.83,2.83,0,0,0,238.69,161.88Z"/><path class="cls-7" d="M244.69,157.69a4.89,4.89,0,0,1,1.24-3.45,4.73,4.73,0,0,1,6.6,0,4.89,4.89,0,0,1,1.24,3.45V158a4.89,4.89,0,0,1-1.24,3.45,4.27,4.27,0,0,1-3.29,1.34,4.31,4.31,0,0,1-3.31-1.34,4.89,4.89,0,0,1-1.24-3.45Zm1.14.29a4.29,4.29,0,0,0,.9,2.77,3.33,3.33,0,0,0,5,0,4.29,4.29,0,0,0,.9-2.77v-.29a4.28,4.28,0,0,0-.9-2.76,3,3,0,0,0-2.51-1.14,3,3,0,0,0-2.49,1.14,4.28,4.28,0,0,0-.9,2.76Z"/><path class="cls-7" d="M255.41,161.81l1.55-.12V154l-1.55-.12v-.78H258l.1,1.66a3.52,3.52,0,0,1,1.33-1.35,4,4,0,0,1,2-.48,3.31,3.31,0,0,1,2.55.94,4.24,4.24,0,0,1,.87,2.95v4.9l1.55.12v.77h-4.24v-.77l1.55-.12V156.8a3.25,3.25,0,0,0-.66-2.31,2.49,2.49,0,0,0-1.87-.68,3.14,3.14,0,0,0-1.95.58A3.24,3.24,0,0,0,258.1,156v5.74l1.55.12v.77h-4.24Z"/><path class="cls-7" d="M275.59,156h-.93l-.13-1.35a3,3,0,0,0-1.08-.64,4.53,4.53,0,0,0-1.49-.23,3,3,0,0,0-1.87.5,1.47,1.47,0,0,0-.62,1.16,1.33,1.33,0,0,0,.54,1.09,5.4,5.4,0,0,0,2.14.76,7.4,7.4,0,0,1,2.74,1,2.08,2.08,0,0,1,.91,1.78,2.26,2.26,0,0,1-1,1.92,4.66,4.66,0,0,1-2.75.74,6.72,6.72,0,0,1-2.07-.3,5,5,0,0,1-1.62-.83v-1.91h.92l.16,1.35a2.8,2.8,0,0,0,1.16.61,5.34,5.34,0,0,0,1.45.19,3.37,3.37,0,0,0,1.95-.5,1.48,1.48,0,0,0,.71-1.21,1.5,1.5,0,0,0-.59-1.17,5,5,0,0,0-2.14-.82,7.57,7.57,0,0,1-2.72-1,2,2,0,0,1-.89-1.71,2.22,2.22,0,0,1,1-1.84,4.25,4.25,0,0,1,2.63-.75,6.14,6.14,0,0,1,2.06.32,4.2,4.2,0,0,1,1.52.86Z"/><path class="cls-7" d="M280.48,150.64v2.43h2.26v.86h-2.26v6.2a1.93,1.93,0,0,0,.36,1.32,1.29,1.29,0,0,0,1,.39,4.61,4.61,0,0,0,.53,0c.18,0,.38,0,.61-.07l.17.78a3.37,3.37,0,0,1-.7.18,5.52,5.52,0,0,1-.81.06,2.22,2.22,0,0,1-1.69-.64,2.83,2.83,0,0,1-.6-2v-6.2h-1.76v-.86h1.76v-2.43Z"/><path class="cls-7" d="M287.28,153.07l.15,1.58v.12a3.43,3.43,0,0,1,1.19-1.38,3.18,3.18,0,0,1,1.79-.49,3,3,0,0,1,.42,0l.34.06-.16,1-.84-.06a2.73,2.73,0,0,0-1.76.56,3,3,0,0,0-1,1.54v5.67l1.54.12v.77h-4.22v-.77l1.55-.12V154l-1.55-.12v-.78h2.53Z"/><path class="cls-7" d="M300.18,161a3.41,3.41,0,0,1-1.32,1.29,4.14,4.14,0,0,1-2,.46,3.24,3.24,0,0,1-2.54-1,4.65,4.65,0,0,1-.91-3.17V154l-1.28-.12v-.78h2.4v5.53a3.86,3.86,0,0,0,.65,2.5,2.24,2.24,0,0,0,1.81.75,3.59,3.59,0,0,0,2.06-.52,2.85,2.85,0,0,0,1.08-1.46V154l-1.47-.12v-.78h2.6v8.62l1.38.12v.77h-2.37Z"/><path class="cls-7" d="M304.26,153.85v-.78h2.68v8.62l1.55.12v.77h-4.23v-.77l1.55-.12V154Zm3.16-4.3h1.39l0,0-2.36,2.29h-1Z"/><path class="cls-7" d="M317.51,161.21a3.41,3.41,0,0,1-1.32,1.15,4.15,4.15,0,0,1-1.89.41,3.51,3.51,0,0,1-2.88-1.28,5.17,5.17,0,0,1-1-3.4v-.18a5.84,5.84,0,0,1,1-3.65,3.43,3.43,0,0,1,2.9-1.36,4,4,0,0,1,1.86.41,3.72,3.72,0,0,1,1.31,1.19v-4.73l-1.55-.12v-.78h2.68v12.82l1.55.12v.77h-2.56Zm-6-3.12a4.52,4.52,0,0,0,.75,2.74,2.61,2.61,0,0,0,2.24,1,3.45,3.45,0,0,0,1.83-.45,3.25,3.25,0,0,0,1.15-1.26v-4.5a3.37,3.37,0,0,0-1.1-1.32,3.15,3.15,0,0,0-1.86-.51,2.51,2.51,0,0,0-2.25,1.14,5.28,5.28,0,0,0-.76,3Z"/><path class="cls-7" d="M329,162.58a7.38,7.38,0,0,1-.16-.83,4.24,4.24,0,0,1-.05-.71,4.45,4.45,0,0,1-1.52,1.23,4.52,4.52,0,0,1-2.13.5,3.45,3.45,0,0,1-2.34-.72,2.47,2.47,0,0,1-.83-2,2.38,2.38,0,0,1,1.23-2.09,6.23,6.23,0,0,1,3.32-.77h2.27V156a2,2,0,0,0-.71-1.6,3.07,3.07,0,0,0-2-.58,5.44,5.44,0,0,0-1.56.22,3.72,3.72,0,0,0-1.18.58l-.09,1.28h-.94V154a6,6,0,0,1,1.7-.83,6.9,6.9,0,0,1,2.11-.31,4.3,4.3,0,0,1,2.73.8,2.71,2.71,0,0,1,1,2.29v4.68c0,.19,0,.38,0,.55a4.52,4.52,0,0,0,.06.53l1,.06v.77Zm-3.74-.75a4.36,4.36,0,0,0,2.17-.52A3.24,3.24,0,0,0,328.8,160V158h-2.29a4.58,4.58,0,0,0-2.47.59,1.75,1.75,0,0,0-.93,1.5,1.55,1.55,0,0,0,.58,1.24A2.44,2.44,0,0,0,325.27,161.83Z"/><path class="cls-7" d="M340.09,156h-.93l-.13-1.35A2.87,2.87,0,0,0,338,154a4.53,4.53,0,0,0-1.49-.23,3,3,0,0,0-1.87.5,1.47,1.47,0,0,0-.62,1.16,1.33,1.33,0,0,0,.54,1.09,5.47,5.47,0,0,0,2.14.76,7.4,7.4,0,0,1,2.74,1,2.08,2.08,0,0,1,.91,1.78,2.24,2.24,0,0,1-1,1.92,4.65,4.65,0,0,1-2.74.74,6.79,6.79,0,0,1-2.08-.3,5,5,0,0,1-1.62-.83v-1.91h.92l.17,1.35a2.7,2.7,0,0,0,1.15.61,5.36,5.36,0,0,0,1.46.19,3.34,3.34,0,0,0,1.94-.5,1.45,1.45,0,0,0,.71-1.21,1.47,1.47,0,0,0-.59-1.17,5,5,0,0,0-2.14-.82,7.57,7.57,0,0,1-2.72-1,2,2,0,0,1-.89-1.71,2.25,2.25,0,0,1,1-1.84,4.25,4.25,0,0,1,2.63-.75,6.14,6.14,0,0,1,2.06.32,4.25,4.25,0,0,1,1.53.86Z"/><path class="cls-7" d="M344.13,162.58h-1.3v-1.44h1.3Z"/><circle class="cls-8" cx="91" cy="131.55" r="88"/><path class="cls-7" d="M91,46.55a85,85,0,1,1-85,85,85,85,0,0,1,85-85m0-6a91,91,0,1,0,91,91,91.1,91.1,0,0,0-91-91Z"/><path class="cls-6" d="M90.78,46.7a84.78,84.78,0,1,0,84.77,84.78A84.78,84.78,0,0,0,90.78,46.7Zm0,163.9a79.13,79.13,0,1,1,79.12-79.12A79.12,79.12,0,0,1,90.78,210.6Z"/><path class="cls-6" d="M130.79,69.9a2.84,2.84,0,0,0-3.92.82l-4.62,7.11a2.8,2.8,0,0,0-.39,2.16,2.84,2.84,0,0,0,1.29,1.79A38.83,38.83,0,0,1,126.32,84c.63.49,1.27,1,1.77,1.32.88.72,1.72,1.49,2.56,2.25l-2,2a56.49,56.49,0,0,0-12.39-8.49l5.78-13a2.82,2.82,0,0,0-1.43-3.73,73.66,73.66,0,0,0-26-6.2,2.78,2.78,0,0,0-2,.71,2.85,2.85,0,0,0-.93,2l-.44,8.47a2.82,2.82,0,0,0,2.67,3l3,.15,3.17.49c.4.07.81.13,1.22.18.61.09,1.22.18,1.76.3l.39.1-.74,2.77a57.48,57.48,0,0,0-15-1.21L86.21,60.93a2.79,2.79,0,0,0-1-1.91,2.82,2.82,0,0,0-2.07-.61,72.73,72.73,0,0,0-25.68,7.65,2.82,2.82,0,0,0-1.23,3.8l3.86,7.55a2.82,2.82,0,0,0,3.7,1.28c.57-.26,1.13-.54,1.7-.81a29.87,29.87,0,0,1,4-1.74l.73-.27c.85-.31,1.67-.62,2.49-.89l.73,2.73c-.7.24-1.37.49-2,.73l-.67.26a27.26,27.26,0,0,0-4,1.7l-1.7.83L60.23,84l-.33.19L51.57,72.72a2.81,2.81,0,0,0-4-.63A73.73,73.73,0,0,0,29.19,91.47a2.86,2.86,0,0,0-.4,2.13A2.82,2.82,0,0,0,30,95.38L37.13,100a2.84,2.84,0,0,0,3.95-.9A34.82,34.82,0,0,1,43.33,96c.49-.64,1-1.29,1.33-1.78.72-.88,1.48-1.72,2.25-2.56l2,2A56.09,56.09,0,0,0,40.38,106l-13-5.78a2.84,2.84,0,0,0-3.74,1.44,74.1,74.1,0,0,0-6.2,26,2.82,2.82,0,0,0,2.68,3l8.47.44a2.8,2.8,0,0,0,3-2.67l.15-3,.48-3.17c.08-.41.13-.82.19-1.23.09-.61.18-1.22.3-1.75l.1-.39,2.77.74a57.37,57.37,0,0,0-1.22,15L20.22,136a2.83,2.83,0,0,0-2.51,3.11,73.7,73.7,0,0,0,7.65,25.68,2.8,2.8,0,0,0,1.64,1.4,2.85,2.85,0,0,0,2.16-.17l7.55-3.86A2.82,2.82,0,0,0,38,158.5c-.26-.57-.53-1.12-.8-1.67a30.3,30.3,0,0,1-1.75-4.06l-.27-.75c-.32-.84-.62-1.66-.89-2.47l2.77-.74a55.45,55.45,0,0,0,6.45,13.52L32,170.69a2.81,2.81,0,0,0-.62,3.94,73.41,73.41,0,0,0,19.38,18.43,2.82,2.82,0,0,0,3.91-.82l4.62-7.11a2.82,2.82,0,0,0-.89-3.95,35.65,35.65,0,0,1-3.17-2.26c-.64-.49-1.28-1-1.77-1.32-.88-.73-1.72-1.49-2.56-2.26l2-2c.75.69,1.53,1.38,2.47,2.16.55.38,1.09.8,1.62,1.21a36.32,36.32,0,0,0,3.15,2.21l5.05,2.9.06,0-5.79,13a2.88,2.88,0,0,0-.06,2.16,2.83,2.83,0,0,0,1.49,1.57,73.71,73.71,0,0,0,26,6.2h.15a2.84,2.84,0,0,0,2.82-2.68l.44-8.47a2.83,2.83,0,0,0-2.67-3l-3-.15L81.54,190l-1.22-.19c-.62-.08-1.23-.17-1.76-.29l-.39-.1.74-2.77a57.88,57.88,0,0,0,15,1.21L95.34,202a2.81,2.81,0,0,0,3.11,2.52,72.73,72.73,0,0,0,25.68-7.65,2.82,2.82,0,0,0,1.23-3.8l-3.86-7.55a2.82,2.82,0,0,0-3.7-1.28c-.57.26-1.13.54-1.7.81a29.45,29.45,0,0,1-4,1.74l-.72.27c-.85.31-1.67.62-2.49.89l-.74-2.76a56.21,56.21,0,0,0,13.52-6.46L130,190.24a2.83,2.83,0,0,0,3.94.63,73.41,73.41,0,0,0,18.43-19.38,2.81,2.81,0,0,0,.4-2.13,2.86,2.86,0,0,0-1.22-1.79L144.43,163a2.82,2.82,0,0,0-4,.9,36.8,36.8,0,0,1-2.24,3.16c-.5.64-1,1.28-1.33,1.78-.73.88-1.49,1.72-2.26,2.56l-1.95-2A56,56,0,0,0,141.17,157l13,5.78a2.84,2.84,0,0,0,3.73-1.43,73.77,73.77,0,0,0,6.2-26.05,2.82,2.82,0,0,0-2.68-3l-8.46-.44a2.85,2.85,0,0,0-3,2.67l-.15,3-.48,3.17c-.07.41-.13.82-.19,1.23-.09.61-.17,1.22-.29,1.75l-.1.39-2.73-.73,0-.07c.15-.66.25-1.33.35-2,0-.31.08-.62.14-1l.43-2.77a2.89,2.89,0,0,0,0-.29l.14-3v-5.9l14.2-1.47a2.8,2.8,0,0,0,1.9-1,2.86,2.86,0,0,0,.62-2.07,73.91,73.91,0,0,0-7.65-25.68,2.83,2.83,0,0,0-3.8-1.23l-7.55,3.86a2.81,2.81,0,0,0-1.28,3.7c.26.56.53,1.12.8,1.67a29.06,29.06,0,0,1,1.75,4.06l.27.75c.32.84.62,1.66.89,2.47l-2.77.74a55.45,55.45,0,0,0-6.45-13.52l11.48-8.36a2.83,2.83,0,0,0,.63-4A73.53,73.53,0,0,0,130.79,69.9Zm1.72,27.78a2.81,2.81,0,0,0-1.13,1.84,2.76,2.76,0,0,0,.51,2.1,50.44,50.44,0,0,1,8,16.7,2.84,2.84,0,0,0,3.46,2l8.19-2.19a2.83,2.83,0,0,0,2-3.32,41.26,41.26,0,0,0-1.85-5.84l-.22-.6a29.28,29.28,0,0,0-1.59-3.84l2.52-1.28a68,68,0,0,1,5.47,18.34l-14,1.46a2.81,2.81,0,0,0-2.53,3l.14,2.74v5.41l-.14,2.66L141,139.4c-.06.37-.11.74-.16,1.12s-.14,1-.24,1.42l-.7,2.72a2.82,2.82,0,0,0,2,3.44l8.19,2.19a2.82,2.82,0,0,0,3.47-2l.83-3.22c.17-.76.29-1.52.4-2.29,0-.36.1-.72.17-1.13l.52-3.49,0-.43,2.77.14a68.19,68.19,0,0,1-4.42,18.61L141,150.72a2.79,2.79,0,0,0-2.16-.06,2.83,2.83,0,0,0-1.57,1.49,50.71,50.71,0,0,1-10.48,15.3,2.82,2.82,0,0,0,0,4l6,6a2.79,2.79,0,0,0,2.08.82,2.82,2.82,0,0,0,2-.94l1.53-1.69c1-1.06,2-2.13,3-3.4.43-.6.88-1.2,1.33-1.79.32-.41.64-.82.95-1.25l2.37,1.55a67.84,67.84,0,0,1-13.17,13.85l-8.28-11.38a2.82,2.82,0,0,0-4-.62,50.39,50.39,0,0,1-16.69,8,2.84,2.84,0,0,0-2,3.46l2.2,8.19a2.82,2.82,0,0,0,3.32,2,43.3,43.3,0,0,0,5.86-1.85l.58-.22a28.59,28.59,0,0,0,3.83-1.59L119,193.1a68.1,68.1,0,0,1-18.35,5.47l-1.45-14a2.78,2.78,0,0,0-1-1.9,2.82,2.82,0,0,0-2.07-.62,51.58,51.58,0,0,1-18.51-1.51,2.84,2.84,0,0,0-3.46,2L72,190.75a2.82,2.82,0,0,0,2,3.46l3.21.83c.76.17,1.53.29,2.3.4l1.12.17,3.49.52.44,0-.15,2.78a68.5,68.5,0,0,1-18.6-4.43l5.73-12.84a2.83,2.83,0,0,0-1.36-3.7l-2.34-1.12L63,174.07a29.25,29.25,0,0,1-2.57-1.84c-.61-.46-1.2-.92-1.64-1.21-.82-.68-1.6-1.39-2.38-2.11-.58-.53-1.16-1.07-1.76-1.59a2.83,2.83,0,0,0-3.86.13l-6,6a2.85,2.85,0,0,0-.83,2.08,2.81,2.81,0,0,0,.95,2l1.66,1.51c1.07,1,2.15,2,3.42,3,.61.43,1.2.88,1.78,1.33.42.32.84.64,1.27,1l-1.55,2.38a67.85,67.85,0,0,1-13.85-13.17l11.38-8.29a2.81,2.81,0,0,0,.62-3.94,50.66,50.66,0,0,1-8-16.7,2.83,2.83,0,0,0-3.45-2l-8.2,2.19a2.83,2.83,0,0,0-2,3.32A42.55,42.55,0,0,0,29.86,154l.23.6a29.23,29.23,0,0,0,1.58,3.84l-2.51,1.28a68.3,68.3,0,0,1-5.48-18.34l14-1.46a2.82,2.82,0,0,0,2.52-3.08,51.8,51.8,0,0,1,1.5-18.51,2.82,2.82,0,0,0-2-3.46l-8.19-2.19a2.84,2.84,0,0,0-3.47,2l-.82,3.22c-.18.75-.29,1.52-.4,2.29-.05.36-.1.72-.17,1.13l-.52,3.49,0,.43-2.77-.14a68.93,68.93,0,0,1,4.42-18.61l12.85,5.73a2.82,2.82,0,0,0,2.17.06,2.85,2.85,0,0,0,1.57-1.5A50.63,50.63,0,0,1,54.81,95.51a2.82,2.82,0,0,0,0-4l-6-6a2.79,2.79,0,0,0-2.08-.82,2.82,2.82,0,0,0-2,.94c-.5.57-1,1.13-1.53,1.69-1,1.06-2,2.13-3,3.4-.43.6-.89,1.19-1.34,1.78l-1,1.26-2.37-1.55A67.84,67.84,0,0,1,48.69,78.37L57,89.75a2.82,2.82,0,0,0,4,.62l.65-.5a11,11,0,0,1,1.39-1l4.62-2.67q.82-.37,1.62-.78a24.07,24.07,0,0,1,3.31-1.42l.85-.31a29,29,0,0,1,4.09-1.3A2.83,2.83,0,0,0,79.62,79l-2.19-8.19a2.83,2.83,0,0,0-3.32-2,42.42,42.42,0,0,0-5.86,1.85l-.59.22a29.72,29.72,0,0,0-3.83,1.59l-1.29-2.52a68.1,68.1,0,0,1,18.35-5.47l1.45,14a2.81,2.81,0,0,0,3.08,2.52,52,52,0,0,1,18.51,1.51,2.83,2.83,0,0,0,3.46-2l2.19-8.2a2.8,2.8,0,0,0-.29-2.15,2.82,2.82,0,0,0-1.73-1.31l-3.22-.83c-.76-.17-1.52-.29-2.29-.4l-1.13-.17-3.49-.52-.44,0L97.14,64a68.42,68.42,0,0,1,18.6,4.43L110,81.3A2.82,2.82,0,0,0,111.46,85a50.61,50.61,0,0,1,15.29,10.48,2.83,2.83,0,0,0,4,0l6-6a2.79,2.79,0,0,0,.82-2.08,2.82,2.82,0,0,0-.94-2L135,83.9c-1.08-1-2.15-2-3.43-3-.6-.43-1.19-.88-1.78-1.33-.41-.32-.83-.64-1.26-1L130,76.22A68.15,68.15,0,0,1,143.89,89.4Z"/><path class="cls-6" d="M90.78,86.26a45.12,45.12,0,0,0-39,68,2.75,2.75,0,0,0,.17.29,45.57,45.57,0,0,0,11.53,12.9c.07.05.11.12.19.16l.06,0a44.85,44.85,0,0,0,54.06,0s0,0,.07,0,.13-.12.2-.16a45.53,45.53,0,0,0,11.52-12.9,1.75,1.75,0,0,0,.18-.29,45.13,45.13,0,0,0-39-68Zm-5.1,6L54.32,146.83A39.53,39.53,0,0,1,85.68,92.28ZM68.81,164.36l22-38.18,22,38.18a39.44,39.44,0,0,1-43.93,0Zm48.41-3.54L94.45,121.24a4.24,4.24,0,0,0-7.35,0L64.33,160.82a40.07,40.07,0,0,1-6.88-8.1l33.33-58L97.24,106a2,2,0,0,0,.13.25l26.73,46.51a39.75,39.75,0,0,1-6.88,8.1Zm10-14L102.4,103.62l-.13-.26L95.88,92.29a39.52,39.52,0,0,1,31.36,54.54Z"/><g class="cls-9"><path class="cls-4" d="M79.77,72l3.84,14.74s.6,3.64-.71,5S75.43,100,75.43,100L72,106.72,91.89,118l23.73-6.37L114.91,95s-12.15-.77-19.24-6.09c-1.39-1-2.57-13.2-2.57-13.2Z"/><path class="cls-10" d="M93.75,81.07c-.37-2.71-.68-5.45-.68-5.45L79.74,71.88,80.81,76S85,78.7,86.28,79.27A25.37,25.37,0,0,0,93.75,81.07Z"/><path class="cls-4" d="M68.71,103.77S59.2,109.14,58.33,110s-7.67,7-7.67,7l-.26,22.08-8.83-21-7.67,3.39,10.92,32.74,6,9.31,4.54,1.71,6.69-30.89,9.63,6,11.82-8.64L75,110.55l-3.63-7.94Z"/><path class="cls-4" d="M33.57,121.32A10.38,10.38,0,0,1,29,117.53a37.79,37.79,0,0,1-4.75.24.78.78,0,0,1-.43-.09.83.83,0,0,1-.25-.53,46.64,46.64,0,0,0-2.45-8.6,1.47,1.47,0,0,1-.14-.76c.1-.46.64-.68,1.11-.72a2.76,2.76,0,0,0,1.38-.28c.52-.35.68-1.16,1.28-1.35s1,.17,1.49,0,.6-.83.93-1.23a3.29,3.29,0,0,1,2.05-.82,14.56,14.56,0,0,0,3.61-1.44c.09-.05.18-.1.21-.19a.45.45,0,0,0,0-.2c-.56-2.59-1.73-5.17-2.28-7.75a58.18,58.18,0,0,1-.94-7.41,3.93,3.93,0,0,1,2.05-2.48.87.87,0,0,1,.76-.11,1,1,0,0,1,.45.8c.63,2.88,2.32,10.2,3,13.08.39,1.84,3.72,6.43,4.43,7s.81,1.22,1.62,1.83a1.79,1.79,0,0,1,.56.57,1.9,1.9,0,0,1,.15.82l.12,4.88c0,1.9,0,4-1.33,5.37Z"/><path class="cls-10" d="M40.21,104.23c-1-.27-1.94-.9-3-.71a6.68,6.68,0,0,0-2.44,1.26c-2.15,1.47-3.69,3.71-6,4.94a1,1,0,0,0-.19,1.49c1.32,1.28,3.23,2.79,5.19,2.35a6,6,0,0,0,4-3.79l-1.39.57a7.81,7.81,0,0,0,2,1.06c1.15.44,1.62-1.38.5-1.83-3.73-1.5-5.28,3.37-4,6.05.52,1.1,2.16.14,1.64-1s-.26-4.12,1.87-3.26l.5-1.83a4.38,4.38,0,0,1-1.51-.87c-.54-.4-1.2.06-1.4.57-1.13,3-4.18,2.44-6.07.59l-.19,1.49a19.2,19.2,0,0,0,4.15-3.43,15.54,15.54,0,0,1,2.4-1.86c1.14-.71,2.2-.33,3.43,0a1,1,0,0,0,.5-1.83Z"/><path class="cls-10" d="M32.65,107.85l-.43-2.21-1.83.51a2.53,2.53,0,0,0,1.39,1.71,1,1,0,0,0,1.3-.34,1,1,0,0,0-.34-1.3.75.75,0,0,1-.52-.58.95.95,0,0,0-1.83.51l.43,2.2A1,1,0,0,0,32,109a1,1,0,0,0,.66-1.17Z"/><path class="cls-4" d="M71.93,65.85s7.71,13.73,30.73,13.73c9.52,0,13.06-2.22,13.6-5.31,3.37-19.43-3.81-44-13.77-51.5-8.74-6.58-39.72,18.31-39.72,18.31l6.6,14.81s-6.73-7.27-9.43-3.23S65.8,65.25,65.8,65.25,69.64,68.14,71.93,65.85Z"/><path class="cls-4" d="M117.93,97c2.29-1.21,4.35,1.64,4.35,1.64l23.23,40.67-20,36s6.73,11.31,3.36,16.42l4.65,4.65s.74,2.49-2.63,2.49-11.31-5.92-11.31-5.92l.92-25.37,15-27-13.75-20.45-4.3-3.81S113.67,99.25,117.93,97Z"/><path class="cls-4" d="M93.81,210.82,74.35,259.6s-2.51,9.24-5.49,12.22a131.27,131.27,0,0,1-7.37,21.31C56.44,304.44,54.22,320,54.22,320s4.59,11.67,4,16.92c0,0,4.39,6.06,2.62,9.54s-8.68,1.41-8.68,1.41-11.56,1.52-13.28-1.36,2.17-10.6,2.17-10.6-.55-6.16,1.47-7.58A25,25,0,0,0,47,323.48s-.76-2,1.36-4.75,5.25-20.21,5.25-22.5-2.82-19.39,6.6-26.12c0,0,2.29-46.46,8.75-52.92s24.85-10.3,24.85-10.3Z"/><path class="cls-11" d="M93.81,210.82l-6.22,15.59S79,230.26,76.8,230.79c-1.62.4-13.13,4-12.75,1.64,1.21-7.26,2.88-13.21,4.91-15.24,6.47-6.46,24.85-10.3,24.85-10.3Z"/><path class="cls-4" d="M100.74,203.59S117,265.13,118.24,268s-5.15,8.32,6,47.3c0,0-.71,5.15-1.72,7s-3.33,6.47-.4,8.08,12.42,9.7,16.46,10.4,11.61-2.82,11.61-2.82,4-1.52,2.78-2.78c0,0-3.68-.15-4.9-1.36s-14.94-12-14.94-12-4.24-5.45-4.24-5.82-3-48.31-3-48.31,1.11-3,0-9.19-.58-45-.58-45Z"/><path class="cls-11" d="M100.74,203.59s3.83,14.43,5,18.69c.44,1.64,19.43,3,19.43,3l.1-11.82Z"/><path class="cls-12" d="M100.74,215.78c3.15,6.25,25.3,7.56,27.13,8.14,0,0,.58-25.08-3-39.17S100.74,215.78,100.74,215.78Z"/><path class="cls-13" d="M73.81,60.33c3.91,1.62.54-5.38.54-5.38s-.37-7-2.36-8.22a28.53,28.53,0,0,1-4.33-3.54l37.25-25.54s3.77-5.25-4.84-8.48a10.26,10.26,0,0,0-10.44-3.1s-3.77-4.51-9.22-.37c0,0-11-.64-13.47,4.75a4.1,4.1,0,0,0-4,2.28s-2.28.88-2.72,2.73c0,0-5.56,2.19-5.89,5.89,0,0-3,4.24-.61,7.68,0,0-1.6,3,.47,5.08,0,0-4.64,5.08,0,8.25,0,0-1.14,3.3,5.66,4.64l2,4.17s1.94-.88,7.54,4.72Z"/><path class="cls-10" d="M100.94,60.89a1.5,1.5,0,0,1,0-3c1.38,0,5.23-1.16,8-2.09C108,49,103.65,43.91,101,41.41a1.5,1.5,0,1,1,2.07-2.16c3.07,2.93,8.3,9.1,8.89,17.48l.08,1.13-1.07.38C110.25,58.51,103.55,60.89,100.94,60.89Z"/><ellipse class="cls-14" cx="88.93" cy="45.83" rx="1.81" ry="2.47" transform="translate(-8.49 23.05) rotate(-14.1)"/><path class="cls-14" d="M86.15,45.54h-.07A1.5,1.5,0,0,1,84.65,44c0-.37.22-3.62,2.6-4.9,1.55-.84,3.46-.59,5.69.75a1.5,1.5,0,0,1-1.53,2.57c-1.21-.72-2.2-1-2.73-.69-.7.38-1,1.78-1,2.4A1.5,1.5,0,0,1,86.15,45.54Z"/><ellipse class="cls-14" cx="105.72" cy="40.76" rx="1.81" ry="2.47" transform="translate(-6.74 26.99) rotate(-14.1)"/><path class="cls-14" d="M102.47,40.15a1.39,1.39,0,0,1-.4-.06,1.5,1.5,0,0,1-1-1.84c.1-.35,1-3.47,3.64-4.2,1.69-.46,3.5.21,5.38,2A1.5,1.5,0,0,1,108,38.23c-1-1-1.93-1.44-2.5-1.28-.77.2-1.38,1.51-1.55,2.1A1.5,1.5,0,0,1,102.47,40.15Z"/><path class="cls-15" d="M93.06,63.08c-.22-.23,13.34.85,18.52-3,0,0,1,10.32-3.6,11.45S97.73,70.83,93.06,63.08Z"/><g class="cls-16"><path class="cls-17" d="M92.18,64.71s12.68,3.62,18.32-2l-.71-2.57L91.2,61.37Z"/><path class="cls-18" d="M94.41,69.35S98.48,65.41,105,68s0,7.37,0,7.37Z"/></g><path class="cls-10" d="M105.19,73c-7.76,0-12.94-9.28-13-9.39L91.33,62l1.79.09c.12,0,12.51.61,17.93-2.8a1,1,0,0,1,1.37.31,1,1,0,0,1-.31,1.38c-4.65,2.93-13.35,3.21-17.2,3.16,2,3,7.16,8.91,13.69,6.07a1,1,0,1,1,.8,1.83A10.49,10.49,0,0,1,105.19,73Z"/><path class="cls-10" d="M69.06,64.3s-.2-8.83-7-10.95"/><path class="cls-10" d="M62.06,134.29s5.82-7.81,5-6.62c-4.26,6.6,10.92,14.22,14.48,10.15a9.11,9.11,0,0,1-9.9,2.51Z"/><path class="cls-19" d="M75.43,100S69,102.33,66,105.34c0,0,18.13,26.3,5.74,35,0,0,11.41,21.79,10.2,26.24s-21.49,61-21.49,61,62.61-1.11,64.84-42l-3-23.56a196.45,196.45,0,0,0,1.75-23.9c.13-11.5-1.13-24.71-2-33.73a14.56,14.56,0,0,0-4.25-9.16l-5.89-.55s4.65,15.6-6.12,17.08C99.91,112.52,85.93,114.4,75.43,100Z"/><g class="cls-20"><path class="cls-21" d="M62.74,229.13s62.61-1.12,64.84-42Z"/></g><path class="cls-19" d="M75.43,100S69,102.33,66,105.34c0,0,18.13,26.3,5.74,35,0,0,11.41,21.79,10.2,26.24s-21.49,61-21.49,61,62.61-1.11,64.84-42l-3-23.56a196.45,196.45,0,0,0,1.75-23.9c.13-11.5-1.13-24.71-2-33.73a14.56,14.56,0,0,0-4.25-9.16l-5.89-.55s4.65,15.6-6.12,17.08C99.91,112.52,85.93,114.4,75.43,100Z"/><path class="cls-3" d="M80.5,171.14s33,4.4,42.17-6.1c0,0,1-2.08-.39-3,.2,1.94-15.5,10.4-40.39,5A2.7,2.7,0,0,0,80.5,171.14Z"/><circle class="cls-22" cx="107.92" cy="169.55" r="7.7"/><g class="cls-23"><path class="cls-24" d="M71.36,20.61s-3.31,4,.89,6.68c1.46.94-4.35,5.46-4.35,5.46L65.56,45.92a17.66,17.66,0,0,1,5-1.21L81.23,56.88l-6.81,4.26L52.67,46.48l-14.47-28L56.85,1.59,77.24-3.15,73.66,4S65,9.24,68.31,13.05C66.24,14.51,65.83,20.22,71.36,20.61Z"/></g><path class="cls-25" d="M61.93,51.17S58,49.43,58,46.19,73.24,12.4,105,17.65c0,0,4.92,3.43,3.24,5.12,0,0,3,3.76.6,5.78S94.65,27.61,61.93,51.17Z"/><path class="cls-26" d="M63.64,44S84,19.26,105.72,22.5C105.72,22.5,85.46,23.58,63.64,44Z"/><path class="cls-27" d="M108.77,176.16a7.62,7.62,0,0,1-5.64-2.2c-1.52-1.68-1.94-4.13-1.27-7.25a1.5,1.5,0,1,1,2.93.63c-.46,2.13-.27,3.69.57,4.62,1.26,1.41,3.74,1.2,3.77,1.19a1.5,1.5,0,1,1,.31,3S109.15,176.16,108.77,176.16Z"/><path class="cls-28" d="M112.57,173.56a1.86,1.86,0,0,1-.33,0,1.51,1.51,0,0,1-1.14-1.79c.48-2.12.3-3.68-.53-4.62-1.25-1.42-3.75-1.22-3.77-1.22a1.5,1.5,0,0,1-.29-3c.16,0,4-.37,6.3,2.2,1.5,1.7,1.92,4.15,1.22,7.27A1.49,1.49,0,0,1,112.57,173.56Z"/><path class="cls-10" d="M29.37,118.08a2.1,2.1,0,0,0,0-3.59c-.86-.64-2,.79-1.15,1.49a3.84,3.84,0,0,0,3.18,1.3,2.64,2.64,0,0,0,2.07-2.11l-1.39.57a3,3,0,0,0,3.09.09c1.09-.55.13-2.18-1-1.64a1,1,0,0,1-1.17-.09,1,1,0,0,0-1.4.57c-.26,1.34-1.46.51-2.08,0l-1.15,1.49,0,.32c-1,.69-.05,2.33,1,1.63Z"/><path class="cls-10" d="M24,105.92q.66,3.09,1.47,6.13a1,1,0,0,0,1.83-.5c-.54-2-1-4.08-1.47-6.13-.26-1.19-2.09-.69-1.83.5Z"/><path class="cls-10" d="M49.35,138.81a18.93,18.93,0,0,1,2.15,7.46c.1,1.21,2,1.22,1.9,0A21.38,21.38,0,0,0,51,137.85c-.57-1.08-2.21-.13-1.64,1Z"/><path class="cls-5" d="M85,4a6.5,6.5,0,0,1,4.64,2.12,11.2,11.2,0,0,1,2.81-.37,10.25,10.25,0,0,1,7.63,3.47c8.37,3.14,5.05,8.18,4.85,8.47H105s4.92,3.43,3.24,5.12c0,0,3,3.76.6,5.78A2.52,2.52,0,0,1,108,29c6.88,10.73,11,29.66,8.28,45.28-.54,3.09-4.07,5.31-13.59,5.31h0a50.5,50.5,0,0,1-9.21-.81c.09.72.19,1.51.3,2.3h0c.48,3.4,1.17,7.27,1.93,7.84,4.86,3.65,12.1,5.16,16.17,5.74l5.89.55A15.14,15.14,0,0,1,119,96.69h.07c1.77,0,3.17,1.94,3.17,1.94l23.23,40.67-20,36s6.73,11.31,3.36,16.42l4.65,4.65s.74,2.49-2.63,2.49a10.1,10.1,0,0,1-3.9-1.27,255,255,0,0,1,.93,26.35,26.31,26.31,0,0,0-2.71-.4l0,1.72h0c-.07,11.95,0,29.22.68,33.15,1.11,6.16,0,9.19,0,9.19s3,47.94,3,48.31,4.24,5.82,4.24,5.82,5.61,4.41,10,7.91h0a12.65,12.65,0,0,1,3.65,1.55,3.62,3.62,0,0,1,1.11,2.29l1.32.92a13.88,13.88,0,0,0,3.79.71c.6.6,0,1.25-.78,1.78.43.46.7.87.62,1.13-.28,1.05-4.34,5.33-11.69,5.33-.41,0-.83,0-1.27,0-7.7-.51-18.39-8.72-19.27-11a6.82,6.82,0,0,1,.12-4.61,12.89,12.89,0,0,1,1.82-5.46c1-1.81,1.72-7,1.72-7-11.11-39-4.74-44.47-6-47.3-.81-1.9-8.47-30.43-13.38-48.86a12.34,12.34,0,0,1-2.53-1.5A80.19,80.19,0,0,1,89,222.88l-1.41,3.53L74.35,259.6s-2.51,9.24-5.49,12.22a131.27,131.27,0,0,1-7.37,21.31C56.44,304.44,54.22,320,54.22,320s3.62,9.19,4,14.93c4.26,5.82,8.08,13,3,15.13a29.17,29.17,0,0,1-11,1.94c-6.11,0-11.59-1.43-12.87-2.71-2.05-2,3.78-17.6,3.78-17.6.18-1.42.57-2.78,1.4-3.36A25,25,0,0,0,47,323.48s-.76-2,1.36-4.75,5.25-20.21,5.25-22.5-2.82-19.39,6.6-26.12c0,0,1.08-21.87,3.84-37.68h0c.3-1.8.63-3.51,1-5.11-2.89.24-4.63.27-4.63.27s15.13-42.22,20-56.58a2.66,2.66,0,0,1,1.3-3.91c.07-.22.12-.4.16-.53,1.21-4.45-10.2-26.24-10.2-26.24l-9.63-6-6.69,30.89-4.54-1.71-6-9.31L33.9,121.42l-.33-.1A10.38,10.38,0,0,1,29,117.53a38.06,38.06,0,0,1-4.27.24h-.48a.78.78,0,0,1-.43-.09.83.83,0,0,1-.25-.53,46.64,46.64,0,0,0-2.45-8.6,1.47,1.47,0,0,1-.14-.76c.1-.46.64-.68,1.11-.72a2.76,2.76,0,0,0,1.38-.28c.52-.35.68-1.16,1.28-1.35a1,1,0,0,1,.3,0c.28,0,.57.08.84.08a1,1,0,0,0,.35-.06c.48-.2.6-.83.93-1.23a3.29,3.29,0,0,1,2.05-.82,14.56,14.56,0,0,0,3.61-1.44c.09-.05.18-.1.21-.19a.45.45,0,0,0,0-.2c-.56-2.59-1.73-5.17-2.28-7.75a58.18,58.18,0,0,1-.94-7.41,3.93,3.93,0,0,1,2.05-2.48,1.09,1.09,0,0,1,.52-.16.69.69,0,0,1,.24.05,1,1,0,0,1,.45.8c.63,2.88,2.32,10.2,3,13.08.39,1.84,3.72,6.43,4.43,7s.81,1.22,1.62,1.83a1.79,1.79,0,0,1,.56.57,1.9,1.9,0,0,1,.15.82l.12,4.88c0,1.9,0,4-1.33,5.37h0l8.73,20.79-.17-.58.23.45.26-21.8s6.79-6.09,7.67-7c.56-.56,4.74-3,7.62-4.66h0c3-3,9.48-5.39,9.48-5.39s6.16-7,7.47-8.28.71-5,.71-5l-3.38-13a25.39,25.39,0,0,1-8.3-7.91,3,3,0,0,1-2.2.88,7.76,7.76,0,0,1-3.93-1.48s-8.55-8.55-5.86-12.59a2.55,2.55,0,0,1,2.22-1.23c1.76,0,3.86,1.46,5.34,2.7-3-2.65-4.66-3-5.31-3l-.21,0,0,0,0,0-.06,0,0-.06c-.64-.32-3.5-1.89-3.75-4.55-4.83-1.51-3.9-4.2-3.9-4.2-4.64-3.17,0-8.25,0-8.25C52.08,32,53.68,29,53.68,29c-2.42-3.44.61-7.68.61-7.68.33-3.7,5.89-5.89,5.89-5.89.44-1.85,2.72-2.73,2.72-2.73a4,4,0,0,1,3.73-2.3,1.92,1.92,0,0,1,.31,0c2-4.36,9.57-4.77,12.39-4.77.67,0,1.08,0,1.08,0A7.54,7.54,0,0,1,85,4M123,163l12.47-22.47-11.85-17.62c.31,5.06.51,10.26.45,15.15a196.45,196.45,0,0,1-1.75,23.9,1.63,1.63,0,0,1,.68,1m24.56,170.24h0M85,.16h0a10.81,10.81,0,0,0-5.72,1.72c-4.14,0-11,.72-14.51,5a7.74,7.74,0,0,0-4.52,3,8.41,8.41,0,0,0-2.94,2.79c-2.12,1.11-5.73,3.51-6.62,7.33-1.31,2.23-2.49,5.88-1.12,9.37a8.37,8.37,0,0,0,.11,4.59,9.75,9.75,0,0,0-1.32,5.82,7.56,7.56,0,0,0,2.06,4.39A6.45,6.45,0,0,0,51,45.75a8.27,8.27,0,0,0,4,3.65,8.85,8.85,0,0,0,1.33,2.1c-1.37,3-.54,6.68,2.48,11.1a40.25,40.25,0,0,0,4.39,5.33l.18.19.21.16a11.39,11.39,0,0,0,6.22,2.25,8.49,8.49,0,0,0,.88,0,32.32,32.32,0,0,0,6.32,5.65l2.95,11.35a8.05,8.05,0,0,1,0,1.82c-1.46,1.53-5.19,5.72-6.72,7.45-2,.81-6.63,2.85-9.53,5.54-7,4-7.59,4.62-8,5-.58.59-4.92,4.5-7.51,6.83l-1.25,1.11v1.67l0,3.79-.94-2.24a13.38,13.38,0,0,0,.87-5.85l-.13-4.88a5,5,0,0,0-2.1-4.23l0-.07A7.06,7.06,0,0,0,43,101.75a24.9,24.9,0,0,1-3.21-4.93c-.31-1.47-.9-4-1.47-6.54s-1.15-5.07-1.46-6.49a4.62,4.62,0,0,0-2.56-3.44,4.32,4.32,0,0,0-1.84-.4,4.86,4.86,0,0,0-2.35.62,7.52,7.52,0,0,0-4,5.4c-.22,2,1,8.55,1,8.61a38.82,38.82,0,0,0,1.25,4.28c.08.26.17.52.25.77l-.09,0-.24,0a6.33,6.33,0,0,0-3.88,2,4.94,4.94,0,0,0-.76.18,4.61,4.61,0,0,0-2.2,1.51A4.76,4.76,0,0,0,17.31,107a5,5,0,0,0,.32,2.93,42.63,42.63,0,0,1,2.25,7.9,4.4,4.4,0,0,0,1.83,3,4.34,4.34,0,0,0,2.53.76h.53q1.29,0,2.58-.09a14.2,14.2,0,0,0,3.47,2.71l10.4,31.17.16.45.26.41,6,9.31.68,1.05,1.17.44L54,168.73l4.12,1.56.93-4.3,5.54-25.61L68.79,143c.87,1.69,2.82,5.56,4.72,9.74,3.47,7.65,4.37,11,4.6,12.33a6.42,6.42,0,0,0-1.54,2.39,6.23,6.23,0,0,0-.15,3.57C71.19,186.24,57,225.9,56.83,226.31L55,231.49l5.4-.1-.06.32-.11.55v.08c-2.29,13.41-3.4,30.47-3.71,35.88-8.4,7.59-7.19,22-6.78,26.87,0,.44.09,1,.09,1.15-.07,2.51-3.06,17.84-4.49,20.21a9.89,9.89,0,0,0-2.26,5.94,16.06,16.06,0,0,1-2.69,2.82c-1.56,1.09-2.51,2.91-2.92,5.53-.41,1.13-1.6,4.46-2.62,8-2.22,7.68-2.25,11.15-.14,13.27,2.63,2.62,9.9,3.82,15.55,3.82a32.78,32.78,0,0,0,12.48-2.24,7.41,7.41,0,0,0,4.45-4.89c1-3.77-.61-8.6-5.24-15.13a72.32,72.32,0,0,0-3.82-13.95c.57-3.47,2.76-15.77,6.84-24.9a138.29,138.29,0,0,0,7.37-21.06c3-3.75,5.08-10.85,5.62-12.81l13.16-33,.74-1.86a84.14,84.14,0,0,0,9.89-3.85c10.42,39.07,12.34,45.48,12.86,46.93,0,.28-.11.75-.18,1.14-.77,4.6-2.56,15.32,5.91,45.32a24.12,24.12,0,0,1-1.16,4.87,16.31,16.31,0,0,0-2.29,6.62,10.44,10.44,0,0,0,.12,6.64c1.18,3.1,6.86,6.92,8.57,8,2.92,1.87,8.63,5.07,14,5.42.5,0,1,.05,1.51.05,8.75,0,14.56-5.2,15.35-8.12a3.93,3.93,0,0,0,.13-1.52,4.4,4.4,0,0,0,.39-1.43,4.5,4.5,0,0,0-1.34-3.64l-1-1.05-1.48-.06a12.61,12.61,0,0,1-2-.28,6.74,6.74,0,0,0-1.95-2.76,13.15,13.15,0,0,0-4.31-2.08c-3.58-2.86-7.79-6.18-9-7.16-1.22-1.58-2.57-3.37-3.22-4.3-.17-2.78-.77-12.44-2.94-46.73a25.17,25.17,0,0,0-.09-10.27c-.22-1.24-.72-6.59-.63-29.49l2.63.84.11-5.06c0-.48.23-10.43-.5-21.38a6.28,6.28,0,0,0,5.09-2.37,5.8,5.8,0,0,0,.86-5l-.28-.92-.68-.68-2.9-2.9c1.22-5.35-1.66-12-3.45-15.49l19-34.13,1.05-1.87-1.07-1.86L125.57,96.75l-.1-.17-.11-.17a9.15,9.15,0,0,0-4.29-3.21c-.21-.23-.43-.45-.65-.68l-1-1-1.36-.12-5.8-.54c-3.42-.51-9.52-1.75-13.7-4.56a27.06,27.06,0,0,1-.68-3.15c1.56.13,3.14.2,4.75.2,3.93,0,15.87,0,17.34-8.46,2.51-14.49-.51-32.91-7.21-45.23,1.33-2.32.89-5.14-.4-7.53a5.2,5.2,0,0,0,0-.68,8.6,8.6,0,0,0-3-5.14,8,8,0,0,0-.25-3.8c-.88-2.81-3.2-5-6.89-6.58A14.06,14.06,0,0,0,92.44,1.9,14.32,14.32,0,0,0,90.72,2,10,10,0,0,0,85,.16ZM127.52,147c.16-2.75.27-5.74.31-8.86,0-.67,0-1.36,0-2.06l3.14,4.68L127.52,147Z"/><polyline class="cls-4" points="33.58 121.32 34.09 121.62 42.13 118.36"/></g></svg>