<svg xmlns="http://www.w3.org/2000/svg" viewBox="0 0 316.71 230.51"><defs><style>.cls-1{fill:#f9f9f9;}.cls-2{fill:#f4d242;}.cls-3{fill:#59595b;}.cls-4{fill:#808183;}.cls-5{fill:#fff;}</style></defs><title>6-Prob3</title><g id="Camada_2" data-name="Camada 2"><g id="Camada_1-2" data-name="Camada 1"><ellipse class="cls-1" cx="158.35" cy="144.19" rx="158.35" ry="86.32"/><path class="cls-2" d="M219.28,98.27A60.47,60.47,0,1,0,116,141a68.66,68.66,0,0,1,17.76,30.5l4.88,18h39.64l4.61-17.08a68.89,68.89,0,0,1,18.31-31,60.26,60.26,0,0,0,18.08-43.12Z"/><path class="cls-3" d="M168,210.63H148.64c-5.48,0-10.16-4-10.47-9.18l-1.63-19.8,43.77-.28-1.87,20.08c-.31,5.13-5,9.18-10.47,9.18Z"/><path class="cls-4" d="M176.37,190c-12.22.52-24.5-.11-36.72.43a.84.84,0,0,0,.06,1.67c12.24.41,24.5-.35,36.74,0,1.37,0,1.31-2.2-.08-2.14Z"/><path class="cls-4" d="M176.37,195.32c-12.22.52-24.5-.11-36.72.43a.84.84,0,0,0,.06,1.67c12.24.41,24.5-.35,36.74,0,1.37,0,1.31-2.2-.08-2.14Z"/><path class="cls-2" d="M163.74,7.06c0,3.89-2.07,17.9-4.63,17.9s-4.62-14-4.62-17.9S156.56,0,159.11,0s4.63,3.16,4.63,7.06Z"/><path class="cls-2" d="M221.4,28.57c-3,2.54-12.23,13.24-10.56,15.18s13.64-5.62,16.6-8.16,4-6.17,2.33-8.11-5.41-1.45-8.37,1.09Z"/><path class="cls-2" d="M243.88,91.09c-3.87.49-18,.2-18.35-2.34s13.32-6.35,17.18-6.84,7.26,1.16,7.58,3.7-2.55,5-6.41,5.48Z"/><path class="cls-2" d="M102.11,23.92c3.07,2.4,12.82,12.67,11.25,14.68s-13.88-5-17-7.39-4.28-6-2.7-8,5.34-1.69,8.4.71Z"/><path class="cls-2" d="M72.83,81.07c3.87.49,18,.2,18.35-2.33S77.86,72.38,74,71.89s-7.26,1.17-7.59,3.7,2.56,5,6.42,5.48Z"/><path class="cls-5" d="M178.21,113a17.14,17.14,0,0,1,1-4.4,9.54,9.54,0,0,1,.88-1.82,3.35,3.35,0,0,1,.29-.35,3.83,3.83,0,0,1,.07.43,31.22,31.22,0,0,1-1.26,11.13,10,10,0,0,1-.5,1.26,20.6,20.6,0,0,1-.49-6.25Zm-14.13-9.11a22.61,22.61,0,0,1-.29,4.12,33.52,33.52,0,0,1-.79,4.76,16.62,16.62,0,0,1,1.08-8.88Zm20.83,25.22a15.58,15.58,0,0,1-4.55-5.37c2.19-2.71,3.15-6.35,3.56-9.74a61.56,61.56,0,0,0,.34-6.22c0-2-.23-3.71-1.93-5-1.51-1.11-3.53-.11-4.7,1-1.34,1.25-2,3.29-2.51,5a22.53,22.53,0,0,0-.37,10.61,20.9,20.9,0,0,0,1,3.58,9,9,0,0,1-2.9,1.55c-3.3,1.06-5.81-.85-7.34-3.66q-.37-.69-.72-1.47c.26-.69.51-1.39.74-2.08a43,43,0,0,0,2-10.36c.23-2.91.32-6.39-2.49-8.12a1.86,1.86,0,0,0-2.48.65c-4.09,5.68-3.86,13.21-1.64,19.66a42.76,42.76,0,0,1-2.48,5c-1,1.76-3,4.49-5.37,4.14-2.21-.32-4-3.1-5.08-4.81a19.52,19.52,0,0,1-1.94-4c.28-.74.54-1.48.78-2.24a40.52,40.52,0,0,0,1.72-9.18c.21-2.6.29-6.24-2.54-7.48a1.83,1.83,0,0,0-2.49.65,26,26,0,0,0-1.39,17.49c.05.2.11.4.17.6a38.36,38.36,0,0,1-7.51,11.88c-1.43,1.55.83,3.83,2.32,2.32a40.63,40.63,0,0,0,7-9.74,26.43,26.43,0,0,0,1.84,3c1.85,2.56,4.17,5,7.51,5.14,3.11.17,5.64-2.45,7.33-4.72a24.45,24.45,0,0,0,2.14-3.52,9.58,9.58,0,0,0,6.72,4.77,11.07,11.07,0,0,0,7.69-2,22.81,22.81,0,0,0,5,6,2,2,0,1,0,2.48-3.22Z"/><path class="cls-5" d="M188.35,120.17c-6.43,19.62-13.2,39.15-20.47,58.48-.87,2.31,2.69,3.73,3.56,1.42,7.25-19.36,14-38.9,20-58.67.62-2-2.43-3.29-3.1-1.23Z"/><path class="cls-5" d="M129.87,118.93c5.13,20,9.92,40.1,14.19,60.31.51,2.42,4.27,1.7,3.76-.72-4.3-20.22-9.13-40.3-14.67-60.22-.57-2-3.82-1.47-3.28.63Z"/></g></g></svg>