<svg id="Camada_1" data-name="Camada 1" xmlns="http://www.w3.org/2000/svg" xmlns:xlink="http://www.w3.org/1999/xlink" viewBox="0 0 881 246.82"><defs><style>.cls-1{fill:none;}.cls-2{fill:#65c4d1;}.cls-3{fill:#fff;}.cls-4{fill:#f9f9f9;}.cls-5{fill:#97d8dd;}.cls-6{clip-path:url(#clip-path);}.cls-7{fill:#eac2a7;}.cls-8{fill:#c9a68f;}.cls-9{fill:#d6aa8b;}.cls-10{fill:#d6d6d6;}.cls-11{fill:#c99f4b;}.cls-12{fill:#6d5f56;}.cls-13{fill:#493e38;}.cls-14{clip-path:url(#clip-path-2);}.cls-15{fill:#fcfcfc;}.cls-16{fill:#d32222;}.cls-17{fill:#f4f4f4;}.cls-18{clip-path:url(#clip-path-3);}.cls-19{fill:#b7b7b7;}.cls-20{fill:#6d472e;}.cls-21{fill:#c99e32;}.cls-22{clip-path:url(#clip-path-4);}.cls-23{fill:#aa7e30;}.cls-24{fill:#ddd;}.cls-25{fill:#846829;}.cls-26{fill:#e8cd95;}.cls-27{fill:#eaa000;}</style><clipPath id="clip-path"><path class="cls-1" d="M151.82,228.4s-31.17,23.68-83.39,4.23S16.22,63.71,16.22,63.71c-.54,1.42,33.23-44.54,45.58-48.34C65.44,14.25,84.3-.38,100.33,0c22.29.54,48,16.32,48,31.31,0,23,27.87,126.38,27.87,126.38s11.71,45.33,5.86,48.78"/></clipPath><clipPath id="clip-path-2"><path class="cls-1" d="M109.28,70c-.25-.26,14.81.94,20.56-3.29,0,0,1.13,11.45-4,12.71C120.55,80.67,114.46,78.55,109.28,70Z"/></clipPath><clipPath id="clip-path-3"><path class="cls-1" d="M117.8,239.53c3.5,6.94,28.09,8.4,30.13,9.05,0,0,.64-27.86-3.28-43.5S117.8,239.53,117.8,239.53Z"/></clipPath><clipPath id="clip-path-4"><path class="cls-1" d="M87.9,66.9c4.33,1.79.59-6,.59-6s-.41-7.8-2.61-9.12a31.79,31.79,0,0,1-4.82-3.94l11.09-7.6L122.44,19.5s4.18-5.83-5.39-9.42a11.36,11.36,0,0,0-11.58-3.44s-4.19-5-10.25-.41c0,0-12.18-.71-15,5.27A4.54,4.54,0,0,0,75.78,14s-2.54,1-3,3c0,0-6.17,2.43-6.55,6.54,0,0-3.36,4.71-.67,8.52,0,0-1.78,3.35.52,5.65,0,0-5.15,5.64,0,9.16,0,0-1.27,3.66,6.28,5.16l2.25,4.63s2.16-1,8.37,5.23Z"/></clipPath></defs><title>6-title</title><path class="cls-2" d="M871,192.39H152V105H871a10,10,0,0,1,10,10v67.36A10,10,0,0,1,871,192.39Z"/><path class="cls-3" d="M268.88,131h-1.75l-.43-2.44a4.06,4.06,0,0,0-1.41-.74,6.28,6.28,0,0,0-2-.29,4.45,4.45,0,0,0-2.82.78,2.46,2.46,0,0,0-1,2,2.25,2.25,0,0,0,1,1.86,9.42,9.42,0,0,0,3.24,1.3,9.2,9.2,0,0,1,4.09,2,4.2,4.2,0,0,1,1.4,3.22A4,4,0,0,1,267.5,142a7.15,7.15,0,0,1-4.4,1.25,9,9,0,0,1-3.5-.64,7,7,0,0,1-2.49-1.69v-3.17h1.74l.44,2.45a6,6,0,0,0,1.6.9,6.29,6.29,0,0,0,2.21.35,4.63,4.63,0,0,0,2.76-.74,2.33,2.33,0,0,0,1-2,2.54,2.54,0,0,0-.88-2,7.44,7.44,0,0,0-3.1-1.33,10.26,10.26,0,0,1-4.23-1.89,3.91,3.91,0,0,1-1.52-3.16,4.08,4.08,0,0,1,1.69-3.33,7,7,0,0,1,4.42-1.33,8.22,8.22,0,0,1,3.27.62,7.35,7.35,0,0,1,2.36,1.49Z"/><path class="cls-3" d="M271.36,136.53a7,7,0,0,1,1.53-4.63,5.08,5.08,0,0,1,4.13-1.83,5.16,5.16,0,0,1,4.16,1.82,7,7,0,0,1,1.53,4.64v.26a6.92,6.92,0,0,1-1.53,4.64,5.66,5.66,0,0,1-8.29,0,6.91,6.91,0,0,1-1.53-4.63Zm2.31.26a6,6,0,0,0,.85,3.33,2.83,2.83,0,0,0,2.53,1.31,2.8,2.8,0,0,0,2.49-1.31,6,6,0,0,0,.86-3.33v-.26a6,6,0,0,0-.86-3.31,3,3,0,0,0-5,0,6,6,0,0,0-.84,3.31Z"/><path class="cls-3" d="M284.26,126.2v-1.49h4.22v16.47l1.91.33V143h-6.13v-1.48l1.91-.33V126.52Z"/><path class="cls-3" d="M301.21,141.11a4.11,4.11,0,0,1-3.72,2.12,4.08,4.08,0,0,1-3.22-1.32,6.16,6.16,0,0,1-1.16-4.12v-5.66l-1.45-.33v-1.49h3.76v7.5a4.72,4.72,0,0,0,.6,2.79,2.22,2.22,0,0,0,1.86.76,3.79,3.79,0,0,0,2-.5,3.12,3.12,0,0,0,1.22-1.41v-7.32l-1.7-.33v-1.49h4v10.87l1.45.33V143h-3.53Z"/><path class="cls-3" d="M312.41,141.43a3.11,3.11,0,0,0,2-.71,2.14,2.14,0,0,0,.88-1.74h2.07l0,.07A3.58,3.58,0,0,1,316,142a5.34,5.34,0,0,1-3.54,1.27,5.11,5.11,0,0,1-4.22-1.8,7,7,0,0,1-1.46-4.54v-.49a7,7,0,0,1,1.46-4.52,5.15,5.15,0,0,1,4.22-1.81,7,7,0,0,1,2.74.51,5.5,5.5,0,0,1,2,1.38l.1,2.81h-1.84l-.5-2a3,3,0,0,0-1.05-.64,4,4,0,0,0-1.46-.25,2.78,2.78,0,0,0-2.59,1.31,6.14,6.14,0,0,0-.78,3.2v.49a6.27,6.27,0,0,0,.77,3.24A2.78,2.78,0,0,0,312.41,141.43Z"/><path class="cls-3" d="M319.66,141.51l1.91-.33v-9.05l-1.91-.33v-1.49h4.21v10.87l1.91.33V143h-6.12Zm4.21-14.45h-2.3v-2.35h2.3Z"/><path class="cls-3" d="M327.55,136.53a7,7,0,0,1,1.53-4.63,5.08,5.08,0,0,1,4.13-1.83,5.16,5.16,0,0,1,4.16,1.82,7,7,0,0,1,1.53,4.64v.26a6.92,6.92,0,0,1-1.53,4.64,5.66,5.66,0,0,1-8.29,0,6.91,6.91,0,0,1-1.53-4.63Zm2.31.26a6.1,6.1,0,0,0,.85,3.33,2.83,2.83,0,0,0,2.53,1.31,2.8,2.8,0,0,0,2.49-1.31,6,6,0,0,0,.86-3.33v-.26a6,6,0,0,0-.86-3.31,2.8,2.8,0,0,0-2.52-1.33,2.76,2.76,0,0,0-2.5,1.33,6,6,0,0,0-.85,3.31Z"/><path class="cls-3" d="M340.67,141.51l1.91-.33v-9.05l-1.91-.33v-1.49h4l.16,1.89a4.59,4.59,0,0,1,1.59-1.57,4.26,4.26,0,0,1,2.18-.56,4.11,4.11,0,0,1,3.17,1.21,5.25,5.25,0,0,1,1.13,3.7v6.2l1.91.33V143h-6.13v-1.48l1.91-.33V135a3.44,3.44,0,0,0-.66-2.38,2.67,2.67,0,0,0-2-.7,3.25,3.25,0,0,0-1.76.48,3.5,3.5,0,0,0-1.22,1.31v7.44l1.91.33V143h-6.13Z"/><path class="cls-3" d="M364.73,143c-.07-.35-.13-.65-.17-.93a7.34,7.34,0,0,1-.08-.82,5.66,5.66,0,0,1-1.67,1.43,4.83,4.83,0,0,1-5.15-.4,3.55,3.55,0,0,1-1-2.73,3.14,3.14,0,0,1,1.46-2.78,7.1,7.1,0,0,1,4-1h2.38V134.3a2.28,2.28,0,0,0-.71-1.76,2.77,2.77,0,0,0-1.95-.65,5,5,0,0,0-1.53.22,3,3,0,0,0-1.07.61l-.25,1.34h-1.78V131.6a7,7,0,0,1,2.1-1.11,8.21,8.21,0,0,1,2.67-.42,5.27,5.27,0,0,1,3.49,1.11,3.84,3.84,0,0,1,1.34,3.15v6.58l0,.47.94.13V143ZM361,141.3a4.07,4.07,0,0,0,2.1-.55,3.53,3.53,0,0,0,1.36-1.32v-2.09H362a3.5,3.5,0,0,0-2.25.66,2,2,0,0,0-.82,1.59,1.59,1.59,0,0,0,.51,1.27A2.4,2.4,0,0,0,361,141.3Z"/><path class="cls-3" d="M369.33,141.51l1.91-.33v-9.05l-1.91-.33v-1.49h4l.17,1.89a4.5,4.5,0,0,1,1.59-1.57,4.22,4.22,0,0,1,2.17-.56,4.12,4.12,0,0,1,3.18,1.21,5.25,5.25,0,0,1,1.12,3.7v6.2l1.91.33V143h-6.13v-1.48l1.91-.33V135a3.44,3.44,0,0,0-.66-2.38,2.65,2.65,0,0,0-2-.7,3.28,3.28,0,0,0-1.77.48,3.5,3.5,0,0,0-1.22,1.31v7.44l1.91.33V143h-6.13Z"/><path class="cls-3" d="M393.54,141.48a4.15,4.15,0,0,1-1.52,1.31,4.55,4.55,0,0,1-2.08.44,4.33,4.33,0,0,1-3.62-1.68,7,7,0,0,1-1.31-4.42v-.25a8.46,8.46,0,0,1,1.31-4.93,4.2,4.2,0,0,1,3.65-1.88,4.44,4.44,0,0,1,2,.42,4.06,4.06,0,0,1,1.47,1.2v-5.17l-1.91-.32v-1.49h4.22v16.47l1.91.33V143h-3.91Zm-6.22-4.35a5.41,5.41,0,0,0,.78,3.07,2.75,2.75,0,0,0,2.43,1.16,3,3,0,0,0,1.73-.47,3.49,3.49,0,0,0,1.16-1.32v-5.89a3.44,3.44,0,0,0-1.16-1.26,3,3,0,0,0-1.71-.47,2.63,2.63,0,0,0-2.44,1.37,7,7,0,0,0-.79,3.56Z"/><path class="cls-3" d="M399.41,136.53a7,7,0,0,1,1.53-4.63,5.08,5.08,0,0,1,4.13-1.83,5.16,5.16,0,0,1,4.16,1.82,7,7,0,0,1,1.53,4.64v.26a6.92,6.92,0,0,1-1.53,4.64,5.66,5.66,0,0,1-8.29,0,6.91,6.91,0,0,1-1.53-4.63Zm2.31.26a6,6,0,0,0,.85,3.33,2.83,2.83,0,0,0,2.53,1.31,2.8,2.8,0,0,0,2.49-1.31,6,6,0,0,0,.86-3.33v-.26a6,6,0,0,0-.86-3.31,2.8,2.8,0,0,0-2.52-1.33,2.76,2.76,0,0,0-2.5,1.33,6,6,0,0,0-.85,3.31Z"/><path class="cls-3" d="M418.55,146.38l1.91-.33V132.13l-1.91-.33v-1.49h3.89l.21,1.55a4.35,4.35,0,0,1,1.54-1.33,4.71,4.71,0,0,1,2.11-.46,4.22,4.22,0,0,1,3.66,1.87,8.49,8.49,0,0,1,1.3,4.94v.25a6.94,6.94,0,0,1-1.31,4.42,4.33,4.33,0,0,1-3.62,1.68,5.08,5.08,0,0,1-2.06-.39,4,4,0,0,1-1.5-1.16v4.37l1.91.33v1.48h-6.13Zm10.39-9.5a6.76,6.76,0,0,0-.84-3.55,2.75,2.75,0,0,0-2.51-1.38,3.11,3.11,0,0,0-1.68.44,3.43,3.43,0,0,0-1.14,1.22v6.18A3.15,3.15,0,0,0,423.9,141a3.18,3.18,0,0,0,1.72.43,2.84,2.84,0,0,0,2.48-1.2,5.26,5.26,0,0,0,.84-3.1Z"/><path class="cls-3" d="M433.36,131.8v-1.49h4l.23,1.84a4.32,4.32,0,0,1,1.33-1.52,3.06,3.06,0,0,1,1.81-.56,3.51,3.51,0,0,1,.55.05,2.35,2.35,0,0,1,.44.08l-.3,2.15-1.31-.07a2.64,2.64,0,0,0-1.54.43,2.76,2.76,0,0,0-1,1.2v7.27l1.91.33V143h-6.13v-1.48l1.91-.33v-9.05Z"/><path class="cls-3" d="M443.07,136.53a6.94,6.94,0,0,1,1.52-4.63,5.09,5.09,0,0,1,4.14-1.83,5.14,5.14,0,0,1,4.15,1.82,7,7,0,0,1,1.53,4.64v.26a7,7,0,0,1-1.52,4.64,5.67,5.67,0,0,1-8.3,0,6.91,6.91,0,0,1-1.52-4.63Zm2.3.26a6.1,6.1,0,0,0,.85,3.33,2.83,2.83,0,0,0,2.53,1.31,2.8,2.8,0,0,0,2.49-1.31,5.93,5.93,0,0,0,.86-3.33v-.26a5.88,5.88,0,0,0-.86-3.31,3,3,0,0,0-5,0,6,6,0,0,0-.85,3.31Z"/><path class="cls-3" d="M468.12,137.13a6.94,6.94,0,0,1-1.32,4.42,4.36,4.36,0,0,1-3.63,1.68,4.57,4.57,0,0,1-2.15-.47,4.09,4.09,0,0,1-1.53-1.4l-.21,1.63h-2V126.52l-1.91-.32v-1.49h4.22v7.1a4.06,4.06,0,0,1,1.48-1.29,4.51,4.51,0,0,1,2.07-.45,4.23,4.23,0,0,1,3.66,1.88,8.46,8.46,0,0,1,1.31,4.93Zm-2.32-.25a7,7,0,0,0-.8-3.56,2.63,2.63,0,0,0-2.43-1.37,3,3,0,0,0-1.8.52,3.6,3.6,0,0,0-1.17,1.38v5.6a3.5,3.5,0,0,0,1.18,1.39,3,3,0,0,0,1.81.52A2.75,2.75,0,0,0,465,140.2a5.34,5.34,0,0,0,.79-3.07Z"/><path class="cls-3" d="M470,126.2v-1.49h4.22v16.47l1.91.33V143H470v-1.48l1.91-.33V126.52Z"/><path class="cls-3" d="M483.65,143.23a5.35,5.35,0,0,1-4.22-1.76,6.64,6.64,0,0,1-1.56-4.58v-.51a6.52,6.52,0,0,1,1.61-4.51,5,5,0,0,1,3.82-1.8,4.81,4.81,0,0,1,3.87,1.55,6.15,6.15,0,0,1,1.32,4.13v1.44h-8.23l0,.06a5,5,0,0,0,.92,3,2.94,2.94,0,0,0,2.5,1.18,5.84,5.84,0,0,0,2.05-.33,4.88,4.88,0,0,0,1.53-.92l.91,1.5a5.8,5.8,0,0,1-1.8,1.1A7.25,7.25,0,0,1,483.65,143.23Zm-.35-11.34a2.49,2.49,0,0,0-2,1,4.56,4.56,0,0,0-1,2.45l0,.06h5.85v-.3a3.52,3.52,0,0,0-.73-2.28A2.6,2.6,0,0,0,483.3,131.89Z"/><path class="cls-3" d="M490.3,141.51l1.91-.33v-9.05l-1.91-.33v-1.49h4l.15,1.65a4.12,4.12,0,0,1,1.57-1.39,4.79,4.79,0,0,1,2.23-.5,3.91,3.91,0,0,1,2.17.59,3.57,3.57,0,0,1,1.37,1.76,4.57,4.57,0,0,1,1.58-1.71,4.16,4.16,0,0,1,2.3-.64,3.84,3.84,0,0,1,3.07,1.33,6.11,6.11,0,0,1,1.12,4v5.77l1.91.33V143h-6.14v-1.48l1.91-.33v-5.8a4.2,4.2,0,0,0-.64-2.65A2.34,2.34,0,0,0,505,132a2.41,2.41,0,0,0-1.94.85,3.64,3.64,0,0,0-.85,2.14v6.24l1.91.33V143H498v-1.48l1.91-.33v-5.8a4.16,4.16,0,0,0-.66-2.6,2.3,2.3,0,0,0-1.92-.83,3.15,3.15,0,0,0-1.73.43,2.79,2.79,0,0,0-1.05,1.22v7.58l1.91.33V143H490.3Z"/><path class="cls-3" d="M521.71,143c-.07-.35-.13-.65-.16-.93s-.07-.54-.09-.82a5.54,5.54,0,0,1-1.67,1.43,4.21,4.21,0,0,1-2.13.56,4.28,4.28,0,0,1-3-1,3.59,3.59,0,0,1-1-2.73,3.16,3.16,0,0,1,1.46-2.78,7.13,7.13,0,0,1,4-1h2.38V134.3a2.27,2.27,0,0,0-.7-1.76,2.79,2.79,0,0,0-2-.65,5,5,0,0,0-1.53.22,3,3,0,0,0-1.07.61l-.25,1.34h-1.78V131.6a7,7,0,0,1,2.1-1.11,8.21,8.21,0,0,1,2.67-.42,5.27,5.27,0,0,1,3.49,1.11,3.81,3.81,0,0,1,1.34,3.15v6.1c0,.17,0,.33,0,.48a3.59,3.59,0,0,0,0,.47l.93.13V143ZM518,141.3a4.07,4.07,0,0,0,2.1-.55,3.4,3.4,0,0,0,1.36-1.32v-2.09H519a3.49,3.49,0,0,0-2.24.66,2,2,0,0,0-.83,1.59,1.56,1.56,0,0,0,.52,1.27A2.35,2.35,0,0,0,518,141.3Z"/><path class="cls-3" d="M536.36,134.29h-1.74l-.37-1.52a3.1,3.1,0,0,0-1.06-.64,4.12,4.12,0,0,0-1.45-.24,2.67,2.67,0,0,0-1.83.54,1.67,1.67,0,0,0-.59,1.3,1.43,1.43,0,0,0,.52,1.18,5.5,5.5,0,0,0,2.15.78,9.16,9.16,0,0,1,3.57,1.4,2.82,2.82,0,0,1,1.17,2.37,3.26,3.26,0,0,1-1.36,2.73,5.69,5.69,0,0,1-3.57,1,9.41,9.41,0,0,1-2.59-.33,6.58,6.58,0,0,1-2.05-1V139h1.73l.44,1.7a2.38,2.38,0,0,0,1.08.53,6,6,0,0,0,1.4.16,3.3,3.3,0,0,0,1.93-.5,1.54,1.54,0,0,0,.69-1.3,1.57,1.57,0,0,0-.58-1.26,5.31,5.31,0,0,0-2.19-.85,9.24,9.24,0,0,1-3.48-1.38A2.75,2.75,0,0,1,527,133.8a3.32,3.32,0,0,1,1.32-2.64,5.24,5.24,0,0,1,3.43-1.09,8.3,8.3,0,0,1,2.59.38,5.46,5.46,0,0,1,1.91,1Z"/><path class="cls-3" d="M544.34,132v-1.71h2v-1.37a4.33,4.33,0,0,1,1.25-3.31,4.91,4.91,0,0,1,3.47-1.17,6.32,6.32,0,0,1,1.55.19c.51.12,1.11.3,1.78.53l-.39,1.87a11.36,11.36,0,0,0-1.32-.42,5.8,5.8,0,0,0-1.44-.18,2.75,2.75,0,0,0-2,.61,2.59,2.59,0,0,0-.6,1.88v1.37h7.23v10.87l1.91.33V143h-6.13v-1.48l1.91-.33V132h-4.92v9.16l1.91.33V143h-6.13v-1.48l1.91-.33V132Z"/><path class="cls-3" d="M559.06,141.51l1.36-.27,3.74-4.66-3.63-4.51-1.36-.27v-1.49h5v1.49l-1.15.14,2.37,3,2.38-3-1.14-.13v-1.49h5v1.49l-1.36.27-3.62,4.51,3.72,4.66,1.38.27V143h-5v-1.48l1.12-.13-2.48-3.18-2.49,3.18,1.14.13V143h-5Z"/><path class="cls-3" d="M581.62,143c-.07-.35-.13-.65-.17-.93s-.06-.54-.08-.82a5.66,5.66,0,0,1-1.67,1.43,4.83,4.83,0,0,1-5.15-.4,3.55,3.55,0,0,1-1-2.73,3.14,3.14,0,0,1,1.46-2.78,7.1,7.1,0,0,1,4-1h2.38V134.3a2.3,2.3,0,0,0-.7-1.76,2.81,2.81,0,0,0-2-.65,5,5,0,0,0-1.53.22,3,3,0,0,0-1.07.61l-.25,1.34h-1.78V131.6a7,7,0,0,1,2.1-1.11,8.21,8.21,0,0,1,2.67-.42,5.27,5.27,0,0,1,3.49,1.11,3.84,3.84,0,0,1,1.34,3.15v6.58l0,.47.94.13V143Zm-3.72-1.69a4.07,4.07,0,0,0,2.1-.55,3.53,3.53,0,0,0,1.36-1.32v-2.09H578.9a3.5,3.5,0,0,0-2.25.66,2,2,0,0,0-.82,1.59,1.59,1.59,0,0,0,.51,1.27A2.4,2.4,0,0,0,577.9,141.3Z"/><path class="cls-3" d="M586.1,141.51l1.91-.33v-9.05l-1.91-.33v-1.49h4l.15,1.65a4.12,4.12,0,0,1,1.57-1.39,4.79,4.79,0,0,1,2.23-.5,3.91,3.91,0,0,1,2.17.59,3.57,3.57,0,0,1,1.37,1.76,4.65,4.65,0,0,1,1.58-1.71,4.18,4.18,0,0,1,2.3-.64,3.84,3.84,0,0,1,3.07,1.33,6.11,6.11,0,0,1,1.12,4v5.77l1.91.33V143h-6.14v-1.48l1.91-.33v-5.8a4.2,4.2,0,0,0-.64-2.65,2.34,2.34,0,0,0-1.91-.78,2.41,2.41,0,0,0-1.94.85,3.71,3.71,0,0,0-.85,2.14v6.24l1.91.33V143h-6.13v-1.48l1.91-.33v-5.8a4.16,4.16,0,0,0-.66-2.6,2.3,2.3,0,0,0-1.92-.83,3.15,3.15,0,0,0-1.73.43,2.85,2.85,0,0,0-1,1.22v7.58l1.91.33V143H586.1Z"/><path class="cls-3" d="M609.13,136.53a7,7,0,0,1,1.53-4.63,5.08,5.08,0,0,1,4.13-1.83,5.16,5.16,0,0,1,4.16,1.82,7,7,0,0,1,1.53,4.64v.26a6.92,6.92,0,0,1-1.53,4.64,5.66,5.66,0,0,1-8.29,0,6.91,6.91,0,0,1-1.53-4.63Zm2.31.26a6,6,0,0,0,.85,3.33,2.83,2.83,0,0,0,2.53,1.31,2.8,2.8,0,0,0,2.49-1.31,6,6,0,0,0,.86-3.33v-.26a6,6,0,0,0-.86-3.31,3,3,0,0,0-5,0,6,6,0,0,0-.84,3.31Z"/><path class="cls-3" d="M632.29,134.29h-1.74l-.37-1.52a3.1,3.1,0,0,0-1.06-.64,4.12,4.12,0,0,0-1.45-.24,2.67,2.67,0,0,0-1.83.54,1.68,1.68,0,0,0-.6,1.3,1.44,1.44,0,0,0,.53,1.18,5.5,5.5,0,0,0,2.15.78,9.16,9.16,0,0,1,3.57,1.4,2.82,2.82,0,0,1,1.17,2.37,3.26,3.26,0,0,1-1.36,2.73,5.69,5.69,0,0,1-3.57,1,9.41,9.41,0,0,1-2.59-.33,6.58,6.58,0,0,1-2-1V139h1.73l.43,1.7a2.47,2.47,0,0,0,1.09.53,6,6,0,0,0,1.4.16,3.3,3.3,0,0,0,1.93-.5,1.54,1.54,0,0,0,.69-1.3,1.57,1.57,0,0,0-.58-1.26,5.31,5.31,0,0,0-2.19-.85,9.24,9.24,0,0,1-3.48-1.38,2.75,2.75,0,0,1-1.18-2.34,3.32,3.32,0,0,1,1.32-2.64,5.24,5.24,0,0,1,3.43-1.09,8.34,8.34,0,0,1,2.59.38,5.46,5.46,0,0,1,1.91,1Z"/><path class="cls-3" d="M649.06,143c-.07-.35-.13-.65-.17-.93s-.06-.54-.08-.82a5.54,5.54,0,0,1-1.67,1.43,4.83,4.83,0,0,1-5.15-.4,3.55,3.55,0,0,1-1-2.73,3.16,3.16,0,0,1,1.46-2.78,7.13,7.13,0,0,1,4-1h2.38V134.3a2.27,2.27,0,0,0-.7-1.76,2.79,2.79,0,0,0-2-.65,5,5,0,0,0-1.53.22,3,3,0,0,0-1.07.61l-.25,1.34h-1.78V131.6a7,7,0,0,1,2.1-1.11,8.21,8.21,0,0,1,2.67-.42,5.27,5.27,0,0,1,3.49,1.11,3.84,3.84,0,0,1,1.34,3.15v6.58l0,.47.94.13V143Zm-3.72-1.69a4.07,4.07,0,0,0,2.1-.55,3.46,3.46,0,0,0,1.36-1.32v-2.09h-2.46a3.52,3.52,0,0,0-2.25.66,2,2,0,0,0-.82,1.59,1.59,1.59,0,0,0,.51,1.27A2.4,2.4,0,0,0,645.34,141.3Z"/><path class="cls-3" d="M654,141.51l1.91-.33v-9.05L654,131.8v-1.49h4.22v10.87l1.91.33V143H654Zm4.22-14.45h-2.31v-2.35h2.31Z"/><path class="cls-3" d="M661.55,141.51l1.91-.33v-9.05l-1.91-.33v-1.49h4l.17,1.89a4.56,4.56,0,0,1,1.58-1.57,4.29,4.29,0,0,1,2.18-.56,4.09,4.09,0,0,1,3.17,1.21,5.25,5.25,0,0,1,1.13,3.7v6.2l1.91.33V143h-6.13v-1.48l1.91-.33V135a3.44,3.44,0,0,0-.66-2.38,2.65,2.65,0,0,0-2-.7,3.26,3.26,0,0,0-1.77.48,3.5,3.5,0,0,0-1.22,1.31v7.44l1.91.33V143h-6.13Z"/><path class="cls-3" d="M685.76,141.48a4.15,4.15,0,0,1-1.52,1.31,4.55,4.55,0,0,1-2.08.44,4.33,4.33,0,0,1-3.62-1.68,6.94,6.94,0,0,1-1.31-4.42v-.25a8.38,8.38,0,0,1,1.31-4.93,4.19,4.19,0,0,1,3.65-1.88,4.44,4.44,0,0,1,2,.42,4.06,4.06,0,0,1,1.47,1.2v-5.17l-1.91-.32v-1.49H688v16.47l1.91.33V143H686Zm-6.22-4.35a5.41,5.41,0,0,0,.78,3.07,2.75,2.75,0,0,0,2.43,1.16,3.06,3.06,0,0,0,1.73-.47,3.49,3.49,0,0,0,1.16-1.32v-5.89a3.44,3.44,0,0,0-1.16-1.26,3,3,0,0,0-1.71-.47,2.63,2.63,0,0,0-2.44,1.37,7,7,0,0,0-.79,3.56Z"/><path class="cls-3" d="M699.89,143c-.07-.35-.12-.65-.16-.93a7.34,7.34,0,0,1-.08-.82,5.66,5.66,0,0,1-1.67,1.43,4.83,4.83,0,0,1-5.15-.4,3.55,3.55,0,0,1-1-2.73,3.15,3.15,0,0,1,1.45-2.78,7.16,7.16,0,0,1,4-1h2.38V134.3a2.28,2.28,0,0,0-.71-1.76,2.78,2.78,0,0,0-1.95-.65,5,5,0,0,0-1.53.22,3,3,0,0,0-1.08.61l-.24,1.34h-1.78V131.6a6.8,6.8,0,0,1,2.09-1.11,8.27,8.27,0,0,1,2.68-.42,5.29,5.29,0,0,1,3.49,1.11,3.84,3.84,0,0,1,1.33,3.15v6.1c0,.17,0,.33,0,.48a3.59,3.59,0,0,0,0,.47l.94.13V143Zm-3.71-1.69a4.12,4.12,0,0,0,2.1-.55,3.53,3.53,0,0,0,1.36-1.32v-2.09h-2.47a3.49,3.49,0,0,0-2.24.66,2,2,0,0,0-.83,1.59,1.59,1.59,0,0,0,.52,1.27A2.36,2.36,0,0,0,696.18,141.3Z"/><path class="cls-3" d="M710.35,141.51l1.91-.33v-9.05l-1.91-.33v-1.49h4l.15,1.65a4.12,4.12,0,0,1,1.57-1.39,4.82,4.82,0,0,1,2.23-.5,3.91,3.91,0,0,1,2.17.59,3.57,3.57,0,0,1,1.37,1.76,4.65,4.65,0,0,1,1.58-1.71,4.18,4.18,0,0,1,2.3-.64,3.84,3.84,0,0,1,3.07,1.33,6.11,6.11,0,0,1,1.12,4v5.77l1.91.33V143h-6.14v-1.48l1.91-.33v-5.8a4.2,4.2,0,0,0-.64-2.65A2.34,2.34,0,0,0,725,132a2.42,2.42,0,0,0-1.94.85,3.71,3.71,0,0,0-.85,2.14v6.24l1.91.33V143H718v-1.48l1.91-.33v-5.8a4.16,4.16,0,0,0-.66-2.6,2.29,2.29,0,0,0-1.92-.83,3.15,3.15,0,0,0-1.73.43,2.83,2.83,0,0,0-1,1.22v7.58l1.91.33V143h-6.13Z"/><path class="cls-3" d="M741.75,143c-.07-.35-.12-.65-.16-.93a7.34,7.34,0,0,1-.08-.82,5.79,5.79,0,0,1-1.67,1.43,4.83,4.83,0,0,1-5.15-.4,3.55,3.55,0,0,1-1-2.73,3.15,3.15,0,0,1,1.45-2.78,7.16,7.16,0,0,1,4-1h2.37V134.3a2.27,2.27,0,0,0-.7-1.76,2.79,2.79,0,0,0-2-.65,5,5,0,0,0-1.52.22,3,3,0,0,0-1.08.61l-.24,1.34h-1.78V131.6a6.8,6.8,0,0,1,2.09-1.11,8.23,8.23,0,0,1,2.68-.42,5.29,5.29,0,0,1,3.49,1.11,3.84,3.84,0,0,1,1.33,3.15v6.1c0,.17,0,.33,0,.48a3.59,3.59,0,0,0,0,.47l.94.13V143ZM738,141.3a4.12,4.12,0,0,0,2.1-.55,3.43,3.43,0,0,0,1.35-1.32v-2.09H739a3.49,3.49,0,0,0-2.24.66,2,2,0,0,0-.83,1.59,1.59,1.59,0,0,0,.52,1.27A2.36,2.36,0,0,0,738,141.3Z"/><path class="cls-3" d="M746.7,141.51l1.91-.33v-9.05l-1.91-.33v-1.49h4.22v10.87l1.91.33V143H746.7Zm4.22-14.45h-2.31v-2.35h2.31Z"/><path class="cls-3" d="M764.29,134.29h-1.74l-.37-1.52a3.1,3.1,0,0,0-1.06-.64,4.12,4.12,0,0,0-1.45-.24,2.67,2.67,0,0,0-1.83.54,1.68,1.68,0,0,0-.6,1.3,1.44,1.44,0,0,0,.53,1.18,5.5,5.5,0,0,0,2.15.78,9.16,9.16,0,0,1,3.57,1.4,2.82,2.82,0,0,1,1.17,2.37,3.26,3.26,0,0,1-1.36,2.73,5.69,5.69,0,0,1-3.57,1,9.41,9.41,0,0,1-2.59-.33,6.58,6.58,0,0,1-2-1V139h1.73l.43,1.7a2.47,2.47,0,0,0,1.09.53,6,6,0,0,0,1.4.16,3.3,3.3,0,0,0,1.93-.5,1.54,1.54,0,0,0,.69-1.3,1.57,1.57,0,0,0-.58-1.26,5.31,5.31,0,0,0-2.19-.85,9.24,9.24,0,0,1-3.48-1.38,2.75,2.75,0,0,1-1.18-2.34,3.32,3.32,0,0,1,1.32-2.64,5.24,5.24,0,0,1,3.43-1.09,8.34,8.34,0,0,1,2.59.38,5.46,5.46,0,0,1,1.91,1Z"/><path class="cls-3" d="M772.8,136.53a6.94,6.94,0,0,1,1.52-4.63,5.09,5.09,0,0,1,4.14-1.83,5.14,5.14,0,0,1,4.15,1.82,7,7,0,0,1,1.53,4.64v.26a7,7,0,0,1-1.52,4.64,5.67,5.67,0,0,1-8.3,0,6.91,6.91,0,0,1-1.52-4.63Zm2.3.26a6.1,6.1,0,0,0,.85,3.33,3.07,3.07,0,0,0,5,0,6,6,0,0,0,.85-3.33v-.26a6,6,0,0,0-.85-3.31,3,3,0,0,0-5,0,6,6,0,0,0-.85,3.31Z"/><path class="cls-3" d="M256.4,170.31l1.91-.33v-9.06l-1.91-.32v-1.49h4l.16,1.89a4.67,4.67,0,0,1,1.59-1.57,4.26,4.26,0,0,1,2.18-.56,4.11,4.11,0,0,1,3.17,1.21,5.25,5.25,0,0,1,1.13,3.7V170l1.91.33v1.48h-6.13v-1.48l1.91-.33v-6.15a3.44,3.44,0,0,0-.66-2.38,2.67,2.67,0,0,0-2-.7,3.25,3.25,0,0,0-1.76.48,3.5,3.5,0,0,0-1.22,1.31V170l1.91.33v1.48H256.4Z"/><path class="cls-3" d="M272.08,165.33a6.94,6.94,0,0,1,1.52-4.63,5.62,5.62,0,0,1,8.29,0,7,7,0,0,1,1.53,4.64v.26a7,7,0,0,1-1.52,4.64,5.67,5.67,0,0,1-8.3,0,6.91,6.91,0,0,1-1.52-4.63Zm2.31.26a6,6,0,0,0,.85,3.33,3.06,3.06,0,0,0,5,0,6,6,0,0,0,.85-3.33v-.26a6,6,0,0,0-.85-3.32,3.06,3.06,0,0,0-5,0,6.11,6.11,0,0,0-.84,3.32Z"/><path class="cls-3" d="M295.23,163.09H293.5l-.38-1.52a3,3,0,0,0-1.06-.64,4,4,0,0,0-1.44-.24,2.67,2.67,0,0,0-1.83.54,1.68,1.68,0,0,0-.6,1.3,1.45,1.45,0,0,0,.53,1.18,5.44,5.44,0,0,0,2.14.78,9.21,9.21,0,0,1,3.58,1.4,2.82,2.82,0,0,1,1.17,2.37,3.27,3.27,0,0,1-1.37,2.73,5.69,5.69,0,0,1-3.57,1,9.41,9.41,0,0,1-2.59-.33,6.8,6.8,0,0,1-2.05-1v-2.89h1.74l.43,1.7a2.49,2.49,0,0,0,1.08.53,6.61,6.61,0,0,0,1.4.16,3.28,3.28,0,0,0,1.93-.5,1.53,1.53,0,0,0,.7-1.31,1.57,1.57,0,0,0-.58-1.25,5.43,5.43,0,0,0-2.2-.85,9.24,9.24,0,0,1-3.48-1.38,2.74,2.74,0,0,1-1.17-2.34,3.32,3.32,0,0,1,1.32-2.64,5.24,5.24,0,0,1,3.43-1.09,8.34,8.34,0,0,1,2.59.38,5.55,5.55,0,0,1,1.91,1Z"/><path class="cls-3" d="M307.47,163.09h-1.74l-.37-1.52a3.1,3.1,0,0,0-1.06-.64,4.12,4.12,0,0,0-1.45-.24,2.67,2.67,0,0,0-1.83.54,1.68,1.68,0,0,0-.6,1.3,1.45,1.45,0,0,0,.53,1.18,5.5,5.5,0,0,0,2.15.78,9.16,9.16,0,0,1,3.57,1.4,2.82,2.82,0,0,1,1.17,2.37,3.26,3.26,0,0,1-1.36,2.73,5.69,5.69,0,0,1-3.57,1,9.35,9.35,0,0,1-2.59-.33,6.58,6.58,0,0,1-2.05-1v-2.89H300l.43,1.7a2.47,2.47,0,0,0,1.09.53,6.53,6.53,0,0,0,1.4.16,3.3,3.3,0,0,0,1.93-.5,1.54,1.54,0,0,0,.69-1.31,1.57,1.57,0,0,0-.58-1.25,5.37,5.37,0,0,0-2.19-.85,9.24,9.24,0,0,1-3.48-1.38,2.73,2.73,0,0,1-1.18-2.34,3.32,3.32,0,0,1,1.32-2.64,5.24,5.24,0,0,1,3.43-1.09,8.34,8.34,0,0,1,2.59.38,5.46,5.46,0,0,1,1.91,1Z"/><path class="cls-3" d="M310,165.33a7,7,0,0,1,1.52-4.63,5.62,5.62,0,0,1,8.29,0,7,7,0,0,1,1.53,4.64v.26a6.92,6.92,0,0,1-1.52,4.64,5.67,5.67,0,0,1-8.3,0,7,7,0,0,1-1.52-4.63Zm2.31.26a6,6,0,0,0,.85,3.33,3.06,3.06,0,0,0,5,0,6,6,0,0,0,.86-3.33v-.26a6,6,0,0,0-.86-3.32,3.06,3.06,0,0,0-5,0,6.11,6.11,0,0,0-.84,3.32Z"/><path class="cls-3" d="M335.12,170.23a3.16,3.16,0,0,0,2-.71,2.16,2.16,0,0,0,.87-1.74h2.07l0,.07a3.55,3.55,0,0,1-1.46,2.91,5.32,5.32,0,0,1-3.54,1.27,5.11,5.11,0,0,1-4.22-1.8,7,7,0,0,1-1.46-4.54v-.49a7,7,0,0,1,1.47-4.52,5.11,5.11,0,0,1,4.21-1.81,7,7,0,0,1,2.74.51,5.38,5.38,0,0,1,2,1.38l.11,2.81h-1.84l-.51-2a3,3,0,0,0-1.05-.64,4,4,0,0,0-1.46-.25,2.78,2.78,0,0,0-2.59,1.31,6.14,6.14,0,0,0-.78,3.2v.49a6.27,6.27,0,0,0,.77,3.24A2.79,2.79,0,0,0,335.12,170.23Z"/><path class="cls-3" d="M342.38,165.33a7,7,0,0,1,1.52-4.63,5.62,5.62,0,0,1,8.29,0,7,7,0,0,1,1.53,4.64v.26a7,7,0,0,1-1.52,4.64,5.67,5.67,0,0,1-8.3,0,7,7,0,0,1-1.52-4.63Zm2.31.26a6,6,0,0,0,.85,3.33,3.06,3.06,0,0,0,5,0,6,6,0,0,0,.85-3.33v-.26a6,6,0,0,0-.85-3.32,3.06,3.06,0,0,0-5,0,6.11,6.11,0,0,0-.84,3.32Z"/><path class="cls-3" d="M355.49,170.31l1.91-.33v-9.06l-1.91-.32v-1.49h4l.17,1.89a4.5,4.5,0,0,1,1.59-1.57,4.22,4.22,0,0,1,2.17-.56,4.12,4.12,0,0,1,3.18,1.21,5.25,5.25,0,0,1,1.12,3.7V170l1.91.33v1.48h-6.13v-1.48l1.91-.33v-6.15a3.44,3.44,0,0,0-.66-2.38,2.65,2.65,0,0,0-2-.7,3.28,3.28,0,0,0-1.77.48,3.5,3.5,0,0,0-1.22,1.31V170l1.91.33v1.48h-6.13Z"/><path class="cls-3" d="M371,170.31l1.91-.33V155.32L371,155v-1.49h4.22v7.29a4.61,4.61,0,0,1,1.6-1.42,4.42,4.42,0,0,1,2.11-.51,4.11,4.11,0,0,1,3.17,1.22,5.41,5.41,0,0,1,1.12,3.75V170l1.91.33v1.48H379v-1.48l1.91-.33v-6.16a3.38,3.38,0,0,0-.67-2.32,2.57,2.57,0,0,0-2-.75,3.41,3.41,0,0,0-1.73.45,3.73,3.73,0,0,0-1.28,1.22V170l1.91.33v1.48H371Z"/><path class="cls-3" d="M392.44,172a5.32,5.32,0,0,1-4.21-1.76,6.62,6.62,0,0,1-1.57-4.58v-.51a6.52,6.52,0,0,1,1.61-4.51,5,5,0,0,1,3.82-1.8,4.81,4.81,0,0,1,3.87,1.55,6.15,6.15,0,0,1,1.32,4.13V166h-8.23l0,.06a5,5,0,0,0,.92,3,3,3,0,0,0,2.5,1.18,5.9,5.9,0,0,0,2.06-.33A4.88,4.88,0,0,0,396,169l.9,1.5a5.57,5.57,0,0,1-1.8,1.1A7.21,7.21,0,0,1,392.44,172Zm-.35-11.34a2.52,2.52,0,0,0-2,1,4.64,4.64,0,0,0-1,2.45l0,.06H395v-.3a3.52,3.52,0,0,0-.73-2.28A2.6,2.6,0,0,0,392.09,160.69Z"/><path class="cls-3" d="M405.25,170.23a3.13,3.13,0,0,0,2-.71,2.16,2.16,0,0,0,.87-1.74h2.08l0,.07a3.55,3.55,0,0,1-1.46,2.91,5.32,5.32,0,0,1-3.53,1.27,5.15,5.15,0,0,1-4.23-1.8,7,7,0,0,1-1.45-4.54v-.49a7,7,0,0,1,1.46-4.52,5.13,5.13,0,0,1,4.22-1.81,7,7,0,0,1,2.74.51,5.42,5.42,0,0,1,2,1.38l.11,2.81h-1.84l-.5-2a3.16,3.16,0,0,0-1.06-.64,3.9,3.9,0,0,0-1.45-.25,2.79,2.79,0,0,0-2.6,1.31,6.14,6.14,0,0,0-.78,3.2v.49a6.17,6.17,0,0,0,.78,3.24A2.77,2.77,0,0,0,405.25,170.23Z"/><path class="cls-3" d="M412.49,170.31l1.91-.33v-9.06l-1.91-.32v-1.49h4.22V170l1.91.33v1.48h-6.13Zm4.22-14.45H414.4v-2.35h2.31Z"/><path class="cls-3" d="M419.92,170.31l1.91-.33v-9.06l-1.91-.32v-1.49h4l.15,1.65a4,4,0,0,1,1.57-1.39,4.78,4.78,0,0,1,2.22-.5,4,4,0,0,1,2.18.59,3.55,3.55,0,0,1,1.36,1.76,4.68,4.68,0,0,1,1.59-1.71,4.15,4.15,0,0,1,2.29-.64,3.82,3.82,0,0,1,3.07,1.33,6.09,6.09,0,0,1,1.13,4V170l1.91.33v1.48h-6.14v-1.48l1.91-.33v-5.8a4.2,4.2,0,0,0-.65-2.65,2.33,2.33,0,0,0-1.91-.78,2.43,2.43,0,0,0-1.94.85,3.71,3.71,0,0,0-.85,2.14V170l1.91.33v1.48h-6.13v-1.48l1.91-.33v-5.8a4.16,4.16,0,0,0-.66-2.6,2.28,2.28,0,0,0-1.91-.83,3.18,3.18,0,0,0-1.74.43,2.83,2.83,0,0,0-1,1.22V170l1.91.33v1.48h-6.13Z"/><path class="cls-3" d="M448.73,172a5.35,5.35,0,0,1-4.22-1.76,6.66,6.66,0,0,1-1.56-4.58v-.51a6.52,6.52,0,0,1,1.61-4.51,5,5,0,0,1,3.81-1.8,4.82,4.82,0,0,1,3.88,1.55,6.15,6.15,0,0,1,1.32,4.13V166h-8.23l0,.06a5.07,5.07,0,0,0,.93,3,2.94,2.94,0,0,0,2.5,1.18,5.84,5.84,0,0,0,2-.33,4.88,4.88,0,0,0,1.53-.92l.9,1.5a5.57,5.57,0,0,1-1.8,1.1A7.16,7.16,0,0,1,448.73,172Zm-.36-11.34a2.52,2.52,0,0,0-2,1,4.63,4.63,0,0,0-1,2.45l0,.06h5.85v-.3a3.58,3.58,0,0,0-.73-2.28A2.61,2.61,0,0,0,448.37,160.69Z"/><path class="cls-3" d="M455.5,170.31l1.91-.33v-9.06l-1.91-.32v-1.49h4l.17,1.89a4.56,4.56,0,0,1,1.58-1.57,4.26,4.26,0,0,1,2.18-.56,4.11,4.11,0,0,1,3.17,1.21,5.25,5.25,0,0,1,1.13,3.7V170l1.91.33v1.48h-6.13v-1.48l1.91-.33v-6.15a3.44,3.44,0,0,0-.66-2.38,2.65,2.65,0,0,0-2-.7,3.26,3.26,0,0,0-1.77.48,3.5,3.5,0,0,0-1.22,1.31V170l1.91.33v1.48H455.5Z"/><path class="cls-3" d="M475.32,156.05v3.06h2.4v1.71h-2.4v7.7a1.74,1.74,0,0,0,.36,1.25,1.37,1.37,0,0,0,1,.37,4.49,4.49,0,0,0,.69-.06A6,6,0,0,0,478,170l.31,1.58a3,3,0,0,1-1,.35,6,6,0,0,1-1.26.13,3,3,0,0,1-2.24-.85,3.64,3.64,0,0,1-.83-2.66v-7.7h-2v-1.71h2v-3.06Z"/><path class="cls-3" d="M479.85,165.33a7,7,0,0,1,1.52-4.63,5.62,5.62,0,0,1,8.29,0,7,7,0,0,1,1.53,4.64v.26a6.92,6.92,0,0,1-1.52,4.64,5.67,5.67,0,0,1-8.3,0,7,7,0,0,1-1.52-4.63Zm2.31.26a6,6,0,0,0,.85,3.33,3.06,3.06,0,0,0,5,0,6,6,0,0,0,.86-3.33v-.26A6,6,0,0,0,488,162a3.06,3.06,0,0,0-5,0,6.11,6.11,0,0,0-.84,3.32Z"/><path class="cls-3" d="M496.24,166.19h-2.3V154.73h2.3Zm0,5.6h-2.3V169.4h2.3Z"/><circle class="cls-4" cx="106" cy="140.82" r="103"/><path class="cls-2" d="M106,40.82a100,100,0,1,1-100,100,100,100,0,0,1,100-100m0-6a106,106,0,1,0,106,106,106.12,106.12,0,0,0-106-106Z"/><path class="cls-5" d="M105.74,41a99.74,99.74,0,1,0,99.74,99.74A99.73,99.73,0,0,0,105.74,41Zm0,192.82a93.09,93.09,0,1,1,93.09-93.08A93.08,93.08,0,0,1,105.74,233.82Z"/><path class="cls-5" d="M152.81,68.28a3.33,3.33,0,0,0-4.61,1l-5.43,8.37a3.32,3.32,0,0,0,1,4.65,42.72,42.72,0,0,1,3.73,2.66c.75.57,1.5,1.14,2.08,1.55,1,.85,2,1.75,3,2.65l-2.3,2.3a66.67,66.67,0,0,0-14.57-10l6.8-15.24a3.32,3.32,0,0,0-1.69-4.4,86.89,86.89,0,0,0-30.63-7.29,3.3,3.3,0,0,0-3.49,3.14l-.52,10a3.33,3.33,0,0,0,3.14,3.49l3.5.17,3.73.57,1.44.22c.72.1,1.44.21,2.07.35l.45.12-.87,3.25a67.61,67.61,0,0,0-17.61-1.42l-1.72-16.64a3.31,3.31,0,0,0-3.66-3,85.73,85.73,0,0,0-30.2,9,3.32,3.32,0,0,0-1.45,4.47l4.54,8.88A3.32,3.32,0,0,0,74,78.63c.67-.31,1.33-.63,2-1a34.31,34.31,0,0,1,4.75-2l.85-.32c1-.37,2-.73,2.93-1l.86,3.22c-.82.27-1.61.57-2.4.86l-.79.3a32.12,32.12,0,0,0-4.72,2c-.57.28-1.14.57-2,1L69.8,84.86l-.38.21L59.61,71.6a3.35,3.35,0,0,0-2.17-1.33,3.3,3.3,0,0,0-2.47.6,86.52,86.52,0,0,0-21.69,22.8,3.33,3.33,0,0,0,1,4.6l8.36,5.44a3.31,3.31,0,0,0,2.55.45,3.27,3.27,0,0,0,2.1-1.51q1.23-1.92,2.65-3.72c.58-.75,1.15-1.51,1.56-2.09.85-1,1.75-2,2.65-3l2.3,2.3a66.28,66.28,0,0,0-10,14.57L31.2,103.9a3.34,3.34,0,0,0-4.4,1.69,86.94,86.94,0,0,0-7.29,30.64,3.34,3.34,0,0,0,3.15,3.49l10,.51a3.3,3.3,0,0,0,3.49-3.14l.18-3.5.56-3.73c.09-.47.16-1,.22-1.44.11-.72.21-1.44.35-2.06l.12-.46,3.25.87a67.61,67.61,0,0,0-1.42,17.61l-16.64,1.73a3.33,3.33,0,0,0-3,3.65,86.8,86.8,0,0,0,9,30.21,3.34,3.34,0,0,0,1.94,1.65,3.28,3.28,0,0,0,2.53-.21l8.88-4.53a3.32,3.32,0,0,0,1.51-4.36c-.31-.66-.63-1.31-1-2a34.73,34.73,0,0,1-2-4.78l-.33-.88c-.37-1-.72-2-1-2.91l3.26-.87A65.78,65.78,0,0,0,50.11,177L36.6,186.86a3.32,3.32,0,0,0-.73,4.65,86.47,86.47,0,0,0,22.8,21.68,3.32,3.32,0,0,0,4.6-1l5.44-8.36a3.32,3.32,0,0,0-1.06-4.66c-1.28-.82-2.53-1.7-3.73-2.65-.74-.58-1.49-1.15-2.08-1.56-1-.85-2-1.75-3-2.65L61.18,190c.89.81,1.81,1.63,2.92,2.54.64.46,1.27.94,1.9,1.43a39.8,39.8,0,0,0,3.71,2.6L75.64,200l.08,0-6.81,15.27a3.29,3.29,0,0,0-.07,2.54,3.34,3.34,0,0,0,1.75,1.85A87,87,0,0,0,101.23,227h.17a3.33,3.33,0,0,0,3.32-3.16l.51-9.95a3.32,3.32,0,0,0-3.14-3.5l-3.49-.17-3.73-.57-1.44-.22c-.72-.1-1.44-.21-2.07-.35l-.46-.12.88-3.25a67.57,67.57,0,0,0,17.6,1.42l1.73,16.64a3.31,3.31,0,0,0,3.65,3,85.57,85.57,0,0,0,30.21-9,3.32,3.32,0,0,0,1.45-4.47l-4.54-8.88a3.32,3.32,0,0,0-4.35-1.51c-.67.31-1.33.64-2,1a34.31,34.31,0,0,1-4.75,2l-.85.32c-1,.37-2,.73-2.93,1.05l-.88-3.26A65.23,65.23,0,0,0,142,196.36l9.83,13.51a3.32,3.32,0,0,0,4.64.73,86.32,86.32,0,0,0,21.68-22.8,3.32,3.32,0,0,0-1-4.6l-8.36-5.44a3.32,3.32,0,0,0-2.55-.45,3.28,3.28,0,0,0-2.1,1.51,44,44,0,0,1-2.65,3.72c-.58.75-1.15,1.51-1.56,2.09-.85,1-1.75,2-2.66,3l-2.29-2.3a66.28,66.28,0,0,0,10-14.57l15.25,6.8a3.33,3.33,0,0,0,4.39-1.69,87,87,0,0,0,7.3-30.64,3.32,3.32,0,0,0-3.15-3.48l-10-.52a3.35,3.35,0,0,0-3.49,3.14l-.18,3.5-.57,3.73c-.08.48-.15,1-.22,1.44-.1.72-.2,1.44-.35,2.06l-.11.46-3.21-.86,0-.08a23.08,23.08,0,0,0,.41-2.35c.05-.37.1-.74.17-1.15l.51-3.27c0-.11,0-.22,0-.34l.17-3.48V137.1l16.7-1.73a3.33,3.33,0,0,0,3-3.66,86.8,86.8,0,0,0-9-30.21,3.32,3.32,0,0,0-4.47-1.44l-8.88,4.53a3.33,3.33,0,0,0-1.51,4.36c.31.66.63,1.31.95,2a34.73,34.73,0,0,1,2.05,4.78l.33.88c.37,1,.73,2,1.05,2.91l-3.26.87a66.08,66.08,0,0,0-7.59-15.91l13.5-9.83a3.31,3.31,0,0,0,1.33-2.17,3.37,3.37,0,0,0-.59-2.48A86.79,86.79,0,0,0,152.81,68.28Zm2,32.69a3.34,3.34,0,0,0-.73,4.64,59.31,59.31,0,0,1,9.37,19.64,3.35,3.35,0,0,0,4.07,2.36l9.64-2.58a3.31,3.31,0,0,0,2.39-3.9,48.49,48.49,0,0,0-2.17-6.87l-.26-.72a35.41,35.41,0,0,0-1.87-4.51l3-1.51a80.26,80.26,0,0,1,6.44,21.58l-16.46,1.71a3.33,3.33,0,0,0-3,3.48l.17,3.23v6.35l-.17,3.14-.47,3.05c-.07.43-.14.87-.2,1.31s-.16,1.18-.27,1.67l-.83,3.2a3.32,3.32,0,0,0,2.36,4l9.63,2.57a3.32,3.32,0,0,0,4.08-2.38l1-3.79c.2-.89.33-1.79.46-2.69.06-.43.12-.85.2-1.33l.62-4.11,0-.51,3.27.17a80.93,80.93,0,0,1-5.21,21.89l-15.11-6.74a3.36,3.36,0,0,0-2.55-.07,3.33,3.33,0,0,0-1.85,1.76,59.41,59.41,0,0,1-12.32,18,3.33,3.33,0,0,0,0,4.7l7.05,7.05a3.26,3.26,0,0,0,2.45,1,3.32,3.32,0,0,0,2.38-1.12l1.8-2c1.16-1.25,2.31-2.5,3.53-4,.5-.71,1-1.41,1.57-2.1.37-.49.74-1,1.11-1.48l2.8,1.82a79.87,79.87,0,0,1-15.5,16.3l-9.75-13.39a3.31,3.31,0,0,0-4.64-.73,59.12,59.12,0,0,1-19.64,9.37,3.34,3.34,0,0,0-2.36,4.07l2.58,9.64a3.33,3.33,0,0,0,3.91,2.39,50.12,50.12,0,0,0,6.89-2.18l.69-.26a33.42,33.42,0,0,0,4.51-1.86l1.51,3a80.26,80.26,0,0,1-21.58,6.44l-1.71-16.46a3.3,3.3,0,0,0-3.63-3,60.77,60.77,0,0,1-21.77-1.77,3.32,3.32,0,0,0-4.07,2.35l-2.58,9.64A3.32,3.32,0,0,0,84,213a3.37,3.37,0,0,0,2,1.54l3.79,1c.89.21,1.8.34,2.7.47l1.32.2,4.11.61.51,0-.17,3.27a80.77,80.77,0,0,1-21.88-5.21l6.73-15.11a3.31,3.31,0,0,0-1.59-4.35l-2.76-1.32-5.67-3.26a32,32,0,0,1-3-2.16c-.7-.54-1.41-1.08-1.92-1.43-1-.79-1.88-1.64-2.8-2.48-.68-.63-1.37-1.26-2.07-1.87a3.33,3.33,0,0,0-4.54.15l-7,7.06a3.33,3.33,0,0,0-1,2.44,3.36,3.36,0,0,0,1.12,2.39l1.95,1.77c1.27,1.16,2.53,2.32,4,3.56.71.5,1.4,1,2.1,1.56L61.37,203l-1.82,2.8a79.82,79.82,0,0,1-16.29-15.5l13.38-9.74A3.28,3.28,0,0,0,58,178.34a3.33,3.33,0,0,0-.59-2.48A59.34,59.34,0,0,1,48,156.22a3.32,3.32,0,0,0-4.06-2.35l-9.64,2.57a3.33,3.33,0,0,0-2.39,3.91,48.45,48.45,0,0,0,2.16,6.87l.27.71a34.77,34.77,0,0,0,1.86,4.51l-3,1.51a80.51,80.51,0,0,1-6.44-21.58l16.46-1.71a3.33,3.33,0,0,0,3-3.63A61.2,61.2,0,0,1,48,125.26a3.33,3.33,0,0,0-2.35-4.08L36,118.61a3.29,3.29,0,0,0-2.53.34,3.35,3.35,0,0,0-1.55,2l-1,3.79c-.2.89-.34,1.79-.47,2.69-.06.43-.12.85-.2,1.33l-.61,4.11,0,.51-3.26-.17a80.54,80.54,0,0,1,5.2-21.89l15.12,6.74a3.31,3.31,0,0,0,4.39-1.69,59.62,59.62,0,0,1,12.33-18,3.33,3.33,0,0,0,0-4.7l-7.05-7a3.34,3.34,0,0,0-4.84.14c-.59.67-1.19,1.32-1.8,2-1.15,1.25-2.3,2.51-3.52,4-.51.71-1,1.41-1.57,2.11-.37.48-.75,1-1.12,1.47l-2.79-1.82a79.87,79.87,0,0,1,15.5-16.3L66,91.64A3.35,3.35,0,0,0,68.15,93a3.3,3.3,0,0,0,2.47-.6l.77-.58A12.74,12.74,0,0,1,73,90.67l5.44-3.15c.64-.29,1.28-.6,1.91-.91a26.19,26.19,0,0,1,3.89-1.67l1-.37a34.11,34.11,0,0,1,4.82-1.52,3.32,3.32,0,0,0,2.54-4.12L90,69.3a3.33,3.33,0,0,0-3.91-2.4,50.55,50.55,0,0,0-6.89,2.18l-.69.26A34.64,34.64,0,0,0,74,71.2l-1.52-3A80.69,80.69,0,0,1,94.11,61.8l1.7,16.46a3.31,3.31,0,0,0,3.63,3A61.2,61.2,0,0,1,121.21,83a3.34,3.34,0,0,0,2.53-.33,3.3,3.3,0,0,0,1.54-2L127.86,71a3.33,3.33,0,0,0-2.38-4.08l-3.78-1c-.9-.2-1.8-.34-2.71-.47l-1.32-.2-4.1-.61-.52,0,.17-3.27a80.84,80.84,0,0,1,21.89,5.21l-6.74,15.12a3.32,3.32,0,0,0,1.7,4.39,59.74,59.74,0,0,1,18,12.33,3.34,3.34,0,0,0,4.7,0l7.05-7a3.34,3.34,0,0,0-.14-4.84c-.66-.58-1.31-1.18-2-1.77-1.26-1.16-2.52-2.32-4-3.55-.71-.51-1.4-1-2.09-1.57l-1.48-1.12,1.81-2.79a79.61,79.61,0,0,1,16.3,15.5Z"/><path class="cls-5" d="M105.74,87.54a53.09,53.09,0,0,0-45.87,80,4,4,0,0,0,.2.35,53.87,53.87,0,0,0,13.56,15.17c.09.06.14.14.23.2l.07,0a52.79,52.79,0,0,0,63.6,0l.09,0c.09-.06.14-.14.22-.2a53.56,53.56,0,0,0,13.56-15.17,2.5,2.5,0,0,0,.21-.35,53.09,53.09,0,0,0-45.87-80Zm-6,7.08L62.84,158.8a46.5,46.5,0,0,1,36.9-64.18ZM79.9,179.42l25.84-44.92,25.84,44.92a46.4,46.4,0,0,1-51.68,0Zm56.95-4.17-26.79-46.57a5,5,0,0,0-8.65,0L74.62,175.25a46.7,46.7,0,0,1-8.09-9.53l39.21-68.19,7.6,13.18.15.3,31.45,54.71a46.7,46.7,0,0,1-8.09,9.53Zm11.78-16.45L119.41,108c0-.1-.1-.2-.15-.3l-7.52-13a46.5,46.5,0,0,1,36.89,64.17Z"/><g class="cls-6"><path class="cls-7" d="M94.51,79.83l4.26,16.38s.68,4-.78,5.49-8.3,9.2-8.3,9.2l-3.81,7.51L108,131l26.35-7.06-.78-18.51s-13.5-.86-21.36-6.76C110.63,97.48,109.32,84,109.32,84Z"/><path class="cls-8" d="M110,89.93c-.41-3-.75-6.06-.75-6.06L94.48,79.72l1.19,4.56s4.64,3,6.08,3.66A27.94,27.94,0,0,0,110,89.93Z"/><path class="cls-7" d="M82.23,115.14s-10.56,6-11.53,6.94-8.52,7.73-8.52,7.73l-.29,24.52L52.09,131l-8.52,3.78L55.7,171.1l6.68,10.34,5,1.9L74.84,149l10.7,6.71,13.12-9.59-9.42-23.48-4-8.82Z"/><path class="cls-7" d="M43.21,134.63a11.49,11.49,0,0,1-5-4.21,42.19,42.19,0,0,1-5.27.27,1,1,0,0,1-.48-.1.88.88,0,0,1-.27-.59,52.12,52.12,0,0,0-2.72-9.56,1.44,1.44,0,0,1-.16-.84c.11-.51.71-.75,1.24-.79A3.1,3.1,0,0,0,32,118.5c.58-.4.75-1.29,1.42-1.51s1.14.19,1.66,0,.67-.91,1-1.37a3.64,3.64,0,0,1,2.27-.9,16,16,0,0,0,4-1.61.36.36,0,0,0,.23-.2.45.45,0,0,0,0-.23c-.62-2.87-1.92-5.74-2.53-8.61a65.76,65.76,0,0,1-1.05-8.22,4.36,4.36,0,0,1,2.28-2.76,1,1,0,0,1,.85-.12,1.17,1.17,0,0,1,.5.89c.69,3.2,2.58,11.32,3.27,14.52.44,2,4.14,7.15,4.93,7.74s.9,1.36,1.8,2a1.56,1.56,0,0,1,.78,1.54l.13,5.42c.06,2.11,0,4.47-1.47,6Z"/><path class="cls-8" d="M50.58,115.65c-1.1-.3-2.15-1-3.33-.79a7.3,7.3,0,0,0-2.71,1.4c-2.39,1.63-4.1,4.13-6.66,5.48a1.07,1.07,0,0,0-.21,1.66c1.46,1.42,3.58,3.1,5.76,2.62a6.72,6.72,0,0,0,4.5-4.21l-1.55.63a8.4,8.4,0,0,0,2.19,1.17c1.27.49,1.8-1.53.56-2-4.14-1.67-5.86,3.74-4.46,6.72.58,1.22,2.4.15,1.82-1.07-.65-1.39-.29-4.57,2.08-3.62l.56-2a4.84,4.84,0,0,1-1.68-1c-.6-.45-1.34.06-1.55.63-1.26,3.34-4.65,2.7-6.74.66l-.22,1.65a21.56,21.56,0,0,0,4.61-3.81,17.24,17.24,0,0,1,2.66-2.07c1.27-.79,2.45-.37,3.81,0a1.06,1.06,0,0,0,.56-2Z"/><path class="cls-8" d="M42.19,119.67l-.49-2.45-2,.56a2.8,2.8,0,0,0,1.55,1.9,1.09,1.09,0,0,0,1.44-.38,1.06,1.06,0,0,0-.38-1.44.86.86,0,0,1-.58-.64,1.05,1.05,0,1,0-2,.56l.49,2.45a1.06,1.06,0,0,0,1.29.74,1.08,1.08,0,0,0,.74-1.3Z"/><path class="cls-7" d="M85.8,73s8.57,15.24,34.13,15.25c10.58,0,14.51-2.47,15.1-5.9,3.75-21.58-4.22-48.87-15.28-57.2C110,17.87,75.63,45.52,75.63,45.52L83,62s-7.48-8.07-10.47-3.58,6.51,14,6.51,14S83.26,75.57,85.8,73Z"/><path class="cls-7" d="M136.9,107.61c2.54-1.35,4.82,1.82,4.82,1.82l25.8,45.17-22.27,40s7.48,12.56,3.74,18.25l5.16,5.15s.82,2.77-2.92,2.77-12.56-6.58-12.56-6.58l1-28.16,16.62-30-15.27-22.71-4.77-4.23S132.16,110.12,136.9,107.61Z"/><path class="cls-7" d="M110.1,234,88.49,288.2s-2.78,10.27-6.09,13.57a145.88,145.88,0,0,1-8.19,23.67c-5.6,12.56-8.07,29.83-8.07,29.83s5.1,13,4.48,18.78c0,0,4.88,6.73,2.92,10.6s-9.64,1.57-9.64,1.57-12.85,1.68-14.75-1.51,2.41-11.78,2.41-11.78-.62-6.84,1.63-8.41a27.91,27.91,0,0,0,4.93-5.38s-.84-2.24,1.51-5.27,5.84-22.45,5.84-25-3.14-21.54,7.32-29c0,0,2.54-51.59,9.72-58.77s27.59-11.44,27.59-11.44Z"/><path class="cls-9" d="M110.1,234l-6.91,17.32s-9.56,4.27-12,4.87c-1.8.44-14.59,4.39-14.16,1.81,1.34-8.06,3.2-14.66,5.45-16.92,7.18-7.18,27.59-11.44,27.59-11.44Z"/><path class="cls-7" d="M117.8,226s18.09,68.34,19.44,71.48-5.72,9.23,6.62,52.52c0,0-.79,5.72-1.91,7.74s-3.7,7.17-.45,9,13.8,10.76,18.28,11.55,12.9-3.14,12.9-3.14,4.49-1.68,3.08-3.08c0,0-4.09-.17-5.44-1.52s-16.59-13.34-16.59-13.34-4.71-6.06-4.71-6.47-3.37-53.65-3.37-53.65,1.24-3.36,0-10.2-.63-49.94-.63-49.94Z"/><path class="cls-9" d="M117.8,226l5.52,20.76c.49,1.81,21.58,3.28,21.58,3.28l.12-13.12Z"/><path class="cls-10" d="M117.8,239.53c3.5,6.94,28.09,8.4,30.13,9.05,0,0,.64-27.86-3.28-43.5S117.8,239.53,117.8,239.53Z"/><path class="cls-11" d="M87.9,66.9c4.33,1.79.59-6,.59-6s-.41-7.8-2.61-9.12a31.79,31.79,0,0,1-4.82-3.94L122.44,19.5s4.18-5.83-5.39-9.42a11.36,11.36,0,0,0-11.58-3.44s-4.19-5-10.25-.41c0,0-12.18-.71-15,5.27A4.54,4.54,0,0,0,75.78,14s-2.54,1-3,3c0,0-6.17,2.43-6.55,6.54,0,0-3.36,4.71-.67,8.52,0,0-1.78,3.35.52,5.65,0,0-5.15,5.64,0,9.16,0,0-1.27,3.66,6.28,5.16l2.25,4.63s2.16-1,8.37,5.23Z"/><path class="cls-8" d="M118,67.35a1.5,1.5,0,0,1,0-3c1.56,0,6-1.32,9-2.37-1-7.67-5.86-13.41-8.79-16.21a1.5,1.5,0,1,1,2.07-2.17c3.39,3.24,9.17,10.06,9.82,19.31l.08,1.13-1.07.38C128.31,64.72,120.9,67.35,118,67.35Z"/><ellipse class="cls-12" cx="104.69" cy="50.79" rx="2.01" ry="2.75" transform="translate(-9.22 27.04) rotate(-14.1)"/><path class="cls-12" d="M101.6,50.31h-.06a1.51,1.51,0,0,1-1.44-1.56c0-.4.24-3.93,2.8-5.31,1.66-.9,3.73-.62,6.16.83a1.5,1.5,0,1,1-1.54,2.58c-1.41-.85-2.55-1.12-3.19-.77-.85.46-1.2,2.11-1.23,2.79A1.51,1.51,0,0,1,101.6,50.31Z"/><ellipse class="cls-12" cx="123.33" cy="45.16" rx="2.01" ry="2.75" transform="translate(-7.29 31.42) rotate(-14.1)"/><path class="cls-12" d="M119.72,44.32a1.74,1.74,0,0,1-.39,0,1.51,1.51,0,0,1-1-1.85c.1-.38,1.11-3.77,3.91-4.54,1.82-.51,3.78.23,5.82,2.18a1.5,1.5,0,1,1-2.07,2.17c-1.19-1.14-2.24-1.66-3-1.46-.93.26-1.64,1.79-1.82,2.45A1.51,1.51,0,0,1,119.72,44.32Z"/><path class="cls-13" d="M109.28,70c-.25-.26,14.81.94,20.56-3.29,0,0,1.13,11.45-4,12.71C120.55,80.67,114.46,78.55,109.28,70Z"/><g class="cls-14"><path class="cls-15" d="M108.29,71.76s14.09,4,20.35-2.24l-.78-2.85-20.65,1.39Z"/><path class="cls-16" d="M110.77,76.92s4.53-4.38,11.74-1.46,0,8.19,0,8.19Z"/></g><path class="cls-8" d="M122.74,80.8c-8.55,0-14.27-10.24-14.34-10.36l-.86-1.58,1.79.1c.14,0,13.93.67,20-3.14a1,1,0,0,1,1.06,1.69c-5.23,3.3-15.11,3.55-19.26,3.5,2.21,3.24,8,10.2,15.46,6.95a1,1,0,1,1,.8,1.83A11.38,11.38,0,0,1,122.74,80.8Z"/><path class="cls-8" d="M82.62,71.31s-.22-9.81-7.79-12.17"/><path class="cls-8" d="M74.84,149s6.47-8.67,5.62-7.35C75.72,149,92.58,157.47,96.53,153a10.11,10.11,0,0,1-11,2.79Z"/><path class="cls-17" d="M89.69,110.9s-7.18,2.65-10.53,6c0,0,20.14,29.2,6.38,38.85,0,0,12.67,24.2,11.33,29.14S73,252.66,73,252.66s69.53-1.24,72-46.7l-3.29-26.17a219.42,219.42,0,0,0,1.94-26.53c.14-12.78-1.25-27.45-2.28-37.47a16.13,16.13,0,0,0-4.72-10.16l-6.54-.61s5.16,17.32-6.8,19C116.89,124.86,101.35,126.94,89.69,110.9Z"/><g class="cls-18"><path class="cls-19" d="M75.6,254.36s69.53-1.24,72-46.7Z"/></g><path class="cls-17" d="M89.69,110.9s-7.18,2.65-10.53,6c0,0,20.14,29.2,6.38,38.85,0,0,12.67,24.2,11.33,29.14S73,252.66,73,252.66s69.53-1.24,72-46.7l-3.29-26.17a219.42,219.42,0,0,0,1.94-26.53c.14-12.78-1.25-27.45-2.28-37.47a16.13,16.13,0,0,0-4.72-10.16l-6.54-.61s5.16,17.32-6.8,19C116.89,124.86,101.35,126.94,89.69,110.9Z"/><path class="cls-20" d="M95.32,190s36.66,4.88,46.83-6.78c0,0,1.11-2.3-.42-3.39.22,2.16-17.22,11.55-44.86,5.61A3,3,0,0,0,95.32,190Z"/><circle class="cls-21" cx="125.77" cy="188.2" r="8.55"/><g class="cls-22"><path class="cls-23" d="M85.17,22.79s-3.67,4.45,1,7.42c1.63,1-4.83,6-4.83,6L78.73,50.9a19.49,19.49,0,0,1,5.61-1.35l11.8,13.52L88.57,67.8,64.42,51.52,48.34,20.47,69.05,1.67,91.71-3.61l-4,7.89s-9.62,5.88-6,10.11C79.48,16,79,22.36,85.17,22.79Z"/></g><path class="cls-3" d="M74.7,56.73s-4.34-1.94-4.34-5.53,16.9-37.53,52.19-31.7c0,0,5.46,3.81,3.59,5.68,0,0,3.36,4.18.67,6.42S111,30.56,74.7,56.73Z"/><path class="cls-24" d="M76.61,48.81s22.58-27.52,46.72-23.93C123.33,24.88,100.83,26.09,76.61,48.81Z"/><path class="cls-25" d="M126.72,195.37a8.35,8.35,0,0,1-6.14-2.38c-1.65-1.84-2.11-4.5-1.37-7.92a1.5,1.5,0,0,1,2.93.63c-.52,2.43-.3,4.2.67,5.28,1.46,1.63,4.3,1.38,4.33,1.38a1.5,1.5,0,0,1,.31,3A6.06,6.06,0,0,1,126.72,195.37Z"/><path class="cls-26" d="M130.94,192.48a1.86,1.86,0,0,1-.33,0,1.51,1.51,0,0,1-1.14-1.79c.54-2.42.33-4.2-.64-5.28-1.44-1.64-4.28-1.41-4.31-1.4a1.5,1.5,0,1,1-.29-3c.17,0,4.37-.4,6.85,2.4,1.63,1.84,2.08,4.51,1.32,7.92A1.49,1.49,0,0,1,130.94,192.48Z"/><path class="cls-8" d="M38.54,131a2.34,2.34,0,0,0,0-4c-.95-.72-2.18.88-1.27,1.65s2.14,1.71,3.53,1.45a3,3,0,0,0,2.3-2.35l-1.55.63a3.35,3.35,0,0,0,3.43.11c1.21-.61.15-2.43-1.06-1.82a1.17,1.17,0,0,1-1.3-.11,1.06,1.06,0,0,0-1.55.63c-.3,1.5-1.62.57-2.31,0l-1.28,1.66-.05.35c-1.1.77,0,2.59,1.07,1.82Z"/><path class="cls-8" d="M32.61,117.53c.49,2.28,1,4.55,1.63,6.81a1.05,1.05,0,0,0,2-.56q-.89-3.39-1.63-6.81c-.28-1.32-2.32-.76-2,.56Z"/><path class="cls-8" d="M60.73,154.05a21,21,0,0,1,2.39,8.29c.11,1.34,2.21,1.35,2.11,0A23.75,23.75,0,0,0,62.55,153c-.63-1.2-2.45-.14-1.82,1.06Z"/><path class="cls-27" d="M100.31,4.28a7.27,7.27,0,0,1,5.16,2.36,12.29,12.29,0,0,1,3.12-.41,11.37,11.37,0,0,1,8.46,3.85c9.31,3.48,5.61,9.09,5.4,9.4l.1,0s5.46,3.81,3.59,5.68c0,0,3.36,4.18.67,6.42a2.84,2.84,0,0,1-1,.49C133.49,44,138.05,65,135,82.38c-.59,3.43-4.52,5.9-15.09,5.9h0a55.63,55.63,0,0,1-10.22-.91c.1.81.21,1.69.33,2.56h0c.53,3.78,1.3,8.07,2.15,8.71,5.39,4,13.43,5.72,17.95,6.38l6.54.61a16.27,16.27,0,0,1,1.46,1.65h.07c2,0,3.52,2.15,3.52,2.15l25.8,45.17-22.27,40s7.48,12.56,3.74,18.25l5.16,5.15s.82,2.77-2.92,2.77a11.22,11.22,0,0,1-4.33-1.41,282,282,0,0,1,1,29.27,26.08,26.08,0,0,0-3-.45l0,1.91h0c-.08,13.27,0,32.45.75,36.82,1.24,6.84,0,10.2,0,10.2S149,350.3,149,350.71s4.71,6.47,4.71,6.47,6.23,4.9,11.07,8.79h0a14.16,14.16,0,0,1,4.06,1.71,3.92,3.92,0,0,1,1.22,2.55c.33.22.86.58,1.47,1a15.87,15.87,0,0,0,4.21.79c.67.66,0,1.39-.87,2,.49.51.78,1,.7,1.26-.32,1.17-4.83,5.92-13,5.92-.46,0-.93,0-1.41-.05-8.56-.56-20.43-9.68-21.41-12.23a7.56,7.56,0,0,1,.13-5.12c0-2.16,1.31-4.76,2-6.05,1.12-2,1.91-7.74,1.91-7.74-12.34-43.29-5.27-49.38-6.62-52.52-.91-2.12-9.41-33.8-14.86-54.27a14.18,14.18,0,0,1-2.82-1.66,88.13,88.13,0,0,1-14.8,5.87l-1.57,3.92L88.49,288.2s-2.78,10.27-6.09,13.57a145.88,145.88,0,0,1-8.19,23.67c-5.6,12.56-8.07,29.83-8.07,29.83s4,10.2,4.49,16.57c4.72,6.47,9,14.46,3.34,16.81a32.31,32.31,0,0,1-12.24,2.16c-6.79,0-12.87-1.59-14.29-3-2.28-2.28,4.19-19.55,4.19-19.55.2-1.57.64-3.09,1.56-3.73a27.91,27.91,0,0,0,4.93-5.38s-.84-2.24,1.51-5.27,5.84-22.45,5.84-25-3.14-21.54,7.32-29c0,0,1.2-24.28,4.27-41.85h0c.33-2,.69-3.89,1.09-5.67-3.21.27-5.14.31-5.14.31s16.8-46.9,22.24-62.85a2.94,2.94,0,0,1,1.44-4.33q.12-.37.18-.6c1.34-4.94-11.33-29.14-11.33-29.14L74.84,149l-7.42,34.31-5-1.9L55.7,171.1,43.57,134.75l-.36-.12a11.49,11.49,0,0,1-5-4.21,41.58,41.58,0,0,1-4.74.27H32.9a1,1,0,0,1-.48-.1.88.88,0,0,1-.27-.59,52.12,52.12,0,0,0-2.72-9.56,1.44,1.44,0,0,1-.16-.84c.11-.51.71-.75,1.24-.79A3.1,3.1,0,0,0,32,118.5c.58-.4.75-1.29,1.42-1.51a1.27,1.27,0,0,1,.34,0c.3,0,.63.09.93.09a1,1,0,0,0,.39-.07c.54-.22.67-.91,1-1.37a3.64,3.64,0,0,1,2.27-.9,16,16,0,0,0,4-1.61.36.36,0,0,0,.23-.2.45.45,0,0,0,0-.23c-.62-2.87-1.92-5.74-2.53-8.61a65.76,65.76,0,0,1-1.05-8.22,4.36,4.36,0,0,1,2.28-2.76,1.21,1.21,0,0,1,.57-.17.66.66,0,0,1,.28,0,1.17,1.17,0,0,1,.5.89c.69,3.2,2.58,11.32,3.27,14.52.44,2,4.14,7.15,4.93,7.74s.9,1.36,1.8,2a1.56,1.56,0,0,1,.78,1.54c0,1.81.09,3.61.13,5.42.06,2.11,0,4.47-1.47,6h0l9.7,23.1-.19-.65c.09.16.17.34.26.51l.28-24.22s7.55-6.76,8.52-7.73c.63-.63,5.26-3.35,8.46-5.19h0c3.35-3.34,10.53-6,10.53-6s6.84-7.74,8.3-9.2.78-5.49.78-5.49L95,81.82C88.41,77.66,85.8,73,85.8,73a3.33,3.33,0,0,1-2.44,1A8.6,8.6,0,0,1,79,72.36s-9.5-9.5-6.51-14A2.82,2.82,0,0,1,75,57c2,0,4.28,1.61,5.92,3-3.36-2.94-5.16-3.34-5.9-3.34l-.22,0-.06,0,0,0-.06,0,0-.07c-.7-.35-3.88-2.1-4.16-5-5.36-1.68-4.33-4.67-4.33-4.67-5.15-3.52,0-9.16,0-9.16-2.3-2.3-.52-5.65-.52-5.65-2.69-3.81.67-8.52.67-8.52.38-4.11,6.55-6.54,6.55-6.54.48-2.06,3-3,3-3a4.5,4.5,0,0,1,4.15-2.56,2.47,2.47,0,0,1,.34,0C82.5,6.66,90.89,6.2,94,6.2c.74,0,1.19,0,1.19,0a8.39,8.39,0,0,1,5.09-1.95M142.48,181l13.84-25-13.16-19.57c.35,5.61.57,11.39.51,16.83a219.42,219.42,0,0,1-1.94,26.53,1.85,1.85,0,0,1,.75,1.17m27.27,189h0M100.31.07h0A11.9,11.9,0,0,0,94,2c-4.6,0-12.21.79-16.11,5.51a8.5,8.5,0,0,0-5,3.32,9.25,9.25,0,0,0-3.26,3.1c-2.35,1.23-6.37,3.89-7.35,8.13-1.46,2.47-2.77,6.53-1.25,10.41a9.36,9.36,0,0,0,.13,5.1A10.74,10.74,0,0,0,59.62,44,8.49,8.49,0,0,0,61.9,48.9a7.68,7.68,0,0,0,.63,1.81,9.23,9.23,0,0,0,4.39,4,9.93,9.93,0,0,0,1.47,2.33c-1.51,3.28-.59,7.42,2.75,12.33A45.81,45.81,0,0,0,76,75.34l.21.2.23.18a12.52,12.52,0,0,0,6.9,2.5,8.1,8.1,0,0,0,1-.06,35.71,35.71,0,0,0,7,6.29l3.28,12.6a8.73,8.73,0,0,1,0,2c-1.63,1.69-5.76,6.35-7.46,8.26-2.23.9-7.36,3.17-10.59,6.15-7.79,4.5-8.43,5.14-8.9,5.61-.65.64-5.47,5-8.35,7.58L58,127.91l0,1.85,0,4.21-1-2.48a14.85,14.85,0,0,0,1-6.5l-.14-5.42a6,6,0,0,0-.65-2.76,5.89,5.89,0,0,0-1.68-1.93.56.56,0,0,0,0-.08,7.73,7.73,0,0,0-1.68-1.9,27.52,27.52,0,0,1-3.55-5.48c-.36-1.63-1-4.49-1.64-7.26S47.17,94.53,46.83,93A5.14,5.14,0,0,0,44,89.13a4.79,4.79,0,0,0-2-.45,5.37,5.37,0,0,0-2.6.7,8.34,8.34,0,0,0-4.44,6c-.24,2.2,1.1,9.49,1.12,9.56a41.93,41.93,0,0,0,1.39,4.76c.09.29.19.57.28.86l-.1,0-.28.05a7,7,0,0,0-4.3,2.17,4.66,4.66,0,0,0-.84.19,5.3,5.3,0,0,0-2.45,1.68,5.28,5.28,0,0,0-4.56,4.07A5.47,5.47,0,0,0,25.5,122a47.81,47.81,0,0,1,2.5,8.78,4.81,4.81,0,0,0,4.84,4.14h.59c1,0,1.91,0,2.87-.09a15.77,15.77,0,0,0,3.85,3l11.56,34.61.16.51.29.44,6.67,10.35.76,1.16,1.3.49,5,1.91L70.5,189l1-4.77,6.15-28.45,4.64,2.91c1,1.88,3.12,6.17,5.23,10.81,3.86,8.5,4.86,12.22,5.11,13.69A7.07,7.07,0,0,0,91,185.86a7,7,0,0,0-.17,4C85,206.73,69.2,250.78,69,251.23L67,257l6-.11-.06.36-.13.61v.09c-2.54,14.88-3.77,33.83-4.11,39.84-9.34,8.44-8,24.41-7.53,29.85,0,.48.09,1.09.09,1.27-.07,2.79-3.39,19.81-5,22.45a11,11,0,0,0-2.5,6.59,18.71,18.71,0,0,1-3,3.14c-1.73,1.21-2.79,3.22-3.25,6.14-.45,1.25-1.78,5-2.9,8.84-2.46,8.53-2.51,12.38-.16,14.73,2.92,2.91,11,4.24,17.27,4.24a36.44,36.44,0,0,0,13.86-2.48,8.29,8.29,0,0,0,5-5.43c1.16-4.19-.69-9.55-5.83-16.81-.69-5.59-3.23-12.77-4.24-15.49.63-3.85,3.07-17.52,7.59-27.65a152,152,0,0,0,8.19-23.39c3.3-4.17,5.64-12,6.25-14.22l14.61-36.64.82-2.07a92.26,92.26,0,0,0,11-4.28c11.57,43.39,13.71,50.52,14.28,52.12,0,.31-.12.83-.19,1.27-.86,5.11-2.84,17,6.56,50.33a27.47,27.47,0,0,1-1.29,5.41,18.27,18.27,0,0,0-2.54,7.35,11.54,11.54,0,0,0,.13,7.38c1.31,3.43,7.61,7.68,9.51,8.9,3.25,2.08,9.59,5.63,15.55,6,.56,0,1.13.06,1.69.06,9.71,0,16.16-5.78,17-9a4.42,4.42,0,0,0,.15-1.69,4.8,4.8,0,0,0,.42-1.59,5,5,0,0,0-1.48-4l-1.16-1.17-1.64-.06a14.4,14.4,0,0,1-2.21-.31,7.36,7.36,0,0,0-2.17-3.07,14.38,14.38,0,0,0-4.78-2.3c-4-3.18-8.65-6.87-10-8-1.36-1.75-2.85-3.73-3.58-4.76-.18-3.09-.85-13.82-3.26-51.91.42-1.74,1-5.52-.1-11.4-.25-1.38-.8-7.32-.7-32.74l2.92.92.13-5.61c0-.54.25-11.59-.57-23.75a6.89,6.89,0,0,0,5.65-2.64,6.37,6.37,0,0,0,1-5.54l-.31-1-.75-.76-3.22-3.21c1.35-5.95-1.84-13.35-3.84-17.2l21.13-37.91,1.16-2.08-1.18-2.06-25.8-45.17-.11-.19-.13-.18a10.12,10.12,0,0,0-4.76-3.56c-.24-.26-.48-.51-.73-.76l-1.07-1.08-1.51-.14-6.44-.6c-3.8-.56-10.57-1.93-15.22-5.06a31.45,31.45,0,0,1-.75-3.49c1.73.14,3.49.21,5.27.21,4.37,0,17.63,0,19.26-9.39,2.79-16.09-.56-36.55-8-50.23,1.47-2.57,1-5.71-.45-8.36a6.43,6.43,0,0,0,0-.76c-.19-2.21-1.7-4.19-3.29-5.7a9,9,0,0,0-.28-4.22c-1-3.12-3.55-5.58-7.65-7.32a15.47,15.47,0,0,0-12.83-4.38A11,11,0,0,0,100.31.07Zm47.23,163.07c.18-3.06.31-6.37.34-9.84,0-.74,0-1.51,0-2.29l3.5,5.2-3.85,6.93Z"/><polyline class="cls-7" points="43.21 134.63 43.79 134.97 52.71 131.34"/></g></svg>