<svg id="Camada_1" data-name="Camada 1" xmlns="http://www.w3.org/2000/svg" xmlns:xlink="http://www.w3.org/1999/xlink" viewBox="0 0 881 246.25"><defs><style>.cls-1,.cls-13,.cls-14,.cls-19,.cls-28,.cls-29{fill:none;}.cls-2{fill:#65c4d1;}.cls-3{fill:#fff;}.cls-4{fill:#f9f9f9;}.cls-5{fill:#97d8dd;}.cls-6{clip-path:url(#clip-path);}.cls-7{fill:#eaa000;}.cls-8{fill:#eac2a7;}.cls-9{fill:#c9a68f;}.cls-10{fill:#d6aa8b;}.cls-11{fill:#d6d6d6;}.cls-12{fill:#c99f4b;}.cls-13,.cls-19{stroke:#c9a68f;}.cls-13,.cls-14,.cls-19,.cls-28,.cls-29{stroke-linecap:round;stroke-miterlimit:10;}.cls-13,.cls-14,.cls-28,.cls-29{stroke-width:3px;}.cls-14{stroke:#6d5f56;}.cls-15{fill:#493e38;}.cls-16{clip-path:url(#clip-path-2);}.cls-17{fill:#fcfcfc;}.cls-18{fill:#d32222;}.cls-19{stroke-width:2px;}.cls-20{fill:#f4f4f4;}.cls-21{clip-path:url(#clip-path-3);}.cls-22{fill:#b7b7b7;}.cls-23{fill:#6d472e;}.cls-24{fill:#c99e32;}.cls-25{clip-path:url(#clip-path-4);}.cls-26{fill:#aa7e30;}.cls-27{fill:#ddd;}.cls-28{stroke:#846829;}.cls-29{stroke:#e8cd95;}.cls-30{fill:#6d5f56;}</style><clipPath id="clip-path"><path class="cls-1" d="M150.28,228.48s-31.64,24-84.64,4.29-53-171.45-53-171.45S46,0,94.75,0c11.07,0,52,5.07,52,28.44s28.29,128.28,28.29,128.28,11.88,46,5.94,49.51"/></clipPath><clipPath id="clip-path-2"><path class="cls-1" d="M99.39,68.73c-.23-.33,16.36,3.89,23.58.27,0,0-.92,13-6.9,13.42C109.93,82.85,103.52,79.32,99.39,68.73Z"/></clipPath><clipPath id="clip-path-3"><path class="cls-1" d="M112.67,244.64c3.58,7.11,28.79,8.61,30.88,9.27,0,0,.65-28.54-3.37-44.58S112.67,244.64,112.67,244.64Z"/></clipPath><clipPath id="clip-path-4"><path class="cls-1" d="M82,67.73c4.45,1.84.62-6.13.62-6.13s-.42-8-2.68-9.35a32.26,32.26,0,0,1-4.94-4l11.36-7.78,31-21.29s4.29-6-5.52-9.65A11.64,11.64,0,0,0,100,6S95.74.84,89.53,5.56c0,0-12.49-.73-15.32,5.4a4.66,4.66,0,0,0-4.6,2.6s-2.6,1-3.1,3.1c0,0-6.32,2.49-6.71,6.71,0,0-3.44,4.83-.68,8.73,0,0-1.82,3.43.53,5.79,0,0-5.29,5.78,0,9.38,0,0-1.3,3.76,6.44,5.29l2.3,4.75s2.21-1,8.58,5.36S82,67.73,82,67.73Z"/></clipPath></defs><title>5-title</title><path class="cls-2" d="M871,191.82H152V104.46H871a10,10,0,0,1,10,10v67.36A10,10,0,0,1,871,191.82Z"/><path class="cls-3" d="M273.2,130.76h-.06l-5.52,13.67h-1.53l-5.52-13.66h-.06l.23,6.9v5l1.91.33v1.47h-6.12V143l1.91-.33V129.18l-1.91-.33v-1.49h4.86l5.44,13.86h.07l5.42-13.86h4.88v1.49l-1.91.33v13.44l1.91.33v1.47h-6.13V143l1.91-.33v-5Z"/><path class="cls-3" d="M287.33,144.42c-.07-.34-.12-.65-.16-.92a7.84,7.84,0,0,1-.08-.82,5.63,5.63,0,0,1-1.67,1.42,4.77,4.77,0,0,1-5.15-.4,3.53,3.53,0,0,1-1-2.72,3.15,3.15,0,0,1,1.46-2.79,7.11,7.11,0,0,1,4-1h2.38v-1.48a2.28,2.28,0,0,0-.71-1.76,2.74,2.74,0,0,0-1.95-.65,4.75,4.75,0,0,0-1.53.22,2.84,2.84,0,0,0-1.07.61l-.25,1.33h-1.78V133a7,7,0,0,1,2.1-1.11,8.49,8.49,0,0,1,2.67-.41,5.34,5.34,0,0,1,3.49,1.1,3.86,3.86,0,0,1,1.34,3.15v6.59c0,.15,0,.31,0,.47l.94.13v1.47Zm-3.71-1.68a4.1,4.1,0,0,0,2.1-.56,3.4,3.4,0,0,0,1.36-1.32v-2.09h-2.46a3.5,3.5,0,0,0-2.25.66,2,2,0,0,0-.82,1.59,1.61,1.61,0,0,0,.51,1.28A2.36,2.36,0,0,0,283.62,142.74Z"/><path class="cls-3" d="M292.28,143l1.91-.33v-9.06l-1.91-.33v-1.49h4.22v10.88l1.91.33v1.47h-6.13Zm4.22-14.45h-2.31v-2.36h2.31Z"/><path class="cls-3" d="M309.87,135.73h-1.73l-.38-1.53a3.14,3.14,0,0,0-1.06-.63,4.12,4.12,0,0,0-1.45-.24,2.67,2.67,0,0,0-1.83.53,1.73,1.73,0,0,0-.59,1.31,1.44,1.44,0,0,0,.52,1.18,5.44,5.44,0,0,0,2.15.77,9.31,9.31,0,0,1,3.57,1.4,2.83,2.83,0,0,1,1.17,2.38,3.28,3.28,0,0,1-1.36,2.73,5.75,5.75,0,0,1-3.57,1,9.41,9.41,0,0,1-2.59-.33,7.18,7.18,0,0,1-2.05-1v-2.9h1.73l.44,1.7a2.28,2.28,0,0,0,1.08.53,6,6,0,0,0,1.4.16,3.3,3.3,0,0,0,1.93-.49,1.6,1.6,0,0,0,.12-2.56,5.41,5.41,0,0,0-2.2-.86,9.25,9.25,0,0,1-3.48-1.37,2.77,2.77,0,0,1-1.17-2.34,3.33,3.33,0,0,1,1.31-2.64,5.2,5.2,0,0,1,3.43-1.09,8.31,8.31,0,0,1,2.59.37,5.32,5.32,0,0,1,1.91,1.05Z"/><path class="cls-3" d="M327.44,142.55a4.38,4.38,0,0,1-1.54,1.57,4.23,4.23,0,0,1-2.18.55,4,4,0,0,1-3.22-1.33,6.14,6.14,0,0,1-1.16-4.12v-5.66l-1.45-.33v-1.49h3.76v7.5a4.81,4.81,0,0,0,.59,2.79,2.22,2.22,0,0,0,1.87.76,3.79,3.79,0,0,0,2-.49,3.12,3.12,0,0,0,1.21-1.42v-7.32l-1.7-.33v-1.49h4v10.88l1.46.33v1.47h-3.53Z"/><path class="cls-3" d="M332.49,143l1.91-.33v-9.06l-1.91-.33v-1.49h4l.15,1.66a4.14,4.14,0,0,1,1.57-1.4,4.82,4.82,0,0,1,2.23-.49,3.91,3.91,0,0,1,2.17.58,3.61,3.61,0,0,1,1.37,1.76,4.74,4.74,0,0,1,1.58-1.71,4.18,4.18,0,0,1,2.3-.63,3.79,3.79,0,0,1,3.07,1.33,6.08,6.08,0,0,1,1.12,4v5.78l1.91.33v1.47H347.8V143l1.91-.33v-5.8a4.24,4.24,0,0,0-.64-2.66,2.34,2.34,0,0,0-1.91-.78,2.45,2.45,0,0,0-1.94.85,3.71,3.71,0,0,0-.85,2.14v6.25l1.91.33v1.47h-6.13V143l1.91-.33v-5.8a4.17,4.17,0,0,0-.66-2.61,2.32,2.32,0,0,0-1.92-.83,3.15,3.15,0,0,0-1.73.44,2.77,2.77,0,0,0-1,1.22v7.58l1.91.33v1.47h-6.13Z"/><path class="cls-3" d="M363.89,144.42c-.07-.34-.12-.65-.16-.92a7.84,7.84,0,0,1-.08-.82A5.63,5.63,0,0,1,362,144.1a4.26,4.26,0,0,1-2.14.57,4.21,4.21,0,0,1-3-1,3.53,3.53,0,0,1-1-2.72,3.17,3.17,0,0,1,1.45-2.79,7.17,7.17,0,0,1,4-1h2.38v-1.48a2.28,2.28,0,0,0-.71-1.76,2.74,2.74,0,0,0-1.95-.65,4.75,4.75,0,0,0-1.53.22,2.88,2.88,0,0,0-1.08.61l-.24,1.33h-1.78V133a6.8,6.8,0,0,1,2.09-1.11,8.51,8.51,0,0,1,2.68-.41,5.34,5.34,0,0,1,3.49,1.1,3.85,3.85,0,0,1,1.33,3.15v6.11c0,.16,0,.32,0,.48a3.83,3.83,0,0,0,0,.47l.94.13v1.47Zm-3.71-1.68a4.13,4.13,0,0,0,2.1-.56,3.4,3.4,0,0,0,1.36-1.32v-2.09h-2.47a3.49,3.49,0,0,0-2.24.66,2,2,0,0,0-.83,1.59,1.61,1.61,0,0,0,.52,1.28A2.36,2.36,0,0,0,360.18,142.74Z"/><path class="cls-3" d="M379.15,133.23l-1.52.24,2.61,7.21.21.92h.07l.22-.92,2.54-7.21-1.54-.24v-1.49h4.9v1.49l-1,.18-4.26,11H379.6l-4.3-11-1.05-.18v-1.49h4.9Z"/><path class="cls-3" d="M393.83,144.67a5.36,5.36,0,0,1-4.21-1.76,6.68,6.68,0,0,1-1.56-4.58v-.52a6.47,6.47,0,0,1,1.61-4.5,5,5,0,0,1,3.81-1.8,4.79,4.79,0,0,1,3.88,1.55,6.17,6.17,0,0,1,1.31,4.12v1.44h-8.22l0,.06a5,5,0,0,0,.93,3,2.94,2.94,0,0,0,2.49,1.17,5.86,5.86,0,0,0,2.06-.33,4.7,4.7,0,0,0,1.53-.92l.9,1.5a5.42,5.42,0,0,1-1.8,1.11A7.18,7.18,0,0,1,393.83,144.67Zm-.35-11.34a2.51,2.51,0,0,0-2,1,4.76,4.76,0,0,0-1,2.46l0,.06h5.85v-.31a3.57,3.57,0,0,0-.73-2.27A2.59,2.59,0,0,0,393.48,133.33Z"/><path class="cls-3" d="M404,142.62h5.18l.19-2h1.95v3.76H401.22v-1.61l6.85-9.24h-4.64l-.17,2h-2v-3.78h9.61v1.57Z"/><path class="cls-3" d="M425.4,144.67a5.36,5.36,0,0,1-4.21-1.76,6.68,6.68,0,0,1-1.56-4.58v-.52a6.47,6.47,0,0,1,1.61-4.5,5,5,0,0,1,3.81-1.8,4.79,4.79,0,0,1,3.88,1.55,6.12,6.12,0,0,1,1.31,4.12v1.44H422l0,.06a5.11,5.11,0,0,0,.93,3,2.94,2.94,0,0,0,2.49,1.17,5.86,5.86,0,0,0,2.06-.33,4.7,4.7,0,0,0,1.53-.92l.9,1.5a5.42,5.42,0,0,1-1.8,1.11A7.18,7.18,0,0,1,425.4,144.67Zm-.35-11.34a2.51,2.51,0,0,0-2,1,4.67,4.67,0,0,0-1,2.46l0,.06h5.85v-.31a3.57,3.57,0,0,0-.73-2.27A2.58,2.58,0,0,0,425.05,133.33Zm.71-6.46h2.69l0,.07L425.32,130H423.6Z"/><path class="cls-3" d="M438.17,143l1.91-.33V128l-1.91-.33v-1.49h4.22v7.29A4.62,4.62,0,0,1,444,132a4.5,4.5,0,0,1,2.11-.5,4.09,4.09,0,0,1,3.16,1.22,5.37,5.37,0,0,1,1.13,3.75v6.14l1.91.33v1.47h-6.13V143l1.91-.33v-6.17a3.4,3.4,0,0,0-.67-2.32,2.57,2.57,0,0,0-2-.75,3.29,3.29,0,0,0-1.73.46,3.64,3.64,0,0,0-1.28,1.22v7.56l1.91.33v1.47h-6.13Z"/><path class="cls-3" d="M453.87,138a7,7,0,0,1,1.52-4.64,5.63,5.63,0,0,1,8.29,0,6.94,6.94,0,0,1,1.53,4.64v.25a6.92,6.92,0,0,1-1.52,4.64,5.66,5.66,0,0,1-8.3,0,7,7,0,0,1-1.52-4.64Zm2.31.25a6,6,0,0,0,.85,3.33,3.06,3.06,0,0,0,5,0,6,6,0,0,0,.85-3.33V138a6,6,0,0,0-.85-3.32,3.06,3.06,0,0,0-5,0,6.08,6.08,0,0,0-.84,3.32Z"/><path class="cls-3" d="M467.32,133.23v-1.49h4l.22,1.84a4.41,4.41,0,0,1,1.33-1.52,3.07,3.07,0,0,1,1.81-.55,3.69,3.69,0,0,1,.56,0l.43.09-.3,2.14-1.31-.07a2.64,2.64,0,0,0-1.54.43,2.82,2.82,0,0,0-1,1.2v7.28l1.91.33v1.47h-6.13V143l1.91-.33v-9.06Z"/><path class="cls-3" d="M485.52,144.42c-.07-.34-.12-.65-.16-.92a7.84,7.84,0,0,1-.08-.82,5.76,5.76,0,0,1-1.67,1.42,4.26,4.26,0,0,1-2.14.57,4.21,4.21,0,0,1-3-1,3.53,3.53,0,0,1-1-2.72,3.17,3.17,0,0,1,1.46-2.79,7.17,7.17,0,0,1,4-1h2.37v-1.48a2.27,2.27,0,0,0-.7-1.76,2.75,2.75,0,0,0-2-.65,4.83,4.83,0,0,0-1.53.22,2.92,2.92,0,0,0-1.07.61l-.24,1.33H478V133a6.8,6.8,0,0,1,2.09-1.11,8.49,8.49,0,0,1,2.67-.41,5.35,5.35,0,0,1,3.5,1.1,3.85,3.85,0,0,1,1.33,3.15v6.11c0,.16,0,.32,0,.48a3.83,3.83,0,0,0,0,.47l.94.13v1.47Zm-3.71-1.68a4.06,4.06,0,0,0,2.09-.56,3.27,3.27,0,0,0,1.36-1.32v-2.09H482.8a3.49,3.49,0,0,0-2.24.66,2,2,0,0,0-.83,1.59,1.58,1.58,0,0,0,.52,1.28A2.36,2.36,0,0,0,481.81,142.74Z"/><path class="cls-3" d="M505,142.91a4,4,0,0,1-1.52,1.31,4.58,4.58,0,0,1-2.08.45,4.34,4.34,0,0,1-3.63-1.68,7,7,0,0,1-1.31-4.43v-.24a8.49,8.49,0,0,1,1.31-4.94,4.2,4.2,0,0,1,3.65-1.87,4.65,4.65,0,0,1,2,.41,4.15,4.15,0,0,1,1.47,1.21V128l-1.91-.33v-1.49h4.22v16.48l1.91.33v1.47h-3.92Zm-6.23-4.35a5.31,5.31,0,0,0,.79,3.07,2.7,2.7,0,0,0,2.42,1.16,3.09,3.09,0,0,0,1.74-.46,3.69,3.69,0,0,0,1.16-1.33v-5.88a3.74,3.74,0,0,0-1.16-1.27,3.09,3.09,0,0,0-1.71-.47,2.65,2.65,0,0,0-2.45,1.37,7.2,7.2,0,0,0-.79,3.57Z"/><path class="cls-3" d="M516.62,144.67a5.36,5.36,0,0,1-4.21-1.76,6.68,6.68,0,0,1-1.56-4.58v-.52a6.47,6.47,0,0,1,1.61-4.5,5,5,0,0,1,3.81-1.8,4.79,4.79,0,0,1,3.88,1.55,6.17,6.17,0,0,1,1.31,4.12v1.44h-8.22l0,.06a5,5,0,0,0,.93,3,2.94,2.94,0,0,0,2.49,1.17,5.9,5.9,0,0,0,2.06-.33,4.7,4.7,0,0,0,1.53-.92l.9,1.5a5.42,5.42,0,0,1-1.8,1.11A7.18,7.18,0,0,1,516.62,144.67Zm-.35-11.34a2.51,2.51,0,0,0-2,1,4.68,4.68,0,0,0-1,2.46l0,.06h5.84v-.31a3.56,3.56,0,0,0-.72-2.27A2.59,2.59,0,0,0,516.27,133.33Z"/><path class="cls-3" d="M529.42,147.81l1.91-.33V133.56l-1.91-.33v-1.49h3.89l.21,1.55a4.22,4.22,0,0,1,1.54-1.32,4.58,4.58,0,0,1,2.11-.46,4.2,4.2,0,0,1,3.66,1.87,8.45,8.45,0,0,1,1.31,4.94v.24a7,7,0,0,1-1.32,4.43,4.33,4.33,0,0,1-3.62,1.68,5,5,0,0,1-2.05-.39,4,4,0,0,1-1.51-1.17v4.37l1.91.33v1.49h-6.13Zm10.4-9.49a6.73,6.73,0,0,0-.85-3.55,2.74,2.74,0,0,0-2.51-1.39,3,3,0,0,0-1.68.45,3.35,3.35,0,0,0-1.14,1.22v6.17a3,3,0,0,0,2.85,1.64,2.83,2.83,0,0,0,2.48-1.19,5.3,5.3,0,0,0,.85-3.11Z"/><path class="cls-3" d="M544.24,138a7,7,0,0,1,1.53-4.64,5.63,5.63,0,0,1,8.29,0,6.94,6.94,0,0,1,1.53,4.64v.25a7,7,0,0,1-1.52,4.64,5.66,5.66,0,0,1-8.3,0,6.94,6.94,0,0,1-1.53-4.64Zm9.27-8.64v.29h-1.88l-1.73-1.73-1.69,1.73h-1.88v-.3l2.88-2.78h1.4Zm-7,8.89a6,6,0,0,0,.85,3.33,2.81,2.81,0,0,0,2.53,1.31,2.78,2.78,0,0,0,2.49-1.31,6,6,0,0,0,.86-3.33V138a6,6,0,0,0-.86-3.32,2.81,2.81,0,0,0-2.52-1.32,2.78,2.78,0,0,0-2.5,1.32,6,6,0,0,0-.85,3.32Z"/><path class="cls-3" d="M557.7,133.23v-1.49h4l.22,1.84a4.51,4.51,0,0,1,1.33-1.52,3.07,3.07,0,0,1,1.81-.55,3.6,3.6,0,0,1,.56,0l.44.09-.3,2.14-1.32-.07a2.58,2.58,0,0,0-1.53.43,2.68,2.68,0,0,0-1,1.2v7.28l1.91.33v1.47H557.7V143l1.91-.33v-9.06Z"/><path class="cls-3" d="M573.6,138a7,7,0,0,1,1.52-4.64,5.63,5.63,0,0,1,8.29,0,6.94,6.94,0,0,1,1.53,4.64v.25a6.92,6.92,0,0,1-1.52,4.64,5.66,5.66,0,0,1-8.3,0,7,7,0,0,1-1.52-4.64Zm2.31.25a6,6,0,0,0,.85,3.33,3.06,3.06,0,0,0,5,0,6,6,0,0,0,.86-3.33V138a6,6,0,0,0-.86-3.32,3.06,3.06,0,0,0-5,0,6.08,6.08,0,0,0-.84,3.32Z"/><path class="cls-3" d="M596.76,135.73H595l-.37-1.53a3.24,3.24,0,0,0-1.06-.63,4.12,4.12,0,0,0-1.45-.24,2.67,2.67,0,0,0-1.83.53,1.7,1.7,0,0,0-.6,1.31,1.45,1.45,0,0,0,.53,1.18,5.37,5.37,0,0,0,2.15.77,9.31,9.31,0,0,1,3.57,1.4,2.83,2.83,0,0,1,1.17,2.38,3.28,3.28,0,0,1-1.36,2.73,5.75,5.75,0,0,1-3.57,1,9.35,9.35,0,0,1-2.59-.33,7.06,7.06,0,0,1-2.05-1v-2.9h1.73l.43,1.7a2.37,2.37,0,0,0,1.09.53,5.89,5.89,0,0,0,1.4.16,3.3,3.3,0,0,0,1.93-.49,1.61,1.61,0,0,0,.11-2.56,5.35,5.35,0,0,0-2.19-.86,9.25,9.25,0,0,1-3.48-1.37,2.75,2.75,0,0,1-1.18-2.34,3.31,3.31,0,0,1,1.32-2.64,5.19,5.19,0,0,1,3.43-1.09,8.35,8.35,0,0,1,2.59.37,5.4,5.4,0,0,1,1.91,1.05Z"/><path class="cls-3" d="M611,142.86a3.12,3.12,0,0,0,2-.7,2.19,2.19,0,0,0,.87-1.74h2.08l0,.07a3.56,3.56,0,0,1-1.46,2.91,5.32,5.32,0,0,1-3.53,1.27,5.11,5.11,0,0,1-4.23-1.81,7,7,0,0,1-1.46-4.53v-.49a6.94,6.94,0,0,1,1.47-4.52,5.1,5.1,0,0,1,4.22-1.81,7.14,7.14,0,0,1,2.73.5,5.52,5.52,0,0,1,2,1.39l.11,2.81H614l-.5-2a3.17,3.17,0,0,0-1.06-.65,4.12,4.12,0,0,0-1.45-.24,2.79,2.79,0,0,0-2.6,1.3,6.16,6.16,0,0,0-.78,3.21v.49a6.17,6.17,0,0,0,.78,3.24A2.78,2.78,0,0,0,611,142.86Z"/><path class="cls-3" d="M618.2,138a7,7,0,0,1,1.53-4.64,5.63,5.63,0,0,1,8.29,0,6.94,6.94,0,0,1,1.53,4.64v.25a6.92,6.92,0,0,1-1.53,4.64,5.65,5.65,0,0,1-8.29,0,6.94,6.94,0,0,1-1.53-4.64Zm2.31.25a6,6,0,0,0,.85,3.33,2.81,2.81,0,0,0,2.53,1.31,2.78,2.78,0,0,0,2.49-1.31,6,6,0,0,0,.86-3.33V138a6,6,0,0,0-.86-3.32,3.06,3.06,0,0,0-5,0,6.08,6.08,0,0,0-.84,3.32Z"/><path class="cls-3" d="M631.32,143l1.91-.33v-9.06l-1.91-.33v-1.49h4l.16,1.89a4.56,4.56,0,0,1,1.59-1.56,4.68,4.68,0,0,1,5.35.64,5.28,5.28,0,0,1,1.12,3.71v6.2l1.91.33v1.47H639.3V143l1.91-.33v-6.15a3.44,3.44,0,0,0-.67-2.38,2.64,2.64,0,0,0-2-.71,3.25,3.25,0,0,0-1.76.48,3.56,3.56,0,0,0-1.23,1.32v7.44l1.91.33v1.47h-6.12Z"/><path class="cls-3" d="M646.78,143l1.91-.33V128l-1.91-.33v-1.49H651v7.29a4.74,4.74,0,0,1,1.61-1.42,4.47,4.47,0,0,1,2.11-.5,4.09,4.09,0,0,1,3.16,1.22,5.37,5.37,0,0,1,1.13,3.75v6.14l1.91.33v1.47h-6.13V143l1.91-.33v-6.17a3.4,3.4,0,0,0-.68-2.32,2.57,2.57,0,0,0-2-.75,3.28,3.28,0,0,0-1.72.46,3.76,3.76,0,0,0-1.29,1.22v7.56l1.91.33v1.47h-6.13Z"/><path class="cls-3" d="M668.26,144.67a5.36,5.36,0,0,1-4.21-1.76,6.68,6.68,0,0,1-1.56-4.58v-.52a6.47,6.47,0,0,1,1.61-4.5,5,5,0,0,1,3.81-1.8,4.79,4.79,0,0,1,3.88,1.55,6.17,6.17,0,0,1,1.31,4.12v1.44h-8.22l0,.06a5,5,0,0,0,.93,3,2.94,2.94,0,0,0,2.49,1.17,5.86,5.86,0,0,0,2.06-.33,4.7,4.7,0,0,0,1.53-.92l.9,1.5a5.42,5.42,0,0,1-1.8,1.11A7.18,7.18,0,0,1,668.26,144.67Zm-.35-11.34a2.51,2.51,0,0,0-2,1,4.76,4.76,0,0,0-1,2.46l0,.06h5.85v-.31a3.57,3.57,0,0,0-.73-2.27A2.59,2.59,0,0,0,667.91,133.33Z"/><path class="cls-3" d="M681.07,142.86a3.1,3.1,0,0,0,2-.7,2.17,2.17,0,0,0,.88-1.74H686l0,.07a3.59,3.59,0,0,1-1.46,2.91,5.34,5.34,0,0,1-3.54,1.27,5.09,5.09,0,0,1-4.22-1.81,7,7,0,0,1-1.46-4.53v-.49a7,7,0,0,1,1.46-4.52,5.12,5.12,0,0,1,4.22-1.81,7.19,7.19,0,0,1,2.74.5,5.52,5.52,0,0,1,2,1.39l.1,2.81h-1.84l-.5-2a3,3,0,0,0-1.05-.65,4.18,4.18,0,0,0-1.46-.24,2.77,2.77,0,0,0-2.59,1.3,6.16,6.16,0,0,0-.78,3.21v.49a6.27,6.27,0,0,0,.77,3.24A2.79,2.79,0,0,0,681.07,142.86Z"/><path class="cls-3" d="M688.32,143l1.91-.33v-9.06l-1.91-.33v-1.49h4.21v10.88l1.91.33v1.47h-6.12Zm4.21-14.45h-2.3v-2.36h2.3Z"/><path class="cls-3" d="M695.74,143l1.91-.33v-9.06l-1.91-.33v-1.49h4l.15,1.66a4.14,4.14,0,0,1,1.57-1.4,4.79,4.79,0,0,1,2.23-.49,3.91,3.91,0,0,1,2.17.58,3.61,3.61,0,0,1,1.37,1.76,4.65,4.65,0,0,1,1.58-1.71,4.18,4.18,0,0,1,2.3-.63,3.81,3.81,0,0,1,3.07,1.33,6.08,6.08,0,0,1,1.12,4v5.78l1.91.33v1.47h-6.14V143l1.91-.33v-5.8a4.24,4.24,0,0,0-.64-2.66,2.34,2.34,0,0,0-1.91-.78,2.45,2.45,0,0,0-1.94.85,3.71,3.71,0,0,0-.85,2.14v6.25l1.91.33v1.47h-6.13V143l1.91-.33v-5.8a4.17,4.17,0,0,0-.66-2.61,2.32,2.32,0,0,0-1.92-.83,3.15,3.15,0,0,0-1.73.44,2.79,2.79,0,0,0-1,1.22v7.58l1.91.33v1.47h-6.13Z"/><path class="cls-3" d="M724.55,144.67a5.35,5.35,0,0,1-4.21-1.76,6.63,6.63,0,0,1-1.57-4.58v-.52a6.52,6.52,0,0,1,1.61-4.5,5,5,0,0,1,3.82-1.8,4.78,4.78,0,0,1,3.87,1.55,6.12,6.12,0,0,1,1.32,4.12v1.44h-8.23l0,.06a5,5,0,0,0,.92,3,3,3,0,0,0,2.5,1.17,5.9,5.9,0,0,0,2.06-.33,4.7,4.7,0,0,0,1.53-.92l.9,1.5a5.63,5.63,0,0,1-1.8,1.11A7.21,7.21,0,0,1,724.55,144.67Zm-.35-11.34a2.48,2.48,0,0,0-2,1,4.6,4.6,0,0,0-1,2.46l0,.06h5.85v-.31a3.51,3.51,0,0,0-.73-2.27A2.57,2.57,0,0,0,724.2,133.33Z"/><path class="cls-3" d="M731.32,143l1.91-.33v-9.06l-1.91-.33v-1.49h4l.16,1.89a4.56,4.56,0,0,1,1.59-1.56,4.68,4.68,0,0,1,5.35.64,5.28,5.28,0,0,1,1.12,3.71v6.2l1.91.33v1.47H739.3V143l1.91-.33v-6.15a3.44,3.44,0,0,0-.66-2.38,2.64,2.64,0,0,0-2-.71,3.25,3.25,0,0,0-1.76.48,3.48,3.48,0,0,0-1.23,1.32v7.44l1.91.33v1.47h-6.13Z"/><path class="cls-3" d="M751.14,128.68v3.06h2.4v1.71h-2.4v7.7a1.71,1.71,0,0,0,.37,1.26,1.33,1.33,0,0,0,1,.36,5.89,5.89,0,0,0,.68-.05c.26,0,.47-.07.64-.11l.32,1.58a3,3,0,0,1-1,.34,6.17,6.17,0,0,1-1.27.14,3,3,0,0,1-2.24-.85,3.73,3.73,0,0,1-.83-2.67v-7.7h-2v-1.71h2v-3.06Z"/><path class="cls-3" d="M755.67,138a7,7,0,0,1,1.53-4.64,5.63,5.63,0,0,1,8.29,0A6.94,6.94,0,0,1,767,138v.25a6.92,6.92,0,0,1-1.53,4.64,5.65,5.65,0,0,1-8.29,0,6.94,6.94,0,0,1-1.53-4.64Zm2.31.25a6,6,0,0,0,.85,3.33,2.81,2.81,0,0,0,2.53,1.31,2.78,2.78,0,0,0,2.49-1.31,6,6,0,0,0,.86-3.33V138a6,6,0,0,0-.86-3.32,2.81,2.81,0,0,0-2.52-1.32,2.78,2.78,0,0,0-2.5,1.32A6,6,0,0,0,758,138Z"/><path class="cls-3" d="M778.83,135.73H777.1l-.38-1.53a3.14,3.14,0,0,0-1.06-.63,4.12,4.12,0,0,0-1.45-.24,2.62,2.62,0,0,0-1.82.53,1.7,1.7,0,0,0-.6,1.31,1.42,1.42,0,0,0,.53,1.18,5.31,5.31,0,0,0,2.14.77,9.31,9.31,0,0,1,3.57,1.4,2.81,2.81,0,0,1,1.18,2.38,3.29,3.29,0,0,1-1.37,2.73,5.75,5.75,0,0,1-3.57,1,9.41,9.41,0,0,1-2.59-.33,7.18,7.18,0,0,1-2-1v-2.9h1.73l.44,1.7a2.28,2.28,0,0,0,1.08.53,6,6,0,0,0,1.4.16,3.3,3.3,0,0,0,1.93-.49,1.6,1.6,0,0,0,.12-2.56,5.41,5.41,0,0,0-2.2-.86,9.25,9.25,0,0,1-3.48-1.37,2.77,2.77,0,0,1-1.17-2.34,3.31,3.31,0,0,1,1.32-2.64,5.16,5.16,0,0,1,3.42-1.09,8.31,8.31,0,0,1,2.59.37,5.23,5.23,0,0,1,1.91,1.05Z"/><path class="cls-3" d="M795.6,144.42c-.07-.34-.12-.65-.16-.92s-.07-.55-.09-.82a5.51,5.51,0,0,1-1.67,1.42,4.77,4.77,0,0,1-5.15-.4,3.56,3.56,0,0,1-1-2.72,3.17,3.17,0,0,1,1.46-2.79,7.13,7.13,0,0,1,4-1h2.38v-1.48a2.27,2.27,0,0,0-.7-1.76,2.75,2.75,0,0,0-2-.65,4.75,4.75,0,0,0-1.53.22,2.84,2.84,0,0,0-1.07.61l-.25,1.33h-1.78V133a7,7,0,0,1,2.1-1.11,8.49,8.49,0,0,1,2.67-.41,5.37,5.37,0,0,1,3.5,1.1,3.85,3.85,0,0,1,1.33,3.15v6.11c0,.16,0,.32,0,.48a3.83,3.83,0,0,0,0,.47l.93.13v1.47ZM793.8,130h-1.87l-2.92-3,0-.07h2.69Zm-1.91,12.79a4.06,4.06,0,0,0,2.09-.56,3.27,3.27,0,0,0,1.36-1.32v-2.09h-2.46a3.49,3.49,0,0,0-2.24.66,2,2,0,0,0-.83,1.59,1.58,1.58,0,0,0,.52,1.28A2.36,2.36,0,0,0,791.89,142.74Z"/><path class="cls-3" d="M256.46,176.61l1.91-.33V162.36l-1.91-.33v-1.49h3.89l.21,1.55a4.14,4.14,0,0,1,1.54-1.32,4.51,4.51,0,0,1,2.1-.46,4.2,4.2,0,0,1,3.66,1.87,8.45,8.45,0,0,1,1.31,4.94v.24a7,7,0,0,1-1.31,4.43,4.34,4.34,0,0,1-3.62,1.68,5.08,5.08,0,0,1-2.06-.39,4.09,4.09,0,0,1-1.51-1.17v4.37l1.91.33v1.49h-6.12Zm10.39-9.49a6.74,6.74,0,0,0-.84-3.55,2.75,2.75,0,0,0-2.51-1.39,3.07,3.07,0,0,0-1.69.45,3.35,3.35,0,0,0-1.14,1.22V170a3.2,3.2,0,0,0,1.14,1.22,3.23,3.23,0,0,0,1.71.42,2.85,2.85,0,0,0,2.49-1.19,5.29,5.29,0,0,0,.84-3.11Z"/><path class="cls-3" d="M271.27,162v-1.49h4l.22,1.84a4.51,4.51,0,0,1,1.33-1.52,3.07,3.07,0,0,1,1.81-.55,3.6,3.6,0,0,1,.56,0l.44.09-.3,2.14-1.32-.07a2.58,2.58,0,0,0-1.53.43,2.68,2.68,0,0,0-1,1.2v7.28l1.91.33v1.47h-6.13v-1.47l1.91-.33v-9.06Z"/><path class="cls-3" d="M281,166.77a7,7,0,0,1,1.52-4.64,5.64,5.64,0,0,1,8.3,0,6.94,6.94,0,0,1,1.53,4.64V167a6.92,6.92,0,0,1-1.53,4.64,5.1,5.1,0,0,1-4.14,1.81,5.16,5.16,0,0,1-4.16-1.81A7,7,0,0,1,281,167Zm2.31.25a6,6,0,0,0,.85,3.33,3.06,3.06,0,0,0,5,0A6,6,0,0,0,290,167v-.25a6,6,0,0,0-.86-3.32,3.06,3.06,0,0,0-5,0,6.08,6.08,0,0,0-.84,3.32Z"/><path class="cls-3" d="M298.6,162l-1.53.24,2.62,7.21.21.92H300l.22-.92,2.53-7.21-1.53-.24v-1.49h4.89V162l-1,.18-4.25,11H299l-4.3-11-1-.18v-1.49h4.9Z"/><path class="cls-3" d="M315.74,173.22c-.07-.34-.12-.65-.16-.92s-.07-.55-.09-.82a5.51,5.51,0,0,1-1.67,1.42,4.77,4.77,0,0,1-5.15-.4,3.56,3.56,0,0,1-1-2.72A3.17,3.17,0,0,1,309.1,167a7.13,7.13,0,0,1,4-1h2.38v-1.48a2.27,2.27,0,0,0-.7-1.76,2.75,2.75,0,0,0-2-.65,4.75,4.75,0,0,0-1.53.22,2.84,2.84,0,0,0-1.07.61l-.24,1.33h-1.79v-2.46a7,7,0,0,1,2.1-1.11,8.49,8.49,0,0,1,2.67-.41,5.35,5.35,0,0,1,3.5,1.1,3.85,3.85,0,0,1,1.33,3.15v6.11c0,.16,0,.32,0,.48a3.83,3.83,0,0,0,0,.47l.93.13v1.47ZM312,171.54a4.06,4.06,0,0,0,2.09-.56,3.27,3.27,0,0,0,1.36-1.32v-2.09H313a3.49,3.49,0,0,0-2.24.66,2,2,0,0,0-.83,1.59,1.58,1.58,0,0,0,.52,1.28A2.36,2.36,0,0,0,312,171.54Z"/><path class="cls-3" d="M323.63,167.62h-2.31V156.16h2.31Zm0,5.6h-2.31v-2.39h2.31Z"/><circle class="cls-4" cx="106" cy="140.25" r="103"/><path class="cls-2" d="M106,40.25a100,100,0,1,1-100,100,100,100,0,0,1,100-100m0-6a106,106,0,1,0,106,106,106.12,106.12,0,0,0-106-106Z"/><path class="cls-5" d="M105.74,40.43a99.74,99.74,0,1,0,99.74,99.74A99.74,99.74,0,0,0,105.74,40.43Zm0,192.83a93.09,93.09,0,1,1,93.09-93.09A93.09,93.09,0,0,1,105.74,233.26Z"/><path class="cls-5" d="M152.81,67.72a3.33,3.33,0,0,0-4.61,1l-5.43,8.36a3.32,3.32,0,0,0-.46,2.55,3.28,3.28,0,0,0,1.51,2.1,42.72,42.72,0,0,1,3.73,2.66c.75.57,1.5,1.14,2.08,1.55,1,.85,2,1.75,3,2.66l-2.3,2.29a66.28,66.28,0,0,0-14.57-10l6.8-15.25a3.32,3.32,0,0,0-1.69-4.39,86.9,86.9,0,0,0-30.63-7.3,3.32,3.32,0,0,0-3.49,3.15l-.52,10a3.33,3.33,0,0,0,3.14,3.49l3.5.18,3.73.57,1.44.22c.72.1,1.44.2,2.07.34l.45.12-.87,3.26a68.05,68.05,0,0,0-17.61-1.43l-1.72-16.63a3.33,3.33,0,0,0-3.66-3,85.53,85.53,0,0,0-30.2,9,3.32,3.32,0,0,0-1.45,4.47l4.54,8.88A3.33,3.33,0,0,0,74,78.07c.67-.31,1.33-.64,2-1a34.37,34.37,0,0,1,4.75-2l.85-.31c1-.37,2-.73,2.93-1.06l.86,3.22c-.82.28-1.61.57-2.4.87l-.79.3a30.1,30.1,0,0,0-4.72,2l-2,1L69.8,84.29c-.13.07-.26.14-.38.22L59.61,71A3.33,3.33,0,0,0,55,70.3,86.67,86.67,0,0,0,33.28,93.1a3.31,3.31,0,0,0-.46,2.51,3.35,3.35,0,0,0,1.44,2.1l8.36,5.44a3.33,3.33,0,0,0,4.65-1.06,42.46,42.46,0,0,1,2.65-3.72c.58-.76,1.15-1.51,1.56-2.1.85-1,1.75-2,2.65-3l2.3,2.3a66.28,66.28,0,0,0-10,14.57l-15.25-6.8A3.34,3.34,0,0,0,26.8,105a87,87,0,0,0-7.29,30.64,3.32,3.32,0,0,0,3.15,3.49l10,.52a3.32,3.32,0,0,0,2.4-.85,3.26,3.26,0,0,0,1.09-2.29l.18-3.5.56-3.73c.09-.48.16-1,.22-1.44.11-.72.21-1.44.35-2.07l.12-.45,3.25.87a67.57,67.57,0,0,0-1.42,17.6l-16.64,1.73a3.33,3.33,0,0,0-3,3.65,86.68,86.68,0,0,0,9,30.21,3.33,3.33,0,0,0,4.47,1.45l8.88-4.53A3.33,3.33,0,0,0,43.63,172c-.31-.66-.63-1.31-1-2a34.21,34.21,0,0,1-2-4.78l-.33-.88c-.37-1-.72-2-1-2.9l3.26-.87a65.71,65.71,0,0,0,7.59,15.91L36.6,186.3a3.31,3.31,0,0,0-.73,4.64,86.47,86.47,0,0,0,22.8,21.68,3.32,3.32,0,0,0,4.6-1l5.44-8.36a3.31,3.31,0,0,0-1.06-4.65c-1.28-.82-2.53-1.71-3.73-2.66-.74-.57-1.49-1.14-2.08-1.55-1-.85-2-1.75-3-2.65l2.35-2.36c.89.82,1.81,1.64,2.92,2.55.64.45,1.27.94,1.9,1.42A39.9,39.9,0,0,0,69.71,196l5.93,3.41.08,0-6.81,15.27a3.32,3.32,0,0,0,1.68,4.39,87,87,0,0,0,30.64,7.3h.17a3.32,3.32,0,0,0,3.32-3.15l.51-10a3.31,3.31,0,0,0-3.14-3.49l-3.49-.18-3.73-.57-1.44-.22c-.72-.1-1.44-.2-2.07-.35l-.46-.11.88-3.26a68,68,0,0,0,17.6,1.43l1.73,16.63a3.33,3.33,0,0,0,3.65,3,85.78,85.78,0,0,0,30.21-9,3.32,3.32,0,0,0,1.45-4.47l-4.54-8.89a3.31,3.31,0,0,0-4.35-1.5c-.67.31-1.33.63-2,1a35.57,35.57,0,0,1-4.75,2l-.85.31c-1,.37-2,.74-2.93,1.06l-.88-3.26A66,66,0,0,0,142,195.8l9.83,13.5a3.32,3.32,0,0,0,4.64.74,86.47,86.47,0,0,0,21.68-22.8,3.34,3.34,0,0,0,.47-2.5,3.29,3.29,0,0,0-1.44-2.1l-8.36-5.45a3.37,3.37,0,0,0-2.55-.45,3.32,3.32,0,0,0-2.1,1.51,42.46,42.46,0,0,1-2.65,3.72c-.58.76-1.15,1.51-1.56,2.1-.85,1-1.75,2-2.66,3l-2.29-2.3a66.28,66.28,0,0,0,10-14.57l15.25,6.8a3.32,3.32,0,0,0,4.39-1.68,87,87,0,0,0,7.3-30.64,3.33,3.33,0,0,0-3.15-3.49l-10-.51a3.34,3.34,0,0,0-3.49,3.14l-.18,3.5-.57,3.72c-.08.48-.15,1-.22,1.45-.1.71-.2,1.44-.35,2.06l-.11.46-3.21-.86,0-.08a23.27,23.27,0,0,0,.41-2.36c.05-.36.1-.73.17-1.15l.51-3.26c0-.12,0-.23,0-.34l.17-3.48v-6.94l16.7-1.74a3.31,3.31,0,0,0,3-3.65,86.68,86.68,0,0,0-9-30.21,3.33,3.33,0,0,0-4.47-1.45L169.35,104a3.33,3.33,0,0,0-1.51,4.36c.31.66.63,1.31.95,2a34.21,34.21,0,0,1,2.05,4.78l.33.88c.37,1,.73,1.95,1,2.9l-3.25.87a66.08,66.08,0,0,0-7.59-15.91L174.87,94a3.33,3.33,0,0,0,.74-4.64A86.47,86.47,0,0,0,152.81,67.72Zm2,32.68a3.32,3.32,0,0,0-.73,4.65,59.12,59.12,0,0,1,9.37,19.64,3.33,3.33,0,0,0,4.07,2.35l9.64-2.57a3.33,3.33,0,0,0,2.39-3.91,48.49,48.49,0,0,0-2.17-6.87l-.26-.71a34.82,34.82,0,0,0-1.87-4.51l3-1.51a80.15,80.15,0,0,1,6.44,21.58l-16.46,1.71a3.33,3.33,0,0,0-3,3.48l.17,3.22v6.36l-.17,3.13-.47,3.05c-.07.44-.14.87-.2,1.31s-.16,1.18-.27,1.68l-.83,3.19a3.32,3.32,0,0,0,2.36,4.05l9.63,2.58A3.32,3.32,0,0,0,178,162a3.28,3.28,0,0,0,1.54-2l1-3.79c.2-.88.33-1.79.46-2.69.06-.42.12-.85.2-1.33l.62-4.1,0-.51,3.27.16a80.75,80.75,0,0,1-5.21,21.89l-15.11-6.74a3.35,3.35,0,0,0-4.4,1.69,59.45,59.45,0,0,1-12.32,18,3.33,3.33,0,0,0,0,4.7l7.05,7.05a3.25,3.25,0,0,0,2.45,1,3.35,3.35,0,0,0,2.38-1.11q.9-1,1.8-2c1.16-1.26,2.31-2.51,3.53-4,.5-.72,1-1.41,1.57-2.11q.56-.72,1.11-1.47l2.8,1.82a79.82,79.82,0,0,1-15.5,16.29l-9.75-13.39a3.34,3.34,0,0,0-4.64-.73,59.12,59.12,0,0,1-19.64,9.37,3.34,3.34,0,0,0-2.36,4.08l2.58,9.63a3.32,3.32,0,0,0,3.91,2.39,48.74,48.74,0,0,0,6.89-2.17l.69-.26a33.47,33.47,0,0,0,4.51-1.87l1.51,3a80.24,80.24,0,0,1-21.58,6.43l-1.71-16.45a3.26,3.26,0,0,0-1.19-2.24,3.31,3.31,0,0,0-2.44-.73,61.22,61.22,0,0,1-21.77-1.77,3.32,3.32,0,0,0-4.07,2.35l-2.58,9.64a3.3,3.3,0,0,0,.34,2.53A3.33,3.33,0,0,0,86,214l3.79,1c.89.21,1.8.35,2.7.48l1.32.2,4.11.61.51,0-.17,3.26a80.4,80.4,0,0,1-21.88-5.21L83.1,199.2a3.33,3.33,0,0,0-1.59-4.35l-2.76-1.32-5.67-3.26a32,32,0,0,1-3-2.16c-.7-.54-1.41-1.08-1.92-1.42-1-.8-1.88-1.64-2.8-2.48-.68-.63-1.37-1.26-2.07-1.88a3.34,3.34,0,0,0-4.54.16l-7,7a3.32,3.32,0,0,0,.14,4.84l1.95,1.77c1.27,1.16,2.53,2.32,4,3.55.71.51,1.4,1,2.1,1.57l1.48,1.12-1.82,2.79a79.82,79.82,0,0,1-16.29-15.5l13.38-9.74a3.33,3.33,0,0,0,.74-4.64A59.49,59.49,0,0,1,48,155.65a3.32,3.32,0,0,0-4.06-2.35l-9.64,2.58a3.31,3.31,0,0,0-2.39,3.9,48,48,0,0,0,2.16,6.87l.27.71a34.9,34.9,0,0,0,1.86,4.52l-3,1.51A80.58,80.58,0,0,1,26.8,151.8l16.46-1.71a3.32,3.32,0,0,0,3-3.62A61,61,0,0,1,48,124.69a3.32,3.32,0,0,0-2.35-4.07L36,118a3.35,3.35,0,0,0-4.08,2.39l-1,3.79c-.2.89-.34,1.79-.47,2.69-.06.43-.12.85-.2,1.33l-.61,4.11,0,.5-3.26-.16a80.45,80.45,0,0,1,5.2-21.89l15.12,6.74a3.33,3.33,0,0,0,4.39-1.69,59.66,59.66,0,0,1,12.33-18,3.32,3.32,0,0,0,0-4.69L56.37,86.1a3.3,3.3,0,0,0-2.45-1,3.35,3.35,0,0,0-2.39,1.11c-.59.67-1.19,1.33-1.8,2-1.15,1.25-2.3,2.5-3.52,4-.51.71-1,1.4-1.57,2.1-.37.48-.75,1-1.12,1.47L40.73,94a79.82,79.82,0,0,1,15.5-16.29L66,91.08a3.35,3.35,0,0,0,4.65.73l.77-.59A11.16,11.16,0,0,1,73,90.11L78.46,87,80.37,86a26.14,26.14,0,0,1,3.89-1.66l1-.37a34.15,34.15,0,0,1,4.82-1.53,3.32,3.32,0,0,0,2.54-4.11L90,68.73a3.33,3.33,0,0,0-3.91-2.39,49.2,49.2,0,0,0-6.89,2.18l-.69.25A34.69,34.69,0,0,0,74,70.64l-1.52-3a80.33,80.33,0,0,1,21.59-6.44l1.7,16.46a3.29,3.29,0,0,0,3.63,3,61,61,0,0,1,21.77,1.78,3.39,3.39,0,0,0,2.53-.34,3.27,3.27,0,0,0,1.54-2l2.58-9.63a3.32,3.32,0,0,0-2.38-4.08l-3.78-1c-.9-.21-1.8-.34-2.71-.47l-1.32-.21-4.1-.61-.52,0,.17-3.26A80.47,80.47,0,0,1,135.11,66l-6.74,15.11a3.35,3.35,0,0,0,1.69,4.4,59.45,59.45,0,0,1,18,12.32,3.33,3.33,0,0,0,4.7,0l7.05-7a3.33,3.33,0,0,0-.14-4.83l-2-1.78c-1.26-1.16-2.52-2.31-4-3.55-.71-.5-1.4-1-2.09-1.56L150.11,78l1.81-2.8a79.61,79.61,0,0,1,16.3,15.5Z"/><path class="cls-5" d="M105.74,87a53.09,53.09,0,0,0-45.87,80,3.79,3.79,0,0,0,.2.34,53.59,53.59,0,0,0,13.56,15.17c.09.06.14.15.23.2l.07,0a52.79,52.79,0,0,0,63.6,0l.09,0c.09-.05.14-.14.22-.2a53.29,53.29,0,0,0,13.56-15.17,2.39,2.39,0,0,0,.21-.34,53.09,53.09,0,0,0-45.87-80Zm-6,7.08-36.9,64.18a46.5,46.5,0,0,1,36.9-64.18ZM79.9,178.86l25.84-44.92,25.84,44.92a46.44,46.44,0,0,1-51.68,0Zm56.95-4.17-26.79-46.57a5,5,0,0,0-8.65,0L74.62,174.69a47,47,0,0,1-8.09-9.53L105.74,97l7.6,13.19.15.3,31.45,54.71a47,47,0,0,1-8.09,9.53Zm11.78-16.46L119.41,107.4a3,3,0,0,0-.15-.31l-7.52-13a46.5,46.5,0,0,1,36.89,64.17Z"/><g class="cls-6"><path class="cls-7" d="M94.75,3.56A7.45,7.45,0,0,1,100,6a12.52,12.52,0,0,1,3.2-.42A11.64,11.64,0,0,1,111.9,9.5c9.54,3.58,5.75,9.32,5.53,9.64h.11s5.59,3.91,3.67,5.83c0,0,3.45,4.28.69,6.58a3,3,0,0,1-1,.5c7.83,12.21,12.51,33.76,9.42,51.53-.61,3.52-4.63,6-15.47,6h0a57.36,57.36,0,0,1-10.48-.93c.1.83.22,1.73.34,2.63h0c.54,3.87,1.33,8.27,2.2,8.91,5.52,4.15,13.76,5.87,18.39,6.54l6.71.63a17.28,17.28,0,0,1,1.49,1.69h.07c2,0,3.61,2.21,3.61,2.21l26.44,46.28-22.82,41s7.66,12.87,3.83,18.69l5.29,5.29s.84,2.83-3,2.83a11.48,11.48,0,0,1-4.44-1.44,291,291,0,0,1,1.06,30,29.62,29.62,0,0,0-3.09-.46l0,2h0c-.08,13.6,0,33.25.77,37.73,1.27,7,0,10.46,0,10.46s3.45,54.55,3.45,55,4.83,6.63,4.83,6.63,6.38,5,11.35,9h0A14.29,14.29,0,0,1,165,376a4.06,4.06,0,0,1,1.26,2.61c.33.22.88.59,1.5,1a16.13,16.13,0,0,0,4.32.81c.68.68,0,1.42-.89,2,.5.53.79,1,.71,1.29-.33,1.2-4.95,6.06-13.3,6.06-.47,0-1,0-1.45,0-8.77-.58-20.93-9.93-21.93-12.53a7.72,7.72,0,0,1,.13-5.25c0-2.22,1.34-4.88,2.08-6.21,1.15-2.06,2-7.93,2-7.93-12.64-44.36-5.4-50.6-6.78-53.82-.87-2-8.69-31.08-14.26-52h0l0-.1c-.32-1.21-.63-2.39-.94-3.54a14.5,14.5,0,0,1-2.88-1.7,90.56,90.56,0,0,1-15.18,6l-1.6,4L82.64,294.52S79.78,305,76.39,308.43A149.55,149.55,0,0,1,68,332.68c-5.74,12.87-8.27,30.57-8.27,30.57s4.11,10.45,4.6,17c4.84,6.63,9.19,14.81,3.42,17.23a33.22,33.22,0,0,1-12.54,2.2c-7,0-13.19-1.63-14.64-3.08-2.34-2.33,4.29-20,4.29-20,.21-1.6.66-3.16,1.59-3.81,2.3-1.61,5.06-5.52,5.06-5.52s-.86-2.3,1.55-5.4,6-23,6-25.61-3.22-22.07,7.51-29.73c0,0,1.22-24.88,4.37-42.88h0c.34-2,.71-4,1.11-5.81-3.29.27-5.26.31-5.26.31S70,249.21,74,237.79c-3.47-.33-1.19-5.71-1.19-5.71a29.52,29.52,0,0,0,4.08-2.4l1.33-3.75C77.09,223.1,80,214.3,80,214.3l-10.54-7.94L38.81,183.27s24.6-58,25.59-59c.65-.64,5.4-3.42,8.67-5.31,3.43-3.43,10.79-6.14,10.79-6.14s7-7.93,8.51-9.42.8-5.64.8-5.64L89.33,83c-6.78-4.26-9.45-9-9.45-9a3.41,3.41,0,0,1-2.5,1,8.77,8.77,0,0,1-4.47-1.7S63.18,63.59,66.24,59a2.89,2.89,0,0,1,2.53-1.39c2,0,4.39,1.65,6.07,3.07-3.45-3-5.3-3.43-6-3.43l-.23,0-.06,0,0,0-.06,0,0-.07c-.72-.36-4-2.15-4.26-5.18-5.5-1.72-4.44-4.79-4.44-4.79-5.29-3.6,0-9.38,0-9.38-2.35-2.36-.53-5.79-.53-5.79-2.76-3.9.68-8.73.68-8.73.39-4.22,6.71-6.71,6.71-6.71.5-2.1,3.1-3.1,3.1-3.1a4.6,4.6,0,0,1,4.25-2.62,2.55,2.55,0,0,1,.35,0c2.29-5,10.88-5.43,14.1-5.43.76,0,1.22,0,1.22,0a8.59,8.59,0,0,1,5.22-2M138,184.61,152.15,159,138.66,139c.36,5.76.58,11.68.52,17.25a223.7,223.7,0,0,1-2,27.19,1.91,1.91,0,0,1,.77,1.19M86.1,203.67c1.37-3.92,2.57-7.36,3.46-10A3,3,0,0,1,91,189.25c.07-.26.14-.46.18-.62,1.38-5-11.61-29.86-11.61-29.86l-11-6.87L53.27,180.81l24.58,17.12,8.25,5.74m79.81,174.68h0M94.75,0h0a11.67,11.67,0,0,0-6.3,2h-.14c-4.62,0-12.4.78-16.16,5.58a8,8,0,0,0-5.06,3.3A9,9,0,0,0,63.78,14c-2.28,1.16-6.45,3.81-7.37,8.06-1.46,2.41-2.81,6.49-1.2,10.32a8.72,8.72,0,0,0,.18,5.37,10.57,10.57,0,0,0-1.6,6.45,8,8,0,0,0,2.3,4.72,6.17,6.17,0,0,0,.62,1.88,8.79,8.79,0,0,0,4.4,3.93,9.45,9.45,0,0,0,1.83,2.84c-1.73,3.17-.88,7.31,2.54,12.32a44.69,44.69,0,0,0,4.91,6l.37.33a12.07,12.07,0,0,0,6.62,2.41,8.33,8.33,0,0,0,1.33-.11,36,36,0,0,0,7.52,6.78l3.45,13.23a8.74,8.74,0,0,1,0,2.59c-1.56,1.6-6.18,6.81-7.89,8.74-2.16.86-7.56,3.2-10.85,6.28-8,4.59-8.61,5.24-9,5.66-.69.69-1.11,1.11-13.92,31-6.21,14.46-12.37,29-12.43,29.14l1.13,4.24L67.27,209.2l8.55,6.45c-.89,3.17-1.72,7.18-1.29,10.07l-.6,1.67a28.27,28.27,0,0,1-2.63,1.47l-1.75,1.82c-.49,1.15-1.93,5.1-.17,8a4.52,4.52,0,0,0,.34.51c-3.61,10.12-6.31,17.66-6.31,17.66l3.42,4.76.81,0L67.4,263h0c-2.72,15.57-4,35.82-4.33,41.67-9.53,8.34-8.16,24.64-7.7,30.17.05.55.1,1.17.1,1.35,0,2.9-3.57,20.92-5.24,23.44a10.8,10.8,0,0,0-2.44,6.59,20.31,20.31,0,0,1-3.38,3.58c-1.61,1.12-2.6,3-3,5.86-.44,1.19-1.8,5-3,9C36,393.05,35.9,397,38.05,399.1c2.71,2.71,10.68,4.13,17.16,4.13a36.69,36.69,0,0,0,13.92-2.48,7.67,7.67,0,0,0,4.63-5.08c1.14-4.09-.76-9.42-6-16.74-.67-5.8-3.4-13.45-4.38-16.07.59-3.7,3.1-18.08,7.86-28.73a156,156,0,0,0,8.39-24C83,306,85.43,297.81,86,295.65l15-37.58,1-2.45a94.26,94.26,0,0,0,12.24-4.81l.09.05.54,2V253c12.08,45.25,13.87,51,14.33,52.2,0,.32-.13,1-.22,1.52-.87,5.2-2.89,17.31,6.74,51.4a27.17,27.17,0,0,1-1.43,6,18.26,18.26,0,0,0-2.51,7.28,11.15,11.15,0,0,0,.09,7.18c1.3,3.39,8.1,7.89,9.45,8.75,3.27,2.1,9.64,5.67,15.58,6.06q.84.06,1.68.06c9.57,0,15.89-5.57,16.74-8.69a4,4,0,0,0,.1-1.66,4.35,4.35,0,0,0-.84-5.11l-2.37-1a14,14,0,0,1-2.81-.44,7,7,0,0,0-2.13-3.2A14.53,14.53,0,0,0,162.5,371c-4.16-3.33-9.13-7.25-10.47-8.3-1.48-1.92-3.14-4.13-3.86-5.16-.17-2.83-.82-13.36-3.36-53.53.4-1.63,1-5.46-.09-11.47-.56-3.12-.82-16.32-.72-36.29l3.11-2.23c0-.56.27-12.33-.63-25.08l.45,0c3.1,0,4.73-1.31,5.55-2.4a5.83,5.83,0,0,0,.86-5l-.9-1.5-3.59-3.59c.85-3.14.4-7.13-1.35-11.93a50.58,50.58,0,0,0-2.62-5.93l21.86-39.22,0-3.5-26.44-46.29-.2-.31a9.47,9.47,0,0,0-4.7-3.44c-.27-.3-.55-.6-.85-.9l-2.19-1-6.61-.62c-4-.59-11.25-2.06-16.15-5.46a32.94,32.94,0,0,1-1-4.89c2.06.2,4.17.3,6.31.3,4.32,0,17.43,0,19-9,2.87-16.49-.62-37.5-8.33-51.37,1.66-2.51,1.15-5.71-.35-8.36a4.41,4.41,0,0,0,0-.89c-.19-2.18-1.81-4.17-3.44-5.65a8.42,8.42,0,0,0-.18-4.36c-1-3-3.49-5.38-7.55-7.08A15.4,15.4,0,0,0,103.23,2a15.9,15.9,0,0,0-2.16.15A10.64,10.64,0,0,0,94.75,0Zm47.43,169.65c.29-4,.51-8.54.57-13.38,0-1.55,0-3.16,0-4.85l5.24,7.79-5.79,10.44Zm-84.28,10L70,157l6.89,4.32c1,1.86,3.3,6.49,5.57,11.51,4.23,9.33,5.1,13.08,5.26,14.42a6.49,6.49,0,0,0-1.84,2.69,6.38,6.38,0,0,0-.1,3.85l-1.5,4.32L79.89,195l-22-15.31Z"/><path class="cls-8" d="M88.8,81l4.37,16.77s.69,4.14-.8,5.64-8.51,9.42-8.51,9.42l-3.9,7.7,22.64,12.87,27-7.24-.8-19s-13.83-.88-21.89-6.94c-1.59-1.18-2.94-15-2.94-15Z"/><path class="cls-9" d="M104.72,91.34c-.43-3.1-.77-6.21-.77-6.21L88.78,80.87,90,85.55s4.75,3.09,6.23,3.74A29,29,0,0,0,104.72,91.34Z"/><path class="cls-8" d="M76.22,117.17s-10.82,6.11-11.82,7.1-25.59,59-25.59,59l30.61,23.09L80,214.3s-3.34,10.23-1.38,12.18-5.75,5.6-5.75,5.6-3,7,3.06,5.51S90.15,232,90.15,232l4.06-22.68L77.85,197.93,53.27,180.81,68.65,151.9l11,6.87L93.06,149,83.4,124.89l-4.13-9Z"/><path class="cls-8" d="M79.88,74s8.77,15.63,35,15.63c10.84,0,14.86-2.53,15.47-6C134.17,61.48,126,33.51,114.66,25c-9.94-7.49-45.2,20.84-45.2,20.84L77,62.67S69.31,54.4,66.24,59s6.67,14.32,6.67,14.32S77.27,76.62,79.88,74Z"/><path class="cls-8" d="M132.24,109.45c2.61-1.38,4.94,1.87,4.94,1.87l26.44,46.28-22.82,41s7.66,12.87,3.83,18.69l5.29,5.29s.84,2.83-3,2.83-12.87-6.74-12.87-6.74l1.05-28.86,17-30.73L136.5,135.77l-4.89-4.34S127.38,112,132.24,109.45Z"/><path class="cls-8" d="M104.78,239,82.64,294.52S79.78,305,76.39,308.43A149.55,149.55,0,0,1,68,332.68c-5.74,12.87-8.27,30.57-8.27,30.57s5.23,13.27,4.6,19.25c0,0,5,6.89,3,10.86S57.43,395,57.43,395s-13.16,1.72-15.11-1.56,2.47-12.06,2.47-12.06-.63-7,1.66-8.62,5.06-5.52,5.06-5.52-.86-2.3,1.55-5.4,6-23,6-25.61-3.22-22.07,7.51-29.73c0,0,2.6-52.86,10-60.22s28.27-11.72,28.27-11.72Z"/><path class="cls-10" d="M104.78,239,97.7,256.75s-9.79,4.37-12.27,5c-1.84.45-15,4.5-14.51,1.86,1.38-8.26,3.28-15,5.59-17.34,7.35-7.35,28.27-11.72,28.27-11.72Z"/><path class="cls-8" d="M112.67,230.77s18.54,70,19.92,73.25-5.86,9.46,6.78,53.82c0,0-.8,5.87-2,7.93s-3.79,7.36-.46,9.2,14.14,11,18.73,11.84,13.22-3.22,13.22-3.22,4.6-1.73,3.16-3.16c0,0-4.2-.17-5.57-1.55s-17-13.68-17-13.68-4.83-6.21-4.83-6.63-3.45-55-3.45-55,1.27-3.45,0-10.46-.65-51.18-.65-51.18Z"/><path class="cls-10" d="M112.67,230.77s4.36,16.42,5.66,21.28c.5,1.86,22.11,3.36,22.11,3.36l.12-13.45Z"/><path class="cls-11" d="M112.67,244.64c3.58,7.11,28.79,8.61,30.88,9.27,0,0,.65-28.54-3.37-44.58S112.67,244.64,112.67,244.64Z"/><path class="cls-12" d="M82,67.73c4.45,1.84.62-6.13.62-6.13s-.42-8-2.68-9.35a32.26,32.26,0,0,1-4.94-4l42.4-29.07s4.29-6-5.52-9.65A11.64,11.64,0,0,0,100,6S95.74.84,89.53,5.56c0,0-12.49-.73-15.32,5.4a4.66,4.66,0,0,0-4.6,2.6s-2.6,1-3.1,3.1c0,0-6.32,2.49-6.71,6.71,0,0-3.44,4.83-.68,8.73,0,0-1.82,3.43.53,5.79,0,0-5.29,5.78,0,9.38,0,0-1.3,3.76,6.44,5.29l2.3,4.75s2.21-1,8.58,5.36S82,67.73,82,67.73Z"/><path class="cls-13" d="M114.19,45c3.52,3.36,9,9.93,9.59,18.78,0,0-8.12,2.91-10.88,2.91"/><path class="cls-14" d="M101,54s.33-7.78,7.17-3.58"/><path class="cls-14" d="M124.54,47.05s-3.43-5.32-6.07.22"/><path class="cls-15" d="M99.39,68.73c-.23-.33,16.36,3.89,23.58.27,0,0-.92,13-6.9,13.42C109.93,82.85,103.52,79.32,99.39,68.73Z"/><g class="cls-16"><path class="cls-17" d="M97.94,70.56s15,7.18,23.15,1.39l-.33-3.33-23.32-2.4Z"/><path class="cls-18" d="M99.72,76.79s5.89-4,13.39.62-1.57,9.14-1.57,9.14Z"/></g><path class="cls-19" d="M123,69c-7.9,3.27-23.58-.27-23.58-.27s5.64,16.4,18,13.35"/><path class="cls-9" d="M76.62,72.25s-.23-10.06-8-12.47"/><path class="cls-9" d="M68.65,151.9s6.62-8.88,5.75-7.53c-4.85,7.51,12.42,16.18,16.47,11.55a10.35,10.35,0,0,1-11.26,2.85Z"/><path class="cls-20" d="M83.86,112.82S76.5,115.53,73.07,119c0,0,20.64,29.92,6.54,39.81,0,0,13,24.81,11.61,29.86s-24.45,69.46-24.45,69.46,71.25-1.27,73.79-47.85l-3.37-26.82a223.7,223.7,0,0,0,2-27.19c.15-13.09-1.28-28.13-2.34-38.4A16.55,16.55,0,0,0,132,107.42l-6.71-.63s5.29,17.75-7,19.43C111.73,127.13,95.82,129.26,83.86,112.82Z"/><g class="cls-21"><path class="cls-22" d="M69.42,259.83s71.25-1.26,73.79-47.85Z"/></g><path class="cls-20" d="M83.86,112.82S76.5,115.53,73.07,119c0,0,20.64,29.92,6.54,39.81,0,0,13,24.81,11.61,29.86s-24.45,69.46-24.45,69.46,71.25-1.27,73.79-47.85l-3.37-26.82a223.7,223.7,0,0,0,2-27.19c.15-13.09-1.28-28.13-2.34-38.4A16.55,16.55,0,0,0,132,107.42l-6.71-.63s5.29,17.75-7,19.43C111.73,127.13,95.82,129.26,83.86,112.82Z"/><path class="cls-8" d="M69.42,206.36,80,214.3s-3.34,10.23-1.38,12.18-5.75,5.6-5.75,5.6-3,7,3.06,5.51S90.15,232,90.15,232l3.44-19.24s1.06-3.77-3.24-6.29c-3.32-1.95-12.5-8.54-12.5-8.54Z"/><path class="cls-23" d="M89.64,193.84s37.56,5,48-7c0,0,1.13-2.36-.44-3.47.22,2.21-17.65,11.84-46,5.75A3.08,3.08,0,0,0,89.64,193.84Z"/><circle class="cls-24" cx="120.84" cy="192.03" r="8.76"/><g class="cls-25"><path class="cls-26" d="M79.23,22.53s-3.76,4.55,1,7.6c1.67,1.07-4.94,6.21-4.94,6.21l-2.67,15A20.09,20.09,0,0,1,78.38,50L90.47,63.8l-7.76,4.85L58,52,41.49,20.15,62.72.88l23.21-5.4L81.85,3.56s-9.85,6-6.09,10.37C73.4,15.58,72.94,22.09,79.23,22.53Z"/></g><path class="cls-3" d="M68.5,57.31s-4.44-2-4.44-5.67,17.31-38.46,53.48-32.49c0,0,5.59,3.91,3.67,5.83,0,0,3.45,4.28.69,6.58S105.74,30.49,68.5,57.31Z"/><path class="cls-27" d="M70.45,49.19S93.59,21,118.34,24.67C118.34,24.67,95.28,25.91,70.45,49.19Z"/><path class="cls-28" d="M122.4,197.83s-8.85.92-6.79-8.68"/><path class="cls-29" d="M119.4,186.17s8.86-.87,6.73,8.71"/><path class="cls-30" d="M98.84,46.17c.52-1.78,2-3,3.45-4,.9-.69,0-2.24-.9-1.54-1.81,1.37-3.61,2.83-4.26,5.1a.89.89,0,0,0,1.71.47Z"/><path class="cls-30" d="M117.77,38.19a3.78,3.78,0,0,1,3.17,1.1c.82.8,2.08-.46,1.26-1.26a5.72,5.72,0,0,0-4.9-1.56c-1.13.15-.65,1.87.47,1.72Z"/></g></svg>