<svg xmlns="http://www.w3.org/2000/svg" viewBox="0 0 80.02 57.15"><defs><style>.cls-1{fill:#fff;}</style></defs><title>Algoritmo</title><g id="Camada_2" data-name="Camada 2"><g id="Camada_1-2" data-name="Camada 1"><g id="_Grupo_" data-name="&lt;Grupo&gt;"><path class="cls-1" d="M22.49,45.24A10.57,10.57,0,1,1,33.06,34.67,10.59,10.59,0,0,1,22.49,45.24Zm0-19.47a8.9,8.9,0,1,0,8.9,8.9A8.92,8.92,0,0,0,22.49,25.77Z"/><path class="cls-1" d="M26.45,16.4H24.78c0-.47.09-1.5.15-2.2a11.94,11.94,0,0,0-2.44-.35A11.94,11.94,0,0,0,20,14.2c.06.7.15,1.73.15,2.2H18.52c0-.55-.15-2.17-.2-2.75L18.25,13l.66-.2a15.62,15.62,0,0,1,3.58-.59,15.6,15.6,0,0,1,3.57.59l.66.2-.07.68C26.6,14.23,26.45,15.85,26.45,16.4Z"/><path class="cls-1" d="M38.21,24.55,37,23.38c.33-.35,1.11-1,1.65-1.46a12.31,12.31,0,0,0-1.47-2,12.47,12.47,0,0,0-2-1.47c-.45.54-1.11,1.32-1.45,1.66L32.6,18.94c.39-.38,1.43-1.63,1.8-2.08l.44-.53.61.33a15.7,15.7,0,0,1,2.94,2.1,15.64,15.64,0,0,1,2.1,2.95l.34.61-.54.43C39.84,23.12,38.59,24.16,38.21,24.55Z"/><path class="cls-1" d="M44.19,38.9l-.69-.06c-.58-.06-2.2-.2-2.75-.2V37c.48,0,1.5.08,2.2.14a11.84,11.84,0,0,0,.35-2.44A11.74,11.74,0,0,0,43,32.23c-.7.06-1.72.14-2.2.14V30.7c.55,0,2.17-.14,2.75-.2l.69-.07.19.67A15.49,15.49,0,0,1,45,34.67a15.49,15.49,0,0,1-.59,3.57Z"/><path class="cls-1" d="M34.84,53l-.44-.53C34,52,33,50.78,32.6,50.4l1.18-1.19c.34.34,1,1.12,1.45,1.66a11.57,11.57,0,0,0,2-1.48,11.3,11.3,0,0,0,1.47-2C38.14,47,37.36,46.3,37,46l1.18-1.17c.38.38,1.63,1.42,2.08,1.79l.54.44-.34.61a15.7,15.7,0,0,1-2.1,2.94,15.45,15.45,0,0,1-2.94,2.11Z"/><path class="cls-1" d="M22.49,57.15a15,15,0,0,1-3.58-.59l-.66-.19.07-.69c.05-.58.2-2.2.2-2.74h1.67c0,.47-.09,1.49-.15,2.19a11.29,11.29,0,0,0,2.45.35,11.29,11.29,0,0,0,2.44-.35c-.06-.7-.15-1.72-.15-2.19h1.67c0,.54.15,2.16.2,2.74l.07.69-.66.19A15,15,0,0,1,22.49,57.15Z"/><path class="cls-1" d="M10.13,53l-.6-.33a15.07,15.07,0,0,1-2.95-2.11,15.7,15.7,0,0,1-2.1-2.94L4.14,47l.54-.44c.45-.37,1.7-1.41,2.08-1.79L7.94,46c-.33.34-1.11,1-1.65,1.46a11.83,11.83,0,0,0,1.47,2,12,12,0,0,0,2,1.48c.45-.54,1.11-1.32,1.45-1.66l1.18,1.19c-.39.38-1.43,1.63-1.8,2.08Z"/><path class="cls-1" d="M.78,38.9l-.19-.66A15.49,15.49,0,0,1,0,34.67,15.49,15.49,0,0,1,.59,31.1l.19-.67.69.07c.58.06,2.2.2,2.75.2v1.67c-.48,0-1.5-.08-2.2-.14a11.74,11.74,0,0,0-.35,2.44A11.84,11.84,0,0,0,2,37.11c.7-.06,1.72-.14,2.2-.14v1.67c-.55,0-2.17.14-2.75.2Z"/><path class="cls-1" d="M6.76,24.55c-.38-.39-1.63-1.43-2.08-1.8l-.54-.43.34-.61a15.37,15.37,0,0,1,2.1-2.94,15.07,15.07,0,0,1,2.95-2.11l.6-.33.44.53c.37.45,1.41,1.7,1.8,2.08l-1.18,1.19c-.34-.34-1-1.12-1.45-1.66a12,12,0,0,0-2,1.48,11.3,11.3,0,0,0-1.47,2c.54.45,1.32,1.11,1.65,1.46Z"/><path class="cls-1" d="M30.53,21.13a7.58,7.58,0,0,1-2.21-.35,5,5,0,0,1-3.54-4.34l1.67-.08a3.31,3.31,0,0,0,2.36,2.83,4.41,4.41,0,0,0,3.88-.33l1,1.35A5.43,5.43,0,0,1,30.53,21.13Z"/><path class="cls-1" d="M40.62,32.36A6,6,0,0,1,36.43,29,5,5,0,0,1,37,23.4l1.24,1.12L37.62,24l.62.56a3.29,3.29,0,0,0-.33,3.68,4.38,4.38,0,0,0,3,2.51Z"/><path class="cls-1" d="M36.94,45.86a6,6,0,0,1-.57-5.36A4.93,4.93,0,0,1,40.71,37l.08,1.66,0-.83,0,.83A3.29,3.29,0,0,0,38,41a4.4,4.4,0,0,0,.32,3.88Z"/><path class="cls-1" d="M26.44,53.06l-1.65-.25a6,6,0,0,1,3.39-4.2,5,5,0,0,1,5.57.58l-1.12,1.23.56-.62-.56.63A3.28,3.28,0,0,0,29,50.09,4.41,4.41,0,0,0,26.44,53.06Z"/><path class="cls-1" d="M18.52,53a3.29,3.29,0,0,0-2.36-2.83,4.39,4.39,0,0,0-3.88.32l-1-1.34a6,6,0,0,1,5.36-.58,5,5,0,0,1,3.54,4.35L18.52,53l.83,0Z"/><path class="cls-1" d="M8,45.94,6.73,44.81l.62.56-.62-.55a3.3,3.3,0,0,0,.33-3.68,4.35,4.35,0,0,0-3-2.51L4.35,37a6,6,0,0,1,4.19,3.38A5,5,0,0,1,8,45.94Z"/><path class="cls-1" d="M4.26,32.37,4.18,30.7l0,.84,0-.84A3.28,3.28,0,0,0,7,28.34a4.39,4.39,0,0,0-.32-3.88l1.35-1a6,6,0,0,1,.57,5.36A5,5,0,0,1,4.26,32.37Z"/><path class="cls-1" d="M14.42,21.34a5,5,0,0,1-3.2-1.19l1.12-1.23-.56.61.56-.62a3.3,3.3,0,0,0,3.68.34,4.45,4.45,0,0,0,2.51-3l1.65.25a6,6,0,0,1-3.39,4.19A5,5,0,0,1,14.42,21.34Z"/></g><g id="_Grupo_2" data-name="&lt;Grupo&gt;"><path class="cls-1" d="M61.35,27.81a9.15,9.15,0,1,1,3.58-17.57h0a9.16,9.16,0,0,1,4.86,12A9.17,9.17,0,0,1,61.35,27.81Zm0-16.63a7.49,7.49,0,1,0,6.91,4.67,7.46,7.46,0,0,0-6.91-4.67Z"/><path class="cls-1" d="M45.64,15.81c-.43-.18-1.74-.6-2.22-.75l-.65-.21.08-.68a12.48,12.48,0,0,1,.73-3,12.72,12.72,0,0,1,1.67-2.64L45.69,8l.6.33c.44.24,1.66.89,2.09,1.07l-.66,1.53c-.35-.15-1.06-.52-1.59-.79a8.69,8.69,0,0,0-1,1.69,9,9,0,0,0-.51,1.9c.56.19,1.32.44,1.68.59Z"/><path class="cls-1" d="M52.26,5.52c-.17-.43-.8-1.66-1-2.1l-.32-.61.54-.43A14.08,14.08,0,0,1,54.11.75a13.9,13.9,0,0,1,3-.68L57.85,0l.2.66c.14.48.54,1.8.71,2.22l-1.54.64c-.15-.36-.39-1.13-.57-1.7a9.54,9.54,0,0,0-1.91.48,10,10,0,0,0-1.71,1c.28.53.63,1.25.78,1.61Z"/><path class="cls-1" d="M70.68,5.67,69.14,5c.15-.36.52-1.07.8-1.6a10.21,10.21,0,0,0-1.69-1,10,10,0,0,0-1.91-.51c-.18.57-.44,1.33-.59,1.68l-1.53-.65c.18-.42.6-1.74.75-2.21l.2-.66.69.08a13.83,13.83,0,0,1,3,.73,13.22,13.22,0,0,1,2.64,1.68l.53.43-.33.61C71.51,4,70.86,5.24,70.68,5.67Z"/><path class="cls-1" d="M77.14,16.05l-.63-1.54c.36-.15,1.12-.39,1.69-.56A9.63,9.63,0,0,0,77.72,12a9.51,9.51,0,0,0-1-1.7c-.53.27-1.25.63-1.61.77l-.62-1.55c.42-.17,1.65-.8,2.09-1l.61-.32.43.54a13.25,13.25,0,0,1,1.63,2.67A13.33,13.33,0,0,1,80,14.46l.06.68-.66.2C78.89,15.48,77.56,15.88,77.14,16.05Z"/><path class="cls-1" d="M77,29.37l-.6-.33c-.44-.24-1.66-.89-2.09-1.07L75,26.43c.35.16,1.06.52,1.59.8a9,9,0,0,0,1-1.69,9.39,9.39,0,0,0,.51-1.9c-.56-.19-1.32-.44-1.68-.59l.65-1.54c.43.18,1.74.6,2.22.75l.65.21-.08.68a12.48,12.48,0,0,1-.73,3,12.72,12.72,0,0,1-1.67,2.64Z"/><path class="cls-1" d="M64.88,37.32l-.2-.67c-.14-.47-.54-1.79-.71-2.21l1.54-.64c.15.36.39,1.13.57,1.7A10.27,10.27,0,0,0,68,35a10,10,0,0,0,1.71-1c-.28-.53-.63-1.25-.78-1.61l1.55-.62c.17.43.8,1.66,1,2.09l.32.62-.54.43a14.08,14.08,0,0,1-2.66,1.63,13.9,13.9,0,0,1-3.05.68Z"/><path class="cls-1" d="M57.56,37.26l-.69-.08a13.48,13.48,0,0,1-3-.74,12.89,12.89,0,0,1-2.64-1.67l-.53-.43.33-.61c.23-.44.88-1.66,1.06-2.08l1.54.65c-.15.36-.52,1.07-.8,1.59a9.59,9.59,0,0,0,1.69,1,10.78,10.78,0,0,0,1.91.51c.18-.57.44-1.33.59-1.69l1.53.66c-.18.42-.6,1.74-.75,2.21Z"/><path class="cls-1" d="M45.52,29.12l-.43-.54a13.25,13.25,0,0,1-1.63-2.67,13.33,13.33,0,0,1-.69-3.05l-.06-.69.66-.19c.47-.14,1.8-.54,2.22-.72l.63,1.55c-.36.15-1.12.39-1.69.56A9.63,9.63,0,0,0,45,25.29,10,10,0,0,0,46,27c.53-.27,1.25-.63,1.61-.77l.62,1.55c-.42.17-1.65.8-2.09,1Z"/><path class="cls-1" d="M49.16,11.12a4.27,4.27,0,0,1-1.4-.22l.57-1.57a2.7,2.7,0,0,0,2.88-.88,3.59,3.59,0,0,0,1-3L53.85,5a5.29,5.29,0,0,1-1.36,4.51A4.25,4.25,0,0,1,49.16,11.12Z"/><path class="cls-1" d="M61.11,5.94a4.36,4.36,0,0,1-3.88-2.39l1.51-.71A2.66,2.66,0,0,0,61.4,4.26a3.67,3.67,0,0,0,2.87-1.43l1.42.87a5.22,5.22,0,0,1-4.15,2.23Z"/><path class="cls-1" d="M74.15,11.23A5.61,5.61,0,0,1,70.5,9.78a4.31,4.31,0,0,1-1.37-4.72l1.56.57a2.68,2.68,0,0,0,.88,2.87,3.68,3.68,0,0,0,3.05,1L75,11.14A3.83,3.83,0,0,1,74.15,11.23Z"/><path class="cls-1" d="M76.33,23a5.22,5.22,0,0,1-2.23-4.15,4.35,4.35,0,0,1,2.37-4.31l.7,1.51-.35-.76.36.76a2.71,2.71,0,0,0-1.42,2.66,3.63,3.63,0,0,0,1.44,2.86Z"/><path class="cls-1" d="M68.88,32.3a5.28,5.28,0,0,1,1.36-4.51A4.35,4.35,0,0,1,75,26.42L74.4,28a2.7,2.7,0,0,0-2.88.88,3.59,3.59,0,0,0-1,3.05Z"/><path class="cls-1" d="M58.46,34.49,57,33.62a5.22,5.22,0,0,1,4.15-2.23,4.34,4.34,0,0,1,4.31,2.38l-1.52.7.76-.35-.75.36a2.66,2.66,0,0,0-2.66-1.42A3.64,3.64,0,0,0,58.46,34.49Z"/><path class="cls-1" d="M53.6,32.26,52,31.69a2.7,2.7,0,0,0-.88-2.88,3.67,3.67,0,0,0-3-1l-.39-1.62a5.24,5.24,0,0,1,4.51,1.36A4.31,4.31,0,0,1,53.6,32.26Z"/><path class="cls-1" d="M46.26,22.79l-.7-1.51.35.76-.36-.76A2.71,2.71,0,0,0,47,18.62a3.65,3.65,0,0,0-1.44-2.87l.88-1.42a5.29,5.29,0,0,1,2.22,4.15A4.35,4.35,0,0,1,46.26,22.79Z"/></g></g></g></svg>