<svg xmlns="http://www.w3.org/2000/svg" viewBox="0 0 51.3 51.3"><defs><style>.cls-1{fill:#fff;}</style></defs><title>Exemplo</title><g id="Camada_2" data-name="Camada 2"><g id="Camada_1-2" data-name="Camada 1"><g id="surface1"><path class="cls-1" d="M25.65,0A16,16,0,0,0,16.1,28.82v1.33a4.72,4.72,0,0,0-.34,6.77,4.72,4.72,0,0,0,2.06,7.73,7.94,7.94,0,0,0,15.67,0,4.72,4.72,0,0,0,2-7.73,4.72,4.72,0,0,0-.34-6.77V28.82A16,16,0,0,0,25.65,0Zm6.44,32a1.72,1.72,0,0,1,0,3.44H19.21a1.72,1.72,0,0,1,0-3.44ZM25.65,48.3A5,5,0,0,1,21,44.86h9.4A4.94,4.94,0,0,1,25.65,48.3Zm6.44-6.44H19.21a1.72,1.72,0,0,1,0-3.44H32.09a1.72,1.72,0,0,1,0,3.44Zm.78-15.07A1.5,1.5,0,0,0,32.2,28V29H30.37V23.05l2.16-2.15a1.5,1.5,0,0,0-2.12-2.13l-2.6,2.6a1.5,1.5,0,0,0-.44,1.06V29H23.94V22.43a1.47,1.47,0,0,0-.45-1.06l-2.59-2.6a1.51,1.51,0,0,0-2.13,2.13l2.16,2.15V29H19.11V28a1.53,1.53,0,0,0-.67-1.25,13,13,0,1,1,14.43,0Z"/><path class="cls-1" d="M6.23,16a1.51,1.51,0,0,0-1.51-1.5H1.5a1.51,1.51,0,0,0,0,3H4.72A1.52,1.52,0,0,0,6.23,16Z"/><path class="cls-1" d="M49.8,14.49H46.58a1.51,1.51,0,0,0,0,3H49.8a1.51,1.51,0,0,0,0-3Z"/><path class="cls-1" d="M6.78,25.16,4,26.77a1.5,1.5,0,0,0,1.5,2.6l2.79-1.61a1.5,1.5,0,0,0-1.5-2.6Z"/><path class="cls-1" d="M43.78,7a1.48,1.48,0,0,0,.75-.2l2.79-1.61a1.5,1.5,0,1,0-1.51-2.6L43,4.23A1.5,1.5,0,0,0,43.78,7Z"/><path class="cls-1" d="M47.32,26.77l-2.79-1.61a1.5,1.5,0,1,0-1.5,2.6l2.78,1.61a1.59,1.59,0,0,0,.75.2,1.52,1.52,0,0,0,1.31-.75A1.5,1.5,0,0,0,47.32,26.77Z"/><path class="cls-1" d="M8.28,4.23,5.49,2.62A1.5,1.5,0,0,0,4,5.22L6.78,6.83a1.43,1.43,0,0,0,.75.2,1.5,1.5,0,0,0,.75-2.8Z"/></g></g></g></svg>