<?xml version="1.0" encoding="UTF-8" standalone="no"?>
<!-- Created with Inkscape (http://www.inkscape.org/) -->

<svg
   xmlns:dc="http://purl.org/dc/elements/1.1/"
   xmlns:cc="http://creativecommons.org/ns#"
   xmlns:rdf="http://www.w3.org/1999/02/22-rdf-syntax-ns#"
   xmlns:svg="http://www.w3.org/2000/svg"
   xmlns="http://www.w3.org/2000/svg"
   xmlns:sodipodi="http://sodipodi.sourceforge.net/DTD/sodipodi-0.dtd"
   xmlns:inkscape="http://www.inkscape.org/namespaces/inkscape"
   version="1.1"
   id="svg10"
   xml:space="preserve"
   width="960"
   height="862.9671"
   viewBox="0 0 959.99997 862.96709"
   sodipodi:docname="letrasGregasFundo.svg"
   inkscape:version="0.92.4 (5da689c313, 2019-01-14)"><metadata
     id="metadata16"><rdf:RDF><cc:Work
         rdf:about=""><dc:format>image/svg+xml</dc:format><dc:type
           rdf:resource="http://purl.org/dc/dcmitype/StillImage" /><dc:title></dc:title></cc:Work></rdf:RDF></metadata><defs
     id="defs14"><clipPath
       clipPathUnits="userSpaceOnUse"
       id="clipPath30"><path
         d="m 239.905,173.878 h 959.624 V 658.265 H 239.905 Z"
         id="path28"
         inkscape:connector-curvature="0" /></clipPath><clipPath
       clipPathUnits="userSpaceOnUse"
       id="clipPath62"><path
         d="M 0,2775.555 H 1439.816 V 0 H 0 Z"
         id="path60"
         inkscape:connector-curvature="0" /></clipPath><clipPath
       clipPathUnits="userSpaceOnUse"
       id="clipPath152"><path
         d="m 0,2726.586 h 1439.816 v 48.5 H 0 Z"
         id="path150"
         inkscape:connector-curvature="0" /></clipPath><radialGradient
       fx="0"
       fy="0"
       cx="0"
       cy="0"
       r="1"
       gradientUnits="userSpaceOnUse"
       gradientTransform="matrix(39.619774,0,0,-39.619774,719.90833,2619.9722)"
       spreadMethod="pad"
       id="radialGradient180"><stop
         style="stop-opacity:1;stop-color:#4fbcc4"
         offset="0"
         id="stop174" /><stop
         style="stop-opacity:1;stop-color:#4fbcc4"
         offset="0.06425744"
         id="stop176" /><stop
         style="stop-opacity:1;stop-color:#322560"
         offset="1"
         id="stop178" /></radialGradient><clipPath
       clipPathUnits="userSpaceOnUse"
       id="clipPath198"><path
         d="M 0,2775.555 H 1439.816 V 0 H 0 Z"
         id="path196"
         inkscape:connector-curvature="0" /></clipPath><clipPath
       clipPathUnits="userSpaceOnUse"
       id="clipPath224"><path
         d="M 0,2775.555 H 1439.816 V 0 H 0 Z"
         id="path222"
         inkscape:connector-curvature="0" /></clipPath><clipPath
       clipPathUnits="userSpaceOnUse"
       id="clipPath252"><path
         d="M 0,2775.555 H 1439.816 V 0 H 0 Z"
         id="path250"
         inkscape:connector-curvature="0" /></clipPath><clipPath
       clipPathUnits="userSpaceOnUse"
       id="clipPath272"><path
         d="M 0,2775.555 H 1439.816 V 0 H 0 Z"
         id="path270"
         inkscape:connector-curvature="0" /></clipPath><clipPath
       clipPathUnits="userSpaceOnUse"
       id="clipPath292"><path
         d="M 0,2775.555 H 1439.816 V 0 H 0 Z"
         id="path290"
         inkscape:connector-curvature="0" /></clipPath><clipPath
       clipPathUnits="userSpaceOnUse"
       id="clipPath464"><path
         d="M 0,2775.555 H 1439.816 V 0 H 0 Z"
         id="path462"
         inkscape:connector-curvature="0" /></clipPath><clipPath
       clipPathUnits="userSpaceOnUse"
       id="clipPath496"><path
         d="M 0,2775.555 H 1439.816 V 0 H 0 Z"
         id="path494"
         inkscape:connector-curvature="0" /></clipPath><clipPath
       clipPathUnits="userSpaceOnUse"
       id="clipPath516"><path
         d="M 0,2775.555 H 1439.816 V 0 H 0 Z"
         id="path514"
         inkscape:connector-curvature="0" /></clipPath><clipPath
       clipPathUnits="userSpaceOnUse"
       id="clipPath540"><path
         d="M 0,2775.555 H 1439.816 V 0 H 0 Z"
         id="path538"
         inkscape:connector-curvature="0" /></clipPath><clipPath
       clipPathUnits="userSpaceOnUse"
       id="clipPath560"><path
         d="m 761.168,2031.908 c 0,0 2.394,-215.356 77.237,-249.886 v 0 c 69.17,-31.913 121.706,6.246 121.706,6.246 v 0 l 46.411,32.436 c 8.659,5.104 -8.66,72.157 -8.66,72.157 v 0 c 0,0 -41.229,152.903 -41.229,186.964 v 0 c 0,34.061 -92.641,52.022 -108.532,54.844 v 0 c -0.21,0.038 -0.429,0.056 -0.657,0.056 v 0 c -17.096,-10e-4 -86.276,-102.817 -86.276,-102.817"
         id="path558"
         inkscape:connector-curvature="0" /></clipPath><clipPath
       clipPathUnits="userSpaceOnUse"
       id="clipPath648"><path
         d="m 882.944,1592.031 c 5.133,-10.186 41.24,-12.335 44.231,-13.281 0,0 0.94,40.892 -4.822,63.861 -5.762,22.967 -39.409,-50.58 -39.409,-50.58"
         id="path646"
         inkscape:connector-curvature="0" /></clipPath><clipPath
       clipPathUnits="userSpaceOnUse"
       id="clipPath672"><path
         d="m 849.798,1934.519 c 0,0 -17.89,1.044 -21.952,-7.737 v 0 c 0,0 -4.5,0.549 -6.584,-3.731 v 0 c 0,0 -3.732,-1.427 -4.445,-4.445 v 0 c 0,0 -9.055,-3.567 -9.604,-9.603 v 0 c 0,0 -4.939,-6.915 -0.988,-12.512 v 0 c 0,0 -2.607,-4.911 0.768,-8.287 v 0 c 0,0 -7.573,-8.287 0,-13.445 v 0 c 0,0 -1.866,-5.378 9.22,-7.573 v 0 l 3.293,-6.802 c 0,0 3.169,1.438 12.292,-7.685 v 0 l 7.244,-7.245 c 6.365,-2.634 0.878,8.781 0.878,8.781 v 0 c 0,0 -0.602,11.442 -3.842,13.39 v 0 c -3.24,1.948 -7.066,5.775 -7.066,5.775 v 0 l 16.268,11.153 44.469,30.486 c 0,0 6.145,8.561 -7.903,13.829 v 0 c 0,0 -6.201,7.848 -17.013,5.049 v 0 c 0,0 -2.886,3.454 -7.565,3.454 v 0 c -2.148,0 -4.673,-0.728 -7.47,-2.852"
         id="path670"
         inkscape:connector-curvature="0" /></clipPath><clipPath
       clipPathUnits="userSpaceOnUse"
       id="clipPath684"><path
         d="m 761.168,2031.908 c 0,0 2.394,-215.356 77.237,-249.886 v 0 c 69.17,-31.913 121.706,6.246 121.706,6.246 v 0 l 46.411,32.436 c 8.659,5.104 -8.66,72.157 -8.66,72.157 v 0 c 0,0 -41.229,152.903 -41.229,186.964 v 0 c 0,34.061 -92.641,52.022 -108.532,54.844 v 0 c -0.21,0.038 -0.429,0.056 -0.657,0.056 v 0 c -17.096,-10e-4 -86.276,-102.817 -86.276,-102.817"
         id="path682"
         inkscape:connector-curvature="0" /></clipPath><clipPath
       clipPathUnits="userSpaceOnUse"
       id="clipPath752"><path
         d="M 0,2775.555 H 1439.816 V 0 H 0 Z"
         id="path750"
         inkscape:connector-curvature="0" /></clipPath><clipPath
       clipPathUnits="userSpaceOnUse"
       id="clipPath1106"><path
         d="M 0,2775.555 H 1439.816 V 0 H 0 Z"
         id="path1104"
         inkscape:connector-curvature="0" /></clipPath><clipPath
       clipPathUnits="userSpaceOnUse"
       id="clipPath1134"><path
         d="m 293.673,1654.952 c 0,0 0,-145.42 50.797,-164.349 v 0 c 50.798,-18.927 81.125,4.11 81.125,4.11 v 0 l 29.443,21.333 c 5.695,3.356 -5.695,47.456 -5.695,47.456 v 0 c 0,0 -27.115,100.562 -27.115,122.963 v 0 c 0,22.401 -60.929,34.213 -71.381,36.069 v 0 c -0.138,0.025 -0.281,0.037 -0.432,0.037 v 0 c -11.247,-0.01 -56.742,-67.619 -56.742,-67.619"
         id="path1132"
         inkscape:connector-curvature="0" /></clipPath><clipPath
       clipPathUnits="userSpaceOnUse"
       id="clipPath1230"><path
         d="m 385.832,1648.903 c -1.057,0.01 -1.674,0.021 -1.623,-0.032 v 0 c 5.037,-8.365 10.97,-10.421 16.112,-9.166 v 0 c 4.996,1.219 3.892,12.367 3.892,12.367 v 0 c -4.409,-3.248 -14.446,-3.208 -18.381,-3.169"
         id="path1228"
         inkscape:connector-curvature="0" /></clipPath><clipPath
       clipPathUnits="userSpaceOnUse"
       id="clipPath1246"><path
         d="m 293.673,1654.952 c 0,0 0,-145.42 50.797,-164.349 v 0 c 50.798,-18.927 81.125,4.11 81.125,4.11 v 0 l 29.443,21.333 c 5.695,3.356 -5.695,47.456 -5.695,47.456 v 0 c 0,0 -27.115,100.562 -27.115,122.963 v 0 c 0,22.401 -60.929,34.213 -71.381,36.069 v 0 c -0.138,0.025 -0.281,0.037 -0.432,0.037 v 0 c -11.247,-0.01 -56.742,-67.619 -56.742,-67.619"
         id="path1244"
         inkscape:connector-curvature="0" /></clipPath><clipPath
       clipPathUnits="userSpaceOnUse"
       id="clipPath1270"><path
         d="m 392.502,1483.884 c 0.047,-0.094 0.098,-0.187 0.153,-0.278 v 0 c 13.952,1.424 23.819,5.796 28.928,8.611 v 0 c -0.36,8.334 -1.174,18.064 -2.962,25.19 v 0 c -0.516,2.055 -1.37,2.945 -2.458,2.945 v 0 c -6.977,0 -23.661,-36.468 -23.661,-36.468"
         id="path1268"
         inkscape:connector-curvature="0" /></clipPath><clipPath
       clipPathUnits="userSpaceOnUse"
       id="clipPath1282"><path
         d="m 293.673,1654.952 c 0,0 0,-145.42 50.797,-164.349 v 0 c 50.798,-18.927 81.125,4.11 81.125,4.11 v 0 l 29.443,21.333 c 5.695,3.356 -5.695,47.456 -5.695,47.456 v 0 c 0,0 -27.115,100.562 -27.115,122.963 v 0 c 0,22.401 -60.929,34.213 -71.381,36.069 v 0 c -0.138,0.025 -0.281,0.037 -0.432,0.037 v 0 c -11.247,-0.01 -56.742,-67.619 -56.742,-67.619"
         id="path1280"
         inkscape:connector-curvature="0" /></clipPath><clipPath
       clipPathUnits="userSpaceOnUse"
       id="clipPath1302"><path
         d="m 370.534,1710.875 c 0,0 -11.857,0.692 -14.549,-5.128 v 0 c 0,0 -2.982,0.363 -4.365,-2.474 v 0 c 0,0 -2.473,-0.945 -2.946,-2.945 v 0 c 0,0 -6.001,-2.365 -6.364,-6.365 v 0 c 0,0 -3.274,-4.583 -0.655,-8.293 v 0 c 0,0 -1.728,-3.255 0.51,-5.492 v 0 c 0,0 -5.02,-5.492 0,-8.911 v 0 c 0,0 -1.238,-3.563 6.11,-5.019 v 0 l 2.182,-4.508 c 0,0 2.101,0.952 8.147,-5.095 v 0 c 3.401,-3.401 4.495,-4.494 4.801,-4.801 v 0 c 4.218,-1.743 0.582,5.82 0.582,5.82 v 0 c 0,0 -0.4,7.584 -2.546,8.875 v 0 c -2.148,1.291 -4.684,3.828 -4.684,3.828 v 0 l 10.782,7.391 29.473,20.205 c 0,0 4.073,5.674 -5.237,9.166 v 0 c 0,0 -4.111,5.201 -11.276,3.346 v 0 c 0,0 -1.914,2.289 -5.015,2.289 v 0 c -1.423,0 -3.096,-0.482 -4.95,-1.889 m -7.023,-59.136 c -0.002,10e-4 -0.029,0.029 -0.106,0.105 v 0 c 0,10e-4 0,10e-4 0,10e-4 v 0 c 0,0 0.104,-0.104 0.106,-0.106 m 0,0 c 0,0 0,0 0,0"
         id="path1300"
         inkscape:connector-curvature="0" /></clipPath><clipPath
       clipPathUnits="userSpaceOnUse"
       id="clipPath1314"><path
         d="m 293.673,1654.952 c 0,0 0,-145.42 50.797,-164.349 v 0 c 50.798,-18.927 81.125,4.11 81.125,4.11 v 0 l 29.443,21.333 c 5.695,3.356 -5.695,47.456 -5.695,47.456 v 0 c 0,0 -27.115,100.562 -27.115,122.963 v 0 c 0,22.401 -60.929,34.213 -71.381,36.069 v 0 c -0.138,0.025 -0.281,0.037 -0.432,0.037 v 0 c -11.247,-0.01 -56.742,-67.619 -56.742,-67.619"
         id="path1312"
         inkscape:connector-curvature="0" /></clipPath><clipPath
       clipPathUnits="userSpaceOnUse"
       id="clipPath1366"><path
         d="M 0,2775.555 H 1439.816 V 0 H 0 Z"
         id="path1364"
         inkscape:connector-curvature="0" /></clipPath><clipPath
       clipPathUnits="userSpaceOnUse"
       id="clipPath1418"><path
         d="m 432.03,1295.923 c 0,0 62.64,-253.195 0,-522.537 v 0 h 573.579 c 0,0 -58.955,238.339 0,522.537 v 0 z"
         id="path1416"
         inkscape:connector-curvature="0" /></clipPath><clipPath
       clipPathUnits="userSpaceOnUse"
       id="clipPath1498"><path
         d="M 0,2775.555 H 1439.816 V 0 H 0 Z"
         id="path1496"
         inkscape:connector-curvature="0" /></clipPath><clipPath
       clipPathUnits="userSpaceOnUse"
       id="clipPath1518"><path
         d="M 0,2775.555 H 1439.816 V 0 H 0 Z"
         id="path1516"
         inkscape:connector-curvature="0" /></clipPath><clipPath
       clipPathUnits="userSpaceOnUse"
       id="clipPath1546"><path
         d="m 316.125,547.548 c 0,0 0,-123.606 43.178,-139.694 v 0 c 43.179,-16.089 68.957,3.492 68.957,3.492 v 0 l 25.027,18.131 c 4.84,2.855 -4.841,40.339 -4.841,40.339 v 0 c 0,0 -23.048,85.478 -23.048,104.519 v 0 c 0,19.041 -51.79,29.083 -60.674,30.659 v 0 c -0.118,0.021 -0.239,0.032 -0.367,0.031 v 0 c -9.56,-0.006 -48.232,-57.477 -48.232,-57.477"
         id="path1544"
         inkscape:connector-curvature="0" /></clipPath><clipPath
       clipPathUnits="userSpaceOnUse"
       id="clipPath1642"><path
         d="m 394.46,542.407 c -0.898,0.01 -1.422,0.018 -1.379,-0.027 v 0 c 4.282,-7.11 9.325,-8.857 13.696,-7.791 v 0 c 4.247,1.037 3.308,10.512 3.308,10.512 v 0 c -3.747,-2.76 -12.28,-2.727 -15.625,-2.694"
         id="path1640"
         inkscape:connector-curvature="0" /></clipPath><clipPath
       clipPathUnits="userSpaceOnUse"
       id="clipPath1658"><path
         d="m 316.125,547.548 c 0,0 0,-123.606 43.178,-139.694 v 0 c 43.179,-16.089 68.957,3.492 68.957,3.492 v 0 l 25.027,18.131 c 4.84,2.855 -4.841,40.339 -4.841,40.339 v 0 c 0,0 -23.048,85.478 -23.048,104.519 v 0 c 0,19.041 -51.79,29.083 -60.674,30.659 v 0 c -0.118,0.021 -0.239,0.032 -0.367,0.031 v 0 c -9.56,-0.006 -48.232,-57.477 -48.232,-57.477"
         id="path1656"
         inkscape:connector-curvature="0" /></clipPath><clipPath
       clipPathUnits="userSpaceOnUse"
       id="clipPath1682"><path
         d="m 400.13,402.142 c 0.04,-0.08 0.084,-0.159 0.131,-0.237 v 0 c 11.856,1.211 20.246,4.927 24.589,7.319 v 0 c -0.306,7.084 -0.998,15.354 -2.518,21.412 v 0 c -0.438,1.747 -1.164,2.503 -2.089,2.503 v 0 c -5.931,0.004 -20.113,-30.997 -20.113,-30.997"
         id="path1680"
         inkscape:connector-curvature="0" /></clipPath><clipPath
       clipPathUnits="userSpaceOnUse"
       id="clipPath1694"><path
         d="m 316.125,547.548 c 0,0 0,-123.606 43.178,-139.694 v 0 c 43.179,-16.089 68.957,3.492 68.957,3.492 v 0 l 25.027,18.131 c 4.84,2.855 -4.841,40.339 -4.841,40.339 v 0 c 0,0 -23.048,85.478 -23.048,104.519 v 0 c 0,19.041 -51.79,29.083 -60.674,30.659 v 0 c -0.118,0.021 -0.239,0.032 -0.367,0.031 v 0 c -9.56,-0.006 -48.232,-57.477 -48.232,-57.477"
         id="path1692"
         inkscape:connector-curvature="0" /></clipPath><clipPath
       clipPathUnits="userSpaceOnUse"
       id="clipPath1714"><path
         d="m 381.458,595.084 c 0,0 -10.078,0.587 -12.367,-4.359 v 0 c 0,0 -2.535,0.309 -3.709,-2.103 v 0 c 0,0 -2.103,-0.803 -2.505,-2.503 v 0 c 0,0 -5.101,-2.01 -5.41,-5.411 v 0 c 0,0 -2.782,-3.895 -0.557,-7.049 v 0 c 0,0 -1.468,-2.766 0.433,-4.667 v 0 c 0,0 -4.266,-4.669 0,-7.575 v 0 c 0,0 -1.051,-3.03 5.194,-4.267 v 0 l 1.855,-3.832 c 0,0 1.786,0.811 6.926,-4.329 v 0 l 4.08,-4.08 c 3.587,-1.485 0.495,4.946 0.495,4.946 v 0 c 0,0 -0.339,6.446 -2.164,7.543 v 0 c -1.826,1.097 -3.982,3.253 -3.982,3.253 v 0 l 9.166,6.283 25.051,17.175 c 0,0 3.462,4.823 -4.452,7.79 v 0 c 0,0 -3.494,4.421 -9.584,2.844 v 0 c 0,0 -1.627,1.947 -4.263,1.947 v 0 c -1.21,0 -2.632,-0.41 -4.207,-1.606"
         id="path1712"
         inkscape:connector-curvature="0" /></clipPath><clipPath
       clipPathUnits="userSpaceOnUse"
       id="clipPath1726"><path
         d="m 316.125,547.548 c 0,0 0,-123.606 43.178,-139.694 v 0 c 43.179,-16.089 68.957,3.492 68.957,3.492 v 0 l 25.027,18.131 c 4.84,2.855 -4.841,40.339 -4.841,40.339 v 0 c 0,0 -23.048,85.478 -23.048,104.519 v 0 c 0,19.041 -51.79,29.083 -60.674,30.659 v 0 c -0.118,0.021 -0.239,0.032 -0.367,0.031 v 0 c -9.56,-0.006 -48.232,-57.477 -48.232,-57.477"
         id="path1724"
         inkscape:connector-curvature="0" /></clipPath></defs><sodipodi:namedview
     pagecolor="#ffffff"
     bordercolor="#666666"
     borderopacity="1"
     objecttolerance="10"
     gridtolerance="10"
     guidetolerance="10"
     inkscape:pageopacity="0"
     inkscape:pageshadow="2"
     inkscape:window-width="1366"
     inkscape:window-height="705"
     id="namedview12"
     showgrid="false"
     fit-margin-top="0"
     fit-margin-left="0"
     fit-margin-right="0"
     fit-margin-bottom="0"
     inkscape:zoom="0.29075318"
     inkscape:cx="1164.0514"
     inkscape:cy="370.60225"
     inkscape:window-x="-8"
     inkscape:window-y="-8"
     inkscape:window-maximized="1"
     inkscape:current-layer="g1843" /><g
     id="g18"
     inkscape:groupmode="layer"
     inkscape:label="2"
     transform="matrix(1.3333333,0,0,-1.3333333,-443.42529,2889.9529)"><g
       id="g104"
       transform="matrix(0.8139491,0,0,0.8139491,1052.569,1776.3255)" /><g
       id="g1843"><g
         transform="matrix(0.8139491,0,0,0.8139491,691.28603,2147.1152)"
         id="g92"><path
           inkscape:connector-curvature="0"
           id="path94"
           style="fill:#f9f9f9;fill-opacity:1;fill-rule:nonzero;stroke:none"
           d="m 0,0 c -50.826,-50.778 -91.477,-101.991 -122.05,-153.593 -29.749,-51.214 -53.588,-110.131 -71.467,-176.849 l -67.832,13.13 c 3.149,11.484 7.026,23.984 11.58,37.502 4.555,13.47 10.03,28.199 16.377,44.042 1.986,5.573 4.166,11.338 6.541,17.298 2.422,5.911 4.99,11.677 7.752,17.249 -0.388,14.681 -3.779,31.542 -10.127,50.583 -6.347,20.641 -14.486,36.727 -24.419,48.259 -27.376,30.96 -58.143,51.407 -92.252,61.291 l 9.496,66.089 c 39.682,-8.334 74.616,-26.794 104.801,-55.332 32.172,-30.573 50.003,-65.119 53.588,-103.639 11.095,20.641 23.015,40.215 35.709,58.675 12.695,18.46 26.407,36.193 41.087,53.297 18.267,21.804 32.366,36.097 42.299,42.832 z" /></g><g
         transform="matrix(0.8139491,0,0,0.8139491,611.43201,1792.2285)"
         id="g96"><path
           inkscape:connector-curvature="0"
           id="path98"
           style="fill:#f9f9f9;fill-opacity:1;fill-rule:nonzero;stroke:none"
           d="m 0,0 h -44.481 c -0.38,-1.095 -0.827,-8.248 -1.386,-21.413 -0.179,-3.13 -0.313,-6.236 -0.403,-9.344 -0.089,-3.129 -0.223,-6.236 -0.424,-9.343 -0.358,-9.879 0.38,-14.842 2.213,-14.842 1.095,0 2.928,0.648 5.499,1.922 2.905,1.296 4.559,2.101 4.94,2.482 0.714,-1.096 1.832,-9.523 3.285,-25.281 -18.128,-6.572 -30.757,-9.79 -37.91,-9.612 -3.464,0.202 -5.208,6.058 -5.208,17.592 0,1.832 0.045,4.068 0.135,6.728 0.089,2.66 0.223,5.811 0.424,9.477 0.537,8.784 0.805,14.462 0.805,17.032 0.179,4.024 0.38,8.874 0.559,14.552 0.179,5.678 0.447,12.361 0.827,20.05 -11.914,0.179 -21.257,0.134 -28.03,-0.134 -6.773,-0.268 -11.065,-0.603 -12.897,-0.961 -6.773,-2.011 -11.266,-4.113 -13.456,-6.326 0.178,0.179 -0.18,4.024 -1.096,11.534 -0.201,2.012 -0.38,3.934 -0.559,5.767 -0.178,1.833 -0.357,3.666 -0.536,5.499 1.095,1.095 2.369,2.1 3.844,3.017 3.644,2.213 7.869,3.577 12.629,4.135 3.666,0.358 14.731,0.581 33.239,0.671 18.485,0.089 44.481,0.044 77.987,-0.135 z" /></g><g
         transform="matrix(0.8139491,0,0,0.8139491,429.4452,1786.8028)"
         id="g100"><path
           inkscape:connector-curvature="0"
           id="path102"
           style="fill:#f9f9f9;fill-opacity:1;fill-rule:nonzero;stroke:none"
           d="m 0,0 c 0,-10.243 -3.479,-19.15 -10.41,-26.665 -6.959,-7.516 -16.951,-12.442 -29.95,-14.725 -3.423,-0.445 -7.515,-0.835 -12.303,-1.197 -4.787,-0.334 -10.27,-0.501 -16.422,-0.501 v 30.785 c 3.869,-0.445 7.46,-0.863 10.772,-1.197 3.313,-0.334 6.207,-0.39 8.74,-0.167 12.971,0.668 19.484,4.899 19.484,12.637 0,8.684 -5.595,12.999 -16.756,12.999 -10.939,0.25 -20.291,0.862 -28.057,1.892 -7.738,1.031 -13.917,2.672 -18.454,4.954 -14.14,6.374 -22.462,19.735 -24.968,40.027 -0.25,1.808 -0.417,3.591 -0.529,5.288 -0.111,1.725 -0.167,3.479 -0.167,5.316 0,20.291 6.263,42.532 18.816,66.692 12.303,23.018 26.666,41.389 43.088,55.055 -8.879,-1.586 -17.675,-1.14 -26.331,1.365 -7.07,2.059 -13.333,4.926 -18.816,8.573 3.2,4.314 6.457,8.656 9.742,12.998 3.312,4.314 6.68,8.657 10.104,12.999 1.363,-1.392 5.455,-3.674 12.302,-6.848 7.293,-1.837 14.363,-2.755 21.21,-2.755 9.352,0 18.816,1.615 28.391,4.815 2.505,0.891 4.899,1.809 7.181,2.728 2.283,0.891 4.565,1.809 6.848,2.728 V 210.01 c -12.554,-11.858 -28.503,-31.815 -47.903,-59.844 -20.737,-30.34 -31.119,-55.418 -31.119,-75.264 0,-3.869 0.362,-7.293 1.03,-10.243 2.06,-9.575 7.988,-15.866 17.786,-18.816 4.788,-1.614 13.333,-2.394 25.663,-2.394 12.999,0 23.075,-3.813 30.256,-11.468 C -3.591,24.354 0,13.694 0,0" /></g><path
         inkscape:connector-curvature="0"
         id="path106"
         style="fill:#f9f9f9;fill-opacity:1;fill-rule:nonzero;stroke:none;stroke-width:0.81394911"
         d="m 1052.569,1776.3255 c 0,-1.5009 -0.6601,-3.3681 -2.0145,-5.6016 -1.3544,-2.2693 -3.0751,-4.5027 -5.1979,-6.7728 -2.087,-2.2327 -4.5036,-4.3205 -7.1766,-6.2967 -2.7088,-1.9405 -5.4176,-3.3682 -8.0906,-4.2472 -3.6246,-1.501 -9.2994,-1.6475 -17.097,-0.4762 -9.6291,1.2079 -15.92578,3.9175 -18.89181,8.1281 -7.2124,9.2627 -14.13178,28.4833 -20.72151,57.5527 -9.88542,43.4942 -16.62166,71.0993 -20.24617,82.777 -17.68386,-48.29 -35.69656,-96.396 -53.96483,-144.3937 h -49.05915 c 0.29302,0.586 7.28566,17.5365 20.94128,50.8531 13.61981,33.2791 34.12156,83.0708 61.39699,149.3368 -4.50276,12.0082 -7.79763,19.5136 -9.88541,22.5155 -5.41764,7.4688 -13.65562,11.8258 -24.74893,13.0337 -7.79764,0.8791 -15.44957,-0.4395 -22.955,-4.0632 -2.08696,-1.2087 -4.13649,-2.38 -6.07775,-3.5879 -1.94046,-1.2087 -3.95336,-2.4166 -6.07695,-3.5887 l -14.38818,35.9888 c 10.50727,9.2994 26.54288,13.9494 48.14346,13.9494 11.09332,0 22.04012,-1.7939 32.84041,-5.4184 15.8891,-5.3827 30.27728,-23.1015 43.20116,-53.0866 2.08615,-5.0888 4.86904,-12.7407 8.31124,-22.9184 3.44056,-10.2142 7.72437,-23.1015 12.81318,-38.6984 0,-0.293 5.56497,-21.454 16.65827,-63.4465 4.2106,-16.1821 7.945,-29.3266 11.239,-39.3577 3.2957,-10.0677 6.151,-17.3167 8.5677,-21.8203 4.1739,-7.2124 11.6785,-10.653 22.4796,-10.3608" /><g
         transform="matrix(0.8139491,0,0,0.8139491,781.40868,1646.5977)"
         id="g108"><path
           inkscape:connector-curvature="0"
           id="path110"
           style="fill:#f9f9f9;fill-opacity:1;fill-rule:nonzero;stroke:none"
           d="m 0,0 c -3.067,-30.037 -21.883,-46.721 -56.521,-50.087 -7.07,-0.637 -13.728,-1.234 -20.012,-1.871 -6.285,-0.598 -12.457,-1.196 -18.592,-1.832 v 48.291 c 2.133,-0.636 5.05,-1.384 8.716,-2.318 3.703,-0.899 8.267,-1.684 13.804,-2.283 22.069,-0.935 33.104,4.115 33.104,15.15 -0.636,7.968 -9.651,13.804 -27.12,17.469 -49.339,9.8 -72.494,38.753 -69.426,86.895 1.234,22.033 9.95,39.988 26.222,53.754 12.531,10.735 25.249,16.721 38.117,17.918 -11.634,2.169 -22.22,7.668 -31.684,16.57 -13.504,12.57 -20.236,27.868 -20.236,45.973 -0.3,22.369 7.668,39.801 23.902,52.37 14.103,10.735 31.235,16.122 51.472,16.122 20.835,0 36.771,-1.571 47.806,-4.601 l -6.435,-39.539 c -10.099,3.665 -20.536,5.498 -31.271,5.498 -25.1,0 -38.117,-9.799 -39.053,-29.401 -0.636,-13.504 4.302,-24.053 14.701,-31.721 8.566,-6.134 18.217,-9.651 28.952,-10.586 6.435,-0.598 12.196,-0.972 17.245,-1.122 5.05,-0.187 9.426,-0.075 13.092,0.225 V 155.35 c -8.266,1.234 -20.835,1.234 -37.668,0 -11.335,-0.898 -21.471,-5.349 -30.337,-13.317 -10.137,-9.801 -15.187,-22.07 -15.187,-36.77 0,-19.003 9.351,-32.657 28.055,-40.923 5.798,-1.534 11.559,-3.218 17.245,-5.05 5.648,-1.833 11.409,-3.517 17.207,-5.051 C -7.668,46.272 0.486,31.87 0.486,11.035 V 5.985 C 0.486,4.152 0.3,2.133 0,0" /></g><g
         transform="matrix(0.8139491,0,0,0.8139491,961.43372,1639.78)"
         id="g112"><path
           inkscape:connector-curvature="0"
           id="path114"
           style="fill:#f9f9f9;fill-opacity:1;fill-rule:nonzero;stroke:none"
           d="m 0,0 -0.219,-21.432 c -10.57,0.454 -20.976,0.672 -31.238,0.672 -0.309,-2.233 -0.6,-5.72 -0.908,-10.479 -0.291,-4.777 -0.581,-10.879 -0.891,-18.308 -0.435,-12.949 0.236,-19.415 2.017,-19.415 1.343,0 3.868,1.181 7.592,3.578 0.29,-0.599 0.817,-2.27 1.561,-5.031 0.745,-2.761 1.708,-6.738 2.888,-11.933 -8.173,-5.666 -16.655,-8.481 -25.427,-8.481 -0.908,0 -1.798,0.036 -2.688,0.109 -0.89,0.073 -1.78,0.182 -2.669,0.326 -3.579,0.6 -5.359,7.883 -5.359,21.868 0,3.578 0.218,10.044 0.672,19.433 0.146,3.27 0.363,7.32 0.672,12.152 0.291,4.831 0.582,10.461 0.891,16.854 -12.06,-0.309 -23.884,-0.309 -35.49,0 v -67.4 h -22.757 c 0.29,4.159 0.582,11.823 0.89,22.993 0.291,11.151 0.581,25.954 0.89,44.407 h -13.167 c -3.433,-0.309 -6.557,-0.817 -9.372,-1.562 -7.138,-2.089 -11.46,-3.869 -12.95,-5.358 v 11.823 c 0.145,1.798 0.218,3.579 0.218,5.358 v 5.576 c -0.145,0 1.09,0.454 3.687,1.344 2.597,0.89 5.921,1.489 9.934,1.78 3.724,0.309 13.731,0.454 30.023,0.454 16.291,0 39.012,-0.072 68.18,-0.218 5.649,0 11.189,0.073 16.62,0.218 C -10.971,-0.526 -5.504,-0.309 0,0" /></g><g
         transform="matrix(0.8139491,0,0,0.8139491,516.86252,1559.4693)"
         id="g116"><path
           inkscape:connector-curvature="0"
           id="path118"
           style="fill:#f9f9f9;fill-opacity:1;fill-rule:nonzero;stroke:none"
           d="m 0,0 c -0.231,-1.645 -0.49,-4.413 -0.721,-8.336 -0.231,-3.893 -0.462,-8.912 -0.692,-15.057 -0.491,-13.7 -0.375,-21.978 0.346,-24.804 h -92.155 v 17.363 c -0.721,25.758 5.076,46.208 17.364,61.321 16.296,19.383 24.228,37.93 23.738,55.64 -0.462,16.297 -5.538,29.017 -15.23,38.102 -9.691,9.085 -23.046,13.643 -40.063,13.643 -16.989,0 -30.344,-4.558 -40.035,-13.643 -9.692,-9.085 -14.768,-21.805 -15.23,-38.102 -0.49,-16.787 7.298,-35.334 23.392,-55.64 13.211,-16.296 19.239,-36.746 18.056,-61.321 v -17.363 h -92.5 c 0.461,3.316 0.461,11.566 0,24.804 -0.462,12.779 -0.837,20.566 -1.068,23.393 h 28.354 c 0.49,-2.596 1.413,-4.961 2.855,-7.096 2.336,-3.288 8.739,-4.73 19.123,-4.24 h 2.134 c -0.49,3.548 -2.97,7.558 -7.441,12.057 -11.595,11.336 -21.027,24.315 -28.353,38.967 -7.327,14.653 -11.22,28.844 -11.711,42.544 -0.692,26.22 8.163,48.804 26.594,67.697 19.354,19.844 44.765,29.766 76.204,29.766 31.642,0 56.938,-9.201 75.83,-27.632 17.739,-17.508 26.594,-40.179 26.594,-68.071 0,-14.162 -3.894,-29.391 -11.681,-45.717 -7.586,-16.296 -17.163,-28.814 -28.729,-37.554 -4.73,-3.779 -6.98,-7.817 -6.72,-12.057 h 2.105 c 8.048,-0.23 14.191,1.183 18.431,4.24 1.442,1.183 2.365,3.548 2.856,7.096 z" /></g></g></g></svg>