<svg id="Camada_1" data-name="Camada 1" xmlns="http://www.w3.org/2000/svg" viewBox="0 0 60.31 98.72"><defs><style>.cls-1{fill:#fff;}</style></defs><title>Prancheta 1</title><path class="cls-1" d="M31.82,17.19h5.74V98.72H31.82Z"/><path class="cls-1" d="M22.51,17.19H28.3V98.72H22.51Z"/><path class="cls-1" d="M57.2,13.27a5.51,5.51,0,0,0-2.48-.93V4.18h2.79V0H2.61V4.18H5.4v8.17c-3,.39-5.4,3.44-5.4,7.13a4.92,4.92,0,0,0,1,3.05A3.55,3.55,0,0,0,3.82,24a3,3,0,0,0,2.73-3.22A2.94,2.94,0,0,0,6,19.08a2.12,2.12,0,0,0-1.72-1,1.84,1.84,0,0,0-.47.07,2.5,2.5,0,0,1,2.24-1.64A6.69,6.69,0,0,1,11.15,19a9.22,9.22,0,0,1,2.1,5.15l-1.1,74.56H19V17.19H14.51a10.61,10.61,0,0,0-1.14-1.44v0h0a10.17,10.17,0,0,0-5.26-3.19h44a10.09,10.09,0,0,0-6.3,4.64H41.09V98.72H48L47,25.13c0-4.73,3.26-8.59,7.27-8.59a2.14,2.14,0,0,1,1,.28,2.85,2.85,0,0,1,1.14,1.38,1.6,1.6,0,0,0-.53-.09,2.46,2.46,0,0,0-2.22,2.64,3.22,3.22,0,0,0,1.95,3.1,2.48,2.48,0,0,0,.86.16c2.09,0,3.79-2,3.79-4.49A7.47,7.47,0,0,0,57.2,13.27Z"/></svg>