<?xml version="1.0" encoding="UTF-8" standalone="no"?>
<!-- Created with Inkscape (http://www.inkscape.org/) -->

<svg
   xmlns:dc="http://purl.org/dc/elements/1.1/"
   xmlns:cc="http://creativecommons.org/ns#"
   xmlns:rdf="http://www.w3.org/1999/02/22-rdf-syntax-ns#"
   xmlns:svg="http://www.w3.org/2000/svg"
   xmlns="http://www.w3.org/2000/svg"
   xmlns:sodipodi="http://sodipodi.sourceforge.net/DTD/sodipodi-0.dtd"
   xmlns:inkscape="http://www.inkscape.org/namespaces/inkscape"
   version="1.1"
   id="svg10"
   xml:space="preserve"
   width="960"
   height="44.081852"
   viewBox="0 0 960 44.081852"
   sodipodi:docname="molduraGrega.svg"
   inkscape:version="0.92.4 (5da689c313, 2019-01-14)"><metadata
     id="metadata16"><rdf:RDF><cc:Work
         rdf:about=""><dc:format>image/svg+xml</dc:format><dc:type
           rdf:resource="http://purl.org/dc/dcmitype/StillImage" /><dc:title></dc:title></cc:Work></rdf:RDF></metadata><defs
     id="defs14"><clipPath
       clipPathUnits="userSpaceOnUse"
       id="clipPath30"><path
         d="M 180.359,97.302 H 1314.472 V 443.355 H 180.359 Z"
         id="path28"
         inkscape:connector-curvature="0" /></clipPath><clipPath
       clipPathUnits="userSpaceOnUse"
       id="clipPath54"><path
         d="M 0,1610.912 H 1439.816 V 0 H 0 Z"
         id="path52"
         inkscape:connector-curvature="0" /></clipPath><clipPath
       clipPathUnits="userSpaceOnUse"
       id="clipPath90"><path
         d="m 0,1561.944 h 1439.816 v 48.5 H 0 Z"
         id="path88"
         inkscape:connector-curvature="0" /></clipPath><clipPath
       clipPathUnits="userSpaceOnUse"
       id="clipPath102"><path
         d="M 0,1610.912 H 1439.816 V 0 H 0 Z"
         id="path100"
         inkscape:connector-curvature="0" /></clipPath><clipPath
       clipPathUnits="userSpaceOnUse"
       id="clipPath122"><path
         d="M 0,1610.912 H 1439.816 V 0 H 0 Z"
         id="path120"
         inkscape:connector-curvature="0" /></clipPath><clipPath
       clipPathUnits="userSpaceOnUse"
       id="clipPath150"><path
         d="M 0,1610.912 H 1439.816 V 0 H 0 Z"
         id="path148"
         inkscape:connector-curvature="0" /></clipPath><clipPath
       clipPathUnits="userSpaceOnUse"
       id="clipPath176"><path
         d="M 0,1610.912 H 1439.816 V 0 H 0 Z"
         id="path174"
         inkscape:connector-curvature="0" /></clipPath><clipPath
       clipPathUnits="userSpaceOnUse"
       id="clipPath204"><path
         d="M 0,1610.912 H 1439.816 V 0 H 0 Z"
         id="path202"
         inkscape:connector-curvature="0" /></clipPath><clipPath
       clipPathUnits="userSpaceOnUse"
       id="clipPath224"><path
         d="M 0,1610.912 H 1439.816 V 0 H 0 Z"
         id="path222"
         inkscape:connector-curvature="0" /></clipPath><clipPath
       clipPathUnits="userSpaceOnUse"
       id="clipPath244"><path
         d="M 0,1610.912 H 1439.816 V 0 H 0 Z"
         id="path242"
         inkscape:connector-curvature="0" /></clipPath><clipPath
       clipPathUnits="userSpaceOnUse"
       id="clipPath416"><path
         d="M 0,1610.912 H 1439.816 V 0 H 0 Z"
         id="path414"
         inkscape:connector-curvature="0" /></clipPath><clipPath
       clipPathUnits="userSpaceOnUse"
       id="clipPath448"><path
         d="M 0,1610.912 H 1439.816 V 0 H 0 Z"
         id="path446"
         inkscape:connector-curvature="0" /></clipPath><clipPath
       clipPathUnits="userSpaceOnUse"
       id="clipPath468"><path
         d="M 0,1610.912 H 1439.816 V 0 H 0 Z"
         id="path466"
         inkscape:connector-curvature="0" /></clipPath><clipPath
       clipPathUnits="userSpaceOnUse"
       id="clipPath492"><path
         d="m 234.076,398.474 h 975.832 V 996.775 H 234.076 Z"
         id="path490"
         inkscape:connector-curvature="0" /></clipPath><clipPath
       clipPathUnits="userSpaceOnUse"
       id="clipPath504"><path
         d="M 0,1610.912 H 1439.816 V 0 H 0 Z"
         id="path502"
         inkscape:connector-curvature="0" /></clipPath><clipPath
       clipPathUnits="userSpaceOnUse"
       id="clipPath632"><path
         d="M 0,1610.912 H 1439.816 V 0 H 0 Z"
         id="path630"
         inkscape:connector-curvature="0" /></clipPath><clipPath
       clipPathUnits="userSpaceOnUse"
       id="clipPath660"><path
         d="m 254.16,1255.351 c 0,-70.115 58.748,-126.953 131.216,-126.953 v 0 c 72.47,0 131.219,56.838 131.219,126.953 v 0 c 0,70.113 -58.749,126.951 -131.219,126.951 v 0 c -72.468,0 -131.216,-56.838 -131.216,-126.951"
         id="path658"
         inkscape:connector-curvature="0" /></clipPath><clipPath
       clipPathUnits="userSpaceOnUse"
       id="clipPath744"><path
         d="m 373.746,1305.46 c -1.035,0.011 -1.64,0.021 -1.59,-0.031 v 0 c 4.938,-8.2 10.752,-10.213 15.793,-8.984 v 0 c 4.896,1.195 3.815,12.121 3.815,12.121 v 0 c -4.322,-3.183 -14.162,-3.144 -18.018,-3.106"
         id="path742"
         inkscape:connector-curvature="0" /></clipPath><clipPath
       clipPathUnits="userSpaceOnUse"
       id="clipPath760"><path
         d="m 254.16,1255.351 c 0,-70.115 58.748,-126.953 131.216,-126.953 v 0 c 72.47,0 131.219,56.838 131.219,126.953 v 0 c 0,70.113 -58.749,126.951 -131.219,126.951 v 0 c -72.468,0 -131.216,-56.838 -131.216,-126.951"
         id="path758"
         inkscape:connector-curvature="0" /></clipPath><clipPath
       clipPathUnits="userSpaceOnUse"
       id="clipPath784"><path
         d="m 380.284,1143.718 c 3.335,-6.617 26.79,-8.013 28.734,-8.627 v 0 c 0,0 0.61,26.564 -3.133,41.484 v 0 c -0.506,2.015 -1.342,2.886 -2.41,2.887 v 0 c -6.838,0 -23.191,-35.744 -23.191,-35.744"
         id="path782"
         inkscape:connector-curvature="0" /></clipPath><clipPath
       clipPathUnits="userSpaceOnUse"
       id="clipPath796"><path
         d="m 254.16,1255.351 c 0,-70.115 58.748,-126.953 131.216,-126.953 v 0 c 72.47,0 131.219,56.838 131.219,126.953 v 0 c 0,70.113 -58.749,126.951 -131.219,126.951 v 0 c -72.468,0 -131.216,-56.838 -131.216,-126.951"
         id="path794"
         inkscape:connector-curvature="0" /></clipPath><clipPath
       clipPathUnits="userSpaceOnUse"
       id="clipPath820"><path
         d="m 358.753,1366.203 c 0,0 -11.622,0.677 -14.26,-5.027 v 0 c 0,0 -2.923,0.357 -4.279,-2.424 v 0 c 0,0 -2.423,-0.927 -2.886,-2.888 v 0 c 0,0 -5.883,-2.317 -6.24,-6.238 v 0 c 0,0 -3.207,-4.492 -0.641,-8.128 v 0 c 0,0 -1.693,-3.19 0.499,-5.382 v 0 c 0,0 -4.919,-5.384 0,-8.735 v 0 c 0,0 -1.212,-3.495 5.99,-4.92 v 0 l 2.138,-4.419 c 0,0 2.058,0.935 7.986,-4.992 v 0 l 4.706,-4.706 c 4.134,-1.711 0.57,5.704 0.57,5.704 v 0 c 0,0 -0.391,7.434 -2.495,8.698 v 0 c -2.104,1.265 -4.591,3.751 -4.591,3.751 v 0 l 10.569,7.245 28.886,19.805 c 0,0 3.992,5.561 -5.134,8.984 v 0 c 0,0 -4.028,5.097 -11.051,3.278 v 0 c 0,0 -1.877,2.244 -4.916,2.245 v 0 c -1.395,0 -3.035,-0.473 -4.851,-1.851"
         id="path818"
         inkscape:connector-curvature="0" /></clipPath><clipPath
       clipPathUnits="userSpaceOnUse"
       id="clipPath832"><path
         d="m 254.16,1255.351 c 0,-70.115 58.748,-126.953 131.216,-126.953 v 0 c 72.47,0 131.219,56.838 131.219,126.953 v 0 c 0,70.113 -58.749,126.951 -131.219,126.951 v 0 c -72.468,0 -131.216,-56.838 -131.216,-126.951"
         id="path830"
         inkscape:connector-curvature="0" /></clipPath></defs><sodipodi:namedview
     pagecolor="#ffffff"
     bordercolor="#666666"
     borderopacity="1"
     objecttolerance="10"
     gridtolerance="10"
     guidetolerance="10"
     inkscape:pageopacity="0"
     inkscape:pageshadow="2"
     inkscape:window-width="1366"
     inkscape:window-height="705"
     id="namedview12"
     showgrid="false"
     inkscape:snap-page="false"
     fit-margin-top="0"
     fit-margin-left="0"
     fit-margin-right="0"
     fit-margin-bottom="0"
     inkscape:zoom="2.6213446"
     inkscape:cx="620.25783"
     inkscape:cy="-35.699532"
     inkscape:window-x="-8"
     inkscape:window-y="-8"
     inkscape:window-maximized="1"
     inkscape:current-layer="g18" /><g
     id="g18"
     inkscape:groupmode="layer"
     inkscape:label="2"
     transform="matrix(1.3333333,0,0,-1.3333333,-306.544,1371.8056)"><g
       id="g506"
       transform="matrix(0.73469352,0,0,0.73469352,263.55109,1027.4581)"><path
         d="M 0,0 H -21.887 -43.773 V -20.604 -41.2 H -21.887 0 v 20.596 z m 2.018,0.95 v -43.1 c 0,-0.532 -0.455,-0.95 -1.008,-0.95 h -45.792 c -0.556,0 -1.01,0.418 -1.01,0.95 v 43.1 c 0,0.523 0.454,0.95 1.01,0.95 H 1.01 c 0.553,0 1.008,-0.427 1.008,-0.95"
         style="fill:#65c4d1;fill-opacity:1;fill-rule:nonzero;stroke:none"
         id="path508"
         inkscape:connector-curvature="0" /></g><g
       id="g510"
       transform="matrix(0.73469352,0,0,0.73469352,259.89628,1022.349)"><path
         d="M 0,0 C 1.292,0 2.34,0.988 2.34,2.204 2.34,3.421 1.292,4.409 0,4.409 -1.292,4.409 -2.342,3.421 -2.342,2.204 -2.342,0.988 -1.292,0 0,0"
         style="fill:#65c4d1;fill-opacity:1;fill-rule:nonzero;stroke:none"
         id="path512"
         inkscape:connector-curvature="0" /></g><g
       id="g514"
       transform="matrix(0.73469352,0,0,0.73469352,259.89628,1002.1793)"><path
         d="m 0,0 c -1.292,0 -2.342,-0.988 -2.342,-2.204 0,-1.226 1.05,-2.214 2.342,-2.214 1.292,0 2.34,0.988 2.34,2.214 C 2.34,-0.988 1.292,0 0,0"
         style="fill:#65c4d1;fill-opacity:1;fill-rule:nonzero;stroke:none"
         id="path516"
         inkscape:connector-curvature="0" /></g><g
       id="g518"
       transform="matrix(0.73469352,0,0,0.73469352,242.07423,1000.5873)"><path
         d="M 0,0 C 0.171,-0.085 0.343,-0.161 0.515,-0.218 1.401,-0.531 2.351,-0.541 3.238,-0.275 L -1.979,1.786 C -1.525,1.036 -0.849,0.409 0,0 M -7.104,6.954 C -6.913,6.897 -6.71,6.85 -6.509,6.812 -6.217,6.765 -5.935,6.745 -5.641,6.755 l -3.148,7.258 C -8.84,13.965 -8.9,13.927 -8.941,13.88 -9.233,13.557 -9.466,13.205 -9.647,12.825 Z M -9.85,9.566 c 0.061,-0.17 0.121,-0.332 0.203,-0.494 0.392,-0.816 1.059,-1.453 1.886,-1.851 l -2.138,4.939 c -0.243,-0.836 -0.243,-1.729 0.049,-2.594 m 4.321,15.78 H -5.742 C -6.196,25.308 -6.62,25.203 -7.034,25.061 l -2.603,-5.842 c 0.09,-0.172 0.192,-0.333 0.313,-0.494 0.161,-0.229 0.353,-0.438 0.564,-0.627 z m 1.764,-0.333 c -0.393,0.162 -0.817,0.257 -1.23,0.295 l -3.341,-7.467 c -0.009,-0.029 -0.03,-0.038 -0.05,-0.057 0.343,-0.266 0.717,-0.475 1.12,-0.627 z m 1.484,-0.997 -0.01,0.009 c -0.313,0.304 -0.666,0.541 -1.029,0.741 l -3.472,-7.771 c 0.425,-0.113 0.857,-0.189 1.292,-0.189 z m 0.384,-0.37 -3.048,-6.84 h 1.372 l 2.635,5.908 z m 8.164,6.108 c -0.153,0.38 -0.365,0.731 -0.626,1.045 L -2.342,27.73 c -0.019,-0.009 -0.051,-0.009 -0.08,-0.019 0.049,-0.399 0.16,-0.798 0.322,-1.178 z m 0.311,-1.673 c 0.01,0.428 -0.06,0.827 -0.161,1.217 l -8.295,-3.193 c 0.202,-0.361 0.454,-0.693 0.768,-0.997 l 7.688,2.964 z M 6.467,4.398 6.457,5.69 0.191,8.17 -0.798,7.268 Z M 6.267,2.67 c 0.12,0.39 0.19,0.798 0.2,1.206 l -7.658,3.03 -0.01,-0.009 C -1.525,6.603 -1.797,6.279 -2.009,5.937 Z M 5.368,1.207 C 5.397,1.197 5.397,1.179 5.429,1.159 5.701,1.482 5.923,1.834 6.095,2.214 L -2.24,5.511 C -2.422,5.14 -2.544,4.75 -2.584,4.352 Z M -2.604,3.648 C -2.563,3.221 -2.463,2.822 -2.312,2.433 L 3.904,-0.019 C 4.086,0.067 4.258,0.162 4.43,0.276 4.671,0.428 4.884,0.608 5.086,0.808 l -7.69,3.04 z m 0.636,4.731 0.969,0.912 -2.574,5.928 -1.382,0.028 z M -3.411,7.287 c 0.384,0.19 0.736,0.437 1.05,0.722 L -5.5,15.247 h -0.01 c -0.031,0 -0.06,0.01 -0.092,0.01 -0.413,0 -0.816,-0.067 -1.2,-0.161 z m 3.814,14.126 -0.959,0.931 -2.471,-5.538 h 1.381 z m -1.504,-4.599 h 1.393 l 1.474,3.269 -0.98,0.959 z m 7.65,9.444 0.019,1.292 -7.295,-2.803 0.978,-0.912 z m -0.031,-1.815 0.02,1.292 -5.902,-2.27 0.978,-0.912 z m -0.03,-1.852 0.02,1.33 -4.511,-1.73 1,-0.93 z M 6.457,20.814 6.478,22.078 3.379,20.899 4.268,20.063 Z m -0.01,-7.419 c 0,0.124 -0.1,0.171 -0.132,0.18 -0.019,0.01 -0.048,0.02 -0.089,0.02 -0.041,0 -0.101,-0.01 -0.153,-0.058 L 4.722,12.303 6.447,11.552 Z m 0.01,-3.543 -0.01,1.177 -2.109,0.922 -0.959,-0.874 z m 0,-1.833 v 1.31 L 2.985,10.716 1.967,9.795 Z M 0.585,8.531 6.457,6.204 V 7.505 L 1.573,9.434 Z m -3.612,6.678 2.411,-5.547 0.969,0.911 -1.999,4.617 z m 5.176,4.503 -1.301,-2.898 h 1.251 l 0.978,1.996 z m -1.837,-4.55 -1.413,0.019 1.847,-4.237 0.979,0.931 z m 1.887,-0.028 -1.332,0.018 1.251,-2.916 0.889,0.836 z M 4.62,15.096 2.744,15.124 3.4,13.442 4.772,14.744 c 0.091,0.095 0.061,0.199 0.051,0.228 C 4.803,15 4.752,15.096 4.62,15.096 m 0.183,1.852 c 0.02,0.029 0.051,0.133 -0.041,0.218 l -1.311,1.273 -0.798,-1.625 1.948,0.01 c 0.141,0 0.191,0.095 0.202,0.124 m 1.483,1.406 c 0.029,0.009 0.131,0.057 0.131,0.19 l 0.03,1.767 -1.786,-0.618 1.383,-1.292 c 0.101,-0.094 0.201,-0.056 0.242,-0.047 m -16.196,1.482 2.19,4.921 C -8.517,24.329 -9.183,23.692 -9.617,22.895 -9.709,22.733 -9.789,22.571 -9.85,22.41 -10.183,21.564 -10.192,20.672 -9.91,19.836 M -5.138,6.85 c 0.012,-0.019 -0.009,-0.048 0,-0.077 0.435,0.048 0.859,0.153 1.273,0.305 l -3.422,7.875 C -7.7,14.811 -8.074,14.611 -8.396,14.364 Z M 3.279,32.204 C 2.876,32.309 2.451,32.385 2.027,32.385 1.533,32.385 1.029,32.309 0.544,32.166 0.362,32.109 0.191,32.043 0.02,31.967 -0.849,31.597 -1.525,30.979 -1.948,30.19 Z M -2.23,29.573 c -0.061,-0.18 -0.112,-0.361 -0.152,-0.552 -0.051,-0.275 -0.071,-0.55 -0.071,-0.816 l 7.72,2.964 c -0.05,0.048 -0.091,0.104 -0.142,0.143 -0.343,0.275 -0.736,0.484 -1.14,0.655 z m 24.026,-4.589 c -0.193,0.058 -0.384,0.115 -0.585,0.143 -0.294,0.058 -0.586,0.066 -0.869,0.066 l 3.149,-7.266 c 0.05,0.047 0.111,0.085 0.152,0.133 0.292,0.332 0.524,0.683 0.705,1.054 z M 20.443,6.603 c 0.445,0.038 0.877,0.132 1.282,0.285 l 2.613,5.842 c -0.091,0.171 -0.192,0.333 -0.313,0.494 -0.171,0.228 -0.363,0.427 -0.565,0.627 L 20.231,6.603 Z M 8.232,23.93 l 0.011,-1.321 3.472,-1.377 1.018,0.921 z m 0,1.805 v -1.292 l 4.895,-1.928 0.989,0.902 z m 0,1.815 v -1.292 l 6.278,-2.48 0.988,0.903 z m 0.204,1.728 C 8.304,28.889 8.232,28.48 8.232,28.062 l 7.66,-3.03 0.009,0.01 c 0.325,0.294 0.586,0.627 0.809,0.969 z m 0.897,1.453 c -0.03,0.01 -0.04,0.039 -0.06,0.058 C 9,30.466 8.769,30.104 8.597,29.725 l 8.344,-3.296 c 0.182,0.38 0.293,0.769 0.344,1.159 z m 7.336,-7.162 -0.968,-0.912 2.572,-5.937 1.373,-0.019 z m 1.443,1.092 C 17.729,24.462 17.376,24.225 17.053,23.93 l 3.148,-7.239 h 0.01 c 0.454,0 0.878,0.067 1.292,0.162 z M 18.456,6.944 C 18.859,6.773 19.272,6.66 19.687,6.622 l 3.339,7.485 c 0.011,0.029 0.04,0.039 0.061,0.057 -0.343,0.257 -0.727,0.466 -1.13,0.627 z m -1.484,0.989 0.01,-0.01 c 0.313,-0.304 0.665,-0.561 1.03,-0.76 l 3.47,7.79 c -0.414,0.114 -0.847,0.181 -1.292,0.19 z m -0.373,0.37 3.047,6.84 H 18.273 L 15.64,9.234 Z M 8.426,2.195 C 8.587,1.806 8.798,1.464 9.061,1.15 l 7.971,3.069 c 0.03,0.009 0.05,-0.01 0.081,0 -0.051,0.408 -0.151,0.806 -0.323,1.196 z M 8.112,3.867 C 8.103,3.439 8.184,3.04 8.283,2.651 l 8.295,3.192 C 16.367,6.204 16.114,6.536 15.802,6.831 L 8.112,3.876 Z m 0.131,16.52 v -1.833 c 0,-0.124 0.111,-0.171 0.142,-0.191 0.03,-0.009 0.141,-0.048 0.231,0.048 l 1.353,1.226 z m 3.078,0.484 -3.078,1.226 v -1.188 l 2.119,-0.922 z m 6.399,-4.142 -2.413,5.558 -0.968,-0.912 2.007,-4.627 z m -3.422,-6.194 0.959,-0.931 2.463,5.53 h -1.374 z m -0.384,0.371 1.888,4.228 H 14.399 L 12.926,11.865 Z M 8.143,5.69 8.123,4.39 15.418,7.201 14.45,8.113 Z m 0.03,1.815 -0.021,-1.301 5.905,2.271 -0.981,0.921 z m 0.04,1.844 -0.029,-1.33 4.509,1.738 -0.989,0.931 z m 1.816,2.906 -1.382,1.292 c -0.05,0.048 -0.101,0.057 -0.152,0.057 -0.029,0 -0.069,-0.009 -0.08,-0.009 -0.03,-0.01 -0.132,-0.067 -0.142,-0.191 l -0.03,-1.766 z m -1.786,-1.13 -0.03,-1.254 3.098,1.178 -0.888,0.836 z m 7.548,5.633 -1.836,4.246 -0.989,-0.931 1.412,-3.287 z m -3.239,-4.522 1.302,2.898 h -1.261 l -0.98,-1.995 z M 9.889,15 C 9.879,14.972 9.838,14.867 9.938,14.772 l 1.303,-1.263 0.797,1.615 H 10.09 C 9.959,15.124 9.898,15.029 9.889,15 m 1.412,3.496 -1.372,-1.301 c -0.101,-0.086 -0.061,-0.19 -0.05,-0.218 0.01,-0.029 0.059,-0.124 0.19,-0.133 l 1.887,-0.03 z m 2.533,-1.71 -1.251,2.926 -0.888,-0.845 0.796,-2.053 z M 11.402,-0.266 c 0.887,-0.227 1.836,-0.227 2.744,0.048 0.182,0.057 0.364,0.123 0.526,0.19 0.867,0.371 1.554,0.998 1.977,1.776 z m 5.519,2.641 c 0.061,0.172 0.122,0.361 0.152,0.552 0.05,0.275 0.07,0.541 0.07,0.816 L 9.424,0.779 C 9.474,0.732 9.515,0.675 9.565,0.637 9.918,0.361 10.292,0.143 10.686,-0.028 Z m 7.69,9.729 -2.2,-4.913 c 0.797,0.428 1.473,1.065 1.907,1.863 0.09,0.161 0.161,0.323 0.233,0.484 0.333,0.836 0.343,1.729 0.06,2.566 M 24.54,22.372 c -0.05,0.171 -0.121,0.342 -0.202,0.504 -0.394,0.816 -1.049,1.453 -1.888,1.853 l 2.151,-4.941 c 0.242,0.836 0.232,1.73 -0.061,2.584 m -4.703,2.717 c -0.01,0.028 0,0.057 0,0.076 -0.434,-0.048 -0.867,-0.143 -1.271,-0.304 l 3.42,-7.875 c 0.405,0.152 0.778,0.351 1.111,0.598 z m -3.157,5.063 c -0.454,0.751 -1.131,1.387 -1.979,1.796 -0.171,0.085 -0.343,0.152 -0.514,0.218 -0.898,0.313 -1.847,0.323 -2.735,0.058 z m -5.883,1.815 C 10.615,31.882 10.433,31.786 10.271,31.673 10.029,31.521 9.808,31.33 9.606,31.141 l 7.699,-3.04 c 0,0.066 0,0.132 -0.01,0.199 -0.029,0.418 -0.141,0.826 -0.293,1.207 z m -3.451,2.594 c 10.887,0 19.747,-8.341 19.747,-18.591 0,-10.241 -8.86,-18.582 -19.747,-18.582 -10.878,0 -19.738,8.341 -19.738,18.582 0,10.25 8.86,18.591 19.738,18.591"
         style="fill:#65c4d1;fill-opacity:1;fill-rule:nonzero;stroke:none"
         id="path520"
         inkscape:connector-curvature="0" /></g><g
       id="g522"
       transform="matrix(0.73469352,0,0,0.73469352,235.09751,1022.349)"><path
         d="M 0,0 C 1.302,0 2.352,0.988 2.352,2.204 2.352,3.421 1.302,4.409 0,4.409 -1.292,4.409 -2.341,3.421 -2.341,2.204 -2.341,0.988 -1.292,0 0,0"
         style="fill:#65c4d1;fill-opacity:1;fill-rule:nonzero;stroke:none"
         id="path524"
         inkscape:connector-curvature="0" /></g><g
       id="g526"
       transform="matrix(0.73469352,0,0,0.73469352,235.09751,1002.1793)"><path
         d="m 0,0 c -1.292,0 -2.341,-0.988 -2.341,-2.204 0,-1.226 1.049,-2.214 2.341,-2.214 1.302,0 2.352,0.988 2.352,2.214 C 2.352,-0.988 1.302,0 0,0"
         style="fill:#65c4d1;fill-opacity:1;fill-rule:nonzero;stroke:none"
         id="path528"
         inkscape:connector-curvature="0" /></g><g
       id="g530"
       transform="matrix(0.73469352,0,0,0.73469352,948.42467,1027.4581)"><path
         d="M 0,0 H -21.887 -43.773 V -20.604 -41.2 H -21.887 0 v 20.596 z m 2.019,0.95 v -43.1 c 0,-0.532 -0.455,-0.95 -1.009,-0.95 h -45.792 c -0.555,0 -1.009,0.418 -1.009,0.95 v 43.1 c 0,0.523 0.454,0.95 1.009,0.95 H 1.01 c 0.554,0 1.009,-0.427 1.009,-0.95"
         style="fill:#65c4d1;fill-opacity:1;fill-rule:nonzero;stroke:none"
         id="path532"
         inkscape:connector-curvature="0" /></g><g
       id="g534"
       transform="matrix(0.73469352,0,0,0.73469352,944.76987,1022.349)"><path
         d="M 0,0 C 1.292,0 2.341,0.988 2.341,2.204 2.341,3.421 1.292,4.409 0,4.409 -1.292,4.409 -2.341,3.421 -2.341,2.204 -2.341,0.988 -1.292,0 0,0"
         style="fill:#65c4d1;fill-opacity:1;fill-rule:nonzero;stroke:none"
         id="path536"
         inkscape:connector-curvature="0" /></g><g
       id="g538"
       transform="matrix(0.73469352,0,0,0.73469352,944.76987,1002.1793)"><path
         d="m 0,0 c -1.292,0 -2.341,-0.988 -2.341,-2.204 0,-1.226 1.049,-2.214 2.341,-2.214 1.292,0 2.341,0.988 2.341,2.214 C 2.341,-0.988 1.292,0 0,0"
         style="fill:#65c4d1;fill-opacity:1;fill-rule:nonzero;stroke:none"
         id="path540"
         inkscape:connector-curvature="0" /></g><g
       id="g542"
       transform="matrix(0.73469352,0,0,0.73469352,926.94782,1000.588)"><path
         d="M 0,0 C 0.171,-0.086 0.343,-0.162 0.515,-0.219 1.402,-0.532 2.352,-0.542 3.238,-0.276 L -1.978,1.785 C -1.524,1.035 -0.848,0.408 0,0 M -7.104,6.953 C -6.912,6.896 -6.71,6.849 -6.508,6.811 -6.216,6.764 -5.934,6.744 -5.641,6.754 l -3.148,7.258 C -8.84,13.964 -8.9,13.926 -8.94,13.879 -9.233,13.556 -9.466,13.204 -9.647,12.824 Z M -9.85,9.565 c 0.062,-0.17 0.122,-0.332 0.203,-0.494 0.393,-0.816 1.06,-1.453 1.887,-1.851 l -2.138,4.939 c -0.244,-0.836 -0.244,-1.728 0.048,-2.594 m 4.321,15.78 H -5.742 C -6.196,25.307 -6.619,25.202 -7.034,25.06 l -2.603,-5.842 c 0.091,-0.171 0.193,-0.333 0.314,-0.494 0.161,-0.229 0.352,-0.438 0.564,-0.627 z m 1.764,-0.333 c -0.393,0.162 -0.816,0.257 -1.229,0.295 L -8.336,17.84 c -0.009,-0.028 -0.029,-0.038 -0.05,-0.057 0.344,-0.266 0.717,-0.475 1.12,-0.627 z m 1.485,-0.997 -0.011,0.009 c -0.313,0.304 -0.665,0.541 -1.029,0.742 l -3.471,-7.772 c 0.424,-0.113 0.857,-0.189 1.292,-0.189 z m 0.383,-0.37 -3.048,-6.84 h 1.373 l 2.634,5.908 z m 8.164,6.108 c -0.153,0.38 -0.364,0.731 -0.626,1.045 l -7.982,-3.069 c -0.02,-0.009 -0.051,-0.009 -0.081,-0.019 0.05,-0.398 0.161,-0.798 0.323,-1.178 z m 0.312,-1.672 c 0.01,0.427 -0.06,0.826 -0.161,1.216 l -8.295,-3.193 c 0.201,-0.36 0.454,-0.693 0.767,-0.997 l 7.689,2.964 z M 6.468,4.397 6.458,5.689 0.191,8.169 -0.797,7.267 Z M 6.267,2.669 c 0.12,0.39 0.191,0.798 0.201,1.206 L -1.19,6.906 -1.2,6.896 C -1.524,6.602 -1.797,6.279 -2.009,5.937 Z M 5.368,1.206 C 5.398,1.196 5.398,1.178 5.429,1.158 5.701,1.481 5.923,1.833 6.095,2.213 L -2.24,5.51 C -2.422,5.139 -2.543,4.749 -2.584,4.351 Z M -2.604,3.647 C -2.563,3.22 -2.463,2.821 -2.312,2.432 L 3.904,-0.02 c 0.182,0.086 0.355,0.181 0.527,0.295 0.241,0.152 0.454,0.332 0.655,0.532 l -7.69,3.04 z m 0.636,4.731 0.969,0.912 -2.573,5.928 -1.383,0.028 z M -3.41,7.286 c 0.383,0.19 0.736,0.437 1.049,0.722 l -3.138,7.238 H -5.51 c -0.03,0 -0.06,0.01 -0.091,0.01 -0.414,0 -0.817,-0.067 -1.201,-0.161 z m 3.813,14.126 -0.959,0.931 -2.471,-5.538 h 1.382 z M -1.1,16.814 h 1.392 l 1.474,3.268 -0.979,0.959 z m 7.649,9.443 0.019,1.292 -7.295,-2.803 0.979,-0.912 z m -0.03,-1.815 0.02,1.292 -5.903,-2.27 0.979,-0.912 z m -0.031,-1.852 0.02,1.33 -4.511,-1.73 1,-0.93 z M 6.458,20.813 6.479,22.077 3.38,20.898 4.269,20.062 Z M 6.447,13.395 c 0,0.123 -0.099,0.17 -0.131,0.179 -0.019,0.01 -0.049,0.02 -0.09,0.02 -0.04,0 -0.1,-0.01 -0.152,-0.058 L 4.723,12.302 6.447,11.551 Z M 6.458,9.851 6.447,11.028 4.339,11.95 3.38,11.076 Z m 0,-1.833 v 1.31 L 2.986,10.715 1.968,9.794 Z M 0.585,8.53 6.458,6.203 V 7.504 L 1.574,9.433 Z m -3.612,6.679 2.411,-5.548 0.969,0.911 -1.998,4.617 z m 5.176,4.502 -1.301,-2.897 h 1.251 l 0.979,1.995 z m -1.837,-4.55 -1.412,0.019 1.846,-4.237 0.98,0.931 z m 1.887,-0.028 -1.332,0.018 1.252,-2.916 0.888,0.836 z M 4.621,15.095 2.745,15.123 3.4,13.441 4.773,14.743 c 0.09,0.095 0.061,0.199 0.051,0.228 C 4.803,15 4.752,15.095 4.621,15.095 m 0.182,1.852 c 0.021,0.029 0.051,0.133 -0.041,0.218 l -1.311,1.273 -0.798,-1.624 1.949,0.009 c 0.14,0 0.191,0.096 0.201,0.124 m 1.483,1.406 c 0.03,0.009 0.132,0.057 0.132,0.19 L 6.447,20.31 4.662,19.692 6.044,18.4 c 0.102,-0.094 0.202,-0.056 0.242,-0.047 m -16.196,1.482 2.19,4.921 C -8.517,24.328 -9.183,23.691 -9.616,22.894 -9.708,22.732 -9.788,22.57 -9.85,22.409 -10.182,21.563 -10.192,20.671 -9.91,19.835 M -5.137,6.849 c 0.011,-0.019 -0.009,-0.047 0,-0.077 0.435,0.048 0.858,0.153 1.273,0.305 l -3.422,7.875 C -7.699,14.81 -8.073,14.61 -8.396,14.363 Z M 3.279,32.203 C 2.876,32.308 2.452,32.384 2.028,32.384 1.533,32.384 1.029,32.308 0.545,32.165 0.362,32.108 0.191,32.042 0.02,31.966 -0.848,31.596 -1.524,30.978 -1.947,30.189 Z m -5.508,-2.631 c -0.062,-0.18 -0.112,-0.361 -0.152,-0.551 -0.051,-0.276 -0.071,-0.551 -0.071,-0.817 l 7.719,2.964 c -0.049,0.048 -0.09,0.104 -0.141,0.143 -0.343,0.275 -0.736,0.484 -1.14,0.655 z m 24.025,-4.589 c -0.192,0.058 -0.383,0.115 -0.585,0.143 -0.293,0.058 -0.585,0.066 -0.868,0.066 l 3.148,-7.266 c 0.05,0.047 0.111,0.085 0.152,0.133 0.292,0.332 0.524,0.683 0.706,1.054 z M 20.443,6.602 c 0.445,0.038 0.878,0.132 1.282,0.285 l 2.613,5.842 c -0.09,0.171 -0.192,0.333 -0.312,0.494 -0.172,0.228 -0.364,0.427 -0.565,0.627 L 20.232,6.602 Z m -12.21,17.328 0.01,-1.322 3.473,-1.377 1.018,0.921 z m 0,1.804 v -1.292 l 4.895,-1.928 0.988,0.902 z m 0,1.815 v -1.292 l 6.277,-2.48 0.989,0.903 z m 0.204,1.728 C 8.304,28.888 8.233,28.479 8.233,28.062 l 7.66,-3.031 0.009,0.01 c 0.325,0.294 0.585,0.627 0.808,0.969 z m 0.897,1.454 C 9.304,30.74 9.294,30.769 9.273,30.788 9.001,30.465 8.769,30.104 8.597,29.724 l 8.344,-3.296 c 0.183,0.38 0.294,0.769 0.344,1.159 z m 7.336,-7.163 -0.969,-0.912 2.573,-5.937 1.372,-0.019 z m 1.442,1.093 c -0.383,-0.2 -0.736,-0.437 -1.059,-0.731 l 3.148,-7.24 h 0.01 c 0.454,0 0.879,0.067 1.292,0.162 z M 18.456,6.943 c 0.403,-0.171 0.817,-0.284 1.231,-0.322 l 3.339,7.485 c 0.011,0.029 0.041,0.039 0.061,0.057 -0.343,0.257 -0.727,0.466 -1.13,0.628 z m -1.483,0.989 0.009,-0.01 c 0.314,-0.304 0.666,-0.56 1.03,-0.76 l 3.471,7.79 c -0.414,0.114 -0.847,0.181 -1.292,0.19 z m -0.374,0.371 3.047,6.839 H 18.274 L 15.64,9.233 Z M 8.426,2.194 C 8.587,1.805 8.799,1.463 9.062,1.149 l 7.971,3.069 c 0.03,0.009 0.05,-0.01 0.08,0 -0.05,0.408 -0.15,0.806 -0.322,1.196 z M 8.113,3.866 C 8.104,3.438 8.184,3.039 8.284,2.65 l 8.295,3.192 C 16.367,6.203 16.115,6.535 15.802,6.83 L 8.113,3.875 Z m 0.13,16.52 v -1.833 c 0,-0.124 0.111,-0.171 0.143,-0.191 0.029,-0.009 0.14,-0.048 0.231,0.048 l 1.353,1.226 z m 3.079,0.484 -3.079,1.226 v -1.188 l 2.12,-0.921 z m 6.398,-4.141 -2.413,5.557 -0.968,-0.912 2.008,-4.627 z m -3.422,-6.194 0.96,-0.931 2.462,5.529 h -1.373 z m -0.383,0.37 1.887,4.228 H 14.399 L 12.926,11.864 Z M 8.143,5.689 8.123,4.389 15.418,7.2 14.45,8.112 Z m 0.031,1.815 -0.021,-1.301 5.904,2.271 -0.98,0.921 z m 0.04,1.844 -0.03,-1.33 4.509,1.738 -0.988,0.931 z m 1.816,2.906 -1.383,1.292 c -0.05,0.048 -0.1,0.058 -0.151,0.058 -0.03,0 -0.07,-0.01 -0.081,-0.01 C 8.386,13.584 8.284,13.527 8.274,13.403 L 8.243,11.637 Z M 8.243,11.124 8.214,9.87 l 3.098,1.178 -0.888,0.836 z m 7.549,5.633 -1.837,4.246 -0.988,-0.931 1.412,-3.287 z m -3.239,-4.522 1.301,2.898 H 12.593 L 11.614,13.138 Z M 9.889,15 C 9.879,14.971 9.838,14.866 9.938,14.771 l 1.303,-1.263 0.797,1.615 H 10.091 C 9.96,15.123 9.899,15.028 9.889,15 m 1.412,3.495 -1.372,-1.301 c -0.101,-0.086 -0.06,-0.19 -0.05,-0.218 0.01,-0.029 0.059,-0.124 0.191,-0.133 l 1.887,-0.029 z m 2.533,-1.71 -1.251,2.926 -0.888,-0.845 0.796,-2.052 z M 11.402,-0.267 c 0.888,-0.227 1.837,-0.227 2.745,0.048 0.181,0.057 0.363,0.123 0.525,0.19 0.868,0.371 1.555,0.998 1.977,1.776 z m 5.52,2.641 c 0.06,0.172 0.121,0.361 0.152,0.552 0.05,0.275 0.07,0.541 0.07,0.816 L 9.424,0.778 C 9.475,0.731 9.516,0.674 9.566,0.636 9.919,0.36 10.292,0.142 10.686,-0.029 Z m 7.689,9.729 -2.2,-4.913 c 0.797,0.428 1.473,1.065 1.907,1.863 0.091,0.161 0.161,0.323 0.233,0.484 0.333,0.836 0.343,1.73 0.06,2.566 M 24.54,22.371 c -0.05,0.171 -0.12,0.342 -0.202,0.504 -0.394,0.816 -1.048,1.453 -1.887,1.853 l 2.15,-4.941 c 0.242,0.836 0.232,1.73 -0.061,2.584 m -4.702,2.717 c -0.01,0.028 0,0.058 0,0.076 -0.434,-0.048 -0.868,-0.143 -1.272,-0.304 l 3.421,-7.875 c 0.405,0.152 0.778,0.352 1.11,0.598 z m -3.157,5.063 c -0.454,0.751 -1.131,1.387 -1.979,1.796 -0.171,0.085 -0.343,0.152 -0.514,0.218 -0.898,0.314 -1.847,0.323 -2.736,0.058 z m -5.884,1.815 C 10.615,31.881 10.434,31.785 10.271,31.672 10.03,31.52 9.809,31.329 9.606,31.14 l 7.7,-3.04 c 0,0.066 0,0.132 -0.01,0.199 -0.03,0.418 -0.142,0.827 -0.294,1.207 z M 7.346,34.56 c 10.887,0 19.747,-8.341 19.747,-18.591 0,-10.241 -8.86,-18.582 -19.747,-18.582 -10.878,0 -19.738,8.341 -19.738,18.582 0,10.25 8.86,18.591 19.738,18.591"
         style="fill:#65c4d1;fill-opacity:1;fill-rule:nonzero;stroke:none"
         id="path544"
         inkscape:connector-curvature="0" /></g><g
       id="g546"
       transform="matrix(0.73469352,0,0,0.73469352,919.97183,1022.349)"><path
         d="M 0,0 C 1.302,0 2.351,0.988 2.351,2.204 2.351,3.421 1.302,4.409 0,4.409 -1.292,4.409 -2.342,3.421 -2.342,2.204 -2.342,0.988 -1.292,0 0,0"
         style="fill:#65c4d1;fill-opacity:1;fill-rule:nonzero;stroke:none"
         id="path548"
         inkscape:connector-curvature="0" /></g><g
       id="g550"
       transform="matrix(0.73469352,0,0,0.73469352,919.97183,1002.1793)"><path
         d="m 0,0 c -1.292,0 -2.342,-0.988 -2.342,-2.204 0,-1.226 1.05,-2.214 2.342,-2.214 1.302,0 2.351,0.988 2.351,2.214 C 2.351,-0.988 1.302,0 0,0"
         style="fill:#65c4d1;fill-opacity:1;fill-rule:nonzero;stroke:none"
         id="path552"
         inkscape:connector-curvature="0" /></g><g
       id="g554"
       transform="matrix(0.73469352,0,0,0.73469352,905.98826,1009.829)"><path
         d="M 0,0 H 11.97 V 1.915 H 1.87 v 15.009 h 10.1 v 1.915 H 0 Z"
         style="fill:#65c4d1;fill-opacity:1;fill-rule:nonzero;stroke:none"
         id="path556"
         inkscape:connector-curvature="0" /></g><path
       d="m 264.9257,1022.2625 h 6.06122 v -11.0263 H 264.9257 Z M 914.78269,997.19842 H 668.11375 264.9257 v 3.77848 h 27.0639 v 13.8409 h -10.2644 v 4.1973 h 24.62913 v -4.1973 h -10.26514 v -13.8409 h 35.29394 v 13.8409 h -10.2644 v 4.1973 h 24.6284 v -4.1973 h -10.26441 v -13.8409 h 35.20358 v 13.8409 h -10.26293 v 4.1973 h 24.62839 v -4.1973 h -10.2644 v -13.8409 h 35.29247 v 13.8409 h -10.2644 v 4.1973 h 24.62913 v -4.1973 h -10.2644 v -13.8409 h 35.111 v 13.8409 h -10.2644 v 4.1973 h 24.62766 v -4.1973 h -10.26367 v -13.8409 h 35.29394 v 13.8409 h -10.26587 v 4.1973 h 24.62913 v -4.1973 h -10.26514 v -13.8409 h 35.20578 v 13.8409 h -10.26587 v 4.1973 h 24.62913 v -4.1973 h -10.26367 v -13.8409 h 35.29247 v 13.8409 h -10.2644 v 4.1973 h 24.6284 v -4.1973 h -10.26294 v -13.8409 h 35.25574 v 13.8409 h -10.26293 v 4.1973 h 24.62913 v -4.1973 h -10.26514 v -13.8409 h 35.29321 v 13.8409 h -10.26441 v 4.1973 h 24.62987 v -4.1973 h -10.26514 v -13.8409 h 17.63338 0.24833 17.40415 v 13.8409 h -10.26514 v 4.1973 h 24.62987 v -4.1973 h -10.26514 v -13.8409 h 35.29394 v 13.8409 H 714.6463 v 4.1973 h 24.62839 v -4.1973 h -10.26367 v -13.8409 h 35.20358 v 13.8409 h -10.26367 v 4.1973 h 24.62913 v -4.1973 h -10.2644 v -13.8409 h 35.29247 v 13.8409 h -10.2644 v 4.1973 h 24.62913 v -4.1973 h -10.26514 v -13.8409 h 35.11027 v 13.8409 h -10.26294 v 4.1973 h 24.62767 v -4.1973 h -10.26441 v -13.8409 h 35.29321 v 13.8409 h -10.26514 v 4.1973 h 24.62913 v -4.1973 h -10.2644 v -13.8409 h 28.47158 v 1.407 h -27.0955 v 11.0277 h 10.26293 v 7.0112 h -27.37761 v -7.0112 h 10.2644 v -11.0277 h -32.54399 v 11.0277 h 10.26514 v 7.0112 h -27.37762 v -7.0112 h 10.26441 v -11.0277 h -32.36252 v 11.0277 h 10.2644 v 7.0112 h -27.37835 v -7.0112 h 10.26587 v -11.0277 H 769.6888 v 11.0277 h 10.26514 v 7.0112 h -27.37836 v -7.0112 h 10.26514 v -11.0277 H 730.3849 v 11.0277 h 10.26514 v 7.0112 h -27.37836 v -7.0112 h 10.26514 v -11.0277 H 690.9921 v 11.0277 h 10.26514 v 7.0112 h -27.37835 v -7.0112 h 10.26513 v -11.0277 h -16.03027 -16.5071 v 11.0277 h 10.26441 v 7.0112 h -27.37762 v -7.0112 h 10.2644 v -11.0277 h -32.54545 v 11.0277 h 10.26587 v 7.0112 h -27.37909 v -7.0112 h 10.26514 v -11.0277 h -32.50872 v 11.0277 h 10.26514 v 7.0112 h -27.37909 v -7.0112 h 10.26587 v -11.0277 h -32.54545 v 11.0277 h 10.26587 v 7.0112 h -27.37909 v -7.0112 h 10.26587 v -11.0277 h -32.45582 v 11.0277 h 10.26367 v 7.0112 h -27.37762 v -7.0112 h 10.2644 v -11.0277 h -32.54398 v 11.0277 h 10.2644 v 7.0112 h -27.37762 v -7.0112 h 10.26441 v -11.0277 H 415.5555 v 11.0277 h 10.26294 v 7.0112 h -27.37762 v -7.0112 h 10.26513 v -11.0277 h -32.54471 v 11.0277 h 10.2644 v 7.0112 h -27.37762 v -7.0112 h 10.2644 v -11.0277 H 336.8566 v 11.0277 h 10.26514 v 7.0112 h -27.37836 v -7.0112 h 10.26514 v -11.0277 h -32.54398 v 11.0277 h 10.2644 v 7.0112 h -27.37762 v -7.0112 h 10.26441 v -11.0277 H 264.9257 v 1.8419 h 23.17444 v 7.0104 H 277.835 v 11.027 h 32.47712 v -11.027 h -10.26513 v -7.0104 h 27.37762 v 7.0104 h -10.26294 v 11.027 h 32.47492 v -11.027 h -10.26513 v -7.0104 h 27.37909 v 7.0104 h -10.26441 v 11.027 h 32.52342 v -11.027 h -10.26441 v -7.0104 h 27.37762 v 7.0104 h -10.2644 v 11.027 h 32.47566 v -11.027 h -10.26514 v -7.0104 h 27.37835 v 7.0104 H 435.1821 v 11.027 h 32.43158 v -11.027 h -10.26514 v -7.0104 h 27.37836 v 7.0104 h -10.26588 v 11.027 h 32.52342 v -11.027 h -10.26367 v -7.0104 h 27.37835 v 7.0104 h -10.26514 v 11.027 h 32.47493 v -11.027 h -10.26294 v -7.0104 h 27.37762 v 7.0104 h -10.2644 v 11.027 h 32.47639 v -11.027 h -10.26514 v -7.0104 h 27.37836 v 7.0104 h -10.26514 v 11.027 h 32.57631 v -11.027 H 614.7963 v -7.0104 h 27.37836 v 7.0104 h -10.26441 v 11.027 h 32.47566 v -11.027 h -10.2644 v -7.0104 h 13.74391 0.24833 13.51468 v 7.0104 H 671.3633 v 11.027 h 32.47639 v -11.027 h -10.2644 v -7.0104 h 27.37761 v 7.0104 h -10.26366 v 11.027 h 32.47565 v -11.027 h -10.26513 v -7.0104 h 27.37908 v 7.0104 h -10.26513 v 11.027 h 32.52414 v -11.027 h -10.26513 v -7.0104 h 27.37762 v 7.0104 h -10.26441 v 11.027 h 32.4764 v -11.027 h -10.26514 v -7.0104 h 27.37835 v 7.0104 H 828.7104 v 11.027 h 32.43084 v -11.027 h -10.2644 v -7.0104 h 27.37762 v 7.0104 h -10.26587 v 11.027 h 32.52415 v -11.027 h -10.26367 v -7.0104 h 24.53362 v 1.4062 h -23.15975 v 4.1973 h 10.26441 v 13.8409 h -35.2719 v -13.8409 h 10.2644 v -4.1973 h -24.62913 v 4.1973 h 10.2644 v 13.8409 h -35.17859 v -13.8409 h 10.26513 v -4.1973 h -24.62913 v 4.1973 h 10.26441 v 13.8409 h -35.22562 v -13.8409 h 10.2644 v -4.1973 h -24.62913 v 4.1973 h 10.26514 v 13.8409 H 748.6391 v -13.8409 h 10.26513 v -4.1973 h -24.62986 v 4.1973 h 10.26514 v 13.8409 h -35.22562 v -13.8409 h 10.26514 v -4.1973 H 694.9499 v 4.1973 h 10.2644 v 13.8409 h -35.22488 v -13.8409 h 10.26514 v -4.1973 h -12.14081 -12.61763 v 4.1973 h 10.2644 v 13.8409 h -35.22488 v -13.8409 h 10.26367 v -4.1973 h -24.62913 v 4.1973 h 10.2644 v 13.8409 h -35.3248 v -13.8409 h 10.26514 v -4.1973 h -24.62986 v 4.1973 h 10.26513 v 13.8409 h -35.22635 v -13.8409 h 10.26588 v -4.1973 h -24.62987 v 4.1973 h 10.26514 v 13.8409 h -35.22488 v -13.8409 h 10.26367 v -4.1973 h -24.62913 v 4.1973 h 10.26513 v 13.8409 h -35.27263 v -13.8409 h 10.26514 v -4.1973 h -24.62987 v 4.1973 h 10.26514 v 13.8409 h -35.1786 v -13.8409 h 10.26441 v -4.1973 h -24.6284 v 4.1973 h 10.26367 v 13.8409 h -35.22562 v -13.8409 h 10.26514 v -4.1973 h -24.62987 v 4.1973 h 10.26514 v 13.8409 H 355.1108 v -13.8409 h 10.26513 v -4.1973 h -24.62986 v 4.1973 h 10.26514 v 13.8409 h -35.22488 v -13.8409 h 10.2644 v -4.1973 h -24.6284 v 4.1973 h 10.26441 v 13.8409 h -35.22489 v -13.8409 h 10.26441 v -4.1973 H 264.9257 v 4.1973 h 7.4351 v 13.8409 h -7.4351 v 3.777 h 403.18805 246.66894 l 1.1711,1.407 H 668.11375 667.86542 263.55109 v -33.06125 h 404.56266 247.86061 z"
       style="fill:#65c4d1;fill-opacity:1;fill-rule:nonzero;stroke:none;stroke-width:0.73469353"
       id="path558"
       inkscape:connector-curvature="0" /><g
       id="g560"
       transform="translate(275.7,393.5901)"><path
         d="M 0,0 H -21.887 -43.773 V -20.605 -41.2 H -21.887 0 v 20.595 z M 2.018,0.949 V -42.15 c 0,-0.533 -0.455,-0.951 -1.008,-0.951 h -45.792 c -0.556,0 -1.01,0.418 -1.01,0.951 V 0.949 c 0,0.523 0.454,0.95 1.01,0.95 H 1.01 c 0.553,0 1.008,-0.427 1.008,-0.95"
         style="fill:#65c4d1;fill-opacity:1;fill-rule:nonzero;stroke:none"
         id="path562"
         inkscape:connector-curvature="0" /></g><g
       id="g564"
       transform="translate(270.7254,386.636)"><path
         d="M 0,0 C 1.292,0 2.34,0.987 2.34,2.204 2.34,3.421 1.292,4.408 0,4.408 -1.292,4.408 -2.342,3.421 -2.342,2.204 -2.342,0.987 -1.292,0 0,0"
         style="fill:#65c4d1;fill-opacity:1;fill-rule:nonzero;stroke:none"
         id="path566"
         inkscape:connector-curvature="0" /></g><g
       id="g568"
       transform="translate(270.7254,359.1819)"><path
         d="m 0,0 c -1.292,0 -2.342,-0.987 -2.342,-2.204 0,-1.225 1.05,-2.213 2.342,-2.213 1.292,0 2.34,0.988 2.34,2.213 C 2.34,-0.987 1.292,0 0,0"
         style="fill:#65c4d1;fill-opacity:1;fill-rule:nonzero;stroke:none"
         id="path570"
         inkscape:connector-curvature="0" /></g><g
       id="g572"
       transform="translate(246.4676,357.0159)"><path
         d="M 0,0 C 0.171,-0.085 0.343,-0.161 0.515,-0.219 1.401,-0.532 2.351,-0.541 3.238,-0.275 L -1.979,1.786 C -1.525,1.035 -0.849,0.408 0,0 M -7.104,6.954 C -6.913,6.896 -6.71,6.85 -6.509,6.812 -6.217,6.764 -5.935,6.745 -5.641,6.755 l -3.148,7.257 C -8.84,13.965 -8.9,13.927 -8.941,13.879 -9.233,13.557 -9.466,13.205 -9.647,12.825 Z M -9.85,9.566 c 0.061,-0.17 0.121,-0.333 0.203,-0.494 0.392,-0.816 1.059,-1.453 1.886,-1.852 l -2.138,4.94 c -0.243,-0.836 -0.243,-1.729 0.049,-2.594 m 4.321,15.78 H -5.742 C -6.196,25.308 -6.62,25.203 -7.034,25.061 l -2.603,-5.843 c 0.09,-0.171 0.192,-0.332 0.313,-0.494 0.161,-0.228 0.353,-0.437 0.564,-0.627 z m 1.764,-0.333 c -0.393,0.161 -0.817,0.257 -1.23,0.295 l -3.341,-7.467 c -0.009,-0.029 -0.03,-0.038 -0.05,-0.058 0.343,-0.265 0.717,-0.474 1.12,-0.627 z m 1.484,-0.997 -0.01,0.008 c -0.313,0.305 -0.666,0.542 -1.029,0.742 l -3.472,-7.771 c 0.425,-0.114 0.857,-0.19 1.292,-0.19 z m 0.384,-0.371 -3.048,-6.84 h 1.372 l 2.635,5.909 z m 8.164,6.108 c -0.153,0.38 -0.365,0.731 -0.626,1.045 l -7.983,-3.069 c -0.019,-0.009 -0.051,-0.009 -0.08,-0.018 0.049,-0.399 0.16,-0.798 0.322,-1.178 z m 0.311,-1.672 c 0.01,0.428 -0.06,0.826 -0.161,1.216 l -8.295,-3.192 c 0.202,-0.361 0.454,-0.693 0.768,-0.998 l 7.688,2.964 z M 6.467,4.398 6.457,5.69 0.191,8.17 -0.798,7.268 Z M 6.267,2.67 c 0.12,0.389 0.19,0.798 0.2,1.206 l -7.658,3.03 -0.01,-0.01 C -1.525,6.603 -1.797,6.279 -2.009,5.937 Z M 5.368,1.207 C 5.397,1.197 5.397,1.178 5.429,1.159 5.701,1.482 5.923,1.834 6.095,2.214 L -2.24,5.51 C -2.422,5.14 -2.544,4.75 -2.584,4.351 Z M -2.604,3.648 C -2.563,3.221 -2.463,2.821 -2.312,2.432 L 3.904,-0.019 C 4.086,0.066 4.258,0.162 4.43,0.275 4.671,0.428 4.884,0.608 5.086,0.808 l -7.69,3.04 z m 0.636,4.731 0.969,0.912 -2.574,5.928 -1.382,0.028 z M -3.411,7.286 c 0.384,0.191 0.736,0.438 1.05,0.723 L -5.5,15.247 h -0.01 c -0.031,0 -0.06,0.01 -0.092,0.01 -0.413,0 -0.816,-0.067 -1.2,-0.162 z m 3.814,14.126 -0.959,0.932 -2.471,-5.539 h 1.381 z m -1.504,-4.598 h 1.393 l 1.474,3.268 -0.98,0.96 z m 7.65,9.443 0.019,1.292 -7.295,-2.802 0.978,-0.912 z m -0.031,-1.815 0.02,1.292 -5.902,-2.27 0.978,-0.911 z m -0.03,-1.851 0.02,1.329 -4.511,-1.729 1,-0.93 z M 6.457,20.813 6.478,22.077 3.379,20.899 4.268,20.063 Z m -0.01,-7.418 c 0,0.124 -0.1,0.17 -0.132,0.18 -0.019,0.01 -0.048,0.019 -0.089,0.019 -0.041,0 -0.101,-0.009 -0.153,-0.057 l -1.351,-1.235 1.725,-0.75 z m 0.01,-3.543 -0.01,1.177 -2.109,0.922 -0.959,-0.874 z m 0,-1.834 V 9.329 L 2.985,10.716 1.967,9.794 Z M 0.585,8.531 6.457,6.203 V 7.505 L 1.573,9.434 Z m -3.612,6.678 2.411,-5.548 0.969,0.912 -1.999,4.617 z m 5.176,4.503 -1.301,-2.898 h 1.251 l 0.978,1.996 z m -1.837,-4.55 -1.413,0.019 1.847,-4.238 0.979,0.932 z m 1.887,-0.029 -1.332,0.019 1.251,-2.917 0.889,0.836 z M 4.62,15.095 2.744,15.124 3.4,13.442 4.772,14.743 c 0.091,0.096 0.061,0.2 0.051,0.229 C 4.803,15 4.752,15.095 4.62,15.095 m 0.183,1.852 c 0.02,0.03 0.051,0.134 -0.041,0.219 l -1.311,1.273 -0.798,-1.625 1.948,0.01 c 0.141,0 0.191,0.095 0.202,0.123 m 1.483,1.407 c 0.029,0.009 0.131,0.056 0.131,0.19 l 0.03,1.767 -1.786,-0.618 1.383,-1.292 c 0.101,-0.095 0.201,-0.057 0.242,-0.047 m -16.196,1.482 2.19,4.92 C -8.517,24.329 -9.183,23.692 -9.617,22.895 -9.709,22.732 -9.789,22.571 -9.85,22.41 -10.183,21.564 -10.192,20.672 -9.91,19.836 M -5.138,6.85 c 0.012,-0.02 -0.009,-0.048 0,-0.077 0.435,0.048 0.859,0.153 1.273,0.304 l -3.422,7.876 C -7.7,14.811 -8.074,14.61 -8.396,14.363 Z M 3.279,32.204 C 2.876,32.309 2.451,32.385 2.027,32.385 1.533,32.385 1.029,32.309 0.544,32.166 0.362,32.109 0.191,32.043 0.02,31.967 -0.849,31.596 -1.525,30.979 -1.948,30.19 Z M -2.23,29.572 c -0.061,-0.179 -0.112,-0.36 -0.152,-0.551 -0.051,-0.275 -0.071,-0.55 -0.071,-0.816 l 7.72,2.964 c -0.05,0.047 -0.091,0.104 -0.142,0.143 -0.343,0.275 -0.736,0.484 -1.14,0.655 z m 24.026,-4.588 c -0.193,0.057 -0.384,0.115 -0.585,0.143 -0.294,0.057 -0.586,0.066 -0.869,0.066 l 3.149,-7.267 c 0.05,0.048 0.111,0.086 0.152,0.133 0.292,0.333 0.524,0.684 0.705,1.054 z M 20.443,6.603 c 0.445,0.038 0.877,0.132 1.282,0.285 l 2.613,5.841 c -0.091,0.171 -0.192,0.334 -0.313,0.495 -0.171,0.228 -0.363,0.427 -0.565,0.627 L 20.231,6.603 Z M 8.232,23.93 l 0.011,-1.321 3.472,-1.378 1.018,0.922 z m 0,1.804 v -1.292 l 4.895,-1.927 0.989,0.902 z m 0,1.815 v -1.292 l 6.278,-2.479 0.988,0.903 z m 0.204,1.729 C 8.304,28.889 8.232,28.48 8.232,28.062 l 7.66,-3.03 0.009,0.009 c 0.325,0.295 0.586,0.627 0.809,0.969 z m 0.897,1.453 c -0.03,0.01 -0.04,0.039 -0.06,0.058 C 9,30.466 8.769,30.104 8.597,29.725 l 8.344,-3.296 c 0.182,0.38 0.293,0.768 0.344,1.158 z m 7.336,-7.163 -0.968,-0.911 2.572,-5.937 1.373,-0.02 z m 1.443,1.093 C 17.729,24.462 17.376,24.225 17.053,23.93 l 3.148,-7.239 h 0.01 c 0.454,0 0.878,0.067 1.292,0.162 z M 18.456,6.944 c 0.403,-0.171 0.816,-0.285 1.231,-0.323 l 3.339,7.486 c 0.011,0.029 0.04,0.039 0.061,0.057 -0.343,0.257 -0.727,0.466 -1.13,0.627 z m -1.484,0.989 0.01,-0.01 c 0.313,-0.304 0.665,-0.561 1.03,-0.76 l 3.47,7.79 c -0.414,0.113 -0.847,0.18 -1.292,0.19 z m -0.373,0.37 3.047,6.84 H 18.273 L 15.64,9.233 Z M 8.426,2.194 C 8.587,1.805 8.798,1.463 9.061,1.149 l 7.971,3.069 c 0.03,0.01 0.05,-0.009 0.081,0 -0.051,0.409 -0.151,0.807 -0.323,1.197 z M 8.112,3.866 C 8.103,3.439 8.184,3.04 8.283,2.65 l 8.295,3.193 C 16.367,6.203 16.114,6.536 15.802,6.83 L 8.112,3.876 Z m 0.131,16.521 v -1.834 c 0,-0.123 0.111,-0.171 0.142,-0.19 0.03,-0.009 0.141,-0.048 0.231,0.047 l 1.353,1.226 z m 3.078,0.484 -3.078,1.226 v -1.188 l 2.119,-0.922 z m 6.399,-4.142 -2.413,5.557 -0.968,-0.912 2.007,-4.626 z m -3.422,-6.194 0.959,-0.931 2.463,5.529 h -1.374 z m -0.384,0.371 1.888,4.227 H 14.399 L 12.926,11.865 Z M 8.143,5.69 8.123,4.389 15.418,7.201 14.45,8.113 Z m 0.03,1.815 -0.021,-1.302 5.905,2.271 -0.981,0.922 z m 0.04,1.843 -0.029,-1.33 4.509,1.738 -0.989,0.932 z m 1.816,2.907 -1.382,1.292 c -0.05,0.047 -0.101,0.057 -0.152,0.057 -0.029,0 -0.069,-0.01 -0.08,-0.01 -0.03,-0.009 -0.132,-0.067 -0.142,-0.19 L 8.243,11.638 Z M 8.243,11.124 8.213,9.87 l 3.098,1.178 -0.888,0.836 z m 7.548,5.634 -1.836,4.246 -0.989,-0.931 1.412,-3.287 z m -3.239,-4.523 1.302,2.898 h -1.261 l -0.98,-1.994 z M 9.889,15 C 9.879,14.972 9.838,14.867 9.938,14.772 l 1.303,-1.263 0.797,1.615 H 10.09 C 9.959,15.124 9.898,15.028 9.889,15 m 1.412,3.496 -1.372,-1.302 c -0.101,-0.085 -0.061,-0.189 -0.05,-0.217 0.01,-0.03 0.059,-0.124 0.19,-0.134 l 1.887,-0.029 z m 2.533,-1.71 -1.251,2.926 -0.888,-0.846 0.796,-2.052 z M 11.402,-0.266 c 0.887,-0.228 1.836,-0.228 2.744,0.047 0.182,0.058 0.364,0.124 0.526,0.191 0.867,0.37 1.554,0.997 1.977,1.776 z m 5.519,2.641 c 0.061,0.171 0.122,0.361 0.152,0.551 0.05,0.275 0.07,0.542 0.07,0.817 L 9.424,0.779 C 9.474,0.731 9.515,0.675 9.565,0.637 9.918,0.361 10.292,0.143 10.686,-0.028 Z m 7.69,9.728 -2.2,-4.912 c 0.797,0.428 1.473,1.065 1.907,1.863 0.09,0.161 0.161,0.322 0.233,0.484 0.333,0.836 0.343,1.729 0.06,2.565 M 24.54,22.372 c -0.05,0.171 -0.121,0.342 -0.202,0.503 -0.394,0.817 -1.049,1.454 -1.888,1.853 l 2.151,-4.94 c 0.242,0.836 0.232,1.729 -0.061,2.584 m -4.703,2.717 c -0.01,0.028 0,0.057 0,0.076 -0.434,-0.048 -0.867,-0.143 -1.271,-0.305 l 3.42,-7.875 c 0.405,0.153 0.778,0.352 1.111,0.599 z m -3.157,5.063 c -0.454,0.75 -1.131,1.387 -1.979,1.795 -0.171,0.086 -0.343,0.153 -0.514,0.219 -0.898,0.313 -1.847,0.323 -2.735,0.057 z m -5.883,1.815 C 10.615,31.881 10.433,31.786 10.271,31.672 10.029,31.521 9.808,31.33 9.606,31.14 l 7.699,-3.039 c 0,0.066 0,0.132 -0.01,0.199 -0.029,0.418 -0.141,0.826 -0.293,1.206 z M 7.346,34.56 c 10.887,0 19.747,-8.34 19.747,-18.591 0,-10.24 -8.86,-18.581 -19.747,-18.581 -10.878,0 -19.738,8.341 -19.738,18.581 0,10.251 8.86,18.591 19.738,18.591"
         style="fill:#65c4d1;fill-opacity:1;fill-rule:nonzero;stroke:none"
         id="path574"
         inkscape:connector-curvature="0" /></g><g
       id="g576"
       transform="translate(236.9715,386.636)"><path
         d="M 0,0 C 1.302,0 2.352,0.987 2.352,2.204 2.352,3.421 1.302,4.408 0,4.408 -1.292,4.408 -2.341,3.421 -2.341,2.204 -2.341,0.987 -1.292,0 0,0"
         style="fill:#65c4d1;fill-opacity:1;fill-rule:nonzero;stroke:none"
         id="path578"
         inkscape:connector-curvature="0" /></g><g
       id="g580"
       transform="translate(236.9715,359.1819)"><path
         d="m 0,0 c -1.292,0 -2.341,-0.987 -2.341,-2.204 0,-1.225 1.049,-2.213 2.341,-2.213 1.302,0 2.352,0.988 2.352,2.213 C 2.352,-0.987 1.302,0 0,0"
         style="fill:#65c4d1;fill-opacity:1;fill-rule:nonzero;stroke:none"
         id="path582"
         inkscape:connector-curvature="0" /></g><g
       id="g584"
       transform="translate(1207.8895,393.5901)"><path
         d="M 0,0 H -21.887 -43.773 V -20.605 -41.2 H -21.887 0 v 20.595 z m 2.019,0.95 v -43.1 c 0,-0.533 -0.455,-0.951 -1.009,-0.951 h -45.792 c -0.555,0 -1.009,0.418 -1.009,0.951 v 43.1 c 0,0.523 0.454,0.949 1.009,0.949 H 1.01 c 0.554,0 1.009,-0.426 1.009,-0.949"
         style="fill:#65c4d1;fill-opacity:1;fill-rule:nonzero;stroke:none"
         id="path586"
         inkscape:connector-curvature="0" /></g><g
       id="g588"
       transform="translate(1202.9149,386.636)"><path
         d="M 0,0 C 1.292,0 2.341,0.987 2.341,2.204 2.341,3.421 1.292,4.408 0,4.408 -1.292,4.408 -2.341,3.421 -2.341,2.204 -2.341,0.987 -1.292,0 0,0"
         style="fill:#65c4d1;fill-opacity:1;fill-rule:nonzero;stroke:none"
         id="path590"
         inkscape:connector-curvature="0" /></g><g
       id="g592"
       transform="translate(1202.9149,359.1819)"><path
         d="m 0,0 c -1.292,0 -2.341,-0.987 -2.341,-2.203 0,-1.226 1.049,-2.214 2.341,-2.214 1.292,0 2.341,0.988 2.341,2.214 C 2.341,-0.987 1.292,0 0,0"
         style="fill:#65c4d1;fill-opacity:1;fill-rule:nonzero;stroke:none"
         id="path594"
         inkscape:connector-curvature="0" /></g><g
       id="g596"
       transform="translate(1178.6571,357.0159)"><path
         d="M 0,0 C 0.171,-0.085 0.343,-0.161 0.515,-0.218 1.402,-0.532 2.352,-0.541 3.238,-0.275 L -1.978,1.786 C -1.524,1.036 -0.848,0.409 0,0 M -7.104,6.954 C -6.912,6.897 -6.71,6.85 -6.508,6.812 -6.216,6.764 -5.934,6.745 -5.641,6.755 l -3.148,7.258 C -8.84,13.965 -8.9,13.927 -8.94,13.879 -9.233,13.557 -9.466,13.205 -9.647,12.825 Z M -9.85,9.566 c 0.062,-0.17 0.122,-0.332 0.203,-0.494 0.393,-0.816 1.06,-1.453 1.887,-1.852 l -2.138,4.94 c -0.244,-0.836 -0.244,-1.729 0.048,-2.594 m 4.321,15.78 h -0.213 c -0.454,-0.038 -0.877,-0.143 -1.292,-0.285 l -2.603,-5.843 c 0.091,-0.171 0.193,-0.332 0.314,-0.494 0.161,-0.228 0.352,-0.437 0.564,-0.627 z m 1.764,-0.333 c -0.393,0.162 -0.816,0.257 -1.229,0.295 l -3.342,-7.467 c -0.009,-0.029 -0.029,-0.038 -0.05,-0.058 0.344,-0.265 0.717,-0.474 1.12,-0.627 z m 1.485,-0.997 -0.011,0.008 c -0.313,0.305 -0.665,0.542 -1.029,0.742 l -3.471,-7.771 c 0.424,-0.114 0.857,-0.19 1.292,-0.19 z m 0.383,-0.371 -3.048,-6.84 h 1.373 l 2.634,5.909 z m 8.164,6.108 c -0.153,0.38 -0.364,0.731 -0.626,1.045 l -7.982,-3.069 c -0.02,-0.008 -0.051,-0.008 -0.081,-0.018 0.05,-0.399 0.161,-0.798 0.323,-1.178 z m 0.312,-1.672 c 0.01,0.428 -0.06,0.827 -0.161,1.216 l -8.295,-3.192 c 0.201,-0.361 0.454,-0.693 0.767,-0.998 l 7.689,2.964 z M 6.468,4.398 6.458,5.69 0.191,8.17 -0.797,7.268 Z M 6.267,2.67 c 0.12,0.39 0.191,0.798 0.201,1.206 L -1.19,6.906 -1.2,6.897 C -1.524,6.603 -1.797,6.279 -2.009,5.937 Z M 5.368,1.207 C 5.398,1.197 5.398,1.178 5.429,1.159 5.701,1.482 5.923,1.834 6.095,2.214 L -2.24,5.51 C -2.422,5.14 -2.543,4.75 -2.584,4.352 Z m -7.972,2.441 c 0.041,-0.427 0.141,-0.827 0.292,-1.215 l 6.216,-2.452 c 0.182,0.085 0.355,0.181 0.527,0.294 0.241,0.153 0.454,0.333 0.655,0.533 l -7.69,3.04 z m 0.636,4.731 0.969,0.912 -2.573,5.928 -1.383,0.028 z M -3.41,7.286 c 0.383,0.191 0.736,0.438 1.049,0.723 l -3.138,7.238 H -5.51 c -0.03,0 -0.06,0.01 -0.091,0.01 -0.414,0 -0.817,-0.067 -1.201,-0.161 z m 3.813,14.126 -0.959,0.932 -2.471,-5.539 h 1.382 z M -1.1,16.814 h 1.392 l 1.474,3.269 -0.979,0.959 z m 7.649,9.444 0.019,1.291 -7.295,-2.802 0.979,-0.912 z m -0.03,-1.815 0.02,1.291 -5.903,-2.269 0.979,-0.912 z m -0.031,-1.852 0.02,1.329 -4.511,-1.729 1,-0.93 z M 6.458,20.814 6.479,22.077 3.38,20.899 4.269,20.063 Z M 6.447,13.395 c 0,0.124 -0.099,0.17 -0.131,0.18 -0.019,0.01 -0.049,0.02 -0.09,0.02 -0.04,0 -0.1,-0.01 -0.152,-0.058 L 4.723,12.303 6.447,11.552 Z M 6.458,9.852 6.447,11.029 4.339,11.951 3.38,11.077 Z m 0,-1.834 V 9.329 L 2.986,10.716 1.968,9.794 Z M 0.585,8.531 6.458,6.203 V 7.505 L 1.574,9.434 Z m -3.612,6.678 2.411,-5.548 0.969,0.912 -1.998,4.617 z m 5.176,4.503 -1.301,-2.898 h 1.251 l 0.979,1.996 z m -1.837,-4.55 -1.412,0.019 1.846,-4.237 0.98,0.931 z m 1.887,-0.029 -1.332,0.019 1.252,-2.917 0.888,0.837 z M 4.621,15.096 2.745,15.124 3.4,13.442 4.773,14.744 c 0.09,0.095 0.061,0.199 0.051,0.228 C 4.803,15 4.752,15.096 4.621,15.096 m 0.182,1.851 c 0.021,0.03 0.051,0.134 -0.041,0.219 l -1.311,1.273 -0.798,-1.625 1.949,0.01 c 0.14,0 0.191,0.095 0.201,0.123 m 1.483,1.407 c 0.03,0.009 0.132,0.056 0.132,0.19 l 0.029,1.767 -1.785,-0.618 1.382,-1.292 c 0.102,-0.095 0.202,-0.057 0.242,-0.047 m -16.196,1.482 2.19,4.921 C -8.517,24.329 -9.183,23.692 -9.616,22.895 -9.708,22.733 -9.788,22.571 -9.85,22.41 -10.182,21.564 -10.192,20.672 -9.91,19.836 M -5.137,6.85 c 0.011,-0.02 -0.009,-0.048 0,-0.077 0.435,0.048 0.858,0.153 1.273,0.304 l -3.422,7.876 c -0.413,-0.142 -0.787,-0.343 -1.11,-0.59 z M 3.279,32.204 C 2.876,32.309 2.452,32.385 2.028,32.385 1.533,32.385 1.029,32.309 0.545,32.166 0.362,32.109 0.191,32.043 0.02,31.967 -0.848,31.596 -1.524,30.979 -1.947,30.19 Z m -5.508,-2.632 c -0.062,-0.179 -0.112,-0.36 -0.152,-0.551 -0.051,-0.275 -0.071,-0.55 -0.071,-0.816 l 7.719,2.964 c -0.049,0.047 -0.09,0.104 -0.141,0.143 -0.343,0.275 -0.736,0.484 -1.14,0.655 z m 24.025,-4.588 c -0.192,0.057 -0.383,0.115 -0.585,0.143 -0.293,0.057 -0.585,0.066 -0.868,0.066 l 3.148,-7.267 c 0.05,0.048 0.111,0.086 0.152,0.134 0.292,0.332 0.524,0.683 0.706,1.053 z M 20.443,6.603 c 0.445,0.038 0.878,0.132 1.282,0.285 l 2.613,5.841 c -0.09,0.171 -0.192,0.334 -0.312,0.495 -0.172,0.228 -0.364,0.427 -0.565,0.627 L 20.232,6.603 Z m -12.21,17.327 0.01,-1.321 3.473,-1.377 1.018,0.921 z m 0,1.804 v -1.291 l 4.895,-1.928 0.988,0.902 z m 0,1.815 v -1.291 l 6.277,-2.48 0.989,0.903 z m 0.204,1.729 C 8.304,28.889 8.233,28.48 8.233,28.062 l 7.66,-3.03 0.009,0.009 c 0.325,0.295 0.585,0.627 0.808,0.97 z m 0.897,1.453 C 9.304,30.741 9.294,30.77 9.273,30.789 9.001,30.466 8.769,30.104 8.597,29.725 l 8.344,-3.296 c 0.183,0.38 0.294,0.769 0.344,1.158 z m 7.336,-7.162 -0.969,-0.912 2.573,-5.937 1.372,-0.02 z m 1.442,1.092 C 17.729,24.462 17.376,24.225 17.053,23.93 l 3.148,-7.239 h 0.01 c 0.454,0 0.879,0.067 1.292,0.162 z M 18.456,6.944 c 0.403,-0.171 0.817,-0.285 1.231,-0.323 l 3.339,7.486 c 0.011,0.029 0.041,0.039 0.061,0.057 -0.343,0.257 -0.727,0.466 -1.13,0.627 z m -1.483,0.989 0.009,-0.01 c 0.314,-0.304 0.666,-0.561 1.03,-0.76 l 3.471,7.79 c -0.414,0.113 -0.847,0.18 -1.292,0.19 z m -0.374,0.37 3.047,6.84 H 18.274 L 15.64,9.234 Z M 8.426,2.194 C 8.587,1.806 8.799,1.463 9.062,1.149 l 7.971,3.069 c 0.03,0.01 0.05,-0.009 0.08,0 -0.05,0.409 -0.15,0.807 -0.322,1.197 z M 8.113,3.866 C 8.104,3.439 8.184,3.04 8.284,2.65 l 8.295,3.193 C 16.367,6.203 16.115,6.536 15.802,6.83 L 8.113,3.876 Z m 0.13,16.521 v -1.834 c 0,-0.123 0.111,-0.171 0.143,-0.19 0.029,-0.009 0.14,-0.048 0.231,0.047 l 1.353,1.226 z m 3.079,0.484 -3.079,1.226 v -1.188 l 2.12,-0.922 z m 6.398,-4.142 -2.413,5.557 -0.968,-0.912 2.008,-4.626 z m -3.422,-6.194 0.96,-0.931 2.462,5.529 h -1.373 z m -0.383,0.371 1.887,4.227 H 14.399 L 12.926,11.865 Z M 8.143,5.69 8.123,4.389 15.418,7.201 14.45,8.113 Z m 0.031,1.815 -0.021,-1.302 5.904,2.271 -0.98,0.922 z m 0.04,1.843 -0.03,-1.33 4.509,1.739 -0.988,0.931 z m 1.816,2.907 -1.383,1.292 c -0.05,0.048 -0.1,0.057 -0.151,0.057 -0.03,0 -0.07,-0.009 -0.081,-0.009 C 8.386,13.585 8.284,13.527 8.274,13.404 L 8.243,11.638 Z M 8.243,11.124 8.214,9.87 l 3.098,1.179 -0.888,0.836 z m 7.549,5.634 -1.837,4.246 -0.988,-0.931 1.412,-3.287 z m -3.239,-4.523 1.301,2.898 H 12.593 L 11.614,13.139 Z M 9.889,15 C 9.879,14.972 9.838,14.867 9.938,14.772 l 1.303,-1.263 0.797,1.615 H 10.091 C 9.96,15.124 9.899,15.028 9.889,15 m 1.412,3.496 -1.372,-1.302 c -0.101,-0.085 -0.06,-0.189 -0.05,-0.217 0.01,-0.03 0.059,-0.124 0.191,-0.134 l 1.887,-0.029 z m 2.533,-1.71 -1.251,2.926 -0.888,-0.846 0.796,-2.052 z M 11.402,-0.266 c 0.888,-0.228 1.837,-0.228 2.745,0.048 0.181,0.057 0.363,0.123 0.525,0.19 0.868,0.37 1.555,0.997 1.977,1.776 z m 5.52,2.641 c 0.06,0.171 0.121,0.361 0.152,0.551 0.05,0.275 0.07,0.542 0.07,0.817 L 9.424,0.779 C 9.475,0.731 9.516,0.675 9.566,0.637 9.919,0.361 10.292,0.143 10.686,-0.028 Z m 7.689,9.728 -2.2,-4.912 c 0.797,0.428 1.473,1.065 1.907,1.863 0.091,0.161 0.161,0.322 0.233,0.484 0.333,0.836 0.343,1.729 0.06,2.565 M 24.54,22.372 c -0.05,0.171 -0.12,0.342 -0.202,0.503 -0.394,0.817 -1.048,1.454 -1.887,1.853 l 2.15,-4.94 c 0.242,0.836 0.232,1.729 -0.061,2.584 m -4.702,2.717 c -0.01,0.028 0,0.057 0,0.076 -0.434,-0.048 -0.868,-0.143 -1.272,-0.304 l 3.421,-7.876 c 0.405,0.153 0.778,0.352 1.11,0.599 z m -3.157,5.063 c -0.454,0.75 -1.131,1.387 -1.979,1.795 -0.171,0.086 -0.343,0.153 -0.514,0.219 -0.898,0.313 -1.847,0.323 -2.736,0.057 z m -5.884,1.815 C 10.615,31.881 10.434,31.786 10.271,31.672 10.03,31.521 9.809,31.33 9.606,31.141 l 7.7,-3.04 c 0,0.066 0,0.132 -0.01,0.199 -0.03,0.418 -0.142,0.826 -0.294,1.206 z M 7.346,34.56 c 10.887,0 19.747,-8.34 19.747,-18.591 0,-10.24 -8.86,-18.581 -19.747,-18.581 -10.878,0 -19.738,8.341 -19.738,18.581 0,10.251 8.86,18.591 19.738,18.591"
         style="fill:#65c4d1;fill-opacity:1;fill-rule:nonzero;stroke:none"
         id="path598"
         inkscape:connector-curvature="0" /></g><g
       id="g600"
       transform="translate(1169.162,386.636)"><path
         d="M 0,0 C 1.302,0 2.351,0.987 2.351,2.204 2.351,3.421 1.302,4.408 0,4.408 -1.292,4.408 -2.342,3.421 -2.342,2.204 -2.342,0.987 -1.292,0 0,0"
         style="fill:#65c4d1;fill-opacity:1;fill-rule:nonzero;stroke:none"
         id="path602"
         inkscape:connector-curvature="0" /></g><g
       id="g604"
       transform="translate(1169.162,359.1819)"><path
         d="m 0,0 c -1.292,0 -2.342,-0.987 -2.342,-2.203 0,-1.226 1.05,-2.214 2.342,-2.214 1.302,0 2.351,0.988 2.351,2.214 C 2.351,-0.987 1.302,0 0,0"
         style="fill:#65c4d1;fill-opacity:1;fill-rule:nonzero;stroke:none"
         id="path606"
         inkscape:connector-curvature="0" /></g><g
       id="g608"
       transform="translate(1150.1288,369.595)"><path
         d="M 0,0 H 11.97 V 1.914 H 1.87 v 15.01 h 10.1 v 1.915 H 0 Z"
         style="fill:#65c4d1;fill-opacity:1;fill-rule:nonzero;stroke:none"
         id="path610"
         inkscape:connector-curvature="0" /></g><path
       d="m 277.571,386.518 h 8.25 v -15.009 h -8.25 z m 884.528,-34.115 H 826.355 277.571 v 5.143 h 36.837 v 18.839 h -13.971 v 5.712 h 33.523 v -5.712 h -13.972 v -18.839 h 48.039 v 18.839 h -13.971 v 5.712 h 33.522 v -5.712 h -13.971 v -18.839 h 47.916 v 18.839 h -13.969 v 5.712 h 33.522 v -5.712 h -13.971 v -18.839 h 48.037 v 18.839 h -13.971 v 5.712 h 33.523 v -5.712 h -13.971 v -18.839 h 47.79 v 18.839 h -13.971 v 5.712 h 33.521 v -5.712 h -13.97 v -18.839 h 48.039 v 18.839 h -13.973 v 5.712 h 33.523 v -5.712 H 587.71 v -18.839 h 47.919 v 18.839 h -13.973 v 5.712 h 33.523 v -5.712 h -13.97 v -18.839 h 48.037 v 18.839 h -13.971 v 5.712 h 33.522 v -5.712 h -13.969 v -18.839 h 47.987 v 18.839 h -13.969 v 5.712 h 33.523 v -5.712 h -13.972 v -18.839 h 48.038 v 18.839 h -13.971 v 5.712 h 33.524 v -5.712 h -13.972 v -18.839 h 24.001 0.338 23.689 v 18.839 h -13.972 v 5.712 h 33.524 v -5.712 h -13.972 v -18.839 h 48.039 v 18.839 h -13.972 v 5.712 h 33.522 v -5.712 h -13.97 v -18.839 h 47.916 v 18.839 h -13.97 v 5.712 h 33.523 v -5.712 h -13.971 v -18.839 h 48.037 v 18.839 h -13.971 v 5.712 h 33.523 v -5.712 h -13.972 v -18.839 h 47.789 v 18.839 h -13.969 v 5.712 h 33.521 v -5.712 h -13.971 v -18.839 h 48.038 v 18.839 h -13.972 v 5.712 h 33.523 v -5.712 h -13.971 v -18.839 h 38.753 v 1.914 h -36.88 v 15.01 h 13.969 v 9.544 h -37.264 v -9.544 h 13.971 v -15.01 h -44.296 v 15.01 h 13.972 v 9.544 h -37.264 v -9.544 h 13.971 v -15.01 h -44.049 v 15.01 h 13.971 v 9.544 h -37.265 v -9.544 h 13.973 V 359.46 H 964.61 v 15.01 h 13.972 v 9.544 h -37.265 v -9.544 h 13.972 v -15.01 h -44.176 v 15.01 h 13.972 v 9.544 H 887.82 v -9.544 h 13.972 v -15.01 h -44.297 v 15.01 h 13.972 v 9.544 h -37.265 v -9.544 h 13.972 v -15.01 h -21.819 -22.468 v 15.01 h 13.971 v 9.544 h -37.264 v -9.544 h 13.971 v -15.01 h -44.298 v 15.01 h 13.973 v 9.544 h -37.266 v -9.544 h 13.972 v -15.01 h -44.248 v 15.01 h 13.972 v 9.544 h -37.266 v -9.544 h 13.973 v -15.01 h -44.298 v 15.01 h 13.973 v 9.544 h -37.266 v -9.544 h 13.973 v -15.01 h -44.176 v 15.01 h 13.97 v 9.544 h -37.264 v -9.544 h 13.971 v -15.01 h -44.296 v 15.01 h 13.971 v 9.544 h -37.264 v -9.544 h 13.971 v -15.01 h -44.047 v 15.01 h 13.969 v 9.544 H 459.3 v -9.544 h 13.972 v -15.01 h -44.297 v 15.01 h 13.971 v 9.544 h -37.264 v -9.544 h 13.971 v -15.01 h -44.176 v 15.01 h 13.972 v 9.544 h -37.265 v -9.544 h 13.972 V 359.46 H 321.86 v 15.01 h 13.971 v 9.544 h -37.264 v -9.544 h 13.971 v -15.01 h -34.967 v 2.507 h 31.543 v 9.542 h -13.972 v 15.01 h 44.205 v -15.01 h -13.972 v -9.542 h 37.264 v 9.542 H 348.67 v 15.01 h 44.202 v -15.01 H 378.9 v -9.542 h 37.266 v 9.542 h -13.971 v 15.01 h 44.268 v -15.01 h -13.971 v -9.542 h 37.264 v 9.542 h -13.971 v 15.01 h 44.203 v -15.01 h -13.972 v -9.542 h 37.265 v 9.542 h -13.972 v 15.01 h 44.143 v -15.01 H 539.48 v -9.542 h 37.265 v 9.542 h -13.973 v 15.01 h 44.268 v -15.01 h -13.97 v -9.542 h 37.265 v 9.542 h -13.972 v 15.01 h 44.202 v -15.01 h -13.969 v -9.542 h 37.264 v 9.542 h -13.971 v 15.01 h 44.204 v -15.01 h -13.972 v -9.542 h 37.265 v 9.542 h -13.972 v 15.01 h 44.34 v -15.01 h -13.97 v -9.542 h 37.265 v 9.542 h -13.971 v 15.01 h 44.203 v -15.01 H 807.31 v -9.542 h 18.707 0.338 18.395 v 9.542 h -13.972 v 15.01 h 44.204 v -15.01 h -13.971 v -9.542 h 37.264 v 9.542 h -13.97 v 15.01 h 44.203 v -15.01 h -13.972 v -9.542 h 37.266 v 9.542 H 937.83 v 15.01 h 44.269 v -15.01 h -13.972 v -9.542 h 37.264 v 9.542 H 991.42 v 15.01 h 44.204 v -15.01 h -13.972 v -9.542 h 37.265 v 9.542 h -13.972 v 15.01 h 44.142 v -15.01 h -13.971 v -9.542 h 37.264 v 9.542 h -13.973 v 15.01 h 44.269 v -15.01 h -13.97 v -9.542 h 33.393 v 1.915 h -31.523 v 5.713 h 13.971 v 18.839 h -48.009 v -18.839 h 13.971 v -5.713 h -33.523 v 5.713 h 13.971 v 18.839 h -47.882 v -18.839 h 13.972 v -5.713 h -33.523 v 5.713 h 13.971 v 18.839 h -47.946 v -18.839 h 13.971 v -5.713 h -33.523 v 5.713 h 13.972 v 18.839 h -48.01 v -18.839 h 13.972 v -5.713 h -33.524 v 5.713 h 13.972 v 18.839 h -47.946 v -18.839 h 13.972 v -5.713 h -33.523 v 5.713 h 13.971 v 18.839 h -47.945 v -18.839 h 13.972 v -5.713 h -16.525 -17.174 v 5.713 h 13.971 v 18.839 h -47.945 v -18.839 h 13.97 v -5.713 h -33.523 v 5.713 h 13.971 v 18.839 h -48.081 v -18.839 h 13.972 v -5.713 h -33.524 v 5.713 h 13.972 v 18.839 h -47.947 v -18.839 h 13.973 v -5.713 h -33.524 v 5.713 h 13.972 v 18.839 h -47.945 v -18.839 h 13.97 v -5.713 H 594.94 v 5.713 h 13.972 v 18.839 h -48.01 v -18.839 h 13.972 v -5.713 H 541.35 v 5.713 h 13.972 v 18.839 H 507.44 v -18.839 h 13.971 v -5.713 h -33.522 v 5.713 h 13.97 v 18.839 h -47.946 v -18.839 h 13.972 v -5.713 h -33.524 v 5.713 h 13.972 v 18.839 h -48.01 v -18.839 h 13.972 v -5.713 h -33.524 v 5.713 h 13.972 v 18.839 h -47.945 v -18.839 h 13.971 v -5.713 h -33.522 v 5.713 h 13.971 v 18.839 h -47.945 v -18.839 h 13.971 v -5.713 h -29.673 v 5.713 h 10.12 v 18.839 h -10.12 v 5.14 h 548.784 335.744 l 1.594,1.916 H 826.355 826.017 275.7 v -45 h 550.655 337.366 z"
       style="fill:#65c4d1;fill-opacity:1;fill-rule:nonzero;stroke:none"
       id="path612"
       inkscape:connector-curvature="0" /></g></svg>