<svg xmlns="http://www.w3.org/2000/svg" viewBox="0 0 32.62 32.62"><defs><style>.cls-1{fill:#41b4c4;}</style></defs><title>logo</title><g id="Camada_2" data-name="Camada 2"><g id="Camada_1-2" data-name="Camada 1"><path class="cls-1" d="M16.31.79A3.81,3.81,0,0,1,18,1.2a3,3,0,0,1,1.69,2.93v.21a3.57,3.57,0,0,1-.21,1,3.83,3.83,0,0,1-.91,1.54A5.88,5.88,0,0,0,17,10.71v.8H17v.14l.06,0a1.48,1.48,0,0,0,2.3.59,5.5,5.5,0,0,0,.42-.37l.55-.56-.05-.05A5.67,5.67,0,0,0,21.4,8.06a3.85,3.85,0,0,1,.45-1.74,3.43,3.43,0,0,1,.57-.87l.08-.09,0,0a3.36,3.36,0,0,1,2.39-1,3.66,3.66,0,0,1,.57.05,3.37,3.37,0,0,1,1.8,5.7l0,0-.11.09a3.61,3.61,0,0,1-.85.57,3.86,3.86,0,0,1-1.73.44,5.87,5.87,0,0,0-3.76,1.51h0l-.07.07c-.13.13-.25.28-.4.46a1.51,1.51,0,0,0-.3.89,1.48,1.48,0,0,0,1.3,1.46,4.27,4.27,0,0,0,.59,0h.21a5.91,5.91,0,0,0,3.63-1.59,3.85,3.85,0,0,1,1.54-.91A3.16,3.16,0,0,1,28,13l.48,0h.22a2.89,2.89,0,0,1,2.56,1.45A3.6,3.6,0,0,1,31.37,18a3.41,3.41,0,0,1-2.91,1.66h-.18a3.33,3.33,0,0,1-1-.22,3.67,3.67,0,0,1-1.52-.9A5.92,5.92,0,0,0,21.91,17H20.77l0,.12A5,5,0,0,0,17,21.91a5.92,5.92,0,0,0,1.59,3.84,3.9,3.9,0,0,1,.93,1.59,3.85,3.85,0,0,1,.19.92v.24A3.06,3.06,0,0,1,18,31.43a3.76,3.76,0,0,1-1.67.4A3.37,3.37,0,0,1,13,28.47s0-.06,0-.16a3.25,3.25,0,0,1,.22-1.08,3.79,3.79,0,0,1,.89-1.48,5.9,5.9,0,0,0,1.6-3.84A5,5,0,0,0,10.81,17h-.1a5.88,5.88,0,0,0-3.83,1.59,3.91,3.91,0,0,1-1.57.92,3.48,3.48,0,0,1-1,.2H4.16A3.34,3.34,0,0,1,1.31,18.1a3.48,3.48,0,0,1-.11-3.47A3,3,0,0,1,4,12.94h.14l.6.05a3.79,3.79,0,0,1,.64.17,3.91,3.91,0,0,1,1.55.91,5.84,5.84,0,0,0,3.75,1.59h.09a4.52,4.52,0,0,0,.6,0,1.47,1.47,0,0,0,1.28-1.46,1.49,1.49,0,0,0-.29-.88,4.93,4.93,0,0,0-.41-.47l-.6-.6-.06.07a5.69,5.69,0,0,0-3.18-1.06,3.87,3.87,0,0,1-1.72-.43,3.4,3.4,0,0,1-.89-.6l-.09-.07,0,0a3.37,3.37,0,0,1,1.8-5.7,3.79,3.79,0,0,1,.58-.05,3.34,3.34,0,0,1,2.38,1l0,0,.09.1a3.64,3.64,0,0,1,.54.82,3.77,3.77,0,0,1,.46,1.77,5.85,5.85,0,0,0,1.45,3.68v0l.13.14c.13.12.26.24.43.37l.38.3.1,0a1.31,1.31,0,0,0,.44.07,1.46,1.46,0,0,0,1.37-.92l.07,0,0-.45a3.91,3.91,0,0,0,0-.49v-.58h-.05a5.64,5.64,0,0,0-1.54-3.24,3.79,3.79,0,0,1-.91-1.57,3.17,3.17,0,0,1-.21-1V4.16A3.36,3.36,0,0,1,16.31.79m0-.79a4.16,4.16,0,0,0-4.16,4.16h0a2,2,0,0,0,0,.23,4,4,0,0,0,.24,1.2,4.58,4.58,0,0,0,1.1,1.85,5.07,5.07,0,0,1,1.36,3.27h0a2.75,2.75,0,0,1,0,.41h0s0,.06,0,.1v0a.69.69,0,0,1-.67.54.67.67,0,0,1-.43-.16h0l-.36-.31h0A5.11,5.11,0,0,1,12,8.06a4.53,4.53,0,0,0-.56-2.14,4.28,4.28,0,0,0-.65-1l-.15-.16h0A4.15,4.15,0,0,0,7.72,3.56,4.34,4.34,0,0,0,7,3.62a4.16,4.16,0,0,0-2.23,7h0l.15.14A4.18,4.18,0,0,0,6,11.51a4.58,4.58,0,0,0,2,.5,5.09,5.09,0,0,1,3.28,1.36h0a4.23,4.23,0,0,1,.34.4.65.65,0,0,1,.13.39.69.69,0,0,1-.59.68,4.19,4.19,0,0,1-.5,0h0a5.07,5.07,0,0,1-3.27-1.36,4.68,4.68,0,0,0-1.86-1.1,4,4,0,0,0-1.19-.24l-.23,0H4A3.84,3.84,0,0,0,.48,14.29a4.2,4.2,0,0,0,3.68,6.18h.23a4.34,4.34,0,0,0,1.2-.25,4.58,4.58,0,0,0,1.85-1.1,5.07,5.07,0,0,1,3.27-1.36h0a4.15,4.15,0,0,1,4.15,4.16,5.09,5.09,0,0,1-1.36,3.28A4.57,4.57,0,0,0,12.43,27a4.3,4.3,0,0,0-.27,1.29c0,.12,0,.19,0,.19a4.16,4.16,0,0,0,4.16,4.16,4.71,4.71,0,0,0,2-.47,3.87,3.87,0,0,0,2.15-3.69h0s0-.1,0-.26a4.53,4.53,0,0,0-.23-1.13,4.65,4.65,0,0,0-1.12-1.89,5.09,5.09,0,0,1-1.36-3.28,4.16,4.16,0,0,1,4.16-4.16h0a5.09,5.09,0,0,1,3.28,1.36A4.49,4.49,0,0,0,27,20.21a4.34,4.34,0,0,0,1.21.25h.22A4.22,4.22,0,0,0,32,14a3.7,3.7,0,0,0-3.26-1.87h-.5a4.08,4.08,0,0,0-1.22.26,4.54,4.54,0,0,0-1.83,1.09,5.09,5.09,0,0,1-3.28,1.36h0a4.19,4.19,0,0,1-.5,0,.69.69,0,0,1-.6-.68.75.75,0,0,1,.14-.41h0c.11-.13.21-.26.33-.38h0A5.08,5.08,0,0,1,24.57,12a4.54,4.54,0,0,0,2.09-.54,3.87,3.87,0,0,0,1-.68l.16-.14h0a4.16,4.16,0,0,0-2.23-7A4.17,4.17,0,0,0,22,4.78h0l-.14.16a3.9,3.9,0,0,0-.69,1,4.58,4.58,0,0,0-.52,2.07,5.09,5.09,0,0,1-1.36,3.28h0c-.11.11-.23.21-.35.31h0a.68.68,0,0,1-.44.16.69.69,0,0,1-.67-.55h0a.57.57,0,0,1,0-.13h0c0-.13,0-.27,0-.41h0a5.07,5.07,0,0,1,1.36-3.27,4.68,4.68,0,0,0,1.1-1.86,4.35,4.35,0,0,0,.25-1.19c0-.15,0-.23,0-.23h0A3.86,3.86,0,0,0,18.34.48a4.7,4.7,0,0,0-2-.48Z"/></g></g></svg>