<?xml version="1.0" encoding="utf-8"?>
<!-- Generator: Adobe Illustrator 22.1.0, SVG Export Plug-In . SVG Version: 6.00 Build 0)  -->
<svg version="1.1" id="Camada_1" xmlns="http://www.w3.org/2000/svg" xmlns:xlink="http://www.w3.org/1999/xlink" x="0px" y="0px"
	 viewBox="0 0 629.3 35" style="enable-background:new 0 0 629.3 35;" xml:space="preserve">
<style type="text/css">
	.st0{fill:#41B4C4;}
	.st1{fill:#65C4D1;}
	.st2{fill:#FFFFFF;}
</style>
<title>topIntro</title>
<path class="st0" d="M0,0h629.3l0,0v31c0,2.2-1.8,4-4,4H4c-2.2,0-4-1.8-4-4V0L0,0z"/>
<path class="st1" d="M315.1,0l-0.5,35h310.6c1.1,0,2.2-0.5,3-1.3c0.7-0.7,1-1.7,1-2.7V0H315.1z"/>
<path class="st2" d="M330.2,15.7c-0.7-1.2-2-1.9-3.4-1.8l0,0h-0.2c-0.4,0-0.8,0.1-1.2,0.2c-0.7,0.2-1.3,0.5-1.8,1
	c-0.9,0.8-2,1.3-3.1,1.3l0,0c-0.2,0-0.3,0-0.5,0c-0.3,0-0.6-0.3-0.6-0.6c0-0.1,0-0.3,0.1-0.4l0,0c0.1-0.1,0.2-0.2,0.3-0.4l0,0
	c0.9-0.8,2-1.3,3.1-1.3c0.7,0,1.4-0.2,2-0.5c0.4-0.2,0.7-0.4,1-0.7l0.1-0.1l0,0c1.6-1.6,1.6-4.1,0-5.7c-1.6-1.6-4.1-1.6-5.7,0l0,0
	l0,0L320.4,7c-0.3,0.3-0.5,0.6-0.7,1c-0.3,0.6-0.5,1.3-0.5,2c0,1.2-0.5,2.3-1.3,3.2l0,0c-0.1,0.1-0.2,0.2-0.4,0.3l0,0
	c-0.1,0.1-0.3,0.1-0.4,0.1c-0.3,0-0.6-0.2-0.6-0.5l0,0c0,0,0-0.1,0-0.1l0,0c0-0.1,0-0.3,0-0.4l0,0c0-1.2,0.5-2.3,1.3-3.2
	c0.5-0.5,0.9-1.1,1.1-1.8c0.1-0.4,0.2-0.7,0.2-1.1c0-0.1,0-0.2,0-0.2l0,0c0.1-1.5-0.7-2.9-2-3.5c-1.9-1.1-4.4-0.4-5.5,1.5
	c-0.4,0.6-0.5,1.3-0.5,2.1l0,0c0,0,0,0.1,0,0.2c0,0.4,0.1,0.8,0.2,1.2c0.2,0.7,0.6,1.3,1.1,1.8c0.8,0.9,1.3,2,1.3,3.2l0,0
	c0,0.1,0,0.3,0,0.4l0,0c0,0,0,0.1,0,0.1l0,0c-0.1,0.3-0.3,0.5-0.6,0.5c-0.2,0-0.3-0.1-0.4-0.1l0,0c-0.1-0.1-0.2-0.2-0.3-0.3l0,0
	c-0.8-0.8-1.2-1.9-1.3-3.1c0-0.7-0.2-1.4-0.5-2c-0.2-0.4-0.4-0.7-0.6-1l-0.1-0.2l0,0c-1.6-1.6-4.1-1.6-5.7,0c-0.6,0.6-1,1.4-1.1,2.2
	c-0.2,1.3,0.2,2.6,1.1,3.5l0,0l0.1,0.1c0.3,0.3,0.6,0.5,1,0.7c0.6,0.3,1.3,0.5,2,0.5c1.2,0,2.3,0.5,3.1,1.3l0,0
	c0.1,0.1,0.2,0.3,0.3,0.4c0.1,0.1,0.1,0.2,0.1,0.4c0,0.3-0.2,0.6-0.6,0.6h-0.5l0,0c-1.2,0-2.3-0.5-3.2-1.3c-0.5-0.5-1.1-0.9-1.8-1.1
	c-0.4-0.1-0.8-0.2-1.1-0.2h-0.2l0,0c-1.5-0.1-2.9,0.7-3.5,2.1c-1.1,1.9-0.4,4.4,1.5,5.5c0.6,0.4,1.3,0.5,2.1,0.5h0.2
	c0.4,0,0.8-0.1,1.2-0.2c0.7-0.2,1.3-0.6,1.8-1.1c0.9-0.8,2-1.3,3.1-1.3l0,0c2.2,0,4,1.8,4,4c0,1.2-0.5,2.3-1.3,3.2
	c-0.5,0.5-0.8,1.1-1,1.7c-0.2,0.4-0.2,0.8-0.3,1.2c0,0.1,0,0.2,0,0.2c0,2.2,1.7,4,3.9,4.1c0.7,0,1.4-0.2,2-0.5
	c1.3-0.7,2.2-2.1,2.1-3.5l0,0c0,0,0-0.1,0-0.2c0-0.4-0.1-0.7-0.2-1.1c-0.2-0.7-0.6-1.3-1.1-1.8c-0.8-0.9-1.3-2-1.3-3.2
	c0-2.2,1.8-4,4-4l0,0c1.2,0,2.3,0.5,3.1,1.3c0.5,0.5,1.1,0.8,1.8,1c0.4,0.1,0.8,0.2,1.2,0.2h0.2c2.2,0,4-1.9,4-4.1
	C330.9,17.1,330.6,16.4,330.2,15.7z"/>
</svg>
