<?xml version="1.0" encoding="utf-8"?>
<!-- Generator: Adobe Illustrator 22.1.0, SVG Export Plug-In . SVG Version: 6.00 Build 0)  -->
<svg version="1.1" id="Camada_1" xmlns="http://www.w3.org/2000/svg" xmlns:xlink="http://www.w3.org/1999/xlink" x="0px" y="0px"
	 viewBox="0 0 30.1 30" style="enable-background:new 0 0 30.1 30;" xml:space="preserve">
<style type="text/css">
	.st0{fill:#F4F3F3;}
	.st1{fill:#65C4D1;}
</style>
<title>botaoVoltarTopo</title>
<g>
	<path class="st0" d="M26,1c1.7,0,3,1.3,3,3v22c0,1.7-1.3,3-3,3H4c-1.7,0-3-1.3-3-3V4c0-1.7,1.3-3,3-3H26 M26,0H4C1.8,0,0,1.8,0,4
		v22c0,2.2,1.8,4,4,4h22c2.2,0,4-1.8,4-4V4C30,1.8,28.2,0,26,0z"/>
</g>
<g>
	<path class="st1" d="M22.7,16.2c-0.1,0-0.3,0-0.4-0.1L15,8.9l-7.3,7.2c-0.2,0.2-0.5,0.2-0.7,0c-0.2-0.2-0.2-0.5,0-0.7l8-7.9l8,7.9
		c0.2,0.2,0.2,0.5,0,0.7C22.9,16.2,22.8,16.2,22.7,16.2z"/>
</g>
<g>
	<path class="st1" d="M15,24.3c-0.3,0-0.5-0.2-0.5-0.5V8.2c0-0.3,0.2-0.5,0.5-0.5s0.5,0.2,0.5,0.5v15.5C15.5,24,15.3,24.3,15,24.3z"
		/>
</g>
<g>
	<path class="st1" d="M22.7,1H7.4C7.1,1,6.9,0.8,6.9,0.5S7.1,0,7.4,0h15.3c0.3,0,0.5,0.2,0.5,0.5S22.9,1,22.7,1z"/>
</g>
</svg>
