<svg xmlns="http://www.w3.org/2000/svg" viewBox="0 0 592.53 516.56"><defs><style>.cls-1{fill:#d6d6d6;}.cls-2{fill:#db4171;}.cls-3{fill:#007db8;}.cls-4{fill:#ed9dbe;}.cls-5{fill:#56c5e8;}</style></defs><title>1-decomp</title><g id="Camada_2" data-name="Camada 2"><g id="Camada_1-2" data-name="Camada 1"><path class="cls-1" d="M291,49.53c-111.38,0-203.71,81.55-220.55,188.2l56.2,8.94a165.91,165.91,0,1,1,8.12,83.65L81.41,350C112.82,435.29,194.82,496.15,291,496.15c123.33,0,223.31-100,223.31-223.31S414.37,49.53,291,49.53Z"/><path class="cls-2" d="M81.6,272s-29,20.53-36.87,4.12-34.3-43.8-34.3-43.8-32.36-29.66,16.92-40.47,59.22-28.27,59.22-28.27,19.88-43.73,55.48,40.1S81.6,272,81.6,272Z"/><path class="cls-3" d="M150.58,420.63s-29,20.54-36.87,4.12S79.42,381,79.42,381s-32.37-29.66,16.92-40.47,59.22-28.26,59.22-28.26,19.88-43.74,55.48,40.09S150.58,420.63,150.58,420.63Z"/><path class="cls-3" d="M142.78,164.8c-.12-1.17-2.41-29,36.15-46.72l1.62-.74,2.24,8.49,15.59-16.08-22.72-2.11.27-3,29,2.69-23.66,24.39-2.68-10.16c-34.95,16.87-32.82,42.67-32.79,42.94Z"/><path class="cls-3" d="M413.3,127.12l-29.95-16.07,9-5.36c-25.8-29-50-19.87-50.28-19.77L341,83.13c1.1-.44,27.21-10.27,54.83,22l1.17,1.36-7.56,4.48,19.74,10.59L405,99.08l2.94-.56Z"/><path class="cls-3" d="M477.27,244.41l-14.7-30.64,10.46,1c-3.71-38.5-27.9-45.34-28.94-45.62l.76-2.9c1.14.29,28,7.76,31.33,50.07l.14,1.78-8.75-.83,9.7,20.19,9.84-20.59,2.71,1.3Z"/><path class="cls-3" d="M431.81,427.77l-29-2.72,23.68-24.37,2.67,10.17c35-16.84,32.86-42.65,32.84-42.91l3-.29c.12,1.17,2.39,29-36.18,46.68l-1.63.75-2.23-8.5-15.61,16.07,22.72,2.13Z"/><path class="cls-3" d="M231.4,470.55c-10.42,0-25.67-3.83-42.31-20.7l-1.25-1.28,7.22-5-20.43-9.19,5.75,22.08-2.91.76-7.33-28.15,31,13.94-8.64,6c27.76,27.12,51.3,16.34,51.54,16.22l1.29,2.71A34.33,34.33,0,0,1,231.4,470.55Z"/><path class="cls-2" d="M160.23,226.29v4.81H158V218.15h4.83a4.78,4.78,0,0,1,3.36,1.13,3.84,3.84,0,0,1,1.25,3,3.71,3.71,0,0,1-1.22,3,5,5,0,0,1-3.42,1.06Zm0-1.81h2.64a2.55,2.55,0,0,0,1.79-.57,2.09,2.09,0,0,0,.61-1.63,2.26,2.26,0,0,0-.62-1.67,2.37,2.37,0,0,0-1.72-.65h-2.7Z"/><path class="cls-2" d="M174.11,223.45a4.91,4.91,0,0,0-.86-.07,1.92,1.92,0,0,0-1.95,1.13v6.59h-2.11v-9.63h2l.05,1.08a2.37,2.37,0,0,1,2.12-1.26,2,2,0,0,1,.75.13Z"/><path class="cls-2" d="M174.73,226.19a5.67,5.67,0,0,1,.55-2.54,4,4,0,0,1,1.53-1.75,4.32,4.32,0,0,1,2.28-.61,4,4,0,0,1,3.08,1.26,5,5,0,0,1,1.28,3.32v.51a6,6,0,0,1-.53,2.55,4.09,4.09,0,0,1-1.53,1.73,4.27,4.27,0,0,1-2.3.61,4,4,0,0,1-3.17-1.35,5.27,5.27,0,0,1-1.2-3.62Zm2.11.19a4,4,0,0,0,.6,2.33,2.06,2.06,0,0,0,3.33,0,4.42,4.42,0,0,0,.59-2.5,3.88,3.88,0,0,0-.61-2.31,1.93,1.93,0,0,0-1.66-.85,1.91,1.91,0,0,0-1.64.84A4.24,4.24,0,0,0,176.84,226.38Z"/><path class="cls-2" d="M193.48,226.38a5.9,5.9,0,0,1-1,3.57,3.16,3.16,0,0,1-2.69,1.32,3,3,0,0,1-2.57-1.21l-.1,1h-1.91V217.44h2.11v5a3,3,0,0,1,2.45-1.11,3.19,3.19,0,0,1,2.7,1.31,5.94,5.94,0,0,1,1,3.66Zm-2.1-.19a4.13,4.13,0,0,0-.54-2.34,1.79,1.79,0,0,0-1.56-.79,2,2,0,0,0-1.93,1.23v4a2,2,0,0,0,1.94,1.25,1.77,1.77,0,0,0,1.53-.75,4.12,4.12,0,0,0,.56-2.29Z"/><path class="cls-2" d="M197.49,231.1h-2.11V217.44h2.11Z"/><path class="cls-2" d="M203.92,231.27a4.32,4.32,0,0,1-3.25-1.29,4.76,4.76,0,0,1-1.24-3.45v-.26a6,6,0,0,1,.54-2.58,4.22,4.22,0,0,1,1.52-1.76,4,4,0,0,1,2.19-.64,3.62,3.62,0,0,1,3,1.26,5.39,5.39,0,0,1,1.05,3.55V227h-6.14a3,3,0,0,0,.78,1.88,2.3,2.3,0,0,0,1.72.7,2.84,2.84,0,0,0,2.36-1.2l1.13,1.11a3.89,3.89,0,0,1-1.5,1.34A4.75,4.75,0,0,1,203.92,231.27Zm-.25-8.24a1.77,1.77,0,0,0-1.4.62,3.26,3.26,0,0,0-.68,1.74h4v-.16a2.72,2.72,0,0,0-.57-1.65A1.73,1.73,0,0,0,203.67,223Z"/><path class="cls-2" d="M211.31,221.47l.06,1a3.34,3.34,0,0,1,2.71-1.19,2.59,2.59,0,0,1,2.57,1.48,3.33,3.33,0,0,1,2.88-1.48,2.9,2.9,0,0,1,2.32.89,3.94,3.94,0,0,1,.77,2.59v6.33h-2.11v-6.27a1.9,1.9,0,0,0-.39-1.34,1.7,1.7,0,0,0-1.29-.43,1.73,1.73,0,0,0-1.17.4,2,2,0,0,0-.64,1v6.6h-2.11v-6.34a1.53,1.53,0,0,0-1.69-1.7,1.86,1.86,0,0,0-1.8,1.06v7h-2.11v-9.63Z"/><path class="cls-2" d="M230.4,231.1a3.3,3.3,0,0,1-.24-.9,3.51,3.51,0,0,1-4.78.25,2.72,2.72,0,0,1-.89-2A2.76,2.76,0,0,1,225.6,226a5.32,5.32,0,0,1,3.19-.82h1.3v-.63a1.73,1.73,0,0,0-.41-1.2,1.6,1.6,0,0,0-1.24-.45,1.79,1.79,0,0,0-1.18.37,1.15,1.15,0,0,0-.46.94h-2.11a2.44,2.44,0,0,1,.51-1.48,3.44,3.44,0,0,1,1.39-1.08,4.85,4.85,0,0,1,2-.4,3.92,3.92,0,0,1,2.63.85,3.07,3.07,0,0,1,1,2.39v4.34a4.93,4.93,0,0,0,.36,2.07v.16Zm-2.32-1.56a2.34,2.34,0,0,0,1.18-.31,2.16,2.16,0,0,0,.83-.84v-1.81H229a3,3,0,0,0-1.76.42,1.33,1.33,0,0,0-.59,1.18,1.28,1.28,0,0,0,.4,1A1.52,1.52,0,0,0,228.08,229.54Z"/><path class="cls-3" d="M221.06,325v4.8h-2.2V316.88h4.84a4.83,4.83,0,0,1,3.36,1.13,3.85,3.85,0,0,1,1.24,3,3.71,3.71,0,0,1-1.22,3,5,5,0,0,1-3.41,1.06Zm0-1.82h2.64a2.52,2.52,0,0,0,1.78-.56,2.11,2.11,0,0,0,.62-1.63,2.27,2.27,0,0,0-.63-1.68,2.34,2.34,0,0,0-1.71-.64h-2.7Z"/><path class="cls-3" d="M234.93,322.18a5.87,5.87,0,0,0-.86-.07,1.93,1.93,0,0,0-1.95,1.14v6.58H230v-9.62h2l.05,1.07A2.37,2.37,0,0,1,234.2,320a2,2,0,0,1,.74.12Z"/><path class="cls-3" d="M235.56,324.93a5.88,5.88,0,0,1,.54-2.55,4.15,4.15,0,0,1,1.54-1.74,4.22,4.22,0,0,1,2.27-.61,4.08,4.08,0,0,1,3.09,1.25,5,5,0,0,1,1.28,3.33v.51a5.78,5.78,0,0,1-.54,2.54,3.9,3.9,0,0,1-1.52,1.73,4.3,4.3,0,0,1-2.3.62,4,4,0,0,1-3.18-1.36,5.29,5.29,0,0,1-1.19-3.61Zm2.11.19a4,4,0,0,0,.59,2.32,1.94,1.94,0,0,0,1.67.84,1.9,1.9,0,0,0,1.66-.85,4.33,4.33,0,0,0,.6-2.5,4,4,0,0,0-.61-2.31,2,2,0,0,0-1.67-.86,1.93,1.93,0,0,0-1.64.84A4.36,4.36,0,0,0,237.67,325.12Z"/><path class="cls-3" d="M254.31,325.12a5.87,5.87,0,0,1-1,3.56,3.13,3.13,0,0,1-2.68,1.33,3,3,0,0,1-2.57-1.22l-.11,1h-1.9V316.17h2.11v5a3,3,0,0,1,2.45-1.1,3.19,3.19,0,0,1,2.7,1.31,6,6,0,0,1,1,3.65Zm-2.11-.19a4.17,4.17,0,0,0-.54-2.35,1.78,1.78,0,0,0-1.56-.78,2,2,0,0,0-1.92,1.23v4a2,2,0,0,0,1.94,1.26,1.76,1.76,0,0,0,1.53-.76,4.07,4.07,0,0,0,.55-2.28Z"/><path class="cls-3" d="M258.32,329.83h-2.11V316.17h2.11Z"/><path class="cls-3" d="M264.75,330a4.28,4.28,0,0,1-3.25-1.3,4.75,4.75,0,0,1-1.25-3.44V325a5.74,5.74,0,0,1,.55-2.57,4.19,4.19,0,0,1,1.52-1.77,4,4,0,0,1,2.19-.63,3.65,3.65,0,0,1,3,1.25,5.39,5.39,0,0,1,1,3.55v.87h-6.14a2.87,2.87,0,0,0,.78,1.89,2.29,2.29,0,0,0,1.71.69,2.83,2.83,0,0,0,2.36-1.2l1.14,1.11a3.76,3.76,0,0,1-1.51,1.34A4.58,4.58,0,0,1,264.75,330Zm-.25-8.25a1.73,1.73,0,0,0-1.4.63,3.14,3.14,0,0,0-.68,1.73h4V324a2.63,2.63,0,0,0-.56-1.64A1.75,1.75,0,0,0,264.5,321.76Z"/><path class="cls-3" d="M272.13,320.21l.06,1A3.35,3.35,0,0,1,274.9,320a2.58,2.58,0,0,1,2.58,1.48,3.29,3.29,0,0,1,2.88-1.48,2.86,2.86,0,0,1,2.31.88,3.92,3.92,0,0,1,.78,2.6v6.32h-2.11v-6.26a1.93,1.93,0,0,0-.39-1.34,1.66,1.66,0,0,0-1.29-.43,1.72,1.72,0,0,0-1.18.4,2.18,2.18,0,0,0-.64,1v6.6h-2.11V323.5a1.52,1.52,0,0,0-1.69-1.7,1.84,1.84,0,0,0-1.79,1.06v7h-2.11v-9.62Z"/><path class="cls-3" d="M291.22,329.83a3.46,3.46,0,0,1-.24-.9,3.47,3.47,0,0,1-4.77.25,2.66,2.66,0,0,1-.9-2,2.78,2.78,0,0,1,1.12-2.37,5.37,5.37,0,0,1,3.19-.82h1.29v-.63a1.68,1.68,0,0,0-.41-1.2,1.61,1.61,0,0,0-1.24-.44,1.86,1.86,0,0,0-1.18.36,1.18,1.18,0,0,0-.46.94h-2.11a2.47,2.47,0,0,1,.52-1.48,3.37,3.37,0,0,1,1.39-1.08,4.81,4.81,0,0,1,2-.39,3.84,3.84,0,0,1,2.62.85,3.06,3.06,0,0,1,1,2.39v4.34a5,5,0,0,0,.36,2.07v.15Zm-2.31-1.56a2.3,2.3,0,0,0,1.17-.31,2,2,0,0,0,.83-.83v-1.82h-1.13a3.06,3.06,0,0,0-1.77.42,1.37,1.37,0,0,0-.59,1.18,1.26,1.26,0,0,0,.41,1A1.52,1.52,0,0,0,288.91,328.27Z"/><path class="cls-3" d="M223.5,340.79h-2.44v5h-2.2V332.82h4.44a5.09,5.09,0,0,1,3.38,1,3.62,3.62,0,0,1,1.19,2.91,3.69,3.69,0,0,1-.61,2.18,3.93,3.93,0,0,1-1.71,1.35l2.84,5.39v.12H226ZM221.06,339h2.25a2.5,2.5,0,0,0,1.74-.57,2,2,0,0,0,.62-1.57,2.18,2.18,0,0,0-.57-1.61,2.42,2.42,0,0,0-1.73-.59h-2.31Z"/><path class="cls-3" d="M233.88,345.94a4.32,4.32,0,0,1-3.25-1.29,4.76,4.76,0,0,1-1.24-3.45v-.26a6,6,0,0,1,.54-2.58,4.22,4.22,0,0,1,1.52-1.76,4,4,0,0,1,2.19-.63,3.61,3.61,0,0,1,3,1.25,5.39,5.39,0,0,1,1.05,3.55v.87h-6.14a3,3,0,0,0,.78,1.89,2.31,2.31,0,0,0,1.71.69,2.82,2.82,0,0,0,2.36-1.2l1.14,1.11a3.81,3.81,0,0,1-1.5,1.34A4.62,4.62,0,0,1,233.88,345.94Zm-.25-8.24a1.77,1.77,0,0,0-1.4.62,3.29,3.29,0,0,0-.68,1.74h4v-.16a2.67,2.67,0,0,0-.57-1.64A1.73,1.73,0,0,0,233.63,337.7Z"/><path class="cls-3" d="M244.55,343.15a1,1,0,0,0-.47-.88,4.79,4.79,0,0,0-1.54-.53,8,8,0,0,1-1.79-.59,2.45,2.45,0,0,1-1.58-2.27,2.59,2.59,0,0,1,1-2.08,4,4,0,0,1,2.61-.83,4.16,4.16,0,0,1,2.72.85,2.73,2.73,0,0,1,1,2.21h-2.11a1.33,1.33,0,0,0-.45-1,1.67,1.67,0,0,0-1.19-.41,1.83,1.83,0,0,0-1.14.32,1.06,1.06,0,0,0-.44.88.88.88,0,0,0,.41.78,5.43,5.43,0,0,0,1.65.55,7.67,7.67,0,0,1,1.95.67,2.84,2.84,0,0,1,1.05.93,2.4,2.4,0,0,1,.34,1.32,2.53,2.53,0,0,1-1.05,2.1,4.36,4.36,0,0,1-2.75.8,4.86,4.86,0,0,1-2.06-.42,3.4,3.4,0,0,1-1.4-1.18,2.76,2.76,0,0,1-.5-1.61h2a1.53,1.53,0,0,0,.57,1.18,2.11,2.11,0,0,0,1.38.42,2.06,2.06,0,0,0,1.26-.33A1,1,0,0,0,244.55,343.15Z"/><path class="cls-3" d="M248.06,340.87a5.69,5.69,0,0,1,.55-2.55,4,4,0,0,1,1.53-1.74,4.23,4.23,0,0,1,2.28-.61,4,4,0,0,1,3.08,1.25,5,5,0,0,1,1.28,3.33v.5a6,6,0,0,1-.53,2.55,4.09,4.09,0,0,1-1.53,1.73,4.26,4.26,0,0,1-2.29.61,4,4,0,0,1-3.18-1.35,5.25,5.25,0,0,1-1.2-3.62Zm2.11.18a4,4,0,0,0,.6,2.33,1.93,1.93,0,0,0,1.67.84,1.91,1.91,0,0,0,1.66-.85,4.44,4.44,0,0,0,.59-2.5,3.84,3.84,0,0,0-.61-2.31,1.94,1.94,0,0,0-1.66-.86,1.91,1.91,0,0,0-1.64.84A4.24,4.24,0,0,0,250.17,341.05Z"/><path class="cls-3" d="M260.82,345.77h-2.11V332.11h2.11Z"/><path class="cls-3" d="M266.42,343l2-6.89h2.18l-3.25,9.63H265.5l-3.28-9.63h2.19Z"/><path class="cls-3" d="M271.91,333.65a1.1,1.1,0,0,1,1.19-1.16,1.12,1.12,0,0,1,1.2,1.16,1.13,1.13,0,0,1-.32.81,1.15,1.15,0,0,1-.88.32,1.09,1.09,0,0,1-1.19-1.13Zm2.24,12.12H272v-9.63h2.11Z"/><path class="cls-3" d="M276.05,340.88a5.83,5.83,0,0,1,1-3.57,3.21,3.21,0,0,1,2.7-1.34,3,3,0,0,1,2.42,1.06v-4.92h2.1v13.66h-1.91l-.1-1a3.07,3.07,0,0,1-2.52,1.17,3.18,3.18,0,0,1-2.67-1.36A6,6,0,0,1,276.05,340.88Zm2.11.19a4.06,4.06,0,0,0,.55,2.29,1.76,1.76,0,0,0,1.56.82,2,2,0,0,0,1.9-1.18v-4.11a2,2,0,0,0-1.88-1.15,1.78,1.78,0,0,0-1.58.83A4.54,4.54,0,0,0,278.16,341.07Z"/><path class="cls-3" d="M286.08,340.87a5.69,5.69,0,0,1,.55-2.55,4,4,0,0,1,1.53-1.74,4.22,4.22,0,0,1,2.27-.61,4,4,0,0,1,3.09,1.25,5,5,0,0,1,1.28,3.33v.5a5.82,5.82,0,0,1-.54,2.55,4,4,0,0,1-1.52,1.73,4.27,4.27,0,0,1-2.3.61,4,4,0,0,1-3.18-1.35,5.3,5.3,0,0,1-1.19-3.62Zm2.11.18a4,4,0,0,0,.6,2.33,2.05,2.05,0,0,0,3.32,0,4.35,4.35,0,0,0,.6-2.5,3.91,3.91,0,0,0-.61-2.31,2,2,0,0,0-1.67-.86,1.91,1.91,0,0,0-1.63.84A4.24,4.24,0,0,0,288.19,341.05Z"/><path class="cls-3" d="M33.05,99.71,35,88.38h3a4,4,0,0,1,2.38.71A3.91,3.91,0,0,1,41.79,91a6,6,0,0,1,.27,2.74l-.08.61a7.07,7.07,0,0,1-1,2.78,5.46,5.46,0,0,1-4.71,2.54ZM36.58,90,35.2,98.14h1.1a3.41,3.41,0,0,0,2.5-1,4.75,4.75,0,0,0,1.27-2.69,9.12,9.12,0,0,0,.14-2.06,2.78,2.78,0,0,0-.64-1.77A2.1,2.1,0,0,0,38,90Z"/><path class="cls-3" d="M46.53,99.87a3.42,3.42,0,0,1-1.85-.55,3.16,3.16,0,0,1-1.17-1.45,4.41,4.41,0,0,1-.28-2.05l0-.32A5.81,5.81,0,0,1,44,93.2a4.39,4.39,0,0,1,1.49-1.56,3.51,3.51,0,0,1,1.93-.5,2.65,2.65,0,0,1,2.31,1.18,4.39,4.39,0,0,1,.58,3l-.11.81H45a2.33,2.33,0,0,0,.4,1.61,1.54,1.54,0,0,0,1.27.63,2.73,2.73,0,0,0,2.14-1l.92,1a3.59,3.59,0,0,1-1.36,1.17A4,4,0,0,1,46.53,99.87Zm.77-7.22c-.95,0-1.67.66-2.14,2.07h3.41l0-.17a2.35,2.35,0,0,0,0-.7,1.38,1.38,0,0,0-.42-.87A1.31,1.31,0,0,0,47.3,92.65Z"/><path class="cls-3" d="M54.56,98.37A1.69,1.69,0,0,0,55.71,98a1.73,1.73,0,0,0,.63-1H58a3,3,0,0,1-.59,1.52,3.35,3.35,0,0,1-1.29,1.06,3.42,3.42,0,0,1-1.65.36,2.94,2.94,0,0,1-2.88-2.07,4.82,4.82,0,0,1-.23-2.14l0-.27a5.67,5.67,0,0,1,.7-2.22,4.06,4.06,0,0,1,1.46-1.53,3.67,3.67,0,0,1,2-.5,2.81,2.81,0,0,1,2.13.91,3.24,3.24,0,0,1,.8,2.27H56.81a1.9,1.9,0,0,0-.34-1.18,1.25,1.25,0,0,0-1-.49,1.79,1.79,0,0,0-1.66.92,5.14,5.14,0,0,0-.66,2.67Q53.11,98.34,54.56,98.37Z"/><path class="cls-3" d="M59.39,95.47a5.56,5.56,0,0,1,.71-2.25,4.22,4.22,0,0,1,1.49-1.56,3.61,3.61,0,0,1,2-.52,3,3,0,0,1,1.82.58,3.2,3.2,0,0,1,1.12,1.53,4.92,4.92,0,0,1,.25,2.16,5.82,5.82,0,0,1-.71,2.37,4.3,4.3,0,0,1-1.51,1.57,3.62,3.62,0,0,1-2,.52,3.07,3.07,0,0,1-1.81-.57,3.2,3.2,0,0,1-1.12-1.53,5,5,0,0,1-.26-2.13Zm1.77,1.07a2.2,2.2,0,0,0,.42,1.31,1.34,1.34,0,0,0,1.06.52,1.91,1.91,0,0,0,1.56-.73A3.93,3.93,0,0,0,65,95.57l0-.76a2.73,2.73,0,0,0-.39-1.56,1.34,1.34,0,0,0-1.12-.6,2,2,0,0,0-1.83,1.16,4.54,4.54,0,0,0-.5,1.66A6.81,6.81,0,0,0,61.16,96.54Z"/><path class="cls-3" d="M70.72,91.29l-.16.89a3.16,3.16,0,0,1,2.43-1,2.34,2.34,0,0,1,1.29.36,1.77,1.77,0,0,1,.69.93,3.29,3.29,0,0,1,2.62-1.29,2.12,2.12,0,0,1,1.78.84,3.32,3.32,0,0,1,.43,2.28l-.88,5.45h-1.8L78,94.24a2.67,2.67,0,0,0,0-.63,1,1,0,0,0-1.12-.93,1.91,1.91,0,0,0-1.77,1.25l0,.17-.94,5.61H72.36l.9-5.44a3.35,3.35,0,0,0,0-.63,1,1,0,0,0-1.13-1,2,2,0,0,0-1.68.93l-1,6.1h-1.8L69,91.29Z"/><path class="cls-3" d="M88.51,95.54a7.11,7.11,0,0,1-.65,2.28,3.9,3.9,0,0,1-1.29,1.56,3,3,0,0,1-1.74.5,2.52,2.52,0,0,1-2-.94l-.74,4h-1.8l2-11.66h1.65l-.14.87a2.83,2.83,0,0,1,2.24-1,2.3,2.3,0,0,1,1.36.41,2.47,2.47,0,0,1,.89,1.16,5,5,0,0,1,.33,1.7C88.57,94.72,88.55,95.1,88.51,95.54Zm-1.77-.17,0-.57a2.78,2.78,0,0,0-.32-1.55,1.16,1.16,0,0,0-1-.57,2.1,2.1,0,0,0-1.77,1L83,97.39a1.39,1.39,0,0,0,1.39,1,1.83,1.83,0,0,0,1.5-.72A4.58,4.58,0,0,0,86.74,95.37Z"/><path class="cls-3" d="M89.82,95.47a5.56,5.56,0,0,1,.71-2.25A4.3,4.3,0,0,1,92,91.66a3.61,3.61,0,0,1,2-.52,3,3,0,0,1,1.82.58A3.13,3.13,0,0,1,97,93.25a4.92,4.92,0,0,1,.25,2.16,5.82,5.82,0,0,1-.71,2.37A4.2,4.2,0,0,1,95,99.35a3.66,3.66,0,0,1-2,.52,3.09,3.09,0,0,1-1.81-.57,3.26,3.26,0,0,1-1.12-1.53,5,5,0,0,1-.25-2.13Zm1.77,1.07A2.2,2.2,0,0,0,92,97.85a1.34,1.34,0,0,0,1.07.52,1.91,1.91,0,0,0,1.55-.73,3.85,3.85,0,0,0,.78-2.07l0-.76a2.73,2.73,0,0,0-.39-1.56,1.34,1.34,0,0,0-1.12-.6,2,2,0,0,0-1.82,1.16,4.37,4.37,0,0,0-.51,1.66A6.81,6.81,0,0,0,91.59,96.54Z"/><path class="cls-3" d="M103,97.38c.09-.51-.24-.87-1-1.07a12,12,0,0,1-1.51-.48A2.12,2.12,0,0,1,99,93.75a2.37,2.37,0,0,1,1-1.88,3.61,3.61,0,0,1,2.32-.73,3.14,3.14,0,0,1,2.13.75,2.45,2.45,0,0,1,.81,1.94h-1.78a1.23,1.23,0,0,0-.31-.91,1.27,1.27,0,0,0-.9-.35,1.7,1.7,0,0,0-1,.31,1.15,1.15,0,0,0-.5.79c-.07.47.26.8,1,1a12.09,12.09,0,0,1,1.59.51,2.14,2.14,0,0,1,1.45,2.12,2.37,2.37,0,0,1-.51,1.4,3.08,3.08,0,0,1-1.27.91,4.2,4.2,0,0,1-1.7.29,3.32,3.32,0,0,1-2.23-.8,2.54,2.54,0,0,1-.86-2h1.73a1.41,1.41,0,0,0,.4,1,1.54,1.54,0,0,0,1,.36,2,2,0,0,0,1.11-.29A1.08,1.08,0,0,0,103,97.38Z"/><path class="cls-3" d="M107.82,99.71H106l1.43-8.42h1.8Zm-.11-10.57a1,1,0,0,1,.27-.73,1,1,0,0,1,.74-.32,1,1,0,0,1,.73.27,1,1,0,0,1,.29.72,1,1,0,0,1-.28.73,1,1,0,0,1-.73.3,1,1,0,0,1-.73-.27A1,1,0,0,1,107.71,89.14Z"/><path class="cls-3" d="M113.42,98.37a1.68,1.68,0,0,0,1.14-.39,1.73,1.73,0,0,0,.63-1h1.7a3.06,3.06,0,0,1-.58,1.52,3.46,3.46,0,0,1-1.3,1.06,3.37,3.37,0,0,1-1.65.36,3.08,3.08,0,0,1-1.8-.56,3.14,3.14,0,0,1-1.08-1.51,5,5,0,0,1-.23-2.14l0-.27a5.67,5.67,0,0,1,.7-2.22,4.14,4.14,0,0,1,1.46-1.53,3.67,3.67,0,0,1,2-.5,2.81,2.81,0,0,1,2.13.91,3.24,3.24,0,0,1,.8,2.27h-1.69a1.9,1.9,0,0,0-.34-1.18,1.24,1.24,0,0,0-1-.49,1.8,1.8,0,0,0-1.66.92,5.14,5.14,0,0,0-.65,2.67Q112,98.34,113.42,98.37Zm.19,1.35-.15.46a1.14,1.14,0,0,1,.71.44,1.28,1.28,0,0,1,.23.82,1.53,1.53,0,0,1-.69,1.31,3.65,3.65,0,0,1-1.94.51v-1.09c.7,0,1.09-.28,1.17-.75,0-.31-.14-.5-.56-.57l-.42,0,.34-1.06Z"/><path class="cls-3" d="M122.69,99.71a2.53,2.53,0,0,1-.08-.78,3,3,0,0,1-2.19.94,2.53,2.53,0,0,1-1.78-.7,2.24,2.24,0,0,1-.65-1.75,2.56,2.56,0,0,1,1.12-2.09,4.8,4.8,0,0,1,2.86-.77l1.17,0,.1-.58a1.75,1.75,0,0,0,0-.56,1,1,0,0,0-1.08-.87,1.62,1.62,0,0,0-1,.3,1.27,1.27,0,0,0-.53.84l-1.8,0a2.3,2.3,0,0,1,.54-1.37,3.17,3.17,0,0,1,1.29-.91,4.24,4.24,0,0,1,1.7-.31,2.84,2.84,0,0,1,2.09.83,2.48,2.48,0,0,1,.63,2.06l-.63,4-.06.7a2.42,2.42,0,0,0,.11.89v.14Zm-1.85-1.35a1.92,1.92,0,0,0,1-.27,2.77,2.77,0,0,0,.83-.73l.28-1.6h-.86a2.86,2.86,0,0,0-1.62.4,1.41,1.41,0,0,0-.69,1.07,1,1,0,0,0,.22.83A1.12,1.12,0,0,0,120.84,98.36Zm4.87-10.43a2.46,2.46,0,0,1-.58,1.47,1.55,1.55,0,0,1-1.2.55,1.09,1.09,0,0,1-.36-.06,3,3,0,0,1-.57-.29,5,5,0,0,0-.61-.31,1,1,0,0,0-.42-.06c-.4,0-.66.28-.8.8L120,90a2.54,2.54,0,0,1,.57-1.47,1.46,1.46,0,0,1,1.22-.57,1.93,1.93,0,0,1,.93.35,2.56,2.56,0,0,0,.83.38h.19c.41,0,.69-.28.83-.81Z"/><path class="cls-3" d="M126.48,95.47a5.56,5.56,0,0,1,.71-2.25,4.22,4.22,0,0,1,1.49-1.56,3.61,3.61,0,0,1,2-.52,3,3,0,0,1,1.82.58,3.13,3.13,0,0,1,1.12,1.53,4.92,4.92,0,0,1,.25,2.16,5.82,5.82,0,0,1-.71,2.37,4.23,4.23,0,0,1-1.51,1.57,3.62,3.62,0,0,1-2,.52,3.07,3.07,0,0,1-1.81-.57,3.2,3.2,0,0,1-1.12-1.53,5,5,0,0,1-.26-2.13Zm1.77,1.07a2.2,2.2,0,0,0,.42,1.31,1.34,1.34,0,0,0,1.06.52,1.91,1.91,0,0,0,1.56-.73,3.85,3.85,0,0,0,.78-2.07l.05-.76a2.73,2.73,0,0,0-.39-1.56,1.34,1.34,0,0,0-1.12-.6,2,2,0,0,0-1.82,1.16,4.37,4.37,0,0,0-.51,1.66A6.81,6.81,0,0,0,128.25,96.54Z"/><path class="cls-3" d="M36.6,119a3.39,3.39,0,0,1-1.86-.55A3.1,3.1,0,0,1,33.58,117a4.39,4.39,0,0,1-.28-2l0-.32a5.65,5.65,0,0,1,.73-2.31,4.2,4.2,0,0,1,1.49-1.55,3.6,3.6,0,0,1,1.93-.51,2.69,2.69,0,0,1,2.31,1.18,4.47,4.47,0,0,1,.58,3l-.11.81H35.08a2.36,2.36,0,0,0,.4,1.61,1.53,1.53,0,0,0,1.27.63,2.74,2.74,0,0,0,2.14-1l.91,1a3.29,3.29,0,0,1-1.36,1.17A3.91,3.91,0,0,1,36.6,119Zm.77-7.22c-.95,0-1.67.66-2.14,2.07h3.41l0-.16a2.73,2.73,0,0,0,0-.7,1.49,1.49,0,0,0-.42-.88A1.36,1.36,0,0,0,37.37,111.77Z"/><path class="cls-3" d="M44.15,110.41l-.15.9a3.1,3.1,0,0,1,2.43-1,2.25,2.25,0,0,1,1.28.37,1.71,1.71,0,0,1,.7.93,3.27,3.27,0,0,1,2.61-1.3,2.1,2.1,0,0,1,1.78.85,3.29,3.29,0,0,1,.44,2.27l-.89,5.46h-1.8l.89-5.47a2.68,2.68,0,0,0,0-.63,1,1,0,0,0-1.12-.94,1.89,1.89,0,0,0-1.76,1.26l0,.17-.94,5.61H45.8l.89-5.45a2.59,2.59,0,0,0,0-.62,1,1,0,0,0-1.13-1,2,2,0,0,0-1.68.93l-1,6.11h-1.8l1.42-8.42Z"/><path class="cls-3" d="M63,116.5c.09-.51-.24-.87-1-1.07a15.17,15.17,0,0,1-1.5-.47A2.12,2.12,0,0,1,59,112.87,2.38,2.38,0,0,1,60,111a3.67,3.67,0,0,1,2.32-.73,3.1,3.1,0,0,1,2.13.76,2.43,2.43,0,0,1,.81,1.94H63.49a1.24,1.24,0,0,0-.31-.92,1.26,1.26,0,0,0-.9-.34,1.76,1.76,0,0,0-1,.3,1.14,1.14,0,0,0-.5.79c-.07.48.26.8,1,1a9.83,9.83,0,0,1,1.6.51,2.14,2.14,0,0,1,1.45,2.11,2.44,2.44,0,0,1-.51,1.4,3,3,0,0,1-1.27.91,4.23,4.23,0,0,1-1.7.29,3.27,3.27,0,0,1-2.23-.8,2.51,2.51,0,0,1-.87-2h1.74a1.33,1.33,0,0,0,.4,1,1.49,1.49,0,0,0,1,.36,2,2,0,0,0,1.11-.28A1.08,1.08,0,0,0,63,116.5Z"/><path class="cls-3" d="M71,118a2.93,2.93,0,0,1-2.34,1,2.26,2.26,0,0,1-1.33-.4,2.11,2.11,0,0,1-.75-1.09,4,4,0,0,1-.13-1.63l.89-5.45h1.8l-.9,5.47a3.51,3.51,0,0,0,0,.56c0,.64.37,1,.95,1a2.14,2.14,0,0,0,1.93-1l1-6H74l-1.42,8.42H70.87Z"/><path class="cls-3" d="M82.11,114.67a6.88,6.88,0,0,1-.67,2.32,3.92,3.92,0,0,1-1.29,1.54,3,3,0,0,1-1.74.47,2.4,2.4,0,0,1-2.07-1.08l-.29.92H74.41l2-12h1.8l-.82,4.35a2.77,2.77,0,0,1,2.18-1,2.31,2.31,0,0,1,1.87.9,4,4,0,0,1,.71,2.36C82.17,113.83,82.15,114.22,82.11,114.67Zm-1.73-1A2.23,2.23,0,0,0,80,112.3a1.19,1.19,0,0,0-1-.5,2.13,2.13,0,0,0-1.84,1.08l-.59,3.48a1.44,1.44,0,0,0,1.44,1.1,1.77,1.77,0,0,0,1.5-.71,4.16,4.16,0,0,0,.75-2.09C80.35,114.22,80.38,113.87,80.38,113.62Z"/><path class="cls-3" d="M90.66,114.66A7,7,0,0,1,90,117a3.83,3.83,0,0,1-1.28,1.55A2.88,2.88,0,0,1,87,119a2.54,2.54,0,0,1-2-.93l-.74,4h-1.8l2-11.66H86l-.14.87a2.82,2.82,0,0,1,2.24-1,2.4,2.4,0,0,1,1.36.41,2.53,2.53,0,0,1,.88,1.17,4.54,4.54,0,0,1,.33,1.69A9.5,9.5,0,0,1,90.66,114.66Zm-1.78-.16,0-.57a2.79,2.79,0,0,0-.32-1.56,1.18,1.18,0,0,0-1-.57,2.09,2.09,0,0,0-1.76,1l-.64,3.76a1.39,1.39,0,0,0,1.39,1,1.81,1.81,0,0,0,1.51-.71A4.56,4.56,0,0,0,88.88,114.5Z"/><path class="cls-3" d="M96.91,112.15a2.81,2.81,0,0,0-.71-.08,2.09,2.09,0,0,0-1.88,1l-1,5.77h-1.8L93,110.42h1.71l-.18,1a2.33,2.33,0,0,1,1.94-1.12,3.35,3.35,0,0,1,.7.11Z"/><path class="cls-3" d="M97.07,114.6a5.61,5.61,0,0,1,.71-2.25,4.25,4.25,0,0,1,1.49-1.57,3.7,3.7,0,0,1,2-.52,3.07,3.07,0,0,1,2.94,2.11,5,5,0,0,1,.25,2.17,5.73,5.73,0,0,1-.71,2.36,4.23,4.23,0,0,1-1.5,1.58,3.64,3.64,0,0,1-2,.51,3,3,0,0,1-1.81-.57,3.23,3.23,0,0,1-1.13-1.52,5,5,0,0,1-.25-2.14Zm1.77,1.06a2.3,2.3,0,0,0,.42,1.32,1.35,1.35,0,0,0,1.07.51,1.88,1.88,0,0,0,1.55-.73,3.9,3.9,0,0,0,.79-2.06l0-.76a2.74,2.74,0,0,0-.39-1.57,1.33,1.33,0,0,0-1.12-.6,2,2,0,0,0-1.82,1.16,4.36,4.36,0,0,0-.51,1.67A6.68,6.68,0,0,0,98.84,115.66Z"/><path class="cls-3" d="M113,114.67a7.12,7.12,0,0,1-.67,2.32,3.92,3.92,0,0,1-1.29,1.54,3,3,0,0,1-1.74.47,2.38,2.38,0,0,1-2.07-1.08l-.29.92H105.3l2-12h1.81l-.82,4.35a2.77,2.77,0,0,1,2.18-1,2.3,2.3,0,0,1,1.86.9,3.85,3.85,0,0,1,.71,2.36A10,10,0,0,1,113,114.67Zm-1.73-1a2.22,2.22,0,0,0-.35-1.32,1.15,1.15,0,0,0-1-.5,2.1,2.1,0,0,0-1.84,1.08l-.59,3.48a1.43,1.43,0,0,0,1.43,1.1,1.76,1.76,0,0,0,1.5-.71,4.07,4.07,0,0,0,.76-2.09C111.25,114.22,111.27,113.87,111.28,113.62Z"/><path class="cls-3" d="M115.78,118.84H114l2-12h1.8Z"/><path class="cls-3" d="M121.51,119a3.39,3.39,0,0,1-1.86-.55,3.1,3.1,0,0,1-1.16-1.45,4.39,4.39,0,0,1-.28-2l0-.32a5.81,5.81,0,0,1,.73-2.31,4.28,4.28,0,0,1,1.49-1.55,3.6,3.6,0,0,1,1.93-.51,2.68,2.68,0,0,1,2.31,1.18,4.41,4.41,0,0,1,.58,3l-.11.81H120a2.36,2.36,0,0,0,.4,1.61,1.54,1.54,0,0,0,1.27.63,2.74,2.74,0,0,0,2.14-1l.92,1a3.42,3.42,0,0,1-1.36,1.17A4,4,0,0,1,121.51,119Zm.77-7.22c-1,0-1.67.66-2.14,2.07h3.41l0-.16a2.73,2.73,0,0,0,0-.7,1.44,1.44,0,0,0-.42-.88A1.36,1.36,0,0,0,122.28,111.77Z"/><path class="cls-3" d="M129.07,110.41l-.16.9a3.12,3.12,0,0,1,2.43-1,2.25,2.25,0,0,1,1.28.37,1.67,1.67,0,0,1,.7.93,3.27,3.27,0,0,1,2.61-1.3,2.1,2.1,0,0,1,1.78.85,3.29,3.29,0,0,1,.44,2.27l-.89,5.46h-1.8l.9-5.47a3.31,3.31,0,0,0,0-.63,1,1,0,0,0-1.12-.94,1.9,1.9,0,0,0-1.76,1.26l0,.17-1,5.61h-1.8l.89-5.45a2.59,2.59,0,0,0,0-.62,1,1,0,0,0-1.12-1,2,2,0,0,0-1.69.93l-1,6.11H126l1.42-8.42Z"/><path class="cls-3" d="M144.05,118.84a2.59,2.59,0,0,1-.08-.79,3,3,0,0,1-2.19.94,2.48,2.48,0,0,1-1.78-.7,2.23,2.23,0,0,1-.65-1.75,2.59,2.59,0,0,1,1.12-2.09,4.8,4.8,0,0,1,2.86-.76h1.17l.1-.57a1.81,1.81,0,0,0,0-.57,1,1,0,0,0-1.08-.87,1.68,1.68,0,0,0-1,.3,1.29,1.29,0,0,0-.53.85h-1.8a2.27,2.27,0,0,1,.54-1.36,3.19,3.19,0,0,1,1.29-.92,4.39,4.39,0,0,1,1.7-.31,2.84,2.84,0,0,1,2.09.83,2.49,2.49,0,0,1,.63,2.07l-.63,3.94-.07.7a2.72,2.72,0,0,0,.12.9v.14Zm-1.86-1.36a1.94,1.94,0,0,0,1.06-.26,2.93,2.93,0,0,0,.83-.74l.28-1.59h-.86a2.94,2.94,0,0,0-1.62.39,1.45,1.45,0,0,0-.7,1.08,1,1,0,0,0,.23.82A1.07,1.07,0,0,0,142.19,117.48Z"/><path class="cls-3" d="M152.32,116.5c.08-.51-.24-.87-1-1.07a14.73,14.73,0,0,1-1.51-.47,2.15,2.15,0,0,1-1.51-2.09,2.39,2.39,0,0,1,1-1.88,3.65,3.65,0,0,1,2.32-.73,3.1,3.1,0,0,1,2.13.76,2.43,2.43,0,0,1,.81,1.94H152.8a1.2,1.2,0,0,0-.31-.92,1.26,1.26,0,0,0-.89-.34,1.72,1.72,0,0,0-1,.3,1.11,1.11,0,0,0-.5.79c-.07.48.25.8,1,1a9.83,9.83,0,0,1,1.6.51,2.14,2.14,0,0,1,1.45,2.11,2.38,2.38,0,0,1-.52,1.4,2.93,2.93,0,0,1-1.27.91,4.18,4.18,0,0,1-1.69.29,3.26,3.26,0,0,1-2.23-.8,2.51,2.51,0,0,1-.87-2h1.74a1.36,1.36,0,0,0,.39,1,1.51,1.51,0,0,0,1,.36,2,2,0,0,0,1.12-.28A1.14,1.14,0,0,0,152.32,116.5Z"/><path class="cls-3" d="M385.18,80.64h-1.87l1.92-11.33h1.87Z"/><path class="cls-3" d="M390.45,72.22l-.18,1a3.14,3.14,0,0,1,2.44-1.13,2,2,0,0,1,1.71.84,3.47,3.47,0,0,1,.41,2.29l-.89,5.44h-1.8l.9-5.46a3.21,3.21,0,0,0,0-.62,1,1,0,0,0-1.07-1,2.15,2.15,0,0,0-1.8,1l-1,6h-1.8l1.42-8.42Z"/><path class="cls-3" d="M396.22,76.43a6.87,6.87,0,0,1,.69-2.34,3.88,3.88,0,0,1,1.31-1.54,2.94,2.94,0,0,1,1.74-.49,2.39,2.39,0,0,1,2,1l.79-4.33h1.81l-2,12h-1.61l.12-.87a2.85,2.85,0,0,1-2.25,1,2.25,2.25,0,0,1-1.83-.91,4,4,0,0,1-.74-2.37,5.85,5.85,0,0,1,0-.94Zm1.75.72a2.69,2.69,0,0,0,.29,1.53,1.17,1.17,0,0,0,1,.59,2.1,2.1,0,0,0,1.8-1l.62-3.62a1.41,1.41,0,0,0-1.39-1,1.85,1.85,0,0,0-1.66.93A5.08,5.08,0,0,0,398,77.15Z"/><path class="cls-3" d="M406.33,80.64h-1.8L406,72.22h1.8Zm-.11-10.57a1,1,0,0,1,.27-.73,1.06,1.06,0,0,1,1.47,0,1,1,0,0,1,.29.72,1,1,0,0,1-.28.73,1,1,0,0,1-.73.3,1,1,0,0,1-.73-.27A1,1,0,0,1,406.22,70.07Z"/><path class="cls-3" d="M411.58,78.22l2.59-6h1.93l-4.05,8.42h-1.57L409,72.22h1.81Z"/><path class="cls-3" d="M417.8,80.64H416l1.42-8.42h1.8Zm-.12-10.57a1,1,0,0,1,.28-.73.94.94,0,0,1,.73-.32,1,1,0,0,1,.74.27,1.05,1.05,0,0,1,0,1.45,1,1,0,0,1-.72.3,1,1,0,0,1-.73-.27A.92.92,0,0,1,417.68,70.07Z"/><path class="cls-3" d="M420.2,76.43a6.66,6.66,0,0,1,.69-2.34,3.88,3.88,0,0,1,1.31-1.54,2.94,2.94,0,0,1,1.74-.49,2.41,2.41,0,0,1,2,1l.79-4.33h1.8l-2,12h-1.61l.12-.87a2.85,2.85,0,0,1-2.25,1,2.25,2.25,0,0,1-1.83-.91,4,4,0,0,1-.74-2.37,5.85,5.85,0,0,1,0-.94Zm1.75.72a2.61,2.61,0,0,0,.29,1.53,1.16,1.16,0,0,0,1,.59,2.12,2.12,0,0,0,1.8-1l.61-3.62a1.39,1.39,0,0,0-1.38-1,1.84,1.84,0,0,0-1.66.93A5.08,5.08,0,0,0,422,77.15Z"/><path class="cls-3" d="M433.47,79.81a2.93,2.93,0,0,1-2.33,1,2.24,2.24,0,0,1-1.33-.41,2.12,2.12,0,0,1-.75-1.08,4.09,4.09,0,0,1-.13-1.64l.88-5.45h1.8l-.89,5.47a3.53,3.53,0,0,0,0,.56c.05.65.37,1,1,1a2.17,2.17,0,0,0,1.93-1l1-6.06h1.8L435,80.64h-1.68Z"/><path class="cls-3" d="M441.74,80.64a2.53,2.53,0,0,1-.08-.78,3,3,0,0,1-2.19.94,2.49,2.49,0,0,1-1.78-.71,2.17,2.17,0,0,1-.65-1.74,2.6,2.6,0,0,1,1.12-2.1,4.86,4.86,0,0,1,2.85-.76l1.17,0,.11-.58a1.82,1.82,0,0,0,0-.57,1,1,0,0,0-1.08-.86,1.62,1.62,0,0,0-1,.3,1.27,1.27,0,0,0-.53.84l-1.8,0a2.3,2.3,0,0,1,.54-1.37,3.17,3.17,0,0,1,1.29-.91,4.21,4.21,0,0,1,1.7-.31,2.8,2.8,0,0,1,2.09.83,2.51,2.51,0,0,1,.63,2.06l-.64,4-.06.7a2.7,2.7,0,0,0,.12.89v.14Zm-1.86-1.35a2,2,0,0,0,1.06-.27,2.89,2.89,0,0,0,.83-.73l.28-1.6h-.86a2.91,2.91,0,0,0-1.63.4,1.46,1.46,0,0,0-.69,1.07,1,1,0,0,0,.23.82A1.08,1.08,0,0,0,439.88,79.29Z"/><path class="cls-3" d="M447,80.64h-1.8l2-12H449Z"/><path class="cls-3" d="M450.93,80.64h-1.8l1.43-8.42h1.8Zm-.11-10.57a1,1,0,0,1,.27-.73,1,1,0,0,1,.74-.32,1,1,0,0,1,.73.27,1,1,0,0,1,.29.72,1,1,0,0,1-.28.73,1,1,0,0,1-.73.3,1,1,0,0,1-.73-.27A1,1,0,0,1,450.82,70.07Z"/><path class="cls-3" d="M455.19,79.13h4.18l-.26,1.51h-6.48l.23-1.33,4.92-5.56h-3.91l.27-1.53h6.25l-.22,1.29Z"/><path class="cls-3" d="M465.49,80.64a2.53,2.53,0,0,1-.08-.78,3,3,0,0,1-2.19.94,2.49,2.49,0,0,1-1.78-.71,2.21,2.21,0,0,1-.65-1.74,2.6,2.6,0,0,1,1.12-2.1,4.87,4.87,0,0,1,2.86-.76l1.17,0,.1-.58a1.82,1.82,0,0,0,0-.57A1,1,0,0,0,465,73.5a1.62,1.62,0,0,0-1,.3,1.27,1.27,0,0,0-.53.84l-1.8,0a2.3,2.3,0,0,1,.54-1.37,3.17,3.17,0,0,1,1.29-.91,4.21,4.21,0,0,1,1.7-.31,2.8,2.8,0,0,1,2.09.83,2.51,2.51,0,0,1,.63,2.06l-.63,4-.06.7a2.45,2.45,0,0,0,.11.89v.14Zm-1.85-1.35a1.94,1.94,0,0,0,1.05-.27,2.89,2.89,0,0,0,.83-.73l.28-1.6h-.86a2.86,2.86,0,0,0-1.62.4,1.41,1.41,0,0,0-.69,1.07.93.93,0,0,0,.22.82A1.08,1.08,0,0,0,463.64,79.29Z"/><path class="cls-3" d="M472.43,79.3a1.68,1.68,0,0,0,1.14-.39,1.76,1.76,0,0,0,.63-1h1.7a3,3,0,0,1-.58,1.51,3.39,3.39,0,0,1-1.3,1.07,3.61,3.61,0,0,1-1.65.36,3.08,3.08,0,0,1-1.8-.56,3.14,3.14,0,0,1-1.08-1.51,4.82,4.82,0,0,1-.23-2.14l0-.27a5.62,5.62,0,0,1,.7-2.22,4.14,4.14,0,0,1,1.46-1.53,3.67,3.67,0,0,1,2-.5,2.84,2.84,0,0,1,2.13.9,3.24,3.24,0,0,1,.8,2.28h-1.68a1.9,1.9,0,0,0-.35-1.18,1.24,1.24,0,0,0-1-.49,1.8,1.8,0,0,0-1.66.92,5.24,5.24,0,0,0-.66,2.67C471,78.57,471.45,79.28,472.43,79.3Zm.19,1.35-.15.46a1.14,1.14,0,0,1,.71.44,1.28,1.28,0,0,1,.23.82,1.53,1.53,0,0,1-.69,1.31,3.62,3.62,0,0,1-1.94.51l0-1.1c.69,0,1.08-.28,1.16-.74,0-.31-.14-.5-.56-.57l-.42,0,.34-1.06Z"/><path class="cls-3" d="M481.7,80.64a2.53,2.53,0,0,1-.08-.78,3,3,0,0,1-2.19.94,2.45,2.45,0,0,1-1.77-.71,2.18,2.18,0,0,1-.66-1.74,2.6,2.6,0,0,1,1.12-2.1,4.87,4.87,0,0,1,2.86-.76l1.17,0,.1-.58a1.82,1.82,0,0,0,0-.57,1,1,0,0,0-1.08-.86,1.62,1.62,0,0,0-1,.3,1.27,1.27,0,0,0-.53.84l-1.8,0a2.3,2.3,0,0,1,.54-1.37,3.17,3.17,0,0,1,1.29-.91,4.21,4.21,0,0,1,1.7-.31,2.78,2.78,0,0,1,2.09.83,2.48,2.48,0,0,1,.63,2.06l-.63,4-.06.7a2.45,2.45,0,0,0,.11.89v.14Zm-1.85-1.35a1.94,1.94,0,0,0,1-.27,2.89,2.89,0,0,0,.83-.73l.28-1.6h-.86a2.86,2.86,0,0,0-1.62.4,1.41,1.41,0,0,0-.69,1.07,1,1,0,0,0,.22.82A1.08,1.08,0,0,0,479.85,79.29Zm4.87-10.43a2.46,2.46,0,0,1-.58,1.47,1.55,1.55,0,0,1-1.2.55,1.09,1.09,0,0,1-.36-.06,3,3,0,0,1-.57-.29,5,5,0,0,0-.61-.31,1.16,1.16,0,0,0-.42-.07c-.4,0-.66.29-.8.81l-1.13-.06a2.54,2.54,0,0,1,.57-1.47,1.47,1.47,0,0,1,1.22-.58,2.12,2.12,0,0,1,.93.36,2.81,2.81,0,0,0,.83.38h.19c.41,0,.69-.28.83-.81Z"/><path class="cls-3" d="M485.49,76.4a5.56,5.56,0,0,1,.71-2.25,4.22,4.22,0,0,1,1.49-1.56,3.61,3.61,0,0,1,2-.52,3.1,3.1,0,0,1,1.82.57,3.21,3.21,0,0,1,1.12,1.54,4.9,4.9,0,0,1,.25,2.16,5.82,5.82,0,0,1-.71,2.37,4.23,4.23,0,0,1-1.51,1.57,3.62,3.62,0,0,1-2,.52,3.09,3.09,0,0,1-1.81-.57,3.2,3.2,0,0,1-1.12-1.53,5,5,0,0,1-.26-2.13Zm1.77,1.07a2.2,2.2,0,0,0,.42,1.31,1.34,1.34,0,0,0,1.06.52,1.89,1.89,0,0,0,1.56-.74,3.82,3.82,0,0,0,.78-2.06l.05-.76a2.73,2.73,0,0,0-.39-1.56,1.34,1.34,0,0,0-1.12-.6,2,2,0,0,0-1.82,1.16,4.31,4.31,0,0,0-.51,1.66A6.81,6.81,0,0,0,487.26,77.47Z"/><path class="cls-3" d="M488,174.69h-2.11l-.75,4.35h-1.87l1.92-11.33h3.48a3.93,3.93,0,0,1,2.76.89,2.87,2.87,0,0,1,.83,2.47,3.48,3.48,0,0,1-.72,1.9,4.17,4.17,0,0,1-1.77,1.27l1.64,4.68V179h-2Zm-1.86-1.59H488a2.56,2.56,0,0,0,1.64-.52,2.14,2.14,0,0,0,.77-1.43,1.64,1.64,0,0,0-.31-1.35,1.7,1.7,0,0,0-1.26-.5h-2Z"/><path class="cls-3" d="M496.3,179.2a3.42,3.42,0,0,1-1.85-.55,3.14,3.14,0,0,1-1.16-1.45,4.43,4.43,0,0,1-.29-2l0-.32a5.82,5.82,0,0,1,.74-2.3,4.21,4.21,0,0,1,1.48-1.56,3.53,3.53,0,0,1,1.93-.5,2.66,2.66,0,0,1,2.31,1.17,4.37,4.37,0,0,1,.58,3l-.1.81h-5.17a2.29,2.29,0,0,0,.39,1.61,1.55,1.55,0,0,0,1.28.63,2.75,2.75,0,0,0,2.14-1l.91,1a3.59,3.59,0,0,1-1.36,1.17A4,4,0,0,1,496.3,179.2Zm.77-7.22c-.95,0-1.66.66-2.14,2.07h3.41l0-.17a2.74,2.74,0,0,0,0-.7,1.44,1.44,0,0,0-.43-.87A1.31,1.31,0,0,0,497.07,172Z"/><path class="cls-3" d="M505.67,176.71c.08-.51-.24-.87-1-1.07a12,12,0,0,1-1.51-.48,2.14,2.14,0,0,1-1.51-2.09,2.37,2.37,0,0,1,1-1.87,3.6,3.6,0,0,1,2.32-.73,3.14,3.14,0,0,1,2.13.75,2.45,2.45,0,0,1,.81,1.94h-1.79a1.18,1.18,0,0,0-.31-.91,1.27,1.27,0,0,0-.9-.35,1.67,1.67,0,0,0-1,.31,1.09,1.09,0,0,0-.5.79c-.07.47.25.8,1,1a11.6,11.6,0,0,1,1.59.51,2.15,2.15,0,0,1,1.46,2.12,2.4,2.4,0,0,1-.52,1.4,3,3,0,0,1-1.27.91,4.36,4.36,0,0,1-1.69.29,3.31,3.31,0,0,1-2.23-.8,2.55,2.55,0,0,1-.87-2h1.74a1.4,1.4,0,0,0,.39,1,1.5,1.5,0,0,0,1,.35,2,2,0,0,0,1.12-.28A1.11,1.11,0,0,0,505.67,176.71Z"/><path class="cls-3" d="M509.05,174.8a5.56,5.56,0,0,1,.71-2.25,4.22,4.22,0,0,1,1.49-1.56,3.59,3.59,0,0,1,2-.52,3.1,3.1,0,0,1,1.82.57,3.27,3.27,0,0,1,1.12,1.54,5.07,5.07,0,0,1,.25,2.16,6,6,0,0,1-.71,2.37,4.3,4.3,0,0,1-1.51,1.57,3.62,3.62,0,0,1-2,.52,3.07,3.07,0,0,1-1.81-.57,3.2,3.2,0,0,1-1.12-1.53A5,5,0,0,1,509,175Zm1.76,1.07a2.27,2.27,0,0,0,.43,1.31,1.34,1.34,0,0,0,1.06.52,1.88,1.88,0,0,0,1.55-.73,4,4,0,0,0,.79-2.07l.05-.76a2.73,2.73,0,0,0-.39-1.56,1.34,1.34,0,0,0-1.12-.6,2,2,0,0,0-1.83,1.16,4.55,4.55,0,0,0-.51,1.66A6.81,6.81,0,0,0,510.81,175.87Z"/><path class="cls-3" d="M519.19,179h-1.8l2-11.95h1.8Z"/><path class="cls-3" d="M526.28,178.21a2.94,2.94,0,0,1-2.34,1,2.23,2.23,0,0,1-1.32-.41,2,2,0,0,1-.75-1.08,4.08,4.08,0,0,1-.14-1.64l.89-5.45h1.8l-.9,5.47a2.62,2.62,0,0,0,0,.56c.05.65.36,1,1,1a2.16,2.16,0,0,0,1.92-1l1-6.06h1.8L527.81,179h-1.69Z"/><path class="cls-3" d="M533.24,177.7a1.77,1.77,0,0,0,1.78-1.43h1.7a2.92,2.92,0,0,1-.59,1.51,3.36,3.36,0,0,1-1.29,1.07,3.54,3.54,0,0,1-1.65.36,3,3,0,0,1-2.89-2.07,5,5,0,0,1-.22-2.14l0-.27a5.62,5.62,0,0,1,.7-2.22,4.06,4.06,0,0,1,1.46-1.53,3.64,3.64,0,0,1,2-.5,2.84,2.84,0,0,1,2.13.9,3.29,3.29,0,0,1,.8,2.28h-1.69a1.9,1.9,0,0,0-.34-1.18,1.25,1.25,0,0,0-1-.49,1.81,1.81,0,0,0-1.67.92,5.24,5.24,0,0,0-.65,2.67Q531.78,177.67,533.24,177.7Zm.19,1.35-.14.46a1.16,1.16,0,0,1,.71.44,1.28,1.28,0,0,1,.23.82,1.53,1.53,0,0,1-.69,1.31,3.65,3.65,0,0,1-1.94.51v-1.1c.69,0,1.08-.28,1.16-.74.05-.31-.14-.5-.55-.57l-.43-.05.35-1.06Z"/><path class="cls-3" d="M542.51,179a2.56,2.56,0,0,1-.07-.78,3,3,0,0,1-2.2.94,2.49,2.49,0,0,1-1.77-.71,2.18,2.18,0,0,1-.66-1.74,2.61,2.61,0,0,1,1.13-2.1,4.86,4.86,0,0,1,2.85-.76l1.17,0,.11-.58a1.82,1.82,0,0,0,0-.57,1,1,0,0,0-1.09-.86,1.61,1.61,0,0,0-1,.3,1.32,1.32,0,0,0-.54.84l-1.79,0a2.35,2.35,0,0,1,.53-1.37,3.28,3.28,0,0,1,1.3-.91,4.21,4.21,0,0,1,1.7-.31,2.84,2.84,0,0,1,2.09.83,2.48,2.48,0,0,1,.62,2.06l-.63,3.95-.06.7a2.7,2.7,0,0,0,.12.89V179Zm-1.85-1.35a2,2,0,0,0,1.06-.27,2.89,2.89,0,0,0,.83-.73l.28-1.6H542a2.91,2.91,0,0,0-1.63.4,1.46,1.46,0,0,0-.69,1.07,1,1,0,0,0,.23.82A1.08,1.08,0,0,0,540.66,177.69Zm4.88-10.43a2.52,2.52,0,0,1-.58,1.47,1.55,1.55,0,0,1-1.21.55,1,1,0,0,1-.35-.06,3,3,0,0,1-.58-.29,4.38,4.38,0,0,0-.6-.31,1.16,1.16,0,0,0-.42-.07c-.4,0-.67.29-.8.81l-1.14-.06a2.61,2.61,0,0,1,.57-1.47,1.51,1.51,0,0,1,1.23-.58,2.12,2.12,0,0,1,.93.36,2.56,2.56,0,0,0,.83.38h.19c.41,0,.68-.28.83-.81Z"/><path class="cls-3" d="M546.3,174.8a5.88,5.88,0,0,1,.71-2.25,4.33,4.33,0,0,1,1.5-1.56,3.59,3.59,0,0,1,2-.52,3.1,3.1,0,0,1,1.82.57,3.27,3.27,0,0,1,1.12,1.54,4.92,4.92,0,0,1,.24,2.16,5.67,5.67,0,0,1-.71,2.37,4.2,4.2,0,0,1-1.5,1.57,3.65,3.65,0,0,1-2,.52,3.07,3.07,0,0,1-1.81-.57,3.2,3.2,0,0,1-1.12-1.53,5,5,0,0,1-.26-2.13Zm1.77,1.07a2.35,2.35,0,0,0,.42,1.31,1.37,1.37,0,0,0,1.07.52,1.88,1.88,0,0,0,1.55-.73,4,4,0,0,0,.79-2.07l.05-.76a2.73,2.73,0,0,0-.39-1.56,1.35,1.35,0,0,0-1.13-.6,2,2,0,0,0-1.82,1.16,4.37,4.37,0,0,0-.51,1.66A6.81,6.81,0,0,0,548.07,175.87Z"/><path class="cls-3" d="M483.49,194a6.81,6.81,0,0,1,.68-2.33,3.91,3.91,0,0,1,1.31-1.55,3.06,3.06,0,0,1,1.74-.49,2.39,2.39,0,0,1,2,1l.79-4.32h1.81l-2,11.95h-1.61l.12-.87a2.81,2.81,0,0,1-2.24,1,2.23,2.23,0,0,1-1.84-.91,4,4,0,0,1-.74-2.36,7.45,7.45,0,0,1,0-.95Zm1.74.72a2.7,2.7,0,0,0,.3,1.54,1.15,1.15,0,0,0,1,.58,2.09,2.09,0,0,0,1.8-1l.62-3.62a1.41,1.41,0,0,0-1.38-1,1.83,1.83,0,0,0-1.66.94A5,5,0,0,0,485.23,194.67Z"/><path class="cls-3" d="M492.11,193.93a5.77,5.77,0,0,1,.71-2.25,4.34,4.34,0,0,1,1.49-1.57,3.73,3.73,0,0,1,2-.52,3,3,0,0,1,1.82.58,3.2,3.2,0,0,1,1.12,1.53,4.92,4.92,0,0,1,.24,2.16,5.58,5.58,0,0,1-.71,2.37,4.31,4.31,0,0,1-1.5,1.58,3.72,3.72,0,0,1-2,.51,3.07,3.07,0,0,1-1.81-.57,3.22,3.22,0,0,1-1.12-1.52,4.85,4.85,0,0,1-.26-2.14Zm1.77,1.06a2.32,2.32,0,0,0,.42,1.31,1.34,1.34,0,0,0,1.07.52,1.85,1.85,0,0,0,1.55-.73,3.9,3.9,0,0,0,.79-2.06l.05-.76a2.74,2.74,0,0,0-.39-1.57,1.36,1.36,0,0,0-1.13-.6,2,2,0,0,0-1.82,1.16,4.36,4.36,0,0,0-.51,1.67A6.68,6.68,0,0,0,493.88,195Z"/><path class="cls-3" d="M509.09,195.83c.09-.51-.24-.87-1-1.07a12,12,0,0,1-1.51-.48,2.11,2.11,0,0,1-1.51-2.08,2.37,2.37,0,0,1,1-1.88,3.61,3.61,0,0,1,2.32-.73,3.1,3.1,0,0,1,2.13.76,2.43,2.43,0,0,1,.81,1.93h-1.78a1.24,1.24,0,0,0-.31-.92,1.26,1.26,0,0,0-.9-.34,1.76,1.76,0,0,0-1,.3,1.14,1.14,0,0,0-.5.79c-.07.48.26.8,1,1a9.65,9.65,0,0,1,1.59.51,2.12,2.12,0,0,1,1.45,2.11,2.37,2.37,0,0,1-.51,1.4,3,3,0,0,1-1.27.91,4.23,4.23,0,0,1-1.7.29,3.27,3.27,0,0,1-2.23-.8,2.51,2.51,0,0,1-.87-2H506a1.37,1.37,0,0,0,.4,1,1.54,1.54,0,0,0,1,.36,2,2,0,0,0,1.11-.29A1,1,0,0,0,509.09,195.83Z"/><path class="cls-3" d="M517.12,197.33a3,3,0,0,1-2.34,1,2.26,2.26,0,0,1-1.33-.4,2.11,2.11,0,0,1-.75-1.09,4.07,4.07,0,0,1-.13-1.64l.89-5.44h1.8l-.9,5.47a3.51,3.51,0,0,0,0,.56c0,.64.37,1,.95,1a2.14,2.14,0,0,0,1.93-1l1-6.05h1.8l-1.42,8.42H517Z"/><path class="cls-3" d="M528.2,194a6.88,6.88,0,0,1-.67,2.32,3.92,3.92,0,0,1-1.29,1.54,3,3,0,0,1-1.74.47,2.4,2.4,0,0,1-2.07-1.08l-.29.92h-1.65l2-11.95h1.81l-.82,4.34a2.79,2.79,0,0,1,2.18-1,2.31,2.31,0,0,1,1.87.9,4,4,0,0,1,.71,2.36C528.26,193.16,528.24,193.55,528.2,194ZM526.47,193a2.23,2.23,0,0,0-.34-1.32,1.19,1.19,0,0,0-1-.5,2.11,2.11,0,0,0-1.84,1.08l-.59,3.48a1.44,1.44,0,0,0,1.44,1.1,1.77,1.77,0,0,0,1.5-.72,4.09,4.09,0,0,0,.75-2.08C526.44,193.55,526.47,193.2,526.47,193Z"/><path class="cls-3" d="M536.75,194a7.25,7.25,0,0,1-.65,2.29,3.93,3.93,0,0,1-1.29,1.55,2.88,2.88,0,0,1-1.74.5,2.54,2.54,0,0,1-2-.93l-.74,4h-1.8l2-11.65h1.65l-.14.87a2.83,2.83,0,0,1,2.24-1,2.38,2.38,0,0,1,1.36.41,2.55,2.55,0,0,1,.88,1.16,4.64,4.64,0,0,1,.33,1.7A9.5,9.5,0,0,1,536.75,194Zm-1.78-.16,0-.57a2.79,2.79,0,0,0-.32-1.56,1.18,1.18,0,0,0-1-.57,2.09,2.09,0,0,0-1.76,1l-.64,3.76a1.4,1.4,0,0,0,1.39,1,1.8,1.8,0,0,0,1.51-.72A4.49,4.49,0,0,0,535,193.83Z"/><path class="cls-3" d="M543,191.48a2.81,2.81,0,0,0-.71-.08,2.1,2.1,0,0,0-1.88,1l-1,5.77h-1.8l1.42-8.42h1.71l-.18,1a2.33,2.33,0,0,1,1.94-1.12,3.35,3.35,0,0,1,.7.11Z"/><path class="cls-3" d="M543.16,193.93a5.61,5.61,0,0,1,.71-2.25,4.25,4.25,0,0,1,1.49-1.57,3.7,3.7,0,0,1,2-.52,3,3,0,0,1,1.82.58,3.07,3.07,0,0,1,1.12,1.53,4.92,4.92,0,0,1,.25,2.16,5.73,5.73,0,0,1-.71,2.37,4.31,4.31,0,0,1-1.5,1.58,3.72,3.72,0,0,1-2,.51,3.1,3.1,0,0,1-1.82-.57,3.2,3.2,0,0,1-1.11-1.52,4.85,4.85,0,0,1-.26-2.14Zm1.77,1.06a2.25,2.25,0,0,0,.42,1.31,1.33,1.33,0,0,0,1.07.52,1.88,1.88,0,0,0,1.55-.73,3.9,3.9,0,0,0,.79-2.06l0-.76a2.74,2.74,0,0,0-.39-1.57,1.33,1.33,0,0,0-1.12-.6,2,2,0,0,0-1.82,1.16,4.36,4.36,0,0,0-.51,1.67A6.68,6.68,0,0,0,544.93,195Z"/><path class="cls-3" d="M559.1,194a7.12,7.12,0,0,1-.67,2.32,3.86,3.86,0,0,1-1.3,1.54,3,3,0,0,1-1.73.47,2.38,2.38,0,0,1-2.07-1.08l-.29.92h-1.65l2-11.95h1.81l-.82,4.34a2.79,2.79,0,0,1,2.18-1,2.3,2.3,0,0,1,1.86.9,3.85,3.85,0,0,1,.71,2.36A10,10,0,0,1,559.1,194ZM557.37,193a2.22,2.22,0,0,0-.35-1.32,1.15,1.15,0,0,0-1-.5,2.1,2.1,0,0,0-1.84,1.08l-.59,3.48a1.44,1.44,0,0,0,1.43,1.1,1.74,1.74,0,0,0,1.5-.72,4.09,4.09,0,0,0,.76-2.08C557.34,193.55,557.36,193.2,557.37,193Z"/><path class="cls-3" d="M561.87,198.17h-1.8l2-11.95h1.8Z"/><path class="cls-3" d="M567.6,198.32a3.33,3.33,0,0,1-1.85-.55,3.06,3.06,0,0,1-1.17-1.45,4.39,4.39,0,0,1-.28-2l0-.32a5.81,5.81,0,0,1,.73-2.31,4.28,4.28,0,0,1,1.49-1.55,3.6,3.6,0,0,1,1.93-.51,2.67,2.67,0,0,1,2.31,1.18,4.4,4.4,0,0,1,.58,3l-.11.81h-5.17a2.37,2.37,0,0,0,.4,1.62,1.54,1.54,0,0,0,1.27.63,2.74,2.74,0,0,0,2.14-1l.92,1a3.59,3.59,0,0,1-1.36,1.17A4,4,0,0,1,567.6,198.32Zm.77-7.22c-1,0-1.67.66-2.14,2.07h3.41l0-.16a2.75,2.75,0,0,0,0-.7,1.5,1.5,0,0,0-.43-.88A1.36,1.36,0,0,0,568.37,191.1Z"/><path class="cls-3" d="M575.16,189.74l-.16.9a3.13,3.13,0,0,1,2.43-1,2.25,2.25,0,0,1,1.28.37,1.68,1.68,0,0,1,.7.92,3.29,3.29,0,0,1,2.61-1.29,2.1,2.1,0,0,1,1.78.85,3.29,3.29,0,0,1,.44,2.27l-.89,5.46h-1.8l.9-5.47a3.31,3.31,0,0,0,0-.63,1,1,0,0,0-1.12-.94,1.9,1.9,0,0,0-1.76,1.26l0,.17-.95,5.61h-1.8l.89-5.45a2.59,2.59,0,0,0,0-.62,1,1,0,0,0-1.12-1,2,2,0,0,0-1.69.93l-1,6.11h-1.8l1.42-8.42Z"/><path class="cls-3" d="M590.14,198.17a2.59,2.59,0,0,1-.08-.79,3,3,0,0,1-2.19.94,2.44,2.44,0,0,1-1.77-.7,2.2,2.2,0,0,1-.66-1.75,2.58,2.58,0,0,1,1.12-2.09,4.8,4.8,0,0,1,2.86-.76h1.17l.1-.57a1.81,1.81,0,0,0,0-.57,1,1,0,0,0-1.08-.87,1.62,1.62,0,0,0-1,.3,1.27,1.27,0,0,0-.53.85h-1.8a2.25,2.25,0,0,1,.54-1.36,3.19,3.19,0,0,1,1.29-.92,4.39,4.39,0,0,1,1.7-.31,2.84,2.84,0,0,1,2.09.83,2.49,2.49,0,0,1,.63,2.07l-.63,3.94-.06.7a2.48,2.48,0,0,0,.11.9v.14Zm-1.85-1.36a2,2,0,0,0,1.05-.26,2.93,2.93,0,0,0,.83-.74l.28-1.6h-.86a2.94,2.94,0,0,0-1.62.39,1.41,1.41,0,0,0-.69,1.08.94.94,0,0,0,.22.82A1.08,1.08,0,0,0,588.29,196.81Z"/><path class="cls-3" d="M465.81,414.08H463.7l-.75,4.35h-1.87L463,407.1h3.48a3.93,3.93,0,0,1,2.76.89,2.87,2.87,0,0,1,.83,2.47,3.45,3.45,0,0,1-.72,1.9,4.14,4.14,0,0,1-1.76,1.27l1.63,4.68v.11h-2ZM464,412.49h1.81a2.56,2.56,0,0,0,1.64-.52,2.1,2.1,0,0,0,.77-1.43,1.66,1.66,0,0,0-.31-1.35,1.69,1.69,0,0,0-1.26-.5h-2Z"/><path class="cls-3" d="M474.12,418.59a3.43,3.43,0,0,1-1.86-.55,3.2,3.2,0,0,1-1.16-1.45,4.41,4.41,0,0,1-.29-2l0-.32a5.66,5.66,0,0,1,.73-2.3,4.29,4.29,0,0,1,1.48-1.56,3.53,3.53,0,0,1,1.93-.5,2.65,2.65,0,0,1,2.31,1.18,4.33,4.33,0,0,1,.58,3l-.1.81H472.6a2.28,2.28,0,0,0,.39,1.61,1.56,1.56,0,0,0,1.28.63,2.74,2.74,0,0,0,2.14-1l.91,1a3.52,3.52,0,0,1-1.36,1.17A3.94,3.94,0,0,1,474.12,418.59Zm.76-7.22c-.95,0-1.66.66-2.14,2.07h3.41l0-.17a2.35,2.35,0,0,0,0-.7,1.44,1.44,0,0,0-.43-.87A1.29,1.29,0,0,0,474.88,411.37Z"/><path class="cls-3" d="M486.26,414.26a6.87,6.87,0,0,1-.66,2.28,3.88,3.88,0,0,1-1.28,1.56,3,3,0,0,1-1.75.5,2.55,2.55,0,0,1-2-.94l-.73,4H478L480,410h1.65l-.13.87a2.8,2.8,0,0,1,2.24-1,2.33,2.33,0,0,1,1.36.41,2.51,2.51,0,0,1,.88,1.16,4.81,4.81,0,0,1,.33,1.7C486.31,413.44,486.3,413.82,486.26,414.26Zm-1.78-.17,0-.57a2.84,2.84,0,0,0-.32-1.55,1.18,1.18,0,0,0-1-.57,2.07,2.07,0,0,0-1.76,1l-.64,3.75a1.4,1.4,0,0,0,1.39,1,1.85,1.85,0,0,0,1.51-.72A4.58,4.58,0,0,0,484.48,414.09Z"/><path class="cls-3" d="M490.85,418.59A3.48,3.48,0,0,1,489,418a3.2,3.2,0,0,1-1.16-1.45,4.41,4.41,0,0,1-.28-2l0-.32a5.81,5.81,0,0,1,.73-2.3,4.23,4.23,0,0,1,1.49-1.56,3.51,3.51,0,0,1,1.93-.5A2.67,2.67,0,0,1,494,411a4.44,4.44,0,0,1,.58,3l-.11.81h-5.17a2.33,2.33,0,0,0,.4,1.61,1.54,1.54,0,0,0,1.27.63,2.73,2.73,0,0,0,2.14-1l.91,1a3.49,3.49,0,0,1-1.35,1.17A4,4,0,0,1,490.85,418.59Zm.77-7.22c-.95,0-1.67.66-2.14,2.07h3.41l0-.17a2.73,2.73,0,0,0,0-.7,1.38,1.38,0,0,0-.42-.87A1.31,1.31,0,0,0,491.62,411.37Z"/><path class="cls-3" d="M499.33,408l-.35,2h1.41l-.24,1.41h-1.41l-.78,4.71a2,2,0,0,0,0,.35c0,.34.23.51.6.53a3.12,3.12,0,0,0,.64-.07l-.12,1.48a4,4,0,0,1-1.13.16,1.66,1.66,0,0,1-1.41-.66,2.45,2.45,0,0,1-.37-1.7l.77-4.8h-1.31l.24-1.41h1.31l.34-2Z"/><path class="cls-3" d="M502.31,418.43h-1.8l1.43-8.42h1.8Zm-.12-10.57a1.05,1.05,0,0,1,.28-.73,1,1,0,0,1,.73-.32,1,1,0,0,1,.74.27,1,1,0,0,1,.29.72,1,1,0,0,1-.29.73,1,1,0,0,1-.72.3,1,1,0,0,1-.73-.27A.92.92,0,0,1,502.19,407.86Z"/><path class="cls-3" d="M509.7,411.74a3.43,3.43,0,0,0-.71-.08,2.09,2.09,0,0,0-1.88,1l-1,5.76h-1.8l1.42-8.42h1.71l-.18.95a2.35,2.35,0,0,1,1.94-1.12,2.76,2.76,0,0,1,.69.12Z"/><path class="cls-3" d="M517.11,417.09a1.69,1.69,0,0,0,1.15-.39,1.73,1.73,0,0,0,.63-1h1.7a3,3,0,0,1-.59,1.52,3.35,3.35,0,0,1-1.29,1.06,3.54,3.54,0,0,1-1.65.36,2.94,2.94,0,0,1-2.88-2.07,4.82,4.82,0,0,1-.23-2.14l0-.27a5.67,5.67,0,0,1,.7-2.22,4.06,4.06,0,0,1,1.46-1.53,3.64,3.64,0,0,1,2-.5,2.81,2.81,0,0,1,2.13.91,3.24,3.24,0,0,1,.8,2.27h-1.69a1.9,1.9,0,0,0-.34-1.18,1.25,1.25,0,0,0-1-.49,1.79,1.79,0,0,0-1.66.92,5.14,5.14,0,0,0-.66,2.67Q515.66,417.06,517.11,417.09Z"/><path class="cls-3" d="M521.94,414.19a5.56,5.56,0,0,1,.71-2.25,4.22,4.22,0,0,1,1.49-1.56,3.59,3.59,0,0,1,2-.52,3,3,0,0,1,1.82.58A3.2,3.2,0,0,1,529.1,412a5.07,5.07,0,0,1,.25,2.16,6,6,0,0,1-.71,2.37,4.3,4.3,0,0,1-1.51,1.57,3.62,3.62,0,0,1-2,.52,3.07,3.07,0,0,1-1.81-.57,3.2,3.2,0,0,1-1.12-1.53,5,5,0,0,1-.26-2.13Zm1.76,1.07a2.27,2.27,0,0,0,.43,1.31,1.34,1.34,0,0,0,1.06.52,1.91,1.91,0,0,0,1.56-.73,3.93,3.93,0,0,0,.78-2.07l.05-.76a2.73,2.73,0,0,0-.39-1.56,1.34,1.34,0,0,0-1.12-.6,2,2,0,0,0-1.83,1.16,4.55,4.55,0,0,0-.51,1.66A6.81,6.81,0,0,0,523.7,415.26Z"/><path class="cls-3" d="M533.27,410l-.16.89a3.16,3.16,0,0,1,2.43-1,2.34,2.34,0,0,1,1.29.36,1.77,1.77,0,0,1,.69.93,3.29,3.29,0,0,1,2.62-1.29,2.12,2.12,0,0,1,1.78.84,3.32,3.32,0,0,1,.43,2.28l-.88,5.45h-1.8l.89-5.47a2.68,2.68,0,0,0,0-.63,1,1,0,0,0-1.12-.93,1.91,1.91,0,0,0-1.77,1.25l0,.17-.94,5.61h-1.81l.9-5.44a3.35,3.35,0,0,0,0-.63,1,1,0,0,0-1.13-1,2,2,0,0,0-1.68.93l-1,6.1h-1.8l1.42-8.42Z"/><path class="cls-3" d="M461.3,431.29A6.88,6.88,0,0,1,462,429a3.93,3.93,0,0,1,1.32-1.55,2.93,2.93,0,0,1,1.73-.48,2.41,2.41,0,0,1,2,.95l.79-4.32h1.81l-2,11.95H466l.12-.87a2.81,2.81,0,0,1-2.24,1,2.25,2.25,0,0,1-1.84-.9,4.15,4.15,0,0,1-.74-2.37,7.21,7.21,0,0,1,0-.94Zm1.75.73a2.61,2.61,0,0,0,.29,1.53,1.15,1.15,0,0,0,1,.58,2.11,2.11,0,0,0,1.8-1l.61-3.62a1.4,1.4,0,0,0-1.38-1,1.82,1.82,0,0,0-1.66.93A5.06,5.06,0,0,0,463.05,432Z"/><path class="cls-3" d="M473.21,435.66a3.26,3.26,0,0,1-1.85-.55,3.08,3.08,0,0,1-1.17-1.44,4.45,4.45,0,0,1-.28-2.05l0-.32a5.66,5.66,0,0,1,.74-2.31,4.17,4.17,0,0,1,1.48-1.55,3.6,3.6,0,0,1,1.93-.51,2.67,2.67,0,0,1,2.31,1.18,4.41,4.41,0,0,1,.58,3l-.11.81h-5.17a2.36,2.36,0,0,0,.4,1.61,1.54,1.54,0,0,0,1.27.63,2.77,2.77,0,0,0,2.15-1l.91,1a3.42,3.42,0,0,1-1.36,1.17A3.83,3.83,0,0,1,473.21,435.66Zm.77-7.22c-1,0-1.67.66-2.14,2.07h3.41l0-.16a2.74,2.74,0,0,0,0-.7,1.44,1.44,0,0,0-.43-.87A1.32,1.32,0,0,0,474,428.44Z"/><path class="cls-3" d="M480.77,427.08l-.16.9a3.13,3.13,0,0,1,2.43-1.05,2.33,2.33,0,0,1,1.28.37,1.67,1.67,0,0,1,.7.93,3.27,3.27,0,0,1,2.61-1.3,2.12,2.12,0,0,1,1.78.85,3.29,3.29,0,0,1,.44,2.27l-.89,5.46h-1.8l.9-5.47a3.31,3.31,0,0,0,0-.63,1,1,0,0,0-1.12-.93,1.87,1.87,0,0,0-1.76,1.25l0,.17-1,5.61h-1.8l.89-5.45a2.59,2.59,0,0,0,0-.62,1,1,0,0,0-1.12-1,1.94,1.94,0,0,0-1.69.92l-1,6.11h-1.8l1.42-8.42Z"/><path class="cls-3" d="M495.75,435.51a2.59,2.59,0,0,1-.08-.79,3,3,0,0,1-2.19.94,2.44,2.44,0,0,1-1.77-.7,2.2,2.2,0,0,1-.66-1.75,2.59,2.59,0,0,1,1.12-2.09,4.8,4.8,0,0,1,2.86-.76h1.17l.1-.57a1.82,1.82,0,0,0,0-.57,1,1,0,0,0-1.08-.86,1.62,1.62,0,0,0-1,.3,1.27,1.27,0,0,0-.53.84h-1.8a2.27,2.27,0,0,1,.54-1.36,3.08,3.08,0,0,1,1.29-.91,4.22,4.22,0,0,1,1.7-.32,2.82,2.82,0,0,1,2.09.83,2.49,2.49,0,0,1,.63,2.07l-.63,3.94-.06.7a2.48,2.48,0,0,0,.11.9v.14Zm-1.85-1.35a1.94,1.94,0,0,0,1.05-.27,2.93,2.93,0,0,0,.83-.74l.28-1.59h-.86a2.94,2.94,0,0,0-1.62.39,1.41,1.41,0,0,0-.69,1.08,1,1,0,0,0,.22.82A1.12,1.12,0,0,0,493.9,434.16Z"/><path class="cls-3" d="M501,435.51h-1.8l1.43-8.42h1.79Zm-.12-10.58a1,1,0,0,1,.28-.73,1,1,0,1,1,1.47,1.4,1,1,0,0,1-.72.31,1,1,0,0,1-.73-.27A.94.94,0,0,1,500.9,424.93Z"/><path class="cls-3" d="M507.94,433.18c.09-.52-.24-.88-1-1.08a12.52,12.52,0,0,1-1.51-.47,2.13,2.13,0,0,1-1.51-2.09,2.38,2.38,0,0,1,1-1.88,3.67,3.67,0,0,1,2.32-.73,3.15,3.15,0,0,1,2.13.76,2.43,2.43,0,0,1,.81,1.94h-1.78a1.21,1.21,0,0,0-.31-.92,1.26,1.26,0,0,0-.9-.34,1.76,1.76,0,0,0-1,.3,1.17,1.17,0,0,0-.5.8c-.07.47.26.8,1,1a9.34,9.34,0,0,1,1.59.51,2.13,2.13,0,0,1,1.45,2.12,2.28,2.28,0,0,1-.51,1.39,3,3,0,0,1-1.27.91,4.2,4.2,0,0,1-1.7.29,3.25,3.25,0,0,1-2.22-.8,2.51,2.51,0,0,1-.87-2h1.74a1.36,1.36,0,0,0,.39,1,1.45,1.45,0,0,0,1,.36,2,2,0,0,0,1.11-.28A1.08,1.08,0,0,0,507.94,433.18Z"/><path class="cls-3" d="M465.82,450.25c.08-.51-.24-.87-1-1.07a12,12,0,0,1-1.51-.48,2.14,2.14,0,0,1-1.51-2.09,2.37,2.37,0,0,1,1-1.87,3.6,3.6,0,0,1,2.32-.73,3.14,3.14,0,0,1,2.13.75,2.45,2.45,0,0,1,.81,1.94H466.3a1.18,1.18,0,0,0-.31-.91,1.26,1.26,0,0,0-.89-.35,1.68,1.68,0,0,0-1,.31,1.09,1.09,0,0,0-.5.79c-.07.47.25.8,1,1a12.34,12.34,0,0,1,1.6.51,2.15,2.15,0,0,1,1.45,2.12,2.4,2.4,0,0,1-.52,1.4,3,3,0,0,1-1.27.91,4.33,4.33,0,0,1-1.69.29,3.31,3.31,0,0,1-2.23-.8,2.55,2.55,0,0,1-.87-2h1.74a1.4,1.4,0,0,0,.39,1,1.5,1.5,0,0,0,1,.35,2,2,0,0,0,1.12-.28A1.11,1.11,0,0,0,465.82,450.25Z"/><path class="cls-3" d="M473.84,451.75a2.94,2.94,0,0,1-2.34,1,2.23,2.23,0,0,1-1.32-.41,2.12,2.12,0,0,1-.75-1.08,4.08,4.08,0,0,1-.14-1.64l.89-5.45H472l-.89,5.47a2.64,2.64,0,0,0,0,.56c.05.65.37,1,.95,1a2.17,2.17,0,0,0,1.93-1l1-6.06h1.8l-1.42,8.42h-1.69Z"/><path class="cls-3" d="M484.93,448.41a7.17,7.17,0,0,1-.67,2.33,3.82,3.82,0,0,1-1.29,1.53,3.09,3.09,0,0,1-1.74.48,2.38,2.38,0,0,1-2.07-1.08l-.29.91h-1.65l2-11.95h1.81l-.82,4.35a2.76,2.76,0,0,1,2.18-1,2.32,2.32,0,0,1,1.86.89,3.91,3.91,0,0,1,.71,2.37A9.83,9.83,0,0,1,484.93,448.41Zm-1.73-1a2.31,2.31,0,0,0-.34-1.33,1.18,1.18,0,0,0-1-.49,2.11,2.11,0,0,0-1.84,1.07l-.59,3.49a1.45,1.45,0,0,0,1.43,1.1,1.79,1.79,0,0,0,1.5-.72,4.13,4.13,0,0,0,.76-2.09C483.17,448,483.19,447.62,483.2,447.37Z"/><path class="cls-3" d="M493.48,448.4a6.86,6.86,0,0,1-.66,2.29,3.85,3.85,0,0,1-1.28,1.55,2.89,2.89,0,0,1-1.74.51,2.59,2.59,0,0,1-2-.94l-.73,4h-1.81l2-11.66h1.64l-.13.87a2.8,2.8,0,0,1,2.24-1,2.33,2.33,0,0,1,1.36.41,2.45,2.45,0,0,1,.88,1.16,4.6,4.6,0,0,1,.33,1.7A9.34,9.34,0,0,1,493.48,448.4Zm-1.78-.16,0-.57a2.84,2.84,0,0,0-.32-1.55,1.18,1.18,0,0,0-1-.57,2.07,2.07,0,0,0-1.76,1l-.64,3.75a1.4,1.4,0,0,0,1.39,1,1.85,1.85,0,0,0,1.51-.72A4.58,4.58,0,0,0,491.7,448.24Z"/><path class="cls-3" d="M499.73,445.89a3.43,3.43,0,0,0-.71-.08,2.09,2.09,0,0,0-1.88,1l-1,5.76h-1.8l1.42-8.42h1.71l-.18.95a2.35,2.35,0,0,1,1.94-1.12,2.76,2.76,0,0,1,.69.12Z"/><path class="cls-3" d="M499.89,448.34a5.56,5.56,0,0,1,.71-2.25,4.22,4.22,0,0,1,1.49-1.56,3.59,3.59,0,0,1,2-.52,3.1,3.1,0,0,1,1.82.57,3.27,3.27,0,0,1,1.12,1.54,5.07,5.07,0,0,1,.25,2.16,5.82,5.82,0,0,1-.71,2.37,4.3,4.3,0,0,1-1.51,1.57,3.62,3.62,0,0,1-2,.52,3.07,3.07,0,0,1-1.81-.57,3.2,3.2,0,0,1-1.12-1.53,5,5,0,0,1-.26-2.13Zm1.76,1.07a2.27,2.27,0,0,0,.43,1.31,1.34,1.34,0,0,0,1.06.52,1.91,1.91,0,0,0,1.56-.73,4,4,0,0,0,.78-2.07l0-.76a2.73,2.73,0,0,0-.39-1.56,1.34,1.34,0,0,0-1.12-.6,2,2,0,0,0-1.83,1.16,4.75,4.75,0,0,0-.51,1.66A6.81,6.81,0,0,0,501.65,449.41Z"/><path class="cls-3" d="M515.82,448.41a6.94,6.94,0,0,1-.67,2.33,3.82,3.82,0,0,1-1.29,1.53,3,3,0,0,1-1.73.48,2.41,2.41,0,0,1-2.08-1.08l-.29.91h-1.64l2-11.95h1.8l-.82,4.35a2.77,2.77,0,0,1,2.18-1,2.33,2.33,0,0,1,1.87.89,4,4,0,0,1,.71,2.37Q515.88,447.74,515.82,448.41Zm-1.73-1a2.24,2.24,0,0,0-.34-1.33,1.18,1.18,0,0,0-1-.49,2.11,2.11,0,0,0-1.83,1.07l-.6,3.49a1.47,1.47,0,0,0,1.44,1.1,1.79,1.79,0,0,0,1.5-.72,4.13,4.13,0,0,0,.75-2.09C514.06,448,514.09,447.62,514.09,447.37Z"/><path class="cls-3" d="M518.6,452.58h-1.8l2-11.95h1.8Z"/><path class="cls-3" d="M524.33,452.74a3.45,3.45,0,0,1-1.86-.55,3.2,3.2,0,0,1-1.16-1.45,4.43,4.43,0,0,1-.29-2.05l0-.32a5.66,5.66,0,0,1,.73-2.3,4.29,4.29,0,0,1,1.48-1.56,3.55,3.55,0,0,1,1.93-.5,2.68,2.68,0,0,1,2.32,1.18,4.44,4.44,0,0,1,.58,3L528,449h-5.17a2.28,2.28,0,0,0,.39,1.61,1.56,1.56,0,0,0,1.28.63,2.74,2.74,0,0,0,2.14-1l.91,1a3.52,3.52,0,0,1-1.36,1.17A3.91,3.91,0,0,1,524.33,452.74Zm.77-7.22c-1,0-1.67.66-2.15,2.07h3.41l0-.17a2.35,2.35,0,0,0,0-.7,1.39,1.39,0,0,0-.43-.87A1.29,1.29,0,0,0,525.1,445.52Z"/><path class="cls-3" d="M531.88,444.16l-.16.89a3.16,3.16,0,0,1,2.43-1,2.34,2.34,0,0,1,1.29.36,1.84,1.84,0,0,1,.7.93,3.26,3.26,0,0,1,2.61-1.29,2.12,2.12,0,0,1,1.78.84,3.31,3.31,0,0,1,.43,2.28l-.88,5.45h-1.8l.89-5.47a2.68,2.68,0,0,0,0-.63,1,1,0,0,0-1.12-.93,1.91,1.91,0,0,0-1.77,1.25l0,.17-.94,5.61h-1.81l.9-5.44a3.35,3.35,0,0,0,0-.63,1,1,0,0,0-1.13-1,2,2,0,0,0-1.68.93l-1,6.1h-1.8l1.42-8.42Z"/><path class="cls-3" d="M546.86,452.58a2.56,2.56,0,0,1-.07-.78,3,3,0,0,1-2.2.94,2.49,2.49,0,0,1-1.77-.71,2.18,2.18,0,0,1-.66-1.74,2.61,2.61,0,0,1,1.13-2.1,4.86,4.86,0,0,1,2.85-.76l1.17,0,.11-.58a1.82,1.82,0,0,0,0-.57,1,1,0,0,0-1.09-.86,1.61,1.61,0,0,0-1,.3,1.32,1.32,0,0,0-.54.84l-1.8,0a2.43,2.43,0,0,1,.54-1.37,3.31,3.31,0,0,1,1.29-.91,4.28,4.28,0,0,1,1.7-.31,2.84,2.84,0,0,1,2.1.83,2.48,2.48,0,0,1,.62,2.06l-.63,4-.06.7a2.46,2.46,0,0,0,.12.89v.14ZM545,451.23a2,2,0,0,0,1.06-.27,2.73,2.73,0,0,0,.82-.73l.29-1.6h-.86a2.91,2.91,0,0,0-1.63.4,1.46,1.46,0,0,0-.69,1.07,1,1,0,0,0,.22.82A1.1,1.1,0,0,0,545,451.23Z"/><path class="cls-3" d="M555.13,450.25c.09-.51-.24-.87-1-1.07a12,12,0,0,1-1.51-.48,2.13,2.13,0,0,1-1.51-2.09,2.36,2.36,0,0,1,1-1.87,3.61,3.61,0,0,1,2.32-.73,3.14,3.14,0,0,1,2.13.75,2.45,2.45,0,0,1,.81,1.94h-1.78a1.22,1.22,0,0,0-.31-.91,1.27,1.27,0,0,0-.9-.35,1.7,1.7,0,0,0-1,.31,1.15,1.15,0,0,0-.5.79c-.07.47.26.8,1,1a11.6,11.6,0,0,1,1.59.51,2.14,2.14,0,0,1,1.45,2.12,2.33,2.33,0,0,1-.51,1.4,3.08,3.08,0,0,1-1.27.91,4.38,4.38,0,0,1-1.7.29,3.28,3.28,0,0,1-2.22-.8,2.55,2.55,0,0,1-.87-2h1.73a1.41,1.41,0,0,0,.4,1,1.49,1.49,0,0,0,1,.35,2,2,0,0,0,1.11-.28A1.08,1.08,0,0,0,555.13,450.25Z"/><path class="cls-3" d="M168.08,490.72c.11-.74-.28-1.3-1.19-1.66l-.62-.24a5.71,5.71,0,0,1-2.43-1.45,2.67,2.67,0,0,1-.66-1.95,3,3,0,0,1,.65-1.7,3.75,3.75,0,0,1,1.52-1.14,4.93,4.93,0,0,1,2-.37,4,4,0,0,1,1.84.46,3,3,0,0,1,1.23,1.22,3.43,3.43,0,0,1,.4,1.79H169a1.87,1.87,0,0,0-.38-1.38,1.8,1.8,0,0,0-1.32-.51,2.4,2.4,0,0,0-1.5.43,1.69,1.69,0,0,0-.72,1.2c-.1.66.33,1.18,1.29,1.55l.57.21a5.57,5.57,0,0,1,2.43,1.5,2.84,2.84,0,0,1,.61,2,3.12,3.12,0,0,1-.62,1.67,3.47,3.47,0,0,1-1.49,1.1,5.27,5.27,0,0,1-2.1.37,4.18,4.18,0,0,1-2-.47,3.19,3.19,0,0,1-1.35-1.27,3.36,3.36,0,0,1-.44-1.85h1.88a1.85,1.85,0,0,0,.46,1.49,2.13,2.13,0,0,0,1.51.53,2.63,2.63,0,0,0,1.52-.39A1.67,1.67,0,0,0,168.08,490.72Z"/><path class="cls-3" d="M171.41,489.45a5.56,5.56,0,0,1,.71-2.25,4.22,4.22,0,0,1,1.49-1.56,3.61,3.61,0,0,1,2-.52,3,3,0,0,1,1.82.58,3.13,3.13,0,0,1,1.12,1.53,4.92,4.92,0,0,1,.25,2.16,5.82,5.82,0,0,1-.71,2.37,4.23,4.23,0,0,1-1.51,1.57,3.62,3.62,0,0,1-2,.52,3.07,3.07,0,0,1-1.81-.57,3.2,3.2,0,0,1-1.12-1.53,5,5,0,0,1-.26-2.13Zm1.77,1.07a2.2,2.2,0,0,0,.42,1.31,1.34,1.34,0,0,0,1.06.52,1.91,1.91,0,0,0,1.56-.73,3.93,3.93,0,0,0,.78-2.06l.05-.77a2.73,2.73,0,0,0-.39-1.56,1.34,1.34,0,0,0-1.12-.6,2,2,0,0,0-1.83,1.16,4.54,4.54,0,0,0-.5,1.66A6.81,6.81,0,0,0,173.18,490.52Z"/><path class="cls-3" d="M181.55,493.69h-1.8l2-11.95h1.8Z"/><path class="cls-3" d="M188.64,492.86a2.94,2.94,0,0,1-2.34,1,2.22,2.22,0,0,1-1.32-.4,2.15,2.15,0,0,1-.75-1.09,4.06,4.06,0,0,1-.14-1.64l.89-5.45h1.8l-.89,5.48a2.62,2.62,0,0,0,0,.56.94.94,0,0,0,1,1,2.17,2.17,0,0,0,1.93-1l1-6.06h1.8l-1.42,8.42h-1.69Z"/><path class="cls-3" d="M195.61,492.35a1.68,1.68,0,0,0,1.14-.39,1.73,1.73,0,0,0,.63-1h1.7a3,3,0,0,1-.59,1.52,3.35,3.35,0,0,1-1.29,1.06,3.42,3.42,0,0,1-1.65.36,3.08,3.08,0,0,1-1.8-.56,3,3,0,0,1-1.08-1.51,4.82,4.82,0,0,1-.23-2.14l0-.27a5.67,5.67,0,0,1,.7-2.22,4,4,0,0,1,1.46-1.52,3.59,3.59,0,0,1,2-.51,2.81,2.81,0,0,1,2.13.91,3.24,3.24,0,0,1,.8,2.27h-1.69a1.92,1.92,0,0,0-.34-1.18,1.25,1.25,0,0,0-1-.49,1.79,1.79,0,0,0-1.66.92,5.14,5.14,0,0,0-.66,2.67C194.16,491.62,194.63,492.33,195.61,492.35Zm.19,1.35-.15.46a1.14,1.14,0,0,1,.71.44,1.3,1.3,0,0,1,.23.82,1.51,1.51,0,0,1-.69,1.31,3.65,3.65,0,0,1-1.94.51v-1.09c.7,0,1.08-.28,1.16-.75.05-.31-.13-.5-.55-.57l-.43-.05.35-1.06Z"/><path class="cls-3" d="M204.88,493.69a2.49,2.49,0,0,1-.08-.78,3,3,0,0,1-2.19.94,2.53,2.53,0,0,1-1.78-.7,2.21,2.21,0,0,1-.65-1.75,2.56,2.56,0,0,1,1.12-2.09,4.79,4.79,0,0,1,2.85-.77l1.17,0,.11-.58a1.75,1.75,0,0,0,0-.56,1,1,0,0,0-1.08-.87,1.62,1.62,0,0,0-1,.3,1.27,1.27,0,0,0-.53.84l-1.8,0a2.25,2.25,0,0,1,.54-1.36,3.1,3.1,0,0,1,1.29-.92,4.21,4.21,0,0,1,1.7-.31,2.84,2.84,0,0,1,2.09.83,2.51,2.51,0,0,1,.63,2.06l-.63,3.95-.07.7a2.75,2.75,0,0,0,.12.9v.13ZM203,492.34a2,2,0,0,0,1.06-.27,2.89,2.89,0,0,0,.83-.73l.28-1.6h-.86a2.91,2.91,0,0,0-1.63.4,1.46,1.46,0,0,0-.69,1.07,1,1,0,0,0,.23.83A1.07,1.07,0,0,0,203,492.34Zm4.88-10.43a2.52,2.52,0,0,1-.58,1.47,1.55,1.55,0,0,1-1.21.55,1.07,1.07,0,0,1-.35-.06,3,3,0,0,1-.58-.29,4.38,4.38,0,0,0-.6-.31,1,1,0,0,0-.42-.06c-.4,0-.67.28-.8.8l-1.13-.06a2.54,2.54,0,0,1,.57-1.47,1.46,1.46,0,0,1,1.22-.57,2,2,0,0,1,.93.35,2.56,2.56,0,0,0,.83.38H206c.41,0,.69-.28.83-.81Z"/><path class="cls-3" d="M208.67,489.45a5.56,5.56,0,0,1,.71-2.25,4.22,4.22,0,0,1,1.49-1.56,3.59,3.59,0,0,1,2-.52,3,3,0,0,1,1.82.58,3.2,3.2,0,0,1,1.12,1.53,5.07,5.07,0,0,1,.25,2.16,6,6,0,0,1-.71,2.37,4.3,4.3,0,0,1-1.51,1.57,3.62,3.62,0,0,1-2,.52,3.07,3.07,0,0,1-1.81-.57,3.2,3.2,0,0,1-1.12-1.53,5,5,0,0,1-.26-2.13Zm1.76,1.07a2.27,2.27,0,0,0,.43,1.31,1.34,1.34,0,0,0,1.06.52,1.88,1.88,0,0,0,1.55-.73,3.94,3.94,0,0,0,.79-2.06l.05-.77a2.73,2.73,0,0,0-.39-1.56,1.34,1.34,0,0,0-1.12-.6,2,2,0,0,0-1.83,1.16,4.54,4.54,0,0,0-.5,1.66A5.91,5.91,0,0,0,210.43,490.52Z"/><path class="cls-4" d="M425,185.49A121.69,121.69,0,0,0,442,160.07l1.48-3.17A86.3,86.3,0,0,0,451.37,121c-5.43,1.6-11.38,3.15-17.95,4.59C375.58,138.22,413.57,173,413.57,173S418.5,178.13,425,185.49Z"/><path class="cls-2" d="M428.33,157.74h-1.84v-9.1l-2.71,1V148l4.32-1.62h.23Z"/><path class="cls-4" d="M272.66,96.76a103.4,103.4,0,0,0,3.82-27.08,113.39,113.39,0,0,1-17.71,3,124.88,124.88,0,0,1-39.42-2.83c-1.44,3-3,5.76-4.48,8.26A109.54,109.54,0,0,1,203.94,93c1.28,1.48,2.62,3,4,4.65a300.94,300.94,0,0,0,50.4.63C262.91,97.94,267.72,97.44,272.66,96.76Z"/><path class="cls-4" d="M220.6,67.11a123.12,123.12,0,0,0,38,2.65,110.64,110.64,0,0,0,17.82-3.08c-.34-14.81-4-31.6-13.49-49.51-5.54,4.74-16.22,11.63-35.66,17.71A76.45,76.45,0,0,1,220.6,67.11Z"/><path class="cls-4" d="M279.4,68.91a106.81,106.81,0,0,1-3.59,27.39c18.22-2.79,38-8.2,55.58-18.22-.82-7.51-3.2-16.3-7.57-26.58-.75-1.77-1.49-3.46-2.23-5.11q-1.95,1.65-3.92,3.18A111.25,111.25,0,0,1,279.4,68.91Z"/><path class="cls-4" d="M279.35,65.89a109.23,109.23,0,0,0,41-22.27c-33.42-73.11-52-32.22-52-32.22a20.11,20.11,0,0,1-3.14,3.74C275.07,33.46,278.9,50.67,279.35,65.89Z"/><path class="cls-4" d="M274.94,99.38c-.39,1.29-.78,2.54-1.19,3.75a119.93,119.93,0,0,1-7.28,17.08c13.66,1.52,67.51,4.74,65.19-38.94C315.81,90.09,296.78,96.19,274.94,99.38Z"/><path class="cls-4" d="M202,90.75a104,104,0,0,0,14.43-21.66l1.26-2.7a73.58,73.58,0,0,0,6.76-30.63c-4.63,1.36-9.7,2.68-15.29,3.91-49.29,10.8-16.92,40.46-16.92,40.46S196.4,84.48,202,90.75Z"/><path class="cls-4" d="M263.37,119.81A116.47,116.47,0,0,0,271,102.09c.25-.74.49-1.5.73-2.26q-6.48.86-13.29,1.37a302.8,302.8,0,0,1-47.93-.39c6.38,7.79,12.74,16.38,16,23.12,7.83,16.42,36.87-4.12,36.87-4.12Z"/><path class="cls-2" d="M201.8,69.68H200V60.57l-2.71,1V59.94l4.31-1.63h.23Z"/><path class="cls-2" d="M252,54.42h-7.44v-1.3L248.2,49a9.09,9.09,0,0,0,1.13-1.52,2.49,2.49,0,0,0,.34-1.23,1.89,1.89,0,0,0-.44-1.3,1.51,1.51,0,0,0-1.2-.5,1.76,1.76,0,0,0-1.39.56,2.22,2.22,0,0,0-.49,1.53H244.3a3.83,3.83,0,0,1,.46-1.86,3.28,3.28,0,0,1,1.32-1.29,4,4,0,0,1,2-.46,3.7,3.7,0,0,1,2.54.83,2.91,2.91,0,0,1,.92,2.29,4,4,0,0,1-.46,1.78,10,10,0,0,1-1.53,2.11l-2.7,3H252Z"/><path class="cls-2" d="M288.55,37.17h1.12a2,2,0,0,0,1.35-.45,1.66,1.66,0,0,0,.5-1.29,1.75,1.75,0,0,0-.42-1.25,1.63,1.63,0,0,0-1.26-.45,1.72,1.72,0,0,0-1.22.44,1.49,1.49,0,0,0-.48,1.15h-1.85a2.94,2.94,0,0,1,.45-1.59A3.12,3.12,0,0,1,288,32.61a4.14,4.14,0,0,1,1.81-.4,3.79,3.79,0,0,1,2.61.85,3,3,0,0,1,.94,2.37,2.5,2.5,0,0,1-.47,1.44,3,3,0,0,1-1.23,1,2.69,2.69,0,0,1,1.39,1,2.84,2.84,0,0,1,.47,1.63,3.08,3.08,0,0,1-1,2.43,3.92,3.92,0,0,1-2.69.9A3.88,3.88,0,0,1,287.2,43a2.89,2.89,0,0,1-1-2.32H288a1.6,1.6,0,0,0,.49,1.22,1.85,1.85,0,0,0,1.32.46,1.89,1.89,0,0,0,1.35-.46,2.11,2.11,0,0,0,0-2.73,2.16,2.16,0,0,0-1.54-.49h-1.08Z"/><path class="cls-2" d="M299.35,75.66l.59-5.72h5.94v1.64h-4.4l-.3,2.71a3.24,3.24,0,0,1,1.73-.46,3,3,0,0,1,2.45,1,4.15,4.15,0,0,1,.88,2.79,3.83,3.83,0,0,1-1,2.75,3.52,3.52,0,0,1-2.67,1,3.63,3.63,0,0,1-2.51-.88A3.24,3.24,0,0,1,299,78.22h1.79a2,2,0,0,0,.57,1.26,1.77,1.77,0,0,0,1.24.44,1.59,1.59,0,0,0,1.32-.62,2.72,2.72,0,0,0,.47-1.7,2.41,2.41,0,0,0-.52-1.64,1.81,1.81,0,0,0-1.44-.6,2.32,2.32,0,0,0-.85.14,2.29,2.29,0,0,0-.76.53Z"/><path class="cls-2" d="M248.22,86.71h1.38v1.52h-1.38v2.52h-1.84V88.23H241.6l0-1.15,4.76-7.66h1.91Zm-4.74,0h2.9V82l-.14.25Z"/><path class="cls-2" d="M244.1,109.56v1.56h-.23a3.68,3.68,0,0,0-2.48.87,3.76,3.76,0,0,0-1.1,2.41,3,3,0,0,1,2.27-1,2.81,2.81,0,0,1,2.32,1.06,4.24,4.24,0,0,1,.84,2.73,4,4,0,0,1-1,2.8,3.39,3.39,0,0,1-2.6,1.07,3.29,3.29,0,0,1-2.68-1.26,5,5,0,0,1-1-3.28v-.65a7.09,7.09,0,0,1,1.41-4.67,5.05,5.05,0,0,1,4.08-1.68Zm-2,5.4a2,2,0,0,0-1.11.35,2.15,2.15,0,0,0-.74.94v.57a3.44,3.44,0,0,0,.52,2,1.57,1.57,0,0,0,1.33.74,1.54,1.54,0,0,0,1.3-.63,2.66,2.66,0,0,0,.48-1.66,2.73,2.73,0,0,0-.48-1.67A1.56,1.56,0,0,0,242.11,115Z"/><path class="cls-2" d="M301,102.27l-4.42,10.28H294.6l4.41-9.81h-5.72v-1.52H301Z"/><path class="cls-5" d="M346.17,483A103.82,103.82,0,0,0,350,455.94a115.07,115.07,0,0,1-17.71,3,125.19,125.19,0,0,1-39.43-2.84,90.18,90.18,0,0,1-4.48,8.26,108.7,108.7,0,0,1-10.93,14.91c1.29,1.48,2.63,3,4,4.65a299.75,299.75,0,0,0,50.39.63C336.42,484.2,341.23,483.7,346.17,483Z"/><path class="cls-5" d="M294.1,453.37a123.12,123.12,0,0,0,38,2.66A110.27,110.27,0,0,0,350,453c-.33-14.81-4-31.61-13.49-49.52-5.54,4.74-16.21,11.64-35.65,17.71A76.42,76.42,0,0,1,294.1,453.37Z"/><path class="cls-5" d="M352.9,455.17a105.88,105.88,0,0,1-3.59,27.39c18.22-2.79,38-8.19,55.59-18.22-.83-7.5-3.21-16.29-7.58-26.58-.75-1.77-1.49-3.45-2.22-5.1q-2,1.65-3.92,3.17A111.29,111.29,0,0,1,352.9,455.17Z"/><path class="cls-5" d="M352.86,452.15a109.13,109.13,0,0,0,41-22.27c-33.42-73.11-52-32.22-52-32.22a20,20,0,0,1-3.15,3.74C348.58,419.72,352.41,436.93,352.86,452.15Z"/><path class="cls-5" d="M348.44,485.65c-.38,1.28-.77,2.53-1.18,3.74A119.43,119.43,0,0,1,340,506.47c13.66,1.52,67.51,4.74,65.18-38.93C389.32,476.36,370.28,482.46,348.44,485.65Z"/><path class="cls-5" d="M275.46,477a103.67,103.67,0,0,0,14.43-21.67l1.27-2.7A73.39,73.39,0,0,0,297.91,422c-4.62,1.37-9.69,2.68-15.29,3.91-49.28,10.8-16.92,40.46-16.92,40.46S269.91,470.74,275.46,477Z"/><path class="cls-5" d="M336.88,506.07a115.61,115.61,0,0,0,7.66-17.72c.25-.74.49-1.49.73-2.26q-6.5.86-13.29,1.37a300.41,300.41,0,0,1-47.93-.39c6.37,7.79,12.73,16.38,15.95,23.13,7.82,16.41,36.87-4.13,36.87-4.13Z"/><path class="cls-3" d="M274.56,454.89h-1.84v-9.1l-2.71.95v-1.59l4.31-1.63h.24Z"/><path class="cls-3" d="M324.7,439.63h-7.43v-1.3l3.68-4.11a10.38,10.38,0,0,0,1.14-1.52,2.6,2.6,0,0,0,.34-1.23,1.9,1.9,0,0,0-.45-1.31,1.52,1.52,0,0,0-1.19-.49,1.72,1.72,0,0,0-1.39.56,2.22,2.22,0,0,0-.5,1.53h-1.84a3.78,3.78,0,0,1,.46-1.87,3.11,3.11,0,0,1,1.31-1.28,4.06,4.06,0,0,1,2-.46,3.65,3.65,0,0,1,2.54.83,2.9,2.9,0,0,1,.93,2.29,4,4,0,0,1-.47,1.78,10,10,0,0,1-1.53,2.11l-2.7,3h5.13Z"/><path class="cls-3" d="M361.3,422.39h1.13a2,2,0,0,0,1.34-.46,1.62,1.62,0,0,0,.5-1.28,1.82,1.82,0,0,0-.41-1.26,1.69,1.69,0,0,0-1.27-.44,1.71,1.71,0,0,0-1.22.44,1.47,1.47,0,0,0-.48,1.14h-1.84a2.88,2.88,0,0,1,.45-1.58,3.05,3.05,0,0,1,1.26-1.12,4,4,0,0,1,1.81-.4,3.74,3.74,0,0,1,2.6.85,3,3,0,0,1,.95,2.37,2.44,2.44,0,0,1-.48,1.44,3,3,0,0,1-1.23,1,2.71,2.71,0,0,1,1.39,1,2.75,2.75,0,0,1,.47,1.63,3.08,3.08,0,0,1-1,2.43,4.4,4.4,0,0,1-5.29,0,2.91,2.91,0,0,1-1-2.32h1.85a1.6,1.6,0,0,0,.48,1.21,1.85,1.85,0,0,0,1.32.47,1.9,1.9,0,0,0,1.35-.47,1.77,1.77,0,0,0,.5-1.35,1.81,1.81,0,0,0-.52-1.38,2.16,2.16,0,0,0-1.53-.48H361.3Z"/><path class="cls-3" d="M372.1,460.87l.6-5.71h5.94v1.63h-4.41l-.3,2.71a3.36,3.36,0,0,1,1.73-.45,3.07,3.07,0,0,1,2.46,1,4.17,4.17,0,0,1,.88,2.78,3.82,3.82,0,0,1-1,2.75,3.48,3.48,0,0,1-2.66,1,3.67,3.67,0,0,1-2.52-.88,3.21,3.21,0,0,1-1.08-2.33h1.78a2.07,2.07,0,0,0,.58,1.27,1.73,1.73,0,0,0,1.23.44,1.57,1.57,0,0,0,1.33-.63,2.76,2.76,0,0,0,.47-1.69,2.41,2.41,0,0,0-.52-1.64,1.82,1.82,0,0,0-1.45-.6,2.41,2.41,0,0,0-.85.13,2.57,2.57,0,0,0-.76.53Z"/><path class="cls-3" d="M321,471.93h1.37v1.52H321V476h-1.85v-2.52h-4.78l-.05-1.15,4.77-7.66H321Zm-4.74,0h2.89V467.2l-.14.25Z"/><path class="cls-3" d="M316.85,494.77v1.57h-.23a3.55,3.55,0,0,0-2.47.87,3.61,3.61,0,0,0-1.1,2.4,3,3,0,0,1,2.27-.95,2.8,2.8,0,0,1,2.31,1,4.28,4.28,0,0,1,.85,2.73,3.94,3.94,0,0,1-1,2.8,3.6,3.6,0,0,1-5.29-.18,5,5,0,0,1-1-3.28v-.65a7,7,0,0,1,1.42-4.67,5,5,0,0,1,4.07-1.69Zm-2,5.41a2,2,0,0,0-1.11.35,2,2,0,0,0-.74.93V502a3.46,3.46,0,0,0,.51,2,1.57,1.57,0,0,0,1.34.75,1.54,1.54,0,0,0,1.3-.63,2.68,2.68,0,0,0,.48-1.66,2.71,2.71,0,0,0-.49-1.67A1.53,1.53,0,0,0,314.87,500.18Z"/><path class="cls-3" d="M373.71,487.49l-4.42,10.28h-1.94l4.41-9.82h-5.71v-1.51h7.66Z"/><path class="cls-4" d="M509.73,325.48a103.82,103.82,0,0,0,3.82-27.08,114.87,114.87,0,0,1-17.71,3,125.1,125.1,0,0,1-39.42-2.84c-1.44,3-3,5.76-4.48,8.27A109.16,109.16,0,0,1,441,321.73c1.29,1.48,2.63,3,4,4.65a299.77,299.77,0,0,0,50.39.63C500,326.66,504.79,326.16,509.73,325.48Z"/><path class="cls-4" d="M457.67,295.83a123,123,0,0,0,38,2.66,110.27,110.27,0,0,0,17.82-3.08c-.33-14.81-4-31.61-13.48-49.52-5.54,4.74-16.22,11.64-35.66,17.71A76.42,76.42,0,0,1,457.67,295.83Z"/><path class="cls-4" d="M516.46,297.64A106.31,106.31,0,0,1,512.88,325c18.21-2.79,38-8.19,55.58-18.22-.82-7.5-3.21-16.29-7.58-26.58-.74-1.76-1.48-3.45-2.22-5.1q-1.95,1.65-3.92,3.17A111.5,111.5,0,0,1,516.46,297.64Z"/><path class="cls-4" d="M516.42,294.61a109.13,109.13,0,0,0,41-22.27c-33.42-73.11-52-32.22-52-32.22a20.11,20.11,0,0,1-3.14,3.74C512.14,262.18,516,279.39,516.42,294.61Z"/><path class="cls-4" d="M512,328.11c-.38,1.28-.77,2.53-1.18,3.74a119.43,119.43,0,0,1-7.28,17.08c13.66,1.52,67.51,4.74,65.19-38.93C552.88,318.82,533.84,324.92,512,328.11Z"/><path class="cls-5" d="M439,319.48a103.67,103.67,0,0,0,14.44-21.67l1.26-2.7a73.39,73.39,0,0,0,6.75-30.63c-4.62,1.37-9.69,2.68-15.28,3.91-49.29,10.8-16.92,40.46-16.92,40.46S433.47,313.2,439,319.48Z"/><path class="cls-4" d="M500.44,348.53a115.61,115.61,0,0,0,7.66-17.72c.25-.74.49-1.49.73-2.26-4.32.57-8.76,1-13.29,1.37a300.41,300.41,0,0,1-47.93-.39c6.38,7.79,12.73,16.38,15.95,23.13,7.82,16.41,36.87-4.13,36.87-4.13Z"/><path class="cls-3" d="M437.67,297.35h-1.83v-9.1l-2.71.95v-1.59l4.31-1.63h.23Z"/><path class="cls-2" d="M487.82,282.09h-7.44v-1.3l3.69-4.11a9.52,9.52,0,0,0,1.13-1.52,2.49,2.49,0,0,0,.34-1.23,1.94,1.94,0,0,0-.44-1.31,1.54,1.54,0,0,0-1.2-.49,1.73,1.73,0,0,0-1.39.56,2.22,2.22,0,0,0-.49,1.53h-1.85a3.89,3.89,0,0,1,.46-1.87,3.23,3.23,0,0,1,1.31-1.28,4.08,4.08,0,0,1,2-.46,3.65,3.65,0,0,1,2.54.83,2.9,2.9,0,0,1,.93,2.29,4,4,0,0,1-.47,1.78,10,10,0,0,1-1.53,2.11l-2.71,3h5.14Z"/><path class="cls-2" d="M524.42,264.85h1.12a2,2,0,0,0,1.35-.46,1.62,1.62,0,0,0,.5-1.28,1.78,1.78,0,0,0-.42-1.26,1.66,1.66,0,0,0-1.26-.44,1.72,1.72,0,0,0-1.23.44A1.49,1.49,0,0,0,524,263h-1.85a2.88,2.88,0,0,1,.45-1.58,3.05,3.05,0,0,1,1.26-1.12,4,4,0,0,1,1.81-.4,3.76,3.76,0,0,1,2.61.85,3,3,0,0,1,.94,2.37,2.5,2.5,0,0,1-.47,1.44,3.11,3.11,0,0,1-1.23,1,2.71,2.71,0,0,1,1.39,1,2.82,2.82,0,0,1,.47,1.63,3.08,3.08,0,0,1-1,2.43,3.92,3.92,0,0,1-2.69.9,3.88,3.88,0,0,1-2.61-.87,2.91,2.91,0,0,1-1-2.32h1.85a1.58,1.58,0,0,0,.49,1.21,1.85,1.85,0,0,0,1.32.47,1.9,1.9,0,0,0,1.35-.47,1.76,1.76,0,0,0,.49-1.35,1.8,1.8,0,0,0-.51-1.38,2.2,2.2,0,0,0-1.54-.48h-1.08Z"/><path class="cls-2" d="M535.22,303.33l.59-5.71h5.94v1.63h-4.4l-.3,2.71a3.33,3.33,0,0,1,1.73-.45,3,3,0,0,1,2.45,1,4.12,4.12,0,0,1,.88,2.78,3.82,3.82,0,0,1-1,2.75,3.52,3.52,0,0,1-2.67,1,3.63,3.63,0,0,1-2.51-.88,3.22,3.22,0,0,1-1.09-2.33h1.79a2.06,2.06,0,0,0,.57,1.27,1.77,1.77,0,0,0,1.24.44,1.57,1.57,0,0,0,1.32-.63,2.69,2.69,0,0,0,.47-1.69,2.41,2.41,0,0,0-.52-1.64,1.81,1.81,0,0,0-1.44-.6,2,2,0,0,0-1.61.66Z"/><path class="cls-2" d="M484.09,314.39h1.38v1.52h-1.38v2.52h-1.84v-2.52h-4.78l-.05-1.15,4.76-7.66h1.91Zm-4.74,0h2.9v-4.73l-.14.25Z"/><path class="cls-2" d="M480,337.23v1.57h-.23a3.58,3.58,0,0,0-2.48.87,3.73,3.73,0,0,0-1.1,2.4,3,3,0,0,1,2.27-.95,2.8,2.8,0,0,1,2.31,1.05,4.23,4.23,0,0,1,.85,2.74,3.93,3.93,0,0,1-1,2.79,3.36,3.36,0,0,1-2.6,1.07,3.28,3.28,0,0,1-2.68-1.25,5,5,0,0,1-1-3.28v-.65a7.08,7.08,0,0,1,1.41-4.67,5.06,5.06,0,0,1,4.08-1.69Zm-2,5.41a2,2,0,0,0-1.11.35,2.15,2.15,0,0,0-.74.94v.57a3.44,3.44,0,0,0,.52,2,1.57,1.57,0,0,0,1.33.74,1.54,1.54,0,0,0,1.3-.63,2.68,2.68,0,0,0,.48-1.66,2.73,2.73,0,0,0-.48-1.67A1.56,1.56,0,0,0,478,342.64Z"/><path class="cls-2" d="M536.82,330l-4.42,10.28h-1.93l4.41-9.82h-5.72V328.9h7.66Z"/></g></g></svg>