<svg xmlns="http://www.w3.org/2000/svg" xmlns:xlink="http://www.w3.org/1999/xlink" viewBox="0 0 881 379.88"><defs><style>.cls-1{fill:none;}.cls-2{fill:#65c4d1;}.cls-3{fill:#fff;}.cls-4{fill:#f9f9f9;}.cls-5{fill:#97d8dd;}.cls-6{clip-path:url(#clip-path);}.cls-7{fill:#eaa000;}.cls-8{fill:#eac2a7;}.cls-9{fill:#6d472e;}.cls-10{fill:#c9a68f;}.cls-11{fill:#d6aa8b;}.cls-12{fill:#d6d6d6;}.cls-13{fill:#c99f4b;}.cls-14{fill:#6d5f56;}.cls-15{fill:#493e38;}.cls-16{clip-path:url(#clip-path-2);}.cls-17{fill:#fcfcfc;}.cls-18{fill:#d32222;}.cls-19{fill:#f4f4f4;}.cls-20{clip-path:url(#clip-path-3);}.cls-21{fill:#b7b7b7;}.cls-22{fill:#c99e32;}.cls-23{clip-path:url(#clip-path-4);}.cls-24{fill:#aa7e30;}.cls-25{fill:#ddd;}.cls-26{fill:#846829;}.cls-27{fill:#e8cd95;}</style><clipPath id="clip-path" transform="translate(-22.25 -6.72)"><ellipse class="cls-1" cx="131.22" cy="126.95" rx="131.22" ry="126.95"/></clipPath><clipPath id="clip-path-2" transform="translate(-22.25 -6.72)"><path class="cls-1" d="M118,76.87c-.24-.24,14.12.9,19.6-3.13,0,0,1.09,10.92-3.81,12.12S122.93,85.07,118,76.87Z"/></clipPath><clipPath id="clip-path-3" transform="translate(-22.25 -6.72)"><path class="cls-1" d="M126.12,238.58c3.34,6.62,26.79,8,28.74,8.63,0,0,.61-26.56-3.14-41.48S126.12,238.58,126.12,238.58Z"/></clipPath><clipPath id="clip-path-4" transform="translate(-22.25 -6.72)"><path class="cls-1" d="M97.61,74c4.13,1.71.57-5.71.57-5.71s-.4-7.43-2.5-8.69a30.59,30.59,0,0,1-4.59-3.76l10.57-7.24,28.88-19.8s4-5.57-5.13-9a10.86,10.86,0,0,0-11-3.28s-4-4.77-9.77-.39c0,0-11.62-.68-14.26,5a4.34,4.34,0,0,0-4.28,2.42s-2.42.93-2.88,2.89c0,0-5.88,2.32-6.24,6.24,0,0-3.21,4.49-.64,8.12,0,0-1.7,3.19.5,5.39,0,0-4.92,5.38,0,8.73,0,0-1.22,3.5,6,4.92l2.13,4.42s2.06-.93,8,5Z"/></clipPath></defs><title>3-intro</title><g id="Camada_2" data-name="Camada 2"><g id="Camada_1-2" data-name="Camada 1"><path class="cls-2" d="M893.25,247.77h-719V78H893.25a10,10,0,0,1,10,10V237.77A10,10,0,0,1,893.25,247.77Z" transform="translate(-22.25 -6.72)"/><path class="cls-3" d="M283.88,94.72l-1.56.24,3.82,11.09.39,1.35h.07l.39-1.35L290.8,95l-1.54-.23V93.23h5.38v1.49l-1.37.19-5.72,15.38h-2l-5.72-15.38-1.36-.19V93.23h5.39Z" transform="translate(-22.25 -6.72)"/><path class="cls-3" d="M304,110.29c-.07-.34-.13-.65-.17-.92s-.06-.55-.08-.82A5.63,5.63,0,0,1,302,110a4.77,4.77,0,0,1-5.15-.4,3.53,3.53,0,0,1-1-2.72,3.15,3.15,0,0,1,1.46-2.79,7.11,7.11,0,0,1,4-1h2.38v-1.48a2.28,2.28,0,0,0-.71-1.76,2.72,2.72,0,0,0-2-.65,4.75,4.75,0,0,0-1.53.22,2.84,2.84,0,0,0-1.07.61l-.25,1.33H296.4V98.9a7,7,0,0,1,2.1-1.11,8.49,8.49,0,0,1,2.67-.41,5.32,5.32,0,0,1,3.49,1.1,3.86,3.86,0,0,1,1.34,3.15v6.59l0,.47.94.13v1.47Zm-3.72-1.68a4.07,4.07,0,0,0,2.1-.56,3.4,3.4,0,0,0,1.36-1.32v-2.09h-2.46a3.5,3.5,0,0,0-2.25.66,2,2,0,0,0-.82,1.59,1.61,1.61,0,0,0,.51,1.28A2.4,2.4,0,0,0,300.23,108.61Z" transform="translate(-22.25 -6.72)"/><path class="cls-3" d="M308.43,108.82l1.91-.33V99.43l-1.91-.33V97.61h4l.15,1.66a4.14,4.14,0,0,1,1.57-1.4,4.79,4.79,0,0,1,2.23-.49,3.91,3.91,0,0,1,2.17.58,3.61,3.61,0,0,1,1.37,1.76A4.65,4.65,0,0,1,321.49,98a4.15,4.15,0,0,1,2.3-.63,3.81,3.81,0,0,1,3.07,1.33,6.08,6.08,0,0,1,1.12,4v5.78l1.91.33v1.47h-6.14v-1.47l1.91-.33v-5.8A4.24,4.24,0,0,0,325,100a2.34,2.34,0,0,0-1.91-.78,2.44,2.44,0,0,0-1.94.85,3.64,3.64,0,0,0-.85,2.14v6.25l1.91.33v1.47H316.1v-1.47l1.91-.33v-5.8a4.17,4.17,0,0,0-.66-2.61,2.33,2.33,0,0,0-1.92-.83,3.15,3.15,0,0,0-1.73.44,2.73,2.73,0,0,0-1.05,1.22v7.58l1.91.33v1.47h-6.13Z" transform="translate(-22.25 -6.72)"/><path class="cls-3" d="M331.46,103.84A7,7,0,0,1,333,99.2a5.64,5.64,0,0,1,8.3,0,6.94,6.94,0,0,1,1.53,4.64v.25a6.92,6.92,0,0,1-1.53,4.64,5.1,5.1,0,0,1-4.14,1.81,5.16,5.16,0,0,1-4.16-1.81,7,7,0,0,1-1.52-4.64Zm2.31.25a6,6,0,0,0,.85,3.33,3.06,3.06,0,0,0,5,0,6,6,0,0,0,.86-3.33v-.25a6,6,0,0,0-.86-3.32,3.06,3.06,0,0,0-5,0,6.08,6.08,0,0,0-.84,3.32Z" transform="translate(-22.25 -6.72)"/><path class="cls-3" d="M354.62,101.6h-1.74l-.37-1.53a3.24,3.24,0,0,0-1.06-.63A4.12,4.12,0,0,0,350,99.2a2.67,2.67,0,0,0-1.83.53,1.7,1.7,0,0,0-.6,1.3,1.47,1.47,0,0,0,.53,1.19,5.37,5.37,0,0,0,2.15.77,9.31,9.31,0,0,1,3.57,1.4,2.83,2.83,0,0,1,1.17,2.38,3.28,3.28,0,0,1-1.36,2.73,5.75,5.75,0,0,1-3.57,1,9,9,0,0,1-2.59-.34,6.79,6.79,0,0,1-2.05-1v-2.9h1.73l.43,1.7a2.47,2.47,0,0,0,1.09.53,6,6,0,0,0,1.4.16,3.3,3.3,0,0,0,1.93-.49,1.61,1.61,0,0,0,.11-2.56,5.35,5.35,0,0,0-2.19-.86,9.25,9.25,0,0,1-3.48-1.37,2.75,2.75,0,0,1-1.18-2.34,3.31,3.31,0,0,1,1.32-2.64A5.19,5.19,0,0,1,350,97.38a8.35,8.35,0,0,1,2.59.37,5.32,5.32,0,0,1,1.91,1Z" transform="translate(-22.25 -6.72)"/><path class="cls-3" d="M367.46,99.1l-1.52.24,2.61,7.21.21.92h.07l.23-.92,2.53-7.21-1.54-.24V97.61H375V99.1l-1,.18-4.26,11h-1.74l-4.3-11-1.05-.18V97.61h4.9Z" transform="translate(-22.25 -6.72)"/><path class="cls-3" d="M382.14,110.54a5.38,5.38,0,0,1-4.21-1.76,6.68,6.68,0,0,1-1.56-4.58v-.52a6.47,6.47,0,0,1,1.61-4.5,5,5,0,0,1,3.81-1.8,4.79,4.79,0,0,1,3.88,1.55,6.12,6.12,0,0,1,1.31,4.12v1.44h-8.22l0,.06a5.11,5.11,0,0,0,.93,3,2.94,2.94,0,0,0,2.49,1.17,5.86,5.86,0,0,0,2.06-.33,4.7,4.7,0,0,0,1.53-.92l.9,1.5a5.42,5.42,0,0,1-1.8,1.11A7.18,7.18,0,0,1,382.14,110.54Zm-.35-11.34a2.51,2.51,0,0,0-2,1,4.67,4.67,0,0,0-1,2.46l0,.06h5.85v-.31a3.57,3.57,0,0,0-.73-2.27A2.58,2.58,0,0,0,381.79,99.2Z" transform="translate(-22.25 -6.72)"/><path class="cls-3" d="M389.26,99.1V97.61h4l.22,1.84a4.51,4.51,0,0,1,1.33-1.52,3.07,3.07,0,0,1,1.81-.55,3.6,3.6,0,0,1,.56,0l.44.09-.3,2.14L396,99.58a2.58,2.58,0,0,0-1.53.43,2.68,2.68,0,0,0-1,1.2v7.28l1.91.33v1.47h-6.13v-1.47l1.91-.33V99.43Z" transform="translate(-22.25 -6.72)"/><path class="cls-3" d="M413.42,110.29c-.07-.34-.12-.65-.16-.92a7.84,7.84,0,0,1-.08-.82,5.76,5.76,0,0,1-1.67,1.42,4.26,4.26,0,0,1-2.14.57,4.21,4.21,0,0,1-3-1,3.53,3.53,0,0,1-1-2.72,3.17,3.17,0,0,1,1.46-2.79,7.17,7.17,0,0,1,4-1h2.37v-1.48a2.27,2.27,0,0,0-.7-1.76,2.75,2.75,0,0,0-2-.65,4.72,4.72,0,0,0-1.52.22,2.88,2.88,0,0,0-1.08.61l-.24,1.33h-1.78V98.9A6.8,6.8,0,0,1,408,97.79a8.49,8.49,0,0,1,2.67-.41,5.35,5.35,0,0,1,3.5,1.1,3.85,3.85,0,0,1,1.33,3.15v6.11c0,.16,0,.32,0,.48a3.83,3.83,0,0,0,0,.47l.94.13v1.47Zm-3.71-1.68a4.13,4.13,0,0,0,2.1-.56,3.3,3.3,0,0,0,1.35-1.32v-2.09H410.7a3.49,3.49,0,0,0-2.24.66,2,2,0,0,0-.83,1.59,1.61,1.61,0,0,0,.52,1.28A2.36,2.36,0,0,0,409.71,108.61Z" transform="translate(-22.25 -6.72)"/><path class="cls-3" d="M418.05,93.5V92h4.22v16.48l1.91.33v1.47h-6.13v-1.47l1.91-.33V93.83Z" transform="translate(-22.25 -6.72)"/><path class="cls-3" d="M425.82,104.19a8.35,8.35,0,0,1,1.34-4.94,4.28,4.28,0,0,1,3.69-1.87,4.45,4.45,0,0,1,2.1.47,4.08,4.08,0,0,1,1.51,1.36l.21-1.6h1.94v12.52a5.29,5.29,0,0,1-1.37,3.87,5.18,5.18,0,0,1-3.9,1.41,8.52,8.52,0,0,1-2-.25,7.82,7.82,0,0,1-1.88-.68l.6-1.8a6.8,6.8,0,0,0,1.53.57,7.29,7.29,0,0,0,1.71.22,2.76,2.76,0,0,0,2.26-.87,3.77,3.77,0,0,0,.73-2.47v-1.21a4.2,4.2,0,0,1-1.49,1.21,4.7,4.7,0,0,1-2,.41,4.4,4.4,0,0,1-3.66-1.69,6.91,6.91,0,0,1-1.34-4.42Zm2.31.24a5.24,5.24,0,0,0,.81,3.07,2.78,2.78,0,0,0,2.46,1.16,3,3,0,0,0,1.74-.47,3.67,3.67,0,0,0,1.17-1.34V101a3.53,3.53,0,0,0-1.17-1.28,3,3,0,0,0-1.72-.48,2.68,2.68,0,0,0-2.47,1.39,6.83,6.83,0,0,0-.82,3.55Z" transform="translate(-22.25 -6.72)"/><path class="cls-3" d="M448.46,108.42a4.3,4.3,0,0,1-1.54,1.57,4.19,4.19,0,0,1-2.17.55,4.06,4.06,0,0,1-3.23-1.33,6.14,6.14,0,0,1-1.16-4.12V99.43l-1.45-.33V97.61h3.76v7.5a4.72,4.72,0,0,0,.6,2.79,2.22,2.22,0,0,0,1.86.76,3.85,3.85,0,0,0,2-.49,3.18,3.18,0,0,0,1.21-1.42V99.43l-1.7-.33V97.61h4v10.88l1.45.33v1.47h-3.53Z" transform="translate(-22.25 -6.72)"/><path class="cls-3" d="M453.63,108.82l1.91-.33V99.43l-1.91-.33V97.61h4l.17,1.89a4.62,4.62,0,0,1,1.58-1.56,4.19,4.19,0,0,1,2.18-.56,4.14,4.14,0,0,1,3.17,1.2,5.28,5.28,0,0,1,1.13,3.71v6.2l1.91.33v1.47h-6.13v-1.47l1.91-.33v-6.15a3.44,3.44,0,0,0-.66-2.38,2.65,2.65,0,0,0-2-.71,3.26,3.26,0,0,0-1.77.48,3.45,3.45,0,0,0-1.22,1.32v7.44l1.91.33v1.47h-6.13Z" transform="translate(-22.25 -6.72)"/><path class="cls-3" d="M479.12,101.6h-1.74l-.37-1.53a3.24,3.24,0,0,0-1.06-.63,4.12,4.12,0,0,0-1.45-.24,2.67,2.67,0,0,0-1.83.53,1.7,1.7,0,0,0-.6,1.3,1.47,1.47,0,0,0,.53,1.19,5.37,5.37,0,0,0,2.15.77,9.31,9.31,0,0,1,3.57,1.4,2.83,2.83,0,0,1,1.17,2.38,3.28,3.28,0,0,1-1.36,2.73,5.75,5.75,0,0,1-3.57,1,9,9,0,0,1-2.59-.34,6.79,6.79,0,0,1-2.05-1v-2.9h1.73l.43,1.7a2.47,2.47,0,0,0,1.09.53,6,6,0,0,0,1.4.16,3.3,3.3,0,0,0,1.93-.49,1.61,1.61,0,0,0,.11-2.56,5.35,5.35,0,0,0-2.19-.86,9.25,9.25,0,0,1-3.48-1.37,2.75,2.75,0,0,1-1.18-2.34,3.31,3.31,0,0,1,1.32-2.64,5.19,5.19,0,0,1,3.43-1.09,8.35,8.35,0,0,1,2.59.37,5.32,5.32,0,0,1,1.91,1Z" transform="translate(-22.25 -6.72)"/><path class="cls-3" d="M493.4,110.54a5.36,5.36,0,0,1-4.21-1.76,6.68,6.68,0,0,1-1.56-4.58v-.52a6.47,6.47,0,0,1,1.61-4.5,5,5,0,0,1,3.81-1.8,4.77,4.77,0,0,1,3.87,1.55,6.12,6.12,0,0,1,1.32,4.12v1.44H490l0,.06a5,5,0,0,0,.93,3,2.94,2.94,0,0,0,2.49,1.17,5.9,5.9,0,0,0,2.06-.33,4.7,4.7,0,0,0,1.53-.92l.9,1.5a5.42,5.42,0,0,1-1.8,1.11A7.18,7.18,0,0,1,493.4,110.54Zm-.35-11.34a2.51,2.51,0,0,0-2,1,4.68,4.68,0,0,0-1,2.46l0,.06h5.84v-.31a3.56,3.56,0,0,0-.72-2.27A2.6,2.6,0,0,0,493.05,99.2Z" transform="translate(-22.25 -6.72)"/><path class="cls-3" d="M500.2,108.82l1.36-.27,3.74-4.67-3.62-4.51-1.36-.27V97.61h5V99.1l-1.15.14,2.36,3.05,2.38-3.06-1.13-.13V97.61h5V99.1l-1.36.27-3.62,4.51,3.73,4.67,1.37.27v1.47h-5v-1.47l1.12-.13-2.48-3.19-2.48,3.19,1.13.13v1.47h-5Z" transform="translate(-22.25 -6.72)"/><path class="cls-3" d="M520,110.54a5.35,5.35,0,0,1-4.21-1.76,6.63,6.63,0,0,1-1.57-4.58v-.52a6.52,6.52,0,0,1,1.61-4.5,5,5,0,0,1,3.82-1.8,4.78,4.78,0,0,1,3.87,1.55,6.12,6.12,0,0,1,1.32,4.12v1.44h-8.23l0,.06a5,5,0,0,0,.92,3,3,3,0,0,0,2.5,1.17,5.9,5.9,0,0,0,2.06-.33,4.7,4.7,0,0,0,1.53-.92l.9,1.5a5.52,5.52,0,0,1-1.8,1.11A7.21,7.21,0,0,1,520,110.54Zm-.35-11.34a2.48,2.48,0,0,0-2,1,4.6,4.6,0,0,0-1,2.46l0,.06h5.85v-.31a3.51,3.51,0,0,0-.73-2.27A2.57,2.57,0,0,0,519.69,99.2Z" transform="translate(-22.25 -6.72)"/><path class="cls-3" d="M526.7,108.82l1.91-.33V99.43l-1.91-.33V97.61h4l.15,1.66a4.14,4.14,0,0,1,1.57-1.4,4.82,4.82,0,0,1,2.23-.49,3.91,3.91,0,0,1,2.17.58,3.61,3.61,0,0,1,1.37,1.76A4.65,4.65,0,0,1,539.75,98a4.18,4.18,0,0,1,2.3-.63,3.81,3.81,0,0,1,3.07,1.33,6.08,6.08,0,0,1,1.12,4v5.78l1.91.33v1.47H542v-1.47l1.91-.33v-5.8a4.24,4.24,0,0,0-.64-2.66,2.34,2.34,0,0,0-1.91-.78,2.45,2.45,0,0,0-1.94.85,3.71,3.71,0,0,0-.85,2.14v6.25l1.91.33v1.47h-6.13v-1.47l1.91-.33v-5.8a4.17,4.17,0,0,0-.66-2.61,2.32,2.32,0,0,0-1.92-.83,3.15,3.15,0,0,0-1.73.44,2.79,2.79,0,0,0-1.05,1.22v7.58l1.91.33v1.47H526.7Z" transform="translate(-22.25 -6.72)"/><path class="cls-3" d="M549.55,113.68l1.91-.33V99.43l-1.91-.33V97.61h3.89l.21,1.55a4.14,4.14,0,0,1,1.54-1.32,4.57,4.57,0,0,1,2.1-.46A4.23,4.23,0,0,1,561,99.25a8.45,8.45,0,0,1,1.3,4.94v.24a7,7,0,0,1-1.31,4.43,4.34,4.34,0,0,1-3.62,1.68,5.08,5.08,0,0,1-2.06-.39,4,4,0,0,1-1.5-1.17v4.37l1.91.33v1.49h-6.13Zm10.39-9.49a6.74,6.74,0,0,0-.84-3.55,2.74,2.74,0,0,0-2.51-1.39,3.07,3.07,0,0,0-1.69.45,3.33,3.33,0,0,0-1.13,1.22v6.17a3.18,3.18,0,0,0,1.13,1.22,3.23,3.23,0,0,0,1.71.42,2.83,2.83,0,0,0,2.49-1.19,5.29,5.29,0,0,0,.84-3.11Z" transform="translate(-22.25 -6.72)"/><path class="cls-3" d="M563.93,93.5V92h4.21v16.48l1.92.33v1.47h-6.13v-1.47l1.91-.33V93.83Z" transform="translate(-22.25 -6.72)"/><path class="cls-3" d="M571.58,103.84a7,7,0,0,1,1.52-4.64,5.63,5.63,0,0,1,8.29,0,6.94,6.94,0,0,1,1.53,4.64v.25a7,7,0,0,1-1.52,4.64,5.66,5.66,0,0,1-8.3,0,7,7,0,0,1-1.52-4.64Zm2.31.25a6,6,0,0,0,.85,3.33,3.06,3.06,0,0,0,5,0,6,6,0,0,0,.85-3.33v-.25a6,6,0,0,0-.85-3.32,3.06,3.06,0,0,0-5,0,6.08,6.08,0,0,0-.84,3.32Z" transform="translate(-22.25 -6.72)"/><path class="cls-3" d="M594.73,101.6H593l-.37-1.53a3.29,3.29,0,0,0-1.07-.63,4,4,0,0,0-1.44-.24,2.67,2.67,0,0,0-1.83.53,1.7,1.7,0,0,0-.6,1.3,1.47,1.47,0,0,0,.53,1.19,5.37,5.37,0,0,0,2.14.77,9.3,9.3,0,0,1,3.58,1.4,2.83,2.83,0,0,1,1.17,2.38,3.29,3.29,0,0,1-1.37,2.73,5.74,5.74,0,0,1-3.56,1,9,9,0,0,1-2.59-.34,6.79,6.79,0,0,1-2.05-1l0-2.9h1.74l.43,1.7a2.47,2.47,0,0,0,1.09.53,5.89,5.89,0,0,0,1.4.16,3.25,3.25,0,0,0,1.92-.49,1.6,1.6,0,0,0,.12-2.56,5.41,5.41,0,0,0-2.2-.86,9.25,9.25,0,0,1-3.48-1.37,2.77,2.77,0,0,1-1.17-2.34,3.31,3.31,0,0,1,1.32-2.64,5.19,5.19,0,0,1,3.43-1.09,8.35,8.35,0,0,1,2.59.37,5.4,5.4,0,0,1,1.91,1Z" transform="translate(-22.25 -6.72)"/><path class="cls-3" d="M611.5,110.29c-.07-.34-.12-.65-.16-.92a7.84,7.84,0,0,1-.08-.82,5.63,5.63,0,0,1-1.67,1.42,4.77,4.77,0,0,1-5.15-.4,3.53,3.53,0,0,1-1-2.72,3.15,3.15,0,0,1,1.46-2.79,7.11,7.11,0,0,1,4-1h2.38v-1.48a2.28,2.28,0,0,0-.71-1.76,2.74,2.74,0,0,0-1.95-.65,4.75,4.75,0,0,0-1.53.22A3,3,0,0,0,606,100l-.24,1.33H604V98.9a6.85,6.85,0,0,1,2.1-1.11,8.49,8.49,0,0,1,2.67-.41,5.34,5.34,0,0,1,3.49,1.1,3.86,3.86,0,0,1,1.34,3.15v6.59a3.83,3.83,0,0,0,0,.47l.94.13v1.47Zm-3.71-1.68a4.1,4.1,0,0,0,2.1-.56,3.4,3.4,0,0,0,1.36-1.32v-2.09h-2.46a3.5,3.5,0,0,0-2.25.66,2,2,0,0,0-.82,1.59,1.61,1.61,0,0,0,.51,1.28A2.36,2.36,0,0,0,607.79,108.61Z" transform="translate(-22.25 -6.72)"/><path class="cls-3" d="M616.46,104.19a8.35,8.35,0,0,1,1.34-4.94,4.28,4.28,0,0,1,3.69-1.87,4.42,4.42,0,0,1,2.1.47,4.08,4.08,0,0,1,1.51,1.36l.21-1.6h1.94v12.52a5.29,5.29,0,0,1-1.37,3.87,5.18,5.18,0,0,1-3.9,1.41,8.52,8.52,0,0,1-2-.25,7.59,7.59,0,0,1-1.87-.68l.59-1.8a6.8,6.8,0,0,0,1.53.57,7.29,7.29,0,0,0,1.71.22,2.8,2.8,0,0,0,2.27-.87,3.77,3.77,0,0,0,.72-2.47v-1.21a4.11,4.11,0,0,1-1.49,1.21,4.65,4.65,0,0,1-2,.41,4.41,4.41,0,0,1-3.67-1.69,6.91,6.91,0,0,1-1.34-4.42Zm2.31.24a5.24,5.24,0,0,0,.81,3.07,2.78,2.78,0,0,0,2.46,1.16,3,3,0,0,0,1.75-.47,3.74,3.74,0,0,0,1.16-1.34V101a3.6,3.6,0,0,0-1.16-1.28,3.05,3.05,0,0,0-1.73-.48,2.68,2.68,0,0,0-2.47,1.39,6.83,6.83,0,0,0-.82,3.55Z" transform="translate(-22.25 -6.72)"/><path class="cls-3" d="M630,103.84a7,7,0,0,1,1.53-4.64,5.63,5.63,0,0,1,8.29,0,6.94,6.94,0,0,1,1.53,4.64v.25a6.92,6.92,0,0,1-1.53,4.64,5.65,5.65,0,0,1-8.29,0,6.94,6.94,0,0,1-1.53-4.64Zm2.31.25a6,6,0,0,0,.85,3.33,2.81,2.81,0,0,0,2.53,1.31,2.78,2.78,0,0,0,2.49-1.31,6,6,0,0,0,.86-3.33v-.25a6,6,0,0,0-.86-3.32,2.81,2.81,0,0,0-2.52-1.32,2.77,2.77,0,0,0-2.5,1.32,6,6,0,0,0-.85,3.32Z" transform="translate(-22.25 -6.72)"/><path class="cls-3" d="M643.5,99.1V97.61h4l.22,1.84A4.41,4.41,0,0,1,649,97.93a3.07,3.07,0,0,1,1.81-.55,3.6,3.6,0,0,1,.56,0l.44.09-.31,2.14-1.31-.07a2.58,2.58,0,0,0-1.53.43,2.68,2.68,0,0,0-1,1.2v7.28l1.91.33v1.47H643.5v-1.47l1.91-.33V99.43Z" transform="translate(-22.25 -6.72)"/><path class="cls-3" d="M661.7,110.29c-.07-.34-.13-.65-.17-.92s-.06-.55-.08-.82a5.63,5.63,0,0,1-1.67,1.42,4.77,4.77,0,0,1-5.15-.4,3.53,3.53,0,0,1-1-2.72,3.15,3.15,0,0,1,1.46-2.79,7.11,7.11,0,0,1,4-1h2.38v-1.48a2.28,2.28,0,0,0-.71-1.76,2.72,2.72,0,0,0-2-.65,4.75,4.75,0,0,0-1.53.22,2.84,2.84,0,0,0-1.07.61l-.25,1.33h-1.78V98.9a7,7,0,0,1,2.1-1.11,8.49,8.49,0,0,1,2.67-.41,5.32,5.32,0,0,1,3.49,1.1,3.86,3.86,0,0,1,1.34,3.15v6.59l0,.47.94.13v1.47ZM658,108.61a4.07,4.07,0,0,0,2.1-.56,3.4,3.4,0,0,0,1.36-1.32v-2.09H659a3.5,3.5,0,0,0-2.25.66,2,2,0,0,0-.82,1.59,1.61,1.61,0,0,0,.51,1.28A2.4,2.4,0,0,0,658,108.61Z" transform="translate(-22.25 -6.72)"/><path class="cls-3" d="M669.58,104.69h-2.31V93.23h2.31Zm0,5.6h-2.31V107.9h2.31Z" transform="translate(-22.25 -6.72)"/><path class="cls-3" d="M295.48,150.83v1.49l-1.91.33v15.24h-2.3l-8.21-13.17-.07,0v11.35l1.91.33v1.47h-6.13v-1.47l1.91-.33V152.65l-1.91-.33v-1.49H283L291.2,164l.07,0V152.65l-1.91-.33v-1.49h6.12Z" transform="translate(-22.25 -6.72)"/><path class="cls-3" d="M303.06,168.14a5.36,5.36,0,0,1-4.22-1.77,6.63,6.63,0,0,1-1.56-4.57v-.52a6.47,6.47,0,0,1,1.61-4.5,5,5,0,0,1,3.81-1.8,4.79,4.79,0,0,1,3.88,1.55,6.12,6.12,0,0,1,1.31,4.12v1.44h-8.22l0,.06a5.11,5.11,0,0,0,.93,3,3,3,0,0,0,2.5,1.17,5.84,5.84,0,0,0,2.05-.33,4.7,4.7,0,0,0,1.53-.92l.9,1.5a5.42,5.42,0,0,1-1.8,1.11A7.16,7.16,0,0,1,303.06,168.14Zm-.36-11.35a2.52,2.52,0,0,0-2,1,4.67,4.67,0,0,0-1,2.46l0,.06h5.85V160a3.57,3.57,0,0,0-.73-2.27A2.58,2.58,0,0,0,302.7,156.79Z" transform="translate(-22.25 -6.72)"/><path class="cls-3" d="M319.87,159.2h-1.73l-.38-1.53a3.33,3.33,0,0,0-1.06-.64,4.08,4.08,0,0,0-1.45-.24,2.62,2.62,0,0,0-1.82.54,1.7,1.7,0,0,0-.6,1.3,1.44,1.44,0,0,0,.53,1.19,5.47,5.47,0,0,0,2.14.77,9.31,9.31,0,0,1,3.57,1.4,2.8,2.8,0,0,1,1.18,2.37,3.3,3.3,0,0,1-1.37,2.74,5.75,5.75,0,0,1-3.57,1,9,9,0,0,1-2.59-.34,6.9,6.9,0,0,1-2.05-1v-2.9h1.73l.44,1.7a2.43,2.43,0,0,0,1.08.53,6,6,0,0,0,1.4.16,3.28,3.28,0,0,0,1.93-.49,1.54,1.54,0,0,0,.7-1.31,1.57,1.57,0,0,0-.58-1.25,5.41,5.41,0,0,0-2.2-.86,9.25,9.25,0,0,1-3.48-1.37,2.77,2.77,0,0,1-1.17-2.35,3.29,3.29,0,0,1,1.32-2.63,5.18,5.18,0,0,1,3.42-1.09,8.26,8.26,0,0,1,2.59.37,5.23,5.23,0,0,1,1.91,1.05Z" transform="translate(-22.25 -6.72)"/><path class="cls-3" d="M326.43,152.15v3.06h2.41v1.71h-2.41v7.7a1.77,1.77,0,0,0,.37,1.26,1.36,1.36,0,0,0,1,.36,6.21,6.21,0,0,0,.69-.05l.64-.11.31,1.58a3,3,0,0,1-1,.34,6,6,0,0,1-1.26.14,3,3,0,0,1-2.24-.85,3.68,3.68,0,0,1-.83-2.67v-7.7h-2v-1.71h2v-3.06Z" transform="translate(-22.25 -6.72)"/><path class="cls-3" d="M337,168.14a5.34,5.34,0,0,1-4.21-1.77,6.64,6.64,0,0,1-1.57-4.57v-.52a6.52,6.52,0,0,1,1.61-4.5,5,5,0,0,1,3.82-1.8,4.78,4.78,0,0,1,3.87,1.55,6.12,6.12,0,0,1,1.32,4.12v1.44h-8.23l0,.06a5,5,0,0,0,.92,3,3,3,0,0,0,2.5,1.17A5.9,5.9,0,0,0,339,166a4.7,4.7,0,0,0,1.53-.92l.9,1.5a5.42,5.42,0,0,1-1.8,1.11A7.21,7.21,0,0,1,337,168.14Zm-.35-11.35a2.52,2.52,0,0,0-2,1,4.68,4.68,0,0,0-1,2.46l0,.06h5.85V160a3.56,3.56,0,0,0-.72-2.27A2.61,2.61,0,0,0,336.63,156.79Z" transform="translate(-22.25 -6.72)"/><path class="cls-3" d="M355.85,168.14a5.32,5.32,0,0,1-4.21-1.77,6.59,6.59,0,0,1-1.57-4.57v-.52a6.52,6.52,0,0,1,1.61-4.5,5,5,0,0,1,3.82-1.8,4.78,4.78,0,0,1,3.87,1.55,6.12,6.12,0,0,1,1.32,4.12v1.44h-8.23l0,.06a5,5,0,0,0,.92,3,3,3,0,0,0,2.5,1.17,5.84,5.84,0,0,0,2-.33,4.7,4.7,0,0,0,1.53-.92l.91,1.5a5.63,5.63,0,0,1-1.8,1.11A7.25,7.25,0,0,1,355.85,168.14Zm-.35-11.35a2.49,2.49,0,0,0-2,1,4.6,4.6,0,0,0-1,2.46l0,.06h5.85V160a3.51,3.51,0,0,0-.73-2.27A2.58,2.58,0,0,0,355.5,156.79Z" transform="translate(-22.25 -6.72)"/><path class="cls-3" d="M362.64,166.42l1.36-.27,3.74-4.67L364.12,157l-1.36-.27v-1.49h5v1.49l-1.15.14,2.37,3,2.38-3.06-1.14-.13v-1.49h5v1.49l-1.36.27-3.62,4.51,3.72,4.67,1.37.27v1.47h-5v-1.47l1.13-.13L369,163.1l-2.48,3.19,1.14.13v1.47h-5Z" transform="translate(-22.25 -6.72)"/><path class="cls-3" d="M382.48,168.14a5.34,5.34,0,0,1-4.21-1.77,6.63,6.63,0,0,1-1.56-4.57v-.52a6.47,6.47,0,0,1,1.61-4.5,5,5,0,0,1,3.81-1.8,4.79,4.79,0,0,1,3.88,1.55,6.12,6.12,0,0,1,1.31,4.12v1.44H379.1l0,.06a5,5,0,0,0,.93,3,2.94,2.94,0,0,0,2.49,1.17,5.86,5.86,0,0,0,2.06-.33,4.7,4.7,0,0,0,1.53-.92l.9,1.5a5.42,5.42,0,0,1-1.8,1.11A7.18,7.18,0,0,1,382.48,168.14Zm-.35-11.35a2.52,2.52,0,0,0-2,1,4.76,4.76,0,0,0-1,2.46l0,.06H385V160a3.57,3.57,0,0,0-.73-2.27A2.58,2.58,0,0,0,382.13,156.79Z" transform="translate(-22.25 -6.72)"/><path class="cls-3" d="M389.14,166.42l1.91-.33V157l-1.91-.33v-1.49h4l.15,1.65a4.12,4.12,0,0,1,1.57-1.39,4.78,4.78,0,0,1,2.22-.49,3.94,3.94,0,0,1,2.18.58,3.55,3.55,0,0,1,1.36,1.76,4.68,4.68,0,0,1,1.59-1.71,4.14,4.14,0,0,1,2.29-.63,3.79,3.79,0,0,1,3.07,1.33,6.08,6.08,0,0,1,1.13,4v5.78l1.91.33v1.47h-6.14v-1.47l1.91-.33v-5.8a4.23,4.23,0,0,0-.65-2.66,2.33,2.33,0,0,0-1.91-.78,2.46,2.46,0,0,0-1.94.85,3.78,3.78,0,0,0-.85,2.14v6.25l1.91.33v1.47h-6.12v-1.47l1.91-.33v-5.8a4.17,4.17,0,0,0-.67-2.61,2.31,2.31,0,0,0-1.91-.83,3.18,3.18,0,0,0-1.74.44,2.77,2.77,0,0,0-1,1.22v7.58l1.91.33v1.47h-6.13Z" transform="translate(-22.25 -6.72)"/><path class="cls-3" d="M412,171.28l1.91-.33V157L412,156.7v-1.49h3.89l.21,1.55a4.25,4.25,0,0,1,1.55-1.32,4.51,4.51,0,0,1,2.1-.46,4.2,4.2,0,0,1,3.66,1.87,8.45,8.45,0,0,1,1.31,4.94V162a7,7,0,0,1-1.32,4.43,4.33,4.33,0,0,1-3.62,1.68,5,5,0,0,1-2-.39,4.09,4.09,0,0,1-1.51-1.17V171l1.91.33v1.49H412Zm10.4-9.49a6.64,6.64,0,0,0-.85-3.55,2.74,2.74,0,0,0-2.5-1.39,3.07,3.07,0,0,0-1.69.45,3.35,3.35,0,0,0-1.14,1.22v6.17a3.25,3.25,0,0,0,1.13,1.22,3.3,3.3,0,0,0,1.72.42,2.83,2.83,0,0,0,2.48-1.19,5.22,5.22,0,0,0,.85-3.11Z" transform="translate(-22.25 -6.72)"/><path class="cls-3" d="M426.37,151.1v-1.49h4.22v16.48l1.91.33v1.47h-6.13v-1.47l1.91-.33V151.43Z" transform="translate(-22.25 -6.72)"/><path class="cls-3" d="M434,161.44a7,7,0,0,1,1.53-4.64,5.1,5.1,0,0,1,4.13-1.82,5.16,5.16,0,0,1,4.16,1.81,7,7,0,0,1,1.53,4.65v.25a6.92,6.92,0,0,1-1.53,4.64,5.1,5.1,0,0,1-4.13,1.81,5.16,5.16,0,0,1-4.16-1.81,6.94,6.94,0,0,1-1.53-4.64Zm2.31.25a6,6,0,0,0,.85,3.33,2.81,2.81,0,0,0,2.53,1.31A2.78,2.78,0,0,0,442.2,165a6,6,0,0,0,.86-3.33v-.25a6,6,0,0,0-.86-3.32,2.82,2.82,0,0,0-2.52-1.33,2.78,2.78,0,0,0-2.5,1.33,6,6,0,0,0-.85,3.32Z" transform="translate(-22.25 -6.72)"/><path class="cls-3" d="M462,166.38a4,4,0,0,1-1.51,1.31,4.58,4.58,0,0,1-2.08.45,4.34,4.34,0,0,1-3.63-1.68,7,7,0,0,1-1.31-4.43v-.24a8.49,8.49,0,0,1,1.31-4.94,4.2,4.2,0,0,1,3.65-1.87,4.65,4.65,0,0,1,2,.41,4.15,4.15,0,0,1,1.47,1.21v-5.17L460,151.1v-1.49h4.22v16.48l1.91.33v1.47h-3.92ZM455.76,162a5.31,5.31,0,0,0,.79,3.07,2.7,2.7,0,0,0,2.42,1.16,3,3,0,0,0,1.74-.47,3.58,3.58,0,0,0,1.16-1.32v-5.88a3.65,3.65,0,0,0-1.16-1.27,3.09,3.09,0,0,0-1.71-.47,2.64,2.64,0,0,0-2.45,1.37,7.2,7.2,0,0,0-.79,3.57Z" transform="translate(-22.25 -6.72)"/><path class="cls-3" d="M473.63,168.14a5.34,5.34,0,0,1-4.21-1.77,6.63,6.63,0,0,1-1.56-4.57v-.52a6.47,6.47,0,0,1,1.61-4.5,5,5,0,0,1,3.81-1.8,4.77,4.77,0,0,1,3.87,1.55,6.12,6.12,0,0,1,1.32,4.12v1.44h-8.22l0,.06a5,5,0,0,0,.93,3,2.94,2.94,0,0,0,2.49,1.17,5.9,5.9,0,0,0,2.06-.33,4.7,4.7,0,0,0,1.53-.92l.9,1.5a5.42,5.42,0,0,1-1.8,1.11A7.18,7.18,0,0,1,473.63,168.14Zm-.35-11.35a2.52,2.52,0,0,0-2,1,4.68,4.68,0,0,0-1,2.46l0,.06h5.84V160a3.56,3.56,0,0,0-.72-2.27A2.61,2.61,0,0,0,473.28,156.79Z" transform="translate(-22.25 -6.72)"/><path class="cls-3" d="M486.43,171.28l1.91-.33V157l-1.91-.33v-1.49h3.89l.21,1.55a4.22,4.22,0,0,1,1.54-1.32,4.58,4.58,0,0,1,2.11-.46,4.2,4.2,0,0,1,3.66,1.87,8.45,8.45,0,0,1,1.3,4.94V162a7,7,0,0,1-1.31,4.43,4.33,4.33,0,0,1-3.62,1.68,5.08,5.08,0,0,1-2.06-.39,4,4,0,0,1-1.5-1.17V171l1.91.33v1.49h-6.13Zm10.39-9.49a6.74,6.74,0,0,0-.84-3.55,2.74,2.74,0,0,0-2.51-1.39,3,3,0,0,0-1.68.45,3.35,3.35,0,0,0-1.14,1.22v6.17a3.18,3.18,0,0,0,1.13,1.22,3.27,3.27,0,0,0,1.72.42,2.83,2.83,0,0,0,2.48-1.19,5.29,5.29,0,0,0,.84-3.11Z" transform="translate(-22.25 -6.72)"/><path class="cls-3" d="M500.81,151.1v-1.49H505v16.48l1.91.33v1.47h-6.13v-1.47l1.91-.33V151.43Z" transform="translate(-22.25 -6.72)"/><path class="cls-3" d="M517,167.89c-.07-.34-.13-.65-.17-.92s-.06-.55-.08-.82a5.51,5.51,0,0,1-1.67,1.42,4.77,4.77,0,0,1-5.15-.4,3.53,3.53,0,0,1-1-2.72,3.17,3.17,0,0,1,1.46-2.79,7.13,7.13,0,0,1,4-1h2.38v-1.48a2.27,2.27,0,0,0-.7-1.76,2.75,2.75,0,0,0-2-.66,4.73,4.73,0,0,0-1.53.23,2.84,2.84,0,0,0-1.07.61l-.25,1.33h-1.78V156.5a7,7,0,0,1,2.1-1.11,8.49,8.49,0,0,1,2.67-.41,5.32,5.32,0,0,1,3.49,1.1,3.84,3.84,0,0,1,1.34,3.15v6.59l0,.47.94.13v1.47Zm-3.72-1.69a4.07,4.07,0,0,0,2.1-.55,3.33,3.33,0,0,0,1.36-1.32v-2.09h-2.46a3.52,3.52,0,0,0-2.25.66,2,2,0,0,0-.82,1.59,1.61,1.61,0,0,0,.51,1.28A2.4,2.4,0,0,0,513.24,166.2Z" transform="translate(-22.25 -6.72)"/><path class="cls-3" d="M521.56,166.42l1.91-.33V157l-1.91-.33v-1.49h4l.16,1.89a4.68,4.68,0,0,1,1.59-1.57,4.22,4.22,0,0,1,2.17-.55,4.15,4.15,0,0,1,3.18,1.2,5.28,5.28,0,0,1,1.12,3.71v6.2l1.91.33v1.47h-6.13v-1.47l1.91-.33v-6.15a3.44,3.44,0,0,0-.66-2.38,2.64,2.64,0,0,0-2-.71,3.25,3.25,0,0,0-1.76.48,3.48,3.48,0,0,0-1.23,1.32v7.44l1.91.33v1.47h-6.13Z" transform="translate(-22.25 -6.72)"/><path class="cls-3" d="M543,168.14a5.32,5.32,0,0,1-4.21-1.77,6.59,6.59,0,0,1-1.57-4.57v-.52a6.52,6.52,0,0,1,1.61-4.5,5,5,0,0,1,3.82-1.8,4.78,4.78,0,0,1,3.87,1.55,6.12,6.12,0,0,1,1.32,4.12v1.44h-8.23l0,.06a5,5,0,0,0,.92,3,3,3,0,0,0,2.5,1.17,5.9,5.9,0,0,0,2.06-.33,4.7,4.7,0,0,0,1.53-.92l.9,1.5a5.42,5.42,0,0,1-1.8,1.11A7.21,7.21,0,0,1,543,168.14Zm-.35-11.35a2.49,2.49,0,0,0-2,1,4.68,4.68,0,0,0-1,2.46l0,.06h5.85V160a3.51,3.51,0,0,0-.73-2.27A2.58,2.58,0,0,0,542.67,156.79Z" transform="translate(-22.25 -6.72)"/><path class="cls-3" d="M554.06,168.94a4.2,4.2,0,0,1-1,3,3.66,3.66,0,0,1-2.8,1.06,3.56,3.56,0,0,1-.68,0,4.16,4.16,0,0,1-.63-.16l.15-1.81a2.6,2.6,0,0,0,.48.1c.21,0,.38,0,.52,0a1.55,1.55,0,0,0,1.21-.52,2.51,2.51,0,0,0,.45-1.67V157l-1.91-.33v-1.49h4.22Zm-.07-17h-2.31v-2.31H554Z" transform="translate(-22.25 -6.72)"/><path class="cls-3" d="M565.1,167.89c-.07-.34-.13-.65-.17-.92s-.06-.55-.08-.82a5.51,5.51,0,0,1-1.67,1.42,4.77,4.77,0,0,1-5.15-.4,3.53,3.53,0,0,1-1-2.72,3.17,3.17,0,0,1,1.46-2.79,7.13,7.13,0,0,1,4-1h2.38v-1.48a2.27,2.27,0,0,0-.7-1.76,2.75,2.75,0,0,0-2-.66,4.73,4.73,0,0,0-1.53.23,2.84,2.84,0,0,0-1.07.61l-.25,1.33h-1.78V156.5a7,7,0,0,1,2.1-1.11,8.49,8.49,0,0,1,2.67-.41,5.32,5.32,0,0,1,3.49,1.1,3.84,3.84,0,0,1,1.34,3.15v6.59l0,.47.94.13v1.47Zm-3.72-1.69a4.07,4.07,0,0,0,2.1-.55,3.33,3.33,0,0,0,1.36-1.32v-2.09h-2.46a3.48,3.48,0,0,0-2.24.66,2,2,0,0,0-.83,1.59,1.61,1.61,0,0,0,.51,1.28A2.4,2.4,0,0,0,561.38,166.2Z" transform="translate(-22.25 -6.72)"/><path class="cls-3" d="M569.59,166.42l1.91-.33V157l-1.91-.33v-1.49h4l.15,1.65a4.2,4.2,0,0,1,1.57-1.39,4.82,4.82,0,0,1,2.23-.49,3.91,3.91,0,0,1,2.17.58,3.57,3.57,0,0,1,1.37,1.76,4.65,4.65,0,0,1,1.58-1.71,4.18,4.18,0,0,1,2.3-.63,3.81,3.81,0,0,1,3.07,1.33,6.08,6.08,0,0,1,1.12,4v5.78l1.91.33v1.47H584.9v-1.47l1.91-.33v-5.8a4.24,4.24,0,0,0-.64-2.66,2.34,2.34,0,0,0-1.91-.78,2.45,2.45,0,0,0-1.94.85,3.71,3.71,0,0,0-.85,2.14v6.25l1.91.33v1.47h-6.13v-1.47l1.91-.33v-5.8a4.17,4.17,0,0,0-.66-2.61,2.32,2.32,0,0,0-1.92-.83,3.15,3.15,0,0,0-1.73.44,2.71,2.71,0,0,0-1,1.22v7.58l1.91.33v1.47h-6.13Z" transform="translate(-22.25 -6.72)"/><path class="cls-3" d="M598.39,168.14a5.34,5.34,0,0,1-4.21-1.77,6.64,6.64,0,0,1-1.57-4.57v-.52a6.48,6.48,0,0,1,1.62-4.5A5,5,0,0,1,598,155a4.78,4.78,0,0,1,3.87,1.55,6.12,6.12,0,0,1,1.32,4.12v1.44H595l0,.06a5,5,0,0,0,.92,3,3,3,0,0,0,2.5,1.17,5.9,5.9,0,0,0,2.06-.33,4.7,4.7,0,0,0,1.53-.92l.9,1.5a5.42,5.42,0,0,1-1.8,1.11A7.21,7.21,0,0,1,598.39,168.14ZM598,156.79a2.52,2.52,0,0,0-2,1,4.68,4.68,0,0,0-1,2.46l0,.06h5.85V160a3.56,3.56,0,0,0-.72-2.27A2.61,2.61,0,0,0,598,156.79Z" transform="translate(-22.25 -6.72)"/><path class="cls-3" d="M605.16,166.42l1.91-.33V157l-1.91-.33v-1.49h4l.16,1.89a4.68,4.68,0,0,1,1.59-1.57,4.24,4.24,0,0,1,2.17-.55,4.15,4.15,0,0,1,3.18,1.2,5.28,5.28,0,0,1,1.12,3.71v6.2l1.91.33v1.47h-6.13v-1.47l1.92-.33v-6.15a3.44,3.44,0,0,0-.67-2.38,2.64,2.64,0,0,0-2-.71,3.25,3.25,0,0,0-1.76.48,3.56,3.56,0,0,0-1.23,1.32v7.44l1.91.33v1.47h-6.13Z" transform="translate(-22.25 -6.72)"/><path class="cls-3" d="M625,152.15v3.06h2.4v1.71H625v7.7a1.73,1.73,0,0,0,.37,1.26,1.35,1.35,0,0,0,1,.36,5.89,5.89,0,0,0,.68-.05l.64-.11.32,1.58a3,3,0,0,1-1,.34,6.1,6.1,0,0,1-1.27.14,3,3,0,0,1-2.24-.85,3.73,3.73,0,0,1-.83-2.67v-7.7h-2v-1.71h2v-3.06Z" transform="translate(-22.25 -6.72)"/><path class="cls-3" d="M629.52,161.44A7,7,0,0,1,631,156.8a5.64,5.64,0,0,1,8.29,0,7,7,0,0,1,1.53,4.65v.25a7,7,0,0,1-1.52,4.64,5.66,5.66,0,0,1-8.3,0,6.93,6.93,0,0,1-1.52-4.64Zm2.3.25a6,6,0,0,0,.85,3.33,3.07,3.07,0,0,0,5,0,6,6,0,0,0,.85-3.33v-.25a6,6,0,0,0-.85-3.32,3,3,0,0,0-5,0,6.08,6.08,0,0,0-.85,3.32Z" transform="translate(-22.25 -6.72)"/><path class="cls-3" d="M657.48,166.38a4,4,0,0,1-1.52,1.31,4.58,4.58,0,0,1-2.08.45,4.34,4.34,0,0,1-3.63-1.68A7,7,0,0,1,649,162v-.24a8.49,8.49,0,0,1,1.3-4.94A4.2,4.2,0,0,1,653.9,155a4.65,4.65,0,0,1,2,.41,4.15,4.15,0,0,1,1.47,1.21v-5.17l-1.91-.33v-1.49h4.22v16.48l1.91.33v1.47h-3.92ZM651.25,162a5.39,5.39,0,0,0,.79,3.07,2.71,2.71,0,0,0,2.43,1.16,3,3,0,0,0,1.73-.47,3.49,3.49,0,0,0,1.16-1.32v-5.88a3.56,3.56,0,0,0-1.16-1.27,3.09,3.09,0,0,0-1.71-.47,2.62,2.62,0,0,0-2.44,1.37,7.09,7.09,0,0,0-.8,3.57Z" transform="translate(-22.25 -6.72)"/><path class="cls-3" d="M669.13,168.14a5.36,5.36,0,0,1-4.22-1.77,6.63,6.63,0,0,1-1.56-4.57v-.52a6.52,6.52,0,0,1,1.61-4.5,5,5,0,0,1,3.81-1.8,4.79,4.79,0,0,1,3.88,1.55,6.12,6.12,0,0,1,1.32,4.12v1.44h-8.23l0,.06a5.11,5.11,0,0,0,.93,3,3,3,0,0,0,2.5,1.17,5.84,5.84,0,0,0,2-.33,4.7,4.7,0,0,0,1.53-.92l.9,1.5a5.42,5.42,0,0,1-1.8,1.11A7.16,7.16,0,0,1,669.13,168.14Zm-.36-11.35a2.52,2.52,0,0,0-2,1,4.67,4.67,0,0,0-1,2.46l0,.06h5.85V160a3.57,3.57,0,0,0-.73-2.27A2.58,2.58,0,0,0,668.77,156.79Z" transform="translate(-22.25 -6.72)"/><path class="cls-3" d="M691.27,166a4.22,4.22,0,0,1-1.54,1.57,4.29,4.29,0,0,1-2.17.55,4,4,0,0,1-3.22-1.33,6.09,6.09,0,0,1-1.16-4.12V157l-1.46-.33v-1.49h3.76v7.5a4.72,4.72,0,0,0,.6,2.79,2.22,2.22,0,0,0,1.87.76,3.82,3.82,0,0,0,2-.49,3.18,3.18,0,0,0,1.21-1.42V157l-1.7-.33v-1.49h4v10.88l1.45.33v1.47h-3.52Z" transform="translate(-22.25 -6.72)"/><path class="cls-3" d="M696.32,166.42l1.91-.33V157l-1.91-.33v-1.49h4l.15,1.65a4.2,4.2,0,0,1,1.57-1.39,4.79,4.79,0,0,1,2.23-.49,3.91,3.91,0,0,1,2.17.58,3.57,3.57,0,0,1,1.37,1.76,4.65,4.65,0,0,1,1.58-1.71,4.18,4.18,0,0,1,2.3-.63,3.81,3.81,0,0,1,3.07,1.33,6.08,6.08,0,0,1,1.12,4v5.78l1.91.33v1.47h-6.14v-1.47l1.91-.33v-5.8a4.24,4.24,0,0,0-.64-2.66,2.34,2.34,0,0,0-1.91-.78,2.45,2.45,0,0,0-1.94.85,3.71,3.71,0,0,0-.85,2.14v6.25l1.91.33v1.47H704v-1.47l1.91-.33v-5.8a4.17,4.17,0,0,0-.66-2.61,2.32,2.32,0,0,0-1.92-.83,3.15,3.15,0,0,0-1.73.44,2.79,2.79,0,0,0-1.05,1.22v7.58l1.91.33v1.47h-6.13Z" transform="translate(-22.25 -6.72)"/><path class="cls-3" d="M727.73,167.89c-.07-.34-.12-.65-.16-.92s-.07-.55-.09-.82a5.51,5.51,0,0,1-1.67,1.42,4.77,4.77,0,0,1-5.15-.4,3.56,3.56,0,0,1-1-2.72,3.17,3.17,0,0,1,1.46-2.79,7.13,7.13,0,0,1,4-1h2.38v-1.48a2.27,2.27,0,0,0-.7-1.76,2.75,2.75,0,0,0-2-.66,4.78,4.78,0,0,0-1.53.23,2.84,2.84,0,0,0-1.07.61L722,159h-1.79V156.5a7,7,0,0,1,2.1-1.11A8.49,8.49,0,0,1,725,155a5.35,5.35,0,0,1,3.5,1.1,3.84,3.84,0,0,1,1.33,3.15v6.11c0,.16,0,.32,0,.48a3.83,3.83,0,0,0,0,.47l.93.13v1.47ZM724,166.2a4.06,4.06,0,0,0,2.09-.55,3.27,3.27,0,0,0,1.36-1.32v-2.09H725a3.49,3.49,0,0,0-2.24.66,2,2,0,0,0-.83,1.59,1.58,1.58,0,0,0,.52,1.28A2.36,2.36,0,0,0,724,166.2Z" transform="translate(-22.25 -6.72)"/><path class="cls-3" d="M746.91,167.89c-.07-.34-.12-.65-.16-.92a7.84,7.84,0,0,1-.08-.82,5.63,5.63,0,0,1-1.67,1.42,4.77,4.77,0,0,1-5.15-.4,3.53,3.53,0,0,1-1-2.72,3.15,3.15,0,0,1,1.46-2.79,7.11,7.11,0,0,1,4-1h2.38v-1.48a2.28,2.28,0,0,0-.71-1.76,2.74,2.74,0,0,0-2-.66,4.73,4.73,0,0,0-1.53.23,3,3,0,0,0-1.08.61l-.24,1.33h-1.78V156.5a6.85,6.85,0,0,1,2.1-1.11,8.49,8.49,0,0,1,2.67-.41,5.34,5.34,0,0,1,3.49,1.1,3.84,3.84,0,0,1,1.34,3.15v6.59c0,.15,0,.31,0,.47l.94.13v1.47Zm-3.71-1.69a4.09,4.09,0,0,0,2.1-.55,3.4,3.4,0,0,0,1.36-1.32v-2.09H744.2a3.5,3.5,0,0,0-2.25.66,2,2,0,0,0-.82,1.59,1.61,1.61,0,0,0,.51,1.28A2.36,2.36,0,0,0,743.2,166.2Z" transform="translate(-22.25 -6.72)"/><path class="cls-3" d="M760.93,166a4.11,4.11,0,0,1-3.71,2.12,4.06,4.06,0,0,1-3.23-1.33,6.14,6.14,0,0,1-1.16-4.12V157l-1.45-.33v-1.49h3.76v7.5a4.72,4.72,0,0,0,.6,2.79,2.22,2.22,0,0,0,1.86.76,3.85,3.85,0,0,0,2-.49,3.24,3.24,0,0,0,1.21-1.42V157l-1.7-.33v-1.49h4v10.88l1.45.33v1.47h-3.53Z" transform="translate(-22.25 -6.72)"/><path class="cls-3" d="M766.12,151.1v-1.49h4.22v16.48l1.91.33v1.47h-6.13v-1.47l1.91-.33V151.43Z" transform="translate(-22.25 -6.72)"/><path class="cls-3" d="M782.27,167.89c-.07-.34-.13-.65-.16-.92s-.07-.55-.09-.82a5.51,5.51,0,0,1-1.67,1.42,4.77,4.77,0,0,1-5.15-.4,3.56,3.56,0,0,1-1-2.72,3.17,3.17,0,0,1,1.46-2.79,7.13,7.13,0,0,1,4-1H782v-1.48a2.27,2.27,0,0,0-.7-1.76,2.75,2.75,0,0,0-2-.66,4.73,4.73,0,0,0-1.53.23,2.84,2.84,0,0,0-1.07.61L776.5,159h-1.78V156.5a7,7,0,0,1,2.1-1.11,8.49,8.49,0,0,1,2.67-.41,5.32,5.32,0,0,1,3.49,1.1,3.81,3.81,0,0,1,1.34,3.15v6.11c0,.16,0,.32,0,.48a3.83,3.83,0,0,0,0,.47l.93.13v1.47Zm-3.71-1.69a4.06,4.06,0,0,0,2.09-.55,3.27,3.27,0,0,0,1.36-1.32v-2.09h-2.46a3.49,3.49,0,0,0-2.24.66,2,2,0,0,0-.83,1.59,1.58,1.58,0,0,0,.52,1.28A2.36,2.36,0,0,0,778.56,166.2Z" transform="translate(-22.25 -6.72)"/><path class="cls-3" d="M789.86,167.05a5.83,5.83,0,0,1-.57,2.4,6,6,0,0,1-1.55,2.09l-1.3-.87a6.79,6.79,0,0,0,.83-1.72,6,6,0,0,0,.29-1.87V165.3h2.3Z" transform="translate(-22.25 -6.72)"/><path class="cls-3" d="M803.89,161.79a8.49,8.49,0,0,1,1.31-4.94,4.2,4.2,0,0,1,3.65-1.87,4.64,4.64,0,0,1,2,.41,4.13,4.13,0,0,1,1.48,1.22l.18-1.4h2V171l1.91.33v1.49h-6.12v-1.49l1.91-.33V166.7a4.15,4.15,0,0,1-1.45,1.08,4.78,4.78,0,0,1-1.91.36,4.33,4.33,0,0,1-3.62-1.68,7,7,0,0,1-1.31-4.43Zm2.31.24a5.58,5.58,0,0,0,.78,3.11,2.71,2.71,0,0,0,2.43,1.19,3.05,3.05,0,0,0,1.64-.42,3.6,3.6,0,0,0,1.13-1.19v-6.37a3.72,3.72,0,0,0-1.14-1.13,3,3,0,0,0-1.61-.43A2.61,2.61,0,0,0,807,158.2a7.2,7.2,0,0,0-.79,3.59Z" transform="translate(-22.25 -6.72)"/><path class="cls-3" d="M826.48,166a4.22,4.22,0,0,1-1.54,1.57,4.29,4.29,0,0,1-2.17.55,4,4,0,0,1-3.22-1.33,6.09,6.09,0,0,1-1.16-4.12V157l-1.46-.33v-1.49h3.77v7.5a4.73,4.73,0,0,0,.59,2.79,2.22,2.22,0,0,0,1.87.76,3.82,3.82,0,0,0,2-.49,3.12,3.12,0,0,0,1.21-1.42V157l-1.7-.33v-1.49h4v10.88l1.45.33v1.47h-3.52Z" transform="translate(-22.25 -6.72)"/><path class="cls-3" d="M840.27,167.89c-.07-.34-.13-.65-.17-.92s-.06-.55-.08-.82a5.63,5.63,0,0,1-1.67,1.42,4.77,4.77,0,0,1-5.15-.4,3.53,3.53,0,0,1-1-2.72,3.15,3.15,0,0,1,1.46-2.79,7.11,7.11,0,0,1,4-1H840v-1.48a2.3,2.3,0,0,0-.7-1.76,2.77,2.77,0,0,0-2-.66,4.73,4.73,0,0,0-1.53.23,2.84,2.84,0,0,0-1.07.61L834.5,159h-1.78V156.5a7,7,0,0,1,2.1-1.11,8.49,8.49,0,0,1,2.67-.41,5.32,5.32,0,0,1,3.49,1.1,3.84,3.84,0,0,1,1.34,3.15v6.59l0,.47.94.13v1.47Zm-3.72-1.69a4.07,4.07,0,0,0,2.1-.55,3.4,3.4,0,0,0,1.36-1.32v-2.09h-2.46a3.5,3.5,0,0,0-2.25.66,2,2,0,0,0-.82,1.59,1.61,1.61,0,0,0,.51,1.28A2.4,2.4,0,0,0,836.55,166.2Z" transform="translate(-22.25 -6.72)"/><path class="cls-3" d="M844.89,151.1v-1.49h4.22v16.48l1.91.33v1.47h-6.13v-1.47l1.92-.33V151.43Z" transform="translate(-22.25 -6.72)"/><path class="cls-3" d="M287.53,195.18a4,4,0,0,1-1.52,1.31,4.58,4.58,0,0,1-2.08.45,4.34,4.34,0,0,1-3.63-1.68,7,7,0,0,1-1.3-4.43v-.24a8.49,8.49,0,0,1,1.3-4.94,4.2,4.2,0,0,1,3.65-1.87,4.48,4.48,0,0,1,2,.42,4,4,0,0,1,1.47,1.2v-5.17l-1.91-.33v-1.49h4.22v16.48l1.91.33v1.47h-3.91Zm-6.22-4.35a5.39,5.39,0,0,0,.78,3.07,2.71,2.71,0,0,0,2.43,1.16,3.08,3.08,0,0,0,1.73-.46,3.6,3.6,0,0,0,1.16-1.33v-5.88a3.64,3.64,0,0,0-1.16-1.27,3.09,3.09,0,0,0-1.71-.47A2.61,2.61,0,0,0,282.1,187a7,7,0,0,0-.79,3.56Z" transform="translate(-22.25 -6.72)"/><path class="cls-3" d="M301.66,196.69c-.07-.34-.12-.65-.16-.92s-.07-.55-.09-.82a5.51,5.51,0,0,1-1.67,1.42,4.77,4.77,0,0,1-5.15-.4,3.56,3.56,0,0,1-1-2.72,3.17,3.17,0,0,1,1.46-2.79,7.13,7.13,0,0,1,4-1h2.38V188a2.27,2.27,0,0,0-.7-1.76,2.75,2.75,0,0,0-2-.65,4.75,4.75,0,0,0-1.53.22,2.84,2.84,0,0,0-1.07.61l-.25,1.33h-1.78V185.3a6.74,6.74,0,0,1,2.1-1.1,8.21,8.21,0,0,1,2.67-.42,5.37,5.37,0,0,1,3.5,1.1,3.85,3.85,0,0,1,1.33,3.15v6.11c0,.16,0,.32,0,.48a3.71,3.71,0,0,0,0,.47l.93.13v1.47ZM298,195a4.06,4.06,0,0,0,2.09-.56,3.27,3.27,0,0,0,1.36-1.32V191h-2.46a3.49,3.49,0,0,0-2.24.66,2,2,0,0,0-.83,1.59,1.58,1.58,0,0,0,.52,1.28A2.36,2.36,0,0,0,298,195Z" transform="translate(-22.25 -6.72)"/><path class="cls-3" d="M316.31,188h-1.74l-.37-1.53a3.24,3.24,0,0,0-1.06-.63,4.12,4.12,0,0,0-1.45-.24,2.72,2.72,0,0,0-1.83.53,1.73,1.73,0,0,0-.59,1.31,1.44,1.44,0,0,0,.52,1.18,5.37,5.37,0,0,0,2.15.77,9.31,9.31,0,0,1,3.57,1.4,2.83,2.83,0,0,1,1.17,2.38,3.28,3.28,0,0,1-1.36,2.73,5.75,5.75,0,0,1-3.57,1,9.41,9.41,0,0,1-2.59-.33,7.06,7.06,0,0,1-2.05-1v-2.9h1.73l.44,1.7a2.28,2.28,0,0,0,1.08.53,6,6,0,0,0,1.4.16,3.3,3.3,0,0,0,1.93-.49,1.6,1.6,0,0,0,.12-2.56,5.41,5.41,0,0,0-2.2-.86,9.25,9.25,0,0,1-3.48-1.37,2.77,2.77,0,0,1-1.17-2.34,3.33,3.33,0,0,1,1.31-2.64,5.2,5.2,0,0,1,3.43-1.09,8.31,8.31,0,0,1,2.59.37,5.32,5.32,0,0,1,1.91,1Z" transform="translate(-22.25 -6.72)"/><path class="cls-3" d="M333.08,196.69c-.07-.34-.13-.65-.17-.92s-.06-.55-.08-.82a5.51,5.51,0,0,1-1.67,1.42A4.77,4.77,0,0,1,326,196a3.53,3.53,0,0,1-1-2.72,3.17,3.17,0,0,1,1.46-2.79,7.13,7.13,0,0,1,4-1h2.38V188a2.27,2.27,0,0,0-.7-1.76,2.75,2.75,0,0,0-2-.65,4.75,4.75,0,0,0-1.53.22,2.84,2.84,0,0,0-1.07.61l-.25,1.33h-1.78V185.3a6.74,6.74,0,0,1,2.1-1.1,8.21,8.21,0,0,1,2.67-.42,5.32,5.32,0,0,1,3.49,1.1,3.86,3.86,0,0,1,1.34,3.15v6.11c0,.16,0,.32,0,.48s0,.31,0,.47l.94.13v1.47ZM329.36,195a4.07,4.07,0,0,0,2.1-.56,3.33,3.33,0,0,0,1.36-1.32V191h-2.46a3.48,3.48,0,0,0-2.24.66,2,2,0,0,0-.83,1.59,1.58,1.58,0,0,0,.52,1.28A2.35,2.35,0,0,0,329.36,195Z" transform="translate(-22.25 -6.72)"/><path class="cls-3" d="M337.71,179.9v-1.49h4.22v16.48l1.91.33v1.47h-6.13v-1.47l1.91-.33V180.23Z" transform="translate(-22.25 -6.72)"/><path class="cls-3" d="M349.61,181V184H352v1.71h-2.41v7.7a1.75,1.75,0,0,0,.37,1.26,1.36,1.36,0,0,0,1,.36,6.21,6.21,0,0,0,.69,0l.64-.11.31,1.58a3,3,0,0,1-1,.34,6,6,0,0,1-1.26.14,3,3,0,0,1-2.24-.85,3.68,3.68,0,0,1-.83-2.67v-7.7h-2V184h2V181Z" transform="translate(-22.25 -6.72)"/><path class="cls-3" d="M360.16,196.94a5.35,5.35,0,0,1-4.21-1.76,6.63,6.63,0,0,1-1.57-4.58v-.52a6.52,6.52,0,0,1,1.61-4.5,5,5,0,0,1,3.82-1.8,4.78,4.78,0,0,1,3.87,1.55,6.12,6.12,0,0,1,1.32,4.12v1.44h-8.23l0,.06a5,5,0,0,0,.92,3,3,3,0,0,0,2.5,1.17,5.9,5.9,0,0,0,2.06-.33,4.7,4.7,0,0,0,1.53-.92l.9,1.5a5.42,5.42,0,0,1-1.8,1.11A7.21,7.21,0,0,1,360.16,196.94Zm-.35-11.34a2.51,2.51,0,0,0-2,1,4.68,4.68,0,0,0-1,2.46l0,.06h5.85v-.31a3.56,3.56,0,0,0-.72-2.27A2.6,2.6,0,0,0,359.81,185.6Z" transform="translate(-22.25 -6.72)"/><path class="cls-3" d="M367.27,185.5V184h4l.22,1.84a4.41,4.41,0,0,1,1.33-1.52,3.07,3.07,0,0,1,1.81-.55,3.6,3.6,0,0,1,.56,0l.44.09-.31,2.14L374,186a2.64,2.64,0,0,0-1.54.43,2.88,2.88,0,0,0-1,1.2v7.28l1.91.33v1.47h-6.13v-1.47l1.91-.33v-9.06Z" transform="translate(-22.25 -6.72)"/><path class="cls-3" d="M376.86,195.22l1.91-.33v-9.06l-1.91-.33V184h4l.17,1.89a4.62,4.62,0,0,1,1.58-1.56,4.19,4.19,0,0,1,2.18-.56,4.12,4.12,0,0,1,3.17,1.2,5.28,5.28,0,0,1,1.13,3.71v6.2l1.91.33v1.47h-6.13v-1.47l1.91-.33v-6.15a3.44,3.44,0,0,0-.66-2.38,2.65,2.65,0,0,0-2-.71,3.26,3.26,0,0,0-1.77.48,3.45,3.45,0,0,0-1.22,1.32v7.44l1.91.33v1.47h-6.13Z" transform="translate(-22.25 -6.72)"/><path class="cls-3" d="M400.92,196.69c-.07-.34-.13-.65-.17-.92s-.06-.55-.08-.82a5.51,5.51,0,0,1-1.67,1.42,4.77,4.77,0,0,1-5.15-.4,3.53,3.53,0,0,1-1-2.72,3.17,3.17,0,0,1,1.46-2.79,7.13,7.13,0,0,1,4-1h2.38V188a2.27,2.27,0,0,0-.7-1.76,2.75,2.75,0,0,0-2-.65,4.75,4.75,0,0,0-1.53.22,2.84,2.84,0,0,0-1.07.61l-.25,1.33h-1.78V185.3a6.74,6.74,0,0,1,2.1-1.1,8.21,8.21,0,0,1,2.67-.42,5.32,5.32,0,0,1,3.49,1.1A3.86,3.86,0,0,1,403,188v6.11c0,.16,0,.32,0,.48s0,.31,0,.47l.94.13v1.47ZM397.2,195a4.07,4.07,0,0,0,2.1-.56,3.33,3.33,0,0,0,1.36-1.32V191H398.2a3.48,3.48,0,0,0-2.24.66,2,2,0,0,0-.83,1.59,1.61,1.61,0,0,0,.51,1.28A2.4,2.4,0,0,0,397.2,195Z" transform="translate(-22.25 -6.72)"/><path class="cls-3" d="M409.89,181V184h2.41v1.71h-2.41v7.7a1.75,1.75,0,0,0,.37,1.26,1.36,1.36,0,0,0,1,.36,6,6,0,0,0,.69,0l.64-.11.31,1.58a3,3,0,0,1-1,.34,6,6,0,0,1-1.26.14,3,3,0,0,1-2.24-.85,3.68,3.68,0,0,1-.83-2.67v-7.7h-2V184h2V181Z" transform="translate(-22.25 -6.72)"/><path class="cls-3" d="M414.65,195.22l1.91-.33v-9.06l-1.91-.33V184h4.22v10.88l1.91.33v1.47h-6.13Zm4.22-14.45h-2.31v-2.36h2.31Z" transform="translate(-22.25 -6.72)"/><path class="cls-3" d="M426.89,185.5l-1.53.24L428,193l.21.92h.07l.22-.92,2.53-7.21-1.53-.24V184h4.9v1.49l-1.05.18-4.25,11h-1.75l-4.3-11-1-.18V184h4.9Z" transform="translate(-22.25 -6.72)"/><path class="cls-3" d="M444,196.69c-.07-.34-.12-.65-.16-.92a7.84,7.84,0,0,1-.08-.82,5.76,5.76,0,0,1-1.67,1.42,4.29,4.29,0,0,1-2.14.57,4.21,4.21,0,0,1-3-1,3.53,3.53,0,0,1-1-2.72,3.17,3.17,0,0,1,1.46-2.79,7.15,7.15,0,0,1,4-1h2.38V188a2.27,2.27,0,0,0-.7-1.76,2.75,2.75,0,0,0-2-.65,4.83,4.83,0,0,0-1.53.22,2.92,2.92,0,0,0-1.07.61l-.24,1.33h-1.79V185.3a6.74,6.74,0,0,1,2.1-1.1,8.21,8.21,0,0,1,2.67-.42,5.35,5.35,0,0,1,3.5,1.1,3.85,3.85,0,0,1,1.33,3.15v6.11c0,.16,0,.32,0,.48a3.71,3.71,0,0,0,0,.47l.94.13v1.47ZM440.32,195a4.06,4.06,0,0,0,2.09-.56,3.27,3.27,0,0,0,1.36-1.32V191h-2.46a3.49,3.49,0,0,0-2.24.66,2,2,0,0,0-.83,1.59,1.58,1.58,0,0,0,.52,1.28A2.36,2.36,0,0,0,440.32,195Z" transform="translate(-22.25 -6.72)"/><path class="cls-3" d="M458.68,188H457l-.38-1.53a3.14,3.14,0,0,0-1.06-.63,4.12,4.12,0,0,0-1.45-.24,2.72,2.72,0,0,0-1.83.53,1.73,1.73,0,0,0-.59,1.31,1.44,1.44,0,0,0,.52,1.18,5.44,5.44,0,0,0,2.15.77,9.31,9.31,0,0,1,3.57,1.4,2.84,2.84,0,0,1,1.18,2.38,3.29,3.29,0,0,1-1.37,2.73,5.75,5.75,0,0,1-3.57,1,9.41,9.41,0,0,1-2.59-.33,7.18,7.18,0,0,1-2-1v-2.9h1.73l.44,1.7a2.28,2.28,0,0,0,1.08.53,6,6,0,0,0,1.4.16,3.3,3.3,0,0,0,1.93-.49,1.6,1.6,0,0,0,.12-2.56,5.41,5.41,0,0,0-2.2-.86,9.25,9.25,0,0,1-3.48-1.37,2.77,2.77,0,0,1-1.17-2.34,3.31,3.31,0,0,1,1.32-2.64,5.16,5.16,0,0,1,3.42-1.09,8.31,8.31,0,0,1,2.59.37,5.23,5.23,0,0,1,1.91,1Z" transform="translate(-22.25 -6.72)"/><path class="cls-3" d="M471.52,185.5l-1.52.24,2.61,7.21.21.92h.07l.23-.92,2.53-7.21-1.54-.24V184H479v1.49l-1,.18-4.25,11H472l-4.3-11-1-.18V184h4.89Z" transform="translate(-22.25 -6.72)"/><path class="cls-3" d="M480.41,190.24a7,7,0,0,1,1.52-4.64,5.63,5.63,0,0,1,8.29,0,6.94,6.94,0,0,1,1.53,4.64v.25a7,7,0,0,1-1.52,4.64,5.66,5.66,0,0,1-8.3,0,6.93,6.93,0,0,1-1.52-4.64Zm2.31.25a6,6,0,0,0,.84,3.33,3.07,3.07,0,0,0,5,0,6,6,0,0,0,.85-3.33v-.25a6,6,0,0,0-.85-3.32,3.06,3.06,0,0,0-5,0,6.08,6.08,0,0,0-.84,3.32Z" transform="translate(-22.25 -6.72)"/><path class="cls-3" d="M499.56,195.13a3.14,3.14,0,0,0,2-.7,2.19,2.19,0,0,0,.87-1.74h2.07l0,.07a3.56,3.56,0,0,1-1.46,2.91,5.32,5.32,0,0,1-3.53,1.27,5.1,5.1,0,0,1-4.23-1.81,7,7,0,0,1-1.46-4.53v-.49a6.94,6.94,0,0,1,1.47-4.52,5.09,5.09,0,0,1,4.22-1.81,7.18,7.18,0,0,1,2.73.5,5.52,5.52,0,0,1,2,1.39l.11,2.81h-1.84l-.51-2a3,3,0,0,0-1.05-.65,4.16,4.16,0,0,0-1.45-.24,2.78,2.78,0,0,0-2.6,1.3,6.16,6.16,0,0,0-.78,3.21v.49a6.27,6.27,0,0,0,.77,3.24A2.81,2.81,0,0,0,499.56,195.13Z" transform="translate(-22.25 -6.72)"/><path class="cls-3" d="M512.59,196.94a5.38,5.38,0,0,1-4.22-1.76,6.68,6.68,0,0,1-1.56-4.58v-.52a6.52,6.52,0,0,1,1.61-4.5,5,5,0,0,1,3.81-1.8,4.79,4.79,0,0,1,3.88,1.55,6.12,6.12,0,0,1,1.32,4.12v1.44H509.2l0,.06a5.11,5.11,0,0,0,.93,3,3,3,0,0,0,2.5,1.17,5.84,5.84,0,0,0,2-.33,4.7,4.7,0,0,0,1.53-.92l.9,1.5a5.47,5.47,0,0,1-1.79,1.11A7.25,7.25,0,0,1,512.59,196.94Zm3.28-15.34v.29H514l-1.72-1.73-1.7,1.73h-1.88v-.3l2.89-2.78H513Zm-3.64,4a2.51,2.51,0,0,0-2,1,4.67,4.67,0,0,0-1,2.46l0,.06h5.85v-.31a3.51,3.51,0,0,0-.73-2.27A2.58,2.58,0,0,0,512.23,185.6Z" transform="translate(-22.25 -6.72)"/><path class="cls-3" d="M531.45,196.94a5.36,5.36,0,0,1-4.21-1.76,6.68,6.68,0,0,1-1.56-4.58v-.52a6.47,6.47,0,0,1,1.61-4.5,5,5,0,0,1,3.81-1.8,4.79,4.79,0,0,1,3.88,1.55,6.17,6.17,0,0,1,1.31,4.12v1.44h-8.22l0,.06a5,5,0,0,0,.93,3,2.94,2.94,0,0,0,2.49,1.17,5.9,5.9,0,0,0,2.06-.33,4.7,4.7,0,0,0,1.53-.92l.9,1.5a5.42,5.42,0,0,1-1.8,1.11A7.18,7.18,0,0,1,531.45,196.94Zm-.35-11.34a2.51,2.51,0,0,0-2,1,4.68,4.68,0,0,0-1,2.46l0,.06H534v-.31a3.56,3.56,0,0,0-.72-2.27A2.59,2.59,0,0,0,531.1,185.6Z" transform="translate(-22.25 -6.72)"/><path class="cls-3" d="M538.23,195.22l1.91-.33v-9.06l-1.91-.33V184h4l.16,1.89a4.64,4.64,0,0,1,1.59-1.56,4.68,4.68,0,0,1,5.35.64,5.28,5.28,0,0,1,1.13,3.71v6.2l1.91.33v1.47h-6.13v-1.47l1.91-.33v-6.15a3.44,3.44,0,0,0-.66-2.38,2.68,2.68,0,0,0-2-.71,3.25,3.25,0,0,0-1.76.48,3.45,3.45,0,0,0-1.22,1.32v7.44l1.91.33v1.47h-6.13Z" transform="translate(-22.25 -6.72)"/><path class="cls-3" d="M558,181V184h2.41v1.71H558v7.7a1.75,1.75,0,0,0,.37,1.26,1.35,1.35,0,0,0,1,.36,6.21,6.21,0,0,0,.69,0l.64-.11.31,1.58a3,3,0,0,1-1,.34,6,6,0,0,1-1.26.14,3,3,0,0,1-2.24-.85,3.69,3.69,0,0,1-.84-2.67v-7.7h-2V184h2V181Z" transform="translate(-22.25 -6.72)"/><path class="cls-3" d="M568.59,196.94a5.35,5.35,0,0,1-4.21-1.76,6.63,6.63,0,0,1-1.57-4.58v-.52a6.52,6.52,0,0,1,1.61-4.5,5,5,0,0,1,3.82-1.8,4.78,4.78,0,0,1,3.87,1.55,6.12,6.12,0,0,1,1.32,4.12v1.44H565.2l0,.06a5,5,0,0,0,.92,3,3,3,0,0,0,2.5,1.17,5.9,5.9,0,0,0,2.06-.33,4.7,4.7,0,0,0,1.53-.92l.9,1.5a5.42,5.42,0,0,1-1.8,1.11A7.21,7.21,0,0,1,568.59,196.94Zm-.35-11.34a2.51,2.51,0,0,0-2,1,4.68,4.68,0,0,0-1,2.46l0,.06h5.85v-.31a3.51,3.51,0,0,0-.73-2.27A2.57,2.57,0,0,0,568.24,185.6Z" transform="translate(-22.25 -6.72)"/><path class="cls-3" d="M575.36,195.22l1.91-.33v-9.06l-1.91-.33V184h4l.16,1.89a4.56,4.56,0,0,1,1.59-1.56,4.68,4.68,0,0,1,5.35.64,5.28,5.28,0,0,1,1.12,3.71v6.2l1.91.33v1.47h-6.13v-1.47l1.91-.33v-6.15a3.44,3.44,0,0,0-.66-2.38,2.64,2.64,0,0,0-2-.71,3.25,3.25,0,0,0-1.76.48,3.56,3.56,0,0,0-1.23,1.32v7.44l1.91.33v1.47h-6.13Z" transform="translate(-22.25 -6.72)"/><path class="cls-3" d="M599.57,195.18a4,4,0,0,1-1.51,1.31,4.58,4.58,0,0,1-2.08.45,4.34,4.34,0,0,1-3.63-1.68,7,7,0,0,1-1.31-4.43v-.24a8.49,8.49,0,0,1,1.31-4.94,4.2,4.2,0,0,1,3.65-1.87,4.51,4.51,0,0,1,2,.42,4,4,0,0,1,1.47,1.2v-5.17l-1.91-.33v-1.49h4.22v16.48l1.91.33v1.47h-3.92Zm-6.22-4.35a5.31,5.31,0,0,0,.79,3.07,2.7,2.7,0,0,0,2.42,1.16,3.09,3.09,0,0,0,1.74-.46,3.69,3.69,0,0,0,1.16-1.33v-5.88a3.74,3.74,0,0,0-1.16-1.27,3.09,3.09,0,0,0-1.71-.47,2.63,2.63,0,0,0-2.45,1.38,7.14,7.14,0,0,0-.79,3.56Z" transform="translate(-22.25 -6.72)"/><path class="cls-3" d="M611.22,196.94a5.36,5.36,0,0,1-4.21-1.76,6.68,6.68,0,0,1-1.56-4.58v-.52a6.47,6.47,0,0,1,1.61-4.5,5,5,0,0,1,3.81-1.8,4.77,4.77,0,0,1,3.87,1.55,6.12,6.12,0,0,1,1.32,4.12v1.44h-8.22l0,.06a5,5,0,0,0,.93,3,2.94,2.94,0,0,0,2.49,1.17,5.9,5.9,0,0,0,2.06-.33,4.7,4.7,0,0,0,1.53-.92l.9,1.5a5.42,5.42,0,0,1-1.8,1.11A7.18,7.18,0,0,1,611.22,196.94Zm-.35-11.34a2.51,2.51,0,0,0-2,1,4.68,4.68,0,0,0-1,2.46l0,.06h5.84v-.31a3.56,3.56,0,0,0-.72-2.27A2.6,2.6,0,0,0,610.87,185.6Z" transform="translate(-22.25 -6.72)"/><path class="cls-3" d="M624.31,190.59a8.49,8.49,0,0,1,1.31-4.94,4.2,4.2,0,0,1,3.65-1.87,4.5,4.5,0,0,1,2,.42,4,4,0,0,1,1.48,1.21l.18-1.4h2v15.74l1.91.33v1.49h-6.13v-1.49l1.91-.33V195.5a4.15,4.15,0,0,1-1.45,1.08,4.77,4.77,0,0,1-1.9.36,4.34,4.34,0,0,1-3.63-1.68,7,7,0,0,1-1.31-4.43Zm2.31.24a5.55,5.55,0,0,0,.79,3.12,2.69,2.69,0,0,0,2.42,1.18,3.05,3.05,0,0,0,1.64-.42,3.5,3.5,0,0,0,1.13-1.19v-6.37a3.72,3.72,0,0,0-1.14-1.13,3,3,0,0,0-1.6-.42,2.61,2.61,0,0,0-2.45,1.4,7.31,7.31,0,0,0-.79,3.59Z" transform="translate(-22.25 -6.72)"/><path class="cls-3" d="M646.91,194.82a4.38,4.38,0,0,1-1.54,1.57,4.23,4.23,0,0,1-2.18.55,4,4,0,0,1-3.22-1.33,6.14,6.14,0,0,1-1.16-4.12v-5.66l-1.45-.33V184h3.76v7.5a4.72,4.72,0,0,0,.6,2.79,2.19,2.19,0,0,0,1.86.76,3.79,3.79,0,0,0,2-.49,3.12,3.12,0,0,0,1.21-1.42v-7.32l-1.69-.33V184h4v10.88l1.46.33v1.47h-3.53Z" transform="translate(-22.25 -6.72)"/><path class="cls-3" d="M658.2,196.94a5.36,5.36,0,0,1-4.21-1.76,6.68,6.68,0,0,1-1.56-4.58v-.52a6.47,6.47,0,0,1,1.61-4.5,5,5,0,0,1,3.81-1.8,4.79,4.79,0,0,1,3.88,1.55,6.17,6.17,0,0,1,1.31,4.12v1.44h-8.22l0,.06a5,5,0,0,0,.93,3,2.94,2.94,0,0,0,2.49,1.17,5.9,5.9,0,0,0,2.06-.33,4.7,4.7,0,0,0,1.53-.92l.9,1.5a5.42,5.42,0,0,1-1.8,1.11A7.18,7.18,0,0,1,658.2,196.94Zm-.35-11.34a2.51,2.51,0,0,0-2,1,4.68,4.68,0,0,0-1,2.46l0,.06h5.84v-.31a3.56,3.56,0,0,0-.72-2.27A2.59,2.59,0,0,0,657.85,185.6Z" transform="translate(-22.25 -6.72)"/><path class="cls-3" d="M671.06,185.72V184h2v-1.6a4.36,4.36,0,0,1,1.06-3.14,3.89,3.89,0,0,1,3-1.1,5.49,5.49,0,0,1,.8.06q.4.06.9.18l-.28,1.76a4.6,4.6,0,0,0-.51-.08,4.21,4.21,0,0,0-.62,0,1.82,1.82,0,0,0-1.51.61,2.68,2.68,0,0,0-.49,1.75V184H678v1.71h-2.65v9.17l1.91.33v1.47h-6.13v-1.47l1.91-.33v-9.17Z" transform="translate(-22.25 -6.72)"/><path class="cls-3" d="M688.09,196.69c-.07-.34-.13-.65-.17-.92s-.06-.55-.08-.82a5.63,5.63,0,0,1-1.67,1.42A4.77,4.77,0,0,1,681,196a3.53,3.53,0,0,1-1-2.72,3.17,3.17,0,0,1,1.46-2.79,7.11,7.11,0,0,1,4-1h2.38V188a2.3,2.3,0,0,0-.7-1.76,2.76,2.76,0,0,0-2-.65,4.75,4.75,0,0,0-1.53.22,2.84,2.84,0,0,0-1.07.61l-.25,1.33h-1.78V185.3a6.74,6.74,0,0,1,2.1-1.1,8.21,8.21,0,0,1,2.67-.42,5.32,5.32,0,0,1,3.49,1.1,3.86,3.86,0,0,1,1.34,3.15v6.59l0,.47.94.13v1.47ZM684.37,195a4.07,4.07,0,0,0,2.1-.56,3.33,3.33,0,0,0,1.36-1.32V191h-2.46a3.5,3.5,0,0,0-2.25.66,2,2,0,0,0-.82,1.59,1.61,1.61,0,0,0,.51,1.28A2.4,2.4,0,0,0,684.37,195Z" transform="translate(-22.25 -6.72)"/><path class="cls-3" d="M696,194.89h5.18l.19-2h2v3.76H693.3v-1.61l6.86-9.24h-4.64l-.18,1.95h-2V184H703v1.57Z" transform="translate(-22.25 -6.72)"/><path class="cls-3" d="M711.24,195.22l1.91-.33v-9.06l-1.91-.33V184h4l.15,1.66a4.14,4.14,0,0,1,1.57-1.4,4.79,4.79,0,0,1,2.23-.49,3.93,3.93,0,0,1,2.17.58,3.61,3.61,0,0,1,1.37,1.76,4.57,4.57,0,0,1,1.58-1.71,4.14,4.14,0,0,1,2.29-.63,3.79,3.79,0,0,1,3.07,1.33,6.08,6.08,0,0,1,1.13,4v5.78l1.91.33v1.47h-6.14v-1.47l1.91-.33v-5.8a4.23,4.23,0,0,0-.65-2.66,2.33,2.33,0,0,0-1.91-.78,2.43,2.43,0,0,0-1.93.85,3.64,3.64,0,0,0-.85,2.14v6.25l1.91.33v1.47h-6.13v-1.47l1.91-.33v-5.8a4.1,4.1,0,0,0-.67-2.61,2.31,2.31,0,0,0-1.91-.83,3.21,3.21,0,0,0-1.74.44,2.77,2.77,0,0,0-1,1.22v7.58l1.91.33v1.47h-6.13Z" transform="translate(-22.25 -6.72)"/><path class="cls-3" d="M742.65,196.69c-.07-.34-.13-.65-.17-.92s-.06-.55-.08-.82a5.51,5.51,0,0,1-1.67,1.42,4.77,4.77,0,0,1-5.15-.4,3.53,3.53,0,0,1-1-2.72,3.17,3.17,0,0,1,1.46-2.79,7.13,7.13,0,0,1,4-1h2.38V188a2.27,2.27,0,0,0-.7-1.76,2.75,2.75,0,0,0-2-.65,4.75,4.75,0,0,0-1.53.22,2.84,2.84,0,0,0-1.07.61l-.25,1.33H735.1V185.3a6.74,6.74,0,0,1,2.1-1.1,8.21,8.21,0,0,1,2.67-.42,5.32,5.32,0,0,1,3.49,1.1A3.86,3.86,0,0,1,744.7,188v6.11c0,.16,0,.32,0,.48s0,.31,0,.47l.94.13v1.47ZM738.93,195a4.07,4.07,0,0,0,2.1-.56,3.33,3.33,0,0,0,1.36-1.32V191h-2.46a3.48,3.48,0,0,0-2.24.66,2,2,0,0,0-.83,1.59,1.58,1.58,0,0,0,.52,1.28A2.35,2.35,0,0,0,738.93,195Z" transform="translate(-22.25 -6.72)"/><path class="cls-3" d="M747.59,195.22l1.91-.33v-9.06l-1.91-.33V184h4.22v10.88l1.91.33v1.47h-6.13Zm4.22-14.45H749.5v-2.36h2.31Z" transform="translate(-22.25 -6.72)"/><path class="cls-3" d="M765.18,188h-1.73l-.38-1.53a3.14,3.14,0,0,0-1.06-.63,4,4,0,0,0-1.44-.24,2.72,2.72,0,0,0-1.83.53,1.7,1.7,0,0,0-.6,1.31,1.45,1.45,0,0,0,.53,1.18,5.31,5.31,0,0,0,2.14.77,9.37,9.37,0,0,1,3.58,1.4,2.83,2.83,0,0,1,1.17,2.38,3.29,3.29,0,0,1-1.37,2.73,5.74,5.74,0,0,1-3.56,1,9.3,9.3,0,0,1-2.59-.33,7.24,7.24,0,0,1-2.06-1v-2.9h1.74l.43,1.7a2.37,2.37,0,0,0,1.09.53,5.89,5.89,0,0,0,1.4.16,3.25,3.25,0,0,0,1.92-.49,1.6,1.6,0,0,0,.12-2.56,5.41,5.41,0,0,0-2.2-.86,9.25,9.25,0,0,1-3.48-1.37,2.77,2.77,0,0,1-1.17-2.34,3.31,3.31,0,0,1,1.32-2.64,5.19,5.19,0,0,1,3.43-1.09,8.35,8.35,0,0,1,2.59.37,5.4,5.4,0,0,1,1.91,1Z" transform="translate(-22.25 -6.72)"/><path class="cls-3" d="M783.38,188h-1.73l-.38-1.53a3.14,3.14,0,0,0-1.06-.63,4,4,0,0,0-1.44-.24,2.72,2.72,0,0,0-1.83.53,1.7,1.7,0,0,0-.6,1.31,1.45,1.45,0,0,0,.53,1.18,5.31,5.31,0,0,0,2.14.77,9.37,9.37,0,0,1,3.58,1.4,2.83,2.83,0,0,1,1.17,2.38,3.29,3.29,0,0,1-1.37,2.73,5.75,5.75,0,0,1-3.57,1,9.41,9.41,0,0,1-2.59-.33,7.31,7.31,0,0,1-2.05-1v-2.9h1.74l.43,1.7a2.38,2.38,0,0,0,1.08.53,6,6,0,0,0,1.4.16,3.28,3.28,0,0,0,1.93-.49,1.6,1.6,0,0,0,.12-2.56,5.41,5.41,0,0,0-2.2-.86,9.25,9.25,0,0,1-3.48-1.37,2.77,2.77,0,0,1-1.17-2.34,3.31,3.31,0,0,1,1.32-2.64,5.19,5.19,0,0,1,3.43-1.09,8.35,8.35,0,0,1,2.59.37,5.4,5.4,0,0,1,1.91,1Z" transform="translate(-22.25 -6.72)"/><path class="cls-3" d="M791.7,196.94a5.36,5.36,0,0,1-4.21-1.76,6.68,6.68,0,0,1-1.56-4.58v-.52a6.47,6.47,0,0,1,1.61-4.5,5,5,0,0,1,3.81-1.8,4.79,4.79,0,0,1,3.88,1.55,6.17,6.17,0,0,1,1.31,4.12v1.44h-8.22l0,.06a5,5,0,0,0,.93,3,2.94,2.94,0,0,0,2.49,1.17,5.9,5.9,0,0,0,2.06-.33,4.7,4.7,0,0,0,1.53-.92l.9,1.5a5.42,5.42,0,0,1-1.8,1.11A7.18,7.18,0,0,1,791.7,196.94Zm-.35-11.34a2.51,2.51,0,0,0-2,1,4.68,4.68,0,0,0-1,2.46l0,.06h5.84v-.31a3.56,3.56,0,0,0-.72-2.27A2.59,2.59,0,0,0,791.35,185.6Z" transform="translate(-22.25 -6.72)"/><path class="cls-3" d="M798.48,195.22l1.91-.33v-9.06l-1.91-.33V184h4l.16,1.89a4.64,4.64,0,0,1,1.59-1.56,4.68,4.68,0,0,1,5.35.64,5.28,5.28,0,0,1,1.13,3.71v6.2l1.91.33v1.47h-6.13v-1.47l1.91-.33v-6.15a3.44,3.44,0,0,0-.66-2.38,2.68,2.68,0,0,0-2-.71,3.25,3.25,0,0,0-1.76.48,3.45,3.45,0,0,0-1.22,1.32v7.44l1.91.33v1.47h-6.13Z" transform="translate(-22.25 -6.72)"/><path class="cls-3" d="M818.29,181V184h2.41v1.71h-2.41v7.7a1.75,1.75,0,0,0,.37,1.26,1.35,1.35,0,0,0,1,.36,6.21,6.21,0,0,0,.69,0l.64-.11.31,1.58a3,3,0,0,1-1,.34,6,6,0,0,1-1.26.14,3,3,0,0,1-2.24-.85,3.69,3.69,0,0,1-.84-2.67v-7.7h-2V184h2V181Z" transform="translate(-22.25 -6.72)"/><path class="cls-3" d="M823.05,195.22l1.91-.33v-9.06l-1.91-.33V184h4.22v10.88l1.91.33v1.47h-6.13Zm4.22-14.45H825v-2.36h2.31Z" transform="translate(-22.25 -6.72)"/><path class="cls-3" d="M839.48,195.18a4,4,0,0,1-1.52,1.31,4.55,4.55,0,0,1-2.08.45,4.33,4.33,0,0,1-3.62-1.68,7,7,0,0,1-1.31-4.43v-.24a8.49,8.49,0,0,1,1.31-4.94,4.18,4.18,0,0,1,3.65-1.87,4.44,4.44,0,0,1,2,.42,3.87,3.87,0,0,1,1.47,1.2v-5.17l-1.91-.33v-1.49h4.22v16.48l1.91.33v1.47h-3.91Zm-6.22-4.35a5.39,5.39,0,0,0,.78,3.07,2.73,2.73,0,0,0,2.43,1.16,3.06,3.06,0,0,0,1.73-.46,3.6,3.6,0,0,0,1.16-1.33v-5.88a3.55,3.55,0,0,0-1.16-1.27,3,3,0,0,0-1.71-.47,2.62,2.62,0,0,0-2.44,1.38,7,7,0,0,0-.79,3.56Z" transform="translate(-22.25 -6.72)"/><path class="cls-3" d="M845.35,190.24a7,7,0,0,1,1.53-4.64,5.63,5.63,0,0,1,8.29,0,6.94,6.94,0,0,1,1.53,4.64v.25a6.92,6.92,0,0,1-1.53,4.64,5.65,5.65,0,0,1-8.29,0,6.94,6.94,0,0,1-1.53-4.64Zm2.31.25a6,6,0,0,0,.85,3.33,2.81,2.81,0,0,0,2.53,1.31,2.78,2.78,0,0,0,2.49-1.31,6,6,0,0,0,.86-3.33v-.25a6,6,0,0,0-.86-3.32,3.06,3.06,0,0,0-5,0,6.08,6.08,0,0,0-.84,3.32Z" transform="translate(-22.25 -6.72)"/><path class="cls-3" d="M279,219.39a8.49,8.49,0,0,1,1.3-4.94,4.2,4.2,0,0,1,3.65-1.87,4.58,4.58,0,0,1,2,.41,4.13,4.13,0,0,1,1.48,1.22l.19-1.4h2v15.74l1.91.33v1.49h-6.13v-1.49l1.91-.33V224.3a4.06,4.06,0,0,1-1.45,1.08,4.73,4.73,0,0,1-1.9.36,4.34,4.34,0,0,1-3.63-1.68,7,7,0,0,1-1.3-4.43Zm2.31.24a5.58,5.58,0,0,0,.78,3.11,2.68,2.68,0,0,0,2.43,1.19,3,3,0,0,0,1.63-.42,3.41,3.41,0,0,0,1.13-1.19V216a3.52,3.52,0,0,0-1.14-1.13,3,3,0,0,0-1.6-.42,2.6,2.6,0,0,0-2.44,1.4,7.2,7.2,0,0,0-.79,3.59Z" transform="translate(-22.25 -6.72)"/><path class="cls-3" d="M301.59,223.62a4.3,4.3,0,0,1-1.54,1.57,4.19,4.19,0,0,1-2.17.55,4.06,4.06,0,0,1-3.23-1.33,6.14,6.14,0,0,1-1.16-4.12v-5.66L292,214.3v-1.49h3.76v7.5a4.72,4.72,0,0,0,.6,2.79,2.22,2.22,0,0,0,1.86.76,3.85,3.85,0,0,0,2-.49,3.24,3.24,0,0,0,1.21-1.42v-7.32l-1.7-.33v-1.49h4v10.88l1.45.33v1.47h-3.53Z" transform="translate(-22.25 -6.72)"/><path class="cls-3" d="M315.37,225.49c-.07-.34-.12-.65-.16-.92a7.84,7.84,0,0,1-.08-.82,5.76,5.76,0,0,1-1.67,1.42,4.29,4.29,0,0,1-2.14.57,4.21,4.21,0,0,1-3-1,3.53,3.53,0,0,1-1-2.72,3.17,3.17,0,0,1,1.46-2.79,7.15,7.15,0,0,1,4-1h2.38v-1.48a2.27,2.27,0,0,0-.7-1.76,2.75,2.75,0,0,0-2-.65,4.83,4.83,0,0,0-1.53.22,2.92,2.92,0,0,0-1.07.61l-.24,1.33h-1.79V214.1a7,7,0,0,1,2.1-1.11,8.49,8.49,0,0,1,2.67-.41,5.35,5.35,0,0,1,3.5,1.1,3.85,3.85,0,0,1,1.33,3.15v6.11c0,.16,0,.32,0,.48a3.83,3.83,0,0,0,0,.47l.93.13v1.47Zm-3.71-1.68a4.06,4.06,0,0,0,2.09-.56,3.27,3.27,0,0,0,1.36-1.32v-2.09h-2.46a3.49,3.49,0,0,0-2.24.66,2,2,0,0,0-.83,1.59,1.58,1.58,0,0,0,.52,1.28A2.36,2.36,0,0,0,311.66,223.81Z" transform="translate(-22.25 -6.72)"/><path class="cls-3" d="M320,224l1.91-.33v-9.06L320,214.3v-1.49h4l.16,1.89a4.64,4.64,0,0,1,1.59-1.56,4.68,4.68,0,0,1,5.35.64,5.28,5.28,0,0,1,1.13,3.71v6.2l1.91.33v1.47H328V224l1.91-.33v-6.15a3.44,3.44,0,0,0-.66-2.38,2.68,2.68,0,0,0-2-.71,3.25,3.25,0,0,0-1.76.48,3.45,3.45,0,0,0-1.22,1.32v7.44l1.91.33v1.47H320Z" transform="translate(-22.25 -6.72)"/><path class="cls-3" d="M344.19,224a4,4,0,0,1-1.52,1.31,4.58,4.58,0,0,1-2.08.45,4.34,4.34,0,0,1-3.63-1.68,7,7,0,0,1-1.3-4.43v-.24a8.49,8.49,0,0,1,1.3-4.94,4.2,4.2,0,0,1,3.65-1.87,4.62,4.62,0,0,1,2,.41,4.15,4.15,0,0,1,1.47,1.21V209l-1.91-.33v-1.49h4.22v16.48l1.91.33v1.47h-3.91ZM338,219.63a5.39,5.39,0,0,0,.78,3.07,2.71,2.71,0,0,0,2.43,1.16,3.08,3.08,0,0,0,1.73-.46,3.6,3.6,0,0,0,1.16-1.33v-5.88a3.64,3.64,0,0,0-1.16-1.27,3.09,3.09,0,0,0-1.71-.47,2.62,2.62,0,0,0-2.44,1.37,7.1,7.1,0,0,0-.79,3.57Z" transform="translate(-22.25 -6.72)"/><path class="cls-3" d="M350.06,219a7,7,0,0,1,1.52-4.64,5.63,5.63,0,0,1,8.29,0A6.94,6.94,0,0,1,361.4,219v.25a7,7,0,0,1-1.52,4.64,5.66,5.66,0,0,1-8.3,0,7,7,0,0,1-1.52-4.64Zm2.31.25a6,6,0,0,0,.85,3.33,3.06,3.06,0,0,0,5,0,6,6,0,0,0,.85-3.33V219a6,6,0,0,0-.85-3.32,3.06,3.06,0,0,0-5,0,6.08,6.08,0,0,0-.84,3.32Z" transform="translate(-22.25 -6.72)"/><path class="cls-3" d="M369.25,214.52v-1.71h2v-1.6a4.36,4.36,0,0,1,1.07-3.14,3.87,3.87,0,0,1,2.95-1.1,5.52,5.52,0,0,1,.81.06c.27,0,.57.1.89.18l-.28,1.76a4.6,4.6,0,0,0-.51-.08,4.08,4.08,0,0,0-.61,0,1.8,1.8,0,0,0-1.51.61,2.68,2.68,0,0,0-.5,1.75v1.6h2.65v1.71h-2.65v9.17l1.91.33v1.47h-6.13V224l1.91-.33v-9.17Z" transform="translate(-22.25 -6.72)"/><path class="cls-3" d="M386.28,225.49c-.07-.34-.12-.65-.16-.92a7.84,7.84,0,0,1-.08-.82,5.76,5.76,0,0,1-1.67,1.42,4.29,4.29,0,0,1-2.14.57,4.21,4.21,0,0,1-3-1,3.53,3.53,0,0,1-1-2.72,3.17,3.17,0,0,1,1.46-2.79,7.15,7.15,0,0,1,4-1H386v-1.48a2.27,2.27,0,0,0-.7-1.76,2.75,2.75,0,0,0-2-.65,4.83,4.83,0,0,0-1.53.22,2.92,2.92,0,0,0-1.07.61l-.24,1.33h-1.79V214.1a7,7,0,0,1,2.1-1.11,8.49,8.49,0,0,1,2.67-.41,5.35,5.35,0,0,1,3.5,1.1,3.85,3.85,0,0,1,1.33,3.15v6.11c0,.16,0,.32,0,.48a3.83,3.83,0,0,0,0,.47l.94.13v1.47Zm-3.71-1.68a4.06,4.06,0,0,0,2.09-.56,3.27,3.27,0,0,0,1.36-1.32v-2.09h-2.46a3.49,3.49,0,0,0-2.24.66,2,2,0,0,0-.83,1.59,1.58,1.58,0,0,0,.52,1.28A2.36,2.36,0,0,0,382.57,223.81Z" transform="translate(-22.25 -6.72)"/><path class="cls-3" d="M390.91,208.7v-1.49h4.22v16.48L397,224v1.47h-6.13V224l1.91-.33V209Z" transform="translate(-22.25 -6.72)"/><path class="cls-3" d="M407.06,225.49c-.07-.34-.13-.65-.17-.92s-.06-.55-.08-.82a5.51,5.51,0,0,1-1.67,1.42,4.77,4.77,0,0,1-5.15-.4,3.56,3.56,0,0,1-1-2.72,3.17,3.17,0,0,1,1.46-2.79,7.13,7.13,0,0,1,4-1h2.38v-1.48a2.27,2.27,0,0,0-.7-1.76,2.75,2.75,0,0,0-2-.65,4.75,4.75,0,0,0-1.53.22,2.84,2.84,0,0,0-1.07.61l-.25,1.33h-1.78V214.1a7,7,0,0,1,2.1-1.11,8.49,8.49,0,0,1,2.67-.41,5.32,5.32,0,0,1,3.49,1.1,3.86,3.86,0,0,1,1.34,3.15v6.11c0,.16,0,.32,0,.48s0,.31,0,.47l.94.13v1.47Zm-3.72-1.68a4.07,4.07,0,0,0,2.1-.56,3.33,3.33,0,0,0,1.36-1.32v-2.09h-2.46a3.48,3.48,0,0,0-2.24.66,2,2,0,0,0-.83,1.59,1.58,1.58,0,0,0,.52,1.28A2.35,2.35,0,0,0,403.34,223.81Z" transform="translate(-22.25 -6.72)"/><path class="cls-3" d="M411.55,224l1.91-.33v-9.06l-1.91-.33v-1.49h4l.15,1.66a4.14,4.14,0,0,1,1.57-1.4,4.82,4.82,0,0,1,2.23-.49,3.91,3.91,0,0,1,2.17.58,3.55,3.55,0,0,1,1.37,1.76,4.74,4.74,0,0,1,1.58-1.71,4.18,4.18,0,0,1,2.3-.63,3.79,3.79,0,0,1,3.07,1.33,6.08,6.08,0,0,1,1.12,4v5.78L433,224v1.47h-6.14V224l1.91-.33v-5.8a4.24,4.24,0,0,0-.64-2.66,2.34,2.34,0,0,0-1.91-.78,2.45,2.45,0,0,0-1.94.85,3.71,3.71,0,0,0-.85,2.14v6.25l1.91.33v1.47h-6.13V224l1.91-.33v-5.8a4.17,4.17,0,0,0-.66-2.61,2.32,2.32,0,0,0-1.92-.83,3.15,3.15,0,0,0-1.73.44,2.77,2.77,0,0,0-1,1.22v7.58l1.91.33v1.47h-6.13Z" transform="translate(-22.25 -6.72)"/><path class="cls-3" d="M434.57,219a7,7,0,0,1,1.53-4.64,5.63,5.63,0,0,1,8.29,0,6.94,6.94,0,0,1,1.53,4.64v.25a6.92,6.92,0,0,1-1.53,4.64,5.65,5.65,0,0,1-8.29,0,6.94,6.94,0,0,1-1.53-4.64Zm2.31.25a6,6,0,0,0,.85,3.33,2.81,2.81,0,0,0,2.53,1.31,2.78,2.78,0,0,0,2.49-1.31,6,6,0,0,0,.86-3.33V219a6,6,0,0,0-.86-3.32,2.81,2.81,0,0,0-2.52-1.32,2.78,2.78,0,0,0-2.5,1.32,6,6,0,0,0-.85,3.32Z" transform="translate(-22.25 -6.72)"/><path class="cls-3" d="M457.73,216.8H456l-.38-1.53a3.14,3.14,0,0,0-1.06-.63,4.08,4.08,0,0,0-1.45-.24,2.62,2.62,0,0,0-1.82.53,1.7,1.7,0,0,0-.6,1.31,1.42,1.42,0,0,0,.53,1.18,5.31,5.31,0,0,0,2.14.77,9.31,9.31,0,0,1,3.57,1.4,2.81,2.81,0,0,1,1.18,2.38,3.29,3.29,0,0,1-1.37,2.73,5.75,5.75,0,0,1-3.57,1,9,9,0,0,1-2.59-.34,6.9,6.9,0,0,1-2.05-1v-2.9h1.73l.44,1.7a2.28,2.28,0,0,0,1.08.53,6,6,0,0,0,1.4.16,3.28,3.28,0,0,0,1.93-.49,1.6,1.6,0,0,0,.12-2.56A5.41,5.41,0,0,0,453,220a9.25,9.25,0,0,1-3.48-1.37,2.77,2.77,0,0,1-1.17-2.34,3.31,3.31,0,0,1,1.32-2.64,5.16,5.16,0,0,1,3.42-1.09,8.31,8.31,0,0,1,2.59.37,5.23,5.23,0,0,1,1.91,1.05Z" transform="translate(-22.25 -6.72)"/><path class="cls-3" d="M474.77,224a4,4,0,0,1-1.52,1.31,4.58,4.58,0,0,1-2.08.45,4.33,4.33,0,0,1-3.62-1.68,7,7,0,0,1-1.31-4.43v-.24a8.42,8.42,0,0,1,1.31-4.94,4.18,4.18,0,0,1,3.65-1.87,4.58,4.58,0,0,1,2,.41,4,4,0,0,1,1.47,1.21V209l-1.91-.33v-1.49H477v16.48l1.91.33v1.47H475Zm-6.22-4.35a5.39,5.39,0,0,0,.78,3.07,2.72,2.72,0,0,0,2.43,1.16,3.06,3.06,0,0,0,1.73-.46,3.6,3.6,0,0,0,1.16-1.33v-5.88a3.55,3.55,0,0,0-1.16-1.27,3,3,0,0,0-1.71-.47,2.63,2.63,0,0,0-2.44,1.37,7.1,7.1,0,0,0-.79,3.57Z" transform="translate(-22.25 -6.72)"/><path class="cls-3" d="M480.64,219a7,7,0,0,1,1.52-4.64,5.64,5.64,0,0,1,8.3,0A6.93,6.93,0,0,1,492,219v.25a6.92,6.92,0,0,1-1.52,4.64,5.1,5.1,0,0,1-4.14,1.81,5.16,5.16,0,0,1-4.16-1.81,7,7,0,0,1-1.52-4.64Zm2.31.25a6,6,0,0,0,.85,3.33,3.06,3.06,0,0,0,5,0,6,6,0,0,0,.86-3.33V219a6,6,0,0,0-.86-3.32,3.06,3.06,0,0,0-5,0A6.08,6.08,0,0,0,483,219Z" transform="translate(-22.25 -6.72)"/><path class="cls-3" d="M499.78,228.88l1.91-.33V214.63l-1.91-.33v-1.49h3.89l.21,1.55a4.14,4.14,0,0,1,1.54-1.32,4.57,4.57,0,0,1,2.1-.46,4.23,4.23,0,0,1,3.67,1.87,8.45,8.45,0,0,1,1.3,4.94v.24a7,7,0,0,1-1.31,4.43,4.33,4.33,0,0,1-3.62,1.68,5.08,5.08,0,0,1-2.06-.39,4,4,0,0,1-1.5-1.17v4.37l1.91.33v1.49h-6.13Zm10.39-9.49a6.74,6.74,0,0,0-.84-3.55,2.74,2.74,0,0,0-2.51-1.39,3.07,3.07,0,0,0-1.69.45,3.33,3.33,0,0,0-1.13,1.22v6.17a3.18,3.18,0,0,0,1.13,1.22,3.23,3.23,0,0,0,1.71.42,2.83,2.83,0,0,0,2.49-1.19,5.29,5.29,0,0,0,.84-3.11Z" transform="translate(-22.25 -6.72)"/><path class="cls-3" d="M514.59,224l1.91-.33v-9.06l-1.91-.33v-1.49h4.22v10.88l1.91.33v1.47h-6.13Zm4.22-14.45H516.5v-2.36h2.31Z" transform="translate(-22.25 -6.72)"/><path class="cls-3" d="M522.16,208.7v-1.49h4.22v16.48l1.91.33v1.47h-6.13V224l1.91-.33V209Z" transform="translate(-22.25 -6.72)"/><path class="cls-3" d="M538.31,225.49c-.07-.34-.13-.65-.17-.92s-.06-.55-.08-.82a5.51,5.51,0,0,1-1.67,1.42,4.77,4.77,0,0,1-5.15-.4,3.56,3.56,0,0,1-1-2.72,3.17,3.17,0,0,1,1.46-2.79,7.13,7.13,0,0,1,4-1h2.38v-1.48a2.27,2.27,0,0,0-.7-1.76,2.75,2.75,0,0,0-2-.65,4.75,4.75,0,0,0-1.53.22,2.84,2.84,0,0,0-1.07.61l-.25,1.33h-1.78V214.1a7,7,0,0,1,2.1-1.11,8.49,8.49,0,0,1,2.67-.41,5.32,5.32,0,0,1,3.49,1.1,3.86,3.86,0,0,1,1.34,3.15v6.11c0,.16,0,.32,0,.48s0,.31,0,.47l.94.13v1.47Zm-3.72-1.68a4.07,4.07,0,0,0,2.1-.56,3.33,3.33,0,0,0,1.36-1.32v-2.09h-2.46a3.48,3.48,0,0,0-2.24.66,2,2,0,0,0-.83,1.59,1.58,1.58,0,0,0,.52,1.28A2.35,2.35,0,0,0,534.59,223.81Z" transform="translate(-22.25 -6.72)"/><path class="cls-3" d="M543.25,214.3v-1.49h4l.22,1.84a4.41,4.41,0,0,1,1.33-1.52,3.07,3.07,0,0,1,1.81-.55,3.6,3.6,0,0,1,.56,0l.44.09-.31,2.14-1.31-.07a2.64,2.64,0,0,0-1.54.43,2.82,2.82,0,0,0-1,1.2v7.28l1.91.33v1.47h-6.13V224l1.91-.33v-9.06Z" transform="translate(-22.25 -6.72)"/><path class="cls-3" d="M567.69,224a4,4,0,0,1-1.52,1.31,4.58,4.58,0,0,1-2.08.45,4.34,4.34,0,0,1-3.63-1.68,7,7,0,0,1-1.3-4.43v-.24a8.49,8.49,0,0,1,1.3-4.94,4.2,4.2,0,0,1,3.65-1.87,4.62,4.62,0,0,1,2,.41,4.15,4.15,0,0,1,1.47,1.21V209l-1.91-.33v-1.49h4.22v16.48l1.91.33v1.47h-3.91Zm-6.22-4.35a5.39,5.39,0,0,0,.78,3.07,2.71,2.71,0,0,0,2.43,1.16,3.08,3.08,0,0,0,1.73-.46,3.6,3.6,0,0,0,1.16-1.33v-5.88a3.64,3.64,0,0,0-1.16-1.27,3.09,3.09,0,0,0-1.71-.47,2.62,2.62,0,0,0-2.44,1.37,7.1,7.1,0,0,0-.79,3.57Z" transform="translate(-22.25 -6.72)"/><path class="cls-3" d="M581.82,225.49c-.07-.34-.12-.65-.16-.92s-.07-.55-.09-.82a5.51,5.51,0,0,1-1.67,1.42,4.77,4.77,0,0,1-5.15-.4,3.56,3.56,0,0,1-1-2.72,3.17,3.17,0,0,1,1.46-2.79,7.13,7.13,0,0,1,4-1h2.38v-1.48a2.27,2.27,0,0,0-.7-1.76,2.75,2.75,0,0,0-2-.65,4.75,4.75,0,0,0-1.53.22,2.84,2.84,0,0,0-1.07.61l-.24,1.33h-1.79V214.1a7,7,0,0,1,2.1-1.11,8.49,8.49,0,0,1,2.67-.41,5.37,5.37,0,0,1,3.5,1.1,3.85,3.85,0,0,1,1.33,3.15v6.11c0,.16,0,.32,0,.48a3.83,3.83,0,0,0,0,.47l.93.13v1.47Zm-3.71-1.68a4.06,4.06,0,0,0,2.09-.56,3.27,3.27,0,0,0,1.36-1.32v-2.09H579.1a3.49,3.49,0,0,0-2.24.66,2,2,0,0,0-.83,1.59,1.58,1.58,0,0,0,.52,1.28A2.36,2.36,0,0,0,578.11,223.81Z" transform="translate(-22.25 -6.72)"/><path class="cls-3" d="M599.67,208.43a7,7,0,0,1,7.4,7.37v2.33a7,7,0,0,1-7.4,7.36h-7.15V224l1.91-.33V210.25l-1.91-.33v-1.49h7.15Zm-2.93,1.82v13.44h2.93a4.7,4.7,0,0,0,3.73-1.56,5.85,5.85,0,0,0,1.37-4v-2.35a5.79,5.79,0,0,0-1.37-4,4.7,4.7,0,0,0-3.73-1.56Z" transform="translate(-22.25 -6.72)"/><path class="cls-3" d="M615.15,225.74a5.35,5.35,0,0,1-4.21-1.76,6.63,6.63,0,0,1-1.57-4.58v-.52a6.52,6.52,0,0,1,1.61-4.5,5,5,0,0,1,3.82-1.8,4.78,4.78,0,0,1,3.87,1.55,6.12,6.12,0,0,1,1.32,4.12v1.44h-8.23l0,.06a5,5,0,0,0,.92,3,3,3,0,0,0,2.5,1.17,5.9,5.9,0,0,0,2.06-.33,4.55,4.55,0,0,0,1.52-.92l.91,1.5a5.63,5.63,0,0,1-1.8,1.11A7.21,7.21,0,0,1,615.15,225.74Zm-.35-11.34a2.48,2.48,0,0,0-2,1,4.6,4.6,0,0,0-1,2.46l0,.06h5.85v-.31a3.51,3.51,0,0,0-.73-2.27A2.57,2.57,0,0,0,614.8,214.4Z" transform="translate(-22.25 -6.72)"/><path class="cls-3" d="M628,223.93a3.12,3.12,0,0,0,2-.7,2.19,2.19,0,0,0,.87-1.74h2.08l0,.07a3.56,3.56,0,0,1-1.46,2.91,5.32,5.32,0,0,1-3.53,1.27,5.11,5.11,0,0,1-4.23-1.81,7,7,0,0,1-1.46-4.53v-.49a6.94,6.94,0,0,1,1.47-4.52,5.1,5.1,0,0,1,4.22-1.81,7.14,7.14,0,0,1,2.73.5,5.52,5.52,0,0,1,2,1.39l.11,2.81H631l-.5-2a3.17,3.17,0,0,0-1.06-.65,4.12,4.12,0,0,0-1.45-.24,2.79,2.79,0,0,0-2.6,1.3,6.16,6.16,0,0,0-.78,3.21v.49a6.17,6.17,0,0,0,.78,3.24A2.78,2.78,0,0,0,628,223.93Z" transform="translate(-22.25 -6.72)"/><path class="cls-3" d="M635.21,219a7,7,0,0,1,1.52-4.64,5.64,5.64,0,0,1,8.3,0,6.94,6.94,0,0,1,1.53,4.64v.25a6.92,6.92,0,0,1-1.53,4.64,5.1,5.1,0,0,1-4.14,1.81,5.16,5.16,0,0,1-4.16-1.81,7,7,0,0,1-1.52-4.64Zm2.31.25a6,6,0,0,0,.85,3.33,3.06,3.06,0,0,0,5,0,6,6,0,0,0,.86-3.33V219a6,6,0,0,0-.86-3.32,3.06,3.06,0,0,0-5,0,6.08,6.08,0,0,0-.84,3.32Z" transform="translate(-22.25 -6.72)"/><path class="cls-3" d="M648.21,224l1.91-.33v-9.06l-1.91-.33v-1.49h4l.15,1.66a4.14,4.14,0,0,1,1.57-1.4,4.85,4.85,0,0,1,2.23-.49,3.91,3.91,0,0,1,2.17.58,3.55,3.55,0,0,1,1.37,1.76,4.74,4.74,0,0,1,1.58-1.71,4.18,4.18,0,0,1,2.3-.63,3.79,3.79,0,0,1,3.07,1.33,6.08,6.08,0,0,1,1.12,4v5.78l1.91.33v1.47h-6.14V224l1.91-.33v-5.8a4.24,4.24,0,0,0-.64-2.66,2.34,2.34,0,0,0-1.91-.78,2.45,2.45,0,0,0-1.94.85,3.71,3.71,0,0,0-.85,2.14v6.25L662,224v1.47h-6.13V224l1.91-.33v-5.8a4.17,4.17,0,0,0-.66-2.61,2.32,2.32,0,0,0-1.92-.83,3.15,3.15,0,0,0-1.73.44,2.77,2.77,0,0,0-1,1.22v7.58l1.91.33v1.47h-6.13Z" transform="translate(-22.25 -6.72)"/><path class="cls-3" d="M671.06,228.88l1.91-.33V214.63l-1.91-.33v-1.49H675l.21,1.55A4.22,4.22,0,0,1,676.7,213a4.58,4.58,0,0,1,2.11-.46,4.2,4.2,0,0,1,3.66,1.87,8.45,8.45,0,0,1,1.3,4.94v.24a7,7,0,0,1-1.31,4.43,4.33,4.33,0,0,1-3.62,1.68,5.08,5.08,0,0,1-2.06-.39,4,4,0,0,1-1.5-1.17v4.37l1.91.33v1.49h-6.13Zm10.39-9.49a6.74,6.74,0,0,0-.84-3.55,2.74,2.74,0,0,0-2.51-1.39,3.09,3.09,0,0,0-1.69.45,3.41,3.41,0,0,0-1.13,1.22v6.17a3.18,3.18,0,0,0,1.13,1.22,3.27,3.27,0,0,0,1.72.42,2.83,2.83,0,0,0,2.48-1.19,5.29,5.29,0,0,0,.84-3.11Z" transform="translate(-22.25 -6.72)"/><path class="cls-3" d="M685.88,219a7,7,0,0,1,1.53-4.64,5.63,5.63,0,0,1,8.29,0,6.94,6.94,0,0,1,1.53,4.64v.25a6.92,6.92,0,0,1-1.53,4.64,5.65,5.65,0,0,1-8.29,0,6.94,6.94,0,0,1-1.53-4.64Zm2.31.25a6,6,0,0,0,.85,3.33,2.81,2.81,0,0,0,2.53,1.31,2.78,2.78,0,0,0,2.49-1.31,6,6,0,0,0,.86-3.33V219a6,6,0,0,0-.86-3.32,2.81,2.81,0,0,0-2.52-1.32,2.77,2.77,0,0,0-2.5,1.32,6,6,0,0,0-.85,3.32Z" transform="translate(-22.25 -6.72)"/><path class="cls-3" d="M709,216.8h-1.73l-.38-1.53a3.14,3.14,0,0,0-1.06-.63,4.12,4.12,0,0,0-1.45-.24,2.67,2.67,0,0,0-1.83.53,1.73,1.73,0,0,0-.59,1.31,1.44,1.44,0,0,0,.52,1.18,5.44,5.44,0,0,0,2.15.77,9.31,9.31,0,0,1,3.57,1.4,2.83,2.83,0,0,1,1.17,2.38,3.28,3.28,0,0,1-1.36,2.73,5.75,5.75,0,0,1-3.57,1,9,9,0,0,1-2.59-.34,6.9,6.9,0,0,1-2-1v-2.9h1.73l.44,1.7a2.28,2.28,0,0,0,1.08.53,6,6,0,0,0,1.4.16,3.3,3.3,0,0,0,1.93-.49,1.6,1.6,0,0,0,.12-2.56,5.41,5.41,0,0,0-2.2-.86,9.25,9.25,0,0,1-3.48-1.37,2.77,2.77,0,0,1-1.17-2.34,3.33,3.33,0,0,1,1.31-2.64,5.2,5.2,0,0,1,3.43-1.09A8.31,8.31,0,0,1,707,213a5.32,5.32,0,0,1,1.91,1.05Z" transform="translate(-22.25 -6.72)"/><path class="cls-3" d="M711.57,224l1.91-.33v-9.06l-1.91-.33v-1.49h4.22v10.88l1.91.33v1.47h-6.13Zm4.22-14.45h-2.31v-2.36h2.31Z" transform="translate(-22.25 -6.72)"/><path class="cls-3" d="M725.15,223.93a3.1,3.1,0,0,0,2-.7,2.17,2.17,0,0,0,.88-1.74h2.07l0,.07a3.55,3.55,0,0,1-1.45,2.91,5.34,5.34,0,0,1-3.54,1.27,5.09,5.09,0,0,1-4.22-1.81,7,7,0,0,1-1.46-4.53v-.49a7,7,0,0,1,1.46-4.52,5.12,5.12,0,0,1,4.22-1.81,7.19,7.19,0,0,1,2.74.5,5.52,5.52,0,0,1,2,1.39l.1,2.81h-1.84l-.5-2a3,3,0,0,0-1-.65,4.18,4.18,0,0,0-1.46-.24,2.77,2.77,0,0,0-2.59,1.3,6.16,6.16,0,0,0-.78,3.21v.49a6.27,6.27,0,0,0,.77,3.24A2.79,2.79,0,0,0,725.15,223.93Zm.1,1.67-.14.61a2.3,2.3,0,0,1,1.26.61,1.85,1.85,0,0,1,.51,1.42A2.1,2.1,0,0,1,726,230a4.53,4.53,0,0,1-2.65.67l-.08-1.28a2.76,2.76,0,0,0,1.35-.29.93.93,0,0,0,.51-.86.8.8,0,0,0-.42-.78,4.08,4.08,0,0,0-1.44-.31l.37-1.58Z" transform="translate(-22.25 -6.72)"/><path class="cls-3" d="M740.67,225.49c-.07-.34-.13-.65-.17-.92s-.06-.55-.08-.82a5.51,5.51,0,0,1-1.67,1.42,4.77,4.77,0,0,1-5.15-.4,3.53,3.53,0,0,1-1-2.72,3.17,3.17,0,0,1,1.46-2.79,7.13,7.13,0,0,1,4-1h2.38v-1.48a2.27,2.27,0,0,0-.7-1.76,2.75,2.75,0,0,0-2-.65,4.75,4.75,0,0,0-1.53.22,2.84,2.84,0,0,0-1.07.61l-.25,1.33h-1.78V214.1a7,7,0,0,1,2.1-1.11,8.49,8.49,0,0,1,2.67-.41,5.32,5.32,0,0,1,3.49,1.1,3.86,3.86,0,0,1,1.34,3.15v6.11c0,.16,0,.32,0,.48s0,.31,0,.47l.94.13v1.47Zm1.15-17.8a2.69,2.69,0,0,1-.7,1.87,2.31,2.31,0,0,1-1.75.76,3.31,3.31,0,0,1-1.74-.55,3.11,3.11,0,0,0-1.5-.54,1.07,1.07,0,0,0-.83.38,1.28,1.28,0,0,0-.35.92l-1.25-.31a2.82,2.82,0,0,1,.68-1.89,2.22,2.22,0,0,1,1.75-.8,3.5,3.5,0,0,1,1.64.55,3.52,3.52,0,0,0,1.6.55,1.1,1.1,0,0,0,.83-.38,1.36,1.36,0,0,0,.35-.93ZM737,223.81a4.07,4.07,0,0,0,2.1-.56,3.33,3.33,0,0,0,1.36-1.32v-2.09H738a3.48,3.48,0,0,0-2.24.66,2,2,0,0,0-.83,1.59,1.61,1.61,0,0,0,.51,1.28A2.4,2.4,0,0,0,737,223.81Z" transform="translate(-22.25 -6.72)"/><path class="cls-3" d="M745.63,219a7,7,0,0,1,1.52-4.64,5.63,5.63,0,0,1,8.29,0A6.94,6.94,0,0,1,757,219v.25a7,7,0,0,1-1.52,4.64,5.66,5.66,0,0,1-8.3,0,6.93,6.93,0,0,1-1.52-4.64Zm2.3.25a6,6,0,0,0,.85,3.33,3.07,3.07,0,0,0,5,0,6,6,0,0,0,.85-3.33V219a6,6,0,0,0-.85-3.32,2.83,2.83,0,0,0-2.52-1.32,2.78,2.78,0,0,0-2.51,1.32,6.08,6.08,0,0,0-.85,3.32Z" transform="translate(-22.25 -6.72)"/><path class="cls-3" d="M762.25,220.69a7.09,7.09,0,0,1,.29-2.36A6,6,0,0,1,764,216.6a23.81,23.81,0,0,0,1.65-2.11,3.13,3.13,0,0,0,.5-1.78,2.56,2.56,0,0,0-.67-1.91,2.52,2.52,0,0,0-1.89-.67,2.84,2.84,0,0,0-1.81.58,2,2,0,0,0-.74,1.7h-2.21l0-.07a3.68,3.68,0,0,1,1.32-3,5.24,5.24,0,0,1,3.47-1.14,5.13,5.13,0,0,1,3.59,1.18,4.26,4.26,0,0,1,1.28,3.29,4.89,4.89,0,0,1-.83,2.76,14.93,14.93,0,0,1-2.19,2.57,2.77,2.77,0,0,0-.75,1.14,6.53,6.53,0,0,0-.14,1.57Zm2.38,4.8h-2.4v-2.43h2.4Z" transform="translate(-22.25 -6.72)"/><circle class="cls-4" cx="106" cy="148.27" r="103"/><path class="cls-2" d="M128.25,55a100,100,0,1,1-100,100,100,100,0,0,1,100-100m0-6a106,106,0,1,0,106,106,106.12,106.12,0,0,0-106-106Z" transform="translate(-22.25 -6.72)"/><path class="cls-5" d="M128,55.17a99.74,99.74,0,1,0,99.73,99.74A99.73,99.73,0,0,0,128,55.17ZM128,248a93.09,93.09,0,1,1,93.08-93.09A93.09,93.09,0,0,1,128,248Z" transform="translate(-22.25 -6.72)"/><path class="cls-5" d="M175.06,82.46a3.36,3.36,0,0,0-2.51-.47,3.32,3.32,0,0,0-2.1,1.44L165,91.79a3.33,3.33,0,0,0,1.06,4.65,44.28,44.28,0,0,1,3.73,2.66c.75.57,1.5,1.14,2.08,1.55,1,.85,2,1.75,3,2.65l-2.3,2.3a66.28,66.28,0,0,0-14.57-10l6.8-15.25A3.33,3.33,0,0,0,163.13,76a86.91,86.91,0,0,0-30.64-7.3,3.28,3.28,0,0,0-2.4.85,3.32,3.32,0,0,0-1.09,2.3l-.51,10a3.32,3.32,0,0,0,3.14,3.49l3.5.18,3.73.57,1.43.21c.72.11,1.44.21,2.07.35l.46.12L142,90a68.05,68.05,0,0,0-17.61-1.43l-1.72-16.63a3.35,3.35,0,0,0-3.66-3,85.84,85.84,0,0,0-30.21,9,3.33,3.33,0,0,0-1.44,4.48l4.53,8.88a3.33,3.33,0,0,0,4.36,1.5c.67-.31,1.33-.63,2-1a35.69,35.69,0,0,1,4.76-2l.85-.31c1-.37,2-.73,2.93-1.06l.86,3.22c-.82.28-1.62.57-2.41.86l-.78.3a30.7,30.7,0,0,0-4.72,2l-2,1L92.05,99l-.39.22-9.8-13.48A3.32,3.32,0,0,0,77.21,85a86.63,86.63,0,0,0-21.68,22.8,3.31,3.31,0,0,0,1,4.6l8.36,5.44a3.31,3.31,0,0,0,4.65-1.06,43.86,43.86,0,0,1,2.65-3.71c.57-.76,1.15-1.51,1.56-2.1.85-1,1.74-2,2.65-3l2.3,2.31a65.82,65.82,0,0,0-10,14.57l-15.25-6.8a3.33,3.33,0,0,0-4.4,1.68,86.78,86.78,0,0,0-7.29,30.64,3.32,3.32,0,0,0,3.15,3.49l10,.51a3.3,3.3,0,0,0,3.49-3.14l.17-3.5L59.1,144c.08-.48.15-1,.22-1.45.11-.72.21-1.44.35-2.06l.11-.46L63,141a68,68,0,0,0-1.43,17.6L45,160.28a3.31,3.31,0,0,0-3,3.65,86.68,86.68,0,0,0,9,30.21,3.33,3.33,0,0,0,4.47,1.45l8.88-4.54a3.33,3.33,0,0,0,1.51-4.36c-.31-.66-.63-1.31-.95-2A34.73,34.73,0,0,1,62.88,180l-.33-.88c-.37-1-.72-1.95-1-2.9l3.25-.87a66.08,66.08,0,0,0,7.59,15.91L58.85,201a3.35,3.35,0,0,0-1.33,2.18,3.3,3.3,0,0,0,.6,2.47,86.32,86.32,0,0,0,22.8,21.68,3.32,3.32,0,0,0,4.6-1L91,218a3.32,3.32,0,0,0,.45-2.55,3.25,3.25,0,0,0-1.51-2.1,44.28,44.28,0,0,1-3.73-2.66c-.75-.58-1.49-1.15-2.08-1.56-1-.85-2-1.74-3-2.65l2.35-2.35c.89.82,1.8,1.64,2.91,2.54.65.46,1.28.94,1.91,1.43a41.13,41.13,0,0,0,3.7,2.61l5.94,3.4.07,0-6.8,15.27a3.32,3.32,0,0,0,1.68,4.39,87,87,0,0,0,30.64,7.3h.17A3.33,3.33,0,0,0,127,238l.51-10a3.32,3.32,0,0,0-3.14-3.49l-3.5-.18-3.73-.57-1.43-.22c-.72-.1-1.44-.2-2.07-.35l-.46-.11.87-3.26a68.09,68.09,0,0,0,17.61,1.43l1.72,16.63a3.36,3.36,0,0,0,1.22,2.24,3.26,3.26,0,0,0,2.44.72,85.43,85.43,0,0,0,30.21-9,3.33,3.33,0,0,0,1.45-4.47l-4.54-8.88a3.34,3.34,0,0,0-4.36-1.51c-.67.31-1.33.64-2,1A34.37,34.37,0,0,1,153,220l-.85.31c-1,.37-2,.73-2.93,1.06l-.88-3.26a65.81,65.81,0,0,0,15.92-7.6L174.12,224a3.32,3.32,0,0,0,4.64.74A86.47,86.47,0,0,0,200.44,202a3.36,3.36,0,0,0,.47-2.51,3.32,3.32,0,0,0-1.44-2.1l-8.36-5.44a3.34,3.34,0,0,0-4.66,1.06,42.35,42.35,0,0,1-2.64,3.72c-.58.75-1.16,1.51-1.56,2.1-.86,1-1.75,2-2.66,3l-2.3-2.3a66.33,66.33,0,0,0,10-14.57l15.25,6.8a3.33,3.33,0,0,0,4.39-1.68,87,87,0,0,0,7.3-30.65,3.32,3.32,0,0,0-3.16-3.48l-10-.52a3.36,3.36,0,0,0-3.49,3.14l-.17,3.5-.57,3.73c-.08.48-.15,1-.22,1.44-.1.72-.2,1.44-.35,2.06l-.11.46-3.21-.85,0-.08c.18-.78.3-1.57.41-2.36.05-.37.1-.73.17-1.15l.51-3.26a2,2,0,0,0,0-.34l.18-3.48v-6.95l16.7-1.73a3.33,3.33,0,0,0,3-3.65,86.68,86.68,0,0,0-9-30.21,3.32,3.32,0,0,0-4.47-1.45l-8.88,4.54a3.32,3.32,0,0,0-1.51,4.36c.31.65.63,1.31.95,2a34.21,34.21,0,0,1,2.05,4.78l.33.87c.37,1,.72,2,1,2.91l-3.26.87a65.34,65.34,0,0,0-7.59-15.91l13.51-9.83a3.35,3.35,0,0,0,1.33-2.17,3.3,3.3,0,0,0-.6-2.47A86.43,86.43,0,0,0,175.06,82.46Zm2,32.68a3.35,3.35,0,0,0-1.33,2.17,3.3,3.3,0,0,0,.6,2.47,59.27,59.27,0,0,1,9.37,19.65,3.33,3.33,0,0,0,4.07,2.35l9.64-2.57a3.33,3.33,0,0,0,2.39-3.91,48.49,48.49,0,0,0-2.17-6.87l-.27-.71a32.89,32.89,0,0,0-1.86-4.51l3-1.52a80.22,80.22,0,0,1,6.44,21.59L190.46,145a3.32,3.32,0,0,0-3,3.47l.17,3.23V158l-.16,3.14-.47,3c-.08.44-.14.87-.2,1.31-.08.59-.16,1.18-.27,1.67l-.83,3.2a3.32,3.32,0,0,0,2.36,4.05l9.63,2.57a3.32,3.32,0,0,0,4.08-2.38l1-3.79c.21-.89.34-1.79.47-2.69.06-.43.12-.85.2-1.33l.61-4.11,0-.51,3.26.17a80.54,80.54,0,0,1-5.2,21.89L187,177.54a3.34,3.34,0,0,0-4.39,1.69,59.63,59.63,0,0,1-12.32,18,3.32,3.32,0,0,0,0,4.69l7.06,7.06a3.24,3.24,0,0,0,2.44,1,3.35,3.35,0,0,0,2.39-1.11c.59-.67,1.2-1.33,1.8-2,1.15-1.25,2.3-2.5,3.53-4,.5-.71,1-1.41,1.57-2.1.37-.49.74-1,1.11-1.47l2.79,1.81a79.57,79.57,0,0,1-15.49,16.3L167.75,204a3.31,3.31,0,0,0-4.64-.73,59.12,59.12,0,0,1-19.64,9.37,3.32,3.32,0,0,0-2,1.55,3.27,3.27,0,0,0-.34,2.52l2.58,9.64a3.32,3.32,0,0,0,3.91,2.39,47.52,47.52,0,0,0,6.89-2.18l.69-.25a35.41,35.41,0,0,0,4.51-1.87l1.51,3a80.6,80.6,0,0,1-21.58,6.43l-1.71-16.46a3.27,3.27,0,0,0-1.2-2.24,3.32,3.32,0,0,0-2.43-.72,61,61,0,0,1-21.77-1.78A3.36,3.36,0,0,0,110,213a3.29,3.29,0,0,0-1.55,2l-2.58,9.63a3.32,3.32,0,0,0,2.38,4.08l3.79,1c.89.21,1.79.34,2.7.47.42.06.84.12,1.32.21l4.11.61.51,0-.17,3.27a80.56,80.56,0,0,1-21.89-5.21l6.74-15.11a3.33,3.33,0,0,0-1.59-4.35L101,208.27,95.33,205a32,32,0,0,1-3-2.16c-.71-.54-1.41-1.08-1.93-1.43-1-.79-1.87-1.63-2.79-2.47-.69-.63-1.37-1.26-2.08-1.88a3.31,3.31,0,0,0-4.53.16l-7,7.05a3.3,3.3,0,0,0,.14,4.83l2,1.78c1.26,1.16,2.53,2.32,4,3.55.71.5,1.4,1,2.09,1.56l1.49,1.13-1.82,2.79a79.87,79.87,0,0,1-16.3-15.5l13.39-9.74a3.31,3.31,0,0,0,.73-4.64,59.66,59.66,0,0,1-9.37-19.65A3.32,3.32,0,0,0,66.18,168l-9.63,2.57a3.34,3.34,0,0,0-2.4,3.91,49.81,49.81,0,0,0,2.17,6.87l.27.71a33.55,33.55,0,0,0,1.86,4.52l-3,1.51a80.69,80.69,0,0,1-6.44-21.59l16.46-1.71a3.33,3.33,0,0,0,3-3.63,60.77,60.77,0,0,1,1.77-21.77,3.32,3.32,0,0,0-2.35-4.07l-9.64-2.58a3.33,3.33,0,0,0-4.08,2.38l-1,3.8c-.21.88-.34,1.78-.47,2.69-.06.42-.12.85-.2,1.33l-.61,4.1,0,.51-3.26-.16a80.52,80.52,0,0,1,5.2-21.9L69,132.27a3.31,3.31,0,0,0,4.39-1.69,59.89,59.89,0,0,1,12.32-18,3.33,3.33,0,0,0,0-4.7l-7-7a3.34,3.34,0,0,0-4.84.14c-.59.67-1.2,1.33-1.8,2-1.15,1.25-2.3,2.51-3.52,4-.51.72-1,1.41-1.58,2.11l-1.11,1.47L63,108.72A79.77,79.77,0,0,1,78.47,92.43l9.75,13.38a3.28,3.28,0,0,0,2.17,1.33,3.31,3.31,0,0,0,2.48-.6l.77-.58a12.07,12.07,0,0,1,1.63-1.12l5.44-3.15c.64-.29,1.27-.6,1.91-.91a26.19,26.19,0,0,1,3.89-1.67l1-.36a33.75,33.75,0,0,1,4.82-1.53,3.34,3.34,0,0,0,2.54-4.12l-2.58-9.63a3.33,3.33,0,0,0-3.91-2.39,48.74,48.74,0,0,0-6.89,2.17l-.69.26a34.82,34.82,0,0,0-4.51,1.87l-1.51-3A80.56,80.56,0,0,1,116.36,76l1.7,16.46a3.3,3.3,0,0,0,1.19,2.24,3.36,3.36,0,0,0,2.44.72,61.22,61.22,0,0,1,21.77,1.77,3.32,3.32,0,0,0,4.07-2.35l2.58-9.64a3.32,3.32,0,0,0-2.38-4.07l-3.79-1c-.89-.2-1.79-.34-2.7-.47l-1.32-.2-4.11-.61-.51,0,.17-3.26a80.19,80.19,0,0,1,21.89,5.21l-6.74,15.11a3.36,3.36,0,0,0-.07,2.55,3.31,3.31,0,0,0,1.76,1.84,59.66,59.66,0,0,1,18,12.33,3.32,3.32,0,0,0,4.69,0l7.05-7a3.3,3.3,0,0,0-.14-4.83L180,98.93c-1.26-1.16-2.53-2.32-4-3.55-.71-.5-1.4-1-2.09-1.56l-1.49-1.13,1.82-2.79a79.87,79.87,0,0,1,16.3,15.5Z" transform="translate(-22.25 -6.72)"/><path class="cls-5" d="M128,101.71a53.1,53.1,0,0,0-45.88,80,3.87,3.87,0,0,0,.21.34,53.44,53.44,0,0,0,13.56,15.17c.09.06.14.15.23.2l.07,0a52.77,52.77,0,0,0,63.6,0l.08,0c.1,0,.15-.14.23-.2a53.44,53.44,0,0,0,13.56-15.17,2.39,2.39,0,0,0,.21-.34,53.1,53.1,0,0,0-45.87-80Zm-6,7.09L85.09,173A46.49,46.49,0,0,1,122,108.8Zm-19.85,84.79L128,148.67l25.84,44.92a46.4,46.4,0,0,1-51.68,0Zm57-4.16-26.79-46.57a5,5,0,0,0-8.65,0L96.87,189.42a46.7,46.7,0,0,1-8.09-9.53L128,111.7l7.6,13.19.15.29,31.45,54.72a46.91,46.91,0,0,1-8.09,9.52ZM170.88,173l-29.22-50.84c0-.1-.1-.2-.16-.3l-7.51-13A46.5,46.5,0,0,1,170.88,173Z" transform="translate(-22.25 -6.72)"/><g class="cls-6"><path class="cls-7" d="M109.44,14.25a6.91,6.91,0,0,1,4.92,2.24,12.09,12.09,0,0,1,3-.39,10.85,10.85,0,0,1,8.07,3.67c8.87,3.33,5.35,8.67,5.14,9l.1,0s5.21,3.63,3.42,5.41c0,0,3.21,4,.65,6.13a2.88,2.88,0,0,1-.93.47c7.29,11.36,11.64,31.41,8.77,47.95-.57,3.27-4.31,5.63-14.39,5.63h0a54.39,54.39,0,0,1-9.76-.87l.32,2.45h0c.51,3.61,1.25,7.7,2.05,8.3,5.14,3.86,12.81,5.46,17.12,6.09l6.24.58a15,15,0,0,1,3.24,4.76h0l36.44,33.82,28.75-24.31s1.91-7.51,12.55-7.51a27.5,27.5,0,0,1,4.38.38c14.51,2.35-1.32,4.06-1.32,4.06s1.65-.13,4.07-.13c3.63,0,9,.31,13.26,1.85l2.19,2.67-5,5s-11.58,1.6-18.22,1.6c-2.1,0-3.71-.16-4.29-.59a.4.4,0,0,0-.26-.07c-3.94,0-36.42,30.63-36.42,30.63L150,136c.49,6.63.85,13.72.77,20.28a208.88,208.88,0,0,1-1.85,25.31c1.46,1,.41,3.23.41,3.23l2.73,21.72c0,.16,0,.32,0,.48,3.39,15.11,2.82,40.16,2.82,40.16a29,29,0,0,0-2.88-.43v1.82h0c-.07,12.66,0,31,.72,35.12,1.18,6.52,0,9.73,0,9.73s3.21,50.76,3.21,51.15,4.49,6.17,4.49,6.17,5.94,4.67,10.57,8.38h0a13.39,13.39,0,0,1,3.86,1.64,3.72,3.72,0,0,1,1.17,2.43c.31.21.82.55,1.4,1a15,15,0,0,0,4,.75c.63.63,0,1.33-.83,1.88.46.49.74.93.66,1.21-.3,1.11-4.6,5.64-12.38,5.64-.44,0-.88,0-1.34-.05-8.17-.53-19.49-9.23-20.41-11.66a7.18,7.18,0,0,1,.12-4.88c0-2.06,1.25-4.54,1.93-5.77,1.07-1.93,1.82-7.38,1.82-7.38-11.76-41.29-5-47.1-6.31-50.09-.81-1.9-8.08-28.93-13.27-48.37h0l0-.06c-.3-1.13-.6-2.24-.88-3.32a13.63,13.63,0,0,1-2.69-1.58,84.15,84.15,0,0,1-14.11,5.59L98.18,285s-2.66,9.78-5.82,12.94a139.41,139.41,0,0,1-7.8,22.56c-5.35,12-7.7,28.45-7.7,28.45s3.83,9.73,4.28,15.81c4.5,6.17,8.55,13.78,3.18,16a30.88,30.88,0,0,1-11.67,2c-6.47,0-12.27-1.52-13.62-2.87-2.18-2.17,4-18.64,4-18.64.2-1.5.61-2.94,1.49-3.55a26.84,26.84,0,0,0,4.7-5.14s-.8-2.14,1.44-5,5.57-21.41,5.57-23.84-3-20.53,7-27.66c0,0,1.14-23.15,4.07-39.9h0c.32-1.91.66-3.72,1-5.41-3.06.25-4.9.29-4.9.29s3-8.26,6.74-18.89c-3.23-.31-1.1-5.32-1.1-5.32a25.85,25.85,0,0,0,3.79-2.23l1.24-3.48c-1.07-2.64,1.6-10.83,1.6-10.83L85.88,203,57.39,181.47s22.89-54,23.82-54.89c.6-.6,5-3.19,8.07-5,3.19-3.19,10-5.71,10-5.71s6.52-7.38,7.91-8.77.75-5.24.75-5.24l-3.57-13.73c-6.31-4-8.8-8.38-8.8-8.38a3.18,3.18,0,0,1-2.33.94,8.2,8.2,0,0,1-4.16-1.58s-9.05-9-6.2-13.33a2.68,2.68,0,0,1,2.35-1.29c1.86,0,4.08,1.53,5.65,2.85-3.21-2.8-4.93-3.18-5.63-3.18h-.21l-.06,0,0,0-.07,0,0-.07c-.67-.33-3.7-2-4-4.82-5.11-1.6-4.12-4.45-4.12-4.45-4.92-3.35,0-8.73,0-8.73-2.2-2.2-.5-5.39-.5-5.39-2.57-3.63.64-8.12.64-8.12.36-3.92,6.24-6.24,6.24-6.24.46-2,2.88-2.89,2.88-2.89a4.29,4.29,0,0,1,4-2.44,2.15,2.15,0,0,1,.32,0c2.13-4.61,10.13-5.05,13.12-5.05.71,0,1.14,0,1.14,0a8,8,0,0,1,4.85-1.85m-8,186.21c1.28-3.65,2.39-6.85,3.22-9.29A2.8,2.8,0,0,1,106,187l.17-.57c1.28-4.71-10.8-27.79-10.8-27.79l-10.2-6.4-14.31,26.9,22.87,15.93,7.68,5.35M175.67,363h0M109.44,10.49h0a11.14,11.14,0,0,0-6,1.83h0c-4.34,0-11.63.73-15.28,5.23a7.86,7.86,0,0,0-4.76,3.12,8.77,8.77,0,0,0-3.11,3c-2.2,1.14-6,3.65-7,7.66-1.37,2.32-2.63,6.16-1.16,9.81a8.66,8.66,0,0,0,.13,4.9,10.16,10.16,0,0,0-1.42,6.11,7.8,7.8,0,0,0,2.16,4.56,6.57,6.57,0,0,0,.59,1.73,8.51,8.51,0,0,0,4.15,3.79,9.67,9.67,0,0,0,1.51,2.38c-1.5,3.06-.65,7,2.53,11.65a44.54,44.54,0,0,0,4.62,5.6l.19.19.21.15a11.64,11.64,0,0,0,6.42,2.34,9,9,0,0,0,1-.07,33.62,33.62,0,0,0,6.8,6.1l3.16,12.13a7.75,7.75,0,0,1,0,2.1c-1.51,1.58-5.58,6.16-7.19,8-2.09.84-7,3-10.11,5.86-7.42,4.28-8,4.88-8.45,5.32-.73.72-1.09,1.09-13,29C59.72,166.35,54,179.87,53.93,180l-1.14,2.7,2.34,1.77L83.61,206l7.72,5.82c-.79,2.89-1.5,6.47-1.15,9.14l-.47,1.32a23.28,23.28,0,0,1-2.27,1.25l-1.29.62-.56,1.31c-.47,1.11-1.87,5-.13,7.88.06.11.13.21.2.32l-5.79,16.21L78,255l5.45-.1h.21c0,.25-.09.5-.13.75v0c-2.5,14.35-3.7,32.93-4,38.6-8.89,7.94-7.61,23.15-7.17,28.32,0,.47.08,1.06.09,1.23-.06,2.7-3.25,19.07-4.8,21.56a10.12,10.12,0,0,0-2.35,6.23,18.43,18.43,0,0,1-3,3.12c-1.59,1.11-2.57,3-3,5.7-.42,1.16-1.68,4.65-2.76,8.39-2.33,8.06-2.39,11.68-.23,13.84,2.73,2.73,10.35,4,16.28,4a34.5,34.5,0,0,0,13.12-2.34,7.56,7.56,0,0,0,4.57-5c1.09-3.92-.68-9-5.56-15.86-.65-5.35-3.11-12.3-4.06-14.83C81.31,345,83.64,331.79,88,322a145.44,145.44,0,0,0,7.81-22.31c3.14-3.93,5.38-11.49,5.94-13.53l14.77-37a88.65,88.65,0,0,0,10.84-4.24l.39,1.46v0c10.92,40.92,12.82,47.17,13.31,48.54,0,.3-.12.84-.19,1.28-.81,4.86-2.7,16.19,6.26,47.94a25.2,25.2,0,0,1-1.26,5.3,17.14,17.14,0,0,0-2.39,6.9,10.77,10.77,0,0,0,.11,6.93c1.22,3.2,7.17,7.2,9,8.36,3.07,2,9.07,5.33,14.7,5.7.53,0,1.07.06,1.59.06,9.13,0,15.18-5.4,16-8.42a4.22,4.22,0,0,0,.12-1.58,4.53,4.53,0,0,0-.92-5.15l-1-1-1.46-.06a13.34,13.34,0,0,1-2.3-.34,7,7,0,0,0-2-3,13.89,13.89,0,0,0-4.53-2.16c-3.82-3.05-8.33-6.62-9.63-7.64-1.33-1.71-2.79-3.66-3.48-4.64-.17-2.83-.8-12.92-3.12-49.61.4-1.61.93-5.18-.09-10.8-.24-1.33-.77-7.06-.67-31.63l2.79.88.12-5c0-1,.53-25.1-2.79-40.51h0l0-.34,0-.34-2.62-20.84a6.6,6.6,0,0,0-.32-4.66,216.22,216.22,0,0,0,1.68-24.25c0-3.65,0-7.63-.25-12L181.1,166l2.55,2.07L186,165.8c13.32-12.55,29.38-26.72,33.88-29.35a18.93,18.93,0,0,0,4.51.41,177.65,177.65,0,0,0,18.74-1.64l1.25-.17.89-.9,5-5,2.41-2.41-2.16-2.63-2.2-2.68-.65-.8-1-.35a34.44,34.44,0,0,0-7.66-1.69c-.41-1.12-1.41-2.27-3.61-3a34,34,0,0,0-5.42-1.22,31.47,31.47,0,0,0-5-.42c-10.63,0-14.52,6.23-15.72,9l-25.47,21.53-33.44-31a18.93,18.93,0,0,0-3.69-5.16l-1-1-1.35-.12-6.15-.58c-3.66-.53-10.22-1.87-14.7-4.92a29.79,29.79,0,0,1-.81-3.78c1.75.16,3.54.23,5.35.23,4.11,0,16.58,0,18.1-8.74,2.67-15.34-.55-34.86-7.67-47.86,1.45-2.41,1-5.4-.39-7.9a5,5,0,0,0,0-.77c-.18-2.08-1.64-3.95-3.15-5.37a8.21,8.21,0,0,0-.24-4c-.91-2.92-3.33-5.21-7.2-6.84a14.54,14.54,0,0,0-10.25-4.25,15.27,15.27,0,0,0-1.9.12,10.34,10.34,0,0,0-6-2ZM75.73,178l10.85-20.39,5.91,3.71c.91,1.77,3,5.94,5.06,10.45,3.77,8.31,4.68,11.84,4.89,13.19a6.27,6.27,0,0,0-1.8,6.24c-.35,1-.73,2.11-1.16,3.34L95.87,192,75.73,178Z" transform="translate(-22.25 -6.72)"/><path class="cls-8" d="M147.36,115.64l36.44,33.82,28.75-24.31s2.41-9.48,16.93-7.13-1.32,4.06-1.32,4.06,10.27-.85,17.33,1.72l2.19,2.67-5,5s-20.1,2.78-22.51,1-36.68,30.56-36.68,30.56L150,136l-6.57-5.59Z" transform="translate(-22.25 -6.72)"/><path class="cls-9" d="M147.22,357.08a7.18,7.18,0,0,0-.12,4.88c.92,2.43,12.24,11.13,20.41,11.66,8.62.57,13.4-4.42,13.72-5.59s-5.56-5-5.56-5Z" transform="translate(-22.25 -6.72)"/><path class="cls-9" d="M63,361.33S56.85,377.8,59,380s15.83,4.77,25.29.82S74,356.19,74,356.19Z" transform="translate(-22.25 -6.72)"/><path class="cls-8" d="M103.91,86.29,108,101.91s.64,3.85-.75,5.24-7.91,8.77-7.91,8.77l-3.64,7.16,21.07,12,25.13-6.74-.75-17.64s-12.87-.82-20.37-6.46c-1.48-1.1-2.73-14-2.73-14Z" transform="translate(-22.25 -6.72)"/><path class="cls-10" d="M118.72,95.93c-.39-2.88-.71-5.78-.71-5.78l-14.12-4L105,90.54s4.42,2.88,5.79,3.48A27,27,0,0,0,118.72,95.93Z" transform="translate(-22.25 -6.72)"/><path class="cls-8" d="M92.2,120s-10.07,5.69-11,6.62-23.82,54.89-23.82,54.89L85.88,203l9.8,7.39s-3.1,9.52-1.28,11.34-5.35,5.2-5.35,5.2-2.78,6.56,2.85,5.13a83.88,83.88,0,0,0,13.26-5.2l3.78-21.1L93.72,195.11,70.85,179.18l14.31-26.9,10.2,6.4,12.51-9.15-9-22.38L95,118.73Z" transform="translate(-22.25 -6.72)"/><path class="cls-8" d="M95.61,79.8s8.16,14.54,32.55,14.55c10.08,0,13.83-2.36,14.4-5.63,3.57-20.58-4-46.6-14.58-54.55-9.25-7-42.07,19.4-42.07,19.4l7,15.68s-7.13-7.7-10-3.42,6.2,13.33,6.2,13.33S93.18,82.23,95.61,79.8Z" transform="translate(-22.25 -6.72)"/><path class="cls-8" d="M118.78,233.33,98.18,285s-2.66,9.78-5.82,12.94a139.41,139.41,0,0,1-7.8,22.56c-5.35,12-7.7,28.45-7.7,28.45s4.86,12.35,4.28,17.92c0,0,4.65,6.41,2.78,10.1s-9.2,1.5-9.2,1.5-12.25,1.6-14.06-1.44S63,365.8,63,365.8s-.58-6.53,1.56-8a26.84,26.84,0,0,0,4.7-5.14s-.8-2.14,1.44-5,5.57-21.41,5.57-23.84-3-20.53,7-27.66c0,0,2.43-49.19,9.27-56s26.31-10.91,26.31-10.91Z" transform="translate(-22.25 -6.72)"/><path class="cls-11" d="M118.78,233.33l-6.59,16.52s-9.11,4.07-11.42,4.63c-1.71.42-13.91,4.2-13.5,1.74,1.28-7.69,3-14,5.2-16.14,6.85-6.84,26.31-10.91,26.31-10.91Z" transform="translate(-22.25 -6.72)"/><path class="cls-8" d="M126.12,225.68s17.26,65.17,18.54,68.16-5.45,8.8,6.31,50.09c0,0-.75,5.45-1.82,7.38s-3.53,6.84-.42,8.55,13.15,10.27,17.43,11,12.3-3,12.3-3,4.27-1.6,2.94-2.94c0,0-3.91-.16-5.19-1.44s-15.83-12.73-15.83-12.73-4.49-5.77-4.49-6.17-3.21-51.15-3.21-51.15,1.18-3.21,0-9.73-.6-47.63-.6-47.63Z" transform="translate(-22.25 -6.72)"/><path class="cls-11" d="M126.12,225.68s4.06,15.28,5.27,19.79c.46,1.74,20.58,3.13,20.58,3.13l.11-12.51Z" transform="translate(-22.25 -6.72)"/><path class="cls-12" d="M126.12,238.58c3.34,6.62,26.79,8,28.74,8.63,0,0,.61-26.56-3.14-41.48S126.12,238.58,126.12,238.58Z" transform="translate(-22.25 -6.72)"/><path class="cls-13" d="M97.61,74c4.13,1.71.57-5.71.57-5.71s-.4-7.43-2.5-8.69a30.59,30.59,0,0,1-4.59-3.76l39.45-27s4-5.57-5.13-9a10.86,10.86,0,0,0-11-3.28s-4-4.77-9.77-.39c0,0-11.62-.68-14.26,5a4.34,4.34,0,0,0-4.28,2.42s-2.42.93-2.88,2.89c0,0-5.88,2.32-6.24,6.24,0,0-3.21,4.49-.64,8.12,0,0-1.7,3.19.5,5.39,0,0-4.92,5.38,0,8.73,0,0-1.22,3.5,6,4.92l2.13,4.42s2.06-.93,8,5Z" transform="translate(-22.25 -6.72)"/><ellipse class="cls-14" cx="115.3" cy="59.54" rx="1.92" ry="2.62" transform="translate(-33.28 23.17) rotate(-14.1)"/><path class="cls-14" d="M112.84,58.21h-.08a1.49,1.49,0,0,1-1.42-1.55c0-.39.23-3.79,2.7-5.13,1.61-.86,3.61-.6,5.94.8a1.5,1.5,0,0,1-1.53,2.58c-1.33-.79-2.38-1.06-3-.74-.78.42-1.1,2-1.14,2.62A1.5,1.5,0,0,1,112.84,58.21Z" transform="translate(-22.25 -6.72)"/><ellipse class="cls-14" cx="132.72" cy="55.31" rx="1.92" ry="2.62" transform="translate(-31.73 27.29) rotate(-14.1)"/><path class="cls-14" d="M130.69,53.75a1.39,1.39,0,0,1-.4-.06,1.49,1.49,0,0,1-1-1.83c.1-.37,1.07-3.64,3.79-4.39,1.75-.49,3.64.22,5.61,2.1a1.5,1.5,0,0,1-2.07,2.17c-1.12-1.07-2.09-1.55-2.74-1.38-.85.23-1.51,1.65-1.7,2.3A1.49,1.49,0,0,1,130.69,53.75Z" transform="translate(-22.25 -6.72)"/><path class="cls-15" d="M118,76.87c-.24-.24,14.12.9,19.6-3.13,0,0,1.09,10.92-3.81,12.12S122.93,85.07,118,76.87Z" transform="translate(-22.25 -6.72)"/><g class="cls-16"><path class="cls-17" d="M117.06,78.59s13.43,3.83,19.4-2.14l-.75-2.71L116,75.06Z" transform="translate(-22.25 -6.72)"/><path class="cls-18" d="M119.42,83.51s4.32-4.17,11.2-1.39,0,7.81,0,7.81Z" transform="translate(-22.25 -6.72)"/></g><path class="cls-10" d="M130.84,87.26c-8.18,0-13.66-9.79-13.72-9.91l-.86-1.57,1.79.09c.13,0,13.26.65,19-3a1,1,0,1,1,1.07,1.69c-5,3.13-14.29,3.39-18.31,3.34,2.14,3.12,7.62,9.6,14.64,6.54a1,1,0,0,1,.8,1.84A11.09,11.09,0,0,1,130.84,87.26Z" transform="translate(-22.25 -6.72)"/><path class="cls-10" d="M92.58,78.16s-.22-9.35-7.43-11.6" transform="translate(-22.25 -6.72)"/><path class="cls-10" d="M85.16,152.28s6.16-8.26,5.35-7c-4.52,7,11.56,15.06,15.33,10.75a9.63,9.63,0,0,1-10.48,2.66Z" transform="translate(-22.25 -6.72)"/><path class="cls-19" d="M99.32,115.92s-6.85,2.52-10,5.71c0,0,19.2,27.84,6.08,37.05,0,0,12.08,23.08,10.8,27.79S83.41,251.1,83.41,251.1s66.3-1.18,68.67-44.53l-3.14-24.95a208.88,208.88,0,0,0,1.85-25.31c.14-12.18-1.19-26.17-2.17-35.73a15.42,15.42,0,0,0-4.5-9.69l-6.24-.58s4.92,16.52-6.48,18.08C125.25,129.23,110.44,131.22,99.32,115.92Z" transform="translate(-22.25 -6.72)"/><g class="cls-20"><path class="cls-21" d="M85.88,252.72s66.3-1.18,68.67-44.53Z" transform="translate(-22.25 -6.72)"/></g><path class="cls-19" d="M99.32,115.92s-6.85,2.52-10,5.71c0,0,19.2,27.84,6.08,37.05,0,0,12.08,23.08,10.8,27.79S83.41,251.1,83.41,251.1s66.3-1.18,68.67-44.53l-3.14-24.95a208.88,208.88,0,0,0,1.85-25.31c.14-12.18-1.19-26.17-2.17-35.73a15.42,15.42,0,0,0-4.5-9.69l-6.24-.58s4.92,16.52-6.48,18.08C125.25,129.23,110.44,131.22,99.32,115.92Z" transform="translate(-22.25 -6.72)"/><path class="cls-8" d="M85.88,203l9.8,7.39s-3.1,9.52-1.28,11.34-5.35,5.2-5.35,5.2-2.78,6.56,2.85,5.13a83.88,83.88,0,0,0,13.26-5.2l3.21-17.9s1-3.51-3-5.86c-3.1-1.81-11.64-7.95-11.64-7.95Z" transform="translate(-22.25 -6.72)"/><path class="cls-9" d="M104.69,191.31s34.95,4.66,44.66-6.46c0,0,1.05-2.2-.41-3.23.21,2-16.42,11-42.78,5.34A2.87,2.87,0,0,0,104.69,191.31Z" transform="translate(-22.25 -6.72)"/><circle class="cls-22" cx="111.48" cy="182.9" r="8.15"/><g class="cls-23"><path class="cls-24" d="M95,31.89S91.51,36.13,96,39c1.55,1-4.6,5.77-4.6,5.77l-2.49,14a18.62,18.62,0,0,1,5.35-1.29L105.47,70.3l-7.22,4.51-23-15.52L59.89,29.68,79.64,11.75l21.6-5-3.8,7.53s-9.17,5.6-5.66,9.64C89.58,25.43,89.16,31.48,95,31.89Z" transform="translate(-22.25 -6.72)"/></g><path class="cls-3" d="M85,64.26S80.89,62.41,80.89,59,97,23.19,130.65,28.76c0,0,5.21,3.63,3.42,5.41,0,0,3.21,4,.65,6.13S119.67,39.3,85,64.26Z" transform="translate(-22.25 -6.72)"/><path class="cls-25" d="M86.84,56.71s21.53-26.24,44.56-22.82C131.4,33.89,109.94,35,86.84,56.71Z" transform="translate(-22.25 -6.72)"/><path class="cls-9" d="M59.83,373.89s12.24-5.24,24.49-1.23a5.34,5.34,0,0,0-.91-3c-1-1.6-16.36-4.06-22.89,1.32C60.52,371,59.13,373,59.83,373.89Z" transform="translate(-22.25 -6.72)"/><path class="cls-9" d="M163.39,369.81s.47-10.78,12.28-6.8l.31.26a3.82,3.82,0,0,0-1.17-2.48,13.39,13.39,0,0,0-3.86-1.64s-10.82-2.66-10.66,8.83C160.29,368,162,370.35,163.39,369.81Z" transform="translate(-22.25 -6.72)"/><path class="cls-26" d="M134.63,196.54a8,8,0,0,1-5.91-2.3c-1.59-1.76-2-4.32-1.32-7.61a1.5,1.5,0,1,1,2.93.64c-.49,2.28-.28,4,.62,5,1.37,1.52,4,1.29,4.07,1.29a1.51,1.51,0,0,1,1.64,1.34,1.49,1.49,0,0,1-1.33,1.64A5.49,5.49,0,0,1,134.63,196.54Z" transform="translate(-22.25 -6.72)"/><path class="cls-27" d="M138.65,193.78a1.22,1.22,0,0,1-.32,0,1.49,1.49,0,0,1-1.14-1.78c.5-2.28.31-4-.59-5-1.36-1.55-4-1.33-4.07-1.33a1.5,1.5,0,0,1-.29-3c.17,0,4.21-.38,6.6,2.31,1.57,1.77,2,4.34,1.28,7.61A1.51,1.51,0,0,1,138.65,193.78Z" transform="translate(-22.25 -6.72)"/><path class="cls-10" d="M126.34,74.46a1.5,1.5,0,0,1,0-3c1.48,0,5.62-1.25,8.51-2.24-.91-7.27-5.56-12.7-8.35-15.36a1.5,1.5,0,0,1,2.08-2.17c3.24,3.1,8.76,9.61,9.38,18.46l.08,1.13-1.07.38C136.17,72,129.09,74.46,126.34,74.46Z" transform="translate(-22.25 -6.72)"/><path class="cls-10" d="M224.07,126.33a3.66,3.66,0,0,1-.73-.06,1.5,1.5,0,1,1,.52-3c1.1.2,2.56-1.35,3.06-2.08a1.5,1.5,0,1,1,2.48,1.69C229.15,123.3,227,126.33,224.07,126.33Z" transform="translate(-22.25 -6.72)"/><path class="cls-10" d="M234.86,131.71a1,1,0,0,1-.34-.06,1,1,0,0,1-.59-1.28c.7-1.93-1.65-5.25-2.53-6.25a1,1,0,0,1,1.51-1.32c.43.49,4.13,4.87,2.89,8.26A1,1,0,0,1,234.86,131.71Z" transform="translate(-22.25 -6.72)"/></g></g></g></svg>