<svg xmlns="http://www.w3.org/2000/svg" viewBox="0 0 308.24 306.55"><defs><style>.cls-1{fill:#ffd478;}.cls-2{fill:#027e8f;}.cls-3{fill:#050505;}</style></defs><title>6-geoplano</title><g id="Camada_2" data-name="Camada 2"><g id="Camada_1-2" data-name="Camada 1"><polygon class="cls-1" points="170.93 270.3 204.56 270.3 204.56 203.43 271.8 270.3 305.43 170 204.56 69.69 170.93 69.69 137.31 103.12 137.31 69.69 103.69 103.12 70.06 69.69 36.44 103.12 70.06 203.43 103.69 170 137.31 203.43 137.31 236.87 170.93 236.87 170.93 270.3"/><path class="cls-2" d="M272.46,273.07l-66.4-66V271.8H169.43V238.37H135.81V204.05l-32.12-31.94L69.41,206.2,34.72,102.72,70.06,67.57,103.69,101l35.12-34.93V99.52l31.51-31.33h34.86l.43.44,101.54,101-.3.88Zm-100-4.27h30.63v-69l68.09,67.71,32.56-97.13L203.94,71.19H171.55l-35.74,35.54V73.3l-32.12,31.94L70.06,71.8l-31.9,31.73,32.56,97.13,33-32.78,35.12,34.93v32.56h33.62Z"/><circle class="cls-3" cx="2.82" cy="36.25" r="2.82"/><circle class="cls-3" cx="36.44" cy="36.25" r="2.82"/><circle class="cls-3" cx="70.06" cy="36.25" r="2.82"/><circle class="cls-3" cx="103.69" cy="36.25" r="2.82"/><circle class="cls-3" cx="137.31" cy="36.25" r="2.82"/><circle class="cls-3" cx="170.93" cy="36.25" r="2.82"/><circle class="cls-3" cx="204.56" cy="36.25" r="2.82"/><circle class="cls-3" cx="238.18" cy="36.25" r="2.82"/><circle class="cls-3" cx="271.8" cy="36.25" r="2.82"/><circle class="cls-3" cx="305.43" cy="36.25" r="2.82"/><circle class="cls-3" cx="2.82" cy="69.69" r="2.82"/><circle class="cls-3" cx="36.44" cy="69.69" r="2.82"/><circle class="cls-3" cx="70.06" cy="69.69" r="2.82"/><circle class="cls-3" cx="103.69" cy="69.69" r="2.82"/><circle class="cls-3" cx="137.31" cy="69.69" r="2.82"/><circle class="cls-3" cx="170.93" cy="69.69" r="2.82"/><circle class="cls-3" cx="204.56" cy="69.69" r="2.82"/><circle class="cls-3" cx="238.18" cy="69.69" r="2.82"/><circle class="cls-3" cx="271.8" cy="69.69" r="2.82"/><circle class="cls-3" cx="305.43" cy="69.69" r="2.82"/><circle class="cls-3" cx="2.82" cy="103.12" r="2.82"/><circle class="cls-3" cx="36.44" cy="103.12" r="2.82"/><circle class="cls-3" cx="70.06" cy="103.12" r="2.82"/><circle class="cls-3" cx="103.69" cy="103.12" r="2.82"/><circle class="cls-3" cx="137.31" cy="103.12" r="2.82"/><circle class="cls-3" cx="170.93" cy="103.12" r="2.82"/><circle class="cls-3" cx="204.56" cy="103.12" r="2.82"/><circle class="cls-3" cx="238.18" cy="103.12" r="2.82"/><circle class="cls-3" cx="271.8" cy="103.12" r="2.82"/><circle class="cls-3" cx="305.43" cy="103.12" r="2.82"/><circle class="cls-3" cx="2.82" cy="136.56" r="2.82"/><circle class="cls-3" cx="36.44" cy="136.56" r="2.82"/><circle class="cls-3" cx="70.06" cy="136.56" r="2.82"/><circle class="cls-3" cx="103.69" cy="136.56" r="2.82"/><circle class="cls-3" cx="137.31" cy="136.56" r="2.82"/><circle class="cls-3" cx="170.93" cy="136.56" r="2.82"/><circle class="cls-3" cx="204.56" cy="136.56" r="2.82"/><circle class="cls-3" cx="238.18" cy="136.56" r="2.82"/><circle class="cls-3" cx="271.8" cy="136.56" r="2.82"/><circle class="cls-3" cx="305.43" cy="136.56" r="2.82"/><circle class="cls-3" cx="2.82" cy="169.99" r="2.82"/><circle class="cls-3" cx="36.44" cy="169.99" r="2.82"/><circle class="cls-3" cx="70.06" cy="169.99" r="2.82"/><circle class="cls-3" cx="103.69" cy="169.99" r="2.82"/><circle class="cls-3" cx="137.31" cy="169.99" r="2.82"/><circle class="cls-3" cx="170.93" cy="169.99" r="2.82"/><circle class="cls-3" cx="204.56" cy="169.99" r="2.82"/><circle class="cls-3" cx="238.18" cy="169.99" r="2.82"/><circle class="cls-3" cx="271.8" cy="169.99" r="2.82"/><circle class="cls-3" cx="305.43" cy="169.99" r="2.82"/><circle class="cls-3" cx="2.82" cy="203.43" r="2.82"/><circle class="cls-3" cx="36.44" cy="203.43" r="2.82"/><circle class="cls-3" cx="70.06" cy="203.43" r="2.82"/><circle class="cls-3" cx="103.69" cy="203.43" r="2.82"/><circle class="cls-3" cx="137.31" cy="203.43" r="2.82"/><circle class="cls-3" cx="170.93" cy="203.43" r="2.82"/><circle class="cls-3" cx="204.56" cy="203.43" r="2.82"/><circle class="cls-3" cx="238.18" cy="203.43" r="2.82"/><circle class="cls-3" cx="271.8" cy="203.43" r="2.82"/><circle class="cls-3" cx="305.43" cy="203.43" r="2.82"/><circle class="cls-3" cx="2.82" cy="236.87" r="2.82"/><circle class="cls-3" cx="36.44" cy="236.87" r="2.82"/><circle class="cls-3" cx="70.06" cy="236.87" r="2.82"/><circle class="cls-3" cx="103.69" cy="236.87" r="2.82"/><circle class="cls-3" cx="137.31" cy="236.87" r="2.82"/><circle class="cls-3" cx="170.93" cy="236.87" r="2.82"/><circle class="cls-3" cx="204.56" cy="236.87" r="2.82"/><circle class="cls-3" cx="238.18" cy="236.87" r="2.82"/><circle class="cls-3" cx="271.8" cy="236.87" r="2.82"/><circle class="cls-3" cx="305.43" cy="236.87" r="2.82"/><circle class="cls-3" cx="2.82" cy="270.3" r="2.82"/><circle class="cls-3" cx="36.44" cy="270.3" r="2.82"/><circle class="cls-3" cx="70.06" cy="270.3" r="2.82"/><circle class="cls-3" cx="103.69" cy="270.3" r="2.82"/><circle class="cls-3" cx="137.31" cy="270.3" r="2.82"/><circle class="cls-3" cx="170.93" cy="270.3" r="2.82"/><circle class="cls-3" cx="204.56" cy="270.3" r="2.82"/><circle class="cls-3" cx="238.18" cy="270.3" r="2.82"/><circle class="cls-3" cx="271.8" cy="270.3" r="2.82"/><circle class="cls-3" cx="305.43" cy="270.3" r="2.82"/><circle class="cls-3" cx="2.82" cy="303.74" r="2.82"/><circle class="cls-3" cx="36.44" cy="303.74" r="2.82"/><circle class="cls-3" cx="70.06" cy="303.74" r="2.82"/><circle class="cls-3" cx="103.69" cy="303.74" r="2.82"/><circle class="cls-3" cx="137.31" cy="303.74" r="2.82"/><circle class="cls-3" cx="170.93" cy="303.74" r="2.82"/><circle class="cls-3" cx="204.56" cy="303.74" r="2.82"/><circle class="cls-3" cx="238.18" cy="303.74" r="2.82"/><circle class="cls-3" cx="271.8" cy="303.74" r="2.82"/><circle class="cls-3" cx="305.43" cy="303.74" r="2.82"/><circle class="cls-3" cx="2.82" cy="2.82" r="2.82"/><circle class="cls-3" cx="36.44" cy="2.82" r="2.82"/><circle class="cls-3" cx="70.06" cy="2.82" r="2.82"/><circle class="cls-3" cx="103.69" cy="2.82" r="2.82"/><circle class="cls-3" cx="137.31" cy="2.82" r="2.82"/><circle class="cls-3" cx="170.93" cy="2.82" r="2.82"/><circle class="cls-3" cx="204.56" cy="2.82" r="2.82"/><circle class="cls-3" cx="238.18" cy="2.82" r="2.82"/><circle class="cls-3" cx="271.8" cy="2.82" r="2.82"/><circle class="cls-3" cx="305.43" cy="2.82" r="2.82"/></g></g></svg>