<svg xmlns="http://www.w3.org/2000/svg" xmlns:xlink="http://www.w3.org/1999/xlink" viewBox="0 0 709.69 358.94"><defs><style>.cls-1{fill:none;}.cls-2{fill:#ffd478;}.cls-3{fill:#027e8f;}.cls-4{fill:#f9f9f9;}.cls-5{clip-path:url(#clip-path);}.cls-6{fill:#6d472e;}.cls-7{fill:#eac2a7;}.cls-8{fill:#c9a68f;}.cls-9{fill:#d6aa8b;}.cls-10{fill:#d6d6d6;}.cls-11{fill:#c99f4b;}.cls-12{fill:#6d5f56;}.cls-13{fill:#493e38;}.cls-14{clip-path:url(#clip-path-2);}.cls-15{fill:#fcfcfc;}.cls-16{fill:#d32222;}.cls-17{fill:#f4f4f4;}.cls-18{clip-path:url(#clip-path-3);}.cls-19{fill:#b7b7b7;}.cls-20{fill:#c99e32;}.cls-21{clip-path:url(#clip-path-4);}.cls-22{fill:#aa7e30;}.cls-23{fill:#fff;}.cls-24{fill:#ddd;}.cls-25{fill:#846829;}.cls-26{fill:#e8cd95;}.cls-27{fill:#eaa000;}</style><clipPath id="clip-path" transform="translate(0 -1.97)"><path class="cls-1" d="M131.37,210.88s-28.07,21.32-75.08,3.8-47-152.1-47-152.1S52.52-1.68,62.19,0s66.06,12.65,66.06,33.39,25.1,113.8,25.1,113.8,10.54,40.81,5.27,43.92"/></clipPath><clipPath id="clip-path-2" transform="translate(0 -1.97)"><path class="cls-1" d="M93.06,68.21c-.22-.23,13.34.85,18.52-3,0,0,1,10.31-3.6,11.44S97.73,76,93.06,68.21Z"/></clipPath><clipPath id="clip-path-3" transform="translate(0 -1.97)"><path class="cls-1" d="M100.74,220.9c3.15,6.25,25.3,7.57,27.13,8.15,0,0,.58-25.08-3-39.17S100.74,220.9,100.74,220.9Z"/></clipPath><clipPath id="clip-path-4" transform="translate(0 -1.97)"><path class="cls-1" d="M73.81,65.46c3.91,1.61.54-5.39.54-5.39s-.37-7-2.36-8.21a29.2,29.2,0,0,1-4.33-3.54l10-6.85,27.27-18.7s3.77-5.25-4.84-8.48a10.28,10.28,0,0,0-10.44-3.1s-3.77-4.51-9.22-.37c0,0-11-.63-13.47,4.75a4.09,4.09,0,0,0-4,2.29s-2.28.88-2.72,2.73c0,0-5.56,2.18-5.89,5.89,0,0-3,4.24-.61,7.67,0,0-1.6,3,.47,5.08,0,0-4.64,5.09,0,8.25,0,0-1.14,3.3,5.66,4.65l2,4.17s1.94-.88,7.54,4.71Z"/></clipPath></defs><title>4-info</title><g id="Camada_2" data-name="Camada 2"><g id="Camada_1-2" data-name="Camada 1"><path class="cls-2" d="M131.74,60H699.69a10,10,0,0,1,10,10V203.76a10,10,0,0,1-10,10H131.74a0,0,0,0,1,0,0V60A0,0,0,0,1,131.74,60Z"/><path class="cls-3" d="M227,133.29h-.89l-.16-1.94a3.87,3.87,0,0,0-1.43-1,5.19,5.19,0,0,0-2-.38,4.65,4.65,0,0,0-3.68,1.56,5.91,5.91,0,0,0-1.37,4v.19a6,6,0,0,0,1.35,4,4.48,4.48,0,0,0,3.56,1.56,5.75,5.75,0,0,0,2.12-.37,4,4,0,0,0,1.49-1l.16-1.94H227v2.25a4.84,4.84,0,0,1-1.89,1.38,6.68,6.68,0,0,1-2.77.55,5.66,5.66,0,0,1-4.35-1.82,6.59,6.59,0,0,1-1.69-4.67v-.17a6.61,6.61,0,0,1,1.69-4.68,5.69,5.69,0,0,1,4.4-1.82,6.52,6.52,0,0,1,2.75.55A5,5,0,0,1,227,131Z" transform="translate(0 -1.97)"/><path class="cls-3" d="M236.56,140.51a3.37,3.37,0,0,1-1.32,1.3,4.13,4.13,0,0,1-2,.45,3.24,3.24,0,0,1-2.54-1,4.62,4.62,0,0,1-.91-3.16v-4.62l-1.28-.11v-.78h2.4v5.53a3.81,3.81,0,0,0,.65,2.49,2.22,2.22,0,0,0,1.81.76,3.59,3.59,0,0,0,2.06-.53,2.74,2.74,0,0,0,1.07-1.46v-5.9l-1.46-.11v-.78h2.6v8.62l1.38.11v.78h-2.37Z" transform="translate(0 -1.97)"/><path class="cls-3" d="M240.63,141.3l1.55-.11v-7.73l-1.55-.11v-.78h2.68v8.62l1.55.11v.78h-4.23Zm2.68-11.46h-1.13v-1.47h1.13Z" transform="translate(0 -1.97)"/><path class="cls-3" d="M253.9,140.71a3.49,3.49,0,0,1-1.32,1.15,4.15,4.15,0,0,1-1.89.4,3.5,3.5,0,0,1-2.88-1.27,5.19,5.19,0,0,1-1-3.4v-.19a5.81,5.81,0,0,1,1-3.64,3.42,3.42,0,0,1,2.89-1.37,3.87,3.87,0,0,1,1.86.42,3.56,3.56,0,0,1,1.31,1.19v-4.74l-1.54-.11v-.78H255v12.82l1.55.11v.78H254Zm-6-3.12a4.52,4.52,0,0,0,.75,2.74,2.59,2.59,0,0,0,2.24,1,3.36,3.36,0,0,0,1.83-.46,3,3,0,0,0,1.14-1.26v-4.5a3.3,3.3,0,0,0-1.09-1.31,3.15,3.15,0,0,0-1.86-.51,2.51,2.51,0,0,0-2.25,1.14,5.25,5.25,0,0,0-.76,3Z" transform="translate(0 -1.97)"/><path class="cls-3" d="M262.83,142.26a4.23,4.23,0,0,1-3.2-1.31,4.62,4.62,0,0,1-1.28-3.35v-.48a4.74,4.74,0,0,1,1.27-3.38,4.06,4.06,0,0,1,3.06-1.35,4,4,0,0,1,3,1.11,4.05,4.05,0,0,1,1.09,2.95v.9h-7.26v.25a4,4,0,0,0,.93,2.69,3,3,0,0,0,2.42,1.08,5.35,5.35,0,0,0,1.81-.27,3.61,3.61,0,0,0,1.28-.78l.48.72a4,4,0,0,1-1.46.89A6,6,0,0,1,262.83,142.26Zm-.15-9a2.83,2.83,0,0,0-2.11.89,3.68,3.68,0,0,0-1,2.24l0,0h6v-.26a2.94,2.94,0,0,0-.79-2.08A2.83,2.83,0,0,0,262.68,133.29Z" transform="translate(0 -1.97)"/><path class="cls-3" d="M280.94,135.5H280l-.13-1.34a2.75,2.75,0,0,0-1.08-.64,4.53,4.53,0,0,0-1.49-.23,2.92,2.92,0,0,0-1.87.5,1.45,1.45,0,0,0-.62,1.16,1.34,1.34,0,0,0,.54,1.09,5.47,5.47,0,0,0,2.14.76,7.23,7.23,0,0,1,2.74,1,2.08,2.08,0,0,1,.91,1.78,2.24,2.24,0,0,1-1,1.92,4.65,4.65,0,0,1-2.74.73,7.11,7.11,0,0,1-2.08-.29,5.38,5.38,0,0,1-1.62-.83v-1.92h.92l.17,1.36a2.7,2.7,0,0,0,1.15.61,5.78,5.78,0,0,0,1.46.18,3.26,3.26,0,0,0,1.94-.5,1.43,1.43,0,0,0,.71-1.21,1.5,1.5,0,0,0-.59-1.17,5.23,5.23,0,0,0-2.14-.82,7.59,7.59,0,0,1-2.72-1,2,2,0,0,1-.89-1.71,2.26,2.26,0,0,1,1-1.85,4.25,4.25,0,0,1,2.63-.75,6.4,6.4,0,0,1,2.06.32,4.42,4.42,0,0,1,1.53.87Z" transform="translate(0 -1.97)"/><path class="cls-3" d="M287.75,142.26a4.27,4.27,0,0,1-3.21-1.31,4.61,4.61,0,0,1-1.27-3.35v-.48a4.7,4.7,0,0,1,1.27-3.38,4,4,0,0,1,3.06-1.35,4,4,0,0,1,3,1.11,4,4,0,0,1,1.08,2.95v.9H284.4v.25a4,4,0,0,0,.92,2.69,3.05,3.05,0,0,0,2.43,1.08,5.33,5.33,0,0,0,1.8-.27,3.53,3.53,0,0,0,1.28-.78l.49.72a4.18,4.18,0,0,1-1.46.89A6,6,0,0,1,287.75,142.26Zm-.15-9a2.82,2.82,0,0,0-2.11.89,3.69,3.69,0,0,0-1,2.24l0,0h6v-.26a2.9,2.9,0,0,0-.79-2.08A2.79,2.79,0,0,0,287.6,133.29Z" transform="translate(0 -1.97)"/><path class="cls-3" d="M293.43,133.35v-.78H296l.1,1.57a3.41,3.41,0,0,1,1.32-1.29,4,4,0,0,1,2-.46,3.45,3.45,0,0,1,2,.53,3,3,0,0,1,1.13,1.63,3.74,3.74,0,0,1,1.32-1.58,3.65,3.65,0,0,1,2.1-.58,3.24,3.24,0,0,1,2.54,1,4.68,4.68,0,0,1,.89,3.13v4.65l1.55.12v.78h-4.24v-.78l1.54-.12v-4.67a3.68,3.68,0,0,0-.66-2.48,2.43,2.43,0,0,0-1.87-.72,2.65,2.65,0,0,0-2.05.78,3.64,3.64,0,0,0-.88,2v.14a.66.66,0,0,1,0,.15v4.82l1.54.11v.78H300v-.78l1.55-.11v-4.68a3.62,3.62,0,0,0-.68-2.46,2.38,2.38,0,0,0-1.87-.74,2.74,2.74,0,0,0-2.91,2.09v5.79l1.55.11v.78h-4.24v-.78l1.55-.11v-7.73Z" transform="translate(0 -1.97)"/><path class="cls-3" d="M312,133.35v-.78h2.5l.14,1.47a3.7,3.7,0,0,1,1.33-1.22,4.11,4.11,0,0,1,1.91-.43,3.44,3.44,0,0,1,2.89,1.37,5.81,5.81,0,0,1,1,3.64v.19a5.15,5.15,0,0,1-1,3.4,3.51,3.51,0,0,1-2.88,1.27,4.46,4.46,0,0,1-1.89-.38,3.43,3.43,0,0,1-1.32-1.09v4.05l1.54.11v.78H312V145l1.55-.11V133.46Zm8.68,4.05a5.14,5.14,0,0,0-.78-3,2.59,2.59,0,0,0-2.28-1.14,2.94,2.94,0,0,0-2.94,1.82v4.57a3,3,0,0,0,1.12,1.23,3.46,3.46,0,0,0,1.84.44,2.64,2.64,0,0,0,2.26-1,4.46,4.46,0,0,0,.78-2.75Z" transform="translate(0 -1.97)"/><path class="cls-3" d="M326.09,132.57l.15,1.58v.11a3.39,3.39,0,0,1,1.19-1.37,3.19,3.19,0,0,1,1.79-.5l.42,0,.34.07-.16,1-.84-.05a2.71,2.71,0,0,0-1.76.56,3,3,0,0,0-1,1.53v5.68l1.54.11v.78h-4.22v-.78l1.55-.11v-7.73l-1.55-.11v-.78h2.53Z" transform="translate(0 -1.97)"/><path class="cls-3" d="M335.79,142.26a4.23,4.23,0,0,1-3.2-1.31,4.62,4.62,0,0,1-1.28-3.35v-.48a4.74,4.74,0,0,1,1.27-3.38,4.06,4.06,0,0,1,3.06-1.35,4,4,0,0,1,3,1.11,4,4,0,0,1,1.08,2.95v.9h-7.25v.25a4,4,0,0,0,.93,2.69,3,3,0,0,0,2.42,1.08,5.35,5.35,0,0,0,1.81-.27,3.61,3.61,0,0,0,1.28-.78l.48.72a4,4,0,0,1-1.46.89A6,6,0,0,1,335.79,142.26Zm-.15-9a2.83,2.83,0,0,0-2.11.89,3.68,3.68,0,0,0-1,2.24l0,0h6v-.26a2.94,2.94,0,0,0-.78-2.08A2.83,2.83,0,0,0,335.64,133.29Z" transform="translate(0 -1.97)"/><path class="cls-3" d="M346.45,137.4a5.87,5.87,0,0,1,1-3.64,3.44,3.44,0,0,1,2.9-1.37,4,4,0,0,1,1.85.41,3.54,3.54,0,0,1,1.3,1.17l.12-1.4h1v12.27l1.55.11v.78H352V145l1.54-.11v-4a3.31,3.31,0,0,1-1.31,1.06,4.18,4.18,0,0,1-1.83.37,3.5,3.5,0,0,1-2.88-1.27,5.25,5.25,0,0,1-1-3.4Zm1.15.19a4.57,4.57,0,0,0,.75,2.75,2.56,2.56,0,0,0,2.24,1,3.32,3.32,0,0,0,1.79-.44,3,3,0,0,0,1.13-1.22v-4.64a3.41,3.41,0,0,0-1.1-1.28,3.06,3.06,0,0,0-1.8-.5,2.5,2.5,0,0,0-2.25,1.15,5.22,5.22,0,0,0-.76,3Z" transform="translate(0 -1.97)"/><path class="cls-3" d="M364.85,140.51a3.37,3.37,0,0,1-1.32,1.3,4.13,4.13,0,0,1-2,.45,3.24,3.24,0,0,1-2.54-1,4.62,4.62,0,0,1-.91-3.16v-4.62l-1.27-.11v-.78h2.4v5.53a3.82,3.82,0,0,0,.64,2.49,2.22,2.22,0,0,0,1.82.76,3.56,3.56,0,0,0,2.05-.53,2.81,2.81,0,0,0,1.08-1.46v-5.9l-1.46-.11v-.78H366v8.62l1.37.11v.78H365Z" transform="translate(0 -1.97)"/><path class="cls-3" d="M373.53,142.26a4.27,4.27,0,0,1-3.21-1.31,4.61,4.61,0,0,1-1.27-3.35v-.48a4.7,4.7,0,0,1,1.27-3.38,4,4,0,0,1,3.06-1.35,4,4,0,0,1,3,1.11,4,4,0,0,1,1.08,2.95v.9h-7.25v.25a4,4,0,0,0,.93,2.69,3,3,0,0,0,2.42,1.08,5.33,5.33,0,0,0,1.8-.27,3.53,3.53,0,0,0,1.28-.78l.49.72a4.09,4.09,0,0,1-1.46.89A6,6,0,0,1,373.53,142.26Zm-.15-9a2.82,2.82,0,0,0-2.11.89,3.63,3.63,0,0,0-1,2.24v0h6v-.26a2.9,2.9,0,0,0-.79-2.08A2.79,2.79,0,0,0,373.38,133.29Z" transform="translate(0 -1.97)"/><path class="cls-3" d="M388.57,141.37a3.42,3.42,0,0,0,2-.59,1.92,1.92,0,0,0,.86-1.66h1l0,0a2.53,2.53,0,0,1-1.14,2.2,4.4,4.4,0,0,1-2.75.89,4,4,0,0,1-3.23-1.33,5,5,0,0,1-1.15-3.42v-.37a5,5,0,0,1,1.15-3.41,4,4,0,0,1,3.22-1.34,5.54,5.54,0,0,1,2.18.42,4.19,4.19,0,0,1,1.6,1.12l.05,2.07h-1l-.18-1.68a3.11,3.11,0,0,0-1.13-.75,4,4,0,0,0-1.55-.28,2.81,2.81,0,0,0-2.44,1.09,4.57,4.57,0,0,0-.79,2.76v.37a4.62,4.62,0,0,0,.79,2.78A2.82,2.82,0,0,0,388.57,141.37Z" transform="translate(0 -1.97)"/><path class="cls-3" d="M401.66,142.08c-.07-.32-.13-.6-.16-.84a5.52,5.52,0,0,1-.05-.71,4.44,4.44,0,0,1-1.51,1.24,4.59,4.59,0,0,1-2.14.49,3.47,3.47,0,0,1-2.34-.72,2.45,2.45,0,0,1-.82-1.95,2.37,2.37,0,0,1,1.22-2.09,6.17,6.17,0,0,1,3.33-.77h2.26v-1.26a2,2,0,0,0-.7-1.6,3,3,0,0,0-2-.58,5.45,5.45,0,0,0-1.56.21,3.68,3.68,0,0,0-1.19.59l-.09,1.27H395v-1.82a6,6,0,0,1,1.7-.83,7,7,0,0,1,2.11-.32,4.37,4.37,0,0,1,2.74.8,2.74,2.74,0,0,1,1,2.3v4.67c0,.2,0,.38,0,.56a4.35,4.35,0,0,0,.06.52l1,.06v.78Zm-3.74-.75a4.29,4.29,0,0,0,2.18-.53,3.16,3.16,0,0,0,1.35-1.36v-1.91h-2.28a4.53,4.53,0,0,0-2.48.6,1.74,1.74,0,0,0-.92,1.5,1.51,1.51,0,0,0,.57,1.23A2.46,2.46,0,0,0,397.92,141.33Z" transform="translate(0 -1.97)"/><path class="cls-3" d="M412.43,140.71a3.49,3.49,0,0,1-1.32,1.15,4.15,4.15,0,0,1-1.89.4,3.5,3.5,0,0,1-2.88-1.27,5.19,5.19,0,0,1-1-3.4v-.19a5.81,5.81,0,0,1,1-3.64,3.44,3.44,0,0,1,2.9-1.37,3.93,3.93,0,0,1,1.86.42,3.72,3.72,0,0,1,1.31,1.19v-4.74l-1.55-.11v-.78h2.69v12.82l1.54.11v.78h-2.56Zm-6-3.12a4.52,4.52,0,0,0,.74,2.74,2.61,2.61,0,0,0,2.25,1,3.35,3.35,0,0,0,1.82-.46,3.12,3.12,0,0,0,1.15-1.26v-4.5a3.41,3.41,0,0,0-1.1-1.31,3.15,3.15,0,0,0-1.86-.51,2.51,2.51,0,0,0-2.25,1.14,5.25,5.25,0,0,0-.75,3Z" transform="translate(0 -1.97)"/><path class="cls-3" d="M423.93,142.08a7.1,7.1,0,0,1-.16-.84,4.17,4.17,0,0,1,0-.71,4.48,4.48,0,0,1-1.52,1.24,4.53,4.53,0,0,1-2.14.49,3.44,3.44,0,0,1-2.33-.72,2.46,2.46,0,0,1-.83-1.95,2.36,2.36,0,0,1,1.23-2.09,6.11,6.11,0,0,1,3.32-.77h2.27v-1.26a2,2,0,0,0-.71-1.6,3,3,0,0,0-2-.58,5.45,5.45,0,0,0-1.56.21,3.73,3.73,0,0,0-1.18.59l-.09,1.27h-.94v-1.82a6,6,0,0,1,1.7-.83,6.9,6.9,0,0,1,2.11-.32,4.36,4.36,0,0,1,2.73.8,2.75,2.75,0,0,1,1,2.3v4.67c0,.2,0,.38,0,.56a4.35,4.35,0,0,0,.06.52l1,.06v.78Zm-3.74-.75a4.26,4.26,0,0,0,2.17-.53,3.18,3.18,0,0,0,1.36-1.36v-1.91h-2.29a4.49,4.49,0,0,0-2.47.6,1.73,1.73,0,0,0-.93,1.5,1.52,1.52,0,0,0,.58,1.23A2.44,2.44,0,0,0,420.19,141.33Z" transform="translate(0 -1.97)"/><path class="cls-3" d="M432,133.35v-.78h2.49l.14,1.47a3.73,3.73,0,0,1,1.34-1.22,4.07,4.07,0,0,1,1.9-.43,3.46,3.46,0,0,1,2.9,1.37,5.87,5.87,0,0,1,1,3.64v.19a5.21,5.21,0,0,1-1,3.4,3.53,3.53,0,0,1-2.88,1.27,4.46,4.46,0,0,1-1.89-.38,3.39,3.39,0,0,1-1.33-1.09v4.05l1.55.11v.78H432V145l1.54-.11V133.46Zm8.67,4.05a5.14,5.14,0,0,0-.78-3,2.59,2.59,0,0,0-2.28-1.14,3.22,3.22,0,0,0-1.86.5,3.16,3.16,0,0,0-1.08,1.32v4.57a3,3,0,0,0,1.13,1.23,3.45,3.45,0,0,0,1.83.44,2.66,2.66,0,0,0,2.27-1,4.53,4.53,0,0,0,.77-2.75Z" transform="translate(0 -1.97)"/><path class="cls-3" d="M450.74,142.08a7.1,7.1,0,0,1-.16-.84,5.52,5.52,0,0,1-.05-.71,4.38,4.38,0,0,1-1.52,1.24,4.52,4.52,0,0,1-2.13.49,3.45,3.45,0,0,1-2.34-.72,2.45,2.45,0,0,1-.82-1.95,2.37,2.37,0,0,1,1.22-2.09,6.14,6.14,0,0,1,3.32-.77h2.27v-1.26a1.94,1.94,0,0,0-.71-1.6,3,3,0,0,0-2-.58,5.57,5.57,0,0,0-1.57.21,3.73,3.73,0,0,0-1.18.59l-.09,1.27h-.94v-1.82a6,6,0,0,1,1.7-.83,7,7,0,0,1,2.11-.32,4.37,4.37,0,0,1,2.74.8,2.74,2.74,0,0,1,1,2.3v4.67c0,.2,0,.38,0,.56a4.35,4.35,0,0,0,.06.52l1,.06v.78Zm-3.74-.75a4.26,4.26,0,0,0,2.17-.53,3.18,3.18,0,0,0,1.36-1.36v-1.91h-2.29a4.49,4.49,0,0,0-2.47.6,1.72,1.72,0,0,0-.92,1.5,1.51,1.51,0,0,0,.57,1.23A2.44,2.44,0,0,0,447,141.33Z" transform="translate(0 -1.97)"/><path class="cls-3" d="M456.83,132.57l.15,1.58v.11a3.39,3.39,0,0,1,1.19-1.37,3.19,3.19,0,0,1,1.79-.5l.42,0,.34.07-.16,1-.84-.05A2.71,2.71,0,0,0,458,134a3,3,0,0,0-1,1.53v5.68l1.54.11v.78H454.3v-.78l1.55-.11v-7.73l-1.55-.11v-.78h2.53Z" transform="translate(0 -1.97)"/><path class="cls-3" d="M465.1,130.13v2.44h2.26v.86H465.1v6.2a1.88,1.88,0,0,0,.37,1.32,1.25,1.25,0,0,0,1,.39l.54,0,.6-.08.17.79a3.48,3.48,0,0,1-.69.17,5.76,5.76,0,0,1-.82.06,2.21,2.21,0,0,1-1.68-.63,2.78,2.78,0,0,1-.61-2v-6.2h-1.76v-.86H464v-2.44Z" transform="translate(0 -1.97)"/><path class="cls-3" d="M474,142.26a4.24,4.24,0,0,1-3.21-1.31,4.62,4.62,0,0,1-1.28-3.35v-.48a4.74,4.74,0,0,1,1.27-3.38,4.06,4.06,0,0,1,3.06-1.35,4,4,0,0,1,3,1.11,4,4,0,0,1,1.09,2.95v.9h-7.26v.25a4,4,0,0,0,.93,2.69,3.05,3.05,0,0,0,2.43,1.08,5.33,5.33,0,0,0,1.8-.27,3.61,3.61,0,0,0,1.28-.78l.48.72a4,4,0,0,1-1.46.89A6,6,0,0,1,474,142.26Zm-.16-9a2.83,2.83,0,0,0-2.11.89,3.74,3.74,0,0,0-1,2.24l0,0h6v-.26a2.94,2.94,0,0,0-.79-2.08A2.83,2.83,0,0,0,473.82,133.29Z" transform="translate(0 -1.97)"/><path class="cls-3" d="M487.24,130.13v2.44h2.26v.86h-2.26v6.2a1.88,1.88,0,0,0,.37,1.32,1.27,1.27,0,0,0,1,.39l.54,0,.6-.08.17.79a3.48,3.48,0,0,1-.69.17,5.66,5.66,0,0,1-.82.06,2.21,2.21,0,0,1-1.68-.63,2.83,2.83,0,0,1-.61-2v-6.2h-1.76v-.86h1.76v-2.44Z" transform="translate(0 -1.97)"/><path class="cls-3" d="M496.12,142.26a4.27,4.27,0,0,1-3.21-1.31,4.61,4.61,0,0,1-1.27-3.35v-.48a4.73,4.73,0,0,1,1.26-3.38,4.07,4.07,0,0,1,3.07-1.35,4,4,0,0,1,3,1.11,4,4,0,0,1,1.08,2.95v.9h-7.25v.25a4,4,0,0,0,.92,2.69,3.05,3.05,0,0,0,2.43,1.08,5.33,5.33,0,0,0,1.8-.27,3.53,3.53,0,0,0,1.28-.78l.49.72a4.13,4.13,0,0,1-1.47.89A6,6,0,0,1,496.12,142.26Zm-.15-9a2.85,2.85,0,0,0-2.12.89,3.74,3.74,0,0,0-1,2.24l0,0h6v-.26a2.9,2.9,0,0,0-.79-2.08A2.81,2.81,0,0,0,496,133.29Z" transform="translate(0 -1.97)"/><path class="cls-3" d="M501.84,141.3l1.55-.11v-7.73l-1.55-.11v-.78h2.55l.11,1.66a3.48,3.48,0,0,1,1.33-1.36,3.94,3.94,0,0,1,2-.48,3.29,3.29,0,0,1,2.54,1,4.2,4.2,0,0,1,.88,2.95v4.9l1.54.11v.78h-4.23v-.78l1.55-.11v-4.9a3.25,3.25,0,0,0-.66-2.31,2.51,2.51,0,0,0-1.88-.67,3.12,3.12,0,0,0-1.95.58,3.26,3.26,0,0,0-1.08,1.55v5.75l1.54.11v.78h-4.23Z" transform="translate(0 -1.97)"/><path class="cls-3" d="M514.24,129.15v-.78h2.67v5.82a3.62,3.62,0,0,1,1.37-1.32,4,4,0,0,1,2-.48,3.24,3.24,0,0,1,2.49.93,4.16,4.16,0,0,1,.87,2.9v5l1.55.11v.78H521v-.78l1.54-.11v-5a3.1,3.1,0,0,0-.66-2.22,2.41,2.41,0,0,0-1.81-.67,3.12,3.12,0,0,0-3.11,2.07v5.81l1.55.11v.78h-4.22v-.78l1.54-.11V129.26Z" transform="translate(0 -1.97)"/><path class="cls-3" d="M534,142.08a7.1,7.1,0,0,1-.16-.84,4.17,4.17,0,0,1-.05-.71,4.48,4.48,0,0,1-1.52,1.24,4.56,4.56,0,0,1-2.14.49,3.44,3.44,0,0,1-2.33-.72,2.46,2.46,0,0,1-.83-1.95,2.36,2.36,0,0,1,1.23-2.09,6.11,6.11,0,0,1,3.32-.77h2.27v-1.26a2,2,0,0,0-.71-1.6,3,3,0,0,0-2-.58,5.45,5.45,0,0,0-1.56.21,3.73,3.73,0,0,0-1.18.59l-.1,1.27h-.94v-1.82a6.18,6.18,0,0,1,1.71-.83,6.9,6.9,0,0,1,2.11-.32,4.36,4.36,0,0,1,2.73.8,2.75,2.75,0,0,1,1,2.3v4.67c0,.2,0,.38,0,.56a4.35,4.35,0,0,0,.06.52l1,.06v.78Zm-3.74-.75a4.28,4.28,0,0,0,2.17-.53,3.18,3.18,0,0,0,1.36-1.36v-1.91h-2.29a4.49,4.49,0,0,0-2.47.6,1.73,1.73,0,0,0-.93,1.5,1.49,1.49,0,0,0,.58,1.23A2.44,2.44,0,0,0,530.24,141.33Z" transform="translate(0 -1.97)"/><path class="cls-3" d="M549.43,142.08a7.1,7.1,0,0,1-.16-.84,4.17,4.17,0,0,1,0-.71,4.48,4.48,0,0,1-1.52,1.24,4.53,4.53,0,0,1-2.14.49,3.44,3.44,0,0,1-2.33-.72,2.46,2.46,0,0,1-.83-1.95,2.36,2.36,0,0,1,1.23-2.09,6.11,6.11,0,0,1,3.32-.77h2.27v-1.26a2,2,0,0,0-.71-1.6,3,3,0,0,0-2-.58,5.45,5.45,0,0,0-1.56.21,3.73,3.73,0,0,0-1.18.59l-.09,1.27h-.94v-1.82a6,6,0,0,1,1.7-.83,6.9,6.9,0,0,1,2.11-.32,4.36,4.36,0,0,1,2.73.8,2.75,2.75,0,0,1,1,2.3v4.67c0,.2,0,.38,0,.56a4.35,4.35,0,0,0,.06.52l1,.06v.78Zm-3.74-.75a4.26,4.26,0,0,0,2.17-.53,3.18,3.18,0,0,0,1.36-1.36v-1.91h-2.29a4.49,4.49,0,0,0-2.47.6,1.73,1.73,0,0,0-.93,1.5,1.52,1.52,0,0,0,.58,1.23A2.44,2.44,0,0,0,545.69,141.33Z" transform="translate(0 -1.97)"/><path class="cls-3" d="M552.76,133.35v-.78h2.5l.14,1.47a3.7,3.7,0,0,1,1.33-1.22,4.09,4.09,0,0,1,1.9-.43,3.45,3.45,0,0,1,2.9,1.37,5.81,5.81,0,0,1,1,3.64v.19a5.15,5.15,0,0,1-1,3.4,3.53,3.53,0,0,1-2.88,1.27,4.46,4.46,0,0,1-1.89-.38,3.43,3.43,0,0,1-1.32-1.09v4.05L557,145v.78h-4.22V145l1.55-.11V133.46Zm8.67,4.05a5.21,5.21,0,0,0-.77-3,2.59,2.59,0,0,0-2.28-1.14,3.23,3.23,0,0,0-1.87.5,3.14,3.14,0,0,0-1.07,1.32v4.57a2.89,2.89,0,0,0,1.12,1.23,3.46,3.46,0,0,0,1.84.44,2.65,2.65,0,0,0,2.26-1,4.46,4.46,0,0,0,.77-2.75Z" transform="translate(0 -1.97)"/><path class="cls-3" d="M569,142.26a4.27,4.27,0,0,1-3.21-1.31,4.61,4.61,0,0,1-1.27-3.35v-.48a4.7,4.7,0,0,1,1.27-3.38,4,4,0,0,1,3.06-1.35,4,4,0,0,1,3,1.11,4,4,0,0,1,1.08,2.95v.9H565.6v.25a4,4,0,0,0,.93,2.69,3,3,0,0,0,2.42,1.08,5.33,5.33,0,0,0,1.8-.27,3.66,3.66,0,0,0,1.29-.78l.48.72a4.09,4.09,0,0,1-1.46.89A6,6,0,0,1,569,142.26Zm-.15-9a2.82,2.82,0,0,0-2.11.89,3.63,3.63,0,0,0-1,2.24l0,0h6v-.26a2.94,2.94,0,0,0-.78-2.08A2.83,2.83,0,0,0,568.8,133.29Z" transform="translate(0 -1.97)"/><path class="cls-3" d="M574.67,141.3l1.55-.11v-7.73l-1.55-.11v-.78h2.56l.1,1.66a3.44,3.44,0,0,1,1.34-1.36,3.92,3.92,0,0,1,2-.48,3.31,3.31,0,0,1,2.55,1,4.24,4.24,0,0,1,.87,2.95v4.9l1.55.11v.78h-4.24v-.78l1.55-.11v-4.9a3.25,3.25,0,0,0-.66-2.31,2.49,2.49,0,0,0-1.87-.67,3.08,3.08,0,0,0-1.95.58,3.21,3.21,0,0,0-1.09,1.55v5.75l1.55.11v.78h-4.24Z" transform="translate(0 -1.97)"/><path class="cls-3" d="M594.49,142.08c-.07-.32-.13-.6-.16-.84a5.52,5.52,0,0,1-.05-.71,4.38,4.38,0,0,1-1.52,1.24,4.52,4.52,0,0,1-2.13.49,3.45,3.45,0,0,1-2.34-.72,2.45,2.45,0,0,1-.82-1.95,2.37,2.37,0,0,1,1.22-2.09,6.16,6.16,0,0,1,3.32-.77h2.27v-1.26a2,2,0,0,0-.7-1.6,3.05,3.05,0,0,0-2-.58,5.45,5.45,0,0,0-1.56.21,3.68,3.68,0,0,0-1.19.59l-.09,1.27h-.94v-1.82a6,6,0,0,1,1.7-.83,7,7,0,0,1,2.11-.32,4.37,4.37,0,0,1,2.74.8,2.74,2.74,0,0,1,1,2.3v4.67c0,.2,0,.38,0,.56a4.35,4.35,0,0,0,.06.52l1,.06v.78Zm-3.74-.75a4.32,4.32,0,0,0,2.18-.53,3.21,3.21,0,0,0,1.35-1.36v-1.91H592a4.51,4.51,0,0,0-2.48.6,1.74,1.74,0,0,0-.92,1.5,1.51,1.51,0,0,0,.57,1.23A2.44,2.44,0,0,0,590.75,141.33Z" transform="translate(0 -1.97)"/><path class="cls-3" d="M605.58,135.5h-.93l-.14-1.34a2.78,2.78,0,0,0-1.07-.64,4.63,4.63,0,0,0-1.5-.23,2.87,2.87,0,0,0-1.86.5,1.44,1.44,0,0,0-.63,1.16A1.34,1.34,0,0,0,600,136a5.47,5.47,0,0,0,2.14.76,7.16,7.16,0,0,1,2.74,1,2.08,2.08,0,0,1,.92,1.78,2.26,2.26,0,0,1-1,1.92,4.68,4.68,0,0,1-2.75.73,7.16,7.16,0,0,1-2.08-.29,5.21,5.21,0,0,1-1.61-.83v-1.92h.92l.16,1.36a2.76,2.76,0,0,0,1.15.61,5.84,5.84,0,0,0,1.46.18,3.26,3.26,0,0,0,1.94-.5,1.44,1.44,0,0,0,.72-1.21,1.51,1.51,0,0,0-.6-1.17,5.17,5.17,0,0,0-2.14-.82,7.67,7.67,0,0,1-2.72-1,2,2,0,0,1-.88-1.71,2.25,2.25,0,0,1,1-1.85,4.27,4.27,0,0,1,2.63-.75,6.51,6.51,0,0,1,2.07.32,4.37,4.37,0,0,1,1.52.87Z" transform="translate(0 -1.97)"/><path class="cls-3" d="M620.13,140.51a3.46,3.46,0,0,1-1.33,1.3,4.13,4.13,0,0,1-2,.45,3.26,3.26,0,0,1-2.54-1,4.62,4.62,0,0,1-.91-3.16v-4.62l-1.27-.11v-.78h2.4v5.53a3.82,3.82,0,0,0,.64,2.49,2.24,2.24,0,0,0,1.82.76,3.56,3.56,0,0,0,2-.53,2.81,2.81,0,0,0,1.08-1.46v-5.9l-1.46-.11v-.78h2.6v8.62l1.37.11v.78h-2.37Z" transform="translate(0 -1.97)"/><path class="cls-3" d="M624,133.35v-.78h2.55l.11,1.57a3.32,3.32,0,0,1,1.31-1.29,4,4,0,0,1,2-.46,3.45,3.45,0,0,1,2,.53,2.9,2.9,0,0,1,1.13,1.63,3.69,3.69,0,0,1,1.33-1.58,3.62,3.62,0,0,1,2.09-.58,3.24,3.24,0,0,1,2.54,1,4.62,4.62,0,0,1,.9,3.13v4.65l1.54.12v.78h-4.24v-.78l1.55-.12v-4.67a3.68,3.68,0,0,0-.67-2.48,2.43,2.43,0,0,0-1.87-.72,2.64,2.64,0,0,0-2,.78,3.58,3.58,0,0,0-.89,2,.66.66,0,0,0,0,.14v5l1.55.11v.78h-4.24v-.78l1.55-.11v-4.68a3.62,3.62,0,0,0-.68-2.46,2.37,2.37,0,0,0-1.86-.74,3,3,0,0,0-1.92.56,3,3,0,0,0-1,1.53v5.79l1.55.11v.78H624v-.78l1.54-.11v-7.73Z" transform="translate(0 -1.97)"/><path class="cls-3" d="M215.91,155v-.78h2.5l.14,1.47a3.7,3.7,0,0,1,1.33-1.22,4.11,4.11,0,0,1,1.91-.43,3.44,3.44,0,0,1,2.89,1.37,5.81,5.81,0,0,1,1,3.64v.19a5.15,5.15,0,0,1-1,3.4,3.53,3.53,0,0,1-2.88,1.27,4.46,4.46,0,0,1-1.89-.38,3.43,3.43,0,0,1-1.32-1.09v4.05l1.54.11v.78h-4.22v-.78l1.55-.11V155.06Zm8.67,4.05a5.11,5.11,0,0,0-.77-2.95,2.59,2.59,0,0,0-2.28-1.14,2.94,2.94,0,0,0-2.94,1.82v4.57a3,3,0,0,0,1.12,1.23,3.46,3.46,0,0,0,1.84.44,2.64,2.64,0,0,0,2.26-1,4.46,4.46,0,0,0,.77-2.75Z" transform="translate(0 -1.97)"/><path class="cls-3" d="M230,154.17l.15,1.58v.11a3.39,3.39,0,0,1,1.19-1.37,3.19,3.19,0,0,1,1.79-.5,3,3,0,0,1,.42,0l.33.07-.15,1-.84,0a2.71,2.71,0,0,0-1.76.56,3,3,0,0,0-1,1.53v5.68l1.54.11v.78H227.5v-.78l1.55-.11v-7.73L227.5,155v-.78H230Z" transform="translate(0 -1.97)"/><path class="cls-3" d="M235.2,158.78a4.84,4.84,0,0,1,1.24-3.44,4.71,4.71,0,0,1,6.6,0,4.89,4.89,0,0,1,1.24,3.44v.29a4.85,4.85,0,0,1-1.24,3.45,4.73,4.73,0,0,1-6.6,0,4.85,4.85,0,0,1-1.24-3.45Zm1.13.29a4.27,4.27,0,0,0,.91,2.78,3.35,3.35,0,0,0,5,0,4.32,4.32,0,0,0,.9-2.78v-.29a4.27,4.27,0,0,0-.91-2.76,3.32,3.32,0,0,0-5,0,4.27,4.27,0,0,0-.91,2.76Z" transform="translate(0 -1.97)"/><path class="cls-3" d="M245.83,155v-.78h2.49l.14,1.47a3.73,3.73,0,0,1,1.34-1.22,4.07,4.07,0,0,1,1.9-.43,3.45,3.45,0,0,1,2.9,1.37,5.87,5.87,0,0,1,1,3.64v.19a5.21,5.21,0,0,1-1,3.4,3.53,3.53,0,0,1-2.88,1.27,4.46,4.46,0,0,1-1.89-.38,3.46,3.46,0,0,1-1.33-1.09v4.05l1.55.11v.78h-4.22v-.78l1.54-.11V155.06ZM254.5,159a5.11,5.11,0,0,0-.78-2.95,2.59,2.59,0,0,0-2.28-1.14,3.22,3.22,0,0,0-1.86.5,3.16,3.16,0,0,0-1.08,1.32v4.57a3,3,0,0,0,1.13,1.23,3.45,3.45,0,0,0,1.83.44,2.66,2.66,0,0,0,2.27-1,4.53,4.53,0,0,0,.77-2.75Z" transform="translate(0 -1.97)"/><path class="cls-3" d="M257.49,158.78a4.84,4.84,0,0,1,1.24-3.44,4.71,4.71,0,0,1,6.6,0,4.84,4.84,0,0,1,1.24,3.44v.29a4.85,4.85,0,0,1-1.24,3.45,4.22,4.22,0,0,1-3.28,1.34,4.3,4.3,0,0,1-3.32-1.34,4.85,4.85,0,0,1-1.24-3.45Zm1.14.29a4.32,4.32,0,0,0,.9,2.78,3,3,0,0,0,2.52,1.12,3,3,0,0,0,2.48-1.12,4.32,4.32,0,0,0,.9-2.78v-.29a4.32,4.32,0,0,0-.9-2.76,3.33,3.33,0,0,0-5,0,4.32,4.32,0,0,0-.9,2.76Zm4.46-8.52h1.4l0,0-2.36,2.28h-1Z" transform="translate(0 -1.97)"/><path class="cls-3" d="M275.87,157.1h-.93l-.13-1.34a2.75,2.75,0,0,0-1.08-.64,4.28,4.28,0,0,0-1.49-.23,3,3,0,0,0-1.87.49,1.49,1.49,0,0,0-.62,1.17,1.34,1.34,0,0,0,.54,1.09,5.47,5.47,0,0,0,2.14.76,7.16,7.16,0,0,1,2.74,1,2.08,2.08,0,0,1,.91,1.78,2.24,2.24,0,0,1-1,1.92,4.63,4.63,0,0,1-2.74.73,7.16,7.16,0,0,1-2.08-.29,5.38,5.38,0,0,1-1.62-.83v-1.92h.93l.16,1.35a2.61,2.61,0,0,0,1.15.62,5.84,5.84,0,0,0,1.46.18,3.26,3.26,0,0,0,1.94-.5,1.43,1.43,0,0,0,.71-1.21,1.5,1.5,0,0,0-.59-1.17,5.17,5.17,0,0,0-2.14-.82,7.39,7.39,0,0,1-2.72-1,2,2,0,0,1-.89-1.71,2.26,2.26,0,0,1,1-1.84,4.27,4.27,0,0,1,2.63-.75,6.4,6.4,0,0,1,2.06.32,4.33,4.33,0,0,1,1.53.87Z" transform="translate(0 -1.97)"/><path class="cls-3" d="M278.08,162.9l1.54-.11v-7.73l-1.54-.11v-.78h2.67v8.62l1.55.11v.78h-4.22Zm2.67-11.46h-1.13V150h1.13Z" transform="translate(0 -1.97)"/><path class="cls-3" d="M286.82,151.73v2.44h2.26V155h-2.26v6.2a1.93,1.93,0,0,0,.36,1.32,1.29,1.29,0,0,0,1,.39l.53,0,.61-.08.17.78a2.84,2.84,0,0,1-.7.18,5.52,5.52,0,0,1-.81.06,2.23,2.23,0,0,1-1.69-.63,2.83,2.83,0,0,1-.6-2V155H283.9v-.86h1.77v-2.44Z" transform="translate(0 -1.97)"/><path class="cls-3" d="M291,158.78a4.84,4.84,0,0,1,1.24-3.44,4.71,4.71,0,0,1,6.6,0,4.89,4.89,0,0,1,1.24,3.44v.29a4.85,4.85,0,0,1-1.24,3.45,4.73,4.73,0,0,1-6.6,0,4.85,4.85,0,0,1-1.24-3.45Zm1.13.29a4.27,4.27,0,0,0,.91,2.78,3.35,3.35,0,0,0,5,0,4.32,4.32,0,0,0,.9-2.78v-.29A4.27,4.27,0,0,0,298,156a3.32,3.32,0,0,0-5,0,4.27,4.27,0,0,0-.91,2.76Z" transform="translate(0 -1.97)"/><path class="cls-3" d="M303.56,163.26a3.89,3.89,0,0,1-.35,1.58,4,4,0,0,1-1,1.31l-.67-.46a4.39,4.39,0,0,0,.66-1.15,3.64,3.64,0,0,0,.21-1.27V162h1.13Z" transform="translate(0 -1.97)"/><path class="cls-3" d="M317.49,162.31a3.49,3.49,0,0,1-1.32,1.15,4.15,4.15,0,0,1-1.89.4,3.5,3.5,0,0,1-2.88-1.27,5.19,5.19,0,0,1-1-3.4V159a5.81,5.81,0,0,1,1-3.64,3.44,3.44,0,0,1,2.9-1.37,3.93,3.93,0,0,1,1.86.42,3.63,3.63,0,0,1,1.31,1.19v-4.74l-1.55-.11V150h2.68v12.82l1.55.11v.78h-2.56Zm-6-3.12a4.54,4.54,0,0,0,.75,2.74,2.61,2.61,0,0,0,2.24,1,3.36,3.36,0,0,0,1.83-.46,3.12,3.12,0,0,0,1.15-1.26v-4.5a3.41,3.41,0,0,0-1.1-1.31,3.15,3.15,0,0,0-1.86-.51,2.53,2.53,0,0,0-2.25,1.13,5.3,5.3,0,0,0-.76,3Z" transform="translate(0 -1.97)"/><path class="cls-3" d="M326.43,163.86a4.3,4.3,0,0,1-3.21-1.31A4.61,4.61,0,0,1,322,159.2v-.48a4.73,4.73,0,0,1,1.26-3.38,4.06,4.06,0,0,1,3.06-1.35,4,4,0,0,1,3,1.11,4,4,0,0,1,1.08,3v.9h-7.25v.25a4,4,0,0,0,.92,2.69,3.05,3.05,0,0,0,2.43,1.08,5.33,5.33,0,0,0,1.8-.27,3.53,3.53,0,0,0,1.28-.78l.48.72a4,4,0,0,1-1.46.89A6,6,0,0,1,326.43,163.86Zm-.16-9a2.83,2.83,0,0,0-2.11.89,3.74,3.74,0,0,0-1,2.24l0,0h6v-.26a2.94,2.94,0,0,0-.79-2.08A2.83,2.83,0,0,0,326.27,154.89Z" transform="translate(0 -1.97)"/><path class="cls-3" d="M336.84,155v-.78h2.55l.11,1.57a3.32,3.32,0,0,1,1.31-1.29,4,4,0,0,1,2-.46,3.45,3.45,0,0,1,2,.53,2.9,2.9,0,0,1,1.13,1.63,3.69,3.69,0,0,1,1.33-1.58,3.62,3.62,0,0,1,2.09-.58,3.24,3.24,0,0,1,2.54,1,4.62,4.62,0,0,1,.9,3.13v4.65l1.54.12v.78H350v-.78l1.55-.12v-4.67a3.68,3.68,0,0,0-.67-2.48,2.43,2.43,0,0,0-1.87-.72,2.64,2.64,0,0,0-2,.78,3.55,3.55,0,0,0-.89,2,.66.66,0,0,0,0,.14v5l1.55.11v.78h-4.24v-.78l1.55-.11v-4.68a3.62,3.62,0,0,0-.68-2.46,2.37,2.37,0,0,0-1.86-.74,3,3,0,0,0-1.92.56,3,3,0,0,0-1,1.53v5.79l1.55.11v.78h-4.23v-.78l1.54-.11v-7.73Z" transform="translate(0 -1.97)"/><path class="cls-3" d="M355.58,158.78a4.85,4.85,0,0,1,1.25-3.44,4.7,4.7,0,0,1,6.59,0,4.85,4.85,0,0,1,1.25,3.44v.29a4.9,4.9,0,0,1-1.24,3.45,4.73,4.73,0,0,1-6.6,0,4.86,4.86,0,0,1-1.25-3.45Zm1.14.29a4.32,4.32,0,0,0,.9,2.78,3.05,3.05,0,0,0,2.52,1.12,3,3,0,0,0,2.49-1.12,4.32,4.32,0,0,0,.9-2.78v-.29a4.27,4.27,0,0,0-.91-2.76,3.33,3.33,0,0,0-5,0,4.32,4.32,0,0,0-.9,2.76Z" transform="translate(0 -1.97)"/><path class="cls-3" d="M373.65,162.31a3.49,3.49,0,0,1-1.32,1.15,4.15,4.15,0,0,1-1.89.4,3.5,3.5,0,0,1-2.88-1.27,5.19,5.19,0,0,1-1-3.4V159a5.81,5.81,0,0,1,1-3.64,3.44,3.44,0,0,1,2.9-1.37,3.93,3.93,0,0,1,1.86.42,3.63,3.63,0,0,1,1.31,1.19v-4.74l-1.55-.11V150h2.69v12.82l1.54.11v.78h-2.56Zm-6-3.12a4.54,4.54,0,0,0,.74,2.74,2.59,2.59,0,0,0,2.24,1,3.36,3.36,0,0,0,1.83-.46,3.12,3.12,0,0,0,1.15-1.26v-4.5a3.41,3.41,0,0,0-1.1-1.31,3.15,3.15,0,0,0-1.86-.51,2.53,2.53,0,0,0-2.25,1.13,5.3,5.3,0,0,0-.75,3Z" transform="translate(0 -1.97)"/><path class="cls-3" d="M378.06,158.78a4.84,4.84,0,0,1,1.24-3.44,4.71,4.71,0,0,1,6.6,0,4.84,4.84,0,0,1,1.24,3.44v.29a4.85,4.85,0,0,1-1.24,3.45,4.23,4.23,0,0,1-3.29,1.34,4.27,4.27,0,0,1-3.31-1.34,4.85,4.85,0,0,1-1.24-3.45Zm1.14.29a4.32,4.32,0,0,0,.9,2.78,3.35,3.35,0,0,0,5,0,4.32,4.32,0,0,0,.9-2.78v-.29a4.32,4.32,0,0,0-.9-2.76,3.06,3.06,0,0,0-2.51-1.13A3,3,0,0,0,380.1,156a4.32,4.32,0,0,0-.9,2.76Z" transform="translate(0 -1.97)"/><path class="cls-3" d="M393.72,159a5.81,5.81,0,0,1,1-3.64,3.44,3.44,0,0,1,2.9-1.37,3.93,3.93,0,0,1,1.84.41,3.57,3.57,0,0,1,1.31,1.17l.11-1.4h1v12.27l1.55.11v.78h-4.24v-.78l1.55-.11v-4a3.46,3.46,0,0,1-1.31,1.06,4.24,4.24,0,0,1-1.83.37,3.5,3.5,0,0,1-2.88-1.27,5.19,5.19,0,0,1-1-3.4Zm1.15.19a4.59,4.59,0,0,0,.74,2.75,2.59,2.59,0,0,0,2.25,1,3.31,3.31,0,0,0,1.78-.44,3,3,0,0,0,1.14-1.22v-4.64a3.52,3.52,0,0,0-1.11-1.28,3.05,3.05,0,0,0-1.79-.5,2.52,2.52,0,0,0-2.26,1.15,5.3,5.3,0,0,0-.75,3Z" transform="translate(0 -1.97)"/><path class="cls-3" d="M412.12,162.11a3.37,3.37,0,0,1-1.32,1.3,4.13,4.13,0,0,1-2,.45,3.24,3.24,0,0,1-2.54-1,4.62,4.62,0,0,1-.92-3.16v-4.62l-1.27-.11v-.78h2.4v5.53a3.88,3.88,0,0,0,.64,2.49A2.25,2.25,0,0,0,409,163a3.59,3.59,0,0,0,2.06-.53,2.74,2.74,0,0,0,1.07-1.46v-5.9l-1.46-.11v-.78h2.6v8.62l1.38.11v.78h-2.37Z" transform="translate(0 -1.97)"/><path class="cls-3" d="M420.8,163.86a4.3,4.3,0,0,1-3.21-1.31,4.61,4.61,0,0,1-1.27-3.35v-.48a4.73,4.73,0,0,1,1.26-3.38,4.06,4.06,0,0,1,3.06-1.35,4,4,0,0,1,3,1.11,4,4,0,0,1,1.08,3v.9h-7.25v.25a4,4,0,0,0,.92,2.69A3.05,3.05,0,0,0,420.8,163a5.33,5.33,0,0,0,1.8-.27,3.53,3.53,0,0,0,1.28-.78l.49.72a4.13,4.13,0,0,1-1.47.89A6,6,0,0,1,420.8,163.86Zm-.16-9a2.85,2.85,0,0,0-2.11.89,3.74,3.74,0,0,0-1,2.24l0,0h6v-.26a2.9,2.9,0,0,0-.79-2.08A2.82,2.82,0,0,0,420.64,154.89Z" transform="translate(0 -1.97)"/><path class="cls-3" d="M438.59,162.31a3.49,3.49,0,0,1-1.32,1.15,4.15,4.15,0,0,1-1.89.4,3.53,3.53,0,0,1-2.89-1.27,5.24,5.24,0,0,1-1-3.4V159a5.87,5.87,0,0,1,1-3.64,3.45,3.45,0,0,1,2.9-1.37,3.87,3.87,0,0,1,1.86.42,3.48,3.48,0,0,1,1.31,1.19v-4.74l-1.54-.11V150h2.68v12.82l1.55.11v.78h-2.56Zm-6-3.12a4.54,4.54,0,0,0,.75,2.74,2.59,2.59,0,0,0,2.24,1,3.36,3.36,0,0,0,1.83-.46,3,3,0,0,0,1.14-1.26v-4.5a3.3,3.3,0,0,0-1.09-1.31,3.15,3.15,0,0,0-1.86-.51,2.53,2.53,0,0,0-2.25,1.13,5.22,5.22,0,0,0-.76,3Z" transform="translate(0 -1.97)"/><path class="cls-3" d="M447.52,163.86a4.27,4.27,0,0,1-3.2-1.31A4.62,4.62,0,0,1,443,159.2v-.48a4.74,4.74,0,0,1,1.27-3.38,4.06,4.06,0,0,1,3.06-1.35,4,4,0,0,1,3,1.11,4,4,0,0,1,1.08,3v.9h-7.25v.25a4,4,0,0,0,.93,2.69,3,3,0,0,0,2.42,1.08,5.35,5.35,0,0,0,1.81-.27,3.61,3.61,0,0,0,1.28-.78l.48.72a4,4,0,0,1-1.46.89A6,6,0,0,1,447.52,163.86Zm-.15-9a2.83,2.83,0,0,0-2.11.89,3.68,3.68,0,0,0-1,2.24l0,0h6v-.26a2.94,2.94,0,0,0-.79-2.08A2.83,2.83,0,0,0,447.37,154.89Z" transform="translate(0 -1.97)"/><path class="cls-3" d="M453.15,155v-.78h2.5l.14,1.47a3.7,3.7,0,0,1,1.33-1.22A4.11,4.11,0,0,1,459,154a3.43,3.43,0,0,1,2.89,1.37A5.81,5.81,0,0,1,463,159v.19a5.16,5.16,0,0,1-1.05,3.4,3.49,3.49,0,0,1-2.87,1.27,4.47,4.47,0,0,1-1.9-.38,3.43,3.43,0,0,1-1.32-1.09v4.05l1.55.11v.78h-4.23v-.78l1.55-.11V155.06Zm8.68,4.05a5.11,5.11,0,0,0-.78-2.95,2.59,2.59,0,0,0-2.28-1.14,3,3,0,0,0-2.94,1.82v4.57a3,3,0,0,0,1.12,1.23,3.48,3.48,0,0,0,1.84.44,2.64,2.64,0,0,0,2.26-1,4.46,4.46,0,0,0,.78-2.75Z" transform="translate(0 -1.97)"/><path class="cls-3" d="M464.82,158.78a4.84,4.84,0,0,1,1.24-3.44,4.71,4.71,0,0,1,6.6,0,4.89,4.89,0,0,1,1.24,3.44v.29a4.85,4.85,0,0,1-1.24,3.45,4.23,4.23,0,0,1-3.29,1.34,4.27,4.27,0,0,1-3.31-1.34,4.85,4.85,0,0,1-1.24-3.45Zm1.14.29a4.32,4.32,0,0,0,.9,2.78,3.35,3.35,0,0,0,5,0,4.32,4.32,0,0,0,.9-2.78v-.29a4.27,4.27,0,0,0-.91-2.76,3.32,3.32,0,0,0-5,0,4.32,4.32,0,0,0-.9,2.76Z" transform="translate(0 -1.97)"/><path class="cls-3" d="M475.67,162.9l1.55-.11v-7.73l-1.55-.11v-.78h2.68v8.62l1.55.11v.78h-4.23Zm2.68-11.46h-1.13V150h1.13Z" transform="translate(0 -1.97)"/><path class="cls-3" d="M489.26,157.1h-.93l-.14-1.34a2.78,2.78,0,0,0-1.07-.64,4.38,4.38,0,0,0-1.5-.23,2.93,2.93,0,0,0-1.86.49,1.47,1.47,0,0,0-.63,1.17,1.34,1.34,0,0,0,.54,1.09,5.47,5.47,0,0,0,2.14.76,7.16,7.16,0,0,1,2.74,1,2.08,2.08,0,0,1,.92,1.78,2.26,2.26,0,0,1-1,1.92,4.68,4.68,0,0,1-2.75.73,7.16,7.16,0,0,1-2.08-.29,5.21,5.21,0,0,1-1.61-.83v-1.92h.92l.16,1.35a2.66,2.66,0,0,0,1.15.62,5.84,5.84,0,0,0,1.46.18,3.26,3.26,0,0,0,1.94-.5,1.44,1.44,0,0,0,.72-1.21,1.51,1.51,0,0,0-.6-1.17,5.17,5.17,0,0,0-2.14-.82,7.46,7.46,0,0,1-2.72-1,1.94,1.94,0,0,1-.88-1.71,2.25,2.25,0,0,1,1-1.84,4.27,4.27,0,0,1,2.63-.75,6.51,6.51,0,0,1,2.07.32,4.37,4.37,0,0,1,1.52.87Z" transform="translate(0 -1.97)"/><path class="cls-3" d="M496,155v-.78h2.49l.15,1.47a3.62,3.62,0,0,1,1.33-1.22,4.07,4.07,0,0,1,1.9-.43,3.45,3.45,0,0,1,2.9,1.37,5.87,5.87,0,0,1,1,3.64v.19a5.21,5.21,0,0,1-1,3.4,3.53,3.53,0,0,1-2.88,1.27,4.46,4.46,0,0,1-1.89-.38,3.54,3.54,0,0,1-1.33-1.09v4.05l1.55.11v.78H496v-.78l1.54-.11V155.06Zm8.67,4.05a5.11,5.11,0,0,0-.78-2.95,2.56,2.56,0,0,0-2.27-1.14,3.23,3.23,0,0,0-1.87.5,3.16,3.16,0,0,0-1.08,1.32v4.57a3,3,0,0,0,1.13,1.23,3.46,3.46,0,0,0,1.84.44,2.65,2.65,0,0,0,2.26-1,4.53,4.53,0,0,0,.77-2.75Z" transform="translate(0 -1.97)"/><path class="cls-3" d="M507.62,158.78a4.85,4.85,0,0,1,1.25-3.44,4.7,4.7,0,0,1,6.59,0,4.85,4.85,0,0,1,1.25,3.44v.29a4.9,4.9,0,0,1-1.24,3.45,4.73,4.73,0,0,1-6.6,0,4.86,4.86,0,0,1-1.25-3.45Zm1.14.29a4.32,4.32,0,0,0,.9,2.78,3,3,0,0,0,2.52,1.12,3,3,0,0,0,2.48-1.12,4.27,4.27,0,0,0,.91-2.78v-.29a4.32,4.32,0,0,0-.91-2.76,3.33,3.33,0,0,0-5,0,4.32,4.32,0,0,0-.9,2.76Z" transform="translate(0 -1.97)"/><path class="cls-3" d="M526,157.1h-.93l-.14-1.34a2.78,2.78,0,0,0-1.07-.64,4.38,4.38,0,0,0-1.5-.23,2.93,2.93,0,0,0-1.86.49,1.47,1.47,0,0,0-.63,1.17,1.34,1.34,0,0,0,.54,1.09,5.47,5.47,0,0,0,2.14.76,7.16,7.16,0,0,1,2.74,1,2.08,2.08,0,0,1,.92,1.78,2.26,2.26,0,0,1-1,1.92,4.68,4.68,0,0,1-2.75.73,7.16,7.16,0,0,1-2.08-.29,5.21,5.21,0,0,1-1.61-.83v-1.92h.92l.16,1.35a2.66,2.66,0,0,0,1.15.62,5.84,5.84,0,0,0,1.46.18,3.26,3.26,0,0,0,1.94-.5,1.44,1.44,0,0,0,.72-1.21,1.51,1.51,0,0,0-.6-1.17,5.17,5.17,0,0,0-2.14-.82,7.46,7.46,0,0,1-2.72-1,1.94,1.94,0,0,1-.88-1.71,2.25,2.25,0,0,1,1-1.84,4.27,4.27,0,0,1,2.63-.75,6.51,6.51,0,0,1,2.07.32,4.37,4.37,0,0,1,1.52.87Z" transform="translate(0 -1.97)"/><path class="cls-3" d="M535.73,157.1h-.92l-.14-1.34a2.78,2.78,0,0,0-1.07-.64,4.38,4.38,0,0,0-1.5-.23,3,3,0,0,0-1.87.49,1.49,1.49,0,0,0-.62,1.17,1.34,1.34,0,0,0,.54,1.09,5.47,5.47,0,0,0,2.14.76,7.16,7.16,0,0,1,2.74,1,2.08,2.08,0,0,1,.91,1.78,2.24,2.24,0,0,1-1,1.92,4.63,4.63,0,0,1-2.74.73,7.16,7.16,0,0,1-2.08-.29,5.38,5.38,0,0,1-1.62-.83v-1.92h.93l.16,1.35a2.61,2.61,0,0,0,1.15.62,5.78,5.78,0,0,0,1.46.18,3.26,3.26,0,0,0,1.94-.5,1.43,1.43,0,0,0,.71-1.21,1.5,1.5,0,0,0-.59-1.17,5.17,5.17,0,0,0-2.14-.82,7.39,7.39,0,0,1-2.72-1,2,2,0,0,1-.89-1.71,2.26,2.26,0,0,1,1-1.84,4.27,4.27,0,0,1,2.63-.75,6.4,6.4,0,0,1,2.06.32,4.33,4.33,0,0,1,1.53.87Z" transform="translate(0 -1.97)"/><path class="cls-3" d="M545.1,163.68c-.07-.32-.13-.6-.16-.84a5.52,5.52,0,0,1-.05-.71,4.44,4.44,0,0,1-1.51,1.24,4.59,4.59,0,0,1-2.14.49,3.47,3.47,0,0,1-2.34-.72,2.45,2.45,0,0,1-.82-1.95,2.37,2.37,0,0,1,1.22-2.09,6.17,6.17,0,0,1,3.33-.77h2.26v-1.26a2,2,0,0,0-.7-1.6,3,3,0,0,0-2-.58,5.45,5.45,0,0,0-1.56.21,3.62,3.62,0,0,0-1.18.59l-.1,1.27h-.94v-1.83a6,6,0,0,1,1.7-.82,7,7,0,0,1,2.12-.32,4.36,4.36,0,0,1,2.73.8,2.74,2.74,0,0,1,1,2.3v4.67c0,.19,0,.38,0,.56a4.35,4.35,0,0,0,.06.52l1,.06v.78Zm-3.74-.75a4.4,4.4,0,0,0,2.18-.53,3.16,3.16,0,0,0,1.35-1.36v-1.91h-2.28a4.53,4.53,0,0,0-2.48.6,1.74,1.74,0,0,0-.92,1.5,1.51,1.51,0,0,0,.57,1.23A2.46,2.46,0,0,0,541.36,162.93Z" transform="translate(0 -1.97)"/><path class="cls-3" d="M548.49,155v-.78H551l.11,1.57a3.41,3.41,0,0,1,1.32-1.29,3.92,3.92,0,0,1,2-.46,3.49,3.49,0,0,1,2,.53,3,3,0,0,1,1.13,1.63,3.74,3.74,0,0,1,1.32-1.58,3.62,3.62,0,0,1,2.09-.58,3.23,3.23,0,0,1,2.54,1,4.62,4.62,0,0,1,.9,3.13v4.65l1.55.12v.78h-4.25v-.78l1.55-.12v-4.67a3.63,3.63,0,0,0-.67-2.48,2.41,2.41,0,0,0-1.86-.72,2.65,2.65,0,0,0-2.05.78,3.62,3.62,0,0,0-.89,2s0,.09,0,.14v5l1.55.11v.78h-4.23v-.78l1.54-.11v-4.68a3.62,3.62,0,0,0-.67-2.46,2.4,2.4,0,0,0-1.87-.74,2.74,2.74,0,0,0-2.91,2.09v5.79l1.54.11v.78h-4.23v-.78l1.55-.11v-7.73Z" transform="translate(0 -1.97)"/><path class="cls-3" d="M567.24,158.78a4.84,4.84,0,0,1,1.24-3.44,4.71,4.71,0,0,1,6.6,0,4.89,4.89,0,0,1,1.24,3.44v.29a4.85,4.85,0,0,1-1.24,3.45,4.23,4.23,0,0,1-3.29,1.34,4.27,4.27,0,0,1-3.31-1.34,4.85,4.85,0,0,1-1.24-3.45Zm1.14.29a4.32,4.32,0,0,0,.9,2.78,3.35,3.35,0,0,0,5,0,4.32,4.32,0,0,0,.9-2.78v-.29a4.27,4.27,0,0,0-.91-2.76,3.32,3.32,0,0,0-5,0,4.32,4.32,0,0,0-.9,2.76Z" transform="translate(0 -1.97)"/><path class="cls-3" d="M585.62,157.1h-.93l-.13-1.34a2.9,2.9,0,0,0-1.08-.64,4.28,4.28,0,0,0-1.49-.23,3,3,0,0,0-1.87.49,1.49,1.49,0,0,0-.62,1.17,1.34,1.34,0,0,0,.54,1.09,5.4,5.4,0,0,0,2.14.76,7.23,7.23,0,0,1,2.74,1,2.08,2.08,0,0,1,.91,1.78,2.26,2.26,0,0,1-1,1.92,4.66,4.66,0,0,1-2.75.73,7,7,0,0,1-2.07-.29,5.38,5.38,0,0,1-1.62-.83v-1.92h.92l.16,1.35a2.7,2.7,0,0,0,1.16.62A5.76,5.76,0,0,0,582,163a3.32,3.32,0,0,0,2-.5,1.45,1.45,0,0,0,.71-1.21,1.53,1.53,0,0,0-.59-1.17,5.23,5.23,0,0,0-2.14-.82,7.39,7.39,0,0,1-2.72-1,2,2,0,0,1-.89-1.71,2.23,2.23,0,0,1,1-1.84A4.25,4.25,0,0,1,582,154a6.4,6.4,0,0,1,2.06.32,4.37,4.37,0,0,1,1.52.87Z" transform="translate(0 -1.97)"/><path class="cls-3" d="M597,163a3.38,3.38,0,0,0,2-.59,1.92,1.92,0,0,0,.87-1.66h1l0,.05a2.52,2.52,0,0,1-1.13,2.2,4.42,4.42,0,0,1-2.75.89,4.05,4.05,0,0,1-3.24-1.33,5.08,5.08,0,0,1-1.14-3.42v-.37a5.07,5.07,0,0,1,1.14-3.41A4,4,0,0,1,597,154a5.45,5.45,0,0,1,2.17.42,4.23,4.23,0,0,1,1.61,1.12l.05,2.07h-1l-.18-1.68a3.15,3.15,0,0,0-1.14-.75,3.92,3.92,0,0,0-1.54-.28,2.8,2.8,0,0,0-2.44,1.09,4.58,4.58,0,0,0-.8,2.76v.37a4.63,4.63,0,0,0,.79,2.77A2.83,2.83,0,0,0,597,163Z" transform="translate(0 -1.97)"/><path class="cls-3" d="M603,158.78a4.84,4.84,0,0,1,1.24-3.44,4.71,4.71,0,0,1,6.6,0,4.84,4.84,0,0,1,1.24,3.44v.29a4.85,4.85,0,0,1-1.24,3.45,4.23,4.23,0,0,1-3.29,1.34,4.29,4.29,0,0,1-3.31-1.34,4.85,4.85,0,0,1-1.24-3.45Zm1.14.29a4.32,4.32,0,0,0,.9,2.78,3.35,3.35,0,0,0,5,0,4.32,4.32,0,0,0,.9-2.78v-.29a4.32,4.32,0,0,0-.9-2.76,3.33,3.33,0,0,0-5,0,4.32,4.32,0,0,0-.9,2.76Z" transform="translate(0 -1.97)"/><path class="cls-3" d="M613.7,155v-.78h2.55l.1,1.57a3.41,3.41,0,0,1,1.32-1.29,4,4,0,0,1,2-.46,3.45,3.45,0,0,1,2,.53,3,3,0,0,1,1.13,1.63,3.69,3.69,0,0,1,1.33-1.58,3.62,3.62,0,0,1,2.09-.58,3.24,3.24,0,0,1,2.54,1,4.62,4.62,0,0,1,.89,3.13v4.65l1.55.12v.78h-4.24v-.78l1.55-.12v-4.67a3.68,3.68,0,0,0-.67-2.48,2.43,2.43,0,0,0-1.87-.72,2.62,2.62,0,0,0-2,.78,3.55,3.55,0,0,0-.89,2v.14a.66.66,0,0,1,0,.15v4.82l1.54.11v.78h-4.23v-.78l1.55-.11v-4.68a3.62,3.62,0,0,0-.68-2.46,2.37,2.37,0,0,0-1.86-.74,3.08,3.08,0,0,0-1.93.56,3,3,0,0,0-1,1.53v5.79l1.55.11v.78H613.7v-.78l1.54-.11v-7.73Z" transform="translate(0 -1.97)"/><path class="cls-3" d="M632.23,155v-.78h2.5l.14,1.47a3.7,3.7,0,0,1,1.33-1.22,4.14,4.14,0,0,1,1.91-.43,3.43,3.43,0,0,1,2.89,1.37,5.81,5.81,0,0,1,1,3.64v.19a5.16,5.16,0,0,1-1,3.4,3.49,3.49,0,0,1-2.87,1.27,4.5,4.5,0,0,1-1.9-.38,3.43,3.43,0,0,1-1.32-1.09v4.05l1.55.11v.78h-4.23v-.78l1.55-.11V155.06Zm8.68,4.05a5.11,5.11,0,0,0-.78-2.95,2.59,2.59,0,0,0-2.28-1.14,3.2,3.2,0,0,0-1.86.5,3.16,3.16,0,0,0-1.08,1.32v4.57a3,3,0,0,0,1.12,1.23,3.48,3.48,0,0,0,1.84.44,2.64,2.64,0,0,0,2.26-1,4.46,4.46,0,0,0,.78-2.75Z" transform="translate(0 -1.97)"/><path class="cls-3" d="M643.9,158.78a4.84,4.84,0,0,1,1.24-3.44,4.71,4.71,0,0,1,6.6,0,4.84,4.84,0,0,1,1.24,3.44v.29a4.85,4.85,0,0,1-1.24,3.45,4.23,4.23,0,0,1-3.29,1.34,4.27,4.27,0,0,1-3.31-1.34,4.85,4.85,0,0,1-1.24-3.45Zm1.14.29a4.32,4.32,0,0,0,.9,2.78,3.35,3.35,0,0,0,5,0,4.32,4.32,0,0,0,.9-2.78v-.29a4.32,4.32,0,0,0-.9-2.76,3.06,3.06,0,0,0-2.51-1.13,3,3,0,0,0-2.49,1.13,4.32,4.32,0,0,0-.9,2.76Z" transform="translate(0 -1.97)"/><path class="cls-3" d="M657.29,154.17l.14,1.58v.11a3.46,3.46,0,0,1,1.19-1.37,3.21,3.21,0,0,1,1.79-.5,2.77,2.77,0,0,1,.42,0l.34.07-.15,1-.84,0a2.74,2.74,0,0,0-1.77.56,3.11,3.11,0,0,0-1,1.53v5.68l1.55.11v.78h-4.22v-.78l1.54-.11v-7.73l-1.54-.11v-.78h2.53Z" transform="translate(0 -1.97)"/><path class="cls-3" d="M223.3,185.28c-.07-.32-.13-.6-.16-.84a5.52,5.52,0,0,1,0-.71,4.34,4.34,0,0,1-1.51,1.24,4.59,4.59,0,0,1-2.14.49,3.42,3.42,0,0,1-2.33-.72,2.46,2.46,0,0,1-.83-2,2.37,2.37,0,0,1,1.22-2.09,6.17,6.17,0,0,1,3.33-.77h2.26v-1.26a2,2,0,0,0-.7-1.6,3,3,0,0,0-2-.58,5.45,5.45,0,0,0-1.56.21,3.62,3.62,0,0,0-1.18.59l-.1,1.27h-.94v-1.82a6.12,6.12,0,0,1,1.7-.83,7,7,0,0,1,2.12-.32,4.36,4.36,0,0,1,2.73.8,2.74,2.74,0,0,1,1,2.3v4.67c0,.2,0,.38,0,.56a4.35,4.35,0,0,0,.06.52l1,.06v.78Zm-3.74-.75a4.29,4.29,0,0,0,2.18-.53,3.16,3.16,0,0,0,1.35-1.36v-1.91h-2.28a4.53,4.53,0,0,0-2.48.6,1.74,1.74,0,0,0-.92,1.5,1.51,1.51,0,0,0,.57,1.23A2.46,2.46,0,0,0,219.56,184.53Z" transform="translate(0 -1.97)"/><path class="cls-3" d="M234.39,178.7h-.93l-.13-1.34a2.9,2.9,0,0,0-1.08-.64,4.55,4.55,0,0,0-1.5-.23,3,3,0,0,0-1.86.5,1.43,1.43,0,0,0-.62,1.16,1.36,1.36,0,0,0,.53,1.09,5.47,5.47,0,0,0,2.14.76,7.29,7.29,0,0,1,2.75,1,2.1,2.1,0,0,1,.91,1.78,2.26,2.26,0,0,1-1,1.92,4.66,4.66,0,0,1-2.75.73,7,7,0,0,1-2.07-.29,5,5,0,0,1-1.62-.83v-1.92H228l.16,1.36a2.76,2.76,0,0,0,1.15.61,5.84,5.84,0,0,0,1.46.19,3.32,3.32,0,0,0,1.95-.51,1.45,1.45,0,0,0,.71-1.21,1.53,1.53,0,0,0-.59-1.17,5.23,5.23,0,0,0-2.14-.82,7.52,7.52,0,0,1-2.72-1,2,2,0,0,1-.89-1.71,2.25,2.25,0,0,1,1-1.85,4.29,4.29,0,0,1,2.63-.75,6.42,6.42,0,0,1,2.07.32,4.37,4.37,0,0,1,1.52.87Z" transform="translate(0 -1.97)"/><path class="cls-3" d="M241.09,176.55v-.78h2.5l.14,1.47a3.7,3.7,0,0,1,1.33-1.22,4.11,4.11,0,0,1,1.91-.43,3.44,3.44,0,0,1,2.89,1.37,5.81,5.81,0,0,1,1,3.64v.19a5.15,5.15,0,0,1-1,3.4,3.51,3.51,0,0,1-2.88,1.27,4.46,4.46,0,0,1-1.89-.38,3.34,3.34,0,0,1-1.32-1.09v4l1.54.11v.78h-4.22v-.78l1.55-.11V176.66Zm8.68,4a5.14,5.14,0,0,0-.78-2.95,2.59,2.59,0,0,0-2.28-1.14,2.94,2.94,0,0,0-2.94,1.82v4.57a3,3,0,0,0,1.12,1.23,3.46,3.46,0,0,0,1.84.45,2.64,2.64,0,0,0,2.26-1,4.46,4.46,0,0,0,.78-2.75Z" transform="translate(0 -1.97)"/><path class="cls-3" d="M259.84,185.28c-.07-.32-.13-.6-.16-.84a5.53,5.53,0,0,1,0-.71,4.48,4.48,0,0,1-1.52,1.24,4.59,4.59,0,0,1-2.14.49,3.44,3.44,0,0,1-2.33-.72,2.46,2.46,0,0,1-.83-2,2.36,2.36,0,0,1,1.23-2.09,6.11,6.11,0,0,1,3.32-.77h2.27v-1.26a2,2,0,0,0-.71-1.6,3,3,0,0,0-2-.58,5.45,5.45,0,0,0-1.56.21,3.62,3.62,0,0,0-1.18.59l-.1,1.27h-.94v-1.82a6,6,0,0,1,1.71-.83,6.9,6.9,0,0,1,2.11-.32,4.36,4.36,0,0,1,2.73.8,2.75,2.75,0,0,1,1,2.3v4.67c0,.2,0,.38,0,.56a4.35,4.35,0,0,0,.06.52l1,.06v.78Zm-3.74-.75a4.29,4.29,0,0,0,2.18-.53,3.24,3.24,0,0,0,1.36-1.36v-1.91h-2.29a4.47,4.47,0,0,0-2.47.6,1.73,1.73,0,0,0-.93,1.5,1.51,1.51,0,0,0,.57,1.23A2.46,2.46,0,0,0,256.1,184.53Z" transform="translate(0 -1.97)"/><path class="cls-3" d="M265.94,175.77l.14,1.58v.11a3.46,3.46,0,0,1,1.19-1.37,3.19,3.19,0,0,1,1.79-.5,2.77,2.77,0,0,1,.42,0l.34.07-.15,1-.85,0a2.73,2.73,0,0,0-1.76.56,3,3,0,0,0-1,1.53v5.68l1.55.11v.78H263.4v-.78l1.55-.11v-7.73l-1.55-.11v-.78h2.54Z" transform="translate(0 -1.97)"/><path class="cls-3" d="M274.2,173.33v2.44h2.26v.86H274.2v6.2a1.93,1.93,0,0,0,.37,1.32,1.27,1.27,0,0,0,1,.39l.54,0,.6-.08.17.79a3.48,3.48,0,0,1-.69.17,5.55,5.55,0,0,1-.82.06,2.21,2.21,0,0,1-1.68-.63,2.83,2.83,0,0,1-.6-2v-6.2h-1.77v-.86h1.77v-2.44Z" transform="translate(0 -1.97)"/><path class="cls-3" d="M283.08,185.46a4.27,4.27,0,0,1-3.21-1.31,4.61,4.61,0,0,1-1.27-3.35v-.48a4.7,4.7,0,0,1,1.27-3.38,4,4,0,0,1,3.06-1.35,4,4,0,0,1,3,1.11,4,4,0,0,1,1.08,3v.9h-7.25v.25a4,4,0,0,0,.92,2.69,3.06,3.06,0,0,0,2.43,1.09,5.32,5.32,0,0,0,1.8-.28,3.53,3.53,0,0,0,1.28-.78l.49.72a4.18,4.18,0,0,1-1.46.89A6.07,6.07,0,0,1,283.08,185.46Zm-.15-9a2.85,2.85,0,0,0-2.12.89,3.74,3.74,0,0,0-1,2.24l0,0h6v-.26a2.9,2.9,0,0,0-.79-2.08A2.79,2.79,0,0,0,282.93,176.49Z" transform="translate(0 -1.97)"/><path class="cls-3" d="M296.46,178.7h-.93l-.13-1.34a2.9,2.9,0,0,0-1.08-.64,4.53,4.53,0,0,0-1.49-.23,3,3,0,0,0-1.87.5,1.45,1.45,0,0,0-.62,1.16,1.34,1.34,0,0,0,.54,1.09A5.4,5.4,0,0,0,293,180a7.23,7.23,0,0,1,2.74,1,2.08,2.08,0,0,1,.91,1.78,2.26,2.26,0,0,1-1,1.92,4.66,4.66,0,0,1-2.75.73,7,7,0,0,1-2.07-.29,5.16,5.16,0,0,1-1.62-.83v-1.92h.92l.16,1.36a2.8,2.8,0,0,0,1.16.61,5.76,5.76,0,0,0,1.45.19,3.29,3.29,0,0,0,1.95-.51,1.45,1.45,0,0,0,.71-1.21,1.53,1.53,0,0,0-.59-1.17,5.23,5.23,0,0,0-2.14-.82,7.59,7.59,0,0,1-2.72-1,2,2,0,0,1-.89-1.71,2.24,2.24,0,0,1,1-1.85,4.25,4.25,0,0,1,2.63-.75,6.4,6.4,0,0,1,2.06.32,4.37,4.37,0,0,1,1.52.87Z" transform="translate(0 -1.97)"/><path class="cls-3" d="M310.6,183.91a3.41,3.41,0,0,1-1.32,1.15,4.15,4.15,0,0,1-1.89.4,3.5,3.5,0,0,1-2.88-1.27,5.19,5.19,0,0,1-1-3.4v-.19a5.81,5.81,0,0,1,1-3.64,3.42,3.42,0,0,1,2.89-1.37,3.94,3.94,0,0,1,1.87.42,3.72,3.72,0,0,1,1.31,1.19v-4.74l-1.55-.11v-.78h2.68v12.82l1.55.11v.78H310.7Zm-6-3.12a4.52,4.52,0,0,0,.75,2.74,2.59,2.59,0,0,0,2.24,1,3.36,3.36,0,0,0,1.83-.46,3.12,3.12,0,0,0,1.15-1.26v-4.5a3.41,3.41,0,0,0-1.1-1.31,3.15,3.15,0,0,0-1.86-.51,2.51,2.51,0,0,0-2.25,1.14,5.25,5.25,0,0,0-.76,2.95Z" transform="translate(0 -1.97)"/><path class="cls-3" d="M319.53,185.46a4.23,4.23,0,0,1-3.2-1.31,4.61,4.61,0,0,1-1.27-3.35v-.48a4.73,4.73,0,0,1,1.26-3.38,4.06,4.06,0,0,1,3.06-1.35,4,4,0,0,1,3,1.11,4,4,0,0,1,1.09,3v.9h-7.26v.25a4,4,0,0,0,.93,2.69,3.06,3.06,0,0,0,2.42,1.09,5.34,5.34,0,0,0,1.81-.28,3.53,3.53,0,0,0,1.28-.78l.48.72a4,4,0,0,1-1.46.89A6,6,0,0,1,319.53,185.46Zm-.15-9a2.83,2.83,0,0,0-2.11.89,3.68,3.68,0,0,0-1,2.24l0,0h6v-.26a2.94,2.94,0,0,0-.79-2.08A2.83,2.83,0,0,0,319.38,176.49Z" transform="translate(0 -1.97)"/><path class="cls-3" d="M330,176.55v-.78h2.55l.1,1.57a3.48,3.48,0,0,1,1.32-1.29,4,4,0,0,1,2-.46,3.45,3.45,0,0,1,2,.53,3,3,0,0,1,1.13,1.63,3.58,3.58,0,0,1,3.42-2.16,3.24,3.24,0,0,1,2.54,1,4.62,4.62,0,0,1,.89,3.13v4.65l1.55.12v.78h-4.24v-.78l1.55-.12v-4.67a3.68,3.68,0,0,0-.67-2.48,2.43,2.43,0,0,0-1.87-.72,2.62,2.62,0,0,0-2,.78,3.58,3.58,0,0,0-.89,2v.14a.66.66,0,0,1,0,.15v4.82l1.55.11v.78h-4.24v-.78l1.55-.11v-4.68a3.62,3.62,0,0,0-.68-2.46,2.37,2.37,0,0,0-1.86-.74,3.08,3.08,0,0,0-1.93.56,3,3,0,0,0-1,1.53v5.79l1.55.11v.78H330v-.78l1.54-.11v-7.73Z" transform="translate(0 -1.97)"/><path class="cls-3" d="M355.88,185.28a7.1,7.1,0,0,1-.16-.84,4.17,4.17,0,0,1-.05-.71,4.48,4.48,0,0,1-1.52,1.24,4.56,4.56,0,0,1-2.14.49,3.44,3.44,0,0,1-2.33-.72,2.46,2.46,0,0,1-.83-2,2.36,2.36,0,0,1,1.23-2.09,6.11,6.11,0,0,1,3.32-.77h2.27v-1.26a2,2,0,0,0-.71-1.6,3,3,0,0,0-2-.58,5.45,5.45,0,0,0-1.56.21,3.73,3.73,0,0,0-1.18.59l-.1,1.27h-.94v-1.82a6.18,6.18,0,0,1,1.71-.83,6.9,6.9,0,0,1,2.11-.32,4.36,4.36,0,0,1,2.73.8,2.75,2.75,0,0,1,1,2.3v4.67c0,.2,0,.38,0,.56a4.35,4.35,0,0,0,.06.52l1,.06v.78Zm-3.74-.75a4.28,4.28,0,0,0,2.17-.53,3.18,3.18,0,0,0,1.36-1.36v-1.91h-2.29a4.47,4.47,0,0,0-2.47.6,1.73,1.73,0,0,0-.93,1.5,1.49,1.49,0,0,0,.58,1.23A2.44,2.44,0,0,0,352.14,184.53Z" transform="translate(0 -1.97)"/><path class="cls-3" d="M359.3,184.5l1.55-.11v-7.73l-1.55-.11v-.78h2.56l.1,1.66a3.48,3.48,0,0,1,1.33-1.36,4,4,0,0,1,2-.48,3.31,3.31,0,0,1,2.55.95,4.24,4.24,0,0,1,.87,3v4.9l1.55.11v.78H366v-.78l1.55-.11v-4.9a3.27,3.27,0,0,0-.66-2.31,2.49,2.49,0,0,0-1.87-.67,3.08,3.08,0,0,0-1.95.58,3.21,3.21,0,0,0-1.09,1.55v5.75l1.55.11v.78H359.3Z" transform="translate(0 -1.97)"/><path class="cls-3" d="M376.46,185.46a4.23,4.23,0,0,1-3.2-1.31A4.62,4.62,0,0,1,372,180.8v-.48a4.74,4.74,0,0,1,1.27-3.38,4.06,4.06,0,0,1,3.06-1.35,4,4,0,0,1,3,1.11,4,4,0,0,1,1.08,3v.9h-7.25v.25a4,4,0,0,0,.93,2.69,3,3,0,0,0,2.42,1.09,5.34,5.34,0,0,0,1.81-.28,3.61,3.61,0,0,0,1.28-.78l.48.72a4,4,0,0,1-1.46.89A6,6,0,0,1,376.46,185.46Zm-.15-9a2.83,2.83,0,0,0-2.11.89,3.68,3.68,0,0,0-1,2.24l0,0h6v-.26a2.94,2.94,0,0,0-.78-2.08A2.83,2.83,0,0,0,376.31,176.49Z" transform="translate(0 -1.97)"/><path class="cls-3" d="M382.32,184.5l1.55-.11v-7.73l-1.55-.11v-.78H385v8.62l1.54.11v.78h-4.22ZM385,173h-1.13v-1.47H385Z" transform="translate(0 -1.97)"/><path class="cls-3" d="M390.91,175.77l.14,1.58v.11a3.46,3.46,0,0,1,1.19-1.37,3.21,3.21,0,0,1,1.79-.5,2.77,2.77,0,0,1,.42,0l.34.07-.15,1-.85,0a2.73,2.73,0,0,0-1.76.56,3,3,0,0,0-1,1.53v5.68l1.55.11v.78h-4.23v-.78l1.55-.11v-7.73l-1.55-.11v-.78h2.54Z" transform="translate(0 -1.97)"/><path class="cls-3" d="M403.35,185.28c-.07-.32-.13-.6-.16-.84a5.52,5.52,0,0,1-.05-.71,4.38,4.38,0,0,1-1.52,1.24,4.52,4.52,0,0,1-2.13.49,3.45,3.45,0,0,1-2.34-.72,2.45,2.45,0,0,1-.82-2,2.37,2.37,0,0,1,1.22-2.09,6.16,6.16,0,0,1,3.32-.77h2.27v-1.26a2,2,0,0,0-.7-1.6,3,3,0,0,0-2-.58,5.45,5.45,0,0,0-1.56.21,3.68,3.68,0,0,0-1.19.59l-.09,1.27h-.94v-1.82a6,6,0,0,1,1.7-.83,7,7,0,0,1,2.11-.32,4.37,4.37,0,0,1,2.74.8,2.74,2.74,0,0,1,1,2.3v4.67c0,.2,0,.38,0,.56a4.35,4.35,0,0,0,.06.52l1,.06v.78Zm-3.74-.75a4.29,4.29,0,0,0,2.18-.53,3.21,3.21,0,0,0,1.35-1.36v-1.91h-2.28a4.51,4.51,0,0,0-2.48.6,1.74,1.74,0,0,0-.92,1.5,1.51,1.51,0,0,0,.57,1.23A2.44,2.44,0,0,0,399.61,184.53Z" transform="translate(0 -1.97)"/><path class="cls-3" d="M416.24,185.46a4.27,4.27,0,0,1-3.21-1.31,4.61,4.61,0,0,1-1.27-3.35v-.48a4.7,4.7,0,0,1,1.27-3.38,4,4,0,0,1,3.06-1.35,4,4,0,0,1,3,1.11,4,4,0,0,1,1.08,3v.9h-7.25v.25a4,4,0,0,0,.93,2.69,3,3,0,0,0,2.42,1.09,5.32,5.32,0,0,0,1.8-.28,3.53,3.53,0,0,0,1.28-.78l.49.72a4.09,4.09,0,0,1-1.46.89A6,6,0,0,1,416.24,185.46Zm-.15-9a2.82,2.82,0,0,0-2.11.89,3.63,3.63,0,0,0-1,2.24v0h6v-.26a2.9,2.9,0,0,0-.79-2.08A2.79,2.79,0,0,0,416.09,176.49Z" transform="translate(0 -1.97)"/><path class="cls-3" d="M422,184.5l1.55-.11v-7.76h-1.7v-.86h1.7v-1.21a3,3,0,0,1,.91-2.35,3.58,3.58,0,0,1,2.51-.83,7.13,7.13,0,0,1,1.28.13,9,9,0,0,1,1.33.39l-.18.91a9,9,0,0,0-1.12-.35,5.89,5.89,0,0,0-1.25-.12,2.44,2.44,0,0,0-1.75.57,2.2,2.2,0,0,0-.59,1.65v1.21h5.89v8.62l1.55.11v.78h-4.22v-.78l1.54-.11v-7.76h-4.76v7.76l1.55.11v.78H422Z" transform="translate(0 -1.97)"/><path class="cls-3" d="M438,184.58a3.39,3.39,0,0,0,2-.6,1.9,1.9,0,0,0,.87-1.66h1l0,.05a2.55,2.55,0,0,1-1.13,2.21,4.45,4.45,0,0,1-2.75.88,4,4,0,0,1-3.23-1.33,5,5,0,0,1-1.15-3.42v-.37a5,5,0,0,1,1.15-3.41,4,4,0,0,1,3.22-1.34,5.54,5.54,0,0,1,2.18.42,4.27,4.27,0,0,1,1.6,1.12l.05,2.07h-1l-.18-1.68a3.15,3.15,0,0,0-1.14-.75,3.92,3.92,0,0,0-1.54-.28,2.81,2.81,0,0,0-2.44,1.09,4.57,4.57,0,0,0-.79,2.76v.37a4.68,4.68,0,0,0,.78,2.78A2.86,2.86,0,0,0,438,184.58Z" transform="translate(0 -1.97)"/><path class="cls-3" d="M444,184.5l1.55-.11v-7.73l-1.55-.11v-.78h2.68v8.62l1.55.11v.78H444ZM446.63,173H445.5v-1.47h1.13Z" transform="translate(0 -1.97)"/><path class="cls-3" d="M454.61,185.46a4.23,4.23,0,0,1-3.2-1.31,4.62,4.62,0,0,1-1.28-3.35v-.48a4.74,4.74,0,0,1,1.27-3.38,4.06,4.06,0,0,1,3.06-1.35,4,4,0,0,1,3,1.11,4,4,0,0,1,1.08,3v.9h-7.25v.25a4,4,0,0,0,.93,2.69,3,3,0,0,0,2.42,1.09,5.34,5.34,0,0,0,1.81-.28,3.61,3.61,0,0,0,1.28-.78l.48.72a4,4,0,0,1-1.46.89A6,6,0,0,1,454.61,185.46Zm-.15-9a2.83,2.83,0,0,0-2.11.89,3.68,3.68,0,0,0-1,2.24l0,0h6v-.26a2.94,2.94,0,0,0-.79-2.08A2.83,2.83,0,0,0,454.46,176.49Z" transform="translate(0 -1.97)"/><path class="cls-3" d="M460.34,184.5l1.54-.11v-7.73l-1.54-.11v-.78h2.55l.1,1.66a3.5,3.5,0,0,1,1.34-1.36,3.94,3.94,0,0,1,2-.48,3.29,3.29,0,0,1,2.54.95,4.24,4.24,0,0,1,.87,3v4.9l1.55.11v.78h-4.23v-.78l1.54-.11v-4.9a3.27,3.27,0,0,0-.66-2.31,2.49,2.49,0,0,0-1.87-.67,3.08,3.08,0,0,0-1.95.58,3.28,3.28,0,0,0-1.09,1.55v5.75l1.55.11v.78h-4.23Z" transform="translate(0 -1.97)"/><path class="cls-3" d="M475.67,173.33v2.44h2.26v.86h-2.26v6.2a1.93,1.93,0,0,0,.37,1.32,1.27,1.27,0,0,0,1,.39l.54,0,.6-.08.17.79a3.48,3.48,0,0,1-.69.17,5.66,5.66,0,0,1-.82.06,2.21,2.21,0,0,1-1.68-.63,2.83,2.83,0,0,1-.61-2v-6.2h-1.76v-.86h1.76v-2.44Z" transform="translate(0 -1.97)"/><path class="cls-3" d="M484.55,185.46a4.27,4.27,0,0,1-3.21-1.31,4.61,4.61,0,0,1-1.27-3.35v-.48a4.7,4.7,0,0,1,1.27-3.38,4,4,0,0,1,3.06-1.35,4,4,0,0,1,3,1.11,4,4,0,0,1,1.08,3v.9H481.2v.25a4,4,0,0,0,.92,2.69,3.06,3.06,0,0,0,2.43,1.09,5.32,5.32,0,0,0,1.8-.28,3.53,3.53,0,0,0,1.28-.78l.49.72a4.13,4.13,0,0,1-1.47.89A6,6,0,0,1,484.55,185.46Zm-.15-9a2.85,2.85,0,0,0-2.12.89,3.74,3.74,0,0,0-1,2.24l0,0h6v-.26a2.9,2.9,0,0,0-.79-2.08A2.81,2.81,0,0,0,484.4,176.49Z" transform="translate(0 -1.97)"/><path class="cls-3" d="M492.24,185.28h-1.3v-1.44h1.3Z" transform="translate(0 -1.97)"/><path class="cls-3" d="M224.28,87.18a8.12,8.12,0,0,1,4.92,1.33A4.34,4.34,0,0,1,231,92.19a3.47,3.47,0,0,1-.75,2.23A5.16,5.16,0,0,1,228.05,96a4,4,0,0,1,2.35,1.48,4.47,4.47,0,0,1,.71,2.57v.87a1.37,1.37,0,0,0,.24.87,1.1,1.1,0,0,0,.8.37l.46.06v2.06H230.7a3.13,3.13,0,0,1-2.55-.9,3.57,3.57,0,0,1-.73-2.33v-1a2.6,2.6,0,0,0-.72-2,2.85,2.85,0,0,0-2-.75h-3v4.5l2,.35v2H216v-2l2-.35V89.6l-2-.36V87.18h8.28Zm-2.62,7.53h2.56a3.71,3.71,0,0,0,2.31-.61,2.11,2.11,0,0,0,.77-1.76,2.35,2.35,0,0,0-.76-1.84,3.33,3.33,0,0,0-2.26-.68h-2.62Z" transform="translate(0 -1.97)"/><path class="cls-3" d="M240.46,104.49a6.39,6.39,0,0,1-4.73-1.76A6,6,0,0,1,234,98.27V97.8a6.61,6.61,0,0,1,1.68-4.65,6.6,6.6,0,0,1,8.8-.27A5.67,5.67,0,0,1,246,97.06v1.86h-8.18l0,.07a3.24,3.24,0,0,0,.9,2.07,3,3,0,0,0,2.19.81,7.67,7.67,0,0,0,2-.23,10.22,10.22,0,0,0,1.78-.72l1,2.11a7.64,7.64,0,0,1-2.2,1A10.09,10.09,0,0,1,240.46,104.49ZM240.14,94a2,2,0,0,0-1.62.72,3.61,3.61,0,0,0-.74,1.91l0,.06h4.53v-.3a2.58,2.58,0,0,0-.55-1.74A2,2,0,0,0,240.14,94Z" transform="translate(0 -1.97)"/><path class="cls-3" d="M254.14,101.87a2.29,2.29,0,0,0,1.59-.54,1.83,1.83,0,0,0,.59-1.42h3.34l0,.07a3.87,3.87,0,0,1-1.56,3.22,7,7,0,0,1-8.72-.5,6.55,6.55,0,0,1-1.65-4.61v-.35a6.4,6.4,0,0,1,1.7-4.6,6.31,6.31,0,0,1,4.85-1.81,8.92,8.92,0,0,1,3,.46,5.94,5.94,0,0,1,2.19,1.29l.05,3.38h-3l-.61-2a2.44,2.44,0,0,0-.68-.37,2.93,2.93,0,0,0-.93-.14,2.39,2.39,0,0,0-2.21,1,5.17,5.17,0,0,0-.65,2.72v.35a5.43,5.43,0,0,0,.6,2.74A2.19,2.19,0,0,0,254.14,101.87Z" transform="translate(0 -1.97)"/><path class="cls-3" d="M261.37,97.79a6.51,6.51,0,0,1,1.71-4.65,7.14,7.14,0,0,1,9.5,0,6.48,6.48,0,0,1,1.71,4.65V98a6.48,6.48,0,0,1-1.71,4.66,7.17,7.17,0,0,1-9.5,0A6.48,6.48,0,0,1,261.37,98Zm3.7.24a5.28,5.28,0,0,0,.65,2.79,2.33,2.33,0,0,0,2.13,1.05,2.3,2.3,0,0,0,2.09-1.06,5.09,5.09,0,0,0,.67-2.78v-.24a5.17,5.17,0,0,0-.67-2.76A2.32,2.32,0,0,0,267.82,94a2.28,2.28,0,0,0-2.1,1.06,5.27,5.27,0,0,0-.65,2.76Z" transform="translate(0 -1.97)"/><path class="cls-3" d="M275.47,93.63V91.57h5.4l.15,1.67a4.43,4.43,0,0,1,1.66-1.41,5,5,0,0,1,2.29-.5,4.41,4.41,0,0,1,2.25.54,3.35,3.35,0,0,1,1.42,1.63,4.49,4.49,0,0,1,1.65-1.59,4.66,4.66,0,0,1,2.38-.58,4.06,4.06,0,0,1,3.19,1.3A5.71,5.71,0,0,1,297,96.57v5.27l1.79.35v2h-7.08v-2l1.6-.35V96.56a3,3,0,0,0-.51-2,1.94,1.94,0,0,0-1.5-.56,2.83,2.83,0,0,0-1.37.32,2.53,2.53,0,0,0-.91.9c0,.15,0,.28,0,.38s0,.21,0,.32v5.93l1.5.35v2H283.9v-2l1.49-.35V96.56a3,3,0,0,0-.51-2,1.87,1.87,0,0,0-1.51-.58,3.12,3.12,0,0,0-1.31.26,2.57,2.57,0,0,0-.94.75v6.84l1.6.35v2h-7.06v-2l1.78-.35V94Z" transform="translate(0 -1.97)"/><path class="cls-3" d="M306.43,104.49a6.39,6.39,0,0,1-4.73-1.76,6,6,0,0,1-1.77-4.46V97.8a6.61,6.61,0,0,1,1.68-4.65,6.6,6.6,0,0,1,8.8-.27,5.67,5.67,0,0,1,1.53,4.18v1.86h-8.18l0,.07a3.24,3.24,0,0,0,.9,2.07,3,3,0,0,0,2.19.81,7.67,7.67,0,0,0,2-.23,10.22,10.22,0,0,0,1.78-.72l1,2.11a7.64,7.64,0,0,1-2.2,1A10.09,10.09,0,0,1,306.43,104.49ZM306.11,94a2,2,0,0,0-1.62.72,3.61,3.61,0,0,0-.74,1.91l0,.06h4.53v-.3a2.58,2.58,0,0,0-.55-1.74A2,2,0,0,0,306.11,94Z" transform="translate(0 -1.97)"/><path class="cls-3" d="M313.48,102.19l1.77-.35V94l-2-.35V91.57h5.41l.16,1.81a4.93,4.93,0,0,1,1.68-1.51,4.68,4.68,0,0,1,2.25-.54A4.25,4.25,0,0,1,326,92.54a5.25,5.25,0,0,1,1.17,3.78v5.52l1.77.35v2H321.9v-2l1.58-.35V96.33a2.45,2.45,0,0,0-.56-1.81,2.37,2.37,0,0,0-1.68-.53,3,3,0,0,0-1.32.28,2.62,2.62,0,0,0-1,.78v6.79l1.49.35v2h-7Z" transform="translate(0 -1.97)"/><path class="cls-3" d="M338.92,102.7A4.45,4.45,0,0,1,337.4,104a4.25,4.25,0,0,1-2,.46,4.79,4.79,0,0,1-3.93-1.71,6.94,6.94,0,0,1-1.4-4.52V98a7.75,7.75,0,0,1,1.41-4.84,4.66,4.66,0,0,1,3.94-1.84,4,4,0,0,1,1.85.42,4.49,4.49,0,0,1,1.45,1.17V88.38l-2-.35V86h5.67v15.88l1.77.35v2h-5Zm-5.16-4.44a4.91,4.91,0,0,0,.6,2.62,2.15,2.15,0,0,0,2,1,3.07,3.07,0,0,0,1.4-.3,2.67,2.67,0,0,0,1-.88V95.27A2.66,2.66,0,0,0,336.35,94a2.09,2.09,0,0,0-2,1.11,5.92,5.92,0,0,0-.62,2.91Z" transform="translate(0 -1.97)"/><path class="cls-3" d="M354.07,104.24a6.32,6.32,0,0,1-.27-.65c-.07-.22-.13-.44-.18-.67a5,5,0,0,1-1.6,1.14,5,5,0,0,1-2.15.43,4.79,4.79,0,0,1-3.2-1,3.45,3.45,0,0,1-1.18-2.76A3.08,3.08,0,0,1,347,98a8.67,8.67,0,0,1,4.53-1h1.89V95.75a1.8,1.8,0,0,0-.57-1.42,2.44,2.44,0,0,0-1.68-.5,4.28,4.28,0,0,0-1.13.13,3.24,3.24,0,0,0-.8.32L349,95.64h-2.78V92.83a10.8,10.8,0,0,1,2.32-1.07,9.37,9.37,0,0,1,2.86-.43,6.87,6.87,0,0,1,4.13,1.16,3.8,3.8,0,0,1,1.59,3.28v5.79a3.69,3.69,0,0,0,0,.49l1.12.14v2Zm-3.2-2.28a3.41,3.41,0,0,0,1.51-.33,3,3,0,0,0,1.07-.84V98.85h-1.89a2.7,2.7,0,0,0-1.78.51,1.54,1.54,0,0,0-.61,1.23,1.24,1.24,0,0,0,.45,1A1.94,1.94,0,0,0,350.87,102Z" transform="translate(0 -1.97)"/><path class="cls-3" d="M366,101.87a2.29,2.29,0,0,0,1.59-.54,1.83,1.83,0,0,0,.59-1.42h3.34l0,.07A3.87,3.87,0,0,1,370,103.2a7,7,0,0,1-8.72-.5,6.55,6.55,0,0,1-1.65-4.61v-.35a6.4,6.4,0,0,1,1.7-4.6,6.31,6.31,0,0,1,4.85-1.81,8.82,8.82,0,0,1,3,.46,5.79,5.79,0,0,1,2.19,1.29l.06,3.38h-3l-.61-2a2.59,2.59,0,0,0-.68-.37,3,3,0,0,0-.93-.14A2.39,2.39,0,0,0,364,95a5.17,5.17,0,0,0-.65,2.72v.35a5.43,5.43,0,0,0,.6,2.74A2.19,2.19,0,0,0,366,101.87Zm1.08,2.33-.14.67a2.55,2.55,0,0,1,1.35.61,1.76,1.76,0,0,1,.55,1.41,2.3,2.3,0,0,1-1.16,2,6,6,0,0,1-3.28.75l-.09-1.89a1.88,1.88,0,0,0,1-.24.79.79,0,0,0,.38-.73.69.69,0,0,0-.4-.68,4.42,4.42,0,0,0-1.39-.25l.39-1.66Z" transform="translate(0 -1.97)"/><path class="cls-3" d="M382,104.24a6.32,6.32,0,0,1-.27-.65,5.06,5.06,0,0,1-.17-.67,5.17,5.17,0,0,1-1.6,1.14,5.11,5.11,0,0,1-2.16.43,4.79,4.79,0,0,1-3.2-1,3.45,3.45,0,0,1-1.18-2.76A3.08,3.08,0,0,1,374.92,98a8.67,8.67,0,0,1,4.53-1h1.89V95.75a1.8,1.8,0,0,0-.57-1.42,2.44,2.44,0,0,0-1.68-.5A4.28,4.28,0,0,0,378,94a3.4,3.4,0,0,0-.8.32l-.24,1.36h-2.78V92.83a11,11,0,0,1,2.32-1.07,9.37,9.37,0,0,1,2.86-.43,6.87,6.87,0,0,1,4.13,1.16,3.8,3.8,0,0,1,1.59,3.28v5.79a3.69,3.69,0,0,0,.05.49l1.12.14v2Zm2.35-17.71a2.67,2.67,0,0,1-.75,1.91,2.51,2.51,0,0,1-1.9.79,5,5,0,0,1-2-.51,4.66,4.66,0,0,0-1.78-.51,1,1,0,0,0-.76.38,1.39,1.39,0,0,0-.31.91l-2-.49a2.78,2.78,0,0,1,.76-1.92,2.47,2.47,0,0,1,1.89-.81,5.36,5.36,0,0,1,1.92.51,5.27,5.27,0,0,0,1.86.51,1,1,0,0,0,.77-.38,1.37,1.37,0,0,0,.32-.92ZM378.76,102a3.46,3.46,0,0,0,1.52-.33,3,3,0,0,0,1.06-.84V98.85h-1.89a2.72,2.72,0,0,0-1.78.51,1.54,1.54,0,0,0-.61,1.23,1.24,1.24,0,0,0,.45,1A2,2,0,0,0,378.76,102Z" transform="translate(0 -1.97)"/><path class="cls-3" d="M387.48,97.79a6.51,6.51,0,0,1,1.71-4.65,7.12,7.12,0,0,1,9.49,0,6.44,6.44,0,0,1,1.72,4.65V98a6.45,6.45,0,0,1-1.72,4.66,7.15,7.15,0,0,1-9.49,0A6.48,6.48,0,0,1,387.48,98Zm3.69.24a5.19,5.19,0,0,0,.66,2.79,2.33,2.33,0,0,0,2.13,1.05,2.3,2.3,0,0,0,2.09-1.06,5.18,5.18,0,0,0,.66-2.78v-.24A5.08,5.08,0,0,0,396,95a2.62,2.62,0,0,0-4.21,0,5.17,5.17,0,0,0-.66,2.76Z" transform="translate(0 -1.97)"/><circle class="cls-4" cx="91" cy="134.7" r="88"/><path class="cls-3" d="M91,51.67a85,85,0,1,1-85,85,85,85,0,0,1,85-85m0-6a91,91,0,1,0,91,91,91.11,91.11,0,0,0-91-91Z" transform="translate(0 -1.97)"/><path class="cls-2" d="M90.78,51.83a84.78,84.78,0,1,0,84.77,84.77A84.77,84.77,0,0,0,90.78,51.83Zm0,163.9A79.13,79.13,0,1,1,169.9,136.6,79.13,79.13,0,0,1,90.78,215.73Z" transform="translate(0 -1.97)"/><path class="cls-2" d="M130.79,75a2.83,2.83,0,0,0-3.92.83L122.25,83a2.82,2.82,0,0,0,.9,4,36.54,36.54,0,0,1,3.17,2.26c.63.48,1.27,1,1.77,1.32.88.72,1.72,1.48,2.56,2.25l-2,2a56.45,56.45,0,0,0-12.39-8.48l5.78-13a2.83,2.83,0,0,0-1.43-3.74,74.1,74.1,0,0,0-26-6.2,2.82,2.82,0,0,0-3,2.68l-.44,8.46a2.83,2.83,0,0,0,2.67,3l3,.15,3.17.48,1.22.19c.61.09,1.22.17,1.76.3l.39.1-.74,2.76a57.91,57.91,0,0,0-15-1.21L86.21,66.05a2.77,2.77,0,0,0-1-1.9,2.82,2.82,0,0,0-2.07-.62,72.75,72.75,0,0,0-25.68,7.66A2.82,2.82,0,0,0,56.2,75l3.86,7.55a2.83,2.83,0,0,0,3.7,1.28l1.7-.82a29.87,29.87,0,0,1,4-1.74l.73-.26c.85-.32,1.67-.63,2.49-.9l.73,2.74c-.7.23-1.37.48-2,.73l-.67.25a26.27,26.27,0,0,0-4,1.71c-.49.24-1,.48-1.7.82l-4.79,2.76-.33.18L51.57,77.84a2.82,2.82,0,0,0-4-.62A73.58,73.58,0,0,0,29.19,96.6a2.82,2.82,0,0,0,.83,3.91l7.11,4.62a2.82,2.82,0,0,0,3.95-.9,36.28,36.28,0,0,1,2.25-3.16c.49-.64,1-1.28,1.33-1.78.72-.87,1.48-1.72,2.25-2.55l2,2a56.15,56.15,0,0,0-8.49,12.39l-13-5.78a2.83,2.83,0,0,0-3.74,1.43,74.15,74.15,0,0,0-6.2,26,2.83,2.83,0,0,0,2.68,3l8.47.44a2.85,2.85,0,0,0,2-.72,2.79,2.79,0,0,0,.92-2l.15-3,.48-3.17c.08-.4.13-.81.19-1.22.09-.61.18-1.23.3-1.75l.1-.4,2.77.75a57.37,57.37,0,0,0-1.22,15l-14.14,1.47a2.85,2.85,0,0,0-1.9,1,2.82,2.82,0,0,0-.61,2.07A73.63,73.63,0,0,0,25.36,170a2.8,2.8,0,0,0,3.8,1.23l7.55-3.85A2.83,2.83,0,0,0,38,163.62c-.26-.56-.53-1.11-.8-1.67a29.23,29.23,0,0,1-1.75-4.06l-.27-.75c-.32-.84-.62-1.66-.89-2.46l2.77-.74a55.8,55.8,0,0,0,6.45,13.52L32,175.81a2.82,2.82,0,0,0-.62,3.95,73.42,73.42,0,0,0,19.38,18.43,2.81,2.81,0,0,0,3.91-.83l4.62-7.1a2.83,2.83,0,0,0-.89-4A35.65,35.65,0,0,1,55.24,184c-.64-.48-1.28-1-1.77-1.32-.88-.72-1.72-1.48-2.56-2.25l2-2c.75.69,1.53,1.39,2.47,2.16.55.39,1.09.8,1.62,1.21a34.36,34.36,0,0,0,3.15,2.22L65.2,187l.06,0-5.79,13a2.83,2.83,0,0,0,1.43,3.74,74.15,74.15,0,0,0,26,6.2h.15a2.83,2.83,0,0,0,2.82-2.68l.44-8.46a2.82,2.82,0,0,0-2.67-3l-3-.15-3.17-.48L80.32,195c-.62-.09-1.23-.18-1.76-.3l-.39-.1.74-2.77a57.41,57.41,0,0,0,15,1.22l1.46,14.14a2.82,2.82,0,0,0,3.11,2.51A72.78,72.78,0,0,0,124.13,202a2.83,2.83,0,0,0,1.23-3.8l-3.86-7.56a2.82,2.82,0,0,0-3.7-1.27c-.57.26-1.13.53-1.7.81a29.45,29.45,0,0,1-4,1.74l-.72.27c-.85.31-1.67.62-2.49.89l-.74-2.77a55.8,55.8,0,0,0,13.52-6.45L130,195.37a2.82,2.82,0,0,0,3.94.62,73.26,73.26,0,0,0,18.43-19.38,2.79,2.79,0,0,0,.4-2.12,2.83,2.83,0,0,0-1.22-1.79l-7.11-4.62a2.82,2.82,0,0,0-4,.9,36.28,36.28,0,0,1-2.25,3.16c-.49.64-1,1.28-1.32,1.78-.73.87-1.49,1.72-2.26,2.55l-1.95-1.95a56.11,56.11,0,0,0,8.48-12.39l13,5.78a2.82,2.82,0,0,0,3.73-1.43,73.71,73.71,0,0,0,6.2-26,2.83,2.83,0,0,0-2.68-3l-8.46-.44a2.86,2.86,0,0,0-3,2.67l-.15,3-.48,3.16c-.07.41-.13.82-.19,1.23-.09.61-.17,1.23-.29,1.75l-.1.39-2.73-.72,0-.07c.15-.66.25-1.33.34-2,.05-.32.09-.63.15-1l.43-2.78a2.54,2.54,0,0,0,0-.29l.14-3v-5.9l14.2-1.48a2.82,2.82,0,0,0,1.9-1,2.87,2.87,0,0,0,.62-2.07,73.84,73.84,0,0,0-7.65-25.68,2.83,2.83,0,0,0-3.8-1.23l-7.55,3.85a2.82,2.82,0,0,0-1.28,3.71c.26.56.53,1.11.8,1.67a28.07,28.07,0,0,1,1.75,4.06l.27.75c.32.84.62,1.65.89,2.46l-2.77.74a55.8,55.8,0,0,0-6.45-13.52l11.48-8.35a2.83,2.83,0,0,0,1.13-1.85,2.77,2.77,0,0,0-.51-2.1A73.38,73.38,0,0,0,130.79,75Zm1.72,27.78a2.83,2.83,0,0,0-1.13,1.85,2.77,2.77,0,0,0,.51,2.1,50.44,50.44,0,0,1,8,16.7,2.84,2.84,0,0,0,3.46,2l8.19-2.19a2.83,2.83,0,0,0,2-3.32,41.26,41.26,0,0,0-1.85-5.84l-.22-.61a29.72,29.72,0,0,0-1.59-3.83l2.52-1.29a68.1,68.1,0,0,1,5.47,18.35l-14,1.45a2.83,2.83,0,0,0-2.53,3l.14,2.74v5.4l-.14,2.66-.41,2.6c-.06.37-.11.74-.16,1.11s-.14,1-.24,1.42l-.7,2.72a2.82,2.82,0,0,0,2,3.44l8.19,2.19a2.83,2.83,0,0,0,3.47-2l.83-3.23c.17-.75.29-1.52.4-2.28,0-.37.1-.73.17-1.13l.52-3.49,0-.44,2.77.15a68.12,68.12,0,0,1-4.42,18.6L141,155.84a2.84,2.84,0,0,0-2.16-.05,2.8,2.8,0,0,0-1.57,1.49,50.83,50.83,0,0,1-10.48,15.3,2.82,2.82,0,0,0,0,4l6,6a2.76,2.76,0,0,0,2.08.83,2.83,2.83,0,0,0,2-.95l1.53-1.68c1-1.07,2-2.13,3-3.4.43-.61.88-1.2,1.33-1.79.32-.41.64-.83.95-1.25l2.37,1.54a67.58,67.58,0,0,1-13.17,13.85l-8.28-11.38a2.85,2.85,0,0,0-4-.62,50.22,50.22,0,0,1-16.69,8,2.78,2.78,0,0,0-1.72,1.31,2.84,2.84,0,0,0-.29,2.15l2.2,8.19a2.81,2.81,0,0,0,3.32,2,41.93,41.93,0,0,0,5.86-1.85l.58-.22a27.29,27.29,0,0,0,3.83-1.58l1.29,2.52a68.82,68.82,0,0,1-18.35,5.47l-1.45-14a2.8,2.8,0,0,0-3.08-2.52,52,52,0,0,1-18.51-1.51,2.82,2.82,0,0,0-3.46,2L72,195.87a2.82,2.82,0,0,0,2,3.47l3.21.82c.76.18,1.53.29,2.3.4l1.12.18,3.49.51.44,0-.15,2.77a68.12,68.12,0,0,1-18.6-4.42l5.73-12.85a2.83,2.83,0,0,0-1.36-3.7L67.84,182,63,179.19a27.21,27.21,0,0,1-2.57-1.83c-.61-.46-1.2-.92-1.64-1.22-.82-.67-1.6-1.39-2.38-2.1-.58-.54-1.16-1.07-1.76-1.6a2.84,2.84,0,0,0-3.86.14l-6,6a2.82,2.82,0,0,0,.12,4.11l1.66,1.51c1.07,1,2.15,2,3.42,3,.61.42,1.2.88,1.78,1.33l1.26,1-1.54,2.37a67.58,67.58,0,0,1-13.85-13.17l11.38-8.28a2.85,2.85,0,0,0,1.13-1.84,2.89,2.89,0,0,0-.51-2.11,50.51,50.51,0,0,1-8-16.69,2.82,2.82,0,0,0-3.45-2L30.05,150a2.84,2.84,0,0,0-2,3.33,42.55,42.55,0,0,0,1.84,5.84l.23.6a29.23,29.23,0,0,0,1.58,3.84l-2.51,1.28a68.37,68.37,0,0,1-5.48-18.35l14-1.45A2.81,2.81,0,0,0,40.19,142a52,52,0,0,1,1.51-18.51,2.81,2.81,0,0,0-2-3.46l-8.19-2.19a2.79,2.79,0,0,0-2.15.29A2.84,2.84,0,0,0,28,119.82l-.82,3.23c-.18.75-.29,1.52-.4,2.28-.05.36-.1.73-.17,1.13L26.13,130l0,.44-2.77-.15a68.86,68.86,0,0,1,4.42-18.6l12.85,5.73a2.84,2.84,0,0,0,3.74-1.44,50.68,50.68,0,0,1,10.47-15.3,2.82,2.82,0,0,0,0-4l-6-6a2.82,2.82,0,0,0-4.11.12q-.75.84-1.53,1.68c-1,1.07-2,2.13-3,3.4-.43.61-.89,1.2-1.34,1.79l-1,1.25-2.37-1.54A67.89,67.89,0,0,1,48.69,83.49L57,94.87a2.82,2.82,0,0,0,4,.62l.65-.49a10,10,0,0,1,1.39-1l4.62-2.68c.55-.25,1.09-.51,1.62-.77a22.44,22.44,0,0,1,3.31-1.42l.85-.31a27.78,27.78,0,0,1,4.09-1.3,2.83,2.83,0,0,0,2.16-3.5l-2.19-8.19a2.82,2.82,0,0,0-3.32-2,41.11,41.11,0,0,0-5.86,1.85l-.59.22a28.32,28.32,0,0,0-3.83,1.58L62.54,75a68.82,68.82,0,0,1,18.35-5.47l1.45,14A2.79,2.79,0,0,0,85.42,86a52,52,0,0,1,18.51,1.51,2.88,2.88,0,0,0,2.15-.28,2.84,2.84,0,0,0,1.31-1.72l2.19-8.19a2.83,2.83,0,0,0-2-3.47l-3.22-.82c-.76-.18-1.52-.29-2.29-.4l-1.13-.18L97.43,72l-.44,0,.15-2.77a68,68,0,0,1,18.6,4.42L110,86.43a2.8,2.8,0,0,0,1.44,3.73,51,51,0,0,1,15.29,10.48,2.82,2.82,0,0,0,4,0l6-6a2.79,2.79,0,0,0,.82-2.08,2.82,2.82,0,0,0-.94-2c-.56-.49-1.11-1-1.66-1.5-1.08-1-2.15-2-3.43-3-.6-.43-1.19-.88-1.78-1.33l-1.26-1L130,81.35a68.1,68.1,0,0,1,13.85,13.17Z" transform="translate(0 -1.97)"/><path class="cls-2" d="M90.78,91.39a45.12,45.12,0,0,0-39,68,2.75,2.75,0,0,0,.17.29,45.43,45.43,0,0,0,11.53,12.9c.07.05.11.12.19.17l.06,0a44.87,44.87,0,0,0,54.06,0l.07,0c.08-.05.13-.12.2-.17a45.4,45.4,0,0,0,11.52-12.9,1.75,1.75,0,0,0,.18-.29,45.13,45.13,0,0,0-39-68Zm-5.1,6L54.32,152A39.52,39.52,0,0,1,85.68,97.41ZM68.81,169.49l22-38.18,22,38.18a39.48,39.48,0,0,1-43.93,0Zm48.41-3.55L94.45,126.36a4.25,4.25,0,0,0-7.35,0L64.33,165.94a39.8,39.8,0,0,1-6.88-8.1l33.33-58,6.46,11.21c0,.08.08.17.13.25l26.73,46.5a39.49,39.49,0,0,1-6.88,8.1Zm10-14L102.4,108.75a2.1,2.1,0,0,0-.13-.26L95.88,97.41A39.53,39.53,0,0,1,127.24,152Z" transform="translate(0 -1.97)"/><g class="cls-5"><path class="cls-6" d="M120.66,332.79a6.83,6.83,0,0,0-.12,4.61c.88,2.29,11.57,10.51,19.27,11,8.15.54,12.66-4.17,13-5.28s-5.25-4.74-5.25-4.74Z" transform="translate(0 -1.97)"/><path class="cls-6" d="M41.16,336.8s-5.83,15.56-3.78,17.61,15,4.5,23.89.77S51.52,332,51.52,332Z" transform="translate(0 -1.97)"/><path class="cls-7" d="M79.77,77.1l3.84,14.75s.6,3.63-.71,5-7.47,8.28-7.47,8.28L72,111.84l19.9,11.31,23.73-6.36-.71-16.66s-12.15-.78-19.24-6.1c-1.39-1-2.57-13.19-2.57-13.19Z" transform="translate(0 -1.97)"/><path class="cls-8" d="M93.75,86.2c-.37-2.72-.68-5.46-.68-5.46L79.74,77l1.07,4.1S85,83.83,86.28,84.4A25.37,25.37,0,0,0,93.75,86.2Z" transform="translate(0 -1.97)"/><path class="cls-7" d="M68.71,108.89s-9.51,5.38-10.38,6.25-7.67,7-7.67,7l-.26,22.07-8.83-21-7.67,3.4,10.92,32.73,6,9.32,4.54,1.71,6.69-30.89,9.63,6,11.81-8.63L75,115.68l-3.63-8Z" transform="translate(0 -1.97)"/><path class="cls-7" d="M33.57,126.45a10.41,10.41,0,0,1-4.53-3.8,37.79,37.79,0,0,1-4.75.24.7.7,0,0,1-.43-.09.81.81,0,0,1-.25-.53,46.86,46.86,0,0,0-2.45-8.6,1.42,1.42,0,0,1-.14-.75c.1-.47.64-.68,1.11-.72a2.87,2.87,0,0,0,1.38-.28c.52-.36.68-1.16,1.28-1.36s1,.18,1.49,0,.6-.82.93-1.23a3.34,3.34,0,0,1,2.05-.81,14.59,14.59,0,0,0,3.61-1.45.35.35,0,0,0,.21-.18.5.5,0,0,0,0-.21c-.56-2.58-1.73-5.16-2.28-7.75a58.26,58.26,0,0,1-.94-7.4A3.92,3.92,0,0,1,31.91,89a.86.86,0,0,1,.76-.1c.29.13.39.49.45.8.63,2.88,2.32,10.19,3,13.07.39,1.84,3.72,6.44,4.43,7s.81,1.23,1.62,1.84a1.69,1.69,0,0,1,.56.57,1.83,1.83,0,0,1,.15.81l.12,4.88c0,1.9,0,4-1.33,5.38Z" transform="translate(0 -1.97)"/><path class="cls-8" d="M40.21,109.36c-1-.27-1.94-.9-3-.72a6.84,6.84,0,0,0-2.44,1.26c-2.15,1.47-3.69,3.72-6,4.94a1,1,0,0,0-.19,1.49c1.32,1.28,3.23,2.8,5.19,2.36a6,6,0,0,0,4-3.79l-1.39.57a7.78,7.78,0,0,0,2,1c1.15.44,1.62-1.38.5-1.83-3.73-1.5-5.28,3.37-4,6,.52,1.11,2.16.14,1.64-1-.59-1.25-.26-4.11,1.87-3.26l.5-1.83a4.53,4.53,0,0,1-1.51-.86c-.54-.4-1.2.06-1.4.56-1.13,3-4.18,2.44-6.07.6l-.19,1.49a19.8,19.8,0,0,0,4.15-3.43,15,15,0,0,1,2.4-1.87c1.14-.71,2.2-.33,3.43,0a1,1,0,0,0,.5-1.83Z" transform="translate(0 -1.97)"/><path class="cls-8" d="M32.65,113l-.43-2.21-1.83.5A2.53,2.53,0,0,0,31.78,113a1,1,0,0,0,1.3-.34,1,1,0,0,0-.34-1.3.74.74,0,0,1-.52-.57.95.95,0,1,0-1.83.5l.43,2.21a.95.95,0,0,0,1.83-.5Z" transform="translate(0 -1.97)"/><path class="cls-7" d="M71.93,71s7.71,13.72,30.73,13.73c9.52,0,13.06-2.22,13.6-5.32,3.37-19.43-3.81-44-13.77-51.5C93.75,21.31,62.77,46.2,62.77,46.2L69.37,61s-6.74-7.27-9.43-3.23S65.8,70.37,65.8,70.37,69.64,73.27,71.93,71Z" transform="translate(0 -1.97)"/><path class="cls-7" d="M117.93,102.11c2.29-1.21,4.35,1.65,4.35,1.65l23.23,40.67-20,36s6.73,11.31,3.36,16.43l4.65,4.64s.74,2.49-2.63,2.49S119.53,198,119.53,198l.92-25.36,15-27-13.75-20.44-4.3-3.81S113.67,104.37,117.93,102.11Z" transform="translate(0 -1.97)"/><path class="cls-7" d="M93.81,215.94,74.35,264.73S71.84,274,68.86,277a131.27,131.27,0,0,1-7.37,21.31c-5.05,11.31-7.27,26.86-7.27,26.86s4.59,11.66,4,16.91c0,0,4.39,6.06,2.62,9.55S52.2,353,52.2,353s-11.56,1.51-13.28-1.36S41.09,341,41.09,341s-.55-6.16,1.47-7.57A24.9,24.9,0,0,0,47,328.6s-.76-2,1.36-4.74,5.25-20.22,5.25-22.51-2.82-19.39,6.6-26.12c0,0,2.29-46.45,8.75-52.91S93.81,212,93.81,212Z" transform="translate(0 -1.97)"/><path class="cls-9" d="M93.81,215.94l-6.22,15.6S79,235.38,76.8,235.92c-1.62.39-13.14,4-12.75,1.63,1.21-7.26,2.88-13.2,4.91-15.23,6.47-6.47,24.85-10.3,24.85-10.3Z" transform="translate(0 -1.97)"/><path class="cls-7" d="M100.74,208.72s16.29,61.53,17.5,64.36-5.15,8.31,6,47.29c0,0-.71,5.15-1.72,7s-3.33,6.46-.4,8.08,12.42,9.69,16.46,10.4S150.15,343,150.15,343s4-1.51,2.78-2.77c0,0-3.69-.16-4.9-1.37s-14.94-12-14.94-12-4.24-5.45-4.24-5.82-3-48.3-3-48.3,1.11-3,0-9.19-.58-45-.58-45Z" transform="translate(0 -1.97)"/><path class="cls-9" d="M100.74,208.72s3.83,14.43,5,18.69c.44,1.63,19.43,3,19.43,3l.1-11.81Z" transform="translate(0 -1.97)"/><path class="cls-10" d="M100.74,220.9c3.15,6.25,25.3,7.57,27.13,8.15,0,0,.58-25.08-3-39.17S100.74,220.9,100.74,220.9Z" transform="translate(0 -1.97)"/><path class="cls-11" d="M73.81,65.46c3.91,1.61.54-5.39.54-5.39s-.37-7-2.36-8.21a29.2,29.2,0,0,1-4.33-3.54l37.25-25.55s3.77-5.25-4.84-8.48a10.28,10.28,0,0,0-10.44-3.1s-3.77-4.51-9.22-.37c0,0-11-.63-13.47,4.75a4.09,4.09,0,0,0-4,2.29s-2.28.88-2.72,2.73c0,0-5.56,2.18-5.89,5.89,0,0-3,4.24-.61,7.67,0,0-1.6,3,.47,5.08,0,0-4.64,5.09,0,8.25,0,0-1.14,3.3,5.66,4.65l2,4.17s1.94-.88,7.54,4.71Z" transform="translate(0 -1.97)"/><path class="cls-8" d="M100.94,66a1.5,1.5,0,0,1,0-3c1.38,0,5.22-1.15,8-2.08C108,54.12,103.65,49,101,46.54a1.5,1.5,0,1,1,2.07-2.17c3.07,2.93,8.3,9.1,8.89,17.48l.08,1.13-1.07.39C110.25,63.64,103.55,66,100.94,66Z" transform="translate(0 -1.97)"/><ellipse class="cls-12" cx="88.93" cy="50.95" rx="1.81" ry="2.47" transform="translate(-9.74 21.24) rotate(-14.1)"/><path class="cls-12" d="M86.15,50.67h-.06a1.51,1.51,0,0,1-1.44-1.56c0-.37.22-3.62,2.6-4.91,1.55-.83,3.46-.58,5.69.75a1.5,1.5,0,0,1-1.53,2.58c-1.21-.72-2.21-1-2.73-.69-.73.39-1,1.89-1,2.39A1.51,1.51,0,0,1,86.15,50.67Z" transform="translate(0 -1.97)"/><ellipse class="cls-12" cx="105.72" cy="45.88" rx="1.81" ry="2.47" transform="translate(-7.99 25.17) rotate(-14.1)"/><path class="cls-12" d="M102.47,45.28a1.44,1.44,0,0,1-.4-.06,1.49,1.49,0,0,1-1-1.84c.1-.35,1-3.48,3.63-4.2,1.69-.46,3.51.21,5.39,2A1.5,1.5,0,1,1,108,43.35c-1-1-1.93-1.44-2.51-1.28-.79.22-1.4,1.62-1.53,2.1A1.51,1.51,0,0,1,102.47,45.28Z" transform="translate(0 -1.97)"/><path class="cls-13" d="M93.06,68.21c-.22-.23,13.34.85,18.52-3,0,0,1,10.31-3.6,11.44S97.73,76,93.06,68.21Z" transform="translate(0 -1.97)"/><g class="cls-14"><path class="cls-15" d="M92.18,69.83s12.68,3.62,18.32-2l-.71-2.56L91.2,66.5Z" transform="translate(0 -1.97)"/><path class="cls-16" d="M94.41,74.48s4.07-3.94,10.57-1.31,0,7.37,0,7.37Z" transform="translate(0 -1.97)"/></g><path class="cls-8" d="M105.19,78.07c-7.76,0-12.94-9.27-13-9.38l-.86-1.57,1.79.09c.12,0,12.51.61,17.92-2.81a1,1,0,0,1,1.38.31,1,1,0,0,1-.31,1.38c-4.65,2.93-13.35,3.21-17.2,3.17,2,3,7.16,8.9,13.69,6.07a1,1,0,1,1,.8,1.83A10.47,10.47,0,0,1,105.19,78.07Z" transform="translate(0 -1.97)"/><path class="cls-8" d="M69.06,69.43s-.2-8.84-7-11" transform="translate(0 -1.97)"/><path class="cls-8" d="M62.06,139.42s5.82-7.81,5-6.62C62.85,139.39,78,147,81.59,142.94a9.11,9.11,0,0,1-9.9,2.51Z" transform="translate(0 -1.97)"/><path class="cls-17" d="M75.43,105.08S69,107.46,66,110.47c0,0,18.13,26.29,5.74,35,0,0,11.41,21.8,10.2,26.24s-21.49,61-21.49,61,62.61-1.11,64.84-42l-3-23.57A196.16,196.16,0,0,0,124,143.22c.13-11.5-1.13-24.72-2-33.74a14.55,14.55,0,0,0-4.25-9.15l-5.89-.55s4.65,15.6-6.12,17.07C99.91,117.65,85.93,119.52,75.43,105.08Z" transform="translate(0 -1.97)"/><g class="cls-18"><path class="cls-19" d="M62.74,234.25s62.61-1.11,64.84-42Z" transform="translate(0 -1.97)"/></g><path class="cls-17" d="M75.43,105.08S69,107.46,66,110.47c0,0,18.13,26.29,5.74,35,0,0,11.41,21.8,10.2,26.24s-21.49,61-21.49,61,62.61-1.11,64.84-42l-3-23.57A196.16,196.16,0,0,0,124,143.22c.13-11.5-1.13-24.72-2-33.74a14.55,14.55,0,0,0-4.25-9.15l-5.89-.55s4.65,15.6-6.12,17.07C99.91,117.65,85.93,119.52,75.43,105.08Z" transform="translate(0 -1.97)"/><path class="cls-6" d="M80.5,176.27s33,4.39,42.17-6.11c0,0,1-2.07-.39-3,.2,1.94-15.5,10.4-40.39,5A2.71,2.71,0,0,0,80.5,176.27Z" transform="translate(0 -1.97)"/><circle class="cls-20" cx="107.92" cy="172.71" r="7.7"/><g class="cls-21"><path class="cls-22" d="M71.36,25.74s-3.31,4,.89,6.68c1.46.94-4.35,5.45-4.35,5.45L65.56,51.05a17.55,17.55,0,0,1,5-1.22L81.23,62l-6.81,4.25L52.67,51.61l-14.47-28L56.85,6.72,77.24,2,73.66,9.08s-8.66,5.29-5.35,9.1C66.24,19.64,65.83,25.35,71.36,25.74Z" transform="translate(0 -1.97)"/></g><path class="cls-23" d="M61.93,56.3S58,54.55,58,51.32s15.22-33.8,47-28.55c0,0,4.92,3.44,3.24,5.12,0,0,3,3.76.6,5.78S94.65,32.73,61.93,56.3Z" transform="translate(0 -1.97)"/><path class="cls-24" d="M63.64,49.17S84,24.39,105.72,27.62C105.72,27.62,85.46,28.71,63.64,49.17Z" transform="translate(0 -1.97)"/><path class="cls-6" d="M38.14,348.66s11.56-4.94,23.13-1.16a5,5,0,0,0-.86-2.82c-1-1.52-15.45-3.84-21.61,1.23C38.8,345.91,37.48,347.81,38.14,348.66Z" transform="translate(0 -1.97)"/><path class="cls-6" d="M135.92,344.81s.45-10.18,11.6-6.42l.3.25a3.63,3.63,0,0,0-1.11-2.35,12.83,12.83,0,0,0-3.65-1.54s-10.21-2.51-10.06,8.33C133,343.08,134.59,345.32,135.92,344.81Z" transform="translate(0 -1.97)"/><path class="cls-25" d="M108.77,181.29a7.66,7.66,0,0,1-5.64-2.2c-1.52-1.69-1.94-4.13-1.27-7.26a1.5,1.5,0,0,1,2.93.63c-.46,2.14-.27,3.69.57,4.63,1.26,1.41,3.74,1.19,3.77,1.19a1.5,1.5,0,1,1,.31,3A5.1,5.1,0,0,1,108.77,181.29Z" transform="translate(0 -1.97)"/><path class="cls-26" d="M112.57,178.68l-.33,0a1.51,1.51,0,0,1-1.14-1.79c.48-2.13.29-3.69-.54-4.63-1.25-1.42-3.73-1.22-3.76-1.21a1.5,1.5,0,1,1-.29-3c.16,0,4-.36,6.3,2.21,1.5,1.7,1.92,4.14,1.22,7.27A1.49,1.49,0,0,1,112.57,178.68Z" transform="translate(0 -1.97)"/><path class="cls-8" d="M29.37,123.21a2.1,2.1,0,0,0,0-3.59c-.86-.65-2,.79-1.15,1.49a3.86,3.86,0,0,0,3.18,1.3,2.65,2.65,0,0,0,2.07-2.11l-1.39.56a3,3,0,0,0,3.09.1c1.09-.55.13-2.19-1-1.64a1.08,1.08,0,0,1-1.17-.09,1,1,0,0,0-1.4.56c-.26,1.35-1.46.52-2.08,0l-1.15,1.49,0,.31c-1,.69-.05,2.34,1,1.64Z" transform="translate(0 -1.97)"/><path class="cls-8" d="M24,111.05c.44,2,.93,4.1,1.47,6.13a1,1,0,0,0,1.83-.51q-.81-3-1.47-6.13c-.26-1.19-2.09-.68-1.83.51Z" transform="translate(0 -1.97)"/><path class="cls-8" d="M49.35,143.93a19,19,0,0,1,2.15,7.46c.1,1.21,2,1.22,1.9,0A21.43,21.43,0,0,0,51,143c-.57-1.08-2.21-.12-1.64,1Z" transform="translate(0 -1.97)"/><path class="cls-27" d="M85,9.08a6.51,6.51,0,0,1,4.64,2.11,11.62,11.62,0,0,1,2.81-.37,10.29,10.29,0,0,1,7.63,3.47c8.37,3.14,5.05,8.19,4.85,8.47H105s4.92,3.44,3.24,5.12c0,0,3,3.76.6,5.78a2.67,2.67,0,0,1-.88.45c6.89,10.72,11,29.66,8.29,45.27-.54,3.09-4.07,5.32-13.59,5.32h0a50.45,50.45,0,0,1-9.21-.82c.09.73.19,1.52.3,2.31h0c.48,3.4,1.17,7.27,1.93,7.83,4.86,3.65,12.1,5.16,16.17,5.75l5.89.55a14,14,0,0,1,1.31,1.49h.07c1.77,0,3.17,1.94,3.17,1.94l23.23,40.67-20,36s6.73,11.31,3.36,16.43l4.65,4.64s.74,2.49-2.63,2.49a10.06,10.06,0,0,1-3.9-1.26,255,255,0,0,1,.93,26.35c-.33-.1-1.31-.23-2.71-.41l0,1.72h0c-.07,12,0,29.22.68,33.16,1.11,6.16,0,9.19,0,9.19s3,47.93,3,48.3,4.24,5.82,4.24,5.82,5.61,4.42,10,7.92h0a12.83,12.83,0,0,1,3.65,1.54,3.64,3.64,0,0,1,1.11,2.3c.29.19.77.52,1.32.92a14.11,14.11,0,0,0,3.79.7c.6.6,0,1.26-.78,1.78.43.47.7.87.62,1.14-.28,1.05-4.34,5.32-11.69,5.32-.41,0-.83,0-1.27,0-7.7-.5-18.39-8.72-19.27-11a6.83,6.83,0,0,1,.12-4.61,12.84,12.84,0,0,1,1.82-5.45c1-1.82,1.72-7,1.72-7-11.11-39-4.75-44.46-6-47.29-.81-1.91-8.47-30.43-13.38-48.86a12.81,12.81,0,0,1-2.53-1.5A79,79,0,0,1,89,228l-1.4,3.54L74.35,264.73S71.84,274,68.86,277a131.27,131.27,0,0,1-7.37,21.31c-5.05,11.31-7.27,26.86-7.27,26.86s3.62,9.18,4,14.92c4.26,5.83,8.08,13,3,15.14a29.17,29.17,0,0,1-11,1.94c-6.11,0-11.59-1.44-12.87-2.71-2.05-2.05,3.78-17.61,3.78-17.61.18-1.41.57-2.77,1.4-3.35A24.9,24.9,0,0,0,47,328.6s-.76-2,1.36-4.74,5.25-20.22,5.25-22.51-2.82-19.39,6.6-26.12c0,0,1.08-21.86,3.84-37.68h0c.3-1.79.63-3.51,1-5.1-2.89.24-4.63.27-4.63.27s15.13-42.23,20-56.59a2.65,2.65,0,0,1,1.3-3.9c.07-.22.12-.41.16-.54,1.21-4.44-10.2-26.24-10.2-26.24l-9.63-6-6.69,30.89-4.54-1.71-6-9.32L33.9,126.55l-.33-.1a10.41,10.41,0,0,1-4.53-3.8,35.84,35.84,0,0,1-4.27.25h-.48a.7.7,0,0,1-.43-.09.81.81,0,0,1-.25-.53,46.86,46.86,0,0,0-2.45-8.6,1.42,1.42,0,0,1-.14-.75c.1-.47.64-.68,1.11-.72a2.87,2.87,0,0,0,1.38-.28c.52-.36.68-1.16,1.28-1.36a1,1,0,0,1,.3,0c.28,0,.56.09.84.09a.84.84,0,0,0,.35-.07c.48-.2.6-.82.93-1.23a3.34,3.34,0,0,1,2.05-.81,14.59,14.59,0,0,0,3.61-1.45.35.35,0,0,0,.21-.18.5.5,0,0,0,0-.21c-.56-2.58-1.73-5.16-2.28-7.75a58.26,58.26,0,0,1-.94-7.4A3.92,3.92,0,0,1,31.91,89a1.08,1.08,0,0,1,.52-.15.52.52,0,0,1,.24,0c.29.13.39.49.45.8.63,2.88,2.32,10.19,3,13.07.39,1.84,3.72,6.44,4.43,7s.81,1.23,1.62,1.84a1.69,1.69,0,0,1,.56.57,1.83,1.83,0,0,1,.15.81l.12,4.88c0,1.9,0,4-1.33,5.38h0L50.34,144l-.17-.59.23.46.26-21.8s6.79-6.09,7.67-7c.56-.57,4.74-3,7.62-4.67h0c3-3,9.48-5.39,9.48-5.39s6.16-7,7.47-8.28.71-5,.71-5l-3.38-13A25.39,25.39,0,0,1,71.93,71a3,3,0,0,1-2.2.88,7.73,7.73,0,0,1-3.93-1.49s-8.55-8.55-5.86-12.59a2.54,2.54,0,0,1,2.22-1.22c1.76,0,3.86,1.45,5.34,2.7-3-2.65-4.66-3-5.31-3H62l0,0,0,0-.06,0,0-.06c-.64-.32-3.5-1.89-3.75-4.55-4.83-1.52-3.9-4.21-3.9-4.21-4.64-3.16,0-8.25,0-8.25-2.07-2.07-.47-5.08-.47-5.08-2.42-3.43.61-7.67.61-7.67.33-3.71,5.89-5.89,5.89-5.89.44-1.85,2.72-2.73,2.72-2.73a4,4,0,0,1,3.73-2.3h.31c2-4.35,9.57-4.77,12.39-4.77.67,0,1.08,0,1.08,0A7.52,7.52,0,0,1,85,9.08m38,159.08,12.47-22.48-11.85-17.62c.31,5.06.51,10.26.45,15.16a196.16,196.16,0,0,1-1.75,23.89,1.67,1.67,0,0,1,.68,1m24.56,170.23h0M85,5.28h0A10.74,10.74,0,0,0,79.27,7c-4.14,0-11,.71-14.51,5a7.65,7.65,0,0,0-4.52,3,8.32,8.32,0,0,0-2.94,2.79c-2.12,1.11-5.73,3.51-6.62,7.33-1.31,2.22-2.49,5.87-1.12,9.37A8.37,8.37,0,0,0,49.67,39a9.73,9.73,0,0,0-1.32,5.82,7.59,7.59,0,0,0,2.06,4.39A6.58,6.58,0,0,0,51,50.88a8.36,8.36,0,0,0,4,3.65,9.27,9.27,0,0,0,1.33,2.1c-1.37,2.95-.54,6.68,2.48,11.1a39.79,39.79,0,0,0,4.39,5.32l.18.19.21.16a11.31,11.31,0,0,0,6.22,2.25,6.4,6.4,0,0,0,.88-.05,32.32,32.32,0,0,0,6.32,5.66l2.95,11.35a8,8,0,0,1,0,1.82c-1.46,1.53-5.19,5.72-6.72,7.44-2,.81-6.63,2.86-9.53,5.54-7,4-7.59,4.62-8,5-.58.58-4.92,4.49-7.51,6.82l-1.25,1.12v1.66l0,3.79-.94-2.24a13.34,13.34,0,0,0,.87-5.84l-.13-4.88A5.49,5.49,0,0,0,46,110.4a5.24,5.24,0,0,0-1.52-1.74l0-.07A7.07,7.07,0,0,0,43,106.87,24.83,24.83,0,0,1,39.76,102c-.31-1.48-.9-4-1.47-6.55s-1.15-5.06-1.46-6.48a4.6,4.6,0,0,0-2.56-3.44,4.33,4.33,0,0,0-1.84-.41,4.76,4.76,0,0,0-2.35.63,7.52,7.52,0,0,0-4,5.39c-.21,2,1,8.55,1,8.61A39,39,0,0,0,28.34,104c.08.26.17.51.25.77l-.09,0-.24,0a6.41,6.41,0,0,0-3.88,2,4,4,0,0,0-.76.17,4.75,4.75,0,0,0-2.2,1.51,4.78,4.78,0,0,0-4.11,3.67,5,5,0,0,0,.32,2.93,42.41,42.41,0,0,1,2.25,7.9,4.47,4.47,0,0,0,1.82,3,4.55,4.55,0,0,0,2.54.76h.53c.86,0,1.72,0,2.58-.08a14.7,14.7,0,0,0,3.47,2.71l10.4,31.17.16.45.26.4,6,9.31.68,1,1.17.45L54,173.86l4.12,1.55.93-4.3,5.54-25.61,4.17,2.62c.87,1.69,2.82,5.55,4.72,9.73,3.47,7.65,4.37,11,4.6,12.33a6.5,6.5,0,0,0-1.54,2.39,6.27,6.27,0,0,0-.15,3.58C71.19,191.37,57,231,56.83,231.44L55,236.62l5.4-.1-.06.32-.11.55v.08c-2.29,13.4-3.4,30.46-3.71,35.88-8.4,7.59-7.19,22-6.78,26.87,0,.44.09,1,.09,1.14-.07,2.52-3.06,17.84-4.49,20.22a9.86,9.86,0,0,0-2.26,5.93,16.53,16.53,0,0,1-2.69,2.83c-1.56,1.09-2.51,2.9-2.92,5.53-.41,1.12-1.6,4.45-2.62,8-2.22,7.68-2.25,11.15-.14,13.26,2.63,2.63,9.9,3.82,15.55,3.82a32.79,32.79,0,0,0,12.48-2.23,7.4,7.4,0,0,0,4.45-4.9c1-3.77-.61-8.59-5.24-15.13a72,72,0,0,0-3.82-13.94c.57-3.47,2.76-15.78,6.84-24.91a138.3,138.3,0,0,0,7.37-21.05c3-3.76,5.08-10.86,5.62-12.81l13.16-33,.74-1.85a82.43,82.43,0,0,0,9.89-3.86c10.42,39.07,12.34,45.49,12.86,46.94,0,.28-.11.74-.18,1.14-.77,4.6-2.56,15.32,5.91,45.31a25,25,0,0,1-1.16,4.88,16.31,16.31,0,0,0-2.29,6.62,10.44,10.44,0,0,0,.12,6.64c1.18,3.09,6.86,6.91,8.57,8,2.92,1.88,8.63,5.08,14,5.43.5,0,1,.05,1.51.05,8.75,0,14.56-5.21,15.35-8.12a4,4,0,0,0,.13-1.52,4.46,4.46,0,0,0-.95-5.08l-1-1-1.48-.07a12.49,12.49,0,0,1-2-.27,6.7,6.7,0,0,0-1.95-2.77,13.32,13.32,0,0,0-4.31-2.07c-3.58-2.86-7.79-6.18-9-7.17-1.22-1.58-2.57-3.36-3.22-4.29-.17-2.79-.77-12.45-2.94-46.74a25.17,25.17,0,0,0-.09-10.27c-.22-1.24-.72-6.58-.63-29.48l2.63.83.11-5.05c0-.49.23-10.43-.5-21.39a6.19,6.19,0,0,0,5.08-2.37,5.77,5.77,0,0,0,.87-5l-.28-.92-.68-.68-2.9-2.9c1.22-5.35-1.66-12-3.45-15.48l19-34.14,1.05-1.87-1.07-1.86-23.23-40.67-.1-.17-.11-.16a9.15,9.15,0,0,0-4.29-3.21c-.21-.23-.43-.46-.65-.68l-1-1-1.37-.13L112.29,96c-3.42-.5-9.52-1.74-13.7-4.56a27.22,27.22,0,0,1-.68-3.14c1.55.13,3.14.19,4.75.19,3.93,0,15.87,0,17.34-8.46,2.51-14.49-.51-32.91-7.21-45.23,1.33-2.31.89-5.14-.4-7.52a5.3,5.3,0,0,0,0-.69,8.58,8.58,0,0,0-3-5.13,8.17,8.17,0,0,0-.25-3.8c-.88-2.81-3.2-5-6.9-6.59a14,14,0,0,0-9.82-4,14.32,14.32,0,0,0-1.72.11A10,10,0,0,0,85,5.28Zm42.53,146.83c.16-2.74.27-5.73.31-8.85,0-.67,0-1.36,0-2.06l3.14,4.67-3.46,6.24Z" transform="translate(0 -1.97)"/><polyline class="cls-7" points="33.57 124.48 34.09 124.78 42.13 121.51"/></g></g></g></svg>