<svg xmlns="http://www.w3.org/2000/svg" xmlns:xlink="http://www.w3.org/1999/xlink" viewBox="0 0 881 398.63"><defs><style>.cls-1{fill:none;}.cls-2{fill:#65c4d1;}.cls-3{fill:#fff;}.cls-4{fill:#f9f9f9;}.cls-5{fill:#97d8dd;}.cls-6{clip-path:url(#clip-path);}.cls-7{fill:#6d472e;}.cls-8{fill:#eac2a7;}.cls-9{fill:#c9a68f;}.cls-10{fill:#d6aa8b;}.cls-11{fill:#d6d6d6;}.cls-12{fill:#c99f4b;}.cls-13{fill:#6d5f56;}.cls-14{fill:#493e38;}.cls-15{clip-path:url(#clip-path-2);}.cls-16{fill:#fcfcfc;}.cls-17{fill:#d32222;}.cls-18{fill:#f4f4f4;}.cls-19{clip-path:url(#clip-path-3);}.cls-20{fill:#b7b7b7;}.cls-21{fill:#c99e32;}.cls-22{clip-path:url(#clip-path-4);}.cls-23{fill:#aa7e30;}.cls-24{fill:#ddd;}.cls-25{fill:#846829;}.cls-26{fill:#e8cd95;}.cls-27{fill:#eaa000;}</style><clipPath id="clip-path" transform="translate(0 -2.19)"><path class="cls-1" d="M151.82,234.2s-31.17,23.68-83.39,4.22S16.22,69.5,16.22,69.5,64.25-1.87,75,0s73.36,14.05,73.36,37.07,27.87,126.38,27.87,126.38,11.71,45.33,5.86,48.78"/></clipPath><clipPath id="clip-path-2" transform="translate(0 -2.19)"><path class="cls-1" d="M109.28,75.75c-.25-.26,14.81.94,20.56-3.29,0,0,1.13,11.46-4,12.71C120.55,86.46,114.46,84.35,109.28,75.75Z"/></clipPath><clipPath id="clip-path-3" transform="translate(0 -2.19)"><path class="cls-1" d="M117.8,245.33c3.5,6.94,28.09,8.4,30.13,9,0,0,.64-27.85-3.28-43.5S117.8,245.33,117.8,245.33Z"/></clipPath><clipPath id="clip-path-4" transform="translate(0 -2.19)"><path class="cls-1" d="M87.9,72.69c4.33,1.8.59-6,.59-6s-.41-7.79-2.61-9.12a32,32,0,0,1-4.82-3.93l11.09-7.6,30.29-20.77s4.18-5.83-5.39-9.42a11.39,11.39,0,0,0-11.58-3.44s-4.19-5-10.25-.41c0,0-12.18-.71-15,5.27a4.56,4.56,0,0,0-4.49,2.54s-2.54,1-3,3c0,0-6.17,2.43-6.55,6.54,0,0-3.36,4.71-.67,8.53,0,0-1.78,3.34.52,5.64,0,0-5.15,5.65,0,9.16,0,0-1.27,3.66,6.28,5.16l2.25,4.63s2.16-1,8.37,5.24Z"/></clipPath></defs><title>6-intro</title><g id="Camada_2" data-name="Camada 2"><g id="Camada_1-2" data-name="Camada 1"><path class="cls-2" d="M871,198.18H152V110.82H871a10,10,0,0,1,10,10v67.36A10,10,0,0,1,871,198.18Z" transform="translate(0 -2.19)"/><path class="cls-3" d="M269.76,139h-1.63l-.44-2.41a4.42,4.42,0,0,0-1.38-.91,5,5,0,0,0-2-.35,4.79,4.79,0,0,0-4.09,1.93,8,8,0,0,0-1.43,4.89v.27a8.15,8.15,0,0,0,1.41,4.91,4.51,4.51,0,0,0,3.88,1.93,5.91,5.91,0,0,0,2.11-.36,4,4,0,0,0,1.46-.89l.44-2.41h1.63v3a6.53,6.53,0,0,1-2.22,1.7,7.55,7.55,0,0,1-3.42.74,6.9,6.9,0,0,1-5.46-2.46,9.11,9.11,0,0,1-2.13-6.19v-.24a9.27,9.27,0,0,1,2.09-6.21,6.88,6.88,0,0,1,5.5-2.46,7.43,7.43,0,0,1,3.42.76,6.64,6.64,0,0,1,2.22,1.69Z" transform="translate(0 -2.19)"/><path class="cls-3" d="M272.23,144.33a7,7,0,0,1,1.52-4.64,5.63,5.63,0,0,1,8.29,0,6.94,6.94,0,0,1,1.53,4.64v.25a6.92,6.92,0,0,1-1.52,4.64,5.66,5.66,0,0,1-8.3,0,7,7,0,0,1-1.52-4.64Zm2.31.25a6,6,0,0,0,.85,3.33,3.06,3.06,0,0,0,5,0,6,6,0,0,0,.85-3.33v-.25a6,6,0,0,0-.85-3.32,3.06,3.06,0,0,0-5,0,6.08,6.08,0,0,0-.84,3.32Z" transform="translate(0 -2.19)"/><path class="cls-3" d="M285.23,149.31l1.91-.33v-9.06l-1.91-.33V138.1h4l.15,1.66a4.14,4.14,0,0,1,1.57-1.4,4.82,4.82,0,0,1,2.23-.49,3.83,3.83,0,0,1,2.17.59,3.54,3.54,0,0,1,1.37,1.75,4.65,4.65,0,0,1,1.58-1.71,4.18,4.18,0,0,1,2.3-.63,3.81,3.81,0,0,1,3.07,1.33,6.08,6.08,0,0,1,1.12,4V149l1.91.33v1.47h-6.14v-1.47l1.91-.33v-5.8a4.24,4.24,0,0,0-.64-2.66,2.34,2.34,0,0,0-1.91-.78,2.45,2.45,0,0,0-1.94.85,3.71,3.71,0,0,0-.85,2.14V149l1.91.33v1.47h-6.13v-1.47l1.91-.33v-5.8a4.17,4.17,0,0,0-.66-2.61,2.32,2.32,0,0,0-1.92-.83,3.15,3.15,0,0,0-1.73.44,2.79,2.79,0,0,0-1.05,1.22V149l1.91.33v1.47h-6.12Z" transform="translate(0 -2.19)"/><path class="cls-3" d="M314.33,144.33a7,7,0,0,1,1.53-4.64,5.63,5.63,0,0,1,8.29,0,6.94,6.94,0,0,1,1.53,4.64v.25a7,7,0,0,1-1.52,4.64,5.66,5.66,0,0,1-8.3,0,6.94,6.94,0,0,1-1.53-4.64Zm2.31.25a6,6,0,0,0,.85,3.33,2.81,2.81,0,0,0,2.53,1.31,2.78,2.78,0,0,0,2.49-1.31,6,6,0,0,0,.86-3.33v-.25a6,6,0,0,0-.86-3.32,3,3,0,0,0-5,0,6,6,0,0,0-.85,3.32Z" transform="translate(0 -2.19)"/><path class="cls-3" d="M337.49,142.09h-1.73l-.38-1.53a3.14,3.14,0,0,0-1.06-.63,4.08,4.08,0,0,0-1.45-.24,2.67,2.67,0,0,0-1.82.53,1.7,1.7,0,0,0-.6,1.31,1.42,1.42,0,0,0,.53,1.18,5.31,5.31,0,0,0,2.14.77,9.31,9.31,0,0,1,3.57,1.4,2.81,2.81,0,0,1,1.18,2.38A3.29,3.29,0,0,1,336.5,150a5.75,5.75,0,0,1-3.57,1,9.41,9.41,0,0,1-2.59-.33,7.18,7.18,0,0,1-2-1v-2.9H330l.44,1.7a2.33,2.33,0,0,0,1.08.53,6,6,0,0,0,1.4.16,3.28,3.28,0,0,0,1.93-.49,1.54,1.54,0,0,0,.7-1.31,1.57,1.57,0,0,0-.58-1.25,5.41,5.41,0,0,0-2.2-.86,9.25,9.25,0,0,1-3.48-1.37,2.77,2.77,0,0,1-1.17-2.34,3.31,3.31,0,0,1,1.32-2.64,5.18,5.18,0,0,1,3.42-1.09,8.31,8.31,0,0,1,2.59.37,5.23,5.23,0,0,1,1.91,1Z" transform="translate(0 -2.19)"/><path class="cls-3" d="M351.68,149.22a3.1,3.1,0,0,0,2-.7,2.17,2.17,0,0,0,.88-1.74h2.07l0,.07a3.55,3.55,0,0,1-1.45,2.91,5.34,5.34,0,0,1-3.54,1.27,5.09,5.09,0,0,1-4.22-1.81,7,7,0,0,1-1.46-4.53v-.49a7,7,0,0,1,1.46-4.52,5.12,5.12,0,0,1,4.22-1.81,7.19,7.19,0,0,1,2.74.5,5.52,5.52,0,0,1,2,1.39l.1,2.81h-1.84l-.5-2a3,3,0,0,0-1.05-.65,4.18,4.18,0,0,0-1.46-.24,2.77,2.77,0,0,0-2.59,1.3,6.16,6.16,0,0,0-.78,3.21v.49a6.27,6.27,0,0,0,.77,3.24A2.79,2.79,0,0,0,351.68,149.22Z" transform="translate(0 -2.19)"/><path class="cls-3" d="M358.94,144.33a7,7,0,0,1,1.52-4.64,5.63,5.63,0,0,1,8.29,0,6.94,6.94,0,0,1,1.53,4.64v.25a7,7,0,0,1-1.52,4.64,5.66,5.66,0,0,1-8.3,0,6.93,6.93,0,0,1-1.52-4.64Zm2.31.25a6,6,0,0,0,.84,3.33,3.07,3.07,0,0,0,5,0,6,6,0,0,0,.85-3.33v-.25a6,6,0,0,0-.85-3.32,3.06,3.06,0,0,0-5,0,6.08,6.08,0,0,0-.84,3.32Z" transform="translate(0 -2.19)"/><path class="cls-3" d="M372.05,149.31,374,149v-9.06l-1.91-.33V138.1h4l.17,1.89a4.62,4.62,0,0,1,1.58-1.56,4.29,4.29,0,0,1,2.18-.56,4.12,4.12,0,0,1,3.17,1.2,5.28,5.28,0,0,1,1.13,3.71V149l1.91.33v1.47H380v-1.47l1.91-.33v-6.15a3.44,3.44,0,0,0-.66-2.38,2.65,2.65,0,0,0-2-.71,3.26,3.26,0,0,0-1.77.48,3.53,3.53,0,0,0-1.22,1.32V149l1.91.33v1.47h-6.13Z" transform="translate(0 -2.19)"/><path class="cls-3" d="M387.52,149.31l1.91-.33V134.32l-1.91-.33V132.5h4.22v7.29a4.62,4.62,0,0,1,1.6-1.42,4.53,4.53,0,0,1,2.11-.5,4.11,4.11,0,0,1,3.17,1.22,5.37,5.37,0,0,1,1.12,3.75V149l1.91.33v1.47h-6.13v-1.47l1.91-.33v-6.17a3.4,3.4,0,0,0-.67-2.32,2.57,2.57,0,0,0-2-.75,3.32,3.32,0,0,0-1.73.46,3.64,3.64,0,0,0-1.28,1.22V149l1.91.33v1.47h-6.13Z" transform="translate(0 -2.19)"/><path class="cls-3" d="M409,151a5.35,5.35,0,0,1-4.21-1.76,6.63,6.63,0,0,1-1.57-4.58v-.52a6.52,6.52,0,0,1,1.61-4.5,5,5,0,0,1,3.82-1.8,4.81,4.81,0,0,1,3.87,1.55,6.12,6.12,0,0,1,1.32,4.12V145h-8.23l0,.06a5,5,0,0,0,.92,3,3,3,0,0,0,2.5,1.17,5.9,5.9,0,0,0,2.06-.33,4.55,4.55,0,0,0,1.52-.92l.91,1.5a5.63,5.63,0,0,1-1.8,1.11A7.21,7.21,0,0,1,409,151Zm-.35-11.34a2.48,2.48,0,0,0-2,1,4.63,4.63,0,0,0-1,2.46l0,.06h5.85v-.31a3.51,3.51,0,0,0-.73-2.27A2.57,2.57,0,0,0,408.65,139.69Z" transform="translate(0 -2.19)"/><path class="cls-3" d="M421.81,149.22a3.12,3.12,0,0,0,2-.7,2.19,2.19,0,0,0,.87-1.74h2.08l0,.07a3.56,3.56,0,0,1-1.46,2.91,5.32,5.32,0,0,1-3.53,1.27,5.11,5.11,0,0,1-4.23-1.81,7,7,0,0,1-1.46-4.53v-.49a6.94,6.94,0,0,1,1.47-4.52,5.1,5.1,0,0,1,4.22-1.81,7.14,7.14,0,0,1,2.73.5,5.52,5.52,0,0,1,2,1.39l.11,2.81h-1.84l-.5-2a3.17,3.17,0,0,0-1.06-.65,4.12,4.12,0,0,0-1.45-.24,2.79,2.79,0,0,0-2.6,1.3,6.16,6.16,0,0,0-.78,3.21v.49a6.17,6.17,0,0,0,.78,3.24A2.78,2.78,0,0,0,421.81,149.22Z" transform="translate(0 -2.19)"/><path class="cls-3" d="M429.05,149.31,431,149v-9.06l-1.91-.33V138.1h4.22V149l1.91.33v1.47h-6.13Zm4.22-14.45H431V132.5h2.31Z" transform="translate(0 -2.19)"/><path class="cls-3" d="M436.48,149.31l1.91-.33v-9.06l-1.91-.33V138.1h4l.16,1.66a4.07,4.07,0,0,1,1.57-1.4,4.78,4.78,0,0,1,2.22-.49,3.87,3.87,0,0,1,2.18.59,3.52,3.52,0,0,1,1.36,1.75,4.74,4.74,0,0,1,1.58-1.71,4.2,4.2,0,0,1,2.3-.63,3.79,3.79,0,0,1,3.07,1.33,6.08,6.08,0,0,1,1.13,4V149l1.91.33v1.47H451.8v-1.47l1.91-.33v-5.8a4.23,4.23,0,0,0-.65-2.66,2.33,2.33,0,0,0-1.91-.78,2.46,2.46,0,0,0-1.94.85,3.71,3.71,0,0,0-.85,2.14V149l1.91.33v1.47h-6.13v-1.47l1.91-.33v-5.8a4.17,4.17,0,0,0-.66-2.61,2.31,2.31,0,0,0-1.91-.83,3.16,3.16,0,0,0-1.74.44,2.77,2.77,0,0,0-1,1.22V149l1.91.33v1.47h-6.13Z" transform="translate(0 -2.19)"/><path class="cls-3" d="M465.28,151a5.36,5.36,0,0,1-4.21-1.76,6.68,6.68,0,0,1-1.56-4.58v-.52a6.47,6.47,0,0,1,1.61-4.5,5,5,0,0,1,3.81-1.8,4.82,4.82,0,0,1,3.88,1.55,6.17,6.17,0,0,1,1.31,4.12V145H461.9l0,.06a5,5,0,0,0,.93,3,2.94,2.94,0,0,0,2.49,1.17,5.86,5.86,0,0,0,2.06-.33,4.7,4.7,0,0,0,1.53-.92l.9,1.5a5.42,5.42,0,0,1-1.8,1.11A7.18,7.18,0,0,1,465.28,151Zm-.35-11.34a2.51,2.51,0,0,0-2,1,4.79,4.79,0,0,0-1,2.46l0,.06h5.85v-.31a3.57,3.57,0,0,0-.73-2.27A2.59,2.59,0,0,0,464.93,139.69Z" transform="translate(0 -2.19)"/><path class="cls-3" d="M472.06,149.31,474,149v-9.06l-1.91-.33V138.1h4l.16,1.89a4.73,4.73,0,0,1,1.59-1.56,4.26,4.26,0,0,1,2.18-.56,4.14,4.14,0,0,1,3.17,1.2,5.28,5.28,0,0,1,1.13,3.71V149l1.91.33v1.47H480v-1.47L482,149v-6.15a3.44,3.44,0,0,0-.66-2.38,2.68,2.68,0,0,0-2-.71,3.25,3.25,0,0,0-1.76.48,3.53,3.53,0,0,0-1.22,1.32V149l1.91.33v1.47h-6.13Z" transform="translate(0 -2.19)"/><path class="cls-3" d="M491.87,135.05v3h2.41v1.71h-2.41v7.7a1.75,1.75,0,0,0,.37,1.26,1.36,1.36,0,0,0,1,.36,6.21,6.21,0,0,0,.69,0l.64-.11.31,1.58a2.78,2.78,0,0,1-1,.34,6,6,0,0,1-1.26.14,3,3,0,0,1-2.24-.85,3.68,3.68,0,0,1-.83-2.67v-7.7h-2V138.1h2v-3Z" transform="translate(0 -2.19)"/><path class="cls-3" d="M496.41,144.33a7,7,0,0,1,1.52-4.64,5.63,5.63,0,0,1,8.29,0,6.94,6.94,0,0,1,1.53,4.64v.25a6.92,6.92,0,0,1-1.52,4.64,5.66,5.66,0,0,1-8.3,0,7,7,0,0,1-1.52-4.64Zm2.31.25a6,6,0,0,0,.85,3.33,3.06,3.06,0,0,0,5,0,6,6,0,0,0,.85-3.33v-.25a6,6,0,0,0-.85-3.32,3.06,3.06,0,0,0-5,0,6.08,6.08,0,0,0-.84,3.32Z" transform="translate(0 -2.19)"/><path class="cls-3" d="M519.57,142.09h-1.74l-.37-1.53a3.35,3.35,0,0,0-1.06-.63,4.12,4.12,0,0,0-1.45-.24,2.72,2.72,0,0,0-1.83.53,1.7,1.7,0,0,0-.6,1.31,1.45,1.45,0,0,0,.53,1.18,5.37,5.37,0,0,0,2.14.77,9.3,9.3,0,0,1,3.58,1.4,2.83,2.83,0,0,1,1.17,2.38,3.28,3.28,0,0,1-1.36,2.73,5.75,5.75,0,0,1-3.57,1,9.35,9.35,0,0,1-2.59-.33,7.06,7.06,0,0,1-2-1l0-2.9h1.74l.43,1.7a2.37,2.37,0,0,0,1.09.53,5.89,5.89,0,0,0,1.4.16,3.25,3.25,0,0,0,1.92-.49,1.6,1.6,0,0,0,.12-2.56,5.35,5.35,0,0,0-2.2-.86,9.39,9.39,0,0,1-3.48-1.37,2.77,2.77,0,0,1-1.17-2.34,3.31,3.31,0,0,1,1.32-2.64,5.19,5.19,0,0,1,3.43-1.09,8.35,8.35,0,0,1,2.59.37,5.4,5.4,0,0,1,1.91,1Z" transform="translate(0 -2.19)"/><path class="cls-3" d="M528.06,139.59V138.1h4l.23,1.84a4.5,4.5,0,0,1,1.33-1.52,3.05,3.05,0,0,1,1.81-.55,3.48,3.48,0,0,1,.55,0,3.27,3.27,0,0,1,.44.09l-.3,2.14-1.31-.07a2.71,2.71,0,0,0-1.54.43,2.88,2.88,0,0,0-1,1.2V149l1.91.33v1.47h-6.13v-1.47L530,149v-9.06Z" transform="translate(0 -2.19)"/><path class="cls-3" d="M543.55,151a5.36,5.36,0,0,1-4.21-1.76,6.68,6.68,0,0,1-1.56-4.58v-.52a6.47,6.47,0,0,1,1.61-4.5,5,5,0,0,1,3.81-1.8,4.82,4.82,0,0,1,3.88,1.55,6.17,6.17,0,0,1,1.31,4.12V145h-8.22l0,.06a5,5,0,0,0,.93,3,2.94,2.94,0,0,0,2.49,1.17,5.9,5.9,0,0,0,2.06-.33,4.7,4.7,0,0,0,1.53-.92l.9,1.5a5.42,5.42,0,0,1-1.8,1.11A7.18,7.18,0,0,1,543.55,151Zm-.35-11.34a2.51,2.51,0,0,0-2,1,4.71,4.71,0,0,0-1,2.46l0,.06h5.84v-.31a3.56,3.56,0,0,0-.72-2.27A2.59,2.59,0,0,0,543.2,139.69Z" transform="translate(0 -2.19)"/><path class="cls-3" d="M559.74,148.91a4.3,4.3,0,0,1-1.54,1.57A4.23,4.23,0,0,1,556,151a4.06,4.06,0,0,1-3.22-1.32,6.19,6.19,0,0,1-1.16-4.13v-5.66l-1.45-.33V138.1H554v7.5a4.68,4.68,0,0,0,.6,2.79,2.2,2.2,0,0,0,1.86.76,3.79,3.79,0,0,0,2-.49,3.2,3.2,0,0,0,1.22-1.42v-7.32l-1.7-.33V138.1h4V149l1.46.33v1.47h-3.53Z" transform="translate(0 -2.19)"/><path class="cls-3" d="M564.91,149.31l1.91-.33v-9.06l-1.91-.33V138.1h4L569,140a4.56,4.56,0,0,1,1.59-1.56,4.25,4.25,0,0,1,2.17-.56,4.15,4.15,0,0,1,3.18,1.2,5.28,5.28,0,0,1,1.12,3.71V149l1.91.33v1.47h-6.12v-1.47l1.91-.33v-6.15a3.39,3.39,0,0,0-.67-2.38,2.64,2.64,0,0,0-2-.71,3.25,3.25,0,0,0-1.76.48,3.64,3.64,0,0,0-1.23,1.32V149l1.91.33v1.47h-6.12Z" transform="translate(0 -2.19)"/><path class="cls-3" d="M580.69,149.31l1.91-.33v-9.06l-1.91-.33V138.1h4.22V149l1.91.33v1.47h-6.13Zm4.22-14.45H582.6V132.5h2.31Z" transform="translate(0 -2.19)"/><path class="cls-3" d="M597.12,149.27a4,4,0,0,1-1.52,1.31,4.58,4.58,0,0,1-2.08.45,4.33,4.33,0,0,1-3.62-1.68,7,7,0,0,1-1.31-4.43v-.24a8.42,8.42,0,0,1,1.31-4.94,4.18,4.18,0,0,1,3.65-1.87,4.44,4.44,0,0,1,2,.42,3.87,3.87,0,0,1,1.47,1.2v-5.17l-1.91-.33V132.5h4.22V149l1.91.33v1.47h-3.91Zm-6.22-4.35a5.39,5.39,0,0,0,.78,3.07,2.72,2.72,0,0,0,2.43,1.16,3.06,3.06,0,0,0,1.73-.46,3.6,3.6,0,0,0,1.16-1.33v-5.88a3.55,3.55,0,0,0-1.16-1.27,3,3,0,0,0-1.71-.47,2.62,2.62,0,0,0-2.44,1.38,7,7,0,0,0-.79,3.56Z" transform="translate(0 -2.19)"/><path class="cls-3" d="M603,144.33a7,7,0,0,1,1.52-4.64,5.64,5.64,0,0,1,8.3,0,6.93,6.93,0,0,1,1.52,4.64v.25a6.92,6.92,0,0,1-1.52,4.64,5.1,5.1,0,0,1-4.14,1.81,5.16,5.16,0,0,1-4.16-1.81,7,7,0,0,1-1.52-4.64Zm2.31.25a6,6,0,0,0,.85,3.33,3.06,3.06,0,0,0,5,0,6,6,0,0,0,.86-3.33v-.25a6,6,0,0,0-.86-3.32,3.06,3.06,0,0,0-5,0,6.08,6.08,0,0,0-.84,3.32Z" transform="translate(0 -2.19)"/><path class="cls-3" d="M626.15,142.09h-1.74l-.37-1.53a3.24,3.24,0,0,0-1.06-.63,4.12,4.12,0,0,0-1.45-.24,2.72,2.72,0,0,0-1.83.53,1.7,1.7,0,0,0-.6,1.31,1.45,1.45,0,0,0,.53,1.18,5.37,5.37,0,0,0,2.15.77,9.31,9.31,0,0,1,3.57,1.4,2.83,2.83,0,0,1,1.17,2.38,3.28,3.28,0,0,1-1.36,2.73,5.75,5.75,0,0,1-3.57,1,9.35,9.35,0,0,1-2.59-.33,7.06,7.06,0,0,1-2-1v-2.9h1.73l.43,1.7a2.37,2.37,0,0,0,1.09.53,6,6,0,0,0,1.4.16,3.3,3.3,0,0,0,1.93-.49,1.61,1.61,0,0,0,.11-2.56,5.35,5.35,0,0,0-2.19-.86,9.25,9.25,0,0,1-3.48-1.37,2.75,2.75,0,0,1-1.18-2.34A3.31,3.31,0,0,1,618.1,139a5.19,5.19,0,0,1,3.43-1.09,8.35,8.35,0,0,1,2.59.37,5.32,5.32,0,0,1,1.91,1Z" transform="translate(0 -2.19)"/><path class="cls-3" d="M642.92,150.78c-.07-.34-.13-.65-.17-.92s-.06-.55-.08-.82a5.51,5.51,0,0,1-1.67,1.42,4.77,4.77,0,0,1-5.15-.4,3.53,3.53,0,0,1-1-2.72,3.16,3.16,0,0,1,1.46-2.78,7,7,0,0,1,4-1h2.38V142.1a2.3,2.3,0,0,0-.7-1.76,2.76,2.76,0,0,0-2-.65,4.75,4.75,0,0,0-1.53.22,2.84,2.84,0,0,0-1.07.61l-.25,1.33h-1.78v-2.46a6.74,6.74,0,0,1,2.1-1.1,8.21,8.21,0,0,1,2.67-.42,5.32,5.32,0,0,1,3.49,1.1,3.87,3.87,0,0,1,1.34,3.15v6.59l0,.47.94.13v1.47Zm-3.72-1.68a4.16,4.16,0,0,0,2.1-.55,3.42,3.42,0,0,0,1.36-1.33v-2.08H640.2a3.5,3.5,0,0,0-2.25.65,2,2,0,0,0-.82,1.6,1.6,1.6,0,0,0,.51,1.27A2.4,2.4,0,0,0,639.2,149.1Z" transform="translate(0 -2.19)"/><path class="cls-3" d="M651.89,135.05v3h2.41v1.71h-2.41v7.7a1.75,1.75,0,0,0,.37,1.26,1.35,1.35,0,0,0,1,.36,6.21,6.21,0,0,0,.69,0l.64-.11.31,1.58a2.78,2.78,0,0,1-1,.34,6,6,0,0,1-1.26.14,3,3,0,0,1-2.24-.85,3.69,3.69,0,0,1-.84-2.67v-7.7h-2V138.1h2v-3Z" transform="translate(0 -2.19)"/><path class="cls-3" d="M662.44,151a5.35,5.35,0,0,1-4.21-1.76,6.63,6.63,0,0,1-1.57-4.58v-.52a6.52,6.52,0,0,1,1.61-4.5,5,5,0,0,1,3.82-1.8,4.81,4.81,0,0,1,3.87,1.55,6.12,6.12,0,0,1,1.32,4.12V145h-8.23l0,.06a5,5,0,0,0,.92,3,3,3,0,0,0,2.5,1.17,5.9,5.9,0,0,0,2.06-.33A4.7,4.7,0,0,0,666,148l.9,1.5a5.42,5.42,0,0,1-1.8,1.11A7.21,7.21,0,0,1,662.44,151Zm-.35-11.34a2.51,2.51,0,0,0-2,1,4.71,4.71,0,0,0-1,2.46l0,.06H665v-.31a3.56,3.56,0,0,0-.72-2.27A2.6,2.6,0,0,0,662.09,139.69Zm.7-6.46h2.7l0,.07-3.15,3h-1.72Z" transform="translate(0 -2.19)"/><path class="cls-3" d="M683.79,150.78c-.07-.34-.12-.65-.16-.92a7.84,7.84,0,0,1-.08-.82,5.76,5.76,0,0,1-1.67,1.42,4.26,4.26,0,0,1-2.14.57,4.21,4.21,0,0,1-3-1,3.53,3.53,0,0,1-1-2.72,3.16,3.16,0,0,1,1.46-2.78,7.08,7.08,0,0,1,4-1h2.37V142.1a2.27,2.27,0,0,0-.7-1.76,2.75,2.75,0,0,0-2-.65,4.83,4.83,0,0,0-1.53.22,2.92,2.92,0,0,0-1.07.61l-.24,1.33h-1.78v-2.46a6.58,6.58,0,0,1,2.09-1.1,8.21,8.21,0,0,1,2.67-.42,5.35,5.35,0,0,1,3.5,1.1,3.86,3.86,0,0,1,1.33,3.15v6.11c0,.16,0,.32,0,.48a3.71,3.71,0,0,0,0,.47l.94.13v1.47Zm-3.71-1.68a4.15,4.15,0,0,0,2.09-.55,3.35,3.35,0,0,0,1.36-1.33v-2.08h-2.46a3.49,3.49,0,0,0-2.24.65,2,2,0,0,0-.83,1.6,1.57,1.57,0,0,0,.52,1.27A2.36,2.36,0,0,0,680.08,149.1Z" transform="translate(0 -2.19)"/><path class="cls-3" d="M688.75,144.68a8.35,8.35,0,0,1,1.33-4.94,4.31,4.31,0,0,1,3.7-1.87,4.5,4.5,0,0,1,2.09.47,4,4,0,0,1,1.52,1.36l.21-1.6h1.94v12.52a5.33,5.33,0,0,1-1.37,3.87,5.18,5.18,0,0,1-3.9,1.41,8.52,8.52,0,0,1-2-.25,7.82,7.82,0,0,1-1.88-.68l.6-1.8a7.27,7.27,0,0,0,3.24.79,2.76,2.76,0,0,0,2.26-.87,3.77,3.77,0,0,0,.72-2.47v-1.21a4.08,4.08,0,0,1-1.48,1.21,4.7,4.7,0,0,1-2,.41,4.43,4.43,0,0,1-3.67-1.69,6.91,6.91,0,0,1-1.33-4.42Zm2.31.24a5.24,5.24,0,0,0,.81,3.07,2.78,2.78,0,0,0,2.46,1.16,3,3,0,0,0,1.74-.47,3.56,3.56,0,0,0,1.16-1.34V141.5a3.5,3.5,0,0,0-1.16-1.28,3,3,0,0,0-1.72-.48,2.69,2.69,0,0,0-2.47,1.39,6.83,6.83,0,0,0-.82,3.55Z" transform="translate(0 -2.19)"/><path class="cls-3" d="M702.33,144.33a7,7,0,0,1,1.52-4.64,5.64,5.64,0,0,1,8.3,0,6.93,6.93,0,0,1,1.52,4.64v.25a6.92,6.92,0,0,1-1.52,4.64A5.1,5.1,0,0,1,708,151a5.16,5.16,0,0,1-4.16-1.81,7,7,0,0,1-1.52-4.64Zm2.31.25a6,6,0,0,0,.85,3.33,3.06,3.06,0,0,0,5,0,6,6,0,0,0,.86-3.33v-.25a6,6,0,0,0-.86-3.32,3.06,3.06,0,0,0-5,0,6.08,6.08,0,0,0-.84,3.32Z" transform="translate(0 -2.19)"/><path class="cls-3" d="M715.78,139.59V138.1h4l.22,1.84a4.5,4.5,0,0,1,1.33-1.52,3.07,3.07,0,0,1,1.81-.55,3.6,3.6,0,0,1,.56,0l.44.09-.31,2.14-1.31-.07a2.71,2.71,0,0,0-1.54.43,2.88,2.88,0,0,0-1,1.2V149l1.91.33v1.47h-6.13v-1.47l1.91-.33v-9.06Z" transform="translate(0 -2.19)"/><path class="cls-3" d="M734,150.78c-.07-.34-.12-.65-.16-.92a7.84,7.84,0,0,1-.08-.82,5.63,5.63,0,0,1-1.67,1.42,4.26,4.26,0,0,1-2.14.57,4.21,4.21,0,0,1-3-1,3.53,3.53,0,0,1-1-2.72,3.15,3.15,0,0,1,1.45-2.78,7.08,7.08,0,0,1,4-1h2.38V142.1a2.28,2.28,0,0,0-.71-1.76,2.74,2.74,0,0,0-1.95-.65,4.75,4.75,0,0,0-1.53.22,2.88,2.88,0,0,0-1.08.61l-.24,1.33h-1.78v-2.46a6.58,6.58,0,0,1,2.09-1.1,8.27,8.27,0,0,1,2.68-.42,5.34,5.34,0,0,1,3.49,1.1,3.86,3.86,0,0,1,1.33,3.15v6.11c0,.16,0,.32,0,.48a3.71,3.71,0,0,0,0,.47l.94.13v1.47Zm-3.71-1.68a4.22,4.22,0,0,0,2.1-.55,3.48,3.48,0,0,0,1.36-1.33v-2.08h-2.47a3.49,3.49,0,0,0-2.24.65,2,2,0,0,0-.83,1.6,1.61,1.61,0,0,0,.52,1.27A2.36,2.36,0,0,0,730.27,149.1Z" transform="translate(0 -2.19)"/><path class="cls-3" d="M741.58,149.94a5.62,5.62,0,0,1-.58,2.4,6.05,6.05,0,0,1-1.54,2.09l-1.3-.87a7.54,7.54,0,0,0,.83-1.72,6.36,6.36,0,0,0,.28-1.87v-1.78h2.31Z" transform="translate(0 -2.19)"/><path class="cls-3" d="M754,139.59l-1.53.24,2.62,7.22.21.91h.07l.22-.91,2.53-7.22-1.53-.24V138.1h4.89v1.49l-1,.18-4.25,11h-1.75l-4.3-11-1-.18V138.1H754Z" transform="translate(0 -2.19)"/><path class="cls-3" d="M771.12,150.78c-.07-.34-.12-.65-.16-.92s-.07-.55-.09-.82a5.51,5.51,0,0,1-1.67,1.42,4.77,4.77,0,0,1-5.15-.4,3.56,3.56,0,0,1-1-2.72,3.16,3.16,0,0,1,1.46-2.78,7,7,0,0,1,4-1h2.38V142.1a2.27,2.27,0,0,0-.7-1.76,2.75,2.75,0,0,0-2-.65,4.75,4.75,0,0,0-1.53.22,2.84,2.84,0,0,0-1.07.61l-.25,1.33h-1.78v-2.46a6.74,6.74,0,0,1,2.1-1.1,8.21,8.21,0,0,1,2.67-.42,5.32,5.32,0,0,1,3.49,1.1,3.84,3.84,0,0,1,1.34,3.15v6.11c0,.16,0,.32,0,.48a3.71,3.71,0,0,0,0,.47l.93.13v1.47Zm-3.71-1.68a4.15,4.15,0,0,0,2.09-.55,3.35,3.35,0,0,0,1.36-1.33v-2.08H768.4a3.49,3.49,0,0,0-2.24.65,2,2,0,0,0-.83,1.6,1.57,1.57,0,0,0,.52,1.27A2.36,2.36,0,0,0,767.41,149.1Z" transform="translate(0 -2.19)"/><path class="cls-3" d="M775.61,149.31l1.91-.33v-9.06l-1.91-.33V138.1h4l.16,1.66a4,4,0,0,1,1.57-1.4,4.78,4.78,0,0,1,2.22-.49,3.87,3.87,0,0,1,2.18.59,3.52,3.52,0,0,1,1.36,1.75,4.74,4.74,0,0,1,1.58-1.71,4.18,4.18,0,0,1,2.3-.63A3.79,3.79,0,0,1,794,139.2a6.08,6.08,0,0,1,1.13,4V149l1.91.33v1.47h-6.15v-1.47l1.91-.33v-5.8a4.24,4.24,0,0,0-.64-2.66,2.34,2.34,0,0,0-1.91-.78,2.46,2.46,0,0,0-1.94.85,3.71,3.71,0,0,0-.85,2.14V149l1.91.33v1.47h-6.13v-1.47l1.91-.33v-5.8a4.17,4.17,0,0,0-.66-2.61,2.32,2.32,0,0,0-1.92-.83,3.15,3.15,0,0,0-1.73.44,2.77,2.77,0,0,0-1,1.22V149l1.91.33v1.47h-6.13Z" transform="translate(0 -2.19)"/><path class="cls-3" d="M798.64,144.33a7,7,0,0,1,1.52-4.64,5.63,5.63,0,0,1,8.29,0,6.94,6.94,0,0,1,1.53,4.64v.25a7,7,0,0,1-1.52,4.64,5.66,5.66,0,0,1-8.3,0,6.93,6.93,0,0,1-1.52-4.64Zm2.3.25a6,6,0,0,0,.85,3.33,3.07,3.07,0,0,0,5,0,6,6,0,0,0,.85-3.33v-.25a6,6,0,0,0-.85-3.32,3.06,3.06,0,0,0-5,0,6.08,6.08,0,0,0-.85,3.32Z" transform="translate(0 -2.19)"/><path class="cls-3" d="M821.79,142.09h-1.73l-.38-1.53a3.14,3.14,0,0,0-1.06-.63,4.08,4.08,0,0,0-1.45-.24,2.69,2.69,0,0,0-1.82.53,1.7,1.7,0,0,0-.6,1.31,1.42,1.42,0,0,0,.53,1.18,5.31,5.31,0,0,0,2.14.77,9.44,9.44,0,0,1,3.58,1.4,2.83,2.83,0,0,1,1.17,2.38A3.29,3.29,0,0,1,820.8,150a5.75,5.75,0,0,1-3.57,1,9.41,9.41,0,0,1-2.59-.33,7.18,7.18,0,0,1-2-1v-2.9h1.74l.43,1.7a2.33,2.33,0,0,0,1.08.53,6,6,0,0,0,1.4.16,3.28,3.28,0,0,0,1.93-.49,1.6,1.6,0,0,0,.12-2.56,5.41,5.41,0,0,0-2.2-.86,9.25,9.25,0,0,1-3.48-1.37,2.77,2.77,0,0,1-1.17-2.34,3.31,3.31,0,0,1,1.32-2.64,5.18,5.18,0,0,1,3.42-1.09,8.26,8.26,0,0,1,2.59.37,5.23,5.23,0,0,1,1.91,1Z" transform="translate(0 -2.19)"/><path class="cls-3" d="M260.77,163.84v3.06h2.4v1.71h-2.4v7.7a1.73,1.73,0,0,0,.37,1.26,1.33,1.33,0,0,0,1,.36,5.89,5.89,0,0,0,.68-.05c.26,0,.47-.07.64-.11l.32,1.58a3,3,0,0,1-1,.34,6.17,6.17,0,0,1-1.27.14,3,3,0,0,1-2.24-.85,3.73,3.73,0,0,1-.83-2.67v-7.7h-2V166.9h2v-3.06Z" transform="translate(0 -2.19)"/><path class="cls-3" d="M271.32,179.83a5.36,5.36,0,0,1-4.22-1.77,6.63,6.63,0,0,1-1.56-4.57V173a6.52,6.52,0,0,1,1.61-4.5,5,5,0,0,1,3.81-1.8,4.79,4.79,0,0,1,3.88,1.55,6.12,6.12,0,0,1,1.32,4.12v1.44h-8.23l0,.06a5.11,5.11,0,0,0,.93,3,3,3,0,0,0,2.5,1.17,5.84,5.84,0,0,0,2.05-.33,4.7,4.7,0,0,0,1.53-.92l.9,1.5a5.42,5.42,0,0,1-1.8,1.11A7.16,7.16,0,0,1,271.32,179.83ZM271,168.48a2.52,2.52,0,0,0-2,1,4.67,4.67,0,0,0-1,2.46l0,.06h5.85v-.31a3.57,3.57,0,0,0-.73-2.27A2.58,2.58,0,0,0,271,168.48Z" transform="translate(0 -2.19)"/><path class="cls-3" d="M278.09,178.11l1.91-.33v-9.06l-1.91-.33V166.9h4l.17,1.89a4.74,4.74,0,0,1,1.58-1.57,4.26,4.26,0,0,1,2.18-.55,4.14,4.14,0,0,1,3.17,1.2,5.28,5.28,0,0,1,1.13,3.71v6.2l1.91.33v1.47h-6.13v-1.47l1.91-.33v-6.15a3.44,3.44,0,0,0-.66-2.38,2.65,2.65,0,0,0-2-.71,3.26,3.26,0,0,0-1.77.48,3.45,3.45,0,0,0-1.22,1.32v7.44l1.91.33v1.47h-6.13Z" transform="translate(0 -2.19)"/><path class="cls-3" d="M297.91,163.84v3.06h2.4v1.71h-2.4v7.7a1.77,1.77,0,0,0,.36,1.26,1.36,1.36,0,0,0,1,.36,6,6,0,0,0,.69-.05c.25,0,.47-.07.64-.11l.31,1.58a3,3,0,0,1-1,.34,6,6,0,0,1-1.26.14,3,3,0,0,1-2.24-.85,3.68,3.68,0,0,1-.83-2.67v-7.7h-2V166.9h2v-3.06Z" transform="translate(0 -2.19)"/><path class="cls-3" d="M310.94,179.58c-.07-.34-.13-.65-.17-.92s-.06-.55-.08-.82a5.51,5.51,0,0,1-1.67,1.42,4.77,4.77,0,0,1-5.15-.4,3.53,3.53,0,0,1-1-2.72,3.17,3.17,0,0,1,1.46-2.79,7.11,7.11,0,0,1,4-1h2.38V170.9a2.3,2.3,0,0,0-.7-1.76,2.77,2.77,0,0,0-2-.66,4.73,4.73,0,0,0-1.53.23,2.84,2.84,0,0,0-1.07.61l-.25,1.33h-1.78v-2.46a7,7,0,0,1,2.1-1.11,8.49,8.49,0,0,1,2.67-.41,5.32,5.32,0,0,1,3.49,1.1,3.86,3.86,0,0,1,1.34,3.15v6.59l0,.47.94.13v1.47Zm-3.72-1.69a4.07,4.07,0,0,0,2.1-.55,3.33,3.33,0,0,0,1.36-1.32v-2.09h-2.46a3.5,3.5,0,0,0-2.25.66,2,2,0,0,0-.82,1.59,1.61,1.61,0,0,0,.51,1.28A2.4,2.4,0,0,0,307.22,177.89Z" transform="translate(0 -2.19)"/><path class="cls-3" d="M315.88,168.39V166.9h4l.23,1.84a4.41,4.41,0,0,1,1.33-1.52,3.05,3.05,0,0,1,1.81-.55,3.48,3.48,0,0,1,.55,0,3.27,3.27,0,0,1,.44.09l-.3,2.14-1.31-.07a2.64,2.64,0,0,0-1.54.43,2.76,2.76,0,0,0-1,1.2v7.28l1.91.33v1.47h-6.13v-1.47l1.91-.33v-9.06Z" transform="translate(0 -2.19)"/><path class="cls-3" d="M341.48,170.89h-1.74l-.37-1.53a3.56,3.56,0,0,0-1.06-.64,4.12,4.12,0,0,0-1.45-.24A2.67,2.67,0,0,0,335,169a1.7,1.7,0,0,0-.6,1.3,1.47,1.47,0,0,0,.53,1.19,5.37,5.37,0,0,0,2.14.77,9.3,9.3,0,0,1,3.58,1.4,2.83,2.83,0,0,1,1.17,2.38,3.28,3.28,0,0,1-1.36,2.73,5.75,5.75,0,0,1-3.57,1,9,9,0,0,1-2.59-.34,6.79,6.79,0,0,1-2.05-1l0-2.9H334l.43,1.7a2.47,2.47,0,0,0,1.09.53,5.89,5.89,0,0,0,1.4.16,3.25,3.25,0,0,0,1.92-.49A1.6,1.6,0,0,0,339,175a5.35,5.35,0,0,0-2.2-.86,9.39,9.39,0,0,1-3.48-1.37,2.77,2.77,0,0,1-1.17-2.35,3.29,3.29,0,0,1,1.32-2.63,5.19,5.19,0,0,1,3.43-1.09,8.35,8.35,0,0,1,2.59.37,5.4,5.4,0,0,1,1.91,1.05Z" transform="translate(0 -2.19)"/><path class="cls-3" d="M344,173.13a7,7,0,0,1,1.52-4.64,5.64,5.64,0,0,1,8.29,0,7,7,0,0,1,1.53,4.65v.25a7,7,0,0,1-1.52,4.64,5.66,5.66,0,0,1-8.3,0,7,7,0,0,1-1.52-4.64Zm2.31.25a6,6,0,0,0,.85,3.33,3.06,3.06,0,0,0,5,0,6,6,0,0,0,.85-3.33v-.25a6,6,0,0,0-.85-3.32,3,3,0,0,0-5,0,6.08,6.08,0,0,0-.84,3.32Z" transform="translate(0 -2.19)"/><path class="cls-3" d="M356.92,162.79V161.3h4.22v16.48l1.91.33v1.47h-6.13v-1.47l1.91-.33V163.12Z" transform="translate(0 -2.19)"/><path class="cls-3" d="M373.87,177.71a4.38,4.38,0,0,1-1.54,1.57,4.33,4.33,0,0,1-2.18.55,4,4,0,0,1-3.22-1.33,6.14,6.14,0,0,1-1.16-4.12v-5.66l-1.45-.33V166.9h3.76v7.5a4.81,4.81,0,0,0,.59,2.79,2.22,2.22,0,0,0,1.87.76,3.79,3.79,0,0,0,2-.49,3.12,3.12,0,0,0,1.21-1.42v-7.32l-1.7-.33V166.9h4v10.88l1.46.33v1.47H374Z" transform="translate(0 -2.19)"/><path class="cls-3" d="M385.07,178a3.08,3.08,0,0,0,2-.71,2.16,2.16,0,0,0,.87-1.74H390l0,.07a3.57,3.57,0,0,1-1.46,2.92,5.37,5.37,0,0,1-3.53,1.27,5.12,5.12,0,0,1-4.23-1.81,7,7,0,0,1-1.45-4.53V173a6.93,6.93,0,0,1,1.46-4.52,5.1,5.1,0,0,1,4.22-1.81,7.23,7.23,0,0,1,2.74.5,5.7,5.7,0,0,1,2,1.39l.1,2.81h-1.84l-.5-2a3,3,0,0,0-1.06-.65,4.12,4.12,0,0,0-1.45-.25,2.79,2.79,0,0,0-2.6,1.31,6.16,6.16,0,0,0-.78,3.21v.49a6.17,6.17,0,0,0,.78,3.24A2.78,2.78,0,0,0,385.07,178Z" transform="translate(0 -2.19)"/><path class="cls-3" d="M392.31,178.11l1.91-.33v-9.06l-1.91-.33V166.9h4.22v10.88l1.91.33v1.47h-6.13Zm4.22-14.45h-2.31V161.3h2.31Z" transform="translate(0 -2.19)"/><path class="cls-3" d="M400.21,173.13a7,7,0,0,1,1.52-4.64,5.64,5.64,0,0,1,8.29,0,7,7,0,0,1,1.53,4.65v.25A6.92,6.92,0,0,1,410,178a5.12,5.12,0,0,1-4.14,1.81,5.19,5.19,0,0,1-4.16-1.81,7,7,0,0,1-1.52-4.64Zm2.31.25a6,6,0,0,0,.85,3.33,3.06,3.06,0,0,0,5,0,6,6,0,0,0,.86-3.33v-.25a6,6,0,0,0-.86-3.32,3,3,0,0,0-5,0,6.08,6.08,0,0,0-.84,3.32Z" transform="translate(0 -2.19)"/><path class="cls-3" d="M413.32,178.11l1.91-.33v-9.06l-1.91-.33V166.9h4l.16,1.89a4.68,4.68,0,0,1,1.59-1.57,4.22,4.22,0,0,1,2.17-.55,4.15,4.15,0,0,1,3.18,1.2,5.28,5.28,0,0,1,1.12,3.71v6.2l1.91.33v1.47H421.3v-1.47l1.91-.33v-6.15a3.44,3.44,0,0,0-.66-2.38,2.64,2.64,0,0,0-2-.71,3.25,3.25,0,0,0-1.76.48,3.48,3.48,0,0,0-1.23,1.32v7.44l1.91.33v1.47h-6.13Z" transform="translate(0 -2.19)"/><path class="cls-3" d="M437.38,179.58c-.07-.34-.12-.65-.16-.92a7.84,7.84,0,0,1-.08-.82,5.76,5.76,0,0,1-1.67,1.42,4.29,4.29,0,0,1-2.14.57,4.21,4.21,0,0,1-3-1,3.53,3.53,0,0,1-1-2.72,3.17,3.17,0,0,1,1.46-2.79,7.17,7.17,0,0,1,4-1h2.37V170.9a2.27,2.27,0,0,0-.7-1.76,2.75,2.75,0,0,0-2-.66,4.82,4.82,0,0,0-1.53.23,2.92,2.92,0,0,0-1.07.61l-.24,1.33h-1.79v-2.46a7,7,0,0,1,2.1-1.11,8.49,8.49,0,0,1,2.67-.41,5.35,5.35,0,0,1,3.5,1.1,3.85,3.85,0,0,1,1.33,3.15V177c0,.16,0,.32,0,.48a3.83,3.83,0,0,0,0,.47l.94.13v1.47Zm-3.71-1.69a4.06,4.06,0,0,0,2.09-.55,3.27,3.27,0,0,0,1.36-1.32v-2.09h-2.46a3.49,3.49,0,0,0-2.24.66,2,2,0,0,0-.83,1.59,1.58,1.58,0,0,0,.52,1.28A2.36,2.36,0,0,0,433.67,177.89Z" transform="translate(0 -2.19)"/><path class="cls-3" d="M442.33,168.39V166.9h4l.22,1.84a4.51,4.51,0,0,1,1.33-1.52,3.07,3.07,0,0,1,1.81-.55,3.6,3.6,0,0,1,.56,0l.44.09-.31,2.14-1.31-.07a2.58,2.58,0,0,0-1.53.43,2.63,2.63,0,0,0-1,1.2v7.28l1.91.33v1.47h-6.13v-1.47l1.91-.33v-9.06Z" transform="translate(0 -2.19)"/><path class="cls-3" d="M466.49,179.58c-.07-.34-.12-.65-.16-.92a7.84,7.84,0,0,1-.08-.82,5.76,5.76,0,0,1-1.67,1.42,4.79,4.79,0,0,1-5.16-.4,3.56,3.56,0,0,1-1-2.72,3.17,3.17,0,0,1,1.46-2.79,7.15,7.15,0,0,1,4-1h2.38V170.9a2.27,2.27,0,0,0-.7-1.76,2.75,2.75,0,0,0-2-.66,4.82,4.82,0,0,0-1.53.23,2.92,2.92,0,0,0-1.07.61l-.24,1.33h-1.79v-2.46a7,7,0,0,1,2.1-1.11,8.49,8.49,0,0,1,2.67-.41,5.35,5.35,0,0,1,3.5,1.1,3.85,3.85,0,0,1,1.33,3.15V177c0,.16,0,.32,0,.48a3.83,3.83,0,0,0,0,.47l.93.13v1.47Zm-3.71-1.69a4.06,4.06,0,0,0,2.09-.55,3.27,3.27,0,0,0,1.36-1.32v-2.09h-2.46a3.49,3.49,0,0,0-2.24.66,2,2,0,0,0-.83,1.59,1.58,1.58,0,0,0,.52,1.28A2.36,2.36,0,0,0,462.78,177.89Z" transform="translate(0 -2.19)"/><path class="cls-3" d="M471.12,162.79V161.3h4.22v16.48l1.91.33v1.47h-6.13v-1.47l1.91-.33V163.12Z" transform="translate(0 -2.19)"/><path class="cls-3" d="M478.89,173.48a8.28,8.28,0,0,1,1.34-4.94,4.28,4.28,0,0,1,3.69-1.87,4.38,4.38,0,0,1,2.09.47,4,4,0,0,1,1.52,1.36l.21-1.6h1.94v12.52a5.29,5.29,0,0,1-1.37,3.87,5.18,5.18,0,0,1-3.9,1.41,8.52,8.52,0,0,1-2-.25,7.82,7.82,0,0,1-1.88-.68l.6-1.8a6.89,6.89,0,0,0,1.52.57,7.44,7.44,0,0,0,1.72.22,2.76,2.76,0,0,0,2.26-.87,3.77,3.77,0,0,0,.72-2.47v-1.21a4.19,4.19,0,0,1-1.48,1.21,4.7,4.7,0,0,1-2,.41,4.4,4.4,0,0,1-3.66-1.69,6.85,6.85,0,0,1-1.34-4.42Zm2.31.24a5.24,5.24,0,0,0,.81,3.07,2.78,2.78,0,0,0,2.46,1.16,3,3,0,0,0,1.74-.47,3.56,3.56,0,0,0,1.16-1.34V170.3a3.42,3.42,0,0,0-1.16-1.28,3,3,0,0,0-1.72-.48,2.68,2.68,0,0,0-2.47,1.39,6.83,6.83,0,0,0-.82,3.55Z" transform="translate(0 -2.19)"/><path class="cls-3" d="M501.53,177.71a4.11,4.11,0,0,1-3.71,2.12,4.06,4.06,0,0,1-3.23-1.33,6.14,6.14,0,0,1-1.16-4.12v-5.66l-1.45-.33V166.9h3.76v7.5a4.72,4.72,0,0,0,.6,2.79,2.22,2.22,0,0,0,1.86.76,3.85,3.85,0,0,0,2-.49,3.24,3.24,0,0,0,1.21-1.42v-7.32l-1.7-.33V166.9h4v10.88l1.45.33v1.47h-3.53Z" transform="translate(0 -2.19)"/><path class="cls-3" d="M506.7,178.11l1.91-.33v-9.06l-1.91-.33V166.9h4l.16,1.89a4.86,4.86,0,0,1,1.59-1.57,4.26,4.26,0,0,1,2.18-.55,4.14,4.14,0,0,1,3.17,1.2,5.28,5.28,0,0,1,1.13,3.71v6.2l1.91.33v1.47h-6.13v-1.47l1.91-.33v-6.15a3.44,3.44,0,0,0-.66-2.38,2.65,2.65,0,0,0-2-.71,3.26,3.26,0,0,0-1.77.48,3.45,3.45,0,0,0-1.22,1.32v7.44l1.91.33v1.47H506.7Z" transform="translate(0 -2.19)"/><path class="cls-3" d="M532.19,170.89h-1.74l-.37-1.53a3.44,3.44,0,0,0-1.06-.64,4.12,4.12,0,0,0-1.45-.24,2.67,2.67,0,0,0-1.83.54,1.7,1.7,0,0,0-.6,1.3,1.47,1.47,0,0,0,.53,1.19,5.37,5.37,0,0,0,2.15.77,9.31,9.31,0,0,1,3.57,1.4,2.83,2.83,0,0,1,1.17,2.38,3.28,3.28,0,0,1-1.36,2.73,5.75,5.75,0,0,1-3.57,1,9,9,0,0,1-2.59-.34,6.79,6.79,0,0,1-2-1v-2.9h1.73l.43,1.7a2.47,2.47,0,0,0,1.09.53,5.89,5.89,0,0,0,1.4.16,3.3,3.3,0,0,0,1.93-.49,1.61,1.61,0,0,0,.11-2.56,5.35,5.35,0,0,0-2.19-.86,9.25,9.25,0,0,1-3.48-1.37,2.76,2.76,0,0,1-1.18-2.35,3.29,3.29,0,0,1,1.32-2.63,5.19,5.19,0,0,1,3.43-1.09,8.35,8.35,0,0,1,2.59.37,5.4,5.4,0,0,1,1.91,1.05Z" transform="translate(0 -2.19)"/><path class="cls-3" d="M540.4,183l1.91-.33V168.72l-1.91-.33V166.9h3.89l.21,1.55a4.22,4.22,0,0,1,1.54-1.32,4.58,4.58,0,0,1,2.11-.46,4.2,4.2,0,0,1,3.66,1.87,8.45,8.45,0,0,1,1.31,4.94v.24a7,7,0,0,1-1.32,4.43,4.33,4.33,0,0,1-3.62,1.68,5,5,0,0,1-2-.39,4,4,0,0,1-1.51-1.17v4.37l1.91.33v1.49H540.4Zm10.4-9.49a6.73,6.73,0,0,0-.85-3.55,2.74,2.74,0,0,0-2.51-1.39,3.06,3.06,0,0,0-1.68.45,3.35,3.35,0,0,0-1.14,1.22v6.17a3.25,3.25,0,0,0,1.13,1.22,3.3,3.3,0,0,0,1.72.42,2.83,2.83,0,0,0,2.48-1.19,5.3,5.3,0,0,0,.85-3.11Z" transform="translate(0 -2.19)"/><path class="cls-3" d="M555.21,168.39V166.9h4l.22,1.84a4.41,4.41,0,0,1,1.33-1.52,3.07,3.07,0,0,1,1.81-.55,3.6,3.6,0,0,1,.56,0l.44.09-.31,2.14-1.31-.07a2.64,2.64,0,0,0-1.54.43,2.76,2.76,0,0,0-1,1.2v7.28l1.91.33v1.47h-6.13v-1.47l1.91-.33v-9.06Z" transform="translate(0 -2.19)"/><path class="cls-3" d="M564.92,173.13a7,7,0,0,1,1.52-4.64,5.64,5.64,0,0,1,8.29,0,7,7,0,0,1,1.53,4.65v.25a7,7,0,0,1-1.52,4.64,5.66,5.66,0,0,1-8.3,0,6.93,6.93,0,0,1-1.52-4.64Zm2.31.25a6,6,0,0,0,.85,3.33,3.06,3.06,0,0,0,5,0,6,6,0,0,0,.85-3.33v-.25a6,6,0,0,0-.85-3.32,3,3,0,0,0-5,0,6.08,6.08,0,0,0-.84,3.32Z" transform="translate(0 -2.19)"/><path class="cls-3" d="M590,173.72a7,7,0,0,1-1.32,4.43,4.34,4.34,0,0,1-3.62,1.68,4.59,4.59,0,0,1-2.16-.48,3.91,3.91,0,0,1-1.52-1.4l-.21,1.63h-2V163.12l-1.91-.33V161.3h4.22v7.1a4.06,4.06,0,0,1,1.48-1.29,4.64,4.64,0,0,1,2.07-.44,4.21,4.21,0,0,1,3.66,1.87,8.49,8.49,0,0,1,1.31,4.94Zm-2.32-.24a7,7,0,0,0-.8-3.57,2.63,2.63,0,0,0-2.43-1.37,3.08,3.08,0,0,0-1.8.52,3.6,3.6,0,0,0-1.17,1.38V176a3.6,3.6,0,0,0,1.18,1.4,3.13,3.13,0,0,0,1.81.51,2.71,2.71,0,0,0,2.42-1.16,5.31,5.31,0,0,0,.79-3.07Z" transform="translate(0 -2.19)"/><path class="cls-3" d="M591.83,162.79V161.3h4.22v16.48l1.91.33v1.47h-6.13v-1.47l1.92-.33V163.12Z" transform="translate(0 -2.19)"/><path class="cls-3" d="M605.5,179.83a5.32,5.32,0,0,1-4.21-1.77,6.59,6.59,0,0,1-1.57-4.57V173a6.52,6.52,0,0,1,1.61-4.5,5,5,0,0,1,3.82-1.8,4.78,4.78,0,0,1,3.87,1.55,6.12,6.12,0,0,1,1.32,4.12v1.44h-8.23l0,.06a5,5,0,0,0,.92,3,3,3,0,0,0,2.5,1.17,5.9,5.9,0,0,0,2.06-.33,4.55,4.55,0,0,0,1.52-.92l.91,1.5a5.63,5.63,0,0,1-1.8,1.11A7.21,7.21,0,0,1,605.5,179.83Zm-.35-11.35a2.49,2.49,0,0,0-2,1,4.6,4.6,0,0,0-1,2.46l0,.06H608v-.31a3.51,3.51,0,0,0-.73-2.27A2.58,2.58,0,0,0,605.15,168.48Z" transform="translate(0 -2.19)"/><path class="cls-3" d="M612.16,178.11l1.91-.33v-9.06l-1.91-.33V166.9h4l.15,1.66a4.14,4.14,0,0,1,1.57-1.4,4.82,4.82,0,0,1,2.23-.49,3.91,3.91,0,0,1,2.17.58,3.57,3.57,0,0,1,1.37,1.76,4.65,4.65,0,0,1,1.58-1.71,4.18,4.18,0,0,1,2.3-.63,3.81,3.81,0,0,1,3.07,1.33,6.08,6.08,0,0,1,1.12,4v5.78l1.91.33v1.47h-6.14v-1.47l1.91-.33V172a4.24,4.24,0,0,0-.64-2.66,2.34,2.34,0,0,0-1.91-.78,2.45,2.45,0,0,0-1.94.85,3.71,3.71,0,0,0-.85,2.14v6.25l1.91.33v1.47h-6.13v-1.47l1.91-.33V172a4.17,4.17,0,0,0-.66-2.61,2.32,2.32,0,0,0-1.92-.83,3.15,3.15,0,0,0-1.73.44,2.79,2.79,0,0,0-1,1.22v7.58l1.91.33v1.47h-6.12Z" transform="translate(0 -2.19)"/><path class="cls-3" d="M643.56,179.58c-.07-.34-.12-.65-.16-.92a7.84,7.84,0,0,1-.08-.82,5.76,5.76,0,0,1-1.67,1.42,4.29,4.29,0,0,1-2.14.57,4.21,4.21,0,0,1-3-1,3.53,3.53,0,0,1-1-2.72,3.17,3.17,0,0,1,1.46-2.79,7.15,7.15,0,0,1,4-1h2.38V170.9a2.27,2.27,0,0,0-.7-1.76,2.75,2.75,0,0,0-2-.66,4.82,4.82,0,0,0-1.53.23,2.92,2.92,0,0,0-1.07.61l-.24,1.33H636v-2.46a7,7,0,0,1,2.1-1.11,8.49,8.49,0,0,1,2.67-.41,5.35,5.35,0,0,1,3.5,1.1,3.85,3.85,0,0,1,1.33,3.15V177c0,.16,0,.32,0,.48a3.83,3.83,0,0,0,0,.47l.93.13v1.47Zm-3.71-1.69a4.06,4.06,0,0,0,2.09-.55A3.27,3.27,0,0,0,643.3,176v-2.09h-2.46a3.49,3.49,0,0,0-2.24.66,2,2,0,0,0-.83,1.59,1.58,1.58,0,0,0,.52,1.28A2.36,2.36,0,0,0,639.85,177.89Z" transform="translate(0 -2.19)"/><path class="cls-3" d="M658.21,170.89h-1.73l-.38-1.53a3.33,3.33,0,0,0-1.06-.64,4.12,4.12,0,0,0-1.45-.24,2.67,2.67,0,0,0-1.83.54,1.72,1.72,0,0,0-.59,1.3,1.46,1.46,0,0,0,.52,1.19,5.44,5.44,0,0,0,2.15.77,9.31,9.31,0,0,1,3.57,1.4,2.83,2.83,0,0,1,1.17,2.38,3.28,3.28,0,0,1-1.36,2.73,5.75,5.75,0,0,1-3.57,1,9,9,0,0,1-2.59-.34,6.9,6.9,0,0,1-2-1v-2.9h1.73l.44,1.7a2.38,2.38,0,0,0,1.08.53,6,6,0,0,0,1.4.16,3.3,3.3,0,0,0,1.93-.49,1.6,1.6,0,0,0,.12-2.56,5.41,5.41,0,0,0-2.2-.86,9.25,9.25,0,0,1-3.48-1.37,2.77,2.77,0,0,1-1.17-2.35,3.29,3.29,0,0,1,1.32-2.63,5.16,5.16,0,0,1,3.42-1.09,8.31,8.31,0,0,1,2.59.37,5.32,5.32,0,0,1,1.91,1.05Z" transform="translate(0 -2.19)"/><path class="cls-3" d="M663.92,174.78a6.89,6.89,0,0,1,.28-2.36,6,6,0,0,1,1.47-1.73,26.57,26.57,0,0,0,1.66-2.11,3.12,3.12,0,0,0,.49-1.78,2.59,2.59,0,0,0-.66-1.91,2.55,2.55,0,0,0-1.9-.67,2.84,2.84,0,0,0-1.81.58,2,2,0,0,0-.74,1.7h-2.2l0-.07a3.66,3.66,0,0,1,1.33-3,5.19,5.19,0,0,1,3.46-1.14,5.13,5.13,0,0,1,3.59,1.18,4.26,4.26,0,0,1,1.28,3.29,4.89,4.89,0,0,1-.83,2.76,15.3,15.3,0,0,1-2.18,2.57,2.71,2.71,0,0,0-.76,1.14,6.64,6.64,0,0,0-.13,1.57Zm2.38,4.8h-2.41v-2.44h2.41Z" transform="translate(0 -2.19)"/><circle class="cls-4" cx="106" cy="144.42" r="103"/><path class="cls-2" d="M106,46.61a100,100,0,1,1-100,100,100,100,0,0,1,100-100m0-6a106,106,0,1,0,106,106,106.12,106.12,0,0,0-106-106Z" transform="translate(0 -2.19)"/><path class="cls-5" d="M105.74,46.79a99.74,99.74,0,1,0,99.74,99.74A99.74,99.74,0,0,0,105.74,46.79Zm0,192.83a93.09,93.09,0,1,1,93.09-93.09A93.09,93.09,0,0,1,105.74,239.62Z" transform="translate(0 -2.19)"/><path class="cls-5" d="M152.81,74.08a3.33,3.33,0,0,0-4.61,1l-5.43,8.36a3.32,3.32,0,0,0-.46,2.55,3.28,3.28,0,0,0,1.51,2.1,42.72,42.72,0,0,1,3.73,2.66c.75.57,1.5,1.14,2.08,1.55,1,.85,2,1.75,3,2.66l-2.3,2.29a66.28,66.28,0,0,0-14.57-10L142.57,72a3.32,3.32,0,0,0-1.69-4.39,86.9,86.9,0,0,0-30.63-7.3,3.32,3.32,0,0,0-3.49,3.15l-.52,10a3.33,3.33,0,0,0,3.14,3.49l3.5.18,3.73.57,1.44.22c.72.1,1.44.2,2.07.34l.45.12-.87,3.26a68.05,68.05,0,0,0-17.61-1.43l-1.72-16.63a3.33,3.33,0,0,0-3.66-3,85.53,85.53,0,0,0-30.2,9A3.32,3.32,0,0,0,65.06,74l4.54,8.88A3.33,3.33,0,0,0,74,84.43c.67-.31,1.33-.64,2-1a34.37,34.37,0,0,1,4.75-2l.85-.31c1-.37,2-.73,2.93-1.06l.86,3.22c-.82.28-1.61.57-2.4.87l-.79.3a30.1,30.1,0,0,0-4.72,2l-2,1L69.8,90.65c-.13.07-.26.14-.38.22L59.61,77.4A3.33,3.33,0,0,0,55,76.66a86.67,86.67,0,0,0-21.69,22.8,3.31,3.31,0,0,0-.46,2.51,3.35,3.35,0,0,0,1.44,2.1l8.36,5.44a3.33,3.33,0,0,0,4.65-1.06,42.46,42.46,0,0,1,2.65-3.72c.58-.76,1.15-1.51,1.56-2.1.85-1,1.75-2,2.65-3l2.3,2.3a66.28,66.28,0,0,0-10,14.57L31.2,109.7a3.34,3.34,0,0,0-4.4,1.68A87,87,0,0,0,19.51,142a3.32,3.32,0,0,0,3.15,3.49l10,.52a3.32,3.32,0,0,0,2.4-.85,3.26,3.26,0,0,0,1.09-2.29l.18-3.5.56-3.73c.09-.48.16-1,.22-1.44.11-.72.21-1.44.35-2.07l.12-.45,3.25.87a67.57,67.57,0,0,0-1.42,17.6L22.73,151.9a3.33,3.33,0,0,0-3,3.65,86.68,86.68,0,0,0,9,30.21,3.33,3.33,0,0,0,4.47,1.45l8.88-4.53a3.33,3.33,0,0,0,1.51-4.37c-.31-.66-.63-1.31-1-2a34.21,34.21,0,0,1-2-4.78l-.33-.88c-.37-1-.72-1.95-1-2.9l3.26-.87a65.71,65.71,0,0,0,7.59,15.91L36.6,192.66a3.31,3.31,0,0,0-.73,4.64A86.47,86.47,0,0,0,58.67,219a3.32,3.32,0,0,0,4.6-1l5.44-8.36A3.31,3.31,0,0,0,67.65,205c-1.28-.82-2.53-1.71-3.73-2.66-.74-.57-1.49-1.14-2.08-1.55-1-.85-2-1.75-3-2.65l2.35-2.36c.89.82,1.81,1.64,2.92,2.55.64.45,1.27.94,1.9,1.42a39.9,39.9,0,0,0,3.71,2.61l5.93,3.41.08,0-6.81,15.27a3.32,3.32,0,0,0,1.68,4.39,87,87,0,0,0,30.64,7.3h.17a3.32,3.32,0,0,0,3.32-3.15l.51-10a3.31,3.31,0,0,0-3.14-3.49L98.6,216l-3.73-.57-1.44-.22c-.72-.1-1.44-.2-2.07-.35l-.46-.11.88-3.26a68,68,0,0,0,17.6,1.43l1.73,16.63a3.33,3.33,0,0,0,3.65,3,85.78,85.78,0,0,0,30.21-9,3.32,3.32,0,0,0,1.45-4.47l-4.54-8.89a3.31,3.31,0,0,0-4.35-1.5c-.67.31-1.33.63-2,1a35.57,35.57,0,0,1-4.75,2l-.85.31c-1,.37-2,.73-2.93,1.06l-.88-3.26A66,66,0,0,0,142,202.16l9.83,13.5a3.32,3.32,0,0,0,4.64.74,86.47,86.47,0,0,0,21.68-22.8,3.34,3.34,0,0,0,.47-2.5,3.29,3.29,0,0,0-1.44-2.1l-8.36-5.45a3.37,3.37,0,0,0-2.55-.45,3.32,3.32,0,0,0-2.1,1.51,42.46,42.46,0,0,1-2.65,3.72c-.58.76-1.15,1.51-1.56,2.1-.85,1-1.75,2-2.66,3l-2.29-2.3a66.28,66.28,0,0,0,10-14.57l15.25,6.8a3.32,3.32,0,0,0,4.39-1.68A87,87,0,0,0,192,151a3.33,3.33,0,0,0-3.15-3.49l-10-.51a3.34,3.34,0,0,0-3.49,3.14l-.18,3.5-.57,3.72c-.08.48-.15,1-.22,1.45-.1.71-.2,1.44-.35,2.06l-.11.46-3.21-.86,0-.08a23.27,23.27,0,0,0,.41-2.36c.05-.36.1-.73.17-1.15l.51-3.26c0-.12,0-.23,0-.34l.17-3.48V142.9l16.7-1.74a3.31,3.31,0,0,0,3-3.65,86.68,86.68,0,0,0-9-30.21,3.33,3.33,0,0,0-4.47-1.45l-8.88,4.54a3.33,3.33,0,0,0-1.51,4.36c.31.66.63,1.31.95,2a34.21,34.21,0,0,1,2.05,4.78l.33.88c.37,1,.73,1.95,1.05,2.9l-3.26.87a66.08,66.08,0,0,0-7.59-15.91l13.5-9.83a3.33,3.33,0,0,0,.74-4.64A86.47,86.47,0,0,0,152.81,74.08Zm2,32.68a3.35,3.35,0,0,0-.73,4.65,59.12,59.12,0,0,1,9.37,19.64,3.33,3.33,0,0,0,4.07,2.35l9.64-2.57a3.33,3.33,0,0,0,2.39-3.91,48.49,48.49,0,0,0-2.17-6.87l-.26-.71a34.82,34.82,0,0,0-1.87-4.51l3-1.51a80.15,80.15,0,0,1,6.44,21.58l-16.46,1.71a3.33,3.33,0,0,0-3,3.48l.17,3.22v6.36l-.17,3.13-.47,3c-.07.44-.14.87-.2,1.31-.08.59-.16,1.18-.27,1.68l-.83,3.19a3.32,3.32,0,0,0,2.36,4.05l9.63,2.58a3.32,3.32,0,0,0,2.54-.35,3.28,3.28,0,0,0,1.54-2l1-3.79c.2-.88.33-1.79.46-2.69.06-.42.12-.85.2-1.33l.62-4.1,0-.51,3.27.16a80.75,80.75,0,0,1-5.21,21.89l-15.11-6.74a3.35,3.35,0,0,0-4.4,1.69,59.45,59.45,0,0,1-12.32,18,3.33,3.33,0,0,0,0,4.7l7.05,7a3.25,3.25,0,0,0,2.45,1,3.35,3.35,0,0,0,2.38-1.11q.9-1,1.8-2c1.16-1.26,2.31-2.51,3.53-4,.5-.72,1-1.41,1.57-2.11q.56-.72,1.11-1.47l2.8,1.82A79.82,79.82,0,0,1,155.25,209l-9.75-13.39a3.34,3.34,0,0,0-4.64-.73,59.12,59.12,0,0,1-19.64,9.37,3.34,3.34,0,0,0-2.36,4.08l2.58,9.63a3.32,3.32,0,0,0,3.91,2.39,48.74,48.74,0,0,0,6.89-2.17l.69-.26a34.82,34.82,0,0,0,4.51-1.87l1.51,3a80.24,80.24,0,0,1-21.58,6.43L115.66,209a3.26,3.26,0,0,0-1.19-2.24A3.31,3.31,0,0,0,112,206a61.22,61.22,0,0,1-21.77-1.77,3.32,3.32,0,0,0-4.07,2.35l-2.58,9.64a3.3,3.3,0,0,0,.34,2.53,3.33,3.33,0,0,0,2,1.54l3.79,1c.89.21,1.8.35,2.7.48l1.32.2,4.11.61.51,0-.17,3.26a80.4,80.4,0,0,1-21.88-5.21l6.73-15.11a3.32,3.32,0,0,0-1.59-4.35l-2.76-1.32-5.67-3.26a32,32,0,0,1-3-2.16c-.7-.54-1.41-1.08-1.92-1.42-1-.8-1.88-1.64-2.8-2.48-.68-.63-1.37-1.26-2.07-1.88a3.34,3.34,0,0,0-4.54.16l-7,7.05a3.32,3.32,0,0,0,.14,4.84q1,.87,1.95,1.77c1.27,1.16,2.53,2.32,4,3.55.71.51,1.4,1,2.1,1.57l1.48,1.12-1.82,2.79A79.82,79.82,0,0,1,43.26,196l13.38-9.74a3.33,3.33,0,0,0,.74-4.64A59.49,59.49,0,0,1,48,162a3.32,3.32,0,0,0-4.06-2.35l-9.64,2.58a3.31,3.31,0,0,0-2.39,3.9A48,48,0,0,0,34.07,173l.27.71a34.9,34.9,0,0,0,1.86,4.52l-3,1.51a80.58,80.58,0,0,1-6.44-21.59l16.46-1.71a3.33,3.33,0,0,0,3-3.63A61.22,61.22,0,0,1,48,131.05,3.32,3.32,0,0,0,45.65,127L36,124.4a3.35,3.35,0,0,0-4.08,2.39l-1,3.79c-.2.89-.34,1.79-.47,2.69-.06.42-.12.85-.2,1.33l-.61,4.1,0,.51-3.26-.16a80.45,80.45,0,0,1,5.2-21.89l15.12,6.74a3.33,3.33,0,0,0,4.39-1.69,59.66,59.66,0,0,1,12.33-18,3.32,3.32,0,0,0,0-4.69l-7.05-7.06a3.3,3.3,0,0,0-2.45-1,3.35,3.35,0,0,0-2.39,1.11c-.59.67-1.19,1.33-1.8,2-1.15,1.25-2.3,2.5-3.52,4-.51.71-1,1.4-1.57,2.1-.37.48-.75,1-1.12,1.47l-2.79-1.82a79.82,79.82,0,0,1,15.5-16.29L66,97.44a3.35,3.35,0,0,0,4.65.73l.77-.59A11.72,11.72,0,0,1,73,96.47l5.44-3.15,1.91-.92a26.14,26.14,0,0,1,3.89-1.66l1-.37a34.15,34.15,0,0,1,4.82-1.53,3.32,3.32,0,0,0,2.54-4.11L90,75.09a3.33,3.33,0,0,0-3.91-2.39,49.2,49.2,0,0,0-6.89,2.18l-.69.25A34.69,34.69,0,0,0,74,77l-1.52-3A80.33,80.33,0,0,1,94.11,67.6l1.7,16.46a3.29,3.29,0,0,0,3.63,3,61,61,0,0,1,21.77,1.78,3.39,3.39,0,0,0,2.53-.34,3.27,3.27,0,0,0,1.54-2l2.58-9.63a3.32,3.32,0,0,0-2.38-4.08l-3.78-1c-.9-.21-1.8-.34-2.71-.47l-1.32-.21-4.1-.61-.52,0,.17-3.26a80.47,80.47,0,0,1,21.89,5.21L128.37,87.5a3.34,3.34,0,0,0,1.7,4.4,59.53,59.53,0,0,1,18,12.32,3.33,3.33,0,0,0,4.7,0l7.05-7a3.33,3.33,0,0,0-.14-4.83l-2-1.78c-1.26-1.16-2.52-2.32-4-3.55-.71-.5-1.4-1-2.09-1.56l-1.48-1.12,1.81-2.8A79.61,79.61,0,0,1,168.22,97Z" transform="translate(0 -2.19)"/><path class="cls-5" d="M105.74,93.34a53.09,53.09,0,0,0-45.87,80,3.79,3.79,0,0,0,.2.34,53.59,53.59,0,0,0,13.56,15.17c.09.06.14.15.23.2l.07,0a52.79,52.79,0,0,0,63.6,0l.09,0c.09,0,.14-.14.22-.2a53.29,53.29,0,0,0,13.56-15.17,2.39,2.39,0,0,0,.21-.34,53.09,53.09,0,0,0-45.87-80Zm-6,7.08L62.84,164.6a46.5,46.5,0,0,1,36.9-64.18ZM79.9,185.22l25.84-44.92,25.84,44.92a46.44,46.44,0,0,1-51.68,0Zm56.95-4.17-26.79-46.57a5,5,0,0,0-8.65,0L74.62,181.05a47,47,0,0,1-8.09-9.53l39.21-68.2,7.6,13.19.15.3,31.45,54.71a47,47,0,0,1-8.09,9.53Zm11.78-16.46-29.22-50.83a3,3,0,0,0-.15-.31l-7.52-13a46.5,46.5,0,0,1,36.89,64.17Z" transform="translate(0 -2.19)"/><g class="cls-6"><path class="cls-7" d="M139.92,369.59a7.56,7.56,0,0,0-.13,5.12c1,2.54,12.85,11.66,21.41,12.22,9,.6,14.05-4.63,14.39-5.87s-5.84-5.26-5.84-5.26Z" transform="translate(0 -2.19)"/><path class="cls-7" d="M51.63,374s-6.47,17.27-4.19,19.55,16.61,5,26.53.86-10.83-25.8-10.83-25.8Z" transform="translate(0 -2.19)"/><path class="cls-8" d="M94.51,85.63,98.77,102s.68,4-.78,5.5-8.3,9.19-8.3,9.19l-3.81,7.52L108,136.77l26.35-7.07-.78-18.5s-13.5-.86-21.36-6.77c-1.55-1.16-2.86-14.65-2.86-14.65Z" transform="translate(0 -2.19)"/><path class="cls-9" d="M110,95.73c-.41-3-.75-6.06-.75-6.06L94.48,85.52l1.19,4.56s4.64,3,6.08,3.65A28.13,28.13,0,0,0,110,95.73Z" transform="translate(0 -2.19)"/><path class="cls-8" d="M82.23,120.93s-10.56,6-11.53,6.94-8.52,7.74-8.52,7.74l-.29,24.51-9.8-23.35-8.52,3.77L55.7,176.9l6.68,10.34,5,1.9,7.42-34.31,10.7,6.7L98.66,152l-9.42-23.48-4-8.82Z" transform="translate(0 -2.19)"/><path class="cls-8" d="M43.21,140.43a11.51,11.51,0,0,1-5-4.22,42.19,42.19,0,0,1-5.27.27.87.87,0,0,1-.48-.1.88.88,0,0,1-.27-.59,52,52,0,0,0-2.72-9.55,1.47,1.47,0,0,1-.16-.84c.11-.51.71-.75,1.24-.8a3.1,3.1,0,0,0,1.52-.31c.58-.39.75-1.29,1.42-1.5s1.14.19,1.66,0,.67-.92,1-1.37a3.7,3.7,0,0,1,2.27-.91,16.38,16.38,0,0,0,4-1.6.42.42,0,0,0,.23-.2.45.45,0,0,0,0-.23c-.62-2.87-1.92-5.74-2.53-8.61a65.68,65.68,0,0,1-1.05-8.23,4.41,4.41,0,0,1,2.28-2.76,1,1,0,0,1,.85-.11,1.16,1.16,0,0,1,.5.89c.69,3.2,2.58,11.32,3.27,14.52.44,2,4.14,7.14,4.93,7.74s.9,1.36,1.8,2a2,2,0,0,1,.61.63,2,2,0,0,1,.17.91l.13,5.41c.06,2.11,0,4.48-1.47,6Z" transform="translate(0 -2.19)"/><path class="cls-9" d="M50.58,121.45c-1.1-.3-2.15-1-3.33-.8a7.61,7.61,0,0,0-2.71,1.4c-2.39,1.64-4.1,4.13-6.66,5.49a1.06,1.06,0,0,0-.21,1.65c1.46,1.43,3.58,3.11,5.76,2.62a6.67,6.67,0,0,0,4.5-4.21l-1.55.63a8.75,8.75,0,0,0,2.19,1.18c1.27.49,1.8-1.54.56-2-4.14-1.66-5.86,3.75-4.46,6.72.58,1.23,2.4.16,1.82-1.06-.65-1.39-.29-4.58,2.08-3.62l.56-2a4.84,4.84,0,0,1-1.68-1c-.6-.44-1.34.07-1.55.63-1.26,3.34-4.65,2.71-6.74.66l-.22,1.66a21.86,21.86,0,0,0,4.61-3.81,16.65,16.65,0,0,1,2.66-2.07c1.27-.79,2.45-.37,3.81,0a1.05,1.05,0,0,0,.56-2Z" transform="translate(0 -2.19)"/><path class="cls-9" d="M42.19,125.47,41.7,123l-2,.56a2.78,2.78,0,0,0,1.55,1.9,1.08,1.08,0,0,0,1.44-.37,1.06,1.06,0,0,0-.38-1.44.89.89,0,0,1-.58-.65,1.05,1.05,0,0,0-2,.56l.49,2.46a1,1,0,0,0,1.29.73,1.07,1.07,0,0,0,.74-1.29Z" transform="translate(0 -2.19)"/><path class="cls-8" d="M85.8,78.82s8.57,15.25,34.13,15.25c10.58,0,14.51-2.47,15.1-5.9,3.75-21.58-4.22-48.87-15.28-57.2C110,23.67,75.63,51.31,75.63,51.31L83,67.76s-7.48-8.08-10.47-3.59,6.51,14,6.51,14S83.26,81.37,85.8,78.82Z" transform="translate(0 -2.19)"/><path class="cls-8" d="M136.9,113.4c2.54-1.34,4.82,1.83,4.82,1.83l25.8,45.16-22.27,40s7.48,12.56,3.74,18.24l5.16,5.16s.82,2.77-2.92,2.77-12.56-6.58-12.56-6.58l1-28.17,16.62-30-15.27-22.7-4.77-4.24S132.16,115.91,136.9,113.4Z" transform="translate(0 -2.19)"/><path class="cls-8" d="M110.1,239.82,88.49,294s-2.78,10.26-6.09,13.57a146,146,0,0,1-8.19,23.66c-5.6,12.56-8.07,29.83-8.07,29.83s5.1,13,4.48,18.79c0,0,4.88,6.73,2.92,10.6S63.9,392,63.9,392s-12.85,1.68-14.75-1.52,2.41-11.77,2.41-11.77-.62-6.84,1.63-8.41a27.86,27.86,0,0,0,4.93-5.39s-.84-2.24,1.51-5.27,5.84-22.45,5.84-25-3.14-21.53,7.32-29c0,0,2.54-51.59,9.72-58.76s27.59-11.44,27.59-11.44Z" transform="translate(0 -2.19)"/><path class="cls-10" d="M110.1,239.82l-6.91,17.32s-9.56,4.27-12,4.86c-1.8.44-14.59,4.4-14.16,1.82,1.34-8.07,3.2-14.67,5.45-16.92,7.18-7.18,27.59-11.44,27.59-11.44Z" transform="translate(0 -2.19)"/><path class="cls-8" d="M117.8,231.79s18.09,68.34,19.44,71.48-5.72,9.23,6.62,52.52c0,0-.79,5.72-1.91,7.74s-3.7,7.18-.45,9,13.8,10.77,18.28,11.55,12.9-3.14,12.9-3.14,4.49-1.68,3.08-3.08c0,0-4.09-.17-5.44-1.51S153.73,363,153.73,363,149,356.91,149,356.5s-3.37-53.64-3.37-53.64,1.24-3.36,0-10.21-.63-49.94-.63-49.94Z" transform="translate(0 -2.19)"/><path class="cls-10" d="M117.8,231.79l5.52,20.76c.49,1.82,21.58,3.28,21.58,3.28l.12-13.12Z" transform="translate(0 -2.19)"/><path class="cls-11" d="M117.8,245.33c3.5,6.94,28.09,8.4,30.13,9,0,0,.64-27.85-3.28-43.5S117.8,245.33,117.8,245.33Z" transform="translate(0 -2.19)"/><path class="cls-12" d="M87.9,72.69c4.33,1.8.59-6,.59-6s-.41-7.79-2.61-9.12a32,32,0,0,1-4.82-3.93l41.38-28.37s4.18-5.83-5.39-9.42a11.39,11.39,0,0,0-11.58-3.44s-4.19-5-10.25-.41c0,0-12.18-.71-15,5.27a4.56,4.56,0,0,0-4.49,2.54s-2.54,1-3,3c0,0-6.17,2.43-6.55,6.54,0,0-3.36,4.71-.67,8.53,0,0-1.78,3.34.52,5.64,0,0-5.15,5.65,0,9.16,0,0-1.27,3.66,6.28,5.16l2.25,4.63s2.16-1,8.37,5.24Z" transform="translate(0 -2.19)"/><path class="cls-9" d="M118,73.15a1.5,1.5,0,0,1,0-3c1.56,0,6-1.33,9-2.37-1-7.68-5.86-13.41-8.79-16.22a1.5,1.5,0,1,1,2.07-2.16c3.39,3.24,9.17,10.05,9.82,19.3l.08,1.13-1.07.39C128.31,70.52,120.9,73.15,118,73.15Z" transform="translate(0 -2.19)"/><ellipse class="cls-13" cx="104.69" cy="56.59" rx="2.01" ry="2.75" transform="translate(-10.63 25.03) rotate(-14.1)"/><path class="cls-13" d="M101.6,56.1h-.06a1.49,1.49,0,0,1-1.44-1.56c0-.4.24-3.92,2.8-5.31,1.66-.89,3.73-.61,6.16.83a1.5,1.5,0,1,1-1.54,2.58c-1.41-.84-2.55-1.12-3.19-.77-.85.46-1.2,2.12-1.23,2.8A1.5,1.5,0,0,1,101.6,56.1Z" transform="translate(0 -2.19)"/><ellipse class="cls-13" cx="123.33" cy="50.96" rx="2.01" ry="2.75" transform="translate(-8.7 29.4) rotate(-14.1)"/><path class="cls-13" d="M119.72,50.12a1.32,1.32,0,0,1-.39-.06,1.49,1.49,0,0,1-1-1.84c.1-.38,1.11-3.77,3.91-4.55,1.82-.5,3.78.23,5.82,2.19A1.5,1.5,0,0,1,125.94,48c-1.19-1.14-2.24-1.67-3-1.47-.93.26-1.64,1.79-1.82,2.45A1.5,1.5,0,0,1,119.72,50.12Z" transform="translate(0 -2.19)"/><path class="cls-14" d="M109.28,75.75c-.25-.26,14.81.94,20.56-3.29,0,0,1.13,11.46-4,12.71C120.55,86.46,114.46,84.35,109.28,75.75Z" transform="translate(0 -2.19)"/><g class="cls-15"><path class="cls-16" d="M108.29,77.55s14.09,4,20.35-2.24l-.78-2.85-20.65,1.39Z" transform="translate(0 -2.19)"/><path class="cls-17" d="M110.77,82.71s4.53-4.37,11.74-1.46,0,8.19,0,8.19Z" transform="translate(0 -2.19)"/></g><path class="cls-9" d="M122.74,86.59c-8.55,0-14.27-10.24-14.34-10.36l-.86-1.57,1.79.09c.14,0,13.93.68,20-3.13a1,1,0,0,1,1.37.31,1,1,0,0,1-.31,1.38c-5.23,3.29-15.1,3.55-19.26,3.49,2.21,3.25,8,10.2,15.46,7a1,1,0,1,1,.8,1.84A11.52,11.52,0,0,1,122.74,86.59Z" transform="translate(0 -2.19)"/><path class="cls-9" d="M82.62,77.1s-.22-9.81-7.79-12.16" transform="translate(0 -2.19)"/><path class="cls-9" d="M74.84,154.83s6.47-8.67,5.62-7.35c-4.74,7.33,12.12,15.79,16.07,11.27a10.09,10.09,0,0,1-11,2.78Z" transform="translate(0 -2.19)"/><path class="cls-18" d="M89.69,116.69s-7.18,2.65-10.53,6c0,0,20.14,29.2,6.38,38.85,0,0,12.67,24.21,11.33,29.14S73,258.45,73,258.45s69.53-1.23,72-46.69l-3.29-26.17a219.47,219.47,0,0,0,1.94-26.54c.14-12.77-1.25-27.44-2.28-37.46a16.17,16.17,0,0,0-4.72-10.17l-6.54-.61s5.16,17.32-6.8,19C116.89,130.66,101.35,132.74,89.69,116.69Z" transform="translate(0 -2.19)"/><g class="cls-19"><path class="cls-20" d="M75.6,260.15s69.53-1.23,72-46.69Z" transform="translate(0 -2.19)"/></g><path class="cls-18" d="M89.69,116.69s-7.18,2.65-10.53,6c0,0,20.14,29.2,6.38,38.85,0,0,12.67,24.21,11.33,29.14S73,258.45,73,258.45s69.53-1.23,72-46.69l-3.29-26.17a219.47,219.47,0,0,0,1.94-26.54c.14-12.77-1.25-27.44-2.28-37.46a16.17,16.17,0,0,0-4.72-10.17l-6.54-.61s5.16,17.32-6.8,19C116.89,130.66,101.35,132.74,89.69,116.69Z" transform="translate(0 -2.19)"/><path class="cls-7" d="M95.32,195.76S132,200.64,142.15,189c0,0,1.11-2.31-.42-3.39.22,2.16-17.22,11.55-44.86,5.61A3,3,0,0,0,95.32,195.76Z" transform="translate(0 -2.19)"/><circle class="cls-21" cx="125.77" cy="191.8" r="8.55"/><g class="cls-22"><path class="cls-23" d="M85.17,28.58S81.5,33,86.16,36c1.63,1-4.83,6.06-4.83,6.06l-2.6,14.63a19.49,19.49,0,0,1,5.61-1.35l11.8,13.52-7.57,4.73L64.42,57.32,48.34,26.26,69.05,7.46,91.71,2.19l-4,7.89s-9.62,5.88-6,10.11C79.48,21.81,79,28.15,85.17,28.58Z" transform="translate(0 -2.19)"/></g><path class="cls-3" d="M74.7,62.52S70.36,60.58,70.36,57s16.9-37.53,52.19-31.7c0,0,5.46,3.82,3.59,5.68,0,0,3.36,4.18.67,6.43S111,36.35,74.7,62.52Z" transform="translate(0 -2.19)"/><path class="cls-24" d="M76.61,54.61s22.58-27.52,46.72-23.93C123.33,30.68,100.83,31.88,76.61,54.61Z" transform="translate(0 -2.19)"/><path class="cls-7" d="M48.28,387.21s12.84-5.49,25.68-1.29a5.55,5.55,0,0,0-.95-3.14c-1.06-1.68-17.16-4.26-24,1.38C49,384.16,47.55,386.26,48.28,387.21Z" transform="translate(0 -2.19)"/><path class="cls-7" d="M156.88,382.94s.5-11.31,12.87-7.14l.34.28a4,4,0,0,0-1.23-2.6,14,14,0,0,0-4.06-1.72S153.46,369,153.63,381C153.63,381,155.4,383.5,156.88,382.94Z" transform="translate(0 -2.19)"/><path class="cls-25" d="M126.72,201.17a8.32,8.32,0,0,1-6.14-2.39c-1.65-1.83-2.11-4.5-1.37-7.92a1.5,1.5,0,0,1,1.78-1.15,1.51,1.51,0,0,1,1.15,1.79c-.52,2.42-.3,4.2.67,5.28,1.46,1.62,4.3,1.38,4.32,1.37a1.5,1.5,0,0,1,.32,3S127.13,201.17,126.72,201.17Z" transform="translate(0 -2.19)"/><path class="cls-26" d="M130.94,198.27a1.66,1.66,0,0,1-.32,0,1.51,1.51,0,0,1-1.15-1.79c.54-2.42.33-4.19-.63-5.28-1.45-1.65-4.3-1.41-4.33-1.41a1.5,1.5,0,0,1-.29-3c.18,0,4.38-.39,6.86,2.4,1.63,1.85,2.08,4.51,1.32,7.93A1.49,1.49,0,0,1,130.94,198.27Z" transform="translate(0 -2.19)"/><path class="cls-9" d="M38.54,136.83a2.34,2.34,0,0,0,0-4c-.95-.71-2.18.88-1.27,1.66s2.14,1.71,3.53,1.44a3,3,0,0,0,2.3-2.34l-1.55.63a3.35,3.35,0,0,0,3.43.1c1.21-.61.15-2.43-1.06-1.82a1.18,1.18,0,0,1-1.3-.1,1.06,1.06,0,0,0-1.55.63c-.3,1.49-1.62.57-2.31,0l-1.28,1.65-.05.35c-1.1.77,0,2.6,1.07,1.82Z" transform="translate(0 -2.19)"/><path class="cls-9" d="M32.61,123.33c.49,2.28,1,4.55,1.63,6.8a1.05,1.05,0,0,0,2-.56q-.89-3.37-1.63-6.8c-.28-1.33-2.32-.77-2,.56Z" transform="translate(0 -2.19)"/><path class="cls-9" d="M60.73,159.85a20.92,20.92,0,0,1,2.39,8.28c.11,1.35,2.21,1.36,2.11,0a23.75,23.75,0,0,0-2.68-9.35c-.63-1.2-2.45-.14-1.82,1.07Z" transform="translate(0 -2.19)"/><path class="cls-27" d="M100.31,10.08a7.24,7.24,0,0,1,5.16,2.35,12.29,12.29,0,0,1,3.12-.41,11.37,11.37,0,0,1,8.46,3.85c9.31,3.49,5.61,9.09,5.4,9.41h.1S128,29.11,126.14,31c0,0,3.36,4.18.67,6.43a3,3,0,0,1-1,.49c7.65,11.91,12.21,32.94,9.19,50.28-.59,3.43-4.52,5.9-15.09,5.9h0a56.57,56.57,0,0,1-10.22-.9c.1.8.21,1.68.33,2.56h0c.53,3.78,1.3,8.07,2.15,8.7,5.39,4,13.43,5.73,17.95,6.38l6.54.61a16.27,16.27,0,0,1,1.46,1.65h.07c2,0,3.52,2.16,3.52,2.16l25.8,45.16-22.27,40s7.48,12.56,3.74,18.24l5.16,5.16s.82,2.77-2.92,2.77a11.22,11.22,0,0,1-4.33-1.41,281.79,281.79,0,0,1,1,29.26c-.36-.11-1.45-.25-3-.45l0,1.91h0c-.08,13.28,0,32.45.75,36.82,1.24,6.84,0,10.21,0,10.21S149,356.09,149,356.5s4.71,6.47,4.71,6.47,6.23,4.9,11.07,8.79h0a14,14,0,0,1,4.06,1.72,3.91,3.91,0,0,1,1.22,2.54c.33.22.86.58,1.47,1a15.66,15.66,0,0,0,4.21.78c.67.66,0,1.39-.87,2,.49.52.78,1,.7,1.26-.32,1.17-4.83,5.92-13,5.92-.46,0-.93,0-1.41-.05-8.56-.56-20.43-9.68-21.41-12.22a7.56,7.56,0,0,1,.13-5.12c0-2.17,1.31-4.76,2-6.06,1.12-2,1.91-7.74,1.91-7.74-12.34-43.29-5.27-49.38-6.62-52.52-.91-2.11-9.41-33.79-14.86-54.26a14.68,14.68,0,0,1-2.82-1.67,88.13,88.13,0,0,1-14.8,5.87l-1.57,3.93L88.49,294s-2.78,10.26-6.09,13.57a146,146,0,0,1-8.19,23.66c-5.6,12.56-8.07,29.83-8.07,29.83s4,10.21,4.49,16.58c4.72,6.47,9,14.45,3.34,16.81a32.3,32.3,0,0,1-12.24,2.15c-6.79,0-12.87-1.59-14.29-3C45.16,391.31,51.63,374,51.63,374c.2-1.57.64-3.08,1.56-3.72a27.86,27.86,0,0,0,4.93-5.39s-.84-2.24,1.51-5.27,5.84-22.45,5.84-25-3.14-21.53,7.32-29c0,0,1.2-24.28,4.27-41.84h0c.33-2,.69-3.9,1.09-5.67-3.21.27-5.14.3-5.14.3s16.8-46.89,22.24-62.84a3,3,0,0,1,1.44-4.34q.12-.37.18-.6c1.34-4.93-11.33-29.14-11.33-29.14l-10.7-6.7-7.42,34.31-5-1.9L55.7,176.9,43.57,140.54l-.36-.11a11.51,11.51,0,0,1-5-4.22,41.59,41.59,0,0,1-4.74.28H32.9a.87.87,0,0,1-.48-.1.88.88,0,0,1-.27-.59,52,52,0,0,0-2.72-9.55,1.47,1.47,0,0,1-.16-.84c.11-.51.71-.75,1.24-.8a3.1,3.1,0,0,0,1.52-.31c.58-.39.75-1.29,1.42-1.5a1,1,0,0,1,.34-.05c.3,0,.63.09.93.09a1,1,0,0,0,.39-.06c.54-.23.67-.92,1-1.37a3.7,3.7,0,0,1,2.27-.91,16.38,16.38,0,0,0,4-1.6.4.4,0,0,0,.23-.21.41.41,0,0,0,0-.22c-.62-2.87-1.92-5.74-2.53-8.61a65.68,65.68,0,0,1-1.05-8.23,4.41,4.41,0,0,1,2.28-2.76,1.34,1.34,0,0,1,.57-.17.67.67,0,0,1,.28.06,1.16,1.16,0,0,1,.5.89c.69,3.2,2.58,11.32,3.27,14.52.44,2,4.14,7.14,4.93,7.74s.9,1.36,1.8,2a2,2,0,0,1,.61.63,2,2,0,0,1,.17.91c0,1.8.09,3.61.13,5.41.06,2.11,0,4.48-1.47,6h0L61.83,160l-.19-.65.26.51.28-24.21s7.55-6.77,8.52-7.74c.63-.63,5.26-3.34,8.46-5.19h0c3.35-3.34,10.53-6,10.53-6S96.53,109,98,107.5s.78-5.5.78-5.5L95,87.61c-6.62-4.16-9.23-8.79-9.23-8.79a3.33,3.33,0,0,1-2.44,1A8.6,8.6,0,0,1,79,78.15s-9.5-9.49-6.51-14A2.84,2.84,0,0,1,75,62.81c2,0,4.28,1.62,5.92,3-3.36-2.94-5.16-3.34-5.9-3.34h-.22l-.06,0,0,0-.06,0,0-.07c-.7-.35-3.88-2.09-4.16-5.05-5.36-1.68-4.33-4.67-4.33-4.67-5.15-3.51,0-9.16,0-9.16-2.3-2.3-.52-5.64-.52-5.64-2.69-3.82.67-8.53.67-8.53.38-4.11,6.55-6.54,6.55-6.54.48-2.05,3-3,3-3a4.49,4.49,0,0,1,4.15-2.55h.34C82.5,12.46,90.89,12,94,12c.74,0,1.19,0,1.19,0a8.44,8.44,0,0,1,5.09-1.94m42.17,176.67,13.84-25-13.16-19.57c.35,5.62.57,11.4.51,16.83a219.47,219.47,0,0,1-1.94,26.54,1.83,1.83,0,0,1,.75,1.16M169.75,375.8h0M100.31,5.87h0A12,12,0,0,0,94,7.78c-4.6,0-12.21.8-16.11,5.51a8.54,8.54,0,0,0-5,3.32,9.34,9.34,0,0,0-3.26,3.1c-2.35,1.23-6.37,3.9-7.35,8.14-1.46,2.47-2.77,6.53-1.25,10.41a9.33,9.33,0,0,0,.13,5.09,10.76,10.76,0,0,0-1.47,6.47A8.49,8.49,0,0,0,61.9,54.7a7.77,7.77,0,0,0,.63,1.8,9.18,9.18,0,0,0,4.39,4,10,10,0,0,0,1.47,2.34c-1.51,3.28-.59,7.42,2.75,12.33A46.14,46.14,0,0,0,76,81.13l.21.21.23.18a12.6,12.6,0,0,0,6.9,2.5,8.1,8.1,0,0,0,1-.06,35.4,35.4,0,0,0,7,6.28l3.28,12.61a8.65,8.65,0,0,1,0,2c-1.63,1.7-5.76,6.35-7.46,8.27-2.23.9-7.36,3.17-10.59,6.15-7.79,4.49-8.43,5.13-8.9,5.6-.65.65-5.47,5-8.35,7.58L58,133.71l0,1.85,0,4.21-1-2.49a14.82,14.82,0,0,0,1-6.49l-.14-5.42a6,6,0,0,0-.65-2.76,5.84,5.84,0,0,0-1.68-1.94.56.56,0,0,1,0-.08,7.91,7.91,0,0,0-1.68-1.9,27.75,27.75,0,0,1-3.55-5.47c-.36-1.64-1-4.5-1.64-7.27s-1.28-5.63-1.62-7.2A5.14,5.14,0,0,0,44,94.93a4.79,4.79,0,0,0-2-.45,5.36,5.36,0,0,0-2.6.69,8.36,8.36,0,0,0-4.44,6c-.24,2.19,1.1,9.49,1.12,9.56a43.16,43.16,0,0,0,1.39,4.76l.28.85-.1,0-.28,0a7,7,0,0,0-4.3,2.17,4.68,4.68,0,0,0-.84.2,5.21,5.21,0,0,0-2.45,1.67,5.31,5.31,0,0,0-4.56,4.07,5.51,5.51,0,0,0,.35,3.26,47.71,47.71,0,0,1,2.5,8.77,4.92,4.92,0,0,0,2,3.3,5,5,0,0,0,2.81.85h.59c1,0,1.91,0,2.87-.09a16.27,16.27,0,0,0,3.85,3l11.56,34.61.16.5.29.45,6.67,10.34.76,1.17,1.3.49,5,1.9,4.57,1.73,1-4.78,6.15-28.44,4.64,2.9c1,1.88,3.12,6.17,5.23,10.82,3.86,8.49,4.86,12.22,5.11,13.69a6.8,6.8,0,0,0-1.88,6.62C85,212.53,69.2,256.57,69,257L67,262.78l6-.11-.06.36-.13.61v.08c-2.54,14.89-3.77,33.84-4.11,39.85-9.34,8.43-8,24.4-7.53,29.84,0,.49.09,1.1.09,1.27-.07,2.79-3.39,19.81-5,22.45a11,11,0,0,0-2.5,6.59,18.33,18.33,0,0,1-3,3.14C49,368.07,48,370.09,47.52,373c-.45,1.24-1.78,4.94-2.9,8.83-2.46,8.53-2.51,12.39-.16,14.73,2.92,2.92,11,4.25,17.27,4.25a36.44,36.44,0,0,0,13.86-2.48,8.28,8.28,0,0,0,5-5.44c1.16-4.19-.69-9.54-5.83-16.81-.69-5.58-3.23-12.77-4.24-15.48.63-3.86,3.07-17.52,7.59-27.66a152.35,152.35,0,0,0,8.19-23.38c3.3-4.17,5.64-12.06,6.25-14.23l14.61-36.64.82-2.06a94,94,0,0,0,11-4.28c11.57,43.39,13.71,50.51,14.28,52.12,0,.31-.12.83-.19,1.27-.86,5.11-2.84,17,6.56,50.32a27.43,27.43,0,0,1-1.29,5.42,18.22,18.22,0,0,0-2.54,7.35,11.51,11.51,0,0,0,.13,7.37c1.31,3.44,7.61,7.68,9.51,8.9,3.25,2.09,9.59,5.64,15.55,6,.56,0,1.13.05,1.69.05,9.71,0,16.16-5.78,17-9a4.37,4.37,0,0,0,.15-1.68,4.93,4.93,0,0,0,.42-1.59,5,5,0,0,0-1.48-4l-1.16-1.16-1.64-.07a13.26,13.26,0,0,1-2.21-.31,7.42,7.42,0,0,0-2.17-3.07,14.78,14.78,0,0,0-4.78-2.3c-4-3.18-8.65-6.87-10-8-1.36-1.75-2.85-3.74-3.58-4.77-.18-3.09-.85-13.82-3.26-51.9.42-1.75,1-5.52-.1-11.4-.25-1.38-.8-7.32-.7-32.75l2.92.92.13-5.61c0-.54.25-11.58-.57-23.75a6.88,6.88,0,0,0,5.65-2.63,6.37,6.37,0,0,0,1-5.54l-.31-1-.75-.75-3.22-3.22c1.35-5.94-1.84-13.35-3.84-17.19l21.13-37.91,1.16-2.08-1.18-2.07-25.8-45.16-.11-.19-.13-.18a10,10,0,0,0-4.76-3.57c-.24-.25-.48-.51-.73-.76l-1.07-1.07-1.51-.14-6.44-.6c-3.8-.56-10.57-1.94-15.22-5.07a30.88,30.88,0,0,1-.75-3.49c1.73.14,3.49.22,5.27.22,4.37,0,17.63,0,19.26-9.4,2.79-16.09-.56-36.55-8-50.23,1.47-2.57,1-5.7-.45-8.35a6.66,6.66,0,0,0,0-.77c-.19-2.21-1.7-4.19-3.29-5.7a9,9,0,0,0-.28-4.22c-1-3.12-3.55-5.58-7.65-7.31a15.53,15.53,0,0,0-10.91-4.5,17.8,17.8,0,0,0-1.92.11,11,11,0,0,0-6.36-2Zm47.23,163.06c.18-3.05.31-6.37.34-9.83,0-.75,0-1.51,0-2.29l3.5,5.19-3.85,6.93Z" transform="translate(0 -2.19)"/><polyline class="cls-8" points="43.21 138.24 43.79 138.57 52.71 134.95"/></g></g></g></svg>