<svg xmlns="http://www.w3.org/2000/svg" xmlns:xlink="http://www.w3.org/1999/xlink" viewBox="0 0 881 407.75"><defs><style>.cls-1{fill:none;}.cls-2{fill:#65c4d1;}.cls-3{fill:#fff;}.cls-4{fill:#f9f9f9;}.cls-5{fill:#97d8dd;}.cls-6{clip-path:url(#clip-path);}.cls-7{fill:#eaa000;}.cls-8{fill:#6d472e;}.cls-9{fill:#eac2a7;}.cls-10{fill:#c9a68f;}.cls-11{fill:#d6aa8b;}.cls-12{fill:#d6d6d6;}.cls-13{fill:#c99f4b;}.cls-14{fill:#6d5f56;}.cls-15{fill:#493e38;}.cls-16{clip-path:url(#clip-path-2);}.cls-17{fill:#fcfcfc;}.cls-18{fill:#d32222;}.cls-19{fill:#f4f4f4;}.cls-20{clip-path:url(#clip-path-3);}.cls-21{fill:#b7b7b7;}.cls-22{fill:#c99e32;}.cls-23{clip-path:url(#clip-path-4);}.cls-24{fill:#aa7e30;}.cls-25{fill:#ddd;}.cls-26{fill:#846829;}.cls-27{fill:#e8cd95;}</style><clipPath id="clip-path" transform="translate(0 -4.71)"><path class="cls-1" d="M150.28,237.71s-31.64,24-84.64,4.29-53-171.46-53-171.46S61.39-1.9,72.3,0s74.46,14.26,74.46,37.63S175.05,166,175.05,166s11.88,46,5.94,49.51"/></clipPath><clipPath id="clip-path-2" transform="translate(0 -4.71)"><path class="cls-1" d="M99.39,78c-.23-.34,16.36,3.89,23.58.26,0,0-.92,13-6.9,13.43C109.93,92.08,103.52,88.55,99.39,78Z"/></clipPath><clipPath id="clip-path-3" transform="translate(0 -4.71)"><path class="cls-1" d="M112.67,253.87c3.58,7.11,28.79,8.61,30.88,9.27,0,0,.65-28.55-3.37-44.58S112.67,253.87,112.67,253.87Z"/></clipPath><clipPath id="clip-path-4" transform="translate(0 -4.71)"><path class="cls-1" d="M82,77c4.45,1.84.62-6.13.62-6.13s-.42-8-2.68-9.35a32.26,32.26,0,0,1-4.94-4l11.36-7.79,31-21.28s4.29-6-5.51-9.65A11.68,11.68,0,0,0,100,15.2s-4.29-5.13-10.5-.42c0,0-12.49-.73-15.32,5.4a4.68,4.68,0,0,0-4.6,2.61s-2.6,1-3.1,3.1c0,0-6.32,2.49-6.71,6.71,0,0-3.44,4.82-.68,8.73,0,0-1.82,3.43.53,5.78,0,0-5.29,5.79,0,9.39,0,0-1.3,3.75,6.44,5.29l2.3,4.74s2.21-1,8.58,5.37S82,77,82,77Z"/></clipPath></defs><title>4-intro</title><g id="Camada_2" data-name="Camada 2"><g id="Camada_1-2" data-name="Camada 1"><path class="cls-2" d="M871,201.05H152V113.69H871a10,10,0,0,1,10,10v67.36A10,10,0,0,1,871,201.05Z" transform="translate(0 -4.71)"/><path class="cls-3" d="M256.53,153.65v-1.48l1.91-.32V138.4l-1.91-.32v-1.49h6.12v1.49l-1.91.32v13.45h5.93l.18-2h2v3.76Z" transform="translate(0 -4.71)"/><path class="cls-3" d="M276.58,153.9a5.36,5.36,0,0,1-4.22-1.77,6.63,6.63,0,0,1-1.56-4.57V147a6.5,6.5,0,0,1,1.61-4.5,5,5,0,0,1,3.82-1.8,4.81,4.81,0,0,1,3.87,1.54,6.15,6.15,0,0,1,1.32,4.13v1.44h-8.23l0,.06a5.05,5.05,0,0,0,.93,3,2.94,2.94,0,0,0,2.5,1.18,5.84,5.84,0,0,0,2.05-.33,4.7,4.7,0,0,0,1.53-.92l.91,1.5a5.81,5.81,0,0,1-1.8,1.11A7.25,7.25,0,0,1,276.58,153.9Zm-.35-11.35a2.52,2.52,0,0,0-2,1,4.63,4.63,0,0,0-1,2.46l0,.06h5.85v-.31a3.49,3.49,0,0,0-.73-2.27A2.58,2.58,0,0,0,276.23,142.55Z" transform="translate(0 -4.71)"/><path class="cls-3" d="M283.7,147.55a8.35,8.35,0,0,1,1.34-4.94,4.28,4.28,0,0,1,3.69-1.87,4.4,4.4,0,0,1,2.1.47,4.14,4.14,0,0,1,1.51,1.35l.21-1.59h1.94v12.52a5.29,5.29,0,0,1-1.37,3.87,5.18,5.18,0,0,1-3.9,1.41,8.52,8.52,0,0,1-2-.25,7.59,7.59,0,0,1-1.87-.69L286,156a6.35,6.35,0,0,0,1.53.56,6.82,6.82,0,0,0,1.71.23,2.8,2.8,0,0,0,2.27-.87,3.77,3.77,0,0,0,.72-2.47v-1.21a4.22,4.22,0,0,1-1.49,1.21,4.65,4.65,0,0,1-2,.41,4.43,4.43,0,0,1-3.67-1.69,6.93,6.93,0,0,1-1.34-4.42Zm2.31.24a5.26,5.26,0,0,0,.81,3.07,2.81,2.81,0,0,0,2.46,1.16,3.11,3.11,0,0,0,1.75-.47,3.83,3.83,0,0,0,1.16-1.34v-5.84a3.6,3.6,0,0,0-1.16-1.28,3,3,0,0,0-1.73-.48,2.69,2.69,0,0,0-2.47,1.38,6.9,6.9,0,0,0-.82,3.56Z" transform="translate(0 -4.71)"/><path class="cls-3" d="M305.55,153.65c-.07-.34-.13-.65-.17-.93s-.06-.54-.08-.82a5.66,5.66,0,0,1-1.67,1.43,4.77,4.77,0,0,1-5.15-.4,3.53,3.53,0,0,1-1-2.72,3.14,3.14,0,0,1,1.46-2.79,7.1,7.1,0,0,1,4-1h2.38V145a2.3,2.3,0,0,0-.71-1.77,2.77,2.77,0,0,0-1.95-.65,4.73,4.73,0,0,0-1.53.23,2.83,2.83,0,0,0-1.07.6l-.25,1.34H298v-2.46a7,7,0,0,1,2.1-1.11,8.49,8.49,0,0,1,2.67-.41,5.27,5.27,0,0,1,3.49,1.1A3.84,3.84,0,0,1,307.6,145v6.59l0,.47.94.12v1.48ZM301.83,152a4.07,4.07,0,0,0,2.1-.55,3.46,3.46,0,0,0,1.36-1.32V148h-2.46a3.5,3.5,0,0,0-2.25.66,2,2,0,0,0-.82,1.59,1.57,1.57,0,0,0,.51,1.27A2.34,2.34,0,0,0,301.83,152Z" transform="translate(0 -4.71)"/><path class="cls-3" d="M310.17,136.86v-1.49h4.22v16.48l1.91.32v1.48h-6.13v-1.48l1.91-.32V137.19Z" transform="translate(0 -4.71)"/><path class="cls-3" d="M321,148.05h-2.31V136.59H321Zm0,5.6h-2.31v-2.39H321Z" transform="translate(0 -4.71)"/><path class="cls-3" d="M334.57,138.08l-1.56.24,3.82,11.09.39,1.35h.07l.39-1.35,3.81-11.1-1.54-.23v-1.49h5.38v1.49l-1.37.18-5.72,15.39h-2l-5.72-15.39-1.36-.18v-1.49h5.39Z" transform="translate(0 -4.71)"/><path class="cls-3" d="M354.64,153.65c-.07-.34-.13-.65-.17-.93a7.34,7.34,0,0,1-.08-.82,5.66,5.66,0,0,1-1.67,1.43,4.77,4.77,0,0,1-5.15-.4,3.53,3.53,0,0,1-1-2.72,3.14,3.14,0,0,1,1.46-2.79,7.1,7.1,0,0,1,4-1h2.38V145a2.3,2.3,0,0,0-.71-1.77,2.77,2.77,0,0,0-1.95-.65,4.73,4.73,0,0,0-1.53.23,2.83,2.83,0,0,0-1.07.6l-.25,1.34h-1.78v-2.46a7,7,0,0,1,2.1-1.11,8.49,8.49,0,0,1,2.67-.41,5.27,5.27,0,0,1,3.49,1.1,3.84,3.84,0,0,1,1.34,3.15v6.59l0,.47.94.12v1.48ZM350.92,152a4.07,4.07,0,0,0,2.1-.55,3.46,3.46,0,0,0,1.36-1.32V148h-2.46a3.5,3.5,0,0,0-2.25.66,2,2,0,0,0-.82,1.59,1.57,1.57,0,0,0,.51,1.27A2.34,2.34,0,0,0,350.92,152Z" transform="translate(0 -4.71)"/><path class="cls-3" d="M359.12,152.17l1.91-.32v-9.06l-1.91-.33V141h4l.15,1.65a4.2,4.2,0,0,1,1.57-1.39,4.79,4.79,0,0,1,2.23-.49,3.91,3.91,0,0,1,2.17.58,3.57,3.57,0,0,1,1.37,1.76,4.57,4.57,0,0,1,1.58-1.71,4.15,4.15,0,0,1,2.3-.63,3.81,3.81,0,0,1,3.07,1.33,6.06,6.06,0,0,1,1.12,4v5.78l1.91.32v1.48h-6.14v-1.48l1.91-.32v-5.8a4.24,4.24,0,0,0-.64-2.66,2.34,2.34,0,0,0-1.91-.78,2.41,2.41,0,0,0-1.94.85,3.64,3.64,0,0,0-.85,2.14v6.25l1.91.32v1.48h-6.13v-1.48l1.91-.32v-5.8a4.17,4.17,0,0,0-.66-2.61,2.33,2.33,0,0,0-1.92-.83,3.15,3.15,0,0,0-1.73.44,2.7,2.7,0,0,0-1.05,1.21v7.59l1.91.32v1.48h-6.13Z" transform="translate(0 -4.71)"/><path class="cls-3" d="M382.15,147.19a7,7,0,0,1,1.52-4.63,5.65,5.65,0,0,1,8.3,0,7,7,0,0,1,1.52,4.64v.26a6.92,6.92,0,0,1-1.52,4.64,5.1,5.1,0,0,1-4.14,1.81,5.19,5.19,0,0,1-4.16-1.81,7,7,0,0,1-1.52-4.64Zm2.31.26a6,6,0,0,0,.85,3.33,3.06,3.06,0,0,0,5,0,6,6,0,0,0,.86-3.33v-.26a6,6,0,0,0-.86-3.31,3,3,0,0,0-5,0,6.07,6.07,0,0,0-.84,3.31Z" transform="translate(0 -4.71)"/><path class="cls-3" d="M405.31,145h-1.74l-.37-1.53a3.26,3.26,0,0,0-1.06-.64,4.12,4.12,0,0,0-1.45-.24,2.67,2.67,0,0,0-1.83.54,1.68,1.68,0,0,0-.6,1.3,1.47,1.47,0,0,0,.53,1.19,5.53,5.53,0,0,0,2.15.77,9.16,9.16,0,0,1,3.57,1.4,2.82,2.82,0,0,1,1.17,2.37,3.26,3.26,0,0,1-1.36,2.73,5.69,5.69,0,0,1-3.57,1.05,9,9,0,0,1-2.59-.34,6.79,6.79,0,0,1-2.05-1v-2.9h1.73l.43,1.7a2.47,2.47,0,0,0,1.09.53,6,6,0,0,0,1.4.16,3.23,3.23,0,0,0,1.93-.5,1.52,1.52,0,0,0,.69-1.3,1.57,1.57,0,0,0-.58-1.26,5.52,5.52,0,0,0-2.19-.85,9.42,9.42,0,0,1-3.48-1.37,2.76,2.76,0,0,1-1.18-2.35,3.29,3.29,0,0,1,1.32-2.63,5.19,5.19,0,0,1,3.43-1.09,8.35,8.35,0,0,1,2.59.37,5.46,5.46,0,0,1,1.91,1Z" transform="translate(0 -4.71)"/><path class="cls-3" d="M418.15,142.46l-1.52.23,2.61,7.22.21.92h.07l.22-.92,2.54-7.22-1.54-.23V141h4.9v1.49l-1,.17-4.26,11H418.6l-4.3-11-1.05-.17V141h4.9Z" transform="translate(0 -4.71)"/><path class="cls-3" d="M432.83,153.9a5.34,5.34,0,0,1-4.21-1.77,6.63,6.63,0,0,1-1.56-4.57V147a6.45,6.45,0,0,1,1.61-4.5,5,5,0,0,1,3.81-1.8,4.81,4.81,0,0,1,3.88,1.54,6.2,6.2,0,0,1,1.31,4.13v1.44h-8.22l0,.06a5,5,0,0,0,.93,3,2.92,2.92,0,0,0,2.49,1.18,5.86,5.86,0,0,0,2.06-.33,4.7,4.7,0,0,0,1.53-.92l.9,1.5a5.59,5.59,0,0,1-1.8,1.11A7.18,7.18,0,0,1,432.83,153.9Zm-.35-11.35a2.52,2.52,0,0,0-2,1,4.72,4.72,0,0,0-1,2.46l0,.06h5.85v-.31a3.55,3.55,0,0,0-.73-2.27A2.6,2.6,0,0,0,432.48,142.55Z" transform="translate(0 -4.71)"/><path class="cls-3" d="M440,142.46V141h4l.22,1.84a4.42,4.42,0,0,1,1.33-1.52,3.07,3.07,0,0,1,1.81-.55,3.6,3.6,0,0,1,.56,0,1.76,1.76,0,0,1,.44.09L448,143l-1.32-.07a2.58,2.58,0,0,0-1.53.43,2.63,2.63,0,0,0-1,1.2v7.28l1.91.32v1.48H440v-1.48l1.91-.32v-9.06Z" transform="translate(0 -4.71)"/><path class="cls-3" d="M465.54,145h-1.73l-.38-1.53a3.16,3.16,0,0,0-1.06-.64,4.08,4.08,0,0,0-1.45-.24,2.62,2.62,0,0,0-1.82.54,1.68,1.68,0,0,0-.6,1.3,1.44,1.44,0,0,0,.53,1.19,5.47,5.47,0,0,0,2.14.77,9.16,9.16,0,0,1,3.57,1.4,2.8,2.8,0,0,1,1.18,2.37,3.27,3.27,0,0,1-1.37,2.73A5.69,5.69,0,0,1,461,153.9a9,9,0,0,1-2.59-.34,6.9,6.9,0,0,1-2.05-1v-2.9h1.74l.43,1.7a2.43,2.43,0,0,0,1.08.53,6,6,0,0,0,1.4.16,3.21,3.21,0,0,0,1.93-.5,1.51,1.51,0,0,0,.7-1.3A1.6,1.6,0,0,0,463,149a5.58,5.58,0,0,0-2.2-.85,9.42,9.42,0,0,1-3.48-1.37,2.77,2.77,0,0,1-1.17-2.35,3.29,3.29,0,0,1,1.32-2.63,5.18,5.18,0,0,1,3.42-1.09,8.26,8.26,0,0,1,2.59.37,5.37,5.37,0,0,1,1.91,1Z" transform="translate(0 -4.71)"/><path class="cls-3" d="M473.86,153.9a5.34,5.34,0,0,1-4.21-1.77,6.64,6.64,0,0,1-1.57-4.57V147a6.46,6.46,0,0,1,1.62-4.5,5,5,0,0,1,3.81-1.8,4.81,4.81,0,0,1,3.87,1.54,6.15,6.15,0,0,1,1.32,4.13v1.44h-8.22l0,.06a4.92,4.92,0,0,0,.93,3,2.92,2.92,0,0,0,2.49,1.18,5.9,5.9,0,0,0,2.06-.33,4.7,4.7,0,0,0,1.53-.92l.9,1.5a5.59,5.59,0,0,1-1.8,1.11A7.18,7.18,0,0,1,473.86,153.9Zm-.35-11.35a2.52,2.52,0,0,0-2,1,4.64,4.64,0,0,0-1,2.46l0,.06h5.84v-.31a3.54,3.54,0,0,0-.72-2.27A2.61,2.61,0,0,0,473.51,142.55Z" transform="translate(0 -4.71)"/><path class="cls-3" d="M491.29,142.46l-1.53.23,2.62,7.22.21.92h.07l.22-.92,2.53-7.22-1.53-.23V141h4.9v1.49l-1,.17-4.25,11h-1.75l-4.3-11-1-.17V141h4.9Z" transform="translate(0 -4.71)"/><path class="cls-3" d="M500.17,147.19a7,7,0,0,1,1.52-4.63,5.64,5.64,0,0,1,8.29,0,7,7,0,0,1,1.53,4.64v.26a6.92,6.92,0,0,1-1.52,4.64,5.1,5.1,0,0,1-4.14,1.81,5.19,5.19,0,0,1-4.16-1.81,7,7,0,0,1-1.52-4.64Zm2.31.26a6,6,0,0,0,.85,3.33,3.06,3.06,0,0,0,5,0,6,6,0,0,0,.86-3.33v-.26a6,6,0,0,0-.86-3.31,3,3,0,0,0-5,0,6.07,6.07,0,0,0-.84,3.31Z" transform="translate(0 -4.71)"/><path class="cls-3" d="M519.32,152.09a3.08,3.08,0,0,0,2-.71,2.16,2.16,0,0,0,.87-1.74h2.08l0,.07a3.57,3.57,0,0,1-1.46,2.92,5.37,5.37,0,0,1-3.53,1.27,5.12,5.12,0,0,1-4.23-1.81,7,7,0,0,1-1.45-4.53v-.5a6.9,6.9,0,0,1,1.46-4.51,5.1,5.1,0,0,1,4.22-1.81,7,7,0,0,1,2.74.5,5.8,5.8,0,0,1,2,1.38l.1,2.82h-1.84l-.5-2a3.16,3.16,0,0,0-1.06-.64,3.9,3.9,0,0,0-1.45-.25,2.79,2.79,0,0,0-2.6,1.31,6.14,6.14,0,0,0-.78,3.2v.5a6.22,6.22,0,0,0,.78,3.24A2.78,2.78,0,0,0,519.32,152.09Z" transform="translate(0 -4.71)"/><path class="cls-3" d="M532.35,153.9a5.32,5.32,0,0,1-4.21-1.77,6.59,6.59,0,0,1-1.57-4.57V147a6.5,6.5,0,0,1,1.61-4.5,5,5,0,0,1,3.82-1.8,4.81,4.81,0,0,1,3.87,1.54,6.15,6.15,0,0,1,1.32,4.13v1.44H529l0,.06a5,5,0,0,0,.92,3,3,3,0,0,0,2.5,1.18,5.9,5.9,0,0,0,2.06-.33,4.7,4.7,0,0,0,1.53-.92l.9,1.5a5.59,5.59,0,0,1-1.8,1.11A7.21,7.21,0,0,1,532.35,153.9Zm3.28-15.34v.29h-1.89L532,137.12l-1.7,1.73h-1.87v-.3l2.88-2.78h1.4Zm-3.63,4a2.52,2.52,0,0,0-2,1,4.64,4.64,0,0,0-1,2.46l0,.06h5.85v-.31a3.49,3.49,0,0,0-.73-2.27A2.58,2.58,0,0,0,532,142.55Z" transform="translate(0 -4.71)"/><path class="cls-3" d="M551.22,153.9a5.36,5.36,0,0,1-4.22-1.77,6.63,6.63,0,0,1-1.56-4.57V147a6.5,6.5,0,0,1,1.61-4.5,5,5,0,0,1,3.82-1.8,4.81,4.81,0,0,1,3.87,1.54,6.15,6.15,0,0,1,1.32,4.13v1.44h-8.23l0,.06a5,5,0,0,0,.92,3,3,3,0,0,0,2.5,1.18,5.84,5.84,0,0,0,2-.33,4.7,4.7,0,0,0,1.53-.92l.91,1.5a5.81,5.81,0,0,1-1.8,1.11A7.25,7.25,0,0,1,551.22,153.9Zm-.35-11.35a2.49,2.49,0,0,0-2,1,4.56,4.56,0,0,0-1,2.46l0,.06h5.85v-.31a3.49,3.49,0,0,0-.73-2.27A2.58,2.58,0,0,0,550.87,142.55Z" transform="translate(0 -4.71)"/><path class="cls-3" d="M558,152.17l1.91-.32v-9.06l-1.91-.33V141h4l.17,1.89a4.59,4.59,0,0,1,1.59-1.57,4.22,4.22,0,0,1,2.17-.55,4.15,4.15,0,0,1,3.18,1.2,5.26,5.26,0,0,1,1.12,3.71v6.2l1.91.32v1.48H566v-1.48l1.91-.32v-6.16a3.46,3.46,0,0,0-.66-2.38,2.69,2.69,0,0,0-2-.7,3.28,3.28,0,0,0-1.77.48,3.5,3.5,0,0,0-1.22,1.31v7.45l1.91.32v1.48H558Z" transform="translate(0 -4.71)"/><path class="cls-3" d="M577.81,137.91V141h2.4v1.71h-2.4v7.7a1.7,1.7,0,0,0,.37,1.25,1.29,1.29,0,0,0,1,.37,5.89,5.89,0,0,0,.69-.05l.64-.12.32,1.59a3,3,0,0,1-1,.34,6,6,0,0,1-1.26.14,3,3,0,0,1-2.24-.85,3.73,3.73,0,0,1-.83-2.67v-7.7h-2V141h2v-3.06Z" transform="translate(0 -4.71)"/><path class="cls-3" d="M588.35,153.9a5.34,5.34,0,0,1-4.21-1.77,6.63,6.63,0,0,1-1.56-4.57V147a6.45,6.45,0,0,1,1.61-4.5,5,5,0,0,1,3.81-1.8,4.81,4.81,0,0,1,3.88,1.54,6.2,6.2,0,0,1,1.31,4.13v1.44H585l0,.06a5,5,0,0,0,.93,3,2.92,2.92,0,0,0,2.49,1.18,5.86,5.86,0,0,0,2.06-.33,4.7,4.7,0,0,0,1.53-.92l.9,1.5a5.59,5.59,0,0,1-1.8,1.11A7.18,7.18,0,0,1,588.35,153.9ZM588,142.55a2.52,2.52,0,0,0-2,1,4.72,4.72,0,0,0-1,2.46l0,.06h5.85v-.31a3.55,3.55,0,0,0-.73-2.27A2.6,2.6,0,0,0,588,142.55Z" transform="translate(0 -4.71)"/><path class="cls-3" d="M595.13,152.17l1.91-.32v-9.06l-1.91-.33V141h4l.16,1.89a4.77,4.77,0,0,1,1.59-1.57,4.26,4.26,0,0,1,2.18-.55,4.14,4.14,0,0,1,3.17,1.2,5.26,5.26,0,0,1,1.13,3.71v6.2l1.91.32v1.48h-6.13v-1.48l1.91-.32v-6.16a3.46,3.46,0,0,0-.66-2.38,2.71,2.71,0,0,0-2-.7,3.25,3.25,0,0,0-1.76.48,3.5,3.5,0,0,0-1.22,1.31v7.45l1.91.32v1.48h-6.13Z" transform="translate(0 -4.71)"/><path class="cls-3" d="M619.34,152.14a4.13,4.13,0,0,1-1.52,1.31,4.58,4.58,0,0,1-2.08.45,4.32,4.32,0,0,1-3.63-1.69,7,7,0,0,1-1.3-4.42v-.24a8.49,8.49,0,0,1,1.3-4.94,4.2,4.2,0,0,1,3.65-1.87,4.62,4.62,0,0,1,2,.41,4.15,4.15,0,0,1,1.47,1.2v-5.16l-1.91-.33v-1.49h4.22v16.48l1.91.32v1.48h-3.91Zm-6.22-4.35a5.41,5.41,0,0,0,.78,3.07,2.73,2.73,0,0,0,2.43,1.16,3,3,0,0,0,1.73-.47,3.49,3.49,0,0,0,1.16-1.32v-5.88a3.48,3.48,0,0,0-1.16-1.27,3.09,3.09,0,0,0-1.71-.47,2.62,2.62,0,0,0-2.44,1.37,7.07,7.07,0,0,0-.79,3.57Z" transform="translate(0 -4.71)"/><path class="cls-3" d="M631,153.9a5.36,5.36,0,0,1-4.22-1.77,6.63,6.63,0,0,1-1.56-4.57V147a6.5,6.5,0,0,1,1.61-4.5,5,5,0,0,1,3.82-1.8,4.81,4.81,0,0,1,3.87,1.54,6.15,6.15,0,0,1,1.32,4.13v1.44H627.6l0,.06a5,5,0,0,0,.92,3,2.94,2.94,0,0,0,2.5,1.18,5.84,5.84,0,0,0,2-.33,4.7,4.7,0,0,0,1.53-.92l.91,1.5a5.81,5.81,0,0,1-1.8,1.11A7.25,7.25,0,0,1,631,153.9Zm-.35-11.35a2.52,2.52,0,0,0-2,1,4.63,4.63,0,0,0-1,2.46l0,.06h5.85v-.31a3.49,3.49,0,0,0-.73-2.27A2.58,2.58,0,0,0,630.64,142.55Z" transform="translate(0 -4.71)"/><path class="cls-3" d="M647.17,151.78a4.11,4.11,0,0,1-3.71,2.12,4.06,4.06,0,0,1-3.23-1.33,6.16,6.16,0,0,1-1.16-4.12v-5.66l-1.45-.33V141h3.76v7.5a4.72,4.72,0,0,0,.6,2.79,2.22,2.22,0,0,0,1.86.76,3.76,3.76,0,0,0,2-.5,3.1,3.1,0,0,0,1.21-1.41v-7.32l-1.7-.33V141h4v10.88l1.45.32v1.48h-3.53Z" transform="translate(0 -4.71)"/><path class="cls-3" d="M658.65,147.19a7,7,0,0,1,1.53-4.63,5.08,5.08,0,0,1,4.14-1.82,5.14,5.14,0,0,1,4.15,1.81,7,7,0,0,1,1.53,4.64v.26a7,7,0,0,1-1.52,4.64,5.66,5.66,0,0,1-8.3,0,7,7,0,0,1-1.53-4.64Zm2.31.26a6.07,6.07,0,0,0,.85,3.33,2.83,2.83,0,0,0,2.53,1.31,2.8,2.8,0,0,0,2.49-1.31,6,6,0,0,0,.86-3.33v-.26a6,6,0,0,0-.86-3.31,3,3,0,0,0-5,0,6,6,0,0,0-.85,3.31Z" transform="translate(0 -4.71)"/><path class="cls-3" d="M683.77,152.09a3.08,3.08,0,0,0,2-.71,2.16,2.16,0,0,0,.87-1.74h2.08l0,.07a3.57,3.57,0,0,1-1.46,2.92,5.37,5.37,0,0,1-3.53,1.27,5.11,5.11,0,0,1-4.23-1.81,7,7,0,0,1-1.46-4.53v-.5a6.91,6.91,0,0,1,1.47-4.51,5.1,5.1,0,0,1,4.22-1.81,7,7,0,0,1,2.73.5,5.62,5.62,0,0,1,2,1.38l.11,2.82h-1.84l-.5-2a3.16,3.16,0,0,0-1.06-.64,3.9,3.9,0,0,0-1.45-.25,2.79,2.79,0,0,0-2.6,1.31,6.14,6.14,0,0,0-.78,3.2v.5a6.22,6.22,0,0,0,.78,3.24A2.78,2.78,0,0,0,683.77,152.09Z" transform="translate(0 -4.71)"/><path class="cls-3" d="M691,147.19a7,7,0,0,1,1.53-4.63,5.07,5.07,0,0,1,4.13-1.82,5.16,5.16,0,0,1,4.16,1.81,7,7,0,0,1,1.53,4.64v.26a6.92,6.92,0,0,1-1.53,4.64,5.1,5.1,0,0,1-4.13,1.81,5.16,5.16,0,0,1-4.16-1.81,7,7,0,0,1-1.53-4.64Zm2.31.26a6,6,0,0,0,.85,3.33,2.83,2.83,0,0,0,2.53,1.31,2.8,2.8,0,0,0,2.49-1.31,6,6,0,0,0,.86-3.33v-.26a6,6,0,0,0-.86-3.31,3,3,0,0,0-5,0,6.07,6.07,0,0,0-.84,3.31Z" transform="translate(0 -4.71)"/><path class="cls-3" d="M704.14,152.17l1.91-.32v-9.06l-1.91-.33V141h4l.16,1.89a4.59,4.59,0,0,1,1.59-1.57,4.24,4.24,0,0,1,2.17-.55,4.15,4.15,0,0,1,3.18,1.2,5.26,5.26,0,0,1,1.12,3.71v6.2l1.91.32v1.48h-6.12v-1.48l1.91-.32v-6.16a3.4,3.4,0,0,0-.67-2.38,2.67,2.67,0,0,0-2-.7,3.25,3.25,0,0,0-1.76.48,3.61,3.61,0,0,0-1.23,1.31v7.45l1.91.32v1.48h-6.12Z" transform="translate(0 -4.71)"/><path class="cls-3" d="M725.5,152.09a3.08,3.08,0,0,0,2-.71,2.16,2.16,0,0,0,.87-1.74h2.08l0,.07a3.57,3.57,0,0,1-1.46,2.92,5.37,5.37,0,0,1-3.53,1.27,5.11,5.11,0,0,1-4.23-1.81,7,7,0,0,1-1.45-4.53v-.5a6.9,6.9,0,0,1,1.46-4.51,5.1,5.1,0,0,1,4.22-1.81,7,7,0,0,1,2.73.5,5.62,5.62,0,0,1,2,1.38l.11,2.82h-1.84l-.5-2a3.16,3.16,0,0,0-1.06-.64,3.9,3.9,0,0,0-1.45-.25,2.79,2.79,0,0,0-2.6,1.31,6.14,6.14,0,0,0-.78,3.2v.5a6.22,6.22,0,0,0,.78,3.24A2.78,2.78,0,0,0,725.5,152.09Z" transform="translate(0 -4.71)"/><path class="cls-3" d="M738.53,153.9a5.32,5.32,0,0,1-4.21-1.77,6.59,6.59,0,0,1-1.57-4.57V147a6.5,6.5,0,0,1,1.61-4.5,5,5,0,0,1,3.82-1.8,4.81,4.81,0,0,1,3.87,1.54,6.15,6.15,0,0,1,1.32,4.13v1.44h-8.23l0,.06a5,5,0,0,0,.92,3,3,3,0,0,0,2.5,1.18,5.9,5.9,0,0,0,2.06-.33,4.7,4.7,0,0,0,1.53-.92l.9,1.5a5.59,5.59,0,0,1-1.8,1.11A7.21,7.21,0,0,1,738.53,153.9Zm-.35-11.35a2.49,2.49,0,0,0-2,1,4.64,4.64,0,0,0-1,2.46l0,.06h5.85v-.31a3.49,3.49,0,0,0-.73-2.27A2.58,2.58,0,0,0,738.18,142.55Z" transform="translate(0 -4.71)"/><path class="cls-3" d="M745.64,152.17l1.91-.32v-9.06l-1.91-.33V141h4.22v10.88l1.91.32v1.48h-6.13Zm4.22-14.45h-2.31v-2.35h2.31Z" transform="translate(0 -4.71)"/><path class="cls-3" d="M757.56,137.91V141H760v1.71h-2.4v7.7a1.7,1.7,0,0,0,.37,1.25,1.31,1.31,0,0,0,1,.37,5.89,5.89,0,0,0,.68-.05l.64-.12.32,1.59a3,3,0,0,1-1,.34,6.1,6.1,0,0,1-1.27.14,3,3,0,0,1-2.24-.85,3.73,3.73,0,0,1-.83-2.67v-7.7h-2V141h2v-3.06Z" transform="translate(0 -4.71)"/><path class="cls-3" d="M762.1,147.19a6.94,6.94,0,0,1,1.52-4.63,5.64,5.64,0,0,1,8.29,0,7,7,0,0,1,1.53,4.64v.26a7,7,0,0,1-1.52,4.64,5.66,5.66,0,0,1-8.3,0,7,7,0,0,1-1.52-4.64Zm2.3.26a6.07,6.07,0,0,0,.85,3.33,3.07,3.07,0,0,0,5,0,6,6,0,0,0,.85-3.33v-.26a6,6,0,0,0-.85-3.31,3,3,0,0,0-5,0,6.07,6.07,0,0,0-.85,3.31Z" transform="translate(0 -4.71)"/><path class="cls-3" d="M790.06,152.14a4.13,4.13,0,0,1-1.52,1.31,4.58,4.58,0,0,1-2.08.45,4.32,4.32,0,0,1-3.63-1.69,7,7,0,0,1-1.3-4.42v-.24a8.49,8.49,0,0,1,1.3-4.94,4.2,4.2,0,0,1,3.65-1.87,4.62,4.62,0,0,1,2,.41,4.23,4.23,0,0,1,1.47,1.2v-5.16l-1.91-.33v-1.49h4.22v16.48l1.91.32v1.48h-3.92Zm-6.23-4.35a5.41,5.41,0,0,0,.79,3.07,2.73,2.73,0,0,0,2.43,1.16,3,3,0,0,0,1.73-.47,3.49,3.49,0,0,0,1.16-1.32v-5.88a3.48,3.48,0,0,0-1.16-1.27,3.09,3.09,0,0,0-1.71-.47,2.62,2.62,0,0,0-2.44,1.37,7.07,7.07,0,0,0-.8,3.57Z" transform="translate(0 -4.71)"/><path class="cls-3" d="M804.19,153.65c-.07-.34-.12-.65-.16-.93s-.07-.54-.09-.82a5.54,5.54,0,0,1-1.67,1.43,4.22,4.22,0,0,1-2.13.57,4.3,4.3,0,0,1-3-1,3.56,3.56,0,0,1-1-2.72,3.16,3.16,0,0,1,1.46-2.79,7.13,7.13,0,0,1,4-1h2.38V145a2.29,2.29,0,0,0-.7-1.77,2.79,2.79,0,0,0-2-.65,4.73,4.73,0,0,0-1.53.23,2.83,2.83,0,0,0-1.07.6l-.25,1.34h-1.78v-2.46a7,7,0,0,1,2.1-1.11,8.49,8.49,0,0,1,2.67-.41,5.27,5.27,0,0,1,3.49,1.1,3.81,3.81,0,0,1,1.34,3.15v6.11c0,.16,0,.32,0,.48a3.83,3.83,0,0,0,0,.47l.93.12v1.48ZM800.48,152a4.06,4.06,0,0,0,2.09-.55,3.33,3.33,0,0,0,1.36-1.32V148h-2.46a3.49,3.49,0,0,0-2.24.66,2,2,0,0,0-.83,1.59,1.55,1.55,0,0,0,.52,1.27A2.31,2.31,0,0,0,800.48,152Z" transform="translate(0 -4.71)"/><path class="cls-3" d="M265.28,180.94a4.06,4.06,0,0,1-1.52,1.31,4.58,4.58,0,0,1-2.08.45,4.34,4.34,0,0,1-3.62-1.69,6.94,6.94,0,0,1-1.31-4.42v-.25a8.38,8.38,0,0,1,1.31-4.93,4.18,4.18,0,0,1,3.65-1.87,4.44,4.44,0,0,1,2,.41,4.06,4.06,0,0,1,1.47,1.2V166l-1.91-.32v-1.49h4.22v16.47l1.91.33v1.48h-3.91Zm-6.22-4.35a5.41,5.41,0,0,0,.78,3.07,2.74,2.74,0,0,0,2.43,1.16,3.06,3.06,0,0,0,1.73-.47,3.49,3.49,0,0,0,1.16-1.32v-5.89a3.44,3.44,0,0,0-1.16-1.26,3,3,0,0,0-1.71-.47,2.63,2.63,0,0,0-2.44,1.37,7.06,7.06,0,0,0-.79,3.56Z" transform="translate(0 -4.71)"/><path class="cls-3" d="M276.93,182.7a5.32,5.32,0,0,1-4.21-1.77,6.59,6.59,0,0,1-1.57-4.57v-.52a6.54,6.54,0,0,1,1.61-4.51,5,5,0,0,1,3.82-1.79,4.81,4.81,0,0,1,3.87,1.54,6.15,6.15,0,0,1,1.32,4.13v1.44h-8.23l0,.06a5,5,0,0,0,.92,3,3,3,0,0,0,2.5,1.18,5.8,5.8,0,0,0,2.05-.33,4.88,4.88,0,0,0,1.53-.92l.91,1.5a5.8,5.8,0,0,1-1.8,1.1A7,7,0,0,1,276.93,182.7Zm-.35-11.35a2.49,2.49,0,0,0-2,1,4.56,4.56,0,0,0-1,2.46l0,.05h5.85v-.3a3.49,3.49,0,0,0-.73-2.27A2.58,2.58,0,0,0,276.58,171.35Z" transform="translate(0 -4.71)"/><path class="cls-3" d="M289.74,180.89a3.13,3.13,0,0,0,2-.71,2.16,2.16,0,0,0,.87-1.74h2.08l0,.07a3.54,3.54,0,0,1-1.46,2.91,5.33,5.33,0,0,1-3.53,1.28,5.13,5.13,0,0,1-4.23-1.81,7,7,0,0,1-1.46-4.53v-.5a6.91,6.91,0,0,1,1.47-4.51,5.09,5.09,0,0,1,4.22-1.81,7,7,0,0,1,2.73.5,5.62,5.62,0,0,1,2,1.38l.11,2.81h-1.84l-.51-2a3,3,0,0,0-1.05-.64,3.9,3.9,0,0,0-1.45-.25,2.79,2.79,0,0,0-2.6,1.31,6.14,6.14,0,0,0-.78,3.2v.5a6.22,6.22,0,0,0,.78,3.24A2.78,2.78,0,0,0,289.74,180.89Z" transform="translate(0 -4.71)"/><path class="cls-3" d="M297,176a7,7,0,0,1,1.52-4.63,5.65,5.65,0,0,1,8.3,0,7,7,0,0,1,1.52,4.64v.26a6.92,6.92,0,0,1-1.52,4.64,5.65,5.65,0,0,1-8.3,0,7,7,0,0,1-1.52-4.63Zm2.31.26a6,6,0,0,0,.85,3.33,3.06,3.06,0,0,0,5,0,6,6,0,0,0,.86-3.33V176a6,6,0,0,0-.86-3.31,3,3,0,0,0-5,0,6,6,0,0,0-.84,3.31Z" transform="translate(0 -4.71)"/><path class="cls-3" d="M310,181l1.91-.33v-9l-1.91-.33v-1.49h4l.15,1.65a4.2,4.2,0,0,1,1.57-1.39,4.82,4.82,0,0,1,2.23-.49,3.91,3.91,0,0,1,2.17.58,3.57,3.57,0,0,1,1.37,1.76,4.74,4.74,0,0,1,1.58-1.71,4.18,4.18,0,0,1,2.3-.63,3.79,3.79,0,0,1,3.07,1.33,6.06,6.06,0,0,1,1.12,4v5.77l1.91.33v1.48H325.3V181l1.91-.33v-5.8a4.2,4.2,0,0,0-.64-2.65,2.34,2.34,0,0,0-1.91-.78,2.42,2.42,0,0,0-1.94.85,3.71,3.71,0,0,0-.85,2.14v6.24l1.91.33v1.48h-6.13V181l1.91-.33v-5.8a4.16,4.16,0,0,0-.66-2.6,2.32,2.32,0,0,0-1.92-.83,3.15,3.15,0,0,0-1.73.43,2.83,2.83,0,0,0-1,1.22v7.58l1.91.33v1.48H310Z" transform="translate(0 -4.71)"/><path class="cls-3" d="M332.84,185.84l1.91-.33V171.59l-1.91-.33v-1.49h3.89l.21,1.55a4.35,4.35,0,0,1,1.54-1.33,4.7,4.7,0,0,1,2.1-.45,4.23,4.23,0,0,1,3.67,1.86,8.49,8.49,0,0,1,1.3,4.94v.25a6.94,6.94,0,0,1-1.31,4.42,4.34,4.34,0,0,1-3.62,1.69,5.08,5.08,0,0,1-2.06-.4,4,4,0,0,1-1.5-1.16v4.37l1.91.33v1.48h-6.13Zm10.39-9.5a6.76,6.76,0,0,0-.84-3.55,2.75,2.75,0,0,0-2.51-1.38,3.09,3.09,0,0,0-1.69.45,3.38,3.38,0,0,0-1.13,1.21v6.18a3,3,0,0,0,2.84,1.64,2.86,2.86,0,0,0,2.49-1.19,5.31,5.31,0,0,0,.84-3.11Z" transform="translate(0 -4.71)"/><path class="cls-3" d="M347.66,176a7,7,0,0,1,1.53-4.63,5.07,5.07,0,0,1,4.13-1.82,5.16,5.16,0,0,1,4.16,1.81A7,7,0,0,1,359,176v.26a6.92,6.92,0,0,1-1.53,4.64,5.64,5.64,0,0,1-8.29,0,6.91,6.91,0,0,1-1.53-4.63Zm2.31.26a6,6,0,0,0,.85,3.33,2.83,2.83,0,0,0,2.53,1.31,2.8,2.8,0,0,0,2.49-1.31,6,6,0,0,0,.86-3.33V176a6,6,0,0,0-.86-3.31,2.8,2.8,0,0,0-2.52-1.33,2.76,2.76,0,0,0-2.5,1.33A6,6,0,0,0,350,176Z" transform="translate(0 -4.71)"/><path class="cls-3" d="M370.82,173.75h-1.74l-.37-1.52a3.1,3.1,0,0,0-1.06-.64,4.12,4.12,0,0,0-1.45-.24,2.67,2.67,0,0,0-1.83.54,1.71,1.71,0,0,0-.59,1.3,1.46,1.46,0,0,0,.52,1.19,5.7,5.7,0,0,0,2.15.77,9.16,9.16,0,0,1,3.57,1.4,2.82,2.82,0,0,1,1.17,2.37,3.26,3.26,0,0,1-1.36,2.73,5.69,5.69,0,0,1-3.57,1,9.39,9.39,0,0,1-2.59-.34,6.58,6.58,0,0,1-2.05-1V178.5h1.73l.44,1.7a2.38,2.38,0,0,0,1.08.53,6,6,0,0,0,1.4.16,3.3,3.3,0,0,0,1.93-.5,1.53,1.53,0,0,0,.7-1.3,1.6,1.6,0,0,0-.58-1.26,5.43,5.43,0,0,0-2.2-.85,9.42,9.42,0,0,1-3.48-1.37,2.77,2.77,0,0,1-1.17-2.35,3.31,3.31,0,0,1,1.31-2.63,5.2,5.2,0,0,1,3.43-1.09,8.31,8.31,0,0,1,2.59.37,5.46,5.46,0,0,1,1.91,1Z" transform="translate(0 -4.71)"/><path class="cls-3" d="M373.35,181l1.91-.33v-9l-1.91-.33v-1.49h4.22v10.87l1.91.33v1.48h-6.13Zm4.22-14.45h-2.31v-2.35h2.31Z" transform="translate(0 -4.71)"/><path class="cls-3" d="M386.93,180.89a3.11,3.11,0,0,0,2-.71,2.14,2.14,0,0,0,.88-1.74h2.07l0,.07a3.53,3.53,0,0,1-1.45,2.91,5.35,5.35,0,0,1-3.54,1.28,5.12,5.12,0,0,1-4.22-1.81,6.92,6.92,0,0,1-1.46-4.53v-.5a7,7,0,0,1,1.46-4.51,5.12,5.12,0,0,1,4.22-1.81,7,7,0,0,1,2.74.5,5.62,5.62,0,0,1,2,1.38l.1,2.81h-1.84l-.5-2a3,3,0,0,0-1.05-.64,4,4,0,0,0-1.46-.25,2.78,2.78,0,0,0-2.59,1.31,6.14,6.14,0,0,0-.78,3.2v.5a6.32,6.32,0,0,0,.77,3.24A2.79,2.79,0,0,0,386.93,180.89Zm.1,1.66-.14.61a2.37,2.37,0,0,1,1.26.61,1.86,1.86,0,0,1,.5,1.42,2.08,2.08,0,0,1-.92,1.79,4.45,4.45,0,0,1-2.65.67l-.08-1.27a2.76,2.76,0,0,0,1.35-.29.93.93,0,0,0,.51-.86.82.82,0,0,0-.42-.79,3.91,3.91,0,0,0-1.44-.3l.37-1.59Z" transform="translate(0 -4.71)"/><path class="cls-3" d="M402.45,182.45c-.07-.34-.13-.65-.17-.93s-.06-.54-.08-.82a5.54,5.54,0,0,1-1.67,1.43,4.77,4.77,0,0,1-5.15-.4,3.55,3.55,0,0,1-1-2.73,3.16,3.16,0,0,1,1.46-2.78,7.13,7.13,0,0,1,4-1h2.38v-1.47a2.29,2.29,0,0,0-.7-1.77,2.79,2.79,0,0,0-2-.65,5,5,0,0,0-1.53.22,3,3,0,0,0-1.07.61l-.25,1.34H394.9v-2.46A7,7,0,0,1,397,170a8.21,8.21,0,0,1,2.67-.41,5.27,5.27,0,0,1,3.49,1.1,3.84,3.84,0,0,1,1.34,3.15v6.59l0,.46.94.13v1.48Zm1.15-17.8a2.69,2.69,0,0,1-.7,1.86,2.27,2.27,0,0,1-1.75.76,3.38,3.38,0,0,1-1.74-.54,3.15,3.15,0,0,0-1.5-.55,1.12,1.12,0,0,0-.84.38,1.34,1.34,0,0,0-.34.92l-1.25-.3a2.78,2.78,0,0,1,.68-1.89,2.19,2.19,0,0,1,1.75-.81,3.53,3.53,0,0,1,1.64.56,3.64,3.64,0,0,0,1.6.55,1.11,1.11,0,0,0,.83-.38,1.37,1.37,0,0,0,.35-.94Zm-4.87,16.11a4.07,4.07,0,0,0,2.1-.55,3.46,3.46,0,0,0,1.36-1.32V176.8h-2.46a3.52,3.52,0,0,0-2.25.66,2,2,0,0,0-.82,1.59,1.57,1.57,0,0,0,.51,1.27A2.34,2.34,0,0,0,398.73,180.76Z" transform="translate(0 -4.71)"/><path class="cls-3" d="M407.4,176a7,7,0,0,1,1.53-4.63,5.08,5.08,0,0,1,4.14-1.82,5.14,5.14,0,0,1,4.15,1.81,7,7,0,0,1,1.53,4.64v.26a7,7,0,0,1-1.52,4.64,5.65,5.65,0,0,1-8.3,0,6.91,6.91,0,0,1-1.53-4.63Zm2.31.26a6.1,6.1,0,0,0,.85,3.33,2.83,2.83,0,0,0,2.53,1.31,2.8,2.8,0,0,0,2.49-1.31,6,6,0,0,0,.86-3.33V176a6,6,0,0,0-.86-3.31,3,3,0,0,0-5,0,6,6,0,0,0-.85,3.31Z" transform="translate(0 -4.71)"/><path class="cls-3" d="M432.61,182.7a5.34,5.34,0,0,1-4.21-1.77,6.64,6.64,0,0,1-1.57-4.57v-.52a6.5,6.5,0,0,1,1.62-4.51,4.93,4.93,0,0,1,3.81-1.79,4.81,4.81,0,0,1,3.87,1.54,6.15,6.15,0,0,1,1.32,4.13v1.44h-8.22l0,.06a4.92,4.92,0,0,0,.93,3,2.92,2.92,0,0,0,2.49,1.18,5.9,5.9,0,0,0,2.06-.33,4.88,4.88,0,0,0,1.53-.92l.9,1.5a5.57,5.57,0,0,1-1.8,1.1A7,7,0,0,1,432.61,182.7Zm-.35-11.35a2.52,2.52,0,0,0-2,1,4.64,4.64,0,0,0-1,2.46l0,.05h5.84v-.3a3.54,3.54,0,0,0-.72-2.27A2.61,2.61,0,0,0,432.26,171.35Z" transform="translate(0 -4.71)"/><path class="cls-3" d="M439.27,181l1.91-.33v-9l-1.91-.33v-1.49h4l.15,1.65A4.15,4.15,0,0,1,445,170a4.78,4.78,0,0,1,2.22-.49,3.94,3.94,0,0,1,2.18.58,3.55,3.55,0,0,1,1.36,1.76,4.74,4.74,0,0,1,1.58-1.71,4.18,4.18,0,0,1,2.3-.63,3.79,3.79,0,0,1,3.07,1.33,6.06,6.06,0,0,1,1.13,4v5.77l1.91.33v1.48h-6.15V181l1.91-.33v-5.8a4.2,4.2,0,0,0-.64-2.65,2.34,2.34,0,0,0-1.91-.78,2.43,2.43,0,0,0-1.94.85,3.71,3.71,0,0,0-.85,2.14v6.24l1.91.33v1.48h-6.13V181l1.91-.33v-5.8a4.16,4.16,0,0,0-.66-2.6,2.32,2.32,0,0,0-1.92-.83,3.15,3.15,0,0,0-1.73.43,2.83,2.83,0,0,0-1,1.22v7.58l1.91.33v1.48h-6.13Z" transform="translate(0 -4.71)"/><path class="cls-3" d="M476.64,182.45c-.07-.34-.13-.65-.16-.93s-.07-.54-.09-.82a5.54,5.54,0,0,1-1.67,1.43,4.77,4.77,0,0,1-5.15-.4,3.59,3.59,0,0,1-1-2.73,3.16,3.16,0,0,1,1.46-2.78,7.13,7.13,0,0,1,4-1h2.38v-1.47a2.29,2.29,0,0,0-.7-1.77,2.79,2.79,0,0,0-2-.65,5,5,0,0,0-1.53.22,3,3,0,0,0-1.07.61l-.25,1.34h-1.78v-2.46a7,7,0,0,1,2.1-1.11,8.21,8.21,0,0,1,2.67-.41,5.27,5.27,0,0,1,3.49,1.1,3.84,3.84,0,0,1,1.34,3.15v6.1c0,.17,0,.33,0,.49a3.55,3.55,0,0,0,0,.46l.93.13v1.48Zm-3.72-1.69a4.07,4.07,0,0,0,2.1-.55,3.46,3.46,0,0,0,1.36-1.32V176.8h-2.46a3.49,3.49,0,0,0-2.24.66,2,2,0,0,0-.83,1.59,1.55,1.55,0,0,0,.52,1.27A2.29,2.29,0,0,0,472.92,180.76Z" transform="translate(0 -4.71)"/><path class="cls-3" d="M485.62,166.71v3.06H488v1.71h-2.4v7.7a1.74,1.74,0,0,0,.36,1.25,1.33,1.33,0,0,0,1,.37,4.39,4.39,0,0,0,.69-.06,6,6,0,0,0,.64-.11l.31,1.58a2.62,2.62,0,0,1-1,.35,6,6,0,0,1-1.26.14,3,3,0,0,1-2.24-.85,3.68,3.68,0,0,1-.83-2.67v-7.7h-2v-1.71h2v-3.06Z" transform="translate(0 -4.71)"/><path class="cls-3" d="M490.37,181l1.91-.33v-9l-1.91-.33v-1.49h4.22v10.87l1.91.33v1.48h-6.13Zm4.22-14.45h-2.31v-2.35h2.31Z" transform="translate(0 -4.71)"/><path class="cls-3" d="M502.61,171.26l-1.53.23,2.62,7.22.21.92H504l.22-.92,2.53-7.22-1.53-.23v-1.49h4.9v1.49l-1.05.17-4.25,11h-1.75l-4.3-11-1-.17v-1.49h4.9Z" transform="translate(0 -4.71)"/><path class="cls-3" d="M511.65,181l1.92-.33v-9l-1.92-.33v-1.49h4.22v10.87l1.91.33v1.48h-6.13Zm4.22-14.45h-2.3v-2.35h2.3Z" transform="translate(0 -4.71)"/><path class="cls-3" d="M528.08,180.94a4.1,4.1,0,0,1-1.51,1.31,4.58,4.58,0,0,1-2.08.45,4.35,4.35,0,0,1-3.63-1.69,7,7,0,0,1-1.31-4.42v-.25a8.46,8.46,0,0,1,1.31-4.93,4.2,4.2,0,0,1,3.65-1.87,4.51,4.51,0,0,1,2,.41,4.23,4.23,0,0,1,1.47,1.2V166l-1.91-.32v-1.49h4.22v16.47l1.91.33v1.48h-3.92Zm-6.22-4.35a5.34,5.34,0,0,0,.79,3.07,2.72,2.72,0,0,0,2.42,1.16,3.09,3.09,0,0,0,1.74-.47A3.58,3.58,0,0,0,528,179v-5.89a3.62,3.62,0,0,0-1.16-1.26,3.09,3.09,0,0,0-1.71-.47,2.64,2.64,0,0,0-2.45,1.37,7.16,7.16,0,0,0-.79,3.56Z" transform="translate(0 -4.71)"/><path class="cls-3" d="M542.22,182.45c-.07-.34-.13-.65-.17-.93s-.06-.54-.08-.82a5.54,5.54,0,0,1-1.67,1.43,4.77,4.77,0,0,1-5.15-.4,3.55,3.55,0,0,1-1-2.73,3.16,3.16,0,0,1,1.46-2.78,7.13,7.13,0,0,1,4-1H542v-1.47a2.29,2.29,0,0,0-.7-1.77,2.79,2.79,0,0,0-2-.65,5,5,0,0,0-1.53.22,3,3,0,0,0-1.07.61l-.25,1.34h-1.78v-2.46a7,7,0,0,1,2.1-1.11,8.21,8.21,0,0,1,2.67-.41,5.27,5.27,0,0,1,3.49,1.1,3.84,3.84,0,0,1,1.34,3.15v6.59l0,.46.94.13v1.48Zm-3.72-1.69a4.07,4.07,0,0,0,2.1-.55,3.46,3.46,0,0,0,1.36-1.32V176.8H539.5a3.52,3.52,0,0,0-2.25.66,2,2,0,0,0-.82,1.59,1.57,1.57,0,0,0,.51,1.27A2.34,2.34,0,0,0,538.5,180.76Z" transform="translate(0 -4.71)"/><path class="cls-3" d="M555.71,180.94a4.13,4.13,0,0,1-1.52,1.31,4.58,4.58,0,0,1-2.08.45,4.35,4.35,0,0,1-3.63-1.69,7,7,0,0,1-1.31-4.42v-.25a8.46,8.46,0,0,1,1.31-4.93,4.2,4.2,0,0,1,3.65-1.87,4.51,4.51,0,0,1,2,.41,4.23,4.23,0,0,1,1.47,1.2V166l-1.91-.32v-1.49h4.22v16.47l1.91.33v1.48h-3.92Zm-6.23-4.35a5.34,5.34,0,0,0,.79,3.07,2.72,2.72,0,0,0,2.42,1.16,3.09,3.09,0,0,0,1.74-.47,3.58,3.58,0,0,0,1.16-1.32v-5.89a3.62,3.62,0,0,0-1.16-1.26,3.09,3.09,0,0,0-1.71-.47,2.65,2.65,0,0,0-2.45,1.37,7.16,7.16,0,0,0-.79,3.56Z" transform="translate(0 -4.71)"/><path class="cls-3" d="M567.35,182.7a5.34,5.34,0,0,1-4.21-1.77,6.63,6.63,0,0,1-1.56-4.57v-.52a6.49,6.49,0,0,1,1.61-4.51,4.93,4.93,0,0,1,3.81-1.79,4.81,4.81,0,0,1,3.88,1.54,6.2,6.2,0,0,1,1.31,4.13v1.44H564l0,.06a5,5,0,0,0,.93,3,2.92,2.92,0,0,0,2.49,1.18,5.86,5.86,0,0,0,2.06-.33,4.88,4.88,0,0,0,1.53-.92l.9,1.5a5.57,5.57,0,0,1-1.8,1.1A7,7,0,0,1,567.35,182.7ZM567,171.35a2.52,2.52,0,0,0-2,1,4.72,4.72,0,0,0-1,2.46l0,.05h5.85v-.3a3.55,3.55,0,0,0-.73-2.27A2.6,2.6,0,0,0,567,171.35Z" transform="translate(0 -4.71)"/><path class="cls-3" d="M584.17,173.75h-1.73l-.38-1.52a3,3,0,0,0-1.06-.64,4.12,4.12,0,0,0-1.45-.24,2.62,2.62,0,0,0-1.82.54,1.68,1.68,0,0,0-.6,1.3,1.46,1.46,0,0,0,.52,1.19,5.78,5.78,0,0,0,2.15.77,9.16,9.16,0,0,1,3.57,1.4,2.83,2.83,0,0,1,1.18,2.37,3.27,3.27,0,0,1-1.37,2.73,5.69,5.69,0,0,1-3.57,1,9.39,9.39,0,0,1-2.59-.34,6.68,6.68,0,0,1-2-1V178.5h1.73l.44,1.7a2.38,2.38,0,0,0,1.08.53,6,6,0,0,0,1.4.16,3.3,3.3,0,0,0,1.93-.5,1.53,1.53,0,0,0,.7-1.3,1.6,1.6,0,0,0-.58-1.26,5.43,5.43,0,0,0-2.2-.85,9.42,9.42,0,0,1-3.48-1.37,2.77,2.77,0,0,1-1.17-2.35,3.29,3.29,0,0,1,1.32-2.63,5.16,5.16,0,0,1,3.42-1.09,8.31,8.31,0,0,1,2.59.37,5.37,5.37,0,0,1,1.91,1Z" transform="translate(0 -4.71)"/><path class="cls-3" d="M601.21,180.94a4.06,4.06,0,0,1-1.52,1.31,4.58,4.58,0,0,1-2.08.45A4.37,4.37,0,0,1,594,181a7,7,0,0,1-1.3-4.42v-.25a8.46,8.46,0,0,1,1.3-4.93,4.21,4.21,0,0,1,3.66-1.87,4.44,4.44,0,0,1,2,.41,4.06,4.06,0,0,1,1.47,1.2V166l-1.91-.32v-1.49h4.22v16.47l1.91.33v1.48H601.4ZM595,176.59a5.41,5.41,0,0,0,.78,3.07,2.74,2.74,0,0,0,2.43,1.16,3.06,3.06,0,0,0,1.73-.47,3.49,3.49,0,0,0,1.16-1.32v-5.89a3.44,3.44,0,0,0-1.16-1.26,3,3,0,0,0-1.71-.47,2.63,2.63,0,0,0-2.44,1.37,7.06,7.06,0,0,0-.79,3.56Z" transform="translate(0 -4.71)"/><path class="cls-3" d="M615.34,182.45c-.07-.34-.12-.65-.16-.93a7.34,7.34,0,0,1-.08-.82,5.79,5.79,0,0,1-1.67,1.43,4.77,4.77,0,0,1-5.15-.4,3.56,3.56,0,0,1-1-2.73,3.16,3.16,0,0,1,1.46-2.78,7.16,7.16,0,0,1,4-1h2.37v-1.47a2.29,2.29,0,0,0-.7-1.77,2.79,2.79,0,0,0-2-.65,5,5,0,0,0-1.52.22,3,3,0,0,0-1.08.61l-.24,1.34H607.8v-2.46a6.8,6.8,0,0,1,2.09-1.11,8.23,8.23,0,0,1,2.68-.41,5.29,5.29,0,0,1,3.49,1.1,3.84,3.84,0,0,1,1.33,3.15v6.1c0,.17,0,.33,0,.49a3.55,3.55,0,0,0,0,.46l.94.13v1.48Zm-3.71-1.69a4.12,4.12,0,0,0,2.1-.55,3.43,3.43,0,0,0,1.35-1.32V176.8h-2.46a3.49,3.49,0,0,0-2.24.66,2,2,0,0,0-.83,1.59,1.58,1.58,0,0,0,.52,1.27A2.31,2.31,0,0,0,611.63,180.76Z" transform="translate(0 -4.71)"/><path class="cls-3" d="M636,173.75h-1.74l-.37-1.52a3.1,3.1,0,0,0-1.06-.64,4.12,4.12,0,0,0-1.45-.24,2.67,2.67,0,0,0-1.83.54,1.68,1.68,0,0,0-.6,1.3,1.47,1.47,0,0,0,.53,1.19,5.71,5.71,0,0,0,2.14.77,9.15,9.15,0,0,1,3.58,1.4,2.82,2.82,0,0,1,1.17,2.37,3.26,3.26,0,0,1-1.36,2.73,5.69,5.69,0,0,1-3.57,1,9.34,9.34,0,0,1-2.59-.34,6.58,6.58,0,0,1-2-1l0-2.89h1.74l.43,1.7a2.47,2.47,0,0,0,1.09.53,5.89,5.89,0,0,0,1.4.16,3.25,3.25,0,0,0,1.92-.5,1.51,1.51,0,0,0,.7-1.3,1.57,1.57,0,0,0-.58-1.26,5.37,5.37,0,0,0-2.2-.85,9.56,9.56,0,0,1-3.48-1.37,2.77,2.77,0,0,1-1.17-2.35,3.29,3.29,0,0,1,1.32-2.63,5.19,5.19,0,0,1,3.43-1.09,8.35,8.35,0,0,1,2.59.37,5.55,5.55,0,0,1,1.91,1Z" transform="translate(0 -4.71)"/><path class="cls-3" d="M647.56,180.57a4.14,4.14,0,0,1-3.72,2.13,4.07,4.07,0,0,1-3.22-1.33,6.16,6.16,0,0,1-1.16-4.12v-5.66l-1.45-.33v-1.49h3.76v7.5a4.72,4.72,0,0,0,.6,2.79,2.2,2.2,0,0,0,1.86.76,3.79,3.79,0,0,0,2-.5,3.12,3.12,0,0,0,1.22-1.41v-7.32l-1.7-.33v-1.49h4v10.87l1.46.33v1.48h-3.53Z" transform="translate(0 -4.71)"/><path class="cls-3" d="M661.34,182.45c-.07-.34-.13-.65-.17-.93s-.06-.54-.08-.82a5.54,5.54,0,0,1-1.67,1.43,4.77,4.77,0,0,1-5.15-.4,3.55,3.55,0,0,1-1-2.73,3.16,3.16,0,0,1,1.46-2.78,7.13,7.13,0,0,1,4-1h2.38v-1.47a2.29,2.29,0,0,0-.7-1.77,2.79,2.79,0,0,0-2-.65,5,5,0,0,0-1.53.22,3,3,0,0,0-1.07.61l-.25,1.34h-1.78v-2.46a7,7,0,0,1,2.1-1.11,8.21,8.21,0,0,1,2.67-.41,5.27,5.27,0,0,1,3.49,1.1,3.84,3.84,0,0,1,1.34,3.15v6.1c0,.17,0,.33,0,.49s0,.31,0,.46l.94.13v1.48Zm-3.72-1.69a4.07,4.07,0,0,0,2.1-.55,3.46,3.46,0,0,0,1.36-1.32V176.8h-2.46a3.48,3.48,0,0,0-2.24.66,1.94,1.94,0,0,0-.83,1.59,1.55,1.55,0,0,0,.52,1.27A2.29,2.29,0,0,0,657.62,180.76Z" transform="translate(0 -4.71)"/><path class="cls-3" d="M672.25,171.26v-1.49h4l.22,1.84a4.42,4.42,0,0,1,1.33-1.52,3.07,3.07,0,0,1,1.81-.55,3.6,3.6,0,0,1,.56,0,2.52,2.52,0,0,1,.44.08l-.3,2.15-1.32-.07a2.58,2.58,0,0,0-1.53.43,2.63,2.63,0,0,0-1,1.2v7.27l1.91.33v1.48h-6.13V181l1.91-.33v-9Z" transform="translate(0 -4.71)"/><path class="cls-3" d="M687.74,182.7a5.34,5.34,0,0,1-4.21-1.77,6.59,6.59,0,0,1-1.57-4.57v-.52a6.54,6.54,0,0,1,1.61-4.51,5,5,0,0,1,3.82-1.79,4.81,4.81,0,0,1,3.87,1.54,6.15,6.15,0,0,1,1.32,4.13v1.44h-8.23l0,.06a5,5,0,0,0,.92,3,3,3,0,0,0,2.5,1.18,5.9,5.9,0,0,0,2.06-.33,4.88,4.88,0,0,0,1.53-.92l.9,1.5a5.57,5.57,0,0,1-1.8,1.1A7,7,0,0,1,687.74,182.7Zm-.35-11.35a2.52,2.52,0,0,0-2,1,4.64,4.64,0,0,0-1,2.46l0,.05h5.85v-.3a3.54,3.54,0,0,0-.72-2.27A2.61,2.61,0,0,0,687.39,171.35Z" transform="translate(0 -4.71)"/><path class="cls-3" d="M703.13,182.45c-.07-.34-.13-.65-.17-.93s-.06-.54-.08-.82a5.54,5.54,0,0,1-1.67,1.43,4.77,4.77,0,0,1-5.15-.4,3.55,3.55,0,0,1-1-2.73,3.16,3.16,0,0,1,1.46-2.78,7.13,7.13,0,0,1,4-1h2.38v-1.47a2.29,2.29,0,0,0-.7-1.77,2.79,2.79,0,0,0-2-.65,5,5,0,0,0-1.53.22,3,3,0,0,0-1.07.61l-.25,1.34h-1.78v-2.46a7,7,0,0,1,2.1-1.11,8.21,8.21,0,0,1,2.67-.41,5.27,5.27,0,0,1,3.49,1.1,3.84,3.84,0,0,1,1.34,3.15v6.59l0,.46.94.13v1.48Zm-3.72-1.69a4.07,4.07,0,0,0,2.1-.55,3.46,3.46,0,0,0,1.36-1.32V176.8h-2.46a3.52,3.52,0,0,0-2.25.66,2,2,0,0,0-.82,1.59,1.57,1.57,0,0,0,.51,1.27A2.34,2.34,0,0,0,699.41,180.76Z" transform="translate(0 -4.71)"/><path class="cls-3" d="M707.76,165.66v-1.49H712v16.47l1.91.33v1.48h-6.13V181l1.91-.33V166Z" transform="translate(0 -4.71)"/><path class="cls-3" d="M715.63,181l1.91-.33v-9l-1.91-.33v-1.49h4.22v10.87l1.91.33v1.48h-6.13Zm4.22-14.45h-2.31v-2.35h2.31Z" transform="translate(0 -4.71)"/><path class="cls-3" d="M732.06,180.94a4.06,4.06,0,0,1-1.52,1.31,4.55,4.55,0,0,1-2.08.45,4.34,4.34,0,0,1-3.62-1.69,7,7,0,0,1-1.31-4.42v-.25a8.46,8.46,0,0,1,1.31-4.93,4.18,4.18,0,0,1,3.65-1.87,4.44,4.44,0,0,1,2,.41,4.06,4.06,0,0,1,1.47,1.2V166l-1.91-.32v-1.49h4.22v16.47l1.91.33v1.48h-3.91Zm-6.22-4.35a5.41,5.41,0,0,0,.78,3.07,2.75,2.75,0,0,0,2.43,1.16,3,3,0,0,0,1.73-.47,3.49,3.49,0,0,0,1.16-1.32v-5.89a3.44,3.44,0,0,0-1.16-1.26,3,3,0,0,0-1.71-.47,2.63,2.63,0,0,0-2.44,1.37,7.06,7.06,0,0,0-.79,3.56Z" transform="translate(0 -4.71)"/><path class="cls-3" d="M746.19,182.45c-.07-.34-.12-.65-.16-.93a7.34,7.34,0,0,1-.08-.82,5.66,5.66,0,0,1-1.67,1.43,4.77,4.77,0,0,1-5.15-.4,3.55,3.55,0,0,1-1-2.73,3.14,3.14,0,0,1,1.46-2.78,7.1,7.1,0,0,1,4-1h2.38v-1.47a2.3,2.3,0,0,0-.71-1.77,2.78,2.78,0,0,0-2-.65,5,5,0,0,0-1.53.22,3.12,3.12,0,0,0-1.08.61l-.24,1.34h-1.78v-2.46a6.91,6.91,0,0,1,2.09-1.11,8.32,8.32,0,0,1,2.68-.41,5.29,5.29,0,0,1,3.49,1.1,3.84,3.84,0,0,1,1.33,3.15v6.1c0,.17,0,.33,0,.49a3.55,3.55,0,0,0,0,.46l.94.13v1.48Zm-3.71-1.69a4.12,4.12,0,0,0,2.1-.55,3.53,3.53,0,0,0,1.36-1.32V176.8h-2.46a3.5,3.5,0,0,0-2.25.66,2,2,0,0,0-.83,1.59,1.58,1.58,0,0,0,.52,1.27A2.31,2.31,0,0,0,742.48,180.76Z" transform="translate(0 -4.71)"/><path class="cls-3" d="M759.68,180.94a4.06,4.06,0,0,1-1.52,1.31,4.55,4.55,0,0,1-2.08.45,4.34,4.34,0,0,1-3.62-1.69,7,7,0,0,1-1.31-4.42v-.25a8.46,8.46,0,0,1,1.31-4.93,4.2,4.2,0,0,1,3.65-1.87,4.44,4.44,0,0,1,2,.41,4.18,4.18,0,0,1,1.48,1.2V166l-1.92-.32v-1.49h4.22v16.47l1.91.33v1.48h-3.91Zm-6.22-4.35a5.41,5.41,0,0,0,.78,3.07,2.75,2.75,0,0,0,2.43,1.16,3,3,0,0,0,1.73-.47,3.6,3.6,0,0,0,1.17-1.32v-5.89a3.55,3.55,0,0,0-1.17-1.26,3,3,0,0,0-1.71-.47,2.63,2.63,0,0,0-2.44,1.37,7.06,7.06,0,0,0-.79,3.56Z" transform="translate(0 -4.71)"/><path class="cls-3" d="M771.33,182.7a5.34,5.34,0,0,1-4.21-1.77,6.59,6.59,0,0,1-1.57-4.57v-.52a6.54,6.54,0,0,1,1.61-4.51,5,5,0,0,1,3.82-1.79,4.81,4.81,0,0,1,3.87,1.54,6.15,6.15,0,0,1,1.32,4.13v1.44h-8.23l0,.06a5,5,0,0,0,.92,3,3,3,0,0,0,2.5,1.18,5.9,5.9,0,0,0,2.06-.33,4.88,4.88,0,0,0,1.53-.92l.9,1.5a5.57,5.57,0,0,1-1.8,1.1A7,7,0,0,1,771.33,182.7ZM771,171.35a2.52,2.52,0,0,0-2,1,4.64,4.64,0,0,0-1,2.46l0,.05h5.85v-.3a3.54,3.54,0,0,0-.72-2.27A2.61,2.61,0,0,0,771,171.35Z" transform="translate(0 -4.71)"/><path class="cls-3" d="M781.62,177.64a6.87,6.87,0,0,1,.29-2.36,5.84,5.84,0,0,1,1.47-1.73q1.15-1.37,1.65-2.1a3.16,3.16,0,0,0,.49-1.79,2.62,2.62,0,0,0-.66-1.91,2.56,2.56,0,0,0-1.89-.66,2.82,2.82,0,0,0-1.81.58,2,2,0,0,0-.75,1.7h-2.2l0-.07a3.64,3.64,0,0,1,1.33-3,5.2,5.2,0,0,1,3.47-1.14,5.05,5.05,0,0,1,3.58,1.18,4.25,4.25,0,0,1,1.28,3.29,4.84,4.84,0,0,1-.83,2.76,15.22,15.22,0,0,1-2.18,2.57,2.75,2.75,0,0,0-.76,1.13,6.7,6.7,0,0,0-.13,1.57Zm2.38,4.81h-2.4V180H784Z" transform="translate(0 -4.71)"/><circle class="cls-4" cx="106" cy="144.77" r="103"/><path class="cls-2" d="M106,49.48a100,100,0,1,1-100,100,100,100,0,0,1,100-100m0-6a106,106,0,1,0,106,106,106.12,106.12,0,0,0-106-106Z" transform="translate(0 -4.71)"/><path class="cls-5" d="M105.74,49.66a99.74,99.74,0,1,0,99.74,99.74A99.73,99.73,0,0,0,105.74,49.66Zm0,192.83a93.09,93.09,0,1,1,93.09-93.09A93.09,93.09,0,0,1,105.74,242.49Z" transform="translate(0 -4.71)"/><path class="cls-5" d="M152.81,77a3.31,3.31,0,0,0-2.51-.47,3.35,3.35,0,0,0-2.1,1.44l-5.43,8.36a3.32,3.32,0,0,0,1,4.65,42.72,42.72,0,0,1,3.73,2.66c.75.57,1.5,1.14,2.08,1.55,1,.85,2,1.75,3,2.65l-2.3,2.3a66.28,66.28,0,0,0-14.57-10l6.8-15.25a3.32,3.32,0,0,0-1.69-4.4,87.11,87.11,0,0,0-30.63-7.29,3.32,3.32,0,0,0-3.49,3.15l-.52,10a3.33,3.33,0,0,0,3.14,3.49l3.5.17,3.73.57,1.44.22c.72.11,1.44.21,2.07.35l.45.12-.87,3.26A68.05,68.05,0,0,0,102.09,83L100.37,66.4a3.33,3.33,0,0,0-3.66-3,85.73,85.73,0,0,0-30.2,9,3.32,3.32,0,0,0-1.45,4.47l4.54,8.89A3.31,3.31,0,0,0,74,87.29c.67-.31,1.33-.63,2-1a34.31,34.31,0,0,1,4.75-2l.85-.32c1-.37,2-.73,2.93-1l.86,3.22c-.82.28-1.61.57-2.4.86l-.79.3a31.13,31.13,0,0,0-4.72,2l-2,1L69.8,93.52l-.38.21L59.61,80.26A3.31,3.31,0,0,0,55,79.53a86.67,86.67,0,0,0-21.69,22.8,3.33,3.33,0,0,0,1,4.6l8.36,5.44a3.31,3.31,0,0,0,4.65-1.06q1.23-1.92,2.65-3.72c.58-.75,1.15-1.5,1.56-2.09.85-1,1.75-2,2.65-3l2.3,2.3a66.28,66.28,0,0,0-10,14.57l-15.25-6.8a3.34,3.34,0,0,0-4.4,1.69,86.94,86.94,0,0,0-7.29,30.64,3.34,3.34,0,0,0,3.15,3.49l10,.51a3.3,3.3,0,0,0,3.49-3.14l.18-3.5.56-3.72c.09-.48.16-1,.22-1.45.11-.72.21-1.44.35-2.06l.12-.46,3.25.87A67.61,67.61,0,0,0,39.37,153l-16.64,1.73a3.33,3.33,0,0,0-3,3.65,86.74,86.74,0,0,0,9,30.21,3.33,3.33,0,0,0,4.47,1.45l8.88-4.54a3.32,3.32,0,0,0,1.51-4.36c-.31-.66-.63-1.31-1-2a34.73,34.73,0,0,1-2-4.78l-.33-.88c-.37-1-.72-1.95-1-2.9l3.26-.87a65.71,65.71,0,0,0,7.59,15.91L36.6,195.52a3.32,3.32,0,0,0-.73,4.65,86.47,86.47,0,0,0,22.8,21.68,3.32,3.32,0,0,0,4.6-1l5.44-8.36a3.32,3.32,0,0,0-1.06-4.66c-1.28-.82-2.53-1.7-3.73-2.65-.74-.58-1.49-1.15-2.08-1.56-1-.85-2-1.74-3-2.65l2.35-2.35c.89.81,1.81,1.64,2.92,2.54.64.46,1.27.94,1.9,1.43a39.9,39.9,0,0,0,3.71,2.61l5.93,3.4.08,0-6.81,15.27a3.32,3.32,0,0,0,1.68,4.39,87,87,0,0,0,30.64,7.3h.17a3.33,3.33,0,0,0,3.32-3.15l.51-10a3.31,3.31,0,0,0-3.14-3.49l-3.49-.18-3.73-.57-1.44-.22c-.72-.1-1.44-.2-2.07-.35l-.46-.11.88-3.26a67.57,67.57,0,0,0,17.6,1.42l1.73,16.64a3.31,3.31,0,0,0,3.65,3,85.36,85.36,0,0,0,30.21-9,3.32,3.32,0,0,0,1.45-4.47L141.88,213a3.32,3.32,0,0,0-4.35-1.51c-.67.31-1.33.64-2,1a34.31,34.31,0,0,1-4.75,2l-.85.32c-1,.37-2,.73-2.93,1.05l-.88-3.25A65.63,65.63,0,0,0,142,205l9.83,13.51a3.33,3.33,0,0,0,4.64.74,86.62,86.62,0,0,0,21.68-22.8,3.36,3.36,0,0,0,.47-2.51,3.32,3.32,0,0,0-1.44-2.1l-8.36-5.44a3.32,3.32,0,0,0-2.55-.45,3.28,3.28,0,0,0-2.1,1.51,42.46,42.46,0,0,1-2.65,3.72c-.58.75-1.15,1.51-1.56,2.09-.85,1-1.75,2-2.66,3l-2.29-2.3a66.28,66.28,0,0,0,10-14.57l15.25,6.8a3.32,3.32,0,0,0,4.39-1.69A86.91,86.91,0,0,0,192,153.9a3.32,3.32,0,0,0-3.15-3.48l-10-.52a3.35,3.35,0,0,0-3.49,3.14l-.18,3.5-.57,3.73c-.08.48-.15,1-.22,1.44-.1.72-.2,1.44-.35,2.06l-.11.46-3.21-.85,0-.09a23.08,23.08,0,0,0,.41-2.35c.05-.37.1-.74.17-1.15l.51-3.27c0-.11,0-.22,0-.34l.17-3.47v-7l16.7-1.73a3.31,3.31,0,0,0,3-3.65,86.79,86.79,0,0,0-9-30.22,3.32,3.32,0,0,0-4.47-1.44l-8.88,4.53a3.33,3.33,0,0,0-1.51,4.36c.31.66.63,1.31.95,2a34.09,34.09,0,0,1,2.05,4.77l.33.88c.37,1,.73,2,1.05,2.91L169,129a66.08,66.08,0,0,0-7.59-15.91l13.5-9.83a3.33,3.33,0,0,0,.74-4.64A86.47,86.47,0,0,0,152.81,77Zm2,32.68a3.34,3.34,0,0,0-.73,4.64,59.27,59.27,0,0,1,9.37,19.65,3.33,3.33,0,0,0,4.07,2.35l9.64-2.57a3.33,3.33,0,0,0,2.39-3.91,48.49,48.49,0,0,0-2.17-6.87l-.26-.71a35,35,0,0,0-1.87-4.52l3-1.51a80.26,80.26,0,0,1,6.44,21.58l-16.46,1.71a3.34,3.34,0,0,0-3,3.48l.17,3.23v6.35l-.17,3.14-.47,3.05c-.07.43-.14.87-.2,1.31-.08.59-.16,1.18-.27,1.67l-.83,3.2a3.32,3.32,0,0,0,2.36,4l9.63,2.57a3.32,3.32,0,0,0,4.08-2.38l1-3.79c.2-.89.33-1.79.46-2.69.06-.43.12-.85.2-1.33l.62-4.11,0-.51,3.27.17a80.93,80.93,0,0,1-5.21,21.89L164.77,172a3.32,3.32,0,0,0-2.55-.06,3.28,3.28,0,0,0-1.85,1.75,59.45,59.45,0,0,1-12.32,18,3.32,3.32,0,0,0,0,4.69l7.05,7.06a3.31,3.31,0,0,0,4.83-.15l1.8-2c1.16-1.25,2.31-2.5,3.53-4,.5-.71,1-1.41,1.57-2.1.37-.49.74-1,1.11-1.47l2.8,1.81a79.61,79.61,0,0,1-15.5,16.3l-9.75-13.39a3.31,3.31,0,0,0-4.64-.73,59.12,59.12,0,0,1-19.64,9.37,3.34,3.34,0,0,0-2.36,4.07l2.58,9.64a3.33,3.33,0,0,0,3.91,2.39,48.78,48.78,0,0,0,6.89-2.18l.69-.25a34.82,34.82,0,0,0,4.51-1.87l1.51,3a80.26,80.26,0,0,1-21.58,6.44l-1.71-16.46a3.28,3.28,0,0,0-3.63-3,61,61,0,0,1-21.77-1.78,3.34,3.34,0,0,0-4.07,2.36l-2.58,9.63a3.32,3.32,0,0,0,.34,2.54,3.37,3.37,0,0,0,2,1.54l3.79,1c.89.21,1.8.34,2.7.47.42.06.85.12,1.32.21l4.11.61.51,0-.17,3.27a80.77,80.77,0,0,1-21.88-5.21l6.73-15.11a3.32,3.32,0,0,0-1.59-4.35l-2.76-1.32-5.67-3.26a32,32,0,0,1-3-2.16c-.7-.54-1.41-1.08-1.92-1.43-1-.79-1.88-1.63-2.8-2.48-.68-.62-1.37-1.25-2.07-1.87a3.33,3.33,0,0,0-4.54.16l-7,7.05a3.33,3.33,0,0,0-1,2.44,3.36,3.36,0,0,0,1.12,2.39l1.95,1.78c1.27,1.16,2.53,2.32,4,3.55.71.5,1.4,1,2.1,1.56l1.48,1.12-1.82,2.8a79.82,79.82,0,0,1-16.29-15.5l13.38-9.74a3.33,3.33,0,0,0,.74-4.64A59.49,59.49,0,0,1,48,164.88a3.32,3.32,0,0,0-4.06-2.35L34.3,165.1A3.33,3.33,0,0,0,31.91,169a48.45,48.45,0,0,0,2.16,6.87l.27.71a34.2,34.2,0,0,0,1.86,4.51l-3,1.52A80.69,80.69,0,0,1,26.8,161l16.46-1.71a3.33,3.33,0,0,0,3-3.63A61.22,61.22,0,0,1,48,133.92a3.34,3.34,0,0,0-.33-2.53,3.3,3.3,0,0,0-2-1.54L36,127.27a3.33,3.33,0,0,0-2.53.34,3.38,3.38,0,0,0-1.55,2l-1,3.8c-.2.88-.34,1.78-.47,2.69-.06.42-.12.85-.2,1.33l-.61,4.1,0,.51-3.26-.17A80.54,80.54,0,0,1,31.59,120l15.12,6.74a3.31,3.31,0,0,0,4.39-1.69,59.74,59.74,0,0,1,12.33-18,3.33,3.33,0,0,0,0-4.7l-7.05-7a3.34,3.34,0,0,0-4.84.14c-.59.67-1.19,1.32-1.8,2-1.15,1.25-2.3,2.51-3.52,4-.51.71-1,1.41-1.57,2.11-.37.48-.75,1-1.12,1.47l-2.79-1.82a80.13,80.13,0,0,1,15.5-16.3L66,100.3a3.33,3.33,0,0,0,4.65.73l.77-.58A12.74,12.74,0,0,1,73,99.33l5.44-3.15c.64-.29,1.28-.6,1.91-.91a26.19,26.19,0,0,1,3.89-1.67l1-.36a34.15,34.15,0,0,1,4.82-1.53,3.32,3.32,0,0,0,2.54-4.12L90,78a3.33,3.33,0,0,0-3.91-2.39,49.15,49.15,0,0,0-6.89,2.17l-.69.26A33.35,33.35,0,0,0,74,79.87l-1.52-3a81.06,81.06,0,0,1,21.59-6.44l1.7,16.46a3.31,3.31,0,0,0,3.63,3,61.2,61.2,0,0,1,21.77,1.77,3.34,3.34,0,0,0,2.53-.33,3.3,3.3,0,0,0,1.54-2l2.58-9.64a3.32,3.32,0,0,0-2.38-4.07l-3.78-1c-.9-.2-1.8-.34-2.71-.47l-1.32-.2-4.1-.61-.52,0,.17-3.26a80.45,80.45,0,0,1,21.89,5.2l-6.74,15.12a3.31,3.31,0,0,0-.06,2.55,3.28,3.28,0,0,0,1.76,1.84,59.74,59.74,0,0,1,18,12.33,3.33,3.33,0,0,0,4.7,0l7.05-7a3.33,3.33,0,0,0-.14-4.83l-2-1.78c-1.26-1.16-2.52-2.32-4-3.55-.71-.5-1.4-1-2.09-1.57l-1.48-1.12,1.81-2.79a79.61,79.61,0,0,1,16.3,15.5Z" transform="translate(0 -4.71)"/><path class="cls-5" d="M105.74,96.2a53.09,53.09,0,0,0-45.87,80l.2.34a53.59,53.59,0,0,0,13.56,15.17c.09.06.14.15.23.2l.07,0a52.79,52.79,0,0,0,63.6,0l.09,0c.09,0,.14-.14.22-.2a53.29,53.29,0,0,0,13.56-15.17,3.13,3.13,0,0,0,.21-.34,53.09,53.09,0,0,0-45.87-80Zm-6,7.09-36.9,64.17a46.49,46.49,0,0,1,36.9-64.17ZM79.9,188.08l25.84-44.92,25.84,44.92a46.4,46.4,0,0,1-51.68,0Zm56.95-4.17-26.79-46.56a5,5,0,0,0-8.65,0L74.62,183.91a46.7,46.7,0,0,1-8.09-9.53l39.21-68.19,7.6,13.19.15.29,31.45,54.71a46.7,46.7,0,0,1-8.09,9.53Zm11.78-16.45-29.22-50.84c0-.1-.1-.2-.15-.3l-7.52-13a46.5,46.5,0,0,1,36.89,64.17Z" transform="translate(0 -4.71)"/><g class="cls-6"><path class="cls-7" d="M94.75,12.79A7.41,7.41,0,0,1,100,15.2a13,13,0,0,1,3.2-.42,11.67,11.67,0,0,1,8.68,4c9.53,3.57,5.74,9.32,5.52,9.64h.11s5.59,3.91,3.67,5.82c0,0,3.45,4.29.69,6.59a3,3,0,0,1-1,.5c7.83,12.21,12.51,33.76,9.42,51.53-.61,3.52-4.63,6.05-15.47,6.05h0a57.36,57.36,0,0,1-10.48-.93c.1.82.22,1.72.34,2.62h0c.54,3.87,1.33,8.27,2.2,8.92,5.52,4.15,13.76,5.87,18.39,6.54l6.71.63a17.28,17.28,0,0,1,1.49,1.69h.07c2,0,3.61,2.21,3.61,2.21l26.44,46.28L140.8,207.77s7.66,12.88,3.83,18.7l5.29,5.29s.84,2.83-3,2.83a11.48,11.48,0,0,1-4.44-1.44,291,291,0,0,1,1.06,30,29.62,29.62,0,0,0-3.09-.46l0,1.95h0c-.08,13.61,0,33.26.77,37.74,1.27,7,0,10.46,0,10.46s3.45,54.55,3.45,55,4.83,6.63,4.83,6.63,6.38,5,11.35,9h0a14.29,14.29,0,0,1,4.15,1.76,4.1,4.1,0,0,1,1.26,2.61c.33.23.88.6,1.5,1.05a15.94,15.94,0,0,0,4.32.8c.68.69,0,1.43-.89,2,.5.53.79,1,.71,1.29-.33,1.2-4.95,6.06-13.3,6.06-.47,0-1,0-1.45,0-8.77-.57-20.93-9.92-21.93-12.52a7.72,7.72,0,0,1,.13-5.25c0-2.22,1.34-4.88,2.08-6.21,1.15-2.07,2-7.93,2-7.93-12.64-44.36-5.4-50.6-6.78-53.82-.87-2.05-8.69-31.09-14.26-52h0l0-.09c-.32-1.21-.63-2.39-.94-3.54a15,15,0,0,1-2.88-1.7,90.8,90.8,0,0,1-15.17,6l-1.61,4L82.64,303.75s-2.86,10.51-6.25,13.9A149.2,149.2,0,0,1,68,341.9c-5.74,12.87-8.27,30.57-8.27,30.57s4.12,10.46,4.6,17c4.84,6.63,9.19,14.81,3.42,17.22a33,33,0,0,1-12.54,2.21c-7,0-13.19-1.63-14.64-3.08-2.34-2.34,4.29-20,4.29-20,.21-1.61.66-3.16,1.59-3.82,2.3-1.6,5.06-5.51,5.06-5.51s-.86-2.3,1.55-5.4,6-23,6-25.61-3.22-22.07,7.51-29.73c0,0,1.22-24.88,4.37-42.88h0c.34-2,.71-4,1.11-5.8-3.29.27-5.26.31-5.26.31S70,258.44,74,247c-3.47-.33-1.19-5.72-1.19-5.72a28.41,28.41,0,0,0,4.08-2.4c.44-1.24.88-2.49,1.33-3.74C77.09,232.33,80,223.53,80,223.53l-10.54-7.95L38.81,192.5s24.6-58,25.59-59c.65-.64,5.4-3.43,8.67-5.31,3.43-3.43,10.79-6.14,10.79-6.14s7-7.93,8.51-9.43.8-5.63.8-5.63L89.33,92.25c-6.78-4.27-9.45-9-9.45-9a3.4,3.4,0,0,1-2.5,1,8.8,8.8,0,0,1-4.47-1.69s-9.73-9.73-6.67-14.33a2.89,2.89,0,0,1,2.53-1.39c2,0,4.39,1.65,6.07,3.07-3.45-3-5.3-3.42-6-3.42h-.23l-.06,0,0,0-.06,0,0-.07c-.72-.36-4-2.15-4.26-5.18-5.5-1.72-4.44-4.78-4.44-4.78-5.29-3.6,0-9.39,0-9.39-2.35-2.35-.53-5.78-.53-5.78-2.76-3.91.68-8.73.68-8.73.39-4.22,6.71-6.71,6.71-6.71.5-2.11,3.1-3.1,3.1-3.1a4.6,4.6,0,0,1,4.25-2.62h.35c2.29-4.95,10.88-5.43,14.1-5.43.76,0,1.22,0,1.22,0a8.63,8.63,0,0,1,5.22-2M138,193.84l14.19-25.58-13.49-20c.36,5.75.58,11.68.52,17.24a223.76,223.76,0,0,1-2,27.2,1.89,1.89,0,0,1,.77,1.19M86.1,212.9c1.37-3.93,2.57-7.36,3.46-10A3,3,0,0,1,91,198.47c.08-.25.14-.46.18-.61C92.6,192.8,79.61,168,79.61,168l-11-6.87L53.27,190l24.58,17.12,8.25,5.75m79.81,174.68h0M94.75,9.23h0a11.67,11.67,0,0,0-6.3,2h-.14c-4.62,0-12.4.78-16.16,5.58a8,8,0,0,0-5.06,3.3,9,9,0,0,0-3.31,3.15c-2.28,1.16-6.45,3.81-7.37,8.06C55,33.7,53.6,37.77,55.21,41.61A8.68,8.68,0,0,0,55.39,47a10.62,10.62,0,0,0-1.6,6.46,8,8,0,0,0,2.3,4.72A6.17,6.17,0,0,0,56.71,60,8.84,8.84,0,0,0,61.11,64a9.57,9.57,0,0,0,1.83,2.84c-1.73,3.17-.88,7.31,2.54,12.32a46.27,46.27,0,0,0,4.91,5.95l.37.33a12.07,12.07,0,0,0,6.62,2.41,7.31,7.31,0,0,0,1.33-.12,35.75,35.75,0,0,0,7.52,6.78l3.45,13.24a8.76,8.76,0,0,1,0,2.59c-1.56,1.6-6.18,6.81-7.89,8.73-2.16.87-7.56,3.21-10.85,6.29-8,4.59-8.61,5.23-9,5.66-.69.69-1.11,1.11-13.92,31-6.21,14.46-12.37,29-12.43,29.14l1.13,4.23,30.61,23.09,8.55,6.45c-.89,3.17-1.72,7.18-1.29,10.07l-.6,1.67a26.9,26.9,0,0,1-2.63,1.46l-1.75,1.83c-.49,1.14-1.93,5.09-.17,8a4.52,4.52,0,0,0,.34.51c-3.61,10.12-6.31,17.66-6.31,17.66l3.42,4.77.81,0c-.08.45-.16.9-.24,1.37h0c-2.72,15.57-4,35.82-4.33,41.68-9.53,8.33-8.16,24.64-7.7,30.16.05.55.1,1.17.1,1.36,0,2.9-3.57,20.92-5.24,23.44a10.8,10.8,0,0,0-2.44,6.59A20.22,20.22,0,0,1,44.41,379c-1.61,1.13-2.6,3.05-3,5.87-.44,1.18-1.8,5-3,9-2.42,8.35-2.52,12.26-.37,14.41,2.71,2.71,10.68,4.13,17.16,4.13A36.49,36.49,0,0,0,69.13,410a7.63,7.63,0,0,0,4.63-5.07c1.14-4.09-.76-9.43-6-16.75-.67-5.79-3.4-13.44-4.38-16.07.59-3.69,3.1-18.08,7.86-28.72a156.36,156.36,0,0,0,8.39-24C83,315.23,85.43,307,86,304.88l15-37.59,1-2.44A95.71,95.71,0,0,0,114.23,260l.09,0,.54,2v.08c12.08,45.26,13.87,51,14.33,52.21,0,.32-.13,1-.22,1.52-.87,5.19-2.89,17.31,6.74,51.4a27.48,27.48,0,0,1-1.43,6,18.26,18.26,0,0,0-2.51,7.28,11.15,11.15,0,0,0,.09,7.18c1.3,3.39,8.1,7.88,9.45,8.75,3.27,2.1,9.64,5.67,15.58,6.06q.84.06,1.68.06c9.57,0,15.89-5.58,16.74-8.69a4,4,0,0,0,.1-1.66,4.42,4.42,0,0,0,.46-1.58,4.34,4.34,0,0,0-1.3-3.54l-2.37-1a13.35,13.35,0,0,1-2.81-.44,7,7,0,0,0-2.13-3.19,14.53,14.53,0,0,0-4.78-2.26c-4.16-3.34-9.13-7.25-10.47-8.3-1.48-1.93-3.14-4.13-3.86-5.17-.17-2.82-.82-13.35-3.36-53.53.4-1.62,1-5.46-.09-11.47-.56-3.11-.82-16.32-.72-36.28l3.11-2.23c0-.56.27-12.34-.63-25.08l.45,0c3.1,0,4.73-1.31,5.55-2.41a5.81,5.81,0,0,0,.86-5l-.9-1.5-3.59-3.6c.85-3.13.4-7.13-1.35-11.92a49.83,49.83,0,0,0-2.62-5.93l21.86-39.22,0-3.51-26.44-46.28-.2-.32a9.47,9.47,0,0,0-4.7-3.43c-.27-.31-.55-.61-.85-.91l-2.19-1-6.61-.62c-4-.59-11.25-2.06-16.15-5.47a32.25,32.25,0,0,1-1-4.89,62.3,62.3,0,0,0,6.31.31c4.32,0,17.43,0,19-9,2.87-16.49-.62-37.5-8.33-51.37,1.66-2.51,1.15-5.71-.35-8.37a4.41,4.41,0,0,0,0-.89c-.19-2.18-1.81-4.16-3.44-5.64a8.42,8.42,0,0,0-.18-4.36c-1-3-3.49-5.39-7.55-7.08a15.36,15.36,0,0,0-10.76-4.5,15.9,15.9,0,0,0-2.16.15,10.58,10.58,0,0,0-6.32-2.14Zm47.43,169.65c.29-4,.51-8.54.57-13.39,0-1.54,0-3.15,0-4.84l5.24,7.79-5.79,10.44Zm-84.28,10L70,166.18l6.89,4.32c1,1.85,3.3,6.49,5.57,11.5,4.23,9.34,5.1,13.09,5.26,14.42a6.62,6.62,0,0,0-1.84,2.69,6.39,6.39,0,0,0-.1,3.85c-.44,1.26-.94,2.71-1.5,4.33l-4.39-3.06-22-15.32Z" transform="translate(0 -4.71)"/><path class="cls-8" d="M135.34,381.21a7.72,7.72,0,0,0-.13,5.25c1,2.6,13.16,12,21.93,12.52,9.27.61,14.41-4.75,14.75-6s-6-5.39-6-5.39Z" transform="translate(0 -4.71)"/><path class="cls-8" d="M44.86,385.77s-6.63,17.7-4.29,20,17,5.13,27.18.87-11.09-26.43-11.09-26.43Z" transform="translate(0 -4.71)"/><path class="cls-9" d="M88.8,90.21,93.17,107s.69,4.14-.8,5.63-8.51,9.43-8.51,9.43l-3.9,7.7,22.64,12.87,27-7.24-.8-19s-13.83-.89-21.89-6.94c-1.59-1.19-2.93-15-2.93-15Z" transform="translate(0 -4.71)"/><path class="cls-10" d="M104.72,100.56c-.43-3.09-.77-6.21-.77-6.21L88.78,90.1,90,94.77s4.75,3.1,6.23,3.75A28.77,28.77,0,0,0,104.72,100.56Z" transform="translate(0 -4.71)"/><path class="cls-9" d="M76.22,126.39S65.4,132.51,64.4,133.5s-25.59,59-25.59,59l30.61,23.08L80,223.53s-3.34,10.23-1.38,12.18-5.75,5.59-5.75,5.59-3,7,3.06,5.52,14.26-5.59,14.26-5.59l4.06-22.68-16.36-11.4L53.27,190l15.38-28.9,11,6.87,13.45-9.83L83.4,134.11l-4.13-9Z" transform="translate(0 -4.71)"/><path class="cls-9" d="M79.88,83.24s8.77,15.62,35,15.63c10.84,0,14.86-2.53,15.47-6.05,3.84-22.11-4.33-50.08-15.67-58.62C104.72,26.72,69.46,55,69.46,55L77,71.9s-7.66-8.27-10.73-3.68,6.67,14.33,6.67,14.33S77.27,85.84,79.88,83.24Z" transform="translate(0 -4.71)"/><path class="cls-9" d="M132.24,118.68c2.61-1.38,4.94,1.87,4.94,1.87l26.44,46.28L140.8,207.77s7.66,12.88,3.83,18.7l5.29,5.29s.84,2.83-3,2.83-12.87-6.74-12.87-6.74L135.11,199l17-30.73L136.5,145l-4.89-4.33S127.38,121.25,132.24,118.68Z" transform="translate(0 -4.71)"/><path class="cls-9" d="M104.78,248.22,82.64,303.75s-2.86,10.51-6.25,13.9A149.2,149.2,0,0,1,68,341.9c-5.74,12.87-8.27,30.57-8.27,30.57s5.23,13.28,4.6,19.25c0,0,5,6.9,3,10.86s-9.88,1.61-9.88,1.61-13.16,1.73-15.11-1.55,2.47-12.07,2.47-12.07-.63-7,1.66-8.62,5.06-5.51,5.06-5.51-.86-2.3,1.55-5.4,6-23,6-25.61-3.22-22.07,7.51-29.73c0,0,2.6-52.87,10-60.22s28.27-11.73,28.27-11.73Z" transform="translate(0 -4.71)"/><path class="cls-11" d="M104.78,248.22,97.7,266s-9.79,4.37-12.27,5c-1.84.46-15,4.51-14.51,1.86,1.38-8.26,3.28-15,5.59-17.33,7.35-7.36,28.27-11.73,28.27-11.73Z" transform="translate(0 -4.71)"/><path class="cls-9" d="M112.67,240s18.54,70,19.92,73.25-5.86,9.46,6.78,53.82c0,0-.8,5.86-2,7.93s-3.79,7.36-.46,9.2,14.14,11,18.73,11.83,13.22-3.22,13.22-3.22,4.6-1.72,3.16-3.16c0,0-4.2-.17-5.57-1.55s-17-13.67-17-13.67-4.83-6.21-4.83-6.63-3.45-55-3.45-55,1.27-3.45,0-10.46-.65-51.18-.65-51.18Z" transform="translate(0 -4.71)"/><path class="cls-11" d="M112.67,240s4.36,16.42,5.66,21.27c.5,1.86,22.11,3.36,22.11,3.36l.12-13.44Z" transform="translate(0 -4.71)"/><path class="cls-12" d="M112.67,253.87c3.58,7.11,28.79,8.61,30.88,9.27,0,0,.65-28.55-3.37-44.58S112.67,253.87,112.67,253.87Z" transform="translate(0 -4.71)"/><path class="cls-13" d="M82,77c4.45,1.84.62-6.13.62-6.13s-.42-8-2.68-9.35a32.26,32.26,0,0,1-4.94-4l42.4-29.07s4.29-6-5.51-9.65A11.68,11.68,0,0,0,100,15.2s-4.29-5.13-10.5-.42c0,0-12.49-.73-15.32,5.4a4.68,4.68,0,0,0-4.6,2.61s-2.6,1-3.1,3.1c0,0-6.32,2.49-6.71,6.71,0,0-3.44,4.82-.68,8.73,0,0-1.82,3.43.53,5.78,0,0-5.29,5.79,0,9.39,0,0-1.3,3.75,6.44,5.29l2.3,4.74s2.21-1,8.58,5.37S82,77,82,77Z" transform="translate(0 -4.71)"/><path class="cls-10" d="M112.9,77.38a1.5,1.5,0,0,1,0-3c1.62,0,6.15-1.36,9.28-2.43-1-7.9-6-13.79-9-16.67a1.5,1.5,0,0,1,2.07-2.17c3.47,3.31,9.39,10.29,10,19.76l.08,1.13-1.07.38C123.43,74.69,115.84,77.38,112.9,77.38Z" transform="translate(0 -4.71)"/><path class="cls-14" d="M101.05,64.75H101a1.49,1.49,0,0,1-1.43-1.56c0-.44.25-4.29,3-5.75,1.74-.93,3.92-.61,6.45,1a1.5,1.5,0,1,1-1.57,2.55c-1.52-.93-2.75-1.24-3.47-.86-1.08.58-1.38,2.7-1.41,3.23A1.5,1.5,0,0,1,101.05,64.75Z" transform="translate(0 -4.71)"/><path class="cls-14" d="M118.47,58a1.65,1.65,0,0,1-.65-.14,1.5,1.5,0,0,1-.7-2c1-2.13,2.34-3.27,3.94-3.37,2.62-.18,4.53,2.66,4.74,3a1.5,1.5,0,1,1-2.52,1.63c-.45-.68-1.44-1.63-2-1.62-.32,0-.86.47-1.43,1.67A1.48,1.48,0,0,1,118.47,58Z" transform="translate(0 -4.71)"/><path class="cls-15" d="M99.39,78c-.23-.34,16.36,3.89,23.58.26,0,0-.92,13-6.9,13.43C109.93,92.08,103.52,88.55,99.39,78Z" transform="translate(0 -4.71)"/><g class="cls-16"><path class="cls-17" d="M97.94,79.78s15,7.19,23.15,1.4l-.33-3.34-23.32-2.4Z" transform="translate(0 -4.71)"/><path class="cls-18" d="M99.72,86s5.89-4,13.39.62-1.57,9.14-1.57,9.14Z" transform="translate(0 -4.71)"/></g><path class="cls-10" d="M114.43,92.68c-10.9,0-15.93-14.24-16-14.4l-.58-1.69,1.75.39c.15,0,15.46,3.43,23,.32a1,1,0,0,1,.77,1.85c-6.55,2.71-17.87,1-22.33.16,1.8,3.94,7.1,13.25,16.17,11a1,1,0,0,1,1.21.73,1,1,0,0,1-.73,1.21A13.55,13.55,0,0,1,114.43,92.68Z" transform="translate(0 -4.71)"/><path class="cls-10" d="M76.62,81.48s-.23-10.06-8-12.47" transform="translate(0 -4.71)"/><path class="cls-10" d="M68.65,161.13s6.62-8.89,5.75-7.54c-4.85,7.51,12.42,16.18,16.47,11.55A10.35,10.35,0,0,1,79.61,168Z" transform="translate(0 -4.71)"/><path class="cls-19" d="M83.86,122.05s-7.36,2.71-10.79,6.14c0,0,20.64,29.92,6.54,39.81,0,0,13,24.8,11.61,29.86s-24.45,69.46-24.45,69.46,71.25-1.27,73.79-47.85l-3.37-26.82a223.76,223.76,0,0,0,2-27.2c.15-13.08-1.28-28.12-2.34-38.39A16.52,16.52,0,0,0,132,116.65L125.3,116s5.29,17.75-7,19.43C111.73,136.36,95.82,138.49,83.86,122.05Z" transform="translate(0 -4.71)"/><g class="cls-20"><path class="cls-21" d="M69.42,269.06s71.26-1.27,73.79-47.85Z" transform="translate(0 -4.71)"/></g><path class="cls-19" d="M83.86,122.05s-7.36,2.71-10.79,6.14c0,0,20.64,29.92,6.54,39.81,0,0,13,24.8,11.61,29.86s-24.45,69.46-24.45,69.46,71.25-1.27,73.79-47.85l-3.37-26.82a223.76,223.76,0,0,0,2-27.2c.15-13.08-1.28-28.12-2.34-38.39A16.52,16.52,0,0,0,132,116.65L125.3,116s5.29,17.75-7,19.43C111.73,136.36,95.82,138.49,83.86,122.05Z" transform="translate(0 -4.71)"/><path class="cls-9" d="M69.42,215.58,80,223.53s-3.34,10.23-1.38,12.18-5.75,5.59-5.75,5.59-3,7,3.06,5.52,14.26-5.59,14.26-5.59L93.59,222s1.06-3.78-3.24-6.3c-3.32-1.94-12.5-8.54-12.5-8.54Z" transform="translate(0 -4.71)"/><path class="cls-8" d="M89.64,203.07s37.56,5,48-6.95c0,0,1.13-2.36-.44-3.47.22,2.21-17.65,11.83-46,5.75A3.07,3.07,0,0,0,89.64,203.07Z" transform="translate(0 -4.71)"/><circle class="cls-22" cx="120.84" cy="196.55" r="8.76"/><g class="cls-23"><path class="cls-24" d="M79.23,31.75s-3.76,4.56,1,7.61c1.67,1.06-4.94,6.2-4.94,6.2l-2.67,15a20,20,0,0,1,5.75-1.39L90.47,73l-7.76,4.85L58,61.2,41.49,29.38,62.72,10.11l23.21-5.4-4.08,8.08s-9.85,6-6.09,10.36C73.4,24.81,72.94,31.31,79.23,31.75Z" transform="translate(0 -4.71)"/></g><path class="cls-3" d="M68.5,66.53s-4.44-2-4.44-5.66,17.31-38.46,53.48-32.49c0,0,5.59,3.91,3.67,5.82,0,0,3.45,4.29.69,6.59S105.74,39.72,68.5,66.53Z" transform="translate(0 -4.71)"/><path class="cls-25" d="M70.45,58.42s23.14-28.2,47.89-24.52C118.34,33.9,95.28,35.13,70.45,58.42Z" transform="translate(0 -4.71)"/><path class="cls-8" d="M41.43,399.27s13.16-5.63,26.32-1.32a5.78,5.78,0,0,0-1-3.22c-1.09-1.72-17.58-4.37-24.59,1.41C42.18,396.14,40.68,398.29,41.43,399.27Z" transform="translate(0 -4.71)"/><path class="cls-8" d="M152.71,394.89s.52-11.59,13.2-7.31l.34.28a4.13,4.13,0,0,0-1.26-2.67,14.29,14.29,0,0,0-4.15-1.76s-11.62-2.85-11.45,9.49C149.39,392.92,151.2,395.47,152.71,394.89Z" transform="translate(0 -4.71)"/><path class="cls-26" d="M121.81,208.58a8.51,8.51,0,0,1-6.27-2.44c-1.67-1.87-2.14-4.59-1.39-8.08a1.5,1.5,0,1,1,2.93.64c-.54,2.49-.3,4.33.7,5.44,1.5,1.68,4.43,1.43,4.46,1.42a1.5,1.5,0,1,1,.31,3S122.23,208.58,121.81,208.58Z" transform="translate(0 -4.71)"/><path class="cls-27" d="M126.14,205.61a1.24,1.24,0,0,1-.33,0,1.5,1.5,0,0,1-1.14-1.79c.55-2.49.33-4.32-.66-5.44-1.5-1.69-4.43-1.46-4.46-1.45a1.5,1.5,0,1,1-.29-3c.18,0,4.46-.4,7,2.44,1.67,1.89,2.12,4.61,1.35,8.09A1.51,1.51,0,0,1,126.14,205.61Z" transform="translate(0 -4.71)"/><path class="cls-14" d="M98.84,55.4c.52-1.78,2-3,3.45-4,.9-.68,0-2.23-.9-1.54-1.81,1.37-3.61,2.84-4.26,5.1a.89.89,0,0,0,1.71.48Z" transform="translate(0 -4.71)"/><path class="cls-14" d="M117.77,47.41a3.82,3.82,0,0,1,3.17,1.11c.82.8,2.08-.46,1.26-1.26a5.69,5.69,0,0,0-4.9-1.57c-1.13.16-.65,1.88.47,1.72Z" transform="translate(0 -4.71)"/></g></g></g></svg>