<svg xmlns="http://www.w3.org/2000/svg" viewBox="0 0 42.24 42.24"><title>iconManuscrito</title><g id="Camada_2" data-name="Camada 2"><g id="Camada_1-2" data-name="Camada 1"><path d="M37.78,31.44V13.5a.82.82,0,0,0-.34-.67l-2-1.48,1.6-1A.82.82,0,0,0,37.07,9L35.58,7.87V7.34H37a.82.82,0,0,0,.82-.82V4.87A4.87,4.87,0,0,0,32.92,0H4.7A4.26,4.26,0,0,0,1.31,1.81,6.68,6.68,0,0,0,0,5.89c0,2.76,1.8,5,4,5H8.59V24a.85.85,0,0,0,.37.7l1.62,1.05L8.86,27.24a.85.85,0,0,0-.27.62V35a.66.66,0,0,0,0,.14.53.53,0,0,0,0,.13,7.94,7.94,0,0,0,1.56,5.1,5,5,0,0,0,4,1.87H36.79a5.44,5.44,0,0,0,1-10.8Zm-31-22.2a3.35,3.35,0,0,0,.38-1.55,3,3,0,0,0-3-3.24.83.83,0,0,0-.82.83.82.82,0,0,0,.82.82C5,6.1,5.5,6.7,5.5,7.69A1.49,1.49,0,0,1,4,9.24c-1.28,0-2.37-1.53-2.37-3.35C1.65,3.55,3,1.65,4.7,1.65A3.42,3.42,0,0,1,7.41,2.73,6.33,6.33,0,0,1,8.59,7V9.24Zm4.66,30.08a6.28,6.28,0,0,1-1.19-4,.51.51,0,0,0,0-.13.68.68,0,0,0,0-.14V28.22l2.24-2a.83.83,0,0,0,.28-.68.82.82,0,0,0-.38-.63l-2.14-1.39V7A7.86,7.86,0,0,0,8.66,1.65H32.92a3.22,3.22,0,0,1,3.21,3.22v.82H34.76a.83.83,0,0,0-.83.83V8.28a.79.79,0,0,0,.33.65l.86.66-1.62,1a.83.83,0,0,0,0,1.37l2.68,1.95V31.35H14.8a3.14,3.14,0,0,0-3.13,3.2,3,3,0,0,0,3,3.23.83.83,0,0,0,0-1.65c-.85,0-1.35-.59-1.35-1.58A1.48,1.48,0,0,1,14.8,33c1.29,0,2.37,1.53,2.37,3.35,0,2.33-1.37,4.24-3.05,4.24A3.37,3.37,0,0,1,11.43,39.32Zm25.36,1.27H17.39a1.83,1.83,0,0,1,.13-.16,6.7,6.7,0,0,0,1.3-3.8H31.68a.83.83,0,0,0,0-1.65h-13a5.34,5.34,0,0,0-.89-2h19a3.8,3.8,0,1,1,0,7.59Z"/><path d="M15.62,8.08a.78.78,0,0,0,.58-.24A.82.82,0,1,0,15,6.68a.82.82,0,0,0,.58,1.4Z"/><path d="M19.14,8.08H31.05a.82.82,0,0,0,.82-.82.83.83,0,0,0-.82-.83H19.14a.83.83,0,0,0-.83.83A.82.82,0,0,0,19.14,8.08Z"/><path d="M15.62,12.7H31.05a.83.83,0,0,0,0-1.65H15.62a.83.83,0,0,0,0,1.65Z"/><path d="M15.62,17.32H31.05a.83.83,0,0,0,0-1.65H15.62a.83.83,0,0,0,0,1.65Z"/><path d="M15.62,21.94H31.05a.83.83,0,0,0,0-1.65H15.62a.83.83,0,0,0,0,1.65Z"/><path d="M15.62,26.56H31.05a.83.83,0,0,0,0-1.65H15.62a.83.83,0,0,0,0,1.65Z"/><path d="M34.88,35a.82.82,0,0,0-.82.82.87.87,0,0,0,.24.59.84.84,0,0,0,.58.24.82.82,0,0,0,.83-.83.84.84,0,0,0-.24-.58A.87.87,0,0,0,34.88,35Z"/></g></g></svg>