<svg id="Camada_1" data-name="Camada 1" xmlns="http://www.w3.org/2000/svg" xmlns:xlink="http://www.w3.org/1999/xlink" viewBox="0 0 849.48 508.51"><defs><style>.cls-1{fill:none;}.cls-2{clip-path:url(#clip-path);}.cls-3{fill:#6d472e;}.cls-4{fill:#eac2a7;}.cls-5{fill:#eaa000;}.cls-6{fill:#97d8dd;}.cls-7{fill:#027e8f;}.cls-8{fill:#65c4d1;}.cls-9{clip-path:url(#clip-path-2);}.cls-10{fill:#c9a68f;}.cls-11{fill:#d6aa8b;}.cls-12{fill:#d6d6d6;}.cls-13{fill:#c99f4b;}.cls-14{fill:#6d5f56;}.cls-15{fill:#493e38;}.cls-16{clip-path:url(#clip-path-3);}.cls-17{fill:#fcfcfc;}.cls-18{fill:#d32222;}.cls-19{fill:#f4f4f4;}.cls-20{clip-path:url(#clip-path-4);}.cls-21{fill:#b7b7b7;}.cls-22{fill:#c99e32;}.cls-23{clip-path:url(#clip-path-5);}.cls-24{fill:#aa7e30;}.cls-25{fill:#fff;}.cls-26{fill:#ddd;}.cls-27{fill:#846829;}.cls-28{fill:#e8cd95;}</style><clipPath id="clip-path"><path class="cls-1" d="M254.6-136.93s-46.61,35.4-124.69,6.31S51.83-383.23,51.83-383.23,123.65-490,139.71-487.11s109.72,21,109.72,55.44,41.68,189,41.68,189,17.5,67.79,8.75,72.95"/></clipPath><clipPath id="clip-path-2"><path class="cls-1" d="M244.6,483.12S198,518.53,119.91,489.43,41.83,236.82,41.83,236.82s71.82-106.73,87.88-103.88,109.72,21,109.72,55.44,41.68,189,41.68,189,17.5,67.79,8.75,72.95"/></clipPath><clipPath id="clip-path-3"><path class="cls-1" d="M181,246.17c-.37-.39,22.15,1.41,30.75-4.92,0,0,1.7,17.13-6,19C197.85,262.18,188.73,259,181,246.17Z"/></clipPath><clipPath id="clip-path-4"><path class="cls-1" d="M193.74,499.76c5.23,10.38,42,12.57,45.06,13.53,0,0,.95-41.66-4.92-65.06S193.74,499.76,193.74,499.76Z"/></clipPath><clipPath id="clip-path-5"><path class="cls-1" d="M149,241.6c6.49,2.68.9-8.95.9-8.95S149.29,221,146,219a46.92,46.92,0,0,1-7.19-5.88l16.57-11.36,45.3-31.06s6.26-8.72-8-14.09a17,17,0,0,0-17.33-5.14S169,144,160,150.86c0,0-18.22-1.06-22.36,7.89a6.8,6.8,0,0,0-6.71,3.8s-3.8,1.45-4.53,4.53c0,0-9.22,3.63-9.78,9.78,0,0-5,7-1,12.74,0,0-2.65,5,.78,8.45,0,0-7.71,8.44,0,13.69,0,0-1.9,5.48,9.4,7.72l3.35,6.93s3.23-1.47,12.52,7.83S149,241.6,149,241.6Z"/></clipPath></defs><title>Fala4</title><g class="cls-2"><path class="cls-3" d="M236.81-5.73a11.3,11.3,0,0,0-.18,7.66c1.45,3.81,19.2,17.45,32,18.28,13.52.89,21-6.93,21.52-8.77s-8.72-7.87-8.72-7.87Z"/><path class="cls-3" d="M104.78.94s-9.67,66.35-6.27,69.75,24.84,7.49,39.67,1.28S122-7.12,122-7.12Z"/><path class="cls-4" d="M192.22-128.53l-32.31,81s-4.17-55.92-9.11-51a218.57,218.57,0,0,1-12.25,35.39c-8.38,18.78-12.07,44.61-12.07,44.61S134.11.9,133.19,9.62c0,0,7.29,50.58,4.36,56.37s-14.43,2.35-14.43,2.35-19.2,2.51-22.05-2.27,3.6-58.13,3.6-58.13-.92-10.23,2.44-12.58,7.38-8,7.38-8-1.26-3.35,2.26-7.88,8.72-33.57,8.72-37.37-4.7,39.06,11,27.88c0,0,3.8-77.15,14.53-87.88S192.22-135,192.22-135Z"/><path class="cls-4" d="M203.74-140.53s27,102.2,29.07,106.89-8.56-57.45,9.89,7.29c0,0-1.17,8.55-2.85,11.57S234.32-4,239.18-1.36s20.63,16.1,27.34,17.27,19.28-4.7,19.28-4.7,6.71-2.51,4.62-4.61c0,0-6.13-.25-8.14-2.26s-24.82-20-24.82-20-7-9.06-7-9.67-5-9-5-9,1.84-5,0-15.27-1-74.68-1-74.68Z"/><path class="cls-3" d="M99.77,20.63s19.21-8.21,38.41-1.92a8.36,8.36,0,0,0-1.43-4.7c-1.59-2.52-25.66-6.37-35.89,2C100.86,16.06,98.68,19.21,99.77,20.63Z"/><path class="cls-3" d="M262.17,14.24s.75-16.91,19.26-10.67l.5.41A6,6,0,0,0,280.09.09C278.39-1.34,274-2.48,274-2.48s-17-4.17-16.71,13.85C257.32,11.37,260,15.09,262.17,14.24Z"/><path class="cls-5" d="M177.58-472.09a10.8,10.8,0,0,1,7.71,3.52,18.21,18.21,0,0,1,4.67-.62,17,17,0,0,1,12.66,5.76c13.91,5.21,8.39,13.6,8.06,14.06l.16,0s8.16,5.7,5.36,8.49c0,0,5,6.25,1,9.61a4.32,4.32,0,0,1-1.46.73c11.44,17.82,18.26,49.27,13.76,75.2-.89,5.13-6.76,8.82-22.57,8.82h0a83.54,83.54,0,0,1-15.29-1.35c.15,1.21.32,2.52.5,3.83h0c.79,5.65,1.94,12.07,3.2,13,8.07,6.05,20.09,8.56,26.85,9.54l9.79.91a25.12,25.12,0,0,1,2.17,2.47h.11c2.94,0,5.27,3.22,5.27,3.22l38.58,67.55-33.3,59.75s11.18,18.78,5.59,27.28l7.71,7.71s1.23,4.14-4.36,4.14c-1.66,0-4-.88-6.48-2.11a424.39,424.39,0,0,1,1.55,43.77,43.25,43.25,0,0,0-4.51-.68l0,2.86h0c-.11,19.85,0,48.53,1.13,55.06,1.84,10.23,0,15.27,0,15.27s5,8.34,5,9,7,9.67,7,9.67S266.78-8.29,274-2.48h0s4.36,1.14,6.06,2.57a5.91,5.91,0,0,1,1.83,3.81c.49.32,1.28.87,2.2,1.53a23.75,23.75,0,0,0,6.3,1.17c1,1,0,2.08-1.3,3,.72.77,1.15,1.45,1,1.89-.47,1.74-7.22,8.84-19.41,8.84-.68,0-1.39,0-2.11-.07-12.8-.83-30.55-14.47-32-18.28a11.31,11.31,0,0,1,.18-7.66c0-3.23,2-7.11,3-9,1.68-3,2.85-11.57,2.85-11.57-18.45-64.74-7.88-2.59-9.89-7.29-1.36-3.16-14.07-50.54-22.23-81.15a22,22,0,0,1-4.21-2.48,131.52,131.52,0,0,1-22.14,8.77l-2.34,5.87-22,55.13s-4.17-55.92-9.11-51a218.57,218.57,0,0,1-12.25,35.39c-8.38,18.78-12.07,44.61-12.07,44.61s6,15.26,6.71,24.78c7.07,9.68,13.41,62.14,5,65.66a48.17,48.17,0,0,1-18.3,3.22c-10.15,0-19.25-2.38-21.36-4.5C95.11,67.29,104.78.94,104.78.94c.3-2.35,1-4.62,2.33-5.58,3.35-2.34,7.38-8,7.38-8s-1.26-3.35,2.26-7.88,8.72-33.57,8.72-37.37-4.7,39.06,11,27.88c0,0,1.79-36.31,6.38-62.58h0c.49-3,1-5.83,1.63-8.48-4.81.4-7.69.45-7.69.45s25.12-70.12,33.26-94c-2.07-4.16,1.18-6,2.15-6.49.12-.37.21-.67.27-.89,2-7.38-16.94-43.58-16.94-43.58l-16-10-11.1,51.31-7.54-2.84-10-15.47L92.72-277l-.53-.17a17.23,17.23,0,0,1-7.54-6.31,62.11,62.11,0,0,1-7.08.41h-.8a1.31,1.31,0,0,1-.71-.16,1.27,1.27,0,0,1-.42-.87,76.17,76.17,0,0,0-4.07-14.29,2.31,2.31,0,0,1-.23-1.26c.17-.77,1.07-1.12,1.85-1.19a4.83,4.83,0,0,0,2.28-.46c.87-.59,1.13-1.93,2.12-2.25a1.44,1.44,0,0,1,.5-.07c.46,0,1,.14,1.4.14a1.43,1.43,0,0,0,.58-.11c.81-.33,1-1.36,1.54-2,.79-1,2.18-1.11,3.41-1.36a23.91,23.91,0,0,0,6-2.4c.14-.07.3-.15.35-.3a.65.65,0,0,0,0-.34c-.92-4.29-2.86-8.58-3.78-12.88-.35-1.62-1.75-10.64-1.56-12.29s2-3.33,3.4-4.13a1.83,1.83,0,0,1,.86-.26,1,1,0,0,1,.41.09c.48.22.64.81.75,1.32,1,4.79,3.85,16.93,4.89,21.72.65,3.06,6.19,10.69,7.37,11.58,1.34,1,1.34,2,2.69,3.05a3.05,3.05,0,0,1,.92.94,3,3,0,0,1,.25,1.36l.2,8.1c.08,3.15,0,6.69-2.21,8.92h0L120-247.95l-.28-1c.14.25.26.5.39.76l.42-36.21s11.28-10.12,12.74-11.57c.94-.94,7.87-5,12.65-7.76h0c5-5,15.75-9,15.75-9s10.23-11.57,12.41-13.75,1.17-8.22,1.17-8.22l-5.6-21.52c-9.89-6.21-13.8-13.14-13.8-13.14a4.94,4.94,0,0,1-3.64,1.46c-3.26,0-6.53-2.46-6.53-2.46s-14.2-14.2-9.73-20.91a4.21,4.21,0,0,1,3.68-2c2.93,0,6.41,2.41,8.87,4.48-5-4.4-7.73-5-8.82-5l-.35,0-.08.06-.07,0-.1,0-.05-.1c-1.06-.53-5.81-3.14-6.22-7.56-8-2.51-6.48-7-6.48-7-7.71-5.25,0-13.7,0-13.7-3.43-3.44-.78-8.44-.78-8.44-4-5.7,1-12.74,1-12.74.56-6.15,9.78-9.79,9.78-9.79.73-3.07,4.53-4.53,4.53-4.53a6.71,6.71,0,0,1,6.2-3.82c.32,0,.51,0,.51,0,3.34-7.22,15.88-7.92,20.57-7.92,1.12,0,1.79,0,1.79,0a12.54,12.54,0,0,1,7.61-2.9m63.06,264.2,20.7-37.33-19.68-29.26c.53,8.4.85,17,.76,25.17a328.6,328.6,0,0,1-2.9,39.68,2.79,2.79,0,0,1,1.12,1.74M281.43,3.57h0M177.58-478.09h0a17.63,17.63,0,0,0-9.41,2.86c-6.83,0-18.26,1.16-24,8.22a12.41,12.41,0,0,0-7.48,4.91,13.71,13.71,0,0,0-4.88,4.64c-3.46,1.8-9.48,5.75-10.92,12-2.16,3.65-4.13,9.69-1.83,15.43a13.61,13.61,0,0,0,.2,7.67A16,16,0,0,0,117-412.7a12.47,12.47,0,0,0,3.4,7.18,10.63,10.63,0,0,0,.94,2.72,13.48,13.48,0,0,0,6.52,6,14.64,14.64,0,0,0,2.33,3.67c-2.34,4.83-1,11,4,18.31a67.89,67.89,0,0,0,7.26,8.8l.29.29.33.26c.82.61,5.14,3.67,10.15,3.67a11.91,11.91,0,0,0,1.59-.1,52.81,52.81,0,0,0,10.63,9.53l4.93,19a12.45,12.45,0,0,1,0,3.22c-2.39,2.49-8.72,9.62-11.25,12.48-3.29,1.32-11,4.72-15.84,9.19-11.64,6.71-12.58,7.65-13.28,8.34-1,1-8.18,7.48-12.49,11.35l-2,1.76,0,2.64-.09,7.75-2.17-5.19c1.62-3.53,1.52-7.35,1.46-9.69l-.14-5.4-.06-2.71a8.69,8.69,0,0,0-.94-4,8.5,8.5,0,0,0-2.47-2.83l-.11-.16a11.16,11.16,0,0,0-2.46-2.79c-1.34-1.44-4.88-6.65-5.4-8.33-.53-2.43-1.5-6.72-2.45-10.86s-1.91-8.43-2.42-10.79a7.38,7.38,0,0,0-4.09-5.5,6.9,6.9,0,0,0-2.94-.65,7.78,7.78,0,0,0-3.75,1c-2.84,1.57-6,4.68-6.48,8.73-.35,3.19,1.64,14.11,1.66,14.21a65.55,65.55,0,0,0,2.07,7.08c.18.54.35,1.07.52,1.59l-.48.11-.41.08a10.17,10.17,0,0,0-6.33,3.23,7,7,0,0,0-1.32.3,7.61,7.61,0,0,0-3.6,2.5,7.65,7.65,0,0,0-6.69,5.87,8,8,0,0,0,.52,4.69A70.81,70.81,0,0,1,69.74-283a7,7,0,0,0,2.91,4.73,7.09,7.09,0,0,0,4,1.22h.88c1.46,0,2.93-.05,4.4-.14a23.89,23.89,0,0,0,5.89,4.6l17.32,51.87.24.72.41.63,10,15.47,1.07,1.66,1.85.7,7.54,2.85,6.51,2.45,1.47-6.8,9.3-42.95,7.36,4.61c1.43,2.79,4.71,9.29,7.91,16.34,5.88,12.94,7.32,18.49,7.66,20.63a10.1,10.1,0,0,0-2.59,4,10.07,10.07,0,0,0-.23,5.85c-8.67,25.22-32.32,91.24-32.56,91.92l-2.93,8.18,8.69-.16h.21c0,.13,0,.26-.07.4l-.38,1,.1.65c-3.81,22.34-5.64,50.78-6.14,59.62-14,12.49-11.94-34.91-11.25-26.8.06.74.14,1.66.14,1.92-.1,4.22-5.09,29.84-7.51,33.75a16.1,16.1,0,0,0-3.7,9.79,28.23,28.23,0,0,1-4.59,4.84c-2.52,1.76-4.08,4.71-4.74,9-.69,1.89-2.68,7.44-4.38,13.34-3.61,12.55-3.69,58.73-.28,62.14,4.3,4.29,16.29,6.25,25.61,6.25a54.22,54.22,0,0,0,20.62-3.68,11.94,11.94,0,0,0,7.22-7.93c1.72-6.18-1.05-54.65-8.72-65.46-1-8.39-4.86-19.24-6.35-23.24.92-5.67,4.57-26.26,11.38-41.52a227,227,0,0,0,12.24-35c4.94-6.18,8.44,53.24,9.34,50l21.85-54.81,1.29-3.22a140.58,140.58,0,0,0,16.84-6.58c17.59,65.94,20.66,76.1,21.47,78.33-.05.47-.19,1.29-.3,2-1.28,7.63-4.24-45.86,9.82,3.93a40.25,40.25,0,0,1-2,8.26c-2.29,4.11-3.52,7.67-3.76,10.83a17,17,0,0,0,.17,11c1.93,5,11.29,11.34,14.11,13.16,4.84,3.1,14.26,48.9,23.11,49.48.83.06,1.68.08,2.5.08,14.37,0,23.91-49,25.2-53.78a6.4,6.4,0,0,0,.2-2.49,7.47,7.47,0,0,0,.65-2.36,7.22,7.22,0,0,0-2.13-5.81L293,.71l-2.34-.1A19.9,19.9,0,0,1,287.15.1a11,11,0,0,0-3.21-4.61,21.75,21.75,0,0,0-7.11-3.41c-6-4.78-13-10.35-15.08-12-2.06-2.67-4.35-5.7-5.43-7.24-.27-4.49-1.26,50.89-4.88-6.49.62-2.55,1.44-8.16-.15-17-.37-2.08-1.2-11-1.06-49.44l4.38,1.39.18-8c0-.81.38-17.51-.86-35.8,4.73-.06,7.25-2.11,8.53-3.83a9.23,9.23,0,0,0,1.38-8l-.43-1.46-1.07-1.07-4.93-4.93c2.11-8.89-2.78-20.11-5.76-25.82l31.68-56.83,1.65-3-1.68-2.94-38.58-67.54-.16-.28-.19-.25a14.74,14.74,0,0,0-7-5.25c-.36-.4-.74-.79-1.13-1.18l-1.53-1.53-2.15-.2-9.64-.9c-5.73-.84-16-2.93-23-7.68a48,48,0,0,1-1.23-5.75c2.7.23,5.46.35,8.25.35,6.47,0,26.1,0,28.5-13.79,4.18-24.07-.85-54.67-12-75.08,2.26-3.8,1.53-8.48-.63-12.41a6.78,6.78,0,0,0,0-1.19c-.28-3.27-2.56-6.22-4.93-8.45a13,13,0,0,0-.39-6.32c-1.44-4.59-5.25-8.21-11.33-10.77A22.9,22.9,0,0,0,190-475.19a22.7,22.7,0,0,0-3,.19,16.16,16.16,0,0,0-9.43-3.09Zm70.26,244.86c.29-4.92.52-10.33.58-16,0-1.43,0-2.9,0-4.41l5.89,8.75-6.48,11.68Z"/></g><path class="cls-5" d="M178.24,158.07c93.47.11,169.21,76.64,169.31,171.09s-75.8,171.09-169.31,171.09S8.92,423.65,8.92,329.16,84.73,158.07,178.24,158.07m0-8h0a174.65,174.65,0,0,0-69.05,14.09,176.51,176.51,0,0,0-56.36,38.39,180.11,180.11,0,0,0,0,253.22,176.51,176.51,0,0,0,56.36,38.39,176.24,176.24,0,0,0,138.1,0,176.51,176.51,0,0,0,56.36-38.39,180,180,0,0,0-.06-253.16,176.68,176.68,0,0,0-56.33-38.4,174.89,174.89,0,0,0-69-14.14Z"/><path class="cls-6" d="M178.24,158.07c-93.52,0-169.32,76.6-169.32,171.09s75.8,171.09,169.32,171.09,169.31-76.6,169.31-171.09S271.7,158.18,178.24,158.07Zm0,330.78c-87.28,0-158-71.5-158-159.69S91,169.47,178.24,169.47s158,71.5,158,159.69S265.47,488.75,178.24,488.85Z"/><path class="cls-6" d="M258.14,204.88a5.59,5.59,0,0,0-7.81,1.66l-9.23,14.34a5.72,5.72,0,0,0,1.79,8,74.63,74.63,0,0,1,6.33,4.56c1.27,1,2.54,2,3.53,2.67,1.76,1.46,3.44,3,5.11,4.55l-3.9,3.94a112.35,112.35,0,0,0-24.74-17.13l11.54-26.16a5.73,5.73,0,0,0,.11-4.36,5.64,5.64,0,0,0-3-3.17,146.3,146.3,0,0,0-52-12.52,5.61,5.61,0,0,0-4.08,1.46,5.69,5.69,0,0,0-1.85,3.94l-.87,17.09a5.68,5.68,0,0,0,5.33,6l5.94.3,6.33,1c.81.14,1.63.26,2.44.37,1.22.18,2.45.35,3.52.6l.77.2-1.48,5.59a114.09,114.09,0,0,0-29.89-2.45l-2.93-28.53a5.66,5.66,0,0,0-2.06-3.84,5.56,5.56,0,0,0-4.14-1.25,144.5,144.5,0,0,0-51.29,15.44,5.73,5.73,0,0,0-2.45,7.67l7.7,15.24a5.63,5.63,0,0,0,7.4,2.59c1.13-.53,2.26-1.09,3.38-1.65a58.2,58.2,0,0,1,8.07-3.5l1.44-.55c1.7-.63,3.35-1.25,5-1.8l1.46,5.52c-1.39.47-2.74,1-4.08,1.48l-1.34.51a53.38,53.38,0,0,0-8,3.44c-1,.48-1.93,1-3.39,1.66l-9.56,5.57-.66.37L99.93,210.57a5.58,5.58,0,0,0-7.88-1.26,147.58,147.58,0,0,0-36.81,39.11,5.73,5.73,0,0,0,1.65,7.9l14.2,9.33a5.58,5.58,0,0,0,4.32.78,5.66,5.66,0,0,0,3.57-2.6,76.37,76.37,0,0,1,4.5-6.38c1-1.29,2-2.59,2.65-3.59,1.44-1.77,3-3.47,4.5-5.16l3.9,4a113.2,113.2,0,0,0-16.94,25L51.7,266a5.63,5.63,0,0,0-7.46,2.89,150.26,150.26,0,0,0-12.39,52.56,5.69,5.69,0,0,0,5.35,6l16.91.88a5.56,5.56,0,0,0,4.07-1.44A5.7,5.7,0,0,0,60,322.91l.29-6,1-6.4c.15-.82.26-1.65.38-2.47.18-1.24.35-2.47.59-3.54l.2-.79,5.53,1.5a116.87,116.87,0,0,0-2.43,30.2l-28.23,3a5.65,5.65,0,0,0-3.8,2.08,5.76,5.76,0,0,0-1.23,4.19,149.8,149.8,0,0,0,15.28,51.82,5.6,5.6,0,0,0,7.59,2.48l15.08-7.78a5.74,5.74,0,0,0,2.55-7.48c-.52-1.13-1.07-2.24-1.61-3.36a59.16,59.16,0,0,1-3.48-8.2l-.56-1.51c-.62-1.69-1.23-3.35-1.77-5l5.53-1.49A113.47,113.47,0,0,0,83.8,391.43L60.87,408.29a5.72,5.72,0,0,0-1.24,8,147.35,147.35,0,0,0,38.7,37.19,5.59,5.59,0,0,0,7.81-1.66l9.24-14.34a5.76,5.76,0,0,0,.77-4.38,5.7,5.7,0,0,0-2.56-3.6,74.79,74.79,0,0,1-6.34-4.56c-1.27-1-2.54-2-3.53-2.67-1.75-1.46-3.43-3-5.11-4.54l4-4c1.51,1.4,3.06,2.81,4.94,4.36,1.11.78,2.18,1.62,3.24,2.45a67.54,67.54,0,0,0,6.29,4.47l10.08,5.85.12.05L115.71,457a5.73,5.73,0,0,0-.11,4.36,5.61,5.61,0,0,0,3,3.17,146.35,146.35,0,0,0,52,12.52h.29a5.7,5.7,0,0,0,5.64-5.41l.87-17.09a5.68,5.68,0,0,0-5.33-6l-5.94-.3-6.33-1c-.81-.14-1.63-.25-2.43-.37-1.23-.18-2.45-.35-3.52-.6l-.78-.2,1.48-5.59A114.16,114.16,0,0,0,184.42,443l2.93,28.53a5.78,5.78,0,0,0,2.06,3.85,5.63,5.63,0,0,0,4.15,1.24,144.31,144.31,0,0,0,51.28-15.44,5.74,5.74,0,0,0,2.46-7.67l-7.7-15.24a5.63,5.63,0,0,0-7.4-2.58c-1.13.53-2.26,1.09-3.39,1.64a57.62,57.62,0,0,1-8.06,3.51l-1.44.54c-1.7.63-3.35,1.25-5,1.81l-1.48-5.59a111.28,111.28,0,0,0,27-13l16.69,23.18a5.61,5.61,0,0,0,7.88,1.25,147.59,147.59,0,0,0,36.81-39.11,5.78,5.78,0,0,0,.79-4.29,5.68,5.68,0,0,0-2.45-3.6l-14.19-9.34a5.61,5.61,0,0,0-4.33-.78,5.69,5.69,0,0,0-3.57,2.6,72.47,72.47,0,0,1-4.49,6.38c-1,1.29-2,2.59-2.65,3.59-1.45,1.77-3,3.47-4.5,5.16l-3.91-3.95a113.58,113.58,0,0,0,16.95-25l25.89,11.66a5.63,5.63,0,0,0,7.46-2.89,150.25,150.25,0,0,0,12.38-52.56,5.68,5.68,0,0,0-5.35-6L302.36,330a5.71,5.71,0,0,0-5.92,5.38l-.3,6-1,6.39c-.15.82-.26,1.65-.38,2.48-.17,1.23-.34,2.47-.59,3.53l-.19.79-5.44-1.47,0-.14c.31-1.33.5-2.68.69-4,.09-.63.17-1.26.29-2l.86-5.6a5.93,5.93,0,0,0,.07-.59l.29-6V323.19l0-.26,28.35-3a5.65,5.65,0,0,0,3.8-2.08,5.8,5.8,0,0,0,1.23-4.19,150.08,150.08,0,0,0-15.28-51.82,5.62,5.62,0,0,0-7.59-2.48l-15.08,7.78a5.73,5.73,0,0,0-2.55,7.48c.52,1.13,1.06,2.25,1.6,3.37a57.41,57.41,0,0,1,3.49,8.19l.55,1.51c.63,1.7,1.24,3.35,1.78,5l-5.53,1.5a113.71,113.71,0,0,0-12.89-27.3L295.6,250a5.73,5.73,0,0,0,1.25-8A147.39,147.39,0,0,0,258.14,204.88Zm3.44,56.06a5.75,5.75,0,0,0-1.24,8,102.24,102.24,0,0,1,15.91,33.7,5.66,5.66,0,0,0,6.91,4l16.35-4.41a5.72,5.72,0,0,0,4.07-6.71,85,85,0,0,0-3.68-11.78l-.46-1.22a57.88,57.88,0,0,0-3.16-7.74l5-2.59a139.24,139.24,0,0,1,10.93,37l-27.95,2.93a5.7,5.7,0,0,0-5.05,6l.29,5.53v10.9l-.27,5.38-.81,5.23c-.13.75-.23,1.5-.34,2.25-.14,1-.27,2-.46,2.87l-1.41,5.49a5.71,5.71,0,0,0,4,6.94l16.36,4.42a5.59,5.59,0,0,0,4.3-.59,5.73,5.73,0,0,0,2.62-3.5l1.65-6.51c.35-1.52.57-3.06.79-4.61.11-.73.21-1.46.35-2.28l1-7.05,0-.87,5.54.29a139.69,139.69,0,0,1-8.83,37.55L278.44,368a5.58,5.58,0,0,0-4.32-.12,5.65,5.65,0,0,0-3.13,3,102.41,102.41,0,0,1-20.93,30.87,5.74,5.74,0,0,0,0,8.05l12,12.1a5.5,5.5,0,0,0,4.15,1.67,5.67,5.67,0,0,0,4.06-1.91c1-1.15,2-2.27,3.05-3.4,2-2.15,3.91-4.3,6-6.86.86-1.22,1.76-2.42,2.66-3.61.63-.83,1.27-1.67,1.9-2.53l4.74,3.12a136.07,136.07,0,0,1-26.31,27.95l-16.55-23a5.65,5.65,0,0,0-3.68-2.28,5.58,5.58,0,0,0-4.2,1,100,100,0,0,1-33.34,16.08,5.61,5.61,0,0,0-3.43,2.65,5.7,5.7,0,0,0-.57,4.33l4.38,16.53a5.63,5.63,0,0,0,6.63,4.11,83.82,83.82,0,0,0,11.7-3.74l1.17-.44a57.49,57.49,0,0,0,7.65-3.2l2.57,5.08A135.66,135.66,0,0,1,198,464.57l-2.89-28.24a5.72,5.72,0,0,0-2-3.84,5.61,5.61,0,0,0-4.13-1.25,102.62,102.62,0,0,1-37-3,5.63,5.63,0,0,0-4.28.57,5.72,5.72,0,0,0-2.63,3.47l-4.38,16.53a5.8,5.8,0,0,0,.58,4.35,5.63,5.63,0,0,0,3.47,2.64l6.43,1.67c1.51.36,3,.58,4.58.81.72.1,1.43.21,2.25.35l7,1,.87.05-.29,5.6a135.66,135.66,0,0,1-37.16-8.93l11.44-25.93a5.73,5.73,0,0,0-2.7-7.46l-4.69-2.26-9.62-5.59a54.92,54.92,0,0,1-5.14-3.71c-1.2-.92-2.4-1.85-3.27-2.45-1.63-1.35-3.19-2.8-4.75-4.25-1.16-1.08-2.33-2.16-3.52-3.21a5.6,5.6,0,0,0-7.7.27l-12,12.09a5.72,5.72,0,0,0,.24,8.29q1.66,1.51,3.31,3.05c2.15,2,4.29,4,6.84,6.09,1.21.87,2.38,1.78,3.56,2.69.83.63,1.66,1.28,2.52,1.92l-3.09,4.79A135.85,135.85,0,0,1,72.17,414.1l22.72-16.71a5.74,5.74,0,0,0,1.25-8,102.14,102.14,0,0,1-15.91-33.7,5.65,5.65,0,0,0-6.91-4L57,356.1a5.72,5.72,0,0,0-4.06,6.71,85,85,0,0,0,3.68,11.78l.45,1.22a57.93,57.93,0,0,0,3.17,7.74l-5,2.59a138.51,138.51,0,0,1-10.93-37l27.94-2.94a5.67,5.67,0,0,0,5-6.22,105.67,105.67,0,0,1,3-37.35,5.74,5.74,0,0,0-.56-4.33,5.65,5.65,0,0,0-3.43-2.66L59.87,291.2a5.58,5.58,0,0,0-4.3.59,5.69,5.69,0,0,0-2.62,3.5l-1.66,6.51c-.34,1.52-.57,3.06-.79,4.61-.11.73-.2,1.46-.34,2.28l-1,7.05,0,.87-5.54-.29a139.7,139.7,0,0,1,8.84-37.55L78,290.34a5.65,5.65,0,0,0,4.33.11,5.72,5.72,0,0,0,3.13-3,102.22,102.22,0,0,1,20.92-30.86,5.76,5.76,0,0,0,0-8.06l-12-12.1a5.6,5.6,0,0,0-8.21.24q-1.52,1.72-3.06,3.4c-2,2.15-3.91,4.3-6,6.86-.86,1.23-1.77,2.42-2.67,3.62-.63.83-1.26,1.66-1.89,2.52l-4.74-3.12a136.26,136.26,0,0,1,26.3-28l16.55,23a5.6,5.6,0,0,0,3.69,2.28,5.54,5.54,0,0,0,4.2-1l1.31-1a21,21,0,0,1,2.77-1.91l9.24-5.4c1.08-.5,2.16-1,3.23-1.57a44.41,44.41,0,0,1,6.61-2.86l1.68-.63a56,56,0,0,1,8.18-2.62,5.62,5.62,0,0,0,3.66-2.59,5.75,5.75,0,0,0,.65-4.47l-4.38-16.53a5.65,5.65,0,0,0-6.63-4.1,82.48,82.48,0,0,0-11.7,3.73l-1.17.45a57.49,57.49,0,0,0-7.65,3.2l-2.57-5.09a135.64,135.64,0,0,1,36.64-11L161.38,222a5.75,5.75,0,0,0,2,3.85,5.59,5.59,0,0,0,4.14,1.24,103.07,103.07,0,0,1,37,3,5.58,5.58,0,0,0,4.28-.57,5.7,5.7,0,0,0,2.63-3.46l4.38-16.53a5.75,5.75,0,0,0-.58-4.35,5.64,5.64,0,0,0-3.47-2.65l-6.42-1.67c-1.52-.35-3.05-.58-4.59-.81-.71-.1-1.43-.2-2.24-.34l-7-1.05-.88-.05.29-5.6A135.66,135.66,0,0,1,228.1,202L216.66,227.9a5.75,5.75,0,0,0-.11,4.37,5.66,5.66,0,0,0,3,3.17,101.38,101.38,0,0,1,30.56,21.14,5.6,5.6,0,0,0,8,0l12-12.09a5.75,5.75,0,0,0-.24-8.3c-1.12-1-2.22-2-3.32-3-2.14-2-4.29-4-6.84-6.09-1.21-.87-2.38-1.78-3.56-2.69-.82-.64-1.66-1.28-2.51-1.92l3.08-4.79a135.59,135.59,0,0,1,27.66,26.58Z"/><path class="cls-6" d="M178.24,237.91a90,90,0,0,0-78.36,45.77,91.89,91.89,0,0,0,.48,91.45,5.73,5.73,0,0,0,.35.59,91.51,91.51,0,0,0,23,26c.14.11.23.26.38.34s.08,0,.12,0a88.85,88.85,0,0,0,108,0,.84.84,0,0,0,.14-.06c.16-.08.25-.24.39-.34a91.47,91.47,0,0,0,23-26,4.36,4.36,0,0,0,.35-.59,91.9,91.9,0,0,0,.49-91.45A90,90,0,0,0,178.24,237.91Zm-10.18,12.15L105.42,360.15a80.48,80.48,0,0,1,4.31-70.74A78.89,78.89,0,0,1,168.06,250.06ZM134.37,395.52l43.87-77,43.86,77a78.09,78.09,0,0,1-87.73,0Zm96.69-7.15-45.48-79.88a8.43,8.43,0,0,0-14.69,0l-45.47,79.88A79.78,79.78,0,0,1,111.68,372l66.56-117,12.91,22.62c.08.17.16.35.25.51L244.79,372a79.94,79.94,0,0,1-13.73,16.34Zm20-28.22-49.6-87.21c-.08-.18-.17-.35-.26-.52l-12.76-22.36a78.92,78.92,0,0,1,58.31,39.36,80.51,80.51,0,0,1,4.32,70.72Z"/><path class="cls-7" d="M597.1,33.42c-131.18,0-239,88.6-251.44,202L271,265.12s-4.89,1.81-4.4,8.81a9.51,9.51,0,0,0,5.58,8.16l78.16,23.46C375.24,406,476.25,481.23,597.1,481.23c139.53,0,252.64-100.25,252.64-223.91S736.63,33.42,597.1,33.42Z"/><path class="cls-8" d="M597.06.25c-131.18,0-239,88.61-251.44,202L271,232s-4.89,1.81-4.4,8.81a9.52,9.52,0,0,0,5.58,8.16l78.17,23.46c24.89,100.48,125.9,175.68,246.75,175.68,139.53,0,252.64-100.25,252.64-223.9S736.59.25,597.06.25Z"/><g class="cls-9"><path class="cls-4" d="M158.91,260.94l6.37,24.48s1,6-1.17,8.22-12.41,13.75-12.41,13.75L146,318.63l33,18.79,39.42-10.57-1.18-27.67s-20.18-1.29-32-10.12c-2.31-1.74-4.27-21.92-4.27-21.92Z"/><path class="cls-10" d="M182.13,276C181.51,271.53,181,267,181,267l-22.13-6.2,1.77,6.81s6.93,4.52,9.09,5.47A42.15,42.15,0,0,0,182.13,276Z"/><path class="cls-4" d="M140.54,313.74s-15.79,8.92-17.24,10.37-12.74,11.57-12.74,11.57l-.43,36.66L95.47,337.42l-12.75,5.64,18.15,54.36,10,15.47,7.54,2.85,11.1-51.31,16,10,19.62-14.34L151,325l-6-13.19Z"/><path class="cls-4" d="M82.19,342.89a17.23,17.23,0,0,1-7.54-6.31,61,61,0,0,1-7.88.41,1,1,0,0,1-1.13-1,76.39,76.39,0,0,0-4.07-14.29,2.29,2.29,0,0,1-.23-1.25c.17-.77,1.07-1.13,1.85-1.2a4.6,4.6,0,0,0,2.28-.46c.87-.59,1.13-1.93,2.12-2.25.8-.26,1.71.28,2.48,0s1-1.37,1.54-2.05c.79-1,2.18-1.1,3.41-1.35a23.91,23.91,0,0,0,6-2.4.63.63,0,0,0,.35-.31.66.66,0,0,0,0-.34c-.92-4.29-2.86-8.58-3.78-12.87-.35-1.63-1.75-10.65-1.56-12.3s2-3.33,3.4-4.13a1.45,1.45,0,0,1,1.27-.17c.48.22.64.81.75,1.33,1,4.78,3.85,16.93,4.89,21.71.65,3.06,6.19,10.69,7.37,11.58,1.34,1,1.34,2,2.69,3.05a3.05,3.05,0,0,1,.92.94,3,3,0,0,1,.25,1.36l.2,8.1c.08,3.16,0,6.69-2.21,8.93Z"/><path class="cls-10" d="M93.19,314.58c-1.62-.44-3.2-1.49-5-1.19a11,11,0,0,0-4,2.09c-3.58,2.44-6.13,6.17-10,8.2A1.52,1.52,0,0,0,74,326c2.16,2.11,5.32,4.61,8.54,3.89a9.93,9.93,0,0,0,6.68-6.24l-2.2.9a12.9,12.9,0,0,0,3.25,1.74c1.81.7,2.56-2.18.8-2.89-6.13-2.47-8.66,5.54-6.58,9.94.83,1.74,3.42.22,2.59-1.52-1-2.13-.42-7,3.19-5.53l.8-2.89A7.56,7.56,0,0,1,88.49,322c-.85-.64-1.9.09-2.21.89-1,2.53-2.62,3.64-5.19,3.51-2.36-.12-3.32-.83-5-2.49l-.3,2.36c2.71-1.44,4.66-3.61,6.88-5.69a25.59,25.59,0,0,1,4-3.11c1.9-1.18,3.71-.56,5.75,0a1.5,1.5,0,0,0,.8-2.89Z"/><path class="cls-10" d="M80.59,320.54l-.73-3.67-2.89.8a4.09,4.09,0,0,0,2.28,2.79,1.54,1.54,0,0,0,2-.54,1.51,1.51,0,0,0-.54-2.05,1.36,1.36,0,0,1-.9-1A1.52,1.52,0,0,0,78,315.82a1.53,1.53,0,0,0-1,1.85l.72,3.66a1.52,1.52,0,0,0,1.85,1.05,1.54,1.54,0,0,0,1-1.84Z"/><path class="cls-4" d="M145.88,250.76s12.81,22.8,51,22.81c15.82,0,21.7-3.69,22.59-8.83,5.6-32.27-6.32-73.08-22.87-85.53-14.5-10.93-66,30.41-66,30.41l10.95,24.6s-11.18-12.08-15.65-5.37,9.73,20.91,9.73,20.91S142.08,254.57,145.88,250.76Z"/><path class="cls-4" d="M222.29,302.48c3.81-2,7.22,2.72,7.22,2.72l38.58,67.55-33.3,59.75s11.18,18.78,5.59,27.28l7.71,7.71s1.23,4.14-4.36,4.14S225,461.79,225,461.79l1.53-42.12,24.86-44.83-22.83-34-7.14-6.33S215.2,306.23,222.29,302.48Z"/><path class="cls-4" d="M182.22,491.52l-32.31,81s-4.17-55.92-9.11-51A218.57,218.57,0,0,1,128.55,557c-8.38,18.78-12.07,44.61-12.07,44.61s7.63,19.37,6.71,28.09c0,0,7.29,50.58,4.36,56.37s-14.43,2.35-14.43,2.35-19.2,2.51-22.05-2.27S94.67,628,94.67,628s-.92-10.24,2.44-12.58,7.38-8,7.38-8-1.26-3.36,2.26-7.89,8.72-33.57,8.72-37.37-4.7,39.06,11,27.88c0,0,3.8-77.15,14.53-87.88S182.22,485,182.22,485Z"/><path class="cls-11" d="M182.22,491.52l-10.33,25.91S157.6,523.81,154,524.7c-2.68.66-21.82,6.57-21.17,2.71,2-12.06,4.78-21.93,8.15-25.3C151.7,491.38,182.22,485,182.22,485Z"/><path class="cls-4" d="M193.74,479.52s27,102.2,29.07,106.89-8.56-57.45,9.89,7.29c0,0-1.17,8.55-2.85,11.57s-5.53,10.73-.67,13.42,20.63,16.1,27.34,17.27,19.28-4.69,19.28-4.69,6.71-2.52,4.62-4.62c0,0-6.13-.25-8.14-2.26s-24.82-20-24.82-20-7-9-7-9.67-5-9-5-9,1.84-5,0-15.26-1-74.69-1-74.69Z"/><path class="cls-11" d="M193.74,479.52s6.36,24,8.25,31.05c.73,2.71,32.27,4.9,32.27,4.9l.17-19.62Z"/><path class="cls-12" d="M193.74,499.76c5.23,10.38,42,12.57,45.06,13.53,0,0,.95-41.66-4.92-65.06S193.74,499.76,193.74,499.76Z"/><path class="cls-13" d="M149,241.6c6.49,2.68.9-8.95.9-8.95S149.29,221,146,219a46.92,46.92,0,0,1-7.19-5.88l61.87-42.42s6.26-8.72-8-14.09a17,17,0,0,0-17.33-5.14S169,144,160,150.86c0,0-18.22-1.06-22.36,7.89a6.8,6.8,0,0,0-6.71,3.8s-3.8,1.45-4.53,4.53c0,0-9.22,3.63-9.78,9.78,0,0-5,7-1,12.74,0,0-2.65,5,.78,8.45,0,0-7.71,8.44,0,13.69,0,0-1.9,5.48,9.4,7.72l3.35,6.93s3.23-1.47,12.52,7.83S149,241.6,149,241.6Z"/><path class="cls-10" d="M194.07,241.53a1.5,1.5,0,0,1,0-3c2.79,0,10.45-2.45,14.28-3.78-1.26-12-8.89-20.95-13.43-25.29a1.5,1.5,0,0,1,2.07-2.17c5,4.77,13.51,14.8,14.45,28.39l.08,1.13-1.07.38C209.22,237.64,198.24,241.53,194.07,241.53Z"/><ellipse class="cls-14" cx="174.13" cy="217.51" rx="3.01" ry="4.11" transform="translate(-47.75 48.99) rotate(-14.1)"/><path class="cls-14" d="M169.51,216h-.07a1.49,1.49,0,0,1-1.43-1.56c0-.22.27-5.41,3.8-7.31,2.23-1.21,5.08-.8,8.47,1.22a1.5,1.5,0,0,1-1.53,2.58c-1.66-1-4-2-5.51-1.17-1.69.91-2.19,3.78-2.24,4.81A1.49,1.49,0,0,1,169.51,216Z"/><ellipse class="cls-14" cx="202.01" cy="209.09" rx="3.01" ry="4.11" transform="translate(-44.86 55.53) rotate(-14.1)"/><path class="cls-14" d="M196.61,207.09a1.39,1.39,0,0,1-.4-.06,1.5,1.5,0,0,1-1.05-1.84c.06-.21,1.48-5.21,5.34-6.28,2.45-.67,5.14.36,8,3.09a1.5,1.5,0,1,1-2.07,2.17c-1.4-1.34-3.43-2.84-5.11-2.37-1.85.51-3,3.2-3.25,4.19A1.52,1.52,0,0,1,196.61,207.09Z"/><path class="cls-15" d="M181,246.17c-.37-.39,22.15,1.41,30.75-4.92,0,0,1.7,17.13-6,19C197.85,262.18,188.73,259,181,246.17Z"/><g class="cls-16"><path class="cls-17" d="M179.51,248.86s21.07,6,30.44-3.35l-1.18-4.26-30.87,2.08Z"/><path class="cls-18" d="M183.23,256.58S190,250,200.78,254.4s0,12.24,0,12.24Z"/></g><path class="cls-10" d="M201.13,261.88c-12.5,0-20.92-15-21-15.23l-.86-1.57,1.79.09c.21,0,21,1,30.16-4.77a1,1,0,0,1,1.38.31,1,1,0,0,1-.31,1.38c-8.13,5.13-24,5.26-29.45,5.14,2.93,4.44,12.28,16.56,24.23,11.36a1,1,0,1,1,.8,1.83A16.7,16.7,0,0,1,201.13,261.88Z"/><path class="cls-10" d="M141.13,248.19s-.33-14.67-11.66-18.19"/><path class="cls-10" d="M129.49,364.43s9.67-13,8.4-11c-7.09,11,18.13,23.61,24,16.86,0,0-5.87,7.49-16.44,4.16Z"/><path class="cls-19" d="M151.7,307.39s-10.75,4-15.75,9c0,0,30.11,43.67,9.54,58.1,0,0,18.95,36.2,16.94,43.58s-35.68,101.36-35.68,101.36,104-1.85,107.68-69.83l-4.91-39.13a328.66,328.66,0,0,0,2.9-39.69c.22-19.1-1.87-41.05-3.41-56a24.19,24.19,0,0,0-7-15.2l-9.79-.91S219.89,324.5,202,327C192.37,328.28,169.14,331.39,151.7,307.39Z"/><g class="cls-20"><path class="cls-21" d="M130.62,521.93s104-1.85,107.69-69.83Z"/></g><path class="cls-19" d="M151.7,307.39s-10.75,4-15.75,9c0,0,30.11,43.67,9.54,58.1,0,0,18.95,36.2,16.94,43.58s-35.68,101.36-35.68,101.36,104-1.85,107.68-69.83l-4.91-39.13a328.66,328.66,0,0,0,2.9-39.69c.22-19.1-1.87-41.05-3.41-56a24.19,24.19,0,0,0-7-15.2l-9.79-.91S219.89,324.5,202,327C192.37,328.28,169.14,331.39,151.7,307.39Z"/><path class="cls-3" d="M160.12,425.63s54.82,7.3,70-10.14c0,0,1.66-3.44-.63-5.06.32,3.22-25.76,17.26-67.09,8.38C162.43,418.81,157.44,420.6,160.12,425.63Z"/><circle class="cls-22" cx="205.66" cy="422.99" r="12.79"/><g class="cls-23"><path class="cls-24" d="M144.94,175.63s-5.49,6.65,1.47,11.1c2.44,1.55-7.21,9.05-7.21,9.05l-3.9,21.89s5-2,8.39-2l17.65,20.23L150,242.94,113.91,218.6l-24-46.44,31-28.12,33.88-7.88-6,11.8s-14.38,8.79-8.89,15.12C136.43,165.5,135.76,175,144.94,175.63Z"/></g><path class="cls-25" d="M129.28,226.39s-6.49-2.91-6.49-8.27,25.27-56.13,78.05-47.41c0,0,8.16,5.7,5.36,8.5,0,0,5,6.25,1,9.6S183.62,187.25,129.28,226.39Z"/><path class="cls-26" d="M132.13,214.55S165.9,173.39,202,178.76C202,178.76,168.36,180.56,132.13,214.55Z"/><path class="cls-27" d="M207,433c-1.9,0-5.95-.37-8.6-3.32-2.29-2.56-2.92-6.32-1.88-11.19a1.5,1.5,0,0,1,2.94.63c-.84,3.88-.44,6.75,1.17,8.55,2.43,2.71,7.06,2.31,7.1,2.31a1.5,1.5,0,1,1,.31,3A10,10,0,0,1,207,433Z"/><path class="cls-28" d="M213.38,428.65a1.22,1.22,0,0,1-.32,0,1.5,1.5,0,0,1-1.14-1.79c.86-3.86.48-6.74-1.13-8.55-2.41-2.72-7-2.35-7.08-2.35a1.5,1.5,0,1,1-.29-3c.24,0,6.16-.56,9.62,3.34,2.28,2.57,2.88,6.33,1.81,11.19A1.51,1.51,0,0,1,213.38,428.65Z"/><path class="cls-10" d="M75.16,337.45a3.41,3.41,0,0,0,.07-5.84c-1.35-1-3.1,1.25-1.82,2.36,1.47,1.27,3.17,2.53,5.23,2.13A4.3,4.3,0,0,0,82,332.65l-2.2.9a4.92,4.92,0,0,0,5,.16c1.73-.87.21-3.46-1.51-2.59a1.85,1.85,0,0,1-2-.16,1.51,1.51,0,0,0-2.2.9c-.46,2.31-2.51.92-3.59,0l-1.82,2.35-.06.66c-1.57,1.09-.08,3.69,1.51,2.59Z"/><path class="cls-10" d="M66.41,317.29q1.11,5.13,2.44,10.18a1.5,1.5,0,0,0,2.89-.79q-1.33-5.07-2.44-10.18c-.41-1.89-3.3-1.09-2.89.79Z"/><path class="cls-10" d="M108.45,371.89A31.53,31.53,0,0,1,112,384.32c.15,1.91,3.15,1.93,3,0a35.56,35.56,0,0,0-4-13.95c-.9-1.71-3.49-.19-2.6,1.52Z"/><path class="cls-5" d="M167.58,148a10.8,10.8,0,0,1,7.71,3.52,18.66,18.66,0,0,1,4.67-.62,17,17,0,0,1,12.66,5.76c13.91,5.22,8.39,13.6,8.06,14.07l.16,0s8.16,5.7,5.36,8.5c0,0,5,6.25,1,9.6a4.52,4.52,0,0,1-1.46.74c11.44,17.81,18.26,49.26,13.76,75.19-.89,5.14-6.76,8.83-22.57,8.83h0a83.49,83.49,0,0,1-15.29-1.36c.15,1.21.32,2.52.5,3.83h0c.79,5.65,1.94,12.07,3.2,13,8.07,6.05,20.09,8.56,26.85,9.54l9.79.91a25.12,25.12,0,0,1,2.17,2.47h.11c2.94,0,5.27,3.22,5.27,3.22l38.58,67.55-33.3,59.75s11.18,18.78,5.59,27.28l7.71,7.71s1.23,4.14-4.36,4.14c-1.66,0-4-.88-6.48-2.11a424.39,424.39,0,0,1,1.55,43.77,44.39,44.39,0,0,0-4.51-.67l0,2.85h0c-.11,19.85,0,48.53,1.13,55.07,1.84,10.23,0,15.26,0,15.26s5,8.35,5,9,7,9.67,7,9.67,9.32,7.33,16.57,13.15h0s4.36,1.14,6.06,2.56a5.93,5.93,0,0,1,1.83,3.81c.49.33,1.28.87,2.2,1.53a23.31,23.31,0,0,0,6.3,1.17c1,1,0,2.08-1.3,3,.72.78,1.15,1.45,1,1.89-.47,1.75-7.22,8.85-19.41,8.85-.68,0-1.39,0-2.11-.07-12.8-.84-30.55-14.48-32-18.28a11.29,11.29,0,0,1,.18-7.66c0-3.24,2-7.12,3-9.06,1.68-3,2.85-11.57,2.85-11.57-18.45-64.74-7.88-2.59-9.89-7.29-1.36-3.16-14.07-50.54-22.23-81.14a22,22,0,0,1-4.21-2.49,131.52,131.52,0,0,1-22.14,8.77l-2.34,5.88-22,55.12s-4.17-55.92-9.11-51A218.57,218.57,0,0,1,128.55,557c-8.38,18.78-12.07,44.61-12.07,44.61s6,15.26,6.71,24.79c7.07,9.67,13.41,62.13,5,65.65a48.17,48.17,0,0,1-18.3,3.22c-10.15,0-19.25-2.38-21.36-4.5-3.41-3.4,6.26-69.75,6.26-69.75.3-2.35,1-4.62,2.33-5.57,3.35-2.35,7.38-8,7.38-8s-1.26-3.36,2.26-7.89,8.72-33.57,8.72-37.37-4.7,39.06,11,27.88c0,0,1.79-36.31,6.38-62.58h0c.49-3,1-5.83,1.63-8.47-4.81.39-7.69.45-7.69.45s25.12-70.13,33.26-94c-2.07-4.16,1.18-6,2.15-6.48q.18-.57.27-.9c2-7.38-16.94-43.58-16.94-43.58l-16-10-11.1,51.31-7.54-2.85-10-15.47L82.72,343.06l-.53-.17a17.23,17.23,0,0,1-7.54-6.31,59.9,59.9,0,0,1-7.08.41h-.8a1,1,0,0,1-1.13-1,76.39,76.39,0,0,0-4.07-14.29,2.29,2.29,0,0,1-.23-1.25c.17-.77,1.07-1.13,1.85-1.2a4.6,4.6,0,0,0,2.28-.46c.87-.59,1.13-1.93,2.12-2.25a1.73,1.73,0,0,1,.5-.07c.46,0,1,.14,1.4.14a1.61,1.61,0,0,0,.58-.1c.81-.34,1-1.37,1.54-2.05.79-1,2.18-1.1,3.41-1.35a23.91,23.91,0,0,0,6-2.4.63.63,0,0,0,.35-.31.66.66,0,0,0,0-.34c-.92-4.29-2.86-8.58-3.78-12.87-.35-1.63-1.75-10.65-1.56-12.3s2-3.33,3.4-4.13a2,2,0,0,1,.86-.26,1,1,0,0,1,.41.09c.48.22.64.81.75,1.33,1,4.78,3.85,16.93,4.89,21.71.65,3.06,6.19,10.69,7.37,11.58,1.34,1,1.34,2,2.69,3.05a3.05,3.05,0,0,1,.92.94,3,3,0,0,1,.25,1.36l.2,8.1c.08,3.16,0,6.69-2.21,8.93h0L110,372.1l-.28-1c.14.25.26.51.39.76l.42-36.21s11.28-10.12,12.74-11.57c.94-.94,7.87-5,12.65-7.76h0c5-5,15.75-9,15.75-9s10.23-11.57,12.41-13.75,1.17-8.22,1.17-8.22l-5.6-21.51c-9.89-6.22-13.8-13.15-13.8-13.15a5,5,0,0,1-3.64,1.47c-3.26,0-6.53-2.47-6.53-2.47s-14.2-14.2-9.73-20.91a4.21,4.21,0,0,1,3.68-2c2.93,0,6.41,2.41,8.87,4.48-5-4.4-7.73-5-8.82-5a1.69,1.69,0,0,0-.35,0l-.08.06-.07,0a.26.26,0,0,0-.1,0l-.05-.11c-1.06-.53-5.81-3.14-6.22-7.56-8-2.51-6.48-7-6.48-7-7.71-5.25,0-13.69,0-13.69-3.43-3.44-.78-8.45-.78-8.45-4-5.7,1-12.74,1-12.74.56-6.15,9.78-9.78,9.78-9.78.73-3.08,4.53-4.53,4.53-4.53a6.73,6.73,0,0,1,6.2-3.83,3.62,3.62,0,0,1,.51,0c3.34-7.23,15.88-7.93,20.57-7.93,1.12,0,1.79,0,1.79,0a12.54,12.54,0,0,1,7.61-2.9m63.06,264.2,20.7-37.32-19.68-29.27c.53,8.4.85,17,.76,25.17a328.66,328.66,0,0,1-2.9,39.69,2.77,2.77,0,0,1,1.12,1.73m40.79,211.46h0M167.58,142h0a17.63,17.63,0,0,0-9.41,2.86c-6.83,0-18.26,1.16-24,8.22a12.46,12.46,0,0,0-7.48,4.91,13.71,13.71,0,0,0-4.88,4.64c-3.46,1.8-9.48,5.75-10.92,12.06-2.16,3.64-4.13,9.68-1.83,15.42a13.65,13.65,0,0,0,.2,7.68,16,16,0,0,0-2.23,9.6,12.47,12.47,0,0,0,3.4,7.18,10.63,10.63,0,0,0,.94,2.72,13.39,13.39,0,0,0,6.52,6,14.64,14.64,0,0,0,2.33,3.67c-2.34,4.83-1,11,4,18.31a67.1,67.1,0,0,0,7.26,8.8l.29.3.33.25c.82.61,5.14,3.68,10.15,3.68a11.9,11.9,0,0,0,1.59-.11,52.81,52.81,0,0,0,10.63,9.53l4.93,19a12.53,12.53,0,0,1,0,3.23c-2.39,2.49-8.72,9.61-11.25,12.47-3.29,1.32-11,4.72-15.84,9.19-11.64,6.71-12.58,7.66-13.28,8.35-1,1-8.18,7.47-12.49,11.34l-2,1.76,0,2.64-.09,7.75-2.17-5.18c1.62-3.53,1.52-7.36,1.46-9.7l-.14-5.4-.06-2.7a8.7,8.7,0,0,0-.94-4,8.6,8.6,0,0,0-2.47-2.83l-.11-.16a11.16,11.16,0,0,0-2.46-2.79c-1.34-1.44-4.88-6.65-5.4-8.32-.53-2.44-1.5-6.72-2.45-10.87s-1.91-8.43-2.42-10.79a7.42,7.42,0,0,0-4.09-5.5,6.9,6.9,0,0,0-2.94-.65,7.68,7.68,0,0,0-3.75,1c-2.84,1.56-6,4.68-6.48,8.73-.35,3.18,1.64,14.1,1.66,14.2a64.89,64.89,0,0,0,2.07,7.08c.18.54.35,1.07.52,1.59l-.48.12-.41.08a10.15,10.15,0,0,0-6.33,3.22,7,7,0,0,0-1.32.3,7.61,7.61,0,0,0-3.6,2.5,7.65,7.65,0,0,0-6.69,5.87,7.94,7.94,0,0,0,.52,4.69A70.81,70.81,0,0,1,59.74,337,6.89,6.89,0,0,0,66.69,343h.88c1.46,0,2.93-.05,4.4-.14a23.66,23.66,0,0,0,5.89,4.6l17.32,51.87.24.72.41.64,10,15.46,1.07,1.66,1.85.7,7.54,2.85,6.51,2.46,1.47-6.81,9.3-42.95,7.36,4.61c1.43,2.79,4.71,9.3,7.91,16.34,5.88,12.94,7.32,18.49,7.66,20.63a9.93,9.93,0,0,0-2.82,9.81c-8.67,25.22-32.32,91.24-32.56,91.92l-2.93,8.19,8.69-.16h.21c0,.13,0,.27-.07.4l-.38,1,.1.65c-3.81,22.34-5.64,50.78-6.14,59.62-14,12.49-11.94-34.91-11.25-26.8.06.74.14,1.66.14,1.92-.1,4.22-5.09,29.84-7.51,33.75a16.12,16.12,0,0,0-3.7,9.79,28.23,28.23,0,0,1-4.59,4.84c-2.52,1.76-4.08,4.72-4.74,9-.69,1.9-2.68,7.45-4.38,13.34-3.61,12.55-3.69,58.73-.28,62.14,4.3,4.3,16.29,6.25,25.61,6.25a54.22,54.22,0,0,0,20.62-3.68,11.92,11.92,0,0,0,7.22-7.93c1.72-6.18-1.05-54.65-8.72-65.46-1-8.38-4.86-19.24-6.35-23.24.92-5.67,4.57-26.25,11.38-41.52a227,227,0,0,0,12.24-35c4.94-6.17,8.44,53.25,9.34,50l21.85-54.81,1.29-3.22a138.91,138.91,0,0,0,16.84-6.58c17.59,65.94,20.66,76.1,21.47,78.33-.05.47-.19,1.3-.3,2-1.28,7.62-4.24-45.87,9.82,3.93a40.43,40.43,0,0,1-2,8.26c-2.29,4.1-3.52,7.66-3.76,10.82a17,17,0,0,0,.17,11c1.93,5,11.29,11.35,14.11,13.16,4.84,3.1,14.26,48.9,23.11,49.48.83.06,1.68.09,2.5.09,14.37,0,23.91-49,25.2-53.79a6.38,6.38,0,0,0,.2-2.49,7.4,7.4,0,0,0,.65-2.36,7.23,7.23,0,0,0-2.13-5.81L283,620.76l-2.34-.1a19.9,19.9,0,0,1-3.52-.51,11,11,0,0,0-3.21-4.61,21.72,21.72,0,0,0-7.11-3.4c-6-4.79-13-10.36-15.08-12-2.06-2.66-4.35-5.7-5.43-7.24-.27-4.49-1.26,50.89-4.88-6.49.62-2.55,1.44-8.16-.15-17-.37-2.08-1.2-11-1.06-49.43l4.38,1.38.18-8c0-.81.38-17.5-.86-35.8,4.73-.06,7.25-2.11,8.53-3.83a9.23,9.23,0,0,0,1.38-8l-.43-1.45-1.07-1.08-4.93-4.93c2.11-8.89-2.78-20.11-5.76-25.82l31.68-56.83,1.65-3-1.68-2.94-38.58-67.54-.16-.28-.19-.25a14.74,14.74,0,0,0-7-5.25c-.36-.39-.74-.79-1.13-1.18l-1.53-1.53-2.15-.2-9.64-.9c-5.73-.84-16-2.93-23-7.68a48,48,0,0,1-1.23-5.75c2.7.24,5.46.36,8.25.36,6.47,0,26.1,0,28.5-13.8,4.18-24.07-.85-54.67-12-75.07,2.26-3.8,1.53-8.48-.63-12.42a6.78,6.78,0,0,0,0-1.19c-.28-3.27-2.56-6.21-4.93-8.44a13.06,13.06,0,0,0-.39-6.33c-1.44-4.59-5.25-8.21-11.33-10.77A22.9,22.9,0,0,0,180,144.86a24.61,24.61,0,0,0-3,.19,16.23,16.23,0,0,0-9.43-3.09Zm70.26,244.86c.29-4.91.52-10.33.58-16,0-1.43,0-2.91,0-4.42l5.89,8.75-6.48,11.68Z"/><polyline class="cls-4" points="82.19 342.89 83.05 343.39 96.39 337.97"/></g><path class="cls-25" d="M426.62,190.88a9.74,9.74,0,0,1-2.11,6.51,6.83,6.83,0,0,1-5.5,2.51,6.73,6.73,0,0,1-5.42-2.51,9.93,9.93,0,0,1-2.08-6.51v-.23a9.87,9.87,0,0,1,2.08-6.51,6.68,6.68,0,0,1,5.41-2.52,6.84,6.84,0,0,1,5.5,2.52,9.73,9.73,0,0,1,2.12,6.51Zm-1.45-.26a8.85,8.85,0,0,0-1.66-5.59A5.44,5.44,0,0,0,419,182.9a5.28,5.28,0,0,0-4.42,2.13,9,9,0,0,0-1.62,5.59v.26a9,9,0,0,0,1.63,5.62,5.28,5.28,0,0,0,4.42,2.13,5.39,5.39,0,0,0,4.51-2.13,8.92,8.92,0,0,0,1.65-5.62Z"/><path class="cls-25" d="M434.72,198.67a4.11,4.11,0,0,0,2.53-.83,2.7,2.7,0,0,0,1.1-2.31h1.28l0,.07a3.63,3.63,0,0,1-1.45,3.07,5.33,5.33,0,0,1-3.49,1.23,4.93,4.93,0,0,1-4.12-1.85,7.4,7.4,0,0,1-1.46-4.75v-.51a7.39,7.39,0,0,1,1.46-4.74,4.92,4.92,0,0,1,4.11-1.86,6.62,6.62,0,0,1,2.76.58,5.35,5.35,0,0,1,2,1.56l.06,2.88h-1.23l-.23-2.34a4.26,4.26,0,0,0-1.44-1.05,4.89,4.89,0,0,0-2-.38,3.49,3.49,0,0,0-3.12,1.52,6.8,6.8,0,0,0-1,3.83v.51a6.86,6.86,0,0,0,1,3.86A3.5,3.5,0,0,0,434.72,198.67Z"/><path class="cls-25" d="M442.35,192.85a7.18,7.18,0,0,1,1.58-4.79,5.65,5.65,0,0,1,8.4,0,7.18,7.18,0,0,1,1.58,4.79v.4a7.16,7.16,0,0,1-1.57,4.79,5.68,5.68,0,0,1-8.41,0,7.16,7.16,0,0,1-1.58-4.79Zm1.45.4a6.33,6.33,0,0,0,1.15,3.86,4,4,0,0,0,6.37,0,6.39,6.39,0,0,0,1.14-3.86v-.4a6.31,6.31,0,0,0-1.15-3.84,4,4,0,0,0-6.36,0,6.31,6.31,0,0,0-1.15,3.84Z"/><path class="cls-25" d="M459.4,186.44l.18,2.2v.15a4.68,4.68,0,0,1,1.51-1.91,3.8,3.8,0,0,1,2.28-.69,3.1,3.1,0,0,1,.54.05l.43.09-.2,1.36-1.07-.07a3.23,3.23,0,0,0-2.24.78,4.25,4.25,0,0,0-1.25,2.13v7.88l2,.16v1.08h-5.38v-1.08l2-.16V187.68l-2-.16v-1.08h3.23Z"/><path class="cls-25" d="M469.34,186.44l.18,2.2v.15a4.7,4.7,0,0,1,1.52-1.91,3.79,3.79,0,0,1,2.27-.69,3.1,3.1,0,0,1,.54.05l.43.09-.19,1.36-1.08-.07a3.25,3.25,0,0,0-2.24.78,4.25,4.25,0,0,0-1.25,2.13v7.88l2,.16v1.08h-5.38v-1.08l2-.16V187.68l-2-.16v-1.08h3.23Z"/><path class="cls-25" d="M481.69,199.9a5.25,5.25,0,0,1-4.09-1.82,6.76,6.76,0,0,1-1.62-4.65v-.67a6.92,6.92,0,0,1,1.62-4.7,5,5,0,0,1,3.89-1.87,4.81,4.81,0,0,1,3.78,1.54,5.91,5.91,0,0,1,1.38,4.1v1.25h-9.23v.35a5.84,5.84,0,0,0,1.18,3.73,3.71,3.71,0,0,0,3.09,1.51,6.27,6.27,0,0,0,2.29-.38,4.37,4.37,0,0,0,1.63-1.09l.62,1a5.13,5.13,0,0,1-1.86,1.23A7,7,0,0,1,481.69,199.9Zm-.2-12.46a3.45,3.45,0,0,0-2.69,1.24,5.36,5.36,0,0,0-1.27,3.1l0,.07h7.66v-.37a4.23,4.23,0,0,0-1-2.88A3.42,3.42,0,0,0,481.49,187.44Z"/><path class="cls-25" d="M489,198.57l2-.16V187.68l-2-.16v-1.08h3.25l.13,2.31a4.67,4.67,0,0,1,1.7-1.89,4.73,4.73,0,0,1,2.53-.67,4,4,0,0,1,3.24,1.32,6.25,6.25,0,0,1,1.11,4.09v6.81l2,.16v1.08h-5.39v-1.08l2-.16v-6.8a4.83,4.83,0,0,0-.84-3.21,3,3,0,0,0-2.38-.94,3.73,3.73,0,0,0-2.49.81,4.54,4.54,0,0,0-1.38,2.16v8l2,.16v1.08H489Z"/><path class="cls-25" d="M514.13,197.74a4.44,4.44,0,0,1-1.68,1.6,4.88,4.88,0,0,1-2.41.56,4.33,4.33,0,0,1-3.67-1.77,7.7,7.7,0,0,1-1.32-4.72v-.26a8.71,8.71,0,0,1,1.32-5.06,4.26,4.26,0,0,1,3.69-1.9,4.73,4.73,0,0,1,2.37.58,4.82,4.82,0,0,1,1.67,1.66v-6.58l-2-.16V180.6h3.42v17.81l2,.16v1.08h-3.27Zm-7.62-4.33a6.8,6.8,0,0,0,.95,3.81,3.21,3.21,0,0,0,2.86,1.41,4.06,4.06,0,0,0,2.32-.63,4.26,4.26,0,0,0,1.46-1.75V190a4.58,4.58,0,0,0-1.4-1.83,3.75,3.75,0,0,0-2.36-.71,3.15,3.15,0,0,0-2.87,1.58,7.86,7.86,0,0,0-1,4.11Z"/><path class="cls-25" d="M519.74,192.85a7.18,7.18,0,0,1,1.58-4.79,5.65,5.65,0,0,1,8.4,0,7.18,7.18,0,0,1,1.58,4.79v.4a7.16,7.16,0,0,1-1.58,4.79,5.2,5.2,0,0,1-4.18,1.86,5.27,5.27,0,0,1-4.22-1.86,7.16,7.16,0,0,1-1.58-4.79Zm1.45.4a6.33,6.33,0,0,0,1.15,3.86,4,4,0,0,0,6.36,0,6.33,6.33,0,0,0,1.15-3.86v-.4A6.38,6.38,0,0,0,528.7,189a4,4,0,0,0-6.36,0,6.31,6.31,0,0,0-1.15,3.84Z"/><path class="cls-25" d="M543,183.06v3.38h2.88v1.19H543v8.61a2.84,2.84,0,0,0,.47,1.84,1.55,1.55,0,0,0,1.24.54c.23,0,.46,0,.68,0l.77-.1.21,1.08a3.56,3.56,0,0,1-.88.25,7.28,7.28,0,0,1-1,.08,2.67,2.67,0,0,1-2.14-.88,4.16,4.16,0,0,1-.77-2.78v-8.61h-2.25v-1.19h2.25v-3.38Z"/><path class="cls-25" d="M558.13,197.47a4.45,4.45,0,0,1-1.69,1.8,4.86,4.86,0,0,1-2.52.63,4,4,0,0,1-3.23-1.41,6.91,6.91,0,0,1-1.16-4.4v-6.41l-1.62-.16v-1.08H551v7.68a5.74,5.74,0,0,0,.81,3.46,2.76,2.76,0,0,0,2.31,1,4.24,4.24,0,0,0,2.62-.73,3.83,3.83,0,0,0,1.37-2v-8.19l-1.86-.16v-1.08h3.31v12l1.75.16v1.08h-3Z"/><path class="cls-25" d="M572.49,197.74a4.44,4.44,0,0,1-1.68,1.6,4.88,4.88,0,0,1-2.41.56,4.33,4.33,0,0,1-3.67-1.77,7.7,7.7,0,0,1-1.32-4.72v-.26a8.71,8.71,0,0,1,1.32-5.06,4.26,4.26,0,0,1,3.69-1.9,4.73,4.73,0,0,1,2.37.58,4.82,4.82,0,0,1,1.67,1.66v-6.58l-2-.16V180.6h3.42v17.81l2,.16v1.08h-3.27Zm-7.62-4.33a6.8,6.8,0,0,0,1,3.81,3.2,3.2,0,0,0,2.85,1.41A4.07,4.07,0,0,0,571,198a4.26,4.26,0,0,0,1.46-1.75V190a4.58,4.58,0,0,0-1.4-1.83,3.75,3.75,0,0,0-2.36-.71,3.15,3.15,0,0,0-2.87,1.58,7.86,7.86,0,0,0-1,4.11Z"/><path class="cls-25" d="M578.1,192.85a7.18,7.18,0,0,1,1.58-4.79,5.65,5.65,0,0,1,8.4,0,7.18,7.18,0,0,1,1.58,4.79v.4a7.16,7.16,0,0,1-1.58,4.79,5.2,5.2,0,0,1-4.18,1.86,5.27,5.27,0,0,1-4.22-1.86,7.16,7.16,0,0,1-1.58-4.79Zm1.45.4a6.33,6.33,0,0,0,1.15,3.86,4,4,0,0,0,6.36,0,6.33,6.33,0,0,0,1.15-3.86v-.4a6.32,6.32,0,0,0-1.16-3.84,4,4,0,0,0-6.35,0,6.31,6.31,0,0,0-1.15,3.84Z"/><path class="cls-25" d="M603.61,198.67a4.12,4.12,0,0,0,2.54-.83,2.73,2.73,0,0,0,1.1-2.31h1.28l0,.07a3.64,3.64,0,0,1-1.44,3.07,5.36,5.36,0,0,1-3.5,1.23,4.94,4.94,0,0,1-4.12-1.85A7.46,7.46,0,0,1,598,193.3v-.51a7.45,7.45,0,0,1,1.46-4.74,4.94,4.94,0,0,1,4.11-1.86,6.64,6.64,0,0,1,2.77.58,5.51,5.51,0,0,1,2,1.56l.06,2.88h-1.23l-.23-2.34a4.2,4.2,0,0,0-1.45-1.05,4.86,4.86,0,0,0-2-.38,3.48,3.48,0,0,0-3.11,1.52,6.8,6.8,0,0,0-1,3.83v.51a6.86,6.86,0,0,0,1,3.86A3.5,3.5,0,0,0,603.61,198.67Z"/><path class="cls-25" d="M611.25,192.85a7.13,7.13,0,0,1,1.58-4.79,5.64,5.64,0,0,1,8.39,0,7.14,7.14,0,0,1,1.59,4.79v.4a7.16,7.16,0,0,1-1.58,4.79,5.67,5.67,0,0,1-8.4,0,7.11,7.11,0,0,1-1.58-4.79Zm1.45.4a6.39,6.39,0,0,0,1.14,3.86,3.77,3.77,0,0,0,3.21,1.56,3.72,3.72,0,0,0,3.16-1.56,6.4,6.4,0,0,0,1.15-3.86v-.4A6.32,6.32,0,0,0,620.2,189a4,4,0,0,0-6.36,0,6.37,6.37,0,0,0-1.14,3.84Z"/><path class="cls-25" d="M624.9,198.57l2-.16V187.68l-2-.16v-1.08h3.25l.13,2.31a4.6,4.6,0,0,1,1.7-1.89,4.7,4.7,0,0,1,2.53-.67,4,4,0,0,1,3.24,1.32,6.25,6.25,0,0,1,1.11,4.09v6.81l2,.16v1.08h-5.39v-1.08l2-.16v-6.8a4.83,4.83,0,0,0-.84-3.21,3.07,3.07,0,0,0-2.39-.94,3.72,3.72,0,0,0-2.48.81,4.54,4.54,0,0,0-1.38,2.16v8l2,.16v1.08H624.9Z"/><path class="cls-25" d="M640.89,187.63v-1.19h2.16v-1.93a4.42,4.42,0,0,1,1-3.08,3.58,3.58,0,0,1,2.77-1.08,5.59,5.59,0,0,1,.8.06c.27,0,.55.1.83.17l-.18,1.21a5.6,5.6,0,0,0-.59-.12,5,5,0,0,0-.71,0,2.22,2.22,0,0,0-1.82.76,3.16,3.16,0,0,0-.64,2.12v1.93h3.12v1.19H644.5v10.78l2,.16v1.08h-5.38v-1.08l2-.16V187.63Z"/><path class="cls-25" d="M649.85,192.85a7.14,7.14,0,0,1,1.59-4.79,5.64,5.64,0,0,1,8.39,0,7.14,7.14,0,0,1,1.59,4.79v.4a7.16,7.16,0,0,1-1.58,4.79,5.67,5.67,0,0,1-8.4,0,7.12,7.12,0,0,1-1.59-4.79Zm1.45.4a6.4,6.4,0,0,0,1.15,3.86,4,4,0,0,0,6.37,0,6.4,6.4,0,0,0,1.15-3.86v-.4a6.32,6.32,0,0,0-1.16-3.84,4,4,0,0,0-6.36,0,6.38,6.38,0,0,0-1.15,3.84Z"/><path class="cls-25" d="M666.9,186.44l.18,2.2v.15a4.7,4.7,0,0,1,1.52-1.91,3.8,3.8,0,0,1,2.28-.69,3.07,3.07,0,0,1,.53.05l.43.09-.19,1.36-1.08-.07a3.25,3.25,0,0,0-2.24.78,4.25,4.25,0,0,0-1.25,2.13v7.88l2,.16v1.08h-5.38v-1.08l2-.16V187.68l-2-.16v-1.08h3.23Z"/><path class="cls-25" d="M673.4,187.52v-1.08h3.25l.13,2.18a4.61,4.61,0,0,1,1.68-1.79,4.79,4.79,0,0,1,2.5-.64,3.78,3.78,0,0,1,3.94,3,5.26,5.26,0,0,1,1.69-2.19,4.37,4.37,0,0,1,2.66-.8,3.92,3.92,0,0,1,3.23,1.41,6.81,6.81,0,0,1,1.14,4.34v6.46l2,.17v1.08h-5.4v-1.08l2-.17v-6.48a5.38,5.38,0,0,0-.85-3.45,3,3,0,0,0-2.38-1,3.23,3.23,0,0,0-2.6,1.09,5.27,5.27,0,0,0-1.13,2.77,1,1,0,0,0,0,.18v6.91l2,.16v1.08H681.8v-1.08l2-.16v-6.49a5.34,5.34,0,0,0-.86-3.43,3,3,0,0,0-2.37-1,3.62,3.62,0,0,0-2.45.79,4.2,4.2,0,0,0-1.26,2.12v8l2,.16v1.08H673.4v-1.08l2-.16V187.68Z"/><path class="cls-25" d="M703,199.9a5.24,5.24,0,0,1-4.08-1.82,6.76,6.76,0,0,1-1.62-4.65v-.67a7,7,0,0,1,1.61-4.7,5,5,0,0,1,3.9-1.87,4.84,4.84,0,0,1,3.78,1.54,5.91,5.91,0,0,1,1.38,4.1v1.25h-9.23v.35a5.89,5.89,0,0,0,1.17,3.73,3.74,3.74,0,0,0,3.09,1.51,6.29,6.29,0,0,0,2.3-.38A4.45,4.45,0,0,0,707,197.2l.61,1a5.13,5.13,0,0,1-1.86,1.23A7,7,0,0,1,703,199.9Zm-.19-12.46a3.43,3.43,0,0,0-2.69,1.24,5.3,5.3,0,0,0-1.27,3.1l0,.07h7.66v-.37a4.28,4.28,0,0,0-1-2.88A3.43,3.43,0,0,0,702.83,187.44Z"/><path class="cls-25" d="M716.59,192.85a7.13,7.13,0,0,1,1.58-4.79,5.65,5.65,0,0,1,8.4,0,7.18,7.18,0,0,1,1.58,4.79v.4a7.16,7.16,0,0,1-1.58,4.79,5.2,5.2,0,0,1-4.18,1.86,5.25,5.25,0,0,1-4.22-1.86,7.11,7.11,0,0,1-1.58-4.79Zm1.45.4a6.39,6.39,0,0,0,1.14,3.86,3.77,3.77,0,0,0,3.21,1.56,3.7,3.7,0,0,0,3.16-1.56,6.33,6.33,0,0,0,1.15-3.86v-.4a6.32,6.32,0,0,0-1.16-3.84,4,4,0,0,0-6.36,0,6.37,6.37,0,0,0-1.14,3.84Z"/><path class="cls-25" d="M417.16,229.9a5.24,5.24,0,0,1-4.08-1.82,6.76,6.76,0,0,1-1.62-4.65v-.67a7,7,0,0,1,1.61-4.7,5,5,0,0,1,3.9-1.87,4.84,4.84,0,0,1,3.78,1.54,5.91,5.91,0,0,1,1.38,4.1v1.25H412.9v.35a5.84,5.84,0,0,0,1.18,3.73,3.7,3.7,0,0,0,3.08,1.51,6.29,6.29,0,0,0,2.3-.38,4.45,4.45,0,0,0,1.63-1.09l.62,1a5.3,5.3,0,0,1-1.86,1.23A7,7,0,0,1,417.16,229.9ZM417,217.44a3.45,3.45,0,0,0-2.69,1.24,5.3,5.3,0,0,0-1.27,3.1l0,.07h7.66v-.37a4.23,4.23,0,0,0-1-2.88A3.43,3.43,0,0,0,417,217.44Z"/><path class="cls-25" d="M434.2,220.52H433l-.17-1.87a3.66,3.66,0,0,0-1.37-.89,5.08,5.08,0,0,0-1.9-.32,3.49,3.49,0,0,0-2.37.69,2.08,2.08,0,0,0-.79,1.62,1.9,1.9,0,0,0,.68,1.51,6.52,6.52,0,0,0,2.72,1.05,8.89,8.89,0,0,1,3.49,1.43,3,3,0,0,1,1.16,2.48,3.21,3.21,0,0,1-1.32,2.66,5.58,5.58,0,0,1-3.5,1,8,8,0,0,1-2.64-.41,6.17,6.17,0,0,1-2.06-1.15v-2.66h1.18l.2,1.88a3.46,3.46,0,0,0,1.47.85,6.67,6.67,0,0,0,1.85.26,4,4,0,0,0,2.48-.7,2.07,2.07,0,0,0,.91-1.68,2.15,2.15,0,0,0-.76-1.62,6,6,0,0,0-2.72-1.14,9.12,9.12,0,0,1-3.46-1.36,2.79,2.79,0,0,1-1.13-2.38,3.19,3.19,0,0,1,1.26-2.55,5.09,5.09,0,0,1,3.35-1.05,7.41,7.41,0,0,1,2.63.45,5.43,5.43,0,0,1,1.94,1.2Z"/><path class="cls-25" d="M436.71,217.52v-1.08h3.18l.18,2.05a4.77,4.77,0,0,1,1.7-1.7,4.7,4.7,0,0,1,2.42-.6,4.25,4.25,0,0,1,3.68,1.9,8.64,8.64,0,0,1,1.33,5.06v.26a7.65,7.65,0,0,1-1.33,4.73,4.33,4.33,0,0,1-3.66,1.76,5.25,5.25,0,0,1-2.41-.53,4.28,4.28,0,0,1-1.68-1.51v5.62l2,.16v1.08h-5.38v-1.08l2-.16v-15.8Zm11,5.63a7.64,7.64,0,0,0-1-4.1,3.21,3.21,0,0,0-2.9-1.59,3.78,3.78,0,0,0-2.37.71,4.18,4.18,0,0,0-1.37,1.82v6.35a4,4,0,0,0,1.43,1.71,4.16,4.16,0,0,0,2.34.62,3.28,3.28,0,0,0,2.88-1.44,6.7,6.7,0,0,0,1-3.82Z"/><path class="cls-25" d="M457.32,229.9a5.23,5.23,0,0,1-4.08-1.82,6.76,6.76,0,0,1-1.62-4.65v-.67a6.91,6.91,0,0,1,1.61-4.7,5,5,0,0,1,3.9-1.87,4.84,4.84,0,0,1,3.78,1.54,5.91,5.91,0,0,1,1.37,4.1v1.25h-9.23v.35a5.9,5.9,0,0,0,1.18,3.73,3.74,3.74,0,0,0,3.09,1.51,6.24,6.24,0,0,0,2.29-.38,4.49,4.49,0,0,0,1.64-1.09l.61,1a5.13,5.13,0,0,1-1.86,1.23A7,7,0,0,1,457.32,229.9Zm-.19-12.46a3.43,3.43,0,0,0-2.69,1.24,5.31,5.31,0,0,0-1.28,3.1l0,.07h7.66v-.37a4.23,4.23,0,0,0-1-2.88A3.41,3.41,0,0,0,457.13,217.44Z"/><path class="cls-25" d="M468,216.44l.18,2.2v.15a4.62,4.62,0,0,1,1.52-1.91,3.77,3.77,0,0,1,2.27-.69,3.1,3.1,0,0,1,.54.05l.43.09-.19,1.36-1.08-.07a3.23,3.23,0,0,0-2.24.78,4.25,4.25,0,0,0-1.25,2.13v7.88l2,.16v1.08h-5.38v-1.08l2-.16V217.68l-2-.16v-1.08H468Z"/><path class="cls-25" d="M483.84,229.65c-.1-.45-.17-.84-.21-1.16a8.22,8.22,0,0,1-.06-1,5.86,5.86,0,0,1-1.93,1.72,5.49,5.49,0,0,1-2.72.68,4.12,4.12,0,0,1-3-1,3.57,3.57,0,0,1-1.05-2.71,3.35,3.35,0,0,1,1.55-2.9,7.32,7.32,0,0,1,4.23-1.08h2.89v-1.74a2.84,2.84,0,0,0-.9-2.23,3.68,3.68,0,0,0-2.52-.8,6.29,6.29,0,0,0-2,.3,4.47,4.47,0,0,0-1.5.81l-.12,1.77h-1.2l0-2.54a7.63,7.63,0,0,1,2.16-1.15,8.25,8.25,0,0,1,2.69-.44,5.23,5.23,0,0,1,3.48,1.11,4,4,0,0,1,1.32,3.19V227c0,.27,0,.53,0,.78a5.82,5.82,0,0,0,.07.73l1.31.08v1.08Zm-4.76-1a5.24,5.24,0,0,0,2.76-.73,4.32,4.32,0,0,0,1.73-1.9v-2.64h-2.91a5.41,5.41,0,0,0-3.15.82,2.47,2.47,0,0,0-1.18,2.08,2.23,2.23,0,0,0,.73,1.72A3,3,0,0,0,479.08,228.61Z"/><path class="cls-25" d="M497.55,227.74a4.59,4.59,0,0,1-1.68,1.6,4.92,4.92,0,0,1-2.42.56,4.34,4.34,0,0,1-3.67-1.77,7.7,7.7,0,0,1-1.32-4.72v-.26a8.71,8.71,0,0,1,1.32-5.06,4.28,4.28,0,0,1,3.7-1.9,4.47,4.47,0,0,1,4,2.24v-6.58l-2-.16V210.6H499v17.81l2,.16v1.08h-3.26Zm-7.63-4.33a6.8,6.8,0,0,0,.95,3.81,3.22,3.22,0,0,0,2.86,1.41,4,4,0,0,0,2.32-.63,4.26,4.26,0,0,0,1.46-1.75V220a4.49,4.49,0,0,0-1.4-1.83,3.73,3.73,0,0,0-2.36-.71,3.15,3.15,0,0,0-2.87,1.58,7.86,7.86,0,0,0-1,4.11Z"/><path class="cls-25" d="M503.15,222.85a7.18,7.18,0,0,1,1.58-4.79,5.65,5.65,0,0,1,8.4,0,7.18,7.18,0,0,1,1.58,4.79v.4a7.16,7.16,0,0,1-1.57,4.79,5.68,5.68,0,0,1-8.41,0,7.16,7.16,0,0,1-1.58-4.79Zm1.45.4a6.33,6.33,0,0,0,1.15,3.86,4,4,0,0,0,6.37,0,6.39,6.39,0,0,0,1.14-3.86v-.4a6.31,6.31,0,0,0-1.15-3.84,4,4,0,0,0-6.36,0,6.31,6.31,0,0,0-1.15,3.84Z"/><path class="cls-25" d="M519.17,229.06a5.66,5.66,0,0,1-.45,2.2,5.44,5.44,0,0,1-1.24,1.82l-.86-.64a6.33,6.33,0,0,0,.84-1.6,5.42,5.42,0,0,0,.27-1.76v-1.73h1.44Z"/><path class="cls-25" d="M533.4,228.67a4.14,4.14,0,0,0,2.54-.83,2.73,2.73,0,0,0,1.1-2.31h1.28l0,.07a3.64,3.64,0,0,1-1.44,3.07,5.38,5.38,0,0,1-3.5,1.23,4.94,4.94,0,0,1-4.12-1.85,7.46,7.46,0,0,1-1.46-4.75v-.51a7.45,7.45,0,0,1,1.46-4.74,4.94,4.94,0,0,1,4.11-1.86,6.59,6.59,0,0,1,2.76.58,5.46,5.46,0,0,1,2.05,1.56l.06,2.88H537l-.22-2.34a4.2,4.2,0,0,0-1.45-1.05,4.86,4.86,0,0,0-2-.38,3.48,3.48,0,0,0-3.11,1.52,6.8,6.8,0,0,0-1,3.83v.51a6.86,6.86,0,0,0,1,3.86A3.5,3.5,0,0,0,533.4,228.67Z"/><path class="cls-25" d="M540.61,211.69V210.6H544v8.1a4.66,4.66,0,0,1,4.28-2.51,4,4,0,0,1,3.17,1.3,6.12,6.12,0,0,1,1.1,4v6.91l2,.16v1.08h-5.39v-1.08l2-.16v-6.93a4.56,4.56,0,0,0-.84-3.08,2.93,2.93,0,0,0-2.31-.94,3.9,3.9,0,0,0-2.48.79,4.53,4.53,0,0,0-1.47,2.09v8.07l2,.16v1.08h-5.38v-1.08l2-.16V211.85Z"/><path class="cls-25" d="M562.36,229.9a5.25,5.25,0,0,1-4.09-1.82,6.75,6.75,0,0,1-1.61-4.65v-.67a6.91,6.91,0,0,1,1.61-4.7,5,5,0,0,1,3.89-1.87,4.81,4.81,0,0,1,3.78,1.54,5.91,5.91,0,0,1,1.38,4.1v1.25h-9.23v.35a5.9,5.9,0,0,0,1.18,3.73,3.72,3.72,0,0,0,3.09,1.51,6.24,6.24,0,0,0,2.29-.38,4.37,4.37,0,0,0,1.63-1.09l.62,1a5.13,5.13,0,0,1-1.86,1.23A7,7,0,0,1,562.36,229.9Zm-.2-12.46a3.41,3.41,0,0,0-2.68,1.24,5.31,5.31,0,0,0-1.28,3.1l0,.07h7.65v-.37a4.23,4.23,0,0,0-1-2.88A3.42,3.42,0,0,0,562.16,217.44Z"/><path class="cls-25" d="M570,223.15a8.64,8.64,0,0,1,1.33-5.06,4.3,4.3,0,0,1,3.71-1.9,4.62,4.62,0,0,1,2.41.62,4.84,4.84,0,0,1,1.68,1.74l.17-2.11h1.22v13a5.69,5.69,0,0,1-1.37,4,4.89,4.89,0,0,1-3.8,1.48,9.76,9.76,0,0,1-2-.23,7.87,7.87,0,0,1-1.87-.64l.39-1.23a8.29,8.29,0,0,0,1.65.59,8.19,8.19,0,0,0,1.82.2,3.47,3.47,0,0,0,2.8-1.11,4.62,4.62,0,0,0,.94-3.09V227.8a4.48,4.48,0,0,1-1.68,1.56,5,5,0,0,1-2.38.54,4.33,4.33,0,0,1-3.68-1.77,7.64,7.64,0,0,1-1.33-4.72Zm1.45.26a6.68,6.68,0,0,0,1,3.8,3.22,3.22,0,0,0,2.87,1.42,4.06,4.06,0,0,0,2.35-.64A4.28,4.28,0,0,0,579,226.2v-6.12a4.54,4.54,0,0,0-1.39-1.89,3.71,3.71,0,0,0-2.38-.73,3.17,3.17,0,0,0-2.88,1.59,7.73,7.73,0,0,0-1,4.1Z"/><path class="cls-25" d="M592.8,229.65c-.1-.45-.17-.84-.21-1.16a8.22,8.22,0,0,1-.06-1,5.76,5.76,0,0,1-1.93,1.72,5.46,5.46,0,0,1-2.72.68,4.12,4.12,0,0,1-3-1,3.57,3.57,0,0,1-1-2.71,3.34,3.34,0,0,1,1.56-2.9,7.32,7.32,0,0,1,4.23-1.08h2.88v-1.74a2.84,2.84,0,0,0-.9-2.23,3.67,3.67,0,0,0-2.51-.8,6.25,6.25,0,0,0-2,.3,4.62,4.62,0,0,0-1.51.81l-.12,1.77h-1.19v-2.54a7.69,7.69,0,0,1,2.17-1.15,8.14,8.14,0,0,1,2.68-.44,5.19,5.19,0,0,1,3.48,1.11,4,4,0,0,1,1.32,3.19V227c0,.27,0,.53,0,.78a5.82,5.82,0,0,0,.08.73l1.3.08v1.08Zm-4.76-1a5.28,5.28,0,0,0,2.77-.73,4.3,4.3,0,0,0,1.72-1.9v-2.64h-2.91a5.36,5.36,0,0,0-3.14.82,2.45,2.45,0,0,0-1.18,2.08A2.19,2.19,0,0,0,586,228,2.94,2.94,0,0,0,588,228.61Z"/><path class="cls-25" d="M600.55,216.44l.19,2.2v.15a4.68,4.68,0,0,1,1.51-1.91,3.8,3.8,0,0,1,2.28-.69,3.29,3.29,0,0,1,.54.05l.43.09-.2,1.36-1.07-.07a3.23,3.23,0,0,0-2.24.78,4.18,4.18,0,0,0-1.25,2.13v7.88l2,.16v1.08h-5.38v-1.08l2-.16V217.68l-2-.16v-1.08h3.22Z"/><path class="cls-25" d="M612.9,229.9a5.24,5.24,0,0,1-4.08-1.82,6.76,6.76,0,0,1-1.62-4.65v-.67a7,7,0,0,1,1.61-4.7,5,5,0,0,1,3.9-1.87,4.84,4.84,0,0,1,3.78,1.54,5.91,5.91,0,0,1,1.38,4.1v1.25h-9.23v.35a5.89,5.89,0,0,0,1.17,3.73,3.74,3.74,0,0,0,3.09,1.51,6.29,6.29,0,0,0,2.3-.38,4.45,4.45,0,0,0,1.63-1.09l.61,1a5.13,5.13,0,0,1-1.86,1.23A7,7,0,0,1,612.9,229.9Zm-.19-12.46a3.43,3.43,0,0,0-2.69,1.24,5.3,5.3,0,0,0-1.27,3.1l0,.07h7.66v-.37a4.28,4.28,0,0,0-1-2.88A3.43,3.43,0,0,0,612.71,217.44Z"/><path class="cls-25" d="M620.14,217.52v-1.08h3.25l.13,2.18a4.61,4.61,0,0,1,1.68-1.79,4.76,4.76,0,0,1,2.5-.64,3.78,3.78,0,0,1,3.94,3,5.16,5.16,0,0,1,1.68-2.19,4.42,4.42,0,0,1,2.67-.8,3.92,3.92,0,0,1,3.23,1.41,6.81,6.81,0,0,1,1.14,4.34v6.46l2,.17v1.08h-5.4v-1.08l2-.17v-6.48a5.44,5.44,0,0,0-.85-3.45,3,3,0,0,0-2.38-1,3.23,3.23,0,0,0-2.6,1.09,5.19,5.19,0,0,0-1.13,2.77,1,1,0,0,0,0,.18v6.91l2,.16v1.08h-5.39v-1.08l2-.16v-6.49a5.4,5.4,0,0,0-.86-3.43,3,3,0,0,0-2.38-1,3.6,3.6,0,0,0-2.44.79,4.2,4.2,0,0,0-1.26,2.12v8l2,.16v1.08h-5.38v-1.08l2-.16V217.68Z"/><path class="cls-25" d="M644,222.85a7.13,7.13,0,0,1,1.58-4.79,5.64,5.64,0,0,1,8.39,0,7.14,7.14,0,0,1,1.59,4.79v.4A7.16,7.16,0,0,1,654,228a5.67,5.67,0,0,1-8.4,0,7.11,7.11,0,0,1-1.58-4.79Zm1.45.4a6.39,6.39,0,0,0,1.14,3.86,3.77,3.77,0,0,0,3.21,1.56,3.72,3.72,0,0,0,3.16-1.56,6.4,6.4,0,0,0,1.15-3.86v-.4A6.32,6.32,0,0,0,653,219a4,4,0,0,0-6.36,0,6.37,6.37,0,0,0-1.14,3.84Z"/><path class="cls-25" d="M667.4,220.52h-1.19l-.17-1.87a3.66,3.66,0,0,0-1.37-.89,5.08,5.08,0,0,0-1.9-.32,3.49,3.49,0,0,0-2.37.69,2.09,2.09,0,0,0-.8,1.62,1.91,1.91,0,0,0,.69,1.51,6.52,6.52,0,0,0,2.72,1.05,8.89,8.89,0,0,1,3.49,1.43,3,3,0,0,1,1.16,2.48,3.21,3.21,0,0,1-1.32,2.66,5.58,5.58,0,0,1-3.5,1,8,8,0,0,1-2.64-.41,6.17,6.17,0,0,1-2.06-1.15v-2.66h1.17l.21,1.88a3.46,3.46,0,0,0,1.47.85,6.67,6.67,0,0,0,1.85.26,4,4,0,0,0,2.48-.7,2.06,2.06,0,0,0,.9-1.68,2.14,2.14,0,0,0-.75-1.62,6,6,0,0,0-2.72-1.14,9.25,9.25,0,0,1-3.47-1.36,2.82,2.82,0,0,1-1.13-2.38,3.2,3.2,0,0,1,1.27-2.55,5.09,5.09,0,0,1,3.35-1.05,7.41,7.41,0,0,1,2.63.45,5.43,5.43,0,0,1,1.94,1.2Z"/><path class="cls-25" d="M685.34,229.65c-.1-.45-.17-.84-.21-1.16a8.22,8.22,0,0,1-.06-1,5.86,5.86,0,0,1-1.93,1.72,5.49,5.49,0,0,1-2.72.68,4.12,4.12,0,0,1-3-1,3.57,3.57,0,0,1-1.05-2.71,3.35,3.35,0,0,1,1.55-2.9,7.32,7.32,0,0,1,4.23-1.08h2.89v-1.74a2.84,2.84,0,0,0-.9-2.23,3.68,3.68,0,0,0-2.52-.8,6.29,6.29,0,0,0-2,.3,4.47,4.47,0,0,0-1.5.81l-.12,1.77h-1.2l0-2.54a7.63,7.63,0,0,1,2.16-1.15,8.25,8.25,0,0,1,2.69-.44,5.23,5.23,0,0,1,3.48,1.11,4,4,0,0,1,1.32,3.19V227c0,.27,0,.53,0,.78a5.82,5.82,0,0,0,.07.73l1.31.08v1.08Zm-4.76-1a5.24,5.24,0,0,0,2.76-.73,4.32,4.32,0,0,0,1.73-1.9v-2.64h-2.91a5.41,5.41,0,0,0-3.15.82,2.47,2.47,0,0,0-1.18,2.08,2.23,2.23,0,0,0,.73,1.72A3,3,0,0,0,680.58,228.61Z"/><path class="cls-25" d="M689.7,228.57l2-.16V217.68l-2-.16v-1.08H693l.13,2.31a4.6,4.6,0,0,1,1.7-1.89,4.7,4.7,0,0,1,2.53-.67,4,4,0,0,1,3.23,1.32,6.19,6.19,0,0,1,1.12,4.09v6.81l2,.16v1.08h-5.39v-1.08l2-.16v-6.8a4.83,4.83,0,0,0-.84-3.21,3.07,3.07,0,0,0-2.39-.94,3.72,3.72,0,0,0-2.48.81,4.54,4.54,0,0,0-1.38,2.16v8l2,.16v1.08H689.7Z"/><path class="cls-25" d="M709.22,213.06v3.38h2.87v1.19h-2.87v8.61a2.85,2.85,0,0,0,.46,1.84,1.56,1.56,0,0,0,1.24.54c.23,0,.46,0,.68,0l.77-.1.22,1.08a3.7,3.7,0,0,1-.88.25,7.4,7.4,0,0,1-1,.08,2.69,2.69,0,0,1-2.15-.88,4.16,4.16,0,0,1-.76-2.78v-8.61h-2.25v-1.19h2.25v-3.38Z"/><path class="cls-25" d="M720.51,229.9a5.24,5.24,0,0,1-4.08-1.82,6.76,6.76,0,0,1-1.62-4.65v-.67a7,7,0,0,1,1.61-4.7,5,5,0,0,1,3.9-1.87,4.84,4.84,0,0,1,3.78,1.54,5.91,5.91,0,0,1,1.38,4.1v1.25h-9.23v.35a5.84,5.84,0,0,0,1.18,3.73,3.7,3.7,0,0,0,3.08,1.51,6.29,6.29,0,0,0,2.3-.38,4.45,4.45,0,0,0,1.63-1.09l.61,1a5.13,5.13,0,0,1-1.86,1.23A7,7,0,0,1,720.51,229.9Zm-.19-12.46a3.45,3.45,0,0,0-2.69,1.24,5.3,5.3,0,0,0-1.27,3.1l0,.07H724v-.37a4.23,4.23,0,0,0-1-2.88A3.43,3.43,0,0,0,720.32,217.44Z"/><path class="cls-25" d="M737.55,220.52h-1.19l-.17-1.87a3.66,3.66,0,0,0-1.37-.89,5.08,5.08,0,0,0-1.9-.32,3.49,3.49,0,0,0-2.37.69,2.09,2.09,0,0,0-.8,1.62,1.91,1.91,0,0,0,.69,1.51,6.52,6.52,0,0,0,2.72,1.05,9,9,0,0,1,3.49,1.43,3,3,0,0,1,1.16,2.48,3.21,3.21,0,0,1-1.32,2.66,5.58,5.58,0,0,1-3.5,1,7.86,7.86,0,0,1-2.64-.41,6.17,6.17,0,0,1-2.06-1.15v-2.66h1.17l.21,1.88a3.46,3.46,0,0,0,1.47.85,6.67,6.67,0,0,0,1.85.26,4,4,0,0,0,2.48-.7,2.06,2.06,0,0,0,.9-1.68,2.14,2.14,0,0,0-.75-1.62,6,6,0,0,0-2.73-1.14,9.26,9.26,0,0,1-3.46-1.36,2.82,2.82,0,0,1-1.13-2.38,3.2,3.2,0,0,1,1.27-2.55,5.09,5.09,0,0,1,3.35-1.05,7.41,7.41,0,0,1,2.63.45,5.43,5.43,0,0,1,1.94,1.2Z"/><path class="cls-25" d="M755.54,227.74a4.49,4.49,0,0,1-1.67,1.6,4.92,4.92,0,0,1-2.42.56,4.33,4.33,0,0,1-3.67-1.77,7.7,7.7,0,0,1-1.32-4.72v-.26a8.71,8.71,0,0,1,1.32-5.06,4.26,4.26,0,0,1,3.69-1.9,4.47,4.47,0,0,1,4,2.24v-6.58l-2-.16V210.6H757v17.81l2,.16v1.08h-3.26Zm-7.62-4.33a6.8,6.8,0,0,0,1,3.81,3.21,3.21,0,0,0,2.86,1.41,4.06,4.06,0,0,0,2.32-.63,4.26,4.26,0,0,0,1.46-1.75V220a4.49,4.49,0,0,0-1.4-1.83,3.73,3.73,0,0,0-2.36-.71,3.15,3.15,0,0,0-2.87,1.58,7.86,7.86,0,0,0-1,4.11Z"/><path class="cls-25" d="M761.15,222.85a7.18,7.18,0,0,1,1.58-4.79,5.65,5.65,0,0,1,8.4,0,7.18,7.18,0,0,1,1.58,4.79v.4a7.16,7.16,0,0,1-1.58,4.79A5.2,5.2,0,0,1,767,229.9a5.27,5.27,0,0,1-4.22-1.86,7.16,7.16,0,0,1-1.58-4.79Zm1.45.4a6.33,6.33,0,0,0,1.15,3.86,4,4,0,0,0,6.36,0,6.33,6.33,0,0,0,1.15-3.86v-.4a6.31,6.31,0,0,0-1.15-3.84,4,4,0,0,0-6.36,0,6.31,6.31,0,0,0-1.15,3.84Z"/><path class="cls-25" d="M420.42,259.65c-.09-.45-.16-.84-.2-1.16a8.22,8.22,0,0,1-.06-1,5.86,5.86,0,0,1-1.93,1.72,5.49,5.49,0,0,1-2.72.68,4.12,4.12,0,0,1-3-1,3.57,3.57,0,0,1-1.05-2.71,3.35,3.35,0,0,1,1.55-2.9,7.32,7.32,0,0,1,4.23-1.08h2.89v-1.74a2.84,2.84,0,0,0-.9-2.23,3.68,3.68,0,0,0-2.52-.8,6.29,6.29,0,0,0-2,.3,4.47,4.47,0,0,0-1.5.81l-.12,1.77h-1.2l0-2.54a7.63,7.63,0,0,1,2.16-1.15,8.25,8.25,0,0,1,2.69-.44,5.23,5.23,0,0,1,3.48,1.11,4,4,0,0,1,1.32,3.19V257c0,.27,0,.53,0,.78a5.82,5.82,0,0,0,.07.73l1.31.08v1.08Zm-4.75-1a5.27,5.27,0,0,0,2.76-.73,4.32,4.32,0,0,0,1.73-1.9v-2.64h-2.91a5.41,5.41,0,0,0-3.15.82,2.47,2.47,0,0,0-1.18,2.08,2.23,2.23,0,0,0,.73,1.72A3,3,0,0,0,415.67,258.61Z"/><path class="cls-25" d="M424.74,247.52v-1.08H428l.13,2.18a4.61,4.61,0,0,1,1.68-1.79,4.76,4.76,0,0,1,2.5-.64,3.78,3.78,0,0,1,3.94,3,5.16,5.16,0,0,1,1.68-2.19,4.42,4.42,0,0,1,2.67-.8,3.92,3.92,0,0,1,3.23,1.41,6.81,6.81,0,0,1,1.14,4.34v6.46l2,.17v1.08h-5.4v-1.08l2-.17v-6.48a5.44,5.44,0,0,0-.85-3.45,3,3,0,0,0-2.38-1,3.23,3.23,0,0,0-2.6,1.09,5.19,5.19,0,0,0-1.13,2.77,1,1,0,0,0,0,.18v6.91l2,.16v1.08h-5.39v-1.08l2-.16v-6.49a5.4,5.4,0,0,0-.86-3.43,3,3,0,0,0-2.37-1,3.61,3.61,0,0,0-2.45.79,4.2,4.2,0,0,0-1.26,2.12v8l2,.16v1.08h-5.39v-1.08l2-.16V247.68Z"/><path class="cls-25" d="M457.74,259.65c-.1-.45-.16-.84-.2-1.16a8.24,8.24,0,0,1-.07-1,5.76,5.76,0,0,1-1.93,1.72,5.46,5.46,0,0,1-2.72.68,4.12,4.12,0,0,1-3-1,3.57,3.57,0,0,1-1.05-2.71,3.34,3.34,0,0,1,1.56-2.9,7.32,7.32,0,0,1,4.23-1.08h2.88v-1.74a2.87,2.87,0,0,0-.89-2.23,3.7,3.7,0,0,0-2.52-.8,6.25,6.25,0,0,0-2,.3,4.47,4.47,0,0,0-1.5.81l-.13,1.77h-1.19v-2.54a7.69,7.69,0,0,1,2.17-1.15,8.2,8.2,0,0,1,2.69-.44,5.23,5.23,0,0,1,3.48,1.11,4,4,0,0,1,1.31,3.19V257c0,.27,0,.53,0,.78a5.82,5.82,0,0,0,.08.73l1.3.08v1.08Zm-4.76-1a5.28,5.28,0,0,0,2.77-.73,4.24,4.24,0,0,0,1.72-1.9v-2.64h-2.91a5.36,5.36,0,0,0-3.14.82,2.45,2.45,0,0,0-1.18,2.08A2.19,2.19,0,0,0,451,258,2.94,2.94,0,0,0,453,258.61Z"/><path class="cls-25" d="M462.1,258.57l2-.16V247.68l-2-.16v-1.08h3.25l.13,2.31a4.67,4.67,0,0,1,1.7-1.89,4.73,4.73,0,0,1,2.53-.67,4,4,0,0,1,3.24,1.32,6.25,6.25,0,0,1,1.11,4.09v6.81l2,.16v1.08h-5.39v-1.08l2-.16v-6.8a4.83,4.83,0,0,0-.84-3.21,3,3,0,0,0-2.38-.94,3.73,3.73,0,0,0-2.49.81,4.54,4.54,0,0,0-1.38,2.16v8l2,.16v1.08H462.1Z"/><path class="cls-25" d="M477.88,241.69V240.6h3.4v8.1a4.93,4.93,0,0,1,1.74-1.85,4.81,4.81,0,0,1,2.54-.66,3.94,3.94,0,0,1,3.17,1.3,6.06,6.06,0,0,1,1.11,4v6.91l2,.16v1.08h-5.39v-1.08l2-.16v-6.93a4.56,4.56,0,0,0-.84-3.08,2.94,2.94,0,0,0-2.32-.94,3.92,3.92,0,0,0-2.48.79,4.68,4.68,0,0,0-1.47,2.09v8.07l2,.16v1.08h-5.37v-1.08l2-.16V241.85Z"/><path class="cls-25" d="M499.62,259.9a5.24,5.24,0,0,1-4.08-1.82,6.76,6.76,0,0,1-1.62-4.65v-.67a7,7,0,0,1,1.61-4.7,5,5,0,0,1,3.9-1.87,4.84,4.84,0,0,1,3.78,1.54,5.91,5.91,0,0,1,1.38,4.1v1.25h-9.23v.35a5.84,5.84,0,0,0,1.18,3.73,3.7,3.7,0,0,0,3.08,1.51,6.29,6.29,0,0,0,2.3-.38,4.45,4.45,0,0,0,1.63-1.09l.62,1a5.26,5.26,0,0,1-1.87,1.23A7,7,0,0,1,499.62,259.9Zm-.19-12.46a3.45,3.45,0,0,0-2.69,1.24,5.3,5.3,0,0,0-1.27,3.1l0,.07h7.66v-.37a4.23,4.23,0,0,0-1-2.88A3.43,3.43,0,0,0,499.43,247.44Z"/><path class="cls-25" d="M512.75,258.67a4.12,4.12,0,0,0,2.54-.83,2.73,2.73,0,0,0,1.1-2.31h1.28l0,.07a3.62,3.62,0,0,1-1.44,3.07,5.36,5.36,0,0,1-3.5,1.23,4.94,4.94,0,0,1-4.12-1.85,7.46,7.46,0,0,1-1.46-4.75v-.51a7.45,7.45,0,0,1,1.46-4.74,4.94,4.94,0,0,1,4.11-1.86,6.64,6.64,0,0,1,2.77.58,5.35,5.35,0,0,1,2,1.56l.06,2.88h-1.23l-.23-2.34a4.26,4.26,0,0,0-1.44-1.05,4.94,4.94,0,0,0-2-.38,3.48,3.48,0,0,0-3.11,1.52,6.8,6.8,0,0,0-1,3.83v.51a6.86,6.86,0,0,0,1,3.86A3.49,3.49,0,0,0,512.75,258.67Z"/><path class="cls-25" d="M526.15,259.9a5.24,5.24,0,0,1-4.08-1.82,6.76,6.76,0,0,1-1.62-4.65v-.67a7,7,0,0,1,1.61-4.7,5,5,0,0,1,3.9-1.87,4.84,4.84,0,0,1,3.78,1.54,5.91,5.91,0,0,1,1.38,4.1v1.25h-9.23v.35a5.89,5.89,0,0,0,1.17,3.73,3.74,3.74,0,0,0,3.09,1.51,6.29,6.29,0,0,0,2.3-.38,4.45,4.45,0,0,0,1.63-1.09l.61,1a5.13,5.13,0,0,1-1.86,1.23A7,7,0,0,1,526.15,259.9ZM526,247.44a3.43,3.43,0,0,0-2.69,1.24,5.3,5.3,0,0,0-1.27,3.1l0,.07h7.66v-.37a4.28,4.28,0,0,0-1-2.88A3.43,3.43,0,0,0,526,247.44Z"/><path class="cls-25" d="M536.83,246.44l.18,2.2v.15a4.7,4.7,0,0,1,1.52-1.91,3.79,3.79,0,0,1,2.27-.69,3.1,3.1,0,0,1,.54.05l.43.09-.19,1.36-1.08-.07a3.25,3.25,0,0,0-2.24.78,4.25,4.25,0,0,0-1.25,2.13v7.88l2,.16v1.08H533.6v-1.08l2-.16V247.68l-2-.16v-1.08h3.23Z"/><path class="cls-25" d="M545.92,259.65H544.2v-2h1.72Zm-.15-5.84h-1.44V241.87h1.44Z"/></svg>