<svg id="Camada_1" data-name="Camada 1" xmlns="http://www.w3.org/2000/svg" xmlns:xlink="http://www.w3.org/1999/xlink" viewBox="0 0 849.53 508.08"><defs><style>.cls-1{fill:none;}.cls-2{clip-path:url(#clip-path);}.cls-3{fill:#eaa000;}.cls-4{fill:#6d472e;}.cls-5{fill:#eac2a7;}.cls-6{fill:#97d8dd;}.cls-7{fill:#027e8f;}.cls-8{fill:#65c4d1;}.cls-9{fill:#ffd478;}.cls-10{clip-path:url(#clip-path-2);}.cls-11{fill:#c9a68f;}.cls-12{fill:#d6aa8b;}.cls-13{fill:#d6d6d6;}.cls-14{fill:#c99f4b;}.cls-15{fill:#6d5f56;}.cls-16{fill:#493e38;}.cls-17{clip-path:url(#clip-path-3);}.cls-18{fill:#fcfcfc;}.cls-19{fill:#d32222;}.cls-20{fill:#f4f4f4;}.cls-21{clip-path:url(#clip-path-4);}.cls-22{fill:#b7b7b7;}.cls-23{fill:#c99e32;}.cls-24{clip-path:url(#clip-path-5);}.cls-25{fill:#aa7e30;}.cls-26{fill:#fff;}.cls-27{fill:#ddd;}.cls-28{fill:#846829;}.cls-29{fill:#e8cd95;}</style><clipPath id="clip-path"><ellipse class="cls-1" cx="191.18" cy="-269.12" rx="191.41" ry="188.94"/></clipPath><clipPath id="clip-path-2"><ellipse class="cls-1" cx="191.18" cy="308.26" rx="191.41" ry="188.94"/></clipPath><clipPath id="clip-path-3"><path class="cls-1" d="M167.86,254.18c-.37-.4,22.37,1.44,31-5,0,0,1.71,17.48-6,19.39C184.89,270.52,175.68,267.3,167.86,254.18Z"/></clipPath><clipPath id="clip-path-4"><path class="cls-1" d="M180.73,512.92c5.28,10.59,42.42,12.82,45.5,13.8,0,0,1-42.5-5-66.37S180.73,512.92,180.73,512.92Z"/></clipPath><clipPath id="clip-path-5"><path class="cls-1" d="M135.57,249.51c6.55,2.74.91-9.12.91-9.12s-.62-11.9-4-13.92a48.23,48.23,0,0,1-7.26-6L142,208.87l45.74-31.68s6.32-8.9-8.13-14.38a17.12,17.12,0,0,0-17.5-5.25s-6.32-7.64-15.46-.62c0,0-18.41-1.09-22.58,8a6.86,6.86,0,0,0-6.78,3.88s-3.83,1.48-4.57,4.62c0,0-9.31,3.71-9.88,10,0,0-5.08,7.19-1,13,0,0-2.68,5.1.79,8.61,0,0-7.79,8.61,0,14,0,0-1.92,5.59,9.48,7.87l3.39,7.07s3.26-1.49,12.64,8Z"/></clipPath></defs><title>Fala1</title><g class="cls-2"><path class="cls-3" d="M154.32-423.41a10.87,10.87,0,0,1,7.78,3.59,18.67,18.67,0,0,1,4.72-.63,17.11,17.11,0,0,1,12.78,5.88c14.05,5.32,8.47,13.87,8.15,14.35l.15,0s8.24,5.82,5.42,8.67c0,0,5.08,6.38,1,9.8a4.45,4.45,0,0,1-1.48.75c11.55,18.18,18.44,50.26,13.89,76.72-.9,5.24-6.82,9-22.79,9h0a84.06,84.06,0,0,1-15.44-1.38c.15,1.23.32,2.57.5,3.91h0c.8,5.76,2,12.31,3.24,13.27,8.14,6.18,20.28,8.74,27.1,9.74l9.89.93a23.89,23.89,0,0,1,5.13,7.62h0l57.69,54.11L317.58-246s3-12,19.87-12a42.35,42.35,0,0,1,6.93.6c23,3.76-2.08,6.5-2.08,6.5s2.6-.22,6.44-.22c5.75,0,14.29.5,21,3l3.47,4.28-8,8s-18.35,2.56-28.85,2.56c-3.34,0-5.88-.25-6.8-.93a.65.65,0,0,0-.41-.12c-6.25,0-57.67,49-57.67,49l-52.95-43.27c.78,10.62,1.34,22,1.22,32.45a338.08,338.08,0,0,1-2.93,40.5c2.31,1.65.64,5.16.64,5.16l4.32,34.76c0,.26,0,.51-.06.77,5.38,24.18,4.47,64.26,4.47,64.26a42.71,42.71,0,0,0-4.55-.69l0,2.91h0c-.11,20.26,0,49.52,1.14,56.19,1.87,10.44,0,15.57,0,15.57s5.08,81.22,5.08,81.85S235,115,235,115s9.4,7.48,16.72,13.41h0s4.41,1.16,6.13,2.62a6.08,6.08,0,0,1,1.85,3.88c.48.34,1.29.89,2.22,1.56a23.38,23.38,0,0,0,6.35,1.2c1,1,0,2.12-1.31,3,.73.79,1.17,1.48,1.05,1.93-.48,1.78-7.29,9-19.6,9-.7,0-1.41,0-2.13-.07-12.93-.85-30.85-14.77-32.32-18.65a11.65,11.65,0,0,1,.19-7.82h0c0-3.3,2-7.26,3.07-9.24,1.69-3.08,2.87-11.8,2.87-11.8C201.45,38,212.12,28.74,210.08,24c-1.29-3.05-12.8-46.29-21-77.39h0l0-.1c-.48-1.81-.95-3.59-1.4-5.31a21.61,21.61,0,0,1-4.25-2.54,132.36,132.36,0,0,1-22.35,9L136.48,9.8s-4.21,15.66-9.21,20.71a223.86,223.86,0,0,1-12.36,36.1c-8.46,19.17-12.19,45.52-12.19,45.52s6.07,15.57,6.78,25.29c7.13,9.87,13.54,22.05,5,25.65a48.4,48.4,0,0,1-18.48,3.28c-10.25,0-19.43-2.43-21.57-4.59-3.44-3.47,6.33-29.83,6.33-29.83.3-2.4,1-4.71,2.34-5.68,3.39-2.4,7.45-8.22,7.45-8.22s-1.27-3.42,2.29-8,8.8-34.25,8.8-38.13S97,39,112.77,27.6c0,0,1.81-37,6.44-63.85h0c.5-3,1.05-6,1.64-8.65-4.85.4-7.76.46-7.76.46s4.69-13.22,10.68-30.22c-5.11-.49-1.74-8.51-1.74-8.51a41.89,41.89,0,0,0,6-3.58l2-5.57c-1.69-4.21,2.53-17.32,2.53-17.32L117-121.47,71.9-155.84s36.24-86.36,37.71-87.84c1-1,8-5.11,12.78-7.92h0c5-5.1,15.89-9.14,15.89-9.14s10.33-11.8,12.53-14,1.19-8.38,1.19-8.38l-5.66-22c-10-6.34-13.93-13.41-13.93-13.41a5,5,0,0,1-3.68,1.5c-3.29,0-6.59-2.52-6.59-2.52S107.8-334,112.32-340.88a4.23,4.23,0,0,1,3.72-2.07c2.95,0,6.47,2.46,8.94,4.57-5.08-4.48-7.8-5.1-8.9-5.1a1.69,1.69,0,0,0-.35,0l-.08.06-.07,0-.1,0,0-.11c-1.07-.53-5.87-3.2-6.29-7.71-8.1-2.56-6.53-7.12-6.53-7.12-7.79-5.36,0-14,0-14-3.47-3.5-.79-8.61-.79-8.61-4.07-5.82,1-13,1-13,.57-6.28,9.88-10,9.88-10,.74-3.13,4.57-4.62,4.57-4.62a6.77,6.77,0,0,1,6.26-3.9,3.87,3.87,0,0,1,.52,0c3.37-7.38,16-8.09,20.77-8.09,1.13,0,1.81,0,1.81,0a12.59,12.59,0,0,1,7.68-3m-12.74,298c2-5.85,3.78-11,5.1-14.87-2.09-4.24,1.19-6.15,2.17-6.61.12-.38.21-.69.27-.92,2-7.53-17.1-44.46-17.1-44.46l-16.16-10.23-22.65,43L129.42-134l12.16,8.56m117.6,260.08h0m-104.86-564h0a17.63,17.63,0,0,0-9.5,2.92c-6.9,0-18.45,1.18-24.24,8.38a12.47,12.47,0,0,0-7.54,5,13.8,13.8,0,0,0-4.92,4.73c-3.49,1.83-9.57,5.85-11,12.26-2.17,3.69-4.16,9.83-1.83,15.66a13.82,13.82,0,0,0,.22,7.88,16.43,16.43,0,0,0-2.28,9.75,12.67,12.67,0,0,0,3.42,7.26,10.64,10.64,0,0,0,1,2.81,13.64,13.64,0,0,0,6.55,6,14.79,14.79,0,0,0,2.42,3.83c-2.4,4.88-1.06,11.14,4,18.61a70.73,70.73,0,0,0,7.31,9l.3.29.33.26c.82.62,5.17,3.75,10.23,3.75a12.09,12.09,0,0,0,1.61-.11,54,54,0,0,0,10.77,9.75l5,19.42a13,13,0,0,1,0,3.41c-2.39,2.51-8.84,9.85-11.4,12.76-3.31,1.35-11.13,4.82-16,9.38-11.75,6.85-12.7,7.81-13.4,8.51-1.15,1.16-1.72,1.74-20.66,46.35C75.54-180,66.46-158.38,66.37-158.16l-1.8,4.28,3.69,2.81,45.11,34.37,12.22,9.32c-1.25,4.65-2.38,10.39-1.82,14.67L123-90.59c-1.46.92-3,1.72-3.59,2l-2.05,1-.89,2.11c-.74,1.77-3,7.93-.18,12.58.1.17.2.33.31.49-5.26,14.91-9.18,26-9.18,26l-2.9,8.17,8.66-.16h.29l-.18,1.12-.17.82v.09c-3.87,22.86-5.73,52.08-6.23,61-14.08,12.7-12,37-11.36,45.28.06.75.14,1.7.14,2-.09,4.33-5.14,30.54-7.61,34.52a16.33,16.33,0,0,0-3.7,10,29.32,29.32,0,0,1-4.69,5c-2.52,1.78-4.08,4.77-4.74,9.12-.66,1.84-2.65,7.44-4.37,13.42-3.68,12.86-3.78,18.64-.37,22.09,4.33,4.38,16.43,6.37,25.84,6.37a54.18,54.18,0,0,0,20.82-3.76,12,12,0,0,0,7.22-8c1.75-6.26-1-14.34-8.79-25.37-1-8.57-4.92-19.71-6.42-23.76.92-5.72,4.61-26.81,11.51-42.44a233.7,233.7,0,0,0,12.36-35.7c5-6.28,8.52-18.38,9.42-21.65l23.39-59.26a139.66,139.66,0,0,0,17.06-6.74l.61,2.3,0,.07c17.33,65.63,20.3,75.51,21.08,77.67,0,.48-.19,1.35-.31,2.08-1.28,7.76-4.27,25.87,9.92,76.67a41.87,41.87,0,0,1-2,8.52c-2.32,4.22-3.56,7.86-3.78,11.09a17.25,17.25,0,0,0,.17,11c1.93,5.12,11.36,11.53,14.21,13.37,4.87,3.16,14.39,8.56,23.32,9.15.84,0,1.69.08,2.53.08,14.49,0,24.09-8.63,25.39-13.46a6.53,6.53,0,0,0,.19-2.52,7.59,7.59,0,0,0,.66-2.39,7.26,7.26,0,0,0-2.11-5.81l-1.66-1.67-2.35-.1a20.69,20.69,0,0,1-3.58-.53,11.07,11.07,0,0,0-3.23-4.71,21.89,21.89,0,0,0-7.17-3.46c-6-4.89-13.19-10.58-15.24-12.22-2.1-2.74-4.44-5.87-5.52-7.44-.27-4.5-1.26-20.6-4.93-79.4.62-2.57,1.46-8.27-.15-17.27-.38-2.12-1.22-11.29-1.07-50.61L232-42.51l.19-8c0-1.65.84-40.16-4.42-64.81v0l0-.53-.06-.54-4.15-33.35a10.67,10.67,0,0,0-.5-7.45A349.59,349.59,0,0,0,225.79-196c.07-5.83-.06-12.18-.4-19.19l42.33,34.59,4.1,3.35,3.84-3.66c21-20.06,46.44-42.69,53.61-46.94a29.69,29.69,0,0,0,7.13.64c10.79,0,28.91-2.51,29.68-2.62l2-.28,1.42-1.44,8-8,3.79-3.83-3.39-4.17-3.48-4.28-1-1.28-1.55-.57a54,54,0,0,0-12.11-2.72c-.65-1.78-2.24-3.62-5.73-4.85a52.86,52.86,0,0,0-8.61-2,49.23,49.23,0,0,0-7.9-.68c-16.89,0-23,10-24.95,14.45l-40.26,34.41-52.91-49.63a29.84,29.84,0,0,0-5.84-8.26L212-274.55l-2.17-.2-9.73-.92c-5.8-.86-16.16-3-23.24-7.86a48.69,48.69,0,0,1-1.29-6.09c2.76.24,5.57.37,8.42.37,6.52,0,26.31,0,28.72-14,4.21-24.55-.88-55.79-12.17-76.57,2.31-3.85,1.57-8.62-.61-12.62a7.47,7.47,0,0,0,0-1.25c-.29-3.31-2.6-6.3-5-8.56a13.4,13.4,0,0,0-.37-6.51c-1.46-4.63-5.29-8.28-11.39-10.88a23,23,0,0,0-16.29-6.82,25.11,25.11,0,0,0-3,.19,16.27,16.27,0,0,0-9.52-3.15ZM101-161.38,118.14-194l9.28,5.87c1.44,2.84,4.78,9.52,8,16.75,6,13.34,7.42,19,7.74,21.13a10.4,10.4,0,0,0-2.63,4,10.25,10.25,0,0,0-.22,5.95L138.51-135l-5.63-4L101-161.38Z"/><path class="cls-4" d="M214.13,125.13a11.65,11.65,0,0,0-.19,7.82c1.47,3.88,19.39,17.8,32.32,18.65,13.65.9,21.22-7.07,21.73-8.95s-8.81-8-8.81-8Z"/><path class="cls-4" d="M80.82,131.93s-9.77,26.36-6.33,29.83,25.07,7.64,40.05,1.31-16.35-39.36-16.35-39.36Z"/><path class="cls-5" d="M169.1-72.87,136.48,9.8s-4.21,15.66-9.2,20.71a224.55,224.55,0,0,1-12.37,36.1c-8.46,19.17-12.19,45.52-12.19,45.52s7.71,19.76,6.77,28.66c0,0,7.37,10.27,4.41,16.17s-14.57,2.4-14.57,2.4-19.39,2.56-22.26-2.31,3.64-18,3.64-18-.94-10.44,2.45-12.83S90.61,118,90.61,118s-1.27-3.42,2.29-8,8.8-34.25,8.8-38.13S97,39,112.77,27.6c0,0,3.84-78.72,14.67-89.67S169.1-79.52,169.1-79.52Z"/><path class="cls-5" d="M180.73-85.11S208.05,19.16,210.08,24s-8.63,14.09,10,80.14c0,0-1.18,8.72-2.87,11.8s-5.59,11-.68,13.69,20.83,16.43,27.6,17.63,19.48-4.79,19.48-4.79,6.77-2.57,4.65-4.71c0,0-6.18-.26-8.21-2.31S235,115,235,115s-7.12-9.24-7.12-9.87-5.08-81.85-5.08-81.85,1.87-5.13,0-15.57-1-76.21-1-76.21Z"/><path class="cls-4" d="M75.76,152s19.39-8.39,38.78-2a8.62,8.62,0,0,0-1.44-4.79c-1.61-2.57-25.91-6.5-36.24,2.1C76.86,147.37,74.66,150.57,75.76,152Z"/><path class="cls-4" d="M239.73,145.51s.76-17.26,19.45-10.89l.5.42a6.16,6.16,0,0,0-1.85-4c-1.72-1.46-6.13-2.62-6.13-2.62s-17.12-4.26-16.87,14.12C234.83,142.57,237.5,146.37,239.73,145.51Z"/></g><path class="cls-3" d="M178.26,157.85C271.73,158,347.47,234.5,347.58,329S271.77,500,178.26,500,9,423.44,9,329s75.8-171.1,169.31-171.1m0-8h0a174.72,174.72,0,0,0-69,14.09,176.7,176.7,0,0,0-56.36,38.4,180.11,180.11,0,0,0,0,253.21A176.53,176.53,0,0,0,109.21,494a176.24,176.24,0,0,0,138.1,0,178.86,178.86,0,0,0,94.34-95.32,180.09,180.09,0,0,0-38-196.23A176.72,176.72,0,0,0,247.28,164a174.9,174.9,0,0,0-69-14.15Z"/><path class="cls-6" d="M178.26,157.85C84.75,157.85,8.94,234.45,8.94,329S84.75,500,178.26,500,347.58,423.44,347.58,329,271.73,158,178.26,157.85Zm0,330.78c-87.28,0-158-71.49-158-159.68S91,169.26,178.26,169.26s158,71.49,158,159.69S265.5,488.53,178.26,488.63Z"/><path class="cls-6" d="M258.17,204.66a5.62,5.62,0,0,0-7.82,1.67l-9.23,14.34a5.79,5.79,0,0,0-.78,4.37,5.71,5.71,0,0,0,2.57,3.61,74.63,74.63,0,0,1,6.33,4.56c1.27,1,2.54,2,3.54,2.66,1.75,1.46,3.43,3,5.11,4.55l-3.9,4a112.65,112.65,0,0,0-24.75-17.13l11.54-26.16a5.72,5.72,0,0,0-2.86-7.54,146.45,146.45,0,0,0-52-12.51,5.57,5.57,0,0,0-4.08,1.45,5.71,5.71,0,0,0-1.85,4l-.88,17.08a5.69,5.69,0,0,0,5.33,6l5.95.31,6.33,1c.81.14,1.62.26,2.43.38,1.23.18,2.45.35,3.52.6l.78.2L202,217.54a114.16,114.16,0,0,0-29.89-2.44l-2.93-28.54a5.76,5.76,0,0,0-2.06-3.84,5.63,5.63,0,0,0-4.15-1.24,144.31,144.31,0,0,0-51.28,15.44,5.73,5.73,0,0,0-2.45,7.67l7.7,15.24a5.61,5.61,0,0,0,7.39,2.58c1.14-.53,2.26-1.09,3.39-1.64a58.13,58.13,0,0,1,8.06-3.51l1.45-.54c1.69-.63,3.34-1.25,5-1.81l1.46,5.52c-1.38.48-2.73,1-4.08,1.48l-1.33.52a52.9,52.9,0,0,0-8,3.43c-1,.49-1.94,1-3.4,1.67l-9.56,5.56-.65.37L100,210.35a5.6,5.6,0,0,0-7.88-1.26A147.89,147.89,0,0,0,55.26,248.2a5.8,5.8,0,0,0-.79,4.3,5.68,5.68,0,0,0,2.45,3.6l14.19,9.33a5.62,5.62,0,0,0,7.9-1.81,71,71,0,0,1,4.49-6.38c1-1.3,2-2.59,2.65-3.6,1.45-1.76,3-3.46,4.51-5.15l3.9,3.94a113.64,113.64,0,0,0-17,25L51.72,265.76a5.63,5.63,0,0,0-7.46,2.9,150.25,150.25,0,0,0-12.38,52.56,5.67,5.67,0,0,0,5.34,6l16.91.88a5.58,5.58,0,0,0,4.08-1.44,5.71,5.71,0,0,0,1.85-3.95l.3-6,1-6.39c.14-.82.26-1.65.38-2.48.17-1.23.34-2.47.58-3.53l.2-.79L68,305a116.9,116.9,0,0,0-2.42,30.2l-28.24,3a5.68,5.68,0,0,0-3.8,2.08,5.78,5.78,0,0,0-1.23,4.19A150.08,150.08,0,0,0,47.6,396.25a5.68,5.68,0,0,0,3.29,2.83,5.59,5.59,0,0,0,4.3-.35L70.27,391a5.73,5.73,0,0,0,2.55-7.48c-.52-1.13-1.06-2.25-1.6-3.37a58.7,58.7,0,0,1-3.49-8.2l-.55-1.5c-.63-1.7-1.23-3.35-1.77-5l5.52-1.49a114.1,114.1,0,0,0,12.89,27.3L60.9,408.07a5.74,5.74,0,0,0-1.25,8,147.51,147.51,0,0,0,38.7,37.19,5.61,5.61,0,0,0,4.25.81,5.67,5.67,0,0,0,3.57-2.47l9.23-14.35a5.73,5.73,0,0,0-1.79-8,72.47,72.47,0,0,1-6.33-4.56c-1.27-1-2.54-2-3.54-2.66-1.75-1.46-3.43-3-5.1-4.55l4-4c1.52,1.39,3.06,2.8,4.95,4.36,1.1.78,2.17,1.61,3.24,2.44a68.86,68.86,0,0,0,6.28,4.48l10.08,5.84.13.06-11.56,26.19a5.8,5.8,0,0,0-.12,4.37,5.72,5.72,0,0,0,3,3.17,146.29,146.29,0,0,0,52,12.51h.29a5.67,5.67,0,0,0,5.63-5.41l.88-17.08a5.69,5.69,0,0,0-5.33-6l-5.94-.31-6.33-1c-.81-.14-1.63-.26-2.44-.38-1.22-.17-2.45-.35-3.52-.6l-.77-.19,1.48-5.59a114.09,114.09,0,0,0,29.89,2.44l2.93,28.54a5.66,5.66,0,0,0,2.06,3.84,5.59,5.59,0,0,0,4.14,1.24A144.28,144.28,0,0,0,244.87,461a5.74,5.74,0,0,0,2.45-7.68l-7.7-15.23a5.63,5.63,0,0,0-7.4-2.59c-1.13.53-2.25,1.09-3.38,1.65a57.68,57.68,0,0,1-8.07,3.5l-1.44.55c-1.7.63-3.34,1.25-5,1.8l-1.48-5.59a110.7,110.7,0,0,0,27-13l16.69,23.17a5.6,5.6,0,0,0,7.88,1.26,147.73,147.73,0,0,0,36.81-39.11,5.73,5.73,0,0,0-1.65-7.9l-14.2-9.33a5.6,5.6,0,0,0-7.89,1.82,76.37,76.37,0,0,1-4.5,6.38c-1,1.29-1.95,2.58-2.65,3.59-1.44,1.77-3,3.47-4.5,5.16l-3.9-4a113.43,113.43,0,0,0,16.94-25l25.89,11.66a5.63,5.63,0,0,0,7.46-2.89,150.54,150.54,0,0,0,12.39-52.56,5.69,5.69,0,0,0-5.35-6l-16.91-.89a5.72,5.72,0,0,0-5.93,5.39l-.3,6-1,6.39c-.14.83-.26,1.65-.37,2.48-.18,1.23-.35,2.47-.59,3.54l-.2.79-5.44-1.47,0-.14c.31-1.33.51-2.68.69-4,.09-.63.17-1.27.29-2l.87-5.61a5.42,5.42,0,0,0,.06-.58l.3-6V323.27a2.81,2.81,0,0,0,0-.29l0-.27,28.36-3a5.63,5.63,0,0,0,3.79-2.08,5.72,5.72,0,0,0,1.23-4.19,149.58,149.58,0,0,0-15.28-51.82,5.6,5.6,0,0,0-7.58-2.48L286.25,267a5.73,5.73,0,0,0-2.56,7.48c.52,1.13,1.07,2.24,1.61,3.36a59.21,59.21,0,0,1,3.49,8.2l.55,1.5c.63,1.7,1.23,3.35,1.77,5L285.58,294a113.44,113.44,0,0,0-12.88-27.29l22.92-16.86a5.67,5.67,0,0,0,2.26-3.72,5.74,5.74,0,0,0-1-4.25A147.51,147.51,0,0,0,258.17,204.66Zm3.44,56.07a5.71,5.71,0,0,0-2.26,3.72,5.78,5.78,0,0,0,1,4.25,102,102,0,0,1,15.91,33.69,5.67,5.67,0,0,0,6.91,4L299.54,302a5.7,5.7,0,0,0,4.06-6.7,82.16,82.16,0,0,0-3.68-11.79l-.45-1.22a58.48,58.48,0,0,0-3.17-7.74l5-2.59a138.51,138.51,0,0,1,10.93,37l-27.94,2.93a5.7,5.7,0,0,0-5.06,6l.29,5.53v10.91l-.28,5.37-.8,5.24c-.13.74-.24,1.49-.34,2.24-.14,1-.27,2-.47,2.88l-1.41,5.48a5.72,5.72,0,0,0,4,6.95l16.36,4.41a5.63,5.63,0,0,0,4.3-.58,5.72,5.72,0,0,0,2.62-3.51l1.65-6.5c.35-1.52.58-3.07.8-4.61.1-.74.2-1.46.34-2.29l1-7,.05-.87,5.54.28a139.7,139.7,0,0,1-8.84,37.55l-25.66-11.56a5.58,5.58,0,0,0-4.32-.11,5.65,5.65,0,0,0-3.14,3,102.14,102.14,0,0,1-20.92,30.87,5.76,5.76,0,0,0,0,8.06l12,12.1a5.47,5.47,0,0,0,4.16,1.66,5.57,5.57,0,0,0,4-1.91q1.52-1.71,3.06-3.4c2-2.14,3.91-4.29,6-6.86.86-1.22,1.76-2.41,2.67-3.61.63-.83,1.26-1.66,1.89-2.52l4.74,3.11a136.37,136.37,0,0,1-26.31,28l-16.54-23a5.59,5.59,0,0,0-7.88-1.25A100.21,100.21,0,0,1,204.54,428a5.65,5.65,0,0,0-3.43,2.66,5.79,5.79,0,0,0-.57,4.33l4.38,16.53a5.64,5.64,0,0,0,6.64,4.1,83.31,83.31,0,0,0,11.7-3.73l1.17-.44a57.54,57.54,0,0,0,7.65-3.21l2.56,5.09a135.53,135.53,0,0,1-36.64,11l-2.89-28.23a5.62,5.62,0,0,0-2-3.84A5.55,5.55,0,0,0,189,431a102.62,102.62,0,0,1-37-3,5.57,5.57,0,0,0-4.28.57,5.66,5.66,0,0,0-2.63,3.46l-4.38,16.53a5.78,5.78,0,0,0,.58,4.36,5.67,5.67,0,0,0,3.46,2.64l6.43,1.67c1.52.35,3.05.58,4.59.81.71.1,1.43.2,2.24.34l7,1.05.87.05-.29,5.6a135.7,135.7,0,0,1-37.15-8.94l11.44-25.92a5.73,5.73,0,0,0-2.71-7.46l-4.69-2.27-9.62-5.59a56.16,56.16,0,0,1-5.14-3.7c-1.2-.93-2.39-1.85-3.27-2.45-1.63-1.36-3.18-2.81-4.75-4.25-1.16-1.08-2.32-2.16-3.52-3.22a5.61,5.61,0,0,0-7.7.27l-12,12.1a5.74,5.74,0,0,0,.24,8.29c1.11,1,2.22,2,3.32,3,2.14,2,4.29,4,6.84,6.09,1.21.87,2.38,1.78,3.55,2.69.83.64,1.67,1.29,2.52,1.93l-3.08,4.79a136,136,0,0,1-27.67-26.59l22.73-16.71a5.72,5.72,0,0,0,1.24-8,102.33,102.33,0,0,1-15.91-33.7,5.65,5.65,0,0,0-6.9-4L57,355.89a5.7,5.7,0,0,0-4.07,6.7,84.76,84.76,0,0,0,3.68,11.79l.46,1.22a58.43,58.43,0,0,0,3.16,7.74l-5,2.59a139.31,139.31,0,0,1-10.93-37L72.21,346a5.7,5.7,0,0,0,5-6.23,105.59,105.59,0,0,1,3-37.34,5.81,5.81,0,0,0-.56-4.34,5.65,5.65,0,0,0-3.44-2.65L59.89,291a5.59,5.59,0,0,0-4.3.59,5.73,5.73,0,0,0-2.62,3.5l-1.65,6.5c-.35,1.52-.58,3.07-.8,4.62-.1.73-.2,1.46-.34,2.28l-1,7,0,.87-5.54-.28a139.31,139.31,0,0,1,8.83-37.55l25.67,11.56a5.54,5.54,0,0,0,4.32.11,5.67,5.67,0,0,0,3.13-3,102.44,102.44,0,0,1,20.92-30.87,5.73,5.73,0,0,0,0-8.05l-12-12.1a5.6,5.6,0,0,0-8.21.24q-1.51,1.71-3.06,3.4c-2,2.15-3.9,4.3-6,6.86-.86,1.22-1.76,2.42-2.67,3.61-.62.83-1.26,1.67-1.89,2.53l-4.74-3.12a136.37,136.37,0,0,1,26.31-28l16.55,23a5.6,5.6,0,0,0,7.89,1.25l1.31-1a20,20,0,0,1,2.76-1.92l9.24-5.4c1.09-.5,2.16-1,3.24-1.57a45.36,45.36,0,0,1,6.6-2.86l1.69-.62a55.51,55.51,0,0,1,8.17-2.62,5.66,5.66,0,0,0,3.66-2.59,5.76,5.76,0,0,0,.66-4.47L151.6,206.4a5.64,5.64,0,0,0-6.64-4.1,83.31,83.31,0,0,0-11.7,3.73l-1.17.44a58,58,0,0,0-7.65,3.2l-2.57-5.08a135.73,135.73,0,0,1,36.65-11.05l2.89,28.24a5.64,5.64,0,0,0,2,3.84,5.53,5.53,0,0,0,4.13,1.25,102.62,102.62,0,0,1,37,3,5.61,5.61,0,0,0,4.28-.57,5.68,5.68,0,0,0,2.63-3.47l4.38-16.53a5.75,5.75,0,0,0-.58-4.35,5.63,5.63,0,0,0-3.46-2.64l-6.43-1.67c-1.51-.36-3-.59-4.58-.81-.72-.1-1.44-.21-2.25-.35l-7-1-.87,0,.29-5.6a135.23,135.23,0,0,1,37.15,8.93l-11.43,25.93a5.7,5.7,0,0,0,2.87,7.53,101.36,101.36,0,0,1,30.55,21.15,5.61,5.61,0,0,0,8,0l12-12.1a5.74,5.74,0,0,0-.24-8.29c-1.11-1-2.21-2-3.31-3.05-2.15-2-4.29-4-6.84-6.09-1.21-.86-2.39-1.77-3.56-2.68-.83-.64-1.66-1.29-2.52-1.93l3.09-4.79A135.9,135.9,0,0,1,284.33,244Z"/><path class="cls-6" d="M178.26,237.7A90,90,0,0,0,99.9,283.46a91.91,91.91,0,0,0,.49,91.46,4.25,4.25,0,0,0,.35.58,91.51,91.51,0,0,0,23,26c.14.1.23.25.38.34s.09,0,.12,0a88.88,88.88,0,0,0,108,0c.05,0,.1,0,.15-.06s.24-.24.38-.34a91.36,91.36,0,0,0,23-26,5.65,5.65,0,0,0,.36-.58,91.91,91.91,0,0,0,.48-91.46A89.94,89.94,0,0,0,178.26,237.7Zm-10.17,12.15L105.44,359.93a80.52,80.52,0,0,1,4.31-70.74A78.92,78.92,0,0,1,168.09,249.85Zm-33.7,145.46,43.87-77.06,43.87,77.06a78.14,78.14,0,0,1-87.74,0Zm96.69-7.15L185.6,308.27a8.42,8.42,0,0,0-14.68,0l-45.48,79.89a80.27,80.27,0,0,1-13.73-16.35l66.56-117,12.9,22.63c.08.17.16.34.26.51l53.38,93.85a80.27,80.27,0,0,1-13.73,16.35Zm20-28.23-49.61-87.2a3.16,3.16,0,0,0-.26-.52l-12.76-22.36a78.9,78.9,0,0,1,58.32,39.35,80.53,80.53,0,0,1,4.31,70.73Z"/><path class="cls-7" d="M597.12,33.21c-131.18,0-239,88.6-251.44,202L271,264.91s-4.88,1.8-4.39,8.8a9.53,9.53,0,0,0,5.58,8.17l78.16,23.46C375.26,405.81,476.27,481,597.12,481c139.53,0,252.65-100.24,252.65-223.9S736.65,33.21,597.12,33.21Z"/><path class="cls-8" d="M597.08,0c-131.18,0-239,88.6-251.44,202L271,231.74s-4.88,1.81-4.39,8.81a9.53,9.53,0,0,0,5.58,8.16l78.16,23.46c24.89,100.47,125.9,175.67,246.75,175.67,139.53,0,252.65-100.24,252.65-223.9S736.61,0,597.08,0Z"/><path class="cls-9" d="M538.68,77.3v5.14H528.52v21.89h-6.08v-27Z"/><path class="cls-9" d="M554,103a15.2,15.2,0,0,1-7.62,1.8c-4.24,0-8.81-1.56-8.81-6A5,5,0,0,1,541.81,94v-.2c-2.11-.69-3.34-2.17-3.34-4.1,0-2.68,2.66-5.45,8.46-5.45a12.09,12.09,0,0,1,6.51,1.49l-1,3.84a10.41,10.41,0,0,0-4.57-1.12c-2.1,0-3.29.76-3.29,1.89s1.62,1.72,4.44,1.72h1.91v4H549c-2.82,0-5,.44-5,2s1.87,2.2,3.89,2.2a13.25,13.25,0,0,0,5.2-1.2Z"/><path class="cls-9" d="M563,98.24c0,1.48.55,2,1.82,1.88l-.31,4.25a7.38,7.38,0,0,1-2.54.4c-3.14,0-5-1.32-5-6V84.72h6Z"/><path class="cls-9" d="M586.77,84.72c-.28,3.09-.56,8.62-.56,12.79,0,2.21.76,2.77,1.83,2.69l-.36,4.25a6.22,6.22,0,0,1-2.1.32c-2.26,0-3.65-1.2-4.21-3.57h-.08a7,7,0,0,1-6.23,3.57c-4.48,0-8.09-3.81-8.09-9.82,0-6.62,4.44-10.67,8.81-10.67a5.72,5.72,0,0,1,5.31,3h.16a19.72,19.72,0,0,1,.48-2.57Zm-10,15.24c1.75,0,3.13-1.72,3.53-3.65a15.63,15.63,0,0,0,.12-2,10.28,10.28,0,0,0-.08-1.65c-.36-2.24-1.71-3.77-3.41-3.77-2.34,0-3.81,2.61-3.81,5.7S574.59,100,576.73,100Z"/><path class="cls-9" d="M619.74,88.69c-1,0-2.26-.08-4.2-.28l0,.2a8.51,8.51,0,0,1,2.54,6c0,7-4.76,10.14-9.88,10.14-5.68,0-10-3.69-10-10s4.08-10.47,10.75-10.47H620Zm-7.65,5.78c0-2.89-1.08-5.86-3.74-5.86-2.93,0-4,3-4,5.9,0,3.37,1.39,5.89,3.89,5.89C610.58,100.4,612.09,98,612.09,94.47Z"/><path class="cls-9" d="M642,94.31c0,7.17-5,10.46-10.24,10.46-5.68,0-10-3.77-10-10.1S625.81,84.28,632,84.28C638,84.28,642,88.41,642,94.31Zm-14.05.2c0,3.37,1.39,5.89,4,5.89,2.34,0,3.85-2.36,3.85-5.89,0-2.93-1.12-5.9-3.85-5.9C629,88.61,627.92,91.62,627.92,94.51Z"/><path class="cls-9" d="M662.44,84.72a18.57,18.57,0,0,1,1.47,7.46c0,6.14-2.38,12.59-9.92,12.59-4.81,0-8.62-2.72-8.62-8.46V91.22a26.73,26.73,0,0,0-.47-6.5h5.91c.44.48.6,1.57.6,3.81v7.38c0,2.61,1.39,3.93,3.05,3.93,2.54,0,3.54-3.33,3.54-7.26a25.58,25.58,0,0,0-1.2-7.86Z"/><path class="cls-9" d="M667.16,101.12a3.55,3.55,0,1,1,7.1,0,3.55,3.55,0,1,1-7.1,0Zm1.31-5.65-.91-18.17h6.31L673,95.47Z"/><g class="cls-10"><path class="cls-3" d="M154.32,154a10.87,10.87,0,0,1,7.78,3.59,18.63,18.63,0,0,1,4.72-.62,17.12,17.12,0,0,1,12.78,5.87c14.05,5.32,8.47,13.88,8.15,14.35l.15,0s8.24,5.81,5.42,8.67c0,0,5.08,6.37,1,9.8a4.44,4.44,0,0,1-1.48.74c11.55,18.18,18.44,50.27,13.89,76.73-.9,5.24-6.82,9-22.79,9h0a84.06,84.06,0,0,1-15.44-1.38c.15,1.23.32,2.57.5,3.91h0c.8,5.76,2,12.31,3.24,13.28,8.14,6.18,20.28,8.73,27.1,9.73l9.89.94a23.94,23.94,0,0,1,5.13,7.61h0l57.69,54.11,45.53-38.9s3-12,19.87-12a43.49,43.49,0,0,1,6.93.6c23,3.77-2.08,6.51-2.08,6.51s2.6-.22,6.44-.22c5.75,0,14.29.49,21,2.95l3.47,4.28-8,8s-18.35,2.57-28.85,2.57c-3.34,0-5.88-.26-6.8-.94a.64.64,0,0,0-.41-.11c-6.25,0-57.67,49-57.67,49l-52.95-43.27c.78,10.62,1.34,22,1.22,32.46a338,338,0,0,1-2.93,40.49c2.31,1.65.64,5.17.64,5.17l4.32,34.76c0,.26,0,.51-.06.77,5.38,24.18,4.47,64.25,4.47,64.25a45.68,45.68,0,0,0-4.55-.69l0,2.92h0c-.11,20.25,0,49.51,1.14,56.18,1.87,10.44,0,15.57,0,15.57s5.08,81.23,5.08,81.85,7.12,9.87,7.12,9.87,9.4,7.48,16.72,13.41h0s4.41,1.17,6.13,2.62a6.1,6.1,0,0,1,1.85,3.89c.48.33,1.29.88,2.22,1.56a23.38,23.38,0,0,0,6.35,1.2c1,1,0,2.12-1.31,3,.73.79,1.17,1.48,1.05,1.93-.48,1.78-7.29,9-19.6,9-.7,0-1.41,0-2.13-.08-12.93-.85-30.85-14.77-32.32-18.65a11.62,11.62,0,0,1,.19-7.81h0c0-3.3,2-7.26,3.07-9.24,1.69-3.08,2.87-11.81,2.87-11.81-18.62-66.05-7.95-75.35-10-80.14-1.29-3.05-12.8-46.28-21-77.39h0l0-.09q-.72-2.73-1.4-5.31a22.11,22.11,0,0,1-4.25-2.54A133.15,133.15,0,0,1,161,525l-24.56,62.23s-4.21,15.66-9.21,20.71A224.14,224.14,0,0,1,114.91,644c-8.46,19.16-12.19,45.51-12.19,45.51s6.07,15.57,6.78,25.29c7.13,9.87,13.54,22.06,5,25.65a48.41,48.41,0,0,1-18.48,3.29c-10.25,0-19.43-2.43-21.57-4.6-3.44-3.47,6.33-29.83,6.33-29.83.3-2.39,1-4.7,2.34-5.68,3.39-2.4,7.45-8.21,7.45-8.21s-1.27-3.43,2.29-8,8.8-34.25,8.8-38.13S97,616.39,112.77,605c0,0,1.81-37.05,6.44-63.85h0c.5-3,1.05-5.94,1.64-8.65-4.85.41-7.76.46-7.76.46s4.69-13.21,10.68-30.22c-5.11-.49-1.74-8.51-1.74-8.51a42.41,42.41,0,0,0,6-3.57l2-5.58c-1.69-4.21,2.53-17.32,2.53-17.32L117,455.91,71.9,421.54s36.24-86.36,37.71-87.84c1-1,8-5.1,12.78-7.91h0c5-5.1,15.89-9.14,15.89-9.14s10.33-11.81,12.53-14,1.19-8.39,1.19-8.39l-5.66-22c-10-6.35-13.93-13.41-13.93-13.41a5,5,0,0,1-3.68,1.49c-3.29,0-6.59-2.52-6.59-2.52s-14.34-14.49-9.82-21.33a4.23,4.23,0,0,1,3.72-2.07c2.95,0,6.47,2.46,8.94,4.57-5.08-4.49-7.8-5.1-8.9-5.1l-.35,0-.08.06-.07,0-.1,0,0-.1c-1.07-.54-5.87-3.2-6.29-7.71-8.1-2.57-6.53-7.13-6.53-7.13-7.79-5.36,0-14,0-14-3.47-3.51-.79-8.61-.79-8.61-4.07-5.82,1-13,1-13,.57-6.27,9.88-10,9.88-10,.74-3.14,4.57-4.62,4.57-4.62a6.77,6.77,0,0,1,6.26-3.9c.32,0,.52,0,.52,0,3.37-7.37,16-8.08,20.77-8.08,1.13,0,1.81,0,1.81,0a12.54,12.54,0,0,1,7.68-3m-12.74,298c2-5.84,3.78-11,5.1-14.86-2.09-4.25,1.19-6.16,2.17-6.62.12-.38.21-.69.27-.91,2-7.53-17.1-44.46-17.1-44.46l-16.16-10.23-22.65,43,36.21,25.49,12.16,8.56M259.18,712h0M154.32,148h0a17.64,17.64,0,0,0-9.5,2.93c-6.9,0-18.45,1.18-24.24,8.38a12.49,12.49,0,0,0-7.54,5,13.8,13.8,0,0,0-4.92,4.73c-3.49,1.83-9.57,5.86-11,12.26C95,185,93,191.1,95.29,196.93a13.82,13.82,0,0,0,.22,7.88,16.44,16.44,0,0,0-2.28,9.76,12.64,12.64,0,0,0,3.42,7.25,10.7,10.7,0,0,0,1,2.82,13.62,13.62,0,0,0,6.55,6,14.79,14.79,0,0,0,2.42,3.83c-2.4,4.89-1.06,11.14,4,18.61a69.9,69.9,0,0,0,7.31,9l.3.3.33.25c.82.63,5.17,3.75,10.23,3.75a12.09,12.09,0,0,0,1.61-.11A53.66,53.66,0,0,0,141.11,276l5,19.42a13,13,0,0,1,0,3.41c-2.39,2.52-8.84,9.85-11.4,12.77-3.31,1.34-11.13,4.81-16,9.37-11.75,6.85-12.7,7.81-13.4,8.51-1.15,1.16-1.72,1.75-20.66,46.35C75.54,397.37,66.46,419,66.37,419.22l-1.8,4.28,3.69,2.81,45.11,34.38L125.59,470c-1.25,4.64-2.38,10.38-1.82,14.66L123,486.8c-1.46.92-3,1.71-3.59,2l-2.05,1-.89,2.1c-.74,1.78-3,7.94-.18,12.59.1.16.2.33.31.48-5.26,14.91-9.18,26-9.18,26l-2.9,8.16,8.66-.16h.29l-.18,1.12-.17.82V541c-3.87,22.87-5.73,52.09-6.23,61-14.08,12.7-12,37-11.36,45.28.06.76.14,1.7.14,2-.09,4.33-5.14,30.54-7.61,34.53a16.31,16.31,0,0,0-3.7,10,29.59,29.59,0,0,1-4.69,5c-2.52,1.78-4.08,4.77-4.74,9.12-.66,1.85-2.65,7.44-4.37,13.42-3.68,12.87-3.78,18.65-.37,22.1,4.33,4.37,16.43,6.37,25.84,6.37A54.18,54.18,0,0,0,116.88,746a12,12,0,0,0,7.22-8c1.75-6.26-1-14.35-8.79-25.38-1-8.57-4.92-19.7-6.42-23.75.92-5.73,4.61-26.82,11.51-42.45a233.7,233.7,0,0,0,12.36-35.7c5-6.28,8.52-18.38,9.42-21.64l23.39-59.26a141.29,141.29,0,0,0,17.06-6.74l.61,2.3,0,.06c17.33,65.64,20.3,75.51,21.08,77.67,0,.48-.19,1.35-.31,2.08-1.28,7.77-4.27,25.88,9.92,76.67a41.84,41.84,0,0,1-2,8.53c-2.32,4.21-3.56,7.85-3.78,11.08a17.28,17.28,0,0,0,.17,11c1.93,5.11,11.36,11.52,14.21,13.37,4.87,3.16,14.39,8.55,23.32,9.14.84.06,1.69.09,2.53.09,14.49,0,24.09-8.63,25.39-13.47a6.53,6.53,0,0,0,.19-2.52,7.53,7.53,0,0,0,.66-2.38,7.27,7.27,0,0,0-2.11-5.82l-1.66-1.67-2.35-.1a20.6,20.6,0,0,1-3.58-.52,11.07,11.07,0,0,0-3.23-4.71,21.93,21.93,0,0,0-7.17-3.47c-6-4.89-13.19-10.58-15.24-12.22-2.1-2.74-4.44-5.86-5.52-7.43-.27-4.5-1.26-20.61-4.93-79.4.62-2.57,1.46-8.28-.15-17.27-.38-2.13-1.22-11.3-1.07-50.61l4.42,1.41.19-8c0-1.65.84-40.16-4.42-64.81v0l0-.53-.06-.53-4.15-33.36a10.63,10.63,0,0,0-.5-7.44,350,350,0,0,0,2.66-38.82c.07-5.83-.06-12.18-.4-19.19l42.33,34.59,4.1,3.35,3.84-3.65c21-20.06,46.44-42.69,53.61-46.95a29.6,29.6,0,0,0,7.13.65c10.79,0,28.91-2.52,29.68-2.62l2-.28,1.42-1.45,8-8,3.79-3.82-3.39-4.18-3.48-4.28-1-1.28-1.55-.57a54,54,0,0,0-12.11-2.71c-.65-1.79-2.24-3.62-5.73-4.85a52.67,52.67,0,0,0-8.61-2,49.23,49.23,0,0,0-7.9-.68c-16.89,0-23,10-24.95,14.46l-40.26,34.4-52.91-49.63a29.79,29.79,0,0,0-5.84-8.25L212,302.84l-2.17-.21-9.73-.92c-5.8-.85-16.16-3-23.24-7.86a48.23,48.23,0,0,1-1.29-6.09q4.14.38,8.42.37c6.52,0,26.31,0,28.72-14,4.21-24.55-.88-55.78-12.17-76.57,2.31-3.85,1.57-8.62-.61-12.62a7.49,7.49,0,0,0,0-1.25c-.29-3.31-2.6-6.3-5-8.56a13.41,13.41,0,0,0-.37-6.51c-1.46-4.63-5.29-8.28-11.39-10.87a22.94,22.94,0,0,0-19.27-6.63,16.27,16.27,0,0,0-9.52-3.16ZM101,416l17.17-32.62,9.28,5.88c1.44,2.83,4.78,9.51,8,16.75,6,13.33,7.42,19,7.74,21.13a10.37,10.37,0,0,0-2.63,4,10.25,10.25,0,0,0-.22,6q-.81,2.38-1.82,5.32l-5.63-4L101,416Z"/><path class="cls-5" d="M214.36,316.21l57.69,54.11,45.53-38.9s3.82-15.17,26.8-11.41-2.08,6.51-2.08,6.51,16.26-1.37,27.44,2.73l3.47,4.28-8,8S333.41,346,329.6,343.2s-58.08,48.89-58.08,48.89l-52.95-43.27-10.4-9Z"/><path class="cls-5" d="M145.56,269.25l6.44,25s1,6.16-1.19,8.39-12.53,14-12.53,14l-5.76,11.46,33.37,19.17,39.79-10.78-1.18-28.24s-20.38-1.31-32.26-10.32c-2.34-1.77-4.32-22.36-4.32-22.36Z"/><path class="cls-11" d="M169,284.66c-.62-4.6-1.13-9.25-1.13-9.25l-22.36-6.33,1.79,7s7,4.61,9.18,5.57A42.09,42.09,0,0,0,169,284.66Z"/><path class="cls-5" d="M127,323.12s-16,9.1-17.41,10.58S71.9,421.54,71.9,421.54L117,455.91l15.52,11.83s-4.91,15.23-2,18.14-8.46,8.33-8.46,8.33-4.41,10.5,4.51,8.21,21-8.32,21-8.32l6-33.77-24.1-17L93.21,417.87l22.65-43L132,385.07l19.81-14.63L137.6,334.61l-6.09-13.46Z"/><path class="cls-5" d="M132.41,258.87s12.93,23.26,51.54,23.26c16,0,21.9-3.76,22.8-9,5.66-32.92-6.38-74.56-23.08-87.27-14.65-11.15-66.61,31-66.61,31L128.12,242s-11.29-12.32-15.8-5.47,9.82,21.33,9.82,21.33S128.57,262.75,132.41,258.87Z"/><path class="cls-5" d="M169.1,504.51l-32.62,82.67s-4.21,15.66-9.2,20.71A224.82,224.82,0,0,1,114.91,644c-8.46,19.16-12.19,45.51-12.19,45.51s7.71,19.77,6.77,28.67c0,0,7.37,10.26,4.41,16.17s-14.57,2.39-14.57,2.39-19.39,2.57-22.26-2.31,3.64-18,3.64-18-.94-10.43,2.45-12.83,7.45-8.21,7.45-8.21-1.27-3.43,2.29-8,8.8-34.25,8.8-38.13S97,616.39,112.77,605c0,0,3.84-78.71,14.67-89.67s41.66-17.45,41.66-17.45Z"/><path class="cls-12" d="M169.1,504.51l-10.43,26.43s-14.43,6.51-18.08,7.42c-2.71.67-22,6.71-21.38,2.77,2-12.3,4.83-22.38,8.23-25.82,10.84-10.95,41.66-17.45,41.66-17.45Z"/><path class="cls-5" d="M180.73,492.27s27.32,104.27,29.35,109.06-8.63,14.09,10,80.14c0,0-1.18,8.73-2.87,11.81s-5.59,11-.68,13.69,20.83,16.42,27.6,17.62,19.48-4.79,19.48-4.79,6.77-2.57,4.65-4.7c0,0-6.18-.26-8.21-2.32S235,692.42,235,692.42s-7.12-9.24-7.12-9.87-5.08-81.85-5.08-81.85,1.87-5.13,0-15.57-1-76.2-1-76.2Z"/><path class="cls-12" d="M180.73,492.27s6.43,24.45,8.34,31.67c.73,2.77,32.58,5,32.58,5l.17-20Z"/><path class="cls-13" d="M180.73,512.92c5.28,10.59,42.42,12.82,45.5,13.8,0,0,1-42.5-5-66.37S180.73,512.92,180.73,512.92Z"/><path class="cls-14" d="M135.57,249.51c6.55,2.74.91-9.12.91-9.12s-.62-11.9-4-13.92a48.23,48.23,0,0,1-7.26-6l62.47-43.28s6.32-8.9-8.13-14.38a17.12,17.12,0,0,0-17.5-5.25s-6.32-7.64-15.46-.62c0,0-18.41-1.09-22.58,8a6.86,6.86,0,0,0-6.78,3.88s-3.83,1.48-4.57,4.62c0,0-9.31,3.71-9.88,10,0,0-5.08,7.19-1,13,0,0-2.68,5.1.79,8.61,0,0-7.79,8.61,0,14,0,0-1.92,5.59,9.48,7.87l3.39,7.07s3.26-1.49,12.64,8Z"/><ellipse class="cls-15" cx="163.6" cy="226.44" rx="3.04" ry="4.19" transform="translate(-48.81 45) rotate(-13.65)"/><path class="cls-15" d="M159.69,223.41h-.07a1.49,1.49,0,0,1-1.43-1.56c0-.23.27-5.53,3.85-7.45,2.25-1.22,5.12-.79,8.53,1.27a1.5,1.5,0,1,1-1.55,2.56c-1.68-1-4-2-5.56-1.19-1.72.93-2.23,4-2.27,4.94A1.5,1.5,0,0,1,159.69,223.41Z"/><ellipse class="cls-15" cx="191.18" cy="219.68" rx="3.04" ry="4.19" transform="translate(-46.44 51.32) rotate(-13.65)"/><path class="cls-15" d="M188,216.28a1.9,1.9,0,0,1-.4-.05,1.49,1.49,0,0,1-1.05-1.84c.06-.22,1.49-5.32,5.4-6.4,2.46-.68,5.17.39,8,3.16a1.5,1.5,0,1,1-2.09,2.16c-1.4-1.36-3.43-2.9-5.15-2.43-1.88.52-3,3.28-3.3,4.3A1.52,1.52,0,0,1,188,216.28Z"/><path class="cls-16" d="M167.86,254.18c-.37-.4,22.37,1.44,31-5,0,0,1.71,17.48-6,19.39C184.89,270.52,175.68,267.3,167.86,254.18Z"/><g class="cls-17"><path class="cls-18" d="M166.37,256.93s21.28,6.13,30.73-3.43l-1.19-4.34-31.17,2.12Z"/><path class="cls-19" d="M170.12,264.8s6.83-6.68,17.72-2.23,0,12.5,0,12.5Z"/></g><path class="cls-11" d="M188.2,270.19c-12.62,0-21.12-15.36-21.22-15.54l-.85-1.57,1.78.1c.21,0,21.19,1,30.46-4.87a1,1,0,0,1,1.38.31,1,1,0,0,1-.31,1.38c-8.22,5.24-24.25,5.37-29.76,5.24,2.93,4.5,12.38,17,24.5,11.63a1,1,0,0,1,1.32.52,1,1,0,0,1-.52,1.31A16.7,16.7,0,0,1,188.2,270.19Z"/><path class="cls-11" d="M127.61,256.24s-.33-15-11.77-18.56"/><path class="cls-11" d="M115.86,374.84s9.77-13.23,8.48-11.22c-7.15,11.18,18.3,24.09,24.27,17.2,0,0-5.92,7.64-16.59,4.25Z"/><path class="cls-20" d="M138.28,316.65s-10.85,4-15.89,9.14c0,0,30.4,44.55,9.63,59.28,0,0,19.13,36.93,17.1,44.46s-36,103.41-36,103.41,105-1.88,108.73-71.24l-5-39.93a338,338,0,0,0,2.93-40.49c.22-19.49-1.89-41.88-3.44-57.17a24.78,24.78,0,0,0-7.12-15.5l-9.89-.94s7.8,26.43-10.25,28.93C179.35,338,155.89,341.13,138.28,316.65Z"/><g class="cls-21"><path class="cls-22" d="M117,535.54s105-1.89,108.73-71.25Z"/></g><path class="cls-20" d="M138.28,316.65s-10.85,4-15.89,9.14c0,0,30.4,44.55,9.63,59.28,0,0,19.13,36.93,17.1,44.46s-36,103.41-36,103.41,105-1.88,108.73-71.24l-5-39.93a338,338,0,0,0,2.93-40.49c.22-19.49-1.89-41.88-3.44-57.17a24.78,24.78,0,0,0-7.12-15.5l-9.89-.94s7.8,26.43-10.25,28.93C179.35,338,155.89,341.13,138.28,316.65Z"/><path class="cls-5" d="M117,455.91l15.52,11.83s-4.91,15.23-2,18.14-8.46,8.33-8.46,8.33-4.41,10.5,4.51,8.21,21-8.32,21-8.32l5.08-28.65s1.55-5.62-4.78-9.37c-4.89-2.9-18.42-12.72-18.42-12.72Z"/><path class="cls-4" d="M146.79,437.29s55.35,7.44,70.71-10.35c0,0,1.67-3.52-.64-5.17.33,3.29-26,17.62-67.74,8.56C149.12,430.33,144.08,432.15,146.79,437.29Z"/><ellipse class="cls-23" cx="192.77" cy="434.59" rx="12.91" ry="13.05"/><g class="cls-24"><path class="cls-25" d="M131.46,182.21S125.92,189,133,193.53c2.46,1.59-7.28,9.24-7.28,9.24l-3.94,22.33s5.08-2.07,8.47-2.07L148,243.67l-11.43,7.21-36.47-24.83L75.85,178.67,107.12,150l34.21-8-6,12s-14.52,9-9,15.43C122.87,171.87,122.19,181.55,131.46,182.21Z"/></g><path class="cls-26" d="M115.65,234s-6.55-3-6.55-8.43,25.51-57.27,78.8-48.37c0,0,8.24,5.81,5.42,8.67,0,0,5.08,6.37,1,9.8S170.51,194.06,115.65,234Z"/><path class="cls-27" d="M118.53,221.91s34.09-42,70.56-36.51C189.09,185.4,155.1,187.24,118.53,221.91Z"/><path class="cls-28" d="M194.16,444.75c-1.9,0-6-.38-8.63-3.34-2.34-2.6-3-6.44-1.93-11.42a1.5,1.5,0,1,1,2.93.62c-.85,4-.44,6.95,1.23,8.79,2.46,2.73,7.09,2.34,7.14,2.33a1.5,1.5,0,1,1,.32,3A10.37,10.37,0,0,1,194.16,444.75Z"/><path class="cls-29" d="M200.57,440.33a1.73,1.73,0,0,1-.32,0,1.51,1.51,0,0,1-1.15-1.79c.88-4,.48-6.93-1.16-8.78-2.46-2.79-7.1-2.38-7.14-2.38a1.5,1.5,0,0,1-.3-3c.25,0,6.18-.56,9.67,3.36,2.33,2.61,3,6.46,1.86,11.43A1.49,1.49,0,0,1,200.57,440.33Z"/><path class="cls-11" d="M181.07,249.41a1.5,1.5,0,0,1,0-3c2.82,0,10.57-2.5,14.44-3.86-1.27-12.27-9-21.42-13.58-25.85a1.5,1.5,0,0,1,2.08-2.16c5,4.86,13.63,15.09,14.59,28.94l.07,1.12-1.06.39C196.36,245.44,185.28,249.41,181.07,249.41Z"/><path class="cls-11" d="M335.8,332.41a5.66,5.66,0,0,1-1-.08,1.5,1.5,0,0,1,.53-3c2.34.41,4.92-2.53,5.72-3.7a1.51,1.51,0,0,1,2.08-.4,1.49,1.49,0,0,1,.4,2.08C343.4,327.58,340.08,332.41,335.8,332.41Z"/><path class="cls-11" d="M352.91,341.32a1.06,1.06,0,0,1-.34-.06A1,1,0,0,1,352,340c1.23-3.39-2.55-8.81-4.1-10.61a1,1,0,1,1,1.51-1.31c.26.3,6.35,7.43,4.47,12.6A1,1,0,0,1,352.91,341.32Z"/></g><path class="cls-26" d="M419.59,162.52h-1l-.18-2.22a3.89,3.89,0,0,0-1.57-1.15,6.09,6.09,0,0,0-2.32-.41,4.73,4.73,0,0,0-3,.84,2.53,2.53,0,0,0-1.07,2.09,2.44,2.44,0,0,0,1,2,8.88,8.88,0,0,0,3.34,1.4,9.67,9.67,0,0,1,3.81,1.74,3.61,3.61,0,0,1,1.31,2.9,3.51,3.51,0,0,1-1.52,3,6.33,6.33,0,0,1-3.86,1.11,8.06,8.06,0,0,1-3.09-.59,6,6,0,0,1-2.33-1.69v-2.75h1l.18,2.3a4.53,4.53,0,0,0,1.8,1.22,6.63,6.63,0,0,0,2.39.42,4.89,4.89,0,0,0,3-.82,2.52,2.52,0,0,0,1.14-2.16,2.63,2.63,0,0,0-.95-2.09,8.43,8.43,0,0,0-3.3-1.44,10.34,10.34,0,0,1-3.86-1.68,3.38,3.38,0,0,1-1.31-2.79,3.52,3.52,0,0,1,1.49-2.93,6.22,6.22,0,0,1,3.85-1.13,7.43,7.43,0,0,1,3,.59,5.26,5.26,0,0,1,2.09,1.61Z"/><path class="cls-26" d="M427,173.77a4.61,4.61,0,0,1-3.6-1.61,5.91,5.91,0,0,1-1.43-4.1v-.59a6.09,6.09,0,0,1,1.42-4.14,4.4,4.4,0,0,1,3.44-1.65,4.25,4.25,0,0,1,3.33,1.35,5.25,5.25,0,0,1,1.22,3.62v1.1h-8.14v.31a5.12,5.12,0,0,0,1,3.29,3.28,3.28,0,0,0,2.72,1.33,5.51,5.51,0,0,0,2-.33,4,4,0,0,0,1.44-1l.55.88a4.64,4.64,0,0,1-1.65,1.1A6.23,6.23,0,0,1,427,173.77Zm-.17-11a3,3,0,0,0-2.37,1.09,4.69,4.69,0,0,0-1.13,2.74l0,0h6.76v-.32a3.74,3.74,0,0,0-.88-2.54A3,3,0,0,0,426.83,162.78Z"/><path class="cls-26" d="M436.91,174.5a4.14,4.14,0,0,1-.85,2.78,3,3,0,0,1-2.38,1,3.86,3.86,0,0,1-.61-.05l-.58-.15.13-1.09.46.11a3.49,3.49,0,0,0,.53.05,1.82,1.82,0,0,0,1.49-.66,3.12,3.12,0,0,0,.53-2V163l-1.74-.14v-1h3Zm-.07-16h-1.27v-1.76h1.27Z"/><path class="cls-26" d="M447.61,173.54a8.53,8.53,0,0,1-.18-1,6.36,6.36,0,0,1-.06-.87,5,5,0,0,1-1.7,1.52,4.8,4.8,0,0,1-2.4.6,3.64,3.64,0,0,1-2.62-.88,3.15,3.15,0,0,1-.93-2.39,3,3,0,0,1,1.38-2.57,6.48,6.48,0,0,1,3.73-.94h2.54v-1.54a2.48,2.48,0,0,0-.79-2,3.19,3.19,0,0,0-2.22-.71,5.36,5.36,0,0,0-1.75.26,3.84,3.84,0,0,0-1.33.72l-.11,1.56h-1.05v-2.24a6.55,6.55,0,0,1,1.91-1,7.36,7.36,0,0,1,2.37-.38,4.56,4.56,0,0,1,3.07,1,3.48,3.48,0,0,1,1.16,2.81v5.73c0,.23,0,.46,0,.68a4.48,4.48,0,0,0,.07.64l1.15.08v.94Zm-4.2-.91a4.59,4.59,0,0,0,2.44-.65,3.75,3.75,0,0,0,1.52-1.67V168h-2.56a4.79,4.79,0,0,0-2.78.72,2.19,2.19,0,0,0-1,1.84,1.9,1.9,0,0,0,.65,1.51A2.53,2.53,0,0,0,443.41,172.63Z"/><path class="cls-26" d="M466.91,168a6.75,6.75,0,0,1-1.17,4.17,3.83,3.83,0,0,1-3.23,1.56,4.43,4.43,0,0,1-2.19-.51,3.94,3.94,0,0,1-1.48-1.47l-.14,1.75h-1.09v-15.7l-1.73-.14v-.95h3v7a4.35,4.35,0,0,1,1.47-1.51,4.06,4.06,0,0,1,2.13-.53,3.78,3.78,0,0,1,3.26,1.67,7.68,7.68,0,0,1,1.17,4.47Zm-1.29-.22a7,7,0,0,0-.85-3.63,2.77,2.77,0,0,0-2.52-1.39,3.3,3.3,0,0,0-2.16.67,4,4,0,0,0-1.21,1.71v5.26a3.66,3.66,0,0,0,1.28,1.61,3.55,3.55,0,0,0,2.11.6,2.85,2.85,0,0,0,2.51-1.25,5.93,5.93,0,0,0,.84-3.36Z"/><path class="cls-26" d="M474.15,173.77a4.61,4.61,0,0,1-3.6-1.61,6,6,0,0,1-1.43-4.1v-.59a6.09,6.09,0,0,1,1.43-4.14,4.36,4.36,0,0,1,3.43-1.65,4.26,4.26,0,0,1,3.34,1.35,5.25,5.25,0,0,1,1.21,3.62v1.1h-8.14v.31a5.18,5.18,0,0,0,1,3.29,3.28,3.28,0,0,0,2.72,1.33,5.57,5.57,0,0,0,2-.33,4,4,0,0,0,1.44-1l.54.88a4.6,4.6,0,0,1-1.64,1.1A6.25,6.25,0,0,1,474.15,173.77Zm-.17-11a3,3,0,0,0-2.37,1.09,4.68,4.68,0,0,0-1.12,2.74l0,0h6.76v-.32a3.75,3.75,0,0,0-.89-2.54A3,3,0,0,0,474,162.78Z"/><path class="cls-26" d="M480.54,162.85v-1h2.86l.12,1.93a4,4,0,0,1,1.48-1.58,4.15,4.15,0,0,1,2.21-.56,3.63,3.63,0,0,1,2.2.65,3.56,3.56,0,0,1,1.27,2,4.58,4.58,0,0,1,1.49-1.94,3.85,3.85,0,0,1,2.35-.7,3.45,3.45,0,0,1,2.85,1.24,6,6,0,0,1,1,3.83v5.7l1.73.15v.94h-4.76v-.94l1.74-.15v-5.72a4.68,4.68,0,0,0-.76-3,2.56,2.56,0,0,0-2.09-.89,2.85,2.85,0,0,0-2.3,1,4.69,4.69,0,0,0-1,2.44v.16a1.15,1.15,0,0,1,0,.2v5.9l1.74.14v.94h-4.76v-.94l1.74-.14v-5.73a4.69,4.69,0,0,0-.76-3,2.59,2.59,0,0,0-2.1-.91,3.16,3.16,0,0,0-2.15.69,3.8,3.8,0,0,0-1.12,1.87v7.1l1.74.14v.94h-4.75v-.94l1.73-.14V163Z"/><path class="cls-26" d="M507.39,167.41H502.3v-1.09h5.09Z"/><path class="cls-26" d="M513.49,162.85l-1.44.11,2.87,7.67.38,1.36h.06l.41-1.36L518.6,163l-1.44-.11v-1H521v1l-1.13.1-4.07,10.59h-1L510.74,163l-1.13-.1v-1h3.88Z"/><path class="cls-26" d="M522.36,172.6l1.74-.14V163l-1.74-.14v-1h3v10.57l1.74.14v.94h-4.75Zm3-14H524.1v-1.81h1.27Z"/><path class="cls-26" d="M529,172.6l1.74-.14V163l-1.74-.14v-1h2.87l.12,2a4.25,4.25,0,0,1,1.49-1.67,4.18,4.18,0,0,1,2.24-.58,3.49,3.49,0,0,1,2.85,1.16,5.46,5.46,0,0,1,1,3.61v6l1.74.14v.94h-4.75v-.94l1.73-.14v-6a4.2,4.2,0,0,0-.74-2.83,2.64,2.64,0,0,0-2.1-.83,3.29,3.29,0,0,0-2.19.71,4,4,0,0,0-1.22,1.9v7.05l1.74.14v.94H529Z"/><path class="cls-26" d="M551.21,171.86a3.92,3.92,0,0,1-1.48,1.41,4.41,4.41,0,0,1-2.13.5,3.82,3.82,0,0,1-3.24-1.56A6.85,6.85,0,0,1,543.2,168v-.22a7.76,7.76,0,0,1,1.16-4.47,3.77,3.77,0,0,1,3.26-1.67,4.12,4.12,0,0,1,2.09.51,4.19,4.19,0,0,1,1.47,1.46v-5.81l-1.74-.14v-.95h3v15.71l1.73.14v.94h-2.87ZM544.49,168a5.93,5.93,0,0,0,.83,3.36,2.84,2.84,0,0,0,2.52,1.25,3.59,3.59,0,0,0,2-.56,3.69,3.69,0,0,0,1.29-1.54V165a4.16,4.16,0,0,0-1.23-1.62,3.35,3.35,0,0,0-2.09-.62,2.77,2.77,0,0,0-2.53,1.39,7,7,0,0,0-.84,3.63Z"/><path class="cls-26" d="M556.15,167.55a6.28,6.28,0,0,1,1.4-4.22,5,5,0,0,1,7.41,0,6.28,6.28,0,0,1,1.39,4.22v.35a6.32,6.32,0,0,1-1.39,4.23,5,5,0,0,1-7.41,0,6.33,6.33,0,0,1-1.4-4.23Zm1.28.35a5.53,5.53,0,0,0,1,3.4,3.54,3.54,0,0,0,5.61,0,5.53,5.53,0,0,0,1-3.4v-.35a5.53,5.53,0,0,0-1-3.38,3.29,3.29,0,0,0-2.81-1.39,3.25,3.25,0,0,0-2.8,1.39,5.54,5.54,0,0,0-1,3.38Z"/><path class="cls-26" d="M581.75,171.86a3.92,3.92,0,0,1-1.48,1.41,4.35,4.35,0,0,1-2.13.5,3.82,3.82,0,0,1-3.24-1.56,6.85,6.85,0,0,1-1.16-4.17v-.22a7.76,7.76,0,0,1,1.16-4.47,3.77,3.77,0,0,1,3.26-1.67,4.12,4.12,0,0,1,2.09.51,4.19,4.19,0,0,1,1.47,1.46v-5.81L580,157.7v-.95h3v15.71l1.74.14v.94h-2.88ZM575,168a6,6,0,0,0,.83,3.36,2.84,2.84,0,0,0,2.52,1.25,3.64,3.64,0,0,0,2.06-.56,3.74,3.74,0,0,0,1.28-1.54V165a4,4,0,0,0-1.23-1.62,3.34,3.34,0,0,0-2.08-.62,2.78,2.78,0,0,0-2.54,1.39,7,7,0,0,0-.84,3.63Z"/><path class="cls-26" d="M591.78,173.77a4.61,4.61,0,0,1-3.6-1.61,5.91,5.91,0,0,1-1.43-4.1v-.59a6.09,6.09,0,0,1,1.42-4.14,4.4,4.4,0,0,1,3.44-1.65,4.25,4.25,0,0,1,3.33,1.35,5.25,5.25,0,0,1,1.22,3.62v1.1H588v.31a5.12,5.12,0,0,0,1,3.29,3.28,3.28,0,0,0,2.72,1.33,5.51,5.51,0,0,0,2-.33,3.88,3.88,0,0,0,1.44-1l.55.88a4.64,4.64,0,0,1-1.65,1.1A6.2,6.2,0,0,1,591.78,173.77Zm-.17-11a3,3,0,0,0-2.37,1.09,4.69,4.69,0,0,0-1.13,2.74l0,0h6.76v-.32a3.74,3.74,0,0,0-.88-2.54A3,3,0,0,0,591.61,162.78Z"/><path class="cls-26" d="M607.09,162.85l-1.44.11,2.88,7.67.37,1.36H609l.4-1.36,2.84-7.67-1.44-.11v-1h3.88v1l-1.13.1-4.07,10.59h-1L604.34,163l-1.13-.1v-1h3.88Z"/><path class="cls-26" d="M615.89,167.55a6.28,6.28,0,0,1,1.4-4.22,5,5,0,0,1,7.41,0,6.28,6.28,0,0,1,1.39,4.22v.35a6.32,6.32,0,0,1-1.39,4.23,5,5,0,0,1-7.41,0,6.33,6.33,0,0,1-1.4-4.23Zm1.28.35a5.53,5.53,0,0,0,1,3.4,3.54,3.54,0,0,0,5.61,0,5.53,5.53,0,0,0,1-3.4v-.35a5.6,5.6,0,0,0-1-3.38,3.29,3.29,0,0,0-2.81-1.39,3.25,3.25,0,0,0-2.8,1.39,5.54,5.54,0,0,0-1,3.38Z"/><path class="cls-26" d="M627.7,157.7v-.95h3v15.71l1.73.14v.94H627.7v-.94l1.74-.14V157.84Z"/><path class="cls-26" d="M637.39,158.91v3h2.54V163h-2.54v7.59a2.52,2.52,0,0,0,.41,1.62,1.36,1.36,0,0,0,1.09.48,5.74,5.74,0,0,0,.6,0c.2,0,.42-.05.68-.09l.19,1a2.92,2.92,0,0,1-.78.21,4.67,4.67,0,0,1-.91.08,2.39,2.39,0,0,1-1.89-.77,3.71,3.71,0,0,1-.68-2.46V163h-2v-1.06h2v-3Z"/><path class="cls-26" d="M650.23,173.54c-.08-.39-.15-.73-.18-1a6.35,6.35,0,0,1,0-.87,5.15,5.15,0,0,1-1.71,1.52,4.8,4.8,0,0,1-2.4.6,3.64,3.64,0,0,1-2.62-.88,3.15,3.15,0,0,1-.93-2.39,3,3,0,0,1,1.38-2.57,6.5,6.5,0,0,1,3.73-.94H650v-1.54a2.48,2.48,0,0,0-.8-2,3.19,3.19,0,0,0-2.22-.71,5.4,5.4,0,0,0-1.75.26,3.93,3.93,0,0,0-1.33.72l-.11,1.56h-1v-2.24a6.55,6.55,0,0,1,1.91-1,7.4,7.4,0,0,1,2.37-.38,4.56,4.56,0,0,1,3.07,1,3.45,3.45,0,0,1,1.16,2.81v5.73c0,.23,0,.46,0,.68a4.48,4.48,0,0,0,.07.64l1.15.08v.94Zm-4.2-.91a4.59,4.59,0,0,0,2.44-.65,3.78,3.78,0,0,0,1.53-1.67V168h-2.57a4.79,4.79,0,0,0-2.78.72,2.19,2.19,0,0,0-1,1.84,1.93,1.93,0,0,0,.65,1.51A2.53,2.53,0,0,0,646,172.63Z"/><path class="cls-26" d="M656.32,173.54H654.8v-1.79h1.52Zm-.13-5.14h-1.27V157.87h1.27Z"/><path class="cls-26" d="M676.57,162.78h-1l-.18-2.38a4.39,4.39,0,0,0-1.61-1.2,5.32,5.32,0,0,0-2.29-.46,5,5,0,0,0-4.13,1.91,7.6,7.6,0,0,0-1.54,4.94v.22a7.75,7.75,0,0,0,1.52,4.95,4.84,4.84,0,0,0,4,1.92,5.91,5.91,0,0,0,2.38-.46,4.32,4.32,0,0,0,1.68-1.2l.18-2.37h1v2.75a5.43,5.43,0,0,1-2.11,1.69,7.07,7.07,0,0,1-3.12.68,6.1,6.1,0,0,1-4.88-2.23,8.57,8.57,0,0,1-1.9-5.73v-.2a8.58,8.58,0,0,1,1.89-5.74,6.2,6.2,0,0,1,5-2.23,6.84,6.84,0,0,1,3.08.68,5.5,5.5,0,0,1,2.08,1.7Z"/><path class="cls-26" d="M678.87,167.55a6.28,6.28,0,0,1,1.4-4.22,5,5,0,0,1,7.41,0,6.28,6.28,0,0,1,1.39,4.22v.35a6.32,6.32,0,0,1-1.39,4.23,4.59,4.59,0,0,1-3.69,1.64,4.65,4.65,0,0,1-3.72-1.64,6.33,6.33,0,0,1-1.4-4.23Zm1.28.35a5.53,5.53,0,0,0,1,3.4,3.54,3.54,0,0,0,5.61,0,5.53,5.53,0,0,0,1-3.4v-.35a5.53,5.53,0,0,0-1-3.38,3.53,3.53,0,0,0-5.61,0,5.54,5.54,0,0,0-1,3.38Z"/><path class="cls-26" d="M690.87,162.85v-1h2.87l.12,1.93a4,4,0,0,1,1.48-1.58,4.13,4.13,0,0,1,2.21-.56,3.32,3.32,0,0,1,3.47,2.64,4.5,4.5,0,0,1,1.49-1.94,3.85,3.85,0,0,1,2.35-.7,3.48,3.48,0,0,1,2.85,1.24,6,6,0,0,1,1,3.83v5.7l1.74.15v.94h-4.76v-.94l1.73-.15v-5.72a4.74,4.74,0,0,0-.75-3,2.57,2.57,0,0,0-2.09-.89,2.83,2.83,0,0,0-2.3,1,4.6,4.6,0,0,0-1,2.44v.16s0,.12,0,.2v5.9l1.73.14v.94h-4.75v-.94l1.74-.14v-5.73a4.75,4.75,0,0,0-.76-3,2.59,2.59,0,0,0-2.1-.91,3.18,3.18,0,0,0-2.16.69,3.71,3.71,0,0,0-1.11,1.87v7.1l1.74.14v.94h-4.76v-.94l1.74-.14V163Z"/><path class="cls-26" d="M711.92,167.55a6.28,6.28,0,0,1,1.4-4.22,5,5,0,0,1,7.4,0,6.28,6.28,0,0,1,1.4,4.22v.35a6.32,6.32,0,0,1-1.39,4.23,5,5,0,0,1-7.41,0,6.33,6.33,0,0,1-1.4-4.23Zm1.28.35a5.59,5.59,0,0,0,1,3.4,3.32,3.32,0,0,0,2.83,1.38,3.28,3.28,0,0,0,2.79-1.38,5.59,5.59,0,0,0,1-3.4v-.35a5.54,5.54,0,0,0-1-3.38,3.53,3.53,0,0,0-5.61,0,5.6,5.6,0,0,0-1,3.38Z"/><path class="cls-26" d="M413.84,199.15a3.63,3.63,0,0,0,2.24-.74,2.4,2.4,0,0,0,1-2h1.12l0,.06a3.23,3.23,0,0,1-1.28,2.71,4.72,4.72,0,0,1-3.08,1.08,4.36,4.36,0,0,1-3.64-1.63,6.53,6.53,0,0,1-1.29-4.19V194a6.54,6.54,0,0,1,1.29-4.18,4.36,4.36,0,0,1,3.63-1.64,5.8,5.8,0,0,1,2.44.51,4.62,4.62,0,0,1,1.8,1.38l.05,2.54H417l-.2-2.07a3.62,3.62,0,0,0-1.27-.92,4.17,4.17,0,0,0-1.73-.34,3.08,3.08,0,0,0-2.75,1.34,6,6,0,0,0-.89,3.38v.45a6,6,0,0,0,.89,3.4A3.08,3.08,0,0,0,413.84,199.15Z"/><path class="cls-26" d="M420.57,194a6.3,6.3,0,0,1,1.4-4.22,5,5,0,0,1,7.4,0,6.25,6.25,0,0,1,1.4,4.22v.36a6.28,6.28,0,0,1-1.39,4.22,5,5,0,0,1-7.41,0,6.28,6.28,0,0,1-1.4-4.22Zm1.28.36a5.62,5.62,0,0,0,1,3.4,3.32,3.32,0,0,0,2.83,1.38,3.28,3.28,0,0,0,2.79-1.38,5.55,5.55,0,0,0,1-3.4V194a5.56,5.56,0,0,0-1-3.38,3.53,3.53,0,0,0-5.61,0,5.62,5.62,0,0,0-1,3.38Z"/><path class="cls-26" d="M432.61,199.06l1.74-.14v-9.46l-1.74-.15v-.95h2.87l.12,2a4,4,0,0,1,3.73-2.25,3.52,3.52,0,0,1,2.85,1.16,5.46,5.46,0,0,1,1,3.61v6l1.74.14V200h-4.75v-.95l1.74-.14v-6a4.27,4.27,0,0,0-.74-2.83,2.7,2.7,0,0,0-2.11-.83,3.27,3.27,0,0,0-2.19.72,4,4,0,0,0-1.22,1.9v7l1.74.14V200h-4.76Z"/><path class="cls-26" d="M450.25,189.31l-1.44.11,2.88,7.67.37,1.37h.07l.4-1.37,2.84-7.67-1.44-.11v-.95h3.88v.95l-1.13.1L452.61,200h-1l-4.08-10.6-1.13-.1v-.95h3.88Z"/><path class="cls-26" d="M464.16,200.23a4.58,4.58,0,0,1-3.6-1.61,5.88,5.88,0,0,1-1.43-4.09v-.59a6.11,6.11,0,0,1,1.42-4.15,4.38,4.38,0,0,1,3.44-1.65,4.23,4.23,0,0,1,3.33,1.36,5.22,5.22,0,0,1,1.22,3.62v1.1H460.4v.31a5.16,5.16,0,0,0,1,3.29,3.29,3.29,0,0,0,2.72,1.33,5.3,5.3,0,0,0,2-.34,4,4,0,0,0,1.44-1l.54.89a4.58,4.58,0,0,1-1.64,1.09A6.23,6.23,0,0,1,464.16,200.23Zm-.17-11a3,3,0,0,0-2.37,1.09,4.72,4.72,0,0,0-1.13,2.74l0,.06h6.76v-.33a3.75,3.75,0,0,0-.89-2.54A3,3,0,0,0,464,189.24Z"/><path class="cls-26" d="M473.58,188.36l.16,1.94v.14a4.06,4.06,0,0,1,1.34-1.69,3.3,3.3,0,0,1,2-.61,2.45,2.45,0,0,1,.48,0,2.49,2.49,0,0,1,.38.08l-.17,1.21-.95-.07a2.86,2.86,0,0,0-2,.69,3.78,3.78,0,0,0-1.1,1.87v7l1.73.14V200h-4.74v-.95l1.74-.14v-9.46l-1.74-.15v-.95h2.85Z"/><path class="cls-26" d="M488,192h-1l-.15-1.64a3.22,3.22,0,0,0-1.21-.79,4.62,4.62,0,0,0-1.68-.28,3.07,3.07,0,0,0-2.09.61,1.82,1.82,0,0,0-.7,1.42,1.71,1.71,0,0,0,.6,1.34,5.88,5.88,0,0,0,2.41.93,7.85,7.85,0,0,1,3.07,1.26,2.61,2.61,0,0,1,1,2.18,2.84,2.84,0,0,1-1.17,2.36,4.92,4.92,0,0,1-3.08.89,7.12,7.12,0,0,1-2.33-.36,5.63,5.63,0,0,1-1.82-1v-2.35h1l.19,1.66a3.06,3.06,0,0,0,1.29.75,5.91,5.91,0,0,0,1.64.23,3.49,3.49,0,0,0,2.18-.62,1.82,1.82,0,0,0,.8-1.48,1.89,1.89,0,0,0-.67-1.44,5.46,5.46,0,0,0-2.4-1,8,8,0,0,1-3.05-1.2,2.45,2.45,0,0,1-1-2.09,2.82,2.82,0,0,1,1.12-2.26,4.52,4.52,0,0,1,2.95-.92,6.6,6.6,0,0,1,2.32.39,4.71,4.71,0,0,1,1.71,1.07Z"/><path class="cls-26" d="M498.47,200c-.08-.4-.14-.74-.18-1a6.17,6.17,0,0,1-.05-.87,5.15,5.15,0,0,1-1.71,1.52,4.8,4.8,0,0,1-2.4.6,3.64,3.64,0,0,1-2.62-.88,3.13,3.13,0,0,1-.92-2.39A2.94,2.94,0,0,1,492,194.4a6.5,6.5,0,0,1,3.73-1h2.55v-1.54a2.5,2.5,0,0,0-.8-2,3.23,3.23,0,0,0-2.22-.71,5.69,5.69,0,0,0-1.75.26,4.12,4.12,0,0,0-1.33.72l-.11,1.56h-1v-2.24a6.78,6.78,0,0,1,1.91-1,7.18,7.18,0,0,1,2.37-.39,4.6,4.6,0,0,1,3.07,1,3.46,3.46,0,0,1,1.17,2.81v5.73c0,.24,0,.47,0,.68a4.32,4.32,0,0,0,.07.64l1.15.08V200Zm-4.2-.92a4.56,4.56,0,0,0,2.44-.64,3.83,3.83,0,0,0,1.53-1.67v-2.34h-2.57a4.74,4.74,0,0,0-2.78.73,2.16,2.16,0,0,0-1,1.83,2,2,0,0,0,.65,1.52A2.58,2.58,0,0,0,494.27,199.09Z"/><path class="cls-26" d="M502.28,189.31v-.95h2.86l.12,1.92a4,4,0,0,1,1.48-1.58,4.22,4.22,0,0,1,2.21-.56,3.32,3.32,0,0,1,3.47,2.64,4.47,4.47,0,0,1,1.49-1.93,3.86,3.86,0,0,1,2.35-.71,3.45,3.45,0,0,1,2.85,1.24,6,6,0,0,1,1,3.83v5.7l1.73.15V200h-4.76v-.95l1.74-.15v-5.72a4.7,4.7,0,0,0-.76-3,2.59,2.59,0,0,0-2.09-.89,2.85,2.85,0,0,0-2.3,1,4.69,4.69,0,0,0-1,2.44v.17a1,1,0,0,1,0,.19v5.9l1.74.14V200h-4.76v-.95l1.74-.14v-5.73a4.77,4.77,0,0,0-.76-3,2.59,2.59,0,0,0-2.1-.91,3.09,3.09,0,0,0-2.15.7,3.66,3.66,0,0,0-1.12,1.86v7.1l1.74.14V200h-4.75v-.95l1.73-.14v-9.46Z"/><path class="cls-26" d="M523.32,194a6.3,6.3,0,0,1,1.4-4.22,5,5,0,0,1,7.4,0,6.25,6.25,0,0,1,1.4,4.22v.36a6.28,6.28,0,0,1-1.39,4.22,5,5,0,0,1-7.41,0,6.28,6.28,0,0,1-1.4-4.22Zm1.28.36a5.62,5.62,0,0,0,1,3.4,3.32,3.32,0,0,0,2.83,1.38,3.28,3.28,0,0,0,2.79-1.38,5.55,5.55,0,0,0,1-3.4V194a5.56,5.56,0,0,0-1-3.38,3.53,3.53,0,0,0-5.61,0,5.62,5.62,0,0,0-1,3.38Z"/><path class="cls-26" d="M544,192h-1l-.15-1.64a3.22,3.22,0,0,0-1.21-.79,4.55,4.55,0,0,0-1.68-.28,3.07,3.07,0,0,0-2.09.61,1.82,1.82,0,0,0-.7,1.42,1.71,1.71,0,0,0,.6,1.34,5.94,5.94,0,0,0,2.41.93,8,8,0,0,1,3.08,1.26,2.63,2.63,0,0,1,1,2.18,2.84,2.84,0,0,1-1.17,2.36,4.9,4.9,0,0,1-3.08.89,7.12,7.12,0,0,1-2.33-.36,5.63,5.63,0,0,1-1.82-1v-2.35h1l.19,1.66a3.06,3.06,0,0,0,1.29.75,5.91,5.91,0,0,0,1.64.23,3.49,3.49,0,0,0,2.18-.62,1.82,1.82,0,0,0,.8-1.48,1.89,1.89,0,0,0-.67-1.44,5.46,5.46,0,0,0-2.4-1,8,8,0,0,1-3.05-1.2,2.45,2.45,0,0,1-1-2.09,2.85,2.85,0,0,1,1.12-2.26,4.52,4.52,0,0,1,3-.92,6.6,6.6,0,0,1,2.32.39,4.71,4.71,0,0,1,1.71,1.07Z"/><path class="cls-26" d="M551.59,199.06l1.74-.14v-9.46l-1.74-.15v-.95h2.87l.12,2a4,4,0,0,1,3.73-2.25,3.52,3.52,0,0,1,2.85,1.16,5.46,5.46,0,0,1,1,3.61v6l1.74.14V200h-4.75v-.95l1.74-.14v-6a4.21,4.21,0,0,0-.75-2.83,2.67,2.67,0,0,0-2.1-.83,3.25,3.25,0,0,0-2.19.72,4,4,0,0,0-1.22,1.9v7l1.74.14V200h-4.76Z"/><path class="cls-26" d="M573.84,200c-.08-.4-.14-.74-.18-1a8.14,8.14,0,0,1,0-.87,5.11,5.11,0,0,1-1.7,1.52,4.83,4.83,0,0,1-2.4.6,3.63,3.63,0,0,1-2.62-.88A3.13,3.13,0,0,1,566,197a3,3,0,0,1,1.37-2.56,6.5,6.5,0,0,1,3.73-1h2.55v-1.54a2.49,2.49,0,0,0-.79-2,3.24,3.24,0,0,0-2.23-.71,5.69,5.69,0,0,0-1.75.26,4.12,4.12,0,0,0-1.33.72l-.1,1.56h-1.06v-2.24a6.84,6.84,0,0,1,1.92-1,7.1,7.1,0,0,1,2.37-.39,4.63,4.63,0,0,1,3.07,1,3.48,3.48,0,0,1,1.16,2.81v5.73c0,.24,0,.47,0,.68s0,.44.07.64l1.15.08V200Zm-4.19-.92a4.61,4.61,0,0,0,2.44-.64,3.81,3.81,0,0,0,1.52-1.67v-2.34H571a4.69,4.69,0,0,0-2.77.73,2.14,2.14,0,0,0-1,1.83,1.94,1.94,0,0,0,.64,1.52A2.59,2.59,0,0,0,569.65,199.09Z"/><path class="cls-26" d="M591.7,198.09a3.9,3.9,0,0,1-1.48,1.58,4.21,4.21,0,0,1-2.22.56,3.45,3.45,0,0,1-2.85-1.25,6,6,0,0,1-1-3.87v-5.65l-1.43-.15v-.95h2.7v6.77a5.07,5.07,0,0,0,.71,3.06,2.43,2.43,0,0,0,2,.92,3.74,3.74,0,0,0,2.3-.64,3.42,3.42,0,0,0,1.21-1.79v-7.22l-1.64-.15v-.95h2.92v10.56l1.55.14V200h-2.67Z"/><path class="cls-26" d="M596.13,199.06l1.73-.14v-9.46l-1.73-.15v-.95H599l.12,2a4,4,0,0,1,3.73-2.25,3.56,3.56,0,0,1,2.86,1.16,5.52,5.52,0,0,1,1,3.61v6l1.73.14V200h-4.75v-.95l1.74-.14v-6a4.27,4.27,0,0,0-.74-2.83,2.7,2.7,0,0,0-2.11-.83,3.28,3.28,0,0,0-2.19.72,4,4,0,0,0-1.22,1.9v7l1.74.14V200h-4.75Z"/><path class="cls-26" d="M610.33,199.06l1.74-.14v-9.46l-1.74-.15v-.95h3v10.56l1.73.14V200h-4.74Zm3-14h-1.27v-1.81h1.27Z"/><path class="cls-26" d="M625.23,198.33a4,4,0,0,1-1.48,1.41,4.41,4.41,0,0,1-2.13.49,3.82,3.82,0,0,1-3.24-1.56,6.84,6.84,0,0,1-1.16-4.16v-.23a7.7,7.7,0,0,1,1.16-4.46,3.76,3.76,0,0,1,3.26-1.68,4.12,4.12,0,0,1,2.09.51,4.19,4.19,0,0,1,1.47,1.46v-5.8l-1.74-.14v-1h3v15.71l1.73.14V200h-2.87Zm-6.72-3.82a6,6,0,0,0,.83,3.36,2.83,2.83,0,0,0,2.52,1.24,3.51,3.51,0,0,0,2-.56A3.73,3.73,0,0,0,625.2,197V191.5a4.06,4.06,0,0,0-1.23-1.61,3.29,3.29,0,0,0-2.09-.63,2.78,2.78,0,0,0-2.53,1.4,6.93,6.93,0,0,0-.84,3.62Z"/><path class="cls-26" d="M638.13,200c-.08-.4-.14-.74-.18-1a8.14,8.14,0,0,1-.05-.87,5.11,5.11,0,0,1-1.7,1.52,4.83,4.83,0,0,1-2.4.6,3.63,3.63,0,0,1-2.62-.88,3.13,3.13,0,0,1-.93-2.39,3,3,0,0,1,1.37-2.56,6.5,6.5,0,0,1,3.73-1h2.55v-1.54a2.49,2.49,0,0,0-.79-2,3.24,3.24,0,0,0-2.23-.71,5.69,5.69,0,0,0-1.75.26,4.12,4.12,0,0,0-1.33.72l-.1,1.56h-1.06v-2.24a6.84,6.84,0,0,1,1.92-1,7.1,7.1,0,0,1,2.37-.39,4.63,4.63,0,0,1,3.07,1,3.48,3.48,0,0,1,1.16,2.81v5.73c0,.24,0,.47,0,.68s0,.44.07.64l1.15.08V200Zm-4.19-.92a4.61,4.61,0,0,0,2.44-.64,3.81,3.81,0,0,0,1.52-1.67v-2.34h-2.57a4.69,4.69,0,0,0-2.77.73,2.14,2.14,0,0,0-1,1.83,1.94,1.94,0,0,0,.64,1.52A2.59,2.59,0,0,0,633.94,199.09Z"/><path class="cls-26" d="M650.23,198.33a4,4,0,0,1-1.48,1.41,4.41,4.41,0,0,1-2.13.49,3.82,3.82,0,0,1-3.24-1.56,6.84,6.84,0,0,1-1.16-4.16v-.23a7.7,7.7,0,0,1,1.16-4.46,3.76,3.76,0,0,1,3.26-1.68,4.12,4.12,0,0,1,2.09.51,4.19,4.19,0,0,1,1.47,1.46v-5.8l-1.74-.14v-1h3v15.71l1.73.14V200h-2.87Zm-6.72-3.82a6,6,0,0,0,.83,3.36,2.83,2.83,0,0,0,2.52,1.24,3.51,3.51,0,0,0,2-.56A3.73,3.73,0,0,0,650.2,197V191.5a4.06,4.06,0,0,0-1.23-1.61,3.29,3.29,0,0,0-2.09-.63,2.78,2.78,0,0,0-2.53,1.4,6.93,6.93,0,0,0-.84,3.62Z"/><path class="cls-26" d="M660.26,200.23a4.58,4.58,0,0,1-3.6-1.61,5.88,5.88,0,0,1-1.43-4.09v-.59a6.11,6.11,0,0,1,1.42-4.15,4.38,4.38,0,0,1,3.44-1.65,4.23,4.23,0,0,1,3.33,1.36,5.22,5.22,0,0,1,1.22,3.62v1.1H656.5v.31a5.21,5.21,0,0,0,1,3.29,3.32,3.32,0,0,0,2.73,1.33,5.3,5.3,0,0,0,2-.34,4,4,0,0,0,1.44-1l.54.89a4.58,4.58,0,0,1-1.64,1.09A6.23,6.23,0,0,1,660.26,200.23Zm-.17-11a3,3,0,0,0-2.37,1.09,4.72,4.72,0,0,0-1.13,2.74l0,.06h6.76v-.33a3.75,3.75,0,0,0-.89-2.54A3,3,0,0,0,660.09,189.24Z"/><path class="cls-26" d="M680.18,200c-.08-.4-.14-.74-.18-1a8.14,8.14,0,0,1,0-.87,5.15,5.15,0,0,1-1.71,1.52,4.77,4.77,0,0,1-2.39.6,3.63,3.63,0,0,1-2.62-.88,3.13,3.13,0,0,1-.93-2.39,3,3,0,0,1,1.37-2.56,6.5,6.5,0,0,1,3.73-1H680v-1.54a2.49,2.49,0,0,0-.79-2,3.24,3.24,0,0,0-2.23-.71,5.69,5.69,0,0,0-1.75.26,4.12,4.12,0,0,0-1.33.72l-.1,1.56h-1.06v-2.24a6.84,6.84,0,0,1,1.92-1,7.1,7.1,0,0,1,2.37-.39,4.63,4.63,0,0,1,3.07,1,3.48,3.48,0,0,1,1.16,2.81v5.73c0,.24,0,.47,0,.68a6.27,6.27,0,0,0,.07.64l1.15.08V200Zm-4.19-.92a4.61,4.61,0,0,0,2.44-.64,3.81,3.81,0,0,0,1.52-1.67v-2.34h-2.57a4.69,4.69,0,0,0-2.77.73,2.14,2.14,0,0,0-1,1.83,1.94,1.94,0,0,0,.64,1.52A2.59,2.59,0,0,0,676,199.09Z"/><path class="cls-26" d="M684,199.06l1.74-.14v-9.46l-1.74-.15v-.95h2.87l.12,2a4,4,0,0,1,1.49-1.66,4.17,4.17,0,0,1,2.23-.59,3.53,3.53,0,0,1,2.86,1.16,5.52,5.52,0,0,1,1,3.61v6l1.74.14V200h-4.75v-.95l1.73-.14v-6a4.21,4.21,0,0,0-.74-2.83,2.67,2.67,0,0,0-2.1-.83,3.25,3.25,0,0,0-2.19.72,4,4,0,0,0-1.22,1.9v7l1.73.14V200H684Z"/><path class="cls-26" d="M701.25,185.37v3h2.54v1h-2.54V197a2.49,2.49,0,0,0,.41,1.62,1.38,1.38,0,0,0,1.09.48c.21,0,.41,0,.61,0s.42-.05.67-.1l.2,1a3.14,3.14,0,0,1-.78.22,5.7,5.7,0,0,1-.92.07,2.36,2.36,0,0,1-1.89-.77A3.71,3.71,0,0,1,700,197v-7.59h-2v-1h2v-3Z"/><path class="cls-26" d="M711.22,200.23a4.61,4.61,0,0,1-3.61-1.61,5.92,5.92,0,0,1-1.42-4.09v-.59a6.11,6.11,0,0,1,1.42-4.15,4.38,4.38,0,0,1,3.44-1.65,4.23,4.23,0,0,1,3.33,1.36,5.22,5.22,0,0,1,1.22,3.62v1.1h-8.15v.31a5.22,5.22,0,0,0,1,3.29,3.32,3.32,0,0,0,2.73,1.33,5.34,5.34,0,0,0,2-.34,4,4,0,0,0,1.44-1l.54.89a4.58,4.58,0,0,1-1.64,1.09A6.23,6.23,0,0,1,711.22,200.23Zm-.17-11a3.06,3.06,0,0,0-2.38,1.09,4.77,4.77,0,0,0-1.12,2.74l0,.06h6.76v-.33a3.75,3.75,0,0,0-.89-2.54A3,3,0,0,0,711.05,189.24Z"/><path class="cls-26" d="M720.64,188.36l.16,1.94v.14a4.12,4.12,0,0,1,1.33-1.69,3.35,3.35,0,0,1,2-.61,2.52,2.52,0,0,1,.48,0,2.1,2.1,0,0,1,.37.08l-.17,1.21-.94-.07a2.84,2.84,0,0,0-2,.69,3.71,3.71,0,0,0-1.1,1.87v7l1.73.14V200h-4.74v-.95l1.74-.14v-9.46l-1.74-.15v-.95h2.85Z"/><path class="cls-26" d="M726.56,199.06l1.74-.14v-9.46l-1.74-.15v-.95h3v10.56l1.73.14V200h-4.74Zm3-14H728.3v-1.81h1.27Z"/><path class="cls-26" d="M733.45,194a6.3,6.3,0,0,1,1.39-4.22,5,5,0,0,1,7.41,0,6.3,6.3,0,0,1,1.39,4.22v.36a6.28,6.28,0,0,1-1.39,4.22,4.56,4.56,0,0,1-3.69,1.64,4.62,4.62,0,0,1-3.72-1.64,6.28,6.28,0,0,1-1.39-4.22Zm1.27.36a5.55,5.55,0,0,0,1,3.4,3.54,3.54,0,0,0,5.61,0,5.55,5.55,0,0,0,1-3.4V194a5.56,5.56,0,0,0-1-3.38,3.53,3.53,0,0,0-5.61,0,5.56,5.56,0,0,0-1,3.38Z"/><path class="cls-26" d="M748.48,188.36l.16,1.94v.14a4.14,4.14,0,0,1,1.34-1.69,3.31,3.31,0,0,1,2-.61,2.42,2.42,0,0,1,.47,0,2.25,2.25,0,0,1,.38.08l-.17,1.21-.95-.07a2.88,2.88,0,0,0-2,.69,3.78,3.78,0,0,0-1.1,1.87v7l1.74.14V200h-4.74v-.95l1.73-.14v-9.46l-1.73-.15v-.95h2.84Z"/><path class="cls-26" d="M755,199.49a5.07,5.07,0,0,1-.4,1.94,4.57,4.57,0,0,1-1.1,1.6l-.75-.56a5.64,5.64,0,0,0,.74-1.41,4.71,4.71,0,0,0,.24-1.55V198H755Z"/><path class="cls-26" d="M411.84,211.84v3h2.54v1.06h-2.54v7.59a2.46,2.46,0,0,0,.42,1.62,1.35,1.35,0,0,0,1.09.48q.3,0,.6,0l.68-.09.19,1a3.36,3.36,0,0,1-.78.21,5.72,5.72,0,0,1-.92.08,2.37,2.37,0,0,1-1.89-.78,3.66,3.66,0,0,1-.67-2.45v-7.59h-2v-1.06h2v-3Z"/><path class="cls-26" d="M421.81,226.7a4.61,4.61,0,0,1-3.6-1.61,5.91,5.91,0,0,1-1.43-4.1v-.59a6.11,6.11,0,0,1,1.42-4.15,4.42,4.42,0,0,1,3.44-1.64A4.25,4.25,0,0,1,425,216a5.23,5.23,0,0,1,1.22,3.62v1.1h-8.14V221a5.12,5.12,0,0,0,1,3.29,3.28,3.28,0,0,0,2.72,1.33,5.51,5.51,0,0,0,2-.33,3.88,3.88,0,0,0,1.44-1l.55.88a4.64,4.64,0,0,1-1.65,1.1A6.4,6.4,0,0,1,421.81,226.7Zm-.17-11a3,3,0,0,0-2.37,1.1,4.69,4.69,0,0,0-1.13,2.74l0,.05h6.76v-.32a3.74,3.74,0,0,0-.88-2.54A3,3,0,0,0,421.64,215.7Z"/><path class="cls-26" d="M428.19,215.78v-1h2.87l.12,1.93a4,4,0,0,1,1.48-1.58,4.11,4.11,0,0,1,2.2-.56,3.33,3.33,0,0,1,3.48,2.63,4.59,4.59,0,0,1,1.48-1.93,3.89,3.89,0,0,1,2.35-.7,3.45,3.45,0,0,1,2.85,1.24,6,6,0,0,1,1,3.83v5.69l1.74.16v.94H443v-.94l1.74-.16v-5.71a4.8,4.8,0,0,0-.75-3,2.59,2.59,0,0,0-2.09-.88,2.83,2.83,0,0,0-2.3,1,4.58,4.58,0,0,0-1,2.44c0,.06,0,.11,0,.16v6.1l1.74.14v.94H435.6v-.94l1.74-.14v-5.73a4.68,4.68,0,0,0-.77-3,2.55,2.55,0,0,0-2.09-.91,3.18,3.18,0,0,0-2.16.69,3.67,3.67,0,0,0-1.11,1.87v7.1l1.74.14v.94h-4.76v-.94l1.74-.14v-9.47Z"/><path class="cls-26" d="M449.24,220.48a6.32,6.32,0,0,1,1.39-4.23,5,5,0,0,1,7.41,0,6.33,6.33,0,0,1,1.4,4.23v.35a6.38,6.38,0,0,1-1.39,4.23,5,5,0,0,1-7.42,0,6.32,6.32,0,0,1-1.39-4.23Zm1.28.35a5.55,5.55,0,0,0,1,3.4,3.55,3.55,0,0,0,5.62,0,5.62,5.62,0,0,0,1-3.4v-.35a5.59,5.59,0,0,0-1-3.39,3.53,3.53,0,0,0-5.61,0,5.58,5.58,0,0,0-1,3.39Z"/><path class="cls-26" d="M469.88,218.42h-1l-.15-1.65a3.3,3.3,0,0,0-1.21-.79,4.85,4.85,0,0,0-1.68-.28,3.17,3.17,0,0,0-2.1.61,1.86,1.86,0,0,0-.69,1.43,1.72,1.72,0,0,0,.6,1.34,5.76,5.76,0,0,0,2.4.92,7.75,7.75,0,0,1,3.08,1.27,2.63,2.63,0,0,1,1,2.18A2.82,2.82,0,0,1,469,225.8a4.93,4.93,0,0,1-3.09.9,7.16,7.16,0,0,1-2.33-.36,5.43,5.43,0,0,1-1.81-1V223h1l.18,1.66a2.85,2.85,0,0,0,1.3.75,5.84,5.84,0,0,0,1.63.23,3.52,3.52,0,0,0,2.19-.61,1.84,1.84,0,0,0,.8-1.49,1.92,1.92,0,0,0-.67-1.43,5.34,5.34,0,0,0-2.4-1,8.1,8.1,0,0,1-3.06-1.2,2.48,2.48,0,0,1-1-2.1,2.79,2.79,0,0,1,1.12-2.25,4.45,4.45,0,0,1,2.95-.92,6.64,6.64,0,0,1,2.32.39,4.57,4.57,0,0,1,1.71,1.06Z"/><path class="cls-26" d="M486.22,224.56a4,4,0,0,1-1.49,1.58,4.31,4.31,0,0,1-2.22.56,3.48,3.48,0,0,1-2.85-1.25,6,6,0,0,1-1-3.88v-5.65l-1.43-.14v-1h2.7v6.78a5,5,0,0,0,.72,3.05,2.43,2.43,0,0,0,2,.93,3.74,3.74,0,0,0,2.3-.65,3.34,3.34,0,0,0,1.21-1.78v-7.23l-1.64-.14v-1h2.92v10.57l1.55.14v.94h-2.67Z"/><path class="cls-26" d="M490.6,215.78v-1h2.86l.12,1.93a4,4,0,0,1,1.48-1.58,4.13,4.13,0,0,1,2.21-.56,3.33,3.33,0,0,1,3.47,2.63,4.53,4.53,0,0,1,1.49-1.93,3.85,3.85,0,0,1,2.35-.7,3.45,3.45,0,0,1,2.85,1.24,6,6,0,0,1,1,3.83v5.69l1.73.16v.94h-4.76v-.94l1.74-.16v-5.71a4.73,4.73,0,0,0-.76-3,2.58,2.58,0,0,0-2.09-.88,2.85,2.85,0,0,0-2.3,1,4.65,4.65,0,0,0-1,2.44v.16a1.09,1.09,0,0,1,0,.19v5.91l1.74.14v.94H498v-.94l1.74-.14v-5.73a4.69,4.69,0,0,0-.76-3,2.59,2.59,0,0,0-2.1-.91,3.14,3.14,0,0,0-2.15.69,3.76,3.76,0,0,0-1.12,1.87v7.1l1.74.14v.94H490.6v-.94l1.73-.14v-9.47Z"/><path class="cls-26" d="M517.11,220.74a7.6,7.6,0,0,1,1.18-4.46,3.75,3.75,0,0,1,3.26-1.67,4.06,4.06,0,0,1,2.13.54,4.24,4.24,0,0,1,1.49,1.54l.15-1.87h1.07v11.5a5.06,5.06,0,0,1-1.2,3.56,4.38,4.38,0,0,1-3.36,1.3,8.11,8.11,0,0,1-1.77-.21,6.52,6.52,0,0,1-1.65-.56l.34-1.08a7.34,7.34,0,0,0,1.45.51,6.51,6.51,0,0,0,1.61.19,3.07,3.07,0,0,0,2.47-1,4.07,4.07,0,0,0,.83-2.73v-1.47a4,4,0,0,1-1.48,1.37,4.4,4.4,0,0,1-2.1.48,3.84,3.84,0,0,1-3.25-1.56,6.79,6.79,0,0,1-1.17-4.17Zm1.28.23a5.83,5.83,0,0,0,.85,3.35,2.83,2.83,0,0,0,2.53,1.26,3.56,3.56,0,0,0,2.07-.57,3.74,3.74,0,0,0,1.27-1.57V218a4,4,0,0,0-1.22-1.66,3.27,3.27,0,0,0-2.1-.64,2.77,2.77,0,0,0-2.54,1.4,6.75,6.75,0,0,0-.86,3.61Z"/><path class="cls-26" d="M532.05,214.82l.16,1.94v.14a4.14,4.14,0,0,1,1.34-1.69,3.37,3.37,0,0,1,2-.6,3.59,3.59,0,0,1,.47,0l.38.09-.17,1.2-1-.06a2.87,2.87,0,0,0-2,.68,3.82,3.82,0,0,0-1.1,1.88v7l1.74.14v.94H529.2v-.94l1.74-.14v-9.47l-1.74-.14v-1h2.85Z"/><path class="cls-26" d="M546,226.47c-.08-.39-.15-.73-.18-1a6.35,6.35,0,0,1-.05-.87,5.26,5.26,0,0,1-1.71,1.52,4.8,4.8,0,0,1-2.4.6,3.69,3.69,0,0,1-2.62-.88,3.15,3.15,0,0,1-.93-2.39,3,3,0,0,1,1.38-2.57,6.5,6.5,0,0,1,3.73-.94h2.55v-1.54a2.48,2.48,0,0,0-.8-2,3.19,3.19,0,0,0-2.22-.72A5.4,5.4,0,0,0,541,216a3.93,3.93,0,0,0-1.33.72l-.11,1.56h-1.05V216a6.55,6.55,0,0,1,1.91-1,7.4,7.4,0,0,1,2.37-.38,4.56,4.56,0,0,1,3.07,1,3.45,3.45,0,0,1,1.16,2.81v5.73c0,.23,0,.46,0,.68a4.48,4.48,0,0,0,.07.64l1.15.08v.94Zm-4.2-.91a4.59,4.59,0,0,0,2.44-.65,3.83,3.83,0,0,0,1.53-1.67v-2.33h-2.57a4.79,4.79,0,0,0-2.78.72,2.19,2.19,0,0,0-1,1.84,1.93,1.93,0,0,0,.65,1.51A2.53,2.53,0,0,0,541.82,225.56Z"/><path class="cls-26" d="M549.87,225.53l1.73-.14v-9.47l-1.73-.14v-1h2.86l.12,2a3.95,3.95,0,0,1,3.73-2.25,3.55,3.55,0,0,1,2.86,1.15,5.57,5.57,0,0,1,1,3.62v6l1.73.14v.94H557.4v-.94l1.74-.14v-6a4.25,4.25,0,0,0-.74-2.83,2.67,2.67,0,0,0-2.11-.83,3.33,3.33,0,0,0-2.19.71,4,4,0,0,0-1.22,1.9v7l1.74.14v.94h-4.75Z"/><path class="cls-26" d="M572.07,224.79a4,4,0,0,1-1.49,1.41,4.35,4.35,0,0,1-2.13.5,3.81,3.81,0,0,1-3.23-1.56,6.79,6.79,0,0,1-1.17-4.17v-.23a7.67,7.67,0,0,1,1.17-4.46,3.73,3.73,0,0,1,3.25-1.67,4.1,4.1,0,0,1,2.09.51,4.19,4.19,0,0,1,1.47,1.46v-5.81l-1.73-.14v-1h3v15.72l1.74.14v.94h-2.88ZM565.34,221a5.93,5.93,0,0,0,.84,3.36,2.84,2.84,0,0,0,2.52,1.25,3.61,3.61,0,0,0,2-.56,3.67,3.67,0,0,0,1.28-1.54V218a4,4,0,0,0-1.23-1.62,3.32,3.32,0,0,0-2.08-.62,2.76,2.76,0,0,0-2.53,1.39,6.86,6.86,0,0,0-.85,3.62Z"/><path class="cls-26" d="M582.09,226.7a4.61,4.61,0,0,1-3.6-1.61,6,6,0,0,1-1.43-4.1v-.59a6.12,6.12,0,0,1,1.43-4.15,4.38,4.38,0,0,1,3.43-1.64,4.26,4.26,0,0,1,3.34,1.35,5.23,5.23,0,0,1,1.21,3.62v1.1h-8.14V221a5.18,5.18,0,0,0,1,3.29,3.28,3.28,0,0,0,2.72,1.33,5.57,5.57,0,0,0,2-.33,4,4,0,0,0,1.44-1l.54.88a4.6,4.6,0,0,1-1.64,1.1A6.45,6.45,0,0,1,582.09,226.7Zm-.17-11a3,3,0,0,0-2.37,1.1,4.68,4.68,0,0,0-1.12,2.74l0,.05h6.75v-.32a3.74,3.74,0,0,0-.88-2.54A3,3,0,0,0,581.92,215.7Z"/><path class="cls-26" d="M602.07,224.79a3.92,3.92,0,0,1-1.48,1.41,4.35,4.35,0,0,1-2.13.5,3.79,3.79,0,0,1-3.23-1.56,6.79,6.79,0,0,1-1.17-4.17v-.23a7.67,7.67,0,0,1,1.17-4.46,3.72,3.72,0,0,1,3.25-1.67,4.12,4.12,0,0,1,2.09.51,4.19,4.19,0,0,1,1.47,1.46v-5.81l-1.74-.14v-1h3v15.72l1.74.14v.94h-2.88ZM595.35,221a5.93,5.93,0,0,0,.84,3.36,2.81,2.81,0,0,0,2.51,1.25,3.62,3.62,0,0,0,2.06-.56,3.67,3.67,0,0,0,1.28-1.54V218a4,4,0,0,0-1.23-1.62,3.34,3.34,0,0,0-2.08-.62,2.75,2.75,0,0,0-2.53,1.39,6.86,6.86,0,0,0-.85,3.62Z"/><path class="cls-26" d="M612.1,226.7a4.61,4.61,0,0,1-3.6-1.61,6,6,0,0,1-1.43-4.1v-.59a6.11,6.11,0,0,1,1.42-4.15,4.42,4.42,0,0,1,3.44-1.64,4.29,4.29,0,0,1,3.34,1.35,5.23,5.23,0,0,1,1.21,3.62v1.1h-8.14V221a5.12,5.12,0,0,0,1,3.29,3.28,3.28,0,0,0,2.72,1.33,5.51,5.51,0,0,0,2-.33,3.8,3.8,0,0,0,1.44-1l.55.88a4.69,4.69,0,0,1-1.64,1.1A6.45,6.45,0,0,1,612.1,226.7Zm-.17-11a3,3,0,0,0-2.37,1.1,4.75,4.75,0,0,0-1.13,2.74l0,.05h6.75v-.32a3.74,3.74,0,0,0-.88-2.54A3,3,0,0,0,611.93,215.7Z"/><path class="cls-26" d="M627.13,218.42h-1l-.15-1.65a3.22,3.22,0,0,0-1.21-.79,4.77,4.77,0,0,0-1.68-.28,3.12,3.12,0,0,0-2.09.61,1.84,1.84,0,0,0-.7,1.43,1.72,1.72,0,0,0,.6,1.34,5.88,5.88,0,0,0,2.41.92,7.75,7.75,0,0,1,3.08,1.27,2.62,2.62,0,0,1,1,2.18,2.82,2.82,0,0,1-1.17,2.35,4.9,4.9,0,0,1-3.08.9,7.16,7.16,0,0,1-2.33-.36,5.47,5.47,0,0,1-1.82-1V223h1l.18,1.66a2.87,2.87,0,0,0,1.29.75,5.91,5.91,0,0,0,1.64.23,3.49,3.49,0,0,0,2.18-.61,1.82,1.82,0,0,0,.8-1.49,1.9,1.9,0,0,0-.66-1.43,5.44,5.44,0,0,0-2.41-1,8,8,0,0,1-3-1.2,2.49,2.49,0,0,1-1-2.1,2.82,2.82,0,0,1,1.12-2.25,4.47,4.47,0,0,1,2.95-.92,6.6,6.6,0,0,1,2.32.39,4.57,4.57,0,0,1,1.71,1.06Z"/><path class="cls-26" d="M637.64,226.47q-.12-.58-.18-1a8.46,8.46,0,0,1-.05-.87,5.26,5.26,0,0,1-1.71,1.52,4.79,4.79,0,0,1-2.39.6,3.71,3.71,0,0,1-2.63-.88,3.18,3.18,0,0,1-.92-2.39,3,3,0,0,1,1.37-2.57,6.5,6.5,0,0,1,3.73-.94h2.55v-1.54a2.51,2.51,0,0,0-.79-2,3.2,3.2,0,0,0-2.23-.72,5.4,5.4,0,0,0-1.75.27,3.93,3.93,0,0,0-1.33.72l-.1,1.56h-1.06V216a6.61,6.61,0,0,1,1.92-1,7.36,7.36,0,0,1,2.37-.38,4.58,4.58,0,0,1,3.07,1,3.48,3.48,0,0,1,1.16,2.81v5.73c0,.23,0,.46,0,.68s0,.43.07.64l1.15.08v.94Zm-4.19-.91a4.55,4.55,0,0,0,2.43-.65,3.77,3.77,0,0,0,1.53-1.67v-2.33h-2.57a4.82,4.82,0,0,0-2.78.72,2.18,2.18,0,0,0-1,1.84,1.92,1.92,0,0,0,.64,1.51A2.54,2.54,0,0,0,633.45,225.56Z"/><path class="cls-26" d="M641.49,225.53l1.74-.14v-9.51h-1.91v-1.06h1.91v-1.48a3.92,3.92,0,0,1,1-2.88,3.85,3.85,0,0,1,2.82-1,6.55,6.55,0,0,1,1.44.16,9.84,9.84,0,0,1,1.49.47l-.2,1.11a7.76,7.76,0,0,0-1.26-.42,5.86,5.86,0,0,0-1.39-.15,2.63,2.63,0,0,0-2,.7,2.84,2.84,0,0,0-.66,2v1.48h6.61v10.57l1.74.14v.94h-4.74v-.94l1.74-.14v-9.51h-5.35v9.51l1.73.14v.94h-4.75Z"/><path class="cls-26" d="M654.61,220.48a6.32,6.32,0,0,1,1.39-4.23,5,5,0,0,1,7.41,0,6.33,6.33,0,0,1,1.4,4.23v.35a6.38,6.38,0,0,1-1.39,4.23,5,5,0,0,1-7.42,0,6.32,6.32,0,0,1-1.39-4.23Zm1.28.35a5.55,5.55,0,0,0,1,3.4,3.55,3.55,0,0,0,5.62,0,5.62,5.62,0,0,0,1-3.4v-.35a5.59,5.59,0,0,0-1-3.39,3.53,3.53,0,0,0-5.61,0,5.58,5.58,0,0,0-1,3.39Z"/><path class="cls-26" d="M680.15,226.47q-.12-.58-.18-1a8.46,8.46,0,0,1-.05-.87,5.26,5.26,0,0,1-1.71,1.52,4.79,4.79,0,0,1-2.39.6,3.71,3.71,0,0,1-2.63-.88,3.18,3.18,0,0,1-.92-2.39,3,3,0,0,1,1.37-2.57,6.5,6.5,0,0,1,3.73-.94h2.55v-1.54a2.48,2.48,0,0,0-.8-2,3.19,3.19,0,0,0-2.22-.72,5.4,5.4,0,0,0-1.75.27,3.93,3.93,0,0,0-1.33.72l-.1,1.56h-1.06V216a6.55,6.55,0,0,1,1.91-1,7.45,7.45,0,0,1,2.37-.38,4.55,4.55,0,0,1,3.07,1,3.46,3.46,0,0,1,1.17,2.81v5.73c0,.23,0,.46,0,.68s0,.43.07.64l1.15.08v.94Zm-4.2-.91a4.56,4.56,0,0,0,2.44-.65,3.77,3.77,0,0,0,1.53-1.67v-2.33h-2.57a4.82,4.82,0,0,0-2.78.72,2.19,2.19,0,0,0-1,1.84,1.93,1.93,0,0,0,.65,1.51A2.53,2.53,0,0,0,676,225.56Z"/><path class="cls-26" d="M697.91,218.42h-1l-.15-1.65a3.22,3.22,0,0,0-1.21-.79,4.77,4.77,0,0,0-1.68-.28,3.14,3.14,0,0,0-2.09.61,1.84,1.84,0,0,0-.7,1.43,1.72,1.72,0,0,0,.6,1.34A5.88,5.88,0,0,0,694,220a7.75,7.75,0,0,1,3.08,1.27,2.62,2.62,0,0,1,1,2.18A2.82,2.82,0,0,1,697,225.8a4.88,4.88,0,0,1-3.08.9,7.16,7.16,0,0,1-2.33-.36,5.47,5.47,0,0,1-1.82-1V223h1l.18,1.66a2.87,2.87,0,0,0,1.29.75,5.91,5.91,0,0,0,1.64.23,3.49,3.49,0,0,0,2.18-.61,1.82,1.82,0,0,0,.8-1.49,1.9,1.9,0,0,0-.66-1.43,5.44,5.44,0,0,0-2.41-1,8,8,0,0,1-3-1.2,2.49,2.49,0,0,1-1-2.1,2.82,2.82,0,0,1,1.12-2.25,4.47,4.47,0,0,1,3-.92,6.6,6.6,0,0,1,2.32.39,4.57,4.57,0,0,1,1.71,1.06Z"/><path class="cls-26" d="M705.55,226.7a4.65,4.65,0,0,1-3.61-1.61,6,6,0,0,1-1.42-4.1v-.59a6.11,6.11,0,0,1,1.42-4.15,4.4,4.4,0,0,1,3.44-1.64,4.25,4.25,0,0,1,3.33,1.35,5.23,5.23,0,0,1,1.22,3.62v1.1h-8.15V221a5.18,5.18,0,0,0,1,3.29,3.3,3.3,0,0,0,2.73,1.33,5.55,5.55,0,0,0,2-.33,4,4,0,0,0,1.44-1l.54.88a4.6,4.6,0,0,1-1.64,1.1A6.44,6.44,0,0,1,705.55,226.7Zm-.17-11a3.07,3.07,0,0,0-2.38,1.1,4.74,4.74,0,0,0-1.12,2.74l0,.05h6.76v-.32a3.75,3.75,0,0,0-.89-2.54A3,3,0,0,0,705.38,215.7Z"/><path class="cls-26" d="M715,214.82l.16,1.94v.14a4.12,4.12,0,0,1,1.33-1.69,3.41,3.41,0,0,1,2-.6,3.75,3.75,0,0,1,.48,0l.38.09-.18,1.2-.94-.06a2.84,2.84,0,0,0-2,.68,3.74,3.74,0,0,0-1.1,1.88v7l1.73.14v.94h-4.74v-.94l1.74-.14v-9.47l-1.74-.14v-1H715Z"/><path class="cls-26" d="M414,253.16a4.58,4.58,0,0,1-3.6-1.61,5.9,5.9,0,0,1-1.43-4.09v-.6a6.11,6.11,0,0,1,1.42-4.14,4.38,4.38,0,0,1,3.44-1.65,4.23,4.23,0,0,1,3.33,1.36,5.22,5.22,0,0,1,1.22,3.62v1.09h-8.14v.32a5.16,5.16,0,0,0,1,3.29,3.29,3.29,0,0,0,2.72,1.33,5.5,5.5,0,0,0,2-.34,4,4,0,0,0,1.44-1l.54.89a4.58,4.58,0,0,1-1.64,1.09A6.23,6.23,0,0,1,414,253.16Zm-.17-11a3,3,0,0,0-2.37,1.09,4.69,4.69,0,0,0-1.13,2.74l0,.06h6.76v-.33a3.75,3.75,0,0,0-.89-2.54A3,3,0,0,0,413.83,242.17Z"/><path class="cls-26" d="M420.42,252l1.74-.14v-9.47l-1.74-.14v-1h2.87l.12,2a4,4,0,0,1,3.73-2.25,3.52,3.52,0,0,1,2.85,1.16,5.46,5.46,0,0,1,1,3.61v6l1.74.14v.95H428V252l1.73-.14v-6A4.21,4.21,0,0,0,429,243a2.67,2.67,0,0,0-2.1-.83,3.25,3.25,0,0,0-2.19.72,3.92,3.92,0,0,0-1.22,1.9v7l1.74.14v.95h-4.76Z"/><path class="cls-26" d="M434.53,242.34v-1.05h1.91v-1.71a3.89,3.89,0,0,1,.87-2.71,3.15,3.15,0,0,1,2.44-1,4.34,4.34,0,0,1,.71.06,5,5,0,0,1,.73.15l-.16,1.06-.52-.1a5.57,5.57,0,0,0-.63,0,2,2,0,0,0-1.6.67,2.86,2.86,0,0,0-.56,1.87v1.71h2.75v1.05h-2.75v9.51l1.73.14v.95H434.7V252l1.74-.14v-9.51Z"/><path class="cls-26" d="M445.2,241.29l.16,1.93v.14a4.11,4.11,0,0,1,1.34-1.68,3.3,3.3,0,0,1,2-.61,2.45,2.45,0,0,1,.48,0,2.49,2.49,0,0,1,.38.08l-.17,1.21-.95-.07a2.92,2.92,0,0,0-2,.68,3.86,3.86,0,0,0-1.1,1.88v7l1.74.14v.95h-4.75V252l1.74-.14v-9.47l-1.74-.14v-1h2.85Z"/><path class="cls-26" d="M456.09,253.16a4.58,4.58,0,0,1-3.6-1.61,6,6,0,0,1-1.43-4.09v-.6a6.11,6.11,0,0,1,1.42-4.14,4.4,4.4,0,0,1,3.44-1.65,4.25,4.25,0,0,1,3.34,1.36,5.21,5.21,0,0,1,1.21,3.62v1.09h-8.14v.32a5.16,5.16,0,0,0,1,3.29,3.3,3.3,0,0,0,2.72,1.33,5.6,5.6,0,0,0,2-.34,3.84,3.84,0,0,0,1.43-1l.55.89a4.66,4.66,0,0,1-1.64,1.09A6.25,6.25,0,0,1,456.09,253.16Zm-.17-11a3,3,0,0,0-2.37,1.09,4.75,4.75,0,0,0-1.13,2.74l0,.06h6.75v-.33a3.74,3.74,0,0,0-.88-2.54A3,3,0,0,0,455.92,242.17Z"/><path class="cls-26" d="M462.52,252l1.73-.14v-9.47l-1.73-.14v-1h2.86l.12,2a4,4,0,0,1,3.73-2.25,3.56,3.56,0,0,1,2.86,1.16,5.52,5.52,0,0,1,1,3.61v6l1.73.14v.95h-4.75V252l1.74-.14v-6a4.27,4.27,0,0,0-.74-2.83,2.7,2.7,0,0,0-2.11-.83,3.28,3.28,0,0,0-2.19.72,4,4,0,0,0-1.22,1.9v7l1.74.14v.95h-4.75Z"/><path class="cls-26" d="M479.74,238.3v3h2.53v1.05h-2.53v7.59a2.46,2.46,0,0,0,.41,1.62,1.35,1.35,0,0,0,1.09.48l.6,0c.2,0,.42,0,.68-.1l.19,1a2.91,2.91,0,0,1-.78.22,5.58,5.58,0,0,1-.91.07,2.43,2.43,0,0,1-1.9-.77,3.71,3.71,0,0,1-.67-2.46v-7.59h-2v-1.05h2v-3Z"/><path class="cls-26" d="M492.58,252.94a9,9,0,0,1-.18-1,6.15,6.15,0,0,1-.06-.87,5,5,0,0,1-1.7,1.52,4.8,4.8,0,0,1-2.4.6,3.64,3.64,0,0,1-2.62-.88,3.13,3.13,0,0,1-.93-2.39,3,3,0,0,1,1.38-2.56,6.4,6.4,0,0,1,3.73-1h2.54v-1.54a2.49,2.49,0,0,0-.79-2,3.23,3.23,0,0,0-2.22-.71,5.64,5.64,0,0,0-1.75.26,4,4,0,0,0-1.33.72l-.11,1.56h-1.05v-2.24a6.53,6.53,0,0,1,1.91-1,7.1,7.1,0,0,1,2.37-.39,4.62,4.62,0,0,1,3.07,1,3.48,3.48,0,0,1,1.16,2.81v5.73c0,.24,0,.46,0,.68a4.32,4.32,0,0,0,.07.64l1.15.08v.95Zm-4.2-.92a4.58,4.58,0,0,0,2.44-.64,3.86,3.86,0,0,0,1.52-1.67v-2.34h-2.56a4.72,4.72,0,0,0-2.78.73,2.16,2.16,0,0,0-1,1.83,1.92,1.92,0,0,0,.65,1.52A2.56,2.56,0,0,0,488.38,252Z"/><path class="cls-26" d="M504.67,251.26a3.92,3.92,0,0,1-1.48,1.41,4.35,4.35,0,0,1-2.13.49,3.79,3.79,0,0,1-3.23-1.56,6.79,6.79,0,0,1-1.17-4.17v-.22a7.68,7.68,0,0,1,1.17-4.47,3.74,3.74,0,0,1,3.25-1.67,4.12,4.12,0,0,1,2.09.51,4.19,4.19,0,0,1,1.47,1.46v-5.8l-1.74-.14v-1h3v15.71l1.74.14v.95h-2.88ZM498,247.43a5.93,5.93,0,0,0,.84,3.36,2.8,2.8,0,0,0,2.52,1.25,3.53,3.53,0,0,0,2.05-.56,3.61,3.61,0,0,0,1.28-1.54v-5.51a4,4,0,0,0-1.23-1.62,3.34,3.34,0,0,0-2.08-.62,2.75,2.75,0,0,0-2.53,1.39,6.87,6.87,0,0,0-.85,3.63Z"/><path class="cls-26" d="M509.62,246.94a6.3,6.3,0,0,1,1.39-4.22,5,5,0,0,1,7.41,0,6.3,6.3,0,0,1,1.4,4.22v.35a6.34,6.34,0,0,1-1.39,4.23,5,5,0,0,1-7.42,0,6.29,6.29,0,0,1-1.39-4.23Zm1.28.35a5.58,5.58,0,0,0,1,3.41,3.3,3.3,0,0,0,2.82,1.38,3.26,3.26,0,0,0,2.79-1.38,5.59,5.59,0,0,0,1-3.41v-.35a5.54,5.54,0,0,0-1-3.38,3.53,3.53,0,0,0-5.61,0,5.53,5.53,0,0,0-1,3.38Z"/><path class="cls-26" d="M523.9,252.94h-1.52v-1.8h1.52Zm-.13-5.15H522.5V237.26h1.27Z"/><path class="cls-26" d="M541.17,245.35h-6.36v6.5h7.33l.1-2.35h1.13v3.44H531.8V252l1.74-.14V238.36l-1.74-.14v-1h11.51v3.44h-1.13l-.09-2.34h-7.28v5.89h6.36Z"/><path class="cls-26" d="M559.05,252.94c-.08-.4-.14-.74-.18-1a8.14,8.14,0,0,1,0-.87,5.15,5.15,0,0,1-1.71,1.52,4.79,4.79,0,0,1-2.39.6,3.67,3.67,0,0,1-2.63-.88,3.16,3.16,0,0,1-.92-2.39,2.94,2.94,0,0,1,1.37-2.56,6.42,6.42,0,0,1,3.73-1h2.55v-1.54a2.5,2.5,0,0,0-.8-2,3.23,3.23,0,0,0-2.22-.71,5.69,5.69,0,0,0-1.75.26,4.12,4.12,0,0,0-1.33.72l-.1,1.56h-1.06v-2.24a6.53,6.53,0,0,1,1.91-1,7.2,7.2,0,0,1,2.38-.39,4.59,4.59,0,0,1,3.06,1,3.46,3.46,0,0,1,1.17,2.81v5.73c0,.24,0,.46,0,.68a6.27,6.27,0,0,0,.07.64l1.15.08v.95Zm-4.2-.92a4.56,4.56,0,0,0,2.44-.64,3.82,3.82,0,0,0,1.53-1.67v-2.34h-2.57a4.74,4.74,0,0,0-2.78.73,2.16,2.16,0,0,0-1,1.83,2,2,0,0,0,.65,1.52A2.58,2.58,0,0,0,554.85,252Z"/><path class="cls-26" d="M562.9,252l1.74-.14v-9.47l-1.74-.14v-1h2.87l.11,2a4,4,0,0,1,3.73-2.25,3.54,3.54,0,0,1,2.86,1.16,5.52,5.52,0,0,1,1,3.61v6l1.74.14v.95h-4.76V252l1.74-.14v-6a4.27,4.27,0,0,0-.74-2.83,2.67,2.67,0,0,0-2.1-.83,3.25,3.25,0,0,0-2.19.72,3.85,3.85,0,0,0-1.22,1.9v7l1.73.14v.95H562.9Z"/><path class="cls-26" d="M580.12,238.3v3h2.54v1.05h-2.54v7.59a2.52,2.52,0,0,0,.41,1.62,1.36,1.36,0,0,0,1.09.48l.61,0c.19,0,.42,0,.67-.1l.19,1a2.94,2.94,0,0,1-.77.22,5.79,5.79,0,0,1-.92.07,2.39,2.39,0,0,1-1.89-.77,3.71,3.71,0,0,1-.68-2.46v-7.59h-2v-1.05h2v-3Z"/><path class="cls-26" d="M590.08,253.16a4.59,4.59,0,0,1-3.6-1.61,6,6,0,0,1-1.43-4.09v-.6a6.11,6.11,0,0,1,1.43-4.14,4.38,4.38,0,0,1,3.43-1.65,4.23,4.23,0,0,1,3.34,1.36,5.21,5.21,0,0,1,1.21,3.62v1.09h-8.14v.32a5.22,5.22,0,0,0,1,3.29,3.3,3.3,0,0,0,2.72,1.33,5.56,5.56,0,0,0,2-.34,4,4,0,0,0,1.44-1l.54.89a4.58,4.58,0,0,1-1.64,1.09A6.25,6.25,0,0,1,590.08,253.16Zm-.17-11a3.05,3.05,0,0,0-2.37,1.09,4.74,4.74,0,0,0-1.12,2.74l0,.06h6.76v-.33a3.75,3.75,0,0,0-.89-2.54A3,3,0,0,0,589.91,242.17Z"/><path class="cls-26" d="M605.11,244.88h-1l-.15-1.65a3.42,3.42,0,0,0-1.21-.78,4.62,4.62,0,0,0-1.68-.28,3.12,3.12,0,0,0-2.1.61,1.84,1.84,0,0,0-.69,1.42,1.71,1.71,0,0,0,.6,1.34,5.88,5.88,0,0,0,2.4.93,7.76,7.76,0,0,1,3.08,1.26,2.63,2.63,0,0,1,1,2.18,2.84,2.84,0,0,1-1.16,2.35,4.93,4.93,0,0,1-3.09.9,7.16,7.16,0,0,1-2.33-.36,5.43,5.43,0,0,1-1.81-1v-2.34h1l.18,1.66a2.92,2.92,0,0,0,1.3.74,5.5,5.5,0,0,0,1.63.24,3.52,3.52,0,0,0,2.19-.62,1.82,1.82,0,0,0,.8-1.48,1.92,1.92,0,0,0-.67-1.44,5.39,5.39,0,0,0-2.4-1,8.1,8.1,0,0,1-3.06-1.2,2.48,2.48,0,0,1-1-2.09,2.81,2.81,0,0,1,1.12-2.26,4.51,4.51,0,0,1,2.95-.92,6.64,6.64,0,0,1,2.32.39,4.83,4.83,0,0,1,1.71,1.06Z"/><path class="cls-26" d="M621,251.26a4.07,4.07,0,0,1-1.48,1.41,4.42,4.42,0,0,1-2.14.49,3.82,3.82,0,0,1-3.23-1.56,6.79,6.79,0,0,1-1.17-4.17v-.22a7.68,7.68,0,0,1,1.17-4.47,3.76,3.76,0,0,1,3.26-1.67,4.12,4.12,0,0,1,2.09.51A4.19,4.19,0,0,1,621,243v-5.8l-1.74-.14v-1h3v15.71L624,252v.95h-2.88Zm-6.73-3.83a5.93,5.93,0,0,0,.84,3.36,2.82,2.82,0,0,0,2.52,1.25,3.51,3.51,0,0,0,2-.56,3.7,3.7,0,0,0,1.29-1.54v-5.51a4.09,4.09,0,0,0-1.24-1.62,3.32,3.32,0,0,0-2.08-.62,2.77,2.77,0,0,0-2.53,1.39,7,7,0,0,0-.85,3.63Z"/><path class="cls-26" d="M631,253.16a4.61,4.61,0,0,1-3.61-1.61,5.94,5.94,0,0,1-1.42-4.09v-.6a6.11,6.11,0,0,1,1.42-4.14,4.38,4.38,0,0,1,3.43-1.65,4.23,4.23,0,0,1,3.34,1.36,5.22,5.22,0,0,1,1.22,3.62v1.09h-8.15v.32a5.22,5.22,0,0,0,1,3.29,3.32,3.32,0,0,0,2.73,1.33,5.54,5.54,0,0,0,2-.34,4,4,0,0,0,1.44-1l.54.89a4.58,4.58,0,0,1-1.64,1.09A6.23,6.23,0,0,1,631,253.16Zm-.18-11a3.05,3.05,0,0,0-2.37,1.09,4.74,4.74,0,0,0-1.12,2.74l0,.06h6.76v-.33a3.75,3.75,0,0,0-.89-2.54A3,3,0,0,0,630.84,242.17Z"/><path class="cls-26" d="M414,279.63a4.61,4.61,0,0,1-3.6-1.61,5.92,5.92,0,0,1-1.43-4.1v-.59a6.11,6.11,0,0,1,1.42-4.15,4.38,4.38,0,0,1,3.44-1.65,4.26,4.26,0,0,1,3.33,1.36,5.23,5.23,0,0,1,1.22,3.62v1.1h-8.14v.31a5.14,5.14,0,0,0,1,3.29,3.26,3.26,0,0,0,2.72,1.33,5.51,5.51,0,0,0,2-.33,4.23,4.23,0,0,0,1.44-1l.54.88a4.58,4.58,0,0,1-1.64,1.09A6.23,6.23,0,0,1,414,279.63Zm-.17-11a3,3,0,0,0-2.37,1.1,4.69,4.69,0,0,0-1.13,2.74l0,0h6.76v-.32a3.75,3.75,0,0,0-.89-2.54A3,3,0,0,0,413.83,268.63Z"/><path class="cls-26" d="M420.42,278.45l1.74-.14v-9.46l-1.74-.14v-1h2.87l.12,2a4,4,0,0,1,3.73-2.26,3.52,3.52,0,0,1,2.85,1.16,5.49,5.49,0,0,1,1,3.62v6l1.74.14v.95H428v-.95l1.73-.14v-6a4.24,4.24,0,0,0-.74-2.84,2.67,2.67,0,0,0-2.1-.83,3.25,3.25,0,0,0-2.19.72,4,4,0,0,0-1.22,1.9v7l1.74.14v.95h-4.76Z"/><path class="cls-26" d="M439.53,278.54a3.6,3.6,0,0,0,2.24-.73,2.43,2.43,0,0,0,1-2h1.13l0,.07a3.25,3.25,0,0,1-1.27,2.7,4.73,4.73,0,0,1-3.09,1.09A4.38,4.38,0,0,1,435.9,278a6.58,6.58,0,0,1-1.29-4.2v-.45a6.56,6.56,0,0,1,1.29-4.18,4.34,4.34,0,0,1,3.62-1.64A5.76,5.76,0,0,1,442,268a4.82,4.82,0,0,1,1.8,1.38l.05,2.54h-1.08l-.21-2.07a3.75,3.75,0,0,0-1.27-.92,4.31,4.31,0,0,0-1.73-.34,3.06,3.06,0,0,0-2.74,1.34,6,6,0,0,0-.89,3.38v.45a6.08,6.08,0,0,0,.88,3.41A3.07,3.07,0,0,0,439.53,278.54Z"/><path class="cls-26" d="M454.23,279.4c-.09-.39-.15-.73-.19-1a8.46,8.46,0,0,1-.05-.87,5.09,5.09,0,0,1-1.7,1.51,4.71,4.71,0,0,1-2.4.61,3.63,3.63,0,0,1-2.62-.89,3.12,3.12,0,0,1-.93-2.39,3,3,0,0,1,1.37-2.56,6.5,6.5,0,0,1,3.73-1H454V271.3a2.5,2.5,0,0,0-.79-2,3.23,3.23,0,0,0-2.22-.71,5.46,5.46,0,0,0-1.76.27,3.78,3.78,0,0,0-1.32.71l-.11,1.57h-1.06v-2.24a6.61,6.61,0,0,1,1.92-1,7.1,7.1,0,0,1,2.37-.39,4.59,4.59,0,0,1,3.07,1,3.47,3.47,0,0,1,1.16,2.81v5.72c0,.24,0,.47,0,.69s0,.43.06.64l1.15.07v.95Zm-4.2-.91a4.61,4.61,0,0,0,2.44-.65,3.81,3.81,0,0,0,1.52-1.67v-2.34h-2.57a4.76,4.76,0,0,0-2.77.73,2.17,2.17,0,0,0-1,1.84,1.92,1.92,0,0,0,.64,1.51A2.59,2.59,0,0,0,450,278.49Z"/><path class="cls-26" d="M461.07,267.75l.16,1.94v.14a4.12,4.12,0,0,1,1.33-1.69,3.42,3.42,0,0,1,2-.61,3.73,3.73,0,0,1,.48,0l.38.08-.18,1.21-.94-.06a2.84,2.84,0,0,0-2,.68,3.74,3.74,0,0,0-1.1,1.88v6.95l1.73.14v.95h-4.74v-.95l1.74-.14v-9.46l-1.74-.14v-1h2.85Z"/><path class="cls-26" d="M475,279.4a8.53,8.53,0,0,1-.18-1,6.36,6.36,0,0,1-.06-.87,5,5,0,0,1-1.7,1.51,4.71,4.71,0,0,1-2.4.61,3.65,3.65,0,0,1-2.62-.89,3.12,3.12,0,0,1-.93-2.39,3,3,0,0,1,1.38-2.56,6.48,6.48,0,0,1,3.73-1h2.54V271.3a2.5,2.5,0,0,0-.79-2,3.23,3.23,0,0,0-2.22-.71,5.46,5.46,0,0,0-1.76.27,3.87,3.87,0,0,0-1.32.71l-.11,1.57h-1.05v-2.24a6.55,6.55,0,0,1,1.91-1,7.1,7.1,0,0,1,2.37-.39,4.57,4.57,0,0,1,3.07,1,3.47,3.47,0,0,1,1.16,2.81v5.72c0,.24,0,.47,0,.69a4.48,4.48,0,0,0,.07.64l1.15.07v.95Zm-4.2-.91a4.59,4.59,0,0,0,2.44-.65,3.81,3.81,0,0,0,1.52-1.67v-2.34h-2.56a4.79,4.79,0,0,0-2.78.73,2.19,2.19,0,0,0-1,1.84,1.9,1.9,0,0,0,.65,1.51A2.57,2.57,0,0,0,470.84,278.49Z"/><path class="cls-26" d="M481.88,267.75l.16,1.94v.14a4.14,4.14,0,0,1,1.34-1.69,3.37,3.37,0,0,1,2-.61,3.57,3.57,0,0,1,.47,0l.38.08-.17,1.21-.95-.06a2.87,2.87,0,0,0-2,.68,3.82,3.82,0,0,0-1.1,1.88v6.95l1.74.14v.95H479v-.95l1.74-.14v-9.46l-1.74-.14v-1h2.85Z"/><path class="cls-26" d="M493,278.45l1.74-.14v-9.46l-1.74-.14v-1h2.87l.12,2a4.11,4.11,0,0,1,1.49-1.67,4.18,4.18,0,0,1,2.24-.59,3.52,3.52,0,0,1,2.85,1.16,5.49,5.49,0,0,1,1,3.62v6l1.74.14v.95H500.5v-.95l1.73-.14v-6a4.24,4.24,0,0,0-.74-2.84,2.67,2.67,0,0,0-2.1-.83,3.25,3.25,0,0,0-2.19.72,4,4,0,0,0-1.22,1.9v7l1.73.14v.95H493Z"/><path class="cls-26" d="M507.15,273.4a6.31,6.31,0,0,1,1.39-4.22,5,5,0,0,1,7.41,0,6.31,6.31,0,0,1,1.39,4.22v.36A6.32,6.32,0,0,1,516,278a4.59,4.59,0,0,1-3.69,1.64,4.65,4.65,0,0,1-3.72-1.64,6.32,6.32,0,0,1-1.39-4.23Zm1.27.36a5.55,5.55,0,0,0,1,3.4,3.54,3.54,0,0,0,5.61,0,5.55,5.55,0,0,0,1-3.4v-.36a5.58,5.58,0,0,0-1-3.38,3.53,3.53,0,0,0-5.61,0,5.58,5.58,0,0,0-1,3.38Z"/><path class="cls-26" d="M527.79,271.35h-1l-.15-1.65a3.22,3.22,0,0,0-1.21-.79,4.75,4.75,0,0,0-1.67-.28,3.17,3.17,0,0,0-2.1.61,1.87,1.87,0,0,0-.7,1.43,1.69,1.69,0,0,0,.61,1.33,5.74,5.74,0,0,0,2.4.93A7.75,7.75,0,0,1,527,274.2a2.62,2.62,0,0,1,1,2.18,2.84,2.84,0,0,1-1.16,2.35,4.93,4.93,0,0,1-3.09.9,7.16,7.16,0,0,1-2.33-.36,5.57,5.57,0,0,1-1.82-1V275.9h1l.18,1.66a3.06,3.06,0,0,0,1.29.75,6,6,0,0,0,1.64.23,3.49,3.49,0,0,0,2.18-.61,1.82,1.82,0,0,0,.8-1.49,1.9,1.9,0,0,0-.66-1.43,5.44,5.44,0,0,0-2.41-1,8,8,0,0,1-3-1.2,2.48,2.48,0,0,1-1-2.1,2.81,2.81,0,0,1,1.11-2.25,4.48,4.48,0,0,1,3-.93,6.59,6.59,0,0,1,2.31.4,4.57,4.57,0,0,1,1.71,1.06Z"/><path class="cls-26" d="M538.71,271.35h-1l-.15-1.65a3.3,3.3,0,0,0-1.21-.79,4.85,4.85,0,0,0-1.68-.28,3.17,3.17,0,0,0-2.1.61,1.86,1.86,0,0,0-.69,1.43,1.69,1.69,0,0,0,.6,1.33,5.74,5.74,0,0,0,2.4.93,7.75,7.75,0,0,1,3.08,1.27,2.63,2.63,0,0,1,1,2.18,2.82,2.82,0,0,1-1.17,2.35,4.93,4.93,0,0,1-3.09.9,7.16,7.16,0,0,1-2.33-.36,5.43,5.43,0,0,1-1.81-1V275.9h1l.18,1.66a3,3,0,0,0,1.3.75,5.84,5.84,0,0,0,1.63.23,3.52,3.52,0,0,0,2.19-.61,1.84,1.84,0,0,0,.8-1.49A1.92,1.92,0,0,0,537,275a5.34,5.34,0,0,0-2.4-1,8.1,8.1,0,0,1-3.06-1.2,2.48,2.48,0,0,1-1-2.1,2.79,2.79,0,0,1,1.12-2.25,4.46,4.46,0,0,1,3-.93,6.64,6.64,0,0,1,2.32.4,4.57,4.57,0,0,1,1.71,1.06Z"/><path class="cls-26" d="M549.23,279.4a8.53,8.53,0,0,1-.18-1,6.36,6.36,0,0,1-.06-.87,5,5,0,0,1-1.7,1.51,4.71,4.71,0,0,1-2.4.61,3.65,3.65,0,0,1-2.62-.89,3.12,3.12,0,0,1-.93-2.39,3,3,0,0,1,1.38-2.56,6.48,6.48,0,0,1,3.73-1H549V271.3a2.5,2.5,0,0,0-.79-2,3.23,3.23,0,0,0-2.22-.71,5.36,5.36,0,0,0-1.75.27,3.83,3.83,0,0,0-1.33.71l-.11,1.57h-1v-2.24a6.55,6.55,0,0,1,1.91-1,7.1,7.1,0,0,1,2.37-.39,4.57,4.57,0,0,1,3.07,1,3.47,3.47,0,0,1,1.16,2.81v5.72c0,.24,0,.47,0,.69a4.48,4.48,0,0,0,.07.64l1.15.07v.95Zm-4.2-.91a4.59,4.59,0,0,0,2.44-.65,3.81,3.81,0,0,0,1.52-1.67v-2.34h-2.56a4.79,4.79,0,0,0-2.78.73,2.19,2.19,0,0,0-1,1.84,1.93,1.93,0,0,0,.65,1.51A2.58,2.58,0,0,0,545,278.49Z"/><path class="cls-26" d="M561.87,280.36a4.06,4.06,0,0,1-.86,2.77,3,3,0,0,1-2.37,1,2.87,2.87,0,0,1-.61-.06,3.41,3.41,0,0,1-.59-.15l.14-1.09a2.39,2.39,0,0,0,.46.11,2.59,2.59,0,0,0,.52.06,1.81,1.81,0,0,0,1.5-.67,3.08,3.08,0,0,0,.53-1.95V268.85l-1.74-.14v-1h3Zm-.07-16h-1.28V262.6h1.28Z"/><path class="cls-26" d="M564.61,273.4a6.31,6.31,0,0,1,1.39-4.22,5,5,0,0,1,7.41,0,6.31,6.31,0,0,1,1.39,4.22v.36a6.32,6.32,0,0,1-1.39,4.23,4.59,4.59,0,0,1-3.69,1.64A4.65,4.65,0,0,1,566,278a6.32,6.32,0,0,1-1.39-4.23Zm1.27.36a5.55,5.55,0,0,0,1,3.4,3.54,3.54,0,0,0,5.61,0,5.55,5.55,0,0,0,1-3.4v-.36a5.58,5.58,0,0,0-1-3.38,3.53,3.53,0,0,0-5.61,0,5.58,5.58,0,0,0-1,3.38Z"/><path class="cls-26" d="M579.64,267.75l.16,1.94v.14a4.22,4.22,0,0,1,1.34-1.69,3.37,3.37,0,0,1,2-.61,3.57,3.57,0,0,1,.47,0l.38.08-.17,1.21-1-.06a2.83,2.83,0,0,0-2,.68,3.76,3.76,0,0,0-1.11,1.88v6.95l1.74.14v.95H576.8v-.95l1.73-.14v-9.46l-1.73-.14v-1h2.84Z"/><path class="cls-26" d="M585.42,278.45l1.74-.14v-9.46l-1.74-.14v-1h2.86l.12,2a4,4,0,0,1,3.73-2.26,3.56,3.56,0,0,1,2.86,1.16,5.55,5.55,0,0,1,1,3.62v6l1.73.14v.95H593v-.95l1.74-.14v-6a4.3,4.3,0,0,0-.74-2.84,2.7,2.7,0,0,0-2.11-.83,3.28,3.28,0,0,0-2.19.72,4,4,0,0,0-1.22,1.9v7l1.74.14v.95h-4.75Z"/><path class="cls-26" d="M607.67,279.4a8.53,8.53,0,0,1-.18-1,6.36,6.36,0,0,1-.06-.87,5,5,0,0,1-1.7,1.51,4.71,4.71,0,0,1-2.4.61,3.65,3.65,0,0,1-2.62-.89,3.12,3.12,0,0,1-.93-2.39,3,3,0,0,1,1.38-2.56,6.48,6.48,0,0,1,3.73-1h2.54V271.3a2.5,2.5,0,0,0-.79-2,3.23,3.23,0,0,0-2.22-.71,5.4,5.4,0,0,0-1.75.27,3.83,3.83,0,0,0-1.33.71l-.11,1.57h-1.05v-2.24a6.55,6.55,0,0,1,1.91-1,7.1,7.1,0,0,1,2.37-.39,4.57,4.57,0,0,1,3.07,1,3.44,3.44,0,0,1,1.16,2.81v5.72c0,.24,0,.47,0,.69a4.48,4.48,0,0,0,.07.64l1.15.07v.95Zm-4.2-.91a4.59,4.59,0,0,0,2.44-.65,3.81,3.81,0,0,0,1.52-1.67v-2.34h-2.56a4.79,4.79,0,0,0-2.78.73,2.19,2.19,0,0,0-1,1.84,1.93,1.93,0,0,0,.65,1.51A2.58,2.58,0,0,0,603.47,278.49Z"/><path class="cls-26" d="M619.76,277.72a3.92,3.92,0,0,1-1.48,1.41,4.35,4.35,0,0,1-2.13.5,3.81,3.81,0,0,1-3.23-1.56,6.79,6.79,0,0,1-1.17-4.17v-.23a7.65,7.65,0,0,1,1.17-4.46,3.74,3.74,0,0,1,3.25-1.68,4,4,0,0,1,3.56,2V263.7l-1.74-.14v-1h3v15.71l1.74.14v.95h-2.88ZM613,273.9a5.93,5.93,0,0,0,.84,3.36,2.82,2.82,0,0,0,2.52,1.25,3.61,3.61,0,0,0,2.05-.56,3.73,3.73,0,0,0,1.28-1.54V270.9a3.92,3.92,0,0,0-1.23-1.62,3.28,3.28,0,0,0-2.08-.63,2.77,2.77,0,0,0-2.53,1.4,6.86,6.86,0,0,0-.85,3.62Z"/><path class="cls-26" d="M632.67,279.4a8.53,8.53,0,0,1-.18-1,6.36,6.36,0,0,1-.06-.87,5,5,0,0,1-1.7,1.51,4.71,4.71,0,0,1-2.4.61,3.65,3.65,0,0,1-2.62-.89,3.12,3.12,0,0,1-.93-2.39,3,3,0,0,1,1.38-2.56,6.48,6.48,0,0,1,3.73-1h2.54V271.3a2.5,2.5,0,0,0-.79-2,3.23,3.23,0,0,0-2.22-.71,5.4,5.4,0,0,0-1.75.27,3.83,3.83,0,0,0-1.33.71l-.11,1.57h-1.05v-2.24a6.55,6.55,0,0,1,1.91-1,7.1,7.1,0,0,1,2.37-.39,4.57,4.57,0,0,1,3.07,1,3.44,3.44,0,0,1,1.16,2.81v5.72c0,.24,0,.47,0,.69a4.48,4.48,0,0,0,.07.64l1.15.07v.95Zm-4.2-.91a4.59,4.59,0,0,0,2.44-.65,3.81,3.81,0,0,0,1.52-1.67v-2.34h-2.56a4.79,4.79,0,0,0-2.78.73,2.19,2.19,0,0,0-1,1.84,1.93,1.93,0,0,0,.65,1.51A2.58,2.58,0,0,0,628.47,278.49Z"/><path class="cls-26" d="M638.6,278.89a4.84,4.84,0,0,1-.4,1.93,4.68,4.68,0,0,1-1.09,1.61l-.75-.56a6,6,0,0,0,.74-1.41,4.8,4.8,0,0,0,.24-1.55v-1.53h1.26Z"/><path class="cls-26" d="M651.32,279.63a4.61,4.61,0,0,1-3.6-1.61,5.92,5.92,0,0,1-1.43-4.1v-.59a6.11,6.11,0,0,1,1.42-4.15,4.38,4.38,0,0,1,3.44-1.65,4.26,4.26,0,0,1,3.33,1.36,5.23,5.23,0,0,1,1.22,3.62v1.1h-8.14v.31a5.14,5.14,0,0,0,1,3.29,3.28,3.28,0,0,0,2.72,1.33,5.51,5.51,0,0,0,2-.33,4.23,4.23,0,0,0,1.44-1l.55.88a4.71,4.71,0,0,1-1.65,1.09A6.23,6.23,0,0,1,651.32,279.63Zm-.17-11a3,3,0,0,0-2.37,1.1,4.69,4.69,0,0,0-1.13,2.74l0,0h6.76v-.32a3.75,3.75,0,0,0-.89-2.54A3,3,0,0,0,651.15,268.63Zm1.2-5.33h1.57l0,.07-2.65,2.8h-1.14Z"/><path class="cls-26" d="M663.2,278.45l1.74-.14v-9.46l-1.74-.14v-1h3v10.56l1.74.14v.95H663.2Zm3-14h-1.26V262.6h1.26Z"/><path class="cls-26" d="M669.81,268.71v-1h2.86l.12,1.93a4,4,0,0,1,1.48-1.58,4.13,4.13,0,0,1,2.21-.57,3.35,3.35,0,0,1,3.47,2.64,4.47,4.47,0,0,1,1.49-1.93,3.86,3.86,0,0,1,2.35-.71,3.48,3.48,0,0,1,2.85,1.24,6.06,6.06,0,0,1,1,3.84v5.69l1.73.15v.95h-4.76v-.95l1.74-.15v-5.71a4.73,4.73,0,0,0-.76-3,2.59,2.59,0,0,0-2.09-.89,2.85,2.85,0,0,0-2.3,1,4.72,4.72,0,0,0-1,2.45v.16a1,1,0,0,1,0,.19v5.9l1.74.14v.95h-4.76v-.95l1.74-.14v-5.72a4.74,4.74,0,0,0-.76-3,2.62,2.62,0,0,0-2.1-.91,3.14,3.14,0,0,0-2.15.7,3.69,3.69,0,0,0-1.12,1.87v7.09l1.74.14v.95h-4.75v-.95l1.73-.14v-9.46Z"/><path class="cls-26" d="M690.62,268.71v-1h2.8l.16,1.81a4.15,4.15,0,0,1,1.5-1.5,4.21,4.21,0,0,1,2.13-.53,3.74,3.74,0,0,1,3.25,1.68,7.57,7.57,0,0,1,1.18,4.46v.23a6.72,6.72,0,0,1-1.18,4.17,3.8,3.8,0,0,1-3.22,1.56,4.64,4.64,0,0,1-2.13-.47,4,4,0,0,1-1.49-1.33v4.95l1.74.14v1h-4.74v-1l1.74-.14V268.85Zm9.74,5a6.63,6.63,0,0,0-.88-3.61,2.81,2.81,0,0,0-2.55-1.41,3.38,3.38,0,0,0-2.1.62,3.91,3.91,0,0,0-1.21,1.61v5.6a3.49,3.49,0,0,0,1.27,1.51,3.59,3.59,0,0,0,2.06.55,2.88,2.88,0,0,0,2.54-1.27,5.87,5.87,0,0,0,.87-3.37Z"/><path class="cls-26" d="M703.71,273.4a6.32,6.32,0,0,1,1.4-4.22,5,5,0,0,1,7.41,0,6.31,6.31,0,0,1,1.39,4.22v.36a6.32,6.32,0,0,1-1.39,4.23,4.59,4.59,0,0,1-3.69,1.64,4.65,4.65,0,0,1-3.72-1.64,6.33,6.33,0,0,1-1.4-4.23Zm1.28.36a5.55,5.55,0,0,0,1,3.4,3.54,3.54,0,0,0,5.61,0,5.55,5.55,0,0,0,1-3.4v-.36a5.57,5.57,0,0,0-1-3.38,3.53,3.53,0,0,0-5.61,0,5.58,5.58,0,0,0-1,3.38Z"/><path class="cls-26" d="M718.75,267.75l.16,1.94v.14a4.14,4.14,0,0,1,1.34-1.69,3.37,3.37,0,0,1,2-.61,3.57,3.57,0,0,1,.47,0l.38.08-.17,1.21-1-.06a2.87,2.87,0,0,0-2,.68,3.82,3.82,0,0,0-1.1,1.88v6.95l1.74.14v.95h-4.74v-.95l1.73-.14v-9.46l-1.73-.14v-1h2.84Z"/><path class="cls-26" d="M728,264.77v3h2.54v1.06H728v7.59a2.52,2.52,0,0,0,.41,1.62,1.38,1.38,0,0,0,1.1.48l.6,0,.68-.09.19,1a3.66,3.66,0,0,1-.78.21,5.72,5.72,0,0,1-.92.08,2.37,2.37,0,0,1-1.89-.78,3.66,3.66,0,0,1-.68-2.45v-7.59h-2v-1.06h2v-3Z"/><path class="cls-26" d="M740.87,279.4q-.12-.58-.18-1a8.46,8.46,0,0,1-.05-.87,5.09,5.09,0,0,1-1.7,1.51,4.73,4.73,0,0,1-2.4.61,3.63,3.63,0,0,1-2.62-.89,3.12,3.12,0,0,1-.93-2.39,3,3,0,0,1,1.37-2.56,6.5,6.5,0,0,1,3.73-1h2.55V271.3a2.5,2.5,0,0,0-.79-2,3.24,3.24,0,0,0-2.23-.71,5.44,5.44,0,0,0-1.75.27,3.92,3.92,0,0,0-1.33.71l-.1,1.57h-1.06v-2.24a6.61,6.61,0,0,1,1.92-1,7.1,7.1,0,0,1,2.37-.39,4.59,4.59,0,0,1,3.07,1,3.47,3.47,0,0,1,1.16,2.81v5.72c0,.24,0,.47,0,.69s0,.43.07.64l1.15.07v.95Zm-4.19-.91a4.61,4.61,0,0,0,2.44-.65,3.81,3.81,0,0,0,1.52-1.67v-2.34h-2.57a4.76,4.76,0,0,0-2.77.73,2.17,2.17,0,0,0-1,1.84,1.92,1.92,0,0,0,.64,1.51A2.59,2.59,0,0,0,736.68,278.49Z"/><path class="cls-26" d="M744.72,278.45l1.74-.14v-9.46l-1.74-.14v-1h2.87l.12,2a4.11,4.11,0,0,1,1.49-1.67,4.18,4.18,0,0,1,2.24-.59,3.52,3.52,0,0,1,2.85,1.16,5.49,5.49,0,0,1,1,3.62v6l1.74.14v.95h-4.75v-.95l1.73-.14v-6a4.24,4.24,0,0,0-.74-2.84,2.67,2.67,0,0,0-2.1-.83,3.25,3.25,0,0,0-2.19.72,4,4,0,0,0-1.22,1.9v7l1.73.14v.95h-4.75Z"/><path class="cls-26" d="M761.94,264.77v3h2.54v1.06h-2.54v7.59a2.52,2.52,0,0,0,.41,1.62,1.38,1.38,0,0,0,1.1.48l.6,0,.67-.09.2,1a3.66,3.66,0,0,1-.78.21,5.72,5.72,0,0,1-.92.08,2.37,2.37,0,0,1-1.89-.78,3.66,3.66,0,0,1-.68-2.45v-7.59h-2v-1.06h2v-3Z"/><path class="cls-26" d="M771.91,279.63A4.65,4.65,0,0,1,768.3,278a6,6,0,0,1-1.42-4.1v-.59a6.11,6.11,0,0,1,1.42-4.15,4.38,4.38,0,0,1,3.44-1.65,4.26,4.26,0,0,1,3.33,1.36,5.23,5.23,0,0,1,1.22,3.62v1.1h-8.14v.31a5.19,5.19,0,0,0,1,3.29,3.3,3.3,0,0,0,2.73,1.33,5.51,5.51,0,0,0,2-.33,4.23,4.23,0,0,0,1.44-1l.54.88a4.58,4.58,0,0,1-1.64,1.09A6.23,6.23,0,0,1,771.91,279.63Zm-.17-11a3,3,0,0,0-2.37,1.1,4.69,4.69,0,0,0-1.13,2.74l0,0H775v-.32a3.75,3.75,0,0,0-.89-2.54A3,3,0,0,0,771.74,268.63Z"/><path class="cls-26" d="M411.84,291.23v3h2.54v1.06h-2.54v7.59a2.46,2.46,0,0,0,.42,1.62,1.35,1.35,0,0,0,1.09.48l.6,0a4.92,4.92,0,0,0,.68-.09l.19,1a3.33,3.33,0,0,1-.78.22,5.7,5.7,0,0,1-.92.07,2.39,2.39,0,0,1-1.89-.77,3.71,3.71,0,0,1-.67-2.46v-7.59h-2v-1.06h2v-3Z"/><path class="cls-26" d="M421.81,306.09a4.58,4.58,0,0,1-3.6-1.61,5.91,5.91,0,0,1-1.43-4.1v-.59a6.09,6.09,0,0,1,1.42-4.14,4.4,4.4,0,0,1,3.44-1.65,4.23,4.23,0,0,1,3.33,1.36,5.21,5.21,0,0,1,1.22,3.61v1.1h-8.14v.31a5.12,5.12,0,0,0,1,3.29,3.28,3.28,0,0,0,2.72,1.33,5.51,5.51,0,0,0,2-.33,3.88,3.88,0,0,0,1.44-1l.55.89a4.75,4.75,0,0,1-1.65,1.09A6.2,6.2,0,0,1,421.81,306.09Zm-.17-11a3,3,0,0,0-2.37,1.09,4.69,4.69,0,0,0-1.13,2.74l0,.05h6.76v-.32a3.74,3.74,0,0,0-.88-2.54A3,3,0,0,0,421.64,295.1Z"/><path class="cls-26" d="M431.23,294.21l.16,1.94v.14a4,4,0,0,1,1.34-1.68,3.31,3.31,0,0,1,2-.61,2.42,2.42,0,0,1,.47,0,2.49,2.49,0,0,1,.38.08l-.17,1.2-.95-.06a2.92,2.92,0,0,0-2,.68,3.82,3.82,0,0,0-1.1,1.88v7l1.74.14v.95h-4.75v-.95l1.74-.14v-9.47l-1.74-.14v-1h2.85Z"/><path class="cls-26" d="M437,295.17v-1h2.87l.12,1.93a4,4,0,0,1,1.48-1.58,4.21,4.21,0,0,1,2.2-.56,3.66,3.66,0,0,1,2.21.65,3.62,3.62,0,0,1,1.27,2,4.56,4.56,0,0,1,1.48-1.94,3.89,3.89,0,0,1,2.35-.7,3.45,3.45,0,0,1,2.85,1.24,6,6,0,0,1,1,3.83v5.7l1.74.15v.95h-4.76v-.95l1.73-.15v-5.72a4.74,4.74,0,0,0-.75-3,2.57,2.57,0,0,0-2.09-.89,2.83,2.83,0,0,0-2.3,1,4.61,4.61,0,0,0-1,2.44c0,.06,0,.11,0,.16v6.1l1.74.14v.95h-4.75v-.95l1.74-.14v-5.73a4.7,4.7,0,0,0-.77-3,2.55,2.55,0,0,0-2.09-.91,3.18,3.18,0,0,0-2.16.69,3.71,3.71,0,0,0-1.11,1.87v7.1l1.74.14v.95H437v-.95l1.74-.14v-9.47Z"/><path class="cls-26" d="M458,299.87a6.23,6.23,0,0,1,1.4-4.22,5,5,0,0,1,7.4,0,6.28,6.28,0,0,1,1.4,4.22v.35a6.36,6.36,0,0,1-1.39,4.23,5,5,0,0,1-7.41,0,6.26,6.26,0,0,1-1.4-4.23Zm1.28.35a5.58,5.58,0,0,0,1,3.41,3.57,3.57,0,0,0,5.62,0,5.65,5.65,0,0,0,1-3.41v-.35a5.54,5.54,0,0,0-1-3.38,3.53,3.53,0,0,0-5.61,0,5.53,5.53,0,0,0-1,3.38Z"/><path class="cls-26" d="M478.65,297.81h-1l-.15-1.65a3.28,3.28,0,0,0-1.21-.78,4.62,4.62,0,0,0-1.68-.28,3.07,3.07,0,0,0-2.09.61,1.82,1.82,0,0,0-.7,1.42,1.71,1.71,0,0,0,.6,1.34,5.76,5.76,0,0,0,2.4.92,7.75,7.75,0,0,1,3.08,1.27,2.63,2.63,0,0,1,1,2.18,2.82,2.82,0,0,1-1.17,2.35,4.93,4.93,0,0,1-3.09.9,7.16,7.16,0,0,1-2.33-.36,5.53,5.53,0,0,1-1.81-1v-2.34h1l.18,1.65a2.9,2.9,0,0,0,1.3.75,5.54,5.54,0,0,0,1.63.23,3.52,3.52,0,0,0,2.19-.61,1.83,1.83,0,0,0,.8-1.49,1.88,1.88,0,0,0-.67-1.43,5.34,5.34,0,0,0-2.4-1,8.1,8.1,0,0,1-3.06-1.2,2.48,2.48,0,0,1-1-2.09,2.81,2.81,0,0,1,1.12-2.26,4.51,4.51,0,0,1,2.95-.92,6.64,6.64,0,0,1,2.32.39,4.7,4.7,0,0,1,1.71,1.06Z"/><path class="cls-26" d="M495,304a4,4,0,0,1-1.49,1.58,4.31,4.31,0,0,1-2.22.56,3.45,3.45,0,0,1-2.85-1.25,6,6,0,0,1-1-3.87v-5.66l-1.43-.14v-1h2.7V301a5.06,5.06,0,0,0,.72,3.06,2.45,2.45,0,0,0,2,.92,3.79,3.79,0,0,0,2.31-.64,3.41,3.41,0,0,0,1.2-1.79v-7.23l-1.64-.14v-1h2.92v10.57l1.55.14v.95H495.1Z"/><path class="cls-26" d="M499.37,295.17v-1h2.86l.12,1.93a4,4,0,0,1,1.48-1.58A4.24,4.24,0,0,1,506,294a3.63,3.63,0,0,1,2.2.65,3.56,3.56,0,0,1,1.27,2A4.58,4.58,0,0,1,511,294.7a3.85,3.85,0,0,1,2.35-.7,3.45,3.45,0,0,1,2.85,1.24,6,6,0,0,1,1,3.83v5.7l1.73.15v.95h-4.76v-.95l1.74-.15v-5.72a4.68,4.68,0,0,0-.76-3,2.56,2.56,0,0,0-2.09-.89,2.85,2.85,0,0,0-2.3,1,4.69,4.69,0,0,0-1,2.44v.16a1.15,1.15,0,0,1,0,.2v5.9l1.74.14v.95h-4.76v-.95l1.74-.14v-5.73a4.71,4.71,0,0,0-.76-3,2.59,2.59,0,0,0-2.1-.91,3.16,3.16,0,0,0-2.15.69,3.8,3.8,0,0,0-1.12,1.87v7.1l1.74.14v.95h-4.75v-.95l1.73-.14v-9.47Z"/><path class="cls-26" d="M528.48,305.87c-.08-.4-.15-.74-.18-1a6.17,6.17,0,0,1,0-.87,5.15,5.15,0,0,1-1.71,1.52,4.8,4.8,0,0,1-2.4.6,3.64,3.64,0,0,1-2.62-.88,3.15,3.15,0,0,1-.93-2.39,3,3,0,0,1,1.38-2.56,6.42,6.42,0,0,1,3.73-.95h2.55v-1.54a2.5,2.5,0,0,0-.8-2,3.19,3.19,0,0,0-2.22-.71,5.69,5.69,0,0,0-1.75.26,4.12,4.12,0,0,0-1.33.72l-.11,1.56h-1V295.4a6.53,6.53,0,0,1,1.91-1,7.14,7.14,0,0,1,2.37-.39,4.62,4.62,0,0,1,3.07,1,3.45,3.45,0,0,1,1.16,2.81v5.73c0,.24,0,.46,0,.68a4.48,4.48,0,0,0,.07.64l1.15.08v.95Zm-4.2-.92a4.59,4.59,0,0,0,2.44-.65,3.81,3.81,0,0,0,1.53-1.66V300.3h-2.57a4.79,4.79,0,0,0-2.78.72,2.19,2.19,0,0,0-1,1.84,1.92,1.92,0,0,0,.65,1.51A2.53,2.53,0,0,0,524.28,305Z"/><path class="cls-26" d="M543,306.09a4.58,4.58,0,0,1-3.6-1.61,6,6,0,0,1-1.43-4.1v-.59a6.14,6.14,0,0,1,1.42-4.14,4.4,4.4,0,0,1,3.44-1.65,4.23,4.23,0,0,1,3.34,1.36,5.2,5.2,0,0,1,1.21,3.61v1.1h-8.14v.31a5.18,5.18,0,0,0,1,3.29A3.28,3.28,0,0,0,543,305a5.61,5.61,0,0,0,2-.33,3.84,3.84,0,0,0,1.43-1l.55.89a4.71,4.71,0,0,1-1.64,1.09A6.25,6.25,0,0,1,543,306.09Zm-.17-11a3,3,0,0,0-2.37,1.09,4.68,4.68,0,0,0-1.12,2.74l0,.05h6.75v-.32a3.74,3.74,0,0,0-.88-2.54A3,3,0,0,0,542.78,295.1Z"/><path class="cls-26" d="M558,297.81h-1.05l-.15-1.65a3.2,3.2,0,0,0-1.21-.78,4.53,4.53,0,0,0-1.67-.28,3.1,3.1,0,0,0-2.1.61,1.85,1.85,0,0,0-.7,1.42,1.68,1.68,0,0,0,.61,1.34,5.76,5.76,0,0,0,2.4.92,7.75,7.75,0,0,1,3.08,1.27,2.62,2.62,0,0,1,1,2.18,2.82,2.82,0,0,1-1.17,2.35,4.88,4.88,0,0,1-3.08.9,7.16,7.16,0,0,1-2.33-.36,5.57,5.57,0,0,1-1.82-1v-2.34h1L551,304a2.87,2.87,0,0,0,1.29.75A5.6,5.6,0,0,0,554,305a3.49,3.49,0,0,0,2.18-.61,1.8,1.8,0,0,0,.8-1.49,1.9,1.9,0,0,0-.66-1.43,5.44,5.44,0,0,0-2.41-1,8,8,0,0,1-3-1.2,2.48,2.48,0,0,1-1-2.09,2.83,2.83,0,0,1,1.11-2.26,4.53,4.53,0,0,1,3-.92,6.59,6.59,0,0,1,2.31.39,4.7,4.7,0,0,1,1.71,1.06Z"/><path class="cls-26" d="M563.46,291.23v3H566v1.06h-2.54v7.59a2.46,2.46,0,0,0,.42,1.62A1.35,1.35,0,0,0,565,305l.6,0a4.92,4.92,0,0,0,.68-.09l.19,1a3.33,3.33,0,0,1-.78.22,5.7,5.7,0,0,1-.92.07,2.39,2.39,0,0,1-1.89-.77,3.71,3.71,0,0,1-.67-2.46v-7.59h-2v-1.06h2v-3Z"/><path class="cls-26" d="M571.11,294.21l.16,1.94v.14a4,4,0,0,1,1.33-1.68,3.35,3.35,0,0,1,2-.61,2.52,2.52,0,0,1,.48,0,2.1,2.1,0,0,1,.37.08l-.17,1.2-.94-.06a2.88,2.88,0,0,0-2,.68,3.74,3.74,0,0,0-1.1,1.88v7l1.73.14v.95h-4.74v-.95l1.74-.14v-9.47l-1.74-.14v-1h2.85Z"/><path class="cls-26" d="M585.08,305.87a9,9,0,0,1-.18-1,6.15,6.15,0,0,1-.06-.87,5,5,0,0,1-1.7,1.52,4.8,4.8,0,0,1-2.4.6,3.64,3.64,0,0,1-2.62-.88,3.15,3.15,0,0,1-.93-2.39,3,3,0,0,1,1.38-2.56,6.4,6.4,0,0,1,3.73-.95h2.54v-1.54a2.49,2.49,0,0,0-.79-2,3.19,3.19,0,0,0-2.22-.71,5.75,5.75,0,0,0-1.76.26,4,4,0,0,0-1.32.72l-.11,1.56h-1V295.4a6.53,6.53,0,0,1,1.91-1,7.1,7.1,0,0,1,2.37-.39,4.63,4.63,0,0,1,3.07,1,3.48,3.48,0,0,1,1.16,2.81v5.73c0,.24,0,.46,0,.68a4.48,4.48,0,0,0,.07.64l1.15.08v.95Zm-4.2-.92a4.59,4.59,0,0,0,2.44-.65,3.78,3.78,0,0,0,1.52-1.66V300.3h-2.57a4.78,4.78,0,0,0-2.77.72,2.19,2.19,0,0,0-1,1.84,1.91,1.91,0,0,0,.64,1.51A2.54,2.54,0,0,0,580.88,305Z"/><path class="cls-26" d="M592.09,291.23v3h2.54v1.06h-2.54v7.59a2.52,2.52,0,0,0,.41,1.62,1.36,1.36,0,0,0,1.09.48,5.74,5.74,0,0,0,.6,0,4.73,4.73,0,0,0,.68-.09l.19,1a3.33,3.33,0,0,1-.78.22,5.58,5.58,0,0,1-.91.07,2.39,2.39,0,0,1-1.89-.77,3.71,3.71,0,0,1-.68-2.46v-7.59h-2v-1.06h2v-3Z"/><path class="cls-26" d="M602.05,306.09a4.58,4.58,0,0,1-3.6-1.61,6,6,0,0,1-1.43-4.1v-.59a6.09,6.09,0,0,1,1.43-4.14,4.36,4.36,0,0,1,3.43-1.65,4.23,4.23,0,0,1,3.34,1.36,5.2,5.2,0,0,1,1.21,3.61v1.1h-8.14v.31a5.18,5.18,0,0,0,1,3.29,3.28,3.28,0,0,0,2.72,1.33,5.57,5.57,0,0,0,2-.33,4,4,0,0,0,1.44-1l.54.89a4.71,4.71,0,0,1-1.64,1.09A6.25,6.25,0,0,1,602.05,306.09Zm-.17-11a3,3,0,0,0-2.37,1.09,4.68,4.68,0,0,0-1.12,2.74l0,.05h6.75v-.32a3.74,3.74,0,0,0-.88-2.54A3,3,0,0,0,601.88,295.1Zm1.21-5.33h1.56l0,.06-2.66,2.8h-1.14Z"/><path class="cls-26" d="M608.77,300.14a7.68,7.68,0,0,1,1.17-4.47,3.8,3.8,0,0,1,3.27-1.67,4.06,4.06,0,0,1,2.13.54,4.38,4.38,0,0,1,1.48,1.54l.15-1.87h1.08v11.51a5,5,0,0,1-1.21,3.55,4.33,4.33,0,0,1-3.35,1.3,8.82,8.82,0,0,1-1.78-.2,7.32,7.32,0,0,1-1.64-.56l.34-1.09a7.8,7.8,0,0,0,1.45.52,7,7,0,0,0,1.61.18,3.08,3.08,0,0,0,2.47-1,4.09,4.09,0,0,0,.83-2.72v-1.48a4,4,0,0,1-1.48,1.37,4.4,4.4,0,0,1-2.1.48,3.83,3.83,0,0,1-3.25-1.56,6.79,6.79,0,0,1-1.17-4.17Zm1.28.22a6,6,0,0,0,.84,3.36,2.87,2.87,0,0,0,2.53,1.25,3.59,3.59,0,0,0,2.08-.57,3.68,3.68,0,0,0,1.27-1.57v-5.41a4,4,0,0,0-1.23-1.66,3.22,3.22,0,0,0-2.09-.64,2.8,2.8,0,0,0-2.55,1.4,6.86,6.86,0,0,0-.85,3.62Z"/><path class="cls-26" d="M620.86,304.92l1.74-.14v-9.47l-1.74-.14v-1h3v10.57l1.73.14v.95h-4.74Zm3-14H622.6v-1.81h1.27Z"/><path class="cls-26" d="M635.71,305.87a9,9,0,0,1-.18-1,6.15,6.15,0,0,1-.06-.87,5.11,5.11,0,0,1-1.7,1.52,4.8,4.8,0,0,1-2.4.6,3.64,3.64,0,0,1-2.62-.88,3.15,3.15,0,0,1-.93-2.39,3,3,0,0,1,1.38-2.56,6.37,6.37,0,0,1,3.72-.95h2.55v-1.54a2.49,2.49,0,0,0-.79-2,3.19,3.19,0,0,0-2.22-.71,5.75,5.75,0,0,0-1.76.26,4,4,0,0,0-1.32.72l-.11,1.56h-1.06l0-2.24a6.53,6.53,0,0,1,1.91-1,7.1,7.1,0,0,1,2.37-.39,4.63,4.63,0,0,1,3.07,1,3.48,3.48,0,0,1,1.16,2.81v5.73c0,.24,0,.46,0,.68a4.48,4.48,0,0,0,.07.64l1.15.08v.95Zm-4.2-.92a4.61,4.61,0,0,0,2.44-.65,3.78,3.78,0,0,0,1.52-1.66V300.3H632.9a4.76,4.76,0,0,0-2.77.72,2.17,2.17,0,0,0-1,1.84,1.91,1.91,0,0,0,.64,1.51A2.54,2.54,0,0,0,631.51,305Z"/><path class="cls-26" d="M641.76,305.87H640.3V304.1h1.46Z"/></svg>