<svg id="Camada_1" data-name="Camada 1" xmlns="http://www.w3.org/2000/svg" xmlns:xlink="http://www.w3.org/1999/xlink" viewBox="0 0 850 509.83"><defs><style>.cls-1{fill:none;}.cls-2{clip-path:url(#clip-path);}.cls-3{fill:#6d472e;}.cls-4{fill:#eac2a7;}.cls-5{fill:#eaa000;}.cls-6{fill:#97d8dd;}.cls-7{fill:#027e8f;}.cls-8{fill:#65c4d1;}.cls-9{fill:#fff;}.cls-10{clip-path:url(#clip-path-2);}.cls-11{fill:#c9a68f;}.cls-12{fill:#d6aa8b;}.cls-13{fill:#d6d6d6;}.cls-14{fill:#c99f4b;}.cls-15{fill:#6d5f56;}.cls-16{fill:#f4f4f4;}.cls-17{clip-path:url(#clip-path-3);}.cls-18{fill:#b7b7b7;}.cls-19{fill:#c99e32;}.cls-20{clip-path:url(#clip-path-4);}.cls-21{fill:#aa7e30;}.cls-22{fill:#ddd;}.cls-23{fill:#846829;}.cls-24{fill:#e8cd95;}</style><clipPath id="clip-path"><path class="cls-1" d="M276.57-123S229.64-87.33,151-116.62,72.42-370.95,72.42-370.95s72.31-107.46,88.48-104.58,110.46,21.15,110.46,55.81,42,190.29,42,190.29S331-161.19,322.14-156"/></clipPath><clipPath id="clip-path-2"><path class="cls-1" d="M251.36,484.4s-46.93,35.65-125.54,6.36S47.21,236.43,47.21,236.43,119.51,129,135.68,131.85,246.14,153,246.14,187.67s42,190.28,42,190.28,17.62,68.25,8.81,73.44"/></clipPath><clipPath id="clip-path-3"><path class="cls-1" d="M187.5,498.87c5.23,10.36,42,12.55,45,13.51,0,0,1-41.62-4.91-65S187.5,498.87,187.5,498.87Z"/></clipPath><clipPath id="clip-path-4"><path class="cls-1" d="M142.82,240.94c6.48,2.68.9-8.94.9-8.94s-.62-11.64-3.91-13.62a47.88,47.88,0,0,1-7.2-5.88l16.56-11.35,45.26-31s6.26-8.71-8-14.07a17,17,0,0,0-17.32-5.14s-6.25-7.49-15.3-.62c0,0-18.21-1.06-22.34,7.88a6.79,6.79,0,0,0-6.7,3.8s-3.8,1.45-4.53,4.52c0,0-9.21,3.63-9.77,9.77,0,0-5,7-1,12.74,0,0-2.65,5,.79,8.43,0,0-7.71,8.44,0,13.69,0,0-1.9,5.47,9.38,7.7l3.35,6.93s3.23-1.47,12.51,7.82S142.82,240.94,142.82,240.94Z"/></clipPath></defs><title>Fala3</title><g class="cls-2"><path class="cls-3" d="M245.77,77.14a11.3,11.3,0,0,0-.19,7.65c1.45,3.8,19.19,17.43,32,18.26,13.51.89,21-6.92,21.5-8.76s-8.72-7.86-8.72-7.86Z"/><path class="cls-3" d="M113.86,83.79S104.2,109.6,107.6,113s24.81,7.48,39.63,1.28-16.17-38.54-16.17-38.54Z"/><path class="cls-4" d="M201.22-116.75l-32.29,81s-4.16,15.34-9.1,20.28A217.65,217.65,0,0,1,147.6,19.83C139.22,38.6,135.53,64.4,135.53,64.4s7.63,19.36,6.71,28.07c0,0,7.29,10,4.35,15.83s-14.41,2.35-14.41,2.35-19.18,2.51-22-2.26,3.6-17.6,3.6-17.6-.92-10.22,2.43-12.56,7.37-8,7.37-8-1.25-3.35,2.27-7.87,8.71-33.54,8.71-37.34S129.84-7.2,145.48-18.37c0,0,3.79-77.08,14.52-87.8s41.22-17.09,41.22-17.09Z"/><path class="cls-4" d="M212.72-128.73s27,102.09,29.05,106.79-8.55,13.79,9.88,78.47c0,0-1.17,8.54-2.85,11.56s-5.53,10.72-.67,13.4,20.61,16.09,27.31,17.26,19.27-4.69,19.27-4.69,6.71-2.51,4.61-4.61c0,0-6.11-.25-8.13-2.26S266.4,67.25,266.4,67.25s-7-9-7-9.66-5-80.15-5-80.15,1.85-5,0-15.25-1-74.61-1-74.61Z"/><path class="cls-3" d="M108.86,103.47s19.18-8.21,38.37-1.92a8.46,8.46,0,0,0-1.43-4.7c-1.59-2.51-25.63-6.36-35.86,2.06C109.94,98.91,107.77,102.05,108.86,103.47Z"/><path class="cls-3" d="M271.1,97.09s.75-16.9,19.24-10.66l.5.41A6,6,0,0,0,289,83c-1.71-1.43-6.06-2.56-6.06-2.56S266,76.22,266.25,94.22C266.25,94.22,268.89,97.93,271.1,97.09Z"/><path class="cls-5" d="M186.59-460a10.8,10.8,0,0,1,7.7,3.51,18.62,18.62,0,0,1,4.67-.61,17,17,0,0,1,12.65,5.75c13.89,5.21,8.37,13.59,8,14l.16,0s8.15,5.69,5.36,8.49c0,0,5,6.24,1,9.59a4.46,4.46,0,0,1-1.45.74c10.86,16.91,17.55,46.13,14.32,71.22a3,3,0,0,1,.76-.71,1.63,1.63,0,0,1,.86-.23,2.45,2.45,0,0,1,1.92,1,7.42,7.42,0,0,1,.88,5.85c-1,2.71-2.76,6.83-2.78,8.23,0,2.42,1.44.84,2.57,3a6.28,6.28,0,0,1,0,2.6c-.45,2.88.87.85,1.55,3.71a6,6,0,0,1-1,4.64c-.34.6,2.61,5.23-1.22,7.75a13.94,13.94,0,0,0-2.64,2.71l1,.09a25.12,25.12,0,0,1,2.17,2.47h.11c2.94,0,5.26,3.22,5.26,3.22L287-235.41l-33.27,59.69s11.17,18.77,5.58,27.26l7.71,7.71s1.23,4.13-4.36,4.13c-1.66,0-4-.88-6.47-2.11A422.1,422.1,0,0,1,257.74-95a44,44,0,0,0-4.5-.67l0,2.85h0c-.11,19.83,0,48.48,1.13,55,1.85,10.22,0,15.25,0,15.25s5,79.54,5,80.15,7,9.66,7,9.66,9.3,7.32,16.55,13.14h0S287.3,81.52,289,83a5.86,5.86,0,0,1,1.82,3.8c.49.33,1.28.87,2.2,1.53a23.26,23.26,0,0,0,6.29,1.17c1,1,0,2.08-1.3,3,.73.77,1.16,1.45,1,1.89-.47,1.74-7.21,8.83-19.39,8.83-.69,0-1.39,0-2.11-.07-12.79-.83-30.53-14.46-32-18.26a11.3,11.3,0,0,1,.19-7.65c0-3.24,2-7.11,3-9,1.68-3,2.85-11.56,2.85-11.56-18.43-64.68-7.87-73.78-9.88-78.47-1.28-3-12.67-45.32-20.8-75.78h0a.36.36,0,0,1,0-.1c-.48-1.77-.94-3.51-1.39-5.2a21.45,21.45,0,0,1-4.21-2.48,132.41,132.41,0,0,1-22.11,8.77L168.93-35.8s-4.16,15.34-9.1,20.28A217.65,217.65,0,0,1,147.6,19.83C139.22,38.6,135.53,64.4,135.53,64.4s6,15.25,6.71,24.77c7.06,9.66,13.4,21.59,5,25.11a48.35,48.35,0,0,1-18.29,3.22c-10.13,0-19.22-2.38-21.34-4.5-3.41-3.4,6.26-29.21,6.26-29.21.3-2.34,1-4.61,2.32-5.56,3.35-2.35,7.37-8,7.37-8s-1.25-3.35,2.27-7.87,8.71-33.54,8.71-37.34S129.84-7.2,145.48-18.37c0,0,1.78-36.28,6.37-62.52h0c.5-3,1-5.82,1.63-8.47-4.8.4-7.68.45-7.68.45S170.9-159,179-182.8c-2.07-4.16,1.17-6,2.15-6.48.11-.37.2-.67.26-.89,2-7.37-16.92-43.54-16.92-43.54l-5.06-8.56-12.15-2.86-7.82-18.32s1.41-19.1,2.86-20.55c.94-.94,7.86-5,12.64-7.75h0c5-5,15.73-8.95,15.73-8.95s10.22-11.56,12.4-13.74,1.17-8.21,1.17-8.21l-5.59-21.5c-9.89-6.21-13.79-13.13-13.79-13.13a5,5,0,0,1-3.64,1.46c-3.25,0-6.52-2.47-6.52-2.47s-14.19-14.18-9.72-20.89a4.22,4.22,0,0,1,3.68-2c2.92,0,6.4,2.41,8.85,4.47-5-4.39-7.72-5-8.81-5l-.34,0-.09.06-.06,0-.1,0,0-.1c-1.06-.53-5.8-3.14-6.22-7.55-8-2.51-6.47-7-6.47-7-7.71-5.25,0-13.68,0-13.68-3.43-3.44-.78-8.43-.78-8.43-4-5.7,1-12.74,1-12.74.55-6.14,9.77-9.77,9.77-9.77.73-3.07,4.52-4.53,4.52-4.53a6.73,6.73,0,0,1,6.19-3.82,3.69,3.69,0,0,1,.52,0c3.34-7.23,15.87-7.92,20.55-7.92,1.12,0,1.79,0,1.79,0a12.49,12.49,0,0,1,7.6-2.9m36.3,131.34c1.68,0,6.19-5.83,7.77-7.55-3.42,1.06-8.12,1.68-14.41,1.7h.34c2.68,0,4.69,5.63,6.2,5.84h.1M201.13-332h0c.79,5.65,1.95,12.06,3.21,13a46.19,46.19,0,0,0,13.87,6.66l-.09-.63c-.46-3.9-4.78-9.58-5.87-10.67-.83-.83-3.57-8.93-3.59-11.13h0a80.8,80.8,0,0,1-8-1.06c.15,1.2.32,2.51.5,3.83m48.46,136,20.69-37.29-19.67-29.24c.53,8.39.85,17,.76,25.14a328,328,0,0,1-2.9,39.65,2.72,2.72,0,0,1,1.12,1.74M290.34,86.43h0M186.59-466h0a17.65,17.65,0,0,0-9.41,2.86c-6.82,0-18.23,1.16-24,8.21a12.42,12.42,0,0,0-7.47,4.91,13.75,13.75,0,0,0-4.87,4.63c-3.46,1.8-9.47,5.75-10.91,12.05-2.16,3.64-4.13,9.67-1.83,15.41a13.61,13.61,0,0,0,.2,7.67,16,16,0,0,0-2.23,9.59,12.49,12.49,0,0,0,3.4,7.19,10.27,10.27,0,0,0,.93,2.71,13.51,13.51,0,0,0,6.52,6,14.9,14.9,0,0,0,2.32,3.67c-2.33,4.82-1,11,4,18.29a69.21,69.21,0,0,0,7.25,8.8l.3.29.33.25c.82.62,5.13,3.68,10.14,3.68a13.85,13.85,0,0,0,1.59-.1,52.89,52.89,0,0,0,10.61,9.51l4.94,19a12.86,12.86,0,0,1,0,3.22c-2.38,2.49-8.71,9.61-11.24,12.46-3.29,1.32-11,4.72-15.82,9.18-11.63,6.71-12.57,7.65-13.26,8.34-1.49,1.49-3,3-4.6,24.36l-.11,1.45.57,1.35,7.82,18.32L143-240l3,.69L155.6-237l3.68,6.23c.57,1.1,4.63,8.95,8.56,17.61,5.87,12.93,7.31,18.47,7.65,20.61a10.28,10.28,0,0,0-2.59,4,10.24,10.24,0,0,0-.23,5.85c-8.65,25.19-32.28,91.15-32.52,91.83l-2.93,8.18,8.69-.16h.2c0,.18-.07.37-.1.56l-.29.87.06.47c-3.82,22.33-5.65,50.8-6.15,59.65C125.7-8.88,127.7,15,128.39,23.07c.06.73.14,1.65.14,1.91-.1,4.22-5.09,29.81-7.5,33.72a16,16,0,0,0-3.7,9.78,28.12,28.12,0,0,1-4.59,4.83c-2.52,1.76-4.07,4.71-4.73,9-.67,1.82-2.63,7.29-4.32,13.13-3.67,12.67-3.76,18.37-.33,21.8,4.29,4.29,16.27,6.25,25.58,6.25a54.32,54.32,0,0,0,20.61-3.68,11.91,11.91,0,0,0,7.21-7.93c1.72-6.18-1-14.12-8.71-24.92-1-8.37-4.85-19.22-6.34-23.22.92-5.66,4.56-26.23,11.37-41.47a227.39,227.39,0,0,0,12.23-34.95c4.93-6.17,8.43-18,9.32-21.21l23.12-58a139.59,139.59,0,0,0,16.82-6.58l.58,2.16v0c17,63.84,20.06,73.83,20.86,76-.05.47-.19,1.3-.3,2-1.27,7.62-4.24,25.37,9.81,75.13a40.46,40.46,0,0,1-2,8.25c-2.29,4.11-3.52,7.67-3.75,10.84A17,17,0,0,0,240,86.93c1.93,5,11.28,11.34,14.1,13.15,4.83,3.1,14.24,8.38,23.09,9,.83.06,1.67.08,2.5.08,14.36,0,23.88-8.5,25.18-13.26a6.54,6.54,0,0,0,.2-2.48,7.45,7.45,0,0,0,.64-2.36,7.18,7.18,0,0,0-2.13-5.81l-1.65-1.65-2.34-.1a20.81,20.81,0,0,1-3.51-.5,10.87,10.87,0,0,0-3.2-4.62,21.92,21.92,0,0,0-7.11-3.4c-6-4.78-13-10.34-15.06-11.95-2.07-2.66-4.35-5.69-5.43-7.23C265,51.27,264,35.4,260.39-21.91c.62-2.55,1.43-8.16-.15-17-.38-2.08-1.21-11-1.06-49.38l4.37,1.38.19-8c0-.81.38-17.49-.86-35.76,4.72-.06,7.23-2.11,8.52-3.83a9.27,9.27,0,0,0,1.38-8l-.43-1.46L271.27-145l-4.92-4.92c2.11-8.88-2.77-20.09-5.75-25.79l31.65-56.78,1.65-3-1.68-2.94-38.55-67.48-.16-.27-.18-.26a15.89,15.89,0,0,0-3.92-3.74,11.5,11.5,0,0,0,.73-8.2,11.19,11.19,0,0,0,.53-6.81,9.76,9.76,0,0,0-1.28-3.1,8.2,8.2,0,0,0-.84-4.66,8.84,8.84,0,0,0-1.2-1.74c.37-1,.8-2.09,1.09-2.84.23-.58.45-1.14.64-1.65a13.31,13.31,0,0,0-1.53-11.35,8.37,8.37,0,0,0-2-2c1.5-22.08-3.63-47.24-13.22-64.77,2.25-3.8,1.52-8.48-.63-12.41a9.49,9.49,0,0,0,0-1.19c-.29-3.26-2.56-6.21-4.94-8.43a13.05,13.05,0,0,0-.38-6.33c-1.44-4.59-5.25-8.2-11.32-10.76A22.89,22.89,0,0,0,199-463.09a22.44,22.44,0,0,0-2.94.19,16.19,16.19,0,0,0-9.43-3.09Zm70.2,244.62c.3-4.91.52-10.31.58-16,0-1.42,0-2.89,0-4.4l5.87,8.73-6.46,11.65Z"/></g><path class="cls-5" d="M178.5,158.73c93.46.11,169.21,76.65,169.31,171.09S272,500.92,178.5,500.92,9.18,424.32,9.18,329.82,85,158.73,178.5,158.73m0-8h0a174.74,174.74,0,0,0-69.06,14.09,176.64,176.64,0,0,0-56.36,38.4,180.11,180.11,0,0,0,0,253.21,176.81,176.81,0,0,0,56.36,38.4,176.26,176.26,0,0,0,138.11,0,176.81,176.81,0,0,0,56.36-38.4,179.73,179.73,0,0,0-56.39-291.56,175.08,175.08,0,0,0-69-14.14Z"/><path class="cls-6" d="M178.49,158.73C85,158.73,9.18,235.33,9.18,329.82S85,500.92,178.49,500.92s169.32-76.6,169.32-171.1S272,158.84,178.49,158.73Zm0,330.78c-87.27,0-158-71.49-158-159.69s70.75-159.68,158-159.68,158,71.49,158,159.68S265.73,489.41,178.49,489.51Z"/><path class="cls-6" d="M258.4,205.54a5.59,5.59,0,0,0-4.25-.81,5.65,5.65,0,0,0-3.56,2.47l-9.24,14.35a5.74,5.74,0,0,0,1.8,8,74,74,0,0,1,6.33,4.56c1.27,1,2.54,2,3.53,2.66,1.75,1.46,3.44,3,5.11,4.55l-3.9,3.94a112.82,112.82,0,0,0-24.74-17.13L241,202a5.75,5.75,0,0,0,.11-4.37,5.67,5.67,0,0,0-3-3.17,146.34,146.34,0,0,0-52-12.51,5.55,5.55,0,0,0-4.08,1.45,5.69,5.69,0,0,0-1.85,3.95l-.87,17.08a5.68,5.68,0,0,0,5.33,6l5.94.3,6.33,1c.81.14,1.63.26,2.44.38,1.22.17,2.44.35,3.51.59l.78.2-1.48,5.59A113.7,113.7,0,0,0,172.31,216l-2.93-28.54a5.66,5.66,0,0,0-2.06-3.84,5.57,5.57,0,0,0-4.15-1.24,144.11,144.11,0,0,0-51.28,15.44,5.73,5.73,0,0,0-2.45,7.67l7.7,15.23a5.63,5.63,0,0,0,7.4,2.59c1.13-.53,2.25-1.09,3.38-1.65a57.68,57.68,0,0,1,8.07-3.5l1.44-.54c1.7-.64,3.34-1.26,5-1.81l1.46,5.52c-1.39.47-2.74,1-4.08,1.48l-1.34.52a52.9,52.9,0,0,0-8,3.43c-1,.48-1.93,1-3.4,1.67L117.48,234l-.65.37-16.64-23.11A5.61,5.61,0,0,0,92.3,210a147.7,147.7,0,0,0-36.8,39.11,5.73,5.73,0,0,0,1.65,7.9l14.19,9.33a5.61,5.61,0,0,0,7.9-1.82,76.25,76.25,0,0,1,4.49-6.38c1-1.29,2-2.58,2.65-3.59,1.45-1.77,3-3.47,4.51-5.16l3.9,3.95a113.82,113.82,0,0,0-17,25L52,266.64a5.63,5.63,0,0,0-7.46,2.89,150.52,150.52,0,0,0-12.38,52.56,5.67,5.67,0,0,0,5.35,6l16.91.89a5.61,5.61,0,0,0,4.07-1.45,5.69,5.69,0,0,0,1.85-3.94l.3-6,1-6.39c.15-.83.26-1.65.38-2.48.17-1.23.34-2.47.59-3.54l.19-.79,5.54,1.5a116.91,116.91,0,0,0-2.43,30.2l-28.24,3a5.58,5.58,0,0,0-3.79,2.08,5.68,5.68,0,0,0-1.23,4.18,149.58,149.58,0,0,0,15.28,51.82,5.58,5.58,0,0,0,7.59,2.48l15.07-7.77a5.74,5.74,0,0,0,2.56-7.48c-.52-1.14-1.07-2.25-1.61-3.37a60.45,60.45,0,0,1-3.49-8.2l-.55-1.5c-.63-1.7-1.23-3.35-1.77-5l5.53-1.49a113.44,113.44,0,0,0,12.88,27.29L61.13,409a5.72,5.72,0,0,0-1.24,8,147.24,147.24,0,0,0,38.7,37.2,5.61,5.61,0,0,0,7.81-1.67l9.23-14.34a5.73,5.73,0,0,0-1.79-8,74.63,74.63,0,0,1-6.33-4.56c-1.27-1-2.54-2-3.53-2.66-1.76-1.46-3.44-3-5.11-4.55l4-4c1.51,1.4,3.06,2.81,4.94,4.36,1.1.78,2.17,1.62,3.24,2.45a67.54,67.54,0,0,0,6.29,4.47l10.08,5.85.12.06L116,457.69a5.75,5.75,0,0,0-.11,4.37,5.62,5.62,0,0,0,3,3.16,146.3,146.3,0,0,0,52,12.52h.29a5.67,5.67,0,0,0,5.63-5.41l.88-17.09a5.67,5.67,0,0,0-5.33-6l-5.94-.31L160,448c-.81-.14-1.63-.26-2.44-.38-1.22-.18-2.44-.35-3.51-.6l-.78-.2,1.48-5.59a114.13,114.13,0,0,0,29.89,2.45l2.93,28.54a5.74,5.74,0,0,0,2.06,3.84,5.62,5.62,0,0,0,4.15,1.24,144.31,144.31,0,0,0,51.28-15.44,5.74,5.74,0,0,0,2.46-7.67l-7.71-15.24a5.62,5.62,0,0,0-7.39-2.58c-1.14.53-2.26,1.09-3.39,1.65a58.08,58.08,0,0,1-8.06,3.5l-1.44.54c-1.7.64-3.35,1.26-5,1.81l-1.49-5.59a111.5,111.5,0,0,0,27-13l16.68,23.17a5.62,5.62,0,0,0,7.89,1.26,148.06,148.06,0,0,0,36.81-39.11,5.8,5.8,0,0,0,.79-4.3,5.68,5.68,0,0,0-2.45-3.6l-14.19-9.33a5.62,5.62,0,0,0-7.9,1.81,73.1,73.1,0,0,1-4.49,6.38c-1,1.3-2,2.59-2.65,3.6-1.45,1.76-3,3.46-4.51,5.15l-3.9-3.94a113.64,113.64,0,0,0,16.95-25L305,393a5.63,5.63,0,0,0,7.45-2.89,150.37,150.37,0,0,0,12.39-52.57,5.69,5.69,0,0,0-5.35-6l-16.91-.88a5.7,5.7,0,0,0-5.92,5.39l-.3,6-1,6.39c-.15.82-.26,1.65-.38,2.48-.18,1.23-.35,2.47-.59,3.53l-.2.79-5.44-1.47,0-.14c.3-1.33.5-2.68.68-4,.09-.64.17-1.27.3-2l.86-5.6a5.7,5.7,0,0,0,.06-.58l.3-6V323.85l0-.26,28.35-3a5.6,5.6,0,0,0,3.8-2.08,5.77,5.77,0,0,0,1.23-4.18,150.07,150.07,0,0,0-15.28-51.83,5.61,5.61,0,0,0-7.59-2.47l-15.08,7.77a5.73,5.73,0,0,0-2.55,7.48c.52,1.13,1.06,2.25,1.6,3.37a58.4,58.4,0,0,1,3.49,8.19l.55,1.51c.63,1.7,1.24,3.35,1.78,5l-5.53,1.49a113.47,113.47,0,0,0-12.89-27.29l22.93-16.87a5.7,5.7,0,0,0,2.26-3.72,5.76,5.76,0,0,0-1-4.24A147.36,147.36,0,0,0,258.4,205.54Zm3.44,56.07a5.73,5.73,0,0,0-1.25,8,102.16,102.16,0,0,1,15.92,33.7,5.66,5.66,0,0,0,6.9,4l16.36-4.42a5.72,5.72,0,0,0,4.07-6.7,83.48,83.48,0,0,0-3.69-11.79l-.45-1.22a59.81,59.81,0,0,0-3.16-7.74l5-2.59a138.89,138.89,0,0,1,10.94,37l-27.95,2.93a5.68,5.68,0,0,0-5.05,6l.28,5.53v10.9l-.28,5.38-.8,5.23c-.13.75-.23,1.5-.34,2.25-.14,1-.27,2-.46,2.87l-1.41,5.49a5.71,5.71,0,0,0,4,6.94l16.36,4.42a5.61,5.61,0,0,0,4.31-.59,5.68,5.68,0,0,0,2.61-3.5l1.66-6.5c.35-1.52.57-3.07.79-4.62.11-.73.2-1.46.34-2.28l1-7,.05-.88,5.54.29a139.33,139.33,0,0,1-8.84,37.55L278.7,368.65a5.54,5.54,0,0,0-4.32-.11,5.69,5.69,0,0,0-3.14,3,102.26,102.26,0,0,1-20.92,30.87,5.74,5.74,0,0,0,0,8.05l12,12.1a5.47,5.47,0,0,0,4.15,1.67,5.61,5.61,0,0,0,4.05-1.91q1.51-1.71,3.06-3.4c2-2.15,3.91-4.3,6-6.86.86-1.22,1.77-2.42,2.67-3.61.63-.83,1.27-1.67,1.89-2.53l4.74,3.12a136.05,136.05,0,0,1-26.3,28L246,414a5.65,5.65,0,0,0-3.68-2.28,5.58,5.58,0,0,0-4.2,1,100.21,100.21,0,0,1-33.35,16.07,5.68,5.68,0,0,0-3.43,2.66,5.74,5.74,0,0,0-.56,4.33l4.37,16.53a5.65,5.65,0,0,0,6.64,4.1,82.93,82.93,0,0,0,11.7-3.74l1.17-.44a57.49,57.49,0,0,0,7.65-3.2l2.57,5.09a135.64,135.64,0,0,1-36.64,11L195.34,437a5.67,5.67,0,0,0-2-3.84,5.56,5.56,0,0,0-4.13-1.24,102.62,102.62,0,0,1-37-3.05,5.59,5.59,0,0,0-4.28.58,5.67,5.67,0,0,0-2.63,3.46l-4.38,16.53a5.75,5.75,0,0,0,.58,4.35,5.64,5.64,0,0,0,3.47,2.65l6.43,1.66c1.51.36,3,.59,4.58.81.72.1,1.43.21,2.24.35l7,1.05.87,0-.29,5.6A135.3,135.3,0,0,1,128.63,457l11.44-25.92a5.74,5.74,0,0,0-2.7-7.47l-4.69-2.26-9.63-5.59a58,58,0,0,1-5.13-3.7c-1.2-.93-2.4-1.86-3.28-2.45-1.63-1.36-3.18-2.81-4.74-4.25-1.16-1.08-2.33-2.16-3.52-3.22a5.6,5.6,0,0,0-7.7.27l-12,12.09a5.74,5.74,0,0,0,.23,8.3c1.12,1,2.22,2,3.32,3,2.14,2,4.29,4,6.84,6.09,1.21.87,2.38,1.78,3.56,2.69q1.23,1,2.52,1.92l-3.09,4.79a135.59,135.59,0,0,1-27.66-26.58l22.72-16.71a5.74,5.74,0,0,0,1.25-8,102.26,102.26,0,0,1-15.92-33.7,5.63,5.63,0,0,0-6.9-4l-16.36,4.42a5.71,5.71,0,0,0-4.07,6.7,85.09,85.09,0,0,0,3.69,11.78l.45,1.22a59.24,59.24,0,0,0,3.16,7.74l-5,2.6a139.07,139.07,0,0,1-10.94-37l27.95-2.94a5.68,5.68,0,0,0,5-6.22,105.67,105.67,0,0,1,3-37.35,5.74,5.74,0,0,0-.56-4.33,5.67,5.67,0,0,0-3.44-2.66l-16.35-4.41a5.65,5.65,0,0,0-4.31.58A5.72,5.72,0,0,0,53.2,296l-1.65,6.5c-.35,1.52-.57,3.07-.79,4.61-.11.74-.21,1.46-.34,2.29l-1,7-.05.87L43.79,317a139.24,139.24,0,0,1,8.84-37.55L78.29,291a5.62,5.62,0,0,0,7.45-2.9,102.17,102.17,0,0,1,20.93-30.87,5.77,5.77,0,0,0,0-8.06l-12-12.1a5.61,5.61,0,0,0-8.2.24c-1,1.15-2,2.28-3.06,3.41-2,2.14-3.91,4.29-6,6.86-.87,1.22-1.77,2.41-2.67,3.61-.63.83-1.27,1.66-1.89,2.52l-4.75-3.11a136.37,136.37,0,0,1,26.31-28l16.55,23a5.6,5.6,0,0,0,7.89,1.25l1.31-1a19.54,19.54,0,0,1,2.77-1.92l9.23-5.4c1.09-.5,2.16-1,3.24-1.57a44,44,0,0,1,6.61-2.86l1.68-.63a57.54,57.54,0,0,1,8.17-2.62,5.61,5.61,0,0,0,3.67-2.59,5.78,5.78,0,0,0,.65-4.47l-4.38-16.53a5.65,5.65,0,0,0-6.63-4.1,83.06,83.06,0,0,0-11.71,3.74l-1.16.44a56.94,56.94,0,0,0-7.65,3.2l-2.57-5.09a135.89,135.89,0,0,1,36.64-11l2.89,28.24a5.67,5.67,0,0,0,2,3.84,5.58,5.58,0,0,0,4.13,1.24,102.88,102.88,0,0,1,37,3,5.59,5.59,0,0,0,4.28-.58,5.71,5.71,0,0,0,2.63-3.46l4.37-16.53a5.79,5.79,0,0,0-.57-4.35,5.64,5.64,0,0,0-3.47-2.65l-6.42-1.67c-1.52-.35-3.05-.58-4.59-.8-.72-.11-1.43-.21-2.25-.35l-7-1.05-.87,0,.29-5.6a135.68,135.68,0,0,1,37.16,8.94l-11.44,25.92a5.78,5.78,0,0,0-.11,4.38,5.64,5.64,0,0,0,3,3.16,101.33,101.33,0,0,1,30.55,21.14,5.59,5.59,0,0,0,8,0l12-12.09a5.74,5.74,0,0,0-.23-8.3c-1.12-1-2.22-2-3.32-3-2.15-2-4.29-4-6.84-6.09-1.21-.87-2.38-1.78-3.56-2.69-.82-.63-1.66-1.28-2.52-1.92l3.09-4.79a135.85,135.85,0,0,1,27.66,26.58Z"/><path class="cls-6" d="M178.49,238.57a90,90,0,0,0-78.36,45.77,91.89,91.89,0,0,0,.49,91.45,5.73,5.73,0,0,0,.35.59,91.65,91.65,0,0,0,23,26c.15.1.23.25.39.34l.12,0a88.86,88.86,0,0,0,108,0,1.56,1.56,0,0,1,.15-.06c.16-.09.24-.24.38-.34a91.53,91.53,0,0,0,23-26,5.73,5.73,0,0,0,.35-.59,91.87,91.87,0,0,0,.48-91.45A90,90,0,0,0,178.49,238.57Zm-10.17,12.15L105.67,360.81A80.52,80.52,0,0,1,110,290.07,78.92,78.92,0,0,1,168.32,250.72ZM134.63,396.19l43.86-77.06,43.87,77.05a78.09,78.09,0,0,1-87.73,0ZM231.32,389l-45.48-79.89a8.43,8.43,0,0,0-14.69,0L125.67,389a79.94,79.94,0,0,1-13.73-16.34l66.56-117,12.91,22.63a4.66,4.66,0,0,0,.25.5l53.39,93.86A80.26,80.26,0,0,1,231.32,389Zm20-28.23-49.6-87.21c-.08-.17-.17-.35-.27-.52l-12.75-22.35A78.88,78.88,0,0,1,247,290.08a80.49,80.49,0,0,1,4.31,70.73Z"/><path class="cls-7" d="M597.35,34.08c-131.17,0-239,88.61-251.43,202l-74.67,29.74s-4.88,1.81-4.39,8.81a9.51,9.51,0,0,0,5.58,8.16l78.16,23.46c24.89,100.48,125.91,175.68,246.75,175.68C736.89,481.89,850,381.64,850,258S736.89,34.08,597.35,34.08Z"/><path class="cls-8" d="M597.31.92c-131.17,0-239,88.6-251.43,202l-74.67,29.74s-4.88,1.8-4.39,8.8a9.53,9.53,0,0,0,5.58,8.17L350.56,273c24.89,100.48,125.91,175.68,246.75,175.68C736.85,448.72,850,348.48,850,224.82S736.85.92,597.31.92Z"/><path class="cls-9" d="M415.11,142.4a6.24,6.24,0,0,1,4.7,1.92,6.78,6.78,0,0,1,1.86,4.92v2a6.75,6.75,0,0,1-1.86,4.92,6.26,6.26,0,0,1-4.7,1.9h-6.24v-.94l1.74-.14V143.5l-1.74-.14v-1h6.24Zm-3.23,1.1V157h3.23a4.92,4.92,0,0,0,3.79-1.63,5.82,5.82,0,0,0,1.49-4.11v-2a5.81,5.81,0,0,0-1.49-4.08,5,5,0,0,0-3.79-1.63Z"/><path class="cls-9" d="M429.16,158.31a4.61,4.61,0,0,1-3.6-1.61,6,6,0,0,1-1.43-4.1V152a6.11,6.11,0,0,1,1.42-4.15,4.42,4.42,0,0,1,3.44-1.64,4.27,4.27,0,0,1,3.34,1.35,5.23,5.23,0,0,1,1.21,3.62v1.1H425.4v.31a5.14,5.14,0,0,0,1,3.29,3.28,3.28,0,0,0,2.72,1.33,5.61,5.61,0,0,0,2-.33,3.84,3.84,0,0,0,1.43-1l.55.88a4.69,4.69,0,0,1-1.64,1.1A6.45,6.45,0,0,1,429.16,158.31Zm-.17-11a3,3,0,0,0-2.37,1.1,4.75,4.75,0,0,0-1.13,2.74l0,0h6.75v-.32a3.74,3.74,0,0,0-.88-2.54A3,3,0,0,0,429,147.31Z"/><path class="cls-9" d="M435.48,147.39v-1h2.8l.16,1.81a4,4,0,0,1,3.64-2,3.75,3.75,0,0,1,3.25,1.67,7.67,7.67,0,0,1,1.17,4.46v.23a6.75,6.75,0,0,1-1.17,4.17,3.83,3.83,0,0,1-3.23,1.56,4.64,4.64,0,0,1-2.13-.47,3.89,3.89,0,0,1-1.49-1.33v5l1.74.14v1h-4.74v-1l1.74-.14V147.53Zm9.74,5a6.75,6.75,0,0,0-.87-3.61,2.83,2.83,0,0,0-2.56-1.4,3.32,3.32,0,0,0-2.1.62,3.84,3.84,0,0,0-1.21,1.61v5.6a3.43,3.43,0,0,0,3.33,2.05,2.88,2.88,0,0,0,2.54-1.27,5.87,5.87,0,0,0,.87-3.37Z"/><path class="cls-9" d="M448.58,152.09a6.32,6.32,0,0,1,1.39-4.23,5,5,0,0,1,7.41,0,6.32,6.32,0,0,1,1.39,4.23v.35a6.32,6.32,0,0,1-1.39,4.23,4.59,4.59,0,0,1-3.69,1.64,4.65,4.65,0,0,1-3.72-1.64,6.32,6.32,0,0,1-1.39-4.23Zm1.27.35a5.55,5.55,0,0,0,1,3.4,3.54,3.54,0,0,0,5.61,0,5.55,5.55,0,0,0,1-3.4v-.35a5.59,5.59,0,0,0-1-3.39,3.53,3.53,0,0,0-5.61,0,5.59,5.59,0,0,0-1,3.39Z"/><path class="cls-9" d="M460.77,157.14l1.73-.14v-9.47l-1.73-.14v-1h3V157l1.74.14v.94h-4.74Zm3-14H462.5v-1.81h1.27Z"/><path class="cls-9" d="M476,150h-1l-.15-1.65a3.22,3.22,0,0,0-1.21-.79,4.75,4.75,0,0,0-1.67-.28,3.15,3.15,0,0,0-2.1.61,1.87,1.87,0,0,0-.7,1.43,1.7,1.7,0,0,0,.61,1.34,5.76,5.76,0,0,0,2.4.92,7.75,7.75,0,0,1,3.08,1.27,2.62,2.62,0,0,1,1,2.18,2.82,2.82,0,0,1-1.17,2.35,4.88,4.88,0,0,1-3.08.9,7.16,7.16,0,0,1-2.33-.36,5.57,5.57,0,0,1-1.82-1v-2.35h1l.18,1.66a2.87,2.87,0,0,0,1.29.75,6,6,0,0,0,1.64.23,3.49,3.49,0,0,0,2.18-.61,1.82,1.82,0,0,0,.8-1.49,1.9,1.9,0,0,0-.66-1.43,5.44,5.44,0,0,0-2.41-1,8,8,0,0,1-3.05-1.2,2.49,2.49,0,0,1-1-2.1,2.82,2.82,0,0,1,1.12-2.25,4.48,4.48,0,0,1,3-.92,6.59,6.59,0,0,1,2.31.39,4.57,4.57,0,0,1,1.71,1.06Z"/><path class="cls-9" d="M490.41,142.42a5.88,5.88,0,0,1,3.89,1.13,4,4,0,0,1,1.36,3.23,3.39,3.39,0,0,1-.63,2,4.2,4.2,0,0,1-1.8,1.39,3.17,3.17,0,0,1,1.82,1.37,4.44,4.44,0,0,1,.56,2.33v1.26a2.43,2.43,0,0,0,.18,1.07.77.77,0,0,0,.6.41l.51.06v1.39h-1.13a1.87,1.87,0,0,1-1.74-.86,4,4,0,0,1-.52-2.09v-1.21a2.87,2.87,0,0,0-.73-2.06,2.58,2.58,0,0,0-2-.78h-3.37v5.34l1.74.31v1.35H483.6v-1.35l1.74-.31V144.07l-1.74-.3v-1.35h6.81Zm-3,7h2.76a3.94,3.94,0,0,0,2.56-.67,2.49,2.49,0,0,0,.8-2,2.55,2.55,0,0,0-.77-1.95,3.33,3.33,0,0,0-2.38-.73h-3Z"/><path class="cls-9" d="M506.09,158.08c-.06-.31-.11-.6-.15-.85a6.34,6.34,0,0,1-.07-.75,5.36,5.36,0,0,1-1.52,1.31,4,4,0,0,1-2,.52,3.86,3.86,0,0,1-2.74-.89,3.3,3.3,0,0,1-.93-2.5,2.91,2.91,0,0,1,1.32-2.56,6.43,6.43,0,0,1,3.64-.9h2.16V150.1a2.13,2.13,0,0,0-.63-1.62,2.55,2.55,0,0,0-1.78-.59,4.2,4.2,0,0,0-1.39.2,2.58,2.58,0,0,0-1,.56l-.22,1.23h-1.62v-2.26a5.94,5.94,0,0,1,1.9-1,7.37,7.37,0,0,1,2.43-.38,4.78,4.78,0,0,1,3.18,1,3.55,3.55,0,0,1,1.21,2.9v5.61c0,.15,0,.29,0,.44a3.22,3.22,0,0,0,0,.43l.85.12v1.35Zm-3.38-1.55a3.78,3.78,0,0,0,1.91-.5,3.13,3.13,0,0,0,1.23-1.22v-1.92h-2.23a3.12,3.12,0,0,0-2,.61,1.82,1.82,0,0,0-.75,1.46,1.47,1.47,0,0,0,.46,1.17A2.15,2.15,0,0,0,502.71,156.53Z"/><path class="cls-9" d="M510.12,148v-1.57h1.8v-1.26a4,4,0,0,1,1.14-3,4.44,4.44,0,0,1,3.15-1.07,6.18,6.18,0,0,1,1.41.17q.71.18,1.62.48l-.35,1.73a10.09,10.09,0,0,0-1.21-.39,5.17,5.17,0,0,0-1.31-.16,2.44,2.44,0,0,0-1.8.56,2.35,2.35,0,0,0-.55,1.72v1.26h6.57v10l1.74.31v1.35h-5.57v-1.35l1.73-.31V148H514v8.42l1.74.31v1.35h-5.58v-1.35l1.74-.31V148Z"/><path class="cls-9" d="M523.48,156.73l1.74-.31V148.1l-1.74-.3v-1.37h3.61l.15,1.74a4.25,4.25,0,0,1,1.45-1.44,3.81,3.81,0,0,1,2-.51,3.72,3.72,0,0,1,2.89,1.1,4.89,4.89,0,0,1,1,3.41v5.69l1.74.31v1.35h-5.57v-1.35l1.74-.31v-5.65a3.17,3.17,0,0,0-.61-2.18,2.36,2.36,0,0,0-1.84-.65,3,3,0,0,0-1.6.44,3.17,3.17,0,0,0-1.11,1.21v6.83l1.73.31v1.35h-5.57Z"/><path class="cls-9" d="M545.36,158.08a8.55,8.55,0,0,1-.15-.85c0-.25-.06-.5-.08-.75a5.18,5.18,0,0,1-1.51,1.31,4,4,0,0,1-2,.52,3.86,3.86,0,0,1-2.74-.89,3.3,3.3,0,0,1-.94-2.5,2.92,2.92,0,0,1,1.33-2.56,6.43,6.43,0,0,1,3.64-.9h2.16V150.1a2.1,2.1,0,0,0-.64-1.62,2.53,2.53,0,0,0-1.78-.59,4.28,4.28,0,0,0-1.39.2,2.61,2.61,0,0,0-1,.56l-.23,1.23H538.5v-2.26a5.94,5.94,0,0,1,1.9-1,7.37,7.37,0,0,1,2.43-.38,4.78,4.78,0,0,1,3.18,1,3.55,3.55,0,0,1,1.21,2.9v5.61c0,.15,0,.29,0,.44a3.22,3.22,0,0,0,0,.43l.85.12v1.35ZM542,156.53a3.78,3.78,0,0,0,1.91-.5,3.13,3.13,0,0,0,1.23-1.22v-1.92h-2.23a3.12,3.12,0,0,0-2,.61,1.8,1.8,0,0,0-.76,1.46,1.47,1.47,0,0,0,.47,1.17A2.15,2.15,0,0,0,542,156.53Z"/><path class="cls-9" d="M551.79,157.57a5,5,0,0,1-.39,1.93,4.75,4.75,0,0,1-1.1,1.61l-.75-.56a5.81,5.81,0,0,0,.74-1.41,4.8,4.8,0,0,0,.24-1.55v-1.53h1.26Z"/><path class="cls-9" d="M559.42,152.09a6.33,6.33,0,0,1,1.4-4.23,5,5,0,0,1,7.41,0,6.32,6.32,0,0,1,1.39,4.23v.35a6.32,6.32,0,0,1-1.39,4.23,4.6,4.6,0,0,1-3.69,1.64,4.65,4.65,0,0,1-3.72-1.64,6.33,6.33,0,0,1-1.4-4.23Zm1.28.35a5.55,5.55,0,0,0,1,3.4,3.54,3.54,0,0,0,5.61,0,5.55,5.55,0,0,0,1-3.4v-.35a5.58,5.58,0,0,0-1-3.39,3.31,3.31,0,0,0-2.81-1.39,3.27,3.27,0,0,0-2.8,1.39,5.59,5.59,0,0,0-1,3.39Z"/><path class="cls-9" d="M571.47,157.14l1.73-.14v-9.47l-1.73-.14v-1h2.86l.12,2a3.95,3.95,0,0,1,3.73-2.25,3.55,3.55,0,0,1,2.86,1.15,5.57,5.57,0,0,1,1,3.62v6l1.73.14v.94H579v-.94l1.74-.14v-6a4.25,4.25,0,0,0-.74-2.83,2.67,2.67,0,0,0-2.11-.83,3.33,3.33,0,0,0-2.19.71,4,4,0,0,0-1.22,1.9V157l1.74.14v.94h-4.75Z"/><path class="cls-9" d="M593.66,156.4a3.92,3.92,0,0,1-1.48,1.41,4.35,4.35,0,0,1-2.13.5,3.81,3.81,0,0,1-3.23-1.56,6.79,6.79,0,0,1-1.17-4.17v-.23a7.67,7.67,0,0,1,1.17-4.46,3.73,3.73,0,0,1,3.25-1.67,4.1,4.1,0,0,1,2.09.51,4.19,4.19,0,0,1,1.47,1.46v-5.81l-1.73-.14v-1h3V157l1.74.14v.94h-2.88Zm-6.72-3.82a5.93,5.93,0,0,0,.84,3.36,2.82,2.82,0,0,0,2.52,1.25,3.61,3.61,0,0,0,2.05-.56,3.67,3.67,0,0,0,1.28-1.54v-5.51A4,4,0,0,0,592.4,148a3.34,3.34,0,0,0-2.08-.62,2.76,2.76,0,0,0-2.53,1.39,6.86,6.86,0,0,0-.85,3.62Z"/><path class="cls-9" d="M603.69,158.31a4.61,4.61,0,0,1-3.6-1.61,6,6,0,0,1-1.43-4.1V152a6.16,6.16,0,0,1,1.42-4.15,4.42,4.42,0,0,1,3.44-1.64,4.26,4.26,0,0,1,3.34,1.35,5.23,5.23,0,0,1,1.21,3.62v1.1h-8.14v.31a5.2,5.2,0,0,0,1,3.29,3.28,3.28,0,0,0,2.72,1.33,5.61,5.61,0,0,0,2-.33,3.84,3.84,0,0,0,1.43-1l.55.88a4.6,4.6,0,0,1-1.64,1.1A6.45,6.45,0,0,1,603.69,158.31Zm-.17-11a3,3,0,0,0-2.37,1.1,4.68,4.68,0,0,0-1.12,2.74l0,0h6.75v-.32a3.74,3.74,0,0,0-.88-2.54A3,3,0,0,0,603.52,147.31Z"/><path class="cls-9" d="M624,150h-1l-.15-1.65a3.22,3.22,0,0,0-1.21-.79,4.85,4.85,0,0,0-1.68-.28,3.12,3.12,0,0,0-2.09.61,1.84,1.84,0,0,0-.7,1.43,1.72,1.72,0,0,0,.6,1.34,5.76,5.76,0,0,0,2.41.92,7.7,7.7,0,0,1,3.07,1.27,2.6,2.6,0,0,1,1,2.18,2.82,2.82,0,0,1-1.17,2.35,4.92,4.92,0,0,1-3.08.9,7.12,7.12,0,0,1-2.33-.36,5.47,5.47,0,0,1-1.82-1v-2.35h1l.19,1.66a2.87,2.87,0,0,0,1.29.75,5.91,5.91,0,0,0,1.64.23,3.49,3.49,0,0,0,2.18-.61,1.84,1.84,0,0,0,.8-1.49,1.88,1.88,0,0,0-.67-1.43,5.34,5.34,0,0,0-2.4-1,8,8,0,0,1-3-1.2,2.47,2.47,0,0,1-1-2.1,2.79,2.79,0,0,1,1.12-2.25,4.47,4.47,0,0,1,3-.92,6.6,6.6,0,0,1,2.32.39,4.57,4.57,0,0,1,1.71,1.06Z"/><path class="cls-9" d="M631.66,158.31a4.63,4.63,0,0,1-3.6-1.61,6,6,0,0,1-1.43-4.1V152a6.12,6.12,0,0,1,1.43-4.15,4.4,4.4,0,0,1,3.43-1.64,4.26,4.26,0,0,1,3.34,1.35,5.23,5.23,0,0,1,1.21,3.62v1.1H627.9v.31a5.2,5.2,0,0,0,1,3.29,3.28,3.28,0,0,0,2.72,1.33,5.57,5.57,0,0,0,2-.33,4,4,0,0,0,1.44-1l.54.88a4.6,4.6,0,0,1-1.64,1.1A6.45,6.45,0,0,1,631.66,158.31Zm-.17-11a3.06,3.06,0,0,0-2.37,1.1,4.68,4.68,0,0,0-1.12,2.74l0,0h6.76v-.32a3.75,3.75,0,0,0-.89-2.54A3,3,0,0,0,631.49,147.31Z"/><path class="cls-9" d="M638.38,152.35a7.6,7.6,0,0,1,1.18-4.46,3.75,3.75,0,0,1,3.26-1.67,4.06,4.06,0,0,1,2.13.54,4.22,4.22,0,0,1,1.48,1.54l.15-1.87h1.08v11.5a5.06,5.06,0,0,1-1.2,3.56,4.4,4.4,0,0,1-3.36,1.3,8.2,8.2,0,0,1-1.78-.21,6.44,6.44,0,0,1-1.64-.56l.34-1.08a7.34,7.34,0,0,0,1.45.51,6.51,6.51,0,0,0,1.61.19,3.07,3.07,0,0,0,2.47-1,4.12,4.12,0,0,0,.83-2.73v-1.47a4,4,0,0,1-1.48,1.37,4.4,4.4,0,0,1-2.1.48,3.83,3.83,0,0,1-3.25-1.56,6.79,6.79,0,0,1-1.17-4.17Zm1.28.23a5.91,5.91,0,0,0,.84,3.35,2.86,2.86,0,0,0,2.53,1.26,3.57,3.57,0,0,0,2.08-.57,3.74,3.74,0,0,0,1.27-1.57v-5.41a4,4,0,0,0-1.23-1.66,3.22,3.22,0,0,0-2.09-.64,2.8,2.8,0,0,0-2.55,1.4,6.84,6.84,0,0,0-.85,3.61Z"/><path class="cls-9" d="M659,156.17a3.92,3.92,0,0,1-1.49,1.58,4.31,4.31,0,0,1-2.22.56,3.51,3.51,0,0,1-2.85-1.25,6,6,0,0,1-1-3.88v-5.65l-1.43-.14v-1h2.7v6.78a5,5,0,0,0,.72,3,2.43,2.43,0,0,0,2,.93,3.75,3.75,0,0,0,2.31-.65,3.45,3.45,0,0,0,1.21-1.78v-7.23l-1.64-.14v-1h2.92V157l1.54.14v.94h-2.66Z"/><path class="cls-9" d="M663.6,157.14l1.74-.14v-9.47l-1.74-.14v-1h3V157l1.73.14v.94H663.6Zm3-14h-1.27v-1.81h1.27Z"/><path class="cls-9" d="M673.25,146.43l.15,1.94v.14a4.22,4.22,0,0,1,1.34-1.69,3.41,3.41,0,0,1,2-.6,3.87,3.87,0,0,1,.48,0l.37.09-.17,1.2-.95-.06a2.83,2.83,0,0,0-2,.68A3.83,3.83,0,0,0,673.4,150v7l1.74.14v.94H670.4v-.94l1.74-.14v-9.47l-1.74-.14v-1h2.85Z"/><path class="cls-9" d="M684.14,158.31a4.65,4.65,0,0,1-3.61-1.61,6,6,0,0,1-1.42-4.1V152a6.11,6.11,0,0,1,1.42-4.15,4.4,4.4,0,0,1,3.44-1.64,4.25,4.25,0,0,1,3.33,1.35,5.23,5.23,0,0,1,1.22,3.62v1.1h-8.14v.31a5.19,5.19,0,0,0,1,3.29,3.3,3.3,0,0,0,2.73,1.33,5.51,5.51,0,0,0,2-.33,4,4,0,0,0,1.44-1l.54.88a4.6,4.6,0,0,1-1.64,1.1A6.44,6.44,0,0,1,684.14,158.31Zm-.17-11a3,3,0,0,0-2.37,1.1,4.69,4.69,0,0,0-1.13,2.74l0,0h6.76v-.32a3.75,3.75,0,0,0-.89-2.54A3,3,0,0,0,684,147.31Z"/><path class="cls-9" d="M690.52,147.39v-1h2.87l.11,1.93a4.11,4.11,0,0,1,1.48-1.58,4.15,4.15,0,0,1,2.21-.56,3.6,3.6,0,0,1,2.21.65,3.53,3.53,0,0,1,1.26,2,4.61,4.61,0,0,1,1.49-1.93,3.87,3.87,0,0,1,2.35-.7,3.45,3.45,0,0,1,2.85,1.24,6,6,0,0,1,1,3.83V157l1.74.16v.94h-4.77v-.94l1.74-.16v-5.71a4.8,4.8,0,0,0-.75-3.05,2.6,2.6,0,0,0-2.1-.88,2.81,2.81,0,0,0-2.29,1,4.58,4.58,0,0,0-1,2.44.81.81,0,0,0,0,.16V157l1.74.14v.94h-4.75v-.94l1.73-.14v-5.73a4.69,4.69,0,0,0-.76-3,2.58,2.58,0,0,0-2.09-.91,3.18,3.18,0,0,0-2.16.69,3.67,3.67,0,0,0-1.11,1.87V157l1.73.14v.94h-4.75v-.94l1.74-.14v-9.47Z"/><path class="cls-9" d="M711.56,152.09a6.33,6.33,0,0,1,1.4-4.23,5,5,0,0,1,7.41,0,6.32,6.32,0,0,1,1.39,4.23v.35a6.32,6.32,0,0,1-1.39,4.23,4.59,4.59,0,0,1-3.69,1.64,4.65,4.65,0,0,1-3.72-1.64,6.33,6.33,0,0,1-1.4-4.23Zm1.28.35a5.55,5.55,0,0,0,1,3.4,3.54,3.54,0,0,0,5.61,0,5.55,5.55,0,0,0,1-3.4v-.35a5.58,5.58,0,0,0-1-3.39,3.53,3.53,0,0,0-5.61,0,5.59,5.59,0,0,0-1,3.39Z"/><path class="cls-9" d="M732.21,150h-1.05l-.15-1.65a3.22,3.22,0,0,0-1.21-.79,4.75,4.75,0,0,0-1.67-.28,3.15,3.15,0,0,0-2.1.61,1.87,1.87,0,0,0-.7,1.43,1.7,1.7,0,0,0,.61,1.34,5.76,5.76,0,0,0,2.4.92,7.75,7.75,0,0,1,3.08,1.27,2.62,2.62,0,0,1,1,2.18,2.82,2.82,0,0,1-1.17,2.35,4.88,4.88,0,0,1-3.08.9,7.16,7.16,0,0,1-2.33-.36,5.57,5.57,0,0,1-1.82-1v-2.35h1l.18,1.66a2.87,2.87,0,0,0,1.29.75,6,6,0,0,0,1.64.23,3.49,3.49,0,0,0,2.18-.61,1.82,1.82,0,0,0,.8-1.49,1.9,1.9,0,0,0-.66-1.43,5.44,5.44,0,0,0-2.41-1,8,8,0,0,1-3.05-1.2,2.48,2.48,0,0,1-1-2.1,2.81,2.81,0,0,1,1.11-2.25,4.48,4.48,0,0,1,3-.92,6.59,6.59,0,0,1,2.31.39,4.57,4.57,0,0,1,1.71,1.06Z"/><path class="cls-9" d="M739.73,147.39v-1h2.8l.16,1.81a4,4,0,0,1,3.64-2,3.74,3.74,0,0,1,3.25,1.67,7.67,7.67,0,0,1,1.17,4.46v.23a6.75,6.75,0,0,1-1.17,4.17,3.82,3.82,0,0,1-3.23,1.56,4.64,4.64,0,0,1-2.13-.47,3.79,3.79,0,0,1-1.48-1.33v5l1.73.14v1h-4.74v-1l1.74-.14V147.53Zm9.74,5a6.75,6.75,0,0,0-.87-3.61,2.83,2.83,0,0,0-2.56-1.4,3.32,3.32,0,0,0-2.1.62,3.82,3.82,0,0,0-1.2,1.61v5.6a3.5,3.5,0,0,0,1.26,1.5,3.62,3.62,0,0,0,2.06.55A2.87,2.87,0,0,0,748.6,156a5.87,5.87,0,0,0,.87-3.37Z"/><path class="cls-9" d="M760.79,158.08a8.53,8.53,0,0,1-.18-1,6.36,6.36,0,0,1-.06-.87,5.12,5.12,0,0,1-1.7,1.52,4.8,4.8,0,0,1-2.4.6,3.69,3.69,0,0,1-2.62-.88,3.15,3.15,0,0,1-.93-2.39,3,3,0,0,1,1.38-2.57,6.48,6.48,0,0,1,3.73-.94h2.54V150a2.48,2.48,0,0,0-.79-2,3.19,3.19,0,0,0-2.22-.72,5.46,5.46,0,0,0-1.76.27,3.72,3.72,0,0,0-1.32.72l-.11,1.56H753.3v-2.24a6.55,6.55,0,0,1,1.91-1,7.36,7.36,0,0,1,2.37-.38,4.56,4.56,0,0,1,3.07,1,3.48,3.48,0,0,1,1.16,2.81v5.73c0,.23,0,.46,0,.68a4.48,4.48,0,0,0,.07.64l1.15.08v.94Zm-4.2-.91a4.59,4.59,0,0,0,2.44-.65,3.81,3.81,0,0,0,1.52-1.67v-2.33H758a4.78,4.78,0,0,0-2.77.72,2.19,2.19,0,0,0-1,1.84,1.92,1.92,0,0,0,.64,1.51A2.56,2.56,0,0,0,756.59,157.17Z"/><path class="cls-9" d="M767.63,146.43l.16,1.94v.14a4.14,4.14,0,0,1,1.34-1.69,3.37,3.37,0,0,1,2-.6,3.59,3.59,0,0,1,.47,0l.38.09-.17,1.2-1-.06a2.87,2.87,0,0,0-2,.68,3.82,3.82,0,0,0-1.1,1.88v7l1.74.14v.94h-4.75v-.94l1.74-.14v-9.47l-1.74-.14v-1h2.85Z"/><path class="cls-9" d="M781.6,158.08c-.08-.39-.15-.73-.18-1a6.35,6.35,0,0,1,0-.87,5.26,5.26,0,0,1-1.71,1.52,4.8,4.8,0,0,1-2.4.6,3.69,3.69,0,0,1-2.62-.88,3.15,3.15,0,0,1-.93-2.39,3,3,0,0,1,1.38-2.57,6.5,6.5,0,0,1,3.73-.94h2.55V150a2.48,2.48,0,0,0-.8-2,3.19,3.19,0,0,0-2.22-.72,5.4,5.4,0,0,0-1.75.27,3.77,3.77,0,0,0-1.33.72l-.11,1.56h-1v-2.24a6.55,6.55,0,0,1,1.91-1,7.36,7.36,0,0,1,2.37-.38,4.56,4.56,0,0,1,3.07,1,3.45,3.45,0,0,1,1.16,2.81v5.73c0,.23,0,.46,0,.68a4.48,4.48,0,0,0,.07.64l1.15.08v.94Zm-4.2-.91a4.59,4.59,0,0,0,2.44-.65,3.83,3.83,0,0,0,1.53-1.67v-2.33H778.8a4.79,4.79,0,0,0-2.78.72,2.19,2.19,0,0,0-1,1.84,1.93,1.93,0,0,0,.65,1.51A2.53,2.53,0,0,0,777.4,157.17Z"/><path class="cls-9" d="M409.15,178.55a6.3,6.3,0,0,1,1.39-4.22,5,5,0,0,1,7.41,0,6.3,6.3,0,0,1,1.4,4.22v.35a6.34,6.34,0,0,1-1.39,4.23,5,5,0,0,1-7.42,0,6.29,6.29,0,0,1-1.39-4.23Zm1.28.35a5.58,5.58,0,0,0,1,3.41,3.3,3.3,0,0,0,2.82,1.38,3.26,3.26,0,0,0,2.79-1.38,5.59,5.59,0,0,0,1-3.41v-.35a5.54,5.54,0,0,0-1-3.38,3.53,3.53,0,0,0-5.61,0,5.53,5.53,0,0,0-1,3.38Z"/><path class="cls-9" d="M426.51,184.77a4.61,4.61,0,0,1-3.61-1.61,5.94,5.94,0,0,1-1.42-4.09v-.6a6.11,6.11,0,0,1,1.42-4.14,4.38,4.38,0,0,1,3.44-1.65,4.23,4.23,0,0,1,3.33,1.36,5.22,5.22,0,0,1,1.22,3.62v1.09h-8.14v.32a5.21,5.21,0,0,0,1,3.29,3.32,3.32,0,0,0,2.73,1.33,5.5,5.5,0,0,0,2-.34,4,4,0,0,0,1.44-1l.54.89a4.58,4.58,0,0,1-1.64,1.09A6.23,6.23,0,0,1,426.51,184.77Zm-.17-11a3,3,0,0,0-2.37,1.09,4.69,4.69,0,0,0-1.13,2.74l0,.06h6.76v-.33a3.75,3.75,0,0,0-.89-2.54A3,3,0,0,0,426.34,173.78Z"/><path class="cls-9" d="M441.53,176.49h-1l-.15-1.65a3.33,3.33,0,0,0-1.21-.78,4.62,4.62,0,0,0-1.68-.28,3.07,3.07,0,0,0-2.09.61,1.82,1.82,0,0,0-.7,1.42,1.71,1.71,0,0,0,.6,1.34,5.88,5.88,0,0,0,2.4.93,7.76,7.76,0,0,1,3.08,1.26,2.61,2.61,0,0,1,1,2.18,2.82,2.82,0,0,1-1.17,2.35,4.92,4.92,0,0,1-3.08.9,7.12,7.12,0,0,1-2.33-.36,5.47,5.47,0,0,1-1.82-1v-2.34h1l.18,1.66a3,3,0,0,0,1.3.74,5.56,5.56,0,0,0,1.64.24,3.49,3.49,0,0,0,2.18-.62,1.82,1.82,0,0,0,.8-1.48,1.89,1.89,0,0,0-.67-1.44,5.34,5.34,0,0,0-2.4-1,8,8,0,0,1-3.05-1.2,2.46,2.46,0,0,1-1-2.09,2.81,2.81,0,0,1,1.12-2.26,4.51,4.51,0,0,1,2.95-.92,6.6,6.6,0,0,1,2.32.39,4.83,4.83,0,0,1,1.71,1.06Z"/><path class="cls-9" d="M447,169.91v3h2.54v1H447v7.59a2.52,2.52,0,0,0,.41,1.62,1.36,1.36,0,0,0,1.09.48l.61,0c.19,0,.42-.05.67-.1l.19,1a2.94,2.94,0,0,1-.77.22,5.79,5.79,0,0,1-.92.07,2.39,2.39,0,0,1-1.89-.77,3.71,3.71,0,0,1-.68-2.46V174h-2v-1h2v-3Z"/><path class="cls-9" d="M457,184.77a4.59,4.59,0,0,1-3.6-1.61,6,6,0,0,1-1.43-4.09v-.6a6.11,6.11,0,0,1,1.43-4.14,4.38,4.38,0,0,1,3.43-1.65,4.23,4.23,0,0,1,3.34,1.36,5.21,5.21,0,0,1,1.21,3.62v1.09h-8.14v.32a5.22,5.22,0,0,0,1,3.29,3.3,3.3,0,0,0,2.72,1.33,5.56,5.56,0,0,0,2-.34,4,4,0,0,0,1.44-1l.54.89a4.58,4.58,0,0,1-1.64,1.09A6.25,6.25,0,0,1,457,184.77Zm-.17-11a3.05,3.05,0,0,0-2.37,1.09,4.74,4.74,0,0,0-1.12,2.74l0,.06h6.76v-.33a3.75,3.75,0,0,0-.89-2.54A3,3,0,0,0,456.81,173.78Z"/><path class="cls-9" d="M468.72,183.6l1.73-.14V174l-1.73-.14v-.95h2.86l.12,2a4,4,0,0,1,3.73-2.25,3.56,3.56,0,0,1,2.86,1.16,5.52,5.52,0,0,1,1,3.61v6l1.73.14v1h-4.75v-1l1.74-.14v-6a4.27,4.27,0,0,0-.74-2.83,2.7,2.7,0,0,0-2.11-.83,3.28,3.28,0,0,0-2.19.72,4,4,0,0,0-1.22,1.9v7l1.74.14v1h-4.75Z"/><path class="cls-9" d="M491,184.55a9,9,0,0,1-.18-1,6.15,6.15,0,0,1-.06-.87,5,5,0,0,1-1.7,1.52,4.8,4.8,0,0,1-2.4.6,3.64,3.64,0,0,1-2.62-.88,3.15,3.15,0,0,1-.93-2.39,3,3,0,0,1,1.38-2.56,6.4,6.4,0,0,1,3.73-.95h2.54v-1.54a2.49,2.49,0,0,0-.79-2,3.23,3.23,0,0,0-2.22-.71A5.75,5.75,0,0,0,486,174a4.06,4.06,0,0,0-1.32.72l-.11,1.56h-1v-2.24a6.53,6.53,0,0,1,1.91-1,7.1,7.1,0,0,1,2.37-.39,4.63,4.63,0,0,1,3.07,1,3.48,3.48,0,0,1,1.16,2.81v5.73c0,.24,0,.46,0,.68a4.32,4.32,0,0,0,.07.64l1.15.08v1Zm-4.2-.92a4.58,4.58,0,0,0,2.44-.64,3.86,3.86,0,0,0,1.52-1.67V179h-2.57a4.71,4.71,0,0,0-2.77.73,2.16,2.16,0,0,0-1,1.83,1.94,1.94,0,0,0,.64,1.52A2.61,2.61,0,0,0,486.77,183.63Z"/><path class="cls-9" d="M503.94,170.09v2.81h2.18v1.57h-2.18v7.07a1.6,1.6,0,0,0,.33,1.15,1.19,1.19,0,0,0,.89.34,4.82,4.82,0,0,0,.62-.05c.24,0,.43-.07.59-.1l.28,1.45a2.61,2.61,0,0,1-.87.32,5.62,5.62,0,0,1-1.15.12,2.73,2.73,0,0,1-2-.78,3.42,3.42,0,0,1-.75-2.45v-7.07H500V172.9h1.83v-2.81Z"/><path class="cls-9" d="M508.26,174.26V172.9h3.61l.21,1.69a3.88,3.88,0,0,1,1.21-1.4,2.75,2.75,0,0,1,1.64-.51,2.92,2.92,0,0,1,.51,0,2.14,2.14,0,0,1,.4.08l-.28,2-1.19-.06a2.41,2.41,0,0,0-1.4.39,2.61,2.61,0,0,0-.87,1.1v6.69l1.74.3v1.36h-5.58v-1.36l1.74-.3v-8.33Z"/><path class="cls-9" d="M517.29,183.19l1.74-.3v-8.33l-1.74-.3V172.9h3.84v10l1.73.3v1.36h-5.57Zm3.84-13.28H519v-2.16h2.1Z"/><path class="cls-9" d="M524.17,169.12v-1.37H528v15.14l1.74.3v1.36h-5.58v-1.36l1.74-.3V169.42Z"/><path class="cls-9" d="M531.05,183.19l1.73-.3V169.42l-1.73-.3v-1.37h3.83v6.7a4.34,4.34,0,0,1,1.46-1.31,4.12,4.12,0,0,1,1.92-.46,3.69,3.69,0,0,1,2.88,1.12,5,5,0,0,1,1,3.45v5.64l1.74.3v1.36h-5.58v-1.36l1.74-.3v-5.67a3.13,3.13,0,0,0-.61-2.13,2.32,2.32,0,0,0-1.83-.69,3,3,0,0,0-1.57.42,3.48,3.48,0,0,0-1.17,1.12v6.95l1.74.3v1.36h-5.57Z"/><path class="cls-9" d="M552.94,184.55c-.06-.32-.11-.6-.14-.85s-.06-.51-.08-.76a5,5,0,0,1-1.52,1.31,4.31,4.31,0,0,1-4.68-.37,3.25,3.25,0,0,1-.94-2.5,2.91,2.91,0,0,1,1.33-2.56,6.4,6.4,0,0,1,3.64-.9h2.16v-1.35a2.1,2.1,0,0,0-.64-1.62,2.49,2.49,0,0,0-1.78-.6,4.52,4.52,0,0,0-1.39.2,2.67,2.67,0,0,0-1,.56l-.23,1.23h-1.62v-2.26a6.42,6.42,0,0,1,1.91-1,7.64,7.64,0,0,1,2.43-.38,4.83,4.83,0,0,1,3.18,1,3.59,3.59,0,0,1,1.21,2.9v6l0,.43.85.12v1.36ZM549.57,183a3.66,3.66,0,0,0,1.9-.51,3.1,3.1,0,0,0,1.24-1.22v-1.91h-2.24a3.18,3.18,0,0,0-2,.6,1.82,1.82,0,0,0-.75,1.46,1.47,1.47,0,0,0,.47,1.17A2.13,2.13,0,0,0,549.57,183Z"/><path class="cls-9" d="M568.13,184.77a4.83,4.83,0,0,1-3.83-1.62,6.12,6.12,0,0,1-1.42-4.2v-.48a6,6,0,0,1,1.46-4.14,4.51,4.51,0,0,1,3.47-1.65,4.34,4.34,0,0,1,3.52,1.42,5.68,5.68,0,0,1,1.2,3.79v1.33h-7.48l0,.05a4.62,4.62,0,0,0,.84,2.76,2.68,2.68,0,0,0,2.27,1.08,5.35,5.35,0,0,0,1.87-.3,4.33,4.33,0,0,0,1.39-.85l.82,1.38a5.17,5.17,0,0,1-1.63,1A6.65,6.65,0,0,1,568.13,184.77Zm-.32-10.42a2.27,2.27,0,0,0-1.8.9,4.31,4.31,0,0,0-.92,2.25l0,.06h5.32v-.28a3.29,3.29,0,0,0-.66-2.09A2.34,2.34,0,0,0,567.81,174.35Z"/><path class="cls-9" d="M574.29,183.19l1.74-.3v-8.33l-1.74-.3V172.9h3.61l.15,1.73a4.31,4.31,0,0,1,1.44-1.44,3.84,3.84,0,0,1,2-.51,3.75,3.75,0,0,1,2.89,1.1,4.91,4.91,0,0,1,1,3.41v5.7l1.74.3v1.36h-5.57v-1.36l1.73-.3v-5.65a3.19,3.19,0,0,0-.6-2.19,2.39,2.39,0,0,0-1.84-.65,3,3,0,0,0-1.6.44,3.16,3.16,0,0,0-1.11,1.21v6.84l1.73.3v1.36h-5.57Z"/><path class="cls-9" d="M592.31,170.09v2.81h2.18v1.57h-2.18v7.07a1.55,1.55,0,0,0,.34,1.15,1.17,1.17,0,0,0,.88.34,5,5,0,0,0,.63-.05l.58-.1.29,1.45a2.59,2.59,0,0,1-.88.32,5.54,5.54,0,0,1-1.15.12,2.69,2.69,0,0,1-2-.78,3.38,3.38,0,0,1-.76-2.45v-7.07h-1.82V172.9h1.82v-2.81Z"/><path class="cls-9" d="M596.64,174.26V172.9h3.61l.2,1.69a4,4,0,0,1,1.21-1.4,2.78,2.78,0,0,1,1.65-.51,2.89,2.89,0,0,1,.5,0,2,2,0,0,1,.4.08l-.27,2-1.2-.06a2.37,2.37,0,0,0-1.39.39,2.55,2.55,0,0,0-.88,1.1v6.69l1.74.3v1.36h-5.57v-1.36l1.73-.3v-8.33Z"/><path class="cls-9" d="M610.72,184.77a4.85,4.85,0,0,1-3.83-1.62,6.12,6.12,0,0,1-1.42-4.2v-.48a6,6,0,0,1,1.47-4.14,4.48,4.48,0,0,1,3.46-1.65,4.36,4.36,0,0,1,3.53,1.42,5.68,5.68,0,0,1,1.2,3.79v1.33h-7.49l0,.05a4.62,4.62,0,0,0,.84,2.76,2.68,2.68,0,0,0,2.27,1.08,5.32,5.32,0,0,0,1.87-.3A4.33,4.33,0,0,0,614,182l.83,1.38a5.22,5.22,0,0,1-1.64,1A6.61,6.61,0,0,1,610.72,184.77Zm-.32-10.42a2.27,2.27,0,0,0-1.8.9,4.3,4.3,0,0,0-.91,2.25l0,.06H613v-.28a3.23,3.23,0,0,0-.67-2.09A2.34,2.34,0,0,0,610.4,174.35Z"/><path class="cls-9" d="M630.14,184.55c-.06-.32-.11-.6-.15-.85a6.51,6.51,0,0,1-.07-.76,5.2,5.2,0,0,1-1.52,1.31,4.33,4.33,0,0,1-4.69-.37,3.28,3.28,0,0,1-.93-2.5,2.92,2.92,0,0,1,1.32-2.56,6.43,6.43,0,0,1,3.64-.9h2.16v-1.35a2.13,2.13,0,0,0-.63-1.62,2.51,2.51,0,0,0-1.78-.6,4.48,4.48,0,0,0-1.39.2,2.72,2.72,0,0,0-1,.56l-.22,1.23h-1.62v-2.26a6.36,6.36,0,0,1,1.9-1,7.64,7.64,0,0,1,2.43-.38,4.83,4.83,0,0,1,3.18,1,3.56,3.56,0,0,1,1.21,2.9v5.61c0,.15,0,.3,0,.44a3.11,3.11,0,0,0,0,.43l.85.12v1.36ZM626.76,183a3.69,3.69,0,0,0,1.91-.51,3.07,3.07,0,0,0,1.23-1.22v-1.91h-2.23a3.18,3.18,0,0,0-2,.6,1.82,1.82,0,0,0-.75,1.46,1.47,1.47,0,0,0,.46,1.17A2.15,2.15,0,0,0,626.76,183Z"/><path class="cls-9" d="M643.46,176.56h-1.58l-.34-1.4a2.79,2.79,0,0,0-1-.59,3.66,3.66,0,0,0-1.32-.22,2.4,2.4,0,0,0-1.66.49,1.57,1.57,0,0,0-.54,1.2,1.37,1.37,0,0,0,.47,1.09,5.07,5.07,0,0,0,2,.71,8.23,8.23,0,0,1,3.26,1.29,2.58,2.58,0,0,1,1.06,2.18,3,3,0,0,1-1.24,2.5,5.17,5.17,0,0,1-3.25,1,8.53,8.53,0,0,1-2.35-.3,6.34,6.34,0,0,1-1.87-.89v-2.66h1.58l.4,1.56a2.2,2.2,0,0,0,1,.48,5.44,5.44,0,0,0,1.27.15,3,3,0,0,0,1.76-.45,1.43,1.43,0,0,0,.63-1.2,1.45,1.45,0,0,0-.53-1.16,4.87,4.87,0,0,0-2-.78,8.41,8.41,0,0,1-3.17-1.26A2.55,2.55,0,0,1,635,176.1a3.08,3.08,0,0,1,1.19-2.42,4.69,4.69,0,0,1,3.12-1,7.81,7.81,0,0,1,2.36.34,4.89,4.89,0,0,1,1.73,1Z"/><path class="cls-9" d="M650.77,183.19l1.74-.3v-8.33l-1.74-.3V172.9h3.62l.14,1.51a3.82,3.82,0,0,1,1.43-1.28,4.36,4.36,0,0,1,2-.45,3.53,3.53,0,0,1,2,.54,3.24,3.24,0,0,1,1.24,1.61,4.28,4.28,0,0,1,1.44-1.57,3.73,3.73,0,0,1,2.09-.58,3.45,3.45,0,0,1,2.79,1.22,5.65,5.65,0,0,1,1,3.68v5.31l1.74.3v1.36H664.7v-1.36l1.74-.3v-5.33a3.91,3.91,0,0,0-.59-2.44,2.11,2.11,0,0,0-1.74-.72,2.19,2.19,0,0,0-1.76.78,3.38,3.38,0,0,0-.77,2v5.74l1.73.3v1.36h-5.57v-1.36l1.74-.3v-5.33a3.88,3.88,0,0,0-.61-2.4,2.1,2.1,0,0,0-1.74-.76,2.94,2.94,0,0,0-1.58.4,2.59,2.59,0,0,0-.94,1.12v7l1.73.3v1.36h-5.57Z"/><path class="cls-9" d="M671.71,178.61a6.44,6.44,0,0,1,1.39-4.26,5.08,5.08,0,0,1,7.53,0,6.4,6.4,0,0,1,1.39,4.26v.24a6.42,6.42,0,0,1-1.38,4.26,5.11,5.11,0,0,1-7.54,0,6.4,6.4,0,0,1-1.39-4.26Zm2.1.24a5.62,5.62,0,0,0,.77,3.06,2.78,2.78,0,0,0,4.57,0,5.54,5.54,0,0,0,.78-3.06v-.24a5.51,5.51,0,0,0-.78-3,2.53,2.53,0,0,0-2.29-1.22,2.5,2.5,0,0,0-2.28,1.22,5.51,5.51,0,0,0-.77,3Z"/><path class="cls-9" d="M683.63,183.19l1.74-.3v-8.33l-1.74-.3V172.9h3.62l.15,1.73a4.13,4.13,0,0,1,1.44-1.44,3.84,3.84,0,0,1,2-.51,3.74,3.74,0,0,1,2.88,1.1,4.86,4.86,0,0,1,1,3.41v5.7l1.73.3v1.36h-5.57v-1.36l1.74-.3v-5.65a3.19,3.19,0,0,0-.6-2.19,2.42,2.42,0,0,0-1.84-.65,3,3,0,0,0-1.61.44,3.32,3.32,0,0,0-1.11,1.21v6.84l1.74.3v1.36h-5.58Z"/><path class="cls-9" d="M701.65,170.09v2.81h2.19v1.57h-2.19v7.07a1.59,1.59,0,0,0,.34,1.15,1.18,1.18,0,0,0,.89.34,5,5,0,0,0,.62-.05l.58-.1.29,1.45a2.61,2.61,0,0,1-.87.32,5.69,5.69,0,0,1-1.15.12,2.71,2.71,0,0,1-2-.78,3.42,3.42,0,0,1-.76-2.45v-7.07h-1.82V172.9h1.82v-2.81Z"/><path class="cls-9" d="M713.5,184.55c-.06-.32-.11-.6-.15-.85s-.06-.51-.07-.76a5.08,5.08,0,0,1-1.52,1.31,4.31,4.31,0,0,1-4.68-.37,3.25,3.25,0,0,1-.94-2.5,2.91,2.91,0,0,1,1.33-2.56,6.38,6.38,0,0,1,3.64-.9h2.16v-1.35a2.1,2.1,0,0,0-.64-1.62,2.51,2.51,0,0,0-1.78-.6,4.48,4.48,0,0,0-1.39.2,2.8,2.8,0,0,0-1,.56l-.22,1.23h-1.62v-2.26a6.42,6.42,0,0,1,1.91-1,7.55,7.55,0,0,1,2.43-.38,4.8,4.8,0,0,1,3.17,1,3.57,3.57,0,0,1,1.22,2.9v6l0,.43.85.12v1.36ZM710.13,183a3.66,3.66,0,0,0,1.9-.51,3.1,3.1,0,0,0,1.24-1.22v-1.91H711a3.18,3.18,0,0,0-2,.6,1.82,1.82,0,0,0-.75,1.46,1.47,1.47,0,0,0,.47,1.17A2.11,2.11,0,0,0,710.13,183Z"/><path class="cls-9" d="M717.69,183.19l1.74-.3v-8.33l-1.74-.3V172.9h3.61l.15,1.73a4.25,4.25,0,0,1,1.45-1.44,3.83,3.83,0,0,1,2-.51,3.75,3.75,0,0,1,2.89,1.1,4.91,4.91,0,0,1,1,3.41v5.7l1.74.3v1.36H725v-1.36l1.74-.3v-5.65a3.18,3.18,0,0,0-.61-2.19,2.39,2.39,0,0,0-1.83-.65,3,3,0,0,0-1.61.44,3.32,3.32,0,0,0-1.11,1.21v6.84l1.74.3v1.36h-5.58Z"/><path class="cls-9" d="M731.76,183.19l1.73-.3V169.42l-1.73-.3v-1.37h3.83v6.7a4.34,4.34,0,0,1,1.46-1.31,4.12,4.12,0,0,1,1.92-.46,3.69,3.69,0,0,1,2.88,1.12,5,5,0,0,1,1,3.45v5.64l1.74.3v1.36H739v-1.36l1.73-.3v-5.67a3.13,3.13,0,0,0-.61-2.13,2.32,2.32,0,0,0-1.83-.69,3,3,0,0,0-1.57.42,3.48,3.48,0,0,0-1.17,1.12v6.95l1.74.3v1.36h-5.57Z"/><path class="cls-9" d="M753.66,184.55c-.07-.32-.12-.6-.15-.85s-.06-.51-.08-.76a5,5,0,0,1-1.52,1.31,4.31,4.31,0,0,1-4.68-.37,3.29,3.29,0,0,1-.94-2.5,2.93,2.93,0,0,1,1.33-2.56,6.4,6.4,0,0,1,3.64-.9h2.16v-1.35a2.1,2.1,0,0,0-.64-1.62,2.49,2.49,0,0,0-1.78-.6,4.52,4.52,0,0,0-1.39.2,2.75,2.75,0,0,0-1,.56l-.23,1.23h-1.62v-2.26a6.55,6.55,0,0,1,1.91-1,7.64,7.64,0,0,1,2.43-.38,4.83,4.83,0,0,1,3.18,1,3.56,3.56,0,0,1,1.21,2.9v5.61c0,.15,0,.3,0,.44s0,.29,0,.43l.86.12v1.36ZM750.28,183a3.69,3.69,0,0,0,1.91-.51,3.13,3.13,0,0,0,1.23-1.22v-1.91h-2.23a3.21,3.21,0,0,0-2.05.6,1.82,1.82,0,0,0-.75,1.46,1.47,1.47,0,0,0,.47,1.17A2.13,2.13,0,0,0,750.28,183Z"/><path class="cls-9" d="M767,176.56H765.4l-.34-1.4a2.88,2.88,0,0,0-1-.59,3.66,3.66,0,0,0-1.32-.22,2.39,2.39,0,0,0-1.66.49,1.55,1.55,0,0,0-.55,1.2,1.35,1.35,0,0,0,.48,1.09,5.07,5.07,0,0,0,2,.71,8.11,8.11,0,0,1,3.25,1.29,2.59,2.59,0,0,1,1.07,2.18,3,3,0,0,1-1.24,2.5,5.17,5.17,0,0,1-3.25,1,8.48,8.48,0,0,1-2.35-.3,6.34,6.34,0,0,1-1.87-.89v-2.66h1.58l.39,1.56a2.19,2.19,0,0,0,1,.48,5.38,5.38,0,0,0,1.27.15,3,3,0,0,0,1.76-.45,1.43,1.43,0,0,0,.63-1.2,1.48,1.48,0,0,0-.53-1.16,4.93,4.93,0,0,0-2-.78,8.35,8.35,0,0,1-3.16-1.26,2.56,2.56,0,0,1-1.07-2.16,3.06,3.06,0,0,1,1.2-2.42,4.69,4.69,0,0,1,3.12-1,7.75,7.75,0,0,1,2.35.34,4.85,4.85,0,0,1,1.74,1Z"/><path class="cls-9" d="M771.22,184a4.89,4.89,0,0,1-.4,1.94,4.78,4.78,0,0,1-1.09,1.6L769,187a5.64,5.64,0,0,0,.74-1.41,4.71,4.71,0,0,0,.24-1.55v-1.53h1.27Z"/><path class="cls-9" d="M408.75,209.66l1.74-.31V201l-1.74-.3v-1.37h3.62l.15,1.73a4.19,4.19,0,0,1,1.44-1.43,3.85,3.85,0,0,1,2-.52,3.72,3.72,0,0,1,2.88,1.11,4.83,4.83,0,0,1,1,3.41v5.69l1.73.31V211H416v-1.35l1.74-.31V203.7a3.19,3.19,0,0,0-.6-2.19,2.42,2.42,0,0,0-1.84-.64,3,3,0,0,0-1.61.44,3.25,3.25,0,0,0-1.11,1.21v6.83l1.74.31V211h-5.58Z"/><path class="cls-9" d="M430.63,211c-.06-.31-.11-.6-.15-.85s-.06-.5-.07-.75a5.22,5.22,0,0,1-1.52,1.31,4,4,0,0,1-1.95.52,3.86,3.86,0,0,1-2.74-.89,3.3,3.3,0,0,1-.93-2.5,2.91,2.91,0,0,1,1.32-2.56,6.43,6.43,0,0,1,3.64-.9h2.17V203a2.14,2.14,0,0,0-.64-1.62,2.51,2.51,0,0,0-1.78-.6,4.19,4.19,0,0,0-1.39.21,2.66,2.66,0,0,0-1,.56l-.22,1.23h-1.62v-2.26a5.89,5.89,0,0,1,1.91-1,7.27,7.27,0,0,1,2.42-.39,4.78,4.78,0,0,1,3.18,1,3.55,3.55,0,0,1,1.22,2.89v6.06a3.22,3.22,0,0,0,0,.43l.85.12V211Zm-3.38-1.55a3.78,3.78,0,0,0,1.91-.5,3.16,3.16,0,0,0,1.24-1.22v-1.92h-2.24a3.18,3.18,0,0,0-2,.6,1.83,1.83,0,0,0-.75,1.47,1.44,1.44,0,0,0,.47,1.17A2.1,2.1,0,0,0,427.25,209.46Z"/><path class="cls-9" d="M448.32,209.62a3.79,3.79,0,0,1-1.38,1.21,4.18,4.18,0,0,1-1.89.41,3.93,3.93,0,0,1-3.3-1.55,6.49,6.49,0,0,1-1.19-4.06v-.23a7.85,7.85,0,0,1,1.19-4.53,3.81,3.81,0,0,1,3.32-1.73,4,4,0,0,1,1.81.39,3.69,3.69,0,0,1,1.33,1.1v-4.75l-1.73-.3v-1.37h3.83v15.14l1.74.31V211h-3.56Zm-5.66-4a5,5,0,0,0,.72,2.82,2.45,2.45,0,0,0,2.2,1.06,2.74,2.74,0,0,0,1.58-.43,3.21,3.21,0,0,0,1-1.21v-5.41a3.27,3.27,0,0,0-1-1.16,2.72,2.72,0,0,0-1.56-.43,2.39,2.39,0,0,0-2.22,1.26,6.55,6.55,0,0,0-.72,3.27Z"/><path class="cls-9" d="M453.65,209.66l1.74-.31V201l-1.74-.3v-1.37h3.83v10l1.74.31V211h-5.57Zm3.83-13.28h-2.09v-2.17h2.09Z"/><path class="cls-9" d="M460.82,200.73v-1.37h3.61l.21,1.69a4,4,0,0,1,1.2-1.4,2.78,2.78,0,0,1,1.65-.51,4.75,4.75,0,0,1,.51,0,4,4,0,0,1,.4.08l-.28,2-1.19-.06a2.41,2.41,0,0,0-1.4.39,2.44,2.44,0,0,0-.87,1.11v6.68l1.73.31V211h-5.57v-1.35l1.74-.31V201Z"/><path class="cls-9" d="M474.91,211.24a4.83,4.83,0,0,1-3.83-1.62,6.15,6.15,0,0,1-1.43-4.21v-.47a6,6,0,0,1,1.47-4.14,4.51,4.51,0,0,1,3.47-1.66,4.34,4.34,0,0,1,3.52,1.43,5.67,5.67,0,0,1,1.2,3.79v1.32h-7.48l0,.06a4.62,4.62,0,0,0,.84,2.76,2.68,2.68,0,0,0,2.27,1.08,5.13,5.13,0,0,0,1.87-.31,4.24,4.24,0,0,0,1.39-.84l.82,1.38a4.93,4.93,0,0,1-1.64,1A6.35,6.35,0,0,1,474.91,211.24Zm-.32-10.43a2.26,2.26,0,0,0-1.8.9,4.23,4.23,0,0,0-.92,2.26l0,.05h5.32v-.28a3.29,3.29,0,0,0-.66-2.09A2.34,2.34,0,0,0,474.59,200.81Z"/><path class="cls-9" d="M486.56,209.58a2.83,2.83,0,0,0,1.83-.65,2,2,0,0,0,.8-1.6h1.88l0,.06a3.3,3.3,0,0,1-1.33,2.68,4.81,4.81,0,0,1-3.21,1.17,4.64,4.64,0,0,1-3.85-1.66,6.48,6.48,0,0,1-1.32-4.17V205a6.41,6.41,0,0,1,1.33-4.15,4.64,4.64,0,0,1,3.84-1.67,6.3,6.3,0,0,1,2.48.47,5,5,0,0,1,1.83,1.27l.1,2.58h-1.68l-.45-1.83a2.84,2.84,0,0,0-1-.59,3.65,3.65,0,0,0-1.32-.23,2.51,2.51,0,0,0-2.36,1.2,5.68,5.68,0,0,0-.71,3v.45a5.77,5.77,0,0,0,.7,3A2.54,2.54,0,0,0,486.56,209.58Zm.08,1.53-.13.56a2.05,2.05,0,0,1,1.15.56,1.7,1.7,0,0,1,.46,1.3,1.94,1.94,0,0,1-.84,1.65,4,4,0,0,1-2.41.61l-.07-1.17a2.55,2.55,0,0,0,1.23-.26.86.86,0,0,0,.46-.8.76.76,0,0,0-.38-.72,3.79,3.79,0,0,0-1.31-.28l.34-1.45Z"/><path class="cls-9" d="M500.66,211c-.06-.31-.11-.6-.14-.85s-.06-.5-.08-.75a5.1,5.1,0,0,1-1.52,1.31,3.92,3.92,0,0,1-1.94.52,3.84,3.84,0,0,1-2.74-.89,3.26,3.26,0,0,1-.94-2.5,2.9,2.9,0,0,1,1.33-2.56,6.4,6.4,0,0,1,3.64-.9h2.16V203a2.1,2.1,0,0,0-.64-1.62,2.51,2.51,0,0,0-1.78-.6,4.23,4.23,0,0,0-1.39.21,2.53,2.53,0,0,0-1,.56l-.23,1.23H493.8v-2.26a6,6,0,0,1,1.91-1,7.37,7.37,0,0,1,2.43-.39,4.73,4.73,0,0,1,3.17,1,3.55,3.55,0,0,1,1.22,2.89v6.06l0,.43.85.12V211Zm1-16.36a2.45,2.45,0,0,1-.64,1.72,2.07,2.07,0,0,1-1.59.7,3.1,3.1,0,0,1-1.58-.5,2.71,2.71,0,0,0-1.36-.5,1,1,0,0,0-.76.35,1.2,1.2,0,0,0-.32.84l-1.14-.28a2.59,2.59,0,0,1,.63-1.74,2,2,0,0,1,1.59-.74A3.17,3.17,0,0,1,498,195a3.19,3.19,0,0,0,1.45.51,1,1,0,0,0,.76-.35,1.25,1.25,0,0,0,.32-.86Zm-4.42,14.81a3.74,3.74,0,0,0,1.9-.5,3.16,3.16,0,0,0,1.24-1.22v-1.92h-2.24a3.18,3.18,0,0,0-2,.6,1.83,1.83,0,0,0-.75,1.47,1.47,1.47,0,0,0,.47,1.17A2.11,2.11,0,0,0,497.29,209.46Z"/><path class="cls-9" d="M505.17,205.08a6.44,6.44,0,0,1,1.39-4.26,4.6,4.6,0,0,1,3.76-1.68,4.68,4.68,0,0,1,3.78,1.67,6.5,6.5,0,0,1,1.39,4.27v.24a6.4,6.4,0,0,1-1.39,4.26,5.1,5.1,0,0,1-7.54,0,6.38,6.38,0,0,1-1.39-4.25Zm2.1.24a5.59,5.59,0,0,0,.77,3.05,2.55,2.55,0,0,0,2.3,1.21,2.52,2.52,0,0,0,2.27-1.21,5.5,5.5,0,0,0,.78-3.05v-.24a5.55,5.55,0,0,0-.78-3.05,2.55,2.55,0,0,0-2.29-1.22A2.52,2.52,0,0,0,508,202a5.63,5.63,0,0,0-.77,3.05Z"/><path class="cls-9" d="M522.52,209.66l1.74-.31V201l-1.74-.3v-1.37h3.61l.15,1.73a4.3,4.3,0,0,1,1.45-1.43,3.81,3.81,0,0,1,2-.52,3.72,3.72,0,0,1,2.89,1.11,4.88,4.88,0,0,1,1,3.41v5.69l1.74.31V211h-5.57v-1.35l1.74-.31V203.7a3.18,3.18,0,0,0-.61-2.19,2.39,2.39,0,0,0-1.84-.64,3,3,0,0,0-1.6.44,3.17,3.17,0,0,0-1.11,1.21v6.83l1.73.31V211h-5.57Z"/><path class="cls-9" d="M536.78,205.08a6.49,6.49,0,0,1,1.38-4.26,5.08,5.08,0,0,1,7.54,0,6.45,6.45,0,0,1,1.39,4.27v.24a6.45,6.45,0,0,1-1.38,4.26,4.63,4.63,0,0,1-3.76,1.66,4.68,4.68,0,0,1-3.79-1.67,6.43,6.43,0,0,1-1.38-4.25Zm2.1.24a5.59,5.59,0,0,0,.77,3.05,2.76,2.76,0,0,0,4.57,0,5.5,5.5,0,0,0,.78-3.05v-.24a5.55,5.55,0,0,0-.78-3.05,2.55,2.55,0,0,0-2.29-1.22,2.52,2.52,0,0,0-2.28,1.22,5.55,5.55,0,0,0-.77,3.05Z"/><path class="cls-9" d="M549,200.73v-1.37h3.61l.21,1.69a4.06,4.06,0,0,1,1.21-1.4,2.75,2.75,0,0,1,1.64-.51,4.38,4.38,0,0,1,.51,0,3.46,3.46,0,0,1,.4.08l-.28,2-1.19-.06a2.41,2.41,0,0,0-1.4.39,2.58,2.58,0,0,0-.87,1.11v6.68l1.74.31V211H549v-1.35l1.74-.31V201Z"/><path class="cls-9" d="M557.84,205.08a6.49,6.49,0,0,1,1.38-4.26,4.62,4.62,0,0,1,3.76-1.68,4.68,4.68,0,0,1,3.78,1.67,6.45,6.45,0,0,1,1.39,4.27v.24a6.45,6.45,0,0,1-1.38,4.26,5.11,5.11,0,0,1-7.55,0,6.43,6.43,0,0,1-1.38-4.25Zm2.1.24a5.5,5.5,0,0,0,.77,3.05,2.75,2.75,0,0,0,4.56,0,5.5,5.5,0,0,0,.78-3.05v-.24a5.55,5.55,0,0,0-.78-3.05,2.75,2.75,0,0,0-4.57,0,5.63,5.63,0,0,0-.76,3.05Z"/><path class="cls-9" d="M575.33,211.24a4.85,4.85,0,0,1-3.83-1.62,6.15,6.15,0,0,1-1.42-4.21v-.47a6,6,0,0,1,1.47-4.14,4.49,4.49,0,0,1,3.46-1.66,4.36,4.36,0,0,1,3.53,1.43,5.71,5.71,0,0,1,1.19,3.79v1.32h-7.48l0,.06a4.62,4.62,0,0,0,.84,2.76,2.68,2.68,0,0,0,2.27,1.08,5.09,5.09,0,0,0,1.87-.31,4.14,4.14,0,0,0,1.39-.84l.82,1.38a4.88,4.88,0,0,1-1.63,1A6.4,6.4,0,0,1,575.33,211.24ZM575,200.81a2.27,2.27,0,0,0-1.8.9,4.3,4.3,0,0,0-.91,2.26l0,.05h5.32v-.28a3.29,3.29,0,0,0-.67-2.09A2.34,2.34,0,0,0,575,200.81Z"/><path class="cls-9" d="M590.63,203h-1.58l-.34-1.4a2.82,2.82,0,0,0-1-.58,3.6,3.6,0,0,0-1.31-.23,2.43,2.43,0,0,0-1.67.5,1.56,1.56,0,0,0-.54,1.19,1.33,1.33,0,0,0,.48,1.09,4.91,4.91,0,0,0,1.95.71,8.42,8.42,0,0,1,3.25,1.29,2.61,2.61,0,0,1,1.07,2.18,3,3,0,0,1-1.24,2.51,5.19,5.19,0,0,1-3.25,1,8.23,8.23,0,0,1-2.36-.31,6.16,6.16,0,0,1-1.86-.89v-2.66h1.58l.39,1.56a2.1,2.1,0,0,0,1,.49,5.38,5.38,0,0,0,1.27.15,2.89,2.89,0,0,0,1.75-.46,1.39,1.39,0,0,0,.64-1.2,1.46,1.46,0,0,0-.53-1.15,5.06,5.06,0,0,0-2-.79,8.35,8.35,0,0,1-3.16-1.26,2.55,2.55,0,0,1-1.07-2.15,3,3,0,0,1,1.2-2.42,4.7,4.7,0,0,1,3.12-1,7.44,7.44,0,0,1,2.35.35,4.85,4.85,0,0,1,1.74,1Z"/><path class="cls-9" d="M596.59,196.55v2.81h2.19v1.57h-2.19V208a1.57,1.57,0,0,0,.34,1.15,1.21,1.21,0,0,0,.89.33,4.8,4.8,0,0,0,.62,0c.23,0,.43-.07.58-.11l.29,1.46a2.62,2.62,0,0,1-.87.31,5.09,5.09,0,0,1-1.16.13,2.69,2.69,0,0,1-2-.78,3.39,3.39,0,0,1-.76-2.45v-7.08h-1.82v-1.57h1.82v-2.81Z"/><path class="cls-9" d="M606.18,211.24a4.85,4.85,0,0,1-3.83-1.62,6.15,6.15,0,0,1-1.42-4.21v-.47a6,6,0,0,1,1.47-4.14,4.49,4.49,0,0,1,3.46-1.66,4.36,4.36,0,0,1,3.53,1.43,5.71,5.71,0,0,1,1.19,3.79v1.32H603.1l0,.06a4.62,4.62,0,0,0,.84,2.76,2.68,2.68,0,0,0,2.27,1.08,5.09,5.09,0,0,0,1.87-.31,4.14,4.14,0,0,0,1.39-.84l.82,1.38a4.88,4.88,0,0,1-1.63,1A6.4,6.4,0,0,1,606.18,211.24Zm-.32-10.43a2.27,2.27,0,0,0-1.8.9,4.23,4.23,0,0,0-.91,2.26l0,.05h5.31v-.28a3.29,3.29,0,0,0-.66-2.09A2.34,2.34,0,0,0,605.86,200.81Z"/><path class="cls-9" d="M614.71,211h-1.46v-1.76h1.46Z"/><path class="cls-9" d="M633.69,200h-1.05l-.18-2.22a3.79,3.79,0,0,0-1.56-1.15,6,6,0,0,0-2.33-.41,4.75,4.75,0,0,0-3,.84,2.56,2.56,0,0,0-1.07,2.08,2.45,2.45,0,0,0,1,2,8.83,8.83,0,0,0,3.34,1.39,9.81,9.81,0,0,1,3.81,1.75,3.6,3.6,0,0,1,1.3,2.9,3.51,3.51,0,0,1-1.51,3,6.38,6.38,0,0,1-3.87,1.11,8,8,0,0,1-3.08-.59,5.93,5.93,0,0,1-2.33-1.69v-2.75h1l.18,2.29a4.45,4.45,0,0,0,1.8,1.23,6.67,6.67,0,0,0,2.39.42,5,5,0,0,0,3-.82,2.55,2.55,0,0,0,1.13-2.16,2.62,2.62,0,0,0-.95-2.1,8.59,8.59,0,0,0-3.3-1.43,10.58,10.58,0,0,1-3.86-1.68,3.38,3.38,0,0,1-1.31-2.79,3.52,3.52,0,0,1,1.49-2.93,6.18,6.18,0,0,1,3.85-1.13,7.24,7.24,0,0,1,3,.59,5.21,5.21,0,0,1,2.1,1.6Z"/><path class="cls-9" d="M641.09,211.24a4.61,4.61,0,0,1-3.6-1.61,6,6,0,0,1-1.43-4.1v-.59a6.12,6.12,0,0,1,1.43-4.15,4.36,4.36,0,0,1,3.43-1.65,4.27,4.27,0,0,1,3.34,1.36,5.23,5.23,0,0,1,1.21,3.62v1.1h-8.14v.31a5.2,5.2,0,0,0,1,3.29,3.28,3.28,0,0,0,2.72,1.33,5.57,5.57,0,0,0,2-.33,4.23,4.23,0,0,0,1.44-1l.54.88a4.58,4.58,0,0,1-1.64,1.09A6.25,6.25,0,0,1,641.09,211.24Zm-.17-11a3,3,0,0,0-2.37,1.1,4.68,4.68,0,0,0-1.12,2.74l0,0h6.75v-.32a3.74,3.74,0,0,0-.88-2.54A3,3,0,0,0,640.92,200.24Z"/><path class="cls-9" d="M658.14,211.24a4.61,4.61,0,0,1-3.6-1.61,6,6,0,0,1-1.43-4.1v-.59a6.12,6.12,0,0,1,1.43-4.15,4.36,4.36,0,0,1,3.43-1.65,4.27,4.27,0,0,1,3.34,1.36,5.23,5.23,0,0,1,1.21,3.62v1.1h-8.14v.31a5.2,5.2,0,0,0,1,3.29,3.28,3.28,0,0,0,2.72,1.33,5.57,5.57,0,0,0,2-.33,4.23,4.23,0,0,0,1.44-1l.54.88a4.58,4.58,0,0,1-1.64,1.09A6.25,6.25,0,0,1,658.14,211.24Zm-.17-11a3,3,0,0,0-2.37,1.1,4.68,4.68,0,0,0-1.12,2.74l0,0h6.75v-.32a3.74,3.74,0,0,0-.88-2.54A3,3,0,0,0,658,200.24Z"/><path class="cls-9" d="M673.17,203h-1l-.14-1.65a3.39,3.39,0,0,0-1.21-.79,4.85,4.85,0,0,0-1.68-.28,3.17,3.17,0,0,0-2.1.61,1.87,1.87,0,0,0-.7,1.43,1.69,1.69,0,0,0,.61,1.33,5.74,5.74,0,0,0,2.4.93,7.75,7.75,0,0,1,3.08,1.27,2.62,2.62,0,0,1,1,2.18,2.84,2.84,0,0,1-1.16,2.35,4.93,4.93,0,0,1-3.09.9,7.16,7.16,0,0,1-2.33-.36,5.43,5.43,0,0,1-1.81-1v-2.35h1l.18,1.66a3,3,0,0,0,1.3.75,5.84,5.84,0,0,0,1.63.23,3.54,3.54,0,0,0,2.19-.61,1.83,1.83,0,0,0,.79-1.49,1.89,1.89,0,0,0-.66-1.43,5.44,5.44,0,0,0-2.41-1,8,8,0,0,1-3-1.2,2.48,2.48,0,0,1-1-2.1,2.79,2.79,0,0,1,1.12-2.25,4.44,4.44,0,0,1,3-.93,6.59,6.59,0,0,1,2.31.4,4.57,4.57,0,0,1,1.71,1.06Z"/><path class="cls-9" d="M678.66,196.38v3h2.53v1.06h-2.53V208a2.46,2.46,0,0,0,.41,1.62,1.35,1.35,0,0,0,1.09.48l.6,0,.68-.09.19,1a3.36,3.36,0,0,1-.78.21,5.59,5.59,0,0,1-.91.08,2.39,2.39,0,0,1-1.9-.78,3.66,3.66,0,0,1-.67-2.45v-7.59h-2v-1.06h2v-3Z"/><path class="cls-9" d="M683.45,210.06l1.74-.14v-9.46l-1.74-.14v-1h3v10.56l1.73.14V211h-4.74Zm3-14h-1.27v-1.81h1.27Z"/><path class="cls-9" d="M693.68,200.32l-1.44.11,2.88,7.66.37,1.37h.07l.4-1.37,2.84-7.66-1.44-.11v-1h3.88v1l-1.13.1L696,211h-1l-4.08-10.59-1.13-.1v-1h3.88Z"/><path class="cls-9" d="M707.59,211.24a4.61,4.61,0,0,1-3.6-1.61,5.92,5.92,0,0,1-1.43-4.1v-.59a6.11,6.11,0,0,1,1.42-4.15,4.4,4.4,0,0,1,3.44-1.65,4.26,4.26,0,0,1,3.33,1.36,5.23,5.23,0,0,1,1.22,3.62v1.1h-8.14v.31a5.14,5.14,0,0,0,1,3.29,3.28,3.28,0,0,0,2.72,1.33,5.51,5.51,0,0,0,2-.33,4.14,4.14,0,0,0,1.44-1l.55.88a4.62,4.62,0,0,1-1.65,1.09A6.19,6.19,0,0,1,707.59,211.24Zm-.17-11a3,3,0,0,0-2.37,1.1,4.69,4.69,0,0,0-1.13,2.74l0,0h6.76v-.32a3.74,3.74,0,0,0-.88-2.54A3,3,0,0,0,707.42,200.24Z"/><path class="cls-9" d="M717,199.36l.16,1.94v.14a4.14,4.14,0,0,1,1.34-1.69,3.37,3.37,0,0,1,2-.61,3.57,3.57,0,0,1,.47,0l.38.08-.17,1.21-1-.06a2.87,2.87,0,0,0-2,.68,3.82,3.82,0,0,0-1.1,1.88v6.95l1.74.14V211h-4.75v-.95l1.74-.14v-9.46l-1.74-.14v-1H717Z"/><path class="cls-9" d="M722.74,200.32v-1h2.87l.12,1.93a4,4,0,0,1,1.48-1.58,4.12,4.12,0,0,1,2.2-.57,3.35,3.35,0,0,1,3.48,2.64,4.53,4.53,0,0,1,1.48-1.93,3.9,3.9,0,0,1,2.35-.71,3.48,3.48,0,0,1,2.85,1.24,6,6,0,0,1,1,3.84v5.69l1.74.15V211h-4.76v-.95l1.73-.15V204.2a4.8,4.8,0,0,0-.75-3,2.6,2.6,0,0,0-2.09-.89,2.83,2.83,0,0,0-2.3,1,4.65,4.65,0,0,0-1,2.45c0,.06,0,.11,0,.16v6.09l1.74.14V211h-4.75v-.95l1.74-.14V204.2a4.73,4.73,0,0,0-.77-3,2.58,2.58,0,0,0-2.09-.91,3.19,3.19,0,0,0-2.16.7,3.67,3.67,0,0,0-1.11,1.87v7.09l1.74.14V211h-4.76v-.95l1.74-.14v-9.46Z"/><path class="cls-9" d="M743.79,205a6.27,6.27,0,0,1,1.4-4.22,5,5,0,0,1,7.4,0A6.32,6.32,0,0,1,754,205v.36a6.38,6.38,0,0,1-1.39,4.23,5,5,0,0,1-7.41,0,6.28,6.28,0,0,1-1.4-4.23Zm1.28.36a5.55,5.55,0,0,0,1,3.4,3.55,3.55,0,0,0,5.62,0,5.62,5.62,0,0,0,1-3.4V205a5.58,5.58,0,0,0-1-3.38,3.53,3.53,0,0,0-5.61,0,5.57,5.57,0,0,0-1,3.38Z"/><path class="cls-9" d="M764.43,203h-1l-.15-1.65a3.3,3.3,0,0,0-1.21-.79,4.85,4.85,0,0,0-1.68-.28,3.12,3.12,0,0,0-2.09.61,1.84,1.84,0,0,0-.7,1.43,1.69,1.69,0,0,0,.6,1.33,5.74,5.74,0,0,0,2.4.93,7.75,7.75,0,0,1,3.08,1.27,2.63,2.63,0,0,1,1,2.18,2.82,2.82,0,0,1-1.17,2.35,4.93,4.93,0,0,1-3.09.9,7.16,7.16,0,0,1-2.33-.36,5.53,5.53,0,0,1-1.81-1v-2.35h1l.18,1.66a3.1,3.1,0,0,0,1.3.75,5.89,5.89,0,0,0,1.63.23,3.52,3.52,0,0,0,2.19-.61,1.84,1.84,0,0,0,.8-1.49,1.87,1.87,0,0,0-.67-1.43,5.34,5.34,0,0,0-2.4-1,8.1,8.1,0,0,1-3.06-1.2,2.48,2.48,0,0,1-1-2.1,2.79,2.79,0,0,1,1.12-2.25,4.46,4.46,0,0,1,3-.93,6.64,6.64,0,0,1,2.32.4,4.57,4.57,0,0,1,1.71,1.06Z"/><path class="cls-9" d="M772.06,210.06l1.74-.14v-9.46l-1.74-.14v-1h2.87l.11,2a4,4,0,0,1,3.73-2.26,3.54,3.54,0,0,1,2.86,1.16,5.55,5.55,0,0,1,1,3.62v6l1.74.14V211h-4.76v-.95l1.74-.14v-6a4.3,4.3,0,0,0-.74-2.84,2.67,2.67,0,0,0-2.1-.83,3.25,3.25,0,0,0-2.19.72,3.9,3.9,0,0,0-1.22,1.9v7l1.73.14V211h-4.75Z"/><path class="cls-9" d="M786.24,205a6.32,6.32,0,0,1,1.4-4.22,5,5,0,0,1,7.41,0,6.31,6.31,0,0,1,1.39,4.22v.36a6.32,6.32,0,0,1-1.39,4.23,5,5,0,0,1-7.41,0,6.33,6.33,0,0,1-1.4-4.23Zm1.28.36a5.55,5.55,0,0,0,1,3.4,3.54,3.54,0,0,0,5.61,0,5.55,5.55,0,0,0,1-3.4V205a5.64,5.64,0,0,0-1-3.38,3.31,3.31,0,0,0-2.81-1.39,3.27,3.27,0,0,0-2.8,1.39,5.58,5.58,0,0,0-1,3.38Z"/><path class="cls-9" d="M414.07,236.61a3.6,3.6,0,0,0,2.24-.73,2.41,2.41,0,0,0,1-2h1.13l0,.06a3.22,3.22,0,0,1-1.27,2.7,4.73,4.73,0,0,1-3.09,1.09,4.36,4.36,0,0,1-3.63-1.63,6.55,6.55,0,0,1-1.29-4.19v-.46a6.53,6.53,0,0,1,1.29-4.17,4.32,4.32,0,0,1,3.62-1.64,5.76,5.76,0,0,1,2.44.51,4.69,4.69,0,0,1,1.8,1.37l.05,2.54h-1.08l-.21-2.06a3.5,3.5,0,0,0-1.27-.92,4.14,4.14,0,0,0-1.73-.34,3,3,0,0,0-2.74,1.34,5.91,5.91,0,0,0-.89,3.37v.46a6,6,0,0,0,.88,3.4A3.07,3.07,0,0,0,414.07,236.61Z"/><path class="cls-9" d="M428.77,237.48a9,9,0,0,1-.18-1,6.15,6.15,0,0,1-.06-.87,5.11,5.11,0,0,1-1.7,1.52,4.8,4.8,0,0,1-2.4.6,3.64,3.64,0,0,1-2.62-.88,3.15,3.15,0,0,1-.93-2.39,3,3,0,0,1,1.38-2.56,6.37,6.37,0,0,1,3.72-1h2.55v-1.54a2.49,2.49,0,0,0-.79-2,3.19,3.19,0,0,0-2.22-.71,5.75,5.75,0,0,0-1.76.26,4,4,0,0,0-1.32.72l-.11,1.56h-1.06l0-2.24a6.3,6.3,0,0,1,1.91-1,7.1,7.1,0,0,1,2.37-.39,4.63,4.63,0,0,1,3.07,1,3.48,3.48,0,0,1,1.16,2.81v5.73c0,.24,0,.46,0,.68a4.48,4.48,0,0,0,.07.64l1.15.08v.95Zm-4.2-.92a4.61,4.61,0,0,0,2.44-.65,3.78,3.78,0,0,0,1.52-1.66v-2.34H426a4.78,4.78,0,0,0-2.77.72,2.17,2.17,0,0,0-1,1.84,1.91,1.91,0,0,0,.64,1.51A2.54,2.54,0,0,0,424.57,236.56Z"/><path class="cls-9" d="M432.57,226.78v-1h2.87l.11,1.93a4.06,4.06,0,0,1,1.49-1.58,4.18,4.18,0,0,1,2.2-.56,3.66,3.66,0,0,1,2.21.65,3.62,3.62,0,0,1,1.27,2,4.48,4.48,0,0,1,1.48-1.94,3.89,3.89,0,0,1,2.35-.7,3.45,3.45,0,0,1,2.85,1.24,6,6,0,0,1,1,3.83v5.7l1.74.15v.95h-4.77v-.95l1.74-.15v-5.72a4.74,4.74,0,0,0-.75-3,2.58,2.58,0,0,0-2.1-.89,2.83,2.83,0,0,0-2.29,1,4.61,4.61,0,0,0-1,2.44.81.81,0,0,0,0,.16v6.1l1.74.14v.95H440v-.95l1.73-.14v-5.73a4.71,4.71,0,0,0-.76-3,2.57,2.57,0,0,0-2.09-.91,3.18,3.18,0,0,0-2.16.69,3.71,3.71,0,0,0-1.11,1.87v7.1l1.73.14v.95h-4.75v-.95l1.74-.14v-9.47Z"/><path class="cls-9" d="M453.64,236.53l1.74-.14v-9.47l-1.74-.14v-1h3v10.57l1.74.14v.95h-4.74Zm3-14h-1.26v-1.81h1.26Z"/><path class="cls-9" d="M460.29,236.53l1.73-.14v-9.47l-1.73-.14v-1h2.86l.12,2a4.1,4.1,0,0,1,1.5-1.66,4.06,4.06,0,0,1,2.23-.59,3.56,3.56,0,0,1,2.86,1.16,5.52,5.52,0,0,1,1,3.61v6l1.73.14v.95h-4.75v-.95l1.74-.14v-6a4.25,4.25,0,0,0-.74-2.83,2.67,2.67,0,0,0-2.11-.83,3.28,3.28,0,0,0-2.19.72,4,4,0,0,0-1.22,1.9v7l1.74.14v.95h-4.75Z"/><path class="cls-9" d="M474.21,221.64v-1h3v7.14a4.09,4.09,0,0,1,3.77-2.21,3.48,3.48,0,0,1,2.8,1.14,5.36,5.36,0,0,1,1,3.54v6.1l1.73.14v.95h-4.75v-.95l1.74-.14v-6.12a4.06,4.06,0,0,0-.74-2.72,2.62,2.62,0,0,0-2.05-.82,3.41,3.41,0,0,0-2.18.69,4.08,4.08,0,0,0-1.3,1.85v7.12l1.74.14v.95h-4.74v-.95l1.73-.14V221.78Z"/><path class="cls-9" d="M488.3,231.48a6.28,6.28,0,0,1,1.4-4.22,5,5,0,0,1,7.41,0,6.28,6.28,0,0,1,1.39,4.22v.35a6.3,6.3,0,0,1-1.39,4.23,5,5,0,0,1-7.41,0,6.31,6.31,0,0,1-1.4-4.23Zm1.28.35a5.59,5.59,0,0,0,1,3.41,3.56,3.56,0,0,0,5.61,0,5.58,5.58,0,0,0,1-3.41v-.35a5.6,5.6,0,0,0-1-3.38,3.29,3.29,0,0,0-2.81-1.39,3.25,3.25,0,0,0-2.8,1.39,5.54,5.54,0,0,0-1,3.38Z"/><path class="cls-9" d="M510.81,236.61a3.6,3.6,0,0,0,2.24-.73,2.41,2.41,0,0,0,1-2h1.13l0,.06a3.22,3.22,0,0,1-1.27,2.7,4.73,4.73,0,0,1-3.09,1.09,4.36,4.36,0,0,1-3.63-1.63,6.55,6.55,0,0,1-1.29-4.19v-.46a6.53,6.53,0,0,1,1.29-4.17,4.32,4.32,0,0,1,3.62-1.64,5.76,5.76,0,0,1,2.44.51,4.69,4.69,0,0,1,1.8,1.37l.05,2.54H514L513.8,228a3.5,3.5,0,0,0-1.27-.92,4.14,4.14,0,0,0-1.73-.34,3,3,0,0,0-2.74,1.34,5.91,5.91,0,0,0-.89,3.37v.46a6,6,0,0,0,.88,3.4A3.07,3.07,0,0,0,510.81,236.61Z"/><path class="cls-9" d="M522.63,237.7a4.58,4.58,0,0,1-3.6-1.61,5.91,5.91,0,0,1-1.43-4.1v-.59a6.09,6.09,0,0,1,1.42-4.14,4.38,4.38,0,0,1,3.44-1.65,4.23,4.23,0,0,1,3.33,1.36,5.21,5.21,0,0,1,1.22,3.61v1.1h-8.14V232a5.12,5.12,0,0,0,1,3.29,3.28,3.28,0,0,0,2.72,1.33,5.51,5.51,0,0,0,2-.33,4,4,0,0,0,1.44-1l.55.89A4.85,4.85,0,0,1,525,237.3,6.23,6.23,0,0,1,522.63,237.7Zm-.17-11a3,3,0,0,0-2.37,1.09,4.69,4.69,0,0,0-1.13,2.74l0,.05h6.76v-.32a3.75,3.75,0,0,0-.89-2.54A3,3,0,0,0,522.46,226.71Z"/><path class="cls-9" d="M532.05,225.82l.16,1.94v.14a4,4,0,0,1,1.34-1.68,3.3,3.3,0,0,1,2-.61,2.45,2.45,0,0,1,.48,0,2.49,2.49,0,0,1,.38.08l-.17,1.2-1-.06a2.9,2.9,0,0,0-2,.68,3.82,3.82,0,0,0-1.1,1.88v7l1.73.14v.95H529.2v-.95l1.74-.14v-9.47l-1.74-.14v-1h2.85Z"/><path class="cls-9" d="M541.33,222.84v3h2.54v1.06h-2.54v7.59a2.52,2.52,0,0,0,.41,1.62,1.36,1.36,0,0,0,1.09.48,6.08,6.08,0,0,0,.61,0,4.79,4.79,0,0,0,.67-.09l.19,1a3.33,3.33,0,0,1-.78.22,5.58,5.58,0,0,1-.91.07,2.39,2.39,0,0,1-1.89-.77,3.71,3.71,0,0,1-.68-2.46v-7.59h-2v-1.06h2v-3Z"/><path class="cls-9" d="M546,231.48a6.28,6.28,0,0,1,1.39-4.22,5,5,0,0,1,7.41,0,6.28,6.28,0,0,1,1.4,4.22v.35a6.36,6.36,0,0,1-1.39,4.23,5,5,0,0,1-7.42,0,6.3,6.3,0,0,1-1.39-4.23Zm1.28.35a5.58,5.58,0,0,0,1,3.41,3.32,3.32,0,0,0,2.82,1.37,3.27,3.27,0,0,0,2.79-1.37,5.59,5.59,0,0,0,1-3.41v-.35a5.54,5.54,0,0,0-1-3.38,3.53,3.53,0,0,0-5.61,0,5.53,5.53,0,0,0-1,3.38Z"/><path class="cls-9" d="M560.13,237a4.89,4.89,0,0,1-.4,1.94,4.78,4.78,0,0,1-1.09,1.6l-.76-.56a5.64,5.64,0,0,0,.74-1.41,4.76,4.76,0,0,0,.24-1.55v-1.53h1.27Z"/><path class="cls-9" d="M572.68,236.61a3.6,3.6,0,0,0,2.24-.73,2.39,2.39,0,0,0,1-2H577l0,.06a3.19,3.19,0,0,1-1.27,2.7,4.73,4.73,0,0,1-3.09,1.09,4.36,4.36,0,0,1-3.63-1.63,6.55,6.55,0,0,1-1.29-4.19v-.46a6.53,6.53,0,0,1,1.29-4.17,4.33,4.33,0,0,1,3.62-1.64,5.76,5.76,0,0,1,2.44.51,4.69,4.69,0,0,1,1.8,1.37L577,230h-1.09l-.2-2.06a3.53,3.53,0,0,0-1.28-.92,4.11,4.11,0,0,0-1.73-.34,3,3,0,0,0-2.74,1.34,5.91,5.91,0,0,0-.89,3.37v.46a6,6,0,0,0,.88,3.4A3.07,3.07,0,0,0,572.68,236.61Z"/><path class="cls-9" d="M579,221.64v-1h3v7.14a4.09,4.09,0,0,1,3.77-2.21,3.48,3.48,0,0,1,2.8,1.14,5.36,5.36,0,0,1,1,3.54v6.1l1.74.14v.95h-4.75v-.95l1.73-.14v-6.12a4,4,0,0,0-.74-2.72,2.59,2.59,0,0,0-2-.82,3.45,3.45,0,0,0-2.19.69,4.14,4.14,0,0,0-1.29,1.85v7.12l1.74.14v.95H579v-.95l1.74-.14V221.78Z"/><path class="cls-9" d="M598.23,237.7a4.61,4.61,0,0,1-3.61-1.61,6,6,0,0,1-1.42-4.1v-.59a6.09,6.09,0,0,1,1.42-4.14,4.38,4.38,0,0,1,3.44-1.65,4.23,4.23,0,0,1,3.33,1.36,5.21,5.21,0,0,1,1.22,3.61v1.1h-8.15V232a5.18,5.18,0,0,0,1,3.29,3.3,3.3,0,0,0,2.73,1.33,5.55,5.55,0,0,0,2-.33,4,4,0,0,0,1.44-1l.54.89a4.71,4.71,0,0,1-1.64,1.09A6.23,6.23,0,0,1,598.23,237.7Zm-.17-11a3.06,3.06,0,0,0-2.38,1.09,4.74,4.74,0,0,0-1.12,2.74l0,.05h6.76v-.32a3.75,3.75,0,0,0-.89-2.54A3,3,0,0,0,598.06,226.71Z"/><path class="cls-9" d="M604.94,231.75a7.61,7.61,0,0,1,1.18-4.47,3.77,3.77,0,0,1,3.26-1.67,4.06,4.06,0,0,1,2.13.54,4.49,4.49,0,0,1,1.49,1.54l.15-1.87h1.07v11.51a5,5,0,0,1-1.2,3.55,4.35,4.35,0,0,1-3.36,1.3,8.73,8.73,0,0,1-1.77-.2,7.41,7.41,0,0,1-1.65-.56l.34-1.09a8.07,8.07,0,0,0,1.45.52,7,7,0,0,0,1.61.18,3.07,3.07,0,0,0,2.47-1,4,4,0,0,0,.83-2.72v-1.48a4,4,0,0,1-1.48,1.37,4.4,4.4,0,0,1-2.1.48,3.84,3.84,0,0,1-3.25-1.56,6.79,6.79,0,0,1-1.17-4.17Zm1.28.22a6,6,0,0,0,.84,3.36,2.88,2.88,0,0,0,2.54,1.25,3.56,3.56,0,0,0,2.07-.57,3.68,3.68,0,0,0,1.27-1.57V229a4.11,4.11,0,0,0-1.22-1.66,3.27,3.27,0,0,0-2.1-.64,2.79,2.79,0,0,0-2.54,1.4,6.76,6.76,0,0,0-.86,3.62Z"/><path class="cls-9" d="M625.08,237.48a9,9,0,0,1-.18-1,6.17,6.17,0,0,1,0-.87,5.15,5.15,0,0,1-1.71,1.52,4.8,4.8,0,0,1-2.4.6,3.64,3.64,0,0,1-2.62-.88,3.15,3.15,0,0,1-.93-2.39,3,3,0,0,1,1.38-2.56,6.4,6.4,0,0,1,3.73-1h2.55v-1.54a2.5,2.5,0,0,0-.8-2,3.19,3.19,0,0,0-2.22-.71,5.69,5.69,0,0,0-1.75.26,4,4,0,0,0-1.33.72l-.11,1.56h-1V227a6.3,6.3,0,0,1,1.91-1,7.1,7.1,0,0,1,2.37-.39,4.62,4.62,0,0,1,3.07,1,3.45,3.45,0,0,1,1.16,2.81v5.73c0,.24,0,.46,0,.68a4.48,4.48,0,0,0,.07.64l1.15.08v.95Zm-4.2-.92a4.59,4.59,0,0,0,2.44-.65,3.87,3.87,0,0,0,1.53-1.66v-2.34h-2.57a4.79,4.79,0,0,0-2.78.72,2.19,2.19,0,0,0-1,1.84,1.92,1.92,0,0,0,.65,1.51A2.53,2.53,0,0,0,620.88,236.56Z"/><path class="cls-9" d="M631.92,225.82l.16,1.94v.14a4,4,0,0,1,1.34-1.68,3.31,3.31,0,0,1,2-.61,2.42,2.42,0,0,1,.47,0,2.49,2.49,0,0,1,.38.08l-.17,1.2-1-.06a2.92,2.92,0,0,0-2,.68,3.82,3.82,0,0,0-1.1,1.88v7l1.74.14v.95h-4.74v-.95l1.73-.14v-9.47l-1.73-.14v-1h2.84Z"/><path class="cls-9" d="M642.81,237.7a4.58,4.58,0,0,1-3.6-1.61,6,6,0,0,1-1.43-4.1v-.59a6.14,6.14,0,0,1,1.42-4.14,4.4,4.4,0,0,1,3.44-1.65A4.23,4.23,0,0,1,646,227a5.2,5.2,0,0,1,1.21,3.61v1.1h-8.14V232a5.18,5.18,0,0,0,1,3.29,3.28,3.28,0,0,0,2.72,1.33,5.61,5.61,0,0,0,2-.33,3.84,3.84,0,0,0,1.43-1l.55.89a4.71,4.71,0,0,1-1.64,1.09A6.25,6.25,0,0,1,642.81,237.7Zm-.17-11a3,3,0,0,0-2.37,1.09,4.68,4.68,0,0,0-1.12,2.74l0,.05h6.75v-.32a3.74,3.74,0,0,0-.88-2.54A3,3,0,0,0,642.64,226.71Z"/><path class="cls-9" d="M649.19,226.78v-1h2.87l.12,1.93a4,4,0,0,1,1.48-1.58,4.22,4.22,0,0,1,2.21-.56,3.32,3.32,0,0,1,3.47,2.64,4.5,4.5,0,0,1,1.49-1.94,3.85,3.85,0,0,1,2.35-.7,3.48,3.48,0,0,1,2.85,1.24,6,6,0,0,1,1,3.83v5.7l1.74.15v.95H664v-.95l1.73-.15v-5.72a4.74,4.74,0,0,0-.75-3,2.57,2.57,0,0,0-2.09-.89,2.83,2.83,0,0,0-2.3,1,4.6,4.6,0,0,0-1,2.44v.16c0,.05,0,.12,0,.2v5.9l1.73.14v.95H656.6v-.95l1.74-.14v-5.73a4.77,4.77,0,0,0-.76-3,2.59,2.59,0,0,0-2.1-.91,3.18,3.18,0,0,0-2.16.69,3.71,3.71,0,0,0-1.11,1.87v7.1l1.74.14v.95h-4.76v-.95l1.74-.14v-9.47Z"/><path class="cls-9" d="M670.24,231.48a6.28,6.28,0,0,1,1.4-4.22,5,5,0,0,1,7.4,0,6.28,6.28,0,0,1,1.4,4.22v.35a6.3,6.3,0,0,1-1.39,4.23,5,5,0,0,1-7.41,0,6.31,6.31,0,0,1-1.4-4.23Zm1.28.35a5.65,5.65,0,0,0,1,3.41,3.33,3.33,0,0,0,2.83,1.37,3.3,3.3,0,0,0,2.79-1.37,5.65,5.65,0,0,0,1-3.41v-.35a5.54,5.54,0,0,0-1-3.38,3.53,3.53,0,0,0-5.61,0,5.6,5.6,0,0,0-1,3.38Z"/><path class="cls-9" d="M690.88,229.42h-1l-.15-1.65a3.2,3.2,0,0,0-1.21-.78,4.62,4.62,0,0,0-1.68-.28,3.07,3.07,0,0,0-2.09.61,1.82,1.82,0,0,0-.7,1.42,1.71,1.71,0,0,0,.6,1.34A5.76,5.76,0,0,0,687,231a7.7,7.7,0,0,1,3.07,1.27,2.6,2.6,0,0,1,1,2.18A2.82,2.82,0,0,1,690,236.8a4.92,4.92,0,0,1-3.08.9,7.12,7.12,0,0,1-2.33-.36,5.47,5.47,0,0,1-1.82-1V234h1l.19,1.65a2.87,2.87,0,0,0,1.29.75,5.56,5.56,0,0,0,1.64.23,3.49,3.49,0,0,0,2.18-.61,1.83,1.83,0,0,0,.8-1.49,1.88,1.88,0,0,0-.67-1.43,5.34,5.34,0,0,0-2.4-1,8,8,0,0,1-3-1.2,2.46,2.46,0,0,1-1-2.09,2.81,2.81,0,0,1,1.12-2.26,4.52,4.52,0,0,1,2.95-.92,6.6,6.6,0,0,1,2.32.39,4.7,4.7,0,0,1,1.71,1.06Z"/><path class="cls-9" d="M706.71,237.48a9,9,0,0,1-.18-1,6.15,6.15,0,0,1-.06-.87,5,5,0,0,1-1.7,1.52,4.8,4.8,0,0,1-2.4.6,3.64,3.64,0,0,1-2.62-.88,3.15,3.15,0,0,1-.93-2.39,3,3,0,0,1,1.38-2.56,6.4,6.4,0,0,1,3.73-1h2.54v-1.54a2.49,2.49,0,0,0-.79-2,3.19,3.19,0,0,0-2.22-.71,5.75,5.75,0,0,0-1.76.26,4.06,4.06,0,0,0-1.32.72l-.11,1.56h-1V227a6.3,6.3,0,0,1,1.91-1,7.1,7.1,0,0,1,2.37-.39,4.62,4.62,0,0,1,3.07,1,3.48,3.48,0,0,1,1.16,2.81v5.73c0,.24,0,.46,0,.68a4.48,4.48,0,0,0,.07.64l1.15.08v.95Zm-4.2-.92a4.59,4.59,0,0,0,2.44-.65,3.78,3.78,0,0,0,1.52-1.66v-2.34H703.9a4.78,4.78,0,0,0-2.77.72,2.19,2.19,0,0,0-1,1.84,1.91,1.91,0,0,0,.64,1.51A2.56,2.56,0,0,0,702.51,236.56Zm1.72-12.48H703l-2.57-2.81,0-.05h1.64Z"/><path class="cls-9" d="M719.44,226.78l-1.44.11,2.88,7.67.37,1.36h.07l.4-1.36,2.84-7.67-1.44-.11v-1H727v1l-1.13.1-4.07,10.6h-1l-4.08-10.6-1.13-.1v-1h3.88Z"/><path class="cls-9" d="M728.32,236.53l1.74-.14v-9.47l-1.74-.14v-1h3v10.57l1.74.14v.95h-4.74Zm3-14h-1.26v-1.81h1.26Z"/><path class="cls-9" d="M735,221.64v-1h3v15.71l1.74.14v.95H735v-.95l1.73-.14V221.78Z"/><path class="cls-9" d="M749.66,237.48c-.08-.4-.14-.74-.18-1a8.14,8.14,0,0,1-.05-.87,5.11,5.11,0,0,1-1.7,1.52,4.83,4.83,0,0,1-2.4.6,3.63,3.63,0,0,1-2.62-.88,3.15,3.15,0,0,1-.93-2.39,3,3,0,0,1,1.37-2.56,6.42,6.42,0,0,1,3.73-1h2.55v-1.54a2.49,2.49,0,0,0-.79-2,3.2,3.2,0,0,0-2.23-.71,5.69,5.69,0,0,0-1.75.26,4.12,4.12,0,0,0-1.33.72l-.1,1.56h-1.06V227a6.36,6.36,0,0,1,1.92-1,7.1,7.1,0,0,1,2.37-.39,4.63,4.63,0,0,1,3.07,1,3.48,3.48,0,0,1,1.16,2.81v5.73c0,.24,0,.46,0,.68s0,.43.07.64l1.15.08v.95Zm-4.19-.92a4.61,4.61,0,0,0,2.44-.65,3.78,3.78,0,0,0,1.52-1.66v-2.34h-2.57a4.76,4.76,0,0,0-2.77.72,2.17,2.17,0,0,0-1,1.84,1.91,1.91,0,0,0,.64,1.51A2.54,2.54,0,0,0,745.47,236.56Z"/><path class="cls-9" d="M767.07,235.8a4.07,4.07,0,0,1-1.48,1.41,4.42,4.42,0,0,1-2.14.49,3.82,3.82,0,0,1-3.23-1.56,6.79,6.79,0,0,1-1.17-4.17v-.22a7.68,7.68,0,0,1,1.17-4.47,3.76,3.76,0,0,1,3.26-1.67,4.08,4.08,0,0,1,2.08.51,4.19,4.19,0,0,1,1.47,1.46v-5.8l-1.73-.14v-1h3v15.71l1.74.14v.95h-2.88ZM760.34,232a5.93,5.93,0,0,0,.84,3.36,2.82,2.82,0,0,0,2.52,1.25,3.51,3.51,0,0,0,2-.56,3.61,3.61,0,0,0,1.28-1.54V229a4,4,0,0,0-1.23-1.62,3.32,3.32,0,0,0-2.08-.62,2.76,2.76,0,0,0-2.53,1.39,6.87,6.87,0,0,0-.85,3.63Z"/><path class="cls-9" d="M777.09,237.7a4.59,4.59,0,0,1-3.6-1.61,6,6,0,0,1-1.43-4.1v-.59a6.09,6.09,0,0,1,1.43-4.14,4.38,4.38,0,0,1,3.43-1.65,4.23,4.23,0,0,1,3.34,1.36,5.2,5.2,0,0,1,1.21,3.61v1.1h-8.14V232a5.18,5.18,0,0,0,1,3.29,3.28,3.28,0,0,0,2.72,1.33,5.57,5.57,0,0,0,2-.33,4,4,0,0,0,1.44-1l.54.89a4.71,4.71,0,0,1-1.64,1.09A6.25,6.25,0,0,1,777.09,237.7Zm-.17-11a3,3,0,0,0-2.37,1.09,4.68,4.68,0,0,0-1.12,2.74l0,.05h6.76v-.32a3.75,3.75,0,0,0-.89-2.54A3,3,0,0,0,776.92,226.71Z"/><path class="cls-9" d="M416,248.26a5.44,5.44,0,0,1,3.86,1.29,4.9,4.9,0,0,1,0,6.82,5.48,5.48,0,0,1-3.86,1.28h-3.29v4.63l1.73.3v1.36h-5.57v-1.36l1.74-.3V249.93l-1.74-.3v-1.37H416ZM412.71,256H416a3,3,0,0,0,2.36-.85,3.08,3.08,0,0,0,.78-2.16,3.15,3.15,0,0,0-.78-2.18,3,3,0,0,0-2.36-.87h-3.29Z"/><path class="cls-9" d="M430.33,263.94c-.06-.31-.11-.6-.15-.85s-.06-.5-.07-.75a5,5,0,0,1-1.52,1.3,4.28,4.28,0,0,1-4.68-.36,3.27,3.27,0,0,1-.94-2.51,2.89,2.89,0,0,1,1.33-2.55,6.38,6.38,0,0,1,3.64-.9h2.16V256a2.1,2.1,0,0,0-.64-1.62,2.51,2.51,0,0,0-1.78-.6,4.19,4.19,0,0,0-1.39.21,2.52,2.52,0,0,0-1,.56l-.22,1.23h-1.62v-2.27a6.19,6.19,0,0,1,1.91-1,7.29,7.29,0,0,1,2.43-.39,4.77,4.77,0,0,1,3.17,1A3.55,3.55,0,0,1,432.2,256v6l0,.43.85.12v1.36ZM427,262.39a3.67,3.67,0,0,0,1.91-.51,3.08,3.08,0,0,0,1.24-1.21v-1.92h-2.24a3.18,3.18,0,0,0-2,.6,1.82,1.82,0,0,0-.75,1.47,1.47,1.47,0,0,0,.47,1.17A2.16,2.16,0,0,0,427,262.39Z"/><path class="cls-9" d="M434.54,248.51v-1.37h3.84v15.14l1.74.3v1.36h-5.58v-1.36l1.74-.3V248.81Z"/><path class="cls-9" d="M441.42,248.51v-1.37h3.83v15.14l1.74.3v1.36h-5.57v-1.36l1.73-.3V248.81Z"/><path class="cls-9" d="M448.58,262.58l1.73-.3V254l-1.73-.3v-1.37h3.83v10l1.74.3v1.36h-5.57Zm3.83-13.27h-2.1v-2.17h2.1Z"/><path class="cls-9" d="M455.44,262.58l1.74-.3V254l-1.74-.3v-1.37h3.61l.15,1.73a4.19,4.19,0,0,1,1.44-1.43,4.2,4.2,0,0,1,4.87.59,4.88,4.88,0,0,1,1,3.41v5.69l1.74.3v1.36H462.7v-1.36l1.73-.3v-5.65a3.19,3.19,0,0,0-.6-2.19,2.39,2.39,0,0,0-1.84-.64,2.87,2.87,0,0,0-1.6.44,3.16,3.16,0,0,0-1.12,1.2v6.84l1.74.3v1.36h-5.57Z"/><path class="cls-9" d="M469.79,262.58l1.74-.3V254l-1.74-.3v-1.37h3.84v10l1.74.3v1.36h-5.58Zm3.84-13.27h-2.1v-2.17h2.1Z"/><path class="cls-9" d="M478.9,263.42a4.89,4.89,0,0,1-.4,1.94,4.68,4.68,0,0,1-1.09,1.61l-.75-.56a6,6,0,0,0,.74-1.41,4.8,4.8,0,0,0,.24-1.55v-1.53h1.26Z"/><path class="cls-9" d="M486.53,258.21a7.63,7.63,0,0,1,1.17-4.46,3.74,3.74,0,0,1,3.26-1.68,3.91,3.91,0,0,1,3.53,1.94l.13-1.72h1.12v15l1.74.14v1h-4.75v-1l1.73-.14v-4.91a3.9,3.9,0,0,1-1.47,1.3,4.33,4.33,0,0,1-2.05.46,3.82,3.82,0,0,1-3.24-1.56,6.83,6.83,0,0,1-1.17-4.17Zm1.29.23a6,6,0,0,0,.84,3.37,2.81,2.81,0,0,0,2.52,1.27,3.55,3.55,0,0,0,2-.54,3.67,3.67,0,0,0,1.27-1.5v-5.68a4.19,4.19,0,0,0-1.24-1.57,3.2,3.2,0,0,0-2-.62,2.77,2.77,0,0,0-2.53,1.41,7,7,0,0,0-.85,3.63Z"/><path class="cls-9" d="M507.2,262a4,4,0,0,1-1.49,1.59,4.31,4.31,0,0,1-2.22.56,3.48,3.48,0,0,1-2.85-1.25,6,6,0,0,1-1-3.88v-5.65l-1.43-.14v-1h2.7v6.77a5.06,5.06,0,0,0,.72,3.06,2.43,2.43,0,0,0,2,.93,3.79,3.79,0,0,0,2.31-.65,3.41,3.41,0,0,0,1.2-1.79v-7.22l-1.64-.14v-1h2.92v10.56L510,263v.95h-2.67Z"/><path class="cls-9" d="M516.94,264.17a4.61,4.61,0,0,1-3.6-1.61,5.92,5.92,0,0,1-1.43-4.1v-.59a6.11,6.11,0,0,1,1.42-4.15,4.38,4.38,0,0,1,3.44-1.65,4.26,4.26,0,0,1,3.33,1.36,5.23,5.23,0,0,1,1.22,3.62v1.1h-8.14v.31a5.14,5.14,0,0,0,1,3.29,3.26,3.26,0,0,0,2.72,1.33,5.51,5.51,0,0,0,2-.33,4.23,4.23,0,0,0,1.44-1l.54.88a4.58,4.58,0,0,1-1.64,1.09A6.23,6.23,0,0,1,516.94,264.17Zm-.17-11a3.06,3.06,0,0,0-2.37,1.09,4.72,4.72,0,0,0-1.13,2.75l0,.05h6.76v-.32a3.73,3.73,0,0,0-.89-2.54A3,3,0,0,0,516.77,253.17Z"/><path class="cls-9" d="M534,264.17a4.61,4.61,0,0,1-3.6-1.61,5.92,5.92,0,0,1-1.43-4.1v-.59a6.11,6.11,0,0,1,1.42-4.15,4.38,4.38,0,0,1,3.44-1.65,4.26,4.26,0,0,1,3.33,1.36,5.23,5.23,0,0,1,1.22,3.62v1.1h-8.14v.31a5.14,5.14,0,0,0,1,3.29,3.26,3.26,0,0,0,2.72,1.33,5.51,5.51,0,0,0,2-.33,4.23,4.23,0,0,0,1.44-1l.54.88a4.58,4.58,0,0,1-1.64,1.09A6.23,6.23,0,0,1,534,264.17Zm-.17-11a3.06,3.06,0,0,0-2.37,1.09,4.72,4.72,0,0,0-1.13,2.75l0,.05h6.76v-.32a3.73,3.73,0,0,0-.89-2.54A3,3,0,0,0,533.82,253.17Zm1.2-5.33h1.57l0,.07-2.65,2.8h-1.14Z"/><path class="cls-9" d="M550.88,263.08a3.62,3.62,0,0,0,2.24-.73,2.43,2.43,0,0,0,1-2h1.12l0,.07a3.23,3.23,0,0,1-1.28,2.7,4.73,4.73,0,0,1-3.08,1.09,4.39,4.39,0,0,1-3.64-1.63,6.58,6.58,0,0,1-1.29-4.2v-.45a6.54,6.54,0,0,1,1.29-4.18,4.36,4.36,0,0,1,3.63-1.64,5.8,5.8,0,0,1,2.44.51,4.82,4.82,0,0,1,1.8,1.38l0,2.54h-1.09l-.2-2.07a3.62,3.62,0,0,0-1.27-.92,4.34,4.34,0,0,0-1.73-.34,3.08,3.08,0,0,0-2.75,1.34,6,6,0,0,0-.89,3.38v.45a6,6,0,0,0,.89,3.4A3.08,3.08,0,0,0,550.88,263.08Z"/><path class="cls-9" d="M565.57,263.94q-.12-.58-.18-1a8.46,8.46,0,0,1,0-.87,5.12,5.12,0,0,1-1.71,1.51,4.7,4.7,0,0,1-2.39.61,3.67,3.67,0,0,1-2.63-.89,3.15,3.15,0,0,1-.92-2.39,3,3,0,0,1,1.37-2.56,6.5,6.5,0,0,1,3.73-.95h2.55v-1.54a2.51,2.51,0,0,0-.8-2,3.22,3.22,0,0,0-2.22-.71,5.4,5.4,0,0,0-1.75.27,3.92,3.92,0,0,0-1.33.71l-.1,1.56h-1.06v-2.24a6.78,6.78,0,0,1,1.91-1,7.2,7.2,0,0,1,2.38-.39,4.59,4.59,0,0,1,3.06,1,3.47,3.47,0,0,1,1.17,2.81v5.73c0,.24,0,.47,0,.69s0,.43.07.64l1.15.07v.95Zm-4.2-.91a4.56,4.56,0,0,0,2.44-.65,3.77,3.77,0,0,0,1.53-1.67v-2.34h-2.57a4.82,4.82,0,0,0-2.78.73,2.19,2.19,0,0,0-1,1.84,1.93,1.93,0,0,0,.65,1.51A2.58,2.58,0,0,0,561.37,263Z"/><path class="cls-9" d="M569.38,253.25v-1h2.86l.12,1.93a4.06,4.06,0,0,1,1.48-1.59,4.24,4.24,0,0,1,2.21-.56,3.35,3.35,0,0,1,3.47,2.64,4.55,4.55,0,0,1,1.49-1.93,3.88,3.88,0,0,1,2.35-.71,3.48,3.48,0,0,1,2.85,1.24,6.06,6.06,0,0,1,1,3.84v5.69L589,263v.95h-4.76V263l1.74-.15v-5.72a4.76,4.76,0,0,0-.75-3,2.62,2.62,0,0,0-2.1-.89,2.85,2.85,0,0,0-2.3,1,4.72,4.72,0,0,0-1,2.45v.16a1,1,0,0,1,0,.19v5.9l1.74.14v.95h-4.76V263l1.74-.14v-5.73a4.73,4.73,0,0,0-.76-3,2.62,2.62,0,0,0-2.1-.91,3.13,3.13,0,0,0-2.15.7,3.71,3.71,0,0,0-1.12,1.87v7.09l1.74.14v.95h-4.75V263l1.73-.14v-9.46Z"/><path class="cls-9" d="M590.44,263l1.74-.14v-9.46l-1.74-.14v-1h3v10.56l1.74.14v.95h-4.75Zm3-14h-1.27v-1.81h1.27Z"/><path class="cls-9" d="M597.09,263l1.74-.14v-9.46l-1.74-.14v-1H600l.12,2a4.17,4.17,0,0,1,1.5-1.66,4.12,4.12,0,0,1,2.23-.59,3.52,3.52,0,0,1,2.85,1.16,5.48,5.48,0,0,1,1,3.61v6l1.73.14v.95h-4.75V263l1.74-.14v-6a4.29,4.29,0,0,0-.74-2.83,2.7,2.7,0,0,0-2.11-.83,3.28,3.28,0,0,0-2.19.72,4,4,0,0,0-1.22,1.9v7l1.74.14v.95h-4.76Z"/><path class="cls-9" d="M611,248.1v-1h3v7.14a4.14,4.14,0,0,1,3.77-2.21,3.49,3.49,0,0,1,2.8,1.14,5.41,5.41,0,0,1,1,3.55v6.09l1.74.14v.95h-4.75V263l1.73-.14v-6.11a4,4,0,0,0-.74-2.72,2.59,2.59,0,0,0-2-.83,3.4,3.4,0,0,0-2.19.7,4,4,0,0,0-1.29,1.85v7.11l1.73.14v.95H611V263l1.74-.14V248.24Z"/><path class="cls-9" d="M625.11,257.94a6.32,6.32,0,0,1,1.4-4.22,5,5,0,0,1,7.4,0,6.32,6.32,0,0,1,1.4,4.22v.36a6.28,6.28,0,0,1-1.39,4.22,5,5,0,0,1-7.41,0,6.28,6.28,0,0,1-1.4-4.22Zm1.28.36a5.62,5.62,0,0,0,1,3.4,3.32,3.32,0,0,0,2.83,1.38A3.28,3.28,0,0,0,633,261.7a5.62,5.62,0,0,0,1-3.4v-.36a5.56,5.56,0,0,0-1-3.38,3.53,3.53,0,0,0-5.61,0,5.62,5.62,0,0,0-1,3.38Z"/><path class="cls-9" d="M650.65,263.94q-.12-.58-.18-1a8.46,8.46,0,0,1-.05-.87,5.12,5.12,0,0,1-1.71,1.51,4.7,4.7,0,0,1-2.39.61,3.67,3.67,0,0,1-2.63-.89,3.15,3.15,0,0,1-.92-2.39,3,3,0,0,1,1.37-2.56,6.5,6.5,0,0,1,3.73-.95h2.55v-1.54a2.54,2.54,0,0,0-.79-2,3.24,3.24,0,0,0-2.23-.71,5.4,5.4,0,0,0-1.75.27,3.92,3.92,0,0,0-1.33.71l-.1,1.56h-1.06v-2.24a6.84,6.84,0,0,1,1.92-1,7.1,7.1,0,0,1,2.37-.39,4.63,4.63,0,0,1,3.07,1,3.49,3.49,0,0,1,1.16,2.81v5.73c0,.24,0,.47,0,.69s0,.43.07.64l1.15.07v.95Zm-4.19-.91a4.61,4.61,0,0,0,2.44-.65,3.81,3.81,0,0,0,1.52-1.67v-2.34h-2.57a4.82,4.82,0,0,0-2.78.73,2.18,2.18,0,0,0-1,1.84,1.92,1.92,0,0,0,.64,1.51A2.59,2.59,0,0,0,646.46,263Z"/><path class="cls-9" d="M657.67,249.31v3h2.53v1.05h-2.53v7.6a2.46,2.46,0,0,0,.41,1.62,1.35,1.35,0,0,0,1.09.48l.6,0,.68-.09.19,1a3.36,3.36,0,0,1-.78.21,5.62,5.62,0,0,1-.92.08,2.38,2.38,0,0,1-1.89-.78,3.68,3.68,0,0,1-.67-2.45v-7.6h-2v-1.05h2v-3Z"/><path class="cls-9" d="M667.63,264.17a4.61,4.61,0,0,1-3.6-1.61,6,6,0,0,1-1.43-4.1v-.59a6.11,6.11,0,0,1,1.42-4.15,4.4,4.4,0,0,1,3.44-1.65,4.3,4.3,0,0,1,3.34,1.36,5.28,5.28,0,0,1,1.21,3.62v1.1h-8.14v.31a5.14,5.14,0,0,0,1,3.29,3.28,3.28,0,0,0,2.72,1.33,5.51,5.51,0,0,0,2-.33,4,4,0,0,0,1.44-1l.55.88a4.66,4.66,0,0,1-1.64,1.09A6.25,6.25,0,0,1,667.63,264.17Zm-.17-11a3.06,3.06,0,0,0-2.37,1.09A4.78,4.78,0,0,0,664,257l0,.05h6.75v-.32a3.72,3.72,0,0,0-.88-2.54A3,3,0,0,0,667.46,253.17Zm1.2-5.33h1.57l0,.07-2.65,2.8h-1.14Z"/><path class="cls-9" d="M679.15,263l1.14-.08,5.51-14.65H687l5.46,14.65,1.16.08v.95H689.8V263l1.35-.11-1.28-3.5h-7l-1.29,3.5L683,263v.95h-3.81Zm4.18-4.77h6.12l-3-8.29h-.07Z"/><path class="cls-9" d="M697.21,249.31v3h2.54v1.05h-2.54v7.6a2.52,2.52,0,0,0,.41,1.62,1.38,1.38,0,0,0,1.09.48,6.08,6.08,0,0,0,.61,0l.67-.09.2,1a3.66,3.66,0,0,1-.78.21,5.72,5.72,0,0,1-.92.08,2.37,2.37,0,0,1-1.89-.78,3.68,3.68,0,0,1-.68-2.45v-7.6h-2v-1.05h2v-3Z"/><path class="cls-9" d="M707.18,264.17a4.65,4.65,0,0,1-3.61-1.61,6,6,0,0,1-1.42-4.1v-.59a6.11,6.11,0,0,1,1.42-4.15,4.38,4.38,0,0,1,3.44-1.65,4.26,4.26,0,0,1,3.33,1.36,5.23,5.23,0,0,1,1.22,3.62v1.1h-8.15v.31a5.2,5.2,0,0,0,1,3.29,3.3,3.3,0,0,0,2.73,1.33,5.55,5.55,0,0,0,2-.33,4.23,4.23,0,0,0,1.44-1l.54.88a4.58,4.58,0,0,1-1.64,1.09A6.23,6.23,0,0,1,707.18,264.17Zm-.17-11a3.09,3.09,0,0,0-2.38,1.09,4.77,4.77,0,0,0-1.12,2.75l0,.05h6.76v-.32a3.73,3.73,0,0,0-.89-2.54A3,3,0,0,0,707,253.17Z"/><path class="cls-9" d="M713.6,263l1.74-.14v-9.46l-1.74-.14v-1h2.87l.12,2a4.08,4.08,0,0,1,1.49-1.66,4.17,4.17,0,0,1,2.23-.59,3.53,3.53,0,0,1,2.86,1.16,5.54,5.54,0,0,1,1,3.61v6l1.74.14v.95h-4.75V263l1.73-.14v-6a4.23,4.23,0,0,0-.74-2.83,2.67,2.67,0,0,0-2.1-.83,3.25,3.25,0,0,0-2.19.72,4,4,0,0,0-1.22,1.9v7l1.73.14v.95H713.6Z"/><path class="cls-9" d="M735.85,263.94q-.12-.58-.18-1a8.46,8.46,0,0,1,0-.87,5.12,5.12,0,0,1-1.71,1.51,4.7,4.7,0,0,1-2.39.61,3.67,3.67,0,0,1-2.63-.89,3.11,3.11,0,0,1-.92-2.39,3,3,0,0,1,1.37-2.56,6.5,6.5,0,0,1,3.73-.95h2.55v-1.54a2.51,2.51,0,0,0-.8-2,3.23,3.23,0,0,0-2.22-.71,5.4,5.4,0,0,0-1.75.27,3.92,3.92,0,0,0-1.33.71l-.1,1.56h-1.06v-2.24a6.78,6.78,0,0,1,1.91-1,7.18,7.18,0,0,1,2.37-.39,4.6,4.6,0,0,1,3.07,1,3.47,3.47,0,0,1,1.17,2.81v5.73c0,.24,0,.47,0,.69s0,.43.07.64l1.15.07v.95Zm-4.2-.91a4.56,4.56,0,0,0,2.44-.65,3.77,3.77,0,0,0,1.53-1.67v-2.34h-2.57a4.82,4.82,0,0,0-2.78.73,2.19,2.19,0,0,0-1,1.84,1.93,1.93,0,0,0,.65,1.51A2.58,2.58,0,0,0,731.65,263Z"/><path class="cls-9" d="M748.3,255.89h-1l-.14-1.65a3.3,3.3,0,0,0-1.21-.79,4.85,4.85,0,0,0-1.68-.28,3.17,3.17,0,0,0-2.1.61,1.86,1.86,0,0,0-.69,1.43,1.69,1.69,0,0,0,.6,1.33,5.88,5.88,0,0,0,2.4.93,7.91,7.91,0,0,1,3.08,1.26,2.64,2.64,0,0,1,1,2.18,2.86,2.86,0,0,1-1.16,2.36,4.93,4.93,0,0,1-3.09.9,7.16,7.16,0,0,1-2.33-.36,5.43,5.43,0,0,1-1.81-1v-2.35h1l.18,1.66a3,3,0,0,0,1.3.75,5.84,5.84,0,0,0,1.63.23,3.54,3.54,0,0,0,2.19-.62,1.81,1.81,0,0,0,.8-1.48,1.9,1.9,0,0,0-.67-1.43,5.33,5.33,0,0,0-2.4-1,8.18,8.18,0,0,1-3.06-1.21,2.45,2.45,0,0,1-1-2.09,2.82,2.82,0,0,1,1.12-2.26,4.51,4.51,0,0,1,3-.92,6.64,6.64,0,0,1,2.32.4,4.65,4.65,0,0,1,1.71,1.06Z"/><path class="cls-9" d="M752.83,263.94h-1.46v-1.77h1.46Z"/><g class="cls-10"><polyline class="cls-11" points="139.31 373.67 130.97 359.57 148.23 361.92 144.54 373.67"/><path class="cls-4" d="M152.71,260.27l6.37,24.46s1,6-1.18,8.21-12.4,13.74-12.4,13.74l-5.69,11.23,33,18.76,39.37-10.55L211,298.47s-20.16-1.29-31.92-10.11c-2.31-1.73-4.27-21.89-4.27-21.89Z"/><path class="cls-11" d="M175.91,275.36c-.62-4.51-1.12-9.06-1.12-9.06l-22.12-6.2,1.77,6.81s6.92,4.52,9.08,5.46A42,42,0,0,0,175.91,275.36Z"/><path class="cls-4" d="M139.7,250.1s12.79,22.78,51,22.78c15.8,0,21.67-3.68,22.56-8.82,5.6-32.23-6.31-73-22.84-85.45C175.92,167.7,124.5,209,124.5,209l10.95,24.58s-11.17-12.07-15.64-5.36,9.72,20.89,9.72,20.89S135.9,253.9,139.7,250.1Z"/><path class="cls-4" d="M216,301.76c3.79-2,7.2,2.73,7.2,2.73L261.79,372l-33.27,59.7s11.17,18.76,5.58,27.25l7.71,7.71s1.23,4.13-4.36,4.13-18.76-9.83-18.76-9.83l1.53-42.08,24.84-44.79-22.81-33.93-7.14-6.32S209,305.51,216,301.76Z"/><path class="cls-4" d="M176,490.63l-32.28,81s-4.16,15.33-9.11,20.27a217.93,217.93,0,0,1-12.23,35.36C114,646,110.32,671.79,110.32,671.79s7.62,19.35,6.7,28.06c0,0,7.29,10.06,4.36,15.84S107,718,107,718s-19.19,2.52-22-2.26,3.6-17.59,3.6-17.59S87.61,688,91,685.61s7.38-8,7.38-8-1.26-3.35,2.26-7.88,8.71-33.54,8.71-37.34-4.69-32.17,11-43.34c0,0,3.8-77.07,14.52-87.8S176,484.12,176,484.12Z"/><path class="cls-12" d="M176,490.63l-10.32,25.88s-14.28,6.38-17.9,7.27c-2.68.66-21.79,6.57-21.15,2.71,2-12,4.78-21.91,8.15-25.28C145.5,490.49,176,484.12,176,484.12Z"/><path class="cls-4" d="M187.51,478.65s27,102.1,29,106.79-8.55,13.79,9.88,78.47c0,0-1.17,8.55-2.84,11.56s-5.53,10.73-.67,13.41,20.6,16.08,27.31,17.26,19.27-4.7,19.27-4.7,6.7-2.51,4.6-4.6c0,0-6.11-.26-8.12-2.27s-24.8-19.94-24.8-19.94-7-9-7-9.66-5-80.15-5-80.15,1.84-5,0-15.24-1-74.62-1-74.62Z"/><path class="cls-12" d="M187.51,478.65l8.24,31c.73,2.72,32.25,4.9,32.25,4.9l.17-19.6Z"/><path class="cls-13" d="M187.5,498.87c5.23,10.36,42,12.55,45,13.51,0,0,1-41.62-4.91-65S187.5,498.87,187.5,498.87Z"/><path class="cls-14" d="M142.82,240.94c6.48,2.68.9-8.94.9-8.94s-.62-11.64-3.91-13.62a47.88,47.88,0,0,1-7.2-5.88l61.82-42.38s6.26-8.71-8-14.07a17,17,0,0,0-17.32-5.14s-6.25-7.49-15.3-.62c0,0-18.21-1.06-22.34,7.88a6.79,6.79,0,0,0-6.7,3.8s-3.8,1.45-4.53,4.52c0,0-9.21,3.63-9.77,9.77,0,0-5,7-1,12.74,0,0-2.65,5,.79,8.43,0,0-7.71,8.44,0,13.69,0,0-1.9,5.47,9.38,7.7l3.35,6.93s3.23-1.47,12.51,7.82S142.82,240.94,142.82,240.94Z"/><path class="cls-11" d="M187.84,240.88a1.5,1.5,0,0,1,0-3c2.79,0,10.44-2.45,14.27-3.78-1.26-12-8.89-20.93-13.42-25.26a1.5,1.5,0,1,1,2.07-2.17c5,4.76,13.49,14.79,14.44,28.36l.08,1.13-1.07.38C203,237,192,240.88,187.84,240.88Z"/><ellipse class="cls-15" cx="166.38" cy="213.92" rx="3.01" ry="4.11" transform="translate(-47.11 46.99) rotate(-14.1)"/><path class="cls-15" d="M163.3,215.41h-.07a1.49,1.49,0,0,1-1.43-1.56c0-.22.27-5.4,3.8-7.31,2.23-1.2,5.08-.79,8.46,1.23a1.5,1.5,0,1,1-1.53,2.57c-1.66-1-4-2-5.5-1.16-1.69.9-2.18,3.77-2.23,4.8A1.5,1.5,0,0,1,163.3,215.41Z"/><ellipse class="cls-15" cx="193.46" cy="206.59" rx="3.01" ry="4.11" transform="translate(-44.51 53.37) rotate(-14.1)"/><path class="cls-15" d="M190.38,206.47a1.34,1.34,0,0,1-.4-.06,1.49,1.49,0,0,1-1-1.84c.06-.21,1.47-5.21,5.34-6.28,2.44-.67,5.13.37,8,3.09a1.5,1.5,0,0,1-2.08,2.17c-1.39-1.33-3.41-2.83-5.1-2.37-1.84.51-3,3.2-3.25,4.19A1.5,1.5,0,0,1,190.38,206.47Z"/><path class="cls-11" d="M135,247.53s-.34-14.66-11.65-18.18"/><path class="cls-16" d="M145.5,306.68s-10.73,4-15.72,8.95c0,0,30.08,43.63,9.53,58,0,0,18.93,36.17,16.92,43.54s-35.65,101.26-35.65,101.26,103.88-1.84,107.59-69.76l-4.92-39.09a328.26,328.26,0,0,0,2.9-39.66c.22-19.08-1.87-41-3.4-56a24.19,24.19,0,0,0-7.05-15.19l-9.78-.91s7.72,25.88-10.15,28.33C186.14,327.54,162.93,330.65,145.5,306.68Z"/><g class="cls-17"><path class="cls-18" d="M124.45,521S228.33,519.17,232,451.25Z"/></g><path class="cls-16" d="M145.5,306.68s-10.73,4-15.72,8.95c0,0,30.08,43.63,9.53,58,0,0,18.93,36.17,16.92,43.54s-35.65,101.26-35.65,101.26,103.88-1.84,107.59-69.76l-4.92-39.09a328.26,328.26,0,0,0,2.9-39.66c.22-19.08-1.87-41-3.4-56a24.19,24.19,0,0,0-7.05-15.19l-9.78-.91s7.72,25.88-10.15,28.33C186.14,327.54,162.93,330.65,145.5,306.68Z"/><path class="cls-3" d="M153.92,424.81s54.77,7.29,70-10.14c0,0,1.65-3.44-.64-5.05.33,3.22-25.73,17.25-67,8.37C156.23,418,151.24,419.78,153.92,424.81Z"/><circle class="cls-19" cx="199.42" cy="422.17" r="12.78"/><g class="cls-20"><path class="cls-21" d="M138.76,175s-5.49,6.64,1.47,11.08c2.43,1.56-7.21,9-7.21,9L129.13,217s5-2,8.38-2l17.63,20.21-11.31,7.06L107.75,218l-24-46.39,30.94-28.09,33.85-7.88-6,11.79s-14.37,8.78-8.88,15.11C130.26,164.91,129.59,174.39,138.76,175Z"/></g><path class="cls-9" d="M123.11,225.75s-6.48-2.91-6.48-8.27,25.24-56.07,78-47.36c0,0,8.15,5.7,5.36,8.49,0,0,5,6.24,1,9.6S177.4,186.65,123.11,225.75Z"/><path class="cls-22" d="M126,213.92s33.73-41.12,69.81-35.76C195.77,178.16,162.15,180,126,213.92Z"/><path class="cls-23" d="M200.8,432.15c-1.9,0-6-.37-8.6-3.32-2.29-2.56-2.92-6.32-1.87-11.18a1.5,1.5,0,1,1,2.93.63c-.83,3.86-.44,6.73,1.17,8.53,2.44,2.74,7,2.32,7.1,2.31a1.5,1.5,0,0,1,.31,3C201.78,432.11,201.39,432.15,200.8,432.15Z"/><path class="cls-24" d="M207.14,427.82l-.33,0a1.5,1.5,0,0,1-1.14-1.79c.85-3.86.48-6.73-1.12-8.54-2.42-2.75-7-2.35-7.09-2.35a1.52,1.52,0,0,1-1.63-1.35,1.5,1.5,0,0,1,1.34-1.64c.26,0,6.17-.55,9.62,3.34,2.27,2.57,2.88,6.33,1.81,11.19A1.5,1.5,0,0,1,207.14,427.82Z"/><path class="cls-11" d="M189.25,252.15l8.26-4,3.82-1.85,1.91-.92a3.54,3.54,0,0,0,2.55-2.54c-1.41,1.33.72,3.45,2.12,2.12,2.33-2.2-.51-4.31-2.85-3.72-2.65.67-5.34,2.52-7.79,3.7l-9.54,4.61c-1.73.84-.22,3.43,1.52,2.59Z"/><path class="cls-4" d="M134.36,313s-15.78,8.92-17.23,10.37-2.86,20.55-2.86,20.55l7.82,18.32,61.33,14.43,19.5,2.69,7.12-74-15.9-4.07-4.35,56.29-34-8.94-11-24.35-6-13.18Z"/><path class="cls-4" d="M209.44,306.16c1.57-2.25,5.71-8.69,7.94-10.16,3.84-2.52.88-7.15,1.22-7.74a6.09,6.09,0,0,0,1-4.65c-.68-2.86-2-.82-1.55-3.71a6.12,6.12,0,0,0,0-2.6c-1.13-2.12-2.59-.54-2.56-3,0-1.4,1.74-5.52,2.78-8.23a7.4,7.4,0,0,0-.88-5.84,2.2,2.2,0,0,0-2.79-.81c-1.56,1-2,3.87-3.06,5.39-2.44,3.41-2.73,3.17-5.76,6-1.17,1.08-6.46,8.12-8.19,7.88-1.52-.22-3.53-5.85-6.2-5.85-4.49,0-8-.53-8-.29,0,2.21,2.76,10.3,3.59,11.13,1.09,1.09,5.41,6.77,5.88,10.67s1.78,6.63,1.13,10.48Z"/><path class="cls-11" d="M191.14,359.47,155.31,350c-.52-.19-12.75-4.81-15.53-12.87a1.5,1.5,0,0,1,2.84-1c2.23,6.48,12.75,10.66,13.67,11l32.14,8.46c.7-9.06,3.75-48.29,4.11-51,.29-2.23-.71-8-1.12-10l0-.3c0-2.65-4.28-8.44-5.44-9.6-.85-.86-2.19-4.84-4-11.82a1.5,1.5,0,0,1,2.91-.75c1.12,4.4,2.67,9.62,3.24,10.5.84.89,6.12,7.36,6.26,11.51.25,1.26,1.52,7.85,1.13,10.84s-4.19,52.11-4.23,52.61Zm-3.07-76.81,0,0Z"/><path class="cls-11" d="M197.58,280.23a1.48,1.48,0,0,1-1.18-.58,1.5,1.5,0,0,1,.25-2.1c.12-.1,12-9.47,15.85-18a3.3,3.3,0,0,1,1.81-1.95,3.1,3.1,0,0,1,2.77.32,1.51,1.51,0,0,1,.55,2.05,1.49,1.49,0,0,1-2,.55l-.2-.09-.08.16-.05.13C211.11,270,199,279.5,198.5,279.91A1.51,1.51,0,0,1,197.58,280.23Z"/><path class="cls-11" d="M203.14,263.44a1,1,0,0,1-.4-.09,1,1,0,0,1-.51-1.31c.16-.38,4.12-9.34,9.46-7.38a1,1,0,1,1-.68,1.87c-3.54-1.29-6.92,6.23-6.95,6.31A1,1,0,0,1,203.14,263.44Z"/><path class="cls-16" d="M129.78,315.63s17,9.09,21.51,21-8.77-28.77-8.77-28.77S134.13,311.28,129.78,315.63Z"/><path class="cls-5" d="M161.37,147.39a10.79,10.79,0,0,1,7.7,3.52,18.72,18.72,0,0,1,4.67-.62,17,17,0,0,1,12.65,5.76c13.89,5.21,8.38,13.58,8.06,14l.15,0s8.15,5.7,5.36,8.49c0,0,5,6.24,1,9.6a4.73,4.73,0,0,1-1.46.73c10.86,16.91,17.55,46.13,14.33,71.23a2.65,2.65,0,0,1,.75-.71,1.58,1.58,0,0,1,.86-.24,2.44,2.44,0,0,1,1.93,1,7.4,7.4,0,0,1,.88,5.84c-1,2.71-2.77,6.83-2.78,8.23,0,2.42,1.43.84,2.56,3a6.12,6.12,0,0,1,0,2.6c-.45,2.89.87.85,1.55,3.71a6.09,6.09,0,0,1-1,4.65c-.34.59,2.62,5.22-1.22,7.74a14,14,0,0,0-2.64,2.72l1,.08a26.36,26.36,0,0,1,2.17,2.47H218c2.94,0,5.26,3.22,5.26,3.22L261.79,372l-33.27,59.7s11.17,18.76,5.58,27.25l7.71,7.71s1.23,4.13-4.36,4.13c-1.66,0-4-.88-6.47-2.1a421.88,421.88,0,0,1,1.54,43.72,43.51,43.51,0,0,0-4.5-.67l0,2.85h0c-.11,19.84-.05,48.49,1.13,55,1.84,10.22,0,15.24,0,15.24s5,79.54,5,80.15,7,9.66,7,9.66,9.31,7.33,16.55,13.14h0s4.36,1.14,6.06,2.56a5.94,5.94,0,0,1,1.83,3.81c.48.32,1.28.86,2.19,1.52a23.46,23.46,0,0,0,6.29,1.18c1,1,0,2.07-1.29,2.94.72.78,1.15,1.45,1,1.89-.47,1.74-7.21,8.84-19.39,8.84-.69,0-1.39,0-2.11-.07-12.79-.84-30.52-14.47-32-18.27a11.31,11.31,0,0,1,.19-7.65c0-3.23,2-7.11,3-9,1.67-3,2.84-11.56,2.84-11.56-18.43-64.68-7.87-73.78-9.88-78.47-1.28-3-12.67-45.32-20.8-75.78h0a.29.29,0,0,0,0-.09c-.48-1.78-.94-3.52-1.39-5.2a21.87,21.87,0,0,1-4.2-2.49A131.65,131.65,0,0,1,168,510.65l-24.3,60.94s-4.16,15.33-9.11,20.27a217.93,217.93,0,0,1-12.23,35.36C114,646,110.32,671.79,110.32,671.79s6,15.24,6.7,24.76c7.06,9.67,13.4,21.6,5,25.11a48.12,48.12,0,0,1-18.29,3.22c-10.13,0-19.22-2.38-21.34-4.49-3.4-3.41,6.27-29.21,6.27-29.21.29-2.35.95-4.61,2.31-5.57,3.36-2.35,7.38-8,7.38-8s-1.26-3.35,2.26-7.88,8.71-33.54,8.71-37.34-4.69-32.17,11-43.34c0,0,1.79-36.27,6.37-62.52h0c.5-3,1-5.82,1.63-8.47-4.8.4-7.68.45-7.68.45s25.1-70.06,33.23-93.89c-2.07-4.15,1.18-6,2.15-6.47q.18-.57.27-.9c2-7.37-16.92-43.54-16.92-43.54l-5.06-8.56-12.16-2.86-7.82-18.32s1.41-19.1,2.86-20.55c.94-.94,7.87-5,12.65-7.75h0c5-5,15.72-8.95,15.72-8.95s10.23-11.56,12.4-13.74,1.18-8.21,1.18-8.21l-5.6-21.5C143.6,257,139.7,250.1,139.7,250.1a5,5,0,0,1-3.65,1.46c-3.25,0-6.52-2.46-6.52-2.46s-14.19-14.19-9.72-20.89a4.21,4.21,0,0,1,3.68-2c2.92,0,6.41,2.41,8.86,4.47-5-4.39-7.72-5-8.82-5l-.34,0-.08.07-.07,0-.1,0,0-.11c-1.06-.53-5.8-3.13-6.22-7.55-8-2.51-6.46-7-6.46-7-7.71-5.25,0-13.69,0-13.69-3.44-3.43-.79-8.43-.79-8.43-4-5.7,1-12.74,1-12.74.56-6.14,9.77-9.77,9.77-9.77.73-3.07,4.53-4.52,4.53-4.52a6.71,6.71,0,0,1,6.19-3.83,3.62,3.62,0,0,1,.51,0c3.34-7.22,15.87-7.92,20.56-7.92,1.11,0,1.78,0,1.78,0a12.54,12.54,0,0,1,7.6-2.9m36.3,131.34c1.68,0,6.19-5.83,7.77-7.55-3.42,1.07-8.12,1.68-14.41,1.7h.35c2.67,0,4.68,5.63,6.2,5.85h.09m-21.76-3.37h0c.8,5.64,2,12.05,3.21,13A46.19,46.19,0,0,0,193,295c0-.21-.06-.42-.08-.63-.47-3.9-4.79-9.58-5.88-10.67-.83-.83-3.57-8.92-3.59-11.13h0a78,78,0,0,1-8-1.06c.15,1.2.32,2.52.5,3.83m48.47,136,20.68-37.29L225.4,344.82c.52,8.39.85,17,.75,25.14a328.26,328.26,0,0,1-2.9,39.66,2.76,2.76,0,0,1,1.13,1.73m40.75,282.46h0M161.37,141.39h0a17.6,17.6,0,0,0-9.4,2.86c-6.83,0-18.24,1.16-24,8.21a12.44,12.44,0,0,0-7.47,4.91,13.77,13.77,0,0,0-4.88,4.63c-3.46,1.8-9.47,5.76-10.91,12.05-2.16,3.65-4.12,9.68-1.83,15.42a13.67,13.67,0,0,0,.2,7.66,16,16,0,0,0-2.22,9.6,12.41,12.41,0,0,0,3.39,7.18,10.57,10.57,0,0,0,.94,2.71,13.44,13.44,0,0,0,6.51,6,14.64,14.64,0,0,0,2.33,3.67c-2.34,4.82-1,11,4,18.29a68.38,68.38,0,0,0,7.25,8.8l.29.29.34.26c.81.61,5.13,3.67,10.13,3.67a11.91,11.91,0,0,0,1.59-.1A52.71,52.71,0,0,0,148.26,267l4.93,18.95a12.45,12.45,0,0,1,0,3.22c-2.39,2.49-8.72,9.61-11.24,12.46-3.29,1.33-11,4.72-15.83,9.18-11.63,6.71-12.57,7.66-13.26,8.35-1.49,1.49-3,3-4.6,24.35l-.11,1.46.57,1.34,7.82,18.32,1.2,2.79,3,.69,9.66,2.28,3.68,6.22c.58,1.11,4.63,9,8.57,17.61,5.87,12.93,7.31,18.48,7.65,20.61a9.93,9.93,0,0,0-2.82,9.81c-8.66,25.19-32.28,91.15-32.53,91.83L112,524.63l8.69-.16h.2c0,.19-.07.38-.1.57l-.29.86.06.47c-3.81,22.33-5.65,50.81-6.15,59.65-13.93,12.48-11.92,36.32-11.24,44.43.06.73.14,1.65.14,1.91-.1,4.22-5.09,29.81-7.5,33.72a16.1,16.1,0,0,0-3.7,9.78,27.39,27.39,0,0,1-4.59,4.83c-2.51,1.77-4.06,4.72-4.73,9-.66,1.82-2.62,7.29-4.32,13.14-3.66,12.66-3.75,18.37-.33,21.79,4.29,4.29,16.27,6.25,25.58,6.25a54.13,54.13,0,0,0,20.61-3.68,11.91,11.91,0,0,0,7.21-7.93c1.72-6.17-1-14.12-8.71-24.92-1-8.37-4.85-19.21-6.34-23.21.92-5.67,4.56-26.23,11.37-41.48a227,227,0,0,0,12.23-34.95c4.93-6.17,8.43-18,9.32-21.21l23.12-58A139.59,139.59,0,0,0,189.35,509l.58,2.16,0,.06C207,575,210,585,210.8,587.21c-.05.46-.19,1.29-.3,2-1.27,7.61-4.24,25.37,9.81,75.12a40.46,40.46,0,0,1-2,8.25c-2.29,4.11-3.52,7.67-3.75,10.84a17.1,17.1,0,0,0,.17,10.92c1.93,5,11.28,11.34,14.1,13.15,4.83,3.09,14.25,8.37,23.09,8.95.83.06,1.67.09,2.5.09,14.36,0,23.88-8.5,25.18-13.26a6.58,6.58,0,0,0,.2-2.49,7.2,7.2,0,0,0-1.48-8.17l-1.66-1.65-2.33-.1a20.67,20.67,0,0,1-3.51-.5,10.9,10.9,0,0,0-3.21-4.61,21.72,21.72,0,0,0-7.11-3.4c-6-4.78-13-10.35-15.06-12-2.06-2.67-4.35-5.7-5.43-7.24-.27-4.49-1.25-20.36-4.87-77.67.62-2.55,1.44-8.16-.15-17-.37-2.07-1.2-11-1.05-49.38l4.37,1.38.18-8c0-.81.38-17.48-.86-35.76,4.72-.06,7.24-2.1,8.52-3.82a9.23,9.23,0,0,0,1.38-8l-.43-1.46-1.08-1.07-4.92-4.93c2.11-8.88-2.77-20.08-5.75-25.79L267,374.89l1.65-3L267,369l-38.55-67.48-.16-.27-.18-.26a15.81,15.81,0,0,0-3.91-3.73,11.65,11.65,0,0,0,.73-8.21,11.28,11.28,0,0,0,.52-6.81,9.76,9.76,0,0,0-1.28-3.1,8.11,8.11,0,0,0-.84-4.66,9.13,9.13,0,0,0-1.19-1.74c.36-1,.79-2.08,1.08-2.84.23-.58.45-1.13.64-1.64,1.47-3.84.34-8.62-1.53-11.36a8.15,8.15,0,0,0-2-2c1.5-22.09-3.63-47.25-13.22-64.78,2.26-3.8,1.53-8.47-.63-12.41a7.77,7.77,0,0,0,0-1.18c-.29-3.27-2.56-6.22-4.93-8.44a13,13,0,0,0-.39-6.32c-1.44-4.59-5.25-8.21-11.32-10.77a22.89,22.89,0,0,0-16.13-6.68,24.44,24.44,0,0,0-2.94.19,16.26,16.26,0,0,0-9.43-3.09ZM231.57,386c.3-4.91.52-10.31.58-16,0-1.42,0-2.89,0-4.39l5.87,8.72L231.57,386Z"/><path class="cls-11" d="M195,276a1.5,1.5,0,0,1-.87-.28,52.52,52.52,0,0,0-6-3.49A4.07,4.07,0,0,0,186,272a1.51,1.51,0,0,0-1.11,1,1.51,1.51,0,0,1-1.83,1,1.48,1.48,0,0,1-1.07-1.79,4.48,4.48,0,0,1,3.37-3.21,6.87,6.87,0,0,1,3.81.42,53,53,0,0,1,6.69,3.86,1.5,1.5,0,0,1,.36,2.09A1.47,1.47,0,0,1,195,276Z"/></g></svg>