<svg xmlns="http://www.w3.org/2000/svg" viewBox="0 0 1085.67 801.02"><defs><style>.cls-1{fill:#f2f2f2;}.cls-2{fill:#ff39ec;}.cls-3{fill:#fff;}.cls-4{fill:#008cff;}</style></defs><title>2-grafo</title><g id="Camada_2" data-name="Camada 2"><g id="OBJECTS"><path class="cls-1" d="M1043.18,375.32c0-165.11-328.94-295-553.16-295S122.31,243,122.31,408.06,480.8,746.42,705,746.42,1043.18,540.43,1043.18,375.32Z"/><path class="cls-2" d="M227.17,376.81l-.36-3c.95-.12,96.8-11.75,222-18.08,115.59-5.84,280.58-8.23,410.1,13.58l-.49,3c-129.26-21.77-294-19.38-409.44-13.55C323.89,365.07,228.12,376.69,227.17,376.81Z"/><path class="cls-2" d="M185,289.62l-.58-2.94c1.24-.25,126.14-25.49,324.05-109.43l1.18,2.76C311.42,264.09,186.24,289.38,185,289.62Z"/><path class="cls-2" d="M909.81,288.77c-24.51-53.91-77.35-94.24-117.36-118.57a508.7,508.7,0,0,0-82-40.36l1-2.82A510.69,510.69,0,0,1,794,167.6c40.39,24.56,93.75,65.3,118.58,119.93Z"/><path class="cls-2" d="M710,665.7l-.59-2.94c.39-.08,39.35-8,85.68-33.79,42.71-23.72,100.6-67.83,133.89-143.26l2.74,1.21a293.9,293.9,0,0,1-62.12,90.2,332.84,332.84,0,0,1-73.14,54.53C749.77,657.59,710.43,665.63,710,665.7Z"/><path class="cls-2" d="M490.35,665c-.18-.31-18.43-32-63.29-74.1-41.4-38.9-114.58-95-228.1-141.08l1.13-2.78c114,46.33,187.55,102.67,229.15,141.78,45.13,42.44,63.54,74.38,63.72,74.7Z"/><circle class="cls-3" cx="600.7" cy="115.99" r="110.99"/><path class="cls-4" d="M600.7,232a116,116,0,1,1,116-116A116.13,116.13,0,0,1,600.7,232Zm0-222a106,106,0,1,0,106,106A106.12,106.12,0,0,0,600.7,10Z"/><circle class="cls-3" cx="115.99" cy="375.32" r="110.99"/><path class="cls-4" d="M116,491.31a116,116,0,1,1,116-116A116.12,116.12,0,0,1,116,491.31Zm0-222a106,106,0,1,0,106,106A106.11,106.11,0,0,0,116,269.33Z"/><circle class="cls-3" cx="600.7" cy="685.03" r="110.99"/><path class="cls-4" d="M600.7,801a116,116,0,1,1,116-116A116.13,116.13,0,0,1,600.7,801Zm0-222a106,106,0,1,0,106,106A106.12,106.12,0,0,0,600.7,579Z"/><circle class="cls-3" cx="969.68" cy="382.48" r="110.99"/><path class="cls-4" d="M969.68,498.48a116,116,0,1,1,116-116A116.13,116.13,0,0,1,969.68,498.48Zm0-222a106,106,0,1,0,106,106A106.11,106.11,0,0,0,969.68,276.49Z"/><path class="cls-4" d="M99.51,396.72l9-1.1V359.39H99.4v-6.14l19.84-3.6v46l9,1.1v6.43H99.51Z"/><path class="cls-4" d="M972.77,374.64h6c2.55,0,4.43-.67,5.66-2a7.93,7.93,0,0,0,1.83-5.56,7.25,7.25,0,0,0-1.83-5.18,7,7,0,0,0-5.33-1.95,7.54,7.54,0,0,0-5.07,1.76,5.82,5.82,0,0,0-2.06,4.63H961.6l-.07-.22a12.17,12.17,0,0,1,4.81-10.36,19.2,19.2,0,0,1,12.49-4.08q8.31,0,13.25,4T997,367a11.33,11.33,0,0,1-2.2,6.63,14.64,14.64,0,0,1-6.06,4.9,13.74,13.74,0,0,1,6.78,4.86,12.77,12.77,0,0,1,2.33,7.6,13.9,13.9,0,0,1-5.35,11.56q-5.34,4.2-13.69,4.2a20.89,20.89,0,0,1-12.8-3.95q-5.34-3.94-5.16-11.15l.07-.22h10.4a6.56,6.56,0,0,0,2.2,5.09,8,8,0,0,0,5.59,2,8.13,8.13,0,0,0,5.86-2.05,7.4,7.4,0,0,0,2.15-5.59c0-2.82-.71-4.88-2.11-6.19s-3.49-2-6.23-2h-6Z"/><path class="cls-4" d="M582.58,128.43v-7l17.31-18.55a42.42,42.42,0,0,0,5.33-7.26,11.79,11.79,0,0,0,1.58-5.49A8.26,8.26,0,0,0,605,84.58a6.37,6.37,0,0,0-5.16-2.15,6.67,6.67,0,0,0-5.64,2.51,10.74,10.74,0,0,0-1.93,6.71H581.81l-.07-.22a16.18,16.18,0,0,1,4.76-12.26q4.93-5,13.32-5t13,4.3a14.72,14.72,0,0,1,4.74,11.46,16.15,16.15,0,0,1-2.66,9,84.78,84.78,0,0,1-8.84,10.73L596.55,120l.07.19h13.89l.44-5.29h8.16v13.52Z"/><path class="cls-4" d="M613.85,701h6.06v7.13h-6.06v5.26l5.7,1.1v6.43H597.43v-6.43l5.73-1.1v-5.26H581.33l-.51-5.25,22.23-35.46h10.8Zm-23,0h12.31V681.69l-.22-.07-.88,1.54Z"/></g></g></svg>