<svg id="Camada_1" data-name="Camada 1" xmlns="http://www.w3.org/2000/svg" xmlns:xlink="http://www.w3.org/1999/xlink" viewBox="0 0 709.69 222.6"><defs><style>.cls-1{fill:none;}.cls-2{fill:#ffd478;}.cls-3{fill:#027e8f;}.cls-4{fill:#f9f9f9;}.cls-5{clip-path:url(#clip-path);}.cls-6{fill:#eac2a7;}.cls-7{fill:#c9a68f;}.cls-8{fill:#d6aa8b;}.cls-9{fill:#d6d6d6;}.cls-10{fill:#c99f4b;}.cls-11{fill:#6d5f56;}.cls-12{fill:#493e38;}.cls-13{clip-path:url(#clip-path-2);}.cls-14{fill:#fcfcfc;}.cls-15{fill:#d32222;}.cls-16{fill:#f4f4f4;}.cls-17{clip-path:url(#clip-path-3);}.cls-18{fill:#b7b7b7;}.cls-19{fill:#6d472e;}.cls-20{fill:#c99e32;}.cls-21{clip-path:url(#clip-path-4);}.cls-22{fill:#aa7e30;}.cls-23{fill:#fff;}.cls-24{fill:#ddd;}.cls-25{fill:#846829;}.cls-26{fill:#e8cd95;}.cls-27{fill:#eaa000;}.cls-28{clip-path:url(#clip-path-5);}</style><clipPath id="clip-path"><path class="cls-1" d="M132.5,205.6s-28.07,21.32-75.08,3.8-47-152.1-47-152.1S50.22,0,86.12,0C96,0,129.38,7.4,129.38,28.13s25.1,113.81,25.1,113.81,10.54,40.81,5.27,43.92"/></clipPath><clipPath id="clip-path-2"><path class="cls-1" d="M94.2,62.93c-.23-.23,13.33.85,18.51-3,0,0,1,10.31-3.6,11.44S98.86,70.67,94.2,62.93Z"/></clipPath><clipPath id="clip-path-3"><path class="cls-1" d="M101.87,215.62c3.15,6.25,25.3,7.57,27.13,8.15,0,0,.58-25.08-3-39.17S101.87,215.62,101.87,215.62Z"/></clipPath><clipPath id="clip-path-4"><path class="cls-1" d="M74.94,60.18c3.91,1.61.54-5.39.54-5.39s-.37-7-2.36-8.21A29,29,0,0,1,68.79,43l10-6.84L106,17.49s3.77-5.25-4.84-8.48a10.28,10.28,0,0,0-10.44-3.1S87,1.4,81.54,5.54c0,0-11-.64-13.46,4.75a4.09,4.09,0,0,0-4,2.29s-2.29.87-2.73,2.72c0,0-5.55,2.19-5.89,5.9,0,0-3,4.24-.61,7.67,0,0-1.6,3,.47,5.08,0,0-4.64,5.09,0,8.25,0,0-1.14,3.3,5.66,4.65L63,51s1.94-.88,7.54,4.71Z"/></clipPath><clipPath id="clip-path-5"><path class="cls-1" d="M132.5-69.07s-28.07,21.32-75.08,3.81-47-152.11-47-152.11,39.81-57.33,75.71-57.3c9.83,0,43.26,7.41,43.26,28.14s25.1,113.8,25.1,113.8S165-91.92,159.75-88.81"/></clipPath></defs><title>8-info2</title><path class="cls-2" d="M131.74,70.37H699.69a10,10,0,0,1,10,10V187.21a10,10,0,0,1-10,10H131.74a0,0,0,0,1,0,0V70.37A0,0,0,0,1,131.74,70.37Z"/><path class="cls-3" d="M227.26,102.78a5.56,5.56,0,0,1,3.74,1.14,3.76,3.76,0,0,1,1.32,3,3.8,3.8,0,0,1-1.32,3,5.61,5.61,0,0,1-3.74,1.13h-3.5V116l1.72.13V117h-4.7v-.86l1.72-.13V103.77l-1.72-.12v-.87h6.48Zm-3.5,7.31h3.5a4.06,4.06,0,0,0,2.85-.89,3,3,0,0,0,1-2.25,3,3,0,0,0-.95-2.27,4,4,0,0,0-2.86-.91h-3.5Z"/><path class="cls-3" d="M237.25,106.43l.15,1.76v.12a3.8,3.8,0,0,1,1.33-1.52,3.52,3.52,0,0,1,2-.56,3.73,3.73,0,0,1,.47,0l.37.07-.17,1.1-.94-.06a3,3,0,0,0-1.95.62,3.39,3.39,0,0,0-1.1,1.7V116l1.72.13V117h-4.69v-.86l1.72-.13v-8.58l-1.72-.13v-.87h2.82Z"/><path class="cls-3" d="M243,111.56a5.42,5.42,0,0,1,1.38-3.83,5.23,5.23,0,0,1,7.33,0,5.39,5.39,0,0,1,1.39,3.83v.32a5.41,5.41,0,0,1-1.38,3.83,4.72,4.72,0,0,1-3.65,1.49,4.78,4.78,0,0,1-3.69-1.49,5.41,5.41,0,0,1-1.38-3.83Zm1.27.32a4.8,4.8,0,0,0,1,3.09,3.4,3.4,0,0,0,2.8,1.25,3.36,3.36,0,0,0,2.76-1.25,4.8,4.8,0,0,0,1-3.09v-.32a4.77,4.77,0,0,0-1-3.07,3.69,3.69,0,0,0-5.55,0,4.76,4.76,0,0,0-1,3.07Z"/><path class="cls-3" d="M260,116.22a3.83,3.83,0,0,0,2.22-.67,2.12,2.12,0,0,0,1-1.84h1.12l0,.05a2.86,2.86,0,0,1-1.26,2.46,5,5,0,0,1-3.06,1,4.48,4.48,0,0,1-3.59-1.48,5.6,5.6,0,0,1-1.28-3.8v-.41a5.61,5.61,0,0,1,1.28-3.79,4.46,4.46,0,0,1,3.58-1.49,6.32,6.32,0,0,1,2.42.46,4.88,4.88,0,0,1,1.78,1.25l.05,2.31h-1.07l-.2-1.88a3.6,3.6,0,0,0-1.26-.83,4.43,4.43,0,0,0-1.72-.31,3.13,3.13,0,0,0-2.71,1.22,5.06,5.06,0,0,0-.88,3.06v.41a5.13,5.13,0,0,0,.87,3.08A3.16,3.16,0,0,0,260,116.22Z"/><path class="cls-3" d="M275.05,115.26a3.74,3.74,0,0,1-1.47,1.43,4.5,4.5,0,0,1-2.2.51,3.62,3.62,0,0,1-2.82-1.13,5.16,5.16,0,0,1-1-3.52v-5.12l-1.42-.13v-.87h2.67v6.14a4.34,4.34,0,0,0,.71,2.78,2.51,2.51,0,0,0,2,.84,3.93,3.93,0,0,0,2.28-.59A3.08,3.08,0,0,0,275,114v-6.55l-1.62-.13v-.87h2.89V116l1.53.13V117h-2.64Z"/><path class="cls-3" d="M282.39,106.43l.16,1.76v.12a3.8,3.8,0,0,1,1.33-1.52,3.49,3.49,0,0,1,2-.56,3.57,3.57,0,0,1,.47,0l.38.07-.17,1.1-.94-.06a3,3,0,0,0-2,.62,3.38,3.38,0,0,0-1.09,1.7V116l1.72.13V117h-4.69v-.86l1.72-.13v-8.58l-1.72-.13v-.87h2.81Z"/><path class="cls-3" d="M293.17,117.2a4.72,4.72,0,0,1-3.56-1.46,5.08,5.08,0,0,1-1.42-3.71v-.54a5.27,5.27,0,0,1,1.41-3.76,4.49,4.49,0,0,1,3.4-1.5,4.37,4.37,0,0,1,3.3,1.24,4.5,4.5,0,0,1,1.21,3.28v1h-8.06V112a4.41,4.41,0,0,0,1,3,3.37,3.37,0,0,0,2.69,1.21,6,6,0,0,0,2-.31,3.94,3.94,0,0,0,1.42-.87l.54.8a4.64,4.64,0,0,1-1.63,1A6.77,6.77,0,0,1,293.17,117.2Zm-.17-10a3.11,3.11,0,0,0-2.34,1,4.1,4.1,0,0,0-1.12,2.49l0,.05h6.69v-.3a3.24,3.24,0,0,0-.87-2.3A3.13,3.13,0,0,0,293,107.23Z"/><path class="cls-3" d="M304.93,116.14l1.72-.13v-8.58l-1.72-.13v-.87h3V116l1.72.13V117h-4.69Zm3-12.74h-1.25v-1.64h1.25Z"/><path class="cls-3" d="M319.67,115.47a3.75,3.75,0,0,1-1.46,1.28,4.65,4.65,0,0,1-2.11.45,3.9,3.9,0,0,1-3.2-1.41,5.82,5.82,0,0,1-1.16-3.78v-.21a6.54,6.54,0,0,1,1.16-4,3.82,3.82,0,0,1,3.22-1.52,4.39,4.39,0,0,1,2.07.47,4,4,0,0,1,1.45,1.32v-5.26l-1.72-.13v-.87h3V116l1.72.13V117h-2.85ZM313,112a5,5,0,0,0,.83,3,2.87,2.87,0,0,0,2.49,1.14,3.75,3.75,0,0,0,2-.51,3.44,3.44,0,0,0,1.27-1.4v-5a3.62,3.62,0,0,0-1.22-1.46,3.44,3.44,0,0,0-2.06-.57,2.79,2.79,0,0,0-2.5,1.27,5.8,5.8,0,0,0-.84,3.28Z"/><path class="cls-3" d="M329.6,117.2a4.73,4.73,0,0,1-3.57-1.46,5.12,5.12,0,0,1-1.41-3.71v-.54a5.27,5.27,0,0,1,1.41-3.76,4.49,4.49,0,0,1,3.4-1.5,4.37,4.37,0,0,1,3.3,1.24,4.49,4.49,0,0,1,1.2,3.28v1h-8.06V112a4.46,4.46,0,0,0,1,3,3.4,3.4,0,0,0,2.7,1.21,5.88,5.88,0,0,0,2-.31A3.86,3.86,0,0,0,333,115l.54.8a4.68,4.68,0,0,1-1.62,1A6.85,6.85,0,0,1,329.6,117.2Zm-.17-10a3.14,3.14,0,0,0-2.35,1,4.09,4.09,0,0,0-1.11,2.49l0,.05h6.69v-.3a3.25,3.25,0,0,0-.88-2.3A3.09,3.09,0,0,0,329.43,107.23Z"/><path class="cls-3" d="M336,116.14l1.72-.13v-8.58L336,107.3v-.87h2.83l.12,1.85a3.78,3.78,0,0,1,1.48-1.51,4.33,4.33,0,0,1,2.21-.54,3.67,3.67,0,0,1,2.83,1,4.76,4.76,0,0,1,1,3.28V116l1.72.13V117h-4.71v-.86l1.72-.13v-5.44a3.62,3.62,0,0,0-.73-2.57,2.78,2.78,0,0,0-2.09-.75,3.45,3.45,0,0,0-2.16.65,3.63,3.63,0,0,0-1.21,1.72V116l1.72.13V117H336Z"/><path class="cls-3" d="M353,103.73v2.7h2.51v1H353v6.88a2.14,2.14,0,0,0,.4,1.47,1.41,1.41,0,0,0,1.08.44,5.74,5.74,0,0,0,.6,0,6.66,6.66,0,0,0,.67-.08l.19.87a3.46,3.46,0,0,1-.77.19,5.49,5.49,0,0,1-.91.07,2.46,2.46,0,0,1-1.87-.7,3.13,3.13,0,0,1-.67-2.23v-6.88h-2v-1h2v-2.7Z"/><path class="cls-3" d="M357.74,116.14l1.72-.13v-8.58l-1.72-.13v-.87h3V116l1.72.13V117h-4.7Zm3-12.74h-1.26v-1.64h1.26Z"/><path class="cls-3" d="M364.32,116.14,366,116v-8.62h-1.89v-1H366v-1.35a3.35,3.35,0,0,1,1-2.6,4,4,0,0,1,2.79-.92,7.76,7.76,0,0,1,1.42.14,9.48,9.48,0,0,1,1.48.43l-.2,1a8.89,8.89,0,0,0-1.25-.38,6.31,6.31,0,0,0-1.38-.14,2.67,2.67,0,0,0-1.94.64,2.4,2.4,0,0,0-.66,1.82v1.35h6.55V116l1.72.13V117h-4.7v-.86l1.72-.13v-8.62h-5.29V116l1.72.13V117h-4.71Z"/><path class="cls-3" d="M382.18,116.22a3.82,3.82,0,0,0,2.21-.67,2.12,2.12,0,0,0,1-1.84h1.12l0,.05a2.82,2.82,0,0,1-1.26,2.46,5,5,0,0,1-3.05,1,4.48,4.48,0,0,1-3.6-1.48,5.59,5.59,0,0,1-1.27-3.8v-.41a5.6,5.6,0,0,1,1.27-3.79,4.48,4.48,0,0,1,3.59-1.49,6.27,6.27,0,0,1,2.41.46,4.79,4.79,0,0,1,1.78,1.25l.06,2.31h-1.08l-.2-1.88a3.6,3.6,0,0,0-1.26-.83,4.38,4.38,0,0,0-1.71-.31,3.14,3.14,0,0,0-2.72,1.22,5.06,5.06,0,0,0-.88,3.06v.41a5.06,5.06,0,0,0,.88,3.08A3.13,3.13,0,0,0,382.18,116.22Z"/><path class="cls-3" d="M396.72,117q-.12-.54-.18-.93a7,7,0,0,1-.05-.79,4.93,4.93,0,0,1-1.69,1.37,5,5,0,0,1-2.37.55,3.87,3.87,0,0,1-2.6-.8,2.73,2.73,0,0,1-.91-2.17,2.62,2.62,0,0,1,1.36-2.32,6.85,6.85,0,0,1,3.69-.86h2.52v-1.4a2.15,2.15,0,0,0-.79-1.77,3.36,3.36,0,0,0-2.2-.65,5.88,5.88,0,0,0-1.73.24,4.12,4.12,0,0,0-1.31.65l-.11,1.42h-1v-2a6.65,6.65,0,0,1,1.89-.91,7.51,7.51,0,0,1,2.35-.36,4.83,4.83,0,0,1,3,.89,3,3,0,0,1,1.15,2.55v5.2c0,.21,0,.42,0,.62a3.68,3.68,0,0,0,.07.58l1.14.07V117Zm-4.15-.83a4.86,4.86,0,0,0,2.41-.59,3.6,3.6,0,0,0,1.51-1.51V112H394a5,5,0,0,0-2.75.66,1.92,1.92,0,0,0-1,1.66,1.66,1.66,0,0,0,.64,1.37A2.68,2.68,0,0,0,392.57,116.17Z"/><path class="cls-3" d="M403.49,106.43l.16,1.76v.12a3.71,3.71,0,0,1,1.32-1.52,3.52,3.52,0,0,1,2-.56,3.57,3.57,0,0,1,.47,0l.37.07-.16,1.1-.94-.06a3,3,0,0,0-2,.62,3.38,3.38,0,0,0-1.09,1.7V116l1.72.13V117h-4.69v-.86l1.71-.13v-8.58l-1.71-.13v-.87h2.81Z"/><path class="cls-3" d="M414.69,111.56a5.42,5.42,0,0,1,1.38-3.83,5.23,5.23,0,0,1,7.33,0,5.42,5.42,0,0,1,1.38,3.83v.32a5.45,5.45,0,0,1-1.37,3.83,5.26,5.26,0,0,1-7.34,0,5.41,5.41,0,0,1-1.38-3.83Zm1.27.32a4.8,4.8,0,0,0,1,3.09,3.39,3.39,0,0,0,2.79,1.25,3.33,3.33,0,0,0,2.76-1.25,4.8,4.8,0,0,0,1-3.09v-.32a4.77,4.77,0,0,0-1-3.07,3.69,3.69,0,0,0-5.55,0,4.76,4.76,0,0,0-1,3.07Z"/><path class="cls-3" d="M435.12,109.69h-1l-.14-1.49a3.26,3.26,0,0,0-1.2-.72,5.27,5.27,0,0,0-1.66-.25,3.26,3.26,0,0,0-2.07.55,1.64,1.64,0,0,0-.7,1.3,1.5,1.5,0,0,0,.6,1.21,6.06,6.06,0,0,0,2.38.84,8.25,8.25,0,0,1,3,1.14,2.33,2.33,0,0,1,1,2,2.52,2.52,0,0,1-1.16,2.14,5.19,5.19,0,0,1-3.05.81,7.56,7.56,0,0,1-2.3-.33A5.37,5.37,0,0,1,427,116v-2.13h1l.18,1.51a3.09,3.09,0,0,0,1.28.68,6.66,6.66,0,0,0,1.62.21,3.67,3.67,0,0,0,2.16-.56,1.61,1.61,0,0,0,.79-1.35,1.67,1.67,0,0,0-.66-1.3,5.6,5.6,0,0,0-2.37-.91,8.3,8.3,0,0,1-3-1.08,2.19,2.19,0,0,1-1-1.9,2.49,2.49,0,0,1,1.11-2.05,4.69,4.69,0,0,1,2.92-.84,7,7,0,0,1,2.29.36,4.74,4.74,0,0,1,1.69,1Z"/><path class="cls-3" d="M442.56,107.3v-.87h2.78l.15,1.64a4,4,0,0,1,1.49-1.36,4.41,4.41,0,0,1,2.11-.48,3.84,3.84,0,0,1,3.22,1.52,6.54,6.54,0,0,1,1.16,4V112a5.79,5.79,0,0,1-1.16,3.78,3.93,3.93,0,0,1-3.2,1.41,4.92,4.92,0,0,1-2.1-.42,3.87,3.87,0,0,1-1.47-1.21v4.49l1.72.13v.87h-4.7v-.87l1.72-.13V107.43Zm9.64,4.5a5.77,5.77,0,0,0-.86-3.28,2.86,2.86,0,0,0-2.53-1.27,3.58,3.58,0,0,0-2.08.56,3.46,3.46,0,0,0-1.19,1.46v5.08a3.18,3.18,0,0,0,1.25,1.37,3.85,3.85,0,0,0,2,.5,2.93,2.93,0,0,0,2.51-1.16,4.93,4.93,0,0,0,.86-3Z"/><path class="cls-3" d="M455.44,116.14l1.72-.13v-8.58l-1.72-.13v-.87h3V116l1.72.13V117h-4.69Zm3-12.74h-1.25v-1.64h1.25Z"/><path class="cls-3" d="M462,102.63v-.87h3V116l1.72.13V117H462v-.86l1.72-.13V102.76Z"/><path class="cls-3" d="M476.56,117q-.12-.54-.18-.93a7,7,0,0,1-.05-.79,4.83,4.83,0,0,1-1.69,1.37,5,5,0,0,1-2.37.55,3.82,3.82,0,0,1-2.59-.8,2.71,2.71,0,0,1-.92-2.17,2.62,2.62,0,0,1,1.36-2.32,6.9,6.9,0,0,1,3.69-.86h2.52v-1.4a2.15,2.15,0,0,0-.79-1.77,3.35,3.35,0,0,0-2.19-.65,5.9,5.9,0,0,0-1.74.24,4.12,4.12,0,0,0-1.31.65l-.11,1.42h-1v-2a6.92,6.92,0,0,1,1.89-.91,7.56,7.56,0,0,1,2.35-.36,4.86,4.86,0,0,1,3,.89,3.07,3.07,0,0,1,1.15,2.55v5.2c0,.21,0,.42,0,.62a3.68,3.68,0,0,0,.07.58l1.14.07V117Zm-4.15-.83a4.83,4.83,0,0,0,2.41-.59,3.6,3.6,0,0,0,1.51-1.51V112h-2.54a5,5,0,0,0-2.75.66,1.94,1.94,0,0,0-1,1.66,1.68,1.68,0,0,0,.64,1.37A2.7,2.7,0,0,0,472.41,116.17Z"/><path class="cls-3" d="M483.33,106.43l.16,1.76v.12a3.78,3.78,0,0,1,1.32-1.52,3.58,3.58,0,0,1,2.46-.52l.38.07-.17,1.1-.94-.06a3,3,0,0,0-2,.62,3.38,3.38,0,0,0-1.09,1.7V116l1.72.13V117h-4.69v-.86l1.72-.13v-8.58l-1.72-.13v-.87h2.81Z"/><path class="cls-3" d="M494.11,117.2a4.72,4.72,0,0,1-3.56-1.46,5.08,5.08,0,0,1-1.42-3.71v-.54a5.27,5.27,0,0,1,1.41-3.76,4.49,4.49,0,0,1,3.4-1.5,4.37,4.37,0,0,1,3.3,1.24,4.49,4.49,0,0,1,1.2,3.28v1h-8.05V112a4.41,4.41,0,0,0,1,3,3.37,3.37,0,0,0,2.69,1.21,5.88,5.88,0,0,0,2-.31,4,4,0,0,0,1.43-.87l.54.8a4.73,4.73,0,0,1-1.63,1A6.77,6.77,0,0,1,494.11,117.2Zm-.17-10a3.11,3.11,0,0,0-2.34,1,4.1,4.1,0,0,0-1.12,2.49l0,.05h6.69v-.3a3.21,3.21,0,0,0-.88-2.3A3.09,3.09,0,0,0,493.94,107.23Z"/><path class="cls-3" d="M509,109.69h-1l-.15-1.49a3.26,3.26,0,0,0-1.2-.72,5.22,5.22,0,0,0-1.66-.25,3.26,3.26,0,0,0-2.07.55,1.63,1.63,0,0,0-.69,1.3,1.51,1.51,0,0,0,.59,1.21,6.06,6.06,0,0,0,2.38.84,8.25,8.25,0,0,1,3.05,1.14,2.33,2.33,0,0,1,1,2,2.51,2.51,0,0,1-1.15,2.14,5.23,5.23,0,0,1-3.06.81,7.56,7.56,0,0,1-2.3-.33,5.47,5.47,0,0,1-1.8-.92v-2.13h1l.18,1.51a3.06,3.06,0,0,0,1.29.68,6.52,6.52,0,0,0,1.61.21,3.73,3.73,0,0,0,2.17-.56,1.63,1.63,0,0,0,.79-1.35,1.67,1.67,0,0,0-.66-1.3,5.71,5.71,0,0,0-2.38-.91,8.38,8.38,0,0,1-3-1.08,2.19,2.19,0,0,1-1-1.9,2.49,2.49,0,0,1,1.11-2.05,4.71,4.71,0,0,1,2.92-.84,6.92,6.92,0,0,1,2.29.36,4.79,4.79,0,0,1,1.7,1Z"/><path class="cls-3" d="M524.69,115.47a3.83,3.83,0,0,1-1.46,1.28,4.65,4.65,0,0,1-2.11.45,3.9,3.9,0,0,1-3.2-1.41,5.82,5.82,0,0,1-1.16-3.78v-.21a6.54,6.54,0,0,1,1.16-4,3.82,3.82,0,0,1,3.22-1.52,4.39,4.39,0,0,1,2.07.47,4.06,4.06,0,0,1,1.45,1.32v-5.26l-1.72-.13v-.87h3V116l1.72.13V117H524.8ZM518,112a5,5,0,0,0,.83,3,2.87,2.87,0,0,0,2.49,1.14,3.75,3.75,0,0,0,2-.51,3.51,3.51,0,0,0,1.27-1.4v-5a3.62,3.62,0,0,0-1.22-1.46,3.46,3.46,0,0,0-2.06-.57,2.79,2.79,0,0,0-2.5,1.27,5.8,5.8,0,0,0-.84,3.28Z"/><path class="cls-3" d="M529.59,111.56a5.42,5.42,0,0,1,1.38-3.83,5.23,5.23,0,0,1,7.33,0,5.42,5.42,0,0,1,1.38,3.83v.32a5.41,5.41,0,0,1-1.38,3.83,5.25,5.25,0,0,1-7.33,0,5.41,5.41,0,0,1-1.38-3.83Zm1.26.32a4.8,4.8,0,0,0,1,3.09,3.4,3.4,0,0,0,2.8,1.25,3.36,3.36,0,0,0,2.76-1.25,4.8,4.8,0,0,0,1-3.09v-.32a4.76,4.76,0,0,0-1-3.07,3.7,3.7,0,0,0-5.56,0,4.76,4.76,0,0,0-1,3.07Z"/><path class="cls-3" d="M553.19,102.78a5.57,5.57,0,0,1,3.74,1.14,3.76,3.76,0,0,1,1.32,3,3.8,3.8,0,0,1-1.32,3,5.62,5.62,0,0,1-3.74,1.13h-3.5V116l1.71.13V117h-4.69v-.86l1.72-.13V103.77l-1.72-.12v-.87h6.48Zm-3.5,7.31h3.5a4.07,4.07,0,0,0,2.85-.89,3,3,0,0,0,1-2.25,3,3,0,0,0-.94-2.27,4,4,0,0,0-2.86-.91h-3.5Z"/><path class="cls-3" d="M565.34,117.2a4.73,4.73,0,0,1-3.57-1.46,5.12,5.12,0,0,1-1.41-3.71v-.54a5.31,5.31,0,0,1,1.4-3.76,4.51,4.51,0,0,1,3.41-1.5,4.38,4.38,0,0,1,3.3,1.24,4.49,4.49,0,0,1,1.2,3.28v1h-8.06V112a4.46,4.46,0,0,0,1,3,3.39,3.39,0,0,0,2.7,1.21,5.92,5.92,0,0,0,2-.31,3.94,3.94,0,0,0,1.42-.87l.54.8a4.68,4.68,0,0,1-1.62,1A6.85,6.85,0,0,1,565.34,117.2Zm-.17-10a3.14,3.14,0,0,0-2.35,1,4,4,0,0,0-1.11,2.49l0,.05h6.68v-.3a3.24,3.24,0,0,0-.87-2.3A3.1,3.1,0,0,0,565.17,107.23Z"/><path class="cls-3" d="M571.69,116.14l1.72-.13v-8.58l-1.72-.13v-.87h2.84l.12,1.85a3.78,3.78,0,0,1,1.48-1.51,4.33,4.33,0,0,1,2.21-.54,3.64,3.64,0,0,1,2.82,1,4.71,4.71,0,0,1,1,3.28V116l1.72.13V117h-4.7v-.86l1.72-.13v-5.44a3.67,3.67,0,0,0-.73-2.57,2.8,2.8,0,0,0-2.09-.75,3.43,3.43,0,0,0-2.16.65,3.56,3.56,0,0,0-1.21,1.72V116l1.72.13V117h-4.71Z"/><path class="cls-3" d="M594.11,109.69h-1l-.15-1.49a3.14,3.14,0,0,0-1.19-.72,5.31,5.31,0,0,0-1.66-.25,3.27,3.27,0,0,0-2.08.55,1.63,1.63,0,0,0-.69,1.3,1.5,1.5,0,0,0,.6,1.21,6.06,6.06,0,0,0,2.38.84,8.19,8.19,0,0,1,3,1.14,2.32,2.32,0,0,1,1,2,2.52,2.52,0,0,1-1.16,2.14,5.22,5.22,0,0,1-3.05.81,7.67,7.67,0,0,1-2.31-.33A5.32,5.32,0,0,1,586,116v-2.13h1l.18,1.51a3,3,0,0,0,1.28.68,6.66,6.66,0,0,0,1.62.21,3.71,3.71,0,0,0,2.16-.56,1.61,1.61,0,0,0,.79-1.35,1.67,1.67,0,0,0-.66-1.3,5.66,5.66,0,0,0-2.38-.91,8.45,8.45,0,0,1-3-1.08,2.2,2.2,0,0,1-1-1.9,2.51,2.51,0,0,1,1.1-2.05,4.74,4.74,0,0,1,2.93-.84,7,7,0,0,1,2.29.36,4.74,4.74,0,0,1,1.69,1Z"/><path class="cls-3" d="M604.52,117q-.12-.54-.18-.93a7,7,0,0,1-.05-.79,4.83,4.83,0,0,1-1.69,1.37,5,5,0,0,1-2.37.55,3.82,3.82,0,0,1-2.59-.8,2.71,2.71,0,0,1-.92-2.17,2.62,2.62,0,0,1,1.36-2.32,6.9,6.9,0,0,1,3.69-.86h2.52v-1.4a2.17,2.17,0,0,0-.78-1.77,3.39,3.39,0,0,0-2.2-.65,6,6,0,0,0-1.74.24,4.12,4.12,0,0,0-1.31.65l-.11,1.42h-1v-2a6.92,6.92,0,0,1,1.89-.91,7.56,7.56,0,0,1,2.35-.36,4.86,4.86,0,0,1,3,.89,3.07,3.07,0,0,1,1.15,2.55v5.2c0,.21,0,.42,0,.62a5.41,5.41,0,0,0,.07.58l1.14.07V117Zm-4.15-.83a4.83,4.83,0,0,0,2.41-.59,3.6,3.6,0,0,0,1.51-1.51V112h-2.54a5,5,0,0,0-2.75.66,1.94,1.94,0,0,0-1,1.66,1.68,1.68,0,0,0,.64,1.37A2.7,2.7,0,0,0,600.37,116.17Z"/><path class="cls-3" d="M608.29,107.3v-.87h2.84l.11,1.75a3.9,3.9,0,0,1,1.47-1.44,4.42,4.42,0,0,1,2.18-.51,3.76,3.76,0,0,1,2.18.6,3.24,3.24,0,0,1,1.26,1.8,4.17,4.17,0,0,1,1.47-1.76,4.11,4.11,0,0,1,2.32-.64,3.6,3.6,0,0,1,2.83,1.13,5.15,5.15,0,0,1,1,3.47V116l1.72.14V117H623v-.86l1.72-.14v-5.19a4,4,0,0,0-.75-2.75,2.65,2.65,0,0,0-2.07-.81,2.92,2.92,0,0,0-2.27.87,4.06,4.06,0,0,0-1,2.22.61.61,0,0,0,0,.14V116l1.72.13V117h-4.7v-.86l1.72-.13v-5.2a4,4,0,0,0-.76-2.73,2.66,2.66,0,0,0-2.07-.83,3.07,3.07,0,0,0-3.24,2.32V116l1.72.13V117h-4.7v-.86L610,116v-8.58Z"/><path class="cls-3" d="M634.15,117.2a4.73,4.73,0,0,1-3.57-1.46,5.12,5.12,0,0,1-1.41-3.71v-.54a5.27,5.27,0,0,1,1.41-3.76,4.48,4.48,0,0,1,3.4-1.5,4.37,4.37,0,0,1,3.3,1.24,4.49,4.49,0,0,1,1.2,3.28v1h-8.06V112a4.46,4.46,0,0,0,1,3,3.4,3.4,0,0,0,2.7,1.21,5.88,5.88,0,0,0,2-.31,3.86,3.86,0,0,0,1.42-.87l.54.8a4.68,4.68,0,0,1-1.62,1A6.85,6.85,0,0,1,634.15,117.2Zm-.17-10a3.14,3.14,0,0,0-2.35,1,4,4,0,0,0-1.11,2.49l0,.05h6.69v-.3a3.25,3.25,0,0,0-.88-2.3A3.09,3.09,0,0,0,634,107.23Z"/><path class="cls-3" d="M640.51,116.14l1.71-.13v-8.58l-1.71-.13v-.87h2.83l.12,1.85a3.78,3.78,0,0,1,1.48-1.51,4.33,4.33,0,0,1,2.21-.54,3.63,3.63,0,0,1,2.82,1,4.71,4.71,0,0,1,1,3.28V116l1.71.13V117H648v-.86l1.72-.13v-5.44A3.62,3.62,0,0,0,649,108a2.8,2.8,0,0,0-2.09-.75,3.45,3.45,0,0,0-2.16.65,3.63,3.63,0,0,0-1.21,1.72V116l1.72.13V117h-4.7Z"/><path class="cls-3" d="M657.55,103.73v2.7h2.51v1h-2.51v6.88a2.14,2.14,0,0,0,.4,1.47,1.41,1.41,0,0,0,1.08.44,5.74,5.74,0,0,0,.6,0,6.66,6.66,0,0,0,.67-.08l.19.87a3.46,3.46,0,0,1-.77.19,5.49,5.49,0,0,1-.91.07,2.46,2.46,0,0,1-1.87-.7,3.13,3.13,0,0,1-.67-2.23v-6.88h-2v-1h2v-2.7Z"/><path class="cls-3" d="M662.17,111.56a5.42,5.42,0,0,1,1.38-3.83,5.23,5.23,0,0,1,7.33,0,5.42,5.42,0,0,1,1.38,3.83v.32a5.41,5.41,0,0,1-1.38,3.83,4.69,4.69,0,0,1-3.65,1.49,4.76,4.76,0,0,1-3.68-1.49,5.41,5.41,0,0,1-1.38-3.83Zm1.26.32a4.85,4.85,0,0,0,1,3.09,3.4,3.4,0,0,0,2.8,1.25A3.36,3.36,0,0,0,670,115a4.8,4.8,0,0,0,1-3.09v-.32a4.76,4.76,0,0,0-1-3.07,3.7,3.7,0,0,0-5.56,0,4.82,4.82,0,0,0-1,3.07Z"/><path class="cls-3" d="M233,131.23h-1l-.18-2.16a4.49,4.49,0,0,0-1.6-1.09,5.84,5.84,0,0,0-2.26-.41,5.17,5.17,0,0,0-4.09,1.73,6.52,6.52,0,0,0-1.52,4.48v.2a6.64,6.64,0,0,0,1.5,4.49,5,5,0,0,0,4,1.75,6.39,6.39,0,0,0,2.36-.42,4.44,4.44,0,0,0,1.66-1.09l.18-2.16h1v2.5a5.32,5.32,0,0,1-2.1,1.54,7.43,7.43,0,0,1-3.08.61,6.28,6.28,0,0,1-4.83-2,7.38,7.38,0,0,1-1.88-5.2v-.18a7.39,7.39,0,0,1,1.87-5.2,6.37,6.37,0,0,1,4.9-2,7.3,7.3,0,0,1,3.06.62,5.6,5.6,0,0,1,2.06,1.54Z"/><path class="cls-3" d="M235.28,135.56a5.43,5.43,0,0,1,1.39-3.83,5.23,5.23,0,0,1,7.33,0,5.42,5.42,0,0,1,1.38,3.83v.32a5.41,5.41,0,0,1-1.38,3.83,5.25,5.25,0,0,1-7.33,0,5.41,5.41,0,0,1-1.39-3.83Zm1.27.32a4.8,4.8,0,0,0,1,3.09,3.4,3.4,0,0,0,2.8,1.25,3.36,3.36,0,0,0,2.76-1.25,4.8,4.8,0,0,0,1-3.09v-.32a4.71,4.71,0,0,0-1-3.07,3.69,3.69,0,0,0-5.55,0,4.76,4.76,0,0,0-1,3.07Z"/><path class="cls-3" d="M247.16,131.3v-.87H250l.11,1.75a3.9,3.9,0,0,1,1.47-1.44,4.42,4.42,0,0,1,2.18-.51,3.76,3.76,0,0,1,2.18.6,3.19,3.19,0,0,1,1.26,1.8,3.94,3.94,0,0,1,3.8-2.4,3.59,3.59,0,0,1,2.82,1.13,5.15,5.15,0,0,1,1,3.47V140l1.72.14V141h-4.71v-.86l1.72-.14v-5.19a4,4,0,0,0-.75-2.75,2.65,2.65,0,0,0-2.07-.81,2.92,2.92,0,0,0-2.27.87,4.06,4.06,0,0,0-1,2.22.61.61,0,0,0,0,.14V140l1.72.13V141h-4.7v-.86l1.72-.13v-5.2a4,4,0,0,0-.76-2.73,2.66,2.66,0,0,0-2.07-.83,3.09,3.09,0,0,0-3.24,2.32V140l1.72.13V141h-4.7v-.86l1.72-.13v-8.58Z"/><path class="cls-3" d="M267.76,131.3v-.87h2.77l.16,1.64a3.94,3.94,0,0,1,1.48-1.36,4.41,4.41,0,0,1,2.11-.48,3.83,3.83,0,0,1,3.22,1.52,6.54,6.54,0,0,1,1.16,4.05V136a5.79,5.79,0,0,1-1.16,3.78,3.91,3.91,0,0,1-3.2,1.41,4.92,4.92,0,0,1-2.1-.42,3.87,3.87,0,0,1-1.47-1.21v4.49l1.72.13v.87h-4.69v-.87l1.71-.13V131.43Zm9.63,4.5a5.69,5.69,0,0,0-.86-3.28,2.86,2.86,0,0,0-2.53-1.27,3.54,3.54,0,0,0-2.07.56,3.48,3.48,0,0,0-1.2,1.46v5.08a3.25,3.25,0,0,0,1.25,1.37,3.85,3.85,0,0,0,2,.5,2.93,2.93,0,0,0,2.51-1.16,4.93,4.93,0,0,0,.86-3.05Z"/><path class="cls-3" d="M289.1,139.26a3.74,3.74,0,0,1-1.47,1.43,4.53,4.53,0,0,1-2.2.51,3.62,3.62,0,0,1-2.82-1.13,5.16,5.16,0,0,1-1-3.52v-5.12l-1.41-.13v-.87h2.67v6.14a4.28,4.28,0,0,0,.71,2.78,2.5,2.5,0,0,0,2,.84,4,4,0,0,0,2.28-.59,3.08,3.08,0,0,0,1.2-1.62v-6.55l-1.63-.13v-.87h2.89V140l1.53.13V141h-2.63Z"/><path class="cls-3" d="M296.61,127.73v2.7h2.51v1h-2.51v6.88a2.14,2.14,0,0,0,.4,1.47,1.45,1.45,0,0,0,1.09.44,5.68,5.68,0,0,0,.59,0,6.34,6.34,0,0,0,.67-.08l.19.87a3.46,3.46,0,0,1-.77.19,5.49,5.49,0,0,1-.91.07,2.46,2.46,0,0,1-1.87-.7,3.18,3.18,0,0,1-.67-2.23v-6.88h-2v-1h2v-2.7Z"/><path class="cls-3" d="M309.32,141a7.45,7.45,0,0,1-.18-.93,5.25,5.25,0,0,1-.06-.79,4.89,4.89,0,0,1-1.68,1.37,5.06,5.06,0,0,1-2.38.55,3.84,3.84,0,0,1-2.59-.8,2.74,2.74,0,0,1-.92-2.17,2.64,2.64,0,0,1,1.36-2.32,6.9,6.9,0,0,1,3.69-.86h2.52v-1.4a2.17,2.17,0,0,0-.78-1.77,3.37,3.37,0,0,0-2.2-.65,5.88,5.88,0,0,0-1.73.24,4.07,4.07,0,0,0-1.32.65l-.1,1.42H301.9v-2a6.84,6.84,0,0,1,1.9-.91,7.45,7.45,0,0,1,2.34-.36,4.86,4.86,0,0,1,3,.89,3,3,0,0,1,1.15,2.55v5.2c0,.21,0,.42,0,.62a5.42,5.42,0,0,0,.06.58l1.14.07V141Zm-4.16-.83a4.87,4.87,0,0,0,2.42-.59,3.57,3.57,0,0,0,1.5-1.51V136h-2.54a5,5,0,0,0-2.74.66,1.92,1.92,0,0,0-1,1.66,1.66,1.66,0,0,0,.64,1.37A2.67,2.67,0,0,0,305.16,140.17Z"/><path class="cls-3" d="M318.23,140.22a3.82,3.82,0,0,0,2.21-.67,2.12,2.12,0,0,0,1-1.84h1.12l0,0a2.82,2.82,0,0,1-1.26,2.46,5,5,0,0,1-3,1,4.48,4.48,0,0,1-3.6-1.48,5.59,5.59,0,0,1-1.27-3.8v-.41a5.6,5.6,0,0,1,1.27-3.79,4.48,4.48,0,0,1,3.59-1.49,6.27,6.27,0,0,1,2.41.46,4.79,4.79,0,0,1,1.78,1.25l.06,2.31h-1.08l-.2-1.88a3.6,3.6,0,0,0-1.26-.83,4.38,4.38,0,0,0-1.71-.31,3.14,3.14,0,0,0-2.72,1.22,5.06,5.06,0,0,0-.88,3.06v.41a5.06,5.06,0,0,0,.88,3.08A3.13,3.13,0,0,0,318.23,140.22Z"/><path class="cls-3" d="M324.81,140.14l1.72-.13v-8.58l-1.72-.13v-.87h3V140l1.72.13V141h-4.69Zm3-12.74h-1.25v-1.64h1.25Z"/><path class="cls-3" d="M331.62,135.56a5.42,5.42,0,0,1,1.38-3.83,5.23,5.23,0,0,1,7.33,0,5.42,5.42,0,0,1,1.38,3.83v.32a5.45,5.45,0,0,1-1.37,3.83,5.26,5.26,0,0,1-7.34,0,5.41,5.41,0,0,1-1.38-3.83Zm1.27.32a4.8,4.8,0,0,0,1,3.09,3.72,3.72,0,0,0,5.56,0,4.85,4.85,0,0,0,1-3.09v-.32a4.77,4.77,0,0,0-1-3.07,3.69,3.69,0,0,0-5.55,0,4.76,4.76,0,0,0-1,3.07Z"/><path class="cls-3" d="M343.54,140.14l1.72-.13v-8.58l-1.72-.13v-.87h2.83l.12,1.85a3.84,3.84,0,0,1,1.48-1.51,4.33,4.33,0,0,1,2.21-.54,3.67,3.67,0,0,1,2.83,1.05,4.76,4.76,0,0,1,1,3.28V140l1.72.13V141H351v-.86l1.72-.13v-5.44A3.62,3.62,0,0,0,352,132a2.78,2.78,0,0,0-2.08-.75,3.46,3.46,0,0,0-2.17.65,3.63,3.63,0,0,0-1.21,1.72V140l1.72.13V141h-4.7Z"/><path class="cls-3" d="M365.56,141a7.45,7.45,0,0,1-.18-.93,5.24,5.24,0,0,1-.05-.79,5.13,5.13,0,0,1-4.07,1.92,3.84,3.84,0,0,1-2.59-.8,2.74,2.74,0,0,1-.92-2.17,2.64,2.64,0,0,1,1.36-2.32,6.91,6.91,0,0,1,3.7-.86h2.52v-1.4a2.18,2.18,0,0,0-.79-1.77,3.37,3.37,0,0,0-2.2-.65,5.88,5.88,0,0,0-1.73.24,4.07,4.07,0,0,0-1.32.65l-.1,1.42h-1.05v-2a6.84,6.84,0,0,1,1.9-.91,7.45,7.45,0,0,1,2.34-.36,4.86,4.86,0,0,1,3,.89,3,3,0,0,1,1.15,2.55v5.2c0,.21,0,.42,0,.62a5.42,5.42,0,0,0,.06.58l1.14.07V141Zm-4.16-.83a4.87,4.87,0,0,0,2.42-.59,3.66,3.66,0,0,0,1.51-1.51V136h-2.55a5,5,0,0,0-2.74.66,1.92,1.92,0,0,0-1,1.66,1.66,1.66,0,0,0,.64,1.37A2.67,2.67,0,0,0,361.4,140.17Z"/><path class="cls-3" d="M369.34,126.63v-.87h3V140l1.72.13V141h-4.7v-.86l1.72-.13V126.76Z"/><path class="cls-3" d="M381.28,135.8a6.54,6.54,0,0,1,1.16-4.05,3.82,3.82,0,0,1,3.22-1.52,4.43,4.43,0,0,1,2,.46,4,4,0,0,1,1.45,1.3l.13-1.56h1.1v13.63l1.72.13v.87h-4.7v-.87l1.72-.13v-4.45a3.82,3.82,0,0,1-1.46,1.18,4.78,4.78,0,0,1-2,.41,3.9,3.9,0,0,1-3.2-1.41,5.82,5.82,0,0,1-1.16-3.78Zm1.28.21a5.09,5.09,0,0,0,.83,3.06,2.88,2.88,0,0,0,2.49,1.15,3.74,3.74,0,0,0,2-.5,3.56,3.56,0,0,0,1.26-1.35v-5.16a3.93,3.93,0,0,0-1.23-1.42,3.4,3.4,0,0,0-2-.56,2.79,2.79,0,0,0-2.5,1.28,5.84,5.84,0,0,0-.84,3.29Z"/><path class="cls-3" d="M401.73,139.26a3.74,3.74,0,0,1-1.47,1.43,4.53,4.53,0,0,1-2.2.51,3.62,3.62,0,0,1-2.82-1.13,5.16,5.16,0,0,1-1-3.52v-5.12l-1.41-.13v-.87h2.67v6.14a4.28,4.28,0,0,0,.71,2.78,2.5,2.5,0,0,0,2,.84,4,4,0,0,0,2.28-.59,3.08,3.08,0,0,0,1.2-1.62v-6.55l-1.63-.13v-.87H403V140l1.53.13V141h-2.63Z"/><path class="cls-3" d="M411.37,141.2a4.74,4.74,0,0,1-3.57-1.46,5.12,5.12,0,0,1-1.41-3.71v-.54a5.27,5.27,0,0,1,1.41-3.76,4.49,4.49,0,0,1,3.4-1.5,4.37,4.37,0,0,1,3.3,1.24,4.49,4.49,0,0,1,1.2,3.28v1h-8.05V136a4.45,4.45,0,0,0,1,3,3.4,3.4,0,0,0,2.7,1.21,5.88,5.88,0,0,0,2-.31,4,4,0,0,0,1.43-.87l.53.8a4.68,4.68,0,0,1-1.62,1A6.81,6.81,0,0,1,411.37,141.2Zm-.17-10a3.14,3.14,0,0,0-2.35,1,4.15,4.15,0,0,0-1.11,2.49l0,0h6.69v-.3a3.21,3.21,0,0,0-.88-2.3A3.09,3.09,0,0,0,411.2,131.23Z"/><path class="cls-3" d="M428.24,141.2a4.72,4.72,0,0,1-3.56-1.46,5.08,5.08,0,0,1-1.42-3.71v-.54a5.27,5.27,0,0,1,1.41-3.76,4.49,4.49,0,0,1,3.4-1.5,4.37,4.37,0,0,1,3.3,1.24,4.46,4.46,0,0,1,1.21,3.28v1h-8.06V136a4.41,4.41,0,0,0,1,3,3.37,3.37,0,0,0,2.69,1.21,5.88,5.88,0,0,0,2-.31,4,4,0,0,0,1.43-.87l.54.8a4.64,4.64,0,0,1-1.63,1A6.77,6.77,0,0,1,428.24,141.2Zm-.17-10a3.11,3.11,0,0,0-2.34,1,4.1,4.1,0,0,0-1.12,2.49l0,0h6.69v-.3a3.24,3.24,0,0,0-.87-2.3A3.13,3.13,0,0,0,428.07,131.23Z"/><path class="cls-3" d="M443.11,133.69h-1l-.15-1.49a3.26,3.26,0,0,0-1.2-.72,5.22,5.22,0,0,0-1.66-.25,3.26,3.26,0,0,0-2.07.55,1.63,1.63,0,0,0-.69,1.3,1.51,1.51,0,0,0,.59,1.21,6.06,6.06,0,0,0,2.38.84,8.25,8.25,0,0,1,3.05,1.14,2.31,2.31,0,0,1,1,2,2.51,2.51,0,0,1-1.15,2.14,5.23,5.23,0,0,1-3.06.81,7.56,7.56,0,0,1-2.3-.33A5.47,5.47,0,0,1,435,140v-2.13h1l.17,1.51a3.06,3.06,0,0,0,1.29.68,6.52,6.52,0,0,0,1.61.21,3.73,3.73,0,0,0,2.17-.56,1.63,1.63,0,0,0,.79-1.35,1.67,1.67,0,0,0-.66-1.3,5.66,5.66,0,0,0-2.38-.91,8.38,8.38,0,0,1-3-1.08,2.19,2.19,0,0,1-1-1.9,2.49,2.49,0,0,1,1.11-2.05,4.71,4.71,0,0,1,2.92-.84,6.92,6.92,0,0,1,2.29.36,4.79,4.79,0,0,1,1.7,1Z"/><path class="cls-3" d="M448.54,127.73v2.7h2.51v1h-2.51v6.88a2.13,2.13,0,0,0,.41,1.47,1.41,1.41,0,0,0,1.08.44,5.68,5.68,0,0,0,.59,0,6.34,6.34,0,0,0,.67-.08l.19.87a3.33,3.33,0,0,1-.77.19,5.46,5.46,0,0,1-.9.07,2.48,2.48,0,0,1-1.88-.7,3.18,3.18,0,0,1-.66-2.23v-6.88h-2v-1h2v-2.7Z"/><path class="cls-3" d="M461.25,141q-.12-.54-.18-.93a7,7,0,0,1-.05-.79,4.93,4.93,0,0,1-1.69,1.37,5,5,0,0,1-2.37.55,3.85,3.85,0,0,1-2.6-.8,2.73,2.73,0,0,1-.91-2.17,2.62,2.62,0,0,1,1.36-2.32,6.85,6.85,0,0,1,3.69-.86H461v-1.4a2.15,2.15,0,0,0-.79-1.77,3.37,3.37,0,0,0-2.2-.65,5.88,5.88,0,0,0-1.73.24,4,4,0,0,0-1.31.65l-.11,1.42h-1v-2a6.65,6.65,0,0,1,1.89-.91,7.51,7.51,0,0,1,2.35-.36,4.83,4.83,0,0,1,3,.89,3,3,0,0,1,1.15,2.55v5.2c0,.21,0,.42,0,.62a3.68,3.68,0,0,0,.07.58l1.14.07V141Zm-4.15-.83a4.86,4.86,0,0,0,2.41-.59,3.6,3.6,0,0,0,1.51-1.51V136h-2.54a5,5,0,0,0-2.75.66,1.92,1.92,0,0,0-1,1.66,1.66,1.66,0,0,0,.64,1.37A2.68,2.68,0,0,0,457.1,140.17Z"/><path class="cls-3" d="M468,130.43l.16,1.76v.12a3.71,3.71,0,0,1,1.32-1.52,3.52,3.52,0,0,1,2-.56,3.57,3.57,0,0,1,.47,0l.37.07-.17,1.1-.93-.06a3,3,0,0,0-2,.62,3.38,3.38,0,0,0-1.09,1.7V140l1.72.13V141h-4.7v-.86l1.72-.13v-8.58l-1.72-.13v-.87H468Z"/><path class="cls-3" d="M473.88,140.14l1.72-.13v-8.58l-1.72-.13v-.87h3V140l1.72.13V141h-4.7Zm3-12.74H475.6v-1.64h1.26Z"/><path class="cls-3" d="M488.57,141q-.12-.54-.18-.93a7,7,0,0,1-.05-.79,4.83,4.83,0,0,1-1.69,1.37,5,5,0,0,1-2.37.55,3.82,3.82,0,0,1-2.59-.8,2.74,2.74,0,0,1-.92-2.17,2.62,2.62,0,0,1,1.36-2.32,6.9,6.9,0,0,1,3.69-.86h2.52v-1.4a2.17,2.17,0,0,0-.78-1.77,3.39,3.39,0,0,0-2.2-.65,6,6,0,0,0-1.74.24,4.12,4.12,0,0,0-1.31.65l-.11,1.42h-1v-2a6.92,6.92,0,0,1,1.89-.91,7.56,7.56,0,0,1,2.35-.36,4.86,4.86,0,0,1,3,.89,3.07,3.07,0,0,1,1.15,2.55v5.2c0,.21,0,.42,0,.62a5.41,5.41,0,0,0,.07.58l1.14.07V141Zm-4.15-.83a4.83,4.83,0,0,0,2.41-.59,3.6,3.6,0,0,0,1.51-1.51V136H485.8a5,5,0,0,0-2.75.66,1.94,1.94,0,0,0-1,1.66,1.68,1.68,0,0,0,.64,1.37A2.7,2.7,0,0,0,484.42,140.17Z"/><path class="cls-3" d="M492.34,131.3v-.87h2.84l.11,1.75a3.9,3.9,0,0,1,1.47-1.44,4.42,4.42,0,0,1,2.18-.51,3.76,3.76,0,0,1,2.18.6,3.19,3.19,0,0,1,1.26,1.8,3.94,3.94,0,0,1,3.8-2.4,3.59,3.59,0,0,1,2.82,1.13,5.15,5.15,0,0,1,1,3.47V140l1.72.14V141H507v-.86l1.72-.14v-5.19a4,4,0,0,0-.75-2.75,2.65,2.65,0,0,0-2.07-.81,2.92,2.92,0,0,0-2.27.87,4.06,4.06,0,0,0-1,2.22.61.61,0,0,0,0,.14V140l1.72.13V141h-4.7v-.86l1.72-.13v-5.2a4,4,0,0,0-.76-2.73,2.66,2.66,0,0,0-2.07-.83,3.09,3.09,0,0,0-3.24,2.32V140l1.72.13V141h-4.7v-.86l1.72-.13v-8.58Z"/><path class="cls-3" d="M518.19,131.3v-.87H521l.16,1.64a4,4,0,0,1,1.48-1.36,4.44,4.44,0,0,1,2.11-.48,3.82,3.82,0,0,1,3.22,1.52,6.54,6.54,0,0,1,1.16,4.05V136a5.79,5.79,0,0,1-1.16,3.78,3.91,3.91,0,0,1-3.19,1.41,4.93,4.93,0,0,1-2.11-.42,3.87,3.87,0,0,1-1.47-1.21v4.49l1.72.13v.87h-4.69v-.87l1.72-.13V131.43Zm9.64,4.5a5.69,5.69,0,0,0-.87-3.28,2.86,2.86,0,0,0-2.53-1.27,3.31,3.31,0,0,0-3.27,2v5.08a3.31,3.31,0,0,0,1.25,1.37,3.9,3.9,0,0,0,2,.5,3,3,0,0,0,2.52-1.16,5,5,0,0,0,.86-3.05Z"/><path class="cls-3" d="M533.88,130.43l.16,1.76v.12a3.71,3.71,0,0,1,1.32-1.52,3.52,3.52,0,0,1,2-.56,3.57,3.57,0,0,1,.47,0l.37.07-.17,1.1-.94-.06a3,3,0,0,0-2,.62,3.31,3.31,0,0,0-1.09,1.7V140l1.72.13V141h-4.7v-.86l1.72-.13v-8.58l-1.72-.13v-.87h2.82Z"/><path class="cls-3" d="M544.66,141.2a4.73,4.73,0,0,1-3.57-1.46,5.12,5.12,0,0,1-1.41-3.71v-.54a5.27,5.27,0,0,1,1.41-3.76,4.48,4.48,0,0,1,3.4-1.5,4.37,4.37,0,0,1,3.3,1.24,4.49,4.49,0,0,1,1.2,3.28v1h-8.06V136a4.46,4.46,0,0,0,1,3,3.4,3.4,0,0,0,2.7,1.21,5.92,5.92,0,0,0,2-.31,3.86,3.86,0,0,0,1.42-.87l.54.8a4.68,4.68,0,0,1-1.62,1A6.85,6.85,0,0,1,544.66,141.2Zm-.17-10a3.14,3.14,0,0,0-2.35,1,4,4,0,0,0-1.11,2.49l0,0h6.69v-.3a3.25,3.25,0,0,0-.88-2.3A3.09,3.09,0,0,0,544.49,131.23Z"/><path class="cls-3" d="M559.53,133.69h-1l-.15-1.49a3.14,3.14,0,0,0-1.19-.72,5.27,5.27,0,0,0-1.66-.25,3.27,3.27,0,0,0-2.08.55,1.63,1.63,0,0,0-.69,1.3,1.5,1.5,0,0,0,.6,1.21,6.06,6.06,0,0,0,2.38.84,8.32,8.32,0,0,1,3,1.14,2.33,2.33,0,0,1,1,2,2.52,2.52,0,0,1-1.16,2.14,5.22,5.22,0,0,1-3.05.81,7.56,7.56,0,0,1-2.3-.33,5.28,5.28,0,0,1-1.8-.92v-2.13h1l.18,1.51a3,3,0,0,0,1.28.68,6.66,6.66,0,0,0,1.62.21,3.71,3.71,0,0,0,2.16-.56,1.61,1.61,0,0,0,.79-1.35,1.67,1.67,0,0,0-.66-1.3,5.66,5.66,0,0,0-2.37-.91,8.44,8.44,0,0,1-3-1.08,2.2,2.2,0,0,1-1-1.9,2.51,2.51,0,0,1,1.1-2.05,4.74,4.74,0,0,1,2.93-.84,7,7,0,0,1,2.29.36,4.74,4.74,0,0,1,1.69,1Z"/><path class="cls-3" d="M567.09,141.2a4.73,4.73,0,0,1-3.57-1.46,5.12,5.12,0,0,1-1.41-3.71v-.54a5.27,5.27,0,0,1,1.41-3.76,4.49,4.49,0,0,1,3.4-1.5,4.37,4.37,0,0,1,3.3,1.24,4.49,4.49,0,0,1,1.2,3.28v1h-8.06V136a4.46,4.46,0,0,0,1,3,3.4,3.4,0,0,0,2.7,1.21,5.88,5.88,0,0,0,2-.31,3.86,3.86,0,0,0,1.42-.87l.54.8a4.68,4.68,0,0,1-1.62,1A6.85,6.85,0,0,1,567.09,141.2Zm-.17-10a3.14,3.14,0,0,0-2.35,1,4,4,0,0,0-1.11,2.49l0,0h6.69v-.3a3.25,3.25,0,0,0-.88-2.3A3.09,3.09,0,0,0,566.92,131.23Z"/><path class="cls-3" d="M573.45,140.14l1.71-.13v-8.58l-1.71-.13v-.87h2.83l.12,1.85a3.78,3.78,0,0,1,1.48-1.51,4.33,4.33,0,0,1,2.21-.54,3.67,3.67,0,0,1,2.83,1.05,4.76,4.76,0,0,1,1,3.28V140l1.71.13V141h-4.7v-.86l1.72-.13v-5.44a3.62,3.62,0,0,0-.73-2.57,2.79,2.79,0,0,0-2.08-.75,3.46,3.46,0,0,0-2.17.65,3.63,3.63,0,0,0-1.21,1.72V140l1.72.13V141h-4.7Z"/><path class="cls-3" d="M590.49,127.73v2.7H593v1h-2.51v6.88a2.14,2.14,0,0,0,.4,1.47,1.41,1.41,0,0,0,1.08.44,5.74,5.74,0,0,0,.6,0,6.66,6.66,0,0,0,.67-.08l.19.87a3.46,3.46,0,0,1-.77.19,5.49,5.49,0,0,1-.91.07,2.46,2.46,0,0,1-1.87-.7,3.13,3.13,0,0,1-.67-2.23v-6.88h-2v-1h2v-2.7Z"/><path class="cls-3" d="M600.35,141.2a4.74,4.74,0,0,1-3.57-1.46,5.12,5.12,0,0,1-1.41-3.71v-.54a5.27,5.27,0,0,1,1.41-3.76,4.49,4.49,0,0,1,3.4-1.5,4.37,4.37,0,0,1,3.3,1.24,4.49,4.49,0,0,1,1.2,3.28v1h-8V136a4.45,4.45,0,0,0,1,3,3.4,3.4,0,0,0,2.7,1.21,5.88,5.88,0,0,0,2-.31,4,4,0,0,0,1.43-.87l.53.8a4.59,4.59,0,0,1-1.62,1A6.77,6.77,0,0,1,600.35,141.2Zm-.17-10a3.14,3.14,0,0,0-2.35,1,4.15,4.15,0,0,0-1.11,2.49l0,0h6.69v-.3a3.21,3.21,0,0,0-.88-2.3A3.09,3.09,0,0,0,600.18,131.23Z"/><path class="cls-3" d="M615.22,133.69h-1L614,132.2a3.26,3.26,0,0,0-1.2-.72,5.27,5.27,0,0,0-1.66-.25,3.26,3.26,0,0,0-2.07.55,1.63,1.63,0,0,0-.69,1.3,1.49,1.49,0,0,0,.59,1.21,6.06,6.06,0,0,0,2.38.84,8.25,8.25,0,0,1,3.05,1.14,2.33,2.33,0,0,1,1,2,2.54,2.54,0,0,1-1.15,2.14,5.25,5.25,0,0,1-3.06.81,7.56,7.56,0,0,1-2.3-.33,5.47,5.47,0,0,1-1.8-.92v-2.13h1l.18,1.51a3.09,3.09,0,0,0,1.28.68,6.66,6.66,0,0,0,1.62.21,3.67,3.67,0,0,0,2.16-.56,1.61,1.61,0,0,0,.79-1.35,1.69,1.69,0,0,0-.65-1.3,5.71,5.71,0,0,0-2.38-.91,8.3,8.3,0,0,1-3-1.08,2.19,2.19,0,0,1-1-1.9,2.49,2.49,0,0,1,1.11-2.05,4.71,4.71,0,0,1,2.92-.84,7,7,0,0,1,2.29.36,4.88,4.88,0,0,1,1.7,1Z"/><path class="cls-3" d="M622.77,140.14l1.72-.13v-8.58l-1.72-.13v-.87h2.84l.11,1.85a3.84,3.84,0,0,1,1.48-1.51,4.36,4.36,0,0,1,2.21-.54,3.67,3.67,0,0,1,2.83,1.05,4.71,4.71,0,0,1,1,3.28V140l1.72.13V141h-4.71v-.86l1.72-.13v-5.44a3.62,3.62,0,0,0-.73-2.57,2.78,2.78,0,0,0-2.08-.75,3.46,3.46,0,0,0-2.17.65,3.63,3.63,0,0,0-1.21,1.72V140l1.72.13V141h-4.7Z"/><path class="cls-3" d="M636.81,135.56a5.42,5.42,0,0,1,1.38-3.83,5.23,5.23,0,0,1,7.33,0,5.42,5.42,0,0,1,1.38,3.83v.32a5.41,5.41,0,0,1-1.38,3.83,5.25,5.25,0,0,1-7.33,0,5.41,5.41,0,0,1-1.38-3.83Zm1.26.32a4.8,4.8,0,0,0,1,3.09,3.4,3.4,0,0,0,2.8,1.25,3.36,3.36,0,0,0,2.76-1.25,4.8,4.8,0,0,0,1-3.09v-.32a4.76,4.76,0,0,0-1-3.07,3.7,3.7,0,0,0-5.56,0,4.76,4.76,0,0,0-1,3.07Z"/><path class="cls-3" d="M225.93,164.22a3.83,3.83,0,0,0,2.22-.67,2.11,2.11,0,0,0,.95-1.84h1.12l0,0a2.82,2.82,0,0,1-1.26,2.46,5,5,0,0,1-3,1,4.48,4.48,0,0,1-3.6-1.48,5.59,5.59,0,0,1-1.27-3.8v-.41a5.6,5.6,0,0,1,1.27-3.79,4.48,4.48,0,0,1,3.59-1.49,6.36,6.36,0,0,1,2.42.46,4.88,4.88,0,0,1,1.78,1.25l0,2.31H229.1l-.21-1.88a3.42,3.42,0,0,0-1.26-.83,4.38,4.38,0,0,0-1.71-.31,3.15,3.15,0,0,0-2.72,1.22,5.13,5.13,0,0,0-.88,3.06v.41a5.13,5.13,0,0,0,.88,3.08A3.13,3.13,0,0,0,225.93,164.22Z"/><path class="cls-3" d="M232.6,159.56a5.42,5.42,0,0,1,1.38-3.83,5.23,5.23,0,0,1,7.33,0,5.42,5.42,0,0,1,1.38,3.83v.32a5.41,5.41,0,0,1-1.38,3.83,4.71,4.71,0,0,1-3.65,1.49,4.76,4.76,0,0,1-3.68-1.49,5.41,5.41,0,0,1-1.38-3.83Zm1.26.32a4.8,4.8,0,0,0,1,3.09,3.4,3.4,0,0,0,2.8,1.25,3.36,3.36,0,0,0,2.76-1.25,4.8,4.8,0,0,0,1-3.09v-.32a4.76,4.76,0,0,0-1-3.07,3.7,3.7,0,0,0-5.56,0,4.76,4.76,0,0,0-1,3.07Z"/><path class="cls-3" d="M244.51,164.14l1.72-.13v-8.58l-1.72-.13v-.87h2.84l.12,1.85a3.71,3.71,0,0,1,1.48-1.51,4.33,4.33,0,0,1,2.21-.54,3.64,3.64,0,0,1,2.82,1.05,4.71,4.71,0,0,1,1,3.28V164l1.72.13V165H252v-.86l1.72-.13v-5.44A3.62,3.62,0,0,0,253,156a2.76,2.76,0,0,0-2.08-.75,3.48,3.48,0,0,0-2.17.65,3.61,3.61,0,0,0-1.2,1.72V164l1.72.13V165h-4.71Z"/><path class="cls-3" d="M261.55,151.73v2.7h2.51v1h-2.51v6.88a2.13,2.13,0,0,0,.41,1.47,1.41,1.41,0,0,0,1.08.44,5.88,5.88,0,0,0,.6,0c.19,0,.41,0,.67-.08l.19.87a3.46,3.46,0,0,1-.77.19,5.67,5.67,0,0,1-.91.07,2.44,2.44,0,0,1-1.87-.7,3.13,3.13,0,0,1-.67-2.23v-6.88h-2v-1h2v-2.7Z"/><path class="cls-3" d="M271.41,165.2a4.72,4.72,0,0,1-3.56-1.46,5.12,5.12,0,0,1-1.41-3.71v-.54a5.27,5.27,0,0,1,1.41-3.76,4.48,4.48,0,0,1,3.4-1.5,4.38,4.38,0,0,1,3.3,1.24,4.49,4.49,0,0,1,1.2,3.28v1h-8.06V160a4.41,4.41,0,0,0,1,3,3.38,3.38,0,0,0,2.69,1.21,6,6,0,0,0,2-.31,3.94,3.94,0,0,0,1.42-.87l.54.8a4.68,4.68,0,0,1-1.62,1A6.87,6.87,0,0,1,271.41,165.2Zm-.16-10a3.14,3.14,0,0,0-2.35,1,4,4,0,0,0-1.11,2.49l0,0h6.68v-.3a3.24,3.24,0,0,0-.87-2.3A3.1,3.1,0,0,0,271.25,155.23Z"/><path class="cls-3" d="M277.75,164.14,279,164l3.61-4.41-3.44-4.21-1.29-.11v-.87h3.87v.87l-1.18.06,2.72,3.39,2.73-3.4-1.17,0v-.87h3.87v.87l-1.27.11L284,159.62l3.59,4.41,1.29.11V165h-3.86v-.86l1.17,0-2.9-3.6-2.89,3.6,1.17,0V165h-3.86Z"/><path class="cls-3" d="M293.48,151.73v2.7H296v1h-2.51v6.88a2.14,2.14,0,0,0,.4,1.47,1.41,1.41,0,0,0,1.08.44,5.74,5.74,0,0,0,.6,0,6.66,6.66,0,0,0,.67-.08l.19.87a3.46,3.46,0,0,1-.77.19,5.58,5.58,0,0,1-.91.07,2.46,2.46,0,0,1-1.87-.7,3.13,3.13,0,0,1-.67-2.23v-6.88h-2v-1h2v-2.7Z"/><path class="cls-3" d="M298.1,159.56a5.42,5.42,0,0,1,1.38-3.83,5.23,5.23,0,0,1,7.33,0,5.42,5.42,0,0,1,1.38,3.83v.32a5.41,5.41,0,0,1-1.38,3.83,4.71,4.71,0,0,1-3.65,1.49,4.76,4.76,0,0,1-3.68-1.49,5.41,5.41,0,0,1-1.38-3.83Zm1.26.32a4.8,4.8,0,0,0,1,3.09,3.4,3.4,0,0,0,2.8,1.25,3.36,3.36,0,0,0,2.76-1.25,4.8,4.8,0,0,0,1-3.09v-.32a4.76,4.76,0,0,0-1-3.07,3.7,3.7,0,0,0-5.56,0,4.76,4.76,0,0,0-1,3.07Z"/><path class="cls-3" d="M323.43,163.47a3.78,3.78,0,0,1-1.47,1.28,4.65,4.65,0,0,1-2.11.45,3.91,3.91,0,0,1-3.2-1.41A5.82,5.82,0,0,1,315.5,160v-.21a6.53,6.53,0,0,1,1.15-4.05,3.83,3.83,0,0,1,3.22-1.52,4.33,4.33,0,0,1,2.07.47A4.09,4.09,0,0,1,323.4,156v-5.26l-1.72-.13v-.87h3V164l1.72.13V165h-2.85ZM316.77,160a5,5,0,0,0,.83,3,2.88,2.88,0,0,0,2.5,1.14,3.74,3.74,0,0,0,2-.51,3.53,3.53,0,0,0,1.28-1.4v-5a3.7,3.7,0,0,0-1.22-1.46,3.46,3.46,0,0,0-2.06-.57,2.81,2.81,0,0,0-2.51,1.27,5.8,5.8,0,0,0-.84,3.28Z"/><path class="cls-3" d="M336.2,165a7.45,7.45,0,0,1-.18-.93,5.24,5.24,0,0,1,0-.79,5.13,5.13,0,0,1-4.06,1.92,3.85,3.85,0,0,1-2.6-.8,2.74,2.74,0,0,1-.92-2.17,2.64,2.64,0,0,1,1.36-2.32,6.91,6.91,0,0,1,3.7-.86H336v-1.4a2.18,2.18,0,0,0-.79-1.77,3.37,3.37,0,0,0-2.2-.65,5.88,5.88,0,0,0-1.73.24,4.17,4.17,0,0,0-1.32.65l-.1,1.42h-1.05l0-2a6.65,6.65,0,0,1,1.89-.91,7.45,7.45,0,0,1,2.34-.36,4.84,4.84,0,0,1,3,.89,3,3,0,0,1,1.15,2.55v5.2c0,.21,0,.42,0,.62a3.68,3.68,0,0,0,.07.58l1.13.07V165Zm-4.16-.83a4.87,4.87,0,0,0,2.42-.59,3.66,3.66,0,0,0,1.51-1.51V160h-2.55a5,5,0,0,0-2.74.66,1.92,1.92,0,0,0-1,1.66,1.66,1.66,0,0,0,.64,1.37A2.67,2.67,0,0,0,332,164.17Z"/><path class="cls-3" d="M345.15,155.3v-.87h2.78l.15,1.64a4,4,0,0,1,1.49-1.36,4.41,4.41,0,0,1,2.11-.48,3.84,3.84,0,0,1,3.22,1.52,6.54,6.54,0,0,1,1.16,4.05V160a5.79,5.79,0,0,1-1.16,3.78,3.93,3.93,0,0,1-3.2,1.41,4.92,4.92,0,0,1-2.1-.42,3.87,3.87,0,0,1-1.47-1.21v4.49l1.72.13v.87h-4.7v-.87l1.72-.13V155.43Zm9.64,4.5a5.77,5.77,0,0,0-.86-3.28,2.87,2.87,0,0,0-2.54-1.27,3.54,3.54,0,0,0-2.07.56,3.46,3.46,0,0,0-1.19,1.46v5.08a3.18,3.18,0,0,0,1.25,1.37,3.85,3.85,0,0,0,2,.5,2.93,2.93,0,0,0,2.51-1.16,5,5,0,0,0,.86-3.05Z"/><path class="cls-3" d="M360.84,154.43l.16,1.76v.12a3.73,3.73,0,0,1,1.33-1.52,3.51,3.51,0,0,1,2-.56,3.57,3.57,0,0,1,.47,0l.38.07-.17,1.1-.94-.06a3,3,0,0,0-2,.62,3.38,3.38,0,0,0-1.09,1.7V164l1.72.13V165H358v-.86l1.72-.13v-8.58L358,155.3v-.87h2.81Z"/><path class="cls-3" d="M366.58,159.56a5.42,5.42,0,0,1,1.38-3.83,5.23,5.23,0,0,1,7.33,0,5.42,5.42,0,0,1,1.38,3.83v.32a5.45,5.45,0,0,1-1.37,3.83,5.26,5.26,0,0,1-7.34,0,5.41,5.41,0,0,1-1.38-3.83Zm1.27.32a4.8,4.8,0,0,0,1,3.09,3.72,3.72,0,0,0,5.56,0,4.85,4.85,0,0,0,1-3.09v-.32a4.77,4.77,0,0,0-1-3.07,3.69,3.69,0,0,0-5.55,0,4.76,4.76,0,0,0-1,3.07Z"/><path class="cls-3" d="M386.66,163.47a3.78,3.78,0,0,1-1.47,1.28,4.62,4.62,0,0,1-2.11.45,3.91,3.91,0,0,1-3.2-1.41,5.82,5.82,0,0,1-1.15-3.78v-.21a6.53,6.53,0,0,1,1.15-4.05,3.84,3.84,0,0,1,3.23-1.52,4.32,4.32,0,0,1,2.06.47,4,4,0,0,1,1.46,1.32v-5.26l-1.72-.13v-.87h3V164l1.72.13V165h-2.85ZM380,160a5,5,0,0,0,.82,3,2.9,2.9,0,0,0,2.5,1.14,3.78,3.78,0,0,0,2-.51,3.51,3.51,0,0,0,1.27-1.4v-5a3.62,3.62,0,0,0-1.22-1.46,3.46,3.46,0,0,0-2.06-.57,2.81,2.81,0,0,0-2.51,1.27,5.8,5.8,0,0,0-.83,3.28Z"/><path class="cls-3" d="M399.94,163.26a3.74,3.74,0,0,1-1.47,1.43,4.55,4.55,0,0,1-2.2.51,3.59,3.59,0,0,1-2.82-1.13,5.16,5.16,0,0,1-1-3.52v-5.12L391,155.3v-.87h2.67v6.14a4.34,4.34,0,0,0,.71,2.78,2.51,2.51,0,0,0,2,.84,4,4,0,0,0,2.29-.59,3.12,3.12,0,0,0,1.19-1.62v-6.55l-1.62-.13v-.87h2.89V164l1.53.13V165h-2.64Z"/><path class="cls-3" d="M409.42,164.22a3.82,3.82,0,0,0,2.21-.67,2.12,2.12,0,0,0,1-1.84h1.12l0,0a2.84,2.84,0,0,1-1.26,2.46,5,5,0,0,1-3.05,1,4.48,4.48,0,0,1-3.6-1.48,5.6,5.6,0,0,1-1.28-3.8v-.41a5.61,5.61,0,0,1,1.28-3.79,4.48,4.48,0,0,1,3.59-1.49,6.27,6.27,0,0,1,2.41.46,4.79,4.79,0,0,1,1.78,1.25l.06,2.31h-1.08l-.2-1.88a3.6,3.6,0,0,0-1.26-.83,4.38,4.38,0,0,0-1.71-.31,3.14,3.14,0,0,0-2.72,1.22,5.06,5.06,0,0,0-.88,3.06v.41a5.06,5.06,0,0,0,.88,3.08A3.13,3.13,0,0,0,409.42,164.22Zm.32.86-.11.63a2.73,2.73,0,0,1,1.34.47,1.41,1.41,0,0,1,.51,1.2,1.6,1.6,0,0,1-.83,1.42,4.47,4.47,0,0,1-2.38.53l-.08-.76a3.76,3.76,0,0,0,1.59-.3,1,1,0,0,0,.65-.87.8.8,0,0,0-.43-.78,4.8,4.8,0,0,0-1.53-.3l.29-1.24Z"/><path class="cls-3" d="M424,165q-.12-.54-.18-.93a7,7,0,0,1,0-.79,4.93,4.93,0,0,1-1.69,1.37,5,5,0,0,1-2.37.55,3.85,3.85,0,0,1-2.6-.8,2.73,2.73,0,0,1-.91-2.17,2.62,2.62,0,0,1,1.36-2.32,6.85,6.85,0,0,1,3.69-.86h2.52v-1.4a2.15,2.15,0,0,0-.79-1.77,3.37,3.37,0,0,0-2.2-.65,5.88,5.88,0,0,0-1.73.24,4,4,0,0,0-1.31.65l-.11,1.42h-1v-2a6.65,6.65,0,0,1,1.89-.91,7.51,7.51,0,0,1,2.35-.36,4.83,4.83,0,0,1,3,.89,3,3,0,0,1,1.15,2.55v5.2c0,.21,0,.42,0,.62a3.68,3.68,0,0,0,.07.58l1.14.07V165Zm.45-14.64a1.88,1.88,0,0,1-.58,1.42,2,2,0,0,1-1.44.57,2.86,2.86,0,0,1-1.59-.54,2.67,2.67,0,0,0-1.39-.53,1.12,1.12,0,0,0-.83.34,1.22,1.22,0,0,0-.34.87l-.83-.18a1.93,1.93,0,0,1,2-2,3,3,0,0,1,1.56.54,3,3,0,0,0,1.42.53,1.1,1.1,0,0,0,.83-.35,1.21,1.21,0,0,0,.35-.89Zm-4.6,13.81a4.86,4.86,0,0,0,2.41-.59,3.6,3.6,0,0,0,1.51-1.51V160h-2.54a5,5,0,0,0-2.75.66,1.92,1.92,0,0,0-1,1.66,1.66,1.66,0,0,0,.64,1.37A2.68,2.68,0,0,0,419.81,164.17Z"/><path class="cls-3" d="M428,159.56a5.42,5.42,0,0,1,1.38-3.83,5.23,5.23,0,0,1,7.33,0,5.42,5.42,0,0,1,1.38,3.83v.32a5.45,5.45,0,0,1-1.37,3.83,5.26,5.26,0,0,1-7.34,0,5.41,5.41,0,0,1-1.38-3.83Zm1.26.32a4.8,4.8,0,0,0,1,3.09,3.71,3.71,0,0,0,5.55,0,4.8,4.8,0,0,0,1-3.09v-.32a4.77,4.77,0,0,0-1-3.07,3.69,3.69,0,0,0-5.55,0,4.77,4.77,0,0,0-1,3.07Z"/><path class="cls-3" d="M453.33,163.47a3.78,3.78,0,0,1-1.47,1.28,4.62,4.62,0,0,1-2.11.45,3.91,3.91,0,0,1-3.2-1.41A5.82,5.82,0,0,1,445.4,160v-.21a6.53,6.53,0,0,1,1.15-4.05,3.84,3.84,0,0,1,3.23-1.52,4.32,4.32,0,0,1,2.06.47A4,4,0,0,1,453.3,156v-5.26l-1.72-.13v-.87h3V164l1.72.13V165h-2.85ZM446.68,160a5,5,0,0,0,.82,3,2.9,2.9,0,0,0,2.5,1.14,3.78,3.78,0,0,0,2-.51,3.51,3.51,0,0,0,1.27-1.4v-5a3.62,3.62,0,0,0-1.22-1.46,3.46,3.46,0,0,0-2.06-.57,2.81,2.81,0,0,0-2.51,1.27,5.8,5.8,0,0,0-.83,3.28Z"/><path class="cls-3" d="M463.25,165.2a4.72,4.72,0,0,1-3.56-1.46,5.12,5.12,0,0,1-1.42-3.71v-.54a5.27,5.27,0,0,1,1.41-3.76,4.51,4.51,0,0,1,3.4-1.5,4.4,4.4,0,0,1,3.31,1.24,4.49,4.49,0,0,1,1.2,3.28v1h-8.06V160a4.41,4.41,0,0,0,1,3,3.37,3.37,0,0,0,2.69,1.21,6,6,0,0,0,2-.31,3.94,3.94,0,0,0,1.42-.87l.54.8a4.64,4.64,0,0,1-1.63,1A6.77,6.77,0,0,1,463.25,165.2Zm-.17-10a3.12,3.12,0,0,0-2.34,1,4,4,0,0,0-1.11,2.49l0,0h6.68v-.3a3.24,3.24,0,0,0-.87-2.3A3.13,3.13,0,0,0,463.08,155.23Z"/><path class="cls-3" d="M478.12,157.69h-1l-.15-1.49a3.18,3.18,0,0,0-1.2-.72,5.22,5.22,0,0,0-1.66-.25,3.26,3.26,0,0,0-2.07.55,1.63,1.63,0,0,0-.69,1.3,1.5,1.5,0,0,0,.6,1.21,6,6,0,0,0,2.37.84,8.18,8.18,0,0,1,3,1.14,2.31,2.31,0,0,1,1,2,2.51,2.51,0,0,1-1.15,2.14,5.22,5.22,0,0,1-3.05.81,7.58,7.58,0,0,1-2.31-.33A5.47,5.47,0,0,1,470,164v-2.13h1l.18,1.51a3,3,0,0,0,1.28.68,6.53,6.53,0,0,0,1.62.21,3.71,3.71,0,0,0,2.16-.56,1.61,1.61,0,0,0,.79-1.35,1.67,1.67,0,0,0-.66-1.3,5.66,5.66,0,0,0-2.38-.91,8.45,8.45,0,0,1-3-1.08,2.19,2.19,0,0,1-1-1.9,2.49,2.49,0,0,1,1.11-2.05,4.71,4.71,0,0,1,2.92-.84,7,7,0,0,1,2.3.36,4.83,4.83,0,0,1,1.69,1Z"/><path class="cls-3" d="M488.93,157.69h-1l-.15-1.49a3.18,3.18,0,0,0-1.2-.72,5.22,5.22,0,0,0-1.66-.25,3.26,3.26,0,0,0-2.07.55,1.63,1.63,0,0,0-.69,1.3,1.51,1.51,0,0,0,.59,1.21,6.12,6.12,0,0,0,2.38.84,8.18,8.18,0,0,1,3,1.14,2.31,2.31,0,0,1,1,2,2.51,2.51,0,0,1-1.15,2.14,5.22,5.22,0,0,1-3.05.81,7.58,7.58,0,0,1-2.31-.33,5.47,5.47,0,0,1-1.8-.92v-2.13h1l.18,1.51a3,3,0,0,0,1.28.68,6.53,6.53,0,0,0,1.62.21,3.71,3.71,0,0,0,2.16-.56,1.63,1.63,0,0,0,.79-1.35,1.67,1.67,0,0,0-.66-1.3,5.66,5.66,0,0,0-2.38-.91,8.38,8.38,0,0,1-3-1.08,2.19,2.19,0,0,1-1-1.9,2.49,2.49,0,0,1,1.11-2.05,4.71,4.71,0,0,1,2.92-.84,7,7,0,0,1,2.3.36,4.83,4.83,0,0,1,1.69,1Z"/><path class="cls-3" d="M499.34,165q-.12-.54-.18-.93a7,7,0,0,1-.05-.79,4.93,4.93,0,0,1-1.69,1.37,5,5,0,0,1-2.37.55,3.87,3.87,0,0,1-2.6-.8,2.73,2.73,0,0,1-.91-2.17,2.62,2.62,0,0,1,1.36-2.32,6.85,6.85,0,0,1,3.69-.86h2.52v-1.4a2.15,2.15,0,0,0-.79-1.77,3.36,3.36,0,0,0-2.2-.65,5.88,5.88,0,0,0-1.73.24,4.12,4.12,0,0,0-1.31.65l-.11,1.42h-1v-2a6.78,6.78,0,0,1,1.89-.91,7.51,7.51,0,0,1,2.35-.36,4.83,4.83,0,0,1,3,.89,3,3,0,0,1,1.15,2.55v5.2c0,.21,0,.42,0,.62a3.68,3.68,0,0,0,.07.58l1.14.07V165Zm-4.15-.83a4.86,4.86,0,0,0,2.41-.59,3.6,3.6,0,0,0,1.51-1.51V160h-2.54a5,5,0,0,0-2.75.66,1.92,1.92,0,0,0-1,1.66,1.66,1.66,0,0,0,.64,1.37A2.68,2.68,0,0,0,495.19,164.17Z"/><path class="cls-3" d="M513.5,164.22a3.83,3.83,0,0,0,2.22-.67,2.12,2.12,0,0,0,1-1.84h1.12l0,0a2.86,2.86,0,0,1-1.26,2.46,5,5,0,0,1-3.06,1,4.48,4.48,0,0,1-3.59-1.48,5.6,5.6,0,0,1-1.28-3.8v-.41a5.61,5.61,0,0,1,1.28-3.79,4.46,4.46,0,0,1,3.58-1.49,6.32,6.32,0,0,1,2.42.46,4.88,4.88,0,0,1,1.78,1.25l0,2.31h-1.07l-.2-1.88a3.6,3.6,0,0,0-1.26-.83,4.47,4.47,0,0,0-1.72-.31,3.12,3.12,0,0,0-2.71,1.22,5.06,5.06,0,0,0-.88,3.06v.41a5.13,5.13,0,0,0,.87,3.08A3.16,3.16,0,0,0,513.5,164.22Z"/><path class="cls-3" d="M528.05,165a7.45,7.45,0,0,1-.18-.93,5.25,5.25,0,0,1-.06-.79,4.89,4.89,0,0,1-1.68,1.37,5.06,5.06,0,0,1-2.38.55,3.84,3.84,0,0,1-2.59-.8,2.74,2.74,0,0,1-.92-2.17,2.64,2.64,0,0,1,1.36-2.32,6.9,6.9,0,0,1,3.69-.86h2.52v-1.4a2.17,2.17,0,0,0-.78-1.77,3.37,3.37,0,0,0-2.2-.65,5.88,5.88,0,0,0-1.73.24,4.07,4.07,0,0,0-1.32.65l-.1,1.42h-1v-2a6.84,6.84,0,0,1,1.9-.91,7.45,7.45,0,0,1,2.34-.36,4.86,4.86,0,0,1,3,.89,3,3,0,0,1,1.15,2.55v5.2c0,.21,0,.42,0,.62a5.42,5.42,0,0,0,.06.58l1.14.07V165Zm-4.16-.83a4.87,4.87,0,0,0,2.42-.59,3.57,3.57,0,0,0,1.5-1.51V160h-2.54a5,5,0,0,0-2.74.66,1.92,1.92,0,0,0-1,1.66,1.66,1.66,0,0,0,.64,1.37A2.67,2.67,0,0,0,523.89,164.17Z"/><path class="cls-3" d="M531.81,155.3v-.87h2.84l.11,1.75a3.9,3.9,0,0,1,1.47-1.44,4.42,4.42,0,0,1,2.18-.51,3.81,3.81,0,0,1,2.19.6,3.22,3.22,0,0,1,1.25,1.8,4.31,4.31,0,0,1,1.47-1.76,4.14,4.14,0,0,1,2.33-.64,3.59,3.59,0,0,1,2.82,1.13,5.15,5.15,0,0,1,1,3.47V164l1.71.14V165h-4.71v-.86l1.72-.14v-5.19a4,4,0,0,0-.74-2.75,2.69,2.69,0,0,0-2.08-.81,2.92,2.92,0,0,0-2.27.87,4.06,4.06,0,0,0-1,2.22s0,.1,0,.14,0,.11,0,.18V164l1.71.13V165h-4.7v-.86l1.72-.13v-5.2a4,4,0,0,0-.75-2.73,2.7,2.7,0,0,0-2.08-.83,3.3,3.3,0,0,0-2.13.63,3.26,3.26,0,0,0-1.1,1.69V164l1.71.13V165h-4.7v-.86l1.72-.13v-8.58Z"/><path class="cls-3" d="M552.41,155.3v-.87h2.77l.16,1.64a4,4,0,0,1,1.48-1.36,4.44,4.44,0,0,1,2.11-.48,3.82,3.82,0,0,1,3.22,1.52,6.47,6.47,0,0,1,1.16,4.05V160a5.73,5.73,0,0,1-1.16,3.78A3.91,3.91,0,0,1,559,165.2a4.93,4.93,0,0,1-2.11-.42,3.87,3.87,0,0,1-1.47-1.21v4.49l1.72.13v.87h-4.69v-.87l1.72-.13V155.43Zm9.64,4.5a5.69,5.69,0,0,0-.87-3.28,2.86,2.86,0,0,0-2.53-1.27,3.31,3.31,0,0,0-3.27,2v5.08a3.31,3.31,0,0,0,1.25,1.37,3.9,3.9,0,0,0,2,.5,3,3,0,0,0,2.52-1.16,5,5,0,0,0,.86-3.05Z"/><path class="cls-3" d="M573.25,165a7.45,7.45,0,0,1-.18-.93,5.25,5.25,0,0,1-.06-.79,4.89,4.89,0,0,1-1.68,1.37,5.06,5.06,0,0,1-2.38.55,3.84,3.84,0,0,1-2.59-.8,2.74,2.74,0,0,1-.92-2.17,2.62,2.62,0,0,1,1.36-2.32,6.9,6.9,0,0,1,3.69-.86H573v-1.4a2.17,2.17,0,0,0-.78-1.77,3.39,3.39,0,0,0-2.2-.65,6,6,0,0,0-1.74.24,4.12,4.12,0,0,0-1.31.65l-.1,1.42h-1v-2a6.84,6.84,0,0,1,1.9-.91,7.45,7.45,0,0,1,2.34-.36,4.86,4.86,0,0,1,3,.89,3,3,0,0,1,1.15,2.55v5.2c0,.21,0,.42,0,.62s0,.39.07.58l1.14.07V165Zm-4.16-.83a4.9,4.9,0,0,0,2.42-.59,3.63,3.63,0,0,0,1.5-1.51V160h-2.54a5.07,5.07,0,0,0-2.75.66,1.93,1.93,0,0,0-1,1.66,1.68,1.68,0,0,0,.63,1.37A2.72,2.72,0,0,0,569.09,164.17Z"/><path class="cls-3" d="M577.05,164.14l1.72-.13v-8.58l-1.72-.13v-.87h2.84l.12,1.85a3.78,3.78,0,0,1,1.48-1.51,4.33,4.33,0,0,1,2.21-.54,3.64,3.64,0,0,1,2.82,1.05,4.71,4.71,0,0,1,1,3.28V164l1.72.13V165h-4.7v-.86l1.72-.13v-5.44a3.62,3.62,0,0,0-.74-2.57,2.76,2.76,0,0,0-2.08-.75,3.48,3.48,0,0,0-2.17.65,3.61,3.61,0,0,0-1.2,1.72V164l1.72.13V165h-4.71Z"/><path class="cls-3" d="M590.83,150.63v-.87h3v6.48a4,4,0,0,1,1.52-1.48,4.49,4.49,0,0,1,2.21-.53,3.59,3.59,0,0,1,2.77,1,4.6,4.6,0,0,1,1,3.21V164l1.72.13V165h-4.71v-.86L600,164v-5.55a3.43,3.43,0,0,0-.73-2.46,2.69,2.69,0,0,0-2-.75,3.6,3.6,0,0,0-2.17.63,3.65,3.65,0,0,0-1.28,1.68V164l1.72.13V165h-4.69v-.86l1.72-.13V150.76Z"/><path class="cls-3" d="M612.76,165q-.12-.54-.18-.93a7,7,0,0,1-.05-.79,4.83,4.83,0,0,1-1.69,1.37,5,5,0,0,1-2.37.55,3.82,3.82,0,0,1-2.59-.8,2.71,2.71,0,0,1-.92-2.17,2.62,2.62,0,0,1,1.36-2.32,6.88,6.88,0,0,1,3.69-.86h2.52v-1.4a2.15,2.15,0,0,0-.79-1.77,3.35,3.35,0,0,0-2.19-.65,5.9,5.9,0,0,0-1.74.24,4.12,4.12,0,0,0-1.31.65l-.11,1.42h-1v-2a6.92,6.92,0,0,1,1.89-.91,7.56,7.56,0,0,1,2.35-.36,4.86,4.86,0,0,1,3,.89,3.06,3.06,0,0,1,1.14,2.55v5.2c0,.21,0,.42,0,.62a3.68,3.68,0,0,0,.07.58l1.14.07V165Zm-4.15-.83a4.83,4.83,0,0,0,2.41-.59,3.6,3.6,0,0,0,1.51-1.51V160H610a5,5,0,0,0-2.75.66,1.94,1.94,0,0,0-1,1.66,1.68,1.68,0,0,0,.64,1.37A2.7,2.7,0,0,0,608.61,164.17Z"/><path class="cls-3" d="M618.75,165h-1.44v-1.61h1.44Z"/><circle class="cls-4" cx="91" cy="131.6" r="88"/><path class="cls-3" d="M91,46.6a85,85,0,1,1-85,85,85,85,0,0,1,85-85m0-6a91,91,0,1,0,91,91,91.11,91.11,0,0,0-91-91Z"/><path class="cls-2" d="M90.78,46.76a84.78,84.78,0,1,0,84.77,84.77A84.77,84.77,0,0,0,90.78,46.76Zm0,163.9a79.13,79.13,0,1,1,79.12-79.13A79.13,79.13,0,0,1,90.78,210.66Z"/><path class="cls-2" d="M130.79,70a2.83,2.83,0,0,0-3.92.83l-4.62,7.1a2.82,2.82,0,0,0,.9,4,36.54,36.54,0,0,1,3.17,2.26c.63.48,1.27,1,1.77,1.32.88.72,1.72,1.48,2.56,2.25l-2,2a56.11,56.11,0,0,0-12.39-8.48l5.78-13a2.83,2.83,0,0,0-1.43-3.74,74.1,74.1,0,0,0-26-6.2,2.82,2.82,0,0,0-3,2.68l-.44,8.46a2.83,2.83,0,0,0,2.67,3l3,.15L100,73l1.22.19c.61.09,1.22.17,1.76.3l.39.1-.74,2.76a57.91,57.91,0,0,0-15-1.21L86.21,61a2.77,2.77,0,0,0-1-1.9,2.82,2.82,0,0,0-2.07-.62,72.94,72.94,0,0,0-25.68,7.65,2.84,2.84,0,0,0-1.23,3.81l3.86,7.54a2.82,2.82,0,0,0,3.7,1.29l1.69-.82a30.55,30.55,0,0,1,4-1.74l.73-.26c.85-.32,1.67-.63,2.49-.9l.73,2.74c-.7.23-1.37.48-2,.73l-.67.25a26.27,26.27,0,0,0-4,1.71c-.49.24-1,.48-1.7.82L60.23,84l-.33.18L51.57,72.77a2.82,2.82,0,0,0-4-.62A73.42,73.42,0,0,0,29.19,91.53,2.82,2.82,0,0,0,30,95.44l7.11,4.62a2.82,2.82,0,0,0,3.95-.9A36.28,36.28,0,0,1,43.33,96c.49-.64,1-1.28,1.33-1.78.72-.87,1.48-1.72,2.25-2.55l2,2A56.15,56.15,0,0,0,40.38,106l-13-5.78a2.83,2.83,0,0,0-3.74,1.43,74.15,74.15,0,0,0-6.2,26,2.83,2.83,0,0,0,2.68,3l8.47.44a2.85,2.85,0,0,0,2-.72,2.79,2.79,0,0,0,.92-1.95l.15-3,.48-3.17c.08-.4.13-.81.19-1.22.09-.61.18-1.23.3-1.75l.1-.4,2.77.75a57.37,57.37,0,0,0-1.22,15L20.22,136.1a2.85,2.85,0,0,0-1.9,1,2.82,2.82,0,0,0-.61,2.07,73.63,73.63,0,0,0,7.65,25.68,2.8,2.8,0,0,0,3.8,1.23l7.55-3.85A2.83,2.83,0,0,0,38,158.55c-.26-.56-.53-1.11-.8-1.67a29.23,29.23,0,0,1-1.75-4.06l-.27-.75c-.32-.84-.62-1.66-.89-2.47l2.77-.74a55.69,55.69,0,0,0,6.45,13.53L32,170.74a2.82,2.82,0,0,0-.62,3.95,73.42,73.42,0,0,0,19.38,18.43,2.81,2.81,0,0,0,3.91-.83l4.62-7.1a2.83,2.83,0,0,0-.89-4A35.65,35.65,0,0,1,55.24,179c-.64-.48-1.28-1-1.77-1.32-.88-.72-1.72-1.48-2.56-2.25l2-2c.75.69,1.53,1.39,2.47,2.16.55.39,1.09.8,1.62,1.21A34.36,34.36,0,0,0,60.15,179l5.05,2.9.06,0-5.79,13a2.83,2.83,0,0,0,1.43,3.74,74.15,74.15,0,0,0,26,6.2h.15a2.83,2.83,0,0,0,2.82-2.68l.44-8.46a2.82,2.82,0,0,0-2.67-3l-3-.15-3.17-.48-1.22-.19c-.62-.09-1.23-.18-1.76-.3l-.39-.1.74-2.77a57.41,57.41,0,0,0,15,1.22l1.46,14.14a2.82,2.82,0,0,0,3.11,2.51A72.78,72.78,0,0,0,124.13,197a2.83,2.83,0,0,0,1.23-3.8l-3.86-7.56a2.82,2.82,0,0,0-3.7-1.27c-.57.26-1.13.53-1.7.81a29.45,29.45,0,0,1-4,1.74l-.72.27c-.85.31-1.67.62-2.49.89l-.74-2.77a55.8,55.8,0,0,0,13.52-6.45L130,190.3a2.82,2.82,0,0,0,3.94.62,73.26,73.26,0,0,0,18.43-19.38,2.79,2.79,0,0,0,.4-2.12,2.83,2.83,0,0,0-1.22-1.79L144.43,163a2.82,2.82,0,0,0-4,.9,36.28,36.28,0,0,1-2.25,3.16c-.49.64-1,1.28-1.32,1.78-.73.87-1.49,1.72-2.26,2.55l-1.95-2a56.11,56.11,0,0,0,8.48-12.39l13,5.78a2.82,2.82,0,0,0,3.73-1.43,73.72,73.72,0,0,0,6.2-26,2.83,2.83,0,0,0-2.68-3l-8.46-.44a2.86,2.86,0,0,0-3,2.67l-.15,3-.48,3.16c-.07.41-.13.82-.19,1.23-.09.61-.17,1.23-.29,1.75l-.1.39-2.73-.72,0-.07c.15-.66.25-1.33.34-2,.05-.32.09-.63.15-1l.43-2.78a2.54,2.54,0,0,0,0-.29l.14-3v-5.9l14.2-1.48a2.83,2.83,0,0,0,2.52-3.1,73.84,73.84,0,0,0-7.65-25.68A2.83,2.83,0,0,0,152.4,97l-7.55,3.85a2.82,2.82,0,0,0-1.28,3.71c.26.56.53,1.11.8,1.67a28.07,28.07,0,0,1,1.75,4.06l.27.74c.32.85.62,1.66.89,2.47l-2.77.74a55.8,55.8,0,0,0-6.45-13.52l11.48-8.35a2.83,2.83,0,0,0,1.13-1.85,2.77,2.77,0,0,0-.51-2.1A73.38,73.38,0,0,0,130.79,70Zm1.72,27.78a2.84,2.84,0,0,0-.63,4,50.27,50.27,0,0,1,8,16.7,2.84,2.84,0,0,0,3.46,2l8.19-2.19a2.83,2.83,0,0,0,2-3.32,41.26,41.26,0,0,0-1.85-5.84l-.22-.61a29.72,29.72,0,0,0-1.59-3.83l2.52-1.29a68.1,68.1,0,0,1,5.47,18.35l-14,1.45a2.83,2.83,0,0,0-2.53,3l.14,2.74v5.4l-.14,2.66-.41,2.6c-.06.37-.11.74-.17,1.11a13.19,13.19,0,0,1-.23,1.42l-.7,2.72a2.82,2.82,0,0,0,2,3.44l8.19,2.19a2.83,2.83,0,0,0,3.47-2l.83-3.23c.17-.75.29-1.52.4-2.28,0-.37.1-.73.17-1.13l.52-3.49,0-.44,2.77.15a68.12,68.12,0,0,1-4.42,18.6L141,150.77a2.84,2.84,0,0,0-2.16-.05,2.8,2.8,0,0,0-1.57,1.49,50.83,50.83,0,0,1-10.48,15.3,2.82,2.82,0,0,0,0,4l6,6a2.76,2.76,0,0,0,2.08.83,2.83,2.83,0,0,0,2-.95l1.53-1.68c1-1.07,2-2.13,3-3.4.43-.61.88-1.2,1.33-1.79.32-.41.64-.83.95-1.25l2.37,1.54a67.58,67.58,0,0,1-13.17,13.85l-8.28-11.38a2.85,2.85,0,0,0-4-.62,50.22,50.22,0,0,1-16.69,8,2.78,2.78,0,0,0-1.72,1.31,2.84,2.84,0,0,0-.29,2.15l2.2,8.19a2.81,2.81,0,0,0,3.32,2,41.93,41.93,0,0,0,5.86-1.85l.58-.22a27.29,27.29,0,0,0,3.83-1.58l1.29,2.52a68.82,68.82,0,0,1-18.35,5.47l-1.45-14a2.8,2.8,0,0,0-3.08-2.52,52,52,0,0,1-18.51-1.51,2.82,2.82,0,0,0-3.46,2L72,190.8a2.82,2.82,0,0,0,2,3.47l3.21.82c.76.18,1.53.29,2.3.4l1.12.18,3.49.51.44,0L84.41,199a68.49,68.49,0,0,1-18.6-4.42l5.73-12.85a2.83,2.83,0,0,0-1.36-3.7l-2.34-1.12L63,174.12a27.21,27.21,0,0,1-2.57-1.83c-.61-.46-1.2-.92-1.64-1.22-.82-.67-1.6-1.39-2.38-2.1-.58-.54-1.16-1.07-1.76-1.6a2.84,2.84,0,0,0-3.86.14l-6,6a2.82,2.82,0,0,0,.12,4.11l1.66,1.51c1.07,1,2.15,2,3.42,3,.61.43,1.2.89,1.78,1.34l1.26.95-1.54,2.37a67.58,67.58,0,0,1-13.85-13.17l11.38-8.28a2.85,2.85,0,0,0,1.13-1.84,2.89,2.89,0,0,0-.51-2.11,50.51,50.51,0,0,1-8-16.69,2.82,2.82,0,0,0-3.45-2l-8.2,2.18a2.84,2.84,0,0,0-2,3.33,42.55,42.55,0,0,0,1.84,5.84l.23.6a29.23,29.23,0,0,0,1.58,3.84l-2.51,1.28a68.37,68.37,0,0,1-5.48-18.35l14-1.45a2.82,2.82,0,0,0,2.52-3.09,52,52,0,0,1,1.51-18.5,2.81,2.81,0,0,0-2-3.46l-8.19-2.19a2.79,2.79,0,0,0-2.15.29A2.84,2.84,0,0,0,28,114.75L27.22,118c-.18.75-.29,1.52-.4,2.28-.05.36-.1.73-.17,1.13l-.52,3.49,0,.44-2.77-.15a68.86,68.86,0,0,1,4.42-18.6L40.6,112.3a2.84,2.84,0,0,0,3.74-1.44,50.68,50.68,0,0,1,10.47-15.3,2.82,2.82,0,0,0,0-4l-6-6a2.82,2.82,0,0,0-4.11.12q-.75.84-1.53,1.68c-1,1.06-2,2.13-3,3.4-.43.61-.89,1.2-1.34,1.79l-1,1.25-2.37-1.54A67.89,67.89,0,0,1,48.69,78.42L57,89.8a2.82,2.82,0,0,0,4,.62l.65-.49A10,10,0,0,1,63,89l4.62-2.68c.55-.25,1.09-.51,1.62-.77a22.44,22.44,0,0,1,3.31-1.42l.85-.31a27.78,27.78,0,0,1,4.09-1.3A2.83,2.83,0,0,0,79.62,79l-2.19-8.19a2.82,2.82,0,0,0-3.32-2,41.11,41.11,0,0,0-5.86,1.85l-.59.22a28.32,28.32,0,0,0-3.83,1.58l-1.29-2.52a68.82,68.82,0,0,1,18.35-5.47l1.45,14A2.79,2.79,0,0,0,85.42,81a52,52,0,0,1,18.51,1.51,2.88,2.88,0,0,0,2.15-.28,2.84,2.84,0,0,0,1.31-1.72l2.19-8.19a2.83,2.83,0,0,0-2-3.47L104.34,68c-.76-.18-1.52-.29-2.29-.4l-1.13-.18-3.49-.51-.44,0,.15-2.77a68,68,0,0,1,18.6,4.42L110,81.36a2.8,2.8,0,0,0,1.44,3.73,51,51,0,0,1,15.29,10.48,2.82,2.82,0,0,0,4,0l6-6a2.79,2.79,0,0,0,.82-2.08,2.82,2.82,0,0,0-.94-2c-.56-.49-1.11-1-1.66-1.51-1.08-1-2.15-2-3.43-3-.6-.43-1.19-.88-1.78-1.33l-1.26-1L130,76.28a68.1,68.1,0,0,1,13.85,13.17Z"/><path class="cls-2" d="M90.78,86.32a45.12,45.12,0,0,0-39,68,2.75,2.75,0,0,0,.17.29,45.43,45.43,0,0,0,11.53,12.9c.07.05.11.12.19.17l.06,0a44.87,44.87,0,0,0,54.06,0l.07,0c.08,0,.13-.12.2-.17a45.4,45.4,0,0,0,11.52-12.9,1.75,1.75,0,0,0,.18-.29,45.13,45.13,0,0,0-39-68Zm-5.1,6L54.32,146.89A39.52,39.52,0,0,1,85.68,92.34ZM68.81,164.42l22-38.18,22,38.18a39.48,39.48,0,0,1-43.93,0Zm48.41-3.55L94.45,121.29a4.25,4.25,0,0,0-7.35,0L64.33,160.87a39.8,39.8,0,0,1-6.88-8.1l33.33-58L97.24,106c0,.08.08.17.13.25l26.73,46.5a39.49,39.49,0,0,1-6.88,8.1Zm10-14L102.4,103.68a2.1,2.1,0,0,0-.13-.26L95.88,92.34a39.53,39.53,0,0,1,31.36,54.55Z"/><g class="cls-5"><path class="cls-6" d="M80.9,71.82l3.84,14.75s.6,3.63-.71,4.94-7.47,8.28-7.47,8.28l-3.44,6.77L93,117.87l23.73-6.36L116,94.85s-12.15-.78-19.24-6.1c-1.39-1-2.57-13.19-2.57-13.19Z"/><path class="cls-7" d="M94.88,80.92c-.37-2.72-.68-5.46-.68-5.46L80.87,71.72l1.07,4.11s4.18,2.72,5.47,3.29A25.37,25.37,0,0,0,94.88,80.92Z"/><path class="cls-6" d="M69.84,103.61s-9.51,5.37-10.38,6.25-7.67,7-7.67,7l-.26,22.07-8.83-21L35,121.27,46,154l6,9.31L56.5,165l6.69-30.9,9.63,6,11.82-8.63L76.15,110.4l-3.63-8Z"/><path class="cls-6" d="M34.71,121.17a10.38,10.38,0,0,1-4.54-3.8,37.69,37.69,0,0,1-4.75.24.7.7,0,0,1-.43-.09.81.81,0,0,1-.25-.53,45.87,45.87,0,0,0-2.45-8.6,1.44,1.44,0,0,1-.14-.76c.1-.46.64-.67,1.12-.72a2.74,2.74,0,0,0,1.37-.27c.52-.36.68-1.16,1.28-1.36s1,.17,1.49,0,.6-.82.93-1.23a3.28,3.28,0,0,1,2.05-.81A14.59,14.59,0,0,0,34,101.77a.35.35,0,0,0,.21-.18.37.37,0,0,0,0-.21c-.55-2.58-1.73-5.17-2.28-7.75a58.26,58.26,0,0,1-.94-7.4A3.92,3.92,0,0,1,33,83.74a.83.83,0,0,1,.76-.1c.29.13.39.48.46.8.62,2.88,2.32,10.19,2.94,13.07.39,1.84,3.72,6.43,4.43,7s.82,1.23,1.63,1.84a1.76,1.76,0,0,1,.55.57,1.83,1.83,0,0,1,.15.81l.12,4.88c.05,1.9,0,4-1.33,5.37Z"/><path class="cls-7" d="M41.34,104.08c-1-.27-1.94-.9-3-.72a6.84,6.84,0,0,0-2.44,1.26c-2.15,1.47-3.69,3.72-6,4.94a1,1,0,0,0-.2,1.49c1.32,1.28,3.23,2.8,5.19,2.36A6.06,6.06,0,0,0,39,109.62l-1.4.56a7.51,7.51,0,0,0,2,1.06c1.15.44,1.62-1.38.5-1.83-3.73-1.5-5.27,3.37-4,6,.53,1.1,2.16.14,1.64-1-.59-1.25-.26-4.12,1.87-3.26l.5-1.83a4.63,4.63,0,0,1-1.51-.86,1,1,0,0,0-1.39.56c-1.14,3-4.19,2.44-6.08.6l-.19,1.49A19.8,19.8,0,0,0,35,107.77a15.47,15.47,0,0,1,2.4-1.87c1.14-.71,2.2-.33,3.43,0a1,1,0,0,0,.5-1.83Z"/><path class="cls-7" d="M33.78,107.69l-.43-2.2-1.83.5a2.53,2.53,0,0,0,1.39,1.71,1,1,0,0,0,1.3-.34,1,1,0,0,0-.34-1.3.74.74,0,0,1-.52-.57.95.95,0,1,0-1.83.5L32,108.2a1,1,0,0,0,1.16.66,1,1,0,0,0,.66-1.17Z"/><path class="cls-6" d="M73.06,65.7s7.71,13.72,30.73,13.73c9.53,0,13.06-2.23,13.6-5.32,3.37-19.43-3.81-44-13.77-51.5C94.89,16,63.9,40.92,63.9,40.92l6.6,14.81s-6.73-7.27-9.43-3.23,5.86,12.59,5.86,12.59S70.77,68,73.06,65.7Z"/><path class="cls-6" d="M119.07,96.83c2.28-1.21,4.34,1.65,4.34,1.65l23.23,40.66-20,36s6.73,11.31,3.36,16.43l4.65,4.64s.74,2.49-2.63,2.49-11.31-5.92-11.31-5.92l.93-25.36,15-27L122.81,120l-4.3-3.81S114.8,99.09,119.07,96.83Z"/><path class="cls-6" d="M94.94,210.66,75.48,259.45S73,268.69,70,271.67A131.62,131.62,0,0,1,62.62,293c-5,11.31-7.27,26.86-7.27,26.86s4.6,11.66,4,16.91c0,0,4.39,6.06,2.63,9.54s-8.69,1.42-8.69,1.42-11.56,1.51-13.28-1.37,2.17-10.6,2.17-10.6-.55-6.16,1.47-7.57a25.2,25.2,0,0,0,4.44-4.85s-.76-2,1.36-4.75,5.26-20.21,5.26-22.5S51.92,276.68,61.34,270c0,0,2.29-46.45,8.75-52.91s24.85-10.3,24.85-10.3Z"/><path class="cls-8" d="M94.94,210.66l-6.22,15.6s-8.61,3.84-10.79,4.38c-1.61.39-13.13,4-12.75,1.63,1.21-7.26,2.89-13.21,4.91-15.23,6.47-6.47,24.85-10.3,24.85-10.3Z"/><path class="cls-6" d="M101.87,203.44s16.29,61.53,17.5,64.36-5.15,8.31,6,47.29c0,0-.7,5.15-1.71,7s-3.34,6.46-.41,8.08,12.42,9.69,16.46,10.4,11.62-2.83,11.62-2.83,4-1.51,2.77-2.78c0,0-3.68-.15-4.9-1.36s-14.94-12-14.94-12S130,316.1,130,315.73s-3-48.3-3-48.3,1.11-3,0-9.19-.57-45-.57-45Z"/><path class="cls-8" d="M101.87,203.44s3.83,14.43,5,18.69c.44,1.63,19.43,3,19.43,3l.11-11.81Z"/><path class="cls-9" d="M101.87,215.62c3.15,6.25,25.3,7.57,27.13,8.15,0,0,.58-25.08-3-39.17S101.87,215.62,101.87,215.62Z"/><path class="cls-10" d="M74.94,60.18c3.91,1.61.54-5.39.54-5.39s-.37-7-2.36-8.21A29,29,0,0,1,68.79,43L106,17.49s3.77-5.25-4.84-8.48a10.28,10.28,0,0,0-10.44-3.1S87,1.4,81.54,5.54c0,0-11-.64-13.46,4.75a4.09,4.09,0,0,0-4,2.29s-2.29.87-2.73,2.72c0,0-5.55,2.19-5.89,5.9,0,0-3,4.24-.61,7.67,0,0-1.6,3,.47,5.08,0,0-4.64,5.09,0,8.25,0,0-1.14,3.3,5.66,4.65L63,51s1.94-.88,7.54,4.71Z"/><path class="cls-7" d="M102.07,60.73a1.5,1.5,0,0,1,0-3c1.38,0,5.23-1.15,8-2.08-.88-6.81-5.24-11.9-7.85-14.39a1.5,1.5,0,1,1,2.07-2.17c3.07,2.93,8.3,9.1,8.89,17.48l.08,1.13-1.07.39C111.38,58.36,104.68,60.73,102.07,60.73Z"/><ellipse class="cls-11" cx="90.06" cy="45.67" rx="1.81" ry="2.47" transform="translate(-8.41 23.32) rotate(-14.1)"/><path class="cls-11" d="M87.28,45.39h-.06a1.51,1.51,0,0,1-1.44-1.57c0-.36.22-3.62,2.6-4.9,1.54-.83,3.46-.58,5.7.75a1.5,1.5,0,1,1-1.54,2.58c-1.21-.72-2.21-1-2.73-.69-.73.39-1,1.89-1,2.39A1.5,1.5,0,0,1,87.28,45.39Z"/><ellipse class="cls-11" cx="106.85" cy="40.6" rx="1.81" ry="2.47" transform="translate(-6.67 27.26) rotate(-14.1)"/><path class="cls-11" d="M103.6,40a1.41,1.41,0,0,1-.4-.05,1.5,1.5,0,0,1-1-1.84c.09-.36,1-3.48,3.63-4.2,1.69-.47,3.5.2,5.38,2a1.5,1.5,0,0,1-2.08,2.17c-1-1-1.93-1.44-2.5-1.28-.8.22-1.41,1.62-1.54,2.1A1.49,1.49,0,0,1,103.6,40Z"/><path class="cls-12" d="M94.2,62.93c-.23-.23,13.33.85,18.51-3,0,0,1,10.31-3.6,11.44S98.86,70.67,94.2,62.93Z"/><g class="cls-13"><path class="cls-14" d="M93.31,64.55s12.68,3.62,18.32-2L110.92,60,92.34,61.22Z"/><path class="cls-15" d="M95.54,69.2s4.08-3.94,10.57-1.32,0,7.38,0,7.38Z"/></g><path class="cls-7" d="M106.32,72.79c-7.76,0-12.94-9.27-13-9.38l-.86-1.57,1.79.09c.13,0,12.51.61,17.93-2.81a1,1,0,0,1,1.38.31,1,1,0,0,1-.32,1.38C108.59,63.74,99.85,64,96,64c2,3,7.16,8.91,13.69,6.06a1,1,0,0,1,.8,1.84A10.47,10.47,0,0,1,106.32,72.79Z"/><path class="cls-7" d="M70.2,64.15s-.21-8.84-7-11"/><path class="cls-7" d="M63.19,134.13s5.82-7.8,5-6.62c-4.26,6.6,10.92,14.22,14.48,10.15a9.11,9.11,0,0,1-9.9,2.51Z"/><path class="cls-16" d="M76.56,99.79s-6.47,2.39-9.48,5.4c0,0,18.13,26.29,5.74,35,0,0,11.41,21.8,10.2,26.24s-21.48,61-21.48,61,62.61-1.11,64.84-42.05l-3-23.56a196.21,196.21,0,0,0,1.75-23.9c.13-11.49-1.13-24.71-2-33.73a14.55,14.55,0,0,0-4.25-9.15L113,94.5s4.65,15.59-6.12,17.07C101.05,112.37,87.06,114.24,76.56,99.79Z"/><g class="cls-17"><path class="cls-18" d="M63.87,229s62.61-1.11,64.84-42Z"/></g><path class="cls-16" d="M76.56,99.79s-6.47,2.39-9.48,5.4c0,0,18.13,26.29,5.74,35,0,0,11.41,21.8,10.2,26.24s-21.48,61-21.48,61,62.61-1.11,64.84-42.05l-3-23.56a196.21,196.21,0,0,0,1.75-23.9c.13-11.49-1.13-24.71-2-33.73a14.55,14.55,0,0,0-4.25-9.15L113,94.5s4.65,15.59-6.12,17.07C101.05,112.37,87.06,114.24,76.56,99.79Z"/><path class="cls-19" d="M81.63,171s33,4.39,42.17-6.11c0,0,1-2.07-.39-3,.2,1.94-15.5,10.4-40.39,5A2.71,2.71,0,0,0,81.63,171Z"/><circle class="cls-20" cx="109.05" cy="169.4" r="7.7"/><g class="cls-21"><path class="cls-22" d="M72.49,20.46s-3.3,4,.89,6.68c1.47.93-4.35,5.45-4.35,5.45L66.69,45.77a17.55,17.55,0,0,1,5-1.22L82.36,56.72,75.55,61,53.8,46.33l-14.47-28L58,1.44l20.4-4.75-3.59,7.1s-8.66,5.3-5.35,9.11C67.37,14.36,67,20.07,72.49,20.46Z"/></g><path class="cls-23" d="M63.06,51s-3.91-1.75-3.91-5,15.22-33.8,47-28.55c0,0,4.91,3.44,3.23,5.12,0,0,3,3.76.6,5.78S95.78,27.45,63.06,51Z"/><path class="cls-24" d="M64.78,43.89s20.33-24.78,42.07-21.55C106.85,22.34,86.59,23.43,64.78,43.89Z"/><path class="cls-25" d="M109.9,176a7.66,7.66,0,0,1-5.64-2.2c-1.52-1.69-1.94-4.13-1.27-7.26a1.5,1.5,0,0,1,2.93.63c-.45,2.13-.27,3.68.56,4.62,1.27,1.42,3.76,1.2,3.79,1.2a1.5,1.5,0,0,1,.3,3S110.29,176,109.9,176Z"/><path class="cls-26" d="M113.7,173.4a1.17,1.17,0,0,1-.32,0,1.49,1.49,0,0,1-1.14-1.78c.47-2.14.29-3.69-.55-4.63-1.25-1.42-3.73-1.22-3.76-1.21a1.52,1.52,0,0,1-1.64-1.35,1.5,1.5,0,0,1,1.35-1.64c.16,0,4-.36,6.3,2.21,1.5,1.7,1.92,4.14,1.23,7.26A1.51,1.51,0,0,1,113.7,173.4Z"/><path class="cls-7" d="M30.5,117.93a2.1,2.1,0,0,0,0-3.59c-.86-.65-2,.79-1.15,1.49a3.89,3.89,0,0,0,3.18,1.3A2.64,2.64,0,0,0,34.64,115l-1.39.56a3,3,0,0,0,3.09.1c1.09-.55.13-2.19-1-1.64a1.06,1.06,0,0,1-1.17-.1,1,1,0,0,0-1.4.57c-.26,1.35-1.45.51-2.08,0L29.58,116l0,.31c-1,.69-.05,2.34,1,1.64Z"/><path class="cls-7" d="M25.16,105.77c.45,2,.93,4.09,1.47,6.13a1,1,0,0,0,1.83-.51q-.81-3-1.47-6.13c-.26-1.19-2.09-.69-1.83.51Z"/><path class="cls-7" d="M50.48,138.65a19.16,19.16,0,0,1,2.16,7.46c.09,1.21,2,1.22,1.89,0a21.26,21.26,0,0,0-2.41-8.42c-.57-1.08-2.21-.12-1.64,1Z"/><path class="cls-27" d="M86.12,3.79a6.54,6.54,0,0,1,4.64,2.12,11.22,11.22,0,0,1,2.82-.37A10.24,10.24,0,0,1,101.2,9c8.37,3.14,5,8.19,4.85,8.47h.1s4.91,3.44,3.23,5.12c0,0,3,3.76.6,5.78a2.52,2.52,0,0,1-.87.44c6.88,10.73,11,29.67,8.28,45.28-.54,3.09-4.07,5.32-13.59,5.32h0a50.45,50.45,0,0,1-9.21-.82c.09.73.2,1.52.3,2.31h0c.48,3.4,1.18,7.26,1.93,7.83,4.86,3.65,12.1,5.16,16.17,5.75l5.89.55a14,14,0,0,1,1.31,1.49h.07c1.77,0,3.17,2,3.17,2l23.23,40.66-20,36s6.73,11.31,3.36,16.43l4.65,4.64s.74,2.49-2.63,2.49a10.1,10.1,0,0,1-3.9-1.27,255.26,255.26,0,0,1,.93,26.36,25.23,25.23,0,0,0-2.71-.41l0,1.72h0c-.07,11.95,0,29.22.68,33.16,1.11,6.16,0,9.19,0,9.19s3,47.93,3,48.3,4.24,5.82,4.24,5.82,5.61,4.42,10,7.92h0a12.66,12.66,0,0,1,3.66,1.54,3.67,3.67,0,0,1,1.1,2.3c.29.19.77.52,1.32.92a14.11,14.11,0,0,0,3.79.7c.6.6,0,1.26-.78,1.78.44.47.7.87.63,1.14-.29,1-4.35,5.32-11.69,5.32-.42,0-.84,0-1.27,0-7.71-.5-18.4-8.72-19.28-11a6.82,6.82,0,0,1,.12-4.61,12.71,12.71,0,0,1,1.83-5.45c1-1.82,1.71-7,1.71-7-11.11-39-4.74-44.47-6-47.29-.81-1.91-8.47-30.43-13.38-48.86a14,14,0,0,1-2.53-1.5,79.79,79.79,0,0,1-13.33,5.28l-1.41,3.54L75.48,259.45S73,268.69,70,271.67A131.27,131.27,0,0,1,62.62,293c-5,11.31-7.27,26.86-7.27,26.86s3.62,9.18,4,14.92c4.26,5.83,8.08,13,3,15.14a29.1,29.1,0,0,1-11,1.94c-6.11,0-11.59-1.44-12.87-2.71-2-2.05,3.78-17.61,3.78-17.61.18-1.41.57-2.78,1.4-3.35a25.2,25.2,0,0,0,4.44-4.85s-.76-2,1.36-4.75,5.26-20.21,5.26-22.5S51.92,276.68,61.34,270c0,0,1.08-21.86,3.84-37.68h0c.3-1.79.63-3.51,1-5.1-2.89.24-4.62.27-4.62.27s15.12-42.23,20-56.59a2.65,2.65,0,0,1,1.3-3.9c.07-.22.12-.41.16-.54,1.21-4.44-10.2-26.24-10.2-26.24l-9.63-6L56.5,165,52,163.31,46,154,35,121.27l-.32-.1a10.38,10.38,0,0,1-4.54-3.8,38.07,38.07,0,0,1-4.27.25h-.48a.7.7,0,0,1-.43-.09.81.81,0,0,1-.25-.53,45.87,45.87,0,0,0-2.45-8.6,1.44,1.44,0,0,1-.14-.76c.1-.46.64-.67,1.12-.72a2.74,2.74,0,0,0,1.37-.27c.52-.36.68-1.16,1.28-1.36a1,1,0,0,1,.3,0c.28,0,.57.08.84.08a.83.83,0,0,0,.35-.06c.49-.2.6-.82.93-1.23a3.28,3.28,0,0,1,2.05-.81A14.59,14.59,0,0,0,34,101.77a.35.35,0,0,0,.21-.18.37.37,0,0,0,0-.21c-.55-2.58-1.73-5.17-2.28-7.75a58.26,58.26,0,0,1-.94-7.4A3.92,3.92,0,0,1,33,83.74a1.09,1.09,0,0,1,.52-.16.53.53,0,0,1,.24.06c.29.13.39.48.46.8.62,2.88,2.32,10.19,2.94,13.07.39,1.84,3.72,6.43,4.43,7s.82,1.23,1.63,1.84a1.76,1.76,0,0,1,.55.57,1.83,1.83,0,0,1,.15.81l.12,4.88c.05,1.9,0,4-1.33,5.37h0l8.73,20.8-.17-.59c.08.15.16.31.23.46l.26-21.8s6.79-6.1,7.67-7c.56-.57,4.74-3,7.62-4.67h0c3-3,9.48-5.4,9.48-5.4s6.16-7,7.47-8.28.71-4.94.71-4.94l-3.37-13a25.48,25.48,0,0,1-8.31-7.91,3,3,0,0,1-2.2.88,7.73,7.73,0,0,1-3.93-1.49s-8.55-8.55-5.86-12.59a2.55,2.55,0,0,1,2.22-1.22c1.76,0,3.86,1.45,5.34,2.7-3-2.65-4.65-3-5.31-3h-.21l0,0,0,0L63,51l0-.07c-.64-.31-3.5-1.88-3.75-4.55-4.83-1.51-3.9-4.2-3.9-4.2-4.64-3.16,0-8.25,0-8.25-2.07-2.07-.47-5.08-.47-5.08-2.42-3.43.61-7.67.61-7.67.34-3.71,5.89-5.9,5.89-5.9.44-1.85,2.73-2.72,2.73-2.72a4,4,0,0,1,3.73-2.3h.31c2-4.35,9.56-4.77,12.38-4.77.68,0,1.08,0,1.08,0a7.56,7.56,0,0,1,4.58-1.75m38,159.09,12.47-22.48-11.85-17.62c.31,5.06.51,10.26.45,15.15a196.21,196.21,0,0,1-1.75,23.9,1.65,1.65,0,0,1,.68,1m24.56,170.23h0M86.12,0h0A10.74,10.74,0,0,0,80.4,1.73c-4.14,0-11,.71-14.5,5a7.64,7.64,0,0,0-4.53,3,8.4,8.4,0,0,0-2.94,2.79c-2.12,1.1-5.73,3.51-6.62,7.33-1.31,2.22-2.49,5.87-1.12,9.37a8.37,8.37,0,0,0,.11,4.59,9.71,9.71,0,0,0-1.32,5.82A7.65,7.65,0,0,0,51.54,44a6.24,6.24,0,0,0,.57,1.63,8.21,8.21,0,0,0,4,3.64,8.77,8.77,0,0,0,1.32,2.11C56,54.3,56.84,58,59.86,62.45a40.67,40.67,0,0,0,4.39,5.32l.18.19.22.16a11.23,11.23,0,0,0,6.21,2.25,8.69,8.69,0,0,0,.89-.05A31.92,31.92,0,0,0,78.06,76l3,11.35a7.5,7.5,0,0,1,0,1.82c-1.46,1.53-5.19,5.72-6.71,7.44-2,.81-6.63,2.86-9.54,5.54-7,4.05-7.59,4.62-8,5.05-.58.58-4.92,4.49-7.51,6.82L48,115.11l0,1.67,0,3.79L47,118.33a13.36,13.36,0,0,0,.87-5.85l-.13-4.87a5.31,5.31,0,0,0-.58-2.49,5.24,5.24,0,0,0-1.51-1.74l0-.08a7.26,7.26,0,0,0-1.51-1.71,24.13,24.13,0,0,1-3.2-4.93c-.32-1.47-.91-4-1.48-6.54S38.27,85.05,38,83.64A4.63,4.63,0,0,0,35.4,80.2a4.33,4.33,0,0,0-1.84-.41,4.76,4.76,0,0,0-2.35.63,7.48,7.48,0,0,0-4,5.39c-.22,2,1,8.55,1,8.61a39,39,0,0,0,1.25,4.29c.09.26.17.51.25.77l-.09,0-.24,0a6.38,6.38,0,0,0-3.88,1.95,4.94,4.94,0,0,0-.76.18,4.8,4.8,0,0,0-2.2,1.51,4.79,4.79,0,0,0-4.11,3.66,5,5,0,0,0,.32,2.94,42.19,42.19,0,0,1,2.25,7.9,4.4,4.4,0,0,0,1.83,3,4.48,4.48,0,0,0,2.53.77h.53c.86,0,1.72,0,2.58-.08A14.7,14.7,0,0,0,32,124L42.36,155.2l.15.46.26.4,6,9.31.68,1,1.17.44,4.54,1.72,4.12,1.55.93-4.3,5.54-25.61,4.18,2.61c.86,1.7,2.81,5.56,4.71,9.74,3.48,7.65,4.38,11,4.6,12.33a6.42,6.42,0,0,0-1.54,2.39,6.26,6.26,0,0,0-.15,3.58C72.32,186.09,58.11,225.75,58,226.16l-1.85,5.17,5.4-.1c0,.11,0,.22,0,.33l-.12.55v.08c-2.29,13.4-3.4,30.46-3.71,35.87-8.4,7.6-7.19,22-6.77,26.88,0,.44.08,1,.08,1.14-.06,2.51-3.06,17.84-4.49,20.22a9.84,9.84,0,0,0-2.26,5.93,16.53,16.53,0,0,1-2.69,2.83C40,326.15,39,328,38.59,330.59c-.41,1.12-1.6,4.45-2.62,8-2.21,7.68-2.25,11.15-.14,13.26,2.63,2.62,9.9,3.82,15.55,3.82a32.79,32.79,0,0,0,12.48-2.23,7.44,7.44,0,0,0,4.46-4.9c1.05-3.77-.62-8.59-5.25-15.13-.62-5-2.9-11.5-3.81-13.94.56-3.48,2.75-15.78,6.83-24.91a137.14,137.14,0,0,0,7.37-21c3-3.76,5.08-10.86,5.62-12.81l13.16-33,.74-1.85a85.93,85.93,0,0,0,9.89-3.86c10.42,39.07,12.35,45.49,12.86,46.93,0,.28-.11.75-.18,1.15-.77,4.6-2.55,15.32,5.91,45.31a24.45,24.45,0,0,1-1.16,4.88,16.22,16.22,0,0,0-2.28,6.62,10.37,10.37,0,0,0,.11,6.64c1.18,3.09,6.86,6.91,8.57,8,2.92,1.88,8.63,5.08,14,5.43.5,0,1,.05,1.52.05,8.74,0,14.55-5.21,15.35-8.13a4.3,4.3,0,0,0,.13-1.51,4.73,4.73,0,0,0,.38-1.43,4.53,4.53,0,0,0-1.33-3.65l-1.05-1.05-1.48-.06a12.49,12.49,0,0,1-2-.27,6.7,6.7,0,0,0-1.95-2.77A13.32,13.32,0,0,0,146,326c-3.58-2.86-7.79-6.19-9-7.17-1.22-1.58-2.57-3.37-3.22-4.29-.17-2.79-.77-12.45-2.93-46.74a25.43,25.43,0,0,0-.1-10.27c-.22-1.24-.72-6.59-.63-29.48l2.63.83.12-5c0-.49.22-10.44-.51-21.39a6.2,6.2,0,0,0,5.09-2.37,5.8,5.8,0,0,0,.86-5l-.28-.92-.68-.68-2.89-2.9c1.21-5.35-1.66-12-3.46-15.48L150,141l1.05-1.87-1.07-1.86L126.7,96.59l-.1-.17-.11-.16a9.09,9.09,0,0,0-4.29-3.21c-.21-.23-.43-.46-.65-.68l-1-1-1.36-.13-5.8-.54c-3.42-.5-9.52-1.74-13.7-4.56A29.72,29.72,0,0,1,99,83c1.56.12,3.14.19,4.75.19,3.93,0,15.87,0,17.34-8.46,2.51-14.49-.5-32.91-7.21-45.23,1.33-2.31.89-5.14-.4-7.52a5.3,5.3,0,0,0,0-.69,8.55,8.55,0,0,0-3-5.13,8,8,0,0,0-.25-3.8c-.88-2.81-3.2-5-6.89-6.59a14,14,0,0,0-9.82-4,14.34,14.34,0,0,0-1.73.1A10,10,0,0,0,86.12,0Zm42.53,146.83c.16-2.75.27-5.73.31-8.85,0-.67,0-1.36,0-2.06l3.14,4.67-3.46,6.24Z"/><polyline class="cls-6" points="34.71 121.17 35.23 121.47 43.26 118.2"/></g><g class="cls-28"><path class="cls-19" d="M121.79,52.84a6.85,6.85,0,0,0-.12,4.62c.88,2.29,11.57,10.5,19.28,11,8.14.54,12.65-4.17,13-5.28s-5.26-4.74-5.26-4.74Z"/><path class="cls-19" d="M42.29,56.86s-5.83,15.55-3.78,17.6,15,4.51,23.89.77S52.65,52,52.65,52Z"/><path class="cls-6" d="M94.94-64,75.48-15.22S73-6,70-3a131.27,131.27,0,0,1-7.37,21.31c-5,11.31-7.27,26.86-7.27,26.86s4.6,11.66,4,16.91c0,0,4.39,6.06,2.63,9.55S53.33,73,53.33,73s-11.56,1.52-13.28-1.36,2.17-10.61,2.17-10.61-.55-6.16,1.47-7.57a24.9,24.9,0,0,0,4.44-4.85s-.76-2,1.36-4.74,5.26-20.22,5.26-22.5S51.92,2,61.34-4.72c0,0,2.29-46.45,8.75-52.91s24.85-10.3,24.85-10.3Z"/><path class="cls-6" d="M101.87-71.23S118.16-9.7,119.37-6.87s-5.15,8.31,6,47.29c0,0-.7,5.15-1.71,7s-3.34,6.46-.41,8.08,12.42,9.69,16.46,10.4S151.29,63,151.29,63s4-1.51,2.77-2.77c0,0-3.68-.15-4.9-1.37s-14.94-12-14.94-12S130,41.43,130,41.06s-3-48.3-3-48.3,1.11-3,0-9.19-.57-45-.57-45Z"/><path class="cls-19" d="M39.27,68.72s11.56-4.95,23.13-1.17a5,5,0,0,0-.86-2.82c-1-1.52-15.45-3.84-21.61,1.24C39.93,66,38.62,67.86,39.27,68.72Z"/><path class="cls-19" d="M137.06,64.87s.45-10.19,11.59-6.43l.3.25a3.62,3.62,0,0,0-1.1-2.34,12.78,12.78,0,0,0-3.66-1.55S134,52.29,134.13,63.14C134.13,63.14,135.72,65.38,137.06,64.87Z"/><path class="cls-27" d="M86.12-270.87a6.5,6.5,0,0,1,4.64,2.12,11.22,11.22,0,0,1,2.82-.37,10.25,10.25,0,0,1,7.62,3.46c8.37,3.14,5,8.19,4.85,8.47l.1,0s4.91,3.43,3.23,5.11c0,0,3,3.77.6,5.79a2.52,2.52,0,0,1-.87.44c6.88,10.73,11,29.66,8.28,45.27-.54,3.1-4.07,5.32-13.59,5.32h0a50.45,50.45,0,0,1-9.21-.82c.09.73.2,1.52.3,2.31h0c.48,3.4,1.18,7.27,1.93,7.84,4.86,3.64,12.1,5.15,16.17,5.74l5.89.55a15.14,15.14,0,0,1,1.31,1.49h.07c1.77,0,3.17,1.94,3.17,1.94l23.23,40.67-20,36s6.73,11.31,3.36,16.43l4.65,4.65S135.34-76,132-76a10.1,10.1,0,0,1-3.9-1.27A255,255,0,0,1,129-50.9c-.33-.1-1.31-.23-2.71-.41l0,1.72h0c-.07,12,0,29.22.68,33.16,1.11,6.16,0,9.19,0,9.19s3,47.93,3,48.3,4.24,5.83,4.24,5.83,5.61,4.41,10,7.91h0a12.78,12.78,0,0,1,3.66,1.55,3.63,3.63,0,0,1,1.1,2.29c.29.2.77.52,1.32.92a14.31,14.31,0,0,0,3.79.71c.6.6,0,1.25-.78,1.77.44.47.7.88.63,1.14-.29,1.05-4.35,5.33-11.69,5.33-.42,0-.84,0-1.27-.05-7.71-.5-18.4-8.71-19.28-11a6.86,6.86,0,0,1,.12-4.62,12.76,12.76,0,0,1,1.83-5.45c1-1.82,1.71-7,1.71-7-11.11-39-4.74-44.46-6-47.29-.81-1.9-8.47-30.43-13.38-48.86a12.9,12.9,0,0,1-2.53-1.5,79.84,79.84,0,0,1-13.33,5.29l-1.41,3.53L75.48-15.22S73-6,70-3a131.27,131.27,0,0,1-7.37,21.31c-5,11.31-7.27,26.86-7.27,26.86s3.62,9.19,4,14.92c4.26,5.83,8.08,13,3,15.14a29.1,29.1,0,0,1-11,1.94c-6.11,0-11.59-1.43-12.87-2.71-2-2,3.78-17.6,3.78-17.6.18-1.42.57-2.78,1.4-3.36a24.9,24.9,0,0,0,4.44-4.85s-.76-2,1.36-4.74,5.26-20.22,5.26-22.5S51.92,2,61.34-4.72c0,0,1.08-21.86,3.84-37.67h0c.3-1.79.63-3.5,1-5.1-2.89.24-4.62.27-4.62.27s15.12-42.22,20-56.58a2.65,2.65,0,0,1,1.3-3.91c.07-.22.12-.4.16-.54,1.21-4.44-10.2-26.24-10.2-26.24l-9.63-6L56.5-109.64,52-111.35l-6-9.31L35-153.4l-.32-.1a10.38,10.38,0,0,1-4.54-3.8,35.84,35.84,0,0,1-4.27.25h-.48a.78.78,0,0,1-.43-.1.8.8,0,0,1-.25-.52,46,46,0,0,0-2.45-8.61,1.42,1.42,0,0,1-.14-.75c.1-.47.64-.68,1.12-.72a2.86,2.86,0,0,0,1.37-.28c.52-.36.68-1.16,1.28-1.35a.79.79,0,0,1,.3-.05c.28,0,.57.09.84.09a1,1,0,0,0,.35-.06c.49-.2.6-.83.93-1.24a3.34,3.34,0,0,1,2.05-.81A14.59,14.59,0,0,0,34-172.9a.35.35,0,0,0,.21-.18.34.34,0,0,0,0-.2c-.55-2.59-1.73-5.17-2.28-7.76a58.26,58.26,0,0,1-.94-7.4A4,4,0,0,1,33-190.93a1.2,1.2,0,0,1,.52-.15.52.52,0,0,1,.24.05c.29.13.39.49.46.8.62,2.88,2.32,10.19,2.94,13.07.39,1.85,3.72,6.44,4.43,7s.82,1.22,1.63,1.83a1.76,1.76,0,0,1,.55.57A1.9,1.9,0,0,1,44-167l.12,4.87c.05,1.9,0,4-1.33,5.38h0l8.73,20.8-.17-.59c.08.15.16.31.23.46l.26-21.8s6.79-6.09,7.67-7c.56-.56,4.74-3,7.62-4.67h0c3-3,9.48-5.39,9.48-5.39s6.16-7,7.47-8.28.71-4.95.71-4.95l-3.37-13A25.36,25.36,0,0,1,73.06-209a3,3,0,0,1-2.2.88,7.73,7.73,0,0,1-3.93-1.49s-8.55-8.55-5.86-12.59a2.57,2.57,0,0,1,2.22-1.22c1.76,0,3.86,1.45,5.34,2.7-3-2.65-4.65-3-5.31-3h-.21l0,0,0,0-.06,0,0-.06c-.64-.32-3.5-1.89-3.75-4.55-4.83-1.52-3.9-4.21-3.9-4.21-4.64-3.16,0-8.24,0-8.24-2.07-2.07-.47-5.09-.47-5.09-2.42-3.43.61-7.67.61-7.67.34-3.7,5.89-5.89,5.89-5.89.44-1.85,2.73-2.73,2.73-2.73a4,4,0,0,1,3.73-2.3h.31c2-4.35,9.56-4.77,12.38-4.77.68,0,1.08,0,1.08,0a7.5,7.5,0,0,1,4.58-1.75m38,159.08,12.47-22.47-11.85-17.63c.31,5.06.51,10.27.45,15.16a196.16,196.16,0,0,1-1.75,23.89,1.67,1.67,0,0,1,.68,1M148.65,58.44h0M86.12-274.67h0a10.74,10.74,0,0,0-5.72,1.73c-4.14,0-11,.72-14.5,5a7.64,7.64,0,0,0-4.53,3,8.4,8.4,0,0,0-2.94,2.79c-2.12,1.11-5.73,3.51-6.62,7.33-1.31,2.22-2.49,5.88-1.12,9.37a8.37,8.37,0,0,0,.11,4.59,9.73,9.73,0,0,0-1.32,5.82,7.65,7.65,0,0,0,2.06,4.39,6.24,6.24,0,0,0,.57,1.63,8.23,8.23,0,0,0,4,3.65,8.91,8.91,0,0,0,1.32,2.1c-1.37,2.95-.54,6.68,2.48,11.1a42,42,0,0,0,4.39,5.33l.18.18.22.16a11.23,11.23,0,0,0,6.21,2.25,6.55,6.55,0,0,0,.89,0,31.92,31.92,0,0,0,6.31,5.66l3,11.35a7.5,7.5,0,0,1,0,1.82c-1.46,1.53-5.19,5.72-6.71,7.44-2,.82-6.63,2.86-9.54,5.54-7,4-7.59,4.63-8,5-.58.58-4.92,4.5-7.51,6.82L48-159.55l0,1.66,0,3.79L47-156.33a13.4,13.4,0,0,0,.87-5.85l-.13-4.88a5.36,5.36,0,0,0-.58-2.49,5.46,5.46,0,0,0-1.51-1.74l0-.07a7.06,7.06,0,0,0-1.51-1.71A24.68,24.68,0,0,1,40.9-178c-.32-1.47-.91-4.05-1.48-6.54S38.27-189.61,38-191a4.65,4.65,0,0,0-2.57-3.44,4.33,4.33,0,0,0-1.84-.41,4.76,4.76,0,0,0-2.35.63,7.5,7.5,0,0,0-4,5.4c-.22,2,1,8.54,1,8.6A39,39,0,0,0,29.47-176c.09.26.17.52.25.77l-.09,0-.24,0a6.33,6.33,0,0,0-3.88,2,4.91,4.91,0,0,0-.76.17,4.8,4.8,0,0,0-2.2,1.51,4.8,4.8,0,0,0-4.11,3.67,5,5,0,0,0,.32,2.93A42.63,42.63,0,0,1,21-157a4.42,4.42,0,0,0,1.83,3,4.44,4.44,0,0,0,2.53.76h.53c.86,0,1.72,0,2.58-.08A14.7,14.7,0,0,0,32-150.63l10.41,31.17.15.45.26.4,6,9.32.68,1.05,1.17.44,4.54,1.71,4.12,1.56.93-4.31,5.54-25.61,4.18,2.62c.86,1.69,2.81,5.55,4.71,9.74,3.48,7.65,4.38,11,4.6,12.32a6.5,6.5,0,0,0-1.54,2.39,6.27,6.27,0,0,0-.15,3.58C72.32-88.58,58.11-48.92,58-48.51l-1.85,5.18,5.4-.1c0,.11,0,.21,0,.32l-.12.55v.08C59.06-29.08,58-12,57.64-6.6c-8.4,7.59-7.19,22-6.77,26.87,0,.44.08,1,.08,1.14-.06,2.52-3.06,17.84-4.49,20.22a9.88,9.88,0,0,0-2.26,5.93,16.53,16.53,0,0,1-2.69,2.83C40,51.48,39,53.29,38.59,55.92c-.41,1.13-1.6,4.45-2.62,8-2.21,7.68-2.25,11.15-.14,13.26C38.46,79.77,45.73,81,51.38,81a32.79,32.79,0,0,0,12.48-2.23,7.45,7.45,0,0,0,4.46-4.89c1.05-3.77-.62-8.6-5.25-15.14-.62-5-2.9-11.5-3.81-13.94C59.82,41.29,62,29,66.09,19.86A137.51,137.51,0,0,0,73.46-1.2c3-3.75,5.08-10.86,5.62-12.81L92.24-47,93-48.86a84.14,84.14,0,0,0,9.89-3.85c10.42,39.07,12.35,45.48,12.86,46.93,0,.28-.11.75-.18,1.14-.77,4.6-2.55,15.32,5.91,45.31a24.27,24.27,0,0,1-1.16,4.88A16.27,16.27,0,0,0,118,52.17a10.37,10.37,0,0,0,.11,6.64c1.18,3.09,6.86,6.92,8.57,8,2.92,1.88,8.63,5.08,14,5.43.5,0,1,0,1.52,0,8.74,0,14.55-5.21,15.35-8.12a4.38,4.38,0,0,0,.13-1.52,4.65,4.65,0,0,0,.38-1.43,4.54,4.54,0,0,0-1.33-3.65l-1.05-1-1.48-.06a12.61,12.61,0,0,1-2-.28,6.76,6.76,0,0,0-1.95-2.77A13.32,13.32,0,0,0,146,51.36c-3.58-2.86-7.79-6.18-9-7.17-1.22-1.57-2.57-3.36-3.22-4.29-.17-2.78-.77-12.44-2.93-46.74a25.39,25.39,0,0,0-.1-10.26c-.22-1.24-.72-6.59-.63-29.49l2.63.83.12-5.05c0-.49.22-10.43-.51-21.38a6.23,6.23,0,0,0,5.09-2.38,5.79,5.79,0,0,0,.86-5l-.28-.92-.68-.68L134.39-84c1.21-5.36-1.66-12-3.46-15.49l19-34.14,1.05-1.87-1.07-1.85L126.7-178.07l-.1-.18-.11-.16a9.15,9.15,0,0,0-4.29-3.21c-.21-.23-.43-.46-.65-.68l-1-1-1.36-.13-5.8-.54c-3.42-.5-9.52-1.74-13.7-4.56a28.49,28.49,0,0,1-.68-3.14c1.56.13,3.14.19,4.75.19,3.93,0,15.87,0,17.34-8.46,2.51-14.48-.5-32.91-7.21-45.22,1.33-2.32.89-5.14-.4-7.53a5.35,5.35,0,0,0,0-.69,8.58,8.58,0,0,0-3-5.13,8,8,0,0,0-.25-3.8c-.88-2.81-3.2-5-6.89-6.58a14,14,0,0,0-9.82-4.06,14.35,14.35,0,0,0-1.73.11,10,10,0,0,0-5.73-1.86Zm42.53,146.84c.16-2.75.27-5.74.31-8.86,0-.67,0-1.36,0-2.06l3.14,4.68-3.46,6.24Z"/></g></svg>