<svg id="Camada_1" data-name="Camada 1" xmlns="http://www.w3.org/2000/svg" xmlns:xlink="http://www.w3.org/1999/xlink" viewBox="0 0 709.69 222.39"><defs><style>.cls-1{fill:none;}.cls-2{fill:#ffd478;}.cls-3{fill:#027e8f;}.cls-4{fill:#f9f9f9;}.cls-5{clip-path:url(#clip-path);}.cls-6{fill:#eaa000;}.cls-7{fill:#eac2a7;}.cls-8{fill:#c9a68f;}.cls-9{fill:#d6aa8b;}.cls-10{fill:#d6d6d6;}.cls-11{fill:#c99f4b;}.cls-12{fill:#6d5f56;}.cls-13{fill:#493e38;}.cls-14{clip-path:url(#clip-path-2);}.cls-15{fill:#fcfcfc;}.cls-16{fill:#d32222;}.cls-17{fill:#f4f4f4;}.cls-18{clip-path:url(#clip-path-3);}.cls-19{fill:#b7b7b7;}.cls-20{fill:#6d472e;}.cls-21{fill:#c99e32;}.cls-22{clip-path:url(#clip-path-4);}.cls-23{fill:#aa7e30;}.cls-24{fill:#fff;}.cls-25{fill:#ddd;}.cls-26{fill:#846829;}.cls-27{fill:#e8cd95;}.cls-28{clip-path:url(#clip-path-5);}</style><clipPath id="clip-path"><path class="cls-1" d="M210.09,103.27C210.09,41.1,138.7,0,74.44,0S6.37,43.7,6.37,105.87s23.11,110,87.37,110S210.09,165.44,210.09,103.27Z"/></clipPath><clipPath id="clip-path-2"><path class="cls-1" d="M82,58.86c-.21-.22,12.53.8,17.39-2.78,0,0,1,9.69-3.39,10.75S86.4,66.13,82,58.86Z"/></clipPath><clipPath id="clip-path-3"><path class="cls-1" d="M89.23,202.25c3,5.87,23.75,7.11,25.47,7.65,0,0,.55-23.55-2.77-36.78S89.23,202.25,89.23,202.25Z"/></clipPath><clipPath id="clip-path-4"><path class="cls-1" d="M63.94,56.28c3.67,1.52.5-5.06.5-5.06s-.34-6.59-2.21-7.71a26.93,26.93,0,0,1-4.07-3.33l9.37-6.42L93.15,16.2s3.54-4.93-4.56-8A9.62,9.62,0,0,0,78.8,5.32S75.26,1.09,70.13,5c0,0-10.3-.61-12.64,4.45a3.86,3.86,0,0,0-3.79,2.15s-2.15.82-2.56,2.56c0,0-5.22,2.06-5.53,5.53,0,0-2.85,4-.57,7.21,0,0-1.51,2.83.44,4.77,0,0-4.36,4.78,0,7.75,0,0-1.08,3.1,5.31,4.36l1.9,3.92s1.82-.83,7.08,4.43Z"/></clipPath><clipPath id="clip-path-5"><path class="cls-1" d="M151.29-139s-31.66,24-84.68,4.29-53-171.54-53-171.54c-.55,1.45,33.74-45.23,46.29-49.08,3.69-1.14,22.85-16,39.12-15.61,22.64.55,48.77,16.58,48.77,31.8,0,23.38,28.31,128.34,28.31,128.34s11.88,46,5.94,49.54"/></clipPath></defs><title>4-info</title><path class="cls-2" d="M131.74,70.16H699.69a10,10,0,0,1,10,10V187a10,10,0,0,1-10,10H131.74a0,0,0,0,1,0,0V70.16A0,0,0,0,1,131.74,70.16Z"/><path class="cls-3" d="M226.62,115.93l1.12-.08,5.46-13.28h1.19l5.4,13.28,1.15.08v.85h-3.79v-.85l1.34-.1-1.27-3.19h-6.89l-1.28,3.19,1.34.1v.85h-3.77Zm4.13-4.33h6.06l-3-7.52h-.06Z"/><path class="cls-3" d="M256.25,109.48h-1l-.15-1.49a3.26,3.26,0,0,0-1.2-.72,5,5,0,0,0-1.66-.25,3.26,3.26,0,0,0-2.07.55,1.63,1.63,0,0,0-.69,1.29,1.52,1.52,0,0,0,.59,1.22,6.23,6.23,0,0,0,2.38.84,8.25,8.25,0,0,1,3.05,1.14,2.33,2.33,0,0,1,1,2,2.48,2.48,0,0,1-1.15,2.13,5.16,5.16,0,0,1-3.06.82,7.56,7.56,0,0,1-2.3-.33,5.47,5.47,0,0,1-1.8-.92v-2.13h1l.18,1.5a3,3,0,0,0,1.29.68,6.07,6.07,0,0,0,1.61.21,3.73,3.73,0,0,0,2.17-.55,1.63,1.63,0,0,0,.79-1.35,1.65,1.65,0,0,0-.66-1.3,5.66,5.66,0,0,0-2.38-.91,8.18,8.18,0,0,1-3-1.09,2.16,2.16,0,0,1-1-1.9,2.48,2.48,0,0,1,1.11-2,4.71,4.71,0,0,1,2.92-.84,6.92,6.92,0,0,1,2.29.36,4.79,4.79,0,0,1,1.7,1Z"/><path class="cls-3" d="M263.81,117a4.76,4.76,0,0,1-3.56-1.46,5.09,5.09,0,0,1-1.42-3.72v-.53a5.25,5.25,0,0,1,1.41-3.76,4.49,4.49,0,0,1,3.4-1.5,4.4,4.4,0,0,1,3.3,1.23,4.51,4.51,0,0,1,1.21,3.28v1h-8.06v.28a4.44,4.44,0,0,0,1,3,3.36,3.36,0,0,0,2.69,1.2,5.89,5.89,0,0,0,2-.3,4,4,0,0,0,1.43-.87l.54.8a4.48,4.48,0,0,1-1.63,1A6.53,6.53,0,0,1,263.81,117Zm-.17-10a3.11,3.11,0,0,0-2.34,1,4.1,4.1,0,0,0-1.12,2.49l0,0h6.69v-.29A3.23,3.23,0,0,0,266,108,3.13,3.13,0,0,0,263.64,107Z"/><path class="cls-3" d="M270.46,111.59a6.45,6.45,0,0,1,1.16-4,3.85,3.85,0,0,1,3.23-1.52,4.3,4.3,0,0,1,2.11.5,4.15,4.15,0,0,1,1.47,1.39l.15-1.69h1.06v10.43a4.35,4.35,0,0,1-1.19,3.22,4.51,4.51,0,0,1-3.32,1.18,9.3,9.3,0,0,1-1.76-.18,8,8,0,0,1-1.63-.51l.34-1a7.83,7.83,0,0,0,1.44.47,7.38,7.38,0,0,0,1.59.17,3.17,3.17,0,0,0,2.44-.89,3.49,3.49,0,0,0,.82-2.47v-1.34a3.83,3.83,0,0,1-1.46,1.25,4.65,4.65,0,0,1-2.08.43,3.9,3.9,0,0,1-3.21-1.42,5.73,5.73,0,0,1-1.16-3.78Zm1.26.2a5,5,0,0,0,.84,3,2.9,2.9,0,0,0,2.5,1.13,3.78,3.78,0,0,0,2.05-.51,3.37,3.37,0,0,0,1.26-1.43v-4.9a3.75,3.75,0,0,0-1.21-1.51,3.42,3.42,0,0,0-2.08-.58,2.82,2.82,0,0,0-2.51,1.27,5.75,5.75,0,0,0-.85,3.28Z"/><path class="cls-3" d="M290.89,115.05a3.81,3.81,0,0,1-1.47,1.43,4.5,4.5,0,0,1-2.2.51,3.62,3.62,0,0,1-2.82-1.13,5.16,5.16,0,0,1-1-3.52v-5.13l-1.41-.12v-.87h2.67v6.14a4.3,4.3,0,0,0,.71,2.77,2.51,2.51,0,0,0,2,.84,3.93,3.93,0,0,0,2.28-.58,3.08,3.08,0,0,0,1.2-1.62v-6.56l-1.62-.12v-.87h2.89v9.58l1.52.13v.85H291Z"/><path class="cls-3" d="M295.42,115.93l1.72-.13v-8.59l-1.72-.12v-.87h3v9.58l1.72.13v.85h-4.69Zm3-12.74h-1.25v-1.64h1.25Z"/><path class="cls-3" d="M305,106.22l.16,1.76v.12a3.8,3.8,0,0,1,1.32-1.53,3.6,3.6,0,0,1,2-.55,2.42,2.42,0,0,1,.47,0,2.23,2.23,0,0,1,.37.07l-.17,1.09-.93,0a3,3,0,0,0-2,.62,3.38,3.38,0,0,0-1.09,1.7v6.31l1.72.13v.85h-4.7v-.85l1.72-.13v-8.59l-1.72-.12v-.87H305Z"/><path class="cls-3" d="M319.47,107.09l-1.42.1,2.84,7,.37,1.24h.07l.4-1.24,2.8-7-1.42-.1v-.87H327v.87l-1.12.09-4,9.6h-1l-4-9.6-1.12-.09v-.87h3.84Z"/><path class="cls-3" d="M336.06,116.78c-.08-.35-.14-.66-.18-.92a7,7,0,0,1-.05-.79,4.93,4.93,0,0,1-1.69,1.37,5,5,0,0,1-2.37.55,3.87,3.87,0,0,1-2.6-.8,2.75,2.75,0,0,1-.91-2.17,2.61,2.61,0,0,1,1.36-2.32,6.76,6.76,0,0,1,3.69-.86h2.52v-1.4a2.17,2.17,0,0,0-.79-1.78,3.35,3.35,0,0,0-2.2-.64,5.88,5.88,0,0,0-1.73.24,3.83,3.83,0,0,0-1.31.65l-.11,1.41h-1v-2a6.66,6.66,0,0,1,1.89-.92,7.81,7.81,0,0,1,2.35-.35,4.83,4.83,0,0,1,3,.89,3,3,0,0,1,1.15,2.55v5.2c0,.21,0,.42,0,.62a3.83,3.83,0,0,0,.07.58l1.14.07v.85ZM331.9,116a4.87,4.87,0,0,0,2.42-.58,3.6,3.6,0,0,0,1.51-1.51v-2.12h-2.54a5,5,0,0,0-2.75.66,1.91,1.91,0,0,0-1,1.66,1.67,1.67,0,0,0,.64,1.37A2.67,2.67,0,0,0,331.9,116Z"/><path class="cls-3" d="M339.82,107.09v-.87h2.84l.12,1.75a3.81,3.81,0,0,1,1.46-1.44,4.43,4.43,0,0,1,2.19-.51,3.83,3.83,0,0,1,2.18.59,3.28,3.28,0,0,1,1.25,1.81,4.25,4.25,0,0,1,1.47-1.76,4.17,4.17,0,0,1,2.33-.64,3.56,3.56,0,0,1,2.82,1.13,5.08,5.08,0,0,1,1,3.47v5.17l1.72.14v.85h-4.72v-.85l1.72-.14V110.6a4.09,4.09,0,0,0-.74-2.76,2.71,2.71,0,0,0-2.07-.8,2.93,2.93,0,0,0-2.28.87,4,4,0,0,0-1,2.21v.15a1,1,0,0,1,0,.18v5.35l1.72.13v.85h-4.71v-.85l1.72-.13v-5.2a4,4,0,0,0-.75-2.74,2.65,2.65,0,0,0-2.07-.82,3.07,3.07,0,0,0-3.24,2.32v6.44l1.72.13v.85h-4.71v-.85l1.72-.13v-8.59Z"/><path class="cls-3" d="M360.65,111.35a5.41,5.41,0,0,1,1.38-3.83,5.23,5.23,0,0,1,7.33,0,5.41,5.41,0,0,1,1.38,3.83v.32a5.4,5.4,0,0,1-1.37,3.83,5.26,5.26,0,0,1-7.34,0,5.41,5.41,0,0,1-1.38-3.83Zm1.27.32a4.75,4.75,0,0,0,1,3.08,3.72,3.72,0,0,0,5.56,0,4.81,4.81,0,0,0,1-3.08v-.32a4.77,4.77,0,0,0-1-3.07,3.69,3.69,0,0,0-5.55,0,4.76,4.76,0,0,0-1,3.07Z"/><path class="cls-3" d="M381.08,109.48h-1L379.9,108a3.26,3.26,0,0,0-1.2-.72A5,5,0,0,0,377,107a3.26,3.26,0,0,0-2.07.55,1.63,1.63,0,0,0-.69,1.29,1.52,1.52,0,0,0,.59,1.22,6.23,6.23,0,0,0,2.38.84,8.25,8.25,0,0,1,3.05,1.14,2.33,2.33,0,0,1,1,2,2.48,2.48,0,0,1-1.15,2.13,5.16,5.16,0,0,1-3.06.82,7.56,7.56,0,0,1-2.3-.33,5.47,5.47,0,0,1-1.8-.92v-2.13h1l.18,1.5a3,3,0,0,0,1.28.68,6.2,6.2,0,0,0,1.62.21,3.73,3.73,0,0,0,2.17-.55,1.63,1.63,0,0,0,.79-1.35,1.65,1.65,0,0,0-.66-1.3,5.71,5.71,0,0,0-2.38-.91,8.11,8.11,0,0,1-3-1.09,2.16,2.16,0,0,1-1-1.9,2.48,2.48,0,0,1,1.11-2A4.71,4.71,0,0,1,377,106a6.92,6.92,0,0,1,2.29.36,4.79,4.79,0,0,1,1.7,1Z"/><path class="cls-3" d="M396.79,115.26a3.83,3.83,0,0,1-1.46,1.28,4.65,4.65,0,0,1-2.11.45,3.88,3.88,0,0,1-3.2-1.42,5.79,5.79,0,0,1-1.16-3.78v-.2a6.52,6.52,0,0,1,1.16-4,3.82,3.82,0,0,1,3.22-1.52,4.39,4.39,0,0,1,2.07.47,4.06,4.06,0,0,1,1.45,1.32v-5.26l-1.72-.13v-.87h3V115.8l1.72.13v.85H396.9Zm-6.65-3.47a5,5,0,0,0,.83,3,2.87,2.87,0,0,0,2.49,1.13,3.75,3.75,0,0,0,2-.5,3.51,3.51,0,0,0,1.27-1.4v-5a3.62,3.62,0,0,0-1.22-1.46,3.46,3.46,0,0,0-2.06-.57,2.8,2.8,0,0,0-2.5,1.26,5.86,5.86,0,0,0-.84,3.29Z"/><path class="cls-3" d="M401.6,115.93l1.72-.13v-8.59l-1.72-.12v-.87h3v9.58l1.72.13v.85H401.6Zm3-12.74h-1.25v-1.64h1.25Z"/><path class="cls-3" d="M416.69,109.48h-1l-.15-1.49a3.18,3.18,0,0,0-1.2-.72,5,5,0,0,0-1.66-.25,3.26,3.26,0,0,0-2.07.55,1.63,1.63,0,0,0-.69,1.29,1.5,1.5,0,0,0,.6,1.22,6.16,6.16,0,0,0,2.37.84,8.18,8.18,0,0,1,3.05,1.14,2.31,2.31,0,0,1,1,2,2.48,2.48,0,0,1-1.15,2.13,5.14,5.14,0,0,1-3,.82,7.58,7.58,0,0,1-2.31-.33,5.47,5.47,0,0,1-1.8-.92v-2.13h1l.18,1.5a2.86,2.86,0,0,0,1.28.68,6.09,6.09,0,0,0,1.62.21,3.72,3.72,0,0,0,2.16-.55,1.61,1.61,0,0,0,.79-1.35,1.65,1.65,0,0,0-.66-1.3,5.66,5.66,0,0,0-2.38-.91,8.25,8.25,0,0,1-3-1.09,2.16,2.16,0,0,1-1-1.9,2.48,2.48,0,0,1,1.11-2,4.71,4.71,0,0,1,2.92-.84,7,7,0,0,1,2.3.36,4.83,4.83,0,0,1,1.69,1Z"/><path class="cls-3" d="M424.1,116a3.81,3.81,0,0,0,2.21-.66,2.12,2.12,0,0,0,1-1.85h1.12l0,.06a2.84,2.84,0,0,1-1.26,2.45,4.93,4.93,0,0,1-3,1,4.48,4.48,0,0,1-3.6-1.48,5.62,5.62,0,0,1-1.28-3.8v-.41a5.61,5.61,0,0,1,1.28-3.79,4.48,4.48,0,0,1,3.59-1.49,6.31,6.31,0,0,1,2.41.46,4.68,4.68,0,0,1,1.78,1.25l.06,2.31h-1.08l-.2-1.88a3.6,3.6,0,0,0-1.26-.83,4.38,4.38,0,0,0-1.71-.31,3.11,3.11,0,0,0-2.72,1.22,5.06,5.06,0,0,0-.88,3.06v.41a5.13,5.13,0,0,0,.87,3.08A3.16,3.16,0,0,0,424.1,116Z"/><path class="cls-3" d="M439.14,115.05a3.68,3.68,0,0,1-1.47,1.43,4.49,4.49,0,0,1-2.19.51,3.62,3.62,0,0,1-2.83-1.13,5.21,5.21,0,0,1-1-3.52v-5.13l-1.42-.12v-.87h2.67v6.14a4.3,4.3,0,0,0,.71,2.77,2.51,2.51,0,0,0,2,.84,4,4,0,0,0,2.29-.58,3.12,3.12,0,0,0,1.19-1.62v-6.56l-1.62-.12v-.87h2.89v9.58l1.53.13v.85h-2.64Z"/><path class="cls-3" d="M446.65,103.51v2.71h2.51v1h-2.51v6.88a2.13,2.13,0,0,0,.41,1.47,1.4,1.4,0,0,0,1.08.43c.2,0,.4,0,.6,0l.67-.08.19.87a3.61,3.61,0,0,1-.77.19,5.67,5.67,0,0,1-.91.07,2.44,2.44,0,0,1-1.87-.7,3.13,3.13,0,0,1-.67-2.23v-6.88h-2v-1h2v-2.71Z"/><path class="cls-3" d="M451.4,115.93l1.72-.13v-8.59l-1.72-.12v-.87h3v9.58l1.72.13v.85H451.4Zm3-12.74h-1.25v-1.64h1.25Z"/><path class="cls-3" d="M460.94,106.22l.16,1.76v.12a3.82,3.82,0,0,1,1.33-1.53,3.56,3.56,0,0,1,2-.55,2.42,2.42,0,0,1,.47,0,2.62,2.62,0,0,1,.38.07l-.17,1.09-.94,0a3,3,0,0,0-2,.62,3.38,3.38,0,0,0-1.09,1.7v6.31l1.72.13v.85h-4.69v-.85l1.72-.13v-8.59l-1.72-.12v-.87h2.81Z"/><path class="cls-3" d="M477,116a3.81,3.81,0,0,0,2.21-.66,2.12,2.12,0,0,0,1-1.85h1.12l0,.06a2.84,2.84,0,0,1-1.26,2.45,5,5,0,0,1-3.05,1,4.48,4.48,0,0,1-3.6-1.48,5.62,5.62,0,0,1-1.28-3.8v-.41a5.61,5.61,0,0,1,1.28-3.79A4.46,4.46,0,0,1,477,106a6.32,6.32,0,0,1,2.42.46,4.76,4.76,0,0,1,1.78,1.25l.05,2.31h-1.07l-.2-1.88a3.6,3.6,0,0,0-1.26-.83A4.43,4.43,0,0,0,477,107a3.11,3.11,0,0,0-2.71,1.22,5.06,5.06,0,0,0-.88,3.06v.41a5.13,5.13,0,0,0,.87,3.08A3.16,3.16,0,0,0,477,116Z"/><path class="cls-3" d="M483.68,111.35a5.41,5.41,0,0,1,1.38-3.83,5.23,5.23,0,0,1,7.33,0,5.41,5.41,0,0,1,1.38,3.83v.32a5.45,5.45,0,0,1-1.37,3.83,5.26,5.26,0,0,1-7.34,0,5.41,5.41,0,0,1-1.38-3.83Zm1.26.32a4.76,4.76,0,0,0,1,3.08,3.35,3.35,0,0,0,2.79,1.25,3.3,3.3,0,0,0,2.76-1.25,4.76,4.76,0,0,0,1-3.08v-.32a4.77,4.77,0,0,0-1-3.07,3.69,3.69,0,0,0-5.55,0,4.77,4.77,0,0,0-1,3.07Z"/><path class="cls-3" d="M495.55,107.09v-.87h2.84l.12,1.75a3.81,3.81,0,0,1,1.46-1.44,4.43,4.43,0,0,1,2.19-.51,3.83,3.83,0,0,1,2.18.59,3.28,3.28,0,0,1,1.25,1.81,4.25,4.25,0,0,1,1.47-1.76,4.17,4.17,0,0,1,2.33-.64,3.56,3.56,0,0,1,2.82,1.13,5.08,5.08,0,0,1,1,3.47v5.17l1.72.14v.85h-4.72v-.85l1.72-.14V110.6a4.09,4.09,0,0,0-.74-2.76,2.71,2.71,0,0,0-2.07-.8,2.93,2.93,0,0,0-2.28.87,4,4,0,0,0-1,2.21v.15a1,1,0,0,1,0,.18v5.35l1.72.13v.85h-4.71v-.85l1.72-.13v-5.2a4,4,0,0,0-.75-2.74,2.67,2.67,0,0,0-2.07-.82,3.07,3.07,0,0,0-3.24,2.32v6.44l1.72.13v.85h-4.71v-.85l1.72-.13v-8.59Z"/><path class="cls-3" d="M516.38,111.35a5.41,5.41,0,0,1,1.38-3.83,5.23,5.23,0,0,1,7.33,0,5.41,5.41,0,0,1,1.38,3.83v.32a5.4,5.4,0,0,1-1.37,3.83,5.26,5.26,0,0,1-7.34,0,5.41,5.41,0,0,1-1.38-3.83Zm1.27.32a4.75,4.75,0,0,0,1,3.08,3.72,3.72,0,0,0,5.56,0,4.81,4.81,0,0,0,1-3.08v-.32a4.77,4.77,0,0,0-1-3.07,3.69,3.69,0,0,0-5.55,0,4.76,4.76,0,0,0-1,3.07Z"/><path class="cls-3" d="M533.78,111.35a5.41,5.41,0,0,1,1.38-3.83,5.23,5.23,0,0,1,7.33,0,5.41,5.41,0,0,1,1.38,3.83v.32a5.4,5.4,0,0,1-1.37,3.83,5.26,5.26,0,0,1-7.34,0,5.41,5.41,0,0,1-1.38-3.83Zm1.27.32a4.75,4.75,0,0,0,1,3.08,3.72,3.72,0,0,0,5.56,0,4.81,4.81,0,0,0,1-3.08v-.32a4.77,4.77,0,0,0-1-3.07,3.69,3.69,0,0,0-5.55,0,4.76,4.76,0,0,0-1,3.07Z"/><path class="cls-3" d="M554.21,109.48h-1L553,108a3.26,3.26,0,0,0-1.2-.72,5,5,0,0,0-1.66-.25,3.26,3.26,0,0,0-2.07.55,1.63,1.63,0,0,0-.69,1.29,1.52,1.52,0,0,0,.59,1.22,6.23,6.23,0,0,0,2.38.84,8.25,8.25,0,0,1,3,1.14,2.33,2.33,0,0,1,1,2,2.48,2.48,0,0,1-1.15,2.13,5.16,5.16,0,0,1-3.06.82,7.56,7.56,0,0,1-2.3-.33,5.47,5.47,0,0,1-1.8-.92v-2.13h1l.18,1.5a3,3,0,0,0,1.28.68,6.2,6.2,0,0,0,1.62.21,3.67,3.67,0,0,0,2.16-.55,1.62,1.62,0,0,0,.8-1.35,1.65,1.65,0,0,0-.66-1.3,5.71,5.71,0,0,0-2.38-.91,8.11,8.11,0,0,1-3-1.09,2.16,2.16,0,0,1-1-1.9,2.48,2.48,0,0,1,1.11-2,4.71,4.71,0,0,1,2.92-.84,6.92,6.92,0,0,1,2.29.36,4.79,4.79,0,0,1,1.7,1Z"/><path class="cls-3" d="M561.65,107.09v-.87h2.78l.16,1.64a3.94,3.94,0,0,1,1.48-1.36,4.41,4.41,0,0,1,2.11-.48,3.83,3.83,0,0,1,3.22,1.52,6.52,6.52,0,0,1,1.16,4v.2a5.8,5.8,0,0,1-1.16,3.79,3.91,3.91,0,0,1-3.2,1.41,4.92,4.92,0,0,1-2.1-.42,3.87,3.87,0,0,1-1.47-1.21v4.49l1.72.13v.87h-4.7V120l1.72-.13V107.21Zm9.64,4.5a5.67,5.67,0,0,0-.86-3.28A2.86,2.86,0,0,0,567.9,107a3.54,3.54,0,0,0-2.07.56,3.42,3.42,0,0,0-1.2,1.46v5.08a3.31,3.31,0,0,0,1.25,1.37,3.85,3.85,0,0,0,2,.49,2.93,2.93,0,0,0,2.51-1.15,5,5,0,0,0,.86-3.06Z"/><path class="cls-3" d="M574.53,115.93l1.72-.13v-8.59l-1.72-.12v-.87h3v9.58l1.72.13v.85h-4.69Zm3-12.74h-1.25v-1.64h1.25Z"/><path class="cls-3" d="M581.09,102.42v-.87h3V115.8l1.72.13v.85h-4.69v-.85l1.72-.13V102.55Z"/><path class="cls-3" d="M595.65,116.78a8.84,8.84,0,0,1-.17-.92,5.25,5.25,0,0,1-.06-.79,4.83,4.83,0,0,1-1.69,1.37,5,5,0,0,1-2.37.55,3.82,3.82,0,0,1-2.59-.8,2.75,2.75,0,0,1-.92-2.17,2.61,2.61,0,0,1,1.36-2.32,6.81,6.81,0,0,1,3.69-.86h2.52v-1.4a2.19,2.19,0,0,0-.78-1.78,3.39,3.39,0,0,0-2.2-.64,6,6,0,0,0-1.74.24,3.92,3.92,0,0,0-1.31.65l-.11,1.41h-1v-2a6.93,6.93,0,0,1,1.89-.92,7.86,7.86,0,0,1,2.35-.35,4.86,4.86,0,0,1,3,.89,3,3,0,0,1,1.15,2.55v5.2c0,.21,0,.42,0,.62a5.73,5.73,0,0,0,.07.58l1.14.07v.85ZM591.5,116a4.83,4.83,0,0,0,2.41-.58,3.6,3.6,0,0,0,1.51-1.51v-2.12h-2.54a5,5,0,0,0-2.75.66,1.93,1.93,0,0,0-1,1.66,1.7,1.7,0,0,0,.64,1.37A2.7,2.7,0,0,0,591.5,116Z"/><path class="cls-3" d="M602.42,106.22l.16,1.76v.12a3.9,3.9,0,0,1,1.33-1.53,3.59,3.59,0,0,1,2-.55,2.35,2.35,0,0,1,.47,0,2.38,2.38,0,0,1,.38.07l-.17,1.09-.94,0a3,3,0,0,0-2,.62,3.38,3.38,0,0,0-1.09,1.7v6.31l1.72.13v.85h-4.69v-.85l1.72-.13v-8.59l-1.72-.12v-.87h2.81Z"/><path class="cls-3" d="M613.2,117a4.76,4.76,0,0,1-3.56-1.46,5.13,5.13,0,0,1-1.42-3.72v-.53a5.25,5.25,0,0,1,1.41-3.76A4.49,4.49,0,0,1,613,106a4.4,4.4,0,0,1,3.3,1.23,4.47,4.47,0,0,1,1.21,3.28v1h-8.06v.28a4.44,4.44,0,0,0,1,3,3.36,3.36,0,0,0,2.69,1.2,6,6,0,0,0,2-.3,3.94,3.94,0,0,0,1.42-.87l.54.8a4.48,4.48,0,0,1-1.63,1A6.53,6.53,0,0,1,613.2,117ZM613,107a3.11,3.11,0,0,0-2.34,1,4.1,4.1,0,0,0-1.12,2.49l0,0h6.68v-.29a3.23,3.23,0,0,0-.87-2.3A3.13,3.13,0,0,0,613,107Z"/><path class="cls-3" d="M628.07,109.48h-1l-.15-1.49a3.18,3.18,0,0,0-1.2-.72A5,5,0,0,0,624,107a3.26,3.26,0,0,0-2.07.55,1.63,1.63,0,0,0-.69,1.29,1.52,1.52,0,0,0,.59,1.22,6.3,6.3,0,0,0,2.38.84,8.18,8.18,0,0,1,3,1.14,2.31,2.31,0,0,1,1,2,2.48,2.48,0,0,1-1.15,2.13,5.14,5.14,0,0,1-3,.82,7.58,7.58,0,0,1-2.31-.33,5.47,5.47,0,0,1-1.8-.92v-2.13h1l.18,1.5a2.86,2.86,0,0,0,1.28.68,6.09,6.09,0,0,0,1.62.21,3.72,3.72,0,0,0,2.16-.55,1.63,1.63,0,0,0,.79-1.35,1.65,1.65,0,0,0-.66-1.3,5.66,5.66,0,0,0-2.38-.91,8.18,8.18,0,0,1-3-1.09,2.16,2.16,0,0,1-1-1.9,2.48,2.48,0,0,1,1.11-2A4.71,4.71,0,0,1,624,106a7,7,0,0,1,2.3.36,4.83,4.83,0,0,1,1.69,1Z"/><path class="cls-3" d="M235,139.26a3.78,3.78,0,0,1-1.47,1.28,4.62,4.62,0,0,1-2.11.45,3.89,3.89,0,0,1-3.2-1.42,5.78,5.78,0,0,1-1.15-3.78v-.2a6.51,6.51,0,0,1,1.15-4.05,3.84,3.84,0,0,1,3.23-1.52,4.32,4.32,0,0,1,2.06.47,4,4,0,0,1,1.46,1.32v-5.26l-1.72-.13v-.87h3V139.8l1.72.13v.85h-2.85Zm-6.66-3.47a5.06,5.06,0,0,0,.83,3.05,2.88,2.88,0,0,0,2.5,1.13,3.8,3.8,0,0,0,2-.5,3.58,3.58,0,0,0,1.27-1.4v-5a3.62,3.62,0,0,0-1.22-1.46,3.46,3.46,0,0,0-2.06-.57,2.82,2.82,0,0,0-2.51,1.26,5.86,5.86,0,0,0-.84,3.29Z"/><path class="cls-3" d="M239.88,135.35a5.41,5.41,0,0,1,1.38-3.83,5.23,5.23,0,0,1,7.33,0,5.41,5.41,0,0,1,1.38,3.83v.32a5.4,5.4,0,0,1-1.37,3.83,5.26,5.26,0,0,1-7.34,0,5.41,5.41,0,0,1-1.38-3.83Zm1.27.32a4.75,4.75,0,0,0,1,3.08,3.72,3.72,0,0,0,5.56,0,4.81,4.81,0,0,0,1-3.08v-.32a4.77,4.77,0,0,0-1-3.07,3.69,3.69,0,0,0-5.55,0,4.76,4.76,0,0,0-1,3.07Z"/><path class="cls-3" d="M263.48,126.57a5.61,5.61,0,0,1,3.74,1.13,4.09,4.09,0,0,1,0,6,5.56,5.56,0,0,1-3.74,1.14H260v4.92l1.72.13v.85H257v-.85l1.72-.13V127.56l-1.72-.12v-.87h6.47Zm-3.5,7.31h3.5a4.08,4.08,0,0,0,2.86-.89,3.16,3.16,0,0,0,0-4.52,4,4,0,0,0-2.86-.91H260Z"/><path class="cls-3" d="M275.63,141a4.76,4.76,0,0,1-3.56-1.46,5.12,5.12,0,0,1-1.41-3.72v-.53a5.25,5.25,0,0,1,1.4-3.76,4.51,4.51,0,0,1,3.4-1.5,4.44,4.44,0,0,1,3.31,1.23,4.51,4.51,0,0,1,1.2,3.28v1h-8.06v.28a4.44,4.44,0,0,0,1,3,3.36,3.36,0,0,0,2.69,1.2,6,6,0,0,0,2-.3,3.94,3.94,0,0,0,1.42-.87l.54.8a4.48,4.48,0,0,1-1.63,1A6.53,6.53,0,0,1,275.63,141Zm-.17-10a3.12,3.12,0,0,0-2.34,1A4.1,4.1,0,0,0,272,134.5l0,0h6.68v-.29a3.23,3.23,0,0,0-.87-2.3A3.13,3.13,0,0,0,275.46,131Z"/><path class="cls-3" d="M282,139.93l1.72-.13v-8.59l-1.72-.12v-.87h2.84l.11,1.84a3.84,3.84,0,0,1,1.49-1.5,4.33,4.33,0,0,1,2.21-.54,3.64,3.64,0,0,1,2.82,1,4.69,4.69,0,0,1,1,3.28v5.45l1.72.13v.85h-4.7v-.85l1.72-.13v-5.44a3.62,3.62,0,0,0-.74-2.57,2.76,2.76,0,0,0-2.08-.75,3.48,3.48,0,0,0-2.17.65,3.55,3.55,0,0,0-1.2,1.72v6.39l1.72.13v.85H282Z"/><path class="cls-3" d="M304.41,133.48h-1l-.15-1.49a3.18,3.18,0,0,0-1.2-.72,5,5,0,0,0-1.66-.25,3.26,3.26,0,0,0-2.07.55,1.63,1.63,0,0,0-.69,1.29,1.5,1.5,0,0,0,.6,1.22,6.16,6.16,0,0,0,2.37.84,8.18,8.18,0,0,1,3.05,1.14,2.31,2.31,0,0,1,1,2,2.48,2.48,0,0,1-1.15,2.13,5.14,5.14,0,0,1-3.05.82,7.63,7.63,0,0,1-2.31-.33,5.47,5.47,0,0,1-1.8-.92v-2.13h1l.18,1.5a2.86,2.86,0,0,0,1.28.68,6.09,6.09,0,0,0,1.62.21,3.72,3.72,0,0,0,2.16-.55,1.61,1.61,0,0,0,.79-1.35,1.65,1.65,0,0,0-.66-1.3,5.66,5.66,0,0,0-2.38-.91,8.25,8.25,0,0,1-3-1.09,2.16,2.16,0,0,1-1-1.9,2.47,2.47,0,0,1,1.1-2,4.71,4.71,0,0,1,2.92-.84,7,7,0,0,1,2.3.36,4.83,4.83,0,0,1,1.69,1Z"/><path class="cls-3" d="M314.82,140.78c-.08-.35-.14-.66-.18-.92a7,7,0,0,1-.05-.79,4.93,4.93,0,0,1-1.69,1.37,5,5,0,0,1-2.37.55,3.82,3.82,0,0,1-2.59-.8A2.72,2.72,0,0,1,307,138a2.61,2.61,0,0,1,1.36-2.32,6.81,6.81,0,0,1,3.69-.86h2.52v-1.4a2.17,2.17,0,0,0-.79-1.78,3.35,3.35,0,0,0-2.2-.64,5.88,5.88,0,0,0-1.73.24,3.92,3.92,0,0,0-1.31.65l-.11,1.41h-1v-2a6.93,6.93,0,0,1,1.89-.92,7.86,7.86,0,0,1,2.35-.35,4.81,4.81,0,0,1,3,.89,3,3,0,0,1,1.15,2.55v5.2c0,.21,0,.42,0,.62a3.83,3.83,0,0,0,.07.58l1.14.07v.85Zm-4.15-.83a4.83,4.83,0,0,0,2.41-.58,3.6,3.6,0,0,0,1.51-1.51v-2.12h-2.54a5,5,0,0,0-2.75.66,1.93,1.93,0,0,0-1,1.66,1.7,1.7,0,0,0,.64,1.37A2.7,2.7,0,0,0,310.67,140Z"/><path class="cls-3" d="M318.59,131.09v-.87h2.83l.12,1.75a3.77,3.77,0,0,1,1.47-1.44,4.39,4.39,0,0,1,2.18-.51,3.83,3.83,0,0,1,2.18.59,3.35,3.35,0,0,1,1.26,1.81,3.94,3.94,0,0,1,3.79-2.4,3.56,3.56,0,0,1,2.82,1.13,5.08,5.08,0,0,1,1,3.47v5.17l1.72.14v.85h-4.71v-.85l1.71-.14V134.6a4,4,0,0,0-.74-2.76,2.7,2.7,0,0,0-2.07-.8,2.91,2.91,0,0,0-2.27.87,4.06,4.06,0,0,0-1,2.21v.15a1,1,0,0,1,0,.18v5.35l1.72.13v.85h-4.7v-.85l1.71-.13v-5.2a4,4,0,0,0-.75-2.74,2.65,2.65,0,0,0-2.07-.82,3.07,3.07,0,0,0-3.24,2.32v6.44l1.72.13v.85h-4.7v-.85l1.72-.13v-8.59Z"/><path class="cls-3" d="M344.44,141a4.76,4.76,0,0,1-3.56-1.46,5.12,5.12,0,0,1-1.41-3.72v-.53a5.29,5.29,0,0,1,1.4-3.76,4.51,4.51,0,0,1,3.41-1.5,4.4,4.4,0,0,1,3.3,1.23,4.51,4.51,0,0,1,1.2,3.28v1h-8.06v.28a4.44,4.44,0,0,0,1,3,3.38,3.38,0,0,0,2.69,1.2,6,6,0,0,0,2-.3,3.94,3.94,0,0,0,1.42-.87l.54.8a4.52,4.52,0,0,1-1.62,1A6.63,6.63,0,0,1,344.44,141Zm-.16-10a3.14,3.14,0,0,0-2.35,1,4,4,0,0,0-1.11,2.49l0,0h6.68v-.29a3.23,3.23,0,0,0-.87-2.3A3.1,3.1,0,0,0,344.28,131Z"/><path class="cls-3" d="M350.8,139.93l1.72-.13v-8.59l-1.72-.12v-.87h2.84l.12,1.84a3.81,3.81,0,0,1,1.48-1.5,4.33,4.33,0,0,1,2.21-.54,3.63,3.63,0,0,1,2.82,1,4.69,4.69,0,0,1,1,3.28v5.45l1.72.13v.85h-4.7v-.85l1.72-.13v-5.44a3.67,3.67,0,0,0-.73-2.57,2.8,2.8,0,0,0-2.09-.75,3.45,3.45,0,0,0-2.16.65,3.56,3.56,0,0,0-1.21,1.72v6.39l1.72.13v.85H350.8Z"/><path class="cls-3" d="M367.85,127.51v2.71h2.51v1h-2.51v6.88a2.14,2.14,0,0,0,.4,1.47,1.4,1.4,0,0,0,1.08.43,5.91,5.91,0,0,0,.6,0c.19,0,.42,0,.67-.08l.19.87a3.46,3.46,0,0,1-.77.19,5.58,5.58,0,0,1-.91.07,2.46,2.46,0,0,1-1.87-.7,3.13,3.13,0,0,1-.67-2.23v-6.88h-2v-1h2v-2.71Z"/><path class="cls-3" d="M372.47,135.35a5.41,5.41,0,0,1,1.38-3.83,5.23,5.23,0,0,1,7.33,0,5.41,5.41,0,0,1,1.38,3.83v.32a5.41,5.41,0,0,1-1.38,3.83,5.25,5.25,0,0,1-7.33,0,5.41,5.41,0,0,1-1.38-3.83Zm1.26.32a4.75,4.75,0,0,0,1,3.08,3.37,3.37,0,0,0,2.8,1.25,3.33,3.33,0,0,0,2.76-1.25,4.75,4.75,0,0,0,1-3.08v-.32a4.76,4.76,0,0,0-1-3.07,3.7,3.7,0,0,0-5.56,0,4.76,4.76,0,0,0-1,3.07Z"/><path class="cls-3" d="M401.81,131h-1l-.18-2.16a4.36,4.36,0,0,0-1.59-1.09,5.89,5.89,0,0,0-2.27-.41,5.19,5.19,0,0,0-4.09,1.73,6.57,6.57,0,0,0-1.52,4.48v.2a6.64,6.64,0,0,0,1.51,4.49,5,5,0,0,0,3.95,1.74,6.3,6.3,0,0,0,2.35-.42,4.35,4.35,0,0,0,1.66-1.08l.18-2.16h1v2.5a5.29,5.29,0,0,1-2.09,1.53,7.46,7.46,0,0,1-3.08.62,6.29,6.29,0,0,1-4.83-2,7.34,7.34,0,0,1-1.88-5.19v-.18a7.34,7.34,0,0,1,1.87-5.2,6.37,6.37,0,0,1,4.9-2,7.22,7.22,0,0,1,3.05.62,5.34,5.34,0,0,1,2.06,1.54Z"/><path class="cls-3" d="M404.09,135.35a5.41,5.41,0,0,1,1.38-3.83,5.23,5.23,0,0,1,7.33,0,5.41,5.41,0,0,1,1.39,3.83v.32a5.41,5.41,0,0,1-1.38,3.83,5.26,5.26,0,0,1-7.34,0,5.41,5.41,0,0,1-1.38-3.83Zm1.27.32a4.75,4.75,0,0,0,1,3.08,3.72,3.72,0,0,0,5.56,0,4.75,4.75,0,0,0,1-3.08v-.32a4.77,4.77,0,0,0-1-3.07,3.69,3.69,0,0,0-5.55,0,4.76,4.76,0,0,0-1,3.07Z"/><path class="cls-3" d="M416,131.09v-.87h2.83l.12,1.75a3.83,3.83,0,0,1,1.47-1.44,4.42,4.42,0,0,1,2.18-.51,3.83,3.83,0,0,1,2.18.59,3.3,3.3,0,0,1,1.26,1.81,3.94,3.94,0,0,1,3.79-2.4,3.56,3.56,0,0,1,2.82,1.13,5.08,5.08,0,0,1,1,3.47v5.17l1.72.14v.85h-4.71v-.85l1.71-.14V134.6a4,4,0,0,0-.74-2.76,2.7,2.7,0,0,0-2.07-.8,2.91,2.91,0,0,0-2.27.87,4.06,4.06,0,0,0-1,2.21.66.66,0,0,0,0,.15v5.53l1.72.13v.85h-4.7v-.85l1.72-.13v-5.2a4,4,0,0,0-.76-2.74,2.65,2.65,0,0,0-2.07-.82,3.07,3.07,0,0,0-3.24,2.32v6.44l1.72.13v.85H416v-.85l1.72-.13v-8.59Z"/><path class="cls-3" d="M436.56,131.09v-.87h2.78l.15,1.64A4,4,0,0,1,441,130.5a4.41,4.41,0,0,1,2.11-.48,3.84,3.84,0,0,1,3.22,1.52,6.52,6.52,0,0,1,1.16,4.05v.2a5.8,5.8,0,0,1-1.16,3.79,3.93,3.93,0,0,1-3.2,1.41,4.92,4.92,0,0,1-2.1-.42,3.87,3.87,0,0,1-1.47-1.21v4.49l1.72.13v.87h-4.7V144l1.72-.13V131.21Zm9.64,4.5a5.75,5.75,0,0,0-.86-3.28,2.86,2.86,0,0,0-2.53-1.27,3.58,3.58,0,0,0-2.08.56,3.4,3.4,0,0,0-1.19,1.46v5.08a3.24,3.24,0,0,0,1.25,1.37,3.85,3.85,0,0,0,2,.49,2.93,2.93,0,0,0,2.51-1.15,5,5,0,0,0,.86-3.06Z"/><path class="cls-3" d="M457.91,139.05a3.81,3.81,0,0,1-1.47,1.43,4.55,4.55,0,0,1-2.2.51,3.62,3.62,0,0,1-2.82-1.13,5.16,5.16,0,0,1-1-3.52v-5.13l-1.41-.12v-.87h2.66v6.14a4.24,4.24,0,0,0,.72,2.77,2.48,2.48,0,0,0,2,.84,4,4,0,0,0,2.28-.58,3.12,3.12,0,0,0,1.19-1.62v-6.56l-1.62-.12v-.87h2.89v9.58l1.53.13v.85H458Z"/><path class="cls-3" d="M465.42,127.51v2.71h2.51v1h-2.51v6.88a2.14,2.14,0,0,0,.4,1.47,1.4,1.4,0,0,0,1.08.43,5.82,5.82,0,0,0,.6,0c.19,0,.42,0,.67-.08l.19.87a3.46,3.46,0,0,1-.77.19,5.58,5.58,0,0,1-.91.07,2.46,2.46,0,0,1-1.87-.7,3.13,3.13,0,0,1-.67-2.23v-6.88h-2v-1h2v-2.71Z"/><path class="cls-3" d="M478.12,140.78c-.08-.35-.14-.66-.18-.92a7,7,0,0,1-.05-.79,4.83,4.83,0,0,1-1.69,1.37,5,5,0,0,1-2.37.55,3.82,3.82,0,0,1-2.59-.8,2.75,2.75,0,0,1-.92-2.17,2.61,2.61,0,0,1,1.36-2.32,6.81,6.81,0,0,1,3.69-.86h2.52v-1.4a2.19,2.19,0,0,0-.78-1.78,3.39,3.39,0,0,0-2.2-.64,6,6,0,0,0-1.74.24,3.92,3.92,0,0,0-1.31.65l-.11,1.41h-1v-2a6.93,6.93,0,0,1,1.89-.92A7.86,7.86,0,0,1,475,130a4.86,4.86,0,0,1,3,.89,3,3,0,0,1,1.15,2.55v5.2c0,.21,0,.42,0,.62a5.73,5.73,0,0,0,.07.58l1.14.07v.85ZM474,140a4.83,4.83,0,0,0,2.41-.58,3.6,3.6,0,0,0,1.51-1.51v-2.12h-2.54a5,5,0,0,0-2.75.66,1.93,1.93,0,0,0-1,1.66,1.7,1.7,0,0,0,.64,1.37A2.7,2.7,0,0,0,474,140Z"/><path class="cls-3" d="M487,140a3.81,3.81,0,0,0,2.21-.66,2.12,2.12,0,0,0,1-1.85h1.12l0,.06a2.84,2.84,0,0,1-1.26,2.45,5,5,0,0,1-3,1,4.48,4.48,0,0,1-3.6-1.48,5.62,5.62,0,0,1-1.28-3.8v-.41a5.61,5.61,0,0,1,1.28-3.79A4.46,4.46,0,0,1,487,130a6.32,6.32,0,0,1,2.42.46,4.68,4.68,0,0,1,1.78,1.25l0,2.31H490.2l-.2-1.88a3.6,3.6,0,0,0-1.26-.83A4.43,4.43,0,0,0,487,131a3.11,3.11,0,0,0-2.71,1.22,5.06,5.06,0,0,0-.88,3.06v.41a5.13,5.13,0,0,0,.87,3.08A3.16,3.16,0,0,0,487,140Z"/><path class="cls-3" d="M493.62,139.93l1.71-.13v-8.59l-1.71-.12v-.87h3v9.58l1.72.13v.85h-4.69Zm3-12.74h-1.26v-1.64h1.26Z"/><path class="cls-3" d="M500.43,135.35a5.41,5.41,0,0,1,1.38-3.83,5.23,5.23,0,0,1,7.33,0,5.41,5.41,0,0,1,1.38,3.83v.32a5.41,5.41,0,0,1-1.38,3.83,4.73,4.73,0,0,1-3.65,1.49,4.79,4.79,0,0,1-3.68-1.49,5.41,5.41,0,0,1-1.38-3.83Zm1.26.32a4.76,4.76,0,0,0,1,3.08,3.71,3.71,0,0,0,5.55,0,4.76,4.76,0,0,0,1-3.08v-.32a4.77,4.77,0,0,0-1-3.07,3.69,3.69,0,0,0-5.55,0,4.77,4.77,0,0,0-1,3.07Z"/><path class="cls-3" d="M512.35,139.93l1.71-.13v-8.59l-1.71-.12v-.87h2.83l.12,1.84a3.81,3.81,0,0,1,1.48-1.5A4.33,4.33,0,0,1,519,130a3.63,3.63,0,0,1,2.82,1,4.69,4.69,0,0,1,1,3.28v5.45l1.71.13v.85h-4.7v-.85l1.72-.13v-5.44a3.62,3.62,0,0,0-.73-2.57,2.8,2.8,0,0,0-2.09-.75,3.45,3.45,0,0,0-2.16.65,3.63,3.63,0,0,0-1.21,1.72v6.39l1.72.13v.85h-4.7Z"/><path class="cls-3" d="M534.36,140.78a8.84,8.84,0,0,1-.17-.92,5.25,5.25,0,0,1-.06-.79,4.89,4.89,0,0,1-1.68,1.37,5.06,5.06,0,0,1-2.38.55,3.82,3.82,0,0,1-2.59-.8,2.75,2.75,0,0,1-.92-2.17,2.61,2.61,0,0,1,1.36-2.32,6.81,6.81,0,0,1,3.69-.86h2.52v-1.4a2.19,2.19,0,0,0-.78-1.78,3.39,3.39,0,0,0-2.2-.64,6,6,0,0,0-1.74.24,3.92,3.92,0,0,0-1.31.65l-.1,1.41h-1v-2a6.93,6.93,0,0,1,1.89-.92,7.86,7.86,0,0,1,2.35-.35,4.86,4.86,0,0,1,3,.89,3,3,0,0,1,1.15,2.55v5.2c0,.21,0,.42,0,.62a5.73,5.73,0,0,0,.07.58l1.14.07v.85Zm-4.15-.83a4.83,4.83,0,0,0,2.41-.58,3.6,3.6,0,0,0,1.51-1.51v-2.12h-2.54a5.07,5.07,0,0,0-2.75.66,1.92,1.92,0,0,0-1,1.66,1.69,1.69,0,0,0,.63,1.37A2.7,2.7,0,0,0,530.21,140Z"/><path class="cls-3" d="M538.15,126.42v-.87h3V139.8l1.71.13v.85h-4.69v-.85l1.72-.13V126.55Z"/><path class="cls-3" d="M549.75,131.09v-.87h2.77l.16,1.64a4,4,0,0,1,1.48-1.36,4.48,4.48,0,0,1,2.12-.48,3.84,3.84,0,0,1,3.22,1.52,6.52,6.52,0,0,1,1.16,4.05v.2a5.8,5.8,0,0,1-1.16,3.79,3.93,3.93,0,0,1-3.2,1.41,4.92,4.92,0,0,1-2.1-.42,3.79,3.79,0,0,1-1.47-1.21v4.49l1.71.13v.87h-4.69V144l1.72-.13V131.21Zm9.64,4.5a5.75,5.75,0,0,0-.86-3.28A2.88,2.88,0,0,0,556,131a3.54,3.54,0,0,0-2.07.56,3.4,3.4,0,0,0-1.19,1.46v5.08a3.24,3.24,0,0,0,1.25,1.37,3.85,3.85,0,0,0,2,.49,2.93,2.93,0,0,0,2.51-1.15,5,5,0,0,0,.86-3.06Z"/><path class="cls-3" d="M562.71,135.35a5.41,5.41,0,0,1,1.38-3.83,5.23,5.23,0,0,1,7.33,0,5.41,5.41,0,0,1,1.38,3.83v.32a5.4,5.4,0,0,1-1.37,3.83,5.26,5.26,0,0,1-7.34,0,5.41,5.41,0,0,1-1.38-3.83Zm1.27.32a4.75,4.75,0,0,0,1,3.08,3.72,3.72,0,0,0,5.56,0,4.81,4.81,0,0,0,1-3.08v-.32a4.77,4.77,0,0,0-1-3.07,3.69,3.69,0,0,0-5.55,0,4.76,4.76,0,0,0-1,3.07Z"/><path class="cls-3" d="M582.79,139.26a3.78,3.78,0,0,1-1.47,1.28,4.61,4.61,0,0,1-2.1.45,3.87,3.87,0,0,1-3.2-1.42,5.79,5.79,0,0,1-1.16-3.78v-.2a6.52,6.52,0,0,1,1.16-4.05,3.81,3.81,0,0,1,3.22-1.52,4.32,4.32,0,0,1,2.06.47,4,4,0,0,1,1.46,1.32v-5.26l-1.72-.13v-.87h3V139.8l1.72.13v.85H582.9Zm-6.65-3.47a5.06,5.06,0,0,0,.82,3.05,2.9,2.9,0,0,0,2.5,1.13,3.77,3.77,0,0,0,2-.5,3.51,3.51,0,0,0,1.27-1.4v-5a3.62,3.62,0,0,0-1.22-1.46,3.46,3.46,0,0,0-2.06-.57,2.79,2.79,0,0,0-2.5,1.26,5.86,5.86,0,0,0-.84,3.29Z"/><path class="cls-3" d="M592.71,141a4.76,4.76,0,0,1-3.56-1.46,5.12,5.12,0,0,1-1.41-3.72v-.53a5.29,5.29,0,0,1,1.4-3.76,4.51,4.51,0,0,1,3.41-1.5,4.43,4.43,0,0,1,3.3,1.23,4.51,4.51,0,0,1,1.2,3.28v1H589v.28a4.44,4.44,0,0,0,1,3,3.36,3.36,0,0,0,2.69,1.2,6,6,0,0,0,2-.3,3.94,3.94,0,0,0,1.42-.87l.54.8a4.52,4.52,0,0,1-1.62,1A6.63,6.63,0,0,1,592.71,141Zm-.16-10a3.14,3.14,0,0,0-2.35,1,4,4,0,0,0-1.11,2.49l0,0h6.68v-.29a3.23,3.23,0,0,0-.87-2.3A3.12,3.12,0,0,0,592.55,131Z"/><path class="cls-3" d="M599,131.09v-.87h2.84L602,132a3.9,3.9,0,0,1,1.47-1.44,4.42,4.42,0,0,1,2.18-.51,3.83,3.83,0,0,1,2.18.59,3.25,3.25,0,0,1,1.26,1.81,3.94,3.94,0,0,1,3.8-2.4,3.59,3.59,0,0,1,2.82,1.13,5.13,5.13,0,0,1,1,3.47v5.17l1.72.14v.85h-4.71v-.85l1.72-.14V134.6a4,4,0,0,0-.75-2.76,2.68,2.68,0,0,0-2.07-.8,2.92,2.92,0,0,0-2.27.87,4.06,4.06,0,0,0-1,2.21c0,.06,0,.11,0,.15v5.53l1.72.13v.85h-4.7v-.85l1.72-.13v-5.2a4,4,0,0,0-.76-2.74,2.65,2.65,0,0,0-2.07-.82,3.3,3.3,0,0,0-2.13.63,3.26,3.26,0,0,0-1.1,1.69v6.44l1.71.13v.85H599v-.85l1.72-.13v-8.59Z"/><path class="cls-3" d="M226.88,155.18v-1h1.89v-1.54a3.37,3.37,0,0,1,.86-2.47,3.3,3.3,0,0,1,2.42-.86,5.53,5.53,0,0,1,.69,0c.24,0,.48.08.73.14l-.16,1-.51-.1a5.78,5.78,0,0,0-.63,0,2,2,0,0,0-1.58.61,2.42,2.42,0,0,0-.56,1.7v1.54h2.72v1H230v8.62l1.72.13v.85h-4.7v-.85l1.72-.13v-8.62Z"/><path class="cls-3" d="M242.58,164.78c-.08-.35-.14-.66-.18-.92a7,7,0,0,1-.05-.79,4.83,4.83,0,0,1-1.69,1.37,5,5,0,0,1-2.37.55,3.82,3.82,0,0,1-2.59-.8,2.72,2.72,0,0,1-.92-2.17,2.61,2.61,0,0,1,1.36-2.32,6.81,6.81,0,0,1,3.69-.86h2.52v-1.4a2.17,2.17,0,0,0-.79-1.78,3.34,3.34,0,0,0-2.19-.64,5.9,5.9,0,0,0-1.74.24,3.92,3.92,0,0,0-1.31.65l-.11,1.41h-1v-2a6.93,6.93,0,0,1,1.89-.92,7.86,7.86,0,0,1,2.35-.35,4.86,4.86,0,0,1,3,.89,3,3,0,0,1,1.14,2.55v5.2c0,.21,0,.42,0,.62a3.83,3.83,0,0,0,.07.58l1.14.07v.85Zm-4.15-.83a4.83,4.83,0,0,0,2.41-.58,3.6,3.6,0,0,0,1.51-1.51v-2.12h-2.54a5,5,0,0,0-2.75.66,1.93,1.93,0,0,0-1,1.66,1.7,1.7,0,0,0,.64,1.37A2.7,2.7,0,0,0,238.43,164Z"/><path class="cls-3" d="M251.49,164a3.82,3.82,0,0,0,2.22-.66,2.12,2.12,0,0,0,1-1.85h1.12l0,.06a2.84,2.84,0,0,1-1.26,2.45,5,5,0,0,1-3.06,1,4.48,4.48,0,0,1-3.59-1.48,5.62,5.62,0,0,1-1.28-3.8v-.41a5.61,5.61,0,0,1,1.28-3.79,4.46,4.46,0,0,1,3.58-1.49,6.32,6.32,0,0,1,2.42.46,4.76,4.76,0,0,1,1.78,1.25l0,2.31h-1.07l-.2-1.88a3.6,3.6,0,0,0-1.26-.83,4.47,4.47,0,0,0-1.72-.31,3.09,3.09,0,0,0-2.71,1.22,5.06,5.06,0,0,0-.88,3.06v.41a5.13,5.13,0,0,0,.87,3.08A3.15,3.15,0,0,0,251.49,164Z"/><path class="cls-3" d="M258.07,163.93l1.72-.13v-8.59l-1.72-.12v-.87h3v9.58l1.72.13v.85h-4.7Zm3-12.74h-1.26v-1.64h1.26Z"/><path class="cls-3" d="M264.63,150.42v-.87h3V163.8l1.72.13v.85h-4.7v-.85l1.72-.13V150.55Z"/><path class="cls-3" d="M271.23,163.93l1.72-.13v-8.59l-1.72-.12v-.87h3v9.58l1.72.13v.85h-4.7Zm3-12.74H273v-1.64h1.26Z"/><path class="cls-3" d="M281,151.51v2.71h2.51v1H281v6.88a2.14,2.14,0,0,0,.4,1.47,1.4,1.4,0,0,0,1.08.43,5.82,5.82,0,0,0,.6,0c.19,0,.42,0,.67-.08l.19.87a3.46,3.46,0,0,1-.77.19,5.49,5.49,0,0,1-.91.07,2.46,2.46,0,0,1-1.87-.7,3.13,3.13,0,0,1-.67-2.23v-6.88h-2v-1h2v-2.71Z"/><path class="cls-3" d="M293.66,164.78a7,7,0,0,1-.18-.92,5.25,5.25,0,0,1-.06-.79,4.89,4.89,0,0,1-1.68,1.37,5.06,5.06,0,0,1-2.38.55,3.84,3.84,0,0,1-2.59-.8,2.75,2.75,0,0,1-.92-2.17,2.61,2.61,0,0,1,1.36-2.32,6.81,6.81,0,0,1,3.69-.86h2.52v-1.4a2.19,2.19,0,0,0-.78-1.78,3.39,3.39,0,0,0-2.2-.64,6,6,0,0,0-1.74.24,3.92,3.92,0,0,0-1.31.65l-.1,1.41h-1.05v-2a6.93,6.93,0,0,1,1.89-.92,7.86,7.86,0,0,1,2.35-.35,4.86,4.86,0,0,1,3,.89,3,3,0,0,1,1.15,2.55v5.2c0,.21,0,.42,0,.62a5.73,5.73,0,0,0,.07.58l1.14.07v.85ZM289.5,164a4.83,4.83,0,0,0,2.41-.58,3.6,3.6,0,0,0,1.51-1.51v-2.12h-2.54a5.07,5.07,0,0,0-2.75.66,1.92,1.92,0,0,0-1,1.66,1.69,1.69,0,0,0,.63,1.37A2.7,2.7,0,0,0,289.5,164Z"/><path class="cls-3" d="M300.43,154.22l.15,1.76v.12a3.9,3.9,0,0,1,1.33-1.53,3.59,3.59,0,0,1,2-.55,2.35,2.35,0,0,1,.47,0,2.38,2.38,0,0,1,.38.07l-.17,1.09-.94-.05a3,3,0,0,0-1.95.62,3.39,3.39,0,0,0-1.1,1.7v6.31l1.72.13v.85h-4.69v-.85l1.72-.13v-8.59l-1.72-.12v-.87h2.82Z"/><path class="cls-3" d="M319.5,164.78c-.08-.35-.14-.66-.18-.92a7,7,0,0,1-.05-.79,4.83,4.83,0,0,1-1.69,1.37,5,5,0,0,1-2.37.55,3.82,3.82,0,0,1-2.59-.8,2.75,2.75,0,0,1-.92-2.17,2.61,2.61,0,0,1,1.36-2.32,6.81,6.81,0,0,1,3.69-.86h2.52v-1.4a2.19,2.19,0,0,0-.78-1.78,3.39,3.39,0,0,0-2.2-.64,6,6,0,0,0-1.74.24,3.92,3.92,0,0,0-1.31.65l-.11,1.41h-1v-2a6.93,6.93,0,0,1,1.89-.92,7.86,7.86,0,0,1,2.35-.35,4.86,4.86,0,0,1,3,.89,3,3,0,0,1,1.15,2.55v5.2c0,.21,0,.42,0,.62a5.73,5.73,0,0,0,.07.58l1.14.07v.85Zm-4.15-.83a4.83,4.83,0,0,0,2.41-.58,3.6,3.6,0,0,0,1.51-1.51v-2.12h-2.54a5,5,0,0,0-2.75.66,1.93,1.93,0,0,0-1,1.66,1.7,1.7,0,0,0,.64,1.37A2.7,2.7,0,0,0,315.35,164Z"/><path class="cls-3" d="M340.74,155h-1l-.18-2.16a4.53,4.53,0,0,0-1.59-1.09,5.89,5.89,0,0,0-2.27-.41,5.18,5.18,0,0,0-4.09,1.73,6.57,6.57,0,0,0-1.52,4.48v.2a6.64,6.64,0,0,0,1.5,4.49,5,5,0,0,0,3.95,1.74,6.36,6.36,0,0,0,2.36-.42,4.35,4.35,0,0,0,1.66-1.08l.18-2.16h1v2.5a5.36,5.36,0,0,1-2.09,1.53,7.51,7.51,0,0,1-3.09.62,6.32,6.32,0,0,1-4.83-2,7.33,7.33,0,0,1-1.87-5.19v-.18a7.34,7.34,0,0,1,1.87-5.2,6.37,6.37,0,0,1,4.9-2,7.26,7.26,0,0,1,3.05.62,5.41,5.41,0,0,1,2.06,1.54Z"/><path class="cls-3" d="M343,159.35a5.41,5.41,0,0,1,1.38-3.83,5.23,5.23,0,0,1,7.33,0,5.41,5.41,0,0,1,1.38,3.83v.32a5.45,5.45,0,0,1-1.37,3.83,5.26,5.26,0,0,1-7.34,0,5.41,5.41,0,0,1-1.38-3.83Zm1.27.32a4.75,4.75,0,0,0,1,3.08,3.72,3.72,0,0,0,5.56,0,4.81,4.81,0,0,0,1-3.08v-.32a4.77,4.77,0,0,0-1-3.07,3.69,3.69,0,0,0-5.55,0,4.76,4.76,0,0,0-1,3.07Z"/><path class="cls-3" d="M355.17,159.35a5.41,5.41,0,0,1,1.38-3.83,5.23,5.23,0,0,1,7.33,0,5.41,5.41,0,0,1,1.38,3.83v.32a5.45,5.45,0,0,1-1.37,3.83,5.26,5.26,0,0,1-7.34,0,5.41,5.41,0,0,1-1.38-3.83Zm1.26.32a4.76,4.76,0,0,0,1,3.08,3.71,3.71,0,0,0,5.55,0,4.76,4.76,0,0,0,1-3.08v-.32a4.77,4.77,0,0,0-1-3.07,3.69,3.69,0,0,0-5.55,0,4.77,4.77,0,0,0-1,3.07Z"/><path class="cls-3" d="M367,155.09v-.87h2.77l.16,1.64a4,4,0,0,1,1.48-1.36,4.45,4.45,0,0,1,2.12-.48,3.81,3.81,0,0,1,3.21,1.52,6.45,6.45,0,0,1,1.16,4.05v.2a5.74,5.74,0,0,1-1.16,3.79,3.89,3.89,0,0,1-3.19,1.41,4.92,4.92,0,0,1-2.1-.42,3.82,3.82,0,0,1-1.48-1.21v4.49l1.72.13v.87H367V168l1.72-.13V155.21Zm9.64,4.5a5.67,5.67,0,0,0-.87-3.28,2.85,2.85,0,0,0-2.53-1.27,3.54,3.54,0,0,0-2.07.56,3.5,3.5,0,0,0-1.2,1.46v5.08a3.37,3.37,0,0,0,1.25,1.37,3.9,3.9,0,0,0,2,.49,2.93,2.93,0,0,0,2.52-1.15,5,5,0,0,0,.86-3.06Z"/><path class="cls-3" d="M385,165a4.76,4.76,0,0,1-3.56-1.46,5.09,5.09,0,0,1-1.42-3.72v-.53a5.25,5.25,0,0,1,1.41-3.76,4.49,4.49,0,0,1,3.4-1.5,4.4,4.4,0,0,1,3.3,1.23,4.51,4.51,0,0,1,1.21,3.28v1h-8.06v.28a4.44,4.44,0,0,0,1,3A3.36,3.36,0,0,0,385,164a5.89,5.89,0,0,0,2-.3,4,4,0,0,0,1.43-.87l.54.8a4.48,4.48,0,0,1-1.63,1A6.53,6.53,0,0,1,385,165Zm-.17-10a3.11,3.11,0,0,0-2.34,1,4.1,4.1,0,0,0-1.12,2.49l0,0h6.69v-.29a3.23,3.23,0,0,0-.87-2.3A3.13,3.13,0,0,0,384.8,155Z"/><path class="cls-3" d="M394.29,154.22l.16,1.76v.12a3.88,3.88,0,0,1,1.32-1.53,3.62,3.62,0,0,1,2-.55,2.42,2.42,0,0,1,.47,0,2.62,2.62,0,0,1,.38.07l-.17,1.09-.94-.05a3,3,0,0,0-2,.62,3.38,3.38,0,0,0-1.09,1.7v6.31l1.72.13v.85h-4.69v-.85l1.72-.13v-8.59l-1.72-.12v-.87h2.81Z"/><path class="cls-3" d="M408.12,164.78a7,7,0,0,1-.18-.92,5.24,5.24,0,0,1-.05-.79,5.13,5.13,0,0,1-4.06,1.92,3.85,3.85,0,0,1-2.6-.8,2.75,2.75,0,0,1-.92-2.17,2.63,2.63,0,0,1,1.36-2.32,6.82,6.82,0,0,1,3.7-.86h2.52v-1.4a2.2,2.2,0,0,0-.79-1.78,3.37,3.37,0,0,0-2.2-.64,5.88,5.88,0,0,0-1.73.24,4,4,0,0,0-1.32.65l-.1,1.41H400.7v-2a6.86,6.86,0,0,1,1.9-.92A7.74,7.74,0,0,1,405,154a4.84,4.84,0,0,1,3,.89,3,3,0,0,1,1.15,2.55v5.2c0,.21,0,.42,0,.62a3.83,3.83,0,0,0,.07.58l1.13.07v.85ZM404,164a4.87,4.87,0,0,0,2.42-.58,3.66,3.66,0,0,0,1.51-1.51v-2.12h-2.55a5,5,0,0,0-2.74.66,1.91,1.91,0,0,0-1,1.66,1.67,1.67,0,0,0,.64,1.37A2.67,2.67,0,0,0,404,164Z"/><path class="cls-3" d="M417,164a3.79,3.79,0,0,0,2.21-.66,2.12,2.12,0,0,0,1-1.85h1.12l0,.06a2.79,2.79,0,0,1-1.26,2.45,4.91,4.91,0,0,1-3.05,1,4.48,4.48,0,0,1-3.6-1.48,5.61,5.61,0,0,1-1.27-3.8v-.41a5.6,5.6,0,0,1,1.27-3.79A4.48,4.48,0,0,1,417,154a6.27,6.27,0,0,1,2.41.46,4.8,4.8,0,0,1,1.79,1.25l0,2.31h-1.08l-.2-1.88a3.51,3.51,0,0,0-1.26-.83A4.38,4.38,0,0,0,417,155a3.12,3.12,0,0,0-2.72,1.22,5.13,5.13,0,0,0-.88,3.06v.41a5.06,5.06,0,0,0,.88,3.08A3.13,3.13,0,0,0,417,164Zm.33.87-.12.63a2.61,2.61,0,0,1,1.34.47,1.39,1.39,0,0,1,.52,1.2,1.62,1.62,0,0,1-.84,1.42,4.47,4.47,0,0,1-2.38.53l-.07-.76a3.74,3.74,0,0,0,1.58-.3.94.94,0,0,0,.65-.87.8.8,0,0,0-.43-.78,4.3,4.3,0,0,0-1.53-.3l.3-1.24Z"/><path class="cls-3" d="M431.57,164.78c-.08-.35-.14-.66-.18-.92a7,7,0,0,1-.05-.79,4.83,4.83,0,0,1-1.69,1.37,5,5,0,0,1-2.37.55,3.82,3.82,0,0,1-2.59-.8,2.72,2.72,0,0,1-.92-2.17,2.61,2.61,0,0,1,1.36-2.32,6.81,6.81,0,0,1,3.69-.86h2.52v-1.4a2.17,2.17,0,0,0-.79-1.78,3.34,3.34,0,0,0-2.19-.64,5.9,5.9,0,0,0-1.74.24,3.92,3.92,0,0,0-1.31.65l-.11,1.41h-1v-2a6.93,6.93,0,0,1,1.89-.92,7.86,7.86,0,0,1,2.35-.35,4.86,4.86,0,0,1,3,.89,3,3,0,0,1,1.15,2.55v5.2c0,.21,0,.42,0,.62a3.83,3.83,0,0,0,.07.58l1.14.07v.85Zm.46-14.63a1.93,1.93,0,0,1-.58,1.42,2,2,0,0,1-1.45.57,2.86,2.86,0,0,1-1.59-.54,2.64,2.64,0,0,0-1.38-.54,1.15,1.15,0,0,0-.84.35,1.18,1.18,0,0,0-.33.87l-.84-.18a1.95,1.95,0,0,1,2-2,3.11,3.11,0,0,1,1.55.53,3,3,0,0,0,1.42.54,1.14,1.14,0,0,0,.83-.35,1.18,1.18,0,0,0,.35-.89ZM427.42,164a4.83,4.83,0,0,0,2.41-.58,3.6,3.6,0,0,0,1.51-1.51v-2.12H428.8a5,5,0,0,0-2.75.66,1.93,1.93,0,0,0-1,1.66,1.7,1.7,0,0,0,.64,1.37A2.7,2.7,0,0,0,427.42,164Z"/><path class="cls-3" d="M435.61,159.35a5.41,5.41,0,0,1,1.38-3.83,5.23,5.23,0,0,1,7.33,0,5.41,5.41,0,0,1,1.38,3.83v.32a5.45,5.45,0,0,1-1.37,3.83,5.26,5.26,0,0,1-7.34,0,5.41,5.41,0,0,1-1.38-3.83Zm1.27.32a4.75,4.75,0,0,0,1,3.08,3.72,3.72,0,0,0,5.56,0,4.81,4.81,0,0,0,1-3.08v-.32a4.77,4.77,0,0,0-1-3.07,3.69,3.69,0,0,0-5.55,0,4.76,4.76,0,0,0-1,3.07Z"/><path class="cls-3" d="M449.71,164.78h-1.44v-1.6h1.44Z"/><circle class="cls-4" cx="91" cy="131.39" r="88"/><path class="cls-3" d="M91,46.39a85,85,0,1,1-85,85,85,85,0,0,1,85-85m0-6a91,91,0,1,0,91,91,91.11,91.11,0,0,0-91-91Z"/><path class="cls-2" d="M90.78,46.55a84.78,84.78,0,1,0,84.77,84.77A84.77,84.77,0,0,0,90.78,46.55Zm0,163.9a79.13,79.13,0,1,1,79.12-79.13A79.13,79.13,0,0,1,90.78,210.45Z"/><path class="cls-2" d="M130.79,69.74a2.86,2.86,0,0,0-2.13-.4,2.9,2.9,0,0,0-1.79,1.22l-4.62,7.11a2.82,2.82,0,0,0,.9,4,38.71,38.71,0,0,1,3.17,2.25c.63.49,1.27,1,1.77,1.33.88.72,1.72,1.48,2.56,2.25l-2,2a56.11,56.11,0,0,0-12.39-8.48l5.78-13a2.79,2.79,0,0,0,.06-2.16,2.83,2.83,0,0,0-1.49-1.57,73.88,73.88,0,0,0-26-6.2,2.82,2.82,0,0,0-3,2.67l-.44,8.47a2.83,2.83,0,0,0,2.67,3l3,.15,3.17.48,1.22.19c.61.09,1.22.17,1.76.3l.39.09-.74,2.77a57.91,57.91,0,0,0-15-1.21L86.21,60.77a2.83,2.83,0,0,0-3.1-2.52A72.94,72.94,0,0,0,57.43,65.9a2.83,2.83,0,0,0-1.23,3.8l3.86,7.55a2.81,2.81,0,0,0,3.7,1.28c.57-.26,1.13-.54,1.69-.81a30.55,30.55,0,0,1,4-1.74l.73-.27c.85-.31,1.67-.62,2.49-.89l.73,2.73c-.7.24-1.37.49-2,.74l-.67.25a26.27,26.27,0,0,0-4,1.71l-1.7.82-4.79,2.76L59.9,84,51.57,72.56a2.83,2.83,0,0,0-1.85-1.13,2.77,2.77,0,0,0-2.1.51A73.38,73.38,0,0,0,29.19,91.31,2.83,2.83,0,0,0,30,95.23l7.11,4.62a2.8,2.8,0,0,0,2.16.39A2.84,2.84,0,0,0,41.08,99a36.28,36.28,0,0,1,2.25-3.16c.49-.64,1-1.28,1.33-1.78.72-.87,1.48-1.72,2.25-2.56l2,2a56.15,56.15,0,0,0-8.49,12.39l-13-5.78a2.83,2.83,0,0,0-3.74,1.43,74.15,74.15,0,0,0-6.2,26,2.83,2.83,0,0,0,2.68,3l8.47.43a2.79,2.79,0,0,0,3-2.66l.15-3,.48-3.17c.08-.4.13-.81.19-1.22.09-.62.18-1.23.3-1.76l.1-.39,2.77.74a57.48,57.48,0,0,0-1.22,15l-14.14,1.47a2.85,2.85,0,0,0-1.9,1,2.82,2.82,0,0,0-.61,2.07,73.63,73.63,0,0,0,7.65,25.68,2.8,2.8,0,0,0,1.64,1.4,2.85,2.85,0,0,0,2.16-.17l7.55-3.85A2.83,2.83,0,0,0,38,158.34c-.26-.56-.53-1.11-.8-1.67a29.75,29.75,0,0,1-1.75-4.06l-.27-.75c-.32-.84-.62-1.66-.89-2.47l2.77-.74a55.69,55.69,0,0,0,6.45,13.53L32,170.53a2.82,2.82,0,0,0-.62,3.95,73.58,73.58,0,0,0,19.38,18.43,2.81,2.81,0,0,0,3.91-.83L59.3,185a2.83,2.83,0,0,0-.89-4,35.65,35.65,0,0,1-3.17-2.26c-.64-.49-1.28-1-1.77-1.32-.88-.72-1.72-1.48-2.56-2.25l2-2c.75.69,1.53,1.39,2.47,2.16.55.39,1.09.8,1.62,1.21a34.36,34.36,0,0,0,3.15,2.22l5.05,2.89.06,0-5.79,13a2.86,2.86,0,0,0-.06,2.17,2.82,2.82,0,0,0,1.49,1.56,73.94,73.94,0,0,0,26,6.21h.15a2.83,2.83,0,0,0,2.82-2.68l.44-8.46a2.82,2.82,0,0,0-2.67-3l-3-.15-3.17-.49-1.22-.18c-.62-.09-1.23-.18-1.76-.3l-.39-.1.74-2.77a57.85,57.85,0,0,0,15,1.22l1.46,14.13a2.81,2.81,0,0,0,3.11,2.52,72.8,72.8,0,0,0,25.68-7.65,2.82,2.82,0,0,0,1.23-3.8l-3.86-7.55a2.83,2.83,0,0,0-3.7-1.28l-1.7.82a28.22,28.22,0,0,1-4,1.73l-.72.27c-.85.32-1.67.62-2.49.9l-.74-2.77a56.17,56.17,0,0,0,13.52-6.45L130,190.09a2.82,2.82,0,0,0,3.94.62,73.41,73.41,0,0,0,18.43-19.38,2.81,2.81,0,0,0,.4-2.13,2.84,2.84,0,0,0-1.22-1.78l-7.11-4.63a2.85,2.85,0,0,0-4,.9,35,35,0,0,1-2.25,3.17c-.49.64-1,1.28-1.32,1.78-.73.87-1.49,1.71-2.26,2.55l-1.95-1.95a56.11,56.11,0,0,0,8.48-12.39l13,5.78a2.84,2.84,0,0,0,3.73-1.43,73.72,73.72,0,0,0,6.2-26,2.83,2.83,0,0,0-2.68-3l-8.46-.44a2.85,2.85,0,0,0-3,2.67l-.15,3-.48,3.16c-.07.41-.13.82-.19,1.23-.09.61-.17,1.22-.29,1.75l-.1.39-2.73-.72,0-.07c.15-.66.25-1.33.34-2,.05-.32.09-.63.15-1l.43-2.78a2.54,2.54,0,0,0,0-.29l.14-3v-5.91l14.2-1.47a2.85,2.85,0,0,0,1.9-1,2.88,2.88,0,0,0,.62-2.08A73.86,73.86,0,0,0,156.2,98a2.83,2.83,0,0,0-3.8-1.23l-7.55,3.85a2.82,2.82,0,0,0-1.28,3.71c.26.56.53,1.11.8,1.67a28.07,28.07,0,0,1,1.75,4.06l.27.74c.32.85.62,1.66.89,2.47l-2.77.74a55.8,55.8,0,0,0-6.45-13.52l11.48-8.36a2.81,2.81,0,0,0,1.13-1.84,2.76,2.76,0,0,0-.51-2.1A73.38,73.38,0,0,0,130.79,69.74Zm1.72,27.78a2.84,2.84,0,0,0-.63,4,50.31,50.31,0,0,1,8,16.69,2.84,2.84,0,0,0,3.46,2L151.5,118a2.83,2.83,0,0,0,2-3.32,40.85,40.85,0,0,0-1.85-5.84l-.22-.61a29.72,29.72,0,0,0-1.59-3.83l2.52-1.29a68,68,0,0,1,5.47,18.35l-14,1.45a2.82,2.82,0,0,0-2.53,3l.14,2.74V134l-.14,2.66-.41,2.6c-.06.37-.11.74-.17,1.11a13.19,13.19,0,0,1-.23,1.42l-.7,2.72a2.82,2.82,0,0,0,2,3.44l8.19,2.19a2.83,2.83,0,0,0,3.47-2l.83-3.23c.17-.75.29-1.52.4-2.28,0-.37.1-.73.17-1.13l.52-3.5,0-.43,2.77.14a68.19,68.19,0,0,1-4.42,18.61L141,150.56a2.84,2.84,0,0,0-2.16-.05,2.8,2.8,0,0,0-1.57,1.49,50.66,50.66,0,0,1-10.48,15.29,2.84,2.84,0,0,0,0,4l6,6a2.76,2.76,0,0,0,2.08.83,2.83,2.83,0,0,0,2-1l1.53-1.68c1-1.07,2-2.13,3-3.4.43-.61.88-1.2,1.33-1.79.32-.41.64-.83.95-1.25l2.37,1.54a67.58,67.58,0,0,1-13.17,13.85l-8.28-11.38a2.82,2.82,0,0,0-4-.62,50.41,50.41,0,0,1-16.69,8,2.78,2.78,0,0,0-1.72,1.31,2.83,2.83,0,0,0-.29,2.15l2.2,8.19a2.82,2.82,0,0,0,3.32,2,41.93,41.93,0,0,0,5.86-1.85l.58-.22a27.29,27.29,0,0,0,3.83-1.58L119,193a68.82,68.82,0,0,1-18.35,5.47l-1.45-14a2.78,2.78,0,0,0-3.08-2.52,52,52,0,0,1-18.51-1.51,2.86,2.86,0,0,0-2.14.28,2.82,2.82,0,0,0-1.32,1.72L72,190.59a2.82,2.82,0,0,0,2,3.47l3.21.82c.76.18,1.53.29,2.3.4l1.12.17,3.49.52.44,0-.15,2.77a68.5,68.5,0,0,1-18.6-4.43l5.73-12.84a2.83,2.83,0,0,0-1.36-3.7l-2.34-1.12L63,173.91a27.21,27.21,0,0,1-2.57-1.83c-.61-.46-1.2-.92-1.64-1.22-.82-.67-1.6-1.39-2.38-2.11-.58-.53-1.16-1.06-1.76-1.59a2.84,2.84,0,0,0-3.86.13l-6,6a2.82,2.82,0,0,0,.12,4.11c.55.49,1.11,1,1.66,1.51,1.07,1,2.15,2,3.42,3,.61.43,1.2.88,1.78,1.33l1.26,1-1.54,2.37a67.58,67.58,0,0,1-13.85-13.17l11.38-8.28a2.82,2.82,0,0,0,.62-3.95,50.56,50.56,0,0,1-8-16.7,2.83,2.83,0,0,0-3.45-2l-8.2,2.19A2.84,2.84,0,0,0,28,148a42.41,42.41,0,0,0,1.84,5.83l.23.61a29.67,29.67,0,0,0,1.58,3.83l-2.51,1.29a68.48,68.48,0,0,1-5.48-18.35l14-1.45a2.82,2.82,0,0,0,2.52-3.09,52,52,0,0,1,1.51-18.5,2.79,2.79,0,0,0-.28-2.15,2.86,2.86,0,0,0-1.72-1.32l-8.19-2.18a2.79,2.79,0,0,0-2.15.29A2.84,2.84,0,0,0,28,114.54l-.82,3.23c-.18.75-.29,1.51-.4,2.28-.05.36-.1.72-.17,1.13l-.52,3.49,0,.43L23.33,125a68.77,68.77,0,0,1,4.42-18.6l12.85,5.72a2.82,2.82,0,0,0,2.17.06,2.87,2.87,0,0,0,1.57-1.49,50.68,50.68,0,0,1,10.47-15.3,2.82,2.82,0,0,0,0-4l-6-6a2.84,2.84,0,0,0-4.11.12c-.5.57-1,1.13-1.53,1.69-1,1.06-2,2.13-3,3.4-.43.61-.89,1.2-1.34,1.79l-1,1.25-2.37-1.54A67.89,67.89,0,0,1,48.69,78.21L57,89.59a2.82,2.82,0,0,0,4,.62l.65-.49a9.24,9.24,0,0,1,1.39-1l4.62-2.68q.82-.37,1.62-.78a22.39,22.39,0,0,1,3.31-1.41l.85-.31a27.78,27.78,0,0,1,4.09-1.3,2.83,2.83,0,0,0,2.16-3.5L77.43,70.6a2.82,2.82,0,0,0-3.32-2,41.11,41.11,0,0,0-5.86,1.85l-.59.22a28.32,28.32,0,0,0-3.83,1.58L62.54,69.7a68.82,68.82,0,0,1,18.35-5.47l1.45,14a2.79,2.79,0,0,0,3.08,2.52,52,52,0,0,1,18.51,1.51,2.81,2.81,0,0,0,3.46-2l2.19-8.19a2.83,2.83,0,0,0-2-3.47l-3.22-.82c-.76-.18-1.52-.29-2.29-.4l-1.13-.18-3.49-.52-.44,0,.15-2.77a68,68,0,0,1,18.6,4.42L110,81.15a2.8,2.8,0,0,0,1.44,3.73,51,51,0,0,1,15.29,10.48,2.82,2.82,0,0,0,4,0l6-6a2.79,2.79,0,0,0,.82-2.08,2.82,2.82,0,0,0-.94-2c-.56-.49-1.11-1-1.66-1.51-1.08-1-2.15-2-3.43-3-.6-.43-1.19-.89-1.78-1.34l-1.26-1L130,76.07a68.1,68.1,0,0,1,13.85,13.17Z"/><path class="cls-2" d="M90.78,86.11a45.12,45.12,0,0,0-39,68,2.75,2.75,0,0,0,.17.29,45.43,45.43,0,0,0,11.53,12.9c.07.05.11.12.19.17l.06,0a44.88,44.88,0,0,0,54.06,0s0,0,.07,0,.13-.12.2-.17a45.4,45.4,0,0,0,11.52-12.9,1.75,1.75,0,0,0,.18-.29,45.13,45.13,0,0,0-39-68Zm-5.1,6L54.32,146.68A39.52,39.52,0,0,1,85.68,92.13ZM68.81,164.21l22-38.19,22,38.19a39.48,39.48,0,0,1-43.93,0Zm48.41-3.55L94.45,121.08a4.24,4.24,0,0,0-7.35,0L64.33,160.66a39.8,39.8,0,0,1-6.88-8.1l33.33-58,6.46,11.21c0,.08.08.17.13.25l26.73,46.5a39.49,39.49,0,0,1-6.88,8.1Zm10-14L102.4,103.47a2.1,2.1,0,0,0-.13-.26L95.88,92.13a39.53,39.53,0,0,1,31.36,54.55Z"/><g class="cls-5"><path class="cls-6" d="M74.44,3.33a6.13,6.13,0,0,1,4.36,2A10.63,10.63,0,0,1,81.44,5a9.61,9.61,0,0,1,7.15,3.25c7.87,2.95,4.75,7.69,4.57,8l.08,0s4.62,3.22,3,4.8c0,0,2.84,3.54.57,5.43a2.68,2.68,0,0,1-.83.42c6.47,10.07,10.32,27.85,7.78,42.51-.51,2.91-3.82,5-12.76,5h0a48.21,48.21,0,0,1-8.65-.77c.09.68.18,1.42.29,2.17h0c.44,3.19,1.1,6.82,1.81,7.35C89,86.54,95.83,88,99.65,88.51l5.53.52a13.06,13.06,0,0,1,2.88,4.22h0l32.3,30,25.5-21.56S167.55,95,177,95a24.28,24.28,0,0,1,3.88.33c12.87,2.08-1.17,3.6-1.17,3.6s1.46-.12,3.61-.12a36.81,36.81,0,0,1,11.76,1.64l1.94,2.37-4.46,4.46a157.74,157.74,0,0,1-16.15,1.42,8.53,8.53,0,0,1-3.81-.52.37.37,0,0,0-.23-.06c-3.5,0-32.29,27.15-32.29,27.15l-29.66-24c.44,5.89.76,12.17.69,18a186.76,186.76,0,0,1-1.64,22.44c1.29.92.36,2.86.36,2.86l2.42,19.27c0,.14,0,.28,0,.42,3,13.4,2.49,35.61,2.49,35.61a22.31,22.31,0,0,0-2.54-.38l0,1.61h0c-.06,11.23,0,27.44.64,31.14,1,5.78,0,8.63,0,8.63s2.84,45,2.84,45.36,4,5.47,4,5.47,5.27,4.14,9.37,7.43h0a11.77,11.77,0,0,1,3.43,1.45,3.34,3.34,0,0,1,1,2.16c.28.18.73.49,1.25.86a13.41,13.41,0,0,0,3.56.66c.56.56,0,1.18-.74,1.67.41.44.66.82.59,1.07-.27,1-4.08,5-11,5-.38,0-.78,0-1.19,0-7.24-.47-17.27-8.19-18.1-10.34a6.39,6.39,0,0,1,.11-4.33,12,12,0,0,1,1.72-5.12c.95-1.7,1.61-6.54,1.61-6.54-10.43-36.61-4.46-41.76-5.6-44.41-.72-1.69-7.16-25.65-11.76-42.89h0l0-.05c-.27-1-.53-2-.78-2.95a11.86,11.86,0,0,1-2.38-1.4,74.42,74.42,0,0,1-12.52,5L64.44,243.41s-2.35,8.68-5.15,11.47a123.45,123.45,0,0,1-6.92,20c-4.74,10.62-6.83,25.23-6.83,25.23s3.4,8.62,3.8,14c4,5.47,7.58,12.22,2.82,14.21a27.26,27.26,0,0,1-10.35,1.83c-5.74,0-10.88-1.35-12.08-2.55-1.92-1.93,3.55-16.53,3.55-16.53.17-1.33.54-2.61,1.31-3.15a23.48,23.48,0,0,0,4.17-4.55s-.71-1.9,1.28-4.46S45,280,45,277.8s-2.65-18.21,6.2-24.53c0,0,1-20.53,3.61-35.38h0c.28-1.69.58-3.3.92-4.8-2.72.23-4.35.26-4.35.26l6-16.75c-2.86-.27-1-4.72-1-4.72a23.44,23.44,0,0,0,3.37-2c.36-1,.73-2.05,1.09-3.08-.94-2.34,1.42-9.6,1.42-9.6l-8.69-6.56-25.26-19s20.3-47.85,21.12-48.68c.53-.53,4.45-2.82,7.15-4.38,2.83-2.83,8.91-5.07,8.91-5.07s5.78-6.54,7-7.77.67-4.65.67-4.65L70,68.89a23.84,23.84,0,0,1-7.8-7.43,2.82,2.82,0,0,1-2.06.83,7.26,7.26,0,0,1-3.69-1.4s-8-8-5.5-11.82A2.39,2.39,0,0,1,53,47.92c1.65,0,3.62,1.37,5,2.54-2.85-2.49-4.37-2.83-5-2.83h-.19l0,0,0,0-.05,0,0-.06c-.6-.3-3.29-1.77-3.52-4.27-4.54-1.42-3.66-4-3.66-4-4.36-3,0-7.75,0-7.75-1.95-1.94-.44-4.77-.44-4.77-2.28-3.22.57-7.21.57-7.21.31-3.47,5.53-5.53,5.53-5.53.41-1.74,2.56-2.56,2.56-2.56a3.79,3.79,0,0,1,3.5-2.16h.29C59.38,5.35,66.47,5,69.12,5c.63,0,1,0,1,0a7.09,7.09,0,0,1,4.31-1.65M67.3,168.45c1.13-3.24,2.12-6.08,2.86-8.24a2.49,2.49,0,0,1,1.22-3.67c.06-.21.11-.38.15-.5C72.66,151.87,62,131.4,62,131.4l-9.05-5.67L40.21,149.58l20.28,14.13,6.81,4.74m65.86,144.13h0M74.44,0h0a9.89,9.89,0,0,0-5.31,1.62h0c-3.85,0-10.31.65-13.55,4.64A7,7,0,0,0,51.35,9a7.65,7.65,0,0,0-2.75,2.62c-2,1-5.36,3.24-6.17,6.79-1.21,2.06-2.33,5.46-1,8.7a7.72,7.72,0,0,0,.12,4.35,9,9,0,0,0-1.26,5.42,7,7,0,0,0,1.91,4,5.7,5.7,0,0,0,.53,1.53,7.52,7.52,0,0,0,3.68,3.36A8.17,8.17,0,0,0,47.72,48c-1.33,2.72-.58,6.19,2.24,10.33a38.79,38.79,0,0,0,4.1,5l.16.16.19.14a10.32,10.32,0,0,0,5.7,2.07,7,7,0,0,0,.92-.06,30.05,30.05,0,0,0,6,5.41l2.8,10.76a7.23,7.23,0,0,1,0,1.86c-1.34,1.4-5,5.47-6.38,7.08-1.85.74-6.23,2.67-9,5.19-6.58,3.8-7.11,4.33-7.5,4.72-.64.64-1,1-11.57,25.69-5.12,11.93-10.2,23.92-10.26,24l-1,2.4,2.08,1.56,25.25,19,6.84,5.16a22.71,22.71,0,0,0-1,8.11l-.42,1.17a21.85,21.85,0,0,1-2,1.11l-1.15.54-.5,1.17c-.41,1-1.65,4.4-.11,7,0,.09.12.19.18.28-2.94,8.25-5.14,14.37-5.14,14.37l-1.63,4.55,4.83-.09h.19c0,.22-.08.44-.11.66v0c-2.22,12.73-3.27,29.2-3.56,34.24-7.88,7-6.75,20.52-6.36,25.11,0,.41.08.93.08,1.08,0,2.4-2.88,16.92-4.26,19.12a9.1,9.1,0,0,0-2.08,5.53,16.45,16.45,0,0,1-2.62,2.76c-1.41,1-2.28,2.64-2.65,5.06-.38,1-1.49,4.12-2.45,7.44-2.07,7.14-2.12,10.35-.21,12.27,2.42,2.42,9.18,3.52,14.44,3.52a30.58,30.58,0,0,0,11.64-2.08,6.65,6.65,0,0,0,4-4.45c1-3.47-.59-8-4.92-14.06A67.4,67.4,0,0,0,49,299.75c.52-3.18,2.58-14.85,6.44-23.5a129.86,129.86,0,0,0,6.93-19.78c2.78-3.48,4.77-10.19,5.27-12l13.1-32.84a79.29,79.29,0,0,0,9.6-3.76l.35,1.3v0c9.68,36.28,11.36,41.82,11.8,43,0,.27-.1.74-.17,1.14-.72,4.31-2.39,14.35,5.56,42.5a22.24,22.24,0,0,1-1.13,4.7,15.24,15.24,0,0,0-2.11,6.12,9.58,9.58,0,0,0,.09,6.14c1.09,2.84,6.36,6.39,8,7.42,2.72,1.75,8,4.73,13,5.06.47,0,1,0,1.41,0,8.1,0,13.47-4.78,14.2-7.46a3.68,3.68,0,0,0,.1-1.4,4.05,4.05,0,0,0,.37-1.33,4,4,0,0,0-1.19-3.23l-.91-.92-1.3-.06a10.88,10.88,0,0,1-2-.29,6.19,6.19,0,0,0-1.81-2.62,12.23,12.23,0,0,0-4-1.91c-3.39-2.71-7.39-5.87-8.54-6.78-1.18-1.52-2.48-3.24-3.09-4.11-.15-2.52-.71-11.46-2.76-44a23.39,23.39,0,0,0-.08-9.58c-.22-1.18-.69-6.26-.6-28l2.47.78L118,210c0-.91.47-22.25-2.47-35.92h0v-.3l0-.3L113.22,155a5.82,5.82,0,0,0-.28-4.14,191.61,191.61,0,0,0,1.49-21.49c0-3.24,0-6.77-.22-10.67L138,137.89l2.26,1.83,2.12-2c11.81-11.14,26.06-23.7,30.05-26a16.7,16.7,0,0,0,4,.36A158.65,158.65,0,0,0,193,110.6l1.11-.16.79-.79,4.46-4.45,2.13-2.14-1.91-2.33-2-2.37-.58-.71-.85-.31a30.38,30.38,0,0,0-6.79-1.51,4.76,4.76,0,0,0-3.21-2.69,29.44,29.44,0,0,0-4.81-1.08,27.57,27.57,0,0,0-4.41-.38c-9.43,0-12.87,5.53-13.94,8l-22.58,19.1L110.81,91.25a16.42,16.42,0,0,0-3.27-4.58l-.85-.85-1.2-.11-5.44-.51c-3.26-.48-9.07-1.66-13-4.37a25,25,0,0,1-.72-3.35q2.33.21,4.74.21c3.64,0,14.71,0,16-7.76,2.37-13.6-.48-30.91-6.8-42.43,1.29-2.14.87-4.79-.35-7a5.17,5.17,0,0,0,0-.68,8,8,0,0,0-2.8-4.76,7.2,7.2,0,0,0-.21-3.58c-.81-2.58-3-4.62-6.38-6.06a12.92,12.92,0,0,0-9.09-3.77,13.54,13.54,0,0,0-1.68.11A9.13,9.13,0,0,0,74.44,0ZM44.55,148.53l9.61-18.08,5.24,3.29c.81,1.57,2.68,5.27,4.49,9.27,3.35,7.36,4.15,10.5,4.33,11.69a5.9,5.9,0,0,0-1.47,2.24,5.67,5.67,0,0,0-.12,3.29l-1,3L62.4,161,44.55,148.53ZM119,296.25Z"/><path class="cls-7" d="M108.06,93.24l32.3,30,25.5-21.56s2.14-8.41,15-6.32S179.7,99,179.7,99s9.11-.76,15.37,1.52l1.94,2.37-4.46,4.46s-17.82,2.46-20,.9-32.52,27.09-32.52,27.09l-29.66-24-5.82-5Z"/><path class="cls-7" d="M69.53,67.21l3.61,13.85s.57,3.41-.67,4.65-7,7.77-7,7.77l-3.23,6.36,18.68,10.62,22.29-6-.67-15.64s-11.41-.73-18.06-5.73c-1.31-1-2.42-12.39-2.42-12.39Z"/><path class="cls-8" d="M82.67,75.76c-.35-2.56-.64-5.13-.64-5.13L69.51,67.12l1,3.86s3.92,2.55,5.14,3.09A24.09,24.09,0,0,0,82.67,75.76Z"/><path class="cls-7" d="M59.15,97.07s-8.93,5-9.75,5.86-21.12,48.68-21.12,48.68l25.26,19,8.69,6.56s-2.75,8.44-1.14,10.05-4.74,4.61-4.74,4.61-2.46,5.82,2.53,4.56a74.89,74.89,0,0,0,11.76-4.62L74,173.11l-13.5-9.4L40.21,149.58,52.9,125.73,62,131.4,73,123.29l-8-19.85L61.66,96Z"/><path class="cls-7" d="M62.17,61.46S69.41,74.35,91,74.36c8.94,0,12.26-2.09,12.77-5C107,51.12,100.22,28,90.87,21c-8.2-6.18-37.3,17.2-37.3,17.2l6.2,13.91s-6.33-6.83-8.85-3,5.5,11.82,5.5,11.82S60,63.61,62.17,61.46Z"/><path class="cls-7" d="M82.72,197.59,64.44,243.41s-2.35,8.68-5.15,11.47a123.45,123.45,0,0,1-6.92,20c-4.74,10.62-6.83,25.23-6.83,25.23s4.32,10.95,3.8,15.88c0,0,4.12,5.69,2.46,9s-8.15,1.33-8.15,1.33S32.79,327.71,31.18,325s2-10,2-10-.52-5.78,1.38-7.11a23.48,23.48,0,0,0,4.17-4.55s-.71-1.9,1.28-4.46S45,280,45,277.8s-2.65-18.21,6.2-24.53c0,0,2.15-43.62,8.22-49.69s23.33-9.67,23.33-9.67Z"/><path class="cls-9" d="M82.72,197.59l-5.85,14.65s-8.08,3.61-10.12,4.11c-1.52.37-12.34,3.72-12,1.54,1.13-6.82,2.7-12.41,4.61-14.31,6.07-6.07,23.33-9.67,23.33-9.67Z"/><path class="cls-7" d="M89.23,190.81s15.3,57.78,16.43,60.44-4.83,7.8,5.6,44.41c0,0-.66,4.84-1.61,6.54s-3.13,6.07-.38,7.59,11.66,9.1,15.45,9.77,10.91-2.66,10.91-2.66,3.79-1.42,2.61-2.61c0,0-3.46-.14-4.6-1.28s-14-11.28-14-11.28-4-5.12-4-5.47-2.84-45.36-2.84-45.36,1-2.85,0-8.63-.54-42.23-.54-42.23Z"/><path class="cls-9" d="M89.23,190.81s3.6,13.55,4.67,17.55c.4,1.54,18.24,2.77,18.24,2.77l.1-11.09Z"/><path class="cls-10" d="M89.23,202.25c3,5.87,23.75,7.11,25.47,7.65,0,0,.55-23.55-2.77-36.78S89.23,202.25,89.23,202.25Z"/><path class="cls-11" d="M63.94,56.28c3.67,1.52.5-5.06.5-5.06s-.34-6.59-2.21-7.71a26.93,26.93,0,0,1-4.07-3.33l35-24s3.54-4.93-4.56-8A9.62,9.62,0,0,0,78.8,5.32S75.26,1.09,70.13,5c0,0-10.3-.61-12.64,4.45a3.86,3.86,0,0,0-3.79,2.15s-2.15.82-2.56,2.56c0,0-5.22,2.06-5.53,5.53,0,0-2.85,4-.57,7.21,0,0-1.51,2.83.44,4.77,0,0-4.36,4.78,0,7.75,0,0-1.08,3.1,5.31,4.36l1.9,3.92s1.82-.83,7.08,4.43Z"/><ellipse class="cls-12" cx="79.63" cy="43.49" rx="1.7" ry="2.32" transform="translate(-8.2 20.72) rotate(-14.1)"/><path class="cls-12" d="M77.44,42.31h-.06a1.33,1.33,0,0,1-1.27-1.38c0-.34.21-3.36,2.41-4.54,1.42-.77,3.19-.54,5.26.7a1.33,1.33,0,0,1-1.36,2.28c-1.17-.7-2.11-.93-2.64-.65-.69.38-1,1.73-1,2.33A1.33,1.33,0,0,1,77.44,42.31Z"/><ellipse class="cls-12" cx="95.08" cy="39.75" rx="1.7" ry="2.32" transform="translate(-6.82 24.37) rotate(-14.1)"/><path class="cls-12" d="M93.27,38.36a1.48,1.48,0,0,1-.35,0A1.33,1.33,0,0,1,92,36.68c.09-.33,1-3.22,3.36-3.89,1.56-.43,3.23.2,5,1.86a1.33,1.33,0,1,1-1.83,1.93c-1-.95-1.85-1.38-2.43-1.23-.76.21-1.34,1.46-1.5,2A1.35,1.35,0,0,1,93.27,38.36Z"/><path class="cls-13" d="M82,58.86c-.21-.22,12.53.8,17.39-2.78,0,0,1,9.69-3.39,10.75S86.4,66.13,82,58.86Z"/><g class="cls-14"><path class="cls-15" d="M81.19,60.39s11.91,3.4,17.2-1.9l-.66-2.41L80.27,57.26Z"/><path class="cls-16" d="M83.28,64.75s3.83-3.7,9.93-1.23,0,6.92,0,6.92Z"/></g><path class="cls-8" d="M93.41,68.07c-7.26,0-12.11-8.68-12.17-8.78l-.76-1.4,1.59.09c.11,0,11.76.57,16.86-2.65a.89.89,0,1,1,.95,1.5c-4.4,2.77-12.67,3-16.23,3,1.89,2.77,6.75,8.51,13,5.8a.89.89,0,0,1,.71,1.63A9.76,9.76,0,0,1,93.41,68.07Z"/><path class="cls-8" d="M59.48,60s-.19-8.3-6.59-10.29"/><path class="cls-8" d="M52.9,125.73s5.47-7.33,4.75-6.22c-4,6.2,10.25,13.35,13.59,9.53A8.54,8.54,0,0,1,62,131.4Z"/><path class="cls-17" d="M65.46,93.48s-6.08,2.24-8.91,5.07c0,0,17,24.69,5.4,32.85,0,0,10.71,20.47,9.58,24.64s-20.18,57.31-20.18,57.31,58.79-1,60.89-39.48l-2.78-22.13a186.76,186.76,0,0,0,1.64-22.44c.12-10.8-1.06-23.21-1.93-31.68a13.57,13.57,0,0,0-4-8.59l-5.53-.52s4.37,14.65-5.74,16C88.45,105.29,75.32,107.05,65.46,93.48Z"/><g class="cls-18"><path class="cls-19" d="M53.54,214.79s58.79-1,60.89-39.49Z"/></g><path class="cls-17" d="M65.46,93.48s-6.08,2.24-8.91,5.07c0,0,17,24.69,5.4,32.85,0,0,10.71,20.47,9.58,24.64s-20.18,57.31-20.18,57.31,58.79-1,60.89-39.48l-2.78-22.13a186.76,186.76,0,0,0,1.64-22.44c.12-10.8-1.06-23.21-1.93-31.68a13.57,13.57,0,0,0-4-8.59l-5.53-.52s4.37,14.65-5.74,16C88.45,105.29,75.32,107.05,65.46,93.48Z"/><path class="cls-7" d="M53.54,170.66l8.69,6.56s-2.75,8.44-1.14,10.05-4.74,4.61-4.74,4.61-2.46,5.82,2.53,4.56a74.89,74.89,0,0,0,11.76-4.62L73.48,176s.88-3.12-2.67-5.2c-2.74-1.6-10.32-7-10.32-7Z"/><path class="cls-20" d="M70.22,160.34s31,4.12,39.6-5.74c0,0,.93-1.94-.36-2.86.18,1.82-14.56,9.76-37.93,4.74A2.54,2.54,0,0,0,70.22,160.34Z"/><circle class="cls-21" cx="95.97" cy="158.84" r="7.23"/><g class="cls-22"><path class="cls-23" d="M61.64,19s-3.11,3.76.83,6.27c1.38.88-4.08,5.12-4.08,5.12l-2.2,12.38a16.37,16.37,0,0,1,4.74-1.15L70.91,53l-6.4,4L44.09,43.27,30.5,17,48,1.12,67.16-3.34,63.8,3.33s-8.13,5-5,8.55C56.83,13.25,56.45,18.61,61.64,19Z"/></g><path class="cls-24" d="M52.78,47.68S49.11,46,49.11,43,63.4,11.27,93.24,16.2c0,0,4.62,3.22,3,4.8,0,0,2.84,3.54.57,5.43S83.51,25.55,52.78,47.68Z"/><path class="cls-25" d="M54.39,41s19.1-23.27,39.52-20.23C93.91,20.75,74.88,21.77,54.39,41Z"/><path class="cls-26" d="M96.77,165a7.1,7.1,0,0,1-5.24-2c-1.41-1.56-1.8-3.83-1.17-6.74a1.32,1.32,0,0,1,1.58-1,1.34,1.34,0,0,1,1,1.58c-.44,2-.26,3.51.55,4.41,1.21,1.35,3.58,1.15,3.6,1.14a1.33,1.33,0,0,1,.28,2.65S97.12,165,96.77,165Z"/><path class="cls-27" d="M100.34,162.52a1.43,1.43,0,0,1-.29,0,1.32,1.32,0,0,1-1-1.58c.45-2,.27-3.51-.52-4.41-1.21-1.37-3.59-1.17-3.61-1.17a1.34,1.34,0,0,1-1.45-1.2,1.33,1.33,0,0,1,1.19-1.45c.15,0,3.74-.34,5.85,2,1.4,1.57,1.78,3.84,1.13,6.75A1.31,1.31,0,0,1,100.34,162.52Z"/><path class="cls-8" d="M89.42,56.72a1.33,1.33,0,0,1,0-2.66c1.31,0,5-1.1,7.55-2-.81-6.45-4.94-11.26-7.41-13.62a1.33,1.33,0,0,1,1.84-1.93c2.87,2.75,7.77,8.53,8.32,16.37l.07,1-1,.34C98.13,54.5,91.85,56.72,89.42,56.72Z"/><path class="cls-8" d="M176.08,102.72a3.57,3.57,0,0,1-.65-.06,1.32,1.32,0,0,1-1.08-1.54,1.34,1.34,0,0,1,1.54-1.08c1,.18,2.25-1.17,2.72-1.84a1.33,1.33,0,0,1,2.19,1.5C180.58,100,178.66,102.72,176.08,102.72Z"/><path class="cls-8" d="M185.65,107.49a.85.85,0,0,1-.31-.06.88.88,0,0,1-.53-1.13c.63-1.72-1.45-4.65-2.23-5.55a.88.88,0,0,1,.08-1.25.89.89,0,0,1,1.25.09c.38.43,3.67,4.32,2.57,7.32A.88.88,0,0,1,185.65,107.49Z"/></g><g class="cls-28"><path class="cls-20" d="M139.21-1.51a7.65,7.65,0,0,0-.13,5.2c1,2.58,13,11.84,21.73,12.41,9.19.6,14.28-4.71,14.62-6S169.5,4.8,169.5,4.8Z"/><path class="cls-20" d="M49.55,3S43,20.55,45.29,22.86s16.87,5.09,26.94.87-11-26.19-11-26.19Z"/><path class="cls-7" d="M108.93-133.3l-22,55S84.15-67.85,80.79-64.5a147.49,147.49,0,0,1-8.31,24c-5.69,12.75-8.2,30.29-8.2,30.29S69.46,3,68.84,8.91c0,0,5,6.83,3,10.76S62,21.26,62,21.26,49,23,47,19.73s2.45-12,2.45-12S48.85.82,51.13-.77a28.72,28.72,0,0,0,5-5.47s-.86-2.28,1.54-5.35S63.6-34.39,63.6-37,60.41-58.84,71-66.43c0,0,2.58-52.39,9.87-59.68s28-11.62,28-11.62Z"/><path class="cls-7" d="M116.75-141.45S135.12-72,136.49-68.86s-5.81,9.38,6.72,53.34c0,0-.8,5.81-1.94,7.86s-3.76,7.28-.46,9.11,14,10.93,18.57,11.73S172.48,10,172.48,10s4.55-1.71,3.13-3.13c0,0-4.16-.17-5.53-1.54S153.23-8.23,153.23-8.23s-4.79-6.15-4.79-6.57S145-69.28,145-69.28s1.25-3.42,0-10.36-.65-50.72-.65-50.72Z"/><path class="cls-20" d="M46.15,16.39s13-5.59,26.08-1.31a5.73,5.73,0,0,0-1-3.19c-1.08-1.71-17.43-4.33-24.37,1.39C46.89,13.28,45.41,15.42,46.15,16.39Z"/><path class="cls-20" d="M156.43,12S156.94.56,169.5,4.8l.34.28a4.12,4.12,0,0,0-1.24-2.65A14.59,14.59,0,0,0,164.48.69S153-2.14,153.13,10.09C153.13,10.09,154.93,12.62,156.43,12Z"/><path class="cls-6" d="M99-366.6a7.35,7.35,0,0,1,5.24,2.39,12.3,12.3,0,0,1,3.17-.42,11.56,11.56,0,0,1,8.6,3.91c9.44,3.54,5.69,9.23,5.47,9.55l.11,0s5.54,3.87,3.64,5.77c0,0,3.42,4.24.69,6.52a3.27,3.27,0,0,1-1,.5c7.76,12.1,12.39,33.45,9.34,51.06-.61,3.49-4.59,6-15.33,6h0a56.55,56.55,0,0,1-10.39-.92c.11.82.22,1.71.35,2.61h0c.54,3.83,1.33,8.19,2.18,8.83,5.48,4.12,13.64,5.82,18.23,6.48l6.65.62a18.36,18.36,0,0,1,1.48,1.68h.07c2,0,3.58,2.19,3.58,2.19L167.24-214l-22.62,40.58s7.6,12.75,3.8,18.52l5.24,5.24s.83,2.81-3,2.81a11.19,11.19,0,0,1-4.4-1.43,285.83,285.83,0,0,1,1,29.72c-.37-.11-1.47-.26-3.06-.46V-117h0c-.07,13.49,0,33,.77,37.4,1.25,6.94,0,10.36,0,10.36s3.41,54.06,3.41,54.48,4.79,6.57,4.79,6.57,6.32,5,11.25,8.92h0a14.59,14.59,0,0,1,4.12,1.74A4.09,4.09,0,0,1,169.84,5c.33.22.87.59,1.49,1a16.07,16.07,0,0,0,4.28.8c.67.67,0,1.41-.89,2,.5.52.79,1,.71,1.28-.32,1.19-4.9,6-13.18,6-.47,0-.95,0-1.44,0-8.69-.57-20.74-9.83-21.73-12.41a7.65,7.65,0,0,1,.13-5.2c0-2.2,1.33-4.84,2.06-6.15,1.14-2.05,1.94-7.86,1.94-7.86-12.53-44-5.36-50.15-6.72-53.34-.92-2.15-9.56-34.32-15.1-55.11a15.09,15.09,0,0,1-2.86-1.68,89.62,89.62,0,0,1-15,6l-1.59,4L87-78.28S84.15-67.85,80.79-64.5a147.49,147.49,0,0,1-8.31,24c-5.69,12.75-8.2,30.29-8.2,30.29S68.36.19,68.84,6.66c4.8,6.57,9.11,14.68,3.39,17.07A32.88,32.88,0,0,1,59.8,25.92c-6.89,0-13.07-1.62-14.51-3.06C43,20.55,49.55,3,49.55,3c.2-1.6.65-3.13,1.58-3.78a28.72,28.72,0,0,0,5-5.47s-.86-2.28,1.54-5.35S63.6-34.39,63.6-37,60.41-58.84,71-66.43c0,0,1.21-24.66,4.33-42.5h0c.34-2,.71-3.95,1.11-5.75-3.27.27-5.22.3-5.22.3S88.32-162,93.84-178.19a3,3,0,0,1,1.47-4.41c.07-.25.14-.46.18-.61C96.85-188.22,84-212.8,84-212.8l-10.86-6.81-7.54,34.85-5.12-1.94-6.78-10.5L41.36-234.12l-.36-.11a11.68,11.68,0,0,1-5.12-4.28,43,43,0,0,1-4.81.27h-.55a.89.89,0,0,1-.48-.1.92.92,0,0,1-.28-.6,52.63,52.63,0,0,0-2.76-9.7,1.51,1.51,0,0,1-.16-.85c.11-.53.72-.77,1.25-.81a3.13,3.13,0,0,0,1.56-.32c.58-.4.76-1.31,1.44-1.53a1.24,1.24,0,0,1,.33,0c.32,0,.65.09,1,.09a1.07,1.07,0,0,0,.39-.07c.55-.22.68-.93,1-1.39a3.74,3.74,0,0,1,2.31-.92,16.12,16.12,0,0,0,4.08-1.63.41.41,0,0,0,.23-.2.36.36,0,0,0,0-.23c-.62-2.92-1.94-5.83-2.56-8.75a65.52,65.52,0,0,1-1.07-8.35,4.46,4.46,0,0,1,2.32-2.8,1.23,1.23,0,0,1,.58-.18.67.67,0,0,1,.28.06c.32.15.43.55.51.9.7,3.25,2.62,11.5,3.32,14.75.44,2.08,4.2,7.26,5,7.86s.92,1.38,1.83,2.07a2.26,2.26,0,0,1,.63.64,2.06,2.06,0,0,1,.16.92c0,1.84.1,3.67.14,5.51.06,2.14,0,4.54-1.5,6.06h0l9.84,23.46-.19-.66c.09.17.18.34.26.51l.3-24.59S67.93-246,68.91-247c.64-.64,5.35-3.4,8.6-5.27h0c3.39-3.4,10.69-6.08,10.69-6.08s6.94-7.86,8.43-9.34.79-5.58.79-5.58l-3.8-14.62c-6.72-4.22-9.37-8.92-9.37-8.92a3.37,3.37,0,0,1-2.48,1,8.74,8.74,0,0,1-4.43-1.67s-9.64-9.65-6.61-14.2A2.87,2.87,0,0,1,73.24-313c2,0,4.35,1.64,6,3-3.41-3-5.24-3.39-6-3.39H73l-.06.05,0,0-.07,0,0-.08c-.72-.35-4-2.13-4.23-5.13-5.45-1.7-4.4-4.74-4.4-4.74-5.23-3.57,0-9.3,0-9.3-2.33-2.34-.53-5.73-.53-5.73-2.73-3.87.69-8.66.69-8.66.38-4.17,6.64-6.64,6.64-6.64.49-2.09,3.08-3.08,3.08-3.08a4.55,4.55,0,0,1,4.2-2.59h.35c2.27-4.91,10.79-5.38,14-5.38.76,0,1.22,0,1.22,0a8.48,8.48,0,0,1,5.16-2m42.83,179.41,14.06-25.35L142.5-232.41c.36,5.71.58,11.57.52,17.09a223.48,223.48,0,0,1-2,26.95,1.91,1.91,0,0,1,.77,1.18M169.5,4.8h0M99-370.88h0a12.16,12.16,0,0,0-6.45,1.94c-4.67,0-12.4.81-16.36,5.6a8.66,8.66,0,0,0-5.1,3.37,9.47,9.47,0,0,0-3.32,3.15c-2.38,1.25-6.46,4-7.46,8.26C58.81-346,57.48-341.93,59-338a9.46,9.46,0,0,0,.13,5.18,11,11,0,0,0-1.49,6.56,8.67,8.67,0,0,0,2.32,5,7.57,7.57,0,0,0,.64,1.83,9.34,9.34,0,0,0,4.46,4.12A10.14,10.14,0,0,0,66.57-313c-1.54,3.33-.61,7.53,2.79,12.52a46.62,46.62,0,0,0,5,6l.21.21.24.18a12.75,12.75,0,0,0,7,2.54,8.26,8.26,0,0,0,1-.06,36,36,0,0,0,7.12,6.38l3.33,12.8a8.46,8.46,0,0,1,0,2.06c-1.65,1.72-5.85,6.45-7.57,8.39-2.27.92-7.48,3.22-10.76,6.25-7.91,4.56-8.56,5.21-9,5.69-.66.66-5.55,5.07-8.48,7.7L56-241.06l0,1.88-.05,4.28-1.06-2.53a15,15,0,0,0,1-6.59l-.14-5.5a6,6,0,0,0-.66-2.81,6,6,0,0,0-1.7-2l-.06-.09a8.07,8.07,0,0,0-1.7-1.93A27.43,27.43,0,0,1,48-261.86c-.36-1.66-1-4.57-1.66-7.38S45-275,44.67-276.56a5.23,5.23,0,0,0-2.89-3.88,4.93,4.93,0,0,0-2.08-.46,5.43,5.43,0,0,0-2.65.71c-2,1.09-4.19,3.26-4.5,6.09-.24,2.23,1.12,9.64,1.13,9.71a46.08,46.08,0,0,0,1.41,4.83c.1.29.2.58.29.87l-.11,0-.27.05a7.2,7.2,0,0,0-4.37,2.2,6.31,6.31,0,0,0-.86.2,5.44,5.44,0,0,0-2.49,1.7,5.4,5.4,0,0,0-4.63,4.14,5.61,5.61,0,0,0,.36,3.3,47.67,47.67,0,0,1,2.54,8.91,5,5,0,0,0,2.06,3.35,5,5,0,0,0,2.86.86h.6c1,0,1.94,0,2.91-.09A16.14,16.14,0,0,0,37.89-231l11.73,35.15.18.51.29.45,6.77,10.5.77,1.19,1.32.5,5.12,1.93L68.71-179l1.05-4.85L76-212.74l4.71,3c1,1.91,3.17,6.26,5.31,11,3.93,8.63,4.94,12.41,5.2,13.9a7,7,0,0,0-1.74,2.7,7.07,7.07,0,0,0-.18,4c-5.89,17.17-21.92,61.9-22.08,62.36L65.14-110l6.09-.12-.06.37-.14.62v.09c-2.58,15.11-3.82,34.35-4.17,40.46C57.39-60,58.76-43.78,59.22-38.25c0,.49.09,1.11.1,1.29-.08,2.83-3.45,20.12-5.07,22.8a11.14,11.14,0,0,0-2.54,6.69,18.54,18.54,0,0,1-3,3.19C46.92-3,45.84-1,45.38,2c-.47,1.26-1.81,5-3,9-2.5,8.66-2.55,12.58-.16,15,3,3,11.16,4.31,17.53,4.31a36.94,36.94,0,0,0,14.08-2.52,8.37,8.37,0,0,0,5-5.52c1.19-4.25-.69-9.69-5.92-17.07-.7-5.67-3.27-13-4.3-15.72.64-3.92,3.11-17.8,7.71-28.09A154,154,0,0,0,84.7-62.47c3.36-4.23,5.74-12.24,6.35-14.44l14.84-37.21.83-2.1a94.45,94.45,0,0,0,11.15-4.34c11.75,44.06,13.93,51.29,14.5,52.92,0,.32-.12.85-.19,1.29-.87,5.19-2.89,17.28,6.66,51.11a27.87,27.87,0,0,1-1.31,5.5A18.56,18.56,0,0,0,135-2.28a11.77,11.77,0,0,0,.13,7.5c1.34,3.48,7.74,7.79,9.67,9,3.29,2.12,9.73,5.72,15.78,6.12.58,0,1.15.06,1.72.06,9.86,0,16.41-5.88,17.31-9.16a4.76,4.76,0,0,0,.14-1.71,5,5,0,0,0-1.07-5.73l-1.18-1.18-1.66-.07a15,15,0,0,1-2.25-.31,7.64,7.64,0,0,0-2.2-3.12,15,15,0,0,0-4.86-2.34c-4-3.23-8.78-7-10.19-8.08-1.38-1.78-2.9-3.8-3.64-4.85-.18-3.13-.86-14-3.3-52.7.42-1.77,1-5.61-.11-11.58-.25-1.4-.81-7.43-.71-33.25l3,.93.13-5.7c0-.54.26-11.76-.57-24.11a7,7,0,0,0,5.74-2.68,6.53,6.53,0,0,0,1-5.63l-.31-1-.77-.76-3.26-3.27c1.36-6-1.88-13.56-3.9-17.46L171-211.87l1.18-2.11-1.2-2.1-26.2-45.86-.11-.2-.13-.18a10.24,10.24,0,0,0-4.84-3.62c-.23-.26-.48-.52-.73-.77l-1.09-1.09-1.54-.15-6.54-.61c-3.86-.56-10.73-2-15.45-5.14a32.74,32.74,0,0,1-.77-3.55c1.76.15,3.55.22,5.36.22,4.43,0,17.9,0,19.55-9.54,2.84-16.34-.56-37.11-8.12-51,1.49-2.61,1-5.79-.46-8.48a5.08,5.08,0,0,0,0-.78c-.19-2.24-1.72-4.26-3.33-5.79a9.17,9.17,0,0,0-.29-4.28c-1-3.17-3.61-5.67-7.77-7.43a15.77,15.77,0,0,0-11.08-4.57,16.2,16.2,0,0,0-2,.12A11.18,11.18,0,0,0,99-370.88Zm48,165.59c.18-3.09.31-6.46.35-10,0-.76,0-1.53,0-2.33l3.54,5.28-3.9,7Z"/></g></svg>