<svg id="Camada_1" data-name="Camada 1" xmlns="http://www.w3.org/2000/svg" xmlns:xlink="http://www.w3.org/1999/xlink" viewBox="0 0 710.8 222.39"><defs><style>.cls-1{fill:none;}.cls-2{fill:#ffd478;}.cls-3{fill:#027e8f;}.cls-4{fill:#f9f9f9;}.cls-5{clip-path:url(#clip-path);}.cls-6{fill:#eaa000;}.cls-7{fill:#eac2a7;}.cls-8{fill:#c9a68f;}.cls-9{fill:#d6aa8b;}.cls-10{fill:#d6d6d6;}.cls-11{fill:#c99f4b;}.cls-12{fill:#6d5f56;}.cls-13{fill:#493e38;}.cls-14{clip-path:url(#clip-path-2);}.cls-15{fill:#fcfcfc;}.cls-16{fill:#d32222;}.cls-17{fill:#f4f4f4;}.cls-18{clip-path:url(#clip-path-3);}.cls-19{fill:#b7b7b7;}.cls-20{fill:#6d472e;}.cls-21{fill:#c99e32;}.cls-22{clip-path:url(#clip-path-4);}.cls-23{fill:#aa7e30;}.cls-24{fill:#fff;}.cls-25{fill:#ddd;}.cls-26{fill:#846829;}.cls-27{fill:#e8cd95;}</style><clipPath id="clip-path"><path class="cls-1" d="M210.65,103.27C210.65,41.1,139.25,0,75,0S6.93,43.7,6.93,105.87s23.11,110,87.37,110S210.65,165.44,210.65,103.27Z"/></clipPath><clipPath id="clip-path-2"><path class="cls-1" d="M82.58,58.86c-.21-.22,12.52.8,17.38-2.78,0,0,1,9.69-3.38,10.75S87,66.13,82.58,58.86Z"/></clipPath><clipPath id="clip-path-3"><path class="cls-1" d="M89.78,202.25c3,5.87,23.76,7.11,25.48,7.65,0,0,.54-23.55-2.78-36.78S89.78,202.25,89.78,202.25Z"/></clipPath><clipPath id="clip-path-4"><path class="cls-1" d="M64.49,56.28c3.67,1.52.51-5.06.51-5.06s-.35-6.59-2.21-7.71a26.37,26.37,0,0,1-4.07-3.33l9.37-6.42L93.7,16.2s3.54-4.93-4.55-8a9.63,9.63,0,0,0-9.8-2.91S75.81,1.09,70.69,5c0,0-10.3-.61-12.64,4.45a3.87,3.87,0,0,0-3.8,2.15s-2.15.82-2.56,2.56c0,0-5.21,2.06-5.53,5.53,0,0-2.84,4-.57,7.21,0,0-1.5,2.83.44,4.77,0,0-4.36,4.78,0,7.75,0,0-1.07,3.1,5.31,4.36l1.9,3.92s1.83-.83,7.08,4.43S64.49,56.28,64.49,56.28Z"/></clipPath></defs><title>1-info</title><path class="cls-2" d="M132.3,70.16H700.24a10,10,0,0,1,10,10V187a10,10,0,0,1-10,10H132.3a0,0,0,0,1,0,0V70.16A0,0,0,0,1,132.3,70.16Z"/><path class="cls-3" d="M231.13,103.44l-1.44.1,4.24,10.84.31,1h.06l.31-1,4.22-10.84-1.43-.1v-.87h4v.87l-1.19.08-5.34,13.27h-1.19l-5.35-13.27-1.18-.08v-.87h4Z"/><path class="cls-3" d="M250.35,116.79q-.12-.54-.18-.93a7,7,0,0,1,0-.79,4.93,4.93,0,0,1-1.69,1.37,5,5,0,0,1-2.37.55,3.87,3.87,0,0,1-2.6-.8,2.73,2.73,0,0,1-.91-2.17,2.62,2.62,0,0,1,1.36-2.32,6.76,6.76,0,0,1,3.69-.86h2.52v-1.4a2.17,2.17,0,0,0-.79-1.78,3.35,3.35,0,0,0-2.2-.64,5.88,5.88,0,0,0-1.73.24,4.12,4.12,0,0,0-1.31.65l-.11,1.41h-1v-2a6.92,6.92,0,0,1,1.89-.91,7.56,7.56,0,0,1,2.35-.36,4.81,4.81,0,0,1,3,.89,3,3,0,0,1,1.15,2.55v5.2c0,.21,0,.42,0,.62a3.68,3.68,0,0,0,.07.58l1.14.07v.86ZM246.2,116a4.86,4.86,0,0,0,2.41-.59,3.6,3.6,0,0,0,1.51-1.51v-2.12h-2.54a5,5,0,0,0-2.75.66,1.92,1.92,0,0,0-1,1.66,1.67,1.67,0,0,0,.64,1.37A2.7,2.7,0,0,0,246.2,116Z"/><path class="cls-3" d="M254.12,107.09v-.87H257l.12,1.75a3.81,3.81,0,0,1,1.46-1.44,4.46,4.46,0,0,1,2.19-.51,3.83,3.83,0,0,1,2.18.59,3.35,3.35,0,0,1,1.26,1.81A3.94,3.94,0,0,1,268,106a3.56,3.56,0,0,1,2.82,1.13,5.08,5.08,0,0,1,1,3.47v5.17l1.72.14v.86h-4.72v-.86l1.72-.14V110.6a4,4,0,0,0-.74-2.75,2.68,2.68,0,0,0-2.07-.81,2.91,2.91,0,0,0-2.27.87,4,4,0,0,0-1,2.22v.14a1,1,0,0,1,0,.18v5.35l1.72.13v.86h-4.7v-.86l1.71-.13v-5.2a4,4,0,0,0-.75-2.74,2.65,2.65,0,0,0-2.07-.82,3.07,3.07,0,0,0-3.24,2.32v6.44l1.72.13v.86h-4.7v-.86l1.71-.13v-8.58Z"/><path class="cls-3" d="M274.94,111.35a5.37,5.37,0,0,1,1.39-3.83,5.22,5.22,0,0,1,7.32,0,5.37,5.37,0,0,1,1.39,3.83v.32a5.41,5.41,0,0,1-1.38,3.83,5.25,5.25,0,0,1-7.33,0,5.37,5.37,0,0,1-1.39-3.83Zm1.27.32a4.75,4.75,0,0,0,1,3.08A3.37,3.37,0,0,0,280,116a3.33,3.33,0,0,0,2.76-1.25,4.75,4.75,0,0,0,1-3.08v-.32a4.77,4.77,0,0,0-1-3.07,3.69,3.69,0,0,0-5.55,0,4.76,4.76,0,0,0-1,3.07Z"/><path class="cls-3" d="M295.37,109.48h-1l-.15-1.49a3.26,3.26,0,0,0-1.2-.72,5,5,0,0,0-1.66-.25,3.26,3.26,0,0,0-2.07.55,1.63,1.63,0,0,0-.69,1.3,1.51,1.51,0,0,0,.59,1.21,6.06,6.06,0,0,0,2.38.84,8.18,8.18,0,0,1,3,1.14,2.31,2.31,0,0,1,1,2,2.51,2.51,0,0,1-1.15,2.14,5.22,5.22,0,0,1-3.05.81,7.58,7.58,0,0,1-2.31-.33,5.47,5.47,0,0,1-1.8-.92v-2.13h1l.17,1.51a3.05,3.05,0,0,0,1.29.67,6.09,6.09,0,0,0,1.62.21,3.72,3.72,0,0,0,2.16-.55,1.63,1.63,0,0,0,.79-1.35,1.65,1.65,0,0,0-.66-1.3,5.66,5.66,0,0,0-2.38-.91,8.18,8.18,0,0,1-3-1.09,2.16,2.16,0,0,1-1-1.9,2.49,2.49,0,0,1,1.11-2,4.71,4.71,0,0,1,2.92-.84,7,7,0,0,1,2.3.36,4.83,4.83,0,0,1,1.69,1Z"/><path class="cls-3" d="M308.18,117a4.76,4.76,0,0,1-3.56-1.46,5.12,5.12,0,0,1-1.41-3.72v-.53a5.29,5.29,0,0,1,1.4-3.76A4.51,4.51,0,0,1,308,106a4.43,4.43,0,0,1,3.3,1.23,4.51,4.51,0,0,1,1.2,3.29v1h-8.06v.28a4.44,4.44,0,0,0,1,3,3.38,3.38,0,0,0,2.69,1.2,6,6,0,0,0,2-.3,3.94,3.94,0,0,0,1.42-.87l.54.8a4.52,4.52,0,0,1-1.62,1A6.63,6.63,0,0,1,308.18,117ZM308,107a3.14,3.14,0,0,0-2.35,1,4,4,0,0,0-1.11,2.49l0,0h6.68v-.3a3.23,3.23,0,0,0-.87-2.3A3.12,3.12,0,0,0,308,107Z"/><path class="cls-3" d="M314.52,115.93l1.28-.11,3.61-4.42L316,107.2l-1.29-.11v-.87h3.87v.87l-1.18.06,2.72,3.39,2.73-3.4-1.17,0v-.87h3.87v.87l-1.27.11-3.44,4.2,3.59,4.42,1.29.11v.86h-3.86v-.86l1.17-.05-2.9-3.6-2.89,3.6,1.17.05v.86h-3.86Z"/><path class="cls-3" d="M335.22,116.79q-.12-.54-.18-.93a7,7,0,0,1-.05-.79,4.83,4.83,0,0,1-1.69,1.37,5,5,0,0,1-2.37.55,3.82,3.82,0,0,1-2.59-.8,2.74,2.74,0,0,1-.92-2.17,2.62,2.62,0,0,1,1.36-2.32,6.81,6.81,0,0,1,3.69-.86H335v-1.4a2.19,2.19,0,0,0-.78-1.78A3.39,3.39,0,0,0,332,107a6,6,0,0,0-1.74.24,4.12,4.12,0,0,0-1.31.65l-.11,1.41h-1v-2a6.92,6.92,0,0,1,1.89-.91,7.56,7.56,0,0,1,2.35-.36,4.86,4.86,0,0,1,3,.89,3.06,3.06,0,0,1,1.15,2.55v5.2c0,.21,0,.42,0,.62a5.41,5.41,0,0,0,.07.58l1.14.07v.86Zm-4.15-.83a4.83,4.83,0,0,0,2.41-.59,3.6,3.6,0,0,0,1.51-1.51v-2.12h-2.54a5,5,0,0,0-2.75.66,1.93,1.93,0,0,0-1,1.66,1.69,1.69,0,0,0,.63,1.37A2.7,2.7,0,0,0,331.07,116Z"/><path class="cls-3" d="M339,107.09v-.87h2.84l.11,1.75a3.9,3.9,0,0,1,1.47-1.44,4.42,4.42,0,0,1,2.18-.51,3.83,3.83,0,0,1,2.18.59,3.25,3.25,0,0,1,1.26,1.81,3.94,3.94,0,0,1,3.8-2.4,3.59,3.59,0,0,1,2.82,1.13,5.13,5.13,0,0,1,1,3.47v5.17l1.72.14v.86h-4.71v-.86l1.72-.14V110.6a4,4,0,0,0-.75-2.75,2.65,2.65,0,0,0-2.07-.81,2.92,2.92,0,0,0-2.27.87,4.06,4.06,0,0,0-1,2.22.61.61,0,0,0,0,.14v5.53l1.72.13v.86h-4.7v-.86l1.72-.13v-5.2a4,4,0,0,0-.76-2.74,2.65,2.65,0,0,0-2.07-.82,3.09,3.09,0,0,0-3.24,2.32v6.44l1.72.13v.86H339v-.86l1.72-.13v-8.58Z"/><path class="cls-3" d="M359.84,115.93l1.72-.13v-8.58l-1.72-.13v-.87h3v9.58l1.72.13v.86h-4.69Zm3-12.74h-1.25v-1.64h1.25Z"/><path class="cls-3" d="M366.42,115.93l1.72-.13v-8.58l-1.72-.13v-.87h2.84l.11,1.84a3.88,3.88,0,0,1,1.48-1.5,4.33,4.33,0,0,1,2.21-.54,3.67,3.67,0,0,1,2.83,1,4.71,4.71,0,0,1,1,3.28v5.45l1.72.13v.86h-4.71v-.86l1.72-.13v-5.44a3.62,3.62,0,0,0-.73-2.57,2.78,2.78,0,0,0-2.08-.75,3.46,3.46,0,0,0-2.17.65,3.63,3.63,0,0,0-1.21,1.72v6.39l1.72.13v.86h-4.7Z"/><path class="cls-3" d="M388.44,116.79a7.45,7.45,0,0,1-.18-.93,5.24,5.24,0,0,1-.05-.79,5.13,5.13,0,0,1-4.06,1.92,3.85,3.85,0,0,1-2.6-.8,2.74,2.74,0,0,1-.92-2.17A2.64,2.64,0,0,1,382,111.7a6.82,6.82,0,0,1,3.7-.86h2.52v-1.4a2.2,2.2,0,0,0-.79-1.78,3.37,3.37,0,0,0-2.2-.64,5.88,5.88,0,0,0-1.73.24,4.17,4.17,0,0,0-1.32.65l-.1,1.41H381v-2a6.84,6.84,0,0,1,1.9-.91,7.45,7.45,0,0,1,2.34-.36,4.84,4.84,0,0,1,3,.89,3,3,0,0,1,1.15,2.55v5.2c0,.21,0,.42,0,.62a3.68,3.68,0,0,0,.07.58l1.13.07v.86Zm-4.16-.83a4.87,4.87,0,0,0,2.42-.59,3.66,3.66,0,0,0,1.51-1.51v-2.12h-2.55a5,5,0,0,0-2.74.66,1.92,1.92,0,0,0-1,1.66,1.67,1.67,0,0,0,.64,1.37A2.67,2.67,0,0,0,384.28,116Z"/><path class="cls-3" d="M395.21,106.22l.16,1.76v.12a3.71,3.71,0,0,1,1.32-1.52,3.52,3.52,0,0,1,2-.56,3.57,3.57,0,0,1,.47,0,2.45,2.45,0,0,1,.37.07l-.17,1.1-.94-.06a3,3,0,0,0-2,.62,3.31,3.31,0,0,0-1.09,1.7v6.31l1.72.13v.86h-4.7v-.86l1.72-.13v-8.58l-1.72-.13v-.87h2.82Z"/><path class="cls-3" d="M411.45,115.49a3,3,0,0,0,1.82-.59,1.78,1.78,0,0,0,.78-1.45h1.87l0,0a2.87,2.87,0,0,1-1.31,2.43,5,5,0,0,1-3.18,1.06,4.77,4.77,0,0,1-3.8-1.5,5.55,5.55,0,0,1-1.32-3.78v-.41a5.52,5.52,0,0,1,1.32-3.77,4.8,4.8,0,0,1,3.8-1.51,6.82,6.82,0,0,1,2.46.42,5,5,0,0,1,1.81,1.16l.09,2.34h-1.65l-.45-1.66a3,3,0,0,0-.95-.54,4.14,4.14,0,0,0-1.31-.2,2.57,2.57,0,0,0-2.34,1.09,4.87,4.87,0,0,0-.7,2.67v.41a4.84,4.84,0,0,0,.7,2.7A2.56,2.56,0,0,0,411.45,115.49Z"/><path class="cls-3" d="M418,111.4a5.53,5.53,0,0,1,1.37-3.86,4.76,4.76,0,0,1,3.72-1.52,4.82,4.82,0,0,1,3.74,1.52,5.51,5.51,0,0,1,1.37,3.86v.22a5.52,5.52,0,0,1-1.37,3.87,5.37,5.37,0,0,1-7.46,0,5.48,5.48,0,0,1-1.37-3.86Zm2.07.22a4.72,4.72,0,0,0,.77,2.77,2.87,2.87,0,0,0,4.52,0,4.72,4.72,0,0,0,.77-2.77v-.22a4.75,4.75,0,0,0-.77-2.76,2.61,2.61,0,0,0-2.27-1.1,2.58,2.58,0,0,0-2.26,1.1,4.82,4.82,0,0,0-.76,2.76Z"/><path class="cls-3" d="M429.67,115.56l1.72-.28v-7.55l-1.72-.27v-1.24h3.59l.13,1.38a3.78,3.78,0,0,1,1.42-1.17,4.64,4.64,0,0,1,2-.41,3.82,3.82,0,0,1,2,.49A3.1,3.1,0,0,1,440,108a3.9,3.9,0,0,1,3.49-2,3.55,3.55,0,0,1,2.76,1.11,4.78,4.78,0,0,1,1,3.34v4.81l1.72.28v1.23h-5.52v-1.23l1.71-.28v-4.83a3.29,3.29,0,0,0-.58-2.21,2.13,2.13,0,0,0-1.71-.65,2.28,2.28,0,0,0-1.75.7,3,3,0,0,0-.76,1.79v5.2l1.71.28v1.23h-5.51v-1.23l1.72-.28v-4.83a3.28,3.28,0,0,0-.6-2.18,2.16,2.16,0,0,0-1.72-.68,3,3,0,0,0-1.56.36,2.41,2.41,0,0,0-.94,1v6.32l1.72.28v1.23h-5.52Z"/><path class="cls-3" d="M450.39,111.4a5.53,5.53,0,0,1,1.38-3.86,4.76,4.76,0,0,1,3.72-1.52,4.82,4.82,0,0,1,3.74,1.52,5.56,5.56,0,0,1,1.37,3.86v.22a5.52,5.52,0,0,1-1.37,3.87,5.37,5.37,0,0,1-7.46,0,5.48,5.48,0,0,1-1.38-3.86Zm2.08.22a4.72,4.72,0,0,0,.77,2.77,2.87,2.87,0,0,0,4.52,0,4.72,4.72,0,0,0,.77-2.77v-.22a4.75,4.75,0,0,0-.77-2.76,2.61,2.61,0,0,0-2.27-1.1,2.58,2.58,0,0,0-2.26,1.1,4.75,4.75,0,0,0-.76,2.76Z"/><path class="cls-3" d="M467.88,111.4a5.57,5.57,0,0,1,1.37-3.86,5.34,5.34,0,0,1,7.46,0,5.52,5.52,0,0,1,1.38,3.86v.22a5.56,5.56,0,0,1-1.37,3.87,5.39,5.39,0,0,1-7.47,0,5.52,5.52,0,0,1-1.37-3.86Zm2.08.22a4.72,4.72,0,0,0,.76,2.77,2.87,2.87,0,0,0,4.52,0,4.72,4.72,0,0,0,.77-2.77v-.22a4.75,4.75,0,0,0-.77-2.76,2.6,2.6,0,0,0-2.27-1.1,2.55,2.55,0,0,0-2.25,1.1,4.75,4.75,0,0,0-.76,2.76Z"/><path class="cls-3" d="M488.72,109.54h-1.56l-.34-1.27a2.8,2.8,0,0,0-.95-.53,3.84,3.84,0,0,0-1.31-.2,2.53,2.53,0,0,0-1.64.45,1.36,1.36,0,0,0-.54,1.08,1.19,1.19,0,0,0,.47,1,5.25,5.25,0,0,0,1.94.64,8.74,8.74,0,0,1,3.21,1.17,2.31,2.31,0,0,1,1.06,2,2.67,2.67,0,0,1-1.23,2.27,5.44,5.44,0,0,1-3.21.87,8.7,8.7,0,0,1-2.33-.28,6.32,6.32,0,0,1-1.85-.8v-2.42H482l.39,1.42a2.23,2.23,0,0,0,1,.44,5.86,5.86,0,0,0,1.26.14,3.1,3.1,0,0,0,1.73-.42A1.25,1.25,0,0,0,487,114a1.28,1.28,0,0,0-.52-1,5,5,0,0,0-2-.71,8.83,8.83,0,0,1-3.13-1.15,2.24,2.24,0,0,1-1.06-2,2.71,2.71,0,0,1,1.19-2.2,5,5,0,0,1,3.08-.91,7.91,7.91,0,0,1,2.33.32,4.64,4.64,0,0,1,1.72.87Z"/><path class="cls-3" d="M496.11,119.61l1.72-.28v-11.6l-1.72-.27v-1.24h3.5l.19,1.29a3.85,3.85,0,0,1,1.39-1.11,4.49,4.49,0,0,1,1.89-.38,3.9,3.9,0,0,1,3.3,1.56,6.69,6.69,0,0,1,1.17,4.12v.2a5.52,5.52,0,0,1-1.18,3.69,4,4,0,0,1-3.26,1.4,4.81,4.81,0,0,1-1.85-.33,3.44,3.44,0,0,1-1.35-1v3.64l1.72.28v1.24h-5.52Zm9.36-7.91a5.33,5.33,0,0,0-.76-3,2.53,2.53,0,0,0-2.26-1.15,2.93,2.93,0,0,0-1.52.37,2.82,2.82,0,0,0-1,1v5.15a2.74,2.74,0,0,0,1,1,3,3,0,0,0,1.54.36,2.66,2.66,0,0,0,2.24-1,4.19,4.19,0,0,0,.76-2.59Z"/><path class="cls-3" d="M509.44,115.56l1.72-.28v-7.55l-1.72-.27v-1.24h3.8v9.06l1.72.28v1.23h-5.52Zm3.8-12h-2.08v-2h2.08Z"/><path class="cls-3" d="M516.26,102.79v-1.24h3.79v13.73l1.72.28v1.23h-5.51v-1.23l1.71-.28V103.06Z"/><path class="cls-3" d="M530.79,116.79a7.5,7.5,0,0,1-.15-.78c0-.22-.06-.45-.08-.68a4.94,4.94,0,0,1-1.5,1.19,4.13,4.13,0,0,1-1.92.47,4.06,4.06,0,0,1-2.71-.8,2.86,2.86,0,0,1-.93-2.28,2.57,2.57,0,0,1,1.31-2.31,6.76,6.76,0,0,1,3.6-.82h2.14v-1.23a1.84,1.84,0,0,0-.63-1.47,2.63,2.63,0,0,0-1.76-.54,4.81,4.81,0,0,0-1.38.18,2.9,2.9,0,0,0-1,.51l-.22,1.11H524v-2a6.22,6.22,0,0,1,1.88-.92,8.07,8.07,0,0,1,2.41-.35,5,5,0,0,1,3.14.92,3.11,3.11,0,0,1,1.2,2.63v5.09c0,.13,0,.27,0,.4s0,.26,0,.39l.85.11v1.23Zm-3.35-1.41a3.89,3.89,0,0,0,1.89-.46,2.94,2.94,0,0,0,1.22-1.1v-1.74h-2.21a3.32,3.32,0,0,0-2,.55,1.58,1.58,0,0,0-.74,1.32A1.25,1.25,0,0,0,526,115,2.21,2.21,0,0,0,527.44,115.38Z"/><path class="cls-3" d="M535.24,107.46v-1.24h3.57l.2,1.53a3.86,3.86,0,0,1,1.2-1.27,3,3,0,0,1,1.63-.46,4.38,4.38,0,0,1,.5,0,2.14,2.14,0,0,1,.39.07l-.27,1.79-1.18-.06a2.49,2.49,0,0,0-1.38.36,2.37,2.37,0,0,0-.87,1v6.06l1.72.28v1.23h-5.51v-1.23l1.72-.28v-7.55Z"/><path class="cls-3" d="M549.18,117a5,5,0,0,1-3.79-1.47,5.28,5.28,0,0,1-1.41-3.81v-.43a5.17,5.17,0,0,1,1.45-3.76,4.62,4.62,0,0,1,3.43-1.5,4.51,4.51,0,0,1,3.49,1.29,4.89,4.89,0,0,1,1.18,3.44V112h-7.4l0,0a4,4,0,0,0,.83,2.51,2.77,2.77,0,0,0,2.25,1,5.76,5.76,0,0,0,1.85-.28,4.4,4.4,0,0,0,1.38-.77l.81,1.25a5,5,0,0,1-1.62.92A6.72,6.72,0,0,1,549.18,117Zm-.32-9.45a2.33,2.33,0,0,0-1.78.81,3.83,3.83,0,0,0-.91,2.05l0,0h5.27v-.26a2.79,2.79,0,0,0-.66-1.89A2.4,2.4,0,0,0,548.86,107.54Z"/><path class="cls-3" d="M564.31,109.54h-1.56l-.34-1.27a2.8,2.8,0,0,0-.95-.53,3.78,3.78,0,0,0-1.3-.2,2.54,2.54,0,0,0-1.65.45,1.36,1.36,0,0,0-.54,1.08,1.17,1.17,0,0,0,.48,1,5.18,5.18,0,0,0,1.93.64,8.87,8.87,0,0,1,3.22,1.17,2.3,2.3,0,0,1,1,2,2.67,2.67,0,0,1-1.23,2.27,5.44,5.44,0,0,1-3.21.87,8.81,8.81,0,0,1-2.33-.28,6.44,6.44,0,0,1-1.85-.8v-2.42h1.56l.39,1.42a2.28,2.28,0,0,0,1,.44,5.86,5.86,0,0,0,1.26.14,3.05,3.05,0,0,0,1.73-.42,1.28,1.28,0,0,0,.11-2.13,5,5,0,0,0-2-.71,8.91,8.91,0,0,1-3.13-1.15,2.25,2.25,0,0,1-1.05-2,2.7,2.7,0,0,1,1.18-2.2,5,5,0,0,1,3.09-.91,8,8,0,0,1,2.33.32,4.72,4.72,0,0,1,1.72.87Z"/><path class="cls-3" d="M579.65,115.53a3.71,3.71,0,0,1-1.37,1.09,4.4,4.4,0,0,1-1.87.37,4.06,4.06,0,0,1-3.27-1.4A5.57,5.57,0,0,1,572,111.9v-.2a6.68,6.68,0,0,1,1.17-4.11,3.87,3.87,0,0,1,3.29-1.57,4.4,4.4,0,0,1,1.79.35,3.7,3.7,0,0,1,1.32,1v-4.31l-1.72-.27v-1.24h3.8v13.73l1.72.28v1.23h-3.53Zm-5.6-3.63a4.24,4.24,0,0,0,.7,2.56,2.52,2.52,0,0,0,2.19,1,3,3,0,0,0,1.56-.39,3,3,0,0,0,1-1.11V109a3.07,3.07,0,0,0-1-1,2.94,2.94,0,0,0-1.54-.39,2.41,2.41,0,0,0-2.2,1.14,5.49,5.49,0,0,0-.71,3Z"/><path class="cls-3" d="M584.93,111.4a5.57,5.57,0,0,1,1.37-3.86,5.34,5.34,0,0,1,7.46,0,5.52,5.52,0,0,1,1.38,3.86v.22a5.56,5.56,0,0,1-1.37,3.87,5.39,5.39,0,0,1-7.47,0,5.52,5.52,0,0,1-1.37-3.86Zm2.08.22a4.72,4.72,0,0,0,.76,2.77,2.87,2.87,0,0,0,4.52,0,4.72,4.72,0,0,0,.77-2.77v-.22a4.75,4.75,0,0,0-.77-2.76,2.6,2.6,0,0,0-2.27-1.1,2.55,2.55,0,0,0-2.25,1.1,4.75,4.75,0,0,0-.76,2.76Z"/><path class="cls-3" d="M234.39,126.57a5.71,5.71,0,0,1,3.83,1.17,4.19,4.19,0,0,1,0,6.18,5.76,5.76,0,0,1-3.83,1.16h-3.25v4.2l1.72.28v1.23h-5.52v-1.23l1.72-.28v-11.2l-1.72-.27v-1.24h7Zm-3.25,7h3.25a3.16,3.16,0,0,0,2.34-.78,2.65,2.65,0,0,0,.78-2,2.71,2.71,0,0,0-.78-2,3.12,3.12,0,0,0-2.34-.79h-3.25Z"/><path class="cls-3" d="M246.32,141a5,5,0,0,1-3.79-1.47,5.28,5.28,0,0,1-1.41-3.81v-.43a5.22,5.22,0,0,1,1.45-3.76A4.62,4.62,0,0,1,246,130a4.49,4.49,0,0,1,3.48,1.29,4.89,4.89,0,0,1,1.19,3.44V136h-7.41l0,.05a4,4,0,0,0,.84,2.51,2.74,2.74,0,0,0,2.24,1,5.71,5.71,0,0,0,1.85-.28,4.4,4.4,0,0,0,1.38-.77l.81,1.25a5,5,0,0,1-1.62.92A6.72,6.72,0,0,1,246.32,141Zm-.31-9.45a2.35,2.35,0,0,0-1.79.81,3.74,3.74,0,0,0-.9,2.05l0,0h5.26v-.26a2.84,2.84,0,0,0-.65-1.89A2.42,2.42,0,0,0,246,131.54Z"/><path class="cls-3" d="M252.42,139.56l1.72-.28v-7.55l-1.72-.27v-1.24H256l.15,1.57a4,4,0,0,1,3.39-1.77,3.89,3.89,0,0,1,2.85,1,4.18,4.18,0,0,1,1,3.1v5.16l1.72.28v1.23H259.6v-1.23l1.72-.28v-5.13a2.69,2.69,0,0,0-.6-2,2.49,2.49,0,0,0-1.82-.58,3.05,3.05,0,0,0-2.69,1.49v6.2l1.72.28v1.23h-5.51Z"/><path class="cls-3" d="M275.35,133.54h-1.56l-.33-1.27a2.85,2.85,0,0,0-1-.53,3.78,3.78,0,0,0-1.3-.2,2.54,2.54,0,0,0-1.65.45,1.38,1.38,0,0,0-.53,1.08,1.19,1.19,0,0,0,.47,1,5.25,5.25,0,0,0,1.93.64,8.87,8.87,0,0,1,3.22,1.17,2.3,2.3,0,0,1,1.05,2,2.67,2.67,0,0,1-1.23,2.27,5.44,5.44,0,0,1-3.21.87,8.81,8.81,0,0,1-2.33-.28,6.26,6.26,0,0,1-1.84-.8v-2.42h1.56l.39,1.42a2.24,2.24,0,0,0,1,.44,5.86,5.86,0,0,0,1.26.14,3.11,3.11,0,0,0,1.74-.42,1.25,1.25,0,0,0,.63-1.09,1.27,1.27,0,0,0-.53-1,5,5,0,0,0-2-.71,9,9,0,0,1-3.14-1.15,2.25,2.25,0,0,1-1.05-2,2.68,2.68,0,0,1,1.19-2.2,5,5,0,0,1,3.08-.91,8,8,0,0,1,2.33.32,4.72,4.72,0,0,1,1.72.87Z"/><path class="cls-3" d="M285.08,140.79c-.07-.29-.11-.55-.15-.78s-.06-.45-.07-.68a5,5,0,0,1-1.51,1.19,4.13,4.13,0,0,1-1.92.47,4.06,4.06,0,0,1-2.71-.8,2.86,2.86,0,0,1-.93-2.28,2.57,2.57,0,0,1,1.31-2.31,6.77,6.77,0,0,1,3.61-.82h2.14v-1.23a1.81,1.81,0,0,0-.64-1.47,2.63,2.63,0,0,0-1.76-.54,4.69,4.69,0,0,0-1.37.18,2.86,2.86,0,0,0-1,.51l-.22,1.11h-1.6v-2.05a6.46,6.46,0,0,1,1.88-.92,8.07,8.07,0,0,1,2.41-.35,5,5,0,0,1,3.14.92,3.11,3.11,0,0,1,1.2,2.63v5.09c0,.13,0,.27,0,.4a2.56,2.56,0,0,0,0,.39l.84.11v1.23Zm-3.34-1.41a3.88,3.88,0,0,0,1.88-.46,3,3,0,0,0,1.23-1.1v-1.74h-2.22a3.32,3.32,0,0,0-2,.55,1.6,1.6,0,0,0-.74,1.32,1.25,1.25,0,0,0,.46,1.06A2.22,2.22,0,0,0,281.74,139.38Z"/><path class="cls-3" d="M289.12,139.56l1.72-.28v-7.55l-1.72-.27v-1.24h3.58l.14,1.38a3.74,3.74,0,0,1,1.41-1.17,4.71,4.71,0,0,1,2-.41,3.76,3.76,0,0,1,1.95.49,3,3,0,0,1,1.23,1.47,4,4,0,0,1,1.43-1.43,4,4,0,0,1,2.06-.53,3.57,3.57,0,0,1,2.77,1.11,4.83,4.83,0,0,1,1,3.34v4.81l1.72.28v1.23H302.9v-1.23l1.72-.28v-4.83a3.29,3.29,0,0,0-.58-2.21,2.17,2.17,0,0,0-1.72-.65,2.25,2.25,0,0,0-1.74.7,3,3,0,0,0-.77,1.79v5.2l1.72.28v1.23H296v-1.23l1.72-.28v-4.83a3.34,3.34,0,0,0-.59-2.18,2.2,2.2,0,0,0-1.73-.68,3.05,3.05,0,0,0-1.56.36,2.41,2.41,0,0,0-.94,1v6.32l1.72.28v1.23h-5.51Z"/><path class="cls-3" d="M315,141a5,5,0,0,1-3.79-1.47,5.28,5.28,0,0,1-1.41-3.81v-.43a5.17,5.17,0,0,1,1.45-3.76,4.62,4.62,0,0,1,3.43-1.5,4.51,4.51,0,0,1,3.49,1.29,4.89,4.89,0,0,1,1.18,3.44V136H312l0,.05a4,4,0,0,0,.83,2.51,2.77,2.77,0,0,0,2.25,1,5.76,5.76,0,0,0,1.85-.28,4.4,4.4,0,0,0,1.38-.77l.81,1.25a5,5,0,0,1-1.62.92A6.72,6.72,0,0,1,315,141Zm-.32-9.45a2.33,2.33,0,0,0-1.78.81,3.83,3.83,0,0,0-.91,2.05l0,0h5.27v-.26a2.79,2.79,0,0,0-.66-1.89A2.4,2.4,0,0,0,314.72,131.54Z"/><path class="cls-3" d="M321.13,139.56l1.72-.28v-7.55l-1.72-.27v-1.24h3.58l.15,1.57a4,4,0,0,1,1.43-1.3,4,4,0,0,1,1.95-.47,3.92,3.92,0,0,1,2.86,1,4.22,4.22,0,0,1,1,3.1v5.16l1.72.28v1.23h-5.51v-1.23l1.71-.28v-5.13a2.7,2.7,0,0,0-.59-2,2.5,2.5,0,0,0-1.82-.58,3.08,3.08,0,0,0-1.59.4,3,3,0,0,0-1.1,1.09v6.2l1.72.28v1.23h-5.52Z"/><path class="cls-3" d="M339,127.67v2.55h2.16v1.42H339v6.42a1.39,1.39,0,0,0,.33,1.05,1.25,1.25,0,0,0,.88.3,7.88,7.88,0,0,0,1.19-.14l.29,1.32a2.92,2.92,0,0,1-.87.29,6.29,6.29,0,0,1-1.14.11,2.82,2.82,0,0,1-2-.71,2.92,2.92,0,0,1-.75-2.22v-6.42h-1.8v-1.42h1.8v-2.55Z"/><path class="cls-3" d="M343.05,135.4a5.57,5.57,0,0,1,1.37-3.86,5.34,5.34,0,0,1,7.46,0,5.52,5.52,0,0,1,1.38,3.86v.22a5.56,5.56,0,0,1-1.37,3.87,5.39,5.39,0,0,1-7.47,0,5.52,5.52,0,0,1-1.37-3.86Zm2.08.22a4.72,4.72,0,0,0,.76,2.77,2.87,2.87,0,0,0,4.52,0,4.72,4.72,0,0,0,.77-2.77v-.22a4.75,4.75,0,0,0-.77-2.76,2.6,2.6,0,0,0-2.27-1.1,2.55,2.55,0,0,0-2.25,1.1,4.75,4.75,0,0,0-.76,2.76Z"/><path class="cls-3" d="M372.24,130.93h-1.47l-.39-2a3.8,3.8,0,0,0-1.24-.75,4.67,4.67,0,0,0-1.76-.29,4.42,4.42,0,0,0-3.68,1.6,6.31,6.31,0,0,0-1.29,4.08v.22a6.46,6.46,0,0,0,1.26,4.09,4.19,4.19,0,0,0,3.5,1.62,5.39,5.39,0,0,0,1.89-.31,3.72,3.72,0,0,0,1.32-.74l.39-2h1.47V139a5.65,5.65,0,0,1-2,1.41,7.3,7.3,0,0,1-3.08.62,6.43,6.43,0,0,1-4.92-2.05,7.26,7.26,0,0,1-1.92-5.16v-.2a7.32,7.32,0,0,1,1.89-5.17,6.41,6.41,0,0,1,4.95-2,7.15,7.15,0,0,1,3.08.63,5.91,5.91,0,0,1,2,1.41Z"/><path class="cls-3" d="M374.46,135.4a5.53,5.53,0,0,1,1.38-3.86,4.76,4.76,0,0,1,3.72-1.52,4.82,4.82,0,0,1,3.74,1.52,5.56,5.56,0,0,1,1.37,3.86v.22a5.52,5.52,0,0,1-1.37,3.87,5.37,5.37,0,0,1-7.46,0,5.48,5.48,0,0,1-1.38-3.86Zm2.08.22a4.72,4.72,0,0,0,.77,2.77,2.87,2.87,0,0,0,4.52,0,4.72,4.72,0,0,0,.77-2.77v-.22a4.75,4.75,0,0,0-.77-2.76,2.61,2.61,0,0,0-2.27-1.1,2.58,2.58,0,0,0-2.26,1.1,4.75,4.75,0,0,0-.76,2.76Z"/><path class="cls-3" d="M386.16,139.56l1.72-.28v-7.55l-1.72-.27v-1.24h3.59l.13,1.38a3.78,3.78,0,0,1,1.42-1.17,4.64,4.64,0,0,1,2-.41,3.82,3.82,0,0,1,2,.49,3,3,0,0,1,1.22,1.47,4.08,4.08,0,0,1,1.43-1.43A4,4,0,0,1,400,130a3.57,3.57,0,0,1,2.77,1.11,4.83,4.83,0,0,1,1,3.34v4.81l1.72.28v1.23h-5.53v-1.23l1.72-.28v-4.83a3.29,3.29,0,0,0-.58-2.21,2.17,2.17,0,0,0-1.72-.65,2.27,2.27,0,0,0-1.74.7,3,3,0,0,0-.77,1.79v5.2l1.72.28v1.23h-5.51v-1.23l1.72-.28v-4.83a3.28,3.28,0,0,0-.6-2.18,2.18,2.18,0,0,0-1.72-.68,3.07,3.07,0,0,0-1.57.36,2.39,2.39,0,0,0-.93,1v6.32l1.72.28v1.23h-5.52Z"/><path class="cls-3" d="M406.72,143.61l1.72-.28v-11.6l-1.72-.27v-1.24h3.5l.2,1.29a3.81,3.81,0,0,1,1.38-1.11,4.52,4.52,0,0,1,1.89-.38,3.88,3.88,0,0,1,3.3,1.56,6.69,6.69,0,0,1,1.18,4.12v.2a5.53,5.53,0,0,1-1.19,3.69,4,4,0,0,1-3.25,1.4,4.78,4.78,0,0,1-1.85-.33,3.47,3.47,0,0,1-1.36-1v3.64l1.72.28v1.24h-5.52Zm9.36-7.91a5.33,5.33,0,0,0-.76-3,2.53,2.53,0,0,0-2.26-1.15,3,3,0,0,0-1.52.37,2.82,2.82,0,0,0-1,1v5.15a2.74,2.74,0,0,0,1,1,3.05,3.05,0,0,0,1.54.36,2.66,2.66,0,0,0,2.24-1,4.19,4.19,0,0,0,.76-2.59Z"/><path class="cls-3" d="M428.22,139.22a3.63,3.63,0,0,1-1.39,1.31,4,4,0,0,1-2,.46,3.84,3.84,0,0,1-2.9-1.1,4.9,4.9,0,0,1-1-3.44v-4.72l-1.31-.27v-1.24H423v6.25a3.66,3.66,0,0,0,.54,2.32,2,2,0,0,0,1.67.64,3.59,3.59,0,0,0,1.83-.42,2.63,2.63,0,0,0,1.09-1.17v-6.11l-1.53-.27v-1.24h3.61v9.06l1.31.28v1.23h-3.18Z"/><path class="cls-3" d="M436.8,127.67v2.55H439v1.42H436.8v6.42a1.39,1.39,0,0,0,.33,1.05,1.27,1.27,0,0,0,.88.3,4.82,4.82,0,0,0,.62,0,5.53,5.53,0,0,0,.58-.09l.28,1.32a2.85,2.85,0,0,1-.86.29,6.29,6.29,0,0,1-1.14.11,2.83,2.83,0,0,1-2-.71,2.92,2.92,0,0,1-.75-2.22v-6.42h-1.8v-1.42h1.8v-2.55Z"/><path class="cls-3" d="M448.53,140.79c-.07-.29-.11-.55-.15-.78s-.06-.45-.07-.68a5,5,0,0,1-1.51,1.19,4.13,4.13,0,0,1-1.92.47,4.06,4.06,0,0,1-2.71-.8,2.86,2.86,0,0,1-.93-2.28,2.57,2.57,0,0,1,1.31-2.31,6.76,6.76,0,0,1,3.6-.82h2.15v-1.23a1.81,1.81,0,0,0-.64-1.47,2.63,2.63,0,0,0-1.76-.54,4.69,4.69,0,0,0-1.37.18,2.86,2.86,0,0,0-1,.51l-.22,1.11h-1.6v-2.05a6.46,6.46,0,0,1,1.88-.92A8.07,8.07,0,0,1,446,130a5,5,0,0,1,3.14.92,3.11,3.11,0,0,1,1.2,2.63v5.09c0,.13,0,.27,0,.4s0,.26,0,.39l.85.11v1.23Zm-3.35-1.41a3.89,3.89,0,0,0,1.89-.46,3,3,0,0,0,1.23-1.1v-1.74h-2.22a3.32,3.32,0,0,0-2,.55,1.6,1.6,0,0,0-.74,1.32,1.25,1.25,0,0,0,.46,1.06A2.21,2.21,0,0,0,445.18,139.38Z"/><path class="cls-3" d="M458.1,139.49a3,3,0,0,0,1.82-.59,1.76,1.76,0,0,0,.79-1.45h1.86l0,.05a2.9,2.9,0,0,1-1.32,2.43A5,5,0,0,1,458.1,141a4.78,4.78,0,0,1-3.8-1.5,5.59,5.59,0,0,1-1.31-3.78v-.41a5.52,5.52,0,0,1,1.32-3.77A4.78,4.78,0,0,1,458.1,130a6.84,6.84,0,0,1,2.47.42,5,5,0,0,1,1.8,1.16l.1,2.34h-1.66l-.45-1.66a2.89,2.89,0,0,0-.95-.54,4.1,4.1,0,0,0-1.31-.2,2.54,2.54,0,0,0-2.33,1.09,4.78,4.78,0,0,0-.7,2.67v.41a4.92,4.92,0,0,0,.69,2.7A2.58,2.58,0,0,0,458.1,139.49Z"/><path class="cls-3" d="M464.62,139.56l1.72-.28v-7.55l-1.72-.27v-1.24h3.8v9.06l1.72.28v1.23h-5.52Zm3.8-12h-2.08v-2h2.08Z"/><path class="cls-3" d="M471.73,135.4a5.57,5.57,0,0,1,1.37-3.86,5.34,5.34,0,0,1,7.46,0,5.52,5.52,0,0,1,1.38,3.86v.22a5.56,5.56,0,0,1-1.37,3.87,5.39,5.39,0,0,1-7.47,0,5.52,5.52,0,0,1-1.37-3.86Zm2.08.22a4.72,4.72,0,0,0,.76,2.77,2.87,2.87,0,0,0,4.52,0,4.72,4.72,0,0,0,.77-2.77v-.22a4.75,4.75,0,0,0-.77-2.76,2.6,2.6,0,0,0-2.27-1.1,2.55,2.55,0,0,0-2.25,1.1,4.75,4.75,0,0,0-.76,2.76Z"/><path class="cls-3" d="M483.53,139.56l1.72-.28v-7.55l-1.72-.27v-1.24h3.57l.15,1.57a4,4,0,0,1,3.39-1.77,3.93,3.93,0,0,1,2.86,1,4.22,4.22,0,0,1,1,3.1v5.16l1.72.28v1.23h-5.52v-1.23l1.72-.28v-5.13a2.69,2.69,0,0,0-.6-2,2.49,2.49,0,0,0-1.82-.58,3.07,3.07,0,0,0-1.58.4,3,3,0,0,0-1.1,1.09v6.2l1.72.28v1.23h-5.52Z"/><path class="cls-3" d="M505.18,140.79q-.09-.43-.15-.78c0-.22-.06-.45-.07-.68a4.94,4.94,0,0,1-1.5,1.19,4.2,4.2,0,0,1-1.93.47,4.06,4.06,0,0,1-2.71-.8,2.86,2.86,0,0,1-.93-2.28,2.56,2.56,0,0,1,1.32-2.31,6.71,6.71,0,0,1,3.6-.82H505v-1.23a1.84,1.84,0,0,0-.63-1.47,2.66,2.66,0,0,0-1.77-.54,4.74,4.74,0,0,0-1.37.18,2.86,2.86,0,0,0-1,.51l-.22,1.11h-1.6v-2.05a6.4,6.4,0,0,1,1.89-.92,8,8,0,0,1,2.4-.35,5,5,0,0,1,3.14.92,3.09,3.09,0,0,1,1.21,2.63v5.49a2.56,2.56,0,0,0,0,.39l.84.11v1.23Zm-3.34-1.41a3.82,3.82,0,0,0,1.88-.46,3,3,0,0,0,1.23-1.1v-1.74h-2.22a3.32,3.32,0,0,0-2,.55A1.6,1.6,0,0,0,500,138a1.28,1.28,0,0,0,.46,1.06A2.22,2.22,0,0,0,501.84,139.38Z"/><path class="cls-3" d="M509.35,126.79v-1.24h3.79v13.73l1.72.28v1.23h-5.51v-1.23l1.71-.28V127.06Z"/><path class="cls-3" d="M521.8,139.56l1.72-.28v-7.55l-1.72-.27v-1.24h3.8v9.06l1.72.28v1.23H521.8Zm3.8-12h-2.08v-2h2.08Z"/><path class="cls-3" d="M528.59,139.56l1.72-.28v-7.55l-1.72-.27v-1.24h3.58l.14,1.57a4,4,0,0,1,1.43-1.3,4.09,4.09,0,0,1,2-.47,3.93,3.93,0,0,1,2.86,1,4.22,4.22,0,0,1,1,3.1v5.16l1.72.28v1.23h-5.52v-1.23l1.72-.28v-5.13a2.74,2.74,0,0,0-.59-2,2.52,2.52,0,0,0-1.82-.58,3.08,3.08,0,0,0-1.59.4,3,3,0,0,0-1.1,1.09v6.2l1.72.28v1.23h-5.52Z"/><path class="cls-3" d="M546.43,127.67v2.55h2.16v1.42h-2.16v6.42a1.39,1.39,0,0,0,.33,1.05,1.25,1.25,0,0,0,.88.3,5,5,0,0,0,.62,0,5.3,5.3,0,0,0,.57-.09l.28,1.32a2.75,2.75,0,0,1-.86.29,6.29,6.29,0,0,1-1.14.11,2.82,2.82,0,0,1-2-.71,2.92,2.92,0,0,1-.75-2.22v-6.42h-1.81v-1.42h1.81v-2.55Z"/><path class="cls-3" d="M555.92,141a5,5,0,0,1-3.79-1.47,5.28,5.28,0,0,1-1.41-3.81v-.43a5.17,5.17,0,0,1,1.45-3.76,4.6,4.6,0,0,1,3.43-1.5,4.53,4.53,0,0,1,3.49,1.29,4.89,4.89,0,0,1,1.18,3.44V136h-7.4l0,.05a4,4,0,0,0,.83,2.51,2.74,2.74,0,0,0,2.25,1,5.76,5.76,0,0,0,1.85-.28,4.24,4.24,0,0,0,1.37-.77l.82,1.25a5,5,0,0,1-1.62.92A6.72,6.72,0,0,1,555.92,141Zm-.32-9.45a2.31,2.31,0,0,0-1.78.81,3.75,3.75,0,0,0-.91,2.05l0,0h5.26v-.26a2.78,2.78,0,0,0-.65-1.89A2.41,2.41,0,0,0,555.6,131.54Z"/><path class="cls-3" d="M562.32,131.46v-1.24h3.57l.2,1.53a4,4,0,0,1,1.2-1.27,3,3,0,0,1,1.63-.46,4.38,4.38,0,0,1,.5,0,2.47,2.47,0,0,1,.4.07l-.28,1.79-1.18-.06a2.49,2.49,0,0,0-1.38.36,2.37,2.37,0,0,0-.87,1v6.06l1.72.28v1.23h-5.51v-1.23l1.72-.28v-7.55Z"/><path class="cls-3" d="M578.7,140.79a7.5,7.5,0,0,1-.15-.78c0-.22-.06-.45-.08-.68a4.94,4.94,0,0,1-1.5,1.19,4.13,4.13,0,0,1-1.92.47,4.06,4.06,0,0,1-2.71-.8,2.86,2.86,0,0,1-.93-2.28,2.57,2.57,0,0,1,1.31-2.31,6.76,6.76,0,0,1,3.6-.82h2.14v-1.23a1.84,1.84,0,0,0-.63-1.47,2.63,2.63,0,0,0-1.76-.54,4.81,4.81,0,0,0-1.38.18,2.81,2.81,0,0,0-1,.51l-.22,1.11H571.9v-2.05a6.4,6.4,0,0,1,1.89-.92,8.07,8.07,0,0,1,2.41-.35,5,5,0,0,1,3.14.92,3.11,3.11,0,0,1,1.2,2.63v5.09c0,.13,0,.27,0,.4s0,.26,0,.39l.85.11v1.23Zm-3.35-1.41a3.89,3.89,0,0,0,1.89-.46,2.94,2.94,0,0,0,1.22-1.1v-1.74h-2.21a3.3,3.3,0,0,0-2,.55,1.58,1.58,0,0,0-.74,1.32A1.25,1.25,0,0,0,574,139,2.21,2.21,0,0,0,575.35,139.38Z"/><path class="cls-3" d="M583.16,135.7a6.56,6.56,0,0,1,1.2-4.11,3.94,3.94,0,0,1,3.32-1.57,4.31,4.31,0,0,1,1.89.39,3.73,3.73,0,0,1,1.36,1.14l.19-1.33h1.75v10.43a4.26,4.26,0,0,1-1.23,3.23,4.94,4.94,0,0,1-3.52,1.17,8.41,8.41,0,0,1-1.78-.21,7.44,7.44,0,0,1-1.69-.57l.54-1.49a7.07,7.07,0,0,0,1.37.47,6.94,6.94,0,0,0,1.54.18,2.61,2.61,0,0,0,2-.72,2.94,2.94,0,0,0,.65-2.06v-1a3.58,3.58,0,0,1-1.34,1,4.4,4.4,0,0,1-1.79.34,4.1,4.1,0,0,1-3.3-1.41,5.45,5.45,0,0,1-1.2-3.68Zm2.07.2a4.18,4.18,0,0,0,.73,2.56,2.59,2.59,0,0,0,2.22,1,2.86,2.86,0,0,0,1.57-.4,3,3,0,0,0,1-1.12v-4.86a3.13,3.13,0,0,0-1-1.07,3,3,0,0,0-1.55-.39,2.47,2.47,0,0,0-2.23,1.15,5.41,5.41,0,0,0-.74,3Z"/><path class="cls-3" d="M600.58,141a5,5,0,0,1-3.79-1.47,5.28,5.28,0,0,1-1.41-3.81v-.43a5.17,5.17,0,0,1,1.45-3.76,4.62,4.62,0,0,1,3.43-1.5,4.51,4.51,0,0,1,3.49,1.29,4.89,4.89,0,0,1,1.18,3.44V136h-7.4l0,.05a4,4,0,0,0,.83,2.51,2.76,2.76,0,0,0,2.25,1,5.76,5.76,0,0,0,1.85-.28,4.24,4.24,0,0,0,1.37-.77l.82,1.25a5,5,0,0,1-1.62.92A6.72,6.72,0,0,1,600.58,141Zm-.32-9.45a2.33,2.33,0,0,0-1.78.81,3.75,3.75,0,0,0-.91,2.05l0,0h5.27v-.26a2.79,2.79,0,0,0-.66-1.89A2.4,2.4,0,0,0,600.26,131.54Z"/><path class="cls-3" d="M606.57,139.56l1.72-.28v-7.55l-1.72-.27v-1.24h3.58l.14,1.38a3.82,3.82,0,0,1,1.41-1.17,4.71,4.71,0,0,1,2-.41,3.76,3.76,0,0,1,1.95.49,3,3,0,0,1,1.23,1.47,4.08,4.08,0,0,1,1.43-1.43,4,4,0,0,1,2.06-.53,3.57,3.57,0,0,1,2.77,1.11,4.83,4.83,0,0,1,1,3.34v4.81l1.72.28v1.23h-5.53v-1.23l1.72-.28v-4.83a3.29,3.29,0,0,0-.58-2.21,2.17,2.17,0,0,0-1.72-.65,2.27,2.27,0,0,0-1.74.7,3,3,0,0,0-.77,1.79v5.2l1.72.28v1.23h-5.51v-1.23l1.71-.28v-4.83a3.28,3.28,0,0,0-.59-2.18,2.19,2.19,0,0,0-1.73-.68,3.05,3.05,0,0,0-1.56.36,2.39,2.39,0,0,0-.93,1v6.32l1.71.28v1.23h-5.51Z"/><path class="cls-3" d="M232.66,163.49a3,3,0,0,0,1.81-.59,1.76,1.76,0,0,0,.79-1.45h1.87l0,.05a2.9,2.9,0,0,1-1.32,2.43,5,5,0,0,1-3.17,1.06,4.81,4.81,0,0,1-3.81-1.5,5.59,5.59,0,0,1-1.31-3.78v-.41a5.52,5.52,0,0,1,1.32-3.77,4.79,4.79,0,0,1,3.8-1.51,6.82,6.82,0,0,1,2.46.42,5,5,0,0,1,1.81,1.16l.09,2.34h-1.65l-.46-1.66a2.79,2.79,0,0,0-.95-.54,4,4,0,0,0-1.3-.2,2.57,2.57,0,0,0-2.34,1.09,4.78,4.78,0,0,0-.7,2.67v.41a4.92,4.92,0,0,0,.69,2.7A2.59,2.59,0,0,0,232.66,163.49Z"/><path class="cls-3" d="M239.18,159.4a5.57,5.57,0,0,1,1.37-3.86,5.34,5.34,0,0,1,7.46,0,5.52,5.52,0,0,1,1.38,3.86v.22a5.56,5.56,0,0,1-1.37,3.87,5.39,5.39,0,0,1-7.47,0,5.52,5.52,0,0,1-1.37-3.86Zm2.08.22a4.72,4.72,0,0,0,.76,2.77,2.6,2.6,0,0,0,2.28,1.1,2.57,2.57,0,0,0,2.24-1.1,4.65,4.65,0,0,0,.77-2.77v-.22a4.68,4.68,0,0,0-.77-2.76,2.87,2.87,0,0,0-4.52,0,4.75,4.75,0,0,0-.76,2.76Z"/><path class="cls-3" d="M250.88,163.56l1.72-.28v-7.55l-1.72-.27v-1.24h3.58l.14,1.38a3.82,3.82,0,0,1,1.41-1.17,4.71,4.71,0,0,1,2-.41,3.76,3.76,0,0,1,2,.49A3,3,0,0,1,261.2,156a4.08,4.08,0,0,1,1.43-1.43,4,4,0,0,1,2.06-.53,3.57,3.57,0,0,1,2.77,1.11,4.83,4.83,0,0,1,1,3.34v4.81l1.72.28v1.23h-5.53v-1.23l1.72-.28v-4.83a3.29,3.29,0,0,0-.58-2.21,2.17,2.17,0,0,0-1.72-.65,2.27,2.27,0,0,0-1.74.7,3,3,0,0,0-.77,1.79v5.2l1.72.28v1.23h-5.51v-1.23l1.71-.28v-4.83a3.28,3.28,0,0,0-.59-2.18,2.19,2.19,0,0,0-1.73-.68,3.05,3.05,0,0,0-1.56.36,2.48,2.48,0,0,0-.94,1v6.32l1.72.28v1.23h-5.51Z"/><path class="cls-3" d="M276.86,151.81v-1.24h5.52v1.24l-1.72.27v11.2l1.72.28v1.23h-5.52v-1.23l1.72-.28v-11.2Z"/><path class="cls-3" d="M283.74,163.56l1.72-.28v-7.55l-1.72-.27v-1.24h3.57l.15,1.57a4,4,0,0,1,3.39-1.77,3.89,3.89,0,0,1,2.85,1,4.18,4.18,0,0,1,1,3.1v5.16l1.72.28v1.23h-5.52v-1.23l1.72-.28v-5.13a2.69,2.69,0,0,0-.6-2,2.49,2.49,0,0,0-1.82-.58,3.07,3.07,0,0,0-1.58.4,3,3,0,0,0-1.1,1.09v6.2l1.71.28v1.23h-5.51Z"/><path class="cls-3" d="M301.57,151.67v2.55h2.16v1.42h-2.16v6.42a1.39,1.39,0,0,0,.33,1.05,1.29,1.29,0,0,0,.88.3,4.82,4.82,0,0,0,.62,0,5.53,5.53,0,0,0,.58-.09l.28,1.32a2.85,2.85,0,0,1-.86.29,6.29,6.29,0,0,1-1.14.11,2.83,2.83,0,0,1-2-.71,2.92,2.92,0,0,1-.75-2.22v-6.42h-1.8v-1.42h1.8v-2.55Z"/><path class="cls-3" d="M311.06,165a5,5,0,0,1-3.79-1.47,5.28,5.28,0,0,1-1.41-3.81v-.43a5.22,5.22,0,0,1,1.45-3.76,4.62,4.62,0,0,1,3.44-1.5,4.49,4.49,0,0,1,3.48,1.29,4.89,4.89,0,0,1,1.19,3.44V160H308l0,.05a4,4,0,0,0,.84,2.51,2.74,2.74,0,0,0,2.24,1,5.71,5.71,0,0,0,1.85-.28,4.4,4.4,0,0,0,1.38-.77l.81,1.25a5,5,0,0,1-1.62.92A6.68,6.68,0,0,1,311.06,165Zm-.31-9.45a2.35,2.35,0,0,0-1.79.81,3.74,3.74,0,0,0-.9,2.05l0,0h5.26v-.26a2.84,2.84,0,0,0-.65-1.89A2.42,2.42,0,0,0,310.75,155.54Z"/><path class="cls-3" d="M317.46,155.46v-1.24H321l.2,1.53a3.76,3.76,0,0,1,1.2-1.27,3,3,0,0,1,1.63-.46,4.57,4.57,0,0,1,.5,0,2.14,2.14,0,0,1,.39.07l-.27,1.79-1.18-.06a2.49,2.49,0,0,0-1.38.36,2.24,2.24,0,0,0-.87,1v6.06l1.72.28v1.23h-5.52v-1.23l1.72-.28v-7.55Z"/><path class="cls-3" d="M333.88,163.53a3.6,3.6,0,0,1-1.36,1.09,4.4,4.4,0,0,1-1.87.37,4.05,4.05,0,0,1-3.27-1.4,5.57,5.57,0,0,1-1.17-3.69v-.2a6.68,6.68,0,0,1,1.17-4.11,3.87,3.87,0,0,1,3.29-1.57,4.31,4.31,0,0,1,1.78.35,3.74,3.74,0,0,1,1.33,1v-4.31l-1.72-.27v-1.24h3.8v13.73l1.72.28v1.23h-3.53Zm-5.6-3.63a4.24,4.24,0,0,0,.71,2.56,2.51,2.51,0,0,0,2.18,1,2.91,2.91,0,0,0,1.56-.39,3,3,0,0,0,1-1.11V157a3.1,3.1,0,0,0-1-1.05,2.88,2.88,0,0,0-1.53-.39,2.4,2.4,0,0,0-2.2,1.14,5.49,5.49,0,0,0-.72,3Z"/><path class="cls-3" d="M339.16,163.56l1.72-.28v-7.55l-1.72-.27v-1.24H343v9.06l1.72.28v1.23h-5.51ZM343,151.51h-2.07v-2H343Z"/><path class="cls-3" d="M355,157.54h-1.56l-.34-1.27a2.85,2.85,0,0,0-1-.53,3.74,3.74,0,0,0-1.3-.2,2.49,2.49,0,0,0-1.64.45,1.36,1.36,0,0,0-.54,1.08,1.19,1.19,0,0,0,.47,1,5.25,5.25,0,0,0,1.93.64,8.8,8.8,0,0,1,3.22,1.17,2.3,2.3,0,0,1,1.05,2,2.68,2.68,0,0,1-1.22,2.27,5.45,5.45,0,0,1-3.22.87,8.81,8.81,0,0,1-2.33-.28,6.26,6.26,0,0,1-1.84-.8v-2.42h1.56l.39,1.42a2.24,2.24,0,0,0,1,.44,5.86,5.86,0,0,0,1.26.14,3.11,3.11,0,0,0,1.74-.42,1.25,1.25,0,0,0,.63-1.09,1.27,1.27,0,0,0-.53-1,4.91,4.91,0,0,0-2-.71,9,9,0,0,1-3.14-1.15,2.25,2.25,0,0,1-1.05-2,2.71,2.71,0,0,1,1.19-2.2,5,5,0,0,1,3.08-.91,8,8,0,0,1,2.33.32,4.72,4.72,0,0,1,1.72.87Z"/><path class="cls-3" d="M362.39,163.49a3,3,0,0,0,1.82-.59,1.78,1.78,0,0,0,.78-1.45h1.87l0,.05a2.87,2.87,0,0,1-1.31,2.43,5,5,0,0,1-3.18,1.06,4.77,4.77,0,0,1-3.8-1.5,5.55,5.55,0,0,1-1.32-3.78v-.41a5.52,5.52,0,0,1,1.32-3.77,4.8,4.8,0,0,1,3.8-1.51,6.82,6.82,0,0,1,2.46.42,5,5,0,0,1,1.81,1.16l.1,2.34H365.1l-.45-1.66a3,3,0,0,0-.95-.54,4.14,4.14,0,0,0-1.31-.2,2.57,2.57,0,0,0-2.34,1.09,4.87,4.87,0,0,0-.7,2.67v.41a4.84,4.84,0,0,0,.7,2.7A2.56,2.56,0,0,0,362.39,163.49Z"/><path class="cls-3" d="M368.91,163.56l1.72-.28v-7.55l-1.72-.27v-1.24h3.79v9.06l1.72.28v1.23h-5.51Zm3.79-12.05h-2.07v-2h2.07Z"/><path class="cls-3" d="M375.75,167.61l1.72-.28v-11.6l-1.72-.27v-1.24h3.5l.19,1.29a3.85,3.85,0,0,1,1.39-1.11,4.49,4.49,0,0,1,1.89-.38,3.9,3.9,0,0,1,3.3,1.56,6.69,6.69,0,0,1,1.17,4.12v.2a5.52,5.52,0,0,1-1.18,3.69,4,4,0,0,1-3.26,1.4,4.81,4.81,0,0,1-1.85-.33,3.44,3.44,0,0,1-1.35-1v3.64l1.72.28v1.24h-5.52Zm9.36-7.91a5.33,5.33,0,0,0-.76-3,2.53,2.53,0,0,0-2.26-1.15,2.93,2.93,0,0,0-1.52.37,2.82,2.82,0,0,0-1,1v5.15a2.74,2.74,0,0,0,1,1,3,3,0,0,0,1.54.36,2.66,2.66,0,0,0,2.24-1,4.19,4.19,0,0,0,.76-2.59Z"/><path class="cls-3" d="M388.69,150.79v-1.24h3.8v13.73l1.72.28v1.23h-5.52v-1.23l1.72-.28V151.06Z"/><path class="cls-3" d="M395.78,163.56l1.72-.28v-7.55l-1.72-.27v-1.24h3.79v9.06l1.72.28v1.23h-5.51Zm3.79-12.05H397.5v-2h2.07Z"/><path class="cls-3" d="M402.57,163.56l1.72-.28v-7.55l-1.72-.27v-1.24h3.57l.15,1.57a4,4,0,0,1,3.39-1.77,3.93,3.93,0,0,1,2.86,1,4.22,4.22,0,0,1,1,3.1v5.16l1.72.28v1.23h-5.52v-1.23l1.72-.28v-5.13a2.69,2.69,0,0,0-.6-2,2.49,2.49,0,0,0-1.82-.58,3.07,3.07,0,0,0-1.58.4,3,3,0,0,0-1.1,1.09v6.2l1.72.28v1.23h-5.52Z"/><path class="cls-3" d="M424.22,164.79q-.09-.43-.15-.78c0-.22-.06-.45-.07-.68a4.94,4.94,0,0,1-1.5,1.19,4.2,4.2,0,0,1-1.93.47,4.06,4.06,0,0,1-2.71-.8,2.86,2.86,0,0,1-.93-2.28,2.56,2.56,0,0,1,1.32-2.31,6.71,6.71,0,0,1,3.6-.82H424v-1.23a1.84,1.84,0,0,0-.63-1.47,2.66,2.66,0,0,0-1.77-.54,4.74,4.74,0,0,0-1.37.18,2.86,2.86,0,0,0-1,.51l-.22,1.11h-1.6v-2.05a6.4,6.4,0,0,1,1.89-.92,8,8,0,0,1,2.4-.35,5,5,0,0,1,3.14.92,3.09,3.09,0,0,1,1.21,2.63v5.49a2.56,2.56,0,0,0,0,.39l.84.11v1.23Zm-3.34-1.41a3.82,3.82,0,0,0,1.88-.46,3,3,0,0,0,1.23-1.1v-1.74h-2.22a3.32,3.32,0,0,0-2,.55A1.6,1.6,0,0,0,419,162a1.28,1.28,0,0,0,.46,1.06A2.22,2.22,0,0,0,420.88,163.38Z"/><path class="cls-3" d="M428.67,155.46v-1.24h3.58l.2,1.53a3.83,3.83,0,0,1,1.19-1.27,3,3,0,0,1,1.63-.46,4.38,4.38,0,0,1,.5,0,2.28,2.28,0,0,1,.4.07l-.28,1.79-1.18-.06a2.49,2.49,0,0,0-1.38.36,2.28,2.28,0,0,0-.86,1v6.06l1.72.28v1.23h-5.52v-1.23l1.72-.28v-7.55Z"/><path class="cls-3" d="M437.6,163.56l1.72-.28v-7.55l-1.72-.27v-1.24h3.8v9.06l1.72.28v1.23H437.6Zm3.8-12.05h-2.08v-2h2.08Z"/><path class="cls-3" d="M452.39,163.53a3.63,3.63,0,0,1-1.37,1.09,4.4,4.4,0,0,1-1.87.37,4,4,0,0,1-3.26-1.4,5.52,5.52,0,0,1-1.18-3.69v-.2a6.62,6.62,0,0,1,1.18-4.11,3.85,3.85,0,0,1,3.28-1.57,4.36,4.36,0,0,1,1.79.35,3.62,3.62,0,0,1,1.32,1v-4.31l-1.72-.27v-1.24h3.8v13.73l1.72.28v1.23h-3.52Zm-5.6-3.63a4.18,4.18,0,0,0,.71,2.56,2.5,2.5,0,0,0,2.18,1,2.91,2.91,0,0,0,1.56-.39,3,3,0,0,0,1-1.11V157a3,3,0,0,0-1-1.05,2.91,2.91,0,0,0-1.54-.39,2.41,2.41,0,0,0-2.2,1.14,5.58,5.58,0,0,0-.71,3Z"/><path class="cls-3" d="M465.11,164.79A7.5,7.5,0,0,1,465,164a5.05,5.05,0,0,1-.07-.68,5.11,5.11,0,0,1-1.51,1.19,4.13,4.13,0,0,1-1.92.47,4.06,4.06,0,0,1-2.71-.8,2.86,2.86,0,0,1-.93-2.28,2.57,2.57,0,0,1,1.31-2.31,6.76,6.76,0,0,1,3.6-.82h2.15v-1.23a1.84,1.84,0,0,0-.64-1.47,2.63,2.63,0,0,0-1.76-.54,4.81,4.81,0,0,0-1.38.18,2.9,2.9,0,0,0-1,.51l-.22,1.11h-1.6v-2.05a6.46,6.46,0,0,1,1.88-.92,8.07,8.07,0,0,1,2.41-.35,5,5,0,0,1,3.14.92,3.11,3.11,0,0,1,1.2,2.63v5.09c0,.13,0,.27,0,.4s0,.26,0,.39l.85.11v1.23Zm-3.35-1.41a3.89,3.89,0,0,0,1.89-.46,3,3,0,0,0,1.23-1.1v-1.74h-2.22a3.32,3.32,0,0,0-2,.55,1.58,1.58,0,0,0-.74,1.32,1.25,1.25,0,0,0,.46,1.06A2.21,2.21,0,0,0,461.76,163.38Z"/><path class="cls-3" d="M477.25,163.53a3.71,3.71,0,0,1-1.37,1.09A4.4,4.4,0,0,1,474,165a4.06,4.06,0,0,1-3.27-1.4,5.57,5.57,0,0,1-1.17-3.69v-.2a6.68,6.68,0,0,1,1.17-4.11A3.87,3.87,0,0,1,474,154a4.4,4.4,0,0,1,1.79.35,3.79,3.79,0,0,1,1.32,1v-4.31l-1.72-.27v-1.24h3.8v13.73l1.72.28v1.23h-3.53Zm-5.61-3.63a4.24,4.24,0,0,0,.71,2.56,2.51,2.51,0,0,0,2.18,1,3,3,0,0,0,1.57-.39,3,3,0,0,0,1-1.11V157a3.16,3.16,0,0,0-1-1.05,2.94,2.94,0,0,0-1.54-.39,2.4,2.4,0,0,0-2.2,1.14,5.49,5.49,0,0,0-.72,3Z"/><path class="cls-3" d="M487.73,165a5,5,0,0,1-3.79-1.47,5.28,5.28,0,0,1-1.41-3.81v-.43a5.17,5.17,0,0,1,1.45-3.76,4.62,4.62,0,0,1,3.43-1.5,4.51,4.51,0,0,1,3.49,1.29,4.89,4.89,0,0,1,1.18,3.44V160h-7.4l0,.05a4,4,0,0,0,.83,2.51,2.76,2.76,0,0,0,2.25,1,5.76,5.76,0,0,0,1.85-.28,4.24,4.24,0,0,0,1.37-.77l.82,1.25a5,5,0,0,1-1.62.92A6.72,6.72,0,0,1,487.73,165Zm-.32-9.45a2.33,2.33,0,0,0-1.78.81,3.75,3.75,0,0,0-.91,2.05l0,0H490v-.26a2.79,2.79,0,0,0-.66-1.89A2.4,2.4,0,0,0,487.41,155.54Z"/><path class="cls-3" d="M496.8,164.79h-2.08v-2h2.08Z"/><circle class="cls-4" cx="91.56" cy="131.39" r="88"/><path class="cls-3" d="M91.56,46.39a85,85,0,1,1-85,85,85,85,0,0,1,85-85m0-6a91,91,0,1,0,91,91,91.11,91.11,0,0,0-91-91Z"/><path class="cls-2" d="M91.33,46.55a84.78,84.78,0,1,0,84.78,84.77A84.77,84.77,0,0,0,91.33,46.55Zm0,163.9a79.13,79.13,0,1,1,79.13-79.13A79.12,79.12,0,0,1,91.33,210.45Z"/><path class="cls-2" d="M131.34,69.74a2.82,2.82,0,0,0-3.91.82l-4.62,7.11a2.81,2.81,0,0,0-.39,2.17,2.85,2.85,0,0,0,1.28,1.79,35.55,35.55,0,0,1,3.17,2.25c.64.49,1.28,1,1.77,1.33.88.72,1.72,1.48,2.56,2.25l-1.95,2a56.11,56.11,0,0,0-12.39-8.48l5.78-13a2.82,2.82,0,0,0-1.43-3.73,73.93,73.93,0,0,0-26-6.2,2.86,2.86,0,0,0-2,.72,2.81,2.81,0,0,0-.92,2l-.44,8.47a2.83,2.83,0,0,0,2.67,3l3,.15,3.17.48,1.22.19c.62.09,1.23.17,1.76.3l.39.09-.74,2.77a57.8,57.8,0,0,0-15-1.21L86.77,60.77a2.85,2.85,0,0,0-1-1.9,2.79,2.79,0,0,0-2.08-.62A73,73,0,0,0,58,65.9a2.83,2.83,0,0,0-1.22,3.8l3.85,7.55a2.82,2.82,0,0,0,3.71,1.28L66,77.72a29.45,29.45,0,0,1,4-1.74l.72-.27c.85-.31,1.68-.62,2.49-.89L74,77.55c-.69.24-1.37.49-2,.74l-.67.25a26.7,26.7,0,0,0-4,1.71l-1.7.82-4.79,2.76-.32.18L52.12,72.56a2.81,2.81,0,0,0-1.84-1.13,2.76,2.76,0,0,0-2.1.51A73.22,73.22,0,0,0,29.75,91.31a2.81,2.81,0,0,0-.4,2.13,2.85,2.85,0,0,0,1.23,1.79l7.1,4.62a2.81,2.81,0,0,0,2.17.39A2.87,2.87,0,0,0,41.64,99a36.28,36.28,0,0,1,2.25-3.16c.49-.64,1-1.28,1.32-1.78.73-.87,1.49-1.72,2.26-2.56l2,2a56.11,56.11,0,0,0-8.48,12.39L28,100a2.82,2.82,0,0,0-3.73,1.43,73.71,73.71,0,0,0-6.2,26,2.83,2.83,0,0,0,2.68,3l8.46.43a2.78,2.78,0,0,0,2-.71,2.82,2.82,0,0,0,.93-2l.15-3,.48-3.17c.07-.4.13-.81.19-1.22.09-.62.17-1.23.29-1.76l.1-.39,2.77.74a57,57,0,0,0-1.21,15l-14.14,1.47a2.82,2.82,0,0,0-1.9,1,2.78,2.78,0,0,0-.62,2.07,73.63,73.63,0,0,0,7.65,25.68,2.83,2.83,0,0,0,3.8,1.23l7.55-3.85a2.84,2.84,0,0,0,1.28-3.71c-.26-.56-.53-1.11-.8-1.67A28.56,28.56,0,0,1,36,152.61l-.28-.75c-.31-.84-.61-1.66-.88-2.47l2.76-.74a56.09,56.09,0,0,0,6.46,13.53l-11.48,8.35a2.77,2.77,0,0,0-1.13,1.85,2.81,2.81,0,0,0,.5,2.1,73.73,73.73,0,0,0,19.38,18.43,2.83,2.83,0,0,0,3.92-.83l4.62-7.1a2.82,2.82,0,0,0-.9-4,38.83,38.83,0,0,1-3.17-2.26c-.63-.49-1.27-1-1.77-1.32-.88-.72-1.72-1.48-2.56-2.25l2-2c.76.69,1.53,1.39,2.48,2.16.55.39,1.08.8,1.62,1.21a34.36,34.36,0,0,0,3.15,2.22l5,2.89.06,0-5.78,13a2.82,2.82,0,0,0-.06,2.17,2.78,2.78,0,0,0,1.49,1.56,73.89,73.89,0,0,0,26,6.21h.15a2.83,2.83,0,0,0,2.82-2.68l.43-8.46a2.82,2.82,0,0,0-2.66-3l-3-.15-3.17-.49c-.4-.07-.81-.12-1.22-.18-.61-.09-1.22-.18-1.76-.3l-.39-.1.75-2.77a57.81,57.81,0,0,0,15,1.22l1.47,14.13a2.81,2.81,0,0,0,3.1,2.52,72.73,72.73,0,0,0,25.68-7.65,2.82,2.82,0,0,0,1.23-3.8l-3.85-7.55a2.84,2.84,0,0,0-3.71-1.28l-1.69.82a28.22,28.22,0,0,1-4,1.73l-.72.27c-.85.32-1.68.62-2.5.9l-.74-2.77a56.06,56.06,0,0,0,13.53-6.45l8.35,11.48a2.83,2.83,0,0,0,4,.62,73.57,73.57,0,0,0,18.43-19.38,2.81,2.81,0,0,0-.83-3.91L145,162.79a2.84,2.84,0,0,0-3.95.9,35,35,0,0,1-2.25,3.17c-.49.64-1,1.28-1.33,1.78-.72.87-1.48,1.71-2.25,2.55l-2-1.95a56.15,56.15,0,0,0,8.49-12.39l13,5.78a2.84,2.84,0,0,0,3.74-1.43,74.15,74.15,0,0,0,6.2-26,2.83,2.83,0,0,0-2.68-3l-8.47-.44a2.84,2.84,0,0,0-3,2.67l-.15,3-.48,3.16c-.08.41-.13.82-.19,1.23-.09.61-.18,1.22-.3,1.75l-.1.39-2.72-.72,0-.07c.15-.66.25-1.33.34-2,.05-.32.09-.63.15-1l.43-2.78a2.58,2.58,0,0,0,0-.29l.15-3v-5.91l14.19-1.47a2.87,2.87,0,0,0,1.91-1,2.83,2.83,0,0,0,.61-2.08A73.64,73.64,0,0,0,156.75,98a2.82,2.82,0,0,0-3.8-1.23l-7.55,3.85a2.83,2.83,0,0,0-1.28,3.71c.26.56.54,1.11.81,1.67a28,28,0,0,1,1.74,4.06l.28.74c.31.85.62,1.66.89,2.47l-2.77.74a56.55,56.55,0,0,0-6.45-13.52l11.48-8.36a2.81,2.81,0,0,0,.62-3.94A73.57,73.57,0,0,0,131.34,69.74Zm1.72,27.78a2.82,2.82,0,0,0-.62,4,50.7,50.7,0,0,1,8,16.69,2.84,2.84,0,0,0,3.46,2l8.19-2.19a2.82,2.82,0,0,0,2-3.32,40.81,40.81,0,0,0-1.84-5.84l-.23-.61a28.32,28.32,0,0,0-1.58-3.83l2.51-1.29a68.37,68.37,0,0,1,5.48,18.35l-14,1.45a2.84,2.84,0,0,0-2.53,3l.15,2.74V134l-.14,2.66-.4,2.6c-.06.37-.12.74-.17,1.11s-.13,1-.23,1.42l-.71,2.72a2.83,2.83,0,0,0,2,3.44l8.19,2.19a2.84,2.84,0,0,0,3.47-2l.82-3.23c.18-.75.29-1.52.4-2.28.05-.37.1-.73.17-1.13L156,138l0-.43,2.77.14a68.93,68.93,0,0,1-4.42,18.61l-12.85-5.73a2.86,2.86,0,0,0-2.17-.05,2.83,2.83,0,0,0-1.57,1.49,50.63,50.63,0,0,1-10.47,15.29,2.84,2.84,0,0,0,0,4l6,6a2.74,2.74,0,0,0,2.08.83,2.83,2.83,0,0,0,2-1c.5-.57,1-1.12,1.53-1.68,1-1.07,1.95-2.13,3-3.4.43-.61.89-1.2,1.34-1.79l.95-1.25,2.37,1.54a67.58,67.58,0,0,1-13.17,13.85l-8.29-11.38a2.81,2.81,0,0,0-3.94-.62,50.46,50.46,0,0,1-16.7,8,2.83,2.83,0,0,0-1.72,1.31,2.88,2.88,0,0,0-.28,2.15l2.19,8.19a2.82,2.82,0,0,0,3.32,2,41.11,41.11,0,0,0,5.86-1.85l.59-.22a28.32,28.32,0,0,0,3.83-1.58l1.28,2.52a68.76,68.76,0,0,1-18.34,5.47l-1.45-14a2.8,2.8,0,0,0-3.09-2.52,52,52,0,0,1-18.5-1.51,2.88,2.88,0,0,0-2.15.28,2.8,2.8,0,0,0-1.31,1.72l-2.2,8.19a2.82,2.82,0,0,0,2,3.47l3.22.82c.76.18,1.53.29,2.3.4l1.12.17,3.49.52.44,0L85,198.77a68.42,68.42,0,0,1-18.6-4.43l5.72-12.84a2.82,2.82,0,0,0-1.35-3.7l-2.35-1.12-4.82-2.77A27.21,27.21,0,0,1,61,172.08c-.6-.46-1.2-.92-1.64-1.22-.81-.67-1.59-1.39-2.37-2.11l-1.77-1.59a2.83,2.83,0,0,0-3.85.13l-6,6a2.79,2.79,0,0,0-.82,2.08,2.82,2.82,0,0,0,.94,2c.56.49,1.11,1,1.66,1.51,1.08,1,2.15,2,3.43,3,.6.43,1.19.88,1.78,1.33l1.26,1-1.55,2.37a68.1,68.1,0,0,1-13.85-13.17l11.38-8.28a2.77,2.77,0,0,0,1.13-1.84,2.82,2.82,0,0,0-.5-2.11,50.17,50.17,0,0,1-8-16.7,2.84,2.84,0,0,0-3.46-2l-8.19,2.19a2.84,2.84,0,0,0-2,3.33,41.13,41.13,0,0,0,1.85,5.83l.22.61a29.72,29.72,0,0,0,1.59,3.83l-2.52,1.29a68.46,68.46,0,0,1-5.47-18.35l14-1.45a2.83,2.83,0,0,0,2.52-3.09,51.75,51.75,0,0,1,1.51-18.5,2.83,2.83,0,0,0-2-3.47l-8.19-2.18a2.83,2.83,0,0,0-3.47,2l-.83,3.23c-.17.75-.29,1.51-.4,2.28-.05.36-.1.72-.17,1.13l-.52,3.49,0,.43L23.89,125a68,68,0,0,1,4.42-18.6l12.85,5.72a2.79,2.79,0,0,0,2.16.06,2.83,2.83,0,0,0,1.57-1.49,50.71,50.71,0,0,1,10.48-15.3,2.82,2.82,0,0,0,0-4l-6-6a2.84,2.84,0,0,0-4.11.12l-1.53,1.69c-1,1.06-2,2.13-3,3.4-.43.61-.88,1.2-1.33,1.79-.32.41-.64.82-.95,1.25l-2.37-1.54A67.62,67.62,0,0,1,49.25,78.21l8.28,11.38a2.8,2.8,0,0,0,1.85,1.13,2.76,2.76,0,0,0,2.1-.51l.66-.49a8.76,8.76,0,0,1,1.39-1l4.62-2.68q.81-.37,1.62-.78a21.94,21.94,0,0,1,3.31-1.41l.84-.31A28.16,28.16,0,0,1,78,82.29,2.83,2.83,0,0,0,79.85,81a2.8,2.8,0,0,0,.32-2.22L78,70.6a2.82,2.82,0,0,0-3.32-2,41.51,41.51,0,0,0-5.86,1.85l-.58.22a27.29,27.29,0,0,0-3.83,1.58L63.1,69.7a68.71,68.71,0,0,1,18.35-5.47l1.44,14a2.86,2.86,0,0,0,1,1.91,2.82,2.82,0,0,0,2.07.61,52,52,0,0,1,18.51,1.51,2.82,2.82,0,0,0,3.46-2l2.19-8.19a2.82,2.82,0,0,0-2-3.47l-3.21-.82c-.76-.18-1.53-.29-2.3-.4l-1.12-.18L98,66.67l-.44,0,.15-2.77a68.12,68.12,0,0,1,18.6,4.42l-5.73,12.85a2.81,2.81,0,0,0,0,2.17A2.75,2.75,0,0,0,112,84.88a51,51,0,0,1,15.3,10.48,2.82,2.82,0,0,0,4,0l6-6a2.82,2.82,0,0,0-.12-4.11c-.56-.49-1.11-1-1.66-1.51-1.07-1-2.15-2-3.42-3-.61-.43-1.2-.89-1.78-1.34l-1.27-1,1.55-2.37a67.58,67.58,0,0,1,13.85,13.17Z"/><path class="cls-2" d="M91.33,86.11a45.13,45.13,0,0,0-39,68,1.75,1.75,0,0,0,.18.29A45.4,45.4,0,0,0,64,167.29c.08.05.12.12.2.17l.06,0a44.88,44.88,0,0,0,54.06,0s0,0,.07,0,.12-.12.19-.17a45.43,45.43,0,0,0,11.53-12.9l.18-.29a45.13,45.13,0,0,0-39-68Zm-5.09,6L54.87,146.68A39.53,39.53,0,0,1,86.24,92.13ZM69.37,164.21l22-38.19,22,38.19a39.48,39.48,0,0,1-43.93,0Zm48.41-3.55L95,121.08a4.24,4.24,0,0,0-7.35,0L64.88,160.66a39.75,39.75,0,0,1-6.87-8.1l33.33-58,6.46,11.21c0,.08.08.17.13.25l26.73,46.5a39.8,39.8,0,0,1-6.88,8.1Zm10-14L103,103.47a2.15,2.15,0,0,0-.14-.26L96.44,92.13a39.53,39.53,0,0,1,31.35,54.55Z"/><g class="cls-5"><path class="cls-6" d="M75,3.33a6.1,6.1,0,0,1,4.36,2A10.63,10.63,0,0,1,82,5a9.62,9.62,0,0,1,7.16,3.25c7.86,2.95,4.74,7.69,4.56,8l.09,0s4.61,3.22,3,4.8c0,0,2.85,3.54.57,5.43a2.51,2.51,0,0,1-.82.42C103,36.92,106.9,54.7,104.35,69.36c-.5,2.91-3.82,5-12.76,5h0a48,48,0,0,1-8.64-.77c.08.68.18,1.42.28,2.17h0c.45,3.19,1.1,6.82,1.81,7.35,4.57,3.43,11.36,4.85,15.19,5.4l5.53.52a13.07,13.07,0,0,1,2.87,4.22h0l32.3,30,25.49-21.56S168.11,95,177.54,95a24.28,24.28,0,0,1,3.88.33c12.87,2.08-1.16,3.6-1.16,3.6s1.46-.12,3.61-.12a36.72,36.72,0,0,1,11.75,1.64l1.95,2.37-4.46,4.46A157.73,157.73,0,0,1,177,108.72a8.47,8.47,0,0,1-3.8-.52.41.41,0,0,0-.23-.06c-3.5,0-32.3,27.15-32.3,27.15l-29.65-24c.44,5.89.75,12.17.69,18A185.45,185.45,0,0,1,110,151.74c1.3.92.36,2.86.36,2.86l2.42,19.27c0,.14,0,.28,0,.42,3,13.4,2.5,35.61,2.5,35.61a22.64,22.64,0,0,0-2.55-.38v1.61h0c-.06,11.23,0,27.44.64,31.14,1,5.78,0,8.63,0,8.63s2.85,45,2.85,45.36,4,5.47,4,5.47,5.27,4.14,9.37,7.43h0a11.88,11.88,0,0,1,3.43,1.45,3.34,3.34,0,0,1,1,2.16l1.24.86a13.47,13.47,0,0,0,3.56.66c.56.56,0,1.18-.73,1.67.41.44.65.82.59,1.07-.27,1-4.09,5-11,5-.39,0-.79,0-1.19,0-7.24-.47-17.28-8.19-18.1-10.34a6.43,6.43,0,0,1,.1-4.33,12.09,12.09,0,0,1,1.72-5.12c1-1.7,1.61-6.54,1.61-6.54-10.43-36.61-4.45-41.76-5.59-44.41-.72-1.69-7.17-25.65-11.77-42.89h0v-.05c-.27-1-.53-2-.79-2.95a12.15,12.15,0,0,1-2.38-1.4,74.42,74.42,0,0,1-12.52,5L65,243.41s-2.35,8.68-5.15,11.47a123.45,123.45,0,0,1-6.92,20c-4.75,10.62-6.83,25.23-6.83,25.23s3.39,8.62,3.79,14c4,5.47,7.59,12.22,2.83,14.21a27.26,27.26,0,0,1-10.35,1.83c-5.74,0-10.88-1.35-12.08-2.55-1.93-1.93,3.54-16.53,3.54-16.53.17-1.33.54-2.61,1.31-3.15a23.66,23.66,0,0,0,4.18-4.55s-.71-1.9,1.28-4.46,4.93-19,4.93-21.13-2.66-18.21,6.19-24.53c0,0,1-20.53,3.61-35.38h0c.28-1.69.59-3.3.92-4.8-2.71.23-4.34.26-4.34.26l6-16.75c-2.87-.27-1-4.72-1-4.72a23.61,23.61,0,0,0,3.36-2c.36-1,.73-2.05,1.1-3.08-.95-2.34,1.42-9.6,1.42-9.6l-8.69-6.56-25.26-19S49.13,103.76,50,102.93c.54-.53,4.46-2.82,7.16-4.38,2.83-2.83,8.9-5.07,8.9-5.07s5.79-6.54,7-7.77.66-4.65.66-4.65L70.53,68.89a23.81,23.81,0,0,1-7.81-7.43,2.79,2.79,0,0,1-2.06.83A7.26,7.26,0,0,1,57,60.89s-8-8-5.5-11.82a2.4,2.4,0,0,1,2.08-1.15c1.66,0,3.63,1.37,5,2.54-2.85-2.49-4.37-2.83-5-2.83h-.2l0,0,0,0-.06,0,0-.06c-.6-.3-3.28-1.77-3.51-4.27-4.54-1.42-3.67-4-3.67-4-4.36-3,0-7.75,0-7.75-1.94-1.94-.44-4.77-.44-4.77-2.27-3.22.57-7.21.57-7.21.32-3.47,5.53-5.53,5.53-5.53.41-1.74,2.56-2.56,2.56-2.56a3.81,3.81,0,0,1,3.51-2.16h.29C59.94,5.35,67,5,69.68,5c.63,0,1,0,1,0A7.06,7.06,0,0,1,75,3.33M67.86,168.45c1.13-3.24,2.11-6.08,2.85-8.24a2.49,2.49,0,0,1,1.22-3.67c.07-.21.12-.38.15-.5,1.14-4.17-9.58-24.64-9.58-24.64l-9-5.67L40.77,149.58l20.28,14.13,6.81,4.74m65.85,144.13h0M75,0h0a9.88,9.88,0,0,0-5.3,1.62h0c-3.85,0-10.32.65-13.55,4.64A6.92,6.92,0,0,0,51.91,9a7.66,7.66,0,0,0-2.76,2.62c-1.95,1-5.35,3.24-6.16,6.79-1.22,2.06-2.33,5.46-1,8.7a7.63,7.63,0,0,0,.12,4.35,8.93,8.93,0,0,0-1.27,5.42,7,7,0,0,0,1.92,4,5.66,5.66,0,0,0,.52,1.53,7.54,7.54,0,0,0,3.69,3.36A7.92,7.92,0,0,0,48.28,48c-1.34,2.72-.59,6.19,2.24,10.33a38.24,38.24,0,0,0,4.09,5l.17.16.18.14a10.36,10.36,0,0,0,5.7,2.07,7,7,0,0,0,.93-.06,30,30,0,0,0,6,5.41l2.8,10.76a6.8,6.8,0,0,1,0,1.86c-1.34,1.4-5,5.47-6.38,7.08-1.85.74-6.23,2.67-8.95,5.19-6.59,3.8-7.11,4.33-7.5,4.72-.65.64-1,1-11.58,25.69-5.11,11.93-10.2,23.92-10.25,24l-1,2.4,2.08,1.56,25.26,19,6.84,5.16a23,23,0,0,0-1,8.11l-.41,1.17a21.3,21.3,0,0,1-2,1.11l-1.15.54-.49,1.17c-.42,1-1.66,4.4-.12,7l.18.28c-2.94,8.25-5.13,14.37-5.13,14.37l-1.63,4.55,4.83-.09h.19l-.12.66v0c-2.22,12.73-3.28,29.2-3.56,34.24-7.89,7-6.75,20.52-6.37,25.11,0,.41.08.93.09,1.08-.06,2.4-2.89,16.92-4.26,19.12a9,9,0,0,0-2.08,5.53,16.07,16.07,0,0,1-2.63,2.76c-1.41,1-2.28,2.64-2.65,5.06-.37,1-1.49,4.12-2.44,7.44-2.07,7.14-2.13,10.35-.21,12.27,2.42,2.42,9.18,3.52,14.44,3.52A30.53,30.53,0,0,0,54,331.42a6.69,6.69,0,0,0,4-4.45c1-3.47-.6-8-4.93-14.06a66.79,66.79,0,0,0-3.59-13.16c.51-3.18,2.58-14.85,6.44-23.5a128.26,128.26,0,0,0,6.92-19.78c2.79-3.48,4.77-10.19,5.28-12l13.09-32.84a78.81,78.81,0,0,0,9.61-3.76l.35,1.3v0c9.69,36.28,11.37,41.82,11.81,43,0,.27-.11.74-.17,1.14-.72,4.31-2.4,14.35,5.55,42.5a23.08,23.08,0,0,1-1.12,4.7,15.27,15.27,0,0,0-2.12,6.12,9.6,9.6,0,0,0,.1,6.14c1.08,2.84,6.36,6.39,8,7.42,2.73,1.75,8,4.73,13,5.06.47,0,.94,0,1.41,0,8.09,0,13.46-4.78,14.19-7.46a3.68,3.68,0,0,0,.11-1.4,4,4,0,0,0-.82-4.56l-.92-.92-1.3-.06a11,11,0,0,1-2-.29,6.1,6.1,0,0,0-1.81-2.62,12,12,0,0,0-4-1.91c-3.38-2.71-7.39-5.87-8.54-6.78-1.17-1.52-2.48-3.24-3.09-4.11-.15-2.52-.7-11.46-2.76-44a23.2,23.2,0,0,0-.08-9.58c-.21-1.18-.68-6.26-.6-28l2.48.78.1-4.44c0-.91.48-22.25-2.47-35.92h0l0-.3,0-.3L113.78,155a5.87,5.87,0,0,0-.28-4.14A191.61,191.61,0,0,0,115,129.34c0-3.24,0-6.77-.23-10.67l23.77,19.22,2.26,1.83,2.12-2c11.81-11.14,26.05-23.7,30-26a16.75,16.75,0,0,0,4,.36,158.64,158.64,0,0,0,16.62-1.45l1.1-.16.8-.79,4.45-4.45,2.14-2.14-1.92-2.33-1.94-2.37-.58-.71-.86-.31A30.26,30.26,0,0,0,190,95.83a4.74,4.74,0,0,0-3.2-2.69A29.7,29.7,0,0,0,182,92.06a27.69,27.69,0,0,0-4.42-.38c-9.42,0-12.87,5.53-13.94,8L141,118.78,111.37,91.25a16.63,16.63,0,0,0-3.27-4.58l-.85-.85-1.2-.11-5.45-.51c-3.25-.48-9.07-1.66-13-4.37a27.72,27.72,0,0,1-.71-3.35c1.55.14,3.13.21,4.73.21,3.65,0,14.71,0,16.06-7.76,2.36-13.6-.49-30.91-6.81-42.43,1.29-2.14.88-4.79-.34-7a5.17,5.17,0,0,0,0-.68,8,8,0,0,0-2.8-4.76,7.32,7.32,0,0,0-.21-3.58c-.81-2.58-3-4.62-6.38-6.06A12.93,12.93,0,0,0,82,1.64a13.8,13.8,0,0,0-1.68.11A9.13,9.13,0,0,0,75,0ZM45.1,148.53l9.62-18.08L60,133.74c.8,1.57,2.67,5.27,4.49,9.27,3.34,7.36,4.14,10.5,4.33,11.69a5.59,5.59,0,0,0-1.6,5.53q-.45,1.34-1,3L63,161,45.1,148.53Zm74.41,147.72Z"/><path class="cls-7" d="M108.62,93.24l32.3,30,25.49-21.56s2.15-8.41,15-6.32-1.16,3.6-1.16,3.6,9.1-.76,15.36,1.52l1.95,2.37-4.46,4.46s-17.83,2.46-20,.9-32.53,27.09-32.53,27.09l-29.65-24-5.82-5Z"/><path class="cls-7" d="M70.09,67.21l3.6,13.85s.57,3.41-.66,4.65-7,7.77-7,7.77l-3.22,6.36,18.68,10.62,22.28-6-.66-15.64S91.68,88.11,85,83.11c-1.3-1-2.41-12.39-2.41-12.39Z"/><path class="cls-8" d="M83.22,75.76c-.35-2.56-.64-5.13-.64-5.13L70.07,67.12l1,3.86s3.92,2.55,5.14,3.09A24,24,0,0,0,83.22,75.76Z"/><path class="cls-7" d="M59.7,97.07s-8.92,5-9.75,5.86-21.11,48.68-21.11,48.68l25.26,19,8.69,6.56s-2.75,8.44-1.14,10.05-4.74,4.61-4.74,4.61-2.47,5.82,2.53,4.56a75.35,75.35,0,0,0,11.76-4.62l3.35-18.71-13.5-9.4L40.77,149.58l12.69-23.85,9,5.67,11.1-8.11-8-19.85L62.22,96Z"/><path class="cls-7" d="M62.72,61.46S70,74.35,91.58,74.36c9,0,12.27-2.09,12.77-5C107.52,51.12,100.78,28,91.43,21c-8.21-6.18-37.3,17.2-37.3,17.2l6.19,13.91s-6.32-6.83-8.85-3S57,60.89,57,60.89,60.57,63.61,62.72,61.46Z"/><path class="cls-7" d="M83.27,197.59,65,243.41s-2.35,8.68-5.15,11.47a123.45,123.45,0,0,1-6.92,20c-4.75,10.62-6.83,25.23-6.83,25.23s4.31,10.95,3.79,15.88c0,0,4.13,5.69,2.47,9s-8.16,1.33-8.16,1.33S33.34,327.71,31.73,325s2-10,2-10-.52-5.78,1.37-7.11a23.66,23.66,0,0,0,4.18-4.55s-.71-1.9,1.28-4.46,4.93-19,4.93-21.13-2.66-18.21,6.19-24.53c0,0,2.15-43.62,8.22-49.69s23.33-9.67,23.33-9.67Z"/><path class="cls-9" d="M83.27,197.59l-5.84,14.65s-8.08,3.61-10.13,4.11c-1.52.37-12.33,3.72-12,1.54,1.14-6.82,2.71-12.41,4.61-14.31,6.07-6.07,23.33-9.67,23.33-9.67Z"/><path class="cls-7" d="M89.78,190.81s15.3,57.78,16.44,60.44-4.84,7.8,5.59,44.41c0,0-.66,4.84-1.61,6.54s-3.13,6.07-.38,7.59,11.67,9.1,15.46,9.77,10.91-2.66,10.91-2.66,3.79-1.42,2.6-2.61c0,0-3.46-.14-4.6-1.28s-14-11.28-14-11.28-4-5.12-4-5.47-2.85-45.36-2.85-45.36,1-2.85,0-8.63-.54-42.23-.54-42.23Z"/><path class="cls-9" d="M89.78,190.81s3.6,13.55,4.67,17.55c.41,1.54,18.25,2.77,18.25,2.77l.09-11.09Z"/><path class="cls-10" d="M89.78,202.25c3,5.87,23.76,7.11,25.48,7.65,0,0,.54-23.55-2.78-36.78S89.78,202.25,89.78,202.25Z"/><path class="cls-11" d="M64.49,56.28c3.67,1.52.51-5.06.51-5.06s-.35-6.59-2.21-7.71a26.37,26.37,0,0,1-4.07-3.33l35-24s3.54-4.93-4.55-8a9.63,9.63,0,0,0-9.8-2.91S75.81,1.09,70.69,5c0,0-10.3-.61-12.64,4.45a3.87,3.87,0,0,0-3.8,2.15s-2.15.82-2.56,2.56c0,0-5.21,2.06-5.53,5.53,0,0-2.84,4-.57,7.21,0,0-1.5,2.83.44,4.77,0,0-4.36,4.78,0,7.75,0,0-1.07,3.1,5.31,4.36l1.9,3.92s1.83-.83,7.08,4.43S64.49,56.28,64.49,56.28Z"/><ellipse class="cls-12" cx="80.19" cy="43.49" rx="1.7" ry="2.32" transform="translate(-8.18 20.85) rotate(-14.1)"/><path class="cls-12" d="M78,42.31h-.06a1.33,1.33,0,0,1-1.27-1.38c0-.34.2-3.36,2.4-4.54,1.42-.77,3.2-.54,5.27.7A1.33,1.33,0,0,1,83,39.37c-1.18-.7-2.12-.93-2.64-.65-.7.38-1,1.73-1,2.33A1.34,1.34,0,0,1,78,42.31Z"/><ellipse class="cls-12" cx="95.63" cy="39.75" rx="1.7" ry="2.32" transform="translate(-6.8 24.5) rotate(-14.1)"/><path class="cls-12" d="M93.83,38.36a1.49,1.49,0,0,1-.36,0,1.32,1.32,0,0,1-.92-1.63c.09-.33,1-3.22,3.35-3.89,1.56-.43,3.24.2,5,1.86A1.33,1.33,0,0,1,99,36.58c-1-.95-1.85-1.38-2.42-1.23-.76.21-1.35,1.46-1.51,2A1.34,1.34,0,0,1,93.83,38.36Z"/><path class="cls-13" d="M82.58,58.86c-.21-.22,12.52.8,17.38-2.78,0,0,1,9.69-3.38,10.75S87,66.13,82.58,58.86Z"/><g class="cls-14"><path class="cls-15" d="M81.74,60.39s11.91,3.4,17.21-1.9l-.67-2.41L80.83,57.26Z"/><path class="cls-16" d="M83.84,64.75s3.82-3.7,9.93-1.23,0,6.92,0,6.92Z"/></g><path class="cls-8" d="M94,68.07c-7.25,0-12.11-8.68-12.16-8.78L81,57.89l1.59.09c.12,0,11.76.57,16.87-2.65a.89.89,0,1,1,.94,1.5c-4.39,2.77-12.67,3-16.23,3,1.9,2.77,6.76,8.51,13,5.8a.89.89,0,1,1,.71,1.63A9.73,9.73,0,0,1,94,68.07Z"/><path class="cls-8" d="M60,60s-.19-8.3-6.59-10.29"/><path class="cls-8" d="M53.46,125.73s5.46-7.33,4.74-6.22c-4,6.2,10.25,13.35,13.6,9.53a8.55,8.55,0,0,1-9.3,2.36Z"/><path class="cls-17" d="M66,93.48s-6.07,2.24-8.9,5.07c0,0,17,24.69,5.39,32.85,0,0,10.72,20.47,9.58,24.64s-20.17,57.31-20.17,57.31,58.79-1,60.88-39.48L110,151.74a185.45,185.45,0,0,0,1.65-22.44c.12-10.8-1.06-23.21-1.93-31.68a13.62,13.62,0,0,0-4-8.59l-5.53-.52s4.36,14.65-5.75,16C89,105.29,75.87,107.05,66,93.48Z"/><g class="cls-18"><path class="cls-19" d="M54.1,214.79s58.79-1,60.88-39.49Z"/></g><path class="cls-17" d="M66,93.48s-6.07,2.24-8.9,5.07c0,0,17,24.69,5.39,32.85,0,0,10.72,20.47,9.58,24.64s-20.17,57.31-20.17,57.31,58.79-1,60.88-39.48L110,151.74a185.45,185.45,0,0,0,1.65-22.44c.12-10.8-1.06-23.21-1.93-31.68a13.62,13.62,0,0,0-4-8.59l-5.53-.52s4.36,14.65-5.75,16C89,105.29,75.87,107.05,66,93.48Z"/><path class="cls-7" d="M54.1,170.66l8.69,6.56s-2.75,8.44-1.14,10.05-4.74,4.61-4.74,4.61-2.47,5.82,2.53,4.56a75.35,75.35,0,0,0,11.76-4.62L74,176s.87-3.12-2.67-5.2c-2.74-1.6-10.32-7-10.32-7Z"/><path class="cls-20" d="M70.78,160.34s31,4.12,39.59-5.74c0,0,.94-1.94-.36-2.86.19,1.82-14.56,9.76-37.93,4.74A2.54,2.54,0,0,0,70.78,160.34Z"/><circle class="cls-21" cx="96.52" cy="158.84" r="7.23"/><g class="cls-22"><path class="cls-23" d="M62.19,19s-3.1,3.76.83,6.27c1.38.88-4.07,5.12-4.07,5.12L56.74,42.75a16.48,16.48,0,0,1,4.75-1.15L71.46,53l-6.4,4L44.64,43.27,31.05,17,48.56,1.12,67.72-3.34,64.35,3.33s-8.13,5-5,8.55C57.38,13.25,57,18.61,62.19,19Z"/></g><path class="cls-24" d="M53.34,47.68S49.67,46,49.67,43,64,11.27,93.8,16.2c0,0,4.61,3.22,3,4.8,0,0,2.85,3.54.57,5.43S84.06,25.55,53.34,47.68Z"/><path class="cls-25" d="M55,41S74,17.71,94.46,20.75C94.46,20.75,75.43,21.77,55,41Z"/><path class="cls-26" d="M97.32,165a7.11,7.11,0,0,1-5.24-2c-1.4-1.56-1.8-3.83-1.17-6.74a1.33,1.33,0,0,1,2.6.56c-.44,2-.25,3.51.55,4.41,1.22,1.35,3.58,1.15,3.61,1.14a1.33,1.33,0,1,1,.27,2.65S97.68,165,97.32,165Z"/><path class="cls-27" d="M100.89,162.52l-.29,0a1.33,1.33,0,0,1-1-1.58c.45-2,.28-3.51-.52-4.41-1.2-1.37-3.58-1.17-3.61-1.17a1.33,1.33,0,0,1-.25-2.65c.15,0,3.73-.34,5.85,2,1.39,1.57,1.77,3.84,1.13,6.75A1.33,1.33,0,0,1,100.89,162.52Z"/><path class="cls-8" d="M90,56.72a1.33,1.33,0,0,1,0-2.66c1.31,0,5-1.1,7.55-2-.81-6.45-4.93-11.26-7.4-13.62A1.33,1.33,0,0,1,92,36.53c2.87,2.75,7.77,8.53,8.32,16.37l.07,1-.95.34C98.69,54.5,92.41,56.72,90,56.72Z"/><path class="cls-8" d="M176.63,102.72a3.66,3.66,0,0,1-.65-.06,1.33,1.33,0,0,1-1.08-1.54,1.35,1.35,0,0,1,1.55-1.08c1,.18,2.25-1.17,2.71-1.84a1.33,1.33,0,0,1,2.2,1.5C181.13,100,179.22,102.72,176.63,102.72Z"/><path class="cls-8" d="M186.2,107.49a.8.8,0,0,1-.3-.06.88.88,0,0,1-.53-1.13c.63-1.72-1.46-4.65-2.24-5.55a.89.89,0,0,1,1.34-1.16c.38.43,3.66,4.32,2.57,7.32A.9.9,0,0,1,186.2,107.49Z"/></g></svg>