<svg id="Camada_1" data-name="Camada 1" xmlns="http://www.w3.org/2000/svg" xmlns:xlink="http://www.w3.org/1999/xlink" viewBox="0 0 881 249.76"><defs><style>.cls-1{fill:none;}.cls-2{fill:#65c4d1;}.cls-3{fill:#f9f9f9;}.cls-4{fill:#97d8dd;}.cls-5{clip-path:url(#clip-path);}.cls-6{fill:#eaa000;}.cls-7{fill:#eac2a7;}.cls-8{fill:#c9a68f;}.cls-9{fill:#d6aa8b;}.cls-10{fill:#d6d6d6;}.cls-11{fill:#c99f4b;}.cls-12{fill:#6d5f56;}.cls-13{fill:#493e38;}.cls-14{clip-path:url(#clip-path-2);}.cls-15{fill:#fcfcfc;}.cls-16{fill:#d32222;}.cls-17{fill:#f4f4f4;}.cls-18{clip-path:url(#clip-path-3);}.cls-19{fill:#b7b7b7;}.cls-20{fill:#6d472e;}.cls-21{fill:#c99e32;}.cls-22{clip-path:url(#clip-path-4);}.cls-23{fill:#aa7e30;}.cls-24{fill:#fff;}.cls-25{fill:#ddd;}.cls-26{fill:#846829;}.cls-27{fill:#e8cd95;}</style><clipPath id="clip-path"><path class="cls-1" d="M239,116.46C239,46.35,158.5,0,86,0S9.27,49.28,9.27,119.4s26.06,124,98.53,124S239,186.58,239,116.46Z"/></clipPath><clipPath id="clip-path-2"><path class="cls-1" d="M94.58,66.38c-.23-.24,14.13.9,19.61-3.13,0,0,1.08,10.92-3.82,12.12S99.52,74.58,94.58,66.38Z"/></clipPath><clipPath id="clip-path-3"><path class="cls-1" d="M102.71,228.09c3.33,6.62,26.79,8,28.73,8.63,0,0,.61-26.56-3.13-41.48S102.71,228.09,102.71,228.09Z"/></clipPath><clipPath id="clip-path-4"><path class="cls-1" d="M74.19,63.47c4.13,1.71.57-5.71.57-5.71s-.39-7.43-2.5-8.69a30.8,30.8,0,0,1-4.59-3.75l10.57-7.25,28.89-19.8s4-5.57-5.13-9A10.87,10.87,0,0,0,90.94,6s-4-4.77-9.76-.39c0,0-11.62-.68-14.26,5a4.33,4.33,0,0,0-4.28,2.42S60.22,14,59.75,16c0,0-5.88,2.32-6.24,6.24,0,0-3.21,4.49-.64,8.13,0,0-1.69,3.19.5,5.38,0,0-4.92,5.38,0,8.73,0,0-1.21,3.5,6,4.92l2.14,4.42s2.06-.93,8,5Z"/></clipPath></defs><title>9-intro</title><path class="cls-2" d="M871,195.33H152V108H871a10,10,0,0,1,10,10v67.36A10,10,0,0,1,871,195.33Z"/><circle class="cls-3" cx="106" cy="143.76" r="103"/><path class="cls-2" d="M106,43.76a100,100,0,1,1-100,100,100,100,0,0,1,100-100m0-6a106,106,0,1,0,106,106,106.12,106.12,0,0,0-106-106Z"/><path class="cls-4" d="M105.74,43.94a99.74,99.74,0,1,0,99.74,99.74A99.73,99.73,0,0,0,105.74,43.94Zm0,192.83a93.09,93.09,0,1,1,93.09-93.09A93.09,93.09,0,0,1,105.74,236.77Z"/><path class="cls-4" d="M152.81,71.23a3.27,3.27,0,0,0-2.51-.47,3.35,3.35,0,0,0-2.1,1.44l-5.43,8.36a3.32,3.32,0,0,0,1,4.65,42.72,42.72,0,0,1,3.73,2.66c.75.57,1.5,1.14,2.08,1.55,1,.85,2,1.75,3,2.65l-2.3,2.3a66.28,66.28,0,0,0-14.57-10l6.8-15.25a3.32,3.32,0,0,0-1.69-4.4,86.89,86.89,0,0,0-30.63-7.29,3.3,3.3,0,0,0-3.49,3.15l-.52,10a3.33,3.33,0,0,0,3.14,3.49l3.5.17,3.73.57,1.44.22c.72.11,1.44.21,2.07.35l.45.12-.87,3.25a68,68,0,0,0-17.61-1.42l-1.72-16.64a3.31,3.31,0,0,0-3.66-3,85.73,85.73,0,0,0-30.2,9,3.32,3.32,0,0,0-1.45,4.47l4.54,8.88A3.31,3.31,0,0,0,74,81.57c.67-.31,1.33-.63,2-1a34.31,34.31,0,0,1,4.75-2l.85-.32c1-.37,2-.73,2.93-1l.86,3.22c-.82.28-1.61.57-2.4.86l-.79.3a31.13,31.13,0,0,0-4.72,2l-2,1L69.8,87.8l-.38.21L59.61,74.54a3.35,3.35,0,0,0-2.17-1.33,3.3,3.3,0,0,0-2.47.6,86.67,86.67,0,0,0-21.69,22.8,3.33,3.33,0,0,0,1,4.6l8.36,5.44a3.31,3.31,0,0,0,4.65-1.06q1.23-1.92,2.65-3.72c.58-.75,1.15-1.5,1.56-2.09.85-1,1.75-2,2.65-3l2.3,2.3a66.28,66.28,0,0,0-10,14.57l-15.25-6.8a3.34,3.34,0,0,0-4.4,1.69,86.94,86.94,0,0,0-7.29,30.64,3.34,3.34,0,0,0,3.15,3.49l10,.51A3.3,3.3,0,0,0,36.11,140l.18-3.5.56-3.72c.09-.48.16-1,.22-1.45.11-.72.21-1.44.35-2.06l.12-.46,3.25.87a67.61,67.61,0,0,0-1.42,17.61l-16.64,1.73a3.33,3.33,0,0,0-3,3.65,86.8,86.8,0,0,0,9,30.21,3.31,3.31,0,0,0,4.47,1.44l8.88-4.53a3.32,3.32,0,0,0,1.51-4.36c-.31-.66-.63-1.31-1-2a34.73,34.73,0,0,1-2-4.78l-.33-.88c-.37-1-.72-2-1-2.9l3.26-.87A65.71,65.71,0,0,0,50.11,180L36.6,189.8a3.32,3.32,0,0,0-.73,4.65,86.47,86.47,0,0,0,22.8,21.68,3.32,3.32,0,0,0,4.6-1l5.44-8.36a3.32,3.32,0,0,0-1.06-4.66c-1.28-.82-2.53-1.7-3.73-2.65-.74-.58-1.49-1.15-2.08-1.56-1-.85-2-1.74-3-2.65l2.35-2.35c.89.81,1.81,1.63,2.92,2.54.64.46,1.27.94,1.9,1.43a38,38,0,0,0,3.71,2.6l5.93,3.41.08,0-6.81,15.27a3.29,3.29,0,0,0-.07,2.54,3.34,3.34,0,0,0,1.75,1.85,86.78,86.78,0,0,0,30.64,7.29h.17a3.33,3.33,0,0,0,3.32-3.15l.51-10a3.31,3.31,0,0,0-3.14-3.49l-3.49-.18-3.73-.57-1.44-.22c-.72-.1-1.44-.2-2.07-.35l-.46-.12.88-3.25a67.57,67.57,0,0,0,17.6,1.42l1.73,16.64a3.31,3.31,0,0,0,3.65,3,85.57,85.57,0,0,0,30.21-9,3.32,3.32,0,0,0,1.45-4.47l-4.54-8.88a3.32,3.32,0,0,0-4.35-1.51c-.67.31-1.33.64-2,1a34.31,34.31,0,0,1-4.75,2l-.85.32c-1,.37-2,.73-2.93,1.05l-.88-3.25A65.63,65.63,0,0,0,142,199.3l9.83,13.51a3.32,3.32,0,0,0,4.64.73,86.43,86.43,0,0,0,21.68-22.79,3.37,3.37,0,0,0,.47-2.51,3.32,3.32,0,0,0-1.44-2.1l-8.36-5.44a3.32,3.32,0,0,0-2.55-.45,3.28,3.28,0,0,0-2.1,1.51,42.46,42.46,0,0,1-2.65,3.72c-.58.75-1.15,1.51-1.56,2.09-.85,1-1.75,2-2.66,3l-2.29-2.3a66.28,66.28,0,0,0,10-14.57l15.25,6.8a3.33,3.33,0,0,0,4.39-1.69,86.91,86.91,0,0,0,7.3-30.64,3.32,3.32,0,0,0-3.15-3.48l-10-.52a3.35,3.35,0,0,0-3.49,3.14l-.18,3.5-.57,3.73c-.08.48-.15,1-.22,1.44-.1.72-.2,1.44-.35,2.06l-.11.46-3.21-.86,0-.08a23.08,23.08,0,0,0,.41-2.35c.05-.37.1-.74.17-1.15l.51-3.27c0-.11,0-.22,0-.34l.17-3.48V140l16.7-1.73a3.33,3.33,0,0,0,3-3.66,86.8,86.8,0,0,0-9-30.21,3.32,3.32,0,0,0-4.47-1.44l-8.88,4.53a3.33,3.33,0,0,0-1.51,4.36c.31.66.63,1.31.95,2a34.09,34.09,0,0,1,2.05,4.77l.33.88c.37,1,.73,1.95,1,2.91l-3.25.87a66.08,66.08,0,0,0-7.59-15.91l13.5-9.83a3.33,3.33,0,0,0,.74-4.64A86.47,86.47,0,0,0,152.81,71.23Zm2,32.68a3.31,3.31,0,0,0-.73,4.64,59.27,59.27,0,0,1,9.37,19.65,3.34,3.34,0,0,0,4.07,2.35l9.64-2.57a3.33,3.33,0,0,0,2.39-3.91,48.49,48.49,0,0,0-2.17-6.87l-.26-.71a35,35,0,0,0-1.87-4.52l3-1.51A80.26,80.26,0,0,1,184.67,132l-16.46,1.71a3.34,3.34,0,0,0-3,3.48l.17,3.23v6.35l-.17,3.14-.47,3.05c-.07.43-.14.87-.2,1.31-.08.59-.16,1.18-.27,1.67l-.83,3.2a3.32,3.32,0,0,0,2.36,4l9.63,2.57a3.32,3.32,0,0,0,4.08-2.38l1-3.79c.2-.89.33-1.79.46-2.69.06-.43.12-.85.2-1.33l.62-4.11,0-.51,3.27.17a80.93,80.93,0,0,1-5.21,21.89l-15.11-6.74a3.36,3.36,0,0,0-2.55-.07,3.33,3.33,0,0,0-1.85,1.76,59.45,59.45,0,0,1-12.32,18,3.32,3.32,0,0,0,0,4.69l7.05,7.06a3.31,3.31,0,0,0,4.83-.15l1.8-2c1.16-1.25,2.31-2.5,3.53-4,.5-.71,1-1.41,1.57-2.1.37-.49.74-1,1.11-1.47l2.8,1.81a79.87,79.87,0,0,1-15.5,16.3l-9.75-13.39a3.31,3.31,0,0,0-4.64-.73,59.12,59.12,0,0,1-19.64,9.37,3.34,3.34,0,0,0-2.36,4.07l2.58,9.64a3.33,3.33,0,0,0,3.91,2.39,48.78,48.78,0,0,0,6.89-2.18l.69-.25a34.82,34.82,0,0,0,4.51-1.87l1.51,3a80.26,80.26,0,0,1-21.58,6.44l-1.71-16.46a3.28,3.28,0,0,0-1.19-2.24,3.35,3.35,0,0,0-2.44-.73,60.77,60.77,0,0,1-21.77-1.77,3.34,3.34,0,0,0-4.07,2.35l-2.58,9.64a3.32,3.32,0,0,0,.34,2.54,3.37,3.37,0,0,0,2,1.54l3.79,1c.89.21,1.8.34,2.7.47.42.06.85.12,1.32.21l4.11.61.51,0L98.25,223a80.77,80.77,0,0,1-21.88-5.21l6.73-15.11a3.32,3.32,0,0,0-1.59-4.35L78.75,197l-5.67-3.26a32,32,0,0,1-3-2.16c-.7-.54-1.41-1.08-1.92-1.43-1-.79-1.88-1.63-2.8-2.48-.68-.63-1.37-1.26-2.07-1.87a3.33,3.33,0,0,0-4.54.16l-7,7.05a3.33,3.33,0,0,0-1,2.44,3.36,3.36,0,0,0,1.12,2.39l1.95,1.78c1.27,1.16,2.53,2.31,4,3.55.71.5,1.4,1,2.1,1.56l1.48,1.12-1.82,2.8a79.82,79.82,0,0,1-16.29-15.5l13.38-9.74A3.28,3.28,0,0,0,58,181.28a3.33,3.33,0,0,0-.59-2.48A59.34,59.34,0,0,1,48,159.16a3.32,3.32,0,0,0-4.06-2.35l-9.64,2.57a3.33,3.33,0,0,0-2.39,3.91,48.45,48.45,0,0,0,2.16,6.87l.27.71a34.2,34.2,0,0,0,1.86,4.51l-3,1.51a80.51,80.51,0,0,1-6.44-21.58l16.46-1.71a3.33,3.33,0,0,0,3-3.63A61,61,0,0,1,48,128.2a3.33,3.33,0,0,0-2.35-4.08L36,121.55a3.29,3.29,0,0,0-2.53.34,3.35,3.35,0,0,0-1.55,2l-1,3.8c-.2.88-.34,1.78-.47,2.68-.06.43-.12.86-.2,1.33l-.61,4.11,0,.51-3.26-.17a80.54,80.54,0,0,1,5.2-21.89L46.71,121a3.31,3.31,0,0,0,4.39-1.69,59.74,59.74,0,0,1,12.33-18,3.33,3.33,0,0,0,0-4.7l-7.05-7a3.34,3.34,0,0,0-4.84.14c-.59.67-1.19,1.32-1.8,2-1.15,1.25-2.3,2.51-3.52,4-.51.71-1,1.41-1.57,2.11-.37.48-.75,1-1.12,1.47l-2.79-1.82a79.87,79.87,0,0,1,15.5-16.3L66,94.58a3.33,3.33,0,0,0,4.65.73l.77-.58A12.07,12.07,0,0,1,73,93.61l5.44-3.15c.64-.29,1.28-.6,1.91-.91a26.19,26.19,0,0,1,3.89-1.67l1-.37A34.11,34.11,0,0,1,90.07,86a3.36,3.36,0,0,0,2.16-1.51,3.32,3.32,0,0,0,.38-2.61L90,72.24a3.33,3.33,0,0,0-3.91-2.39A49.15,49.15,0,0,0,79.23,72l-.69.26A34.64,34.64,0,0,0,74,74.14l-1.52-3a80.69,80.69,0,0,1,21.59-6.44l1.7,16.46a3.31,3.31,0,0,0,3.63,3,61.2,61.2,0,0,1,21.77,1.77,3.34,3.34,0,0,0,2.53-.33,3.3,3.3,0,0,0,1.54-2L127.86,74a3.3,3.3,0,0,0-.34-2.53,3.35,3.35,0,0,0-2-1.55l-3.78-1c-.9-.2-1.8-.34-2.71-.47l-1.32-.2-4.1-.61-.52,0,.17-3.26a80.45,80.45,0,0,1,21.89,5.2l-6.74,15.12a3.32,3.32,0,0,0,1.7,4.39,59.74,59.74,0,0,1,18,12.33,3.33,3.33,0,0,0,4.7,0l7.05-7a3.34,3.34,0,0,0-.14-4.84c-.66-.58-1.31-1.17-2-1.77-1.26-1.16-2.52-2.32-4-3.55-.71-.51-1.4-1-2.09-1.57l-1.48-1.12,1.81-2.79a79.61,79.61,0,0,1,16.3,15.5Z"/><path class="cls-4" d="M105.74,90.48a53.09,53.09,0,0,0-45.87,80l.2.34A53.59,53.59,0,0,0,73.63,186c.09.06.14.15.23.2l.07,0a52.79,52.79,0,0,0,63.6,0l.09,0c.09-.05.14-.14.22-.2a53.29,53.29,0,0,0,13.56-15.17,3.13,3.13,0,0,0,.21-.34,53.09,53.09,0,0,0-45.87-80Zm-6,7.09-36.9,64.17a46.49,46.49,0,0,1,36.9-64.17ZM79.9,182.36l25.84-44.92,25.84,44.92a46.4,46.4,0,0,1-51.68,0Zm56.95-4.17-26.79-46.57a5,5,0,0,0-8.65,0L74.62,178.19a46.7,46.7,0,0,1-8.09-9.53l39.21-68.19,7.6,13.19.15.29,31.45,54.71a46.7,46.7,0,0,1-8.09,9.53Zm11.78-16.45L119.41,110.9c0-.1-.1-.2-.15-.3l-7.52-13a46.5,46.5,0,0,1,36.89,64.17Z"/><g class="cls-5"><path class="cls-6" d="M86,3.76A6.87,6.87,0,0,1,90.94,6a12.15,12.15,0,0,1,3-.39A10.88,10.88,0,0,1,102,9.28c8.87,3.33,5.34,8.67,5.14,9l.1,0s5.2,3.63,3.42,5.41c0,0,3.21,4,.64,6.13a2.88,2.88,0,0,1-.93.47c7.3,11.36,11.64,31.41,8.77,48-.57,3.27-4.31,5.63-14.39,5.63h0A53.37,53.37,0,0,1,95,83c.1.77.2,1.61.32,2.45h0c.5,3.6,1.24,7.69,2,8.29,5.15,3.87,12.81,5.46,17.12,6.09l6.25.58a15.16,15.16,0,0,1,3.24,4.76h0L160.38,139l28.75-24.31s1.91-7.5,12.55-7.5a27.32,27.32,0,0,1,4.38.37c14.52,2.35-1.31,4.07-1.31,4.07s1.64-.14,4.06-.14c3.64,0,9,.31,13.26,1.85l2.19,2.67-5,5s-11.59,1.6-18.22,1.6c-2.11,0-3.71-.16-4.29-.59a.5.5,0,0,0-.26-.07c-3.95,0-36.43,30.63-36.43,30.63l-33.44-27c.5,6.63.85,13.72.78,20.28a210,210,0,0,1-1.86,25.31c1.47,1,.41,3.23.41,3.23l2.73,21.72c0,.16,0,.32,0,.48,3.4,15.11,2.82,40.16,2.82,40.16-.35-.11-1.39-.24-2.87-.43l0,1.82h0c-.07,12.66,0,30.95.72,35.12,1.17,6.52,0,9.73,0,9.73s3.21,50.76,3.21,51.15,4.49,6.17,4.49,6.17,5.94,4.68,10.56,8.38h0a13.52,13.52,0,0,1,3.87,1.64,3.82,3.82,0,0,1,1.17,2.43c.3.21.81.55,1.4,1a14.91,14.91,0,0,0,4,.75c.64.64,0,1.33-.83,1.88.47.5.74.93.67,1.21-.31,1.11-4.61,5.64-12.38,5.64-.44,0-.89,0-1.35-.05-8.16-.53-19.48-9.23-20.41-11.65a7.21,7.21,0,0,1,.12-4.89c0-2.06,1.25-4.54,1.94-5.77,1.07-1.93,1.82-7.38,1.82-7.38-11.77-41.28-5-47.09-6.31-50.09-.82-1.9-8.09-28.93-13.28-48.37h0v-.06c-.31-1.13-.6-2.24-.89-3.31a14.37,14.37,0,0,1-2.68-1.59,84.58,84.58,0,0,1-14.12,5.59l-15.51,38.9S72.1,284.3,69,287.45A139.19,139.19,0,0,1,61.14,310c-5.35,12-7.7,28.44-7.7,28.44s3.83,9.73,4.28,15.81c4.51,6.17,8.56,13.78,3.19,16a31,31,0,0,1-11.68,2.05c-6.47,0-12.27-1.52-13.62-2.87-2.17-2.17,4-18.64,4-18.64.19-1.5.61-2.94,1.48-3.55a26.67,26.67,0,0,0,4.71-5.14s-.81-2.14,1.44-5,5.56-21.41,5.56-23.83-3-20.54,7-27.67c0,0,1.14-23.15,4.07-39.9h0c.31-1.9.66-3.72,1-5.41-3.06.26-4.9.29-4.9.29s3-8.26,6.75-18.89c-3.23-.31-1.11-5.32-1.11-5.32a26.26,26.26,0,0,0,3.8-2.23c.41-1.15.82-2.32,1.23-3.48-1.06-2.64,1.6-10.83,1.6-10.83l-9.8-7.39L34,171s22.88-54,23.81-54.9c.6-.6,5-3.19,8.07-5,3.19-3.19,10-5.71,10-5.71s6.52-7.38,7.91-8.77.75-5.24.75-5.24L81,77.7c-6.31-4-8.8-8.38-8.8-8.38a3.17,3.17,0,0,1-2.32.93,8.15,8.15,0,0,1-4.16-1.58s-9.06-9.05-6.21-13.33a2.68,2.68,0,0,1,2.35-1.29c1.87,0,4.09,1.53,5.65,2.85-3.21-2.8-4.93-3.18-5.62-3.18h-.22l0,0,0,0-.06,0,0-.07c-.68-.33-3.71-2-4-4.82-5.12-1.6-4.13-4.45-4.13-4.45-4.92-3.35,0-8.73,0-8.73-2.19-2.19-.5-5.38-.5-5.38-2.57-3.64.64-8.13.64-8.13.36-3.92,6.24-6.24,6.24-6.24.47-2,2.89-2.89,2.89-2.89a4.29,4.29,0,0,1,4-2.44,2.22,2.22,0,0,1,.33,0C69.05,6,77.05,5.59,80,5.59c.71,0,1.14,0,1.14,0A8,8,0,0,1,86,3.76M78,190c1.28-3.65,2.39-6.85,3.22-9.29a2.79,2.79,0,0,1,1.38-4.13l.17-.57c1.28-4.71-10.81-27.79-10.81-27.79l-10.2-6.4-14.31,26.9,22.88,15.93L78,190m74.27,162.55h0M86,0h0a11.09,11.09,0,0,0-6,1.83h0c-4.35,0-11.64.73-15.29,5.23A7.88,7.88,0,0,0,60,10.18a8.75,8.75,0,0,0-3.1,3c-2.2,1.14-6,3.65-7,7.66-1.38,2.32-2.63,6.16-1.16,9.81a8.49,8.49,0,0,0,.13,4.9,10.09,10.09,0,0,0-1.43,6.11,7.92,7.92,0,0,0,2.16,4.56,6.62,6.62,0,0,0,.6,1.73,8.51,8.51,0,0,0,4.15,3.79,9.12,9.12,0,0,0,1.51,2.38c-1.5,3.06-.66,7,2.53,11.65a42.67,42.67,0,0,0,4.62,5.6l.18.19.21.15A11.68,11.68,0,0,0,69.87,74a8.93,8.93,0,0,0,1-.07A33.7,33.7,0,0,0,77.72,80l3.16,12.13a8.26,8.26,0,0,1,0,2.11c-1.51,1.57-5.59,6.16-7.2,8-2.09.84-7,3-10.1,5.86-7.42,4.28-8,4.88-8.46,5.32-.72.72-1.09,1.09-13.05,29-5.77,13.46-11.51,27-11.56,27.12l-1.15,2.7L31.71,174,60.2,195.47l7.71,5.82c-.79,2.89-1.5,6.47-1.15,9.14l-.46,1.32A23.4,23.4,0,0,1,64,213l-1.3.62-.56,1.32c-.47,1.1-1.87,4.95-.13,7.87.07.11.13.21.21.32-3.32,9.3-5.8,16.21-5.8,16.21l-1.83,5.13,5.44-.1h.21l-.12.75v0c-2.5,14.35-3.69,32.93-4,38.61-8.89,7.93-7.61,23.14-7.17,28.31,0,.47.09,1.06.09,1.23-.06,2.7-3.25,19.07-4.8,21.56a10.19,10.19,0,0,0-2.35,6.23,18,18,0,0,1-3,3.12c-1.59,1.11-2.57,3-3,5.7-.42,1.16-1.67,4.66-2.75,8.39-2.34,8.06-2.4,11.68-.24,13.84,2.73,2.73,10.35,4,16.28,4a34.58,34.58,0,0,0,13.13-2.34,7.54,7.54,0,0,0,4.56-5c1.09-3.92-.67-9-5.56-15.86-.64-5.35-3.1-12.3-4-14.83.58-3.6,2.91-16.76,7.26-26.51a144.3,144.3,0,0,0,7.81-22.31c3.15-3.93,5.38-11.49,6-13.53l14.77-37a89.94,89.94,0,0,0,10.84-4.24l.39,1.46v0c10.92,40.92,12.81,47.17,13.31,48.54,0,.3-.12.84-.2,1.28-.81,4.86-2.7,16.19,6.27,47.94a25.69,25.69,0,0,1-1.27,5.3,17.1,17.1,0,0,0-2.38,6.9,10.82,10.82,0,0,0,.1,6.93c1.22,3.2,7.18,7.2,9,8.36,3.08,2,9.08,5.34,14.71,5.7q.79.06,1.59.06c9.13,0,15.18-5.4,16-8.42a3.84,3.84,0,0,0,.12-1.58,4.31,4.31,0,0,0,.42-1.49,4.57,4.57,0,0,0-1.34-3.66l-1-1-1.46-.06a13.24,13.24,0,0,1-2.29-.34,6.93,6.93,0,0,0-2-2.94,13.88,13.88,0,0,0-4.52-2.17c-3.82-3.05-8.34-6.62-9.64-7.64-1.32-1.71-2.79-3.66-3.48-4.64-.17-2.83-.79-12.92-3.11-49.61.4-1.61.92-5.18-.09-10.8-.24-1.33-.77-7.06-.68-31.63l2.79.88.12-5c0-1,.53-25.1-2.79-40.51h0l0-.34,0-.34-2.62-20.83a6.62,6.62,0,0,0-.31-4.67,218.74,218.74,0,0,0,1.68-24.25c0-3.65,0-7.63-.26-12l26.8,21.67,2.55,2.07,2.39-2.25C175.94,142.76,192,128.59,196.51,126a18.93,18.93,0,0,0,4.51.41,177.65,177.65,0,0,0,18.73-1.64l1.25-.17.9-.9,5-5,2.41-2.41-2.16-2.63L225,110.92l-.65-.79-1-.36a34.56,34.56,0,0,0-7.66-1.69c-.41-1.12-1.42-2.27-3.61-3a34.18,34.18,0,0,0-5.43-1.22,31.38,31.38,0,0,0-5-.42c-10.62,0-14.51,6.23-15.72,9L160.5,134l-33.45-31a18.62,18.62,0,0,0-3.69-5.17l-1-1-1.35-.12-6.14-.57c-3.67-.54-10.23-1.88-14.71-4.93a30.6,30.6,0,0,1-.8-3.78c1.75.16,3.53.23,5.34.24,4.11,0,16.59,0,18.11-8.75C125.51,63.53,122.3,44,115.17,31c1.46-2.41,1-5.39-.39-7.9a5,5,0,0,0,0-.77c-.18-2.08-1.64-3.95-3.16-5.36a8.23,8.23,0,0,0-.23-4c-.92-2.91-3.34-5.21-7.2-6.83A14.52,14.52,0,0,0,93.92,1.85,15.11,15.11,0,0,0,92,2a10.34,10.34,0,0,0-6-2ZM52.32,167.51l10.84-20.39,5.92,3.71c.9,1.77,3,5.94,5.06,10.45,3.77,8.31,4.67,11.84,4.88,13.19A6.52,6.52,0,0,0,77.36,177a6.41,6.41,0,0,0-.14,3.72c-.34,1-.73,2.11-1.16,3.34l-3.61-2.51-20.13-14Zm83.91,166.6Z"/><path class="cls-7" d="M124,105.16,160.38,139l28.75-24.31s2.42-9.48,16.93-7.13-1.31,4.07-1.31,4.07,10.26-.86,17.32,1.71l2.19,2.67-5,5s-20.11,2.78-22.51,1S160,152.58,160,152.58l-33.44-27-6.56-5.6Z"/><path class="cls-7" d="M80.5,75.8l4.06,15.62s.65,3.85-.75,5.24-7.91,8.77-7.91,8.77l-3.64,7.16,21.07,12,25.14-6.74-.75-17.64s-12.87-.82-20.38-6.46c-1.47-1.1-2.72-14-2.72-14Z"/><path class="cls-8" d="M95.31,85.44c-.4-2.88-.72-5.78-.72-5.78l-14.12-4,1.13,4.35s4.42,2.88,5.8,3.48A26.92,26.92,0,0,0,95.31,85.44Z"/><path class="cls-7" d="M68.79,109.47s-10.07,5.69-11,6.62S34,171,34,171l28.48,21.48,9.8,7.39s-3.1,9.52-1.28,11.34-5.35,5.2-5.35,5.2-2.78,6.56,2.86,5.14a84.56,84.56,0,0,0,13.26-5.21l3.78-21.1L70.31,184.62,47.43,168.69l14.31-26.9,10.2,6.4L84.46,139l-9-22.38-3.85-8.42Z"/><path class="cls-7" d="M72.19,69.32s8.17,14.53,32.55,14.54c10.09,0,13.83-2.36,14.4-5.63,3.58-20.58-4-46.6-14.58-54.55-9.25-7-42.06,19.4-42.06,19.4l7,15.68s-7.13-7.7-10-3.42,6.21,13.33,6.21,13.33S69.77,71.74,72.19,69.32Z"/><path class="cls-7" d="M95.36,222.84l-20.6,51.67S72.1,284.3,69,287.45A139.19,139.19,0,0,1,61.14,310c-5.35,12-7.7,28.44-7.7,28.44s4.87,12.36,4.28,17.92c0,0,4.65,6.41,2.78,10.1s-9.2,1.5-9.2,1.5-12.24,1.6-14.06-1.44,2.3-11.23,2.3-11.23-.59-6.53,1.55-8a26.67,26.67,0,0,0,4.71-5.14s-.81-2.14,1.44-5,5.56-21.41,5.56-23.83-3-20.54,7-27.67c0,0,2.42-49.19,9.27-56s26.3-10.91,26.3-10.91Z"/><path class="cls-9" d="M95.36,222.84l-6.58,16.52s-9.12,4.07-11.42,4.63c-1.71.43-13.92,4.2-13.5,1.74,1.28-7.69,3-14,5.2-16.14,6.84-6.84,26.3-10.91,26.3-10.91Z"/><path class="cls-7" d="M102.71,215.19s17.25,65.17,18.54,68.16-5.46,8.81,6.31,50.09c0,0-.75,5.45-1.82,7.38s-3.53,6.84-.43,8.55,13.15,10.27,17.43,11,12.3-3,12.3-3,4.28-1.6,2.94-2.94c0,0-3.9-.16-5.18-1.44S137,340.28,137,340.28s-4.49-5.77-4.49-6.17S129.27,283,129.27,283s1.17-3.21,0-9.73-.61-47.63-.61-47.63Z"/><path class="cls-9" d="M102.71,215.19,108,235c.47,1.74,20.58,3.13,20.58,3.13l.11-12.51Z"/><path class="cls-10" d="M102.71,228.09c3.33,6.62,26.79,8,28.73,8.63,0,0,.61-26.56-3.13-41.48S102.71,228.09,102.71,228.09Z"/><path class="cls-11" d="M74.19,63.47c4.13,1.71.57-5.71.57-5.71s-.39-7.43-2.5-8.69a30.8,30.8,0,0,1-4.59-3.75l39.46-27s4-5.57-5.13-9A10.87,10.87,0,0,0,90.94,6s-4-4.77-9.76-.39c0,0-11.62-.68-14.26,5a4.33,4.33,0,0,0-4.28,2.42S60.22,14,59.75,16c0,0-5.88,2.32-6.24,6.24,0,0-3.21,4.49-.64,8.13,0,0-1.69,3.19.5,5.38,0,0-4.92,5.38,0,8.73,0,0-1.21,3.5,6,4.92l2.14,4.42s2.06-.93,8,5Z"/><ellipse class="cls-12" cx="91.89" cy="49.05" rx="1.92" ry="2.62" transform="translate(-9.18 23.87) rotate(-14.1)"/><path class="cls-12" d="M89.42,47.72h-.07a1.49,1.49,0,0,1-1.43-1.55c0-.39.23-3.79,2.71-5.13,1.6-.86,3.6-.59,5.94.8A1.5,1.5,0,0,1,95,44.41c-1.32-.79-2.38-1-3-.74-.78.42-1.11,1.95-1.14,2.62A1.51,1.51,0,0,1,89.42,47.72Z"/><ellipse class="cls-12" cx="109.31" cy="44.82" rx="1.92" ry="2.62" transform="translate(-7.63 27.99) rotate(-14.1)"/><path class="cls-12" d="M107.27,43.26a1.44,1.44,0,0,1-.4-.06,1.49,1.49,0,0,1-1-1.83c.1-.37,1.07-3.64,3.78-4.39,1.76-.49,3.65.22,5.61,2.1a1.5,1.5,0,0,1-2.07,2.17c-1.11-1.07-2.09-1.56-2.73-1.38-.86.23-1.52,1.65-1.7,2.3A1.51,1.51,0,0,1,107.27,43.26Z"/><path class="cls-13" d="M94.58,66.38c-.23-.24,14.13.9,19.61-3.13,0,0,1.08,10.92-3.82,12.12S99.52,74.58,94.58,66.38Z"/><g class="cls-14"><path class="cls-15" d="M93.64,68.1s13.44,3.84,19.41-2.14l-.75-2.71L92.61,64.57Z"/><path class="cls-16" d="M96,73s4.31-4.17,11.19-1.39,0,7.81,0,7.81Z"/></g><path class="cls-8" d="M107.42,76.77c-8.18,0-13.65-9.79-13.72-9.91l-.86-1.57,1.79.09c.13,0,13.27.65,19-3a1,1,0,0,1,1.38.31,1,1,0,0,1-.31,1.38c-5,3.13-14.29,3.4-18.3,3.34C98.55,70.55,104,77,111.06,74a1,1,0,0,1,.79,1.84A11,11,0,0,1,107.42,76.77Z"/><path class="cls-8" d="M69.16,67.68S69,58.32,61.73,56.07"/><path class="cls-8" d="M61.74,141.79s6.17-8.26,5.36-7c-4.52,7,11.55,15.06,15.32,10.75a9.63,9.63,0,0,1-10.48,2.66Z"/><path class="cls-17" d="M75.9,105.43s-6.85,2.52-10,5.71c0,0,19.2,27.85,6.08,37.05,0,0,12.09,23.08,10.81,27.79S60,240.61,60,240.61s66.31-1.18,68.67-44.53l-3.14-25a210,210,0,0,0,1.86-25.31c.13-12.18-1.2-26.17-2.18-35.73a15.47,15.47,0,0,0-4.49-9.69l-6.25-.58s4.93,16.52-6.48,18.08C101.84,118.74,87,120.73,75.9,105.43Z"/><g class="cls-18"><path class="cls-19" d="M62.46,242.23s66.31-1.18,68.67-44.53Z"/></g><path class="cls-17" d="M75.9,105.43s-6.85,2.52-10,5.71c0,0,19.2,27.85,6.08,37.05,0,0,12.09,23.08,10.81,27.79S60,240.61,60,240.61s66.31-1.18,68.67-44.53l-3.14-25a210,210,0,0,0,1.86-25.31c.13-12.18-1.2-26.17-2.18-35.73a15.47,15.47,0,0,0-4.49-9.69l-6.25-.58s4.93,16.52-6.48,18.08C101.84,118.74,87,120.73,75.9,105.43Z"/><path class="cls-7" d="M62.46,192.47l9.8,7.39s-3.1,9.52-1.28,11.34-5.35,5.2-5.35,5.2-2.78,6.56,2.86,5.14a84.56,84.56,0,0,0,13.26-5.21l3.2-17.9s1-3.51-3-5.86c-3.09-1.81-11.63-7.95-11.63-7.95Z"/><path class="cls-20" d="M81.27,180.82s35,4.66,44.66-6.46c0,0,1.06-2.2-.41-3.23.21,2.05-16.42,11-42.77,5.35A2.86,2.86,0,0,0,81.27,180.82Z"/><circle class="cls-21" cx="110.31" cy="179.14" r="8.15"/><g class="cls-22"><path class="cls-23" d="M71.59,21.4s-3.5,4.25.94,7.08c1.56,1-4.6,5.77-4.6,5.77l-2.48,14a18.62,18.62,0,0,1,5.35-1.29L82.05,59.81l-7.22,4.51L51.8,48.8,36.47,19.19,56.22,1.26l21.61-5L74,3.76s-9.17,5.6-5.67,9.64C66.17,14.94,65.74,21,71.59,21.4Z"/></g><path class="cls-24" d="M61.61,53.77s-4.14-1.85-4.14-5.27,16.11-35.8,49.77-30.23c0,0,5.2,3.63,3.42,5.41,0,0,3.21,4,.64,6.13S96.26,28.81,61.61,53.77Z"/><path class="cls-25" d="M63.42,46.22S85,20,108,23.4C108,23.4,86.52,24.55,63.42,46.22Z"/><path class="cls-26" d="M111.21,186.05a8,8,0,0,1-5.91-2.3c-1.58-1.76-2-4.32-1.32-7.61a1.5,1.5,0,1,1,2.93.64c-.49,2.29-.28,4,.63,5,1.36,1.53,4,1.29,4.06,1.29a1.5,1.5,0,0,1,1.65,1.34,1.49,1.49,0,0,1-1.34,1.64A5.49,5.49,0,0,1,111.21,186.05Z"/><path class="cls-27" d="M115.24,183.29a1.84,1.84,0,0,1-.33,0,1.5,1.5,0,0,1-1.14-1.79c.51-2.28.31-3.95-.58-5-1.36-1.55-4-1.33-4.08-1.33a1.5,1.5,0,0,1-.28-3c.17,0,4.21-.38,6.59,2.31,1.58,1.77,2,4.34,1.28,7.62A1.49,1.49,0,0,1,115.24,183.29Z"/><path class="cls-8" d="M102.92,64a1.5,1.5,0,1,1,0-3c1.48,0,5.62-1.25,8.52-2.24-.92-7.27-5.57-12.7-8.35-15.36a1.5,1.5,0,1,1,2.07-2.17c3.24,3.1,8.77,9.61,9.38,18.46l.08,1.13-1.07.38C112.75,61.46,105.67,64,102.92,64Z"/><path class="cls-8" d="M200.66,115.85a3.78,3.78,0,0,1-.74-.07,1.5,1.5,0,0,1,.52-3c1.09.19,2.54-1.32,3.07-2.08a1.5,1.5,0,0,1,2.48,1.69C205.73,112.81,203.57,115.85,200.66,115.85Z"/><path class="cls-8" d="M211.45,121.22a1,1,0,0,1-.34-.06,1,1,0,0,1-.6-1.28c.71-1.93-1.64-5.25-2.52-6.25a1,1,0,1,1,1.5-1.32c.43.49,4.14,4.87,2.9,8.26A1,1,0,0,1,211.45,121.22Z"/></g><path class="cls-24" d="M245,129.29l-1.56.24,3.82,11.09.39,1.35h.07l.39-1.35,3.8-11.1-1.53-.23V127.8h5.38v1.49l-1.37.18-5.72,15.39h-2l-5.72-15.39-1.36-.18V127.8H245Z"/><path class="cls-24" d="M265,144.86c-.07-.34-.12-.65-.16-.93a7.34,7.34,0,0,1-.08-.82,5.79,5.79,0,0,1-1.67,1.43,4.77,4.77,0,0,1-5.15-.4,3.53,3.53,0,0,1-1-2.72,3.16,3.16,0,0,1,1.46-2.79,7.16,7.16,0,0,1,4-1h2.37v-1.47a2.29,2.29,0,0,0-.7-1.77,2.79,2.79,0,0,0-2-.65,4.82,4.82,0,0,0-1.53.23,2.9,2.9,0,0,0-1.07.6l-.24,1.34h-1.78v-2.46a6.8,6.8,0,0,1,2.09-1.11,8.49,8.49,0,0,1,2.67-.41,5.3,5.3,0,0,1,3.5,1.1,3.84,3.84,0,0,1,1.33,3.15v6.11c0,.16,0,.32,0,.48a3.83,3.83,0,0,0,0,.47l.94.12v1.48Zm-3.71-1.69a4.06,4.06,0,0,0,2.09-.55,3.33,3.33,0,0,0,1.36-1.32v-2.09H262.3a3.49,3.49,0,0,0-2.24.66,2,2,0,0,0-.83,1.59,1.55,1.55,0,0,0,.52,1.27A2.31,2.31,0,0,0,261.31,143.17Z"/><path class="cls-24" d="M269.51,143.38l1.91-.32V134l-1.91-.33v-1.49h4l.16,1.65a4.12,4.12,0,0,1,1.57-1.39,4.78,4.78,0,0,1,2.22-.49,3.94,3.94,0,0,1,2.18.58,3.55,3.55,0,0,1,1.36,1.76,4.68,4.68,0,0,1,1.59-1.71,4.14,4.14,0,0,1,2.29-.63,3.79,3.79,0,0,1,3.07,1.33,6.06,6.06,0,0,1,1.13,4v5.78l1.91.32v1.48h-6.14v-1.48l1.91-.32v-5.8a4.23,4.23,0,0,0-.65-2.66,2.33,2.33,0,0,0-1.91-.78,2.43,2.43,0,0,0-1.94.85,3.71,3.71,0,0,0-.85,2.14v6.25l1.91.32v1.48h-6.13v-1.48l1.91-.32v-5.8a4.17,4.17,0,0,0-.66-2.61,2.31,2.31,0,0,0-1.91-.83,3.18,3.18,0,0,0-1.74.44,2.75,2.75,0,0,0-1,1.21v7.59l1.91.32v1.48h-6.13Z"/><path class="cls-24" d="M292.54,138.4a7,7,0,0,1,1.52-4.63,5.64,5.64,0,0,1,8.29,0,7,7,0,0,1,1.53,4.64v.26a7,7,0,0,1-1.52,4.64,5.66,5.66,0,0,1-8.3,0,7,7,0,0,1-1.52-4.64Zm2.31.26a6,6,0,0,0,.85,3.33,3.06,3.06,0,0,0,5,0,6,6,0,0,0,.85-3.33v-.26a6,6,0,0,0-.85-3.31,3,3,0,0,0-5,0,6.07,6.07,0,0,0-.84,3.31Z"/><path class="cls-24" d="M315.69,136.17H314l-.38-1.53a3.16,3.16,0,0,0-1.06-.64,4,4,0,0,0-1.44-.24,2.67,2.67,0,0,0-1.83.54,1.68,1.68,0,0,0-.6,1.3,1.47,1.47,0,0,0,.53,1.19,5.47,5.47,0,0,0,2.14.77,9.21,9.21,0,0,1,3.58,1.4,2.82,2.82,0,0,1,1.17,2.37,3.27,3.27,0,0,1-1.37,2.73,5.68,5.68,0,0,1-3.56,1.05,8.93,8.93,0,0,1-2.59-.34,7,7,0,0,1-2.06-1v-2.9h1.74l.43,1.7a2.49,2.49,0,0,0,1.08.53,6,6,0,0,0,1.41.16,3.18,3.18,0,0,0,1.92-.5,1.51,1.51,0,0,0,.7-1.3,1.57,1.57,0,0,0-.58-1.26,5.58,5.58,0,0,0-2.2-.85A9.42,9.42,0,0,1,307.5,138a2.77,2.77,0,0,1-1.17-2.35,3.29,3.29,0,0,1,1.32-2.63,5.19,5.19,0,0,1,3.43-1.09,8.35,8.35,0,0,1,2.59.37,5.55,5.55,0,0,1,1.91,1Z"/><path class="cls-24" d="M328.54,133.67l-1.53.23,2.62,7.22.21.92h.07l.22-.92,2.53-7.22-1.53-.23v-1.49H336v1.49l-1,.17-4.25,11H329l-4.3-11-1-.17v-1.49h4.9Z"/><path class="cls-24" d="M343.22,145.11a5.34,5.34,0,0,1-4.21-1.77,6.64,6.64,0,0,1-1.57-4.57v-.52a6.46,6.46,0,0,1,1.62-4.5,5,5,0,0,1,3.81-1.8,4.81,4.81,0,0,1,3.87,1.54,6.15,6.15,0,0,1,1.32,4.13v1.44h-8.23l0,.06a4.92,4.92,0,0,0,.93,3,2.92,2.92,0,0,0,2.49,1.18,5.9,5.9,0,0,0,2.06-.33,4.7,4.7,0,0,0,1.53-.92l.9,1.5a5.59,5.59,0,0,1-1.8,1.11A7.21,7.21,0,0,1,343.22,145.11Zm-.35-11.35a2.52,2.52,0,0,0-2,1,4.64,4.64,0,0,0-1,2.46l0,.06h5.85V137a3.54,3.54,0,0,0-.72-2.27A2.61,2.61,0,0,0,342.87,133.76Z"/><path class="cls-24" d="M350.33,133.67v-1.49h4l.22,1.84a4.32,4.32,0,0,1,1.33-1.52,3.07,3.07,0,0,1,1.81-.55,3.6,3.6,0,0,1,.56,0,1.76,1.76,0,0,1,.44.09l-.31,2.14-1.31-.07a2.64,2.64,0,0,0-1.54.43,2.76,2.76,0,0,0-1,1.2v7.28l1.91.32v1.48h-6.13v-1.48l1.91-.32V134Z"/><path class="cls-24" d="M374.5,144.86c-.07-.34-.13-.65-.17-.93s-.06-.54-.08-.82a5.54,5.54,0,0,1-1.67,1.43,4.77,4.77,0,0,1-5.15-.4,3.53,3.53,0,0,1-1-2.72,3.16,3.16,0,0,1,1.46-2.79,7.13,7.13,0,0,1,4-1h2.38v-1.47a2.29,2.29,0,0,0-.7-1.77,2.79,2.79,0,0,0-2-.65,4.73,4.73,0,0,0-1.53.23,2.83,2.83,0,0,0-1.07.6l-.25,1.34H367v-2.46a7,7,0,0,1,2.1-1.11,8.49,8.49,0,0,1,2.67-.41,5.27,5.27,0,0,1,3.49,1.1,3.84,3.84,0,0,1,1.34,3.15v6.11c0,.16,0,.32,0,.48s0,.31,0,.47l.94.12v1.48Zm-3.72-1.69a4.07,4.07,0,0,0,2.1-.55,3.4,3.4,0,0,0,1.36-1.32v-2.09h-2.46a3.48,3.48,0,0,0-2.24.66,2,2,0,0,0-.83,1.59,1.55,1.55,0,0,0,.52,1.27A2.29,2.29,0,0,0,370.78,143.17Z"/><path class="cls-24" d="M379.46,138.76a8.35,8.35,0,0,1,1.33-4.94,4.28,4.28,0,0,1,3.69-1.87,4.4,4.4,0,0,1,2.1.47,4.06,4.06,0,0,1,1.51,1.35l.21-1.59h1.95V144.7a5.33,5.33,0,0,1-1.37,3.87A5.21,5.21,0,0,1,385,150a8.66,8.66,0,0,1-2-.25,7.74,7.74,0,0,1-1.87-.69l.6-1.79a6.27,6.27,0,0,0,1.52.56A7,7,0,0,0,385,148a2.78,2.78,0,0,0,2.27-.87,3.77,3.77,0,0,0,.72-2.47v-1.21a4.13,4.13,0,0,1-1.49,1.21,4.65,4.65,0,0,1-2,.41,4.43,4.43,0,0,1-3.67-1.69,6.93,6.93,0,0,1-1.33-4.42Zm2.3.24a5.26,5.26,0,0,0,.81,3.07,2.81,2.81,0,0,0,2.46,1.16,3.11,3.11,0,0,0,1.75-.47,3.63,3.63,0,0,0,1.16-1.34v-5.84a3.51,3.51,0,0,0-1.16-1.28,3,3,0,0,0-1.72-.48,2.71,2.71,0,0,0-2.48,1.38,7,7,0,0,0-.82,3.56Z"/><path class="cls-24" d="M393,138.4a7,7,0,0,1,1.52-4.63,5.64,5.64,0,0,1,8.29,0,7,7,0,0,1,1.53,4.64v.26a7,7,0,0,1-1.52,4.64,5.66,5.66,0,0,1-8.3,0,7,7,0,0,1-1.52-4.64Zm2.31.26a6,6,0,0,0,.85,3.33,3.06,3.06,0,0,0,5,0,6,6,0,0,0,.85-3.33v-.26a6,6,0,0,0-.85-3.31,3,3,0,0,0-5,0,6.07,6.07,0,0,0-.84,3.31Z"/><path class="cls-24" d="M406.49,133.67v-1.49h4l.23,1.84A4.32,4.32,0,0,1,412,132.5a3.05,3.05,0,0,1,1.81-.55,3.48,3.48,0,0,1,.55,0,1.76,1.76,0,0,1,.44.09l-.3,2.14-1.31-.07a2.61,2.61,0,0,0-1.54.43,2.76,2.76,0,0,0-1,1.2v7.28l1.91.32v1.48h-6.13v-1.48l1.91-.32V134Z"/><path class="cls-24" d="M424.69,144.86c-.07-.34-.12-.65-.16-.93s-.07-.54-.09-.82a5.54,5.54,0,0,1-1.67,1.43,4.22,4.22,0,0,1-2.13.57,4.3,4.3,0,0,1-3-1,3.56,3.56,0,0,1-1-2.72,3.16,3.16,0,0,1,1.46-2.79,7.13,7.13,0,0,1,4-1h2.38v-1.47a2.29,2.29,0,0,0-.7-1.77,2.79,2.79,0,0,0-2-.65,4.73,4.73,0,0,0-1.53.23,2.83,2.83,0,0,0-1.07.6l-.25,1.34h-1.78v-2.46a7,7,0,0,1,2.1-1.11,8.49,8.49,0,0,1,2.67-.41,5.27,5.27,0,0,1,3.49,1.1,3.81,3.81,0,0,1,1.34,3.15v6.11c0,.16,0,.32,0,.48a3.83,3.83,0,0,0,0,.47l.93.12v1.48ZM421,143.17a4.06,4.06,0,0,0,2.09-.55,3.33,3.33,0,0,0,1.36-1.32v-2.09H422a3.49,3.49,0,0,0-2.24.66,2,2,0,0,0-.83,1.59,1.55,1.55,0,0,0,.52,1.27A2.31,2.31,0,0,0,421,143.17Z"/><path class="cls-24" d="M443.87,144.86c-.07-.34-.12-.65-.16-.93a7.34,7.34,0,0,1-.08-.82,5.66,5.66,0,0,1-1.67,1.43,4.77,4.77,0,0,1-5.15-.4,3.53,3.53,0,0,1-1-2.72,3.15,3.15,0,0,1,1.45-2.79,7.16,7.16,0,0,1,4-1h2.38v-1.47a2.3,2.3,0,0,0-.71-1.77,2.78,2.78,0,0,0-2-.65,4.73,4.73,0,0,0-1.53.23,2.87,2.87,0,0,0-1.08.6l-.24,1.34h-1.78v-2.46a6.8,6.8,0,0,1,2.09-1.11,8.55,8.55,0,0,1,2.68-.41,5.29,5.29,0,0,1,3.49,1.1,3.84,3.84,0,0,1,1.33,3.15v6.11c0,.16,0,.32,0,.48a3.83,3.83,0,0,0,0,.47l.94.12v1.48Zm-3.71-1.69a4.12,4.12,0,0,0,2.1-.55,3.46,3.46,0,0,0,1.36-1.32v-2.09h-2.47a3.49,3.49,0,0,0-2.24.66,2,2,0,0,0-.83,1.59,1.58,1.58,0,0,0,.52,1.27A2.31,2.31,0,0,0,440.16,143.17Z"/><path class="cls-24" d="M454.78,133.67v-1.49h4L459,134a4.32,4.32,0,0,1,1.33-1.52,3.07,3.07,0,0,1,1.81-.55,3.69,3.69,0,0,1,.56,0,1.86,1.86,0,0,1,.44.09l-.31,2.14-1.31-.07a2.64,2.64,0,0,0-1.54.43,2.76,2.76,0,0,0-1,1.2v7.28l1.91.32v1.48h-6.13v-1.48l1.91-.32V134Z"/><path class="cls-24" d="M470.28,145.11a5.36,5.36,0,0,1-4.22-1.77,6.63,6.63,0,0,1-1.56-4.57v-.52a6.5,6.5,0,0,1,1.61-4.5,5,5,0,0,1,3.81-1.8,4.81,4.81,0,0,1,3.88,1.54,6.15,6.15,0,0,1,1.32,4.13v1.44h-8.23l0,.06a5.05,5.05,0,0,0,.93,3,2.94,2.94,0,0,0,2.5,1.18,5.84,5.84,0,0,0,2.05-.33,4.7,4.7,0,0,0,1.53-.92l.9,1.5a5.64,5.64,0,0,1-1.79,1.11A7.25,7.25,0,0,1,470.28,145.11Zm-.36-11.35a2.52,2.52,0,0,0-2,1,4.63,4.63,0,0,0-1,2.46l0,.06h5.85V137a3.49,3.49,0,0,0-.73-2.27A2.58,2.58,0,0,0,469.92,133.76Z"/><path class="cls-24" d="M477.07,128.07v-1.49h4.22v16.48l1.91.32v1.48h-6.13v-1.48l1.91-.32V128.4Z"/><path class="cls-24" d="M493.22,144.86c-.07-.34-.12-.65-.16-.93a7.34,7.34,0,0,1-.08-.82,5.79,5.79,0,0,1-1.67,1.43,4.79,4.79,0,0,1-5.16-.4,3.56,3.56,0,0,1-1-2.72,3.16,3.16,0,0,1,1.46-2.79,7.15,7.15,0,0,1,4-1H493v-1.47a2.29,2.29,0,0,0-.7-1.77,2.79,2.79,0,0,0-2-.65,4.82,4.82,0,0,0-1.53.23,2.9,2.9,0,0,0-1.07.6l-.24,1.34h-1.79v-2.46a7,7,0,0,1,2.1-1.11,8.49,8.49,0,0,1,2.67-.41,5.3,5.3,0,0,1,3.5,1.1,3.84,3.84,0,0,1,1.33,3.15v6.11c0,.16,0,.32,0,.48a3.83,3.83,0,0,0,0,.47l.93.12v1.48Zm-3.71-1.69a4.06,4.06,0,0,0,2.09-.55A3.33,3.33,0,0,0,493,141.3v-2.09H490.5a3.49,3.49,0,0,0-2.24.66,2,2,0,0,0-.83,1.59,1.55,1.55,0,0,0,.52,1.27A2.31,2.31,0,0,0,489.51,143.17Z"/><path class="cls-24" d="M503.86,143.3a3.06,3.06,0,0,0,2-.71,2.14,2.14,0,0,0,.88-1.74h2.07l0,.07a3.56,3.56,0,0,1-1.45,2.92,5.4,5.4,0,0,1-3.54,1.27,5.09,5.09,0,0,1-4.22-1.81,6.92,6.92,0,0,1-1.46-4.53v-.5a7,7,0,0,1,1.46-4.51,5.12,5.12,0,0,1,4.22-1.81,7,7,0,0,1,2.74.5,5.62,5.62,0,0,1,2,1.38l.1,2.82h-1.84l-.5-2a3.11,3.11,0,0,0-1.05-.64,4,4,0,0,0-1.46-.25,2.78,2.78,0,0,0-2.59,1.31,6.14,6.14,0,0,0-.78,3.2v.5a6.22,6.22,0,0,0,.77,3.24A2.79,2.79,0,0,0,503.86,143.3ZM504,145l-.14.61a2.33,2.33,0,0,1,1.26.6,1.88,1.88,0,0,1,.5,1.42,2.11,2.11,0,0,1-.92,1.8,4.53,4.53,0,0,1-2.65.66l-.08-1.27a2.76,2.76,0,0,0,1.35-.29.93.93,0,0,0,.51-.86.82.82,0,0,0-.42-.79,3.91,3.91,0,0,0-1.44-.3l.37-1.58Z"/><path class="cls-24" d="M519.38,144.86c-.07-.34-.13-.65-.17-.93s-.06-.54-.08-.82a5.54,5.54,0,0,1-1.67,1.43,4.77,4.77,0,0,1-5.15-.4,3.53,3.53,0,0,1-1-2.72,3.16,3.16,0,0,1,1.46-2.79,7.13,7.13,0,0,1,4-1h2.38v-1.47a2.29,2.29,0,0,0-.7-1.77,2.79,2.79,0,0,0-2-.65,4.73,4.73,0,0,0-1.53.23,2.83,2.83,0,0,0-1.07.6l-.25,1.34h-1.78v-2.46a7,7,0,0,1,2.1-1.11,8.49,8.49,0,0,1,2.67-.41,5.27,5.27,0,0,1,3.49,1.1,3.84,3.84,0,0,1,1.34,3.15v6.59l0,.47.94.12v1.48Zm1.15-17.8a2.67,2.67,0,0,1-.7,1.86,2.27,2.27,0,0,1-1.75.76,3.38,3.38,0,0,1-1.74-.54,3.15,3.15,0,0,0-1.5-.55,1.08,1.08,0,0,0-.84.39,1.31,1.31,0,0,0-.34.92l-1.26-.31a2.79,2.79,0,0,1,.69-1.89,2.19,2.19,0,0,1,1.75-.8,3.5,3.5,0,0,1,1.64.55,3.64,3.64,0,0,0,1.6.55,1.11,1.11,0,0,0,.83-.38,1.37,1.37,0,0,0,.35-.94Zm-4.87,16.11a4.07,4.07,0,0,0,2.1-.55,3.4,3.4,0,0,0,1.36-1.32v-2.09h-2.46a3.52,3.52,0,0,0-2.25.66,2,2,0,0,0-.82,1.59,1.57,1.57,0,0,0,.51,1.27A2.34,2.34,0,0,0,515.66,143.17Z"/><path class="cls-24" d="M524.33,138.4a7,7,0,0,1,1.53-4.63A5.07,5.07,0,0,1,530,132a5.16,5.16,0,0,1,4.16,1.81,7,7,0,0,1,1.53,4.64v.26a6.92,6.92,0,0,1-1.53,4.64,5.1,5.1,0,0,1-4.13,1.81,5.16,5.16,0,0,1-4.16-1.81,7,7,0,0,1-1.53-4.64Zm2.31.26a6.07,6.07,0,0,0,.85,3.33A2.83,2.83,0,0,0,530,143.3a2.8,2.8,0,0,0,2.49-1.31,6,6,0,0,0,.86-3.33v-.26a6,6,0,0,0-.86-3.31,2.8,2.8,0,0,0-2.52-1.33,2.77,2.77,0,0,0-2.5,1.33,6,6,0,0,0-.85,3.31Z"/><path class="cls-24" d="M552.3,143.35a4.13,4.13,0,0,1-1.52,1.31,4.58,4.58,0,0,1-2.08.45,4.32,4.32,0,0,1-3.63-1.69,7,7,0,0,1-1.31-4.42v-.24a8.49,8.49,0,0,1,1.31-4.94,4.2,4.2,0,0,1,3.65-1.87,4.65,4.65,0,0,1,2,.41,4.23,4.23,0,0,1,1.47,1.2V128.4l-1.91-.33v-1.49h4.22v16.48l1.91.32v1.48h-3.92ZM546.07,139a5.34,5.34,0,0,0,.79,3.07,2.72,2.72,0,0,0,2.42,1.16,3,3,0,0,0,1.74-.47,3.58,3.58,0,0,0,1.16-1.32v-5.88a3.56,3.56,0,0,0-1.16-1.27,3.09,3.09,0,0,0-1.71-.47,2.65,2.65,0,0,0-2.45,1.37,7.18,7.18,0,0,0-.79,3.57Z"/><path class="cls-24" d="M558.17,138.4a6.94,6.94,0,0,1,1.52-4.63,5.64,5.64,0,0,1,8.29,0,7,7,0,0,1,1.53,4.64v.26A7,7,0,0,1,568,143.3a5.66,5.66,0,0,1-8.3,0,7,7,0,0,1-1.52-4.64Zm2.31.26a6.07,6.07,0,0,0,.84,3.33,3.07,3.07,0,0,0,5,0,6,6,0,0,0,.85-3.33v-.26a6,6,0,0,0-.85-3.31,3,3,0,0,0-5,0,6.07,6.07,0,0,0-.84,3.31Z"/><path class="cls-24" d="M581.32,136.17h-1.73l-.38-1.53a3.16,3.16,0,0,0-1.06-.64,4.06,4.06,0,0,0-1.44-.24,2.67,2.67,0,0,0-1.83.54,1.68,1.68,0,0,0-.6,1.3,1.47,1.47,0,0,0,.53,1.19,5.47,5.47,0,0,0,2.14.77,9.28,9.28,0,0,1,3.58,1.4,2.82,2.82,0,0,1,1.17,2.37,3.27,3.27,0,0,1-1.37,2.73,5.69,5.69,0,0,1-3.57,1.05,9,9,0,0,1-2.59-.34,7,7,0,0,1-2-1v-2.9h1.74l.43,1.7a2.49,2.49,0,0,0,1.08.53,6,6,0,0,0,1.4.16,3.21,3.21,0,0,0,1.93-.5,1.51,1.51,0,0,0,.7-1.3,1.57,1.57,0,0,0-.58-1.26,5.58,5.58,0,0,0-2.2-.85,9.42,9.42,0,0,1-3.48-1.37,2.77,2.77,0,0,1-1.17-2.35,3.29,3.29,0,0,1,1.32-2.63,5.19,5.19,0,0,1,3.43-1.09,8.35,8.35,0,0,1,2.59.37,5.55,5.55,0,0,1,1.91,1Z"/><path class="cls-24" d="M597.45,127.8a6.07,6.07,0,0,1,4.25,1.4,5.31,5.31,0,0,1,0,7.42,6.07,6.07,0,0,1-4.25,1.4h-3.62v5l1.91.32v1.48h-6.13v-1.48l1.91-.32V129.61l-1.91-.32V127.8h7.84Zm-3.62,8.41h3.62a3.36,3.36,0,0,0,2.59-.93,3.29,3.29,0,0,0,.86-2.35,3.39,3.39,0,0,0-.86-2.37,3.33,3.33,0,0,0-2.59-.95h-3.62Z"/><path class="cls-24" d="M605.07,143.38l1.91-.32V134l-1.91-.33v-1.49h4.21v10.88l1.91.32v1.48h-6.12Zm4.21-14.45H607v-2.35h2.3Z"/><path class="cls-24" d="M612.64,128.07v-1.49h4.21v16.48l1.91.32v1.48h-6.12v-1.48l1.91-.32V128.4Z"/><path class="cls-24" d="M628.78,144.86c-.07-.34-.12-.65-.16-.93a7.34,7.34,0,0,1-.08-.82,5.66,5.66,0,0,1-1.67,1.43,4.77,4.77,0,0,1-5.15-.4,3.53,3.53,0,0,1-1-2.72,3.14,3.14,0,0,1,1.46-2.79,7.1,7.1,0,0,1,4-1h2.38v-1.47a2.3,2.3,0,0,0-.71-1.77,2.78,2.78,0,0,0-2-.65,4.73,4.73,0,0,0-1.53.23,3,3,0,0,0-1.08.6l-.24,1.34h-1.78v-2.46a6.91,6.91,0,0,1,2.09-1.11A8.55,8.55,0,0,1,626,132a5.29,5.29,0,0,1,3.49,1.1,3.84,3.84,0,0,1,1.33,3.15v6.11c0,.16,0,.32,0,.48a3.83,3.83,0,0,0,0,.47l.94.12v1.48Zm-3.71-1.69a4.12,4.12,0,0,0,2.1-.55,3.46,3.46,0,0,0,1.36-1.32v-2.09h-2.46a3.5,3.5,0,0,0-2.25.66,2,2,0,0,0-.83,1.59,1.58,1.58,0,0,0,.52,1.27A2.31,2.31,0,0,0,625.07,143.17Z"/><path class="cls-24" d="M633.73,133.67v-1.49h4l.22,1.84a4.42,4.42,0,0,1,1.33-1.52,3.1,3.1,0,0,1,1.82-.55,3.56,3.56,0,0,1,.55,0,1.76,1.76,0,0,1,.44.09l-.3,2.14-1.32-.07a2.58,2.58,0,0,0-1.53.43,2.63,2.63,0,0,0-1,1.2v7.28l1.91.32v1.48h-6.13v-1.48l1.91-.32V134Z"/><path class="cls-24" d="M649.22,145.11a5.34,5.34,0,0,1-4.21-1.77,6.64,6.64,0,0,1-1.57-4.57v-.52a6.46,6.46,0,0,1,1.62-4.5,5,5,0,0,1,3.81-1.8,4.81,4.81,0,0,1,3.87,1.54,6.15,6.15,0,0,1,1.32,4.13v1.44h-8.23l0,.06a4.92,4.92,0,0,0,.93,3,2.92,2.92,0,0,0,2.49,1.18,5.9,5.9,0,0,0,2.06-.33,4.7,4.7,0,0,0,1.53-.92l.9,1.5a5.59,5.59,0,0,1-1.8,1.11A7.21,7.21,0,0,1,649.22,145.11Zm-.35-11.35a2.52,2.52,0,0,0-2,1,4.64,4.64,0,0,0-1,2.46l0,.06h5.85V137a3.54,3.54,0,0,0-.72-2.27A2.61,2.61,0,0,0,648.87,133.76Z"/><path class="cls-24" d="M666,136.17H664.3l-.37-1.53a3.26,3.26,0,0,0-1.06-.64,4.12,4.12,0,0,0-1.45-.24,2.67,2.67,0,0,0-1.83.54,1.68,1.68,0,0,0-.6,1.3,1.47,1.47,0,0,0,.53,1.19,5.53,5.53,0,0,0,2.15.77,9.16,9.16,0,0,1,3.57,1.4,2.82,2.82,0,0,1,1.17,2.37,3.26,3.26,0,0,1-1.36,2.73,5.69,5.69,0,0,1-3.57,1.05,9,9,0,0,1-2.59-.34,6.79,6.79,0,0,1-2-1v-2.9h1.73l.43,1.7a2.47,2.47,0,0,0,1.09.53,6,6,0,0,0,1.4.16,3.23,3.23,0,0,0,1.93-.5,1.52,1.52,0,0,0,.69-1.3,1.57,1.57,0,0,0-.58-1.26,5.52,5.52,0,0,0-2.19-.85,9.42,9.42,0,0,1-3.48-1.37,2.78,2.78,0,0,1-1.18-2.35A3.29,3.29,0,0,1,658,133a5.19,5.19,0,0,1,3.43-1.09,8.35,8.35,0,0,1,2.59.37,5.46,5.46,0,0,1,1.91,1Z"/><path class="cls-24" d="M683.08,143.35a4.13,4.13,0,0,1-1.52,1.31,4.58,4.58,0,0,1-2.08.45,4.32,4.32,0,0,1-3.63-1.69,7,7,0,0,1-1.3-4.42v-.24a8.49,8.49,0,0,1,1.3-4.94A4.2,4.2,0,0,1,679.5,132a4.65,4.65,0,0,1,2,.41,4.23,4.23,0,0,1,1.47,1.2V128.4l-1.91-.33v-1.49h4.22v16.48l1.91.32v1.48h-3.92ZM676.85,139a5.41,5.41,0,0,0,.79,3.07,2.73,2.73,0,0,0,2.43,1.16,3,3,0,0,0,1.73-.47,3.58,3.58,0,0,0,1.16-1.32v-5.88a3.48,3.48,0,0,0-1.16-1.27,3.09,3.09,0,0,0-1.71-.47,2.62,2.62,0,0,0-2.44,1.37,7.07,7.07,0,0,0-.8,3.57Z"/><path class="cls-24" d="M689,138.4a7,7,0,0,1,1.52-4.63,5.64,5.64,0,0,1,8.29,0,7,7,0,0,1,1.53,4.64v.26a7,7,0,0,1-1.52,4.64,5.66,5.66,0,0,1-8.3,0,7,7,0,0,1-1.52-4.64Zm2.31.26a6,6,0,0,0,.85,3.33,3.06,3.06,0,0,0,5,0,6,6,0,0,0,.85-3.33v-.26a6,6,0,0,0-.85-3.31,3,3,0,0,0-5,0,6.07,6.07,0,0,0-.84,3.31Z"/><path class="cls-24" d="M716,127.8a6,6,0,0,1,4.25,1.4,5.29,5.29,0,0,1,0,7.42A6,6,0,0,1,716,138h-3.62v5l1.91.32v1.48h-6.13v-1.48l1.92-.32V129.61l-1.92-.32V127.8H716Zm-3.62,8.41H716a3.1,3.1,0,0,0,3.46-3.28,3.44,3.44,0,0,0-.86-2.37,3.34,3.34,0,0,0-2.6-.95h-3.62Z"/><path class="cls-24" d="M729.25,145.11a5.32,5.32,0,0,1-4.21-1.77,6.59,6.59,0,0,1-1.57-4.57v-.52a6.5,6.5,0,0,1,1.61-4.5,5,5,0,0,1,3.82-1.8,4.81,4.81,0,0,1,3.87,1.54,6.15,6.15,0,0,1,1.32,4.13v1.44h-8.23l0,.06a5,5,0,0,0,.92,3,3,3,0,0,0,2.5,1.18,5.9,5.9,0,0,0,2.06-.33,4.65,4.65,0,0,0,1.52-.92l.91,1.5a5.81,5.81,0,0,1-1.8,1.11A7.21,7.21,0,0,1,729.25,145.11Zm-.35-11.35a2.49,2.49,0,0,0-2,1,4.56,4.56,0,0,0-1,2.46l0,.06h5.85V137a3.49,3.49,0,0,0-.73-2.27A2.58,2.58,0,0,0,728.9,133.76Z"/><path class="cls-24" d="M736,143.38l1.91-.32V134l-1.91-.33v-1.49h4l.17,1.89a4.59,4.59,0,0,1,1.59-1.57,4.22,4.22,0,0,1,2.17-.55,4.15,4.15,0,0,1,3.18,1.2,5.26,5.26,0,0,1,1.12,3.71v6.2l1.91.32v1.48H744v-1.48l1.91-.32V136.9a3.46,3.46,0,0,0-.66-2.38,2.67,2.67,0,0,0-2-.7,3.25,3.25,0,0,0-1.76.48,3.52,3.52,0,0,0-1.23,1.31v7.45l1.91.32v1.48H736Z"/><path class="cls-24" d="M761.51,136.17h-1.73l-.38-1.53a3.16,3.16,0,0,0-1.06-.64,4.12,4.12,0,0,0-1.45-.24,2.62,2.62,0,0,0-1.82.54,1.68,1.68,0,0,0-.6,1.3,1.46,1.46,0,0,0,.52,1.19,5.6,5.6,0,0,0,2.15.77,9.16,9.16,0,0,1,3.57,1.4,2.83,2.83,0,0,1,1.18,2.37,3.27,3.27,0,0,1-1.37,2.73,5.69,5.69,0,0,1-3.57,1.05,9,9,0,0,1-2.59-.34,6.9,6.9,0,0,1-2.05-1v-2.9H754l.44,1.7a2.38,2.38,0,0,0,1.08.53,6,6,0,0,0,1.4.16,3.23,3.23,0,0,0,1.93-.5,1.53,1.53,0,0,0,.7-1.3,1.6,1.6,0,0,0-.58-1.26,5.58,5.58,0,0,0-2.2-.85,9.42,9.42,0,0,1-3.48-1.37,2.77,2.77,0,0,1-1.17-2.35,3.29,3.29,0,0,1,1.32-2.63,5.16,5.16,0,0,1,3.42-1.09,8.31,8.31,0,0,1,2.59.37,5.37,5.37,0,0,1,1.91,1Z"/><path class="cls-24" d="M772.32,144.86c-.08-.34-.13-.65-.17-.93a7.34,7.34,0,0,1-.08-.82,5.66,5.66,0,0,1-1.67,1.43,4.77,4.77,0,0,1-5.15-.4,3.53,3.53,0,0,1-1-2.72,3.14,3.14,0,0,1,1.46-2.79,7.1,7.1,0,0,1,4-1h2.38v-1.47a2.3,2.3,0,0,0-.71-1.77,2.77,2.77,0,0,0-2-.65,4.73,4.73,0,0,0-1.53.23,2.83,2.83,0,0,0-1.07.6l-.25,1.34h-1.78v-2.46a7,7,0,0,1,2.1-1.11,8.49,8.49,0,0,1,2.67-.41,5.27,5.27,0,0,1,3.49,1.1,3.84,3.84,0,0,1,1.34,3.15v6.59l0,.47.94.12v1.48Zm-3.72-1.69a4.07,4.07,0,0,0,2.1-.55,3.46,3.46,0,0,0,1.36-1.32v-2.09H769.6a3.5,3.5,0,0,0-2.25.66,2,2,0,0,0-.82,1.59,1.57,1.57,0,0,0,.51,1.27A2.32,2.32,0,0,0,768.6,143.17Z"/><path class="cls-24" d="M776.8,143.38l1.91-.32V134l-1.91-.33v-1.49h4l.15,1.65a4.2,4.2,0,0,1,1.57-1.39,4.79,4.79,0,0,1,2.23-.49,3.91,3.91,0,0,1,2.17.58,3.57,3.57,0,0,1,1.37,1.76,4.57,4.57,0,0,1,1.58-1.71,4.14,4.14,0,0,1,2.29-.63,3.81,3.81,0,0,1,3.08,1.33,6.06,6.06,0,0,1,1.12,4v5.78l1.91.32v1.48h-6.14v-1.48l1.91-.32v-5.8a4.24,4.24,0,0,0-.64-2.66,2.34,2.34,0,0,0-1.91-.78,2.41,2.41,0,0,0-1.94.85,3.64,3.64,0,0,0-.85,2.14v6.25l1.91.32v1.48h-6.13v-1.48l1.91-.32v-5.8a4.17,4.17,0,0,0-.66-2.61,2.33,2.33,0,0,0-1.92-.83,3.15,3.15,0,0,0-1.73.44,2.7,2.7,0,0,0-1.05,1.21v7.59l1.91.32v1.48H776.8Z"/><path class="cls-24" d="M805.61,145.11a5.32,5.32,0,0,1-4.21-1.77,6.59,6.59,0,0,1-1.57-4.57v-.52a6.5,6.5,0,0,1,1.61-4.5,5,5,0,0,1,3.82-1.8,4.81,4.81,0,0,1,3.87,1.54,6.15,6.15,0,0,1,1.32,4.13v1.44h-8.23l0,.06a5,5,0,0,0,.92,3,3,3,0,0,0,2.5,1.18,5.84,5.84,0,0,0,2-.33,4.7,4.7,0,0,0,1.53-.92l.91,1.5a5.81,5.81,0,0,1-1.8,1.11A7.25,7.25,0,0,1,805.61,145.11Zm-.35-11.35a2.49,2.49,0,0,0-2,1,4.56,4.56,0,0,0-1,2.46l0,.06h5.85V137a3.49,3.49,0,0,0-.73-2.27A2.58,2.58,0,0,0,805.26,133.76Z"/><path class="cls-24" d="M812.38,143.38l1.91-.32V134l-1.91-.33v-1.49h4l.17,1.89a4.59,4.59,0,0,1,1.59-1.57,4.22,4.22,0,0,1,2.17-.55,4.15,4.15,0,0,1,3.18,1.2,5.26,5.26,0,0,1,1.12,3.71v6.2l1.91.32v1.48h-6.13v-1.48l1.91-.32V136.9a3.46,3.46,0,0,0-.66-2.38,2.69,2.69,0,0,0-2-.7,3.28,3.28,0,0,0-1.77.48,3.5,3.5,0,0,0-1.22,1.31v7.45l1.91.32v1.48h-6.13Z"/><path class="cls-24" d="M832.2,129.12v3.06h2.4v1.71h-2.4v7.7a1.7,1.7,0,0,0,.37,1.25,1.3,1.3,0,0,0,1,.37,5.89,5.89,0,0,0,.68-.05l.64-.12.32,1.59a3,3,0,0,1-1,.34,6.17,6.17,0,0,1-1.27.14,3,3,0,0,1-2.24-.85,3.73,3.73,0,0,1-.83-2.67v-7.7h-2v-1.71h2v-3.06Z"/><path class="cls-24" d="M836.73,138.4a7,7,0,0,1,1.53-4.63,5.07,5.07,0,0,1,4.13-1.82,5.16,5.16,0,0,1,4.16,1.81,7,7,0,0,1,1.53,4.64v.26a6.92,6.92,0,0,1-1.53,4.64,5.1,5.1,0,0,1-4.13,1.81,5.16,5.16,0,0,1-4.16-1.81,7,7,0,0,1-1.53-4.64Zm2.31.26a6,6,0,0,0,.85,3.33,2.83,2.83,0,0,0,2.53,1.31,2.8,2.8,0,0,0,2.49-1.31,6,6,0,0,0,.86-3.33v-.26a6,6,0,0,0-.86-3.31,2.8,2.8,0,0,0-2.52-1.33,2.76,2.76,0,0,0-2.5,1.33,6,6,0,0,0-.85,3.31Z"/><path class="cls-24" d="M253.08,161.84h-1.63l-.43-2.42a4.46,4.46,0,0,0-1.38-.9,5,5,0,0,0-2-.35,4.76,4.76,0,0,0-4.09,1.93,8,8,0,0,0-1.43,4.89v.27a8.18,8.18,0,0,0,1.4,4.9,4.5,4.5,0,0,0,3.88,1.94,5.87,5.87,0,0,0,2.11-.36,4,4,0,0,0,1.47-.89l.43-2.42h1.63v3a6.35,6.35,0,0,1-2.21,1.69,7.5,7.5,0,0,1-3.43.75,6.91,6.91,0,0,1-5.46-2.46,9.15,9.15,0,0,1-2.13-6.19V165a9.18,9.18,0,0,1,2.1-6.2,6.87,6.87,0,0,1,5.49-2.46,7.38,7.38,0,0,1,3.43.76,6.59,6.59,0,0,1,2.21,1.69Z"/><path class="cls-24" d="M255.55,167.2a7,7,0,0,1,1.53-4.63,5.07,5.07,0,0,1,4.13-1.82,5.16,5.16,0,0,1,4.16,1.81,7,7,0,0,1,1.53,4.64v.26a6.92,6.92,0,0,1-1.53,4.64,5.65,5.65,0,0,1-8.29,0,7,7,0,0,1-1.53-4.64Zm2.31.26a6.1,6.1,0,0,0,.85,3.33,2.83,2.83,0,0,0,2.53,1.31,2.8,2.8,0,0,0,2.49-1.31,6,6,0,0,0,.86-3.33v-.26a6,6,0,0,0-.86-3.31,2.8,2.8,0,0,0-2.52-1.33,2.76,2.76,0,0,0-2.5,1.33,6,6,0,0,0-.85,3.31Z"/><path class="cls-24" d="M268.55,172.18l1.91-.32V162.8l-1.91-.33V161h4l.16,1.65a4.12,4.12,0,0,1,1.57-1.39,4.78,4.78,0,0,1,2.22-.49,3.94,3.94,0,0,1,2.18.58,3.55,3.55,0,0,1,1.36,1.76,4.74,4.74,0,0,1,1.58-1.71,4.2,4.2,0,0,1,2.3-.63,3.79,3.79,0,0,1,3.07,1.33,6.06,6.06,0,0,1,1.13,4v5.78l1.91.32v1.48h-6.14v-1.48l1.91-.32v-5.81a4.2,4.2,0,0,0-.65-2.65,2.33,2.33,0,0,0-1.91-.78,2.43,2.43,0,0,0-1.94.85,3.71,3.71,0,0,0-.85,2.14v6.25l1.91.32v1.48h-6.13v-1.48l1.91-.32v-5.81a4.16,4.16,0,0,0-.66-2.6,2.31,2.31,0,0,0-1.91-.83,3.25,3.25,0,0,0-1.74.43,2.83,2.83,0,0,0-1,1.22v7.59l1.91.32v1.48h-6.13Z"/><path class="cls-24" d="M291.4,177.05l1.91-.33V162.8l-1.91-.33V161h3.89l.21,1.55A4.35,4.35,0,0,1,297,161.2a4.71,4.71,0,0,1,2.11-.45,4.2,4.2,0,0,1,3.66,1.87,8.43,8.43,0,0,1,1.31,4.93v.25a6.94,6.94,0,0,1-1.32,4.42,4.31,4.31,0,0,1-3.62,1.69,4.87,4.87,0,0,1-2.05-.4,4,4,0,0,1-1.51-1.16v4.37l1.91.33v1.49H291.4Zm10.4-9.5A6.78,6.78,0,0,0,301,164a2.75,2.75,0,0,0-2.51-1.38,3.06,3.06,0,0,0-1.68.45,3.27,3.27,0,0,0-1.14,1.22v6.17a3,3,0,0,0,2.85,1.64,2.85,2.85,0,0,0,2.48-1.19,5.32,5.32,0,0,0,.85-3.11Z"/><path class="cls-24" d="M315.28,171.79a4.11,4.11,0,0,1-3.71,2.12,4.05,4.05,0,0,1-3.22-1.33,6.11,6.11,0,0,1-1.16-4.12V162.8l-1.46-.33V161h3.76v7.5a4.72,4.72,0,0,0,.6,2.79A2.22,2.22,0,0,0,312,172a3.73,3.73,0,0,0,2-.5,3.1,3.1,0,0,0,1.21-1.41V162.8l-1.7-.33V161h4v10.88l1.45.32v1.48h-3.52Z"/><path class="cls-24" d="M324.82,157.92V161h2.41v1.71h-2.41v7.7a1.74,1.74,0,0,0,.37,1.25,1.31,1.31,0,0,0,1,.37,6.21,6.21,0,0,0,.69,0l.63-.12.32,1.59a3,3,0,0,1-1,.34,6,6,0,0,1-1.27.14,3,3,0,0,1-2.23-.85,3.69,3.69,0,0,1-.84-2.67v-7.7h-2V161h2v-3.06Z"/><path class="cls-24" d="M337.85,173.66c-.07-.34-.12-.65-.16-.93a7.34,7.34,0,0,1-.08-.82,5.66,5.66,0,0,1-1.67,1.43,4.77,4.77,0,0,1-5.15-.4,3.54,3.54,0,0,1-1-2.73,3.14,3.14,0,0,1,1.46-2.78,7.1,7.1,0,0,1,4-1h2.38V165a2.3,2.3,0,0,0-.71-1.77,2.78,2.78,0,0,0-1.95-.65,4.73,4.73,0,0,0-1.53.23,3,3,0,0,0-1.08.6l-.24,1.34h-1.78v-2.46a6.91,6.91,0,0,1,2.09-1.11,8.32,8.32,0,0,1,2.68-.41,5.29,5.29,0,0,1,3.49,1.1A3.84,3.84,0,0,1,339.9,165v6.11c0,.16,0,.32,0,.48a3.55,3.55,0,0,0,0,.46l.94.13v1.48ZM334.14,172a4.12,4.12,0,0,0,2.1-.55,3.53,3.53,0,0,0,1.36-1.32V168h-2.46a3.5,3.5,0,0,0-2.25.66,2,2,0,0,0-.82,1.59,1.57,1.57,0,0,0,.51,1.27A2.31,2.31,0,0,0,334.14,172Z"/><path class="cls-24" d="M348.49,172.1a3.1,3.1,0,0,0,2-.71,2.16,2.16,0,0,0,.87-1.74h2.07l0,.07a3.54,3.54,0,0,1-1.46,2.91,5.33,5.33,0,0,1-3.54,1.28,5.12,5.12,0,0,1-4.22-1.81,7,7,0,0,1-1.46-4.53v-.5a6.91,6.91,0,0,1,1.47-4.51,5.08,5.08,0,0,1,4.21-1.81,7,7,0,0,1,2.74.5,5.62,5.62,0,0,1,2,1.38l.11,2.82h-1.84l-.51-2a3,3,0,0,0-1.05-.64,4,4,0,0,0-1.46-.25,2.78,2.78,0,0,0-2.59,1.31,6.14,6.14,0,0,0-.78,3.2v.5a6.32,6.32,0,0,0,.77,3.24A2.8,2.8,0,0,0,348.49,172.1Z"/><path class="cls-24" d="M355.74,172.18l1.91-.32V162.8l-1.91-.33V161H360v10.88l1.91.32v1.48h-6.13ZM360,157.73h-2.31v-2.35H360Z"/><path class="cls-24" d="M363.64,167.2a6.94,6.94,0,0,1,1.52-4.63,5.08,5.08,0,0,1,4.14-1.82,5.14,5.14,0,0,1,4.15,1.81A7,7,0,0,1,375,167.2v.26a7,7,0,0,1-1.52,4.64,5.66,5.66,0,0,1-8.3,0,7,7,0,0,1-1.52-4.64Zm2.3.26a6.1,6.1,0,0,0,.85,3.33,3.07,3.07,0,0,0,5,0,6,6,0,0,0,.85-3.33v-.26a6,6,0,0,0-.85-3.31,2.82,2.82,0,0,0-2.52-1.33,2.77,2.77,0,0,0-2.51,1.33,6.07,6.07,0,0,0-.85,3.31Z"/><path class="cls-24" d="M376.75,172.18l1.91-.32V162.8l-1.91-.33V161h4l.17,1.89a4.65,4.65,0,0,1,1.58-1.57,4.26,4.26,0,0,1,2.18-.55,4.14,4.14,0,0,1,3.17,1.2,5.26,5.26,0,0,1,1.13,3.71v6.2l1.91.32v1.48h-6.13v-1.48l1.91-.32V165.7a3.46,3.46,0,0,0-.66-2.38,2.69,2.69,0,0,0-2-.7,3.26,3.26,0,0,0-1.77.48,3.5,3.5,0,0,0-1.22,1.31v7.45l1.91.32v1.48h-6.13Z"/><path class="cls-24" d="M400.81,173.66c-.07-.34-.13-.65-.17-.93s-.06-.54-.08-.82a5.54,5.54,0,0,1-1.67,1.43,4.77,4.77,0,0,1-5.15-.4,3.54,3.54,0,0,1-1-2.73,3.16,3.16,0,0,1,1.46-2.78,7.13,7.13,0,0,1,4-1h2.38V165a2.29,2.29,0,0,0-.7-1.77,2.79,2.79,0,0,0-2-.65,4.73,4.73,0,0,0-1.53.23,2.83,2.83,0,0,0-1.07.6l-.25,1.34h-1.78v-2.46a7,7,0,0,1,2.1-1.11,8.21,8.21,0,0,1,2.67-.41,5.27,5.27,0,0,1,3.49,1.1,3.84,3.84,0,0,1,1.34,3.15v6.59l0,.46.94.13v1.48ZM397.09,172a4.07,4.07,0,0,0,2.1-.55,3.46,3.46,0,0,0,1.36-1.32V168h-2.46a3.52,3.52,0,0,0-2.25.66,2,2,0,0,0-.82,1.59,1.57,1.57,0,0,0,.51,1.27A2.34,2.34,0,0,0,397.09,172Z"/><path class="cls-24" d="M405.44,156.87v-1.49h4.21v16.48l1.92.32v1.48h-6.13v-1.48l1.91-.32V157.2Z"/><path class="cls-24" d="M425,172.1a3.06,3.06,0,0,0,2-.71,2.17,2.17,0,0,0,.88-1.74h2.07l0,.07a3.51,3.51,0,0,1-1.46,2.91,5.31,5.31,0,0,1-3.53,1.28,5.12,5.12,0,0,1-4.22-1.81,6.92,6.92,0,0,1-1.46-4.53v-.5a7,7,0,0,1,1.46-4.51,5.12,5.12,0,0,1,4.22-1.81,7,7,0,0,1,2.74.5,5.62,5.62,0,0,1,2,1.38l.1,2.82H428l-.5-2a3.06,3.06,0,0,0-1.06-.64,3.9,3.9,0,0,0-1.45-.25,2.78,2.78,0,0,0-2.59,1.31,6.14,6.14,0,0,0-.78,3.2v.5a6.22,6.22,0,0,0,.77,3.24A2.79,2.79,0,0,0,425,172.1Z"/><path class="cls-24" d="M432.23,167.2a6.94,6.94,0,0,1,1.52-4.63,5.08,5.08,0,0,1,4.14-1.82,5.14,5.14,0,0,1,4.15,1.81,7,7,0,0,1,1.53,4.64v.26a7,7,0,0,1-1.52,4.64,5.66,5.66,0,0,1-8.3,0,7,7,0,0,1-1.52-4.64Zm2.3.26a6.1,6.1,0,0,0,.85,3.33,2.83,2.83,0,0,0,2.53,1.31,2.8,2.8,0,0,0,2.49-1.31,5.93,5.93,0,0,0,.86-3.33v-.26a5.91,5.91,0,0,0-.86-3.31,3,3,0,0,0-5,0,6.07,6.07,0,0,0-.85,3.31Z"/><path class="cls-24" d="M445.22,172.18l1.91-.32V162.8l-1.91-.33V161h4l.15,1.65a4.12,4.12,0,0,1,1.57-1.39,4.78,4.78,0,0,1,2.22-.49,3.94,3.94,0,0,1,2.18.58,3.55,3.55,0,0,1,1.36,1.76,4.68,4.68,0,0,1,1.59-1.71,4.14,4.14,0,0,1,2.29-.63,3.79,3.79,0,0,1,3.07,1.33,6.06,6.06,0,0,1,1.13,4v5.78l1.91.32v1.48h-6.14v-1.48l1.91-.32v-5.81a4.2,4.2,0,0,0-.65-2.65,2.33,2.33,0,0,0-1.91-.78,2.43,2.43,0,0,0-1.94.85,3.78,3.78,0,0,0-.85,2.14v6.25l1.91.32v1.48h-6.12v-1.48l1.91-.32v-5.81a4.15,4.15,0,0,0-.67-2.6,2.31,2.31,0,0,0-1.91-.83,3.27,3.27,0,0,0-1.74.43,2.83,2.83,0,0,0-1,1.22v7.59l1.91.32v1.48h-6.13Z"/><path class="cls-24" d="M482.59,173.66c-.07-.34-.12-.65-.16-.93a7.34,7.34,0,0,1-.08-.82,5.79,5.79,0,0,1-1.67,1.43,4.77,4.77,0,0,1-5.15-.4,3.54,3.54,0,0,1-1-2.73,3.16,3.16,0,0,1,1.46-2.78,7.16,7.16,0,0,1,4-1h2.37V165a2.29,2.29,0,0,0-.7-1.77,2.79,2.79,0,0,0-2-.65,4.71,4.71,0,0,0-1.52.23,2.87,2.87,0,0,0-1.08.6l-.24,1.34h-1.78v-2.46a6.8,6.8,0,0,1,2.09-1.11,8.23,8.23,0,0,1,2.68-.41,5.29,5.29,0,0,1,3.49,1.1,3.84,3.84,0,0,1,1.33,3.15v6.11c0,.16,0,.32,0,.48a3.55,3.55,0,0,0,0,.46l.94.13v1.48ZM478.88,172a4.12,4.12,0,0,0,2.1-.55,3.43,3.43,0,0,0,1.35-1.32V168h-2.46a3.49,3.49,0,0,0-2.24.66,2,2,0,0,0-.83,1.59,1.58,1.58,0,0,0,.52,1.27A2.31,2.31,0,0,0,478.88,172Z"/><path class="cls-24" d="M493.1,172.18l1.27-.17,6-15.41h2L508.17,172l1.26.17v1.48h-4.9v-1.48l1.29-.22-1.13-3.14h-6.83L496.7,172l1.29.22v1.48H493.1Zm5.48-5.29H504l-2.65-7.33h-.07Z"/><path class="cls-24" d="M511.08,162.47V161h4l.23,1.84a4.32,4.32,0,0,1,1.33-1.52,3.05,3.05,0,0,1,1.81-.55,3.48,3.48,0,0,1,.55,0,1.76,1.76,0,0,1,.44.09l-.3,2.14L517.8,163a2.61,2.61,0,0,0-1.54.43,2.76,2.76,0,0,0-1,1.2v7.28l1.91.32v1.48h-6.13v-1.48l1.91-.32V162.8Z"/><path class="cls-24" d="M520.8,167.55a8.48,8.48,0,0,1,1.3-4.93,4.2,4.2,0,0,1,3.65-1.87,4.5,4.5,0,0,1,2,.41,4,4,0,0,1,1.48,1.22l.19-1.4h2v15.74l1.91.33v1.49h-6.13v-1.49l1.91-.33v-4.26a3.92,3.92,0,0,1-1.45,1.08,4.6,4.6,0,0,1-1.9.37,4.32,4.32,0,0,1-3.63-1.69,7,7,0,0,1-1.3-4.42Zm2.3.25a5.58,5.58,0,0,0,.79,3.11,2.68,2.68,0,0,0,2.43,1.19,3,3,0,0,0,1.63-.42,3.36,3.36,0,0,0,1.13-1.2v-6.36a3.55,3.55,0,0,0-1.14-1.14,3,3,0,0,0-1.6-.42,2.61,2.61,0,0,0-2.44,1.4,7.23,7.23,0,0,0-.8,3.59Z"/><path class="cls-24" d="M543.39,171.79a4.38,4.38,0,0,1-1.54,1.57,4.33,4.33,0,0,1-2.18.55,4.08,4.08,0,0,1-3.22-1.33,6.16,6.16,0,0,1-1.16-4.12V162.8l-1.45-.33V161h3.76v7.5a4.72,4.72,0,0,0,.6,2.79,2.22,2.22,0,0,0,1.86.76,3.7,3.7,0,0,0,2-.5,3.12,3.12,0,0,0,1.22-1.41V162.8l-1.7-.33V161h4v10.88l1.45.32v1.48h-3.53Z"/><path class="cls-24" d="M548.9,172.18l1.91-.32V162.8l-1.91-.33V161h4.22v10.88l1.91.32v1.48H548.9Zm4.22-14.45h-2.31v-2.35h2.31Z"/><path class="cls-24" d="M560.82,157.92V161h2.4v1.71h-2.4v7.7a1.74,1.74,0,0,0,.36,1.25,1.33,1.33,0,0,0,1,.37,6,6,0,0,0,.69,0l.64-.12.31,1.59a3,3,0,0,1-1,.34,6,6,0,0,1-1.26.14,3,3,0,0,1-2.24-.85,3.68,3.68,0,0,1-.83-2.67v-7.7h-2V161h2v-3.06Z"/><path class="cls-24" d="M571.36,173.91a5.34,5.34,0,0,1-4.21-1.77,6.64,6.64,0,0,1-1.57-4.57v-.52a6.46,6.46,0,0,1,1.62-4.5,5,5,0,0,1,3.81-1.8,4.81,4.81,0,0,1,3.87,1.54,6.15,6.15,0,0,1,1.32,4.13v1.44H568l0,.06a4.92,4.92,0,0,0,.93,3,2.92,2.92,0,0,0,2.49,1.18,5.9,5.9,0,0,0,2.06-.33,4.7,4.7,0,0,0,1.53-.92l.9,1.5a5.59,5.59,0,0,1-1.8,1.11A7.18,7.18,0,0,1,571.36,173.91ZM571,162.56a2.52,2.52,0,0,0-2,1,4.64,4.64,0,0,0-1,2.46l0,.05h5.84v-.3a3.54,3.54,0,0,0-.72-2.27A2.61,2.61,0,0,0,571,162.56Z"/><path class="cls-24" d="M582.51,157.92V161h2.4v1.71h-2.4v7.7a1.7,1.7,0,0,0,.37,1.25,1.29,1.29,0,0,0,1,.37,5.89,5.89,0,0,0,.69,0l.64-.12.31,1.59a2.83,2.83,0,0,1-1,.34,6,6,0,0,1-1.26.14,3,3,0,0,1-2.24-.85,3.73,3.73,0,0,1-.83-2.67v-7.7h-2V161h2v-3.06Z"/><path class="cls-24" d="M596.33,171.79a4.11,4.11,0,0,1-3.71,2.12,4.05,4.05,0,0,1-3.22-1.33,6.11,6.11,0,0,1-1.16-4.12V162.8l-1.46-.33V161h3.77v7.5a4.73,4.73,0,0,0,.59,2.79A2.22,2.22,0,0,0,593,172a3.73,3.73,0,0,0,2-.5,3.1,3.1,0,0,0,1.21-1.41V162.8l-1.7-.33V161h4v10.88l1.45.32v1.48h-3.52Z"/><path class="cls-24" d="M601.84,162.47V161h4l.22,1.84a4.32,4.32,0,0,1,1.33-1.52,3.07,3.07,0,0,1,1.81-.55,3.48,3.48,0,0,1,.55,0,1.66,1.66,0,0,1,.44.09l-.3,2.14-1.31-.07a2.64,2.64,0,0,0-1.54.43,2.76,2.76,0,0,0-1,1.2v7.28l1.91.32v1.48h-6.13v-1.48l1.91-.32V162.8Z"/><path class="cls-24" d="M620,173.66c-.07-.34-.12-.65-.16-.93a7.34,7.34,0,0,1-.08-.82,5.79,5.79,0,0,1-1.67,1.43,4.77,4.77,0,0,1-5.15-.4,3.54,3.54,0,0,1-1-2.73,3.16,3.16,0,0,1,1.46-2.78,7.15,7.15,0,0,1,4-1h2.38V165a2.29,2.29,0,0,0-.7-1.77,2.79,2.79,0,0,0-2-.65,4.82,4.82,0,0,0-1.53.23,2.9,2.9,0,0,0-1.07.6l-.24,1.34h-1.79v-2.46a7,7,0,0,1,2.1-1.11,8.21,8.21,0,0,1,2.67-.41,5.3,5.3,0,0,1,3.5,1.1,3.84,3.84,0,0,1,1.33,3.15v6.11c0,.16,0,.32,0,.48a3.55,3.55,0,0,0,0,.46l.94.13v1.48ZM616.33,172a4.06,4.06,0,0,0,2.09-.55,3.4,3.4,0,0,0,1.36-1.32V168h-2.46a3.49,3.49,0,0,0-2.24.66,2,2,0,0,0-.83,1.59,1.55,1.55,0,0,0,.52,1.27A2.31,2.31,0,0,0,616.33,172Z"/><path class="cls-24" d="M638.58,156.6a6,6,0,0,1,4.25,1.4,5.29,5.29,0,0,1,0,7.42,6,6,0,0,1-4.25,1.4H635v5l1.91.32v1.48h-6.13v-1.48l1.91-.32V158.41l-1.91-.32V156.6h7.84ZM635,165h3.62a3.38,3.38,0,0,0,2.6-.93,3.34,3.34,0,0,0,.86-2.35,3.44,3.44,0,0,0-.86-2.37,3.35,3.35,0,0,0-2.6-1H635Z"/><path class="cls-24" d="M651.83,173.91a5.34,5.34,0,0,1-4.21-1.77,6.63,6.63,0,0,1-1.56-4.57v-.52a6.45,6.45,0,0,1,1.61-4.5,5,5,0,0,1,3.81-1.8,4.81,4.81,0,0,1,3.88,1.54,6.2,6.2,0,0,1,1.31,4.13v1.44h-8.22l0,.06a5,5,0,0,0,.93,3,2.92,2.92,0,0,0,2.49,1.18,5.86,5.86,0,0,0,2.06-.33,4.7,4.7,0,0,0,1.53-.92l.9,1.5a5.59,5.59,0,0,1-1.8,1.11A7.18,7.18,0,0,1,651.83,173.91Zm-.35-11.35a2.52,2.52,0,0,0-2,1,4.72,4.72,0,0,0-1,2.46l0,.05h5.85v-.3a3.55,3.55,0,0,0-.73-2.27A2.6,2.6,0,0,0,651.48,162.56Z"/><path class="cls-24" d="M667.49,172.15a4.06,4.06,0,0,1-1.52,1.31,4.55,4.55,0,0,1-2.08.45,4.31,4.31,0,0,1-3.62-1.69A7,7,0,0,1,659,167.8v-.25a8.48,8.48,0,0,1,1.31-4.93,4.18,4.18,0,0,1,3.65-1.87,4.44,4.44,0,0,1,2,.41,4.06,4.06,0,0,1,1.47,1.2V157.2l-1.91-.33v-1.49h4.22v16.48l1.91.32v1.48h-3.91Zm-6.22-4.35a5.41,5.41,0,0,0,.78,3.07,2.75,2.75,0,0,0,2.43,1.16,3,3,0,0,0,1.73-.47,3.49,3.49,0,0,0,1.16-1.32v-5.88a3.39,3.39,0,0,0-1.16-1.27,3,3,0,0,0-1.71-.47,2.63,2.63,0,0,0-2.44,1.37,7.06,7.06,0,0,0-.79,3.56Z"/><path class="cls-24" d="M681.62,173.66c-.07-.34-.12-.65-.16-.93a7.34,7.34,0,0,1-.08-.82,5.66,5.66,0,0,1-1.67,1.43,4.77,4.77,0,0,1-5.15-.4,3.54,3.54,0,0,1-1-2.73,3.15,3.15,0,0,1,1.45-2.78,7.16,7.16,0,0,1,4-1h2.38V165a2.3,2.3,0,0,0-.71-1.77,2.78,2.78,0,0,0-1.95-.65,4.73,4.73,0,0,0-1.53.23,2.87,2.87,0,0,0-1.08.6l-.24,1.34h-1.78v-2.46a6.8,6.8,0,0,1,2.09-1.11,8.27,8.27,0,0,1,2.68-.41,5.29,5.29,0,0,1,3.49,1.1,3.84,3.84,0,0,1,1.33,3.15v6.11c0,.16,0,.32,0,.48a3.55,3.55,0,0,0,0,.46l.94.13v1.48ZM677.91,172a4.12,4.12,0,0,0,2.1-.55,3.53,3.53,0,0,0,1.36-1.32V168H678.9a3.49,3.49,0,0,0-2.24.66,2,2,0,0,0-.83,1.59,1.58,1.58,0,0,0,.52,1.27A2.31,2.31,0,0,0,677.91,172Z"/><path class="cls-24" d="M686.58,167.55a8.34,8.34,0,0,1,1.34-4.93,4.28,4.28,0,0,1,3.69-1.87,4.57,4.57,0,0,1,2.1.46,4.26,4.26,0,0,1,1.51,1.36l.21-1.59h1.94V173.5a5.29,5.29,0,0,1-1.37,3.87,5.18,5.18,0,0,1-3.9,1.41,8.52,8.52,0,0,1-2-.25,7.82,7.82,0,0,1-1.88-.69l.6-1.79a7.74,7.74,0,0,0,3.24.79,2.76,2.76,0,0,0,2.26-.87,3.77,3.77,0,0,0,.73-2.47v-1.21a4.31,4.31,0,0,1-1.49,1.21,4.7,4.7,0,0,1-2,.41,4.43,4.43,0,0,1-3.66-1.69,6.93,6.93,0,0,1-1.34-4.42Zm2.31.25a5.26,5.26,0,0,0,.81,3.07,2.81,2.81,0,0,0,2.46,1.16,3.07,3.07,0,0,0,1.74-.47,3.7,3.7,0,0,0,1.17-1.35v-5.83a3.53,3.53,0,0,0-1.17-1.28,3,3,0,0,0-1.72-.48,2.69,2.69,0,0,0-2.47,1.38,6.88,6.88,0,0,0-.82,3.55Z"/><path class="cls-24" d="M700.16,167.2a7,7,0,0,1,1.53-4.63,5.07,5.07,0,0,1,4.13-1.82,5.16,5.16,0,0,1,4.16,1.81,7,7,0,0,1,1.53,4.64v.26A6.92,6.92,0,0,1,710,172.1a5.65,5.65,0,0,1-8.29,0,7,7,0,0,1-1.53-4.64Zm2.31.26a6,6,0,0,0,.85,3.33,2.83,2.83,0,0,0,2.53,1.31,2.8,2.8,0,0,0,2.49-1.31,6,6,0,0,0,.86-3.33v-.26a6,6,0,0,0-.86-3.31,2.8,2.8,0,0,0-2.52-1.33,2.76,2.76,0,0,0-2.5,1.33,6,6,0,0,0-.85,3.31Zm4-11.35h2.7l0,.07-3.15,3h-1.72Z"/><path class="cls-24" d="M713.63,167.55a8.33,8.33,0,0,1,1.33-4.93,4.28,4.28,0,0,1,3.69-1.87,4.51,4.51,0,0,1,2.1.46,4.18,4.18,0,0,1,1.51,1.36l.22-1.59h1.94V173.5a5.33,5.33,0,0,1-1.37,3.87,5.19,5.19,0,0,1-3.9,1.41,8.52,8.52,0,0,1-2-.25,7.82,7.82,0,0,1-1.88-.69l.6-1.79a7.64,7.64,0,0,0,3.23.79,2.78,2.78,0,0,0,2.27-.87,3.77,3.77,0,0,0,.72-2.47v-1.21a4.13,4.13,0,0,1-1.49,1.21,4.62,4.62,0,0,1-2,.41,4.45,4.45,0,0,1-3.67-1.69,6.93,6.93,0,0,1-1.33-4.42Zm2.31.25a5.34,5.34,0,0,0,.8,3.07,2.81,2.81,0,0,0,2.47,1.16,3.09,3.09,0,0,0,1.74-.47,3.59,3.59,0,0,0,1.16-1.35v-5.83A3.42,3.42,0,0,0,721,163.1a3,3,0,0,0-1.72-.48,2.68,2.68,0,0,0-2.47,1.38,6.88,6.88,0,0,0-.82,3.55Z"/><path class="cls-24" d="M727.2,172.18l1.91-.32V162.8l-1.91-.33V161h4.22v10.88l1.91.32v1.48H727.2Zm4.22-14.45h-2.31v-2.35h2.31Z"/><path class="cls-24" d="M740.78,172.1a3.06,3.06,0,0,0,2-.71,2.16,2.16,0,0,0,.87-1.74h2.08l0,.07a3.54,3.54,0,0,1-1.46,2.91,5.33,5.33,0,0,1-3.53,1.28,5.12,5.12,0,0,1-4.22-1.81,6.92,6.92,0,0,1-1.46-4.53v-.5a6.9,6.9,0,0,1,1.46-4.51,5.1,5.1,0,0,1,4.22-1.81,7,7,0,0,1,2.74.5,5.8,5.8,0,0,1,2,1.38l.1,2.82h-1.84l-.5-2a3.16,3.16,0,0,0-1.06-.64,3.9,3.9,0,0,0-1.45-.25,2.79,2.79,0,0,0-2.6,1.31,6.14,6.14,0,0,0-.78,3.2v.5a6.22,6.22,0,0,0,.78,3.24A2.78,2.78,0,0,0,740.78,172.1Z"/><path class="cls-24" d="M756.3,173.66c-.07-.34-.13-.65-.17-.93s-.06-.54-.08-.82a5.66,5.66,0,0,1-1.67,1.43,4.77,4.77,0,0,1-5.15-.4,3.54,3.54,0,0,1-1-2.73,3.14,3.14,0,0,1,1.46-2.78,7.1,7.1,0,0,1,4-1H756V165a2.3,2.3,0,0,0-.71-1.77,2.77,2.77,0,0,0-2-.65,4.73,4.73,0,0,0-1.53.23,2.83,2.83,0,0,0-1.07.6l-.25,1.34h-1.78v-2.46a7,7,0,0,1,2.1-1.11,8.21,8.21,0,0,1,2.67-.41,5.27,5.27,0,0,1,3.49,1.1,3.84,3.84,0,0,1,1.34,3.15v6.59l0,.46.94.13v1.48ZM752.58,172a4.07,4.07,0,0,0,2.1-.55A3.53,3.53,0,0,0,756,170.1V168h-2.46a3.5,3.5,0,0,0-2.25.66,2,2,0,0,0-.82,1.59,1.57,1.57,0,0,0,.51,1.27A2.34,2.34,0,0,0,752.58,172Z"/><path class="cls-24" d="M764.21,173.66H761.9v-2.37h2.31Z"/></svg>