<svg id="Camada_1" data-name="Camada 1" xmlns="http://www.w3.org/2000/svg" xmlns:xlink="http://www.w3.org/1999/xlink" viewBox="0 0 881 249.76"><defs><style>.cls-1{fill:none;}.cls-2{fill:#65c4d1;}.cls-3{fill:#f9f9f9;}.cls-4{fill:#97d8dd;}.cls-5{clip-path:url(#clip-path);}.cls-6{fill:#eaa000;}.cls-7{fill:#eac2a7;}.cls-8{fill:#c9a68f;}.cls-9{fill:#d6aa8b;}.cls-10{fill:#d6d6d6;}.cls-11{fill:#c99f4b;}.cls-12{fill:#6d5f56;}.cls-13{fill:#493e38;}.cls-14{clip-path:url(#clip-path-2);}.cls-15{fill:#fcfcfc;}.cls-16{fill:#d32222;}.cls-17{fill:#f4f4f4;}.cls-18{clip-path:url(#clip-path-3);}.cls-19{fill:#b7b7b7;}.cls-20{fill:#6d472e;}.cls-21{fill:#c99e32;}.cls-22{clip-path:url(#clip-path-4);}.cls-23{fill:#aa7e30;}.cls-24{fill:#fff;}.cls-25{fill:#ddd;}.cls-26{fill:#846829;}.cls-27{fill:#e8cd95;}</style><clipPath id="clip-path"><path class="cls-1" d="M237.75,116.46C237.75,46.35,157.23,0,84.76,0S8,49.28,8,119.4s26.07,124,98.54,124S237.75,186.58,237.75,116.46Z"/></clipPath><clipPath id="clip-path-2"><path class="cls-1" d="M93.31,66.38c-.23-.24,14.13.9,19.61-3.13,0,0,1.08,10.92-3.81,12.12C104.07,76.6,98.25,74.58,93.31,66.38Z"/></clipPath><clipPath id="clip-path-3"><path class="cls-1" d="M101.44,228.09c3.34,6.62,26.79,8,28.74,8.63,0,0,.61-26.56-3.14-41.48S101.44,228.09,101.44,228.09Z"/></clipPath><clipPath id="clip-path-4"><path class="cls-1" d="M72.92,63.47c4.14,1.71.57-5.71.57-5.71S73.1,50.33,71,49.07a30.23,30.23,0,0,1-4.59-3.75L77,38.07l28.88-19.8s4-5.57-5.13-9A10.86,10.86,0,0,0,89.68,6s-4-4.77-9.77-.39c0,0-11.62-.68-14.26,5a4.34,4.34,0,0,0-4.28,2.42S59,14,58.49,16c0,0-5.89,2.32-6.24,6.24,0,0-3.21,4.49-.64,8.13,0,0-1.7,3.19.49,5.38,0,0-4.91,5.38,0,8.73,0,0-1.21,3.5,6,4.92l2.14,4.42s2.06-.93,8,5Z"/></clipPath></defs><title>5-intro</title><path class="cls-2" d="M871,195.33H152V108H871a10,10,0,0,1,10,10v67.36A10,10,0,0,1,871,195.33Z"/><circle class="cls-3" cx="106" cy="143.76" r="103"/><path class="cls-2" d="M106,43.76a100,100,0,1,1-100,100,100,100,0,0,1,100-100m0-6a106,106,0,1,0,106,106,106.12,106.12,0,0,0-106-106Z"/><path class="cls-4" d="M105.74,43.94a99.74,99.74,0,1,0,99.74,99.74A99.73,99.73,0,0,0,105.74,43.94Zm0,192.83a93.09,93.09,0,1,1,93.09-93.09A93.09,93.09,0,0,1,105.74,236.77Z"/><path class="cls-4" d="M152.81,71.23a3.27,3.27,0,0,0-2.51-.47,3.35,3.35,0,0,0-2.1,1.44l-5.43,8.36a3.32,3.32,0,0,0,1,4.65,42.72,42.72,0,0,1,3.73,2.66c.75.57,1.5,1.14,2.08,1.55,1,.85,2,1.75,3,2.65l-2.3,2.3a66.28,66.28,0,0,0-14.57-10l6.8-15.25a3.32,3.32,0,0,0-1.69-4.4,86.89,86.89,0,0,0-30.63-7.29,3.3,3.3,0,0,0-3.49,3.15l-.52,10a3.33,3.33,0,0,0,3.14,3.49l3.5.17,3.73.57,1.44.22c.72.11,1.44.21,2.07.35l.45.12-.87,3.25a68,68,0,0,0-17.61-1.42l-1.72-16.64a3.31,3.31,0,0,0-3.66-3,85.73,85.73,0,0,0-30.2,9,3.32,3.32,0,0,0-1.45,4.47l4.54,8.88A3.31,3.31,0,0,0,74,81.57c.67-.31,1.33-.63,2-1a34.31,34.31,0,0,1,4.75-2l.85-.32c1-.37,2-.73,2.93-1l.86,3.22c-.82.28-1.61.57-2.4.86l-.79.3a31.13,31.13,0,0,0-4.72,2l-2,1L69.8,87.8l-.38.21L59.61,74.54a3.35,3.35,0,0,0-2.17-1.33,3.3,3.3,0,0,0-2.47.6,86.67,86.67,0,0,0-21.69,22.8,3.33,3.33,0,0,0,1,4.6l8.36,5.44a3.31,3.31,0,0,0,4.65-1.06q1.23-1.92,2.65-3.72c.58-.75,1.15-1.5,1.56-2.09.85-1,1.75-2,2.65-3l2.3,2.3a66.28,66.28,0,0,0-10,14.57l-15.25-6.8a3.34,3.34,0,0,0-4.4,1.69,86.94,86.94,0,0,0-7.29,30.64,3.34,3.34,0,0,0,3.15,3.49l10,.51A3.3,3.3,0,0,0,36.11,140l.18-3.5.56-3.72c.09-.48.16-1,.22-1.45.11-.72.21-1.44.35-2.06l.12-.46,3.25.87a67.61,67.61,0,0,0-1.42,17.61l-16.64,1.73a3.33,3.33,0,0,0-3,3.65,86.8,86.8,0,0,0,9,30.21,3.31,3.31,0,0,0,4.47,1.44l8.88-4.53a3.32,3.32,0,0,0,1.51-4.36c-.31-.66-.63-1.31-1-2a34.73,34.73,0,0,1-2-4.78l-.33-.88c-.37-1-.72-2-1-2.9l3.26-.87A65.71,65.71,0,0,0,50.11,180L36.6,189.8a3.32,3.32,0,0,0-.73,4.65,86.47,86.47,0,0,0,22.8,21.68,3.32,3.32,0,0,0,4.6-1l5.44-8.36a3.32,3.32,0,0,0-1.06-4.66c-1.28-.82-2.53-1.7-3.73-2.65-.74-.58-1.49-1.15-2.08-1.56-1-.85-2-1.74-3-2.65l2.35-2.35c.89.81,1.81,1.63,2.92,2.54.64.46,1.27.94,1.9,1.43a38,38,0,0,0,3.71,2.6l5.93,3.41.08,0-6.81,15.27a3.29,3.29,0,0,0-.07,2.54,3.34,3.34,0,0,0,1.75,1.85,86.78,86.78,0,0,0,30.64,7.29h.17a3.33,3.33,0,0,0,3.32-3.15l.51-10a3.31,3.31,0,0,0-3.14-3.49l-3.49-.18-3.73-.57-1.44-.22c-.72-.1-1.44-.2-2.07-.35l-.46-.12.88-3.25a67.57,67.57,0,0,0,17.6,1.42l1.73,16.64a3.31,3.31,0,0,0,3.65,3,85.57,85.57,0,0,0,30.21-9,3.32,3.32,0,0,0,1.45-4.47l-4.54-8.88a3.32,3.32,0,0,0-4.35-1.51c-.67.31-1.33.64-2,1a34.31,34.31,0,0,1-4.75,2l-.85.32c-1,.37-2,.73-2.93,1.05l-.88-3.25A65.63,65.63,0,0,0,142,199.3l9.83,13.51a3.32,3.32,0,0,0,4.64.73,86.43,86.43,0,0,0,21.68-22.79,3.37,3.37,0,0,0,.47-2.51,3.32,3.32,0,0,0-1.44-2.1l-8.36-5.44a3.32,3.32,0,0,0-2.55-.45,3.28,3.28,0,0,0-2.1,1.51,42.46,42.46,0,0,1-2.65,3.72c-.58.75-1.15,1.51-1.56,2.09-.85,1-1.75,2-2.66,3l-2.29-2.3a66.28,66.28,0,0,0,10-14.57l15.25,6.8a3.33,3.33,0,0,0,4.39-1.69,86.91,86.91,0,0,0,7.3-30.64,3.32,3.32,0,0,0-3.15-3.48l-10-.52a3.35,3.35,0,0,0-3.49,3.14l-.18,3.5-.57,3.73c-.08.48-.15,1-.22,1.44-.1.72-.2,1.44-.35,2.06l-.11.46-3.21-.86,0-.08a23.08,23.08,0,0,0,.41-2.35c.05-.37.1-.74.17-1.15l.51-3.27c0-.11,0-.22,0-.34l.17-3.48V140l16.7-1.73a3.33,3.33,0,0,0,3-3.66,86.8,86.8,0,0,0-9-30.21,3.32,3.32,0,0,0-4.47-1.44l-8.88,4.53a3.33,3.33,0,0,0-1.51,4.36c.31.66.63,1.31.95,2a34.09,34.09,0,0,1,2.05,4.77l.33.88c.37,1,.73,1.95,1,2.91l-3.25.87a66.08,66.08,0,0,0-7.59-15.91l13.5-9.83a3.33,3.33,0,0,0,.74-4.64A86.47,86.47,0,0,0,152.81,71.23Zm2,32.68a3.31,3.31,0,0,0-.73,4.64,59.27,59.27,0,0,1,9.37,19.65,3.34,3.34,0,0,0,4.07,2.35l9.64-2.57a3.33,3.33,0,0,0,2.39-3.91,48.49,48.49,0,0,0-2.17-6.87l-.26-.71a35,35,0,0,0-1.87-4.52l3-1.51A80.26,80.26,0,0,1,184.67,132l-16.46,1.71a3.34,3.34,0,0,0-3,3.48l.17,3.23v6.35l-.17,3.14-.47,3.05c-.07.43-.14.87-.2,1.31-.08.59-.16,1.18-.27,1.67l-.83,3.2a3.32,3.32,0,0,0,2.36,4l9.63,2.57a3.32,3.32,0,0,0,4.08-2.38l1-3.79c.2-.89.33-1.79.46-2.69.06-.43.12-.85.2-1.33l.62-4.11,0-.51,3.27.17a80.93,80.93,0,0,1-5.21,21.89l-15.11-6.74a3.36,3.36,0,0,0-2.55-.07,3.33,3.33,0,0,0-1.85,1.76,59.45,59.45,0,0,1-12.32,18,3.32,3.32,0,0,0,0,4.69l7.05,7.06a3.31,3.31,0,0,0,4.83-.15l1.8-2c1.16-1.25,2.31-2.5,3.53-4,.5-.71,1-1.41,1.57-2.1.37-.49.74-1,1.11-1.47l2.8,1.81a79.87,79.87,0,0,1-15.5,16.3l-9.75-13.39a3.31,3.31,0,0,0-4.64-.73,59.12,59.12,0,0,1-19.64,9.37,3.34,3.34,0,0,0-2.36,4.07l2.58,9.64a3.33,3.33,0,0,0,3.91,2.39,48.78,48.78,0,0,0,6.89-2.18l.69-.25a34.82,34.82,0,0,0,4.51-1.87l1.51,3a80.26,80.26,0,0,1-21.58,6.44l-1.71-16.46a3.28,3.28,0,0,0-1.19-2.24,3.35,3.35,0,0,0-2.44-.73,60.77,60.77,0,0,1-21.77-1.77,3.34,3.34,0,0,0-4.07,2.35l-2.58,9.64a3.32,3.32,0,0,0,.34,2.54,3.37,3.37,0,0,0,2,1.54l3.79,1c.89.21,1.8.34,2.7.47.42.06.85.12,1.32.21l4.11.61.51,0L98.25,223a80.77,80.77,0,0,1-21.88-5.21l6.73-15.11a3.32,3.32,0,0,0-1.59-4.35L78.75,197l-5.67-3.26a32,32,0,0,1-3-2.16c-.7-.54-1.41-1.08-1.92-1.43-1-.79-1.88-1.63-2.8-2.48-.68-.63-1.37-1.26-2.07-1.87a3.33,3.33,0,0,0-4.54.16l-7,7.05a3.33,3.33,0,0,0-1,2.44,3.36,3.36,0,0,0,1.12,2.39l1.95,1.78c1.27,1.16,2.53,2.31,4,3.55.71.5,1.4,1,2.1,1.56l1.48,1.12-1.82,2.8a79.82,79.82,0,0,1-16.29-15.5l13.38-9.74A3.28,3.28,0,0,0,58,181.28a3.33,3.33,0,0,0-.59-2.48A59.34,59.34,0,0,1,48,159.16a3.32,3.32,0,0,0-4.06-2.35l-9.64,2.57a3.33,3.33,0,0,0-2.39,3.91,48.45,48.45,0,0,0,2.16,6.87l.27.71a34.2,34.2,0,0,0,1.86,4.51l-3,1.51a80.51,80.51,0,0,1-6.44-21.58l16.46-1.71a3.33,3.33,0,0,0,3-3.63A61,61,0,0,1,48,128.2a3.33,3.33,0,0,0-2.35-4.08L36,121.55a3.29,3.29,0,0,0-2.53.34,3.35,3.35,0,0,0-1.55,2l-1,3.8c-.2.88-.34,1.78-.47,2.68-.06.43-.12.86-.2,1.33l-.61,4.11,0,.51-3.26-.17a80.54,80.54,0,0,1,5.2-21.89L46.71,121a3.31,3.31,0,0,0,4.39-1.69,59.74,59.74,0,0,1,12.33-18,3.33,3.33,0,0,0,0-4.7l-7.05-7a3.34,3.34,0,0,0-4.84.14c-.59.67-1.19,1.32-1.8,2-1.15,1.25-2.3,2.51-3.52,4-.51.71-1,1.41-1.57,2.11-.37.48-.75,1-1.12,1.47l-2.79-1.82a79.87,79.87,0,0,1,15.5-16.3L66,94.58a3.33,3.33,0,0,0,4.65.73l.77-.58A12.07,12.07,0,0,1,73,93.61l5.44-3.15c.64-.29,1.28-.6,1.91-.91a26.19,26.19,0,0,1,3.89-1.67l1-.37A34.11,34.11,0,0,1,90.07,86a3.36,3.36,0,0,0,2.16-1.51,3.32,3.32,0,0,0,.38-2.61L90,72.24a3.33,3.33,0,0,0-3.91-2.39A49.15,49.15,0,0,0,79.23,72l-.69.26A34.64,34.64,0,0,0,74,74.14l-1.52-3a80.69,80.69,0,0,1,21.59-6.44l1.7,16.46a3.31,3.31,0,0,0,3.63,3,61.2,61.2,0,0,1,21.77,1.77,3.34,3.34,0,0,0,2.53-.33,3.3,3.3,0,0,0,1.54-2L127.86,74a3.3,3.3,0,0,0-.34-2.53,3.35,3.35,0,0,0-2-1.55l-3.78-1c-.9-.2-1.8-.34-2.71-.47l-1.32-.2-4.1-.61-.52,0,.17-3.26a80.45,80.45,0,0,1,21.89,5.2l-6.74,15.12a3.32,3.32,0,0,0,1.7,4.39,59.74,59.74,0,0,1,18,12.33,3.33,3.33,0,0,0,4.7,0l7.05-7a3.34,3.34,0,0,0-.14-4.84c-.66-.58-1.31-1.17-2-1.77-1.26-1.16-2.52-2.32-4-3.55-.71-.51-1.4-1-2.09-1.57l-1.48-1.12,1.81-2.79a79.61,79.61,0,0,1,16.3,15.5Z"/><path class="cls-4" d="M105.74,90.48a53.09,53.09,0,0,0-45.87,80l.2.34A53.59,53.59,0,0,0,73.63,186c.09.06.14.15.23.2l.07,0a52.79,52.79,0,0,0,63.6,0l.09,0c.09-.05.14-.14.22-.2a53.29,53.29,0,0,0,13.56-15.17,3.13,3.13,0,0,0,.21-.34,53.09,53.09,0,0,0-45.87-80Zm-6,7.09-36.9,64.17a46.49,46.49,0,0,1,36.9-64.17ZM79.9,182.36l25.84-44.92,25.84,44.92a46.4,46.4,0,0,1-51.68,0Zm56.95-4.17-26.79-46.57a5,5,0,0,0-8.65,0L74.62,178.19a46.7,46.7,0,0,1-8.09-9.53l39.21-68.19,7.6,13.19.15.29,31.45,54.71a46.7,46.7,0,0,1-8.09,9.53Zm11.78-16.45L119.41,110.9c0-.1-.1-.2-.15-.3l-7.52-13a46.5,46.5,0,0,1,36.89,64.17Z"/><g class="cls-5"><path class="cls-6" d="M84.76,3.76A6.91,6.91,0,0,1,89.68,6a12.09,12.09,0,0,1,3-.39,10.85,10.85,0,0,1,8.07,3.67c8.87,3.33,5.35,8.67,5.14,9l.1,0s5.2,3.63,3.42,5.41c0,0,3.21,4,.65,6.13a2.88,2.88,0,0,1-.93.47c7.29,11.36,11.64,31.41,8.77,48-.57,3.27-4.31,5.63-14.4,5.63h0A53.49,53.49,0,0,1,93.72,83L94,85.44h0c.51,3.6,1.24,7.69,2,8.29,5.14,3.87,12.81,5.46,17.12,6.09l6.24.58a15.16,15.16,0,0,1,3.24,4.76h0L159.11,139l28.76-24.31s1.91-7.5,12.55-7.5a27.41,27.41,0,0,1,4.38.37c14.51,2.35-1.32,4.07-1.32,4.07s1.64-.14,4.07-.14c3.63,0,9,.31,13.26,1.85L223,116l-5,5s-11.58,1.6-18.22,1.6c-2.1,0-3.71-.16-4.29-.59a.47.47,0,0,0-.26-.07c-3.95,0-36.42,30.63-36.42,30.63l-33.44-27c.49,6.63.84,13.72.77,20.28a208.88,208.88,0,0,1-1.85,25.31c1.46,1,.4,3.23.4,3.23l2.74,21.72c0,.16,0,.32,0,.48,3.39,15.11,2.82,40.16,2.82,40.16a29,29,0,0,0-2.88-.43v1.82h0c-.07,12.66,0,30.95.72,35.12,1.18,6.52,0,9.73,0,9.73s3.21,50.76,3.21,51.15,4.49,6.17,4.49,6.17,5.94,4.68,10.56,8.38h0a13.41,13.41,0,0,1,3.87,1.64,3.82,3.82,0,0,1,1.17,2.43c.31.21.82.55,1.4,1a15,15,0,0,0,4,.75c.63.64,0,1.33-.83,1.88.46.5.74.93.66,1.21-.3,1.11-4.6,5.64-12.38,5.64-.44,0-.89,0-1.35-.05-8.16-.53-19.48-9.23-20.4-11.65a7.24,7.24,0,0,1,.11-4.89,13.56,13.56,0,0,1,1.94-5.77c1.07-1.93,1.82-7.38,1.82-7.38-11.76-41.28-5-47.09-6.31-50.09-.82-1.9-8.08-28.93-13.27-48.37h0l0-.06c-.3-1.13-.6-2.24-.88-3.31a14.15,14.15,0,0,1-2.69-1.59A84.24,84.24,0,0,1,89,235.61l-15.51,38.9s-2.65,9.79-5.81,12.94A139.69,139.69,0,0,1,59.88,310c-5.35,12-7.7,28.44-7.7,28.44s3.83,9.73,4.28,15.81c4.5,6.17,8.55,13.78,3.18,16A30.91,30.91,0,0,1,48,372.35c-6.47,0-12.27-1.52-13.62-2.87-2.18-2.17,4-18.64,4-18.64.19-1.5.61-2.94,1.48-3.55a26.67,26.67,0,0,0,4.71-5.14s-.8-2.14,1.44-5,5.56-21.41,5.56-23.83-3-20.54,7-27.67c0,0,1.14-23.15,4.07-39.9h0c.32-1.9.66-3.72,1-5.41-3.07.26-4.9.29-4.9.29s3-8.26,6.74-18.89c-3.23-.31-1.1-5.32-1.1-5.32a25.85,25.85,0,0,0,3.79-2.23c.41-1.15.82-2.32,1.24-3.48-1.07-2.64,1.6-10.83,1.6-10.83l-9.8-7.39L32.71,171s22.89-54,23.82-54.9c.59-.6,5-3.19,8.07-5,3.18-3.19,10-5.71,10-5.71s6.53-7.38,7.92-8.77.75-5.24.75-5.24L79.73,77.7c-6.31-4-8.8-8.38-8.8-8.38a3.21,3.21,0,0,1-2.33.93,8.2,8.2,0,0,1-4.16-1.58s-9.06-9.05-6.2-13.33a2.68,2.68,0,0,1,2.35-1.29c1.86,0,4.08,1.53,5.65,2.85-3.21-2.8-4.93-3.18-5.63-3.18h-.22l0,0,0,0-.07,0,0-.07c-.67-.33-3.7-2-4-4.82-5.11-1.6-4.13-4.45-4.13-4.45-4.91-3.35,0-8.73,0-8.73-2.19-2.19-.49-5.38-.49-5.38-2.57-3.64.64-8.13.64-8.13C52.6,18.27,58.49,16,58.49,16c.46-2,2.88-2.89,2.88-2.89a4.29,4.29,0,0,1,3.95-2.44,2.22,2.22,0,0,1,.33,0C67.78,6,75.78,5.59,78.77,5.59c.71,0,1.14,0,1.14,0a8,8,0,0,1,4.85-1.85M76.71,190c1.28-3.65,2.39-6.85,3.23-9.29a2.8,2.8,0,0,1,1.37-4.13l.17-.57c1.28-4.71-10.8-27.79-10.8-27.79l-10.21-6.4-14.3,26.9L69,184.62,76.71,190M151,352.52h0M84.76,0h0a11.14,11.14,0,0,0-6,1.83h0c-4.35,0-11.63.73-15.28,5.23a7.86,7.86,0,0,0-4.76,3.12,8.69,8.69,0,0,0-3.11,3c-2.2,1.14-6,3.65-6.95,7.66C47.3,23.12,46,27,47.51,30.61a8.66,8.66,0,0,0,.13,4.9,10.16,10.16,0,0,0-1.43,6.11,7.88,7.88,0,0,0,2.17,4.56A6.23,6.23,0,0,0,49,47.91a8.51,8.51,0,0,0,4.15,3.79,9.38,9.38,0,0,0,1.51,2.38c-1.5,3.06-.65,7,2.53,11.65a43.58,43.58,0,0,0,4.62,5.6l.19.19.21.15A11.64,11.64,0,0,0,68.6,74a8.79,8.79,0,0,0,1-.07A33.7,33.7,0,0,0,76.45,80l3.16,12.13a7.83,7.83,0,0,1,0,2.11c-1.51,1.57-5.58,6.16-7.2,8-2.08.84-7,3-10.1,5.86-7.42,4.28-8,4.88-8.45,5.32-.73.72-1.09,1.09-13,29-5.78,13.46-11.51,27-11.57,27.12l-1.14,2.7L30.45,174l28.48,21.48,7.72,5.82c-.8,2.89-1.5,6.47-1.15,9.14L65,211.75A22.15,22.15,0,0,1,62.76,213l-1.29.62-.56,1.32c-.47,1.1-1.87,4.95-.13,7.87.06.11.13.21.2.32l-5.79,16.21-1.84,5.13,5.45-.1H59c0,.25-.09.5-.13.75v0c-2.5,14.35-3.69,32.93-4,38.61-8.89,7.93-7.61,23.14-7.18,28.31,0,.47.09,1.06.1,1.23-.06,2.7-3.26,19.07-4.81,21.56a10.16,10.16,0,0,0-2.34,6.23,18.43,18.43,0,0,1-3,3.12c-1.59,1.11-2.57,3-3,5.7-.43,1.16-1.68,4.66-2.76,8.39-2.33,8.06-2.39,11.68-.23,13.84,2.73,2.73,10.35,4,16.28,4a34.53,34.53,0,0,0,13.12-2.34,7.56,7.56,0,0,0,4.57-5c1.09-3.92-.68-9-5.56-15.86-.65-5.35-3.11-12.3-4.06-14.83.58-3.6,2.91-16.76,7.27-26.51a145,145,0,0,0,7.8-22.31c3.15-3.93,5.39-11.49,6-13.53l14.77-37a88.65,88.65,0,0,0,10.84-4.24l.39,1.46v0c10.92,40.92,12.82,47.17,13.31,48.54,0,.3-.12.84-.19,1.28-.81,4.86-2.7,16.19,6.26,47.94a25.87,25.87,0,0,1-1.26,5.3,17.14,17.14,0,0,0-2.39,6.9,10.82,10.82,0,0,0,.1,6.93c1.23,3.2,7.18,7.2,9,8.36,3.07,2,9.07,5.34,14.7,5.7.53,0,1.07.06,1.59.06,9.13,0,15.18-5.4,16-8.42a4.22,4.22,0,0,0,.12-1.58,4.51,4.51,0,0,0-.93-5.15l-1-1-1.46-.06a13.34,13.34,0,0,1-2.3-.34,6.84,6.84,0,0,0-2-2.94,13.78,13.78,0,0,0-4.52-2.17c-3.82-3.05-8.34-6.62-9.63-7.64-1.33-1.71-2.8-3.66-3.48-4.64-.17-2.83-.8-12.92-3.12-49.61.4-1.61.92-5.18-.09-10.8-.24-1.33-.77-7.06-.67-31.63l2.79.88.11-5c0-1,.54-25.1-2.78-40.51h0l0-.34,0-.34-2.61-20.83a6.62,6.62,0,0,0-.32-4.67,216.22,216.22,0,0,0,1.68-24.25c0-3.65,0-7.63-.25-12l26.79,21.67,2.56,2.07,2.39-2.25c13.31-12.56,29.38-26.73,33.88-29.36a18.93,18.93,0,0,0,4.51.41,177.93,177.93,0,0,0,18.74-1.64l1.25-.17.89-.9,5-5,2.41-2.41-2.16-2.63-2.2-2.68-.65-.79-1-.36a34.44,34.44,0,0,0-7.66-1.69c-.41-1.12-1.41-2.27-3.61-3a34,34,0,0,0-5.42-1.22,31.47,31.47,0,0,0-5-.42c-10.63,0-14.52,6.23-15.73,9L159.23,134l-33.45-31a18.58,18.58,0,0,0-3.68-5.17l-1-1-1.35-.12-6.15-.57c-3.66-.54-10.22-1.88-14.7-4.93a29.79,29.79,0,0,1-.81-3.78c1.75.16,3.54.23,5.34.24,4.11,0,16.59,0,18.11-8.75C124.24,63.53,121,44,113.91,31c1.45-2.41,1-5.39-.4-7.9a4,4,0,0,0,0-.77c-.18-2.08-1.64-3.95-3.15-5.36a8.36,8.36,0,0,0-.24-4c-.91-2.91-3.33-5.21-7.2-6.83A14.49,14.49,0,0,0,92.66,1.85a15.27,15.27,0,0,0-1.9.12,10.34,10.34,0,0,0-6-2ZM51.05,167.51,61.9,147.12l5.91,3.71c.91,1.77,3,5.94,5.06,10.45,3.77,8.31,4.68,11.84,4.89,13.19A6.55,6.55,0,0,0,76.09,177a6.41,6.41,0,0,0-.14,3.72c-.34,1-.72,2.11-1.15,3.34l-3.61-2.51-20.14-14ZM135,334.11Z"/><path class="cls-7" d="M122.68,105.16,159.11,139l28.76-24.31s2.41-9.48,16.93-7.13-1.32,4.07-1.32,4.07,10.27-.86,17.33,1.71L223,116l-5,5s-20.1,2.78-22.51,1-36.68,30.56-36.68,30.56l-33.44-27-6.57-5.6Z"/><path class="cls-7" d="M79.23,75.8,83.3,91.42s.64,3.85-.75,5.24-7.92,8.77-7.92,8.77L71,112.59l21.07,12,25.13-6.74-.75-17.64s-12.87-.82-20.37-6.46c-1.48-1.1-2.73-14-2.73-14Z"/><path class="cls-8" d="M94,85.44c-.39-2.88-.72-5.78-.72-5.78l-14.11-4,1.13,4.35s4.42,2.88,5.79,3.48A27,27,0,0,0,94,85.44Z"/><path class="cls-7" d="M67.52,109.47s-10.07,5.69-11,6.62S32.71,171,32.71,171L61.2,192.47l9.8,7.39s-3.1,9.52-1.28,11.34-5.35,5.2-5.35,5.2-2.78,6.56,2.85,5.14a84.56,84.56,0,0,0,13.26-5.21l3.78-21.1L69,184.62,46.17,168.69l14.3-26.9,10.21,6.4L83.19,139l-9-22.38-3.85-8.42Z"/><path class="cls-7" d="M70.93,69.32s8.16,14.53,32.55,14.54c10.08,0,13.83-2.36,14.4-5.63,3.57-20.58-4-46.6-14.58-54.55-9.25-7-42.07,19.4-42.07,19.4l7,15.68s-7.13-7.7-10-3.42,6.2,13.33,6.2,13.33S68.5,71.74,70.93,69.32Z"/><path class="cls-7" d="M94.1,222.84,73.49,274.51s-2.65,9.79-5.81,12.94A139.69,139.69,0,0,1,59.88,310c-5.35,12-7.7,28.44-7.7,28.44s4.86,12.36,4.27,17.92c0,0,4.66,6.41,2.78,10.1S50,368,50,368s-12.25,1.6-14.07-1.44,2.3-11.23,2.3-11.23-.59-6.53,1.55-8a26.67,26.67,0,0,0,4.71-5.14s-.8-2.14,1.44-5,5.56-21.41,5.56-23.83-3-20.54,7-27.67c0,0,2.43-49.19,9.27-56S94.1,218.68,94.1,218.68Z"/><path class="cls-9" d="M94.1,222.84l-6.59,16.52S78.4,243.43,76.09,244c-1.71.43-13.91,4.2-13.5,1.74,1.28-7.69,3-14,5.2-16.14,6.84-6.84,26.31-10.91,26.31-10.91Z"/><path class="cls-7" d="M101.44,215.19S118.7,280.36,120,283.35s-5.45,8.81,6.31,50.09c0,0-.75,5.45-1.82,7.38s-3.53,6.84-.43,8.55,13.16,10.27,17.44,11,12.3-3,12.3-3,4.27-1.6,2.94-2.94c0,0-3.91-.16-5.19-1.44s-15.83-12.73-15.83-12.73-4.49-5.77-4.49-6.17S128,283,128,283s1.18-3.21,0-9.73-.6-47.63-.6-47.63Z"/><path class="cls-9" d="M101.44,215.19s4.06,15.28,5.27,19.79c.46,1.74,20.58,3.13,20.58,3.13l.11-12.51Z"/><path class="cls-10" d="M101.44,228.09c3.34,6.62,26.79,8,28.74,8.63,0,0,.61-26.56-3.14-41.48S101.44,228.09,101.44,228.09Z"/><path class="cls-11" d="M72.92,63.47c4.14,1.71.57-5.71.57-5.71S73.1,50.33,71,49.07a30.23,30.23,0,0,1-4.59-3.75l39.45-27s4-5.57-5.13-9A10.86,10.86,0,0,0,89.68,6s-4-4.77-9.77-.39c0,0-11.62-.68-14.26,5a4.34,4.34,0,0,0-4.28,2.42S59,14,58.49,16c0,0-5.89,2.32-6.24,6.24,0,0-3.21,4.49-.64,8.13,0,0-1.7,3.19.49,5.38,0,0-4.91,5.38,0,8.73,0,0-1.21,3.5,6,4.92l2.14,4.42s2.06-.93,8,5Z"/><ellipse class="cls-12" cx="90.62" cy="49.05" rx="1.92" ry="2.62" transform="translate(-9.22 23.56) rotate(-14.1)"/><path class="cls-12" d="M88.15,47.72h-.07a1.5,1.5,0,0,1-1.43-1.55c0-.39.23-3.79,2.71-5.13,1.61-.86,3.61-.59,5.94.8a1.5,1.5,0,0,1-1.53,2.58c-1.33-.79-2.38-1-3-.74-.78.42-1.1,1.95-1.14,2.62A1.5,1.5,0,0,1,88.15,47.72Z"/><ellipse class="cls-12" cx="108.04" cy="44.82" rx="1.92" ry="2.62" transform="translate(-7.67 27.68) rotate(-14.1)"/><path class="cls-12" d="M106,43.26a1.34,1.34,0,0,1-.4-.06,1.49,1.49,0,0,1-1-1.83c.1-.37,1.07-3.64,3.79-4.39,1.75-.49,3.64.22,5.61,2.1a1.5,1.5,0,1,1-2.08,2.17c-1.11-1.07-2.08-1.56-2.73-1.38-.86.23-1.51,1.65-1.7,2.3A1.49,1.49,0,0,1,106,43.26Z"/><path class="cls-13" d="M93.31,66.38c-.23-.24,14.13.9,19.61-3.13,0,0,1.08,10.92-3.81,12.12C104.07,76.6,98.25,74.58,93.31,66.38Z"/><g class="cls-14"><path class="cls-15" d="M92.37,68.1s13.44,3.84,19.41-2.14L111,63.25,91.34,64.57Z"/><path class="cls-16" d="M94.74,73s4.31-4.17,11.19-1.39,0,7.81,0,7.81Z"/></g><path class="cls-8" d="M106.16,76.77C98,76.77,92.5,67,92.44,66.86l-.86-1.57,1.79.09c.13,0,13.26.65,19-3a1,1,0,1,1,1.06,1.69c-5,3.13-14.29,3.4-18.3,3.34,2.14,3.12,7.62,9.6,14.64,6.54a1,1,0,1,1,.8,1.84A11.09,11.09,0,0,1,106.16,76.77Z"/><path class="cls-8" d="M67.9,67.68s-.22-9.36-7.44-11.61"/><path class="cls-8" d="M60.47,141.79s6.17-8.26,5.36-7c-4.52,7,11.56,15.06,15.33,10.75a9.63,9.63,0,0,1-10.48,2.66Z"/><path class="cls-17" d="M74.63,105.43s-6.85,2.52-10,5.71c0,0,19.2,27.85,6.08,37.05,0,0,12.08,23.08,10.8,27.79s-22.75,64.63-22.75,64.63,66.3-1.18,68.67-44.53l-3.14-25a208.88,208.88,0,0,0,1.85-25.31c.14-12.18-1.19-26.17-2.17-35.73a15.47,15.47,0,0,0-4.5-9.69l-6.24-.58s4.92,16.52-6.48,18.08C100.57,118.74,85.76,120.73,74.63,105.43Z"/><g class="cls-18"><path class="cls-19" d="M61.2,242.23s66.3-1.18,68.66-44.53Z"/></g><path class="cls-17" d="M74.63,105.43s-6.85,2.52-10,5.71c0,0,19.2,27.85,6.08,37.05,0,0,12.08,23.08,10.8,27.79s-22.75,64.63-22.75,64.63,66.3-1.18,68.67-44.53l-3.14-25a208.88,208.88,0,0,0,1.85-25.31c.14-12.18-1.19-26.17-2.17-35.73a15.47,15.47,0,0,0-4.5-9.69l-6.24-.58s4.92,16.52-6.48,18.08C100.57,118.74,85.76,120.73,74.63,105.43Z"/><path class="cls-7" d="M61.2,192.47l9.8,7.39s-3.1,9.52-1.28,11.34-5.35,5.2-5.35,5.2-2.78,6.56,2.85,5.14a84.56,84.56,0,0,0,13.26-5.21l3.21-17.9s1-3.51-3-5.86C77.58,190.76,69,184.62,69,184.62Z"/><path class="cls-20" d="M80,180.82s34.95,4.66,44.65-6.46c0,0,1.06-2.2-.4-3.23.21,2.05-16.42,11-42.78,5.35A2.86,2.86,0,0,0,80,180.82Z"/><circle class="cls-21" cx="109.04" cy="179.14" r="8.15"/><g class="cls-22"><path class="cls-23" d="M70.33,21.4s-3.5,4.25.94,7.08c1.55,1-4.6,5.77-4.6,5.77l-2.49,14a18.62,18.62,0,0,1,5.35-1.29L80.78,59.81l-7.21,4.51-23-15.52L35.21,19.19,55,1.26l21.6-5-3.8,7.52s-9.17,5.6-5.66,9.64C64.9,14.94,64.47,21,70.33,21.4Z"/></g><path class="cls-24" d="M60.34,53.77S56.2,51.92,56.2,48.5,72.32,12.7,106,18.27c0,0,5.2,3.63,3.42,5.41,0,0,3.21,4,.65,6.13S95,28.81,60.34,53.77Z"/><path class="cls-25" d="M62.16,46.22S83.69,20,106.72,23.4C106.72,23.4,85.26,24.55,62.16,46.22Z"/><path class="cls-26" d="M110,186.05a8,8,0,0,1-5.91-2.3c-1.59-1.76-2-4.32-1.32-7.61A1.5,1.5,0,0,1,104.5,175a1.51,1.51,0,0,1,1.15,1.79c-.5,2.29-.29,4,.62,5,1.37,1.53,4,1.29,4.07,1.29a1.5,1.5,0,0,1,.31,3A5.49,5.49,0,0,1,110,186.05Z"/><path class="cls-27" d="M114,183.29l-.32,0a1.5,1.5,0,0,1-1.14-1.79c.5-2.28.3-3.95-.59-5-1.36-1.55-4-1.33-4.07-1.33a1.5,1.5,0,0,1-.29-3c.17,0,4.21-.38,6.6,2.31,1.57,1.77,2,4.34,1.28,7.62A1.5,1.5,0,0,1,114,183.29Z"/><path class="cls-8" d="M101.66,64a1.5,1.5,0,0,1,0-3c1.48,0,5.62-1.25,8.51-2.24-.91-7.27-5.56-12.7-8.35-15.36a1.5,1.5,0,0,1,2.07-2.17c3.24,3.1,8.77,9.61,9.39,18.46l.08,1.13-1.07.38C111.49,61.46,104.4,64,101.66,64Z"/><path class="cls-8" d="M199.39,115.85a3.68,3.68,0,0,1-.73-.07,1.5,1.5,0,1,1,.52-3c1.09.19,2.54-1.32,3.06-2.08a1.5,1.5,0,0,1,2.48,1.69C204.47,112.81,202.31,115.85,199.39,115.85Z"/><path class="cls-8" d="M210.18,121.22a1,1,0,0,1-.34-.06,1,1,0,0,1-.6-1.28c.71-1.93-1.64-5.25-2.52-6.25a1,1,0,0,1,1.51-1.32c.42.49,4.13,4.87,2.89,8.26A1,1,0,0,1,210.18,121.22Z"/></g><path class="cls-24" d="M267.83,133a9.11,9.11,0,0,1-2.14,6.18,7,7,0,0,1-5.54,2.47,6.7,6.7,0,0,1-5.37-2.47,9.32,9.32,0,0,1-2.06-6.18v-.25a9.36,9.36,0,0,1,2.06-6.19,6.67,6.67,0,0,1,5.37-2.47,7,7,0,0,1,5.54,2.47,9.15,9.15,0,0,1,2.14,6.19Zm-2.31-.27a7.82,7.82,0,0,0-1.43-4.86,4.66,4.66,0,0,0-3.94-1.88,4.39,4.39,0,0,0-3.77,1.89,8.11,8.11,0,0,0-1.35,4.85V133a8.19,8.19,0,0,0,1.35,4.88,4.4,4.4,0,0,0,3.77,1.88,4.67,4.67,0,0,0,4-1.88,7.91,7.91,0,0,0,1.41-4.88Z"/><path class="cls-24" d="M279.48,132.72h-1.74l-.37-1.52a3.19,3.19,0,0,0-1.06-.64,4.12,4.12,0,0,0-1.45-.24,2.67,2.67,0,0,0-1.83.54,1.68,1.68,0,0,0-.6,1.3,1.44,1.44,0,0,0,.53,1.18,5.5,5.5,0,0,0,2.14.78,9.15,9.15,0,0,1,3.58,1.4,2.82,2.82,0,0,1,1.17,2.37,3.24,3.24,0,0,1-1.37,2.73,5.66,5.66,0,0,1-3.56,1,9.34,9.34,0,0,1-2.59-.34,6.58,6.58,0,0,1-2.05-1l0-2.89H272l.43,1.7a2.47,2.47,0,0,0,1.09.53,5.89,5.89,0,0,0,1.4.16,3.25,3.25,0,0,0,1.92-.5,1.52,1.52,0,0,0,.7-1.3,1.57,1.57,0,0,0-.58-1.26,5.43,5.43,0,0,0-2.2-.85,9.56,9.56,0,0,1-3.48-1.37,2.77,2.77,0,0,1-1.17-2.35,3.32,3.32,0,0,1,1.32-2.64,5.24,5.24,0,0,1,3.43-1.08,8.35,8.35,0,0,1,2.59.37,5.55,5.55,0,0,1,1.91,1Z"/><path class="cls-24" d="M287.69,144.81l1.91-.33V130.56l-1.91-.33v-1.49h3.89l.21,1.55a4.35,4.35,0,0,1,1.54-1.33,4.71,4.71,0,0,1,2.11-.45,4.22,4.22,0,0,1,3.66,1.86,8.49,8.49,0,0,1,1.3,4.94v.25a6.94,6.94,0,0,1-1.31,4.42,4.34,4.34,0,0,1-3.62,1.69,5.08,5.08,0,0,1-2.06-.4,4,4,0,0,1-1.5-1.16v4.37l1.91.33v1.48h-6.13Zm10.39-9.5a6.76,6.76,0,0,0-.84-3.55,2.75,2.75,0,0,0-2.51-1.38,3,3,0,0,0-1.68.45,3.32,3.32,0,0,0-1.14,1.21v6.18a3.15,3.15,0,0,0,1.13,1.21,3.18,3.18,0,0,0,1.72.43,2.85,2.85,0,0,0,2.48-1.19,5.31,5.31,0,0,0,.84-3.11Z"/><path class="cls-24" d="M302.5,139.94l1.91-.33v-9.05l-1.91-.33v-1.49h4.22v10.87l1.91.33v1.48H302.5Zm4.22-14.45h-2.31v-2.35h2.31Z"/><path class="cls-24" d="M310.07,124.63v-1.49h4.22v16.47l1.91.33v1.48h-6.13v-1.48l1.91-.33V125Z"/><path class="cls-24" d="M326.22,141.42c-.07-.34-.12-.65-.16-.93a7.34,7.34,0,0,1-.08-.82,5.79,5.79,0,0,1-1.67,1.43,4.79,4.79,0,0,1-5.16-.4,3.59,3.59,0,0,1-1-2.73,3.16,3.16,0,0,1,1.46-2.78,7.15,7.15,0,0,1,4-1H326v-1.47a2.29,2.29,0,0,0-.7-1.77,2.79,2.79,0,0,0-2-.65,5.13,5.13,0,0,0-1.53.22,3.07,3.07,0,0,0-1.07.61l-.24,1.34h-1.79V130a7,7,0,0,1,2.1-1.11,8.21,8.21,0,0,1,2.67-.41,5.3,5.3,0,0,1,3.5,1.1,3.84,3.84,0,0,1,1.33,3.15v6.1c0,.17,0,.33,0,.48a3.59,3.59,0,0,0,0,.47l.93.13v1.48Zm-3.71-1.69a4.06,4.06,0,0,0,2.09-.55,3.4,3.4,0,0,0,1.36-1.32v-2.09H323.5a3.49,3.49,0,0,0-2.24.66,2,2,0,0,0-.83,1.59,1.55,1.55,0,0,0,.52,1.27A2.31,2.31,0,0,0,322.51,139.73Z"/><path class="cls-24" d="M331.17,130.23v-1.49h4l.22,1.84a4.32,4.32,0,0,1,1.33-1.52,3.07,3.07,0,0,1,1.81-.55,3.6,3.6,0,0,1,.56,0,2.52,2.52,0,0,1,.44.08l-.31,2.15-1.31-.07a2.58,2.58,0,0,0-1.53.43,2.63,2.63,0,0,0-1,1.2v7.27l1.91.33v1.48h-6.13v-1.48l1.91-.33v-9.05Z"/><path class="cls-24" d="M346.66,141.67a5.32,5.32,0,0,1-4.21-1.77,6.59,6.59,0,0,1-1.57-4.57v-.52a6.54,6.54,0,0,1,1.61-4.51,5,5,0,0,1,3.82-1.79,4.81,4.81,0,0,1,3.87,1.54,6.15,6.15,0,0,1,1.32,4.13v1.44h-8.23l0,.06a5,5,0,0,0,.92,3,3,3,0,0,0,2.5,1.18,5.9,5.9,0,0,0,2.06-.33,4.72,4.72,0,0,0,1.52-.92l.91,1.5a5.8,5.8,0,0,1-1.8,1.1A7.2,7.2,0,0,1,346.66,141.67Zm-.35-11.35a2.49,2.49,0,0,0-2,1,4.56,4.56,0,0,0-1,2.46l0,.05h5.85v-.3a3.47,3.47,0,0,0-.73-2.27A2.58,2.58,0,0,0,346.31,130.32Z"/><path class="cls-24" d="M363.48,132.72h-1.74l-.37-1.52a3.19,3.19,0,0,0-1.06-.64,4.12,4.12,0,0,0-1.45-.24,2.67,2.67,0,0,0-1.83.54,1.68,1.68,0,0,0-.6,1.3,1.44,1.44,0,0,0,.53,1.18,5.5,5.5,0,0,0,2.14.78,9.15,9.15,0,0,1,3.58,1.4,2.82,2.82,0,0,1,1.17,2.37,3.24,3.24,0,0,1-1.37,2.73,5.66,5.66,0,0,1-3.56,1,9.34,9.34,0,0,1-2.59-.34,6.58,6.58,0,0,1-2.05-1l0-2.89H356l.43,1.7a2.47,2.47,0,0,0,1.09.53,5.89,5.89,0,0,0,1.4.16,3.25,3.25,0,0,0,1.92-.5,1.52,1.52,0,0,0,.7-1.3,1.57,1.57,0,0,0-.58-1.26,5.43,5.43,0,0,0-2.2-.85,9.56,9.56,0,0,1-3.48-1.37,2.77,2.77,0,0,1-1.17-2.35,3.32,3.32,0,0,1,1.32-2.64,5.24,5.24,0,0,1,3.43-1.08,8.35,8.35,0,0,1,2.59.37,5.55,5.55,0,0,1,1.91,1Z"/><path class="cls-24" d="M380.51,139.91a4.1,4.1,0,0,1-1.51,1.31,4.58,4.58,0,0,1-2.08.45,4.35,4.35,0,0,1-3.63-1.69,7,7,0,0,1-1.31-4.42v-.25a8.46,8.46,0,0,1,1.31-4.93,4.2,4.2,0,0,1,3.65-1.87,4.51,4.51,0,0,1,2,.41,4.23,4.23,0,0,1,1.47,1.2V125l-1.91-.32v-1.49h4.22v16.47l1.91.33v1.48H380.7Zm-6.22-4.35a5.34,5.34,0,0,0,.79,3.07,2.72,2.72,0,0,0,2.42,1.16,3.09,3.09,0,0,0,1.74-.47A3.58,3.58,0,0,0,380.4,138v-5.89a3.62,3.62,0,0,0-1.16-1.26,3.09,3.09,0,0,0-1.71-.47,2.64,2.64,0,0,0-2.45,1.37,7.16,7.16,0,0,0-.79,3.56Z"/><path class="cls-24" d="M386.39,135a6.94,6.94,0,0,1,1.52-4.63,5.08,5.08,0,0,1,4.14-1.82,5.14,5.14,0,0,1,4.15,1.81,7,7,0,0,1,1.53,4.64v.26a7,7,0,0,1-1.52,4.64,5.65,5.65,0,0,1-8.3,0,6.91,6.91,0,0,1-1.52-4.63Zm2.3.26a6.1,6.1,0,0,0,.85,3.33,3.07,3.07,0,0,0,5,0,6,6,0,0,0,.85-3.33V135a6,6,0,0,0-.85-3.31,2.82,2.82,0,0,0-2.52-1.33,2.77,2.77,0,0,0-2.51,1.33,6,6,0,0,0-.85,3.31Z"/><path class="cls-24" d="M413.43,124.36a6,6,0,0,1,4.25,1.4,5.29,5.29,0,0,1,0,7.42,6,6,0,0,1-4.25,1.4h-3.62v5l1.91.33v1.48h-6.13v-1.48l1.91-.33V126.17l-1.91-.33v-1.48h7.84Zm-3.62,8.41h3.62a3.1,3.1,0,0,0,3.46-3.28,3.42,3.42,0,0,0-.86-2.37,3.35,3.35,0,0,0-2.6-1h-3.62Z"/><path class="cls-24" d="M426.69,141.67a5.36,5.36,0,0,1-4.22-1.77,6.63,6.63,0,0,1-1.56-4.57v-.52a6.54,6.54,0,0,1,1.61-4.51,5,5,0,0,1,3.81-1.79,4.81,4.81,0,0,1,3.88,1.54,6.15,6.15,0,0,1,1.32,4.13v1.44H423.3l0,.06a5.05,5.05,0,0,0,.93,3,2.94,2.94,0,0,0,2.5,1.18,5.84,5.84,0,0,0,2.05-.33,4.88,4.88,0,0,0,1.53-.92l.9,1.5a5.63,5.63,0,0,1-1.79,1.1A7.24,7.24,0,0,1,426.69,141.67Zm-.36-11.35a2.52,2.52,0,0,0-2,1,4.63,4.63,0,0,0-1,2.46l0,.05h5.85v-.3a3.47,3.47,0,0,0-.73-2.27A2.58,2.58,0,0,0,426.33,130.32Z"/><path class="cls-24" d="M433.46,139.94l1.91-.33v-9.05l-1.91-.33v-1.49h4l.17,1.89a4.56,4.56,0,0,1,1.58-1.57,4.28,4.28,0,0,1,2.18-.55,4.12,4.12,0,0,1,3.17,1.2,5.26,5.26,0,0,1,1.13,3.71v6.19l1.91.33v1.48h-6.13v-1.48l1.91-.33v-6.15a3.44,3.44,0,0,0-.66-2.38,2.65,2.65,0,0,0-2-.7,3.26,3.26,0,0,0-1.77.48,3.5,3.5,0,0,0-1.22,1.31v7.44l1.91.33v1.48h-6.13Z"/><path class="cls-24" d="M459,132.72h-1.74l-.37-1.52a3.1,3.1,0,0,0-1.06-.64,4.12,4.12,0,0,0-1.45-.24,2.67,2.67,0,0,0-1.83.54,1.68,1.68,0,0,0-.6,1.3,1.44,1.44,0,0,0,.53,1.18,5.5,5.5,0,0,0,2.15.78,9.16,9.16,0,0,1,3.57,1.4,2.82,2.82,0,0,1,1.17,2.37,3.26,3.26,0,0,1-1.36,2.73,5.69,5.69,0,0,1-3.57,1,9.39,9.39,0,0,1-2.59-.34,6.58,6.58,0,0,1-2.05-1v-2.89h1.73l.43,1.7a2.47,2.47,0,0,0,1.09.53,6,6,0,0,0,1.4.16,3.3,3.3,0,0,0,1.93-.5,1.54,1.54,0,0,0,.69-1.3,1.57,1.57,0,0,0-.58-1.26,5.31,5.31,0,0,0-2.19-.85,9.42,9.42,0,0,1-3.48-1.37,2.78,2.78,0,0,1-1.18-2.35,3.32,3.32,0,0,1,1.32-2.64,5.24,5.24,0,0,1,3.43-1.08,8.35,8.35,0,0,1,2.59.37,5.46,5.46,0,0,1,1.91,1Z"/><path class="cls-24" d="M469.75,141.42c-.07-.34-.12-.65-.16-.93a7.34,7.34,0,0,1-.08-.82,5.79,5.79,0,0,1-1.67,1.43,4.77,4.77,0,0,1-5.15-.4,3.56,3.56,0,0,1-1-2.73,3.16,3.16,0,0,1,1.46-2.78,7.16,7.16,0,0,1,4-1h2.37v-1.47a2.29,2.29,0,0,0-.7-1.77,2.79,2.79,0,0,0-2-.65,5,5,0,0,0-1.52.22,3,3,0,0,0-1.08.61l-.24,1.34h-1.78V130a6.8,6.8,0,0,1,2.09-1.11,8.23,8.23,0,0,1,2.68-.41,5.29,5.29,0,0,1,3.49,1.1,3.84,3.84,0,0,1,1.33,3.15v6.1c0,.17,0,.33,0,.48a3.59,3.59,0,0,0,0,.47l.94.13v1.48ZM466,139.73a4.12,4.12,0,0,0,2.1-.55,3.43,3.43,0,0,0,1.35-1.32v-2.09H467a3.49,3.49,0,0,0-2.24.66A2,2,0,0,0,464,138a1.58,1.58,0,0,0,.52,1.27A2.31,2.31,0,0,0,466,139.73Z"/><path class="cls-24" d="M474.24,139.94l1.91-.33v-9.05l-1.91-.33v-1.49h4l.15,1.65A4.12,4.12,0,0,1,480,129a4.78,4.78,0,0,1,2.22-.49,3.94,3.94,0,0,1,2.18.58,3.55,3.55,0,0,1,1.36,1.76,4.68,4.68,0,0,1,1.59-1.71,4.14,4.14,0,0,1,2.29-.63,3.79,3.79,0,0,1,3.07,1.33,6.06,6.06,0,0,1,1.13,4v5.77l1.91.33v1.48h-6.14v-1.48l1.91-.33v-5.8a4.2,4.2,0,0,0-.65-2.65,2.33,2.33,0,0,0-1.91-.78,2.43,2.43,0,0,0-1.94.85,3.71,3.71,0,0,0-.85,2.14v6.24l1.91.33v1.48H481.9v-1.48l1.92-.33v-5.8a4.15,4.15,0,0,0-.67-2.6,2.31,2.31,0,0,0-1.91-.83,3.18,3.18,0,0,0-1.74.43,2.83,2.83,0,0,0-1,1.22v7.58l1.91.33v1.48h-6.13Z"/><path class="cls-24" d="M503.05,141.67a5.36,5.36,0,0,1-4.22-1.77,6.63,6.63,0,0,1-1.56-4.57v-.52a6.54,6.54,0,0,1,1.61-4.51,5,5,0,0,1,3.81-1.79,4.81,4.81,0,0,1,3.88,1.54,6.15,6.15,0,0,1,1.32,4.13v1.44h-8.23l0,.06a5.05,5.05,0,0,0,.93,3,2.94,2.94,0,0,0,2.5,1.18,5.84,5.84,0,0,0,2.05-.33,4.88,4.88,0,0,0,1.53-.92l.9,1.5a5.57,5.57,0,0,1-1.8,1.1A7.15,7.15,0,0,1,503.05,141.67Zm-.36-11.35a2.52,2.52,0,0,0-2,1,4.63,4.63,0,0,0-1,2.46l0,.05h5.85v-.3a3.53,3.53,0,0,0-.73-2.27A2.58,2.58,0,0,0,502.69,130.32Z"/><path class="cls-24" d="M509.82,139.94l1.91-.33v-9.05l-1.91-.33v-1.49h4l.17,1.89a4.56,4.56,0,0,1,1.58-1.57,4.26,4.26,0,0,1,2.18-.55,4.14,4.14,0,0,1,3.17,1.2,5.26,5.26,0,0,1,1.13,3.71v6.19l1.91.33v1.48H517.8v-1.48l1.91-.33v-6.15a3.44,3.44,0,0,0-.66-2.38,2.65,2.65,0,0,0-2-.7,3.26,3.26,0,0,0-1.77.48,3.5,3.5,0,0,0-1.22,1.31v7.44l1.91.33v1.48h-6.13Z"/><path class="cls-24" d="M529.64,125.68v3.06H532v1.71h-2.4v7.7a1.74,1.74,0,0,0,.36,1.25,1.33,1.33,0,0,0,1,.37,4.49,4.49,0,0,0,.69-.06,6,6,0,0,0,.64-.11l.31,1.58a2.77,2.77,0,0,1-1,.35,6,6,0,0,1-1.26.14,3,3,0,0,1-2.24-.85,3.68,3.68,0,0,1-.83-2.67v-7.7h-2v-1.71h2v-3.06Z"/><path class="cls-24" d="M534.17,135a7,7,0,0,1,1.52-4.63,5.64,5.64,0,0,1,8.29,0,7,7,0,0,1,1.53,4.64v.26a6.92,6.92,0,0,1-1.52,4.64,5.65,5.65,0,0,1-8.3,0,7,7,0,0,1-1.52-4.63Zm2.31.26a6,6,0,0,0,.85,3.33,3.06,3.06,0,0,0,5,0,6,6,0,0,0,.86-3.33V135a6,6,0,0,0-.86-3.31,3,3,0,0,0-5,0,6,6,0,0,0-.84,3.31Z"/><path class="cls-24" d="M566.61,129.59H565l-.43-2.41a4.39,4.39,0,0,0-1.39-.9,5.4,5.4,0,0,0-6,1.57,8,8,0,0,0-1.43,4.9V133a8.12,8.12,0,0,0,1.4,4.9,4.53,4.53,0,0,0,3.88,1.94,5.91,5.91,0,0,0,2.11-.36,4.14,4.14,0,0,0,1.47-.89l.43-2.42h1.63v3a6.42,6.42,0,0,1-2.22,1.69,7.43,7.43,0,0,1-3.42.75,6.9,6.9,0,0,1-5.46-2.47,9.1,9.1,0,0,1-2.13-6.18v-.25a9.18,9.18,0,0,1,2.1-6.2,6.86,6.86,0,0,1,5.49-2.46,7.31,7.31,0,0,1,3.42.76,6.42,6.42,0,0,1,2.22,1.69Z"/><path class="cls-24" d="M569.08,135a7,7,0,0,1,1.52-4.63,5.65,5.65,0,0,1,8.3,0,7,7,0,0,1,1.52,4.64v.26a6.92,6.92,0,0,1-1.52,4.64,5.65,5.65,0,0,1-8.3,0,7,7,0,0,1-1.52-4.63Zm2.31.26a6,6,0,0,0,.85,3.33,3.06,3.06,0,0,0,5,0,6,6,0,0,0,.86-3.33V135a6,6,0,0,0-.86-3.31,3,3,0,0,0-5,0,6,6,0,0,0-.84,3.31Z"/><path class="cls-24" d="M582.08,139.94l1.91-.33v-9.05l-1.91-.33v-1.49h4l.15,1.65a4.2,4.2,0,0,1,1.57-1.39,4.82,4.82,0,0,1,2.23-.49,3.91,3.91,0,0,1,2.17.58,3.57,3.57,0,0,1,1.37,1.76,4.74,4.74,0,0,1,1.58-1.71,4.18,4.18,0,0,1,2.3-.63,3.79,3.79,0,0,1,3.07,1.33,6.06,6.06,0,0,1,1.12,4v5.77l1.91.33v1.48h-6.14v-1.48l1.91-.33v-5.8a4.2,4.2,0,0,0-.64-2.65,2.34,2.34,0,0,0-1.91-.78,2.42,2.42,0,0,0-1.94.85,3.71,3.71,0,0,0-.85,2.14v6.24l1.91.33v1.48h-6.13v-1.48l1.91-.33v-5.8a4.16,4.16,0,0,0-.66-2.6,2.32,2.32,0,0,0-1.92-.83,3.15,3.15,0,0,0-1.73.43,2.83,2.83,0,0,0-1,1.22v7.58l1.91.33v1.48h-6.13Z"/><path class="cls-24" d="M604.93,144.81l1.91-.33V130.56l-1.91-.33v-1.49h3.89l.21,1.55a4.35,4.35,0,0,1,1.54-1.33,4.7,4.7,0,0,1,2.1-.45,4.23,4.23,0,0,1,3.67,1.86,8.49,8.49,0,0,1,1.3,4.94v.25a6.94,6.94,0,0,1-1.31,4.42,4.34,4.34,0,0,1-3.62,1.69,5.08,5.08,0,0,1-2.06-.4,4,4,0,0,1-1.5-1.16v4.37l1.91.33v1.48h-6.13Zm10.39-9.5a6.76,6.76,0,0,0-.84-3.55,2.75,2.75,0,0,0-2.51-1.38,3.09,3.09,0,0,0-1.69.45,3.38,3.38,0,0,0-1.13,1.21v6.18a3,3,0,0,0,2.84,1.64,2.86,2.86,0,0,0,2.49-1.19,5.31,5.31,0,0,0,.84-3.11Z"/><path class="cls-24" d="M628.81,139.54a4.14,4.14,0,0,1-3.71,2.13,4.09,4.09,0,0,1-3.23-1.33,6.16,6.16,0,0,1-1.16-4.12v-5.66l-1.45-.33v-1.49H623v7.5a4.72,4.72,0,0,0,.6,2.79,2.22,2.22,0,0,0,1.86.76,3.85,3.85,0,0,0,2-.5,3.1,3.1,0,0,0,1.21-1.41v-7.32l-1.7-.33v-1.49h4v10.87l1.45.33v1.48H629Z"/><path class="cls-24" d="M638.35,125.68v3.06h2.4v1.71h-2.4v7.7a1.7,1.7,0,0,0,.37,1.25,1.31,1.31,0,0,0,1,.37,4.37,4.37,0,0,0,.68-.06,5.55,5.55,0,0,0,.64-.11l.32,1.58a2.77,2.77,0,0,1-1,.35,6.1,6.1,0,0,1-1.27.14,3,3,0,0,1-2.24-.85,3.73,3.73,0,0,1-.83-2.67v-7.7h-2v-1.71h2v-3.06Z"/><path class="cls-24" d="M651.38,141.42c-.07-.34-.12-.65-.16-.93a7.34,7.34,0,0,1-.08-.82,5.79,5.79,0,0,1-1.67,1.43,4.77,4.77,0,0,1-5.15-.4,3.56,3.56,0,0,1-1-2.73,3.16,3.16,0,0,1,1.46-2.78,7.15,7.15,0,0,1,4-1h2.38v-1.47a2.29,2.29,0,0,0-.7-1.77,2.79,2.79,0,0,0-2-.65,5.13,5.13,0,0,0-1.53.22,3.07,3.07,0,0,0-1.07.61l-.24,1.34h-1.79V130a7,7,0,0,1,2.1-1.11,8.21,8.21,0,0,1,2.67-.41,5.3,5.3,0,0,1,3.5,1.1,3.84,3.84,0,0,1,1.33,3.15v6.1c0,.17,0,.33,0,.48a3.59,3.59,0,0,0,0,.47l.93.13v1.48Zm-3.71-1.69a4.06,4.06,0,0,0,2.09-.55,3.4,3.4,0,0,0,1.36-1.32v-2.09h-2.46a3.49,3.49,0,0,0-2.24.66,2,2,0,0,0-.83,1.59,1.55,1.55,0,0,0,.52,1.27A2.31,2.31,0,0,0,647.67,139.73Z"/><path class="cls-24" d="M662,139.86a3.11,3.11,0,0,0,2-.71,2.14,2.14,0,0,0,.88-1.74H667l0,.07a3.53,3.53,0,0,1-1.45,2.91,5.35,5.35,0,0,1-3.54,1.28,5.12,5.12,0,0,1-4.22-1.81,6.92,6.92,0,0,1-1.46-4.53v-.5a7,7,0,0,1,1.46-4.51,5.12,5.12,0,0,1,4.22-1.81,7,7,0,0,1,2.74.5,5.5,5.5,0,0,1,2,1.38l.1,2.81H665l-.5-2a3.11,3.11,0,0,0-1-.64,4,4,0,0,0-1.46-.25,2.78,2.78,0,0,0-2.59,1.31,6.14,6.14,0,0,0-.78,3.2v.5a6.22,6.22,0,0,0,.77,3.24A2.79,2.79,0,0,0,662,139.86Z"/><path class="cls-24" d="M669.26,139.94l1.91-.33v-9.05l-1.91-.33v-1.49h4.22v10.87l1.91.33v1.48h-6.13Zm4.22-14.45h-2.31v-2.35h2.31Z"/><path class="cls-24" d="M677.16,135a7,7,0,0,1,1.53-4.63,5.07,5.07,0,0,1,4.13-1.82,5.16,5.16,0,0,1,4.16,1.81,7,7,0,0,1,1.53,4.64v.26a6.92,6.92,0,0,1-1.53,4.64,5.64,5.64,0,0,1-8.29,0,6.91,6.91,0,0,1-1.53-4.63Zm2.31.26a6,6,0,0,0,.85,3.33,2.83,2.83,0,0,0,2.53,1.31,2.8,2.8,0,0,0,2.49-1.31,6,6,0,0,0,.86-3.33V135a6,6,0,0,0-.86-3.31,2.8,2.8,0,0,0-2.52-1.33,2.76,2.76,0,0,0-2.5,1.33,6,6,0,0,0-.85,3.31Z"/><path class="cls-24" d="M690.28,139.94l1.91-.33v-9.05l-1.91-.33v-1.49h4l.16,1.89a4.5,4.5,0,0,1,1.59-1.57,4.24,4.24,0,0,1,2.17-.55,4.15,4.15,0,0,1,3.18,1.2,5.26,5.26,0,0,1,1.13,3.71v6.19l1.91.33v1.48h-6.13v-1.48l1.91-.33v-6.15a3.39,3.39,0,0,0-.67-2.38,2.64,2.64,0,0,0-2-.7,3.25,3.25,0,0,0-1.76.48,3.61,3.61,0,0,0-1.23,1.31v7.44l1.91.33v1.48h-6.12Z"/><path class="cls-24" d="M714.33,141.42c-.07-.34-.12-.65-.16-.93a7.34,7.34,0,0,1-.08-.82,5.66,5.66,0,0,1-1.67,1.43,4.77,4.77,0,0,1-5.15-.4,3.55,3.55,0,0,1-1-2.73,3.14,3.14,0,0,1,1.46-2.78,7.1,7.1,0,0,1,4-1h2.38v-1.47a2.3,2.3,0,0,0-.71-1.77,2.78,2.78,0,0,0-2-.65,5,5,0,0,0-1.53.22,3,3,0,0,0-1.07.61l-.25,1.34h-1.78V130a7,7,0,0,1,2.1-1.11,8.21,8.21,0,0,1,2.67-.41,5.29,5.29,0,0,1,3.49,1.1,3.84,3.84,0,0,1,1.34,3.15v6.58c0,.16,0,.32,0,.47l.94.13v1.48Zm-3.71-1.69a4.09,4.09,0,0,0,2.1-.55,3.53,3.53,0,0,0,1.36-1.32v-2.09h-2.46a3.5,3.5,0,0,0-2.25.66,2,2,0,0,0-.82,1.59,1.57,1.57,0,0,0,.51,1.27A2.31,2.31,0,0,0,710.62,139.73Z"/><path class="cls-24" d="M719,124.63v-1.49h4.22v16.47l1.91.33v1.48H719v-1.48l1.91-.33V125Z"/><path class="cls-24" d="M738.59,141.67a5.34,5.34,0,0,1-4.21-1.77,6.63,6.63,0,0,1-1.56-4.57v-.52a6.49,6.49,0,0,1,1.61-4.51,4.93,4.93,0,0,1,3.81-1.79,4.81,4.81,0,0,1,3.87,1.54,6.15,6.15,0,0,1,1.32,4.13v1.44h-8.22l0,.06a4.92,4.92,0,0,0,.93,3,2.92,2.92,0,0,0,2.49,1.18,5.9,5.9,0,0,0,2.06-.33,4.88,4.88,0,0,0,1.53-.92l.9,1.5a5.57,5.57,0,0,1-1.8,1.1A7.17,7.17,0,0,1,738.59,141.67Zm-.35-11.35a2.52,2.52,0,0,0-2,1,4.64,4.64,0,0,0-1,2.46l0,.05h5.84v-.3a3.53,3.53,0,0,0-.72-2.27A2.61,2.61,0,0,0,738.24,130.32Z"/><path class="cls-24" d="M761.37,132.72h-1.73l-.38-1.52a3,3,0,0,0-1.06-.64,4,4,0,0,0-1.44-.24,2.67,2.67,0,0,0-1.83.54,1.68,1.68,0,0,0-.6,1.3,1.44,1.44,0,0,0,.53,1.18,5.44,5.44,0,0,0,2.14.78,9.21,9.21,0,0,1,3.58,1.4,2.82,2.82,0,0,1,1.17,2.37,3.27,3.27,0,0,1-1.37,2.73,5.68,5.68,0,0,1-3.56,1,9.29,9.29,0,0,1-2.59-.34,6.74,6.74,0,0,1-2.06-1v-2.89h1.74l.43,1.7a2.49,2.49,0,0,0,1.08.53,6,6,0,0,0,1.41.16,3.25,3.25,0,0,0,1.92-.5,1.52,1.52,0,0,0,.7-1.3,1.57,1.57,0,0,0-.58-1.26,5.43,5.43,0,0,0-2.2-.85,9.42,9.42,0,0,1-3.48-1.37,2.77,2.77,0,0,1-1.17-2.35,3.32,3.32,0,0,1,1.32-2.64,5.24,5.24,0,0,1,3.43-1.08,8.35,8.35,0,0,1,2.59.37,5.55,5.55,0,0,1,1.91,1Z"/><path class="cls-24" d="M773,139.54a4.25,4.25,0,0,1-1.55,1.57,4.17,4.17,0,0,1-2.17.56,4.07,4.07,0,0,1-3.22-1.33,6.11,6.11,0,0,1-1.16-4.12v-5.66l-1.46-.33v-1.49h3.77v7.5a4.81,4.81,0,0,0,.59,2.79,2.22,2.22,0,0,0,1.87.76,3.79,3.79,0,0,0,2-.5,3,3,0,0,0,1.21-1.41v-7.32l-1.7-.33v-1.49h4v10.87l1.45.33v1.48h-3.52Z"/><path class="cls-24" d="M786.76,141.42c-.07-.34-.13-.65-.17-.93s-.06-.54-.08-.82a5.54,5.54,0,0,1-1.67,1.43,4.77,4.77,0,0,1-5.15-.4,3.55,3.55,0,0,1-1-2.73,3.16,3.16,0,0,1,1.46-2.78,7.1,7.1,0,0,1,4-1h2.38v-1.47a2.33,2.33,0,0,0-.7-1.77,2.81,2.81,0,0,0-2-.65,5,5,0,0,0-1.53.22,3,3,0,0,0-1.07.61l-.25,1.34h-1.78V130a7,7,0,0,1,2.1-1.11,8.21,8.21,0,0,1,2.67-.41,5.27,5.27,0,0,1,3.49,1.1,3.84,3.84,0,0,1,1.34,3.15v6.58l0,.47.94.13v1.48ZM783,139.73a4.07,4.07,0,0,0,2.1-.55,3.46,3.46,0,0,0,1.36-1.32v-2.09H784a3.5,3.5,0,0,0-2.25.66A2,2,0,0,0,781,138a1.57,1.57,0,0,0,.51,1.27A2.34,2.34,0,0,0,783,139.73Z"/><path class="cls-24" d="M252.84,159v-1.49h4l.22,1.84a4.42,4.42,0,0,1,1.33-1.52,3.1,3.1,0,0,1,1.81-.56,3.64,3.64,0,0,1,.56,0,2.52,2.52,0,0,1,.44.08l-.3,2.15-1.32-.07a2.58,2.58,0,0,0-1.53.43,2.63,2.63,0,0,0-1,1.2v7.27l1.91.33v1.48h-6.13v-1.48l1.91-.33v-9Z"/><path class="cls-24" d="M268.33,170.46a5.33,5.33,0,0,1-4.21-1.76,6.64,6.64,0,0,1-1.57-4.57v-.52a6.48,6.48,0,0,1,1.62-4.51,5,5,0,0,1,3.81-1.8,4.81,4.81,0,0,1,3.87,1.55,6.15,6.15,0,0,1,1.32,4.13v1.44h-8.23l0,.06a4.92,4.92,0,0,0,.93,3,2.92,2.92,0,0,0,2.49,1.18,5.9,5.9,0,0,0,2.06-.33,4.88,4.88,0,0,0,1.53-.92l.9,1.5A5.57,5.57,0,0,1,271,170,7.21,7.21,0,0,1,268.33,170.46ZM268,159.12a2.52,2.52,0,0,0-2,1,4.64,4.64,0,0,0-1,2.45l0,.06h5.85v-.3a3.53,3.53,0,0,0-.72-2.27A2.61,2.61,0,0,0,268,159.12Z"/><path class="cls-24" d="M275.13,153.43v-1.49h4.22v16.47l1.91.33v1.48h-6.13v-1.48l1.91-.33V153.75Z"/><path class="cls-24" d="M291.28,170.22c-.07-.34-.13-.65-.17-.93s-.06-.54-.08-.82a5.66,5.66,0,0,1-1.67,1.43,4.83,4.83,0,0,1-5.15-.4,3.55,3.55,0,0,1-1-2.73,3.14,3.14,0,0,1,1.46-2.78,7.1,7.1,0,0,1,4-1H291v-1.47a2.33,2.33,0,0,0-.7-1.77,2.81,2.81,0,0,0-2-.65,5,5,0,0,0-1.53.22,3,3,0,0,0-1.07.61l-.25,1.34h-1.78v-2.46a7,7,0,0,1,2.1-1.11,8.21,8.21,0,0,1,2.67-.42,5.27,5.27,0,0,1,3.49,1.11,3.84,3.84,0,0,1,1.34,3.15v6.58l0,.47.94.13v1.48Zm-3.72-1.69a4.07,4.07,0,0,0,2.1-.55,3.53,3.53,0,0,0,1.36-1.32v-2.09h-2.46a3.5,3.5,0,0,0-2.25.66,2,2,0,0,0-.82,1.59,1.57,1.57,0,0,0,.51,1.27A2.4,2.4,0,0,0,287.56,168.53Z"/><path class="cls-24" d="M301.92,168.66a3.13,3.13,0,0,0,2-.71,2.16,2.16,0,0,0,.87-1.74h2.08l0,.07a3.54,3.54,0,0,1-1.46,2.91,5.32,5.32,0,0,1-3.53,1.27,5.12,5.12,0,0,1-4.23-1.8,7,7,0,0,1-1.46-4.53v-.5a6.91,6.91,0,0,1,1.47-4.51,5.1,5.1,0,0,1,4.22-1.82,7,7,0,0,1,2.73.51,5.5,5.5,0,0,1,2,1.38l.11,2.81h-1.84l-.51-2a3,3,0,0,0-1.05-.64,3.9,3.9,0,0,0-1.45-.25,2.79,2.79,0,0,0-2.6,1.31,6.14,6.14,0,0,0-.78,3.2v.5a6.22,6.22,0,0,0,.78,3.24A2.78,2.78,0,0,0,301.92,168.66Zm.09,1.66-.14.61a2.41,2.41,0,0,1,1.27.61,1.9,1.9,0,0,1,.5,1.42,2.09,2.09,0,0,1-.93,1.79,4.42,4.42,0,0,1-2.64.67l-.09-1.28a2.78,2.78,0,0,0,1.36-.28.93.93,0,0,0,.51-.86.81.81,0,0,0-.43-.79,3.91,3.91,0,0,0-1.44-.3l.38-1.59Z"/><path class="cls-24" d="M317.43,170.22c-.07-.34-.12-.65-.16-.93a7.34,7.34,0,0,1-.08-.82,5.79,5.79,0,0,1-1.67,1.43,4.83,4.83,0,0,1-5.15-.4,3.56,3.56,0,0,1-1-2.73,3.16,3.16,0,0,1,1.46-2.78,7.16,7.16,0,0,1,4-1h2.37v-1.47a2.29,2.29,0,0,0-.7-1.77,2.79,2.79,0,0,0-2-.65,5.13,5.13,0,0,0-1.53.22,3.07,3.07,0,0,0-1.07.61l-.24,1.34h-1.78v-2.46a6.8,6.8,0,0,1,2.09-1.11,8.21,8.21,0,0,1,2.67-.42,5.3,5.3,0,0,1,3.5,1.11,3.84,3.84,0,0,1,1.33,3.15v6.1c0,.17,0,.33,0,.48a3.59,3.59,0,0,0,0,.47l.94.13v1.48Zm1.15-17.8a2.64,2.64,0,0,1-.7,1.86,2.26,2.26,0,0,1-1.75.76,3.38,3.38,0,0,1-1.73-.54,3,3,0,0,0-1.5-.55,1.1,1.1,0,0,0-.84.38,1.34,1.34,0,0,0-.35.92l-1.25-.3a2.79,2.79,0,0,1,.69-1.89,2.18,2.18,0,0,1,1.75-.81,3.69,3.69,0,0,1,1.64.55,3.52,3.52,0,0,0,1.59.56A1.08,1.08,0,0,0,317,153a1.29,1.29,0,0,0,.36-.93Zm-4.86,16.11a4.12,4.12,0,0,0,2.1-.55,3.43,3.43,0,0,0,1.35-1.32v-2.09h-2.46a3.49,3.49,0,0,0-2.24.66,2,2,0,0,0-.83,1.59,1.58,1.58,0,0,0,.52,1.27A2.36,2.36,0,0,0,313.72,168.53Z"/><path class="cls-24" d="M322.39,163.76a7,7,0,0,1,1.52-4.63,5.62,5.62,0,0,1,8.29,0,7,7,0,0,1,1.53,4.64V164a6.92,6.92,0,0,1-1.52,4.64,5.67,5.67,0,0,1-8.3,0,7,7,0,0,1-1.52-4.63Zm2.31.26a6,6,0,0,0,.85,3.33,3.06,3.06,0,0,0,5,0,6,6,0,0,0,.85-3.33v-.26a6,6,0,0,0-.85-3.31,3,3,0,0,0-5,0,6,6,0,0,0-.84,3.31Z"/><path class="cls-24" d="M347.5,168.66a3.11,3.11,0,0,0,2-.71,2.14,2.14,0,0,0,.88-1.74h2.07l0,.07a3.53,3.53,0,0,1-1.45,2.91,5.34,5.34,0,0,1-3.54,1.27,5.11,5.11,0,0,1-4.22-1.8,7,7,0,0,1-1.46-4.53v-.5a7,7,0,0,1,1.46-4.51,5.12,5.12,0,0,1,4.22-1.82,7,7,0,0,1,2.74.51,5.5,5.5,0,0,1,2,1.38l.1,2.81h-1.84l-.5-2a3,3,0,0,0-1.05-.64,4,4,0,0,0-1.46-.25,2.78,2.78,0,0,0-2.59,1.31,6.14,6.14,0,0,0-.78,3.2v.5a6.32,6.32,0,0,0,.77,3.24A2.79,2.79,0,0,0,347.5,168.66Z"/><path class="cls-24" d="M354.76,163.76a6.94,6.94,0,0,1,1.52-4.63,5.62,5.62,0,0,1,8.29,0,7,7,0,0,1,1.53,4.64V164a7,7,0,0,1-1.52,4.64,5.67,5.67,0,0,1-8.3,0,6.91,6.91,0,0,1-1.52-4.63Zm2.31.26a6.09,6.09,0,0,0,.84,3.33,3.07,3.07,0,0,0,5,0,6,6,0,0,0,.85-3.33v-.26a6,6,0,0,0-.85-3.31,3,3,0,0,0-5,0,6,6,0,0,0-.84,3.31Z"/><path class="cls-24" d="M367.75,168.74l1.91-.33v-9l-1.91-.33v-1.49h4l.15,1.65a4.2,4.2,0,0,1,1.57-1.39,4.79,4.79,0,0,1,2.23-.5,3.94,3.94,0,0,1,2.17.59,3.57,3.57,0,0,1,1.37,1.76,4.57,4.57,0,0,1,1.58-1.71,4.15,4.15,0,0,1,2.29-.64,3.82,3.82,0,0,1,3.07,1.33,6.11,6.11,0,0,1,1.13,4v5.77l1.91.33v1.48h-6.14v-1.48l1.91-.33v-5.8a4.2,4.2,0,0,0-.65-2.65,2.33,2.33,0,0,0-1.91-.78,2.43,2.43,0,0,0-1.94.85,3.7,3.7,0,0,0-.84,2.14v6.24l1.91.33v1.48h-6.13v-1.48l1.91-.33v-5.8a4.09,4.09,0,0,0-.67-2.6,2.31,2.31,0,0,0-1.91-.83,3.21,3.21,0,0,0-1.74.43,2.83,2.83,0,0,0-1,1.22v7.58l1.91.33v1.48h-6.13Z"/><path class="cls-24" d="M405.12,170.22c-.07-.34-.12-.65-.16-.93a7.34,7.34,0,0,1-.08-.82,5.66,5.66,0,0,1-1.67,1.43,4.83,4.83,0,0,1-5.15-.4,3.55,3.55,0,0,1-1-2.73,3.15,3.15,0,0,1,1.45-2.78,7.16,7.16,0,0,1,4-1h2.38v-1.47a2.3,2.3,0,0,0-.71-1.77,2.78,2.78,0,0,0-2-.65,5,5,0,0,0-1.53.22,3,3,0,0,0-1.08.61l-.24,1.34h-1.78v-2.46a6.8,6.8,0,0,1,2.09-1.11,8.27,8.27,0,0,1,2.68-.42,5.29,5.29,0,0,1,3.49,1.11,3.84,3.84,0,0,1,1.33,3.15v6.1c0,.17,0,.33,0,.48a3.59,3.59,0,0,0,0,.47l.94.13v1.48Zm-3.71-1.69a4.12,4.12,0,0,0,2.1-.55,3.53,3.53,0,0,0,1.36-1.32v-2.09H402.4a3.49,3.49,0,0,0-2.24.66,2,2,0,0,0-.83,1.59,1.58,1.58,0,0,0,.52,1.27A2.36,2.36,0,0,0,401.41,168.53Z"/><path class="cls-24" d="M429.05,158.39h-1.63L427,156a4.34,4.34,0,0,0-1.38-.9,4.87,4.87,0,0,0-2-.35,4.79,4.79,0,0,0-4.09,1.92,8,8,0,0,0-1.43,4.9v.27a8.18,8.18,0,0,0,1.4,4.9,4.54,4.54,0,0,0,3.89,1.94,6,6,0,0,0,2.11-.36,4.14,4.14,0,0,0,1.46-.89l.43-2.42h1.63v3a6.47,6.47,0,0,1-2.21,1.69,7.48,7.48,0,0,1-3.42.74A6.9,6.9,0,0,1,418,168a9.06,9.06,0,0,1-2.14-6.18v-.25a9.18,9.18,0,0,1,2.1-6.2,6.88,6.88,0,0,1,5.5-2.46,7.36,7.36,0,0,1,3.42.76,6.47,6.47,0,0,1,2.21,1.69Z"/><path class="cls-24" d="M431.53,163.76a6.94,6.94,0,0,1,1.52-4.63,5.62,5.62,0,0,1,8.29,0,7,7,0,0,1,1.53,4.64V164a7,7,0,0,1-1.52,4.64,5.67,5.67,0,0,1-8.3,0,6.91,6.91,0,0,1-1.52-4.63Zm2.3.26a6.1,6.1,0,0,0,.85,3.33,3.07,3.07,0,0,0,5,0,6,6,0,0,0,.85-3.33v-.26a6,6,0,0,0-.85-3.31,3,3,0,0,0-5,0,6,6,0,0,0-.85,3.31Z"/><path class="cls-24" d="M445,163.76a7,7,0,0,1,1.52-4.63,5.63,5.63,0,0,1,8.3,0,7,7,0,0,1,1.52,4.64V164a6.92,6.92,0,0,1-1.52,4.64,5.67,5.67,0,0,1-8.3,0A7,7,0,0,1,445,164Zm2.31.26a6,6,0,0,0,.85,3.33,3.06,3.06,0,0,0,5,0A6,6,0,0,0,454,164v-.26a6,6,0,0,0-.86-3.31,3,3,0,0,0-5,0,6,6,0,0,0-.84,3.31Z"/><path class="cls-24" d="M458.16,173.61l1.91-.33V159.36l-1.91-.33v-1.49h3.89l.21,1.55a4.38,4.38,0,0,1,1.55-1.33,4.64,4.64,0,0,1,2.1-.46,4.22,4.22,0,0,1,3.66,1.87,8.49,8.49,0,0,1,1.31,4.94v.25a7,7,0,0,1-1.31,4.42,4.36,4.36,0,0,1-3.63,1.68,5,5,0,0,1-2.05-.39,4.06,4.06,0,0,1-1.51-1.16v4.37l1.91.33v1.48h-6.13Zm10.4-9.5a6.67,6.67,0,0,0-.85-3.55,2.74,2.74,0,0,0-2.5-1.38,3.07,3.07,0,0,0-1.69.45,3.32,3.32,0,0,0-1.14,1.21V167a3,3,0,0,0,2.85,1.64,2.84,2.84,0,0,0,2.48-1.2,5.19,5.19,0,0,0,.85-3.1Z"/><path class="cls-24" d="M478.76,170.46a5.33,5.33,0,0,1-4.21-1.76,6.63,6.63,0,0,1-1.56-4.57v-.52a6.48,6.48,0,0,1,1.61-4.51,5,5,0,0,1,3.81-1.8,4.82,4.82,0,0,1,3.88,1.55A6.2,6.2,0,0,1,483.6,163v1.44h-8.22l0,.06a5,5,0,0,0,.93,3,2.92,2.92,0,0,0,2.49,1.18,5.86,5.86,0,0,0,2.06-.33,4.88,4.88,0,0,0,1.53-.92l.9,1.5a5.57,5.57,0,0,1-1.8,1.1A7.18,7.18,0,0,1,478.76,170.46Zm-.35-11.34a2.52,2.52,0,0,0-2,1,4.72,4.72,0,0,0-1,2.45l0,.06h5.85v-.3a3.53,3.53,0,0,0-.73-2.27A2.6,2.6,0,0,0,478.41,159.12Z"/><path class="cls-24" d="M485.88,159v-1.49h4l.22,1.84a4.42,4.42,0,0,1,1.33-1.52,3.08,3.08,0,0,1,1.81-.56,3.64,3.64,0,0,1,.56,0,2.52,2.52,0,0,1,.44.08l-.31,2.15-1.31-.07a2.58,2.58,0,0,0-1.53.43,2.63,2.63,0,0,0-1,1.2v7.27l1.91.33v1.48h-6.13v-1.48l1.91-.33v-9Z"/><path class="cls-24" d="M504.08,170.22c-.07-.34-.13-.65-.17-.93s-.06-.54-.08-.82a5.54,5.54,0,0,1-1.67,1.43,4.83,4.83,0,0,1-5.15-.4,3.55,3.55,0,0,1-1-2.73,3.16,3.16,0,0,1,1.46-2.78,7.1,7.1,0,0,1,4-1h2.38v-1.47a2.33,2.33,0,0,0-.7-1.77,2.81,2.81,0,0,0-2-.65,5,5,0,0,0-1.53.22,3,3,0,0,0-1.07.61l-.25,1.34h-1.78v-2.46a7,7,0,0,1,2.1-1.11,8.21,8.21,0,0,1,2.67-.42,5.27,5.27,0,0,1,3.49,1.11,3.84,3.84,0,0,1,1.34,3.15v6.58l0,.47.94.13v1.48Zm-3.72-1.69a4.07,4.07,0,0,0,2.1-.55,3.46,3.46,0,0,0,1.36-1.32v-2.09h-2.46a3.5,3.5,0,0,0-2.25.66,2,2,0,0,0-.82,1.59,1.57,1.57,0,0,0,.51,1.27A2.4,2.4,0,0,0,500.36,168.53Z"/><path class="cls-24" d="M514.72,168.66a3.13,3.13,0,0,0,2-.71,2.16,2.16,0,0,0,.87-1.74h2.08l0,.07a3.54,3.54,0,0,1-1.46,2.91,5.32,5.32,0,0,1-3.53,1.27,5.13,5.13,0,0,1-4.23-1.8,7,7,0,0,1-1.46-4.53v-.5a6.91,6.91,0,0,1,1.47-4.51,5.11,5.11,0,0,1,4.22-1.82,7,7,0,0,1,2.73.51,5.5,5.5,0,0,1,2,1.38l.11,2.81h-1.84l-.5-2a3.16,3.16,0,0,0-1.06-.64,3.9,3.9,0,0,0-1.45-.25,2.79,2.79,0,0,0-2.6,1.31,6.14,6.14,0,0,0-.78,3.2v.5a6.22,6.22,0,0,0,.78,3.24A2.78,2.78,0,0,0,514.72,168.66Zm.09,1.66-.14.61a2.41,2.41,0,0,1,1.27.61,1.9,1.9,0,0,1,.5,1.42,2.09,2.09,0,0,1-.93,1.79,4.42,4.42,0,0,1-2.64.67l-.09-1.28a2.78,2.78,0,0,0,1.36-.28.93.93,0,0,0,.51-.86.82.82,0,0,0-.42-.79,4,4,0,0,0-1.45-.3l.38-1.59Z"/><path class="cls-24" d="M530.23,170.22c-.07-.34-.12-.65-.16-.93a7.34,7.34,0,0,1-.08-.82,5.79,5.79,0,0,1-1.67,1.43,4.83,4.83,0,0,1-5.15-.4,3.55,3.55,0,0,1-1-2.73,3.15,3.15,0,0,1,1.45-2.78,7.16,7.16,0,0,1,4-1H530v-1.47a2.3,2.3,0,0,0-.71-1.77,2.78,2.78,0,0,0-1.95-.65,5,5,0,0,0-1.53.22,3,3,0,0,0-1.08.61l-.24,1.34h-1.78v-2.46a6.8,6.8,0,0,1,2.09-1.11,8.23,8.23,0,0,1,2.68-.42,5.29,5.29,0,0,1,3.49,1.11,3.84,3.84,0,0,1,1.33,3.15v6.1c0,.17,0,.33,0,.48a3.59,3.59,0,0,0,0,.47l.94.13v1.48Zm1.15-17.8a2.64,2.64,0,0,1-.7,1.86,2.24,2.24,0,0,1-1.75.76,3.38,3.38,0,0,1-1.73-.54,3,3,0,0,0-1.5-.55,1.1,1.1,0,0,0-.84.38,1.34,1.34,0,0,0-.35.92l-1.25-.3a2.79,2.79,0,0,1,.69-1.89,2.18,2.18,0,0,1,1.75-.81,3.66,3.66,0,0,1,1.64.55,3.52,3.52,0,0,0,1.59.56,1.08,1.08,0,0,0,.83-.39,1.29,1.29,0,0,0,.36-.93Zm-4.86,16.11a4.12,4.12,0,0,0,2.1-.55,3.53,3.53,0,0,0,1.36-1.32v-2.09h-2.47a3.49,3.49,0,0,0-2.24.66,2,2,0,0,0-.83,1.59,1.58,1.58,0,0,0,.52,1.27A2.36,2.36,0,0,0,526.52,168.53Z"/><path class="cls-24" d="M535.19,163.76a7,7,0,0,1,1.52-4.63,5.62,5.62,0,0,1,8.29,0,7,7,0,0,1,1.53,4.64V164a6.92,6.92,0,0,1-1.52,4.64,5.67,5.67,0,0,1-8.3,0,7,7,0,0,1-1.52-4.63Zm2.31.26a6,6,0,0,0,.85,3.33,3.06,3.06,0,0,0,5,0,6,6,0,0,0,.86-3.33v-.26a6,6,0,0,0-.86-3.31,3,3,0,0,0-5,0,6,6,0,0,0-.84,3.31Z"/><path class="cls-24" d="M551.61,170.22H549.3v-2.37h2.31Z"/></svg>