<svg id="Camada_1" data-name="Camada 1" xmlns="http://www.w3.org/2000/svg" xmlns:xlink="http://www.w3.org/1999/xlink" viewBox="0 0 881 246.26"><defs><style>.cls-1{fill:none;}.cls-2{fill:#65c4d1;}.cls-3{fill:#f9f9f9;}.cls-4{fill:#97d8dd;}.cls-5{fill:#fff;}.cls-6{clip-path:url(#clip-path);}.cls-7{fill:#eaa000;}.cls-8{fill:#eac2a7;}.cls-9{fill:#c9a68f;}.cls-10{fill:#d6aa8b;}.cls-11{fill:#d6d6d6;}.cls-12{fill:#c99f4b;}.cls-13{fill:#6d5f56;}.cls-14{fill:#493e38;}.cls-15{clip-path:url(#clip-path-2);}.cls-16{fill:#fcfcfc;}.cls-17{fill:#d32222;}.cls-18{fill:#f4f4f4;}.cls-19{clip-path:url(#clip-path-3);}.cls-20{fill:#b7b7b7;}.cls-21{fill:#6d472e;}.cls-22{fill:#c99e32;}.cls-23{clip-path:url(#clip-path-4);}.cls-24{fill:#aa7e30;}.cls-25{fill:#ddd;}.cls-26{fill:#846829;}.cls-27{fill:#e8cd95;}</style><clipPath id="clip-path"><path class="cls-1" d="M152,228.48s-31.64,24-84.64,4.29S21.26,61.32,21.26,61.32,47.22,0,96.5,0c11.07,0,52,5.07,52,28.44S176.8,156.72,176.8,156.72s11.88,46,5.94,49.51"/></clipPath><clipPath id="clip-path-2"><path class="cls-1" d="M101.14,68.73c-.23-.33,16.36,3.89,23.58.27,0,0-.92,13-6.89,13.42C111.68,82.85,105.27,79.32,101.14,68.73Z"/></clipPath><clipPath id="clip-path-3"><path class="cls-1" d="M114.42,244.64c3.59,7.11,28.79,8.61,30.88,9.27,0,0,.66-28.54-3.37-44.58S114.42,244.64,114.42,244.64Z"/></clipPath><clipPath id="clip-path-4"><path class="cls-1" d="M83.77,67.73c4.45,1.84.62-6.13.62-6.13s-.42-8-2.68-9.35a32.26,32.26,0,0,1-4.94-4l11.36-7.78,31-21.29s4.29-6-5.51-9.65A11.66,11.66,0,0,0,101.78,6S97.49.84,91.28,5.56c0,0-12.49-.73-15.32,5.4a4.66,4.66,0,0,0-4.6,2.6s-2.6,1-3.1,3.1c0,0-6.32,2.49-6.7,6.71,0,0-3.45,4.83-.69,8.73,0,0-1.82,3.43.53,5.79,0,0-5.28,5.78,0,9.38,0,0-1.3,3.76,6.44,5.29l2.3,4.75s2.21-1,8.58,5.36S83.77,67.73,83.77,67.73Z"/></clipPath></defs><title>7-intro</title><path class="cls-2" d="M871,191.83H152V104.47H871c5.52,0,10,2.41,10,5.37v76.62C881,189.43,876.52,191.83,871,191.83Z"/><circle class="cls-3" cx="106" cy="140.26" r="103"/><path class="cls-2" d="M106,40.26a100,100,0,1,1-100,100,100,100,0,0,1,100-100m0-6a106,106,0,1,0,106,106,106.12,106.12,0,0,0-106-106Z"/><path class="cls-4" d="M105.74,40.44a99.74,99.74,0,1,0,99.74,99.74A99.74,99.74,0,0,0,105.74,40.44Zm0,192.83a93.09,93.09,0,1,1,93.09-93.09A93.09,93.09,0,0,1,105.74,233.27Z"/><path class="cls-4" d="M152.81,67.73a3.33,3.33,0,0,0-4.61,1l-5.43,8.36a3.32,3.32,0,0,0-.46,2.55,3.28,3.28,0,0,0,1.51,2.1,42.72,42.72,0,0,1,3.73,2.66c.75.57,1.5,1.14,2.08,1.55,1,.85,2,1.75,3,2.66l-2.3,2.29a66.28,66.28,0,0,0-14.57-10l6.8-15.25a3.32,3.32,0,0,0-1.69-4.39A86.9,86.9,0,0,0,110.25,54a3.32,3.32,0,0,0-3.49,3.15l-.52,10a3.33,3.33,0,0,0,3.14,3.49l3.5.18,3.73.57,1.44.22c.72.1,1.44.2,2.07.34l.45.12-.87,3.26a68.05,68.05,0,0,0-17.61-1.43l-1.72-16.63a3.33,3.33,0,0,0-3.66-3,85.53,85.53,0,0,0-30.2,9,3.32,3.32,0,0,0-1.45,4.47l4.54,8.88A3.33,3.33,0,0,0,74,78.08c.67-.31,1.33-.64,2-1a34.37,34.37,0,0,1,4.75-2.05l.85-.31c1-.37,2-.73,2.93-1.06l.86,3.22c-.82.28-1.61.57-2.4.87l-.79.3a30.1,30.1,0,0,0-4.72,2l-2,1L69.8,84.3c-.13.07-.26.14-.38.22L59.61,71.05A3.33,3.33,0,0,0,55,70.31a86.67,86.67,0,0,0-21.69,22.8,3.31,3.31,0,0,0-.46,2.51,3.35,3.35,0,0,0,1.44,2.1l8.36,5.44a3.33,3.33,0,0,0,4.65-1.06,42.46,42.46,0,0,1,2.65-3.72c.58-.76,1.15-1.51,1.56-2.1.85-1,1.75-2,2.65-3l2.3,2.3a66.28,66.28,0,0,0-10,14.57l-15.25-6.8A3.34,3.34,0,0,0,26.8,105a87,87,0,0,0-7.29,30.64,3.32,3.32,0,0,0,3.15,3.49l10,.52a3.32,3.32,0,0,0,2.4-.85,3.26,3.26,0,0,0,1.09-2.29l.18-3.5.56-3.73c.09-.48.16-1,.22-1.44.11-.72.21-1.44.35-2.07l.12-.45,3.25.87a67.57,67.57,0,0,0-1.42,17.6l-16.64,1.73a3.33,3.33,0,0,0-3,3.65,86.68,86.68,0,0,0,9,30.21,3.33,3.33,0,0,0,4.47,1.45l8.88-4.53A3.33,3.33,0,0,0,43.63,172c-.31-.66-.63-1.31-1-2a34.21,34.21,0,0,1-2-4.78l-.33-.88c-.37-1-.72-2-1-2.9l3.26-.87a65.71,65.71,0,0,0,7.59,15.91L36.6,186.31a3.31,3.31,0,0,0-.73,4.64,86.47,86.47,0,0,0,22.8,21.68,3.32,3.32,0,0,0,4.6-1l5.44-8.36a3.31,3.31,0,0,0-1.06-4.65c-1.28-.82-2.53-1.71-3.73-2.66-.74-.57-1.49-1.14-2.08-1.55-1-.85-2-1.75-3-2.65l2.35-2.36c.89.82,1.81,1.64,2.92,2.55.64.45,1.27.94,1.9,1.42A39.9,39.9,0,0,0,69.71,196l5.93,3.41.08,0-6.81,15.27a3.32,3.32,0,0,0,1.68,4.39,87,87,0,0,0,30.64,7.3h.17a3.32,3.32,0,0,0,3.32-3.15l.51-10a3.31,3.31,0,0,0-3.14-3.49l-3.49-.18-3.73-.57-1.44-.22c-.72-.1-1.44-.2-2.07-.35l-.46-.11.88-3.26a68,68,0,0,0,17.6,1.43l1.73,16.63a3.33,3.33,0,0,0,3.65,3,85.78,85.78,0,0,0,30.21-9,3.32,3.32,0,0,0,1.45-4.47l-4.54-8.89a3.31,3.31,0,0,0-4.35-1.5c-.67.31-1.33.63-2,1a35.57,35.57,0,0,1-4.75,2l-.85.31c-1,.37-2,.73-2.93,1.06l-.88-3.26A66,66,0,0,0,142,195.81l9.83,13.5a3.32,3.32,0,0,0,4.64.74,86.47,86.47,0,0,0,21.68-22.8,3.34,3.34,0,0,0,.47-2.5,3.29,3.29,0,0,0-1.44-2.1l-8.36-5.45a3.37,3.37,0,0,0-2.55-.45,3.32,3.32,0,0,0-2.1,1.51,42.46,42.46,0,0,1-2.65,3.72c-.58.76-1.15,1.51-1.56,2.1-.85,1-1.75,2-2.66,3l-2.29-2.3a66.28,66.28,0,0,0,10-14.57l15.25,6.8a3.32,3.32,0,0,0,4.39-1.68,87,87,0,0,0,7.3-30.64,3.33,3.33,0,0,0-3.15-3.49l-10-.51a3.34,3.34,0,0,0-3.49,3.14l-.18,3.5-.57,3.72c-.08.48-.15,1-.22,1.45-.1.71-.2,1.44-.35,2.06l-.11.46-3.21-.86,0-.08a23.27,23.27,0,0,0,.41-2.36c.05-.36.1-.73.17-1.15l.51-3.26c0-.12,0-.23,0-.34l.17-3.48v-6.94l16.7-1.74a3.31,3.31,0,0,0,3-3.65,86.68,86.68,0,0,0-9-30.21,3.33,3.33,0,0,0-4.47-1.45L169.35,104a3.33,3.33,0,0,0-1.51,4.36c.31.66.63,1.31.95,2a34.21,34.21,0,0,1,2.05,4.78l.33.88c.37,1,.73,2,1,2.9l-3.25.87a66.08,66.08,0,0,0-7.59-15.91l13.5-9.83a3.33,3.33,0,0,0,.74-4.64A86.47,86.47,0,0,0,152.81,67.73Zm2,32.68a3.32,3.32,0,0,0-.73,4.65,59.12,59.12,0,0,1,9.37,19.64,3.33,3.33,0,0,0,4.07,2.35l9.64-2.57a3.33,3.33,0,0,0,2.39-3.91,48.49,48.49,0,0,0-2.17-6.87l-.26-.71a34.82,34.82,0,0,0-1.87-4.51l3-1.51a80.15,80.15,0,0,1,6.44,21.58l-16.46,1.71a3.33,3.33,0,0,0-3,3.48l.17,3.22v6.36l-.17,3.13-.47,3.05c-.07.44-.14.87-.2,1.31-.08.59-.16,1.18-.27,1.68l-.83,3.19a3.32,3.32,0,0,0,2.36,4l9.63,2.58A3.32,3.32,0,0,0,178,162a3.28,3.28,0,0,0,1.54-2l1-3.79c.2-.88.33-1.79.46-2.69.06-.42.12-.85.2-1.33l.62-4.1,0-.51,3.27.16a80.75,80.75,0,0,1-5.21,21.89l-15.11-6.74a3.35,3.35,0,0,0-4.4,1.69,59.45,59.45,0,0,1-12.32,18,3.33,3.33,0,0,0,0,4.7l7.05,7.05a3.25,3.25,0,0,0,2.45,1,3.35,3.35,0,0,0,2.38-1.11q.9-1,1.8-2c1.16-1.26,2.31-2.51,3.53-4,.5-.72,1-1.41,1.57-2.11q.56-.72,1.11-1.47l2.8,1.82a79.82,79.82,0,0,1-15.5,16.29l-9.75-13.39a3.34,3.34,0,0,0-4.64-.73,59.12,59.12,0,0,1-19.64,9.37,3.34,3.34,0,0,0-2.36,4.08l2.58,9.63a3.32,3.32,0,0,0,3.91,2.39,48.74,48.74,0,0,0,6.89-2.17l.69-.26a34.82,34.82,0,0,0,4.51-1.87l1.51,3a80.24,80.24,0,0,1-21.58,6.43l-1.71-16.45a3.26,3.26,0,0,0-1.19-2.24,3.31,3.31,0,0,0-2.44-.73,61.22,61.22,0,0,1-21.77-1.77,3.32,3.32,0,0,0-4.07,2.35l-2.58,9.64a3.3,3.3,0,0,0,.34,2.53A3.33,3.33,0,0,0,86,214l3.79,1c.89.21,1.8.35,2.7.48l1.32.2,4.11.61.51,0-.17,3.26a80.4,80.4,0,0,1-21.88-5.21l6.73-15.11a3.33,3.33,0,0,0-1.59-4.35l-2.76-1.32-5.67-3.26a32,32,0,0,1-3-2.16c-.7-.54-1.41-1.08-1.92-1.42-1-.8-1.88-1.64-2.8-2.48-.68-.63-1.37-1.26-2.07-1.88a3.34,3.34,0,0,0-4.54.16l-7,7.05a3.32,3.32,0,0,0,.14,4.84l1.95,1.77c1.27,1.16,2.53,2.32,4,3.55.71.51,1.4,1,2.1,1.57l1.48,1.12-1.82,2.79a79.82,79.82,0,0,1-16.29-15.5L56.64,180a3.33,3.33,0,0,0,.74-4.64A59.49,59.49,0,0,1,48,155.66a3.32,3.32,0,0,0-4.06-2.35l-9.64,2.58a3.31,3.31,0,0,0-2.39,3.9,48,48,0,0,0,2.16,6.87l.27.71a34.9,34.9,0,0,0,1.86,4.52l-3,1.51a80.58,80.58,0,0,1-6.44-21.59l16.46-1.71a3.33,3.33,0,0,0,3-3.63A61,61,0,0,1,48,124.7a3.32,3.32,0,0,0-2.35-4.07L36,118.05a3.35,3.35,0,0,0-4.08,2.39l-1,3.79c-.2.89-.34,1.79-.47,2.69-.06.42-.12.85-.2,1.33l-.61,4.1,0,.51-3.26-.16a80.45,80.45,0,0,1,5.2-21.89l15.12,6.74a3.33,3.33,0,0,0,4.39-1.69,59.66,59.66,0,0,1,12.33-18,3.32,3.32,0,0,0,0-4.69l-7.05-7.06a3.3,3.3,0,0,0-2.45-1,3.35,3.35,0,0,0-2.39,1.11c-.59.67-1.19,1.33-1.8,2-1.15,1.25-2.3,2.5-3.52,4-.51.71-1,1.4-1.57,2.1-.37.48-.75,1-1.12,1.47L40.73,94A79.82,79.82,0,0,1,56.23,77.7L66,91.09a3.35,3.35,0,0,0,4.65.73l.77-.59A11.16,11.16,0,0,1,73,90.12L78.46,87l1.91-.92a26.14,26.14,0,0,1,3.89-1.66l1-.37a34.15,34.15,0,0,1,4.82-1.53,3.32,3.32,0,0,0,2.54-4.11L90,68.74a3.33,3.33,0,0,0-3.91-2.39,49.2,49.2,0,0,0-6.89,2.18l-.69.25A34.69,34.69,0,0,0,74,70.65l-1.52-3a80.33,80.33,0,0,1,21.59-6.44l1.7,16.46a3.29,3.29,0,0,0,3.63,3,61,61,0,0,1,21.77,1.78,3.39,3.39,0,0,0,2.53-.34,3.27,3.27,0,0,0,1.54-2l2.58-9.63a3.32,3.32,0,0,0-2.38-4.08l-3.78-1c-.9-.21-1.8-.34-2.71-.47l-1.32-.21-4.1-.61-.52,0,.17-3.26A80.47,80.47,0,0,1,135.11,66l-6.74,15.11a3.34,3.34,0,0,0,1.7,4.4,59.53,59.53,0,0,1,18,12.32,3.33,3.33,0,0,0,4.7,0l7.05-7a3.33,3.33,0,0,0-.14-4.83l-2-1.78c-1.26-1.16-2.52-2.32-4-3.55-.71-.5-1.4-1-2.09-1.56L150.11,78l1.81-2.8a79.61,79.61,0,0,1,16.3,15.5Z"/><path class="cls-4" d="M105.74,87a53.09,53.09,0,0,0-45.87,80,3.79,3.79,0,0,0,.2.34,53.59,53.59,0,0,0,13.56,15.17c.09.06.14.15.23.2l.07,0a52.79,52.79,0,0,0,63.6,0l.09,0c.09-.05.14-.14.22-.2a53.29,53.29,0,0,0,13.56-15.17,2.39,2.39,0,0,0,.21-.34,53.09,53.09,0,0,0-45.87-80Zm-6,7.08-36.9,64.18a46.5,46.5,0,0,1,36.9-64.18ZM79.9,178.87,105.74,134l25.84,44.92a46.44,46.44,0,0,1-51.68,0Zm56.95-4.17-26.79-46.57a5,5,0,0,0-8.65,0L74.62,174.7a47,47,0,0,1-8.09-9.53L105.74,97l7.6,13.19.15.3,31.45,54.71a47,47,0,0,1-8.09,9.53Zm11.78-16.46-29.22-50.83a3,3,0,0,0-.15-.31l-7.52-13a46.5,46.5,0,0,1,36.89,64.17Z"/><path class="cls-5" d="M252.63,153.29v-1.48l1.91-.33V138l-1.91-.33v-1.49h13.1v4.11h-2l-.19-2.29h-6.71v5.52h6.52v1.82h-6.52v6.1h6.85l.19-2.28h2v4.09Zm7.47-21.37h2.7l0,.07-3.15,3H258Z"/><path class="cls-5" d="M273.79,151.81l1.91-.33V136.82l-1.91-.33V135H278v7.28a4.52,4.52,0,0,1,1.61-1.41,4.36,4.36,0,0,1,2.11-.51,4.11,4.11,0,0,1,3.16,1.22,5.37,5.37,0,0,1,1.12,3.75v6.14l1.91.33v1.48H281.8v-1.48l1.91-.33v-6.16A3.38,3.38,0,0,0,283,143a2.57,2.57,0,0,0-2-.75,3.41,3.41,0,0,0-1.73.45,3.83,3.83,0,0,0-1.28,1.22v7.56l1.91.33v1.48h-6.13Z"/><path class="cls-5" d="M289.49,146.83a7,7,0,0,1,1.53-4.64,5.1,5.1,0,0,1,4.13-1.82,5.16,5.16,0,0,1,4.16,1.82,7,7,0,0,1,1.53,4.64v.26a7,7,0,0,1-1.52,4.64,5.67,5.67,0,0,1-8.3,0,6.93,6.93,0,0,1-1.53-4.63Zm2.31.26a6.1,6.1,0,0,0,.85,3.33,2.83,2.83,0,0,0,2.53,1.31,2.8,2.8,0,0,0,2.49-1.31,6,6,0,0,0,.86-3.33v-.26a6,6,0,0,0-.86-3.32,2.81,2.81,0,0,0-2.52-1.32,2.78,2.78,0,0,0-2.5,1.32,6,6,0,0,0-.85,3.32Z"/><path class="cls-5" d="M303,142.1v-1.49h4l.22,1.84a4.55,4.55,0,0,1,1.33-1.53,3.15,3.15,0,0,1,1.81-.55,5.46,5.46,0,0,1,.56,0l.44.09-.3,2.15-1.32-.07a2.65,2.65,0,0,0-1.53.42,2.73,2.73,0,0,0-1,1.2v7.28l1.91.33v1.48H303v-1.48l1.91-.33v-9.06Z"/><path class="cls-5" d="M321.15,153.29c-.07-.35-.13-.66-.17-.93s-.06-.55-.08-.82a5.37,5.37,0,0,1-1.67,1.42,4.79,4.79,0,0,1-5.15-.39,3.57,3.57,0,0,1-1-2.73,3.16,3.16,0,0,1,1.46-2.78,7.13,7.13,0,0,1,4-1h2.38V144.6a2.3,2.3,0,0,0-.7-1.76,2.79,2.79,0,0,0-2-.65,4.75,4.75,0,0,0-1.53.22,2.84,2.84,0,0,0-1.07.61l-.25,1.34H313.6V141.9a6.76,6.76,0,0,1,2.1-1.11,8.21,8.21,0,0,1,2.67-.42,5.32,5.32,0,0,1,3.49,1.1,3.88,3.88,0,0,1,1.34,3.16v6.58l0,.47.94.13v1.48Zm-3.72-1.69a4.07,4.07,0,0,0,2.1-.55,3.42,3.42,0,0,0,1.36-1.33v-2.08h-2.46a3.56,3.56,0,0,0-2.25.65,2,2,0,0,0-.82,1.6,1.59,1.59,0,0,0,.51,1.27A2.4,2.4,0,0,0,317.43,151.6Z"/><path class="cls-5" d="M340.6,151.77a4.08,4.08,0,0,1-1.52,1.32,4.72,4.72,0,0,1-2.08.44,4.33,4.33,0,0,1-3.62-1.68,6.94,6.94,0,0,1-1.31-4.42v-.25a8.38,8.38,0,0,1,1.31-4.93,4.19,4.19,0,0,1,3.65-1.88,4.44,4.44,0,0,1,2,.42,4.06,4.06,0,0,1,1.47,1.2v-5.17l-1.91-.33V135h4.22v16.47l1.91.33v1.48h-3.91Zm-6.22-4.34a5.44,5.44,0,0,0,.78,3.07,2.74,2.74,0,0,0,2.43,1.16,3.06,3.06,0,0,0,1.73-.47,3.52,3.52,0,0,0,1.16-1.33V144a3.44,3.44,0,0,0-1.16-1.26,3,3,0,0,0-1.71-.47,2.62,2.62,0,0,0-2.44,1.37,7,7,0,0,0-.79,3.56Z"/><path class="cls-5" d="M354.73,153.29c-.07-.35-.12-.66-.16-.93a7.58,7.58,0,0,1-.08-.82,5.61,5.61,0,0,1-1.67,1.42,4.79,4.79,0,0,1-5.15-.39,3.57,3.57,0,0,1-1-2.73,3.15,3.15,0,0,1,1.45-2.78,7.16,7.16,0,0,1,4-1h2.38V144.6a2.28,2.28,0,0,0-.71-1.76,2.78,2.78,0,0,0-1.95-.65,4.75,4.75,0,0,0-1.53.22,2.88,2.88,0,0,0-1.08.61l-.24,1.34h-1.78V141.9a6.59,6.59,0,0,1,2.09-1.11,8.23,8.23,0,0,1,2.68-.42,5.34,5.34,0,0,1,3.49,1.1,3.87,3.87,0,0,1,1.33,3.16v6.1c0,.17,0,.33,0,.48a3.71,3.71,0,0,0,0,.47l.94.13v1.48ZM351,151.6a4.12,4.12,0,0,0,2.1-.55,3.48,3.48,0,0,0,1.36-1.33v-2.08H352a3.55,3.55,0,0,0-2.24.65,2,2,0,0,0-.83,1.6,1.59,1.59,0,0,0,.52,1.27A2.36,2.36,0,0,0,351,151.6Z"/><path class="cls-5" d="M365.36,156.67l1.91-.32V142.42l-1.91-.32v-1.49h3.89l.21,1.54a4.4,4.4,0,0,1,1.54-1.32,4.58,4.58,0,0,1,2.11-.46,4.22,4.22,0,0,1,3.66,1.87,8.47,8.47,0,0,1,1.31,4.94v.25a6.94,6.94,0,0,1-1.32,4.42,4.33,4.33,0,0,1-3.62,1.68,5,5,0,0,1-2.05-.39,3.91,3.91,0,0,1-1.51-1.17v4.38l1.91.32v1.49h-6.13Zm10.4-9.49a6.67,6.67,0,0,0-.85-3.55,2.75,2.75,0,0,0-2.51-1.38,3.14,3.14,0,0,0-1.68.44,3.43,3.43,0,0,0-1.14,1.22v6.18a3.3,3.3,0,0,0,1.13,1.21,3.21,3.21,0,0,0,1.72.43,2.84,2.84,0,0,0,2.48-1.2,5.19,5.19,0,0,0,.85-3.1Z"/><path class="cls-5" d="M380.17,142.1v-1.49h4l.22,1.84a4.44,4.44,0,0,1,1.33-1.53,3.15,3.15,0,0,1,1.81-.55,5.46,5.46,0,0,1,.56,0l.44.09-.31,2.15-1.31-.07a2.71,2.71,0,0,0-1.54.42,2.88,2.88,0,0,0-1,1.2v7.28l1.91.33v1.48h-6.13v-1.48l1.91-.33v-9.06Z"/><path class="cls-5" d="M390.1,151.81l1.91-.33v-9.06l-1.91-.32v-1.49h4.22v10.87l1.91.33v1.48H390.1Zm4.22-14.45H392V135h2.31Z"/><path class="cls-5" d="M397.53,151.81l1.91-.33v-9.06l-1.91-.32v-1.49h4l.16,1.65a4.15,4.15,0,0,1,1.57-1.4,4.9,4.9,0,0,1,2.22-.49,4,4,0,0,1,2.18.59,3.51,3.51,0,0,1,1.36,1.76,4.74,4.74,0,0,1,1.58-1.71,4.12,4.12,0,0,1,2.3-.64A3.82,3.82,0,0,1,416,141.7a6.08,6.08,0,0,1,1.13,4v5.78l1.91.33v1.48h-6.14v-1.48l1.91-.33v-5.8a4.2,4.2,0,0,0-.65-2.65,2.33,2.33,0,0,0-1.91-.78,2.43,2.43,0,0,0-1.94.85,3.68,3.68,0,0,0-.85,2.14v6.24l1.91.33v1.48h-6.13v-1.48l1.91-.33v-5.8a4.17,4.17,0,0,0-.66-2.61,2.3,2.3,0,0,0-1.91-.82,3.16,3.16,0,0,0-1.74.43,2.83,2.83,0,0,0-1,1.22v7.58l1.91.33v1.48h-6.13Z"/><path class="cls-5" d="M426.33,153.53a5.36,5.36,0,0,1-4.21-1.76,6.66,6.66,0,0,1-1.56-4.58v-.51a6.48,6.48,0,0,1,1.61-4.51,5,5,0,0,1,3.81-1.8,4.82,4.82,0,0,1,3.88,1.55,6.19,6.19,0,0,1,1.31,4.12v1.45H423l0,0a5,5,0,0,0,.93,3,2.92,2.92,0,0,0,2.49,1.18,5.63,5.63,0,0,0,2.06-.34,4.7,4.7,0,0,0,1.53-.92l.9,1.5a5.42,5.42,0,0,1-1.8,1.11A7.18,7.18,0,0,1,426.33,153.53ZM426,142.19a2.49,2.49,0,0,0-2,1,4.72,4.72,0,0,0-1,2.45l0,.06h5.85v-.3a3.58,3.58,0,0,0-.73-2.28A2.59,2.59,0,0,0,426,142.19Z"/><path class="cls-5" d="M433.45,151.81l1.91-.33v-9.06l-1.91-.32v-1.49h4.22v10.87l1.91.33v1.48h-6.13Zm4.22-14.45h-2.31V135h2.31Z"/><path class="cls-5" d="M441.33,142.1v-1.49h4l.22,1.84a4.44,4.44,0,0,1,1.33-1.53,3.15,3.15,0,0,1,1.81-.55,5.46,5.46,0,0,1,.56,0l.44.09-.31,2.15-1.31-.07a2.71,2.71,0,0,0-1.54.42,2.88,2.88,0,0,0-1,1.2v7.28l1.91.33v1.48h-6.13v-1.48l1.91-.33v-9.06Z"/><path class="cls-5" d="M459.53,153.29c-.07-.35-.12-.66-.16-.93a7.58,7.58,0,0,1-.08-.82,5.49,5.49,0,0,1-1.67,1.42,4.79,4.79,0,0,1-5.15-.39,3.57,3.57,0,0,1-1-2.73,3.14,3.14,0,0,1,1.46-2.78,7.1,7.1,0,0,1,4-1h2.38V144.6a2.28,2.28,0,0,0-.71-1.76,2.78,2.78,0,0,0-1.95-.65,4.75,4.75,0,0,0-1.53.22A3,3,0,0,0,454,143l-.24,1.34H452V141.9a6.7,6.7,0,0,1,2.09-1.11,8.27,8.27,0,0,1,2.68-.42,5.34,5.34,0,0,1,3.49,1.1,3.87,3.87,0,0,1,1.33,3.16v6.1c0,.17,0,.33,0,.48a3.71,3.71,0,0,0,0,.47l.94.13v1.48Zm-3.71-1.69a4.12,4.12,0,0,0,2.1-.55,3.48,3.48,0,0,0,1.36-1.33v-2.08h-2.46a3.56,3.56,0,0,0-2.25.65,2,2,0,0,0-.83,1.6,1.59,1.59,0,0,0,.52,1.27A2.36,2.36,0,0,0,455.82,151.6Z"/><path class="cls-5" d="M478.72,153.29c-.07-.35-.13-.66-.17-.93s-.06-.55-.08-.82A5.37,5.37,0,0,1,476.8,153a4.79,4.79,0,0,1-5.15-.39,3.57,3.57,0,0,1-1-2.73,3.16,3.16,0,0,1,1.46-2.78,7.13,7.13,0,0,1,4-1h2.38V144.6a2.27,2.27,0,0,0-.7-1.76,2.79,2.79,0,0,0-2-.65,4.75,4.75,0,0,0-1.53.22,2.84,2.84,0,0,0-1.07.61l-.25,1.34h-1.78V141.9a6.76,6.76,0,0,1,2.1-1.11,8.21,8.21,0,0,1,2.67-.42,5.32,5.32,0,0,1,3.49,1.1,3.88,3.88,0,0,1,1.34,3.16v6.58l0,.47.94.13v1.48ZM475,151.6a4.07,4.07,0,0,0,2.1-.55,3.42,3.42,0,0,0,1.36-1.33v-2.08H476a3.58,3.58,0,0,0-2.25.65,2,2,0,0,0-.82,1.6,1.59,1.59,0,0,0,.51,1.27A2.4,2.4,0,0,0,475,151.6Z"/><path class="cls-5" d="M487.69,137.55v3.06h2.41v1.71h-2.41V150a1.74,1.74,0,0,0,.37,1.25,1.36,1.36,0,0,0,1,.36,4.47,4.47,0,0,0,.69,0,6.44,6.44,0,0,0,.64-.11l.31,1.58a3,3,0,0,1-1,.35,6,6,0,0,1-1.26.13,3,3,0,0,1-2.24-.85,3.64,3.64,0,0,1-.83-2.66v-7.7h-2v-1.71h2v-3.06Z"/><path class="cls-5" d="M492.45,151.81l1.91-.33v-9.06l-1.91-.32v-1.49h4.22v10.87l1.91.33v1.48h-6.13Zm4.22-14.45h-2.31V135h2.31Z"/><path class="cls-5" d="M504.69,142.1l-1.53.23,2.62,7.22.21.91h.07l.22-.91,2.53-7.22-1.53-.23v-1.49h4.89v1.49l-1,.17-4.25,11h-1.75l-4.3-11-1-.17v-1.49h4.9Z"/><path class="cls-5" d="M513.73,151.81l1.91-.33v-9.06l-1.91-.32v-1.49H518v10.87l1.91.33v1.48h-6.13ZM518,137.36h-2.31V135H518Z"/><path class="cls-5" d="M530.16,151.77a4.13,4.13,0,0,1-1.51,1.32,4.75,4.75,0,0,1-2.08.44,4.34,4.34,0,0,1-3.63-1.68,7,7,0,0,1-1.31-4.42v-.25a8.46,8.46,0,0,1,1.31-4.93,4.2,4.2,0,0,1,3.65-1.88,4.44,4.44,0,0,1,2,.42,4.18,4.18,0,0,1,1.48,1.2v-5.17l-1.91-.33V135h4.21v16.47l1.91.33v1.48h-3.91Zm-6.22-4.34a5.36,5.36,0,0,0,.79,3.07,2.72,2.72,0,0,0,2.42,1.16,3.09,3.09,0,0,0,1.74-.47,3.7,3.7,0,0,0,1.16-1.33V144a3.62,3.62,0,0,0-1.16-1.26,3,3,0,0,0-1.72-.47,2.62,2.62,0,0,0-2.44,1.37,7,7,0,0,0-.79,3.56Z"/><path class="cls-5" d="M544.3,153.29c-.07-.35-.13-.66-.17-.93s-.06-.55-.08-.82a5.49,5.49,0,0,1-1.67,1.42,4.79,4.79,0,0,1-5.15-.39,3.57,3.57,0,0,1-1-2.73,3.14,3.14,0,0,1,1.46-2.78,7.1,7.1,0,0,1,4-1H544V144.6a2.28,2.28,0,0,0-.71-1.76,2.77,2.77,0,0,0-2-.65,4.75,4.75,0,0,0-1.53.22,2.84,2.84,0,0,0-1.07.61l-.25,1.34h-1.78V141.9a6.76,6.76,0,0,1,2.1-1.11,8.21,8.21,0,0,1,2.67-.42,5.32,5.32,0,0,1,3.49,1.1,3.88,3.88,0,0,1,1.34,3.16v6.58l0,.47.94.13v1.48Zm-3.72-1.69a4.07,4.07,0,0,0,2.1-.55,3.48,3.48,0,0,0,1.36-1.33v-2.08h-2.46a3.56,3.56,0,0,0-2.25.65,2,2,0,0,0-.82,1.6,1.59,1.59,0,0,0,.51,1.27A2.4,2.4,0,0,0,540.58,151.6Z"/><path class="cls-5" d="M557.78,151.77a4.13,4.13,0,0,1-1.51,1.32,4.72,4.72,0,0,1-2.08.44,4.34,4.34,0,0,1-3.63-1.68,7,7,0,0,1-1.31-4.42v-.25a8.46,8.46,0,0,1,1.31-4.93,4.2,4.2,0,0,1,3.65-1.88,4.51,4.51,0,0,1,2,.42,4.23,4.23,0,0,1,1.47,1.2v-5.17l-1.91-.33V135H560v16.47l1.91.33v1.48H558Zm-6.22-4.34a5.36,5.36,0,0,0,.79,3.07,2.72,2.72,0,0,0,2.42,1.16,3.09,3.09,0,0,0,1.74-.47,3.61,3.61,0,0,0,1.16-1.33V144a3.62,3.62,0,0,0-1.16-1.26,3,3,0,0,0-1.71-.47,2.62,2.62,0,0,0-2.45,1.37,7,7,0,0,0-.79,3.56Z"/><path class="cls-5" d="M569.43,153.53a5.36,5.36,0,0,1-4.21-1.76,6.67,6.67,0,0,1-1.57-4.58v-.51a6.48,6.48,0,0,1,1.62-4.51,5,5,0,0,1,3.81-1.8,4.81,4.81,0,0,1,3.87,1.55,6.14,6.14,0,0,1,1.32,4.12v1.45h-8.22l0,0a5,5,0,0,0,.93,3,2.92,2.92,0,0,0,2.49,1.18,5.67,5.67,0,0,0,2.06-.34,4.7,4.7,0,0,0,1.53-.92l.9,1.5a5.42,5.42,0,0,1-1.8,1.11A7.18,7.18,0,0,1,569.43,153.53Zm-.35-11.34a2.49,2.49,0,0,0-2,1,4.64,4.64,0,0,0-1,2.45l0,.06H572v-.3a3.57,3.57,0,0,0-.72-2.28A2.6,2.6,0,0,0,569.08,142.19Z"/><path class="cls-5" d="M590.78,153.29c-.07-.35-.12-.66-.16-.93a7.58,7.58,0,0,1-.08-.82,5.49,5.49,0,0,1-1.67,1.42,4.79,4.79,0,0,1-5.15-.39,3.57,3.57,0,0,1-1-2.73,3.14,3.14,0,0,1,1.46-2.78,7.1,7.1,0,0,1,4-1h2.38V144.6a2.28,2.28,0,0,0-.71-1.76,2.78,2.78,0,0,0-2-.65,4.75,4.75,0,0,0-1.53.22,3,3,0,0,0-1.08.61l-.24,1.34h-1.78V141.9a6.7,6.7,0,0,1,2.09-1.11,8.27,8.27,0,0,1,2.68-.42,5.34,5.34,0,0,1,3.49,1.1,3.87,3.87,0,0,1,1.33,3.16v6.1c0,.17,0,.33,0,.48a3.71,3.71,0,0,0,0,.47l.94.13v1.48Zm-3.71-1.69a4.12,4.12,0,0,0,2.1-.55,3.48,3.48,0,0,0,1.36-1.33v-2.08h-2.46a3.56,3.56,0,0,0-2.25.65,2,2,0,0,0-.83,1.6,1.59,1.59,0,0,0,.52,1.27A2.36,2.36,0,0,0,587.07,151.6Z"/><path class="cls-5" d="M599.9,142.1l-1.52.23,2.61,7.22.21.91h.07l.22-.91,2.54-7.22-1.54-.23v-1.49h4.9v1.49l-1,.17-4.26,11h-1.74l-4.3-11-1-.17v-1.49h4.9Z"/><path class="cls-5" d="M617.05,153.29c-.07-.35-.13-.66-.17-.93s-.06-.55-.08-.82a5.49,5.49,0,0,1-1.67,1.42,4.79,4.79,0,0,1-5.15-.39,3.57,3.57,0,0,1-1-2.73,3.14,3.14,0,0,1,1.46-2.78,7.1,7.1,0,0,1,4-1h2.38V144.6a2.28,2.28,0,0,0-.71-1.76,2.77,2.77,0,0,0-2-.65,4.75,4.75,0,0,0-1.53.22,2.84,2.84,0,0,0-1.07.61l-.25,1.34H609.5V141.9a6.76,6.76,0,0,1,2.1-1.11,8.21,8.21,0,0,1,2.67-.42,5.32,5.32,0,0,1,3.49,1.1,3.88,3.88,0,0,1,1.34,3.16v6.58l0,.47.94.13v1.48Zm-3.72-1.69a4.07,4.07,0,0,0,2.1-.55,3.48,3.48,0,0,0,1.36-1.33v-2.08h-2.46a3.56,3.56,0,0,0-2.25.65,2,2,0,0,0-.82,1.6,1.59,1.59,0,0,0,.51,1.27A2.4,2.4,0,0,0,613.33,151.6Z"/><path class="cls-5" d="M621.67,136.49V135h4.22v16.47l1.91.33v1.48h-6.13v-1.48l1.91-.33V136.82Z"/><path class="cls-5" d="M629.55,151.81l1.91-.33v-9.06l-1.91-.32v-1.49h4.22v10.87l1.91.33v1.48h-6.13Zm4.22-14.45h-2.31V135h2.31Z"/><path class="cls-5" d="M645.71,153.29c-.07-.35-.13-.66-.16-.93s-.07-.55-.09-.82a5.37,5.37,0,0,1-1.67,1.42,4.79,4.79,0,0,1-5.15-.39,3.6,3.6,0,0,1-1-2.73,3.16,3.16,0,0,1,1.46-2.78,7.13,7.13,0,0,1,4-1h2.38V144.6a2.27,2.27,0,0,0-.7-1.76,2.79,2.79,0,0,0-2-.65,4.75,4.75,0,0,0-1.53.22,2.84,2.84,0,0,0-1.07.61l-.25,1.34h-1.78V141.9a6.76,6.76,0,0,1,2.1-1.11,8.21,8.21,0,0,1,2.67-.42,5.32,5.32,0,0,1,3.49,1.1,3.85,3.85,0,0,1,1.34,3.16v6.1c0,.17,0,.33,0,.48a3.71,3.71,0,0,0,0,.47l.93.13v1.48ZM642,151.6a4.07,4.07,0,0,0,2.1-.55,3.35,3.35,0,0,0,1.36-1.33v-2.08H643a3.55,3.55,0,0,0-2.24.65,2,2,0,0,0-.83,1.6,1.56,1.56,0,0,0,.52,1.27A2.35,2.35,0,0,0,642,151.6Z"/><path class="cls-5" d="M654.69,137.55v3.06h2.4v1.71h-2.4V150a1.7,1.7,0,0,0,.37,1.25,1.32,1.32,0,0,0,1,.36,4.31,4.31,0,0,0,.69,0,6,6,0,0,0,.64-.11l.31,1.58a2.81,2.81,0,0,1-1,.35,6,6,0,0,1-1.26.13,3,3,0,0,1-2.24-.85,3.64,3.64,0,0,1-.83-2.66v-7.7h-2v-1.71h2v-3.06Z"/><path class="cls-5" d="M659.44,151.81l1.91-.33v-9.06l-1.91-.32v-1.49h4.22v10.87l1.91.33v1.48h-6.13Zm4.22-14.45h-2.31V135h2.31Z"/><path class="cls-5" d="M671.68,142.1l-1.53.23,2.62,7.22.21.91h.07l.22-.91,2.53-7.22-1.53-.23v-1.49h4.9v1.49l-1,.17-4.25,11h-1.75l-4.3-11-1-.17v-1.49h4.9Z"/><path class="cls-5" d="M688.82,153.29c-.07-.35-.12-.66-.16-.93a7.58,7.58,0,0,1-.08-.82,5.61,5.61,0,0,1-1.67,1.42,4.79,4.79,0,0,1-5.15-.39,3.57,3.57,0,0,1-1-2.73,3.15,3.15,0,0,1,1.45-2.78,7.16,7.16,0,0,1,4-1h2.38V144.6a2.28,2.28,0,0,0-.71-1.76,2.79,2.79,0,0,0-2-.65,4.72,4.72,0,0,0-1.52.22,2.88,2.88,0,0,0-1.08.61l-.24,1.34h-1.78V141.9a6.59,6.59,0,0,1,2.09-1.11,8.23,8.23,0,0,1,2.68-.42,5.34,5.34,0,0,1,3.49,1.1,3.87,3.87,0,0,1,1.33,3.16v6.1c0,.17,0,.33,0,.48a3.71,3.71,0,0,0,0,.47l.94.13v1.48Zm-3.71-1.69a4.12,4.12,0,0,0,2.1-.55,3.48,3.48,0,0,0,1.36-1.33v-2.08H686.1a3.55,3.55,0,0,0-2.24.65,2,2,0,0,0-.83,1.6,1.59,1.59,0,0,0,.52,1.27A2.36,2.36,0,0,0,685.11,151.6Z"/><path class="cls-5" d="M708.28,151.77a4.16,4.16,0,0,1-1.52,1.32,4.72,4.72,0,0,1-2.08.44,4.34,4.34,0,0,1-3.63-1.68,7,7,0,0,1-1.31-4.42v-.25a8.46,8.46,0,0,1,1.31-4.93,4.2,4.2,0,0,1,3.65-1.88,4.51,4.51,0,0,1,2,.42,4.23,4.23,0,0,1,1.47,1.2v-5.17l-1.91-.33V135h4.22v16.47l1.91.33v1.48h-3.92Zm-6.23-4.34a5.44,5.44,0,0,0,.79,3.07,2.72,2.72,0,0,0,2.42,1.16,3.09,3.09,0,0,0,1.74-.47,3.61,3.61,0,0,0,1.16-1.33V144a3.53,3.53,0,0,0-1.16-1.26,3,3,0,0,0-1.71-.47,2.63,2.63,0,0,0-2.45,1.37,7.14,7.14,0,0,0-.79,3.56Z"/><path class="cls-5" d="M722.41,153.29c-.07-.35-.13-.66-.17-.93s-.06-.55-.08-.82a5.37,5.37,0,0,1-1.67,1.42,4.79,4.79,0,0,1-5.15-.39,3.57,3.57,0,0,1-1-2.73,3.16,3.16,0,0,1,1.46-2.78,7.13,7.13,0,0,1,4-1h2.38V144.6a2.27,2.27,0,0,0-.7-1.76,2.79,2.79,0,0,0-2-.65,4.75,4.75,0,0,0-1.53.22,2.84,2.84,0,0,0-1.07.61l-.25,1.34h-1.78V141.9a6.76,6.76,0,0,1,2.1-1.11,8.21,8.21,0,0,1,2.67-.42,5.32,5.32,0,0,1,3.49,1.1,3.88,3.88,0,0,1,1.34,3.16v6.1c0,.17,0,.33,0,.48s0,.31,0,.47l.94.13v1.48Zm-3.72-1.69a4.07,4.07,0,0,0,2.1-.55,3.42,3.42,0,0,0,1.36-1.33v-2.08h-2.46a3.53,3.53,0,0,0-2.24.65,2,2,0,0,0-.83,1.6,1.56,1.56,0,0,0,.52,1.27A2.35,2.35,0,0,0,718.69,151.6Z"/><path class="cls-5" d="M742.39,151.41a4.3,4.3,0,0,1-1.54,1.57,4.23,4.23,0,0,1-2.18.55,4.08,4.08,0,0,1-3.22-1.32,6.17,6.17,0,0,1-1.16-4.13v-5.66l-1.45-.32v-1.49h3.76v7.5a4.72,4.72,0,0,0,.6,2.79,2.24,2.24,0,0,0,1.86.76,3.79,3.79,0,0,0,2-.5,3.12,3.12,0,0,0,1.22-1.41v-7.33l-1.7-.32v-1.49h4v10.87l1.45.33v1.48h-3.53Z"/><path class="cls-5" d="M747.56,151.81l1.91-.33v-9.06l-1.91-.32v-1.49h4l.16,1.88a4.73,4.73,0,0,1,1.59-1.56,4.26,4.26,0,0,1,2.18-.56,4.14,4.14,0,0,1,3.17,1.2,5.28,5.28,0,0,1,1.13,3.71v6.2l1.91.33v1.48h-6.13v-1.48l1.91-.33v-6.15a3.44,3.44,0,0,0-.66-2.38,2.67,2.67,0,0,0-2-.7,3.25,3.25,0,0,0-1.76.48,3.5,3.5,0,0,0-1.22,1.31v7.44l1.91.33v1.48h-6.13Z"/><path class="cls-5" d="M763.34,151.81l1.91-.33v-9.06l-1.91-.32v-1.49h4.22v10.87l1.91.33v1.48h-6.13Zm4.22-14.45h-2.31V135h2.31Z"/><path class="cls-5" d="M779.77,151.77a4.08,4.08,0,0,1-1.52,1.32,4.68,4.68,0,0,1-2.08.44,4.33,4.33,0,0,1-3.62-1.68,7,7,0,0,1-1.31-4.42v-.25a8.46,8.46,0,0,1,1.31-4.93,4.2,4.2,0,0,1,3.65-1.88,4.44,4.44,0,0,1,2,.42,4.06,4.06,0,0,1,1.47,1.2v-5.17l-1.91-.33V135H782v16.47l1.91.33v1.48H780Zm-6.22-4.34a5.44,5.44,0,0,0,.78,3.07,2.75,2.75,0,0,0,2.43,1.16,3,3,0,0,0,1.73-.47,3.52,3.52,0,0,0,1.16-1.33V144a3.44,3.44,0,0,0-1.16-1.26,3,3,0,0,0-1.71-.47,2.62,2.62,0,0,0-2.44,1.37,7,7,0,0,0-.79,3.56Z"/><path class="cls-5" d="M793.9,153.29c-.07-.35-.12-.66-.16-.93a7.58,7.58,0,0,1-.08-.82A5.49,5.49,0,0,1,792,153a4.79,4.79,0,0,1-5.15-.39,3.57,3.57,0,0,1-1-2.73,3.14,3.14,0,0,1,1.46-2.78,7.1,7.1,0,0,1,4-1h2.38V144.6a2.28,2.28,0,0,0-.71-1.76,2.77,2.77,0,0,0-2-.65,4.75,4.75,0,0,0-1.53.22,2.84,2.84,0,0,0-1.07.61l-.25,1.34h-1.78V141.9a6.76,6.76,0,0,1,2.1-1.11,8.21,8.21,0,0,1,2.67-.42,5.32,5.32,0,0,1,3.49,1.1,3.88,3.88,0,0,1,1.34,3.16v6.58l0,.47.94.13v1.48Zm-3.71-1.69a4.09,4.09,0,0,0,2.1-.55,3.48,3.48,0,0,0,1.36-1.33v-2.08h-2.46a3.56,3.56,0,0,0-2.25.65,2,2,0,0,0-.82,1.6,1.59,1.59,0,0,0,.51,1.27A2.38,2.38,0,0,0,790.19,151.6Z"/><path class="cls-5" d="M807.39,151.77a4.13,4.13,0,0,1-1.51,1.32,4.75,4.75,0,0,1-2.08.44,4.34,4.34,0,0,1-3.63-1.68,7,7,0,0,1-1.31-4.42v-.25a8.46,8.46,0,0,1,1.31-4.93,4.2,4.2,0,0,1,3.65-1.88,4.51,4.51,0,0,1,2,.42,4.23,4.23,0,0,1,1.47,1.2v-5.17l-1.91-.33V135h4.21v16.47l1.91.33v1.48h-3.91Zm-6.22-4.34a5.36,5.36,0,0,0,.79,3.07,2.72,2.72,0,0,0,2.42,1.16,3.09,3.09,0,0,0,1.74-.47,3.7,3.7,0,0,0,1.16-1.33V144a3.62,3.62,0,0,0-1.16-1.26,3,3,0,0,0-1.72-.47,2.62,2.62,0,0,0-2.44,1.37,7,7,0,0,0-.79,3.56Z"/><path class="cls-5" d="M819,153.53a5.36,5.36,0,0,1-4.21-1.76,6.67,6.67,0,0,1-1.57-4.58v-.51a6.48,6.48,0,0,1,1.62-4.51,5,5,0,0,1,3.81-1.8,4.81,4.81,0,0,1,3.87,1.55,6.14,6.14,0,0,1,1.32,4.12v1.45h-8.23l0,0a5,5,0,0,0,.93,3,2.92,2.92,0,0,0,2.49,1.18,5.67,5.67,0,0,0,2.06-.34,4.7,4.7,0,0,0,1.53-.92l.9,1.5a5.42,5.42,0,0,1-1.8,1.11A7.21,7.21,0,0,1,819,153.53Zm-.35-11.34a2.49,2.49,0,0,0-2,1,4.64,4.64,0,0,0-1,2.45l0,.06h5.84v-.3a3.57,3.57,0,0,0-.72-2.28A2.6,2.6,0,0,0,818.69,142.19Z"/><path class="cls-5" d="M829.1,147.68h-2.31V136.22h2.31Zm0,5.61h-2.31V150.9h2.31Z"/><g class="cls-6"><path class="cls-7" d="M96.5,3.56A7.45,7.45,0,0,1,101.78,6a12.52,12.52,0,0,1,3.2-.42,11.67,11.67,0,0,1,8.68,3.94c9.53,3.58,5.74,9.32,5.52,9.64h.11S124.88,23.06,123,25c0,0,3.44,4.28.69,6.58a3.21,3.21,0,0,1-1,.5c7.83,12.21,12.51,33.76,9.42,51.53-.61,3.52-4.63,6-15.46,6h0a57.36,57.36,0,0,1-10.48-.93c.1.83.22,1.73.34,2.63h0c.54,3.87,1.33,8.27,2.2,8.91,5.52,4.15,13.76,5.87,18.39,6.54l6.71.63a17.28,17.28,0,0,1,1.49,1.69h.07c2,0,3.61,2.21,3.61,2.21l26.44,46.28-22.82,41s7.66,12.87,3.83,18.69l5.29,5.29s.84,2.83-3,2.83a11.48,11.48,0,0,1-4.44-1.44,291,291,0,0,1,1.06,30,29.15,29.15,0,0,0-3.09-.46l0,2h0c-.08,13.6,0,33.25.77,37.73,1.27,7,0,10.46,0,10.46s3.45,54.55,3.45,55,4.83,6.63,4.83,6.63,6.38,5,11.35,9h0a14.43,14.43,0,0,1,4.16,1.76,4.09,4.09,0,0,1,1.25,2.61c.33.22.88.59,1.51,1a16,16,0,0,0,4.31.81c.68.68,0,1.42-.89,2,.5.53.79,1,.71,1.29-.33,1.2-4.95,6.06-13.3,6.06-.47,0-1,0-1.45,0-8.77-.58-20.93-9.93-21.93-12.53a7.72,7.72,0,0,1,.13-5.25c0-2.22,1.34-4.88,2.08-6.21,1.15-2.06,2-7.93,2-7.93-12.64-44.36-5.4-50.6-6.78-53.82-.87-2-8.68-31.08-14.26-52h0l0-.1c-.32-1.21-.63-2.39-.94-3.54a14.5,14.5,0,0,1-2.88-1.7,90.8,90.8,0,0,1-15.17,6l-1.61,4L84.39,294.52S81.53,305,78.14,308.43a149.55,149.55,0,0,1-8.39,24.25c-5.74,12.87-8.27,30.57-8.27,30.57s4.12,10.45,4.6,17c4.84,6.63,9.19,14.81,3.42,17.23A33.22,33.22,0,0,1,57,399.66c-7,0-13.19-1.63-14.64-3.08-2.34-2.33,4.29-20,4.29-20,.21-1.6.66-3.16,1.59-3.81,2.3-1.61,5.06-5.52,5.06-5.52s-.86-2.3,1.55-5.4,6-23,6-25.61-3.22-22.07,7.51-29.73c0,0,1.22-24.88,4.37-42.88h0c.34-2,.71-4,1.12-5.81-3.3.27-5.27.31-5.27.31s3.18-8.88,7.25-20.3c-3.47-.33-1.19-5.71-1.19-5.71a29.52,29.52,0,0,0,4.08-2.4L80,225.93c-1.15-2.83,1.72-11.63,1.72-11.63l-10.54-7.94L40.56,183.27s24.6-58,25.59-59c.65-.64,5.4-3.42,8.68-5.31,3.42-3.43,10.78-6.14,10.78-6.14s7-7.93,8.51-9.42.8-5.64.8-5.64L91.08,83c-6.78-4.26-9.45-9-9.45-9a3.41,3.41,0,0,1-2.5,1,8.77,8.77,0,0,1-4.47-1.7S64.93,63.59,68,59a2.89,2.89,0,0,1,2.53-1.39c2,0,4.39,1.65,6.07,3.07-3.45-3-5.3-3.43-6-3.43l-.23,0-.06,0,0,0-.07,0,0-.07c-.72-.36-4-2.15-4.26-5.18-5.5-1.72-4.44-4.79-4.44-4.79-5.28-3.6,0-9.38,0-9.38-2.35-2.36-.53-5.79-.53-5.79-2.76-3.9.69-8.73.69-8.73.38-4.22,6.7-6.71,6.7-6.71.5-2.1,3.1-3.1,3.1-3.1a4.6,4.6,0,0,1,4.25-2.62A2.55,2.55,0,0,1,76,11c2.29-5,10.88-5.43,14.1-5.43.76,0,1.22,0,1.22,0a8.59,8.59,0,0,1,5.22-2m43.21,181.05L153.9,159,140.41,139c.36,5.76.58,11.68.52,17.25a223.7,223.7,0,0,1-2,27.19,1.91,1.91,0,0,1,.77,1.19M87.85,203.67c1.37-3.92,2.57-7.36,3.46-10a3,3,0,0,1,1.48-4.44c.08-.26.14-.46.18-.62,1.38-5-11.61-29.86-11.61-29.86l-11-6.87L55,180.81,79.6,197.93l8.25,5.74m79.81,174.68h0M96.5,0h0a11.67,11.67,0,0,0-6.3,2h-.14c-4.62,0-12.4.78-16.16,5.58a8,8,0,0,0-5.06,3.3A9,9,0,0,0,65.53,14c-2.28,1.16-6.45,3.81-7.37,8.06-1.46,2.41-2.81,6.49-1.2,10.32a8.79,8.79,0,0,0,.18,5.37,10.57,10.57,0,0,0-1.6,6.45,8,8,0,0,0,2.3,4.72,6.17,6.17,0,0,0,.62,1.88,8.79,8.79,0,0,0,4.4,3.93,9.45,9.45,0,0,0,1.83,2.84c-1.73,3.17-.88,7.31,2.54,12.32a44.69,44.69,0,0,0,4.91,6l.37.33a12.07,12.07,0,0,0,6.62,2.41,8.23,8.23,0,0,0,1.33-.11A36,36,0,0,0,88,85.25l3.45,13.23a8.74,8.74,0,0,1,0,2.59c-1.56,1.6-6.18,6.81-7.89,8.74-2.16.86-7.56,3.2-10.85,6.28-8,4.59-8.61,5.24-9,5.66-.69.69-1.11,1.11-13.92,31-6.21,14.46-12.37,29-12.43,29.14l1.14,4.24L69,209.2l8.54,6.45c-.89,3.17-1.71,7.18-1.29,10.07l-.6,1.67a28.27,28.27,0,0,1-2.63,1.47l-1.75,1.82c-.48,1.15-1.93,5.1-.17,8a4.52,4.52,0,0,0,.34.51c-3.61,10.12-6.31,17.66-6.31,17.66l3.42,4.76.81,0L69.15,263h0c-2.72,15.57-4,35.82-4.33,41.67-9.53,8.34-8.16,24.64-7.7,30.17.05.55.1,1.17.1,1.35,0,2.9-3.57,20.92-5.24,23.44a10.8,10.8,0,0,0-2.44,6.59,20.31,20.31,0,0,1-3.38,3.58c-1.61,1.12-2.6,3-3,5.86-.44,1.19-1.8,5-3,9-2.42,8.35-2.52,12.25-.37,14.4,2.71,2.71,10.68,4.13,17.16,4.13a36.69,36.69,0,0,0,13.92-2.48,7.67,7.67,0,0,0,4.63-5.08c1.14-4.09-.76-9.42-6-16.74-.67-5.8-3.4-13.45-4.38-16.07.59-3.7,3.11-18.08,7.86-28.73a156,156,0,0,0,8.39-24c3.36-4.12,5.78-12.32,6.37-14.48l15-37.58,1-2.45A94.26,94.26,0,0,0,116,250.81l.09.05.54,2V253c12.08,45.25,13.87,51,14.33,52.2,0,.32-.13,1-.22,1.52-.87,5.2-2.89,17.31,6.75,51.4a27.64,27.64,0,0,1-1.44,6,18.07,18.07,0,0,0-2.5,7.28,11.08,11.08,0,0,0,.08,7.18c1.3,3.39,8.1,7.89,9.45,8.75,3.27,2.1,9.64,5.67,15.58,6.06q.84.06,1.68.06c9.57,0,15.89-5.57,16.74-8.69a4,4,0,0,0,.1-1.66,4.35,4.35,0,0,0-.84-5.11l-2.37-1a14,14,0,0,1-2.81-.44,7,7,0,0,0-2.13-3.2,14.44,14.44,0,0,0-4.78-2.26c-4.16-3.33-9.13-7.25-10.46-8.3-1.49-1.92-3.15-4.13-3.87-5.16-.17-2.83-.82-13.36-3.36-53.53.4-1.63,1-5.46-.09-11.47-.56-3.12-.82-16.32-.72-36.29l3.11-2.23c0-.56.27-12.33-.63-25.08l.45,0c3.1,0,4.73-1.31,5.55-2.4a5.83,5.83,0,0,0,.86-5l-.9-1.5-3.59-3.59c.85-3.14.4-7.13-1.35-11.93a50.58,50.58,0,0,0-2.62-5.93l21.86-39.22,0-3.5L142,109.55l-.2-.31a9.47,9.47,0,0,0-4.69-3.44c-.28-.3-.56-.6-.86-.9l-2.19-1-6.61-.62c-4-.59-11.25-2.06-16.15-5.46a32.18,32.18,0,0,1-1-4.89q3.09.3,6.31.3c4.31,0,17.42,0,19-9,2.87-16.49-.62-37.5-8.33-51.37,1.66-2.51,1.15-5.71-.35-8.36a4.41,4.41,0,0,0,0-.89c-.19-2.18-1.81-4.17-3.43-5.65a8.54,8.54,0,0,0-.19-4.36c-1-3-3.48-5.38-7.54-7.08A15.45,15.45,0,0,0,105,2a15.9,15.9,0,0,0-2.16.15A10.64,10.64,0,0,0,96.5,0Zm47.44,169.65c.28-4,.5-8.54.56-13.38,0-1.55,0-3.16,0-4.85l5.24,7.79-5.78,10.44Zm-84.29,10L71.75,157l6.89,4.32c1,1.86,3.3,6.49,5.57,11.51,4.23,9.33,5.1,13.08,5.26,14.42a6.49,6.49,0,0,0-1.84,2.69,6.38,6.38,0,0,0-.1,3.85L86,198.06,81.64,195l-22-15.31Z"/><path class="cls-8" d="M90.56,81l4.36,16.77s.69,4.14-.8,5.64-8.51,9.42-8.51,9.42l-3.9,7.7,22.64,12.87,27-7.24-.8-19s-13.83-.88-21.89-6.94c-1.59-1.18-2.93-15-2.93-15Z"/><path class="cls-9" d="M106.47,91.34c-.42-3.1-.77-6.21-.77-6.21L90.53,80.87l1.21,4.68s4.75,3.09,6.23,3.74A29,29,0,0,0,106.47,91.34Z"/><path class="cls-8" d="M78,117.17s-10.82,6.11-11.82,7.1-25.59,59-25.59,59l30.61,23.09,10.54,7.94s-3.34,10.23-1.38,12.18-5.75,5.6-5.75,5.6-3,7,3.07,5.51S91.9,232,91.9,232L96,209.32,79.6,197.93,55,180.81,70.4,151.9l11,6.87L94.81,149l-9.66-24.06-4.13-9Z"/><path class="cls-8" d="M81.63,74s8.78,15.63,35,15.63c10.84,0,14.86-2.53,15.47-6,3.84-22.11-4.33-50.08-15.67-58.61-9.94-7.49-45.2,20.84-45.2,20.84l7.51,16.85S71.06,54.4,68,59s6.67,14.32,6.67,14.32S79,76.62,81.63,74Z"/><path class="cls-8" d="M134,109.45c2.61-1.38,4.94,1.87,4.94,1.87l26.44,46.28-22.82,41s7.66,12.87,3.83,18.69l5.29,5.29s.84,2.83-3,2.83-12.87-6.74-12.87-6.74l1.05-28.86,17-30.73-15.65-23.26-4.89-4.34S129.13,112,134,109.45Z"/><path class="cls-8" d="M106.53,239,84.39,294.52S81.53,305,78.14,308.43a149.55,149.55,0,0,1-8.39,24.25c-5.74,12.87-8.27,30.57-8.27,30.57s5.23,13.27,4.6,19.25c0,0,5,6.89,3,10.86S59.18,395,59.18,395,46,396.69,44.07,393.41s2.47-12.06,2.47-12.06-.63-7,1.66-8.62,5.06-5.52,5.06-5.52-.86-2.3,1.55-5.4,6-23,6-25.61-3.22-22.07,7.51-29.73c0,0,2.6-52.86,10-60.22s28.27-11.72,28.27-11.72Z"/><path class="cls-10" d="M106.53,239l-7.08,17.76s-9.79,4.37-12.27,5c-1.84.45-15,4.5-14.51,1.86,1.38-8.26,3.28-15,5.59-17.34,7.35-7.35,28.27-11.72,28.27-11.72Z"/><path class="cls-8" d="M114.42,230.77S133,300.8,134.34,304s-5.86,9.46,6.78,53.82c0,0-.8,5.87-2,7.93s-3.79,7.36-.46,9.2,14.14,11,18.73,11.84,13.22-3.22,13.22-3.22,4.6-1.73,3.16-3.16c0,0-4.19-.17-5.57-1.55s-17-13.68-17-13.68-4.83-6.21-4.83-6.63-3.45-55-3.45-55,1.27-3.45,0-10.46-.65-51.18-.65-51.18Z"/><path class="cls-10" d="M114.42,230.77l5.66,21.28c.5,1.86,22.11,3.36,22.11,3.36l.12-13.45Z"/><path class="cls-11" d="M114.42,244.64c3.59,7.11,28.79,8.61,30.88,9.27,0,0,.66-28.54-3.37-44.58S114.42,244.64,114.42,244.64Z"/><path class="cls-12" d="M83.77,67.73c4.45,1.84.62-6.13.62-6.13s-.42-8-2.68-9.35a32.26,32.26,0,0,1-4.94-4l42.4-29.07s4.29-6-5.51-9.65A11.66,11.66,0,0,0,101.78,6S97.49.84,91.28,5.56c0,0-12.49-.73-15.32,5.4a4.66,4.66,0,0,0-4.6,2.6s-2.6,1-3.1,3.1c0,0-6.32,2.49-6.7,6.71,0,0-3.45,4.83-.69,8.73,0,0-1.82,3.43.53,5.79,0,0-5.28,5.78,0,9.38,0,0-1.3,3.76,6.44,5.29l2.3,4.75s2.21-1,8.58,5.36S83.77,67.73,83.77,67.73Z"/><path class="cls-9" d="M114.65,68.16a1.5,1.5,0,0,1,0-3c1.62,0,6.15-1.37,9.28-2.44-1-7.89-6-13.79-9-16.67A1.5,1.5,0,0,1,117,43.88c3.47,3.32,9.39,10.3,10,19.76l.08,1.13-1.07.39C125.18,65.47,117.59,68.16,114.65,68.16Z"/><path class="cls-13" d="M102.8,55.52h-.07A1.48,1.48,0,0,1,101.3,54c0-.43.25-4.29,3-5.75,1.74-.93,3.91-.61,6.45.95a1.5,1.5,0,1,1-1.57,2.56c-1.52-.94-2.75-1.25-3.47-.86-1.08.57-1.38,2.69-1.41,3.22A1.49,1.49,0,0,1,102.8,55.52Z"/><path class="cls-13" d="M120.22,48.76a1.48,1.48,0,0,1-1.35-2.14c1-2.13,2.34-3.26,3.94-3.36,2.66-.19,4.53,2.65,4.74,3A1.5,1.5,0,0,1,125,47.87c-.44-.68-1.39-1.62-2-1.62h0c-.31,0-.86.47-1.43,1.66A1.48,1.48,0,0,1,120.22,48.76Z"/><path class="cls-14" d="M101.14,68.73c-.23-.33,16.36,3.89,23.58.27,0,0-.92,13-6.89,13.42C111.68,82.85,105.27,79.32,101.14,68.73Z"/><g class="cls-15"><path class="cls-16" d="M99.69,70.56s15,7.18,23.15,1.39l-.33-3.33-23.32-2.4Z"/><path class="cls-17" d="M101.48,76.79s5.88-4,13.38.62-1.57,9.14-1.57,9.14Z"/></g><path class="cls-9" d="M116.18,83.46c-10.9,0-15.93-14.24-16-14.4l-.58-1.7,1.75.4c.15,0,15.46,3.43,23,.31a1,1,0,0,1,.77,1.85c-6.55,2.71-17.87,1-22.33.17,1.8,3.93,7.09,13.24,16.17,11a1,1,0,1,1,.48,1.94A13.58,13.58,0,0,1,116.18,83.46Z"/><path class="cls-9" d="M78.37,72.25s-.23-10.06-8-12.47"/><path class="cls-9" d="M70.4,151.9S77,143,76.15,144.37c-4.85,7.51,12.42,16.18,16.47,11.55a10.35,10.35,0,0,1-11.26,2.85Z"/><path class="cls-18" d="M85.61,112.82s-7.36,2.71-10.78,6.14c0,0,20.63,29.92,6.53,39.81,0,0,13,24.81,11.61,29.86s-24.45,69.46-24.45,69.46,71.25-1.27,73.79-47.85l-3.37-26.82a223.7,223.7,0,0,0,2-27.19c.15-13.09-1.28-28.13-2.33-38.4a16.6,16.6,0,0,0-4.84-10.41l-6.71-.63s5.3,17.75-7,19.43C113.48,127.13,97.57,129.26,85.61,112.82Z"/><g class="cls-19"><path class="cls-20" d="M71.17,259.83S142.43,258.57,145,212Z"/></g><path class="cls-18" d="M85.61,112.82s-7.36,2.71-10.78,6.14c0,0,20.63,29.92,6.53,39.81,0,0,13,24.81,11.61,29.86s-24.45,69.46-24.45,69.46,71.25-1.27,73.79-47.85l-3.37-26.82a223.7,223.7,0,0,0,2-27.19c.15-13.09-1.28-28.13-2.33-38.4a16.6,16.6,0,0,0-4.84-10.41l-6.71-.63s5.3,17.75-7,19.43C113.48,127.13,97.57,129.26,85.61,112.82Z"/><path class="cls-8" d="M71.17,206.36l10.54,7.94s-3.34,10.23-1.38,12.18-5.75,5.6-5.75,5.6-3,7,3.07,5.51S91.9,232,91.9,232l3.44-19.24s1.06-3.77-3.24-6.29c-3.32-1.95-12.5-8.54-12.5-8.54Z"/><path class="cls-21" d="M91.39,193.84s37.56,5,48-7c0,0,1.13-2.36-.44-3.47.22,2.21-17.65,11.84-46,5.75A3.08,3.08,0,0,0,91.39,193.84Z"/><circle class="cls-22" cx="122.59" cy="192.03" r="8.76"/><g class="cls-23"><path class="cls-24" d="M81,22.53s-3.76,4.55,1,7.6c1.68,1.07-4.94,6.21-4.94,6.21l-2.67,15A20.09,20.09,0,0,1,80.13,50L92.22,63.8l-7.76,4.85L59.72,52,43.24,20.15,64.47.88l23.21-5.4L83.6,3.56s-9.85,6-6.09,10.37C75.16,15.58,74.7,22.09,81,22.53Z"/></g><path class="cls-5" d="M70.25,57.31s-4.44-2-4.44-5.67,17.31-38.46,53.48-32.49c0,0,5.59,3.91,3.67,5.83,0,0,3.45,4.28.7,6.58S107.49,30.49,70.25,57.31Z"/><path class="cls-25" d="M72.21,49.19S95.34,21,120.09,24.67C120.09,24.67,97,25.91,72.21,49.19Z"/><path class="cls-26" d="M123.56,199.35a8.5,8.5,0,0,1-6.27-2.43c-1.67-1.87-2.14-4.59-1.39-8.08a1.5,1.5,0,0,1,2.93.63c-.54,2.5-.3,4.33.7,5.44,1.5,1.68,4.43,1.43,4.46,1.43a1.5,1.5,0,1,1,.31,3S124,199.35,123.56,199.35Z"/><path class="cls-27" d="M127.89,196.38a1.84,1.84,0,0,1-.33,0,1.5,1.5,0,0,1-1.14-1.79c.55-2.5.33-4.33-.66-5.45-1.5-1.69-4.43-1.45-4.46-1.45a1.5,1.5,0,1,1-.29-3c.18,0,4.47-.41,7,2.44,1.67,1.88,2.12,4.6,1.35,8.09A1.5,1.5,0,0,1,127.89,196.38Z"/><path class="cls-13" d="M100.6,46.17c.51-1.78,2-3,3.44-4,.9-.69,0-2.24-.9-1.54-1.81,1.37-3.61,2.83-4.26,5.1a.89.89,0,0,0,1.72.47Z"/><path class="cls-13" d="M119.52,38.19a3.78,3.78,0,0,1,3.17,1.1c.82.8,2.08-.46,1.26-1.26a5.72,5.72,0,0,0-4.9-1.56c-1.13.15-.65,1.87.47,1.72Z"/></g></svg>