<svg id="Camada_1" data-name="Camada 1" xmlns="http://www.w3.org/2000/svg" xmlns:xlink="http://www.w3.org/1999/xlink" viewBox="0 0 849.53 508.08"><defs><style>.cls-1{fill:none;}.cls-2{clip-path:url(#clip-path);}.cls-3{fill:#eaa000;}.cls-4{fill:#6d472e;}.cls-5{fill:#eac2a7;}.cls-6{fill:#97d8dd;}.cls-7{fill:#027e8f;}.cls-8{fill:#65c4d1;}.cls-9{fill:#fff;}.cls-10{clip-path:url(#clip-path-2);}.cls-11{fill:#c9a68f;}.cls-12{fill:#d6aa8b;}.cls-13{fill:#d6d6d6;}.cls-14{fill:#c99f4b;}.cls-15{fill:#f4f4f4;}.cls-16{clip-path:url(#clip-path-3);}.cls-17{fill:#b7b7b7;}.cls-18{fill:#c99e32;}.cls-19{clip-path:url(#clip-path-4);}.cls-20{fill:#aa7e30;}.cls-21{fill:#ddd;}.cls-22{fill:#846829;}.cls-23{fill:#e8cd95;}.cls-24{fill:#6d5f56;}.cls-25{fill:#493e38;}.cls-26{fill:#fcfcfc;}.cls-27{fill:#d32222;}</style><clipPath id="clip-path"><path class="cls-1" d="M240.53-404.82c-3.19-11.51-10-24.41-26.27-30.12-65.46-23-62.88-8.05-73.71-10-5.18-.92-26.69,12-44,37.5-12.81,18.8-13.89,55.75-13.89,55.75S32.43-127.11,118.48-97.4c80.43,27.77,128.73-5,128.73-5S307.43-163,240.53-404.82Z"/></clipPath><clipPath id="clip-path-2"><path class="cls-1" d="M239.87,181.76c-3.18-11.52-10-24.41-26.26-30.13-65.46-23-62.88-8-73.71-10-5.18-.92-26.69,12-44,37.5C83.05,198,82,234.91,82,234.91s-50.2,224.55,35.85,254.26c80.43,27.77,128.73-5,128.73-5S306.78,423.55,239.87,181.76Z"/></clipPath><clipPath id="clip-path-3"><path class="cls-1" d="M188.58,507c5.39,10.7,43.32,13,46.46,14,0,0,1-43-5.07-67.07S188.58,507,188.58,507Z"/></clipPath><clipPath id="clip-path-4"><path class="cls-1" d="M142.47,240.87c6.69,2.76.92-9.22.92-9.22s-.63-12-4-14.07a48.68,48.68,0,0,1-7.42-6.06L149,199.8l46.71-32s6.45-9-8.3-14.52a17.56,17.56,0,0,0-17.87-5.3s-6.45-7.73-15.79-.64c0,0-18.79-1.09-23.06,8.13a7,7,0,0,0-6.91,3.92s-3.92,1.5-4.67,4.67c0,0-9.51,3.74-10.09,10.08,0,0-5.18,7.27-1,13.15,0,0-2.74,5.15.8,8.7,0,0-8,8.7,0,14.12,0,0-2,5.65,9.69,7.95l3.45,7.15s3.33-1.51,12.91,8.07Z"/></clipPath></defs><title>Fala1</title><g class="cls-2"><path class="cls-3" d="M162.27-442.25a11.12,11.12,0,0,1,7.94,3.63,19.42,19.42,0,0,1,4.82-.63,17.54,17.54,0,0,1,13.05,5.93c14.34,5.38,8.65,14,8.32,14.51l.15,0s8.42,5.88,5.54,8.76c0,0,5.19,6.44,1,9.9a4.53,4.53,0,0,1-1.51.76c11.8,18.37,18.83,50.79,14.18,77.52-.92,5.3-7,9.1-23.27,9.1h0a86.71,86.71,0,0,1-15.77-1.39c.16,1.24.33,2.59.52,3.95h0c.82,5.82,2,12.44,3.31,13.42,8.32,6.24,20.71,8.82,27.68,9.83l10.09.94a25.6,25.6,0,0,1,2.24,2.55h.11c3,0,5.43,3.32,5.43,3.32l39.78,69.64-34.33,61.6s11.52,19.36,5.76,28.13l8,8s1.27,4.26-4.49,4.26c-1.72,0-4.14-.9-6.68-2.17a437.59,437.59,0,0,1,1.59,45.13,43,43,0,0,0-4.65-.7l0,2.94h0c-.11,20.47,0,50,1.16,56.78,1.9,10.54,0,15.73,0,15.73s5.19,82.07,5.19,82.71,7.26,10,7.26,10,9.61,7.56,17.08,13.55h0s4.5,1.18,6.26,2.65a6.1,6.1,0,0,1,1.88,3.92c.5.34,1.32.9,2.27,1.58a24.15,24.15,0,0,0,6.49,1.21c1,1,0,2.15-1.34,3,.75.8,1.19,1.49,1.07,2-.49,1.8-7.44,9.12-20,9.12-.7,0-1.43,0-2.17-.07-13.2-.87-31.5-14.93-33-18.85a11.68,11.68,0,0,1,.19-7.9c0-3.34,2-7.34,3.14-9.34,1.73-3.11,2.94-11.93,2.94-11.93-19-66.74-8.13-76.13-10.21-81C217.89,6.72,206.13-37,197.75-68.4h0a.83.83,0,0,1,0-.15c-.49-1.81-1-3.59-1.42-5.32A22.49,22.49,0,0,1,192-76.43a136.35,136.35,0,0,1-22.83,9.05l-2.41,6L144.05-4.5s-4.3,15.82-9.4,20.92A225.75,225.75,0,0,1,122,52.91c-8.65,19.36-12.45,46-12.45,46s6.19,15.73,6.92,25.55c7.29,10,13.83,22.29,5.15,25.92a49.76,49.76,0,0,1-18.87,3.32c-10.46,0-19.84-2.45-22-4.64-3.51-3.51,6.47-30.14,6.47-30.14.3-2.42,1-4.76,2.39-5.74,3.46-2.43,7.61-8.3,7.61-8.3s-1.3-3.46,2.33-8.13,9-34.61,9-38.53S103.7,25,119.84,13.48c0,0,1.84-37.43,6.58-64.51h0c.51-3.07,1.07-6,1.68-8.73-5,.41-7.93.46-7.93.46S125-72.66,131.08-89.84c-5.22-.5-1.79-8.61-1.79-8.61a42.76,42.76,0,0,0,6.13-3.61c.67-1.86,1.33-3.74,2-5.63-1.72-4.26,2.59-17.5,2.59-17.5l-15.85-11.95-46-34.74s37-87.26,38.5-88.76c1-1,8.12-5.15,13-8,5.15-5.16,16.23-9.24,16.23-9.24s10.55-11.93,12.8-14.18,1.21-8.47,1.21-8.47l-5.78-22.19c-10.2-6.41-14.22-13.55-14.22-13.55a5.1,5.1,0,0,1-3.76,1.51c-3.36,0-6.73-2.54-6.73-2.54s-14.64-14.64-10-21.56a4.35,4.35,0,0,1,3.8-2.09c3,0,6.6,2.48,9.13,4.62-5.19-4.54-8-5.15-9.09-5.15l-.35,0-.09.06-.07,0-.1,0-.06-.11c-1.09-.54-6-3.23-6.41-7.79-8.27-2.59-6.68-7.2-6.68-7.2-7.95-5.41,0-14.12,0-14.12-3.54-3.54-.8-8.7-.8-8.7-4.15-5.88,1-13.14,1-13.14.57-6.34,10.08-10.09,10.08-10.09.75-3.17,4.67-4.67,4.67-4.67a6.93,6.93,0,0,1,6.39-3.94c.33,0,.53,0,.53,0,3.44-7.45,16.37-8.16,21.21-8.16,1.15,0,1.84,0,1.84,0a12.94,12.94,0,0,1,7.85-3m65,272.4,21.35-38.49-20.29-30.17c.53,8.66.87,17.57.78,25.95a337.89,337.89,0,0,1-3,40.91,2.87,2.87,0,0,1,1.16,1.8m-78,28.67c2.07-5.91,3.87-11.08,5.21-15-2.13-4.29,1.22-6.22,2.22-6.68l.28-.93c2.07-7.6-17.47-44.93-17.47-44.93L123-219.07,99.87-175.58l37,25.75,12.41,8.65M269.33,121.63h0M162.27-447.61h0a17.46,17.46,0,0,0-9.47,2.95h-.22c-7,0-18.65,1.17-24.31,8.4a12,12,0,0,0-7.62,5,13.53,13.53,0,0,0-5,4.75c-3.43,1.74-9.7,5.73-11.1,12.12-2.18,3.64-4.23,9.77-1.79,15.54a13.12,13.12,0,0,0,.26,8.07,15.91,15.91,0,0,0-2.4,9.71A12.05,12.05,0,0,0,104.1-374a10.1,10.1,0,0,0,.93,2.82,13.37,13.37,0,0,0,6.63,5.92,14.39,14.39,0,0,0,2.75,4.27c-2.6,4.76-1.32,11,3.82,18.53a69.55,69.55,0,0,0,7.38,9l.57.49c.8.6,5,3.63,10,3.63a10.83,10.83,0,0,0,2-.18,54.17,54.17,0,0,0,11.32,10.21l5.19,19.91a12.66,12.66,0,0,1,0,3.89c-2.34,2.41-9.3,10.25-11.87,13.15-3.25,1.3-11.37,4.82-16.33,9.45-12,6.91-13,7.88-13.59,8.52-1,1-1.67,1.67-20.95,46.62C82.54-196,73.27-174.19,73.17-174l1.71,6.38,46.05,34.73,12.86,9.7c-1.33,4.77-2.58,10.8-1.94,15.15l-.9,2.52a42.22,42.22,0,0,1-4,2.2l-2.64,2.75c-.72,1.72-2.89,7.66-.25,12.09.16.26.33.52.51.76-5.43,15.23-9.49,26.57-9.49,26.57l5.15,7.17,1.21,0c-.12.67-.24,1.36-.35,2.06h0c-4.09,23.43-6,53.89-6.52,62.7C100.26,23.33,102.33,47.86,103,56.17c.07.83.15,1.77.15,2-.06,4.36-5.38,31.48-7.89,35.27a16.18,16.18,0,0,0-3.67,9.91,30.26,30.26,0,0,1-5.09,5.38c-2.42,1.69-3.91,4.58-4.55,8.82-.65,1.79-2.7,7.49-4.47,13.58-3.63,12.57-3.78,18.44-.55,21.67,4.08,4.08,16.07,6.21,25.82,6.21a55.1,55.1,0,0,0,20.94-3.73,11.52,11.52,0,0,0,7-7.64c1.71-6.15-1.15-14.17-9-25.19-1-8.72-5.12-20.23-6.6-24.18.89-5.56,4.68-27.2,11.83-43.22A234.2,234.2,0,0,0,139.55,19c5.06-6.21,8.69-18.54,9.59-21.78l22.55-56.55L173.16-63a142.75,142.75,0,0,0,18.42-7.24l.14.08.81,3,0,.08v0c18.17,68.08,20.86,76.71,21.55,78.54,0,.48-.19,1.47-.33,2.29-1.3,7.81-4.35,26,10.15,77.33-.55,3.54-1.49,7.78-2.15,9-2.29,4.12-3.56,7.8-3.78,11a16.75,16.75,0,0,0,.13,10.8c2,5.1,12.19,11.87,14.23,13.17,4.91,3.15,14.49,8.53,23.43,9.12.84.05,1.69.08,2.52.08,14.4,0,23.92-8.38,25.19-13.07a5.84,5.84,0,0,0,.15-2.5,6.63,6.63,0,0,0,.7-2.36,6.51,6.51,0,0,0-2-5.33l-3.56-1.57a20.11,20.11,0,0,1-4.23-.66,10.58,10.58,0,0,0-3.2-4.81,22.22,22.22,0,0,0-7.2-3.4c-6.26-5-13.73-10.91-15.74-12.49-2.24-2.89-4.74-6.21-5.82-7.77-.26-4.24-1.24-20.09-5.06-80.53.6-2.44,1.5-8.21-.13-17.26-.84-4.68-1.24-24.55-1.08-54.59l4.68-3.35c0-.85.4-18.56-1-37.73l.68,0c4.66,0,7.11-2,8.34-3.62a8.75,8.75,0,0,0,1.3-7.54l-1.35-2.26-5.4-5.41c1.27-4.71.6-10.72-2-17.94a74.85,74.85,0,0,0-4-8.92l32.9-59,0-5.27-39.78-69.64-.31-.47a14.17,14.17,0,0,0-7.05-5.17c-.41-.46-.84-.91-1.29-1.36l-3.29-1.55-10-.92c-6-.89-16.91-3.11-24.29-8.23a49.06,49.06,0,0,1-1.55-7.36c3.09.31,6.27.47,9.49.47,6.49,0,26.22,0,28.57-13.55,4.31-24.81-.94-56.41-12.54-77.29,2.5-3.77,1.73-8.58-.53-12.58a7.5,7.5,0,0,0,0-1.34c-.29-3.28-2.71-6.26-5.17-8.49a12.61,12.61,0,0,0-.28-6.56c-1.42-4.53-5.24-8.1-11.34-10.65a23.23,23.23,0,0,0-16.2-6.77,23.88,23.88,0,0,0-3.25.22,16,16,0,0,0-9.51-3.22Zm71.37,255.24c.42-6,.76-12.84.84-20.13q0-3.48,0-7.29l7.88,11.72-8.7,15.7Zm-126.81,15.1,18.2-34.2L135.4-205c1.43,2.79,5,9.77,8.38,17.3,6.36,14,7.67,19.69,7.92,21.7a9.87,9.87,0,0,0-2.78,4.05,9.71,9.71,0,0,0-.15,5.79q-1,2.85-2.25,6.51l-6.61-4.61-33.08-23Z"/><path class="cls-4" d="M223.33,112a11.68,11.68,0,0,0-.19,7.9c1.5,3.92,19.8,18,33,18.85,13.94.91,21.67-7.15,22.19-9s-9-8.11-9-8.11Z"/><path class="cls-4" d="M87.22,118.91s-10,26.63-6.47,30.14,25.6,7.72,40.9,1.32S105,110.6,105,110.6Z"/><path class="cls-5" d="M177.36-88,144.05-4.5s-4.3,15.82-9.4,20.92A225.75,225.75,0,0,1,122,52.91c-8.65,19.36-12.45,46-12.45,46s7.87,20,6.92,29c0,0,7.52,10.38,4.49,16.34s-14.87,2.42-14.87,2.42-19.8,2.6-22.74-2.33,3.72-18.16,3.72-18.16-.95-10.54,2.51-13,7.61-8.3,7.61-8.3-1.3-3.46,2.33-8.13,9-34.61,9-38.53S103.7,25,119.84,13.48c0,0,3.92-79.54,15-90.6s42.54-17.64,42.54-17.64Z"/><path class="cls-5" d="M189.23-100.41S217.13,5,219.2,9.79s-8.81,14.24,10.21,81c0,0-1.21,8.82-2.94,11.93s-5.71,11.07-.69,13.84S247,133.14,254,134.35s19.88-4.84,19.88-4.84,6.92-2.6,4.76-4.76c0,0-6.31-.26-8.39-2.33s-25.59-20.58-25.59-20.58-7.26-9.34-7.26-10-5.19-82.71-5.19-82.71,1.9-5.19,0-15.73-1-77-1-77Z"/><path class="cls-4" d="M82.05,139.22s19.8-8.47,39.59-2a8.6,8.6,0,0,0-1.46-4.84c-1.65-2.6-26.46-6.57-37,2.12C83.17,134.51,80.92,137.75,82.05,139.22Z"/><path class="cls-4" d="M249.48,132.63s.77-17.44,19.85-11l.52.42a6.23,6.23,0,0,0-1.89-4c-1.76-1.47-6.26-2.65-6.26-2.65s-17.48-4.3-17.23,14.27C244.47,129.66,247.2,133.5,249.48,132.63Z"/></g><path class="cls-3" d="M176.61,157.85C270.08,158,345.82,234.5,345.93,329S270.12,500,176.61,500,7.29,423.44,7.29,329s75.81-171.1,169.32-171.1m0-8h0a174.69,174.69,0,0,0-69.05,14.09,176.7,176.7,0,0,0-56.36,38.4,180.11,180.11,0,0,0,0,253.21A176.53,176.53,0,0,0,107.56,494a176.24,176.24,0,0,0,138.1,0A178.86,178.86,0,0,0,340,398.63,180.09,180.09,0,0,0,302,202.4,176.72,176.72,0,0,0,245.63,164a174.9,174.9,0,0,0-69-14.15Z"/><path class="cls-6" d="M176.61,157.85C83.1,157.85,7.29,234.45,7.29,329S83.1,500,176.61,500,345.93,423.44,345.93,329,270.08,158,176.61,157.85Zm0,330.78c-87.28,0-158-71.49-158-159.68s70.75-159.69,158-159.69,158,71.49,158,159.69S263.85,488.53,176.61,488.63Z"/><path class="cls-6" d="M256.52,204.66a5.62,5.62,0,0,0-7.82,1.67l-9.23,14.34a5.73,5.73,0,0,0,1.79,8,74.63,74.63,0,0,1,6.33,4.56c1.27,1,2.54,2,3.54,2.66,1.75,1.46,3.43,3,5.1,4.55l-3.9,4a112.35,112.35,0,0,0-24.74-17.13l11.54-26.16a5.72,5.72,0,0,0-2.86-7.54,146.5,146.5,0,0,0-52-12.51,5.57,5.57,0,0,0-4.07,1.45,5.67,5.67,0,0,0-1.85,4l-.88,17.08a5.69,5.69,0,0,0,5.33,6l5.94.31,6.34,1c.81.14,1.62.26,2.43.38,1.23.18,2.45.35,3.52.6l.78.2-1.49,5.58a114.09,114.09,0,0,0-29.89-2.44l-2.92-28.54a5.76,5.76,0,0,0-2.06-3.84,5.63,5.63,0,0,0-4.15-1.24A144.31,144.31,0,0,0,110,196.92a5.74,5.74,0,0,0-2.46,7.67l7.7,15.24a5.63,5.63,0,0,0,7.4,2.58c1.14-.53,2.26-1.09,3.39-1.64a58.13,58.13,0,0,1,8.06-3.51l1.44-.54c1.7-.63,3.35-1.25,5-1.81l1.46,5.52c-1.39.48-2.74,1-4.08,1.48l-1.34.52a53.78,53.78,0,0,0-8,3.43c-1,.49-1.93,1-3.39,1.67l-9.56,5.56-.65.37L98.3,210.35a5.6,5.6,0,0,0-7.88-1.26A147.89,147.89,0,0,0,53.61,248.2a5.76,5.76,0,0,0-.79,4.3,5.68,5.68,0,0,0,2.45,3.6l14.19,9.33a5.61,5.61,0,0,0,4.33.78,5.7,5.7,0,0,0,3.57-2.59,71,71,0,0,1,4.49-6.38c1-1.3,2-2.59,2.65-3.6,1.44-1.76,3-3.46,4.5-5.15l3.91,3.94a113.64,113.64,0,0,0-17,25L50.07,265.76a5.63,5.63,0,0,0-7.46,2.9,150.25,150.25,0,0,0-12.38,52.56,5.67,5.67,0,0,0,5.34,6l16.91.88a5.58,5.58,0,0,0,4.08-1.44,5.71,5.71,0,0,0,1.85-3.95l.3-6,1-6.39c.14-.82.26-1.65.37-2.48.18-1.23.35-2.47.59-3.53l.2-.79L66.36,305a117.35,117.35,0,0,0-2.43,30.2l-28.23,3a5.65,5.65,0,0,0-3.8,2.08,5.78,5.78,0,0,0-1.23,4.19A150.08,150.08,0,0,0,46,396.25a5.61,5.61,0,0,0,7.59,2.48L68.62,391a5.73,5.73,0,0,0,2.55-7.48c-.52-1.13-1.06-2.25-1.6-3.37a58.7,58.7,0,0,1-3.49-8.2l-.55-1.5c-.63-1.7-1.24-3.35-1.78-5l5.53-1.49a113.71,113.71,0,0,0,12.89,27.3L59.25,408.07A5.67,5.67,0,0,0,57,411.8,5.76,5.76,0,0,0,58,416a147.51,147.51,0,0,0,38.7,37.19A5.6,5.6,0,0,0,101,454a5.67,5.67,0,0,0,3.57-2.47l9.23-14.35a5.79,5.79,0,0,0,.78-4.37,5.73,5.73,0,0,0-2.57-3.61,72.47,72.47,0,0,1-6.33-4.56c-1.27-1-2.54-2-3.54-2.66-1.75-1.46-3.43-3-5.11-4.55l4-4c1.51,1.39,3.06,2.8,5,4.36,1.1.78,2.17,1.61,3.24,2.44a68.86,68.86,0,0,0,6.28,4.48l10.08,5.84.12.06-11.55,26.19a5.72,5.72,0,0,0,2.86,7.54,146.24,146.24,0,0,0,52,12.51h.3a5.67,5.67,0,0,0,5.63-5.41l.87-17.08a5.68,5.68,0,0,0-5.33-6l-5.94-.31-6.33-1c-.81-.14-1.62-.26-2.43-.38-1.23-.17-2.45-.35-3.52-.6l-.78-.19,1.49-5.59a114.09,114.09,0,0,0,29.89,2.44l2.92,28.54a5.74,5.74,0,0,0,2.06,3.84,5.63,5.63,0,0,0,4.15,1.24A144.41,144.41,0,0,0,243.22,461a5.74,5.74,0,0,0,2.45-7.68L238,438.07a5.63,5.63,0,0,0-7.4-2.59c-1.13.53-2.26,1.09-3.38,1.65a58.2,58.2,0,0,1-8.07,3.5l-1.44.55c-1.7.63-3.35,1.25-5,1.8l-1.48-5.59a110.7,110.7,0,0,0,27-13l16.69,23.17a5.6,5.6,0,0,0,7.88,1.26,147.89,147.89,0,0,0,36.81-39.11,5.75,5.75,0,0,0-1.65-7.9l-14.2-9.33a5.59,5.59,0,0,0-4.32-.78,5.67,5.67,0,0,0-3.58,2.6,74,74,0,0,1-4.49,6.38c-1,1.29-1.95,2.58-2.65,3.59-1.44,1.77-3,3.47-4.5,5.16l-3.91-4a113.82,113.82,0,0,0,16.95-25l25.89,11.66a5.63,5.63,0,0,0,7.46-2.89A150.3,150.3,0,0,0,323,336.68a5.67,5.67,0,0,0-5.34-6l-16.91-.89a5.71,5.71,0,0,0-5.93,5.39l-.3,6-1,6.39c-.14.83-.26,1.65-.38,2.48-.17,1.23-.34,2.47-.58,3.54l-.2.79L287,352.93l0-.14c.31-1.33.5-2.68.69-4,.09-.63.17-1.27.29-2l.87-5.61c0-.19.05-.38.06-.58l.3-6V323.27a2.81,2.81,0,0,0,0-.29l0-.27,28.35-3a5.63,5.63,0,0,0,3.8-2.08,5.72,5.72,0,0,0,1.23-4.19,149.58,149.58,0,0,0-15.28-51.82,5.62,5.62,0,0,0-7.59-2.48L284.59,267a5.74,5.74,0,0,0-2.55,7.48c.52,1.13,1.07,2.24,1.61,3.36a59.16,59.16,0,0,1,3.48,8.2l.56,1.5c.62,1.7,1.23,3.35,1.77,5L283.93,294A113.47,113.47,0,0,0,271,266.68L294,249.82a5.71,5.71,0,0,0,2.26-3.72,5.78,5.78,0,0,0-1-4.25A147.51,147.51,0,0,0,256.52,204.66ZM260,260.73a5.67,5.67,0,0,0-2.26,3.72,5.74,5.74,0,0,0,1,4.25,102.19,102.19,0,0,1,15.91,33.69,5.67,5.67,0,0,0,6.91,4L297.89,302a5.7,5.7,0,0,0,4.06-6.7,84.76,84.76,0,0,0-3.68-11.79l-.45-1.22a58.48,58.48,0,0,0-3.17-7.74l5-2.59a138.87,138.87,0,0,1,10.93,37l-27.95,2.93a5.7,5.7,0,0,0-5.05,6l.29,5.53v10.91l-.27,5.37-.81,5.24c-.12.74-.23,1.49-.34,2.24-.13,1-.26,2-.46,2.88l-1.41,5.48a5.72,5.72,0,0,0,4,6.95L295,366.9a5.63,5.63,0,0,0,4.3-.58,5.72,5.72,0,0,0,2.62-3.51l1.65-6.5c.35-1.52.58-3.07.8-4.61.1-.74.2-1.46.34-2.29l1-7,0-.87,5.54.28a139.31,139.31,0,0,1-8.83,37.55l-25.66-11.56a5.61,5.61,0,0,0-4.33-.11,5.67,5.67,0,0,0-3.13,3,102.32,102.32,0,0,1-20.92,30.87,5.75,5.75,0,0,0,0,8.06l12,12.1a5.47,5.47,0,0,0,4.16,1.66,5.59,5.59,0,0,0,4.05-1.91q1.51-1.71,3.06-3.4c1.95-2.14,3.9-4.29,6-6.86.86-1.22,1.76-2.41,2.67-3.61.62-.83,1.26-1.66,1.89-2.52l4.74,3.11a136.37,136.37,0,0,1-26.31,28l-16.54-23a5.67,5.67,0,0,0-3.69-2.28,5.59,5.59,0,0,0-4.19,1A100.21,100.21,0,0,1,202.89,428a5.65,5.65,0,0,0-3.43,2.66,5.79,5.79,0,0,0-.57,4.33l4.38,16.53a5.63,5.63,0,0,0,6.64,4.1,83.31,83.31,0,0,0,11.7-3.73l1.17-.44a57.54,57.54,0,0,0,7.65-3.21l2.56,5.09a135.53,135.53,0,0,1-36.64,11l-2.89-28.23a5.7,5.7,0,0,0-2-3.84A5.55,5.55,0,0,0,187.3,431a102.62,102.62,0,0,1-37-3,5.6,5.6,0,0,0-4.29.57,5.74,5.74,0,0,0-2.63,3.46l-4.37,16.53a5.78,5.78,0,0,0,.58,4.36,5.67,5.67,0,0,0,3.46,2.64l6.43,1.67c1.52.35,3,.58,4.59.81.71.1,1.43.2,2.24.34l7,1.05.87.05-.29,5.6a135.61,135.61,0,0,1-37.15-8.94l11.43-25.92a5.72,5.72,0,0,0-2.7-7.46l-4.69-2.27-9.62-5.59a56.16,56.16,0,0,1-5.14-3.7c-1.2-.93-2.4-1.85-3.27-2.45-1.63-1.36-3.19-2.81-4.75-4.25-1.16-1.08-2.32-2.16-3.52-3.22a5.61,5.61,0,0,0-7.7.27l-12,12.1a5.74,5.74,0,0,0,.24,8.29c1.11,1,2.21,2,3.32,3,2.14,2,4.29,4,6.84,6.09,1.2.87,2.38,1.78,3.55,2.69.83.64,1.67,1.29,2.52,1.93l-3.09,4.79a136.16,136.16,0,0,1-27.66-26.59l22.73-16.71a5.74,5.74,0,0,0,1.24-8,102.33,102.33,0,0,1-15.91-33.7,5.66,5.66,0,0,0-6.91-4l-16.36,4.42a5.7,5.7,0,0,0-4.06,6.7A84.76,84.76,0,0,0,55,374.38l.45,1.22a58.48,58.48,0,0,0,3.17,7.74l-5,2.59a139.31,139.31,0,0,1-10.93-37L70.55,346a5.7,5.7,0,0,0,5-6.23,105.59,105.59,0,0,1,3-37.34,5.82,5.82,0,0,0-.57-4.34,5.63,5.63,0,0,0-3.43-2.65L58.24,291a5.59,5.59,0,0,0-4.3.59,5.73,5.73,0,0,0-2.62,3.5l-1.65,6.5c-.35,1.52-.58,3.07-.8,4.62-.1.73-.2,1.46-.34,2.28l-1,7-.05.87-5.54-.28a139.7,139.7,0,0,1,8.84-37.55L76.4,290.12a5.56,5.56,0,0,0,4.33.11,5.67,5.67,0,0,0,3.13-3,102.26,102.26,0,0,1,20.92-30.87,5.74,5.74,0,0,0,0-8.05l-12-12.1a5.6,5.6,0,0,0-8.21.24q-1.52,1.71-3.06,3.4c-2,2.15-3.9,4.3-6,6.86-.86,1.22-1.76,2.42-2.67,3.61-.63.83-1.26,1.67-1.89,2.53l-4.74-3.12a136.37,136.37,0,0,1,26.31-28l16.54,23A5.61,5.61,0,0,0,117,246l1.31-1a19.44,19.44,0,0,1,2.76-1.92l9.24-5.4c1.08-.5,2.16-1,3.23-1.57a46,46,0,0,1,6.61-2.86l1.68-.62A56,56,0,0,1,150,230a5.71,5.71,0,0,0,4.31-7.06L150,206.4a5.64,5.64,0,0,0-6.64-4.1,82.89,82.89,0,0,0-11.7,3.73l-1.17.44a57.49,57.49,0,0,0-7.65,3.2l-2.57-5.08a135.62,135.62,0,0,1,36.65-11.05l2.89,28.24a5.64,5.64,0,0,0,2,3.84,5.52,5.52,0,0,0,4.13,1.25,102.62,102.62,0,0,1,37,3,5.61,5.61,0,0,0,4.28-.57,5.68,5.68,0,0,0,2.63-3.47l4.38-16.53a5.75,5.75,0,0,0-.58-4.35,5.63,5.63,0,0,0-3.47-2.64l-6.42-1.67c-1.52-.36-3-.59-4.59-.81-.71-.1-1.43-.21-2.24-.35l-7-1-.87,0,.29-5.6a135.32,135.32,0,0,1,37.15,8.93L215,227.69a5.75,5.75,0,0,0-.11,4.37,5.66,5.66,0,0,0,3,3.16,101.36,101.36,0,0,1,30.55,21.15,5.61,5.61,0,0,0,8,0l12-12.1a5.74,5.74,0,0,0-.24-8.29c-1.11-1-2.21-2-3.32-3.05-2.14-2-4.29-4-6.84-6.09-1.2-.86-2.38-1.77-3.55-2.68-.83-.64-1.67-1.29-2.52-1.93l3.09-4.79A136.16,136.16,0,0,1,282.68,244Z"/><path class="cls-6" d="M176.61,237.7a90,90,0,0,0-78.36,45.76,91.89,91.89,0,0,0,.49,91.46,4.25,4.25,0,0,0,.35.58,91.36,91.36,0,0,0,23,26c.14.1.23.25.38.34l.12,0a88.88,88.88,0,0,0,108,0s.1,0,.15-.06.24-.24.38-.34a91.36,91.36,0,0,0,23-26,5.65,5.65,0,0,0,.36-.58,91.94,91.94,0,0,0,.48-91.46A90,90,0,0,0,176.61,237.7Zm-10.17,12.15L103.79,359.93a80.52,80.52,0,0,1,4.31-70.74A78.88,78.88,0,0,1,166.44,249.85Zm-33.7,145.46,43.87-77.06,43.87,77.06a78.14,78.14,0,0,1-87.74,0Zm96.69-7.15L184,308.27a8.42,8.42,0,0,0-14.68,0l-45.48,79.89a80.27,80.27,0,0,1-13.73-16.35l66.55-117,12.91,22.63c.08.17.16.34.26.51l53.38,93.85a80.27,80.27,0,0,1-13.73,16.35Zm20-28.23-49.61-87.2a3.16,3.16,0,0,0-.26-.52L186.8,249.85a78.92,78.92,0,0,1,58.32,39.35,80.53,80.53,0,0,1,4.31,70.73Z"/><path class="cls-7" d="M595.47,33.21c-131.18,0-239,88.6-251.44,202l-74.66,29.74s-4.88,1.8-4.39,8.8a9.53,9.53,0,0,0,5.57,8.17l78.17,23.46C373.61,405.81,474.62,481,595.47,481,735,481,848.12,380.77,848.12,257.11S735,33.21,595.47,33.21Z"/><path class="cls-8" d="M597.59,0c-131.17,0-239,88.6-251.43,202l-74.67,29.74s-4.88,1.81-4.39,8.81a9.53,9.53,0,0,0,5.58,8.16l78.16,23.46c24.89,100.47,125.91,175.67,246.75,175.67,139.54,0,252.65-100.24,252.65-223.9S737.13,0,597.59,0Z"/><path class="cls-9" d="M410.59,193.65l1.89-.15V178.82l-1.89-.16v-1h12.67v3.75H422l-.11-2.55h-8.06v6.66h7.05v1.21h-7.05v6.81l1.89.15v1h-5.16Z"/><path class="cls-9" d="M425.39,193.65l1.89-.15V183.2l-1.89-.15V182h3.27v11.5l1.89.15v1h-5.16Zm3.27-15.28h-1.38v-2h1.38Z"/><path class="cls-9" d="M432.63,193.65l1.89-.15V183.2l-1.89-.15V182h3.12l.13,2.22a4.3,4.3,0,0,1,4.05-2.45A3.83,3.83,0,0,1,443,183a6,6,0,0,1,1.07,3.93v6.54l1.89.15v1h-5.17v-1l1.89-.15V187a4.6,4.6,0,0,0-.81-3.08,2.92,2.92,0,0,0-2.29-.9,3.55,3.55,0,0,0-2.38.78,4.31,4.31,0,0,0-1.33,2.07v7.66l1.89.15v1h-5.17Z"/><path class="cls-9" d="M456.84,194.68a10.8,10.8,0,0,1-.19-1.11,7.46,7.46,0,0,1-.06-.95,5.42,5.42,0,0,1-1.86,1.65,5.17,5.17,0,0,1-2.61.66,4,4,0,0,1-2.85-1,3.43,3.43,0,0,1-1-2.6,3.23,3.23,0,0,1,1.5-2.79,7,7,0,0,1,4.06-1h2.77v-1.68a2.7,2.7,0,0,0-.87-2.13,3.46,3.46,0,0,0-2.41-.77,6,6,0,0,0-1.91.28A4.27,4.27,0,0,0,450,184l-.11,1.7h-1.15v-2.44a7.33,7.33,0,0,1,2.08-1.1,7.84,7.84,0,0,1,2.58-.42,5,5,0,0,1,3.34,1.07,3.75,3.75,0,0,1,1.27,3v6.24c0,.26,0,.51,0,.74a5.35,5.35,0,0,0,.07.7l1.25.08v1Zm-4.57-1a5,5,0,0,0,2.66-.71,4.12,4.12,0,0,0,1.66-1.81v-2.54h-2.8a5.17,5.17,0,0,0-3,.79,2.35,2.35,0,0,0-1.13,2,2.14,2.14,0,0,0,.7,1.65A2.79,2.79,0,0,0,452.27,193.69Z"/><path class="cls-9" d="M461,177.45v-1h3.27v17.1l1.89.15v1H461v-1l1.89-.15V177.6Z"/><path class="cls-9" d="M468.06,183.05V182h3.12l.12,2.1a4.33,4.33,0,0,1,4-2.33,3.62,3.62,0,0,1,3.78,2.87,4.92,4.92,0,0,1,1.62-2.1,4.22,4.22,0,0,1,2.55-.77,3.76,3.76,0,0,1,3.1,1.35,6.5,6.5,0,0,1,1.1,4.17v6.2l1.89.16v1h-5.18v-1l1.89-.16v-6.22a5.12,5.12,0,0,0-.82-3.31,2.81,2.81,0,0,0-2.28-1,3.1,3.1,0,0,0-2.5,1,5.08,5.08,0,0,0-1.08,2.66v.18a1.22,1.22,0,0,1,0,.21v6.42l1.89.15v1h-5.17v-1l1.89-.15v-6.23a5.14,5.14,0,0,0-.83-3.29,2.81,2.81,0,0,0-2.28-1,3.47,3.47,0,0,0-2.35.75,4,4,0,0,0-1.21,2v7.72l1.89.15v1h-5.17v-1l1.89-.15V183.2Z"/><path class="cls-9" d="M496.49,194.93a5,5,0,0,1-3.92-1.75,6.51,6.51,0,0,1-1.55-4.46v-.65a6.68,6.68,0,0,1,1.55-4.51,4.79,4.79,0,0,1,3.74-1.79,4.6,4.6,0,0,1,3.63,1.48,5.66,5.66,0,0,1,1.32,3.93v1.2H492.4v.34a5.67,5.67,0,0,0,1.13,3.58,3.59,3.59,0,0,0,3,1.45,5.84,5.84,0,0,0,2.21-.37,4.32,4.32,0,0,0,1.56-1l.59,1a4.93,4.93,0,0,1-1.78,1.19A6.89,6.89,0,0,1,496.49,194.93Zm-.18-12a3.31,3.31,0,0,0-2.58,1.18,5.18,5.18,0,0,0-1.23,3l0,.06h7.35v-.36a4.07,4.07,0,0,0-1-2.76A3.29,3.29,0,0,0,496.31,183Z"/><path class="cls-9" d="M503.49,193.65l1.89-.15V183.2l-1.89-.15V182h3.12l.12,2.22a4.56,4.56,0,0,1,1.63-1.81,4.5,4.5,0,0,1,2.43-.64A3.85,3.85,0,0,1,513.9,183,6,6,0,0,1,515,187v6.54l1.89.15v1h-5.17v-1l1.89-.15V187a4.6,4.6,0,0,0-.81-3.08,2.92,2.92,0,0,0-2.29-.9,3.55,3.55,0,0,0-2.38.78,4.31,4.31,0,0,0-1.33,2.07v7.66l1.89.15v1h-5.17Z"/><path class="cls-9" d="M522.23,178.76V182H525v1.15h-2.76v8.26a2.8,2.8,0,0,0,.44,1.77,1.49,1.49,0,0,0,1.19.52c.23,0,.44,0,.66,0s.46,0,.73-.1l.21,1a3.36,3.36,0,0,1-.84.24,6.85,6.85,0,0,1-1,.08,2.6,2.6,0,0,1-2.06-.84,4,4,0,0,1-.74-2.68v-8.26h-2.15V182h2.15v-3.24Z"/><path class="cls-9" d="M533.07,194.93a5,5,0,0,1-3.92-1.75,6.51,6.51,0,0,1-1.55-4.46v-.65a6.63,6.63,0,0,1,1.55-4.51,4.77,4.77,0,0,1,3.74-1.79,4.63,4.63,0,0,1,3.63,1.48,5.66,5.66,0,0,1,1.32,3.93v1.2H529v.34a5.61,5.61,0,0,0,1.13,3.58,3.59,3.59,0,0,0,3,1.45,5.79,5.79,0,0,0,2.2-.37,4.27,4.27,0,0,0,1.57-1l.59,1a5,5,0,0,1-1.78,1.19A6.89,6.89,0,0,1,533.07,194.93Zm-.18-12a3.33,3.33,0,0,0-2.59,1.18,5.24,5.24,0,0,0-1.22,3l0,.06h7.36v-.36a4,4,0,0,0-1-2.76A3.27,3.27,0,0,0,532.89,183Z"/><path class="cls-9" d="M551.45,193.75a4,4,0,0,0,2.44-.8,2.63,2.63,0,0,0,1.05-2.22h1.23l0,.08a3.53,3.53,0,0,1-1.39,2.94,5.12,5.12,0,0,1-3.36,1.18,4.72,4.72,0,0,1-4-1.78,7.09,7.09,0,0,1-1.41-4.56v-.49a7.1,7.1,0,0,1,1.41-4.55,4.72,4.72,0,0,1,3.94-1.78,6.3,6.3,0,0,1,2.66.55,5.37,5.37,0,0,1,2,1.5l.05,2.77h-1.18l-.22-2.25a3.92,3.92,0,0,0-1.38-1,4.75,4.75,0,0,0-1.89-.36,3.32,3.32,0,0,0-3,1.45,6.5,6.5,0,0,0-1,3.68v.49a6.58,6.58,0,0,0,1,3.7A3.34,3.34,0,0,0,551.45,193.75Z"/><path class="cls-9" d="M558.38,177.45v-1h3.27v7.77a4.53,4.53,0,0,1,1.67-1.77,4.58,4.58,0,0,1,2.43-.63,3.79,3.79,0,0,1,3,1.24,5.91,5.91,0,0,1,1.06,3.86v6.63l1.89.15v1h-5.17v-1l1.89-.15v-6.66a4.34,4.34,0,0,0-.81-3,2.84,2.84,0,0,0-2.22-.9,3.72,3.72,0,0,0-2.38.75,4.43,4.43,0,0,0-1.41,2v7.75l1.89.15v1h-5.16v-1l1.89-.15V177.6Z"/><path class="cls-9" d="M579.25,194.93a5,5,0,0,1-3.92-1.75,6.51,6.51,0,0,1-1.55-4.46v-.65a6.63,6.63,0,0,1,1.55-4.51,4.77,4.77,0,0,1,3.74-1.79,4.63,4.63,0,0,1,3.63,1.48,5.66,5.66,0,0,1,1.32,3.93v1.2h-8.86v.34a5.61,5.61,0,0,0,1.13,3.58,3.59,3.59,0,0,0,3,1.45,5.88,5.88,0,0,0,2.21-.37,4.32,4.32,0,0,0,1.56-1l.59,1a4.93,4.93,0,0,1-1.78,1.19A6.89,6.89,0,0,1,579.25,194.93Zm-.18-12a3.31,3.31,0,0,0-2.58,1.18,5.18,5.18,0,0,0-1.23,3l0,.06h7.35v-.36a4.07,4.07,0,0,0-1-2.76A3.3,3.3,0,0,0,579.07,183Z"/><path class="cls-9" d="M586.56,188.45a8.27,8.27,0,0,1,1.28-4.86,4.11,4.11,0,0,1,3.55-1.82,4.47,4.47,0,0,1,2.32.59,4.7,4.7,0,0,1,1.61,1.67l.17-2h1.17v12.52a5.51,5.51,0,0,1-1.31,3.87,4.76,4.76,0,0,1-3.66,1.42,9.12,9.12,0,0,1-1.93-.23A7.51,7.51,0,0,1,588,199l.37-1.18a7.89,7.89,0,0,0,1.59.56,7.54,7.54,0,0,0,1.74.2,3.3,3.3,0,0,0,2.69-1.07,4.39,4.39,0,0,0,.91-3v-1.61a4.46,4.46,0,0,1-1.62,1.5,4.71,4.71,0,0,1-2.28.52,4.18,4.18,0,0,1-3.54-1.7,7.36,7.36,0,0,1-1.27-4.53Zm1.39.25a6.47,6.47,0,0,0,.92,3.65,3.11,3.11,0,0,0,2.76,1.36,3.9,3.9,0,0,0,2.25-.62,4,4,0,0,0,1.39-1.71V185.5a4.41,4.41,0,0,0-1.34-1.81,3.51,3.51,0,0,0-2.28-.7,3.07,3.07,0,0,0-2.77,1.52,7.49,7.49,0,0,0-.93,3.94Z"/><path class="cls-9" d="M609,192.6a4.31,4.31,0,0,1-1.61,1.72,4.63,4.63,0,0,1-2.42.61,3.78,3.78,0,0,1-3.1-1.36,6.55,6.55,0,0,1-1.12-4.22V183.2l-1.56-.15V182h2.94v7.38a5.5,5.5,0,0,0,.78,3.32,2.62,2.62,0,0,0,2.22,1,4.06,4.06,0,0,0,2.51-.7,3.79,3.79,0,0,0,1.32-1.95V183.2l-1.79-.15V182h3.18v11.5l1.68.15v1h-2.9Z"/><path class="cls-9" d="M619.63,194.93a5,5,0,0,1-3.92-1.75,6.51,6.51,0,0,1-1.55-4.46v-.65a6.68,6.68,0,0,1,1.55-4.51,4.79,4.79,0,0,1,3.74-1.79,4.6,4.6,0,0,1,3.63,1.48,5.66,5.66,0,0,1,1.32,3.93v1.2h-8.86v.34a5.67,5.67,0,0,0,1.13,3.58,3.59,3.59,0,0,0,3,1.45,5.88,5.88,0,0,0,2.21-.37,4.32,4.32,0,0,0,1.56-1l.59,1a4.93,4.93,0,0,1-1.78,1.19A6.89,6.89,0,0,1,619.63,194.93Zm-.18-12a3.31,3.31,0,0,0-2.58,1.18,5.18,5.18,0,0,0-1.23,3l0,.06H623v-.36a4.07,4.07,0,0,0-1-2.76A3.29,3.29,0,0,0,619.45,183Z"/><path class="cls-9" d="M626.79,193.65l1.89-.15V183.2l-1.89-.15V182h3.27v11.5l1.89.15v1h-5.16Zm3.27-15.28h-1.38v-2h1.38Z"/><path class="cls-9" d="M645.59,194.93a5,5,0,0,1-3.92-1.75,6.47,6.47,0,0,1-1.56-4.46v-.65a6.68,6.68,0,0,1,1.55-4.51,4.79,4.79,0,0,1,3.74-1.79,4.6,4.6,0,0,1,3.63,1.48,5.66,5.66,0,0,1,1.32,3.93v1.2h-8.86v.34a5.67,5.67,0,0,0,1.13,3.58,3.62,3.62,0,0,0,3,1.45,5.79,5.79,0,0,0,2.2-.37,4.45,4.45,0,0,0,1.57-1l.59,1a5,5,0,0,1-1.79,1.19A6.84,6.84,0,0,1,645.59,194.93Zm-.19-12a3.31,3.31,0,0,0-2.58,1.18,5.11,5.11,0,0,0-1.22,3l0,.06H649v-.36a4.07,4.07,0,0,0-1-2.76A3.27,3.27,0,0,0,645.4,183Z"/><path class="cls-9" d="M652.54,183.05V182h3.12l.12,2.1a4.46,4.46,0,0,1,1.61-1.72,4.57,4.57,0,0,1,2.41-.61,4,4,0,0,1,2.4.71,3.92,3.92,0,0,1,1.38,2.16,4.82,4.82,0,0,1,1.61-2.1,4.25,4.25,0,0,1,2.56-.77,3.76,3.76,0,0,1,3.1,1.35,6.56,6.56,0,0,1,1.1,4.17v6.2l1.89.16v1h-5.18v-1l1.89-.16v-6.22a5.18,5.18,0,0,0-.82-3.31,2.82,2.82,0,0,0-2.28-1,3.1,3.1,0,0,0-2.5,1,5.08,5.08,0,0,0-1.08,2.66v.18a1.22,1.22,0,0,1,0,.21v6.42l1.89.15v1H660.6v-1l1.89-.15v-6.23a5.14,5.14,0,0,0-.83-3.29,2.83,2.83,0,0,0-2.28-1,3.47,3.47,0,0,0-2.35.75,4,4,0,0,0-1.21,2v7.72l1.89.15v1h-5.17v-1l1.89-.15V183.2Z"/><path class="cls-9" d="M680.84,193.65l1.25-.09,6-15.94h1.31l5.94,15.94,1.26.09v1h-4.16v-1l1.47-.11-1.39-3.82h-7.58l-1.41,3.82,1.48.11v1h-4.16Zm4.55-5.19h6.67l-3.28-9h-.07Z"/><path class="cls-9" d="M700.5,178.76V182h2.76v1.15H700.5v8.26a2.73,2.73,0,0,0,.45,1.77,1.48,1.48,0,0,0,1.19.52c.22,0,.44,0,.65,0s.46,0,.74-.1l.21,1a3.58,3.58,0,0,1-.85.24,6.74,6.74,0,0,1-1,.08,2.6,2.6,0,0,1-2.06-.84,4,4,0,0,1-.73-2.68v-8.26h-2.16V182h2.16v-3.24Z"/><path class="cls-9" d="M711.34,194.93a5,5,0,0,1-3.91-1.75,6.47,6.47,0,0,1-1.56-4.46v-.65a6.68,6.68,0,0,1,1.55-4.51,4.79,4.79,0,0,1,3.74-1.79,4.6,4.6,0,0,1,3.63,1.48,5.66,5.66,0,0,1,1.32,3.93v1.2h-8.86v.34a5.67,5.67,0,0,0,1.13,3.58,3.6,3.6,0,0,0,3,1.45,5.84,5.84,0,0,0,2.21-.37,4.32,4.32,0,0,0,1.56-1l.6,1a5.06,5.06,0,0,1-1.79,1.19A6.89,6.89,0,0,1,711.34,194.93Zm-.18-12a3.31,3.31,0,0,0-2.58,1.18,5.18,5.18,0,0,0-1.23,3l0,.06h7.35v-.36a4.07,4.07,0,0,0-1-2.76A3.27,3.27,0,0,0,711.16,183Z"/><path class="cls-9" d="M718.34,193.65l1.89-.15V183.2l-1.89-.15V182h3.12l.13,2.22a4.3,4.3,0,0,1,4-2.45,3.83,3.83,0,0,1,3.11,1.26,6,6,0,0,1,1.07,3.93v6.54l1.89.15v1h-5.17v-1l1.89-.15V187a4.6,4.6,0,0,0-.81-3.08,2.92,2.92,0,0,0-2.29-.9,3.55,3.55,0,0,0-2.38.78,4.31,4.31,0,0,0-1.33,2.07v7.66l1.89.15v1h-5.17Z"/><path class="cls-9" d="M742.55,194.68a10.8,10.8,0,0,1-.19-1.11,7.46,7.46,0,0,1-.06-.95,5.42,5.42,0,0,1-1.86,1.65,5.17,5.17,0,0,1-2.61.66,4,4,0,0,1-2.85-1,3.43,3.43,0,0,1-1-2.6,3.23,3.23,0,0,1,1.5-2.79,7,7,0,0,1,4.06-1h2.77v-1.68a2.7,2.7,0,0,0-.87-2.13A3.46,3.46,0,0,0,739,183a6,6,0,0,0-1.91.28,4.27,4.27,0,0,0-1.45.78l-.11,1.7H734.4v-2.44a7.33,7.33,0,0,1,2.08-1.1,7.84,7.84,0,0,1,2.58-.42,5,5,0,0,1,3.34,1.07,3.75,3.75,0,0,1,1.27,3v6.24c0,.26,0,.51,0,.74a5.35,5.35,0,0,0,.07.7l1.25.08v1Zm-4.57-1a5,5,0,0,0,2.66-.71,4.12,4.12,0,0,0,1.66-1.81v-2.54h-2.8a5.17,5.17,0,0,0-3,.79,2.35,2.35,0,0,0-1.13,2,2.14,2.14,0,0,0,.7,1.65A2.79,2.79,0,0,0,738,193.69Z"/><path class="cls-9" d="M756.1,185.92H755l-.16-1.79a3.48,3.48,0,0,0-1.32-.86,5.15,5.15,0,0,0-1.82-.3,3.37,3.37,0,0,0-2.28.66,2,2,0,0,0-.76,1.55,1.85,1.85,0,0,0,.65,1.45,6.27,6.27,0,0,0,2.62,1,8.58,8.58,0,0,1,3.35,1.38,2.85,2.85,0,0,1,1.11,2.37,3.06,3.06,0,0,1-1.27,2.56,5.34,5.34,0,0,1-3.35,1,7.83,7.83,0,0,1-2.54-.39,5.83,5.83,0,0,1-2-1.11v-2.55h1.12l.2,1.8a3.09,3.09,0,0,0,1.41.81,6.13,6.13,0,0,0,1.78.26,3.83,3.83,0,0,0,2.37-.67,2,2,0,0,0,.87-1.62,2.08,2.08,0,0,0-.72-1.56,6,6,0,0,0-2.62-1.09,8.83,8.83,0,0,1-3.32-1.3,2.71,2.71,0,0,1-1.08-2.28,3.08,3.08,0,0,1,1.21-2.46,4.92,4.92,0,0,1,3.22-1,7,7,0,0,1,2.52.43,5.07,5.07,0,0,1,1.86,1.15Z"/><path class="cls-9" d="M761.06,194.68h-1.65v-2h1.65Zm-.14-5.6h-1.38V177.62h1.38Z"/><path class="cls-9" d="M420.79,244h-6.93v7.08h8l.11-2.55h1.23v3.73H410.59v-1l1.89-.15V236.42l-1.89-.16v-1h12.53V239h-1.23l-.11-2.55h-7.92v6.41h6.93Z"/><path class="cls-9" d="M436.94,251.35a4,4,0,0,0,2.44-.8,2.63,2.63,0,0,0,1.05-2.22h1.23l0,.07a3.5,3.5,0,0,1-1.38,2.95,5.12,5.12,0,0,1-3.36,1.18,4.72,4.72,0,0,1-3.95-1.78,7.09,7.09,0,0,1-1.41-4.56v-.49a7.1,7.1,0,0,1,1.41-4.55,4.72,4.72,0,0,1,3.94-1.78,6.3,6.3,0,0,1,2.66.55,5.37,5.37,0,0,1,2,1.5l.05,2.77h-1.18l-.22-2.25a3.87,3.87,0,0,0-1.39-1,4.67,4.67,0,0,0-1.88-.37,3.36,3.36,0,0,0-3,1.46,6.58,6.58,0,0,0-1,3.68v.49a6.58,6.58,0,0,0,1,3.7A3.34,3.34,0,0,0,436.94,251.35Z"/><path class="cls-9" d="M444.27,245.76a6.9,6.9,0,0,1,1.52-4.6,5.43,5.43,0,0,1,8.06,0,6.9,6.9,0,0,1,1.52,4.6v.38a6.85,6.85,0,0,1-1.51,4.6,5.44,5.44,0,0,1-8.07,0,6.86,6.86,0,0,1-1.52-4.6Zm1.39.38a6.13,6.13,0,0,0,1.1,3.71,3.87,3.87,0,0,0,6.12,0,6.13,6.13,0,0,0,1.1-3.71v-.38a6,6,0,0,0-1.11-3.68,3.83,3.83,0,0,0-6.11,0,6.08,6.08,0,0,0-1.1,3.68Z"/><path class="cls-9" d="M457.38,251.25l1.89-.15V240.8l-1.89-.15V239.6h3.12l.12,2.22a4.56,4.56,0,0,1,1.63-1.81,4.5,4.5,0,0,1,2.43-.64,3.85,3.85,0,0,1,3.11,1.26,6,6,0,0,1,1.07,3.93v6.54l1.89.15v1h-5.17v-1l1.89-.15v-6.53a4.6,4.6,0,0,0-.81-3.08,2.92,2.92,0,0,0-2.29-.9,3.55,3.55,0,0,0-2.38.78,4.31,4.31,0,0,0-1.33,2.07v7.66l1.89.15v1h-5.17Z"/><path class="cls-9" d="M482,243.52H480.9l-.17-1.79a3.37,3.37,0,0,0-1.31-.86,5.16,5.16,0,0,0-1.83-.31,3.41,3.41,0,0,0-2.28.67,2,2,0,0,0-.76,1.55,1.83,1.83,0,0,0,.66,1.45,6.22,6.22,0,0,0,2.61,1,8.58,8.58,0,0,1,3.35,1.38,2.83,2.83,0,0,1,1.12,2.37,3.09,3.09,0,0,1-1.27,2.56,5.39,5.39,0,0,1-3.36,1,7.76,7.76,0,0,1-2.53-.39,5.88,5.88,0,0,1-2-1.11v-2.55h1.12l.2,1.8a3.18,3.18,0,0,0,1.41.81,6.18,6.18,0,0,0,1.78.26,3.85,3.85,0,0,0,2.38-.67,2,2,0,0,0,.87-1.62,2.06,2.06,0,0,0-.73-1.56,5.86,5.86,0,0,0-2.61-1.09,8.83,8.83,0,0,1-3.32-1.3,2.69,2.69,0,0,1-1.09-2.28,3.09,3.09,0,0,1,1.22-2.46,4.87,4.87,0,0,1,3.21-1,7,7,0,0,1,2.52.43A5,5,0,0,1,482,241Z"/><path class="cls-9" d="M490.35,252.53a5,5,0,0,1-3.92-1.75,6.47,6.47,0,0,1-1.56-4.46v-.65a6.68,6.68,0,0,1,1.55-4.51,4.79,4.79,0,0,1,3.74-1.79,4.6,4.6,0,0,1,3.63,1.48,5.66,5.66,0,0,1,1.32,3.93V246h-8.86v.34a5.67,5.67,0,0,0,1.13,3.58,3.62,3.62,0,0,0,3,1.45,5.79,5.79,0,0,0,2.2-.37,4.45,4.45,0,0,0,1.57-1l.59,1a5,5,0,0,1-1.79,1.19A6.87,6.87,0,0,1,490.35,252.53Zm-.19-12a3.32,3.32,0,0,0-2.58,1.19,5.11,5.11,0,0,0-1.22,3l0,.06h7.35v-.36a4.07,4.07,0,0,0-1-2.76A3.28,3.28,0,0,0,490.16,240.56Z"/><path class="cls-9" d="M497.65,246.05a8.27,8.27,0,0,1,1.29-4.86,4.1,4.1,0,0,1,3.55-1.82,4.41,4.41,0,0,1,2.31.59,4.64,4.64,0,0,1,1.62,1.67l.16-2h1.18v12.52a5.47,5.47,0,0,1-1.32,3.87,4.73,4.73,0,0,1-3.65,1.41,9.07,9.07,0,0,1-1.93-.22,7.51,7.51,0,0,1-1.79-.61l.37-1.18A7.8,7.8,0,0,0,501,256a7.69,7.69,0,0,0,1.75.2,3.3,3.3,0,0,0,2.69-1.07,4.44,4.44,0,0,0,.9-3v-1.61a4.36,4.36,0,0,1-1.61,1.5,4.74,4.74,0,0,1-2.28.52,4.18,4.18,0,0,1-3.54-1.7,7.36,7.36,0,0,1-1.28-4.53Zm1.4.25A6.39,6.39,0,0,0,500,250a3.09,3.09,0,0,0,2.75,1.36,3.7,3.7,0,0,0,3.64-2.33V243.1a4.39,4.39,0,0,0-1.33-1.81,3.51,3.51,0,0,0-2.28-.7,3,3,0,0,0-2.77,1.52,7.49,7.49,0,0,0-.93,3.94Z"/><path class="cls-9" d="M520.13,250.2a4.34,4.34,0,0,1-1.62,1.72,4.6,4.6,0,0,1-2.42.61,3.79,3.79,0,0,1-3.1-1.36,6.55,6.55,0,0,1-1.12-4.22V240.8l-1.55-.15V239.6h2.93V247a5.5,5.5,0,0,0,.78,3.32,2.65,2.65,0,0,0,2.23,1,4.08,4.08,0,0,0,2.51-.7,3.71,3.71,0,0,0,1.31-2V240.8l-1.78-.15V239.6h3.17v11.5l1.69.15v1h-2.9Z"/><path class="cls-9" d="M525.1,251.25l1.9-.15V240.8l-1.9-.15V239.6h3.28v11.5l1.88.15v1H525.1ZM528.38,236H527v-2h1.38Z"/><path class="cls-9" d="M543.73,251.35a4,4,0,0,0,2.44-.8,2.63,2.63,0,0,0,1.05-2.22h1.23l0,.07a3.5,3.5,0,0,1-1.38,2.95,5.12,5.12,0,0,1-3.36,1.18,4.72,4.72,0,0,1-4-1.78,7.09,7.09,0,0,1-1.41-4.56v-.49a7.1,7.1,0,0,1,1.41-4.55,4.72,4.72,0,0,1,3.94-1.78,6.26,6.26,0,0,1,2.65.55,5.21,5.21,0,0,1,2,1.5l.06,2.77h-1.18l-.22-2.25a3.87,3.87,0,0,0-1.39-1,4.67,4.67,0,0,0-1.88-.37,3.35,3.35,0,0,0-3,1.46,6.58,6.58,0,0,0-1,3.68v.49a6.51,6.51,0,0,0,1,3.7A3.34,3.34,0,0,0,543.73,251.35Z"/><path class="cls-9" d="M550.65,235.05V234h3.27v7.77a4.47,4.47,0,0,1,4.11-2.4,3.76,3.76,0,0,1,3,1.24,5.85,5.85,0,0,1,1.07,3.86v6.63l1.89.15v1h-5.18v-1l1.89-.15v-6.66a4.44,4.44,0,0,0-.8-3,2.86,2.86,0,0,0-2.22-.89,3.77,3.77,0,0,0-2.39.75,4.59,4.59,0,0,0-1.41,2v7.75l1.89.15v1h-5.16v-1l1.89-.15V235.2Z"/><path class="cls-9" d="M571.53,252.53a5,5,0,0,1-3.92-1.75,6.47,6.47,0,0,1-1.56-4.46v-.65a6.68,6.68,0,0,1,1.55-4.51,4.8,4.8,0,0,1,3.74-1.79,4.6,4.6,0,0,1,3.63,1.48,5.66,5.66,0,0,1,1.32,3.93V246h-8.86v.34a5.67,5.67,0,0,0,1.13,3.58,3.62,3.62,0,0,0,3,1.45,5.79,5.79,0,0,0,2.2-.37,4.45,4.45,0,0,0,1.57-1l.59,1a5,5,0,0,1-1.79,1.19A6.84,6.84,0,0,1,571.53,252.53Zm-.19-12a3.32,3.32,0,0,0-2.58,1.19,5.11,5.11,0,0,0-1.22,3l0,.06h7.35v-.36a4.07,4.07,0,0,0-1-2.76A3.28,3.28,0,0,0,571.34,240.56Z"/><path class="cls-9" d="M578.83,246.05a8.27,8.27,0,0,1,1.29-4.86,4.11,4.11,0,0,1,3.55-1.82A4.41,4.41,0,0,1,586,240a4.64,4.64,0,0,1,1.62,1.67l.16-2h1.18v12.52a5.51,5.51,0,0,1-1.31,3.87A4.77,4.77,0,0,1,584,257.4a9.07,9.07,0,0,1-1.93-.22,7.51,7.51,0,0,1-1.79-.61l.37-1.18a7.8,7.8,0,0,0,1.58.56,7.69,7.69,0,0,0,1.75.2,3.3,3.3,0,0,0,2.69-1.07,4.44,4.44,0,0,0,.9-3v-1.61a4.36,4.36,0,0,1-1.61,1.5,4.74,4.74,0,0,1-2.28.52,4.18,4.18,0,0,1-3.54-1.7,7.36,7.36,0,0,1-1.28-4.53Zm1.4.25a6.39,6.39,0,0,0,.92,3.65,3.09,3.09,0,0,0,2.75,1.36,3.7,3.7,0,0,0,3.64-2.33V243.1a4.39,4.39,0,0,0-1.33-1.81,3.51,3.51,0,0,0-2.28-.7,3,3,0,0,0-2.77,1.52,7.49,7.49,0,0,0-.93,3.94Z"/><path class="cls-9" d="M600.75,252.28a10.8,10.8,0,0,1-.19-1.11,7.46,7.46,0,0,1-.06-.95,5.42,5.42,0,0,1-1.86,1.65,5.17,5.17,0,0,1-2.61.66,4,4,0,0,1-2.85-1,3.43,3.43,0,0,1-1-2.6,3.23,3.23,0,0,1,1.5-2.79,7,7,0,0,1,4.06-1h2.77v-1.68a2.69,2.69,0,0,0-.87-2.13,3.46,3.46,0,0,0-2.41-.78,6,6,0,0,0-1.91.29,4.27,4.27,0,0,0-1.45.78l-.11,1.7H592.6v-2.44a7.33,7.33,0,0,1,2.08-1.1,7.84,7.84,0,0,1,2.58-.42,5,5,0,0,1,3.34,1.07,3.75,3.75,0,0,1,1.27,3.05v6.24c0,.26,0,.5,0,.74a5.35,5.35,0,0,0,.07.7l1.25.08v1Zm-4.57-1a5,5,0,0,0,2.66-.71,4.12,4.12,0,0,0,1.66-1.81v-2.54h-2.8a5.17,5.17,0,0,0-3,.79,2.35,2.35,0,0,0-1.13,2,2.14,2.14,0,0,0,.7,1.65A2.79,2.79,0,0,0,596.18,251.29Z"/><path class="cls-9" d="M608.2,239.6l.17,2.11v.16a4.44,4.44,0,0,1,1.46-1.84,3.63,3.63,0,0,1,2.18-.66,3,3,0,0,1,.52,0l.41.09-.18,1.31-1-.07a3.15,3.15,0,0,0-2.15.74,4.14,4.14,0,0,0-1.2,2.05v7.57l1.89.15v1H605.1v-1l1.89-.15V240.8l-1.89-.15V239.6h3.1Z"/><path class="cls-9" d="M629.18,252.28a11.15,11.15,0,0,1-.2-1.11,7.46,7.46,0,0,1-.06-.95,5.38,5.38,0,0,1-1.85,1.65,5.22,5.22,0,0,1-2.61.66,4,4,0,0,1-2.86-1,3.43,3.43,0,0,1-1-2.6,3.23,3.23,0,0,1,1.5-2.79,7,7,0,0,1,4.06-1h2.77v-1.68a2.71,2.71,0,0,0-.86-2.13,3.49,3.49,0,0,0-2.42-.78,6.07,6.07,0,0,0-1.91.29,4.31,4.31,0,0,0-1.44.78l-.12,1.7H621l0-2.44a7.2,7.2,0,0,1,2.08-1.1,7.84,7.84,0,0,1,2.58-.42,5,5,0,0,1,3.34,1.07,3.78,3.78,0,0,1,1.26,3.05v6.24c0,.26,0,.5,0,.74s0,.47.07.7l1.26.08v1Zm-4.57-1a5,5,0,0,0,2.65-.71,4.06,4.06,0,0,0,1.66-1.81v-2.54h-2.79a5.15,5.15,0,0,0-3,.79,2.34,2.34,0,0,0-1.14,2,2.11,2.11,0,0,0,.71,1.65A2.77,2.77,0,0,0,624.61,251.29Z"/><path class="cls-9" d="M633.36,251.25l1.89-.15V240.8l-1.89-.15V239.6h3.12l.13,2.22a4.33,4.33,0,0,1,4.06-2.45,3.85,3.85,0,0,1,3.11,1.26,6,6,0,0,1,1.06,3.93v6.54l1.89.15v1h-5.17v-1l1.89-.15v-6.53a4.67,4.67,0,0,0-.8-3.08,2.92,2.92,0,0,0-2.29-.9,3.58,3.58,0,0,0-2.39.78,4.46,4.46,0,0,0-1.33,2.07v7.66l1.9.15v1h-5.18Z"/><path class="cls-9" d="M652.1,236.36v3.24h2.76v1.15H652.1V249a2.73,2.73,0,0,0,.45,1.77,1.48,1.48,0,0,0,1.19.52c.22,0,.44,0,.65,0s.46-.05.74-.1l.21,1a3.79,3.79,0,0,1-.85.24,6.61,6.61,0,0,1-1,.08,2.58,2.58,0,0,1-2.06-.84,4,4,0,0,1-.74-2.68v-8.26h-2.16V239.6h2.16v-3.24Z"/><path class="cls-9" d="M663,252.53a5,5,0,0,1-3.92-1.75,6.47,6.47,0,0,1-1.56-4.46v-.65a6.68,6.68,0,0,1,1.55-4.51,4.79,4.79,0,0,1,3.74-1.79,4.6,4.6,0,0,1,3.63,1.48,5.66,5.66,0,0,1,1.32,3.93V246h-8.86v.34A5.67,5.67,0,0,0,660,249.9a3.62,3.62,0,0,0,3,1.45,5.79,5.79,0,0,0,2.2-.37,4.45,4.45,0,0,0,1.57-1l.59,1a5,5,0,0,1-1.79,1.19A6.84,6.84,0,0,1,663,252.53Zm-.19-12a3.32,3.32,0,0,0-2.58,1.19,5.11,5.11,0,0,0-1.22,3l0,.06h7.35v-.36a4.07,4.07,0,0,0-1-2.76A3.28,3.28,0,0,0,662.76,240.56Z"/><path class="cls-9" d="M679.3,243.52h-1.14l-.16-1.79a3.48,3.48,0,0,0-1.32-.86,5.06,5.06,0,0,0-1.82-.31,3.41,3.41,0,0,0-2.28.67,2,2,0,0,0-.76,1.55,1.85,1.85,0,0,0,.65,1.45,6.27,6.27,0,0,0,2.62,1,8.58,8.58,0,0,1,3.35,1.38,2.85,2.85,0,0,1,1.11,2.37,3.08,3.08,0,0,1-1.26,2.56,5.39,5.39,0,0,1-3.36,1,7.87,7.87,0,0,1-2.54-.39,5.83,5.83,0,0,1-2-1.11v-2.55h1.12l.2,1.8a3.18,3.18,0,0,0,1.41.81,6.18,6.18,0,0,0,1.78.26,3.87,3.87,0,0,0,2.38-.67,2,2,0,0,0,.87-1.62,2.09,2.09,0,0,0-.73-1.56,5.91,5.91,0,0,0-2.61-1.09,8.89,8.89,0,0,1-3.33-1.3,2.71,2.71,0,0,1-1.08-2.28,3.06,3.06,0,0,1,1.22-2.46,4.87,4.87,0,0,1,3.21-1,7,7,0,0,1,2.52.43,5.07,5.07,0,0,1,1.86,1.15Z"/><path class="cls-9" d="M696.58,250.46A4.44,4.44,0,0,1,695,252a4.76,4.76,0,0,1-2.32.54,4.15,4.15,0,0,1-3.52-1.7,7.36,7.36,0,0,1-1.27-4.53v-.25a8.35,8.35,0,0,1,1.27-4.86,4.08,4.08,0,0,1,3.54-1.82,4.44,4.44,0,0,1,2.27.56,4.59,4.59,0,0,1,1.61,1.58V235.2l-1.9-.15V234h3.29v17.1l1.89.15v1H696.7Zm-7.32-4.16a6.43,6.43,0,0,0,.91,3.65,3.08,3.08,0,0,0,2.75,1.36,3.87,3.87,0,0,0,2.23-.61,4,4,0,0,0,1.4-1.67v-6a4.38,4.38,0,0,0-1.34-1.76,3.57,3.57,0,0,0-2.27-.68,3,3,0,0,0-2.76,1.52,7.53,7.53,0,0,0-.92,3.94Z"/><path class="cls-9" d="M702,245.76a6.9,6.9,0,0,1,1.52-4.6,5.43,5.43,0,0,1,8.06,0,6.9,6.9,0,0,1,1.52,4.6v.38a6.91,6.91,0,0,1-1.51,4.6,5.44,5.44,0,0,1-8.07,0,6.86,6.86,0,0,1-1.52-4.6Zm1.39.38a6.13,6.13,0,0,0,1.1,3.71,3.87,3.87,0,0,0,6.12,0,6.13,6.13,0,0,0,1.1-3.71v-.38a6,6,0,0,0-1.11-3.68,3.83,3.83,0,0,0-6.11,0,6.08,6.08,0,0,0-1.1,3.68Z"/><path class="cls-9" d="M724.42,243.52h-1.13l-.16-1.79a3.48,3.48,0,0,0-1.32-.86,5.16,5.16,0,0,0-1.83-.31,3.41,3.41,0,0,0-2.28.67,2,2,0,0,0-.76,1.55,1.83,1.83,0,0,0,.66,1.45,6.28,6.28,0,0,0,2.61,1,8.64,8.64,0,0,1,3.36,1.38,2.85,2.85,0,0,1,1.11,2.37,3.06,3.06,0,0,1-1.27,2.56,5.39,5.39,0,0,1-3.36,1,7.76,7.76,0,0,1-2.53-.39,6,6,0,0,1-2-1.11v-2.55h1.13l.19,1.8a3.18,3.18,0,0,0,1.41.81,6.18,6.18,0,0,0,1.78.26,3.85,3.85,0,0,0,2.38-.67,2,2,0,0,0,.87-1.62,2.06,2.06,0,0,0-.73-1.56,5.86,5.86,0,0,0-2.61-1.09,8.83,8.83,0,0,1-3.32-1.3,2.69,2.69,0,0,1-1.09-2.28,3.09,3.09,0,0,1,1.22-2.46,4.87,4.87,0,0,1,3.21-1,7.11,7.11,0,0,1,2.53.43,5.07,5.07,0,0,1,1.86,1.15Z"/><path class="cls-9" d="M732.61,240.65V239.6h3l.18,2a4.36,4.36,0,0,1,3.95-2.2,4.09,4.09,0,0,1,3.54,1.82,8.35,8.35,0,0,1,1.27,4.86v.25a7.39,7.39,0,0,1-1.27,4.54,4.16,4.16,0,0,1-3.52,1.69,5,5,0,0,1-2.31-.51,4.26,4.26,0,0,1-1.62-1.45V256l1.89.16v1h-5.16v-1l1.89-.16V240.8Zm10.6,5.4a7.39,7.39,0,0,0-1-3.94,3.08,3.08,0,0,0-2.78-1.52,3.61,3.61,0,0,0-2.28.67,4.2,4.2,0,0,0-1.32,1.75v6.1a3.72,3.72,0,0,0,3.62,2.24,3.14,3.14,0,0,0,2.77-1.39,6.37,6.37,0,0,0,.94-3.66Z"/><path class="cls-9" d="M752.4,252.53a5,5,0,0,1-3.92-1.75,6.47,6.47,0,0,1-1.56-4.46v-.65a6.68,6.68,0,0,1,1.55-4.51,4.79,4.79,0,0,1,3.74-1.79,4.6,4.6,0,0,1,3.63,1.48,5.66,5.66,0,0,1,1.32,3.93V246H748.3v.34a5.67,5.67,0,0,0,1.13,3.58,3.61,3.61,0,0,0,3,1.45,5.82,5.82,0,0,0,2.2-.37,4.45,4.45,0,0,0,1.57-1l.59,1a5,5,0,0,1-1.79,1.19A6.87,6.87,0,0,1,752.4,252.53Zm-.19-12a3.32,3.32,0,0,0-2.58,1.19,5.11,5.11,0,0,0-1.22,3l0,.06h7.35v-.36a4.07,4.07,0,0,0-1-2.76A3.28,3.28,0,0,0,752.21,240.56Z"/><path class="cls-9" d="M762.65,239.6l.17,2.11v.16a4.44,4.44,0,0,1,1.46-1.84,3.63,3.63,0,0,1,2.18-.66,3,3,0,0,1,.52,0l.41.09-.18,1.31-1-.07a3.15,3.15,0,0,0-2.15.74,4.14,4.14,0,0,0-1.2,2.05v7.57l1.89.15v1h-5.16v-1l1.89-.15V240.8l-1.89-.15V239.6h3.1Z"/><path class="cls-9" d="M778.29,243.52h-1.13l-.17-1.79a3.37,3.37,0,0,0-1.31-.86,5.16,5.16,0,0,0-1.83-.31,3.41,3.41,0,0,0-2.28.67,2,2,0,0,0-.76,1.55,1.83,1.83,0,0,0,.66,1.45,6.22,6.22,0,0,0,2.61,1,8.58,8.58,0,0,1,3.35,1.38,2.83,2.83,0,0,1,1.12,2.37,3.09,3.09,0,0,1-1.27,2.56,5.39,5.39,0,0,1-3.36,1,7.76,7.76,0,0,1-2.53-.39,5.88,5.88,0,0,1-2-1.11v-2.55h1.12l.2,1.8a3.18,3.18,0,0,0,1.41.81,6.18,6.18,0,0,0,1.78.26,3.85,3.85,0,0,0,2.38-.67,2,2,0,0,0,.87-1.62,2.06,2.06,0,0,0-.73-1.56,5.86,5.86,0,0,0-2.61-1.09,8.83,8.83,0,0,1-3.32-1.3,2.69,2.69,0,0,1-1.09-2.28,3.09,3.09,0,0,1,1.22-2.46,4.87,4.87,0,0,1,3.21-1,7,7,0,0,1,2.52.43,5,5,0,0,1,1.86,1.15Z"/><path class="cls-9" d="M789.74,252.28c-.09-.43-.16-.8-.2-1.11a7.46,7.46,0,0,1-.06-.95,5.38,5.38,0,0,1-1.85,1.65,5.22,5.22,0,0,1-2.61.66,4,4,0,0,1-2.85-1,3.4,3.4,0,0,1-1-2.6,3.24,3.24,0,0,1,1.49-2.79,7,7,0,0,1,4.06-1h2.77v-1.68a2.68,2.68,0,0,0-.86-2.13,3.49,3.49,0,0,0-2.42-.78,6.12,6.12,0,0,0-1.91.29,4.31,4.31,0,0,0-1.44.78l-.12,1.7h-1.14v-2.44a7.2,7.2,0,0,1,2.08-1.1,7.84,7.84,0,0,1,2.58-.42,5,5,0,0,1,3.34,1.07,3.78,3.78,0,0,1,1.26,3.05v6.24c0,.26,0,.5,0,.74a5.35,5.35,0,0,0,.08.7l1.25.08v1Zm-4.57-1a5,5,0,0,0,2.65-.71,4.06,4.06,0,0,0,1.66-1.81v-2.54h-2.79a5.15,5.15,0,0,0-3,.79,2.33,2.33,0,0,0-1.13,2,2.1,2.1,0,0,0,.7,1.65A2.79,2.79,0,0,0,785.17,251.29Z"/><path class="cls-9" d="M803.28,243.52h-1.13l-.17-1.79a3.37,3.37,0,0,0-1.31-.86,5.16,5.16,0,0,0-1.83-.31,3.41,3.41,0,0,0-2.28.67,2,2,0,0,0-.76,1.55,1.83,1.83,0,0,0,.66,1.45,6.28,6.28,0,0,0,2.61,1,8.64,8.64,0,0,1,3.36,1.38,2.85,2.85,0,0,1,1.11,2.37,3.06,3.06,0,0,1-1.27,2.56,5.39,5.39,0,0,1-3.36,1,7.76,7.76,0,0,1-2.53-.39,6,6,0,0,1-2-1.11v-2.55h1.12l.2,1.8a3.18,3.18,0,0,0,1.41.81,6.18,6.18,0,0,0,1.78.26,3.85,3.85,0,0,0,2.38-.67,2,2,0,0,0,.87-1.62,2.06,2.06,0,0,0-.73-1.56,5.86,5.86,0,0,0-2.61-1.09,8.83,8.83,0,0,1-3.32-1.3,2.69,2.69,0,0,1-1.09-2.28,3.09,3.09,0,0,1,1.22-2.46,4.87,4.87,0,0,1,3.21-1,7,7,0,0,1,2.52.43,5,5,0,0,1,1.87,1.15Z"/><path class="cls-9" d="M808.25,252.28H806.6v-1.95h1.65Zm-.14-5.6h-1.38V235.22h1.38Z"/><g class="cls-10"><path class="cls-3" d="M161.61,144.33a11.13,11.13,0,0,1,7.95,3.63,19,19,0,0,1,4.82-.64,17.54,17.54,0,0,1,13.05,5.94c14.34,5.38,8.65,14,8.31,14.5l.16,0s8.42,5.88,5.53,8.77c0,0,5.19,6.44,1,9.9a4.66,4.66,0,0,1-1.5.75c11.79,18.37,18.82,50.79,14.18,77.53-.92,5.29-7,9.1-23.27,9.1h0a85.78,85.78,0,0,1-15.77-1.4c.16,1.25.33,2.6.52,3.95h0c.82,5.83,2,12.45,3.31,13.42,8.31,6.24,20.71,8.83,27.68,9.84l10.09.94a24.5,24.5,0,0,1,2.24,2.55H220c3,0,5.43,3.33,5.43,3.33l39.78,69.63-34.33,61.6s11.52,19.37,5.76,28.13l8,7.95s1.27,4.27-4.49,4.27c-1.72,0-4.14-.91-6.68-2.17A437.42,437.42,0,0,1,235,521a43.9,43.9,0,0,0-4.65-.7l0,3h0c-.12,20.47-.05,50,1.16,56.77,1.9,10.55,0,15.74,0,15.74s5.19,82.07,5.19,82.7,7.26,10,7.26,10,9.6,7.55,17.08,13.55h0s4.5,1.17,6.25,2.64a6.15,6.15,0,0,1,1.89,3.93c.5.33,1.32.9,2.27,1.58a24.59,24.59,0,0,0,6.49,1.21c1,1,0,2.14-1.34,3,.74.79,1.19,1.49,1.07,1.94-.49,1.8-7.45,9.12-20,9.12-.7,0-1.43,0-2.17-.07-13.2-.86-31.5-14.93-33-18.85a11.64,11.64,0,0,1,.19-7.89c0-3.34,2-7.34,3.13-9.34,1.73-3.11,2.94-11.93,2.94-11.93-19-66.74-8.12-76.14-10.2-81-1.32-3.08-13.07-46.77-21.46-78.2h0l0-.14c-.49-1.82-1-3.6-1.42-5.32a22.2,22.2,0,0,1-4.34-2.57,135.5,135.5,0,0,1-22.83,9.05l-2.41,6-22.67,56.84S139.1,597.9,134,603a225.48,225.48,0,0,1-12.62,36.48c-8.65,19.37-12.45,46-12.45,46s6.19,15.73,6.92,25.55c7.28,10,13.83,22.29,5.15,25.92a50,50,0,0,1-18.88,3.32c-10.46,0-19.83-2.46-22-4.64-3.51-3.51,6.46-30.15,6.46-30.15.31-2.42,1-4.75,2.4-5.74,3.46-2.42,7.61-8.3,7.61-8.3s-1.3-3.46,2.33-8.13,9-34.61,9-38.53-4.84-33.19,11.3-44.72c0,0,1.84-37.44,6.57-64.52h0c.52-3.07,1.08-6,1.68-8.74-5,.41-7.92.47-7.92.47s4.78-13.36,10.9-30.54c-5.22-.5-1.78-8.6-1.78-8.6a42.76,42.76,0,0,0,6.13-3.61q1-2.81,2-5.63c-1.72-4.26,2.59-17.51,2.59-17.51l-15.85-11.95L77.46,414.7s37-87.26,38.5-88.76c1-1,8.12-5.16,13-8,5.15-5.15,16.23-9.23,16.23-9.23s10.55-11.94,12.79-14.18,1.21-8.48,1.21-8.48l-5.77-22.18c-10.2-6.41-14.23-13.55-14.23-13.55a5.12,5.12,0,0,1-3.76,1.51c-3.35,0-6.72-2.55-6.72-2.55s-14.64-14.64-10-21.55a4.33,4.33,0,0,1,3.79-2.1c3,0,6.61,2.49,9.14,4.62-5.19-4.53-8-5.15-9.09-5.15l-.35,0-.09.07-.07,0-.11,0,0-.11c-1.09-.54-6-3.24-6.41-7.79-8.27-2.59-6.68-7.2-6.68-7.2-8-5.42,0-14.12,0-14.12-3.54-3.55-.8-8.7-.8-8.7-4.15-5.88,1-13.15,1-13.15.58-6.34,10.09-10.08,10.09-10.08.75-3.17,4.67-4.67,4.67-4.67a6.91,6.91,0,0,1,6.39-3.94c.33,0,.52,0,.52,0,3.45-7.45,16.38-8.17,21.22-8.17,1.15,0,1.84,0,1.84,0a12.91,12.91,0,0,1,7.84-3m65,272.39L248,378.24l-20.29-30.17c.54,8.66.88,17.56.79,25.94a338.19,338.19,0,0,1-3,40.92,2.85,2.85,0,0,1,1.16,1.79m-78,28.67c2.07-5.9,3.87-11.07,5.21-15-2.13-4.29,1.21-6.22,2.22-6.69.12-.38.21-.69.28-.92,2.07-7.61-17.47-44.93-17.47-44.93l-16.5-10.34L99.21,411l37,25.76,12.41,8.64M268.68,708.2h0M161.62,139h0a17.46,17.46,0,0,0-9.47,2.95h-.22c-7,0-18.65,1.17-24.32,8.39a12.06,12.06,0,0,0-7.61,5,13.62,13.62,0,0,0-5,4.75c-3.43,1.74-9.7,5.73-11.09,12.12-2.19,3.64-4.23,9.77-1.8,15.53a13.3,13.3,0,0,0,.26,8.08,15.88,15.88,0,0,0-2.39,9.7,12,12,0,0,0,3.45,7.11,10,10,0,0,0,.93,2.83,13.27,13.27,0,0,0,6.63,5.91,14.39,14.39,0,0,0,2.75,4.27c-2.6,4.77-1.32,11,3.82,18.54a71.22,71.22,0,0,0,7.38,9l.57.48c.8.61,5.05,3.63,9.95,3.63a11.82,11.82,0,0,0,2-.17,53.9,53.9,0,0,0,11.32,10.2L154,287.14a12.41,12.41,0,0,1,0,3.89c-2.34,2.41-9.3,10.24-11.87,13.14-3.25,1.3-11.37,4.82-16.33,9.45-12,6.91-13,7.88-13.59,8.53-1,1-1.67,1.66-21,46.62-9.34,21.76-18.61,43.62-18.7,43.84L74.23,419l46.05,34.73,12.86,9.7c-1.33,4.77-2.58,10.81-1.94,15.15l-.9,2.52a41,41,0,0,1-4,2.2L123.7,486c-.73,1.71-2.89,7.65-.26,12.08.16.27.34.52.52.77-5.43,15.22-9.49,26.57-9.49,26.57l5.15,7.17,1.21,0q-.18,1-.36,2.07h0c-4.09,23.43-6,53.9-6.51,62.7-14.35,12.55-12.28,37.08-11.58,45.39.07.82.15,1.76.15,2-.06,4.36-5.39,31.47-7.89,35.27A16.1,16.1,0,0,0,91,690a30.61,30.61,0,0,1-5.09,5.38c-2.42,1.69-3.91,4.58-4.55,8.82-.65,1.78-2.7,7.48-4.47,13.58-3.64,12.56-3.79,18.44-.55,21.67,4.07,4.08,16.07,6.21,25.81,6.21a55,55,0,0,0,20.95-3.74,11.46,11.46,0,0,0,7-7.63c1.72-6.15-1.14-14.18-9-25.19-1-8.72-5.12-20.23-6.6-24.18.89-5.56,4.67-27.2,11.83-43.22a233.74,233.74,0,0,0,12.61-36.11c5.07-6.2,8.7-18.53,9.6-21.78L171,527.23l1.47-3.67a143.32,143.32,0,0,0,18.42-7.25l.14.08.8,3,0,.08v0c18.17,68.09,20.86,76.72,21.55,78.54,0,.49-.2,1.48-.33,2.29-1.31,7.82-4.35,26,10.15,77.34-.55,3.54-1.49,7.78-2.15,9-2.29,4.13-3.56,7.81-3.78,11a16.74,16.74,0,0,0,.13,10.8c2,5.1,12.19,11.86,14.23,13.17,4.91,3.15,14.49,8.53,23.43,9.11.84.06,1.69.09,2.52.09,14.4,0,23.91-8.39,25.19-13.08a5.79,5.79,0,0,0,.15-2.49,6.82,6.82,0,0,0,.7-2.37,6.54,6.54,0,0,0-2-5.33L278.17,706a20.88,20.88,0,0,1-4.22-.67,10.58,10.58,0,0,0-3.21-4.8,21.77,21.77,0,0,0-7.19-3.4c-6.26-5-13.74-10.91-15.75-12.49-2.24-2.89-4.73-6.21-5.82-7.77-.25-4.25-1.23-20.09-5-80.54.6-2.44,1.5-8.21-.13-17.25-.85-4.69-1.24-24.55-1.09-54.59l4.69-3.36c0-.84.4-18.56-1-37.73.23,0,.46,0,.68,0,4.66,0,7.11-2,8.34-3.61a8.71,8.71,0,0,0,1.29-7.54L248.42,470l-5.41-5.4c1.28-4.72.6-10.73-2-17.94a76.51,76.51,0,0,0-4-8.92l32.89-59,0-5.27-39.78-69.63-.31-.48a14.22,14.22,0,0,0-7.06-5.16c-.4-.46-.83-.91-1.28-1.36l-3.29-1.55-10-.93c-6-.88-16.92-3.1-24.29-8.22a48.74,48.74,0,0,1-1.56-7.36c3.1.31,6.28.46,9.5.46,6.49,0,26.21,0,28.57-13.54,4.3-24.81-.95-56.42-12.54-77.29,2.49-3.78,1.73-8.59-.53-12.59a7.38,7.38,0,0,0,0-1.33c-.29-3.28-2.72-6.27-5.17-8.49a12.75,12.75,0,0,0-.28-6.57c-1.43-4.52-5.24-8.1-11.35-10.64A23.14,23.14,0,0,0,174.38,142a23.9,23.9,0,0,0-3.25.23,16,16,0,0,0-9.51-3.22ZM233,394.21c.42-6,.76-12.85.84-20.14q0-3.48,0-7.28l7.88,11.72-8.7,15.7Zm-126.81,15.1,18.2-34.2,10.37,6.5c1.43,2.78,5,9.76,8.38,17.3,6.36,14,7.67,19.69,7.92,21.69a9.87,9.87,0,0,0-2.78,4,9.66,9.66,0,0,0-.15,5.8c-.65,1.89-1.4,4.07-2.25,6.5l-6.61-4.6-33.08-23Z"/><path class="cls-5" d="M152.67,260.81l6.57,25.24s1,6.23-1.21,8.48-12.79,14.18-12.79,14.18l-5.88,11.58,34.06,19.37,40.64-10.9-1.21-28.53S192,298.91,179.91,289.8c-2.39-1.79-4.41-22.59-4.41-22.59Z"/><path class="cls-11" d="M176.62,276.38c-.64-4.65-1.16-9.34-1.16-9.34l-22.83-6.4,1.83,7s7.15,4.66,9.37,5.63A43.29,43.29,0,0,0,176.62,276.38Z"/><path class="cls-5" d="M133.74,315.24s-16.28,9.2-17.78,10.7-38.5,88.76-38.5,88.76l46.05,34.73,15.85,11.95s-5,15.39-2.07,18.33-8.65,8.42-8.65,8.42-4.5,10.6,4.61,8.3S154.69,488,154.69,488l6.11-34.12-24.61-17.14L99.21,411l23.13-43.49,16.5,10.34,20.23-14.78-14.52-36.2-6.23-13.6Z"/><path class="cls-5" d="M139.24,250.32s13.21,23.5,52.63,23.51c16.31,0,22.36-3.81,23.28-9.1,5.78-33.27-6.52-75.34-23.57-88.18-15-11.27-68,31.35-68,31.35l11.29,25.36s-11.52-12.45-16.13-5.53,10,21.55,10,21.55S135.33,254.24,139.24,250.32Z"/><path class="cls-5" d="M218,303.63c3.92-2.07,7.44,2.82,7.44,2.82l39.78,69.63-34.33,61.6s11.52,19.37,5.76,28.13l8,7.95s1.27,4.27-4.49,4.27-19.37-10.14-19.37-10.14l1.58-43.43L248,378.24l-23.54-35-7.36-6.52S210.71,307.5,218,303.63Z"/><path class="cls-5" d="M176.71,498.54l-33.32,83.54S139.1,597.9,134,603a225.48,225.48,0,0,1-12.62,36.48c-8.65,19.37-12.45,46-12.45,46s7.87,20,6.91,29c0,0,7.53,10.37,4.5,16.34s-14.87,2.42-14.87,2.42-19.8,2.59-22.74-2.34,3.72-18.15,3.72-18.15-1-10.55,2.51-13,7.6-8.3,7.6-8.3-1.29-3.46,2.34-8.13,9-34.61,9-38.53-4.84-33.19,11.3-44.72c0,0,3.92-79.54,15-90.61s42.54-17.63,42.54-17.63Z"/><path class="cls-12" d="M176.71,498.54l-10.65,26.7s-14.74,6.58-18.47,7.5c-2.76.68-22.49,6.78-21.83,2.8,2.08-12.43,4.94-22.61,8.41-26.09,11.07-11.06,42.54-17.63,42.54-17.63Z"/><path class="cls-5" d="M188.58,486.17s27.9,105.36,30,110.2-8.82,14.24,10.2,81c0,0-1.21,8.82-2.94,11.93s-5.7,11.07-.69,13.83,21.27,16.6,28.19,17.81,19.88-4.84,19.88-4.84,6.92-2.59,4.76-4.75c0,0-6.31-.26-8.39-2.34S244,688.42,244,688.42s-7.26-9.34-7.26-10-5.19-82.7-5.19-82.7,1.9-5.19,0-15.74-1-77-1-77Z"/><path class="cls-12" d="M188.58,486.17l8.51,32c.75,2.8,33.28,5.06,33.28,5.06l.17-20.23Z"/><path class="cls-13" d="M188.58,507c5.39,10.7,43.32,13,46.46,14,0,0,1-43-5.07-67.07S188.58,507,188.58,507Z"/><path class="cls-14" d="M142.47,240.87c6.69,2.76.92-9.22.92-9.22s-.63-12-4-14.07a48.68,48.68,0,0,1-7.42-6.06l63.79-43.74s6.45-9-8.3-14.52a17.56,17.56,0,0,0-17.87-5.3s-6.45-7.73-15.79-.64c0,0-18.79-1.09-23.06,8.13a7,7,0,0,0-6.91,3.92s-3.92,1.5-4.67,4.67c0,0-9.51,3.74-10.09,10.08,0,0-5.18,7.27-1,13.15,0,0-2.74,5.15.8,8.7,0,0-8,8.7,0,14.12,0,0-2,5.65,9.69,7.95l3.45,7.15s3.33-1.51,12.91,8.07Z"/><path class="cls-11" d="M188.93,241.51a2.26,2.26,0,1,1,0-4.51c2.43,0,10.6-2.06,15.31-3.67-1.45-11.88-10.4-20.75-14.93-25.08a2.26,2.26,0,0,1,3.12-3.26c5.22,5,14.12,15.48,15.12,29.73l.12,1.7-1.61.58C204.77,237.46,193.34,241.51,188.93,241.51Z"/><path class="cls-11" d="M134.35,247.67s-.35-15.13-12-18.76"/><path class="cls-11" d="M122.34,367.5s10-13.36,8.66-11.33c-7.3,11.3,18.69,24.34,24.79,17.38,0,0-6,7.72-16.95,4.29Z"/><path class="cls-15" d="M145.24,308.71s-11.08,4.08-16.23,9.23c0,0,31,45,9.83,59.9,0,0,19.54,37.32,17.47,44.93s-36.79,104.5-36.79,104.5,107.2-1.91,111-72l-5.07-40.35a338.19,338.19,0,0,0,3-40.92c.22-19.69-1.94-42.31-3.52-57.76a24.88,24.88,0,0,0-7.27-15.67l-10.09-.94s8,26.7-10.48,29.23C187.17,330.23,163.22,333.44,145.24,308.71Z"/><g class="cls-16"><path class="cls-17" d="M123.51,529.89s107.2-1.91,111-72Z"/></g><path class="cls-15" d="M145.24,308.71s-11.08,4.08-16.23,9.23c0,0,31,45,9.83,59.9,0,0,19.54,37.32,17.47,44.93s-36.79,104.5-36.79,104.5,107.2-1.91,111-72l-5.07-40.35a338.19,338.19,0,0,0,3-40.92c.22-19.69-1.94-42.31-3.52-57.76a24.88,24.88,0,0,0-7.27-15.67l-10.09-.94s8,26.7-10.48,29.23C187.17,330.23,163.22,333.44,145.24,308.71Z"/><path class="cls-5" d="M123.51,449.43l15.85,11.95s-5,15.39-2.07,18.33-8.65,8.42-8.65,8.42-4.5,10.6,4.61,8.3S154.69,488,154.69,488l5.18-28.94s1.6-5.68-4.87-9.47c-5-2.93-18.81-12.85-18.81-12.85Z"/><path class="cls-4" d="M153.93,430.61s56.51,7.52,72.2-10.46c0,0,1.7-3.55-.66-5.22.34,3.32-26.55,17.8-69.16,8.65C156.31,423.58,151.16,425.42,153.93,430.61Z"/><circle class="cls-18" cx="200.87" cy="427.88" r="13.18"/><g class="cls-19"><path class="cls-20" d="M138.27,172.86s-5.65,6.86,1.52,11.44c2.52,1.6-7.43,9.33-7.43,9.33l-4,22.57s5.19-2.09,8.65-2.09L155.18,235l-11.67,7.29-37.23-25.09L81.49,169.28l31.93-29,34.93-8.12-6.14,12.16s-14.82,9.06-9.16,15.59C129.5,162.41,128.81,172.19,138.27,172.86Z"/></g><path class="cls-9" d="M122.13,225.19s-6.69-3-6.69-8.53,26.05-57.87,80.46-48.88c0,0,8.42,5.88,5.53,8.77,0,0,5.19,6.44,1,9.9S178.15,184.84,122.13,225.19Z"/><path class="cls-21" d="M125.07,213s34.81-42.43,72-36.9C197.11,176.08,162.41,177.94,125.07,213Z"/><path class="cls-22" d="M202.32,438.89c-2.06,0-6.5-.41-9.42-3.66-2.52-2.81-3.23-6.9-2.1-12.16a2.26,2.26,0,0,1,4.42.95c-.81,3.76-.46,6.52,1,8.2,2.27,2.52,6.67,2.15,6.72,2.14a2.26,2.26,0,0,1,.47,4.49C203.38,438.85,203,438.89,202.32,438.89Z"/><path class="cls-23" d="M208.84,434.43a2.05,2.05,0,0,1-.49-.06,2.25,2.25,0,0,1-1.72-2.69c.84-3.75.5-6.51-1-8.2-2.25-2.54-6.66-2.18-6.7-2.17a2.26,2.26,0,0,1-.44-4.5c.27,0,6.72-.61,10.52,3.68,2.51,2.83,3.19,6.92,2,12.17A2.26,2.26,0,0,1,208.84,434.43Z"/><path class="cls-24" d="M170,207.22c2-2,4.81-2.46,7.45-2.86,1.69-.25,1.63-2.94-.08-2.68-3.37.51-6.81,1.16-9.3,3.68-1.21,1.23.72,3.09,1.93,1.86Z"/><path class="cls-24" d="M196,201.63a5.74,5.74,0,0,1,5-.54,1.34,1.34,0,0,0,.89-2.53,8.55,8.55,0,0,0-7.66,1.05c-1.44.94.32,3,1.75,2Z"/><ellipse class="cls-24" cx="175.03" cy="211.99" rx="3.01" ry="4.11" transform="translate(-46.38 49.04) rotate(-14.1)"/><ellipse class="cls-24" cx="200.2" cy="207.94" rx="3.01" ry="4.11" transform="translate(-44.64 55.05) rotate(-14.1)"/></g><path class="cls-25" d="M174.77,246.38c-.34-.42,22,3.14,31-2.5,0,0,.35,17.22-7.45,18.48C190.32,263.66,181.48,259.8,174.77,246.38Z"/><path class="cls-26" d="M177.6,250.32c6.63,1.71,19,3.75,26.09-2.33l-.49-2.52-.18-.91L191.29,247,175,246.68S177.08,250.18,177.6,250.32Z"/><path class="cls-27" d="M180.64,254.72a18.83,18.83,0,0,1,13.21,1.41c4.16,2.08,4.84,4.44,4.17,6.53-.06.17,0,.47-.2.5C193.07,264.12,176.39,255.63,180.64,254.72Z"/><path class="cls-11" d="M194.84,263.67c-13.22,0-20.9-16.69-21-16.88l-.73-1.64,1.78.23c.2,0,20.83,2.67,30.44-2.38a1,1,0,0,1,.93,1.77c-8.51,4.47-24.31,3.36-29.76,2.81,2.57,4.65,10.94,17.47,23.27,13.22a1,1,0,1,1,.65,1.89A17,17,0,0,1,194.84,263.67Z"/></svg>