<svg id="Camada_1" data-name="Camada 1" xmlns="http://www.w3.org/2000/svg" xmlns:xlink="http://www.w3.org/1999/xlink" viewBox="0 0 850 511.33"><defs><style>.cls-1{fill:none;}.cls-2{clip-path:url(#clip-path);}.cls-3{fill:#eaa000;}.cls-4{fill:#6d472e;}.cls-5{fill:#eac2a7;}.cls-6{fill:#97d8dd;}.cls-7{fill:#027e8f;}.cls-8{fill:#65c4d1;}.cls-9{fill:#fff;}.cls-10{clip-path:url(#clip-path-2);}.cls-11{fill:#c9a68f;}.cls-12{fill:#d6aa8b;}.cls-13{fill:#d6d6d6;}.cls-14{fill:#c99f4b;}.cls-15{fill:#6d5f56;}.cls-16{fill:#493e38;}.cls-17{clip-path:url(#clip-path-3);}.cls-18{fill:#fcfcfc;}.cls-19{fill:#d32222;}.cls-20{fill:#f4f4f4;}.cls-21{clip-path:url(#clip-path-4);}.cls-22{fill:#b7b7b7;}.cls-23{fill:#c99e32;}.cls-24{clip-path:url(#clip-path-5);}.cls-25{fill:#aa7e30;}.cls-26{fill:#ddd;}.cls-27{fill:#846829;}.cls-28{fill:#e8cd95;}</style><clipPath id="clip-path"><path class="cls-1" d="M376.69-284.23c0-48.34-116-62.78-145.68-96.74-36-41.33-49-68.54-73.42-68.54-48.59,0-43.9,2.93-78.2,31.76-42.33,35.59-36.86,79.82-36.86,139,0,61.55-29.89,110.92,15.4,146.46A197.31,197.31,0,0,0,180.15-90.22C288.69-90.22,376.69-177.08,376.69-284.23Z"/></clipPath><clipPath id="clip-path-2"><path class="cls-1" d="M377.1,307.52c0-48.34-116-62.78-145.68-96.75-36-41.32-49-68.53-73.41-68.53-48.6,0-43.91,2.93-78.21,31.76-42.33,35.59-36.86,79.82-36.86,139,0,61.55-29.89,110.92,15.4,146.46a197.31,197.31,0,0,0,122.22,42.06C289.11,501.53,377.1,414.67,377.1,307.52Z"/></clipPath><clipPath id="clip-path-3"><path class="cls-1" d="M156.61,252c-.38-.41,23,1.48,31.88-5.16,0,0,1.76,17.95-6.2,19.92C174.09,268.77,164.64,265.46,156.61,252Z"/></clipPath><clipPath id="clip-path-4"><path class="cls-1" d="M169.83,517.67c5.42,10.86,43.55,13.16,46.71,14.17,0,0,1-43.64-5.09-68.16S169.83,517.67,169.83,517.67Z"/></clipPath><clipPath id="clip-path-5"><path class="cls-1" d="M123.46,247.2c6.72,2.81.92-9.37.92-9.37s-.63-12.22-4-14.29a49.49,49.49,0,0,1-7.47-6.17l17.19-11.9,47-32.54s6.49-9.13-8.34-14.76a17.56,17.56,0,0,0-18-5.38s-6.49-7.85-15.88-.65c0,0-18.9-1.11-23.19,8.26a7,7,0,0,0-6.95,4s-3.94,1.53-4.7,4.75c0,0-9.56,3.8-10.14,10.25,0,0-5.22,7.38-1,13.35,0,0-2.76,5.24.81,8.84,0,0-8,8.85,0,14.35,0,0-2,5.74,9.74,8.08l3.47,7.26s3.35-1.53,13,8.21Z"/></clipPath></defs><title>Fala2</title><g class="cls-2"><path class="cls-3" d="M142.3-442.65a11.16,11.16,0,0,1,8,3.69,18.73,18.73,0,0,1,4.84-.65,17.6,17.6,0,0,1,13.13,6c14.42,5.47,8.69,14.25,8.36,14.74l.16,0s8.46,6,5.56,8.91c0,0,5.22,6.54,1,10.06a4.72,4.72,0,0,1-1.51.77c11.86,18.66,18.93,51.61,14.26,78.78-.92,5.38-7,9.24-23.4,9.24h0a85.83,85.83,0,0,1-15.86-1.42c.16,1.27.34,2.64.52,4h0c.82,5.92,2,12.64,3.32,13.63,8.37,6.35,20.83,9,27.84,10l10.14,1a24.53,24.53,0,0,1,5.28,7.81h0l59.23,55.56,46.75-39.95s3.11-12.33,20.41-12.33a43.67,43.67,0,0,1,7.11.62c23.6,3.86-2.13,6.68-2.13,6.68s2.67-.23,6.61-.23c5.91,0,14.67.51,21.56,3l3.56,4.39L358.88-250s-18.84,2.63-29.63,2.63c-3.42,0-6-.26-7-1a.7.7,0,0,0-.42-.12c-6.42,0-59.23,50.32-59.23,50.32l-54.37-44.43c.81,10.9,1.38,22.55,1.26,33.32a347.49,347.49,0,0,1-3,41.58c2.38,1.7.66,5.31.66,5.31l4.44,35.69c0,.27,0,.53-.06.79,5.52,24.83,4.58,66,4.58,66a45,45,0,0,0-4.67-.71l0,3h0c-.11,20.8,0,50.84,1.18,57.69,1.91,10.72,0,16,0,16s5.21,83.4,5.21,84.05,7.3,10.13,7.3,10.13,9.66,7.68,17.18,13.77h0s4.52,1.19,6.29,2.69a6.31,6.31,0,0,1,1.9,4c.5.34,1.32.91,2.27,1.6a24,24,0,0,0,6.53,1.23c1,1,0,2.18-1.35,3.09.76.81,1.21,1.52,1.08,2-.49,1.83-7.48,9.27-20.13,9.27-.71,0-1.44,0-2.18-.08-13.28-.88-31.68-15.17-33.19-19.15a12,12,0,0,1,.2-8c0-3.4,2-7.46,3.15-9.49C208.6,108,209.81,99,209.81,99c-19.12-67.82-8.17-77.36-10.26-82.28-1.32-3.13-13.14-47.53-21.58-79.47h0l0-.1-1.44-5.45a22.43,22.43,0,0,1-4.36-2.6,136.66,136.66,0,0,1-23,9.19L124,2.17s-4.31,16.08-9.44,21.26a230.23,230.23,0,0,1-12.7,37.08c-8.69,19.67-12.52,46.73-12.52,46.73s6.23,16,7,26c7.33,10.14,13.91,22.65,5.18,26.33a49.56,49.56,0,0,1-19,3.38c-10.52,0-19.95-2.49-22.15-4.72-3.53-3.56,6.5-30.63,6.5-30.63.31-2.46,1-4.83,2.41-5.83,3.48-2.46,7.65-8.44,7.65-8.44s-1.3-3.51,2.35-8.25,9-35.17,9-39.16S83.4,32.16,99.63,20.44c0,0,1.86-38,6.61-65.55h0c.52-3.12,1.08-6.1,1.69-8.88-5,.42-8,.48-8,.48s4.82-13.58,11-31c-5.25-.51-1.79-8.74-1.79-8.74A43,43,0,0,0,115.3-97q1-2.85,2-5.73c-1.73-4.32,2.61-17.78,2.61-17.78L104-132.62,57.67-167.91s37.21-88.67,38.71-90.2c1-1,8.17-5.24,13.13-8.12h0c5.18-5.24,16.32-9.39,16.32-9.39s10.61-12.12,12.87-14.4,1.21-8.61,1.21-8.61l-5.8-22.55c-10.26-6.51-14.31-13.77-14.31-13.77a5.14,5.14,0,0,1-3.78,1.54c-3.37,0-6.77-2.59-6.77-2.59s-14.72-14.88-10.08-21.91A4.37,4.37,0,0,1,103-360c3,0,6.64,2.52,9.18,4.69-5.22-4.6-8-5.23-9.14-5.23l-.35,0-.09.06-.07,0-.11,0,0-.11c-1.1-.55-6-3.28-6.45-7.91-8.32-2.63-6.71-7.32-6.71-7.32-8-5.5,0-14.35,0-14.35-3.57-3.6-.81-8.84-.81-8.84-4.18-6,1-13.35,1-13.35.58-6.45,10.14-10.25,10.14-10.25.76-3.22,4.7-4.75,4.7-4.75a7,7,0,0,1,6.42-4c.33,0,.53,0,.53,0,3.47-7.57,16.47-8.3,21.34-8.3,1.15,0,1.85,0,1.85,0a12.93,12.93,0,0,1,7.89-3M129.21-136.72c2.08-6,3.89-11.25,5.24-15.26-2.15-4.36,1.22-6.32,2.23-6.79.12-.39.21-.71.28-.94,2.08-7.73-17.56-45.66-17.56-45.66l-16.59-10.5L79.54-171.68l37.19,26.18,12.48,8.78M250,130.34h0m-107.66-579h0a18,18,0,0,0-9.72,3h0c-7.07,0-18.92,1.2-24.82,8.59a12.73,12.73,0,0,0-7.74,5.14,14.56,14.56,0,0,0-5,4.82c-3.55,1.85-9.82,6-11.28,12.54-2.22,3.77-4.26,10.05-1.86,16a14.09,14.09,0,0,0,.24,8.13,16.72,16.72,0,0,0-2.36,10,12.8,12.8,0,0,0,3.5,7.39,10.85,10.85,0,0,0,1,2.89A13.77,13.77,0,0,0,90.92-364a15.28,15.28,0,0,0,2.54,4c-2.49,5-1.14,11.38,4,19.05a70.8,70.8,0,0,0,7.49,9.18l.29.3.33.25c.84.64,5.27,3.82,10.41,3.82a12.11,12.11,0,0,0,1.72-.12,55.15,55.15,0,0,0,11.13,10.08l5.16,20a13.5,13.5,0,0,1,0,3.61c-2.43,2.55-9.13,10.17-11.75,13.16-3.38,1.37-11.43,4.94-16.42,9.62-12.07,7-13,8-13.74,8.72-1.13,1.15-1.75,1.77-21.18,47.55-9.39,22.11-18.71,44.33-18.81,44.55l-1.79,4.28L54-163.14l46.31,35.3L113-118.21c-1.3,4.79-2.48,10.74-1.89,15.14l-.8,2.27a38.79,38.79,0,0,1-3.75,2.09l-2.05,1-.89,2.1c-.76,1.81-3,8.08-.2,12.78.12.2.24.38.37.56-5.42,15.35-9.46,26.75-9.46,26.75l-2.9,8.17,8.66-.17h.5c-.06.32-.11.65-.17,1l-.16.48v.46C96.21-22,94.29,8.3,93.78,17.46c-14.44,13-12.37,37.93-11.66,46.4.07.79.15,1.76.15,2-.09,4.47-5.29,31.47-7.84,35.54a16.56,16.56,0,0,0-3.78,10.2,30.53,30.53,0,0,1-4.88,5.2c-2.56,1.81-4.13,4.84-4.8,9.27-.68,1.88-2.73,7.63-4.49,13.79-3.76,13.14-3.88,19-.42,22.53,4.22,4.26,16.48,6.49,26.41,6.49a55.45,55.45,0,0,0,21.32-3.85,12.15,12.15,0,0,0,7.32-8.09c1.79-6.38-1.08-14.65-9-25.95-1-8.81-5.08-20.31-6.61-24.43.93-5.83,4.73-27.57,11.84-43.67A239.58,239.58,0,0,0,120,26.27c5.11-6.42,8.75-18.86,9.67-22.21l24-60.92a142.35,142.35,0,0,0,17.75-7l.68,2.56,0,.1c17.9,67.78,20.87,77.61,21.64,79.74,0,.49-.19,1.41-.32,2.17-1.32,8-4.39,26.55,10.19,78.7-.59,3.85-1.51,7.79-2.09,8.84-2.36,4.29-3.63,8-3.85,11.26a17.68,17.68,0,0,0,.15,11.26c2,5.21,11.62,11.77,14.53,13.66,5,3.23,14.74,8.75,23.87,9.36.86.06,1.73.09,2.58.09,14.8,0,24.6-8.79,25.92-13.71a6.23,6.23,0,0,0,.18-2.57,7.48,7.48,0,0,0,.69-2.44,7.3,7.3,0,0,0-2.12-5.84l-1.66-1.67-2.35-.1a21.51,21.51,0,0,1-3.8-.57,11.16,11.16,0,0,0-3.29-4.85,22.39,22.39,0,0,0-7.34-3.53c-6.22-5-13.59-10.91-15.68-12.58-2.18-2.84-4.6-6.09-5.72-7.69-.26-4.55-1.27-21-5.06-81.63.61-2.59,1.49-8.5-.15-17.66-.39-2.19-1.26-11.65-1.1-52.22L222-51.76l.18-8c0-1.69.87-41.24-4.53-66.54v0l0-.53-.07-.53L213.3-161.7a10.78,10.78,0,0,0-.52-7.61,358.59,358.59,0,0,0,2.74-39.88c.07-6.08-.07-12.72-.42-20.06l43.74,35.75,4.1,3.35,3.83-3.65c21.69-20.67,47.84-44,55.14-48.26a30,30,0,0,0,7.34.67c11.08,0,29.67-2.58,30.46-2.69l2-.28,1.42-1.44,8.17-8.26,3.79-3.82-3.39-4.18-3.57-4.39-1-1.29-1.55-.56a55.15,55.15,0,0,0-12.5-2.79c-.63-1.83-2.23-3.72-5.81-5a54.43,54.43,0,0,0-8.82-2,50.35,50.35,0,0,0-8.08-.7c-17.3,0-23.57,10.26-25.49,14.78l-41.48,35.44-54.45-51.07a30.56,30.56,0,0,0-6-8.46l-1.53-1.55-2.17-.21-10-.94c-6-.89-16.69-3.09-24-8.13a51.65,51.65,0,0,1-1.38-6.54q4.35.4,8.84.4c6.66,0,26.88,0,29.33-14.23,4.33-25.2-.91-57.29-12.52-78.6,2.4-3.93,1.64-8.82-.6-12.92a8.1,8.1,0,0,0,0-1.3c-.3-3.38-2.68-6.44-5.15-8.75a13.53,13.53,0,0,0-.36-6.69c-1.49-4.71-5.39-8.43-11.62-11.07a23.82,23.82,0,0,0-16.65-7,25.07,25.07,0,0,0-3.1.2,16.57,16.57,0,0,0-9.73-3.24Zm-55,275.1,17.78-33.77,9.71,6.15c1.47,2.89,4.92,9.81,8.28,17.28,6.21,13.83,7.64,19.62,8,21.78a10.56,10.56,0,0,0-2.72,4.12,10.37,10.37,0,0,0-.21,6.06c-.58,1.69-1.23,3.6-2,5.71l-6-4.19L87.31-173.55Z"/><path class="cls-4" d="M203.71,120.6a12,12,0,0,0-.2,8c1.51,4,19.91,18.27,33.19,19.15,14,.93,21.79-7.26,22.31-9.19s-9-8.24-9-8.24Z"/><path class="cls-4" d="M66.82,127.57s-10,27.07-6.5,30.63,25.75,7.85,41.13,1.34-16.78-40.41-16.78-40.41Z"/><path class="cls-5" d="M157.48-82.72,124,2.17s-4.31,16.08-9.44,21.26a230.23,230.23,0,0,1-12.7,37.08c-8.69,19.67-12.52,46.73-12.52,46.73s7.92,20.3,7,29.43c0,0,7.56,10.55,4.52,16.61s-15,2.46-15,2.46S65.93,158.37,63,153.36s3.74-18.44,3.74-18.44-1-10.72,2.52-13.18,7.65-8.44,7.65-8.44-1.3-3.51,2.35-8.25,9-35.17,9-39.16S83.4,32.16,99.63,20.44c0,0,3.94-80.82,15.07-92.06s42.78-17.93,42.78-17.93Z"/><path class="cls-5" d="M169.41-95.29s28.06,107.07,30.14,112S190.69,31.16,209.81,99c0,0-1.21,9-2.95,12.13s-5.74,11.24-.7,14,21.39,16.87,28.34,18.1,20-4.92,20-4.92,7-2.63,4.78-4.83c0,0-6.34-.26-8.43-2.37s-25.74-20.91-25.74-20.91-7.3-9.49-7.3-10.13-5.21-84-5.21-84,1.91-5.27,0-16-1-78.24-1-78.24Z"/><path class="cls-4" d="M61.63,148.21s19.91-8.61,39.82-2a8.9,8.9,0,0,0-1.48-4.92c-1.65-2.63-26.61-6.67-37.21,2.15C62.76,143.42,60.5,146.72,61.63,148.21Z"/><path class="cls-4" d="M230,141.51s.77-17.72,20-11.17l.52.43a6.31,6.31,0,0,0-1.9-4.08c-1.77-1.5-6.29-2.69-6.29-2.69s-17.58-4.37-17.33,14.5C225,138.5,227.71,142.4,230,141.51Z"/></g><path class="cls-3" d="M177.91,159.48c93.46.11,169.21,76.65,169.31,171.09s-75.8,171.1-169.31,171.1S8.59,425.07,8.59,330.57s75.8-171.09,169.32-171.09m0-8h0a174.65,174.65,0,0,0-69,14.09,178.77,178.77,0,0,0-94.34,95.32,180.14,180.14,0,0,0,38,196.29,176.74,176.74,0,0,0,56.37,38.4,176.24,176.24,0,0,0,138.1,0,176.81,176.81,0,0,0,56.36-38.4,179.73,179.73,0,0,0-56.39-291.56,175.07,175.07,0,0,0-69-14.14Z"/><path class="cls-6" d="M177.9,159.48c-93.51,0-169.31,76.6-169.31,171.09s75.8,171.1,169.31,171.1,169.32-76.6,169.32-171.1S271.37,159.59,177.9,159.48Zm0,330.78c-87.27,0-158-71.49-158-159.69s70.75-159.68,158-159.68,158,71.49,158,159.68S265.14,490.16,177.9,490.26Z"/><path class="cls-6" d="M257.81,206.29a5.54,5.54,0,0,0-4.25-.8A5.64,5.64,0,0,0,250,208l-9.23,14.35a5.73,5.73,0,0,0,1.79,8,76.27,76.27,0,0,1,6.33,4.56c1.27,1,2.54,2,3.53,2.66,1.75,1.46,3.44,3,5.11,4.55l-3.9,3.94a112.2,112.2,0,0,0-24.74-17.12l11.54-26.16a5.75,5.75,0,0,0,.11-4.37,5.67,5.67,0,0,0-3-3.17,146.29,146.29,0,0,0-52-12.51,5.55,5.55,0,0,0-4.08,1.45,5.69,5.69,0,0,0-1.85,3.95l-.87,17.08a5.68,5.68,0,0,0,5.33,6l5.94.3,6.33,1c.81.14,1.63.26,2.44.38,1.22.17,2.44.35,3.51.6l.78.2-1.48,5.58a114.12,114.12,0,0,0-29.89-2.44l-2.93-28.54a5.68,5.68,0,0,0-2.06-3.84,5.57,5.57,0,0,0-4.15-1.24,144.11,144.11,0,0,0-51.28,15.44,5.73,5.73,0,0,0-2.45,7.67l7.7,15.23A5.63,5.63,0,0,0,124,224c1.13-.53,2.25-1.09,3.38-1.65a58.2,58.2,0,0,1,8.07-3.5l1.44-.54c1.7-.64,3.34-1.26,5-1.81l1.46,5.52c-1.39.48-2.74,1-4.08,1.48l-1.34.52a52.9,52.9,0,0,0-8,3.43c-1,.48-1.93,1-3.39,1.67l-9.57,5.56-.65.37L99.6,212a5.67,5.67,0,0,0-3.69-2.28,5.58,5.58,0,0,0-4.2,1,147.86,147.86,0,0,0-36.8,39.11,5.73,5.73,0,0,0,1.65,7.9l14.19,9.33a5.62,5.62,0,0,0,7.9-1.81,75.31,75.31,0,0,1,4.49-6.38c1-1.3,2-2.59,2.66-3.6,1.44-1.76,3-3.46,4.5-5.16l3.9,3.95a113.64,113.64,0,0,0-17,25L51.36,267.39a5.62,5.62,0,0,0-7.45,2.89,150.37,150.37,0,0,0-12.39,52.56,5.69,5.69,0,0,0,5.35,6l16.91.88a5.64,5.64,0,0,0,5.92-5.39l.3-6,1-6.39c.15-.83.26-1.65.38-2.48.18-1.23.35-2.47.59-3.54l.19-.78,5.54,1.49a116.91,116.91,0,0,0-2.43,30.2l-28.24,3a5.58,5.58,0,0,0-3.79,2.08A5.68,5.68,0,0,0,32,346.05a149.58,149.58,0,0,0,15.28,51.82,5.58,5.58,0,0,0,7.59,2.48l15.07-7.77a5.74,5.74,0,0,0,2.56-7.48c-.52-1.13-1.07-2.25-1.61-3.37a60.45,60.45,0,0,1-3.49-8.2l-.55-1.5c-.63-1.7-1.23-3.35-1.77-5l5.53-1.49a113.09,113.09,0,0,0,12.89,27.29L60.54,409.7a5.73,5.73,0,0,0-1.24,8A147.36,147.36,0,0,0,98,454.86a5.61,5.61,0,0,0,7.81-1.67L115,438.85a5.73,5.73,0,0,0-1.79-8,76.27,76.27,0,0,1-6.33-4.56c-1.27-1-2.54-2-3.53-2.66-1.75-1.46-3.44-3-5.11-4.55l4-4c1.51,1.39,3.06,2.8,4.94,4.36,1.1.78,2.17,1.61,3.24,2.44a67.54,67.54,0,0,0,6.29,4.47l10.08,5.85.12.06-11.56,26.19a5.75,5.75,0,0,0-.11,4.37,5.62,5.62,0,0,0,3,3.16,146.3,146.3,0,0,0,52,12.52h.29a5.67,5.67,0,0,0,5.63-5.41l.88-17.08a5.68,5.68,0,0,0-5.33-6l-5.94-.31-6.33-1c-.81-.14-1.63-.26-2.44-.38-1.22-.18-2.44-.35-3.51-.6l-.78-.2L154.2,442a114.16,114.16,0,0,0,29.89,2.45L187,473a5.74,5.74,0,0,0,2.06,3.84,5.62,5.62,0,0,0,4.15,1.24,144.31,144.31,0,0,0,51.28-15.44,5.74,5.74,0,0,0,2.46-7.67l-7.71-15.24a5.62,5.62,0,0,0-7.39-2.58c-1.14.53-2.26,1.09-3.39,1.65a58.08,58.08,0,0,1-8.06,3.5l-1.44.54c-1.7.64-3.35,1.26-5,1.81L212.51,439a111.13,111.13,0,0,0,27-13l16.69,23.17a5.61,5.61,0,0,0,7.88,1.26,148.06,148.06,0,0,0,36.81-39.11,5.8,5.8,0,0,0,.79-4.3,5.68,5.68,0,0,0-2.45-3.6l-14.19-9.33a5.62,5.62,0,0,0-7.9,1.81,71,71,0,0,1-4.49,6.38c-1,1.3-2,2.59-2.65,3.6-1.45,1.76-3,3.46-4.51,5.16l-3.9-4a113.64,113.64,0,0,0,16.95-25l25.89,11.67a5.63,5.63,0,0,0,7.45-2.89,150.32,150.32,0,0,0,12.39-52.57,5.69,5.69,0,0,0-5.35-6L302,331.44a5.7,5.7,0,0,0-5.92,5.39l-.3,6-1,6.39c-.15.83-.26,1.65-.38,2.48-.18,1.23-.35,2.47-.59,3.54l-.2.78-5.44-1.47,0-.13c.3-1.33.5-2.69.68-4,.09-.64.18-1.27.3-2l.86-5.61a5.7,5.7,0,0,0,.06-.58l.3-6V324.6l0-.26,28.35-3a5.6,5.6,0,0,0,3.8-2.08,5.77,5.77,0,0,0,1.23-4.18,150.13,150.13,0,0,0-15.28-51.83A5.61,5.61,0,0,0,301,260.8l-15.08,7.77a5.73,5.73,0,0,0-2.55,7.48c.52,1.13,1.06,2.25,1.6,3.37a58,58,0,0,1,3.49,8.2l.55,1.5c.63,1.7,1.24,3.35,1.78,5l-5.53,1.49a113.47,113.47,0,0,0-12.89-27.29l22.93-16.86a5.73,5.73,0,0,0,1.24-8A147.36,147.36,0,0,0,257.81,206.29Zm3.44,56.07a5.74,5.74,0,0,0-1.24,8A102.33,102.33,0,0,1,275.92,304a5.66,5.66,0,0,0,6.9,4l16.36-4.42a5.72,5.72,0,0,0,4.07-6.7,83.48,83.48,0,0,0-3.69-11.79l-.45-1.22a58.43,58.43,0,0,0-3.16-7.74l5-2.59a139.24,139.24,0,0,1,10.93,37l-28,2.93a5.68,5.68,0,0,0-5,6l.28,5.53V336l-.28,5.37-.8,5.24c-.13.74-.23,1.49-.34,2.24-.14,1-.27,2-.46,2.87l-1.41,5.49a5.71,5.71,0,0,0,4,6.94l16.36,4.42a5.64,5.64,0,0,0,6.92-4.09l1.66-6.5c.35-1.52.57-3.07.79-4.62.11-.73.21-1.46.35-2.28l1-7,.05-.88,5.54.29A139.33,139.33,0,0,1,303.77,381L278.11,369.4a5.54,5.54,0,0,0-4.32-.11,5.69,5.69,0,0,0-3.14,3,102.26,102.26,0,0,1-20.92,30.87,5.76,5.76,0,0,0,0,8.06l12,12.1a5.5,5.5,0,0,0,4.15,1.66,5.55,5.55,0,0,0,4.05-1.91q1.51-1.71,3.06-3.4c2-2.14,3.91-4.3,6-6.86.86-1.22,1.77-2.42,2.67-3.61.63-.83,1.27-1.67,1.89-2.52l4.74,3.11a136.05,136.05,0,0,1-26.3,28l-16.55-23a5.59,5.59,0,0,0-7.88-1.25,100.11,100.11,0,0,1-33.35,16.07,5.68,5.68,0,0,0-3.43,2.66,5.74,5.74,0,0,0-.56,4.33l4.37,16.53a5.65,5.65,0,0,0,6.64,4.1,81.25,81.25,0,0,0,11.7-3.74l1.17-.44a57.49,57.49,0,0,0,7.65-3.2l2.57,5.09a135.64,135.64,0,0,1-36.64,11l-2.9-28.24a5.67,5.67,0,0,0-2-3.84,5.56,5.56,0,0,0-4.13-1.24,102.62,102.62,0,0,1-37-3,5.58,5.58,0,0,0-4.28.57,5.67,5.67,0,0,0-2.63,3.46l-4.38,16.53a5.75,5.75,0,0,0,.58,4.35,5.64,5.64,0,0,0,3.47,2.65l6.43,1.66c1.51.36,3,.59,4.58.81.72.11,1.43.21,2.24.35l7,1.05.87,0-.29,5.6A135.3,135.3,0,0,1,128,457.76l11.44-25.92a5.72,5.72,0,0,0-2.7-7.46l-4.69-2.27-9.63-5.59a58,58,0,0,1-5.13-3.7c-1.2-.93-2.4-1.86-3.28-2.45-1.63-1.36-3.18-2.81-4.74-4.25-1.16-1.08-2.33-2.16-3.52-3.22a5.6,5.6,0,0,0-7.7.27l-12,12.09a5.74,5.74,0,0,0,.23,8.3c1.12,1,2.22,2,3.32,3,2.15,2,4.29,4,6.84,6.09,1.21.87,2.38,1.78,3.56,2.69q1.23,1,2.52,1.92l-3.09,4.79a135.59,135.59,0,0,1-27.66-26.58L94.56,398.8a5.74,5.74,0,0,0,1.25-8,102.31,102.31,0,0,1-15.92-33.69,5.64,5.64,0,0,0-6.9-4l-16.36,4.42a5.7,5.7,0,0,0-4.06,6.7A83.44,83.44,0,0,0,56.25,376l.45,1.21A60,60,0,0,0,59.86,385l-5,2.59a138.68,138.68,0,0,1-10.93-37l27.94-2.93a5.69,5.69,0,0,0,5-6.23,105.67,105.67,0,0,1,3-37.35,5.74,5.74,0,0,0-.56-4.33A5.63,5.63,0,0,0,75.9,297l-16.36-4.42a5.61,5.61,0,0,0-4.31.59,5.67,5.67,0,0,0-2.62,3.5L51,303.21c-.35,1.52-.57,3.07-.79,4.62-.11.73-.21,1.45-.34,2.28l-1,7,0,.87-5.54-.28A139.33,139.33,0,0,1,52,280.19L77.7,291.75a5.54,5.54,0,0,0,4.32.11,5.64,5.64,0,0,0,3.13-3A102.29,102.29,0,0,1,106.08,258a5.77,5.77,0,0,0,0-8.06l-12-12.1a5.6,5.6,0,0,0-8.2.25q-1.52,1.71-3.06,3.4c-2,2.14-3.91,4.3-6,6.86-.86,1.22-1.77,2.42-2.67,3.61-.63.83-1.27,1.66-1.89,2.52l-4.74-3.11a136.05,136.05,0,0,1,26.3-28l16.55,23a5.6,5.6,0,0,0,7.89,1.25l1.31-1a19.54,19.54,0,0,1,2.77-1.92l9.23-5.4c1.09-.5,2.16-1,3.24-1.57a45,45,0,0,1,6.61-2.86l1.68-.63a57.49,57.49,0,0,1,8.17-2.61A5.68,5.68,0,0,0,155,229a5.8,5.8,0,0,0,.65-4.47L151.24,208a5.64,5.64,0,0,0-6.63-4.11,83.06,83.06,0,0,0-11.71,3.74l-1.16.44a56.94,56.94,0,0,0-7.65,3.2l-2.57-5.08a135.55,135.55,0,0,1,36.64-11.05l2.89,28.24a5.71,5.71,0,0,0,2,3.84,5.59,5.59,0,0,0,4.13,1.25,102.65,102.65,0,0,1,37,3,5.63,5.63,0,0,0,4.28-.57,5.76,5.76,0,0,0,2.63-3.47L215.46,211a5.74,5.74,0,0,0-.57-4.35,5.68,5.68,0,0,0-3.47-2.65L205,202.31c-1.52-.36-3.05-.59-4.59-.81-.72-.11-1.43-.21-2.24-.35l-7-1.05-.87,0,.29-5.6a135.3,135.3,0,0,1,37.16,8.93l-11.44,25.93a5.75,5.75,0,0,0-.11,4.37,5.64,5.64,0,0,0,3,3.16A101.36,101.36,0,0,1,249.75,258a5.61,5.61,0,0,0,8,0l12-12.1a5.73,5.73,0,0,0-.23-8.29c-1.12-1-2.22-2-3.32-3-2.15-2-4.29-4-6.84-6.09-1.21-.87-2.38-1.78-3.56-2.68-.82-.64-1.66-1.29-2.52-1.93l3.09-4.79A136.12,136.12,0,0,1,284,245.64Z"/><path class="cls-6" d="M177.9,239.32a90,90,0,0,0-78.35,45.77,91.91,91.91,0,0,0,.48,91.46,5.58,5.58,0,0,0,.35.58,91.66,91.66,0,0,0,23,26c.15.1.23.25.39.34l.12,0a88.88,88.88,0,0,0,108,0,.84.84,0,0,1,.14-.06,4.32,4.32,0,0,0,.39-.34,91.51,91.51,0,0,0,23-26,4.25,4.25,0,0,0,.35-.58,91.89,91.89,0,0,0,.48-91.46A90,90,0,0,0,177.9,239.32Zm-10.17,12.15L105.08,361.56a80.52,80.52,0,0,1,4.32-70.74A78.92,78.92,0,0,1,167.73,251.47ZM134,396.94l43.86-77.06,43.87,77.05a78.09,78.09,0,0,1-87.73,0Zm96.69-7.15L185.25,309.9a8.43,8.43,0,0,0-14.69,0l-45.48,79.88a79.94,79.94,0,0,1-13.73-16.34l66.56-117,12.91,22.63a4.66,4.66,0,0,0,.25.5l53.39,93.86a80.26,80.26,0,0,1-13.73,16.34Zm20-28.23-49.6-87.21c-.08-.17-.17-.35-.27-.52L188.1,251.48a78.88,78.88,0,0,1,58.31,39.35,80.53,80.53,0,0,1,4.32,70.73Z"/><path class="cls-7" d="M596.76,34.83c-131.17,0-239,88.61-251.43,202l-74.67,29.74s-4.88,1.8-4.39,8.8a9.53,9.53,0,0,0,5.58,8.17L350,307C374.9,407.44,475.92,482.64,596.76,482.64c139.54,0,252.65-100.24,252.65-223.9S736.3,34.83,596.76,34.83Z"/><path class="cls-8" d="M596.73,1.67c-131.18,0-239,88.6-251.44,202l-74.67,29.74s-4.88,1.8-4.39,8.8a9.53,9.53,0,0,0,5.58,8.17L350,273.8c24.89,100.47,125.91,175.67,246.76,175.67,139.53,0,252.64-100.24,252.64-223.9S736.26,1.67,596.73,1.67Z"/><path class="cls-9" d="M420.91,132.5H414v7.08h8l.1-2.56h1.23v3.74H410.72v-1l1.89-.15V124.9l-1.89-.16v-1h12.53v3.75H422l-.11-2.55H414v6.41h6.92Z"/><path class="cls-9" d="M435,132H433.9l-.16-1.8a3.58,3.58,0,0,0-1.32-.85,5.06,5.06,0,0,0-1.82-.31,3.36,3.36,0,0,0-2.28.67,2,2,0,0,0-.76,1.55,1.86,1.86,0,0,0,.65,1.45,6.42,6.42,0,0,0,2.62,1,8.44,8.44,0,0,1,3.35,1.38,2.85,2.85,0,0,1,1.11,2.37A3.07,3.07,0,0,1,434,140a5.34,5.34,0,0,1-3.35,1,7.87,7.87,0,0,1-2.54-.39,6,6,0,0,1-2-1.11V137h1.12l.2,1.81a3.18,3.18,0,0,0,1.41.81,6.18,6.18,0,0,0,1.78.26,3.87,3.87,0,0,0,2.38-.67,2,2,0,0,0,.86-1.62,2.08,2.08,0,0,0-.72-1.56,5.91,5.91,0,0,0-2.62-1.09,8.72,8.72,0,0,1-3.32-1.31,2.68,2.68,0,0,1-1.08-2.27,3.06,3.06,0,0,1,1.22-2.46,4.87,4.87,0,0,1,3.21-1,7,7,0,0,1,2.52.43,5.07,5.07,0,0,1,1.86,1.15Z"/><path class="cls-9" d="M446.93,132h-1.14l-.16-1.8a3.58,3.58,0,0,0-1.32-.85,5.16,5.16,0,0,0-1.83-.31,3.31,3.31,0,0,0-2.27.67,2,2,0,0,0-.76,1.55,1.83,1.83,0,0,0,.65,1.45,6.42,6.42,0,0,0,2.62,1,8.44,8.44,0,0,1,3.35,1.38,2.85,2.85,0,0,1,1.11,2.37,3.07,3.07,0,0,1-1.27,2.56,5.37,5.37,0,0,1-3.36,1,7.81,7.81,0,0,1-2.53-.39,6.16,6.16,0,0,1-2-1.11V137h1.13l.19,1.81a3.29,3.29,0,0,0,1.41.81,6.23,6.23,0,0,0,1.78.26,3.85,3.85,0,0,0,2.38-.67,2,2,0,0,0,.87-1.62,2.08,2.08,0,0,0-.72-1.56,6,6,0,0,0-2.62-1.09,8.65,8.65,0,0,1-3.32-1.31,2.69,2.69,0,0,1-1.09-2.27,3.09,3.09,0,0,1,1.22-2.46,4.87,4.87,0,0,1,3.21-1,7.07,7.07,0,0,1,2.53.43,5.07,5.07,0,0,1,1.86,1.15Z"/><path class="cls-9" d="M455.24,141a5,5,0,0,1-3.92-1.75,6.51,6.51,0,0,1-1.55-4.46v-.65a6.63,6.63,0,0,1,1.55-4.51,4.77,4.77,0,0,1,3.74-1.79,4.63,4.63,0,0,1,3.63,1.48,5.66,5.66,0,0,1,1.32,3.93v1.2h-8.86v.34a5.61,5.61,0,0,0,1.13,3.58,3.59,3.59,0,0,0,3,1.45,6,6,0,0,0,2.2-.37,4.27,4.27,0,0,0,1.57-1l.59,1a5,5,0,0,1-1.78,1.19A6.89,6.89,0,0,1,455.24,141Zm-.18-12a3.31,3.31,0,0,0-2.58,1.19,5.18,5.18,0,0,0-1.23,3l0,.05h7.36v-.35a4,4,0,0,0-1-2.76A3.27,3.27,0,0,0,455.06,129Z"/><path class="cls-9" d="M468.07,129.23v-1.15h2.07v-1.85a4.19,4.19,0,0,1,1-3,3.37,3.37,0,0,1,2.65-1,5.14,5.14,0,0,1,.77.05c.26,0,.53.1.8.17l-.18,1.16a3.38,3.38,0,0,0-.57-.11,4.52,4.52,0,0,0-.68,0,2.17,2.17,0,0,0-1.75.72,3.14,3.14,0,0,0-.6,2v1.85h3v1.15h-3v10.35l1.89.15v1h-5.18v-1l1.89-.15V129.23Z"/><path class="cls-9" d="M481.93,141a5,5,0,0,1-3.92-1.75,6.47,6.47,0,0,1-1.56-4.46v-.65a6.68,6.68,0,0,1,1.55-4.51,4.79,4.79,0,0,1,3.74-1.79,4.6,4.6,0,0,1,3.63,1.48,5.66,5.66,0,0,1,1.32,3.93v1.2h-8.86v.34a5.67,5.67,0,0,0,1.13,3.58,3.61,3.61,0,0,0,3,1.45,6,6,0,0,0,2.2-.37,4.45,4.45,0,0,0,1.57-1l.59,1a5,5,0,0,1-1.79,1.19A6.87,6.87,0,0,1,481.93,141Zm-.19-12a3.32,3.32,0,0,0-2.58,1.19,5.11,5.11,0,0,0-1.22,3l0,.05h7.35v-.35a4.07,4.07,0,0,0-1-2.76A3.28,3.28,0,0,0,481.74,129Z"/><path class="cls-9" d="M489.08,139.73l1.89-.15v-10.3l-1.89-.15v-1h3.27v11.5l1.89.15v1h-5.16Zm3.27-15.28H491v-2h1.38Z"/><path class="cls-9" d="M499.76,124.84v3.24h2.76v1.15h-2.76v8.26a2.73,2.73,0,0,0,.45,1.77,1.51,1.51,0,0,0,1.19.52c.22,0,.44,0,.65,0s.46-.05.74-.1l.21,1a4,4,0,0,1-.85.24,6.61,6.61,0,0,1-1,.08,2.58,2.58,0,0,1-2.06-.84,4,4,0,0,1-.74-2.68v-8.26H496.2v-1.15h2.16v-3.24Z"/><path class="cls-9" d="M504.84,134.24a6.9,6.9,0,0,1,1.52-4.6,5.43,5.43,0,0,1,8.06,0,6.84,6.84,0,0,1,1.52,4.6v.38a6.85,6.85,0,0,1-1.51,4.6,5.44,5.44,0,0,1-8.07,0,6.86,6.86,0,0,1-1.52-4.6Zm1.39.38a6.07,6.07,0,0,0,1.11,3.71,3.86,3.86,0,0,0,6.11,0,6.13,6.13,0,0,0,1.1-3.71v-.38a6,6,0,0,0-1.11-3.68,3.82,3.82,0,0,0-6.1,0,6,6,0,0,0-1.11,3.68Z"/><path class="cls-9" d="M533.08,132H532l-.17-1.8a3.46,3.46,0,0,0-1.31-.85,5.16,5.16,0,0,0-1.83-.31,3.36,3.36,0,0,0-2.28.67,2,2,0,0,0-.76,1.55,1.84,1.84,0,0,0,.66,1.45,6.42,6.42,0,0,0,2.61,1,8.49,8.49,0,0,1,3.36,1.38,2.85,2.85,0,0,1,1.11,2.37,3.07,3.07,0,0,1-1.27,2.56,5.39,5.39,0,0,1-3.36,1,7.76,7.76,0,0,1-2.53-.39,6.16,6.16,0,0,1-2-1.11V137h1.12l.2,1.81a3.18,3.18,0,0,0,1.41.81,6.18,6.18,0,0,0,1.78.26,3.85,3.85,0,0,0,2.38-.67,2,2,0,0,0,.87-1.62,2.06,2.06,0,0,0-.73-1.56,5.86,5.86,0,0,0-2.61-1.09,8.65,8.65,0,0,1-3.32-1.31,2.66,2.66,0,0,1-1.09-2.27,3.09,3.09,0,0,1,1.22-2.46,4.87,4.87,0,0,1,3.21-1,7,7,0,0,1,2.52.43,5,5,0,0,1,1.87,1.15Z"/><path class="cls-9" d="M535.87,134.24a6.84,6.84,0,0,1,1.52-4.6,5.43,5.43,0,0,1,8.06,0,6.9,6.9,0,0,1,1.52,4.6v.38a6.86,6.86,0,0,1-1.52,4.6,5.43,5.43,0,0,1-8.06,0,6.81,6.81,0,0,1-1.52-4.6Zm1.39.38a6.13,6.13,0,0,0,1.1,3.71,3.86,3.86,0,0,0,6.11,0,6.07,6.07,0,0,0,1.1-3.71v-.38a6.08,6.08,0,0,0-1.1-3.68,3.83,3.83,0,0,0-6.11,0,6.08,6.08,0,0,0-1.1,3.68Z"/><path class="cls-9" d="M548.92,129.13v-1H552l.13,2.1a4.39,4.39,0,0,1,1.61-1.72,4.56,4.56,0,0,1,2.4-.61,3.64,3.64,0,0,1,3.79,2.87,4.82,4.82,0,0,1,1.61-2.1,4.16,4.16,0,0,1,2.56-.77,3.76,3.76,0,0,1,3.1,1.35,6.54,6.54,0,0,1,1.1,4.17v6.2l1.89.16v1H565v-1l1.9-.16v-6.23a5.22,5.22,0,0,0-.82-3.31,2.85,2.85,0,0,0-2.28-1,3.1,3.1,0,0,0-2.5,1,5.09,5.09,0,0,0-1.09,2.66c0,.06,0,.12,0,.18s0,.12,0,.21v6.42l1.89.15v1H557v-1l1.89-.15v-6.24a5.14,5.14,0,0,0-.82-3.28,2.83,2.83,0,0,0-2.28-1,3.45,3.45,0,0,0-2.35.75,4,4,0,0,0-1.21,2v7.72l1.89.15v1h-5.18v-1l1.89-.15v-10.3Z"/><path class="cls-9" d="M577.36,141a5,5,0,0,1-3.92-1.75,6.46,6.46,0,0,1-1.55-4.46v-.65a6.63,6.63,0,0,1,1.55-4.51,4.77,4.77,0,0,1,3.73-1.79,4.64,4.64,0,0,1,3.64,1.48,5.66,5.66,0,0,1,1.32,3.93v1.2h-8.86v.34a5.61,5.61,0,0,0,1.13,3.58,3.59,3.59,0,0,0,3,1.45,6,6,0,0,0,2.2-.37,4.36,4.36,0,0,0,1.57-1l.59,1a5,5,0,0,1-1.78,1.19A6.89,6.89,0,0,1,577.36,141Zm-.19-12a3.32,3.32,0,0,0-2.58,1.19,5.24,5.24,0,0,0-1.22,3l0,.05h7.36v-.35a4,4,0,0,0-1-2.76A3.28,3.28,0,0,0,577.17,129Z"/><path class="cls-9" d="M584.35,139.73l1.89-.15v-10.3l-1.89-.15v-1h3.12l.13,2.22a4.33,4.33,0,0,1,4.06-2.45,3.85,3.85,0,0,1,3.11,1.26,6,6,0,0,1,1.06,3.93v6.54l1.9.15v1h-5.18v-1l1.89-.15v-6.53a4.67,4.67,0,0,0-.8-3.08,2.92,2.92,0,0,0-2.29-.9,3.58,3.58,0,0,0-2.39.78,4.36,4.36,0,0,0-1.32,2.07v7.66l1.89.15v1h-5.18Z"/><path class="cls-9" d="M603.1,124.84v3.24h2.75v1.15H603.1v8.26a2.73,2.73,0,0,0,.44,1.77,1.51,1.51,0,0,0,1.19.52q.33,0,.66,0c.21,0,.45-.05.73-.1l.21,1a3.79,3.79,0,0,1-.85.24,6.61,6.61,0,0,1-1,.08,2.58,2.58,0,0,1-2.06-.84,4,4,0,0,1-.74-2.68v-8.26h-2.16v-1.15h2.16v-3.24Z"/><path class="cls-9" d="M613.94,141a5,5,0,0,1-3.92-1.75,6.47,6.47,0,0,1-1.56-4.46v-.65a6.68,6.68,0,0,1,1.55-4.51,4.8,4.8,0,0,1,3.74-1.79,4.6,4.6,0,0,1,3.63,1.48,5.66,5.66,0,0,1,1.32,3.93v1.2h-8.86v.34a5.62,5.62,0,0,0,1.14,3.58,3.59,3.59,0,0,0,3,1.45,6,6,0,0,0,2.2-.37,4.45,4.45,0,0,0,1.57-1l.59,1a5,5,0,0,1-1.79,1.19A6.84,6.84,0,0,1,613.94,141Zm-.19-12a3.32,3.32,0,0,0-2.58,1.19,5.11,5.11,0,0,0-1.22,3l0,.05h7.35v-.35a4.07,4.07,0,0,0-1-2.76A3.28,3.28,0,0,0,613.75,129Z"/><path class="cls-9" d="M626.77,129.23v-1.15h2.07v-1.85a4.23,4.23,0,0,1,.95-3,3.41,3.41,0,0,1,2.66-1,5,5,0,0,1,.76.05,7.6,7.6,0,0,1,.8.17l-.17,1.16a3.82,3.82,0,0,0-.57-.11,4.52,4.52,0,0,0-.68,0,2.17,2.17,0,0,0-1.75.72,3.14,3.14,0,0,0-.61,2v1.85h3v1.15h-3v10.35l1.89.15v1H627v-1l1.89-.15V129.23Z"/><path class="cls-9" d="M635.37,134.24a6.9,6.9,0,0,1,1.52-4.6,5.43,5.43,0,0,1,8.06,0,6.9,6.9,0,0,1,1.52,4.6v.38a6.91,6.91,0,0,1-1.51,4.6,5.44,5.44,0,0,1-8.07,0,6.86,6.86,0,0,1-1.52-4.6Zm1.39.38a6.13,6.13,0,0,0,1.1,3.71,3.87,3.87,0,0,0,6.12,0,6.13,6.13,0,0,0,1.1-3.71v-.38a6,6,0,0,0-1.11-3.68,3.83,3.83,0,0,0-6.11,0,6.08,6.08,0,0,0-1.1,3.68Z"/><path class="cls-9" d="M648.64,139.73l1.89-.15v-10.3l-1.89-.15v-1h3.27v11.5l1.89.15v1h-5.16Zm3.27-15.28h-1.38v-2h1.38Z"/><path class="cls-9" d="M661.53,129.13v-1h3.05l.18,2a4.63,4.63,0,0,1,1.63-1.63,4.56,4.56,0,0,1,2.32-.57,4.09,4.09,0,0,1,3.54,1.82,8.32,8.32,0,0,1,1.28,4.86v.24a7.4,7.4,0,0,1-1.28,4.55,4.17,4.17,0,0,1-3.51,1.69,5,5,0,0,1-2.32-.51,4.16,4.16,0,0,1-1.61-1.45v5.39l1.88.15v1h-5.16v-1l1.9-.15V129.28Zm10.6,5.4a7.3,7.3,0,0,0-1-3.94,3.08,3.08,0,0,0-2.78-1.52,3.61,3.61,0,0,0-2.28.67,4.12,4.12,0,0,0-1.31,1.75v6.1a3.8,3.8,0,0,0,1.37,1.64,4,4,0,0,0,2.24.6,3.15,3.15,0,0,0,2.77-1.39,6.38,6.38,0,0,0,.94-3.67Z"/><path class="cls-9" d="M675.79,134.24a6.84,6.84,0,0,1,1.52-4.6,5.43,5.43,0,0,1,8.06,0,6.9,6.9,0,0,1,1.52,4.6v.38a6.86,6.86,0,0,1-1.52,4.6,5.43,5.43,0,0,1-8.06,0,6.81,6.81,0,0,1-1.52-4.6Zm1.39.38a6.13,6.13,0,0,0,1.1,3.71,3.6,3.6,0,0,0,3.07,1.5,3.55,3.55,0,0,0,3-1.5,6.07,6.07,0,0,0,1.1-3.71v-.38a6,6,0,0,0-1.1-3.68,3.83,3.83,0,0,0-6.11,0,6.08,6.08,0,0,0-1.1,3.68Z"/><path class="cls-9" d="M698.25,132h-1.14l-.16-1.8a3.62,3.62,0,0,0-1.31-.85,5.16,5.16,0,0,0-1.83-.31,3.36,3.36,0,0,0-2.28.67,2,2,0,0,0-.76,1.55,1.84,1.84,0,0,0,.66,1.45,6.29,6.29,0,0,0,2.61,1,8.44,8.44,0,0,1,3.35,1.38,2.86,2.86,0,0,1,1.12,2.37,3.1,3.1,0,0,1-1.27,2.56,5.39,5.39,0,0,1-3.36,1,7.87,7.87,0,0,1-2.54-.39,6,6,0,0,1-2-1.11V137h1.12l.2,1.81a3.18,3.18,0,0,0,1.41.81,6.18,6.18,0,0,0,1.78.26,3.87,3.87,0,0,0,2.38-.67,2,2,0,0,0,.87-1.62,2.09,2.09,0,0,0-.73-1.56,5.86,5.86,0,0,0-2.61-1.09,8.71,8.71,0,0,1-3.33-1.31,2.68,2.68,0,0,1-1.08-2.27,3.06,3.06,0,0,1,1.22-2.46,4.87,4.87,0,0,1,3.21-1,7,7,0,0,1,2.52.43,5.07,5.07,0,0,1,1.86,1.15Z"/><path class="cls-9" d="M710.14,132H709l-.16-1.8a3.58,3.58,0,0,0-1.32-.85,5.14,5.14,0,0,0-1.82-.31,3.32,3.32,0,0,0-2.28.67,2,2,0,0,0-.76,1.55,1.86,1.86,0,0,0,.65,1.45,6.42,6.42,0,0,0,2.62,1,8.44,8.44,0,0,1,3.35,1.38,2.85,2.85,0,0,1,1.11,2.37,3.07,3.07,0,0,1-1.27,2.56,5.34,5.34,0,0,1-3.35,1,7.83,7.83,0,0,1-2.54-.39,6.16,6.16,0,0,1-2-1.11V137h1.13l.2,1.81a3.2,3.2,0,0,0,1.4.81,6.25,6.25,0,0,0,1.79.26,3.83,3.83,0,0,0,2.37-.67,2,2,0,0,0,.87-1.62,2.08,2.08,0,0,0-.72-1.56,6,6,0,0,0-2.62-1.09,8.65,8.65,0,0,1-3.32-1.31,2.68,2.68,0,0,1-1.08-2.27,3.08,3.08,0,0,1,1.21-2.46,4.92,4.92,0,0,1,3.22-1,7,7,0,0,1,2.52.43,5.07,5.07,0,0,1,1.86,1.15Z"/><path class="cls-9" d="M712.84,129.13v-1h3.27v11.5l1.89.15v1h-5.16v-1l1.89-.15v-10.3Zm3.85-5.75h1.7l0,.07-2.89,3H714.3Z"/><path class="cls-9" d="M724,129.13l-1.57.11,3.14,8.35.4,1.49H726l.44-1.49,3.09-8.35-1.57-.11v-1h4.22v1l-1.23.1-4.43,11.53H725.4L721,129.23l-1.23-.1v-1H724Z"/><path class="cls-9" d="M739.08,141a5.06,5.06,0,0,1-3.92-1.75,6.51,6.51,0,0,1-1.55-4.46v-.65a6.68,6.68,0,0,1,1.55-4.51,4.79,4.79,0,0,1,3.74-1.79,4.6,4.6,0,0,1,3.63,1.48,5.66,5.66,0,0,1,1.32,3.93v1.2H735v.34a5.67,5.67,0,0,0,1.13,3.58,3.59,3.59,0,0,0,3,1.45,6,6,0,0,0,2.21-.37,4.32,4.32,0,0,0,1.56-1l.59,1a4.93,4.93,0,0,1-1.78,1.19A6.89,6.89,0,0,1,739.08,141Zm-.18-12a3.32,3.32,0,0,0-2.58,1.19,5.18,5.18,0,0,0-1.23,3l0,.05h7.35v-.35a4.07,4.07,0,0,0-1-2.76A3.29,3.29,0,0,0,738.9,129Z"/><path class="cls-9" d="M746.05,123.52v-1h3.27v17.1l1.89.15v1h-5.16v-1l1.89-.15v-15.9Z"/><path class="cls-9" d="M419.74,167.73a4.24,4.24,0,0,1-1.61,1.54,4.76,4.76,0,0,1-2.32.54,4.16,4.16,0,0,1-3.52-1.7,7.39,7.39,0,0,1-1.27-4.54v-.24a8.32,8.32,0,0,1,1.27-4.86,4.09,4.09,0,0,1,3.54-1.82,4.38,4.38,0,0,1,2.28.56,4.65,4.65,0,0,1,1.6,1.58v-6.31l-1.89-.16v-1h3.28v17.1l1.89.15v1h-3.13Zm-7.31-4.16a6.46,6.46,0,0,0,.91,3.66,3.06,3.06,0,0,0,2.74,1.36,3.85,3.85,0,0,0,2.23-.61,4,4,0,0,0,1.4-1.68v-6a4.42,4.42,0,0,0-1.34-1.75,3.57,3.57,0,0,0-2.27-.68,3,3,0,0,0-2.75,1.51,7.5,7.5,0,0,0-.92,4Z"/><path class="cls-9" d="M430.66,169.81a5,5,0,0,1-3.92-1.75,6.47,6.47,0,0,1-1.56-4.46V163a6.68,6.68,0,0,1,1.55-4.51,4.79,4.79,0,0,1,3.74-1.79,4.6,4.6,0,0,1,3.63,1.48,5.66,5.66,0,0,1,1.32,3.93v1.2h-8.86v.34a5.67,5.67,0,0,0,1.13,3.58,3.61,3.61,0,0,0,3,1.45,6,6,0,0,0,2.2-.37,4.45,4.45,0,0,0,1.57-1l.59,1a5,5,0,0,1-1.79,1.19A6.87,6.87,0,0,1,430.66,169.81Zm-.19-12a3.32,3.32,0,0,0-2.58,1.19,5.11,5.11,0,0,0-1.22,3l0,0H434v-.35a4.07,4.07,0,0,0-1-2.76A3.25,3.25,0,0,0,430.47,157.84Z"/><path class="cls-9" d="M441.4,157.93l-1.57.11,3.13,8.35.41,1.49h.07l.44-1.49L447,158l-1.56-.11v-1.05h4.22v1.05l-1.23.1L444,169.56h-1.11L438.4,158l-1.23-.1v-1.05h4.23Z"/><path class="cls-9" d="M451.06,168.53l1.89-.15v-10.3l-1.89-.15v-1.05h3.27v11.5l1.89.15v1h-5.16Zm3.27-15.28H453v-2h1.38Z"/><path class="cls-9" d="M467.27,167.73a4.39,4.39,0,0,1-1.61,1.54,4.76,4.76,0,0,1-2.32.54,4.15,4.15,0,0,1-3.52-1.7,7.39,7.39,0,0,1-1.27-4.54v-.24a8.32,8.32,0,0,1,1.27-4.86,4.08,4.08,0,0,1,3.54-1.82,4.37,4.37,0,0,1,2.27.56,4.48,4.48,0,0,1,1.6,1.58v-6.31l-1.89-.16v-1h3.29v17.1l1.89.15v1h-3.13ZM460,163.57a6.46,6.46,0,0,0,.91,3.66,3.07,3.07,0,0,0,2.74,1.36,3.89,3.89,0,0,0,2.24-.61,4,4,0,0,0,1.39-1.68v-6a4.31,4.31,0,0,0-1.33-1.75,3.57,3.57,0,0,0-2.27-.68,3,3,0,0,0-2.76,1.51,7.6,7.6,0,0,0-.92,4Z"/><path class="cls-9" d="M472.65,163a6.9,6.9,0,0,1,1.52-4.6,5.43,5.43,0,0,1,8.06,0,6.9,6.9,0,0,1,1.52,4.6v.38a6.91,6.91,0,0,1-1.51,4.6,5.44,5.44,0,0,1-8.07,0,6.86,6.86,0,0,1-1.52-4.6Zm1.39.38a6.13,6.13,0,0,0,1.1,3.71,3.87,3.87,0,0,0,6.12,0,6.13,6.13,0,0,0,1.1-3.71V163a6,6,0,0,0-1.11-3.68,3.83,3.83,0,0,0-6.11,0A6.08,6.08,0,0,0,474,163Z"/><path class="cls-9" d="M500.45,169.56c-.09-.43-.16-.8-.2-1.11a7.46,7.46,0,0,1-.06-.95,5.59,5.59,0,0,1-1.85,1.65,5.17,5.17,0,0,1-2.61.66,4,4,0,0,1-2.85-1,3.4,3.4,0,0,1-1-2.6,3.22,3.22,0,0,1,1.49-2.79,7,7,0,0,1,4.06-1h2.77v-1.68a2.68,2.68,0,0,0-.86-2.13,3.49,3.49,0,0,0-2.42-.78,6.12,6.12,0,0,0-1.91.29,4.31,4.31,0,0,0-1.44.78l-.12,1.7H492.3v-2.44a7.2,7.2,0,0,1,2.08-1.1,7.84,7.84,0,0,1,2.58-.42,5,5,0,0,1,3.34,1.06,3.81,3.81,0,0,1,1.26,3.06V167c0,.26,0,.5,0,.74a5.35,5.35,0,0,0,.08.7l1.25.08v1Zm-4.57-1a5,5,0,0,0,2.66-.71,4.15,4.15,0,0,0,1.65-1.81V163.5H497.4a5.22,5.22,0,0,0-3,.79,2.36,2.36,0,0,0-1.13,2,2.1,2.1,0,0,0,.7,1.65A2.79,2.79,0,0,0,495.88,168.57Z"/><path class="cls-9" d="M510.36,157.93v-1.05h3.12l.13,2.1a4.39,4.39,0,0,1,1.61-1.72,4.56,4.56,0,0,1,2.4-.61,3.64,3.64,0,0,1,3.79,2.87,4.82,4.82,0,0,1,1.61-2.1,4.16,4.16,0,0,1,2.56-.77,3.76,3.76,0,0,1,3.1,1.35,6.54,6.54,0,0,1,1.1,4.17v6.2l1.89.16v1h-5.19v-1l1.9-.16v-6.23a5.22,5.22,0,0,0-.82-3.31,2.85,2.85,0,0,0-2.28-1,3.06,3.06,0,0,0-2.5,1,5.09,5.09,0,0,0-1.09,2.66c0,.06,0,.12,0,.18s0,.12,0,.21v6.42l1.89.15v1h-5.17v-1l1.88-.15v-6.24a5.14,5.14,0,0,0-.82-3.28,2.83,2.83,0,0,0-2.28-1,3.47,3.47,0,0,0-2.35.75,4,4,0,0,0-1.21,2v7.72l1.89.15v1h-5.18v-1l1.9-.15v-10.3Z"/><path class="cls-9" d="M533.29,168.53l1.89-.15v-10.3l-1.89-.15v-1.05h3.27v11.5l1.89.15v1h-5.16Zm3.27-15.28h-1.38v-2h1.38Z"/><path class="cls-9" d="M540.53,168.53l1.89-.15v-10.3l-1.89-.15v-1.05h3.12l.13,2.22a4.33,4.33,0,0,1,4.06-2.45,3.83,3.83,0,0,1,3.1,1.26,6,6,0,0,1,1.07,3.93v6.54l1.89.15v1h-5.17v-1l1.89-.15v-6.53a4.6,4.6,0,0,0-.81-3.08,2.9,2.9,0,0,0-2.29-.9,3.55,3.55,0,0,0-2.38.78,4.32,4.32,0,0,0-1.33,2.06v7.67l1.89.15v1h-5.17Z"/><path class="cls-9" d="M555.68,152.32v-1H559v7.77a4.53,4.53,0,0,1,1.67-1.77,4.58,4.58,0,0,1,2.43-.63,3.79,3.79,0,0,1,3.05,1.24,5.89,5.89,0,0,1,1.06,3.86v6.63l1.89.15v1h-5.18v-1l1.9-.15v-6.66a4.38,4.38,0,0,0-.81-3,2.86,2.86,0,0,0-2.22-.89,3.77,3.77,0,0,0-2.39.75,4.49,4.49,0,0,0-1.4,2v7.75l1.89.15v1h-5.16v-1l1.89-.15v-15.9Z"/><path class="cls-9" d="M579.8,169.56a11.15,11.15,0,0,1-.2-1.11,7.46,7.46,0,0,1-.06-.95,5.59,5.59,0,0,1-1.85,1.65,5.22,5.22,0,0,1-2.61.66,4,4,0,0,1-2.86-1,3.43,3.43,0,0,1-1-2.6,3.19,3.19,0,0,1,1.49-2.79,7,7,0,0,1,4.06-1h2.77v-1.68a2.71,2.71,0,0,0-.86-2.13,3.49,3.49,0,0,0-2.42-.78,6.07,6.07,0,0,0-1.91.29,4.31,4.31,0,0,0-1.44.78l-.12,1.7h-1.15l0-2.44a7.2,7.2,0,0,1,2.08-1.1,7.84,7.84,0,0,1,2.58-.42,5,5,0,0,1,3.34,1.06,3.81,3.81,0,0,1,1.26,3.06V167c0,.26,0,.5,0,.74a5.35,5.35,0,0,0,.08.7l1.25.08v1Zm-4.57-1a5,5,0,0,0,2.65-.71,4.12,4.12,0,0,0,1.66-1.81V163.5h-2.79a5.22,5.22,0,0,0-3,.79,2.36,2.36,0,0,0-1.13,2,2.1,2.1,0,0,0,.7,1.65A2.79,2.79,0,0,0,575.23,168.57Z"/><path class="cls-9" d="M595.37,168.63a4,4,0,0,0,2.44-.8,2.63,2.63,0,0,0,1.05-2.22h1.23l0,.07a3.5,3.5,0,0,1-1.38,2.95,5.18,5.18,0,0,1-3.36,1.18,4.72,4.72,0,0,1-4-1.78,7.09,7.09,0,0,1-1.41-4.56V163a7.1,7.1,0,0,1,1.41-4.55,4.72,4.72,0,0,1,3.94-1.78,6.3,6.3,0,0,1,2.66.55,5.37,5.37,0,0,1,2,1.5l0,2.76h-1.18l-.22-2.25a4,4,0,0,0-1.39-1,4.67,4.67,0,0,0-1.88-.37,3.36,3.36,0,0,0-3,1.46,6.58,6.58,0,0,0-1,3.68v.49a6.58,6.58,0,0,0,1,3.7A3.34,3.34,0,0,0,595.37,168.63Z"/><path class="cls-9" d="M611.36,169.56c-.09-.43-.15-.8-.19-1.11a7.46,7.46,0,0,1-.06-.95,5.53,5.53,0,0,1-1.86,1.65,5.16,5.16,0,0,1-2.6.66,4,4,0,0,1-2.86-1,3.43,3.43,0,0,1-1-2.6,3.2,3.2,0,0,1,1.5-2.79,7,7,0,0,1,4.06-1h2.77v-1.68a2.71,2.71,0,0,0-.86-2.13,3.5,3.5,0,0,0-2.42-.78,6.07,6.07,0,0,0-1.91.29,4.13,4.13,0,0,0-1.44.78l-.12,1.7h-1.15v-2.44a7.26,7.26,0,0,1,2.09-1.1,7.76,7.76,0,0,1,2.58-.42,5,5,0,0,1,3.34,1.06,3.81,3.81,0,0,1,1.26,3.06V167c0,.26,0,.5,0,.74a5.35,5.35,0,0,0,.07.7l1.25.08v1Zm-4.56-1a5,5,0,0,0,2.65-.71,4.12,4.12,0,0,0,1.66-1.81V163.5h-2.8a5.24,5.24,0,0,0-3,.79,2.38,2.38,0,0,0-1.13,2,2.14,2.14,0,0,0,.7,1.65A2.81,2.81,0,0,0,606.8,168.57Z"/><path class="cls-9" d="M615.44,157.93v-1.05h3l.18,2a4.63,4.63,0,0,1,1.63-1.63,4.56,4.56,0,0,1,2.32-.57,4.09,4.09,0,0,1,3.54,1.82,8.32,8.32,0,0,1,1.28,4.86v.24a7.4,7.4,0,0,1-1.28,4.55,4.17,4.17,0,0,1-3.51,1.69,5,5,0,0,1-2.32-.51,4.16,4.16,0,0,1-1.61-1.45v5.39l1.89.15v1.05h-5.16v-1.05l1.89-.15V158.08Zm10.59,5.4a7.3,7.3,0,0,0-.95-3.94,3.08,3.08,0,0,0-2.78-1.52,3.61,3.61,0,0,0-2.28.67,4.12,4.12,0,0,0-1.31,1.75v6.1a3.8,3.8,0,0,0,1.37,1.64,4,4,0,0,0,2.24.6,3.15,3.15,0,0,0,2.77-1.39,6.38,6.38,0,0,0,.94-3.67Z"/><path class="cls-9" d="M638.35,169.56c-.09-.43-.16-.8-.2-1.11a7.46,7.46,0,0,1,0-.95,5.73,5.73,0,0,1-1.86,1.65,5.17,5.17,0,0,1-2.61.66,4,4,0,0,1-2.85-1,3.4,3.4,0,0,1-1-2.6,3.2,3.2,0,0,1,1.5-2.79,7,7,0,0,1,4.05-1h2.78v-1.68a2.69,2.69,0,0,0-.87-2.13,3.47,3.47,0,0,0-2.42-.78,6,6,0,0,0-1.9.29,4.27,4.27,0,0,0-1.45.78l-.11,1.7H630.2v-2.44a7.2,7.2,0,0,1,2.08-1.1,7.84,7.84,0,0,1,2.58-.42,5,5,0,0,1,3.34,1.06,3.82,3.82,0,0,1,1.27,3.06V167c0,.26,0,.5,0,.74a5.35,5.35,0,0,0,.08.7l1.25.08v1Zm-4.57-1a5,5,0,0,0,2.66-.71,4.18,4.18,0,0,0,1.66-1.81V163.5h-2.8a5.22,5.22,0,0,0-3,.79,2.38,2.38,0,0,0-1.13,2,2.1,2.1,0,0,0,.7,1.65A2.79,2.79,0,0,0,633.78,168.57Z"/><path class="cls-9" d="M648.15,168.63a4,4,0,0,0,2.44-.8,2.63,2.63,0,0,0,1-2.22h1.23l0,.07a3.5,3.5,0,0,1-1.38,2.95,5.18,5.18,0,0,1-3.36,1.18A4.72,4.72,0,0,1,644.2,168a7.09,7.09,0,0,1-1.41-4.56V163a7.1,7.1,0,0,1,1.41-4.55,4.72,4.72,0,0,1,3.94-1.78,6.26,6.26,0,0,1,2.65.55,5.21,5.21,0,0,1,2,1.5l.06,2.76h-1.18l-.22-2.25a4,4,0,0,0-1.39-1,4.67,4.67,0,0,0-1.88-.37,3.35,3.35,0,0,0-3,1.46,6.58,6.58,0,0,0-1,3.68v.49a6.51,6.51,0,0,0,1,3.7A3.34,3.34,0,0,0,648.15,168.63Z"/><path class="cls-9" d="M655.39,168.53l1.89-.15v-10.3l-1.89-.15v-1.05h3.27v11.5l1.89.15v1h-5.16Zm3.27-15.28h-1.38v-2h1.38Z"/><path class="cls-9" d="M671.6,167.73a4.32,4.32,0,0,1-1.61,1.54,4.76,4.76,0,0,1-2.32.54,4.16,4.16,0,0,1-3.52-1.7,7.39,7.39,0,0,1-1.27-4.54v-.24a8.32,8.32,0,0,1,1.27-4.86,4.09,4.09,0,0,1,3.54-1.82,4.41,4.41,0,0,1,2.28.56,4.65,4.65,0,0,1,1.6,1.58v-6.31l-1.89-.16v-1H673v17.1l1.89.15v1h-3.13Zm-7.32-4.16a6.54,6.54,0,0,0,.91,3.66,3.08,3.08,0,0,0,2.75,1.36,3.87,3.87,0,0,0,2.23-.61,4.08,4.08,0,0,0,1.4-1.68v-6a4.42,4.42,0,0,0-1.34-1.75,3.57,3.57,0,0,0-2.27-.68,3,3,0,0,0-2.76,1.51,7.6,7.6,0,0,0-.92,4Z"/><path class="cls-9" d="M685.65,169.56a11.15,11.15,0,0,1-.2-1.11,7.46,7.46,0,0,1-.06-.95,5.53,5.53,0,0,1-1.86,1.65,5.16,5.16,0,0,1-2.6.66,4,4,0,0,1-2.86-1,3.43,3.43,0,0,1-1-2.6,3.2,3.2,0,0,1,1.5-2.79,7,7,0,0,1,4.06-1h2.77v-1.68a2.71,2.71,0,0,0-.86-2.13,3.5,3.5,0,0,0-2.42-.78,6.07,6.07,0,0,0-1.91.29,4.13,4.13,0,0,0-1.44.78l-.12,1.7h-1.15v-2.44a7.26,7.26,0,0,1,2.09-1.1,7.76,7.76,0,0,1,2.58-.42,5,5,0,0,1,3.34,1.06,3.81,3.81,0,0,1,1.26,3.06V167c0,.26,0,.5,0,.74a5.35,5.35,0,0,0,.07.7l1.25.08v1Zm-4.57-1a5,5,0,0,0,2.65-.71,4.12,4.12,0,0,0,1.66-1.81V163.5H682.6a5.25,5.25,0,0,0-3,.79,2.38,2.38,0,0,0-1.13,2,2.11,2.11,0,0,0,.71,1.65A2.77,2.77,0,0,0,681.08,168.57Z"/><path class="cls-9" d="M698.81,167.73a4.39,4.39,0,0,1-1.61,1.54,4.76,4.76,0,0,1-2.32.54,4.15,4.15,0,0,1-3.52-1.7,7.39,7.39,0,0,1-1.27-4.54v-.24a8.32,8.32,0,0,1,1.27-4.86,4.07,4.07,0,0,1,3.54-1.82,4.37,4.37,0,0,1,2.27.56,4.56,4.56,0,0,1,1.6,1.58v-6.31l-1.89-.16v-1h3.28v17.1l1.89.15v1h-3.13Zm-7.32-4.16a6.46,6.46,0,0,0,.91,3.66,3.07,3.07,0,0,0,2.74,1.36,3.89,3.89,0,0,0,2.24-.61,4.05,4.05,0,0,0,1.39-1.68v-6a4.33,4.33,0,0,0-1.34-1.75,3.54,3.54,0,0,0-2.26-.68,3,3,0,0,0-2.76,1.51,7.6,7.6,0,0,0-.92,4Z"/><path class="cls-9" d="M709.72,169.81a5,5,0,0,1-3.92-1.75,6.51,6.51,0,0,1-1.55-4.46V163a6.63,6.63,0,0,1,1.55-4.51,4.77,4.77,0,0,1,3.73-1.79,4.64,4.64,0,0,1,3.64,1.48,5.66,5.66,0,0,1,1.32,3.93v1.2h-8.86v.34a5.61,5.61,0,0,0,1.13,3.58,3.59,3.59,0,0,0,3,1.45,6,6,0,0,0,2.2-.37,4.36,4.36,0,0,0,1.57-1l.59,1a5,5,0,0,1-1.78,1.19A6.89,6.89,0,0,1,709.72,169.81Zm-.19-12A3.32,3.32,0,0,0,707,159a5.24,5.24,0,0,0-1.22,3l0,0h7.36v-.35a4,4,0,0,0-1-2.76A3.25,3.25,0,0,0,709.53,157.84Z"/><path class="cls-9" d="M731.47,167.73a4.34,4.34,0,0,1-1.62,1.54,4.74,4.74,0,0,1-2.32.54,4.16,4.16,0,0,1-3.52-1.7,7.45,7.45,0,0,1-1.27-4.54v-.24a8.4,8.4,0,0,1,1.27-4.86,4.1,4.1,0,0,1,3.55-1.82,4.37,4.37,0,0,1,2.27.56,4.56,4.56,0,0,1,1.6,1.58v-6.31l-1.89-.16v-1h3.28v17.1l1.89.15v1h-3.13Zm-7.32-4.16a6.46,6.46,0,0,0,.91,3.66,3.06,3.06,0,0,0,2.74,1.36A3.85,3.85,0,0,0,730,168a4,4,0,0,0,1.4-1.68v-6a4.33,4.33,0,0,0-1.34-1.75,3.55,3.55,0,0,0-2.27-.68,3,3,0,0,0-2.75,1.51,7.6,7.6,0,0,0-.92,4Z"/><path class="cls-9" d="M742.38,169.81a5,5,0,0,1-3.92-1.75,6.47,6.47,0,0,1-1.56-4.46V163a6.68,6.68,0,0,1,1.55-4.51,4.8,4.8,0,0,1,3.74-1.79,4.6,4.6,0,0,1,3.63,1.48,5.67,5.67,0,0,1,1.33,3.93v1.2h-8.87v.34a5.62,5.62,0,0,0,1.14,3.58,3.59,3.59,0,0,0,3,1.45,6,6,0,0,0,2.2-.37,4.36,4.36,0,0,0,1.57-1l.59,1a5,5,0,0,1-1.79,1.19A6.84,6.84,0,0,1,742.38,169.81Zm-.19-12a3.32,3.32,0,0,0-2.58,1.19,5.17,5.17,0,0,0-1.22,3l0,0h7.36v-.35a4.08,4.08,0,0,0-1-2.76A3.25,3.25,0,0,0,742.19,157.84Z"/><path class="cls-9" d="M416.38,197.42a3.91,3.91,0,0,0,2.43-.79,2.61,2.61,0,0,0,1.06-2.22h1.23l0,.07a3.47,3.47,0,0,1-1.38,2.94,5.15,5.15,0,0,1-3.36,1.19,4.72,4.72,0,0,1-3.95-1.78,7.09,7.09,0,0,1-1.41-4.56v-.49a7.1,7.1,0,0,1,1.41-4.55,4.72,4.72,0,0,1,3.94-1.78A6.26,6.26,0,0,1,419,186a5.21,5.21,0,0,1,2,1.5l.06,2.76h-1.18l-.22-2.25a4,4,0,0,0-1.39-1,4.67,4.67,0,0,0-1.88-.37,3.35,3.35,0,0,0-3,1.46,6.58,6.58,0,0,0-1,3.68v.49a6.51,6.51,0,0,0,1,3.7A3.33,3.33,0,0,0,416.38,197.42Z"/><path class="cls-9" d="M423.71,191.83a6.89,6.89,0,0,1,1.52-4.59,5.43,5.43,0,0,1,8.06,0,6.89,6.89,0,0,1,1.52,4.59v.39a6.86,6.86,0,0,1-1.52,4.6,5,5,0,0,1-4,1.79,5,5,0,0,1-4-1.79,6.86,6.86,0,0,1-1.52-4.6Zm1.39.39a6.1,6.1,0,0,0,1.1,3.7,3.61,3.61,0,0,0,3.08,1.5,3.54,3.54,0,0,0,3-1.5,6,6,0,0,0,1.11-3.7v-.39a6,6,0,0,0-1.11-3.67,3.83,3.83,0,0,0-6.11,0,6.07,6.07,0,0,0-1.1,3.67Z"/><path class="cls-9" d="M436.77,186.73v-1h3.12l.13,2.1a4.32,4.32,0,0,1,1.61-1.72,4.51,4.51,0,0,1,2.4-.61,3.62,3.62,0,0,1,3.78,2.87,4.92,4.92,0,0,1,1.62-2.1,4.15,4.15,0,0,1,2.55-.77,3.79,3.79,0,0,1,3.11,1.35,6.52,6.52,0,0,1,1.09,4.17v6.2l1.89.16v1h-5.18v-1l1.89-.16v-6.23a5.16,5.16,0,0,0-.82-3.31,2.82,2.82,0,0,0-2.28-1,3.08,3.08,0,0,0-2.5,1,5.08,5.08,0,0,0-1.08,2.66v.18a1.22,1.22,0,0,1,0,.21v6.42l1.89.15v1h-5.17v-1l1.89-.15v-6.24a5.13,5.13,0,0,0-.83-3.28,2.81,2.81,0,0,0-2.28-1,3.47,3.47,0,0,0-2.35.75,4.06,4.06,0,0,0-1.21,2v7.72l1.89.15v1h-5.17v-1l1.89-.15v-10.3Z"/><path class="cls-9" d="M470.57,192.37a7.4,7.4,0,0,1-1.27,4.55,4.18,4.18,0,0,1-3.52,1.69,4.77,4.77,0,0,1-2.37-.56,4.22,4.22,0,0,1-1.62-1.6l-.15,1.91h-1.18V181.28l-1.89-.16v-1h3.27v7.59a4.58,4.58,0,0,1,1.6-1.64,4.42,4.42,0,0,1,2.32-.58,4.09,4.09,0,0,1,3.54,1.82,8.32,8.32,0,0,1,1.27,4.86Zm-1.4-.24a7.5,7.5,0,0,0-.93-3.95,3,3,0,0,0-2.73-1.51,3.6,3.6,0,0,0-2.35.72,4.43,4.43,0,0,0-1.32,1.87V195a4,4,0,0,0,1.39,1.75,3.9,3.9,0,0,0,2.3.65,3.06,3.06,0,0,0,2.72-1.36,6.46,6.46,0,0,0,.92-3.66Z"/><path class="cls-9" d="M472.84,197.33l1.89-.15v-10.3l-1.89-.15v-1h3.27v11.5l1.89.15v1h-5.16Zm3.27-15.28h-1.38v-2h1.38Z"/><path class="cls-9" d="M480.07,197.33l1.89-.15v-10.3l-1.89-.15v-1h3.12l.13,2.22a4.33,4.33,0,0,1,4.06-2.45,3.86,3.86,0,0,1,3.11,1.26,6,6,0,0,1,1.06,3.93v6.54l1.89.15v1h-5.17v-1l1.89-.15v-6.53a4.67,4.67,0,0,0-.8-3.08,2.92,2.92,0,0,0-2.29-.9,3.58,3.58,0,0,0-2.39.78,4.4,4.4,0,0,0-1.33,2.06v7.67l1.89.15v1h-5.17Z"/><path class="cls-9" d="M504.29,198.36a11.15,11.15,0,0,1-.2-1.11,7.46,7.46,0,0,1-.06-.95,5.59,5.59,0,0,1-1.85,1.65,5.22,5.22,0,0,1-2.61.66,4,4,0,0,1-2.86-1,3.43,3.43,0,0,1-1-2.6,3.19,3.19,0,0,1,1.49-2.79,7,7,0,0,1,4.06-1H504v-1.68a2.71,2.71,0,0,0-.86-2.13,3.49,3.49,0,0,0-2.42-.78,6.07,6.07,0,0,0-1.91.29,4.31,4.31,0,0,0-1.44.78l-.12,1.7h-1.15l0-2.44a7.2,7.2,0,0,1,2.08-1.1,7.84,7.84,0,0,1,2.58-.42,5,5,0,0,1,3.34,1.06,3.81,3.81,0,0,1,1.26,3.06v6.24c0,.26,0,.5,0,.74a5.35,5.35,0,0,0,.08.7l1.25.08v1Zm-4.57-1a5,5,0,0,0,2.65-.71,4.12,4.12,0,0,0,1.66-1.81V192.3h-2.79a5.22,5.22,0,0,0-3,.79,2.36,2.36,0,0,0-1.13,2,2.1,2.1,0,0,0,.7,1.65A2.79,2.79,0,0,0,499.72,197.37Z"/><path class="cls-9" d="M511.73,185.68l.18,2.11v.15a4.45,4.45,0,0,1,1.45-1.83,3.69,3.69,0,0,1,2.19-.66,2.78,2.78,0,0,1,.51,0l.42.09-.19,1.31-1-.07a3.14,3.14,0,0,0-2.15.74,4.14,4.14,0,0,0-1.2,2.05v7.57l1.89.15v1h-5.16v-1l1.89-.15v-10.3l-1.89-.15v-1h3.09Z"/><path class="cls-9" d="M529.41,197.42a3.91,3.91,0,0,0,2.43-.79,2.61,2.61,0,0,0,1.06-2.22h1.23l0,.07a3.45,3.45,0,0,1-1.39,2.94,5.13,5.13,0,0,1-3.35,1.19,4.75,4.75,0,0,1-4-1.78,7.15,7.15,0,0,1-1.4-4.56v-.49a7.16,7.16,0,0,1,1.4-4.55,4.73,4.73,0,0,1,3.94-1.78,6.27,6.27,0,0,1,2.66.55,5.29,5.29,0,0,1,2,1.5l.06,2.76h-1.18l-.23-2.25a4,4,0,0,0-1.38-1,4.68,4.68,0,0,0-1.89-.37,3.33,3.33,0,0,0-3,1.46,6.5,6.5,0,0,0-1,3.68v.49a6.58,6.58,0,0,0,1,3.7A3.35,3.35,0,0,0,529.41,197.42Z"/><path class="cls-9" d="M536.74,191.83a6.83,6.83,0,0,1,1.52-4.59,5.42,5.42,0,0,1,8,0,6.83,6.83,0,0,1,1.52,4.59v.39a6.85,6.85,0,0,1-1.51,4.6,5.43,5.43,0,0,1-8.06,0,6.81,6.81,0,0,1-1.52-4.6Zm1.39.39a6,6,0,0,0,1.1,3.7,3.86,3.86,0,0,0,6.11,0,6,6,0,0,0,1.1-3.7v-.39a6.07,6.07,0,0,0-1.1-3.67,3.83,3.83,0,0,0-6.11,0,6,6,0,0,0-1.1,3.67Z"/><path class="cls-9" d="M549.84,197.33l1.89-.15v-10.3l-1.89-.15v-1H553l.13,2.22a4.33,4.33,0,0,1,4.06-2.45,3.83,3.83,0,0,1,3.1,1.26,6,6,0,0,1,1.07,3.93v6.54l1.89.15v1H558v-1l1.89-.15v-6.53a4.6,4.6,0,0,0-.81-3.08,2.9,2.9,0,0,0-2.29-.9,3.55,3.55,0,0,0-2.38.78,4.4,4.4,0,0,0-1.33,2.06v7.67l1.89.15v1h-5.17Z"/><path class="cls-9" d="M565,181.12v-1h3.27v7.77a4.53,4.53,0,0,1,1.67-1.77,4.58,4.58,0,0,1,2.43-.63,3.79,3.79,0,0,1,3,1.24,5.89,5.89,0,0,1,1.06,3.86v6.63l1.89.15v1h-5.17v-1l1.89-.15v-6.66a4.38,4.38,0,0,0-.81-3,2.86,2.86,0,0,0-2.22-.89,3.72,3.72,0,0,0-2.38.75,4.43,4.43,0,0,0-1.41,2v7.75l1.89.15v1H565v-1l1.89-.15v-15.9Z"/><path class="cls-9" d="M585.86,198.61a5,5,0,0,1-3.92-1.75,6.46,6.46,0,0,1-1.55-4.46v-.65a6.63,6.63,0,0,1,1.55-4.51,4.77,4.77,0,0,1,3.73-1.79,4.67,4.67,0,0,1,3.64,1.47,5.71,5.71,0,0,1,1.32,3.94v1.2h-8.86v.34A5.61,5.61,0,0,0,582.9,196a3.58,3.58,0,0,0,3,1.44,6,6,0,0,0,2.2-.36,4.36,4.36,0,0,0,1.57-1l.59,1a5,5,0,0,1-1.78,1.19A6.89,6.89,0,0,1,585.86,198.61Zm-.19-12a3.32,3.32,0,0,0-2.58,1.19,5.24,5.24,0,0,0-1.22,3l0,.05h7.36v-.35a4,4,0,0,0-1-2.76A3.25,3.25,0,0,0,585.67,186.64Z"/><path class="cls-9" d="M598.47,197.42a3.91,3.91,0,0,0,2.43-.79,2.61,2.61,0,0,0,1.06-2.22h1.23l0,.07a3.45,3.45,0,0,1-1.39,2.94,5.13,5.13,0,0,1-3.35,1.19,4.75,4.75,0,0,1-4-1.78,7.15,7.15,0,0,1-1.4-4.56v-.49a7.16,7.16,0,0,1,1.4-4.55,4.73,4.73,0,0,1,3.94-1.78,6.27,6.27,0,0,1,2.66.55,5.29,5.29,0,0,1,2,1.5l.06,2.76H602l-.22-2.25a4.16,4.16,0,0,0-1.39-1,4.68,4.68,0,0,0-1.89-.37,3.33,3.33,0,0,0-3,1.46,6.5,6.5,0,0,0-1,3.68v.49a6.58,6.58,0,0,0,1,3.7A3.35,3.35,0,0,0,598.47,197.42Z"/><path class="cls-9" d="M605.7,197.33l1.89-.15v-10.3l-1.89-.15v-1H609v11.5l1.89.15v1H605.7ZM609,182.05h-1.38v-2H609Z"/><path class="cls-9" d="M612.89,186.73v-1H616l.13,2.1a4.39,4.39,0,0,1,1.61-1.72,4.56,4.56,0,0,1,2.4-.61,3.64,3.64,0,0,1,3.79,2.87,4.82,4.82,0,0,1,1.61-2.1,4.16,4.16,0,0,1,2.56-.77,3.76,3.76,0,0,1,3.1,1.35,6.52,6.52,0,0,1,1.1,4.17v6.2l1.89.16v1H629v-1l1.89-.16v-6.23a5.23,5.23,0,0,0-.81-3.31,2.85,2.85,0,0,0-2.28-1,3.06,3.06,0,0,0-2.5,1,5.09,5.09,0,0,0-1.09,2.66c0,.06,0,.12,0,.18s0,.12,0,.21v6.42l1.89.15v1H621v-1l1.89-.15v-6.24a5.14,5.14,0,0,0-.82-3.28,2.83,2.83,0,0,0-2.28-1,3.45,3.45,0,0,0-2.35.75,4,4,0,0,0-1.21,2v7.72l1.89.15v1h-5.18v-1l1.89-.15v-10.3Z"/><path class="cls-9" d="M641.33,198.61a5,5,0,0,1-3.92-1.75,6.46,6.46,0,0,1-1.55-4.46v-.65a6.67,6.67,0,0,1,1.54-4.51,4.8,4.8,0,0,1,3.74-1.79,4.63,4.63,0,0,1,3.63,1.47,5.66,5.66,0,0,1,1.33,3.94v1.2h-8.86v.34a5.61,5.61,0,0,0,1.13,3.58,3.58,3.58,0,0,0,3,1.44,6,6,0,0,0,2.2-.36,4.36,4.36,0,0,0,1.57-1l.59,1a5,5,0,0,1-1.79,1.19A6.8,6.8,0,0,1,641.33,198.61Zm-.19-12a3.32,3.32,0,0,0-2.58,1.19,5.17,5.17,0,0,0-1.22,3l0,.05h7.36v-.35a4,4,0,0,0-1-2.76A3.25,3.25,0,0,0,641.14,186.64Z"/><path class="cls-9" d="M648.32,197.33l1.89-.15v-10.3l-1.89-.15v-1h3.12l.13,2.22a4.33,4.33,0,0,1,4.06-2.45,3.85,3.85,0,0,1,3.11,1.26,6,6,0,0,1,1.07,3.93v6.54l1.89.15v1h-5.18v-1l1.89-.15v-6.53a4.61,4.61,0,0,0-.8-3.08,2.92,2.92,0,0,0-2.29-.9,3.58,3.58,0,0,0-2.39.78,4.38,4.38,0,0,0-1.32,2.06v7.67l1.89.15v1h-5.18Z"/><path class="cls-9" d="M667.07,182.44v3.24h2.76v1.15h-2.76v8.26a2.73,2.73,0,0,0,.44,1.77,1.52,1.52,0,0,0,1.19.52c.23,0,.44,0,.66,0s.45,0,.73-.1l.21,1a3.79,3.79,0,0,1-.85.24,6.61,6.61,0,0,1-1,.08,2.57,2.57,0,0,1-2.06-.85,4,4,0,0,1-.74-2.67v-8.26h-2.15v-1.15h2.15v-3.24Z"/><path class="cls-9" d="M672.15,191.83a6.88,6.88,0,0,1,1.51-4.59,5.43,5.43,0,0,1,8.06,0,6.83,6.83,0,0,1,1.52,4.59v.39a6.85,6.85,0,0,1-1.51,4.6,5,5,0,0,1-4,1.79,5.07,5.07,0,0,1-4.05-1.79,6.85,6.85,0,0,1-1.51-4.6Zm1.39.39a6,6,0,0,0,1.1,3.7,3.86,3.86,0,0,0,6.11,0,6.1,6.1,0,0,0,1.1-3.7v-.39a6,6,0,0,0-1.11-3.67,3.82,3.82,0,0,0-6.1,0,6,6,0,0,0-1.1,3.67Z"/><path class="cls-9" d="M694.61,189.6h-1.14l-.16-1.8A3.58,3.58,0,0,0,692,187a5.14,5.14,0,0,0-1.82-.31,3.32,3.32,0,0,0-2.28.67,2,2,0,0,0-.76,1.55,1.86,1.86,0,0,0,.65,1.45,6.42,6.42,0,0,0,2.62,1,8.44,8.44,0,0,1,3.35,1.38,2.85,2.85,0,0,1,1.11,2.37,3.07,3.07,0,0,1-1.27,2.56,5.34,5.34,0,0,1-3.35,1,7.83,7.83,0,0,1-2.54-.39,6.19,6.19,0,0,1-2-1.11v-2.56h1.12l.2,1.81a3.28,3.28,0,0,0,1.41.81,6.13,6.13,0,0,0,1.78.25,3.83,3.83,0,0,0,2.37-.66,2,2,0,0,0,.87-1.62,2.08,2.08,0,0,0-.72-1.56,6,6,0,0,0-2.62-1.09,8.65,8.65,0,0,1-3.32-1.31,2.68,2.68,0,0,1-1.08-2.27,3.08,3.08,0,0,1,1.21-2.46,4.92,4.92,0,0,1,3.22-1,7,7,0,0,1,2.52.43,5.07,5.07,0,0,1,1.86,1.15Z"/><path class="cls-9" d="M703.17,191.83a6.83,6.83,0,0,1,1.52-4.59,5.43,5.43,0,0,1,8.06,0,6.89,6.89,0,0,1,1.52,4.59v.39a6.86,6.86,0,0,1-1.52,4.6,5.43,5.43,0,0,1-8.06,0,6.81,6.81,0,0,1-1.52-4.6Zm1.39.39a6.1,6.1,0,0,0,1.1,3.7,3.86,3.86,0,0,0,6.11,0,6,6,0,0,0,1.1-3.7v-.39a6.07,6.07,0,0,0-1.1-3.67,3.83,3.83,0,0,0-6.11,0,6.07,6.07,0,0,0-1.1,3.67Z"/><path class="cls-9" d="M725.63,189.6h-1.14l-.16-1.8A3.58,3.58,0,0,0,723,187a5.1,5.1,0,0,0-1.82-.31,3.36,3.36,0,0,0-2.28.67,2,2,0,0,0-.76,1.55,1.86,1.86,0,0,0,.65,1.45,6.42,6.42,0,0,0,2.62,1,8.44,8.44,0,0,1,3.35,1.38,2.85,2.85,0,0,1,1.11,2.37,3.07,3.07,0,0,1-1.27,2.56,5.34,5.34,0,0,1-3.35,1,7.83,7.83,0,0,1-2.54-.39,6.19,6.19,0,0,1-2-1.11v-2.56h1.12l.2,1.81a3.28,3.28,0,0,0,1.41.81,6.18,6.18,0,0,0,1.78.25,3.87,3.87,0,0,0,2.38-.66,2,2,0,0,0,.86-1.62,2.08,2.08,0,0,0-.72-1.56,5.91,5.91,0,0,0-2.62-1.09,8.65,8.65,0,0,1-3.32-1.31,2.68,2.68,0,0,1-1.08-2.27,3.06,3.06,0,0,1,1.22-2.46,4.87,4.87,0,0,1,3.21-1,7,7,0,0,1,2.52.43,5.07,5.07,0,0,1,1.86,1.15Z"/><path class="cls-9" d="M733.89,186.73v-1H737l.12,2.1a4.41,4.41,0,0,1,1.62-1.72,4.51,4.51,0,0,1,2.4-.61,3.62,3.62,0,0,1,3.78,2.87,5,5,0,0,1,1.61-2.1,4.18,4.18,0,0,1,2.56-.77,3.76,3.76,0,0,1,3.1,1.35,6.46,6.46,0,0,1,1.1,4.17v6.2l1.89.16v1H750v-1l1.89-.16v-6.23a5.22,5.22,0,0,0-.82-3.31,2.85,2.85,0,0,0-2.28-1,3.06,3.06,0,0,0-2.5,1,5.08,5.08,0,0,0-1.08,2.66v.18a1.22,1.22,0,0,1,0,.21v6.42l1.89.15v1H742v-1l1.89-.15v-6.24a5.13,5.13,0,0,0-.83-3.28,2.83,2.83,0,0,0-2.28-1,3.47,3.47,0,0,0-2.35.75,4,4,0,0,0-1.21,2v7.72l1.89.15v1h-5.17v-1l1.89-.15v-10.3Z"/><path class="cls-9" d="M765.57,198.36c-.09-.43-.16-.8-.2-1.11a7.46,7.46,0,0,1-.06-.95,5.59,5.59,0,0,1-1.85,1.65,5.17,5.17,0,0,1-2.61.66,4,4,0,0,1-2.85-1,3.4,3.4,0,0,1-1-2.6,3.22,3.22,0,0,1,1.49-2.79,7,7,0,0,1,4.06-1h2.77v-1.68a2.68,2.68,0,0,0-.86-2.13,3.49,3.49,0,0,0-2.42-.78,6.12,6.12,0,0,0-1.91.29,4.31,4.31,0,0,0-1.44.78l-.12,1.7h-1.14V187a7.2,7.2,0,0,1,2.08-1.1,7.84,7.84,0,0,1,2.58-.42,5,5,0,0,1,3.34,1.06,3.81,3.81,0,0,1,1.26,3.06v6.24c0,.26,0,.5,0,.74a5.35,5.35,0,0,0,.08.7l1.25.08v1Zm-4.57-1a5,5,0,0,0,2.66-.71,4.15,4.15,0,0,0,1.65-1.81V192.3h-2.79a5.22,5.22,0,0,0-3,.79,2.36,2.36,0,0,0-1.13,2,2.1,2.1,0,0,0,.7,1.65A2.79,2.79,0,0,0,761,197.37Z"/><path class="cls-9" d="M769.92,197.33l1.89-.15v-10.3l-1.89-.15v-1h3.27v11.5l1.89.15v1h-5.16Zm3.27-15.28h-1.38v-2h1.38Z"/><path class="cls-9" d="M786.51,189.6h-1.13l-.16-1.8a3.58,3.58,0,0,0-1.32-.85,5.16,5.16,0,0,0-1.83-.31,3.36,3.36,0,0,0-2.28.67,2,2,0,0,0-.76,1.55,1.84,1.84,0,0,0,.66,1.45,6.42,6.42,0,0,0,2.61,1,8.49,8.49,0,0,1,3.36,1.38,2.85,2.85,0,0,1,1.11,2.37,3.07,3.07,0,0,1-1.27,2.56,5.39,5.39,0,0,1-3.36,1,7.76,7.76,0,0,1-2.53-.39,6.36,6.36,0,0,1-2-1.11v-2.56h1.13l.19,1.81a3.28,3.28,0,0,0,1.41.81,6.18,6.18,0,0,0,1.78.25,3.85,3.85,0,0,0,2.38-.66,2,2,0,0,0,.87-1.62,2.06,2.06,0,0,0-.73-1.56,5.86,5.86,0,0,0-2.61-1.09,8.65,8.65,0,0,1-3.32-1.31,2.66,2.66,0,0,1-1.09-2.27,3.09,3.09,0,0,1,1.22-2.46,4.87,4.87,0,0,1,3.21-1,7.11,7.11,0,0,1,2.53.43,5.07,5.07,0,0,1,1.86,1.15Z"/><path class="cls-9" d="M419.74,225.33a4.24,4.24,0,0,1-1.61,1.54,4.76,4.76,0,0,1-2.32.54,4.16,4.16,0,0,1-3.52-1.7,7.37,7.37,0,0,1-1.27-4.54v-.24a8.35,8.35,0,0,1,1.27-4.86,4.09,4.09,0,0,1,3.54-1.82,4.38,4.38,0,0,1,2.28.56,4.65,4.65,0,0,1,1.6,1.58v-6.31l-1.89-.16v-1h3.28V226l1.89.15v1h-3.13Zm-7.31-4.16a6.46,6.46,0,0,0,.91,3.66,3.06,3.06,0,0,0,2.74,1.36,3.85,3.85,0,0,0,2.23-.61,4,4,0,0,0,1.4-1.67v-6a4.38,4.38,0,0,0-1.34-1.76,3.57,3.57,0,0,0-2.27-.68,3,3,0,0,0-2.75,1.52,7.44,7.44,0,0,0-.92,3.94Z"/><path class="cls-9" d="M425,226.13l1.89-.15v-10.3l-1.89-.15v-1.05h3.27V226l1.89.15v1H425Zm3.27-15.28h-1.38v-2h1.38Z"/><path class="cls-9" d="M436.17,215.53l-1.57.11,3.13,8.35.41,1.49h.07l.44-1.49,3.08-8.35-1.56-.11v-1.05h4.22v1.05l-1.23.1-4.43,11.53h-1.12l-4.44-11.53-1.23-.1v-1.05h4.23Z"/><path class="cls-9" d="M451.3,227.41a5,5,0,0,1-3.92-1.75,6.46,6.46,0,0,1-1.55-4.46v-.65a6.67,6.67,0,0,1,1.54-4.51,4.8,4.8,0,0,1,3.74-1.79,4.6,4.6,0,0,1,3.63,1.48,5.62,5.62,0,0,1,1.33,3.93v1.2h-8.86v.34a5.61,5.61,0,0,0,1.13,3.58,3.59,3.59,0,0,0,3,1.45,6,6,0,0,0,2.2-.37,4.36,4.36,0,0,0,1.57-1l.59,1a5,5,0,0,1-1.79,1.19A6.8,6.8,0,0,1,451.3,227.41Zm-.19-12a3.32,3.32,0,0,0-2.58,1.19,5.17,5.17,0,0,0-1.22,3l0,0h7.36v-.35a4,4,0,0,0-1-2.76A3.28,3.28,0,0,0,451.11,215.44Z"/><path class="cls-9" d="M461.55,214.48l.18,2.11v.16a4.42,4.42,0,0,1,1.45-1.84,3.66,3.66,0,0,1,2.19-.66,2.78,2.78,0,0,1,.51,0l.42.09-.19,1.31-1-.07a3.14,3.14,0,0,0-2.15.74,4.14,4.14,0,0,0-1.2,2V226l1.89.15v1h-5.16v-1l1.89-.15v-10.3l-1.89-.15v-1.05h3.09Z"/><path class="cls-9" d="M477.2,218.4h-1.14l-.16-1.8a3.58,3.58,0,0,0-1.32-.85,5.16,5.16,0,0,0-1.83-.31,3.36,3.36,0,0,0-2.27.67,2,2,0,0,0-.76,1.55,1.82,1.82,0,0,0,.65,1.45,6.27,6.27,0,0,0,2.62,1,8.58,8.58,0,0,1,3.35,1.38,2.85,2.85,0,0,1,1.11,2.37,3.07,3.07,0,0,1-1.27,2.56,5.37,5.37,0,0,1-3.36,1,7.81,7.81,0,0,1-2.53-.39,6.16,6.16,0,0,1-2-1.11v-2.56h1.13l.19,1.81A3.29,3.29,0,0,0,471,226a6.23,6.23,0,0,0,1.78.26,3.85,3.85,0,0,0,2.38-.67,2,2,0,0,0,.87-1.62,2.08,2.08,0,0,0-.72-1.56,6,6,0,0,0-2.62-1.09,8.83,8.83,0,0,1-3.32-1.3,2.72,2.72,0,0,1-1.09-2.28,3.09,3.09,0,0,1,1.22-2.46,4.87,4.87,0,0,1,3.21-1,7.07,7.07,0,0,1,2.53.43,5.07,5.07,0,0,1,1.86,1.15Z"/><path class="cls-9" d="M480,220.64a6.84,6.84,0,0,1,1.52-4.6,5.43,5.43,0,0,1,8.06,0,6.9,6.9,0,0,1,1.52,4.6V221a6.86,6.86,0,0,1-1.52,4.6,5,5,0,0,1-4,1.79,5,5,0,0,1-4.05-1.79A6.81,6.81,0,0,1,480,221Zm1.39.38a6.13,6.13,0,0,0,1.1,3.71,3.61,3.61,0,0,0,3.08,1.5,3.54,3.54,0,0,0,3-1.5,6.07,6.07,0,0,0,1.11-3.71v-.38a6,6,0,0,0-1.11-3.68,3.83,3.83,0,0,0-6.11,0,6.08,6.08,0,0,0-1.1,3.68Z"/><path class="cls-9" d="M502.44,218.4h-1.13l-.17-1.8a3.46,3.46,0,0,0-1.31-.85,5.16,5.16,0,0,0-1.83-.31,3.41,3.41,0,0,0-2.28.67,2,2,0,0,0-.76,1.55,1.83,1.83,0,0,0,.66,1.45,6.28,6.28,0,0,0,2.61,1,8.52,8.52,0,0,1,3.35,1.38,2.83,2.83,0,0,1,1.12,2.37,3.1,3.1,0,0,1-1.27,2.56,5.39,5.39,0,0,1-3.36,1,7.76,7.76,0,0,1-2.53-.39,6.06,6.06,0,0,1-2-1.11v-2.56h1.12l.2,1.81a3.18,3.18,0,0,0,1.41.81,6.18,6.18,0,0,0,1.78.26,3.85,3.85,0,0,0,2.38-.67,2,2,0,0,0,.87-1.62,2.06,2.06,0,0,0-.73-1.56,5.86,5.86,0,0,0-2.61-1.09,8.83,8.83,0,0,1-3.32-1.3,2.69,2.69,0,0,1-1.09-2.28,3.09,3.09,0,0,1,1.22-2.46,4.87,4.87,0,0,1,3.21-1,7,7,0,0,1,2.52.43,5.12,5.12,0,0,1,1.87,1.15Z"/><path class="cls-9" d="M516.53,227.41a5,5,0,0,1-3.92-1.75,6.51,6.51,0,0,1-1.55-4.46v-.65a6.68,6.68,0,0,1,1.55-4.51,4.79,4.79,0,0,1,3.74-1.79,4.6,4.6,0,0,1,3.63,1.48,5.66,5.66,0,0,1,1.32,3.93v1.2h-8.86v.34a5.67,5.67,0,0,0,1.13,3.58,3.59,3.59,0,0,0,3,1.45,6,6,0,0,0,2.21-.37,4.32,4.32,0,0,0,1.56-1l.59,1a4.93,4.93,0,0,1-1.78,1.19A6.89,6.89,0,0,1,516.53,227.41Zm-.18-12a3.32,3.32,0,0,0-2.58,1.19,5.18,5.18,0,0,0-1.23,3l0,0h7.35v-.35a4.07,4.07,0,0,0-1-2.76A3.29,3.29,0,0,0,516.35,215.44Z"/><path class="cls-9" d="M532.75,211.24v3.24h2.76v1.15h-2.76v8.26a2.8,2.8,0,0,0,.44,1.77,1.52,1.52,0,0,0,1.19.52c.23,0,.44,0,.66,0s.45-.05.73-.1l.21,1a3.85,3.85,0,0,1-.84.24,6.85,6.85,0,0,1-1,.08,2.6,2.6,0,0,1-2.06-.84,4,4,0,0,1-.74-2.68v-8.26h-2.15v-1.15h2.15v-3.24Z"/><path class="cls-9" d="M546.72,227.16c-.09-.43-.16-.8-.2-1.11a7.46,7.46,0,0,1,0-1,5.62,5.62,0,0,1-1.86,1.65,5.17,5.17,0,0,1-2.61.66,4,4,0,0,1-2.85-1,3.43,3.43,0,0,1-1-2.6,3.21,3.21,0,0,1,1.5-2.79,7,7,0,0,1,4.05-1h2.78v-1.68a2.69,2.69,0,0,0-.87-2.13,3.47,3.47,0,0,0-2.42-.78,6,6,0,0,0-1.9.29,4.27,4.27,0,0,0-1.45.78l-.11,1.7h-1.15v-2.44a7.2,7.2,0,0,1,2.08-1.1,7.84,7.84,0,0,1,2.58-.42,5,5,0,0,1,3.34,1.07,3.78,3.78,0,0,1,1.27,3.05v6.24c0,.26,0,.5,0,.74a5.35,5.35,0,0,0,.08.7l1.25.08v1Zm-4.57-1a5,5,0,0,0,2.66-.71,4.12,4.12,0,0,0,1.66-1.81V221.1h-2.8a5.15,5.15,0,0,0-3,.8,2.35,2.35,0,0,0-1.13,2,2.1,2.1,0,0,0,.7,1.65A2.79,2.79,0,0,0,542.15,226.17Z"/><path class="cls-9" d="M550.86,215.53v-1.05H554l.13,2.1a4.39,4.39,0,0,1,1.61-1.72,4.51,4.51,0,0,1,2.4-.61,3.62,3.62,0,0,1,3.78,2.87,4.92,4.92,0,0,1,1.62-2.1,4.16,4.16,0,0,1,2.56-.77,3.77,3.77,0,0,1,3.1,1.35,6.56,6.56,0,0,1,1.09,4.17V226l1.89.16v1H567v-1l1.89-.16v-6.22a5.17,5.17,0,0,0-.82-3.32,2.82,2.82,0,0,0-2.28-1,3.07,3.07,0,0,0-2.49,1,5,5,0,0,0-1.09,2.66,1.09,1.09,0,0,0,0,.18V226l1.89.15v1h-5.17v-1l1.89-.15v-6.23a5.14,5.14,0,0,0-.83-3.29,2.81,2.81,0,0,0-2.28-1,3.47,3.47,0,0,0-2.35.75,4.11,4.11,0,0,0-1.21,2V226l1.89.15v1h-5.17v-1l1.89-.15v-10.3Z"/><path class="cls-9" d="M584.67,221.17a7.4,7.4,0,0,1-1.28,4.55,4.17,4.17,0,0,1-3.51,1.69,4.81,4.81,0,0,1-2.38-.56,4.19,4.19,0,0,1-1.61-1.6l-.15,1.91h-1.19V210.08l-1.89-.16v-1h3.27v7.6a4.61,4.61,0,0,1,1.6-1.65,4.44,4.44,0,0,1,2.32-.58,4.09,4.09,0,0,1,3.54,1.82,8.35,8.35,0,0,1,1.28,4.86Zm-1.41-.24a7.53,7.53,0,0,0-.92-3.94,3,3,0,0,0-2.74-1.52,3.6,3.6,0,0,0-2.35.72,4.43,4.43,0,0,0-1.32,1.87v5.73a4,4,0,0,0,1.39,1.75,3.9,3.9,0,0,0,2.3.65,3.07,3.07,0,0,0,2.73-1.36,6.46,6.46,0,0,0,.91-3.66Z"/><path class="cls-9" d="M592.55,227.41a5,5,0,0,1-3.92-1.75,6.51,6.51,0,0,1-1.55-4.46v-.65a6.68,6.68,0,0,1,1.55-4.51,4.79,4.79,0,0,1,3.74-1.79,4.6,4.6,0,0,1,3.63,1.48,5.66,5.66,0,0,1,1.32,3.93v1.2h-8.86v.34a5.67,5.67,0,0,0,1.13,3.58,3.59,3.59,0,0,0,3,1.45,6,6,0,0,0,2.21-.37,4.32,4.32,0,0,0,1.56-1l.59,1a4.93,4.93,0,0,1-1.78,1.19A6.89,6.89,0,0,1,592.55,227.41Zm-.18-12a3.32,3.32,0,0,0-2.58,1.19,5.18,5.18,0,0,0-1.23,3l0,0h7.35v-.35a4.07,4.07,0,0,0-1-2.76A3.29,3.29,0,0,0,592.37,215.44Zm1.31-5.8h1.7l0,.07-2.89,3h-1.24Z"/><path class="cls-9" d="M599.5,215.53v-1.05h3.12l.13,2.1a4.39,4.39,0,0,1,1.61-1.72,4.51,4.51,0,0,1,2.4-.61,3.62,3.62,0,0,1,3.78,2.87,4.92,4.92,0,0,1,1.62-2.1,4.16,4.16,0,0,1,2.56-.77,3.77,3.77,0,0,1,3.1,1.35,6.56,6.56,0,0,1,1.09,4.17V226l1.89.16v1h-5.18v-1l1.89-.16v-6.22a5.17,5.17,0,0,0-.82-3.32,2.82,2.82,0,0,0-2.28-1,3.11,3.11,0,0,0-2.5,1,5.08,5.08,0,0,0-1.08,2.66,1.09,1.09,0,0,0,0,.18V226l1.89.15v1h-5.17v-1l1.89-.15v-6.23a5.14,5.14,0,0,0-.83-3.29,2.81,2.81,0,0,0-2.28-1,3.47,3.47,0,0,0-2.35.75,4.11,4.11,0,0,0-1.21,2V226l1.89.15v1H599.5v-1l1.89-.15v-10.3Z"/><path class="cls-9" d="M637,227.16c-.09-.43-.16-.8-.2-1.11a7.46,7.46,0,0,1-.06-1,5.49,5.49,0,0,1-1.85,1.65,5.22,5.22,0,0,1-2.61.66,4,4,0,0,1-2.85-1,3.4,3.4,0,0,1-1-2.6,3.23,3.23,0,0,1,1.49-2.79,7,7,0,0,1,4.06-1h2.77v-1.68a2.68,2.68,0,0,0-.86-2.13,3.49,3.49,0,0,0-2.42-.78,6.12,6.12,0,0,0-1.91.29,4.31,4.31,0,0,0-1.44.78l-.12,1.7h-1.14v-2.44a7.2,7.2,0,0,1,2.08-1.1,7.84,7.84,0,0,1,2.58-.42,5,5,0,0,1,3.34,1.07,3.78,3.78,0,0,1,1.26,3.05v6.24c0,.26,0,.5,0,.74a5.35,5.35,0,0,0,.08.7l1.25.08v1Zm-4.57-1a5,5,0,0,0,2.65-.71,4.06,4.06,0,0,0,1.66-1.81V221.1h-2.79a5.15,5.15,0,0,0-3,.8,2.33,2.33,0,0,0-1.13,2,2.1,2.1,0,0,0,.7,1.65A2.79,2.79,0,0,0,632.39,226.17Z"/><path class="cls-9" d="M641.4,220.64a6.9,6.9,0,0,1,1.52-4.6,5.43,5.43,0,0,1,8.06,0,6.9,6.9,0,0,1,1.52,4.6V221a6.86,6.86,0,0,1-1.52,4.6,5,5,0,0,1-4,1.79,5,5,0,0,1-4.05-1.79,6.86,6.86,0,0,1-1.52-4.6Zm1.39.38a6.13,6.13,0,0,0,1.1,3.71,3.61,3.61,0,0,0,3.08,1.5,3.54,3.54,0,0,0,3-1.5,6.07,6.07,0,0,0,1.11-3.71v-.38A6,6,0,0,0,650,217a3.83,3.83,0,0,0-6.11,0,6.08,6.08,0,0,0-1.1,3.68Z"/><path class="cls-9" d="M663.72,211.24v3.24h2.76v1.15h-2.76v8.26a2.73,2.73,0,0,0,.45,1.77,1.51,1.51,0,0,0,1.19.52c.22,0,.44,0,.65,0s.46-.05.74-.1l.21,1a4,4,0,0,1-.85.24,6.61,6.61,0,0,1-1,.08,2.58,2.58,0,0,1-2.06-.84,4,4,0,0,1-.74-2.68v-8.26h-2.16v-1.15h2.16v-3.24Z"/><path class="cls-9" d="M672,214.48l.17,2.11v.16a4.44,4.44,0,0,1,1.46-1.84,3.63,3.63,0,0,1,2.18-.66,3,3,0,0,1,.52,0l.41.09-.18,1.31-1-.07a3.15,3.15,0,0,0-2.15.74,4.14,4.14,0,0,0-1.2,2V226l1.89.15v1h-5.16v-1l1.89-.15v-10.3l-1.89-.15v-1.05H672Z"/><path class="cls-9" d="M687.24,227.16a10.8,10.8,0,0,1-.19-1.11,7.46,7.46,0,0,1-.06-1,5.62,5.62,0,0,1-1.86,1.65,5.17,5.17,0,0,1-2.61.66,4,4,0,0,1-2.85-1,3.43,3.43,0,0,1-1-2.6,3.21,3.21,0,0,1,1.5-2.79,7,7,0,0,1,4.06-1H687v-1.68a2.69,2.69,0,0,0-.87-2.13,3.46,3.46,0,0,0-2.41-.78,6,6,0,0,0-1.91.29,4.27,4.27,0,0,0-1.45.78l-.11,1.7h-1.15v-2.44a7.33,7.33,0,0,1,2.08-1.1,7.84,7.84,0,0,1,2.58-.42,5,5,0,0,1,3.34,1.07,3.75,3.75,0,0,1,1.27,3.05v6.24c0,.26,0,.5,0,.74a5.35,5.35,0,0,0,.07.7l1.25.08v1Zm-4.57-1a5,5,0,0,0,2.66-.71,4.12,4.12,0,0,0,1.66-1.81V221.1h-2.8a5.17,5.17,0,0,0-3,.8,2.35,2.35,0,0,0-1.13,2,2.1,2.1,0,0,0,.7,1.65A2.79,2.79,0,0,0,682.67,226.17Z"/><path class="cls-9" d="M702.47,221.17a7.4,7.4,0,0,1-1.28,4.55,4.17,4.17,0,0,1-3.51,1.69,4.84,4.84,0,0,1-2.38-.56,4.26,4.26,0,0,1-1.61-1.6l-.15,1.91h-1.18V210.08l-1.89-.16v-1h3.27v7.6a4.27,4.27,0,0,1,3.92-2.23,4.09,4.09,0,0,1,3.53,1.82,8.35,8.35,0,0,1,1.28,4.86Zm-1.4-.24a7.44,7.44,0,0,0-.93-3.94,3,3,0,0,0-2.74-1.52,3.62,3.62,0,0,0-2.35.72,4.33,4.33,0,0,0-1.31,1.87v5.73a4,4,0,0,0,1.38,1.75,3.93,3.93,0,0,0,2.3.65,3.07,3.07,0,0,0,2.73-1.36,6.46,6.46,0,0,0,.92-3.66Z"/><path class="cls-9" d="M713.49,227.16a11.15,11.15,0,0,1-.2-1.11,7.46,7.46,0,0,1-.06-1,5.49,5.49,0,0,1-1.85,1.65,5.22,5.22,0,0,1-2.61.66,4,4,0,0,1-2.86-1,3.43,3.43,0,0,1-1-2.6,3.21,3.21,0,0,1,1.5-2.79,7,7,0,0,1,4.06-1h2.77v-1.68a2.71,2.71,0,0,0-.86-2.13,3.49,3.49,0,0,0-2.42-.78,6.07,6.07,0,0,0-1.91.29,4.22,4.22,0,0,0-1.44.78l-.12,1.7h-1.15l0-2.44a7.2,7.2,0,0,1,2.08-1.1,7.8,7.8,0,0,1,2.58-.42,5,5,0,0,1,3.34,1.07,3.78,3.78,0,0,1,1.26,3.05v6.24c0,.26,0,.5,0,.74s0,.47.07.7l1.26.08v1Zm-4.57-1a5,5,0,0,0,2.65-.71,4.06,4.06,0,0,0,1.66-1.81V221.1h-2.79a5.15,5.15,0,0,0-3,.8,2.34,2.34,0,0,0-1.14,2,2.11,2.11,0,0,0,.71,1.65A2.77,2.77,0,0,0,708.92,226.17Z"/><path class="cls-9" d="M717.65,209.92v-1h3.27V226l1.89.15v1h-5.16v-1l1.89-.15v-15.9Z"/><path class="cls-9" d="M724.6,209.92v-1h3.27v7.77a4.53,4.53,0,0,1,1.67-1.77,4.58,4.58,0,0,1,2.43-.63,3.79,3.79,0,0,1,3,1.24,5.89,5.89,0,0,1,1.06,3.86V226l1.89.15v1H732.8v-1l1.89-.15v-6.66a4.38,4.38,0,0,0-.81-3,2.86,2.86,0,0,0-2.22-.89,3.72,3.72,0,0,0-2.38.75,4.43,4.43,0,0,0-1.41,2V226l1.89.15v1H724.6v-1l1.89-.15v-15.9Z"/><path class="cls-9" d="M739.94,220.64a6.84,6.84,0,0,1,1.52-4.6,5.43,5.43,0,0,1,8.06,0,6.9,6.9,0,0,1,1.52,4.6V221a6.86,6.86,0,0,1-1.52,4.6,5,5,0,0,1-4,1.79,5,5,0,0,1-4-1.79,6.81,6.81,0,0,1-1.52-4.6Zm1.39.38a6.13,6.13,0,0,0,1.1,3.71,3.61,3.61,0,0,0,3.08,1.5,3.54,3.54,0,0,0,3-1.5,6.07,6.07,0,0,0,1.11-3.71v-.38a6,6,0,0,0-1.11-3.68,3.83,3.83,0,0,0-6.11,0,6.08,6.08,0,0,0-1.1,3.68Z"/><path class="cls-9" d="M416.38,255a3.92,3.92,0,0,0,2.43-.8,2.61,2.61,0,0,0,1.06-2.22h1.23l0,.07a3.5,3.5,0,0,1-1.38,2.95,5.2,5.2,0,0,1-3.36,1.18,4.72,4.72,0,0,1-3.95-1.78,7.09,7.09,0,0,1-1.41-4.56v-.49a7.1,7.1,0,0,1,1.41-4.55,4.72,4.72,0,0,1,3.94-1.78,6.26,6.26,0,0,1,2.65.55,5.21,5.21,0,0,1,2,1.5l.06,2.77h-1.18l-.22-2.25a3.87,3.87,0,0,0-1.39-1,4.67,4.67,0,0,0-1.88-.37,3.35,3.35,0,0,0-3,1.46,6.58,6.58,0,0,0-1,3.68v.49a6.51,6.51,0,0,0,1,3.7A3.34,3.34,0,0,0,416.38,255Z"/><path class="cls-9" d="M423.71,249.44a6.9,6.9,0,0,1,1.52-4.6,5.43,5.43,0,0,1,8.06,0,6.9,6.9,0,0,1,1.52,4.6v.38a6.86,6.86,0,0,1-1.52,4.6,5,5,0,0,1-4,1.79,5,5,0,0,1-4-1.79,6.86,6.86,0,0,1-1.52-4.6Zm1.39.38a6.13,6.13,0,0,0,1.1,3.71,3.61,3.61,0,0,0,3.08,1.5,3.54,3.54,0,0,0,3-1.5,6.07,6.07,0,0,0,1.11-3.71v-.38a6,6,0,0,0-1.11-3.68,3.83,3.83,0,0,0-6.11,0,6.08,6.08,0,0,0-1.1,3.68Z"/><path class="cls-9" d="M437.07,249.44a6.9,6.9,0,0,1,1.52-4.6,5.43,5.43,0,0,1,8.06,0,6.9,6.9,0,0,1,1.52,4.6v.38a6.86,6.86,0,0,1-1.52,4.6,5,5,0,0,1-4,1.79,5,5,0,0,1-4.05-1.79,6.86,6.86,0,0,1-1.52-4.6Zm1.39.38a6.13,6.13,0,0,0,1.1,3.71,3.61,3.61,0,0,0,3.08,1.5,3.54,3.54,0,0,0,3-1.5,6.07,6.07,0,0,0,1.11-3.71v-.38a6,6,0,0,0-1.11-3.68,3.83,3.83,0,0,0-6.11,0,6.08,6.08,0,0,0-1.1,3.68Z"/><path class="cls-9" d="M450.06,244.33v-1.05h3.05l.17,2a4.71,4.71,0,0,1,1.63-1.63,4.6,4.6,0,0,1,2.33-.57,4.09,4.09,0,0,1,3.53,1.82,8.35,8.35,0,0,1,1.28,4.86V250a7.4,7.4,0,0,1-1.28,4.55,4.17,4.17,0,0,1-3.51,1.69,5,5,0,0,1-2.31-.51,4.26,4.26,0,0,1-1.62-1.45v5.39l1.89.15v1h-5.16v-1l1.89-.15V244.48Zm10.6,5.4a7.39,7.39,0,0,0-1-3.94,3.1,3.1,0,0,0-2.79-1.52,3.6,3.6,0,0,0-2.27.67,4.06,4.06,0,0,0-1.32,1.75v6.1a3.87,3.87,0,0,0,1.37,1.64,4,4,0,0,0,2.25.6,3.14,3.14,0,0,0,2.76-1.39,6.38,6.38,0,0,0,1-3.67Z"/><path class="cls-9" d="M469.84,256.21a5,5,0,0,1-3.92-1.75,6.51,6.51,0,0,1-1.55-4.46v-.65a6.68,6.68,0,0,1,1.55-4.51,4.79,4.79,0,0,1,3.74-1.79,4.6,4.6,0,0,1,3.63,1.48,5.66,5.66,0,0,1,1.32,3.93v1.2h-8.86V250a5.67,5.67,0,0,0,1.13,3.58,3.59,3.59,0,0,0,3,1.45,6,6,0,0,0,2.21-.37,4.32,4.32,0,0,0,1.56-1l.59,1a4.93,4.93,0,0,1-1.78,1.19A6.89,6.89,0,0,1,469.84,256.21Zm-.18-12a3.32,3.32,0,0,0-2.58,1.19,5.18,5.18,0,0,0-1.23,3l0,.05h7.35v-.35a4.07,4.07,0,0,0-1-2.76A3.29,3.29,0,0,0,469.66,244.24Z"/><path class="cls-9" d="M480.1,243.28l.17,2.11v.15a4.45,4.45,0,0,1,1.45-1.83,3.69,3.69,0,0,1,2.19-.66,3,3,0,0,1,.52,0l.41.09-.19,1.31-1-.07a3.15,3.15,0,0,0-2.15.74,4.14,4.14,0,0,0-1.2,2.05v7.57l1.89.15v1H477v-1l1.89-.15v-10.3l-1.89-.15v-1.05h3.1Z"/><path class="cls-9" d="M495.3,256c-.09-.43-.16-.8-.2-1.11a7.46,7.46,0,0,1-.06-.95,5.49,5.49,0,0,1-1.85,1.65,5.22,5.22,0,0,1-2.61.66,4,4,0,0,1-2.85-1,3.4,3.4,0,0,1-1-2.6,3.22,3.22,0,0,1,1.49-2.79,7,7,0,0,1,4.06-1H495v-1.68a2.68,2.68,0,0,0-.86-2.13,3.49,3.49,0,0,0-2.42-.78,6.07,6.07,0,0,0-1.91.29,4.31,4.31,0,0,0-1.44.78l-.12,1.7h-1.14v-2.44a7.2,7.2,0,0,1,2.08-1.1,7.84,7.84,0,0,1,2.58-.42,5,5,0,0,1,3.34,1.07,3.78,3.78,0,0,1,1.26,3v6.24c0,.26,0,.5,0,.74a5.35,5.35,0,0,0,.08.7l1.25.08v1Zm-4.57-1a5,5,0,0,0,2.65-.71,4.12,4.12,0,0,0,1.66-1.81V249.9h-2.79a5.15,5.15,0,0,0-3,.8,2.33,2.33,0,0,0-1.13,2,2.1,2.1,0,0,0,.7,1.65A2.79,2.79,0,0,0,490.73,255Z"/><path class="cls-9" d="M502.93,240v3.24h2.76v1.15h-2.76v8.26a2.73,2.73,0,0,0,.45,1.77,1.49,1.49,0,0,0,1.18.52q.35,0,.66,0c.21,0,.46,0,.74-.1l.2,1a3.85,3.85,0,0,1-.84.24,6.74,6.74,0,0,1-1,.08,2.6,2.6,0,0,1-2.06-.84,4,4,0,0,1-.73-2.68v-8.26h-2.16v-1.15h2.16V240Z"/><path class="cls-9" d="M508.15,254.93l1.89-.15v-10.3l-1.89-.15v-1.05h3.27v11.5l1.89.15v1h-5.16Zm3.27-15.28H510v-2h1.38Z"/><path class="cls-9" d="M519.28,244.33l-1.56.11,3.13,8.35.4,1.49h.07l.44-1.49,3.09-8.35-1.57-.11v-1.05h4.22v1.05l-1.23.1L521.84,256h-1.11l-4.44-11.53-1.23-.1v-1.05h4.22Z"/><path class="cls-9" d="M528.86,249.44a6.9,6.9,0,0,1,1.52-4.6,5.43,5.43,0,0,1,8.06,0,6.9,6.9,0,0,1,1.52,4.6v.38a6.91,6.91,0,0,1-1.51,4.6,5.44,5.44,0,0,1-8.07,0,6.86,6.86,0,0,1-1.52-4.6Zm1.39.38a6.13,6.13,0,0,0,1.1,3.71,3.87,3.87,0,0,0,6.12,0,6.13,6.13,0,0,0,1.1-3.71v-.38a6,6,0,0,0-1.11-3.68,3.83,3.83,0,0,0-6.11,0,6.08,6.08,0,0,0-1.1,3.68Z"/><path class="cls-9" d="M544.24,255.4a5.39,5.39,0,0,1-.44,2.11,5,5,0,0,1-1.19,1.75l-.82-.61a6.54,6.54,0,0,0,.81-1.54,5.3,5.3,0,0,0,.26-1.69v-1.66h1.38Z"/><path class="cls-9" d="M561.2,256c-.09-.43-.15-.8-.19-1.11a7.46,7.46,0,0,1-.06-.95,5.43,5.43,0,0,1-1.86,1.65,5.17,5.17,0,0,1-2.61.66,4,4,0,0,1-2.85-1,3.43,3.43,0,0,1-1-2.6,3.2,3.2,0,0,1,1.5-2.79,7,7,0,0,1,4.06-1H561v-1.68a2.71,2.71,0,0,0-.86-2.13,3.5,3.5,0,0,0-2.42-.78,6.07,6.07,0,0,0-1.91.29,4.13,4.13,0,0,0-1.44.78l-.12,1.7h-1.15v-2.44a7.26,7.26,0,0,1,2.09-1.1,7.76,7.76,0,0,1,2.58-.42,4.94,4.94,0,0,1,3.33,1.07,3.75,3.75,0,0,1,1.27,3v6.24c0,.26,0,.5,0,.74a5.35,5.35,0,0,0,.07.7l1.25.08v1Zm-4.56-1a5,5,0,0,0,2.65-.71,4.12,4.12,0,0,0,1.66-1.81V249.9h-2.8a5.17,5.17,0,0,0-3,.8,2.35,2.35,0,0,0-1.13,2,2.14,2.14,0,0,0,.7,1.65A2.81,2.81,0,0,0,556.64,255Z"/><path class="cls-9" d="M565.39,254.93l1.89-.15v-10.3l-1.89-.15v-1.05h3.12l.13,2.22a4.33,4.33,0,0,1,4.06-2.45,3.86,3.86,0,0,1,3.11,1.26,6,6,0,0,1,1.06,3.93v6.54l1.89.15v1h-5.17v-1l1.89-.15v-6.53a4.6,4.6,0,0,0-.81-3.08,2.9,2.9,0,0,0-2.29-.9,3.57,3.57,0,0,0-2.38.78,4.38,4.38,0,0,0-1.33,2.07v7.66l1.89.15v1h-5.17Z"/><path class="cls-9" d="M584.13,240v3.24h2.76v1.15h-2.76v8.26a2.73,2.73,0,0,0,.45,1.77,1.51,1.51,0,0,0,1.19.52c.22,0,.44,0,.65,0s.46,0,.74-.1l.21,1a4,4,0,0,1-.85.24,6.63,6.63,0,0,1-1,.08,2.58,2.58,0,0,1-2-.84,4,4,0,0,1-.74-2.68v-8.26h-2.16v-1.15h2.16V240Z"/><path class="cls-9" d="M595,256.21a5,5,0,0,1-3.92-1.75A6.47,6.47,0,0,1,589.5,250v-.65a6.68,6.68,0,0,1,1.55-4.51,4.79,4.79,0,0,1,3.74-1.79,4.6,4.6,0,0,1,3.63,1.48,5.66,5.66,0,0,1,1.32,3.93v1.2h-8.86V250a5.67,5.67,0,0,0,1.13,3.58,3.61,3.61,0,0,0,3,1.45,6,6,0,0,0,2.2-.37,4.32,4.32,0,0,0,1.56-1l.6,1a5.06,5.06,0,0,1-1.79,1.19A6.87,6.87,0,0,1,595,256.21Zm-.19-12a3.32,3.32,0,0,0-2.58,1.19,5.11,5.11,0,0,0-1.22,3l0,.05h7.35v-.35a4.07,4.07,0,0,0-1-2.76A3.28,3.28,0,0,0,594.79,244.24Z"/><path class="cls-9" d="M611.33,247.2h-1.14l-.16-1.8a3.58,3.58,0,0,0-1.32-.85,5.14,5.14,0,0,0-1.82-.31,3.32,3.32,0,0,0-2.28.67,2,2,0,0,0-.76,1.55,1.86,1.86,0,0,0,.65,1.45,6.42,6.42,0,0,0,2.62,1,8.44,8.44,0,0,1,3.35,1.38,2.85,2.85,0,0,1,1.11,2.37,3.07,3.07,0,0,1-1.27,2.56,5.34,5.34,0,0,1-3.35,1,7.83,7.83,0,0,1-2.54-.39,6.16,6.16,0,0,1-2-1.11v-2.56h1.13l.2,1.81a3.18,3.18,0,0,0,1.41.81A6.13,6.13,0,0,0,607,255a3.83,3.83,0,0,0,2.37-.67,2,2,0,0,0,.87-1.62,2.08,2.08,0,0,0-.72-1.56,6,6,0,0,0-2.62-1.09,8.83,8.83,0,0,1-3.32-1.3,2.71,2.71,0,0,1-1.08-2.28,3.08,3.08,0,0,1,1.21-2.46,4.92,4.92,0,0,1,3.22-1,7,7,0,0,1,2.52.43,5.07,5.07,0,0,1,1.86,1.15Z"/><path class="cls-9" d="M628.61,254.13a4.39,4.39,0,0,1-1.61,1.54,4.79,4.79,0,0,1-2.32.54,4.15,4.15,0,0,1-3.52-1.7,7.37,7.37,0,0,1-1.27-4.54v-.24a8.35,8.35,0,0,1,1.27-4.86,4.07,4.07,0,0,1,3.54-1.82,4.37,4.37,0,0,1,2.27.56,4.56,4.56,0,0,1,1.6,1.58v-6.31l-1.89-.16v-1H630v17.1l1.89.15v1h-3.13ZM621.29,250a6.46,6.46,0,0,0,.91,3.66,3.07,3.07,0,0,0,2.74,1.36,3.89,3.89,0,0,0,2.24-.61,4.09,4.09,0,0,0,1.39-1.67v-6a4.29,4.29,0,0,0-1.34-1.76,3.54,3.54,0,0,0-2.26-.68,3,3,0,0,0-2.76,1.52,7.53,7.53,0,0,0-.92,3.94Z"/><path class="cls-9" d="M642.65,256c-.09-.43-.16-.8-.2-1.11s-.05-.63-.05-.95a5.62,5.62,0,0,1-1.86,1.65,5.17,5.17,0,0,1-2.61.66,4,4,0,0,1-2.85-1,3.43,3.43,0,0,1-1-2.6,3.2,3.2,0,0,1,1.5-2.79,7,7,0,0,1,4-1h2.78v-1.68a2.69,2.69,0,0,0-.87-2.13,3.47,3.47,0,0,0-2.42-.78,6,6,0,0,0-1.9.29,4.27,4.27,0,0,0-1.45.78l-.11,1.7H634.5v-2.44a7.2,7.2,0,0,1,2.08-1.1,7.84,7.84,0,0,1,2.58-.42,5,5,0,0,1,3.34,1.07,3.78,3.78,0,0,1,1.27,3v6.24c0,.26,0,.5,0,.74s0,.47.08.7l1.25.08v1Zm-4.57-1a5,5,0,0,0,2.66-.71,4.18,4.18,0,0,0,1.66-1.81V249.9h-2.8a5.15,5.15,0,0,0-3,.8,2.35,2.35,0,0,0-1.13,2,2.1,2.1,0,0,0,.7,1.65A2.79,2.79,0,0,0,638.08,255Z"/><path class="cls-9" d="M652.57,244.33v-1.05h3.12l.12,2.1a4.41,4.41,0,0,1,1.62-1.72,4.51,4.51,0,0,1,2.4-.61,3.62,3.62,0,0,1,3.78,2.87,4.92,4.92,0,0,1,1.62-2.1,4.15,4.15,0,0,1,2.55-.77,3.76,3.76,0,0,1,3.1,1.35,6.48,6.48,0,0,1,1.1,4.17v6.2l1.89.16v1h-5.18v-1l1.89-.16v-6.23a5.16,5.16,0,0,0-.82-3.31,2.83,2.83,0,0,0-2.28-1,3.1,3.1,0,0,0-2.5,1A5.08,5.08,0,0,0,663.9,248v.18a1.22,1.22,0,0,1,0,.21v6.42l1.89.15v1h-5.17v-1l1.89-.15v-6.24a5.13,5.13,0,0,0-.83-3.28,2.81,2.81,0,0,0-2.28-1,3.47,3.47,0,0,0-2.35.75,4,4,0,0,0-1.21,2v7.72l1.89.15v1h-5.17v-1l1.89-.15v-10.3Z"/><path class="cls-9" d="M675.49,254.93l1.9-.15v-10.3l-1.9-.15v-1.05h3.28v11.5l1.88.15v1h-5.16Zm3.28-15.28h-1.38v-2h1.38Z"/><path class="cls-9" d="M682.73,254.93l1.89-.15v-10.3l-1.89-.15v-1.05h3.12l.13,2.22a4.33,4.33,0,0,1,4.06-2.45,3.86,3.86,0,0,1,3.11,1.26,6,6,0,0,1,1.06,3.93v6.54l1.89.15v1h-5.17v-1l1.89-.15v-6.53a4.67,4.67,0,0,0-.8-3.08,2.93,2.93,0,0,0-2.29-.9,3.58,3.58,0,0,0-2.39.78,4.38,4.38,0,0,0-1.33,2.07v7.66l1.89.15v1h-5.17Z"/><path class="cls-9" d="M697.88,238.72v-1h3.27v7.77a4.47,4.47,0,0,1,4.1-2.4,3.78,3.78,0,0,1,3,1.24,5.83,5.83,0,0,1,1.06,3.86v6.63l1.89.15v1h-5.17v-1l1.89-.15v-6.66a4.38,4.38,0,0,0-.81-3,2.86,2.86,0,0,0-2.22-.89,3.72,3.72,0,0,0-2.38.75,4.43,4.43,0,0,0-1.41,2v7.75l1.89.15v1h-5.16v-1l1.89-.15v-15.9Z"/><path class="cls-9" d="M722,256c-.09-.43-.16-.8-.2-1.11a7.46,7.46,0,0,1-.06-.95,5.49,5.49,0,0,1-1.85,1.65,5.17,5.17,0,0,1-2.61.66,4,4,0,0,1-2.85-1,3.4,3.4,0,0,1-1-2.6,3.22,3.22,0,0,1,1.49-2.79,7,7,0,0,1,4.06-1h2.77v-1.68a2.68,2.68,0,0,0-.86-2.13,3.49,3.49,0,0,0-2.42-.78,6.12,6.12,0,0,0-1.91.29,4.31,4.31,0,0,0-1.44.78L715,247h-1.14v-2.44a7.2,7.2,0,0,1,2.08-1.1,7.84,7.84,0,0,1,2.58-.42,5,5,0,0,1,3.34,1.07,3.78,3.78,0,0,1,1.26,3v6.24c0,.26,0,.5,0,.74a5.35,5.35,0,0,0,.08.7l1.25.08v1Zm-4.57-1a5,5,0,0,0,2.66-.71,4.15,4.15,0,0,0,1.65-1.81V249.9H719a5.15,5.15,0,0,0-3,.8,2.33,2.33,0,0,0-1.13,2,2.1,2.1,0,0,0,.7,1.65A2.79,2.79,0,0,0,717.43,255Z"/><path class="cls-9" d="M410.65,273.13v-1.05h3.05l.17,2a4.71,4.71,0,0,1,1.63-1.63,4.62,4.62,0,0,1,2.33-.57,4.09,4.09,0,0,1,3.54,1.82,8.32,8.32,0,0,1,1.27,4.86v.24a7.4,7.4,0,0,1-1.27,4.55,4.19,4.19,0,0,1-3.52,1.69,5,5,0,0,1-2.31-.51,4.26,4.26,0,0,1-1.62-1.45v5.39l1.89.15v1.05h-5.16v-1.05l1.89-.15V273.28Zm10.6,5.4a7.39,7.39,0,0,0-.95-3.94,3.08,3.08,0,0,0-2.78-1.52,3.61,3.61,0,0,0-2.28.67,4.14,4.14,0,0,0-1.32,1.75v6.1a3.72,3.72,0,0,0,3.62,2.24,3.16,3.16,0,0,0,2.77-1.39,6.38,6.38,0,0,0,.94-3.67Z"/><path class="cls-9" d="M433.57,284.76a11.15,11.15,0,0,1-.2-1.11,7.46,7.46,0,0,1-.06-.95,5.49,5.49,0,0,1-1.85,1.65,5.22,5.22,0,0,1-2.61.66,4,4,0,0,1-2.86-1,3.43,3.43,0,0,1-1-2.6,3.2,3.2,0,0,1,1.5-2.79,7,7,0,0,1,4.06-1h2.77V276a2.71,2.71,0,0,0-.86-2.13A3.49,3.49,0,0,0,430,273a6.07,6.07,0,0,0-1.91.29,4.22,4.22,0,0,0-1.44.78l-.12,1.7h-1.15l0-2.44a7.2,7.2,0,0,1,2.08-1.1,7.8,7.8,0,0,1,2.58-.42,5,5,0,0,1,3.34,1.07,3.78,3.78,0,0,1,1.26,3.05v6.24c0,.26,0,.5,0,.74s0,.47.07.7l1.26.08v1Zm-4.57-1a5,5,0,0,0,2.65-.71,4.12,4.12,0,0,0,1.66-1.81V278.7h-2.79a5.15,5.15,0,0,0-3,.8,2.34,2.34,0,0,0-1.14,2,2.11,2.11,0,0,0,.71,1.65A2.77,2.77,0,0,0,429,283.77Z"/><path class="cls-9" d="M441,272.08l.18,2.11v.15a4.45,4.45,0,0,1,1.45-1.83,3.66,3.66,0,0,1,2.19-.66,2.78,2.78,0,0,1,.51,0l.42.09-.19,1.31-1-.07a3.14,3.14,0,0,0-2.15.74,4.14,4.14,0,0,0-1.2,2.05v7.57l1.89.15v1h-5.16v-1l1.89-.15v-10.3l-1.89-.15v-1.05H441Z"/><path class="cls-9" d="M451.11,268.84v3.24h2.76v1.15h-2.76v8.26a2.73,2.73,0,0,0,.45,1.77,1.51,1.51,0,0,0,1.19.52c.22,0,.44,0,.65,0s.46-.05.74-.1l.21,1a4,4,0,0,1-.85.24,6.63,6.63,0,0,1-1,.08,2.58,2.58,0,0,1-2.05-.84,4,4,0,0,1-.74-2.68v-8.26h-2.16v-1.15h2.16v-3.24Z"/><path class="cls-9" d="M456.33,283.73l1.89-.15v-10.3l-1.89-.15v-1.05h3.27v11.5l1.89.15v1h-5.16Zm3.27-15.28h-1.38v-2h1.38Z"/><path class="cls-9" d="M472.54,282.93a4.24,4.24,0,0,1-1.61,1.54,4.74,4.74,0,0,1-2.32.54,4.16,4.16,0,0,1-3.52-1.7,7.43,7.43,0,0,1-1.27-4.54v-.24a8.4,8.4,0,0,1,1.27-4.86,4.1,4.1,0,0,1,3.55-1.82,4.37,4.37,0,0,1,2.27.56,4.65,4.65,0,0,1,1.6,1.58v-6.31l-1.89-.16v-1h3.28v17.1l1.89.15v1h-3.13Zm-7.31-4.16a6.46,6.46,0,0,0,.91,3.66,3.06,3.06,0,0,0,2.74,1.36,3.85,3.85,0,0,0,2.23-.61,4,4,0,0,0,1.4-1.68v-6a4.42,4.42,0,0,0-1.34-1.75,3.55,3.55,0,0,0-2.27-.68,3,3,0,0,0-2.75,1.51,7.5,7.5,0,0,0-.92,3.95Z"/><path class="cls-9" d="M486.59,284.76c-.09-.43-.16-.8-.2-1.11a7.46,7.46,0,0,1-.06-.95,5.49,5.49,0,0,1-1.85,1.65,5.17,5.17,0,0,1-2.61.66,4,4,0,0,1-2.85-1,3.4,3.4,0,0,1-1-2.6,3.22,3.22,0,0,1,1.49-2.79,7,7,0,0,1,4.06-1h2.77V276a2.68,2.68,0,0,0-.86-2.13,3.49,3.49,0,0,0-2.42-.78,6.12,6.12,0,0,0-1.91.29,4.31,4.31,0,0,0-1.44.78l-.12,1.7h-1.14v-2.44a7.2,7.2,0,0,1,2.08-1.1,7.84,7.84,0,0,1,2.58-.42,5,5,0,0,1,3.34,1.07,3.78,3.78,0,0,1,1.26,3.05v6.24c0,.26,0,.5,0,.74a5.35,5.35,0,0,0,.08.7l1.25.08v1Zm-4.57-1a5,5,0,0,0,2.66-.71,4.15,4.15,0,0,0,1.65-1.81V278.7h-2.79a5.15,5.15,0,0,0-3,.8,2.33,2.33,0,0,0-1.13,2,2.1,2.1,0,0,0,.7,1.65A2.79,2.79,0,0,0,482,283.77Z"/><path class="cls-9" d="M502.34,285a5,5,0,0,1-3.92-1.75,6.47,6.47,0,0,1-1.56-4.46v-.65a6.68,6.68,0,0,1,1.55-4.51,4.79,4.79,0,0,1,3.74-1.79,4.6,4.6,0,0,1,3.63,1.48,5.66,5.66,0,0,1,1.32,3.93v1.2h-8.86v.34a5.67,5.67,0,0,0,1.13,3.58,3.62,3.62,0,0,0,3,1.45,6,6,0,0,0,2.2-.37,4.45,4.45,0,0,0,1.57-1l.59,1a5,5,0,0,1-1.79,1.19A6.84,6.84,0,0,1,502.34,285Zm-.19-12a3.32,3.32,0,0,0-2.58,1.19,5.11,5.11,0,0,0-1.22,3l0,0h7.35v-.35a4.07,4.07,0,0,0-1-2.76A3.28,3.28,0,0,0,502.15,273Z"/><path class="cls-9" d="M518.55,268.84v3.24h2.76v1.15h-2.76v8.26a2.73,2.73,0,0,0,.45,1.77,1.51,1.51,0,0,0,1.19.52c.22,0,.44,0,.65,0s.46-.05.74-.1l.21,1a4.13,4.13,0,0,1-.85.24,6.74,6.74,0,0,1-1,.08,2.6,2.6,0,0,1-2.06-.84,4,4,0,0,1-.73-2.68v-8.26H515v-1.15h2.16v-3.24Z"/><path class="cls-9" d="M532.53,284.76a11.15,11.15,0,0,1-.2-1.11,7.46,7.46,0,0,1-.06-.95,5.49,5.49,0,0,1-1.85,1.65,5.22,5.22,0,0,1-2.61.66,4,4,0,0,1-2.86-1,3.43,3.43,0,0,1-1-2.6,3.2,3.2,0,0,1,1.5-2.79,7,7,0,0,1,4.06-1h2.77V276a2.71,2.71,0,0,0-.86-2.13A3.5,3.5,0,0,0,529,273a6.07,6.07,0,0,0-1.91.29,4.13,4.13,0,0,0-1.44.78l-.12,1.7h-1.15v-2.44a7.26,7.26,0,0,1,2.09-1.1,7.76,7.76,0,0,1,2.58-.42,5,5,0,0,1,3.34,1.07,3.78,3.78,0,0,1,1.26,3.05v6.24c0,.26,0,.5,0,.74a5.35,5.35,0,0,0,.07.7l1.26.08v1Zm-4.57-1a5,5,0,0,0,2.65-.71,4.12,4.12,0,0,0,1.66-1.81V278.7h-2.79a5.2,5.2,0,0,0-3,.8,2.35,2.35,0,0,0-1.13,2,2.11,2.11,0,0,0,.71,1.65A2.77,2.77,0,0,0,528,283.77Z"/><path class="cls-9" d="M536.67,273.13v-1.05h3.12l.12,2.1a4.39,4.39,0,0,1,1.61-1.72,4.57,4.57,0,0,1,2.41-.61,3.62,3.62,0,0,1,3.78,2.87,4.82,4.82,0,0,1,1.61-2.1,4.18,4.18,0,0,1,2.56-.77,3.76,3.76,0,0,1,3.1,1.35,6.54,6.54,0,0,1,1.1,4.17v6.2l1.89.16v1h-5.18v-1l1.89-.16v-6.23a5.22,5.22,0,0,0-.82-3.31,2.85,2.85,0,0,0-2.28-1,3.1,3.1,0,0,0-2.5,1,5.08,5.08,0,0,0-1.08,2.66V277a1.22,1.22,0,0,1,0,.21v6.42l1.89.15v1h-5.17v-1l1.89-.15v-6.24a5.13,5.13,0,0,0-.83-3.28,2.83,2.83,0,0,0-2.28-1,3.47,3.47,0,0,0-2.35.75,4,4,0,0,0-1.21,2v7.72l1.89.15v1h-5.17v-1l1.89-.15v-10.3Z"/><path class="cls-9" d="M570.47,278.77a7.4,7.4,0,0,1-1.27,4.55,4.19,4.19,0,0,1-3.52,1.69,4.84,4.84,0,0,1-2.38-.56,4.26,4.26,0,0,1-1.61-1.6l-.15,1.91h-1.18V267.68l-1.89-.16v-1h3.27v7.6a4.53,4.53,0,0,1,1.6-1.65,4.42,4.42,0,0,1,2.32-.58,4.09,4.09,0,0,1,3.54,1.82,8.32,8.32,0,0,1,1.27,4.86Zm-1.4-.24a7.5,7.5,0,0,0-.93-3.95,3,3,0,0,0-2.74-1.51,3.59,3.59,0,0,0-2.34.72,4.26,4.26,0,0,0-1.32,1.87v5.73a4,4,0,0,0,1.38,1.75,4,4,0,0,0,2.31.65,3.06,3.06,0,0,0,2.72-1.36,6.46,6.46,0,0,0,.92-3.66Z"/><path class="cls-9" d="M578.36,285a5,5,0,0,1-3.92-1.75,6.47,6.47,0,0,1-1.56-4.46v-.65a6.68,6.68,0,0,1,1.55-4.51,4.79,4.79,0,0,1,3.74-1.79,4.6,4.6,0,0,1,3.63,1.48,5.66,5.66,0,0,1,1.32,3.93v1.2h-8.86v.34a5.67,5.67,0,0,0,1.13,3.58,3.62,3.62,0,0,0,3,1.45,6,6,0,0,0,2.2-.37,4.45,4.45,0,0,0,1.57-1l.59,1a5,5,0,0,1-1.79,1.19A6.87,6.87,0,0,1,578.36,285Zm-.19-12a3.32,3.32,0,0,0-2.58,1.19,5.11,5.11,0,0,0-1.22,3l0,0h7.35v-.35a4.07,4.07,0,0,0-1-2.76A3.28,3.28,0,0,0,578.17,273Zm1.31-5.8h1.71l0,.07-2.89,3.05h-1.24Z"/><path class="cls-9" d="M585.3,273.13v-1.05h3.12l.13,2.1a4.39,4.39,0,0,1,1.61-1.72,4.56,4.56,0,0,1,2.4-.61,3.64,3.64,0,0,1,3.79,2.87,4.82,4.82,0,0,1,1.61-2.1,4.16,4.16,0,0,1,2.56-.77,3.76,3.76,0,0,1,3.1,1.35,6.54,6.54,0,0,1,1.1,4.17v6.2l1.89.16v1h-5.19v-1l1.89-.16v-6.23a5.23,5.23,0,0,0-.81-3.31,2.85,2.85,0,0,0-2.28-1,3.1,3.1,0,0,0-2.5,1,5.09,5.09,0,0,0-1.09,2.66c0,.06,0,.12,0,.18s0,.12,0,.21v6.42l1.89.15v1h-5.18v-1l1.89-.15v-6.24a5.14,5.14,0,0,0-.82-3.28,2.83,2.83,0,0,0-2.28-1,3.45,3.45,0,0,0-2.35.75,4,4,0,0,0-1.21,2v7.72l1.89.15v1H585.3v-1l1.89-.15v-10.3Z"/><path class="cls-9" d="M622.82,282.93a4.32,4.32,0,0,1-1.61,1.54,4.76,4.76,0,0,1-2.32.54,4.16,4.16,0,0,1-3.52-1.7,7.37,7.37,0,0,1-1.27-4.54v-.24a8.32,8.32,0,0,1,1.27-4.86,4.09,4.09,0,0,1,3.54-1.82,4.41,4.41,0,0,1,2.28.56,4.65,4.65,0,0,1,1.6,1.58v-6.31l-1.89-.16v-1h3.28v17.1l1.89.15v1h-3.13Zm-7.32-4.16a6.54,6.54,0,0,0,.91,3.66,3.09,3.09,0,0,0,2.75,1.36,3.85,3.85,0,0,0,2.23-.61,4.08,4.08,0,0,0,1.4-1.68v-6a4.42,4.42,0,0,0-1.34-1.75,3.57,3.57,0,0,0-2.27-.68,3,3,0,0,0-2.75,1.51,7.5,7.5,0,0,0-.93,3.95Z"/><path class="cls-9" d="M637.42,282.68a4.27,4.27,0,0,1-1.62,1.72,4.59,4.59,0,0,1-2.41.61,3.8,3.8,0,0,1-3.11-1.36,6.61,6.61,0,0,1-1.11-4.22v-6.15l-1.56-.15v-1.05h2.94v7.37a5.51,5.51,0,0,0,.78,3.33,2.65,2.65,0,0,0,2.22,1,4.06,4.06,0,0,0,2.51-.7,3.79,3.79,0,0,0,1.32-1.95v-7.86l-1.79-.15v-1.05h3.18v11.5l1.68.15v1h-2.9Z"/><path class="cls-9" d="M645.49,272.08l.18,2.11v.15a4.45,4.45,0,0,1,1.45-1.83,3.69,3.69,0,0,1,2.19-.66,3,3,0,0,1,.52,0l.41.09-.19,1.31-1-.07a3.15,3.15,0,0,0-2.15.74,4.14,4.14,0,0,0-1.2,2.05v7.57l1.89.15v1H642.4v-1l1.89-.15v-10.3l-1.89-.15v-1.05h3.09Z"/><path class="cls-9" d="M660.7,284.76a11.15,11.15,0,0,1-.2-1.11,7.46,7.46,0,0,1-.06-.95,5.49,5.49,0,0,1-1.85,1.65A5.22,5.22,0,0,1,656,285a4,4,0,0,1-2.86-1,3.43,3.43,0,0,1-1-2.6,3.19,3.19,0,0,1,1.49-2.79,7,7,0,0,1,4.06-1h2.77V276a2.71,2.71,0,0,0-.86-2.13,3.49,3.49,0,0,0-2.42-.78,6.07,6.07,0,0,0-1.91.29,4.31,4.31,0,0,0-1.44.78l-.12,1.7h-1.15l0-2.44a7.2,7.2,0,0,1,2.08-1.1,7.84,7.84,0,0,1,2.58-.42,5,5,0,0,1,3.34,1.07,3.78,3.78,0,0,1,1.26,3.05v6.24c0,.26,0,.5,0,.74a5.35,5.35,0,0,0,.08.7l1.25.08v1Zm-4.57-1a5,5,0,0,0,2.65-.71,4.12,4.12,0,0,0,1.66-1.81V278.7h-2.79a5.15,5.15,0,0,0-3,.8,2.33,2.33,0,0,0-1.13,2,2.1,2.1,0,0,0,.7,1.65A2.79,2.79,0,0,0,656.13,283.77Z"/><path class="cls-9" d="M664.88,283.73l1.89-.15v-10.3l-1.89-.15v-1.05H668l.13,2.22a4.33,4.33,0,0,1,4.06-2.45,3.85,3.85,0,0,1,3.11,1.26,6,6,0,0,1,1.06,3.93v6.54l1.9.15v1h-5.18v-1l1.89-.15v-6.53a4.67,4.67,0,0,0-.8-3.08,2.92,2.92,0,0,0-2.29-.9,3.58,3.58,0,0,0-2.39.78,4.36,4.36,0,0,0-1.32,2.07v7.66l1.89.15v1h-5.18Z"/><path class="cls-9" d="M683.63,268.84v3.24h2.76v1.15h-2.76v8.26a2.73,2.73,0,0,0,.44,1.77,1.52,1.52,0,0,0,1.19.52l.66,0c.21,0,.45-.05.73-.1l.21,1a3.79,3.79,0,0,1-.85.24,6.61,6.61,0,0,1-1,.08,2.6,2.6,0,0,1-2.06-.84,4,4,0,0,1-.74-2.68v-8.26h-2.16v-1.15h2.16v-3.24Z"/><path class="cls-9" d="M694.47,285a5,5,0,0,1-3.92-1.75A6.47,6.47,0,0,1,689,278.8v-.65a6.68,6.68,0,0,1,1.55-4.51,4.8,4.8,0,0,1,3.74-1.79,4.6,4.6,0,0,1,3.63,1.48,5.66,5.66,0,0,1,1.32,3.93v1.2h-8.86v.34a5.62,5.62,0,0,0,1.14,3.58,3.59,3.59,0,0,0,3,1.45,6,6,0,0,0,2.2-.37,4.36,4.36,0,0,0,1.57-1l.59,1a5,5,0,0,1-1.79,1.19A6.84,6.84,0,0,1,694.47,285Zm-.19-12a3.32,3.32,0,0,0-2.58,1.19,5.17,5.17,0,0,0-1.22,3l0,0h7.35v-.35a4.07,4.07,0,0,0-1-2.76A3.28,3.28,0,0,0,694.28,273Z"/><path class="cls-9" d="M716.16,284.76a11.15,11.15,0,0,1-.2-1.11,7.46,7.46,0,0,1-.06-.95,5.49,5.49,0,0,1-1.85,1.65,5.22,5.22,0,0,1-2.61.66,4,4,0,0,1-2.86-1,3.43,3.43,0,0,1-1-2.6,3.2,3.2,0,0,1,1.5-2.79,7,7,0,0,1,4.06-1h2.77V276a2.71,2.71,0,0,0-.86-2.13,3.5,3.5,0,0,0-2.42-.78,6.07,6.07,0,0,0-1.91.29,4.13,4.13,0,0,0-1.44.78l-.12,1.7H708v-2.44a7.26,7.26,0,0,1,2.09-1.1,7.76,7.76,0,0,1,2.58-.42,5,5,0,0,1,3.34,1.07,3.78,3.78,0,0,1,1.26,3.05v6.24c0,.26,0,.5,0,.74a5.35,5.35,0,0,0,.07.7l1.26.08v1Zm-4.57-1a5,5,0,0,0,2.65-.71,4.12,4.12,0,0,0,1.66-1.81V278.7h-2.79a5.2,5.2,0,0,0-3,.8,2.35,2.35,0,0,0-1.13,2,2.11,2.11,0,0,0,.71,1.65A2.77,2.77,0,0,0,711.59,283.77Z"/><path class="cls-9" d="M726.07,273.13v-1.05h3.12l.13,2.1a4.39,4.39,0,0,1,1.61-1.72,4.51,4.51,0,0,1,2.4-.61,3.62,3.62,0,0,1,3.78,2.87,4.92,4.92,0,0,1,1.62-2.1,4.16,4.16,0,0,1,2.56-.77,3.77,3.77,0,0,1,3.1,1.35,6.54,6.54,0,0,1,1.09,4.17v6.2l1.89.16v1h-5.18v-1l1.89-.16v-6.23a5.16,5.16,0,0,0-.82-3.31,2.82,2.82,0,0,0-2.28-1,3.07,3.07,0,0,0-2.49,1,5,5,0,0,0-1.09,2.66,1.09,1.09,0,0,0,0,.18v6.63l1.89.15v1h-5.17v-1l1.89-.15v-6.24a5.13,5.13,0,0,0-.83-3.28,2.81,2.81,0,0,0-2.28-1,3.47,3.47,0,0,0-2.35.75,4.06,4.06,0,0,0-1.21,2v7.72l1.89.15v1h-5.17v-1l1.89-.15v-10.3Z"/><path class="cls-9" d="M749,283.73l1.89-.15v-10.3l-1.89-.15v-1.05h3.27v11.5l1.89.15v1H749Zm3.27-15.28h-1.38v-2h1.38Z"/><path class="cls-9" d="M756.24,283.73l1.89-.15v-10.3l-1.89-.15v-1.05h3.11l.13,2.22a4.33,4.33,0,0,1,4.06-2.45,3.85,3.85,0,0,1,3.11,1.26,6,6,0,0,1,1.07,3.93v6.54l1.89.15v1h-5.17v-1l1.88-.15v-6.53a4.61,4.61,0,0,0-.8-3.08,2.92,2.92,0,0,0-2.29-.9,3.54,3.54,0,0,0-2.38.78,4.31,4.31,0,0,0-1.33,2.07v7.66l1.89.15v1h-5.17Z"/><path class="cls-9" d="M771.38,267.52v-1h3.27v7.77a4.47,4.47,0,0,1,4.11-2.4,3.77,3.77,0,0,1,3,1.24,5.83,5.83,0,0,1,1.06,3.86v6.63l1.89.15v1h-5.17v-1l1.89-.15v-6.66a4.44,4.44,0,0,0-.8-3,2.87,2.87,0,0,0-2.23-.89,3.74,3.74,0,0,0-2.38.75,4.43,4.43,0,0,0-1.41,2v7.75l1.89.15v1h-5.16v-1l1.89-.15v-15.9Z"/><path class="cls-9" d="M795.5,284.76c-.09-.43-.15-.8-.19-1.11a7.46,7.46,0,0,1-.06-.95,5.52,5.52,0,0,1-1.86,1.65,5.17,5.17,0,0,1-2.61.66,4,4,0,0,1-2.85-1,3.43,3.43,0,0,1-1-2.6,3.2,3.2,0,0,1,1.5-2.79,7,7,0,0,1,4.06-1h2.77V276a2.69,2.69,0,0,0-.87-2.13A3.46,3.46,0,0,0,792,273a6,6,0,0,0-1.91.29,4.27,4.27,0,0,0-1.45.78l-.11,1.7h-1.15v-2.44a7.33,7.33,0,0,1,2.08-1.1,7.84,7.84,0,0,1,2.58-.42,5,5,0,0,1,3.34,1.07,3.75,3.75,0,0,1,1.27,3.05v6.24c0,.26,0,.5,0,.74a5.35,5.35,0,0,0,.07.7l1.25.08v1Zm-4.57-1a5,5,0,0,0,2.66-.71,4.18,4.18,0,0,0,1.66-1.81V278.7h-2.8a5.17,5.17,0,0,0-3,.8,2.35,2.35,0,0,0-1.13,2,2.14,2.14,0,0,0,.7,1.65A2.79,2.79,0,0,0,790.93,283.77Z"/><path class="cls-9" d="M414.56,314.61a4.41,4.41,0,0,1-.93,3,3.24,3.24,0,0,1-2.58,1.06,4.57,4.57,0,0,1-.67-.05,4.91,4.91,0,0,1-.63-.17l.15-1.18a2.61,2.61,0,0,0,.49.11,3.07,3.07,0,0,0,.57.06,2,2,0,0,0,1.63-.72,3.37,3.37,0,0,0,.58-2.12V302.08l-1.89-.15v-1.05h3.28Zm-.07-17.41H413.1v-1.92h1.39Z"/><path class="cls-9" d="M417.54,307a6.9,6.9,0,0,1,1.52-4.6,5.43,5.43,0,0,1,8.06,0,6.9,6.9,0,0,1,1.52,4.6v.38a6.86,6.86,0,0,1-1.52,4.6,5,5,0,0,1-4,1.79,5,5,0,0,1-4.05-1.79,6.86,6.86,0,0,1-1.52-4.6Zm1.39.38a6.13,6.13,0,0,0,1.1,3.71,3.61,3.61,0,0,0,3.08,1.5,3.54,3.54,0,0,0,3-1.5,6.07,6.07,0,0,0,1.11-3.71V307a6,6,0,0,0-1.11-3.68,3.83,3.83,0,0,0-6.11,0,6.08,6.08,0,0,0-1.1,3.68Z"/><path class="cls-9" d="M433.9,300.88l.18,2.11v.15a4.45,4.45,0,0,1,1.45-1.83,3.69,3.69,0,0,1,2.19-.66,2.78,2.78,0,0,1,.51,0l.42.09-.19,1.31-1-.07a3.15,3.15,0,0,0-2.15.74,4.14,4.14,0,0,0-1.2,2.05v7.57l1.89.15v1h-5.16v-1l1.89-.15v-10.3l-1.89-.15v-1.05h3.09Z"/><path class="cls-9" d="M440.19,312.53l1.89-.15v-10.3l-1.89-.15v-1.05h3.12l.13,2.22a4.3,4.3,0,0,1,4.05-2.45,3.83,3.83,0,0,1,3.11,1.26,6,6,0,0,1,1.07,3.93v6.54l1.89.15v1h-5.17v-1l1.89-.15v-6.53a4.6,4.6,0,0,0-.81-3.08,2.9,2.9,0,0,0-2.29-.9,3.55,3.55,0,0,0-2.38.78,4.32,4.32,0,0,0-1.33,2.06v7.67l1.89.15v1h-5.17Z"/><path class="cls-9" d="M464.4,313.56c-.09-.43-.15-.8-.19-1.11a7.46,7.46,0,0,1-.06-.95,5.53,5.53,0,0,1-1.86,1.65,5.17,5.17,0,0,1-2.61.66,4,4,0,0,1-2.85-1,3.43,3.43,0,0,1-1-2.6,3.2,3.2,0,0,1,1.5-2.79,7,7,0,0,1,4.06-1h2.77v-1.68a2.69,2.69,0,0,0-.87-2.13,3.46,3.46,0,0,0-2.41-.78,6,6,0,0,0-1.91.29,4.13,4.13,0,0,0-1.44.78l-.12,1.7h-1.15v-2.44a7.33,7.33,0,0,1,2.08-1.1,7.84,7.84,0,0,1,2.58-.42,5,5,0,0,1,3.34,1.06,3.79,3.79,0,0,1,1.27,3.06V311c0,.26,0,.5,0,.74a5.35,5.35,0,0,0,.07.7l1.25.08v1Zm-4.57-1a5,5,0,0,0,2.66-.71,4.12,4.12,0,0,0,1.66-1.81V307.5h-2.8a5.24,5.24,0,0,0-3,.79,2.38,2.38,0,0,0-1.13,2,2.14,2.14,0,0,0,.7,1.65A2.8,2.8,0,0,0,459.83,312.57Z"/><path class="cls-9" d="M477.57,311.73a4.34,4.34,0,0,1-1.62,1.54,4.74,4.74,0,0,1-2.32.54,4.16,4.16,0,0,1-3.52-1.7,7.45,7.45,0,0,1-1.26-4.54v-.24a8.4,8.4,0,0,1,1.26-4.86,4.1,4.1,0,0,1,3.55-1.82,4.37,4.37,0,0,1,2.27.56,4.56,4.56,0,0,1,1.6,1.58v-6.31l-1.89-.16v-1h3.28v17.1l1.89.15v1h-3.13Zm-7.32-4.16a6.46,6.46,0,0,0,.91,3.66,3.07,3.07,0,0,0,2.74,1.36,3.85,3.85,0,0,0,2.23-.61,4,4,0,0,0,1.4-1.68v-6a4.33,4.33,0,0,0-1.34-1.75,3.55,3.55,0,0,0-2.27-.68,3,3,0,0,0-2.75,1.51,7.6,7.6,0,0,0-.92,3.95Z"/><path class="cls-9" d="M491.61,313.56c-.09-.43-.16-.8-.2-1.11a7.46,7.46,0,0,1-.05-.95,5.73,5.73,0,0,1-1.86,1.65,5.17,5.17,0,0,1-2.61.66,4,4,0,0,1-2.85-1,3.4,3.4,0,0,1-1-2.6,3.22,3.22,0,0,1,1.49-2.79,7.06,7.06,0,0,1,4.06-1h2.78v-1.68a2.69,2.69,0,0,0-.87-2.13,3.47,3.47,0,0,0-2.42-.78,6,6,0,0,0-1.9.29,4.27,4.27,0,0,0-1.45.78l-.11,1.7h-1.15v-2.44a7.2,7.2,0,0,1,2.08-1.1,7.84,7.84,0,0,1,2.58-.42,5,5,0,0,1,3.34,1.06,3.82,3.82,0,0,1,1.27,3.06V311c0,.26,0,.5,0,.74a5.35,5.35,0,0,0,.08.7l1.25.08v1Zm-4.57-1a5,5,0,0,0,2.66-.71,4.18,4.18,0,0,0,1.66-1.81V307.5h-2.8a5.22,5.22,0,0,0-3,.79,2.38,2.38,0,0,0-1.13,2,2.1,2.1,0,0,0,.7,1.65A2.79,2.79,0,0,0,487,312.57Z"/><path class="cls-9" d="M498.23,313.56h-1.64v-1.95h1.64Zm-.14-5.6h-1.38V296.5h1.38Z"/><g class="cls-10"><path class="cls-3" d="M142.71,149.1a11.16,11.16,0,0,1,8,3.69,18.73,18.73,0,0,1,4.84-.65,17.6,17.6,0,0,1,13.13,6c14.42,5.47,8.69,14.25,8.36,14.74l.16,0s8.46,6,5.56,8.91c0,0,5.22,6.54,1.05,10.06a4.9,4.9,0,0,1-1.52.77c11.86,18.66,18.93,51.61,14.26,78.78-.92,5.37-7,9.24-23.4,9.24h0a85.83,85.83,0,0,1-15.86-1.42c.16,1.27.34,2.64.53,4h0c.82,5.92,2,12.64,3.32,13.63,8.37,6.35,20.83,9,27.84,10l10.15.95a24.91,24.91,0,0,1,5.27,7.82h0l59.23,55.56,46.75-39.95S313.45,319,330.75,319a43.67,43.67,0,0,1,7.11.62c23.6,3.86-2.13,6.68-2.13,6.68s2.67-.23,6.61-.23c5.91,0,14.67.51,21.56,3l3.56,4.39-8.17,8.26s-18.84,2.63-29.63,2.63c-3.42,0-6-.27-7-1a.7.7,0,0,0-.42-.12c-6.42,0-59.22,50.32-59.22,50.32l-54.37-44.43c.8,10.9,1.37,22.55,1.25,33.32a347.74,347.74,0,0,1-3,41.58c2.38,1.7.66,5.31.66,5.31L212,465.07c0,.27,0,.53-.06.79,5.52,24.83,4.58,66,4.58,66a45,45,0,0,0-4.67-.71l0,3h0c-.12,20.8-.06,50.84,1.17,57.69,1.91,10.72,0,16,0,16s5.21,83.4,5.21,84.05S225.53,702,225.53,702s9.65,7.68,17.17,13.77h0s4.52,1.19,6.29,2.69a6.25,6.25,0,0,1,1.9,4c.5.34,1.32.91,2.28,1.6a23.87,23.87,0,0,0,6.52,1.23c1,1,0,2.18-1.34,3.09.75.81,1.2,1.52,1.07,2-.49,1.83-7.48,9.26-20.12,9.26-.72,0-1.45,0-2.19-.07-13.28-.88-31.68-15.17-33.18-19.15a12,12,0,0,1,.19-8c0-3.4,2-7.46,3.15-9.49,1.74-3.17,2.95-12.13,2.95-12.13-19.12-67.82-8.17-77.36-10.26-82.28-1.32-3.13-13.14-47.53-21.57-79.47h0l0-.1-1.44-5.45a22.43,22.43,0,0,1-4.36-2.6,136.66,136.66,0,0,1-23,9.19l-25.22,63.9s-4.31,16.08-9.44,21.26a230,230,0,0,1-12.7,37.07C93.55,671.93,89.72,699,89.72,699s6.23,16,7,26c7.33,10.14,13.91,22.65,5.18,26.33a49.56,49.56,0,0,1-19,3.38c-10.52,0-19.95-2.49-22.15-4.72-3.53-3.56,6.5-30.63,6.5-30.63.31-2.46,1-4.83,2.41-5.83,3.48-2.46,7.65-8.44,7.65-8.44s-1.3-3.51,2.35-8.25,9-35.17,9-39.16S83.81,623.91,100,612.19c0,0,1.86-38,6.61-65.55h0c.51-3.12,1.07-6.1,1.68-8.88-5,.42-8,.48-8,.48s4.82-13.58,11-31c-5.25-.51-1.79-8.75-1.79-8.75a42.41,42.41,0,0,0,6.16-3.66l2-5.73c-1.74-4.32,2.6-17.78,2.6-17.78l-15.94-12.15L58.08,423.84s37.21-88.67,38.72-90.2c1-1,8.16-5.24,13.12-8.12h0c5.18-5.24,16.32-9.39,16.32-9.39s10.61-12.12,12.87-14.41,1.21-8.6,1.21-8.6l-5.8-22.55c-10.26-6.51-14.31-13.77-14.31-13.77a5.14,5.14,0,0,1-3.78,1.54c-3.37,0-6.77-2.59-6.77-2.59s-14.72-14.88-10.08-21.91a4.37,4.37,0,0,1,3.82-2.12c3,0,6.64,2.52,9.19,4.69-5.22-4.61-8-5.23-9.15-5.23l-.35,0-.09.06-.07,0-.11,0,0-.11c-1.1-.55-6-3.28-6.45-7.91-8.32-2.64-6.71-7.32-6.71-7.32-8-5.5,0-14.35,0-14.35-3.57-3.6-.81-8.84-.81-8.84-4.18-6,1-13.35,1-13.35.58-6.45,10.14-10.25,10.14-10.25.76-3.22,4.7-4.75,4.7-4.75a7,7,0,0,1,6.42-4c.34,0,.53,0,.53,0,3.47-7.57,16.47-8.3,21.34-8.3,1.15,0,1.85,0,1.85,0a12.93,12.93,0,0,1,7.89-3M129.62,455c2.08-6,3.89-11.25,5.24-15.26-2.15-4.36,1.22-6.32,2.23-6.79.12-.39.22-.71.28-.94,2.08-7.73-17.56-45.66-17.56-45.66l-16.59-10.5L80,420.07l37.18,26.18L129.62,455M250.38,722.09h0m-107.67-579h0a18,18,0,0,0-9.72,3h0c-7.07,0-18.92,1.2-24.82,8.59a12.73,12.73,0,0,0-7.74,5.14,14.56,14.56,0,0,0-5,4.82c-3.55,1.85-9.82,6-11.28,12.53-2.22,3.78-4.26,10.06-1.86,16a14.09,14.09,0,0,0,.24,8.13,16.72,16.72,0,0,0-2.36,10,12.8,12.8,0,0,0,3.5,7.39,10.85,10.85,0,0,0,1,2.89,13.77,13.77,0,0,0,6.71,6.13,15.28,15.28,0,0,0,2.54,4c-2.49,5-1.14,11.38,4,19A70.8,70.8,0,0,0,105.4,260l.29.3.34.25c.83.64,5.26,3.82,10.4,3.82a12.1,12.1,0,0,0,1.72-.13,54.85,54.85,0,0,0,11.13,10.09l5.16,20a13.1,13.1,0,0,1,0,3.61c-2.43,2.55-9.13,10.17-11.75,13.16-3.38,1.37-11.43,4.94-16.42,9.62-12.07,7-13,8-13.74,8.72-1.13,1.14-1.75,1.77-21.18,47.55C62,399.08,52.64,421.3,52.55,421.52l-1.8,4.28,3.69,2.81,46.31,35.29,12.65,9.64c-1.31,4.79-2.49,10.74-1.9,15.14l-.8,2.27A38.79,38.79,0,0,1,107,493l-2,1-.89,2.1c-.75,1.81-3,8.07-.2,12.78.12.19.24.38.37.56-5.42,15.35-9.46,26.75-9.46,26.75l-2.9,8.17,8.67-.17H101c-.06.32-.11.65-.17,1l-.15.48v.46c-4,23.58-6,53.93-6.47,63.09-14.44,13-12.36,37.93-11.66,46.4.07.79.15,1.76.15,2-.09,4.47-5.29,31.47-7.84,35.54a16.56,16.56,0,0,0-3.78,10.2,30.53,30.53,0,0,1-4.88,5.2c-2.56,1.81-4.13,4.84-4.8,9.27-.68,1.88-2.72,7.63-4.49,13.79-3.76,13.14-3.87,19-.42,22.52,4.22,4.27,16.48,6.5,26.41,6.5a55.45,55.45,0,0,0,21.32-3.85,12.19,12.19,0,0,0,7.33-8.09c1.78-6.38-1.09-14.65-9-26-1-8.81-5.08-20.31-6.61-24.43.93-5.83,4.73-27.57,11.84-43.67A239.58,239.58,0,0,0,120.42,618c5.11-6.42,8.75-18.87,9.67-22.21l24-60.92a143.91,143.91,0,0,0,17.75-7l.68,2.56,0,.1c17.9,67.78,20.87,77.6,21.64,79.74,0,.49-.19,1.41-.32,2.17-1.32,8-4.39,26.55,10.19,78.7-.59,3.85-1.51,7.79-2.09,8.84-2.36,4.29-3.63,8-3.85,11.26a17.75,17.75,0,0,0,.15,11.26c2,5.21,11.62,11.77,14.53,13.65,5,3.24,14.74,8.76,23.87,9.37.86.06,1.73.08,2.59.08,14.79,0,24.59-8.78,25.91-13.7a6.23,6.23,0,0,0,.18-2.57,7.48,7.48,0,0,0,.69-2.44A7.28,7.28,0,0,0,264,721l-1.66-1.67-2.35-.1a21.28,21.28,0,0,1-3.79-.57,11.28,11.28,0,0,0-3.3-4.85,22.24,22.24,0,0,0-7.33-3.53c-6.23-5-13.6-10.91-15.69-12.58-2.18-2.84-4.6-6.09-5.71-7.69-.27-4.55-1.28-21-5.07-81.63.61-2.59,1.49-8.51-.15-17.66-.39-2.19-1.26-11.66-1.1-52.22l4.55,1.45.18-8c0-1.7.87-41.24-4.53-66.54v-.05l0-.53-.07-.53-4.26-34.28a10.78,10.78,0,0,0-.52-7.61,358.59,358.59,0,0,0,2.74-39.88c.07-6.08-.07-12.72-.42-20.06l43.74,35.75,4.1,3.35,3.83-3.66c21.69-20.66,47.84-44,55.14-48.25a30,30,0,0,0,7.34.67c11.08,0,29.67-2.58,30.46-2.69l2-.28,1.42-1.44,8.18-8.26,3.78-3.82-3.39-4.18-3.56-4.39L367.51,324l-1.54-.57a56.46,56.46,0,0,0-12.51-2.79c-.63-1.82-2.23-3.71-5.81-5a54.43,54.43,0,0,0-8.82-2,50.35,50.35,0,0,0-8.08-.7c-17.3,0-23.57,10.25-25.49,14.78l-41.48,35.44-54.45-51.07a30.75,30.75,0,0,0-6-8.47l-1.53-1.54-2.17-.21-10-.94c-6-.89-16.69-3.09-24-8.14a49.78,49.78,0,0,1-1.37-6.53c2.89.27,5.84.4,8.83.4,6.66,0,26.88,0,29.33-14.23,4.33-25.21-.91-57.29-12.52-78.6,2.4-3.93,1.64-8.82-.6-12.92a8.08,8.08,0,0,0,0-1.3c-.3-3.38-2.68-6.44-5.15-8.75a13.53,13.53,0,0,0-.36-6.69c-1.49-4.71-5.39-8.43-11.62-11.07a23.82,23.82,0,0,0-16.65-7,25.07,25.07,0,0,0-3.1.2,16.57,16.57,0,0,0-9.73-3.24Zm-55,275.1,17.78-33.77,9.71,6.15c1.47,2.89,4.92,9.8,8.28,17.28,6.21,13.83,7.64,19.62,8,21.78a10.56,10.56,0,0,0-2.72,4.12,10.37,10.37,0,0,0-.21,6.06c-.58,1.69-1.23,3.6-2,5.71l-6-4.19L87.72,418.2Z"/><path class="cls-5" d="M204.36,315.69l59.23,55.56,46.75-39.95s3.93-15.58,27.52-11.71-2.13,6.68-2.13,6.68,16.69-1.41,28.17,2.81l3.56,4.39-8.17,8.26s-32.69,4.57-36.6,1.67S263,393.6,263,393.6l-54.37-44.43L198,340Z"/><path class="cls-5" d="M133.72,267.46l6.6,25.66s1.05,6.32-1.21,8.6-12.87,14.41-12.87,14.41l-5.91,11.77,34.25,19.68,40.86-11.07-1.21-29s-20.93-1.34-33.13-10.6c-2.4-1.82-4.43-23-4.43-23Z"/><path class="cls-11" d="M157.8,283.29c-.65-4.73-1.17-9.5-1.17-9.5l-23-6.5,1.84,7.14s7.19,4.74,9.42,5.73A43.25,43.25,0,0,0,157.8,283.29Z"/><path class="cls-5" d="M114.67,322.77S98.3,332.12,96.8,333.64s-38.72,90.2-38.72,90.2l46.31,35.29,15.94,12.15s-5,15.64-2.09,18.62-8.69,8.55-8.69,8.55-4.52,10.78,4.63,8.44,21.56-8.55,21.56-8.55l6.15-34.67-24.75-17.42L80,420.07l23.26-44.19,16.59,10.5,20.34-15-14.61-36.78-6.26-13.82Z"/><path class="cls-5" d="M120.21,256.8s13.28,23.89,52.92,23.89c16.4,0,22.49-3.86,23.41-9.24,5.81-33.81-6.55-76.56-23.7-89.61-15-11.45-68.39,31.86-68.39,31.86l11.36,25.77s-11.6-12.65-16.23-5.63,10.08,21.91,10.08,21.91S116.27,260.79,120.21,256.8Z"/><path class="cls-5" d="M157.89,509l-33.51,84.89s-4.31,16.08-9.44,21.26a230,230,0,0,1-12.7,37.07C93.55,671.93,89.72,699,89.72,699s7.92,20.3,7,29.43c0,0,7.56,10.54,4.52,16.61s-15,2.46-15,2.46-19.91,2.63-22.87-2.38,3.74-18.44,3.74-18.44-1-10.72,2.52-13.18,7.65-8.44,7.65-8.44-1.3-3.51,2.35-8.25,9-35.17,9-39.16S83.81,623.91,100,612.19c0,0,3.94-80.82,15.07-92.07s42.78-17.92,42.78-17.92Z"/><path class="cls-12" d="M157.89,509l-10.71,27.14s-14.82,6.69-18.57,7.62c-2.79.69-22.62,6.88-22,2.84,2.08-12.63,5-23,8.45-26.51,11.13-11.24,42.78-17.92,42.78-17.92Z"/><path class="cls-5" d="M169.83,496.46s28,107.07,30.13,112-8.86,14.46,10.26,82.28c0,0-1.21,9-2.95,12.13s-5.74,11.24-.7,14S228,733.78,234.92,735s20-4.92,20-4.92,7-2.63,4.78-4.83c0,0-6.34-.26-8.43-2.37S225.53,702,225.53,702s-7.31-9.49-7.31-10.13S213,607.8,213,607.8s1.91-5.27,0-16-1-78.24-1-78.24Z"/><path class="cls-12" d="M169.83,496.46s6.6,25.11,8.56,32.52c.75,2.85,33.45,5.14,33.45,5.14l.18-20.55Z"/><path class="cls-13" d="M169.83,517.67c5.42,10.86,43.55,13.16,46.71,14.17,0,0,1-43.64-5.09-68.16S169.83,517.67,169.83,517.67Z"/><path class="cls-14" d="M123.46,247.2c6.72,2.81.92-9.37.92-9.37s-.63-12.22-4-14.29a49.49,49.49,0,0,1-7.47-6.17L177,172.93s6.49-9.13-8.34-14.76a17.56,17.56,0,0,0-18-5.38s-6.49-7.85-15.88-.65c0,0-18.9-1.11-23.19,8.26a7,7,0,0,0-6.95,4s-3.94,1.53-4.7,4.75c0,0-9.56,3.8-10.14,10.25,0,0-5.22,7.38-1,13.35,0,0-2.76,5.24.81,8.84,0,0-8,8.85,0,14.35,0,0-2,5.74,9.74,8.08l3.47,7.26s3.35-1.53,13,8.21Z"/><ellipse class="cls-15" cx="152.23" cy="223.51" rx="3.12" ry="4.3" transform="translate(-48.44 42.24) rotate(-13.65)"/><path class="cls-15" d="M148.22,220.36h-.06a1.51,1.51,0,0,1-1.44-1.56c0-.23.28-5.66,3.94-7.62,2.3-1.24,5.23-.8,8.71,1.3a1.5,1.5,0,1,1-1.55,2.57c-1.73-1-4.13-2.1-5.74-1.23-1.8,1-2.32,4.08-2.36,5.1A1.51,1.51,0,0,1,148.22,220.36Z"/><ellipse class="cls-15" cx="180.56" cy="216.57" rx="3.12" ry="4.3" transform="translate(-46.01 48.72) rotate(-13.65)"/><path class="cls-15" d="M177.25,213a1.39,1.39,0,0,1-.4-.06,1.49,1.49,0,0,1-1-1.84c.06-.22,1.52-5.44,5.52-6.54,2.51-.69,5.28.4,8.21,3.24a1.5,1.5,0,1,1-2.08,2.15c-1.46-1.4-3.56-3-5.33-2.49-2,.53-3.13,3.38-3.43,4.43A1.49,1.49,0,0,1,177.25,213Z"/><path class="cls-16" d="M156.61,252c-.38-.41,23,1.48,31.88-5.16,0,0,1.76,17.95-6.2,19.92C174.09,268.77,164.64,265.46,156.61,252Z"/><g class="cls-17"><path class="cls-18" d="M155.08,254.81s21.85,6.3,31.55-3.51l-1.22-4.47-32,2.18Z"/><path class="cls-19" d="M158.93,262.89s7-6.85,18.2-2.28,0,12.83,0,12.83Z"/></g><path class="cls-11" d="M177.49,268.4c-12.94,0-21.66-15.75-21.76-15.94l-.85-1.56,1.78.09c.22,0,21.77,1.06,31.29-5a1,1,0,0,1,1.08,1.69c-8.47,5.39-25,5.5-30.6,5.37,3,4.59,12.72,17.49,25.22,12a1,1,0,0,1,.8,1.83A17.1,17.1,0,0,1,177.49,268.4Z"/><path class="cls-11" d="M115.28,254.11s-.34-15.38-12.08-19.07"/><path class="cls-11" d="M103.22,375.88s10-13.58,8.7-11.52c-7.34,11.48,18.8,24.74,24.93,17.66,0,0-6.09,7.85-17,4.36Z"/><path class="cls-20" d="M126.24,316.13s-11.14,4.15-16.32,9.39c0,0,31.22,45.75,9.89,60.86,0,0,19.64,37.93,17.56,45.66s-37,106.19-37,106.19S208.18,536.29,212,465.07l-5.1-41a347.74,347.74,0,0,0,3-41.58c.22-20-1.94-43-3.53-58.69a25.5,25.5,0,0,0-7.31-15.93l-10.15-.95s8,27.13-10.54,29.7C168.41,338,144.32,341.27,126.24,316.13Z"/><g class="cls-21"><path class="cls-22" d="M104.39,540.89S212.19,539,216,467.73Z"/></g><path class="cls-20" d="M126.24,316.13s-11.14,4.15-16.32,9.39c0,0,31.22,45.75,9.89,60.86,0,0,19.64,37.93,17.56,45.66s-37,106.19-37,106.19S208.18,536.29,212,465.07l-5.1-41a347.74,347.74,0,0,0,3-41.58c.22-20-1.94-43-3.53-58.69a25.5,25.5,0,0,0-7.31-15.93l-10.15-.95s8,27.13-10.54,29.7C168.41,338,144.32,341.27,126.24,316.13Z"/><path class="cls-5" d="M104.39,459.13l15.94,12.15s-5,15.64-2.09,18.62-8.69,8.55-8.69,8.55-4.52,10.78,4.63,8.44,21.56-8.55,21.56-8.55L141,468.93s1.6-5.77-4.9-9.63c-5-3-18.92-13.05-18.92-13.05Z"/><path class="cls-4" d="M135,440s56.84,7.65,72.61-10.62c0,0,1.72-3.61-.66-5.31.34,3.38-26.7,18.09-69.55,8.79C137.37,432.86,132.19,434.73,135,440Z"/><ellipse class="cls-23" cx="182.19" cy="437.24" rx="13.26" ry="13.4"/><g class="cls-24"><path class="cls-25" d="M119.24,178.09s-5.69,7,1.52,11.62c2.53,1.63-7.47,9.49-7.47,9.49l-4.05,22.93s5.22-2.12,8.7-2.12l18.3,21.18L124.5,248.6,87.06,223.1,62.14,174.46,94.25,145l35.12-8.26L123.2,149.1s-14.91,9.21-9.22,15.84C110.42,167.47,109.72,177.41,119.24,178.09Z"/></g><path class="cls-9" d="M103,231.26s-6.73-3-6.73-8.66,26.2-58.8,80.92-49.67c0,0,8.46,6,5.56,8.91,0,0,5.22,6.54,1.05,10.06S159.33,190.26,103,231.26Z"/><path class="cls-26" d="M106,218.86s35-43.12,72.45-37.49C178.4,181.37,143.51,183.26,106,218.86Z"/><path class="cls-27" d="M183.62,447.63c-2,0-6.11-.39-8.84-3.42-2.39-2.66-3.06-6.59-2-11.69a1.5,1.5,0,0,1,2.94.62c-.88,4.11-.46,7.16,1.26,9.06,2.58,2.87,7.33,2.41,7.37,2.4a1.5,1.5,0,1,1,.31,3C184.63,447.59,184.24,447.63,183.62,447.63Z"/><path class="cls-28" d="M190.2,443.09l-.33,0a1.5,1.5,0,0,1-1.14-1.79c.9-4.1.49-7.15-1.21-9.07-2.57-2.88-7.31-2.44-7.36-2.44a1.5,1.5,0,1,1-.3-3c.26,0,6.33-.58,9.9,3.43,2.38,2.67,3,6.61,1.9,11.7A1.49,1.49,0,0,1,190.2,443.09Z"/><path class="cls-11" d="M170.17,247.06a1.5,1.5,0,0,1,0-3c2.91,0,10.91-2.59,14.87-4-1.29-12.64-9.24-22.05-13.95-26.6a1.5,1.5,0,1,1,2.08-2.16c5.17,5,14,15.48,15,29.68l.08,1.13-1.06.39C185.86,243,174.48,247.06,170.17,247.06Z"/><path class="cls-11" d="M329.05,332.28a5.72,5.72,0,0,1-1-.09,1.5,1.5,0,1,1,.52-2.95c2.44.44,5.09-2.61,5.91-3.82A1.5,1.5,0,0,1,337,327.1C336.82,327.33,333.42,332.28,329.05,332.28Z"/><path class="cls-11" d="M346.62,341.44a1.06,1.06,0,0,1-.34-.06,1,1,0,0,1-.6-1.28c1.26-3.48-2.62-9.07-4.22-10.92a1,1,0,0,1,1.52-1.31c.26.31,6.5,7.62,4.58,12.91A1,1,0,0,1,346.62,341.44Z"/></g></svg>