<svg id="Camada_1" data-name="Camada 1" xmlns="http://www.w3.org/2000/svg" xmlns:xlink="http://www.w3.org/1999/xlink" viewBox="0 0 850 509.83"><defs><style>.cls-1{fill:none;}.cls-2{clip-path:url(#clip-path);}.cls-3{fill:#6d472e;}.cls-4{fill:#eac2a7;}.cls-5{fill:#eaa000;}.cls-6{fill:#97d8dd;}.cls-7{fill:#027e8f;}.cls-8{fill:#65c4d1;}.cls-9{fill:#fff;}.cls-10{clip-path:url(#clip-path-2);}.cls-11{fill:#c9a68f;}.cls-12{fill:#d6aa8b;}.cls-13{fill:#d6d6d6;}.cls-14{fill:#c99f4b;}.cls-15{fill:#6d5f56;}.cls-16{fill:#493e38;}.cls-17{clip-path:url(#clip-path-3);}.cls-18{fill:#fcfcfc;}.cls-19{fill:#d32222;}.cls-20{fill:#f4f4f4;}.cls-21{clip-path:url(#clip-path-4);}.cls-22{fill:#b7b7b7;}.cls-23{fill:#c99e32;}.cls-24{clip-path:url(#clip-path-5);}.cls-25{fill:#aa7e30;}.cls-26{fill:#ddd;}.cls-27{fill:#846829;}.cls-28{fill:#e8cd95;}</style><clipPath id="clip-path"><path class="cls-1" d="M244.85-105.53s-46.61,35.41-124.69,6.32S42.08-351.82,42.08-351.82,113.9-458.56,130-455.7s109.72,21,109.72,55.44,41.67,189,41.67,189,17.51,67.78,8.76,72.94"/></clipPath><clipPath id="clip-path-2"><path class="cls-1" d="M245.26,486.22s-46.61,35.41-124.69,6.32S42.49,239.93,42.49,239.93s71.82-106.74,87.88-103.88,109.72,21,109.72,55.44,41.68,189,41.68,189,17.5,67.78,8.75,72.94"/></clipPath><clipPath id="clip-path-3"><path class="cls-1" d="M181.65,249.27c-.37-.38,22.15,1.41,30.75-4.92,0,0,1.7,17.14-6,19C198.51,265.29,189.39,262.13,181.65,249.27Z"/></clipPath><clipPath id="clip-path-4"><path class="cls-1" d="M194.4,502.87c5.23,10.37,42,12.56,45.06,13.52,0,0,.95-41.65-4.92-65.05S194.4,502.87,194.4,502.87Z"/></clipPath><clipPath id="clip-path-5"><path class="cls-1" d="M149.67,244.7c6.49,2.68.9-8.94.9-8.94s-.62-11.66-3.92-13.65a46.92,46.92,0,0,1-7.19-5.88L156,204.87l45.3-31.06s6.26-8.72-8.05-14.08A17,17,0,0,0,176,154.58s-6.26-7.49-15.32-.61c0,0-18.22-1.07-22.36,7.88a6.8,6.8,0,0,0-6.71,3.8s-3.8,1.45-4.53,4.53c0,0-9.22,3.63-9.78,9.78,0,0-5,7-1,12.75,0,0-2.65,5,.79,8.44,0,0-7.72,8.44,0,13.7,0,0-1.91,5.48,9.39,7.71l3.35,6.93s3.23-1.46,12.52,7.83Z"/></clipPath></defs><title>Fala3</title><g class="cls-2"><path class="cls-3" d="M227.06,25.68a11.3,11.3,0,0,0-.18,7.66c1.45,3.8,19.2,17.44,32,18.28,13.52.89,21-6.93,21.52-8.78S271.68,35,271.68,35Z"/><path class="cls-3" d="M95,32.34s-9.67,66.35-6.27,69.76,24.84,7.48,39.67,1.28-16.19-79.1-16.19-79.1Z"/><path class="cls-4" d="M182.47-97.12l-32.31,81S146-72,141-67.06A217.62,217.62,0,0,1,128.8-31.68c-8.38,18.79-12.07,44.62-12.07,44.62s7.63,19.37,6.71,28.09c0,0,7.29,50.58,4.36,56.37s-14.43,2.34-14.43,2.34-19.2,2.52-22.05-2.26,3.6-58.13,3.6-58.13S94,29.12,97.36,26.77s7.38-8,7.38-8-1.26-3.35,2.26-7.88,8.72-33.57,8.72-37.37-4.7,39.06,11,27.88c0,0,3.8-77.15,14.53-87.89s41.26-17.1,41.26-17.1Z"/><path class="cls-4" d="M194-109.12S221-6.93,223.06-2.23,214.5-59.68,233,5.05c0,0-1.17,8.56-2.85,11.58s-5.53,10.73-.67,13.41,20.63,16.1,27.34,17.28,19.28-4.7,19.28-4.7,6.71-2.52,4.62-4.61c0,0-6.13-.25-8.14-2.27s-24.82-20-24.82-20-7-9.06-7-9.67-5-9-5-9,1.84-5,0-15.26-1-74.69-1-74.69Z"/><path class="cls-3" d="M90,52s19.21-8.22,38.41-1.93A8.33,8.33,0,0,0,127,45.42c-1.59-2.52-25.66-6.37-35.89,2C91.11,47.47,88.93,50.62,90,52Z"/><path class="cls-3" d="M252.42,45.65s.75-16.92,19.26-10.67l.5.41a6,6,0,0,0-1.84-3.89c-1.7-1.43-6.06-2.57-6.06-2.57s-17-4.17-16.71,13.84C247.57,42.77,250.21,46.49,252.42,45.65Z"/><path class="cls-5" d="M167.83-440.69a10.8,10.8,0,0,1,7.71,3.52,18.62,18.62,0,0,1,4.67-.61A17,17,0,0,1,192.87-432c13.91,5.21,8.39,13.59,8.06,14.06l.16,0s8.16,5.71,5.36,8.5c0,0,5,6.25,1,9.61a4.52,4.52,0,0,1-1.46.73c11.44,17.82,18.26,49.26,13.76,75.2-.89,5.13-6.76,8.82-22.57,8.82h0a84.43,84.43,0,0,1-15.29-1.35c.15,1.2.32,2.52.5,3.83h0c.79,5.65,1.94,12.07,3.2,13,8.07,6.06,20.09,8.57,26.85,9.54l9.79.92a25.12,25.12,0,0,1,2.17,2.47h.11c2.94,0,5.27,3.22,5.27,3.22l38.58,67.54L235-156.15s11.18,18.79,5.59,27.28l7.71,7.72S249.57-117,244-117c-1.66,0-4-.88-6.48-2.11a424.39,424.39,0,0,1,1.55,43.77,40.53,40.53,0,0,0-4.51-.68l0,2.85h0c-.11,19.86,0,48.53,1.13,55.07,1.84,10.23,0,15.26,0,15.26s5,8.35,5,9,7,9.68,7,9.68,9.32,7.33,16.57,13.14h0s4.36,1.14,6.06,2.57a5.89,5.89,0,0,1,1.83,3.81c.49.32,1.28.87,2.2,1.53a23.75,23.75,0,0,0,6.3,1.17c1,1,0,2.08-1.3,3,.72.77,1.15,1.45,1,1.88-.47,1.75-7.22,8.85-19.41,8.85-.68,0-1.39,0-2.11-.07-12.8-.84-30.55-14.48-32-18.28a11.3,11.3,0,0,1,.18-7.66c0-3.24,2-7.11,3-9.06,1.68-3,2.85-11.57,2.85-11.57-18.45-64.73-7.88-2.59-9.89-7.28C221.7-5.39,209-52.77,200.83-83.38a21.46,21.46,0,0,1-4.21-2.49,131.57,131.57,0,0,1-22.14,8.78l-2.34,5.87-22,55.12S146-72,141-67.06A217.62,217.62,0,0,1,128.8-31.68c-8.38,18.79-12.07,44.62-12.07,44.62s6,15.25,6.71,24.78c7.07,9.68,13.41,62.14,5,65.66a48.37,48.37,0,0,1-18.3,3.22c-10.15,0-19.25-2.38-21.36-4.5C85.36,98.69,95,32.34,95,32.34c.3-2.35,1-4.61,2.33-5.57,3.35-2.35,7.38-8,7.38-8s-1.26-3.35,2.26-7.88,8.72-33.57,8.72-37.37-4.7,39.06,11,27.88c0,0,1.79-36.32,6.38-62.58h0c.49-3,1-5.83,1.63-8.48-4.81.4-7.69.45-7.69.45s25.12-70.13,33.26-94c-2.07-4.16,1.18-6,2.15-6.48q.18-.56.27-.9c2-7.37-16.94-43.57-16.94-43.57l-16-10-11.1,51.31-7.54-2.85-10-15.46L83-245.59l-.53-.16a17.36,17.36,0,0,1-7.54-6.31,62.11,62.11,0,0,1-7.08.41H67a1.22,1.22,0,0,1-.71-.15,1.27,1.27,0,0,1-.42-.88A76.08,76.08,0,0,0,61.82-267a2.34,2.34,0,0,1-.23-1.26c.17-.77,1.07-1.12,1.85-1.2a4.71,4.71,0,0,0,2.28-.45c.87-.6,1.13-1.93,2.12-2.26a1.73,1.73,0,0,1,.5-.07c.46,0,1,.14,1.4.14a1.42,1.42,0,0,0,.58-.1c.81-.33,1-1.37,1.54-2,.79-1,2.18-1.11,3.41-1.36a23.91,23.91,0,0,0,6-2.4c.14-.07.3-.15.35-.3a.65.65,0,0,0,0-.34c-.92-4.29-2.86-8.59-3.78-12.88-.35-1.62-1.75-10.64-1.56-12.29s2-3.33,3.4-4.13a1.83,1.83,0,0,1,.86-.26,1,1,0,0,1,.41.08,1.76,1.76,0,0,1,.75,1.33c1,4.79,3.85,16.93,4.89,21.72.65,3.05,6.19,10.68,7.37,11.58,1.34,1,1.34,2,2.69,3a2.85,2.85,0,0,1,.92.94,3,3,0,0,1,.25,1.35L98-260c.08,3.15,0,6.69-2.21,8.92h0l14.5,34.54-.28-1c.14.25.26.5.39.75l.42-36.2s11.28-10.12,12.74-11.57c.94-.94,7.87-5,12.65-7.76h0c5-5,15.75-9,15.75-9s10.23-11.57,12.41-13.75,1.17-8.22,1.17-8.22l-5.6-21.52c-9.89-6.22-13.8-13.14-13.8-13.14a4.94,4.94,0,0,1-3.64,1.46c-3.26,0-6.53-2.47-6.53-2.47s-14.2-14.2-9.73-20.91a4.23,4.23,0,0,1,3.68-2c2.93,0,6.41,2.42,8.87,4.48-5-4.39-7.73-5-8.82-5l-.35,0-.08.06-.07,0-.1,0-.05-.1c-1.06-.53-5.81-3.14-6.22-7.56-8-2.51-6.48-7-6.48-7-7.71-5.26,0-13.7,0-13.7-3.43-3.44-.78-8.44-.78-8.44-4-5.7,1-12.75,1-12.75.56-6.15,9.78-9.78,9.78-9.78.73-3.07,4.53-4.53,4.53-4.53a6.71,6.71,0,0,1,6.2-3.82c.32,0,.51,0,.51,0,3.34-7.23,15.88-7.92,20.57-7.92,1.12,0,1.79,0,1.79,0a12.5,12.5,0,0,1,7.61-2.91m63.06,264.21,20.7-37.33-19.68-29.26c.53,8.4.85,17,.76,25.16a328.66,328.66,0,0,1-2.9,39.69,2.76,2.76,0,0,1,1.12,1.74M271.68,35h0M167.83-446.69h0a17.64,17.64,0,0,0-9.41,2.87c-6.83,0-18.26,1.16-24,8.21a12.43,12.43,0,0,0-7.48,4.92,13.77,13.77,0,0,0-4.88,4.63c-3.46,1.81-9.48,5.76-10.92,12.06-2.16,3.65-4.13,9.68-1.83,15.43a13.61,13.61,0,0,0,.2,7.67,16,16,0,0,0-2.23,9.6,12.49,12.49,0,0,0,3.4,7.19,10.57,10.57,0,0,0,.94,2.71,13.39,13.39,0,0,0,6.52,6,14.64,14.64,0,0,0,2.33,3.67c-2.34,4.83-1,11,4,18.31a68.38,68.38,0,0,0,7.26,8.81l.29.29.33.25c.82.62,5.14,3.68,10.15,3.68a11.91,11.91,0,0,0,1.59-.1A52.81,52.81,0,0,0,154.71-321l4.93,19a12.53,12.53,0,0,1,0,3.23c-2.39,2.49-8.72,9.62-11.25,12.47-3.29,1.33-11,4.73-15.84,9.19-11.64,6.72-12.58,7.66-13.28,8.35-1,1-8.18,7.48-12.49,11.35l-2,1.76,0,2.63-.09,7.76-2.17-5.19c1.62-3.53,1.52-7.35,1.46-9.7l-.14-5.4-.06-2.7a8.7,8.7,0,0,0-.94-4,8.54,8.54,0,0,0-2.47-2.82l-.11-.16A11.16,11.16,0,0,0,97.83-278c-1.34-1.44-4.88-6.66-5.4-8.33-.53-2.44-1.5-6.72-2.45-10.86s-1.91-8.43-2.42-10.79a7.42,7.42,0,0,0-4.09-5.51,7,7,0,0,0-2.94-.64,7.78,7.78,0,0,0-3.75,1c-2.84,1.56-6,4.68-6.48,8.73-.35,3.18,1.64,14.1,1.66,14.2A65.07,65.07,0,0,0,74-283.15c.18.54.35,1.06.52,1.59l-.48.11-.41.08a10.17,10.17,0,0,0-6.33,3.23,7.92,7.92,0,0,0-1.32.29,7.69,7.69,0,0,0-3.6,2.51,7.65,7.65,0,0,0-6.69,5.86,8,8,0,0,0,.52,4.7A70.93,70.93,0,0,1,60-251.61a7.06,7.06,0,0,0,2.91,4.74,7.06,7.06,0,0,0,4,1.21h.88c1.46,0,2.93,0,4.4-.15a23.43,23.43,0,0,0,5.89,4.6l17.32,51.88.24.72.41.63,10,15.47,1.07,1.66,1.85.7,7.54,2.84,6.51,2.46,1.47-6.8,9.3-43,7.36,4.62c1.43,2.79,4.71,9.29,7.91,16.34,5.88,12.94,7.32,18.49,7.66,20.62a10.21,10.21,0,0,0-2.59,4,10.07,10.07,0,0,0-.23,5.85C145.24-138,121.59-72,121.35-71.28l-2.93,8.18,8.69-.16h.21c0,.13,0,.26-.07.39l-.38.95.1.66c-3.81,22.34-5.64,50.77-6.14,59.61-14,12.49-11.94-34.91-11.25-26.79.06.74.14,1.65.14,1.92-.1,4.22-5.09,29.83-7.51,33.74a16.15,16.15,0,0,0-3.7,9.8,27.86,27.86,0,0,1-4.6,4.84c-2.51,1.76-4.07,4.71-4.73,9-.69,1.89-2.68,7.44-4.38,13.33-3.61,12.56-3.69,58.73-.28,62.14,4.3,4.3,16.29,6.26,25.61,6.26a54.22,54.22,0,0,0,20.62-3.69A11.92,11.92,0,0,0,138,101c1.72-6.18-1.05-54.65-8.72-65.46-1-8.38-4.86-19.23-6.35-23.23.92-5.68,4.57-26.26,11.38-41.52a227,227,0,0,0,12.24-35c4.94-6.18,8.44,53.24,9.34,50L177.71-69,179-72.21a140.58,140.58,0,0,0,16.84-6.59c17.59,66,20.66,76.1,21.47,78.34-.05.47-.19,1.29-.3,2-1.28,7.62-4.24-45.87,9.82,3.93-.56,3.55-1.44,7.29-2,8.26-2.28,4.11-3.51,7.67-3.75,10.83a17,17,0,0,0,.17,10.94c1.93,5.05,11.29,11.35,14.11,13.16,4.84,3.1,14.26,48.91,23.11,49.49.83.05,1.68.08,2.5.08,14.37,0,23.91-49,25.2-53.79a6.38,6.38,0,0,0,.2-2.49,7.34,7.34,0,0,0,.65-2.35,7.22,7.22,0,0,0-2.13-5.81l-1.65-1.66-2.34-.1a19.81,19.81,0,0,1-3.52-.5,11,11,0,0,0-3.21-4.62,21.92,21.92,0,0,0-7.11-3.4c-6-4.78-13-10.35-15.08-12-2.06-2.67-4.35-5.7-5.43-7.24-.27-4.49-1.26,50.88-4.88-6.49.62-2.55,1.44-8.16-.15-17-.37-2.08-1.2-11-1.06-49.44l4.38,1.38.18-8c0-.8.38-17.5-.86-35.8,4.73,0,7.25-2.1,8.53-3.82a9.23,9.23,0,0,0,1.38-8l-.43-1.46-1.07-1.07-4.93-4.93c2.11-8.89-2.78-20.11-5.76-25.82L273.58-213l1.65-3-1.68-2.94L235-286.42l-.16-.27-.19-.26a14.67,14.67,0,0,0-7-5.24c-.36-.4-.74-.79-1.13-1.18l-1.53-1.54-2.15-.2-9.64-.89c-5.73-.85-16-2.93-23-7.69a47.6,47.6,0,0,1-1.23-5.74c2.7.23,5.46.35,8.25.35,6.47,0,26.1,0,28.5-13.8,4.18-24.06-.85-54.67-12-75.07,2.26-3.8,1.53-8.48-.63-12.42a6.66,6.66,0,0,0,0-1.18c-.28-3.27-2.56-6.22-4.94-8.45a12.89,12.89,0,0,0-.38-6.32c-1.44-4.6-5.25-8.22-11.33-10.78a22.94,22.94,0,0,0-16.14-6.68,24.58,24.58,0,0,0-3,.18,16.23,16.23,0,0,0-9.43-3.09Zm70.26,244.87c.29-4.92.52-10.34.58-16,0-1.43,0-2.9,0-4.42l5.89,8.75-6.48,11.69Z"/></g><path class="cls-5" d="M177.91,158.73c93.46.11,169.21,76.65,169.31,171.09s-75.8,171.1-169.31,171.1S8.59,424.32,8.59,329.82s75.8-171.09,169.32-171.09m0-8h0a174.65,174.65,0,0,0-69,14.09,176.58,176.58,0,0,0-56.37,38.4,180.14,180.14,0,0,0,0,253.21,176.74,176.74,0,0,0,56.37,38.4,176.24,176.24,0,0,0,138.1,0,176.81,176.81,0,0,0,56.36-38.4,179.73,179.73,0,0,0-56.39-291.56,175.07,175.07,0,0,0-69-14.14Z"/><path class="cls-6" d="M177.9,158.73c-93.51,0-169.31,76.6-169.31,171.09s75.8,171.1,169.31,171.1,169.32-76.6,169.32-171.1S271.37,158.84,177.9,158.73Zm0,330.78c-87.27,0-158-71.49-158-159.69s70.75-159.68,158-159.68,158,71.49,158,159.68S265.14,489.41,177.9,489.51Z"/><path class="cls-6" d="M257.81,205.54a5.59,5.59,0,0,0-4.25-.81A5.65,5.65,0,0,0,250,207.2l-9.23,14.35a5.73,5.73,0,0,0,1.79,8,74,74,0,0,1,6.33,4.56c1.27,1,2.54,2,3.53,2.66,1.75,1.46,3.44,3,5.11,4.55l-3.9,3.94a112.59,112.59,0,0,0-24.74-17.13L240.43,202a5.75,5.75,0,0,0,.11-4.37,5.67,5.67,0,0,0-3-3.17,146.29,146.29,0,0,0-52-12.51,5.55,5.55,0,0,0-4.08,1.45,5.69,5.69,0,0,0-1.85,3.95l-.87,17.08a5.68,5.68,0,0,0,5.33,6l5.94.3,6.33,1c.81.14,1.63.26,2.44.38,1.22.17,2.44.35,3.51.59l.78.2-1.48,5.59A113.7,113.7,0,0,0,171.72,216l-2.93-28.54a5.66,5.66,0,0,0-2.06-3.84,5.57,5.57,0,0,0-4.15-1.24A144.11,144.11,0,0,0,111.3,197.8a5.73,5.73,0,0,0-2.45,7.67l7.7,15.23a5.63,5.63,0,0,0,7.4,2.59c1.13-.53,2.25-1.09,3.38-1.65a58.2,58.2,0,0,1,8.07-3.5l1.44-.54c1.7-.64,3.34-1.26,5-1.81l1.46,5.52c-1.39.47-2.74,1-4.08,1.48l-1.34.52a52.9,52.9,0,0,0-8,3.43c-1,.48-1.93,1-3.39,1.67L116.89,234l-.65.37L99.6,211.23A5.61,5.61,0,0,0,91.71,210a147.7,147.7,0,0,0-36.8,39.11,5.73,5.73,0,0,0,1.65,7.9l14.19,9.33a5.61,5.61,0,0,0,7.9-1.82q2.09-3.3,4.49-6.38c1-1.29,2-2.58,2.66-3.59,1.44-1.77,3-3.47,4.5-5.16l3.9,3.95a113.82,113.82,0,0,0-17,25L51.36,266.64a5.62,5.62,0,0,0-7.45,2.89,150.31,150.31,0,0,0-12.39,52.56,5.67,5.67,0,0,0,5.35,6l16.91.89a5.64,5.64,0,0,0,5.92-5.39l.3-6,1-6.39c.15-.83.26-1.65.38-2.48.18-1.23.35-2.47.59-3.54l.19-.79,5.54,1.5a116.91,116.91,0,0,0-2.43,30.2L37,339a5.58,5.58,0,0,0-3.79,2.08A5.68,5.68,0,0,0,32,345.3a149.58,149.58,0,0,0,15.28,51.82,5.58,5.58,0,0,0,7.59,2.48l15.07-7.77a5.74,5.74,0,0,0,2.56-7.48c-.52-1.14-1.07-2.25-1.61-3.37a60.45,60.45,0,0,1-3.49-8.2l-.55-1.5c-.63-1.7-1.23-3.35-1.77-5l5.53-1.49a113.44,113.44,0,0,0,12.88,27.29L60.54,409a5.72,5.72,0,0,0-1.24,8A147.24,147.24,0,0,0,98,454.11a5.61,5.61,0,0,0,7.81-1.67L115,438.1a5.73,5.73,0,0,0-1.79-8,76.27,76.27,0,0,1-6.33-4.56c-1.27-1-2.54-2-3.53-2.66-1.75-1.46-3.44-3-5.11-4.55l4-4c1.51,1.4,3.06,2.81,4.94,4.36,1.1.78,2.17,1.62,3.24,2.45a67.54,67.54,0,0,0,6.29,4.47l10.08,5.85.12.06-11.56,26.19a5.75,5.75,0,0,0-.11,4.37,5.62,5.62,0,0,0,3,3.16,146.3,146.3,0,0,0,52,12.52h.29a5.67,5.67,0,0,0,5.63-5.41l.88-17.09a5.67,5.67,0,0,0-5.33-6l-5.94-.31-6.33-1c-.81-.14-1.63-.26-2.44-.38-1.22-.18-2.44-.35-3.51-.6l-.78-.2,1.48-5.59a114.16,114.16,0,0,0,29.89,2.45L187,472.21a5.74,5.74,0,0,0,2.06,3.84,5.62,5.62,0,0,0,4.15,1.24,144.31,144.31,0,0,0,51.28-15.44,5.74,5.74,0,0,0,2.46-7.67l-7.71-15.24a5.62,5.62,0,0,0-7.39-2.58c-1.14.53-2.26,1.09-3.39,1.65a58.08,58.08,0,0,1-8.06,3.5l-1.44.54c-1.7.64-3.35,1.26-5,1.81l-1.49-5.59a111.5,111.5,0,0,0,27-13l16.69,23.17a5.61,5.61,0,0,0,7.88,1.26,148.06,148.06,0,0,0,36.81-39.11,5.8,5.8,0,0,0,.79-4.3,5.68,5.68,0,0,0-2.45-3.6l-14.19-9.33a5.62,5.62,0,0,0-7.9,1.81,71,71,0,0,1-4.49,6.38c-1,1.3-2,2.59-2.65,3.6-1.45,1.76-3,3.46-4.51,5.15l-3.9-3.94a113.64,113.64,0,0,0,16.95-25L304.45,393a5.63,5.63,0,0,0,7.45-2.89,150.37,150.37,0,0,0,12.39-52.57,5.69,5.69,0,0,0-5.35-6L302,330.69a5.7,5.7,0,0,0-5.92,5.39l-.3,6-1,6.39c-.15.82-.26,1.65-.38,2.48-.18,1.23-.35,2.47-.59,3.53l-.2.79-5.44-1.47,0-.14c.3-1.32.5-2.68.68-4,.09-.64.18-1.27.3-2l.86-5.6a5.7,5.7,0,0,0,.06-.58l.3-6V323.85l0-.26,28.35-3a5.6,5.6,0,0,0,3.8-2.08,5.77,5.77,0,0,0,1.23-4.18,150.07,150.07,0,0,0-15.28-51.83,5.61,5.61,0,0,0-7.59-2.47l-15.08,7.77a5.73,5.73,0,0,0-2.55,7.48c.52,1.13,1.06,2.25,1.6,3.37a58.4,58.4,0,0,1,3.49,8.19l.55,1.51c.63,1.7,1.24,3.35,1.78,5l-5.53,1.49a113.47,113.47,0,0,0-12.89-27.29l22.93-16.87a5.7,5.7,0,0,0,2.26-3.72,5.76,5.76,0,0,0-1-4.24A147.36,147.36,0,0,0,257.81,205.54Zm3.44,56.07a5.74,5.74,0,0,0-1.24,8,102.33,102.33,0,0,1,15.91,33.7,5.66,5.66,0,0,0,6.9,4l16.36-4.42a5.72,5.72,0,0,0,4.07-6.7,83.48,83.48,0,0,0-3.69-11.79l-.45-1.22a58.43,58.43,0,0,0-3.16-7.74l5-2.59a139.24,139.24,0,0,1,10.93,37l-28,2.93a5.68,5.68,0,0,0-5,6l.28,5.53v10.9l-.28,5.38-.8,5.23c-.13.75-.23,1.5-.34,2.25-.14,1-.27,2-.46,2.87l-1.41,5.49a5.71,5.71,0,0,0,4,6.94l16.36,4.42a5.61,5.61,0,0,0,4.31-.59,5.68,5.68,0,0,0,2.61-3.5l1.66-6.5c.35-1.52.57-3.07.79-4.62.11-.73.21-1.46.35-2.28l1-7,.05-.88,5.54.29a139.33,139.33,0,0,1-8.84,37.55l-25.66-11.56a5.54,5.54,0,0,0-4.32-.11,5.69,5.69,0,0,0-3.14,3,102.26,102.26,0,0,1-20.92,30.87,5.74,5.74,0,0,0,0,8.05l12,12.1a5.47,5.47,0,0,0,4.15,1.67,5.59,5.59,0,0,0,4.05-1.91q1.51-1.71,3.06-3.4c2-2.15,3.91-4.3,6-6.86.86-1.22,1.77-2.42,2.67-3.61.63-.83,1.27-1.67,1.89-2.53l4.74,3.12A136.05,136.05,0,0,1,262,437l-16.55-23a5.65,5.65,0,0,0-3.68-2.28,5.58,5.58,0,0,0-4.2,1,100.11,100.11,0,0,1-33.35,16.07,5.68,5.68,0,0,0-3.43,2.66,5.74,5.74,0,0,0-.56,4.33l4.37,16.53a5.65,5.65,0,0,0,6.64,4.1,82.52,82.52,0,0,0,11.7-3.74l1.17-.44a57.49,57.49,0,0,0,7.65-3.2l2.57,5.09a135.64,135.64,0,0,1-36.64,11L194.75,437a5.67,5.67,0,0,0-2-3.84,5.56,5.56,0,0,0-4.13-1.24,102.62,102.62,0,0,1-37-3.05,5.59,5.59,0,0,0-4.28.58,5.67,5.67,0,0,0-2.63,3.46l-4.38,16.53a5.75,5.75,0,0,0,.58,4.35,5.64,5.64,0,0,0,3.47,2.65l6.43,1.66c1.51.36,3,.59,4.58.81.72.1,1.43.21,2.24.35l7,1.05.87,0-.29,5.6A135.3,135.3,0,0,1,128,457l11.44-25.92a5.74,5.74,0,0,0-2.7-7.47l-4.69-2.26-9.63-5.59a58,58,0,0,1-5.13-3.7c-1.2-.93-2.4-1.86-3.28-2.45-1.63-1.36-3.18-2.81-4.74-4.25-1.16-1.08-2.33-2.16-3.52-3.22a5.6,5.6,0,0,0-7.7.27l-12,12.09a5.74,5.74,0,0,0,.23,8.3c1.12,1,2.22,2,3.32,3,2.15,2,4.29,4,6.84,6.09,1.21.87,2.38,1.78,3.56,2.69q1.23,1,2.52,1.92l-3.09,4.79a135.59,135.59,0,0,1-27.66-26.58l22.72-16.71a5.74,5.74,0,0,0,1.25-8,102.26,102.26,0,0,1-15.92-33.7,5.63,5.63,0,0,0-6.9-4l-16.36,4.42a5.7,5.7,0,0,0-4.06,6.7,83.72,83.72,0,0,0,3.68,11.78l.45,1.22a59.24,59.24,0,0,0,3.16,7.74l-5,2.6a138.68,138.68,0,0,1-10.93-37l27.94-2.94a5.68,5.68,0,0,0,5-6.22,105.67,105.67,0,0,1,3-37.35,5.74,5.74,0,0,0-.56-4.33,5.68,5.68,0,0,0-3.43-2.66l-16.36-4.41a5.65,5.65,0,0,0-4.31.58A5.72,5.72,0,0,0,52.61,296L51,302.46c-.35,1.52-.57,3.07-.79,4.61-.11.74-.21,1.46-.34,2.29l-1,7,0,.87L43.2,317A139.24,139.24,0,0,1,52,279.44L77.7,291a5.62,5.62,0,0,0,7.45-2.9,102.17,102.17,0,0,1,20.93-30.87,5.77,5.77,0,0,0,0-8.06l-12-12.1a5.61,5.61,0,0,0-8.2.24c-1,1.15-2,2.28-3.06,3.41-2,2.14-3.91,4.29-6,6.86-.86,1.22-1.77,2.41-2.67,3.61-.63.83-1.27,1.66-1.89,2.52l-4.74-3.11a136.05,136.05,0,0,1,26.3-28l16.55,23a5.6,5.6,0,0,0,7.89,1.25l1.31-1a19.54,19.54,0,0,1,2.77-1.92l9.23-5.4c1.09-.5,2.16-1,3.24-1.57a44,44,0,0,1,6.61-2.86l1.68-.63a57.54,57.54,0,0,1,8.17-2.62,5.61,5.61,0,0,0,3.67-2.59,5.78,5.78,0,0,0,.65-4.47l-4.38-16.53a5.65,5.65,0,0,0-6.63-4.1,83.06,83.06,0,0,0-11.71,3.74l-1.16.44a56.94,56.94,0,0,0-7.65,3.2l-2.57-5.09a135.89,135.89,0,0,1,36.64-11l2.89,28.24a5.71,5.71,0,0,0,2,3.84,5.58,5.58,0,0,0,4.13,1.24,102.88,102.88,0,0,1,37,3,5.59,5.59,0,0,0,4.28-.58,5.71,5.71,0,0,0,2.63-3.46l4.37-16.53a5.74,5.74,0,0,0-.57-4.35,5.64,5.64,0,0,0-3.47-2.65L205,201.55c-1.52-.35-3.05-.58-4.59-.8-.72-.11-1.43-.21-2.24-.35l-7-1.05-.87,0,.29-5.6a135.68,135.68,0,0,1,37.16,8.94l-11.44,25.92a5.78,5.78,0,0,0-.11,4.38,5.64,5.64,0,0,0,3,3.16,101.33,101.33,0,0,1,30.55,21.14,5.59,5.59,0,0,0,8,0l12-12.09a5.74,5.74,0,0,0-.23-8.3c-1.12-1-2.22-2-3.32-3-2.15-2-4.29-4-6.84-6.09-1.21-.87-2.38-1.78-3.56-2.69-.82-.63-1.66-1.28-2.52-1.92l3.09-4.79A135.85,135.85,0,0,1,284,244.89Z"/><path class="cls-6" d="M177.9,238.57a90,90,0,0,0-78.35,45.77,91.89,91.89,0,0,0,.48,91.45,5.73,5.73,0,0,0,.35.59,91.8,91.8,0,0,0,23,26c.15.1.23.25.39.34l.12,0a88.88,88.88,0,0,0,108,0,.84.84,0,0,1,.14-.06,4.32,4.32,0,0,0,.39-.34,91.65,91.65,0,0,0,23-26,4.36,4.36,0,0,0,.35-.59,91.87,91.87,0,0,0,.48-91.45A90,90,0,0,0,177.9,238.57Zm-10.17,12.15L105.08,360.81a80.52,80.52,0,0,1,4.32-70.74A78.92,78.92,0,0,1,167.73,250.72ZM134,396.19l43.86-77.06,43.87,77.05a78.09,78.09,0,0,1-87.73,0ZM230.73,389l-45.48-79.89a8.43,8.43,0,0,0-14.69,0L125.08,389a79.94,79.94,0,0,1-13.73-16.34l66.56-117,12.91,22.63a4.66,4.66,0,0,0,.25.5l53.39,93.86A80.26,80.26,0,0,1,230.73,389Zm20-28.23-49.6-87.21c-.08-.17-.17-.35-.27-.52L188.1,250.73a78.88,78.88,0,0,1,58.31,39.35,80.53,80.53,0,0,1,4.32,70.73Z"/><path class="cls-7" d="M596.76,34.08c-131.17,0-239,88.61-251.43,202l-74.67,29.74s-4.88,1.81-4.39,8.81a9.51,9.51,0,0,0,5.58,8.16L350,306.21C374.9,406.69,475.92,481.89,596.76,481.89c139.54,0,252.65-100.25,252.65-223.9S736.3,34.08,596.76,34.08Z"/><path class="cls-8" d="M596.73.92c-131.18,0-239,88.6-251.44,202l-74.67,29.74s-4.88,1.8-4.39,8.8a9.53,9.53,0,0,0,5.58,8.17L350,273c24.89,100.48,125.91,175.68,246.76,175.68,139.53,0,252.64-100.24,252.64-223.9S736.26.92,596.73.92Z"/><path class="cls-9" d="M422.64,168.32h-1.13l-.2-2.41a4.1,4.1,0,0,0-1.71-1.25,6.52,6.52,0,0,0-2.52-.45,5.16,5.16,0,0,0-3.26.91,2.8,2.8,0,0,0-1.16,2.27,2.66,2.66,0,0,0,1,2.15,9.69,9.69,0,0,0,3.63,1.52,10.49,10.49,0,0,1,4.15,1.9,3.91,3.91,0,0,1,1.42,3.15,3.83,3.83,0,0,1-1.65,3.25,7,7,0,0,1-4.21,1.21,8.71,8.71,0,0,1-3.36-.65,6.41,6.41,0,0,1-2.53-1.84v-3h1.14l.19,2.5a5,5,0,0,0,2,1.34,7.36,7.36,0,0,0,2.6.45,5.35,5.35,0,0,0,3.23-.89,2.75,2.75,0,0,0,1.24-2.35,2.87,2.87,0,0,0-1-2.28,9.45,9.45,0,0,0-3.59-1.57,11.32,11.32,0,0,1-4.2-1.83,3.66,3.66,0,0,1-1.42-3,3.82,3.82,0,0,1,1.62-3.19,6.75,6.75,0,0,1,4.19-1.23,7.93,7.93,0,0,1,3.28.65,5.64,5.64,0,0,1,2.28,1.74Z"/><path class="cls-9" d="M430.7,180.57a5,5,0,0,1-3.92-1.76,6.47,6.47,0,0,1-1.55-4.45v-.65a6.61,6.61,0,0,1,1.55-4.51,4.75,4.75,0,0,1,3.74-1.79,4.63,4.63,0,0,1,3.63,1.47,5.71,5.71,0,0,1,1.32,3.94V174h-8.86v.34a5.61,5.61,0,0,0,1.13,3.58,3.58,3.58,0,0,0,3,1.44,6.09,6.09,0,0,0,2.21-.36,4.32,4.32,0,0,0,1.56-1l.59,1a5.06,5.06,0,0,1-1.78,1.19A6.89,6.89,0,0,1,430.7,180.57Zm-.18-12a3.32,3.32,0,0,0-2.58,1.19,5.15,5.15,0,0,0-1.23,3l0,.06h7.35v-.35a4.11,4.11,0,0,0-1-2.77A3.3,3.3,0,0,0,430.52,168.6Z"/><path class="cls-9" d="M437.65,168.68v-1h3.12l.13,2.1a4.39,4.39,0,0,1,1.61-1.72,4.51,4.51,0,0,1,2.4-.61,3.6,3.6,0,0,1,3.78,2.87,5,5,0,0,1,1.62-2.11,4.21,4.21,0,0,1,2.55-.76,3.8,3.8,0,0,1,3.11,1.34,6.57,6.57,0,0,1,1.09,4.18v6.19l1.89.17v1h-5.18v-1l1.89-.17V172.9a5.16,5.16,0,0,0-.82-3.31,2.83,2.83,0,0,0-2.28-1,3.08,3.08,0,0,0-2.5,1,5,5,0,0,0-1.08,2.66v.17a1.34,1.34,0,0,1,0,.21v6.43l1.89.15v1h-5.17v-1l1.89-.15V172.9a5.16,5.16,0,0,0-.83-3.29,2.81,2.81,0,0,0-2.28-1,3.47,3.47,0,0,0-2.35.76,4,4,0,0,0-1.21,2v7.73l1.89.15v1h-5.17v-1l1.89-.15v-10.3Z"/><path class="cls-9" d="M466.35,179.29l1.89-.15v-10.3l-1.89-.16v-1h3.27v11.5l1.89.15v1h-5.16ZM469.62,164h-1.38v-2h1.38Z"/><path class="cls-9" d="M473.59,179.29l1.89-.15v-10.3l-1.89-.16v-1h3.12l.13,2.22a4.44,4.44,0,0,1,1.63-1.82,4.52,4.52,0,0,1,2.42-.63,3.83,3.83,0,0,1,3.11,1.26,6,6,0,0,1,1.07,3.93v6.54l1.89.15v1h-5.17v-1l1.89-.15v-6.53a4.6,4.6,0,0,0-.81-3.08,2.91,2.91,0,0,0-2.29-.91,3.55,3.55,0,0,0-2.38.78,4.31,4.31,0,0,0-1.33,2.07v7.67l1.89.15v1h-5.17Z"/><path class="cls-9" d="M492.33,164.39v3.25h2.76v1.15h-2.76v8.26a2.68,2.68,0,0,0,.45,1.76,1.47,1.47,0,0,0,1.19.53c.22,0,.44,0,.65,0l.74-.1.21,1a3.6,3.6,0,0,1-.85.23,5.63,5.63,0,0,1-1,.09,2.6,2.6,0,0,1-2.06-.85,4,4,0,0,1-.73-2.67v-8.26h-2.16v-1.15h2.16v-3.25Z"/><path class="cls-9" d="M503.17,180.57a5,5,0,0,1-3.92-1.76,6.47,6.47,0,0,1-1.55-4.45v-.65a6.66,6.66,0,0,1,1.55-4.51,4.75,4.75,0,0,1,3.74-1.79,4.63,4.63,0,0,1,3.63,1.47,5.71,5.71,0,0,1,1.32,3.94V174h-8.86v.34a5.67,5.67,0,0,0,1.13,3.58,3.58,3.58,0,0,0,3,1.44,6.05,6.05,0,0,0,2.21-.36,4.32,4.32,0,0,0,1.56-1l.59,1a5.06,5.06,0,0,1-1.78,1.19A6.89,6.89,0,0,1,503.17,180.57Zm-.18-12a3.32,3.32,0,0,0-2.58,1.19,5.15,5.15,0,0,0-1.23,3l0,.06h7.35v-.35a4.11,4.11,0,0,0-1-2.77A3.27,3.27,0,0,0,503,168.6Z"/><path class="cls-9" d="M513.43,167.64l.17,2.11v.15a4.47,4.47,0,0,1,1.46-1.83,3.63,3.63,0,0,1,2.18-.66,4.05,4.05,0,0,1,.93.12l-.19,1.32-1-.07a3.11,3.11,0,0,0-2.15.74,4.14,4.14,0,0,0-1.2,2v7.57l1.89.15v1h-5.16v-1l1.89-.15v-10.3l-1.89-.16v-1h3.1Z"/><path class="cls-9" d="M528.47,178.49a4.34,4.34,0,0,1-1.62,1.54,4.74,4.74,0,0,1-2.32.54,4.13,4.13,0,0,1-3.51-1.7,7.41,7.41,0,0,1-1.27-4.54v-.24a8.3,8.3,0,0,1,1.27-4.86,4,4,0,0,1,3.54-1.82,4.27,4.27,0,0,1,3.87,2.14v-6.32l-1.89-.15v-1h3.28v17.1l1.89.15v1h-3.13Zm-7.32-4.16a6.48,6.48,0,0,0,.91,3.66,3.09,3.09,0,0,0,2.74,1.36,3.91,3.91,0,0,0,2.23-.61,4.06,4.06,0,0,0,1.4-1.68v-6a4.36,4.36,0,0,0-1.34-1.76,3.61,3.61,0,0,0-2.27-.68,3,3,0,0,0-2.75,1.52,7.57,7.57,0,0,0-.92,4Z"/><path class="cls-9" d="M533.76,179.29l1.89-.15v-10.3l-1.89-.16v-1H537v11.5l1.89.15v1h-5.16ZM537,164h-1.38v-2H537Z"/><path class="cls-9" d="M550.35,171.55h-1.14l-.16-1.79a3.42,3.42,0,0,0-1.31-.85,4.94,4.94,0,0,0-1.83-.31,3.41,3.41,0,0,0-2.28.66,2,2,0,0,0-.76,1.56,1.84,1.84,0,0,0,.66,1.45,6.29,6.29,0,0,0,2.61,1,8.44,8.44,0,0,1,3.35,1.37,2.89,2.89,0,0,1,1.12,2.38,3.1,3.1,0,0,1-1.27,2.56,5.39,5.39,0,0,1-3.36,1,7.6,7.6,0,0,1-2.54-.4,6,6,0,0,1-2-1.1v-2.56h1.12l.2,1.81a3.28,3.28,0,0,0,1.41.81,6.18,6.18,0,0,0,1.78.25,3.8,3.8,0,0,0,2.38-.67,2,2,0,0,0,.87-1.61,2.06,2.06,0,0,0-.73-1.56,5.75,5.75,0,0,0-2.61-1.09,8.71,8.71,0,0,1-3.33-1.31,2.68,2.68,0,0,1-1.08-2.28,3.07,3.07,0,0,1,1.22-2.45,4.87,4.87,0,0,1,3.21-1,7.24,7.24,0,0,1,2.52.42,5.09,5.09,0,0,1,1.86,1.16Z"/><path class="cls-9" d="M558.49,179.38a4,4,0,0,0,2.44-.79,2.64,2.64,0,0,0,1.05-2.22h1.23l0,.07a3.5,3.5,0,0,1-1.38,2.94,5.13,5.13,0,0,1-3.36,1.19,4.75,4.75,0,0,1-4-1.78,7.09,7.09,0,0,1-1.41-4.56v-.5a7.07,7.07,0,0,1,1.41-4.54,4.72,4.72,0,0,1,3.94-1.78,6.3,6.3,0,0,1,2.66.55,5.17,5.17,0,0,1,2,1.5l0,2.76H562l-.22-2.25a4,4,0,0,0-1.39-1,4.51,4.51,0,0,0-1.88-.37,3.36,3.36,0,0,0-3,1.46,6.55,6.55,0,0,0-1,3.67v.5a6.58,6.58,0,0,0,1,3.7A3.33,3.33,0,0,0,558.49,179.38Z"/><path class="cls-9" d="M565.73,179.29l1.89-.15v-10.3l-1.89-.16v-1H569v11.5l1.89.15v1h-5.16ZM569,164h-1.38v-2H569Z"/><path class="cls-9" d="M572.85,168.68v-1h3l.17,2a4.37,4.37,0,0,1,4-2.2,4.07,4.07,0,0,1,3.54,1.82,8.3,8.3,0,0,1,1.27,4.86v.24a7.37,7.37,0,0,1-1.27,4.54,4.17,4.17,0,0,1-3.52,1.7,5,5,0,0,1-2.31-.51,4.34,4.34,0,0,1-1.62-1.45V184l1.89.15v1h-5.16v-1l1.89-.15V168.84Zm10.6,5.41a7.37,7.37,0,0,0-1-3.94,3.08,3.08,0,0,0-2.78-1.53,3.62,3.62,0,0,0-2.28.68,4.06,4.06,0,0,0-1.32,1.75v6.09a3.76,3.76,0,0,0,1.37,1.64,4,4,0,0,0,2.25.6A3.13,3.13,0,0,0,582.5,178a6.38,6.38,0,0,0,1-3.67Z"/><path class="cls-9" d="M586.71,163.08v-1H590v17.1l1.89.15v1h-5.16v-1l1.89-.15V163.23Z"/><path class="cls-9" d="M594,179.29l1.89-.15v-10.3l-1.89-.16v-1h3.27v11.5l1.89.15v1H594ZM597.24,164h-1.38v-2h1.38Z"/><path class="cls-9" d="M601.21,179.29l1.89-.15v-10.3l-1.89-.16v-1h3.12l.12,2.22a4.52,4.52,0,0,1,1.63-1.82,4.58,4.58,0,0,1,2.43-.63,3.85,3.85,0,0,1,3.11,1.26,6,6,0,0,1,1.07,3.93v6.54l1.89.15v1h-5.17v-1l1.89-.15v-6.53a4.6,4.6,0,0,0-.81-3.08,2.92,2.92,0,0,0-2.29-.91,3.55,3.55,0,0,0-2.38.78,4.31,4.31,0,0,0-1.33,2.07v7.67l1.89.15v1h-5.17Z"/><path class="cls-9" d="M625.42,180.32c-.09-.43-.16-.8-.2-1.11s-.05-.63-.05-1a5.73,5.73,0,0,1-1.86,1.65,5.17,5.17,0,0,1-2.61.66,4,4,0,0,1-2.85-1,3.46,3.46,0,0,1-1-2.61,3.23,3.23,0,0,1,1.5-2.79,7.08,7.08,0,0,1,4-1h2.78v-1.67a2.72,2.72,0,0,0-.87-2.14,3.51,3.51,0,0,0-2.42-.77,6,6,0,0,0-1.9.29,4.27,4.27,0,0,0-1.45.78l-.11,1.7h-1.15v-2.44a7.2,7.2,0,0,1,2.08-1.1,7.84,7.84,0,0,1,2.58-.42,5,5,0,0,1,3.34,1.06,3.79,3.79,0,0,1,1.27,3.06v6.24c0,.25,0,.5,0,.74a5.35,5.35,0,0,0,.08.7l1.25.08v1Zm-4.57-1a5,5,0,0,0,2.66-.7,4.14,4.14,0,0,0,1.66-1.82v-2.54h-2.8a5.15,5.15,0,0,0-3,.79,2.38,2.38,0,0,0-1.13,2,2.1,2.1,0,0,0,.7,1.65A2.83,2.83,0,0,0,620.85,179.32Z"/><path class="cls-9" d="M632.87,167.64l.17,2.11v.15a4.47,4.47,0,0,1,1.46-1.83,3.63,3.63,0,0,1,2.18-.66,4.05,4.05,0,0,1,.93.12l-.19,1.32-1-.07a3.11,3.11,0,0,0-2.15.74,4.14,4.14,0,0,0-1.2,2v7.57l1.89.15v1h-5.16v-1l1.89-.15v-10.3l-1.89-.16v-1h3.1Z"/><path class="cls-9" d="M639.31,179.29l1.89-.15v-10.3l-1.89-.16v-1h3.27v11.5l1.89.15v1h-5.16ZM642.58,164H641.2v-2h1.38Z"/><path class="cls-9" d="M655.53,178.49a4.39,4.39,0,0,1-1.61,1.54,4.79,4.79,0,0,1-2.32.54,4.15,4.15,0,0,1-3.52-1.7,7.41,7.41,0,0,1-1.27-4.54v-.24a8.3,8.3,0,0,1,1.27-4.86,4,4,0,0,1,3.54-1.82,4.27,4.27,0,0,1,3.87,2.14v-6.32l-1.89-.15v-1h3.28v17.1l1.89.15v1h-3.13Zm-7.32-4.16a6.48,6.48,0,0,0,.91,3.66,3.09,3.09,0,0,0,2.74,1.36,4,4,0,0,0,2.24-.61,4.12,4.12,0,0,0,1.39-1.68v-6a4.36,4.36,0,0,0-1.34-1.76,3.6,3.6,0,0,0-2.26-.68,3,3,0,0,0-2.76,1.52,7.57,7.57,0,0,0-.92,4Z"/><path class="cls-9" d="M669.57,180.32c-.09-.43-.16-.8-.2-1.11s0-.63,0-1a5.73,5.73,0,0,1-1.86,1.65,5.17,5.17,0,0,1-2.61.66,4,4,0,0,1-2.85-1,3.46,3.46,0,0,1-1-2.61,3.23,3.23,0,0,1,1.5-2.79,7.08,7.08,0,0,1,4-1h2.78v-1.67a2.72,2.72,0,0,0-.87-2.14,3.51,3.51,0,0,0-2.42-.77,6,6,0,0,0-1.9.29,4.27,4.27,0,0,0-1.45.78l-.11,1.7h-1.15v-2.44a7.2,7.2,0,0,1,2.08-1.1,7.84,7.84,0,0,1,2.58-.42,5,5,0,0,1,3.34,1.06,3.79,3.79,0,0,1,1.27,3.06v6.24c0,.25,0,.5,0,.74s0,.47.08.7l1.25.08v1Zm-4.57-1a5,5,0,0,0,2.66-.7,4.14,4.14,0,0,0,1.66-1.82v-2.54h-2.8a5.15,5.15,0,0,0-3,.79,2.38,2.38,0,0,0-1.13,2,2.1,2.1,0,0,0,.7,1.65A2.83,2.83,0,0,0,665,179.32Z"/><path class="cls-9" d="M682.73,178.49a4.24,4.24,0,0,1-1.61,1.54,4.74,4.74,0,0,1-2.32.54,4.16,4.16,0,0,1-3.52-1.7,7.47,7.47,0,0,1-1.27-4.54v-.24a8.38,8.38,0,0,1,1.27-4.86,4.07,4.07,0,0,1,3.55-1.82,4.46,4.46,0,0,1,2.27.55,4.59,4.59,0,0,1,1.6,1.59v-6.32l-1.89-.15v-1h3.28v17.1l1.89.15v1h-3.13Zm-7.31-4.16a6.48,6.48,0,0,0,.91,3.66,3.08,3.08,0,0,0,2.74,1.36,3.93,3.93,0,0,0,2.23-.61,4.06,4.06,0,0,0,1.4-1.68v-6a4.45,4.45,0,0,0-1.34-1.76,3.61,3.61,0,0,0-2.27-.68,3,3,0,0,0-2.75,1.52,7.48,7.48,0,0,0-.92,4Z"/><path class="cls-9" d="M693.65,180.57a5,5,0,0,1-3.92-1.76,6.43,6.43,0,0,1-1.56-4.45v-.65a6.66,6.66,0,0,1,1.55-4.51,4.75,4.75,0,0,1,3.74-1.79,4.63,4.63,0,0,1,3.63,1.47,5.71,5.71,0,0,1,1.32,3.94V174h-8.86v.34a5.67,5.67,0,0,0,1.13,3.58,3.61,3.61,0,0,0,3,1.44,6,6,0,0,0,2.2-.36,4.45,4.45,0,0,0,1.57-1l.59,1a5.1,5.1,0,0,1-1.79,1.19A6.87,6.87,0,0,1,693.65,180.57Zm-.19-12a3.32,3.32,0,0,0-2.58,1.19,5.08,5.08,0,0,0-1.22,3l0,.06H697v-.35a4.11,4.11,0,0,0-1-2.77A3.27,3.27,0,0,0,693.46,168.6Z"/><path class="cls-9" d="M712.2,180.57a5,5,0,0,1-3.92-1.76,6.47,6.47,0,0,1-1.55-4.45v-.65a6.66,6.66,0,0,1,1.55-4.51,4.75,4.75,0,0,1,3.74-1.79,4.63,4.63,0,0,1,3.63,1.47,5.71,5.71,0,0,1,1.32,3.94V174h-8.86v.34a5.67,5.67,0,0,0,1.13,3.58,3.58,3.58,0,0,0,3,1.44,6.05,6.05,0,0,0,2.21-.36,4.32,4.32,0,0,0,1.56-1l.59,1a5.06,5.06,0,0,1-1.78,1.19A6.89,6.89,0,0,1,712.2,180.57Zm-.18-12a3.32,3.32,0,0,0-2.58,1.19,5.15,5.15,0,0,0-1.23,3l0,.06h7.35v-.35a4.11,4.11,0,0,0-1-2.77A3.29,3.29,0,0,0,712,168.6Z"/><path class="cls-9" d="M734.33,171.55h-1.14l-.16-1.79a3.5,3.5,0,0,0-1.31-.85,4.94,4.94,0,0,0-1.83-.31,3.41,3.41,0,0,0-2.28.66,2,2,0,0,0-.76,1.56,1.84,1.84,0,0,0,.66,1.45,6.29,6.29,0,0,0,2.61,1,8.44,8.44,0,0,1,3.35,1.37,2.89,2.89,0,0,1,1.12,2.38,3.1,3.1,0,0,1-1.27,2.56,5.39,5.39,0,0,1-3.36,1,7.6,7.6,0,0,1-2.54-.4,6,6,0,0,1-2-1.1v-2.56h1.12l.2,1.81a3.28,3.28,0,0,0,1.41.81,6.18,6.18,0,0,0,1.78.25,3.8,3.8,0,0,0,2.38-.67,2,2,0,0,0,.87-1.61,2.06,2.06,0,0,0-.73-1.56,5.75,5.75,0,0,0-2.61-1.09,8.71,8.71,0,0,1-3.33-1.31,2.68,2.68,0,0,1-1.08-2.28,3,3,0,0,1,1.22-2.45,4.87,4.87,0,0,1,3.21-1,7.24,7.24,0,0,1,2.52.42,5.09,5.09,0,0,1,1.86,1.16Z"/><path class="cls-9" d="M742.65,180.57a5,5,0,0,1-3.92-1.76,6.43,6.43,0,0,1-1.56-4.45v-.65a6.66,6.66,0,0,1,1.55-4.51,4.75,4.75,0,0,1,3.74-1.79,4.63,4.63,0,0,1,3.63,1.47,5.71,5.71,0,0,1,1.32,3.94V174h-8.86v.34a5.67,5.67,0,0,0,1.13,3.58,3.6,3.6,0,0,0,3,1.44,6,6,0,0,0,2.2-.36,4.32,4.32,0,0,0,1.56-1l.6,1a5.19,5.19,0,0,1-1.79,1.19A6.87,6.87,0,0,1,742.65,180.57Zm-.19-12a3.32,3.32,0,0,0-2.58,1.19,5.08,5.08,0,0,0-1.22,3l0,.06H746v-.35a4.11,4.11,0,0,0-1-2.77A3.27,3.27,0,0,0,742.46,168.6Z"/><path class="cls-9" d="M749.59,168.68v-1h3.12l.13,2.1a4.39,4.39,0,0,1,1.61-1.72,4.51,4.51,0,0,1,2.4-.61,3.6,3.6,0,0,1,3.78,2.87,5,5,0,0,1,1.62-2.11,4.22,4.22,0,0,1,2.56-.76,3.8,3.8,0,0,1,3.1,1.34,6.57,6.57,0,0,1,1.1,4.18v6.19l1.89.17v1h-5.19v-1l1.89-.17V172.9a5.16,5.16,0,0,0-.82-3.31,2.82,2.82,0,0,0-2.27-1,3.06,3.06,0,0,0-2.5,1,5,5,0,0,0-1.09,2.66.91.91,0,0,0,0,.17v6.64l1.89.15v1h-5.17v-1l1.89-.15V172.9a5.1,5.1,0,0,0-.83-3.29,2.8,2.8,0,0,0-2.27-1,3.44,3.44,0,0,0-2.35.76,4,4,0,0,0-1.22,2v7.73l1.9.15v1h-5.18v-1l1.89-.15v-10.3Z"/><path class="cls-9" d="M414.21,193.19v3.25H417v1.15h-2.76v8.26a2.68,2.68,0,0,0,.45,1.76,1.48,1.48,0,0,0,1.19.53c.22,0,.44,0,.65,0l.74-.1.21,1a3.6,3.6,0,0,1-.85.23,5.55,5.55,0,0,1-1,.09,2.6,2.6,0,0,1-2.06-.85,4,4,0,0,1-.73-2.67v-8.26h-2.16v-1.15h2.16v-3.25Z"/><path class="cls-9" d="M422.53,196.44l.17,2.11v.15a4.47,4.47,0,0,1,1.46-1.83,3.63,3.63,0,0,1,2.18-.66,4.05,4.05,0,0,1,.93.12l-.19,1.32-1-.07a3.11,3.11,0,0,0-2.15.74,4.14,4.14,0,0,0-1.2,2.05v7.57l1.89.15v1h-5.16v-1l1.89-.15v-10.3l-1.89-.16v-1h3.1Z"/><path class="cls-9" d="M437.73,209.12c-.09-.43-.16-.8-.2-1.11a7.56,7.56,0,0,1,0-.95,5.73,5.73,0,0,1-1.86,1.65,5.17,5.17,0,0,1-2.61.66,3.92,3.92,0,0,1-2.85-1,3.38,3.38,0,0,1-1-2.6,3.24,3.24,0,0,1,1.49-2.79,7.11,7.11,0,0,1,4.06-1h2.78v-1.67a2.72,2.72,0,0,0-.87-2.14,3.53,3.53,0,0,0-2.42-.77,6.12,6.12,0,0,0-1.91.29,4.31,4.31,0,0,0-1.44.78l-.11,1.7h-1.15v-2.44a7.2,7.2,0,0,1,2.08-1.1,7.84,7.84,0,0,1,2.58-.42,5,5,0,0,1,3.34,1.06,3.78,3.78,0,0,1,1.26,3.06v6.24c0,.25,0,.5,0,.74a5.35,5.35,0,0,0,.08.7l1.25.08v1Zm-4.57-1a5,5,0,0,0,2.66-.7,4.2,4.2,0,0,0,1.66-1.82v-2.54h-2.8a5.15,5.15,0,0,0-3,.79,2.36,2.36,0,0,0-1.13,2,2.1,2.1,0,0,0,.7,1.65A2.83,2.83,0,0,0,433.16,208.12Z"/><path class="cls-9" d="M453,203.13a7.37,7.37,0,0,1-1.28,4.54,4.15,4.15,0,0,1-3.51,1.7,4.81,4.81,0,0,1-2.38-.56,4.26,4.26,0,0,1-1.61-1.6l-.15,1.91h-1.19V192l-1.89-.15v-1h3.27v7.59a4.58,4.58,0,0,1,1.6-1.64,4.44,4.44,0,0,1,2.32-.58,4.07,4.07,0,0,1,3.54,1.82,8.3,8.3,0,0,1,1.28,4.86Zm-1.41-.24a7.57,7.57,0,0,0-.92-3.95,3,3,0,0,0-2.74-1.52,3.61,3.61,0,0,0-2.35.73,4.46,4.46,0,0,0-1.32,1.86v5.73a4.06,4.06,0,0,0,1.39,1.76,3.9,3.9,0,0,0,2.3.65,3.09,3.09,0,0,0,2.73-1.36,6.48,6.48,0,0,0,.91-3.66Z"/><path class="cls-9" d="M464,209.12c-.09-.43-.15-.8-.19-1.11a7.57,7.57,0,0,1-.06-.95,5.53,5.53,0,0,1-1.86,1.65,5.17,5.17,0,0,1-2.61.66,3.92,3.92,0,0,1-2.85-1,3.42,3.42,0,0,1-1-2.6,3.23,3.23,0,0,1,1.5-2.79,7.11,7.11,0,0,1,4.06-1h2.77v-1.67a2.72,2.72,0,0,0-.87-2.14,3.5,3.5,0,0,0-2.41-.77,6,6,0,0,0-1.91.29,4.13,4.13,0,0,0-1.44.78l-.12,1.7h-1.15v-2.44a7.33,7.33,0,0,1,2.08-1.1,7.84,7.84,0,0,1,2.58-.42,5,5,0,0,1,3.34,1.06,3.76,3.76,0,0,1,1.27,3.06v6.24c0,.25,0,.5,0,.74a5.35,5.35,0,0,0,.07.7l1.25.08v1Zm-4.57-1a5,5,0,0,0,2.66-.7,4.09,4.09,0,0,0,1.66-1.82v-2.54h-2.8a5.17,5.17,0,0,0-3,.79,2.38,2.38,0,0,0-1.13,2,2.14,2.14,0,0,0,.7,1.65A2.85,2.85,0,0,0,459.4,208.12Z"/><path class="cls-9" d="M468.14,191.88v-1h3.27v17.1l1.89.15v1h-5.16v-1l1.89-.15V192Z"/><path class="cls-9" d="M475.08,191.88v-1h3.27v7.77a4.47,4.47,0,0,1,4.11-2.4,3.76,3.76,0,0,1,3,1.24,5.82,5.82,0,0,1,1.06,3.85v6.64l1.9.15v1h-5.18v-1l1.89-.15v-6.66a4.42,4.42,0,0,0-.8-3,2.84,2.84,0,0,0-2.22-.9,3.78,3.78,0,0,0-2.39.76,4.48,4.48,0,0,0-1.41,2v7.75l1.89.15v1h-5.16v-1l1.89-.15V192Z"/><path class="cls-9" d="M490.43,202.59A6.82,6.82,0,0,1,492,198a5.43,5.43,0,0,1,8.06,0,6.86,6.86,0,0,1,1.51,4.59V203a6.87,6.87,0,0,1-1.51,4.6,5.43,5.43,0,0,1-8.06,0,6.83,6.83,0,0,1-1.52-4.6Zm1.39.39a6.1,6.1,0,0,0,1.1,3.7,3.86,3.86,0,0,0,6.11,0,6,6,0,0,0,1.1-3.7v-.39a6.12,6.12,0,0,0-1.1-3.68,3.85,3.85,0,0,0-6.11,0,6.12,6.12,0,0,0-1.1,3.68Z"/><path class="cls-9" d="M514.92,208.18a3.91,3.91,0,0,0,2.43-.79,2.62,2.62,0,0,0,1.06-2.22h1.23l0,.07a3.5,3.5,0,0,1-1.38,2.94,5.17,5.17,0,0,1-3.36,1.19,4.78,4.78,0,0,1-4-1.78,7.15,7.15,0,0,1-1.4-4.56v-.5A7.13,7.13,0,0,1,511,198a4.74,4.74,0,0,1,3.95-1.78,6.26,6.26,0,0,1,2.65.55,5,5,0,0,1,2,1.5l.06,2.76H518.4l-.22-2.25a4.06,4.06,0,0,0-1.39-1,4.51,4.51,0,0,0-1.88-.37,3.35,3.35,0,0,0-3,1.46,6.47,6.47,0,0,0-1,3.67v.5a6.51,6.51,0,0,0,1,3.7A3.33,3.33,0,0,0,514.92,208.18Z"/><path class="cls-9" d="M522.25,202.59a6.82,6.82,0,0,1,1.52-4.59,5.43,5.43,0,0,1,8.06,0,6.87,6.87,0,0,1,1.52,4.59V203a6.88,6.88,0,0,1-1.52,4.6,5.43,5.43,0,0,1-8.06,0,6.83,6.83,0,0,1-1.52-4.6Zm1.39.39a6.1,6.1,0,0,0,1.1,3.7,3.6,3.6,0,0,0,3.07,1.5,3.55,3.55,0,0,0,3-1.5A6,6,0,0,0,532,203v-.39a6.06,6.06,0,0,0-1.11-3.68,3.85,3.85,0,0,0-6.11,0,6.12,6.12,0,0,0-1.1,3.68Z"/><path class="cls-9" d="M535.61,202.59a6.82,6.82,0,0,1,1.52-4.59,5.43,5.43,0,0,1,8.06,0,6.87,6.87,0,0,1,1.52,4.59V203a6.88,6.88,0,0,1-1.52,4.6,5.43,5.43,0,0,1-8.06,0,6.83,6.83,0,0,1-1.52-4.6ZM537,203a6.1,6.1,0,0,0,1.1,3.7,3.6,3.6,0,0,0,3.07,1.5,3.55,3.55,0,0,0,3-1.5,6,6,0,0,0,1.1-3.7v-.39a6.06,6.06,0,0,0-1.1-3.68,3.85,3.85,0,0,0-6.11,0,6.12,6.12,0,0,0-1.1,3.68Z"/><path class="cls-9" d="M548.6,197.48v-1h3l.17,2a4.36,4.36,0,0,1,3.95-2.2,4.07,4.07,0,0,1,3.54,1.82,8.3,8.3,0,0,1,1.28,4.86v.24a7.37,7.37,0,0,1-1.28,4.54,4.15,4.15,0,0,1-3.51,1.7,5,5,0,0,1-2.32-.51,4.24,4.24,0,0,1-1.61-1.45v5.39l1.89.15v1H548.6v-1l1.89-.15V197.64Zm10.6,5.41a7.28,7.28,0,0,0-1-3.94,3.07,3.07,0,0,0-2.78-1.53,3.66,3.66,0,0,0-2.28.68,4.12,4.12,0,0,0-1.31,1.75v6.09a3.69,3.69,0,0,0,1.37,1.64,4,4,0,0,0,2.24.6,3.14,3.14,0,0,0,2.77-1.38,6.4,6.4,0,0,0,1-3.67Z"/><path class="cls-9" d="M568.38,209.37a5,5,0,0,1-3.92-1.76,6.48,6.48,0,0,1-1.55-4.46v-.64a6.61,6.61,0,0,1,1.55-4.51,4.74,4.74,0,0,1,3.73-1.79,4.67,4.67,0,0,1,3.64,1.47,5.71,5.71,0,0,1,1.32,3.94v1.2h-8.86v.33a5.58,5.58,0,0,0,1.13,3.58,3.56,3.56,0,0,0,3,1.45,6,6,0,0,0,2.2-.36,4.36,4.36,0,0,0,1.57-1l.59,1a5.15,5.15,0,0,1-1.78,1.19A6.89,6.89,0,0,1,568.38,209.37Zm-.19-12a3.32,3.32,0,0,0-2.58,1.19,5.21,5.21,0,0,0-1.22,3l0,.06h7.36v-.35a4.07,4.07,0,0,0-1-2.77A3.27,3.27,0,0,0,568.19,197.4Z"/><path class="cls-9" d="M578.63,196.44l.18,2.11v.15a4.45,4.45,0,0,1,1.45-1.83,3.69,3.69,0,0,1,2.19-.66,2.78,2.78,0,0,1,.51,0,2.87,2.87,0,0,1,.42.08l-.19,1.32-1-.07a3.09,3.09,0,0,0-2.15.74,4.14,4.14,0,0,0-1.2,2.05v7.57l1.89.15v1h-5.16v-1l1.89-.15v-10.3l-1.89-.16v-1h3.09Z"/><path class="cls-9" d="M593.84,209.12a11.15,11.15,0,0,1-.2-1.11,7.57,7.57,0,0,1-.06-.95,5.59,5.59,0,0,1-1.85,1.65,5.22,5.22,0,0,1-2.61.66,4,4,0,0,1-2.86-1,3.42,3.42,0,0,1-1-2.6,3.23,3.23,0,0,1,1.5-2.79,7.11,7.11,0,0,1,4.06-1h2.77v-1.67a2.75,2.75,0,0,0-.86-2.14,3.53,3.53,0,0,0-2.42-.77,6.07,6.07,0,0,0-1.91.29,4.13,4.13,0,0,0-1.44.78l-.12,1.7h-1.15v-2.44a7.26,7.26,0,0,1,2.09-1.1,7.76,7.76,0,0,1,2.58-.42,5,5,0,0,1,3.34,1.06,3.78,3.78,0,0,1,1.26,3.06v6.24c0,.25,0,.5,0,.74s0,.47.07.7l1.26.08v1Zm-4.57-1a5,5,0,0,0,2.65-.7,4.09,4.09,0,0,0,1.66-1.82v-2.54h-2.79a5.15,5.15,0,0,0-3,.79,2.37,2.37,0,0,0-1.14,2,2.11,2.11,0,0,0,.71,1.65A2.81,2.81,0,0,0,589.27,208.12Z"/><path class="cls-9" d="M601.47,193.19v3.25h2.76v1.15h-2.76v8.26a2.74,2.74,0,0,0,.44,1.76,1.5,1.5,0,0,0,1.19.53c.23,0,.44,0,.66,0l.73-.1.21,1a3.38,3.38,0,0,1-.84.23,5.72,5.72,0,0,1-1,.09,2.6,2.6,0,0,1-2.06-.85,4,4,0,0,1-.74-2.67v-8.26h-2.15v-1.15h2.15v-3.25Z"/><path class="cls-9" d="M606.69,208.09l1.89-.15v-10.3l-1.89-.16v-1H610v11.5l1.89.15v1h-5.16ZM610,192.81h-1.38v-2H610Z"/><path class="cls-9" d="M617.82,197.48l-1.57.12,3.14,8.34.4,1.49h.07l.44-1.49,3.09-8.34-1.57-.12v-1H626v1l-1.23.11-4.43,11.53h-1.11l-4.44-11.53-1.23-.11v-1h4.22Z"/><path class="cls-9" d="M627.4,202.59a6.82,6.82,0,0,1,1.52-4.59,5.43,5.43,0,0,1,8.06,0,6.87,6.87,0,0,1,1.52,4.59V203a6.88,6.88,0,0,1-1.52,4.6,5,5,0,0,1-4,1.79,5,5,0,0,1-4.05-1.79,6.83,6.83,0,0,1-1.52-4.6Zm1.39.39a6.1,6.1,0,0,0,1.1,3.7,3.61,3.61,0,0,0,3.08,1.5,3.54,3.54,0,0,0,3-1.5,6,6,0,0,0,1.11-3.7v-.39a6.06,6.06,0,0,0-1.11-3.68,3.85,3.85,0,0,0-6.11,0,6.12,6.12,0,0,0-1.1,3.68Z"/><path class="cls-9" d="M642.78,208.56a5.39,5.39,0,0,1-.44,2.11,5.13,5.13,0,0,1-1.19,1.74l-.82-.61a6.3,6.3,0,0,0,.81-1.53,5.3,5.3,0,0,0,.26-1.69v-1.66h1.38Z"/><path class="cls-9" d="M651.08,202.59A6.87,6.87,0,0,1,652.6,198a5.43,5.43,0,0,1,8.06,0,6.87,6.87,0,0,1,1.52,4.59V203a6.88,6.88,0,0,1-1.52,4.6,5,5,0,0,1-4,1.79,5,5,0,0,1-4-1.79,6.88,6.88,0,0,1-1.52-4.6Zm1.39.39a6.1,6.1,0,0,0,1.1,3.7,3.61,3.61,0,0,0,3.08,1.5,3.54,3.54,0,0,0,3-1.5,6,6,0,0,0,1.11-3.7v-.39a6.06,6.06,0,0,0-1.11-3.68,3.85,3.85,0,0,0-6.11,0,6.12,6.12,0,0,0-1.1,3.68Z"/><path class="cls-9" d="M673.54,200.35h-1.13l-.17-1.79a3.35,3.35,0,0,0-1.31-.85,4.94,4.94,0,0,0-1.83-.31,3.41,3.41,0,0,0-2.28.66,2,2,0,0,0-.76,1.56,1.84,1.84,0,0,0,.66,1.45,6.42,6.42,0,0,0,2.61,1,8.5,8.5,0,0,1,3.36,1.37,2.88,2.88,0,0,1,1.11,2.38,3.09,3.09,0,0,1-1.27,2.56,5.39,5.39,0,0,1-3.36,1,7.76,7.76,0,0,1-2.53-.4,6.14,6.14,0,0,1-2-1.1v-2.56h1.12l.2,1.81a3.28,3.28,0,0,0,1.41.81,6.18,6.18,0,0,0,1.78.25,3.78,3.78,0,0,0,2.38-.67,2,2,0,0,0,.87-1.61,2,2,0,0,0-.73-1.56,5.75,5.75,0,0,0-2.61-1.09,8.82,8.82,0,0,1-3.32-1.31,2.67,2.67,0,0,1-1.09-2.28,3.07,3.07,0,0,1,1.22-2.45,4.87,4.87,0,0,1,3.21-1,7.24,7.24,0,0,1,2.52.42,5,5,0,0,1,1.87,1.16Z"/><path class="cls-9" d="M681.73,197.48v-1h3l.17,2a4.37,4.37,0,0,1,4-2.2,4.07,4.07,0,0,1,3.54,1.82,8.3,8.3,0,0,1,1.27,4.86v.24a7.37,7.37,0,0,1-1.27,4.54,4.17,4.17,0,0,1-3.52,1.7,5,5,0,0,1-2.31-.51,4.34,4.34,0,0,1-1.62-1.45v5.39l1.89.15v1h-5.16v-1l1.89-.15V197.64Zm10.6,5.41a7.37,7.37,0,0,0-1-3.94,3.07,3.07,0,0,0-2.78-1.53,3.62,3.62,0,0,0-2.28.68,4.14,4.14,0,0,0-1.32,1.75v6.09a3.78,3.78,0,0,0,1.38,1.64,3.91,3.91,0,0,0,2.24.6,3.15,3.15,0,0,0,2.77-1.38,6.4,6.4,0,0,0,.94-3.67Z"/><path class="cls-9" d="M695.89,208.09l1.89-.15v-10.3l-1.89-.16v-1h3.27v11.5l1.89.15v1h-5.16Zm3.27-15.28h-1.38v-2h1.38Z"/><path class="cls-9" d="M703.1,191.88v-1h3.28v17.1l1.89.15v1H703.1v-1l1.9-.15V192Z"/><path class="cls-9" d="M719.12,209.12c-.09-.43-.16-.8-.2-1.11a7.56,7.56,0,0,1,0-.95,5.73,5.73,0,0,1-1.86,1.65,5.17,5.17,0,0,1-2.61.66,3.92,3.92,0,0,1-2.85-1,3.38,3.38,0,0,1-1-2.6A3.24,3.24,0,0,1,712,203a7.13,7.13,0,0,1,4.06-1h2.78v-1.67a2.72,2.72,0,0,0-.87-2.14,3.51,3.51,0,0,0-2.42-.77,6,6,0,0,0-1.9.29,4.27,4.27,0,0,0-1.45.78l-.11,1.7H711v-2.44a7.2,7.2,0,0,1,2.08-1.1,7.84,7.84,0,0,1,2.58-.42,5,5,0,0,1,3.34,1.06,3.79,3.79,0,0,1,1.27,3.06v6.24c0,.25,0,.5,0,.74a5.35,5.35,0,0,0,.08.7l1.25.08v1Zm-4.57-1a5,5,0,0,0,2.66-.7,4.2,4.2,0,0,0,1.66-1.82v-2.54h-2.8a5.15,5.15,0,0,0-3,.79,2.38,2.38,0,0,0-1.13,2,2.1,2.1,0,0,0,.7,1.65A2.83,2.83,0,0,0,714.55,208.12Z"/><path class="cls-9" d="M726.57,196.44l.17,2.11v.15a4.53,4.53,0,0,1,1.45-1.83,3.69,3.69,0,0,1,2.19-.66,4.05,4.05,0,0,1,.93.12l-.19,1.32-1-.07a3.11,3.11,0,0,0-2.15.74,4.14,4.14,0,0,0-1.2,2.05v7.57l1.89.15v1h-5.16v-1l1.89-.15v-10.3l-1.89-.16v-1h3.1Z"/><path class="cls-9" d="M738.42,209.37a5,5,0,0,1-3.92-1.76,6.43,6.43,0,0,1-1.56-4.46v-.64a6.66,6.66,0,0,1,1.55-4.51,4.75,4.75,0,0,1,3.74-1.79,4.63,4.63,0,0,1,3.63,1.47,5.71,5.71,0,0,1,1.32,3.94v1.2h-8.86v.33a5.63,5.63,0,0,0,1.13,3.58,3.59,3.59,0,0,0,3,1.45,6,6,0,0,0,2.2-.36,4.45,4.45,0,0,0,1.57-1l.59,1a5.1,5.1,0,0,1-1.79,1.19A6.84,6.84,0,0,1,738.42,209.37Zm-.19-12a3.32,3.32,0,0,0-2.58,1.19,5.08,5.08,0,0,0-1.22,3l0,.06h7.35v-.35a4.11,4.11,0,0,0-1-2.77A3.27,3.27,0,0,0,738.23,197.4Z"/><path class="cls-9" d="M754.77,200.35h-1.14l-.16-1.79a3.46,3.46,0,0,0-1.32-.85,4.89,4.89,0,0,0-1.82-.31,3.39,3.39,0,0,0-2.28.66,2,2,0,0,0-.76,1.56,1.86,1.86,0,0,0,.65,1.45,6.42,6.42,0,0,0,2.62,1,8.44,8.44,0,0,1,3.35,1.37,2.88,2.88,0,0,1,1.11,2.38,3.09,3.09,0,0,1-1.27,2.56,5.34,5.34,0,0,1-3.35,1,7.82,7.82,0,0,1-2.54-.4,6,6,0,0,1-2-1.1v-2.56H747l.2,1.81a3.28,3.28,0,0,0,1.41.81,6.18,6.18,0,0,0,1.78.25,3.77,3.77,0,0,0,2.37-.67,2,2,0,0,0,.87-1.61,2,2,0,0,0-.72-1.56,5.79,5.79,0,0,0-2.62-1.09,8.82,8.82,0,0,1-3.32-1.31,2.68,2.68,0,0,1-1.08-2.28,3.06,3.06,0,0,1,1.21-2.45,4.92,4.92,0,0,1,3.22-1,7.24,7.24,0,0,1,2.52.42,5.09,5.09,0,0,1,1.86,1.16Z"/><path class="cls-9" d="M772.05,207.29a4.39,4.39,0,0,1-1.61,1.54,4.76,4.76,0,0,1-2.32.54,4.15,4.15,0,0,1-3.52-1.7,7.41,7.41,0,0,1-1.27-4.54v-.24A8.3,8.3,0,0,1,764.6,198a4,4,0,0,1,3.54-1.82,4.27,4.27,0,0,1,3.87,2.14V192l-1.89-.15v-1h3.29v17.1l1.89.15v1h-3.14Zm-7.32-4.16a6.48,6.48,0,0,0,.91,3.66,3.09,3.09,0,0,0,2.74,1.36,4,4,0,0,0,2.24-.61,4,4,0,0,0,1.39-1.68v-6a4.36,4.36,0,0,0-1.34-1.76,3.6,3.6,0,0,0-2.26-.68,3,3,0,0,0-2.76,1.52,7.57,7.57,0,0,0-.92,3.95Z"/><path class="cls-9" d="M777.43,202.59A6.87,6.87,0,0,1,779,198a5.43,5.43,0,0,1,8.06,0,6.87,6.87,0,0,1,1.52,4.59V203a6.92,6.92,0,0,1-1.51,4.6,5.44,5.44,0,0,1-8.07,0,6.88,6.88,0,0,1-1.52-4.6Zm1.39.39a6.1,6.1,0,0,0,1.1,3.7,3.87,3.87,0,0,0,6.12,0,6.1,6.1,0,0,0,1.1-3.7v-.39a6.06,6.06,0,0,0-1.11-3.68,3.85,3.85,0,0,0-6.11,0,6.12,6.12,0,0,0-1.1,3.68Z"/><path class="cls-9" d="M417.84,220.86a5.78,5.78,0,0,1,4.11,1.36,5.23,5.23,0,0,1,0,7.25,5.78,5.78,0,0,1-4.11,1.36H414v5.91l1.89.15v1h-5.16v-1l1.89-.15V222.05l-1.89-.15v-1h7.12ZM414,229.63h3.85a4.19,4.19,0,0,0,3.14-1.07,3.69,3.69,0,0,0,1-2.7,3.75,3.75,0,0,0-1-2.72,4.13,4.13,0,0,0-3.14-1.09H414Z"/><path class="cls-9" d="M431.2,238.17a5,5,0,0,1-3.92-1.76,6.48,6.48,0,0,1-1.55-4.46v-.64a6.61,6.61,0,0,1,1.55-4.51A4.74,4.74,0,0,1,431,225a4.66,4.66,0,0,1,3.63,1.47,5.71,5.71,0,0,1,1.32,3.94v1.19h-8.86V232a5.58,5.58,0,0,0,1.13,3.58,3.56,3.56,0,0,0,3,1.45,6,6,0,0,0,2.2-.36,4.27,4.27,0,0,0,1.57-1l.59,1a5.15,5.15,0,0,1-1.78,1.19A6.89,6.89,0,0,1,431.2,238.17Zm-.18-12a3.31,3.31,0,0,0-2.58,1.19,5.15,5.15,0,0,0-1.23,3l0,.06h7.36v-.35a4.07,4.07,0,0,0-1-2.77A3.27,3.27,0,0,0,431,226.2Z"/><path class="cls-9" d="M438.19,236.89l1.89-.15v-10.3l-1.89-.16v-1h3.12l.13,2.21A4.3,4.3,0,0,1,445.5,225a3.85,3.85,0,0,1,3.11,1.26,6,6,0,0,1,1.07,3.93v6.54l1.89.15v1h-5.18v-1l1.89-.15v-6.53a4.61,4.61,0,0,0-.8-3.08,2.89,2.89,0,0,0-2.29-.91,3.58,3.58,0,0,0-2.39.78,4.36,4.36,0,0,0-1.32,2.07v7.67l1.89.15v1h-5.18Z"/><path class="cls-9" d="M462.85,229.15h-1.14l-.16-1.79a3.46,3.46,0,0,0-1.32-.85,4.85,4.85,0,0,0-1.82-.31,3.41,3.41,0,0,0-2.28.66,2,2,0,0,0-.76,1.56,1.86,1.86,0,0,0,.65,1.45,6.42,6.42,0,0,0,2.62,1,8.44,8.44,0,0,1,3.35,1.37,2.88,2.88,0,0,1,1.11,2.38,3.1,3.1,0,0,1-1.26,2.56,5.39,5.39,0,0,1-3.36,1,7.87,7.87,0,0,1-2.54-.4,6,6,0,0,1-2-1.1v-2.56h1.12l.2,1.81a3.28,3.28,0,0,0,1.41.81,6.18,6.18,0,0,0,1.78.25,3.8,3.8,0,0,0,2.38-.67,2,2,0,0,0,.87-1.61,2.06,2.06,0,0,0-.73-1.56,5.8,5.8,0,0,0-2.61-1.09,8.87,8.87,0,0,1-3.33-1.31,2.68,2.68,0,0,1-1.08-2.28A3,3,0,0,1,455.2,226a4.87,4.87,0,0,1,3.21-1,7.24,7.24,0,0,1,2.52.42,5.09,5.09,0,0,1,1.86,1.16Z"/><path class="cls-9" d="M474.3,237.92a11.15,11.15,0,0,1-.2-1.11,7.57,7.57,0,0,1-.06-.95,5.59,5.59,0,0,1-1.85,1.65,5.22,5.22,0,0,1-2.61.66,4,4,0,0,1-2.86-1,3.42,3.42,0,0,1-1-2.6,3.23,3.23,0,0,1,1.5-2.79,7.11,7.11,0,0,1,4.06-1H474v-1.67a2.75,2.75,0,0,0-.86-2.14,3.53,3.53,0,0,0-2.42-.77,6.07,6.07,0,0,0-1.91.29,4.13,4.13,0,0,0-1.44.78l-.12,1.7h-1.15v-2.44a7.26,7.26,0,0,1,2.09-1.1,7.76,7.76,0,0,1,2.58-.42,5,5,0,0,1,3.34,1.06,3.78,3.78,0,0,1,1.26,3.06v6.23c0,.26,0,.51,0,.75s0,.47.07.7l1.26.08v1Zm-4.57-1a5,5,0,0,0,2.65-.7A4.09,4.09,0,0,0,474,234.4v-2.54h-2.79a5.15,5.15,0,0,0-3,.79,2.37,2.37,0,0,0-1.14,2,2.11,2.11,0,0,0,.71,1.65A2.81,2.81,0,0,0,469.73,236.92Z"/><path class="cls-9" d="M478.44,226.28v-1h3.12l.12,2.1a4.51,4.51,0,0,1,1.62-1.73,4.6,4.6,0,0,1,2.4-.6,3.6,3.6,0,0,1,3.78,2.87,4.85,4.85,0,0,1,1.61-2.11,4.24,4.24,0,0,1,2.56-.76,3.75,3.75,0,0,1,3.1,1.34,6.56,6.56,0,0,1,1.1,4.17v6.2l1.89.17v1h-5.18v-1l1.89-.17V230.5a5.22,5.22,0,0,0-.82-3.31,2.85,2.85,0,0,0-2.28-1,3.07,3.07,0,0,0-2.5,1.05,5,5,0,0,0-1.08,2.66v.17a1.34,1.34,0,0,1,0,.21v6.43l1.89.15v1H486.5v-1l1.89-.15V230.5a5.16,5.16,0,0,0-.83-3.29,2.83,2.83,0,0,0-2.28-1,3.47,3.47,0,0,0-2.35.76,4,4,0,0,0-1.21,2v7.73l1.89.15v1h-5.17v-1l1.89-.15v-10.3Z"/><path class="cls-9" d="M506.87,238.17a5,5,0,0,1-3.92-1.76A6.48,6.48,0,0,1,501.4,232v-.64A6.61,6.61,0,0,1,503,226.8a4.75,4.75,0,0,1,3.74-1.79,4.63,4.63,0,0,1,3.63,1.47,5.71,5.71,0,0,1,1.32,3.94v1.19h-8.86V232a5.58,5.58,0,0,0,1.13,3.58,3.56,3.56,0,0,0,3,1.45,6.09,6.09,0,0,0,2.21-.36,4.32,4.32,0,0,0,1.56-1l.59,1a5.06,5.06,0,0,1-1.78,1.19A6.89,6.89,0,0,1,506.87,238.17Zm-.18-12a3.32,3.32,0,0,0-2.58,1.19,5.15,5.15,0,0,0-1.23,3l0,.06h7.35v-.35a4.11,4.11,0,0,0-1-2.77A3.3,3.3,0,0,0,506.69,226.2Z"/><path class="cls-9" d="M513.87,236.89l1.89-.15v-10.3l-1.89-.16v-1H517l.13,2.21a4.3,4.3,0,0,1,4.06-2.44,3.85,3.85,0,0,1,3.11,1.26,6,6,0,0,1,1.07,3.93v6.54l1.89.15v1h-5.18v-1l1.89-.15v-6.53a4.61,4.61,0,0,0-.8-3.08,2.89,2.89,0,0,0-2.29-.91,3.54,3.54,0,0,0-2.38.78,4.31,4.31,0,0,0-1.33,2.07v7.67l1.89.15v1h-5.17Z"/><path class="cls-9" d="M532.61,222v3.25h2.76v1.15h-2.76v8.26a2.74,2.74,0,0,0,.44,1.76,1.5,1.5,0,0,0,1.19.53c.23,0,.44,0,.66,0l.73-.1.21,1a3.38,3.38,0,0,1-.84.23,5.72,5.72,0,0,1-1,.09,2.6,2.6,0,0,1-2.06-.85,4,4,0,0,1-.74-2.67v-8.26h-2.15v-1.15h2.15V222Z"/><path class="cls-9" d="M537.69,231.39a6.8,6.8,0,0,1,1.52-4.59,5.43,5.43,0,0,1,8.06,0,6.84,6.84,0,0,1,1.51,4.59v.39a6.87,6.87,0,0,1-1.51,4.6,5.43,5.43,0,0,1-8.06,0,6.83,6.83,0,0,1-1.52-4.6Zm1.39.39a6,6,0,0,0,1.1,3.7,3.86,3.86,0,0,0,6.11,0,6,6,0,0,0,1.1-3.7v-.39a6.12,6.12,0,0,0-1.1-3.68,3.85,3.85,0,0,0-6.11,0,6.06,6.06,0,0,0-1.1,3.68Z"/><path class="cls-9" d="M570,226.2h-1.08l-.2-2.59a4.91,4.91,0,0,0-1.75-1.31,5.92,5.92,0,0,0-2.49-.49,5.45,5.45,0,0,0-4.5,2.08,8.3,8.3,0,0,0-1.67,5.37v.25a8.42,8.42,0,0,0,1.65,5.38,5.28,5.28,0,0,0,4.35,2.09,6.57,6.57,0,0,0,2.59-.5,4.79,4.79,0,0,0,1.82-1.3l.2-2.59H570v3a6,6,0,0,1-2.3,1.84,7.67,7.67,0,0,1-3.39.74,6.64,6.64,0,0,1-5.32-2.44,9.3,9.3,0,0,1-2.06-6.22v-.23A9.33,9.33,0,0,1,559,223a6.72,6.72,0,0,1,5.39-2.43,7.28,7.28,0,0,1,3.35.75A6.05,6.05,0,0,1,570,223.2Z"/><path class="cls-9" d="M572.47,231.39A6.84,6.84,0,0,1,574,226.8a5.43,5.43,0,0,1,8.06,0,6.8,6.8,0,0,1,1.52,4.59v.39a6.87,6.87,0,0,1-1.51,4.6,5,5,0,0,1-4,1.79,5.07,5.07,0,0,1-4-1.79,6.87,6.87,0,0,1-1.51-4.6Zm1.39.39a6,6,0,0,0,1.1,3.7,3.86,3.86,0,0,0,6.11,0,6,6,0,0,0,1.1-3.7v-.39a6.06,6.06,0,0,0-1.11-3.68,3.84,3.84,0,0,0-6.1,0,6.06,6.06,0,0,0-1.1,3.68Z"/><path class="cls-9" d="M585.52,226.28v-1h3.12l.13,2.1a4.48,4.48,0,0,1,1.61-1.73,4.62,4.62,0,0,1,2.4-.6,3.6,3.6,0,0,1,3.78,2.87,5,5,0,0,1,1.62-2.11,4.22,4.22,0,0,1,2.56-.76,3.75,3.75,0,0,1,3.1,1.34,6.56,6.56,0,0,1,1.1,4.17v6.2l1.89.17v1h-5.19v-1l1.89-.17V230.5a5.23,5.23,0,0,0-.81-3.31,2.85,2.85,0,0,0-2.28-1,3.06,3.06,0,0,0-2.5,1.05,5,5,0,0,0-1.09,2.66.91.91,0,0,0,0,.17v6.64l1.9.15v1h-5.18v-1l1.89-.15V230.5a5.1,5.1,0,0,0-.83-3.29,2.8,2.8,0,0,0-2.27-1A3.46,3.46,0,0,0,590,227a4,4,0,0,0-1.21,2v7.73l1.89.15v1h-5.18v-1l1.89-.15v-10.3Z"/><path class="cls-9" d="M608.17,226.28v-1h3.05l.18,2a4.47,4.47,0,0,1,1.63-1.63,4.56,4.56,0,0,1,2.32-.57,4.07,4.07,0,0,1,3.54,1.82,8.3,8.3,0,0,1,1.27,4.86v.24a7.37,7.37,0,0,1-1.27,4.54,4.16,4.16,0,0,1-3.52,1.7,5,5,0,0,1-2.31-.51,4.34,4.34,0,0,1-1.62-1.45v5.39l1.89.15v1h-5.16v-1l1.89-.15V226.44Zm10.6,5.41a7.37,7.37,0,0,0-.95-3.94,3.07,3.07,0,0,0-2.78-1.53,3.62,3.62,0,0,0-2.28.68,4.22,4.22,0,0,0-1.32,1.75v6.09a3.78,3.78,0,0,0,1.38,1.64,3.94,3.94,0,0,0,2.24.6,3.15,3.15,0,0,0,2.77-1.38,6.4,6.4,0,0,0,.94-3.67Z"/><path class="cls-9" d="M631.64,235.83a4.28,4.28,0,0,1-1.61,1.73,4.73,4.73,0,0,1-2.42.61,3.81,3.81,0,0,1-3.1-1.36,6.57,6.57,0,0,1-1.12-4.22v-6.15l-1.56-.16v-1h2.94v7.37a5.51,5.51,0,0,0,.78,3.33,2.65,2.65,0,0,0,2.22,1,4.07,4.07,0,0,0,2.51-.71,3.76,3.76,0,0,0,1.32-1.94v-7.86l-1.79-.16v-1H633v11.5l1.68.15v1h-2.9Z"/><path class="cls-9" d="M639.9,222v3.25h2.76v1.15H639.9v8.26a2.68,2.68,0,0,0,.45,1.76,1.48,1.48,0,0,0,1.19.53c.22,0,.44,0,.65,0l.74-.1.21,1a3.47,3.47,0,0,1-.85.23,5.55,5.55,0,0,1-1,.09,2.58,2.58,0,0,1-2-.85,3.94,3.94,0,0,1-.74-2.67v-8.26h-2.16v-1.15h2.16V222Z"/><path class="cls-9" d="M653.88,237.92a11.15,11.15,0,0,1-.2-1.11,7.57,7.57,0,0,1-.06-.95,5.59,5.59,0,0,1-1.85,1.65,5.22,5.22,0,0,1-2.61.66,4,4,0,0,1-2.86-1,3.41,3.41,0,0,1-1-2.6,3.22,3.22,0,0,1,1.49-2.79,7.11,7.11,0,0,1,4.06-1h2.77v-1.67a2.75,2.75,0,0,0-.86-2.14,3.53,3.53,0,0,0-2.42-.77,6.07,6.07,0,0,0-1.91.29,4.31,4.31,0,0,0-1.44.78l-.12,1.7h-1.15l0-2.44a7.2,7.2,0,0,1,2.08-1.1,7.84,7.84,0,0,1,2.58-.42,5,5,0,0,1,3.34,1.06,3.78,3.78,0,0,1,1.26,3.06v6.23c0,.26,0,.51,0,.75a5.35,5.35,0,0,0,.08.7l1.25.08v1Zm-4.57-1a5,5,0,0,0,2.65-.7,4.09,4.09,0,0,0,1.66-1.82v-2.54h-2.79a5.15,5.15,0,0,0-3,.79,2.36,2.36,0,0,0-1.13,2,2.1,2.1,0,0,0,.7,1.65A2.83,2.83,0,0,0,649.31,236.92Z"/><path class="cls-9" d="M663.68,237a3.91,3.91,0,0,0,2.43-.79,2.62,2.62,0,0,0,1.06-2.22h1.23l0,.07A3.48,3.48,0,0,1,667,237a5.13,5.13,0,0,1-3.35,1.19,4.78,4.78,0,0,1-4-1.78,7.15,7.15,0,0,1-1.4-4.56v-.5a7.13,7.13,0,0,1,1.4-4.54,4.73,4.73,0,0,1,3.94-1.78,6.27,6.27,0,0,1,2.66.55,5.09,5.09,0,0,1,2,1.5l.06,2.76h-1.18l-.22-2.25a4.16,4.16,0,0,0-1.39-1,4.52,4.52,0,0,0-1.89-.37,3.33,3.33,0,0,0-3,1.46,6.47,6.47,0,0,0-1,3.67v.5a6.58,6.58,0,0,0,1,3.7A3.35,3.35,0,0,0,663.68,237Z"/><path class="cls-9" d="M670.91,236.89l1.89-.15v-10.3l-1.89-.16v-1h3.27v11.5l1.89.15v1h-5.16Zm3.27-15.28H672.8v-2h1.38Z"/><path class="cls-9" d="M678.41,231.39a6.8,6.8,0,0,1,1.52-4.59,5.42,5.42,0,0,1,8.05,0,6.8,6.8,0,0,1,1.52,4.59v.39a6.87,6.87,0,0,1-1.51,4.6,5.43,5.43,0,0,1-8.06,0,6.83,6.83,0,0,1-1.52-4.6Zm1.39.39a6,6,0,0,0,1.1,3.7,3.86,3.86,0,0,0,6.11,0,6,6,0,0,0,1.1-3.7v-.39a6.12,6.12,0,0,0-1.1-3.68,3.85,3.85,0,0,0-6.11,0,6.06,6.06,0,0,0-1.1,3.68Z"/><path class="cls-9" d="M691.51,236.89l1.89-.15v-10.3l-1.89-.16v-1h3.12l.13,2.21a4.48,4.48,0,0,1,1.63-1.81,4.53,4.53,0,0,1,2.43-.63,3.86,3.86,0,0,1,3.11,1.26A6,6,0,0,1,703,230.2v6.54l1.89.15v1h-5.17v-1l1.89-.15v-6.53a4.6,4.6,0,0,0-.81-3.08,2.88,2.88,0,0,0-2.29-.91,3.57,3.57,0,0,0-2.38.78,4.38,4.38,0,0,0-1.33,2.07v7.67l1.89.15v1h-5.17Z"/><path class="cls-9" d="M715.73,237.92a11.15,11.15,0,0,1-.2-1.11,7.57,7.57,0,0,1-.06-.95,5.59,5.59,0,0,1-1.85,1.65,5.22,5.22,0,0,1-2.61.66,4,4,0,0,1-2.86-1,3.42,3.42,0,0,1-1-2.6,3.23,3.23,0,0,1,1.5-2.79,7.11,7.11,0,0,1,4.06-1h2.77v-1.67a2.75,2.75,0,0,0-.86-2.14,3.53,3.53,0,0,0-2.42-.77,6.07,6.07,0,0,0-1.91.29,4.13,4.13,0,0,0-1.44.78l-.12,1.7h-1.15v-2.44a7.26,7.26,0,0,1,2.09-1.1,7.76,7.76,0,0,1,2.58-.42,5,5,0,0,1,3.34,1.06,3.78,3.78,0,0,1,1.26,3.06v6.23c0,.26,0,.51,0,.75a5.35,5.35,0,0,0,.07.7l1.26.08v1Zm-4.57-1a5,5,0,0,0,2.65-.7,4.09,4.09,0,0,0,1.66-1.82v-2.54h-2.79a5.2,5.2,0,0,0-3,.79,2.38,2.38,0,0,0-1.13,2,2.11,2.11,0,0,0,.71,1.65A2.81,2.81,0,0,0,711.16,236.92Z"/><path class="cls-9" d="M719.89,220.68v-1h3.27v17.1l1.89.15v1h-5.16v-1l1.89-.15V220.83Z"/><path class="cls-9" d="M742.12,229.15H741l-.16-1.79a3.5,3.5,0,0,0-1.31-.85,4.94,4.94,0,0,0-1.83-.31,3.41,3.41,0,0,0-2.28.66,2,2,0,0,0-.76,1.56,1.84,1.84,0,0,0,.66,1.45,6.29,6.29,0,0,0,2.61,1,8.44,8.44,0,0,1,3.35,1.37,2.89,2.89,0,0,1,1.12,2.38,3.11,3.11,0,0,1-1.27,2.56,5.39,5.39,0,0,1-3.36,1,7.87,7.87,0,0,1-2.54-.4,6,6,0,0,1-2-1.1v-2.56h1.12l.2,1.81a3.28,3.28,0,0,0,1.41.81,6.18,6.18,0,0,0,1.78.25,3.8,3.8,0,0,0,2.38-.67,2,2,0,0,0,.87-1.61,2.06,2.06,0,0,0-.73-1.56,5.75,5.75,0,0,0-2.61-1.09,8.87,8.87,0,0,1-3.33-1.31,2.68,2.68,0,0,1-1.08-2.28,3,3,0,0,1,1.22-2.45,4.87,4.87,0,0,1,3.21-1,7.24,7.24,0,0,1,2.52.42,5.09,5.09,0,0,1,1.86,1.16Z"/><path class="cls-9" d="M744.9,231.39a6.85,6.85,0,0,1,1.52-4.59,5.43,5.43,0,0,1,8.06,0,6.8,6.8,0,0,1,1.52,4.59v.39a6.87,6.87,0,0,1-1.51,4.6,5.44,5.44,0,0,1-8.07,0,6.88,6.88,0,0,1-1.52-4.6Zm1.4.39a6,6,0,0,0,1.1,3.7,3.86,3.86,0,0,0,6.11,0,6.1,6.1,0,0,0,1.1-3.7v-.39a6.06,6.06,0,0,0-1.11-3.68,3.84,3.84,0,0,0-6.1,0,6.06,6.06,0,0,0-1.1,3.68Z"/><path class="cls-9" d="M769.05,231.93a7.37,7.37,0,0,1-1.28,4.54,4.15,4.15,0,0,1-3.51,1.7,4.84,4.84,0,0,1-2.38-.56,4.33,4.33,0,0,1-1.61-1.6l-.15,1.91h-1.18V220.83l-1.89-.15v-1h3.27v7.59a4.29,4.29,0,0,1,3.92-2.22,4.06,4.06,0,0,1,3.53,1.82,8.3,8.3,0,0,1,1.28,4.86Zm-1.4-.24a7.47,7.47,0,0,0-.93-3.95,3,3,0,0,0-2.74-1.52,3.63,3.63,0,0,0-2.35.73,4.35,4.35,0,0,0-1.31,1.86v5.73a4,4,0,0,0,1.38,1.76,3.93,3.93,0,0,0,2.3.65,3.09,3.09,0,0,0,2.73-1.36,6.48,6.48,0,0,0,.92-3.66Z"/><path class="cls-9" d="M774.41,225.24l.17,2.11v.15a4.47,4.47,0,0,1,1.46-1.83,3.63,3.63,0,0,1,2.18-.66,4.05,4.05,0,0,1,.93.12l-.18,1.32-1-.07a3.11,3.11,0,0,0-2.15.74,4.14,4.14,0,0,0-1.2,2v7.57l1.89.15v1h-5.16v-1l1.89-.15v-10.3l-1.89-.16v-1h3.1Z"/><path class="cls-9" d="M786.26,238.17a5,5,0,0,1-3.92-1.76,6.43,6.43,0,0,1-1.55-4.46v-.64a6.65,6.65,0,0,1,1.54-4.51,4.77,4.77,0,0,1,3.74-1.79,4.63,4.63,0,0,1,3.63,1.47,5.66,5.66,0,0,1,1.33,3.94v1.19h-8.86V232a5.58,5.58,0,0,0,1.13,3.58,3.56,3.56,0,0,0,3,1.45,6,6,0,0,0,2.2-.36,4.36,4.36,0,0,0,1.57-1l.59,1a5.1,5.1,0,0,1-1.79,1.19A6.8,6.8,0,0,1,786.26,238.17Zm-.19-12a3.32,3.32,0,0,0-2.58,1.19,5.14,5.14,0,0,0-1.22,3l0,.06h7.36v-.35a4.07,4.07,0,0,0-1-2.77A3.27,3.27,0,0,0,786.07,226.2Z"/><path class="cls-9" d="M411,260.19a6.87,6.87,0,0,1,1.52-4.59,5.43,5.43,0,0,1,8.06,0,6.87,6.87,0,0,1,1.52,4.59v.39a6.87,6.87,0,0,1-1.51,4.6,5.44,5.44,0,0,1-8.07,0,6.88,6.88,0,0,1-1.52-4.6Zm1.39.39a6,6,0,0,0,1.11,3.7,3.86,3.86,0,0,0,6.11,0,6.1,6.1,0,0,0,1.1-3.7v-.39a6.06,6.06,0,0,0-1.11-3.68,3.61,3.61,0,0,0-3.06-1.51,3.57,3.57,0,0,0-3,1.51,6.06,6.06,0,0,0-1.11,3.68Z"/><path class="cls-9" d="M433.49,258h-1.14l-.16-1.79a3.46,3.46,0,0,0-1.32-.85A4.94,4.94,0,0,0,429,255a3.36,3.36,0,0,0-2.27.66,2,2,0,0,0-.76,1.56,1.83,1.83,0,0,0,.65,1.45,6.42,6.42,0,0,0,2.62,1,8.44,8.44,0,0,1,3.35,1.37,2.88,2.88,0,0,1,1.11,2.38,3.07,3.07,0,0,1-1.27,2.56,5.37,5.37,0,0,1-3.36,1,7.54,7.54,0,0,1-2.53-.4,6.14,6.14,0,0,1-2-1.1v-2.56h1.13l.19,1.81a3.4,3.4,0,0,0,1.41.81,6.22,6.22,0,0,0,1.78.25,3.78,3.78,0,0,0,2.38-.67,2,2,0,0,0,.87-1.61,2.05,2.05,0,0,0-.72-1.56,5.85,5.85,0,0,0-2.62-1.09,8.65,8.65,0,0,1-3.32-1.31,2.69,2.69,0,0,1-1.09-2.28,3.07,3.07,0,0,1,1.22-2.45,4.87,4.87,0,0,1,3.21-1,7.3,7.3,0,0,1,2.53.42,5.09,5.09,0,0,1,1.86,1.16Z"/><path class="cls-9" d="M442,260.49a8.38,8.38,0,0,1,1.27-4.86,4.07,4.07,0,0,1,3.55-1.82,4.27,4.27,0,0,1,3.85,2.11l.14-1.88h1.21V270.4l1.89.15v1.05h-5.17v-1.05l1.89-.15v-5.34a4.24,4.24,0,0,1-1.6,1.41,4.83,4.83,0,0,1-2.24.5,4.16,4.16,0,0,1-3.52-1.7,7.47,7.47,0,0,1-1.27-4.54Zm1.41.24a6.58,6.58,0,0,0,.91,3.68,3.07,3.07,0,0,0,2.74,1.37,3.83,3.83,0,0,0,2.19-.59,3.92,3.92,0,0,0,1.38-1.62v-6.19a4.47,4.47,0,0,0-1.35-1.71,3.45,3.45,0,0,0-2.2-.67,3,3,0,0,0-2.75,1.53,7.64,7.64,0,0,0-.92,4Z"/><path class="cls-9" d="M464.53,264.63a4.23,4.23,0,0,1-1.62,1.73,4.69,4.69,0,0,1-2.41.61,3.83,3.83,0,0,1-3.11-1.36,6.63,6.63,0,0,1-1.12-4.22v-6.15l-1.55-.16v-1h2.93v7.37a5.5,5.5,0,0,0,.79,3.33,2.65,2.65,0,0,0,2.22,1,4.07,4.07,0,0,0,2.51-.71,3.65,3.65,0,0,0,1.31-1.94v-7.86l-1.78-.16v-1h3.18v11.5l1.68.15v1h-2.9Z"/><path class="cls-9" d="M478.26,266.72a10.8,10.8,0,0,1-.19-1.11,7.57,7.57,0,0,1-.06-.95,5.63,5.63,0,0,1-1.86,1.65,5.17,5.17,0,0,1-2.61.66,4,4,0,0,1-2.85-1,3.46,3.46,0,0,1-1-2.61,3.23,3.23,0,0,1,1.5-2.79,7.09,7.09,0,0,1,4.06-1H478v-1.67a2.72,2.72,0,0,0-.87-2.14,3.5,3.5,0,0,0-2.41-.77,6,6,0,0,0-1.91.29,4.27,4.27,0,0,0-1.45.78l-.11,1.7h-1.15v-2.44a7.33,7.33,0,0,1,2.08-1.1,7.84,7.84,0,0,1,2.58-.42,5,5,0,0,1,3.34,1.06,3.76,3.76,0,0,1,1.27,3.06v6.24c0,.25,0,.5,0,.74a5.35,5.35,0,0,0,.07.7l1.25.08v1Zm-4.57-1a5,5,0,0,0,2.66-.7A4.14,4.14,0,0,0,478,263.2v-2.54h-2.8a5.24,5.24,0,0,0-3,.79,2.38,2.38,0,0,0-1.13,2,2.14,2.14,0,0,0,.7,1.65A2.78,2.78,0,0,0,473.69,265.72Z"/><path class="cls-9" d="M482.61,265.69l1.89-.15v-10.3l-1.89-.16v-1h3.27v11.5l1.89.15v1h-5.16Zm3.27-15.28H484.5v-2h1.38Z"/><path class="cls-9" d="M499.21,258h-1.14l-.16-1.79a3.46,3.46,0,0,0-1.32-.85,4.93,4.93,0,0,0-1.82-.31,3.37,3.37,0,0,0-2.28.66,2,2,0,0,0-.76,1.56,1.86,1.86,0,0,0,.65,1.45,6.42,6.42,0,0,0,2.62,1,8.44,8.44,0,0,1,3.35,1.37,2.88,2.88,0,0,1,1.11,2.38,3.07,3.07,0,0,1-1.27,2.56,5.34,5.34,0,0,1-3.35,1,7.56,7.56,0,0,1-2.54-.4,6.14,6.14,0,0,1-2-1.1v-2.56h1.13l.2,1.81a3.28,3.28,0,0,0,1.41.81,6.13,6.13,0,0,0,1.78.25,3.77,3.77,0,0,0,2.37-.67,2,2,0,0,0,.87-1.61,2.05,2.05,0,0,0-.72-1.56,5.85,5.85,0,0,0-2.62-1.09,8.65,8.65,0,0,1-3.32-1.31,2.68,2.68,0,0,1-1.08-2.28,3.06,3.06,0,0,1,1.21-2.45,4.92,4.92,0,0,1,3.22-1,7.24,7.24,0,0,1,2.52.42,5.09,5.09,0,0,1,1.86,1.16Z"/><path class="cls-9" d="M513.3,267a5,5,0,0,1-3.92-1.76,6.43,6.43,0,0,1-1.56-4.45v-.65a6.66,6.66,0,0,1,1.55-4.51,4.75,4.75,0,0,1,3.74-1.79,4.63,4.63,0,0,1,3.63,1.47,5.71,5.71,0,0,1,1.32,3.94v1.2H509.2v.34a5.67,5.67,0,0,0,1.13,3.58,3.61,3.61,0,0,0,3,1.44,6,6,0,0,0,2.2-.36,4.45,4.45,0,0,0,1.57-1l.59,1a5.1,5.1,0,0,1-1.79,1.19A6.84,6.84,0,0,1,513.3,267Zm-.19-12a3.32,3.32,0,0,0-2.58,1.19,5.08,5.08,0,0,0-1.22,3l0,.06h7.35v-.35a4.11,4.11,0,0,0-1-2.77A3.27,3.27,0,0,0,513.11,255Z"/><path class="cls-9" d="M529.77,264.63a4.37,4.37,0,0,1-1.62,1.73,4.73,4.73,0,0,1-2.42.61,3.81,3.81,0,0,1-3.1-1.36,6.57,6.57,0,0,1-1.12-4.22v-6.15l-1.56-.16v-1h2.94v7.37a5.51,5.51,0,0,0,.78,3.33,2.65,2.65,0,0,0,2.22,1,4.07,4.07,0,0,0,2.51-.71,3.66,3.66,0,0,0,1.32-1.94v-7.86l-1.79-.16v-1h3.18v11.5l1.68.15v1h-2.9Z"/><path class="cls-9" d="M540.31,255.08v-1h3.12l.13,2.1a4.32,4.32,0,0,1,1.61-1.72,4.51,4.51,0,0,1,2.4-.61,3.62,3.62,0,0,1,3.78,2.87,5,5,0,0,1,1.62-2.11,4.21,4.21,0,0,1,2.55-.76,3.82,3.82,0,0,1,3.11,1.34,6.57,6.57,0,0,1,1.09,4.18v6.19l1.89.17v1h-5.18v-1l1.89-.17V259.3a5.16,5.16,0,0,0-.82-3.31,2.83,2.83,0,0,0-2.28-1,3.08,3.08,0,0,0-2.5,1,5,5,0,0,0-1.08,2.66v.17a1.34,1.34,0,0,1,0,.21v6.43l1.89.15v1h-5.17v-1l1.89-.15V259.3a5.13,5.13,0,0,0-.83-3.28,2.81,2.81,0,0,0-2.28-1,3.47,3.47,0,0,0-2.35.76,4,4,0,0,0-1.21,2v7.73l1.89.15v1h-5.17v-1l1.89-.15v-10.3Z"/><path class="cls-9" d="M568.74,267a5,5,0,0,1-3.92-1.76,6.47,6.47,0,0,1-1.55-4.45v-.65a6.66,6.66,0,0,1,1.55-4.51,4.75,4.75,0,0,1,3.74-1.79,4.63,4.63,0,0,1,3.63,1.47,5.71,5.71,0,0,1,1.32,3.94v1.2h-8.86v.34a5.67,5.67,0,0,0,1.13,3.58,3.58,3.58,0,0,0,3,1.44,6.05,6.05,0,0,0,2.21-.36,4.32,4.32,0,0,0,1.56-1l.59,1a5.06,5.06,0,0,1-1.78,1.19A6.89,6.89,0,0,1,568.74,267Zm-.18-12a3.32,3.32,0,0,0-2.58,1.19,5.15,5.15,0,0,0-1.23,3l0,.06h7.35v-.35a4.11,4.11,0,0,0-1-2.77A3.27,3.27,0,0,0,568.56,255Z"/><path class="cls-9" d="M590.43,266.72c-.09-.43-.16-.8-.2-1.11a7.56,7.56,0,0,1-.05-.95,5.73,5.73,0,0,1-1.86,1.65,5.17,5.17,0,0,1-2.61.66,4,4,0,0,1-2.85-1,3.46,3.46,0,0,1-1-2.61,3.23,3.23,0,0,1,1.5-2.79,7.08,7.08,0,0,1,4-1h2.78v-1.67a2.72,2.72,0,0,0-.87-2.14,3.51,3.51,0,0,0-2.42-.77,6,6,0,0,0-1.9.29,4.27,4.27,0,0,0-1.45.78l-.11,1.7h-1.15v-2.44a7.2,7.2,0,0,1,2.08-1.1,7.84,7.84,0,0,1,2.58-.42,5,5,0,0,1,3.34,1.06,3.79,3.79,0,0,1,1.27,3.06v6.24c0,.25,0,.5,0,.74a5.35,5.35,0,0,0,.08.7l1.25.08v1Zm-4.57-1a5,5,0,0,0,2.66-.7,4.14,4.14,0,0,0,1.66-1.82v-2.54h-2.8a5.22,5.22,0,0,0-3,.79,2.38,2.38,0,0,0-1.13,2,2.1,2.1,0,0,0,.7,1.65A2.78,2.78,0,0,0,585.86,265.72Z"/><path class="cls-9" d="M594.5,255.08v-1h3l.18,2a4.52,4.52,0,0,1,1.62-1.63,4.62,4.62,0,0,1,2.33-.57,4.07,4.07,0,0,1,3.54,1.82,8.3,8.3,0,0,1,1.27,4.86v.24a7.37,7.37,0,0,1-1.27,4.54,4.17,4.17,0,0,1-3.52,1.7,5,5,0,0,1-2.31-.51,4.34,4.34,0,0,1-1.62-1.45v5.39l1.89.15v1.05H594.5v-1.05l1.89-.15V255.24Zm10.6,5.41a7.37,7.37,0,0,0-1-3.94,3.07,3.07,0,0,0-2.78-1.53,3.62,3.62,0,0,0-2.28.68,4.14,4.14,0,0,0-1.32,1.75v6.09a3.86,3.86,0,0,0,1.38,1.65,4,4,0,0,0,2.24.59,3.15,3.15,0,0,0,2.77-1.38,6.38,6.38,0,0,0,.94-3.67Z"/><path class="cls-9" d="M608.75,260.19a6.87,6.87,0,0,1,1.52-4.59,5.43,5.43,0,0,1,8.06,0,6.82,6.82,0,0,1,1.52,4.59v.39a6.87,6.87,0,0,1-1.51,4.6,5,5,0,0,1-4,1.79,5.07,5.07,0,0,1-4.05-1.79,6.88,6.88,0,0,1-1.52-4.6Zm1.4.39a6,6,0,0,0,1.1,3.7,3.86,3.86,0,0,0,6.11,0,6.1,6.1,0,0,0,1.1-3.7v-.39a6.06,6.06,0,0,0-1.11-3.68,3.84,3.84,0,0,0-6.1,0,6.06,6.06,0,0,0-1.1,3.68Z"/><path class="cls-9" d="M622,265.69l1.89-.15v-10.3l-1.89-.16v-1h3.27v11.5l1.89.15v1H622Zm3.27-15.28h-1.38v-2h1.38Z"/><path class="cls-9" d="M635.05,267a5,5,0,0,1-3.92-1.76,6.43,6.43,0,0,1-1.56-4.45v-.65a6.66,6.66,0,0,1,1.55-4.51,4.75,4.75,0,0,1,3.74-1.79,4.63,4.63,0,0,1,3.63,1.47,5.71,5.71,0,0,1,1.32,3.94v1.2H631v.34a5.67,5.67,0,0,0,1.13,3.58,3.6,3.6,0,0,0,3,1.44,6,6,0,0,0,2.2-.36,4.32,4.32,0,0,0,1.56-1l.6,1a5.19,5.19,0,0,1-1.79,1.19A6.87,6.87,0,0,1,635.05,267Zm-.19-12a3.32,3.32,0,0,0-2.58,1.19,5.08,5.08,0,0,0-1.22,3l0,.06h7.35v-.35a4.11,4.11,0,0,0-1-2.77A3.27,3.27,0,0,0,634.86,255Z"/><path class="cls-9" d="M642.2,265.69l1.89-.15v-10.3l-1.89-.16v-1h3.27v11.5l1.89.15v1H642.2Zm3.27-15.28h-1.38v-2h1.38Z"/><path class="cls-9" d="M655.21,265.69l1.89-.15v-10.3l-1.89-.16v-1h3.12l.13,2.22a4.28,4.28,0,0,1,4.06-2.45,3.85,3.85,0,0,1,3.11,1.26,6,6,0,0,1,1.06,3.93v6.54l1.89.15v1h-5.17v-1l1.89-.15V259a4.67,4.67,0,0,0-.8-3.08,2.92,2.92,0,0,0-2.29-.91,3.58,3.58,0,0,0-2.39.78,4.46,4.46,0,0,0-1.33,2.07v7.67l1.9.15v1h-5.18Z"/><path class="cls-9" d="M679.43,266.72c-.09-.43-.16-.8-.2-1.11a7.57,7.57,0,0,1-.06-.95,5.59,5.59,0,0,1-1.85,1.65,5.22,5.22,0,0,1-2.61.66,4,4,0,0,1-2.86-1,3.45,3.45,0,0,1-1-2.61,3.24,3.24,0,0,1,1.49-2.79,7.11,7.11,0,0,1,4.06-1h2.77v-1.67a2.72,2.72,0,0,0-.86-2.14,3.53,3.53,0,0,0-2.42-.77,6.07,6.07,0,0,0-1.91.29,4.31,4.31,0,0,0-1.44.78l-.12,1.7h-1.15l0-2.44a7.2,7.2,0,0,1,2.08-1.1,7.84,7.84,0,0,1,2.58-.42,5,5,0,0,1,3.34,1.06,3.78,3.78,0,0,1,1.26,3.06v6.24c0,.25,0,.5,0,.74a5.35,5.35,0,0,0,.08.7l1.25.08v1Zm.5-17.57a2.41,2.41,0,0,1-.64,1.71,2.08,2.08,0,0,1-1.59.68,3,3,0,0,1-1.75-.64,2.78,2.78,0,0,0-1.52-.64,1.18,1.18,0,0,0-.92.41,1.52,1.52,0,0,0-.37,1l-.91-.21a2.43,2.43,0,0,1,.62-1.7,2.05,2.05,0,0,1,1.58-.68,3.17,3.17,0,0,1,1.71.64,3.09,3.09,0,0,0,1.56.65,1.21,1.21,0,0,0,.92-.42,1.57,1.57,0,0,0,.38-1.07Zm-5.07,16.57a5,5,0,0,0,2.65-.7,4.09,4.09,0,0,0,1.66-1.82v-2.54h-2.79a5.22,5.22,0,0,0-3,.79,2.36,2.36,0,0,0-1.13,2,2.1,2.1,0,0,0,.7,1.65A2.78,2.78,0,0,0,674.86,265.72Z"/><path class="cls-9" d="M683.87,260.19a6.87,6.87,0,0,1,1.52-4.59,5.43,5.43,0,0,1,8.06,0,6.87,6.87,0,0,1,1.52,4.59v.39a6.88,6.88,0,0,1-1.52,4.6,5,5,0,0,1-4,1.79,5,5,0,0,1-4.05-1.79,6.88,6.88,0,0,1-1.52-4.6Zm1.39.39a6.1,6.1,0,0,0,1.1,3.7,3.61,3.61,0,0,0,3.08,1.5,3.54,3.54,0,0,0,3-1.5,6,6,0,0,0,1.11-3.7v-.39a6.06,6.06,0,0,0-1.11-3.68,3.85,3.85,0,0,0-6.11,0,6.12,6.12,0,0,0-1.1,3.68Z"/><path class="cls-9" d="M706.19,250.79V254H709v1.15h-2.76v8.26a2.68,2.68,0,0,0,.45,1.76,1.48,1.48,0,0,0,1.19.53c.22,0,.44,0,.65,0l.74-.1.21,1a3.47,3.47,0,0,1-.85.23,5.52,5.52,0,0,1-1,.09,2.56,2.56,0,0,1-2.06-.85,4,4,0,0,1-.74-2.67v-8.26h-2.16V254h2.16v-3.25Z"/><path class="cls-9" d="M717,267a5,5,0,0,1-3.92-1.76,6.43,6.43,0,0,1-1.56-4.45v-.65a6.66,6.66,0,0,1,1.55-4.51,4.75,4.75,0,0,1,3.74-1.79,4.63,4.63,0,0,1,3.63,1.47,5.71,5.71,0,0,1,1.32,3.94v1.2h-8.86v.34a5.67,5.67,0,0,0,1.13,3.58,3.6,3.6,0,0,0,3,1.44,6,6,0,0,0,2.2-.36,4.45,4.45,0,0,0,1.57-1l.59,1a5.1,5.1,0,0,1-1.79,1.19A6.87,6.87,0,0,1,717,267Zm-.19-12a3.32,3.32,0,0,0-2.58,1.19,5.08,5.08,0,0,0-1.22,3l0,.06h7.35v-.35a4.11,4.11,0,0,0-1-2.77A3.27,3.27,0,0,0,716.85,255Z"/><path class="cls-9" d="M727.29,254l.17,2.11v.15a4.47,4.47,0,0,1,1.46-1.83,3.63,3.63,0,0,1,2.18-.66,3,3,0,0,1,.52,0,1.8,1.8,0,0,1,.41.09l-.18,1.31-1-.07a3.15,3.15,0,0,0-2.15.74,4.14,4.14,0,0,0-1.2,2.05v7.57l1.89.15v1h-5.16v-1l1.89-.15v-10.3l-1.89-.16v-1h3.1Z"/><path class="cls-9" d="M733.74,265.69l1.89-.15v-10.3l-1.89-.16v-1H737v11.5l1.89.15v1h-5.16ZM737,250.41h-1.38v-2H737Z"/><path class="cls-9" d="M749.89,266.72c-.09-.43-.16-.8-.2-1.11s-.05-.63-.05-.95a5.73,5.73,0,0,1-1.86,1.65,5.17,5.17,0,0,1-2.61.66,4,4,0,0,1-2.85-1,3.46,3.46,0,0,1-1-2.61,3.23,3.23,0,0,1,1.5-2.79,7.08,7.08,0,0,1,4.05-1h2.78v-1.67a2.72,2.72,0,0,0-.87-2.14,3.51,3.51,0,0,0-2.42-.77,6,6,0,0,0-1.9.29,4.27,4.27,0,0,0-1.45.78l-.11,1.7h-1.15v-2.44a7.2,7.2,0,0,1,2.08-1.1,7.84,7.84,0,0,1,2.58-.42,5,5,0,0,1,3.34,1.06,3.76,3.76,0,0,1,1.27,3.06v6.24c0,.25,0,.5,0,.74s0,.47.08.7l1.25.08v1Zm-4.57-1A5,5,0,0,0,748,265a4.14,4.14,0,0,0,1.66-1.82v-2.54h-2.8a5.22,5.22,0,0,0-3,.79,2.38,2.38,0,0,0-1.13,2,2.1,2.1,0,0,0,.7,1.65A2.78,2.78,0,0,0,745.32,265.72Z"/><path class="cls-9" d="M754,255.08v-1h3.12l.13,2.1a4.39,4.39,0,0,1,1.61-1.72,4.51,4.51,0,0,1,2.4-.61,3.62,3.62,0,0,1,3.78,2.87,5,5,0,0,1,1.62-2.11,4.22,4.22,0,0,1,2.56-.76,3.8,3.8,0,0,1,3.1,1.34,6.57,6.57,0,0,1,1.1,4.18v6.19l1.89.17v1h-5.19v-1l1.89-.17V259.3a5.16,5.16,0,0,0-.82-3.31,2.82,2.82,0,0,0-2.27-1,3.06,3.06,0,0,0-2.5,1,5,5,0,0,0-1.09,2.66.91.91,0,0,0,0,.17v6.64l1.89.15v1h-5.17v-1l1.89-.15V259.3a5.07,5.07,0,0,0-.83-3.28,2.81,2.81,0,0,0-2.28-1,3.43,3.43,0,0,0-2.34.76,4,4,0,0,0-1.22,2v7.73l1.89.15v1H754v-1l1.89-.15v-10.3Z"/><path class="cls-9" d="M410.72,283.88v-1h3.12l.13,2.1a4.39,4.39,0,0,1,1.61-1.72,4.51,4.51,0,0,1,2.4-.61,3.62,3.62,0,0,1,3.78,2.87,5,5,0,0,1,1.62-2.11,4.22,4.22,0,0,1,2.56-.76A3.8,3.8,0,0,1,429,284a6.57,6.57,0,0,1,1.09,4.18v6.19l1.89.17v1h-5.18v-1l1.89-.17V288.1a5.16,5.16,0,0,0-.82-3.31,2.83,2.83,0,0,0-2.28-1,3.05,3.05,0,0,0-2.49,1.05,5,5,0,0,0-1.09,2.66.91.91,0,0,0,0,.17v6.64l1.89.15v1h-5.17v-1l1.89-.15V288.1a5.13,5.13,0,0,0-.83-3.28,2.78,2.78,0,0,0-2.28-1,3.47,3.47,0,0,0-2.35.76,4,4,0,0,0-1.21,2v7.73l1.89.15v1h-5.17v-1l1.89-.15V284Z"/><path class="cls-9" d="M439.16,295.77a5,5,0,0,1-3.92-1.76,6.43,6.43,0,0,1-1.56-4.45v-.65a6.66,6.66,0,0,1,1.55-4.51,4.75,4.75,0,0,1,3.74-1.79,4.63,4.63,0,0,1,3.63,1.47,5.71,5.71,0,0,1,1.32,3.94v1.2h-8.86v.34a5.67,5.67,0,0,0,1.13,3.58,3.6,3.6,0,0,0,3,1.44,6,6,0,0,0,2.2-.36,4.45,4.45,0,0,0,1.57-1l.59,1a5.1,5.1,0,0,1-1.79,1.19A6.87,6.87,0,0,1,439.16,295.77Zm-.19-12a3.32,3.32,0,0,0-2.58,1.19,5.08,5.08,0,0,0-1.22,3l0,.06h7.35v-.35a4.11,4.11,0,0,0-1-2.77A3.27,3.27,0,0,0,439,283.8Z"/><path class="cls-9" d="M460.84,295.52c-.09-.43-.15-.8-.19-1.11a7.57,7.57,0,0,1-.06-1,5.63,5.63,0,0,1-1.86,1.65,5.17,5.17,0,0,1-2.61.66,4,4,0,0,1-2.85-1,3.46,3.46,0,0,1-1-2.61,3.23,3.23,0,0,1,1.5-2.79,7.09,7.09,0,0,1,4.06-1h2.77v-1.67a2.72,2.72,0,0,0-.87-2.14,3.5,3.5,0,0,0-2.41-.77,6,6,0,0,0-1.91.29,4.27,4.27,0,0,0-1.45.78l-.11,1.7h-1.15v-2.44a7.33,7.33,0,0,1,2.08-1.1,7.84,7.84,0,0,1,2.58-.42,5,5,0,0,1,3.34,1.06,3.76,3.76,0,0,1,1.27,3.06V293c0,.25,0,.5,0,.74a5.35,5.35,0,0,0,.07.7l1.25.08v1Zm-4.57-1a5,5,0,0,0,2.66-.7,4.14,4.14,0,0,0,1.66-1.82v-2.54h-2.8a5.24,5.24,0,0,0-3,.79,2.38,2.38,0,0,0-1.13,2,2.14,2.14,0,0,0,.7,1.65A2.78,2.78,0,0,0,456.27,294.52Z"/><path class="cls-9" d="M468.82,296.56a4.44,4.44,0,0,1-.93,3,3.24,3.24,0,0,1-2.58,1.06,3.55,3.55,0,0,1-.67-.06,5.83,5.83,0,0,1-.63-.16l.15-1.19a3.9,3.9,0,0,0,.49.12,3.17,3.17,0,0,0,.58.06,2,2,0,0,0,1.62-.72,3.32,3.32,0,0,0,.58-2.13V284l-1.89-.16v-1h3.28Zm-.07-17.4h-1.39v-1.92h1.39Z"/><path class="cls-9" d="M481,293.43a4.23,4.23,0,0,1-1.62,1.73,4.69,4.69,0,0,1-2.41.61,3.83,3.83,0,0,1-3.11-1.36,6.63,6.63,0,0,1-1.11-4.22V284l-1.56-.16v-1h2.93v7.37a5.5,5.5,0,0,0,.79,3.33,2.65,2.65,0,0,0,2.22,1,4.07,4.07,0,0,0,2.51-.71A3.72,3.72,0,0,0,481,291.9V284l-1.79-.16v-1h3.18v11.5l1.68.15v1h-2.9Z"/><path class="cls-9" d="M494.81,293.69a4.32,4.32,0,0,1-1.61,1.54,4.76,4.76,0,0,1-2.32.54,4.16,4.16,0,0,1-3.52-1.7,7.41,7.41,0,0,1-1.27-4.54v-.24a8.3,8.3,0,0,1,1.27-4.86,4.07,4.07,0,0,1,3.54-1.82,4.5,4.5,0,0,1,2.28.55,4.59,4.59,0,0,1,1.6,1.59v-6.32l-1.89-.15v-1h3.28v17.1l1.89.15v1h-3.13Zm-7.32-4.16a6.56,6.56,0,0,0,.91,3.66,3.11,3.11,0,0,0,2.75,1.36,3.93,3.93,0,0,0,2.23-.61,4.14,4.14,0,0,0,1.4-1.68v-6a4.45,4.45,0,0,0-1.34-1.76,3.63,3.63,0,0,0-2.27-.68,3,3,0,0,0-2.75,1.52,7.47,7.47,0,0,0-.93,4Z"/><path class="cls-9" d="M508.86,295.52a11.15,11.15,0,0,1-.2-1.11,7.57,7.57,0,0,1-.06-1,5.59,5.59,0,0,1-1.85,1.65,5.22,5.22,0,0,1-2.61.66,4,4,0,0,1-2.86-1,3.46,3.46,0,0,1-1-2.61,3.23,3.23,0,0,1,1.5-2.79,7.11,7.11,0,0,1,4.06-1h2.77v-1.67a2.75,2.75,0,0,0-.86-2.14,3.55,3.55,0,0,0-2.42-.77,6.07,6.07,0,0,0-1.91.29,4.13,4.13,0,0,0-1.44.78l-.12,1.7H500.7v-2.44a7.26,7.26,0,0,1,2.09-1.1,7.76,7.76,0,0,1,2.58-.42,5,5,0,0,1,3.34,1.06,3.78,3.78,0,0,1,1.26,3.06V293c0,.25,0,.5,0,.74a5.35,5.35,0,0,0,.07.7l1.26.08v1Zm-4.57-1a5,5,0,0,0,2.65-.7A4.09,4.09,0,0,0,508.6,292v-2.54h-2.79a5.28,5.28,0,0,0-3,.79,2.38,2.38,0,0,0-1.13,2,2.11,2.11,0,0,0,.71,1.65A2.77,2.77,0,0,0,504.29,294.52Z"/><path class="cls-9" d="M522,293.69a4.39,4.39,0,0,1-1.61,1.54,4.76,4.76,0,0,1-2.32.54,4.15,4.15,0,0,1-3.52-1.7,7.41,7.41,0,0,1-1.27-4.54v-.24a8.3,8.3,0,0,1,1.27-4.86,4,4,0,0,1,3.54-1.82,4.27,4.27,0,0,1,3.87,2.14v-6.32l-1.89-.15v-1h3.29v17.1l1.89.15v1h-3.14Zm-7.32-4.16a6.48,6.48,0,0,0,.91,3.66,3.09,3.09,0,0,0,2.74,1.36,4,4,0,0,0,2.24-.61,4,4,0,0,0,1.39-1.68v-6a4.36,4.36,0,0,0-1.34-1.76,3.6,3.6,0,0,0-2.26-.68,3,3,0,0,0-2.76,1.52,7.57,7.57,0,0,0-.92,4Z"/><path class="cls-9" d="M527.4,289a6.87,6.87,0,0,1,1.52-4.59,5.43,5.43,0,0,1,8.06,0A6.87,6.87,0,0,1,538.5,289v.39A6.88,6.88,0,0,1,537,294a5,5,0,0,1-4,1.79,5,5,0,0,1-4.05-1.79,6.88,6.88,0,0,1-1.52-4.6Zm1.39.39a6.1,6.1,0,0,0,1.1,3.7,3.61,3.61,0,0,0,3.08,1.5,3.54,3.54,0,0,0,3-1.5,6,6,0,0,0,1.11-3.7V289a6.06,6.06,0,0,0-1.11-3.68,3.85,3.85,0,0,0-6.11,0,6.12,6.12,0,0,0-1.1,3.68Z"/><path class="cls-9" d="M551.89,294.58a3.94,3.94,0,0,0,2.44-.79,2.64,2.64,0,0,0,1-2.22h1.23l0,.07a3.5,3.5,0,0,1-1.39,2.94,5.13,5.13,0,0,1-3.36,1.19,4.75,4.75,0,0,1-3.95-1.78,7.09,7.09,0,0,1-1.4-4.56v-.5a7.07,7.07,0,0,1,1.4-4.54,4.72,4.72,0,0,1,3.94-1.78,6.3,6.3,0,0,1,2.66.55,5.17,5.17,0,0,1,2,1.5l.06,2.76h-1.19l-.22-2.25a4,4,0,0,0-1.38-1,4.55,4.55,0,0,0-1.89-.37,3.33,3.33,0,0,0-3,1.46,6.47,6.47,0,0,0-1,3.67v.5a6.58,6.58,0,0,0,1,3.7A3.33,3.33,0,0,0,551.89,294.58Z"/><path class="cls-9" d="M559.22,289a6.87,6.87,0,0,1,1.52-4.59,5.43,5.43,0,0,1,8.06,0,6.87,6.87,0,0,1,1.52,4.59v.39a6.87,6.87,0,0,1-1.51,4.6,5.44,5.44,0,0,1-8.07,0,6.88,6.88,0,0,1-1.52-4.6Zm1.39.39a6,6,0,0,0,1.11,3.7,3.86,3.86,0,0,0,6.11,0,6.1,6.1,0,0,0,1.1-3.7V289a6.06,6.06,0,0,0-1.11-3.68,3.84,3.84,0,0,0-6.1,0,6.06,6.06,0,0,0-1.11,3.68Z"/><path class="cls-9" d="M572.28,283.88v-1h3.12l.13,2.1a4.39,4.39,0,0,1,1.61-1.72,4.51,4.51,0,0,1,2.4-.61,3.62,3.62,0,0,1,3.78,2.87,5,5,0,0,1,1.62-2.11,4.22,4.22,0,0,1,2.56-.76,3.8,3.8,0,0,1,3.1,1.34,6.57,6.57,0,0,1,1.09,4.18v6.19l1.89.17v1H588.4v-1l1.89-.17V288.1a5.16,5.16,0,0,0-.82-3.31,2.83,2.83,0,0,0-2.28-1,3.05,3.05,0,0,0-2.49,1.05,5,5,0,0,0-1.09,2.66.91.91,0,0,0,0,.17v6.64l1.89.15v1h-5.17v-1l1.89-.15V288.1a5.13,5.13,0,0,0-.83-3.28,2.78,2.78,0,0,0-2.28-1,3.47,3.47,0,0,0-2.35.76,4,4,0,0,0-1.21,2v7.73l1.89.15v1h-5.17v-1l1.89-.15V284Z"/><path class="cls-9" d="M595.19,289a6.86,6.86,0,0,1,1.51-4.59,5.43,5.43,0,0,1,8.06,0,6.82,6.82,0,0,1,1.52,4.59v.39a6.87,6.87,0,0,1-1.51,4.6,5,5,0,0,1-4,1.79,5.07,5.07,0,0,1-4-1.79,6.87,6.87,0,0,1-1.51-4.6Zm1.39.39a6,6,0,0,0,1.1,3.7,3.86,3.86,0,0,0,6.11,0,6.1,6.1,0,0,0,1.1-3.7V289a6.06,6.06,0,0,0-1.11-3.68,3.84,3.84,0,0,0-6.1,0,6.06,6.06,0,0,0-1.1,3.68Z"/><path class="cls-9" d="M623,295.52a10.8,10.8,0,0,1-.19-1.11,7.57,7.57,0,0,1-.06-1,5.73,5.73,0,0,1-1.86,1.65,5.17,5.17,0,0,1-2.61.66,4,4,0,0,1-2.85-1,3.46,3.46,0,0,1-1-2.61,3.23,3.23,0,0,1,1.5-2.79,7.09,7.09,0,0,1,4.06-1h2.77v-1.67a2.72,2.72,0,0,0-.87-2.14,3.5,3.5,0,0,0-2.41-.77,6,6,0,0,0-1.91.29,4.27,4.27,0,0,0-1.45.78l-.11,1.7h-1.15v-2.44a7.33,7.33,0,0,1,2.08-1.1,7.84,7.84,0,0,1,2.58-.42,5,5,0,0,1,3.34,1.06,3.76,3.76,0,0,1,1.27,3.06V293c0,.25,0,.5,0,.74a5.35,5.35,0,0,0,.07.7l1.25.08v1Zm-4.57-1a5,5,0,0,0,2.66-.7,4.14,4.14,0,0,0,1.66-1.82v-2.54h-2.8a5.24,5.24,0,0,0-3,.79,2.38,2.38,0,0,0-1.13,2,2.14,2.14,0,0,0,.7,1.65A2.78,2.78,0,0,0,618.41,294.52Z"/><path class="cls-9" d="M631,296.56a4.44,4.44,0,0,1-.93,3,3.23,3.23,0,0,1-2.58,1.06,3.55,3.55,0,0,1-.67-.06,5.83,5.83,0,0,1-.63-.16l.15-1.19a3.9,3.9,0,0,0,.49.12,3.26,3.26,0,0,0,.58.06,2,2,0,0,0,1.62-.72,3.32,3.32,0,0,0,.58-2.13V284l-1.89-.16v-1H631Zm-.07-17.4H629.5v-1.92h1.39Z"/><path class="cls-9" d="M643.16,293.43a4.23,4.23,0,0,1-1.62,1.73,4.69,4.69,0,0,1-2.41.61,3.83,3.83,0,0,1-3.11-1.36,6.63,6.63,0,0,1-1.11-4.22V284l-1.56-.16v-1h2.94v7.37a5.51,5.51,0,0,0,.78,3.33,2.65,2.65,0,0,0,2.22,1,4.07,4.07,0,0,0,2.51-.71,3.72,3.72,0,0,0,1.32-1.94V284l-1.79-.16v-1h3.18v11.5l1.68.15v1h-2.9Z"/><path class="cls-9" d="M657,293.69a4.32,4.32,0,0,1-1.61,1.54,4.76,4.76,0,0,1-2.32.54,4.16,4.16,0,0,1-3.52-1.7,7.41,7.41,0,0,1-1.27-4.54v-.24a8.3,8.3,0,0,1,1.27-4.86,4.07,4.07,0,0,1,3.54-1.82,4.5,4.5,0,0,1,2.28.55,4.59,4.59,0,0,1,1.6,1.59v-6.32l-1.89-.15v-1h3.28v17.1l1.89.15v1h-3.13Zm-7.32-4.16a6.56,6.56,0,0,0,.91,3.66,3.1,3.1,0,0,0,2.75,1.36,3.93,3.93,0,0,0,2.23-.61,4.14,4.14,0,0,0,1.4-1.68v-6a4.45,4.45,0,0,0-1.34-1.76,3.63,3.63,0,0,0-2.27-.68,3,3,0,0,0-2.75,1.52,7.47,7.47,0,0,0-.93,4Z"/><path class="cls-9" d="M671,295.52a11.15,11.15,0,0,1-.2-1.11,7.57,7.57,0,0,1-.06-1,5.59,5.59,0,0,1-1.85,1.65,5.22,5.22,0,0,1-2.61.66,4,4,0,0,1-2.86-1,3.46,3.46,0,0,1-1-2.61,3.23,3.23,0,0,1,1.5-2.79,7.11,7.11,0,0,1,4.06-1h2.77v-1.67a2.75,2.75,0,0,0-.86-2.14,3.53,3.53,0,0,0-2.42-.77,6.07,6.07,0,0,0-1.91.29,4.22,4.22,0,0,0-1.44.78l-.12,1.7h-1.15v-2.44a7.39,7.39,0,0,1,2.09-1.1,7.76,7.76,0,0,1,2.58-.42,5,5,0,0,1,3.34,1.06,3.78,3.78,0,0,1,1.26,3.06V293c0,.25,0,.5,0,.74s0,.47.07.7l1.26.08v1Zm-4.57-1a5,5,0,0,0,2.65-.7,4.09,4.09,0,0,0,1.66-1.82v-2.54H668a5.22,5.22,0,0,0-3,.79,2.37,2.37,0,0,0-1.14,2,2.11,2.11,0,0,0,.71,1.65A2.77,2.77,0,0,0,666.43,294.52Z"/><path class="cls-9" d="M678.44,282.84l.17,2.11v.15a4.55,4.55,0,0,1,1.46-1.83,3.66,3.66,0,0,1,2.19-.66,2.85,2.85,0,0,1,.51,0,2.47,2.47,0,0,1,.41.08l-.18,1.32-1-.07a3.18,3.18,0,0,0-2.16.74,4.14,4.14,0,0,0-1.2,2v7.57l1.89.15v1h-5.16v-1l1.89-.15V284l-1.89-.16v-1h3.1Z"/><path class="cls-9" d="M693.64,295.52c-.09-.43-.15-.8-.19-1.11a7.57,7.57,0,0,1-.06-1,5.53,5.53,0,0,1-1.86,1.65,5.16,5.16,0,0,1-2.6.66,4,4,0,0,1-2.86-1,3.46,3.46,0,0,1-1-2.61,3.23,3.23,0,0,1,1.5-2.79,7.11,7.11,0,0,1,4.06-1h2.77v-1.67a2.75,2.75,0,0,0-.86-2.14,3.55,3.55,0,0,0-2.42-.77,6.07,6.07,0,0,0-1.91.29,4.13,4.13,0,0,0-1.44.78l-.12,1.7h-1.15v-2.44a7.26,7.26,0,0,1,2.09-1.1,7.76,7.76,0,0,1,2.58-.42,5,5,0,0,1,3.34,1.06,3.78,3.78,0,0,1,1.26,3.06V293c0,.25,0,.5,0,.74a5.35,5.35,0,0,0,.07.7l1.25.08v1Zm-4.56-1a5,5,0,0,0,2.65-.7,4.09,4.09,0,0,0,1.66-1.82v-2.54H690.6a5.25,5.25,0,0,0-3,.79,2.38,2.38,0,0,0-1.13,2,2.14,2.14,0,0,0,.7,1.65A2.81,2.81,0,0,0,689.08,294.52Z"/><path class="cls-9" d="M697.78,283.88v-1h3.12l.13,2.1a4.39,4.39,0,0,1,1.61-1.72,4.56,4.56,0,0,1,2.4-.61,3.88,3.88,0,0,1,2.4.71,3.81,3.81,0,0,1,1.38,2.16,5,5,0,0,1,1.62-2.11,4.22,4.22,0,0,1,2.56-.76,3.78,3.78,0,0,1,3.1,1.34,6.57,6.57,0,0,1,1.1,4.18v6.19l1.89.17v1H713.9v-1l1.89-.17V288.1a5.23,5.23,0,0,0-.81-3.31,2.85,2.85,0,0,0-2.28-1,3.06,3.06,0,0,0-2.5,1.05,5,5,0,0,0-1.09,2.66c0,.06,0,.12,0,.17s0,.13,0,.21v6.43l1.89.15v1h-5.18v-1l1.89-.15V288.1a5.07,5.07,0,0,0-.83-3.28,2.78,2.78,0,0,0-2.27-1,3.46,3.46,0,0,0-2.35.76,4,4,0,0,0-1.21,2v7.73l1.89.15v1h-5.18v-1l1.89-.15V284Z"/><path class="cls-9" d="M723,295.52h-1.64v-2H723Zm-.13-5.6h-1.38V278.46h1.38Z"/><g class="cls-10"><path class="cls-4" d="M159.57,264l6.37,24.49s1,6-1.17,8.22-12.41,13.75-12.41,13.75l-5.71,11.24,33,18.78L219.11,330l-1.18-27.67s-20.18-1.28-32-10.12c-2.31-1.73-4.27-21.91-4.27-21.91Z"/><path class="cls-11" d="M182.79,279.15c-.62-4.51-1.12-9.06-1.12-9.06l-22.14-6.21,1.77,6.82s6.93,4.51,9.09,5.46A42,42,0,0,0,182.79,279.15Z"/><path class="cls-4" d="M141.2,316.84s-15.79,8.92-17.24,10.37-12.74,11.57-12.74,11.57l-.43,36.67L96.13,340.52l-12.75,5.64,18.15,54.37,10,15.46,7.54,2.85,11.1-51.31,16,10,19.62-14.34-14.08-35.11-6-13.19Z"/><path class="cls-4" d="M82.85,346a17.36,17.36,0,0,1-7.54-6.31,61,61,0,0,1-7.88.4,1.22,1.22,0,0,1-.71-.15,1.27,1.27,0,0,1-.42-.88,76.39,76.39,0,0,0-4.07-14.29,2.29,2.29,0,0,1-.23-1.25c.17-.77,1.07-1.12,1.85-1.2a4.69,4.69,0,0,0,2.28-.45c.87-.6,1.13-1.94,2.13-2.26.79-.25,1.7.29,2.47,0s1-1.37,1.54-2.05c.79-1,2.18-1.1,3.41-1.35a23.91,23.91,0,0,0,6-2.4c.14-.07.3-.15.35-.3a.65.65,0,0,0,0-.34c-.91-4.3-2.86-8.59-3.78-12.88-.35-1.62-1.75-10.64-1.56-12.3s1.95-3.32,3.4-4.12a1.45,1.45,0,0,1,1.27-.18A1.76,1.76,0,0,1,82.1,285c1,4.79,3.85,16.93,4.89,21.72.66,3.05,6.19,10.68,7.37,11.57,1.34,1,1.34,2,2.69,3.06a2.85,2.85,0,0,1,.92.94,3,3,0,0,1,.25,1.35l.2,8.1c.08,3.16,0,6.7-2.21,8.93Z"/><path class="cls-11" d="M93.85,317.68c-1.62-.44-3.2-1.48-4.95-1.19a11.28,11.28,0,0,0-4,2.09c-3.58,2.44-6.13,6.17-10,8.2a1.52,1.52,0,0,0-.3,2.36c2.16,2.11,5.32,4.62,8.54,3.9a9.94,9.94,0,0,0,6.68-6.25l-2.2.9a12.94,12.94,0,0,0,3.25,1.75c1.81.7,2.56-2.19.8-2.9-6.13-2.46-8.66,5.54-6.58,9.94.83,1.74,3.42.22,2.59-1.51-1-2.13-.42-7,3.19-5.53l.8-2.9a7.24,7.24,0,0,1-2.53-1.44c-.85-.63-1.9.09-2.21.9-1,2.53-2.62,3.64-5.19,3.5-2.36-.12-3.32-.83-5-2.48l-.3,2.35c2.71-1.43,4.66-3.6,6.88-5.68a25.59,25.59,0,0,1,4-3.11c1.9-1.19,3.71-.56,5.76,0a1.5,1.5,0,0,0,.79-2.9Z"/><path class="cls-11" d="M81.25,323.64,80.52,320l-2.89.8a4.13,4.13,0,0,0,2.28,2.8,1.56,1.56,0,0,0,2-.54,1.5,1.5,0,0,0-.54-2,1.36,1.36,0,0,1-.9-1,1.52,1.52,0,0,0-1.84-1.05,1.53,1.53,0,0,0-1.05,1.85l.72,3.67a1.5,1.5,0,0,0,2.9-.8Z"/><path class="cls-4" d="M146.54,253.87s12.81,22.8,51,22.8c15.82,0,21.7-3.69,22.59-8.83,5.6-32.26-6.32-73.07-22.87-85.53-14.5-10.92-66,30.41-66,30.41l10.95,24.6s-11.18-12.07-15.65-5.37,9.73,20.91,9.73,20.91S142.74,257.67,146.54,253.87Z"/><path class="cls-4" d="M223,305.58c3.81-2,7.22,2.73,7.22,2.73l38.58,67.54-33.3,59.75s11.18,18.79,5.59,27.28l7.71,7.72s1.23,4.13-4.36,4.13-18.78-9.83-18.78-9.83l1.53-42.12L252,377.94,229.17,344,222,337.66S215.86,309.33,223,305.58Z"/><path class="cls-4" d="M182.88,494.63l-32.31,81s-4.17-55.91-9.11-51a218.3,218.3,0,0,1-12.25,35.38c-8.38,18.79-12.07,44.61-12.07,44.61s7.63,19.38,6.71,28.1c0,0,7.29,50.58,4.36,56.37s-14.43,2.34-14.43,2.34-19.2,2.52-22-2.26,3.6-58.13,3.6-58.13-.92-10.23,2.44-12.58,7.38-8,7.38-8-1.26-3.35,2.26-7.88,8.72-33.57,8.72-37.37-4.7,39.06,11,27.88c0,0,3.8-77.15,14.53-87.89s41.26-17.1,41.26-17.1Z"/><path class="cls-12" d="M182.88,494.63l-10.33,25.9s-14.29,6.38-17.91,7.27c-2.68.66-21.82,6.57-21.17,2.71,2-12,4.78-21.93,8.15-25.3,10.74-10.73,41.26-17.1,41.26-17.1Z"/><path class="cls-4" d="M194.4,482.63s27,102.19,29.07,106.89-8.56-57.45,9.89,7.28c0,0-1.17,8.56-2.85,11.57s-5.53,10.74-.67,13.42,20.63,16.1,27.34,17.28,19.28-4.7,19.28-4.7,6.71-2.52,4.62-4.61c0,0-6.12-.25-8.14-2.27s-24.82-20-24.82-20-7-9.06-7-9.68-5-9-5-9,1.84-5,0-15.26-1-74.69-1-74.69Z"/><path class="cls-12" d="M194.4,482.63s6.36,24,8.25,31c.73,2.72,32.27,4.9,32.27,4.9L235.1,499Z"/><path class="cls-13" d="M194.4,502.87c5.23,10.37,42,12.56,45.06,13.52,0,0,.95-41.65-4.92-65.05S194.4,502.87,194.4,502.87Z"/><path class="cls-14" d="M149.67,244.7c6.49,2.68.9-8.94.9-8.94s-.62-11.66-3.92-13.65a46.92,46.92,0,0,1-7.19-5.88l61.87-42.42s6.26-8.72-8.05-14.08A17,17,0,0,0,176,154.58s-6.26-7.49-15.32-.61c0,0-18.22-1.07-22.36,7.88a6.8,6.8,0,0,0-6.71,3.8s-3.8,1.45-4.53,4.53c0,0-9.22,3.63-9.78,9.78,0,0-5,7-1,12.75,0,0-2.65,5,.79,8.44,0,0-7.72,8.44,0,13.7,0,0-1.91,5.48,9.39,7.71l3.35,6.93s3.23-1.46,12.52,7.83Z"/><path class="cls-11" d="M194.73,244.63a1.5,1.5,0,0,1,0-3c2.79,0,10.45-2.45,14.28-3.77-1.25-12-8.89-21-13.43-25.29a1.5,1.5,0,1,1,2.07-2.17c5,4.77,13.51,14.8,14.45,28.38l.08,1.13-1.07.39C209.88,240.74,198.9,244.63,194.73,244.63Z"/><ellipse class="cls-15" cx="174.79" cy="220.61" rx="3.01" ry="4.11" transform="translate(-48.49 49.24) rotate(-14.1)"/><path class="cls-15" d="M170.17,219.15h-.07a1.5,1.5,0,0,1-1.43-1.56c0-.22.27-5.41,3.8-7.32,2.23-1.21,5.09-.79,8.47,1.23a1.5,1.5,0,1,1-1.53,2.57c-1.67-1-4-2-5.52-1.16s-2.18,3.85-2.22,4.8A1.51,1.51,0,0,1,170.17,219.15Z"/><ellipse class="cls-15" cx="202.67" cy="212.19" rx="3.01" ry="4.11" transform="translate(-45.6 55.78) rotate(-14.1)"/><path class="cls-15" d="M197.27,210.19a1.83,1.83,0,0,1-.4-.05,1.51,1.51,0,0,1-1.05-1.84c.06-.22,1.48-5.22,5.34-6.29,2.45-.67,5.14.37,8,3.1a1.5,1.5,0,1,1-2.07,2.16c-1.4-1.33-3.43-2.83-5.11-2.37-1.85.51-3,3.2-3.25,4.19A1.5,1.5,0,0,1,197.27,210.19Z"/><path class="cls-16" d="M181.65,249.27c-.37-.38,22.15,1.41,30.75-4.92,0,0,1.7,17.14-6,19C198.51,265.29,189.39,262.13,181.65,249.27Z"/><g class="cls-17"><path class="cls-18" d="M180.17,252s21.08,6,30.44-3.36l-1.18-4.26-30.87,2.08Z"/><path class="cls-19" d="M183.89,259.68s6.76-6.54,17.55-2.18,0,12.24,0,12.24Z"/></g><path class="cls-11" d="M201.79,265c-12.5,0-20.92-15.06-21-15.24l-.86-1.57,1.79.09c.21,0,21,1,30.16-4.76a1,1,0,0,1,1.07,1.69c-8.13,5.12-24,5.25-29.45,5.13,2.93,4.44,12.28,16.57,24.23,11.36a1,1,0,0,1,.8,1.84A16.7,16.7,0,0,1,201.79,265Z"/><path class="cls-11" d="M141.79,251.3s-.33-14.68-11.66-18.2"/><path class="cls-11" d="M130.15,367.53s9.67-13,8.4-11c-7.09,11,18.13,23.61,24,16.85,0,0-5.87,7.49-16.44,4.17Z"/><path class="cls-20" d="M152.36,310.5s-10.75,4-15.75,9c0,0,30.12,43.67,9.54,58.1,0,0,18.95,36.19,16.94,43.57s-35.68,101.36-35.68,101.36,104-1.85,107.69-69.83l-4.92-39.13a328.66,328.66,0,0,0,2.9-39.69c.22-19.1-1.87-41-3.41-56a24.11,24.11,0,0,0-7-15.2l-9.79-.92s7.72,25.91-10.16,28.36C193,331.38,169.8,334.49,152.36,310.5Z"/><g class="cls-21"><path class="cls-22" d="M131.28,525s104-1.84,107.69-69.82Z"/></g><path class="cls-20" d="M152.36,310.5s-10.75,4-15.75,9c0,0,30.12,43.67,9.54,58.1,0,0,18.95,36.19,16.94,43.57s-35.68,101.36-35.68,101.36,104-1.85,107.69-69.83l-4.92-39.13a328.66,328.66,0,0,0,2.9-39.69c.22-19.1-1.87-41-3.41-56a24.11,24.11,0,0,0-7-15.2l-9.79-.92s7.72,25.91-10.16,28.36C193,331.38,169.8,334.49,152.36,310.5Z"/><path class="cls-3" d="M160.78,428.74s54.82,7.3,70-10.15c0,0,1.66-3.44-.63-5.06.32,3.23-25.75,17.27-67.09,8.39C163.09,421.92,158.1,423.71,160.78,428.74Z"/><circle class="cls-23" cx="206.32" cy="426.1" r="12.79"/><g class="cls-24"><path class="cls-25" d="M145.6,178.73s-5.49,6.66,1.47,11.1c2.44,1.56-7.21,9.06-7.21,9.06L136,220.77s5-2,8.39-2L162,239,150.68,246,114.57,221.7l-24-46.43,31-28.12,33.88-7.89-6,11.8s-14.38,8.79-8.89,15.12C137.1,168.6,136.42,178.09,145.6,178.73Z"/></g><path class="cls-9" d="M129.94,229.49s-6.49-2.9-6.49-8.27,25.27-56.13,78.05-47.41c0,0,8.16,5.71,5.36,8.5,0,0,5,6.25,1,9.61S184.28,190.35,129.94,229.49Z"/><path class="cls-26" d="M132.79,217.65s33.77-41.15,69.88-35.79C202.67,181.86,169,183.67,132.79,217.65Z"/><path class="cls-27" d="M207.7,436.09c-1.9,0-5.95-.38-8.6-3.33-2.29-2.56-2.92-6.32-1.87-11.19a1.5,1.5,0,1,1,2.93.64c-.83,3.86-.44,6.74,1.16,8.54,2.45,2.74,7.07,2.31,7.12,2.31a1.5,1.5,0,0,1,.3,3A8.55,8.55,0,0,1,207.7,436.09Z"/><path class="cls-28" d="M214.05,431.75l-.33,0a1.5,1.5,0,0,1-1.14-1.79c.86-3.87.48-6.75-1.13-8.56-2.41-2.72-7-2.35-7.08-2.34a1.5,1.5,0,0,1-.3-3c.26,0,6.17-.56,9.63,3.34,2.28,2.57,2.89,6.34,1.81,11.2A1.5,1.5,0,0,1,214.05,431.75Z"/><path class="cls-11" d="M75.82,340.55a3.4,3.4,0,0,0,.07-5.83c-1.35-1-3.1,1.24-1.82,2.35,1.47,1.27,3.17,2.54,5.23,2.14a4.33,4.33,0,0,0,3.37-3.45l-2.2.9a4.94,4.94,0,0,0,5,.15c1.73-.87.21-3.46-1.51-2.59a1.85,1.85,0,0,1-2-.16,1.51,1.51,0,0,0-2.2.9c-.46,2.31-2.51.92-3.59,0l-1.81,2.36-.07.65c-1.57,1.1-.08,3.7,1.51,2.59Z"/><path class="cls-11" d="M67.07,320.4q1.11,5.12,2.44,10.18a1.5,1.5,0,0,0,2.89-.8Q71.07,324.73,70,319.6c-.41-1.88-3.3-1.09-2.89.8Z"/><path class="cls-11" d="M109.12,375a31.69,31.69,0,0,1,3.58,12.43c.15,1.92,3.15,1.93,3,0a35.46,35.46,0,0,0-4-13.94c-.9-1.71-3.49-.2-2.59,1.51Z"/><path class="cls-5" d="M168.24,151.06a10.8,10.8,0,0,1,7.71,3.52,18.62,18.62,0,0,1,4.67-.61,17,17,0,0,1,12.66,5.76c13.91,5.21,8.39,13.59,8.07,14.06l.15,0s8.16,5.71,5.36,8.5c0,0,5,6.25,1,9.61a4.52,4.52,0,0,1-1.46.73c11.44,17.82,18.26,49.26,13.76,75.19-.89,5.14-6.76,8.83-22.57,8.83h0a84.43,84.43,0,0,1-15.29-1.35c.15,1.2.32,2.52.5,3.83h0c.79,5.65,1.94,12.07,3.2,13,8.07,6.06,20.09,8.57,26.85,9.54l9.79.92a25.12,25.12,0,0,1,2.17,2.47h.11c2.95,0,5.27,3.22,5.27,3.22l38.58,67.54-33.3,59.75s11.18,18.79,5.59,27.28l7.71,7.72s1.23,4.13-4.36,4.13c-1.66,0-4-.87-6.48-2.1a424.22,424.22,0,0,1,1.55,43.76,44.39,44.39,0,0,0-4.51-.67l0,2.85h0c-.11,19.86,0,48.53,1.13,55.07,1.84,10.23,0,15.26,0,15.26s5,8.35,5,9,7,9.68,7,9.68,9.32,7.32,16.57,13.14h0s4.36,1.14,6.06,2.57a5.89,5.89,0,0,1,1.83,3.81c.49.32,1.28.86,2.2,1.52a23.5,23.5,0,0,0,6.3,1.18c1,1,0,2.08-1.3,3,.72.77,1.15,1.45,1,1.88-.48,1.75-7.22,8.85-19.42,8.85-.68,0-1.39,0-2.11-.07-12.8-.84-30.55-14.48-32-18.28a11.3,11.3,0,0,1,.18-7.66c0-3.24,2-7.12,3-9.06,1.68-3,2.85-11.57,2.85-11.57-18.45-64.73-7.88-2.59-9.89-7.28-1.36-3.16-14.07-50.54-22.23-81.15a21.46,21.46,0,0,1-4.21-2.49,131.57,131.57,0,0,1-22.14,8.78l-2.34,5.87-22,55.12s-4.17-55.91-9.11-51a218.3,218.3,0,0,1-12.25,35.38c-8.38,18.79-12.07,44.61-12.07,44.61s6,15.26,6.71,24.79c7.07,9.68,13.41,62.14,5,65.66a48.37,48.37,0,0,1-18.3,3.22c-10.15,0-19.24-2.38-21.36-4.5-3.41-3.41,6.26-69.76,6.26-69.76.3-2.35,1-4.61,2.33-5.57,3.35-2.35,7.38-8,7.38-8s-1.26-3.35,2.26-7.88,8.72-33.57,8.72-37.37-4.7,39.06,11,27.88c0,0,1.79-36.32,6.38-62.58h0c.49-3,1-5.82,1.63-8.47-4.81.4-7.69.45-7.69.45s25.12-70.13,33.26-94c-2.07-4.16,1.18-6,2.15-6.48.12-.37.21-.68.27-.9,2-7.38-16.94-43.57-16.94-43.57l-16-10-11.1,51.31L111.51,416l-10-15.46L83.38,346.16l-.53-.16a17.36,17.36,0,0,1-7.54-6.31,62,62,0,0,1-7.08.41h-.8a1.22,1.22,0,0,1-.71-.15,1.27,1.27,0,0,1-.42-.88,76.39,76.39,0,0,0-4.07-14.29,2.29,2.29,0,0,1-.23-1.25c.17-.77,1.07-1.12,1.85-1.2a4.69,4.69,0,0,0,2.28-.45c.87-.6,1.13-1.94,2.13-2.26a1.61,1.61,0,0,1,.49-.07c.47,0,1,.14,1.4.14a1.42,1.42,0,0,0,.58-.1c.81-.33,1-1.37,1.54-2.05.79-1,2.18-1.1,3.41-1.35a23.91,23.91,0,0,0,6-2.4c.14-.07.3-.15.35-.3a.65.65,0,0,0,0-.34c-.91-4.29-2.86-8.59-3.78-12.88-.35-1.62-1.75-10.64-1.56-12.3s1.95-3.32,3.4-4.12a1.83,1.83,0,0,1,.86-.26,1,1,0,0,1,.41.08A1.76,1.76,0,0,1,82.1,285c1,4.79,3.85,16.93,4.89,21.72.66,3.05,6.19,10.68,7.37,11.57,1.34,1,1.34,2,2.69,3.06a2.85,2.85,0,0,1,.92.94,3,3,0,0,1,.25,1.35l.2,8.1c.08,3.16,0,6.7-2.21,8.93h0l14.5,34.54-.28-1c.14.24.26.5.39.75l.42-36.21S122.5,328.67,124,327.21c.94-.94,7.87-5,12.65-7.75h0c5-5,15.75-9,15.75-9s10.23-11.57,12.41-13.75,1.17-8.22,1.17-8.22L160.34,267c-9.89-6.22-13.8-13.14-13.8-13.14a4.94,4.94,0,0,1-3.64,1.46c-3.26,0-6.53-2.47-6.53-2.47s-14.2-14.2-9.73-20.91a4.21,4.21,0,0,1,3.68-2c2.93,0,6.41,2.42,8.87,4.48-5-4.39-7.73-5-8.82-5l-.34,0-.09.06-.07,0-.1,0-.05-.11c-1.06-.52-5.81-3.13-6.22-7.55-8-2.51-6.47-7-6.47-7-7.72-5.26,0-13.7,0-13.7-3.44-3.44-.79-8.44-.79-8.44-4-5.7,1-12.75,1-12.75.56-6.15,9.78-9.78,9.78-9.78.73-3.08,4.53-4.53,4.53-4.53a6.71,6.71,0,0,1,6.2-3.82c.32,0,.51,0,.51,0,3.34-7.23,15.88-7.92,20.57-7.92,1.12,0,1.79,0,1.79,0a12.5,12.5,0,0,1,7.61-2.91M231.3,415.27,252,377.94l-19.68-29.26c.53,8.4.85,17,.76,25.16a328.66,328.66,0,0,1-2.9,39.69,2.72,2.72,0,0,1,1.12,1.74m40.79,211.46h0M168.24,145.06h0a17.64,17.64,0,0,0-9.41,2.87c-6.83,0-18.26,1.15-24,8.21a12.43,12.43,0,0,0-7.48,4.92,13.77,13.77,0,0,0-4.88,4.63c-3.46,1.8-9.48,5.76-10.92,12.06-2.16,3.65-4.13,9.68-1.83,15.43a13.7,13.7,0,0,0,.2,7.67,16,16,0,0,0-2.23,9.6,12.49,12.49,0,0,0,3.4,7.19,10.57,10.57,0,0,0,.94,2.71,13.39,13.39,0,0,0,6.52,6,14.64,14.64,0,0,0,2.33,3.67c-2.34,4.83-1,11,4,18.31a67.1,67.1,0,0,0,7.26,8.8l.29.3.34.25c.81.62,5.13,3.68,10.14,3.68a11.91,11.91,0,0,0,1.59-.1,52.81,52.81,0,0,0,10.63,9.53l4.94,19a12.94,12.94,0,0,1,0,3.23c-2.39,2.49-8.72,9.62-11.25,12.47-3.29,1.33-11,4.73-15.84,9.19-11.64,6.72-12.58,7.66-13.27,8.35-1,1-8.19,7.48-12.5,11.35l-2,1.76,0,2.63-.09,7.76L103,341.28c1.62-3.53,1.52-7.36,1.46-9.7l-.14-5.4-.06-2.7a8.79,8.79,0,0,0-.93-4,8.66,8.66,0,0,0-2.48-2.82l-.11-.16a11.16,11.16,0,0,0-2.46-2.79c-1.34-1.44-4.88-6.66-5.4-8.33-.53-2.44-1.5-6.72-2.45-10.86s-1.91-8.43-2.42-10.79a7.42,7.42,0,0,0-4.09-5.51,6.89,6.89,0,0,0-2.94-.64,7.67,7.67,0,0,0-3.75,1c-2.84,1.56-6,4.68-6.48,8.73-.35,3.18,1.64,14.1,1.66,14.2a65.07,65.07,0,0,0,2.07,7.09c.18.53.35,1.06.52,1.58l-.48.12-.41.08a10.19,10.19,0,0,0-6.33,3.23,7.21,7.21,0,0,0-1.32.29,7.69,7.69,0,0,0-3.6,2.51,7.66,7.66,0,0,0-6.69,5.86,8,8,0,0,0,.52,4.7,70.93,70.93,0,0,1,3.75,13.17,7.06,7.06,0,0,0,2.91,4.74,7.14,7.14,0,0,0,4,1.21h.88c1.46,0,2.93-.05,4.4-.15a23.61,23.61,0,0,0,5.89,4.6l17.32,51.88.24.72.41.63,10,15.47,1.07,1.66,1.85.7,7.54,2.84,6.51,2.46,1.48-6.8,9.29-43,7.36,4.62c1.43,2.78,4.71,9.29,7.91,16.33,5.88,12.95,7.32,18.5,7.66,20.63a10.32,10.32,0,0,0-2.59,4,10.07,10.07,0,0,0-.23,5.85c-8.67,25.22-32.31,91.24-32.56,91.92l-2.93,8.18,8.69-.16h.21c0,.13,0,.26-.07.39l-.38,1,.1.66c-3.81,22.34-5.64,50.77-6.14,59.61-13.95,12.49-11.93-34.91-11.25-26.79.06.73.14,1.65.14,1.92-.1,4.22-5.09,29.83-7.51,33.74a16.15,16.15,0,0,0-3.7,9.8,28.23,28.23,0,0,1-4.59,4.84c-2.52,1.76-4.08,4.71-4.74,9-.69,1.89-2.68,7.44-4.37,13.33-3.62,12.56-3.7,58.73-.29,62.14,4.3,4.3,16.29,6.26,25.61,6.26a54.22,54.22,0,0,0,20.62-3.69,11.92,11.92,0,0,0,7.22-7.93c1.72-6.18-1-54.65-8.72-65.46-1-8.38-4.86-19.23-6.35-23.24.92-5.67,4.57-26.25,11.38-41.51a227,227,0,0,0,12.24-35c4.94-6.18,8.45,53.24,9.34,50l21.85-54.81,1.29-3.21A140.58,140.58,0,0,0,196.25,513c17.59,65.95,20.66,76.1,21.47,78.34-.05.47-.19,1.29-.3,2-1.27,7.62-4.24-45.87,9.82,3.93a40.43,40.43,0,0,1-2,8.26c-2.29,4.11-3.52,7.66-3.76,10.83a17,17,0,0,0,.17,10.94c1.93,5,11.29,11.35,14.11,13.16,4.84,3.1,14.26,48.91,23.11,49.49.83,0,1.68.08,2.5.08,14.37,0,23.91-49,25.2-53.79a6.38,6.38,0,0,0,.2-2.49,7.34,7.34,0,0,0,.65-2.35,7.22,7.22,0,0,0-2.13-5.81l-1.65-1.66-2.34-.1a20.78,20.78,0,0,1-3.52-.5,11,11,0,0,0-3.21-4.62,21.92,21.92,0,0,0-7.11-3.4c-6-4.78-13-10.35-15.08-12-2.06-2.67-4.35-5.7-5.43-7.25-.27-4.49-1.26,50.89-4.88-6.48.62-2.55,1.44-8.16-.15-17-.37-2.08-1.2-11-1-49.44l4.37,1.38.18-8c0-.81.38-17.5-.86-35.8,4.73-.05,7.25-2.1,8.53-3.82a9.23,9.23,0,0,0,1.38-8l-.43-1.46L253,466.35l-4.93-4.92c2.11-8.9-2.78-20.11-5.76-25.82L274,378.77l1.65-2.95L274,372.88l-38.58-67.55-.16-.27-.18-.26a14.77,14.77,0,0,0-7-5.24c-.36-.4-.74-.79-1.13-1.19l-1.53-1.53-2.15-.2-9.64-.9c-5.73-.84-16-2.92-23-7.68a50.22,50.22,0,0,1-1.23-5.75c2.7.24,5.46.36,8.25.36,6.47,0,26.1,0,28.5-13.8,4.18-24.06-.85-54.67-12-75.07,2.26-3.8,1.53-8.48-.63-12.42a6.66,6.66,0,0,0,0-1.18c-.28-3.27-2.56-6.22-4.93-8.45a13.07,13.07,0,0,0-.39-6.33c-1.44-4.59-5.25-8.21-11.33-10.77A22.92,22.92,0,0,0,180.62,148a24.58,24.58,0,0,0-3,.18,16.23,16.23,0,0,0-9.43-3.09ZM238.5,389.93c.29-4.92.52-10.34.58-16,0-1.43,0-2.9,0-4.42l5.89,8.75-6.48,11.69Z"/><polyline class="cls-4" points="82.85 346 83.71 346.49 97.06 341.07"/></g></svg>