<svg xmlns="http://www.w3.org/2000/svg" xmlns:xlink="http://www.w3.org/1999/xlink" viewBox="0 0 620.02 845.85"><defs><style>.cls-1{fill:url(#Gradiente_sem_nome_114);}.cls-2{fill:#ff7b5b;}.cls-3{fill:#583d72;}.cls-4{fill:#f2a682;}.cls-5{fill:#112129;}.cls-6{fill:#22343d;}.cls-7{fill:#ffc5b1;}.cls-8{fill:#fff;}.cls-9{fill:#ffb19f;}.cls-10{fill:#ffa091;}</style><radialGradient id="Gradiente_sem_nome_114" cx="343.08" cy="421.61" r="276.94" gradientUnits="userSpaceOnUse"><stop offset="0.23" stop-color="#ffff5d"/><stop offset="1" stop-color="#7ce886"/></radialGradient></defs><title>6-bemestar</title><g id="Camada_2" data-name="Camada 2"><g id="OBJECTS"><circle class="cls-1" cx="343.08" cy="421.61" r="276.94"/><path class="cls-2" d="M181.54,160.47s-6.26,4.34-3.13,11.56,16.85,28.64,35.38,27.92c.76,0-23.35-39.48-23.35-39.48Z"/><path class="cls-3" d="M301.54,781.27l-5.73,32.12S385.16,857,389.6,843.15c3.36-10.48-4.2-13-31.16-24.51s-24.8-39.92-24.8-39.92Z"/><path class="cls-3" d="M153.18,555.37s-23.17-20.71-30.59-17c-9.07,4.54-60.95,55.37-58.92,79.32.83,9.81,12.25,1.41,32.6-19.7s46-12.06,46-12.06Z"/><polygon class="cls-4" points="380.4 366.61 385.64 441.11 269.18 410.77 380.4 366.61"/><path class="cls-5" d="M269.18,413.33s101.87,6.42,115.44,1.9c0,0,4.84,143.37,1,198.14-1.9,27.26-49.37,178.1-49.37,178.1L295.6,780.14s20.11-109.51,23.34-142.09c3.7-37.22,3-136.53,3-136.53l-3.32.75Z"/><path class="cls-6" d="M141.48,546.74s-25.63,10.55-17.33,36.18c0,0,87.46,68.59,130,52.76,23.84-8.87,49.46-76.52,67.38-134.32l63.06-86.13s-29.74,1.48-39.67,1.45c-19-.08-75.77-3.35-75.77-3.35s-29.68,155.27-40.25,159S141.48,546.74,141.48,546.74Z"/><path class="cls-7" d="M292.92,218.59s61.05-57.28,71.6-72.36,33.17-65.57,61.05-86.68L412,30.91s8.29-4.52,13.56,7.54c0,0,19.6-39.19,24.12-38.44s-9,30.15-9,30.15S459.5,3,464.77,3.78,451.2,34.29,451.2,34.29s21.1-24.48,24.12-21.46-16.58,21.46-16.58,21.46,21.1-12.12,23.36-8.13S461,40.71,461,40.71s-2.26,17.34-16.58,24.87c0,0-28.35,76.61-54,101.48l-82.32,85.56Z"/><path class="cls-7" d="M220,248.28s-57.85,60.52-73,70.92-65.88,32.56-87.25,60.24L31.26,365.61s-4.6,8.24,7.41,13.63c0,0-39.37,19.23-38.66,23.76s30.23-8.76,30.23-8.76S2.93,412.83,3.64,418.11s30.62-13.28,30.62-13.28S9.59,425.7,12.58,428.74s21.61-16.37,21.61-16.37-12.31,21-8.33,23.28,14.74-21,14.74-21,17.36-2.1,25-16.35c0,0,72.56-28.87,97.67-54.26l90.3-64Z"/><path class="cls-8" d="M241.72,224.16,212.47,252.8l7.42,32.29s28.82,69.21,33.18,86.09c6.77,26.25-4.18,66.28-4.18,66.28s48.87-4.06,93.33-5.57,59-15.83,59-15.83-38.55-128.4-65.17-164.29-36.3-47.12-36.3-47.12l-39.19,8.56Z"/><path class="cls-8" d="M327.59,247.54l30.49-19.48s4.66-20.87-32.11-45.49l-43.11,27Z"/><path class="cls-8" d="M218.63,250.54c-16.71,2.34-47.25,44.7-50.66,44.62,0,0,21.49,35.08,38.52,36.22C206.49,331.38,281.42,241.73,218.63,250.54Z"/><path class="cls-7" d="M277.63,223s-24.29-18.15-23.45-25.39c.21-1.82,3.58-4.78,4.45-7.41,4.71-14.13-18-50.54-31.95-58.21-11-6-6.16-6.57-29.27,7.15s-9.94,37.47.38,49.75c9.75,11.6,20.92,16.58,31,17.41L243.05,238Z"/><path class="cls-7" d="M233.79,248.17c-4.59-11.27,4.11-25.46,19.44-31.72s31.48-2.18,36.08,9.08-10.83,28.21-19.44,31.72S238.39,259.44,233.79,248.17Z"/><path class="cls-7" d="M197.79,188.87s-7.88-.44-8.75,4.81,14.44,5.26,20.13,1.32Z"/><path class="cls-2" d="M201.73,193.68c-1.5-9.48-11.61-16.54-11.1-25.79,4.84,0,8-6,5.75-11.09-.87-2-2.34-3.74-3.28-5.73s-1.18-4.59.25-5.71a4.77,4.77,0,0,1,2.49-.72c7.19-.73,19.5,1.42,26.11-1,6.3-2.33,13-6.87,12.39-14.59-.57-6.71-6.5-12.16-12-16.27-3.13-2.36-12-8.53-15.41-8-5.14.85-6.38,7.71-6.75,13.44a8.93,8.93,0,0,0-12-.09c-3.13,2.79-4.6,7.21-6,11.48s-2.8,8.7-5.88,11.54c-2.88,2.65-7.42,4.65-6.83,9.14.71,5.37,7.71,7.27,10.95,11.84-.79-1.12-1.47,6-1,7.25,1.38,3.65,4.83,6.07,7.32,8.87C192.1,184.21,194.7,190.21,201.73,193.68Z"/><path class="cls-8" d="M245.75,172l-17.95,9.28S249.36,196.92,245.75,172Z"/><path class="cls-9" d="M221.05,175.67c1,1.86-.47,4.55-3.24,6S212,182.81,211,181s.48-4.55,3.25-6S220.07,173.81,221.05,175.67Z"/><path class="cls-9" d="M247.26,157.76c1,1.86-.47,4.55-3.24,6s-5.81,1.14-6.79-.73.47-4.55,3.24-6S246.28,155.9,247.26,157.76Z"/><path class="cls-2" d="M233.22,171.33c-.09-.11.25-.55,1-1.11a19.29,19.29,0,0,0,3-2.22c1-1,1.29-3.08-.16-3.37-1.51-.52-3.22,1.22-5.19,2.86l-1.44,1.2a3.25,3.25,0,0,1-2.36.88,5.28,5.28,0,0,1-3.35-2.36,16.58,16.58,0,0,1-2.79-5.39c-1-3.34-.53-5.5-.3-5.48s.44,2,1.66,5a18,18,0,0,0,2.88,4.68c.66.8,1.48,1.54,2.07,1.56.24,0,.44-.07.9-.46l1.43-1.19a36.23,36.23,0,0,1,3-2.36,4.76,4.76,0,0,1,4.08-.74,3.09,3.09,0,0,1,2.12,3.36,4.74,4.74,0,0,1-1.49,2.82,11.71,11.71,0,0,1-3.63,1.91C233.77,171.24,233.31,171.44,233.22,171.33Z"/><path class="cls-10" d="M228.76,206.28s11.45.07,17.67-3.75c0,0-5.26,6.45-15.78,8.12Z"/><path class="cls-6" d="M233.73,154.93c-.11.57-1.71.74-3.4,1.49s-3,1.72-3.43,1.4.32-2.3,2.64-3.28S233.88,154.4,233.73,154.93Z"/><path class="cls-6" d="M211.29,169.65c-.43-.32.24-2.16,1.89-4s3.8-2.51,4-2-1.07,1.71-2.53,3.37S211.75,170,211.29,169.65Z"/><path class="cls-2" d="M202.59,166.81c-.93-.69-1.65-3.63,1.9-7.6s7.59-3.34,8.07-2.22-.82,2.68-4,6.25S203.59,167.56,202.59,166.81Z"/><path class="cls-2" d="M221.44,151.18c-.51-1,.05-3.75,4.67-5.7s7.81.2,7.76,1.36-1.77,1.95-5.88,3.72S222,152.23,221.44,151.18Z"/></g></g></svg>