<svg id="Camada_1" data-name="Camada 1" xmlns="http://www.w3.org/2000/svg" xmlns:xlink="http://www.w3.org/1999/xlink" viewBox="0 0 435.8 163.82"><defs><style>.cls-1{fill:none;}.cls-2{clip-path:url(#clip-path);}.cls-3{fill:#eaa000;}.cls-4{fill:#6d472e;}.cls-5{fill:#eac2a7;}.cls-6{fill:#ff6464;}</style><clipPath id="clip-path"><path class="cls-1" d="M237.75-225.95c0-70.11-80.52-116.46-153-116.46S8-293.13,8-223,34.07-99,106.54-99,237.75-155.84,237.75-225.95Z"/></clipPath></defs><title>10-a1</title><path d="M21.77,13.69v1.46h-.14a5.69,5.69,0,0,0-1.44.17,4.12,4.12,0,0,0-1.13.46,3.28,3.28,0,0,0-.83.69,3.84,3.84,0,0,0-.57.87,5.07,5.07,0,0,0-.35,1,5.43,5.43,0,0,0-.16,1.06,3.68,3.68,0,0,1,.53-.51,3.45,3.45,0,0,1,.64-.4,3.51,3.51,0,0,1,.75-.27,3.22,3.22,0,0,1,.84-.1,3.53,3.53,0,0,1,1.65.36,3.33,3.33,0,0,1,1.14,1,4,4,0,0,1,.66,1.36,5.65,5.65,0,0,1,.21,1.53A5.44,5.44,0,0,1,23.32,24a4,4,0,0,1-.75,1.39,3.62,3.62,0,0,1-1.24.93,4.06,4.06,0,0,1-1.72.35,3.68,3.68,0,0,1-1.27-.21,3.28,3.28,0,0,1-1-.55,3.46,3.46,0,0,1-.8-.82,4.61,4.61,0,0,1-.57-1A6.15,6.15,0,0,1,15.6,23a5.89,5.89,0,0,1-.11-1.18V21a13.14,13.14,0,0,1,.11-1.77A8.62,8.62,0,0,1,16,17.55,6.73,6.73,0,0,1,16.68,16a4.89,4.89,0,0,1,1.13-1.23A5.37,5.37,0,0,1,19.43,14a7.27,7.27,0,0,1,2.2-.3Zm-2.13,5.77a2.44,2.44,0,0,0-.8.13,3.07,3.07,0,0,0-.72.37,2.89,2.89,0,0,0-.59.57,2.78,2.78,0,0,0-.4.74v.55a5.17,5.17,0,0,0,.2,1.49,3.6,3.6,0,0,0,.55,1.11,2.41,2.41,0,0,0,.79.68,2.07,2.07,0,0,0,.94.23,2.12,2.12,0,0,0,1.75-.83,2.57,2.57,0,0,0,.46-.92A4.38,4.38,0,0,0,22,22.4a4,4,0,0,0-.14-1.09,2.83,2.83,0,0,0-.43-.95,2.08,2.08,0,0,0-.73-.65A2,2,0,0,0,19.64,19.46Z"/><path d="M29.41,25.45a1.64,1.64,0,0,1,.08-.5,1.47,1.47,0,0,1,.24-.4,1.28,1.28,0,0,1,.4-.27,1.55,1.55,0,0,1,.55-.09,1.6,1.6,0,0,1,.56.09,1.33,1.33,0,0,1,.41.27,1.25,1.25,0,0,1,.24.4,1.39,1.39,0,0,1,.09.5,1.23,1.23,0,0,1-.09.47,1.25,1.25,0,0,1-.24.4,1.13,1.13,0,0,1-.41.25,1.4,1.4,0,0,1-.56.1,1.35,1.35,0,0,1-.55-.1,1.09,1.09,0,0,1-.4-.25,1.47,1.47,0,0,1-.24-.4A1.45,1.45,0,0,1,29.41,25.45Z"/><path d="M21.77,100.09v1.46h-.14a5.69,5.69,0,0,0-1.44.17,4.12,4.12,0,0,0-1.13.46,3.28,3.28,0,0,0-.83.69,3.84,3.84,0,0,0-.57.87,4.94,4.94,0,0,0-.35,1,5.22,5.22,0,0,0-.16,1.05,3.68,3.68,0,0,1,.53-.51,3.45,3.45,0,0,1,.64-.4,4.15,4.15,0,0,1,.75-.27,3.22,3.22,0,0,1,.84-.1,3.53,3.53,0,0,1,1.65.36,3.44,3.44,0,0,1,1.14,1,4,4,0,0,1,.66,1.36,5.67,5.67,0,0,1,.21,1.54,5.42,5.42,0,0,1-.25,1.68,4,4,0,0,1-.75,1.39,3.62,3.62,0,0,1-1.24.93,4.06,4.06,0,0,1-1.72.35,3.68,3.68,0,0,1-1.27-.21,3.28,3.28,0,0,1-1-.55,3.46,3.46,0,0,1-.8-.82,4.61,4.61,0,0,1-.57-1,6.15,6.15,0,0,1-.34-1.13,5.89,5.89,0,0,1-.11-1.18v-.76a13.14,13.14,0,0,1,.11-1.77A8.62,8.62,0,0,1,16,104a6.73,6.73,0,0,1,.71-1.51,4.89,4.89,0,0,1,1.13-1.23,5.37,5.37,0,0,1,1.62-.82,7.27,7.27,0,0,1,2.2-.3Zm-2.13,5.77a2.44,2.44,0,0,0-.8.13,3.07,3.07,0,0,0-.72.37,2.89,2.89,0,0,0-.59.57,2.78,2.78,0,0,0-.4.74v.55a5.17,5.17,0,0,0,.2,1.49,3.6,3.6,0,0,0,.55,1.11,2.41,2.41,0,0,0,.79.68,2.07,2.07,0,0,0,.94.23,2.12,2.12,0,0,0,1.75-.83,2.57,2.57,0,0,0,.46-.92A4.38,4.38,0,0,0,22,108.8a4,4,0,0,0-.14-1.09,2.7,2.7,0,0,0-.43-.94,2,2,0,0,0-.73-.66A2,2,0,0,0,19.64,105.86Z"/><path d="M29.41,111.85a1.64,1.64,0,0,1,.08-.5,1.47,1.47,0,0,1,.24-.4,1.11,1.11,0,0,1,.4-.26,1.35,1.35,0,0,1,.55-.1,1.4,1.4,0,0,1,.56.1,1.15,1.15,0,0,1,.41.26,1.25,1.25,0,0,1,.24.4,1.39,1.39,0,0,1,.09.5,1.19,1.19,0,0,1-.09.47,1.25,1.25,0,0,1-.24.4,1.13,1.13,0,0,1-.41.25,1.4,1.4,0,0,1-.56.1,1.35,1.35,0,0,1-.55-.1,1.09,1.09,0,0,1-.4-.25,1.47,1.47,0,0,1-.24-.4A1.4,1.4,0,0,1,29.41,111.85Z"/><g class="cls-2"><path class="cls-3" d="M84.76-338.65a6.91,6.91,0,0,1,4.92,2.24,11.63,11.63,0,0,1,3-.39,10.85,10.85,0,0,1,8.07,3.67c8.87,3.33,5.35,8.67,5.14,9h.1s5.2,3.64,3.42,5.42c0,0,3.21,4,.65,6.13a2.88,2.88,0,0,1-.93.46c7.29,11.36,11.64,31.42,8.77,47.95-.57,3.28-4.31,5.63-14.4,5.63h0a53.53,53.53,0,0,1-9.76-.86L94-257h0c.51,3.6,1.24,7.7,2,8.3,5.14,3.86,12.81,5.46,17.12,6.09l6.24.58a15,15,0,0,1,3.24,4.76h0l36.43,33.82,28.76-24.31s1.91-7.51,12.55-7.51a27.5,27.5,0,0,1,4.38.38c14.51,2.35-1.32,4.06-1.32,4.06s1.64-.14,4.07-.14c3.63,0,9,.31,13.26,1.85l2.19,2.68-5,5s-11.58,1.61-18.22,1.61c-2.1,0-3.71-.17-4.29-.59a.4.4,0,0,0-.26-.07c-3.95,0-36.42,30.63-36.42,30.63l-33.44-27c.49,6.64.84,13.73.77,20.29a208.58,208.58,0,0,1-1.85,25.3c1.46,1,.4,3.23.4,3.23l2.74,21.73c0,.16,0,.32,0,.48,3.39,15.11,2.82,40.16,2.82,40.16a26.09,26.09,0,0,0-2.88-.43v1.82h0c-.07,12.66,0,30.94.72,35.11,1.18,6.53,0,9.73,0,9.73s3.21,50.77,3.21,51.16,4.49,6.17,4.49,6.17,5.94,4.67,10.56,8.38h0a13.41,13.41,0,0,1,3.87,1.64,3.82,3.82,0,0,1,1.17,2.43c.31.2.82.55,1.4,1a15,15,0,0,0,4,.75c.63.63,0,1.32-.83,1.88.46.49.74.92.66,1.2-.3,1.12-4.6,5.64-12.38,5.64-.44,0-.89,0-1.35,0-8.16-.54-19.48-9.23-20.4-11.66a7.21,7.21,0,0,1,.11-4.88c0-2.07,1.25-4.54,1.94-5.78C125.54-3.52,126.29-9,126.29-9c-11.76-41.28-5-47.09-6.31-50.08C119.16-61,111.9-88,106.71-107.43h0l0-.06c-.3-1.13-.6-2.24-.88-3.32a14.14,14.14,0,0,1-2.69-1.58A84.24,84.24,0,0,1,89-106.8L73.49-67.9S70.84-58.12,67.68-55a139.77,139.77,0,0,1-7.8,22.56c-5.35,12-7.7,28.45-7.7,28.45S56,5.78,56.46,11.86C61,18,65,25.64,59.64,27.88A30.72,30.72,0,0,1,48,29.94c-6.47,0-12.27-1.52-13.62-2.87-2.18-2.17,4-18.64,4-18.64.19-1.5.61-2.95,1.48-3.56A26.42,26.42,0,0,0,44.53-.26s-.8-2.14,1.44-5,5.56-21.4,5.56-23.83-3-20.53,7-27.66c0,0,1.14-23.16,4.07-39.91h0c.32-1.9.66-3.71,1-5.4-3.07.25-4.9.29-4.9.29s3-8.26,6.74-18.89c-3.23-.31-1.1-5.32-1.1-5.32a26.92,26.92,0,0,0,3.79-2.23c.41-1.16.82-2.32,1.24-3.49-1.07-2.63,1.6-10.82,1.6-10.82l-9.8-7.4L32.71-171.43s22.89-54,23.82-54.9a93.89,93.89,0,0,1,8.07-4.94c3.18-3.19,10-5.72,10-5.72s6.53-7.38,7.92-8.77.75-5.24.75-5.24l-3.57-13.72c-6.31-4-8.8-8.38-8.8-8.38a3.17,3.17,0,0,1-2.33.93,8.22,8.22,0,0,1-4.16-1.57s-9.06-9.05-6.2-13.33a2.69,2.69,0,0,1,2.35-1.3c1.86,0,4.08,1.54,5.65,2.86-3.21-2.8-4.93-3.19-5.63-3.19l-.22,0,0,0,0,0-.07,0,0-.07c-.67-.34-3.7-2-4-4.82-5.11-1.6-4.13-4.45-4.13-4.45-4.91-3.35,0-8.74,0-8.74-2.19-2.19-.49-5.38-.49-5.38-2.57-3.63.64-8.13.64-8.13.35-3.92,6.24-6.23,6.24-6.23.46-2,2.88-2.89,2.88-2.89a4.27,4.27,0,0,1,3.95-2.44h.33c2.13-4.61,10.13-5.05,13.12-5.05.71,0,1.14,0,1.14,0a8,8,0,0,1,4.85-1.85M76.71-152.44c1.28-3.66,2.39-6.85,3.23-9.29a2.81,2.81,0,0,1,1.37-4.14l.17-.57c1.28-4.7-10.8-27.79-10.8-27.79l-10.21-6.39-14.3,26.9L69-157.79l7.67,5.35M151,10.11h0M84.76-342.41h0a11.21,11.21,0,0,0-6,1.82h0c-4.35,0-11.63.74-15.28,5.23a7.91,7.91,0,0,0-4.76,3.13,8.51,8.51,0,0,0-3.11,3c-2.2,1.14-6,3.65-6.95,7.66-1.37,2.31-2.63,6.15-1.16,9.81a8.66,8.66,0,0,0,.13,4.9,10.14,10.14,0,0,0-1.43,6.11,7.88,7.88,0,0,0,2.17,4.56A6.34,6.34,0,0,0,49-294.5a8.6,8.6,0,0,0,4.15,3.79,9.38,9.38,0,0,0,1.51,2.38c-1.5,3.06-.65,7,2.53,11.64a43.26,43.26,0,0,0,4.62,5.61l.19.18.21.16a11.65,11.65,0,0,0,6.42,2.33,7.08,7.08,0,0,0,1-.07,33.7,33.7,0,0,0,6.81,6.11l3.16,12.13a7.75,7.75,0,0,1,0,2.1c-1.51,1.58-5.58,6.16-7.2,8-2.08.84-7,3-10.1,5.86-7.42,4.28-8,4.88-8.45,5.31-.73.73-1.09,1.1-13,29C35-186.55,29.31-173,29.25-172.9l-1.14,2.71,2.34,1.76,28.48,21.49,7.72,5.81c-.8,2.9-1.5,6.48-1.15,9.15L65-130.66c-1.12.7-2.26,1.24-2.27,1.25l-1.29.61-.56,1.32c-.47,1.11-1.87,5-.13,7.88l.2.31-5.79,16.22-1.84,5.12L58.8-98H59c0,.25-.09.49-.13.74v0c-2.5,14.34-3.69,32.92-4,38.6C46-50.72,47.25-35.51,47.68-30.34c0,.47.09,1.06.1,1.23C47.72-26.41,44.52-10,43-7.55a10.16,10.16,0,0,0-2.34,6.23,18.33,18.33,0,0,1-3,3.11c-1.59,1.12-2.57,3-3,5.71-.43,1.16-1.68,4.65-2.76,8.39-2.33,8.05-2.39,11.68-.23,13.84,2.73,2.73,10.35,4,16.28,4a34.34,34.34,0,0,0,13.12-2.35,7.54,7.54,0,0,0,4.57-5c1.09-3.92-.68-9-5.56-15.86C59.45,5.13,57-1.82,56-4.36c.58-3.59,2.91-16.75,7.27-26.51a144.64,144.64,0,0,0,7.8-22.3c3.15-3.93,5.39-11.49,6-13.54l14.77-37A88.65,88.65,0,0,0,102.67-108l.39,1.46v0C114-65.56,115.89-59.32,116.38-57.94c0,.3-.12.83-.19,1.28-.81,4.86-2.7,16.18,6.26,47.93a26.19,26.19,0,0,1-1.26,5.31,17.09,17.09,0,0,0-2.39,6.9,10.79,10.79,0,0,0,.1,6.92c1.23,3.2,7.18,7.21,9,8.36,3.07,2,9.07,5.34,14.7,5.71.53,0,1.07.05,1.59.05,9.13,0,15.18-5.39,16-8.41a4.23,4.23,0,0,0,.12-1.58,4.51,4.51,0,0,0-.93-5.15l-1-1-1.46-.06a12.35,12.35,0,0,1-2.3-.33,6.81,6.81,0,0,0-2-2.95A13.75,13.75,0,0,0,148,2.84c-3.82-3.06-8.34-6.62-9.63-7.64-1.33-1.71-2.8-3.66-3.48-4.64-.17-2.84-.8-12.92-3.12-49.61.4-1.61.92-5.18-.09-10.8-.24-1.33-.77-7.06-.67-31.63l2.79.88.11-5c0-1,.54-25.09-2.78-40.51h0l0-.33,0-.34-2.61-20.84a6.62,6.62,0,0,0-.32-4.67,216,216,0,0,0,1.68-24.24c0-3.66,0-7.64-.25-12l26.79,21.67,2.56,2.07,2.39-2.26c13.31-12.56,29.38-26.72,33.88-29.35a19,19,0,0,0,4.51.4c6.82,0,18.25-1.57,18.74-1.63l1.25-.18.89-.89,5-5,2.41-2.4-2.16-2.64-2.2-2.67-.65-.8-1-.35a35,35,0,0,0-7.66-1.7c-.41-1.11-1.41-2.26-3.61-3a34,34,0,0,0-5.42-1.22,31.53,31.53,0,0,0-5-.43c-10.63,0-14.52,6.23-15.73,9l-25.46,21.53-33.45-31a18.68,18.68,0,0,0-3.68-5.16l-1-1-1.35-.13-6.15-.57c-3.66-.54-10.22-1.87-14.7-4.92a29.79,29.79,0,0,1-.81-3.78c1.75.15,3.54.23,5.34.23,4.11,0,16.59,0,18.11-8.74,2.66-15.35-.55-34.87-7.67-47.86,1.45-2.42,1-5.4-.4-7.91a3.87,3.87,0,0,0,0-.76c-.18-2.08-1.64-3.95-3.15-5.37a8.37,8.37,0,0,0-.24-4c-.91-2.91-3.33-5.2-7.2-6.83a14.54,14.54,0,0,0-10.25-4.25,15.27,15.27,0,0,0-1.9.12,10.27,10.27,0,0,0-6-2ZM51.05-174.9,61.9-195.29l5.91,3.7c.91,1.77,3,5.94,5.06,10.46,3.77,8.3,4.68,11.84,4.89,13.19a6.47,6.47,0,0,0-1.67,2.52,6.37,6.37,0,0,0-.14,3.71c-.34,1-.72,2.12-1.15,3.35l-3.61-2.51-20.14-14ZM135-8.31Z"/><path class="cls-4" d="M122.53,4.18a7.21,7.21,0,0,0-.11,4.88c.92,2.43,12.24,11.12,20.4,11.66,8.63.56,13.41-4.42,13.73-5.6s-5.56-5-5.56-5Z"/><path class="cls-4" d="M38.34,8.43s-6.17,16.47-4,18.64,15.83,4.77,25.29.81S49.32,3.29,49.32,3.29Z"/><path class="cls-5" d="M94.1-119.57,73.49-67.9S70.84-58.12,67.68-55a139.77,139.77,0,0,1-7.8,22.56c-5.35,12-7.7,28.45-7.7,28.45S57,8.4,56.45,14c0,0,4.66,6.42,2.78,10.11S50,25.57,50,25.57,37.79,27.17,36,24.12s2.3-11.23,2.3-11.23-.59-6.52,1.55-8A26.42,26.42,0,0,0,44.53-.26s-.8-2.14,1.44-5,5.56-21.4,5.56-23.83-3-20.53,7-27.66c0,0,2.43-49.2,9.27-56S94.1-123.73,94.1-123.73Z"/><path class="cls-5" d="M101.44-127.22S118.7-62.06,120-59.06s-5.45,8.8,6.31,50.08c0,0-.75,5.46-1.82,7.38S120.94,5.25,124,7s13.16,10.27,17.44,11,12.3-3,12.3-3,4.27-1.6,2.94-2.94c0,0-3.91-.16-5.19-1.45S135.7-2.13,135.7-2.13s-4.49-5.78-4.49-6.17S128-59.46,128-59.46s1.18-3.2,0-9.73-.6-47.62-.6-47.62Z"/><path class="cls-4" d="M35.15,21s12.24-5.24,24.49-1.23a5.34,5.34,0,0,0-.91-3c-1-1.6-16.36-4.06-22.89,1.31C35.84,18.07,34.45,20.08,35.15,21Z"/><path class="cls-4" d="M138.71,16.91s.47-10.79,12.28-6.8l.31.26a3.8,3.8,0,0,0-1.17-2.48,13.41,13.41,0,0,0-3.87-1.64s-10.81-2.66-10.65,8.83C135.61,15.08,137.3,17.45,138.71,16.91Z"/></g><path d="M51.25,20.52H45.59v6H44.53V13.7H52.1v.93H45.59v5h5.66Z"/><path d="M61.73,26.5a3.64,3.64,0,0,1-.16-.65c0-.23,0-.48-.07-.72a3.65,3.65,0,0,1-.63.61,4.2,4.2,0,0,1-.79.49,4.47,4.47,0,0,1-.91.33,4.34,4.34,0,0,1-1,.12,3.79,3.79,0,0,1-1.24-.2,3.25,3.25,0,0,1-1-.54,2.6,2.6,0,0,1-.66-.85A2.39,2.39,0,0,1,55,24a2.54,2.54,0,0,1,.36-1.39,2.82,2.82,0,0,1,1-.93,4.6,4.6,0,0,1,1.42-.52,8.52,8.52,0,0,1,1.7-.17H61.5V19.89a2.28,2.28,0,0,0-.21-.94,2,2,0,0,0-.56-.69,2.54,2.54,0,0,0-.82-.42,3.84,3.84,0,0,0-1-.14,3.79,3.79,0,0,0-1,.13,2.94,2.94,0,0,0-.82.38,2.2,2.2,0,0,0-.58.6,1.7,1.7,0,0,0-.23.81H55.21a2.51,2.51,0,0,1,.32-1.12,2.9,2.9,0,0,1,.8-.88A3.82,3.82,0,0,1,57.49,17a4.4,4.4,0,0,1,1.42-.22,5,5,0,0,1,1.42.2,3.28,3.28,0,0,1,1.15.58,2.8,2.8,0,0,1,.78,1,3.06,3.06,0,0,1,.29,1.36v4.6a6.22,6.22,0,0,0,.08,1c.06.32.13.63.21.92v.11Zm-3.48-.76a3.35,3.35,0,0,0,1.06-.13,3.51,3.51,0,0,0,.93-.39,3.35,3.35,0,0,0,.75-.6,3,3,0,0,0,.51-.76V21.78H59.58a8.36,8.36,0,0,0-1.34.11,4.16,4.16,0,0,0-1.13.34,2.11,2.11,0,0,0-.79.65,1.72,1.72,0,0,0-.29,1,1.62,1.62,0,0,0,.18.77,1.68,1.68,0,0,0,.47.59,2.23,2.23,0,0,0,.7.37A3,3,0,0,0,58.25,25.74Z"/><path d="M67,25.61h7v.89H65.59v-.77l6.47-7.83H65.79V17h7.69v.78Z"/><path d="M80.85,26.68A4.43,4.43,0,0,1,79,26.31a4.19,4.19,0,0,1-1.4-1,4.54,4.54,0,0,1-.91-1.48A5.32,5.32,0,0,1,76.4,22v-.38a5.62,5.62,0,0,1,.34-1.9,5,5,0,0,1,.9-1.53,4.23,4.23,0,0,1,1.35-1,3.74,3.74,0,0,1,1.66-.38,3.91,3.91,0,0,1,1.68.35,3.64,3.64,0,0,1,1.22.93,4.16,4.16,0,0,1,.76,1.39,5.75,5.75,0,0,1,.27,1.69v.65H77.46V22a4.3,4.3,0,0,0,.25,1.43,4,4,0,0,0,.7,1.2,3.54,3.54,0,0,0,1.08.83,3.23,3.23,0,0,0,1.4.31,3.56,3.56,0,0,0,1.59-.33,3.34,3.34,0,0,0,1.22-1l.67.5a4.46,4.46,0,0,1-.63.68,4,4,0,0,1-.8.53,4.28,4.28,0,0,1-1,.34A5.12,5.12,0,0,1,80.85,26.68Zm-.2-9a2.86,2.86,0,0,0-1.18.24,3,3,0,0,0-.94.67,3.84,3.84,0,0,0-.67,1,5.13,5.13,0,0,0-.36,1.28h6V20.8a3.71,3.71,0,0,0-.21-1.14,3.24,3.24,0,0,0-.57-1,2.8,2.8,0,0,0-.89-.7A2.71,2.71,0,0,0,80.65,17.71Z"/><path d="M93.88,16.81a6.84,6.84,0,0,1,.79.05,3.73,3.73,0,0,1,.66.14l-.13,1c-.24-.05-.49-.09-.74-.12a6,6,0,0,0-.75-.05,3.89,3.89,0,0,0-2.27.64,3.33,3.33,0,0,0-1.31,1.94V26.5H89.05V17h1l.07,1.65v.2a4.12,4.12,0,0,1,1.54-1.48A4.34,4.34,0,0,1,93.88,16.81Z"/><path d="M108.65,21.6a5.57,5.57,0,0,1,.3-1.83,4.71,4.71,0,0,1,.83-1.53,4,4,0,0,1,1.33-1,4.26,4.26,0,0,1,3.56,0,4.17,4.17,0,0,1,1.34,1,4.71,4.71,0,0,1,.83,1.53,6.15,6.15,0,0,1,.3,1.83v.29a6.16,6.16,0,0,1-.29,1.84,4.73,4.73,0,0,1-.84,1.53,4.16,4.16,0,0,1-4.89,1,4,4,0,0,1-1.34-1,4.71,4.71,0,0,1-.83-1.53,5.59,5.59,0,0,1-.3-1.84Zm1,.29a5.05,5.05,0,0,0,.21,1.46,4.18,4.18,0,0,0,.62,1.25,3,3,0,0,0,1,.86,3,3,0,0,0,2.74,0,2.83,2.83,0,0,0,1-.86,3.94,3.94,0,0,0,.61-1.25,5.05,5.05,0,0,0,.21-1.46V21.6a5.09,5.09,0,0,0-.21-1.45,4,4,0,0,0-.61-1.24,3.21,3.21,0,0,0-1-.87,2.8,2.8,0,0,0-1.37-.33,2.75,2.75,0,0,0-1.37.33,3,3,0,0,0-1,.87,4.24,4.24,0,0,0-.62,1.24,5.09,5.09,0,0,0-.21,1.45Z"/><path d="M137.34,26.5a3,3,0,0,1-.15-.65,5.66,5.66,0,0,1-.07-.72,3.39,3.39,0,0,1-.64.61,4.46,4.46,0,0,1-.78.49,4.56,4.56,0,0,1-.92.33,4.34,4.34,0,0,1-1,.12,3.84,3.84,0,0,1-1.24-.2,3.09,3.09,0,0,1-1-.54,2.46,2.46,0,0,1-.91-2,2.54,2.54,0,0,1,.36-1.39,2.79,2.79,0,0,1,1-.93,4.66,4.66,0,0,1,1.43-.52,8.42,8.42,0,0,1,1.69-.17h2.06V19.89a2.28,2.28,0,0,0-.21-.94,2.08,2.08,0,0,0-.55-.69,2.59,2.59,0,0,0-.83-.42,3.79,3.79,0,0,0-1-.14,3.85,3.85,0,0,0-1,.13,2.94,2.94,0,0,0-.82.38,2.16,2.16,0,0,0-.57.6,1.6,1.6,0,0,0-.24.81h-1.06a2.4,2.4,0,0,1,.33-1.12,2.87,2.87,0,0,1,.79-.88,3.77,3.77,0,0,1,1.17-.58,4.34,4.34,0,0,1,1.41-.22,5,5,0,0,1,1.42.2,3.33,3.33,0,0,1,1.16.58,2.89,2.89,0,0,1,.77,1,3.06,3.06,0,0,1,.29,1.36v4.6a5.2,5.2,0,0,0,.09,1,8.28,8.28,0,0,0,.2.92v.11Zm-3.47-.76a3.33,3.33,0,0,0,1-.13,3.51,3.51,0,0,0,.93-.39,3.35,3.35,0,0,0,.75-.6,2.74,2.74,0,0,0,.51-.76V21.78h-1.92a8.14,8.14,0,0,0-1.33.11,4.12,4.12,0,0,0-1.14.34,2.08,2.08,0,0,0-.78.65,1.66,1.66,0,0,0-.3,1,1.62,1.62,0,0,0,.18.77,1.68,1.68,0,0,0,.47.59,2.34,2.34,0,0,0,.7.37A3.12,3.12,0,0,0,133.87,25.74Z"/><path d="M141.29,21.66a7.34,7.34,0,0,1,.23-1.83,4.52,4.52,0,0,1,.7-1.54,3.59,3.59,0,0,1,1.18-1.08,3.53,3.53,0,0,1,1.7-.4,3.38,3.38,0,0,1,2.81,1.44L148,17h1V30.16h-1.06v-4.8a3.54,3.54,0,0,1-1.23,1,3.76,3.76,0,0,1-1.58.34,3.37,3.37,0,0,1-1.68-.41,3.82,3.82,0,0,1-1.18-1.08,5.1,5.1,0,0,1-.7-1.55,7.16,7.16,0,0,1-.23-1.8Zm1.07.18a6.78,6.78,0,0,0,.15,1.42,4.33,4.33,0,0,0,.51,1.27,2.9,2.9,0,0,0,.9.91,2.51,2.51,0,0,0,1.35.35,2.89,2.89,0,0,0,1.55-.43,3,3,0,0,0,1.07-1.15v-4.8a2.87,2.87,0,0,0-.45-.68,2.75,2.75,0,0,0-.59-.54,2.67,2.67,0,0,0-.72-.35,2.63,2.63,0,0,0-.84-.13,2.58,2.58,0,0,0-1.37.35,2.9,2.9,0,0,0-.9.91,4.23,4.23,0,0,0-.51,1.27,6.78,6.78,0,0,0-.15,1.42Z"/><path d="M158.78,25a3.35,3.35,0,0,1-1.25,1.23,3.71,3.71,0,0,1-1.84.44,3.52,3.52,0,0,1-1.39-.26,2.53,2.53,0,0,1-1-.75,3.19,3.19,0,0,1-.63-1.2,5.81,5.81,0,0,1-.21-1.63V17h1v5.87a3.62,3.62,0,0,0,.58,2.17,2.07,2.07,0,0,0,1.74.74,3.22,3.22,0,0,0,1.93-.54,2.84,2.84,0,0,0,1-1.48V17h1.06V26.5h-1Z"/><path d="M167.26,26.68a4.47,4.47,0,0,1-1.81-.37,4.29,4.29,0,0,1-1.4-1,4.36,4.36,0,0,1-.9-1.48,4.88,4.88,0,0,1-.33-1.8v-.38a5.38,5.38,0,0,1,.33-1.9,4.78,4.78,0,0,1,.91-1.53,4.3,4.3,0,0,1,1.34-1,3.78,3.78,0,0,1,1.66-.38,3.91,3.91,0,0,1,1.68.35,3.58,3.58,0,0,1,1.23.93,4.14,4.14,0,0,1,.75,1.39,5.44,5.44,0,0,1,.27,1.69v.65h-7.12V22a4.31,4.31,0,0,0,.26,1.43,3.76,3.76,0,0,0,.69,1.2,3.54,3.54,0,0,0,1.08.83,3.24,3.24,0,0,0,1.41.31,3.62,3.62,0,0,0,1.59-.33,3.31,3.31,0,0,0,1.21-1l.67.5a4,4,0,0,1-.63.68,3.71,3.71,0,0,1-.8.53,4.11,4.11,0,0,1-1,.34A5,5,0,0,1,167.26,26.68Zm-.2-9a2.86,2.86,0,0,0-1.18.24,3.11,3.11,0,0,0-.94.67,3.58,3.58,0,0,0-.66,1,4.75,4.75,0,0,0-.37,1.28h6V20.8a4,4,0,0,0-.22-1.14,3.22,3.22,0,0,0-.56-1,2.91,2.91,0,0,0-.89-.7A2.79,2.79,0,0,0,167.06,17.71Z"/><path d="M177.86,25.79a3.05,3.05,0,0,0,1-.16,2.74,2.74,0,0,0,.85-.44,2.53,2.53,0,0,0,.6-.7,2,2,0,0,0,.27-.93h1a2.92,2.92,0,0,1-.35,1.25,3.43,3.43,0,0,1-.83,1,3.9,3.9,0,0,1-1.17.64,4.25,4.25,0,0,1-3.21-.16,3.86,3.86,0,0,1-1.28-1.05,4.47,4.47,0,0,1-.78-1.52,6.23,6.23,0,0,1-.26-1.78v-.37a6.23,6.23,0,0,1,.26-1.78,4.47,4.47,0,0,1,.78-1.52A3.75,3.75,0,0,1,176,17.21a4,4,0,0,1,1.81-.4,4.36,4.36,0,0,1,1.47.25,3.74,3.74,0,0,1,1.17.71,3.32,3.32,0,0,1,.78,1.07,3.58,3.58,0,0,1,.33,1.36h-1a2.59,2.59,0,0,0-.25-1,2.65,2.65,0,0,0-.58-.79,2.5,2.5,0,0,0-.85-.51,3.12,3.12,0,0,0-2.47.14,3,3,0,0,0-.95.88,4,4,0,0,0-.54,1.24,6,6,0,0,0-.17,1.4v.37a6,6,0,0,0,.17,1.41,3.77,3.77,0,0,0,.54,1.24,2.83,2.83,0,0,0,.95.87A2.77,2.77,0,0,0,177.86,25.79Z"/><path d="M185.05,17h4.42v8.58h3.23v.93h-7.65v-.93h3.36V17.93h-3.36Zm3-2.6a.83.83,0,0,1,.19-.56.9.9,0,0,1,1.22,0,.89.89,0,0,1,0,1.1.92.92,0,0,1-1.22,0A.83.83,0,0,1,188.1,14.39Z"/><path d="M195.64,17l0,1.06a2.24,2.24,0,0,1,2.07-1.24,2.61,2.61,0,0,1,.72.1,1.51,1.51,0,0,1,.54.26,1.65,1.65,0,0,1,.39.4,2.13,2.13,0,0,1,.25.5,2.61,2.61,0,0,1,.83-.89,2.29,2.29,0,0,1,1.3-.37,2.15,2.15,0,0,1,1,.22,1.86,1.86,0,0,1,.67.57,2.23,2.23,0,0,1,.36.83,4.64,4.64,0,0,1,.11,1V26.5h-1V19.43a3.15,3.15,0,0,0-.06-.61,1.72,1.72,0,0,0-.22-.56,1.09,1.09,0,0,0-.43-.39,1.36,1.36,0,0,0-.71-.14,1.81,1.81,0,0,0-.74.14,1.52,1.52,0,0,0-.5.34,1.82,1.82,0,0,0-.31.47,2.8,2.8,0,0,0-.16.52v7.3h-1V19.34a2.88,2.88,0,0,0-.06-.59,1.43,1.43,0,0,0-.22-.52,1,1,0,0,0-.43-.37,1.42,1.42,0,0,0-.69-.13,1.93,1.93,0,0,0-.72.13,1.41,1.41,0,0,0-.49.33,1.82,1.82,0,0,0-.31.47,2.84,2.84,0,0,0-.19.56V26.5h-1V17Z"/><path d="M210.47,26.68a4.47,4.47,0,0,1-1.81-.37,4.29,4.29,0,0,1-1.4-1,4.54,4.54,0,0,1-.91-1.48A5.32,5.32,0,0,1,206,22v-.38a5.62,5.62,0,0,1,.34-1.9,5,5,0,0,1,.9-1.53,4.23,4.23,0,0,1,1.35-1,3.74,3.74,0,0,1,1.66-.38,3.91,3.91,0,0,1,1.68.35,3.64,3.64,0,0,1,1.22.93,4.16,4.16,0,0,1,.76,1.39,5.75,5.75,0,0,1,.27,1.69v.65h-7.12V22a4.3,4.3,0,0,0,.25,1.43,4,4,0,0,0,.7,1.2,3.54,3.54,0,0,0,1.08.83,3.23,3.23,0,0,0,1.4.31,3.64,3.64,0,0,0,1.6-.33,3.39,3.39,0,0,0,1.21-1l.67.5a4.46,4.46,0,0,1-.63.68,4,4,0,0,1-.8.53,4.28,4.28,0,0,1-1,.34A5.12,5.12,0,0,1,210.47,26.68Zm-.2-9a2.86,2.86,0,0,0-1.18.24,3,3,0,0,0-.94.67,3.84,3.84,0,0,0-.67,1,5.13,5.13,0,0,0-.36,1.28h6V20.8a3.71,3.71,0,0,0-.21-1.14,3,3,0,0,0-.57-1,2.8,2.8,0,0,0-.89-.7A2.71,2.71,0,0,0,210.27,17.71Z"/><path d="M218.18,17l.08,1.78a3.92,3.92,0,0,1,1.33-1.41,3.52,3.52,0,0,1,1.9-.55,3,3,0,0,1,2.39.94,3.94,3.94,0,0,1,.84,2.66V26.5h-1.06V20.43a3,3,0,0,0-.59-2,2.23,2.23,0,0,0-1.83-.69,2.61,2.61,0,0,0-1,.17,3.29,3.29,0,0,0-.85.45,3.38,3.38,0,0,0-.67.69,3.45,3.45,0,0,0-.48.86v6.6h-1.06V17Z"/><path d="M231.52,14.56V17h3.53v.86h-3.53v6a2.44,2.44,0,0,0,.17.92,1.54,1.54,0,0,0,.44.58,1.65,1.65,0,0,0,.65.32,3,3,0,0,0,.81.1,6.8,6.8,0,0,0,.9-.06l.79-.12.16.8a4,4,0,0,1-.92.22,8.17,8.17,0,0,1-1.11.08,4.35,4.35,0,0,1-1.17-.16,2.31,2.31,0,0,1-.93-.49,2.37,2.37,0,0,1-.62-.88,3.24,3.24,0,0,1-.24-1.32v-6H227.8V17h2.65V14.56Z"/><path d="M238.27,21.6a6.15,6.15,0,0,1,.3-1.83,4.71,4.71,0,0,1,.83-1.53,4,4,0,0,1,1.33-1,3.92,3.92,0,0,1,1.78-.39,4,4,0,0,1,1.79.39,4.24,4.24,0,0,1,1.33,1,4.71,4.71,0,0,1,.83,1.53,6.15,6.15,0,0,1,.3,1.83v.29a6.16,6.16,0,0,1-.29,1.84,4.71,4.71,0,0,1-.83,1.53,4.07,4.07,0,0,1-1.33,1,4.28,4.28,0,0,1-3.57,0,4,4,0,0,1-1.34-1,4.71,4.71,0,0,1-.83-1.53,6.17,6.17,0,0,1-.3-1.84Zm1,.29a5.06,5.06,0,0,0,.22,1.46,3.94,3.94,0,0,0,.61,1.25,3,3,0,0,0,1,.86,3,3,0,0,0,2.74,0,3,3,0,0,0,1-.86,4.14,4.14,0,0,0,.6-1.25,4.74,4.74,0,0,0,.22-1.46V21.6a4.77,4.77,0,0,0-.22-1.45,4,4,0,0,0-.61-1.24,3.1,3.1,0,0,0-1-.87,3,3,0,0,0-2.74,0,3,3,0,0,0-1,.87,4,4,0,0,0-.61,1.24,5.1,5.1,0,0,0-.22,1.45Z"/><path d="M254.46,26.19a4.13,4.13,0,0,1-.08.78,5.56,5.56,0,0,1-.24.76,4.14,4.14,0,0,1-.38.72,3.68,3.68,0,0,1-.53.64l-.67-.42a4.12,4.12,0,0,0,.77-2.45V24.85h1.13Zm-1.34-8.14a.84.84,0,0,1,.25-.62.81.81,0,0,1,.65-.26.83.83,0,0,1,.66.26.89.89,0,0,1,.25.62.83.83,0,0,1-.25.61.86.86,0,0,1-.66.25.84.84,0,0,1-.65-.25A.79.79,0,0,1,253.12,18.05Z"/><path d="M51.71,65a5.71,5.71,0,0,1-1,3.53,3.13,3.13,0,0,1-2.64,1.31,3.49,3.49,0,0,1-3-1.38v4.86H44.05V60.19h1l0,1.34a3.38,3.38,0,0,1,3-1.52,3.16,3.16,0,0,1,2.67,1.3,5.81,5.81,0,0,1,1,3.58Zm-1.06-.18A4.9,4.9,0,0,0,49.9,62a2.41,2.41,0,0,0-2.08-1,2.75,2.75,0,0,0-2.72,1.82v4.56a2.82,2.82,0,0,0,1.08,1.25,3.18,3.18,0,0,0,1.66.43,2.39,2.39,0,0,0,2.07-1.06A5.37,5.37,0,0,0,50.65,64.86Z"/><path d="M60,69.7a4.77,4.77,0,0,1-.21-1.33,3.72,3.72,0,0,1-1.41,1.12,4.46,4.46,0,0,1-1.81.39,3.21,3.21,0,0,1-2.22-.77,2.47,2.47,0,0,1-.85-1.93A2.55,2.55,0,0,1,54.7,65a5.53,5.53,0,0,1,3.22-.81h1.91V63.09a2.07,2.07,0,0,0-.63-1.6,2.6,2.6,0,0,0-1.83-.59,2.88,2.88,0,0,0-1.82.56,1.7,1.7,0,0,0-.73,1.36h-1a2.46,2.46,0,0,1,1-2,4.11,4.11,0,0,1,2.6-.83,3.71,3.71,0,0,1,2.51.8A2.87,2.87,0,0,1,60.87,63v4.5a5.59,5.59,0,0,0,.29,2.06v.11Zm-3.31-.76a3.54,3.54,0,0,0,1.89-.51,3.06,3.06,0,0,0,1.21-1.36V65H58a4.67,4.67,0,0,0-2.47.58,1.72,1.72,0,0,0-.88,1.53,1.69,1.69,0,0,0,.59,1.33A2.23,2.23,0,0,0,56.73,68.94Z"/><path d="M69.37,67.28A1.48,1.48,0,0,0,68.74,66a4.81,4.81,0,0,0-1.89-.75,8,8,0,0,1-2-.61,2.58,2.58,0,0,1-1-.85,2.08,2.08,0,0,1-.34-1.21,2.26,2.26,0,0,1,.94-1.86A3.81,3.81,0,0,1,66.86,60a3.92,3.92,0,0,1,2.55.79,2.54,2.54,0,0,1,1,2.05H69.32a1.71,1.71,0,0,0-.7-1.39,3.17,3.17,0,0,0-3.43-.09,1.43,1.43,0,0,0-.63,1.2,1.29,1.29,0,0,0,.53,1.1,5.3,5.3,0,0,0,1.9.72,8.84,8.84,0,0,1,2.08.7,2.63,2.63,0,0,1,1,.88,2.24,2.24,0,0,1,.34,1.26,2.29,2.29,0,0,1-1,1.92,4.11,4.11,0,0,1-2.54.73,4.21,4.21,0,0,1-2.69-.81,2.46,2.46,0,0,1-1-2h1.06A1.81,1.81,0,0,0,65,68.47a3.09,3.09,0,0,0,1.89.52,2.92,2.92,0,0,0,1.77-.49A1.42,1.42,0,0,0,69.37,67.28Z"/><path d="M78.48,67.28A1.47,1.47,0,0,0,77.86,66a4.8,4.8,0,0,0-1.9-.75,8.15,8.15,0,0,1-2-.61,2.65,2.65,0,0,1-1-.85,2.08,2.08,0,0,1-.34-1.21,2.28,2.28,0,0,1,.94-1.86A3.81,3.81,0,0,1,76,60a3.92,3.92,0,0,1,2.55.79,2.52,2.52,0,0,1,1,2.05H78.43a1.71,1.71,0,0,0-.7-1.39,3.15,3.15,0,0,0-3.42-.09,1.43,1.43,0,0,0-.63,1.2,1.28,1.28,0,0,0,.52,1.1,5.37,5.37,0,0,0,1.91.72,8.9,8.9,0,0,1,2.07.7,2.75,2.75,0,0,1,1,.88,2.32,2.32,0,0,1,.33,1.26,2.26,2.26,0,0,1-1,1.92,4.09,4.09,0,0,1-2.54.73,4.24,4.24,0,0,1-2.69-.81,2.45,2.45,0,0,1-1-2h1a1.81,1.81,0,0,0,.78,1.43A3.13,3.13,0,0,0,76,69a2.93,2.93,0,0,0,1.78-.49A1.43,1.43,0,0,0,78.48,67.28Z"/><path d="M81.32,64.8a5.56,5.56,0,0,1,.54-2.47,4,4,0,0,1,1.5-1.7,4,4,0,0,1,2.2-.62,3.92,3.92,0,0,1,3.08,1.34,5.13,5.13,0,0,1,1.18,3.52v.22a5.62,5.62,0,0,1-.54,2.49,4,4,0,0,1-1.5,1.7,4.08,4.08,0,0,1-2.2.6,3.9,3.9,0,0,1-3.07-1.34A5.09,5.09,0,0,1,81.32,65Zm1.06.29a4.3,4.3,0,0,0,.88,2.8,3,3,0,0,0,4.63,0A4.44,4.44,0,0,0,88.77,65V64.8a4.82,4.82,0,0,0-.41-2,3.23,3.23,0,0,0-1.13-1.4,2.91,2.91,0,0,0-1.67-.5A2.81,2.81,0,0,0,83.27,62a4.43,4.43,0,0,0-.89,2.89Z"/><path d="M98.1,68.5a3.41,3.41,0,0,1-3,1.38A3,3,0,0,1,92.76,69,3.84,3.84,0,0,1,92,66.38V60.19h1v6.06c0,1.81.73,2.71,2.19,2.71a2.68,2.68,0,0,0,2.89-1.89V60.19h1.06V69.7h-1Z"/><path d="M112.25,69.7a5.26,5.26,0,0,1-.2-1.33,3.8,3.8,0,0,1-1.41,1.12,4.51,4.51,0,0,1-1.82.39,3.16,3.16,0,0,1-2.21-.77,2.47,2.47,0,0,1-.85-1.93,2.54,2.54,0,0,1,1.15-2.2,5.57,5.57,0,0,1,3.23-.81H112V63.09a2.07,2.07,0,0,0-.63-1.6,2.6,2.6,0,0,0-1.83-.59,2.9,2.9,0,0,0-1.82.56,1.69,1.69,0,0,0-.72,1.36H106a2.46,2.46,0,0,1,1.05-2,4.08,4.08,0,0,1,2.59-.83,3.71,3.71,0,0,1,2.51.8,2.87,2.87,0,0,1,1,2.22v4.5a5.39,5.39,0,0,0,.29,2.06v.11Zm-3.3-.76a3.51,3.51,0,0,0,1.88-.51A2.94,2.94,0,0,0,112,67.07V65h-1.88a4.61,4.61,0,0,0-2.46.58,1.73,1.73,0,0,0-.89,1.53,1.7,1.7,0,0,0,.6,1.33A2.23,2.23,0,0,0,109,68.94Z"/><path d="M126,67.28a1.48,1.48,0,0,0-.63-1.25,4.69,4.69,0,0,0-1.89-.75,8.15,8.15,0,0,1-2-.61,2.58,2.58,0,0,1-1-.85,2.08,2.08,0,0,1-.34-1.21,2.26,2.26,0,0,1,.94-1.86,3.81,3.81,0,0,1,2.41-.74,3.92,3.92,0,0,1,2.55.79,2.52,2.52,0,0,1,1,2.05h-1.06a1.71,1.71,0,0,0-.7-1.39,2.78,2.78,0,0,0-1.76-.55,2.82,2.82,0,0,0-1.67.46,1.44,1.44,0,0,0-.62,1.2,1.28,1.28,0,0,0,.52,1.1,5.37,5.37,0,0,0,1.91.72,8.9,8.9,0,0,1,2.07.7,2.63,2.63,0,0,1,1,.88,2.24,2.24,0,0,1,.34,1.26,2.29,2.29,0,0,1-1,1.92,4.09,4.09,0,0,1-2.54.73,4.23,4.23,0,0,1-2.69-.81,2.45,2.45,0,0,1-1-2h1a1.81,1.81,0,0,0,.78,1.43,3.11,3.11,0,0,0,1.89.52,3,3,0,0,0,1.78-.49A1.43,1.43,0,0,0,126,67.28Z"/><path d="M133.07,69.88a4.15,4.15,0,0,1-2.2-.6,4.1,4.1,0,0,1-1.52-1.67,5.1,5.1,0,0,1-.55-2.39v-.38a5.66,5.66,0,0,1,.53-2.47,4.27,4.27,0,0,1,1.49-1.73,3.62,3.62,0,0,1,2.05-.63,3.44,3.44,0,0,1,2.75,1.19,4.77,4.77,0,0,1,1,3.23V65h-6.78v.2a4,4,0,0,0,.93,2.69A2.92,2.92,0,0,0,133.11,69a3.36,3.36,0,0,0,1.49-.31,3.23,3.23,0,0,0,1.17-1l.66.5A3.82,3.82,0,0,1,133.07,69.88Zm-.2-9a2.63,2.63,0,0,0-2,.87,4.05,4.05,0,0,0-1,2.34h5.71V64a3.52,3.52,0,0,0-.78-2.23A2.46,2.46,0,0,0,132.87,60.91Z"/><path d="M143.08,61.09a4.11,4.11,0,0,0-.72-.06,2.59,2.59,0,0,0-1.66.54,3,3,0,0,0-1,1.6V69.7h-1V60.19h1l0,1.51A2.8,2.8,0,0,1,142.41,60a1.64,1.64,0,0,1,.69.12Z"/><path class="cls-6" d="M50.91,109.67a1.83,1.83,0,0,0-.26-1A2.48,2.48,0,0,0,50,108a4.74,4.74,0,0,0-.93-.46l-1-.33c-.45-.15-.91-.33-1.38-.53a6.19,6.19,0,0,1-1.27-.76,3.65,3.65,0,0,1-.94-1.06,2.65,2.65,0,0,1-.37-1.43,2.9,2.9,0,0,1,.37-1.48,3.58,3.58,0,0,1,1-1.1,4.34,4.34,0,0,1,1.34-.68,5.15,5.15,0,0,1,1.5-.23,4.86,4.86,0,0,1,1.61.27,4.74,4.74,0,0,1,1.37.78,3.82,3.82,0,0,1,1,1.22,3.58,3.58,0,0,1,.37,1.59H50.9a3.2,3.2,0,0,0-.27-1,2.5,2.5,0,0,0-.53-.78,2.36,2.36,0,0,0-.8-.5,2.84,2.84,0,0,0-1-.18,3.13,3.13,0,0,0-.91.13,2.54,2.54,0,0,0-.79.39,2,2,0,0,0-.55.65,1.87,1.87,0,0,0-.21.9,1.68,1.68,0,0,0,.28.94,2.35,2.35,0,0,0,.69.64,4.51,4.51,0,0,0,.91.44c.32.12.63.22.91.31s.64.21,1,.34a7.84,7.84,0,0,1,.93.43,6.13,6.13,0,0,1,.84.56,3.42,3.42,0,0,1,.67.7,3,3,0,0,1,.46.86,3.11,3.11,0,0,1,.16,1,2.93,2.93,0,0,1-.38,1.5,3.5,3.5,0,0,1-1,1.07,4.54,4.54,0,0,1-1.37.64,5.77,5.77,0,0,1-1.53.22,5.26,5.26,0,0,1-1.67-.27,4.61,4.61,0,0,1-1.46-.76,4,4,0,0,1-1.06-1.21,3.49,3.49,0,0,1-.42-1.63h1.66a3.13,3.13,0,0,0,.32,1.06,2.7,2.7,0,0,0,.63.78,2.6,2.6,0,0,0,.9.48,3.48,3.48,0,0,0,1.1.17,3.79,3.79,0,0,0,.94-.12,2.78,2.78,0,0,0,.82-.37,2.22,2.22,0,0,0,.59-.63A1.78,1.78,0,0,0,50.91,109.67Z"/><path class="cls-6" d="M59.22,113.08a4.79,4.79,0,0,1-1.84-.35,4.21,4.21,0,0,1-1.44-1,4.44,4.44,0,0,1-.93-1.46,5.05,5.05,0,0,1-.33-1.84v-.37a5.37,5.37,0,0,1,.37-2.06,4.71,4.71,0,0,1,1-1.54,4.34,4.34,0,0,1,1.39-1,4.07,4.07,0,0,1,1.6-.34,4.25,4.25,0,0,1,1.8.36,3.64,3.64,0,0,1,1.27,1,4.12,4.12,0,0,1,.76,1.49,6.34,6.34,0,0,1,.26,1.84v.73H56.3a3.79,3.79,0,0,0,.25,1.22,3.18,3.18,0,0,0,.62,1,2.85,2.85,0,0,0,2.14.92,3.33,3.33,0,0,0,1.54-.35,3.44,3.44,0,0,0,1.13-.93l1,.77a3.39,3.39,0,0,1-.59.69,4.15,4.15,0,0,1-.82.58,4.42,4.42,0,0,1-1.06.41A5.15,5.15,0,0,1,59.22,113.08ZM59,104.55a2.41,2.41,0,0,0-.93.18,2.34,2.34,0,0,0-.79.53,2.82,2.82,0,0,0-.6.85,4.34,4.34,0,0,0-.34,1.17h5.12v-.13a3.9,3.9,0,0,0-.18-.94,2.47,2.47,0,0,0-.45-.83,2.16,2.16,0,0,0-.76-.6A2.38,2.38,0,0,0,59,104.55Z"/><path d="M84.13,104.25H80.34l0,8.65H79.27v-8.65h-2.6v-.86h2.61v-.76a4,4,0,0,1,.3-1.64,2.76,2.76,0,0,1,.8-1.08,3.07,3.07,0,0,1,1.18-.6A5.44,5.44,0,0,1,83,99.13a7.82,7.82,0,0,1,1,.06c.32,0,.64.1,1,.17l-.14.9a7.53,7.53,0,0,0-.8-.16,6.48,6.48,0,0,0-.9-.06,4.55,4.55,0,0,0-1.07.12,2.51,2.51,0,0,0-.87.42,2,2,0,0,0-.6.8,3.21,3.21,0,0,0-.23,1.25v.76h3.79Z"/><path d="M87.06,108a5.84,5.84,0,0,1,.29-1.83,4.91,4.91,0,0,1,.83-1.53,4.13,4.13,0,0,1,1.33-1,4.28,4.28,0,0,1,3.57,0,4.13,4.13,0,0,1,1.33,1,4.93,4.93,0,0,1,.84,1.53,6.15,6.15,0,0,1,.3,1.83v.29a6.17,6.17,0,0,1-.3,1.84,4.71,4.71,0,0,1-.83,1.53,4,4,0,0,1-1.33,1,3.92,3.92,0,0,1-1.78.39,4,4,0,0,1-1.79-.39,3.87,3.87,0,0,1-1.33-1,4.73,4.73,0,0,1-.84-1.53,5.86,5.86,0,0,1-.29-1.84Zm1,.29a5.05,5.05,0,0,0,.21,1.46,4,4,0,0,0,.62,1.25,3,3,0,0,0,1,.86,2.82,2.82,0,0,0,1.38.33,2.74,2.74,0,0,0,1.36-.33,3,3,0,0,0,1-.86,4.16,4.16,0,0,0,.61-1.25,5.05,5.05,0,0,0,.21-1.46V108a5.09,5.09,0,0,0-.21-1.45,4,4,0,0,0-.62-1.24,3,3,0,0,0-1-.87,3,3,0,0,0-2.74,0,3.17,3.17,0,0,0-1,.87,4,4,0,0,0-.61,1.24,5.09,5.09,0,0,0-.21,1.45Z"/><path d="M104.69,103.21a6.84,6.84,0,0,1,.79.05,4.08,4.08,0,0,1,.67.14l-.14,1c-.24,0-.49-.09-.74-.12a6,6,0,0,0-.75-.05,3.89,3.89,0,0,0-2.27.64,3.37,3.37,0,0,0-1.31,1.94v6.08H99.86v-9.51h1l.07,1.65v.2a4.12,4.12,0,0,1,1.54-1.48A4.34,4.34,0,0,1,104.69,103.21Z"/><path d="M126.39,111.41a3.45,3.45,0,0,1-1.26,1.23,3.68,3.68,0,0,1-1.84.44,3.52,3.52,0,0,1-1.39-.26,2.6,2.6,0,0,1-1-.75,3.51,3.51,0,0,1-.63-1.2,5.76,5.76,0,0,1-.21-1.63v-5.85h1v5.87a3.69,3.69,0,0,0,.58,2.17,2.07,2.07,0,0,0,1.74.74,3.18,3.18,0,0,0,1.93-.54,2.92,2.92,0,0,0,1-1.48v-6.76h1.06v9.51h-1Z"/><path d="M130.84,103.39l0,1.06a2.21,2.21,0,0,1,2.07-1.24,2.61,2.61,0,0,1,.72.1,1.51,1.51,0,0,1,.54.26,1.65,1.65,0,0,1,.39.4,2.13,2.13,0,0,1,.25.5,2.58,2.58,0,0,1,.82-.89,2.35,2.35,0,0,1,1.31-.37,2.15,2.15,0,0,1,1,.22,1.82,1.82,0,0,1,.66.57,2.32,2.32,0,0,1,.37.83,4.64,4.64,0,0,1,.11,1v7.07h-1v-7.07a2.54,2.54,0,0,0-.07-.61,1.71,1.71,0,0,0-.21-.56,1.16,1.16,0,0,0-.43-.39,1.39,1.39,0,0,0-.71-.14,1.81,1.81,0,0,0-.74.14,1.52,1.52,0,0,0-.5.34,1.6,1.6,0,0,0-.31.47,2.67,2.67,0,0,0-.16.53v7.29h-1v-7.16a2.88,2.88,0,0,0-.07-.59,1.42,1.42,0,0,0-.21-.52,1.12,1.12,0,0,0-.43-.37,1.42,1.42,0,0,0-.69-.13,1.93,1.93,0,0,0-.72.13,1.41,1.41,0,0,0-.49.33,1.86,1.86,0,0,0-.32.47,2.81,2.81,0,0,0-.18.56v7.28h-1v-9.51Z"/><path d="M152.09,108.06a6.91,6.91,0,0,1,.24-1.83,5,5,0,0,1,.71-1.54,3.49,3.49,0,0,1,1.18-1.08,3.37,3.37,0,0,1,1.66-.4,3.32,3.32,0,0,1,1.62.39,3.45,3.45,0,0,1,1.2,1.08V99.4h1.05v13.5h-1l0-1.24a3.27,3.27,0,0,1-1.23,1,3.65,3.65,0,0,1-1.63.37,3.25,3.25,0,0,1-1.64-.41,3.71,3.71,0,0,1-1.18-1.08,5.12,5.12,0,0,1-.71-1.55,6.74,6.74,0,0,1-.24-1.8Zm1.07.18a6.78,6.78,0,0,0,.15,1.42,3.91,3.91,0,0,0,.5,1.26,2.73,2.73,0,0,0,.89.9,2.52,2.52,0,0,0,1.36.34,3.22,3.22,0,0,0,.84-.11,2.92,2.92,0,0,0,.74-.33,3.05,3.05,0,0,0,.61-.52,2.87,2.87,0,0,0,.45-.68v-4.61a3.27,3.27,0,0,0-.43-.72,3.19,3.19,0,0,0-.6-.56,2.64,2.64,0,0,0-.73-.37,2.73,2.73,0,0,0-.87-.13,2.46,2.46,0,0,0-1.36.35,2.76,2.76,0,0,0-.9.9,3.91,3.91,0,0,0-.5,1.26,6.78,6.78,0,0,0-.15,1.42Z"/><path d="M163.46,103.39h4.41V112h3.23v.93h-7.64V112h3.36v-7.64h-3.36Zm3-2.6a.87.87,0,0,1,.18-.56.74.74,0,0,1,.62-.24.74.74,0,0,1,.61.24.89.89,0,0,1,0,1.1.73.73,0,0,1-.61.23.74.74,0,0,1-.62-.23A.88.88,0,0,1,166.51,100.79Z"/><path d="M180.55,112.9a4.82,4.82,0,0,1-.15-.65c0-.23-.06-.47-.07-.72a3.65,3.65,0,0,1-.63.61,4.2,4.2,0,0,1-.79.49,4.35,4.35,0,0,1-.92.33,4.25,4.25,0,0,1-1,.12,3.9,3.9,0,0,1-1.25-.2,3.2,3.2,0,0,1-1-.54,2.63,2.63,0,0,1-.67-.85,2.51,2.51,0,0,1-.24-1.11,2.54,2.54,0,0,1,.36-1.39,2.82,2.82,0,0,1,1-.93,4.6,4.6,0,0,1,1.42-.52,8.52,8.52,0,0,1,1.7-.17h2v-1.08a2,2,0,0,0-.21-.94,1.85,1.85,0,0,0-.55-.69,2.54,2.54,0,0,0-.82-.42,3.84,3.84,0,0,0-1-.14,3.79,3.79,0,0,0-1,.13,2.94,2.94,0,0,0-.82.38,2.2,2.2,0,0,0-.58.6,1.82,1.82,0,0,0-.24.81H174a2.42,2.42,0,0,1,.32-1.12,2.9,2.9,0,0,1,.8-.88,3.82,3.82,0,0,1,1.16-.58,4.4,4.4,0,0,1,1.42-.22,5,5,0,0,1,1.42.2,3.37,3.37,0,0,1,1.15.58,2.77,2.77,0,0,1,.77,1,3.2,3.2,0,0,1,.3,1.36v4.6a6.22,6.22,0,0,0,.08,1c.06.32.13.63.21.92v.11Zm-3.47-.76a3.39,3.39,0,0,0,1.06-.13,3.51,3.51,0,0,0,.93-.39,3.35,3.35,0,0,0,.75-.6,2.71,2.71,0,0,0,.5-.76v-2.08h-1.91a8.36,8.36,0,0,0-1.34.11,4.16,4.16,0,0,0-1.13.34,2.11,2.11,0,0,0-.79.65,1.72,1.72,0,0,0-.29,1,1.74,1.74,0,0,0,.17.77,1.84,1.84,0,0,0,.48.59,2.23,2.23,0,0,0,.7.37A3,3,0,0,0,177.08,112.14Z"/><path d="M203,104.25h-3.79l0,8.65H198.1v-8.65h-2.59v-.86h2.6v-.76a4.17,4.17,0,0,1,.31-1.64,2.76,2.76,0,0,1,.8-1.08,3,3,0,0,1,1.17-.6,5.57,5.57,0,0,1,1.44-.18,7.93,7.93,0,0,1,1,.06c.31,0,.64.1,1,.17l-.13.9a7.53,7.53,0,0,0-.8-.16,6.48,6.48,0,0,0-.9-.06,4.55,4.55,0,0,0-1.07.12,2.65,2.65,0,0,0-.88.42,2,2,0,0,0-.59.8,3,3,0,0,0-.23,1.25v.76H203Z"/><path d="M212.72,103.21a7,7,0,0,1,.79.05,3.94,3.94,0,0,1,.66.14l-.13,1c-.25,0-.49-.09-.74-.12a6.16,6.16,0,0,0-.75-.05,3.87,3.87,0,0,0-2.27.64,3.37,3.37,0,0,0-1.31,1.94v6.08h-1.09v-9.51h1L209,105v.2a4.05,4.05,0,0,1,1.54-1.48A4.32,4.32,0,0,1,212.72,103.21Z"/><path d="M217.48,103.39h4.41V112h3.23v.93h-7.64V112h3.35v-7.64h-3.35Zm3.05-2.6a.87.87,0,0,1,.18-.56.72.72,0,0,1,.61-.24.74.74,0,0,1,.62.24.89.89,0,0,1,0,1.1.74.74,0,0,1-.62.23.72.72,0,0,1-.61-.23A.88.88,0,0,1,220.53,100.79Z"/><path d="M227.49,108a5.57,5.57,0,0,1,.3-1.83,4.53,4.53,0,0,1,.83-1.53,4.09,4.09,0,0,1,1.32-1,4.28,4.28,0,0,1,3.57,0,4,4,0,0,1,1.33,1,4.73,4.73,0,0,1,.84,1.53A6.15,6.15,0,0,1,236,108v.29a6.17,6.17,0,0,1-.3,1.84,4.53,4.53,0,0,1-.83,1.53,3.87,3.87,0,0,1-1.33,1,3.92,3.92,0,0,1-1.78.39,4,4,0,0,1-3.12-1.42,4.71,4.71,0,0,1-.83-1.53,5.59,5.59,0,0,1-.3-1.84Zm1,.29a5.05,5.05,0,0,0,.21,1.46,4,4,0,0,0,.62,1.25,3,3,0,0,0,1,.86,2.82,2.82,0,0,0,1.38.33,2.78,2.78,0,0,0,1.37-.33,3,3,0,0,0,1-.86,3.94,3.94,0,0,0,.61-1.25,5.05,5.05,0,0,0,.21-1.46V108a5.09,5.09,0,0,0-.21-1.45,4,4,0,0,0-.61-1.24,3.14,3.14,0,0,0-1-.87,3,3,0,0,0-2.73,0,3.1,3.1,0,0,0-1,.87,4.22,4.22,0,0,0-.61,1.24,5.09,5.09,0,0,0-.21,1.45Z"/><path d="M242.38,104.45a.88.88,0,0,1,.24-.62.82.82,0,0,1,.65-.26.87.87,0,0,1,.67.26.88.88,0,0,1,.24.62.82.82,0,0,1-.24.61.9.9,0,0,1-.67.25.85.85,0,0,1-.65-.25A.82.82,0,0,1,242.38,104.45Zm0,7.7a.88.88,0,0,1,.24-.62.82.82,0,0,1,.65-.26.87.87,0,0,1,.67.26.88.88,0,0,1,.24.62.82.82,0,0,1-.24.61.94.94,0,0,1-.67.25.89.89,0,0,1-.65-.25A.82.82,0,0,1,242.38,112.15Z"/><path class="cls-6" d="M84.42,134.68a4.79,4.79,0,0,1-1.84-.35,4.23,4.23,0,0,1-1.44-1,4.3,4.3,0,0,1-.93-1.45,4.86,4.86,0,0,1-.34-1.84v-.37a5.56,5.56,0,0,1,.37-2.06,4.9,4.9,0,0,1,1-1.54,4.23,4.23,0,0,1,1.39-1,4.07,4.07,0,0,1,1.6-.34,4.17,4.17,0,0,1,1.79.36,3.59,3.59,0,0,1,1.28,1,4.12,4.12,0,0,1,.76,1.49,6.35,6.35,0,0,1,.25,1.84v.73H81.5a3.79,3.79,0,0,0,.25,1.22,3,3,0,0,0,.62,1,2.85,2.85,0,0,0,2.14.92,3.33,3.33,0,0,0,1.54-.35,3.55,3.55,0,0,0,1.13-.93l1,.77a3.73,3.73,0,0,1-.59.69,4.15,4.15,0,0,1-.82.58,4.59,4.59,0,0,1-1.06.41A5.15,5.15,0,0,1,84.42,134.68Zm-.21-8.53a2.41,2.41,0,0,0-.93.18,2.48,2.48,0,0,0-.8.53,3,3,0,0,0-.59.85,4.38,4.38,0,0,0-.34,1.16h5.12v-.12a3.9,3.9,0,0,0-.18-.94A2.66,2.66,0,0,0,86,127a2.25,2.25,0,0,0-.76-.6A2.38,2.38,0,0,0,84.21,126.15Z"/><path class="cls-6" d="M92.48,125l.11,1.41a3.73,3.73,0,0,1,1.28-1.16,3.49,3.49,0,0,1,1.68-.43,3.92,3.92,0,0,1,1.36.22,2.59,2.59,0,0,1,1,.65,3,3,0,0,1,.67,1.14,5.32,5.32,0,0,1,.23,1.64v6H97.22v-6a3.41,3.41,0,0,0-.14-1.08,1.59,1.59,0,0,0-1.09-1.1,3.19,3.19,0,0,0-.92-.13,2.61,2.61,0,0,0-1.44.41,2.92,2.92,0,0,0-1,1.08v6.82H91V125Z"/><path class="cls-6" d="M105.67,122.69V125h3.62v1.26h-3.62v5.16a2.66,2.66,0,0,0,.14.92,1.32,1.32,0,0,0,.39.57,1.35,1.35,0,0,0,.56.31,2.61,2.61,0,0,0,.69.09l.54,0,.55-.08.5-.09.38-.09.23,1.16a2.25,2.25,0,0,1-.49.21,5.26,5.26,0,0,1-.63.16c-.23,0-.47.08-.73.1s-.51,0-.76,0a4.1,4.1,0,0,1-1.18-.18,2.36,2.36,0,0,1-1-.58,2.68,2.68,0,0,1-.63-1,4.15,4.15,0,0,1-.23-1.5v-5.16h-2.5V125H104v-2.3Z"/><path class="cls-6" d="M118.87,134.5a1.66,1.66,0,0,1-.15-.46,5.4,5.4,0,0,1-.09-.58,3.67,3.67,0,0,1-.55.47,5.22,5.22,0,0,1-.66.39,5.1,5.1,0,0,1-.78.26,4.16,4.16,0,0,1-.88.1,4.23,4.23,0,0,1-1.37-.22,3.14,3.14,0,0,1-1-.6,2.41,2.41,0,0,1-.66-.89,2.57,2.57,0,0,1-.24-1.11,2.86,2.86,0,0,1,.32-1.37,2.66,2.66,0,0,1,.88-1,4.17,4.17,0,0,1,1.37-.58,7.69,7.69,0,0,1,1.8-.2h1.78V128a1.78,1.78,0,0,0-.16-.78,1.82,1.82,0,0,0-.45-.58,1.92,1.92,0,0,0-.71-.37,3,3,0,0,0-.93-.14,2.65,2.65,0,0,0-.87.13,2.13,2.13,0,0,0-.64.32,1.42,1.42,0,0,0-.41.48,1.22,1.22,0,0,0-.15.58h-1.63a2.21,2.21,0,0,1,.26-1,2.91,2.91,0,0,1,.75-.9,3.77,3.77,0,0,1,1.19-.65,4.82,4.82,0,0,1,1.59-.25,5.6,5.6,0,0,1,1.5.2,3.39,3.39,0,0,1,1.2.6,2.88,2.88,0,0,1,.79,1,3.06,3.06,0,0,1,.29,1.39v4.43a6,6,0,0,0,.09,1,4.16,4.16,0,0,0,.25.93v.14Zm.74-13.38a2.14,2.14,0,0,1-.14.76,2,2,0,0,1-.37.63,1.69,1.69,0,0,1-.57.42,1.63,1.63,0,0,1-.73.16,2.06,2.06,0,0,1-.52-.06,2.6,2.6,0,0,1-.42-.15,4.05,4.05,0,0,1-.35-.21l-.34-.2a2.39,2.39,0,0,0-.37-.15,1.44,1.44,0,0,0-.43-.06.83.83,0,0,0-.64.28,1,1,0,0,0-.25.69l-.92-.21a2.18,2.18,0,0,1,.14-.76,2,2,0,0,1,.37-.64,1.89,1.89,0,0,1,.57-.44,1.48,1.48,0,0,1,.73-.17,1.6,1.6,0,0,1,.67.13c.19.09.38.18.57.29l.56.28a1.45,1.45,0,0,0,.63.13.72.72,0,0,0,.35-.08.86.86,0,0,0,.29-.21,1.17,1.17,0,0,0,.19-.31,1,1,0,0,0,.07-.38ZM116,133.26a3.24,3.24,0,0,0,.89-.12,3.16,3.16,0,0,0,.75-.33,2.67,2.67,0,0,0,.58-.46,2.17,2.17,0,0,0,.39-.54v-1.92H117.1a4.82,4.82,0,0,0-2.22.42,1.39,1.39,0,0,0-.79,1.32,1.67,1.67,0,0,0,.12.65,1.35,1.35,0,0,0,.36.52,1.61,1.61,0,0,0,.59.34A2.66,2.66,0,0,0,116,133.26Z"/><path class="cls-6" d="M123,129.66a5.84,5.84,0,0,1,.3-1.91,4.7,4.7,0,0,1,.85-1.54,4.06,4.06,0,0,1,1.36-1,4.17,4.17,0,0,1,1.8-.38,4.26,4.26,0,0,1,1.82.38,4.06,4.06,0,0,1,1.36,1,4.72,4.72,0,0,1,.86,1.54,5.84,5.84,0,0,1,.3,1.91v.19a5.88,5.88,0,0,1-.3,1.91,4.78,4.78,0,0,1-.86,1.53,4,4,0,0,1-1.36,1,4.32,4.32,0,0,1-1.8.37,4.45,4.45,0,0,1-1.82-.37,4.06,4.06,0,0,1-1.36-1,4.75,4.75,0,0,1-.85-1.53,5.88,5.88,0,0,1-.3-1.91Zm1.62.19a5.29,5.29,0,0,0,.17,1.34,3.29,3.29,0,0,0,.51,1.12,2.48,2.48,0,0,0,.84.77,2.52,2.52,0,0,0,1.19.28,2.44,2.44,0,0,0,1.17-.28,2.61,2.61,0,0,0,.85-.77,3.47,3.47,0,0,0,.5-1.12,5.29,5.29,0,0,0,.17-1.34v-.19a5.21,5.21,0,0,0-.17-1.33,3.89,3.89,0,0,0-.51-1.13,2.65,2.65,0,0,0-.84-.76,2.41,2.41,0,0,0-1.19-.29,2.37,2.37,0,0,0-1.18.29,2.51,2.51,0,0,0-.83.76,3.43,3.43,0,0,0-.51,1.13,5.21,5.21,0,0,0-.17,1.33Z"/><path d="M152.53,125.85h-3.79l0,8.65h-1.09v-8.65h-2.59V125h2.6v-.76a4.37,4.37,0,0,1,.3-1.64,3,3,0,0,1,.8-1.08,3.07,3.07,0,0,1,1.18-.6,5.57,5.57,0,0,1,1.44-.18,7.66,7.66,0,0,1,1,.06c.32,0,.64.1,1,.17l-.13.9a8.08,8.08,0,0,0-.8-.16,6.62,6.62,0,0,0-.91-.06,4.47,4.47,0,0,0-1.06.12,2.48,2.48,0,0,0-.88.42,2.06,2.06,0,0,0-.6.8,3.4,3.4,0,0,0-.23,1.25V125h3.79Z"/><path d="M162.54,134.5a3.7,3.7,0,0,1-.14-.65c0-.23-.06-.48-.08-.72a3.65,3.65,0,0,1-.63.61,4.2,4.2,0,0,1-.79.49,4.26,4.26,0,0,1-.91.33,4.34,4.34,0,0,1-1,.12,3.79,3.79,0,0,1-1.24-.2,3.25,3.25,0,0,1-1-.54,2.6,2.6,0,0,1-.66-.85,2.39,2.39,0,0,1-.25-1.11,2.54,2.54,0,0,1,.36-1.39,2.82,2.82,0,0,1,1-.93,4.6,4.6,0,0,1,1.42-.52,8.52,8.52,0,0,1,1.7-.17h2.06v-1.08a2.14,2.14,0,0,0-.22-.94,1.93,1.93,0,0,0-.54-.69,2.7,2.7,0,0,0-.83-.42,3.84,3.84,0,0,0-1-.14,3.79,3.79,0,0,0-1,.13,2.94,2.94,0,0,0-.82.38,2.2,2.2,0,0,0-.58.6,1.7,1.7,0,0,0-.23.81H156a2.39,2.39,0,0,1,.32-1.12,2.9,2.9,0,0,1,.8-.88,3.82,3.82,0,0,1,1.16-.58,4.4,4.4,0,0,1,1.42-.22,5,5,0,0,1,1.42.2,3.28,3.28,0,0,1,1.15.58,2.8,2.8,0,0,1,.78,1,3.2,3.2,0,0,1,.29,1.36v4.6a6.22,6.22,0,0,0,.08,1c.06.32.13.63.21.92v.11Zm-3.47-.76a3.39,3.39,0,0,0,1.06-.13,3.51,3.51,0,0,0,.93-.39,3.35,3.35,0,0,0,.75-.6,3,3,0,0,0,.51-.76v-2.08H160.4a8.36,8.36,0,0,0-1.34.11,4.16,4.16,0,0,0-1.13.34,2.11,2.11,0,0,0-.79.65,1.72,1.72,0,0,0-.29,1,1.74,1.74,0,0,0,.17.77,1.84,1.84,0,0,0,.48.59,2.23,2.23,0,0,0,.7.37A3,3,0,0,0,159.07,133.74Z"/><path d="M167.79,133.61h7v.89h-8.35v-.77l6.47-7.83h-6.28V125h7.69v.78Z"/><path d="M181.67,134.68a4.43,4.43,0,0,1-1.81-.37,4.19,4.19,0,0,1-1.4-1,4.38,4.38,0,0,1-.91-1.48,5.32,5.32,0,0,1-.33-1.8v-.38a5.62,5.62,0,0,1,.34-1.9,5,5,0,0,1,.9-1.53,4.23,4.23,0,0,1,1.35-1,3.74,3.74,0,0,1,1.66-.38,3.91,3.91,0,0,1,1.68.35,3.64,3.64,0,0,1,1.22.93,4.35,4.35,0,0,1,.76,1.39,5.75,5.75,0,0,1,.27,1.69v.65h-7.12v.2a4.3,4.3,0,0,0,.25,1.43,4,4,0,0,0,.7,1.2,3.43,3.43,0,0,0,1.08.83,3.23,3.23,0,0,0,1.4.31,3.56,3.56,0,0,0,1.59-.33,3.34,3.34,0,0,0,1.22-1l.66.5a3.82,3.82,0,0,1-1.42,1.21,4.28,4.28,0,0,1-1,.34A5.12,5.12,0,0,1,181.67,134.68Zm-.2-9a2.86,2.86,0,0,0-1.18.24,3,3,0,0,0-.94.67,3.84,3.84,0,0,0-.67,1,4.74,4.74,0,0,0-.36,1.28h6v-.12a3.71,3.71,0,0,0-.21-1.14,3.24,3.24,0,0,0-.57-1,2.8,2.8,0,0,0-.89-.7A2.71,2.71,0,0,0,181.47,125.71Z"/><path d="M194.7,124.81a6.84,6.84,0,0,1,.79,0,3.73,3.73,0,0,1,.66.14l-.13,1c-.24-.05-.49-.09-.74-.12a6,6,0,0,0-.75,0,3.89,3.89,0,0,0-2.27.64,3.33,3.33,0,0,0-1.31,1.94v6.08h-1.09V125h1l.07,1.65v.2a4.12,4.12,0,0,1,1.54-1.48A4.34,4.34,0,0,1,194.7,124.81Z"/><path d="M214.84,134.5h-1.06V123l-3.54,1.52v-1l4.45-1.86h.15Z"/><path d="M221.87,126.83a3.93,3.93,0,0,1,1.34-1.46,3.42,3.42,0,0,1,1.9-.56,3.71,3.71,0,0,1,1.39.25,2.59,2.59,0,0,1,1,.7,3.17,3.17,0,0,1,.62,1.13,4.85,4.85,0,0,1,.22,1.54v6.07h-1.06v-6.07a4,4,0,0,0-.15-1.14,2.26,2.26,0,0,0-.45-.84,2,2,0,0,0-.76-.54,2.89,2.89,0,0,0-1.07-.18,2.8,2.8,0,0,0-1,.16,3.4,3.4,0,0,0-1.53,1.1,3.22,3.22,0,0,0-.5.84v6.67h-1.05V121h1.05Z"/><path d="M242.1,129.66a6.91,6.91,0,0,1,.24-1.83,4.74,4.74,0,0,1,.71-1.54,3.49,3.49,0,0,1,1.18-1.08,3.6,3.6,0,0,1,3.28,0,3.45,3.45,0,0,1,1.2,1.08V121h1v13.5h-1l0-1.24a3.34,3.34,0,0,1-1.23,1.05,3.65,3.65,0,0,1-1.63.37,3.25,3.25,0,0,1-1.64-.41,3.71,3.71,0,0,1-1.18-1.08,4.89,4.89,0,0,1-.71-1.55,6.74,6.74,0,0,1-.24-1.8Zm1.07.18a6.78,6.78,0,0,0,.15,1.42,3.91,3.91,0,0,0,.5,1.26,2.73,2.73,0,0,0,.89.9,2.52,2.52,0,0,0,1.36.34,3.22,3.22,0,0,0,.84-.11,2.92,2.92,0,0,0,.74-.33,3.05,3.05,0,0,0,.61-.52,2.87,2.87,0,0,0,.45-.68v-4.61a3.71,3.71,0,0,0-.43-.72,2.89,2.89,0,0,0-.6-.56,2.64,2.64,0,0,0-.73-.37,2.73,2.73,0,0,0-.87-.13,2.46,2.46,0,0,0-1.36.35,2.76,2.76,0,0,0-.9.9,3.91,3.91,0,0,0-.5,1.26,6.78,6.78,0,0,0-.15,1.42Z"/><path d="M257.28,134.68a4.47,4.47,0,0,1-1.81-.37,4.29,4.29,0,0,1-1.4-1,4.54,4.54,0,0,1-.91-1.48,5.32,5.32,0,0,1-.33-1.8v-.38a5.62,5.62,0,0,1,.34-1.9,5,5,0,0,1,.9-1.53,4.23,4.23,0,0,1,1.35-1,3.74,3.74,0,0,1,1.66-.38,3.91,3.91,0,0,1,1.68.35,3.64,3.64,0,0,1,1.22.93,4,4,0,0,1,.76,1.39,5.75,5.75,0,0,1,.27,1.69v.65h-7.12v.2a4.57,4.57,0,0,0,.25,1.43,4,4,0,0,0,.7,1.2,3.54,3.54,0,0,0,1.08.83,3.23,3.23,0,0,0,1.4.31,3.64,3.64,0,0,0,1.6-.33,3.31,3.31,0,0,0,1.21-1l.67.5a4.46,4.46,0,0,1-.63.68,4,4,0,0,1-.8.53,4.28,4.28,0,0,1-1,.34A5.05,5.05,0,0,1,257.28,134.68Zm-.2-9a2.86,2.86,0,0,0-1.18.24,3,3,0,0,0-.94.67,3.84,3.84,0,0,0-.67,1,5.13,5.13,0,0,0-.36,1.28h6v-.12a3.71,3.71,0,0,0-.21-1.14,3,3,0,0,0-.57-1,2.63,2.63,0,0,0-2.09-1Z"/><path d="M281.36,134.5a4.82,4.82,0,0,1-.15-.65c0-.23-.06-.48-.07-.72a3.65,3.65,0,0,1-.63.61,4.2,4.2,0,0,1-.79.49,4.47,4.47,0,0,1-.91.33,4.34,4.34,0,0,1-1,.12,3.9,3.9,0,0,1-1.25-.2,3.32,3.32,0,0,1-1-.54,2.63,2.63,0,0,1-.67-.85,2.51,2.51,0,0,1-.24-1.11,2.54,2.54,0,0,1,.36-1.39,2.82,2.82,0,0,1,1-.93,4.6,4.6,0,0,1,1.42-.52,8.52,8.52,0,0,1,1.7-.17h2.06v-1.08a2.14,2.14,0,0,0-.22-.94,1.85,1.85,0,0,0-.55-.69,2.54,2.54,0,0,0-.82-.42,3.84,3.84,0,0,0-1-.14,3.79,3.79,0,0,0-1,.13,2.94,2.94,0,0,0-.82.38,2.2,2.2,0,0,0-.58.6,1.82,1.82,0,0,0-.24.81h-1a2.51,2.51,0,0,1,.32-1.12,2.9,2.9,0,0,1,.8-.88,3.82,3.82,0,0,1,1.16-.58,4.4,4.4,0,0,1,1.42-.22,5,5,0,0,1,1.42.2,3.28,3.28,0,0,1,1.15.58,2.92,2.92,0,0,1,.78,1,3.36,3.36,0,0,1,.29,1.36v4.6a6.22,6.22,0,0,0,.08,1c.06.32.13.63.21.92v.11Zm-3.47-.76a3.39,3.39,0,0,0,1.06-.13,3.51,3.51,0,0,0,.93-.39,3.35,3.35,0,0,0,.75-.6,3,3,0,0,0,.51-.76v-2.08h-1.92a8.36,8.36,0,0,0-1.34.11,4.16,4.16,0,0,0-1.13.34,2.11,2.11,0,0,0-.79.65,1.72,1.72,0,0,0-.29,1,1.74,1.74,0,0,0,.17.77,1.84,1.84,0,0,0,.48.59,2.23,2.23,0,0,0,.7.37A3,3,0,0,0,277.89,133.74Z"/><path d="M285.32,129.66a7.34,7.34,0,0,1,.23-1.83,4.52,4.52,0,0,1,.7-1.54,3.31,3.31,0,0,1,2.87-1.48,3.38,3.38,0,0,1,2.82,1.44L292,125h1v13.17h-1.05v-4.8a3.54,3.54,0,0,1-1.23,1,3.76,3.76,0,0,1-1.58.34,3.32,3.32,0,0,1-1.68-.41,3.71,3.71,0,0,1-1.18-1.08,5.1,5.1,0,0,1-.7-1.55,7.16,7.16,0,0,1-.23-1.8Zm1.06.18a6.18,6.18,0,0,0,.16,1.42,4.08,4.08,0,0,0,.51,1.27,2.9,2.9,0,0,0,.9.91,2.51,2.51,0,0,0,1.35.35,2.89,2.89,0,0,0,1.55-.43,3,3,0,0,0,1.07-1.15v-4.8a2.87,2.87,0,0,0-.45-.68,2.75,2.75,0,0,0-.59-.54,2.59,2.59,0,0,0-.73-.35,2.53,2.53,0,0,0-.83-.13,2.56,2.56,0,0,0-1.37.35,2.9,2.9,0,0,0-.9.91,4,4,0,0,0-.51,1.27,6.18,6.18,0,0,0-.16,1.42Z"/><path d="M302.81,133a3.5,3.5,0,0,1-1.25,1.23,3.74,3.74,0,0,1-1.84.44,3.57,3.57,0,0,1-1.4-.26,2.6,2.6,0,0,1-1-.75,3.33,3.33,0,0,1-.62-1.2,5.45,5.45,0,0,1-.22-1.63V125h1v5.87a3.55,3.55,0,0,0,.58,2.17,2,2,0,0,0,1.74.74,3.16,3.16,0,0,0,1.92-.54,2.86,2.86,0,0,0,1-1.48V125h1.07v9.51h-1Z"/><path d="M311.29,134.68a4.43,4.43,0,0,1-1.81-.37,4.19,4.19,0,0,1-1.4-1,4.54,4.54,0,0,1-.91-1.48,5.32,5.32,0,0,1-.33-1.8v-.38a5.62,5.62,0,0,1,.34-1.9,5,5,0,0,1,.9-1.53,4.23,4.23,0,0,1,1.35-1,3.74,3.74,0,0,1,1.66-.38,3.91,3.91,0,0,1,1.68.35,3.64,3.64,0,0,1,1.22.93,4.35,4.35,0,0,1,.76,1.39,5.75,5.75,0,0,1,.27,1.69v.65H307.9v.2a4.3,4.3,0,0,0,.25,1.43,4,4,0,0,0,.7,1.2,3.54,3.54,0,0,0,1.08.83,3.23,3.23,0,0,0,1.4.31,3.56,3.56,0,0,0,1.59-.33,3.34,3.34,0,0,0,1.22-1l.67.5a4.46,4.46,0,0,1-.63.68,4,4,0,0,1-.8.53,4.28,4.28,0,0,1-1,.34A5.05,5.05,0,0,1,311.29,134.68Zm-.2-9a2.86,2.86,0,0,0-1.18.24,3,3,0,0,0-.94.67,3.84,3.84,0,0,0-.67,1,5.13,5.13,0,0,0-.36,1.28h6v-.12a3.71,3.71,0,0,0-.21-1.14,3,3,0,0,0-.57-1,2.8,2.8,0,0,0-.89-.7A2.71,2.71,0,0,0,311.09,125.71Z"/><path d="M321.89,133.79a3.1,3.1,0,0,0,1-.16,2.59,2.59,0,0,0,.84-.44,2.41,2.41,0,0,0,.61-.7,2.14,2.14,0,0,0,.26-.93h1a2.93,2.93,0,0,1-.36,1.25,3.39,3.39,0,0,1-.82,1,3.9,3.9,0,0,1-1.17.64,3.94,3.94,0,0,1-4.5-1.21,4.64,4.64,0,0,1-.77-1.52,6.23,6.23,0,0,1-.26-1.78v-.37a6.23,6.23,0,0,1,.26-1.78,4.64,4.64,0,0,1,.77-1.52,3.88,3.88,0,0,1,1.29-1.05,4,4,0,0,1,1.81-.4,4.26,4.26,0,0,1,1.46.25,3.63,3.63,0,0,1,1.17.71,3.35,3.35,0,0,1,.79,1.07,3.78,3.78,0,0,1,.33,1.36h-1a2.58,2.58,0,0,0-.24-1,2.83,2.83,0,0,0-.58-.79,2.6,2.6,0,0,0-.85-.51,2.8,2.8,0,0,0-3.42,1,3.74,3.74,0,0,0-.54,1.24,5.53,5.53,0,0,0-.17,1.4v.37a5.55,5.55,0,0,0,.17,1.41,3.57,3.57,0,0,0,.54,1.24,2.74,2.74,0,0,0,2.37,1.21Z"/><path d="M329.08,125h4.41v8.58h3.24v.93h-7.65v-.93h3.36v-7.64h-3.36Zm3.05-2.6a.87.87,0,0,1,.18-.56.74.74,0,0,1,.62-.24.74.74,0,0,1,.61.24.89.89,0,0,1,0,1.1.76.76,0,0,1-.61.23.77.77,0,0,1-.62-.23A.88.88,0,0,1,332.13,122.39Z"/><path d="M339.67,125l0,1.06a2.34,2.34,0,0,1,.79-.89,2.38,2.38,0,0,1,1.28-.35,2.61,2.61,0,0,1,.72.1,1.59,1.59,0,0,1,.54.26,1.45,1.45,0,0,1,.38.4,2.16,2.16,0,0,1,.26.5,2.58,2.58,0,0,1,.82-.89,2.33,2.33,0,0,1,1.31-.37,2.08,2.08,0,0,1,1,.22,1.78,1.78,0,0,1,.67.57,2.42,2.42,0,0,1,.37.83,4.64,4.64,0,0,1,.11,1v7.07h-1v-7.07a3.17,3.17,0,0,0-.07-.61,1.71,1.71,0,0,0-.21-.56,1.24,1.24,0,0,0-.43-.39,1.39,1.39,0,0,0-.71-.14,1.81,1.81,0,0,0-.74.14,1.5,1.5,0,0,0-.81.81,2.21,2.21,0,0,0-.16.52v7.3h-1v-7.16a2.88,2.88,0,0,0-.06-.59,1.42,1.42,0,0,0-.21-.52,1.19,1.19,0,0,0-.43-.37,1.42,1.42,0,0,0-.69-.13,1.89,1.89,0,0,0-.72.13,1.32,1.32,0,0,0-.49.33,1.86,1.86,0,0,0-.32.47,3.69,3.69,0,0,0-.19.56v7.28h-1V125Z"/><path d="M354.5,134.68a4.4,4.4,0,0,1-1.81-.37,4.09,4.09,0,0,1-1.4-1,4.38,4.38,0,0,1-.91-1.48,5.09,5.09,0,0,1-.33-1.8v-.38a5.62,5.62,0,0,1,.34-1.9,5,5,0,0,1,.9-1.53,4.3,4.3,0,0,1,1.34-1,3.79,3.79,0,0,1,1.67-.38,3.83,3.83,0,0,1,1.67.35,3.58,3.58,0,0,1,1.23.93,4.35,4.35,0,0,1,.76,1.39,5.44,5.44,0,0,1,.26,1.69v.65H351.1v.2a4.58,4.58,0,0,0,.26,1.43,3.76,3.76,0,0,0,.69,1.2,3.47,3.47,0,0,0,1.09.83,3.23,3.23,0,0,0,1.4.31,3.56,3.56,0,0,0,1.59-.33,3.23,3.23,0,0,0,1.21-1l.67.5a3.94,3.94,0,0,1-.62.68,3.78,3.78,0,0,1-.81.53,4,4,0,0,1-1,.34A5,5,0,0,1,354.5,134.68Zm-.2-9a2.86,2.86,0,0,0-1.18.24,3,3,0,0,0-.94.67,3.61,3.61,0,0,0-.67,1,4.41,4.41,0,0,0-.36,1.28h6v-.12a3.44,3.44,0,0,0-.22-1.14,3.22,3.22,0,0,0-.56-1,2.8,2.8,0,0,0-.89-.7A2.71,2.71,0,0,0,354.3,125.71Z"/><path d="M362.21,125l.07,1.78a3.94,3.94,0,0,1,1.34-1.41,3.52,3.52,0,0,1,1.9-.55,3,3,0,0,1,2.39.94,3.89,3.89,0,0,1,.83,2.66v6.09h-1.05v-6.07a3.09,3.09,0,0,0-.6-2,2.21,2.21,0,0,0-1.83-.69,2.64,2.64,0,0,0-1,.17,3.08,3.08,0,0,0-.84.45,3.42,3.42,0,0,0-.68.69,3.8,3.8,0,0,0-.48.86v6.6h-1.05V125Z"/><path d="M375.55,122.56V125h3.52v.86h-3.52v6a2.26,2.26,0,0,0,.17.92,1.44,1.44,0,0,0,.44.58,1.59,1.59,0,0,0,.65.32,3,3,0,0,0,.81.1,6.92,6.92,0,0,0,.9-.06l.79-.12.16.8a4,4,0,0,1-.93.22,8,8,0,0,1-1.1.08,4.3,4.3,0,0,1-1.17-.16,2.31,2.31,0,0,1-.93-.49,2.28,2.28,0,0,1-.63-.88,3.43,3.43,0,0,1-.23-1.32v-6h-2.65V125h2.65v-2.43Z"/><path d="M382.3,129.6a5.57,5.57,0,0,1,.3-1.83,4.71,4.71,0,0,1,.83-1.53,4.09,4.09,0,0,1,1.32-1,4.28,4.28,0,0,1,3.57,0,4,4,0,0,1,1.33,1,4.55,4.55,0,0,1,.84,1.53,6.15,6.15,0,0,1,.3,1.83v.29a6.17,6.17,0,0,1-.3,1.84,4.53,4.53,0,0,1-.83,1.53,3.87,3.87,0,0,1-1.33,1,3.92,3.92,0,0,1-1.78.39,4,4,0,0,1-3.12-1.42,4.71,4.71,0,0,1-.83-1.53,5.59,5.59,0,0,1-.3-1.84Zm1.05.29a5.05,5.05,0,0,0,.21,1.46,4,4,0,0,0,.62,1.25,3,3,0,0,0,1,.86,2.82,2.82,0,0,0,1.38.33,2.78,2.78,0,0,0,1.37-.33,3,3,0,0,0,1-.86,3.94,3.94,0,0,0,.61-1.25,5.05,5.05,0,0,0,.21-1.46v-.29a5.09,5.09,0,0,0-.21-1.45,4,4,0,0,0-.61-1.24,3.14,3.14,0,0,0-1-.87,3,3,0,0,0-2.73,0,3.1,3.1,0,0,0-1,.87,4.22,4.22,0,0,0-.61,1.24,5.09,5.09,0,0,0-.21,1.45Z"/><path d="M398.49,134.19a3.46,3.46,0,0,1-.09.78,4.4,4.4,0,0,1-.23.76,4.19,4.19,0,0,1-.39.72,3.24,3.24,0,0,1-.52.64l-.67-.42a4.19,4.19,0,0,0,.77-2.45v-1.37h1.13Zm-1.34-8.14a.88.88,0,0,1,.24-.62,1,1,0,0,1,1.32,0,.88.88,0,0,1,.24.62.82.82,0,0,1-.24.61,1,1,0,0,1-1.32,0A.82.82,0,0,1,397.15,126.05Z"/><path class="cls-6" d="M86.54,153.58a1.15,1.15,0,0,0-.12-.53,1.14,1.14,0,0,0-.38-.42,3.44,3.44,0,0,0-.72-.36A8.15,8.15,0,0,0,84.2,152a10.65,10.65,0,0,1-1.49-.41,4.93,4.93,0,0,1-1.15-.56,2.38,2.38,0,0,1-.74-.78,1.93,1.93,0,0,1-.27-1,2.29,2.29,0,0,1,.27-1.09,2.78,2.78,0,0,1,.77-.88,4,4,0,0,1,1.17-.6,5.38,5.38,0,0,1,3.08,0,3.62,3.62,0,0,1,1.2.64,2.75,2.75,0,0,1,.76.94,2.57,2.57,0,0,1,.27,1.16H86.44a1.23,1.23,0,0,0-.16-.6,1.65,1.65,0,0,0-.44-.52,2.21,2.21,0,0,0-.68-.37,2.83,2.83,0,0,0-.9-.14,3.49,3.49,0,0,0-.91.11,2.07,2.07,0,0,0-.65.31,1.38,1.38,0,0,0-.39.45,1.12,1.12,0,0,0-.13.53,1.18,1.18,0,0,0,.1.5,1,1,0,0,0,.37.39,2.47,2.47,0,0,0,.69.32c.29.09.66.18,1.1.27a14.14,14.14,0,0,1,1.58.43,4.56,4.56,0,0,1,1.17.58,2.45,2.45,0,0,1,.72.79,2,2,0,0,1,.25,1,2.33,2.33,0,0,1-.28,1.15,2.61,2.61,0,0,1-.8.89,3.72,3.72,0,0,1-1.22.57,5.45,5.45,0,0,1-1.56.21,5.36,5.36,0,0,1-1.72-.26,4.45,4.45,0,0,1-1.28-.69,2.92,2.92,0,0,1-.8-1,2.64,2.64,0,0,1-.27-1.17h1.62a1.71,1.71,0,0,0,.27.85,1.9,1.9,0,0,0,.58.55,2.47,2.47,0,0,0,.77.3,4,4,0,0,0,.83.09,3,3,0,0,0,1.63-.38A1.18,1.18,0,0,0,86.54,153.58Z"/><path class="cls-6" d="M95.22,156.28a4.79,4.79,0,0,1-1.84-.35,4.23,4.23,0,0,1-1.44-1,4.3,4.3,0,0,1-.93-1.45,5.05,5.05,0,0,1-.33-1.84v-.37a5.37,5.37,0,0,1,.37-2.06,4.71,4.71,0,0,1,1-1.54,4.34,4.34,0,0,1,1.39-1,4.07,4.07,0,0,1,1.6-.34,4.25,4.25,0,0,1,1.8.36,3.64,3.64,0,0,1,1.27,1,4.12,4.12,0,0,1,.76,1.49,6.34,6.34,0,0,1,.26,1.84v.73H92.3a3.79,3.79,0,0,0,.25,1.22,3.18,3.18,0,0,0,.62,1,2.85,2.85,0,0,0,2.14.92A3.27,3.27,0,0,0,98,153.66l1,.78a3.39,3.39,0,0,1-.59.69,4.15,4.15,0,0,1-.82.58,4.42,4.42,0,0,1-1.06.41A5.15,5.15,0,0,1,95.22,156.28ZM95,147.75a2.41,2.41,0,0,0-.93.18,2.34,2.34,0,0,0-.79.53,2.82,2.82,0,0,0-.6.85,4.27,4.27,0,0,0-.34,1.16h5.12v-.12a3.81,3.81,0,0,0-.18-.94,2.47,2.47,0,0,0-.45-.83,2.16,2.16,0,0,0-.76-.6A2.38,2.38,0,0,0,95,147.75Z"/><path class="cls-6" d="M103.28,146.59l.11,1.41a3.73,3.73,0,0,1,1.28-1.16,3.5,3.5,0,0,1,1.69-.43,4.11,4.11,0,0,1,1.35.21,2.73,2.73,0,0,1,1,.66,3,3,0,0,1,.67,1.14,5.32,5.32,0,0,1,.23,1.64v6H108v-6a3.73,3.73,0,0,0-.14-1.08,1.84,1.84,0,0,0-.42-.71,1.64,1.64,0,0,0-.68-.39,2.88,2.88,0,0,0-.92-.13,2.55,2.55,0,0,0-1.43.41,2.86,2.86,0,0,0-1,1.08v6.82h-1.63v-9.51Z"/><path class="cls-6" d="M118.87,156.1a1.66,1.66,0,0,1-.15-.46,5.4,5.4,0,0,1-.09-.58,3.67,3.67,0,0,1-.55.47,4.2,4.2,0,0,1-1.44.65,4.16,4.16,0,0,1-.88.1,4.23,4.23,0,0,1-1.37-.22,3.14,3.14,0,0,1-1-.6,2.41,2.41,0,0,1-.66-.89,2.57,2.57,0,0,1-.24-1.11,2.86,2.86,0,0,1,.32-1.37,2.66,2.66,0,0,1,.88-1,4.17,4.17,0,0,1,1.37-.58,7.69,7.69,0,0,1,1.8-.2h1.78v-.74a1.78,1.78,0,0,0-.16-.78,1.71,1.71,0,0,0-.45-.58,1.92,1.92,0,0,0-.71-.37,3,3,0,0,0-.93-.14,2.65,2.65,0,0,0-.87.13,2.13,2.13,0,0,0-.64.32,1.42,1.42,0,0,0-.41.48,1.22,1.22,0,0,0-.15.58h-1.63a2.21,2.21,0,0,1,.26-1,2.91,2.91,0,0,1,.75-.9,3.77,3.77,0,0,1,1.19-.65,4.82,4.82,0,0,1,1.59-.25,5.6,5.6,0,0,1,1.5.2,3.39,3.39,0,0,1,1.2.6,2.88,2.88,0,0,1,.79,1,3.06,3.06,0,0,1,.29,1.39V154a6,6,0,0,0,.09,1,4.16,4.16,0,0,0,.25.93v.14Zm.74-13.38a2.14,2.14,0,0,1-.14.76,2,2,0,0,1-.37.63,1.69,1.69,0,0,1-.57.42,1.63,1.63,0,0,1-.73.16,2.06,2.06,0,0,1-.52-.06,2.6,2.6,0,0,1-.42-.15,4.05,4.05,0,0,1-.35-.21l-.34-.2a2.39,2.39,0,0,0-.37-.15,1.44,1.44,0,0,0-.43-.06.83.83,0,0,0-.64.28,1,1,0,0,0-.25.69l-.92-.21a2.18,2.18,0,0,1,.14-.76,2,2,0,0,1,.37-.64,1.75,1.75,0,0,1,.57-.44,1.48,1.48,0,0,1,.73-.17,1.6,1.6,0,0,1,.67.13c.19.09.38.18.57.29l.56.28a1.45,1.45,0,0,0,.63.13.72.72,0,0,0,.35-.08.86.86,0,0,0,.29-.21,1.17,1.17,0,0,0,.19-.31,1,1,0,0,0,.07-.38ZM116,154.86a3.24,3.24,0,0,0,.89-.12,3.63,3.63,0,0,0,.75-.33,2.67,2.67,0,0,0,.58-.46,2.17,2.17,0,0,0,.39-.54v-1.92H117.1a4.82,4.82,0,0,0-2.22.42,1.39,1.39,0,0,0-.79,1.32,1.67,1.67,0,0,0,.12.65,1.35,1.35,0,0,0,.36.52,1.76,1.76,0,0,0,.59.34A2.66,2.66,0,0,0,116,154.86Z"/><path class="cls-6" d="M123,151.26a5.84,5.84,0,0,1,.3-1.91,4.6,4.6,0,0,1,.85-1.54,4.06,4.06,0,0,1,1.36-1,4.17,4.17,0,0,1,1.8-.38,4.26,4.26,0,0,1,1.82.38,4.06,4.06,0,0,1,1.36,1,4.62,4.62,0,0,1,.86,1.54,5.84,5.84,0,0,1,.3,1.91v.19a5.88,5.88,0,0,1-.3,1.91,4.78,4.78,0,0,1-.86,1.53,4,4,0,0,1-1.36,1,4.32,4.32,0,0,1-1.8.37,4.45,4.45,0,0,1-1.82-.37,4.06,4.06,0,0,1-1.36-1,4.75,4.75,0,0,1-.85-1.53,5.88,5.88,0,0,1-.3-1.91Zm1.62.19a5.29,5.29,0,0,0,.17,1.34,3.29,3.29,0,0,0,.51,1.12,2.48,2.48,0,0,0,.84.77,2.52,2.52,0,0,0,1.19.28,2.44,2.44,0,0,0,1.17-.28,2.61,2.61,0,0,0,.85-.77,3.47,3.47,0,0,0,.5-1.12,5.29,5.29,0,0,0,.17-1.34v-.19a5.21,5.21,0,0,0-.17-1.33,3.89,3.89,0,0,0-.51-1.13,2.8,2.8,0,0,0-.84-.77,2.52,2.52,0,0,0-1.19-.28,2.48,2.48,0,0,0-1.18.28,2.66,2.66,0,0,0-.83.77,3.43,3.43,0,0,0-.51,1.13,5.21,5.21,0,0,0-.17,1.33Z"/><path d="M152.53,147.45h-3.79l0,8.65h-1.09v-8.65h-2.59v-.86h2.6v-.76a4.37,4.37,0,0,1,.3-1.64,2.88,2.88,0,0,1,.8-1.08,3.07,3.07,0,0,1,1.18-.6,5.57,5.57,0,0,1,1.44-.18,7.66,7.66,0,0,1,1,.06c.32,0,.64.1,1,.17l-.13.9a8.08,8.08,0,0,0-.8-.16,6.62,6.62,0,0,0-.91-.06,4.47,4.47,0,0,0-1.06.12,2.48,2.48,0,0,0-.88.42,2.06,2.06,0,0,0-.6.8,3.4,3.4,0,0,0-.23,1.25v.76h3.79Z"/><path d="M162.54,156.1a3.7,3.7,0,0,1-.14-.65c0-.23-.06-.48-.08-.72a3.65,3.65,0,0,1-.63.61,4.2,4.2,0,0,1-.79.49,4.26,4.26,0,0,1-.91.33,4.34,4.34,0,0,1-1,.12,3.79,3.79,0,0,1-1.24-.2,3.25,3.25,0,0,1-1-.54,2.6,2.6,0,0,1-.66-.85,2.39,2.39,0,0,1-.25-1.11,2.54,2.54,0,0,1,.36-1.39,2.82,2.82,0,0,1,1-.93,4.6,4.6,0,0,1,1.42-.52,8.52,8.52,0,0,1,1.7-.17h2.06v-1.08a2.21,2.21,0,0,0-.22-1,1.9,1.9,0,0,0-.54-.68,2.7,2.7,0,0,0-.83-.42,3.84,3.84,0,0,0-1-.14,3.79,3.79,0,0,0-1,.13,2.94,2.94,0,0,0-.82.38,2.2,2.2,0,0,0-.58.6,1.7,1.7,0,0,0-.23.81H156a2.39,2.39,0,0,1,.32-1.12,2.9,2.9,0,0,1,.8-.88,4.08,4.08,0,0,1,1.16-.59,4.69,4.69,0,0,1,1.42-.21,5,5,0,0,1,1.42.2,3.28,3.28,0,0,1,1.15.58,2.8,2.8,0,0,1,.78,1,3.2,3.2,0,0,1,.29,1.36v4.6a6.22,6.22,0,0,0,.08,1c.06.32.13.63.21.92v.11Zm-3.47-.76a3.39,3.39,0,0,0,1.06-.13,3.51,3.51,0,0,0,.93-.39,3.66,3.66,0,0,0,.75-.6,3,3,0,0,0,.51-.76v-2.08H160.4a7.35,7.35,0,0,0-1.34.11,4.16,4.16,0,0,0-1.13.34,2.11,2.11,0,0,0-.79.65,1.7,1.7,0,0,0-.29,1,1.74,1.74,0,0,0,.17.77,1.84,1.84,0,0,0,.48.59,2.23,2.23,0,0,0,.7.37A3,3,0,0,0,159.07,155.34Z"/><path d="M167.79,155.21h7v.89h-8.35v-.77l6.47-7.84h-6.28v-.9h7.69v.78Z"/><path d="M181.67,156.28a4.43,4.43,0,0,1-1.81-.37,4.19,4.19,0,0,1-1.4-1,4.38,4.38,0,0,1-.91-1.48,5.32,5.32,0,0,1-.33-1.8v-.38a5.62,5.62,0,0,1,.34-1.9,4.83,4.83,0,0,1,.9-1.53,4.23,4.23,0,0,1,1.35-1,3.74,3.74,0,0,1,1.66-.38,3.91,3.91,0,0,1,1.68.35,3.64,3.64,0,0,1,1.22.93,4.35,4.35,0,0,1,.76,1.39,5.75,5.75,0,0,1,.27,1.69v.64h-7.12v.21a4.24,4.24,0,0,0,.25,1.42,3.75,3.75,0,0,0,.7,1.2,3.31,3.31,0,0,0,1.08.84,3.23,3.23,0,0,0,1.4.31,3.71,3.71,0,0,0,1.59-.33,3.34,3.34,0,0,0,1.22-1l.66.5a3.82,3.82,0,0,1-1.42,1.21,4.28,4.28,0,0,1-1,.34A5.12,5.12,0,0,1,181.67,156.28Zm-.2-9a2.86,2.86,0,0,0-1.18.24,3,3,0,0,0-.94.67,3.84,3.84,0,0,0-.67,1,4.74,4.74,0,0,0-.36,1.28h6v-.12a3.71,3.71,0,0,0-.21-1.14,3.24,3.24,0,0,0-.57-1,2.8,2.8,0,0,0-.89-.7A2.71,2.71,0,0,0,181.47,147.31Z"/><path d="M194.7,146.41a6.84,6.84,0,0,1,.79.05,3,3,0,0,1,.66.14l-.13,1c-.24-.05-.49-.09-.74-.12a6,6,0,0,0-.75-.05,4,4,0,0,0-2.27.63,3.39,3.39,0,0,0-1.31,2v6.08h-1.09v-9.51h1l.07,1.65v.2a4.23,4.23,0,0,1,1.54-1.49A4.44,4.44,0,0,1,194.7,146.41Z"/><path d="M216.12,152h2v.88h-2v3.24h-1v-3.24h-6v-.59l5.91-9h1.15Zm-5.8,0h4.76v-7.35l-.51.89Z"/><path d="M228.57,151a8.22,8.22,0,0,1-.24,2,5.07,5.07,0,0,1-.73,1.67,3.67,3.67,0,0,1-1.25,1.13,3.63,3.63,0,0,1-1.8.42,3.68,3.68,0,0,1-1.8-.42,3.76,3.76,0,0,1-1.25-1.13,4.89,4.89,0,0,1-.74-1.67,8.22,8.22,0,0,1-.25-2v-2.67a8.73,8.73,0,0,1,.24-2,5.14,5.14,0,0,1,.74-1.68,3.69,3.69,0,0,1,1.25-1.14,3.73,3.73,0,0,1,1.79-.41,3.81,3.81,0,0,1,1.81.41,3.6,3.6,0,0,1,1.25,1.14,5.3,5.3,0,0,1,.74,1.67,8.36,8.36,0,0,1,.24,2Zm-7,.16c0,.24,0,.46,0,.68l5.77-5.23a4.88,4.88,0,0,0-.34-1,2.83,2.83,0,0,0-.57-.84,2.46,2.46,0,0,0-.82-.55,2.67,2.67,0,0,0-1.1-.21,2.62,2.62,0,0,0-1.38.35,2.7,2.7,0,0,0-.92.92,4.45,4.45,0,0,0-.51,1.34,8.06,8.06,0,0,0-.16,1.58Zm5.95-3c0-.2,0-.39,0-.57l-5.75,5.22a5.24,5.24,0,0,0,.36,1,2.76,2.76,0,0,0,.57.8,2.32,2.32,0,0,0,.81.53,2.76,2.76,0,0,0,1.07.2,2.63,2.63,0,0,0,1.39-.35,2.7,2.7,0,0,0,.91-.93,4.13,4.13,0,0,0,.5-1.33,7.43,7.43,0,0,0,.16-1.58Z"/><path d="M231.65,146.59l0,1.06a2.21,2.21,0,0,1,2.07-1.24,2.61,2.61,0,0,1,.72.1,1.51,1.51,0,0,1,.54.26,1.65,1.65,0,0,1,.39.4,2.13,2.13,0,0,1,.25.5,2.58,2.58,0,0,1,.82-.89,2.35,2.35,0,0,1,1.31-.37,2.28,2.28,0,0,1,1,.21,2,2,0,0,1,.67.58,2.23,2.23,0,0,1,.36.83,4.64,4.64,0,0,1,.11,1v7.07h-1V149a3.15,3.15,0,0,0-.06-.61,2,2,0,0,0-.22-.56,1.16,1.16,0,0,0-.43-.39,1.36,1.36,0,0,0-.71-.14,1.81,1.81,0,0,0-.74.14,1.52,1.52,0,0,0-.5.34,1.6,1.6,0,0,0-.31.47,2.59,2.59,0,0,0-.16.52v7.3h-1v-7.16a2.32,2.32,0,0,0-.07-.59,1.42,1.42,0,0,0-.21-.52,1,1,0,0,0-.43-.37,1.42,1.42,0,0,0-.69-.13,1.93,1.93,0,0,0-.72.13,1.41,1.41,0,0,0-.49.33,1.86,1.86,0,0,0-.32.47,3.65,3.65,0,0,0-.18.56v7.28h-1v-9.51Z"/><path d="M242.66,146.59h4.42v8.58h3.23v.93h-7.65v-.93H246v-7.64h-3.36Zm3.06-2.6a.87.87,0,0,1,.18-.56.72.72,0,0,1,.61-.24.74.74,0,0,1,.62.24.89.89,0,0,1,0,1.1.77.77,0,0,1-.62.23.75.75,0,0,1-.61-.23A.88.88,0,0,1,245.72,144Z"/><path d="M254.19,146.59l.08,1.78A4,4,0,0,1,255.6,147a3.6,3.6,0,0,1,1.9-.54,3,3,0,0,1,2.39.94,3.94,3.94,0,0,1,.84,2.66v6.09h-1.06V150a3,3,0,0,0-.6-2,2.2,2.2,0,0,0-1.82-.69,2.92,2.92,0,0,0-1,.16,3.81,3.81,0,0,0-.84.46,3.71,3.71,0,0,0-.68.69,3.76,3.76,0,0,0-.47.86v6.6h-1.06v-9.51Z"/><path d="M274.51,151.26a7.34,7.34,0,0,1,.23-1.83,5,5,0,0,1,.71-1.54,3.69,3.69,0,0,1,1.18-1.08,3.41,3.41,0,0,1,1.67-.4,3.35,3.35,0,0,1,1.62.39,3.45,3.45,0,0,1,1.2,1.08V142.6h1v13.5h-1l0-1.24a3.37,3.37,0,0,1-1.24,1,3.58,3.58,0,0,1-1.62.37,3.26,3.26,0,0,1-1.65-.41,3.84,3.84,0,0,1-1.18-1.09,5,5,0,0,1-.71-1.54,7.16,7.16,0,0,1-.23-1.8Zm1.06.18a6.18,6.18,0,0,0,.16,1.42,4,4,0,0,0,.49,1.26,2.76,2.76,0,0,0,.9.9,2.51,2.51,0,0,0,1.35.34,3.35,3.35,0,0,0,.85-.11,3.09,3.09,0,0,0,.74-.33,3.3,3.3,0,0,0,.6-.52,3.25,3.25,0,0,0,.46-.68v-4.61a3.75,3.75,0,0,0-.44-.72,2.84,2.84,0,0,0-.59-.56,2.72,2.72,0,0,0-1.6-.5,2.44,2.44,0,0,0-1.36.35,2.76,2.76,0,0,0-.9.9,3.7,3.7,0,0,0-.5,1.26,6.18,6.18,0,0,0-.16,1.42Z"/><path d="M289.69,156.28a4.4,4.4,0,0,1-1.81-.37,4.09,4.09,0,0,1-1.4-1,4.23,4.23,0,0,1-.91-1.48,4.88,4.88,0,0,1-.33-1.8v-.38a5.38,5.38,0,0,1,.34-1.9,4.83,4.83,0,0,1,.9-1.53,4.3,4.3,0,0,1,1.34-1,3.78,3.78,0,0,1,1.66-.38,3.85,3.85,0,0,1,1.68.35,3.58,3.58,0,0,1,1.23.93,4.35,4.35,0,0,1,.76,1.39,5.44,5.44,0,0,1,.26,1.69v.64h-7.12v.21a4.52,4.52,0,0,0,.26,1.42,3.56,3.56,0,0,0,.69,1.2,3.42,3.42,0,0,0,1.08.84,3.31,3.31,0,0,0,1.41.31,3.71,3.71,0,0,0,1.59-.33,3.23,3.23,0,0,0,1.21-1l.67.5a3.94,3.94,0,0,1-.62.68,3.78,3.78,0,0,1-.81.53,4.11,4.11,0,0,1-1,.34A5,5,0,0,1,289.69,156.28Zm-.21-9a2.81,2.81,0,0,0-1.17.24,3,3,0,0,0-.94.67,3.61,3.61,0,0,0-.67,1,4.41,4.41,0,0,0-.36,1.28h6v-.12a3.44,3.44,0,0,0-.22-1.14,3.22,3.22,0,0,0-.56-1,2.8,2.8,0,0,0-.89-.7A2.73,2.73,0,0,0,289.48,147.31Z"/><path d="M313.77,156.1a3,3,0,0,1-.15-.65,5.66,5.66,0,0,1-.07-.72,3.65,3.65,0,0,1-.63.61,4.53,4.53,0,0,1-1.71.82,4.34,4.34,0,0,1-1,.12,3.84,3.84,0,0,1-1.24-.2,3.2,3.2,0,0,1-1-.54,2.46,2.46,0,0,1-.91-2,2.54,2.54,0,0,1,.36-1.39,2.79,2.79,0,0,1,1-.93,4.66,4.66,0,0,1,1.43-.52,8.42,8.42,0,0,1,1.69-.17h2.06v-1.08a2.37,2.37,0,0,0-.21-1,2,2,0,0,0-.55-.68,2.59,2.59,0,0,0-.83-.42,3.79,3.79,0,0,0-1-.14,3.85,3.85,0,0,0-1,.13,2.94,2.94,0,0,0-.82.38,2.16,2.16,0,0,0-.57.6,1.6,1.6,0,0,0-.24.81h-1.05a2.28,2.28,0,0,1,.32-1.12,2.87,2.87,0,0,1,.79-.88,4.15,4.15,0,0,1,1.17-.59,4.64,4.64,0,0,1,1.42-.21,5.08,5.08,0,0,1,1.42.2,3.37,3.37,0,0,1,1.15.58,2.89,2.89,0,0,1,.77,1,3.06,3.06,0,0,1,.29,1.36v4.6a5.2,5.2,0,0,0,.09,1,6.51,6.51,0,0,0,.21.92v.11Zm-3.47-.76a3.39,3.39,0,0,0,1.06-.13,3.59,3.59,0,0,0,.92-.39,3.41,3.41,0,0,0,.75-.6,2.54,2.54,0,0,0,.51-.76v-2.08h-1.92a7.24,7.24,0,0,0-1.33.11,4.12,4.12,0,0,0-1.14.34,2.08,2.08,0,0,0-.78.65,1.64,1.64,0,0,0-.3,1,1.62,1.62,0,0,0,.18.77,1.81,1.81,0,0,0,.47.59,2.28,2.28,0,0,0,.71.37A3,3,0,0,0,310.3,155.34Z"/><path d="M317.72,151.26a7.34,7.34,0,0,1,.23-1.83,4.72,4.72,0,0,1,.7-1.54,3.35,3.35,0,0,1,2.88-1.48,3.38,3.38,0,0,1,2.81,1.44l.06-1.26h1v13.17h-1.06V155a3.54,3.54,0,0,1-1.23,1,3.73,3.73,0,0,1-1.58.34,3.37,3.37,0,0,1-1.68-.41,3.84,3.84,0,0,1-1.18-1.09,4.7,4.7,0,0,1-.69-1.54,6.74,6.74,0,0,1-.24-1.8Zm1.07.18a6.18,6.18,0,0,0,.16,1.42,4.06,4.06,0,0,0,.5,1.27,2.9,2.9,0,0,0,.9.91,2.52,2.52,0,0,0,1.36.35,2.91,2.91,0,0,0,1.55-.43,3,3,0,0,0,1.06-1.15V149a3.17,3.17,0,0,0-.44-.68,3.06,3.06,0,0,0-.6-.54,2.67,2.67,0,0,0-.72-.35,2.59,2.59,0,0,0-.84-.13,2.52,2.52,0,0,0-1.36.35,2.83,2.83,0,0,0-.91.91,4,4,0,0,0-.5,1.27,6.18,6.18,0,0,0-.16,1.42Z"/><path d="M335.21,154.61a3.35,3.35,0,0,1-1.25,1.23,3.71,3.71,0,0,1-1.84.44,3.52,3.52,0,0,1-1.39-.26,2.53,2.53,0,0,1-1-.75,3.19,3.19,0,0,1-.63-1.2,5.81,5.81,0,0,1-.21-1.63v-5.85h1v5.87a3.62,3.62,0,0,0,.58,2.17,2.07,2.07,0,0,0,1.74.74,3.13,3.13,0,0,0,1.93-.55,2.85,2.85,0,0,0,1-1.47v-6.76h1.06v9.51h-1Z"/><path d="M343.7,156.28a4.4,4.4,0,0,1-1.81-.37,4.23,4.23,0,0,1-1.41-1,4.36,4.36,0,0,1-.9-1.48,4.88,4.88,0,0,1-.33-1.8v-.38a5.38,5.38,0,0,1,.34-1.9,4.83,4.83,0,0,1,.9-1.53,4.3,4.3,0,0,1,1.34-1,3.78,3.78,0,0,1,1.66-.38,3.85,3.85,0,0,1,1.68.35,3.58,3.58,0,0,1,1.23.93,4.14,4.14,0,0,1,.75,1.39,5.16,5.16,0,0,1,.27,1.69v.64H340.3v.21a4.25,4.25,0,0,0,.26,1.42,3.56,3.56,0,0,0,.69,1.2,3.42,3.42,0,0,0,1.08.84,3.24,3.24,0,0,0,1.41.31,3.74,3.74,0,0,0,1.59-.33,3.23,3.23,0,0,0,1.21-1l.67.5a3.94,3.94,0,0,1-.62.68,3.78,3.78,0,0,1-.81.53,4.11,4.11,0,0,1-1,.34A5,5,0,0,1,343.7,156.28Zm-.21-9a2.81,2.81,0,0,0-1.17.24,3,3,0,0,0-.94.67,3.61,3.61,0,0,0-.67,1,4.41,4.41,0,0,0-.36,1.28h6v-.12a3.72,3.72,0,0,0-.22-1.14,3.22,3.22,0,0,0-.56-1,2.8,2.8,0,0,0-.89-.7A2.76,2.76,0,0,0,343.49,147.31Z"/><path d="M354.3,155.39a3,3,0,0,0,1-.16,2.74,2.74,0,0,0,.85-.44,2.24,2.24,0,0,0,.6-.7,2,2,0,0,0,.27-.93h1a2.82,2.82,0,0,1-.35,1.25,3.43,3.43,0,0,1-.83,1,3.9,3.9,0,0,1-1.17.64,4.23,4.23,0,0,1-3.2-.16,3.71,3.71,0,0,1-1.29-1.06,4.7,4.7,0,0,1-.78-1.51,6.23,6.23,0,0,1-.26-1.78v-.37a6.18,6.18,0,0,1,.26-1.78,4.86,4.86,0,0,1,.78-1.52,3.69,3.69,0,0,1,1.29-1.05,3.93,3.93,0,0,1,1.81-.4,4.34,4.34,0,0,1,1.46.25,3.63,3.63,0,0,1,1.17.71,3.5,3.5,0,0,1,.79,1.07,3.57,3.57,0,0,1,.32,1.36h-1a2.59,2.59,0,0,0-.25-1,2.65,2.65,0,0,0-.58-.79,2.76,2.76,0,0,0-.84-.52,3.06,3.06,0,0,0-1.06-.18,2.78,2.78,0,0,0-1.41.33,2.9,2.9,0,0,0-1,.88,4.2,4.2,0,0,0-.54,1.24,6,6,0,0,0-.17,1.4v.37a6,6,0,0,0,.17,1.41,4,4,0,0,0,.54,1.24,2.77,2.77,0,0,0,1,.87A2.72,2.72,0,0,0,354.3,155.39Z"/><path d="M361.48,146.59h4.42v8.58h3.23v.93h-7.65v-.93h3.36v-7.64h-3.36Zm3-2.6a.88.88,0,0,1,.19-.56.72.72,0,0,1,.61-.24.71.71,0,0,1,.61.24.89.89,0,0,1,0,1.1.74.74,0,0,1-.61.23.75.75,0,0,1-.61-.23A.89.89,0,0,1,364.53,144Z"/><path d="M372.07,146.59l0,1.06a2.45,2.45,0,0,1,.8-.89,2.36,2.36,0,0,1,1.28-.35,2.53,2.53,0,0,1,.71.1,1.51,1.51,0,0,1,.54.26,1.65,1.65,0,0,1,.39.4,2.13,2.13,0,0,1,.25.5,2.61,2.61,0,0,1,.83-.89,2.54,2.54,0,0,1,2.33-.16,2,2,0,0,1,.67.58,2.23,2.23,0,0,1,.36.83,4.64,4.64,0,0,1,.11,1v7.07h-1V149a3.15,3.15,0,0,0-.06-.61,1.53,1.53,0,0,0-.22-.56,1.09,1.09,0,0,0-.43-.39,1.35,1.35,0,0,0-.7-.14,1.82,1.82,0,0,0-.75.14,1.52,1.52,0,0,0-.5.34,1.82,1.82,0,0,0-.31.47,3.45,3.45,0,0,0-.16.52v7.3h-1v-7.16a2.88,2.88,0,0,0-.06-.59,1.28,1.28,0,0,0-.22-.52,1.08,1.08,0,0,0-.42-.37,1.49,1.49,0,0,0-.7-.13,1.84,1.84,0,0,0-.71.13,1.45,1.45,0,0,0-.5.33,1.82,1.82,0,0,0-.31.47,2.84,2.84,0,0,0-.19.56v7.28h-1v-9.51Z"/><path d="M386.9,156.28a4.47,4.47,0,0,1-1.81-.37,4.29,4.29,0,0,1-1.4-1,4.54,4.54,0,0,1-.91-1.48,5.09,5.09,0,0,1-.32-1.8v-.38a5.38,5.38,0,0,1,.33-1.9,4.83,4.83,0,0,1,.9-1.53,4.23,4.23,0,0,1,1.35-1,3.78,3.78,0,0,1,1.66-.38,3.91,3.91,0,0,1,1.68.35,3.54,3.54,0,0,1,1.22.93,4,4,0,0,1,.76,1.39,5.75,5.75,0,0,1,.27,1.69v.64h-7.12v.21a4.51,4.51,0,0,0,.25,1.42,3.75,3.75,0,0,0,.7,1.2,3.42,3.42,0,0,0,1.08.84,3.24,3.24,0,0,0,1.41.31,3.77,3.77,0,0,0,1.59-.33,3.31,3.31,0,0,0,1.21-1l.67.5a4.46,4.46,0,0,1-.63.68,3.71,3.71,0,0,1-.8.53,4.28,4.28,0,0,1-1,.34A5,5,0,0,1,386.9,156.28Zm-.2-9a2.86,2.86,0,0,0-1.18.24,3,3,0,0,0-.94.67,3.84,3.84,0,0,0-.67,1,5.13,5.13,0,0,0-.36,1.28h6v-.12a3.71,3.71,0,0,0-.21-1.14,3.22,3.22,0,0,0-.56-1,2.84,2.84,0,0,0-.9-.7A2.71,2.71,0,0,0,386.7,147.31Z"/><path d="M394.61,146.59l.08,1.78A4,4,0,0,1,396,147a3.57,3.57,0,0,1,1.89-.54,3.06,3.06,0,0,1,2.4.94,3.94,3.94,0,0,1,.83,2.66v6.09h-1.06V150a3,3,0,0,0-.59-2,2.23,2.23,0,0,0-1.83-.69,2.86,2.86,0,0,0-1,.16,3.66,3.66,0,0,0-.85.46,3.38,3.38,0,0,0-.67.69,3.45,3.45,0,0,0-.48.86v6.6h-1.06v-9.51Z"/><path d="M408,144.15v2.44h3.53v.86H408v6a2.44,2.44,0,0,0,.17.92,1.62,1.62,0,0,0,.44.58,1.65,1.65,0,0,0,.65.32,3,3,0,0,0,.82.1,7,7,0,0,0,.9-.06l.78-.12.16.8a4,4,0,0,1-.92.22,8.05,8.05,0,0,1-1.11.08,4.35,4.35,0,0,1-1.17-.16,2.27,2.27,0,0,1-1.55-1.37,3.62,3.62,0,0,1-.24-1.32v-6h-2.65v-.86h2.65v-2.44Z"/><path d="M414.7,151.2a6.15,6.15,0,0,1,.3-1.83,4.71,4.71,0,0,1,.83-1.53,4,4,0,0,1,1.33-1,4,4,0,0,1,1.78-.39,4,4,0,0,1,1.79.39,4.13,4.13,0,0,1,1.33,1,4.71,4.71,0,0,1,.83,1.53,5.57,5.57,0,0,1,.3,1.83v.29a5.86,5.86,0,0,1-.29,1.84,4.71,4.71,0,0,1-.83,1.53,4.07,4.07,0,0,1-1.33,1,4.28,4.28,0,0,1-3.57,0,3.87,3.87,0,0,1-1.33-1,4.55,4.55,0,0,1-.84-1.53,6.17,6.17,0,0,1-.3-1.84Zm1.06.29A5.05,5.05,0,0,0,416,153a3.94,3.94,0,0,0,.61,1.25,3.06,3.06,0,0,0,1,.86,2.79,2.79,0,0,0,1.38.33,2.74,2.74,0,0,0,1.36-.33,3,3,0,0,0,1-.86,4.16,4.16,0,0,0,.61-1.25,5.05,5.05,0,0,0,.21-1.46v-.29a5.09,5.09,0,0,0-.21-1.45,3.9,3.9,0,0,0-.62-1.24,3.1,3.1,0,0,0-1-.87,3,3,0,0,0-2.74,0,3.07,3.07,0,0,0-1,.87,3.88,3.88,0,0,0-.61,1.24,5.09,5.09,0,0,0-.21,1.45Z"/><path d="M429.12,155.35a.92.92,0,0,1,.24-.63.86.86,0,0,1,.65-.26.9.9,0,0,1,.67.26.92.92,0,0,1,.24.63.82.82,0,0,1-.24.61.93.93,0,0,1-.67.24.88.88,0,0,1-.65-.24A.82.82,0,0,1,429.12,155.35Z"/></svg>