<svg id="Camada_1" data-name="Camada 1" xmlns="http://www.w3.org/2000/svg" xmlns:xlink="http://www.w3.org/1999/xlink" viewBox="0 0 466.26 39"><defs><style>.cls-1{fill:none;}.cls-2{clip-path:url(#clip-path);}.cls-3{fill:#eaa000;}.cls-4{fill:#6d472e;}.cls-5{fill:#eac2a7;}.cls-6{fill:#ff6464;}.cls-7{fill:#2929ff;}</style><clipPath id="clip-path"><path class="cls-1" d="M183.66-178.27c0-62.17-71.39-103.26-135.65-103.26s-68.07,43.7-68.07,105.87,23.11,110,87.37,110S183.66-116.1,183.66-178.27Z"/></clipPath></defs><title>5-algorit1</title><g class="cls-2"><path class="cls-3" d="M48-278.2a6.09,6.09,0,0,1,4.35,2,10.34,10.34,0,0,1,2.65-.35,9.6,9.6,0,0,1,7.15,3.26c7.87,2.95,4.75,7.69,4.56,7.95h.09s4.62,3.23,3,4.81c0,0,2.84,3.53.56,5.43a2.33,2.33,0,0,1-.82.41c6.47,10.08,10.32,27.86,7.78,42.52-.51,2.9-3.82,5-12.76,5h0a48.25,48.25,0,0,1-8.65-.76c.09.68.18,1.42.29,2.16h0c.44,3.2,1.1,6.83,1.81,7.36C62.6-195,69.4-193.58,73.22-193l5.53.51a13.3,13.3,0,0,1,2.88,4.22h0l32.3,30,25.5-21.55s1.69-6.66,11.13-6.66a24.28,24.28,0,0,1,3.88.33c12.87,2.09-1.17,3.61-1.17,3.61s1.46-.12,3.61-.12a37.07,37.07,0,0,1,11.76,1.63l1.94,2.38-4.46,4.45A157.74,157.74,0,0,1,150-172.82c-1.87,0-3.29-.14-3.81-.52a.39.39,0,0,0-.23-.06c-3.5,0-32.29,27.16-32.29,27.16L84-170.22c.44,5.88.75,12.17.69,18A187.06,187.06,0,0,1,83-129.79c1.29.91.36,2.86.36,2.86l2.42,19.26c0,.15,0,.29,0,.43,3,13.4,2.5,35.61,2.5,35.61A22.31,22.31,0,0,0,85.73-72l0,1.61h0c-.07,11.23,0,27.44.64,31.14,1,5.78,0,8.63,0,8.63s2.84,45,2.84,45.36,4,5.46,4,5.46,5.27,4.15,9.37,7.44h0A11.77,11.77,0,0,1,106,29.08a3.34,3.34,0,0,1,1,2.15c.28.19.73.49,1.25.87a13.41,13.41,0,0,0,3.56.66c.56.56,0,1.18-.74,1.67.41.43.66.82.59,1.06-.27,1-4.08,5-11,5-.39,0-.78,0-1.19,0-7.24-.48-17.28-8.19-18.1-10.34a6.39,6.39,0,0,1,.11-4.33,12,12,0,0,1,1.72-5.12c.94-1.71,1.61-6.54,1.61-6.54-10.43-36.61-4.46-41.76-5.6-44.42C78.51-32,72.07-55.94,67.46-73.17h0v-.06c-.27-1-.53-2-.78-2.94a11.87,11.87,0,0,1-2.38-1.41,75.33,75.33,0,0,1-12.52,5L38-38.13s-2.35,8.68-5.15,11.48a123.45,123.45,0,0,1-6.92,20C21.2,4,19.11,18.58,19.11,18.58s3.4,8.63,3.8,14c4,5.47,7.58,12.22,2.82,14.21a27.25,27.25,0,0,1-10.35,1.82c-5.74,0-10.88-1.34-12.08-2.54C1.37,44.16,6.85,29.56,6.85,29.56a4.59,4.59,0,0,1,1.31-3.15,23.43,23.43,0,0,0,4.17-4.56S11.62,20,13.61,17.4s4.93-19,4.93-21.13-2.65-18.21,6.2-24.53c0,0,1-20.53,3.6-35.39h0c.29-1.68.59-3.29.93-4.79-2.72.22-4.35.25-4.35.25s2.62-7.32,6-16.74c-2.86-.28-1-4.72-1-4.72a23.44,23.44,0,0,0,3.37-2l1.09-3.09c-.94-2.33,1.42-9.6,1.42-9.6l-8.69-6.55-25.26-19S22.15-177.78,23-178.6c.53-.53,4.45-2.83,7.15-4.39C33-185.81,39-188,39-188s5.78-6.54,7-7.78.67-4.64.67-4.64l-3.17-12.17a24,24,0,0,1-7.8-7.43,2.82,2.82,0,0,1-2.06.83,7.26,7.26,0,0,1-3.69-1.4s-8-8-5.51-11.82a2.38,2.38,0,0,1,2.09-1.15c1.65,0,3.62,1.36,5,2.53-2.85-2.48-4.37-2.82-5-2.82H26.4l0,0h-.09l0-.06c-.6-.29-3.29-1.77-3.52-4.27-4.54-1.42-3.66-3.95-3.66-3.95-4.36-3,0-7.74,0-7.74-1.95-1.94-.44-4.77-.44-4.77-2.28-3.23.56-7.21.56-7.21.32-3.48,5.54-5.53,5.54-5.53.41-1.74,2.56-2.56,2.56-2.56a3.79,3.79,0,0,1,3.5-2.16h.29c1.89-4.09,9-4.48,11.63-4.48.63,0,1,0,1,0A7.11,7.11,0,0,1,48-278.2M40.87-113.09c1.13-3.24,2.12-6.07,2.86-8.23A2.49,2.49,0,0,1,44.94-125q.11-.32.15-.51c1.14-4.17-9.57-24.64-9.57-24.64l-9.05-5.66L13.78-131.95l20.28,14.12,6.81,4.74M106.72,31.05h0M48-281.53h0a9.89,9.89,0,0,0-5.31,1.62h0c-3.85,0-10.31.64-13.55,4.63a7.07,7.07,0,0,0-4.22,2.77,7.87,7.87,0,0,0-2.76,2.63c-1.94,1-5.35,3.24-6.16,6.79-1.22,2-2.33,5.46-1,8.7a7.63,7.63,0,0,0,.12,4.35,9,9,0,0,0-1.27,5.41,7,7,0,0,0,1.92,4,5.88,5.88,0,0,0,.53,1.54A7.56,7.56,0,0,0,20-235.69a8.17,8.17,0,0,0,1.34,2.11c-1.33,2.71-.58,6.18,2.24,10.33a39.63,39.63,0,0,0,4.1,5l.16.16L28-218a10.32,10.32,0,0,0,5.7,2.07,7,7,0,0,0,.92-.06,30.05,30.05,0,0,0,6,5.41l2.8,10.76a7.23,7.23,0,0,1,0,1.86c-1.34,1.4-5,5.46-6.38,7.07-1.86.75-6.23,2.67-9,5.2-6.58,3.8-7.11,4.32-7.5,4.71-.64.65-1,1-11.57,25.69C3.92-143.33-1.17-131.34-1.22-131.22l-1,2.39,2.08,1.57L25.1-108.21,31.94-103a23,23,0,0,0-1,8.11l-.41,1.17c-1,.62-2,1.1-2,1.11l-1.15.54-.5,1.17c-.41,1-1.65,4.39-.11,7a1.67,1.67,0,0,0,.18.28C24-75.43,21.78-69.31,21.78-69.31l-1.63,4.55L25-64.85h.19c0,.22-.08.44-.11.66v0C22.83-51.44,21.78-35,21.49-29.93c-7.88,7-6.75,20.53-6.36,25.11,0,.42.08.94.08,1.09-.05,2.4-2.88,16.91-4.26,19.12a9,9,0,0,0-2.08,5.52,16.56,16.56,0,0,1-2.62,2.77c-1.41,1-2.28,2.64-2.65,5.06-.38,1-1.49,4.12-2.45,7.43C-.92,43.32-1,46.53.94,48.44,3.36,50.86,10.12,52,15.38,52A30.62,30.62,0,0,0,27,49.89a6.68,6.68,0,0,0,4-4.45c1-3.48-.59-8-4.92-14.06a67.2,67.2,0,0,0-3.6-13.16C23.06,15,25.12,3.37,29-5.28A127.88,127.88,0,0,0,35.9-25.07c2.79-3.48,4.78-10.18,5.28-12L54.27-69.9a78.81,78.81,0,0,0,9.61-3.76l.35,1.29v0C73.92-36,75.6-30.51,76-29.29c0,.26-.1.74-.17,1.14-.72,4.3-2.39,14.34,5.56,42.5a22.24,22.24,0,0,1-1.13,4.7,15.14,15.14,0,0,0-2.11,6.12,9.58,9.58,0,0,0,.09,6.14c1.08,2.84,6.36,6.39,8,7.41,2.72,1.75,8,4.74,13,5.06.47,0,1,0,1.41,0,8.1,0,13.47-4.78,14.2-7.46A3.69,3.69,0,0,0,115,35a4.12,4.12,0,0,0,.37-1.33,4,4,0,0,0-1.19-3.24l-.91-.92-1.3-.05a11,11,0,0,1-2-.3,6.26,6.26,0,0,0-1.81-2.61,12.47,12.47,0,0,0-4-1.92c-3.39-2.71-7.4-5.87-8.54-6.77-1.18-1.52-2.48-3.25-3.09-4.12-.15-2.51-.71-11.45-2.76-44a23.63,23.63,0,0,0-.08-9.59c-.22-1.17-.69-6.26-.6-28l2.47.78.11-4.44c0-.91.47-22.25-2.47-35.92h0v-.3l0-.29-2.33-18.48a5.87,5.87,0,0,0-.28-4.14A191.64,191.64,0,0,0,88-152.2c0-3.24,0-6.77-.22-10.66l23.76,19.21,2.26,1.83,2.12-2c11.81-11.13,26.06-23.69,30.05-26a16.11,16.11,0,0,0,4,.37,157.71,157.71,0,0,0,16.61-1.46l1.11-.15.79-.79,4.46-4.46,2.13-2.13-1.91-2.34-1.95-2.37-.58-.71-.85-.31a30.89,30.89,0,0,0-6.8-1.5,4.72,4.72,0,0,0-3.2-2.69,30.61,30.61,0,0,0-4.81-1.09,27.62,27.62,0,0,0-4.41-.37c-9.43,0-12.87,5.52-13.94,8L114-162.76,84.38-190.29a16.38,16.38,0,0,0-3.27-4.57l-.85-.86-1.2-.11-5.45-.5c-3.25-.48-9.06-1.67-13-4.37a25,25,0,0,1-.72-3.35c1.55.13,3.13.2,4.74.2,3.64,0,14.71,0,16.05-7.75,2.36-13.6-.49-30.91-6.8-42.44,1.29-2.14.87-4.78-.35-7a5.15,5.15,0,0,0,0-.68,7.89,7.89,0,0,0-2.8-4.76,7.32,7.32,0,0,0-.21-3.58c-.81-2.58-3-4.62-6.38-6.06A12.88,12.88,0,0,0,55-279.89a12.09,12.09,0,0,0-1.69.11A9.07,9.07,0,0,0,48-281.53ZM18.11-133l9.62-18.08L33-147.8c.81,1.57,2.67,5.27,4.49,9.27,3.34,7.37,4.15,10.5,4.33,11.7a5.61,5.61,0,0,0-1.47,2.24,5.66,5.66,0,0,0-.12,3.29c-.31.88-.65,1.87-1,3L36-120.56,18.11-133ZM92.52,14.72Z"/><path class="cls-4" d="M81.5,25.79a6.39,6.39,0,0,0-.11,4.33c.82,2.15,10.86,9.86,18.1,10.34,7.65.5,11.89-3.92,12.17-5s-4.93-4.44-4.93-4.44Z"/><path class="cls-4" d="M6.85,29.56S1.37,44.16,3.3,46.09s14,4.23,22.43.72S16.58,25,16.58,25Z"/><path class="cls-5" d="M56.28-83.94,38-38.13s-2.35,8.68-5.15,11.48a123.45,123.45,0,0,1-6.92,20C21.2,4,19.11,18.58,19.11,18.58s4.32,11,3.79,15.89c0,0,4.13,5.69,2.47,9s-8.16,1.33-8.16,1.33S6.36,46.18,4.74,43.47s2-9.95,2-9.95-.52-5.79,1.38-7.11a23.43,23.43,0,0,0,4.17-4.56S11.62,20,13.61,17.4s4.93-19,4.93-21.13-2.65-18.21,6.2-24.53c0,0,2.15-43.63,8.22-49.69s23.32-9.68,23.32-9.68Z"/><path class="cls-5" d="M62.8-90.72S78.1-32.94,79.23-30.29s-4.83,7.81,5.6,44.42c0,0-.67,4.83-1.61,6.54s-3.13,6.07-.38,7.58S94.5,37.36,98.29,38s10.91-2.65,10.91-2.65,3.79-1.43,2.61-2.61c0,0-3.46-.14-4.6-1.28s-14-11.29-14-11.29-4-5.12-4-5.46-2.84-45.36-2.84-45.36,1-2.85,0-8.63-.54-42.23-.54-42.23Z"/><path class="cls-4" d="M4,40.69s10.86-4.64,21.72-1.09A4.76,4.76,0,0,0,24.92,37c-.9-1.42-14.51-3.6-20.29,1.16C4.63,38.11,3.4,39.89,4,40.69Z"/><path class="cls-4" d="M95.84,37.08s.42-9.56,10.89-6l.28.23a3.42,3.42,0,0,0-1-2.2,11.77,11.77,0,0,0-3.43-1.45S93,25.27,93.09,35.45C93.09,35.45,94.59,37.56,95.84,37.08Z"/></g><path class="cls-6" d="M9.86,26.68A4.79,4.79,0,0,1,8,26.33a4.21,4.21,0,0,1-1.44-.95,4.44,4.44,0,0,1-.93-1.46,5.06,5.06,0,0,1-.34-1.84v-.37a5.56,5.56,0,0,1,.37-2.06,4.9,4.9,0,0,1,1-1.54,4.23,4.23,0,0,1,1.39-1,4.07,4.07,0,0,1,1.6-.34,4.17,4.17,0,0,1,1.79.36,3.59,3.59,0,0,1,1.28,1,4.12,4.12,0,0,1,.76,1.49,6.35,6.35,0,0,1,.25,1.84v.73H6.94a3.79,3.79,0,0,0,.25,1.22,3.18,3.18,0,0,0,.62,1,2.85,2.85,0,0,0,2.14.92A3.33,3.33,0,0,0,11.49,25a3.55,3.55,0,0,0,1.13-.93l1,.77a3.73,3.73,0,0,1-.59.69,4.15,4.15,0,0,1-.82.58,4.59,4.59,0,0,1-1.06.41A5.15,5.15,0,0,1,9.86,26.68Zm-.21-8.53a2.41,2.41,0,0,0-.93.18,2.34,2.34,0,0,0-.79.53,2.82,2.82,0,0,0-.6.85A4.34,4.34,0,0,0,7,20.88h5.12v-.13a3.9,3.9,0,0,0-.18-.94,2.47,2.47,0,0,0-.45-.83,2.16,2.16,0,0,0-.76-.6A2.38,2.38,0,0,0,9.65,18.15Z"/><path class="cls-6" d="M17.92,17,18,18.4a3.73,3.73,0,0,1,1.28-1.16A3.49,3.49,0,0,1,21,16.81a3.92,3.92,0,0,1,1.36.22,2.59,2.59,0,0,1,1,.65,3,3,0,0,1,.67,1.14,5.32,5.32,0,0,1,.23,1.64v6H22.66v-6a3.45,3.45,0,0,0-.14-1.08,1.71,1.71,0,0,0-.41-.71,1.64,1.64,0,0,0-.68-.39,3.19,3.19,0,0,0-.92-.13,2.61,2.61,0,0,0-1.44.41,3,3,0,0,0-1,1.08V26.5H16.46V17Z"/><path class="cls-6" d="M27,21.67a7.15,7.15,0,0,1,.26-2A4.64,4.64,0,0,1,28,18.18a3.43,3.43,0,0,1,2.84-1.37,3.63,3.63,0,0,1,1.49.29,3.15,3.15,0,0,1,1.12.83l.07-.94H35V30.16H33.35V25.64a3.21,3.21,0,0,1-1.11.77,3.64,3.64,0,0,1-1.45.27,3.52,3.52,0,0,1-1.62-.37,3.67,3.67,0,0,1-1.2-1,4.7,4.7,0,0,1-.75-1.54,6.82,6.82,0,0,1-.26-1.9Zm1.63.18a5.77,5.77,0,0,0,.15,1.33,3.48,3.48,0,0,0,.47,1.11,2.3,2.3,0,0,0,.81.77,2.24,2.24,0,0,0,1.16.29A2.35,2.35,0,0,0,32.49,25a2.81,2.81,0,0,0,.86-.92V19.39a3.14,3.14,0,0,0-.38-.5,2.56,2.56,0,0,0-.48-.39,2.41,2.41,0,0,0-.59-.26,2.63,2.63,0,0,0-.7-.09,2.25,2.25,0,0,0-2,1.07,3.33,3.33,0,0,0-.48,1.12,5.71,5.71,0,0,0-.15,1.33Z"/><path class="cls-6" d="M44.23,25.19a3.44,3.44,0,0,1-1.18,1.1,3.53,3.53,0,0,1-1.65.39,3.61,3.61,0,0,1-1.35-.24,2.51,2.51,0,0,1-1-.72,3.28,3.28,0,0,1-.66-1.26,6.06,6.06,0,0,1-.23-1.82V17h1.62v5.67a5.73,5.73,0,0,0,.12,1.28,2.31,2.31,0,0,0,.37.82,1.35,1.35,0,0,0,.61.42,2.53,2.53,0,0,0,.82.12,2.85,2.85,0,0,0,1.6-.4,2.43,2.43,0,0,0,.91-1.09V17h1.64V26.5H44.33Z"/><path class="cls-6" d="M55.11,26.5A2.07,2.07,0,0,1,55,26a3.68,3.68,0,0,1-.08-.58,5,5,0,0,1-.55.47,4.89,4.89,0,0,1-.67.39,4.46,4.46,0,0,1-.78.26,4.15,4.15,0,0,1-2.24-.12,3.19,3.19,0,0,1-1-.6,2.41,2.41,0,0,1-.66-.89,2.57,2.57,0,0,1-.23-1.11A2.86,2.86,0,0,1,49,22.49a2.75,2.75,0,0,1,.88-1,4.13,4.13,0,0,1,1.38-.58,7.54,7.54,0,0,1,1.79-.2h1.78V20a1.78,1.78,0,0,0-.16-.78,1.57,1.57,0,0,0-.45-.58,2,2,0,0,0-.7-.37,3,3,0,0,0-.94-.14,2.94,2.94,0,0,0-.87.13,2.13,2.13,0,0,0-.64.32,1.55,1.55,0,0,0-.41.48,1.22,1.22,0,0,0-.15.58H48.9a2.22,2.22,0,0,1,.27-1,2.66,2.66,0,0,1,.75-.9,3.72,3.72,0,0,1,1.18-.65,4.91,4.91,0,0,1,1.59-.25,5.5,5.5,0,0,1,1.5.2,3.39,3.39,0,0,1,1.2.6,2.9,2.9,0,0,1,.8,1A3.2,3.2,0,0,1,56.48,20v4.43a7.19,7.19,0,0,0,.08,1,4.16,4.16,0,0,0,.25.93v.14Zm-2.87-1.24a3.07,3.07,0,0,0,1.64-.45,2.67,2.67,0,0,0,.58-.46,1.94,1.94,0,0,0,.39-.54V21.89H53.34a4.82,4.82,0,0,0-2.22.42,1.41,1.41,0,0,0-.79,1.32,1.76,1.76,0,0,0,.12.66,1.4,1.4,0,0,0,.36.51,1.7,1.7,0,0,0,.59.34A2.66,2.66,0,0,0,52.24,25.26Z"/><path class="cls-6" d="M61.13,17l.11,1.41a3.79,3.79,0,0,1,1.27-1.16,3.56,3.56,0,0,1,1.69-.43,3.92,3.92,0,0,1,1.36.22,2.66,2.66,0,0,1,1,.65,2.91,2.91,0,0,1,.66,1.14,5,5,0,0,1,.24,1.64v6H65.87v-6a3.78,3.78,0,0,0-.14-1.08,1.59,1.59,0,0,0-1.09-1.1,3.24,3.24,0,0,0-.92-.13,2.56,2.56,0,0,0-1.44.41,3.12,3.12,0,0,0-1,1.08V26.5H59.67V17Z"/><path class="cls-6" d="M74.32,14.69V17h3.62v1.26H74.32v5.17a2.42,2.42,0,0,0,.14.91,1.32,1.32,0,0,0,.39.57,1.35,1.35,0,0,0,.56.31,2.54,2.54,0,0,0,.68.09l.55,0,.55-.08.5-.09.38-.09.23,1.16a2.49,2.49,0,0,1-.49.21,5.44,5.44,0,0,1-.64.16c-.22,0-.47.08-.72.1s-.51,0-.76,0a3.74,3.74,0,0,1-1.18-.18,2.36,2.36,0,0,1-1-.58,2.56,2.56,0,0,1-.63-1,4.12,4.12,0,0,1-.24-1.49V18.25H70.19V17h2.49v-2.3Z"/><path class="cls-6" d="M80.81,21.66a5.84,5.84,0,0,1,.3-1.91A4.72,4.72,0,0,1,82,18.21a4,4,0,0,1,1.36-1,4.17,4.17,0,0,1,1.8-.38,4.22,4.22,0,0,1,1.81.38,4.1,4.1,0,0,1,1.37,1,4.7,4.7,0,0,1,.85,1.54,5.84,5.84,0,0,1,.3,1.91v.19a5.88,5.88,0,0,1-.3,1.91,4.75,4.75,0,0,1-.85,1.53,4.16,4.16,0,0,1-1.36,1,4.61,4.61,0,0,1-3.62,0,4.06,4.06,0,0,1-1.36-1,4.78,4.78,0,0,1-.86-1.53,5.88,5.88,0,0,1-.3-1.91Zm1.63.19a4.87,4.87,0,0,0,.17,1.34,3.47,3.47,0,0,0,.5,1.12,2.61,2.61,0,0,0,.85.77,2.44,2.44,0,0,0,3.2-.77,3.29,3.29,0,0,0,.51-1.12,5.29,5.29,0,0,0,.17-1.34v-.19a4.8,4.8,0,0,0-.18-1.33,3.29,3.29,0,0,0-.51-1.12,2.37,2.37,0,0,0-2-1.06,2.34,2.34,0,0,0-1.18.29,2.57,2.57,0,0,0-.84.77,3.47,3.47,0,0,0-.5,1.12,4.8,4.8,0,0,0-.17,1.33Z"/><path class="cls-7" d="M104.24,16.08a4.41,4.41,0,0,1,.4-1.77,5.79,5.79,0,0,1,.47-.84,3.77,3.77,0,0,1,.66-.72l.88.63a5.32,5.32,0,0,0-.62,1.27,4.58,4.58,0,0,0-.2,1.41v1.31h-1.59Zm2.85,0a4.65,4.65,0,0,1,.1-.87,5.28,5.28,0,0,1,.3-.9,5,5,0,0,1,.48-.84,4.07,4.07,0,0,1,.65-.72l.89.63a5,5,0,0,0-.62,1.27,4.58,4.58,0,0,0-.21,1.41v1.31h-1.59Z"/><path class="cls-7" d="M117.88,26.68a4.84,4.84,0,0,1-1.85-.35,4.16,4.16,0,0,1-1.43-.95,4.44,4.44,0,0,1-.93-1.46,4.86,4.86,0,0,1-.34-1.84v-.37a5.56,5.56,0,0,1,.37-2.06,4.73,4.73,0,0,1,1-1.54,4.23,4.23,0,0,1,1.39-1,4.07,4.07,0,0,1,1.6-.34,4.17,4.17,0,0,1,1.79.36,3.68,3.68,0,0,1,1.28,1,4.12,4.12,0,0,1,.76,1.49,6.35,6.35,0,0,1,.25,1.84v.73H115a3.79,3.79,0,0,0,.25,1.22,3.16,3.16,0,0,0,.61,1,2.88,2.88,0,0,0,.94.67,2.77,2.77,0,0,0,1.2.25,3.37,3.37,0,0,0,1.55-.35,3.55,3.55,0,0,0,1.13-.93l1,.77a4.16,4.16,0,0,1-.59.69,4.23,4.23,0,0,1-.83.58,4.5,4.5,0,0,1-1,.41A5.15,5.15,0,0,1,117.88,26.68Zm-.21-8.53a2.5,2.5,0,0,0-.94.18,2.55,2.55,0,0,0-.79.53,3,3,0,0,0-.59.85,4.34,4.34,0,0,0-.34,1.17h5.12v-.13a3.9,3.9,0,0,0-.18-.94,2.69,2.69,0,0,0-.46-.83,2.21,2.21,0,0,0-.75-.6A2.38,2.38,0,0,0,117.67,18.15Z"/><path class="cls-7" d="M128.41,20.51,131,17h1.9l-3.54,4.7L133,26.5h-1.88l-2.63-3.62-2.63,3.62h-1.9l3.64-4.81L124,17h1.88Z"/><path class="cls-7" d="M143.3,21.85a7.22,7.22,0,0,1-.24,1.9,5.09,5.09,0,0,1-.72,1.54,3.51,3.51,0,0,1-1.18,1,3.39,3.39,0,0,1-1.59.37,3.92,3.92,0,0,1-1.54-.29,3,3,0,0,1-1.13-.8v4.57h-1.63V17h1.49l.07,1a3,3,0,0,1,1.15-.9,3.65,3.65,0,0,1,1.56-.32,3.51,3.51,0,0,1,1.62.36,3.48,3.48,0,0,1,1.18,1,4.82,4.82,0,0,1,.72,1.53,7.57,7.57,0,0,1,.24,2Zm-1.62-.18a5.21,5.21,0,0,0-.16-1.33,3.42,3.42,0,0,0-.47-1.1,2.44,2.44,0,0,0-.81-.76,2.54,2.54,0,0,0-2.5.08,2.63,2.63,0,0,0-.84.94v4.57a2.57,2.57,0,0,0,.84.92,2.33,2.33,0,0,0,1.34.36,2.24,2.24,0,0,0,1.16-.29,2.3,2.3,0,0,0,.81-.77,3.48,3.48,0,0,0,.47-1.11,5.27,5.27,0,0,0,.16-1.33Z"/><path class="cls-7" d="M152.31,16.81l.48,0,.47,0,.41.08L154,17l-.22,1.59a8,8,0,0,0-.9-.15,8.37,8.37,0,0,0-.89-.05,2.8,2.8,0,0,0-2.89,2v6.1h-1.64V17H149l.08,1.51a4.4,4.4,0,0,1,1.39-1.23A3.76,3.76,0,0,1,152.31,16.81Z"/><path class="cls-7" d="M161.08,26.68a4.82,4.82,0,0,1-1.84-.35,4.07,4.07,0,0,1-1.43-.95,4.64,4.64,0,0,1-.94-1.46,5.05,5.05,0,0,1-.33-1.84v-.37a5.37,5.37,0,0,1,.37-2.06,4.57,4.57,0,0,1,1-1.54,4.23,4.23,0,0,1,1.39-1,4.06,4.06,0,0,1,1.59-.34,4.19,4.19,0,0,1,1.8.36,3.68,3.68,0,0,1,1.28,1,4.29,4.29,0,0,1,.76,1.49,6.35,6.35,0,0,1,.25,1.84v.73h-6.79a3.54,3.54,0,0,0,.25,1.22,3.16,3.16,0,0,0,.61,1,2.9,2.9,0,0,0,2.14.92,3.37,3.37,0,0,0,1.55-.35,3.51,3.51,0,0,0,1.12-.93l1,.77a3.8,3.8,0,0,1-.6.69,3.88,3.88,0,0,1-.82.58,4.5,4.5,0,0,1-1,.41A5.24,5.24,0,0,1,161.08,26.68Zm-.21-8.53a2.41,2.41,0,0,0-.93.18,2.44,2.44,0,0,0-.79.53,3,3,0,0,0-.59.85,3.72,3.72,0,0,0-.34,1.17h5.11v-.13a3.13,3.13,0,0,0-.18-.94,2.47,2.47,0,0,0-.45-.83,2.21,2.21,0,0,0-.75-.6A2.39,2.39,0,0,0,160.87,18.15Z"/><path class="cls-7" d="M174,24a1.08,1.08,0,0,0-.11-.52,1.21,1.21,0,0,0-.39-.43,3,3,0,0,0-.72-.36,8,8,0,0,0-1.11-.29,10.28,10.28,0,0,1-1.49-.41,4.64,4.64,0,0,1-1.16-.56,2.49,2.49,0,0,1-.74-.78,2,2,0,0,1-.26-1,2.22,2.22,0,0,1,.27-1.08,2.71,2.71,0,0,1,.77-.89,3.79,3.79,0,0,1,1.17-.6,5,5,0,0,1,1.5-.22,5.19,5.19,0,0,1,1.58.23,3.65,3.65,0,0,1,1.19.64,2.72,2.72,0,0,1,.76.94,2.58,2.58,0,0,1,.27,1.17h-1.62a1.35,1.35,0,0,0-.16-.61,1.79,1.79,0,0,0-.44-.52,2.33,2.33,0,0,0-.68-.37,2.83,2.83,0,0,0-.9-.14,3.49,3.49,0,0,0-.91.11,2.07,2.07,0,0,0-.65.31,1.18,1.18,0,0,0-.39.45,1.13,1.13,0,0,0-.14.53,1.15,1.15,0,0,0,.11.5,1,1,0,0,0,.36.39,2.7,2.7,0,0,0,.7.32,9.33,9.33,0,0,0,1.1.27,13.93,13.93,0,0,1,1.57.43,4.26,4.26,0,0,1,1.17.58,2.47,2.47,0,0,1,.73.79,2,2,0,0,1,.25,1,2.31,2.31,0,0,1-.29,1.15,2.58,2.58,0,0,1-.79.89,3.72,3.72,0,0,1-1.22.57,5.55,5.55,0,0,1-1.56.21,5.36,5.36,0,0,1-1.72-.26,4.1,4.1,0,0,1-1.28-.69,2.8,2.8,0,0,1-.8-1,2.65,2.65,0,0,1-.28-1.17h1.63a1.62,1.62,0,0,0,.27.85,1.7,1.7,0,0,0,.58.55,2.38,2.38,0,0,0,.77.3,4,4,0,0,0,.83.09A3,3,0,0,0,173.4,25,1.14,1.14,0,0,0,174,24Z"/><path class="cls-7" d="M184.81,24a1.08,1.08,0,0,0-.12-.52,1.12,1.12,0,0,0-.39-.43,3,3,0,0,0-.72-.36,8,8,0,0,0-1.11-.29A10.65,10.65,0,0,1,181,22a4.4,4.4,0,0,1-1.15-.56,2.52,2.52,0,0,1-.75-.78,2,2,0,0,1-.26-1,2.22,2.22,0,0,1,.27-1.08,2.71,2.71,0,0,1,.77-.89A3.91,3.91,0,0,1,181,17a5,5,0,0,1,1.5-.22,5.19,5.19,0,0,1,1.58.23,3.81,3.81,0,0,1,1.2.64,3,3,0,0,1,.76.94,2.71,2.71,0,0,1,.26,1.17h-1.62a1.24,1.24,0,0,0-.16-.61,1.79,1.79,0,0,0-.44-.52,2.21,2.21,0,0,0-.68-.37,2.83,2.83,0,0,0-.9-.14,3.49,3.49,0,0,0-.91.11,2.07,2.07,0,0,0-.65.31,1.38,1.38,0,0,0-.39.45,1.12,1.12,0,0,0-.13.53,1.15,1.15,0,0,0,.1.5.91.91,0,0,0,.37.39,2.47,2.47,0,0,0,.69.32,9.33,9.33,0,0,0,1.1.27,14.76,14.76,0,0,1,1.58.43,4.56,4.56,0,0,1,1.17.58,2.55,2.55,0,0,1,.72.79,2,2,0,0,1,.25,1,2.3,2.3,0,0,1-.28,1.15,2.72,2.72,0,0,1-.8.89,3.72,3.72,0,0,1-1.22.57,5.5,5.5,0,0,1-1.56.21,5.36,5.36,0,0,1-1.72-.26,4.22,4.22,0,0,1-1.28-.69,2.92,2.92,0,0,1-.8-1,2.65,2.65,0,0,1-.28-1.17h1.63a1.62,1.62,0,0,0,.27.85A1.79,1.79,0,0,0,181,25a2.47,2.47,0,0,0,.77.3,4,4,0,0,0,.83.09A3,3,0,0,0,184.2,25,1.18,1.18,0,0,0,184.81,24Z"/><path class="cls-7" d="M195.54,26.5a1.65,1.65,0,0,1-.16-.46,5.4,5.4,0,0,1-.08-.58,4.24,4.24,0,0,1-.55.47,4.36,4.36,0,0,1-.67.39,4.46,4.46,0,0,1-.78.26,4,4,0,0,1-.87.1,4.19,4.19,0,0,1-1.37-.22,3.3,3.3,0,0,1-1-.6,2.65,2.65,0,0,1-.66-.89,2.72,2.72,0,0,1-.23-1.11,2.86,2.86,0,0,1,.31-1.37,2.75,2.75,0,0,1,.88-1,4.22,4.22,0,0,1,1.38-.58,7.69,7.69,0,0,1,1.8-.2h1.77V20a1.78,1.78,0,0,0-.16-.78,1.66,1.66,0,0,0-.44-.58,2,2,0,0,0-.71-.37,3,3,0,0,0-.94-.14,2.83,2.83,0,0,0-.86.13,2.19,2.19,0,0,0-.65.32,1.69,1.69,0,0,0-.41.48,1.34,1.34,0,0,0-.14.58h-1.64a2.35,2.35,0,0,1,.27-1,2.66,2.66,0,0,1,.75-.9,3.72,3.72,0,0,1,1.18-.65,4.91,4.91,0,0,1,1.59-.25,5.5,5.5,0,0,1,1.5.2,3.23,3.23,0,0,1,1.2.6,2.79,2.79,0,0,1,.8,1A3.2,3.2,0,0,1,196.9,20v4.43a6,6,0,0,0,.09,1,4.82,4.82,0,0,0,.24.93v.14Zm.73-13.38a2.13,2.13,0,0,1-.13.76,2.18,2.18,0,0,1-.37.63,1.63,1.63,0,0,1-.58.42,1.6,1.6,0,0,1-.73.16A2,2,0,0,1,194,15a2.05,2.05,0,0,1-.42-.15,3.1,3.1,0,0,1-.36-.21,3.79,3.79,0,0,0-.34-.2,1.94,1.94,0,0,0-.36-.15,1.44,1.44,0,0,0-.43-.06.81.81,0,0,0-.64.28,1.05,1.05,0,0,0-.26.69l-.91-.21a2.17,2.17,0,0,1,.13-.76,2,2,0,0,1,.38-.64,1.78,1.78,0,0,1,.57-.44A1.46,1.46,0,0,1,192,13a1.56,1.56,0,0,1,.66.13,5.07,5.07,0,0,1,.57.29l.57.28a1.44,1.44,0,0,0,.62.13.76.76,0,0,0,.36-.08.83.83,0,0,0,.28-.21,1.18,1.18,0,0,0,.2-.31,1.22,1.22,0,0,0,.07-.38Zm-3.61,12.14a3.19,3.19,0,0,0,.89-.12,2.84,2.84,0,0,0,.75-.33,2.74,2.74,0,0,0,.59-.46,2.13,2.13,0,0,0,.38-.54V21.89h-1.51a4.74,4.74,0,0,0-2.21.42,1.39,1.39,0,0,0-.79,1.32,2,2,0,0,0,.11.66,1.4,1.4,0,0,0,.36.51,1.74,1.74,0,0,0,.6.34A2.64,2.64,0,0,0,192.66,25.26Z"/><path class="cls-7" d="M199.63,21.66a5.84,5.84,0,0,1,.3-1.91,4.72,4.72,0,0,1,.86-1.54,4,4,0,0,1,1.36-1,4.17,4.17,0,0,1,1.8-.38,4.22,4.22,0,0,1,1.81.38,4,4,0,0,1,1.36,1,4.54,4.54,0,0,1,.86,1.54,5.84,5.84,0,0,1,.3,1.91v.19a5.88,5.88,0,0,1-.3,1.91,4.59,4.59,0,0,1-.86,1.53,4,4,0,0,1-1.35,1,4.61,4.61,0,0,1-3.62,0,4,4,0,0,1-1.36-1,4.78,4.78,0,0,1-.86-1.53,5.88,5.88,0,0,1-.3-1.91Zm1.63.19a4.87,4.87,0,0,0,.17,1.34,3.27,3.27,0,0,0,.5,1.12,2.61,2.61,0,0,0,.85.77,2.63,2.63,0,0,0,2.36,0,2.58,2.58,0,0,0,.84-.77,3.29,3.29,0,0,0,.51-1.12,5.29,5.29,0,0,0,.16-1.34v-.19a4.8,4.8,0,0,0-.17-1.33,3.29,3.29,0,0,0-.51-1.12,2.37,2.37,0,0,0-2-1.06,2.34,2.34,0,0,0-1.18.29,2.57,2.57,0,0,0-.84.77,3.27,3.27,0,0,0-.5,1.12,4.8,4.8,0,0,0-.17,1.33Z"/><path class="cls-7" d="M214.42,14.1a4.41,4.41,0,0,1-.4,1.77,5.41,5.41,0,0,1-.47.85,3.77,3.77,0,0,1-.66.72l-.88-.63a5.58,5.58,0,0,0,.62-1.28,4.83,4.83,0,0,0,.2-1.4V12.81h1.59Zm2.92,0a3.94,3.94,0,0,1-.1.87,5.28,5.28,0,0,1-.3.9,4.75,4.75,0,0,1-.48.85,3.42,3.42,0,0,1-.65.72l-.88-.63a5.58,5.58,0,0,0,.62-1.28,4.83,4.83,0,0,0,.2-1.4V12.81h1.59Z"/><path class="cls-6" d="M234.92,26.5V18.25H232.3V17h2.62v-.67a4.36,4.36,0,0,1,.27-1.6,3,3,0,0,1,1.93-1.86,4.55,4.55,0,0,1,1.53-.24,6.09,6.09,0,0,1,1.13.1c.36.06.74.15,1.13.24l-.2,1.35a8.36,8.36,0,0,0-.84-.22,5.53,5.53,0,0,0-1-.09,2.39,2.39,0,0,0-1.72.58,2.37,2.37,0,0,0-.57,1.74V17h3.66v1.26h-3.66V26.5Z"/><path class="cls-6" d="M249.55,26.5a2.07,2.07,0,0,1-.15-.46,3.68,3.68,0,0,1-.08-.58,5,5,0,0,1-.55.47,4.89,4.89,0,0,1-.67.39,4.46,4.46,0,0,1-.78.26,4.15,4.15,0,0,1-2.24-.12,3.19,3.19,0,0,1-1-.6,2.41,2.41,0,0,1-.66-.89,2.57,2.57,0,0,1-.23-1.11,2.86,2.86,0,0,1,.31-1.37,2.75,2.75,0,0,1,.88-1,4.13,4.13,0,0,1,1.38-.58,7.56,7.56,0,0,1,1.8-.2h1.77V20a1.78,1.78,0,0,0-.16-.78,1.57,1.57,0,0,0-.45-.58,2,2,0,0,0-.7-.37,3,3,0,0,0-.94-.14,2.94,2.94,0,0,0-.87.13,2.13,2.13,0,0,0-.64.32,1.55,1.55,0,0,0-.41.48,1.22,1.22,0,0,0-.15.58h-1.63a2.22,2.22,0,0,1,.27-1,2.66,2.66,0,0,1,.75-.9,3.72,3.72,0,0,1,1.18-.65,4.91,4.91,0,0,1,1.59-.25,5.5,5.5,0,0,1,1.5.2,3.39,3.39,0,0,1,1.2.6,2.9,2.9,0,0,1,.8,1,3.2,3.2,0,0,1,.29,1.39v4.43a7.19,7.19,0,0,0,.08,1,4.16,4.16,0,0,0,.25.93v.14Zm-2.87-1.24a3.07,3.07,0,0,0,1.64-.45,2.67,2.67,0,0,0,.58-.46,1.94,1.94,0,0,0,.39-.54V21.89h-1.51a4.82,4.82,0,0,0-2.22.42,1.41,1.41,0,0,0-.79,1.32,1.76,1.76,0,0,0,.12.66,1.4,1.4,0,0,0,.36.51,1.66,1.66,0,0,0,.6.34A2.59,2.59,0,0,0,246.68,25.26Z"/><path class="cls-6" d="M258.16,25.36a2.82,2.82,0,0,0,.86-.14,3.07,3.07,0,0,0,.74-.39,2.23,2.23,0,0,0,.52-.59,1.58,1.58,0,0,0,.21-.74H262a2.61,2.61,0,0,1-.33,1.21,3.45,3.45,0,0,1-.86,1,4.63,4.63,0,0,1-1.23.7,4.18,4.18,0,0,1-1.45.26,4.31,4.31,0,0,1-1.89-.39,4,4,0,0,1-1.35-1,4.49,4.49,0,0,1-.81-1.51,6.06,6.06,0,0,1-.28-1.81v-.37a6,6,0,0,1,.28-1.8,4.44,4.44,0,0,1,.81-1.52,4,4,0,0,1,1.35-1,4.69,4.69,0,0,1,3.44-.12,3.81,3.81,0,0,1,1.22.73,3.42,3.42,0,0,1,.81,1.1,3.24,3.24,0,0,1,.29,1.35h-1.54a2,2,0,0,0-.19-.81,2.19,2.19,0,0,0-.49-.68,2.25,2.25,0,0,0-.73-.45,2.55,2.55,0,0,0-.92-.17,2.46,2.46,0,0,0-1.27.3,2.62,2.62,0,0,0-.83.79,3.6,3.6,0,0,0-.46,1.1,5.56,5.56,0,0,0-.13,1.22v.37a5.58,5.58,0,0,0,.13,1.23,3.74,3.74,0,0,0,.45,1.1,2.38,2.38,0,0,0,2.11,1.1Zm.61,1.14-.1.46a2.38,2.38,0,0,1,.5.15,1.52,1.52,0,0,1,.43.28,1.31,1.31,0,0,1,.3.44,1.8,1.8,0,0,1,.11.65,1.56,1.56,0,0,1-.69,1.34,3.35,3.35,0,0,1-2,.5l-.06-.94a2.48,2.48,0,0,0,.56-.05,1.46,1.46,0,0,0,.46-.15.94.94,0,0,0,.32-.27.65.65,0,0,0,.12-.4.72.72,0,0,0-.09-.37.64.64,0,0,0-.27-.24,1.63,1.63,0,0,0-.44-.14,4.72,4.72,0,0,0-.62-.08l.27-1.18Z"/><path class="cls-6" d="M271.16,26.5A1.65,1.65,0,0,1,271,26c0-.19-.06-.38-.08-.58a4.24,4.24,0,0,1-.55.47,3.93,3.93,0,0,1-.67.39,4.64,4.64,0,0,1-.77.26,4.19,4.19,0,0,1-2.25-.12,3.3,3.3,0,0,1-1-.6A2.65,2.65,0,0,1,265,25a2.72,2.72,0,0,1-.23-1.11,2.86,2.86,0,0,1,.31-1.37,2.69,2.69,0,0,1,.89-1,4.17,4.17,0,0,1,1.37-.58,7.69,7.69,0,0,1,1.8-.2h1.77V20a1.94,1.94,0,0,0-.15-.78,1.82,1.82,0,0,0-.45-.58,2,2,0,0,0-.71-.37,3,3,0,0,0-.94-.14,2.83,2.83,0,0,0-.86.13,2.19,2.19,0,0,0-.65.32,1.69,1.69,0,0,0-.41.48,1.34,1.34,0,0,0-.14.58h-1.64a2.35,2.35,0,0,1,.27-1,2.66,2.66,0,0,1,.75-.9,3.72,3.72,0,0,1,1.18-.65,4.91,4.91,0,0,1,1.59-.25,5.5,5.5,0,0,1,1.5.2,3.23,3.23,0,0,1,1.2.6,2.79,2.79,0,0,1,.8,1,3.2,3.2,0,0,1,.29,1.39v4.43a6,6,0,0,0,.09,1,4.82,4.82,0,0,0,.24.93v.14Zm-2.88-1.24a3.14,3.14,0,0,0,.89-.12,2.84,2.84,0,0,0,.75-.33,2.74,2.74,0,0,0,.59-.46,2.13,2.13,0,0,0,.38-.54V21.89h-1.51a4.74,4.74,0,0,0-2.21.42,1.39,1.39,0,0,0-.79,1.32,2,2,0,0,0,.11.66,1.4,1.4,0,0,0,.36.51,1.74,1.74,0,0,0,.6.34A2.64,2.64,0,0,0,268.28,25.26Z"/><path d="M288.19,15.7a4.3,4.3,0,0,1,.08-.78,4.15,4.15,0,0,1,.23-.76,3.6,3.6,0,0,1,.39-.72,3.24,3.24,0,0,1,.52-.64l.61.45a4.33,4.33,0,0,0-.59,1.15,3.72,3.72,0,0,0-.21,1.27v1.12h-1Zm2.73,0a4.26,4.26,0,0,1,.07-.78,4.19,4.19,0,0,1,.24-.76,4.14,4.14,0,0,1,.38-.72,3.28,3.28,0,0,1,.53-.64l.6.45a4.33,4.33,0,0,0-.59,1.15,4.28,4.28,0,0,0-.21,1.27v1.12h-1Z"/><path d="M297.73,13h4.43V25.57h3.21v.93h-7.64v-.93h3.37V13.94h-3.37Z"/><path d="M308.53,17h4.41v8.58h3.24v.93h-7.65v-.93h3.36V17.93h-3.36Zm3.05-2.6a.87.87,0,0,1,.18-.56.74.74,0,0,1,.62-.24.74.74,0,0,1,.61.24.89.89,0,0,1,0,1.1.76.76,0,0,1-.61.23.77.77,0,0,1-.62-.23A.88.88,0,0,1,311.58,14.39Z"/><path d="M325.72,24.08a1.31,1.31,0,0,0-.22-.76,2,2,0,0,0-.6-.56,4.18,4.18,0,0,0-.88-.39A8.36,8.36,0,0,0,323,22.1c-.46-.1-.9-.21-1.33-.34a4.94,4.94,0,0,1-1.14-.51,2.51,2.51,0,0,1-.8-.75,1.89,1.89,0,0,1-.3-1.09,2,2,0,0,1,.31-1.1,2.87,2.87,0,0,1,.81-.82,3.69,3.69,0,0,1,1.14-.5,4.89,4.89,0,0,1,1.32-.18,5.59,5.59,0,0,1,1.45.19,3.63,3.63,0,0,1,1.17.56,2.75,2.75,0,0,1,.81.89,2.49,2.49,0,0,1,.32,1.2h-1a1.68,1.68,0,0,0-.25-.82,1.94,1.94,0,0,0-.6-.61,3.35,3.35,0,0,0-.86-.38,3.64,3.64,0,0,0-1-.13,4.73,4.73,0,0,0-.93.1,2.9,2.9,0,0,0-.81.31,1.9,1.9,0,0,0-.57.52,1.28,1.28,0,0,0-.21.73,1.21,1.21,0,0,0,.2.75,1.63,1.63,0,0,0,.59.51,3.51,3.51,0,0,0,.87.35c.33.09.68.17,1,.25a13.9,13.9,0,0,1,1.38.36,4.9,4.9,0,0,1,1.15.54,2.49,2.49,0,0,1,.8.78,2.12,2.12,0,0,1,.29,1.12,2.08,2.08,0,0,1-.33,1.17,2.63,2.63,0,0,1-.84.82,3.83,3.83,0,0,1-1.19.49,5.81,5.81,0,0,1-1.39.17,5.6,5.6,0,0,1-1.5-.2,4,4,0,0,1-1.25-.56,3,3,0,0,1-.87-.89,2.4,2.4,0,0,1-.35-1.19h1.05a1.86,1.86,0,0,0,.34.94,2.17,2.17,0,0,0,.71.6,3.27,3.27,0,0,0,.91.32,5.28,5.28,0,0,0,1,.09,5.21,5.21,0,0,0,1-.1,3.32,3.32,0,0,0,.87-.31,1.88,1.88,0,0,0,.62-.53A1.31,1.31,0,0,0,325.72,24.08Z"/><path d="M333.39,14.56V17h3.53v.86h-3.53v6a2.65,2.65,0,0,0,.17.92,1.54,1.54,0,0,0,.44.58,1.82,1.82,0,0,0,.65.33,3.49,3.49,0,0,0,.82.09,7,7,0,0,0,.9-.06l.78-.12.16.8a4,4,0,0,1-.92.22,8.05,8.05,0,0,1-1.11.08,4.35,4.35,0,0,1-1.17-.16,2.45,2.45,0,0,1-.93-.49,2.37,2.37,0,0,1-.62-.88,3.62,3.62,0,0,1-.24-1.32v-6h-2.64V17h2.64V14.56Z"/><path d="M347.23,26.5a3,3,0,0,1-.15-.65,5.49,5.49,0,0,1-.07-.72,3.72,3.72,0,0,1-.64.61,4.46,4.46,0,0,1-.78.49,4.56,4.56,0,0,1-.92.33,4.34,4.34,0,0,1-1,.12,3.84,3.84,0,0,1-1.24-.2,3.09,3.09,0,0,1-1-.54,2.46,2.46,0,0,1-.91-2,2.54,2.54,0,0,1,.36-1.39,2.79,2.79,0,0,1,1-.93,4.66,4.66,0,0,1,1.43-.52,8.35,8.35,0,0,1,1.69-.17H347V19.89a2.28,2.28,0,0,0-.21-.94,2.08,2.08,0,0,0-.55-.69,2.59,2.59,0,0,0-.83-.42,3.79,3.79,0,0,0-1-.14,3.85,3.85,0,0,0-1,.13,2.94,2.94,0,0,0-.82.38,2.16,2.16,0,0,0-.57.6,1.6,1.6,0,0,0-.24.81h-1.06a2.55,2.55,0,0,1,.32-1.12,3,3,0,0,1,.8-.88A3.77,3.77,0,0,1,343,17a4.34,4.34,0,0,1,1.41-.22,5,5,0,0,1,1.42.2,3.33,3.33,0,0,1,1.16.58,2.89,2.89,0,0,1,.77,1,3.06,3.06,0,0,1,.29,1.36v4.6a5.2,5.2,0,0,0,.09,1,8.28,8.28,0,0,0,.2.92v.11Zm-3.47-.76a3.33,3.33,0,0,0,1.05-.13,3.51,3.51,0,0,0,.93-.39,3.35,3.35,0,0,0,.75-.6,2.54,2.54,0,0,0,.51-.76V21.78h-1.92a8.14,8.14,0,0,0-1.33.11,4.12,4.12,0,0,0-1.14.34,2,2,0,0,0-.78.65,1.66,1.66,0,0,0-.3,1,1.62,1.62,0,0,0,.18.77,1.68,1.68,0,0,0,.47.59,2.28,2.28,0,0,0,.71.37A3,3,0,0,0,343.76,25.74Z"/><path d="M362,21.66a6.91,6.91,0,0,1,.24-1.83,5,5,0,0,1,.71-1.54,3.59,3.59,0,0,1,1.18-1.08,3.37,3.37,0,0,1,1.66-.4,3.29,3.29,0,0,1,1.62.39,3.45,3.45,0,0,1,1.2,1.08V13h1.05V26.5h-1l0-1.24a3.27,3.27,0,0,1-1.23,1,3.61,3.61,0,0,1-1.62.37,3.26,3.26,0,0,1-1.65-.41,3.82,3.82,0,0,1-1.18-1.08,5.12,5.12,0,0,1-.71-1.55,6.74,6.74,0,0,1-.24-1.8Zm1.07.18a6.78,6.78,0,0,0,.15,1.42,3.91,3.91,0,0,0,.5,1.26,2.76,2.76,0,0,0,.9.9,2.48,2.48,0,0,0,1.35.34,3.35,3.35,0,0,0,.85-.11,3,3,0,0,0,.73-.33,3.05,3.05,0,0,0,.61-.52,2.87,2.87,0,0,0,.45-.68V19.51a3.27,3.27,0,0,0-.43-.72,3.13,3.13,0,0,0-.59-.56,2.85,2.85,0,0,0-.74-.37,2.71,2.71,0,0,0-.86-.13,2.47,2.47,0,0,0-1.37.35,2.76,2.76,0,0,0-.9.9,3.91,3.91,0,0,0-.5,1.26,6.78,6.78,0,0,0-.15,1.42Z"/><path d="M377.15,26.68a4.47,4.47,0,0,1-1.81-.37,4.29,4.29,0,0,1-1.4-1,4.36,4.36,0,0,1-.9-1.48,4.88,4.88,0,0,1-.33-1.8v-.38a5.17,5.17,0,0,1,.34-1.9,4.69,4.69,0,0,1,.9-1.53,4.19,4.19,0,0,1,1.34-1,3.78,3.78,0,0,1,1.66-.38,3.91,3.91,0,0,1,1.68.35,3.67,3.67,0,0,1,1.23.93,4.14,4.14,0,0,1,.75,1.39,5.75,5.75,0,0,1,.27,1.69v.65h-7.12V22a4.31,4.31,0,0,0,.26,1.43,3.76,3.76,0,0,0,.69,1.2,3.54,3.54,0,0,0,1.08.83,3.24,3.24,0,0,0,1.41.31,3.62,3.62,0,0,0,1.59-.33,3.31,3.31,0,0,0,1.21-1l.67.5a4.38,4.38,0,0,1-.62.68,3.78,3.78,0,0,1-.81.53,4.28,4.28,0,0,1-1,.34A5,5,0,0,1,377.15,26.68Zm-.2-9a2.86,2.86,0,0,0-1.18.24,3,3,0,0,0-.94.68,3.4,3.4,0,0,0-.66,1,4.41,4.41,0,0,0-.36,1.28h6V20.8a4,4,0,0,0-.22-1.14,3.22,3.22,0,0,0-.56-1,2.91,2.91,0,0,0-.89-.7A2.79,2.79,0,0,0,377,17.71Z"/><path d="M401.24,26.5a3,3,0,0,1-.15-.65,5.49,5.49,0,0,1-.07-.72,4.12,4.12,0,0,1-.64.61,4.46,4.46,0,0,1-.78.49,4.56,4.56,0,0,1-.92.33,4.34,4.34,0,0,1-1,.12,3.79,3.79,0,0,1-1.24-.2,3.25,3.25,0,0,1-1-.54,2.6,2.6,0,0,1-.66-.85,2.39,2.39,0,0,1-.25-1.11,2.54,2.54,0,0,1,.36-1.39,2.91,2.91,0,0,1,1-.93,4.69,4.69,0,0,1,1.42-.52A8.52,8.52,0,0,1,399,21H401V19.89a2.28,2.28,0,0,0-.21-.94,2.08,2.08,0,0,0-.55-.69,2.59,2.59,0,0,0-.83-.42,3.81,3.81,0,0,0-2,0,2.94,2.94,0,0,0-.82.38,2,2,0,0,0-.57.6,1.6,1.6,0,0,0-.24.81h-1.06a2.55,2.55,0,0,1,.32-1.12,3,3,0,0,1,.8-.88A3.82,3.82,0,0,1,397,17a4.44,4.44,0,0,1,1.42-.22,5,5,0,0,1,1.42.2,3.28,3.28,0,0,1,1.15.58,2.8,2.8,0,0,1,.78,1,3.06,3.06,0,0,1,.29,1.36v4.6a6.22,6.22,0,0,0,.08,1c.06.32.13.63.21.92v.11Zm-3.48-.76a3.35,3.35,0,0,0,1.06-.13,3.51,3.51,0,0,0,.93-.39,3.35,3.35,0,0,0,.75-.6,3,3,0,0,0,.51-.76V21.78h-1.92a8.14,8.14,0,0,0-1.33.11,4.12,4.12,0,0,0-1.14.34,2.11,2.11,0,0,0-.79.65,1.72,1.72,0,0,0-.29,1,1.62,1.62,0,0,0,.18.77,1.68,1.68,0,0,0,.47.59,2.23,2.23,0,0,0,.7.37A3,3,0,0,0,397.76,25.74Z"/><path d="M409.36,25.79a3,3,0,0,0,1-.16,2.64,2.64,0,0,0,.85-.44,2.24,2.24,0,0,0,.6-.7,2,2,0,0,0,.27-.93h1a2.78,2.78,0,0,1-.35,1.25,3.43,3.43,0,0,1-.83,1,4,4,0,0,1-1.16.64,4.06,4.06,0,0,1-1.39.24,4,4,0,0,1-1.82-.4,3.69,3.69,0,0,1-1.29-1.05,4.64,4.64,0,0,1-.77-1.52,5.9,5.9,0,0,1-.26-1.78v-.37a5.9,5.9,0,0,1,.26-1.78,4.64,4.64,0,0,1,.77-1.52,3.8,3.8,0,0,1,1.29-1.05,4,4,0,0,1,1.81-.4,4.3,4.3,0,0,1,1.46.25,3.63,3.63,0,0,1,1.17.71,3.5,3.5,0,0,1,.79,1.07,3.57,3.57,0,0,1,.32,1.36h-1a2.67,2.67,0,0,0-.24-1,2.74,2.74,0,0,0-.58-.8,2.6,2.6,0,0,0-.85-.51,3.12,3.12,0,0,0-2.47.14,3,3,0,0,0-1,.88,4.2,4.2,0,0,0-.54,1.24,6,6,0,0,0-.17,1.4v.37a6,6,0,0,0,.17,1.41,4,4,0,0,0,.54,1.24,2.87,2.87,0,0,0,1,.87A2.74,2.74,0,0,0,409.36,25.79Zm.41.75-.11.56a2.34,2.34,0,0,1,.55.15,1.58,1.58,0,0,1,.47.28A1.32,1.32,0,0,1,411,28a1.48,1.48,0,0,1,.11.63,1.38,1.38,0,0,1-.21.78,1.7,1.7,0,0,1-.56.54,2.66,2.66,0,0,1-.83.32,5.15,5.15,0,0,1-1,.12l-.06-.69a3.34,3.34,0,0,0,.61-.05,2.38,2.38,0,0,0,.57-.17,1.23,1.23,0,0,0,.42-.32.75.75,0,0,0,.17-.51.81.81,0,0,0-.12-.46.79.79,0,0,0-.34-.28,2.84,2.84,0,0,0-.49-.15l-.58-.08.24-1.11Z"/><path d="M415.76,21.6a5.84,5.84,0,0,1,.29-1.83,4.73,4.73,0,0,1,.84-1.53,4.15,4.15,0,0,1,4.89-1,4.13,4.13,0,0,1,1.33,1,4.93,4.93,0,0,1,.84,1.53,6.15,6.15,0,0,1,.3,1.83v.29a6.17,6.17,0,0,1-.3,1.84,4.71,4.71,0,0,1-.83,1.53,4,4,0,0,1-1.33,1,3.92,3.92,0,0,1-1.78.39,4,4,0,0,1-3.12-1.42,4.93,4.93,0,0,1-.84-1.53,5.86,5.86,0,0,1-.29-1.84Zm1.05.29a5.05,5.05,0,0,0,.21,1.46,4,4,0,0,0,.62,1.25,3,3,0,0,0,1,.86,3,3,0,0,0,2.75,0,3,3,0,0,0,1-.86,3.94,3.94,0,0,0,.61-1.25,5.05,5.05,0,0,0,.21-1.46V21.6a5.09,5.09,0,0,0-.21-1.45,4,4,0,0,0-.62-1.24,3,3,0,0,0-1-.87,2.78,2.78,0,0,0-1.37-.33,2.74,2.74,0,0,0-1.36.33,3.1,3.1,0,0,0-1,.87,4,4,0,0,0-.61,1.24,5.09,5.09,0,0,0-.21,1.45Zm6.06-8.59a2.16,2.16,0,0,1-.13.68,1.77,1.77,0,0,1-.34.58,1.65,1.65,0,0,1-.51.39,1.62,1.62,0,0,1-.68.14,1.51,1.51,0,0,1-.7-.15,4.34,4.34,0,0,1-.56-.33c-.18-.12-.36-.24-.54-.34a1.27,1.27,0,0,0-.63-.14.87.87,0,0,0-.7.3,1.3,1.3,0,0,0-.27.74l-.69-.11a2.21,2.21,0,0,1,.12-.68,1.63,1.63,0,0,1,.34-.57,1.35,1.35,0,0,1,.52-.39,1.51,1.51,0,0,1,.68-.15,1.32,1.32,0,0,1,.66.16,5.3,5.3,0,0,1,.57.33q.28.18.57.33a1.33,1.33,0,0,0,.63.15.87.87,0,0,0,.4-.09.86.86,0,0,0,.3-.23,1.25,1.25,0,0,0,.19-.34,1.86,1.86,0,0,0,.08-.41Z"/><path d="M431.16,26.68a4.47,4.47,0,0,1-1.81-.37,4.29,4.29,0,0,1-1.4-1,4.54,4.54,0,0,1-.91-1.48,5.09,5.09,0,0,1-.32-1.8v-.38a5.38,5.38,0,0,1,.33-1.9,5.07,5.07,0,0,1,.9-1.53,4.34,4.34,0,0,1,1.35-1,3.74,3.74,0,0,1,1.66-.38,3.91,3.91,0,0,1,1.68.35,3.54,3.54,0,0,1,1.22.93,4,4,0,0,1,.76,1.39,5.75,5.75,0,0,1,.27,1.69v.65h-7.12V22a4.57,4.57,0,0,0,.25,1.43,4,4,0,0,0,.7,1.2,3.54,3.54,0,0,0,1.08.83,3.24,3.24,0,0,0,1.41.31,3.62,3.62,0,0,0,1.59-.33,3.31,3.31,0,0,0,1.21-1l.67.5a4.46,4.46,0,0,1-.63.68,3.71,3.71,0,0,1-.8.53,4.28,4.28,0,0,1-1,.34A5,5,0,0,1,431.16,26.68Zm-.2-9a2.86,2.86,0,0,0-1.18.24,3,3,0,0,0-.94.68,3.63,3.63,0,0,0-.67,1,5.13,5.13,0,0,0-.36,1.28h6V20.8a3.71,3.71,0,0,0-.21-1.14,3.22,3.22,0,0,0-.56-1,2.84,2.84,0,0,0-.9-.7A2.71,2.71,0,0,0,431,17.71Z"/><path d="M444.54,24.08a1.31,1.31,0,0,0-.22-.76,2,2,0,0,0-.6-.56,4,4,0,0,0-.89-.39,7.81,7.81,0,0,0-1.06-.27c-.46-.1-.9-.21-1.33-.34a4.94,4.94,0,0,1-1.14-.51,2.51,2.51,0,0,1-.8-.75,1.89,1.89,0,0,1-.3-1.09,2,2,0,0,1,.31-1.1,2.75,2.75,0,0,1,.81-.82,3.69,3.69,0,0,1,1.14-.5,4.89,4.89,0,0,1,1.32-.18,5.45,5.45,0,0,1,1.44.19,3.58,3.58,0,0,1,1.18.56,2.75,2.75,0,0,1,.81.89,2.49,2.49,0,0,1,.32,1.2h-1a1.68,1.68,0,0,0-.25-.82,1.94,1.94,0,0,0-.6-.61,3.35,3.35,0,0,0-.86-.38,3.64,3.64,0,0,0-1-.13,4.73,4.73,0,0,0-.93.1,2.9,2.9,0,0,0-.81.31,1.9,1.9,0,0,0-.57.52,1.28,1.28,0,0,0-.21.73,1.21,1.21,0,0,0,.2.75,1.63,1.63,0,0,0,.59.51,3.59,3.59,0,0,0,.86.35c.33.09.69.17,1.06.25a13.9,13.9,0,0,1,1.38.36,5.1,5.1,0,0,1,1.15.54,2.49,2.49,0,0,1,.8.78,2.12,2.12,0,0,1,.29,1.12,2.08,2.08,0,0,1-.33,1.17,2.63,2.63,0,0,1-.84.82,3.79,3.79,0,0,1-1.2.49,5.67,5.67,0,0,1-1.38.17,5.73,5.73,0,0,1-1.51-.2,4,4,0,0,1-1.24-.56,2.84,2.84,0,0,1-.87-.89,2.4,2.4,0,0,1-.35-1.19h1.05a1.86,1.86,0,0,0,.34.94,2.17,2.17,0,0,0,.71.6,3.32,3.32,0,0,0,.9.32,5.39,5.39,0,0,0,1,.09,5.21,5.21,0,0,0,1-.1,3.12,3.12,0,0,0,.86-.31,1.82,1.82,0,0,0,.63-.53A1.31,1.31,0,0,0,444.54,24.08Z"/><path d="M452.06,14a4.13,4.13,0,0,1-.08.78,4.8,4.8,0,0,1-.24.76,4.62,4.62,0,0,1-.38.73,3.54,3.54,0,0,1-.53.63l-.6-.45A4.17,4.17,0,0,0,451,14V12.91h1Zm2.73,0a3.46,3.46,0,0,1-.09.78,3.93,3.93,0,0,1-.23.76,4.69,4.69,0,0,1-.39.73,3.49,3.49,0,0,1-.52.63l-.61-.45a4.33,4.33,0,0,0,.59-1.15,4,4,0,0,0,.21-1.28V12.91h1Z"/></svg>