<svg id="Camada_1" data-name="Camada 1" xmlns="http://www.w3.org/2000/svg" xmlns:xlink="http://www.w3.org/1999/xlink" viewBox="0 0 710.8 222.39"><defs><style>.cls-1{fill:none;}.cls-2{clip-path:url(#clip-path);}.cls-3{fill:#6d472e;}.cls-4{fill:#eac2a7;}.cls-5{fill:#eaa000;}.cls-6{fill:#ffd478;}.cls-7{fill:#f9f9f9;}.cls-8{fill:#027e8f;}.cls-9{clip-path:url(#clip-path-2);}.cls-10{fill:#c9a68f;}.cls-11{fill:#d6aa8b;}.cls-12{fill:#d6d6d6;}.cls-13{fill:#c99f4b;}.cls-14{fill:#6d5f56;}.cls-15{fill:#493e38;}.cls-16{clip-path:url(#clip-path-3);}.cls-17{fill:#fcfcfc;}.cls-18{fill:#d32222;}.cls-19{fill:#f4f4f4;}.cls-20{clip-path:url(#clip-path-4);}.cls-21{fill:#b7b7b7;}.cls-22{fill:#c99e32;}.cls-23{clip-path:url(#clip-path-5);}.cls-24{fill:#aa7e30;}.cls-25{fill:#fff;}.cls-26{fill:#ddd;}.cls-27{fill:#846829;}.cls-28{fill:#e8cd95;}</style><clipPath id="clip-path"><path class="cls-1" d="M155.91-118.58s-28.07,21.32-75.08,3.8-47-152.1-47-152.1,39.81-57.34,75.71-57.3c9.83,0,43.26,7.4,43.26,28.14s25.1,113.8,25.1,113.8,10.54,40.81,5.27,43.92"/></clipPath><clipPath id="clip-path-2"><path class="cls-1" d="M211.2,103.27C211.2,41.1,139.81,0,75.55,0S7.48,43.7,7.48,105.87s23.12,110,87.37,110S211.2,165.44,211.2,103.27Z"/></clipPath><clipPath id="clip-path-3"><path class="cls-1" d="M83.13,58.86c-.21-.22,12.53.8,17.39-2.78,0,0,1,9.69-3.39,10.75S87.51,66.13,83.13,58.86Z"/></clipPath><clipPath id="clip-path-4"><path class="cls-1" d="M90.34,202.25c3,5.87,23.75,7.11,25.48,7.65,0,0,.54-23.55-2.78-36.78S90.34,202.25,90.34,202.25Z"/></clipPath><clipPath id="clip-path-5"><path class="cls-1" d="M65.05,56.28c3.67,1.52.51-5.06.51-5.06s-.35-6.59-2.22-7.71a26.93,26.93,0,0,1-4.07-3.33l9.37-6.42L94.26,16.2s3.54-4.93-4.55-8a9.64,9.64,0,0,0-9.8-2.91S76.37,1.09,71.25,5c0,0-10.31-.61-12.65,4.45a3.86,3.86,0,0,0-3.79,2.15s-2.15.82-2.56,2.56c0,0-5.22,2.06-5.53,5.53,0,0-2.85,4-.57,7.21,0,0-1.5,2.83.44,4.77,0,0-4.36,4.78,0,7.75,0,0-1.08,3.1,5.31,4.36l1.9,3.92s1.82-.83,7.08,4.43Z"/></clipPath></defs><title>5-info2</title><g class="cls-2"><path class="cls-3" d="M145.2,3.33a6.82,6.82,0,0,0-.12,4.61c.88,2.29,11.57,10.51,19.28,11,8.14.53,12.65-4.17,13-5.28s-5.26-4.74-5.26-4.74Z"/><path class="cls-3" d="M65.7,7.34S59.87,22.9,61.93,25s14.95,4.5,23.88.77S76.06,2.49,76.06,2.49Z"/><path class="cls-4" d="M118.35-113.52,98.89-64.73s-2.51,9.24-5.49,12.22A131.27,131.27,0,0,1,86-31.2C81-19.89,78.76-4.34,78.76-4.34s4.6,11.66,4,16.91c0,0,4.39,6.06,2.63,9.54s-8.69,1.42-8.69,1.42S65.18,25,63.46,22.17s2.17-10.61,2.17-10.61S65.08,5.4,67.1,4A25.2,25.2,0,0,0,71.54-.86s-.76-2,1.36-4.75,5.26-20.21,5.26-22.5S75.33-47.5,84.75-54.23c0,0,2.29-46.45,8.75-52.91s24.85-10.3,24.85-10.3Z"/><path class="cls-4" d="M125.28-120.74s16.29,61.53,17.5,64.36-5.15,8.31,6,47.29c0,0-.7,5.15-1.71,7s-3.34,6.46-.41,8.08,12.42,9.69,16.46,10.4,11.62-2.83,11.62-2.83,4-1.51,2.77-2.78c0,0-3.68-.15-4.9-1.36s-14.94-12-14.94-12-4.24-5.45-4.24-5.82-3-48.3-3-48.3,1.11-3,0-9.19-.57-45-.57-45Z"/><path class="cls-3" d="M62.68,19.2S74.25,14.26,85.81,18A5.07,5.07,0,0,0,85,15.21c-1-1.51-15.45-3.83-21.61,1.24C63.34,16.45,62,18.35,62.68,19.2Z"/><path class="cls-3" d="M160.47,15.35s.45-10.18,11.59-6.42l.3.25a3.65,3.65,0,0,0-1.1-2.35,12.66,12.66,0,0,0-3.66-1.54s-10.21-2.51-10.06,8.33C157.54,13.62,159.14,15.86,160.47,15.35Z"/><path class="cls-5" d="M109.53-320.38a6.51,6.51,0,0,1,4.64,2.11,11.22,11.22,0,0,1,2.82-.37,10.24,10.24,0,0,1,7.62,3.47c8.37,3.14,5,8.19,4.85,8.47h.1s4.91,3.44,3.23,5.12c0,0,3,3.76.6,5.78a2.71,2.71,0,0,1-.87.45c6.88,10.72,11,29.66,8.28,45.27-.54,3.09-4.07,5.32-13.59,5.32h0a50.45,50.45,0,0,1-9.21-.82c.09.73.2,1.52.3,2.31h0c.48,3.4,1.18,7.26,1.93,7.83,4.86,3.65,12.1,5.16,16.17,5.75l5.89.55a14,14,0,0,1,1.31,1.49h.07c1.77,0,3.17,1.94,3.17,1.94L170.05-185l-20.05,36s6.73,11.31,3.37,16.43L158-128s.74,2.49-2.63,2.49a10.06,10.06,0,0,1-3.9-1.26,255,255,0,0,1,.93,26.35,25.23,25.23,0,0,0-2.71-.41l0,1.72h0c-.07,12,0,29.22.68,33.16,1.11,6.16,0,9.19,0,9.19s3,47.93,3,48.3,4.24,5.82,4.24,5.82,5.61,4.42,10,7.92h0a12.66,12.66,0,0,1,3.66,1.54,3.67,3.67,0,0,1,1.1,2.3c.29.19.77.52,1.32.92a14.11,14.11,0,0,0,3.79.7c.6.6,0,1.26-.78,1.78.44.47.7.87.63,1.14C177,14.72,173,19,165.63,19c-.42,0-.84,0-1.27,0-7.71-.5-18.4-8.72-19.28-11a6.82,6.82,0,0,1,.12-4.61A12.71,12.71,0,0,1,147-2.12c1-1.82,1.71-7,1.71-7-11.11-39-4.74-44.47-6-47.29-.81-1.91-8.47-30.43-13.38-48.86a13.42,13.42,0,0,1-2.53-1.5,79.79,79.79,0,0,1-13.33,5.28l-1.41,3.54L98.89-64.73s-2.51,9.24-5.49,12.22A131.27,131.27,0,0,1,86-31.2C81-19.89,78.76-4.34,78.76-4.34s3.62,9.18,4,14.92c4.26,5.83,8.08,13,3,15.14a29.1,29.1,0,0,1-11,1.94c-6.11,0-11.59-1.44-12.86-2.71C59.87,22.9,65.7,7.34,65.7,7.34c.18-1.41.57-2.78,1.4-3.35A25.2,25.2,0,0,0,71.54-.86s-.76-2,1.36-4.75,5.26-20.21,5.26-22.5S75.33-47.5,84.75-54.23c0,0,1.08-21.86,3.84-37.68h0c.3-1.79.63-3.51,1-5.1-2.89.24-4.62.27-4.62.27s15.12-42.23,20-56.59a2.65,2.65,0,0,1,1.3-3.9c.07-.22.12-.41.16-.54,1.21-4.44-10.2-26.24-10.2-26.24l-9.63-6-6.69,30.9-4.54-1.71-6-9.32L58.44-202.91l-.32-.1a10.38,10.38,0,0,1-4.54-3.8,38.07,38.07,0,0,1-4.27.25h-.48a.7.7,0,0,1-.43-.09.81.81,0,0,1-.25-.53,46.09,46.09,0,0,0-2.45-8.6,1.44,1.44,0,0,1-.14-.76c.1-.46.64-.67,1.12-.72a2.74,2.74,0,0,0,1.37-.27c.52-.36.68-1.16,1.28-1.36a1,1,0,0,1,.3,0c.28,0,.57.08.84.08a.83.83,0,0,0,.35-.06c.49-.2.6-.82.93-1.23a3.28,3.28,0,0,1,2-.81,14.59,14.59,0,0,0,3.61-1.45.35.35,0,0,0,.21-.18.37.37,0,0,0,0-.21c-.55-2.58-1.73-5.17-2.28-7.75a58.26,58.26,0,0,1-.94-7.4,3.92,3.92,0,0,1,2.05-2.49,1.09,1.09,0,0,1,.52-.16.53.53,0,0,1,.24.06c.29.13.39.48.46.8.62,2.88,2.32,10.19,2.94,13.07.39,1.84,3.72,6.44,4.43,7s.82,1.23,1.63,1.84a1.76,1.76,0,0,1,.55.57,1.83,1.83,0,0,1,.15.81l.12,4.88c.05,1.9,0,4-1.33,5.38h0l8.73,20.8-.17-.59c.08.15.16.31.23.46l.26-21.8s6.79-6.1,7.67-7c.56-.57,4.74-3,7.62-4.67h0c3-3,9.48-5.4,9.48-5.4s6.16-7,7.47-8.28.71-4.94.71-4.94l-3.37-13a25.36,25.36,0,0,1-8.31-7.91,3,3,0,0,1-2.2.88,7.73,7.73,0,0,1-3.93-1.49s-8.55-8.55-5.86-12.59a2.55,2.55,0,0,1,2.22-1.22c1.76,0,3.86,1.45,5.34,2.7-3-2.65-4.65-3-5.31-3h-.21l0,0,0,0-.06,0,0-.07c-.64-.31-3.5-1.88-3.75-4.55-4.83-1.51-3.9-4.2-3.9-4.2-4.64-3.16,0-8.25,0-8.25-2.07-2.07-.47-5.08-.47-5.08-2.42-3.43.61-7.67.61-7.67.34-3.71,5.89-5.89,5.89-5.89.44-1.86,2.73-2.73,2.73-2.73a4,4,0,0,1,3.73-2.3h.31c2-4.35,9.56-4.77,12.38-4.77.68,0,1.08,0,1.08,0a7.54,7.54,0,0,1,4.58-1.74m38,159.08L160-183.78,148.12-201.4c.31,5.06.51,10.26.45,15.16a196.16,196.16,0,0,1-1.75,23.89,1.65,1.65,0,0,1,.68,1M172.06,8.93h0M109.53-324.18h0a10.74,10.74,0,0,0-5.72,1.73c-4.14,0-11,.71-14.5,5a7.64,7.64,0,0,0-4.53,3,8.4,8.4,0,0,0-2.94,2.79c-2.12,1.1-5.73,3.51-6.62,7.33-1.31,2.22-2.49,5.87-1.12,9.37a8.37,8.37,0,0,0,.11,4.59,9.71,9.71,0,0,0-1.32,5.82A7.65,7.65,0,0,0,75-280.21a6.24,6.24,0,0,0,.57,1.63,8.21,8.21,0,0,0,4,3.64,8.77,8.77,0,0,0,1.32,2.11c-1.37,2.95-.54,6.68,2.48,11.1a40.67,40.67,0,0,0,4.39,5.32l.18.19.22.16a11.23,11.23,0,0,0,6.21,2.25,8.69,8.69,0,0,0,.89-.05,31.92,31.92,0,0,0,6.31,5.66l3,11.35a7.5,7.5,0,0,1,0,1.82c-1.46,1.53-5.19,5.72-6.71,7.44-2,.81-6.63,2.86-9.54,5.54-7,4.05-7.59,4.62-8,5.05-.58.58-4.92,4.49-7.51,6.82l-1.24,1.11,0,1.67,0,3.79-.94-2.24a13.34,13.34,0,0,0,.87-5.84l-.13-4.88a5.36,5.36,0,0,0-.58-2.49,5.24,5.24,0,0,0-1.51-1.74l0-.07a7.07,7.07,0,0,0-1.51-1.72,24.13,24.13,0,0,1-3.2-4.93c-.32-1.47-.91-4-1.48-6.54s-1.15-5.07-1.45-6.48A4.63,4.63,0,0,0,58.81-244a4.33,4.33,0,0,0-1.84-.41,4.76,4.76,0,0,0-2.35.63,7.48,7.48,0,0,0-4,5.39c-.22,2,1,8.55,1,8.61a39,39,0,0,0,1.25,4.29l.26.77-.1,0-.24,0a6.41,6.41,0,0,0-3.88,2,3.72,3.72,0,0,0-.75.17A4.78,4.78,0,0,0,46-221a4.78,4.78,0,0,0-4.11,3.67,5,5,0,0,0,.32,2.93,42.41,42.41,0,0,1,2.25,7.9,4.4,4.4,0,0,0,1.83,3,4.48,4.48,0,0,0,2.53.77h.53c.86,0,1.72,0,2.58-.08a14.7,14.7,0,0,0,3.47,2.71L65.77-169l.15.46.26.4,6,9.31.68,1.05,1.17.45,4.54,1.71L82.69-154l.93-4.3L89.16-184l4.18,2.61c.86,1.7,2.81,5.56,4.71,9.74,3.48,7.65,4.38,11,4.6,12.33a6.35,6.35,0,0,0-1.53,2.39,6.17,6.17,0,0,0-.16,3.58C95.73-138.09,81.52-98.43,81.37-98l-1.85,5.17,5.4-.09a3.06,3.06,0,0,0,0,.32l-.12.55V-92c-2.29,13.4-3.4,30.46-3.71,35.87-8.4,7.6-7.19,22-6.77,26.88,0,.44.08,1,.08,1.14-.06,2.51-3.06,17.84-4.49,20.22a9.86,9.86,0,0,0-2.26,5.93A16.53,16.53,0,0,1,64.92.88C63.37,2,62.41,3.78,62,6.41c-.41,1.12-1.6,4.45-2.62,8-2.21,7.68-2.25,11.15-.14,13.26,2.63,2.63,9.9,3.82,15.55,3.82a32.79,32.79,0,0,0,12.48-2.23,7.44,7.44,0,0,0,4.46-4.9c1-3.77-.62-8.59-5.25-15.13-.62-5-2.9-11.5-3.81-13.94.56-3.48,2.75-15.78,6.83-24.91a137.14,137.14,0,0,0,7.37-21c3-3.76,5.08-10.86,5.62-12.81l13.16-33,.74-1.85a84.14,84.14,0,0,0,9.89-3.86c10.42,39.07,12.35,45.49,12.86,46.93,0,.28-.11.75-.18,1.15-.76,4.6-2.55,15.32,5.91,45.31A24.27,24.27,0,0,1,143.71-4a16.22,16.22,0,0,0-2.28,6.62,10.37,10.37,0,0,0,.11,6.64c1.18,3.09,6.86,6.91,8.57,8,2.92,1.88,8.63,5.08,14,5.43.5,0,1,.05,1.52.05,8.74,0,14.55-5.21,15.35-8.13a4.3,4.3,0,0,0,.13-1.51,4.73,4.73,0,0,0,.38-1.43,4.53,4.53,0,0,0-1.33-3.65l-1-1L177.63,7a12.49,12.49,0,0,1-2-.27,6.7,6.7,0,0,0-1.95-2.77,13.32,13.32,0,0,0-4.31-2.07c-3.58-2.86-7.79-6.18-9-7.17-1.22-1.58-2.57-3.37-3.22-4.29-.17-2.79-.77-12.45-2.93-46.74a25.24,25.24,0,0,0-.1-10.27c-.22-1.24-.72-6.58-.63-29.48l2.63.83.12-5c0-.49.22-10.44-.51-21.39a6.2,6.2,0,0,0,5.09-2.37,5.8,5.8,0,0,0,.86-5l-.28-.92-.68-.68-2.89-2.9c1.21-5.35-1.66-12-3.46-15.48l19-34.14,1-1.87-1.06-1.86-23.24-40.67-.1-.17-.11-.16a9.15,9.15,0,0,0-4.29-3.21c-.21-.23-.43-.46-.65-.68l-1-1-1.36-.13-5.8-.54c-3.42-.5-9.52-1.74-13.7-4.56a29.72,29.72,0,0,1-.68-3.14c1.56.13,3.14.19,4.75.19,3.93,0,15.87,0,17.34-8.46,2.51-14.49-.5-32.91-7.21-45.23,1.33-2.31.89-5.14-.4-7.52a5.3,5.3,0,0,0,0-.69,8.58,8.58,0,0,0-3-5.13,8,8,0,0,0-.25-3.8c-.88-2.81-3.2-5-6.89-6.59a14,14,0,0,0-9.82-4.05,14.34,14.34,0,0,0-1.73.1,10,10,0,0,0-5.73-1.85Zm42.53,146.83c.16-2.75.27-5.73.31-8.85,0-.67,0-1.36,0-2.06l3.14,4.67-3.46,6.24Z"/></g><path class="cls-6" d="M132.86,70.16H700.8a10,10,0,0,1,10,10V187a10,10,0,0,1-10,10H132.86a0,0,0,0,1,0,0V70.16A0,0,0,0,1,132.86,70.16Z"/><circle class="cls-7" cx="92.11" cy="131.39" r="88"/><path class="cls-8" d="M92.11,46.39a85,85,0,1,1-85,85,85,85,0,0,1,85-85m0-6a91,91,0,1,0,91,91,91.11,91.11,0,0,0-91-91Z"/><path class="cls-6" d="M91.89,46.55a84.78,84.78,0,1,0,84.77,84.77A84.77,84.77,0,0,0,91.89,46.55Zm0,163.9A79.13,79.13,0,1,1,171,131.32,79.13,79.13,0,0,1,91.89,210.45Z"/><path class="cls-6" d="M131.9,69.74a2.86,2.86,0,0,0-2.13-.4A2.9,2.9,0,0,0,128,70.56l-4.62,7.11a2.81,2.81,0,0,0-.39,2.17,2.87,2.87,0,0,0,1.29,1.79,38.71,38.71,0,0,1,3.17,2.25c.63.49,1.27,1,1.77,1.33.88.72,1.72,1.48,2.56,2.25l-2,2a56.11,56.11,0,0,0-12.39-8.48l5.78-13a2.79,2.79,0,0,0,.06-2.16,2.83,2.83,0,0,0-1.49-1.57,73.88,73.88,0,0,0-26-6.2,2.82,2.82,0,0,0-3,2.67l-.44,8.47a2.83,2.83,0,0,0,2.67,3l3,.15,3.17.48,1.22.19c.61.09,1.22.17,1.76.3l.39.09-.74,2.77a57.91,57.91,0,0,0-15-1.21L87.33,60.77a2.82,2.82,0,0,0-1-1.9,2.78,2.78,0,0,0-2.07-.62A72.94,72.94,0,0,0,58.54,65.9a2.83,2.83,0,0,0-1.23,3.8l3.86,7.55a2.81,2.81,0,0,0,3.7,1.28c.57-.26,1.13-.54,1.7-.81a29.87,29.87,0,0,1,4-1.74l.73-.27c.85-.31,1.67-.62,2.49-.89l.73,2.73c-.69.24-1.37.49-2,.74l-.67.25a26.7,26.7,0,0,0-4,1.71l-1.7.82-4.79,2.76L61,84,52.68,72.56a2.83,2.83,0,0,0-1.85-1.13,2.77,2.77,0,0,0-2.1.51A73.54,73.54,0,0,0,30.3,91.31a2.85,2.85,0,0,0,.83,3.92l7.11,4.62a2.8,2.8,0,0,0,2.16.39A2.84,2.84,0,0,0,42.19,99c.7-1.09,1.45-2.14,2.25-3.16.49-.64,1-1.28,1.33-1.78.72-.87,1.48-1.72,2.25-2.56l2,2a56.15,56.15,0,0,0-8.49,12.39l-13-5.78a2.83,2.83,0,0,0-3.74,1.43,74.15,74.15,0,0,0-6.2,26,2.84,2.84,0,0,0,2.68,3l8.47.43a2.79,2.79,0,0,0,3-2.66l.15-3,.48-3.17c.08-.4.14-.81.19-1.22.09-.62.18-1.23.3-1.76l.1-.39,2.77.74a57.48,57.48,0,0,0-1.22,15l-14.14,1.47a2.85,2.85,0,0,0-1.9,1,2.82,2.82,0,0,0-.61,2.07,73.63,73.63,0,0,0,7.65,25.68,2.8,2.8,0,0,0,1.64,1.4,2.84,2.84,0,0,0,2.16-.17l7.55-3.85a2.83,2.83,0,0,0,1.27-3.71c-.26-.56-.53-1.11-.8-1.67a28.51,28.51,0,0,1-1.74-4.06l-.28-.75c-.32-.84-.62-1.66-.89-2.47l2.77-.74a56.06,56.06,0,0,0,6.45,13.53l-11.48,8.35a2.82,2.82,0,0,0-.62,3.95,73.73,73.73,0,0,0,19.38,18.43,2.81,2.81,0,0,0,3.91-.83l4.62-7.1a2.83,2.83,0,0,0-.89-4,35.65,35.65,0,0,1-3.17-2.26c-.64-.49-1.28-1-1.77-1.32-.88-.72-1.72-1.48-2.56-2.25l2-2c.75.69,1.53,1.39,2.47,2.16.55.39,1.09.8,1.62,1.21a34.36,34.36,0,0,0,3.15,2.22l5.05,2.89.06,0-5.79,13a2.91,2.91,0,0,0-.06,2.17A2.82,2.82,0,0,0,62,198.41a73.94,73.94,0,0,0,26,6.21h.15A2.83,2.83,0,0,0,91,201.94l.44-8.46a2.82,2.82,0,0,0-2.67-3l-3-.15-3.17-.49-1.22-.18c-.62-.09-1.23-.18-1.76-.3l-.39-.1.74-2.77a57.88,57.88,0,0,0,15,1.22l1.46,14.13a2.81,2.81,0,0,0,3.11,2.52,72.73,72.73,0,0,0,25.68-7.65,2.82,2.82,0,0,0,1.23-3.8l-3.86-7.55a2.83,2.83,0,0,0-3.7-1.28l-1.7.82a28.22,28.22,0,0,1-4,1.73l-.72.27c-.85.32-1.67.62-2.49.9l-.74-2.77a56,56,0,0,0,13.52-6.45l8.36,11.48a2.82,2.82,0,0,0,3.94.62,73.41,73.41,0,0,0,18.43-19.38,2.82,2.82,0,0,0-.82-3.91l-7.11-4.63a2.85,2.85,0,0,0-2.17-.38,2.81,2.81,0,0,0-1.78,1.28c-.7,1.1-1.45,2.15-2.25,3.17-.49.64-1,1.28-1.33,1.78-.72.87-1.49,1.71-2.26,2.55l-1.95-1.95a56.49,56.49,0,0,0,8.49-12.39l13,5.78A2.83,2.83,0,0,0,159,161.2a73.72,73.72,0,0,0,6.2-26,2.82,2.82,0,0,0-2.67-3l-8.47-.44a2.85,2.85,0,0,0-3,2.67l-.15,3-.48,3.16c-.07.41-.13.82-.19,1.23-.09.61-.17,1.22-.29,1.75l-.1.39-2.73-.72,0-.07c.16-.66.25-1.33.35-2,0-.32.08-.63.14-1l.44-2.78,0-.29.14-3v-5.91l14.2-1.47a2.82,2.82,0,0,0,1.9-1,2.88,2.88,0,0,0,.62-2.08A73.86,73.86,0,0,0,157.31,98a2.82,2.82,0,0,0-3.8-1.23L146,100.6a2.82,2.82,0,0,0-1.28,3.71c.26.56.53,1.11.8,1.67a28.07,28.07,0,0,1,1.75,4.06l.27.74c.32.85.62,1.66.89,2.47l-2.77.74a55.8,55.8,0,0,0-6.45-13.52l11.48-8.36a2.82,2.82,0,0,0,.63-3.94A73.57,73.57,0,0,0,131.9,69.74Zm1.72,27.78a2.83,2.83,0,0,0-1.13,1.85,2.77,2.77,0,0,0,.51,2.1,50.48,50.48,0,0,1,8,16.69,2.85,2.85,0,0,0,3.46,2l8.19-2.19a2.83,2.83,0,0,0,2-3.32,40.85,40.85,0,0,0-1.85-5.84l-.22-.61a29.72,29.72,0,0,0-1.59-3.83l2.52-1.29A68,68,0,0,1,159,121.44l-14,1.45a2.82,2.82,0,0,0-2.53,3l.14,2.74V134l-.14,2.66-.4,2.6c-.07.37-.12.74-.17,1.11s-.14,1-.24,1.42l-.7,2.72a2.82,2.82,0,0,0,2,3.44l8.2,2.19a2.82,2.82,0,0,0,3.46-2l.83-3.23c.17-.75.29-1.52.4-2.28.05-.37.1-.73.17-1.13l.52-3.5,0-.43,2.77.14a68.19,68.19,0,0,1-4.42,18.61l-12.85-5.73a2.84,2.84,0,0,0-2.16-.05,2.8,2.8,0,0,0-1.57,1.49,50.66,50.66,0,0,1-10.48,15.29,2.84,2.84,0,0,0,0,4l6,6a2.76,2.76,0,0,0,2.08.83,2.83,2.83,0,0,0,2-1l1.53-1.68c1-1.07,2-2.13,3-3.4.43-.61.88-1.2,1.33-1.79.32-.41.64-.83,1-1.25l2.38,1.54A67.63,67.63,0,0,1,134,184.43l-8.28-11.38a2.82,2.82,0,0,0-4-.62,50.32,50.32,0,0,1-16.69,8,2.81,2.81,0,0,0-2,3.46l2.19,8.19a2.82,2.82,0,0,0,3.32,2,41.93,41.93,0,0,0,5.86-1.85L115,192a27.29,27.29,0,0,0,3.83-1.58l1.29,2.52a68.82,68.82,0,0,1-18.35,5.47l-1.45-14a2.78,2.78,0,0,0-3.08-2.52,52,52,0,0,1-18.51-1.51,2.82,2.82,0,0,0-3.46,2l-2.19,8.19a2.82,2.82,0,0,0,2,3.47l3.21.82c.76.18,1.53.29,2.3.4l1.12.17,3.49.52.44,0-.15,2.77a68.5,68.5,0,0,1-18.6-4.43l5.73-12.84a2.84,2.84,0,0,0-1.35-3.7L69,176.68l-4.82-2.77a27.21,27.21,0,0,1-2.57-1.83c-.6-.46-1.2-.92-1.64-1.22-.82-.67-1.6-1.39-2.38-2.11-.58-.53-1.16-1.06-1.76-1.59a2.84,2.84,0,0,0-3.86.13l-6,6a2.82,2.82,0,0,0,.12,4.11c.56.49,1.11,1,1.66,1.51,1.07,1,2.15,2,3.42,3,.61.43,1.2.88,1.78,1.33l1.27,1-1.55,2.37a67.58,67.58,0,0,1-13.85-13.17l11.38-8.28a2.82,2.82,0,0,0,.62-3.95,50.56,50.56,0,0,1-8-16.7,2.83,2.83,0,0,0-3.45-2l-8.19,2.19a2.84,2.84,0,0,0-2,3.33A42.41,42.41,0,0,0,31,153.83l.23.61a31.16,31.16,0,0,0,1.58,3.83l-2.51,1.29a68.48,68.48,0,0,1-5.48-18.35l14-1.45a2.83,2.83,0,0,0,2.52-3.09,51.75,51.75,0,0,1,1.5-18.5,2.79,2.79,0,0,0-.28-2.15,2.83,2.83,0,0,0-1.72-1.32l-8.19-2.18a2.79,2.79,0,0,0-2.15.29,2.84,2.84,0,0,0-1.32,1.73l-.82,3.23c-.18.75-.29,1.51-.4,2.28-.05.36-.1.72-.17,1.13l-.52,3.49,0,.43L24.44,125a68.42,68.42,0,0,1,4.43-18.6l12.84,5.72a2.82,2.82,0,0,0,2.17.06,2.87,2.87,0,0,0,1.57-1.49,50.68,50.68,0,0,1,10.47-15.3,2.82,2.82,0,0,0,0-4l-6-6a2.84,2.84,0,0,0-4.11.12c-.5.57-1,1.13-1.53,1.69-1,1.06-2,2.13-3,3.4-.43.61-.89,1.2-1.34,1.79l-1,1.25-2.37-1.54A67.89,67.89,0,0,1,49.8,78.21l8.29,11.38a2.82,2.82,0,0,0,3.95.62l.66-.49a8.67,8.67,0,0,1,1.38-1l4.63-2.68c.54-.25,1.08-.51,1.61-.78a22.85,22.85,0,0,1,3.31-1.41l.85-.31a27.78,27.78,0,0,1,4.09-1.3,2.83,2.83,0,0,0,2.16-3.5L78.54,70.6a2.82,2.82,0,0,0-3.32-2,41.11,41.11,0,0,0-5.86,1.85l-.59.22a28.32,28.32,0,0,0-3.83,1.58L63.66,69.7A68.65,68.65,0,0,1,82,64.23l1.45,14a2.79,2.79,0,0,0,3.08,2.52A52,52,0,0,1,105,82.25a2.88,2.88,0,0,0,2.15-.28,2.83,2.83,0,0,0,1.31-1.72l2.19-8.19a2.83,2.83,0,0,0-2-3.47l-3.22-.82c-.76-.18-1.52-.29-2.29-.4L102,67.19l-3.49-.52-.44,0,.15-2.77a68,68,0,0,1,18.6,4.42l-5.72,12.85a2.8,2.8,0,0,0,1.44,3.73,51,51,0,0,1,15.29,10.48,2.82,2.82,0,0,0,4,0l6-6a2.79,2.79,0,0,0,.82-2.08,2.82,2.82,0,0,0-.94-2c-.56-.49-1.11-1-1.66-1.51-1.08-1-2.15-2-3.43-3-.6-.43-1.19-.89-1.78-1.34l-1.26-1,1.55-2.37A67.84,67.84,0,0,1,145,89.24Z"/><path class="cls-6" d="M91.89,86.11a45.12,45.12,0,0,0-39,68,2.75,2.75,0,0,0,.17.29,45.58,45.58,0,0,0,11.53,12.9c.07.05.11.12.19.17l.06,0a44.88,44.88,0,0,0,54.06,0s0,0,.07,0,.13-.12.2-.17a45.4,45.4,0,0,0,11.52-12.9,1.75,1.75,0,0,0,.18-.29,45.13,45.13,0,0,0-39-68Zm-5.1,6L55.43,146.68A39.53,39.53,0,0,1,86.79,92.13ZM69.92,164.21l22-38.19,22,38.19a39.48,39.48,0,0,1-43.93,0Zm48.42-3.55L95.56,121.08a4.24,4.24,0,0,0-7.35,0L65.44,160.66a39.8,39.8,0,0,1-6.88-8.1l33.33-58,6.46,11.21c0,.08.08.17.13.25l26.73,46.5a39.75,39.75,0,0,1-6.87,8.1Zm10-14-24.84-43.21a2.1,2.1,0,0,0-.13-.26L97,92.13a39.53,39.53,0,0,1,31.36,54.55Z"/><path class="cls-8" d="M220.29,96.05l1.54-.12v-11l-1.54-.12V84h10.36v2.81h-1l-.09-1.91H223v5h5.78v.9H223v5.11l1.55.12v.77h-4.22Z"/><path class="cls-8" d="M232.4,96.05l1.55-.12V88.21l-1.55-.12v-.78h2.68v8.62l1.54.12v.77H232.4Zm2.68-11.47H234V83.11h1.13Z"/><path class="cls-8" d="M242.91,96.12a3.42,3.42,0,0,0,2-.6,1.92,1.92,0,0,0,.86-1.66h1l0,0a2.56,2.56,0,0,1-1.14,2.21,4.45,4.45,0,0,1-2.75.88,4,4,0,0,1-3.23-1.33,5,5,0,0,1-1.15-3.42v-.37a5,5,0,0,1,1.15-3.41,4,4,0,0,1,3.23-1.34,5.49,5.49,0,0,1,2.17.42,4.19,4.19,0,0,1,1.6,1.12l0,2.08h-1l-.18-1.69a3.11,3.11,0,0,0-1.13-.75,4,4,0,0,0-1.54-.28,2.84,2.84,0,0,0-2.45,1.09,4.57,4.57,0,0,0-.79,2.76v.37a4.62,4.62,0,0,0,.79,2.78A2.83,2.83,0,0,0,242.91,96.12Z"/><path class="cls-8" d="M248.91,91.92a4.85,4.85,0,0,1,1.25-3.44,4.7,4.7,0,0,1,6.59,0A4.85,4.85,0,0,1,258,91.92v.29a4.9,4.9,0,0,1-1.24,3.45,4.73,4.73,0,0,1-6.6,0,4.86,4.86,0,0,1-1.25-3.45Zm1.14.29A4.3,4.3,0,0,0,251,95a3,3,0,0,0,2.52,1.13A3,3,0,0,0,256,95a4.25,4.25,0,0,0,.91-2.78v-.29a4.32,4.32,0,0,0-.91-2.76,3.33,3.33,0,0,0-5,0,4.32,4.32,0,0,0-.9,2.76Z"/><path class="cls-8" d="M267.39,95.25a3.37,3.37,0,0,1-1.32,1.3,4.13,4.13,0,0,1-2,.45,3.24,3.24,0,0,1-2.54-1,4.62,4.62,0,0,1-.92-3.16V88.21l-1.27-.12v-.78h2.4v5.53a3.81,3.81,0,0,0,.65,2.49,2.22,2.22,0,0,0,1.81.76,3.59,3.59,0,0,0,2.06-.53,2.74,2.74,0,0,0,1.07-1.46V88.21l-1.46-.12v-.78h2.6v8.62l1.38.12v.77H267.5Z"/><path class="cls-8" d="M283.81,95.25a3.37,3.37,0,0,1-1.32,1.3,4.13,4.13,0,0,1-2,.45A3.24,3.24,0,0,1,278,96a4.62,4.62,0,0,1-.92-3.16V88.21l-1.27-.12v-.78h2.4v5.53a3.81,3.81,0,0,0,.65,2.49,2.22,2.22,0,0,0,1.81.76,3.59,3.59,0,0,0,2.06-.53,2.74,2.74,0,0,0,1.07-1.46V88.21l-1.46-.12v-.78h2.6v8.62l1.38.12v.77h-2.37Z"/><path class="cls-8" d="M287.71,88.09v-.78h2.56l.1,1.57a3.55,3.55,0,0,1,1.32-1.29,4.07,4.07,0,0,1,2-.46,3.47,3.47,0,0,1,2,.53,3,3,0,0,1,1.13,1.63,3.55,3.55,0,0,1,3.42-2.16,3.2,3.2,0,0,1,2.53,1,4.62,4.62,0,0,1,.9,3.13v4.65l1.55.13v.77h-4.24v-.77l1.54-.13V91.26a3.64,3.64,0,0,0-.67-2.49,2.4,2.4,0,0,0-1.86-.72,2.65,2.65,0,0,0-2.05.78,3.64,3.64,0,0,0-.88,2V91s0,.09,0,.15v4.82l1.54.12v.77h-4.23v-.77l1.55-.12V91.26a3.65,3.65,0,0,0-.68-2.47,2.42,2.42,0,0,0-1.87-.74,2.74,2.74,0,0,0-2.91,2.09v5.79l1.55.12v.77h-4.24v-.77l1.55-.12V88.21Z"/><path class="cls-8" d="M313.89,84.87v2.44h2.26v.86h-2.26v6.2a1.88,1.88,0,0,0,.37,1.32,1.25,1.25,0,0,0,1,.39l.53,0,.61-.08.17.79a3.48,3.48,0,0,1-.69.17A5.76,5.76,0,0,1,315,97a2.25,2.25,0,0,1-1.69-.63,2.83,2.83,0,0,1-.6-2v-6.2H311v-.86h1.76V84.87Z"/><path class="cls-8" d="M325.33,96.82a7.1,7.1,0,0,1-.16-.84,4.17,4.17,0,0,1-.05-.71,4.48,4.48,0,0,1-1.52,1.24,4.56,4.56,0,0,1-2.14.49,3.44,3.44,0,0,1-2.33-.72,2.46,2.46,0,0,1-.83-2,2.37,2.37,0,0,1,1.23-2.09,6.11,6.11,0,0,1,3.32-.77h2.27V90.21a2,2,0,0,0-.71-1.6,3,3,0,0,0-2-.58,5.45,5.45,0,0,0-1.56.21,3.73,3.73,0,0,0-1.18.59l-.1,1.27h-.93V88.28a6.18,6.18,0,0,1,1.71-.83,6.9,6.9,0,0,1,2.11-.32,4.36,4.36,0,0,1,2.73.8,2.75,2.75,0,0,1,1,2.3V94.9c0,.2,0,.38,0,.56a4.35,4.35,0,0,0,.06.52l1,.07v.77Zm-3.74-.75a4.28,4.28,0,0,0,2.17-.53,3.18,3.18,0,0,0,1.36-1.36v-1.9h-2.29a4.49,4.49,0,0,0-2.47.59,1.73,1.73,0,0,0-.93,1.5A1.49,1.49,0,0,0,320,95.6,2.38,2.38,0,0,0,321.59,96.07Z"/><path class="cls-8" d="M328.75,96.05l1.55-.12V88.21l-1.55-.12v-.78h2.56l.1,1.66a3.48,3.48,0,0,1,1.33-1.36,4,4,0,0,1,2-.48,3.31,3.31,0,0,1,2.55,1,4.24,4.24,0,0,1,.87,3v4.9l1.55.12v.77h-4.24v-.77l1.55-.12V91a3.3,3.3,0,0,0-.66-2.32,2.49,2.49,0,0,0-1.87-.67,3.08,3.08,0,0,0-2,.58,3.21,3.21,0,0,0-1.09,1.55v5.75l1.55.12v.77h-4.24Z"/><path class="cls-8" d="M344.09,84.87v2.44h2.26v.86h-2.26v6.2a1.88,1.88,0,0,0,.37,1.32,1.25,1.25,0,0,0,1,.39l.54,0,.6-.08.17.79a3.48,3.48,0,0,1-.69.17,5.76,5.76,0,0,1-.82.06,2.21,2.21,0,0,1-1.68-.63,2.78,2.78,0,0,1-.61-2v-6.2h-1.76v-.86h1.76V84.87Z"/><path class="cls-8" d="M348.25,91.92a4.84,4.84,0,0,1,1.24-3.44,4.71,4.71,0,0,1,6.6,0,4.84,4.84,0,0,1,1.24,3.44v.29a4.85,4.85,0,0,1-1.24,3.45A4.23,4.23,0,0,1,352.8,97a4.27,4.27,0,0,1-3.31-1.34,4.85,4.85,0,0,1-1.24-3.45Zm1.14.29a4.3,4.3,0,0,0,.9,2.78,3.33,3.33,0,0,0,5,0,4.3,4.3,0,0,0,.9-2.78v-.29a4.32,4.32,0,0,0-.9-2.76,3.33,3.33,0,0,0-5,0,4.32,4.32,0,0,0-.9,2.76Z"/><path class="cls-8" d="M366.37,87.31l.14,1.58V89a3.43,3.43,0,0,1,1.19-1.38,3.19,3.19,0,0,1,1.79-.5,2.77,2.77,0,0,1,.42,0l.34.07-.15,1-.85,0a2.73,2.73,0,0,0-1.76.56,3,3,0,0,0-1,1.53v5.68l1.55.12v.77h-4.23v-.77l1.55-.12V88.21l-1.55-.12v-.78h2.54Z"/><path class="cls-8" d="M376.07,97a4.27,4.27,0,0,1-3.21-1.31,4.6,4.6,0,0,1-1.27-3.34v-.49a4.7,4.7,0,0,1,1.27-3.38,4,4,0,0,1,3.06-1.35,4,4,0,0,1,3,1.11,4,4,0,0,1,1.08,3v.9h-7.25v.26a4,4,0,0,0,.92,2.68,3.06,3.06,0,0,0,2.43,1.09,5.08,5.08,0,0,0,1.8-.28,3.53,3.53,0,0,0,1.28-.78l.49.72a4.13,4.13,0,0,1-1.47.89A6,6,0,0,1,376.07,97Zm-.15-9a2.85,2.85,0,0,0-2.12.89,3.74,3.74,0,0,0-1,2.24l0,0h6v-.26a2.9,2.9,0,0,0-.79-2.08A2.81,2.81,0,0,0,375.92,88Z"/><path class="cls-8" d="M381.7,88.09v-.78h2.49l.14,1.48a3.67,3.67,0,0,1,1.34-1.23,4.07,4.07,0,0,1,1.9-.43,3.46,3.46,0,0,1,2.9,1.37,5.89,5.89,0,0,1,1,3.64v.19a5.21,5.21,0,0,1-1,3.4A3.53,3.53,0,0,1,387.59,97a4.31,4.31,0,0,1-1.89-.38,3.44,3.44,0,0,1-1.33-1.08v4l1.55.11v.79H381.7v-.79l1.54-.11V88.21Zm8.67,4a5.14,5.14,0,0,0-.78-3,2.59,2.59,0,0,0-2.28-1.14,3.22,3.22,0,0,0-1.86.5,3.16,3.16,0,0,0-1.08,1.32v4.57a3,3,0,0,0,1.13,1.23,3.45,3.45,0,0,0,1.83.45,2.66,2.66,0,0,0,2.27-1,4.53,4.53,0,0,0,.77-2.75Z"/><path class="cls-8" d="M397.89,97a4.27,4.27,0,0,1-3.21-1.31,4.6,4.6,0,0,1-1.27-3.34v-.49a4.7,4.7,0,0,1,1.27-3.38,4,4,0,0,1,3.06-1.35,4,4,0,0,1,3,1.11,4,4,0,0,1,1.08,3v.9h-7.25v.26a4,4,0,0,0,.92,2.68,3.06,3.06,0,0,0,2.43,1.09,5.08,5.08,0,0,0,1.8-.28,3.53,3.53,0,0,0,1.28-.78l.49.72a4.13,4.13,0,0,1-1.47.89A6,6,0,0,1,397.89,97Zm-.15-9a2.85,2.85,0,0,0-2.12.89,3.74,3.74,0,0,0-1,2.24l0,0h6v-.26a2.9,2.9,0,0,0-.79-2.08A2.81,2.81,0,0,0,397.74,88Z"/><path class="cls-8" d="M406.43,84.87v2.44h2.26v.86h-2.26v6.2a1.88,1.88,0,0,0,.37,1.32,1.25,1.25,0,0,0,1,.39l.53,0,.61-.08.17.79a3.48,3.48,0,0,1-.69.17,5.76,5.76,0,0,1-.82.06,2.25,2.25,0,0,1-1.69-.63,2.83,2.83,0,0,1-.6-2v-6.2h-1.76v-.86h1.76V84.87Z"/><path class="cls-8" d="M410.7,96.05l1.55-.12V88.21l-1.55-.12v-.78h2.68v8.62l1.54.12v.77H410.7Zm2.68-11.47h-1.13V83.11h1.13Z"/><path class="cls-8" d="M419.44,84.87v2.44h2.26v.86h-2.26v6.2a1.88,1.88,0,0,0,.37,1.32,1.27,1.27,0,0,0,1,.39l.54,0,.6-.08.17.79a3.48,3.48,0,0,1-.69.17,5.66,5.66,0,0,1-.82.06,2.21,2.21,0,0,1-1.68-.63,2.78,2.78,0,0,1-.61-2v-6.2h-1.76v-.86h1.76V84.87Z"/><path class="cls-8" d="M423.71,96.05l1.55-.12V88.21l-1.55-.12v-.78h2.68v8.62l1.55.12v.77h-4.23Zm2.68-11.47h-1.13V83.11h1.13Z"/><path class="cls-8" d="M432.83,88.09l-1.29.09,2.57,6.26.33,1.11h.06l.36-1.11,2.52-6.26-1.28-.09v-.78h3.45v.78l-1,.08-3.63,8.65H434l-3.63-8.65-1-.08v-.78h3.46Z"/><path class="cls-8" d="M440.66,91.92a4.85,4.85,0,0,1,1.25-3.44,4.7,4.7,0,0,1,6.59,0,4.85,4.85,0,0,1,1.25,3.44v.29a4.9,4.9,0,0,1-1.24,3.45,4.73,4.73,0,0,1-6.6,0,4.86,4.86,0,0,1-1.25-3.45Zm1.14.29a4.3,4.3,0,0,0,.9,2.78,3.06,3.06,0,0,0,2.52,1.13A3,3,0,0,0,447.71,95a4.3,4.3,0,0,0,.9-2.78v-.29a4.27,4.27,0,0,0-.91-2.76,3.33,3.33,0,0,0-5,0,4.32,4.32,0,0,0-.9,2.76Z"/><path class="cls-8" d="M463.46,95.45a3.41,3.41,0,0,1-1.32,1.15,4.16,4.16,0,0,1-1.9.4,3.53,3.53,0,0,1-2.88-1.27,5.22,5.22,0,0,1-1-3.4v-.19a5.89,5.89,0,0,1,1-3.64,3.45,3.45,0,0,1,2.9-1.37,3.87,3.87,0,0,1,1.86.42,3.56,3.56,0,0,1,1.31,1.19V84l-1.54-.11v-.78h2.68V95.93l1.55.12v.77h-2.56Zm-6-3.12a4.52,4.52,0,0,0,.75,2.74,2.58,2.58,0,0,0,2.24,1,3.36,3.36,0,0,0,1.83-.46,3.06,3.06,0,0,0,1.14-1.25v-4.5a3.26,3.26,0,0,0-1.09-1.32,3.15,3.15,0,0,0-1.86-.51,2.51,2.51,0,0,0-2.25,1.14,5.19,5.19,0,0,0-.76,3Z"/><path class="cls-8" d="M472.39,97a4.23,4.23,0,0,1-3.2-1.31,4.61,4.61,0,0,1-1.28-3.34v-.49a4.74,4.74,0,0,1,1.27-3.38,4.06,4.06,0,0,1,3.06-1.35,4,4,0,0,1,3,1.11,4,4,0,0,1,1.08,3v.9H469v.26A4,4,0,0,0,470,95a3,3,0,0,0,2.42,1.09,5.1,5.1,0,0,0,1.81-.28,3.61,3.61,0,0,0,1.28-.78l.48.72a4,4,0,0,1-1.46.89A6,6,0,0,1,472.39,97Zm-.15-9a2.83,2.83,0,0,0-2.11.89,3.68,3.68,0,0,0-1,2.24l0,0h6v-.26a2.94,2.94,0,0,0-.78-2.08A2.83,2.83,0,0,0,472.24,88Z"/><path class="cls-8" d="M485.78,90.24h-.93l-.14-1.34a2.78,2.78,0,0,0-1.07-.64,4.63,4.63,0,0,0-1.5-.23,2.93,2.93,0,0,0-1.86.5,1.45,1.45,0,0,0-.63,1.16,1.34,1.34,0,0,0,.54,1.09,5.47,5.47,0,0,0,2.14.76,7.16,7.16,0,0,1,2.74,1,2.08,2.08,0,0,1,.91,1.78,2.25,2.25,0,0,1-1,1.92,4.68,4.68,0,0,1-2.75.73,7.16,7.16,0,0,1-2.08-.29,5.16,5.16,0,0,1-1.62-.83V94h.93l.16,1.36a2.76,2.76,0,0,0,1.15.61,5.78,5.78,0,0,0,1.46.19,3.26,3.26,0,0,0,1.94-.51,1.43,1.43,0,0,0,.71-1.21,1.5,1.5,0,0,0-.59-1.17,5,5,0,0,0-2.14-.81,7.77,7.77,0,0,1-2.72-1,2,2,0,0,1-.89-1.71,2.25,2.25,0,0,1,1-1.84,4.21,4.21,0,0,1,2.63-.76,6.4,6.4,0,0,1,2.06.32,4.33,4.33,0,0,1,1.53.87Z"/><path class="cls-8" d="M495.5,90.24h-.93l-.13-1.34a2.75,2.75,0,0,0-1.08-.64,4.53,4.53,0,0,0-1.49-.23,3,3,0,0,0-1.87.5,1.47,1.47,0,0,0-.62,1.16,1.34,1.34,0,0,0,.54,1.09,5.47,5.47,0,0,0,2.14.76,7.23,7.23,0,0,1,2.74,1,2.08,2.08,0,0,1,.91,1.78,2.24,2.24,0,0,1-1,1.92,4.65,4.65,0,0,1-2.74.73,7.16,7.16,0,0,1-2.08-.29,5.16,5.16,0,0,1-1.62-.83V94h.92l.17,1.36a2.7,2.7,0,0,0,1.15.61,5.78,5.78,0,0,0,1.46.19,3.26,3.26,0,0,0,1.94-.51,1.43,1.43,0,0,0,.71-1.21,1.5,1.5,0,0,0-.59-1.17,5.11,5.11,0,0,0-2.14-.81,7.77,7.77,0,0,1-2.72-1,2,2,0,0,1-.89-1.71,2.25,2.25,0,0,1,1-1.84,4.19,4.19,0,0,1,2.63-.76,6.4,6.4,0,0,1,2.06.32,4.42,4.42,0,0,1,1.53.87Z"/><path class="cls-8" d="M504.87,96.82c-.07-.32-.13-.6-.16-.84a5.52,5.52,0,0,1,0-.71,4.38,4.38,0,0,1-1.52,1.24A4.52,4.52,0,0,1,501,97a3.45,3.45,0,0,1-2.34-.72,2.45,2.45,0,0,1-.82-2,2.38,2.38,0,0,1,1.22-2.09,6.16,6.16,0,0,1,3.32-.77h2.27V90.21a2,2,0,0,0-.7-1.6,3,3,0,0,0-2-.58,5.45,5.45,0,0,0-1.56.21,3.68,3.68,0,0,0-1.19.59l-.09,1.27h-.94V88.28a6,6,0,0,1,1.7-.83,7,7,0,0,1,2.11-.32,4.37,4.37,0,0,1,2.74.8,2.74,2.74,0,0,1,1,2.3V94.9c0,.2,0,.38,0,.56a4.35,4.35,0,0,0,.06.52l1,.07v.77Zm-3.74-.75a4.32,4.32,0,0,0,2.18-.53,3.21,3.21,0,0,0,1.35-1.36v-1.9h-2.28a4.51,4.51,0,0,0-2.48.59,1.74,1.74,0,0,0-.92,1.5,1.51,1.51,0,0,0,.57,1.23A2.38,2.38,0,0,0,501.13,96.07Z"/><path class="cls-8" d="M513.07,88.17v-.86h1.7V85.92a3,3,0,0,1,.78-2.21,2.89,2.89,0,0,1,2.17-.79,4.7,4.7,0,0,1,.63,0l.65.12-.14.87-.46-.08a4.61,4.61,0,0,0-.56,0,1.85,1.85,0,0,0-1.43.54,2.18,2.18,0,0,0-.5,1.53v1.39h2.45v.86h-2.45v7.76l1.55.12v.77h-4.24v-.77l1.55-.12V88.17Z"/><path class="cls-8" d="M520.11,91.92a4.85,4.85,0,0,1,1.25-3.44,4.7,4.7,0,0,1,6.59,0,4.85,4.85,0,0,1,1.25,3.44v.29A4.9,4.9,0,0,1,528,95.66a4.73,4.73,0,0,1-6.6,0,4.86,4.86,0,0,1-1.25-3.45Zm1.14.29a4.3,4.3,0,0,0,.9,2.78,3.06,3.06,0,0,0,2.52,1.13A3,3,0,0,0,527.16,95a4.3,4.3,0,0,0,.9-2.78v-.29a4.27,4.27,0,0,0-.91-2.76,3.33,3.33,0,0,0-5,0,4.32,4.32,0,0,0-.9,2.76Z"/><path class="cls-8" d="M533.51,87.31l.14,1.58V89a3.43,3.43,0,0,1,1.19-1.38,3.19,3.19,0,0,1,1.79-.5,3,3,0,0,1,.42,0l.34.07-.15,1-.85,0a2.73,2.73,0,0,0-1.76.56,3,3,0,0,0-1,1.53v5.68l1.55.12v.77H531v-.77l1.55-.12V88.21L531,88.09v-.78h2.54Z"/><path class="cls-8" d="M538.61,88.09v-.78h2.55l.11,1.57a3.55,3.55,0,0,1,1.32-1.29,4,4,0,0,1,2-.46,3.49,3.49,0,0,1,2,.53,3,3,0,0,1,1.13,1.63A3.74,3.74,0,0,1,549,87.71a3.69,3.69,0,0,1,2.09-.58,3.21,3.21,0,0,1,2.54,1,4.62,4.62,0,0,1,.9,3.13v4.65l1.55.13v.77H551.8v-.77l1.55-.13V91.26a3.64,3.64,0,0,0-.67-2.49,2.4,2.4,0,0,0-1.86-.72,2.65,2.65,0,0,0-2.05.78,3.57,3.57,0,0,0-.88,2v5.11l1.55.12v.77h-4.23v-.77l1.55-.12V91.26a3.65,3.65,0,0,0-.68-2.47,2.44,2.44,0,0,0-1.87-.74,2.74,2.74,0,0,0-2.91,2.09v5.79l1.55.12v.77h-4.24v-.77l1.55-.12V88.21Z"/><path class="cls-8" d="M564.54,96.82c-.07-.32-.13-.6-.16-.84a5.52,5.52,0,0,1,0-.71,4.44,4.44,0,0,1-1.51,1.24,4.59,4.59,0,0,1-2.14.49,3.47,3.47,0,0,1-2.34-.72,2.45,2.45,0,0,1-.82-2,2.38,2.38,0,0,1,1.22-2.09,6.17,6.17,0,0,1,3.33-.77h2.26V90.21a2,2,0,0,0-.7-1.6,3,3,0,0,0-2-.58,5.45,5.45,0,0,0-1.56.21,3.62,3.62,0,0,0-1.18.59l-.1,1.27h-.94V88.28a6,6,0,0,1,1.7-.83,7,7,0,0,1,2.12-.32,4.36,4.36,0,0,1,2.73.8,2.74,2.74,0,0,1,1,2.3V94.9c0,.2,0,.38,0,.56a4.35,4.35,0,0,0,.06.52l1,.07v.77Zm-3.74-.75a4.29,4.29,0,0,0,2.18-.53,3.16,3.16,0,0,0,1.35-1.36v-1.9h-2.28a4.53,4.53,0,0,0-2.48.59,1.74,1.74,0,0,0-.92,1.5,1.51,1.51,0,0,0,.57,1.23A2.4,2.4,0,0,0,560.8,96.07Z"/><path class="cls-8" d="M569.83,96.4a3.71,3.71,0,0,1-.36,1.58,3.83,3.83,0,0,1-1,1.31l-.67-.46a4.84,4.84,0,0,0,.66-1.15,3.64,3.64,0,0,0,.21-1.27V95.17h1.13Z"/><path class="cls-8" d="M576.42,96.05l1.54-.12V88.21l-1.54-.12v-.78H579l.1,1.66a3.5,3.5,0,0,1,1.34-1.36,3.94,3.94,0,0,1,2-.48,3.29,3.29,0,0,1,2.54,1,4.24,4.24,0,0,1,.87,3v4.9l1.55.12v.77h-4.23v-.77l1.54-.12V91a3.3,3.3,0,0,0-.66-2.32,2.49,2.49,0,0,0-1.87-.67,3.08,3.08,0,0,0-1.95.58,3.28,3.28,0,0,0-1.09,1.55v5.75l1.55.12v.77h-4.23Z"/><path class="cls-8" d="M596.23,96.82c-.07-.32-.13-.6-.16-.84a5.52,5.52,0,0,1-.05-.71,4.44,4.44,0,0,1-1.51,1.24,4.59,4.59,0,0,1-2.14.49,3.42,3.42,0,0,1-2.33-.72,2.46,2.46,0,0,1-.83-2,2.38,2.38,0,0,1,1.22-2.09,6.17,6.17,0,0,1,3.33-.77H596V90.21a2,2,0,0,0-.7-1.6,3,3,0,0,0-2-.58,5.45,5.45,0,0,0-1.56.21,3.62,3.62,0,0,0-1.18.59l-.1,1.27h-.94V88.28a6,6,0,0,1,1.7-.83,7,7,0,0,1,2.12-.32,4.36,4.36,0,0,1,2.73.8,2.74,2.74,0,0,1,1,2.3V94.9c0,.2,0,.38,0,.56a4.35,4.35,0,0,0,.06.52l1,.07v.77Zm.41-13.18a1.72,1.72,0,0,1-.52,1.29,1.79,1.79,0,0,1-1.3.51,2.52,2.52,0,0,1-1.43-.49,2.44,2.44,0,0,0-1.25-.48,1,1,0,0,0-.75.31,1.06,1.06,0,0,0-.3.78l-.75-.16a1.74,1.74,0,0,1,1.8-1.78,2.76,2.76,0,0,1,1.4.48,2.65,2.65,0,0,0,1.28.48,1,1,0,0,0,.75-.31,1.09,1.09,0,0,0,.31-.8Zm-4.15,12.43a4.29,4.29,0,0,0,2.18-.53A3.16,3.16,0,0,0,596,94.18v-1.9h-2.28a4.53,4.53,0,0,0-2.48.59,1.74,1.74,0,0,0-.92,1.5,1.51,1.51,0,0,0,.57,1.23A2.4,2.4,0,0,0,592.49,96.07Z"/><path class="cls-8" d="M599.87,91.92a4.84,4.84,0,0,1,1.24-3.44,4.71,4.71,0,0,1,6.6,0A4.84,4.84,0,0,1,609,91.92v.29a4.85,4.85,0,0,1-1.24,3.45A4.23,4.23,0,0,1,604.42,97a4.27,4.27,0,0,1-3.31-1.34,4.85,4.85,0,0,1-1.24-3.45Zm1.14.29a4.3,4.3,0,0,0,.9,2.78,3.33,3.33,0,0,0,5,0,4.3,4.3,0,0,0,.9-2.78v-.29a4.32,4.32,0,0,0-.9-2.76A3.06,3.06,0,0,0,604.4,88a3,3,0,0,0-2.49,1.13,4.32,4.32,0,0,0-.9,2.76Z"/><path class="cls-8" d="M613.31,93.27a4.29,4.29,0,0,1,.21-1.61,4,4,0,0,1,1.08-1.2,11.63,11.63,0,0,0,1.49-1.64,2.88,2.88,0,0,0,.47-1.69,2.29,2.29,0,0,0-.64-1.74,2.57,2.57,0,0,0-1.84-.61,2.65,2.65,0,0,0-1.81.6,2.11,2.11,0,0,0-.69,1.63h-1.05l0-.05a2.75,2.75,0,0,1,1-2.29,4,4,0,0,1,2.59-.83,3.74,3.74,0,0,1,2.66.89,3.1,3.1,0,0,1,1,2.39,3.62,3.62,0,0,1-.63,2.11,10.65,10.65,0,0,1-1.79,1.92,2.06,2.06,0,0,0-.72.87,4.78,4.78,0,0,0-.12,1.25Zm1.28,3.55h-1.31V95.47h1.31Z"/><path class="cls-8" d="M623.91,96.05l1-.07,4.91-12h1.07l4.86,12,1,.07v.77h-3.41v-.77L634.6,96l-1.14-2.87h-6.21L626.1,96l1.21.09v.77h-3.4Zm3.72-3.9h5.46l-2.69-6.77h-.06Z"/><path class="cls-8" d="M638.45,92.14a5.83,5.83,0,0,1,1-3.64,3.47,3.47,0,0,1,2.91-1.37,3.8,3.8,0,0,1,1.89.45,3.51,3.51,0,0,1,1.32,1.25l.14-1.52h1V96.7a3.89,3.89,0,0,1-1.08,2.9,4,4,0,0,1-3,1.06,8.27,8.27,0,0,1-1.58-.17,6.61,6.61,0,0,1-1.46-.45l.3-.89a6.82,6.82,0,0,0,1.3.42,6.57,6.57,0,0,0,1.42.15,2.89,2.89,0,0,0,2.21-.8,3.15,3.15,0,0,0,.74-2.22V95.49a3.48,3.48,0,0,1-1.32,1.12,4.22,4.22,0,0,1-1.87.39,3.54,3.54,0,0,1-2.9-1.27,5.23,5.23,0,0,1-1-3.4Zm1.14.19a4.56,4.56,0,0,0,.75,2.74,2.64,2.64,0,0,0,2.26,1,3.37,3.37,0,0,0,1.84-.47,3.08,3.08,0,0,0,1.14-1.28V89.93a3.48,3.48,0,0,0-1.09-1.36,3.09,3.09,0,0,0-1.87-.52,2.56,2.56,0,0,0-2.27,1.14,5.21,5.21,0,0,0-.76,3Z"/><path class="cls-8" d="M649.3,91.92a4.84,4.84,0,0,1,1.24-3.44,4.71,4.71,0,0,1,6.6,0,4.84,4.84,0,0,1,1.24,3.44v.29a4.85,4.85,0,0,1-1.24,3.45A4.23,4.23,0,0,1,653.85,97a4.27,4.27,0,0,1-3.31-1.34,4.85,4.85,0,0,1-1.24-3.45Zm1.14.29a4.3,4.3,0,0,0,.9,2.78,3.33,3.33,0,0,0,5,0,4.3,4.3,0,0,0,.9-2.78v-.29a4.27,4.27,0,0,0-.91-2.76,3.32,3.32,0,0,0-5,0,4.32,4.32,0,0,0-.9,2.76Z"/><path class="cls-8" d="M662.69,87.31l.14,1.58V89A3.43,3.43,0,0,1,664,87.63a3.21,3.21,0,0,1,1.79-.5,2.77,2.77,0,0,1,.42,0l.34.07-.15,1-.84,0a2.74,2.74,0,0,0-1.77.56,3.11,3.11,0,0,0-1,1.53v5.68l1.55.12v.77h-4.22v-.77l1.54-.12V88.21l-1.54-.12v-.78h2.53Z"/><path class="cls-8" d="M675.13,96.82c-.07-.32-.13-.6-.16-.84a5.52,5.52,0,0,1-.05-.71,4.44,4.44,0,0,1-1.51,1.24,4.59,4.59,0,0,1-2.14.49,3.47,3.47,0,0,1-2.34-.72,2.45,2.45,0,0,1-.82-2,2.38,2.38,0,0,1,1.22-2.09,6.17,6.17,0,0,1,3.33-.77h2.26V90.21a2,2,0,0,0-.7-1.6,3,3,0,0,0-2-.58,5.45,5.45,0,0,0-1.56.21,3.68,3.68,0,0,0-1.19.59l-.09,1.27h-.94V88.28a6,6,0,0,1,1.7-.83,7,7,0,0,1,2.12-.32,4.36,4.36,0,0,1,2.73.8,2.74,2.74,0,0,1,1,2.3V94.9c0,.2,0,.38,0,.56a4.35,4.35,0,0,0,.06.52l1,.07v.77Zm-3.74-.75a4.29,4.29,0,0,0,2.18-.53,3.16,3.16,0,0,0,1.35-1.36v-1.9h-2.28a4.53,4.53,0,0,0-2.48.59,1.74,1.74,0,0,0-.92,1.5,1.51,1.51,0,0,0,.57,1.23A2.4,2.4,0,0,0,671.39,96.07Z"/><path class="cls-8" d="M215.73,117.65l1.55-.12v-7.72l-1.55-.12v-.78h2.68v8.62l1.55.12v.77h-4.23Zm2.68-11.47h-1.13v-1.47h1.13Z"/><path class="cls-8" d="M221.62,109.69v-.78h2.55l.1,1.57a3.48,3.48,0,0,1,1.32-1.29,4.07,4.07,0,0,1,2-.46,3.45,3.45,0,0,1,2,.53,3,3,0,0,1,1.13,1.63,3.58,3.58,0,0,1,3.42-2.16,3.24,3.24,0,0,1,2.54,1,4.62,4.62,0,0,1,.89,3.13v4.65l1.55.13v.77h-4.24v-.77l1.55-.13v-4.66a3.69,3.69,0,0,0-.67-2.49,2.43,2.43,0,0,0-1.87-.72,2.62,2.62,0,0,0-2,.78,3.58,3.58,0,0,0-.89,2v.14a.66.66,0,0,1,0,.15v4.82l1.55.12v.77h-4.24v-.77l1.55-.12v-4.67a3.65,3.65,0,0,0-.68-2.47,2.4,2.4,0,0,0-1.86-.74,3.08,3.08,0,0,0-1.93.56,3,3,0,0,0-1,1.53v5.79l1.55.12v.77h-4.23v-.77l1.54-.12v-7.72Z"/><path class="cls-8" d="M247.55,118.42c-.08-.32-.13-.6-.17-.84a5.53,5.53,0,0,1,0-.71,4.48,4.48,0,0,1-1.52,1.24,4.56,4.56,0,0,1-2.14.49,3.44,3.44,0,0,1-2.33-.72,2.46,2.46,0,0,1-.83-1.95,2.37,2.37,0,0,1,1.23-2.09,6.11,6.11,0,0,1,3.32-.77h2.27v-1.26a2,2,0,0,0-.71-1.6,3,3,0,0,0-2-.58,5.45,5.45,0,0,0-1.56.21,3.62,3.62,0,0,0-1.18.59l-.1,1.27h-.94v-1.82a6.18,6.18,0,0,1,1.71-.83,6.9,6.9,0,0,1,2.11-.32,4.36,4.36,0,0,1,2.73.8,2.75,2.75,0,0,1,1,2.3v4.67c0,.2,0,.38,0,.56a4.35,4.35,0,0,0,.06.52l1,.07v.77Zm-3.74-.75a4.28,4.28,0,0,0,2.17-.53,3.18,3.18,0,0,0,1.36-1.36v-1.91h-2.29a4.47,4.47,0,0,0-2.47.6,1.73,1.73,0,0,0-.93,1.5,1.49,1.49,0,0,0,.58,1.23A2.38,2.38,0,0,0,243.81,117.67Z"/><path class="cls-8" d="M251.23,113.74a5.83,5.83,0,0,1,1.05-3.64,3.47,3.47,0,0,1,2.91-1.37,3.8,3.8,0,0,1,1.89.45,3.51,3.51,0,0,1,1.32,1.25l.14-1.52h1v9.39a3.89,3.89,0,0,1-1.08,2.9,4.09,4.09,0,0,1-3,1.06,8.27,8.27,0,0,1-1.58-.17,6.45,6.45,0,0,1-1.46-.45l.3-.89a6.82,6.82,0,0,0,1.3.42,6.51,6.51,0,0,0,1.42.15,2.89,2.89,0,0,0,2.21-.8,3.17,3.17,0,0,0,.74-2.22v-1.21a3.48,3.48,0,0,1-1.32,1.12,4.22,4.22,0,0,1-1.87.39,3.54,3.54,0,0,1-2.9-1.27,5.23,5.23,0,0,1-1-3.4Zm1.14.19a4.51,4.51,0,0,0,.75,2.73,2.62,2.62,0,0,0,2.26,1,3.37,3.37,0,0,0,1.84-.47,3.08,3.08,0,0,0,1.14-1.28v-4.41a3.48,3.48,0,0,0-1.09-1.36,3.09,3.09,0,0,0-1.87-.52,2.56,2.56,0,0,0-2.27,1.14,5.21,5.21,0,0,0-.76,2.95Z"/><path class="cls-8" d="M262,117.65l1.55-.12v-7.72l-1.55-.12v-.78h2.68v8.62l1.55.12v.77H262Zm2.68-11.47h-1.13v-1.47h1.13Z"/><path class="cls-8" d="M267.92,117.65l1.55-.12v-7.72l-1.55-.12v-.78h2.56l.1,1.66a3.55,3.55,0,0,1,1.33-1.36,4,4,0,0,1,2-.48,3.3,3.3,0,0,1,2.55,1,4.24,4.24,0,0,1,.87,2.95v4.9l1.55.12v.77h-4.24v-.77l1.55-.12v-4.89a3.3,3.3,0,0,0-.66-2.32,2.49,2.49,0,0,0-1.87-.67,3.08,3.08,0,0,0-1.95.58,3.21,3.21,0,0,0-1.09,1.55v5.75l1.55.12v.77h-4.24Z"/><path class="cls-8" d="M285.08,118.6a4.23,4.23,0,0,1-3.2-1.31A4.61,4.61,0,0,1,280.6,114v-.49a4.74,4.74,0,0,1,1.27-3.38,4.06,4.06,0,0,1,3.06-1.35,4,4,0,0,1,3,1.11,4.05,4.05,0,0,1,1.09,3v.9h-7.26V114a4,4,0,0,0,.93,2.68,3,3,0,0,0,2.42,1.09,5.34,5.34,0,0,0,1.81-.28,3.61,3.61,0,0,0,1.28-.78l.48.72a4,4,0,0,1-1.46.89A6,6,0,0,1,285.08,118.6Zm-.15-9a2.83,2.83,0,0,0-2.11.89,3.68,3.68,0,0,0-1,2.24l0,0h6v-.26a2.94,2.94,0,0,0-.79-2.08A2.83,2.83,0,0,0,284.93,109.63Z"/><path class="cls-8" d="M303.19,111.84h-.93l-.13-1.34a2.75,2.75,0,0,0-1.08-.64,4.53,4.53,0,0,0-1.49-.23,3,3,0,0,0-1.87.5,1.47,1.47,0,0,0-.62,1.16,1.34,1.34,0,0,0,.54,1.09,5.47,5.47,0,0,0,2.14.76,7.23,7.23,0,0,1,2.74,1,2.08,2.08,0,0,1,.91,1.78,2.24,2.24,0,0,1-1,1.92,4.65,4.65,0,0,1-2.74.73,7.11,7.11,0,0,1-2.08-.29,5.16,5.16,0,0,1-1.62-.83v-1.92h.92l.17,1.36a2.7,2.7,0,0,0,1.15.61,5.78,5.78,0,0,0,1.46.19,3.26,3.26,0,0,0,1.94-.51,1.43,1.43,0,0,0,.71-1.21,1.5,1.5,0,0,0-.59-1.17,5.11,5.11,0,0,0-2.14-.81,7.77,7.77,0,0,1-2.72-1,2,2,0,0,1-.89-1.71,2.25,2.25,0,0,1,1-1.84,4.19,4.19,0,0,1,2.63-.76,6.4,6.4,0,0,1,2.06.32,4.42,4.42,0,0,1,1.53.87Z"/><path class="cls-8" d="M310,118.6a4.27,4.27,0,0,1-3.21-1.31,4.6,4.6,0,0,1-1.27-3.34v-.49a4.7,4.7,0,0,1,1.27-3.38,4,4,0,0,1,3.06-1.35,4,4,0,0,1,3,1.11,4,4,0,0,1,1.08,3v.9h-7.25V114a4,4,0,0,0,.92,2.68,3.06,3.06,0,0,0,2.43,1.09,5.32,5.32,0,0,0,1.8-.28,3.53,3.53,0,0,0,1.28-.78l.49.72a4.18,4.18,0,0,1-1.46.89A6,6,0,0,1,310,118.6Zm-.15-9a2.82,2.82,0,0,0-2.11.89,3.69,3.69,0,0,0-1,2.24l0,0h6v-.26a2.9,2.9,0,0,0-.79-2.08A2.81,2.81,0,0,0,309.85,109.63Z"/><path class="cls-8" d="M323.27,106.47v2.44h2.26v.86h-2.26V116a1.93,1.93,0,0,0,.36,1.32,1.29,1.29,0,0,0,1,.39l.53,0c.18,0,.38,0,.6-.08l.18.79a3.59,3.59,0,0,1-.7.17,5.52,5.52,0,0,1-.81.06,2.23,2.23,0,0,1-1.69-.63,2.83,2.83,0,0,1-.6-2v-6.2h-1.77v-.86h1.77v-2.44Z"/><path class="cls-8" d="M327.54,117.65l1.55-.12v-7.72l-1.55-.12v-.78h2.68v8.62l1.54.12v.77h-4.22Zm2.68-11.47h-1.13v-1.47h1.13Z"/><path class="cls-8" d="M336.65,109.69l-1.28.09,2.56,6.26.33,1.11h.06l.36-1.11,2.53-6.26-1.29-.09v-.78h3.46v.78l-1,.08-3.62,8.65h-.91l-3.64-8.65-1-.08v-.78h3.45Z"/><path class="cls-8" d="M349,118.6a4.25,4.25,0,0,1-3.21-1.31,4.6,4.6,0,0,1-1.27-3.34v-.49a4.73,4.73,0,0,1,1.26-3.38,4.06,4.06,0,0,1,3.06-1.35,4,4,0,0,1,3,1.11,4,4,0,0,1,1.08,3v.9h-7.25V114a4,4,0,0,0,.92,2.68,3.06,3.06,0,0,0,2.43,1.09,5.32,5.32,0,0,0,1.8-.28,3.53,3.53,0,0,0,1.28-.78l.48.72a4,4,0,0,1-1.46.89A6,6,0,0,1,349,118.6Zm-.16-9a2.83,2.83,0,0,0-2.11.89,3.74,3.74,0,0,0-1,2.24l0,0h6v-.26a2.94,2.94,0,0,0-.79-2.08A2.83,2.83,0,0,0,348.88,109.63Zm1.08-4.35h1.39l0,0L349,107.62h-1Z"/><path class="cls-8" d="M362.42,111.84h-.93l-.13-1.34a2.9,2.9,0,0,0-1.08-.64,4.59,4.59,0,0,0-1.5-.23,2.93,2.93,0,0,0-1.86.5,1.44,1.44,0,0,0-.62,1.16,1.33,1.33,0,0,0,.53,1.09,5.47,5.47,0,0,0,2.14.76,7.29,7.29,0,0,1,2.75,1,2.1,2.1,0,0,1,.91,1.78,2.26,2.26,0,0,1-1,1.92,4.68,4.68,0,0,1-2.75.73,7,7,0,0,1-2.07-.29,5,5,0,0,1-1.62-.83v-1.92h.92l.16,1.36a2.76,2.76,0,0,0,1.15.61,5.84,5.84,0,0,0,1.46.19,3.32,3.32,0,0,0,2-.51,1.45,1.45,0,0,0,.71-1.21,1.51,1.51,0,0,0-.6-1.17,5,5,0,0,0-2.14-.81,7.85,7.85,0,0,1-2.72-1,2,2,0,0,1-.88-1.71,2.23,2.23,0,0,1,1-1.84,4.21,4.21,0,0,1,2.63-.76,6.47,6.47,0,0,1,2.07.32,4.37,4.37,0,0,1,1.52.87Z"/><path class="cls-8" d="M372.15,111.84h-.93l-.14-1.34a2.78,2.78,0,0,0-1.07-.64,4.63,4.63,0,0,0-1.5-.23,2.93,2.93,0,0,0-1.86.5,1.45,1.45,0,0,0-.63,1.16,1.34,1.34,0,0,0,.54,1.09,5.47,5.47,0,0,0,2.14.76,7.16,7.16,0,0,1,2.74,1,2.08,2.08,0,0,1,.92,1.78,2.26,2.26,0,0,1-1,1.92,4.68,4.68,0,0,1-2.75.73,7.16,7.16,0,0,1-2.08-.29,5,5,0,0,1-1.61-.83v-1.92h.92l.16,1.36a2.76,2.76,0,0,0,1.15.61,5.84,5.84,0,0,0,1.46.19,3.26,3.26,0,0,0,1.94-.51,1.44,1.44,0,0,0,.72-1.21,1.51,1.51,0,0,0-.6-1.17,5,5,0,0,0-2.14-.81,7.85,7.85,0,0,1-2.72-1,2,2,0,0,1-.88-1.71,2.23,2.23,0,0,1,1-1.84,4.21,4.21,0,0,1,2.63-.76,6.51,6.51,0,0,1,2.07.32,4.37,4.37,0,0,1,1.52.87Z"/><path class="cls-8" d="M379,118.6a4.27,4.27,0,0,1-3.21-1.31,4.64,4.64,0,0,1-1.27-3.34v-.49a4.7,4.7,0,0,1,1.27-3.38,4,4,0,0,1,3.06-1.35,4,4,0,0,1,3,1.11,4,4,0,0,1,1.08,3v.9H375.6V114a4,4,0,0,0,.93,2.68,3,3,0,0,0,2.42,1.09,5.32,5.32,0,0,0,1.8-.28,3.66,3.66,0,0,0,1.29-.78l.48.72a4.09,4.09,0,0,1-1.46.89A6,6,0,0,1,379,118.6Zm-.15-9a2.82,2.82,0,0,0-2.11.89,3.68,3.68,0,0,0-1,2.24l0,0h6v-.26a2.94,2.94,0,0,0-.78-2.08A2.83,2.83,0,0,0,378.8,109.63Z"/><path class="cls-8" d="M384.64,109.69v-.78h2.55l.1,1.57a3.48,3.48,0,0,1,1.32-1.29,4.07,4.07,0,0,1,2-.46,3.45,3.45,0,0,1,2,.53,3,3,0,0,1,1.13,1.63,3.58,3.58,0,0,1,3.42-2.16,3.24,3.24,0,0,1,2.54,1,4.62,4.62,0,0,1,.9,3.13v4.65l1.54.13v.77h-4.24v-.77l1.55-.13v-4.66a3.69,3.69,0,0,0-.67-2.49,2.43,2.43,0,0,0-1.87-.72,2.62,2.62,0,0,0-2,.78,3.58,3.58,0,0,0-.89,2v.14a.66.66,0,0,1,0,.15v4.82l1.55.12v.77h-4.24v-.77l1.55-.12v-4.67a3.65,3.65,0,0,0-.68-2.47,2.4,2.4,0,0,0-1.86-.74,3.08,3.08,0,0,0-1.93.56,3,3,0,0,0-1,1.53v5.79l1.55.12v.77h-4.23v-.77l1.54-.12v-7.72Z"/><path class="cls-8" d="M403.38,113.52a4.85,4.85,0,0,1,1.25-3.44,4.7,4.7,0,0,1,6.59,0,4.85,4.85,0,0,1,1.25,3.44v.29a4.9,4.9,0,0,1-1.24,3.45,4.73,4.73,0,0,1-6.6,0,4.86,4.86,0,0,1-1.25-3.45Zm1.14.29a4.32,4.32,0,0,0,.9,2.78,3,3,0,0,0,2.52,1.13,3,3,0,0,0,2.48-1.13,4.27,4.27,0,0,0,.91-2.78v-.29a4.32,4.32,0,0,0-.91-2.76,3.33,3.33,0,0,0-5,0,4.32,4.32,0,0,0-.9,2.76Z"/><path class="cls-8" d="M421.77,111.84h-.93l-.14-1.34a2.78,2.78,0,0,0-1.07-.64,4.63,4.63,0,0,0-1.5-.23,2.93,2.93,0,0,0-1.86.5,1.45,1.45,0,0,0-.63,1.16,1.34,1.34,0,0,0,.54,1.09,5.47,5.47,0,0,0,2.14.76,7.16,7.16,0,0,1,2.74,1A2.08,2.08,0,0,1,422,116a2.26,2.26,0,0,1-1,1.92,4.68,4.68,0,0,1-2.75.73,7.16,7.16,0,0,1-2.08-.29,5,5,0,0,1-1.61-.83v-1.92h.92l.16,1.36a2.76,2.76,0,0,0,1.15.61,5.84,5.84,0,0,0,1.46.19,3.26,3.26,0,0,0,1.94-.51,1.44,1.44,0,0,0,.72-1.21,1.51,1.51,0,0,0-.6-1.17,5,5,0,0,0-2.14-.81,7.85,7.85,0,0,1-2.72-1,2,2,0,0,1-.88-1.71,2.23,2.23,0,0,1,1-1.84,4.21,4.21,0,0,1,2.63-.76,6.51,6.51,0,0,1,2.07.32,4.37,4.37,0,0,1,1.52.87Z"/><path class="cls-8" d="M435.91,117.05a3.41,3.41,0,0,1-1.32,1.15,4.19,4.19,0,0,1-1.9.4,3.5,3.5,0,0,1-2.88-1.27,5.23,5.23,0,0,1-1-3.4v-.19a5.89,5.89,0,0,1,1-3.64,3.44,3.44,0,0,1,2.9-1.37,3.93,3.93,0,0,1,1.86.42,3.64,3.64,0,0,1,1.31,1.19V105.6l-1.55-.11v-.78H437v12.82l1.55.12v.77H436Zm-6-3.12a4.59,4.59,0,0,0,.74,2.74,2.61,2.61,0,0,0,2.25,1,3.36,3.36,0,0,0,1.83-.46,3.06,3.06,0,0,0,1.14-1.25v-4.5a3.29,3.29,0,0,0-1.1-1.32,3.09,3.09,0,0,0-1.85-.51,2.54,2.54,0,0,0-2.26,1.14,5.25,5.25,0,0,0-.75,2.95Z"/><path class="cls-8" d="M440.24,117.65l1.54-.12v-7.72l-1.54-.12v-.78h2.67v8.62l1.55.12v.77h-4.22Zm2.67-11.47h-1.13v-1.47h1.13Z"/><path class="cls-8" d="M449.35,109.69l-1.28.09,2.56,6.26.33,1.11H451l.36-1.11,2.52-6.26-1.28-.09v-.78h3.46v.78l-1,.08-3.62,8.65h-.92l-3.63-8.65-1-.08v-.78h3.46Z"/><path class="cls-8" d="M457.25,117.65l1.55-.12v-7.72l-1.55-.12v-.78h2.68v8.62l1.55.12v.77h-4.23Zm2.68-11.47H458.8v-1.47h1.13Z"/><path class="cls-8" d="M470.52,117.05a3.41,3.41,0,0,1-1.32,1.15,4.15,4.15,0,0,1-1.89.4,3.53,3.53,0,0,1-2.89-1.27,5.22,5.22,0,0,1-1-3.4v-.19a5.89,5.89,0,0,1,1-3.64,3.45,3.45,0,0,1,2.9-1.37,3.87,3.87,0,0,1,1.86.42,3.56,3.56,0,0,1,1.31,1.19V105.6l-1.54-.11v-.78h2.68v12.82l1.55.12v.77h-2.56Zm-6-3.12a4.52,4.52,0,0,0,.75,2.74,2.59,2.59,0,0,0,2.24,1,3.36,3.36,0,0,0,1.83-.46,3.06,3.06,0,0,0,1.14-1.25v-4.5a3.26,3.26,0,0,0-1.09-1.32,3.15,3.15,0,0,0-1.86-.51,2.51,2.51,0,0,0-2.25,1.14,5.25,5.25,0,0,0-.76,2.95Z"/><path class="cls-8" d="M474.85,117.65l1.55-.12v-7.72l-1.55-.12v-.78h2.68v8.62l1.54.12v.77h-4.22Zm2.68-11.47H476.4v-1.47h1.13Z"/><path class="cls-8" d="M488.12,117.05a3.41,3.41,0,0,1-1.32,1.15,4.19,4.19,0,0,1-1.9.4,3.5,3.5,0,0,1-2.88-1.27,5.23,5.23,0,0,1-1-3.4v-.19a5.89,5.89,0,0,1,1-3.64,3.44,3.44,0,0,1,2.9-1.37,3.87,3.87,0,0,1,1.86.42,3.64,3.64,0,0,1,1.31,1.19V105.6l-1.55-.11v-.78h2.69v12.82l1.55.12v.77h-2.57Zm-6-3.12a4.52,4.52,0,0,0,.75,2.74,2.58,2.58,0,0,0,2.24,1,3.36,3.36,0,0,0,1.83-.46,3.06,3.06,0,0,0,1.14-1.25v-4.5a3.29,3.29,0,0,0-1.1-1.32,3.09,3.09,0,0,0-1.85-.51,2.54,2.54,0,0,0-2.26,1.14,5.25,5.25,0,0,0-.75,2.95Z"/><path class="cls-8" d="M492.52,113.52a4.85,4.85,0,0,1,1.25-3.44,4.7,4.7,0,0,1,6.59,0,4.85,4.85,0,0,1,1.25,3.44v.29a4.9,4.9,0,0,1-1.24,3.45,4.73,4.73,0,0,1-6.6,0,4.86,4.86,0,0,1-1.25-3.45Zm1.14.29a4.32,4.32,0,0,0,.9,2.78,3.34,3.34,0,0,0,5,0,4.32,4.32,0,0,0,.9-2.78v-.29a4.32,4.32,0,0,0-.91-2.76,3.33,3.33,0,0,0-5,0,4.32,4.32,0,0,0-.9,2.76Z"/><path class="cls-8" d="M512.71,118.6a4.27,4.27,0,0,1-3.21-1.31,4.6,4.6,0,0,1-1.27-3.34v-.49a4.7,4.7,0,0,1,1.27-3.38,4,4,0,0,1,3.06-1.35,4,4,0,0,1,3,1.11,4,4,0,0,1,1.08,3v.9h-7.25V114a4,4,0,0,0,.93,2.68,3,3,0,0,0,2.42,1.09,5.32,5.32,0,0,0,1.8-.28,3.53,3.53,0,0,0,1.28-.78l.49.72a4.09,4.09,0,0,1-1.46.89A6,6,0,0,1,512.71,118.6Zm-.15-9a2.82,2.82,0,0,0-2.11.89,3.63,3.63,0,0,0-1,2.24v0h6v-.26a2.9,2.9,0,0,0-.79-2.08A2.79,2.79,0,0,0,512.56,109.63Z"/><path class="cls-8" d="M526.09,111.84h-.93L525,110.5a2.82,2.82,0,0,0-1.08-.64,4.53,4.53,0,0,0-1.49-.23,3,3,0,0,0-1.87.5,1.47,1.47,0,0,0-.62,1.16,1.34,1.34,0,0,0,.54,1.09,5.47,5.47,0,0,0,2.14.76,7.23,7.23,0,0,1,2.74,1,2.08,2.08,0,0,1,.91,1.78,2.26,2.26,0,0,1-1,1.92,4.66,4.66,0,0,1-2.75.73,7.09,7.09,0,0,1-2.07-.29,5.16,5.16,0,0,1-1.62-.83v-1.92h.92l.16,1.36a2.8,2.8,0,0,0,1.16.61,5.76,5.76,0,0,0,1.45.19,3.27,3.27,0,0,0,2-.51,1.45,1.45,0,0,0,.71-1.21,1.53,1.53,0,0,0-.59-1.17,5.11,5.11,0,0,0-2.14-.81,7.77,7.77,0,0,1-2.72-1,2,2,0,0,1-.89-1.71,2.22,2.22,0,0,1,1-1.84,4.19,4.19,0,0,1,2.63-.76,6.4,6.4,0,0,1,2.06.32,4.42,4.42,0,0,1,1.53.87Z"/><path class="cls-8" d="M535.82,111.84h-.93l-.13-1.34a2.9,2.9,0,0,0-1.08-.64,4.53,4.53,0,0,0-1.49-.23,3,3,0,0,0-1.87.5,1.47,1.47,0,0,0-.62,1.16,1.34,1.34,0,0,0,.54,1.09,5.4,5.4,0,0,0,2.14.76,7.23,7.23,0,0,1,2.74,1A2.08,2.08,0,0,1,536,116a2.26,2.26,0,0,1-1,1.92,4.66,4.66,0,0,1-2.75.73,7,7,0,0,1-2.07-.29,5.16,5.16,0,0,1-1.62-.83v-1.92h.92l.16,1.36a2.8,2.8,0,0,0,1.16.61,5.76,5.76,0,0,0,1.45.19,3.29,3.29,0,0,0,2-.51,1.45,1.45,0,0,0,.71-1.21,1.53,1.53,0,0,0-.59-1.17,5.11,5.11,0,0,0-2.14-.81,7.77,7.77,0,0,1-2.72-1,2,2,0,0,1-.89-1.71,2.22,2.22,0,0,1,1-1.84,4.19,4.19,0,0,1,2.63-.76,6.4,6.4,0,0,1,2.06.32,4.37,4.37,0,0,1,1.52.87Z"/><path class="cls-8" d="M545.19,118.42a7.1,7.1,0,0,1-.16-.84,5.52,5.52,0,0,1,0-.71,4.57,4.57,0,0,1-3.65,1.73,3.45,3.45,0,0,1-2.34-.72,2.45,2.45,0,0,1-.82-1.95,2.36,2.36,0,0,1,1.22-2.09,6.14,6.14,0,0,1,3.32-.77H545v-1.26a2,2,0,0,0-.71-1.6,3,3,0,0,0-2-.58,5.45,5.45,0,0,0-1.56.21,3.73,3.73,0,0,0-1.18.59l-.09,1.27h-.94v-1.82a6,6,0,0,1,1.7-.83,7,7,0,0,1,2.11-.32,4.39,4.39,0,0,1,2.74.8,2.77,2.77,0,0,1,1,2.3v4.67c0,.2,0,.38,0,.56a3,3,0,0,0,.07.52l1,.07v.77Zm-3.74-.75a4.26,4.26,0,0,0,2.17-.53,3.18,3.18,0,0,0,1.36-1.36v-1.91h-2.29a4.49,4.49,0,0,0-2.47.6,1.73,1.73,0,0,0-.93,1.5,1.52,1.52,0,0,0,.58,1.23A2.38,2.38,0,0,0,541.45,117.67Z"/><path class="cls-8" d="M556.27,111.84h-.93l-.13-1.34a2.75,2.75,0,0,0-1.08-.64,4.53,4.53,0,0,0-1.49-.23,3,3,0,0,0-1.87.5,1.47,1.47,0,0,0-.62,1.16,1.34,1.34,0,0,0,.54,1.09,5.47,5.47,0,0,0,2.14.76,7.23,7.23,0,0,1,2.74,1,2.08,2.08,0,0,1,.91,1.78,2.24,2.24,0,0,1-1,1.92,4.65,4.65,0,0,1-2.74.73,7.16,7.16,0,0,1-2.08-.29,5.16,5.16,0,0,1-1.62-.83v-1.92h.92l.17,1.36a2.7,2.7,0,0,0,1.15.61,5.78,5.78,0,0,0,1.46.19,3.26,3.26,0,0,0,1.94-.51,1.43,1.43,0,0,0,.71-1.21,1.5,1.5,0,0,0-.59-1.17,5,5,0,0,0-2.14-.81,7.77,7.77,0,0,1-2.72-1,2,2,0,0,1-.89-1.71,2.25,2.25,0,0,1,1-1.84,4.19,4.19,0,0,1,2.63-.76,6.4,6.4,0,0,1,2.06.32,4.42,4.42,0,0,1,1.53.87Z"/><path class="cls-8" d="M570.37,118.42a7.1,7.1,0,0,1-.16-.84,5.52,5.52,0,0,1-.05-.71,4.57,4.57,0,0,1-3.65,1.73,3.45,3.45,0,0,1-2.34-.72,2.45,2.45,0,0,1-.82-1.95,2.36,2.36,0,0,1,1.22-2.09,6.14,6.14,0,0,1,3.32-.77h2.27v-1.26a2,2,0,0,0-.71-1.6,3,3,0,0,0-2-.58,5.45,5.45,0,0,0-1.56.21,3.73,3.73,0,0,0-1.18.59l-.09,1.27h-.94v-1.82a6,6,0,0,1,1.7-.83,7,7,0,0,1,2.11-.32,4.34,4.34,0,0,1,2.73.8,2.75,2.75,0,0,1,1,2.3v4.67c0,.2,0,.38,0,.56a3,3,0,0,0,.07.52l1,.07v.77Zm-3.74-.75a4.26,4.26,0,0,0,2.17-.53,3.18,3.18,0,0,0,1.36-1.36v-1.91h-2.29a4.49,4.49,0,0,0-2.47.6,1.73,1.73,0,0,0-.93,1.5,1.52,1.52,0,0,0,.58,1.23A2.38,2.38,0,0,0,566.63,117.67Z"/><path class="cls-8" d="M582.83,113.93a5.21,5.21,0,0,1-1,3.4,3.53,3.53,0,0,1-2.88,1.27,4.38,4.38,0,0,1-1.95-.41,3.36,3.36,0,0,1-1.31-1.2l-.13,1.43h-1V105.6l-1.54-.11v-.78h2.67v5.69a3.66,3.66,0,0,1,1.31-1.23,3.92,3.92,0,0,1,1.9-.44,3.45,3.45,0,0,1,2.9,1.37,5.89,5.89,0,0,1,1,3.64Zm-1.15-.19a5.17,5.17,0,0,0-.76-2.95,2.51,2.51,0,0,0-2.24-1.14,3.14,3.14,0,0,0-1.92.54,3.4,3.4,0,0,0-1.08,1.4v4.3a3,3,0,0,0,1.14,1.31,3.35,3.35,0,0,0,1.88.49,2.59,2.59,0,0,0,2.23-1,4.52,4.52,0,0,0,.75-2.74Z"/><path class="cls-8" d="M592.21,111.84h-.93l-.13-1.34a2.9,2.9,0,0,0-1.08-.64,4.59,4.59,0,0,0-1.5-.23,2.93,2.93,0,0,0-1.86.5,1.44,1.44,0,0,0-.62,1.16,1.33,1.33,0,0,0,.53,1.09,5.47,5.47,0,0,0,2.14.76,7.29,7.29,0,0,1,2.75,1,2.1,2.1,0,0,1,.91,1.78,2.26,2.26,0,0,1-1,1.92,4.68,4.68,0,0,1-2.75.73,7,7,0,0,1-2.07-.29,5,5,0,0,1-1.62-.83v-1.92h.92l.16,1.36a2.76,2.76,0,0,0,1.15.61,5.84,5.84,0,0,0,1.46.19,3.32,3.32,0,0,0,2-.51,1.45,1.45,0,0,0,.71-1.21,1.51,1.51,0,0,0-.6-1.17,5,5,0,0,0-2.14-.81,7.85,7.85,0,0,1-2.72-1,2,2,0,0,1-.88-1.71,2.23,2.23,0,0,1,1-1.84,4.21,4.21,0,0,1,2.63-.76,6.47,6.47,0,0,1,2.07.32,4.37,4.37,0,0,1,1.52.87Z"/><path class="cls-8" d="M597.1,106.47v2.44h2.26v.86H597.1V116a1.93,1.93,0,0,0,.36,1.32,1.27,1.27,0,0,0,1,.39l.54,0c.17,0,.38,0,.6-.08l.17.79a3.48,3.48,0,0,1-.69.17,5.52,5.52,0,0,1-.81.06,2.22,2.22,0,0,1-1.69-.63,2.83,2.83,0,0,1-.6-2v-6.2h-1.77v-.86H596v-2.44Z"/><path class="cls-8" d="M603.9,108.91l.14,1.58v.12a3.43,3.43,0,0,1,1.19-1.38,3.21,3.21,0,0,1,1.79-.5,3,3,0,0,1,.43,0l.33.07-.15,1-.84,0a2.69,2.69,0,0,0-1.76.56,3.05,3.05,0,0,0-1,1.53v5.68l1.55.12v.77h-4.22v-.77l1.54-.12v-7.72l-1.54-.12v-.78h2.53Z"/><path class="cls-8" d="M616.34,118.42c-.07-.32-.13-.6-.16-.84a5.53,5.53,0,0,1,0-.71,4.48,4.48,0,0,1-1.52,1.24,4.59,4.59,0,0,1-2.14.49,3.44,3.44,0,0,1-2.33-.72,2.46,2.46,0,0,1-.83-1.95,2.37,2.37,0,0,1,1.23-2.09,6.11,6.11,0,0,1,3.32-.77h2.27v-1.26a2,2,0,0,0-.71-1.6,3,3,0,0,0-2-.58,5.45,5.45,0,0,0-1.56.21,3.62,3.62,0,0,0-1.18.59l-.1,1.27h-.94v-1.82a6,6,0,0,1,1.71-.83,6.9,6.9,0,0,1,2.11-.32,4.36,4.36,0,0,1,2.73.8,2.75,2.75,0,0,1,1,2.3v4.67c0,.2,0,.38,0,.56a4.35,4.35,0,0,0,.06.52l1,.07v.77Zm-3.73-.75a4.28,4.28,0,0,0,2.17-.53,3.18,3.18,0,0,0,1.36-1.36v-1.91h-2.29a4.47,4.47,0,0,0-2.47.6,1.73,1.73,0,0,0-.93,1.5,1.51,1.51,0,0,0,.57,1.23A2.41,2.41,0,0,0,612.61,117.67Z"/><path class="cls-8" d="M624.36,117.72a3.42,3.42,0,0,0,2-.6,1.92,1.92,0,0,0,.86-1.66h1l0,.05a2.56,2.56,0,0,1-1.14,2.21,4.45,4.45,0,0,1-2.75.88,4,4,0,0,1-3.23-1.33,5,5,0,0,1-1.15-3.42v-.37a5,5,0,0,1,1.15-3.41,4,4,0,0,1,3.22-1.34,5.5,5.5,0,0,1,2.18.42,4.19,4.19,0,0,1,1.6,1.12l0,2.08h-1l-.18-1.69a3.11,3.11,0,0,0-1.13-.75,4,4,0,0,0-1.55-.28,2.81,2.81,0,0,0-2.44,1.09,4.57,4.57,0,0,0-.79,2.76v.37a4.62,4.62,0,0,0,.79,2.78A2.83,2.83,0,0,0,624.36,117.72Zm.3.78-.11.56a2.27,2.27,0,0,1,1.21.43,1.25,1.25,0,0,1,.46,1.07,1.45,1.45,0,0,1-.75,1.28,4,4,0,0,1-2.14.48l-.07-.68a3.38,3.38,0,0,0,1.43-.27.86.86,0,0,0,.59-.79.72.72,0,0,0-.39-.7,4.1,4.1,0,0,0-1.38-.27l.27-1.11Z"/><path class="cls-8" d="M630.36,113.52a4.85,4.85,0,0,1,1.25-3.44,4.7,4.7,0,0,1,6.59,0,4.85,4.85,0,0,1,1.25,3.44v.29a4.9,4.9,0,0,1-1.24,3.45,4.73,4.73,0,0,1-6.6,0,4.86,4.86,0,0,1-1.25-3.45Zm1.14.29a4.32,4.32,0,0,0,.9,2.78,3.34,3.34,0,0,0,5,0,4.32,4.32,0,0,0,.9-2.78v-.29a4.32,4.32,0,0,0-.91-2.76,3.33,3.33,0,0,0-5,0,4.32,4.32,0,0,0-.9,2.76Zm6.68-8.56a1.72,1.72,0,0,1-.52,1.29,1.79,1.79,0,0,1-1.3.51,2.59,2.59,0,0,1-1.43-.49,2.41,2.41,0,0,0-1.25-.48,1,1,0,0,0-.74.31,1,1,0,0,0-.31.78l-.75-.16a1.74,1.74,0,0,1,1.8-1.78,2.73,2.73,0,0,1,1.4.48,2.69,2.69,0,0,0,1.28.48,1,1,0,0,0,.75-.31,1.09,1.09,0,0,0,.31-.8Z"/><path class="cls-8" d="M645.82,118.6a4.23,4.23,0,0,1-3.2-1.31,4.61,4.61,0,0,1-1.28-3.34v-.49a4.74,4.74,0,0,1,1.27-3.38,4.06,4.06,0,0,1,3.06-1.35,4,4,0,0,1,3,1.11,4,4,0,0,1,1.08,3v.9h-7.25V114a4,4,0,0,0,.93,2.68,3,3,0,0,0,2.42,1.09,5.34,5.34,0,0,0,1.81-.28,3.61,3.61,0,0,0,1.28-.78l.48.72a4,4,0,0,1-1.46.89A6,6,0,0,1,645.82,118.6Zm-.15-9a2.83,2.83,0,0,0-2.11.89,3.68,3.68,0,0,0-1,2.24l0,0h6v-.26a2.94,2.94,0,0,0-.79-2.08A2.83,2.83,0,0,0,645.67,109.63Z"/><path class="cls-8" d="M659.21,111.84h-.93l-.14-1.34a2.78,2.78,0,0,0-1.07-.64,4.63,4.63,0,0,0-1.5-.23,2.93,2.93,0,0,0-1.86.5,1.45,1.45,0,0,0-.63,1.16,1.34,1.34,0,0,0,.54,1.09,5.47,5.47,0,0,0,2.14.76,7.16,7.16,0,0,1,2.74,1,2.08,2.08,0,0,1,.91,1.78,2.25,2.25,0,0,1-1,1.92,4.68,4.68,0,0,1-2.75.73,7.16,7.16,0,0,1-2.08-.29,5,5,0,0,1-1.61-.83v-1.92h.92l.16,1.36a2.76,2.76,0,0,0,1.15.61,5.84,5.84,0,0,0,1.46.19,3.26,3.26,0,0,0,1.94-.51,1.44,1.44,0,0,0,.72-1.21,1.51,1.51,0,0,0-.6-1.17,5,5,0,0,0-2.14-.81,7.77,7.77,0,0,1-2.72-1,2,2,0,0,1-.88-1.71,2.23,2.23,0,0,1,1-1.84,4.21,4.21,0,0,1,2.63-.76,6.51,6.51,0,0,1,2.07.32,4.37,4.37,0,0,1,1.52.87Z"/><path class="cls-8" d="M223,138.65a3.56,3.56,0,0,1-1.32,1.15,4.22,4.22,0,0,1-1.9.4,3.5,3.5,0,0,1-2.88-1.27,5.17,5.17,0,0,1-1-3.4v-.19a5.83,5.83,0,0,1,1-3.64,3.44,3.44,0,0,1,2.9-1.37,3.93,3.93,0,0,1,1.86.42,3.72,3.72,0,0,1,1.31,1.19V127.2l-1.55-.11v-.78h2.69v12.82l1.54.12V140H223Zm-6-3.12a4.52,4.52,0,0,0,.74,2.74,2.61,2.61,0,0,0,2.25,1,3.35,3.35,0,0,0,1.82-.46,3.16,3.16,0,0,0,1.15-1.25v-4.5a3.37,3.37,0,0,0-1.1-1.32,3.15,3.15,0,0,0-1.86-.51,2.52,2.52,0,0,0-2.25,1.14,5.27,5.27,0,0,0-.75,3Z"/><path class="cls-8" d="M231.88,140.2a4.27,4.27,0,0,1-3.21-1.31,4.6,4.6,0,0,1-1.27-3.34v-.49a4.73,4.73,0,0,1,1.26-3.38,4.06,4.06,0,0,1,3.06-1.35,4,4,0,0,1,3,1.11,4,4,0,0,1,1.08,2.95v.9h-7.25v.26a4,4,0,0,0,.92,2.68,3.06,3.06,0,0,0,2.43,1.09,5.08,5.08,0,0,0,1.8-.28,3.53,3.53,0,0,0,1.28-.78l.49.72a4.13,4.13,0,0,1-1.47.89A6,6,0,0,1,231.88,140.2Zm-.16-9a2.85,2.85,0,0,0-2.11.89,3.74,3.74,0,0,0-1,2.24l0,0h6v-.26a2.86,2.86,0,0,0-.79-2.07A2.8,2.8,0,0,0,231.72,131.23Z"/><path class="cls-8" d="M250.08,138.45a3.37,3.37,0,0,1-1.32,1.3,4.13,4.13,0,0,1-2,.45,3.24,3.24,0,0,1-2.54-1,4.62,4.62,0,0,1-.92-3.16v-4.61l-1.27-.12v-.78h2.4V136a3.88,3.88,0,0,0,.64,2.49,2.25,2.25,0,0,0,1.82.76,3.59,3.59,0,0,0,2.06-.53A2.79,2.79,0,0,0,250,137.3v-5.89l-1.46-.12v-.78h2.6v8.62l1.38.12V140h-2.37Z"/><path class="cls-8" d="M254,131.29v-.78h2.56l.1,1.57a3.55,3.55,0,0,1,1.32-1.29,4,4,0,0,1,2-.46,3.49,3.49,0,0,1,2,.53,3,3,0,0,1,1.13,1.63,3.74,3.74,0,0,1,1.32-1.58,3.69,3.69,0,0,1,2.09-.58,3.21,3.21,0,0,1,2.54,1,4.62,4.62,0,0,1,.9,3.13v4.65l1.55.13V140h-4.25v-.77l1.55-.13v-4.66a3.64,3.64,0,0,0-.67-2.49,2.4,2.4,0,0,0-1.86-.72,2.65,2.65,0,0,0-2.05.78,3.65,3.65,0,0,0-.89,2s0,.09,0,.13v5l1.55.12V140h-4.23v-.77l1.55-.12v-4.67a3.65,3.65,0,0,0-.68-2.47,2.44,2.44,0,0,0-1.87-.74,2.74,2.74,0,0,0-2.91,2.09v5.79l1.54.12V140H254v-.77l1.55-.12v-7.72Z"/><path class="cls-8" d="M282.08,140.2a4.27,4.27,0,0,1-3.21-1.31,4.6,4.6,0,0,1-1.27-3.34v-.49a4.73,4.73,0,0,1,1.26-3.38,4.06,4.06,0,0,1,3.06-1.35,4,4,0,0,1,3,1.11,4,4,0,0,1,1.08,2.95v.9h-7.25v.26a4,4,0,0,0,.92,2.68,3.06,3.06,0,0,0,2.43,1.09,5.08,5.08,0,0,0,1.8-.28,3.53,3.53,0,0,0,1.28-.78l.48.72a4,4,0,0,1-1.46.89A6,6,0,0,1,282.08,140.2Zm-.16-9a2.83,2.83,0,0,0-2.11.89,3.74,3.74,0,0,0-1,2.24l0,0h6v-.26a2.9,2.9,0,0,0-.79-2.07A2.8,2.8,0,0,0,281.92,131.23Z"/><path class="cls-8" d="M287.76,131.29v-.78h2.55l.11,1.57a3.55,3.55,0,0,1,1.32-1.29,4,4,0,0,1,2-.46,3.49,3.49,0,0,1,2,.53,3,3,0,0,1,1.13,1.63,3.74,3.74,0,0,1,1.32-1.58,3.69,3.69,0,0,1,2.09-.58,3.21,3.21,0,0,1,2.54,1,4.62,4.62,0,0,1,.9,3.13v4.65l1.55.13V140H301v-.77l1.55-.13v-4.66a3.64,3.64,0,0,0-.67-2.49,2.41,2.41,0,0,0-1.86-.72,2.65,2.65,0,0,0-2.05.78,3.65,3.65,0,0,0-.89,2s0,.09,0,.13v5l1.55.12V140h-4.23v-.77l1.55-.12v-4.67a3.65,3.65,0,0,0-.68-2.47,2.44,2.44,0,0,0-1.87-.74,2.74,2.74,0,0,0-2.91,2.09v5.79l1.54.12V140h-4.23v-.77l1.55-.12v-7.72Z"/><path class="cls-8" d="M318.87,138.45a3.37,3.37,0,0,1-1.32,1.3,4.13,4.13,0,0,1-2,.45,3.24,3.24,0,0,1-2.54-1,4.62,4.62,0,0,1-.91-3.16v-4.61l-1.28-.12v-.78h2.4V136a3.81,3.81,0,0,0,.65,2.49,2.22,2.22,0,0,0,1.81.76,3.59,3.59,0,0,0,2.06-.53,2.81,2.81,0,0,0,1.08-1.46v-5.89l-1.47-.12v-.78H320v8.62l1.38.12V140H319Z"/><path class="cls-8" d="M322.77,131.29v-.78h2.56l.1,1.57a3.55,3.55,0,0,1,1.32-1.29,4.07,4.07,0,0,1,2-.46,3.45,3.45,0,0,1,2,.53,3,3,0,0,1,1.13,1.63,3.55,3.55,0,0,1,3.42-2.16,3.24,3.24,0,0,1,2.54,1,4.68,4.68,0,0,1,.89,3.13v4.65l1.55.13V140H336v-.77l1.54-.13v-4.66a3.7,3.7,0,0,0-.66-2.49,2.43,2.43,0,0,0-1.87-.72,2.65,2.65,0,0,0-2.05.78,3.64,3.64,0,0,0-.88,2v.13a.71.71,0,0,1,0,.16v4.81l1.54.12V140h-4.23v-.77l1.55-.12v-4.67a3.65,3.65,0,0,0-.68-2.47,2.42,2.42,0,0,0-1.87-.74,2.74,2.74,0,0,0-2.91,2.09v5.79l1.55.12V140h-4.24v-.77l1.55-.12v-7.72Z"/><path class="cls-8" d="M346.09,131.29v-.78h2.56l.1,1.57a3.55,3.55,0,0,1,1.32-1.29,4.07,4.07,0,0,1,2-.46,3.45,3.45,0,0,1,2,.53,3,3,0,0,1,1.13,1.63,3.55,3.55,0,0,1,3.42-2.16,3.24,3.24,0,0,1,2.54,1,4.68,4.68,0,0,1,.89,3.13v4.65l1.55.13V140h-4.24v-.77l1.54-.13v-4.66a3.64,3.64,0,0,0-.67-2.49,2.4,2.4,0,0,0-1.86-.72,2.65,2.65,0,0,0-2.05.78,3.64,3.64,0,0,0-.88,2v.13a.71.71,0,0,1,0,.16v4.81l1.54.12V140h-4.23v-.77l1.55-.12v-4.67a3.65,3.65,0,0,0-.68-2.47,2.41,2.41,0,0,0-1.87-.74,2.74,2.74,0,0,0-2.91,2.09v5.79l1.55.12V140h-4.24v-.77l1.55-.12v-7.72Z"/><path class="cls-8" d="M364.86,139.25l1.55-.12v-7.72l-1.55-.12v-.78h2.68v8.62l1.54.12V140h-4.22Zm2.68-11.47h-1.13v-1.47h1.13Z"/><path class="cls-8" d="M370.78,139.25l1.55-.12v-7.72l-1.55-.12v-.78h2.55l.11,1.66a3.48,3.48,0,0,1,1.33-1.36,4,4,0,0,1,2-.48,3.33,3.33,0,0,1,2.55.95,4.24,4.24,0,0,1,.87,2.95v4.9l1.55.12V140h-4.24v-.77l1.55-.12v-4.89a3.3,3.3,0,0,0-.66-2.32,2.5,2.5,0,0,0-1.88-.67,3.12,3.12,0,0,0-1.95.58,3.26,3.26,0,0,0-1.08,1.55v5.75l1.55.12V140h-4.24Z"/><path class="cls-8" d="M391.05,138.45a3.37,3.37,0,0,1-1.32,1.3,4.13,4.13,0,0,1-2,.45,3.24,3.24,0,0,1-2.54-1,4.62,4.62,0,0,1-.91-3.16v-4.61l-1.27-.12v-.78h2.4V136a3.82,3.82,0,0,0,.64,2.49,2.22,2.22,0,0,0,1.81.76,3.59,3.59,0,0,0,2.06-.53A2.81,2.81,0,0,0,391,137.3v-5.89l-1.46-.12v-.78h2.6v8.62l1.37.12V140h-2.37Z"/><path class="cls-8" d="M397.81,128.07v2.44h2.26v.86h-2.26v6.2a1.88,1.88,0,0,0,.37,1.32,1.27,1.27,0,0,0,1,.39l.54,0,.6-.08.17.79a3.48,3.48,0,0,1-.69.17,5.66,5.66,0,0,1-.82.06,2.21,2.21,0,0,1-1.68-.63,2.83,2.83,0,0,1-.61-2v-6.2H394.9v-.86h1.76v-2.44Z"/><path class="cls-8" d="M402,135.12a4.84,4.84,0,0,1,1.24-3.44,4.71,4.71,0,0,1,6.6,0,4.84,4.84,0,0,1,1.24,3.44v.29a4.89,4.89,0,0,1-1.23,3.45,4.75,4.75,0,0,1-6.61,0,4.85,4.85,0,0,1-1.24-3.45Zm1.14.29a4.3,4.3,0,0,0,.9,2.78,3,3,0,0,0,2.52,1.13,3,3,0,0,0,2.48-1.13,4.3,4.3,0,0,0,.9-2.78v-.29a4.32,4.32,0,0,0-.9-2.76,3.33,3.33,0,0,0-5,0,4.32,4.32,0,0,0-.9,2.76Z"/><path class="cls-8" d="M415.41,136.47a4.76,4.76,0,0,1,.21-1.61,4,4,0,0,1,1.08-1.2,12.24,12.24,0,0,0,1.49-1.63,2.87,2.87,0,0,0,.47-1.7,2.29,2.29,0,0,0-.64-1.74,2.56,2.56,0,0,0-1.84-.61,2.65,2.65,0,0,0-1.81.6,2.12,2.12,0,0,0-.69,1.63h-1.05l0-.05a2.75,2.75,0,0,1,1-2.29,4,4,0,0,1,2.59-.83,3.74,3.74,0,0,1,2.66.89,3.1,3.1,0,0,1,1,2.39,3.62,3.62,0,0,1-.63,2.11,10.3,10.3,0,0,1-1.79,1.92,2,2,0,0,0-.71.87,4.31,4.31,0,0,0-.13,1.25Zm1.28,3.55h-1.31v-1.35h1.31Z"/><path class="cls-8" d="M221.39,148.82a5,5,0,0,1,3.36,1,3.69,3.69,0,0,1,0,5.43,5,5,0,0,1-3.36,1h-3.15v4.43l1.55.12v.77h-4.23v-.77l1.55-.12v-11l-1.55-.12v-.78h5.83Zm-3.15,6.58h3.15a3.63,3.63,0,0,0,2.57-.8,2.84,2.84,0,0,0,0-4.07,3.62,3.62,0,0,0-2.57-.81h-3.15Z"/><path class="cls-8" d="M227.79,156.72a4.85,4.85,0,0,1,1.25-3.44,4.7,4.7,0,0,1,6.59,0,4.85,4.85,0,0,1,1.25,3.44V157a4.85,4.85,0,0,1-1.24,3.45,4.73,4.73,0,0,1-6.6,0,4.86,4.86,0,0,1-1.25-3.45Zm1.14.29a4.27,4.27,0,0,0,.91,2.78,3.33,3.33,0,0,0,5,0,4.32,4.32,0,0,0,.9-2.78v-.29a4.27,4.27,0,0,0-.91-2.76,3.32,3.32,0,0,0-5,0,4.27,4.27,0,0,0-.91,2.76Z"/><path class="cls-8" d="M245.87,160.25a3.48,3.48,0,0,1-1.32,1.15,4.19,4.19,0,0,1-1.9.4,3.5,3.5,0,0,1-2.88-1.27,5.23,5.23,0,0,1-1-3.4v-.19a5.89,5.89,0,0,1,1-3.64,3.44,3.44,0,0,1,2.9-1.37,3.93,3.93,0,0,1,1.86.42,3.72,3.72,0,0,1,1.31,1.19V148.8l-1.55-.11v-.78H247v12.82l1.54.12v.77H246Zm-6-3.12a4.59,4.59,0,0,0,.74,2.74,2.61,2.61,0,0,0,2.25,1,3.32,3.32,0,0,0,1.82-.46,3.09,3.09,0,0,0,1.15-1.25v-4.5a3.37,3.37,0,0,0-1.1-1.32,3.11,3.11,0,0,0-1.85-.51,2.54,2.54,0,0,0-2.26,1.14,5.25,5.25,0,0,0-.75,2.95Z"/><path class="cls-8" d="M254.8,161.8a4.27,4.27,0,0,1-3.21-1.31,4.6,4.6,0,0,1-1.27-3.34v-.49a4.7,4.7,0,0,1,1.27-3.38,4,4,0,0,1,3.06-1.35,4,4,0,0,1,3,1.11,4,4,0,0,1,1.08,3v.9h-7.25v.26a4,4,0,0,0,.92,2.68,3.06,3.06,0,0,0,2.43,1.09,5.32,5.32,0,0,0,1.8-.28,3.53,3.53,0,0,0,1.28-.78l.49.72a4.18,4.18,0,0,1-1.46.89A6.07,6.07,0,0,1,254.8,161.8Zm-.15-9a2.85,2.85,0,0,0-2.12.89,3.74,3.74,0,0,0-1,2.24l0,0h6v-.26a2.9,2.9,0,0,0-.79-2.08A2.81,2.81,0,0,0,254.65,152.83Z"/><path class="cls-8" d="M260.48,152.89v-.78H263l.1,1.57a3.55,3.55,0,0,1,1.32-1.29,4.05,4.05,0,0,1,2-.46,3.49,3.49,0,0,1,2,.53,3,3,0,0,1,1.13,1.63,3.55,3.55,0,0,1,3.42-2.16,3.2,3.2,0,0,1,2.53,1,4.62,4.62,0,0,1,.9,3.13v4.65l1.55.13v.77h-4.24v-.77l1.54-.13v-4.66a3.64,3.64,0,0,0-.67-2.49,2.4,2.4,0,0,0-1.86-.72,2.65,2.65,0,0,0-2.05.78,3.64,3.64,0,0,0-.88,2v.14s0,.09,0,.15v4.82l1.54.12v.77h-4.23v-.77l1.55-.12v-4.67a3.65,3.65,0,0,0-.68-2.47,2.42,2.42,0,0,0-1.87-.74,2.74,2.74,0,0,0-2.91,2.09v5.79l1.55.12v.77h-4.24v-.77l1.55-.12V153Z"/><path class="cls-8" d="M279.23,156.72a4.84,4.84,0,0,1,1.24-3.44,4.71,4.71,0,0,1,6.6,0,4.84,4.84,0,0,1,1.24,3.44V157a4.85,4.85,0,0,1-1.24,3.45,4.22,4.22,0,0,1-3.28,1.34,4.3,4.3,0,0,1-3.32-1.34,4.85,4.85,0,0,1-1.24-3.45Zm1.14.29a4.32,4.32,0,0,0,.9,2.78,3,3,0,0,0,2.52,1.13,3,3,0,0,0,2.48-1.13,4.32,4.32,0,0,0,.9-2.78v-.29a4.32,4.32,0,0,0-.9-2.76,3.33,3.33,0,0,0-5,0,4.32,4.32,0,0,0-.9,2.76Z"/><path class="cls-8" d="M297.61,155h-.93l-.13-1.34a2.75,2.75,0,0,0-1.08-.64,4.53,4.53,0,0,0-1.49-.23,3,3,0,0,0-1.87.5,1.47,1.47,0,0,0-.62,1.16,1.34,1.34,0,0,0,.54,1.09,5.47,5.47,0,0,0,2.14.76,7.23,7.23,0,0,1,2.74,1,2.08,2.08,0,0,1,.91,1.78,2.24,2.24,0,0,1-1,1.92,4.65,4.65,0,0,1-2.74.73,7.11,7.11,0,0,1-2.08-.29,5.16,5.16,0,0,1-1.62-.83v-1.92h.92l.17,1.36a2.7,2.7,0,0,0,1.15.61,5.78,5.78,0,0,0,1.46.19,3.26,3.26,0,0,0,1.94-.51,1.43,1.43,0,0,0,.71-1.21,1.53,1.53,0,0,0-.59-1.17,5.11,5.11,0,0,0-2.14-.81,7.77,7.77,0,0,1-2.72-1,2,2,0,0,1-.89-1.71,2.25,2.25,0,0,1,1-1.84,4.19,4.19,0,0,1,2.63-.76,6.4,6.4,0,0,1,2.06.32,4.42,4.42,0,0,1,1.53.87Z"/><path class="cls-8" d="M309.15,161.8a4.25,4.25,0,0,1-3.21-1.31,4.6,4.6,0,0,1-1.27-3.34v-.49a4.73,4.73,0,0,1,1.26-3.38,4.06,4.06,0,0,1,3.06-1.35,4,4,0,0,1,3,1.11,4,4,0,0,1,1.09,3v.9h-7.26v.26a4,4,0,0,0,.93,2.68,3.06,3.06,0,0,0,2.43,1.09,5.32,5.32,0,0,0,1.8-.28,3.53,3.53,0,0,0,1.28-.78l.48.72a4,4,0,0,1-1.46.89A6,6,0,0,1,309.15,161.8Zm-.16-9a2.83,2.83,0,0,0-2.11.89,3.74,3.74,0,0,0-1,2.24l0,0h6v-.26a2.94,2.94,0,0,0-.79-2.08A2.83,2.83,0,0,0,309,152.83Z"/><path class="cls-8" d="M314.87,160.85l1.55-.12V153l-1.55-.12v-.78h2.55l.11,1.66a3.48,3.48,0,0,1,1.33-1.36,3.94,3.94,0,0,1,2-.48,3.29,3.29,0,0,1,2.54.95,4.24,4.24,0,0,1,.87,3v4.9l1.55.12v.77h-4.23v-.77l1.55-.12v-4.89a3.3,3.3,0,0,0-.66-2.32,2.51,2.51,0,0,0-1.88-.67,3.08,3.08,0,0,0-1.95.58,3.35,3.35,0,0,0-1.09,1.55v5.75l1.55.12v.77h-4.23Z"/><path class="cls-8" d="M330.21,149.67v2.44h2.26V153h-2.26v6.2a1.93,1.93,0,0,0,.36,1.32,1.28,1.28,0,0,0,1,.39l.54,0c.17,0,.38,0,.6-.08l.17.79a3.48,3.48,0,0,1-.69.17,5.52,5.52,0,0,1-.81.06,2.22,2.22,0,0,1-1.69-.63,2.83,2.83,0,0,1-.6-2V153h-1.77v-.86h1.77v-2.44Z"/><path class="cls-8" d="M341.64,161.62c-.07-.32-.13-.6-.16-.84a5.52,5.52,0,0,1-.05-.71,4.34,4.34,0,0,1-1.51,1.24,4.59,4.59,0,0,1-2.14.49,3.42,3.42,0,0,1-2.33-.72,2.46,2.46,0,0,1-.83-2,2.38,2.38,0,0,1,1.22-2.09,6.17,6.17,0,0,1,3.33-.77h2.26V155a2,2,0,0,0-.7-1.6,3,3,0,0,0-2-.58,5.45,5.45,0,0,0-1.56.21,3.62,3.62,0,0,0-1.18.59l-.1,1.27H335v-1.82a6,6,0,0,1,1.7-.83,7,7,0,0,1,2.12-.32,4.36,4.36,0,0,1,2.73.8,2.74,2.74,0,0,1,1,2.3v4.67c0,.2,0,.38,0,.56a4.35,4.35,0,0,0,.06.52l1,.07v.77Zm.41-13.18a1.72,1.72,0,0,1-.52,1.29,1.79,1.79,0,0,1-1.3.51,2.52,2.52,0,0,1-1.43-.49,2.44,2.44,0,0,0-1.25-.48,1,1,0,0,0-.75.31,1.06,1.06,0,0,0-.3.78l-.75-.16a1.74,1.74,0,0,1,1.8-1.78,2.76,2.76,0,0,1,1.4.48,2.65,2.65,0,0,0,1.28.48,1,1,0,0,0,.75-.31,1.09,1.09,0,0,0,.31-.8Zm-4.15,12.43a4.29,4.29,0,0,0,2.18-.53,3.16,3.16,0,0,0,1.35-1.36v-1.91h-2.28a4.53,4.53,0,0,0-2.48.6,1.74,1.74,0,0,0-.92,1.5,1.51,1.51,0,0,0,.57,1.23A2.4,2.4,0,0,0,337.9,160.87Z"/><path class="cls-8" d="M345.28,156.72a4.84,4.84,0,0,1,1.24-3.44,4.71,4.71,0,0,1,6.6,0,4.84,4.84,0,0,1,1.24,3.44V157a4.85,4.85,0,0,1-1.24,3.45,4.23,4.23,0,0,1-3.29,1.34,4.27,4.27,0,0,1-3.31-1.34,4.85,4.85,0,0,1-1.24-3.45Zm1.14.29a4.32,4.32,0,0,0,.9,2.78,3.33,3.33,0,0,0,5,0,4.32,4.32,0,0,0,.9-2.78v-.29a4.32,4.32,0,0,0-.9-2.76,3.33,3.33,0,0,0-5,0,4.32,4.32,0,0,0-.9,2.76Z"/><path class="cls-8" d="M368.39,155h-.93l-.13-1.34a2.9,2.9,0,0,0-1.08-.64,4.55,4.55,0,0,0-1.5-.23,3,3,0,0,0-1.86.5,1.47,1.47,0,0,0-.62,1.16,1.36,1.36,0,0,0,.53,1.09,5.47,5.47,0,0,0,2.14.76,7.22,7.22,0,0,1,2.75,1,2.1,2.1,0,0,1,.91,1.78,2.26,2.26,0,0,1-1,1.92,4.66,4.66,0,0,1-2.75.73,7,7,0,0,1-2.07-.29,5.06,5.06,0,0,1-1.62-.83v-1.92H362l.16,1.36a2.76,2.76,0,0,0,1.15.61,5.9,5.9,0,0,0,1.46.19,3.32,3.32,0,0,0,1.95-.51,1.45,1.45,0,0,0,.71-1.21,1.53,1.53,0,0,0-.59-1.17,5.11,5.11,0,0,0-2.14-.81,7.69,7.69,0,0,1-2.72-1,2,2,0,0,1-.89-1.71,2.22,2.22,0,0,1,1-1.84,4.18,4.18,0,0,1,2.62-.76,6.42,6.42,0,0,1,2.07.32,4.37,4.37,0,0,1,1.52.87Z"/><path class="cls-8" d="M370.59,160.85l1.55-.12V153l-1.55-.12v-.78h2.68v8.62l1.55.12v.77h-4.23Zm2.68-11.47h-1.13v-1.47h1.13Z"/><path class="cls-8" d="M376.48,152.89v-.78H379l.1,1.57a3.55,3.55,0,0,1,1.32-1.29,4.07,4.07,0,0,1,2-.46,3.45,3.45,0,0,1,2,.53,3,3,0,0,1,1.13,1.63,3.58,3.58,0,0,1,3.42-2.16,3.24,3.24,0,0,1,2.54,1,4.62,4.62,0,0,1,.9,3.13v4.65l1.54.13v.77h-4.24v-.77l1.55-.13v-4.66a3.69,3.69,0,0,0-.67-2.49,2.43,2.43,0,0,0-1.87-.72,2.62,2.62,0,0,0-2,.78,3.58,3.58,0,0,0-.89,2v.14a.66.66,0,0,1,0,.15v4.82l1.55.12v.77h-4.24v-.77l1.55-.12v-4.67a3.65,3.65,0,0,0-.68-2.47,2.4,2.4,0,0,0-1.86-.74,3.08,3.08,0,0,0-1.93.56,3,3,0,0,0-1,1.53v5.79l1.55.12v.77h-4.23v-.77l1.54-.12V153Z"/><path class="cls-8" d="M395,152.89v-.78h2.5l.14,1.48a3.59,3.59,0,0,1,1.34-1.23,4.07,4.07,0,0,1,1.9-.43,3.43,3.43,0,0,1,2.89,1.37,5.83,5.83,0,0,1,1.05,3.64v.19a5.16,5.16,0,0,1-1.05,3.4,3.49,3.49,0,0,1-2.87,1.27,4.36,4.36,0,0,1-1.9-.38,3.41,3.41,0,0,1-1.32-1.08v4l1.55.11v.79H395v-.79l1.55-.11V153Zm8.68,4.05a5.14,5.14,0,0,0-.78-2.95,2.59,2.59,0,0,0-2.28-1.14,3.2,3.2,0,0,0-1.86.5,3.16,3.16,0,0,0-1.08,1.32v4.57a3,3,0,0,0,1.12,1.23,3.48,3.48,0,0,0,1.84.45,2.64,2.64,0,0,0,2.26-1,4.46,4.46,0,0,0,.78-2.75Z"/><path class="cls-8" d="M406.36,148.69v-.78H409v12.82l1.55.12v.77h-4.22v-.77l1.54-.12V148.8Z"/><path class="cls-8" d="M412.3,160.85l1.54-.12V153l-1.54-.12v-.78H415v8.62l1.55.12v.77H412.3ZM415,149.38h-1.13v-1.47H415Z"/><path class="cls-8" d="M418.22,160.85l1.55-.12V153h-1.7v-.86h1.7V150.9a3,3,0,0,1,.9-2.35,3.62,3.62,0,0,1,2.51-.83,6.44,6.44,0,0,1,1.29.14,7.53,7.53,0,0,1,1.32.38l-.18.91a8.46,8.46,0,0,0-1.12-.35,5.79,5.79,0,0,0-1.24-.12,2.44,2.44,0,0,0-1.75.57,2.16,2.16,0,0,0-.59,1.65v1.21h5.89v8.62l1.55.12v.77h-4.23v-.77l1.55-.12V153h-4.76v7.76l1.54.12v.77h-4.23Z"/><path class="cls-8" d="M434.29,160.92a3.39,3.39,0,0,0,2-.6,1.9,1.9,0,0,0,.87-1.66h1l0,.05a2.58,2.58,0,0,1-1.13,2.21,4.47,4.47,0,0,1-2.75.88,4.05,4.05,0,0,1-3.24-1.33,5.09,5.09,0,0,1-1.15-3.42v-.37a5.08,5.08,0,0,1,1.15-3.41,4,4,0,0,1,3.23-1.34,5.49,5.49,0,0,1,2.17.42,4.23,4.23,0,0,1,1.61,1.12l0,2.08h-1l-.18-1.69a3.24,3.24,0,0,0-1.14-.75,3.92,3.92,0,0,0-1.54-.28,2.82,2.82,0,0,0-2.44,1.09,4.58,4.58,0,0,0-.8,2.76v.37a4.69,4.69,0,0,0,.79,2.78A2.85,2.85,0,0,0,434.29,160.92Z"/><path class="cls-8" d="M447.38,161.62a7.1,7.1,0,0,1-.16-.84,4.17,4.17,0,0,1-.05-.71,4.48,4.48,0,0,1-1.52,1.24,4.53,4.53,0,0,1-2.14.49,3.44,3.44,0,0,1-2.33-.72,2.46,2.46,0,0,1-.83-2,2.37,2.37,0,0,1,1.23-2.09,6.11,6.11,0,0,1,3.32-.77h2.27V155a2,2,0,0,0-.71-1.6,3,3,0,0,0-2-.58,5.45,5.45,0,0,0-1.56.21,3.73,3.73,0,0,0-1.18.59l-.09,1.27h-.95v-1.82a6.18,6.18,0,0,1,1.71-.83,6.9,6.9,0,0,1,2.11-.32,4.36,4.36,0,0,1,2.73.8,2.75,2.75,0,0,1,1,2.3v4.67c0,.2,0,.38,0,.56a4.35,4.35,0,0,0,.06.52l1,.07v.77Zm-3.74-.75a4.26,4.26,0,0,0,2.17-.53,3.18,3.18,0,0,0,1.36-1.36v-1.91h-2.29a4.49,4.49,0,0,0-2.47.6,1.73,1.73,0,0,0-.93,1.5,1.49,1.49,0,0,0,.58,1.23A2.38,2.38,0,0,0,443.64,160.87Z"/><path class="cls-8" d="M453.47,152.11l.14,1.58v.12a3.43,3.43,0,0,1,1.19-1.38,3.21,3.21,0,0,1,1.79-.5,3,3,0,0,1,.43,0l.33.07-.15,1-.84,0a2.69,2.69,0,0,0-1.76.56,3.05,3.05,0,0,0-1,1.53v5.68l1.55.12v.77h-4.22v-.77l1.54-.12V153l-1.54-.12v-.78h2.53Z"/><path class="cls-8" d="M468.08,161.8a4.27,4.27,0,0,1-3.21-1.31,4.6,4.6,0,0,1-1.27-3.34v-.49a4.7,4.7,0,0,1,1.27-3.38,4,4,0,0,1,3.06-1.35,4,4,0,0,1,3,1.11,4,4,0,0,1,1.08,3v.9h-7.25v.26a4,4,0,0,0,.92,2.68,3.06,3.06,0,0,0,2.43,1.09,5.32,5.32,0,0,0,1.8-.28,3.53,3.53,0,0,0,1.28-.78l.49.72a4.13,4.13,0,0,1-1.47.89A6,6,0,0,1,468.08,161.8Zm-.15-9a2.85,2.85,0,0,0-2.12.89,3.74,3.74,0,0,0-1,2.24l0,0h6v-.26a2.9,2.9,0,0,0-.79-2.08A2.81,2.81,0,0,0,467.93,152.83Z"/><path class="cls-8" d="M481.46,155h-.93l-.13-1.34a2.9,2.9,0,0,0-1.08-.64,4.53,4.53,0,0,0-1.49-.23,3,3,0,0,0-1.87.5,1.47,1.47,0,0,0-.62,1.16,1.36,1.36,0,0,0,.53,1.09,5.53,5.53,0,0,0,2.14.76,7.22,7.22,0,0,1,2.75,1,2.08,2.08,0,0,1,.91,1.78,2.26,2.26,0,0,1-1,1.92,4.66,4.66,0,0,1-2.75.73,7,7,0,0,1-2.07-.29,5.06,5.06,0,0,1-1.62-.83v-1.92h.92l.16,1.36a2.82,2.82,0,0,0,1.15.61,5.9,5.9,0,0,0,1.46.19,3.32,3.32,0,0,0,1.95-.51,1.45,1.45,0,0,0,.71-1.21A1.53,1.53,0,0,0,480,158a5.11,5.11,0,0,0-2.14-.81,7.69,7.69,0,0,1-2.72-1,2,2,0,0,1-.89-1.71,2.22,2.22,0,0,1,1-1.84,4.19,4.19,0,0,1,2.63-.76,6.4,6.4,0,0,1,2.06.32,4.37,4.37,0,0,1,1.52.87Z"/><path class="cls-8" d="M491.19,155h-.93l-.13-1.34a2.9,2.9,0,0,0-1.08-.64,4.55,4.55,0,0,0-1.5-.23,2.93,2.93,0,0,0-1.86.5,1.44,1.44,0,0,0-.62,1.16,1.33,1.33,0,0,0,.53,1.09,5.47,5.47,0,0,0,2.14.76,7.29,7.29,0,0,1,2.75,1,2.1,2.1,0,0,1,.91,1.78,2.26,2.26,0,0,1-1,1.92,4.68,4.68,0,0,1-2.75.73,7,7,0,0,1-2.07-.29,5,5,0,0,1-1.62-.83v-1.92h.92l.16,1.36a2.76,2.76,0,0,0,1.15.61,5.84,5.84,0,0,0,1.46.19,3.32,3.32,0,0,0,1.95-.51,1.45,1.45,0,0,0,.71-1.21,1.51,1.51,0,0,0-.6-1.17,5,5,0,0,0-2.14-.81,7.71,7.71,0,0,1-2.71-1,2,2,0,0,1-.89-1.71,2.23,2.23,0,0,1,1-1.84,4.21,4.21,0,0,1,2.63-.76,6.47,6.47,0,0,1,2.07.32,4.37,4.37,0,0,1,1.52.87Z"/><path class="cls-8" d="M498,161.8a4.23,4.23,0,0,1-3.2-1.31,4.61,4.61,0,0,1-1.28-3.34v-.49a4.74,4.74,0,0,1,1.27-3.38,4.06,4.06,0,0,1,3.06-1.35,4,4,0,0,1,3,1.11,4,4,0,0,1,1.08,3v.9h-7.25v.26a4,4,0,0,0,.93,2.68,3,3,0,0,0,2.42,1.09,5.34,5.34,0,0,0,1.81-.28,3.61,3.61,0,0,0,1.28-.78l.48.72a4,4,0,0,1-1.46.89A6,6,0,0,1,498,161.8Zm-.15-9a2.83,2.83,0,0,0-2.11.89,3.68,3.68,0,0,0-1,2.24l0,0h6v-.26a2.94,2.94,0,0,0-.79-2.08A2.83,2.83,0,0,0,497.84,152.83Z"/><path class="cls-8" d="M515.74,161.62c-.07-.32-.13-.6-.16-.84a5.52,5.52,0,0,1-.05-.71,4.38,4.38,0,0,1-1.52,1.24,4.52,4.52,0,0,1-2.13.49,3.45,3.45,0,0,1-2.34-.72,2.45,2.45,0,0,1-.82-2,2.38,2.38,0,0,1,1.22-2.09,6.16,6.16,0,0,1,3.32-.77h2.27V155a2,2,0,0,0-.7-1.6,3,3,0,0,0-2-.58,5.45,5.45,0,0,0-1.56.21,3.68,3.68,0,0,0-1.19.59L510,154.9h-.94v-1.82a6,6,0,0,1,1.7-.83,7,7,0,0,1,2.11-.32,4.37,4.37,0,0,1,2.74.8,2.74,2.74,0,0,1,1,2.3v4.67c0,.2,0,.38,0,.56a4.35,4.35,0,0,0,.06.52l1,.07v.77Zm-3.74-.75a4.29,4.29,0,0,0,2.18-.53,3.21,3.21,0,0,0,1.35-1.36v-1.91h-2.28a4.51,4.51,0,0,0-2.48.6,1.74,1.74,0,0,0-.92,1.5,1.51,1.51,0,0,0,.57,1.23A2.38,2.38,0,0,0,512,160.87Z"/><path class="cls-8" d="M519.15,148.69v-.78h2.68v12.82l1.54.12v.77h-4.22v-.77l1.55-.12V148.8Z"/><path class="cls-8" d="M525.12,156.94a5.83,5.83,0,0,1,1-3.64,3.47,3.47,0,0,1,2.91-1.37,3.8,3.8,0,0,1,1.89.45,3.51,3.51,0,0,1,1.32,1.25l.14-1.52h1v9.39a3.89,3.89,0,0,1-1.08,2.9,4,4,0,0,1-3,1.06,8.27,8.27,0,0,1-1.58-.17,6.61,6.61,0,0,1-1.46-.45l.3-.89a6.82,6.82,0,0,0,1.3.42,6.57,6.57,0,0,0,1.42.15,2.89,2.89,0,0,0,2.21-.8,3.15,3.15,0,0,0,.74-2.22v-1.21a3.48,3.48,0,0,1-1.32,1.12,4.22,4.22,0,0,1-1.87.39,3.54,3.54,0,0,1-2.9-1.27,5.23,5.23,0,0,1-1-3.4Zm1.14.19a4.51,4.51,0,0,0,.75,2.73,2.62,2.62,0,0,0,2.26,1,3.37,3.37,0,0,0,1.84-.47,3.08,3.08,0,0,0,1.14-1.28v-4.41a3.48,3.48,0,0,0-1.09-1.36,3.09,3.09,0,0,0-1.87-.52A2.56,2.56,0,0,0,527,154a5.21,5.21,0,0,0-.76,2.95Z"/><path class="cls-8" d="M536,156.72a4.84,4.84,0,0,1,1.24-3.44,4.71,4.71,0,0,1,6.6,0,4.84,4.84,0,0,1,1.24,3.44V157a4.85,4.85,0,0,1-1.24,3.45,4.23,4.23,0,0,1-3.29,1.34,4.27,4.27,0,0,1-3.31-1.34A4.85,4.85,0,0,1,536,157Zm1.14.29a4.32,4.32,0,0,0,.9,2.78,3.33,3.33,0,0,0,5,0,4.32,4.32,0,0,0,.9-2.78v-.29A4.27,4.27,0,0,0,543,154a3.32,3.32,0,0,0-5,0,4.32,4.32,0,0,0-.9,2.76Z"/><path class="cls-8" d="M549.36,152.11l.14,1.58v.12a3.43,3.43,0,0,1,1.19-1.38,3.21,3.21,0,0,1,1.79-.5,2.77,2.77,0,0,1,.42,0l.34.07-.15,1-.85,0a2.73,2.73,0,0,0-1.76.56,3.11,3.11,0,0,0-1,1.53v5.68l1.55.12v.77h-4.22v-.77l1.54-.12V153l-1.54-.12v-.78h2.53Z"/><path class="cls-8" d="M554.64,160.85l1.54-.12V153l-1.54-.12v-.78h2.67v8.62l1.55.12v.77h-4.22Zm2.67-11.47h-1.13v-1.47h1.13Z"/><path class="cls-8" d="M563.38,149.67v2.44h2.26V153h-2.26v6.2a1.93,1.93,0,0,0,.36,1.32,1.29,1.29,0,0,0,1,.39l.53,0,.61-.08.17.79a3.42,3.42,0,0,1-.7.17,5.52,5.52,0,0,1-.81.06,2.23,2.23,0,0,1-1.69-.63,2.83,2.83,0,0,1-.6-2V153h-1.77v-.86h1.77v-2.44Z"/><path class="cls-8" d="M567.48,152.89v-.78H570l.11,1.57a3.52,3.52,0,0,1,1.31-1.29,4.1,4.1,0,0,1,2-.46,3.45,3.45,0,0,1,2,.53,2.9,2.9,0,0,1,1.13,1.63,3.76,3.76,0,0,1,1.33-1.58,3.69,3.69,0,0,1,2.09-.58,3.23,3.23,0,0,1,2.54,1,4.62,4.62,0,0,1,.9,3.13v4.65l1.54.13v.77h-4.24v-.77l1.55-.13v-4.66a3.69,3.69,0,0,0-.67-2.49,2.43,2.43,0,0,0-1.87-.72,2.64,2.64,0,0,0-2,.78,3.65,3.65,0,0,0-.89,2,.61.61,0,0,0,0,.14v5l1.55.12v.77h-4.23v-.77l1.54-.12v-4.67a3.59,3.59,0,0,0-.68-2.47,2.4,2.4,0,0,0-1.86-.74,3,3,0,0,0-1.92.56,3,3,0,0,0-1,1.53v5.79l1.55.12v.77h-4.23v-.77l1.55-.12V153Z"/><path class="cls-8" d="M586.22,156.72a4.85,4.85,0,0,1,1.25-3.44,4.7,4.7,0,0,1,6.59,0,4.85,4.85,0,0,1,1.25,3.44V157a4.9,4.9,0,0,1-1.24,3.45,4.73,4.73,0,0,1-6.6,0,4.86,4.86,0,0,1-1.25-3.45Zm1.14.29a4.32,4.32,0,0,0,.9,2.78,3.06,3.06,0,0,0,2.52,1.13,3,3,0,0,0,2.49-1.13,4.32,4.32,0,0,0,.9-2.78v-.29a4.27,4.27,0,0,0-.91-2.76,3.33,3.33,0,0,0-5,0,4.32,4.32,0,0,0-.9,2.76Z"/><path class="cls-8" d="M215.73,182.45l1.55-.12v-7.72l-1.55-.12v-.78h2.68v8.62l1.55.12v.77h-4.23ZM218.41,171h-1.13v-1.48h1.13Z"/><path class="cls-8" d="M221.65,182.45l1.55-.12v-7.72l-1.55-.12v-.78h2.56l.1,1.66a3.5,3.5,0,0,1,1.34-1.36,3.9,3.9,0,0,1,2-.48,3.3,3.3,0,0,1,2.55.95,4.24,4.24,0,0,1,.87,3v4.9l1.55.12v.77h-4.23v-.77l1.54-.12v-4.89a3.3,3.3,0,0,0-.66-2.32,2.49,2.49,0,0,0-1.87-.67,3.08,3.08,0,0,0-1.95.58,3.21,3.21,0,0,0-1.09,1.55v5.75l1.55.12v.77h-4.24Z"/><path class="cls-8" d="M237,171.28v2.43h2.26v.86H237v6.2a1.88,1.88,0,0,0,.37,1.32,1.27,1.27,0,0,0,1,.39l.54,0a5.57,5.57,0,0,0,.6-.08l.17.79a3.48,3.48,0,0,1-.69.17,5.66,5.66,0,0,1-.82.06,2.21,2.21,0,0,1-1.68-.63,2.78,2.78,0,0,1-.61-2v-6.2h-1.76v-.86h1.76v-2.43Z"/><path class="cls-8" d="M243.8,173.71l.14,1.58v.12a3.43,3.43,0,0,1,1.19-1.38,3.19,3.19,0,0,1,1.79-.5,1.87,1.87,0,0,1,.42,0l.34.06-.15,1-.85-.05a2.73,2.73,0,0,0-1.76.56,3,3,0,0,0-1,1.53v5.68l1.55.12v.77h-4.23v-.77l1.55-.12v-7.72l-1.55-.12v-.78h2.54Z"/><path class="cls-8" d="M249,178.32a4.86,4.86,0,0,1,1.24-3.44,4.71,4.71,0,0,1,6.6,0,4.86,4.86,0,0,1,1.24,3.44v.29a4.85,4.85,0,0,1-1.24,3.45,4.22,4.22,0,0,1-3.28,1.34,4.3,4.3,0,0,1-3.32-1.34,4.85,4.85,0,0,1-1.24-3.45Zm1.14.29a4.3,4.3,0,0,0,.9,2.78,3,3,0,0,0,2.52,1.13,3,3,0,0,0,2.48-1.13,4.3,4.3,0,0,0,.9-2.78v-.29a4.32,4.32,0,0,0-.9-2.76,3.33,3.33,0,0,0-5,0,4.32,4.32,0,0,0-.9,2.76Z"/><path class="cls-8" d="M267,181.85a3.41,3.41,0,0,1-1.32,1.15,4.19,4.19,0,0,1-1.9.4,3.53,3.53,0,0,1-2.88-1.27,5.23,5.23,0,0,1-1-3.4v-.19a5.89,5.89,0,0,1,1-3.64,3.45,3.45,0,0,1,2.9-1.37,3.87,3.87,0,0,1,1.86.42,3.56,3.56,0,0,1,1.31,1.19V170.4l-1.54-.11v-.78h2.68v12.82l1.55.12v.77h-2.56Zm-6-3.12a4.52,4.52,0,0,0,.75,2.74,2.59,2.59,0,0,0,2.24,1,3.36,3.36,0,0,0,1.83-.46,3.06,3.06,0,0,0,1.14-1.25v-4.5a3.34,3.34,0,0,0-1.09-1.32,3.15,3.15,0,0,0-1.86-.51,2.51,2.51,0,0,0-2.25,1.14,5.19,5.19,0,0,0-.76,2.95Z"/><path class="cls-8" d="M279,181.65a3.37,3.37,0,0,1-1.32,1.3,4.13,4.13,0,0,1-2,.45,3.24,3.24,0,0,1-2.54-1,4.62,4.62,0,0,1-.92-3.16v-4.61l-1.27-.12v-.78h2.4v5.53a3.88,3.88,0,0,0,.64,2.49,2.25,2.25,0,0,0,1.82.76,3.59,3.59,0,0,0,2.06-.53,2.79,2.79,0,0,0,1.07-1.46v-5.89l-1.46-.12v-.78h2.6v8.62l1.38.12v.77h-2.37Z"/><path class="cls-8" d="M284.7,182.33h5.59l.08-1.8h1v2.69h-8.08v-.77l6.19-7.84h-5.07l-.08,1.8h-1v-2.7h7.59v.78Z"/><path class="cls-8" d="M293.3,182.45l1.55-.12v-7.72l-1.55-.12v-.78H296v8.62l1.55.12v.77H293.3ZM296,171h-1.13v-1.48H296Z"/><path class="cls-8" d="M299.23,182.45l1.54-.12v-7.72l-1.54-.12v-.78h2.55l.1,1.66a3.5,3.5,0,0,1,1.34-1.36,3.94,3.94,0,0,1,2-.48,3.29,3.29,0,0,1,2.54.95,4.24,4.24,0,0,1,.87,3v4.9l1.55.12v.77h-4.23v-.77l1.54-.12v-4.89a3.3,3.3,0,0,0-.66-2.32,2.49,2.49,0,0,0-1.87-.67A3.08,3.08,0,0,0,303,175a3.28,3.28,0,0,0-1.09,1.55v5.75l1.55.12v.77h-4.23Z"/><path class="cls-8" d="M319,181.85a3.48,3.48,0,0,1-1.32,1.15,4.19,4.19,0,0,1-1.9.4,3.5,3.5,0,0,1-2.88-1.27,5.23,5.23,0,0,1-1-3.4v-.19a5.89,5.89,0,0,1,1-3.64,3.44,3.44,0,0,1,2.9-1.37,3.93,3.93,0,0,1,1.86.42,3.72,3.72,0,0,1,1.31,1.19V170.4l-1.55-.11v-.78h2.69v12.82l1.54.12v.77h-2.56Zm-6-3.12a4.59,4.59,0,0,0,.74,2.74,2.61,2.61,0,0,0,2.25,1,3.32,3.32,0,0,0,1.82-.46,3.09,3.09,0,0,0,1.15-1.25v-4.5a3.37,3.37,0,0,0-1.1-1.32,3.11,3.11,0,0,0-1.85-.51,2.54,2.54,0,0,0-2.26,1.14,5.27,5.27,0,0,0-.75,2.95Z"/><path class="cls-8" d="M323.4,178.32a4.91,4.91,0,0,1,1.24-3.44,4.71,4.71,0,0,1,6.6,0,4.86,4.86,0,0,1,1.24,3.44v.29a4.85,4.85,0,0,1-1.24,3.45A4.22,4.22,0,0,1,328,183.4a4.3,4.3,0,0,1-3.32-1.34,4.9,4.9,0,0,1-1.24-3.45Zm1.14.29a4.3,4.3,0,0,0,.9,2.78,3,3,0,0,0,2.52,1.13,3,3,0,0,0,2.48-1.13,4.3,4.3,0,0,0,.9-2.78v-.29a4.32,4.32,0,0,0-.9-2.76,3.33,3.33,0,0,0-5,0,4.32,4.32,0,0,0-.9,2.76Z"/><path class="cls-8" d="M346.15,183.22c-.07-.32-.13-.6-.16-.84a5.52,5.52,0,0,1-.05-.71,4.38,4.38,0,0,1-1.52,1.24,4.52,4.52,0,0,1-2.13.49,3.45,3.45,0,0,1-2.34-.72,2.45,2.45,0,0,1-.82-2,2.38,2.38,0,0,1,1.22-2.09,6.16,6.16,0,0,1,3.32-.77h2.27v-1.26a2,2,0,0,0-.7-1.6,3.05,3.05,0,0,0-2-.58,5.11,5.11,0,0,0-1.56.22,3.48,3.48,0,0,0-1.19.58l-.09,1.27h-.94v-1.82a6,6,0,0,1,1.7-.83,7,7,0,0,1,2.11-.32,4.37,4.37,0,0,1,2.74.8,2.74,2.74,0,0,1,1,2.3v4.67c0,.2,0,.38,0,.56a4.35,4.35,0,0,0,.06.52l1,.07v.77Zm-3.74-.75a4.36,4.36,0,0,0,2.17-.52,3.26,3.26,0,0,0,1.36-1.37v-1.9h-2.28a4.51,4.51,0,0,0-2.48.59,1.74,1.74,0,0,0-.92,1.5,1.51,1.51,0,0,0,.57,1.23A2.38,2.38,0,0,0,342.41,182.47Z"/><path class="cls-8" d="M359,183.4a4.27,4.27,0,0,1-3.21-1.31,4.6,4.6,0,0,1-1.27-3.34v-.49a4.72,4.72,0,0,1,1.27-3.38,4,4,0,0,1,3.06-1.35,4,4,0,0,1,3,1.11,4,4,0,0,1,1.08,3v.9h-7.25v.26a4,4,0,0,0,.93,2.68,3,3,0,0,0,2.42,1.09,5.08,5.08,0,0,0,1.8-.28,3.53,3.53,0,0,0,1.28-.78l.49.72a4.09,4.09,0,0,1-1.46.89A6,6,0,0,1,359,183.4Zm-.15-9a2.82,2.82,0,0,0-2.11.89,3.63,3.63,0,0,0-1,2.24v0h6v-.26a2.86,2.86,0,0,0-.79-2.07A2.76,2.76,0,0,0,358.89,174.43Z"/><path class="cls-8" d="M364.74,182.45l1.15-.1,3.25-4-3.1-3.79-1.15-.1v-.78h3.48v.78l-1.06,0,2.45,3.05,2.45-3.05-1,0v-.78h3.48v.78l-1.15.1-3.09,3.79,3.24,4,1.16.1v.77h-3.48v-.77l1.06,0-2.61-3.23-2.61,3.23,1.06,0v.77h-3.48Z"/><path class="cls-8" d="M376,174.49v-.78h2.5l.14,1.48A3.64,3.64,0,0,1,380,174a4.11,4.11,0,0,1,1.91-.43,3.43,3.43,0,0,1,2.89,1.37,5.83,5.83,0,0,1,1.05,3.64v.19a5.16,5.16,0,0,1-1.05,3.4,3.49,3.49,0,0,1-2.87,1.27A4.36,4.36,0,0,1,380,183a3.41,3.41,0,0,1-1.32-1.08v4l1.55.11v.79H376v-.79l1.55-.11V174.61Zm8.68,4a5.14,5.14,0,0,0-.78-2.95,2.59,2.59,0,0,0-2.28-1.14,3,3,0,0,0-2.94,1.82v4.57a3,3,0,0,0,1.12,1.23,3.48,3.48,0,0,0,1.84.45,2.64,2.64,0,0,0,2.26-1,4.46,4.46,0,0,0,.78-2.75Z"/><path class="cls-8" d="M390.11,173.71l.14,1.58v.12a3.43,3.43,0,0,1,1.19-1.38,3.19,3.19,0,0,1,1.79-.5,2,2,0,0,1,.42,0l.34.06-.15,1-.85-.05a2.73,2.73,0,0,0-1.76.56,3,3,0,0,0-1,1.53v5.68l1.54.12v.77h-4.22v-.77l1.55-.12v-7.72l-1.55-.12v-.78h2.54Z"/><path class="cls-8" d="M399.81,183.4a4.27,4.27,0,0,1-3.21-1.31,4.6,4.6,0,0,1-1.27-3.34v-.49a4.75,4.75,0,0,1,1.26-3.38,4.06,4.06,0,0,1,3.06-1.35,4,4,0,0,1,3,1.11,4,4,0,0,1,1.09,3v.9h-7.25v.26a4,4,0,0,0,.92,2.68,3.06,3.06,0,0,0,2.43,1.09,5.08,5.08,0,0,0,1.8-.28,3.53,3.53,0,0,0,1.28-.78l.48.72a4,4,0,0,1-1.46.89A6,6,0,0,1,399.81,183.4Zm-.16-9a2.85,2.85,0,0,0-2.11.89,3.74,3.74,0,0,0-1,2.24l0,0h6v-.26a2.86,2.86,0,0,0-.79-2.07A2.8,2.8,0,0,0,399.65,174.43Z"/><path class="cls-8" d="M413.19,176.65h-.93l-.13-1.35a3,3,0,0,0-1.08-.64,4.55,4.55,0,0,0-1.5-.23,2.93,2.93,0,0,0-1.86.5,1.44,1.44,0,0,0-.62,1.16,1.33,1.33,0,0,0,.53,1.09,5.47,5.47,0,0,0,2.14.76,7.29,7.29,0,0,1,2.75,1,2.1,2.1,0,0,1,.91,1.78,2.26,2.26,0,0,1-1,1.92,4.68,4.68,0,0,1-2.75.73,6.73,6.73,0,0,1-2.07-.29,5,5,0,0,1-1.62-.83v-1.92h.92l.16,1.36a2.76,2.76,0,0,0,1.15.61,5.84,5.84,0,0,0,1.46.19,3.39,3.39,0,0,0,1.95-.5,1.48,1.48,0,0,0,.71-1.22,1.51,1.51,0,0,0-.6-1.17,5,5,0,0,0-2.14-.81,7.71,7.71,0,0,1-2.71-1,2,2,0,0,1-.89-1.71,2.23,2.23,0,0,1,1-1.84,4.21,4.21,0,0,1,2.63-.76,6.47,6.47,0,0,1,2.07.32,4.37,4.37,0,0,1,1.52.87Z"/><path class="cls-8" d="M422.92,176.65H422l-.14-1.35a2.91,2.91,0,0,0-1.07-.64,4.63,4.63,0,0,0-1.5-.23,2.93,2.93,0,0,0-1.86.5,1.45,1.45,0,0,0-.63,1.16,1.34,1.34,0,0,0,.54,1.09,5.47,5.47,0,0,0,2.14.76,7.16,7.16,0,0,1,2.74,1,2.08,2.08,0,0,1,.92,1.78,2.26,2.26,0,0,1-1,1.92,4.68,4.68,0,0,1-2.75.73,6.84,6.84,0,0,1-2.08-.29,5,5,0,0,1-1.61-.83v-1.92h.92l.16,1.36a2.76,2.76,0,0,0,1.15.61,5.84,5.84,0,0,0,1.46.19,3.34,3.34,0,0,0,1.94-.5,1.47,1.47,0,0,0,.72-1.22,1.51,1.51,0,0,0-.6-1.17,5,5,0,0,0-2.14-.81,7.85,7.85,0,0,1-2.72-1,2,2,0,0,1-.88-1.71,2.23,2.23,0,0,1,1-1.84,4.21,4.21,0,0,1,2.63-.76,6.47,6.47,0,0,1,2.07.32,4.37,4.37,0,0,1,1.52.87Z"/><path class="cls-8" d="M432.29,183.22c-.08-.32-.13-.6-.17-.84a5.53,5.53,0,0,1,0-.71,4.48,4.48,0,0,1-1.52,1.24,4.59,4.59,0,0,1-2.14.49,3.44,3.44,0,0,1-2.33-.72,2.46,2.46,0,0,1-.83-2,2.37,2.37,0,0,1,1.23-2.09,6.11,6.11,0,0,1,3.32-.77h2.27v-1.26a2,2,0,0,0-.71-1.6,3,3,0,0,0-2-.58,5.11,5.11,0,0,0-1.56.22,3.43,3.43,0,0,0-1.18.58l-.1,1.27h-.94v-1.82a6,6,0,0,1,1.71-.83,6.9,6.9,0,0,1,2.11-.32,4.36,4.36,0,0,1,2.73.8,2.75,2.75,0,0,1,1,2.3v4.67c0,.2,0,.38,0,.56a4.35,4.35,0,0,0,.06.52l1,.07v.77Zm.4-13.18a1.72,1.72,0,0,1-.52,1.29,1.79,1.79,0,0,1-1.3.51,2.52,2.52,0,0,1-1.43-.49,2.41,2.41,0,0,0-1.25-.48,1,1,0,0,0-.75.31,1.06,1.06,0,0,0-.3.78l-.75-.16a1.74,1.74,0,0,1,1.8-1.78,2.73,2.73,0,0,1,1.4.48,2.72,2.72,0,0,0,1.28.49,1,1,0,0,0,.75-.32,1.09,1.09,0,0,0,.31-.8Zm-4.14,12.43a4.38,4.38,0,0,0,2.17-.52,3.26,3.26,0,0,0,1.36-1.37v-1.9h-2.29a4.47,4.47,0,0,0-2.47.59,1.73,1.73,0,0,0-.93,1.5A1.51,1.51,0,0,0,427,182,2.41,2.41,0,0,0,428.55,182.47Z"/><path class="cls-8" d="M435.92,178.32a4.86,4.86,0,0,1,1.24-3.44,4.71,4.71,0,0,1,6.6,0,4.86,4.86,0,0,1,1.24,3.44v.29a4.85,4.85,0,0,1-1.24,3.45,4.22,4.22,0,0,1-3.28,1.34,4.3,4.3,0,0,1-3.32-1.34,4.85,4.85,0,0,1-1.24-3.45Zm1.14.29a4.3,4.3,0,0,0,.9,2.78,3,3,0,0,0,2.52,1.13,3,3,0,0,0,2.48-1.13,4.3,4.3,0,0,0,.9-2.78v-.29a4.32,4.32,0,0,0-.9-2.76,3.33,3.33,0,0,0-5,0,4.32,4.32,0,0,0-.9,2.76Z"/><path class="cls-8" d="M451.57,172.71a4,4,0,0,1,.46-1.81,4.26,4.26,0,0,1,1.25-1.56l1.06.64a5.24,5.24,0,0,0-.68,1.3,4.28,4.28,0,0,0-.22,1.4v1.57h-1.87Zm3.09,0a4.18,4.18,0,0,1,.46-1.81,4.26,4.26,0,0,1,1.25-1.56l1.07.64a4.92,4.92,0,0,0-.68,1.3,4.28,4.28,0,0,0-.23,1.4v1.57h-1.87Z"/><path class="cls-8" d="M458.57,174.83v-1.12h3.21l.18,1.38A3.29,3.29,0,0,1,463,174a2.63,2.63,0,0,1,1.47-.42,2.42,2.42,0,0,1,.45,0l.35.06-.24,1.61-1.07-.05a2.22,2.22,0,0,0-1.24.32,2.09,2.09,0,0,0-.78.9v5.46l1.55.24v1.11h-5v-1.11l1.54-.24v-6.8Z"/><path class="cls-8" d="M471.11,183.4a4.5,4.5,0,0,1-3.41-1.32,4.76,4.76,0,0,1-1.27-3.43v-.39a4.68,4.68,0,0,1,1.31-3.38,4.16,4.16,0,0,1,3.09-1.35,4,4,0,0,1,3.13,1.16,4.38,4.38,0,0,1,1.07,3.1v1.08h-6.66l0,0a3.59,3.59,0,0,0,.75,2.26,2.45,2.45,0,0,0,2,.88,5,5,0,0,0,1.67-.25,4,4,0,0,0,1.24-.69l.73,1.13a4.91,4.91,0,0,1-1.46.83A6.37,6.37,0,0,1,471.11,183.4Zm-.28-8.5a2.1,2.1,0,0,0-1.61.73,3.34,3.34,0,0,0-.81,1.84l0,.05h4.73v-.23a2.51,2.51,0,0,0-.59-1.71A2.15,2.15,0,0,0,470.83,174.9Z"/><path class="cls-8" d="M476.65,185.76l1.54-.25V175.07l-1.54-.24v-1.12h3.15l.17,1.16a3.44,3.44,0,0,1,1.25-1,3.94,3.94,0,0,1,1.7-.35,3.51,3.51,0,0,1,3,1.41,6,6,0,0,1,1.05,3.7v.18a5,5,0,0,1-1.06,3.32A3.62,3.62,0,0,1,483,183.4a4.33,4.33,0,0,1-1.67-.29,3.33,3.33,0,0,1-1.22-.87v3.27l1.55.25v1.12h-5Zm8.41-7.12a4.71,4.71,0,0,0-.68-2.66,2.27,2.27,0,0,0-2-1,2.5,2.5,0,0,0-2.29,1.25v4.63a2.51,2.51,0,0,0,.92.91,2.83,2.83,0,0,0,1.39.32,2.37,2.37,0,0,0,2-.9,3.69,3.69,0,0,0,.68-2.33Z"/><path class="cls-8" d="M488.64,182.11l1.55-.24v-6.8l-1.55-.24v-1.12h3.42v8.16l1.55.24v1.11h-5Zm3.42-10.83h-1.87v-1.77h1.87Z"/><path class="cls-8" d="M498.3,171.42v2.29h1.94V175H498.3v5.78a1.27,1.27,0,0,0,.29.94,1.16,1.16,0,0,0,.8.27,3.74,3.74,0,0,0,.55,0l.52-.08.26,1.18a2.28,2.28,0,0,1-.78.26,5.14,5.14,0,0,1-1,.1,2.54,2.54,0,0,1-1.81-.63,2.64,2.64,0,0,1-.67-2V175H494.8v-1.28h1.63v-2.29Z"/><path class="cls-8" d="M508.85,183.22c-.06-.26-.1-.49-.13-.69s-.06-.42-.07-.62A4.5,4.5,0,0,1,507.3,183a3.71,3.71,0,0,1-1.73.42,3.63,3.63,0,0,1-2.44-.72,2.55,2.55,0,0,1-.84-2,2.33,2.33,0,0,1,1.18-2.09,6.12,6.12,0,0,1,3.24-.74h1.93v-1.1a1.67,1.67,0,0,0-.57-1.33,2.39,2.39,0,0,0-1.58-.48,4.24,4.24,0,0,0-1.24.16,2.39,2.39,0,0,0-.87.46l-.2,1h-1.44v-1.84a5.39,5.39,0,0,1,1.7-.83,7.09,7.09,0,0,1,2.16-.32,4.55,4.55,0,0,1,2.83.83,2.8,2.8,0,0,1,1.08,2.36v4.58c0,.13,0,.25,0,.36s0,.24,0,.36l.76.09v1.11Zm-3-1.27a3.48,3.48,0,0,0,1.7-.41,2.69,2.69,0,0,0,1.1-1V179h-2a3,3,0,0,0-1.82.5,1.42,1.42,0,0,0-.67,1.19,1.13,1.13,0,0,0,.42,1A2,2,0,0,0,505.84,182Z"/><path class="cls-8" d="M517.41,182.11l1.55-.24v-6.8l-1.55-.24v-1.12h3.22l.13,1.41a3.57,3.57,0,0,1,3-1.59,3.5,3.5,0,0,1,2.57.9,3.78,3.78,0,0,1,.91,2.79v4.65l1.55.24v1.11h-5v-1.11l1.55-.24v-4.62a2.46,2.46,0,0,0-.53-1.78,2.28,2.28,0,0,0-1.64-.53,2.79,2.79,0,0,0-1.43.36,2.82,2.82,0,0,0-1,1v5.59l1.54.24v1.11h-5Z"/><path class="cls-8" d="M538.55,174.83l-1.24.17,2.12,5.42.17.68h.06l.18-.68,2-5.42-1.24-.17v-1.12h4v1.12l-.84.13-3.45,8.26h-1.41L535.43,175l-.85-.13v-1.12h4Z"/><path class="cls-8" d="M550.44,183.4a4.5,4.5,0,0,1-3.41-1.32,4.72,4.72,0,0,1-1.27-3.43v-.39a4.68,4.68,0,0,1,1.31-3.38,4.16,4.16,0,0,1,3.09-1.35,4,4,0,0,1,3.13,1.16,4.38,4.38,0,0,1,1.07,3.1v1.08H547.7l0,0a3.59,3.59,0,0,0,.75,2.26,2.45,2.45,0,0,0,2,.88,5,5,0,0,0,1.67-.25,4.14,4.14,0,0,0,1.24-.69l.73,1.13a4.91,4.91,0,0,1-1.46.83A6.37,6.37,0,0,1,550.44,183.4Zm-.28-8.5a2.1,2.1,0,0,0-1.61.73,3.34,3.34,0,0,0-.81,1.84l0,.05h4.73v-.23a2.51,2.51,0,0,0-.59-1.71A2.15,2.15,0,0,0,550.16,174.9Z"/><path class="cls-8" d="M558.64,181.87h4.2l.15-1.47h1.58v2.82h-8.15V182l5.55-6.93h-3.76l-.14,1.46h-1.59v-2.83h7.78v1.18Z"/><path class="cls-8" d="M571,183.4a4.5,4.5,0,0,1-3.41-1.32,4.72,4.72,0,0,1-1.27-3.43v-.39a4.67,4.67,0,0,1,1.3-3.38,4.16,4.16,0,0,1,3.09-1.35,4.07,4.07,0,0,1,3.14,1.16,4.42,4.42,0,0,1,1.07,3.1v1.08h-6.66l0,0a3.59,3.59,0,0,0,.75,2.26,2.45,2.45,0,0,0,2,.88,4.91,4.91,0,0,0,1.66-.25,4,4,0,0,0,1.24-.69l.73,1.13a4.73,4.73,0,0,1-1.45.83A6.41,6.41,0,0,1,571,183.4Zm-.29-8.5a2.08,2.08,0,0,0-1.6.73,3.35,3.35,0,0,0-.82,1.84l0,.05h4.74v-.23a2.56,2.56,0,0,0-.59-1.71A2.16,2.16,0,0,0,570.74,174.9Z"/><path class="cls-8" d="M584.65,176.7h-1.41l-.3-1.14a2.64,2.64,0,0,0-.86-.48,3.55,3.55,0,0,0-1.17-.18,2.26,2.26,0,0,0-1.48.4,1.23,1.23,0,0,0-.49,1,1.05,1.05,0,0,0,.43.88,4.6,4.6,0,0,0,1.74.58,7.92,7.92,0,0,1,2.89,1,2.09,2.09,0,0,1,1,1.78,2.41,2.41,0,0,1-1.1,2.05,4.91,4.91,0,0,1-2.89.78,8,8,0,0,1-2.1-.25,5.68,5.68,0,0,1-1.66-.72v-2.17h1.4l.35,1.27a2.05,2.05,0,0,0,.88.4,5.38,5.38,0,0,0,1.14.12,2.81,2.81,0,0,0,1.56-.37,1.16,1.16,0,0,0,.09-1.92,4.68,4.68,0,0,0-1.78-.65,8,8,0,0,1-2.82-1,2,2,0,0,1-1-1.76,2.45,2.45,0,0,1,1.07-2,4.48,4.48,0,0,1,2.78-.82,7.15,7.15,0,0,1,2.1.29,4.21,4.21,0,0,1,1.54.78Z"/><path class="cls-8" d="M589.18,171.13a4.26,4.26,0,0,1-.46,1.82,4.4,4.4,0,0,1-1.25,1.54l-1.06-.65a5.07,5.07,0,0,0,.67-1.28,4.25,4.25,0,0,0,.23-1.41v-1.64h1.87Zm3,0a4.12,4.12,0,0,1-.46,1.82,4.27,4.27,0,0,1-1.24,1.54l-1.07-.65a4.8,4.8,0,0,0,.68-1.28,4.25,4.25,0,0,0,.23-1.41v-1.64h1.86Z"/><path class="cls-8" d="M596.24,175.49h-1.87v-1.78h1.87Zm0,7.73h-1.87v-1.78h1.87Z"/><g class="cls-9"><path class="cls-5" d="M75.55,3.33a6.13,6.13,0,0,1,4.36,2A10.63,10.63,0,0,1,82.55,5a9.65,9.65,0,0,1,7.16,3.25c7.86,2.95,4.74,7.69,4.56,8l.08,0s4.62,3.22,3,4.8c0,0,2.84,3.54.57,5.43a2.68,2.68,0,0,1-.83.42c6.47,10.07,10.33,27.85,7.78,42.51-.5,2.91-3.82,5-12.76,5h0a48.21,48.21,0,0,1-8.65-.77c.09.68.18,1.42.29,2.17h0c.44,3.19,1.1,6.82,1.81,7.35,4.56,3.43,11.36,4.85,15.18,5.4l5.54.52a13.24,13.24,0,0,1,2.87,4.22h0l32.3,30L167,101.67S168.66,95,178.1,95a24.28,24.28,0,0,1,3.88.33c12.87,2.08-1.16,3.6-1.16,3.6s1.45-.12,3.6-.12a36.81,36.81,0,0,1,11.76,1.64l1.94,2.37-4.46,4.46a157.74,157.74,0,0,1-16.15,1.42,8.53,8.53,0,0,1-3.81-.52.37.37,0,0,0-.23-.06c-3.5,0-32.29,27.15-32.29,27.15l-29.65-24c.43,5.89.75,12.17.68,18a186.76,186.76,0,0,1-1.64,22.44c1.29.92.36,2.86.36,2.86l2.42,19.27,0,.42c3,13.4,2.5,35.61,2.5,35.61a22.64,22.64,0,0,0-2.55-.38l0,1.61h0c-.06,11.23,0,27.44.64,31.14,1,5.78,0,8.63,0,8.63s2.84,45,2.84,45.36,4,5.47,4,5.47,5.27,4.14,9.37,7.43h0a11.77,11.77,0,0,1,3.43,1.45,3.42,3.42,0,0,1,1,2.16l1.24.86a13.41,13.41,0,0,0,3.56.66c.56.56,0,1.18-.74,1.67.41.44.66.82.59,1.07-.27,1-4.08,5-11,5-.38,0-.78,0-1.19,0-7.24-.47-17.27-8.19-18.1-10.34a6.39,6.39,0,0,1,.11-4.33,12,12,0,0,1,1.72-5.12c.95-1.7,1.61-6.54,1.61-6.54-10.43-36.61-4.46-41.76-5.6-44.41-.72-1.69-7.16-25.65-11.76-42.89h0l0-.05c-.27-1-.53-2-.78-2.95a11.86,11.86,0,0,1-2.38-1.4,74.42,74.42,0,0,1-12.52,5L65.56,243.41s-2.36,8.68-5.16,11.47a123.45,123.45,0,0,1-6.92,20c-4.74,10.62-6.83,25.23-6.83,25.23s3.4,8.62,3.8,14c4,5.47,7.58,12.22,2.82,14.21a27.26,27.26,0,0,1-10.35,1.83c-5.73,0-10.88-1.35-12.08-2.55-1.92-1.93,3.55-16.53,3.55-16.53.17-1.33.54-2.61,1.31-3.15a23.48,23.48,0,0,0,4.17-4.55s-.71-1.9,1.28-4.46,4.93-19,4.93-21.13-2.65-18.21,6.2-24.53c0,0,1-20.53,3.61-35.38h0c.28-1.69.58-3.3.92-4.8-2.72.23-4.35.26-4.35.26s2.63-7.33,6-16.75c-2.86-.27-1-4.72-1-4.72a23.44,23.44,0,0,0,3.37-2c.36-1,.73-2.05,1.09-3.08-.94-2.34,1.42-9.6,1.42-9.6l-8.69-6.56-25.26-19s20.3-47.85,21.12-48.68c.53-.53,4.45-2.82,7.16-4.38,2.82-2.83,8.9-5.07,8.9-5.07s5.78-6.54,7-7.77.67-4.65.67-4.65L71.08,68.89a23.84,23.84,0,0,1-7.8-7.43,2.82,2.82,0,0,1-2.06.83,7.26,7.26,0,0,1-3.69-1.4s-8-8-5.5-11.82a2.4,2.4,0,0,1,2.08-1.15c1.65,0,3.62,1.37,5,2.54-2.85-2.49-4.37-2.83-5-2.83h-.19l0,0,0,0-.05,0,0-.06c-.6-.3-3.29-1.77-3.52-4.27-4.54-1.42-3.66-4-3.66-4-4.36-3,0-7.75,0-7.75-1.94-1.94-.44-4.77-.44-4.77-2.28-3.22.57-7.21.57-7.21.31-3.47,5.53-5.53,5.53-5.53.41-1.74,2.56-2.56,2.56-2.56a3.79,3.79,0,0,1,3.5-2.16h.29C60.49,5.35,67.58,5,70.24,5c.63,0,1,0,1,0a7,7,0,0,1,4.3-1.65M68.41,168.45c1.14-3.24,2.12-6.08,2.86-8.24a2.49,2.49,0,0,1,1.22-3.67c.06-.21.11-.38.15-.5,1.13-4.17-9.58-24.64-9.58-24.64L54,125.73,41.32,149.58l20.29,14.13,6.8,4.74m65.86,144.13h0M75.55,0h0a9.89,9.89,0,0,0-5.31,1.62h0c-3.86,0-10.32.65-13.56,4.64A7,7,0,0,0,52.46,9a7.65,7.65,0,0,0-2.75,2.62c-2,1-5.36,3.24-6.17,6.79-1.21,2.06-2.33,5.46-1,8.7a7.62,7.62,0,0,0,.11,4.35,9,9,0,0,0-1.26,5.42,7,7,0,0,0,1.91,4,6.07,6.07,0,0,0,.53,1.53,7.52,7.52,0,0,0,3.68,3.36A8.17,8.17,0,0,0,48.83,48c-1.33,2.72-.58,6.19,2.24,10.33a38.79,38.79,0,0,0,4.1,5l.16.16.19.14a10.32,10.32,0,0,0,5.7,2.07,7,7,0,0,0,.92-.06,30.05,30.05,0,0,0,6,5.41L71,81.73a7.23,7.23,0,0,1,0,1.86C69.65,85,66,89.06,64.61,90.67c-1.85.74-6.23,2.67-9,5.19-6.58,3.8-7.11,4.33-7.5,4.72-.64.64-1,1-11.57,25.69-5.12,11.93-10.2,23.92-10.25,24l-1,2.4,2.08,1.56,25.25,19,6.84,5.16a22.71,22.71,0,0,0-1,8.11l-.42,1.17a21.85,21.85,0,0,1-2,1.11l-1.15.54-.5,1.17c-.41,1-1.65,4.4-.11,7l.18.28c-2.94,8.25-5.14,14.37-5.14,14.37l-1.63,4.55,4.83-.09h.19c0,.22-.07.44-.11.66v0c-2.21,12.73-3.27,29.2-3.56,34.24-7.88,7-6.75,20.52-6.36,25.11,0,.41.08.93.08,1.08,0,2.4-2.88,16.92-4.26,19.12a9.1,9.1,0,0,0-2.08,5.53,16.06,16.06,0,0,1-2.62,2.76c-1.41,1-2.28,2.64-2.65,5.06-.38,1-1.49,4.12-2.45,7.44-2.07,7.14-2.12,10.35-.2,12.27,2.41,2.42,9.17,3.52,14.43,3.52a30.58,30.58,0,0,0,11.64-2.08,6.65,6.65,0,0,0,4-4.45c1-3.47-.59-8-4.92-14.06a67.4,67.4,0,0,0-3.6-13.16c.52-3.18,2.58-14.85,6.44-23.5a129.86,129.86,0,0,0,6.93-19.78c2.78-3.48,4.77-10.19,5.27-12l13.1-32.84a80.11,80.11,0,0,0,9.61-3.76l.34,1.3v0c9.68,36.28,11.36,41.82,11.8,43,0,.27-.1.74-.17,1.14-.72,4.31-2.39,14.35,5.56,42.5a22.24,22.24,0,0,1-1.13,4.7,15.24,15.24,0,0,0-2.11,6.12,9.58,9.58,0,0,0,.09,6.14c1.09,2.84,6.36,6.39,8,7.42,2.72,1.75,8,4.73,13,5.06.47,0,1,0,1.41,0,8.1,0,13.47-4.78,14.2-7.46a3.68,3.68,0,0,0,.1-1.4,3.82,3.82,0,0,0,.37-1.33,4,4,0,0,0-1.18-3.23l-.92-.92-1.3-.06a10.88,10.88,0,0,1-2-.29,6.19,6.19,0,0,0-1.81-2.62,12.14,12.14,0,0,0-4-1.91c-3.39-2.71-7.39-5.87-8.54-6.78-1.18-1.52-2.48-3.24-3.09-4.11-.15-2.52-.7-11.46-2.76-44a23.39,23.39,0,0,0-.08-9.58c-.22-1.18-.69-6.26-.6-28l2.48.78.1-4.44c0-.91.47-22.25-2.47-35.92h0v-.3l0-.3L114.33,155a5.87,5.87,0,0,0-.27-4.14,194.9,194.9,0,0,0,1.48-21.49c0-3.24,0-6.77-.22-10.67l23.76,19.22,2.26,1.83,2.12-2c11.81-11.14,26.06-23.7,30-26a16.7,16.7,0,0,0,4,.36,158.65,158.65,0,0,0,16.61-1.45l1.11-.16.79-.79,4.46-4.45,2.13-2.14-1.91-2.33-1.94-2.37-.58-.71-.86-.31a30.38,30.38,0,0,0-6.79-1.51,4.77,4.77,0,0,0-3.2-2.69,29.87,29.87,0,0,0-4.82-1.08,27.57,27.57,0,0,0-4.41-.38c-9.43,0-12.87,5.53-13.94,8l-22.58,19.1L111.92,91.25a16.42,16.42,0,0,0-3.27-4.58l-.85-.85-1.2-.11-5.44-.51c-3.26-.48-9.07-1.66-13-4.37a25,25,0,0,1-.72-3.35q2.32.21,4.74.21c3.64,0,14.71,0,16-7.76,2.37-13.6-.48-30.91-6.8-42.43,1.29-2.14.87-4.79-.35-7a5.17,5.17,0,0,0,0-.68,8,8,0,0,0-2.8-4.76,7.31,7.31,0,0,0-.2-3.58c-.82-2.58-3-4.62-6.39-6.06a12.92,12.92,0,0,0-9.09-3.77,13.54,13.54,0,0,0-1.68.11A9.13,9.13,0,0,0,75.55,0ZM45.66,148.53l9.61-18.08,5.25,3.29c.8,1.57,2.67,5.27,4.48,9.27,3.35,7.36,4.15,10.5,4.34,11.69a5.81,5.81,0,0,0-1.48,2.24,5.67,5.67,0,0,0-.12,3.29l-1,3L63.51,161,45.66,148.53Zm74.41,147.72Z"/><path class="cls-4" d="M109.17,93.24l32.3,30L167,101.67s2.14-8.41,15-6.32-1.16,3.6-1.16,3.6,9.1-.76,15.36,1.52l1.94,2.37-4.46,4.46s-17.82,2.46-20,.9-32.52,27.09-32.52,27.09l-29.66-24-5.82-5Z"/><path class="cls-4" d="M70.64,67.21l3.61,13.85s.57,3.41-.67,4.65-7,7.77-7,7.77l-3.23,6.36L82,110.46l22.29-6-.66-15.64s-11.42-.73-18.07-5.73c-1.31-1-2.42-12.39-2.42-12.39Z"/><path class="cls-10" d="M83.78,75.76c-.35-2.56-.64-5.13-.64-5.13L70.62,67.12l1,3.86s3.92,2.55,5.14,3.09A24.09,24.09,0,0,0,83.78,75.76Z"/><path class="cls-4" d="M60.26,97.07s-8.93,5-9.75,5.86-21.12,48.68-21.12,48.68l25.26,19,8.69,6.56s-2.75,8.44-1.14,10.05-4.74,4.61-4.74,4.61S55,197.7,60,196.44a74.89,74.89,0,0,0,11.76-4.62l3.35-18.71-13.49-9.4L41.33,149.58,54,125.73l9.05,5.67,11.09-8.11-8-19.85L62.77,96Z"/><path class="cls-4" d="M63.28,61.46s7.24,12.89,28.86,12.9c8.94,0,12.27-2.09,12.77-5C108.08,51.12,101.34,28,92,21c-8.2-6.18-37.3,17.2-37.3,17.2l6.2,13.91s-6.32-6.83-8.85-3,5.5,11.82,5.5,11.82S61.13,63.61,63.28,61.46Z"/><path class="cls-4" d="M83.83,197.59,65.56,243.41s-2.36,8.68-5.16,11.47a123.45,123.45,0,0,1-6.92,20c-4.74,10.62-6.83,25.23-6.83,25.23S51,311.07,50.45,316c0,0,4.12,5.69,2.46,9s-8.15,1.33-8.15,1.33S33.9,327.71,32.29,325s2-10,2-10-.52-5.78,1.38-7.11a23.48,23.48,0,0,0,4.17-4.55s-.71-1.9,1.28-4.46,4.93-19,4.93-21.13-2.65-18.21,6.2-24.53c0,0,2.15-43.62,8.22-49.69s23.33-9.67,23.33-9.67Z"/><path class="cls-11" d="M83.83,197.59,78,212.24s-8.08,3.61-10.12,4.11c-1.52.37-12.34,3.72-12,1.54,1.13-6.82,2.7-12.41,4.61-14.31,6.07-6.07,23.33-9.67,23.33-9.67Z"/><path class="cls-4" d="M90.34,190.81s15.3,57.78,16.43,60.44-4.83,7.8,5.6,44.41c0,0-.66,4.84-1.61,6.54s-3.13,6.07-.38,7.59,11.66,9.1,15.46,9.77,10.9-2.66,10.9-2.66,3.79-1.42,2.61-2.61c0,0-3.46-.14-4.6-1.28s-14-11.28-14-11.28-4-5.12-4-5.47-2.84-45.36-2.84-45.36,1-2.85,0-8.63-.54-42.23-.54-42.23Z"/><path class="cls-11" d="M90.34,190.81s3.6,13.55,4.67,17.55c.41,1.54,18.24,2.77,18.24,2.77l.1-11.09Z"/><path class="cls-12" d="M90.34,202.25c3,5.87,23.75,7.11,25.48,7.65,0,0,.54-23.55-2.78-36.78S90.34,202.25,90.34,202.25Z"/><path class="cls-13" d="M65.05,56.28c3.67,1.52.51-5.06.51-5.06s-.35-6.59-2.22-7.71a26.93,26.93,0,0,1-4.07-3.33l35-24s3.54-4.93-4.55-8a9.64,9.64,0,0,0-9.8-2.91S76.37,1.09,71.25,5c0,0-10.31-.61-12.65,4.45a3.86,3.86,0,0,0-3.79,2.15s-2.15.82-2.56,2.56c0,0-5.22,2.06-5.53,5.53,0,0-2.85,4-.57,7.21,0,0-1.5,2.83.44,4.77,0,0-4.36,4.78,0,7.75,0,0-1.08,3.1,5.31,4.36l1.9,3.92s1.82-.83,7.08,4.43Z"/><ellipse class="cls-14" cx="80.74" cy="43.49" rx="1.7" ry="2.32" transform="translate(-8.16 20.99) rotate(-14.1)"/><path class="cls-14" d="M78.55,42.31h-.06a1.33,1.33,0,0,1-1.27-1.38c0-.34.21-3.36,2.41-4.54,1.42-.77,3.19-.54,5.26.7a1.33,1.33,0,0,1-1.36,2.28c-1.17-.7-2.11-.93-2.64-.65-.69.38-1,1.73-1,2.33A1.32,1.32,0,0,1,78.55,42.31Z"/><ellipse class="cls-14" cx="96.19" cy="39.75" rx="1.7" ry="2.32" transform="translate(-6.79 24.64) rotate(-14.1)"/><path class="cls-14" d="M94.39,38.36a1.49,1.49,0,0,1-.36,0,1.33,1.33,0,0,1-.93-1.63c.09-.33,1-3.22,3.36-3.89,1.56-.43,3.23.2,5,1.86a1.35,1.35,0,0,1,0,1.89,1.33,1.33,0,0,1-1.88,0c-1-.95-1.85-1.38-2.43-1.23-.76.21-1.34,1.46-1.5,2A1.34,1.34,0,0,1,94.39,38.36Z"/><path class="cls-15" d="M83.13,58.86c-.21-.22,12.53.8,17.39-2.78,0,0,1,9.69-3.39,10.75S87.51,66.13,83.13,58.86Z"/><g class="cls-16"><path class="cls-17" d="M82.3,60.39s11.91,3.4,17.2-1.9l-.66-2.41L81.38,57.26Z"/><path class="cls-18" d="M84.39,64.75s3.83-3.7,9.93-1.23,0,6.92,0,6.92Z"/></g><path class="cls-10" d="M94.52,68.07c-7.26,0-12.11-8.68-12.17-8.78l-.76-1.4,1.59.09c.11,0,11.76.57,16.86-2.65a.89.89,0,1,1,.95,1.5c-4.4,2.77-12.67,3-16.23,3,1.89,2.77,6.75,8.51,13,5.8a.89.89,0,0,1,.71,1.63A9.76,9.76,0,0,1,94.52,68.07Z"/><path class="cls-10" d="M60.59,60S60.4,51.71,54,49.72"/><path class="cls-10" d="M54,125.73s5.47-7.33,4.75-6.22c-4,6.2,10.25,13.35,13.59,9.53a8.54,8.54,0,0,1-9.29,2.36Z"/><path class="cls-19" d="M66.57,93.48s-6.08,2.24-8.9,5.07c0,0,17,24.69,5.39,32.85,0,0,10.71,20.47,9.58,24.64s-20.18,57.31-20.18,57.31,58.79-1,60.89-39.48l-2.78-22.13a186.76,186.76,0,0,0,1.64-22.44c.12-10.8-1.06-23.21-1.93-31.68a13.63,13.63,0,0,0-4-8.59l-5.54-.52s4.37,14.65-5.74,16C89.56,105.29,76.43,107.05,66.57,93.48Z"/><g class="cls-20"><path class="cls-21" d="M54.65,214.79s58.79-1,60.89-39.49Z"/></g><path class="cls-19" d="M66.57,93.48s-6.08,2.24-8.9,5.07c0,0,17,24.69,5.39,32.85,0,0,10.71,20.47,9.58,24.64s-20.18,57.31-20.18,57.31,58.79-1,60.89-39.48l-2.78-22.13a186.76,186.76,0,0,0,1.64-22.44c.12-10.8-1.06-23.21-1.93-31.68a13.63,13.63,0,0,0-4-8.59l-5.54-.52s4.37,14.65-5.74,16C89.56,105.29,76.43,107.05,66.57,93.48Z"/><path class="cls-4" d="M54.65,170.66l8.69,6.56s-2.75,8.44-1.14,10.05-4.74,4.61-4.74,4.61S55,197.7,60,196.44a74.89,74.89,0,0,0,11.76-4.62L74.59,176s.88-3.12-2.67-5.2c-2.74-1.6-10.31-7-10.31-7Z"/><path class="cls-3" d="M71.33,160.34s31,4.12,39.6-5.74c0,0,.93-1.94-.36-2.86.18,1.82-14.56,9.76-37.93,4.74A2.54,2.54,0,0,0,71.33,160.34Z"/><circle class="cls-22" cx="97.08" cy="158.84" r="7.23"/><g class="cls-23"><path class="cls-24" d="M62.75,19s-3.11,3.76.83,6.27c1.38.88-4.08,5.12-4.08,5.12L57.3,42.75A16.37,16.37,0,0,1,62,41.6L72,53l-6.4,4L45.2,43.27,31.61,17,49.12,1.12,68.27-3.34,64.91,3.33s-8.13,5-5,8.55C57.94,13.25,57.56,18.61,62.75,19Z"/></g><path class="cls-25" d="M53.89,47.68S50.22,46,50.22,43,64.51,11.27,94.35,16.2c0,0,4.62,3.22,3,4.8,0,0,2.84,3.54.57,5.43S84.62,25.55,53.89,47.68Z"/><path class="cls-26" d="M55.5,41S74.6,17.71,95,20.75C95,20.75,76,21.77,55.5,41Z"/><path class="cls-27" d="M97.88,165a7.1,7.1,0,0,1-5.24-2c-1.41-1.56-1.8-3.83-1.17-6.74a1.32,1.32,0,0,1,1.58-1,1.34,1.34,0,0,1,1,1.58c-.44,2-.26,3.51.55,4.41,1.21,1.35,3.58,1.15,3.6,1.14A1.33,1.33,0,0,1,98.5,165S98.23,165,97.88,165Z"/><path class="cls-28" d="M101.45,162.52a1.43,1.43,0,0,1-.29,0,1.32,1.32,0,0,1-1-1.58c.45-2,.27-3.51-.52-4.41-1.21-1.37-3.59-1.17-3.61-1.17a1.34,1.34,0,0,1-1.45-1.2,1.33,1.33,0,0,1,1.19-1.45c.15,0,3.74-.34,5.85,2,1.4,1.57,1.78,3.84,1.14,6.75A1.33,1.33,0,0,1,101.45,162.52Z"/><path class="cls-10" d="M90.53,56.72a1.33,1.33,0,0,1,0-2.66c1.31,0,5-1.1,7.55-2-.81-6.45-4.94-11.26-7.41-13.62a1.33,1.33,0,0,1,1.84-1.93c2.87,2.75,7.77,8.53,8.32,16.37l.07,1-1,.34C99.25,54.5,93,56.72,90.53,56.72Z"/><path class="cls-10" d="M177.19,102.72a3.66,3.66,0,0,1-.65-.06,1.32,1.32,0,0,1-1.08-1.54A1.34,1.34,0,0,1,177,100c1,.18,2.25-1.17,2.72-1.84a1.33,1.33,0,0,1,2.19,1.5C181.69,100,179.77,102.72,177.19,102.72Z"/><path class="cls-10" d="M186.76,107.49a.85.85,0,0,1-.31-.06.87.87,0,0,1-.52-1.13c.62-1.72-1.46-4.65-2.24-5.55A.88.88,0,1,1,185,99.59c.38.43,3.67,4.32,2.57,7.32A.88.88,0,0,1,186.76,107.49Z"/></g></svg>