<svg id="Camada_1" data-name="Camada 1" xmlns="http://www.w3.org/2000/svg" xmlns:xlink="http://www.w3.org/1999/xlink" viewBox="0 0 710.8 222.39"><defs><style>.cls-1{fill:none;}.cls-2{fill:#ffd478;}.cls-3{fill:#f9f9f9;}.cls-4{fill:#027e8f;}.cls-5{clip-path:url(#clip-path);}.cls-6{fill:#eac2a7;}.cls-7{fill:#c9a68f;}.cls-8{fill:#d6aa8b;}.cls-9{fill:#d6d6d6;}.cls-10{fill:#c99f4b;}.cls-11{fill:#6d5f56;}.cls-12{fill:#493e38;}.cls-13{clip-path:url(#clip-path-2);}.cls-14{fill:#fcfcfc;}.cls-15{fill:#d32222;}.cls-16{fill:#f4f4f4;}.cls-17{clip-path:url(#clip-path-3);}.cls-18{fill:#b7b7b7;}.cls-19{fill:#6d472e;}.cls-20{fill:#c99e32;}.cls-21{clip-path:url(#clip-path-4);}.cls-22{fill:#aa7e30;}.cls-23{fill:#fff;}.cls-24{fill:#ddd;}.cls-25{fill:#846829;}.cls-26{fill:#e8cd95;}.cls-27{fill:#eaa000;}.cls-28{clip-path:url(#clip-path-5);}</style><clipPath id="clip-path"><path class="cls-1" d="M132.48,205.6s-28.07,21.32-75.08,3.8-47-152.1-47-152.1S50.2,0,86.1,0c9.83,0,43.26,7.4,43.26,28.13s25.1,113.81,25.1,113.81,10.54,40.81,5.27,43.92"/></clipPath><clipPath id="clip-path-2"><path class="cls-1" d="M94.18,62.93c-.23-.23,13.33.85,18.51-3,0,0,1,10.31-3.6,11.44S98.84,70.67,94.18,62.93Z"/></clipPath><clipPath id="clip-path-3"><path class="cls-1" d="M101.85,215.62c3.15,6.25,25.3,7.57,27.13,8.15,0,0,.58-25.08-3-39.17S101.85,215.62,101.85,215.62Z"/></clipPath><clipPath id="clip-path-4"><path class="cls-1" d="M74.92,60.18c3.91,1.61.54-5.39.54-5.39s-.37-7-2.36-8.21A29,29,0,0,1,68.77,43l10-6.84L106,17.49s3.77-5.25-4.84-8.48a10.28,10.28,0,0,0-10.44-3.1S87,1.4,81.52,5.54c0,0-11-.64-13.47,4.75a4.09,4.09,0,0,0-4,2.29s-2.28.87-2.72,2.72c0,0-5.56,2.19-5.89,5.9,0,0-3,4.24-.61,7.67,0,0-1.6,3,.47,5.08,0,0-4.64,5.09,0,8.25,0,0-1.14,3.3,5.66,4.65l2,4.17s1.94-.88,7.54,4.71Z"/></clipPath><clipPath id="clip-path-5"><path class="cls-1" d="M211.2-191.46c0-62.17-71.39-103.27-135.65-103.27S7.48-251,7.48-188.86s23.12,110,87.37,110S211.2-129.29,211.2-191.46Z"/></clipPath></defs><title>1-info2</title><path class="cls-2" d="M132.86,70.16H700.8a10,10,0,0,1,10,10V187a10,10,0,0,1-10,10H132.86a0,0,0,0,1,0,0V70.16A0,0,0,0,1,132.86,70.16Z"/><circle class="cls-3" cx="92.11" cy="131.39" r="88"/><path class="cls-4" d="M92.11,46.39a85,85,0,1,1-85,85,85,85,0,0,1,85-85m0-6a91,91,0,1,0,91,91,91.11,91.11,0,0,0-91-91Z"/><path class="cls-2" d="M91.89,46.55a84.78,84.78,0,1,0,84.77,84.77A84.77,84.77,0,0,0,91.89,46.55Zm0,163.9A79.13,79.13,0,1,1,171,131.32,79.13,79.13,0,0,1,91.89,210.45Z"/><path class="cls-2" d="M131.9,69.74a2.86,2.86,0,0,0-2.13-.4A2.9,2.9,0,0,0,128,70.56l-4.62,7.11a2.81,2.81,0,0,0-.39,2.17,2.87,2.87,0,0,0,1.29,1.79,38.71,38.71,0,0,1,3.17,2.25c.63.49,1.27,1,1.77,1.33.88.72,1.72,1.48,2.56,2.25l-2,2a56.11,56.11,0,0,0-12.39-8.48l5.78-13a2.79,2.79,0,0,0,.06-2.16,2.83,2.83,0,0,0-1.49-1.57,73.88,73.88,0,0,0-26-6.2,2.82,2.82,0,0,0-3,2.67l-.44,8.47a2.83,2.83,0,0,0,2.67,3l3,.15,3.17.48,1.22.19c.61.09,1.22.17,1.76.3l.39.09-.74,2.77a57.91,57.91,0,0,0-15-1.21L87.33,60.77a2.82,2.82,0,0,0-1-1.9,2.78,2.78,0,0,0-2.07-.62A72.94,72.94,0,0,0,58.54,65.9a2.83,2.83,0,0,0-1.23,3.8l3.86,7.55a2.81,2.81,0,0,0,3.7,1.28c.57-.26,1.13-.54,1.7-.81a29.87,29.87,0,0,1,4-1.74l.73-.27c.85-.31,1.67-.62,2.49-.89l.73,2.73c-.69.24-1.37.49-2,.74l-.67.25a26.7,26.7,0,0,0-4,1.71l-1.7.82-4.79,2.76L61,84,52.68,72.56a2.83,2.83,0,0,0-1.85-1.13,2.77,2.77,0,0,0-2.1.51A73.54,73.54,0,0,0,30.3,91.31a2.85,2.85,0,0,0,.83,3.92l7.11,4.62a2.8,2.8,0,0,0,2.16.39A2.84,2.84,0,0,0,42.19,99c.7-1.09,1.45-2.14,2.25-3.16.49-.64,1-1.28,1.33-1.78.72-.87,1.48-1.72,2.25-2.56l2,2a56.15,56.15,0,0,0-8.49,12.39l-13-5.78a2.83,2.83,0,0,0-3.74,1.43,74.15,74.15,0,0,0-6.2,26,2.84,2.84,0,0,0,2.68,3l8.47.43a2.79,2.79,0,0,0,3-2.66l.15-3,.48-3.17c.08-.4.14-.81.19-1.22.09-.62.18-1.23.3-1.76l.1-.39,2.77.74a57.48,57.48,0,0,0-1.22,15l-14.14,1.47a2.85,2.85,0,0,0-1.9,1,2.82,2.82,0,0,0-.61,2.07,73.63,73.63,0,0,0,7.65,25.68,2.8,2.8,0,0,0,1.64,1.4,2.84,2.84,0,0,0,2.16-.17l7.55-3.85a2.83,2.83,0,0,0,1.27-3.71c-.26-.56-.53-1.11-.8-1.67a28.51,28.51,0,0,1-1.74-4.06l-.28-.75c-.32-.84-.62-1.66-.89-2.47l2.77-.74a56.06,56.06,0,0,0,6.45,13.53l-11.48,8.35a2.82,2.82,0,0,0-.62,3.95,73.73,73.73,0,0,0,19.38,18.43,2.81,2.81,0,0,0,3.91-.83l4.62-7.1a2.83,2.83,0,0,0-.89-4,35.65,35.65,0,0,1-3.17-2.26c-.64-.49-1.28-1-1.77-1.32-.88-.72-1.72-1.48-2.56-2.25l2-2c.75.69,1.53,1.39,2.47,2.16.55.39,1.09.8,1.62,1.21a34.36,34.36,0,0,0,3.15,2.22l5.05,2.89.06,0-5.79,13a2.91,2.91,0,0,0-.06,2.17A2.82,2.82,0,0,0,62,198.41a73.94,73.94,0,0,0,26,6.21h.15A2.83,2.83,0,0,0,91,201.94l.44-8.46a2.82,2.82,0,0,0-2.67-3l-3-.15-3.17-.49-1.22-.18c-.62-.09-1.23-.18-1.76-.3l-.39-.1.74-2.77a57.88,57.88,0,0,0,15,1.22l1.46,14.13a2.81,2.81,0,0,0,3.11,2.52,72.73,72.73,0,0,0,25.68-7.65,2.82,2.82,0,0,0,1.23-3.8l-3.86-7.55a2.83,2.83,0,0,0-3.7-1.28l-1.7.82a28.22,28.22,0,0,1-4,1.73l-.72.27c-.85.32-1.67.62-2.49.9l-.74-2.77a56,56,0,0,0,13.52-6.45l8.36,11.48a2.82,2.82,0,0,0,3.94.62,73.41,73.41,0,0,0,18.43-19.38,2.82,2.82,0,0,0-.82-3.91l-7.11-4.63a2.85,2.85,0,0,0-2.17-.38,2.81,2.81,0,0,0-1.78,1.28c-.7,1.1-1.45,2.15-2.25,3.17-.49.64-1,1.28-1.33,1.78-.72.87-1.49,1.71-2.26,2.55l-1.95-1.95a56.49,56.49,0,0,0,8.49-12.39l13,5.78A2.83,2.83,0,0,0,159,161.2a73.72,73.72,0,0,0,6.2-26,2.82,2.82,0,0,0-2.67-3l-8.47-.44a2.85,2.85,0,0,0-3,2.67l-.15,3-.48,3.16c-.07.41-.13.82-.19,1.23-.09.61-.17,1.22-.29,1.75l-.1.39-2.73-.72,0-.07c.16-.66.25-1.33.35-2,0-.32.08-.63.14-1l.44-2.78,0-.29.14-3v-5.91l14.2-1.47a2.82,2.82,0,0,0,1.9-1,2.88,2.88,0,0,0,.62-2.08A73.86,73.86,0,0,0,157.31,98a2.82,2.82,0,0,0-3.8-1.23L146,100.6a2.82,2.82,0,0,0-1.28,3.71c.26.56.53,1.11.8,1.67a28.07,28.07,0,0,1,1.75,4.06l.27.74c.32.85.62,1.66.89,2.47l-2.77.74a55.8,55.8,0,0,0-6.45-13.52l11.48-8.36a2.82,2.82,0,0,0,.63-3.94A73.57,73.57,0,0,0,131.9,69.74Zm1.72,27.78a2.83,2.83,0,0,0-1.13,1.85,2.77,2.77,0,0,0,.51,2.1,50.48,50.48,0,0,1,8,16.69,2.85,2.85,0,0,0,3.46,2l8.19-2.19a2.83,2.83,0,0,0,2-3.32,40.85,40.85,0,0,0-1.85-5.84l-.22-.61a29.72,29.72,0,0,0-1.59-3.83l2.52-1.29A68,68,0,0,1,159,121.44l-14,1.45a2.82,2.82,0,0,0-2.53,3l.14,2.74V134l-.14,2.66-.4,2.6c-.07.37-.12.74-.17,1.11s-.14,1-.24,1.42l-.7,2.72a2.82,2.82,0,0,0,2,3.44l8.2,2.19a2.82,2.82,0,0,0,3.46-2l.83-3.23c.17-.75.29-1.52.4-2.28.05-.37.1-.73.17-1.13l.52-3.5,0-.43,2.77.14a68.19,68.19,0,0,1-4.42,18.61l-12.85-5.73a2.84,2.84,0,0,0-2.16-.05,2.8,2.8,0,0,0-1.57,1.49,50.66,50.66,0,0,1-10.48,15.29,2.84,2.84,0,0,0,0,4l6,6a2.76,2.76,0,0,0,2.08.83,2.83,2.83,0,0,0,2-1l1.53-1.68c1-1.07,2-2.13,3-3.4.43-.61.88-1.2,1.33-1.79.32-.41.64-.83,1-1.25l2.38,1.54A67.63,67.63,0,0,1,134,184.43l-8.28-11.38a2.82,2.82,0,0,0-4-.62,50.32,50.32,0,0,1-16.69,8,2.81,2.81,0,0,0-2,3.46l2.19,8.19a2.82,2.82,0,0,0,3.32,2,41.93,41.93,0,0,0,5.86-1.85L115,192a27.29,27.29,0,0,0,3.83-1.58l1.29,2.52a68.82,68.82,0,0,1-18.35,5.47l-1.45-14a2.78,2.78,0,0,0-3.08-2.52,52,52,0,0,1-18.51-1.51,2.82,2.82,0,0,0-3.46,2l-2.19,8.19a2.82,2.82,0,0,0,2,3.47l3.21.82c.76.18,1.53.29,2.3.4l1.12.17,3.49.52.44,0-.15,2.77a68.5,68.5,0,0,1-18.6-4.43l5.73-12.84a2.84,2.84,0,0,0-1.35-3.7L69,176.68l-4.82-2.77a27.21,27.21,0,0,1-2.57-1.83c-.6-.46-1.2-.92-1.64-1.22-.82-.67-1.6-1.39-2.38-2.11-.58-.53-1.16-1.06-1.76-1.59a2.84,2.84,0,0,0-3.86.13l-6,6a2.82,2.82,0,0,0,.12,4.11c.56.49,1.11,1,1.66,1.51,1.07,1,2.15,2,3.42,3,.61.43,1.2.88,1.78,1.33l1.27,1-1.55,2.37a67.58,67.58,0,0,1-13.85-13.17l11.38-8.28a2.82,2.82,0,0,0,.62-3.95,50.56,50.56,0,0,1-8-16.7,2.83,2.83,0,0,0-3.45-2l-8.19,2.19a2.84,2.84,0,0,0-2,3.33A42.41,42.41,0,0,0,31,153.83l.23.61a31.16,31.16,0,0,0,1.58,3.83l-2.51,1.29a68.48,68.48,0,0,1-5.48-18.35l14-1.45a2.83,2.83,0,0,0,2.52-3.09,51.75,51.75,0,0,1,1.5-18.5,2.79,2.79,0,0,0-.28-2.15,2.83,2.83,0,0,0-1.72-1.32l-8.19-2.18a2.79,2.79,0,0,0-2.15.29,2.84,2.84,0,0,0-1.32,1.73l-.82,3.23c-.18.75-.29,1.51-.4,2.28-.05.36-.1.72-.17,1.13l-.52,3.49,0,.43L24.44,125a68.42,68.42,0,0,1,4.43-18.6l12.84,5.72a2.82,2.82,0,0,0,2.17.06,2.87,2.87,0,0,0,1.57-1.49,50.68,50.68,0,0,1,10.47-15.3,2.82,2.82,0,0,0,0-4l-6-6a2.84,2.84,0,0,0-4.11.12c-.5.57-1,1.13-1.53,1.69-1,1.06-2,2.13-3,3.4-.43.61-.89,1.2-1.34,1.79l-1,1.25-2.37-1.54A67.89,67.89,0,0,1,49.8,78.21l8.29,11.38a2.82,2.82,0,0,0,3.95.62l.66-.49a8.67,8.67,0,0,1,1.38-1l4.63-2.68c.54-.25,1.08-.51,1.61-.78a22.85,22.85,0,0,1,3.31-1.41l.85-.31a27.78,27.78,0,0,1,4.09-1.3,2.83,2.83,0,0,0,2.16-3.5L78.54,70.6a2.82,2.82,0,0,0-3.32-2,41.11,41.11,0,0,0-5.86,1.85l-.59.22a28.32,28.32,0,0,0-3.83,1.58L63.66,69.7A68.65,68.65,0,0,1,82,64.23l1.45,14a2.79,2.79,0,0,0,3.08,2.52A52,52,0,0,1,105,82.25a2.88,2.88,0,0,0,2.15-.28,2.83,2.83,0,0,0,1.31-1.72l2.19-8.19a2.83,2.83,0,0,0-2-3.47l-3.22-.82c-.76-.18-1.52-.29-2.29-.4L102,67.19l-3.49-.52-.44,0,.15-2.77a68,68,0,0,1,18.6,4.42l-5.72,12.85a2.8,2.8,0,0,0,1.44,3.73,51,51,0,0,1,15.29,10.48,2.82,2.82,0,0,0,4,0l6-6a2.79,2.79,0,0,0,.82-2.08,2.82,2.82,0,0,0-.94-2c-.56-.49-1.11-1-1.66-1.51-1.08-1-2.15-2-3.43-3-.6-.43-1.19-.89-1.78-1.34l-1.26-1,1.55-2.37A67.84,67.84,0,0,1,145,89.24Z"/><path class="cls-2" d="M91.89,86.11a45.12,45.12,0,0,0-39,68,2.75,2.75,0,0,0,.17.29,45.58,45.58,0,0,0,11.53,12.9c.07.05.11.12.19.17l.06,0a44.88,44.88,0,0,0,54.06,0s0,0,.07,0,.13-.12.2-.17a45.4,45.4,0,0,0,11.52-12.9,1.75,1.75,0,0,0,.18-.29,45.13,45.13,0,0,0-39-68Zm-5.1,6L55.43,146.68A39.53,39.53,0,0,1,86.79,92.13ZM69.92,164.21l22-38.19,22,38.19a39.48,39.48,0,0,1-43.93,0Zm48.42-3.55L95.56,121.08a4.24,4.24,0,0,0-7.35,0L65.44,160.66a39.8,39.8,0,0,1-6.88-8.1l33.33-58,6.46,11.21c0,.08.08.17.13.25l26.73,46.5a39.75,39.75,0,0,1-6.87,8.1Zm10-14-24.84-43.21a2.1,2.1,0,0,0-.13-.26L97,92.13a39.53,39.53,0,0,1,31.36,54.55Z"/><g class="cls-5"><path class="cls-6" d="M80.88,71.82l3.84,14.75s.6,3.63-.71,4.94-7.47,8.28-7.47,8.28l-3.44,6.77L93,117.87l23.73-6.36L116,94.85s-12.15-.78-19.24-6.1c-1.39-1-2.57-13.19-2.57-13.19Z"/><path class="cls-7" d="M94.86,80.92c-.37-2.72-.68-5.46-.68-5.46L80.85,71.72l1.07,4.11s4.18,2.72,5.47,3.29A25.37,25.37,0,0,0,94.86,80.92Z"/><path class="cls-6" d="M69.82,103.61s-9.51,5.37-10.38,6.25-7.67,7-7.67,7l-.26,22.07-8.83-21L35,121.27,45.93,154l6,9.31L56.48,165l6.69-30.9,9.63,6,11.82-8.63L76.13,110.4l-3.63-8Z"/><path class="cls-6" d="M34.69,121.17a10.38,10.38,0,0,1-4.54-3.8,37.79,37.79,0,0,1-4.75.24.7.7,0,0,1-.43-.09.81.81,0,0,1-.25-.53,45.87,45.87,0,0,0-2.45-8.6,1.44,1.44,0,0,1-.14-.76c.1-.46.64-.67,1.11-.72a2.76,2.76,0,0,0,1.38-.27c.52-.36.68-1.16,1.28-1.36s1,.17,1.49,0,.6-.82.93-1.23a3.28,3.28,0,0,1,2.05-.81A14.59,14.59,0,0,0,34,101.77a.35.35,0,0,0,.21-.18.5.5,0,0,0,0-.21c-.56-2.58-1.73-5.17-2.28-7.75a58.26,58.26,0,0,1-.94-7.4A3.92,3.92,0,0,1,33,83.74a.83.83,0,0,1,.76-.1c.29.13.39.48.46.8.62,2.88,2.31,10.19,2.94,13.07.39,1.84,3.72,6.43,4.43,7s.82,1.23,1.62,1.84a1.69,1.69,0,0,1,.56.57,1.83,1.83,0,0,1,.15.81l.12,4.88c0,1.9,0,4-1.33,5.37Z"/><path class="cls-7" d="M41.32,104.08c-1-.27-1.94-.9-3-.72a6.84,6.84,0,0,0-2.44,1.26c-2.15,1.47-3.69,3.72-6,4.94a1,1,0,0,0-.19,1.49c1.32,1.28,3.23,2.8,5.19,2.36a6.06,6.06,0,0,0,4.06-3.79l-1.4.56a7.51,7.51,0,0,0,2,1.06c1.15.44,1.62-1.38.5-1.83-3.73-1.5-5.28,3.37-4,6,.52,1.1,2.16.14,1.64-1-.59-1.25-.26-4.12,1.87-3.26l.5-1.83a4.53,4.53,0,0,1-1.51-.86,1,1,0,0,0-1.39.56c-1.14,3-4.19,2.44-6.08.6l-.19,1.49A19.8,19.8,0,0,0,35,107.77a15,15,0,0,1,2.4-1.87c1.14-.71,2.2-.33,3.43,0a1,1,0,0,0,.5-1.83Z"/><path class="cls-7" d="M33.76,107.69l-.43-2.2-1.83.5a2.53,2.53,0,0,0,1.39,1.71,1,1,0,0,0,1.3-.34,1,1,0,0,0-.34-1.3.74.74,0,0,1-.52-.57.95.95,0,1,0-1.83.5l.43,2.21a.95.95,0,0,0,1.83-.51Z"/><path class="cls-6" d="M73,65.7s7.71,13.72,30.73,13.73c9.52,0,13.06-2.23,13.6-5.32,3.37-19.43-3.81-44-13.77-51.5C94.87,16,63.88,40.92,63.88,40.92l6.6,14.81s-6.73-7.27-9.43-3.23,5.86,12.59,5.86,12.59S70.75,68,73,65.7Z"/><path class="cls-6" d="M119.05,96.83c2.28-1.21,4.34,1.65,4.34,1.65l23.23,40.66-20.05,36s6.73,11.31,3.36,16.43l4.65,4.64s.74,2.49-2.63,2.49-11.31-5.92-11.31-5.92l.93-25.36,15-27L122.79,120l-4.3-3.81S114.78,99.09,119.05,96.83Z"/><path class="cls-6" d="M94.92,210.66,75.46,259.45S73,268.69,70,271.67A131.62,131.62,0,0,1,62.6,293c-5.05,11.31-7.27,26.86-7.27,26.86s4.6,11.66,4,16.91c0,0,4.39,6.06,2.63,9.54s-8.69,1.42-8.69,1.42S41.75,349.22,40,346.34s2.17-10.6,2.17-10.6-.55-6.16,1.47-7.57a25.2,25.2,0,0,0,4.44-4.85s-.76-2,1.36-4.75,5.25-20.21,5.25-22.5S51.9,276.68,61.32,270c0,0,2.29-46.45,8.75-52.91s24.85-10.3,24.85-10.3Z"/><path class="cls-8" d="M94.92,210.66l-6.22,15.6s-8.61,3.84-10.79,4.38c-1.61.39-13.13,4-12.75,1.63,1.21-7.26,2.89-13.21,4.91-15.23,6.47-6.47,24.85-10.3,24.85-10.3Z"/><path class="cls-6" d="M101.85,203.44s16.29,61.53,17.5,64.36-5.15,8.31,6,47.29c0,0-.71,5.15-1.71,7s-3.34,6.46-.41,8.08,12.42,9.69,16.46,10.4,11.61-2.83,11.61-2.83,4-1.51,2.78-2.78c0,0-3.68-.15-4.9-1.36s-14.94-12-14.94-12S130,316.1,130,315.73s-3-48.3-3-48.3,1.11-3,0-9.19-.57-45-.57-45Z"/><path class="cls-8" d="M101.85,203.44s3.83,14.43,5,18.69c.44,1.63,19.43,3,19.43,3l.11-11.81Z"/><path class="cls-9" d="M101.85,215.62c3.15,6.25,25.3,7.57,27.13,8.15,0,0,.58-25.08-3-39.17S101.85,215.62,101.85,215.62Z"/><path class="cls-10" d="M74.92,60.18c3.91,1.61.54-5.39.54-5.39s-.37-7-2.36-8.21A29,29,0,0,1,68.77,43L106,17.49s3.77-5.25-4.84-8.48a10.28,10.28,0,0,0-10.44-3.1S87,1.4,81.52,5.54c0,0-11-.64-13.47,4.75a4.09,4.09,0,0,0-4,2.29s-2.28.87-2.72,2.72c0,0-5.56,2.19-5.89,5.9,0,0-3,4.24-.61,7.67,0,0-1.6,3,.47,5.08,0,0-4.64,5.09,0,8.25,0,0-1.14,3.3,5.66,4.65l2,4.17s1.94-.88,7.54,4.71Z"/><path class="cls-7" d="M102.05,60.73a1.5,1.5,0,0,1,0-3c1.38,0,5.23-1.15,8-2.08-.88-6.81-5.24-11.9-7.85-14.39a1.5,1.5,0,0,1,2.07-2.17c3.07,2.93,8.3,9.1,8.89,17.48l.08,1.13-1.07.39C111.36,58.36,104.66,60.73,102.05,60.73Z"/><ellipse class="cls-11" cx="90.04" cy="45.67" rx="1.81" ry="2.47" transform="translate(-8.41 23.32) rotate(-14.1)"/><path class="cls-11" d="M87.26,45.38h-.07a1.5,1.5,0,0,1-1.43-1.56c0-.36.22-3.62,2.6-4.9,1.55-.84,3.46-.58,5.7.75a1.5,1.5,0,0,1-1.54,2.58c-1.21-.72-2.2-1-2.73-.69-.7.37-1,1.78-1,2.4A1.5,1.5,0,0,1,87.26,45.38Z"/><ellipse class="cls-11" cx="106.83" cy="40.6" rx="1.81" ry="2.47" transform="translate(-6.67 27.26) rotate(-14.1)"/><path class="cls-11" d="M103.58,40a1.41,1.41,0,0,1-.4-.05,1.49,1.49,0,0,1-1.05-1.84c.1-.36,1-3.48,3.64-4.2,1.69-.47,3.5.2,5.38,2a1.5,1.5,0,0,1-2.08,2.17c-1-1-1.93-1.44-2.5-1.28-.8.22-1.41,1.62-1.54,2.1A1.5,1.5,0,0,1,103.58,40Z"/><path class="cls-12" d="M94.18,62.93c-.23-.23,13.33.85,18.51-3,0,0,1,10.31-3.6,11.44S98.84,70.67,94.18,62.93Z"/><g class="cls-13"><path class="cls-14" d="M93.29,64.55s12.68,3.62,18.32-2L110.9,60,92.31,61.22Z"/><path class="cls-15" d="M95.52,69.2s4.07-3.94,10.57-1.32,0,7.38,0,7.38Z"/></g><path class="cls-7" d="M106.3,72.79c-7.76,0-12.94-9.27-13-9.38l-.86-1.57,1.79.09c.12,0,12.51.6,17.93-2.81a1,1,0,0,1,1.06,1.69C108.57,63.74,99.87,64,96,64c2,3,7.16,8.91,13.69,6.06a1,1,0,1,1,.8,1.84A10.47,10.47,0,0,1,106.3,72.79Z"/><path class="cls-7" d="M70.17,64.15s-.2-8.84-7-11"/><path class="cls-7" d="M63.17,134.13s5.82-7.8,5-6.62c-4.26,6.6,10.92,14.22,14.48,10.15a9.11,9.11,0,0,1-9.9,2.51Z"/><path class="cls-16" d="M76.54,99.79s-6.47,2.39-9.48,5.4c0,0,18.13,26.29,5.74,35,0,0,11.41,21.8,10.2,26.24s-21.48,61-21.48,61,62.6-1.11,64.84-42.05l-3-23.56a196.21,196.21,0,0,0,1.75-23.9c.13-11.49-1.13-24.71-2-33.73a14.55,14.55,0,0,0-4.25-9.15L113,94.5s4.65,15.59-6.12,17.07C101,112.37,87,114.24,76.54,99.79Z"/><g class="cls-17"><path class="cls-18" d="M63.85,229s62.61-1.11,64.84-42Z"/></g><path class="cls-16" d="M76.54,99.79s-6.47,2.39-9.48,5.4c0,0,18.13,26.29,5.74,35,0,0,11.41,21.8,10.2,26.24s-21.48,61-21.48,61,62.6-1.11,64.84-42.05l-3-23.56a196.21,196.21,0,0,0,1.75-23.9c.13-11.49-1.13-24.71-2-33.73a14.55,14.55,0,0,0-4.25-9.15L113,94.5s4.65,15.59-6.12,17.07C101,112.37,87,114.24,76.54,99.79Z"/><path class="cls-19" d="M81.61,171s33,4.39,42.17-6.11c0,0,1-2.07-.39-3,.2,1.94-15.5,10.4-40.39,5A2.71,2.71,0,0,0,81.61,171Z"/><circle class="cls-20" cx="109.03" cy="169.4" r="7.7"/><g class="cls-21"><path class="cls-22" d="M72.47,20.46s-3.3,4,.89,6.68c1.46.93-4.35,5.45-4.35,5.45L66.67,45.77a17.55,17.55,0,0,1,5-1.22L82.34,56.72,75.53,61,53.78,46.33l-14.47-28L58,1.44,78.35-3.31l-3.58,7.1s-8.66,5.3-5.35,9.11C67.35,14.36,66.94,20.07,72.47,20.46Z"/></g><path class="cls-23" d="M63,51s-3.91-1.75-3.91-5,15.22-33.8,47-28.55c0,0,4.92,3.44,3.24,5.12,0,0,3,3.76.6,5.78S95.76,27.45,63,51Z"/><path class="cls-24" d="M64.76,43.89s20.33-24.78,42.07-21.55C106.83,22.34,86.57,23.43,64.76,43.89Z"/><path class="cls-25" d="M109.88,176a7.66,7.66,0,0,1-5.64-2.2c-1.52-1.69-1.94-4.13-1.27-7.26a1.5,1.5,0,0,1,2.93.63c-.46,2.13-.27,3.68.56,4.62,1.27,1.42,3.76,1.2,3.79,1.2a1.5,1.5,0,0,1,.3,3S110.27,176,109.88,176Z"/><path class="cls-26" d="M113.68,173.4a1.12,1.12,0,0,1-.32,0,1.49,1.49,0,0,1-1.14-1.78c.47-2.14.29-3.69-.55-4.63-1.25-1.42-3.73-1.22-3.76-1.21a1.5,1.5,0,1,1-.29-3c.16,0,4-.36,6.3,2.21,1.5,1.7,1.92,4.14,1.22,7.26A1.49,1.49,0,0,1,113.68,173.4Z"/><path class="cls-7" d="M30.48,117.93a2.1,2.1,0,0,0,0-3.59c-.86-.65-2,.79-1.15,1.49a3.89,3.89,0,0,0,3.18,1.3A2.65,2.65,0,0,0,34.62,115l-1.39.56a3,3,0,0,0,3.09.1c1.09-.55.13-2.19-1-1.64a1.06,1.06,0,0,1-1.17-.1,1,1,0,0,0-1.4.57c-.26,1.35-1.46.51-2.08,0L29.56,116l0,.31c-1,.69-.05,2.34,1,1.64Z"/><path class="cls-7" d="M25.14,105.77q.66,3.08,1.47,6.13a1,1,0,0,0,1.83-.51q-.81-3-1.47-6.13c-.26-1.19-2.09-.69-1.83.51Z"/><path class="cls-7" d="M50.46,138.65a19,19,0,0,1,2.15,7.46c.1,1.21,2,1.22,1.9,0a21.43,21.43,0,0,0-2.41-8.42c-.57-1.08-2.21-.12-1.64,1Z"/><path class="cls-27" d="M86.1,3.79a6.54,6.54,0,0,1,4.64,2.12,11.2,11.2,0,0,1,2.81-.37A10.25,10.25,0,0,1,101.18,9c8.37,3.14,5,8.19,4.85,8.47h.1s4.91,3.44,3.23,5.12c0,0,3,3.76.6,5.78a2.52,2.52,0,0,1-.87.44c6.88,10.73,11,29.67,8.28,45.28-.54,3.09-4.07,5.32-13.59,5.32h0a50.45,50.45,0,0,1-9.21-.82c.09.73.19,1.52.3,2.31h0c.48,3.4,1.18,7.26,1.93,7.83,4.86,3.65,12.1,5.16,16.17,5.75l5.89.55a14,14,0,0,1,1.31,1.49h.07c1.77,0,3.17,2,3.17,2l23.23,40.66-20.05,36s6.73,11.31,3.36,16.43l4.65,4.64s.74,2.49-2.63,2.49a10.1,10.1,0,0,1-3.9-1.27,255.26,255.26,0,0,1,.93,26.36,25.23,25.23,0,0,0-2.71-.41l0,1.72h0c-.07,11.95,0,29.22.68,33.16,1.11,6.16,0,9.19,0,9.19s3,47.93,3,48.3,4.24,5.82,4.24,5.82,5.61,4.42,10,7.92h0a12.66,12.66,0,0,1,3.66,1.54,3.67,3.67,0,0,1,1.1,2.3c.29.19.77.52,1.32.92a14.11,14.11,0,0,0,3.79.7c.6.6,0,1.26-.78,1.78.44.47.7.87.62,1.14-.28,1-4.34,5.32-11.68,5.32-.42,0-.84,0-1.28,0-7.7-.5-18.39-8.72-19.27-11a6.82,6.82,0,0,1,.12-4.61,12.71,12.71,0,0,1,1.83-5.45c1-1.82,1.71-7,1.71-7-11.11-39-4.74-44.47-6-47.29-.81-1.91-8.47-30.43-13.38-48.86a13.63,13.63,0,0,1-2.53-1.5,80.13,80.13,0,0,1-13.33,5.28l-1.41,3.54L75.46,259.45S73,268.69,70,271.67A131.27,131.27,0,0,1,62.6,293c-5.05,11.31-7.27,26.86-7.27,26.86s3.62,9.18,4,14.92c4.26,5.83,8.08,13,3,15.14a29.17,29.17,0,0,1-11,1.94c-6.11,0-11.59-1.44-12.87-2.71-2.05-2.05,3.78-17.61,3.78-17.61.18-1.41.57-2.78,1.4-3.35a25.2,25.2,0,0,0,4.44-4.85s-.76-2,1.36-4.75,5.25-20.21,5.25-22.5S51.9,276.68,61.32,270c0,0,1.08-21.86,3.84-37.68h0c.3-1.79.63-3.51,1-5.1-2.89.24-4.62.27-4.62.27s15.12-42.23,20-56.59a2.65,2.65,0,0,1,1.3-3.9c.07-.22.12-.41.16-.54,1.21-4.44-10.2-26.24-10.2-26.24l-9.63-6L56.48,165l-4.54-1.72-6-9.31L35,121.27l-.32-.1a10.38,10.38,0,0,1-4.54-3.8,38.07,38.07,0,0,1-4.27.25H25.4a.7.7,0,0,1-.43-.09.81.81,0,0,1-.25-.53,45.87,45.87,0,0,0-2.45-8.6,1.44,1.44,0,0,1-.14-.76c.1-.46.64-.67,1.12-.72a2.74,2.74,0,0,0,1.37-.27c.52-.36.68-1.16,1.28-1.36a1,1,0,0,1,.3,0c.28,0,.57.08.84.08a.83.83,0,0,0,.35-.06c.48-.2.6-.82.93-1.23a3.28,3.28,0,0,1,2.05-.81A14.59,14.59,0,0,0,34,101.77a.35.35,0,0,0,.21-.18.5.5,0,0,0,0-.21c-.56-2.58-1.73-5.17-2.28-7.75a58.26,58.26,0,0,1-.94-7.4A3.92,3.92,0,0,1,33,83.74a1.09,1.09,0,0,1,.52-.16.53.53,0,0,1,.24.06c.29.13.39.48.46.8.62,2.88,2.31,10.19,2.94,13.07.39,1.84,3.72,6.43,4.43,7s.82,1.23,1.62,1.84a1.69,1.69,0,0,1,.56.57,1.83,1.83,0,0,1,.15.81l.12,4.88c0,1.9,0,4-1.33,5.37h0l8.73,20.8-.17-.59.23.46.26-21.8s6.79-6.1,7.67-7c.56-.57,4.74-3,7.62-4.67h0c3-3,9.48-5.4,9.48-5.4s6.16-7,7.47-8.28.71-4.94.71-4.94l-3.38-13A25.5,25.5,0,0,1,73,65.7a3,3,0,0,1-2.2.88,7.73,7.73,0,0,1-3.93-1.49s-8.55-8.55-5.86-12.59a2.54,2.54,0,0,1,2.22-1.22c1.76,0,3.86,1.45,5.34,2.7-3-2.65-4.66-3-5.31-3h-.21L63,51l0,0-.06,0,0-.07c-.64-.31-3.5-1.88-3.75-4.55-4.83-1.51-3.9-4.2-3.9-4.2-4.64-3.16,0-8.25,0-8.25-2.07-2.07-.47-5.08-.47-5.08-2.42-3.43.61-7.67.61-7.67.33-3.71,5.89-5.9,5.89-5.9.44-1.85,2.73-2.72,2.73-2.72a4,4,0,0,1,3.73-2.3h.3c2-4.35,9.57-4.77,12.39-4.77.67,0,1.08,0,1.08,0A7.54,7.54,0,0,1,86.1,3.79m38,159.09,12.47-22.48-11.85-17.62c.31,5.06.51,10.26.45,15.15a196.21,196.21,0,0,1-1.75,23.9,1.65,1.65,0,0,1,.68,1m24.56,170.23h0M86.1,0h0a10.74,10.74,0,0,0-5.72,1.73c-4.14,0-11,.71-14.5,5a7.64,7.64,0,0,0-4.53,3,8.32,8.32,0,0,0-2.94,2.79c-2.12,1.1-5.73,3.51-6.62,7.33-1.31,2.22-2.49,5.87-1.12,9.37a8.37,8.37,0,0,0,.11,4.59,9.71,9.71,0,0,0-1.32,5.82A7.59,7.59,0,0,0,51.52,44a6.58,6.58,0,0,0,.56,1.63,8.3,8.3,0,0,0,4,3.64,9.12,9.12,0,0,0,1.33,2.11C56,54.3,56.82,58,59.84,62.45a39.79,39.79,0,0,0,4.39,5.32l.18.19.21.16a11.31,11.31,0,0,0,6.22,2.25,8.33,8.33,0,0,0,.88-.05A32.32,32.32,0,0,0,78,76L81,87.33a8,8,0,0,1,0,1.82c-1.46,1.53-5.19,5.72-6.72,7.44-2,.81-6.63,2.86-9.53,5.54-7,4.05-7.59,4.62-8,5.05s-4.92,4.49-7.51,6.82L48,115.11l0,1.67,0,3.79L47,118.33a13.36,13.36,0,0,0,.87-5.85l-.13-4.87a5.31,5.31,0,0,0-.58-2.49,5.24,5.24,0,0,0-1.51-1.74l0-.08a7.26,7.26,0,0,0-1.51-1.71,24.13,24.13,0,0,1-3.2-4.93c-.32-1.47-.91-4-1.48-6.54s-1.15-5.07-1.46-6.48a4.6,4.6,0,0,0-2.56-3.44,4.33,4.33,0,0,0-1.84-.41,4.76,4.76,0,0,0-2.35.63,7.48,7.48,0,0,0-4,5.39c-.22,2,1,8.55,1,8.61a39,39,0,0,0,1.25,4.29c.09.26.17.51.25.77l-.09,0-.24,0a6.38,6.38,0,0,0-3.88,1.95,4.94,4.94,0,0,0-.76.18,4.8,4.8,0,0,0-2.2,1.51,4.77,4.77,0,0,0-4.11,3.66,5,5,0,0,0,.32,2.94,42.19,42.19,0,0,1,2.25,7.9,4.4,4.4,0,0,0,1.83,3,4.46,4.46,0,0,0,2.53.77h.53c.86,0,1.72,0,2.58-.08A14.7,14.7,0,0,0,31.93,124L42.34,155.2l.15.46.26.4,6,9.31.68,1,1.17.44,4.54,1.72,4.12,1.55.93-4.3,5.54-25.61,4.18,2.61c.86,1.7,2.81,5.56,4.71,9.74,3.48,7.65,4.38,11,4.6,12.33a6.42,6.42,0,0,0-1.54,2.39,6.26,6.26,0,0,0-.15,3.58c-5.23,15.22-19.44,54.88-19.59,55.29l-1.85,5.17,5.4-.1-.06.33-.11.55v.08c-2.29,13.4-3.4,30.46-3.71,35.87-8.4,7.6-7.19,22-6.78,26.88,0,.44.09,1,.09,1.14-.07,2.51-3.06,17.84-4.49,20.22a9.84,9.84,0,0,0-2.26,5.93,16.53,16.53,0,0,1-2.69,2.83c-1.56,1.09-2.51,2.9-2.92,5.53-.41,1.12-1.6,4.45-2.62,8-2.22,7.68-2.25,11.15-.14,13.26,2.63,2.62,9.9,3.82,15.55,3.82a32.79,32.79,0,0,0,12.48-2.23,7.4,7.4,0,0,0,4.45-4.9c1.06-3.77-.61-8.59-5.24-15.13a72,72,0,0,0-3.82-13.94c.57-3.48,2.76-15.78,6.84-24.91a137.14,137.14,0,0,0,7.37-21c3-3.76,5.08-10.86,5.62-12.81l13.16-33,.74-1.85a85.93,85.93,0,0,0,9.89-3.86c10.42,39.07,12.34,45.49,12.86,46.93,0,.28-.11.75-.18,1.15-.77,4.6-2.55,15.32,5.91,45.31a24.45,24.45,0,0,1-1.16,4.88,16.26,16.26,0,0,0-2.29,6.62,10.44,10.44,0,0,0,.12,6.64c1.18,3.09,6.86,6.91,8.57,8,2.92,1.88,8.63,5.08,14,5.43.5,0,1,.05,1.52.05,8.74,0,14.55-5.21,15.35-8.13a4.07,4.07,0,0,0,.12-1.51,4.47,4.47,0,0,0,.39-1.43,4.53,4.53,0,0,0-1.33-3.65l-1-1.05-1.48-.06a12.49,12.49,0,0,1-2-.27,6.7,6.7,0,0,0-2-2.77A13.32,13.32,0,0,0,146,326c-3.58-2.86-7.79-6.19-9-7.17-1.22-1.58-2.57-3.37-3.22-4.29-.17-2.79-.77-12.45-2.93-46.74a25.43,25.43,0,0,0-.1-10.27c-.22-1.24-.72-6.59-.63-29.48l2.63.83.11-5c0-.49.23-10.44-.5-21.39a6.2,6.2,0,0,0,5.09-2.37,5.8,5.8,0,0,0,.86-5l-.28-.92-.68-.68-2.89-2.9c1.21-5.35-1.67-12-3.46-15.48l19-34.14,1-1.87-1.07-1.86L126.68,96.59l-.1-.17-.11-.16a9.09,9.09,0,0,0-4.29-3.21c-.21-.23-.43-.46-.65-.68l-1-1-1.36-.13-5.8-.54c-3.42-.5-9.52-1.74-13.7-4.56A27.22,27.22,0,0,1,99,83c1.56.12,3.14.19,4.75.19,3.93,0,15.87,0,17.34-8.46,2.51-14.49-.5-32.91-7.21-45.23,1.33-2.31.89-5.14-.4-7.52a5.3,5.3,0,0,0,0-.69,8.55,8.55,0,0,0-3-5.13,8,8,0,0,0-.25-3.8c-.88-2.81-3.2-5-6.89-6.59a14,14,0,0,0-9.83-4,14.29,14.29,0,0,0-1.72.1A10,10,0,0,0,86.1,0Zm42.53,146.83c.16-2.75.27-5.73.31-8.85,0-.67,0-1.36,0-2.06l3.14,4.67-3.46,6.24Z"/><polyline class="cls-6" points="34.69 121.17 35.21 121.47 43.24 118.2"/></g><path class="cls-4" d="M220.62,96.67a5.62,5.62,0,0,1,3.42.89,3.06,3.06,0,0,1,1.19,2.6,2.81,2.81,0,0,1-.64,1.8,3.57,3.57,0,0,1-1.79,1.16,3,3,0,0,1,1.84,1.06,3.19,3.19,0,0,1,.57,1.94v1.17a1.68,1.68,0,0,0,.23,1,.85.85,0,0,0,.69.36l.46,0v.78h-.72a1.52,1.52,0,0,1-1.4-.63,2.82,2.82,0,0,1-.4-1.55v-1.13a2.3,2.3,0,0,0-.8-1.84,3.51,3.51,0,0,0-2.24-.71h-3.47v5l1.55.12v.76h-4.23v-.76l1.55-.12v-11l-1.55-.12v-.77Zm-3.06,6h2.93a4.34,4.34,0,0,0,2.73-.7,2.24,2.24,0,0,0,.87-1.85,2.28,2.28,0,0,0-.87-1.91,4.16,4.16,0,0,0-2.6-.68h-3.06Z"/><path class="cls-4" d="M232.7,109.64a4.28,4.28,0,0,1-3.21-1.32,4.59,4.59,0,0,1-1.27-3.34v-.48a4.77,4.77,0,0,1,1.26-3.39,4.09,4.09,0,0,1,3.07-1.34,4,4,0,0,1,3,1.11,4,4,0,0,1,1.08,3v.9h-7.25V105a4,4,0,0,0,.92,2.68,3,3,0,0,0,2.43,1.09,5.33,5.33,0,0,0,1.8-.27,3.53,3.53,0,0,0,1.28-.78l.49.72a4.28,4.28,0,0,1-1.47.89A6,6,0,0,1,232.7,109.64Zm-.15-9a2.83,2.83,0,0,0-2.12.9,3.71,3.71,0,0,0-1,2.23l0,0h6v-.27a2.89,2.89,0,0,0-.79-2.07A2.78,2.78,0,0,0,232.55,100.66Z"/><path class="cls-4" d="M238.33,100.73v-.79h2.49l.14,1.48a3.64,3.64,0,0,1,1.34-1.22,4,4,0,0,1,1.9-.43,3.44,3.44,0,0,1,2.9,1.37,5.87,5.87,0,0,1,1,3.64V105a5.24,5.24,0,0,1-1,3.41,3.53,3.53,0,0,1-2.88,1.27,4.46,4.46,0,0,1-1.89-.38,3.46,3.46,0,0,1-1.33-1.09v4l1.55.12v.78h-4.22v-.78l1.54-.12V100.84Zm8.67,4a5.17,5.17,0,0,0-.78-3,2.59,2.59,0,0,0-2.28-1.14A3,3,0,0,0,241,102.5v4.57a3,3,0,0,0,1.13,1.23,3.45,3.45,0,0,0,1.83.45,2.64,2.64,0,0,0,2.27-1A4.51,4.51,0,0,0,247,105Z"/><path class="cls-4" d="M257.08,109.45a7.38,7.38,0,0,1-.16-.83,5.65,5.65,0,0,1-.05-.71,4.38,4.38,0,0,1-1.52,1.24,4.64,4.64,0,0,1-2.13.49,3.45,3.45,0,0,1-2.34-.72,2.45,2.45,0,0,1-.82-2,2.37,2.37,0,0,1,1.22-2.1,6.23,6.23,0,0,1,3.32-.77h2.27v-1.26a1.94,1.94,0,0,0-.71-1.6,3.06,3.06,0,0,0-2-.58,5.57,5.57,0,0,0-1.57.22,3.72,3.72,0,0,0-1.18.58l-.09,1.28h-.94v-1.83a6.26,6.26,0,0,1,1.7-.83,7,7,0,0,1,2.11-.31,4.31,4.31,0,0,1,2.74.8,2.72,2.72,0,0,1,1,2.29v4.68c0,.19,0,.38,0,.56a4.34,4.34,0,0,0,.07.52l1,.06v.77Zm-3.74-.74a4.36,4.36,0,0,0,2.17-.53,3.24,3.24,0,0,0,1.36-1.36v-1.91h-2.29a4.58,4.58,0,0,0-2.47.59,1.74,1.74,0,0,0-.92,1.5,1.54,1.54,0,0,0,.57,1.24A2.44,2.44,0,0,0,253.34,108.71Z"/><path class="cls-4" d="M263.17,99.94l.15,1.59v.11a3.42,3.42,0,0,1,1.19-1.38,3.18,3.18,0,0,1,1.79-.49,3,3,0,0,1,.42,0l.34.06-.16,1-.84,0a2.7,2.7,0,0,0-1.76.55,3,3,0,0,0-1,1.54v5.68l1.54.11v.77h-4.22v-.77l1.55-.11v-7.73l-1.55-.11v-.79h2.53Z"/><path class="cls-4" d="M272.87,109.64a4.24,4.24,0,0,1-3.2-1.32,4.59,4.59,0,0,1-1.28-3.34v-.48a4.78,4.78,0,0,1,1.27-3.39,4.09,4.09,0,0,1,3.06-1.34,4,4,0,0,1,3,1.11,4,4,0,0,1,1.08,3v.9h-7.25V105a4,4,0,0,0,.93,2.68,3,3,0,0,0,2.42,1.09,5.35,5.35,0,0,0,1.81-.27,3.61,3.61,0,0,0,1.28-.78l.48.72a4.14,4.14,0,0,1-1.46.89A6,6,0,0,1,272.87,109.64Zm-.15-9a2.81,2.81,0,0,0-2.11.9,3.65,3.65,0,0,0-1,2.23l0,0h6v-.27a2.93,2.93,0,0,0-.78-2.07A2.8,2.8,0,0,0,272.72,100.66Z"/><path class="cls-4" d="M283.53,104.78a5.87,5.87,0,0,1,1-3.64,3.41,3.41,0,0,1,2.9-1.37,4,4,0,0,1,1.85.41,3.54,3.54,0,0,1,1.3,1.17l.12-1.41h1v12.27l1.55.12v.78h-4.23v-.78l1.54-.12v-4a3.4,3.4,0,0,1-1.31,1.06,4.18,4.18,0,0,1-1.83.37,3.51,3.51,0,0,1-2.88-1.28,5.23,5.23,0,0,1-1-3.4Zm1.15.18a4.61,4.61,0,0,0,.75,2.76,2.56,2.56,0,0,0,2.24,1,3.42,3.42,0,0,0,1.79-.44,3.09,3.09,0,0,0,1.13-1.22v-4.64a3.41,3.41,0,0,0-1.1-1.28,3,3,0,0,0-1.8-.51,2.52,2.52,0,0,0-2.25,1.15,5.28,5.28,0,0,0-.76,3Z"/><path class="cls-4" d="M301.94,107.89a3.36,3.36,0,0,1-1.33,1.29,4,4,0,0,1-2,.46,3.24,3.24,0,0,1-2.54-1,4.65,4.65,0,0,1-.91-3.17v-4.61l-1.27-.11v-.79h2.4v5.53A3.87,3.87,0,0,0,297,108a2.26,2.26,0,0,0,1.82.75,3.56,3.56,0,0,0,2.05-.52,2.81,2.81,0,0,0,1.08-1.46v-5.9l-1.46-.11v-.79H303v8.63l1.37.11v.77H302Z"/><path class="cls-4" d="M310.61,109.64a4.28,4.28,0,0,1-3.21-1.32,4.59,4.59,0,0,1-1.27-3.34v-.48a4.74,4.74,0,0,1,1.27-3.39,4.06,4.06,0,0,1,3.06-1.34,4,4,0,0,1,3,1.11,4,4,0,0,1,1.08,3v.9h-7.25V105a4,4,0,0,0,.93,2.68,3,3,0,0,0,2.42,1.09,5.33,5.33,0,0,0,1.8-.27,3.66,3.66,0,0,0,1.29-.78l.48.72a4.23,4.23,0,0,1-1.46.89A6,6,0,0,1,310.61,109.64Zm-.15-9a2.79,2.79,0,0,0-2.11.9,3.6,3.6,0,0,0-1,2.23l0,0h6v-.27a2.89,2.89,0,0,0-.79-2.07A2.76,2.76,0,0,0,310.46,100.66Z"/><path class="cls-4" d="M318.19,109a3.67,3.67,0,0,1-.35,1.58,3.77,3.77,0,0,1-1,1.31l-.68-.45a4.39,4.39,0,0,0,.66-1.15,3.72,3.72,0,0,0,.22-1.27V107.8h1.12Z"/><path class="cls-4" d="M324.69,100.73v-.79h2.49l.15,1.48a3.54,3.54,0,0,1,1.33-1.22,4,4,0,0,1,1.9-.43,3.43,3.43,0,0,1,2.9,1.37,5.87,5.87,0,0,1,1,3.64V105a5.24,5.24,0,0,1-1,3.41,3.53,3.53,0,0,1-2.88,1.27,4.46,4.46,0,0,1-1.89-.38,3.46,3.46,0,0,1-1.33-1.09v4l1.55.12v.78h-4.22v-.78l1.54-.12V100.84Zm8.67,4a5.17,5.17,0,0,0-.78-3,2.58,2.58,0,0,0-2.27-1.14,3,3,0,0,0-2.95,1.82v4.57a3,3,0,0,0,1.13,1.23,3.45,3.45,0,0,0,1.83.45,2.64,2.64,0,0,0,2.27-1,4.51,4.51,0,0,0,.77-2.75Z"/><path class="cls-4" d="M343.44,109.45c-.07-.32-.13-.6-.16-.83a5.65,5.65,0,0,1,0-.71,4.38,4.38,0,0,1-1.52,1.24,4.64,4.64,0,0,1-2.13.49,3.45,3.45,0,0,1-2.34-.72,2.45,2.45,0,0,1-.82-2,2.39,2.39,0,0,1,1.22-2.1,6.25,6.25,0,0,1,3.32-.77h2.27v-1.26a2,2,0,0,0-.7-1.6,3.11,3.11,0,0,0-2-.58,5.44,5.44,0,0,0-1.56.22,3.67,3.67,0,0,0-1.19.58l-.09,1.28h-.94v-1.83a6.26,6.26,0,0,1,1.7-.83,7,7,0,0,1,2.11-.31,4.31,4.31,0,0,1,2.74.8,2.72,2.72,0,0,1,1,2.29v4.68c0,.19,0,.38,0,.56a4.35,4.35,0,0,0,.06.52l1,.06v.77Zm-3.74-.74a4.36,4.36,0,0,0,2.17-.53,3.24,3.24,0,0,0,1.36-1.36v-1.91h-2.29a4.58,4.58,0,0,0-2.47.59,1.76,1.76,0,0,0-.92,1.5,1.54,1.54,0,0,0,.57,1.24A2.44,2.44,0,0,0,339.7,108.71Z"/><path class="cls-4" d="M349.53,99.94l.15,1.59v.11a3.49,3.49,0,0,1,1.19-1.38,3.18,3.18,0,0,1,1.79-.49,3,3,0,0,1,.42,0l.34.06-.16,1-.84,0a2.7,2.7,0,0,0-1.76.55,3,3,0,0,0-1,1.54v5.68l1.54.11v.77H347v-.77l1.55-.11v-7.73l-1.55-.11v-.79h2.53Z"/><path class="cls-4" d="M362,109.45a7.38,7.38,0,0,1-.16-.83,4.24,4.24,0,0,1-.05-.71,4.48,4.48,0,0,1-1.52,1.24,4.68,4.68,0,0,1-2.14.49,3.44,3.44,0,0,1-2.33-.72,2.46,2.46,0,0,1-.83-2,2.38,2.38,0,0,1,1.23-2.1,6.2,6.2,0,0,1,3.32-.77h2.27v-1.26a2,2,0,0,0-.71-1.6,3.07,3.07,0,0,0-2-.58,5.44,5.44,0,0,0-1.56.22,3.72,3.72,0,0,0-1.18.58l-.1,1.28h-.94v-1.83a6.48,6.48,0,0,1,1.71-.83,6.9,6.9,0,0,1,2.11-.31,4.3,4.3,0,0,1,2.73.8,2.73,2.73,0,0,1,1,2.29v4.68c0,.19,0,.38,0,.56a4.35,4.35,0,0,0,.06.52l1,.06v.77Zm-3.74-.74a4.39,4.39,0,0,0,2.17-.53,3.24,3.24,0,0,0,1.36-1.36v-1.91h-2.29a4.58,4.58,0,0,0-2.47.59,1.75,1.75,0,0,0-.93,1.5,1.52,1.52,0,0,0,.58,1.24A2.44,2.44,0,0,0,358.24,108.71Z"/><path class="cls-4" d="M370.34,104.78a5.81,5.81,0,0,1,1-3.64,3.41,3.41,0,0,1,2.9-1.37,3.93,3.93,0,0,1,1.84.41,3.57,3.57,0,0,1,1.31,1.17l.11-1.41h1v12.27l1.55.12v.78h-4.24v-.78l1.55-.12v-4a3.55,3.55,0,0,1-1.31,1.06,4.24,4.24,0,0,1-1.83.37,3.51,3.51,0,0,1-2.88-1.28,5.17,5.17,0,0,1-1-3.4Zm1.15.18a4.6,4.6,0,0,0,.74,2.76,2.59,2.59,0,0,0,2.25,1,3.4,3.4,0,0,0,1.78-.44,3,3,0,0,0,1.14-1.22v-4.64a3.52,3.52,0,0,0-1.11-1.28,3,3,0,0,0-1.79-.51,2.54,2.54,0,0,0-2.26,1.15,5.36,5.36,0,0,0-.75,3Z"/><path class="cls-4" d="M388.74,107.89a3.28,3.28,0,0,1-1.32,1.29,4,4,0,0,1-2,.46,3.24,3.24,0,0,1-2.54-1,4.65,4.65,0,0,1-.92-3.17v-4.61l-1.27-.11v-.79h2.4v5.53a3.93,3.93,0,0,0,.64,2.5,2.28,2.28,0,0,0,1.82.75,3.59,3.59,0,0,0,2.06-.52,2.74,2.74,0,0,0,1.07-1.46v-5.9l-1.46-.11v-.79h2.6v8.63l1.38.11v.77h-2.37Z"/><path class="cls-4" d="M397.42,109.64a4.28,4.28,0,0,1-3.21-1.32,4.59,4.59,0,0,1-1.27-3.34v-.48a4.77,4.77,0,0,1,1.26-3.39,4.09,4.09,0,0,1,3.06-1.34,3.78,3.78,0,0,1,4.06,4.06v.9h-7.25V105a4,4,0,0,0,.92,2.68,3,3,0,0,0,2.43,1.09,5.33,5.33,0,0,0,1.8-.27,3.53,3.53,0,0,0,1.28-.78l.49.72a4.28,4.28,0,0,1-1.47.89A6,6,0,0,1,397.42,109.64Zm-.16-9a2.82,2.82,0,0,0-2.11.9,3.71,3.71,0,0,0-1,2.23l0,0h6v-.27a2.89,2.89,0,0,0-.79-2.07A2.79,2.79,0,0,0,397.26,100.66Z"/><path class="cls-4" d="M415.62,107.89a3.28,3.28,0,0,1-1.32,1.29,4,4,0,0,1-2,.46,3.24,3.24,0,0,1-2.54-1,4.65,4.65,0,0,1-.92-3.17v-4.61l-1.27-.11v-.79H410v5.53a3.93,3.93,0,0,0,.64,2.5,2.28,2.28,0,0,0,1.82.75,3.59,3.59,0,0,0,2.06-.52,2.85,2.85,0,0,0,1.07-1.46v-5.9l-1.46-.11v-.79h2.6v8.63l1.38.11v.77h-2.38Z"/><path class="cls-4" d="M419.52,100.73v-.79h2.55l.11,1.58a3.41,3.41,0,0,1,1.32-1.29,3.92,3.92,0,0,1,2-.46,3.49,3.49,0,0,1,2,.53,3,3,0,0,1,1.13,1.62,3.8,3.8,0,0,1,1.32-1.58,3.69,3.69,0,0,1,2.09-.57,3.21,3.21,0,0,1,2.54,1,4.61,4.61,0,0,1,.9,3.13v4.65l1.55.12v.77h-4.25v-.77l1.55-.12v-4.67a3.61,3.61,0,0,0-.67-2.48,2.38,2.38,0,0,0-1.86-.73,2.65,2.65,0,0,0-2.05.78,3.61,3.61,0,0,0-.88,2v5.11l1.55.11v.77h-4.23v-.77l1.55-.11v-4.68a3.65,3.65,0,0,0-.68-2.47,2.44,2.44,0,0,0-1.87-.74,3,3,0,0,0-1.92.57,3,3,0,0,0-1,1.52v5.8l1.55.11v.77h-4.24v-.77l1.55-.11v-7.73Z"/><path class="cls-4" d="M445.45,109.45c-.07-.32-.13-.6-.16-.83a5.65,5.65,0,0,1-.05-.71,4.38,4.38,0,0,1-1.52,1.24,4.64,4.64,0,0,1-2.13.49,3.45,3.45,0,0,1-2.34-.72,2.45,2.45,0,0,1-.82-2,2.39,2.39,0,0,1,1.22-2.1,6.25,6.25,0,0,1,3.32-.77h2.27v-1.26a2,2,0,0,0-.7-1.6,3.09,3.09,0,0,0-2-.58,5.44,5.44,0,0,0-1.56.22,3.67,3.67,0,0,0-1.19.58l-.09,1.28h-.94v-1.83a6.26,6.26,0,0,1,1.7-.83,7,7,0,0,1,2.11-.31,4.31,4.31,0,0,1,2.74.8,2.72,2.72,0,0,1,1,2.29v4.68c0,.19,0,.38,0,.56a4.35,4.35,0,0,0,.06.52l1,.06v.77Zm-3.74-.74a4.4,4.4,0,0,0,2.18-.53,3.21,3.21,0,0,0,1.35-1.36v-1.91H443a4.62,4.62,0,0,0-2.48.59,1.76,1.76,0,0,0-.92,1.5,1.54,1.54,0,0,0,.57,1.24A2.44,2.44,0,0,0,441.71,108.71Z"/><path class="cls-4" d="M461.26,102.88h-.93l-.13-1.35a3,3,0,0,0-1.08-.64,4.53,4.53,0,0,0-1.49-.23,3,3,0,0,0-1.87.5,1.47,1.47,0,0,0-.62,1.17,1.34,1.34,0,0,0,.54,1.09,5.67,5.67,0,0,0,2.14.75,7.4,7.4,0,0,1,2.74,1,2.08,2.08,0,0,1,.91,1.78,2.24,2.24,0,0,1-1,1.93,4.72,4.72,0,0,1-2.74.73,6.83,6.83,0,0,1-2.08-.3,5,5,0,0,1-1.62-.83V106.6h.92l.17,1.35a2.59,2.59,0,0,0,1.15.61,5.36,5.36,0,0,0,1.46.19,3.34,3.34,0,0,0,1.94-.5,1.44,1.44,0,0,0,.71-1.21,1.47,1.47,0,0,0-.59-1.17,5,5,0,0,0-2.14-.82,7.57,7.57,0,0,1-2.72-1,2,2,0,0,1-.89-1.71,2.25,2.25,0,0,1,1-1.84,4.25,4.25,0,0,1,2.63-.75,6.4,6.4,0,0,1,2.06.32,4.25,4.25,0,0,1,1.53.86Z"/><path class="cls-4" d="M468.07,109.64a4.28,4.28,0,0,1-3.21-1.32,4.59,4.59,0,0,1-1.27-3.34v-.48a4.74,4.74,0,0,1,1.27-3.39,4.06,4.06,0,0,1,3.06-1.34,4,4,0,0,1,3,1.11,4,4,0,0,1,1.08,3v.9h-7.25V105a4,4,0,0,0,.92,2.68,3,3,0,0,0,2.43,1.09,5.33,5.33,0,0,0,1.8-.27,3.53,3.53,0,0,0,1.28-.78l.49.72a4.33,4.33,0,0,1-1.46.89A6,6,0,0,1,468.07,109.64Zm-.15-9a2.79,2.79,0,0,0-2.11.9,3.66,3.66,0,0,0-1,2.23l0,0h6v-.27a2.89,2.89,0,0,0-.79-2.07A2.76,2.76,0,0,0,467.92,100.66Z"/><path class="cls-4" d="M474,104.78a5.87,5.87,0,0,1,1-3.64,3.41,3.41,0,0,1,2.9-1.37,4,4,0,0,1,1.85.41,3.54,3.54,0,0,1,1.3,1.17l.11-1.41h1v12.27l1.55.12v.78h-4.24v-.78l1.55-.12v-4a3.48,3.48,0,0,1-1.31,1.06,4.18,4.18,0,0,1-1.83.37,3.51,3.51,0,0,1-2.88-1.28,5.23,5.23,0,0,1-1-3.4Zm1.15.18a4.68,4.68,0,0,0,.74,2.76,2.59,2.59,0,0,0,2.25,1,3.44,3.44,0,0,0,1.79-.44,3.09,3.09,0,0,0,1.13-1.22v-4.64a3.41,3.41,0,0,0-1.1-1.28,3,3,0,0,0-1.8-.51,2.55,2.55,0,0,0-2.26,1.15,5.36,5.36,0,0,0-.75,3Z"/><path class="cls-4" d="M492.4,107.89a3.28,3.28,0,0,1-1.32,1.29,4,4,0,0,1-2,.46,3.24,3.24,0,0,1-2.54-1,4.65,4.65,0,0,1-.91-3.17v-4.61l-1.27-.11v-.79h2.4v5.53a3.87,3.87,0,0,0,.64,2.5,2.24,2.24,0,0,0,1.81.75,3.57,3.57,0,0,0,2.06-.52,2.81,2.81,0,0,0,1.08-1.46v-5.9l-1.46-.11v-.79h2.6v8.63l1.37.11v.77h-2.37Z"/><path class="cls-4" d="M501.08,109.64a4.28,4.28,0,0,1-3.21-1.32A4.59,4.59,0,0,1,496.6,105v-.48a4.74,4.74,0,0,1,1.27-3.39,4.06,4.06,0,0,1,3.06-1.34,4,4,0,0,1,3,1.11,4,4,0,0,1,1.08,3v.9h-7.25V105a4,4,0,0,0,.93,2.68,3,3,0,0,0,2.42,1.09,5.33,5.33,0,0,0,1.8-.27,3.53,3.53,0,0,0,1.28-.78l.49.72a4.23,4.23,0,0,1-1.46.89A6,6,0,0,1,501.08,109.64Zm-.15-9a2.79,2.79,0,0,0-2.11.9,3.66,3.66,0,0,0-1,2.23l0,0h6v-.27a2.89,2.89,0,0,0-.79-2.07A2.76,2.76,0,0,0,500.93,100.66Zm2.68-2.54v.15h-1.06L501,96.8l-1.58,1.47h-1v-.18l2.14-1.94h.93Z"/><path class="cls-4" d="M506.8,108.68l1.55-.11v-7.73l-1.55-.11v-.79h2.56l.1,1.67a3.48,3.48,0,0,1,1.33-1.36,4,4,0,0,1,2-.48,3.31,3.31,0,0,1,2.55.94,4.26,4.26,0,0,1,.87,3v4.91l1.55.11v.77h-4.24v-.77l1.55-.11v-4.9a3.25,3.25,0,0,0-.66-2.31,2.49,2.49,0,0,0-1.87-.68,3.08,3.08,0,0,0-1.95.59,3.17,3.17,0,0,0-1.09,1.55v5.75l1.55.11v.77H506.8Z"/><path class="cls-4" d="M523.82,108.75a3.39,3.39,0,0,0,2-.6,1.9,1.9,0,0,0,.87-1.66h1l0,.05a2.54,2.54,0,0,1-1.13,2.21,4.48,4.48,0,0,1-2.75.89,4.08,4.08,0,0,1-3.24-1.33,5.09,5.09,0,0,1-1.14-3.43v-.37a5.07,5.07,0,0,1,1.14-3.41,4,4,0,0,1,3.23-1.33,5.63,5.63,0,0,1,2.17.41,4.25,4.25,0,0,1,1.61,1.13l0,2.07h-1l-.18-1.69a3.43,3.43,0,0,0-1.14-.75,4.11,4.11,0,0,0-1.54-.28,2.8,2.8,0,0,0-2.44,1.1,4.57,4.57,0,0,0-.8,2.75v.37a4.66,4.66,0,0,0,.79,2.78A2.83,2.83,0,0,0,523.82,108.75Z"/><path class="cls-4" d="M529.74,108.68l1.55-.11v-7.73l-1.55-.11v-.79h2.68v8.63l1.55.11v.77h-4.23Zm2.68-11.46h-1.13V95.74h1.13Z"/><path class="cls-4" d="M543,109.45c-.08-.32-.13-.6-.17-.83a5.63,5.63,0,0,1,0-.71,4.48,4.48,0,0,1-1.52,1.24,4.71,4.71,0,0,1-2.14.49,3.44,3.44,0,0,1-2.33-.72,2.46,2.46,0,0,1-.83-2,2.38,2.38,0,0,1,1.23-2.1,6.2,6.2,0,0,1,3.32-.77h2.27v-1.26a2,2,0,0,0-.71-1.6,3.07,3.07,0,0,0-2-.58,5.44,5.44,0,0,0-1.56.22,3.61,3.61,0,0,0-1.18.58l-.1,1.28h-.94v-1.83a6.48,6.48,0,0,1,1.71-.83,6.9,6.9,0,0,1,2.11-.31,4.3,4.3,0,0,1,2.73.8,2.73,2.73,0,0,1,1,2.29v4.68c0,.19,0,.38,0,.56a4.35,4.35,0,0,0,.06.52l1,.06v.77Zm-3.74-.74a4.39,4.39,0,0,0,2.17-.53,3.24,3.24,0,0,0,1.36-1.36v-1.91h-2.29a4.56,4.56,0,0,0-2.47.59,1.75,1.75,0,0,0-.93,1.5,1.54,1.54,0,0,0,.57,1.24A2.47,2.47,0,0,0,539.23,108.71Z"/><path class="cls-4" d="M558.46,108.08a3.41,3.41,0,0,1-1.32,1.15,4.15,4.15,0,0,1-1.89.41,3.51,3.51,0,0,1-2.88-1.28,5.17,5.17,0,0,1-1-3.4v-.18a5.81,5.81,0,0,1,1-3.64,3.39,3.39,0,0,1,2.89-1.37,3.94,3.94,0,0,1,1.87.42,3.44,3.44,0,0,1,1.3,1.19V96.64l-1.54-.11v-.79h2.68v12.83l1.55.11v.77h-2.56Zm-6-3.12a4.5,4.5,0,0,0,.75,2.74,2.59,2.59,0,0,0,2.24,1,3.45,3.45,0,0,0,1.83-.45,3.16,3.16,0,0,0,1.14-1.26v-4.5a3.26,3.26,0,0,0-1.09-1.32,3.15,3.15,0,0,0-1.86-.51,2.51,2.51,0,0,0-2.25,1.14,5.3,5.3,0,0,0-.76,3Z"/><path class="cls-4" d="M567.39,109.64a4.24,4.24,0,0,1-3.2-1.32,4.59,4.59,0,0,1-1.28-3.34v-.48a4.78,4.78,0,0,1,1.27-3.39,4.09,4.09,0,0,1,3.06-1.34,4,4,0,0,1,3,1.11,4,4,0,0,1,1.09,3v.9H564V105a4,4,0,0,0,.93,2.68,3,3,0,0,0,2.42,1.09,5.35,5.35,0,0,0,1.81-.27,3.61,3.61,0,0,0,1.28-.78l.48.72a4.14,4.14,0,0,1-1.46.89A6,6,0,0,1,567.39,109.64Zm-.15-9a2.81,2.81,0,0,0-2.11.9,3.65,3.65,0,0,0-1,2.23l0,0h6v-.27a2.94,2.94,0,0,0-.79-2.07A2.8,2.8,0,0,0,567.24,100.66Z"/><path class="cls-4" d="M577.75,100.73v-.79h2.5l.14,1.48a3.61,3.61,0,0,1,1.33-1.22,4,4,0,0,1,1.9-.43,3.43,3.43,0,0,1,2.9,1.37,5.81,5.81,0,0,1,1,3.64V105a5.18,5.18,0,0,1-1,3.41,3.53,3.53,0,0,1-2.88,1.27,4.46,4.46,0,0,1-1.89-.38,3.43,3.43,0,0,1-1.32-1.09v4l1.54.12v.78h-4.22v-.78l1.55-.12V100.84Zm8.67,4a5.25,5.25,0,0,0-.77-3,2.59,2.59,0,0,0-2.28-1.14,3.16,3.16,0,0,0-1.87.51,3.11,3.11,0,0,0-1.07,1.31v4.57a2.89,2.89,0,0,0,1.12,1.23,3.46,3.46,0,0,0,1.84.45,2.62,2.62,0,0,0,2.26-1,4.44,4.44,0,0,0,.77-2.75Z"/><path class="cls-4" d="M596.5,109.45c-.07-.32-.13-.6-.16-.83a5.63,5.63,0,0,1,0-.71,4.48,4.48,0,0,1-1.52,1.24,4.71,4.71,0,0,1-2.14.49,3.44,3.44,0,0,1-2.33-.72,2.46,2.46,0,0,1-.83-2,2.38,2.38,0,0,1,1.23-2.1,6.2,6.2,0,0,1,3.32-.77h2.27v-1.26a2,2,0,0,0-.71-1.6,3.07,3.07,0,0,0-2-.58,5.44,5.44,0,0,0-1.56.22,3.61,3.61,0,0,0-1.18.58l-.1,1.28h-.94v-1.83a6.33,6.33,0,0,1,1.71-.83,6.9,6.9,0,0,1,2.11-.31,4.3,4.3,0,0,1,2.73.8,2.73,2.73,0,0,1,1,2.29v4.68c0,.19,0,.38,0,.56a4.35,4.35,0,0,0,.06.52l1,.06v.77Zm-3.74-.74a4.4,4.4,0,0,0,2.18-.53,3.3,3.3,0,0,0,1.36-1.36v-1.91H594a4.56,4.56,0,0,0-2.47.59,1.75,1.75,0,0,0-.93,1.5,1.54,1.54,0,0,0,.57,1.24A2.46,2.46,0,0,0,592.76,108.71Z"/><path class="cls-4" d="M607.59,102.88h-.93l-.13-1.35a3.19,3.19,0,0,0-1.08-.64,4.55,4.55,0,0,0-1.5-.23,3,3,0,0,0-1.86.5,1.47,1.47,0,0,0-.62,1.17,1.36,1.36,0,0,0,.53,1.09,5.67,5.67,0,0,0,2.14.75,7.39,7.39,0,0,1,2.75,1,2.1,2.1,0,0,1,.91,1.78,2.26,2.26,0,0,1-1,1.93,4.74,4.74,0,0,1-2.75.73,6.72,6.72,0,0,1-2.07-.3,4.77,4.77,0,0,1-1.62-.83V106.6h.92l.16,1.35a2.65,2.65,0,0,0,1.15.61,5.47,5.47,0,0,0,1.46.19,3.39,3.39,0,0,0,2-.5,1.46,1.46,0,0,0,.71-1.21,1.5,1.5,0,0,0-.59-1.17,5,5,0,0,0-2.15-.82,7.51,7.51,0,0,1-2.71-1,2,2,0,0,1-.89-1.71,2.22,2.22,0,0,1,1-1.84,4.24,4.24,0,0,1,2.62-.75,6.47,6.47,0,0,1,2.07.32,4.2,4.2,0,0,1,1.52.86Z"/><path class="cls-4" d="M617.32,102.88h-.93l-.13-1.35a3.19,3.19,0,0,0-1.08-.64,4.59,4.59,0,0,0-1.5-.23,2.93,2.93,0,0,0-1.86.5,1.44,1.44,0,0,0-.62,1.17,1.33,1.33,0,0,0,.53,1.09,5.67,5.67,0,0,0,2.14.75,7.46,7.46,0,0,1,2.75,1,2.1,2.1,0,0,1,.91,1.78,2.26,2.26,0,0,1-1,1.93,4.76,4.76,0,0,1-2.75.73,6.72,6.72,0,0,1-2.07-.3,4.77,4.77,0,0,1-1.62-.83V106.6H611l.16,1.35a2.65,2.65,0,0,0,1.15.61,5.41,5.41,0,0,0,1.46.19,3.34,3.34,0,0,0,1.94-.5,1.45,1.45,0,0,0,.72-1.21,1.48,1.48,0,0,0-.6-1.17,4.9,4.9,0,0,0-2.14-.82,7.65,7.65,0,0,1-2.72-1,2,2,0,0,1-.88-1.71,2.23,2.23,0,0,1,1-1.84,4.27,4.27,0,0,1,2.63-.75,6.47,6.47,0,0,1,2.07.32,4.2,4.2,0,0,1,1.52.86Z"/><path class="cls-4" d="M619.6,104.56a4.89,4.89,0,0,1,1.24-3.45,4.73,4.73,0,0,1,6.6,0,4.93,4.93,0,0,1,1.24,3.45v.29a4.87,4.87,0,0,1-1.24,3.45,4.73,4.73,0,0,1-6.6,0,4.87,4.87,0,0,1-1.24-3.45Zm1.13.29a4.32,4.32,0,0,0,.91,2.78,3.35,3.35,0,0,0,5,0,4.32,4.32,0,0,0,.9-2.78v-.29a4.23,4.23,0,0,0-.91-2.76,3.3,3.3,0,0,0-5,0,4.28,4.28,0,0,0-.91,2.76Z"/><path class="cls-4" d="M638,102.88h-.93l-.13-1.35a3.19,3.19,0,0,0-1.08-.64,4.53,4.53,0,0,0-1.49-.23,3,3,0,0,0-1.87.5,1.47,1.47,0,0,0-.62,1.17,1.36,1.36,0,0,0,.53,1.09,5.74,5.74,0,0,0,2.14.75,7.39,7.39,0,0,1,2.75,1,2.08,2.08,0,0,1,.91,1.78,2.26,2.26,0,0,1-1,1.93,4.74,4.74,0,0,1-2.75.73,6.72,6.72,0,0,1-2.07-.3,4.87,4.87,0,0,1-1.62-.83V106.6h.92l.16,1.35a2.71,2.71,0,0,0,1.15.61,5.47,5.47,0,0,0,1.46.19,3.39,3.39,0,0,0,2-.5,1.46,1.46,0,0,0,.71-1.21,1.5,1.5,0,0,0-.59-1.17,5,5,0,0,0-2.14-.82,7.5,7.5,0,0,1-2.72-1,2,2,0,0,1-.89-1.71,2.22,2.22,0,0,1,1-1.84,4.25,4.25,0,0,1,2.63-.75,6.4,6.4,0,0,1,2.06.32,4.2,4.2,0,0,1,1.52.86Z"/><path class="cls-4" d="M214.83,122.33v-.79h2.49l.14,1.48a3.64,3.64,0,0,1,1.34-1.22,4,4,0,0,1,1.9-.43,3.44,3.44,0,0,1,2.9,1.37,5.87,5.87,0,0,1,1,3.64v.18a5.24,5.24,0,0,1-1,3.41,3.53,3.53,0,0,1-2.88,1.27,4.46,4.46,0,0,1-1.89-.38,3.39,3.39,0,0,1-1.33-1.09v4l1.55.12v.78h-4.22v-.78l1.54-.12V122.44Zm8.67,4a5.17,5.17,0,0,0-.78-3,2.59,2.59,0,0,0-2.28-1.14,3.15,3.15,0,0,0-1.86.51,3.07,3.07,0,0,0-1.08,1.31v4.57a3,3,0,0,0,1.13,1.23,3.45,3.45,0,0,0,1.83.45,2.66,2.66,0,0,0,2.27-1,4.53,4.53,0,0,0,.77-2.75Z"/><path class="cls-4" d="M226.49,126.16a4.89,4.89,0,0,1,1.24-3.45,4.73,4.73,0,0,1,6.6,0,4.89,4.89,0,0,1,1.24,3.45v.29a4.89,4.89,0,0,1-1.24,3.45,4.26,4.26,0,0,1-3.28,1.34,4.33,4.33,0,0,1-3.32-1.34,4.89,4.89,0,0,1-1.24-3.45Zm1.14.29a4.32,4.32,0,0,0,.9,2.78,3,3,0,0,0,2.52,1.12,3,3,0,0,0,2.48-1.12,4.32,4.32,0,0,0,.9-2.78v-.29a4.28,4.28,0,0,0-.9-2.76,3.31,3.31,0,0,0-5,0,4.28,4.28,0,0,0-.9,2.76Z"/><path class="cls-4" d="M244.87,124.48h-.93l-.13-1.35a3,3,0,0,0-1.08-.64,4.53,4.53,0,0,0-1.49-.23,3,3,0,0,0-1.87.5,1.47,1.47,0,0,0-.62,1.17,1.35,1.35,0,0,0,.54,1.09,5.67,5.67,0,0,0,2.14.75,7.4,7.4,0,0,1,2.74,1,2.08,2.08,0,0,1,.91,1.78,2.22,2.22,0,0,1-1,1.92,4.63,4.63,0,0,1-2.74.74,6.83,6.83,0,0,1-2.08-.3,5,5,0,0,1-1.62-.83V128.2h.92l.17,1.35a2.59,2.59,0,0,0,1.15.61,5.36,5.36,0,0,0,1.46.19,3.34,3.34,0,0,0,1.94-.5,1.44,1.44,0,0,0,.71-1.21,1.47,1.47,0,0,0-.59-1.17,4.9,4.9,0,0,0-2.14-.82,7.57,7.57,0,0,1-2.72-1,2,2,0,0,1-.89-1.71,2.25,2.25,0,0,1,1-1.84,4.25,4.25,0,0,1,2.63-.75,6.4,6.4,0,0,1,2.06.32,4.25,4.25,0,0,1,1.53.86Z"/><path class="cls-4" d="M254.6,124.48h-.93l-.13-1.35a3,3,0,0,0-1.08-.64,4.53,4.53,0,0,0-1.49-.23,3,3,0,0,0-1.87.5,1.47,1.47,0,0,0-.62,1.17A1.35,1.35,0,0,0,249,125a5.6,5.6,0,0,0,2.14.75,7.4,7.4,0,0,1,2.74,1,2.08,2.08,0,0,1,.91,1.78,2.22,2.22,0,0,1-1,1.92,4.66,4.66,0,0,1-2.75.74,6.77,6.77,0,0,1-2.07-.3,5,5,0,0,1-1.62-.83V128.2h.92l.16,1.35a2.69,2.69,0,0,0,1.16.61,5.34,5.34,0,0,0,1.45.19,3.35,3.35,0,0,0,1.95-.5,1.44,1.44,0,0,0,.71-1.21,1.5,1.5,0,0,0-.59-1.17,5,5,0,0,0-2.14-.82,7.57,7.57,0,0,1-2.72-1,2,2,0,0,1-.89-1.71,2.22,2.22,0,0,1,1-1.84,4.25,4.25,0,0,1,2.63-.75,6.4,6.4,0,0,1,2.06.32,4.25,4.25,0,0,1,1.53.86Z"/><path class="cls-4" d="M264,131.05a7.38,7.38,0,0,1-.16-.83,5.65,5.65,0,0,1-.05-.71,4.5,4.5,0,0,1-1.52,1.24,4.64,4.64,0,0,1-2.13.49,3.45,3.45,0,0,1-2.34-.72,2.45,2.45,0,0,1-.82-2,2.39,2.39,0,0,1,1.22-2.1,6.25,6.25,0,0,1,3.32-.77h2.27v-1.26a1.94,1.94,0,0,0-.71-1.6,3.06,3.06,0,0,0-2-.58,5.57,5.57,0,0,0-1.57.22,3.72,3.72,0,0,0-1.18.58l-.09,1.28h-.94v-1.83a6.26,6.26,0,0,1,1.7-.83,7,7,0,0,1,2.11-.31,4.31,4.31,0,0,1,2.74.8,2.72,2.72,0,0,1,1,2.29v4.68c0,.19,0,.38,0,.56a4.6,4.6,0,0,0,.06.52l1,.06v.77Zm-3.74-.74a4.36,4.36,0,0,0,2.17-.53,3.24,3.24,0,0,0,1.36-1.36v-1.91h-2.29a4.58,4.58,0,0,0-2.47.59,1.76,1.76,0,0,0-.92,1.5,1.54,1.54,0,0,0,.57,1.24A2.44,2.44,0,0,0,260.23,130.31Z"/><path class="cls-4" d="M279.78,124.48h-.93l-.13-1.35a3,3,0,0,0-1.08-.64,4.53,4.53,0,0,0-1.49-.23,3,3,0,0,0-1.87.5,1.47,1.47,0,0,0-.62,1.17,1.35,1.35,0,0,0,.54,1.09,5.6,5.6,0,0,0,2.14.75,7.4,7.4,0,0,1,2.74,1,2.08,2.08,0,0,1,.91,1.78,2.22,2.22,0,0,1-1,1.92,4.66,4.66,0,0,1-2.75.74,6.77,6.77,0,0,1-2.07-.3,5,5,0,0,1-1.62-.83V128.2h.92l.17,1.35a2.59,2.59,0,0,0,1.15.61,5.34,5.34,0,0,0,1.45.19,3.35,3.35,0,0,0,1.95-.5,1.44,1.44,0,0,0,.71-1.21,1.5,1.5,0,0,0-.59-1.17,5,5,0,0,0-2.14-.82,7.57,7.57,0,0,1-2.72-1,2,2,0,0,1-.89-1.71,2.22,2.22,0,0,1,1-1.84,4.25,4.25,0,0,1,2.63-.75,6.4,6.4,0,0,1,2.06.32,4.25,4.25,0,0,1,1.53.86Z"/><path class="cls-4" d="M286.59,131.24a4.28,4.28,0,0,1-3.21-1.32,4.59,4.59,0,0,1-1.27-3.34v-.48a4.74,4.74,0,0,1,1.27-3.39,4.06,4.06,0,0,1,3.06-1.34,4,4,0,0,1,3,1.11,4,4,0,0,1,1.08,3v.89h-7.25v.26a4,4,0,0,0,.92,2.68,3,3,0,0,0,2.43,1.09,5.33,5.33,0,0,0,1.8-.27,3.53,3.53,0,0,0,1.28-.78l.49.72a4.33,4.33,0,0,1-1.46.89A6.07,6.07,0,0,1,286.59,131.24Zm-.15-9a2.83,2.83,0,0,0-2.12.9,3.71,3.71,0,0,0-1,2.23l0,0h6v-.27a2.89,2.89,0,0,0-.79-2.07A2.78,2.78,0,0,0,286.44,122.26Z"/><path class="cls-4" d="M295,121.54l.14,1.59v.11a3.49,3.49,0,0,1,1.19-1.38,3.2,3.2,0,0,1,1.79-.49,2.77,2.77,0,0,1,.42,0l.34.06-.15,1-.85,0a2.72,2.72,0,0,0-1.76.55,3.11,3.11,0,0,0-1,1.54v5.68l1.55.11v.77h-4.23v-.77l1.55-.11v-7.73l-1.55-.11v-.79H295Z"/><path class="cls-4" d="M309.44,130.35a3.42,3.42,0,0,0,2-.6,1.92,1.92,0,0,0,.86-1.66h1l0,0a2.55,2.55,0,0,1-1.14,2.21,4.46,4.46,0,0,1-2.75.89,4,4,0,0,1-3.23-1.33,5,5,0,0,1-1.15-3.43v-.37a5,5,0,0,1,1.15-3.41,4,4,0,0,1,3.22-1.33,5.72,5.72,0,0,1,2.18.41,4.29,4.29,0,0,1,1.6,1.13l.05,2.07h-1l-.18-1.69a3.38,3.38,0,0,0-1.13-.75,4.2,4.2,0,0,0-1.55-.28,2.81,2.81,0,0,0-2.44,1.1,4.56,4.56,0,0,0-.79,2.75v.37a4.66,4.66,0,0,0,.78,2.78A2.83,2.83,0,0,0,309.44,130.35Z"/><path class="cls-4" d="M315.11,118.12v-.78h2.68v5.83a3.62,3.62,0,0,1,1.36-1.33,4.13,4.13,0,0,1,2-.47,3.24,3.24,0,0,1,2.49.93,4.11,4.11,0,0,1,.87,2.89v5l1.54.11v.77h-4.23v-.77l1.55-.11v-5a3.1,3.1,0,0,0-.66-2.22,2.47,2.47,0,0,0-1.82-.67,3.22,3.22,0,0,0-1.95.57,3.28,3.28,0,0,0-1.15,1.51v5.81l1.54.11v.77h-4.22v-.77l1.55-.11V118.24Z"/><path class="cls-4" d="M334.85,131.05c-.07-.32-.13-.6-.16-.83a5.65,5.65,0,0,1-.05-.71,4.5,4.5,0,0,1-1.52,1.24,4.64,4.64,0,0,1-2.13.49,3.45,3.45,0,0,1-2.34-.72,2.45,2.45,0,0,1-.82-2,2.39,2.39,0,0,1,1.22-2.1,6.25,6.25,0,0,1,3.32-.77h2.27v-1.26a2,2,0,0,0-.7-1.6,3.11,3.11,0,0,0-2-.58,5.44,5.44,0,0,0-1.56.22,3.67,3.67,0,0,0-1.19.58l-.09,1.28h-.94v-1.83a6.26,6.26,0,0,1,1.7-.83,7,7,0,0,1,2.11-.31,4.31,4.31,0,0,1,2.74.8,2.72,2.72,0,0,1,1,2.29v4.68c0,.19,0,.38,0,.56a4.6,4.6,0,0,0,.06.52l1,.06v.77Zm-3.74-.74a4.36,4.36,0,0,0,2.17-.53,3.24,3.24,0,0,0,1.36-1.36v-1.91h-2.29a4.58,4.58,0,0,0-2.47.59,1.76,1.76,0,0,0-.92,1.5,1.54,1.54,0,0,0,.57,1.24A2.44,2.44,0,0,0,331.11,130.31Z"/><path class="cls-4" d="M338.24,122.33v-.79h2.55l.11,1.58a3.5,3.5,0,0,1,1.32-1.3,4,4,0,0,1,2-.45,3.49,3.49,0,0,1,2,.53,2.93,2.93,0,0,1,1.13,1.62,3.8,3.8,0,0,1,1.32-1.58,3.69,3.69,0,0,1,2.09-.57,3.19,3.19,0,0,1,2.54,1,4.61,4.61,0,0,1,.9,3.13v4.65l1.55.12v.77h-4.25v-.77l1.55-.12v-4.67a3.61,3.61,0,0,0-.67-2.48,2.4,2.4,0,0,0-1.86-.73,2.65,2.65,0,0,0-2.05.78,3.69,3.69,0,0,0-.89,2,.53.53,0,0,0,0,.13v5l1.55.11v.77h-4.23v-.77l1.54-.11v-4.68a3.59,3.59,0,0,0-.68-2.47,2.4,2.4,0,0,0-1.86-.74,3,3,0,0,0-1.92.57,3,3,0,0,0-1,1.52v5.8l1.54.11v.77h-4.23v-.77l1.55-.11v-7.73Z"/><path class="cls-4" d="M364.17,131.05a7.38,7.38,0,0,1-.16-.83,5.65,5.65,0,0,1-.05-.71,4.5,4.5,0,0,1-1.52,1.24,4.64,4.64,0,0,1-2.13.49,3.45,3.45,0,0,1-2.34-.72,2.45,2.45,0,0,1-.82-2,2.37,2.37,0,0,1,1.22-2.1,6.23,6.23,0,0,1,3.32-.77H364v-1.26a1.94,1.94,0,0,0-.71-1.6,3.06,3.06,0,0,0-2-.58,5.51,5.51,0,0,0-1.57.22,3.72,3.72,0,0,0-1.18.58l-.09,1.28h-.94v-1.83a6.26,6.26,0,0,1,1.7-.83,7,7,0,0,1,2.11-.31,4.31,4.31,0,0,1,2.74.8,2.72,2.72,0,0,1,1,2.29v4.68c0,.19,0,.38,0,.56a4.63,4.63,0,0,0,.07.52l1,.06v.77Zm-3.74-.74a4.36,4.36,0,0,0,2.17-.53,3.24,3.24,0,0,0,1.36-1.36v-1.91h-2.29a4.58,4.58,0,0,0-2.47.59,1.74,1.74,0,0,0-.92,1.5,1.54,1.54,0,0,0,.57,1.24A2.44,2.44,0,0,0,360.43,130.31Z"/><path class="cls-4" d="M374.94,129.68a3.41,3.41,0,0,1-1.32,1.15,4.16,4.16,0,0,1-1.9.41,3.53,3.53,0,0,1-2.88-1.28,5.23,5.23,0,0,1-1-3.4v-.18a5.87,5.87,0,0,1,1-3.64,3.43,3.43,0,0,1,2.9-1.37,3.87,3.87,0,0,1,1.86.42,3.4,3.4,0,0,1,1.31,1.19v-4.74l-1.54-.12v-.78h2.68v12.83l1.55.11v.77H375Zm-6-3.12a4.52,4.52,0,0,0,.75,2.74,2.58,2.58,0,0,0,2.24,1,3.45,3.45,0,0,0,1.83-.45,3.16,3.16,0,0,0,1.14-1.26v-4.5a3.26,3.26,0,0,0-1.09-1.32,3.15,3.15,0,0,0-1.86-.51,2.51,2.51,0,0,0-2.25,1.14,5.2,5.2,0,0,0-.76,3Z"/><path class="cls-4" d="M386.44,131.05c-.08-.32-.13-.6-.17-.83a5.63,5.63,0,0,1,0-.71,4.6,4.6,0,0,1-1.52,1.24,4.68,4.68,0,0,1-2.14.49,3.44,3.44,0,0,1-2.33-.72,2.46,2.46,0,0,1-.83-2,2.38,2.38,0,0,1,1.23-2.1,6.2,6.2,0,0,1,3.32-.77h2.27v-1.26a2,2,0,0,0-.71-1.6,3.07,3.07,0,0,0-2-.58,5.44,5.44,0,0,0-1.56.22,3.61,3.61,0,0,0-1.18.58l-.1,1.28h-.94v-1.83a6.48,6.48,0,0,1,1.71-.83,6.9,6.9,0,0,1,2.11-.31,4.3,4.3,0,0,1,2.73.8,2.73,2.73,0,0,1,1,2.29v4.68c0,.19,0,.38,0,.56a4.6,4.6,0,0,0,.06.52l1,.06v.77Zm-3.74-.74a4.39,4.39,0,0,0,2.17-.53,3.24,3.24,0,0,0,1.36-1.36v-1.91h-2.29a4.56,4.56,0,0,0-2.47.59,1.75,1.75,0,0,0-.93,1.5,1.52,1.52,0,0,0,.58,1.24A2.44,2.44,0,0,0,382.7,130.31Z"/><path class="cls-4" d="M401.93,129.68a3.41,3.41,0,0,1-1.32,1.15,4.15,4.15,0,0,1-1.89.41,3.51,3.51,0,0,1-2.88-1.28,5.17,5.17,0,0,1-1-3.4v-.18a5.81,5.81,0,0,1,1-3.64,3.41,3.41,0,0,1,2.9-1.37,3.93,3.93,0,0,1,1.86.42,3.54,3.54,0,0,1,1.31,1.19v-4.74l-1.55-.12v-.78h2.69v12.83l1.54.11v.77H402Zm-6-3.12a4.52,4.52,0,0,0,.74,2.74,2.59,2.59,0,0,0,2.24,1,3.45,3.45,0,0,0,1.83-.45,3.25,3.25,0,0,0,1.15-1.26v-4.5a3.37,3.37,0,0,0-1.1-1.32,3.15,3.15,0,0,0-1.86-.51,2.51,2.51,0,0,0-2.25,1.14,5.28,5.28,0,0,0-.75,3Z"/><path class="cls-4" d="M410.87,131.24a4.26,4.26,0,0,1-3.21-1.32,4.59,4.59,0,0,1-1.27-3.34v-.48a4.77,4.77,0,0,1,1.26-3.39,4.09,4.09,0,0,1,3.06-1.34,4,4,0,0,1,3,1.11,4,4,0,0,1,1.09,3v.89h-7.26v.26a4,4,0,0,0,.93,2.68,3,3,0,0,0,2.43,1.09,5.33,5.33,0,0,0,1.8-.27,3.53,3.53,0,0,0,1.28-.78l.48.72a4.14,4.14,0,0,1-1.46.89A6,6,0,0,1,410.87,131.24Zm-.16-9a2.81,2.81,0,0,0-2.11.9,3.71,3.71,0,0,0-1,2.23l0,0h6v-.27a2.94,2.94,0,0,0-.79-2.07A2.8,2.8,0,0,0,410.71,122.26Z"/><path class="cls-4" d="M428.61,131.05c-.07-.32-.13-.6-.16-.83a5.65,5.65,0,0,1-.05-.71,4.56,4.56,0,0,1-1.51,1.24,4.71,4.71,0,0,1-2.14.49,3.42,3.42,0,0,1-2.33-.72,2.46,2.46,0,0,1-.83-2,2.39,2.39,0,0,1,1.22-2.1,6.26,6.26,0,0,1,3.33-.77h2.26v-1.26a2,2,0,0,0-.7-1.6,3.07,3.07,0,0,0-2-.58,5.44,5.44,0,0,0-1.56.22,3.61,3.61,0,0,0-1.18.58l-.1,1.28h-.94v-1.83a6.41,6.41,0,0,1,1.7-.83,7,7,0,0,1,2.12-.31,4.3,4.3,0,0,1,2.73.8,2.72,2.72,0,0,1,1,2.29v4.68c0,.19,0,.38,0,.56a4.6,4.6,0,0,0,.06.52l1,.06v.77Zm-3.74-.74a4.4,4.4,0,0,0,2.18-.53,3.21,3.21,0,0,0,1.35-1.36v-1.91h-2.28a4.62,4.62,0,0,0-2.48.59,1.76,1.76,0,0,0-.92,1.5,1.54,1.54,0,0,0,.57,1.24A2.46,2.46,0,0,0,424.87,130.31Z"/><path class="cls-4" d="M432,118.12v-.78h2.68v12.83l1.54.11v.77H432v-.77l1.55-.11V118.24Z"/><path class="cls-4" d="M438,126.38a5.81,5.81,0,0,1,1.05-3.64,3.44,3.44,0,0,1,2.91-1.37,3.88,3.88,0,0,1,1.89.44,3.79,3.79,0,0,1,1.33,1.25l.13-1.52h1v9.39a3.88,3.88,0,0,1-1.08,2.9,4,4,0,0,1-3,1.06,8.14,8.14,0,0,1-1.58-.16,6.53,6.53,0,0,1-1.47-.46l.3-.89a7.05,7.05,0,0,0,1.3.42,6.6,6.6,0,0,0,1.43.15,2.83,2.83,0,0,0,2.2-.8,3.15,3.15,0,0,0,.74-2.22v-1.2a3.57,3.57,0,0,1-1.32,1.12,4.22,4.22,0,0,1-1.87.39A3.56,3.56,0,0,1,439,130a5.23,5.23,0,0,1-1-3.4Zm1.14.18a4.54,4.54,0,0,0,.75,2.74,2.64,2.64,0,0,0,2.26,1,3.37,3.37,0,0,0,1.84-.46,3.11,3.11,0,0,0,1.14-1.29v-4.41a3.37,3.37,0,0,0-1.09-1.35,3.09,3.09,0,0,0-1.87-.53,2.56,2.56,0,0,0-2.27,1.14,5.25,5.25,0,0,0-.76,3Z"/><path class="cls-4" d="M448.84,126.16a4.89,4.89,0,0,1,1.24-3.45,4.73,4.73,0,0,1,6.6,0,4.89,4.89,0,0,1,1.24,3.45v.29a4.89,4.89,0,0,1-1.24,3.45,4.27,4.27,0,0,1-3.29,1.34,4.31,4.31,0,0,1-3.31-1.34,4.89,4.89,0,0,1-1.24-3.45Zm1.14.29a4.32,4.32,0,0,0,.9,2.78,3.35,3.35,0,0,0,5,0,4.32,4.32,0,0,0,.9-2.78v-.29a4.28,4.28,0,0,0-.9-2.76,3.31,3.31,0,0,0-5,0,4.28,4.28,0,0,0-.9,2.76Z"/><path class="cls-4" d="M462.23,121.54l.14,1.59v.11a3.49,3.49,0,0,1,1.19-1.38,3.2,3.2,0,0,1,1.79-.49,3,3,0,0,1,.43,0l.33.06-.15,1-.84,0a2.69,2.69,0,0,0-1.76.55,3.13,3.13,0,0,0-1,1.54v5.68l1.55.11v.77H459.7v-.77l1.54-.11v-7.73l-1.54-.11v-.79h2.53Z"/><path class="cls-4" d="M467.51,130.28l1.54-.11v-7.73l-1.54-.11v-.79h2.67v8.63l1.55.11v.77h-4.22Zm2.67-11.46h-1.13v-1.48h1.13Z"/><path class="cls-4" d="M476.25,119.11v2.43h2.26v.87h-2.26v6.19a1.88,1.88,0,0,0,.37,1.32,1.22,1.22,0,0,0,1,.4,4.58,4.58,0,0,0,.53,0c.18,0,.38,0,.61-.07l.17.78a2.87,2.87,0,0,1-.69.18,5.76,5.76,0,0,1-.82.06,2.25,2.25,0,0,1-1.69-.63,2.86,2.86,0,0,1-.6-2v-6.19h-1.76v-.87h1.76v-2.43Z"/><path class="cls-4" d="M480.35,122.33v-.79h2.55l.11,1.58a3.5,3.5,0,0,1,1.32-1.3,4,4,0,0,1,2-.45,3.49,3.49,0,0,1,2,.53,2.93,2.93,0,0,1,1.13,1.62,3.8,3.8,0,0,1,1.32-1.58,3.69,3.69,0,0,1,2.09-.57,3.19,3.19,0,0,1,2.54,1,4.61,4.61,0,0,1,.9,3.13v4.65l1.55.12v.77h-4.25v-.77l1.55-.12v-4.67a3.61,3.61,0,0,0-.67-2.48,2.4,2.4,0,0,0-1.86-.73,2.65,2.65,0,0,0-2.05.78,3.69,3.69,0,0,0-.89,2,.53.53,0,0,0,0,.13v5l1.55.11v.77H487v-.77l1.54-.11v-4.68a3.59,3.59,0,0,0-.68-2.47,2.4,2.4,0,0,0-1.86-.74,3,3,0,0,0-1.92.57,3,3,0,0,0-1,1.52v5.8l1.54.11v.77h-4.23v-.77l1.55-.11v-7.73Z"/><path class="cls-4" d="M499.1,126.16a4.89,4.89,0,0,1,1.24-3.45,4.73,4.73,0,0,1,6.6,0,4.93,4.93,0,0,1,1.24,3.45v.29a4.89,4.89,0,0,1-1.24,3.45,4.73,4.73,0,0,1-6.6,0,4.89,4.89,0,0,1-1.24-3.45Zm1.13.29a4.32,4.32,0,0,0,.91,2.78,3.35,3.35,0,0,0,5,0,4.32,4.32,0,0,0,.9-2.78v-.29a4.23,4.23,0,0,0-.91-2.76,3.3,3.3,0,0,0-5,0,4.28,4.28,0,0,0-.91,2.76Z"/><path class="cls-4" d="M511.68,130.63a4,4,0,0,1-1.33,2.89l-.67-.45a4.29,4.29,0,0,0,.66-1.16,3.62,3.62,0,0,0,.21-1.26V129.4h1.13Z"/><path class="cls-4" d="M525.57,131.05a7.38,7.38,0,0,1-.16-.83,4.24,4.24,0,0,1,0-.71,4.6,4.6,0,0,1-1.52,1.24,4.68,4.68,0,0,1-2.14.49,3.44,3.44,0,0,1-2.33-.72,2.46,2.46,0,0,1-.83-2,2.38,2.38,0,0,1,1.23-2.1,6.2,6.2,0,0,1,3.32-.77h2.27v-1.26a2,2,0,0,0-.71-1.6,3.07,3.07,0,0,0-2-.58,5.44,5.44,0,0,0-1.56.22,3.72,3.72,0,0,0-1.18.58l-.1,1.28h-.94v-1.83a6.48,6.48,0,0,1,1.71-.83,6.9,6.9,0,0,1,2.11-.31,4.3,4.3,0,0,1,2.73.8,2.73,2.73,0,0,1,1,2.29v4.68c0,.19,0,.38,0,.56a4.6,4.6,0,0,0,.06.52l1,.06v.77Zm-3.74-.74a4.39,4.39,0,0,0,2.17-.53,3.24,3.24,0,0,0,1.36-1.36v-1.91h-2.29a4.58,4.58,0,0,0-2.47.59,1.75,1.75,0,0,0-.93,1.5,1.52,1.52,0,0,0,.58,1.24A2.44,2.44,0,0,0,521.83,130.31Z"/><path class="cls-4" d="M533.93,126.38a5.81,5.81,0,0,1,1-3.64,3.41,3.41,0,0,1,2.9-1.37,3.82,3.82,0,0,1,1.84.41A3.57,3.57,0,0,1,541,123l.11-1.41h1v12.27l1.55.12v.78h-4.24v-.78l1.55-.12v-4a3.55,3.55,0,0,1-1.31,1.06,4.39,4.39,0,0,1-1.83.37A3.51,3.51,0,0,1,535,130a5.17,5.17,0,0,1-1-3.4Zm1.15.18a4.6,4.6,0,0,0,.74,2.76,2.59,2.59,0,0,0,2.25,1,3.4,3.4,0,0,0,1.78-.44,3.11,3.11,0,0,0,1.14-1.22v-4.64a3.52,3.52,0,0,0-1.11-1.28,3,3,0,0,0-1.79-.51,2.54,2.54,0,0,0-2.26,1.15,5.34,5.34,0,0,0-.75,3Z"/><path class="cls-4" d="M552.33,129.49a3.28,3.28,0,0,1-1.32,1.29,4,4,0,0,1-2,.46,3.24,3.24,0,0,1-2.54-1,4.65,4.65,0,0,1-.92-3.17v-4.61l-1.27-.11v-.79h2.4v5.53a3.93,3.93,0,0,0,.64,2.5,2.28,2.28,0,0,0,1.82.75,3.59,3.59,0,0,0,2.06-.52,2.74,2.74,0,0,0,1.07-1.46v-5.9l-1.46-.11v-.79h2.6v8.63l1.38.11v.77h-2.37Z"/><path class="cls-4" d="M563.57,131.05a7.38,7.38,0,0,1-.16-.83,5.65,5.65,0,0,1,0-.71,4.57,4.57,0,0,1-3.65,1.73,3.45,3.45,0,0,1-2.34-.72,2.45,2.45,0,0,1-.82-2,2.37,2.37,0,0,1,1.22-2.1,6.23,6.23,0,0,1,3.32-.77h2.27v-1.26a1.94,1.94,0,0,0-.71-1.6,3.06,3.06,0,0,0-2-.58,5.46,5.46,0,0,0-1.57.22,3.72,3.72,0,0,0-1.18.58l-.09,1.28h-.94v-1.83a6.26,6.26,0,0,1,1.7-.83,7,7,0,0,1,2.11-.31,4.33,4.33,0,0,1,2.74.8,2.75,2.75,0,0,1,1,2.29v4.68c0,.19,0,.38,0,.56a3.09,3.09,0,0,0,.07.52l1,.06v.77Zm-3.74-.74a4.36,4.36,0,0,0,2.17-.53,3.24,3.24,0,0,0,1.36-1.36v-1.91h-2.29a4.58,4.58,0,0,0-2.47.59,1.74,1.74,0,0,0-.92,1.5,1.54,1.54,0,0,0,.57,1.24A2.44,2.44,0,0,0,559.83,130.31Z"/><path class="cls-4" d="M567,130.28l1.54-.11v-7.73l-1.54-.11v-.79h2.55l.1,1.66a3.55,3.55,0,0,1,1.34-1.35,3.92,3.92,0,0,1,2-.48,3.29,3.29,0,0,1,2.55.94,4.26,4.26,0,0,1,.87,3v4.91l1.55.11v.77h-4.23v-.77l1.54-.11v-4.9a3.25,3.25,0,0,0-.66-2.31,2.49,2.49,0,0,0-1.87-.68,3.08,3.08,0,0,0-2,.59,3.17,3.17,0,0,0-1.09,1.55v5.75l1.55.11v.77H567Z"/><path class="cls-4" d="M582.33,119.11v2.43h2.26v.87h-2.26v6.19a1.88,1.88,0,0,0,.37,1.32,1.24,1.24,0,0,0,1,.4,4.89,4.89,0,0,0,.54,0l.6-.07.17.78a2.87,2.87,0,0,1-.69.18,5.66,5.66,0,0,1-.82.06,2.21,2.21,0,0,1-1.68-.63,2.86,2.86,0,0,1-.61-2v-6.19h-1.76v-.87h1.76v-2.43Z"/><path class="cls-4" d="M586.6,130.28l1.55-.11v-7.73l-1.55-.11v-.79h2.68v8.63l1.55.11v.77H586.6Zm2.68-11.46h-1.13v-1.48h1.13Z"/><path class="cls-4" d="M599.87,129.68a3.41,3.41,0,0,1-1.32,1.15,4.15,4.15,0,0,1-1.89.41,3.54,3.54,0,0,1-2.89-1.28,5.22,5.22,0,0,1-1-3.4v-.18a5.87,5.87,0,0,1,1-3.64,3.43,3.43,0,0,1,2.9-1.37,3.87,3.87,0,0,1,1.86.42,3.4,3.4,0,0,1,1.31,1.19v-4.74l-1.54-.12v-.78H601v12.83l1.55.11v.77H600Zm-6-3.12a4.52,4.52,0,0,0,.75,2.74,2.59,2.59,0,0,0,2.24,1,3.45,3.45,0,0,0,1.83-.45,3.16,3.16,0,0,0,1.14-1.26v-4.5a3.26,3.26,0,0,0-1.09-1.32,3.15,3.15,0,0,0-1.86-.51,2.51,2.51,0,0,0-2.25,1.14,5.28,5.28,0,0,0-.76,3Z"/><path class="cls-4" d="M611.37,131.05a7.38,7.38,0,0,1-.16-.83,4.24,4.24,0,0,1-.05-.71,4.6,4.6,0,0,1-1.52,1.24,4.68,4.68,0,0,1-2.14.49,3.44,3.44,0,0,1-2.33-.72,2.46,2.46,0,0,1-.83-2,2.38,2.38,0,0,1,1.23-2.1,6.2,6.2,0,0,1,3.32-.77h2.27v-1.26a2,2,0,0,0-.71-1.6,3.07,3.07,0,0,0-2-.58,5.44,5.44,0,0,0-1.56.22,3.72,3.72,0,0,0-1.18.58l-.1,1.28h-.94v-1.83a6.48,6.48,0,0,1,1.71-.83,6.9,6.9,0,0,1,2.11-.31,4.3,4.3,0,0,1,2.73.8,2.73,2.73,0,0,1,1,2.29v4.68c0,.19,0,.38,0,.56a4.6,4.6,0,0,0,.06.52l1,.06v.77Zm-3.74-.74a4.39,4.39,0,0,0,2.17-.53,3.24,3.24,0,0,0,1.36-1.36v-1.91h-2.29a4.56,4.56,0,0,0-2.47.59,1.75,1.75,0,0,0-.93,1.5,1.52,1.52,0,0,0,.58,1.24A2.44,2.44,0,0,0,607.63,130.31Z"/><path class="cls-4" d="M622.14,129.68a3.41,3.41,0,0,1-1.32,1.15,4.19,4.19,0,0,1-1.9.41A3.51,3.51,0,0,1,616,130a5.23,5.23,0,0,1-1-3.4v-.18a5.87,5.87,0,0,1,1-3.64,3.41,3.41,0,0,1,2.9-1.37,3.93,3.93,0,0,1,1.86.42,3.47,3.47,0,0,1,1.31,1.19v-4.74l-1.55-.12v-.78h2.69v12.83l1.55.11v.77h-2.57Zm-6-3.12a4.59,4.59,0,0,0,.74,2.74,2.61,2.61,0,0,0,2.25,1,3.45,3.45,0,0,0,1.83-.45,3.16,3.16,0,0,0,1.14-1.26v-4.5a3.29,3.29,0,0,0-1.1-1.32,3.09,3.09,0,0,0-1.85-.51,2.54,2.54,0,0,0-2.26,1.14,5.28,5.28,0,0,0-.75,3Z"/><path class="cls-4" d="M631.07,131.24a4.28,4.28,0,0,1-3.21-1.32,4.59,4.59,0,0,1-1.27-3.34v-.48a4.74,4.74,0,0,1,1.27-3.39,4.06,4.06,0,0,1,3.06-1.34,4,4,0,0,1,3,1.11,4,4,0,0,1,1.08,3v.89h-7.25v.26a4,4,0,0,0,.92,2.68,3,3,0,0,0,2.43,1.09,5.33,5.33,0,0,0,1.8-.27,3.53,3.53,0,0,0,1.28-.78l.49.72a4.33,4.33,0,0,1-1.46.89A6,6,0,0,1,631.07,131.24Zm-.15-9a2.79,2.79,0,0,0-2.11.9,3.66,3.66,0,0,0-1,2.23l0,0h6v-.27a2.89,2.89,0,0,0-.79-2.07A2.76,2.76,0,0,0,630.92,122.26Z"/><path class="cls-4" d="M648.86,129.68a3.45,3.45,0,0,1-1.31,1.15,4.19,4.19,0,0,1-1.9.41,3.51,3.51,0,0,1-2.88-1.28,5.17,5.17,0,0,1-1-3.4v-.18a5.81,5.81,0,0,1,1-3.64,3.41,3.41,0,0,1,2.9-1.37,3.93,3.93,0,0,1,1.86.42,3.54,3.54,0,0,1,1.31,1.19v-4.74l-1.55-.12v-.78H650v12.83l1.54.11v.77H649Zm-6-3.12a4.52,4.52,0,0,0,.74,2.74,2.61,2.61,0,0,0,2.25,1,3.44,3.44,0,0,0,1.82-.45,3.25,3.25,0,0,0,1.15-1.26v-4.5a3.37,3.37,0,0,0-1.1-1.32,3.13,3.13,0,0,0-1.85-.51,2.53,2.53,0,0,0-2.26,1.14,5.28,5.28,0,0,0-.75,3Z"/><path class="cls-4" d="M657.8,131.24a4.28,4.28,0,0,1-3.21-1.32,4.59,4.59,0,0,1-1.27-3.34v-.48a4.77,4.77,0,0,1,1.26-3.39,4.09,4.09,0,0,1,3.06-1.34,4,4,0,0,1,3,1.11,4,4,0,0,1,1.09,3v.89h-7.25v.26a4,4,0,0,0,.92,2.68,3,3,0,0,0,2.43,1.09,5.33,5.33,0,0,0,1.8-.27,3.53,3.53,0,0,0,1.28-.78l.48.72a4.14,4.14,0,0,1-1.46.89A6,6,0,0,1,657.8,131.24Zm-.16-9a2.81,2.81,0,0,0-2.11.9,3.71,3.71,0,0,0-1,2.23l0,0h6v-.27a2.94,2.94,0,0,0-.79-2.07A2.8,2.8,0,0,0,657.64,122.26Z"/><path class="cls-4" d="M214.83,143.93v-.79h2.49l.14,1.48a3.64,3.64,0,0,1,1.34-1.22,4,4,0,0,1,1.9-.43,3.44,3.44,0,0,1,2.9,1.37,5.87,5.87,0,0,1,1,3.64v.18a5.24,5.24,0,0,1-1,3.41,3.53,3.53,0,0,1-2.88,1.27,4.46,4.46,0,0,1-1.89-.38,3.39,3.39,0,0,1-1.33-1.09v4l1.55.12v.78h-4.22v-.78l1.54-.12V144Zm8.67,4a5.11,5.11,0,0,0-.78-2.95,2.57,2.57,0,0,0-2.28-1.15,3,3,0,0,0-2.94,1.82v4.57a3,3,0,0,0,1.13,1.23,3.45,3.45,0,0,0,1.83.45,2.64,2.64,0,0,0,2.27-1,4.51,4.51,0,0,0,.77-2.75Z"/><path class="cls-4" d="M233.58,152.65a7.38,7.38,0,0,1-.16-.83,5.65,5.65,0,0,1,0-.71,4.38,4.38,0,0,1-1.52,1.24,4.64,4.64,0,0,1-2.13.49,3.45,3.45,0,0,1-2.34-.72,2.45,2.45,0,0,1-.82-2,2.37,2.37,0,0,1,1.22-2.1,6.23,6.23,0,0,1,3.32-.77h2.27V146a1.91,1.91,0,0,0-.71-1.59,3,3,0,0,0-2-.59,5.55,5.55,0,0,0-1.56.22,3.72,3.72,0,0,0-1.18.58l-.09,1.28h-.94v-1.83a6.26,6.26,0,0,1,1.7-.83,7,7,0,0,1,2.11-.31,4.37,4.37,0,0,1,2.74.8,2.72,2.72,0,0,1,1,2.29v4.68c0,.19,0,.38,0,.56a3,3,0,0,0,.07.52l1,.06v.77Zm-3.74-.74a4.36,4.36,0,0,0,2.17-.53,3.24,3.24,0,0,0,1.36-1.36v-1.91h-2.29a4.58,4.58,0,0,0-2.47.59,1.74,1.74,0,0,0-.92,1.5,1.54,1.54,0,0,0,.57,1.24A2.44,2.44,0,0,0,229.84,151.91Z"/><path class="cls-4" d="M244.67,146.08h-.93l-.14-1.34a2.92,2.92,0,0,0-1.07-.65,4.63,4.63,0,0,0-1.5-.23,2.93,2.93,0,0,0-1.86.5,1.46,1.46,0,0,0-.63,1.17,1.34,1.34,0,0,0,.54,1.09,5.5,5.5,0,0,0,2.14.75,7.33,7.33,0,0,1,2.74,1,2.08,2.08,0,0,1,.91,1.78,2.25,2.25,0,0,1-1,1.93,4.76,4.76,0,0,1-2.75.73,6.83,6.83,0,0,1-2.08-.3,4.81,4.81,0,0,1-1.61-.83V149.8h.92l.16,1.35a2.65,2.65,0,0,0,1.15.61,5.41,5.41,0,0,0,1.46.19,3.34,3.34,0,0,0,1.94-.5,1.44,1.44,0,0,0,.71-1.21,1.47,1.47,0,0,0-.59-1.17,4.9,4.9,0,0,0-2.14-.82,7.57,7.57,0,0,1-2.72-1,2,2,0,0,1-.89-1.71,2.25,2.25,0,0,1,1-1.84A4.27,4.27,0,0,1,241,143a6.4,6.4,0,0,1,2.06.32,4,4,0,0,1,1.53.87Z"/><path class="cls-4" d="M254.39,146.08h-.93l-.13-1.34a2.89,2.89,0,0,0-1.08-.65,4.53,4.53,0,0,0-1.49-.23,3,3,0,0,0-1.87.5,1.47,1.47,0,0,0-.62,1.17,1.34,1.34,0,0,0,.54,1.09,5.5,5.5,0,0,0,2.14.75,7.4,7.4,0,0,1,2.74,1,2.08,2.08,0,0,1,.91,1.78,2.24,2.24,0,0,1-1,1.93,4.72,4.72,0,0,1-2.74.73,6.83,6.83,0,0,1-2.08-.3,5,5,0,0,1-1.62-.83V149.8H248l.17,1.35a2.59,2.59,0,0,0,1.15.61,5.36,5.36,0,0,0,1.46.19,3.34,3.34,0,0,0,1.94-.5,1.44,1.44,0,0,0,.71-1.21,1.47,1.47,0,0,0-.59-1.17,5,5,0,0,0-2.14-.82,7.57,7.57,0,0,1-2.72-1,2,2,0,0,1-.89-1.71,2.25,2.25,0,0,1,1-1.84,4.25,4.25,0,0,1,2.63-.75,6.4,6.4,0,0,1,2.06.32,4.12,4.12,0,0,1,1.53.87Z"/><path class="cls-4" d="M256.67,147.76a4.89,4.89,0,0,1,1.25-3.45,4.72,4.72,0,0,1,6.59,0,4.89,4.89,0,0,1,1.25,3.45v.29a4.91,4.91,0,0,1-1.24,3.45,4.73,4.73,0,0,1-6.6,0,4.88,4.88,0,0,1-1.25-3.45Zm1.14.29a4.32,4.32,0,0,0,.9,2.78,3,3,0,0,0,2.52,1.12,3,3,0,0,0,2.48-1.12,4.27,4.27,0,0,0,.91-2.78v-.29a4.28,4.28,0,0,0-.91-2.76,3.31,3.31,0,0,0-5,0,4.28,4.28,0,0,0-.9,2.76Z"/><path class="cls-4" d="M275.06,146.08h-.93l-.14-1.34a2.92,2.92,0,0,0-1.07-.65,4.63,4.63,0,0,0-1.5-.23,2.93,2.93,0,0,0-1.86.5,1.46,1.46,0,0,0-.63,1.17,1.34,1.34,0,0,0,.54,1.09,5.5,5.5,0,0,0,2.14.75,7.33,7.33,0,0,1,2.74,1,2.08,2.08,0,0,1,.92,1.78,2.26,2.26,0,0,1-1,1.93,4.76,4.76,0,0,1-2.75.73,6.83,6.83,0,0,1-2.08-.3,4.81,4.81,0,0,1-1.61-.83V149.8h.92l.16,1.35a2.65,2.65,0,0,0,1.15.61,5.41,5.41,0,0,0,1.46.19,3.34,3.34,0,0,0,1.94-.5,1.45,1.45,0,0,0,.72-1.21,1.48,1.48,0,0,0-.6-1.17,4.9,4.9,0,0,0-2.14-.82,7.57,7.57,0,0,1-2.72-1,2,2,0,0,1-.88-1.71,2.23,2.23,0,0,1,1-1.84,4.27,4.27,0,0,1,2.63-.75,6.51,6.51,0,0,1,2.07.32,4.08,4.08,0,0,1,1.52.87Z"/><path class="cls-4" d="M289.2,151.28a3.41,3.41,0,0,1-1.32,1.15,4.19,4.19,0,0,1-1.9.41,3.51,3.51,0,0,1-2.88-1.28,5.23,5.23,0,0,1-1-3.4V148a5.87,5.87,0,0,1,1-3.64A3.41,3.41,0,0,1,286,143a3.93,3.93,0,0,1,1.86.42,3.47,3.47,0,0,1,1.31,1.19v-4.74l-1.55-.11v-.79h2.69v12.83l1.55.11v.77h-2.57Zm-6-3.12a4.62,4.62,0,0,0,.74,2.75,2.63,2.63,0,0,0,2.25,1,3.45,3.45,0,0,0,1.83-.45,3.16,3.16,0,0,0,1.14-1.26v-4.5a3.29,3.29,0,0,0-1.1-1.32,3.09,3.09,0,0,0-1.85-.51A2.54,2.54,0,0,0,284,145a5.3,5.3,0,0,0-.75,3Z"/><path class="cls-4" d="M298.13,152.84a4.3,4.3,0,0,1-3.21-1.31,4.63,4.63,0,0,1-1.27-3.35v-.48a4.74,4.74,0,0,1,1.27-3.39A4.06,4.06,0,0,1,298,143a4,4,0,0,1,3,1.11A4,4,0,0,1,302,147v.9h-7.25v.25a4,4,0,0,0,.92,2.68,3,3,0,0,0,2.43,1.09,5.33,5.33,0,0,0,1.8-.27,3.53,3.53,0,0,0,1.28-.78l.49.72a4.23,4.23,0,0,1-1.46.89A6,6,0,0,1,298.13,152.84Zm-.15-9a2.79,2.79,0,0,0-2.11.9,3.6,3.6,0,0,0-1,2.23v0h6v-.27a2.89,2.89,0,0,0-.79-2.07A2.76,2.76,0,0,0,298,143.86Z"/><path class="cls-4" d="M306.92,143.93l-1.28.08,2.56,6.26.33,1.12h.06l.36-1.12,2.52-6.26-1.28-.08v-.79h3.46v.79l-1,.08L309,152.65h-.91L304.47,144l-1-.08v-.79h3.46Z"/><path class="cls-4" d="M319.3,152.84a4.28,4.28,0,0,1-3.2-1.31,4.63,4.63,0,0,1-1.27-3.35v-.48a4.77,4.77,0,0,1,1.26-3.39,4.09,4.09,0,0,1,3.06-1.34,4,4,0,0,1,3,1.11,4,4,0,0,1,1.09,2.95v.9H316v.25a4,4,0,0,0,.93,2.68A3,3,0,0,0,319.3,152a5.35,5.35,0,0,0,1.81-.27,3.53,3.53,0,0,0,1.28-.78l.48.72a4.14,4.14,0,0,1-1.46.89A6,6,0,0,1,319.3,152.84Zm-.15-9a2.81,2.81,0,0,0-2.11.9,3.71,3.71,0,0,0-1,2.23l0,0h6v-.27a2.94,2.94,0,0,0-.79-2.07A2.8,2.8,0,0,0,319.15,143.86Z"/><path class="cls-4" d="M337.41,146.08h-.93l-.13-1.34a2.89,2.89,0,0,0-1.08-.65,4.53,4.53,0,0,0-1.49-.23,3,3,0,0,0-1.87.5,1.47,1.47,0,0,0-.62,1.17,1.34,1.34,0,0,0,.54,1.09,5.5,5.5,0,0,0,2.14.75,7.4,7.4,0,0,1,2.74,1,2.08,2.08,0,0,1,.91,1.78,2.24,2.24,0,0,1-1,1.93,4.7,4.7,0,0,1-2.74.73,6.83,6.83,0,0,1-2.08-.3,5,5,0,0,1-1.62-.83V149.8h.92l.17,1.35a2.59,2.59,0,0,0,1.15.61,5.36,5.36,0,0,0,1.46.19,3.34,3.34,0,0,0,1.94-.5,1.44,1.44,0,0,0,.71-1.21,1.47,1.47,0,0,0-.59-1.17,4.9,4.9,0,0,0-2.14-.82,7.57,7.57,0,0,1-2.72-1,2,2,0,0,1-.89-1.71,2.25,2.25,0,0,1,1-1.84,4.25,4.25,0,0,1,2.63-.75,6.4,6.4,0,0,1,2.06.32,4.12,4.12,0,0,1,1.53.87Z"/><path class="cls-4" d="M344.22,152.84a4.3,4.3,0,0,1-3.21-1.31,4.63,4.63,0,0,1-1.27-3.35v-.48a4.74,4.74,0,0,1,1.27-3.39,4.06,4.06,0,0,1,3.06-1.34,4,4,0,0,1,3,1.11,4,4,0,0,1,1.08,2.95v.9h-7.25v.25a4,4,0,0,0,.92,2.68,3,3,0,0,0,2.43,1.09,5.33,5.33,0,0,0,1.8-.27,3.53,3.53,0,0,0,1.28-.78l.49.72a4.23,4.23,0,0,1-1.46.89A6,6,0,0,1,344.22,152.84Zm-.15-9a2.79,2.79,0,0,0-2.11.9,3.66,3.66,0,0,0-1,2.23l0,0h6v-.27a2.89,2.89,0,0,0-.79-2.07A2.76,2.76,0,0,0,344.07,143.86Z"/><path class="cls-4" d="M352.61,143.14l.14,1.59v.11a3.49,3.49,0,0,1,1.19-1.38,3.2,3.2,0,0,1,1.79-.49,3,3,0,0,1,.43,0,2.09,2.09,0,0,1,.33.07l-.15,1-.84-.05a2.69,2.69,0,0,0-1.76.55,3.13,3.13,0,0,0-1,1.54v5.68l1.55.11v.77h-4.22v-.77l1.54-.11V144l-1.54-.11v-.79h2.53Z"/><path class="cls-4" d="M362.48,151.88l1.55-.11V144h-1.7v-.87H364v-1.21a3.05,3.05,0,0,1,.9-2.35,3.61,3.61,0,0,1,2.51-.82,6.42,6.42,0,0,1,1.29.13,8.56,8.56,0,0,1,1.32.39l-.18.9a8.39,8.39,0,0,0-1.12-.34,5.79,5.79,0,0,0-1.24-.12,2.44,2.44,0,0,0-1.75.57,2.16,2.16,0,0,0-.59,1.64v1.21h5.89v8.63l1.55.11v.77h-4.23v-.77l1.55-.11V144h-4.76v7.76l1.54.11v.77h-4.23Z"/><path class="cls-4" d="M374,151.88l1.54-.11V144l-1.54-.11v-.79h2.55l.1,1.67a3.5,3.5,0,0,1,1.34-1.36,3.92,3.92,0,0,1,2-.48,3.29,3.29,0,0,1,2.55.94,4.26,4.26,0,0,1,.87,3v4.91l1.55.11v.77h-4.23v-.77l1.54-.11v-4.9a3.25,3.25,0,0,0-.66-2.31,2.49,2.49,0,0,0-1.87-.68,3.08,3.08,0,0,0-1.95.59,3.17,3.17,0,0,0-1.09,1.55v5.75l1.55.11v.77H374Z"/><path class="cls-4" d="M386.61,151.88l1.54-.11V144l-1.54-.11v-.79h2.67v8.63l1.55.11v.77h-4.22Zm2.67-11.46h-1.13v-1.48h1.13Z"/><path class="cls-4" d="M395.35,140.71v2.43h2.26V144h-2.26v6.19a2,2,0,0,0,.36,1.33,1.29,1.29,0,0,0,1,.39,4.58,4.58,0,0,0,.53,0c.18,0,.38,0,.61-.07l.17.78a2.84,2.84,0,0,1-.7.18,5.52,5.52,0,0,1-.81.06,2.23,2.23,0,0,1-1.69-.63,2.86,2.86,0,0,1-.6-2V144h-1.77v-.87h1.77v-2.43Z"/><path class="cls-4" d="M406.79,152.65c-.08-.32-.13-.6-.17-.83a5.63,5.63,0,0,1,0-.71,4.48,4.48,0,0,1-1.52,1.24,4.68,4.68,0,0,1-2.14.49,3.44,3.44,0,0,1-2.33-.72,2.46,2.46,0,0,1-.83-2,2.38,2.38,0,0,1,1.23-2.1,6.2,6.2,0,0,1,3.32-.77h2.27V146a1.93,1.93,0,0,0-.71-1.59,3,3,0,0,0-2-.59,5.44,5.44,0,0,0-1.56.22,3.61,3.61,0,0,0-1.18.58l-.1,1.28h-.94v-1.83a6.48,6.48,0,0,1,1.71-.83,6.9,6.9,0,0,1,2.11-.31,4.36,4.36,0,0,1,2.73.8,2.73,2.73,0,0,1,1,2.29v4.68c0,.19,0,.38,0,.56a4.35,4.35,0,0,0,.06.52l1,.06v.77Zm-3.74-.74a4.39,4.39,0,0,0,2.17-.53,3.24,3.24,0,0,0,1.36-1.36v-1.91h-2.29a4.56,4.56,0,0,0-2.47.59,1.75,1.75,0,0,0-.93,1.5,1.52,1.52,0,0,0,.58,1.24A2.44,2.44,0,0,0,403.05,151.91Z"/><path class="cls-4" d="M419.67,152.84a4.27,4.27,0,0,1-3.2-1.31,4.63,4.63,0,0,1-1.28-3.35v-.48a4.78,4.78,0,0,1,1.27-3.39,4.09,4.09,0,0,1,3.06-1.34,4,4,0,0,1,3,1.11,4,4,0,0,1,1.08,2.95v.9h-7.25v.25a4,4,0,0,0,.93,2.68,3,3,0,0,0,2.42,1.09,5.35,5.35,0,0,0,1.81-.27,3.61,3.61,0,0,0,1.28-.78l.48.72a4.14,4.14,0,0,1-1.46.89A6,6,0,0,1,419.67,152.84Zm-.15-9a2.81,2.81,0,0,0-2.11.9,3.65,3.65,0,0,0-1,2.23l0,0h6v-.27a2.94,2.94,0,0,0-.79-2.07A2.8,2.8,0,0,0,419.52,143.86Z"/><path class="cls-4" d="M434.72,152a3.41,3.41,0,0,0,2-.6,1.89,1.89,0,0,0,.86-1.66h1l0,.05a2.56,2.56,0,0,1-1.13,2.21,4.48,4.48,0,0,1-2.75.89,4.07,4.07,0,0,1-3.24-1.33,5.1,5.1,0,0,1-1.15-3.43v-.37a5.1,5.1,0,0,1,1.15-3.41,4,4,0,0,1,3.23-1.33,5.67,5.67,0,0,1,2.17.41,4.21,4.21,0,0,1,1.6,1.13l0,2.07h-1l-.18-1.69a3.38,3.38,0,0,0-1.13-.75,4.14,4.14,0,0,0-1.54-.28,2.83,2.83,0,0,0-2.45,1.1,4.56,4.56,0,0,0-.79,2.75v.37a4.6,4.6,0,0,0,.79,2.78A2.81,2.81,0,0,0,434.72,152Z"/><path class="cls-4" d="M447.81,152.65c-.08-.32-.13-.6-.17-.83a5.63,5.63,0,0,1,0-.71,4.48,4.48,0,0,1-1.52,1.24,4.68,4.68,0,0,1-2.14.49,3.44,3.44,0,0,1-2.33-.72,2.46,2.46,0,0,1-.83-2,2.38,2.38,0,0,1,1.23-2.1,6.2,6.2,0,0,1,3.32-.77h2.27V146a1.93,1.93,0,0,0-.71-1.59,3,3,0,0,0-2-.59,5.44,5.44,0,0,0-1.56.22,3.61,3.61,0,0,0-1.18.58l-.1,1.28h-.94v-1.83a6.48,6.48,0,0,1,1.71-.83A6.9,6.9,0,0,1,445,143a4.36,4.36,0,0,1,2.73.8,2.73,2.73,0,0,1,1,2.29v4.68c0,.19,0,.38,0,.56a4.35,4.35,0,0,0,.06.52l1,.06v.77Zm-3.74-.74a4.39,4.39,0,0,0,2.17-.53A3.24,3.24,0,0,0,447.6,150v-1.91h-2.29a4.56,4.56,0,0,0-2.47.59,1.75,1.75,0,0,0-.93,1.5,1.52,1.52,0,0,0,.58,1.24A2.44,2.44,0,0,0,444.07,151.91Z"/><path class="cls-4" d="M458.58,151.28a3.41,3.41,0,0,1-1.32,1.15,4.19,4.19,0,0,1-1.9.41,3.51,3.51,0,0,1-2.88-1.28,5.23,5.23,0,0,1-1-3.4V148a5.87,5.87,0,0,1,1-3.64,3.41,3.41,0,0,1,2.9-1.37,3.93,3.93,0,0,1,1.86.42,3.54,3.54,0,0,1,1.31,1.19v-4.74l-1.55-.11v-.79h2.69v12.83l1.55.11v.77h-2.57Zm-6-3.12a4.62,4.62,0,0,0,.74,2.75,2.63,2.63,0,0,0,2.25,1,3.45,3.45,0,0,0,1.83-.45,3.16,3.16,0,0,0,1.14-1.26v-4.5a3.29,3.29,0,0,0-1.1-1.32,3.11,3.11,0,0,0-1.85-.51,2.54,2.54,0,0,0-2.26,1.14,5.3,5.3,0,0,0-.75,3Z"/><path class="cls-4" d="M470.07,152.65c-.07-.32-.13-.6-.16-.83a5.65,5.65,0,0,1-.05-.71,4.38,4.38,0,0,1-1.52,1.24,4.64,4.64,0,0,1-2.13.49,3.45,3.45,0,0,1-2.34-.72,2.45,2.45,0,0,1-.82-2,2.39,2.39,0,0,1,1.22-2.1,6.25,6.25,0,0,1,3.32-.77h2.27V146a1.93,1.93,0,0,0-.7-1.59,3.05,3.05,0,0,0-2-.59,5.44,5.44,0,0,0-1.56.22,3.67,3.67,0,0,0-1.19.58l-.09,1.28h-.94v-1.83a6.26,6.26,0,0,1,1.7-.83,7,7,0,0,1,2.11-.31,4.37,4.37,0,0,1,2.74.8,2.72,2.72,0,0,1,1,2.29v4.68c0,.19,0,.38,0,.56a4.35,4.35,0,0,0,.06.52l1,.06v.77Zm-3.74-.74a4.43,4.43,0,0,0,2.18-.53,3.27,3.27,0,0,0,1.35-1.36v-1.91h-2.28a4.6,4.6,0,0,0-2.48.59,1.76,1.76,0,0,0-.92,1.5,1.54,1.54,0,0,0,.57,1.24A2.44,2.44,0,0,0,466.33,151.91Z"/><path class="cls-4" d="M478.13,143.93v-.79h2.5l.14,1.48a3.61,3.61,0,0,1,1.33-1.22A4,4,0,0,1,484,143a3.43,3.43,0,0,1,2.9,1.37,5.81,5.81,0,0,1,1,3.64v.18a5.18,5.18,0,0,1-1,3.41,3.53,3.53,0,0,1-2.88,1.27,4.46,4.46,0,0,1-1.89-.38,3.54,3.54,0,0,1-1.33-1.09v4l1.55.12v.78h-4.22v-.78l1.55-.12V144Zm8.67,4A5.19,5.19,0,0,0,486,145a2.57,2.57,0,0,0-2.28-1.15,3.16,3.16,0,0,0-1.87.51,3.21,3.21,0,0,0-1.08,1.31v4.57a3,3,0,0,0,1.13,1.23,3.46,3.46,0,0,0,1.84.45,2.63,2.63,0,0,0,2.26-1,4.44,4.44,0,0,0,.77-2.75Z"/><path class="cls-4" d="M496.88,152.65c-.07-.32-.13-.6-.16-.83a5.63,5.63,0,0,1,0-.71,4.48,4.48,0,0,1-1.52,1.24,4.71,4.71,0,0,1-2.14.49,3.42,3.42,0,0,1-2.33-.72,2.46,2.46,0,0,1-.83-2,2.38,2.38,0,0,1,1.23-2.1,6.2,6.2,0,0,1,3.32-.77h2.27V146a1.93,1.93,0,0,0-.71-1.59,3,3,0,0,0-2-.59,5.44,5.44,0,0,0-1.56.22,3.61,3.61,0,0,0-1.18.58l-.1,1.28h-.94v-1.83a6.33,6.33,0,0,1,1.71-.83A6.9,6.9,0,0,1,494,143a4.36,4.36,0,0,1,2.73.8,2.72,2.72,0,0,1,1,2.29v4.68c0,.19,0,.38,0,.56a4.35,4.35,0,0,0,.06.52l1,.06v.77Zm-3.74-.74a4.4,4.4,0,0,0,2.18-.53,3.3,3.3,0,0,0,1.36-1.36v-1.91h-2.29a4.56,4.56,0,0,0-2.47.59,1.75,1.75,0,0,0-.93,1.5,1.54,1.54,0,0,0,.57,1.24A2.46,2.46,0,0,0,493.14,151.91Z"/><path class="cls-4" d="M508,146.08H507l-.13-1.34a3.06,3.06,0,0,0-1.08-.65,4.55,4.55,0,0,0-1.5-.23,3,3,0,0,0-1.86.5,1.44,1.44,0,0,0-.62,1.17,1.36,1.36,0,0,0,.53,1.09,5.5,5.5,0,0,0,2.14.75,7.39,7.39,0,0,1,2.75,1,2.1,2.1,0,0,1,.91,1.78,2.26,2.26,0,0,1-1,1.93,4.74,4.74,0,0,1-2.75.73,6.72,6.72,0,0,1-2.07-.3,4.77,4.77,0,0,1-1.62-.83V149.8h.92l.16,1.35a2.65,2.65,0,0,0,1.15.61,5.47,5.47,0,0,0,1.46.19,3.39,3.39,0,0,0,1.95-.5,1.46,1.46,0,0,0,.71-1.21,1.5,1.5,0,0,0-.59-1.17,5,5,0,0,0-2.15-.82,7.51,7.51,0,0,1-2.71-1,2,2,0,0,1-.89-1.71,2.22,2.22,0,0,1,1-1.84,4.24,4.24,0,0,1,2.62-.75,6.47,6.47,0,0,1,2.07.32,4.08,4.08,0,0,1,1.52.87Z"/><path class="cls-4" d="M517.7,146.08h-.93l-.13-1.34a3.06,3.06,0,0,0-1.08-.65,4.59,4.59,0,0,0-1.5-.23,2.93,2.93,0,0,0-1.86.5,1.44,1.44,0,0,0-.62,1.17,1.33,1.33,0,0,0,.53,1.09,5.5,5.5,0,0,0,2.14.75,7.46,7.46,0,0,1,2.75,1,2.1,2.1,0,0,1,.91,1.78,2.26,2.26,0,0,1-1,1.93,4.76,4.76,0,0,1-2.75.73,6.72,6.72,0,0,1-2.07-.3,4.77,4.77,0,0,1-1.62-.83V149.8h.92l.16,1.35a2.65,2.65,0,0,0,1.15.61,5.41,5.41,0,0,0,1.46.19,3.34,3.34,0,0,0,1.94-.5,1.45,1.45,0,0,0,.72-1.21,1.48,1.48,0,0,0-.6-1.17,4.9,4.9,0,0,0-2.14-.82,7.65,7.65,0,0,1-2.72-1,2,2,0,0,1-.88-1.71,2.23,2.23,0,0,1,1-1.84,4.27,4.27,0,0,1,2.63-.75,6.47,6.47,0,0,1,2.07.32,4.08,4.08,0,0,1,1.52.87Z"/><path class="cls-4" d="M520,147.76a4.89,4.89,0,0,1,1.24-3.45,4.73,4.73,0,0,1,6.6,0,4.93,4.93,0,0,1,1.24,3.45v.29a4.87,4.87,0,0,1-1.24,3.45,4.73,4.73,0,0,1-6.6,0,4.87,4.87,0,0,1-1.24-3.45Zm1.13.29a4.32,4.32,0,0,0,.91,2.78,3.35,3.35,0,0,0,5,0,4.32,4.32,0,0,0,.9-2.78v-.29A4.23,4.23,0,0,0,527,145a3.3,3.3,0,0,0-5,0,4.28,4.28,0,0,0-.91,2.76Z"/><path class="cls-4" d="M542.77,151.28a3.41,3.41,0,0,1-1.32,1.15,4.15,4.15,0,0,1-1.89.41,3.51,3.51,0,0,1-2.88-1.28,5.17,5.17,0,0,1-1-3.4V148a5.81,5.81,0,0,1,1-3.64,3.39,3.39,0,0,1,2.89-1.37,3.87,3.87,0,0,1,1.86.42,3.4,3.4,0,0,1,1.31,1.19v-4.74l-1.54-.11v-.79h2.68v12.83l1.55.11v.77h-2.56Zm-6-3.12a4.55,4.55,0,0,0,.75,2.75,2.61,2.61,0,0,0,2.24,1,3.45,3.45,0,0,0,1.83-.45,3.16,3.16,0,0,0,1.14-1.26v-4.5a3.26,3.26,0,0,0-1.09-1.32,3.15,3.15,0,0,0-1.86-.51,2.51,2.51,0,0,0-2.25,1.14,5.3,5.3,0,0,0-.76,3Z"/><path class="cls-4" d="M551.7,152.84a4.27,4.27,0,0,1-3.2-1.31,4.63,4.63,0,0,1-1.28-3.35v-.48a4.78,4.78,0,0,1,1.27-3.39,4.09,4.09,0,0,1,3.06-1.34,4,4,0,0,1,3,1.11A4,4,0,0,1,555.6,147v.9h-7.25v.25a4,4,0,0,0,.93,2.68A3,3,0,0,0,551.7,152a5.35,5.35,0,0,0,1.81-.27,3.61,3.61,0,0,0,1.28-.78l.48.72a4.14,4.14,0,0,1-1.46.89A6,6,0,0,1,551.7,152.84Zm-.15-9a2.81,2.81,0,0,0-2.11.9,3.65,3.65,0,0,0-1,2.23l0,0h6v-.27a2.94,2.94,0,0,0-.79-2.07A2.8,2.8,0,0,0,551.55,143.86Z"/><path class="cls-4" d="M560.49,143.93l-1.28.08,2.56,6.26.34,1.12h0l.36-1.12,2.53-6.26-1.28-.08v-.79h3.45v.79l-1,.08-3.63,8.64h-.91L558,144l-1-.08v-.79h3.45Z"/><path class="cls-4" d="M572.88,152.84a4.3,4.3,0,0,1-3.21-1.31,4.63,4.63,0,0,1-1.27-3.35v-.48a4.74,4.74,0,0,1,1.27-3.39,4.06,4.06,0,0,1,3.06-1.34,4,4,0,0,1,3,1.11,4,4,0,0,1,1.08,2.95v.9h-7.25v.25a4,4,0,0,0,.92,2.68,3,3,0,0,0,2.43,1.09,5.33,5.33,0,0,0,1.8-.27,3.53,3.53,0,0,0,1.28-.78l.49.72a4.33,4.33,0,0,1-1.46.89A6,6,0,0,1,572.88,152.84Zm-.15-9a2.79,2.79,0,0,0-2.11.9,3.66,3.66,0,0,0-1,2.23l0,0h6v-.27a2.89,2.89,0,0,0-.79-2.07A2.76,2.76,0,0,0,572.73,143.86Z"/><path class="cls-4" d="M591,146.08h-.93l-.13-1.34a3.06,3.06,0,0,0-1.08-.65,4.59,4.59,0,0,0-1.5-.23,2.93,2.93,0,0,0-1.86.5,1.44,1.44,0,0,0-.62,1.17,1.33,1.33,0,0,0,.53,1.09,5.5,5.5,0,0,0,2.14.75,7.46,7.46,0,0,1,2.75,1,2.1,2.1,0,0,1,.91,1.78,2.26,2.26,0,0,1-1,1.93,4.76,4.76,0,0,1-2.75.73,6.72,6.72,0,0,1-2.07-.3,4.77,4.77,0,0,1-1.62-.83V149.8h.92l.16,1.35a2.65,2.65,0,0,0,1.15.61,5.41,5.41,0,0,0,1.46.19,3.34,3.34,0,0,0,1.94-.5,1.45,1.45,0,0,0,.72-1.21,1.48,1.48,0,0,0-.6-1.17,4.9,4.9,0,0,0-2.14-.82,7.65,7.65,0,0,1-2.72-1,2,2,0,0,1-.88-1.71,2.23,2.23,0,0,1,1-1.84,4.27,4.27,0,0,1,2.63-.75,6.47,6.47,0,0,1,2.07.32,4.08,4.08,0,0,1,1.52.87Z"/><path class="cls-4" d="M597.79,152.84a4.27,4.27,0,0,1-3.2-1.31,4.63,4.63,0,0,1-1.28-3.35v-.48a4.78,4.78,0,0,1,1.27-3.39,4.09,4.09,0,0,1,3.06-1.34,4,4,0,0,1,3,1.11,4,4,0,0,1,1.08,2.95v.9h-7.25v.25a4,4,0,0,0,.93,2.68,3,3,0,0,0,2.42,1.09,5.35,5.35,0,0,0,1.81-.27,3.61,3.61,0,0,0,1.28-.78l.48.72a4.14,4.14,0,0,1-1.46.89A6,6,0,0,1,597.79,152.84Zm-.15-9a2.81,2.81,0,0,0-2.11.9,3.65,3.65,0,0,0-1,2.23l0,0h6v-.27a2.93,2.93,0,0,0-.78-2.07A2.8,2.8,0,0,0,597.64,143.86Z"/><path class="cls-4" d="M606.18,143.14l.15,1.59v.11a3.42,3.42,0,0,1,1.19-1.38,3.18,3.18,0,0,1,1.79-.49,3,3,0,0,1,.42,0,1.87,1.87,0,0,1,.33.07l-.15,1-.84-.05a2.7,2.7,0,0,0-1.76.55,3,3,0,0,0-1,1.54v5.68l1.54.11v.77h-4.22v-.77l1.55-.11V144l-1.55-.11v-.79h2.53Z"/><path class="cls-4" d="M219.66,174.44a4.28,4.28,0,0,1-3.21-1.32,4.59,4.59,0,0,1-1.27-3.34v-.48a4.77,4.77,0,0,1,1.26-3.39,4.09,4.09,0,0,1,3.06-1.34,3.78,3.78,0,0,1,4.06,4.06v.9h-7.25v.25a4,4,0,0,0,.92,2.68,3,3,0,0,0,2.43,1.09,5.33,5.33,0,0,0,1.8-.27,3.53,3.53,0,0,0,1.28-.78l.48.72a4.14,4.14,0,0,1-1.46.89A6,6,0,0,1,219.66,174.44Zm-.16-9a2.82,2.82,0,0,0-2.11.9,3.71,3.71,0,0,0-1,2.23l0,0h6v-.27a2.94,2.94,0,0,0-.79-2.07A2.8,2.8,0,0,0,219.5,165.46Z"/><path class="cls-4" d="M225.36,173.48l1.15-.1,3.25-4-3.1-3.79-1.16-.09v-.79H229v.79l-1.07.05,2.45,3,2.46-3.06-1.05,0v-.79h3.48v.79l-1.15.09L231,169.41l3.23,4,1.16.1v.77h-3.47v-.77l1.05,0-2.61-3.24-2.6,3.24,1.05,0v.77h-3.47Z"/><path class="cls-4" d="M241.24,174.44a4.28,4.28,0,0,1-3.21-1.32,4.59,4.59,0,0,1-1.27-3.34v-.48a4.74,4.74,0,0,1,1.27-3.39,4.06,4.06,0,0,1,3.06-1.34,4,4,0,0,1,3,1.11,4,4,0,0,1,1.08,2.95v.9h-7.25v.25a4,4,0,0,0,.92,2.68,3,3,0,0,0,2.43,1.09,5.33,5.33,0,0,0,1.8-.27,3.53,3.53,0,0,0,1.28-.78l.49.72a4.33,4.33,0,0,1-1.46.89A6,6,0,0,1,241.24,174.44Zm-.15-9a2.79,2.79,0,0,0-2.11.9,3.66,3.66,0,0,0-1,2.23l0,0h6v-.27a2.89,2.89,0,0,0-.79-2.07A2.76,2.76,0,0,0,241.09,165.46Z"/><path class="cls-4" d="M251.56,173.55a3.41,3.41,0,0,0,2-.6,1.89,1.89,0,0,0,.86-1.66h1l0,.05a2.55,2.55,0,0,1-1.14,2.21,4.43,4.43,0,0,1-2.74.89,4.07,4.07,0,0,1-3.24-1.33,5,5,0,0,1-1.15-3.43v-.37a5,5,0,0,1,1.15-3.41,4,4,0,0,1,3.23-1.33,5.67,5.67,0,0,1,2.17.41,4.21,4.21,0,0,1,1.6,1.13l.05,2.07h-1l-.18-1.69a3.38,3.38,0,0,0-1.13-.75,4.14,4.14,0,0,0-1.54-.28,2.83,2.83,0,0,0-2.45,1.1,4.56,4.56,0,0,0-.79,2.75v.37a4.6,4.6,0,0,0,.79,2.78A2.81,2.81,0,0,0,251.56,173.55Z"/><path class="cls-4" d="M265.1,172.69a3.28,3.28,0,0,1-1.32,1.29,4,4,0,0,1-2,.46,3.24,3.24,0,0,1-2.54-1,4.65,4.65,0,0,1-.92-3.17v-4.61l-1.27-.11v-.79h2.4v5.53a3.93,3.93,0,0,0,.64,2.5,2.28,2.28,0,0,0,1.82.75A3.59,3.59,0,0,0,264,173a2.85,2.85,0,0,0,1.07-1.46v-5.9l-1.46-.11v-.79h2.6v8.63l1.38.11v.77H265.2Z"/><path class="cls-4" d="M271.86,162.31v2.43h2.26v.87h-2.26v6.19a1.93,1.93,0,0,0,.36,1.32,1.26,1.26,0,0,0,1,.4,4.58,4.58,0,0,0,.53,0c.18,0,.38,0,.61-.07l.17.78a2.84,2.84,0,0,1-.7.18,5.52,5.52,0,0,1-.81.06,2.23,2.23,0,0,1-1.69-.63,2.86,2.86,0,0,1-.6-2v-6.19h-1.77v-.87h1.77v-2.43Z"/><path class="cls-4" d="M283.3,174.25c-.08-.32-.13-.6-.17-.83a5.63,5.63,0,0,1,0-.71,4.6,4.6,0,0,1-1.52,1.24,4.71,4.71,0,0,1-2.14.49,3.44,3.44,0,0,1-2.33-.72,2.46,2.46,0,0,1-.83-1.95,2.38,2.38,0,0,1,1.23-2.1,6.2,6.2,0,0,1,3.32-.77h2.27v-1.26a2,2,0,0,0-.71-1.6,3.07,3.07,0,0,0-2-.58,5.44,5.44,0,0,0-1.56.22,3.61,3.61,0,0,0-1.18.58l-.1,1.28h-.94v-1.83a6.33,6.33,0,0,1,1.71-.83,6.9,6.9,0,0,1,2.11-.31,4.3,4.3,0,0,1,2.73.8,2.73,2.73,0,0,1,1,2.29v4.68c0,.19,0,.38,0,.56a4.6,4.6,0,0,0,.06.52l1,.06v.77Zm-3.74-.74a4.39,4.39,0,0,0,2.17-.53,3.24,3.24,0,0,0,1.36-1.36v-1.91H280.8a4.56,4.56,0,0,0-2.47.59,1.75,1.75,0,0,0-.93,1.5A1.52,1.52,0,0,0,278,173,2.42,2.42,0,0,0,279.56,173.51Zm1.92-12.4h1.4l0,.06-2.37,2.28h-1Z"/><path class="cls-4" d="M289.77,165.53l-1.28.08,2.56,6.26.33,1.12h.06l.36-1.12,2.52-6.26-1.28-.08v-.79h3.46v.79l-1,.08-3.62,8.64H291l-3.63-8.64-1-.08v-.79h3.46Z"/><path class="cls-4" d="M302.15,174.44a4.24,4.24,0,0,1-3.2-1.32,4.59,4.59,0,0,1-1.28-3.34v-.48a4.78,4.78,0,0,1,1.27-3.39,4.09,4.09,0,0,1,3.06-1.34,4,4,0,0,1,3,1.11,4,4,0,0,1,1.08,2.95v.9H298.8v.25a4,4,0,0,0,.93,2.68,3,3,0,0,0,2.42,1.09,5.35,5.35,0,0,0,1.81-.27,3.61,3.61,0,0,0,1.28-.78l.48.72a4.14,4.14,0,0,1-1.46.89A6,6,0,0,1,302.15,174.44Zm-.15-9a2.81,2.81,0,0,0-2.11.9,3.65,3.65,0,0,0-1,2.23l0,0h6v-.27a2.94,2.94,0,0,0-.79-2.07A2.8,2.8,0,0,0,302,165.46Z"/><path class="cls-4" d="M307.86,161.32v-.78h2.67v12.83l1.55.11v.77h-4.22v-.77l1.55-.11V161.44Z"/><path class="cls-4" d="M323.13,174.44a4.28,4.28,0,0,1-3.21-1.32,4.59,4.59,0,0,1-1.27-3.34v-.48a4.74,4.74,0,0,1,1.27-3.39,4.06,4.06,0,0,1,3.06-1.34,4,4,0,0,1,3,1.11,4,4,0,0,1,1.08,2.95v.9h-7.25v.25a4,4,0,0,0,.92,2.68,3,3,0,0,0,2.43,1.09,5.33,5.33,0,0,0,1.8-.27,3.53,3.53,0,0,0,1.28-.78l.49.72a4.23,4.23,0,0,1-1.46.89A6,6,0,0,1,323.13,174.44Zm-.15-9a2.79,2.79,0,0,0-2.11.9,3.6,3.6,0,0,0-1,2.23v0h6v-.27a2.89,2.89,0,0,0-.79-2.07A2.76,2.76,0,0,0,323,165.46Z"/><path class="cls-4" d="M328.82,165.53v-.79h2.55l.1,1.58a3.41,3.41,0,0,1,1.32-1.29,4,4,0,0,1,2-.46,3.45,3.45,0,0,1,2,.53,2.89,2.89,0,0,1,1.13,1.62,3.75,3.75,0,0,1,1.33-1.58,3.69,3.69,0,0,1,2.09-.57,3.24,3.24,0,0,1,2.54,1,4.66,4.66,0,0,1,.89,3.13v4.65l1.55.12v.77H342v-.77l1.54-.12v-4.67a3.67,3.67,0,0,0-.66-2.48,2.4,2.4,0,0,0-1.87-.73,2.62,2.62,0,0,0-2,.78,3.62,3.62,0,0,0-.89,2v.13a.76.76,0,0,1,0,.16v4.82l1.54.11v.77h-4.23v-.77l1.55-.11v-4.68a3.65,3.65,0,0,0-.68-2.47,2.4,2.4,0,0,0-1.86-.74,2.77,2.77,0,0,0-2.92,2.09v5.8l1.55.11v.77h-4.23v-.77l1.54-.11v-7.73Z"/><path class="cls-4" d="M359.93,172.69A3.36,3.36,0,0,1,358.6,174a4,4,0,0,1-2,.46,3.22,3.22,0,0,1-2.53-1,4.6,4.6,0,0,1-.92-3.17v-4.61l-1.27-.11v-.79h2.4v5.53a3.87,3.87,0,0,0,.64,2.5,2.26,2.26,0,0,0,1.82.75,3.56,3.56,0,0,0,2.05-.52,2.81,2.81,0,0,0,1.08-1.46v-5.9l-1.46-.11v-.79H361v8.63l1.37.11v.77H360Z"/><path class="cls-4" d="M363.83,165.53v-.79h2.55l.1,1.58A3.41,3.41,0,0,1,367.8,165a4,4,0,0,1,2-.46,3.45,3.45,0,0,1,2,.53,2.84,2.84,0,0,1,1.13,1.62,3.75,3.75,0,0,1,1.33-1.58,3.69,3.69,0,0,1,2.09-.57,3.24,3.24,0,0,1,2.54,1,4.61,4.61,0,0,1,.9,3.13v4.65l1.54.12v.77H377v-.77l1.55-.12v-4.67a3.66,3.66,0,0,0-.67-2.48,2.4,2.4,0,0,0-1.87-.73,2.64,2.64,0,0,0-2,.78,3.62,3.62,0,0,0-.89,2v.13a.76.76,0,0,1,0,.16v4.82l1.55.11v.77h-4.24v-.77l1.55-.11v-4.68a3.65,3.65,0,0,0-.68-2.47,2.4,2.4,0,0,0-1.86-.74,2.79,2.79,0,0,0-2.92,2.09v5.8l1.55.11v.77h-4.23v-.77l1.54-.11v-7.73Z"/><path class="cls-4" d="M390,162.31v2.43h2.26v.87H390v6.19a1.93,1.93,0,0,0,.37,1.32,1.24,1.24,0,0,0,1,.4,4.63,4.63,0,0,0,.54,0l.6-.07.17.78a2.87,2.87,0,0,1-.69.18,5.55,5.55,0,0,1-.82.06,2.21,2.21,0,0,1-1.68-.63,2.86,2.86,0,0,1-.6-2v-6.19h-1.77v-.87h1.77v-2.43Z"/><path class="cls-4" d="M398.88,174.44a4.28,4.28,0,0,1-3.21-1.32,4.59,4.59,0,0,1-1.27-3.34v-.48a4.74,4.74,0,0,1,1.27-3.39,4.06,4.06,0,0,1,3.06-1.34,4,4,0,0,1,3,1.11,4,4,0,0,1,1.08,2.95v.9h-7.25v.25a4,4,0,0,0,.92,2.68,3,3,0,0,0,2.43,1.09,5.33,5.33,0,0,0,1.8-.27,3.53,3.53,0,0,0,1.28-.78l.49.72a4.33,4.33,0,0,1-1.46.89A6,6,0,0,1,398.88,174.44Zm-.15-9a2.79,2.79,0,0,0-2.11.9,3.66,3.66,0,0,0-1,2.23l0,0h6v-.27a2.89,2.89,0,0,0-.79-2.07A2.76,2.76,0,0,0,398.73,165.46Z"/><path class="cls-4" d="M404.56,165.53v-.79h2.56l.1,1.58a3.41,3.41,0,0,1,1.32-1.29,4,4,0,0,1,2-.46,3.47,3.47,0,0,1,2,.53,2.89,2.89,0,0,1,1.13,1.62,3.8,3.8,0,0,1,1.32-1.58,3.72,3.72,0,0,1,2.1-.57,3.2,3.2,0,0,1,2.53,1,4.61,4.61,0,0,1,.9,3.13v4.65l1.55.12v.77h-4.24v-.77l1.54-.12v-4.67a3.61,3.61,0,0,0-.67-2.48,2.37,2.37,0,0,0-1.86-.73,2.65,2.65,0,0,0-2,.78,3.68,3.68,0,0,0-.88,2v.13a.76.76,0,0,1,0,.16v4.82l1.54.11v.77h-4.23v-.77l1.55-.11v-4.68a3.65,3.65,0,0,0-.68-2.47,2.42,2.42,0,0,0-1.87-.74,3,3,0,0,0-1.92.57,3,3,0,0,0-1,1.52v5.8l1.55.11v.77h-4.24v-.77l1.55-.11v-7.73Z"/><path class="cls-4" d="M423.1,165.53v-.79h2.5l.14,1.48a3.61,3.61,0,0,1,1.33-1.22,4,4,0,0,1,1.91-.43,3.42,3.42,0,0,1,2.89,1.37,5.81,5.81,0,0,1,1,3.64v.18a5.18,5.18,0,0,1-1,3.41,3.51,3.51,0,0,1-2.88,1.27,4.46,4.46,0,0,1-1.89-.38,3.43,3.43,0,0,1-1.32-1.09v4l1.54.12v.78H423.1v-.78l1.55-.12V165.64Zm8.68,4.05a5.17,5.17,0,0,0-.78-3,2.59,2.59,0,0,0-2.28-1.14,3.16,3.16,0,0,0-1.87.51,3.12,3.12,0,0,0-1.07,1.31v4.57a3,3,0,0,0,1.12,1.23,3.46,3.46,0,0,0,1.84.45,2.64,2.64,0,0,0,2.26-1,4.44,4.44,0,0,0,.78-2.75Z"/><path class="cls-4" d="M434.77,169.36a4.89,4.89,0,0,1,1.24-3.45,4.73,4.73,0,0,1,6.6,0,4.93,4.93,0,0,1,1.24,3.45v.29a4.89,4.89,0,0,1-1.24,3.45,4.73,4.73,0,0,1-6.6,0,4.89,4.89,0,0,1-1.24-3.45Zm1.13.29a4.32,4.32,0,0,0,.91,2.78,3.35,3.35,0,0,0,5,0,4.32,4.32,0,0,0,.9-2.78v-.29a4.23,4.23,0,0,0-.91-2.76,3.3,3.3,0,0,0-5,0,4.28,4.28,0,0,0-.91,2.76Z"/><path class="cls-4" d="M450.22,173.48l1.54-.11v-7.76h-1.7v-.87h1.7v-1.21a3.06,3.06,0,0,1,.91-2.35,3.58,3.58,0,0,1,2.51-.82,6.25,6.25,0,0,1,1.28.13,8.67,8.67,0,0,1,1.33.39l-.18.9a8.39,8.39,0,0,0-1.12-.34,5.86,5.86,0,0,0-1.24-.12,2.41,2.41,0,0,0-1.75.57,2.16,2.16,0,0,0-.6,1.64v1.21h5.9v8.63l1.54.11v.77h-4.22v-.77l1.55-.11v-7.76H452.9v7.76l1.55.11v.77h-4.23Z"/><path class="cls-4" d="M461.69,173.48l1.55-.11v-7.73l-1.55-.11v-.79h2.55l.11,1.67a3.48,3.48,0,0,1,1.33-1.36,4,4,0,0,1,2-.48,3.32,3.32,0,0,1,2.55.94,4.26,4.26,0,0,1,.87,3v4.91l1.55.11v.77H468.4v-.77l1.55-.11v-4.9a3.25,3.25,0,0,0-.66-2.31,2.52,2.52,0,0,0-1.88-.68,3.12,3.12,0,0,0-2,.59,3.21,3.21,0,0,0-1.08,1.55v5.75l1.55.11v.77h-4.24Z"/><path class="cls-4" d="M474.34,173.48l1.55-.11v-7.73l-1.55-.11v-.79H477v8.63l1.55.11v.77h-4.23ZM477,162h-1.13v-1.48H477Z"/><path class="cls-4" d="M483.08,162.31v2.43h2.26v.87h-2.26v6.19a1.93,1.93,0,0,0,.37,1.32,1.24,1.24,0,0,0,1,.4,4.63,4.63,0,0,0,.54,0l.6-.07.17.78a2.87,2.87,0,0,1-.69.18,5.55,5.55,0,0,1-.82.06,2.21,2.21,0,0,1-1.68-.63,2.86,2.86,0,0,1-.6-2v-6.19h-1.77v-.87h1.77v-2.43Z"/><path class="cls-4" d="M487.24,169.36a4.89,4.89,0,0,1,1.25-3.45,4.72,4.72,0,0,1,6.59,0,4.89,4.89,0,0,1,1.25,3.45v.29a4.93,4.93,0,0,1-1.24,3.45,4.73,4.73,0,0,1-6.6,0,4.89,4.89,0,0,1-1.25-3.45Zm1.14.29a4.32,4.32,0,0,0,.9,2.78,3,3,0,0,0,2.52,1.12,3,3,0,0,0,2.48-1.12,4.27,4.27,0,0,0,.91-2.78v-.29a4.28,4.28,0,0,0-.91-2.76,3.31,3.31,0,0,0-5,0,4.28,4.28,0,0,0-.9,2.76Z"/><path class="cls-4" d="M499.93,174.25h-1.3v-1.44h1.3Z"/><g class="cls-28"><path class="cls-27" d="M75.55-291.39a6.13,6.13,0,0,1,4.36,2,10.21,10.21,0,0,1,2.64-.35,9.64,9.64,0,0,1,7.16,3.26c7.86,2.94,4.74,7.68,4.56,7.95h.08s4.62,3.23,3,4.81c0,0,2.84,3.53.57,5.43a2.47,2.47,0,0,1-.83.41c6.47,10.08,10.33,27.86,7.78,42.52-.5,2.9-3.82,5-12.76,5h0a47.31,47.31,0,0,1-8.65-.77c.09.69.18,1.43.29,2.17h0c.44,3.19,1.1,6.82,1.81,7.36,4.56,3.42,11.36,4.84,15.18,5.39l5.54.52a13.48,13.48,0,0,1,2.87,4.22h0l32.3,30L167-193.06s1.69-6.65,11.13-6.65a24.28,24.28,0,0,1,3.88.33c12.87,2.09-1.16,3.61-1.16,3.61s1.45-.13,3.6-.13a37.1,37.1,0,0,1,11.76,1.64l1.94,2.37-4.46,4.46A157.74,157.74,0,0,1,177.51-186c-1.87,0-3.29-.14-3.81-.52a.37.37,0,0,0-.23-.06c-3.5,0-32.29,27.16-32.29,27.16l-29.65-24c.43,5.88.75,12.17.68,18A186.76,186.76,0,0,1,110.57-143c1.29.92.36,2.87.36,2.87l2.42,19.26,0,.43c3,13.4,2.5,35.61,2.5,35.61a24.3,24.3,0,0,0-2.55-.39l0,1.62h0c-.06,11.22,0,27.44.64,31.13,1,5.79,0,8.63,0,8.63s2.84,45,2.84,45.36,4,5.47,4,5.47,5.27,4.15,9.37,7.44h0a11.77,11.77,0,0,1,3.43,1.45,3.43,3.43,0,0,1,1,2.15l1.24.86a13.17,13.17,0,0,0,3.56.67c.56.56,0,1.17-.74,1.67.41.43.66.81.59,1.06-.27,1-4.08,5-11,5l-1.19,0c-7.24-.48-17.27-8.19-18.1-10.34A6.39,6.39,0,0,1,109,12.6a11.91,11.91,0,0,1,1.72-5.12c.95-1.71,1.61-6.55,1.61-6.55-10.43-36.6-4.46-41.75-5.6-44.41-.72-1.69-7.16-25.65-11.76-42.88h0l0-.06c-.27-1-.53-2-.78-2.94a11.87,11.87,0,0,1-2.38-1.41,74.42,74.42,0,0,1-12.52,5L65.56-51.32S63.2-42.64,60.4-39.84a123.45,123.45,0,0,1-6.92,20C48.74-9.21,46.65,5.39,46.65,5.39s3.4,8.63,3.8,14c4,5.47,7.58,12.22,2.82,14.21a27.45,27.45,0,0,1-10.35,1.82c-5.73,0-10.88-1.35-12.08-2.54C28.92,31,34.39,16.36,34.39,16.36a4.68,4.68,0,0,1,1.31-3.15,23.19,23.19,0,0,0,4.17-4.55s-.71-1.89,1.28-4.45,4.93-19,4.93-21.14-2.65-18.2,6.2-24.52c0,0,1-20.54,3.61-35.39h0c.28-1.68.58-3.29.92-4.79-2.72.22-4.35.25-4.35.25s2.63-7.32,6-16.74c-2.86-.28-1-4.72-1-4.72a23.44,23.44,0,0,0,3.37-2c.36-1,.73-2.05,1.09-3.09-.94-2.34,1.42-9.6,1.42-9.6l-8.69-6.55L29.39-143.11S49.69-191,50.51-191.79c.53-.53,4.45-2.83,7.16-4.39,2.82-2.82,8.9-5.06,8.9-5.06s5.78-6.55,7-7.78.67-4.65.67-4.65l-3.17-12.16a24,24,0,0,1-7.8-7.43,2.81,2.81,0,0,1-2.06.82,7.28,7.28,0,0,1-3.69-1.39s-8-8-5.5-11.82a2.37,2.37,0,0,1,2.08-1.15c1.65,0,3.62,1.36,5,2.53-2.85-2.49-4.37-2.82-5-2.82h-.19l0,0H53.8l0-.06c-.6-.29-3.29-1.77-3.52-4.27-4.54-1.42-3.66-4-3.66-4-4.36-3,0-7.74,0-7.74-1.94-1.95-.44-4.77-.44-4.77-2.28-3.23.57-7.21.57-7.21.31-3.48,5.53-5.53,5.53-5.53.41-1.74,2.56-2.56,2.56-2.56a3.78,3.78,0,0,1,3.5-2.17,1.79,1.79,0,0,1,.29,0c1.89-4.09,9-4.48,11.64-4.48.63,0,1,0,1,0a7.09,7.09,0,0,1,4.3-1.64M68.41-126.28c1.14-3.24,2.12-6.07,2.86-8.23a2.48,2.48,0,0,1,1.22-3.67l.15-.51c1.13-4.17-9.58-24.64-9.58-24.64L54-169,41.32-145.15,61.61-131l6.8,4.74M134.27,17.85h0M75.55-294.73h0a10,10,0,0,0-5.31,1.62h0c-3.86,0-10.32.65-13.56,4.64a7.07,7.07,0,0,0-4.22,2.77,7.68,7.68,0,0,0-2.75,2.63c-2,1-5.36,3.24-6.17,6.79-1.21,2-2.33,5.46-1,8.7a7.59,7.59,0,0,0,.11,4.34,9,9,0,0,0-1.26,5.42,7,7,0,0,0,1.91,4,6.27,6.27,0,0,0,.53,1.54,7.61,7.61,0,0,0,3.68,3.36,8.17,8.17,0,0,0,1.34,2.11c-1.33,2.71-.58,6.18,2.24,10.33a39.13,39.13,0,0,0,4.1,5l.16.17.19.14a10.4,10.4,0,0,0,5.7,2.07,5.62,5.62,0,0,0,.92-.07,29.75,29.75,0,0,0,6,5.42L71-213a7.31,7.31,0,0,1,0,1.87c-1.34,1.4-4.95,5.46-6.38,7.07-1.85.75-6.23,2.67-9,5.2-6.58,3.79-7.11,4.32-7.5,4.71-.64.65-1,1-11.57,25.69-5.12,11.94-10.2,23.93-10.25,24.05l-1,2.39,2.08,1.57,25.25,19,6.84,5.16a22.71,22.71,0,0,0-1,8.11L58.05-107c-1,.62-2,1.1-2,1.11l-1.15.54-.5,1.17c-.41,1-1.65,4.39-.11,7l.18.28c-2.94,8.25-5.14,14.38-5.14,14.38l-1.63,4.55L52.52-78h.19c0,.22-.07.44-.11.66v0C50.38-64.63,49.32-48.15,49-43.12c-7.88,7-6.75,20.53-6.36,25.11,0,.42.08.94.08,1.09,0,2.4-2.88,16.91-4.26,19.12a9.06,9.06,0,0,0-2.08,5.52,15.69,15.69,0,0,1-2.62,2.76c-1.41,1-2.28,2.65-2.65,5.06-.38,1-1.49,4.13-2.45,7.44-2.07,7.14-2.12,10.36-.2,12.27,2.41,2.42,9.17,3.52,14.43,3.52a30.58,30.58,0,0,0,11.64-2.08,6.64,6.64,0,0,0,4-4.44c1-3.48-.59-8-4.92-14.07A67.27,67.27,0,0,0,50.08,5c.52-3.19,2.58-14.86,6.44-23.51a129.1,129.1,0,0,0,6.93-19.78c2.78-3.48,4.77-10.18,5.27-12l13.1-32.83a80.11,80.11,0,0,0,9.61-3.76l.34,1.29v0c9.68,36.29,11.36,41.83,11.8,43,0,.27-.1.75-.17,1.14C102.69-37,101-27,109,1.15a22.21,22.21,0,0,1-1.13,4.71A15.14,15.14,0,0,0,105.73,12a9.58,9.58,0,0,0,.09,6.14c1.09,2.84,6.36,6.39,8,7.41,2.72,1.75,8,4.73,13,5.06.47,0,1,.05,1.41.05,8.1,0,13.47-4.78,14.2-7.46a3.71,3.71,0,0,0,.1-1.4,3.88,3.88,0,0,0,.37-1.33,4,4,0,0,0-1.18-3.24l-.92-.92-1.3-.05a11.87,11.87,0,0,1-2-.3,6.17,6.17,0,0,0-1.81-2.61,12.37,12.37,0,0,0-4-1.92c-3.39-2.71-7.39-5.87-8.54-6.77-1.18-1.52-2.48-3.25-3.09-4.12-.15-2.51-.7-11.45-2.76-44a23.38,23.38,0,0,0-.08-9.58c-.22-1.17-.69-6.26-.6-28l2.48.78.1-4.44c0-.91.47-22.25-2.47-35.92h0v-.3l0-.29-2.33-18.48a5.87,5.87,0,0,0-.27-4.14,194.93,194.93,0,0,0,1.48-21.5c0-3.24,0-6.77-.22-10.67l23.76,19.22,2.26,1.83,2.12-2c11.81-11.13,26.06-23.69,30-26a16.11,16.11,0,0,0,4,.37,157.71,157.71,0,0,0,16.61-1.46l1.11-.15.79-.79,4.46-4.46,2.13-2.13L200.7-194l-1.94-2.37-.58-.71-.86-.31a30.93,30.93,0,0,0-6.79-1.5,4.77,4.77,0,0,0-3.2-2.69,29.67,29.67,0,0,0-4.82-1.09,27.52,27.52,0,0,0-4.41-.37c-9.43,0-12.87,5.52-13.94,8l-22.58,19.09-29.66-27.53a16.57,16.57,0,0,0-3.27-4.58l-.85-.85-1.2-.11-5.44-.51c-3.26-.47-9.07-1.66-13-4.36a25,25,0,0,1-.72-3.35c1.55.13,3.13.2,4.74.2,3.64,0,14.71,0,16-7.75,2.37-13.61-.48-30.91-6.8-42.44,1.29-2.14.87-4.78-.35-7a5,5,0,0,0,0-.67,7.89,7.89,0,0,0-2.8-4.76,7.3,7.3,0,0,0-.2-3.58c-.82-2.59-3-4.62-6.39-6.06a12.88,12.88,0,0,0-9.09-3.77,13.52,13.52,0,0,0-1.68.1,9.2,9.2,0,0,0-5.32-1.75ZM45.66-146.19l9.61-18.08L60.52-161c.8,1.57,2.67,5.27,4.48,9.27,3.35,7.37,4.15,10.5,4.34,11.7a5.74,5.74,0,0,0-1.48,2.24,5.66,5.66,0,0,0-.12,3.29c-.31.88-.65,1.87-1,3l-3.2-2.23L45.66-146.19ZM120.07,1.53Z"/><path class="cls-19" d="M109,12.6a6.39,6.39,0,0,0-.11,4.33c.83,2.15,10.86,9.86,18.1,10.34,7.65.5,11.89-3.92,12.17-5s-4.93-4.45-4.93-4.45Z"/><path class="cls-19" d="M34.39,16.36S28.92,31,30.84,32.9s14,4.23,22.43.72-9.15-21.81-9.15-21.81Z"/><path class="cls-6" d="M83.83-97.13,65.56-51.32S63.2-42.64,60.4-39.84a123.45,123.45,0,0,1-6.92,20C48.74-9.21,46.65,5.39,46.65,5.39s4.32,11,3.8,15.88c0,0,4.12,5.69,2.46,9s-8.15,1.32-8.15,1.32S33.9,33,32.29,30.28s2-10,2-10-.52-5.79,1.38-7.12a23.19,23.19,0,0,0,4.17-4.55s-.71-1.89,1.28-4.45,4.93-19,4.93-21.14-2.65-18.2,6.2-24.52c0,0,2.15-43.63,8.22-49.7s23.33-9.67,23.33-9.67Z"/><path class="cls-6" d="M90.34-103.92s15.3,57.79,16.43,60.44-4.83,7.81,5.6,44.41c0,0-.66,4.84-1.61,6.55s-3.13,6.07-.38,7.58,11.66,9.11,15.46,9.77,10.9-2.65,10.9-2.65,3.79-1.43,2.61-2.61c0,0-3.46-.14-4.6-1.28S120.71,7,120.71,7s-4-5.12-4-5.47-2.84-45.36-2.84-45.36,1-2.84,0-8.63-.54-42.23-.54-42.23Z"/><path class="cls-19" d="M31.55,27.5s10.86-4.64,21.72-1.09a4.76,4.76,0,0,0-.81-2.65c-.9-1.43-14.51-3.61-20.29,1.16C32.17,24.92,30.94,26.7,31.55,27.5Z"/><path class="cls-19" d="M123.38,23.89s.42-9.57,10.89-6l.28.24a3.36,3.36,0,0,0-1-2.2,11.77,11.77,0,0,0-3.43-1.45s-9.59-2.36-9.45,7.82C120.63,22.26,122.13,24.37,123.38,23.89Z"/></g></svg>