<svg id="Camada_1" data-name="Camada 1" xmlns="http://www.w3.org/2000/svg" xmlns:xlink="http://www.w3.org/1999/xlink" viewBox="0 0 881 249.76"><defs><style>.cls-1{fill:none;}.cls-2{fill:#65c4d1;}.cls-3{fill:#fff;}.cls-4{fill:#f9f9f9;}.cls-5{fill:#97d8dd;}.cls-6{clip-path:url(#clip-path);}.cls-7{fill:#eac2a7;}.cls-8{fill:#c9a68f;}.cls-9{fill:#d6aa8b;}.cls-10{fill:#d6d6d6;}.cls-11{fill:#c99f4b;}.cls-12{fill:#6d5f56;}.cls-13{fill:#493e38;}.cls-14{clip-path:url(#clip-path-2);}.cls-15{fill:#fcfcfc;}.cls-16{fill:#d32222;}.cls-17{fill:#f4f4f4;}.cls-18{clip-path:url(#clip-path-3);}.cls-19{fill:#b7b7b7;}.cls-20{fill:#6d472e;}.cls-21{fill:#c99e32;}.cls-22{clip-path:url(#clip-path-4);}.cls-23{fill:#aa7e30;}.cls-24{fill:#ddd;}.cls-25{fill:#846829;}.cls-26{fill:#e8cd95;}.cls-27{fill:#eaa000;}</style><clipPath id="clip-path"><path class="cls-1" d="M152.4,232s-31.66,24-84.68,4.29S14.7,64.7,14.7,64.7C14.15,66.14,48.44,19.46,61,15.61c3.69-1.14,22.85-16,39.12-15.6,22.64.55,48.77,16.57,48.77,31.79,0,23.38,28.31,128.35,28.31,128.35s11.88,46,5.94,49.53"/></clipPath><clipPath id="clip-path-2"><path class="cls-1" d="M109.2,71c-.25-.26,15,1,20.88-3.34,0,0,1.15,11.64-4.06,12.91C120.65,81.92,114.46,79.77,109.2,71Z"/></clipPath><clipPath id="clip-path-3"><path class="cls-1" d="M117.86,243.25c3.55,7.05,28.53,8.53,30.59,9.19,0,0,.66-28.29-3.33-44.18S117.86,243.25,117.86,243.25Z"/></clipPath><clipPath id="clip-path-4"><path class="cls-1" d="M87.49,67.94c4.4,1.82.6-6.08.6-6.08S87.68,54,85.44,52.6a32,32,0,0,1-4.89-4L91.8,40.89,122.56,19.8s4.26-5.92-5.46-9.57a11.56,11.56,0,0,0-11.77-3.49s-4.25-5.09-10.4-.42c0,0-12.38-.72-15.19,5.36a4.61,4.61,0,0,0-4.55,2.58s-2.59,1-3.08,3.07c0,0-6.26,2.47-6.64,6.65,0,0-3.42,4.78-.69,8.65,0,0-1.8,3.4.54,5.73,0,0-5.24,5.74,0,9.3,0,0-1.3,3.73,6.37,5.24L74,57.61s2.19-1,8.5,5.32Z"/></clipPath></defs><title>9-intro</title><path class="cls-2" d="M871,195.33H152V108H871a10,10,0,0,1,10,10v67.36A10,10,0,0,1,871,195.33Z"/><path class="cls-3" d="M330,159v-1.48l1.91-.33V143.71l-1.91-.33v-1.49h13.1V146h-2l-.18-2.29h-6.72v5.52h6.53v1.82h-6.53v6.1h6.86l.18-2.28h2V159Zm7.48-21.37h2.69l0,.07-3.15,3.05h-1.73Z"/><path class="cls-3" d="M351.19,157.48l1.91-.33V142.49l-1.91-.33v-1.48h4.21V148a4.71,4.71,0,0,1,1.61-1.41,4.39,4.39,0,0,1,2.11-.51,4.09,4.09,0,0,1,3.16,1.22,5.37,5.37,0,0,1,1.13,3.75v6.14l1.91.33V159h-6.13v-1.48l1.91-.33V151a3.38,3.38,0,0,0-.67-2.32,2.57,2.57,0,0,0-2-.75,3.38,3.38,0,0,0-1.73.45,3.86,3.86,0,0,0-1.29,1.22v7.56l1.92.33V159h-6.13Z"/><path class="cls-3" d="M366.89,152.5a7,7,0,0,1,1.52-4.63,5.62,5.62,0,0,1,8.29,0,7,7,0,0,1,1.53,4.64v.26a6.92,6.92,0,0,1-1.52,4.64,5.67,5.67,0,0,1-8.3,0,7,7,0,0,1-1.52-4.63Zm2.31.26a6,6,0,0,0,.85,3.33,3.06,3.06,0,0,0,5,0,6,6,0,0,0,.85-3.33v-.26a6,6,0,0,0-.85-3.32,3.06,3.06,0,0,0-5,0,6.11,6.11,0,0,0-.84,3.32Z"/><path class="cls-3" d="M380.34,147.77v-1.49h4l.22,1.84a4.44,4.44,0,0,1,1.33-1.53,3.15,3.15,0,0,1,1.81-.55,5.28,5.28,0,0,1,.55,0,3.27,3.27,0,0,1,.44.09l-.3,2.15-1.31-.07a2.71,2.71,0,0,0-1.54.42,2.85,2.85,0,0,0-1,1.21v7.27l1.91.33V159h-6.13v-1.48l1.91-.33v-9.06Z"/><path class="cls-3" d="M398.54,159c-.07-.35-.12-.66-.16-.93a7.58,7.58,0,0,1-.08-.82,5.61,5.61,0,0,1-1.67,1.42,4.79,4.79,0,0,1-5.15-.39,3.57,3.57,0,0,1-1-2.73,3.16,3.16,0,0,1,1.46-2.78,7.15,7.15,0,0,1,4-1h2.38v-1.48a2.27,2.27,0,0,0-.7-1.76,2.79,2.79,0,0,0-2-.65,4.83,4.83,0,0,0-1.53.22,2.92,2.92,0,0,0-1.07.61l-.24,1.34H391v-2.46a7,7,0,0,1,2.1-1.11,8.21,8.21,0,0,1,2.67-.42,5.35,5.35,0,0,1,3.5,1.1,3.87,3.87,0,0,1,1.33,3.16v6.1c0,.17,0,.33,0,.48a3.59,3.59,0,0,0,0,.47l.94.13V159Zm-3.71-1.69a4.06,4.06,0,0,0,2.09-.55,3.35,3.35,0,0,0,1.36-1.33v-2.08h-2.46a3.55,3.55,0,0,0-2.24.65,2,2,0,0,0-.83,1.6,1.56,1.56,0,0,0,.52,1.27A2.36,2.36,0,0,0,394.83,157.27Z"/><path class="cls-3" d="M418,157.45a4.2,4.2,0,0,1-1.51,1.31,4.72,4.72,0,0,1-2.08.44,4.34,4.34,0,0,1-3.63-1.68,7,7,0,0,1-1.31-4.42v-.25a8.46,8.46,0,0,1,1.31-4.93,4.2,4.2,0,0,1,3.65-1.88,4.51,4.51,0,0,1,2,.42,4.23,4.23,0,0,1,1.47,1.2v-5.17l-1.91-.33v-1.48h4.22v16.47l1.91.33V159h-3.92Zm-6.22-4.35a5.36,5.36,0,0,0,.79,3.07,2.72,2.72,0,0,0,2.42,1.16,3.09,3.09,0,0,0,1.74-.47,3.58,3.58,0,0,0,1.16-1.32v-5.89a3.62,3.62,0,0,0-1.16-1.26,3,3,0,0,0-1.71-.47,2.64,2.64,0,0,0-2.45,1.37,7.14,7.14,0,0,0-.79,3.56Z"/><path class="cls-3" d="M429.64,159.2a5.33,5.33,0,0,1-4.21-1.76,6.66,6.66,0,0,1-1.56-4.58v-.51a6.48,6.48,0,0,1,1.61-4.51,5,5,0,0,1,3.81-1.8,4.8,4.8,0,0,1,3.87,1.55,6.14,6.14,0,0,1,1.32,4.12v1.45h-8.22l0,.05a5,5,0,0,0,.93,3,2.92,2.92,0,0,0,2.49,1.18,5.67,5.67,0,0,0,2.06-.34,4.53,4.53,0,0,0,1.53-.92l.9,1.5a5.42,5.42,0,0,1-1.8,1.11A7.18,7.18,0,0,1,429.64,159.2Zm-.35-11.34a2.52,2.52,0,0,0-2,1,4.64,4.64,0,0,0-1,2.45l0,.06h5.84v-.3a3.57,3.57,0,0,0-.72-2.28A2.6,2.6,0,0,0,429.29,147.86Z"/><path class="cls-3" d="M446.75,143.22v3.06h2.4V148h-2.4v7.7a1.74,1.74,0,0,0,.37,1.25,1.35,1.35,0,0,0,1,.36,4.47,4.47,0,0,0,.69-.05,5.73,5.73,0,0,0,.63-.11l.32,1.58a3,3,0,0,1-1,.35,6,6,0,0,1-1.27.13,3,3,0,0,1-2.23-.85,3.64,3.64,0,0,1-.84-2.66V148h-2v-1.71h2v-3.06Z"/><path class="cls-3" d="M457.3,159.2a5.32,5.32,0,0,1-4.21-1.76,6.62,6.62,0,0,1-1.57-4.58v-.51a6.52,6.52,0,0,1,1.61-4.51A5,5,0,0,1,457,146a4.81,4.81,0,0,1,3.87,1.55,6.14,6.14,0,0,1,1.32,4.12v1.45h-8.23l0,.05a5,5,0,0,0,.92,3,3,3,0,0,0,2.5,1.18,5.67,5.67,0,0,0,2.06-.34,4.53,4.53,0,0,0,1.53-.92l.9,1.5a5.63,5.63,0,0,1-1.8,1.11A7.21,7.21,0,0,1,457.3,159.2ZM457,147.86a2.49,2.49,0,0,0-2,1,4.56,4.56,0,0,0-1,2.45l0,.06h5.85v-.3a3.52,3.52,0,0,0-.73-2.28A2.57,2.57,0,0,0,457,147.86Z"/><path class="cls-3" d="M474.12,150.26h-1.74l-.37-1.52a3.1,3.1,0,0,0-1.06-.64,4.12,4.12,0,0,0-1.45-.24,2.67,2.67,0,0,0-1.83.54,1.68,1.68,0,0,0-.6,1.3,1.45,1.45,0,0,0,.53,1.18,5.5,5.5,0,0,0,2.14.78,9.15,9.15,0,0,1,3.58,1.4,2.82,2.82,0,0,1,1.17,2.37,3.28,3.28,0,0,1-1.36,2.73,5.69,5.69,0,0,1-3.57,1,9.35,9.35,0,0,1-2.59-.33,6.81,6.81,0,0,1-2.05-1l0-2.89h1.74l.43,1.7a2.36,2.36,0,0,0,1.09.52,5.9,5.9,0,0,0,1.4.17,3.25,3.25,0,0,0,1.92-.5,1.53,1.53,0,0,0,.7-1.31,1.57,1.57,0,0,0-.58-1.25,5.49,5.49,0,0,0-2.2-.86,9.22,9.22,0,0,1-3.48-1.37,2.75,2.75,0,0,1-1.17-2.34,3.32,3.32,0,0,1,1.32-2.64A5.24,5.24,0,0,1,469.5,146a8.34,8.34,0,0,1,2.59.38,5.55,5.55,0,0,1,1.91,1Z"/><path class="cls-3" d="M480.68,143.22v3.06h2.4V148h-2.4v7.7a1.7,1.7,0,0,0,.37,1.25,1.33,1.33,0,0,0,1,.36,4.27,4.27,0,0,0,.68-.05,5.55,5.55,0,0,0,.64-.11l.32,1.58a3,3,0,0,1-1,.35,6.15,6.15,0,0,1-1.27.13,3,3,0,0,1-2.24-.85,3.69,3.69,0,0,1-.83-2.66V148h-2v-1.71h2v-3.06Z"/><path class="cls-3" d="M493.71,159c-.07-.35-.13-.66-.16-.93s-.07-.55-.09-.82a5.37,5.37,0,0,1-1.67,1.42,4.79,4.79,0,0,1-5.15-.39,3.6,3.6,0,0,1-1-2.73,3.16,3.16,0,0,1,1.46-2.78,7.13,7.13,0,0,1,4-1h2.38v-1.48a2.27,2.27,0,0,0-.7-1.76,2.79,2.79,0,0,0-2-.65,4.75,4.75,0,0,0-1.53.22,2.84,2.84,0,0,0-1.07.61l-.25,1.34h-1.78v-2.46a7,7,0,0,1,2.1-1.11,8.21,8.21,0,0,1,2.67-.42,5.32,5.32,0,0,1,3.49,1.1,3.85,3.85,0,0,1,1.34,3.16v6.1c0,.17,0,.33,0,.48a3.59,3.59,0,0,0,0,.47l.93.13V159ZM490,157.27a4.07,4.07,0,0,0,2.1-.55,3.35,3.35,0,0,0,1.36-1.33v-2.08H491a3.55,3.55,0,0,0-2.24.65,2,2,0,0,0-.83,1.6,1.56,1.56,0,0,0,.52,1.27A2.35,2.35,0,0,0,490,157.27Z"/><path class="cls-3" d="M498.65,147.77v-1.49h4l.22,1.84a4.44,4.44,0,0,1,1.33-1.53A3.15,3.15,0,0,1,506,146a5.46,5.46,0,0,1,.56,0l.44.09-.31,2.15-1.31-.07a2.71,2.71,0,0,0-1.54.42,2.85,2.85,0,0,0-1,1.21v7.27l1.91.33V159h-6.13v-1.48l1.92-.33v-9.06Z"/><path class="cls-3" d="M524.25,150.26h-1.74l-.37-1.52a3.1,3.1,0,0,0-1.06-.64,4.12,4.12,0,0,0-1.45-.24,2.67,2.67,0,0,0-1.83.54,1.67,1.67,0,0,0-.59,1.3,1.44,1.44,0,0,0,.52,1.18,5.5,5.5,0,0,0,2.15.78,9.16,9.16,0,0,1,3.57,1.4,2.82,2.82,0,0,1,1.17,2.37,3.28,3.28,0,0,1-1.36,2.73,5.69,5.69,0,0,1-3.57,1,9.41,9.41,0,0,1-2.59-.33,6.81,6.81,0,0,1-2.05-1V155h1.73l.44,1.7a2.28,2.28,0,0,0,1.08.52,6,6,0,0,0,1.4.17,3.3,3.3,0,0,0,1.93-.5,1.55,1.55,0,0,0,.7-1.31,1.58,1.58,0,0,0-.59-1.25,5.43,5.43,0,0,0-2.19-.86,9.08,9.08,0,0,1-3.48-1.37,2.75,2.75,0,0,1-1.17-2.34,3.31,3.31,0,0,1,1.31-2.64,5.26,5.26,0,0,1,3.43-1.09,8.3,8.3,0,0,1,2.59.38,5.46,5.46,0,0,1,1.91,1Z"/><path class="cls-3" d="M532.57,159.2a5.32,5.32,0,0,1-4.21-1.76,6.62,6.62,0,0,1-1.57-4.58v-.51a6.52,6.52,0,0,1,1.61-4.51,5,5,0,0,1,3.82-1.8,4.81,4.81,0,0,1,3.87,1.55,6.14,6.14,0,0,1,1.32,4.12v1.45h-8.23l0,.05a5,5,0,0,0,.92,3,3,3,0,0,0,2.5,1.18,5.67,5.67,0,0,0,2.06-.34,4.39,4.39,0,0,0,1.52-.92l.91,1.5a5.63,5.63,0,0,1-1.8,1.11A7.21,7.21,0,0,1,532.57,159.2Zm-.35-11.34a2.49,2.49,0,0,0-2,1,4.56,4.56,0,0,0-1,2.45l0,.06h5.85v-.3a3.52,3.52,0,0,0-.73-2.28A2.57,2.57,0,0,0,532.22,147.86Z"/><path class="cls-3" d="M548.75,157.08A4.11,4.11,0,0,1,545,159.2a4,4,0,0,1-3.22-1.32,6.12,6.12,0,0,1-1.17-4.13v-5.66l-1.45-.32v-1.49H543v7.5a4.72,4.72,0,0,0,.6,2.79,2.24,2.24,0,0,0,1.86.76,3.85,3.85,0,0,0,2-.5,3.1,3.1,0,0,0,1.21-1.41v-7.33l-1.7-.32v-1.49h4v10.87l1.45.33V159H548.9Z"/><path class="cls-3" d="M564,150.26h-1.73l-.38-1.52a3,3,0,0,0-1.06-.64,4,4,0,0,0-1.44-.24,2.67,2.67,0,0,0-1.83.54,1.68,1.68,0,0,0-.6,1.3,1.45,1.45,0,0,0,.53,1.18,5.44,5.44,0,0,0,2.14.78,9.21,9.21,0,0,1,3.58,1.4,2.82,2.82,0,0,1,1.17,2.37,3.29,3.29,0,0,1-1.37,2.73,5.69,5.69,0,0,1-3.57,1,9.28,9.28,0,0,1-2.58-.33,7,7,0,0,1-2.06-1V155h1.74l.43,1.7a2.37,2.37,0,0,0,1.08.52,6,6,0,0,0,1.4.17,3.26,3.26,0,0,0,1.93-.5,1.53,1.53,0,0,0,.7-1.31,1.57,1.57,0,0,0-.58-1.25,5.56,5.56,0,0,0-2.2-.86,9.08,9.08,0,0,1-3.48-1.37,2.75,2.75,0,0,1-1.17-2.34,3.32,3.32,0,0,1,1.32-2.64,5.24,5.24,0,0,1,3.43-1.09,8.34,8.34,0,0,1,2.59.38,5.55,5.55,0,0,1,1.91,1Z"/><path class="cls-3" d="M578.15,157.4a3.16,3.16,0,0,0,2-.71,2.16,2.16,0,0,0,.87-1.74h2.07l0,.07a3.56,3.56,0,0,1-1.46,2.91,5.32,5.32,0,0,1-3.54,1.27,5.11,5.11,0,0,1-4.22-1.8,7,7,0,0,1-1.46-4.54v-.49a7,7,0,0,1,1.47-4.52,5.11,5.11,0,0,1,4.21-1.81,7,7,0,0,1,2.74.51,5.38,5.38,0,0,1,2,1.38l.11,2.81h-1.84l-.51-2a2.87,2.87,0,0,0-1-.64,4,4,0,0,0-1.46-.25,2.78,2.78,0,0,0-2.59,1.31,6.14,6.14,0,0,0-.78,3.2v.49a6.27,6.27,0,0,0,.77,3.24A2.79,2.79,0,0,0,578.15,157.4Z"/><path class="cls-3" d="M585.41,152.5a7,7,0,0,1,1.52-4.63,5.62,5.62,0,0,1,8.29,0,7,7,0,0,1,1.53,4.64v.26a7,7,0,0,1-1.52,4.64,5.67,5.67,0,0,1-8.3,0,7,7,0,0,1-1.52-4.63Zm2.31.26a6,6,0,0,0,.85,3.33,3.06,3.06,0,0,0,5,0,6,6,0,0,0,.85-3.33v-.26a6,6,0,0,0-.85-3.32,3.06,3.06,0,0,0-5,0,6.11,6.11,0,0,0-.84,3.32Z"/><path class="cls-3" d="M598.52,157.48l1.91-.33v-9.06l-1.91-.32v-1.49h4l.17,1.88a4.56,4.56,0,0,1,1.59-1.56,4.22,4.22,0,0,1,2.17-.56,4.15,4.15,0,0,1,3.18,1.2,5.29,5.29,0,0,1,1.12,3.71v6.2l1.91.33V159H606.5v-1.48l1.91-.33V151a3.44,3.44,0,0,0-.66-2.38,2.64,2.64,0,0,0-2-.7,3.25,3.25,0,0,0-1.76.48,3.52,3.52,0,0,0-1.23,1.31v7.44l1.91.33V159h-6.13Z"/><path class="cls-3" d="M614,157.48l1.91-.33V142.49l-1.91-.33v-1.48h4.22V148a4.62,4.62,0,0,1,1.61-1.41,4.35,4.35,0,0,1,2.1-.51,4.11,4.11,0,0,1,3.17,1.22,5.37,5.37,0,0,1,1.12,3.75v6.14l1.91.33V159H622v-1.48l1.91-.33V151a3.38,3.38,0,0,0-.67-2.32,2.57,2.57,0,0,0-2-.75,3.41,3.41,0,0,0-1.73.45,3.83,3.83,0,0,0-1.28,1.22v7.56l1.91.33V159H614Z"/><path class="cls-3" d="M635.47,159.2a5.33,5.33,0,0,1-4.21-1.76,6.67,6.67,0,0,1-1.57-4.58v-.51a6.48,6.48,0,0,1,1.62-4.51,5,5,0,0,1,3.81-1.8,4.81,4.81,0,0,1,3.87,1.55,6.14,6.14,0,0,1,1.32,4.12v1.45h-8.23l0,.05a5,5,0,0,0,.93,3,2.92,2.92,0,0,0,2.49,1.18,5.67,5.67,0,0,0,2.06-.34,4.53,4.53,0,0,0,1.53-.92l.9,1.5a5.42,5.42,0,0,1-1.8,1.11A7.21,7.21,0,0,1,635.47,159.2Zm-.35-11.34a2.52,2.52,0,0,0-2,1,4.64,4.64,0,0,0-1,2.45l0,.06H638v-.3a3.57,3.57,0,0,0-.72-2.28A2.6,2.6,0,0,0,635.12,147.86Z"/><path class="cls-3" d="M648.28,157.4a3.11,3.11,0,0,0,2-.71,2.16,2.16,0,0,0,.87-1.74h2.08l0,.07a3.56,3.56,0,0,1-1.46,2.91,5.32,5.32,0,0,1-3.53,1.27,5.11,5.11,0,0,1-4.22-1.8,7,7,0,0,1-1.46-4.54v-.49a7,7,0,0,1,1.46-4.52,5.13,5.13,0,0,1,4.22-1.81,7,7,0,0,1,2.74.51,5.55,5.55,0,0,1,2,1.38l.1,2.81h-1.84l-.5-2a3,3,0,0,0-1.06-.64,3.9,3.9,0,0,0-1.45-.25,2.79,2.79,0,0,0-2.6,1.31,6.14,6.14,0,0,0-.78,3.2v.49a6.17,6.17,0,0,0,.78,3.24A2.77,2.77,0,0,0,648.28,157.4Z"/><path class="cls-3" d="M655.52,157.48l1.91-.33v-9.06l-1.91-.32v-1.49h4.22v10.87l1.91.33V159h-6.13ZM659.74,143h-2.31v-2.35h2.31Z"/><path class="cls-3" d="M663,157.48l1.91-.33v-9.06l-1.91-.32v-1.49h4l.15,1.65a4,4,0,0,1,1.57-1.39,4.79,4.79,0,0,1,2.23-.5,3.94,3.94,0,0,1,2.17.59,3.55,3.55,0,0,1,1.36,1.76,4.68,4.68,0,0,1,1.59-1.71,4.07,4.07,0,0,1,2.29-.64,3.82,3.82,0,0,1,3.07,1.33,6.09,6.09,0,0,1,1.13,4v5.77l1.91.33V159h-6.14v-1.48l1.91-.33v-5.8a4.2,4.2,0,0,0-.65-2.65,2.33,2.33,0,0,0-1.91-.78,2.43,2.43,0,0,0-1.94.85,3.75,3.75,0,0,0-.85,2.14v6.24l1.91.33V159h-6.12v-1.48l1.91-.33v-5.8a4.12,4.12,0,0,0-.67-2.61,2.3,2.3,0,0,0-1.91-.82,3.18,3.18,0,0,0-1.74.43,2.83,2.83,0,0,0-1,1.22v7.58l1.91.33V159H663Z"/><path class="cls-3" d="M691.76,159.2a5.35,5.35,0,0,1-4.22-1.76,6.66,6.66,0,0,1-1.56-4.58v-.51a6.52,6.52,0,0,1,1.61-4.51,5,5,0,0,1,3.81-1.8,4.82,4.82,0,0,1,3.88,1.55,6.14,6.14,0,0,1,1.32,4.12v1.45h-8.23l0,.05a5.08,5.08,0,0,0,.93,3,2.94,2.94,0,0,0,2.5,1.18,5.61,5.61,0,0,0,2-.34,4.53,4.53,0,0,0,1.53-.92l.9,1.5a5.47,5.47,0,0,1-1.79,1.11A7.25,7.25,0,0,1,691.76,159.2Zm-.36-11.34a2.52,2.52,0,0,0-2,1,4.63,4.63,0,0,0-1,2.45l0,.06h5.85v-.3a3.52,3.52,0,0,0-.73-2.28A2.58,2.58,0,0,0,691.4,147.86Z"/><path class="cls-3" d="M698.53,157.48l1.91-.33v-9.06l-1.91-.32v-1.49h4l.17,1.88a4.62,4.62,0,0,1,1.58-1.56,4.29,4.29,0,0,1,2.18-.56,4.12,4.12,0,0,1,3.17,1.2,5.29,5.29,0,0,1,1.13,3.71v6.2l1.91.33V159h-6.13v-1.48l1.91-.33V151a3.44,3.44,0,0,0-.66-2.38,2.65,2.65,0,0,0-2-.7,3.26,3.26,0,0,0-1.77.48,3.5,3.5,0,0,0-1.22,1.31v7.44l1.91.33V159h-6.13Z"/><path class="cls-3" d="M718.35,143.22v3.06h2.4V148h-2.4v7.7a1.7,1.7,0,0,0,.37,1.25,1.32,1.32,0,0,0,1,.36,4.31,4.31,0,0,0,.69-.05,6,6,0,0,0,.64-.11l.31,1.58a2.81,2.81,0,0,1-1,.35,6,6,0,0,1-1.26.13,3,3,0,0,1-2.24-.85,3.69,3.69,0,0,1-.83-2.66V148h-2v-1.71h2v-3.06Z"/><path class="cls-3" d="M722.88,152.5a7,7,0,0,1,1.52-4.63,5.63,5.63,0,0,1,8.3,0,7,7,0,0,1,1.53,4.64v.26a6.92,6.92,0,0,1-1.53,4.64,5.67,5.67,0,0,1-8.3,0,7,7,0,0,1-1.52-4.63Zm2.31.26a6,6,0,0,0,.85,3.33,2.83,2.83,0,0,0,2.53,1.31,2.8,2.8,0,0,0,2.49-1.31,6,6,0,0,0,.86-3.33v-.26a6,6,0,0,0-.86-3.32,3.06,3.06,0,0,0-5,0,6.11,6.11,0,0,0-.84,3.32Z"/><path class="cls-3" d="M746,150.26H744.3l-.37-1.52a3.1,3.1,0,0,0-1.06-.64,4.12,4.12,0,0,0-1.45-.24,2.67,2.67,0,0,0-1.83.54,1.68,1.68,0,0,0-.6,1.3,1.45,1.45,0,0,0,.53,1.18,5.5,5.5,0,0,0,2.15.78,9.16,9.16,0,0,1,3.57,1.4,2.82,2.82,0,0,1,1.17,2.37,3.28,3.28,0,0,1-1.36,2.73,5.69,5.69,0,0,1-3.57,1,9.35,9.35,0,0,1-2.59-.33,6.81,6.81,0,0,1-2-1V155h1.73l.43,1.7a2.36,2.36,0,0,0,1.09.52,6,6,0,0,0,1.4.17,3.3,3.3,0,0,0,1.93-.5,1.54,1.54,0,0,0,.69-1.31,1.57,1.57,0,0,0-.58-1.25,5.5,5.5,0,0,0-2.19-.86,9.08,9.08,0,0,1-3.48-1.37,2.76,2.76,0,0,1-1.18-2.34,3.32,3.32,0,0,1,1.32-2.64,5.24,5.24,0,0,1,3.43-1.09,8.34,8.34,0,0,1,2.59.38,5.46,5.46,0,0,1,1.91,1Z"/><path class="cls-3" d="M751.51,153.36H749.2V141.89h2.31Zm0,5.6H749.2v-2.39h2.31Z"/><circle class="cls-4" cx="106" cy="143.76" r="103"/><path class="cls-2" d="M106,43.76a100,100,0,1,1-100,100,100,100,0,0,1,100-100m0-6a106,106,0,1,0,106,106,106.12,106.12,0,0,0-106-106Z"/><path class="cls-5" d="M105.74,43.94a99.74,99.74,0,1,0,99.74,99.74A99.73,99.73,0,0,0,105.74,43.94Zm0,192.83a93.09,93.09,0,1,1,93.09-93.09A93.09,93.09,0,0,1,105.74,236.77Z"/><path class="cls-5" d="M152.81,71.23a3.27,3.27,0,0,0-2.51-.47,3.35,3.35,0,0,0-2.1,1.44l-5.43,8.36a3.32,3.32,0,0,0,1,4.65,42.72,42.72,0,0,1,3.73,2.66c.75.57,1.5,1.14,2.08,1.55,1,.85,2,1.75,3,2.65l-2.3,2.3a66.28,66.28,0,0,0-14.57-10l6.8-15.25a3.32,3.32,0,0,0-1.69-4.4,86.89,86.89,0,0,0-30.63-7.29,3.3,3.3,0,0,0-3.49,3.15l-.52,10a3.33,3.33,0,0,0,3.14,3.49l3.5.17,3.73.57,1.44.22c.72.11,1.44.21,2.07.35l.45.12-.87,3.25a68,68,0,0,0-17.61-1.42l-1.72-16.64a3.31,3.31,0,0,0-3.66-3,85.73,85.73,0,0,0-30.2,9,3.32,3.32,0,0,0-1.45,4.47l4.54,8.88A3.31,3.31,0,0,0,74,81.57c.67-.31,1.33-.63,2-1a34.31,34.31,0,0,1,4.75-2l.85-.32c1-.37,2-.73,2.93-1l.86,3.22c-.82.28-1.61.57-2.4.86l-.79.3a31.13,31.13,0,0,0-4.72,2l-2,1L69.8,87.8l-.38.21L59.61,74.54a3.35,3.35,0,0,0-2.17-1.33,3.3,3.3,0,0,0-2.47.6,86.67,86.67,0,0,0-21.69,22.8,3.33,3.33,0,0,0,1,4.6l8.36,5.44a3.31,3.31,0,0,0,4.65-1.06q1.23-1.92,2.65-3.72c.58-.75,1.15-1.5,1.56-2.09.85-1,1.75-2,2.65-3l2.3,2.3a66.28,66.28,0,0,0-10,14.57l-15.25-6.8a3.34,3.34,0,0,0-4.4,1.69,86.94,86.94,0,0,0-7.29,30.64,3.34,3.34,0,0,0,3.15,3.49l10,.51A3.3,3.3,0,0,0,36.11,140l.18-3.5.56-3.72c.09-.48.16-1,.22-1.45.11-.72.21-1.44.35-2.06l.12-.46,3.25.87a67.61,67.61,0,0,0-1.42,17.61l-16.64,1.73a3.33,3.33,0,0,0-3,3.65,86.8,86.8,0,0,0,9,30.21,3.31,3.31,0,0,0,4.47,1.44l8.88-4.53a3.32,3.32,0,0,0,1.51-4.36c-.31-.66-.63-1.31-1-2a34.73,34.73,0,0,1-2-4.78l-.33-.88c-.37-1-.72-2-1-2.9l3.26-.87A65.71,65.71,0,0,0,50.11,180L36.6,189.8a3.32,3.32,0,0,0-.73,4.65,86.47,86.47,0,0,0,22.8,21.68,3.32,3.32,0,0,0,4.6-1l5.44-8.36a3.32,3.32,0,0,0-1.06-4.66c-1.28-.82-2.53-1.7-3.73-2.65-.74-.58-1.49-1.15-2.08-1.56-1-.85-2-1.74-3-2.65l2.35-2.35c.89.81,1.81,1.63,2.92,2.54.64.46,1.27.94,1.9,1.43a38,38,0,0,0,3.71,2.6l5.93,3.41.08,0-6.81,15.27a3.29,3.29,0,0,0-.07,2.54,3.34,3.34,0,0,0,1.75,1.85,86.78,86.78,0,0,0,30.64,7.29h.17a3.33,3.33,0,0,0,3.32-3.15l.51-10a3.31,3.31,0,0,0-3.14-3.49l-3.49-.18-3.73-.57-1.44-.22c-.72-.1-1.44-.2-2.07-.35l-.46-.12.88-3.25a67.57,67.57,0,0,0,17.6,1.42l1.73,16.64a3.31,3.31,0,0,0,3.65,3,85.57,85.57,0,0,0,30.21-9,3.32,3.32,0,0,0,1.45-4.47l-4.54-8.88a3.32,3.32,0,0,0-4.35-1.51c-.67.31-1.33.64-2,1a34.31,34.31,0,0,1-4.75,2l-.85.32c-1,.37-2,.73-2.93,1.05l-.88-3.25A65.63,65.63,0,0,0,142,199.3l9.83,13.51a3.32,3.32,0,0,0,4.64.73,86.43,86.43,0,0,0,21.68-22.79,3.37,3.37,0,0,0,.47-2.51,3.32,3.32,0,0,0-1.44-2.1l-8.36-5.44a3.32,3.32,0,0,0-2.55-.45,3.28,3.28,0,0,0-2.1,1.51,42.46,42.46,0,0,1-2.65,3.72c-.58.75-1.15,1.51-1.56,2.09-.85,1-1.75,2-2.66,3l-2.29-2.3a66.28,66.28,0,0,0,10-14.57l15.25,6.8a3.33,3.33,0,0,0,4.39-1.69,86.91,86.91,0,0,0,7.3-30.64,3.32,3.32,0,0,0-3.15-3.48l-10-.52a3.35,3.35,0,0,0-3.49,3.14l-.18,3.5-.57,3.73c-.08.48-.15,1-.22,1.44-.1.72-.2,1.44-.35,2.06l-.11.46-3.21-.86,0-.08a23.08,23.08,0,0,0,.41-2.35c.05-.37.1-.74.17-1.15l.51-3.27c0-.11,0-.22,0-.34l.17-3.48V140l16.7-1.73a3.33,3.33,0,0,0,3-3.66,86.8,86.8,0,0,0-9-30.21,3.32,3.32,0,0,0-4.47-1.44l-8.88,4.53a3.33,3.33,0,0,0-1.51,4.36c.31.66.63,1.31.95,2a34.09,34.09,0,0,1,2.05,4.77l.33.88c.37,1,.73,1.95,1,2.91l-3.25.87a66.08,66.08,0,0,0-7.59-15.91l13.5-9.83a3.33,3.33,0,0,0,.74-4.64A86.47,86.47,0,0,0,152.81,71.23Zm2,32.68a3.31,3.31,0,0,0-.73,4.64,59.27,59.27,0,0,1,9.37,19.65,3.34,3.34,0,0,0,4.07,2.35l9.64-2.57a3.33,3.33,0,0,0,2.39-3.91,48.49,48.49,0,0,0-2.17-6.87l-.26-.71a35,35,0,0,0-1.87-4.52l3-1.51A80.26,80.26,0,0,1,184.67,132l-16.46,1.71a3.34,3.34,0,0,0-3,3.48l.17,3.23v6.35l-.17,3.14-.47,3.05c-.07.43-.14.87-.2,1.31-.08.59-.16,1.18-.27,1.67l-.83,3.2a3.32,3.32,0,0,0,2.36,4l9.63,2.57a3.32,3.32,0,0,0,4.08-2.38l1-3.79c.2-.89.33-1.79.46-2.69.06-.43.12-.85.2-1.33l.62-4.11,0-.51,3.27.17a80.93,80.93,0,0,1-5.21,21.89l-15.11-6.74a3.36,3.36,0,0,0-2.55-.07,3.33,3.33,0,0,0-1.85,1.76,59.45,59.45,0,0,1-12.32,18,3.32,3.32,0,0,0,0,4.69l7.05,7.06a3.31,3.31,0,0,0,4.83-.15l1.8-2c1.16-1.25,2.31-2.5,3.53-4,.5-.71,1-1.41,1.57-2.1.37-.49.74-1,1.11-1.47l2.8,1.81a79.87,79.87,0,0,1-15.5,16.3l-9.75-13.39a3.31,3.31,0,0,0-4.64-.73,59.12,59.12,0,0,1-19.64,9.37,3.34,3.34,0,0,0-2.36,4.07l2.58,9.64a3.33,3.33,0,0,0,3.91,2.39,48.78,48.78,0,0,0,6.89-2.18l.69-.25a34.82,34.82,0,0,0,4.51-1.87l1.51,3a80.26,80.26,0,0,1-21.58,6.44l-1.71-16.46a3.28,3.28,0,0,0-1.19-2.24,3.35,3.35,0,0,0-2.44-.73,60.77,60.77,0,0,1-21.77-1.77,3.34,3.34,0,0,0-4.07,2.35l-2.58,9.64a3.32,3.32,0,0,0,.34,2.54,3.37,3.37,0,0,0,2,1.54l3.79,1c.89.21,1.8.34,2.7.47.42.06.85.12,1.32.21l4.11.61.51,0L98.25,223a80.77,80.77,0,0,1-21.88-5.21l6.73-15.11a3.32,3.32,0,0,0-1.59-4.35L78.75,197l-5.67-3.26a32,32,0,0,1-3-2.16c-.7-.54-1.41-1.08-1.92-1.43-1-.79-1.88-1.63-2.8-2.48-.68-.63-1.37-1.26-2.07-1.87a3.33,3.33,0,0,0-4.54.16l-7,7.05a3.33,3.33,0,0,0-1,2.44,3.36,3.36,0,0,0,1.12,2.39l1.95,1.78c1.27,1.16,2.53,2.31,4,3.55.71.5,1.4,1,2.1,1.56l1.48,1.12-1.82,2.8a79.82,79.82,0,0,1-16.29-15.5l13.38-9.74A3.28,3.28,0,0,0,58,181.28a3.33,3.33,0,0,0-.59-2.48A59.34,59.34,0,0,1,48,159.16a3.32,3.32,0,0,0-4.06-2.35l-9.64,2.57a3.33,3.33,0,0,0-2.39,3.91,48.45,48.45,0,0,0,2.16,6.87l.27.71a34.2,34.2,0,0,0,1.86,4.51l-3,1.51a80.51,80.51,0,0,1-6.44-21.58l16.46-1.71a3.33,3.33,0,0,0,3-3.63A61,61,0,0,1,48,128.2a3.33,3.33,0,0,0-2.35-4.08L36,121.55a3.29,3.29,0,0,0-2.53.34,3.35,3.35,0,0,0-1.55,2l-1,3.8c-.2.88-.34,1.78-.47,2.68-.06.43-.12.86-.2,1.33l-.61,4.11,0,.51-3.26-.17a80.54,80.54,0,0,1,5.2-21.89L46.71,121a3.31,3.31,0,0,0,4.39-1.69,59.74,59.74,0,0,1,12.33-18,3.33,3.33,0,0,0,0-4.7l-7.05-7a3.34,3.34,0,0,0-4.84.14c-.59.67-1.19,1.32-1.8,2-1.15,1.25-2.3,2.51-3.52,4-.51.71-1,1.41-1.57,2.11-.37.48-.75,1-1.12,1.47l-2.79-1.82a79.87,79.87,0,0,1,15.5-16.3L66,94.58a3.33,3.33,0,0,0,4.65.73l.77-.58A12.07,12.07,0,0,1,73,93.61l5.44-3.15c.64-.29,1.28-.6,1.91-.91a26.19,26.19,0,0,1,3.89-1.67l1-.37A34.11,34.11,0,0,1,90.07,86a3.36,3.36,0,0,0,2.16-1.51,3.32,3.32,0,0,0,.38-2.61L90,72.24a3.33,3.33,0,0,0-3.91-2.39A49.15,49.15,0,0,0,79.23,72l-.69.26A34.64,34.64,0,0,0,74,74.14l-1.52-3a80.69,80.69,0,0,1,21.59-6.44l1.7,16.46a3.31,3.31,0,0,0,3.63,3,61.2,61.2,0,0,1,21.77,1.77,3.34,3.34,0,0,0,2.53-.33,3.3,3.3,0,0,0,1.54-2L127.86,74a3.3,3.3,0,0,0-.34-2.53,3.35,3.35,0,0,0-2-1.55l-3.78-1c-.9-.2-1.8-.34-2.71-.47l-1.32-.2-4.1-.61-.52,0,.17-3.26a80.45,80.45,0,0,1,21.89,5.2l-6.74,15.12a3.32,3.32,0,0,0,1.7,4.39,59.74,59.74,0,0,1,18,12.33,3.33,3.33,0,0,0,4.7,0l7.05-7a3.34,3.34,0,0,0-.14-4.84c-.66-.58-1.31-1.17-2-1.77-1.26-1.16-2.52-2.32-4-3.55-.71-.51-1.4-1-2.09-1.57l-1.48-1.12,1.81-2.79a79.61,79.61,0,0,1,16.3,15.5Z"/><path class="cls-5" d="M105.74,90.48a53.09,53.09,0,0,0-45.87,80l.2.34A53.59,53.59,0,0,0,73.63,186c.09.06.14.15.23.2l.07,0a52.79,52.79,0,0,0,63.6,0l.09,0c.09-.05.14-.14.22-.2a53.29,53.29,0,0,0,13.56-15.17,3.13,3.13,0,0,0,.21-.34,53.09,53.09,0,0,0-45.87-80Zm-6,7.09-36.9,64.17a46.49,46.49,0,0,1,36.9-64.17ZM79.9,182.36l25.84-44.92,25.84,44.92a46.4,46.4,0,0,1-51.68,0Zm56.95-4.17-26.79-46.57a5,5,0,0,0-8.65,0L74.62,178.19a46.7,46.7,0,0,1-8.09-9.53l39.21-68.19,7.6,13.19.15.29,31.45,54.71a46.7,46.7,0,0,1-8.09,9.53Zm11.78-16.45L119.41,110.9c0-.1-.1-.2-.15-.3l-7.52-13a46.5,46.5,0,0,1,36.89,64.17Z"/><g class="cls-6"><path class="cls-7" d="M94.21,81.07,98.53,97.7s.69,4.1-.79,5.58-8.43,9.34-8.43,9.34l-3.87,7.63L107.87,133l26.77-7.18-.8-18.79s-13.71-.87-21.7-6.87c-1.57-1.18-2.9-14.88-2.9-14.88Z"/><path class="cls-8" d="M110,91.33c-.42-3.06-.77-6.15-.77-6.15L94.18,81l1.2,4.63s4.71,3.07,6.17,3.71A28.52,28.52,0,0,0,110,91.33Z"/><path class="cls-7" d="M81.73,116.93S71,123,70,124s-8.64,7.86-8.64,7.86l-.3,24.89L51.13,133l-8.66,3.83,12.32,36.92,6.78,10.5,5.12,1.93,7.54-34.84,10.86,6.81,13.33-9.74-9.57-23.84-4.1-9Z"/><path class="cls-7" d="M42.11,136.72A11.68,11.68,0,0,1,37,132.44a41.76,41.76,0,0,1-5.36.28.66.66,0,0,1-.76-.7,52,52,0,0,0-2.76-9.71,1.49,1.49,0,0,1-.16-.85c.11-.52.72-.76,1.26-.81a3.22,3.22,0,0,0,1.55-.31c.58-.4.76-1.31,1.44-1.53s1.16.19,1.68,0,.68-.93,1-1.39a3.74,3.74,0,0,1,2.31-.92,16.5,16.5,0,0,0,4.08-1.63.47.47,0,0,0,.23-.21.37.37,0,0,0,0-.23c-.62-2.91-1.94-5.83-2.56-8.74a64.19,64.19,0,0,1-1.06-8.35,4.43,4.43,0,0,1,2.31-2.81,1,1,0,0,1,.86-.11c.32.15.43.55.51.9.7,3.25,2.62,11.49,3.32,14.74.44,2.08,4.2,7.26,5,7.87s.92,1.38,1.83,2.07a1.54,1.54,0,0,1,.79,1.56l.14,5.5c.06,2.14,0,4.54-1.5,6.06Z"/><path class="cls-8" d="M49.59,117.45c-1.11-.3-2.19-1-3.39-.81a7.71,7.71,0,0,0-2.74,1.42c-2.43,1.66-4.16,4.2-6.77,5.57a1.08,1.08,0,0,0-.21,1.68c1.48,1.45,3.64,3.16,5.85,2.66a6.8,6.8,0,0,0,4.57-4.27l-1.57.64a8.65,8.65,0,0,0,2.22,1.19c1.29.5,1.82-1.56.57-2.06-4.21-1.7-6,3.8-4.53,6.82.59,1.24,2.44.16,1.85-1.08-.67-1.41-.29-4.65,2.11-3.68l.57-2.06a5,5,0,0,1-1.71-1c-.61-.45-1.36.07-1.57.64-1.28,3.39-4.72,2.75-6.85.67l-.22,1.68a22,22,0,0,0,4.68-3.87,18.26,18.26,0,0,1,2.7-2.1c1.29-.8,2.49-.37,3.87,0a1.07,1.07,0,0,0,.57-2.06Z"/><path class="cls-8" d="M41.07,121.53,40.58,119l-2.07.57a2.87,2.87,0,0,0,1.58,1.93,1.11,1.11,0,0,0,1.46-.39,1.07,1.07,0,0,0-.38-1.46.85.85,0,0,1-.59-.65,1.07,1.07,0,0,0-2.07.57l.5,2.49a1.08,1.08,0,0,0,1.31.75,1.1,1.1,0,0,0,.75-1.32Z"/><path class="cls-7" d="M85.36,74.16S94.06,89.64,120,89.65c10.74,0,14.73-2.51,15.34-6,3.8-21.91-4.3-49.62-15.53-58.08C110,18.15,75,46.22,75,46.22l7.44,16.71s-7.59-8.2-10.62-3.65,6.6,14.2,6.6,14.2S82.78,76.74,85.36,74.16Z"/><path class="cls-7" d="M137.25,109.28c2.58-1.37,4.9,1.85,4.9,1.85L168.35,157l-22.62,40.57s7.6,12.76,3.8,18.53l5.24,5.24s.83,2.81-3,2.81-12.76-6.68-12.76-6.68l1-28.61L157,158.42l-15.51-23.06-4.85-4.3S132.43,111.83,137.25,109.28Z"/><path class="cls-7" d="M110,237.65l-22,55s-2.82,10.42-6.18,13.78a148.24,148.24,0,0,1-8.32,24c-5.69,12.75-8.2,30.29-8.2,30.29s5.18,13.16,4.56,19.08c0,0,5,6.83,3,10.76s-9.8,1.6-9.8,1.6-13,1.71-15-1.54,2.45-12,2.45-12-.63-7,1.65-8.54,5-5.47,5-5.47-.86-2.27,1.54-5.35,5.92-22.8,5.92-25.38-3.19-21.86,7.44-29.46c0,0,2.58-52.39,9.87-59.68s28-11.61,28-11.61Z"/><path class="cls-9" d="M110,237.65l-7,17.6s-9.71,4.33-12.16,4.93C89,260.63,76,264.65,76.48,262c1.37-8.19,3.25-14.9,5.54-17.19,7.29-7.28,28-11.61,28-11.61Z"/><path class="cls-7" d="M117.86,229.51s18.37,69.39,19.74,72.58-5.81,9.38,6.72,53.34c0,0-.8,5.81-1.94,7.86s-3.76,7.29-.46,9.11,14,10.93,18.57,11.73,13.1-3.19,13.1-3.19,4.55-1.71,3.13-3.13c0,0-4.16-.17-5.53-1.54s-16.85-13.55-16.85-13.55-4.78-6.15-4.78-6.57-3.42-54.47-3.42-54.47,1.25-3.42,0-10.37-.65-50.72-.65-50.72Z"/><path class="cls-9" d="M117.86,229.51l5.6,21.08c.49,1.84,21.92,3.33,21.92,3.33l.11-13.33Z"/><path class="cls-10" d="M117.86,243.25c3.55,7.05,28.53,8.53,30.59,9.19,0,0,.66-28.29-3.33-44.18S117.86,243.25,117.86,243.25Z"/><path class="cls-11" d="M87.49,67.94c4.4,1.82.6-6.08.6-6.08S87.68,54,85.44,52.6a32,32,0,0,1-4.89-4l42-28.81s4.26-5.92-5.46-9.57a11.56,11.56,0,0,0-11.77-3.49s-4.25-5.09-10.4-.42c0,0-12.38-.72-15.19,5.36a4.61,4.61,0,0,0-4.55,2.58s-2.59,1-3.08,3.07c0,0-6.26,2.47-6.64,6.65,0,0-3.42,4.78-.69,8.65,0,0-1.8,3.4.54,5.73,0,0-5.24,5.74,0,9.3,0,0-1.3,3.73,6.37,5.24L74,57.61s2.19-1,8.5,5.32Z"/><path class="cls-8" d="M118.08,68.37a1.5,1.5,0,1,1,0-3c1.6,0,6.08-1.35,9.18-2.41-1-7.81-6-13.65-8.93-16.5a1.5,1.5,0,1,1,2.07-2.16c3.44,3.28,9.31,10.2,10,19.58l.08,1.14-1.07.38C128.52,65.71,121,68.37,118.08,68.37Z"/><ellipse class="cls-12" cx="104.54" cy="51.58" rx="2.04" ry="2.79" transform="translate(-9.42 27.03) rotate(-14.1)"/><path class="cls-12" d="M101.4,51.07h-.06A1.51,1.51,0,0,1,99.9,49.5c0-.4.25-4,2.84-5.37,1.67-.9,3.77-.62,6.23.85a1.5,1.5,0,1,1-1.54,2.57c-1.44-.86-2.6-1.14-3.27-.78-.87.47-1.23,2.16-1.26,2.86A1.5,1.5,0,0,1,101.4,51.07Z"/><ellipse class="cls-12" cx="123.47" cy="45.86" rx="2.04" ry="2.79" transform="translate(-7.45 31.47) rotate(-14.1)"/><path class="cls-12" d="M119.81,45a1.83,1.83,0,0,1-.4,0,1.5,1.5,0,0,1-1-1.84c.11-.39,1.12-3.82,4-4.6,1.84-.51,3.82.23,5.89,2.21a1.5,1.5,0,1,1-2.08,2.17c-1.21-1.16-2.27-1.69-3-1.49-1,.28-1.72,1.95-1.88,2.51A1.49,1.49,0,0,1,119.81,45Z"/><path class="cls-13" d="M109.2,71c-.25-.26,15,1,20.88-3.34,0,0,1.15,11.64-4.06,12.91C120.65,81.92,114.46,79.77,109.2,71Z"/><g class="cls-14"><path class="cls-15" d="M108.2,72.87s14.31,4.08,20.67-2.28l-.8-2.89-21,1.41Z"/><path class="cls-16" d="M110.72,78.11s4.59-4.44,11.92-1.48,0,8.31,0,8.31Z"/></g><path class="cls-8" d="M122.88,82c-8.68,0-14.49-10.4-14.56-10.52L107.46,70l1.79.09c.14,0,14.15.69,20.3-3.18a1,1,0,0,1,1.38.31,1,1,0,0,1-.32,1.38c-5.32,3.35-15.4,3.6-19.58,3.54,2.24,3.29,8.15,10.4,15.74,7.09a1,1,0,1,1,.8,1.84A11.74,11.74,0,0,1,122.88,82Z"/><path class="cls-8" d="M82.13,72.42s-.22-10-7.91-12.36"/><path class="cls-8" d="M74.23,151.35s6.57-8.81,5.7-7.47c-4.81,7.44,12.31,16,16.33,11.45a10.29,10.29,0,0,1-11.17,2.83Z"/><path class="cls-17" d="M89.31,112.62s-7.3,2.69-10.69,6.08c0,0,20.45,29.66,6.47,39.46,0,0,12.87,24.58,11.51,29.59s-24.23,68.83-24.23,68.83,70.61-1.26,73.12-47.42l-3.34-26.57a223.53,223.53,0,0,0,2-27c.14-13-1.28-27.87-2.32-38A16.34,16.34,0,0,0,137,107.27l-6.65-.62s5.25,17.59-6.9,19.25C116.93,126.8,101.15,128.91,89.31,112.62Z"/><g class="cls-18"><path class="cls-19" d="M75,258.3s70.61-1.25,73.12-47.41Z"/></g><path class="cls-17" d="M89.31,112.62s-7.3,2.69-10.69,6.08c0,0,20.45,29.66,6.47,39.46,0,0,12.87,24.58,11.51,29.59s-24.23,68.83-24.23,68.83,70.61-1.26,73.12-47.42l-3.34-26.57a223.53,223.53,0,0,0,2-27c.14-13-1.28-27.87-2.32-38A16.34,16.34,0,0,0,137,107.27l-6.65-.62s5.25,17.59-6.9,19.25C116.93,126.8,101.15,128.91,89.31,112.62Z"/><path class="cls-20" d="M95,192.91s37.22,5,47.55-6.89c0,0,1.13-2.33-.43-3.43.23,2.19-17.48,11.72-45.55,5.69A3.05,3.05,0,0,0,95,192.91Z"/><circle class="cls-21" cx="125.95" cy="191.12" r="8.68"/><g class="cls-22"><path class="cls-23" d="M84.72,23.14s-3.73,4.52,1,7.54c1.66,1.05-4.9,6.15-4.9,6.15L78.18,51.69a19.77,19.77,0,0,1,5.69-1.38l12,13.74-7.69,4.8L63.65,52.32,47.32,20.79l21-19.1,23-5.35-4,8s-9.77,6-6,10.27C78.94,16.26,78.49,22.7,84.72,23.14Z"/></g><path class="cls-3" d="M74.08,57.61s-4.4-2-4.4-5.62,17.16-38.11,53-32.19c0,0,5.54,3.87,3.64,5.77,0,0,3.42,4.24.69,6.52S111,31,74.08,57.61Z"/><path class="cls-24" d="M76,49.57S99,21.62,123.47,25.27C123.47,25.27,100.62,26.49,76,49.57Z"/><path class="cls-25" d="M126.91,198.38a8.46,8.46,0,0,1-6.22-2.41c-1.66-1.86-2.13-4.56-1.38-8a1.5,1.5,0,0,1,2.93.63c-.53,2.47-.3,4.28.69,5.38,1.48,1.66,4.38,1.41,4.41,1.41a1.5,1.5,0,0,1,.31,3A6.15,6.15,0,0,1,126.91,198.38Z"/><path class="cls-26" d="M131.2,195.44a1.84,1.84,0,0,1-.33,0,1.51,1.51,0,0,1-1.14-1.79c.55-2.47.33-4.28-.65-5.39-1.48-1.67-4.38-1.44-4.4-1.43a1.5,1.5,0,1,1-.3-3c.18,0,4.43-.4,6.94,2.43,1.66,1.86,2.11,4.57,1.34,8A1.49,1.49,0,0,1,131.2,195.44Z"/><path class="cls-8" d="M37.36,133.07a2.37,2.37,0,0,0,0-4c-1-.73-2.22.89-1.3,1.68s2.17,1.74,3.59,1.47A3,3,0,0,0,42,129.79l-1.58.64a3.41,3.41,0,0,0,3.49.1c1.23-.62.15-2.46-1.08-1.85a1.2,1.2,0,0,1-1.33-.1,1.07,1.07,0,0,0-1.57.64c-.3,1.52-1.64.58-2.35,0l-1.29,1.68,0,.35c-1.12.78-.05,2.64,1.08,1.85Z"/><path class="cls-8" d="M31.34,119.36c.5,2.31,1.06,4.62,1.66,6.91a1.07,1.07,0,0,0,2.06-.57c-.6-2.29-1.15-4.6-1.65-6.91-.3-1.35-2.36-.78-2.07.57Z"/><path class="cls-8" d="M59.9,156.44a21.45,21.45,0,0,1,2.43,8.42c.1,1.36,2.24,1.37,2.14,0a24.29,24.29,0,0,0-2.72-9.5c-.64-1.22-2.49-.14-1.85,1.08Z"/><path class="cls-27" d="M100.09,4.35a7.35,7.35,0,0,1,5.24,2.39,12.75,12.75,0,0,1,3.17-.42,11.56,11.56,0,0,1,8.6,3.91c9.44,3.55,5.69,9.24,5.47,9.55l.11,0s5.54,3.87,3.64,5.77c0,0,3.42,4.24.69,6.52a3.15,3.15,0,0,1-1,.5c7.76,12.1,12.39,33.45,9.34,51.06-.61,3.49-4.59,6-15.33,6h0a57.24,57.24,0,0,1-10.38-.92c.1.82.21,1.71.34,2.6h0c.54,3.84,1.33,8.2,2.18,8.84,5.48,4.11,13.64,5.81,18.23,6.48l6.65.62a18,18,0,0,1,1.48,1.67h.07c2,0,3.58,2.19,3.58,2.19L168.35,157l-22.62,40.57s7.6,12.76,3.8,18.53l5.24,5.24s.83,2.81-3,2.81a11.4,11.4,0,0,1-4.4-1.43,285.78,285.78,0,0,1,1,29.72,28.52,28.52,0,0,0-3.06-.46v1.94h0c-.07,13.48,0,33,.77,37.39,1.25,6.95,0,10.37,0,10.37s3.42,54.05,3.42,54.47,4.78,6.57,4.78,6.57,6.32,5,11.25,8.93h0a14.28,14.28,0,0,1,4.12,1.74A4.05,4.05,0,0,1,171,376c.33.22.87.59,1.49,1a16.07,16.07,0,0,0,4.28.8c.67.67,0,1.41-.88,2,.49.53.78,1,.7,1.28-.32,1.19-4.9,6-13.18,6-.47,0-1,0-1.44-.05-8.69-.56-20.74-9.83-21.73-12.41a7.65,7.65,0,0,1,.13-5.2c0-2.2,1.33-4.83,2.06-6.15,1.14-2.05,1.94-7.86,1.94-7.86-12.53-44-5.36-50.15-6.72-53.34-.92-2.14-9.56-34.32-15.1-55.1a14.21,14.21,0,0,1-2.85-1.69,90.11,90.11,0,0,1-15,6l-1.59,4L88.09,292.68s-2.82,10.42-6.18,13.78a148.24,148.24,0,0,1-8.32,24c-5.69,12.75-8.2,30.29-8.2,30.29s4.08,10.36,4.56,16.84c4.8,6.57,9.11,14.67,3.39,17.07a32.84,32.84,0,0,1-12.43,2.18c-6.89,0-13.07-1.61-14.51-3.05C44.09,391.5,50.66,374,50.66,374c.2-1.59.65-3.13,1.58-3.78,2.28-1.59,5-5.47,5-5.47s-.86-2.27,1.54-5.35,5.92-22.8,5.92-25.38-3.19-21.86,7.44-29.46c0,0,1.21-24.66,4.33-42.49h0c.34-2,.71-4,1.11-5.76-3.27.27-5.22.31-5.22.31S89.43,209,95,192.76a3,3,0,0,1,1.47-4.4c.07-.26.14-.46.18-.61,1.36-5-11.51-29.59-11.51-29.59l-10.86-6.81-7.54,34.84-5.12-1.93-6.78-10.5L42.47,136.84l-.36-.12A11.68,11.68,0,0,1,37,132.44a40.71,40.71,0,0,1-4.81.28h-.55a.66.66,0,0,1-.76-.7,52,52,0,0,0-2.76-9.71,1.49,1.49,0,0,1-.16-.85c.11-.52.72-.76,1.26-.81a3.22,3.22,0,0,0,1.55-.31c.58-.4.76-1.31,1.44-1.53a1,1,0,0,1,.34,0c.31,0,.64.1,1,.1a1.07,1.07,0,0,0,.39-.07c.55-.23.68-.93,1-1.39a3.74,3.74,0,0,1,2.31-.92,16.5,16.5,0,0,0,4.08-1.63.47.47,0,0,0,.23-.21.37.37,0,0,0,0-.23c-.62-2.91-1.94-5.83-2.56-8.74a64.19,64.19,0,0,1-1.06-8.35,4.43,4.43,0,0,1,2.31-2.81,1.22,1.22,0,0,1,.58-.17.67.67,0,0,1,.28.06c.32.15.43.55.51.9.7,3.25,2.62,11.49,3.32,14.74.44,2.08,4.2,7.26,5,7.87s.92,1.38,1.83,2.07a1.54,1.54,0,0,1,.79,1.56c.05,1.83.1,3.67.14,5.5.06,2.14,0,4.54-1.5,6.06h0L61,156.56l-.19-.66c.1.17.18.34.27.52l.29-24.59S69,125,70,124c.64-.64,5.35-3.4,8.6-5.27h0c3.39-3.39,10.69-6.08,10.69-6.08s7-7.86,8.43-9.34.79-5.58.79-5.58l-3.8-14.61c-6.72-4.22-9.37-8.93-9.37-8.93a3.38,3.38,0,0,1-2.48,1,8.71,8.71,0,0,1-4.43-1.68s-9.64-9.64-6.6-14.2a2.86,2.86,0,0,1,2.5-1.38c2,0,4.35,1.64,6,3.05-3.42-3-5.25-3.4-6-3.4l-.23,0,0,0,0,0-.07,0,0-.07c-.72-.36-4-2.13-4.23-5.13-5.45-1.71-4.39-4.75-4.39-4.75-5.24-3.56,0-9.3,0-9.3-2.34-2.33-.54-5.73-.54-5.73-2.73-3.87.69-8.65.69-8.65.38-4.18,6.64-6.65,6.64-6.65.49-2.09,3.08-3.07,3.08-3.07a4.54,4.54,0,0,1,4.2-2.6,2.55,2.55,0,0,1,.35,0C82,6.77,90.53,6.3,93.71,6.3c.76,0,1.22,0,1.22,0a8.48,8.48,0,0,1,5.16-2m42.83,179.42L157,158.42l-13.37-19.88c.36,5.71.58,11.58.52,17.09a223.53,223.53,0,0,1-2,27,1.88,1.88,0,0,1,.77,1.18m27.69,192h0M100.09.07h0a12.09,12.09,0,0,0-6.45,2c-4.66,0-12.4.81-16.36,5.6A8.6,8.6,0,0,0,72.18,11a9.56,9.56,0,0,0-3.32,3.15c-2.38,1.25-6.46,4-7.46,8.27C59.92,24.9,58.59,29,60.13,33a9.52,9.52,0,0,0,.13,5.17,11,11,0,0,0-1.49,6.57,8.65,8.65,0,0,0,2.32,4.95,7.49,7.49,0,0,0,.64,1.84,9.32,9.32,0,0,0,4.46,4.11A9.74,9.74,0,0,0,67.68,58c-1.54,3.33-.6,7.53,2.79,12.52a47.11,47.11,0,0,0,5,6l.22.21.23.18a12.83,12.83,0,0,0,7,2.54,8.26,8.26,0,0,0,1-.06A36.58,36.58,0,0,0,91,85.76l3.33,12.8a7.91,7.91,0,0,1,0,2c-1.65,1.73-5.85,6.45-7.57,8.4-2.27.91-7.48,3.22-10.76,6.24-7.91,4.57-8.56,5.22-9,5.69-.66.66-5.55,5.08-8.48,7.7l-1.4,1.26,0,1.88-.05,4.27L56,133.53a15,15,0,0,0,1-6.6l-.14-5.5a6.14,6.14,0,0,0-.65-2.81,6.2,6.2,0,0,0-1.71-2l-.06-.08a7.7,7.7,0,0,0-1.7-1.93,28.38,28.38,0,0,1-3.61-5.56c-.36-1.66-1-4.57-1.66-7.38S46.13,96,45.78,94.4a5.19,5.19,0,0,0-2.89-3.88,4.79,4.79,0,0,0-2.08-.46,5.56,5.56,0,0,0-2.65.7c-2,1.09-4.19,3.26-4.5,6.09-.24,2.23,1.12,9.64,1.13,9.71a45.39,45.39,0,0,0,1.41,4.83l.29.87-.11,0-.27.06a7.09,7.09,0,0,0-4.37,2.2,5.11,5.11,0,0,0-.86.2,5.35,5.35,0,0,0-2.48,1.7,5.39,5.39,0,0,0-4.64,4.13,5.66,5.66,0,0,0,.36,3.31,47.46,47.46,0,0,1,2.54,8.91,4.87,4.87,0,0,0,4.92,4.2h.6q1.45,0,2.91-.09A16.1,16.1,0,0,0,39,140l11.74,35.15.17.51.29.46L58,186.58l.77,1.18,1.32.5,5.12,1.93L69.82,192l1.05-4.85,6.25-28.89,4.71,2.95c1,1.91,3.17,6.27,5.32,11,3.92,8.63,4.93,12.41,5.19,13.91a6.89,6.89,0,0,0-1.91,6.72c-5.9,17.17-21.93,61.9-22.09,62.36L66.25,261l6.09-.11-.06.36-.14.62v.09c-2.58,15.12-3.82,34.36-4.17,40.46-9.48,8.57-8.11,24.79-7.65,30.31,0,.5.1,1.11.1,1.29-.08,2.84-3.45,20.12-5.07,22.8a11.14,11.14,0,0,0-2.54,6.69,18.54,18.54,0,0,1-3,3.19C48,367.9,47,370,46.49,372.91c-.47,1.27-1.81,5-3,9-2.5,8.66-2.55,12.57-.16,14.95,3,3,11.16,4.31,17.53,4.31A36.94,36.94,0,0,0,75,398.63a8.37,8.37,0,0,0,5-5.52c1.19-4.25-.69-9.69-5.92-17.06-.7-5.68-3.27-13-4.3-15.73.64-3.91,3.11-17.79,7.71-28.09a154.34,154.34,0,0,0,8.31-23.74c3.36-4.24,5.74-12.25,6.35-14.45L107,256.83l.83-2.09A96.23,96.23,0,0,0,119,250.39c11.75,44.06,13.93,51.3,14.5,52.93,0,.31-.12.84-.19,1.29-.87,5.19-2.89,17.28,6.66,51.1a27.87,27.87,0,0,1-1.31,5.5,18.55,18.55,0,0,0-2.58,7.47,11.74,11.74,0,0,0,.13,7.49c1.34,3.49,7.74,7.8,9.67,9,3.29,2.12,9.73,5.73,15.79,6.13.57,0,1.14.05,1.71.05,9.86,0,16.41-5.87,17.31-9.16a4.73,4.73,0,0,0,.15-1.71,5.26,5.26,0,0,0,.43-1.61,5.11,5.11,0,0,0-1.51-4.12l-1.17-1.18-1.67-.07a12.81,12.81,0,0,1-2.25-.31,7.64,7.64,0,0,0-2.2-3.12,14.74,14.74,0,0,0-4.86-2.33c-4-3.23-8.78-7-10.19-8.09-1.38-1.78-2.9-3.79-3.64-4.84-.18-3.14-.86-14-3.3-52.71.42-1.77,1-5.6-.11-11.58-.25-1.4-.81-7.43-.71-33.25l3,.94.13-5.7c0-.55.26-11.77-.57-24.12a7,7,0,0,0,5.74-2.68,6.48,6.48,0,0,0,1-5.62l-.31-1-.77-.77L154.53,215c1.36-6-1.88-13.55-3.9-17.46l21.46-38.5,1.17-2.11-1.2-2.09L145.86,109l-.11-.2-.13-.18a10.25,10.25,0,0,0-4.84-3.62c-.23-.26-.48-.51-.73-.77L139,103.15l-1.54-.14-6.54-.61c-3.86-.57-10.73-2-15.45-5.15a31.74,31.74,0,0,1-.77-3.54c1.76.14,3.55.22,5.36.22,4.43,0,17.9,0,19.55-9.54,2.84-16.34-.56-37.12-8.12-51,1.49-2.61,1-5.8-.46-8.49a6.62,6.62,0,0,0,0-.77c-.2-2.25-1.73-4.26-3.34-5.79a9.21,9.21,0,0,0-.29-4.29c-1-3.17-3.61-5.66-7.77-7.42A15.73,15.73,0,0,0,108.5,2a16.2,16.2,0,0,0-2,.12A11.25,11.25,0,0,0,100.09.07Zm48,165.6c.18-3.1.31-6.47.35-10,0-.76,0-1.53,0-2.32l3.54,5.27-3.9,7Z"/><polyline class="cls-7" points="42.11 136.72 42.7 137.06 51.75 133.38"/></g></svg>