<svg xmlns="http://www.w3.org/2000/svg" viewBox="0 0 456.52 270.68"><defs><style>.cls-1{fill:#fff;}.cls-1,.cls-2{stroke:#ff4db3;stroke-miterlimit:10;}.cls-2{fill:none;}.cls-3{fill:#39a936;}.cls-4{fill:#e9ca98;}.cls-5{fill:#93c022;}.cls-6{fill:#161511;}.cls-7{fill:#8f3c57;}.cls-8{fill:#c3818e;}.cls-9{fill:#35322f;}.cls-10{fill:#224579;}.cls-11{fill:#1d3559;}.cls-12{fill:#4abed4;}.cls-13{fill:#1ca0b0;}.cls-14{fill:#fbbb00;}.cls-15{fill:#f49600;}.cls-16{fill:#e94b55;}.cls-17{fill:#e63131;}</style></defs><title>12-prob1</title><g id="Camada_2" data-name="Camada 2"><g id="OBJECTS"><circle class="cls-1" cx="212.36" cy="133.33" r="132.83"/><line class="cls-2" x1="212.36" y1="266.17" x2="212.36" y2="0.5"/><line class="cls-2" x1="345.2" y1="133.33" x2="79.53" y2="133.33"/><line class="cls-2" x1="306.29" y1="227.26" x2="118.44" y2="39.41"/><line class="cls-2" x1="306.29" y1="39.41" x2="118.44" y2="227.26"/><polygon class="cls-3" points="358.78 168.4 371.89 178.78 456.52 71.91 443.41 61.53 358.78 168.4 358.78 168.4"/><polygon class="cls-4" points="358.78 168.4 356.83 184.32 371.89 178.78 358.78 168.4 358.78 168.4"/><polygon class="cls-5" points="361.56 170.59 369.12 176.58 453.75 69.72 446.18 63.73 361.56 170.59 361.56 170.59"/><polygon class="cls-6" points="357.59 178.12 356.83 184.32 362.7 182.16 357.59 178.12 357.59 178.12"/><polygon class="cls-7" points="373.45 268.96 385.33 254.82 186.82 163.81 182.05 163.68 162.76 184.62 370.03 270.68 373.45 268.96 373.45 268.96 373.45 268.96"/><polygon class="cls-8" points="168.15 183.62 373.45 268.96 390.01 249.25 186.82 163.81 168.15 183.62 168.15 183.62"/><polygon class="cls-9" points="187.19 191.54 185.06 190.66 188.64 186.86 190.77 187.74 187.19 191.54 187.19 191.54"/><polygon class="cls-9" points="207.41 199.94 205.28 199.06 208.85 195.26 210.98 196.15 207.41 199.94 207.41 199.94"/><polygon class="cls-9" points="227.62 208.34 225.49 207.46 229.07 203.66 231.19 204.55 227.62 208.34 227.62 208.34"/><polygon class="cls-9" points="247.83 216.75 245.7 215.86 249.28 212.06 251.41 212.95 247.83 216.75 247.83 216.75"/><polygon class="cls-9" points="268.04 225.15 265.91 224.26 269.49 220.47 271.62 221.35 268.04 225.15 268.04 225.15"/><polygon class="cls-9" points="288.25 233.55 286.13 232.66 289.7 228.87 291.83 229.75 288.25 233.55 288.25 233.55"/><polygon class="cls-9" points="308.46 241.95 306.34 241.07 309.91 237.27 312.04 238.15 308.46 241.95 308.46 241.95"/><polygon class="cls-9" points="328.68 250.35 326.55 249.47 330.13 245.67 332.25 246.56 328.68 250.35 328.68 250.35"/><polygon class="cls-9" points="348.89 258.75 346.76 257.87 350.34 254.07 352.47 254.96 348.89 258.75 348.89 258.75"/><polygon class="cls-10" points="2.7 209.57 6.4 227.72 7.29 209.82 2.7 209.57 2.7 209.57"/><polygon class="cls-11" points="6.4 227.72 6.4 227.72 12.07 210.09 7.29 209.82 6.4 227.72 6.4 227.72"/><polygon class="cls-10" points="74.04 149.09 8.64 171.81 7.31 167.99 72.71 145.27 74.04 149.09 74.04 149.09"/><polygon class="cls-10" points="47.41 166.78 40.5 169.18 33.94 150.3 40.86 147.9 47.41 166.78 47.41 166.78"/><polygon class="cls-10" points="101.85 175.27 98.83 177.94 110.1 191.6 101.85 175.27 101.85 175.27"/><polygon class="cls-11" points="98.83 177.94 94.83 181.48 110.2 191.8 110.1 191.6 98.83 177.94 98.83 177.94"/><polygon class="cls-12" points="4.24 103.67 0 211.31 7.2 211.59 11.44 103.95 4.24 103.67 4.24 103.67"/><polygon class="cls-13" points="7.2 211.59 15.82 211.93 20.06 104.29 11.44 103.95 7.2 211.59 7.2 211.59"/><polygon class="cls-12" points="35.25 92.89 29.52 97.8 99.97 179.3 105.31 174.73 35.25 92.89 35.25 92.89"/><polygon class="cls-13" points="29.52 97.8 23.22 103.19 93.28 185.03 99.97 179.3 29.52 97.8 29.52 97.8"/><path class="cls-14" d="M5.48,73.27l9.41,27.12a5.28,5.28,0,0,0,6.72,3.25L8.73,66.56a5.26,5.26,0,0,0-3.25,6.71Z"/><path class="cls-15" d="M8.73,66.56l12.88,37.08a5.27,5.27,0,0,0,3.25-6.71L15.44,69.81a5.27,5.27,0,0,0-6.71-3.25Z"/><path class="cls-16" d="M8.54,91.31C.23,94.2-1.94,100.81,3.72,106l17.15,15.72c2.83,2.6,5.66,3.41,7.93,2.62L16.38,88.59,8.54,91.31Z"/><path class="cls-17" d="M24.22,85.87l-7.84,2.72L28.8,124.34c2.27-.79,4-3.18,4.59-7l3.72-23c1.22-7.58-4.58-11.42-12.89-8.53Z"/></g></g></svg>