<svg xmlns="http://www.w3.org/2000/svg" viewBox="0 0 185.59 173.48"><defs><style>.cls-1{fill:#1fb687;}.cls-2{fill:#20a27b;}.cls-3{fill:#ccc2b8;}.cls-4{fill:#e6dacc;}.cls-5{fill:#098a67;}.cls-6{fill:#20a27a;}.cls-7{fill:#beae9d;}.cls-8{fill:#1274bd;}.cls-9{fill:#f4f8f6;}.cls-10{fill:#f5f8f6;}.cls-11{fill:#f7fbfb;}.cls-12{fill:#f7fafa;}.cls-13{fill:#1ea279;}.cls-14{fill:#e9e5de;}.cls-15{fill:#28ba8a;}.cls-16{fill:#e9e3dc;}.cls-17{fill:#187bb9;}.cls-18{fill:#eae4dd;}.cls-19{fill:#add4c8;}.cls-20{fill:#1476b9;}.cls-21{fill:#1175ba;}.cls-22{fill:#1275ba;}.cls-23{fill:#1374bb;}.cls-24{fill:#1474bd;}.cls-25{fill:#1175b8;}.cls-26{fill:#1eb87e;}.cls-27{fill:#1377b6;}.cls-28{fill:#1275be;}.cls-29{fill:#289e7b;}.cls-30{fill:#ad978c;}.cls-31{fill:#ad978e;}.cls-32{fill:#ae968c;}.cls-33{fill:#af978b;}.cls-34{fill:#1278b8;}.cls-35{fill:#1473bf;}.cls-36{fill:#b09c87;}.cls-37{fill:#1375bd;}.cls-38{fill:#d5e3dd;}.cls-39{fill:#cae0d5;}.cls-40{fill:#a9e7d2;}.cls-41{fill:#d4eae5;}.cls-42{fill:#e7e8e0;}.cls-43{fill:#d2e5de;}.cls-44{fill:#1db881;}.cls-45{fill:#1ab883;}.cls-46{fill:#d2cabf;}.cls-47{fill:#1fb58e;}.cls-48{fill:#1cb988;}.cls-49{fill:#ded5cf;}.cls-50{fill:#e5eee9;}.cls-51{fill:#1ca67e;}.cls-52{fill:#73cebb;}.cls-53{fill:#e5e3df;}.cls-54{fill:#f0f9f2;}.cls-55{fill:#cbded5;}.cls-56{fill:#1abb83;}.cls-57{fill:#e5d8d9;}.cls-58{fill:#caddd4;}.cls-59{fill:#b9e7d5;}.cls-60{fill:#23b48d;}.cls-61{fill:#cff1e3;}.cls-62{fill:#a9e3ce;}.cls-63{fill:#caf4e0;}.cls-64{fill:#d1c9c4;}.cls-65{fill:#b0e5d2;}.cls-66{fill:#c1f0de;}.cls-67{fill:#19bb80;}.cls-68{fill:#f2f9f5;}.cls-69{fill:#b2978b;}.cls-70{fill:#ac978c;}.cls-71{fill:#bdad9c;}.cls-72{fill:#f17c4c;}.cls-73{fill:#c0b3a4;}.cls-74{fill:#ea6c3e;}.cls-75{fill:#beaf9d;}.cls-76{fill:#af968c;}.cls-77{fill:#ef663f;}.cls-78{fill:#beb0a0;}.cls-79{fill:#af978c;}.cls-80{fill:#8cc346;}.cls-81{fill:#cdc0be;}.cls-82{fill:#d2bfbd;}.cls-83{fill:#47b64c;}.cls-84{fill:#1676be;}.cls-85{fill:#fef5f5;}.cls-86{fill:#20a374;}.cls-87{fill:#1378b4;}.cls-88{fill:#0f76bc;}.cls-89{fill:#0f76b5;}.cls-90{fill:#1374bf;}.cls-91{fill:#0c77bb;}.cls-92{fill:#1372c1;}.cls-93{fill:#88c244;}.cls-94{fill:#f3784a;}.cls-95{fill:#ab968c;}.cls-96{fill:#b29488;}.cls-97{fill:#b3968d;}.cls-98{fill:#91c345;}.cls-99{fill:#caaaa8;}.cls-100{fill:#81c442;}.cls-101{fill:#30b155;}.cls-102{fill:#e26b47;}.cls-103{fill:#a8988f;}.cls-104{fill:#b58c75;}.cls-105{fill:#d4c5c0;}.cls-106{fill:#d9cecb;}.cls-107{fill:#8dc04d;}.cls-108{fill:#8bc245;}.cls-109{fill:#8cc247;}.cls-110{fill:#33af53;}.cls-111{fill:#aa9985;}.cls-112{fill:#2dad44;}.cls-113{fill:#8fc43a;}.cls-114{fill:#2cb34f;}.cls-115{fill:#f27b4c;}.cls-116{fill:#89c93b;}.cls-117{fill:#f76136;}.cls-118{fill:#e76945;}.cls-119{fill:#ea6a3d;}.cls-120{fill:#e6d5c2;}.cls-121{fill:#ae9882;}.cls-122{fill:#39af52;}.cls-123{fill:#1cb44c;}.cls-124{fill:#f09353;}.cls-125{fill:#94bd3f;}.cls-126{fill:#b1978c;}.cls-127{fill:#ee7c42;}.cls-128{fill:#dfd7cf;}.cls-129{fill:#f17b4b;}.cls-130{fill:#ae9689;}.cls-131{fill:#ec8250;}.cls-132{fill:#ac988e;}.cls-133{fill:#cba797;}.cls-134{fill:#f3764b;}.cls-135{fill:#f27d3a;}.cls-136{fill:#e66b46;}.cls-137{fill:#eb6a43;}.cls-138{fill:#b58d81;}.cls-139{fill:#37b14a;}.cls-140{fill:#eb673a;}.cls-141{fill:#f99f53;}.cls-142{fill:#f4a554;}.cls-143{fill:#e6d6c3;}.cls-144{fill:#bd9d8f;}.cls-145{fill:#f17b48;}.cls-146{fill:#f07947;}.cls-147{fill:#ec7146;}.cls-148{fill:#aa9983;}.cls-149{fill:#b5918f;}.cls-150{fill:#ee643d;}.cls-151{fill:#ec6841;}.cls-152{fill:#b98a78;}.cls-153{fill:#a99989;}.cls-154{fill:#b7918d;}.cls-155{fill:#f05b35;}.cls-156{fill:#f77446;}.cls-157{fill:#38b14d;}.cls-158{fill:#8fc249;}.cls-159{fill:#2bb157;}.cls-160{fill:#2db04f;}.cls-161{fill:#42aa52;}.cls-162{fill:#45b04c;}.cls-163{fill:#af9589;}.cls-164{fill:#93c733;}.cls-165{fill:#ab958d;}.cls-166{fill:#38b24d;}.cls-167{fill:#24b249;}.cls-168{fill:#9ab069;}.cls-169{fill:#efa05f;}.cls-170{fill:#f07d4a;}.cls-171{fill:#e86137;}.cls-172{fill:#7ec143;}.cls-173{fill:#8ebf4a;}.cls-174{fill:#f8a053;}.cls-175{fill:#88c543;}.cls-176{fill:#95bf4a;}.cls-177{fill:#30af40;}.cls-178{fill:#8cc83b;}.cls-179{fill:#b39568;}.cls-180{fill:#8dc245;}.cls-181{fill:#aa9889;}.cls-182{fill:#f7a154;}.cls-183{fill:#f47e43;}.cls-184{fill:#3fb14f;}</style></defs><title>12-prob3</title><g id="Camada_2" data-name="Camada 2"><g id="OBJECTS"><path class="cls-1" d="M141.9,153.68a10.86,10.86,0,0,1,4.37-2.22,9.72,9.72,0,0,0,6.87-4.57c11.73-8.87,20.91-19.78,26.77-33.34.53-1.23,1.44-2.39,1-3.88-.78-.4-1.41,0-2,.39a21.24,21.24,0,0,1-9.67,3.09c-6.08,1-12,2.71-18.05,3.94-1.72.65-3.56.41-5.33.61a7.17,7.17,0,0,0-1.21.23c-3.69.46-7.34,1.22-11.09,1.1a24.34,24.34,0,0,0-4.67.31c-7.93.59-15.86,1.16-23.81,1.17-8.23,0-16.48.42-24.67-.17-5.58-.39-11.18-.2-16.73-.94a8.68,8.68,0,0,0-2-.32c-8.66-.19-17.19-1.65-25.79-2.57a7.56,7.56,0,0,0-3.66,0c-1.92,2.14.07,3.78,1,5.25,8.14,13.18,18.42,24.17,32.65,31,16.66,8,34.16,9.49,52.25,7a189.59,189.59,0,0,0,18.62-3.81l2.31-.63C140,154.89,141.33,155,141.9,153.68Z"/><path class="cls-2" d="M136.65,155.94a4.3,4.3,0,0,0-5,.1c-2.85,1.8-6.45,1.62-9.72,2.14-8,1.26-16,2.16-24.16,1.6-15.11-1-29.17-5.06-41.69-14.06-10.56-7.59-18.17-17.48-24.41-28.64-2.2-2.89-5.7-1.86-8.54-2.82A10,10,0,0,0,22,114a42.83,42.83,0,0,1-5.26-1.26c-1-.31-2.06-.64-3.08-1-2.81-.7-5.26-3-8.46-2-.29.75-.49,1.48.34,2,1.64,3.5,2.55,7.36,5.11,10.41,1,1.49,1.37,3.42,2.85,4.64l1.15,1.4c.61,2.29,1.44,4.38,4.21,4.77a1.24,1.24,0,0,0,.26-1.41c-.31-.32-.57-.67-.26-1.12.06-.08.06,0-.1.26s0,.43.14.65c.32,1.05,2.56,1.37,1.18,3.06l6.35,7.32v0l2.92,2.4c.25,1.1,1.49.78,2,1.43l3.2,2.38a3.74,3.74,0,0,0,3.18,1.91c.45,1.39,1.82,1.25,2.83,1.71l11.93,6c3.53,2.81,7.89,3.66,12.07,4.79,22.9,6.23,45.48,4.79,67.74-3.15,1.63-.79,3.42-1.33,4.44-3Z"/><path class="cls-1" d="M183.23,103.5c.52-1.93,1-3.85,1.55-5.78.54-1.27.53-2.41-.82-3.19l-1.39.85c-4.79,1.89-9.5,4-14.74,4.4a4.59,4.59,0,0,0-1,.33,7.56,7.56,0,0,1-3.2,1.41c-1.12.37-2.31.41-3.45.69a7.07,7.07,0,0,1-3,.37,6.69,6.69,0,0,0-3.14.29,31.3,31.3,0,0,1-6.86,1.26,12.06,12.06,0,0,0-2.16.29,11,11,0,0,1-4.18.43,14.14,14.14,0,0,0-2.6-.1,5.81,5.81,0,0,1-4.36.53A32.4,32.4,0,0,0,129,106c-1.69.55-3.43.32-5.15.36s-3.56.06-5.34-.08a5,5,0,0,0-3.55.32c-2.75,1-5.61.3-8.41.49H92.2c-1.44,0-2.89.06-4.33,0a11.46,11.46,0,0,0-2.92-.25,17.68,17.68,0,0,1-4.42.34c-1.9-.08-3.85.36-5.67-.56-2.12-.66-4.3-.45-6.47-.42a5.29,5.29,0,0,0-1,.08,6.68,6.68,0,0,1-3.76,0c-.32-.1-.64-.18-1-.26a9.62,9.62,0,0,0-1.5-.19c-1,0-2,0-3,0a5,5,0,0,1-3.17-.8,17.05,17.05,0,0,0-5.28-.36,6.44,6.44,0,0,1-3.63-.34,5.4,5.4,0,0,0-2.35-.33,5.94,5.94,0,0,1-3.69-.45,7,7,0,0,0-2-.36,24.35,24.35,0,0,1-7.4-.9c-1.85-.21-3.64-1.35-5.57-.39-1,1.05-.32,2.16-.11,3.25a23.26,23.26,0,0,0,2.57,5.68,3.63,3.63,0,0,0,1.43,1c2.37.41,4.73,1,7.14,1.18,2.62.47,5.3.61,7.9,1.25,5.79.87,11.64,1,17.45,1.74,3,.12,6-.37,9,.39a12.4,12.4,0,0,0,2.65.33c.69,0,1.38,0,2.07,0,12.42,0,24.84,0,37.25,0a70.2,70.2,0,0,0,9.73-.25c3.64-1.1,7.44,0,11.11-.78a14.27,14.27,0,0,1,5-.56,14.31,14.31,0,0,0,3.13-.29q9.6-1.14,19.12-2.79c2.49-.62,5-1.06,7.51-1.69,1.62-.49,3.28-.84,4.88-1.38,2.74-1,5.45-2,8.12-3.19A5.14,5.14,0,0,0,183.23,103.5Z"/><path class="cls-3" d="M73.58,74.29c-17.65.51-35.2,2-52.41,6.1C16.24,81.58,11.18,82.77,7,86c-2,1.53-4.58,3.15-2.34,6.37,1.7,3.67,4.91,4.76,8.6,5A181.78,181.78,0,0,1,46.13,91c1-.13,1.89-.54,2.86-.72,1.73-.48,3.47.1,5.2,0,6.44-1.22,13.09.08,19.47-1.65,1.57-1.44,4.28.23,5.55-2-.12-2.14-2.42-1.92-3.38-3.14a5,5,0,0,1-1.25-6,3,3,0,0,0,0-3.15A.83.83,0,0,0,73.58,74.29Z"/><path class="cls-4" d="M101.39,1.63C96.53,6,95,11,97.68,17.28c3,7-.14,11.54-7.38,12.85-4.06.74-8,1.7-10.57,5.47-2.78,4.07-2,7.73,2.56,9.67,2.62,1.14,5.44,1.8,8,3,4.22,1.88,4.92,4.2,2.73,8.25a6.74,6.74,0,0,0,0,6.41c1.13,2.36,1,4.25-1.27,5.84a5.85,5.85,0,0,0-2.5,4.79l.35.43c1.9.93,4,.94,6,1.35,2.45-.08,5,.85,7.25-1-2.39-1.51-5.15,0-7.69-.94-.09-1.92,1.32-2.72,2.64-3.67,3.29-2.37,3.9-4.42,1.48-7.49s-1.43-5,.88-7.35c4.84-4.87,3.86-8.08-2.85-9.75a7.78,7.78,0,0,1-1.08-.28c-1.86-.76-5.11-.29-5.1-2.8s3.13-3,5.27-3.88c1.58-.65,3.2-.36,4.79-.54,3.18-.37,3.9-1.82,2-4.4-1.23-1.65-1.39-2.67.5-3.9,5.14-3.35,5.6-7.52,1.51-12.16-.33-.37-.69-.71-1-1.07-5.69-5.76-5.69-5.76-2.09-12.91C102.65,2.27,102.78,1.56,101.39,1.63Z"/><path class="cls-5" d="M132.86,158.31c-5.88,1.52-11.72,3.26-17.66,4.52a104.88,104.88,0,0,1-59.44-4.5,6.87,6.87,0,0,0-3.23-.75c-.75,3.87,1.69,6,4.43,7.9,6,4.08,12.93,6,20,6.8,16.08,1.93,32.09,2.16,47.52-4.13,2.68-1.09,4.61-3.12,7-4.61,1.23-.33,1-1.55,1.49-2.36a.59.59,0,0,1,.14-.62A1.59,1.59,0,0,0,132.86,158.31Z"/><path class="cls-3" d="M172.85,84.05c-5.11-2.8-10.83-3.63-16.41-4.66-13-2.39-26-4.38-39.27-4.24-1.46,1.68-3.51,2.67-5,4.27-2.47,2.63-2.26,5.15.46,6.73,16.16-.21,32.31-.42,48.47,0C165.06,86.29,169.29,86.74,172.85,84.05Z"/><path class="cls-3" d="M103,74.3l-8.34.08c-2.71,2.58-.25,4.78.74,7.88a17.49,17.49,0,0,1-4.8-5.92c-.43-1-.49-2.31-2-2.35-3.06,0-6.12,0-9.18,0-3.34,2.52-4,4.39-2.91,8.27.5,1.54,3,1.89,2.45,4.07a2.09,2.09,0,0,1-2.72.48c-1.09-.45-1.67-.19-1.79,1,1.06,1.18,2.49,1,3.85,1.06,2,0,4.09,0,6.14,0,5.32,0,10.63.22,16,0,1.79-.06,3.58,0,5.37,0,1.8-.24,4,.58,5.1-1.68A3.74,3.74,0,0,0,110,84.8c-1.42-2.84-.89-5.17,1.53-7.25,1-.82,2.24-1.66,1.88-3.32a1.24,1.24,0,0,0-1.55.11Z"/><path class="cls-3" d="M180.23,94.59c2.91-4.53,2.17-6.28-3.78-8.92-3.9.18-7.8-.21-11.69-.12-5,.12-10,.13-15,.15A2.19,2.19,0,0,0,148,86.82c-.28,2.39-2.38.35-2.89,1.39.35.05.83-.18,1-.93-2.21-2.56-5.09-2.38-8.18.51-1.83.25-3.42-.57-5.07-1.14-3.66-1.86-7.2-.7-10.71.48-.73.24-1.79.6-1,1.81,6.31,2.18,12.88,2.07,19.42,2.2l1.85,0a10.9,10.9,0,0,1,7.14,1.81A129.69,129.69,0,0,1,173,98.67C176,98.29,178.72,97.52,180.23,94.59Z"/><path class="cls-4" d="M78.89,74.38l10.52,0,.26-.27-.14-.34-.19-.21c-2.12,0-4.24.09-6.36.09-5.55,0-7.8-3-6-8.16,1.11-3.21-.63-5.33-4.12-4.92-1.7.2-4,1.14-4.71-.76-.88-2.2,1.6-3.12,3.1-4,2.18-1.28,6.1-1.58,1.93-5.17-.45-.39-.09-1.15.2-1.74,2.37-4.74,1.72-6.74-3.09-9.17-2.17-1.09-4.37-2.05-4.1-5.06.23-.91,1.11-2-.74-2.24a9,9,0,0,0,.8,9.16c4,6,3.66,7.45-2.48,11.14a18.06,18.06,0,0,0-3.34,2.38A5.39,5.39,0,0,0,59,61.27c.86,2,2.67,2.81,4.93,2.62a24.65,24.65,0,0,1,4.12,0c2.43.2,4.14,1.59,4,4s.82,4.3,1.53,6.37l.86.11A3.33,3.33,0,0,0,78.89,74.38Z"/><path class="cls-4" d="M111.9,74.34l1.55,0c.86,1,1.78,1.66,3,.61-.94-2.71-.77-4.75,2.15-6.5s2.33-4.14-.63-6.14c-1.51-1-4.84-.9-4-3.4s3.76-1.88,6-1.8,3.89-.09,2.63-3a1.57,1.57,0,0,1,1.22-2.28c4-1.13,3.5-3.91,2.44-6.84a5.67,5.67,0,0,0-1-2c-2.51-2.68-3-5.42-.49-8.37.22-.75-.11-.94-.78-.78-3.06,2.47-4.27,5.29-3.21,9.44,1.21,4.78-1.28,7.46-6.37,7.75-2,.11-4,0-5.86.78a5.75,5.75,0,0,0-3.88,4.62c-.24,2.16,1.29,3.63,3.21,4.58a19.85,19.85,0,0,1,3.63,1.9c2.15,1.69,4.07,3.61,1.34,6.39C111.39,70.82,112.13,72.66,111.9,74.34Z"/><path class="cls-6" d="M27.88,110.32a17.76,17.76,0,0,0-2.26-5.23c-.66-1-1.66-1.91-1.17-3.33a1.36,1.36,0,0,0-.52-.82c-1.41-.59-3-.68-4.3-1.6a5.41,5.41,0,0,0-1-.31,35.12,35.12,0,0,1-13.06-4.3,10.3,10.3,0,0,0-3.4-1.52A.56.56,0,0,1,1.65,93c-.71-.09-1.06.18-.93.93L1,96.82a5.44,5.44,0,0,0,1.53,5.56,17.15,17.15,0,0,0,4.83,3.18c.77.39,1.55.76,2.34,1.12,1,.4,1.95.79,3,.19.39-.31-.15,0,.24-.26s.58-.38.87-.58c-.22.32-.68.28-.9.61-.2.6.16.92.58,1.21,1.59.66,3.3.92,4.93,1.43a8.07,8.07,0,0,0,1,.29c2,.49,4,.84,6,1.28a4.22,4.22,0,0,0,1.06.13A1.84,1.84,0,0,0,27.88,110.32Z"/><path class="cls-3" d="M148,87.85a2.24,2.24,0,0,1,2.35-1.47c6.7.73,13.4-.85,20.09,0,2.09.26,4.33,2.1,6-.69l-3.6-1.62c-18.71,1.72-37.46.36-56.19.8-1.62,0-3.26-.17-4.73.75a1.3,1.3,0,0,0-.3,1.13,3.61,3.61,0,0,0,1.18,2.15c2.75,1,5.48,1.45,8.13-.31,4-1.08,7.82-3.51,12-.72a1.5,1.5,0,0,0,2-.09c1.23-.78,2-.24,2.55.84,2.34.09,3.3-3.38,6.13-2.31.94.36,2,.23,2.13,1.56A1.85,1.85,0,0,0,148,87.85Z"/><path class="cls-7" d="M111.93,86.35V85.6c-1.78-3.32,0-5.35,2.66-6.89,1.45-.84,2.88-1.52,2.58-3.56-.23,0-.45-.09-.67-.15l-3-.61c-1,1-1.84,2-2.86,2.87-3.28,2.87-3.36,5.7-.18,9.1A1.07,1.07,0,0,0,111.93,86.35Z"/><path class="cls-8" d="M180.93,105.05l-8.2,3.08c.35,2.51,2,3.9,4.13,3.32.91-.26,1.73-.85,2.69-1.07l1.35-.71c.57-1.26,1.13-2.52,1.7-3.79C182.26,105.17,181.81,104.67,180.93,105.05Z"/><path class="cls-9" d="M2.13,93.21A26.52,26.52,0,0,0,18.9,99.78c-1.23-2.72-3.85-2.45-6.16-2.86a21.8,21.8,0,0,1-8-4.59Z"/><path class="cls-10" d="M180.23,94.59a26.77,26.77,0,0,1-6.87,3.63c-2.45-.25-4.85-.37-6.08,2.43,5.58-.38,10.91-1.44,15.29-5.27C181.72,95.32,180.8,95.49,180.23,94.59Z"/><path class="cls-11" d="M153.14,146.89l-6.87,4.57c2.34.24,4.78,1.75,6.92-.54.88-1,.81-.9-.18-2.27C152.75,148.29,153.08,147.49,153.14,146.89Z"/><path class="cls-12" d="M132.86,158.31l.18,2.25c2.59-.3,3.71-1.86,3.74-4.36C135.38,156.73,133.79,156.91,132.86,158.31Z"/><path class="cls-11" d="M141.9,153.68,139,155.31c1.84.52,3.72,2.05,5.53,0C144.06,153.82,141.77,155.86,141.9,153.68Z"/><path class="cls-13" d="M18.82,132.92c0,.22,0,.44,0,.65l1.24.87c2.45-2.16.18-2.47-1.23-3.12h0Z"/><path class="cls-14" d="M65.42,32.41c.87.54.68,1.43.74,2.24,1.29-1.37.63-3,.65-4.59C65.55,30.46,65.55,31.47,65.42,32.41Z"/><path class="cls-15" d="M184,94.53l.82,3.19a3.81,3.81,0,0,0,.64-3.45C184.8,92.48,184.41,94.16,184,94.53Z"/><path class="cls-16" d="M101.39,1.63a1.61,1.61,0,0,1,.78,1.53c1-1,1.32-2.27.23-3.07C101.82-.34,101.53.93,101.39,1.63Z"/><path class="cls-12" d="M132.9,161.18l-1.49,2.36c.59.14,1.47.6,1.7.38C134,163,132.72,162.13,132.9,161.18Z"/><path class="cls-17" d="M180.93,105.05l1.67.83a2.45,2.45,0,0,0,.63-2.38Z"/><path class="cls-18" d="M124,33.9l.78.78c.62-.48,1.81-1,1-1.82S124.38,33.25,124,33.9Z"/><path class="cls-19" d="M.72,93.88,1.65,93c-.31-.6-.76-1.7-1.3-1.3S0,93.21.72,93.88Z"/><path class="cls-20" d="M122.37,115.46l-9.73.2c-9.49.69-19,.12-28.49.3-2.1-.55-.9,1.63-1.73,2.14a1,1,0,0,0,.49.86,3.43,3.43,0,0,0,1.63.35c1.59-.06,3.21.26,4.69-.57,5-1.35,10.18-.39,15.24-.55.74.38.58.68-.13.91-9.18-.27-18.37.57-27.5-.82-3.19-.08-6.37.33-9.57.11-1.61-.11-3.22.14-4.2,1.73a2.87,2.87,0,0,0,2.07.68c16.2.9,32.43,1.18,48.62.54,5.12-.2,10.43.35,15.48-1.24-1.94-1.88-4.26-.65-6.41-.77-2.87-.18-5.74.69-8.62.24,2.74.66,5.48-.51,8.22-.26,1-.08,2.12,0,2.4-1.32-1.51-1-3.12-.45-4.72-.43,1.46-.23,3,0,4.42-.24C125.12,115.19,123.3,115.85,122.37,115.46Z"/><path class="cls-21" d="M43.69,113.31c-2.4-1.17-5.09-.78-7.59-1.41-2.86.92-5.72-.68-8.58,0-1.37.48-2.84.44-4.23.8a2.32,2.32,0,0,0-.9.61,1.26,1.26,0,0,0,.23,1.5c2.81,1.5,6.17.87,9,2.27,10,1.06,19.91,3,30,3,.22-.86-.29-1-.93-1.08,1.45-.19,3.52,1.4,4.23-1.33-.54-1.5-1.91-1.65-3.1-1.51-7.32.87-14.35-1.11-21.67-2a9.47,9.47,0,0,0,1.91,0A2.52,2.52,0,0,0,43.69,113.31Z"/><path class="cls-22" d="M122.37,115.46l2.32,1.62c-.28.17-.37.33-.28.5s.19.25.28.25c-.54.88-1.43.72-2.25.75a1,1,0,0,0,0,1.5l6.8,0,4.44-.08c.29-1.4-.62-1.63-1.87-1.77-.3-.07.53-.71.2-.34a6,6,0,0,0,4.28.63,9.29,9.29,0,0,0,1-.22c2.23.18,2.85-2.84,5.17-2.59.33,0,.64-.74.43-1.23-.37-.86-1-.91-1.76-.44l-3,.08a8.41,8.41,0,0,1-4.51.65C129.91,115.15,126.08,114.17,122.37,115.46Z"/><path class="cls-23" d="M145,118.6a2.28,2.28,0,0,0,.69,0c1.67-1,3.63.2,5.31-.73,6.39-.48,12.37-3,18.72-3.74.37-.92-.16-1.47-.83-2a5.33,5.33,0,0,0-3.85-.15,1.92,1.92,0,0,0-.76.65c-3.5.92-7,2-10.68,1.9-3.89-.16-7.45,1.48-11.2,2.14a34.16,34.16,0,0,0-5.71,1.14,1.13,1.13,0,0,0,1.39,1.28C140.39,118.7,142.75,119.36,145,118.6Z"/><path class="cls-23" d="M169,112.58l.76,1.53c3.51-.62,7.12-1,9.82-3.73-2-1-4.5,1.49-6.2-1a8.85,8.85,0,0,1-.62-1.23c-1.52.42-3.19.4-4.51,1.44a1.75,1.75,0,0,0-.54,1.43C167.77,111.81,168.41,112.16,169,112.58Z"/><path class="cls-24" d="M64.65,117.83c-1.53,1.52-3.52.28-5.35,1l2.35,1.29,1.42,0c4.47-1.33,9.06-.48,13.58-.79a1.15,1.15,0,0,0-.24-1.15C72.55,116.18,68.61,116.61,64.65,117.83Z"/><path class="cls-25" d="M145,118.6c-2.76-.43-5.67.85-8.31-.77h-5.3c.47,1.16,2.06,1,2.28,2.19A38.38,38.38,0,0,0,145,118.6Z"/><path class="cls-25" d="M151,117.85c-1.77.26-3.7-.71-5.31.73C147.47,118.36,149.39,119.16,151,117.85Z"/><path class="cls-26" d="M136.55,121.16a3.57,3.57,0,0,0,3.3.09A3.57,3.57,0,0,0,136.55,121.16Z"/><path class="cls-27" d="M18.87,108.83a11,11,0,0,0-5.27-1.48,2.26,2.26,0,0,0-1.66,2.31,11.09,11.09,0,0,0-3.65-2.44c-2-.61-3.5-.27-3,2.4l-.07,0,8.45,2.89A6.49,6.49,0,0,0,18.87,108.83Z"/><path class="cls-28" d="M18.87,108.83l-5.24,3.71a5,5,0,0,0,3,.82c1.95-.28,3.53.83,5.25,1.42l.77,0c0-.49,0-1,0-1.48l-.5-.47a4.51,4.51,0,0,1,.51.47c1.5-.24,3.18.61,4.5-.75-.1-.11-.2-.22-.29-.34-.92-.43-.11-1.31-.47-1.89a3.2,3.2,0,0,0-.69,0c-2.26-.52-4.93.79-6.8-1.48Z"/><path class="cls-21" d="M21.85,114.78c-1.62-1-3-3-5.25-1.42A11.36,11.36,0,0,0,21.85,114.78Z"/><path class="cls-13" d="M18.86,131.32l1.81-2.51c-1.31.38-3.13.43-1.81,2.51Z"/><path class="cls-29" d="M44.29,151.36a4.61,4.61,0,0,0,.49-.53c-.21-.25-.43-.58-.71-.65s-.81.09-.58.58C43.61,151,44,151.16,44.29,151.36Z"/><path class="cls-30" d="M144.82,105.17l2.31-.14a1.19,1.19,0,0,0,.23-1.56,2.78,2.78,0,0,0-1-.59,37.09,37.09,0,0,1-3.92-.74,18.5,18.5,0,0,0-4-.29c-.73,0-1.47,0-2.2,0-1.55.16-3.12.49-4.57-.45-2.77-.32-5.53-1.84-8.33-.15-1.22,1-2,2.6-3.87,2.8a3.46,3.46,0,0,0-1.36-3.78,2,2,0,0,0-1.47-.09c-.79.9-1.5.58-2.17-.18a5,5,0,0,0-1.47-.36,15.44,15.44,0,0,0-4.4.2,2.23,2.23,0,0,0-2,2.31c.11,1.52,1.46.89,2.33,1s1.61,0,2.42.07c-1.69-.12-3.37,0-5,0-.76-1-2.43-1.31-2.4-3-.29-.66-.56-1.34-1.45-1.37-1.38.87-1.21,2.13-.87,3.43.93.74,0,1.44,0,2.17a2.63,2.63,0,0,0,.38,1.6c1.85,1.9,4.28.68,6.39,1.2,1.33,0,2.65,0,4,0,1.11-.13,2.24.28,3.36,0,.76-1,1.5,0,2.25,0,1.74-.78,3.57-.19,5.35-.37.34,0,.69,0,1,0a7.33,7.33,0,0,1,3.94-.16.88.88,0,0,0,.91-.12c1.81.29,3.49-.33,5.18-.82a7.74,7.74,0,0,0,4.1-.7,1.94,1.94,0,0,0,2,.65C141.83,105,143.44,105.9,144.82,105.17Z"/><path class="cls-31" d="M49.56,105a8.11,8.11,0,0,0,5.24.16,6.9,6.9,0,0,0,3.11,1c1.25.18,2.56-.35,3.76.37l1.38.08c1.13-1.83-.39-2.12-1.51-2.3-2.42-.39-3.2-1.86-3.1-4.07a1.85,1.85,0,0,0-.61-1.4c-3.12-.25-1.76,2.72-2.85,3.92-1.07.72-2,.07-3-.23-.28-.14-.57-.26-.85-.38a7.81,7.81,0,0,1-1.91-1.31A7,7,0,0,0,48,100c-1.28-.7-2.71-1.11-3.94-1.92a4.47,4.47,0,0,0-.92-.35,4.92,4.92,0,0,0-1.95,0,4.65,4.65,0,0,0-.91.31c-.58.27-1.14.58-1.71.86-2.25.45-4.49.9-6.63-.42a11.79,11.79,0,0,0-3.29-.37,13,13,0,0,0-2.92.25,2.72,2.72,0,0,0-1.82,1.43,1.15,1.15,0,0,0,.39,1.06c2.47,1.19,5.21,1.3,7.81,2,2.07.17,4.07.88,6.17.72l1.49.76c1.34-.77,2.66.35,4,.06l2,.7C47.05,104.38,48.31,105.13,49.56,105Z"/><path class="cls-23" d="M64.65,117.83c4,.65,8.07-.6,12,.75h.51a23.73,23.73,0,0,0,5.5-.74l1.63-.32-1.63-1.17c-2.68-1-5.56.26-8.25-.73H72.9c-1.6,1.45-3.1.44-4.62-.21-2.18-.58-4.47.36-6.63-.53l-18-1.55c-2.28.26-4.67-.49-7.86,1,6.12,1,11.38,1.6,16.49,2.8C56.45,118.14,60.64,116,64.65,117.83Z"/><path class="cls-32" d="M167.28,100.65c1.73-1.56,4.13-1.42,6.08-2.43-5.19-3.1-11.13-3.71-16.84-5.07a61.29,61.29,0,0,0-6.93-.86,1.23,1.23,0,0,0-.38,1.5,2.38,2.38,0,0,0,1.4.82,7.21,7.21,0,0,0,1,.13c1.61,0,3.28-.14,4.54,1.21a22.46,22.46,0,0,0,1.82,1.7c1.46,1,1.33,3.22,2.94,4.16a3.68,3.68,0,0,0,1.68.21c1.5-.45,3.1-.57,4.47-1.43Z"/><path class="cls-25" d="M136.7,117.83c4.56-.08,9-1.3,13.39-1.86,5.24-.67,10.47-1.85,15.83-2.06,0-.92-1.31-.53-1.45-1.33-1.12-1-2.21-.76-3.42-.07-1.7,1-3.48.24-5.22.25,3.6.65,4.35.44,4.89-1.65l-19.57,3c.86.22,2.07.93.49,1.29C139.68,115.79,138.54,117.42,136.7,117.83Z"/><path class="cls-33" d="M57.85,100.56c-.53,2.42-.36,4.41,2.82,4.53,1.1,0,2.37-.18,2.38,1.55h.05a1.07,1.07,0,0,0,.95.12c1.45-.07,2.88-.69,4.34-.09,2,.18,4,.65,6,0l.18-.49a1.84,1.84,0,0,0-.72-1.26c-1.28-.31-1.55-1.25-1.47-2.41a1.64,1.64,0,0,0-.63-.75c-1.28-.37-2.71-.11-3.85-1.08-1.87-1.61-3.73-2.33-5.77-.06-1.1,1.22-2.53.37-3.82,0Z"/><path class="cls-34" d="M74.41,115.61c2.64,1.55,5.51.34,8.25.73,8.69,0,17.39,0,26.08,0,1.32,0,2.76.48,3.9-.65Z"/><path class="cls-35" d="M160.72,111.11c-.88,3-3.8.41-5.26,1.92,3.08,1.08,6-.47,9-.45h0c1-1.11,2.78-.3,3.75-1.49v-1.52A23.77,23.77,0,0,0,160.72,111.11Z"/><path class="cls-36" d="M146.34,103.53l1.07.17c2.47,1.46,4.87-.52,7.31-.14h2.12a1.54,1.54,0,0,0,.39-2.08c-1.71-1-3.7,0-5.45-.75a5,5,0,0,0-2.69.07,12.32,12.32,0,0,0-2.51,1.79A1.16,1.16,0,0,0,146.34,103.53Z"/><path class="cls-37" d="M27.12,112.58c3-.66,6.12,1.3,9-.68-2.49-.08-4.86-1.19-7.4-.85-1.56-.55-2.24-.19-1.58,1.53Z"/><path class="cls-38" d="M154.72,103.56c-2.46-1.25-4.86.65-7.31.14-.09.44-.19.88-.28,1.33A17.38,17.38,0,0,0,154.72,103.56Z"/><path class="cls-34" d="M61.65,114.86c2,1.82,4.8-.39,6.75,1.47.94.26,2.08,1.12,2.27-.78C67.75,114.19,64.66,115.12,61.65,114.86Z"/><path class="cls-39" d="M38.3,103.53c-1.83-1.18-4-.73-6-1.32-.46.43-1.29,0-1.62.74C33.2,103.55,35.66,104.81,38.3,103.53Z"/><path class="cls-40" d="M115.68,107.29a5.16,5.16,0,0,0-3.06-.6c-1.35.59-2.78.15-4.16.28a8.54,8.54,0,0,0-1.6.09.62.62,0,0,0-.32.56c0,.22.06.33.11.33C109.68,107.94,112.75,108.63,115.68,107.29Z"/><path class="cls-41" d="M91.68,108h11.23a.64.64,0,0,0-.29-1,6.29,6.29,0,0,0-3-.64c-2.53.17-5.11-.46-7.57.56A.76.76,0,0,0,91.68,108Z"/><path class="cls-42" d="M30.7,103l1.62-.74-8.24-1.85-.28.36a.93.93,0,0,0,.25.83,1.69,1.69,0,0,0,.06.55.61.61,0,0,0,.77.14Z"/><path class="cls-43" d="M162.24,101.42l-1.58-.09a1.91,1.91,0,0,0-1.7-.44,1.2,1.2,0,0,0-.82.83c0,1.51.89,1.63,2.07,1.23a6.38,6.38,0,0,0,3.68-.76C163.54,101.51,162.69,101.9,162.24,101.42Z"/><path class="cls-44" d="M161.47,107.34c-1,1.2-.11,1.49.8,1.45,1.5-.07,3.15.63,4.45-.7C165,107.56,163.34,106.75,161.47,107.34Z"/><path class="cls-45" d="M63.88,111.67c-1.62-.58-3.23-.87-4.72.62Z"/><path class="cls-46" d="M84.93,107.4l2.29.52a1.27,1.27,0,0,0,.07-1.21c-2.32-1.78-4.81-1.24-7.32-.56a1,1,0,0,0-.5,1.07,1.31,1.31,0,0,0,1.12.47C82,107.57,83.52,108,84.93,107.4Z"/><path class="cls-25" d="M133.67,114.79c1.77,1.66,3.13.45,4.51-.65C136.66,114.26,135,113.6,133.67,114.79Z"/><path class="cls-21" d="M27.12,112.58a1.43,1.43,0,0,1,1.57-1.53l-.81-.73-1.52,0c-.29.85-1.93.81-1.58,1.8S26.32,112.42,27.12,112.58Z"/><path class="cls-47" d="M161.47,107.34a14.17,14.17,0,0,0,5.25.75C165.14,106.64,163.47,105.87,161.47,107.34Z"/><path class="cls-48" d="M136.7,108.09a6.32,6.32,0,0,0-5.26-.35c1.78-.18,3.36,1.91,5.26.35Z"/><path class="cls-24" d="M70.67,115.55c-.53.9-1.43.76-2.27.78,1.67.82,3.38,1.87,4.5-.73Z"/><path class="cls-49" d="M138.44,105.13c-1.4,0-2.89-.43-4.1.7C135.94,107,137.31,106.75,138.44,105.13Z"/><path class="cls-50" d="M162.24,101.42l1.65.77c1.31-.06,2.69,0,3.21-1.6Z"/><path class="cls-51" d="M24.88,102.24l-.77-.14c-1.78,2.14.55,2.22,1.51,3A4.3,4.3,0,0,0,24.88,102.24Z"/><path class="cls-52" d="M80.35,107.4a4.24,4.24,0,0,1-.7-.11c-1.22-1.09-2.79-.84-4.23-1.12a1.87,1.87,0,0,0-1,.31l.06.21c1.53,2.67,4,1,6,1.29.2-.17.25-.32.15-.43A.34.34,0,0,0,80.35,107.4Z"/><path class="cls-53" d="M43.78,104.35c-1.32-.86-2.64-1.3-4-.06C41.12,104.41,42.43,105.77,43.78,104.35Z"/><path class="cls-54" d="M123.93,106.6c-2,.24-4.14-.74-6,.72l6-.11c.27-.12.37-.24.29-.39S124,106.6,123.93,106.6Z"/><path class="cls-55" d="M160.21,103c-.91-.1-1.68-.39-1.75-1.48a.94.94,0,0,0-.71-.48,1,1,0,0,0-.72.46c-.06.7-.12,1.4-.19,2.1A4.9,4.9,0,0,0,160.21,103Z"/><path class="cls-56" d="M83.6,114.69h4.21v-.37H83.54Z"/><path class="cls-57" d="M49.56,105c-1.27-.86-2.52-1.1-3.75.07C47.07,105.47,48.33,105.91,49.56,105Z"/><path class="cls-58" d="M57.88,105.83a5.41,5.41,0,0,0-3.08-.69c.37,2,1.89,1.32,3.12,1.31.22-.15.29-.29.2-.42S58,105.83,57.88,105.83Z"/><path class="cls-59" d="M123.93,106.6c0,.21,0,.41,0,.61,1.78.06,3.59.46,5.26-.56l-.86-.13a5.13,5.13,0,0,0-3.7,0A1.52,1.52,0,0,0,123.93,106.6Z"/><path class="cls-60" d="M182.51,99.21c-.17-.49.07-1.24-.75-1a1.08,1.08,0,0,0-.54.85c-.05.51.23,1,.83.94C182.24,100,182.37,99.46,182.51,99.21Z"/><path class="cls-61" d="M144.82,105.17c-1.42.42-3.1-.94-4.37.61C141.94,105.81,143.46,106.09,144.82,105.17Z"/><path class="cls-62" d="M80.35,107.4c0,.19.07.38.11.58,1.5-.1,3.12.7,4.47-.58Z"/><path class="cls-63" d="M87.17,107.42c0,.17,0,.33,0,.5l4.46,0c0-.2,0-.4,0-.61C90.15,106,88.65,106.17,87.17,107.42Z"/><path class="cls-64" d="M68.39,106.68a3.2,3.2,0,0,0-4.39-.15,4.21,4.21,0,0,0,3.65.12A1,1,0,0,1,68.39,106.68Z"/><path class="cls-65" d="M67.65,106.65,64,106.53l-.9.12C64.62,107.38,66.13,107.88,67.65,106.65Z"/><path class="cls-66" d="M102.91,107.4a5.42,5.42,0,0,1,0,.57l3.74,0c0-.18,0-.37,0-.55A3.61,3.61,0,0,0,102.91,107.4Z"/><path class="cls-48" d="M136.7,108.09h3.37c-1.5-1.1-2.46-.91-3.37,0Z"/><path class="cls-67" d="M86,109.86a2.56,2.56,0,0,0,2.71.17C88,109.32,87.28,109.59,86,109.86Z"/><path class="cls-68" d="M57.88,105.83c0,.21,0,.41,0,.62l3.75.11C60.61,105.25,59.16,106,57.88,105.83Z"/><path class="cls-69" d="M57.88,99.1l0,1.46.06,0c2.34-.45,1.83-2.67,2.45-4.11,2.15-5,3.72-5.91,8.84-4.93.56.27,1.07.58,1,1.32a1.34,1.34,0,0,1-.17.64c-.36-.17-.38-.59-.58-.9-2.76-1.69-3.63.55-4.28,2.33-.86,2.37.85,3.68,2.75,4.6,1.37.66,3.38,0,4.11,2a1.6,1.6,0,0,0,1.53.08c1.83-1,.64-4.08,3.13-4.67.25-1.14-.72-1.36-1.35-1.83-1.06-.79-.86-1.8-.5-2.84a6.33,6.33,0,0,1,1.34-1.74c.61-.67,1.41-1.11,2-1.76a.84.84,0,0,0,0-.85l-3.87-.1-21,1.5c-.61.74-.33,1.33.31,1.86a3.3,3.3,0,0,0,1.54.31c2.35.09,2.07,1.52,1.55,3.06a3.13,3.13,0,0,0-.3,1.44,4.68,4.68,0,0,0,.17,1A4.45,4.45,0,0,0,57.88,99.1Z"/><path class="cls-70" d="M24.08,100.36c0-.16,0-.32,0-.48.27-3.44,1.58-4.37,7.09-5.06,2.79-.22,5.39,0,7.15,2.65a2,2,0,0,0,2.25.88v0c.79-.64,1.16-1.71,2.23-2a4.64,4.64,0,0,0,1.77-.86c.64-.81.68-1.85,1.1-2.74.24-.9,1.38-1.49.92-2.63-11.57.9-23,2.66-33.88,6.82,1.69,1.73,4.39,1.31,6.16,2.86a.57.57,0,0,0,.52,0c1.5.67,3,1.33,4.71.82Z"/><path class="cls-71" d="M78.89,74.38l-4.45,0a11.63,11.63,0,0,1-.76,2.81c-1.56,2.78-.56,4.92,1.48,6.89,1.37.43,2.84,1,2.25-1.5C75.21,79.38,78.16,77.08,78.89,74.38Z"/><path class="cls-72" d="M54.14,90.87l-.75-1.54c-1.5.27-3-1.28-4.51.06-.82,1.44-3,1.4-3.48,3.24a5,5,0,0,0-.07,2.84,2.34,2.34,0,0,0,3,1.18,1.76,1.76,0,0,0,.82-.68c0-2.15,1.14-2.88,3.17-2.42a3.16,3.16,0,0,0,1.53,0,1.61,1.61,0,0,0,.74-.72A1.75,1.75,0,0,0,54.14,90.87Z"/><path class="cls-73" d="M77.41,82.6c-.07,1.52-1.16,1.51-2.25,1.5.84,1.43,2.76,1.06,3.75,2.25C80.49,85,80.49,85,77.41,82.6Z"/><path class="cls-74" d="M45.88,92.35c.89-1.1,3.15-.81,3-3l-2.26.71c-.45.79-1.61,1.08-1.57,2.22A.54.54,0,0,0,45.88,92.35Z"/><path class="cls-75" d="M89.53,73.74a6,6,0,0,0-.12.61c-.14,4.34,3.25,6.43,5.78,9.07.37.38.91.6,1.31.21.67-.66.26-1.41-.12-2-1.34-2.23-2.89-4.39-1.74-7.21A12.64,12.64,0,0,0,89.53,73.74Z"/><path class="cls-76" d="M100.7,87.91l-16.54,0c-.38,1.13.61,1.38,1.2,1.89l.81.52c1.34,1.13.75,2.55.56,3.9a6.08,6.08,0,0,0-.16,1,7.57,7.57,0,0,0,0,.95c.25,1.12-.73,2.11-.33,3.25a7.25,7.25,0,0,0,3.83,2.35,5.2,5.2,0,0,0,3.3-1.23,4.51,4.51,0,0,0,1.48-1.37c.08-1.35-1-2.89.67-4,3.82-4.25,6.17-5,9.29-3.07,1.53.93,2.12,2.71,3.56,3.69a2.29,2.29,0,0,0,2.08,0,1.9,1.9,0,0,0,.94-1.76c-1-1.9-1.57-4-3.22-5.56a2.94,2.94,0,0,0-1.5,0A22.74,22.74,0,0,1,100.7,87.91Z"/><path class="cls-77" d="M85.71,89.33l-1.55-1.47-5.89.07a6.21,6.21,0,0,0-.14.62.65.65,0,0,0-.22.57c0,.22.07.32.12.32,1.51.93,3.29-.34,4.8.59a6.89,6.89,0,0,0,2,.54,1.93,1.93,0,0,0,1-.32A.72.72,0,0,0,85.71,89.33Z"/><path class="cls-78" d="M106.68,88.59h1.5c1.71,1.17,3.25,1.23,4.47-.7a1.54,1.54,0,0,0-.72-1.54h-1.52c-.75,2.74-3,.93-4.5,1.52C105.77,88.54,105.9,88.92,106.68,88.59Z"/><path class="cls-79" d="M106.68,88.59l-.77-.71-5.21,0A8.9,8.9,0,0,0,106.68,88.59Z"/><path class="cls-79" d="M112.65,87.89c-1.39.84-2.94.72-4.47.7.66,2,1.09,4.12,3.11,5.31.94,1,2.14.86,3.33.8a7.11,7.11,0,0,0,1.12-.2,8.47,8.47,0,0,1,5.38,0c2.09.49,4.07-.2,6.09-.55a5.16,5.16,0,0,0,1-.35,10.2,10.2,0,0,1,2.59-1.47,7.26,7.26,0,0,1,2.4-.38,11.82,11.82,0,0,1,3.55.41,6,6,0,0,0,4.24-.91.86.86,0,0,0,.3-1l-20.35-1.72C118.18,88.28,115.31,89.32,112.65,87.89Z"/><path class="cls-80" d="M149.46,93.84l.12-1.55c-1.78-2.41-4.3-2.36-6.9-2-.7.61-1.27,1.41-2.34,1.37-1.14.63-3.47.16-2.51,2.72A8.38,8.38,0,0,0,140.69,96c1.83.3,3.62,1.05,5.53.63a2.19,2.19,0,0,0,1.17-1.09c.23-1.23-.75-1.19-1.45-1.35C147,93.4,148.42,95.94,149.46,93.84Z"/><path class="cls-81" d="M137.45,88.6c0-1.45-.14-2.6-2.08-1.6a17.76,17.76,0,0,1-2.42.85C134.21,89.5,136.12,87.34,137.45,88.6Z"/><path class="cls-82" d="M148,87.85h-2.25l-1.4.1-.05.51c1.23,0,2.46,0,3.69,0,.05,0,.15-.18.15-.27A1,1,0,0,0,148,87.85Z"/><path class="cls-83" d="M141.18,92.3a2,2,0,0,0,1.5-2l-1.39,0c0,.17-.06.34-.1.51A1,1,0,0,0,141.18,92.3Z"/><path class="cls-84" d="M5.25,109.62c.39-2.3,1.66-2.49,3.39-1.36a18.34,18.34,0,0,1,2.63,2c.7.67,1.63,1.18,2.26.58,1.3-1.2-.86-1-.82-1.55a6,6,0,0,1,.89-1.93l-.74-.76h0l-3-.73c-1.07.63-1.62-.17-2.23-.81l-4.6-3C2.7,104.9,4,107.26,5.25,109.62Z"/><path class="cls-27" d="M18.87,108.83c-.22,2.2,1.21,2.42,2.83,2.23,1.33-.16,2.65-.49,4-.75A17.54,17.54,0,0,0,18.87,108.83Z"/><path class="cls-85" d="M24.13,100.65c-1.57-.25-3-1.15-4.71-.82.94,2.2,3,1.26,4.63,1.72C24.08,101.25,24.1,101,24.13,100.65Z"/><path class="cls-86" d="M12.86,106.59h3.43c-1.56-1.59-2.54-1.73-3.44,0Z"/><path class="cls-87" d="M7.62,105.05c0,.75.1,1.58.92,1.82s1-.45,1.31-1Z"/><path class="cls-24" d="M88.66,117.83c-1.31,1.36-3,.51-4.5.75-.06.57.19,1.06.73,1,7-.1,14,.49,21-.3l.75-1.5A91.18,91.18,0,0,0,88.66,117.83Z"/><path class="cls-88" d="M105.93,119.33c-6.09,0-12.19,0-18.28,0-1.19,0-2.52.41-3.49-.73h-1.5c-2-1.19-4-.33-6,0h0v.75c9.61,1,19.25.73,28.88.74.11,0,.29,0,.31-.12A3.2,3.2,0,0,0,105.93,119.33Z"/><path class="cls-89" d="M88.66,117.83h18A44.11,44.11,0,0,0,88.66,117.83Z"/><path class="cls-90" d="M122.44,120.08v-1.5c-3-.29-5.78,1.4-8.82,1.5Z"/><path class="cls-24" d="M76.65,118.58h6v-.75C80.47,116.61,78.56,117.59,76.65,118.58Z"/><path class="cls-91" d="M124.69,117.83v-.75h-5.12v.75Z"/><path class="cls-92" d="M34.25,114.39l-3.64-.89C32.14,114.71,32.14,114.71,34.25,114.39Z"/><path class="cls-25" d="M168.22,111.09c-1.44,0-3-.25-3.75,1.49H169Z"/><path class="cls-21" d="M22.62,113.33c-.1-.75-.27-1.45-1.25-1.37-.16,0-.46.29-.44.39.2.91,1,.89,1.68,1Z"/><path class="cls-93" d="M123.19,102.17c3-2.17,6,.83,9-.07a2.51,2.51,0,0,0,1.34-.53c.76-.61,1.72-.89,2.48-1.5a1.41,1.41,0,0,0,.26-.93,12,12,0,0,0-1.95-2.83,2.23,2.23,0,0,0-.82-.53c-1-.11-2-.11-2.93-.17-1.32,0-2.72-.55-3.94.43-1.51,1.95-5.29,2.24-4.37,6A.79.79,0,0,0,123.19,102.17Z"/><path class="cls-94" d="M102.29,105.91l-.24-1.6a13.8,13.8,0,0,0-2.39-4.41,2.79,2.79,0,0,0-.87-.61,5.34,5.34,0,0,0-1.63-.3,4.61,4.61,0,0,0-3.56,1.46,2.31,2.31,0,0,0-.07,2.11c2.3.67,4.59,1.36,5,4.28a6.29,6.29,0,0,0,1.62.11C100.92,106.76,102.15,107.46,102.29,105.91Z"/><path class="cls-95" d="M123.19,102.17a6.35,6.35,0,0,0-.71-.14,2.44,2.44,0,0,1-1.17-3.52,1.71,1.71,0,0,0-.64-1.34,8.25,8.25,0,0,0-2.25-1.33,1.17,1.17,0,0,0-.9.51,4.41,4.41,0,0,0-.23,3.29,4.23,4.23,0,0,0,.63.93c0,1,2,1.78.35,3.11-.42.35,0,1,.82,1.19C121.46,105.49,122.38,103.92,123.19,102.17Z"/><path class="cls-96" d="M105.93,103.59c2.53.68,5-.36,8.45,0-2.47-1.09-4.08-.56-5.62-.75-.54-.07-1.38.23-1.43-.67a1.31,1.31,0,0,1,1.31-1.47c1.6-.1,3.2-.08,4.8-.1a.74.74,0,0,0-.14-1,6.12,6.12,0,0,0-3.38-.68A36.16,36.16,0,0,1,106,98.7a1.84,1.84,0,0,0-1.88,1.66A9.56,9.56,0,0,0,105.93,103.59Z"/><path class="cls-97" d="M102.18,102.74c.17-1.23-.5-2.63.75-3.64q1.27.9,1.71-.6c-1.85-2.71-3.59-1.25-5.34.13a.82.82,0,0,0-.09,1.06l0,.22C100.28,100.75,100.32,102.71,102.18,102.74Z"/><path class="cls-98" d="M138.22,102.78l4.42.09a1.66,1.66,0,0,0,1.72.11c.76-.53,1.29-1.25.73-2.13-.68-1.07-1.68-.61-2.6-.27C141.23,101.63,138.74,100.31,138.22,102.78Z"/><path class="cls-99" d="M102.29,105.91c-.6.82-1.54.63-2.36.8l-.06.51,3,.18h3.76l1.49-.12c.25-.12.34-.26.27-.41s-.14-.23-.22-.23C106.29,106,104.16,107,102.29,105.91Z"/><path class="cls-100" d="M138.22,102.78c1.17-1.48,3.33.13,4.48-1.44l-.35-.37c-1.42-.74-3-.42-4.5-.72a1.84,1.84,0,0,0-1.4.43,3.55,3.55,0,0,0-.77,1.24.86.86,0,0,0,.27.86Z"/><path class="cls-101" d="M136,102.78c0-.21.05-.43.08-.64-.72-1.54-1.82-1.57-3.12-.81l-.76.77C132.93,105,134.77,102.09,136,102.78Z"/><path class="cls-102" d="M102.18,102.74c-1.17-.76-1.45-2.46-3-2.83a8.1,8.1,0,0,0,2.86,4.4C102.22,103.79,103,103.33,102.18,102.74Z"/><path class="cls-97" d="M105.93,103.59a4.12,4.12,0,0,0-1.5-3,.5.5,0,0,0-.76,0C102.82,102.79,105.2,102.57,105.93,103.59Z"/><path class="cls-103" d="M103.67,100.59h.76l1.46-1.5a.73.73,0,0,0,0-.93,1.15,1.15,0,0,0-1.43.21,1.58,1.58,0,0,1-1.5.73A1.53,1.53,0,0,0,103.67,100.59Z"/><path class="cls-95" d="M114.94,100.61c-.33.8-.77,1.84.56,1.92s.78-1.19.93-1.93A1.07,1.07,0,0,0,114.94,100.61Z"/><path class="cls-104" d="M114.94,100.61h1.49l1.49,0c0-.29-.07-.58-.1-.88a3.53,3.53,0,0,0-.93-.52,4.94,4.94,0,0,0-2.67.09,1.63,1.63,0,0,0-.79.7c0,.21,0,.42,0,.63Z"/><path class="cls-105" d="M108.21,106.64c0,.21,0,.43,0,.64,1.5-.12,3.1.6,4.46-.59Z"/><path class="cls-106" d="M124.6,106.53h3.7C127.06,105.37,125.83,105.71,124.6,106.53Z"/><path class="cls-107" d="M144.21,102.83l-1.57,0c1.06,1.19,2.46.51,3.7.66a2.38,2.38,0,0,0,.15-.64l-.36-.37A1.73,1.73,0,0,0,144.21,102.83Z"/><path class="cls-108" d="M40.61,98.35c-2.48-3.15-5.23-5.69-9.71-4.48-.33.3-.64.61-1,.9-.88.65-2.07.45-3,1.1-.66.92-1.48,1.76-1.28,3l2.84.15c1.14-.69,2.4-.19,3.59-.37,1.7-2,1.48,1.11,2.49.94,1.47-.49,3.09.43,4.5-.53A1.67,1.67,0,0,0,40.61,98.35Z"/><path class="cls-109" d="M48.85,101.36a2.5,2.5,0,0,0,2.28,1.5c.07-.08.09-.21.2-.27-.33.38.11-.12-.22.27a7.23,7.23,0,0,0,4.54,1.48,6.92,6.92,0,0,0-1.91-7.65,3.82,3.82,0,0,0-1.06-.55,4.78,4.78,0,0,0-3.39.24c-1.45,1.43-3.67-.2-5.12,1.28a1.72,1.72,0,0,0-.56.88c1,1.59,3,1.46,4.44,2.17a3.52,3.52,0,0,0,1.4-.5C49.32,100.63,48.88,100.89,48.85,101.36Z"/><path class="cls-110" d="M30.7,95.36c.06-.5.13-1,.19-1.49a14,14,0,0,0-6.56,2.19c-2,1.06-2.44,2.42-.21,3.82.52-.33,1.05-.65,1.58-1,.91-.66,1.77-1.34,1.45-2.66C28.1,95,29.67,96.28,30.7,95.36Z"/><path class="cls-33" d="M53.28,97c1.27,2.31,3,4.45,2.37,7.38,1.92-1.25-.82-4.47,2.23-5.24,0-.85.12-1.75-.8-2.29C55.77,95.84,54.5,95.68,53.28,97Z"/><path class="cls-111" d="M39.13,99.1l-5.25,0a1,1,0,0,0-1.23-.27c-.11.11-.21.23-.31.34C34.61,101.65,36.87,100.07,39.13,99.1Z"/><path class="cls-112" d="M42.22,95.66c-1.67.23-1.71,1.43-1.62,2.71l2.28-.07a2.17,2.17,0,0,0,1-2C43.51,95.57,42.8,95.79,42.22,95.66Z"/><path class="cls-113" d="M48.85,101.36l2.73-2a3.44,3.44,0,0,0-3.53,1.39Z"/><path class="cls-114" d="M43.62,96.12l-.74,2.18.73.24.77-.21c.36-.69,1.17-1.3.7-2.16C44.76,95.58,44.13,95.69,43.62,96.12Z"/><path class="cls-111" d="M32.34,98.43c-1.28.11-2.68-.52-3.79.63l3.79.07,0,0c.19-.15.24-.3.17-.45S32.41,98.43,32.34,98.43Z"/><path class="cls-115" d="M148.73,101.28l3,.07c1.12-4,3.59-1.76,5.69-1.23a1.61,1.61,0,0,0,1.3-1.31c-.35-.62.11-1.36-.26-2l-1.52-1.47a8.16,8.16,0,0,0-4.57-.67c-1.28.29-2.31,1.16-3.52,1.61a3.45,3.45,0,0,0-1.19,1.09,3.73,3.73,0,0,0-.41,2.05,3.88,3.88,0,0,0,.26,1A1.58,1.58,0,0,0,148.73,101.28Z"/><path class="cls-116" d="M149.46,93.84c-1.71,0-3.44-.71-5.25.27.79,1,2.37,0,3,1.14a1.88,1.88,0,0,0,1.66.79c1.23-.15,2.77,0,2.08-2.07Z"/><path class="cls-117" d="M151.72,95.34h5.21c-1.43-1.68-3.3-1.48-5.19-1.25A.73.73,0,0,0,151.72,95.34Z"/><path class="cls-118" d="M158.45,96.82c0,.51-.82,1,0,1.54.5.89-.33,2.14.78,2.86l1.42.11C160.26,99.66,160.32,97.77,158.45,96.82Z"/><path class="cls-119" d="M151.72,95.34c0-.41,0-.83,0-1.24L151,94c-.11,1.49-1.27,1.33-2.26,1.44a1,1,0,0,0,0,1.44C150,96.92,151.14,96.71,151.72,95.34Z"/><path class="cls-35" d="M146.59,114.7h4.95v-.38h-4.93Z"/><path class="cls-120" d="M72.28,101.54c.83-2.05.7-3.12-2-2.47a3.73,3.73,0,0,1-4.43-2.49c-.63-1.7.75-2.94,2.08-3.89.42-.3.93-.07,1.26.37.56.47,1.2.51,1.57-.11.58-1-.09-1.59-.85-2.1-5.3-1.84-7.35-1.07-9.79,3.94-.9,1.86-1.47,3.87-2.19,5.82,2,2.13,3.82,2.21,5.32.21,1.33-1.78,2.66-.93,3.64.21a3.78,3.78,0,0,0,5.2,1l.3-.15Z"/><path class="cls-121" d="M74.37,106.48l.88.18a4.81,4.81,0,0,0,2.68.23c.24-1.49,2.33-.81,2.62-2.25-1.3-1.77-3.2-1.18-4.93-1.24a3.73,3.73,0,0,0-1.74.56.79.79,0,0,0-.25,1.06Z"/><path class="cls-122" d="M73.63,105c0-.21,0-.41.05-.62.32-1.39-.69-1.5-1.63-1.69a1.78,1.78,0,0,0-.32,2.61C72.35,106.16,73,105.2,73.63,105Z"/><path class="cls-123" d="M72.05,102.71c.54.57,1.08,1.13,1.63,1.69l1.4-.16a.78.78,0,0,0,.29-.6c0-.23,0-.35-.08-.35-.78-1-1.55-2.05-3.06-1.18l-.16-.1A1.83,1.83,0,0,1,72.05,102.71Z"/><path class="cls-124" d="M157.71,99.84c-.72-.48-1.4-1-2.16-1.44-1-.52-1.91-1.11-3.12-.35-1.45.91-.89,2.11-.71,3.3,1.74,1.37,3.53.61,5.31.1a2.14,2.14,0,0,0,.7-.19A1,1,0,0,0,157.71,99.84Z"/><path class="cls-125" d="M148.73,101.28l-.76-.7a1.89,1.89,0,0,0-1.79.82,1.22,1.22,0,0,0,.25,1.41l.06.08C147.68,103,148.7,102.8,148.73,101.28Z"/><path class="cls-126" d="M80.49,105c-.68.64-3-1.37-2.34,1.46a1,1,0,0,0,1.48.18c2.52.21,5.16-.86,7.54.74l4.49-.06,8.21-.14a4.35,4.35,0,0,0,.06-.52l-1.46-.14a4.81,4.81,0,0,0-3.14-1c-2-.18-4-.17-4.36-2.87a2.61,2.61,0,0,0-.79-1.31c-1-1.23-2.52-1.52-3.77-2.28a.72.72,0,0,0-1,.09,2,2,0,0,0-.21,1c.16,1.22,1.28,2.12,1.32,3.45C84.64,104.87,82.2,103.37,80.49,105Z"/><path class="cls-127" d="M157.71,99.84c0,.48,0,1,0,1.42l.73.21.78-.25c-.14-1,.31-2.13-.78-2.86Z"/><path class="cls-128" d="M79.63,106.68l-1.48-.18-2.9.16c1.32,1.27,2.93.46,4.4.63C79.65,107.08,79.64,106.88,79.63,106.68Z"/><path class="cls-129" d="M83.41,89.35c-1.75-1.33-3.5-.37-5.25,0-1.16,0-1.83.8-2.56,1.5-.46.93-1.33,1.61-1.55,2.68.09.86-.29,1.79.39,2.56.81.07,1.69-.08,2.24.74,1,1.07,2.27,1,3.52,1a13.39,13.39,0,0,0,4.23-.37,2.4,2.4,0,0,0,1.3-1.11c0-.17.11-.36.17-.53a1.68,1.68,0,0,0-.34-1c-.84-.85-1.16-2.17-2.39-2.69a2.08,2.08,0,0,0-1,.46c-.87.69-1.85,2.49-2.85,1s1.08-1.66,2-2.25S83.61,90.93,83.41,89.35Z"/><path class="cls-130" d="M80.39,96.92l-3.71-.09c-3,.16-2.46,2.66-3,4.44,1,.69,2,.09,3-.1a20.3,20.3,0,0,0,2.92-1,2.29,2.29,0,0,0,.67-.78A2.83,2.83,0,0,0,80.39,96.92Z"/><path class="cls-131" d="M53.28,97l3.8-.15a2.88,2.88,0,0,0,0-.72c-.91-1.07-1.51-2.45-3-3H52.66c-.81.85-.41,1.88-.45,2.85a1.43,1.43,0,0,0,.42.86Z"/><path class="cls-132" d="M57.16,94.6c2.23-.93.42-2.39.3-3.5-.09-.82-1.12-1.2-1.86-.16a5.4,5.4,0,0,0-.18,2.43C55.84,94,56,95.06,57.16,94.6Z"/><path class="cls-122" d="M76.55,100.54a5.17,5.17,0,0,0-2.9.73l-1.37.27a.94.94,0,0,0,0,.57c1.25-.06,1.9,1,2.85,1.5a7.43,7.43,0,0,0,2.76-1.5c.32-.53.71-1.08.08-1.63C77.48,100.09,77,100.29,76.55,100.54Z"/><path class="cls-133" d="M69.89,90.85c.38.94,1.38,2.08-.72,2.21.08.83-.29,1.73.6,2.73C70.53,94,73.11,92.65,69.89,90.85Z"/><path class="cls-134" d="M57.16,94.6l-1.41-1.54a1.17,1.17,0,0,0-1.61,0h0a3.93,3.93,0,0,0,3,3Z"/><path class="cls-135" d="M54.14,93.09l1.61,0a2.14,2.14,0,0,0-.15-2.12l-1.46-.07Z"/><path class="cls-136" d="M74.49,93.1a2.35,2.35,0,0,0,1.42-2.24c.22-.21.29-.4.21-.59S76,90,75.87,90l-1.51,1.62A1,1,0,0,0,74.49,93.1Z"/><path class="cls-137" d="M75.87,90l0,.87,2.25-1.51,0-.8A2.4,2.4,0,0,0,75.87,90Z"/><path class="cls-138" d="M74.49,93.1l-.12-1.49a3.36,3.36,0,0,0,.07,4.48C74.46,95.09,74.48,94.09,74.49,93.1Z"/><path class="cls-139" d="M43.62,96.12c2,.13.47,1.49.76,2.21,1.13-1.71,3.65.75,4.59-1.53.18-.24.14-.42-.15-.54-1-.18-2.13.09-3-.69-.26-.73-.74-.63-1.27-.35l-2.33.44Z"/><path class="cls-140" d="M44.55,95.22l1.27.35.06-3.22-.83,0C44.12,93.16,44.49,94.21,44.55,95.22Z"/><path class="cls-141" d="M52.64,96.1c1.36-1-.27-2,0-3-3.29-1.1-4.32-.49-3.78,2.26C50.2,95.27,51.14,97.11,52.64,96.1Z"/><path class="cls-142" d="M52.64,96.1a3,3,0,0,1-2.29-1.41c-1-1.21-1.27-.24-1.47.66l-.06.91a1.15,1.15,0,0,0,.15.54h3.66C52.64,96.57,52.64,96.33,52.64,96.1Z"/><path class="cls-143" d="M104.43,98.37l1.56-.11c2,.06,3.09-.79,2.83-2.93-4.41-7-8.52-7.17-14-.69-.66,1-1.08,2-.11,3,.76.75,1.64.24,2.37-.23,2.88-1.84,0,2.91,2.14,1.86C100.94,98.92,102.33,96.54,104.43,98.37Z"/><path class="cls-144" d="M99.2,99.24c-.65-.58-.21-1,.15-1.54.6-.84,1-1.9.1-2.6s-1.45.45-2.1.92-1,1.66-2,1.21c-1.16-.51-.53-1.68-.54-2.59-2.09,1.36-1.55,2.79-.12,4.26.8,1.18,2.25.09,3.16.88l1.38-.09A3.38,3.38,0,0,1,99.2,99.24Z"/><path class="cls-145" d="M114.22,99.81l3-.09c.34-2.27-.06-4.17-2.55-5a6.32,6.32,0,0,0-4.31.58l-.68.07c-.74.92-.29,1.65.39,2.34C111.52,98.28,113.23,98.34,114.22,99.81Z"/><path class="cls-146" d="M110.43,97.6l-.75-2.23-.86,0c-.55,1.36-1.75,2.09-2.83,2.94,0,.27-.06.55-.1.82,1,1.33,2.49.66,3.78.75C110.27,99.21,111,98.63,110.43,97.6Z"/><path class="cls-147" d="M110.36,95.31l4.56,0a1.18,1.18,0,0,0,.42-.74,1,1,0,0,0-.42-.72h-3.63Z"/><path class="cls-148" d="M87.16,94.59c1-1.92,1.82-3.82-.75-5.23a2.36,2.36,0,0,0-.48,1.58C86.23,92.2,86.06,93.61,87.16,94.59Z"/><path class="cls-149" d="M85.66,99.09h.75c0-1,2.32-1.54.76-3a4.43,4.43,0,0,0-2.57,1.72C84.55,98.58,84.55,99.3,85.66,99.09Z"/><path class="cls-150" d="M97.83,99.78c-.84-1-2.1-.61-3.16-.88l-1.49,1a.51.51,0,0,0-.27.52c0,.21.08.31.14.31a.65.65,0,0,0,.87-.12A7.27,7.27,0,0,1,97.83,99.78Z"/><path class="cls-151" d="M93.17,100.59c0-.24,0-.47,0-.71l-3,1.49c0,.49,0,1,0,1.48C92,103.16,93.21,102.72,93.17,100.59Z"/><path class="cls-152" d="M86.43,90.86c0-.5,0-1,0-1.5l-.7,0c0,.26-.1.52-.14.78-1.3,1.71-.93,3.47-.15,5.24h.27a.67.67,0,0,0,1-.26C86.69,93.67,87.1,92.23,86.43,90.86Z"/><path class="cls-153" d="M86.4,95.33l-.71,0-.82,1.4a.52.52,0,0,0-.17.58c.07.18.15.27.21.27a2.31,2.31,0,0,0,2.26-1.5c0-.25,0-.51,0-.76C86.91,95,86.66,95,86.4,95.33Z"/><path class="cls-154" d="M86.4,95.33h.76v-.75c-.19-1.25.51-2.68-.73-3.73Z"/><path class="cls-155" d="M85.42,95.35l.15-5.24H84.9a2.68,2.68,0,0,0-.66,1,7.46,7.46,0,0,0,.66,4.19A4.41,4.41,0,0,1,85.42,95.35Z"/><path class="cls-156" d="M84.9,90.85V90.1l-1.49-.75-2.24,1.46a2.08,2.08,0,0,0,2.09,1.06A2.54,2.54,0,0,0,84.9,90.85Z"/><path class="cls-157" d="M114.92,93.89a1.84,1.84,0,0,0,0,.66,4.42,4.42,0,0,0,3.13,1.58l.52.06c.92.52,1.89.06,2.82.14,1.86,1.07-.54,1.31-.4,2-.92.77-2.21,1.43-1.5,3,.63,1.35,1.93.63,3,.72.45-1.81.82-3.59,3.29-3.7,1.33,0,1.17-1.33,1.35-2.25,1.12-.81,1.51-1.78.7-3-2.28-.25-4.39,1.21-6.7.72a10.47,10.47,0,0,0-5.47.07A4.37,4.37,0,0,0,114.92,93.89Z"/><path class="cls-158" d="M127.81,93c-.23,1-.47,2-.7,3,1.2-.46,2.37,1.34,3.59.06,1-.66,2.32.14,3.26-.75.73-1.47,2.26-2.35,2.85-3.93-1.17-1-2.58-.55-3.9-.61a7.66,7.66,0,0,1-2.41,1.47,3.75,3.75,0,0,0-2.31.74L128,93Z"/><path class="cls-159" d="M136.81,91.46c-1.64.86-3.41,1.61-3.25,3.94-.19.21-.23.38-.11.51a.39.39,0,0,0,.28.17l0,0a2.11,2.11,0,0,0,2.13.55c1.24-.54,2.62-1,2.43-2.76.3-1.78,1.78-1.32,2.91-1.55,0-.5,0-1,0-1.5Z"/><path class="cls-160" d="M128.19,93.06,131.4,93c.57-1,.47-1.63-.89-1.52C129.39,91.48,128.38,91.69,128.19,93.06Z"/><path class="cls-161" d="M115.64,93.83l5.47-.07A5.19,5.19,0,0,0,115.64,93.83Z"/><path class="cls-162" d="M130.51,91.45A1.54,1.54,0,0,1,131.4,93c.91-.41,1.09-1.35,1.51-2.12A2.75,2.75,0,0,0,130.51,91.45Z"/><path class="cls-163" d="M136,96l-2.26.06c-.07,1.59,1.09,2.34,2.16,3.14,1.76.68,3.29-.64,5-.56,1.91-.34,3.92.88,5.76-.4a1.69,1.69,0,0,0-.2-2.26c-2,.19-3.9-1.11-6-.62A9.57,9.57,0,0,0,136,96Z"/><path class="cls-164" d="M136,96c1.51-.13,3.15.65,4.49-.64l-2.19-1.51C137.94,95,136.58,95.12,136,96Z"/><path class="cls-165" d="M146.42,96l0,2.36.37.17c.66,0,.53-.89,1.11-1l.76-.69V95.41l-1.48-.16Z"/><path class="cls-166" d="M140.45,97.65c-1.68.06-3.08.94-4.58,1.55,0,.16,0,.32,0,.47-.37.83-.63,1.61.74,1.66l.87-.68a1.74,1.74,0,0,0,1.67.11C140.68,100.18,141.57,99.33,140.45,97.65Z"/><path class="cls-167" d="M136.62,101.33c-.62-.38-.66-1-.74-1.66-1.19.21-2.39.38-3,1.66a5.37,5.37,0,0,1,3.12.81Z"/><path class="cls-168" d="M133.73,96.08a4,4,0,0,0-.17-.68c-.94.31-2.25-.86-2.86.74A2.55,2.55,0,0,0,133.73,96.08Z"/><path class="cls-169" d="M94.57,106.5l3.9.06c.69-3.82-.63-4.9-4.55-3.7C92.74,104.32,93.12,105.5,94.57,106.5Z"/><path class="cls-170" d="M94.57,106.5a6.55,6.55,0,0,1-.65-3.64v-2.27h-.75c-.54,1.36-1.91,1.62-3,2.26C89.5,106.64,92.68,105.8,94.57,106.5Z"/><path class="cls-171" d="M118.08,96.13A5.11,5.11,0,0,0,115,94.55l0,.8a7.08,7.08,0,0,1,2.3,4.37,1.22,1.22,0,0,0,.6,0C117.91,98.5,118,97.32,118.08,96.13Z"/><path class="cls-172" d="M121,98.36c1.15-.36,2.71-.41,2.73-2,0-1.23-1.22-.89-2-.89-.33.81-2.78.08-1.5,2.06Z"/><path class="cls-173" d="M120.21,97.55c-.74-1.59,2.79-.08,1.5-2.07a3.72,3.72,0,0,0-3.11.7A1.38,1.38,0,0,0,120.21,97.55Z"/><path class="cls-174" d="M110.43,97.6c-.25.75-.51,1.5-.76,2.24l3.76.12.79-.15C114.28,96.82,112.37,97.18,110.43,97.6Z"/><path class="cls-175" d="M140.45,97.65c.34,1.43-.7,2.12-1.56,2.91,1.13,1,2.68-.16,3.81.78h0c.65-.13,1.34-1,1.9-.16.21.33-.24,1.09-.39,1.65l2.22,0c0-.49,0-1,0-1.47a7.24,7.24,0,0,0,.44-2.21,1.12,1.12,0,0,0-.47-.74l0,0A14.43,14.43,0,0,0,140.45,97.65Z"/><path class="cls-98" d="M142.7,101.34c-1.06-1.27-2.53-.54-3.8-.78l-1.41.09C139.08,102,141,101.06,142.7,101.34Z"/><path class="cls-176" d="M32.34,98.43c0,.22,0,.44,0,.65l1.5,0c-.78-1.09,2.17-1,.76-2C33.62,96.38,32.5,96.92,32.34,98.43Z"/><path class="cls-177" d="M30.7,95.36c-1.21.19-2.67-.59-3.55.89C28.3,95.84,29.77,96.66,30.7,95.36Z"/><path class="cls-178" d="M51.11,102.86c.68-.12,1.71.26,1.91-.57s-.86-.54-1.31-.64c-1.54-.34-.63.68-.58,1.21Z"/><path class="cls-107" d="M146.49,99c-.21.76-1.24,1.52,0,2.3a1.58,1.58,0,0,0,1.5-.76c0-.26-.06-.52-.08-.78C147.53,99.35,147.28,98.71,146.49,99Z"/><path class="cls-179" d="M146.49,99l1.4.76c0-.75,0-1.5.05-2.26-1-.64-.8.92-1.5.84C146.46,98.6,146.48,98.82,146.49,99Z"/><path class="cls-180" d="M77.41,102c-1.09.06-2.18.12-2.33,1.58a2.22,2.22,0,0,1,0,.63c1.78.42,3.76-.52,5.41.8,2,0,4,0,6,0,.49,0,1-.08,1.52-.12,0-2.13-1.4-3.46-2.36-5-1.85-1.33-3.7-2.54-6-.75,0,.16,0,.32,0,.48C79,100.48,78.5,101.54,77.41,102Z"/><path class="cls-181" d="M79.69,99.15c2.07-.38,4,.62,6,.75,0-.27,0-.54,0-.81a1.54,1.54,0,0,1-.75-1.49c0-.28,0-.57,0-.85l-4.48.17C80.16,97.67,79.93,98.41,79.69,99.15Z"/><path class="cls-182" d="M83.41,91.61l-2.24-.8c-1.8,0-3.21.61-3.61,2.49-.21,1,.46,1.62,1.37,1.93,2.72.93,3.18-1.62,4.47-2.9A.56.56,0,0,0,83.41,91.61Z"/><path class="cls-183" d="M83.41,91.61c0,.24,0,.48,0,.72a4.06,4.06,0,0,0,1.5,3V90.85A1.51,1.51,0,0,0,83.41,91.61Z"/><path class="cls-184" d="M77.41,102c1.62,0,2.22-.94,2.27-2.4-1.05.28-2.28,0-3.13.91C77.7,100.54,78,101.06,77.41,102Z"/></g></g></svg>