<svg xmlns="http://www.w3.org/2000/svg" viewBox="0 0 122.87 169.83"><defs><style>.cls-1{fill:#40b16f;}.cls-2{fill:#fcc953;}.cls-3{fill:#fcb200;}.cls-4{fill:#23a559;}.cls-5{fill:#73c596;}.cls-6{fill:#e9674a;}.cls-7{fill:#1c472c;}.cls-8{fill:#216937;}.cls-9{fill:#6fc38d;}.cls-10{fill:#ffad26;}.cls-11{fill:#2c335c;}.cls-12{fill:#fff;}.cls-13,.cls-14,.cls-15{fill:none;stroke:#2c335c;}.cls-13,.cls-14{stroke-linecap:round;stroke-linejoin:round;}.cls-13,.cls-15{stroke-width:3px;}.cls-14{stroke-width:2px;}.cls-15{stroke-miterlimit:10;}</style></defs><title>3-robo.svg</title><g id="Camada_2" data-name="Camada 2"><g id="OBJECTS"><path class="cls-1" d="M110.25,108.09H116V80.21a2.87,2.87,0,0,0-.74-1.91L102.84,64.57,98.6,68.39l11.65,12.92Z"/><path class="cls-2" d="M106.33,121.37l3.41-3.33a4.8,4.8,0,0,1-1.39-3.4,4.88,4.88,0,1,1,8.79,2.91l3.82,2.84a9.53,9.53,0,0,0,1.91-5.75,9.64,9.64,0,1,0-16.54,6.73Z"/><path class="cls-2" d="M97.91,60.77V72.18a5.71,5.71,0,0,0,0-11.41Z"/><rect class="cls-2" x="36.8" y="118.97" width="16.77" height="39.98"/><rect class="cls-3" x="36.8" y="118.97" width="16.77" height="3.63"/><rect class="cls-3" x="36.8" y="126.24" width="16.77" height="3.63"/><rect class="cls-3" x="36.8" y="133.51" width="16.77" height="3.63"/><rect class="cls-3" x="36.8" y="140.78" width="16.77" height="3.63"/><rect class="cls-3" x="36.8" y="148.05" width="16.77" height="3.63"/><rect class="cls-3" x="36.8" y="155.32" width="16.77" height="3.63"/><rect class="cls-1" x="34.16" y="162.66" width="22.05" height="7.17"/><polygon class="cls-4" points="34.16 162.66 36.8 158.95 53.57 158.95 56.21 162.66 34.16 162.66"/><rect class="cls-2" x="69.04" y="118.97" width="16.77" height="39.98"/><rect class="cls-3" x="69.04" y="118.97" width="16.77" height="3.63"/><rect class="cls-3" x="69.04" y="126.24" width="16.77" height="3.63"/><rect class="cls-3" x="69.04" y="133.51" width="16.77" height="3.63"/><rect class="cls-3" x="69.04" y="140.78" width="16.77" height="3.63"/><rect class="cls-3" x="69.04" y="148.05" width="16.77" height="3.63"/><rect class="cls-3" x="69.04" y="155.32" width="16.77" height="3.63"/><rect class="cls-1" x="66.4" y="162.66" width="22.05" height="7.17"/><polygon class="cls-4" points="66.4 162.66 69.04 158.95 85.81 158.95 88.45 162.66 66.4 162.66"/><rect class="cls-1" x="24.71" y="51.51" width="73.2" height="67.46" rx="3.65" ry="3.65"/><path class="cls-5" d="M61.31,116.11c-5.16.2-10.32.29-15.48.37s-10.32.07-15.48.11H28.42a1.28,1.28,0,0,1-1.2-.74,1.37,1.37,0,0,1-.11-.67v-.48l0-3.87c0-2.58,0-5.16.07-7.74.07-5.16.17-10.32.36-15.48.2,5.16.29,10.32.37,15.48.06,2.58,0,5.16.07,7.74l0,3.87a3.71,3.71,0,0,0,0,.77.37.37,0,0,0,.37.19h1.93c5.16,0,10.32,0,15.48.11S56.15,115.92,61.31,116.11Z"/><path class="cls-5" d="M32.28,54.36l15.43-.23L63.13,54,94,53.89h.25a.9.9,0,0,1,.35,0,1.3,1.3,0,0,1,.65.4,1.35,1.35,0,0,1,.3.69c0,.26,0,.35,0,.53v5.79l0,7.71-.06,15.42L95.28,99.9l-.23,15.42L94.82,99.9l-.14-15.43-.06-15.42,0-7.71,0-3.86V55.12A.38.38,0,0,0,94.5,55a.31.31,0,0,0-.16-.1H94l-30.84-.11-15.42-.14Z"/><rect class="cls-6" x="35.56" y="80.21" width="8.4" height="7.39"/><rect class="cls-2" x="46.31" y="80.21" width="8.4" height="7.39"/><rect class="cls-6" x="57.06" y="80.21" width="8.4" height="7.39"/><rect class="cls-2" x="67.81" y="80.21" width="8.4" height="7.39"/><rect class="cls-2" x="78.56" y="80.21" width="8.4" height="7.39"/><rect class="cls-7" x="35.56" y="61.81" width="51.4" height="14.75" rx="0.91" ry="0.91"/><rect class="cls-8" x="37.68" y="61.81" width="3.28" height="14.75"/><rect class="cls-6" x="37.68" y="74.13" width="3.28" height="2.43"/><rect class="cls-8" x="42.56" y="61.81" width="3.28" height="14.75"/><rect class="cls-9" x="42.56" y="70.39" width="3.28" height="6.17"/><rect class="cls-8" x="47.43" y="61.81" width="3.28" height="14.75"/><rect class="cls-10" x="47.43" y="69.37" width="3.28" height="7.19"/><rect class="cls-8" x="52.31" y="61.81" width="3.28" height="14.75"/><rect class="cls-6" x="52.31" y="68.59" width="3.28" height="7.97"/><rect class="cls-8" x="57.18" y="61.81" width="3.28" height="14.75"/><rect class="cls-9" x="57.18" y="69.91" width="3.28" height="6.66"/><rect class="cls-8" x="62.06" y="61.81" width="3.28" height="14.75"/><rect class="cls-10" x="62.06" y="71.62" width="3.28" height="4.94"/><rect class="cls-8" x="66.93" y="61.81" width="3.28" height="14.75"/><rect class="cls-6" x="66.93" y="70.8" width="3.28" height="5.77"/><rect class="cls-8" x="71.81" y="61.81" width="3.28" height="14.75"/><rect class="cls-9" x="71.81" y="69.29" width="3.28" height="7.27"/><rect class="cls-8" x="76.68" y="61.81" width="3.28" height="14.75"/><rect class="cls-10" x="76.68" y="71.53" width="3.28" height="5.03"/><rect class="cls-8" x="81.56" y="61.81" width="3.28" height="14.75"/><rect class="cls-6" x="81.56" y="74.13" width="3.28" height="2.43"/><rect class="cls-1" x="37.41" width="47.8" height="47.8" rx="3.82" ry="3.82"/><path class="cls-5" d="M54.7,45.33c-3.1.17-6.21.25-9.31.32-1.56.05-3.11,0-4.66.06a1.24,1.24,0,0,1-1.22-1,5.22,5.22,0,0,1,0-.65V43.5l0-2.32c0-3.11,0-6.21.1-9.32s.14-6.21.31-9.31c.17,3.1.25,6.21.32,9.31s.06,6.21.09,9.32l0,2.32v.59c0,.17,0,.44,0,.5a.46.46,0,0,0,.47.37c1.55,0,3.1,0,4.66.06C48.49,45.08,51.6,45.16,54.7,45.33Z"/><path class="cls-5" d="M40.71,2.46l10.46-.2,10.46-.11c3.49,0,7,0,10.47-.06l5.23,0h4.58a1.22,1.22,0,0,1,.88.36,1.25,1.25,0,0,1,.36.88v9.81c0,3.49,0,7-.06,10.46L82.94,34l-.2,10.46L82.54,34l-.11-10.47c-.05-3.49,0-7-.06-10.46l0-5.24V3.3a.41.41,0,0,0-.12-.3.43.43,0,0,0-.3-.13H72.1c-3.49,0-7,0-10.47-.06L51.17,2.66Z"/><rect class="cls-2" x="45.01" y="47.8" width="32.59" height="3.71"/><rect class="cls-3" x="85.21" y="21.47" width="12.86" height="1.6"/><path class="cls-3" d="M95.72,22.27a2.35,2.35,0,1,1,2.35,2.35A2.35,2.35,0,0,1,95.72,22.27Z"/><path class="cls-3" d="M85.21,17.62v9.85a4.93,4.93,0,0,0,0-9.85Z"/><rect class="cls-3" x="24.54" y="21.47" width="12.86" height="1.6" transform="translate(61.95 44.54) rotate(180)"/><path class="cls-3" d="M26.89,22.27a2.35,2.35,0,1,0-2.35,2.35A2.35,2.35,0,0,0,26.89,22.27Z"/><path class="cls-3" d="M37.41,17.62v9.85a4.93,4.93,0,0,1,0-9.85Z"/><circle class="cls-6" cx="71.89" cy="16.42" r="7.54"/><path class="cls-11" d="M66.17,16.42a5.72,5.72,0,1,1,5.72,5.71A5.72,5.72,0,0,1,66.17,16.42Z"/><path class="cls-12" d="M73.4,13.7a1.16,1.16,0,1,1,1.15,1.16A1.15,1.15,0,0,1,73.4,13.7Z"/><circle class="cls-6" cx="50.88" cy="16.42" r="7.54"/><circle class="cls-11" cx="50.88" cy="16.42" r="5.72"/><path class="cls-12" d="M52.39,13.7a1.16,1.16,0,1,1,1.15,1.16A1.15,1.15,0,0,1,52.39,13.7Z"/><rect class="cls-13" x="53" y="32.34" width="16.61" height="7.05"/><line class="cls-14" x1="61.31" y1="39.39" x2="61.31" y2="32.34"/><line class="cls-14" x1="65.3" y1="39.39" x2="65.3" y2="32.34"/><line class="cls-14" x1="57.49" y1="39.39" x2="57.49" y2="32.34"/><path class="cls-15" d="M44.38,5.78s6.2-4.64,12.21,0"/><path class="cls-15" d="M65.78,5.78S72,1.14,78,5.78"/><path class="cls-1" d="M12.61,24.86H6.9V52.75a2.84,2.84,0,0,0,.74,1.91L20,68.39l4.24-3.82L12.61,51.65Z"/><path class="cls-2" d="M16.53,11.59l-3.4,3.32a4.88,4.88,0,1,1-8.37,3.41,4.82,4.82,0,0,1,1-2.91L1.91,12.56a9.64,9.64,0,1,0,17.36,5.76A9.57,9.57,0,0,0,16.53,11.59Z"/><path class="cls-2" d="M25,72.18V60.77a5.71,5.71,0,0,0,0,11.41Z"/></g></g></svg>