<svg id="Camada_1" data-name="Camada 1" xmlns="http://www.w3.org/2000/svg" xmlns:xlink="http://www.w3.org/1999/xlink" viewBox="0 0 850 511.33"><defs><style>.cls-1{fill:none;}.cls-2{clip-path:url(#clip-path);}.cls-3{fill:#eaa000;}.cls-4{fill:#6d472e;}.cls-5{fill:#eac2a7;}.cls-6{fill:#97d8dd;}.cls-7{fill:#027e8f;}.cls-8{fill:#65c4d1;}.cls-9{fill:#fff;}.cls-10{clip-path:url(#clip-path-2);}.cls-11{fill:#c9a68f;}.cls-12{fill:#d6aa8b;}.cls-13{fill:#d6d6d6;}.cls-14{fill:#c99f4b;}.cls-15{fill:#f4f4f4;}.cls-16{clip-path:url(#clip-path-3);}.cls-17{fill:#b7b7b7;}.cls-18{fill:#c99e32;}.cls-19{clip-path:url(#clip-path-4);}.cls-20{fill:#aa7e30;}.cls-21{fill:#ddd;}.cls-22{fill:#846829;}.cls-23{fill:#e8cd95;}.cls-24{fill:#6d5f56;}.cls-25{fill:#493e38;}.cls-26{fill:#fcfcfc;}.cls-27{fill:#d32222;}</style><clipPath id="clip-path"><path class="cls-1" d="M238.76-407.83c-3.19-11.52-10-24.41-26.27-30.13-65.45-23-62.87-8.05-73.7-10-5.18-.92-26.7,12-44,37.5-12.81,18.8-13.88,55.75-13.88,55.75S30.66-130.13,116.71-100.42c80.43,27.77,128.74-5,128.74-5S305.66-166,238.76-407.83Z"/></clipPath><clipPath id="clip-path-2"><path class="cls-1" d="M239.17,183.91c-3.19-11.51-10-24.4-26.27-30.12-65.45-23-62.87-8-73.7-10-5.18-.92-26.7,12-44,37.5-12.81,18.8-13.88,55.75-13.88,55.75S31.07,461.62,117.12,491.33c80.43,27.77,128.74-5.05,128.74-5.05S306.07,425.71,239.17,183.91Z"/></clipPath><clipPath id="clip-path-3"><path class="cls-1" d="M187.88,509.19c5.39,10.7,43.31,13,46.45,13.95,0,0,1-42.95-5.06-67.07S187.88,509.19,187.88,509.19Z"/></clipPath><clipPath id="clip-path-4"><path class="cls-1" d="M141.77,243c6.68,2.76.92-9.23.92-9.23s-.63-12-4-14.06a48.43,48.43,0,0,1-7.43-6.06L148.32,202l46.7-32s6.46-9-8.3-14.52a17.55,17.55,0,0,0-17.86-5.3s-6.46-7.73-15.8-.64c0,0-18.78-1.09-23.05,8.13a7,7,0,0,0-6.92,3.92s-3.92,1.5-4.66,4.67c0,0-9.51,3.74-10.09,10.08,0,0-5.19,7.26-1,13.14,0,0-2.74,5.16.81,8.71,0,0-8,8.7,0,14.12,0,0-2,5.65,9.68,7.95l3.46,7.15s3.33-1.51,12.91,8.07Z"/></clipPath></defs><title>Fala2</title><g class="cls-2"><path class="cls-3" d="M160.5-445.26a11.16,11.16,0,0,1,7.95,3.63,18.92,18.92,0,0,1,4.81-.64,17.54,17.54,0,0,1,13.05,5.94c14.34,5.38,8.65,14,8.32,14.5l.16,0s8.41,5.88,5.53,8.76c0,0,5.19,6.45,1,9.91a4.77,4.77,0,0,1-1.5.75C211.65-384,218.68-351.6,214-324.86c-.92,5.29-7,9.1-23.27,9.1h0a85.59,85.59,0,0,1-15.76-1.4c.15,1.25.33,2.6.51,4h0c.81,5.83,2,12.44,3.3,13.42,8.32,6.24,20.71,8.83,27.68,9.84l10.09.94a25.3,25.3,0,0,1,2.24,2.54h.11c3,0,5.43,3.33,5.43,3.33l39.78,69.63-34.33,61.6s11.53,19.37,5.76,28.13l8,8s1.27,4.27-4.5,4.27c-1.72,0-4.13-.91-6.68-2.17a434.2,434.2,0,0,1,1.59,45.12,43.08,43.08,0,0,0-4.64-.7l0,3h0c-.11,20.47-.05,50,1.17,56.77,1.9,10.55,0,15.73,0,15.73s5.18,82.08,5.18,82.71,7.27,10,7.27,10,9.6,7.56,17.07,13.56h0s4.5,1.17,6.26,2.64a6.1,6.1,0,0,1,1.88,3.93c.5.33,1.33.9,2.27,1.58a24.39,24.39,0,0,0,6.49,1.2c1,1,0,2.15-1.34,3,.75.79,1.2,1.49,1.07,1.94-.49,1.8-7.44,9.12-20,9.12-.71,0-1.44,0-2.18-.07-13.2-.86-31.5-14.93-33-18.85a11.64,11.64,0,0,1,.19-7.89c0-3.34,2-7.34,3.13-9.34,1.73-3.11,2.94-11.93,2.94-11.93-19-66.75-8.13-76.14-10.2-81C216.12,3.7,204.37-40,196-71.42h0l0-.14c-.48-1.82-1-3.6-1.42-5.32a22.5,22.5,0,0,1-4.34-2.57,135.4,135.4,0,0,1-22.82,9l-2.42,6.05L142.28-7.52S138,8.31,132.88,13.41a224.67,224.67,0,0,1-12.62,36.48c-8.64,19.37-12.45,46-12.45,46s6.2,15.73,6.92,25.56c7.29,10,13.83,22.28,5.15,25.91A49.77,49.77,0,0,1,101,150.68c-10.46,0-19.84-2.46-22-4.64-3.51-3.52,6.47-30.15,6.47-30.15.31-2.42,1-4.75,2.39-5.74,3.46-2.42,7.61-8.3,7.61-8.3s-1.3-3.46,2.33-8.13,9-34.61,9-38.53S101.93,22,118.07,10.47c0,0,1.85-37.44,6.58-64.52h0c.51-3.07,1.07-6,1.68-8.74-5,.41-7.93.47-7.93.47s4.79-13.36,10.91-30.54c-5.22-.5-1.79-8.6-1.79-8.6a43.68,43.68,0,0,0,6.14-3.61q1-2.81,2-5.63c-1.73-4.26,2.58-17.51,2.58-17.51L122.4-140.16,76.34-174.89s37-87.26,38.5-88.76c1-1,8.12-5.16,13-8,5.16-5.15,16.23-9.24,16.23-9.24s10.55-11.93,12.8-14.17,1.21-8.48,1.21-8.48l-5.77-22.18c-10.21-6.41-14.23-13.55-14.23-13.55a5.12,5.12,0,0,1-3.76,1.51c-3.36,0-6.73-2.55-6.73-2.55s-14.64-14.64-10-21.55a4.34,4.34,0,0,1,3.8-2.1c3,0,6.61,2.49,9.14,4.62-5.2-4.53-8-5.15-9.1-5.15l-.35,0-.09.07-.07,0-.1,0,0-.11c-1.09-.55-6-3.24-6.42-7.79-8.27-2.59-6.67-7.2-6.67-7.2-8-5.42,0-14.12,0-14.12-3.55-3.55-.81-8.71-.81-8.71-4.15-5.87,1-13.14,1-13.14.57-6.34,10.08-10.08,10.08-10.08.75-3.17,4.67-4.67,4.67-4.67a6.94,6.94,0,0,1,6.39-3.95,4,4,0,0,1,.53,0c3.45-7.45,16.38-8.17,21.21-8.17,1.15,0,1.84,0,1.84,0a12.92,12.92,0,0,1,7.85-3m65,272.39,21.34-38.48-20.29-30.18c.54,8.67.87,17.57.78,25.95a338.19,338.19,0,0,1-3,40.92,2.84,2.84,0,0,1,1.17,1.79m-78,28.67c2.06-5.9,3.86-11.07,5.21-15-2.14-4.29,1.21-6.21,2.22-6.68.11-.38.21-.69.27-.92,2.08-7.61-17.46-44.93-17.46-44.93l-16.5-10.34L98.1-178.6l37,25.76,12.41,8.64M267.57,118.61h0M160.5-450.63h0a17.47,17.47,0,0,0-9.47,3h-.22c-6.95,0-18.65,1.17-24.31,8.39a12.05,12.05,0,0,0-7.62,5,13.57,13.57,0,0,0-5,4.74c-3.43,1.75-9.7,5.73-11.09,12.13-2.19,3.63-4.23,9.77-1.8,15.53a13.15,13.15,0,0,0,.26,8.08,16,16,0,0,0-2.4,9.7,12,12,0,0,0,3.45,7.11,10,10,0,0,0,.94,2.82,13.21,13.21,0,0,0,6.62,5.92,14.22,14.22,0,0,0,2.76,4.27c-2.61,4.77-1.32,11,3.81,18.54a68.59,68.59,0,0,0,7.39,9l.56.49c.8.61,5.06,3.63,10,3.63a12,12,0,0,0,2-.17,53.91,53.91,0,0,0,11.32,10.2l5.18,19.92a12.29,12.29,0,0,1,0,3.88c-2.34,2.42-9.3,10.25-11.87,13.15-3.25,1.3-11.37,4.82-16.32,9.45-12,6.91-13,7.88-13.6,8.53-1,1-1.66,1.66-21,46.62C80.77-199.06,71.5-177.2,71.41-177l1.7,6.38,46.06,34.73,12.86,9.7c-1.34,4.77-2.59,10.81-1.95,15.15l-.89,2.52a42.38,42.38,0,0,1-4,2.2l-2.64,2.75c-.73,1.72-2.9,7.66-.26,12.09a8,8,0,0,0,.52.77c-5.43,15.22-9.5,26.57-9.5,26.57L118.5-57l1.21,0c-.12.68-.24,1.37-.35,2.07h0c-4.09,23.43-6,53.9-6.51,62.7C98.5,20.31,100.56,44.85,101.26,53.16c.07.82.15,1.76.15,2-.06,4.36-5.38,31.47-7.89,35.26a16.12,16.12,0,0,0-3.66,9.92,30.61,30.61,0,0,1-5.09,5.38c-2.42,1.69-3.91,4.58-4.55,8.82-.66,1.78-2.71,7.48-4.47,13.58-3.64,12.56-3.79,18.44-.56,21.67C79.27,153.91,91.27,156,101,156A54.87,54.87,0,0,0,122,152.3a11.49,11.49,0,0,0,7-7.64c1.71-6.14-1.15-14.17-9-25.18-1-8.73-5.12-20.23-6.6-24.18.89-5.56,4.68-27.2,11.83-43.22A233,233,0,0,0,137.78,16c5.06-6.2,8.7-18.54,9.59-21.78l22.55-56.55L171.39-66a142.75,142.75,0,0,0,18.42-7.25l.14.08.81,3,0,.08v0C209-2,211.65,6.66,212.35,8.49c0,.49-.2,1.48-.34,2.29-1.3,7.82-4.34,26,10.16,77.34-.56,3.54-1.5,7.78-2.16,9-2.29,4.13-3.56,7.81-3.77,11a16.61,16.61,0,0,0,.13,10.8c1.94,5.1,12.19,11.86,14.22,13.17,4.92,3.15,14.49,8.53,23.43,9.11.84.06,1.69.09,2.53.09,14.4,0,23.91-8.39,25.19-13.08a6.12,6.12,0,0,0,.15-2.49,6.6,6.6,0,0,0,.69-2.37,6.51,6.51,0,0,0-2-5.33l-3.56-1.56a20.86,20.86,0,0,1-4.23-.67,10.47,10.47,0,0,0-3.2-4.8,21.77,21.77,0,0,0-7.19-3.4c-6.27-5-13.74-10.91-15.75-12.49-2.24-2.9-4.74-6.21-5.82-7.77-.25-4.25-1.23-20.1-5.05-80.54.59-2.44,1.49-8.21-.14-17.25-.84-4.69-1.23-24.56-1.08-54.6l4.68-3.35c0-.84.41-18.56-.94-37.73.23,0,.45,0,.67,0,4.67,0,7.11-2,8.34-3.61a8.72,8.72,0,0,0,1.3-7.54l-1.35-2.27-5.4-5.4c1.27-4.72.6-10.73-2-17.94a75.93,75.93,0,0,0-4-8.92l32.89-59,0-5.27L229-285.8l-.3-.48a14.27,14.27,0,0,0-7.06-5.17c-.41-.45-.83-.9-1.28-1.35l-3.3-1.55-9.95-.93c-6.05-.88-16.92-3.1-24.3-8.22a50.89,50.89,0,0,1-1.55-7.36c3.1.31,6.27.46,9.49.46,6.5,0,26.22,0,28.57-13.54,4.31-24.82-.94-56.42-12.53-77.29,2.49-3.78,1.72-8.59-.53-12.59a8.45,8.45,0,0,0,0-1.33c-.28-3.28-2.71-6.27-5.16-8.49a12.76,12.76,0,0,0-.29-6.57c-1.42-4.52-5.23-8.1-11.34-10.64a23.16,23.16,0,0,0-16.2-6.78,23.9,23.9,0,0,0-3.25.23,16,16,0,0,0-9.51-3.23Zm71.37,255.24c.42-6,.76-12.84.84-20.13q0-3.48,0-7.29l7.89,11.72-8.71,15.7Zm-126.8,15.11,18.19-34.21,10.38,6.5c1.43,2.79,5,9.77,8.37,17.31,6.36,14,7.67,19.69,7.92,21.69a9.84,9.84,0,0,0-2.77,4.05,9.62,9.62,0,0,0-.16,5.79q-1,2.85-2.25,6.51l-6.61-4.6-33.07-23Z"/><path class="cls-4" d="M221.57,109a11.64,11.64,0,0,0-.19,7.89c1.49,3.92,19.79,18,33,18.85,13.94.91,21.67-7.15,22.19-9.05s-9-8.11-9-8.11Z"/><path class="cls-4" d="M85.45,115.89S75.47,142.52,79,146s25.61,7.71,40.9,1.31-16.69-39.76-16.69-39.76Z"/><path class="cls-5" d="M175.59-91,142.28-7.52S138,8.31,132.88,13.41a224.67,224.67,0,0,1-12.62,36.48c-8.64,19.37-12.45,46-12.45,46s7.87,20,6.92,29c0,0,7.52,10.37,4.49,16.34s-14.87,2.42-14.87,2.42-19.79,2.59-22.73-2.34,3.71-18.15,3.71-18.15-1-10.55,2.51-13,7.61-8.3,7.61-8.3-1.3-3.46,2.33-8.13,9-34.61,9-38.53S101.93,22,118.07,10.47c0,0,3.92-79.54,15-90.61s42.53-17.63,42.53-17.63Z"/><path class="cls-5" d="M187.47-103.42s27.89,105.36,30,110.2-8.82,14.23,10.2,81c0,0-1.21,8.82-2.94,11.93S219,110.75,224,113.52s21.27,16.6,28.18,17.81,19.89-4.84,19.89-4.84,6.91-2.59,4.75-4.76c0,0-6.31-.25-8.38-2.33s-25.59-20.58-25.59-20.58-7.27-9.33-7.27-10-5.18-82.71-5.18-82.71,1.9-5.18,0-15.73-1-77-1-77Z"/><path class="cls-4" d="M80.28,136.2s19.8-8.47,39.6-2a8.68,8.68,0,0,0-1.47-4.84c-1.64-2.59-26.46-6.57-37,2.12C81.41,131.49,79.16,134.73,80.28,136.2Z"/><path class="cls-4" d="M247.71,129.61s.77-17.44,19.86-11l.51.43a6.19,6.19,0,0,0-1.89-4c-1.76-1.47-6.26-2.64-6.26-2.64s-17.48-4.31-17.22,14.27C242.71,126.65,245.43,130.48,247.71,129.61Z"/></g><path class="cls-3" d="M177.91,159.48c93.46.11,169.21,76.65,169.31,171.09s-75.8,171.1-169.31,171.1S8.59,425.07,8.59,330.57s75.8-171.09,169.32-171.09m0-8h0a174.65,174.65,0,0,0-69,14.09,178.77,178.77,0,0,0-94.34,95.32,180.14,180.14,0,0,0,38,196.29,176.74,176.74,0,0,0,56.37,38.4,176.24,176.24,0,0,0,138.1,0,176.81,176.81,0,0,0,56.36-38.4,179.73,179.73,0,0,0-56.39-291.56,175.07,175.07,0,0,0-69-14.14Z"/><path class="cls-6" d="M177.9,159.48c-93.51,0-169.31,76.6-169.31,171.09s75.8,171.1,169.31,171.1,169.32-76.6,169.32-171.1S271.37,159.59,177.9,159.48Zm0,330.78c-87.27,0-158-71.49-158-159.69s70.75-159.68,158-159.68,158,71.49,158,159.68S265.14,490.16,177.9,490.26Z"/><path class="cls-6" d="M257.81,206.29a5.54,5.54,0,0,0-4.25-.8A5.64,5.64,0,0,0,250,208l-9.23,14.35a5.73,5.73,0,0,0,1.79,8,76.27,76.27,0,0,1,6.33,4.56c1.27,1,2.54,2,3.53,2.66,1.75,1.46,3.44,3,5.11,4.55l-3.9,3.94a112.2,112.2,0,0,0-24.74-17.12l11.54-26.16a5.75,5.75,0,0,0,.11-4.37,5.67,5.67,0,0,0-3-3.17,146.29,146.29,0,0,0-52-12.51,5.55,5.55,0,0,0-4.08,1.45,5.69,5.69,0,0,0-1.85,3.95l-.87,17.08a5.68,5.68,0,0,0,5.33,6l5.94.3,6.33,1c.81.14,1.63.26,2.44.38,1.22.17,2.44.35,3.51.6l.78.2-1.48,5.58a114.12,114.12,0,0,0-29.89-2.44l-2.93-28.54a5.68,5.68,0,0,0-2.06-3.84,5.57,5.57,0,0,0-4.15-1.24,144.11,144.11,0,0,0-51.28,15.44,5.73,5.73,0,0,0-2.45,7.67l7.7,15.23A5.63,5.63,0,0,0,124,224c1.13-.53,2.25-1.09,3.38-1.65a58.2,58.2,0,0,1,8.07-3.5l1.44-.54c1.7-.64,3.34-1.26,5-1.81l1.46,5.52c-1.39.48-2.74,1-4.08,1.48l-1.34.52a52.9,52.9,0,0,0-8,3.43c-1,.48-1.93,1-3.39,1.67l-9.57,5.56-.65.37L99.6,212a5.67,5.67,0,0,0-3.69-2.28,5.58,5.58,0,0,0-4.2,1,147.86,147.86,0,0,0-36.8,39.11,5.73,5.73,0,0,0,1.65,7.9l14.19,9.33a5.62,5.62,0,0,0,7.9-1.81,75.31,75.31,0,0,1,4.49-6.38c1-1.3,2-2.59,2.66-3.6,1.44-1.76,3-3.46,4.5-5.16l3.9,3.95a113.64,113.64,0,0,0-17,25L51.36,267.39a5.62,5.62,0,0,0-7.45,2.89,150.37,150.37,0,0,0-12.39,52.56,5.69,5.69,0,0,0,5.35,6l16.91.88a5.64,5.64,0,0,0,5.92-5.39l.3-6,1-6.39c.15-.83.26-1.65.38-2.48.18-1.23.35-2.47.59-3.54l.19-.78,5.54,1.49a116.91,116.91,0,0,0-2.43,30.2l-28.24,3a5.58,5.58,0,0,0-3.79,2.08A5.68,5.68,0,0,0,32,346.05a149.58,149.58,0,0,0,15.28,51.82,5.58,5.58,0,0,0,7.59,2.48l15.07-7.77a5.74,5.74,0,0,0,2.56-7.48c-.52-1.13-1.07-2.25-1.61-3.37a60.45,60.45,0,0,1-3.49-8.2l-.55-1.5c-.63-1.7-1.23-3.35-1.77-5l5.53-1.49a113.09,113.09,0,0,0,12.89,27.29L60.54,409.7a5.73,5.73,0,0,0-1.24,8A147.36,147.36,0,0,0,98,454.86a5.61,5.61,0,0,0,7.81-1.67L115,438.85a5.73,5.73,0,0,0-1.79-8,76.27,76.27,0,0,1-6.33-4.56c-1.27-1-2.54-2-3.53-2.66-1.75-1.46-3.44-3-5.11-4.55l4-4c1.51,1.39,3.06,2.8,4.94,4.36,1.1.78,2.17,1.61,3.24,2.44a67.54,67.54,0,0,0,6.29,4.47l10.08,5.85.12.06-11.56,26.19a5.75,5.75,0,0,0-.11,4.37,5.62,5.62,0,0,0,3,3.16,146.3,146.3,0,0,0,52,12.52h.29a5.67,5.67,0,0,0,5.63-5.41l.88-17.08a5.68,5.68,0,0,0-5.33-6l-5.94-.31-6.33-1c-.81-.14-1.63-.26-2.44-.38-1.22-.18-2.44-.35-3.51-.6l-.78-.2L154.2,442a114.16,114.16,0,0,0,29.89,2.45L187,473a5.74,5.74,0,0,0,2.06,3.84,5.62,5.62,0,0,0,4.15,1.24,144.31,144.31,0,0,0,51.28-15.44,5.74,5.74,0,0,0,2.46-7.67l-7.71-15.24a5.62,5.62,0,0,0-7.39-2.58c-1.14.53-2.26,1.09-3.39,1.65a58.08,58.08,0,0,1-8.06,3.5l-1.44.54c-1.7.64-3.35,1.26-5,1.81L212.51,439a111.13,111.13,0,0,0,27-13l16.69,23.17a5.61,5.61,0,0,0,7.88,1.26,148.06,148.06,0,0,0,36.81-39.11,5.8,5.8,0,0,0,.79-4.3,5.68,5.68,0,0,0-2.45-3.6l-14.19-9.33a5.62,5.62,0,0,0-7.9,1.81,71,71,0,0,1-4.49,6.38c-1,1.3-2,2.59-2.65,3.6-1.45,1.76-3,3.46-4.51,5.16l-3.9-4a113.64,113.64,0,0,0,16.95-25l25.89,11.67a5.63,5.63,0,0,0,7.45-2.89,150.32,150.32,0,0,0,12.39-52.57,5.69,5.69,0,0,0-5.35-6L302,331.44a5.7,5.7,0,0,0-5.92,5.39l-.3,6-1,6.39c-.15.83-.26,1.65-.38,2.48-.18,1.23-.35,2.47-.59,3.54l-.2.78-5.44-1.47,0-.13c.3-1.33.5-2.69.68-4,.09-.64.18-1.27.3-2l.86-5.61a5.7,5.7,0,0,0,.06-.58l.3-6V324.6l0-.26,28.35-3a5.6,5.6,0,0,0,3.8-2.08,5.77,5.77,0,0,0,1.23-4.18,150.13,150.13,0,0,0-15.28-51.83A5.61,5.61,0,0,0,301,260.8l-15.08,7.77a5.73,5.73,0,0,0-2.55,7.48c.52,1.13,1.06,2.25,1.6,3.37a58,58,0,0,1,3.49,8.2l.55,1.5c.63,1.7,1.24,3.35,1.78,5l-5.53,1.49a113.47,113.47,0,0,0-12.89-27.29l22.93-16.86a5.73,5.73,0,0,0,1.24-8A147.36,147.36,0,0,0,257.81,206.29Zm3.44,56.07a5.74,5.74,0,0,0-1.24,8A102.33,102.33,0,0,1,275.92,304a5.66,5.66,0,0,0,6.9,4l16.36-4.42a5.72,5.72,0,0,0,4.07-6.7,83.48,83.48,0,0,0-3.69-11.79l-.45-1.22a58.43,58.43,0,0,0-3.16-7.74l5-2.59a139.24,139.24,0,0,1,10.93,37l-28,2.93a5.68,5.68,0,0,0-5,6l.28,5.53V336l-.28,5.37-.8,5.24c-.13.74-.23,1.49-.34,2.24-.14,1-.27,2-.46,2.87l-1.41,5.49a5.71,5.71,0,0,0,4,6.94l16.36,4.42a5.64,5.64,0,0,0,6.92-4.09l1.66-6.5c.35-1.52.57-3.07.79-4.62.11-.73.21-1.46.35-2.28l1-7,.05-.88,5.54.29A139.33,139.33,0,0,1,303.77,381L278.11,369.4a5.54,5.54,0,0,0-4.32-.11,5.69,5.69,0,0,0-3.14,3,102.26,102.26,0,0,1-20.92,30.87,5.76,5.76,0,0,0,0,8.06l12,12.1a5.5,5.5,0,0,0,4.15,1.66,5.55,5.55,0,0,0,4.05-1.91q1.51-1.71,3.06-3.4c2-2.14,3.91-4.3,6-6.86.86-1.22,1.77-2.42,2.67-3.61.63-.83,1.27-1.67,1.89-2.52l4.74,3.11a136.05,136.05,0,0,1-26.3,28l-16.55-23a5.59,5.59,0,0,0-7.88-1.25,100.11,100.11,0,0,1-33.35,16.07,5.68,5.68,0,0,0-3.43,2.66,5.74,5.74,0,0,0-.56,4.33l4.37,16.53a5.65,5.65,0,0,0,6.64,4.1,81.25,81.25,0,0,0,11.7-3.74l1.17-.44a57.49,57.49,0,0,0,7.65-3.2l2.57,5.09a135.64,135.64,0,0,1-36.64,11l-2.9-28.24a5.67,5.67,0,0,0-2-3.84,5.56,5.56,0,0,0-4.13-1.24,102.62,102.62,0,0,1-37-3,5.58,5.58,0,0,0-4.28.57,5.67,5.67,0,0,0-2.63,3.46l-4.38,16.53a5.75,5.75,0,0,0,.58,4.35,5.64,5.64,0,0,0,3.47,2.65l6.43,1.66c1.51.36,3,.59,4.58.81.72.11,1.43.21,2.24.35l7,1.05.87,0-.29,5.6A135.3,135.3,0,0,1,128,457.76l11.44-25.92a5.72,5.72,0,0,0-2.7-7.46l-4.69-2.27-9.63-5.59a58,58,0,0,1-5.13-3.7c-1.2-.93-2.4-1.86-3.28-2.45-1.63-1.36-3.18-2.81-4.74-4.25-1.16-1.08-2.33-2.16-3.52-3.22a5.6,5.6,0,0,0-7.7.27l-12,12.09a5.74,5.74,0,0,0,.23,8.3c1.12,1,2.22,2,3.32,3,2.15,2,4.29,4,6.84,6.09,1.21.87,2.38,1.78,3.56,2.69q1.23,1,2.52,1.92l-3.09,4.79a135.59,135.59,0,0,1-27.66-26.58L94.56,398.8a5.74,5.74,0,0,0,1.25-8,102.31,102.31,0,0,1-15.92-33.69,5.64,5.64,0,0,0-6.9-4l-16.36,4.42a5.7,5.7,0,0,0-4.06,6.7A83.44,83.44,0,0,0,56.25,376l.45,1.21A60,60,0,0,0,59.86,385l-5,2.59a138.68,138.68,0,0,1-10.93-37l27.94-2.93a5.69,5.69,0,0,0,5-6.23,105.67,105.67,0,0,1,3-37.35,5.74,5.74,0,0,0-.56-4.33A5.63,5.63,0,0,0,75.9,297l-16.36-4.42a5.61,5.61,0,0,0-4.31.59,5.67,5.67,0,0,0-2.62,3.5L51,303.21c-.35,1.52-.57,3.07-.79,4.62-.11.73-.21,1.45-.34,2.28l-1,7,0,.87-5.54-.28A139.33,139.33,0,0,1,52,280.19L77.7,291.75a5.54,5.54,0,0,0,4.32.11,5.64,5.64,0,0,0,3.13-3A102.29,102.29,0,0,1,106.08,258a5.77,5.77,0,0,0,0-8.06l-12-12.1a5.6,5.6,0,0,0-8.2.25q-1.52,1.71-3.06,3.4c-2,2.14-3.91,4.3-6,6.86-.86,1.22-1.77,2.42-2.67,3.61-.63.83-1.27,1.66-1.89,2.52l-4.74-3.11a136.05,136.05,0,0,1,26.3-28l16.55,23a5.6,5.6,0,0,0,7.89,1.25l1.31-1a19.54,19.54,0,0,1,2.77-1.92l9.23-5.4c1.09-.5,2.16-1,3.24-1.57a45,45,0,0,1,6.61-2.86l1.68-.63a57.49,57.49,0,0,1,8.17-2.61A5.68,5.68,0,0,0,155,229a5.8,5.8,0,0,0,.65-4.47L151.24,208a5.64,5.64,0,0,0-6.63-4.11,83.06,83.06,0,0,0-11.71,3.74l-1.16.44a56.94,56.94,0,0,0-7.65,3.2l-2.57-5.08a135.55,135.55,0,0,1,36.64-11.05l2.89,28.24a5.71,5.71,0,0,0,2,3.84,5.59,5.59,0,0,0,4.13,1.25,102.65,102.65,0,0,1,37,3,5.63,5.63,0,0,0,4.28-.57,5.76,5.76,0,0,0,2.63-3.47L215.46,211a5.74,5.74,0,0,0-.57-4.35,5.68,5.68,0,0,0-3.47-2.65L205,202.31c-1.52-.36-3.05-.59-4.59-.81-.72-.11-1.43-.21-2.24-.35l-7-1.05-.87,0,.29-5.6a135.3,135.3,0,0,1,37.16,8.93l-11.44,25.93a5.75,5.75,0,0,0-.11,4.37,5.64,5.64,0,0,0,3,3.16A101.36,101.36,0,0,1,249.75,258a5.61,5.61,0,0,0,8,0l12-12.1a5.73,5.73,0,0,0-.23-8.29c-1.12-1-2.22-2-3.32-3-2.15-2-4.29-4-6.84-6.09-1.21-.87-2.38-1.78-3.56-2.68-.82-.64-1.66-1.29-2.52-1.93l3.09-4.79A136.12,136.12,0,0,1,284,245.64Z"/><path class="cls-6" d="M177.9,239.32a90,90,0,0,0-78.35,45.77,91.91,91.91,0,0,0,.48,91.46,5.58,5.58,0,0,0,.35.58,91.66,91.66,0,0,0,23,26c.15.1.23.25.39.34l.12,0a88.88,88.88,0,0,0,108,0,.84.84,0,0,1,.14-.06,4.32,4.32,0,0,0,.39-.34,91.51,91.51,0,0,0,23-26,4.25,4.25,0,0,0,.35-.58,91.89,91.89,0,0,0,.48-91.46A90,90,0,0,0,177.9,239.32Zm-10.17,12.15L105.08,361.56a80.52,80.52,0,0,1,4.32-70.74A78.92,78.92,0,0,1,167.73,251.47ZM134,396.94l43.86-77.06,43.87,77.05a78.09,78.09,0,0,1-87.73,0Zm96.69-7.15L185.25,309.9a8.43,8.43,0,0,0-14.69,0l-45.48,79.88a79.94,79.94,0,0,1-13.73-16.34l66.56-117,12.91,22.63a4.66,4.66,0,0,0,.25.5l53.39,93.86a80.26,80.26,0,0,1-13.73,16.34Zm20-28.23-49.6-87.21c-.08-.17-.17-.35-.27-.52L188.1,251.48a78.88,78.88,0,0,1,58.31,39.35,80.53,80.53,0,0,1,4.32,70.73Z"/><path class="cls-7" d="M596.76,34.83c-131.17,0-239,88.61-251.43,202l-74.67,29.74s-4.88,1.8-4.39,8.8a9.53,9.53,0,0,0,5.58,8.17L350,307C374.9,407.44,475.92,482.64,596.76,482.64c139.54,0,252.65-100.24,252.65-223.9S736.3,34.83,596.76,34.83Z"/><path class="cls-8" d="M596.73,1.67c-131.18,0-239,88.6-251.44,202l-74.67,29.74s-4.88,1.8-4.39,8.8a9.53,9.53,0,0,0,5.58,8.17L350,273.8c24.89,100.47,125.91,175.67,246.76,175.67,139.53,0,252.64-100.24,252.64-223.9S736.26,1.67,596.73,1.67Z"/><path class="cls-9" d="M417.84,182.83a5.78,5.78,0,0,1,4.11,1.36,5.23,5.23,0,0,1,0,7.25,5.78,5.78,0,0,1-4.11,1.36H414v5.91l1.89.15v1h-5.16v-1l1.89-.15V184l-1.89-.15v-1h7.12ZM414,191.61h3.85a4.2,4.2,0,0,0,3.14-1.08,3.69,3.69,0,0,0,1-2.7,3.75,3.75,0,0,0-1-2.72,4.17,4.17,0,0,0-3.14-1.09H414Z"/><path class="cls-9" d="M434.35,199.89c-.09-.43-.15-.8-.19-1.11a7.46,7.46,0,0,1-.06-.95,5.53,5.53,0,0,1-1.86,1.65,5.16,5.16,0,0,1-2.6.66,4,4,0,0,1-2.86-1,3.43,3.43,0,0,1-1-2.6,3.2,3.2,0,0,1,1.5-2.79,7,7,0,0,1,4.06-1h2.77v-1.68a2.71,2.71,0,0,0-.86-2.13,3.5,3.5,0,0,0-2.42-.78,6.07,6.07,0,0,0-1.91.29,4.13,4.13,0,0,0-1.44.78l-.12,1.7H426.2V188.5a7.26,7.26,0,0,1,2.09-1.1,7.76,7.76,0,0,1,2.58-.42,5,5,0,0,1,3.34,1.06,3.8,3.8,0,0,1,1.26,3.06v6.24c0,.25,0,.5,0,.74a5.35,5.35,0,0,0,.07.7l1.25.08v1Zm-4.56-1a5,5,0,0,0,2.65-.71,4.12,4.12,0,0,0,1.66-1.81v-2.55h-2.79a5.25,5.25,0,0,0-3,.79,2.38,2.38,0,0,0-1.13,2,2.14,2.14,0,0,0,.7,1.65A2.81,2.81,0,0,0,429.79,198.9Z"/><path class="cls-9" d="M441.8,187.21l.17,2.11v.15a4.47,4.47,0,0,1,1.46-1.83,3.64,3.64,0,0,1,2.19-.66,2.85,2.85,0,0,1,.51,0l.41.09-.18,1.31-1-.07a3.16,3.16,0,0,0-2.16.74,4.14,4.14,0,0,0-1.2,2v7.57l1.89.15v1H438.7v-1l1.89-.15v-10.3l-1.89-.15v-1h3.1Z"/><path class="cls-9" d="M453.65,200.14a5,5,0,0,1-3.92-1.75,6.51,6.51,0,0,1-1.55-4.46v-.65a6.63,6.63,0,0,1,1.55-4.51,4.79,4.79,0,0,1,3.74-1.79,4.63,4.63,0,0,1,3.63,1.47,5.71,5.71,0,0,1,1.32,3.94v1.2h-8.86v.34a5.67,5.67,0,0,0,1.13,3.58,3.58,3.58,0,0,0,3,1.44,6.09,6.09,0,0,0,2.21-.36,4.32,4.32,0,0,0,1.56-1l.59,1a4.93,4.93,0,0,1-1.78,1.19A6.89,6.89,0,0,1,453.65,200.14Zm-.18-12a3.32,3.32,0,0,0-2.58,1.19,5.18,5.18,0,0,0-1.23,3l0,.06H457v-.35a4.07,4.07,0,0,0-1-2.76A3.28,3.28,0,0,0,453.47,188.17Z"/><path class="cls-9" d="M466.26,199a3.91,3.91,0,0,0,2.43-.79,2.61,2.61,0,0,0,1.06-2.22H471l0,.07a3.48,3.48,0,0,1-1.38,2.94,5.17,5.17,0,0,1-3.36,1.19,4.75,4.75,0,0,1-4-1.78,7.15,7.15,0,0,1-1.4-4.56v-.49a7.16,7.16,0,0,1,1.4-4.55,4.74,4.74,0,0,1,3.95-1.78,6.26,6.26,0,0,1,2.65.55,5.21,5.21,0,0,1,2,1.5l.06,2.76h-1.18l-.22-2.25a4.06,4.06,0,0,0-1.39-1,4.67,4.67,0,0,0-1.88-.37,3.35,3.35,0,0,0-3,1.46,6.48,6.48,0,0,0-1,3.68v.49a6.51,6.51,0,0,0,1,3.7A3.33,3.33,0,0,0,466.26,199Z"/><path class="cls-9" d="M479.12,200.14a5,5,0,0,1-3.92-1.75,6.46,6.46,0,0,1-1.55-4.46v-.65a6.67,6.67,0,0,1,1.54-4.51,4.8,4.8,0,0,1,3.74-1.79,4.63,4.63,0,0,1,3.63,1.47,5.66,5.66,0,0,1,1.33,3.94v1.2H475v.34a5.61,5.61,0,0,0,1.13,3.58,3.58,3.58,0,0,0,3,1.44,6,6,0,0,0,2.2-.36,4.36,4.36,0,0,0,1.57-1l.59,1a5,5,0,0,1-1.79,1.19A6.8,6.8,0,0,1,479.12,200.14Zm-.19-12a3.32,3.32,0,0,0-2.58,1.19,5.17,5.17,0,0,0-1.22,3l0,.06h7.36v-.35a4,4,0,0,0-1-2.76A3.25,3.25,0,0,0,478.93,188.17Z"/><path class="cls-9" d="M492.14,193.66a8.38,8.38,0,0,1,1.27-4.86A4.1,4.1,0,0,1,497,187a4.51,4.51,0,0,1,2.25.54,4.61,4.61,0,0,1,1.6,1.57l.14-1.88h1.21v16.36l1.89.15v1.05h-5.17v-1.05l1.89-.15v-5.34a4.36,4.36,0,0,1-1.6,1.42,5,5,0,0,1-2.24.49,4.16,4.16,0,0,1-3.52-1.7,7.45,7.45,0,0,1-1.27-4.54Zm1.41.24a6.58,6.58,0,0,0,.91,3.68A3,3,0,0,0,497.2,199a3.83,3.83,0,0,0,2.19-.59,3.92,3.92,0,0,0,1.38-1.62v-6.19a4.55,4.55,0,0,0-1.35-1.71,3.51,3.51,0,0,0-2.2-.67,3,3,0,0,0-2.75,1.53,7.54,7.54,0,0,0-.92,4Z"/><path class="cls-9" d="M514.63,197.81a4.27,4.27,0,0,1-1.62,1.72,4.69,4.69,0,0,1-2.41.61,3.83,3.83,0,0,1-3.11-1.36,6.61,6.61,0,0,1-1.12-4.22v-6.15l-1.55-.15v-1h2.93v7.37a5.5,5.5,0,0,0,.79,3.33,2.65,2.65,0,0,0,2.22,1,4.13,4.13,0,0,0,2.51-.7,3.71,3.71,0,0,0,1.31-1.95v-7.86l-1.78-.15v-1H516v11.5l1.68.15v1h-2.9Z"/><path class="cls-9" d="M525.23,200.14a5,5,0,0,1-3.92-1.75,6.51,6.51,0,0,1-1.55-4.46v-.65a6.63,6.63,0,0,1,1.55-4.51,4.77,4.77,0,0,1,3.74-1.79,4.66,4.66,0,0,1,3.63,1.47,5.71,5.71,0,0,1,1.32,3.94v1.2h-8.86v.34a5.61,5.61,0,0,0,1.13,3.58,3.58,3.58,0,0,0,3,1.44,6.09,6.09,0,0,0,2.21-.36,4.32,4.32,0,0,0,1.56-1l.59,1a5,5,0,0,1-1.78,1.19A6.89,6.89,0,0,1,525.23,200.14Zm-.18-12a3.31,3.31,0,0,0-2.58,1.19,5.18,5.18,0,0,0-1.23,3l0,.06h7.35v-.35a4,4,0,0,0-1-2.76A3.24,3.24,0,0,0,525.05,188.17Z"/><path class="cls-9" d="M541.9,188.26l-1.57.11,3.13,8.35.41,1.48h.07l.44-1.48,3.08-8.35-1.56-.11v-1h4.22v1l-1.23.1-4.43,11.53h-1.11l-4.45-11.53-1.22-.1v-1h4.22Z"/><path class="cls-9" d="M551.48,193.36a6.83,6.83,0,0,1,1.52-4.59,5.43,5.43,0,0,1,8.06,0,6.88,6.88,0,0,1,1.51,4.59v.39a6.85,6.85,0,0,1-1.51,4.6,5.43,5.43,0,0,1-8.06,0,6.81,6.81,0,0,1-1.52-4.6Zm1.39.39a6,6,0,0,0,1.1,3.7,3.86,3.86,0,0,0,6.11,0,6,6,0,0,0,1.1-3.7v-.39a6.12,6.12,0,0,0-1.1-3.68,3.85,3.85,0,0,0-6.11,0,6.06,6.06,0,0,0-1.1,3.68Z"/><path class="cls-9" d="M574.06,197.81a4.41,4.41,0,0,1-1.62,1.72,4.73,4.73,0,0,1-2.42.61,3.81,3.81,0,0,1-3.1-1.36,6.55,6.55,0,0,1-1.12-4.22v-6.15l-1.56-.15v-1h2.94v7.37a5.51,5.51,0,0,0,.78,3.33,2.65,2.65,0,0,0,2.22,1,4.13,4.13,0,0,0,2.51-.7,3.79,3.79,0,0,0,1.32-1.95v-7.86l-1.79-.15v-1h3.18v11.5l1.68.15v1h-2.9Z"/><path class="cls-9" d="M590.26,199a3.91,3.91,0,0,0,2.43-.79,2.61,2.61,0,0,0,1.06-2.22H595l0,.07a3.47,3.47,0,0,1-1.39,2.94,5.13,5.13,0,0,1-3.35,1.19,4.75,4.75,0,0,1-4-1.78,7.15,7.15,0,0,1-1.4-4.56v-.49a7.16,7.16,0,0,1,1.4-4.55,4.73,4.73,0,0,1,3.94-1.78,6.27,6.27,0,0,1,2.66.55,5.29,5.29,0,0,1,2,1.5l.06,2.76h-1.18l-.22-2.25a4.16,4.16,0,0,0-1.39-1,4.68,4.68,0,0,0-1.89-.37,3.33,3.33,0,0,0-3,1.46,6.48,6.48,0,0,0-1,3.68v.49a6.58,6.58,0,0,0,1,3.7A3.36,3.36,0,0,0,590.26,199Z"/><path class="cls-9" d="M597.59,193.36a6.83,6.83,0,0,1,1.52-4.59,5.43,5.43,0,0,1,8.06,0,6.89,6.89,0,0,1,1.52,4.59v.39a6.86,6.86,0,0,1-1.52,4.6,5.43,5.43,0,0,1-8.06,0,6.81,6.81,0,0,1-1.52-4.6Zm1.39.39a6.1,6.1,0,0,0,1.1,3.7,3.86,3.86,0,0,0,6.11,0,6,6,0,0,0,1.1-3.7v-.39a6.12,6.12,0,0,0-1.1-3.68,3.85,3.85,0,0,0-6.11,0,6.12,6.12,0,0,0-1.1,3.68Z"/><path class="cls-9" d="M610.69,198.86l1.89-.15v-10.3l-1.89-.15v-1h3.12l.13,2.22A4.33,4.33,0,0,1,618,187a3.86,3.86,0,0,1,3.11,1.26,6,6,0,0,1,1.06,3.93v6.54l1.89.15v1h-5.17v-1l1.89-.15v-6.53a4.67,4.67,0,0,0-.8-3.08,2.93,2.93,0,0,0-2.29-.9,3.58,3.58,0,0,0-2.39.78A4.35,4.35,0,0,0,614,191v7.67l1.89.15v1h-5.17Z"/><path class="cls-9" d="M635.35,191.13h-1.14l-.16-1.8a3.58,3.58,0,0,0-1.32-.85,4.93,4.93,0,0,0-1.82-.31,3.32,3.32,0,0,0-2.28.67,2,2,0,0,0-.76,1.55,1.86,1.86,0,0,0,.65,1.45,6.42,6.42,0,0,0,2.62,1,8.29,8.29,0,0,1,3.35,1.38,2.85,2.85,0,0,1,1.11,2.37,3.07,3.07,0,0,1-1.27,2.56,5.34,5.34,0,0,1-3.35,1,7.83,7.83,0,0,1-2.54-.39,6.36,6.36,0,0,1-2-1.11v-2.56h1.13l.2,1.81a3.3,3.3,0,0,0,1.4.81A6.24,6.24,0,0,0,631,199a3.83,3.83,0,0,0,2.37-.66,2,2,0,0,0,.87-1.62,2.08,2.08,0,0,0-.72-1.56,6,6,0,0,0-2.62-1.09,8.65,8.65,0,0,1-3.32-1.31,2.68,2.68,0,0,1-1.08-2.28,3.07,3.07,0,0,1,1.21-2.45,4.92,4.92,0,0,1,3.22-1,7,7,0,0,1,2.52.43,5.07,5.07,0,0,1,1.86,1.15Z"/><path class="cls-9" d="M643.66,200.14a5,5,0,0,1-3.92-1.75,6.51,6.51,0,0,1-1.55-4.46v-.65a6.63,6.63,0,0,1,1.55-4.51,4.79,4.79,0,0,1,3.74-1.79,4.63,4.63,0,0,1,3.63,1.47,5.71,5.71,0,0,1,1.32,3.94v1.2h-8.86v.34a5.61,5.61,0,0,0,1.13,3.58,3.58,3.58,0,0,0,3,1.44,6.09,6.09,0,0,0,2.21-.36,4.32,4.32,0,0,0,1.56-1l.59,1a4.93,4.93,0,0,1-1.78,1.19A6.89,6.89,0,0,1,643.66,200.14Zm-.18-12a3.32,3.32,0,0,0-2.58,1.19,5.18,5.18,0,0,0-1.23,3l0,.06h7.35v-.35a4.07,4.07,0,0,0-1-2.76A3.28,3.28,0,0,0,643.48,188.17Z"/><path class="cls-9" d="M651,193.66a8.3,8.3,0,0,1,1.28-4.86A4.11,4.11,0,0,1,655.8,187a4.38,4.38,0,0,1,2.32.59,4.72,4.72,0,0,1,1.62,1.67l.16-2h1.17v12.52a5.47,5.47,0,0,1-1.31,3.86,4.7,4.7,0,0,1-3.65,1.42,8.93,8.93,0,0,1-1.93-.22,7.44,7.44,0,0,1-1.8-.61l.37-1.18a7.89,7.89,0,0,0,1.59.56,7.54,7.54,0,0,0,1.74.2,3.33,3.33,0,0,0,2.69-1.07,4.4,4.4,0,0,0,.91-3v-1.61a4.44,4.44,0,0,1-1.61,1.5,4.9,4.9,0,0,1-2.29.52,4.18,4.18,0,0,1-3.54-1.7A7.39,7.39,0,0,1,651,193.9Zm1.39.24a6.45,6.45,0,0,0,.92,3.65,3.11,3.11,0,0,0,2.76,1.37,3.9,3.9,0,0,0,2.25-.62,4.13,4.13,0,0,0,1.39-1.71V190.7a4.55,4.55,0,0,0-1.34-1.81,3.56,3.56,0,0,0-2.28-.69,3,3,0,0,0-2.77,1.52,7.49,7.49,0,0,0-.93,3.94Z"/><path class="cls-9" d="M673.44,197.81a4.31,4.31,0,0,1-1.61,1.72,4.73,4.73,0,0,1-2.42.61,3.81,3.81,0,0,1-3.1-1.36,6.55,6.55,0,0,1-1.12-4.22v-6.15l-1.56-.15v-1h2.94v7.37a5.51,5.51,0,0,0,.78,3.33,2.65,2.65,0,0,0,2.22,1,4.13,4.13,0,0,0,2.51-.7,3.79,3.79,0,0,0,1.32-1.95v-7.86l-1.79-.15v-1h3.18v11.5l1.68.15v1h-2.9Z"/><path class="cls-9" d="M678.42,198.86l1.89-.15v-10.3l-1.89-.15v-1h3.27v11.5l1.89.15v1h-5.16Zm3.27-15.28h-1.38v-2h1.38Z"/><path class="cls-9" d="M688.92,187.21l.17,2.11v.15a4.45,4.45,0,0,1,1.45-1.83,3.69,3.69,0,0,1,2.19-.66,3,3,0,0,1,.52,0l.41.09-.19,1.31-1-.07a3.15,3.15,0,0,0-2.15.74,4.14,4.14,0,0,0-1.2,2v7.57l1.89.15v1h-5.16v-1l1.89-.15v-10.3l-1.89-.15v-1h3.1Z"/><path class="cls-9" d="M706.59,199a3.91,3.91,0,0,0,2.43-.79,2.61,2.61,0,0,0,1.06-2.22h1.23l0,.07A3.48,3.48,0,0,1,710,199a5.17,5.17,0,0,1-3.36,1.19,4.75,4.75,0,0,1-4-1.78,7.15,7.15,0,0,1-1.4-4.56v-.49a7.16,7.16,0,0,1,1.4-4.55,4.74,4.74,0,0,1,4-1.78,6.26,6.26,0,0,1,2.65.55,5.21,5.21,0,0,1,2,1.5l.06,2.76h-1.18l-.22-2.25a4.06,4.06,0,0,0-1.39-1,4.67,4.67,0,0,0-1.88-.37,3.35,3.35,0,0,0-3,1.46,6.48,6.48,0,0,0-1,3.68v.49a6.51,6.51,0,0,0,1,3.7A3.33,3.33,0,0,0,706.59,199Z"/><path class="cls-9" d="M713.51,182.65v-1h3.27v7.77a4.47,4.47,0,0,1,4.11-2.4,3.76,3.76,0,0,1,3,1.24,5.83,5.83,0,0,1,1.06,3.86v6.63l1.89.15v1h-5.17v-1l1.89-.15v-6.66a4.44,4.44,0,0,0-.8-3,2.87,2.87,0,0,0-2.23-.89,3.74,3.74,0,0,0-2.38.75,4.43,4.43,0,0,0-1.41,2v7.75l1.89.15v1h-5.16v-1l1.89-.15v-15.9Z"/><path class="cls-9" d="M734.39,200.14a5,5,0,0,1-3.92-1.75,6.47,6.47,0,0,1-1.56-4.46v-.65a6.68,6.68,0,0,1,1.55-4.51A4.79,4.79,0,0,1,734.2,187a4.63,4.63,0,0,1,3.63,1.47,5.71,5.71,0,0,1,1.32,3.94v1.2h-8.86v.34a5.67,5.67,0,0,0,1.13,3.58,3.6,3.6,0,0,0,3,1.44,6,6,0,0,0,2.2-.36,4.45,4.45,0,0,0,1.57-1l.59,1A5,5,0,0,1,737,199.7,6.87,6.87,0,0,1,734.39,200.14Zm-.19-12a3.32,3.32,0,0,0-2.58,1.19,5.11,5.11,0,0,0-1.22,3l0,.06h7.35v-.35a4.07,4.07,0,0,0-1-2.76A3.25,3.25,0,0,0,734.2,188.17Z"/><path class="cls-9" d="M741.69,193.66A8.23,8.23,0,0,1,743,188.8a4.1,4.1,0,0,1,3.55-1.82,4.32,4.32,0,0,1,2.31.59,4.56,4.56,0,0,1,1.62,1.67l.16-2h1.17v12.52a5.42,5.42,0,0,1-1.31,3.86,4.7,4.7,0,0,1-3.65,1.42,9,9,0,0,1-1.93-.22,7.51,7.51,0,0,1-1.79-.61l.37-1.18a7.8,7.8,0,0,0,1.58.56,7.63,7.63,0,0,0,1.75.2,3.33,3.33,0,0,0,2.69-1.07,4.45,4.45,0,0,0,.9-3v-1.61a4.36,4.36,0,0,1-1.61,1.5,4.85,4.85,0,0,1-2.28.52,4.18,4.18,0,0,1-3.54-1.7,7.39,7.39,0,0,1-1.28-4.54Zm1.39.24a6.37,6.37,0,0,0,.93,3.65,3.1,3.1,0,0,0,2.75,1.37,3.91,3.91,0,0,0,2.26-.62,4,4,0,0,0,1.38-1.71V190.7a4.52,4.52,0,0,0-1.33-1.81,3.57,3.57,0,0,0-2.29-.69,3,3,0,0,0-2.76,1.52,7.48,7.48,0,0,0-.94,3.94Z"/><path class="cls-9" d="M763.61,199.89c-.09-.43-.16-.8-.2-1.11s0-.63,0-.95a5.73,5.73,0,0,1-1.86,1.65,5.17,5.17,0,0,1-2.61.66,4,4,0,0,1-2.85-1,3.43,3.43,0,0,1-1-2.6,3.2,3.2,0,0,1,1.5-2.79,7,7,0,0,1,4.05-1h2.78v-1.68a2.69,2.69,0,0,0-.87-2.13,3.47,3.47,0,0,0-2.42-.78,6,6,0,0,0-1.9.29,4.27,4.27,0,0,0-1.45.78l-.11,1.7h-1.15V188.5a7.2,7.2,0,0,1,2.08-1.1,7.84,7.84,0,0,1,2.58-.42,5,5,0,0,1,3.34,1.06,3.8,3.8,0,0,1,1.27,3.06v6.24c0,.25,0,.5,0,.74s0,.47.08.7l1.25.08v1Zm-4.57-1a5,5,0,0,0,2.66-.71,4.18,4.18,0,0,0,1.66-1.81v-2.55h-2.8a5.22,5.22,0,0,0-3,.79,2.38,2.38,0,0,0-1.13,2,2.1,2.1,0,0,0,.7,1.65A2.79,2.79,0,0,0,759,198.9Z"/><path class="cls-9" d="M771.06,187.21l.17,2.11v.15a4.47,4.47,0,0,1,1.46-1.83,3.63,3.63,0,0,1,2.18-.66,3,3,0,0,1,.52,0l.41.09-.19,1.31-1-.07a3.15,3.15,0,0,0-2.15.74,4.14,4.14,0,0,0-1.2,2v7.57l1.89.15v1H768v-1l1.89-.15v-10.3l-1.89-.15v-1h3.1Z"/><path class="cls-9" d="M419.69,228.69a11.15,11.15,0,0,1-.2-1.11,7.46,7.46,0,0,1-.06-1,5.53,5.53,0,0,1-1.86,1.65,5.16,5.16,0,0,1-2.6.66,4,4,0,0,1-2.86-1,3.43,3.43,0,0,1-1-2.6,3.2,3.2,0,0,1,1.5-2.79,7,7,0,0,1,4.06-1h2.77v-1.67a2.71,2.71,0,0,0-.86-2.13,3.5,3.5,0,0,0-2.42-.78,6.07,6.07,0,0,0-1.91.29,4.13,4.13,0,0,0-1.44.78l-.12,1.7h-1.15V217.3a7.26,7.26,0,0,1,2.09-1.1,7.76,7.76,0,0,1,2.58-.42,5,5,0,0,1,3.34,1.06,3.78,3.78,0,0,1,1.26,3.06v6.24c0,.25,0,.5,0,.74a5.35,5.35,0,0,0,.07.7l1.25.08v1Zm-4.57-1a5,5,0,0,0,2.65-.71,4.12,4.12,0,0,0,1.66-1.81v-2.55h-2.79a5.25,5.25,0,0,0-3,.79,2.38,2.38,0,0,0-1.13,2,2.11,2.11,0,0,0,.71,1.65A2.77,2.77,0,0,0,415.12,227.7Z"/><path class="cls-9" d="M423.87,227.66l1.89-.15v-10.3l-1.89-.16v-1H427l.13,2.22a4.33,4.33,0,0,1,4.06-2.45,3.86,3.86,0,0,1,3.11,1.26,6,6,0,0,1,1.06,3.93v6.54l1.89.15v1h-5.17v-1l1.89-.15V221a4.6,4.6,0,0,0-.81-3.08,2.9,2.9,0,0,0-2.29-.9,3.57,3.57,0,0,0-2.38.78,4.35,4.35,0,0,0-1.33,2.06v7.67l1.89.15v1h-5.17Z"/><path class="cls-9" d="M442.61,212.77V216h2.76v1.15h-2.76v8.26a2.73,2.73,0,0,0,.45,1.77,1.51,1.51,0,0,0,1.19.52c.22,0,.44,0,.65,0s.46-.05.74-.1l.21,1a4,4,0,0,1-.85.24,6.63,6.63,0,0,1-1,.08,2.55,2.55,0,0,1-2.05-.85,3.94,3.94,0,0,1-.74-2.67v-8.26h-2.16V216h2.16v-3.24Z"/><path class="cls-9" d="M453.46,228.94a5,5,0,0,1-3.92-1.75,6.47,6.47,0,0,1-1.56-4.46v-.65a6.68,6.68,0,0,1,1.55-4.51,4.79,4.79,0,0,1,3.74-1.79,4.63,4.63,0,0,1,3.63,1.47,5.71,5.71,0,0,1,1.32,3.94v1.2h-8.86v.34a5.67,5.67,0,0,0,1.13,3.58,3.6,3.6,0,0,0,3,1.44,6,6,0,0,0,2.2-.36,4.45,4.45,0,0,0,1.57-1l.59,1A5,5,0,0,1,456,228.5,6.87,6.87,0,0,1,453.46,228.94Zm-.19-12a3.32,3.32,0,0,0-2.58,1.19,5.11,5.11,0,0,0-1.22,3l0,.06h7.35v-.35a4.07,4.07,0,0,0-1-2.76A3.25,3.25,0,0,0,453.27,217Z"/><path class="cls-9" d="M469.81,219.93h-1.14l-.16-1.8a3.58,3.58,0,0,0-1.32-.85,4.93,4.93,0,0,0-1.82-.31,3.37,3.37,0,0,0-2.28.66,2,2,0,0,0-.76,1.56,1.86,1.86,0,0,0,.65,1.45,6.42,6.42,0,0,0,2.62,1A8.29,8.29,0,0,1,469,223a2.85,2.85,0,0,1,1.11,2.37,3.07,3.07,0,0,1-1.27,2.56,5.34,5.34,0,0,1-3.35,1,7.83,7.83,0,0,1-2.54-.39,6.19,6.19,0,0,1-2-1.11v-2.56h1.12l.2,1.81a3.28,3.28,0,0,0,1.41.81,6.13,6.13,0,0,0,1.78.25,3.83,3.83,0,0,0,2.37-.66,2,2,0,0,0,.87-1.62,2.08,2.08,0,0,0-.72-1.56,5.79,5.79,0,0,0-2.62-1.09,8.65,8.65,0,0,1-3.32-1.31,2.68,2.68,0,0,1-1.08-2.28,3.07,3.07,0,0,1,1.21-2.45,4.92,4.92,0,0,1,3.22-1,7,7,0,0,1,2.52.43,5.07,5.07,0,0,1,1.86,1.15Z"/><path class="cls-9" d="M478.37,222.46a8.3,8.3,0,0,1,1.27-4.86,4,4,0,0,1,3.54-1.82,4.53,4.53,0,0,1,2.26.54,4.67,4.67,0,0,1,1.59,1.57l.14-1.88h1.22v16.36l1.89.15v1H485.1v-1l1.89-.15V227a4.28,4.28,0,0,1-1.6,1.42,4.92,4.92,0,0,1-2.23.49,4.15,4.15,0,0,1-3.52-1.7,7.39,7.39,0,0,1-1.27-4.54Zm1.4.24a6.58,6.58,0,0,0,.91,3.68,3.06,3.06,0,0,0,2.74,1.37,3.81,3.81,0,0,0,2.19-.59,3.92,3.92,0,0,0,1.38-1.62v-6.19a4.55,4.55,0,0,0-1.35-1.71,3.48,3.48,0,0,0-2.19-.67,3,3,0,0,0-2.76,1.53,7.64,7.64,0,0,0-.92,4Z"/><path class="cls-9" d="M500.85,226.61a4.31,4.31,0,0,1-1.61,1.72,4.73,4.73,0,0,1-2.42.61,3.81,3.81,0,0,1-3.1-1.36,6.55,6.55,0,0,1-1.12-4.22v-6.15l-1.56-.16v-1H494v7.37a5.51,5.51,0,0,0,.78,3.33,2.65,2.65,0,0,0,2.22,1,4.13,4.13,0,0,0,2.51-.7,3.79,3.79,0,0,0,1.32-2v-7.86l-1.79-.16v-1h3.18v11.5l1.68.15v1H501Z"/><path class="cls-9" d="M511.45,228.94a5.06,5.06,0,0,1-3.92-1.75,6.51,6.51,0,0,1-1.55-4.46v-.65a6.68,6.68,0,0,1,1.55-4.51,4.79,4.79,0,0,1,3.74-1.79,4.63,4.63,0,0,1,3.63,1.47,5.71,5.71,0,0,1,1.32,3.94v1.2h-8.86v.34a5.67,5.67,0,0,0,1.13,3.58,3.58,3.58,0,0,0,3,1.44,6.05,6.05,0,0,0,2.21-.36,4.32,4.32,0,0,0,1.56-1l.59,1A4.93,4.93,0,0,1,514,228.5,6.89,6.89,0,0,1,511.45,228.94Zm-.18-12a3.32,3.32,0,0,0-2.58,1.19,5.18,5.18,0,0,0-1.23,3l0,.06h7.35v-.35a4.07,4.07,0,0,0-1-2.76A3.25,3.25,0,0,0,511.27,217Z"/><path class="cls-9" d="M524.48,222.16a6.83,6.83,0,0,1,1.52-4.59,5.43,5.43,0,0,1,8.06,0,6.89,6.89,0,0,1,1.52,4.59v.39a6.86,6.86,0,0,1-1.52,4.6,5.43,5.43,0,0,1-8.06,0,6.81,6.81,0,0,1-1.52-4.6Zm1.39.39a6.1,6.1,0,0,0,1.1,3.7,3.6,3.6,0,0,0,3.07,1.5,3.55,3.55,0,0,0,3-1.5,6,6,0,0,0,1.11-3.7v-.39a6.06,6.06,0,0,0-1.11-3.68,3.85,3.85,0,0,0-6.11,0,6.12,6.12,0,0,0-1.1,3.68Z"/><path class="cls-9" d="M546.94,219.93H545.8l-.16-1.8a3.62,3.62,0,0,0-1.31-.85,4.94,4.94,0,0,0-1.83-.31,3.41,3.41,0,0,0-2.28.66,2,2,0,0,0-.76,1.56,1.84,1.84,0,0,0,.66,1.45,6.29,6.29,0,0,0,2.61,1,8.29,8.29,0,0,1,3.35,1.38,2.86,2.86,0,0,1,1.12,2.37,3.1,3.1,0,0,1-1.27,2.56,5.39,5.39,0,0,1-3.36,1,7.87,7.87,0,0,1-2.54-.39,6.19,6.19,0,0,1-2-1.11v-2.56h1.12l.2,1.81a3.28,3.28,0,0,0,1.41.81,6.18,6.18,0,0,0,1.78.25,3.87,3.87,0,0,0,2.38-.66,2,2,0,0,0,.87-1.62,2.09,2.09,0,0,0-.73-1.56,5.75,5.75,0,0,0-2.61-1.09,8.71,8.71,0,0,1-3.33-1.31,2.68,2.68,0,0,1-1.08-2.28,3.08,3.08,0,0,1,1.22-2.45,4.87,4.87,0,0,1,3.21-1,7,7,0,0,1,2.52.43,5.07,5.07,0,0,1,1.86,1.15Z"/><path class="cls-9" d="M555.13,217.05v-1h3l.17,2a4.37,4.37,0,0,1,4-2.2,4.06,4.06,0,0,1,3.53,1.82,8.3,8.3,0,0,1,1.28,4.86v.24a7.35,7.35,0,0,1-1.28,4.54,4.15,4.15,0,0,1-3.51,1.7,5,5,0,0,1-2.31-.51A4.26,4.26,0,0,1,558.4,227v5.39l1.89.15v1h-5.16v-1l1.89-.15V217.21Zm10.6,5.41a7.39,7.39,0,0,0-1-3.94A3.08,3.08,0,0,0,562,217a3.6,3.6,0,0,0-2.27.67,4.06,4.06,0,0,0-1.32,1.75v6.1a3.87,3.87,0,0,0,1.37,1.64,4,4,0,0,0,2.25.59,3.13,3.13,0,0,0,2.76-1.38,6.38,6.38,0,0,0,1-3.67Z"/><path class="cls-9" d="M574.91,228.94a5.06,5.06,0,0,1-3.92-1.75,6.51,6.51,0,0,1-1.55-4.46v-.65a6.68,6.68,0,0,1,1.55-4.51,4.79,4.79,0,0,1,3.74-1.79,4.63,4.63,0,0,1,3.63,1.47,5.71,5.71,0,0,1,1.32,3.94v1.2h-8.86v.34a5.67,5.67,0,0,0,1.13,3.58,3.58,3.58,0,0,0,3,1.44,6.05,6.05,0,0,0,2.21-.36,4.32,4.32,0,0,0,1.56-1l.59,1a4.93,4.93,0,0,1-1.78,1.19A6.89,6.89,0,0,1,574.91,228.94Zm-.18-12a3.32,3.32,0,0,0-2.58,1.19,5.18,5.18,0,0,0-1.23,3l0,.06h7.35v-.35a4.07,4.07,0,0,0-1-2.76A3.26,3.26,0,0,0,574.73,217Z"/><path class="cls-9" d="M585.17,216l.17,2.11v.15a4.45,4.45,0,0,1,1.45-1.83,3.69,3.69,0,0,1,2.19-.66,3,3,0,0,1,.52,0l.41.09-.19,1.31-1-.07a3.15,3.15,0,0,0-2.15.74,4.14,4.14,0,0,0-1.2,2.05v7.57l1.89.15v1h-5.16v-1l1.89-.15v-10.3l-1.89-.16v-1h3.1Z"/><path class="cls-9" d="M600.81,219.93h-1.14l-.16-1.8a3.58,3.58,0,0,0-1.32-.85,4.89,4.89,0,0,0-1.82-.31,3.39,3.39,0,0,0-2.28.66,2,2,0,0,0-.76,1.56,1.86,1.86,0,0,0,.65,1.45,6.42,6.42,0,0,0,2.62,1A8.29,8.29,0,0,1,600,223a2.85,2.85,0,0,1,1.11,2.37,3.07,3.07,0,0,1-1.27,2.56,5.34,5.34,0,0,1-3.35,1,7.83,7.83,0,0,1-2.54-.39,6.19,6.19,0,0,1-2-1.11v-2.56h1.12l.2,1.81a3.28,3.28,0,0,0,1.41.81,6.18,6.18,0,0,0,1.78.25,3.83,3.83,0,0,0,2.37-.66,2,2,0,0,0,.87-1.62,2.08,2.08,0,0,0-.72-1.56,5.79,5.79,0,0,0-2.62-1.09,8.65,8.65,0,0,1-3.32-1.31,2.68,2.68,0,0,1-1.08-2.28,3.07,3.07,0,0,1,1.21-2.45,4.92,4.92,0,0,1,3.22-1,7,7,0,0,1,2.52.43,5.07,5.07,0,0,1,1.86,1.15Z"/><path class="cls-9" d="M612.26,228.69a11.15,11.15,0,0,1-.2-1.11,7.46,7.46,0,0,1-.06-1,5.59,5.59,0,0,1-1.85,1.65,5.22,5.22,0,0,1-2.61.66,4,4,0,0,1-2.86-1,3.43,3.43,0,0,1-1-2.6,3.2,3.2,0,0,1,1.5-2.79,7,7,0,0,1,4.06-1H612v-1.67a2.71,2.71,0,0,0-.86-2.13,3.5,3.5,0,0,0-2.42-.78,6.07,6.07,0,0,0-1.91.29,4.13,4.13,0,0,0-1.44.78l-.12,1.7H604.1V217.3a7.26,7.26,0,0,1,2.09-1.1,7.76,7.76,0,0,1,2.58-.42,5,5,0,0,1,3.34,1.06,3.78,3.78,0,0,1,1.26,3.06v6.24c0,.25,0,.5,0,.74a5.35,5.35,0,0,0,.07.7l1.26.08v1Zm-4.57-1a5,5,0,0,0,2.65-.71,4.12,4.12,0,0,0,1.66-1.81v-2.55h-2.79a5.25,5.25,0,0,0-3,.79,2.38,2.38,0,0,0-1.13,2,2.11,2.11,0,0,0,.71,1.65A2.77,2.77,0,0,0,607.69,227.7Z"/><path class="cls-9" d="M625.8,219.93h-1.14l-.16-1.8a3.62,3.62,0,0,0-1.31-.85,4.94,4.94,0,0,0-1.83-.31,3.41,3.41,0,0,0-2.28.66,2,2,0,0,0-.76,1.56,1.84,1.84,0,0,0,.66,1.45,6.29,6.29,0,0,0,2.61,1,8.29,8.29,0,0,1,3.35,1.38,2.86,2.86,0,0,1,1.12,2.37,3.1,3.1,0,0,1-1.27,2.56,5.39,5.39,0,0,1-3.36,1,7.87,7.87,0,0,1-2.54-.39,6.19,6.19,0,0,1-2-1.11v-2.56H618l.2,1.81a3.28,3.28,0,0,0,1.41.81,6.18,6.18,0,0,0,1.78.25,3.87,3.87,0,0,0,2.38-.66,2,2,0,0,0,.87-1.62,2.09,2.09,0,0,0-.73-1.56,5.75,5.75,0,0,0-2.61-1.09,8.71,8.71,0,0,1-3.33-1.31,2.68,2.68,0,0,1-1.08-2.28,3.05,3.05,0,0,1,1.22-2.45,4.87,4.87,0,0,1,3.21-1,7,7,0,0,1,2.52.43,5.07,5.07,0,0,1,1.86,1.15Z"/><path class="cls-9" d="M634,217.05v-1h3l.17,2a4.37,4.37,0,0,1,4-2.2,4.06,4.06,0,0,1,3.53,1.82,8.3,8.3,0,0,1,1.28,4.86v.24a7.35,7.35,0,0,1-1.28,4.54,4.15,4.15,0,0,1-3.51,1.7,5,5,0,0,1-2.31-.51,4.26,4.26,0,0,1-1.62-1.45v5.39l1.89.15v1H634v-1l1.89-.15V217.21Zm10.6,5.41a7.39,7.39,0,0,0-1-3.94,3.09,3.09,0,0,0-2.79-1.52,3.65,3.65,0,0,0-2.28.67,4.12,4.12,0,0,0-1.31,1.75v6.1a3.8,3.8,0,0,0,1.37,1.64,4,4,0,0,0,2.25.59,3.13,3.13,0,0,0,2.76-1.38,6.38,6.38,0,0,0,1-3.67Z"/><path class="cls-9" d="M653.77,228.94a5,5,0,0,1-3.92-1.75,6.51,6.51,0,0,1-1.55-4.46v-.65a6.63,6.63,0,0,1,1.55-4.51,4.79,4.79,0,0,1,3.74-1.79,4.63,4.63,0,0,1,3.63,1.47,5.71,5.71,0,0,1,1.32,3.94v1.2h-8.86v.34a5.67,5.67,0,0,0,1.13,3.58,3.58,3.58,0,0,0,3,1.44,6.09,6.09,0,0,0,2.21-.36,4.32,4.32,0,0,0,1.56-1l.59,1a4.93,4.93,0,0,1-1.78,1.19A6.89,6.89,0,0,1,653.77,228.94Zm-.18-12a3.32,3.32,0,0,0-2.58,1.19,5.18,5.18,0,0,0-1.23,3l0,.06h7.35v-.35a4.07,4.07,0,0,0-1-2.76A3.26,3.26,0,0,0,653.59,217Z"/><path class="cls-9" d="M661.08,222.46a8.3,8.3,0,0,1,1.28-4.86,4.09,4.09,0,0,1,3.55-1.82,4.38,4.38,0,0,1,2.32.59,4.72,4.72,0,0,1,1.62,1.67l.16-2h1.17v12.52a5.47,5.47,0,0,1-1.31,3.86,4.7,4.7,0,0,1-3.65,1.42,8.93,8.93,0,0,1-1.93-.22,7.44,7.44,0,0,1-1.8-.61l.37-1.18a8.12,8.12,0,0,0,1.59.56,7.54,7.54,0,0,0,1.74.2,3.33,3.33,0,0,0,2.69-1.07,4.4,4.4,0,0,0,.91-3v-1.61a4.44,4.44,0,0,1-1.61,1.5,4.87,4.87,0,0,1-2.29.52,4.18,4.18,0,0,1-3.54-1.7,7.39,7.39,0,0,1-1.27-4.54Zm1.39.24a6.45,6.45,0,0,0,.92,3.65,3.13,3.13,0,0,0,2.76,1.37,3.9,3.9,0,0,0,2.25-.62,4.13,4.13,0,0,0,1.39-1.71V219.5a4.55,4.55,0,0,0-1.34-1.81,3.56,3.56,0,0,0-2.28-.69,3,3,0,0,0-2.77,1.52,7.49,7.49,0,0,0-.93,3.94Z"/><path class="cls-9" d="M683.55,226.61a4.31,4.31,0,0,1-1.61,1.72,4.73,4.73,0,0,1-2.42.61,3.81,3.81,0,0,1-3.1-1.36,6.55,6.55,0,0,1-1.12-4.22v-6.15l-1.56-.16v-1h2.94v7.37a5.51,5.51,0,0,0,.78,3.33,2.65,2.65,0,0,0,2.22,1,4.13,4.13,0,0,0,2.51-.7,3.79,3.79,0,0,0,1.32-2v-7.86l-1.79-.16v-1h3.18v11.5l1.68.15v1h-2.9Z"/><path class="cls-9" d="M694.15,228.94a5.06,5.06,0,0,1-3.92-1.75,6.51,6.51,0,0,1-1.55-4.46v-.65a6.68,6.68,0,0,1,1.55-4.51,4.79,4.79,0,0,1,3.74-1.79,4.63,4.63,0,0,1,3.63,1.47,5.71,5.71,0,0,1,1.32,3.94v1.2h-8.86v.34a5.67,5.67,0,0,0,1.13,3.58,3.58,3.58,0,0,0,3,1.44,6.05,6.05,0,0,0,2.21-.36,4.32,4.32,0,0,0,1.56-1l.6,1a5.06,5.06,0,0,1-1.79,1.19A6.89,6.89,0,0,1,694.15,228.94ZM694,217a3.32,3.32,0,0,0-2.58,1.19,5.18,5.18,0,0,0-1.23,3l0,.06h7.35v-.35a4.07,4.07,0,0,0-1-2.76A3.25,3.25,0,0,0,694,217Z"/><path class="cls-9" d="M701.1,217.05v-1h3.12l.13,2.1a4.39,4.39,0,0,1,1.61-1.72,4.51,4.51,0,0,1,2.4-.61,3.62,3.62,0,0,1,3.78,2.87,4.92,4.92,0,0,1,1.62-2.1,4.16,4.16,0,0,1,2.56-.77,3.77,3.77,0,0,1,3.1,1.35,6.52,6.52,0,0,1,1.1,4.17v6.2l1.88.16v1h-5.18v-1l1.89-.16v-6.23a5.16,5.16,0,0,0-.82-3.31,2.81,2.81,0,0,0-2.27-1,3.05,3.05,0,0,0-2.5,1,5,5,0,0,0-1.09,2.66,1.09,1.09,0,0,0,0,.18v6.63l1.89.15v1h-5.17v-1l1.89-.15v-6.24a5.13,5.13,0,0,0-.83-3.28,2.81,2.81,0,0,0-2.28-1,3.43,3.43,0,0,0-2.34.75,4,4,0,0,0-1.22,2v7.72l1.89.15v1H701.1v-1l1.89-.15v-10.3Z"/><path class="cls-9" d="M738.56,228.69c-.09-.43-.16-.8-.2-1.11a7.46,7.46,0,0,1-.05-1,5.73,5.73,0,0,1-1.86,1.65,5.17,5.17,0,0,1-2.61.66,4,4,0,0,1-2.85-1,3.4,3.4,0,0,1-1-2.6,3.22,3.22,0,0,1,1.49-2.79,7,7,0,0,1,4.06-1h2.78v-1.67a2.69,2.69,0,0,0-.87-2.13A3.49,3.49,0,0,0,735,217a6.12,6.12,0,0,0-1.91.29,4.31,4.31,0,0,0-1.44.78l-.11,1.7h-1.15V217.3a7.2,7.2,0,0,1,2.08-1.1,7.84,7.84,0,0,1,2.58-.42,5,5,0,0,1,3.34,1.06,3.79,3.79,0,0,1,1.27,3.06v6.24c0,.25,0,.5,0,.74a5.35,5.35,0,0,0,.08.7l1.25.08v1Zm-4.57-1a5,5,0,0,0,2.66-.71,4.24,4.24,0,0,0,1.66-1.81v-2.55h-2.8a5.22,5.22,0,0,0-3,.79,2.36,2.36,0,0,0-1.13,2,2.1,2.1,0,0,0,.7,1.65A2.79,2.79,0,0,0,734,227.7Z"/><path class="cls-9" d="M416.38,256.55a3.91,3.91,0,0,0,2.43-.79,2.61,2.61,0,0,0,1.06-2.22h1.23l0,.07a3.5,3.5,0,0,1-1.38,2.94,5.15,5.15,0,0,1-3.36,1.19,4.72,4.72,0,0,1-3.95-1.78A7.09,7.09,0,0,1,411,251.4v-.49a7.1,7.1,0,0,1,1.41-4.55,4.72,4.72,0,0,1,3.94-1.78,6.26,6.26,0,0,1,2.65.55,5.21,5.21,0,0,1,2,1.5l.06,2.76h-1.18l-.22-2.25a4,4,0,0,0-1.39-1,4.67,4.67,0,0,0-1.88-.37,3.35,3.35,0,0,0-3,1.46,6.56,6.56,0,0,0-1,3.68v.49a6.51,6.51,0,0,0,1,3.7A3.33,3.33,0,0,0,416.38,256.55Z"/><path class="cls-9" d="M423.62,256.46l1.89-.15V246l-1.89-.16v-1h3.27v11.5l1.89.15v1h-5.16Zm3.27-15.28h-1.38v-2h1.38Z"/><path class="cls-9" d="M439.83,255.66a4.39,4.39,0,0,1-1.61,1.54,4.76,4.76,0,0,1-2.32.54,4.16,4.16,0,0,1-3.52-1.7,7.39,7.39,0,0,1-1.27-4.54v-.24a8.3,8.3,0,0,1,1.27-4.86,4.07,4.07,0,0,1,3.54-1.82,4.44,4.44,0,0,1,2.27.55,4.62,4.62,0,0,1,1.61,1.59v-6.31l-1.9-.16v-1h3.29v17.1l1.89.15v1H440Zm-7.32-4.16a6.48,6.48,0,0,0,.91,3.66,3.08,3.08,0,0,0,2.75,1.36,3.87,3.87,0,0,0,2.23-.61,4.14,4.14,0,0,0,1.4-1.68v-6a4.35,4.35,0,0,0-1.34-1.75,3.57,3.57,0,0,0-2.27-.68,3,3,0,0,0-2.76,1.51,7.6,7.6,0,0,0-.92,3.95Z"/><path class="cls-9" d="M453.87,257.49c-.09-.43-.15-.8-.19-1.11a7.46,7.46,0,0,1-.06-.95,5.53,5.53,0,0,1-1.86,1.65,5.17,5.17,0,0,1-2.61.66,4,4,0,0,1-2.85-1,3.44,3.44,0,0,1-1-2.61,3.2,3.2,0,0,1,1.5-2.78,7,7,0,0,1,4.06-1h2.77v-1.67a2.71,2.71,0,0,0-.86-2.13,3.5,3.5,0,0,0-2.42-.78,6.07,6.07,0,0,0-1.91.29,4.13,4.13,0,0,0-1.44.78l-.12,1.7h-1.15V246.1a7.33,7.33,0,0,1,2.08-1.1,7.86,7.86,0,0,1,2.59-.42,5,5,0,0,1,3.33,1.06A3.76,3.76,0,0,1,455,248.7v6.24c0,.25,0,.5,0,.74a5.35,5.35,0,0,0,.07.7l1.25.08v1Zm-4.56-1a5,5,0,0,0,2.65-.71,4.12,4.12,0,0,0,1.66-1.81v-2.55h-2.8a5.24,5.24,0,0,0-3,.79,2.38,2.38,0,0,0-1.13,2,2.14,2.14,0,0,0,.7,1.65A2.81,2.81,0,0,0,449.31,256.5Z"/><path class="cls-9" d="M467,255.66a4.39,4.39,0,0,1-1.61,1.54,4.8,4.8,0,0,1-2.33.54,4.13,4.13,0,0,1-3.51-1.7,7.39,7.39,0,0,1-1.27-4.54v-.24a8.3,8.3,0,0,1,1.27-4.86,4,4,0,0,1,3.54-1.82,4.46,4.46,0,0,1,2.27.55,4.59,4.59,0,0,1,1.6,1.59v-6.31l-1.89-.16v-1h3.28v17.1l1.89.15v1h-3.13Zm-7.32-4.16a6.48,6.48,0,0,0,.91,3.66,3.07,3.07,0,0,0,2.74,1.36,3.83,3.83,0,0,0,2.23-.61,4.06,4.06,0,0,0,1.4-1.68v-6a4.26,4.26,0,0,0-1.34-1.75,3.54,3.54,0,0,0-2.26-.68,3,3,0,0,0-2.76,1.51,7.6,7.6,0,0,0-.92,3.95Z"/><path class="cls-9" d="M478,257.74A5,5,0,0,1,474,256a6.46,6.46,0,0,1-1.55-4.46v-.65a6.67,6.67,0,0,1,1.54-4.51,4.77,4.77,0,0,1,3.74-1.79,4.67,4.67,0,0,1,3.64,1.47,5.71,5.71,0,0,1,1.32,3.94v1.2h-8.86v.34a5.61,5.61,0,0,0,1.13,3.58,3.58,3.58,0,0,0,3,1.44,6,6,0,0,0,2.2-.36,4.36,4.36,0,0,0,1.57-1l.59,1a5,5,0,0,1-1.79,1.19A6.8,6.8,0,0,1,478,257.74Zm-.19-12a3.32,3.32,0,0,0-2.58,1.19,5.17,5.17,0,0,0-1.22,3l0,.06h7.36v-.35a4,4,0,0,0-1-2.76A3.25,3.25,0,0,0,477.76,245.77Z"/><path class="cls-9" d="M499.69,255.66a4.24,4.24,0,0,1-1.61,1.54,4.74,4.74,0,0,1-2.32.54,4.16,4.16,0,0,1-3.52-1.7A7.45,7.45,0,0,1,491,251.5v-.24a8.38,8.38,0,0,1,1.27-4.86,4.07,4.07,0,0,1,3.55-1.82,4.46,4.46,0,0,1,2.27.55,4.68,4.68,0,0,1,1.6,1.59v-6.31l-1.89-.16v-1h3.28v17.1l1.89.15v1h-3.13Zm-7.31-4.16a6.48,6.48,0,0,0,.91,3.66,3.06,3.06,0,0,0,2.74,1.36,3.85,3.85,0,0,0,2.23-.61,4.06,4.06,0,0,0,1.4-1.68v-6a4.35,4.35,0,0,0-1.34-1.75,3.55,3.55,0,0,0-2.27-.68,3,3,0,0,0-2.75,1.51,7.6,7.6,0,0,0-.92,3.95Z"/><path class="cls-9" d="M510.61,257.74a5,5,0,0,1-3.92-1.75,6.47,6.47,0,0,1-1.56-4.46v-.65a6.68,6.68,0,0,1,1.55-4.51,4.77,4.77,0,0,1,3.74-1.79,4.63,4.63,0,0,1,3.63,1.47,5.71,5.71,0,0,1,1.32,3.94v1.2h-8.86v.34a5.62,5.62,0,0,0,1.14,3.58,3.58,3.58,0,0,0,3,1.44,6,6,0,0,0,2.2-.36,4.45,4.45,0,0,0,1.57-1l.59,1a5,5,0,0,1-1.79,1.19A6.84,6.84,0,0,1,510.61,257.74Zm-.19-12a3.32,3.32,0,0,0-2.58,1.19,5.11,5.11,0,0,0-1.22,3l0,.06H514v-.35a4.07,4.07,0,0,0-1-2.76A3.25,3.25,0,0,0,510.42,245.77Z"/><path class="cls-9" d="M527,248.73h-1.14l-.16-1.8a3.62,3.62,0,0,0-1.31-.85,4.94,4.94,0,0,0-1.83-.31,3.41,3.41,0,0,0-2.28.66,2,2,0,0,0-.76,1.56,1.84,1.84,0,0,0,.66,1.45,6.29,6.29,0,0,0,2.61,1,8.29,8.29,0,0,1,3.35,1.38,2.86,2.86,0,0,1,1.12,2.37,3.1,3.1,0,0,1-1.27,2.56,5.39,5.39,0,0,1-3.36,1,7.6,7.6,0,0,1-2.54-.4,6,6,0,0,1-2-1.1v-2.56h1.12l.2,1.81a3.28,3.28,0,0,0,1.41.81,6.18,6.18,0,0,0,1.78.25,3.87,3.87,0,0,0,2.38-.66,2,2,0,0,0,.87-1.62,2.08,2.08,0,0,0-.73-1.56,5.75,5.75,0,0,0-2.61-1.09,8.71,8.71,0,0,1-3.33-1.31,2.68,2.68,0,0,1-1.08-2.28,3.05,3.05,0,0,1,1.22-2.45,4.87,4.87,0,0,1,3.21-1A7,7,0,0,1,525,245a4.94,4.94,0,0,1,1.86,1.15Z"/><path class="cls-9" d="M529.37,245.85v-1h3l.18,2a4.47,4.47,0,0,1,1.63-1.63,4.56,4.56,0,0,1,2.32-.57,4.07,4.07,0,0,1,3.54,1.82,8.3,8.3,0,0,1,1.27,4.86v.24a7.35,7.35,0,0,1-1.27,4.54,4.16,4.16,0,0,1-3.52,1.7,5,5,0,0,1-2.31-.51,4.26,4.26,0,0,1-1.62-1.45v5.39l1.89.15v1.05h-5.16v-1.05l1.89-.15V246Zm10.6,5.41a7.39,7.39,0,0,0-1-3.94,3.06,3.06,0,0,0-2.78-1.52,3.61,3.61,0,0,0-2.28.67,4.22,4.22,0,0,0-1.32,1.75v6.1A3.89,3.89,0,0,0,534,256a4,4,0,0,0,2.24.59,3.14,3.14,0,0,0,2.77-1.38,6.38,6.38,0,0,0,.94-3.67Z"/><path class="cls-9" d="M546.63,244.81l.17,2.11v.15a4.47,4.47,0,0,1,1.46-1.83,3.63,3.63,0,0,1,2.18-.66,3,3,0,0,1,.52,0,2.57,2.57,0,0,1,.41.09l-.18,1.31-1-.07a3.15,3.15,0,0,0-2.15.74,4.14,4.14,0,0,0-1.2,2.05v7.57l1.89.15v1h-5.16v-1l1.89-.15V246l-1.89-.16v-1h3.1Z"/><path class="cls-9" d="M552.94,251a6.83,6.83,0,0,1,1.52-4.59,5.43,5.43,0,0,1,8.06,0A6.89,6.89,0,0,1,564,251v.39a6.86,6.86,0,0,1-1.52,4.6,5.43,5.43,0,0,1-8.06,0,6.81,6.81,0,0,1-1.52-4.6Zm1.39.39a6.1,6.1,0,0,0,1.1,3.7,3.86,3.86,0,0,0,6.11,0,6,6,0,0,0,1.1-3.7V251a6.12,6.12,0,0,0-1.1-3.68,3.85,3.85,0,0,0-6.11,0,6.12,6.12,0,0,0-1.1,3.68Z"/><path class="cls-9" d="M569.49,241.57v3.24h2.76V246h-2.76v8.26a2.73,2.73,0,0,0,.44,1.77,1.52,1.52,0,0,0,1.19.52c.23,0,.44,0,.66,0l.73-.1.21,1a3.79,3.79,0,0,1-.85.24,6.61,6.61,0,0,1-1,.08,2.57,2.57,0,0,1-2.06-.85,4,4,0,0,1-.74-2.67V246h-2.15v-1.15h2.15v-3.24Z"/><path class="cls-9" d="M580.33,257.74a5,5,0,0,1-3.92-1.75,6.46,6.46,0,0,1-1.55-4.46v-.65a6.67,6.67,0,0,1,1.54-4.51,4.77,4.77,0,0,1,3.74-1.79,4.63,4.63,0,0,1,3.63,1.47A5.66,5.66,0,0,1,585.1,250v1.2h-8.86v.34a5.61,5.61,0,0,0,1.13,3.58,3.58,3.58,0,0,0,3,1.44,6,6,0,0,0,2.2-.36,4.36,4.36,0,0,0,1.57-1l.59,1a5,5,0,0,1-1.79,1.19A6.8,6.8,0,0,1,580.33,257.74Zm-.19-12a3.32,3.32,0,0,0-2.58,1.19,5.17,5.17,0,0,0-1.22,3l0,.06h7.36v-.35a4,4,0,0,0-1-2.76A3.25,3.25,0,0,0,580.14,245.77Z"/><path class="cls-9" d="M587.64,251.26a8.23,8.23,0,0,1,1.28-4.86,4.09,4.09,0,0,1,3.55-1.82,4.38,4.38,0,0,1,2.32.59,4.62,4.62,0,0,1,1.61,1.67l.16-2h1.18v12.52a5.47,5.47,0,0,1-1.31,3.86,4.74,4.74,0,0,1-3.66,1.42,9.07,9.07,0,0,1-1.93-.22,7.51,7.51,0,0,1-1.79-.61l.37-1.18a7.8,7.8,0,0,0,1.58.56,7.69,7.69,0,0,0,1.75.2,3.33,3.33,0,0,0,2.69-1.07,4.46,4.46,0,0,0,.91-3v-1.61a4.46,4.46,0,0,1-1.62,1.5,4.85,4.85,0,0,1-2.28.52,4.18,4.18,0,0,1-3.54-1.7,7.39,7.39,0,0,1-1.27-4.54Zm1.39.24a6.37,6.37,0,0,0,.92,3.65,3.1,3.1,0,0,0,2.75,1.37,3.91,3.91,0,0,0,2.26-.62,4.13,4.13,0,0,0,1.39-1.71V248.3a4.55,4.55,0,0,0-1.34-1.81,3.56,3.56,0,0,0-2.28-.69,3,3,0,0,0-2.77,1.52,7.49,7.49,0,0,0-.93,3.94Z"/><path class="cls-9" d="M600.8,256.46l1.89-.15V246l-1.89-.16v-1h3.27v11.5l1.89.15v1H600.8Zm3.27-15.28h-1.38v-2h1.38Z"/><path class="cls-9" d="M617,255.66a4.32,4.32,0,0,1-1.61,1.54,4.76,4.76,0,0,1-2.32.54,4.16,4.16,0,0,1-3.52-1.7,7.39,7.39,0,0,1-1.27-4.54v-.24a8.3,8.3,0,0,1,1.27-4.86,4.07,4.07,0,0,1,3.54-1.82,4.5,4.5,0,0,1,2.28.55,4.68,4.68,0,0,1,1.6,1.59v-6.31l-1.89-.16v-1h3.28v17.1l1.89.15v1h-3.13Zm-7.32-4.16a6.56,6.56,0,0,0,.91,3.66,3.09,3.09,0,0,0,2.75,1.36,3.85,3.85,0,0,0,2.23-.61,4.14,4.14,0,0,0,1.4-1.68v-6a4.35,4.35,0,0,0-1.34-1.75,3.57,3.57,0,0,0-2.27-.68,3,3,0,0,0-2.75,1.51,7.5,7.5,0,0,0-.93,3.95Z"/><path class="cls-9" d="M631.06,257.49a11.15,11.15,0,0,1-.2-1.11,7.46,7.46,0,0,1-.06-.95,5.59,5.59,0,0,1-1.85,1.65,5.22,5.22,0,0,1-2.61.66,4,4,0,0,1-2.86-1,3.44,3.44,0,0,1-1-2.61,3.19,3.19,0,0,1,1.49-2.78,7,7,0,0,1,4.06-1h2.77v-1.67a2.71,2.71,0,0,0-.86-2.13,3.49,3.49,0,0,0-2.42-.78,6.07,6.07,0,0,0-1.91.29,4.31,4.31,0,0,0-1.44.78l-.12,1.7H622.9l0-2.44A7.2,7.2,0,0,1,625,245a7.84,7.84,0,0,1,2.58-.42,5,5,0,0,1,3.34,1.06,3.78,3.78,0,0,1,1.26,3.06v6.24c0,.25,0,.5,0,.74s0,.47.07.7l1.26.08v1Zm-4.57-1a5,5,0,0,0,2.65-.71A4.12,4.12,0,0,0,630.8,254v-2.55H628a5.22,5.22,0,0,0-3,.79,2.37,2.37,0,0,0-1.14,2,2.11,2.11,0,0,0,.71,1.65A2.77,2.77,0,0,0,626.49,256.5Z"/><path class="cls-9" d="M646.81,257.74a5,5,0,0,1-3.92-1.75,6.47,6.47,0,0,1-1.56-4.46v-.65a6.68,6.68,0,0,1,1.55-4.51,4.75,4.75,0,0,1,3.74-1.79,4.63,4.63,0,0,1,3.63,1.47,5.71,5.71,0,0,1,1.32,3.94v1.2h-8.86v.34a5.67,5.67,0,0,0,1.13,3.58,3.6,3.6,0,0,0,3,1.44,6,6,0,0,0,2.2-.36,4.32,4.32,0,0,0,1.56-1l.6,1a5.06,5.06,0,0,1-1.79,1.19A6.87,6.87,0,0,1,646.81,257.74Zm-.19-12A3.32,3.32,0,0,0,644,247a5.18,5.18,0,0,0-1.23,3l0,.06h7.35v-.35a4.07,4.07,0,0,0-1-2.76A3.25,3.25,0,0,0,646.62,245.77Z"/><path class="cls-9" d="M668.93,248.73H667.8l-.17-1.8a3.46,3.46,0,0,0-1.31-.85,4.94,4.94,0,0,0-1.83-.31,3.41,3.41,0,0,0-2.28.66,2,2,0,0,0-.76,1.56,1.84,1.84,0,0,0,.66,1.45,6.42,6.42,0,0,0,2.61,1,8.23,8.23,0,0,1,3.35,1.38,2.83,2.83,0,0,1,1.12,2.37,3.07,3.07,0,0,1-1.27,2.56,5.39,5.39,0,0,1-3.36,1,7.5,7.5,0,0,1-2.53-.4,6.14,6.14,0,0,1-2-1.1v-2.56h1.12l.2,1.81a3.28,3.28,0,0,0,1.41.81,6.18,6.18,0,0,0,1.78.25,3.85,3.85,0,0,0,2.38-.66,2,2,0,0,0,.87-1.62,2,2,0,0,0-.73-1.56,5.75,5.75,0,0,0-2.61-1.09,8.65,8.65,0,0,1-3.32-1.31,2.67,2.67,0,0,1-1.09-2.28,3.08,3.08,0,0,1,1.22-2.45,4.87,4.87,0,0,1,3.21-1A7,7,0,0,1,667,245a5,5,0,0,1,1.87,1.15Z"/><path class="cls-9" d="M677.25,257.74a5,5,0,0,1-3.92-1.75,6.47,6.47,0,0,1-1.56-4.46v-.65a6.68,6.68,0,0,1,1.55-4.51,4.75,4.75,0,0,1,3.74-1.79,4.63,4.63,0,0,1,3.63,1.47A5.71,5.71,0,0,1,682,250v1.2h-8.86v.34a5.67,5.67,0,0,0,1.13,3.58,3.61,3.61,0,0,0,3,1.44,6,6,0,0,0,2.2-.36,4.45,4.45,0,0,0,1.57-1l.59,1a5,5,0,0,1-1.79,1.19A6.84,6.84,0,0,1,677.25,257.74Zm-.19-12a3.32,3.32,0,0,0-2.58,1.19,5.11,5.11,0,0,0-1.22,3l0,.06h7.35v-.35a4.07,4.07,0,0,0-1-2.76A3.25,3.25,0,0,0,677.06,245.77Z"/><path class="cls-9" d="M693.91,245.85l-1.56.12,3.13,8.35.4,1.48H696l.44-1.48,3.09-8.35-1.57-.12v-1h4.22v1l-1.22.11-4.43,11.53h-1.12L690.92,246l-1.23-.11v-1h4.22Z"/><path class="cls-9" d="M703.57,256.46l1.89-.15V246l-1.89-.16v-1h3.27v11.5l1.89.15v1h-5.16Zm3.27-15.28h-1.38v-2h1.38Z"/><path class="cls-9" d="M710.81,256.46l1.89-.15V246l-1.89-.16v-1h3.12l.13,2.22a4.33,4.33,0,0,1,4.06-2.45,3.86,3.86,0,0,1,3.11,1.26,6,6,0,0,1,1.06,3.93v6.54l1.89.15v1H719v-1l1.89-.15v-6.53a4.6,4.6,0,0,0-.81-3.08,2.9,2.9,0,0,0-2.29-.9,3.57,3.57,0,0,0-2.38.78,4.3,4.3,0,0,0-1.33,2.06v7.67l1.89.15v1h-5.17Z"/><path class="cls-9" d="M726.3,251.26a8.23,8.23,0,0,1,1.29-4.86,4.09,4.09,0,0,1,3.55-1.82,4.32,4.32,0,0,1,2.31.59,4.56,4.56,0,0,1,1.62,1.67l.16-2h1.18v12.52a5.47,5.47,0,0,1-1.31,3.86,4.74,4.74,0,0,1-3.66,1.42,9.07,9.07,0,0,1-1.93-.22,7.51,7.51,0,0,1-1.79-.61l.37-1.18a7.8,7.8,0,0,0,1.58.56,7.69,7.69,0,0,0,1.75.2,3.33,3.33,0,0,0,2.69-1.07,4.45,4.45,0,0,0,.9-3v-1.61a4.36,4.36,0,0,1-1.61,1.5,4.85,4.85,0,0,1-2.28.52,4.18,4.18,0,0,1-3.54-1.7,7.39,7.39,0,0,1-1.28-4.54Zm1.4.24a6.37,6.37,0,0,0,.92,3.65,3.1,3.1,0,0,0,2.75,1.37,3.91,3.91,0,0,0,2.26-.62,4,4,0,0,0,1.38-1.71V248.3a4.52,4.52,0,0,0-1.33-1.81,3.56,3.56,0,0,0-2.28-.69,3,3,0,0,0-2.77,1.52,7.49,7.49,0,0,0-.93,3.94Z"/><path class="cls-9" d="M748.78,255.41a4.27,4.27,0,0,1-1.62,1.72,4.7,4.7,0,0,1-2.42.61,3.82,3.82,0,0,1-3.1-1.36,6.61,6.61,0,0,1-1.12-4.22V246l-1.55-.16v-1h2.93v7.37a5.43,5.43,0,0,0,.79,3.33,2.65,2.65,0,0,0,2.22,1,4.15,4.15,0,0,0,2.51-.7,3.71,3.71,0,0,0,1.31-1.95V246l-1.78-.16v-1h3.17v11.5l1.69.15v1h-2.9Z"/><path class="cls-9" d="M759.38,257.74a5,5,0,0,1-3.92-1.75,6.46,6.46,0,0,1-1.55-4.46v-.65a6.67,6.67,0,0,1,1.54-4.51,4.77,4.77,0,0,1,3.74-1.79,4.63,4.63,0,0,1,3.63,1.47,5.66,5.66,0,0,1,1.33,3.94v1.2h-8.86v.34a5.61,5.61,0,0,0,1.13,3.58,3.58,3.58,0,0,0,3,1.44,6,6,0,0,0,2.2-.36,4.36,4.36,0,0,0,1.57-1l.59,1A5,5,0,0,1,762,257.3,6.8,6.8,0,0,1,759.38,257.74Zm-.19-12a3.32,3.32,0,0,0-2.58,1.19,5.17,5.17,0,0,0-1.22,3l0,.06h7.36v-.35a4,4,0,0,0-1-2.76A3.25,3.25,0,0,0,759.19,245.77Z"/><path class="cls-9" d="M766.33,245.85v-1h3.12l.12,2.1a4.41,4.41,0,0,1,1.62-1.72,4.51,4.51,0,0,1,2.4-.61,3.62,3.62,0,0,1,3.78,2.87,5.07,5.07,0,0,1,1.61-2.11,4.26,4.26,0,0,1,2.56-.76,3.78,3.78,0,0,1,3.1,1.34,6.51,6.51,0,0,1,1.1,4.18v6.2l1.89.16v1h-5.18v-1l1.89-.16v-6.23a5.22,5.22,0,0,0-.82-3.31,2.83,2.83,0,0,0-2.28-1,3.06,3.06,0,0,0-2.5,1,5,5,0,0,0-1.08,2.66v.17a1.41,1.41,0,0,1,0,.22v6.42l1.89.15v1h-5.17v-1l1.89-.15v-6.24a5.13,5.13,0,0,0-.83-3.28,2.81,2.81,0,0,0-2.28-1,3.47,3.47,0,0,0-2.35.75,4,4,0,0,0-1.21,2v7.72l1.89.15v1h-5.17v-1l1.89-.15V246Z"/><path class="cls-9" d="M791.53,257.49h-1.65v-2h1.65Zm-.14-5.6H790V240.43h1.38Z"/><g class="cls-10"><path class="cls-3" d="M160.91,146.49a11.16,11.16,0,0,1,8,3.63,18.92,18.92,0,0,1,4.81-.64,17.54,17.54,0,0,1,13.05,5.94c14.34,5.38,8.65,14,8.32,14.5l.16,0s8.41,5.88,5.53,8.76c0,0,5.19,6.45,1,9.91a4.77,4.77,0,0,1-1.5.75c11.79,18.37,18.82,50.79,14.18,77.53-.92,5.29-7,9.1-23.27,9.1h0a86.55,86.55,0,0,1-15.76-1.4c.15,1.24.33,2.6.51,4h0c.81,5.83,2,12.44,3.3,13.42,8.32,6.24,20.71,8.83,27.68,9.84l10.09.94a25.3,25.3,0,0,1,2.24,2.54h.11c3,0,5.43,3.33,5.43,3.33l39.78,69.63-34.33,61.6S241.73,459.21,236,468l8,7.95s1.27,4.27-4.5,4.27c-1.72,0-4.13-.91-6.68-2.17a434.15,434.15,0,0,1,1.59,45.12,43.08,43.08,0,0,0-4.64-.7l0,2.95h0c-.11,20.47-.05,50,1.17,56.77,1.9,10.55,0,15.73,0,15.73S236,680,236,680.6s7.27,10,7.27,10,9.6,7.56,17.07,13.56h0s4.5,1.17,6.26,2.64a6.1,6.1,0,0,1,1.88,3.93c.5.33,1.33.89,2.27,1.57a24.15,24.15,0,0,0,6.49,1.21c1,1,0,2.15-1.34,3,.75.8,1.2,1.5,1.07,2-.49,1.8-7.44,9.12-20,9.12-.71,0-1.43,0-2.18-.07-13.2-.87-31.5-14.93-33-18.85a11.64,11.64,0,0,1,.19-7.89c0-3.34,2-7.34,3.13-9.34,1.73-3.11,2.94-11.93,2.94-11.93-19-66.75-8.13-76.14-10.2-81-1.32-3.08-13.07-46.77-21.46-78.2h0l0-.14c-.48-1.82-1-3.6-1.42-5.32a22.5,22.5,0,0,1-4.34-2.57,136.25,136.25,0,0,1-22.82,9.05l-2.42,6-22.66,56.83s-4.29,15.83-9.39,20.93a225.34,225.34,0,0,1-12.63,36.48c-8.64,19.37-12.45,46-12.45,46s6.2,15.73,6.93,25.56c7.28,10,13.82,22.28,5.14,25.91a49.73,49.73,0,0,1-18.87,3.32c-10.46,0-19.84-2.45-22-4.63-3.52-3.52,6.46-30.15,6.46-30.15.31-2.42,1-4.75,2.39-5.74,3.46-2.42,7.61-8.3,7.61-8.3s-1.3-3.46,2.33-8.13,9-34.61,9-38.53-4.85-33.2,11.29-44.72c0,0,1.85-37.44,6.58-64.52h0c.51-3.08,1.07-6,1.68-8.74-4.95.41-7.93.46-7.93.46s4.79-13.35,10.91-30.53c-5.22-.5-1.78-8.6-1.78-8.6a43.86,43.86,0,0,0,6.13-3.61q1-2.81,2-5.63c-1.73-4.26,2.59-17.51,2.59-17.51l-15.85-12L76.75,416.86s37-87.26,38.51-88.76c1-1,8.11-5.16,13-8,5.16-5.15,16.23-9.24,16.23-9.24s10.55-11.93,12.8-14.17,1.21-8.48,1.21-8.48L152.77,266c-10.21-6.41-14.23-13.55-14.23-13.55a5.12,5.12,0,0,1-3.76,1.51c-3.35,0-6.73-2.55-6.73-2.55s-14.64-14.64-10-21.56a4.35,4.35,0,0,1,3.8-2.09c3,0,6.61,2.49,9.14,4.62-5.19-4.53-8-5.15-9.1-5.15l-.35,0-.09.07-.07,0-.1,0,0-.11c-1.09-.55-6-3.24-6.42-7.79-8.27-2.59-6.67-7.2-6.67-7.2-8-5.42,0-14.12,0-14.12-3.55-3.55-.81-8.71-.81-8.71-4.15-5.88,1-13.14,1-13.14.58-6.34,10.09-10.08,10.09-10.08.74-3.17,4.66-4.67,4.66-4.67a6.94,6.94,0,0,1,6.39-3.95,4,4,0,0,1,.53,0c3.45-7.45,16.38-8.17,21.21-8.17,1.15,0,1.84,0,1.84,0a12.92,12.92,0,0,1,7.85-3m65,272.39,21.34-38.49L227,350.22c.54,8.66.87,17.57.78,25.95a338.19,338.19,0,0,1-3,40.92,2.84,2.84,0,0,1,1.17,1.79m-78,28.67c2.07-5.9,3.86-11.07,5.21-15-2.14-4.29,1.21-6.22,2.22-6.68.12-.38.21-.7.27-.92,2.08-7.61-17.46-44.93-17.46-44.93l-16.5-10.34L98.51,413.15l37,25.76,12.41,8.64M268,710.36h0M160.91,141.12h0a17.5,17.5,0,0,0-9.47,3h-.22c-6.95,0-18.65,1.16-24.31,8.39a12.05,12.05,0,0,0-7.62,5,13.57,13.57,0,0,0-5,4.74c-3.43,1.75-9.7,5.73-11.09,12.13-2.19,3.63-4.23,9.76-1.8,15.53a13.15,13.15,0,0,0,.26,8.08,16,16,0,0,0-2.4,9.7,12,12,0,0,0,3.46,7.11,9.68,9.68,0,0,0,.93,2.82,13.21,13.21,0,0,0,6.62,5.92,14.42,14.42,0,0,0,2.76,4.27c-2.61,4.77-1.32,11,3.81,18.54a68.59,68.59,0,0,0,7.39,8.95l.56.49c.8.61,5.06,3.63,10,3.63a12,12,0,0,0,2-.17,53.91,53.91,0,0,0,11.32,10.2l5.18,19.92a12.29,12.29,0,0,1,0,3.88c-2.34,2.41-9.3,10.25-11.87,13.15-3.25,1.3-11.36,4.82-16.32,9.45-12,6.91-13,7.88-13.6,8.52-1,1-1.66,1.67-20.95,46.62-9.33,21.77-18.6,43.63-18.69,43.84l1.7,6.38,46.06,34.73,12.86,9.7c-1.34,4.77-2.59,10.81-1.95,15.15l-.89,2.52a42.38,42.38,0,0,1-4,2.2L123,488.19c-.73,1.72-2.9,7.66-.26,12.09a8,8,0,0,0,.52.77c-5.43,15.22-9.5,26.57-9.5,26.57l5.15,7.17,1.21,0c-.12.68-.23,1.37-.35,2.06h0c-4.09,23.43-6,53.89-6.51,62.7C98.91,612.06,101,636.6,101.67,644.91c.07.82.15,1.76.15,2-.06,4.37-5.38,31.48-7.89,35.27a16.18,16.18,0,0,0-3.66,9.92,30.61,30.61,0,0,1-5.09,5.38c-2.42,1.69-3.91,4.58-4.55,8.82-.66,1.78-2.71,7.48-4.47,13.57-3.64,12.57-3.79,18.44-.56,21.68,4.08,4.07,16.08,6.21,25.82,6.21a54.87,54.87,0,0,0,20.94-3.74,11.52,11.52,0,0,0,7-7.64c1.71-6.14-1.14-14.17-9-25.18-1-8.73-5.12-20.23-6.6-24.18.89-5.56,4.68-27.2,11.83-43.22a233,233,0,0,0,12.62-36.11c5.06-6.2,8.7-18.54,9.59-21.78l22.56-56.55,1.46-3.68a140.76,140.76,0,0,0,18.42-7.24l.14.08.81,3,0,.08v.05c18.18,68.09,20.87,76.71,21.56,78.54,0,.49-.2,1.48-.34,2.29-1.3,7.82-4.34,26,10.16,77.34-.56,3.54-1.5,7.78-2.16,9-2.29,4.13-3.56,7.81-3.77,11a16.61,16.61,0,0,0,.13,10.8c1.95,5.09,12.19,11.86,14.22,13.17,4.92,3.15,14.5,8.53,23.43,9.11.85.06,1.7.08,2.53.08,14.4,0,23.91-8.38,25.19-13.07a6.12,6.12,0,0,0,.15-2.49,6.59,6.59,0,0,0-1.26-7.7l-3.57-1.56a20.86,20.86,0,0,1-4.23-.67,10.47,10.47,0,0,0-3.2-4.8,21.77,21.77,0,0,0-7.19-3.4c-6.27-5-13.74-10.91-15.75-12.49-2.24-2.9-4.74-6.21-5.82-7.77-.25-4.25-1.23-20.1-5.05-80.54.6-2.44,1.5-8.21-.14-17.25-.84-4.69-1.23-24.56-1.08-54.6l4.68-3.35c0-.84.41-18.56-.94-37.73l.67,0c4.67,0,7.11-2,8.34-3.61a8.7,8.7,0,0,0,1.3-7.55l-1.35-2.26-5.4-5.4c1.28-4.72.6-10.73-2-17.94a76.94,76.94,0,0,0-3.95-8.93l32.89-59,0-5.27L229.41,306l-.3-.48a14.27,14.27,0,0,0-7.06-5.17c-.41-.45-.83-.91-1.28-1.35l-3.3-1.55-9.95-.93c-6.05-.89-16.92-3.1-24.3-8.22a50.89,50.89,0,0,1-1.55-7.36c3.1.31,6.27.46,9.49.46,6.5,0,26.22,0,28.57-13.54,4.31-24.82-.94-56.42-12.53-77.29,2.49-3.78,1.73-8.59-.53-12.59a8.58,8.58,0,0,0,0-1.34c-.28-3.27-2.71-6.26-5.16-8.48a12.76,12.76,0,0,0-.29-6.57c-1.42-4.52-5.23-8.1-11.34-10.65a23.2,23.2,0,0,0-16.2-6.77,22.4,22.4,0,0,0-3.25.23,15.91,15.91,0,0,0-9.51-3.23Zm71.37,255.24c.42-6,.76-12.84.84-20.13,0-2.32,0-4.75,0-7.29L241,380.66l-8.71,15.7Zm-126.8,15.11,18.19-34.21,10.38,6.5c1.43,2.79,5,9.77,8.37,17.31,6.37,14,7.68,19.69,7.92,21.69a9.84,9.84,0,0,0-2.77,4.05,9.7,9.7,0,0,0-.16,5.79q-1,2.85-2.25,6.51l-6.61-4.6-33.07-23Z"/><path class="cls-5" d="M152,263l6.57,25.24s1,6.23-1.21,8.48-12.8,14.17-12.8,14.17l-5.87,11.59,34.06,19.36,40.63-10.89-1.21-28.53s-20.8-1.32-32.94-10.43c-2.38-1.79-4.41-22.59-4.41-22.59Z"/><path class="cls-11" d="M175.91,278.54c-.64-4.65-1.16-9.34-1.16-9.34l-22.82-6.4,1.83,7s7.14,4.66,9.36,5.63A43.29,43.29,0,0,0,175.91,278.54Z"/><path class="cls-5" d="M133,317.4s-16.28,9.2-17.77,10.7-38.51,88.76-38.51,88.76l46.06,34.73,15.85,12s-5,15.39-2.08,18.33-8.64,8.42-8.64,8.42-4.5,10.6,4.61,8.3S154,490.17,154,490.17l6.11-34.12-24.61-17.14-37-25.76,23.13-43.49L138.14,380l20.23-14.78L143.84,329l-6.22-13.6Z"/><path class="cls-5" d="M138.54,252.48S151.74,276,191.16,276c16.31,0,22.37-3.81,23.29-9.1,5.77-33.27-6.52-75.34-23.58-88.19-15-11.26-68,31.36-68,31.36l11.3,25.36S122.63,223,118,229.88s10,21.56,10,21.56S134.62,256.4,138.54,252.48Z"/><path class="cls-5" d="M217.32,305.79c3.92-2.07,7.43,2.82,7.43,2.82l39.78,69.63-34.33,61.6S241.73,459.21,236,468l8,7.95s1.27,4.27-4.5,4.27S220.06,470,220.06,470l1.57-43.42,25.64-46.23-23.54-35-7.36-6.53S210,309.66,217.32,305.79Z"/><path class="cls-5" d="M176,500.7l-33.31,83.53s-4.29,15.83-9.39,20.93a225.34,225.34,0,0,1-12.63,36.48c-8.64,19.37-12.45,46-12.45,46s7.87,20,6.92,29c0,0,7.52,10.37,4.5,16.34s-14.87,2.42-14.87,2.42S85,738,82,733s3.72-18.15,3.72-18.15-1-10.55,2.5-13,7.61-8.3,7.61-8.3-1.3-3.46,2.33-8.13,9-34.61,9-38.53-4.85-33.2,11.29-44.72c0,0,3.92-79.54,15-90.61S176,494,176,494Z"/><path class="cls-12" d="M176,500.7l-10.65,26.7s-14.73,6.58-18.46,7.5c-2.77.68-22.49,6.78-21.83,2.8,2.07-12.43,4.93-22.61,8.41-26.09C144.53,500.55,176,494,176,494Z"/><path class="cls-5" d="M187.88,488.33s27.89,105.36,30,110.2-8.82,14.23,10.2,81c0,0-1.21,8.82-2.94,11.93s-5.71,11.06-.69,13.83,21.27,16.6,28.18,17.81,19.89-4.84,19.89-4.84,6.91-2.59,4.75-4.76c0,0-6.31-.26-8.38-2.33s-25.59-20.58-25.59-20.58-7.27-9.33-7.27-10-5.18-82.71-5.18-82.71,1.9-5.18,0-15.73-1-77-1-77Z"/><path class="cls-12" d="M187.88,488.33s6.56,24.7,8.51,32c.75,2.8,33.27,5.06,33.27,5.06l.18-20.23Z"/><path class="cls-13" d="M187.88,509.19c5.39,10.7,43.31,13,46.45,13.95,0,0,1-42.95-5.06-67.07S187.88,509.19,187.88,509.19Z"/><path class="cls-14" d="M141.77,243c6.68,2.76.92-9.23.92-9.23s-.63-12-4-14.06a48.43,48.43,0,0,1-7.43-6.06L195,169.94s6.46-9-8.3-14.52a17.55,17.55,0,0,0-17.86-5.3s-6.46-7.73-15.8-.64c0,0-18.78-1.09-23.05,8.13a7,7,0,0,0-6.92,3.92s-3.92,1.5-4.66,4.67c0,0-9.51,3.74-10.09,10.08,0,0-5.19,7.26-1,13.14,0,0-2.74,5.16.81,8.71,0,0-8,8.7,0,14.12,0,0-2,5.65,9.68,7.95l3.46,7.15s3.33-1.51,12.91,8.07Z"/><path class="cls-11" d="M188.22,243.67a2.26,2.26,0,0,1,0-4.52c2.44,0,10.61-2.05,15.31-3.66-1.45-11.88-10.39-20.75-14.92-25.08a2.26,2.26,0,1,1,3.12-3.26c5.22,5,14.12,15.48,15.11,29.72l.12,1.71-1.61.58C204.07,239.62,192.64,243.67,188.22,243.67Z"/><path class="cls-11" d="M133.64,249.83s-.34-15.13-12-18.76"/><path class="cls-11" d="M121.64,369.66s10-13.37,8.66-11.33c-7.3,11.3,18.69,24.34,24.78,17.38,0,0-6.05,7.72-16.94,4.29Z"/><path class="cls-15" d="M144.53,310.86S133.46,315,128.3,320.1c0,0,31,45,9.84,59.9,0,0,19.54,37.32,17.46,44.93s-36.79,104.49-36.79,104.49,107.21-1.9,111-72l-5.08-40.34a338.19,338.19,0,0,0,3-40.92c.22-19.69-1.93-42.32-3.51-57.76A24.93,24.93,0,0,0,217,302.74l-10.09-.94s8,26.7-10.47,29.23C186.46,332.39,162.52,335.6,144.53,310.86Z"/><g class="cls-16"><path class="cls-17" d="M122.81,532.05s107.2-1.91,111-72Z"/></g><path class="cls-15" d="M144.53,310.86S133.46,315,128.3,320.1c0,0,31,45,9.84,59.9,0,0,19.54,37.32,17.46,44.93s-36.79,104.49-36.79,104.49,107.21-1.9,111-72l-5.08-40.34a338.19,338.19,0,0,0,3-40.92c.22-19.69-1.93-42.32-3.51-57.76A24.93,24.93,0,0,0,217,302.74l-10.09-.94s8,26.7-10.47,29.23C186.46,332.39,162.52,335.6,144.53,310.86Z"/><path class="cls-5" d="M122.81,451.59l15.85,12s-5,15.39-2.08,18.33-8.64,8.42-8.64,8.42-4.5,10.6,4.61,8.3S154,490.17,154,490.17l5.18-28.94s1.59-5.68-4.87-9.47c-5-2.93-18.81-12.85-18.81-12.85Z"/><path class="cls-4" d="M153.22,432.77s56.52,7.52,72.2-10.46c0,0,1.71-3.55-.66-5.22.34,3.32-26.54,17.8-69.16,8.64C155.6,425.73,150.45,427.58,153.22,432.77Z"/><circle class="cls-18" cx="200.17" cy="430.04" r="13.18"/><g class="cls-19"><path class="cls-20" d="M137.57,175s-5.66,6.86,1.52,11.45c2.51,1.6-7.44,9.33-7.44,9.33l-4,22.57s5.19-2.09,8.65-2.09l18.2,20.85-11.67,7.29-37.24-25.09L80.79,171.44l31.93-29,34.93-8.13-6.14,12.17s-14.83,9.06-9.17,15.59C128.8,164.57,128.11,174.35,137.57,175Z"/></g><path class="cls-9" d="M121.42,227.35s-6.68-3-6.68-8.53S140.79,161,195.2,169.94c0,0,8.41,5.88,5.53,8.76,0,0,5.19,6.45,1,9.91S177.44,187,121.42,227.35Z"/><path class="cls-21" d="M124.36,215.14s34.81-42.43,72.05-36.9C196.41,178.24,161.71,180.1,124.36,215.14Z"/><path class="cls-22" d="M201.62,441.05c-2.07,0-6.51-.41-9.42-3.66-2.53-2.82-3.23-6.91-2.1-12.16a2.26,2.26,0,1,1,4.41.95c-.81,3.76-.46,6.52,1.05,8.19,2.26,2.53,6.67,2.16,6.71,2.14a2.27,2.27,0,0,1,2.48,2,2.25,2.25,0,0,1-2,2.47A9.94,9.94,0,0,1,201.62,441.05Z"/><path class="cls-23" d="M208.13,436.58a2.09,2.09,0,0,1-.49-.05,2.26,2.26,0,0,1-1.71-2.69c.83-3.75.49-6.51-1-8.2-2.25-2.54-6.66-2.18-6.7-2.18a2.26,2.26,0,1,1-.44-4.49c.27,0,6.72-.61,10.52,3.68,2.51,2.83,3.19,6.92,2,12.16A2.26,2.26,0,0,1,208.13,436.58Z"/><path class="cls-24" d="M169.3,209.38c1.95-2,4.81-2.46,7.45-2.86,1.68-.25,1.62-2.94-.09-2.68-3.37.51-6.8,1.15-9.29,3.68-1.22,1.23.72,3.09,1.93,1.86Z"/><path class="cls-24" d="M195.25,203.79a5.72,5.72,0,0,1,5-.55,1.34,1.34,0,0,0,.9-2.52,8.6,8.6,0,0,0-7.67,1c-1.44,1,.33,3,1.76,2Z"/><ellipse class="cls-24" cx="174.33" cy="214.15" rx="3.01" ry="4.11" transform="translate(-46.93 48.94) rotate(-14.1)"/><ellipse class="cls-24" cx="199.49" cy="210.1" rx="3.01" ry="4.11" transform="translate(-45.18 54.95) rotate(-14.1)"/></g><path class="cls-25" d="M174.06,248.53c-.33-.41,22,3.15,31-2.49,0,0,.35,17.21-7.45,18.48C189.62,265.82,180.77,262,174.06,248.53Z"/><path class="cls-26" d="M176.9,252.48c6.62,1.71,19,3.75,26.08-2.33l-.49-2.53-.17-.9-11.74,2.44-16.26-.32S176.38,252.34,176.9,252.48Z"/><path class="cls-27" d="M179.94,256.88a18.83,18.83,0,0,1,13.21,1.41c4.15,2.07,4.84,4.44,4.16,6.53-.05.17,0,.47-.19.5C192.36,266.28,175.69,257.79,179.94,256.88Z"/><path class="cls-11" d="M194.13,265.83c-13.21,0-20.89-16.69-21-16.89l-.74-1.63,1.78.23c.21,0,20.84,2.66,30.45-2.38a1,1,0,1,1,.92,1.76c-8.5,4.48-24.31,3.37-29.75,2.82,2.56,4.65,10.94,17.47,23.26,13.22a1,1,0,1,1,.65,1.89A16.9,16.9,0,0,1,194.13,265.83Z"/></svg>