<svg id="Camada_1" data-name="Camada 1" xmlns="http://www.w3.org/2000/svg" xmlns:xlink="http://www.w3.org/1999/xlink" viewBox="0 0 849.53 508.08"><defs><style>.cls-1{fill:none;}.cls-2{fill:#eaa000;}.cls-3{fill:#97d8dd;}.cls-4{fill:#027e8f;}.cls-5{fill:#65c4d1;}.cls-6{fill:#fff;}.cls-7{clip-path:url(#clip-path);}.cls-8{fill:#b7b7b7;}.cls-9{fill:#eac2a7;}.cls-10{fill:#d6aa8b;}.cls-11{fill:#d6d6d6;}.cls-12{clip-path:url(#clip-path-2);}.cls-13{fill:#c99f4b;}.cls-14{fill:#493e38;}.cls-15{clip-path:url(#clip-path-3);}.cls-16{fill:#fcfcfc;}.cls-17{fill:#d32222;}.cls-18{fill:#c9a68f;}.cls-19{clip-path:url(#clip-path-4);}.cls-20{fill:#aa7e30;}.cls-21{fill:#ddd;}.cls-22{fill:#6d5f56;}.cls-23{fill:#af9482;}.cls-24{fill:#f4f4f4;}.cls-25{fill:#6d472e;}.cls-26{fill:#c99e32;}.cls-27{fill:#846829;}.cls-28{fill:#e8cd95;}.cls-29{clip-path:url(#clip-path-5);}</style><clipPath id="clip-path"><path class="cls-1" d="M237.21,488s-45.9,31.33-135-4.58c-56-22.55-43.84-246.86-43.84-246.86s65.21-102.88,102-100.72c18.94,1.11,70.91-3.93,70.91,33.32,0,10.4,12.69,4.85,18.14,29.06.65,2.92-7.56,32-6.86,35,14.32,61.48,37.19,140.39,37.19,140.39S300,447,289.85,452.55"/></clipPath><clipPath id="clip-path-2"><path class="cls-1" d="M184,506.05c5.56,11,44.68,13.36,47.92,14.39,0,0,1-44.3-5.22-69.19S184,506.05,184,506.05Z"/></clipPath><clipPath id="clip-path-3"><path class="cls-1" d="M181.07,248.3c-.25-.51,22.12,8.26,32.82,4.46,0,0-3.56,18-11.95,17.51C193.3,269.8,185,263.77,181.07,248.3Z"/></clipPath><clipPath id="clip-path-4"><path class="cls-1" d="M149.93,233.79c5.78,4.73,3.67-8.83,3.67-8.83s3-12.06.22-15.09a50.19,50.19,0,0,1-5.51-8.21l20.37-6.46,55.68-17.65s9.06-6.94-3.85-16.82a18.11,18.11,0,0,0-16.06-10.57s-4.06-9.56-15.4-5.35c0,0-18.22-6.7-25.19,1.13a7.24,7.24,0,0,0-8,1.8s-4.32.31-6,3.22c0,0-10.51.85-13,6.94,0,0-7.29,5.62-4.95,12.66,0,0-4.25,4.28-1.81,8.84,0,0-10.45,6.21-4.22,13.94,0,0-3.62,5,7.19,10.75l1.27,8.08s3.74-.49,10.34,11.83Z"/></clipPath><clipPath id="clip-path-5"><path class="cls-1" d="M237.87-98.55s-45.91,31.32-135-4.59C46.84-125.69,59-350,59-350S124.2-452.87,160.93-450.72c18.94,1.12,70.92-3.93,70.92,33.32,0,10.41,12.68,4.85,18.13,29.06.66,2.92-7.56,32-6.86,35,14.32,61.48,37.2,140.39,37.2,140.39S300.68-139.61,290.5-134"/></clipPath></defs><title>Fala1</title><path class="cls-2" d="M176.61,157.85C270.08,158,345.82,234.5,345.93,329S270.12,500,176.61,500,7.29,423.44,7.29,329s75.81-171.1,169.32-171.1m0-8h0a174.69,174.69,0,0,0-69.05,14.09,176.7,176.7,0,0,0-56.36,38.4,180.11,180.11,0,0,0,0,253.21A176.53,176.53,0,0,0,107.56,494a176.24,176.24,0,0,0,138.1,0A178.86,178.86,0,0,0,340,398.63,180.09,180.09,0,0,0,302,202.4,176.72,176.72,0,0,0,245.63,164a174.9,174.9,0,0,0-69-14.15Z"/><path class="cls-3" d="M176.61,157.85C83.1,157.85,7.29,234.45,7.29,329S83.1,500,176.61,500,345.93,423.44,345.93,329,270.08,158,176.61,157.85Zm0,330.78c-87.28,0-158-71.49-158-159.68s70.75-159.69,158-159.69,158,71.49,158,159.69S263.85,488.53,176.61,488.63Z"/><path class="cls-3" d="M256.52,204.66a5.62,5.62,0,0,0-7.82,1.67l-9.23,14.34a5.73,5.73,0,0,0,1.79,8,74.63,74.63,0,0,1,6.33,4.56c1.27,1,2.54,2,3.54,2.66,1.75,1.46,3.43,3,5.1,4.55l-3.9,4a112.35,112.35,0,0,0-24.74-17.13l11.54-26.16a5.72,5.72,0,0,0-2.86-7.54,146.5,146.5,0,0,0-52-12.51,5.57,5.57,0,0,0-4.07,1.45,5.67,5.67,0,0,0-1.85,4l-.88,17.08a5.69,5.69,0,0,0,5.33,6l5.94.31,6.34,1c.81.14,1.62.26,2.43.38,1.23.18,2.45.35,3.52.6l.78.2-1.49,5.58a114.09,114.09,0,0,0-29.89-2.44l-2.92-28.54a5.76,5.76,0,0,0-2.06-3.84,5.63,5.63,0,0,0-4.15-1.24A144.31,144.31,0,0,0,110,196.92a5.74,5.74,0,0,0-2.46,7.67l7.7,15.24a5.63,5.63,0,0,0,7.4,2.58c1.14-.53,2.26-1.09,3.39-1.64a58.13,58.13,0,0,1,8.06-3.51l1.44-.54c1.7-.63,3.35-1.25,5-1.81l1.46,5.52c-1.39.48-2.74,1-4.08,1.48l-1.34.52a53.78,53.78,0,0,0-8,3.43c-1,.49-1.93,1-3.39,1.67l-9.56,5.56-.65.37L98.3,210.35a5.6,5.6,0,0,0-7.88-1.26A147.89,147.89,0,0,0,53.61,248.2a5.76,5.76,0,0,0-.79,4.3,5.68,5.68,0,0,0,2.45,3.6l14.19,9.33a5.61,5.61,0,0,0,4.33.78,5.7,5.7,0,0,0,3.57-2.59,71,71,0,0,1,4.49-6.38c1-1.3,2-2.59,2.65-3.6,1.44-1.76,3-3.46,4.5-5.15l3.91,3.94a113.64,113.64,0,0,0-17,25L50.07,265.76a5.63,5.63,0,0,0-7.46,2.9,150.25,150.25,0,0,0-12.38,52.56,5.67,5.67,0,0,0,5.34,6l16.91.88a5.58,5.58,0,0,0,4.08-1.44,5.71,5.71,0,0,0,1.85-3.95l.3-6,1-6.39c.14-.82.26-1.65.37-2.48.18-1.23.35-2.47.59-3.53l.2-.79L66.36,305a117.35,117.35,0,0,0-2.43,30.2l-28.23,3a5.65,5.65,0,0,0-3.8,2.08,5.78,5.78,0,0,0-1.23,4.19A150.08,150.08,0,0,0,46,396.25a5.61,5.61,0,0,0,7.59,2.48L68.62,391a5.73,5.73,0,0,0,2.55-7.48c-.52-1.13-1.06-2.25-1.6-3.37a58.7,58.7,0,0,1-3.49-8.2l-.55-1.5c-.63-1.7-1.24-3.35-1.78-5l5.53-1.49a113.71,113.71,0,0,0,12.89,27.3L59.25,408.07A5.67,5.67,0,0,0,57,411.8,5.76,5.76,0,0,0,58,416a147.51,147.51,0,0,0,38.7,37.19A5.6,5.6,0,0,0,101,454a5.67,5.67,0,0,0,3.57-2.47l9.23-14.35a5.79,5.79,0,0,0,.78-4.37,5.73,5.73,0,0,0-2.57-3.61,72.47,72.47,0,0,1-6.33-4.56c-1.27-1-2.54-2-3.54-2.66-1.75-1.46-3.43-3-5.11-4.55l4-4c1.51,1.39,3.06,2.8,5,4.36,1.1.78,2.17,1.61,3.24,2.44a68.86,68.86,0,0,0,6.28,4.48l10.08,5.84.12.06-11.55,26.19a5.72,5.72,0,0,0,2.86,7.54,146.24,146.24,0,0,0,52,12.51h.3a5.67,5.67,0,0,0,5.63-5.41l.87-17.08a5.68,5.68,0,0,0-5.33-6l-5.94-.31-6.33-1c-.81-.14-1.62-.26-2.43-.38-1.23-.17-2.45-.35-3.52-.6l-.78-.19,1.49-5.59a114.09,114.09,0,0,0,29.89,2.44l2.92,28.54a5.74,5.74,0,0,0,2.06,3.84,5.63,5.63,0,0,0,4.15,1.24A144.41,144.41,0,0,0,243.22,461a5.74,5.74,0,0,0,2.45-7.68L238,438.07a5.63,5.63,0,0,0-7.4-2.59c-1.13.53-2.26,1.09-3.38,1.65a58.2,58.2,0,0,1-8.07,3.5l-1.44.55c-1.7.63-3.35,1.25-5,1.8l-1.48-5.59a110.7,110.7,0,0,0,27-13l16.69,23.17a5.6,5.6,0,0,0,7.88,1.26,147.89,147.89,0,0,0,36.81-39.11,5.75,5.75,0,0,0-1.65-7.9l-14.2-9.33a5.59,5.59,0,0,0-4.32-.78,5.67,5.67,0,0,0-3.58,2.6,74,74,0,0,1-4.49,6.38c-1,1.29-1.95,2.58-2.65,3.59-1.44,1.77-3,3.47-4.5,5.16l-3.91-4a113.82,113.82,0,0,0,16.95-25l25.89,11.66a5.63,5.63,0,0,0,7.46-2.89A150.3,150.3,0,0,0,323,336.68a5.67,5.67,0,0,0-5.34-6l-16.91-.89a5.71,5.71,0,0,0-5.93,5.39l-.3,6-1,6.39c-.14.83-.26,1.65-.38,2.48-.17,1.23-.34,2.47-.58,3.54l-.2.79L287,352.93l0-.14c.31-1.33.5-2.68.69-4,.09-.63.17-1.27.29-2l.87-5.61c0-.19.05-.38.06-.58l.3-6V323.27a2.81,2.81,0,0,0,0-.29l0-.27,28.35-3a5.63,5.63,0,0,0,3.8-2.08,5.72,5.72,0,0,0,1.23-4.19,149.58,149.58,0,0,0-15.28-51.82,5.62,5.62,0,0,0-7.59-2.48L284.59,267a5.74,5.74,0,0,0-2.55,7.48c.52,1.13,1.07,2.24,1.61,3.36a59.16,59.16,0,0,1,3.48,8.2l.56,1.5c.62,1.7,1.23,3.35,1.77,5L283.93,294A113.47,113.47,0,0,0,271,266.68L294,249.82a5.71,5.71,0,0,0,2.26-3.72,5.78,5.78,0,0,0-1-4.25A147.51,147.51,0,0,0,256.52,204.66ZM260,260.73a5.67,5.67,0,0,0-2.26,3.72,5.74,5.74,0,0,0,1,4.25,102.19,102.19,0,0,1,15.91,33.69,5.67,5.67,0,0,0,6.91,4L297.89,302a5.7,5.7,0,0,0,4.06-6.7,84.76,84.76,0,0,0-3.68-11.79l-.45-1.22a58.48,58.48,0,0,0-3.17-7.74l5-2.59a138.87,138.87,0,0,1,10.93,37l-27.95,2.93a5.7,5.7,0,0,0-5.05,6l.29,5.53v10.91l-.27,5.37-.81,5.24c-.12.74-.23,1.49-.34,2.24-.13,1-.26,2-.46,2.88l-1.41,5.48a5.72,5.72,0,0,0,4,6.95L295,366.9a5.63,5.63,0,0,0,4.3-.58,5.72,5.72,0,0,0,2.62-3.51l1.65-6.5c.35-1.52.58-3.07.8-4.61.1-.74.2-1.46.34-2.29l1-7,0-.87,5.54.28a139.31,139.31,0,0,1-8.83,37.55l-25.66-11.56a5.61,5.61,0,0,0-4.33-.11,5.67,5.67,0,0,0-3.13,3,102.32,102.32,0,0,1-20.92,30.87,5.75,5.75,0,0,0,0,8.06l12,12.1a5.47,5.47,0,0,0,4.16,1.66,5.59,5.59,0,0,0,4.05-1.91q1.51-1.71,3.06-3.4c1.95-2.14,3.9-4.29,6-6.86.86-1.22,1.76-2.41,2.67-3.61.62-.83,1.26-1.66,1.89-2.52l4.74,3.11a136.37,136.37,0,0,1-26.31,28l-16.54-23a5.67,5.67,0,0,0-3.69-2.28,5.59,5.59,0,0,0-4.19,1A100.21,100.21,0,0,1,202.89,428a5.65,5.65,0,0,0-3.43,2.66,5.79,5.79,0,0,0-.57,4.33l4.38,16.53a5.63,5.63,0,0,0,6.64,4.1,83.31,83.31,0,0,0,11.7-3.73l1.17-.44a57.54,57.54,0,0,0,7.65-3.21l2.56,5.09a135.53,135.53,0,0,1-36.64,11l-2.89-28.23a5.7,5.7,0,0,0-2-3.84A5.55,5.55,0,0,0,187.3,431a102.62,102.62,0,0,1-37-3,5.6,5.6,0,0,0-4.29.57,5.74,5.74,0,0,0-2.63,3.46l-4.37,16.53a5.78,5.78,0,0,0,.58,4.36,5.67,5.67,0,0,0,3.46,2.64l6.43,1.67c1.52.35,3,.58,4.59.81.71.1,1.43.2,2.24.34l7,1.05.87.05-.29,5.6a135.61,135.61,0,0,1-37.15-8.94l11.43-25.92a5.72,5.72,0,0,0-2.7-7.46l-4.69-2.27-9.62-5.59a56.16,56.16,0,0,1-5.14-3.7c-1.2-.93-2.4-1.85-3.27-2.45-1.63-1.36-3.19-2.81-4.75-4.25-1.16-1.08-2.32-2.16-3.52-3.22a5.61,5.61,0,0,0-7.7.27l-12,12.1a5.74,5.74,0,0,0,.24,8.29c1.11,1,2.21,2,3.32,3,2.14,2,4.29,4,6.84,6.09,1.2.87,2.38,1.78,3.55,2.69.83.64,1.67,1.29,2.52,1.93l-3.09,4.79a136.16,136.16,0,0,1-27.66-26.59l22.73-16.71a5.74,5.74,0,0,0,1.24-8,102.33,102.33,0,0,1-15.91-33.7,5.66,5.66,0,0,0-6.91-4l-16.36,4.42a5.7,5.7,0,0,0-4.06,6.7A84.76,84.76,0,0,0,55,374.38l.45,1.22a58.48,58.48,0,0,0,3.17,7.74l-5,2.59a139.31,139.31,0,0,1-10.93-37L70.55,346a5.7,5.7,0,0,0,5-6.23,105.59,105.59,0,0,1,3-37.34,5.82,5.82,0,0,0-.57-4.34,5.63,5.63,0,0,0-3.43-2.65L58.24,291a5.59,5.59,0,0,0-4.3.59,5.73,5.73,0,0,0-2.62,3.5l-1.65,6.5c-.35,1.52-.58,3.07-.8,4.62-.1.73-.2,1.46-.34,2.28l-1,7-.05.87-5.54-.28a139.7,139.7,0,0,1,8.84-37.55L76.4,290.12a5.56,5.56,0,0,0,4.33.11,5.67,5.67,0,0,0,3.13-3,102.26,102.26,0,0,1,20.92-30.87,5.74,5.74,0,0,0,0-8.05l-12-12.1a5.6,5.6,0,0,0-8.21.24q-1.52,1.71-3.06,3.4c-2,2.15-3.9,4.3-6,6.86-.86,1.22-1.76,2.42-2.67,3.61-.63.83-1.26,1.67-1.89,2.53l-4.74-3.12a136.37,136.37,0,0,1,26.31-28l16.54,23A5.61,5.61,0,0,0,117,246l1.31-1a19.44,19.44,0,0,1,2.76-1.92l9.24-5.4c1.08-.5,2.16-1,3.23-1.57a46,46,0,0,1,6.61-2.86l1.68-.62A56,56,0,0,1,150,230a5.71,5.71,0,0,0,4.31-7.06L150,206.4a5.64,5.64,0,0,0-6.64-4.1,82.89,82.89,0,0,0-11.7,3.73l-1.17.44a57.49,57.49,0,0,0-7.65,3.2l-2.57-5.08a135.62,135.62,0,0,1,36.65-11.05l2.89,28.24a5.64,5.64,0,0,0,2,3.84,5.52,5.52,0,0,0,4.13,1.25,102.62,102.62,0,0,1,37,3,5.61,5.61,0,0,0,4.28-.57,5.68,5.68,0,0,0,2.63-3.47l4.38-16.53a5.75,5.75,0,0,0-.58-4.35,5.63,5.63,0,0,0-3.47-2.64l-6.42-1.67c-1.52-.36-3-.59-4.59-.81-.71-.1-1.43-.21-2.24-.35l-7-1-.87,0,.29-5.6a135.32,135.32,0,0,1,37.15,8.93L215,227.69a5.75,5.75,0,0,0-.11,4.37,5.66,5.66,0,0,0,3,3.16,101.36,101.36,0,0,1,30.55,21.15,5.61,5.61,0,0,0,8,0l12-12.1a5.74,5.74,0,0,0-.24-8.29c-1.11-1-2.21-2-3.32-3.05-2.14-2-4.29-4-6.84-6.09-1.2-.86-2.38-1.77-3.55-2.68-.83-.64-1.67-1.29-2.52-1.93l3.09-4.79A136.16,136.16,0,0,1,282.68,244Z"/><path class="cls-3" d="M176.61,237.7a90,90,0,0,0-78.36,45.76,91.89,91.89,0,0,0,.49,91.46,4.25,4.25,0,0,0,.35.58,91.36,91.36,0,0,0,23,26c.14.1.23.25.38.34l.12,0a88.88,88.88,0,0,0,108,0s.1,0,.15-.06.24-.24.38-.34a91.36,91.36,0,0,0,23-26,5.65,5.65,0,0,0,.36-.58,91.94,91.94,0,0,0,.48-91.46A90,90,0,0,0,176.61,237.7Zm-10.17,12.15L103.79,359.93a80.52,80.52,0,0,1,4.31-70.74A78.88,78.88,0,0,1,166.44,249.85Zm-33.7,145.46,43.87-77.06,43.87,77.06a78.14,78.14,0,0,1-87.74,0Zm96.69-7.15L184,308.27a8.42,8.42,0,0,0-14.68,0l-45.48,79.89a80.27,80.27,0,0,1-13.73-16.35l66.55-117,12.91,22.63c.08.17.16.34.26.51l53.38,93.85a80.27,80.27,0,0,1-13.73,16.35Zm20-28.23-49.61-87.2a3.16,3.16,0,0,0-.26-.52L186.8,249.85a78.92,78.92,0,0,1,58.32,39.35,80.53,80.53,0,0,1,4.31,70.73Z"/><path class="cls-4" d="M595.47,33.21c-131.18,0-239,88.6-251.44,202l-74.66,29.74s-4.88,1.8-4.39,8.8a9.53,9.53,0,0,0,5.57,8.17l78.17,23.46C373.61,405.81,474.62,481,595.47,481,735,481,848.12,380.77,848.12,257.11S735,33.21,595.47,33.21Z"/><path class="cls-5" d="M597.59,0c-131.17,0-239,88.6-251.43,202l-74.67,29.74s-4.88,1.81-4.39,8.81a9.53,9.53,0,0,0,5.58,8.16l78.16,23.46c24.89,100.47,125.91,175.67,246.75,175.67,139.54,0,252.65-100.24,252.65-223.9S737.13,0,597.59,0Z"/><path class="cls-6" d="M552.79,192.05a6.51,6.51,0,0,1,4.63,1.54,5.91,5.91,0,0,1,0,8.15,6.55,6.55,0,0,1-4.63,1.53h-4.33v6.64l2.13.18v1.16h-5.81v-1.16l2.13-.18V193.4l-2.13-.17v-1.18h8Zm-4.33,9.88h4.33a4.75,4.75,0,0,0,3.53-1.21,4.15,4.15,0,0,0,1.18-3,4.23,4.23,0,0,0-1.17-3.06,4.7,4.7,0,0,0-3.54-1.22h-4.33Z"/><path class="cls-6" d="M572.14,208.9a4.8,4.8,0,0,1-1.82,1.94,5.3,5.3,0,0,1-2.72.68,4.29,4.29,0,0,1-3.49-1.52,7.41,7.41,0,0,1-1.26-4.75v-6.92l-1.75-.17V197h3.3v8.29a6.27,6.27,0,0,0,.88,3.75,3,3,0,0,0,2.5,1.13,4.59,4.59,0,0,0,2.83-.79,4.19,4.19,0,0,0,1.48-2.19v-8.84l-2-.17V197h3.57v12.93l1.89.18v1.16h-3.26Z"/><path class="cls-6" d="M577.62,198.27V197H580V194.9a4.77,4.77,0,0,1,1.07-3.32,3.83,3.83,0,0,1,3-1.18,6.36,6.36,0,0,1,.86.07c.3,0,.6.11.9.18l-.19,1.31-.64-.13a5.88,5.88,0,0,0-.77,0,2.41,2.41,0,0,0-2,.82,3.48,3.48,0,0,0-.68,2.29V197h3.37v1.29h-3.37v11.64l2.13.18v1.16h-5.82v-1.16l2.12-.18V198.27Z"/><path class="cls-6" d="M589.57,210.61a6,6,0,0,1-.49,2.38,5.79,5.79,0,0,1-1.34,2l-.92-.68a7,7,0,0,0,.9-1.73,5.74,5.74,0,0,0,.3-1.9v-1.87h1.55Z"/><path class="cls-6" d="M598.49,198.16V197h3.43l.2,2.22a5.29,5.29,0,0,1,1.83-1.84,5.16,5.16,0,0,1,2.62-.64,4.6,4.6,0,0,1,4,2.05,9.34,9.34,0,0,1,1.43,5.46v.28a8.26,8.26,0,0,1-1.43,5.11,4.69,4.69,0,0,1-4,1.9A5.66,5.66,0,0,1,604,211a4.75,4.75,0,0,1-1.82-1.63v6.07l2.13.17v1.17h-5.81v-1.17l2.13-.17V198.33Zm11.93,6.07a8.3,8.3,0,0,0-1.07-4.43,3.48,3.48,0,0,0-3.13-1.71,4.07,4.07,0,0,0-2.57.76,4.66,4.66,0,0,0-1.48,2v6.85a4.27,4.27,0,0,0,1.55,1.85,4.42,4.42,0,0,0,2.52.67,3.53,3.53,0,0,0,3.11-1.55,7.21,7.21,0,0,0,1.07-4.13Z"/><path class="cls-6" d="M624.9,208.9a4.8,4.8,0,0,1-1.82,1.94,5.3,5.3,0,0,1-2.72.68,4.29,4.29,0,0,1-3.49-1.52,7.41,7.41,0,0,1-1.26-4.75v-6.92l-1.75-.17V197h3.3v8.29A6.27,6.27,0,0,0,618,209a3,3,0,0,0,2.5,1.13,4.59,4.59,0,0,0,2.83-.79,4.19,4.19,0,0,0,1.48-2.19v-8.84l-2-.17V197h3.57v12.93l1.89.18v1.16H625Z"/><path class="cls-6" d="M630.38,198.27V197h2.33V194.9a4.77,4.77,0,0,1,1.07-3.32,3.83,3.83,0,0,1,3-1.18,6.36,6.36,0,0,1,.86.07c.3,0,.6.11.9.18l-.19,1.31-.64-.13a5.88,5.88,0,0,0-.77,0,2.39,2.39,0,0,0-2,.82,3.42,3.42,0,0,0-.69,2.29V197h3.37v1.29h-3.37v11.64l2.13.18v1.16h-5.82v-1.16l2.12-.18V198.27Z"/><path class="cls-6" d="M642.47,211.25h-1.78v-2.17h1.78Z"/><path class="cls-6" d="M648.55,211.25h-1.78v-2.17h1.78Z"/><path class="cls-6" d="M654.63,211.25h-1.78v-2.17h1.78Z"/><path class="cls-6" d="M520.68,224.45v1.18l-2.12.17v12.4a5.64,5.64,0,0,1-1.55,4.17,5.37,5.37,0,0,1-4,1.55,6.11,6.11,0,0,1-4.23-1.39,5,5,0,0,1-1.48-4.09l0-.08h1.46a4.24,4.24,0,0,0,1.1,3.16,4.3,4.3,0,0,0,3.13,1.07,3.74,3.74,0,0,0,2.86-1.19,4.48,4.48,0,0,0,1.12-3.2V225.8l-2.13-.17v-1.18h5.82Z"/><path class="cls-6" d="M532.71,243.65c-.1-.49-.18-.9-.22-1.25a9.59,9.59,0,0,1-.06-1.07,6.51,6.51,0,0,1-2.09,1.86,5.88,5.88,0,0,1-2.94.73,4.48,4.48,0,0,1-3.21-1.08,3.86,3.86,0,0,1-1.13-2.92,3.62,3.62,0,0,1,1.68-3.14,8,8,0,0,1,4.57-1.16h3.12v-1.89a3.05,3.05,0,0,0-1-2.4,3.93,3.93,0,0,0-2.72-.87,6.58,6.58,0,0,0-2.14.33,4.78,4.78,0,0,0-1.63.87l-.13,1.92h-1.29v-2.75a8.38,8.38,0,0,1,2.34-1.24,9,9,0,0,1,2.91-.47,5.61,5.61,0,0,1,3.75,1.2,4.25,4.25,0,0,1,1.43,3.44v7c0,.29,0,.57,0,.84a6.82,6.82,0,0,0,.08.79l1.41.09v1.16Zm-5.14-1.12a5.68,5.68,0,0,0,3-.79,4.72,4.72,0,0,0,1.87-2.05v-2.86h-3.15a5.85,5.85,0,0,0-3.4.89,2.64,2.64,0,0,0-1.27,2.25,2.36,2.36,0,0,0,.79,1.85A3.15,3.15,0,0,0,527.57,242.53Zm2.65-18.59h1.92l0,.08-3.25,3.42h-1.4Z"/><path class="cls-6" d="M548.3,230.56l-1.76.13,3.52,9.39.46,1.67h.08l.49-1.67,3.48-9.39-1.77-.13v-1.18h4.75v1.18l-1.38.11-5,13h-1.26l-5-13-1.39-.11v-1.18h4.75Z"/><path class="cls-6" d="M565.33,243.92a5.61,5.61,0,0,1-4.41-2,7.24,7.24,0,0,1-1.75-5v-.73a7.47,7.47,0,0,1,1.74-5.07,5.37,5.37,0,0,1,4.21-2,5.18,5.18,0,0,1,4.08,1.66,6.35,6.35,0,0,1,1.49,4.43v1.34h-10v.39a6.3,6.3,0,0,0,1.28,4,4,4,0,0,0,3.33,1.63,6.61,6.61,0,0,0,2.48-.41,4.94,4.94,0,0,0,1.76-1.17l.66,1.08a5.67,5.67,0,0,1-2,1.34A7.6,7.6,0,0,1,565.33,243.92Zm-.21-13.46a3.71,3.71,0,0,0-2.9,1.34,5.74,5.74,0,0,0-1.38,3.36l0,.06h8.27v-.39a4.58,4.58,0,0,0-1.08-3.11A3.7,3.7,0,0,0,565.12,230.46Z"/><path class="cls-6" d="M577.46,244.82a5,5,0,0,1-1,3.4,3.69,3.69,0,0,1-2.91,1.19,3.54,3.54,0,0,1-.75-.07,4.93,4.93,0,0,1-.71-.18l.17-1.33.55.13a4,4,0,0,0,.65.06,2.2,2.2,0,0,0,1.82-.81,3.7,3.7,0,0,0,.66-2.39V230.73l-2.13-.17v-1.18h3.69Zm-.07-19.58h-1.57v-2.16h1.57Z"/><path class="cls-6" d="M580.82,236.3a7.73,7.73,0,0,1,1.7-5.16,6.1,6.1,0,0,1,9.07,0,7.69,7.69,0,0,1,1.71,5.16v.44a7.74,7.74,0,0,1-1.7,5.17,6.13,6.13,0,0,1-9.08,0,7.74,7.74,0,0,1-1.7-5.17Zm1.56.44a6.85,6.85,0,0,0,1.24,4.17,4.36,4.36,0,0,0,6.88,0,6.92,6.92,0,0,0,1.24-4.17v-.44a6.85,6.85,0,0,0-1.25-4.14,4.32,4.32,0,0,0-6.87,0,6.84,6.84,0,0,0-1.24,4.14Z"/><path class="cls-6" d="M601.8,242.49l1.39-.11,6.75-17.93h1.47l6.68,17.93,1.42.11v1.16h-4.68v-1.16l1.66-.13-1.57-4.3h-8.53l-1.58,4.3,1.66.13v1.16H601.8Zm5.11-5.84h7.5l-3.69-10.15h-.08Z"/><path class="cls-6" d="M623.91,225.73v3.65H627v1.29h-3.1V240a3.08,3.08,0,0,0,.5,2,1.69,1.69,0,0,0,1.34.59c.25,0,.5,0,.74,0s.51-.06.82-.11l.24,1.17a4.18,4.18,0,0,1-.95.26,7.17,7.17,0,0,1-1.13.09,2.9,2.9,0,0,1-2.31-.94,4.55,4.55,0,0,1-.83-3v-9.3H619.9v-1.29h2.43v-3.65Z"/><path class="cls-6" d="M636.11,243.92a5.61,5.61,0,0,1-4.41-2,7.24,7.24,0,0,1-1.75-5v-.73a7.47,7.47,0,0,1,1.74-5.07,5.37,5.37,0,0,1,4.21-2,5.18,5.18,0,0,1,4.08,1.66,6.4,6.4,0,0,1,1.49,4.43v1.34h-10v.39a6.36,6.36,0,0,0,1.27,4,4,4,0,0,0,3.34,1.63,6.61,6.61,0,0,0,2.48-.41,4.94,4.94,0,0,0,1.76-1.17l.66,1.08a5.67,5.67,0,0,1-2,1.34A7.6,7.6,0,0,1,636.11,243.92Zm-.21-13.46a3.71,3.71,0,0,0-2.9,1.34,5.74,5.74,0,0,0-1.38,3.36l0,.06h8.27v-.39a4.58,4.58,0,0,0-1.08-3.11A3.7,3.7,0,0,0,635.9,230.46Z"/><path class="cls-6" d="M644,242.49l2.12-.17V230.73l-2.12-.17v-1.18h3.51l.14,2.49a4.86,4.86,0,0,1,4.57-2.75,4.3,4.3,0,0,1,3.49,1.42,6.75,6.75,0,0,1,1.2,4.42v7.36l2.13.17v1.16H653.2v-1.16l2.13-.17V235a5.25,5.25,0,0,0-.91-3.47,3.3,3.3,0,0,0-2.58-1,4,4,0,0,0-2.68.88,4.85,4.85,0,0,0-1.49,2.32v8.63l2.12.17v1.16H644Z"/><path class="cls-6" d="M671.22,243.65a11.93,11.93,0,0,1-.22-1.25,7.69,7.69,0,0,1-.07-1.07,6.41,6.41,0,0,1-2.09,1.86,5.85,5.85,0,0,1-2.93.73,4.47,4.47,0,0,1-3.21-1.08,3.83,3.83,0,0,1-1.14-2.92,3.61,3.61,0,0,1,1.69-3.14,7.93,7.93,0,0,1,4.56-1.16h3.12v-1.89a3,3,0,0,0-1-2.4,4,4,0,0,0-2.72-.87,6.69,6.69,0,0,0-2.15.33,4.64,4.64,0,0,0-1.62.87l-.13,1.92h-1.29v-2.75a8.11,8.11,0,0,1,2.34-1.24,9,9,0,0,1,2.9-.47,5.64,5.64,0,0,1,3.76,1.2,4.25,4.25,0,0,1,1.42,3.44v7c0,.29,0,.57,0,.84a6.82,6.82,0,0,0,.09.79l1.41.09v1.16Zm-5.14-1.12a5.64,5.64,0,0,0,3-.79,4.6,4.6,0,0,0,1.87-2.05v-2.86h-3.14a5.85,5.85,0,0,0-3.4.89,2.64,2.64,0,0,0-1.27,2.25,2.36,2.36,0,0,0,.79,1.85A3.13,3.13,0,0,0,666.08,242.53Z"/><path class="cls-6" d="M686.46,233.79h-1.28l-.18-2a4.08,4.08,0,0,0-1.49-1,5.64,5.64,0,0,0-2-.35,3.78,3.78,0,0,0-2.56.75A2.27,2.27,0,0,0,678,233a2.09,2.09,0,0,0,.74,1.63,7.06,7.06,0,0,0,2.94,1.13,9.62,9.62,0,0,1,3.77,1.55,3.21,3.21,0,0,1,1.25,2.67,3.44,3.44,0,0,1-1.43,2.88,6,6,0,0,1-3.77,1.1,8.53,8.53,0,0,1-2.85-.44,6.81,6.81,0,0,1-2.23-1.24v-2.88h1.27l.22,2a3.59,3.59,0,0,0,1.59.92,7,7,0,0,0,2,.28,4.28,4.28,0,0,0,2.67-.75,2.22,2.22,0,0,0,1-1.82,2.31,2.31,0,0,0-.81-1.75,6.7,6.7,0,0,0-3-1.23,9.88,9.88,0,0,1-3.73-1.47,3,3,0,0,1-1.22-2.56,3.43,3.43,0,0,1,1.37-2.76,5.49,5.49,0,0,1,3.61-1.13,8.1,8.1,0,0,1,2.84.48,5.68,5.68,0,0,1,2.09,1.3Z"/><path class="cls-6" d="M692,243.65h-1.85v-2.2H692Zm-.16-6.3h-1.55v-12.9h1.55Z"/><g class="cls-7"><path class="cls-8" d="M129,333.82s2.22,25.89,2.66,27.92-.09.79-.09.79,10,8.69,11.88,1.6S129,333.82,129,333.82Z"/><path class="cls-9" d="M158.27,256.58l-2.61,22.2s-.83,5.74-3.15,8.06-16-.66-16-.66l-3.29,27.24,35.13,20,41.92-11.23-1.25-29.43s-18.52.6-31-8.79c-2.46-1.85.62-21,.62-21Z"/><path class="cls-9" d="M214.39,296.24c4-2.14,7.67,2.9,7.67,2.9l41,71.83-35.41,63.54s11.89,20,5.94,29l8.21,8.2s1.31,4.4-4.64,4.4-20-10.46-20-10.46l1.63-44.8,26.45-47.68L221,337.08l-7.59-6.73S206.85,300.23,214.39,296.24Z"/><path class="cls-9" d="M171.77,497.29l-34.36,86.17S133,524,127.72,529.26a233.36,233.36,0,0,1-13,37.63c-8.92,20-12.85,47.45-12.85,47.45s8.12,20.6,7.14,29.87c0,0,7.76,53.8,4.64,59.95s-15.34,2.5-15.34,2.5-20.43,2.67-23.46-2.41,3.84-61.82,3.84-61.82-1-10.88,2.58-13.38,7.85-8.56,7.85-8.56-1.34-3.57,2.41-8.38,9.27-35.71,9.27-39.75-5,41.54,11.66,29.65c0,0,4-82,15.45-93.46s43.88-18.2,43.88-18.2Z"/><path class="cls-10" d="M171.77,497.29l-11,27.55s-15.21,6.78-19,7.73c-2.86.7-23.2,7-22.52,2.89,2.14-12.83,5.09-23.33,8.67-26.91,11.42-11.42,43.88-18.2,43.88-18.2Z"/><path class="cls-9" d="M184,484.53s28.78,108.68,30.92,113.68-9.1-61.11,10.52,7.74c0,0-1.25,9.1-3,12.31s-5.89,11.41-.72,14.27,21.94,17.12,29.08,18.37,20.51-5,20.51-5,7.13-2.68,4.9-4.91c0,0-6.51-.27-8.65-2.41s-26.39-21.22-26.39-21.22-7.5-9.63-7.5-10.29-5.35-9.53-5.35-9.53,2-5.35,0-16.23-1-79.43-1-79.43Z"/><path class="cls-10" d="M184,484.53s6.77,25.48,8.78,33c.77,2.89,34.32,5.22,34.32,5.22l.18-20.87Z"/><path class="cls-11" d="M184,506.05c5.56,11,44.68,13.36,47.92,14.39,0,0,1-44.3-5.22-69.19S184,506.05,184,506.05Z"/><g class="cls-12"><path class="cls-8" d="M116.9,529.63s110.58-2,114.52-74.27Z"/></g><path class="cls-9" d="M143.92,242.15s6,27.16,44.93,39c16.1,4.87,23.22,2.92,25.71-2C230.2,248,230.64,202.74,217.64,185c-11.4-15.59-76.51,10.63-76.51,10.63L144.7,224s-7.66-15.74-14.28-10.29S133.88,238,133.88,238,138.88,244.85,143.92,242.15Z"/><path class="cls-13" d="M149.93,233.79c5.78,4.73,3.67-8.83,3.67-8.83s3-12.06.22-15.09a50.19,50.19,0,0,1-5.51-8.21l76.05-24.11s9.06-6.94-3.85-16.82a18.11,18.11,0,0,0-16.06-10.57s-4.06-9.56-15.4-5.35c0,0-18.22-6.7-25.19,1.13a7.24,7.24,0,0,0-8,1.8s-4.32.31-6,3.22c0,0-10.51.85-13,6.94,0,0-7.29,5.62-4.95,12.66,0,0-4.25,4.28-1.81,8.84,0,0-10.45,6.21-4.22,13.94,0,0-3.62,5,7.19,10.75l1.27,8.08s3.74-.49,10.34,11.83Z"/><path class="cls-14" d="M181.07,248.3c-.25-.51,22.12,8.26,32.82,4.46,0,0-3.56,18-11.95,17.51C193.3,269.8,185,263.77,181.07,248.3Z"/><g class="cls-15"><path class="cls-16" d="M178.74,250.59s19.6,12.61,32,6l.12-4.7-32.07-7.4Z"/><path class="cls-17" d="M180.14,259.58s8.9-4.57,18.54,3.19-3.77,12.46-3.77,12.46Z"/></g><path class="cls-18" d="M201.73,271.16c-16.67,0-21.58-22.42-21.63-22.66l-.37-1.75,1.68.61c.21.07,21.07,7.51,32.21,4.44a1,1,0,1,1,.53,1.93c-9.91,2.73-26.22-2.11-31.63-3.89,1.56,5.33,7.34,20.82,21.26,19.2a1,1,0,1,1,.23,2A17.88,17.88,0,0,1,201.73,271.16Z"/><path class="cls-18" d="M139.88,238.07s4.18-15-6.26-22.11"/><g class="cls-19"><path class="cls-20" d="M166.12,165.39s-7.64,5.08-1.92,11.75c2,2.33-10.13,7-10.13,7l-10.72,21.08s5.75-.51,9.17.52l11.73,26-13.7,3.71-29.26-35.9-10.16-54.68,40.19-19.07,36.91,2.41-9.69,10.18s-17.35,4.51-13.71,12.65C160.58,152.45,157,161.9,166.12,165.39Z"/></g><path class="cls-6" d="M134.53,212.22s-5.7-4.95-4.05-10.41,43-49.35,94.05-24.2c0,0,6.55,8.32,2.84,10.3,0,0,3.2,7.91-1.93,10.09S201.91,189.14,134.53,212.22Z"/><path class="cls-21" d="M141.09,201.05s47-31.48,82.15-14.89C223.24,186.16,188.43,177.62,141.09,201.05Z"/><path class="cls-18" d="M226.3,209.76s-5.83,22-41.64,12c0,0-11.84-1.38-19.77-14.46s43.43-9.6,43.43-9.6L225,203.51Z"/><path class="cls-18" d="M206.12,248.34c-3.85,0-8.12-.17-10.27-.82a1.5,1.5,0,1,1,.87-2.87c2.86.86,11.51.72,15.8.55,2.46-12.67-2.58-24.19-5.87-30a1.5,1.5,0,0,1,2.61-1.47c3.6,6.38,9.17,19.18,6,33.27l-.25,1.11-1.13.06C213.14,248.18,209.83,248.34,206.12,248.34Zm7.63-1.69h0Z"/><ellipse class="cls-22" cx="190.43" cy="217.37" rx="4.37" ry="3.2" transform="translate(-35.79 397.19) rotate(-87.26)"/><path class="cls-22" d="M196.08,214.11a1.52,1.52,0,0,1-.9-.3c-2.78-2.08-5.13-2.94-6.8-2.48a3.23,3.23,0,0,0-2,1.75,1.52,1.52,0,0,1-1.95.84,1.49,1.49,0,0,1-.85-1.92,6.22,6.22,0,0,1,3.93-3.54c2.65-.77,5.83.22,9.47,2.95a1.5,1.5,0,0,1-.9,2.7Z"/><ellipse class="cls-22" cx="215.35" cy="216.68" rx="2.98" ry="4.06" transform="translate(-9.82 10.23) rotate(-2.66)"/><path class="cls-22" d="M210,215.09h-.07a1.5,1.5,0,0,1-1.43-1.55c0-.17.18-4,3.09-5.77,2.08-1.26,4.87-1.06,8.27.58a1.5,1.5,0,0,1-1.3,2.7c-1.67-.8-4-1.58-5.41-.72s-1.65,3.3-1.65,3.32A1.51,1.51,0,0,1,210,215.09Z"/><path class="cls-23" d="M212.52,220.81c-.68-1.45-1.29-2.95-2.1-4.32a1.5,1.5,0,0,0-2.59,1.51c.81,1.37,1.42,2.88,2.1,4.32a1.51,1.51,0,0,0,2,.54,1.54,1.54,0,0,0,.54-2.05Z"/><path class="cls-9" d="M128.17,286.18s-29.59-33.45-34-37.88c0,0,74.48-47.25,85.2-47.25a350.17,350.17,0,0,0,42.09,3s12.09-1.39,15.55-3c0,0,4.79-.87,4.79-2.83,0,0-2.84-3.78-7.2-3.78,0,0-8.88-6-14.73-6L182.17,187s-8.46-1.81-13.38,1.46-105.4,53.15-105.4,53.15,38.93,59.23,51.43,71.73,18.43,37.22,18.43,37.22,5,15.69,10,20.74,5-43.87-.53-58.23A139.86,139.86,0,0,0,128.17,286.18Z"/><path class="cls-23" d="M240.06,196.74c-11.66,6.06-24.78,5-37.39,3.51-6.12-.74-12.24-1.61-18.41-1.77-2.69-.06-5.75-.27-8.36.63-1.25.44-9.05,2.84-15.34,7.65-4.3,3.29-56.08,34.68-56.86,35.12-1.79,1-2.14,1.52-.35.52,1.31-.74,53.22-30.75,57.43-33.94,4.37-3.32,11.3-3.62,14.9-6.26,2.7-2,5.34-.51,6.53-.55,3-.12,2.88.2,5.91.48,6.48.61,16.23,1.66,22.73,2.19,10.61.88,21.24.16,30.82-4.83,1.82-.94.21-3.7-1.61-2.75Z"/><path class="cls-18" d="M128.82,325.49c-.16-6.41.56-13.6-.9-19.87s-6.86-11.73-10.83-16.68c-1.21-1.51-3.32.63-2.13,2.12,4.26,5.31,9.82,10.92,10.41,18,.46,5.43.31,11,.45,16.42.05,1.92,3.05,1.93,3,0Z"/><path class="cls-18" d="M157.45,263.52s11.64,10.67,19.67,13.15a43.91,43.91,0,0,0,.2,5.75c.27.92-20.86-10.46-20.86-10.46Z"/><path class="cls-2" d="M122.94,211.93a1,1,0,0,1-.46-1.89l45.79-23.49c.66-.46,4.79-3,14-1.59,9.45,1.43,38.31,1.44,38.6,1.44a.78.78,0,0,1,.22,0c1.15.25,11.31,2.6,14.24,6.33a1,1,0,1,1-1.58,1.23c-2.08-2.65-10-4.91-13-5.59-2.25,0-29.39,0-38.78-1.46-9-1.36-12.59,1.23-12.62,1.26a1.19,1.19,0,0,1-.15.09l-45.86,23.53A.91.91,0,0,1,122.94,211.93Z"/><path class="cls-23" d="M208.88,197.22a.67.67,0,0,1-.17-.76c.22-.48.85-.91,5.93-.42,6.29.62,23.62-1,23.8-1.06l.09,1c-.71.06-17.61,1.68-24,1.06-4.28-.42-5-.1-5-.06a.34.34,0,0,0,.12-.22.35.35,0,0,0-.1-.27Z"/><path class="cls-23" d="M234.08,194.62h0c-1,0-24.72-.16-28.14-1.05a.5.5,0,0,1-.36-.61.49.49,0,0,1,.61-.36c3.3.86,27.65,1,27.9,1a.5.5,0,0,1,0,1Z"/><path class="cls-23" d="M230.45,192s-24.12-.54-25.89-1.27l15.56-.22S229.66,191.21,230.45,192Z"/><path class="cls-18" d="M132.42,362.12c8.64.08,10.21-7.93,10.77-15,.39-5.11-.82-10-1.55-15a142.36,142.36,0,0,1-1.42-19.68,1.5,1.5,0,0,0-3,0,148.57,148.57,0,0,0,1.8,22.29c1,6.45,4.26,24.51-6.6,24.41a1.5,1.5,0,0,0,0,3Z"/><path class="cls-24" d="M136.54,286.18s-3.06-5.32-8.37,0c0,0,31.32,78.22,3.4,76.35,0,0,21.3,48.75,19.16,56.6s-37.95,107.79-37.95,107.79,110.58-2,114.52-74.26L222.07,411a347.41,347.41,0,0,0,3.09-42.21c.23-20.31-2-43.65-3.62-59.58A25.73,25.73,0,0,0,214,293.08l-10.41-1s8.22,27.55-10.8,30.16C182.56,323.67,155.09,311.7,136.54,286.18Z"/><path class="cls-25" d="M148.27,427.21s58.3,7.77,74.48-10.78c0,0,1.76-3.66-.68-5.39.35,3.43-27.38,18.37-71.34,8.92C150.73,420,145.42,421.86,148.27,427.21Z"/><circle class="cls-26" cx="196.7" cy="424.4" r="13.6"/><path class="cls-27" d="M198.17,434.94c-2,0-6.29-.4-9.08-3.51-2.41-2.69-3.08-6.67-2-11.81a1.51,1.51,0,0,1,1.78-1.15,1.49,1.49,0,0,1,1.15,1.78c-.89,4.15-.46,7.24,1.28,9.18,2.65,3,7.58,2.48,7.63,2.48a1.5,1.5,0,0,1,.31,3A9.77,9.77,0,0,1,198.17,434.94Z"/><path class="cls-28" d="M204.92,430.33a1.86,1.86,0,0,1-.33,0,1.5,1.5,0,0,1-1.14-1.79c.92-4.14.51-7.22-1.21-9.17-2.62-3-7.58-2.54-7.63-2.54a1.5,1.5,0,0,1-.29-3c.26,0,6.51-.59,10.15,3.52,2.41,2.71,3.05,6.68,1.91,11.82A1.51,1.51,0,0,1,204.92,430.33Z"/><path class="cls-2" d="M174.69,142.14a48.07,48.07,0,0,1,14.36,2.67,15.67,15.67,0,0,1,5.45-1.07c7.22,0,9.95,6.42,9.95,6.42a18.11,18.11,0,0,1,16.06,10.57c12.55,9.6,4.34,16.43,3.87,16.81l.15.07s6.55,8.32,2.84,10.3a15.76,15.76,0,0,1,.5,1.56c2.73,1,5.49,2.35,6.71,3.91l-1.34.22c.34.2.63.38.84.52h0l.5.32a8.15,8.15,0,0,1,3.9,1h0a11.46,11.46,0,0,1,1.76,1.19,1.54,1.54,0,0,1,.58-.12c1.45,0,2.41,2.13.85,2.94a45.93,45.93,0,0,1-16.5,4.79l1.13,5.48a6,6,0,0,1-.21.63c2.56,21-1.11,47.95-11.53,68.68-1.49,3-4.63,4.85-10.35,4.85-3.85,0-8.88-.86-15.36-2.82a93.22,93.22,0,0,1-11.73-4.43s-.06,3.89.12,5.35a3.12,3.12,0,0,0,.77,1.92c8.33,6.25,19.31,8.07,25.73,8.59-.07-.26-.12-.42-.12-.42l10.41,1a26.41,26.41,0,0,1,2.32,2.64h.11c3.13,0,5.6,3.42,5.6,3.42l41,71.83-35.41,63.54s11.89,20,5.94,29l8.21,8.2s1.31,4.4-4.64,4.4c-1.77,0-4.27-.93-6.89-2.24a450.29,450.29,0,0,1,1.64,46.55,47,47,0,0,0-4.79-.72l0,3h0c-.11,21.11-.05,51.61,1.2,58.56,2,10.88,0,16.23,0,16.23s5.36,8.88,5.36,9.53,7.49,10.29,7.49,10.29,24.25,19.08,26.39,21.22S276.2,641,276.2,641c2.23,2.23-4.9,4.91-4.9,4.91s-11.06,5.16-18.43,5.16a12.51,12.51,0,0,1-2.08-.17c-7.14-1.25-23.9-15.52-29.08-18.37s-1.07-11.06.72-14.27,3-12.31,3-12.31c-6.81-23.89-9.9-31.53-11.13-31.53-2.17,0,1.54,24.06.79,24.06q-.06,0-.18-.27C213.58,595,201.45,550,192.8,517.54l-.06-.24c-.5-1.84-1-3.65-1.44-5.4a23,23,0,0,1-4.47-2.65,139.5,139.5,0,0,1-23.55,9.34l-25.87,64.87s-2.52-33.76-6-48.15c-1.92.45-3.86.86-5.61,1.14a240.48,240.48,0,0,1-10.55,29.21c1-10,2.32-20.72,4-30.2h0c.53-3.17,1.11-6.2,1.73-9-5.11.43-8.17.48-8.17.48s26.73-74.6,35.38-100c-2.19-4.42,1.25-6.4,2.28-6.88.13-.39.22-.72.29-.95,2.14-7.85-19.16-56.6-19.16-56.6h.24c0-.18-.07-.44-.15-.8-.33-1.49-1.6-15.78-2.26-23.32-3-8.05-7.84-18.34-14.58-25.07-12.5-12.5-51.43-71.73-51.43-71.73s31.82-15.8,60.53-30.2l7.16-3.83a8.21,8.21,0,0,1-.74-5.15c-7.39-5-4.44-9.1-4.44-9.1-6.23-7.73,4.22-13.94,4.22-13.94-2.44-4.56,1.81-8.84,1.81-8.84-2.34-7,4.95-12.66,4.95-12.66,2.47-6.09,13-6.94,13-6.94,1.68-2.91,6-3.22,6-3.22a6.93,6.93,0,0,1,5.21-2.32,7.59,7.59,0,0,1,2.79.52c2.57-2.89,6.67-3.8,10.83-3.8m-32.26,77.93-.21-.33h0l.21.32m-14.26,66.11c1.77-1.77,3.29-2.37,4.53-2.37a4.9,4.9,0,0,1,3.84,2.37,70.8,70.8,0,0,0,11.9,1.54c1.88,0,3.42-.23,4.07-.88,2.32-2.32,3.15-8.06,3.15-8.06l.8-6.82v-.1l1-8.34c-11.19-10.81-13.53-21.37-13.53-21.37a5.06,5.06,0,0,1-2.46.63c-4.09,0-7.58-4.79-7.58-4.79a65.91,65.91,0,0,1-4.42-10.76c-9.44,5.52-18.48,10.76-23,13.4-7.41,4.58-12.27,7.67-12.27,7.67,4.43,4.43,34,37.88,34,37.88m95.1,126.71,22-39.7-20.94-31.12c.56,8.93.91,18.12.81,26.76A347.41,347.41,0,0,1,222.07,411a2.93,2.93,0,0,1,1.2,1.85m-48.58-275.8h0c-5,0-9.13,1.13-12.23,3.36a12.24,12.24,0,0,0-1.39-.08,11.81,11.81,0,0,0-7.53,2.64,13.42,13.42,0,0,0-6.31,3.21c-3.81.65-11.21,2.65-14.42,8.5-3.21,2.88-7,8.27-6.31,14.61a13.08,13.08,0,0,0-2.15,8.13,16.06,16.06,0,0,0-5.29,8.76,12,12,0,0,0,1.31,7.9,9.52,9.52,0,0,0,0,3,13.29,13.29,0,0,0,4.77,7.68c0,.05,0,.1,0,.16l-3.61,1.93c-28.35,14.22-60.13,30-60.45,30.16a5.06,5.06,0,0,0-2,7.3c1.61,2.44,39.37,59.8,52.09,72.52,6,6,10.46,15.51,13.18,22.64,1.38,15.75,1.9,20.6,2.13,22.3a5.06,5.06,0,0,0,.38,2.7c0,.11,5.13,11.76,10,24.36,7.41,19.21,8.68,26,8.86,28.19a9.29,9.29,0,0,0-3,9.94c-9.1,26.52-34.51,97.44-34.77,98.17a5,5,0,0,0,4.76,6.75h.09c.06,0,.7,0,1.84-.06-.16.89-.32,1.79-.47,2.71v0c-1.48,8.48-2.83,18.73-4,30.48a5.06,5.06,0,0,0,3.74,5.4,5.18,5.18,0,0,0,1.29.16,5.07,5.07,0,0,0,4.63-3c3.54-8.08,6.31-15.73,8.36-22,2.44,15.65,4.12,37.88,4.14,38.16a5,5,0,0,0,4.27,4.61,5,5,0,0,0,5.46-3.12l25-62.62a147.62,147.62,0,0,0,19.4-7.63l.52.3.87,3.22.06.23c20.62,77.28,21.94,80.35,22.37,81.37a5.2,5.2,0,0,0,4.83,3.33,5.14,5.14,0,0,0,3.78-1.68l.09-.1c.42,1.43.86,2.94,1.31,4.55-.58,3.76-1.57,8.21-2.29,9.51-3.47,6.24-4.59,11.24-3.43,15.28a9.6,9.6,0,0,0,4.69,5.86c1.41.78,4.38,3,7.52,5.27,9.72,7.15,17.6,12.69,23.13,13.66a17.11,17.11,0,0,0,3,.24c7.95,0,18.51-4.69,20.39-5.55,3.38-1.3,7.48-3.6,8.29-7.33a6.26,6.26,0,0,0-1.77-5.81,5.09,5.09,0,0,0-3.37-1.48,16.41,16.41,0,0,1-5.4-1.05c-2.67-2.54-21.31-17.24-26.24-21.12-2.59-3.34-5.5-7.22-6.38-8.56-.48-1.27-1.69-3.5-4.68-8.5.54-3,1-8.39-.42-16.3-.87-4.78-1.28-24.74-1.14-54.93a5.05,5.05,0,0,0,4.84-4.94c0-.87.42-19.47-1-39.43.41,0,.82.06,1.21.06,4.61,0,7-1.92,8.22-3.53a8.51,8.51,0,0,0,1.26-7.36,5,5,0,0,0-1.27-2.13l-5.77-5.77c1.39-4.81.72-11-2-18.49a79.37,79.37,0,0,0-4.18-9.37l34.06-61.1a5.06,5.06,0,0,0,0-5l-41-71.83c-.09-.15-.19-.31-.29-.45A14.21,14.21,0,0,0,219,291q-.68-.75-1.41-1.5a5.09,5.09,0,0,0-3.11-1.46l-2.84-.26a13,13,0,0,0,7.41-6.45c10.15-20.18,14.78-47.09,12.16-70.48a5,5,0,0,0,0-2.11l-.06-.29A48.37,48.37,0,0,0,244,204a6.41,6.41,0,0,0,3.33-7.29,6.83,6.83,0,0,0-5.52-5.11c-.23-.15-.47-.29-.71-.43l-.44-.23a13.19,13.19,0,0,0-2.36-1,15.18,15.18,0,0,0-4.76-3.52c.2-3-1.22-6.17-2.8-8.74a12.72,12.72,0,0,0,1.76-6.58c-.05-4.77-2.72-9.35-7.95-13.62a23,23,0,0,0-17.07-12.12,15.86,15.86,0,0,0-13-6.68,19.91,19.91,0,0,0-5.44.8,51.48,51.48,0,0,0-14.37-2.4ZM109,245l17.76-10.31c1.34,3.26,2.57,5.57,2.65,5.72a5.36,5.36,0,0,0,.38.59c.79,1.09,4.88,6.3,10.71,6.82a56.58,56.58,0,0,0,11.64,17.56l-.69,5.92,0,.11-.79,6.73a17.79,17.79,0,0,1-1.32,4.54l-.89,0a58.15,58.15,0,0,1-9.14-1.09,9.39,9.39,0,0,0-6.6-2.82,9.51,9.51,0,0,0-3.68.76c-6-6.79-19.66-22.16-27-30.2,1.91-1.2,4.28-2.68,7-4.35ZM229.18,391.81c.51-6.64.94-14.5,1-22.92,0-2.91,0-5.95,0-9.12l9.2,13.68-10.19,18.36Z"/></g><g class="cls-29"><path class="cls-9" d="M172.42-89.29,138.06-3.11s-4.43-59.47-9.69-54.21a232.1,232.1,0,0,1-13,37.64c-8.92,20-12.84,47.44-12.84,47.44s8.11,20.6,7.13,29.88c0,0,7.76,53.79,4.64,59.94s-15.34,2.5-15.34,2.5-20.42,2.68-23.46-2.41,3.84-61.82,3.84-61.82S78.34,45,81.9,42.48s7.85-8.57,7.85-8.57-1.34-3.56,2.41-8.38,9.28-35.7,9.28-39.74-5,41.54,11.65,29.65c0,0,4-82,15.46-93.47s43.87-18.19,43.87-18.19Z"/><path class="cls-9" d="M184.67-102S213.45,6.64,215.59,11.63s-9.1-61.1,10.52,7.75c0,0-1.25,9.09-3,12.3S217.19,43.1,222.37,46s21.94,17.13,29.07,18.37,20.51-5,20.51-5,7.14-2.67,4.91-4.9c0,0-6.51-.27-8.65-2.41s-26.4-21.23-26.4-21.23-7.49-9.63-7.49-10.28S229,11,229,11s2-5.35,0-16.24-1-79.43-1-79.43Z"/><path class="cls-2" d="M100.91-9.53h0m0,0c-.43,7.32-.39,20.66,3.76,25.3-1.47,7.12-2.16,12-2.16,12s8.11,20.6,7.13,29.88c0,0,7.76,53.79,4.64,59.94-1.43,2.82-4.75,3.58-8,3.58a29.25,29.25,0,0,1-7.39-1.08,95.52,95.52,0,0,1-11,.71c-5.36,0-11-.64-12.45-3.12-3-5.08,3.84-61.82,3.84-61.82S78.34,45,81.9,42.48s7.85-8.57,7.85-8.57-1.34-3.56,2.41-8.38c3-3.92,7.28-25.13,8.75-35.06m0-5.05a5.15,5.15,0,0,0-1.18.14,5,5,0,0,0-2.11,1.09,5.1,5.1,0,0,0-1.26,1.64,5.15,5.15,0,0,0-.45,1.52C93.93,3.1,90,19.86,88.15,22.46a15.6,15.6,0,0,0-3.66,10.07A32.94,32.94,0,0,1,79,38.34c-5.16,3.61-5.11,13-4.77,17.42-.32,2.7-1.82,15.5-3,28.64-2.82,31.28-1.17,34-.09,35.86,2.3,3.86,7.48,5.58,16.79,5.58a101.05,101.05,0,0,0,10.64-.63,33.55,33.55,0,0,0,7.76,1c7.63,0,11-3.45,12.45-6.34,1-1.94,2.63-5.19-.63-35.11-1.36-12.5-3-24.54-3.43-27.27.62-9.25-5.14-25.34-7-30.29.3-1.86.93-5.63,1.92-10.41a5.09,5.09,0,0,0-1.18-4.39c-1.74-1.94-3.15-9.93-2.5-21.47a3.46,3.46,0,0,0,0-.46,5.05,5.05,0,0,0-4.9-5.05Zm0,10.11h0Z"/><path class="cls-2" d="M115.89-20.92h0m0,0c-2,19.5-2.8,36.36-2.8,36.36a8.9,8.9,0,0,1-5,2,4.52,4.52,0,0,1-3.46-1.65c2-9.8,5.51-23.88,10.68-35.45l.54-1.24m0-5a5.52,5.52,0,0,0-.71,0,5,5,0,0,0-2.28.93,5,5,0,0,0-1.21,1.27,4.64,4.64,0,0,0-.47.88l-.08.18c-.13.3-.27.61-.41.91-5.35,12-8.94,26.47-11,36.5a5.06,5.06,0,0,0,1.19,4.39,9.49,9.49,0,0,0,7.22,3.33,13.62,13.62,0,0,0,7.9-2.92,5,5,0,0,0,2.1-3.87c0-.16.85-16.86,2.77-35.91a5.21,5.21,0,0,0,0-.69,5.06,5.06,0,0,0-4.71-5Zm0,10.11h0Z"/><path class="cls-2" d="M175.34-444.43a48.07,48.07,0,0,1,14.36,2.67,15.71,15.71,0,0,1,5.45-1.08c7.22,0,10,6.42,10,6.42a18.11,18.11,0,0,1,16,10.58c12.55,9.59,4.35,16.42,3.88,16.8l.14.07s6.55,8.32,2.85,10.3a14.26,14.26,0,0,1,.49,1.57c2.73,1,5.49,2.35,6.71,3.9l-1.34.22.84.52h0l.5.33a8.26,8.26,0,0,1,3.9,1h0a11.46,11.46,0,0,1,1.76,1.19,1.53,1.53,0,0,1,.58-.11c1.45,0,2.41,2.13.85,2.94a45.85,45.85,0,0,1-16.5,4.78l1.13,5.49s-.06.23-.2.62c2.55,21-1.12,47.95-11.54,68.69-1.49,3-4.63,4.84-10.35,4.84-3.85,0-8.88-.86-15.36-2.82a91.7,91.7,0,0,1-11.73-4.43s-.06,3.9.13,5.35a3,3,0,0,0,.76,1.92c8.33,6.25,19.31,8.07,25.73,8.6l-.11-.42,10.41,1a25.42,25.42,0,0,1,2.31,2.64h.11c3.13,0,5.6,3.41,5.6,3.41l41,71.83-35.42,63.55s11.89,20,5.95,29l8.2,8.21s1.31,4.4-4.64,4.4c-1.77,0-4.26-.94-6.89-2.24a450.13,450.13,0,0,1,1.64,46.54,45.16,45.16,0,0,0-4.79-.71l0,3h0c-.11,21.12,0,51.61,1.21,58.56,2,10.89,0,16.24,0,16.24s5.35,8.87,5.35,9.53,7.49,10.28,7.49,10.28S266.07,49.88,268.21,52s8.65,2.41,8.65,2.41c2.23,2.23-4.91,4.9-4.91,4.9s-11.05,5.16-18.42,5.16a11.56,11.56,0,0,1-2.09-.17c-7.13-1.24-23.9-15.51-29.07-18.37s-1.07-11.06.71-14.27,3-12.3,3-12.3c-6.81-23.9-9.9-31.54-11.12-31.54-2.18,0,1.53,24.06.78,24.06,0,0-.1-.08-.18-.27C214.23,8.46,202.11-36.61,193.45-69l-.06-.24c-.49-1.85-1-3.66-1.44-5.41a23.14,23.14,0,0,1-4.46-2.64A141.64,141.64,0,0,1,163.93-68L138.06-3.11s-2.52-33.77-6-48.16c-1.91.45-3.85.86-5.61,1.15a241.05,241.05,0,0,1-10.55,29.2c1-10,2.33-20.72,4-30.2h0c.53-3.17,1.11-6.2,1.74-9-5.11.42-8.18.48-8.18.48s26.73-74.61,35.38-100c-2.19-4.42,1.25-6.41,2.28-6.88.13-.4.22-.72.29-1,2.14-7.85-19.16-56.59-19.16-56.59h.24c0-.18-.07-.43-.15-.8-.32-1.48-1.6-15.78-2.26-23.31-3-8.06-7.84-18.34-14.58-25.08C103-285.72,64-344.95,64-344.95s31.82-15.8,60.53-30.2l7.16-3.84a8.32,8.32,0,0,1-.74-5.14c-7.39-5-4.43-9.11-4.43-9.11-6.24-7.72,4.22-13.94,4.22-13.94-2.44-4.56,1.8-8.83,1.8-8.83-2.34-7.05,4.95-12.67,4.95-12.67,2.47-6.08,13-6.94,13-6.94,1.68-2.9,6-3.21,6-3.21a6.89,6.89,0,0,1,5.21-2.32,7.52,7.52,0,0,1,2.79.52c2.57-2.89,6.67-3.8,10.83-3.8M143.09-366.5c-.08-.11-.14-.22-.21-.33h0l.22.33m-14.27,66.1c1.77-1.77,3.29-2.36,4.53-2.36a4.88,4.88,0,0,1,3.84,2.36,70.38,70.38,0,0,0,11.91,1.55c1.87,0,3.41-.23,4.06-.88,2.32-2.32,3.15-8.06,3.15-8.06l.8-6.82,0-.1,1-8.35c-11.2-10.8-13.54-21.36-13.54-21.36a5.15,5.15,0,0,1-2.46.63c-4.09,0-7.58-4.79-7.58-4.79a65.36,65.36,0,0,1-4.41-10.76c-9.44,5.51-18.48,10.75-23.05,13.39-7.41,4.59-12.26,7.67-12.26,7.67,4.43,4.43,34,37.88,34,37.88m95.1,126.72,22-39.7L225-244.51c.55,8.94.9,18.13.8,26.77a347.65,347.65,0,0,1-3.09,42.21,2.89,2.89,0,0,1,1.2,1.85M175.34-449.49h0c-5,0-9.13,1.13-12.23,3.36a12.31,12.31,0,0,0-1.39-.07,11.76,11.76,0,0,0-7.53,2.64,13.39,13.39,0,0,0-6.31,3.2c-3.8.66-11.21,2.66-14.42,8.51-3.2,2.87-7.05,8.26-6.3,14.61a13,13,0,0,0-2.16,8.13,16,16,0,0,0-5.29,8.76,12,12,0,0,0,1.31,7.89,9.88,9.88,0,0,0,0,3.06,13.27,13.27,0,0,0,4.77,7.67c0,.05,0,.11,0,.16l-3.6,1.93c-28.36,14.22-60.14,30-60.46,30.16a5.09,5.09,0,0,0-2.63,3.21,5,5,0,0,0,.66,4.09c1.6,2.44,39.36,59.81,52.08,72.52,6,6,10.46,15.51,13.18,22.64,1.38,15.75,1.9,20.61,2.14,22.3a5,5,0,0,0,.37,2.7c0,.12,5.13,11.76,10,24.37,7.41,19.21,8.68,26,8.86,28.18a9.56,9.56,0,0,0-2.89,4.11,9.56,9.56,0,0,0-.12,5.83c-9.1,26.53-34.5,97.44-34.77,98.17a5,5,0,0,0,.66,4.65,5,5,0,0,0,4.1,2.11h.09l1.84-.07c-.16.89-.32,1.8-.47,2.72v0c-1.48,8.48-2.83,18.74-4,30.49A5,5,0,0,0,114.61-16a5.12,5.12,0,0,0,1.28.17,5,5,0,0,0,4.63-3c3.54-8.08,6.31-15.72,8.36-22C131.33-25.24,133-3,133-2.74a5.06,5.06,0,0,0,4.27,4.62,5.09,5.09,0,0,0,.77.06,5.05,5.05,0,0,0,4.69-3.18l25-62.63a146.09,146.09,0,0,0,19.39-7.63l.53.3.86,3.23.06.23c20.62,77.27,21.94,80.35,22.37,81.36A5.22,5.22,0,0,0,215.77,17a5.14,5.14,0,0,0,3.78-1.68l.09-.11c.42,1.43.86,3,1.32,4.55-.58,3.77-1.58,8.21-2.3,9.51-3.47,6.25-4.59,11.25-3.43,15.28a9.57,9.57,0,0,0,4.7,5.87c1.4.77,4.37,2.95,7.51,5.26,9.73,7.15,17.6,12.69,23.13,13.66a17.23,17.23,0,0,0,3,.24c7.94,0,18.5-4.69,20.38-5.55,3.38-1.29,7.48-3.6,8.29-7.32a6.25,6.25,0,0,0-1.77-5.82,5.08,5.08,0,0,0-3.37-1.47,16.67,16.67,0,0,1-5.4-1.05c-2.67-2.54-21.31-17.24-26.24-21.12-2.59-3.34-5.5-7.22-6.38-8.56-.48-1.28-1.69-3.5-4.68-8.51.54-2.95,1-8.39-.42-16.29-.86-4.78-1.27-24.74-1.14-54.94a5,5,0,0,0,2.73-.94,5,5,0,0,0,2.11-4c0-.88.43-19.47-1-39.44a10.17,10.17,0,0,0,1.21.07c4.62,0,7-1.92,8.22-3.54a8.45,8.45,0,0,0,1.26-7.35,4.94,4.94,0,0,0-1.27-2.13l-5.77-5.78c1.39-4.8.73-11-2-18.48a80.58,80.58,0,0,0-4.17-9.38l34.05-61.1a5,5,0,0,0,0-5l-41-71.83c-.09-.16-.19-.31-.29-.46a14.21,14.21,0,0,0-7.14-5.16c-.45-.51-.91-1-1.41-1.5a5,5,0,0,0-3.1-1.46l-2.85-.27a13,13,0,0,0,7.41-6.44c10.15-20.19,14.78-47.09,12.17-70.49a5,5,0,0,0,0-2.11l-.06-.29a48.37,48.37,0,0,0,12.81-4.48,6.39,6.39,0,0,0,3.33-7.29,6.86,6.86,0,0,0-5.52-5.11c-.23-.14-.47-.29-.71-.42a3.75,3.75,0,0,0-.44-.24,14.48,14.48,0,0,0-2.36-1,15.22,15.22,0,0,0-4.76-3.52c.2-3-1.22-6.17-2.79-8.74a12.71,12.71,0,0,0,1.75-6.57c-.05-4.78-2.72-9.36-8-13.63a23.07,23.07,0,0,0-17.07-12.11,15.86,15.86,0,0,0-13-6.69,19.61,19.61,0,0,0-5.44.81,51.43,51.43,0,0,0-14.37-2.41ZM109.66-341.61c4.35-2.51,10.89-6.3,17.76-10.31,1.35,3.26,2.57,5.57,2.65,5.72a4.67,4.67,0,0,0,.38.6c.79,1.09,4.88,6.29,10.71,6.82a56.88,56.88,0,0,0,11.64,17.56l-.69,5.92v.1l-.8,6.74a17.83,17.83,0,0,1-1.32,4.53c-.23,0-.52,0-.88,0A57,57,0,0,1,140-305a9.42,9.42,0,0,0-6.6-2.81,9.5,9.5,0,0,0-3.68.75c-6-6.78-19.66-22.16-27-30.2l7-4.35ZM229.84-194.77c.51-6.63.93-14.5,1-22.92,0-2.91,0-5.94-.05-9.12l9.2,13.68-10.18,18.36Z"/></g></svg>