<svg id="Camada_1" data-name="Camada 1" xmlns="http://www.w3.org/2000/svg" xmlns:xlink="http://www.w3.org/1999/xlink" viewBox="0 0 850 509.83"><defs><style>.cls-1{fill:none;}.cls-2{clip-path:url(#clip-path);}.cls-3{fill:#eaa000;}.cls-4{fill:#6d472e;}.cls-5{fill:#eac2a7;}.cls-6{fill:#97d8dd;}.cls-7{fill:#027e8f;}.cls-8{fill:#65c4d1;}.cls-9{fill:#fff;}.cls-10{clip-path:url(#clip-path-2);}.cls-11{fill:#c9a68f;}.cls-12{fill:#d6aa8b;}.cls-13{fill:#d6d6d6;}.cls-14{fill:#c99f4b;}.cls-15{fill:#f4f4f4;}.cls-16{clip-path:url(#clip-path-3);}.cls-17{fill:#b7b7b7;}.cls-18{fill:#c99e32;}.cls-19{clip-path:url(#clip-path-4);}.cls-20{fill:#aa7e30;}.cls-21{fill:#ddd;}.cls-22{fill:#846829;}.cls-23{fill:#e8cd95;}.cls-24{fill:#6d5f56;}.cls-25{fill:#493e38;}.cls-26{fill:#d32222;}.cls-27{fill:#fcfcfc;}</style><clipPath id="clip-path"><path class="cls-1" d="M237.76-409.12c-3.19-11.51-10-24.4-26.27-30.12-65.45-23-62.87-8.05-73.7-10-5.18-.92-26.7,12-44,37.5C80.94-392.91,79.87-356,79.87-356S29.66-131.41,115.71-101.7c80.43,27.77,128.74-5,128.74-5S304.66-167.32,237.76-409.12Z"/></clipPath><clipPath id="clip-path-2"><path class="cls-1" d="M238.17,182.63c-3.19-11.51-10-24.4-26.27-30.12-65.45-23-62.87-8-73.7-10-5.18-.92-26.7,12-44,37.5-12.81,18.8-13.88,55.75-13.88,55.75S30.07,460.34,116.12,490.05C196.55,517.82,244.86,485,244.86,485S305.07,424.43,238.17,182.63Z"/></clipPath><clipPath id="clip-path-3"><path class="cls-1" d="M186.88,507.91c5.39,10.7,43.31,12.95,46.45,13.95,0,0,1-42.95-5.06-67.07S186.88,507.91,186.88,507.91Z"/></clipPath><clipPath id="clip-path-4"><path class="cls-1" d="M140.77,241.74c6.68,2.77.92-9.22.92-9.22s-.63-12-4-14.06a48.87,48.87,0,0,1-7.43-6.07l17.09-11.71,46.7-32s6.46-9-8.3-14.52a17.54,17.54,0,0,0-17.86-5.31s-6.46-7.72-15.8-.63c0,0-18.78-1.09-23.05,8.13a7,7,0,0,0-6.92,3.92s-3.92,1.49-4.66,4.66c0,0-9.52,3.75-10.09,10.09,0,0-5.19,7.26-1,13.14,0,0-2.74,5.16.81,8.7,0,0-8,8.71,0,14.13,0,0-2,5.64,9.68,7.95l3.46,7.14s3.33-1.51,12.91,8.08S140.77,241.74,140.77,241.74Z"/></clipPath></defs><title>Fala3</title><g class="cls-2"><path class="cls-3" d="M159.5-446.54a11.16,11.16,0,0,1,7.95,3.63,18.92,18.92,0,0,1,4.81-.64,17.54,17.54,0,0,1,13.05,5.94c14.34,5.38,8.65,14,8.32,14.5l.16,0s8.41,5.88,5.53,8.76c0,0,5.19,6.45,1,9.9a4.57,4.57,0,0,1-1.5.76c11.79,18.37,18.82,50.79,14.18,77.53-.92,5.29-7,9.1-23.27,9.1h0a86.47,86.47,0,0,1-15.76-1.4c.15,1.24.33,2.6.51,3.95h0c.81,5.82,2,12.44,3.3,13.42,8.32,6.24,20.71,8.83,27.68,9.84l10.09.94a25.3,25.3,0,0,1,2.24,2.54h.11c3,0,5.43,3.32,5.43,3.32l39.78,69.64-34.33,61.6s11.53,19.37,5.76,28.13l8,8s1.27,4.27-4.5,4.27c-1.72,0-4.13-.91-6.68-2.17a434.15,434.15,0,0,1,1.59,45.12,43.08,43.08,0,0,0-4.64-.7l0,3h0c-.11,20.46-.05,50,1.17,56.77,1.9,10.55,0,15.73,0,15.73s5.18,82.08,5.18,82.71,7.27,10,7.27,10,9.6,7.56,17.07,13.56h0s4.5,1.17,6.26,2.64a6.1,6.1,0,0,1,1.88,3.93c.5.33,1.33.89,2.27,1.57a24.15,24.15,0,0,0,6.49,1.21c1,1,0,2.15-1.34,3,.75.8,1.2,1.5,1.07,2-.49,1.8-7.44,9.12-20,9.12-.71,0-1.44,0-2.18-.07-13.2-.87-31.5-14.93-33-18.85a11.69,11.69,0,0,1,.19-7.9c0-3.33,2-7.33,3.13-9.33,1.73-3.12,2.94-11.93,2.94-11.93-19-66.75-8.13-76.14-10.2-81C215.12,2.42,203.37-41.27,195-72.7h0l0-.14c-.48-1.82-1-3.6-1.42-5.32a22.5,22.5,0,0,1-4.34-2.57,136.25,136.25,0,0,1-22.82,9l-2.42,6.05L141.28-8.8S137,7,131.88,12.13a224.67,224.67,0,0,1-12.62,36.48c-8.64,19.37-12.45,46-12.45,46s6.2,15.73,6.92,25.56c7.29,10,13.83,22.28,5.15,25.91A49.76,49.76,0,0,1,100,149.39c-10.46,0-19.84-2.45-22-4.64-3.51-3.51,6.47-30.14,6.47-30.14.31-2.42,1-4.76,2.39-5.74,3.46-2.42,7.61-8.3,7.61-8.3s-1.3-3.46,2.33-8.13,9-34.61,9-38.53-4.85-33.2,11.29-44.72c0,0,1.85-37.44,6.58-64.52h0c.51-3.08,1.07-6,1.68-8.74-5,.41-7.93.46-7.93.46S122.19-77,128.31-94.14c-5.22-.5-1.79-8.6-1.79-8.6a43.15,43.15,0,0,0,6.14-3.62l2-5.63c-1.73-4.26,2.58-17.5,2.58-17.5L121.4-141.44,75.34-176.17s37-87.26,38.5-88.76c1-1,8.12-5.16,13-8,5.16-5.15,16.23-9.24,16.23-9.24s10.55-11.93,12.8-14.18,1.21-8.47,1.21-8.47L151.36-327c-10.21-6.41-14.23-13.55-14.23-13.55a5.12,5.12,0,0,1-3.76,1.51c-3.36,0-6.73-2.55-6.73-2.55s-14.64-14.64-10-21.56a4.35,4.35,0,0,1,3.8-2.09c3,0,6.61,2.49,9.14,4.62-5.2-4.53-8-5.15-9.1-5.15l-.35,0-.09.06-.07,0-.1,0,0-.1c-1.09-.55-6-3.24-6.42-7.79-8.27-2.59-6.67-7.2-6.67-7.2-8-5.42,0-14.12,0-14.12-3.55-3.55-.81-8.71-.81-8.71-4.15-5.88,1-13.14,1-13.14.57-6.34,10.08-10.08,10.08-10.08.75-3.17,4.67-4.67,4.67-4.67a6.94,6.94,0,0,1,6.39-3.95,4,4,0,0,1,.53,0c3.45-7.45,16.38-8.17,21.21-8.17,1.15,0,1.84,0,1.84,0a12.92,12.92,0,0,1,7.85-3m65,272.39,21.34-38.49-20.29-30.17c.54,8.66.87,17.57.78,25.95a338.19,338.19,0,0,1-3,40.92,2.84,2.84,0,0,1,1.17,1.79m-78,28.67c2.06-5.9,3.86-11.07,5.21-15-2.14-4.29,1.21-6.22,2.22-6.68.11-.38.21-.7.27-.92,2.08-7.61-17.46-44.93-17.46-44.93l-16.5-10.34L97.1-179.88l37,25.76,12.41,8.64M266.57,117.33h0M159.5-451.91h0a17.47,17.47,0,0,0-9.47,3h-.22c-6.95,0-18.65,1.16-24.31,8.39a12.08,12.08,0,0,0-7.62,5,13.61,13.61,0,0,0-5,4.75c-3.43,1.75-9.7,5.73-11.09,12.13-2.19,3.63-4.23,9.76-1.8,15.53a13.15,13.15,0,0,0,.26,8.08,16,16,0,0,0-2.4,9.7,12,12,0,0,0,3.45,7.11,10,10,0,0,0,.94,2.82,13.21,13.21,0,0,0,6.62,5.92,14.22,14.22,0,0,0,2.76,4.27c-2.61,4.77-1.32,11,3.81,18.54a68.59,68.59,0,0,0,7.39,8.95l.56.49c.8.61,5.06,3.63,10,3.63a12,12,0,0,0,2-.17,53.91,53.91,0,0,0,11.32,10.2l5.18,19.91a12.35,12.35,0,0,1,0,3.89c-2.34,2.41-9.3,10.25-11.87,13.15-3.25,1.3-11.37,4.82-16.32,9.45-12,6.91-13,7.88-13.6,8.52-1,1-1.66,1.67-21,46.62-9.33,21.77-18.6,43.62-18.69,43.84l1.7,6.38,46.06,34.73,12.86,9.7c-1.34,4.77-2.59,10.8-1.95,15.15l-.89,2.52a42.38,42.38,0,0,1-4,2.2l-2.64,2.75c-.73,1.72-2.9,7.66-.26,12.09a8,8,0,0,0,.52.77c-5.43,15.22-9.5,26.56-9.5,26.56l5.15,7.18,1.21,0c-.12.68-.24,1.37-.35,2.06h0c-4.09,23.43-6,53.89-6.51,62.7C97.5,19,99.56,43.57,100.26,51.87c.07.83.15,1.77.15,2-.06,4.37-5.38,31.48-7.89,35.27a16.12,16.12,0,0,0-3.66,9.92,30.17,30.17,0,0,1-5.09,5.37c-2.42,1.7-3.91,4.59-4.55,8.83-.66,1.78-2.71,7.48-4.47,13.57-3.64,12.57-3.79,18.44-.56,21.68,4.08,4.07,16.08,6.21,25.82,6.21A54.87,54.87,0,0,0,121,151a11.52,11.52,0,0,0,7-7.64c1.71-6.14-1.15-14.17-9-25.18-1-8.73-5.12-20.23-6.6-24.18.89-5.56,4.68-27.2,11.83-43.22a233.41,233.41,0,0,0,12.62-36.11c5.06-6.21,8.7-18.54,9.59-21.78l22.55-56.55,1.47-3.68a142.75,142.75,0,0,0,18.42-7.24l.14.08.81,3,0,.08v0C208-3.24,210.65,5.38,211.35,7.21c0,.49-.2,1.47-.34,2.29-1.3,7.82-4.34,26,10.16,77.33-.56,3.55-1.5,7.79-2.16,9-2.29,4.13-3.56,7.8-3.77,11a16.64,16.64,0,0,0,.13,10.81c1.94,5.09,12.19,11.86,14.22,13.16,4.92,3.16,14.49,8.54,23.43,9.12.84.06,1.69.08,2.53.08,14.4,0,23.91-8.38,25.19-13.07a6.16,6.16,0,0,0,.15-2.5,6.55,6.55,0,0,0-1.27-7.69l-3.56-1.57a20.11,20.11,0,0,1-4.23-.66,10.55,10.55,0,0,0-3.2-4.81,21.94,21.94,0,0,0-7.19-3.39c-6.27-5-13.74-10.91-15.75-12.49-2.24-2.9-4.74-6.21-5.82-7.77-.25-4.25-1.23-20.1-5.05-80.54.59-2.44,1.49-8.21-.14-17.25-.84-4.69-1.23-24.56-1.08-54.6l4.68-3.35c0-.84.41-18.56-.94-37.73l.67,0c4.67,0,7.11-2,8.34-3.61a8.74,8.74,0,0,0,1.3-7.55l-1.35-2.26-5.4-5.4c1.27-4.72.6-10.73-2-17.94a76.94,76.94,0,0,0-4-8.93l32.89-59,0-5.27L228-287.09l-.3-.47a14.27,14.27,0,0,0-7.06-5.17c-.41-.45-.83-.91-1.28-1.36l-3.3-1.54-9.95-.93c-6.05-.89-16.92-3.11-24.3-8.22a50.89,50.89,0,0,1-1.55-7.36c3.1.3,6.27.46,9.49.46,6.5,0,26.22,0,28.57-13.55,4.31-24.81-.94-56.41-12.53-77.28,2.49-3.78,1.72-8.59-.53-12.59a8.58,8.58,0,0,0,0-1.34c-.28-3.27-2.71-6.26-5.16-8.48a12.76,12.76,0,0,0-.29-6.57c-1.42-4.52-5.23-8.1-11.34-10.65a23.2,23.2,0,0,0-16.2-6.77,23.88,23.88,0,0,0-3.25.22,16,16,0,0,0-9.51-3.22Zm71.37,255.24c.42-6,.76-12.84.84-20.13q0-3.48,0-7.29l7.89,11.72-8.71,15.7Zm-126.8,15.11,18.19-34.21,10.38,6.5c1.43,2.79,5,9.77,8.37,17.31,6.36,14,7.67,19.69,7.92,21.69a9.84,9.84,0,0,0-2.77,4.05,9.62,9.62,0,0,0-.16,5.79q-1,2.85-2.25,6.51l-6.61-4.6-33.07-23Z"/><path class="cls-4" d="M220.57,107.74a11.68,11.68,0,0,0-.19,7.9c1.49,3.92,19.79,18,33,18.85,13.94.91,21.67-7.15,22.19-9.05s-9-8.11-9-8.11Z"/><path class="cls-4" d="M84.45,114.61s-10,26.63-6.47,30.14,25.61,7.72,40.9,1.32-16.69-39.77-16.69-39.77Z"/><path class="cls-5" d="M174.59-92.34,141.28-8.8S137,7,131.88,12.13a224.67,224.67,0,0,1-12.62,36.48c-8.64,19.37-12.45,46-12.45,46s7.87,20,6.92,29c0,0,7.52,10.37,4.49,16.34s-14.87,2.42-14.87,2.42S83.56,144.92,80.62,140s3.71-18.15,3.71-18.15-1-10.55,2.51-13,7.61-8.3,7.61-8.3-1.3-3.46,2.33-8.13,9-34.61,9-38.53-4.85-33.2,11.29-44.72c0,0,3.92-79.54,15-90.61s42.53-17.64,42.53-17.64Z"/><path class="cls-5" d="M186.47-104.7S214.36.66,216.44,5.5s-8.82,14.23,10.2,81c0,0-1.21,8.81-2.94,11.93S218,109.47,223,112.24s21.27,16.6,28.18,17.81,19.89-4.84,19.89-4.84,6.91-2.6,4.75-4.76c0,0-6.31-.26-8.38-2.33s-25.59-20.58-25.59-20.58-7.27-9.33-7.27-10-5.18-82.71-5.18-82.71,1.9-5.18,0-15.73-1-77-1-77Z"/><path class="cls-4" d="M79.28,134.92s19.8-8.47,39.6-2a8.66,8.66,0,0,0-1.47-4.84c-1.64-2.59-26.46-6.57-37,2.12C80.41,130.21,78.16,133.45,79.28,134.92Z"/><path class="cls-4" d="M246.71,128.33s.77-17.44,19.86-11l.51.42a6.18,6.18,0,0,0-1.89-4c-1.76-1.47-6.26-2.64-6.26-2.64s-17.48-4.31-17.22,14.27C241.71,125.37,244.43,129.2,246.71,128.33Z"/></g><path class="cls-3" d="M177.91,158.73c93.46.11,169.21,76.65,169.31,171.09s-75.8,171.1-169.31,171.1S8.59,424.32,8.59,329.82s75.8-171.09,169.32-171.09m0-8h0a174.65,174.65,0,0,0-69,14.09,176.58,176.58,0,0,0-56.37,38.4,180.14,180.14,0,0,0,0,253.21,176.74,176.74,0,0,0,56.37,38.4,176.24,176.24,0,0,0,138.1,0,176.81,176.81,0,0,0,56.36-38.4,179.73,179.73,0,0,0-56.39-291.56,175.07,175.07,0,0,0-69-14.14Z"/><path class="cls-6" d="M177.9,158.73c-93.51,0-169.31,76.6-169.31,171.09s75.8,171.1,169.31,171.1,169.32-76.6,169.32-171.1S271.37,158.84,177.9,158.73Zm0,330.78c-87.27,0-158-71.49-158-159.69s70.75-159.68,158-159.68,158,71.49,158,159.68S265.14,489.41,177.9,489.51Z"/><path class="cls-6" d="M257.81,205.54a5.59,5.59,0,0,0-4.25-.81A5.65,5.65,0,0,0,250,207.2l-9.23,14.35a5.73,5.73,0,0,0,1.79,8,74,74,0,0,1,6.33,4.56c1.27,1,2.54,2,3.53,2.66,1.75,1.46,3.44,3,5.11,4.55l-3.9,3.94a112.59,112.59,0,0,0-24.74-17.13L240.43,202a5.75,5.75,0,0,0,.11-4.37,5.67,5.67,0,0,0-3-3.17,146.29,146.29,0,0,0-52-12.51,5.55,5.55,0,0,0-4.08,1.45,5.69,5.69,0,0,0-1.85,3.95l-.87,17.08a5.68,5.68,0,0,0,5.33,6l5.94.3,6.33,1c.81.14,1.63.26,2.44.38,1.22.17,2.44.35,3.51.59l.78.2-1.48,5.59A113.7,113.7,0,0,0,171.72,216l-2.93-28.54a5.66,5.66,0,0,0-2.06-3.84,5.57,5.57,0,0,0-4.15-1.24A144.11,144.11,0,0,0,111.3,197.8a5.73,5.73,0,0,0-2.45,7.67l7.7,15.23a5.63,5.63,0,0,0,7.4,2.59c1.13-.53,2.25-1.09,3.38-1.65a58.2,58.2,0,0,1,8.07-3.5l1.44-.54c1.7-.64,3.34-1.26,5-1.81l1.46,5.52c-1.39.47-2.74,1-4.08,1.48l-1.34.52a52.9,52.9,0,0,0-8,3.43c-1,.48-1.93,1-3.39,1.67L116.89,234l-.65.37L99.6,211.23A5.61,5.61,0,0,0,91.71,210a147.7,147.7,0,0,0-36.8,39.11,5.73,5.73,0,0,0,1.65,7.9l14.19,9.33a5.61,5.61,0,0,0,7.9-1.82q2.09-3.3,4.49-6.38c1-1.29,2-2.58,2.66-3.59,1.44-1.77,3-3.47,4.5-5.16l3.9,3.95a113.82,113.82,0,0,0-17,25L51.36,266.64a5.62,5.62,0,0,0-7.45,2.89,150.31,150.31,0,0,0-12.39,52.56,5.67,5.67,0,0,0,5.35,6l16.91.89a5.64,5.64,0,0,0,5.92-5.39l.3-6,1-6.39c.15-.83.26-1.65.38-2.48.18-1.23.35-2.47.59-3.54l.19-.79,5.54,1.5a116.91,116.91,0,0,0-2.43,30.2L37,339a5.58,5.58,0,0,0-3.79,2.08A5.68,5.68,0,0,0,32,345.3a149.58,149.58,0,0,0,15.28,51.82,5.58,5.58,0,0,0,7.59,2.48l15.07-7.77a5.74,5.74,0,0,0,2.56-7.48c-.52-1.14-1.07-2.25-1.61-3.37a60.45,60.45,0,0,1-3.49-8.2l-.55-1.5c-.63-1.7-1.23-3.35-1.77-5l5.53-1.49a113.44,113.44,0,0,0,12.88,27.29L60.54,409a5.72,5.72,0,0,0-1.24,8A147.24,147.24,0,0,0,98,454.11a5.61,5.61,0,0,0,7.81-1.67L115,438.1a5.73,5.73,0,0,0-1.79-8,76.27,76.27,0,0,1-6.33-4.56c-1.27-1-2.54-2-3.53-2.66-1.75-1.46-3.44-3-5.11-4.55l4-4c1.51,1.4,3.06,2.81,4.94,4.36,1.1.78,2.17,1.62,3.24,2.45a67.54,67.54,0,0,0,6.29,4.47l10.08,5.85.12.06-11.56,26.19a5.75,5.75,0,0,0-.11,4.37,5.62,5.62,0,0,0,3,3.16,146.3,146.3,0,0,0,52,12.52h.29a5.67,5.67,0,0,0,5.63-5.41l.88-17.09a5.67,5.67,0,0,0-5.33-6l-5.94-.31-6.33-1c-.81-.14-1.63-.26-2.44-.38-1.22-.18-2.44-.35-3.51-.6l-.78-.2,1.48-5.59a114.16,114.16,0,0,0,29.89,2.45L187,472.21a5.74,5.74,0,0,0,2.06,3.84,5.62,5.62,0,0,0,4.15,1.24,144.31,144.31,0,0,0,51.28-15.44,5.74,5.74,0,0,0,2.46-7.67l-7.71-15.24a5.62,5.62,0,0,0-7.39-2.58c-1.14.53-2.26,1.09-3.39,1.65a58.08,58.08,0,0,1-8.06,3.5l-1.44.54c-1.7.64-3.35,1.26-5,1.81l-1.49-5.59a111.5,111.5,0,0,0,27-13l16.69,23.17a5.61,5.61,0,0,0,7.88,1.26,148.06,148.06,0,0,0,36.81-39.11,5.8,5.8,0,0,0,.79-4.3,5.68,5.68,0,0,0-2.45-3.6l-14.19-9.33a5.62,5.62,0,0,0-7.9,1.81,71,71,0,0,1-4.49,6.38c-1,1.3-2,2.59-2.65,3.6-1.45,1.76-3,3.46-4.51,5.15l-3.9-3.94a113.64,113.64,0,0,0,16.95-25L304.45,393a5.63,5.63,0,0,0,7.45-2.89,150.37,150.37,0,0,0,12.39-52.57,5.69,5.69,0,0,0-5.35-6L302,330.69a5.7,5.7,0,0,0-5.92,5.39l-.3,6-1,6.39c-.15.82-.26,1.65-.38,2.48-.18,1.23-.35,2.47-.59,3.53l-.2.79-5.44-1.47,0-.14c.3-1.32.5-2.68.68-4,.09-.64.18-1.27.3-2l.86-5.6a5.7,5.7,0,0,0,.06-.58l.3-6V323.85l0-.26,28.35-3a5.6,5.6,0,0,0,3.8-2.08,5.77,5.77,0,0,0,1.23-4.18,150.07,150.07,0,0,0-15.28-51.83,5.61,5.61,0,0,0-7.59-2.47l-15.08,7.77a5.73,5.73,0,0,0-2.55,7.48c.52,1.13,1.06,2.25,1.6,3.37a58.4,58.4,0,0,1,3.49,8.19l.55,1.51c.63,1.7,1.24,3.35,1.78,5l-5.53,1.49a113.47,113.47,0,0,0-12.89-27.29l22.93-16.87a5.7,5.7,0,0,0,2.26-3.72,5.76,5.76,0,0,0-1-4.24A147.36,147.36,0,0,0,257.81,205.54Zm3.44,56.07a5.74,5.74,0,0,0-1.24,8,102.33,102.33,0,0,1,15.91,33.7,5.66,5.66,0,0,0,6.9,4l16.36-4.42a5.72,5.72,0,0,0,4.07-6.7,83.48,83.48,0,0,0-3.69-11.79l-.45-1.22a58.43,58.43,0,0,0-3.16-7.74l5-2.59a139.24,139.24,0,0,1,10.93,37l-28,2.93a5.68,5.68,0,0,0-5,6l.28,5.53v10.9l-.28,5.38-.8,5.23c-.13.75-.23,1.5-.34,2.25-.14,1-.27,2-.46,2.87l-1.41,5.49a5.71,5.71,0,0,0,4,6.94l16.36,4.42a5.61,5.61,0,0,0,4.31-.59,5.68,5.68,0,0,0,2.61-3.5l1.66-6.5c.35-1.52.57-3.07.79-4.62.11-.73.21-1.46.35-2.28l1-7,.05-.88,5.54.29a139.33,139.33,0,0,1-8.84,37.55l-25.66-11.56a5.54,5.54,0,0,0-4.32-.11,5.69,5.69,0,0,0-3.14,3,102.26,102.26,0,0,1-20.92,30.87,5.74,5.74,0,0,0,0,8.05l12,12.1a5.47,5.47,0,0,0,4.15,1.67,5.59,5.59,0,0,0,4.05-1.91q1.51-1.71,3.06-3.4c2-2.15,3.91-4.3,6-6.86.86-1.22,1.77-2.42,2.67-3.61.63-.83,1.27-1.67,1.89-2.53l4.74,3.12A136.05,136.05,0,0,1,262,437l-16.55-23a5.65,5.65,0,0,0-3.68-2.28,5.58,5.58,0,0,0-4.2,1,100.11,100.11,0,0,1-33.35,16.07,5.68,5.68,0,0,0-3.43,2.66,5.74,5.74,0,0,0-.56,4.33l4.37,16.53a5.65,5.65,0,0,0,6.64,4.1,82.52,82.52,0,0,0,11.7-3.74l1.17-.44a57.49,57.49,0,0,0,7.65-3.2l2.57,5.09a135.64,135.64,0,0,1-36.64,11L194.75,437a5.67,5.67,0,0,0-2-3.84,5.56,5.56,0,0,0-4.13-1.24,102.62,102.62,0,0,1-37-3.05,5.59,5.59,0,0,0-4.28.58,5.67,5.67,0,0,0-2.63,3.46l-4.38,16.53a5.75,5.75,0,0,0,.58,4.35,5.64,5.64,0,0,0,3.47,2.65l6.43,1.66c1.51.36,3,.59,4.58.81.72.1,1.43.21,2.24.35l7,1.05.87,0-.29,5.6A135.3,135.3,0,0,1,128,457l11.44-25.92a5.74,5.74,0,0,0-2.7-7.47l-4.69-2.26-9.63-5.59a58,58,0,0,1-5.13-3.7c-1.2-.93-2.4-1.86-3.28-2.45-1.63-1.36-3.18-2.81-4.74-4.25-1.16-1.08-2.33-2.16-3.52-3.22a5.6,5.6,0,0,0-7.7.27l-12,12.09a5.74,5.74,0,0,0,.23,8.3c1.12,1,2.22,2,3.32,3,2.15,2,4.29,4,6.84,6.09,1.21.87,2.38,1.78,3.56,2.69q1.23,1,2.52,1.92l-3.09,4.79a135.59,135.59,0,0,1-27.66-26.58l22.72-16.71a5.74,5.74,0,0,0,1.25-8,102.26,102.26,0,0,1-15.92-33.7,5.63,5.63,0,0,0-6.9-4l-16.36,4.42a5.7,5.7,0,0,0-4.06,6.7,83.72,83.72,0,0,0,3.68,11.78l.45,1.22a59.24,59.24,0,0,0,3.16,7.74l-5,2.6a138.68,138.68,0,0,1-10.93-37l27.94-2.94a5.68,5.68,0,0,0,5-6.22,105.67,105.67,0,0,1,3-37.35,5.74,5.74,0,0,0-.56-4.33,5.68,5.68,0,0,0-3.43-2.66l-16.36-4.41a5.65,5.65,0,0,0-4.31.58A5.72,5.72,0,0,0,52.61,296L51,302.46c-.35,1.52-.57,3.07-.79,4.61-.11.74-.21,1.46-.34,2.29l-1,7,0,.87L43.2,317A139.24,139.24,0,0,1,52,279.44L77.7,291a5.62,5.62,0,0,0,7.45-2.9,102.17,102.17,0,0,1,20.93-30.87,5.77,5.77,0,0,0,0-8.06l-12-12.1a5.61,5.61,0,0,0-8.2.24c-1,1.15-2,2.28-3.06,3.41-2,2.14-3.91,4.29-6,6.86-.86,1.22-1.77,2.41-2.67,3.61-.63.83-1.27,1.66-1.89,2.52l-4.74-3.11a136.05,136.05,0,0,1,26.3-28l16.55,23a5.6,5.6,0,0,0,7.89,1.25l1.31-1a19.54,19.54,0,0,1,2.77-1.92l9.23-5.4c1.09-.5,2.16-1,3.24-1.57a44,44,0,0,1,6.61-2.86l1.68-.63a57.54,57.54,0,0,1,8.17-2.62,5.61,5.61,0,0,0,3.67-2.59,5.78,5.78,0,0,0,.65-4.47l-4.38-16.53a5.65,5.65,0,0,0-6.63-4.1,83.06,83.06,0,0,0-11.71,3.74l-1.16.44a56.94,56.94,0,0,0-7.65,3.2l-2.57-5.09a135.89,135.89,0,0,1,36.64-11l2.89,28.24a5.71,5.71,0,0,0,2,3.84,5.58,5.58,0,0,0,4.13,1.24,102.88,102.88,0,0,1,37,3,5.59,5.59,0,0,0,4.28-.58,5.71,5.71,0,0,0,2.63-3.46l4.37-16.53a5.74,5.74,0,0,0-.57-4.35,5.64,5.64,0,0,0-3.47-2.65L205,201.55c-1.52-.35-3.05-.58-4.59-.8-.72-.11-1.43-.21-2.24-.35l-7-1.05-.87,0,.29-5.6a135.68,135.68,0,0,1,37.16,8.94l-11.44,25.92a5.78,5.78,0,0,0-.11,4.38,5.64,5.64,0,0,0,3,3.16,101.33,101.33,0,0,1,30.55,21.14,5.59,5.59,0,0,0,8,0l12-12.09a5.74,5.74,0,0,0-.23-8.3c-1.12-1-2.22-2-3.32-3-2.15-2-4.29-4-6.84-6.09-1.21-.87-2.38-1.78-3.56-2.69-.82-.63-1.66-1.28-2.52-1.92l3.09-4.79A135.85,135.85,0,0,1,284,244.89Z"/><path class="cls-6" d="M177.9,238.57a90,90,0,0,0-78.35,45.77,91.89,91.89,0,0,0,.48,91.45,5.73,5.73,0,0,0,.35.59,91.8,91.8,0,0,0,23,26c.15.1.23.25.39.34l.12,0a88.88,88.88,0,0,0,108,0,.84.84,0,0,1,.14-.06,4.32,4.32,0,0,0,.39-.34,91.65,91.65,0,0,0,23-26,4.36,4.36,0,0,0,.35-.59,91.87,91.87,0,0,0,.48-91.45A90,90,0,0,0,177.9,238.57Zm-10.17,12.15L105.08,360.81a80.52,80.52,0,0,1,4.32-70.74A78.92,78.92,0,0,1,167.73,250.72ZM134,396.19l43.86-77.06,43.87,77.05a78.09,78.09,0,0,1-87.73,0ZM230.73,389l-45.48-79.89a8.43,8.43,0,0,0-14.69,0L125.08,389a79.94,79.94,0,0,1-13.73-16.34l66.56-117,12.91,22.63a4.66,4.66,0,0,0,.25.5l53.39,93.86A80.26,80.26,0,0,1,230.73,389Zm20-28.23-49.6-87.21c-.08-.17-.17-.35-.27-.52L188.1,250.73a78.88,78.88,0,0,1,58.31,39.35,80.53,80.53,0,0,1,4.32,70.73Z"/><path class="cls-7" d="M596.76,34.08c-131.17,0-239,88.61-251.43,202l-74.67,29.74s-4.88,1.81-4.39,8.81a9.51,9.51,0,0,0,5.58,8.16L350,306.21C374.9,406.69,475.92,481.89,596.76,481.89c139.54,0,252.65-100.25,252.65-223.9S736.3,34.08,596.76,34.08Z"/><path class="cls-8" d="M596.73.92c-131.18,0-239,88.6-251.44,202l-74.67,29.74s-4.88,1.8-4.39,8.8a9.53,9.53,0,0,0,5.58,8.17L350,273c24.89,100.48,125.91,175.68,246.76,175.68,139.53,0,252.64-100.24,252.64-223.9S736.26.92,596.73.92Z"/><path class="cls-9" d="M420.46,174.64h-6.64v6.78h7.65l.1-2.45h1.17v3.59H410.69v-1l1.81-.15V167.35l-1.81-.15v-1h12v3.6h-1.18l-.1-2.45h-7.59v6.14h6.64Zm-2.31-12.5h1.64l0,.07-2.77,2.92h-1.19Z"/><path class="cls-9" d="M430.71,181.57l1.81-.15v-9.87l-1.81-.15v-1h3.14v11l1.81.15v1h-5Zm3.14-14.65h-1.33V165h1.33Z"/><path class="cls-9" d="M437.6,171.4v-1h3l.13,2a4.19,4.19,0,0,1,1.54-1.66,4.37,4.37,0,0,1,2.3-.58,3.78,3.78,0,0,1,2.3.68,3.67,3.67,0,0,1,1.32,2.07,4.78,4.78,0,0,1,1.55-2,4.08,4.08,0,0,1,2.46-.74,3.61,3.61,0,0,1,3,1.29,6.29,6.29,0,0,1,1,4v5.94l1.81.16v1h-5v-1l1.81-.16v-6a5,5,0,0,0-.78-3.17,2.69,2.69,0,0,0-2.18-.93,3,3,0,0,0-2.4,1,4.84,4.84,0,0,0-1,2.55,1,1,0,0,0,0,.17v6.35l1.81.15v1h-4.95v-1l1.81-.15v-6a5,5,0,0,0-.79-3.15,2.7,2.7,0,0,0-2.19-1,3.3,3.3,0,0,0-2.25.72,3.87,3.87,0,0,0-1.16,2v7.4l1.81.15v1h-5v-1l1.82-.15v-9.87Z"/><path class="cls-9" d="M459.31,171.4v-1h2.92l.17,1.89a4.48,4.48,0,0,1,1.56-1.56,4.34,4.34,0,0,1,2.23-.55,3.91,3.91,0,0,1,3.39,1.75,8,8,0,0,1,1.22,4.65v.24a7.08,7.08,0,0,1-1.22,4.35,4,4,0,0,1-3.37,1.62,4.78,4.78,0,0,1-2.22-.49,4,4,0,0,1-1.55-1.38v5.16l1.82.15v1h-4.95v-1l1.81-.15V171.55Zm10.16,5.18a7.08,7.08,0,0,0-.91-3.77,3,3,0,0,0-2.67-1.46,3.47,3.47,0,0,0-2.18.64,4,4,0,0,0-1.27,1.68v5.84a3.53,3.53,0,0,0,3.47,2.15,3,3,0,0,0,2.65-1.33,6.05,6.05,0,0,0,.91-3.51Z"/><path class="cls-9" d="M475.85,170.4l.16,2v.14a4.24,4.24,0,0,1,1.4-1.75,3.46,3.46,0,0,1,2.09-.64,2.74,2.74,0,0,1,.5,0l.39.08-.17,1.26-1-.07a3,3,0,0,0-2.07.72,4,4,0,0,0-1.15,2v7.25l1.82.15v1h-4.95v-1l1.81-.15v-9.87l-1.81-.15v-1h3Z"/><path class="cls-9" d="M487.21,182.79a4.8,4.8,0,0,1-3.76-1.68,6.21,6.21,0,0,1-1.49-4.27v-.62a6.37,6.37,0,0,1,1.48-4.32,4.58,4.58,0,0,1,3.59-1.72,4.43,4.43,0,0,1,3.48,1.42,5.45,5.45,0,0,1,1.26,3.77v1.14h-8.49v.33a5.36,5.36,0,0,0,1.09,3.43,3.42,3.42,0,0,0,2.84,1.39,5.79,5.79,0,0,0,2.11-.35,4.29,4.29,0,0,0,1.5-1l.57.92a4.88,4.88,0,0,1-1.72,1.14A6.53,6.53,0,0,1,487.21,182.79ZM487,171.33a3.16,3.16,0,0,0-2.47,1.14,4.84,4.84,0,0,0-1.18,2.85l0,.06h7.05V175a3.94,3.94,0,0,0-.92-2.65A3.14,3.14,0,0,0,487,171.33Z"/><path class="cls-9" d="M502.88,174.16h-1.09l-.16-1.72a3.28,3.28,0,0,0-1.26-.82,4.76,4.76,0,0,0-1.75-.29,3.24,3.24,0,0,0-2.18.63,1.91,1.91,0,0,0-.73,1.49,1.77,1.77,0,0,0,.63,1.39,6,6,0,0,0,2.5,1,8.07,8.07,0,0,1,3.21,1.32,2.7,2.7,0,0,1,1.07,2.27,2.92,2.92,0,0,1-1.22,2.45,5.08,5.08,0,0,1-3.21.94,7.47,7.47,0,0,1-2.43-.37,6.15,6.15,0,0,1-1.9-1.06v-2.45h1.08l.19,1.73a3.13,3.13,0,0,0,1.35.78,6,6,0,0,0,1.71.24A3.6,3.6,0,0,0,501,181a1.91,1.91,0,0,0,.84-1.55,2,2,0,0,0-.7-1.5,5.64,5.64,0,0,0-2.5-1,8.58,8.58,0,0,1-3.19-1.25,2.59,2.59,0,0,1-1-2.19,2.94,2.94,0,0,1,1.17-2.35,4.71,4.71,0,0,1,3.08-1,6.94,6.94,0,0,1,2.42.41,4.74,4.74,0,0,1,1.78,1.11Z"/><path class="cls-9" d="M514.27,174.16h-1.09l-.16-1.72a3.28,3.28,0,0,0-1.26-.82,4.76,4.76,0,0,0-1.75-.29,3.24,3.24,0,0,0-2.18.63,1.91,1.91,0,0,0-.73,1.49,1.77,1.77,0,0,0,.63,1.39,6.05,6.05,0,0,0,2.5,1,8.19,8.19,0,0,1,3.22,1.32,2.71,2.71,0,0,1,1.06,2.27,2.94,2.94,0,0,1-1.21,2.45,5.13,5.13,0,0,1-3.22.94,7.47,7.47,0,0,1-2.43-.37,6.15,6.15,0,0,1-1.9-1.06v-2.45h1.08l.19,1.73a3.13,3.13,0,0,0,1.35.78,6,6,0,0,0,1.71.24,3.65,3.65,0,0,0,2.28-.64,1.93,1.93,0,0,0,.83-1.55,2,2,0,0,0-.69-1.5,5.74,5.74,0,0,0-2.51-1,8.45,8.45,0,0,1-3.18-1.25,2.56,2.56,0,0,1-1-2.19,2.93,2.93,0,0,1,1.16-2.35,4.71,4.71,0,0,1,3.08-1,6.94,6.94,0,0,1,2.42.41,4.74,4.74,0,0,1,1.78,1.11Z"/><path class="cls-9" d="M516.85,181.57l1.81-.15v-9.87l-1.81-.15v-1H520v11l1.81.15v1h-4.94ZM520,166.92h-1.32V165H520Z"/><path class="cls-9" d="M524,176.3a6.56,6.56,0,0,1,1.45-4.4,5.2,5.2,0,0,1,7.73,0,6.56,6.56,0,0,1,1.45,4.4v.37a6.57,6.57,0,0,1-1.45,4.41,5.22,5.22,0,0,1-7.73,0,6.57,6.57,0,0,1-1.45-4.41Zm1.33.37a5.8,5.8,0,0,0,1.06,3.55,3.69,3.69,0,0,0,5.85,0,5.8,5.8,0,0,0,1.06-3.55v-.37a5.83,5.83,0,0,0-1.06-3.52,3.43,3.43,0,0,0-2.93-1.45,3.39,3.39,0,0,0-2.92,1.45,5.77,5.77,0,0,0-1.06,3.52Z"/><path class="cls-9" d="M536.58,181.57l1.82-.15v-9.87l-1.82-.15v-1h3l.13,2.13a4.12,4.12,0,0,1,3.89-2.35,3.66,3.66,0,0,1,3,1.21,5.7,5.7,0,0,1,1,3.77v6.26l1.81.15v1h-5v-1l1.81-.15v-6.25a4.42,4.42,0,0,0-.77-3,2.8,2.8,0,0,0-2.19-.86,3.41,3.41,0,0,0-2.29.75,4.08,4.08,0,0,0-1.27,2v7.34l1.81.15v1h-5Z"/><path class="cls-9" d="M559.79,182.56c-.09-.42-.15-.77-.19-1.07a6.85,6.85,0,0,1-.05-.91,5.35,5.35,0,0,1-1.78,1.58,5,5,0,0,1-2.5.63,3.8,3.8,0,0,1-2.74-.92,3.28,3.28,0,0,1-1-2.49A3.09,3.09,0,0,1,553,176.7a6.81,6.81,0,0,1,3.89-1h2.66v-1.61a2.59,2.59,0,0,0-.83-2,3.33,3.33,0,0,0-2.32-.74,5.86,5.86,0,0,0-1.83.27,4,4,0,0,0-1.38.75l-.11,1.63H552v-2.34a7,7,0,0,1,2-1.06,7.77,7.77,0,0,1,2.48-.4,4.82,4.82,0,0,1,3.2,1,3.64,3.64,0,0,1,1.21,2.93v6c0,.25,0,.48,0,.71s0,.45.08.67l1.2.08v1Zm-4.38-1a4.81,4.81,0,0,0,2.55-.67,4,4,0,0,0,1.59-1.74v-2.44h-2.68a4.93,4.93,0,0,0-2.9.76,2.25,2.25,0,0,0-1.08,1.91,2,2,0,0,0,.67,1.58A2.69,2.69,0,0,0,555.41,181.6Z"/><path class="cls-9" d="M563.8,181.57l1.81-.15v-9.87l-1.81-.15v-1h3l.12,2.13a4.35,4.35,0,0,1,1.57-1.74,4.27,4.27,0,0,1,2.32-.61,3.66,3.66,0,0,1,3,1.21,5.76,5.76,0,0,1,1,3.77v6.26l1.82.15v1h-5v-1l1.81-.15v-6.25a4.47,4.47,0,0,0-.77-3,2.83,2.83,0,0,0-2.2-.86,3.4,3.4,0,0,0-2.28.75,4.08,4.08,0,0,0-1.27,2v7.34l1.81.15v1h-5Z"/><path class="cls-9" d="M581.76,167.29v3.11h2.65v1.11h-2.65v7.91a2.56,2.56,0,0,0,.43,1.69,1.4,1.4,0,0,0,1.14.5l.63,0c.2,0,.44-.05.7-.09l.2,1a3.15,3.15,0,0,1-.81.22,5.15,5.15,0,0,1-.95.08,2.48,2.48,0,0,1-2-.81,3.82,3.82,0,0,1-.7-2.56v-7.91h-2.07V170.4h2.07v-3.11Z"/><path class="cls-9" d="M592.15,182.79a4.79,4.79,0,0,1-3.75-1.68,6.16,6.16,0,0,1-1.49-4.27v-.62a6.37,6.37,0,0,1,1.48-4.32,4.56,4.56,0,0,1,3.59-1.72,4.39,4.39,0,0,1,3.47,1.42,5.41,5.41,0,0,1,1.27,3.77v1.14h-8.49v.33a5.41,5.41,0,0,0,1.08,3.43,3.43,3.43,0,0,0,2.84,1.39,5.81,5.81,0,0,0,2.12-.35,4.29,4.29,0,0,0,1.5-1l.56.92a4.75,4.75,0,0,1-1.71,1.14A6.55,6.55,0,0,1,592.15,182.79ZM592,171.33a3.18,3.18,0,0,0-2.48,1.14,4.9,4.9,0,0,0-1.17,2.85l0,.06h7V175a3.94,3.94,0,0,0-.92-2.65A3.14,3.14,0,0,0,592,171.33Z"/><path class="cls-9" d="M604.63,176.58a8,8,0,0,1,1.22-4.65,3.89,3.89,0,0,1,3.4-1.75,4.27,4.27,0,0,1,2.16.52,4.38,4.38,0,0,1,1.53,1.5l.13-1.8h1.17v15.68l1.81.15v1h-5v-1l1.81-.15V181a4.07,4.07,0,0,1-1.53,1.36,4.73,4.73,0,0,1-2.15.47,4,4,0,0,1-3.37-1.63,7.07,7.07,0,0,1-1.22-4.34Zm1.35.24a6.33,6.33,0,0,0,.87,3.52,2.94,2.94,0,0,0,2.63,1.32,3.65,3.65,0,0,0,2.09-.57,3.84,3.84,0,0,0,1.33-1.56v-5.92a4.29,4.29,0,0,0-1.29-1.64,3.33,3.33,0,0,0-2.11-.64,2.88,2.88,0,0,0-2.64,1.46,7.26,7.26,0,0,0-.88,3.79Z"/><path class="cls-9" d="M626.18,180.56a4,4,0,0,1-1.55,1.65,4.4,4.4,0,0,1-2.31.58,3.65,3.65,0,0,1-3-1.3,6.33,6.33,0,0,1-1.07-4v-5.9l-1.49-.15v-1h2.81v7.07a5.29,5.29,0,0,0,.75,3.19,2.55,2.55,0,0,0,2.13,1,3.92,3.92,0,0,0,2.41-.67,3.65,3.65,0,0,0,1.26-1.86v-7.54l-1.71-.15v-1h3v11l1.61.15v1h-2.77Z"/><path class="cls-9" d="M636.34,182.79a4.79,4.79,0,0,1-3.75-1.68,6.16,6.16,0,0,1-1.49-4.27v-.62a6.37,6.37,0,0,1,1.48-4.32,4.56,4.56,0,0,1,3.58-1.72,4.4,4.4,0,0,1,3.48,1.42,5.41,5.41,0,0,1,1.27,3.77v1.14h-8.49v.33a5.41,5.41,0,0,0,1.08,3.43,3.42,3.42,0,0,0,2.84,1.39,5.75,5.75,0,0,0,2.11-.35,4.12,4.12,0,0,0,1.5-1l.57.92a4.75,4.75,0,0,1-1.71,1.14A6.55,6.55,0,0,1,636.34,182.79Zm-.18-11.46a3.18,3.18,0,0,0-2.47,1.14,4.9,4.9,0,0,0-1.17,2.85l0,.06h7.05V175a3.9,3.9,0,0,0-.93-2.65A3.12,3.12,0,0,0,636.16,171.33Z"/><path class="cls-9" d="M651.88,167.29v3.11h2.64v1.11h-2.64v7.91a2.56,2.56,0,0,0,.43,1.69,1.39,1.39,0,0,0,1.14.5c.21,0,.42,0,.62,0s.44-.05.71-.09l.2,1a3.15,3.15,0,0,1-.81.22,5.18,5.18,0,0,1-1,.08,2.48,2.48,0,0,1-2-.81,3.82,3.82,0,0,1-.71-2.56v-7.91h-2.06V170.4h2.06v-3.11Z"/><path class="cls-9" d="M662.27,182.79a4.82,4.82,0,0,1-3.76-1.68,6.21,6.21,0,0,1-1.49-4.27v-.62a6.37,6.37,0,0,1,1.49-4.32,4.56,4.56,0,0,1,3.58-1.72,4.4,4.4,0,0,1,3.48,1.42,5.41,5.41,0,0,1,1.27,3.77v1.14h-8.49v.33a5.41,5.41,0,0,0,1.08,3.43,3.42,3.42,0,0,0,2.84,1.39,5.75,5.75,0,0,0,2.11-.35,4.12,4.12,0,0,0,1.5-1l.57.92a4.75,4.75,0,0,1-1.71,1.14A6.55,6.55,0,0,1,662.27,182.79Zm-.18-11.46a3.16,3.16,0,0,0-2.47,1.14,4.9,4.9,0,0,0-1.17,2.85l0,.06h7V175a3.9,3.9,0,0,0-.93-2.65A3.13,3.13,0,0,0,662.09,171.33Z"/><path class="cls-9" d="M669,181.57l1.81-.15v-9.87L669,171.4v-1h3l.12,2.13a4.4,4.4,0,0,1,1.56-1.74,4.33,4.33,0,0,1,2.33-.61,3.66,3.66,0,0,1,3,1.21,5.76,5.76,0,0,1,1,3.77v6.26l1.82.15v1h-5v-1l1.81-.15v-6.25a4.47,4.47,0,0,0-.77-3,2.83,2.83,0,0,0-2.2-.86,3.4,3.4,0,0,0-2.28.75,4.08,4.08,0,0,0-1.27,2v7.34l1.81.15v1h-5Z"/><path class="cls-9" d="M683.49,166v-1h3.13v7.44a4.31,4.31,0,0,1,3.94-2.3,3.63,3.63,0,0,1,2.91,1.19,5.6,5.6,0,0,1,1,3.7v6.35l1.81.15v1h-5v-1l1.82-.15V175a4.16,4.16,0,0,0-.78-2.83,2.68,2.68,0,0,0-2.13-.86,3.57,3.57,0,0,0-2.28.72,4.28,4.28,0,0,0-1.35,1.93v7.42l1.81.15v1h-4.94v-1l1.81-.15V166.18Z"/><path class="cls-9" d="M706.6,182.56c-.09-.42-.15-.77-.19-1.07a9.08,9.08,0,0,1,0-.91,5.35,5.35,0,0,1-1.78,1.58,5,5,0,0,1-2.5.63,3.76,3.76,0,0,1-2.73-.92,3.25,3.25,0,0,1-1-2.49,3.11,3.11,0,0,1,1.43-2.68,6.83,6.83,0,0,1,3.89-1h2.66v-1.61a2.59,2.59,0,0,0-.83-2,3.32,3.32,0,0,0-2.32-.74,5.84,5.84,0,0,0-1.82.27,3.93,3.93,0,0,0-1.39.75l-.11,1.63h-1.1v-2.34a7,7,0,0,1,2-1.06,7.66,7.66,0,0,1,2.47-.4,4.8,4.8,0,0,1,3.2,1,3.61,3.61,0,0,1,1.21,2.93v6c0,.25,0,.48,0,.71a4.9,4.9,0,0,0,.07.67l1.2.08v1Zm-4.38-1a4.76,4.76,0,0,0,2.55-.67,4,4,0,0,0,1.59-1.74v-2.44h-2.68a5,5,0,0,0-2.9.76,2.25,2.25,0,0,0-1.08,1.91,2,2,0,0,0,.67,1.58A2.69,2.69,0,0,0,702.22,181.6Z"/><path class="cls-9" d="M416.11,209.26a3.75,3.75,0,0,0,2.33-.77,2.47,2.47,0,0,0,1-2.12h1.18l0,.07a3.35,3.35,0,0,1-1.32,2.82,5,5,0,0,1-3.22,1.13,4.57,4.57,0,0,1-3.79-1.7,6.8,6.8,0,0,1-1.34-4.37v-.48a6.78,6.78,0,0,1,1.34-4.35,4.54,4.54,0,0,1,3.78-1.71,6.08,6.08,0,0,1,2.54.53,5,5,0,0,1,1.88,1.44l.06,2.65h-1.14l-.21-2.16a3.86,3.86,0,0,0-1.33-1,4.32,4.32,0,0,0-1.8-.35,3.18,3.18,0,0,0-2.86,1.39,6.25,6.25,0,0,0-.93,3.52v.48a6.31,6.31,0,0,0,.92,3.54A3.22,3.22,0,0,0,416.11,209.26Z"/><path class="cls-9" d="M423.13,203.9a6.56,6.56,0,0,1,1.46-4.4,5.19,5.19,0,0,1,7.72,0,6.56,6.56,0,0,1,1.46,4.4v.37a6.57,6.57,0,0,1-1.45,4.41,5.22,5.22,0,0,1-7.73,0,6.57,6.57,0,0,1-1.46-4.41Zm1.34.37a5.86,5.86,0,0,0,1,3.55,3.46,3.46,0,0,0,3,1.44,3.4,3.4,0,0,0,2.91-1.44,5.86,5.86,0,0,0,1.06-3.55v-.37a5.82,5.82,0,0,0-1.07-3.53,3.69,3.69,0,0,0-5.85,0,5.88,5.88,0,0,0-1,3.53Z"/><path class="cls-9" d="M435.69,209.17l1.81-.15v-9.87l-1.81-.15v-1h3l.12,2.13a4.4,4.4,0,0,1,1.56-1.74,4.33,4.33,0,0,1,2.33-.61,3.66,3.66,0,0,1,3,1.21,5.76,5.76,0,0,1,1,3.77V209l1.82.15v1h-5v-1l1.81-.15v-6.25a4.47,4.47,0,0,0-.77-3,2.83,2.83,0,0,0-2.2-.86,3.4,3.4,0,0,0-2.28.75,4.08,4.08,0,0,0-1.27,2V209l1.81.15v1h-5Z"/><path class="cls-9" d="M459.32,201.76h-1.09l-.16-1.72a3.28,3.28,0,0,0-1.26-.82,4.72,4.72,0,0,0-1.75-.29,3.24,3.24,0,0,0-2.18.63,1.91,1.91,0,0,0-.73,1.49,1.77,1.77,0,0,0,.63,1.39,6,6,0,0,0,2.51,1,8.07,8.07,0,0,1,3.21,1.32,2.71,2.71,0,0,1,1.06,2.27,2.94,2.94,0,0,1-1.21,2.45,5.11,5.11,0,0,1-3.22.94,7.47,7.47,0,0,1-2.43-.37,5.82,5.82,0,0,1-1.89-1.07v-2.44h1.07l.19,1.73a3.13,3.13,0,0,0,1.35.78,6.09,6.09,0,0,0,1.71.24,3.72,3.72,0,0,0,2.28-.64,1.93,1.93,0,0,0,.83-1.55,2,2,0,0,0-.69-1.5,5.74,5.74,0,0,0-2.51-1,8.45,8.45,0,0,1-3.18-1.25,2.56,2.56,0,0,1-1-2.19,3,3,0,0,1,1.16-2.35,4.71,4.71,0,0,1,3.08-1,6.94,6.94,0,0,1,2.42.41,4.74,4.74,0,0,1,1.78,1.11Z"/><path class="cls-9" d="M467.29,210.39a4.81,4.81,0,0,1-3.76-1.68,6.21,6.21,0,0,1-1.49-4.27v-.62a6.35,6.35,0,0,1,1.49-4.32,4.56,4.56,0,0,1,3.58-1.72,4.43,4.43,0,0,1,3.48,1.42,5.46,5.46,0,0,1,1.27,3.77v1.14h-8.5v.33a5.41,5.41,0,0,0,1.09,3.43,3.42,3.42,0,0,0,2.84,1.39,5.79,5.79,0,0,0,2.11-.35,4.29,4.29,0,0,0,1.5-1l.57.92a4.84,4.84,0,0,1-1.71,1.14A6.58,6.58,0,0,1,467.29,210.39Zm-.18-11.46a3.16,3.16,0,0,0-2.47,1.14,4.87,4.87,0,0,0-1.17,2.85l0,.06h7v-.34a3.89,3.89,0,0,0-.92-2.65A3.13,3.13,0,0,0,467.11,198.93Z"/><path class="cls-9" d="M474.29,204.18a7.91,7.91,0,0,1,1.23-4.65,3.92,3.92,0,0,1,3.4-1.75,4.17,4.17,0,0,1,2.22.57,4.49,4.49,0,0,1,1.55,1.6l.16-1.95H484v12a5.22,5.22,0,0,1-1.26,3.7,4.5,4.5,0,0,1-3.5,1.36,9,9,0,0,1-1.85-.21,7.54,7.54,0,0,1-1.72-.58l.36-1.14a7.84,7.84,0,0,0,1.52.54,7,7,0,0,0,1.67.19,3.2,3.2,0,0,0,2.58-1,4.25,4.25,0,0,0,.87-2.84v-1.54a4.24,4.24,0,0,1-1.55,1.43,4.48,4.48,0,0,1-2.19.5,4,4,0,0,1-3.39-1.63,7.07,7.07,0,0,1-1.22-4.34Zm1.33.24a6.17,6.17,0,0,0,.89,3.5,3,3,0,0,0,2.64,1.3,3.71,3.71,0,0,0,2.16-.59,4,4,0,0,0,1.33-1.64v-5.64a4.34,4.34,0,0,0-1.28-1.73,3.39,3.39,0,0,0-2.19-.67,2.89,2.89,0,0,0-2.65,1.46,7.09,7.09,0,0,0-.9,3.77Z"/><path class="cls-9" d="M495.83,208.16a4.18,4.18,0,0,1-1.55,1.65,4.47,4.47,0,0,1-2.32.58,3.62,3.62,0,0,1-3-1.3,6.27,6.27,0,0,1-1.07-4v-5.9l-1.49-.15v-1h2.81v7.07a5.29,5.29,0,0,0,.75,3.19,2.55,2.55,0,0,0,2.13,1,3.88,3.88,0,0,0,2.4-.67,3.53,3.53,0,0,0,1.26-1.86v-7.54l-1.71-.15v-1h3.05v11l1.61.15v1H496Z"/><path class="cls-9" d="M500.6,209.17l1.81-.15v-9.87L500.6,199v-1h3.13v11l1.81.15v1H500.6Zm3.13-14.65h-1.32v-1.88h1.32Z"/><path class="cls-9" d="M516.13,208.4a4.09,4.09,0,0,1-1.54,1.47,4.5,4.5,0,0,1-2.22.52,4,4,0,0,1-3.38-1.63,7.07,7.07,0,0,1-1.21-4.34v-.24a8,8,0,0,1,1.21-4.65,3.91,3.91,0,0,1,3.4-1.75,4.34,4.34,0,0,1,2.18.53,4.48,4.48,0,0,1,1.53,1.53v-6.06l-1.81-.14v-1h3.14V209l1.82.15v1h-3Zm-7-4a6.23,6.23,0,0,0,.87,3.5,3,3,0,0,0,2.63,1.3,3.72,3.72,0,0,0,2.14-.58A3.8,3.8,0,0,0,516.1,207v-5.75a4.22,4.22,0,0,0-1.28-1.68,3.43,3.43,0,0,0-2.18-.65A2.89,2.89,0,0,0,510,200.4a7.29,7.29,0,0,0-.88,3.78Z"/><path class="cls-9" d="M521.29,203.9a6.56,6.56,0,0,1,1.46-4.4,5.19,5.19,0,0,1,7.72,0,6.56,6.56,0,0,1,1.46,4.4v.37a6.62,6.62,0,0,1-1.45,4.41,5.22,5.22,0,0,1-7.73,0,6.57,6.57,0,0,1-1.46-4.41Zm1.33.37a5.86,5.86,0,0,0,1.06,3.55,3.7,3.7,0,0,0,5.86,0,5.86,5.86,0,0,0,1.05-3.55v-.37a5.82,5.82,0,0,0-1.06-3.53,3.69,3.69,0,0,0-5.85,0,5.88,5.88,0,0,0-1.06,3.53Z"/><path class="cls-9" d="M539.44,199.11V198h2v-1.77a4,4,0,0,1,.91-2.83,3.27,3.27,0,0,1,2.55-1,4.68,4.68,0,0,1,.73.06,7.45,7.45,0,0,1,.77.15l-.17,1.12a4.86,4.86,0,0,0-.55-.11,4.11,4.11,0,0,0-.65,0,2,2,0,0,0-1.67.7,2.93,2.93,0,0,0-.59,1.95V198h2.87v1.11h-2.87V209l1.81.15v1h-5v-1l1.81-.15v-9.91Z"/><path class="cls-9" d="M556,210.16c-.09-.42-.15-.77-.19-1.07a6.84,6.84,0,0,1-.06-.91,5.22,5.22,0,0,1-1.77,1.58,5,5,0,0,1-2.51.63,3.84,3.84,0,0,1-2.73-.92,3.28,3.28,0,0,1-1-2.49,3.1,3.1,0,0,1,1.44-2.68,6.81,6.81,0,0,1,3.89-1h2.65v-1.61a2.59,2.59,0,0,0-.82-2,3.35,3.35,0,0,0-2.32-.74,5.86,5.86,0,0,0-1.83.27,4,4,0,0,0-1.38.75l-.12,1.63h-1.09v-2.34a7,7,0,0,1,2-1.06,7.48,7.48,0,0,1,2.47-.4,4.78,4.78,0,0,1,3.2,1,3.62,3.62,0,0,1,1.22,2.93v6c0,.24,0,.48,0,.71s0,.45.07.67l1.2.08v1Zm-4.38-1a4.75,4.75,0,0,0,2.54-.67,3.9,3.9,0,0,0,1.59-1.74v-2.44h-2.68a4.92,4.92,0,0,0-2.89.76,2.25,2.25,0,0,0-1.08,1.91,2,2,0,0,0,.67,1.58A2.67,2.67,0,0,0,551.61,209.2Z"/><path class="cls-9" d="M562.09,209h6.53l.1-2.3h1.19v3.44h-9.45v-1l7.24-10h-5.93l-.09,2.29h-1.19V198h8.89v1Z"/><path class="cls-9" d="M577.37,210.39a4.82,4.82,0,0,1-3.76-1.68,6.2,6.2,0,0,1-1.48-4.27v-.62a6.35,6.35,0,0,1,1.48-4.32,4.56,4.56,0,0,1,3.58-1.72,4.4,4.4,0,0,1,3.48,1.42,5.41,5.41,0,0,1,1.27,3.77v1.14h-8.49v.33a5.41,5.41,0,0,0,1.08,3.43,3.42,3.42,0,0,0,2.84,1.39,5.75,5.75,0,0,0,2.11-.35,4.12,4.12,0,0,0,1.5-1l.57.92a4.75,4.75,0,0,1-1.71,1.14A6.55,6.55,0,0,1,577.37,210.39Zm-.18-11.46a3.18,3.18,0,0,0-2.47,1.14,4.87,4.87,0,0,0-1.17,2.85l0,.06h7v-.34a3.9,3.9,0,0,0-.93-2.65A3.12,3.12,0,0,0,577.19,198.93Z"/><path class="cls-9" d="M587.2,198l.16,2v.14a4.34,4.34,0,0,1,1.4-1.76,3.5,3.5,0,0,1,2.09-.63,2.74,2.74,0,0,1,.5,0l.39.08-.18,1.26-1-.07a3,3,0,0,0-2.06.72,4,4,0,0,0-1.15,2V209l1.81.15v1h-4.94v-1L586,209v-9.87l-1.81-.15v-1h3Z"/><path class="cls-9" d="M602.06,194.89V198h2.64v1.11h-2.64V207a2.63,2.63,0,0,0,.42,1.69,1.42,1.42,0,0,0,1.14.5q.33,0,.63,0c.2,0,.44-.05.71-.09l.2,1a3.35,3.35,0,0,1-.82.22,5,5,0,0,1-1,.08,2.46,2.46,0,0,1-2-.81,3.78,3.78,0,0,1-.71-2.56v-7.91h-2.07V198h2.07v-3.11Z"/><path class="cls-9" d="M606.92,203.9a6.56,6.56,0,0,1,1.46-4.4,5.19,5.19,0,0,1,7.72,0,6.56,6.56,0,0,1,1.46,4.4v.37a6.62,6.62,0,0,1-1.45,4.41,5.22,5.22,0,0,1-7.73,0,6.57,6.57,0,0,1-1.46-4.41Zm1.34.37a5.86,5.86,0,0,0,1,3.55,3.46,3.46,0,0,0,3,1.44,3.43,3.43,0,0,0,2.91-1.44,5.86,5.86,0,0,0,1.06-3.55v-.37a5.82,5.82,0,0,0-1.07-3.53,3.69,3.69,0,0,0-5.85,0,5.88,5.88,0,0,0-1,3.53Z"/><path class="cls-9" d="M628.08,208.4a4.09,4.09,0,0,1-1.54,1.47,4.51,4.51,0,0,1-2.23.52,4,4,0,0,1-3.37-1.63,7.07,7.07,0,0,1-1.21-4.34v-.24a8,8,0,0,1,1.21-4.65,3.91,3.91,0,0,1,3.4-1.75,4.37,4.37,0,0,1,2.18.53,4.48,4.48,0,0,1,1.53,1.53v-6.06l-1.81-.14v-1h3.14V209l1.81.15v1h-3Zm-7-4a6.23,6.23,0,0,0,.87,3.5,3,3,0,0,0,2.63,1.3,3.72,3.72,0,0,0,2.14-.58,3.88,3.88,0,0,0,1.34-1.61v-5.75a4.31,4.31,0,0,0-1.28-1.68,3.43,3.43,0,0,0-2.18-.65A2.89,2.89,0,0,0,622,200.4a7.2,7.2,0,0,0-.88,3.78Z"/><path class="cls-9" d="M633.24,203.9a6.56,6.56,0,0,1,1.46-4.4,5.19,5.19,0,0,1,7.72,0,6.56,6.56,0,0,1,1.46,4.4v.37a6.62,6.62,0,0,1-1.45,4.41,5.22,5.22,0,0,1-7.73,0,6.57,6.57,0,0,1-1.46-4.41Zm1.33.37a5.86,5.86,0,0,0,1.06,3.55,3.7,3.7,0,0,0,5.86,0,5.86,5.86,0,0,0,1-3.55v-.37a5.82,5.82,0,0,0-1.06-3.53,3.69,3.69,0,0,0-5.85,0,5.88,5.88,0,0,0-1.06,3.53Z"/><path class="cls-9" d="M656.88,210.39a4.81,4.81,0,0,1-3.76-1.68,6.21,6.21,0,0,1-1.49-4.27v-.62a6.35,6.35,0,0,1,1.49-4.32,4.56,4.56,0,0,1,3.58-1.72,4.4,4.4,0,0,1,3.48,1.42,5.46,5.46,0,0,1,1.27,3.77v1.14H653v.33a5.41,5.41,0,0,0,1.08,3.43,3.42,3.42,0,0,0,2.84,1.39,5.79,5.79,0,0,0,2.11-.35,4.12,4.12,0,0,0,1.5-1l.57.92a4.75,4.75,0,0,1-1.71,1.14A6.58,6.58,0,0,1,656.88,210.39Zm-.18-11.46a3.16,3.16,0,0,0-2.47,1.14,4.87,4.87,0,0,0-1.17,2.85l0,.06h7v-.34a3.89,3.89,0,0,0-.92-2.65A3.13,3.13,0,0,0,656.7,198.93Z"/><path class="cls-9" d="M672.55,201.76h-1.09L671.3,200a3.28,3.28,0,0,0-1.26-.82,4.72,4.72,0,0,0-1.75-.29,3.24,3.24,0,0,0-2.18.63,1.91,1.91,0,0,0-.73,1.49,1.77,1.77,0,0,0,.63,1.39,6,6,0,0,0,2.51,1,8.13,8.13,0,0,1,3.21,1.32,2.71,2.71,0,0,1,1.06,2.27,2.94,2.94,0,0,1-1.21,2.45,5.11,5.11,0,0,1-3.22.94,7.47,7.47,0,0,1-2.43-.37A5.82,5.82,0,0,1,664,209v-2.44h1.07l.19,1.73a3.13,3.13,0,0,0,1.35.78,6.09,6.09,0,0,0,1.71.24,3.72,3.72,0,0,0,2.28-.64,1.93,1.93,0,0,0,.83-1.55,2,2,0,0,0-.69-1.5,5.74,5.74,0,0,0-2.51-1,8.45,8.45,0,0,1-3.18-1.25,2.56,2.56,0,0,1-1-2.19,3,3,0,0,1,1.16-2.35,4.71,4.71,0,0,1,3.08-1,6.94,6.94,0,0,1,2.42.41,4.74,4.74,0,0,1,1.78,1.11Z"/><path class="cls-9" d="M683.94,201.76h-1.09L682.7,200a3.4,3.4,0,0,0-1.27-.82,4.72,4.72,0,0,0-1.75-.29,3.24,3.24,0,0,0-2.18.63,1.94,1.94,0,0,0-.73,1.49,1.77,1.77,0,0,0,.63,1.39,6,6,0,0,0,2.51,1,8.07,8.07,0,0,1,3.21,1.32,2.72,2.72,0,0,1,1.07,2.27,3,3,0,0,1-1.22,2.45,5.11,5.11,0,0,1-3.22.94,7.47,7.47,0,0,1-2.43-.37,5.82,5.82,0,0,1-1.89-1.07v-2.44h1.08l.18,1.73A3.13,3.13,0,0,0,678,209a6.09,6.09,0,0,0,1.71.24,3.72,3.72,0,0,0,2.28-.64,1.93,1.93,0,0,0,.83-1.55,2,2,0,0,0-.69-1.5,5.74,5.74,0,0,0-2.51-1,8.45,8.45,0,0,1-3.18-1.25,2.56,2.56,0,0,1-1-2.19,3,3,0,0,1,1.16-2.35,4.71,4.71,0,0,1,3.08-1,6.9,6.9,0,0,1,2.42.41,4.79,4.79,0,0,1,1.79,1.11Z"/><path class="cls-9" d="M691.91,210.39a4.81,4.81,0,0,1-3.76-1.68,6.21,6.21,0,0,1-1.49-4.27v-.62a6.35,6.35,0,0,1,1.49-4.32,4.56,4.56,0,0,1,3.58-1.72,4.4,4.4,0,0,1,3.48,1.42,5.46,5.46,0,0,1,1.27,3.77v1.14H688v.33a5.41,5.41,0,0,0,1.08,3.43,3.42,3.42,0,0,0,2.84,1.39,5.75,5.75,0,0,0,2.11-.35,4.12,4.12,0,0,0,1.5-1l.57.92a4.75,4.75,0,0,1-1.71,1.14A6.58,6.58,0,0,1,691.91,210.39Zm-.18-11.46a3.16,3.16,0,0,0-2.47,1.14,4.87,4.87,0,0,0-1.17,2.85l0,.06h7v-.34a3.89,3.89,0,0,0-.92-2.65A3.13,3.13,0,0,0,691.73,198.93Z"/><path class="cls-9" d="M709.52,209.26a3.78,3.78,0,0,0,2.34-.77,2.5,2.5,0,0,0,1-2.12h1.18l0,.07a3.36,3.36,0,0,1-1.33,2.82,4.94,4.94,0,0,1-3.22,1.13,4.57,4.57,0,0,1-3.79-1.7,6.86,6.86,0,0,1-1.34-4.37v-.48a6.84,6.84,0,0,1,1.34-4.35,4.54,4.54,0,0,1,3.78-1.71,6.09,6.09,0,0,1,2.55.53,5,5,0,0,1,1.88,1.44l0,2.65h-1.13l-.21-2.16a4,4,0,0,0-1.33-1,4.33,4.33,0,0,0-1.81-.35,3.19,3.19,0,0,0-2.86,1.39,6.25,6.25,0,0,0-.93,3.52v.48a6.23,6.23,0,0,0,.93,3.54A3.19,3.19,0,0,0,709.52,209.26Z"/><path class="cls-9" d="M724.85,210.16c-.09-.42-.15-.77-.19-1.07a6.85,6.85,0,0,1,0-.91,5.35,5.35,0,0,1-1.78,1.58,5,5,0,0,1-2.5.63,3.85,3.85,0,0,1-2.74-.92,3.28,3.28,0,0,1-1-2.49,3.09,3.09,0,0,1,1.43-2.68,6.83,6.83,0,0,1,3.89-1h2.66v-1.61a2.59,2.59,0,0,0-.83-2,3.33,3.33,0,0,0-2.32-.74,5.86,5.86,0,0,0-1.83.27,4,4,0,0,0-1.38.75l-.11,1.63H717v-2.34a7,7,0,0,1,2-1.06,7.5,7.5,0,0,1,2.48-.4,4.82,4.82,0,0,1,3.2,1,3.64,3.64,0,0,1,1.21,2.93v6c0,.24,0,.48,0,.71s0,.45.08.67l1.2.08v1Zm-4.38-1a4.81,4.81,0,0,0,2.55-.67,4,4,0,0,0,1.59-1.74v-2.44h-2.68a4.93,4.93,0,0,0-2.9.76A2.25,2.25,0,0,0,718,207a2,2,0,0,0,.67,1.58A2.69,2.69,0,0,0,720.47,209.2Z"/><path class="cls-9" d="M728.82,199v-1h3l.12,2a4.15,4.15,0,0,1,1.55-1.66,4.33,4.33,0,0,1,2.29-.58,3.83,3.83,0,0,1,2.31.68,3.77,3.77,0,0,1,1.32,2.07,4.7,4.7,0,0,1,1.55-2,4,4,0,0,1,2.45-.74,3.61,3.61,0,0,1,3,1.29,6.29,6.29,0,0,1,1,4V209l1.81.16v1h-5v-1l1.81-.16v-6a4.93,4.93,0,0,0-.79-3.18,2.72,2.72,0,0,0-2.18-.92,2.92,2.92,0,0,0-2.39,1,4.76,4.76,0,0,0-1,2.55v.17a1.09,1.09,0,0,1,0,.2V209l1.81.15v1h-5v-1l1.81-.15v-6a4.91,4.91,0,0,0-.79-3.15,2.68,2.68,0,0,0-2.18-1,3.35,3.35,0,0,0-2.26.72,3.9,3.9,0,0,0-1.16,2V209l1.81.15v1h-4.95v-1l1.81-.15v-9.87Z"/><path class="cls-9" d="M750.79,209.17l1.81-.15v-9.87l-1.81-.15v-1h3.13v11l1.82.15v1h-5Zm3.13-14.65H752.6v-1.88h1.32Z"/><path class="cls-9" d="M757.73,209.17l1.81-.15v-9.87l-1.81-.15v-1h3l.12,2.13a4.26,4.26,0,0,1,1.56-1.74,4.31,4.31,0,0,1,2.33-.61,3.69,3.69,0,0,1,3,1.21,5.76,5.76,0,0,1,1,3.77V209l1.81.15v1h-5v-1l1.81-.15v-6.25a4.42,4.42,0,0,0-.77-3,2.79,2.79,0,0,0-2.19-.86,3.41,3.41,0,0,0-2.29.75,4.08,4.08,0,0,0-1.27,2V209l1.81.15v1h-4.95Z"/><path class="cls-9" d="M772.24,193.64v-1h3.13v7.44a4.44,4.44,0,0,1,1.61-1.69,4.33,4.33,0,0,1,2.33-.61,3.64,3.64,0,0,1,2.92,1.19,5.66,5.66,0,0,1,1,3.7V209l1.81.15v1H780.1v-1l1.81-.15v-6.38a4.2,4.2,0,0,0-.77-2.83A2.71,2.71,0,0,0,779,199a3.57,3.57,0,0,0-2.28.72,4.18,4.18,0,0,0-1.36,1.93V209l1.82.15v1h-5v-1l1.81-.15V193.78Z"/><path class="cls-9" d="M786.94,203.9a6.56,6.56,0,0,1,1.46-4.4,5.19,5.19,0,0,1,7.72,0,6.51,6.51,0,0,1,1.46,4.4v.37a6.57,6.57,0,0,1-1.45,4.41,5.22,5.22,0,0,1-7.73,0,6.57,6.57,0,0,1-1.46-4.41Zm1.34.37a5.86,5.86,0,0,0,1.05,3.55,3.46,3.46,0,0,0,2.95,1.44,3.4,3.4,0,0,0,2.91-1.44,5.86,5.86,0,0,0,1.06-3.55v-.37a5.88,5.88,0,0,0-1.06-3.53,3.7,3.7,0,0,0-5.86,0,5.88,5.88,0,0,0-1.05,3.53Z"/><path class="cls-9" d="M416.11,236.86a3.75,3.75,0,0,0,2.33-.77,2.47,2.47,0,0,0,1-2.12h1.18l0,.07a3.35,3.35,0,0,1-1.32,2.82,5,5,0,0,1-3.22,1.13,4.54,4.54,0,0,1-3.79-1.7,6.8,6.8,0,0,1-1.34-4.37v-.47a6.81,6.81,0,0,1,1.34-4.36,4.54,4.54,0,0,1,3.78-1.71,6.08,6.08,0,0,1,2.54.53,5,5,0,0,1,1.88,1.44l.06,2.65h-1.14l-.21-2.16a3.86,3.86,0,0,0-1.33-1,4.32,4.32,0,0,0-1.8-.35,3.18,3.18,0,0,0-2.86,1.39,6.27,6.27,0,0,0-.93,3.53v.47a6.37,6.37,0,0,0,.92,3.55A3.24,3.24,0,0,0,416.11,236.86Z"/><path class="cls-9" d="M423.13,231.5a6.56,6.56,0,0,1,1.46-4.4,5.19,5.19,0,0,1,7.72,0,6.56,6.56,0,0,1,1.46,4.4v.37a6.57,6.57,0,0,1-1.45,4.41,5.22,5.22,0,0,1-7.73,0,6.57,6.57,0,0,1-1.46-4.41Zm1.34.37a5.86,5.86,0,0,0,1,3.55,3.46,3.46,0,0,0,3,1.44,3.4,3.4,0,0,0,2.91-1.44,5.86,5.86,0,0,0,1.06-3.55v-.37a5.77,5.77,0,0,0-1.07-3.52,3.68,3.68,0,0,0-5.85,0,5.83,5.83,0,0,0-1,3.52Z"/><path class="cls-9" d="M438.81,225.61l.17,2v.14a4.24,4.24,0,0,1,1.4-1.75,3.44,3.44,0,0,1,2.09-.64,2.74,2.74,0,0,1,.5,0l.39.08-.18,1.26-1-.07a3,3,0,0,0-2.06.72,3.9,3.9,0,0,0-1.15,2v7.25l1.81.15v1h-4.94v-1l1.81-.15v-9.87l-1.81-.15v-1h3Z"/><path class="cls-9" d="M448,225.61l.17,2v.14a4.22,4.22,0,0,1,1.39-1.75,3.47,3.47,0,0,1,2.1-.64,2.63,2.63,0,0,1,.49,0l.4.08-.18,1.26-1-.07a3,3,0,0,0-2.06.72,3.9,3.9,0,0,0-1.15,2v7.25l1.81.15v1H445v-1l1.82-.15v-9.87L445,226.6v-1h3Z"/><path class="cls-9" d="M459.32,238a4.82,4.82,0,0,1-3.76-1.68,6.21,6.21,0,0,1-1.49-4.27v-.62a6.37,6.37,0,0,1,1.49-4.32,4.56,4.56,0,0,1,3.58-1.72,4.4,4.4,0,0,1,3.48,1.42,5.46,5.46,0,0,1,1.27,3.77v1.14H455.4V232a5.41,5.41,0,0,0,1.08,3.43,3.42,3.42,0,0,0,2.84,1.39,5.75,5.75,0,0,0,2.11-.35,4,4,0,0,0,1.5-1l.57.92a4.75,4.75,0,0,1-1.71,1.14A6.58,6.58,0,0,1,459.32,238Zm-.18-11.46a3.16,3.16,0,0,0-2.47,1.14,4.9,4.9,0,0,0-1.17,2.85l0,.06h7v-.34a3.89,3.89,0,0,0-.92-2.65A3.13,3.13,0,0,0,459.14,226.53Z"/><path class="cls-9" d="M466,236.77l1.81-.15v-9.87L466,226.6v-1h3l.12,2.12a4.4,4.4,0,0,1,1.56-1.74,4.33,4.33,0,0,1,2.33-.61,3.66,3.66,0,0,1,3,1.21,5.76,5.76,0,0,1,1,3.77v6.26l1.81.15v1h-4.95v-1l1.81-.15v-6.25a4.47,4.47,0,0,0-.77-3,2.83,2.83,0,0,0-2.2-.86,3.4,3.4,0,0,0-2.28.75,4.08,4.08,0,0,0-1.27,2v7.34l1.81.15v1h-5Z"/><path class="cls-9" d="M489.17,236a4.2,4.2,0,0,1-1.54,1.48,4.62,4.62,0,0,1-2.23.51,4,4,0,0,1-3.37-1.63,7.07,7.07,0,0,1-1.22-4.34v-.24a8,8,0,0,1,1.22-4.65,3.89,3.89,0,0,1,3.4-1.75,4.31,4.31,0,0,1,2.17.53,4.42,4.42,0,0,1,1.54,1.53v-6.06l-1.81-.14v-1h3.14v16.38l1.81.15v1h-3Zm-7-4a6.21,6.21,0,0,0,.87,3.5,3,3,0,0,0,2.63,1.3,3.74,3.74,0,0,0,2.14-.58,3.88,3.88,0,0,0,1.34-1.61v-5.75a4.24,4.24,0,0,0-1.29-1.68,3.46,3.46,0,0,0-2.17-.65A2.89,2.89,0,0,0,483,228a7.2,7.2,0,0,0-.88,3.78Z"/><path class="cls-9" d="M494.33,231.5a6.56,6.56,0,0,1,1.45-4.4,5.2,5.2,0,0,1,7.73,0,6.56,6.56,0,0,1,1.45,4.4v.37a6.57,6.57,0,0,1-1.45,4.41,4.79,4.79,0,0,1-3.85,1.71,4.85,4.85,0,0,1-3.88-1.71,6.57,6.57,0,0,1-1.45-4.41Zm1.33.37a5.8,5.8,0,0,0,1.06,3.55,3.69,3.69,0,0,0,5.85,0,5.8,5.8,0,0,0,1.06-3.55v-.37a5.77,5.77,0,0,0-1.06-3.52,3.43,3.43,0,0,0-2.93-1.45,3.39,3.39,0,0,0-2.92,1.45,5.77,5.77,0,0,0-1.06,3.52Z"/><path class="cls-9" d="M509.22,237.76h-1.58v-1.88h1.58Zm-.13-5.37h-1.33v-11h1.33Z"/><path class="cls-9" d="M527.24,229.84H520.6v6.78h7.65l.1-2.45h1.17v3.59h-12v-1l1.81-.15V222.55l-1.81-.15v-1h12V225h-1.18l-.1-2.45H520.6v6.14h6.64Z"/><path class="cls-9" d="M540.77,229.36h-1.09l-.15-1.72a3.44,3.44,0,0,0-1.26-.82,4.8,4.8,0,0,0-1.75-.29,3.27,3.27,0,0,0-2.19.63,1.94,1.94,0,0,0-.73,1.49,1.77,1.77,0,0,0,.63,1.39,6,6,0,0,0,2.51,1,8.07,8.07,0,0,1,3.21,1.32A2.72,2.72,0,0,1,541,234.6a3,3,0,0,1-1.22,2.45,5.09,5.09,0,0,1-3.22.94,7.47,7.47,0,0,1-2.43-.37,6,6,0,0,1-1.89-1.06v-2.45h1.08l.19,1.73a3,3,0,0,0,1.35.78,6,6,0,0,0,1.7.24,3.65,3.65,0,0,0,2.28-.64,1.9,1.9,0,0,0,.83-1.55,2,2,0,0,0-.69-1.5,5.69,5.69,0,0,0-2.51-1,8.29,8.29,0,0,1-3.18-1.25,2.59,2.59,0,0,1-1-2.19,2.94,2.94,0,0,1,1.17-2.35,4.67,4.67,0,0,1,3.08-1,6.89,6.89,0,0,1,2.41.41,4.79,4.79,0,0,1,1.79,1.11Z"/><path class="cls-9" d="M546.5,222.49v3.12h2.64v1.1H546.5v7.91a2.63,2.63,0,0,0,.42,1.69,1.42,1.42,0,0,0,1.14.5q.33,0,.63,0a5.5,5.5,0,0,0,.71-.09l.2,1a3.35,3.35,0,0,1-.82.22,5,5,0,0,1-.95.08,2.46,2.46,0,0,1-2-.81,3.82,3.82,0,0,1-.71-2.56v-7.91h-2.07v-1.1h2.07v-3.12Z"/><path class="cls-9" d="M551.36,231.5a6.56,6.56,0,0,1,1.46-4.4,5.19,5.19,0,0,1,7.72,0,6.56,6.56,0,0,1,1.46,4.4v.37a6.57,6.57,0,0,1-1.45,4.41,5.22,5.22,0,0,1-7.73,0,6.57,6.57,0,0,1-1.46-4.41Zm1.34.37a5.86,5.86,0,0,0,1,3.55,3.46,3.46,0,0,0,3,1.44,3.41,3.41,0,0,0,2.91-1.44,5.86,5.86,0,0,0,1.06-3.55v-.37A5.77,5.77,0,0,0,559.6,228a3.68,3.68,0,0,0-5.85,0,5.83,5.83,0,0,0-1,3.52Z"/><path class="cls-9" d="M573,235.76a4.12,4.12,0,0,1-1.55,1.65,4.47,4.47,0,0,1-2.32.58,3.64,3.64,0,0,1-3-1.3,6.27,6.27,0,0,1-1.07-4v-5.9l-1.49-.15v-1h2.81v7.06a5.29,5.29,0,0,0,.75,3.19,2.55,2.55,0,0,0,2.13,1,3.86,3.86,0,0,0,2.4-.67,3.6,3.6,0,0,0,1.27-1.86v-7.54l-1.72-.15v-1h3v11l1.61.15v1h-2.78Z"/><path class="cls-9" d="M588.69,238a4.79,4.79,0,0,1-3.75-1.68,6.16,6.16,0,0,1-1.49-4.27v-.62a6.37,6.37,0,0,1,1.48-4.32,4.58,4.58,0,0,1,3.59-1.72A4.43,4.43,0,0,1,592,226.8a5.45,5.45,0,0,1,1.26,3.77v1.14h-8.49V232a5.41,5.41,0,0,0,1.08,3.43,3.43,3.43,0,0,0,2.84,1.39,5.81,5.81,0,0,0,2.12-.35,4.16,4.16,0,0,0,1.5-1l.56.92a4.75,4.75,0,0,1-1.71,1.14A6.55,6.55,0,0,1,588.69,238Zm-.17-11.46a3.18,3.18,0,0,0-2.48,1.14,4.9,4.9,0,0,0-1.17,2.85l0,.06h7.05v-.34a3.94,3.94,0,0,0-.92-2.65A3.14,3.14,0,0,0,588.52,226.53Z"/><path class="cls-9" d="M595.37,236.77l1.35-.12,3.8-5.08-3.62-4.84-1.36-.13v-1h4.08v1l-1.25.07,2.87,3.9,2.88-3.91-1.23-.06v-1H607v1l-1.35.13L602,231.57l3.79,5.08,1.35.12v1h-4.06v-1l1.23-.06-3.06-4.13-3,4.13,1.23.06v1h-4.07Z"/><path class="cls-9" d="M617.19,237.76c-.09-.42-.15-.77-.19-1.07a6.85,6.85,0,0,1,0-.91,5.35,5.35,0,0,1-1.78,1.58,5,5,0,0,1-2.5.63,3.8,3.8,0,0,1-2.74-.92,3.28,3.28,0,0,1-1-2.49,3.09,3.09,0,0,1,1.43-2.68,6.81,6.81,0,0,1,3.89-1H617v-1.61a2.59,2.59,0,0,0-.83-2,3.33,3.33,0,0,0-2.32-.74,5.86,5.86,0,0,0-1.83.27,4.14,4.14,0,0,0-1.38.75l-.11,1.63h-1.1v-2.34a7,7,0,0,1,2-1.06,7.77,7.77,0,0,1,2.48-.4,4.82,4.82,0,0,1,3.2,1,3.64,3.64,0,0,1,1.21,2.93v6c0,.25,0,.48,0,.71s0,.45.08.67l1.2.08v1Zm-4.38-1a4.81,4.81,0,0,0,2.55-.67,4,4,0,0,0,1.59-1.74V232h-2.68a4.93,4.93,0,0,0-2.9.76,2.25,2.25,0,0,0-1.08,1.91,2,2,0,0,0,.67,1.58A2.69,2.69,0,0,0,612.81,236.8Z"/><path class="cls-9" d="M630.28,235.76a4.12,4.12,0,0,1-1.55,1.65,4.44,4.44,0,0,1-2.32.58,3.64,3.64,0,0,1-3-1.3,6.33,6.33,0,0,1-1.07-4v-5.9l-1.49-.15v-1h2.81v7.06a5.29,5.29,0,0,0,.75,3.19,2.55,2.55,0,0,0,2.13,1,3.92,3.92,0,0,0,2.41-.67,3.65,3.65,0,0,0,1.26-1.86v-7.54l-1.71-.15v-1h3v11l1.61.15v1H630.4Z"/><path class="cls-9" d="M643.86,229.36h-1.09l-.15-1.72a3.36,3.36,0,0,0-1.26-.82,4.76,4.76,0,0,0-1.75-.29,3.29,3.29,0,0,0-2.19.63,1.94,1.94,0,0,0-.73,1.49,1.77,1.77,0,0,0,.63,1.39,6.11,6.11,0,0,0,2.51,1,8.07,8.07,0,0,1,3.21,1.32,2.72,2.72,0,0,1,1.07,2.27,3,3,0,0,1-1.22,2.45,5.09,5.09,0,0,1-3.22.94,7.4,7.4,0,0,1-2.42-.37,6,6,0,0,1-1.9-1.06v-2.45h1.08l.19,1.73a3,3,0,0,0,1.35.78,6,6,0,0,0,1.7.24,3.61,3.61,0,0,0,2.28-.64,1.91,1.91,0,0,0,.84-1.55,2,2,0,0,0-.7-1.5,5.69,5.69,0,0,0-2.51-1,8.29,8.29,0,0,1-3.18-1.25,2.59,2.59,0,0,1-1-2.19,2.94,2.94,0,0,1,1.17-2.35,4.69,4.69,0,0,1,3.08-1,6.89,6.89,0,0,1,2.41.41,4.79,4.79,0,0,1,1.79,1.11Z"/><path class="cls-9" d="M649.59,222.49v3.12h2.64v1.1h-2.64v7.91a2.56,2.56,0,0,0,.43,1.69,1.38,1.38,0,0,0,1.13.5q.33,0,.63,0a5.29,5.29,0,0,0,.71-.09l.2,1a3.27,3.27,0,0,1-.81.22,5.18,5.18,0,0,1-1,.08,2.48,2.48,0,0,1-2-.81,3.82,3.82,0,0,1-.71-2.56v-7.91h-2.06v-1.1h2.06v-3.12Z"/><path class="cls-9" d="M654.46,231.5a6.56,6.56,0,0,1,1.45-4.4,5.2,5.2,0,0,1,7.73,0,6.56,6.56,0,0,1,1.45,4.4v.37a6.57,6.57,0,0,1-1.45,4.41,5.22,5.22,0,0,1-7.73,0,6.57,6.57,0,0,1-1.45-4.41Zm1.33.37a5.8,5.8,0,0,0,1.06,3.55,3.69,3.69,0,0,0,5.85,0,5.8,5.8,0,0,0,1.06-3.55v-.37A5.83,5.83,0,0,0,662.7,228a3.43,3.43,0,0,0-2.93-1.45,3.39,3.39,0,0,0-2.92,1.45,5.77,5.77,0,0,0-1.06,3.52Z"/><path class="cls-9" d="M669.19,237.22a5.12,5.12,0,0,1-.42,2,4.7,4.7,0,0,1-1.13,1.67l-.79-.58a6.51,6.51,0,0,0,.77-1.47,4.92,4.92,0,0,0,.25-1.62v-1.59h1.32Z"/><path class="cls-9" d="M685.87,229.36h-1.09l-.15-1.72a3.28,3.28,0,0,0-1.26-.82,4.76,4.76,0,0,0-1.75-.29,3.29,3.29,0,0,0-2.19.63,1.93,1.93,0,0,0-.72,1.49,1.76,1.76,0,0,0,.62,1.39,6.11,6.11,0,0,0,2.51,1,8.07,8.07,0,0,1,3.21,1.32,2.72,2.72,0,0,1,1.07,2.27,3,3,0,0,1-1.22,2.45,5.09,5.09,0,0,1-3.22.94,7.45,7.45,0,0,1-2.42-.37,6,6,0,0,1-1.9-1.06v-2.45h1.08l.19,1.73a3,3,0,0,0,1.35.78,6,6,0,0,0,1.7.24,3.61,3.61,0,0,0,2.28-.64,1.91,1.91,0,0,0,.84-1.55,2,2,0,0,0-.7-1.5,5.69,5.69,0,0,0-2.5-1,8.35,8.35,0,0,1-3.19-1.25,2.59,2.59,0,0,1-1-2.19,2.94,2.94,0,0,1,1.17-2.35,4.69,4.69,0,0,1,3.08-1,6.85,6.85,0,0,1,2.41.41,4.79,4.79,0,0,1,1.79,1.11Z"/><path class="cls-9" d="M688.54,231.5a6.56,6.56,0,0,1,1.46-4.4,5.19,5.19,0,0,1,7.72,0,6.56,6.56,0,0,1,1.46,4.4v.37a6.62,6.62,0,0,1-1.45,4.41,5.22,5.22,0,0,1-7.73,0,6.57,6.57,0,0,1-1.46-4.41Zm1.34.37a5.86,5.86,0,0,0,1,3.55,3.7,3.7,0,0,0,5.86,0,5.86,5.86,0,0,0,1.05-3.55v-.37a5.77,5.77,0,0,0-1.06-3.52,3.68,3.68,0,0,0-5.85,0,5.83,5.83,0,0,0-1,3.52ZM695.1,221h1.63l0,.07L694,224h-1.19Z"/><path class="cls-9" d="M706.88,231.78a7.9,7.9,0,0,1,1.22-4.65,3.89,3.89,0,0,1,3.39-1.75,4.27,4.27,0,0,1,2.16.52,4.38,4.38,0,0,1,1.53,1.5l.13-1.79h1.17v15.67l1.81.15v1h-4.95v-1l1.81-.15v-5.12a4.1,4.1,0,0,1-1.54,1.36,4.69,4.69,0,0,1-2.14.47,4,4,0,0,1-3.37-1.63,7,7,0,0,1-1.22-4.34Zm1.34.24a6.3,6.3,0,0,0,.88,3.52,2.93,2.93,0,0,0,2.63,1.32,3.67,3.67,0,0,0,2.09-.57,3.87,3.87,0,0,0,1.33-1.55v-5.93a4.31,4.31,0,0,0-1.3-1.64,3.31,3.31,0,0,0-2.1-.64,2.88,2.88,0,0,0-2.64,1.46,7.26,7.26,0,0,0-.89,3.79Z"/><path class="cls-9" d="M728.43,235.76a4.18,4.18,0,0,1-1.55,1.65,4.47,4.47,0,0,1-2.32.58,3.62,3.62,0,0,1-3-1.3,6.27,6.27,0,0,1-1.07-4v-5.9L719,226.6v-1h2.81v7.06a5.29,5.29,0,0,0,.75,3.19,2.55,2.55,0,0,0,2.13,1,3.88,3.88,0,0,0,2.4-.67,3.53,3.53,0,0,0,1.26-1.86v-7.54l-1.71-.15v-1h3.05v11l1.61.15v1h-2.78Z"/><path class="cls-9" d="M738.59,238a4.81,4.81,0,0,1-3.76-1.68,6.21,6.21,0,0,1-1.49-4.27v-.62a6.42,6.42,0,0,1,1.48-4.32,4.58,4.58,0,0,1,3.59-1.72,4.43,4.43,0,0,1,3.48,1.42,5.45,5.45,0,0,1,1.26,3.77v1.14h-8.49V232a5.36,5.36,0,0,0,1.09,3.43,3.42,3.42,0,0,0,2.84,1.39,5.79,5.79,0,0,0,2.11-.35,4.16,4.16,0,0,0,1.5-1l.57.92a4.88,4.88,0,0,1-1.72,1.14A6.53,6.53,0,0,1,738.59,238Zm-.18-11.46a3.16,3.16,0,0,0-2.47,1.14,4.9,4.9,0,0,0-1.18,2.85l0,.06h7v-.34a3.94,3.94,0,0,0-.92-2.65A3.14,3.14,0,0,0,738.41,226.53Z"/><path class="cls-9" d="M748.41,225.61l.17,2v.14A4.22,4.22,0,0,1,750,226a3.47,3.47,0,0,1,2.1-.64,2.63,2.63,0,0,1,.49,0l.4.08-.18,1.26-1-.07a3,3,0,0,0-2.06.72,3.9,3.9,0,0,0-1.15,2v7.25l1.81.15v1h-4.95v-1l1.82-.15v-9.87l-1.82-.15v-1h3Z"/><path class="cls-9" d="M754.46,231.5a6.56,6.56,0,0,1,1.45-4.4,5.2,5.2,0,0,1,7.73,0,6.56,6.56,0,0,1,1.45,4.4v.37a6.57,6.57,0,0,1-1.45,4.41,4.79,4.79,0,0,1-3.85,1.71,4.85,4.85,0,0,1-3.88-1.71,6.57,6.57,0,0,1-1.45-4.41Zm1.33.37a5.8,5.8,0,0,0,1.06,3.55,3.69,3.69,0,0,0,5.85,0,5.8,5.8,0,0,0,1.06-3.55v-.37A5.83,5.83,0,0,0,762.7,228a3.43,3.43,0,0,0-2.93-1.45,3.39,3.39,0,0,0-2.92,1.45,5.77,5.77,0,0,0-1.06,3.52Z"/><path class="cls-9" d="M414.46,254.2l-1.5.12,3,8,.38,1.43h.07l.42-1.43,3-8-1.5-.12v-1h4v1l-1.17.11-4.25,11.05h-1.07l-4.25-11.05-1.18-.11v-1h4Z"/><path class="cls-9" d="M423.64,259.1a6.56,6.56,0,0,1,1.46-4.4,5.19,5.19,0,0,1,7.72,0,6.51,6.51,0,0,1,1.46,4.4v.37a6.57,6.57,0,0,1-1.45,4.41,5.22,5.22,0,0,1-7.73,0,6.57,6.57,0,0,1-1.46-4.41Zm1.34.37a5.86,5.86,0,0,0,1,3.55,3.46,3.46,0,0,0,3,1.44,3.4,3.4,0,0,0,2.91-1.44,5.8,5.8,0,0,0,1.06-3.55v-.37a5.88,5.88,0,0,0-1.06-3.53,3.7,3.7,0,0,0-5.86,0,5.88,5.88,0,0,0-1,3.53Z"/><path class="cls-9" d="M436,248.84v-1h3.13v16.38l1.81.15v1H436v-1l1.81-.15V249Z"/><path class="cls-9" d="M446.06,250.09v3.11h2.65v1.11h-2.65v7.91a2.56,2.56,0,0,0,.43,1.69,1.39,1.39,0,0,0,1.14.5l.63,0c.2,0,.44-.05.7-.09l.2,1a3.15,3.15,0,0,1-.81.22,5.18,5.18,0,0,1-1,.08,2.48,2.48,0,0,1-2-.81,3.84,3.84,0,0,1-.7-2.56v-7.91h-2.07V253.2h2.07v-3.11Z"/><path class="cls-9" d="M459.45,265.36a9.92,9.92,0,0,1-.18-1.07,6.84,6.84,0,0,1-.06-.91,5.26,5.26,0,0,1-1.78,1.58,5,5,0,0,1-2.5.63,3.8,3.8,0,0,1-2.73-.92,3.25,3.25,0,0,1-1-2.49,3.11,3.11,0,0,1,1.43-2.68,6.85,6.85,0,0,1,3.89-1h2.66v-1.61a2.59,2.59,0,0,0-.83-2,3.32,3.32,0,0,0-2.32-.74,5.84,5.84,0,0,0-1.82.27,3.93,3.93,0,0,0-1.39.75l-.11,1.63h-1.1v-2.34a7,7,0,0,1,2-1.06,7.44,7.44,0,0,1,2.47-.4,4.8,4.8,0,0,1,3.2,1,3.61,3.61,0,0,1,1.21,2.93v6c0,.24,0,.48,0,.71a4.9,4.9,0,0,0,.07.67l1.2.08v1Zm-4.38-1a4.76,4.76,0,0,0,2.55-.67,4,4,0,0,0,1.59-1.74v-2.44h-2.68a4.9,4.9,0,0,0-2.89.76,2.24,2.24,0,0,0-1.09,1.91,2,2,0,0,0,.67,1.58A2.69,2.69,0,0,0,455.07,264.4Z"/><path class="cls-9" d="M466.59,253.2l.17,2v.14a4.32,4.32,0,0,1,1.39-1.76,3.53,3.53,0,0,1,2.1-.63,2.63,2.63,0,0,1,.49,0l.39.08-.17,1.26-1-.07a3,3,0,0,0-2.06.72,3.83,3.83,0,0,0-1.15,2v7.25l1.81.15v1h-4.95v-1l1.81-.15v-9.87l-1.81-.15v-1h3Z"/><path class="cls-9" d="M478,254.2v-1H481l.17,1.89a4.19,4.19,0,0,1,3.79-2.11,3.91,3.91,0,0,1,3.39,1.75,8,8,0,0,1,1.22,4.65v.24a7.08,7.08,0,0,1-1.22,4.35,4,4,0,0,1-3.37,1.62,4.72,4.72,0,0,1-2.22-.49,4,4,0,0,1-1.55-1.38v5.16L483,269v1H478v-1l1.81-.15V254.35Zm10.15,5.18a7,7,0,0,0-.91-3.77,2.92,2.92,0,0,0-2.66-1.46,3.5,3.5,0,0,0-2.19.64,3.94,3.94,0,0,0-1.26,1.68v5.84a3.66,3.66,0,0,0,1.32,1.58,3.8,3.8,0,0,0,2.15.57,3,3,0,0,0,2.65-1.33,6.13,6.13,0,0,0,.9-3.51Z"/><path class="cls-9" d="M500,265.36c-.09-.42-.15-.77-.19-1.07a6.84,6.84,0,0,1-.06-.91A5.22,5.22,0,0,1,498,265a5,5,0,0,1-2.51.63,3.84,3.84,0,0,1-2.73-.92,3.28,3.28,0,0,1-1-2.49,3.1,3.1,0,0,1,1.44-2.68,6.81,6.81,0,0,1,3.89-1h2.65v-1.61a2.59,2.59,0,0,0-.82-2,3.35,3.35,0,0,0-2.32-.74,5.86,5.86,0,0,0-1.83.27,4,4,0,0,0-1.38.75l-.12,1.63h-1.09v-2.34a7,7,0,0,1,2-1.06,7.48,7.48,0,0,1,2.47-.4,4.78,4.78,0,0,1,3.2,1,3.62,3.62,0,0,1,1.22,2.93v6c0,.24,0,.48,0,.71s0,.45.07.67l1.2.08v1Zm-4.38-1a4.75,4.75,0,0,0,2.54-.67,3.9,3.9,0,0,0,1.59-1.74v-2.44h-2.68a4.92,4.92,0,0,0-2.89.76,2.25,2.25,0,0,0-1.08,1.91,2,2,0,0,0,.67,1.58A2.67,2.67,0,0,0,495.62,264.4Z"/><path class="cls-9" d="M507.13,253.2l.17,2v.14a4.32,4.32,0,0,1,1.39-1.76,3.53,3.53,0,0,1,2.1-.63,2.63,2.63,0,0,1,.49,0l.4.08-.18,1.26-1-.07a3,3,0,0,0-2.06.72,3.9,3.9,0,0,0-1.15,2v7.25l1.81.15v1h-4.94v-1l1.81-.15v-9.87l-1.81-.15v-1h3Z"/><path class="cls-9" d="M521.7,265.36c-.09-.42-.15-.77-.19-1.07a9.08,9.08,0,0,1,0-.91,5.35,5.35,0,0,1-1.78,1.58,5,5,0,0,1-2.5.63,3.8,3.8,0,0,1-2.73-.92,3.25,3.25,0,0,1-1-2.49,3.11,3.11,0,0,1,1.43-2.68,6.83,6.83,0,0,1,3.89-1h2.66v-1.61a2.59,2.59,0,0,0-.83-2,3.32,3.32,0,0,0-2.32-.74,6,6,0,0,0-1.83.27,4,4,0,0,0-1.38.75l-.11,1.63h-1.1v-2.34a7,7,0,0,1,2-1.06,7.4,7.4,0,0,1,2.47-.4,4.82,4.82,0,0,1,3.2,1,3.61,3.61,0,0,1,1.21,2.93v6c0,.24,0,.48,0,.71a4.9,4.9,0,0,0,.07.67l1.2.08v1Zm-4.38-1a4.76,4.76,0,0,0,2.55-.67,4,4,0,0,0,1.59-1.74v-2.44h-2.68a5,5,0,0,0-2.9.76,2.25,2.25,0,0,0-1.08,1.91,2,2,0,0,0,.67,1.58A2.69,2.69,0,0,0,517.32,264.4Z"/><path class="cls-9" d="M539.8,265.36a10.26,10.26,0,0,1-.19-1.07,6.84,6.84,0,0,1-.06-.91,5.16,5.16,0,0,1-1.78,1.58,5,5,0,0,1-2.5.63,3.82,3.82,0,0,1-2.73-.92,3.25,3.25,0,0,1-1-2.49A3.1,3.1,0,0,1,533,259.5a6.81,6.81,0,0,1,3.89-1h2.65v-1.61a2.56,2.56,0,0,0-.83-2,3.31,3.31,0,0,0-2.31-.74,5.86,5.86,0,0,0-1.83.27,4,4,0,0,0-1.39.75l-.11,1.63H532v-2.34a7.16,7.16,0,0,1,2-1.06,7.44,7.44,0,0,1,2.47-.4,4.78,4.78,0,0,1,3.2,1,3.61,3.61,0,0,1,1.21,2.93v6c0,.24,0,.48,0,.71s0,.45.07.67l1.2.08v1Zm-4.38-1a4.75,4.75,0,0,0,2.54-.67,3.9,3.9,0,0,0,1.59-1.74v-2.44h-2.68a4.92,4.92,0,0,0-2.89.76,2.26,2.26,0,0,0-1.09,1.91,2,2,0,0,0,.68,1.58A2.67,2.67,0,0,0,535.42,264.4Z"/><path class="cls-9" d="M549.3,254.2v-1h3l.12,2a4.22,4.22,0,0,1,1.55-1.66,4.34,4.34,0,0,1,2.3-.58,3.46,3.46,0,0,1,3.62,2.75,4.7,4.7,0,0,1,1.55-2,4,4,0,0,1,2.45-.74,3.61,3.61,0,0,1,3,1.29,6.29,6.29,0,0,1,1,4v5.94l1.82.16v1h-5v-1l1.81-.16v-6a5,5,0,0,0-.78-3.18,2.75,2.75,0,0,0-2.19-.92,2.93,2.93,0,0,0-2.39,1,4.76,4.76,0,0,0-1,2.55v.17a1.15,1.15,0,0,1,0,.2v6.15l1.81.15v1h-5v-1l1.82-.15v-6a4.91,4.91,0,0,0-.8-3.15,2.68,2.68,0,0,0-2.18-.95,3.3,3.3,0,0,0-2.25.72,3.89,3.89,0,0,0-1.17,1.95v7.4l1.82.15v1h-5v-1l1.81-.15v-9.87Z"/><path class="cls-9" d="M571.27,264.37l1.81-.15v-9.87l-1.81-.15v-1h3.14v11l1.81.15v1h-5Zm3.14-14.65h-1.33v-1.88h1.33Z"/><path class="cls-9" d="M578.21,264.37l1.81-.15v-9.87l-1.81-.15v-1h3l.12,2.13a4.12,4.12,0,0,1,3.89-2.35,3.68,3.68,0,0,1,3,1.21,5.76,5.76,0,0,1,1,3.77v6.26l1.81.15v1h-5v-1l1.82-.15V258a4.41,4.41,0,0,0-.78-3,2.79,2.79,0,0,0-2.19-.86,3.43,3.43,0,0,0-2.29.75,4.15,4.15,0,0,0-1.27,2v7.34l1.81.15v1h-4.95Z"/><path class="cls-9" d="M592.72,248.84v-1h3.14v7.44a4.42,4.42,0,0,1,1.6-1.69,4.33,4.33,0,0,1,2.33-.61,3.64,3.64,0,0,1,2.92,1.19,5.6,5.6,0,0,1,1,3.7v6.35l1.82.15v1h-5v-1l1.81-.15v-6.38a4.22,4.22,0,0,0-.77-2.83,2.71,2.71,0,0,0-2.13-.86,3.57,3.57,0,0,0-2.28.72,4.21,4.21,0,0,0-1.35,1.93v7.42l1.81.15v1h-4.95v-1l1.81-.15V249Z"/><path class="cls-9" d="M615.84,265.36c-.09-.42-.15-.77-.19-1.07a6.84,6.84,0,0,1-.06-.91,5.22,5.22,0,0,1-1.77,1.58,5,5,0,0,1-2.51.63,3.84,3.84,0,0,1-2.73-.92,3.28,3.28,0,0,1-1-2.49,3.1,3.1,0,0,1,1.44-2.68,6.81,6.81,0,0,1,3.89-1h2.65v-1.61a2.59,2.59,0,0,0-.82-2,3.35,3.35,0,0,0-2.32-.74,5.86,5.86,0,0,0-1.83.27,4,4,0,0,0-1.38.75l-.11,1.63H608v-2.34a7,7,0,0,1,2-1.06,7.48,7.48,0,0,1,2.47-.4,4.83,4.83,0,0,1,3.21,1,3.64,3.64,0,0,1,1.21,2.93v6c0,.24,0,.48,0,.71a4.91,4.91,0,0,0,.08.67l1.2.08v1Zm-4.38-1a4.75,4.75,0,0,0,2.54-.67,3.9,3.9,0,0,0,1.59-1.74v-2.44h-2.67a4.93,4.93,0,0,0-2.9.76,2.25,2.25,0,0,0-1.08,1.91,2,2,0,0,0,.67,1.58A2.67,2.67,0,0,0,611.46,264.4Z"/><path class="cls-9" d="M628.51,253.2l.17,2v.14a4.32,4.32,0,0,1,1.39-1.76,3.53,3.53,0,0,1,2.1-.63,2.63,2.63,0,0,1,.49,0l.39.08-.17,1.26-1-.07a3,3,0,0,0-2.06.72,3.83,3.83,0,0,0-1.15,2v7.25l1.81.15v1h-5v-1l1.81-.15v-9.87l-1.81-.15v-1h3Z"/><path class="cls-9" d="M634.55,259.1a6.56,6.56,0,0,1,1.46-4.4,5.19,5.19,0,0,1,7.72,0,6.56,6.56,0,0,1,1.46,4.4v.37a6.57,6.57,0,0,1-1.45,4.41,5.22,5.22,0,0,1-7.73,0,6.57,6.57,0,0,1-1.46-4.41Zm1.34.37a5.86,5.86,0,0,0,1.05,3.55,3.46,3.46,0,0,0,2.95,1.44A3.4,3.4,0,0,0,642.8,263a5.86,5.86,0,0,0,1.06-3.55v-.37a5.88,5.88,0,0,0-1.06-3.53,3.7,3.7,0,0,0-5.86,0,5.88,5.88,0,0,0-1.05,3.53Z"/><path class="cls-9" d="M650.41,250.09v3.11h2.65v1.11h-2.65v7.91a2.62,2.62,0,0,0,.43,1.69,1.42,1.42,0,0,0,1.14.5l.63,0c.2,0,.44-.05.7-.09l.2,1a3.15,3.15,0,0,1-.81.22,5.15,5.15,0,0,1-1,.08,2.48,2.48,0,0,1-2-.81,3.84,3.84,0,0,1-.7-2.56v-7.91H647V253.2h2.07v-3.11Z"/><path class="cls-9" d="M655.41,264.37l1.82-.15v-9.87l-1.82-.15v-1h3.14v11l1.81.15v1h-5Zm3.14-14.65h-1.32v-1.88h1.32Z"/><path class="cls-9" d="M662.35,264.37l1.81-.15v-9.87l-1.81-.15v-1h3l.12,2.13a4.4,4.4,0,0,1,1.56-1.74,4.31,4.31,0,0,1,2.33-.61,3.66,3.66,0,0,1,3,1.21,5.76,5.76,0,0,1,1,3.77v6.26l1.81.15v1h-4.95v-1l1.81-.15V258a4.47,4.47,0,0,0-.77-3,2.83,2.83,0,0,0-2.2-.86,3.4,3.4,0,0,0-2.28.75,4.1,4.1,0,0,0-1.28,2v7.34l1.82.15v1h-5Z"/><path class="cls-9" d="M685.56,265.36a10.26,10.26,0,0,1-.19-1.07,6.84,6.84,0,0,1-.06-.91,5.26,5.26,0,0,1-1.78,1.58,5,5,0,0,1-2.5.63,3.8,3.8,0,0,1-2.73-.92,3.25,3.25,0,0,1-1-2.49,3.1,3.1,0,0,1,1.44-2.68,6.79,6.79,0,0,1,3.88-1h2.66v-1.61a2.59,2.59,0,0,0-.83-2,3.31,3.31,0,0,0-2.31-.74,5.86,5.86,0,0,0-1.83.27,4,4,0,0,0-1.39.75l-.11,1.63h-1.1v-2.34a7,7,0,0,1,2-1.06,7.44,7.44,0,0,1,2.47-.4,4.8,4.8,0,0,1,3.2,1,3.61,3.61,0,0,1,1.21,2.93v6c0,.24,0,.48,0,.71s0,.45.07.67l1.2.08v1Zm-4.38-1a4.75,4.75,0,0,0,2.54-.67,4,4,0,0,0,1.59-1.74v-2.44h-2.68a4.9,4.9,0,0,0-2.89.76,2.26,2.26,0,0,0-1.09,1.91,2,2,0,0,0,.68,1.58A2.66,2.66,0,0,0,681.18,264.4Z"/><path class="cls-9" d="M703.7,263.6a4.09,4.09,0,0,1-1.54,1.47,4.5,4.5,0,0,1-2.22.52,4,4,0,0,1-3.38-1.63,7.07,7.07,0,0,1-1.21-4.34v-.24a8,8,0,0,1,1.21-4.65A3.92,3.92,0,0,1,700,253a4.34,4.34,0,0,1,2.18.53,4.48,4.48,0,0,1,1.53,1.53V249l-1.81-.14v-1H705v16.38l1.81.15v1h-3Zm-7-4a6.23,6.23,0,0,0,.87,3.5,3,3,0,0,0,2.63,1.3,3.72,3.72,0,0,0,2.14-.58,3.8,3.8,0,0,0,1.34-1.61v-5.75a4.22,4.22,0,0,0-1.28-1.68,3.42,3.42,0,0,0-2.17-.65,2.87,2.87,0,0,0-2.64,1.45,7.19,7.19,0,0,0-.89,3.78Z"/><path class="cls-9" d="M714.16,265.59a4.79,4.79,0,0,1-3.75-1.68,6.16,6.16,0,0,1-1.49-4.27V259a6.35,6.35,0,0,1,1.48-4.32A4.56,4.56,0,0,1,714,253a4.4,4.4,0,0,1,3.48,1.42,5.41,5.41,0,0,1,1.27,3.77v1.14h-8.49v.33a5.41,5.41,0,0,0,1.08,3.43,3.43,3.43,0,0,0,2.84,1.39,5.71,5.71,0,0,0,2.11-.35,4.12,4.12,0,0,0,1.5-1l.57.92a4.75,4.75,0,0,1-1.71,1.14A6.55,6.55,0,0,1,714.16,265.59ZM714,254.13a3.18,3.18,0,0,0-2.47,1.14,4.9,4.9,0,0,0-1.17,2.85l0,.06h7v-.34a3.94,3.94,0,0,0-.92-2.65A3.15,3.15,0,0,0,714,254.13Z"/><path class="cls-9" d="M419.7,284.56h-1.09l-.16-1.72a3.28,3.28,0,0,0-1.26-.82,4.72,4.72,0,0,0-1.75-.29,3.24,3.24,0,0,0-2.18.63,1.91,1.91,0,0,0-.73,1.49,1.77,1.77,0,0,0,.63,1.39,6,6,0,0,0,2.51,1,8.07,8.07,0,0,1,3.21,1.32,2.71,2.71,0,0,1,1.06,2.27,2.94,2.94,0,0,1-1.21,2.45,5.11,5.11,0,0,1-3.22.94,7.47,7.47,0,0,1-2.43-.37,5.8,5.8,0,0,1-1.89-1.06v-2.45h1.07l.19,1.73a3.13,3.13,0,0,0,1.35.78,6.09,6.09,0,0,0,1.71.24,3.65,3.65,0,0,0,2.28-.64,1.93,1.93,0,0,0,.83-1.55,2,2,0,0,0-.69-1.5,5.74,5.74,0,0,0-2.51-1,8.29,8.29,0,0,1-3.18-1.25,2.56,2.56,0,0,1-1-2.19,3,3,0,0,1,1.16-2.35,4.71,4.71,0,0,1,3.08-1,6.94,6.94,0,0,1,2.42.41,4.74,4.74,0,0,1,1.78,1.11Z"/><path class="cls-9" d="M422.37,286.7a6.57,6.57,0,0,1,1.45-4.4,5.2,5.2,0,0,1,7.73,0,6.57,6.57,0,0,1,1.45,4.4v.37a6.57,6.57,0,0,1-1.45,4.41,4.79,4.79,0,0,1-3.85,1.71,4.85,4.85,0,0,1-3.88-1.71,6.57,6.57,0,0,1-1.45-4.41Zm1.33.37a5.8,5.8,0,0,0,1.06,3.55,3.69,3.69,0,0,0,5.85,0,5.8,5.8,0,0,0,1.06-3.55v-.37a5.83,5.83,0,0,0-1.06-3.52,3.43,3.43,0,0,0-2.93-1.45,3.39,3.39,0,0,0-2.92,1.45,5.77,5.77,0,0,0-1.06,3.52Z"/><path class="cls-9" d="M434.68,276.44v-1h3.13v16.38l1.82.15v1h-4.95v-1l1.81-.15V276.58Z"/><path class="cls-9" d="M450.08,291.2a4.2,4.2,0,0,1-1.54,1.48,4.61,4.61,0,0,1-2.22.51,4,4,0,0,1-3.38-1.63,7.07,7.07,0,0,1-1.21-4.34V287a8,8,0,0,1,1.21-4.65,3.91,3.91,0,0,1,3.4-1.75,4.34,4.34,0,0,1,2.18.53,4.48,4.48,0,0,1,1.53,1.53v-6.06l-1.81-.14v-1h3.14v16.38l1.82.15v1h-3Zm-7-4a6.21,6.21,0,0,0,.87,3.5,3,3,0,0,0,2.63,1.31,3.72,3.72,0,0,0,2.14-.59,3.8,3.8,0,0,0,1.34-1.61v-5.75a4.22,4.22,0,0,0-1.28-1.68,3.49,3.49,0,0,0-2.18-.65A2.89,2.89,0,0,0,444,283.2a7.29,7.29,0,0,0-.88,3.78Z"/><path class="cls-9" d="M463.54,293c-.09-.42-.15-.77-.19-1.07a9.08,9.08,0,0,1-.05-.91,5.35,5.35,0,0,1-1.78,1.58,5,5,0,0,1-2.5.63,3.76,3.76,0,0,1-2.73-.92,3.25,3.25,0,0,1-1-2.49,3.09,3.09,0,0,1,1.43-2.67,6.75,6.75,0,0,1,3.89-1h2.66v-1.61a2.59,2.59,0,0,0-.83-2,3.32,3.32,0,0,0-2.32-.74,6,6,0,0,0-1.83.27,4.14,4.14,0,0,0-1.38.75l-.11,1.63h-1.1V282a6.77,6.77,0,0,1,2-1.05,7.4,7.4,0,0,1,2.47-.41,4.82,4.82,0,0,1,3.2,1,3.61,3.61,0,0,1,1.21,2.93v6c0,.25,0,.48,0,.71a4.9,4.9,0,0,0,.07.67l1.2.08v1Zm-4.38-1a4.76,4.76,0,0,0,2.55-.67,4,4,0,0,0,1.59-1.74v-2.44h-2.68a5,5,0,0,0-2.9.76,2.25,2.25,0,0,0-1.08,1.91,2,2,0,0,0,.67,1.58A2.69,2.69,0,0,0,459.16,292Z"/><path class="cls-9" d="M476.16,291.2a4.22,4.22,0,0,1-1.55,1.48,4.61,4.61,0,0,1-2.22.51,4,4,0,0,1-3.37-1.63,7,7,0,0,1-1.22-4.34V287a7.9,7.9,0,0,1,1.22-4.65,3.89,3.89,0,0,1,3.39-1.75,4.32,4.32,0,0,1,2.18.53,4.39,4.39,0,0,1,1.53,1.53v-6.06l-1.81-.14v-1h3.15v16.38l1.81.15v1h-3Zm-7-4a6.21,6.21,0,0,0,.88,3.5,2.94,2.94,0,0,0,2.62,1.31,3.61,3.61,0,0,0,3.48-2.2v-5.75a4.13,4.13,0,0,0-1.28-1.68,3.46,3.46,0,0,0-2.17-.65A2.89,2.89,0,0,0,470,283.2a7.19,7.19,0,0,0-.89,3.78Z"/><path class="cls-9" d="M481.31,286.7a6.58,6.58,0,0,1,1.46-4.4,5.19,5.19,0,0,1,7.72,0,6.58,6.58,0,0,1,1.46,4.4v.37a6.57,6.57,0,0,1-1.45,4.41,5.22,5.22,0,0,1-7.73,0,6.57,6.57,0,0,1-1.46-4.41Zm1.34.37a5.86,5.86,0,0,0,1.05,3.55,3.46,3.46,0,0,0,2.95,1.44,3.4,3.4,0,0,0,2.91-1.44,5.86,5.86,0,0,0,1.06-3.55v-.37a5.83,5.83,0,0,0-1.06-3.52,3.69,3.69,0,0,0-5.86,0,5.83,5.83,0,0,0-1.05,3.52Z"/><path class="cls-9" d="M496.17,293h-1.52v-1.85h1.52Z"/><g class="cls-10"><path class="cls-3" d="M159.91,145.21a11.17,11.17,0,0,1,8,3.62,19.34,19.34,0,0,1,4.81-.63,17.54,17.54,0,0,1,13.05,5.94c14.34,5.37,8.65,14,8.32,14.5l.16,0s8.41,5.88,5.53,8.76c0,0,5.19,6.45,1,9.9a4.57,4.57,0,0,1-1.5.76c11.79,18.37,18.82,50.79,14.18,77.53-.92,5.29-7,9.1-23.27,9.1h0a86.55,86.55,0,0,1-15.76-1.4c.15,1.24.33,2.6.51,3.95h0c.81,5.82,2,12.44,3.3,13.42,8.32,6.24,20.71,8.83,27.68,9.84l10.09.94a25.3,25.3,0,0,1,2.24,2.54h.11c3,0,5.43,3.32,5.43,3.32L263.53,377l-34.33,61.6s11.53,19.37,5.76,28.13l8,7.95s1.27,4.27-4.5,4.27c-1.72,0-4.13-.91-6.68-2.18a434.37,434.37,0,0,1,1.59,45.13,43.08,43.08,0,0,0-4.64-.7l0,3h0c-.11,20.47-.05,50,1.17,56.78,1.9,10.55,0,15.73,0,15.73S235,678.69,235,679.32s7.27,10,7.27,10,9.6,7.56,17.07,13.55h0s4.5,1.18,6.26,2.65a6.1,6.1,0,0,1,1.88,3.93c.5.33,1.33.89,2.27,1.57a24.15,24.15,0,0,0,6.49,1.21c1,1,0,2.15-1.34,3,.75.8,1.2,1.5,1.07,2-.49,1.8-7.44,9.12-20,9.12-.71,0-1.43,0-2.18-.07-13.2-.87-31.5-14.93-33-18.85a11.68,11.68,0,0,1,.19-7.9c0-3.33,2-7.33,3.13-9.33,1.73-3.12,2.94-11.93,2.94-11.93-19-66.75-8.13-76.14-10.2-81-1.32-3.08-13.07-46.77-21.46-78.2h0s0-.1,0-.14c-.48-1.82-1-3.6-1.42-5.32a22.5,22.5,0,0,1-4.34-2.57,136.25,136.25,0,0,1-22.82,9.05l-2.42,6L141.69,583s-4.29,15.82-9.39,20.92a225.26,225.26,0,0,1-12.63,36.49c-8.64,19.36-12.45,46-12.45,46s6.2,15.73,6.93,25.56c7.28,10,13.82,22.28,5.14,25.91a49.73,49.73,0,0,1-18.87,3.32c-10.46,0-19.84-2.45-22-4.64-3.52-3.51,6.46-30.14,6.46-30.14.31-2.42,1-4.76,2.39-5.74,3.46-2.42,7.61-8.3,7.61-8.3s-1.3-3.46,2.33-8.13,9-34.61,9-38.53-4.85-33.2,11.29-44.72c0,0,1.85-37.44,6.58-64.52h0c.51-3.08,1.07-6,1.68-8.74-4.95.41-7.93.46-7.93.46s4.79-13.35,10.91-30.53c-5.22-.5-1.78-8.6-1.78-8.6a43.32,43.32,0,0,0,6.13-3.62l2-5.63c-1.73-4.26,2.59-17.5,2.59-17.5l-15.85-11.95L75.75,415.58s37-87.27,38.51-88.76c1-1,8.11-5.16,13-8,5.16-5.16,16.23-9.24,16.23-9.24s10.55-11.93,12.8-14.18,1.21-8.47,1.21-8.47l-5.77-22.18c-10.21-6.41-14.23-13.55-14.23-13.55a5.12,5.12,0,0,1-3.76,1.51c-3.35,0-6.73-2.55-6.73-2.55s-14.64-14.64-10-21.56a4.35,4.35,0,0,1,3.8-2.09c3,0,6.61,2.49,9.14,4.62-5.19-4.53-8-5.15-9.1-5.15l-.35,0-.09.06-.07,0-.1,0,0-.1c-1.09-.55-6-3.24-6.42-7.8-8.27-2.59-6.67-7.19-6.67-7.19-8-5.42,0-14.13,0-14.13-3.55-3.54-.81-8.7-.81-8.7-4.15-5.88,1-13.14,1-13.14.58-6.34,10.09-10.08,10.09-10.08.74-3.18,4.66-4.67,4.66-4.67a6.94,6.94,0,0,1,6.39-3.95,4,4,0,0,1,.53,0c3.45-7.45,16.38-8.17,21.21-8.17,1.15,0,1.84,0,1.84,0a12.92,12.92,0,0,1,7.85-3m65,272.39,21.34-38.49L226,348.94c.54,8.66.87,17.57.78,25.95a338.19,338.19,0,0,1-3,40.92,2.84,2.84,0,0,1,1.17,1.79m-78,28.67c2.06-5.9,3.86-11.07,5.21-15-2.14-4.29,1.21-6.22,2.22-6.68.12-.38.21-.7.27-.92,2.08-7.61-17.46-44.93-17.46-44.93l-16.5-10.34L97.51,411.87l37,25.76,12.41,8.64M267,709.08h0M159.91,139.84h0a17.5,17.5,0,0,0-9.47,3h-.22c-6.95,0-18.65,1.16-24.31,8.39a12.08,12.08,0,0,0-7.62,5,13.61,13.61,0,0,0-5,4.75c-3.43,1.74-9.7,5.73-11.09,12.13-2.19,3.63-4.23,9.76-1.8,15.53a13.15,13.15,0,0,0,.26,8.08,16,16,0,0,0-2.4,9.7,12,12,0,0,0,3.46,7.11,9.68,9.68,0,0,0,.93,2.82,13.26,13.26,0,0,0,6.62,5.92,14.42,14.42,0,0,0,2.76,4.27c-2.61,4.77-1.32,11,3.81,18.54a68.59,68.59,0,0,0,7.39,8.95l.56.49c.8.61,5.06,3.63,10,3.63a12,12,0,0,0,2-.17,53.91,53.91,0,0,0,11.32,10.2L152.28,288a12.35,12.35,0,0,1,0,3.89c-2.34,2.41-9.3,10.25-11.87,13.15-3.25,1.3-11.37,4.82-16.32,9.45-12,6.91-13,7.88-13.6,8.52-1,1-1.66,1.67-20.95,46.62-9.33,21.76-18.6,43.62-18.69,43.84l1.7,6.38,46.06,34.73,12.86,9.7c-1.34,4.77-2.59,10.8-1.95,15.15L128.6,482a42.38,42.38,0,0,1-4,2.2L122,486.91c-.73,1.72-2.9,7.66-.26,12.09a8,8,0,0,0,.52.77c-5.43,15.22-9.5,26.56-9.5,26.56l5.15,7.18,1.21,0c-.12.68-.23,1.37-.35,2.06h0c-4.09,23.43-6,53.89-6.51,62.7-14.35,12.54-12.29,37.07-11.59,45.38.07.83.15,1.77.15,2-.06,4.36-5.38,31.48-7.89,35.27a16.18,16.18,0,0,0-3.66,9.91,29.92,29.92,0,0,1-5.09,5.38c-2.42,1.7-3.91,4.59-4.55,8.83-.66,1.78-2.71,7.48-4.47,13.57-3.64,12.57-3.79,18.44-.56,21.68,4.08,4.07,16.08,6.21,25.82,6.21a55.06,55.06,0,0,0,20.94-3.74,11.52,11.52,0,0,0,7-7.64c1.71-6.15-1.14-14.17-9-25.18-1-8.73-5.12-20.23-6.6-24.18.89-5.56,4.68-27.2,11.83-43.22a233.41,233.41,0,0,0,12.62-36.11c5.06-6.21,8.7-18.54,9.59-21.78l22.56-56.55,1.46-3.68a142.18,142.18,0,0,0,18.42-7.24l.14.08.81,3,0,.08v0c18.18,68.08,20.87,76.71,21.56,78.54,0,.49-.2,1.47-.34,2.29-1.3,7.81-4.34,26,10.16,77.33-.56,3.54-1.5,7.79-2.16,9-2.29,4.13-3.56,7.8-3.77,11a16.64,16.64,0,0,0,.13,10.81c1.95,5.09,12.19,11.86,14.22,13.16,4.92,3.16,14.5,8.53,23.43,9.12.85.06,1.7.08,2.53.08,14.4,0,23.91-8.38,25.19-13.07a6.16,6.16,0,0,0,.15-2.5,6.57,6.57,0,0,0-1.26-7.69l-3.57-1.57a20.11,20.11,0,0,1-4.23-.66,10.55,10.55,0,0,0-3.2-4.81,21.94,21.94,0,0,0-7.19-3.39c-6.27-5-13.74-10.91-15.75-12.5-2.24-2.89-4.74-6.2-5.82-7.76-.25-4.25-1.23-20.1-5.05-80.54.6-2.44,1.5-8.21-.14-17.25-.84-4.69-1.23-24.56-1.08-54.6l4.68-3.35c0-.84.41-18.56-.94-37.73l.67,0c4.67,0,7.11-2,8.34-3.62a8.68,8.68,0,0,0,1.3-7.54l-1.35-2.26-5.4-5.4c1.28-4.72.6-10.73-2-17.95a77.46,77.46,0,0,0-3.95-8.92l32.89-59,0-5.27-39.78-69.64-.3-.47a14.27,14.27,0,0,0-7.06-5.17c-.41-.46-.83-.91-1.28-1.36l-3.3-1.54-9.95-.93c-6.05-.89-16.92-3.11-24.3-8.22a50.89,50.89,0,0,1-1.55-7.36c3.1.3,6.27.46,9.49.46,6.5,0,26.22,0,28.57-13.55,4.31-24.81-.94-56.41-12.53-77.28,2.49-3.78,1.72-8.59-.53-12.59a8.58,8.58,0,0,0,0-1.34c-.28-3.27-2.71-6.26-5.16-8.48a12.76,12.76,0,0,0-.29-6.57c-1.42-4.52-5.23-8.1-11.34-10.65a23.2,23.2,0,0,0-16.2-6.77,23.88,23.88,0,0,0-3.25.22,16,16,0,0,0-9.51-3.22Zm71.37,255.24c.42-6,.76-12.84.84-20.13,0-2.32,0-4.75,0-7.29L240,379.38l-8.71,15.7Zm-126.8,15.11L122.67,376l10.38,6.5c1.43,2.79,5,9.77,8.37,17.31,6.36,14,7.68,19.69,7.92,21.69a9.84,9.84,0,0,0-2.77,4,9.7,9.7,0,0,0-.16,5.79q-1,2.85-2.25,6.51l-6.61-4.6-33.07-23Z"/><path class="cls-5" d="M151,261.69l6.57,25.24s1,6.23-1.21,8.47-12.8,14.18-12.8,14.18l-5.87,11.59,34.06,19.36,40.63-10.89-1.21-28.53s-20.8-1.33-32.94-10.43c-2.38-1.79-4.41-22.6-4.41-22.6Z"/><path class="cls-11" d="M174.91,277.26c-.64-4.65-1.16-9.34-1.16-9.34l-22.82-6.4,1.83,7s7.14,4.65,9.36,5.63A43.29,43.29,0,0,0,174.91,277.26Z"/><path class="cls-5" d="M132,316.12s-16.28,9.2-17.77,10.7-38.51,88.76-38.51,88.76l46.06,34.73,15.85,11.95s-5,15.39-2.08,18.33-8.64,8.42-8.64,8.42-4.5,10.6,4.61,8.29S153,488.89,153,488.89l6.11-34.12-24.61-17.14-37-25.76,23.13-43.49,16.5,10.34,20.23-14.79-14.53-36.19-6.22-13.6Z"/><path class="cls-5" d="M137.54,251.2s13.2,23.5,52.62,23.51c16.31,0,22.37-3.81,23.29-9.1,5.77-33.27-6.52-75.35-23.58-88.19-15-11.26-68,31.36-68,31.36l11.3,25.36S121.63,221.69,117,228.6s10,21.56,10,21.56S133.62,255.12,137.54,251.2Z"/><path class="cls-5" d="M216.32,304.51c3.92-2.07,7.43,2.81,7.43,2.81L263.53,377l-34.33,61.6s11.53,19.37,5.76,28.13l8,7.95s1.27,4.27-4.5,4.27-19.36-10.15-19.36-10.15l1.57-43.42,25.64-46.23-23.54-35-7.36-6.53S209,308.38,216.32,304.51Z"/><path class="cls-5" d="M175,499.41,141.69,583s-4.29,15.82-9.39,20.92a225.26,225.26,0,0,1-12.63,36.49c-8.64,19.36-12.45,46-12.45,46s7.87,20,6.92,29c0,0,7.52,10.37,4.5,16.33s-14.87,2.43-14.87,2.43S84,736.67,81,731.74s3.72-18.15,3.72-18.15-1-10.55,2.5-13,7.61-8.3,7.61-8.3-1.3-3.46,2.33-8.13,9-34.61,9-38.53-4.85-33.2,11.29-44.72c0,0,3.92-79.54,15-90.61S175,492.69,175,492.69Z"/><path class="cls-12" d="M175,499.41l-10.65,26.71s-14.73,6.58-18.46,7.5c-2.77.68-22.49,6.77-21.83,2.8,2.07-12.43,4.93-22.62,8.41-26.09C143.53,499.26,175,492.69,175,492.69Z"/><path class="cls-5" d="M186.88,487.05s27.89,105.36,30,110.2-8.82,14.23,10.2,81c0,0-1.21,8.81-2.94,11.93s-5.71,11.06-.69,13.83,21.27,16.6,28.18,17.81S271.49,717,271.49,717s6.91-2.6,4.75-4.76c0,0-6.31-.26-8.38-2.33s-25.59-20.58-25.59-20.58S235,680,235,679.32s-5.18-82.71-5.18-82.71,1.9-5.18,0-15.73-1-77-1-77Z"/><path class="cls-12" d="M186.88,487.05s6.56,24.7,8.51,32c.75,2.8,33.27,5.06,33.27,5.06l.18-20.23Z"/><path class="cls-13" d="M186.88,507.91c5.39,10.7,43.31,12.95,46.45,13.95,0,0,1-42.95-5.06-67.07S186.88,507.91,186.88,507.91Z"/><path class="cls-14" d="M140.77,241.74c6.68,2.77.92-9.22.92-9.22s-.63-12-4-14.06a48.87,48.87,0,0,1-7.43-6.07L194,168.66s6.46-9-8.3-14.52a17.54,17.54,0,0,0-17.86-5.31s-6.46-7.72-15.8-.63c0,0-18.78-1.09-23.05,8.13a7,7,0,0,0-6.92,3.92s-3.92,1.49-4.66,4.66c0,0-9.52,3.75-10.09,10.09,0,0-5.19,7.26-1,13.14,0,0-2.74,5.16.81,8.7,0,0-8,8.71,0,14.13,0,0-2,5.64,9.68,7.95l3.46,7.14s3.33-1.51,12.91,8.08S140.77,241.74,140.77,241.74Z"/><path class="cls-11" d="M187.22,242.39a2.26,2.26,0,0,1,0-4.52c2.44,0,10.61-2.06,15.31-3.67-1.45-11.87-10.39-20.74-14.92-25.07a2.26,2.26,0,1,1,3.12-3.26c5.21,5,14.12,15.48,15.11,29.72l.12,1.71-1.61.57C203.06,238.34,191.64,242.39,187.22,242.39Z"/><path class="cls-11" d="M132.64,248.55s-.34-15.13-12-18.77"/><path class="cls-11" d="M120.64,368.38s10-13.37,8.66-11.33C122,368.34,148,381.39,154.08,374.42c0,0-6.05,7.73-16.94,4.3Z"/><path class="cls-15" d="M143.53,309.58s-11.07,4.08-16.23,9.24c0,0,31.05,45,9.84,59.9,0,0,19.54,37.32,17.46,44.93s-36.79,104.49-36.79,104.49,107.21-1.9,111-72l-5.08-40.34a338.19,338.19,0,0,0,3-40.92c.22-19.69-1.93-42.32-3.51-57.76A24.9,24.9,0,0,0,216,301.46l-10.09-.94s8,26.7-10.47,29.23C185.46,331.11,161.52,334.32,143.53,309.58Z"/><g class="cls-16"><path class="cls-17" d="M121.81,530.76s107.2-1.9,111-72Z"/></g><path class="cls-15" d="M143.53,309.58s-11.07,4.08-16.23,9.24c0,0,31.05,45,9.84,59.9,0,0,19.54,37.32,17.46,44.93s-36.79,104.49-36.79,104.49,107.21-1.9,111-72l-5.08-40.34a338.19,338.19,0,0,0,3-40.92c.22-19.69-1.93-42.32-3.51-57.76A24.9,24.9,0,0,0,216,301.46l-10.09-.94s8,26.7-10.47,29.23C185.46,331.11,161.52,334.32,143.53,309.58Z"/><path class="cls-5" d="M121.81,450.31l15.85,11.95s-5,15.39-2.08,18.33-8.64,8.42-8.64,8.42-4.5,10.6,4.61,8.29S153,488.89,153,488.89L158.17,460s1.59-5.68-4.87-9.47c-5-2.94-18.81-12.85-18.81-12.85Z"/><path class="cls-4" d="M152.22,431.48S208.74,439,224.42,421c0,0,1.71-3.55-.66-5.22.34,3.32-26.54,17.8-69.16,8.64C154.6,424.45,149.45,426.3,152.22,431.48Z"/><circle class="cls-18" cx="199.17" cy="428.76" r="13.18"/><g class="cls-19"><path class="cls-20" d="M136.57,173.73s-5.66,6.86,1.52,11.44c2.51,1.61-7.44,9.34-7.44,9.34l-4,22.57s5.19-2.09,8.65-2.09l18.2,20.85-11.67,7.29L104.57,218,79.79,170.16l31.93-29L146.65,133l-6.14,12.17s-14.83,9.06-9.17,15.58C127.8,163.29,127.11,173.07,136.57,173.73Z"/></g><path class="cls-9" d="M120.42,226.06s-6.68-3-6.68-8.52,26.05-57.87,80.46-48.88c0,0,8.41,5.88,5.53,8.76,0,0,5.19,6.45,1,9.9S176.44,185.72,120.42,226.06Z"/><path class="cls-21" d="M123.36,213.86s34.81-42.43,72.05-36.9C195.41,177,160.71,178.82,123.36,213.86Z"/><path class="cls-22" d="M200.62,439.77c-2.07,0-6.51-.41-9.42-3.66-2.53-2.82-3.23-6.91-2.1-12.16a2.26,2.26,0,0,1,4.41.95c-.81,3.76-.46,6.52,1.05,8.19,2.26,2.53,6.67,2.15,6.71,2.14a2.26,2.26,0,0,1,.47,4.49A9.94,9.94,0,0,1,200.62,439.77Z"/><path class="cls-23" d="M207.13,435.3a2.09,2.09,0,0,1-.49-.05,2.26,2.26,0,0,1-1.71-2.69c.83-3.76.49-6.51-1-8.2-2.25-2.54-6.66-2.18-6.7-2.18a2.26,2.26,0,1,1-.44-4.49c.27,0,6.72-.61,10.52,3.68,2.51,2.83,3.19,6.92,2,12.16A2.26,2.26,0,0,1,207.13,435.3Z"/><path class="cls-24" d="M168.3,208.1c1.95-2,4.81-2.46,7.45-2.86,1.68-.25,1.62-2.94-.09-2.68-3.37.51-6.8,1.15-9.29,3.68-1.22,1.23.72,3.09,1.93,1.86Z"/><path class="cls-24" d="M194.25,202.51a5.72,5.72,0,0,1,5-.55,1.34,1.34,0,0,0,.9-2.52,8.6,8.6,0,0,0-7.67,1c-1.44,1,.33,3,1.76,2Z"/><ellipse class="cls-24" cx="173.33" cy="212.87" rx="3.01" ry="4.11" transform="translate(-46.65 48.65) rotate(-14.1)"/><ellipse class="cls-24" cx="198.49" cy="208.82" rx="3.01" ry="4.11" transform="translate(-44.9 54.66) rotate(-14.1)"/><path class="cls-25" d="M202.28,247s-16.4,3-23.57,9.4c0,0,17.94,4.15,24.49-.12l.47-.55A17.64,17.64,0,0,1,202.28,247Z"/><path class="cls-26" d="M184.32,253.73s7.44-1.19,12,3.37l-13.94-.5s-3.35-1.38-.71-2.13Z"/><path class="cls-27" d="M183.41,254.29s16.31-2.8,20.22-4.25a19.22,19.22,0,0,0,0-2.31C203.55,247.2,188.16,250.54,183.41,254.29Z"/><path class="cls-11" d="M204.84,257.66a34.43,34.43,0,0,1-13.13,1.48,95.88,95.88,0,0,1-12.75-2h0a.78.78,0,0,1-.61-.91.81.81,0,0,1,.25-.43,38.54,38.54,0,0,1,12.33-7,100.42,100.42,0,0,1,13.62-3.65,1.5,1.5,0,0,1,.63,2.93l-.08,0a99.7,99.7,0,0,0-13.45,2.84A36.83,36.83,0,0,0,179.58,257l-.36-1.35h0a92.66,92.66,0,0,0,12.57,1.22,31.46,31.46,0,0,0,12-2,1.5,1.5,0,0,1,1.12,2.78l-.08,0Z"/></g></svg>