<svg id="Camada_1" data-name="Camada 1" xmlns="http://www.w3.org/2000/svg" xmlns:xlink="http://www.w3.org/1999/xlink" viewBox="0 0 495.64 432.03"><defs><style>.cls-1,.cls-2,.cls-45,.cls-47,.cls-55,.cls-57,.cls-64,.cls-65,.cls-66{fill:none;}.cls-1{stroke:#a0a0a0;}.cls-1,.cls-43,.cls-45,.cls-47,.cls-48,.cls-55,.cls-57,.cls-64,.cls-65,.cls-66{stroke-miterlimit:10;}.cls-3{fill:#eaeaea;}.cls-4{fill:#d1d1d1;}.cls-5{fill:#f73c3c;}.cls-6{fill:#f19d00;}.cls-7{fill:#e47a09;}.cls-8{fill:#f3c600;}.cls-9{fill:#39485d;}.cls-10{fill:#ffdf4e;}.cls-11{fill:#e69b6d;}.cls-12{fill:#f3f6f7;}.cls-13{fill:#c0311e;}.cls-14{fill:#e24030;}.cls-15{fill:#d14c16;}.cls-16{fill:#8f3714;}.cls-17{fill:#1a6935;}.cls-18{fill:#178743;}.cls-19{fill:#129947;}.cls-20{fill:#23a552;}.cls-21{fill:#b9a486;}.cls-22{fill:#953315;}.cls-23{fill:#64290c;}.cls-24{fill:#ac6018;}.cls-25{fill:#1f5728;}.cls-26{fill:#a12c19;}.cls-27{fill:#088269;}.cls-28{fill:#089b7f;}.cls-29{fill:#2cb195;}.cls-30{fill:#c8cbcf;}.cls-31{fill:#4d698b;}.cls-32{fill:#323e50;}.cls-33{fill:#f1f4f6;}.cls-34{fill:#f3c296;}.cls-35{fill:#fcd4ae;}.cls-36{fill:#ffe052;}.cls-37{fill:#572a11;}.cls-38{fill:#ef7c73;}.cls-39{fill:#077f67;}.cls-40{fill:#eef2cc;}.cls-41{fill:#53b262;}.cls-42{fill:#73bb6a;}.cls-43,.cls-44{fill:#fff;}.cls-43,.cls-48{stroke:#fff;stroke-width:5px;}.cls-45,.cls-47{stroke:#37474f;}.cls-45,.cls-47,.cls-55,.cls-57,.cls-64,.cls-65{stroke-width:3px;}.cls-46,.cls-48{fill:#424242;}.cls-47{stroke-linecap:square;}.cls-49{clip-path:url(#clip-path);}.cls-50{fill:#ef5350;}.cls-51{clip-path:url(#clip-path-2);}.cls-52{fill:#c9a68f;}.cls-53{fill:#eac2a7;}.cls-54{fill:#c99f4b;}.cls-55,.cls-66{stroke:#c9a68f;}.cls-55,.cls-57,.cls-64,.cls-65,.cls-66{stroke-linecap:round;}.cls-56{fill:#6d5f56;}.cls-57{stroke:#6d5f56;}.cls-58{fill:#f4f4f4;}.cls-59{fill:#6d472e;}.cls-60{fill:#c99e32;}.cls-61{clip-path:url(#clip-path-3);}.cls-62{fill:#aa7e30;}.cls-63{fill:#ddd;}.cls-64{stroke:#846829;}.cls-65{stroke:#e8cd95;}.cls-66{stroke-width:2px;}.cls-67{fill:#eaa000;}</style><clipPath id="clip-path"><ellipse class="cls-1" cx="429.49" cy="244.73" rx="66.99" ry="55.51" transform="translate(-31.69 422.69) rotate(-50.78)"/></clipPath><clipPath id="clip-path-2"><rect class="cls-2" x="-20.34" y="148.71" width="244.8" height="283.31"/></clipPath><clipPath id="clip-path-3"><path class="cls-2" d="M46.84,255c6.48,2.68.9-8.94.9-8.94s-.62-11.64-3.91-13.63a47.43,47.43,0,0,1-7.2-5.87l16.56-11.35,45.26-31s6.26-8.72-8-14.08A17,17,0,0,0,73.09,165s-6.25-7.48-15.3-.61c0,0-18.21-1.06-22.34,7.88a6.8,6.8,0,0,0-6.7,3.79s-3.8,1.46-4.53,4.53c0,0-9.21,3.63-9.77,9.77,0,0-5,7-1,12.74,0,0-2.65,5,.78,8.43,0,0-7.7,8.43,0,13.68,0,0-1.89,5.48,9.39,7.71L27,239.8s3.22-1.46,12.51,7.83Z"/></clipPath></defs><title>2-1</title><path class="cls-3" d="M265.08,393.41c17.53,3.83,33.73,12.31,51.18,16.51,13.71,3.3,27.92,3.89,42,3.82,12.94-.07,26.77-1,37.09-8.76,11-8.27,15.55-22.69,16.14-36.39.48-11.07-1.15-22.55,2.68-33,6.37-17.32,25.27-25.9,39.62-37.57,29.42-23.92,41.14-67.24,27.78-102.67s-50.8-60.33-88.75-59c-26.83.93-53.84,13.53-79.66,6.2-25.44-7.23-42-31.76-65.59-43.65-27.54-13.88-60.72-8.81-90.33-.17A423.49,423.49,0,0,0,111,115.22c-15,6.35-29.85,13.67-42.31,24.17C43,161.07,29.36,196.24,33.85,229.53s26.92,63.63,57.48,77.76c18.13,8.38-.7,32.42,17.15,41.36s79-2.39,88.92,40.53c1.45,6.28-2.29,13.32,1.4,18.61s12.68,6.85,16.47,1.64C215.27,409.43,239.43,387.8,265.08,393.41Z"/><circle class="cls-4" cx="103.79" cy="115.51" r="79.5"/><polygon class="cls-5" points="158.17 98.51 120.79 98.51 120.79 61.13 86.79 61.13 86.79 98.51 49.42 98.51 49.42 132.51 86.79 132.51 86.79 169.88 120.79 169.88 120.79 132.51 158.17 132.51 158.17 98.51"/><path class="cls-6" d="M372.2,46.39c-11.49,13.49-50.18,30.17-66,28.83-.51,0,.11,3.32-.22,3.46,18,19,63.45,17.38,66.23-32.29Z"/><path class="cls-7" d="M324.71,85.33c17.67,0,31.42-12.71,35.65-29.26a55.24,55.24,0,0,0,11.84-9.68c-2.64,47-43.51,51-63.13,35.14a35.19,35.19,0,0,0,15.64,3.8Z"/><path class="cls-8" d="M371.53,45.68l.67.71c-7.33,20.3-31.79,42.75-66,28.83-.47-.19-.73-2.49-1.2-2.69,15.83,1.57,55.52-18,66.54-26.85Z"/><path class="cls-9" d="M307,75.54l-2-3a9.75,9.75,0,0,0-1.3,3c0,.91,1.19,3,2.28,3.14s1.87-2.81,1-3.14Z"/><path class="cls-6" d="M363.55,52.16a1.27,1.27,0,1,0,1.27-1.31,1.29,1.29,0,0,0-1.27,1.31Z"/><path class="cls-6" d="M362.7,57.18a1.06,1.06,0,1,0,1.06-1.09,1.08,1.08,0,0,0-1.06,1.09Z"/><path class="cls-6" d="M354.64,58.6a1.63,1.63,0,1,0,1.62-1.68,1.66,1.66,0,0,0-1.62,1.68Z"/><path class="cls-6" d="M351,60.42a1,1,0,1,0,1-1,1,1,0,0,0-1,1Z"/><path class="cls-6" d="M348,61a.72.72,0,1,0,.72-.73A.73.73,0,0,0,348,61Z"/><path class="cls-6" d="M353.77,63.9A1.25,1.25,0,1,0,355,62.61a1.26,1.26,0,0,0-1.25,1.29Z"/><path class="cls-6" d="M341.63,64.63a.72.72,0,1,0,.71-.73.72.72,0,0,0-.71.73Z"/><path class="cls-6" d="M333.4,69.77a1.57,1.57,0,1,0,3.13,0,1.57,1.57,0,1,0-3.13,0Z"/><path class="cls-6" d="M330.18,70.44a.65.65,0,1,0,.65-.67.66.66,0,0,0-.65.67Z"/><path class="cls-6" d="M325.1,70.78a1,1,0,1,0,1-1,1,1,0,0,0-1,1Z"/><path class="cls-6" d="M321.35,71.67a.84.84,0,1,0,1.67,0,.84.84,0,1,0-1.67,0Z"/><path class="cls-6" d="M373.4,47.22C371.05,65,347.72,101,333.81,108.89c-.44.25,1.88,2.7,1.68,3,25.18,5.59,62.18-21.7,37.91-64.69Z"/><path class="cls-8" d="M372.47,47l.93.2c4.76,21.11-3.61,53.76-39.59,61.67-.49.11-1.93-1.66-2.43-1.56,14-7.72,36.63-46.66,41.09-60.31Z"/><path class="cls-9" d="M334.68,108.69l-3.3-1.36a9.74,9.74,0,0,0,.53,3.26c.48.75,2.61,1.84,3.58,1.32s.05-3.42-.81-3.22Z"/><path class="cls-6" d="M369.28,57a1.25,1.25,0,0,0,1.76.37,1.34,1.34,0,0,0,.35-1.82,1.24,1.24,0,0,0-1.75-.37,1.34,1.34,0,0,0-.36,1.82Z"/><path class="cls-6" d="M371.26,61.64a1,1,0,0,0,1.47.3,1.11,1.11,0,0,0,.3-1.51,1,1,0,0,0-1.47-.31,1.12,1.12,0,0,0-.3,1.52Z"/><path class="cls-6" d="M365.3,67.42a1.59,1.59,0,0,0,2.25.47,1.71,1.71,0,0,0,.46-2.33,1.59,1.59,0,0,0-2.25-.47,1.71,1.71,0,0,0-.46,2.33Z"/><path class="cls-6" d="M363.24,71a1,1,0,0,0,1.35.28,1,1,0,0,0,.27-1.39,1,1,0,0,0-1.35-.29,1,1,0,0,0-.27,1.4Z"/><path class="cls-6" d="M361.06,73.21a.71.71,0,0,0,1,.21.77.77,0,0,0,.2-1,.71.71,0,0,0-1-.21.75.75,0,0,0-.2,1Z"/><path class="cls-6" d="M367.41,72.32a1.22,1.22,0,0,0,1.73.37,1.31,1.31,0,0,0,.35-1.78,1.22,1.22,0,0,0-1.73-.37,1.31,1.31,0,0,0-.35,1.78Z"/><path class="cls-6" d="M357.69,79.86a.7.7,0,0,0,1,.21.75.75,0,0,0,.2-1,.7.7,0,0,0-1-.21.75.75,0,0,0-.2,1Z"/><path class="cls-6" d="M353.58,88.84a1.54,1.54,0,0,0,2.17.45,1.64,1.64,0,0,0,.43-2.24A1.53,1.53,0,0,0,354,86.6a1.65,1.65,0,0,0-.44,2.24Z"/><path class="cls-6" d="M351.25,91.23a.63.63,0,0,0,.9.19.68.68,0,0,0,.19-.93.64.64,0,0,0-.9-.19.69.69,0,0,0-.19.93Z"/><path class="cls-6" d="M347.2,94.4a1,1,0,0,0,1.35.29,1,1,0,0,0,.28-1.4,1,1,0,0,0-1.35-.28,1,1,0,0,0-.28,1.39Z"/><path class="cls-6" d="M344.56,97.29a.82.82,0,0,0,1.15.24.89.89,0,0,0,.24-1.2.83.83,0,0,0-1.16-.24.88.88,0,0,0-.23,1.2Z"/><path class="cls-8" d="M369.78,35.17c-.87-.77-2.93-.37-3.83-.06a5.63,5.63,0,0,0-2.48,1.57l-1.62,1.73a1.9,1.9,0,0,0-.56.87,2.06,2.06,0,0,0,0,.78l.15.78a10.22,10.22,0,0,0,.31,1.24,3.63,3.63,0,0,0,3,2.45,2.83,2.83,0,0,0,2.91-2.31l1.07,1a9.87,9.87,0,0,1,.84,1.09,2.42,2.42,0,0,1-.19,2.74c-.15.2-.35.4-.33.66l.37.51c.52.4,1.17.9,1.7.4a2.43,2.43,0,0,0,.51-2l.54,1.88c.16.54.11.77.67.71.74-.08,1-.89.92-1.54a11.25,11.25,0,0,0-1.36-3.34c-1.05-2.21-2.22-4.5-2.21-7a4.6,4.6,0,0,0-.16-1.78l-.3-.41Z"/><path class="cls-10" d="M368.77,34.77a1.72,1.72,0,0,0-.25,1.08,2.07,2.07,0,0,0,.25.91,2,2,0,0,1-.48,1.66,6.12,6.12,0,0,0-.15.77,2.63,2.63,0,0,0-.77,1.63,6.26,6.26,0,0,1-3.2,1.09c-1.1,0-1.92-.88-2.78-1.6l-.05-.25a2.06,2.06,0,0,1,0-.78,1.9,1.9,0,0,1,.56-.87l1.62-1.73A5.63,5.63,0,0,1,366,35.11a6.81,6.81,0,0,1,2.82-.34Z"/><path class="cls-11" d="M399.61,151.23a36.45,36.45,0,0,1-8.53-1c-18.37-4.41-28.61-22.45-24.91-43.87,4-22.94,24.47-41,46.67-41,17.83,0,33.26,10.52,37.66,25.59a30.65,30.65,0,0,1-5.35,27.75c-3.1,3.77-6.94,6.34-10.33,8.6a41.39,41.39,0,0,0-6.39,4.86,30,30,0,0,0-3.61,4.91c-2.43,3.79-5.45,8.5-11.53,11.32a32.79,32.79,0,0,1-13.68,2.88Z"/><path class="cls-12" d="M399.61,148.36a32.3,32.3,0,0,1-7.53-.89c-18.74-4.5-24.37-23.35-21.67-38.95C374,87.92,393,71.11,412.85,71.06c13,0,29,7,33.52,22.49a26.31,26.31,0,0,1-4.53,23.81c-2.71,3.28-6.12,5.56-9.41,7.76a44.22,44.22,0,0,0-7.07,5.41,33.9,33.9,0,0,0-4.17,5.61c-2.34,3.67-4.77,7.45-9.71,9.74a28.46,28.46,0,0,1-11.87,2.48Z"/><path class="cls-13" d="M373.24,107.57c3.21-18.6,20.34-35,39.62-35.08,13.15,0,26.91,7.26,30.76,20.43,2.07,7.1.75,15.41-4,21.18-4.46,5.43-11.4,8-16.3,13s-6.33,11.65-13,14.76a27.47,27.47,0,0,1-17.53,1.4c-16.45-3.95-22.18-20.28-19.51-35.68Z"/><path class="cls-12" d="M407.5,90.41c-3.22,1.07-4.68,4.8-5.21,8.15s-.64,7-2.68,9.71c-1.7,2.25-4.42,3.42-6.76,5s-4.54,4.06-4.16,6.85a18.1,18.1,0,0,1,19.62,2,23.68,23.68,0,0,0,3.94,3.15c3.17,1.66,7.37-.83,4.46-4-2.64-2.89-5.38-4.83-7.32-8.42a27.64,27.64,0,0,1-1.89-22.45Z"/><path class="cls-14" d="M426.6,81a17.14,17.14,0,0,1,15.55,15c.63,6.54-2.63,12.82-6.44,18.17-2.58,3.63-5.9,7.29-10.32,7.81-4.88.58-9.36-3-12.12-7-8.17-12-5.17-35,13.33-33.93Z"/><path class="cls-14" d="M409.76,82.38a15.08,15.08,0,0,0,3.36-2,3.46,3.46,0,0,0,1.22-3.49c-.74-2.22-3.87-2.21-6.12-1.59a44.17,44.17,0,0,0-32.32,39.91,10.05,10.05,0,0,0,.44,4.3,4,4,0,0,0,3.16,2.67c2.48.22,4.11-2.41,5.44-4.52a26.59,26.59,0,0,1,8.89-8.6c4-2.35,5.56-2.21,5.32-7.07-.38-7.9,3.42-15.89,10.61-19.63Z"/><path class="cls-14" d="M398.06,119.93a20.62,20.62,0,0,1,15.45,9.33c1.1,1.71,1.95,3.78,1.44,5.75-.67,2.61-3.41,4.07-6,4.89a32.82,32.82,0,0,1-23.32-1.32c-2.3-1.05-4.58-2.45-5.82-4.66-5-9,12.19-14.49,18.23-14Z"/><path class="cls-13" d="M422.3,115.51a.9.9,0,1,1-.9-.91.9.9,0,0,1,.9.91Z"/><path class="cls-13" d="M428.49,112.61a2,2,0,1,1-2-2,2,2,0,0,1,2,2Z"/><path class="cls-13" d="M432.1,111.32a.71.71,0,1,1-.71-.71.71.71,0,0,1,.71.71Z"/><path class="cls-13" d="M421.43,108.74a1.87,1.87,0,1,1-1.87-1.86,1.87,1.87,0,0,1,1.87,1.86Z"/><path class="cls-13" d="M391.89,105.07a1.16,1.16,0,1,1-1.16-1.16,1.16,1.16,0,0,1,1.16,1.16Z"/><path class="cls-13" d="M393.19,100.82a.65.65,0,1,1-.65-.65.65.65,0,0,1,.65.65Z"/><path class="cls-13" d="M397.05,103.71a1.36,1.36,0,1,1-1.36-1.35,1.36,1.36,0,0,1,1.36,1.35Z"/><path class="cls-13" d="M388.11,129.66a1,1,0,1,1-1-1,1,1,0,0,1,1,1Z"/><path class="cls-13" d="M392.77,126.07a2.06,2.06,0,1,1-2.06-2.06,2.07,2.07,0,0,1,2.06,2.06Z"/><path class="cls-13" d="M395.69,126.48a.68.68,0,1,1-.67-.67.67.67,0,0,1,.67.67Z"/><path class="cls-13" d="M423.21,88.38A1.36,1.36,0,1,1,421.85,87a1.35,1.35,0,0,1,1.36,1.35Z"/><path class="cls-13" d="M437.9,95.73a1,1,0,1,1-1-1,1,1,0,0,1,1,1Z"/><path class="cls-15" d="M314.3,94c-8.42,13.24-22.35,19.44-31.13,13.86s-9.06-20.84-.64-34.07,22.36-19.44,31.13-13.86,9.06,20.84.64,34.07"/><path class="cls-16" d="M285.14,92a53,53,0,0,0,7.84.41,52.9,52.9,0,0,0,3.69,6.93,55.36,55.36,0,0,1-8.31.32A54.27,54.27,0,0,1,285.14,92m-2.42-9.38a49.55,49.55,0,0,0,7.18,1,61.63,61.63,0,0,0,2.5,7.4,52.54,52.54,0,0,1-7.75-.51,67.82,67.82,0,0,1-1.93-7.88m6.71-7.9a54.87,54.87,0,0,0,6.8.31,65.9,65.9,0,0,0,2,7.11,55.62,55.62,0,0,1-7.26.11,73.19,73.19,0,0,1-1.5-7.53m6.74-8.38a58.42,58.42,0,0,0,6.5-.28c.4,2.43.89,4.74,1.47,6.91a58.37,58.37,0,0,1-6.84.63c-.47-2.29-.86-4.7-1.13-7.26m14.39-1.56a63.67,63.67,0,0,0,1.77,6.43,67.33,67.33,0,0,1-6.84,1.54A70.12,70.12,0,0,1,304,65.88a65.2,65.2,0,0,0,6.58-1.12m2.18,7.68a58.7,58.7,0,0,0,2.5,6c-2.43.84-4.78,1.51-7.05,2.06A57.46,57.46,0,0,1,305.86,74c2.21-.39,4.5-.93,6.88-1.6M310.5,88.11a71.92,71.92,0,0,1-7.45,1.83,54.9,54.9,0,0,1-3-6.62,64.5,64.5,0,0,0,7.28-1.24,53.93,53.93,0,0,0,3.15,6M297.59,75a62.64,62.64,0,0,0,6.92-.7,61.43,61.43,0,0,0,2.31,6.57A63.69,63.69,0,0,1,299.59,82a61.12,61.12,0,0,1-2-7m4,15.23a60.25,60.25,0,0,1-7.7.77,59.27,59.27,0,0,1-2.56-7.3,57.36,57.36,0,0,0,7.33-.2,57.44,57.44,0,0,0,2.93,6.73m4.6,7.34a67.42,67.42,0,0,1-7.95,1.6,52.42,52.42,0,0,1-3.74-6.81,61.83,61.83,0,0,0,7.76-.87,50.22,50.22,0,0,0,3.93,6.08m-5.74,9.62a64.27,64.27,0,0,1-6.62,1,49.35,49.35,0,0,1-4.71-7,58.58,58.58,0,0,0,8.38-.48,47.43,47.43,0,0,0,4.48,5.68c.42-.25.84-.5,1.26-.78a47.55,47.55,0,0,1-4.16-5.12,71.07,71.07,0,0,0,8-1.72c.6.75,1.21,1.45,1.82,2.12.34-.34.66-.71,1-1.07-.43-.48-.87-1-1.29-1.48,1.14-.34,2.3-.73,3.49-1.14.46-.6.91-1.23,1.36-1.87-2,.72-3.89,1.36-5.74,1.89a48.28,48.28,0,0,1-4-5.94,73.67,73.67,0,0,0,7.49-1.91,46.34,46.34,0,0,0,3.24,4.42c.28-.44.53-.88.79-1.33-.89-1.11-1.77-2.27-2.61-3.55,1.71-.57,3.48-1.23,5.28-2,.22-.54.4-1.08.59-1.61-2.26.93-4.47,1.74-6.6,2.43a53.92,53.92,0,0,1-3.18-5.93c2.29-.57,4.65-1.27,7.1-2.12a52.31,52.31,0,0,0,2.91,4.94c.2-.61.37-1.21.53-1.82-.72-1.14-1.43-2.33-2.11-3.61,1-.37,2-.77,3-1.2.06-.48.12-1,.15-1.45-1.28.53-2.55,1-3.79,1.49a55.85,55.85,0,0,1-2.5-5.91c1.92-.58,3.91-1.27,5.93-2-.08-.44-.19-.85-.29-1.27-2.08.8-4.11,1.49-6.07,2.07a65.3,65.3,0,0,1-1.78-6.38c1.67-.41,3.37-.89,5.12-1.45a10.5,10.5,0,0,0-.92-1.08q-2.28.71-4.47,1.23c-.3-1.47-.56-3-.78-4.57a13.26,13.26,0,0,0-1.37-.38q.35,2.73.86,5.25c-2.27.5-4.44.85-6.54,1.1q-.45-3-.69-6.38c-.43.08-.85.17-1.27.27.15,2.17.36,4.26.65,6.24a54.29,54.29,0,0,1-6.41.24c-.11-1.31-.19-2.68-.26-4.06-.41.23-.83.49-1.25.75.06,1.11.13,2.2.22,3.26-1.46-.06-2.83-.2-4.18-.37-.47.4-.95.81-1.41,1.25a52.73,52.73,0,0,0,5.71.54c.26,2.58.63,5,1.08,7.33a51.14,51.14,0,0,1-6.71-.37q-.44-3.33-.6-7c-.4.4-.81.8-1.21,1.22.11,1.93.26,3.82.47,5.61-1.52-.22-2.94-.52-4.32-.86-.3.42-.59.84-.88,1.28a45.93,45.93,0,0,0,5.39,1.06,74.79,74.79,0,0,0,1.44,7.59,49.06,49.06,0,0,1-7.07-1.07c-.3-1.91-.53-3.92-.71-6-.4.67-.77,1.35-1.12,2,.12,1.24.27,2.46.45,3.64-.65-.17-1.28-.36-1.9-.54-.18.45-.38.89-.55,1.35.88.26,1.77.52,2.7.74a70.2,70.2,0,0,0,1.83,8,47.13,47.13,0,0,1-6.4-1.59c-.08.5-.12,1-.18,1.48a49.72,49.72,0,0,0,7.05,1.64,59.07,59.07,0,0,0,3.11,7.79,48.75,48.75,0,0,1-8.37-1.27,62.11,62.11,0,0,1-1.92-6.41,23.28,23.28,0,0,0,.83,7.64l.08,0c.5,1.35,1,2.62,1.59,3.85a13.17,13.17,0,0,0,3.63,4A54.36,54.36,0,0,1,279,99.92a50.58,50.58,0,0,0,8.52,1.1,51,51,0,0,0,4.6,7.25,53.63,53.63,0,0,1-8.27-.12,13.16,13.16,0,0,0,5.14,1.61c1.35,0,2.73-.07,4.16-.19l.05.06a23.63,23.63,0,0,0,7.28-2.48"/><path class="cls-6" d="M300,75.05q.57,2.22,1.26,4.29c1.44-.17,2.92-.39,4.42-.68-.51-1.32-1-2.69-1.39-4.08-1.44.21-2.87.37-4.29.47Z"/><path class="cls-6" d="M308.35,73.88q.66,2,1.44,3.87c1.46-.37,2.89-.77,4.32-1.23-.53-1.19-1-2.41-1.49-3.66-1.45.39-2.88.73-4.27,1"/><path class="cls-6" d="M293.93,83.91c.49,1.53,1,3,1.62,4.44,1.54-.07,3.11-.21,4.71-.41-.64-1.36-1.23-2.77-1.77-4.21q-2.31.18-4.56.18Z"/><path class="cls-6" d="M298.39,66.52c.2,1.49.44,3,.73,4.45,1.36-.07,2.73-.18,4.11-.35-.33-1.38-.62-2.82-.88-4.3-1.33.11-2.65.18-4,.2Z"/><path class="cls-6" d="M292.72,79.68c1.43.06,2.9,0,4.39,0-.44-1.46-.83-3-1.17-4.45-1.4,0-2.8,0-4.18-.14.28,1.58.6,3.12,1,4.6Z"/><path class="cls-6" d="M284.35,78.64c1.37.29,2.78.53,4.2.7-.32-1.54-.61-3.11-.84-4.7-1.32-.2-2.63-.45-3.94-.75.15,1.6.34,3.19.58,4.75Z"/><path class="cls-6" d="M290.72,66.12c.1,1.56.24,3.11.42,4.63,1.3.14,2.63.22,4,.26-.26-1.5-.47-3-.64-4.56q-1.91-.11-3.75-.33Z"/><path class="cls-6" d="M295.64,108.21l.63.69a25.81,25.81,0,0,0,3.16-1.24c-1.29.22-2.56.41-3.79.55"/><path class="cls-6" d="M276.42,93a23.33,23.33,0,0,0,.21,3.38l.89.28c-.39-1.17-.76-2.4-1.1-3.66"/><path class="cls-6" d="M317.73,83.3c-.66-1-1.29-2.14-1.89-3.25-1.45.49-2.93,1-4.4,1.35.61,1.2,1.25,2.37,1.92,3.49,1.46-.48,2.92-1,4.37-1.59"/><path class="cls-6" d="M291.12,88.37c-.55-1.5-1-3.05-1.49-4.63-1.5-.12-3-.29-4.45-.54q.54,2.44,1.24,4.79c1.53.19,3.1.33,4.7.38Z"/><path class="cls-6" d="M305.62,61.84c1.29-.16,2.59-.38,3.89-.63-.18-1-.33-2.05-.48-3.1a15.25,15.25,0,0,0-3.84-.21c.12,1.35.25,2.67.43,3.94"/><path class="cls-6" d="M302.75,83.25c.58,1.38,1.19,2.72,1.85,4,1.5-.3,3-.66,4.57-1.08-.67-1.21-1.31-2.46-1.89-3.72q-2.26.48-4.53.81"/><path class="cls-6" d="M315.57,88.23c.34.46.7.93,1.07,1.41l.47-.85c.2-.45.38-.9.56-1.35-.7.28-1.4.54-2.1.79"/><path class="cls-6" d="M316.6,71.68c.46,1.19,1,2.35,1.48,3.45.77-.28,1.55-.6,2.35-.92a23.85,23.85,0,0,0-.36-3.76c-1.18.44-2.35.86-3.47,1.23"/><path class="cls-6" d="M295.07,97c-.8-1.41-1.55-2.87-2.23-4.36-1.63,0-3.27,0-4.9-.17.62,1.59,1.31,3.15,2.06,4.64,1.66,0,3.36,0,5.07-.11Z"/><path class="cls-6" d="M277.55,85.94q2.19.74,4.47,1.26-.6-2.39-1-4.89c-.8-.2-1.58-.45-2.36-.69a36.28,36.28,0,0,0-1.16,3.73l.1.59Z"/><path class="cls-6" d="M298,62.34c1.23,0,2.48,0,3.76-.12-.15-1.19-.27-2.42-.37-3.66a24.65,24.65,0,0,0-3.54,1.26q.06,1.29.15,2.52Z"/><polygon class="cls-6" points="294.11 62.17 294.09 61.87 293.68 62.13 294.11 62.17 294.11 62.17"/><path class="cls-6" d="M287.17,70.17c-.07-.75-.1-1.51-.15-2.27-.55.6-1.09,1.22-1.61,1.87.59.13,1.16.29,1.76.4Z"/><path class="cls-6" d="M290.14,105.79a53.18,53.18,0,0,1-2.77-4.59c-1.81-.1-3.59-.29-5.33-.56a53,53,0,0,0,2.56,4.91,50.89,50.89,0,0,0,5.54.24"/><path class="cls-6" d="M280.13,95.85a49,49,0,0,0,5.08.89c-.66-1.56-1.28-3.18-1.83-4.86-1.62-.27-3.21-.62-4.77-1,.45,1.71.95,3.39,1.52,5"/><path class="cls-6" d="M308.67,100.71q-.76-.84-1.47-1.71c-1.64.43-3.27.81-4.88,1.12q1.44,1.83,3,3.51l.59-.17c.46-.38.91-.75,1.35-1.15s.92-1.06,1.37-1.6"/><path class="cls-6" d="M309.34,97c.49.58,1,1.11,1.47,1.64.77-.9,1.5-1.86,2.22-2.87-1.25.45-2.49.87-3.69,1.23"/><path class="cls-6" d="M297.4,92.37c.73,1.43,1.52,2.79,2.35,4.1,1.6-.24,3.22-.55,4.85-.91-.83-1.22-1.63-2.49-2.37-3.8-1.62.26-3.23.47-4.83.61"/><path class="cls-6" d="M313.64,92.88c-.84-1.06-1.61-2.13-2.35-3.23-1.54.45-3.08.86-4.62,1.22.77,1.22,1.57,2.39,2.42,3.51q2.24-.66,4.55-1.5"/><path class="cls-6" d="M300.47,104.74a47.6,47.6,0,0,1-3-3.87c-1.75.2-3.49.34-5.18.4a49.11,49.11,0,0,0,3,4.23c1.71-.18,3.44-.43,5.18-.76"/><path class="cls-6" d="M307.22,70c1.37-.25,2.76-.55,4.15-.9-.39-1.32-.75-2.63-1.06-3.95-1.33.28-2.67.51-4,.71.28,1.41.59,2.8.94,4.14"/><path class="cls-6" d="M314.22,64.2c.32,1.29.68,2.56,1.07,3.8,1.21-.38,2.47-.82,3.75-1.29a15.7,15.7,0,0,0-1.81-3.39c-1,.32-2,.62-3,.88"/><polyline class="cls-6" points="319.87 78.56 320.09 78.94 320.15 78.45 319.87 78.56"/><path class="cls-17" d="M324.84,47.79c6.66-19.95,20-20.4,24.4-18.29-6.1.72-9.7,15.2-20.86,19.71-1.17.48-3.54-1.42-3.54-1.42Z"/><path class="cls-17" d="M319.87,44.64c15.26-14.49,10-26.73,6.24-29.86,1.93,5.83-9.66,15.23-9,27.25.07,1.26,2.78,2.61,2.78,2.61Z"/><path class="cls-18" d="M314.91,45.25c-3,4.65-6.87,16.47-3.7,18.48s12.22-6.53,15.18-11.18c10-15.67,14.89-36.09,14.89-36.09s-15.7,12-26.37,28.79"/><path class="cls-19" d="M319.9,49.72c14-16,24.4-9.18,26.87-4.68-5-2.63-14.21,9.68-24.78,8-1.11-.18-2.09-3.34-2.09-3.34Z"/><path class="cls-19" d="M320.22,49.92c8.58-19.46-2-26-7.14-26.32,4.5,3.42-2.75,17,3.23,25.85.63.93,3.91.47,3.91.47Z"/><path class="cls-17" d="M312.43,50.32c-2,3.17-4.1,11.58-1.22,13.41s9.62-3.62,11.63-6.78c6.79-10.67,8.84-25.39,8.84-25.39s-12,7.35-19.25,18.76"/><path class="cls-20" d="M315.24,58.35c8.88-10.54,17.47-6.47,20.9-2.9-4.45-.13-20.94,10.13-22.23,5.79-.34-1.14,1.33-2.89,1.33-2.89"/><path class="cls-20" d="M314.39,57.81c5.78-12.52-1.55-18.58-6.24-20.16,2,4-.3,23.26,4.17,22.58,1.19-.18,2.07-2.42,2.07-2.42"/><path class="cls-18" d="M309.92,55.34c-1.08,1.69-1.32,6.73,1.29,8.39s7.08-.69,8.16-2.38c3.62-5.7,2.77-14.8,2.77-14.8s-8.34,2.69-12.22,8.79"/><path class="cls-21" d="M279.24,103.89a16.83,16.83,0,0,1-2.81-9.41,18.92,18.92,0,0,0,2.81,9.41"/><path class="cls-22" d="M283.17,107.81h0a13.58,13.58,0,0,1-3.93-3.92,18.92,18.92,0,0,1-2.81-9.41c0-.11,0-.22,0-.33a1.7,1.7,0,0,0,0,.22c0,.69.09,1.36.18,2h0a20.52,20.52,0,0,0,.65,3.12l.08,0c.5,1.35,1,2.62,1.59,3.85a13.17,13.17,0,0,0,3.63,4h0A54.36,54.36,0,0,1,279,99.92c1.13.25,2.29.46,3.51.63l.22.19-.66-.1a53,53,0,0,0,2.56,4.91,50.89,50.89,0,0,0,5.54.24q-.81-1.2-1.56-2.46l.21,0a51,51,0,0,0,3.3,4.9,53.63,53.63,0,0,1-8.27-.12,13.16,13.16,0,0,0,5.14,1.61c1.35,0,2.73-.07,4.16-.19l.05.06a20.75,20.75,0,0,0,3.1-.73h0a24.66,24.66,0,0,0,2.46-.93c.57-.25,1.15-.52,1.72-.82a64.27,64.27,0,0,1-6.62,1,48.88,48.88,0,0,1-3.24-4.56,11.29,11.29,0,0,0,3.1-.24c.52.75,1.05,1.47,1.6,2.17,1.71-.18,3.44-.43,5.18-.76q-1.41-1.67-2.7-3.5l.11-.09a47,47,0,0,0,4.1,5.13c.42-.25.84-.5,1.26-.78a47.55,47.55,0,0,1-4.16-5.12,71.07,71.07,0,0,0,8-1.72c.6.75,1.21,1.45,1.82,2.12.34-.34.66-.71,1-1.07-.43-.48-.87-1-1.29-1.48l1.4-.44.82.89c.77-.9,1.5-1.86,2.22-2.87h0l.42-.6c-2,.72-3.89,1.36-5.74,1.89q-1-1.29-2-2.73a16.68,16.68,0,0,0,1.7-2.35c.54.81,1.09,1.59,1.67,2.35q2.24-.66,4.55-1.5c-.84-1.06-1.61-2.13-2.35-3.23-1.07.32-2.14.61-3.21.88l0-.13.24-.31c.94-.25,1.89-.53,2.86-.83a46.34,46.34,0,0,0,3.24,4.42h0c.28-.44.53-.88.79-1.33-.89-1.11-1.77-2.27-2.61-3.55,1.71-.57,3.48-1.23,5.28-2,.22-.54.4-1.08.59-1.61-2.26.93-4.47,1.74-6.6,2.43-.33-.53-.65-1.07-1-1.63.07-.18.14-.35.2-.53a4.77,4.77,0,0,0-.29-4.33q2.43-.68,5-1.56a52.31,52.31,0,0,0,2.91,4.94h0c.2-.61.37-1.21.53-1.82-.72-1.14-1.43-2.33-2.11-3.61,1-.37,2-.77,3-1.2.06-.48.12-1,.15-1.45-1.28.53-2.55,1-3.79,1.49a55.85,55.85,0,0,1-2.5-5.91c1.92-.58,3.91-1.27,5.93-2-.08-.44-.19-.85-.29-1.27-2.08.8-4.11,1.49-6.07,2.07a65.3,65.3,0,0,1-1.78-6.38l.76-.19a5.38,5.38,0,0,0,1.6,0c.32,1.28.68,2.54,1.07,3.77,1.21-.38,2.47-.82,3.75-1.29a15.7,15.7,0,0,0-1.81-3.39l-.84.26q.41-.18.78-.39c5.14,7,4.23,19.61-2.87,30.76-8.42,13.24-22.35,19.44-31.13,13.86m24-8.81c-1.64.43-3.27.81-4.88,1.12q1.44,1.83,3,3.51l.59-.17c.46-.38.91-.75,1.35-1.15s.92-1.06,1.37-1.6q-.76-.84-1.47-1.71m10.47-11.56c-.7.28-1.4.54-2.1.79.34.46.7.93,1.07,1.41l.47-.85c.2-.45.38-.9.56-1.35m-1.83-7.39c-1.45.49-2.93,1-4.4,1.35.61,1.2,1.25,2.37,1.92,3.49,1.46-.48,2.92-1,4.37-1.59-.66-1-1.29-2.14-1.89-3.25m4.31-1.6-.28.11.22.38.06-.49m-.08-8c-1.18.44-2.35.86-3.47,1.23.46,1.19,1,2.35,1.48,3.45.77-.28,1.55-.6,2.35-.92a23.85,23.85,0,0,0-.36-3.76m-41.7,27.84c-.42-1.15-.81-2.35-1.17-3.59,1.25,1.26,2.3,2.74,3.49,4.09-.8-.15-1.57-.32-2.32-.5m22.81.36a11,11,0,0,0,1.95-1.43,20.13,20.13,0,0,0,1.62-1.7q.71,1,1.44,2-2.58.68-5,1.12m8.45-10.28c.19-.27.37-.55.53-.83.12.19.23.38.34.57l-.87.26m1.55-8.64a6.18,6.18,0,0,0,.84-2.58c.7-.2,1.4-.41,2.09-.63-.53-1.19-1-2.41-1.49-3.66-.83.22-1.66.43-2.47.62a3,3,0,0,0-.6-.21c1.05-.25,2.11-.52,3.19-.83a58.7,58.7,0,0,0,2.5,6c-1.38.48-2.73.9-4.06,1.28m-2.38-7.65a7.1,7.1,0,0,0,.58-2.51l2-.47c-.39-1.32-.75-2.63-1.06-3.95-1,.2-1.92.38-2.89.53a3.51,3.51,0,0,0-.48-.22c1.18-.19,2.39-.43,3.62-.7a63.67,63.67,0,0,0,1.77,6.43c-1.2.34-2.38.63-3.53.89m-3.92-7.68a8.68,8.68,0,0,0,1-2.58c1.21-.17,2.43-.37,3.64-.6a5.55,5.55,0,0,0,.67,1.46l.15.76c-1.87.41-3.67.73-5.42,1"/><path class="cls-23" d="M283.82,108.15a53.63,53.63,0,0,0,8.27.12,51,51,0,0,1-3.3-4.9,17.49,17.49,0,0,0,1.79.2h0a48.88,48.88,0,0,0,3.24,4.56,64.27,64.27,0,0,0,6.62-1c-.57.3-1.15.57-1.72.82l.7-.31c-1.29.22-2.56.41-3.79.55l.63.69a20.75,20.75,0,0,1-3.1.73l-.05-.06c-1.43.12-2.81.17-4.16.19a13.16,13.16,0,0,1-5.14-1.61m-1.24-.78a13.17,13.17,0,0,1-3.63-4c-.56-1.23-1.09-2.5-1.59-3.85l-.08,0a20.52,20.52,0,0,1-.65-3.12l.89.28q-.39-1.17-.75-2.4l.43.42c.36,1.24.75,2.44,1.17,3.59.75.18,1.52.35,2.32.5a14.88,14.88,0,0,0,1.79,1.76c-1.22-.17-2.38-.38-3.51-.63a54.36,54.36,0,0,0,3.61,7.45m-6.13-13a1.7,1.7,0,0,1,0-.22h0a1.7,1.7,0,0,0,0,.22M302,106.28a47,47,0,0,1-4.1-5.13,11,11,0,0,0,1.51-1.68,9.91,9.91,0,0,0,1.79-.82q2.43-.45,5-1.12-.74-1-1.44-2l.46-.54.51-.6q1,1.44,2,2.73c1.85-.53,3.78-1.17,5.74-1.89l-.42.6c-1.25.44-2.48.86-3.68,1.22.22.26.43.51.65.75l-1.4.44c.42.51.86,1,1.29,1.48-.33.36-.65.73-1,1.07-.61-.67-1.22-1.37-1.82-2.12a71.07,71.07,0,0,1-8,1.72,47.55,47.55,0,0,0,4.16,5.12c-.42.28-.84.53-1.26.78m6.38-16.19c.44-.56.87-1.13,1.27-1.72l.87-.26c-.11-.19-.22-.38-.34-.57a10.67,10.67,0,0,0,.78-1.5c.32.56.64,1.1,1,1.63,2.13-.69,4.34-1.5,6.6-2.43-.19.53-.37,1.07-.59,1.61-1.8.72-3.57,1.38-5.28,2,.84,1.28,1.72,2.44,2.61,3.55-.26.45-.51.89-.79,1.33a46.34,46.34,0,0,1-3.24-4.42c-1,.3-1.92.58-2.86.83m2.49-8.91a2.2,2.2,0,0,0-.45-.41,6,6,0,0,0,.78-1c1.33-.38,2.68-.8,4.06-1.28a58.7,58.7,0,0,1-2.5-6c-1.08.31-2.14.58-3.19.83a3.59,3.59,0,0,0-1.39,0,7.18,7.18,0,0,0,.64-1.15c1.15-.26,2.33-.55,3.53-.89a63.67,63.67,0,0,1-1.77-6.43c-1.23.27-2.44.51-3.62.7a4.23,4.23,0,0,0-2.75,0,8.28,8.28,0,0,0,.69-1c1.75-.23,3.55-.55,5.42-1l-.15-.76a3.53,3.53,0,0,0,2.47,1.57l-.76.19a65.3,65.3,0,0,0,1.78,6.38c2-.58,4-1.27,6.07-2.07.1.42.21.83.29,1.27-2,.77-4,1.46-5.93,2a55.85,55.85,0,0,0,2.5,5.91c1.24-.45,2.51-1,3.79-1.49,0,.48-.09,1-.15,1.45-1,.43-2,.83-3,1.2.68,1.28,1.39,2.47,2.11,3.61-.16.61-.33,1.21-.53,1.82a52.31,52.31,0,0,1-2.91-4.94q-2.55.88-5,1.56"/><path class="cls-22" d="M305.26,58.72a2.28,2.28,0,0,0-.52-.45,2.88,2.88,0,0,0-.62-.29,15.82,15.82,0,0,1,5.06.13c0,.28,0,.57,0,.86l-.12-.86a15.25,15.25,0,0,0-3.84-.21c0,.27.05.55.07.82"/><path class="cls-24" d="M312,77.15a4.38,4.38,0,0,0-.14-1.63,3.27,3.27,0,0,0-1.37-1.84l-.36-.2c.81-.19,1.64-.4,2.47-.62.46,1.25,1,2.47,1.49,3.66-.69.22-1.39.43-2.09.63"/><path class="cls-24" d="M296.27,108.9h0l-.63-.69c1.23-.14,2.5-.33,3.79-.55l-.7.31a24.66,24.66,0,0,1-2.46.93"/><path class="cls-24" d="M276.63,96.4c-.09-.67-.15-1.34-.18-2a1.7,1.7,0,0,1,0-.22V94l.33.3q.36,1.23.75,2.4l-.89-.28h0"/><path class="cls-24" d="M313.36,84.89c-.67-1.12-1.31-2.29-1.92-3.49,1.47-.4,2.95-.86,4.4-1.35.6,1.11,1.23,2.2,1.89,3.25-1.45.57-2.91,1.11-4.37,1.59"/><path class="cls-24" d="M305.84,61.82a3.64,3.64,0,0,0-.58-3.1c0-.27-.05-.55-.07-.82a15.25,15.25,0,0,1,3.84.21l.12.86a8.93,8.93,0,0,0,.33,2.25c-1.21.23-2.43.43-3.64.6"/><path class="cls-24" d="M316.64,89.64c-.37-.48-.73-1-1.07-1.41.7-.25,1.4-.51,2.1-.79-.18.45-.36.9-.56,1.35l-.47.85"/><path class="cls-24" d="M318.08,75.13c-.52-1.1-1-2.26-1.48-3.45,1.12-.37,2.29-.79,3.47-1.23a23.85,23.85,0,0,1,.36,3.76c-.8.32-1.58.64-2.35.92"/><path class="cls-24" d="M284.6,105.55a53,53,0,0,1-2.56-4.91l.66.1.45.32c.16.12.33.23.5.34a14.11,14.11,0,0,0,4.93,1.93q.75,1.26,1.56,2.46a50.89,50.89,0,0,1-5.54-.24"/><path class="cls-24" d="M305.36,103.63q-1.61-1.68-3-3.51c1.61-.31,3.24-.69,4.88-1.12q.71.87,1.47,1.71c-.45.54-.91,1.07-1.37,1.6s-.89.77-1.35,1.15l-.59.17"/><path class="cls-24" d="M310.81,98.68l-.82-.89c-.22-.24-.43-.49-.65-.75,1.2-.36,2.43-.78,3.68-1.22h0c-.72,1-1.45,2-2.22,2.87"/><path class="cls-24" d="M309.09,94.38c-.58-.76-1.13-1.54-1.67-2.35a7.69,7.69,0,0,0,.66-1.5c1.07-.27,2.14-.56,3.21-.88.74,1.1,1.51,2.17,2.35,3.23q-2.31.84-4.55,1.5"/><path class="cls-24" d="M295.29,105.5c-.55-.7-1.08-1.42-1.6-2.17a8.57,8.57,0,0,0,2.06-.72,9.12,9.12,0,0,0,2-1.37q1.29,1.83,2.7,3.5c-1.74.33-3.47.58-5.18.76"/><path class="cls-24" d="M309.38,69.57a5,5,0,0,0-.47-2.35,3.67,3.67,0,0,0-1.28-1.42l-.21-.12c1-.15,1.93-.33,2.89-.53.31,1.32.67,2.63,1.06,3.95l-2,.47"/><path class="cls-24" d="M315.29,68c-.39-1.23-.75-2.49-1.07-3.77a8.34,8.34,0,0,0,2.17-.65l.84-.26A15.7,15.7,0,0,1,319,66.71c-1.28.47-2.54.91-3.75,1.29"/><polyline class="cls-24" points="320.09 78.94 319.87 78.56 320.15 78.45 320.09 78.94"/><path class="cls-25" d="M311.21,63.73a3.54,3.54,0,0,1-1.06-1,5.55,5.55,0,0,1-.67-1.46,8.93,8.93,0,0,1-.33-2.25c0-.29,0-.58,0-.86a12.77,12.77,0,0,1,8,5.08q-.37.21-.78.39a8.34,8.34,0,0,1-2.17.65,5.38,5.38,0,0,1-1.6,0,3.54,3.54,0,0,1-1.41-.52"/><path class="cls-17" d="M313.5,61.55c4.06-4.55,11.4-2.22,13.58-.35-3.94.29-8.44,6.56-14.35,2.81-.82-.52.77-2.46.77-2.46Z"/><path class="cls-17" d="M312.22,60.73c2.4-5.6-2.82-11.27-5.44-12.45,1.41,3.7-2.36,10.43,3.54,14.19.82.53,1.9-1.74,1.9-1.74Z"/><path class="cls-20" d="M308.41,57.71c-1.12,1.67.19,4.36,2.8,6s5.61,1.71,6.64,0c1.31-2.15-.92-9-.92-9s-7.12.88-8.52,3Z"/><path class="cls-15" d="M278.54,61.58c7.4,13.83,6,29-3.21,33.93s-22.6-2.33-30-16.16-6-29,3.21-33.93,22.6,2.33,30,16.16"/><path class="cls-16" d="M262.51,86a52.54,52.54,0,0,0,4.2-6.64,53.91,53.91,0,0,0,7.86.19,56.79,56.79,0,0,1-3.8,7.4,56,56,0,0,1-8.26-1m-9.36-2.5a49.63,49.63,0,0,0,4.38-5.78,59.9,59.9,0,0,0,7.68,1.46A52.34,52.34,0,0,1,261,85.72a68.79,68.79,0,0,1-7.81-2.19m-3.59-9.72a52.92,52.92,0,0,0,3.6-5.78,66.25,66.25,0,0,0,7.16,1.79,55.11,55.11,0,0,1-3.46,6.37,70.17,70.17,0,0,1-7.3-2.38m-4-10A58.29,58.29,0,0,0,248.51,58q3.48,1.27,6.75,2.12a58.79,58.79,0,0,1-2.82,6.27c-2.22-.72-4.51-1.56-6.87-2.58m5.7-13.31a65.77,65.77,0,0,0,6.47,1.62,69.34,69.34,0,0,1-2,6.72Q252.48,58,249,56.8c.81-2,1.57-4,2.25-6.29M259,52.38a57.44,57.44,0,0,0,6.47.78c-.47,2.53-1,4.9-1.67,7.15a57.13,57.13,0,0,1-6.78-1.14q1.11-3.18,2-6.79M271.59,62a71.68,71.68,0,0,1-2.07,7.4,55.33,55.33,0,0,1-7.22-.66,66.16,66.16,0,0,0,2.48-7,51.13,51.13,0,0,0,6.81.21m-17.8,4.8a59.76,59.76,0,0,0,2.79-6.37,59.26,59.26,0,0,0,6.85,1.21,64.71,64.71,0,0,1-2.52,6.88,64.22,64.22,0,0,1-7.12-1.72m15.23,4a60.64,60.64,0,0,1-3.1,7.09,61.26,61.26,0,0,1-7.62-1.35,57.74,57.74,0,0,0,3.42-6.48,57.16,57.16,0,0,0,7.3.74m8.66-.4a67.56,67.56,0,0,1-2.51,7.7A50.71,50.71,0,0,1,267.4,78a63.17,63.17,0,0,0,3.05-7.19,51.72,51.72,0,0,0,7.23-.44m5.56,9.72a64.46,64.46,0,0,1-2.4,6.24,49.37,49.37,0,0,1-8.44.65,59.47,59.47,0,0,0,3.68-7.54,46.42,46.42,0,0,0,7.15-1.11c0-.49,0-1-.06-1.49a46.24,46.24,0,0,1-6.5,1.11,70.33,70.33,0,0,0,2.42-7.8c1-.15,1.86-.34,2.75-.54-.14-.46-.3-.92-.45-1.39-.63.14-1.27.28-1.93.4.26-1.16.5-2.37.72-3.6-.29-.7-.62-1.4-1-2.1-.34,2.06-.72,4.05-1.17,5.93a49.53,49.53,0,0,1-7.12.54,74.61,74.61,0,0,0,2-7.46,49.08,49.08,0,0,0,5.44-.66c-.24-.45-.51-.89-.77-1.34-1.4.23-2.84.43-4.38.54.35-1.78.64-3.65.9-5.57-.37-.45-.74-.88-1.12-1.3-.3,2.43-.67,4.75-1.12,6.94a51.08,51.08,0,0,1-6.72-.14c.62-2.27,1.17-4.67,1.63-7.22a54.07,54.07,0,0,0,5.74-.11c-.44-.47-.88-.92-1.33-1.36-1.35.07-2.73.11-4.18.06.17-1.05.32-2.13.45-3.23-.39-.29-.79-.59-1.19-.85-.16,1.38-.34,2.73-.56,4a57.53,57.53,0,0,1-6.37-.72c.43-2,.81-4,1.12-6.17-.42-.14-.83-.25-1.25-.36q-.48,3.3-1.17,6.3a64.69,64.69,0,0,1-6.43-1.59q.69-2.47,1.25-5.17c-.47.07-.93.16-1.39.27-.34,1.56-.72,3.06-1.13,4.5-1.43-.45-2.88-1-4.37-1.56-.35.32-.68.66-1,1,1.71.69,3.37,1.3,5,1.83a64.49,64.49,0,0,1-2.25,6.23c-1.91-.73-3.88-1.57-5.89-2.52-.14.41-.28.81-.4,1.24q3,1.39,5.76,2.49a56.15,56.15,0,0,1-2.93,5.7c-1.21-.54-2.43-1.14-3.67-1.77,0,.48,0,1,0,1.46,1,.5,2,1,2.95,1.42-.77,1.23-1.57,2.36-2.38,3.45.12.61.25,1.23.4,1.85a53.47,53.47,0,0,0,3.27-4.72c2.38,1,4.68,1.92,6.92,2.66a52.68,52.68,0,0,1-3.62,5.67c-2.07-.84-4.21-1.82-6.39-2.92.14.54.29,1.09.46,1.65,1.74.85,3.45,1.65,5.13,2.34-.95,1.22-1.91,2.31-2.88,3.35.23.46.45.93.69,1.39a50.64,50.64,0,0,0,3.57-4.17,70.8,70.8,0,0,0,7.32,2.46A49.1,49.1,0,0,1,251.68,83c-1.81-.67-3.68-1.46-5.58-2.32.4.67.8,1.33,1.22,2,1.15.5,2.28,1,3.39,1.39-.46.48-.93.94-1.4,1.38.3.39.6.78.91,1.15.66-.63,1.32-1.29,2-2A70.88,70.88,0,0,0,260,86.9a47.8,47.8,0,0,1-4.54,4.79c.4.31.8.59,1.21.88a49.28,49.28,0,0,0,4.89-5.33,58.93,58.93,0,0,0,8.31,1.11A48.16,48.16,0,0,1,264.68,95a63.33,63.33,0,0,1-6.53-1.47,23.71,23.71,0,0,0,7.07,3l.06-.06c1.42.23,2.79.39,4.13.51a13.28,13.28,0,0,0,5.25-1.22,53.14,53.14,0,0,1-8.25-.51,50.74,50.74,0,0,0,5.13-6.87,50.86,50.86,0,0,0,8.57-.46A53,53,0,0,1,276,95.11a13.29,13.29,0,0,0,3.93-3.69c.65-1.19,1.27-2.42,1.87-3.72h.08a23.47,23.47,0,0,0,1.41-7.56"/><path class="cls-6" d="M255.07,64.75c1.47.39,2.92.73,4.35,1,.56-1.34,1.09-2.74,1.58-4.19-1.41-.21-2.82-.47-4.24-.78-.53,1.35-1.09,2.67-1.69,4Z"/><path class="cls-6" d="M258.13,56.92c1.37.26,2.73.48,4.08.65.4-1.46.74-2.91,1.05-4.38-1.29-.12-2.6-.28-3.92-.5-.37,1.46-.78,2.87-1.21,4.23"/><path class="cls-6" d="M259.79,74.41c1.58.32,3.14.58,4.67.76q1-2.06,2-4.31c-1.5-.11-3-.28-4.54-.52q-1,2.1-2.08,4.07Z"/><path class="cls-6" d="M246.84,62c1.39.56,2.78,1.07,4.22,1.55.61-1.21,1.18-2.47,1.72-3.75-1.37-.39-2.76-.84-4.18-1.34-.55,1.21-1.14,2.39-1.76,3.54Z"/><path class="cls-6" d="M255.52,73.38c.75-1.22,1.46-2.5,2.14-3.83-1.48-.33-3-.72-4.45-1.16-.68,1.22-1.41,2.42-2.17,3.57,1.51.54,3,1,4.48,1.42Z"/><path class="cls-6" d="M250.5,80.16c.93-1,1.82-2.15,2.68-3.31-1.51-.47-3-1-4.52-1.57-.81,1-1.68,2.07-2.58,3,1.46.66,2.94,1.27,4.42,1.83Z"/><path class="cls-6" d="M242.72,68.47c1.4.68,2.82,1.32,4.24,1.91.75-1.07,1.48-2.18,2.17-3.33-1.43-.52-2.87-1.08-4.29-1.68-.67,1.06-1.38,2.1-2.12,3.1Z"/><path class="cls-6" d="M281.81,84.84l.91-.21a24.07,24.07,0,0,0,.46-3.36c-.43,1.24-.89,2.43-1.37,3.57"/><path class="cls-6" d="M259.14,94.13a23.61,23.61,0,0,0,3,1.48c.23-.22.46-.41.69-.64-1.22-.23-2.47-.52-3.73-.84"/><path class="cls-6" d="M270.94,53.37c-1.24.06-2.49.07-3.76.05-.28,1.51-.61,3-1,4.49,1.34.07,2.68.08,4,0,.3-1.5.55-3,.76-4.58"/><path class="cls-6" d="M262.3,79c-1.58-.26-3.17-.59-4.76-1-.84,1.25-1.73,2.46-2.65,3.61,1.59.49,3.19.91,4.77,1.27.92-1.24,1.81-2.54,2.64-3.91Z"/><path class="cls-6" d="M246.3,53.39c.49-1.21.94-2.45,1.36-3.7-1-.34-1.95-.72-2.94-1.11a16.07,16.07,0,0,0-2.07,3.25c1.24.56,2.46,1.09,3.65,1.56"/><path class="cls-6" d="M263.55,66.4c1.49.17,2.95.29,4.38.34.47-1.45.91-3,1.3-4.51-1.38,0-2.78-.07-4.17-.18-.46,1.47-1,2.93-1.51,4.35"/><path class="cls-6" d="M274.18,57.67l1.75-.24-.51-.83c-.29-.39-.6-.76-.9-1.15-.1.75-.22,1.49-.34,2.22"/><path class="cls-6" d="M260.26,48.66c1.27.17,2.52.31,3.74.39.12-.8.24-1.64.34-2.49A23.25,23.25,0,0,0,260.89,45c-.19,1.25-.4,2.47-.63,3.64"/><path class="cls-6" d="M271.73,79.82c-1.62,0-3.26-.06-4.89-.2-.79,1.43-1.65,2.83-2.55,4.19,1.69.24,3.38.4,5,.49q1.28-2.16,2.39-4.48Z"/><path class="cls-6" d="M253.52,89.67a44.13,44.13,0,0,0,3.29-3.27c-1.58-.43-3.17-.93-4.77-1.48-.57.59-1.17,1.15-1.76,1.71A36.4,36.4,0,0,0,253,89.47l.56.2Z"/><path class="cls-6" d="M243,60.3q.92-1.61,1.74-3.33c-1.11-.46-2.24-1-3.37-1.49a23.17,23.17,0,0,0-.63,3.71c.76.39,1.52.76,2.26,1.11Z"/><polygon class="cls-6" points="240.94 63.58 240.67 63.45 240.69 63.93 240.94 63.58 240.94 63.58"/><path class="cls-6" d="M244.51,73.55c-.69-.31-1.37-.65-2-1,.25.77.52,1.54.83,2.32.4-.45.83-.87,1.22-1.34Z"/><path class="cls-6" d="M277,88.44c-1.75.14-3.54.2-5.36.17-1,1.52-2,3-3.11,4.36a51.6,51.6,0,0,0,5.54.18A51,51,0,0,0,277,88.44"/><path class="cls-6" d="M263.42,92.29a47.25,47.25,0,0,0,3.27-4c-1.68-.19-3.4-.45-5.13-.79-1,1.27-2.12,2.49-3.25,3.64q2.58.69,5.11,1.14"/><path class="cls-6" d="M281.67,69.8q-1.11.26-2.22.45c-.42,1.64-.9,3.24-1.41,4.8,1.53-.24,3-.55,4.54-.93l.14-.6c-.1-.58-.2-1.15-.33-1.74l-.72-2"/><path class="cls-6" d="M278.79,67.42c.75-.14,1.45-.31,2.16-.47-.41-1.12-.89-2.23-1.41-3.34-.23,1.3-.47,2.59-.75,3.81"/><path class="cls-6" d="M268.87,75.53c1.6.06,3.18,0,4.72,0q.87-2.28,1.59-4.68c-1.47.13-3,.2-4.48.2-.56,1.54-1.17,3-1.83,4.51"/><path class="cls-6" d="M277.28,61.64c-1.33.2-2.64.36-4,.45-.35,1.57-.76,3.11-1.2,4.63,1.44-.07,2.86-.2,4.24-.39.35-1.51.66-3.08.93-4.69"/><path class="cls-6" d="M281.16,78.93c-1.58.3-3.2.53-4.83.68q-1,2.44-2.2,4.7a45.64,45.64,0,0,0,5.14-.5q1-2.36,1.89-4.88"/><path class="cls-6" d="M254.2,56c.45-1.31.87-2.67,1.25-4.06-1.35-.31-2.66-.64-4-1-.41,1.3-.86,2.58-1.35,3.86,1.36.46,2.73.87,4.07,1.22"/><path class="cls-6" d="M252.58,47.06c1.27.35,2.56.66,3.83.92.27-1.24.5-2.55.72-3.9a15.49,15.49,0,0,0-3.84-.08c-.22,1-.46,2.06-.71,3.06"/><polyline class="cls-6" points="267.87 49.18 268.3 49.17 267.91 48.88 267.87 49.18"/><path class="cls-17" d="M243.49,29.75c-14.12-15.6-8-27.4-4-30.24-2.36,5.67,8.49,15.91,6.95,27.85-.17,1.25-3,2.39-3,2.39Z"/><path class="cls-17" d="M238.31,32.52c-5.14-20.4-18.37-21.84-23-20.08,6,1.18,8.53,15.89,19.31,21.23,1.14.56,3.65-1.15,3.65-1.15Z"/><path class="cls-18" d="M236.4,37.15c2.6,4.86,11,14.07,14.29,12.3s.31-13.86-2.29-18.72C239.64,14.36,224.27.05,224.27.05S227,19.63,236.4,37.15"/><path class="cls-19" d="M242.75,35c-7.09-20.06,4-25.77,9.11-25.72-4.75,3.07,1.46,17.14-5.18,25.53-.7.89-3.93.19-3.93.19Z"/><path class="cls-19" d="M243.08,34.82c-12.74-17-23.64-11-26.44-6.7,5.19-2.24,13.44,10.73,24.11,9.87,1.12-.09,2.33-3.17,2.33-3.17Z"/><path class="cls-17" d="M239.6,41.81c1.77,3.3,8.09,9.25,11.09,7.64s1.57-10.16-.2-13.47c-6-11.15-17.79-20.16-17.79-20.16s.52,14.06,6.9,26"/><path class="cls-20" d="M248,43.3c-4.82-12.92,2.95-18.41,7.74-19.64-2.3,3.82-1.45,23.22-5.86,22.21C248.68,45.6,248,43.3,248,43.3"/><path class="cls-20" d="M247.09,43.77C239,32.59,230.15,36,226.46,39.31c4.45.21,20.12,11.67,21.73,7.45.42-1.12-1.1-3-1.1-3"/><path class="cls-18" d="M242.74,46.45c.95,1.77,5.23,4.46,7.95,3s2.87-6.51,1.93-8.28c-3.19-6-11.53-9.68-11.53-9.68s-1.76,8.59,1.65,15"/><path class="cls-21" d="M270,97a16.89,16.89,0,0,1-9.58-2.17A19,19,0,0,0,270,97"/><path class="cls-22" d="M275.33,95.51h0A13.55,13.55,0,0,1,270,97a19,19,0,0,1-9.58-2.17l-.28-.17.19.1q.93.47,1.86.84h0a21.32,21.32,0,0,0,3,1l.06-.06c1.42.23,2.79.39,4.13.51a13.28,13.28,0,0,0,5.25-1.22h0a53.14,53.14,0,0,1-8.25-.51c.76-.85,1.52-1.77,2.26-2.74l.28-.11-.42.53a51.6,51.6,0,0,0,5.54.18A51,51,0,0,0,277,88.44c-1,.08-1.93.13-2.91.16l.13-.17a49,49,0,0,0,5.89-.47A53,53,0,0,1,276,95.11a13.29,13.29,0,0,0,3.93-3.69c.65-1.19,1.27-2.42,1.87-3.72h.08a22.6,22.6,0,0,0,.89-3.06h0a23.9,23.9,0,0,0,.4-2.6c.06-.62.1-1.26.12-1.9a64.46,64.46,0,0,1-2.4,6.24,47.15,47.15,0,0,1-5.56.59,11.4,11.4,0,0,0,1.32-2.82q1.35-.12,2.67-.33,1-2.36,1.89-4.88-2.16.41-4.38.63l0-.13a48.17,48.17,0,0,0,6.48-1.06c0-.49,0-1-.06-1.49a46.24,46.24,0,0,1-6.5,1.11,70.33,70.33,0,0,0,2.42-7.8c1-.15,1.86-.34,2.75-.54-.14-.46-.3-.92-.45-1.39-.63.14-1.27.28-1.93.4.11-.47.21-1,.31-1.44L281,67c-.41-1.12-.89-2.23-1.41-3.34h0l-.32-.66c-.34,2.06-.72,4.05-1.17,5.93-1.08.16-2.19.29-3.35.38a16.2,16.2,0,0,0-1.21-2.64c1-.07,1.92-.17,2.86-.3.35-1.51.66-3.08.93-4.69-1.33.2-2.64.36-4,.45-.25,1.09-.52,2.17-.8,3.23l-.1-.09-.15-.37c.24-.94.47-1.9.68-2.89a49.08,49.08,0,0,0,5.44-.66h0c-.24-.45-.51-.89-.77-1.34-1.4.23-2.84.43-4.38.54.35-1.78.64-3.65.9-5.57-.37-.45-.74-.88-1.12-1.3-.3,2.43-.67,4.75-1.12,6.94-.62,0-1.25.05-1.9.05-.11-.15-.23-.29-.36-.44a4.72,4.72,0,0,0-3.91-1.86q.6-2.46,1.08-5.11a54.07,54.07,0,0,0,5.74-.11h0c-.44-.47-.88-.92-1.33-1.36-1.35.07-2.73.11-4.18.06.17-1.05.32-2.13.45-3.23-.39-.29-.79-.59-1.19-.85-.16,1.38-.34,2.73-.56,4a57.53,57.53,0,0,1-6.37-.72c.43-2,.81-4,1.12-6.17-.42-.14-.83-.25-1.25-.36q-.48,3.3-1.17,6.3a64.69,64.69,0,0,1-6.43-1.59c.07-.25.14-.5.2-.75a5.61,5.61,0,0,0,.78-1.4c1.26.34,2.54.65,3.8.91.27-1.24.5-2.55.72-3.9a15.49,15.49,0,0,0-3.84-.08c-.06.29-.12.58-.19.86,0-.29,0-.59.05-.87,8.64-1,19.16,5.94,25.39,17.59,7.4,13.83,6,29-3.21,33.93m4.12-25.26c-.42,1.64-.9,3.24-1.41,4.8,1.53-.24,3-.55,4.54-.93l.14-.6c-.1-.58-.2-1.15-.33-1.74l-.72-2q-1.11.26-2.22.45m-4.93-14.8c-.1.75-.22,1.49-.34,2.22l1.75-.24-.51-.83c-.29-.39-.6-.76-.9-1.15m-7.34-2c-.28,1.51-.61,3-1,4.49,1.34.07,2.68.08,4,0,.3-1.5.55-3,.76-4.58-1.24.06-2.49.07-3.76.05m.73-4.54,0,.3h.43l-.39-.29m-7-3.86c-.19,1.25-.4,2.47-.63,3.64,1.27.17,2.52.31,3.74.39.12-.8.24-1.64.34-2.49A23.25,23.25,0,0,0,260.89,45m3.79,50c-1.2-.2-2.43-.45-3.69-.74,1.71-.47,3.52-.66,5.27-1-.52.62-1.05,1.21-1.58,1.78m11.52-19.7a11.64,11.64,0,0,0-.29-2.39,23.45,23.45,0,0,0-.69-2.26c.84-.07,1.66-.15,2.46-.26-.45,1.71-.95,3.35-1.48,4.91m-4.82-12.41q-.21-.44-.45-.87l.66,0-.21.89m-6.77-5.59a6.29,6.29,0,0,0-1.83-2q.25-1.05.48-2.13c-1.29-.12-2.6-.28-3.92-.5-.22.84-.44,1.66-.67,2.47a3.14,3.14,0,0,0-.48.42c.3-1,.58-2.1.84-3.2a57.44,57.44,0,0,0,6.47.78c-.27,1.43-.56,2.82-.89,4.16m-7.83-1.68a6.77,6.77,0,0,0-1.9-1.73l.57-2c-1.35-.31-2.66-.64-4-1-.29.94-.61,1.86-.95,2.78a4.35,4.35,0,0,0-.43.32q.61-1.7,1.17-3.51a65.77,65.77,0,0,0,6.47,1.62q-.45,1.82-1,3.51m-8.62-.35a8.45,8.45,0,0,0-1.77-2.11c.45-1.13.87-2.29,1.26-3.46a5.47,5.47,0,0,0,1.6.13l.74.25q-.84,2.73-1.83,5.19"/><path class="cls-23" d="M276,95.11A53,53,0,0,0,280.11,88a49,49,0,0,1-5.89.47,13.85,13.85,0,0,0,1-1.46h0a47.15,47.15,0,0,0,5.56-.59,64.46,64.46,0,0,0,2.4-6.24c0,.64-.06,1.28-.12,1.9l.06-.76c-.43,1.24-.89,2.43-1.37,3.57l.91-.21a22.6,22.6,0,0,1-.89,3.06h-.08c-.6,1.3-1.22,2.53-1.87,3.72A13.29,13.29,0,0,1,276,95.11m-1.29.69A13.28,13.28,0,0,1,269.41,97c-1.34-.12-2.71-.28-4.13-.51l-.06.06a21.32,21.32,0,0,1-3-1l.69-.64c-.81-.16-1.63-.33-2.46-.53l.58-.16c1.26.29,2.49.54,3.69.74.53-.57,1.06-1.16,1.58-1.78a15.43,15.43,0,0,0,2.41-.69c-.74,1-1.5,1.89-2.26,2.74a53.14,53.14,0,0,0,8.25.51m-14.34-1-.19-.1h0l.19.1m22.91-16.4a48.17,48.17,0,0,1-6.48,1.06,10.45,10.45,0,0,0-.72-2.15,10.44,10.44,0,0,0,.17-2c.53-1.56,1-3.2,1.48-4.91-.8.11-1.62.19-2.46.26L275,70c-.09-.25-.19-.49-.28-.74,1.16-.09,2.27-.22,3.35-.38.45-1.88.83-3.87,1.17-5.93l.32.66c-.23,1.3-.47,2.58-.75,3.8l1-.2c-.1.49-.2,1-.31,1.44.66-.12,1.3-.26,1.93-.4.15.47.31.93.45,1.39-.89.2-1.8.39-2.75.54a70.33,70.33,0,0,1-2.42,7.8,46.24,46.24,0,0,0,6.5-1.11c0,.51.05,1,.06,1.49m-11-13.51c-.28-.65-.56-1.31-.88-2l.21-.89-.66,0a12.34,12.34,0,0,0-.94-1.41c.65,0,1.28,0,1.9-.05.45-2.19.82-4.51,1.12-6.94.38.42.75.85,1.12,1.3-.26,1.92-.55,3.79-.9,5.57,1.54-.11,3-.31,4.38-.54.26.45.53.89.77,1.34a49.08,49.08,0,0,1-5.44.66c-.21,1-.44,2-.68,2.89m-6.54-6.53a2,2,0,0,0-.58.18,5.76,5.76,0,0,0-.53-1.19c.33-1.34.62-2.73.89-4.16a57.44,57.44,0,0,1-6.47-.78c-.26,1.1-.54,2.16-.84,3.2a3.29,3.29,0,0,0-.72,1.18,7.17,7.17,0,0,0-.69-1.12q.51-1.7,1-3.51a65.77,65.77,0,0,1-6.47-1.62q-.56,1.82-1.17,3.51a4.17,4.17,0,0,0-1.38,2.37,7.6,7.6,0,0,0-.56-1.1q1-2.46,1.83-5.19l-.74-.25a3.44,3.44,0,0,0,2.58-1.38c-.06.25-.13.5-.2.75a64.69,64.69,0,0,0,6.43,1.59q.69-3,1.17-6.3c.42.11.83.22,1.25.36-.31,2.15-.69,4.21-1.12,6.17a57.53,57.53,0,0,0,6.37.72c.22-1.3.4-2.65.56-4,.4.26.8.56,1.19.85-.13,1.1-.28,2.18-.45,3.23,1.45,0,2.83,0,4.18-.06.45.44.89.89,1.33,1.36a54.07,54.07,0,0,1-5.74.11q-.48,2.66-1.08,5.11"/><path class="cls-22" d="M243.41,52.17a2.47,2.47,0,0,0-.66.23,2.88,2.88,0,0,0-.55.4,15.92,15.92,0,0,1,2.59-4.34l.74.44-.81-.32a16.07,16.07,0,0,0-2.07,3.25l.76.34"/><path class="cls-24" d="M262.78,55.32a4.51,4.51,0,0,0-1.49-.67,3.28,3.28,0,0,0-2.28.29l-.34.22c.23-.81.45-1.63.67-2.47,1.32.22,2.63.38,3.92.5q-.22,1.08-.48,2.13"/><path class="cls-24" d="M282.72,84.63h0l-.91.21c.48-1.14.94-2.33,1.37-3.57l-.06.76a23.9,23.9,0,0,1-.4,2.6"/><path class="cls-24" d="M262.18,95.61q-.93-.37-1.86-.84l-.19-.1-.14-.08.42-.15c.83.2,1.65.37,2.46.53l-.69.64h0"/><path class="cls-24" d="M270.18,58c-1.3,0-2.64,0-4,0,.37-1.48.7-3,1-4.49,1.27,0,2.52,0,3.76-.05-.21,1.54-.46,3.08-.76,4.58"/><path class="cls-24" d="M246.39,53.18a3.66,3.66,0,0,0-3-1l-.76-.34a16.07,16.07,0,0,1,2.07-3.25l.81.32a8.7,8.7,0,0,0,2.12.82c-.39,1.17-.81,2.33-1.26,3.46"/><path class="cls-24" d="M275.93,57.43l-1.75.24c.12-.73.24-1.47.34-2.22.3.39.61.76.9,1.15l.51.83"/><path class="cls-24" d="M264,49.05c-1.22-.08-2.47-.22-3.74-.39.23-1.17.44-2.39.63-3.64a23.25,23.25,0,0,1,3.45,1.54c-.1.85-.22,1.69-.34,2.49"/><path class="cls-24" d="M274.07,93.15a51.6,51.6,0,0,1-5.54-.18l.42-.53.5-.22L270,92a14.15,14.15,0,0,0,4.1-3.35c1,0,2-.08,2.91-.16a51,51,0,0,1-2.93,4.71"/><path class="cls-24" d="M282.58,74.12c-1.49.38-3,.69-4.54.93.51-1.56,1-3.16,1.41-4.8q1.11-.19,2.22-.45l.72,2c.13.59.23,1.16.33,1.74l-.14.6"/><path class="cls-24" d="M281,67l-1.18.27-1,.2c.28-1.22.52-2.5.75-3.8h0c.52,1.11,1,2.22,1.41,3.34"/><path class="cls-24" d="M276.35,66.33c-.94.13-1.9.23-2.86.3a8.44,8.44,0,0,0-1-1.31c.28-1.06.55-2.14.8-3.23,1.33-.09,2.64-.25,4-.45-.27,1.61-.58,3.18-.93,4.69"/><path class="cls-24" d="M279.27,83.81q-1.32.21-2.67.33A8.8,8.8,0,0,0,277,82a9.66,9.66,0,0,0-.2-2.44q2.22-.23,4.38-.63-.86,2.52-1.89,4.88"/><path class="cls-24" d="M254.88,53.91a4.88,4.88,0,0,0-2.28-.75,3.57,3.57,0,0,0-1.86.43l-.21.11c.34-.92.66-1.84.95-2.78,1.31.38,2.62.71,4,1l-.57,2"/><path class="cls-24" d="M256.41,48c-1.26-.26-2.54-.57-3.8-.91a8.74,8.74,0,0,0,.49-2.21c.07-.28.13-.57.19-.86a15.49,15.49,0,0,1,3.84.08c-.22,1.35-.45,2.66-.72,3.9"/><polyline class="cls-24" points="268.3 49.17 267.87 49.18 267.91 48.88 268.3 49.17"/><path class="cls-25" d="M250.69,49.45a3.56,3.56,0,0,1-1.44.4,5.47,5.47,0,0,1-1.6-.13,8.7,8.7,0,0,1-2.12-.82l-.74-.44A12.77,12.77,0,0,1,253.15,44c0,.28,0,.58-.05.87a8.74,8.74,0,0,1-.49,2.21,5.61,5.61,0,0,1-.78,1.4,3.58,3.58,0,0,1-1.14,1"/><path class="cls-17" d="M249.91,46.37c-2-5.76,3.67-11,6.37-12-1.69,3.58,1.57,10.58-4.6,13.89-.86.46-1.77-1.89-1.77-1.89Z"/><path class="cls-17" d="M248.57,47.09c-3.7-4.84-11.2-3.07-13.51-1.36,3.91.58,7.92,7.17,14.1,3.88.86-.46-.59-2.52-.59-2.52Z"/><path class="cls-20" d="M244.07,48.93c.9,1.79,3.9,2,6.62.52s4.24-4.05,3.25-5.8c-1.23-2.19-8.27-3.6-8.27-3.6s-2.74,6.64-1.6,8.88Z"/><path class="cls-13" d="M344.36,103.4a18.9,18.9,0,0,1-37.73,0c-.76-10.13,7.68-19,18.87-19s19.62,8.89,18.86,19Z"/><path class="cls-14" d="M324.12,102a7.29,7.29,0,1,1-7.29-7.29,7.3,7.3,0,0,1,7.29,7.29Z"/><path class="cls-14" d="M316.83,94.74a2.43,2.43,0,1,1-2.43-2.43,2.42,2.42,0,0,1,2.43,2.43Z"/><path class="cls-26" d="M339.1,93.79a4,4,0,0,0-.68-4.11c-.77-1-3.17-2.68-4.47-2.1a9.65,9.65,0,0,1,1.5-.54,19.63,19.63,0,0,0-5.55-2.17,12.31,12.31,0,0,0-2.07,1.92c-2-.86-4.05-2.25-6.26-1.56a4.61,4.61,0,0,0-2.79,2.45c1.15-1,4-1.46,5.1-.09-4-.33-6.91,1.64-9.06,4.82a4.6,4.6,0,0,1,2.58-1.84c3.06-.82,5.58,2.07,8.47-.26-1.07.86-1.43,3-1.19,4.23a23.22,23.22,0,0,0,1.75,4.52,6.23,6.23,0,0,1,.55,4.07c2.51-3.48,4.24-8,3-12.28.3,1.05,1.33,1.07,2.19,1.08,1.62,0,4.87.19,5.65,1.87a2.37,2.37,0,0,1-.15,2.25,13.61,13.61,0,0,0,1.42-2.26Z"/><path class="cls-27" d="M313.18,90.49a4.67,4.67,0,0,1,2.58-1.84c3.06-.82,5.58,2.07,8.47-.26-1.07.86-1.42,3-1.18,4.23a22.57,22.57,0,0,0,1.74,4.52,6.23,6.23,0,0,1,.55,4.07c2.52-3.48,4.24-8,3-12.28.3,1,1.32,1.08,2.18,1.08,1.62,0,4.87.19,5.66,1.87a2.37,2.37,0,0,1-.16,2.25,13.61,13.61,0,0,0,1.42-2.26,4,4,0,0,0-.68-4.11c-.77-1-3.17-2.68-4.47-2.1.43-.19,2.38-1.07,2.74-.38a5.21,5.21,0,0,0-6.7-2.39,12.66,12.66,0,0,0-2.16,2c-2-.85-4.05-2.25-6.25-1.56a4.66,4.66,0,0,0-2.8,2.45c1.15-1,4-1.46,5.1-.09-4-.33-6.91,1.64-9.06,4.82Z"/><path class="cls-28" d="M327,86.42l.14-.45c.09-.3.23-.66.39-1.09a15.34,15.34,0,0,1,.69-1.45,13.28,13.28,0,0,1,1-1.53,9.85,9.85,0,0,1,2.34-2.24,5.46,5.46,0,0,1,.86-.48l.33-.13,0,0a1.69,1.69,0,1,0-1.27-3.13l-.24.11-.5.3a11.35,11.35,0,0,0-1.16.91,12.5,12.5,0,0,0-2.58,3.3,15,15,0,0,0-.91,2c-.24.65-.41,1.26-.55,1.79s-.22,1-.25,1.28-.07.46-.07.46a.9.9,0,0,0,1.74.41Z"/><path class="cls-29" d="M325.26,86.61a2.11,2.11,0,0,1-1.14-2,2.66,2.66,0,0,1,1.16-2.17,2.93,2.93,0,0,0-.2,1.8,3.73,3.73,0,0,1,2.67-2.42c-.12.76-.25,1.52-.37,2.28l.59-.74-.3,1.4,1.39-1.09L329,84.81a3.53,3.53,0,0,1-.48,1.17,2.36,2.36,0,0,1-3.26.63Z"/><path class="cls-13" d="M367.29,120.54a18.89,18.89,0,0,1-34.6-15c3.34-9.6,14.62-14.39,24.87-9.92s14.46,16,9.73,25Z"/><path class="cls-14" d="M349.27,111.21a7.29,7.29,0,1,1-3.78-9.59,7.29,7.29,0,0,1,3.78,9.59Z"/><path class="cls-14" d="M345.49,101.62a2.43,2.43,0,1,1-1.26-3.19,2.42,2.42,0,0,1,1.26,3.19Z"/><path class="cls-26" d="M366.29,109.62a4,4,0,0,0,1-4c-.31-1.19-1.83-3.72-3.25-3.7a9.12,9.12,0,0,1,1.58.09,19.07,19.07,0,0,0-4.22-4.19,12.15,12.15,0,0,0-2.67.94c-1.45-1.57-2.81-3.68-5.11-3.93a4.66,4.66,0,0,0-3.54,1.13c1.46-.48,4.26.26,4.71,2-3.51-1.89-7-1.25-10.23.82a4.56,4.56,0,0,1,3.1-.66c3.14.46,4.3,4.11,7.88,3.13-1.32.36-2.5,2.17-2.78,3.4a23.82,23.82,0,0,0-.2,4.85,6.19,6.19,0,0,1-1.12,4c3.7-2.19,7.08-5.64,7.67-10.06-.15,1.08.78,1.51,1.57,1.86,1.48.66,4.39,2.11,4.44,4a2.38,2.38,0,0,1-1,2,12.8,12.8,0,0,0,2.2-1.51Z"/><path class="cls-27" d="M343.84,96.27a4.61,4.61,0,0,1,3.09-.66c3.14.46,4.3,4.12,7.88,3.14-1.32.36-2.5,2.16-2.77,3.4a22.38,22.38,0,0,0-.2,4.84,6.24,6.24,0,0,1-1.13,4c3.7-2.18,7.08-5.64,7.67-10.06-.15,1.09.78,1.52,1.57,1.87,1.48.65,4.39,2.11,4.44,4a2.4,2.4,0,0,1-1,2,13.92,13.92,0,0,0,2.21-1.51,4,4,0,0,0,1-4c-.31-1.19-1.83-3.73-3.25-3.71.47,0,2.61,0,2.66.74a5.19,5.19,0,0,0-5.2-4.85,11.91,11.91,0,0,0-2.76,1c-1.46-1.56-2.82-3.68-5.12-3.92a4.62,4.62,0,0,0-3.54,1.13c1.46-.49,4.26.26,4.72,1.95-3.52-1.89-7-1.25-10.23.81Z"/><path class="cls-28" d="M358.13,98l.3-.36c.2-.24.47-.51.79-.84a15.5,15.5,0,0,1,1.22-1.06,13.16,13.16,0,0,1,1.51-1,9.81,9.81,0,0,1,3-1.13,6.4,6.4,0,0,1,1-.1h.41a1.69,1.69,0,0,0,.08-3.38h-.26l-.58.08a9.2,9.2,0,0,0-1.42.36,12.69,12.69,0,0,0-3.69,2,15.16,15.16,0,0,0-1.61,1.45c-.48.5-.88,1-1.22,1.42s-.6.83-.74,1.07l-.25.4a.89.89,0,0,0,.27,1.24.91.91,0,0,0,1.17-.17Z"/><path class="cls-29" d="M356.46,97.53a2.13,2.13,0,0,1-.23-2.34,2.69,2.69,0,0,1,1.93-1.53,2.94,2.94,0,0,0-.9,1.57,3.71,3.71,0,0,1,3.41-1.15L359.43,96l.83-.44-.83,1.16,1.71-.44-.53,1.06a3.46,3.46,0,0,1-.91.88,2.35,2.35,0,0,1-3.24-.71Z"/><path class="cls-9" d="M350.57,145a68.48,68.48,0,0,1,12.62,10.44,69,69,0,0,1-12.62,10.44l2.5-10.44L350.57,145Z"/><path class="cls-9" d="M374.69,141.47l3.49,1.35L409,140s-1.32-6.84-3.38-10c-7.09-1.58-24.21-1.46-31,11.49Z"/><path class="cls-30" d="M359.8,155.39s16.76,18.68,37.44,18.68,37.44-18.68,37.44-18.68-16.76-18.68-37.44-18.68-37.44,18.68-37.44,18.68Z"/><path class="cls-9" d="M363.65,155.72A24.57,24.57,0,0,1,368.5,158c1.62.77,3.59,1.22,5.15.35,1.16-.65,2-2,3.32-2.12,1.15-.13,2.16.7,3.27,1a6.08,6.08,0,0,0,4.64-.89c1.4-.8,2.66-1.86,4.11-2.57a5.25,5.25,0,0,1,4.67-.26,16.16,16.16,0,0,0,2,1.23,4.84,4.84,0,0,0,2.95-.21c2.12-.6,4.28-1.65,6.49-1.09a8,8,0,0,1,4.8,3.51,18.62,18.62,0,0,0,3.4-3.17,6.43,6.43,0,0,0,1.45-4.32,6,6,0,0,0-2.14-3.93,11,11,0,0,0-4.06-2.07c-7-2.1-14.5,0-21.5,2.15l-22,6.66a10,10,0,0,0-3.19,1.21,27.46,27.46,0,0,0-2.39,2.54c1.44-.08,2.7-.68,4.18-.33Z"/><path class="cls-31" d="M397.24,136.71c-20.68,0-37.44,18.68-37.44,18.68l.49.52.22-.21a8.7,8.7,0,0,1,6.07-2.15,8.25,8.25,0,0,1,2.64.51c1.07.41,2.18,1,3.28.71,1.67-.5,2.25-2.94,4-3.25,1.25-.22,2.33.82,3.53,1.23,2.1.72,4.31-.54,6.09-1.85s3.7-2.83,5.91-2.68,4.39,2.19,6.72,1.89c2-.28,3.41-2.24,5.25-3.19,2.89-1.49,7.55-.21,7.56,3.46a18.68,18.68,0,0,1-.55,3.48,14.55,14.55,0,0,0,1.42,8.86c1.1,2.44,2.54,4.84,5,5.84a69.51,69.51,0,0,0,17.27-13.17s-16.76-18.68-37.44-18.68Z"/><path class="cls-32" d="M417.72,144.17s-.33.23-.92.6l-.49.3-.5.4a9.3,9.3,0,0,0-1.08,1,9.13,9.13,0,0,0-1.06,1.28,4.24,4.24,0,0,0-.46.77,5.75,5.75,0,0,0-.42.82c-.11.3-.25.58-.36.89s-.16.63-.26.94a13.25,13.25,0,0,0-.33,2,20.35,20.35,0,0,0-.1,2.07c.07.69,0,1.38.14,2s.15,1.32.28,1.94.25,1.2.36,1.75.28,1,.39,1.5.23.84.34,1.17c.2.65.3,1,.3,1s-.3-.26-.81-.75a7.09,7.09,0,0,1-.83-1,9.74,9.74,0,0,1-1-1.36,11,11,0,0,1-.9-1.75c-.14-.33-.27-.67-.42-1s-.2-.72-.31-1.1a15.67,15.67,0,0,1-.43-2.36,14.16,14.16,0,0,1,0-2.52,11.91,11.91,0,0,1,.52-2.51c.15-.4.31-.8.47-1.18s.42-.74.62-1.09a4.94,4.94,0,0,1,.71-1,5.27,5.27,0,0,1,.8-.83c.29-.25.56-.48.84-.69a7.75,7.75,0,0,1,.87-.5,5.57,5.57,0,0,1,1.61-.64l.69-.19.57,0c.69-.05,1.1-.05,1.1-.05Z"/><path class="cls-9" d="M422.78,154.42a3.15,3.15,0,1,1-3.15-3.15,3.15,3.15,0,0,1,3.15,3.15Z"/><path class="cls-8" d="M422.78,154.42a2.54,2.54,0,0,0-.14-.83,2.45,2.45,0,0,0-1.44-1.53,2.28,2.28,0,0,0-1.26-.12,2.25,2.25,0,0,0-1.16.55,2.47,2.47,0,0,0-.64.94l-.15.49a3.86,3.86,0,0,0-.05.57,3.07,3.07,0,0,0,.19.92,2.42,2.42,0,0,0,.65.94l.49.35.35.13.3.08a2.36,2.36,0,0,0,1.29-.13,2.43,2.43,0,0,0,1.43-1.53,2.54,2.54,0,0,0,.14-.83Zm0,0a3,3,0,0,1-.09.85,4,4,0,0,1-1.13,2,4.07,4.07,0,0,1-1.5.89,3,3,0,0,1-.51.12,2,2,0,0,1-.48.06,4,4,0,0,1-1.14-.12,3.9,3.9,0,0,1-2.05-1.34,4,4,0,0,1-.87-2.56,4.51,4.51,0,0,1,.22-1.26,4.42,4.42,0,0,1,.64-1.17,3.89,3.89,0,0,1,2.06-1.34,3.78,3.78,0,0,1,2.1.06,3.94,3.94,0,0,1,1.53.89,4,4,0,0,1,1.13,2,3,3,0,0,1,.09.85Z"/><path class="cls-9" d="M403.8,172.1s6.76-3.71,8-5.07,2.5.4,2.14,2.71a12.69,12.69,0,0,1-11.37,9.35c1.57-2.26,2.25-5.86,1.23-7Z"/><path class="cls-9" d="M369.24,151.51a.79.79,0,1,1-.79-.79.79.79,0,0,1,.79.79Z"/><path class="cls-9" d="M373,151.51a.79.79,0,1,1-.79-.79.79.79,0,0,1,.79.79Z"/><path class="cls-9" d="M374.22,149.59a.38.38,0,1,1-.37-.38.38.38,0,0,1,.37.38Z"/><path class="cls-9" d="M377.92,148.5a.72.72,0,1,1-.72-.72.71.71,0,0,1,.72.72Z"/><path class="cls-9" d="M379.88,150.34a.38.38,0,1,1-.38-.37.38.38,0,0,1,.38.37Z"/><path class="cls-9" d="M383.27,148.68a.91.91,0,1,1-.9-.9.9.9,0,0,1,.9.9Z"/><path class="cls-9" d="M386.06,149a.49.49,0,1,1-.49-.49.49.49,0,0,1,.49.49Z"/><path class="cls-9" d="M388.7,146.18a1.57,1.57,0,1,1-1.56-1.57,1.56,1.56,0,0,1,1.56,1.57Z"/><path class="cls-9" d="M391.87,146.63a.45.45,0,0,1-.45.45.45.45,0,0,1,0-.9.45.45,0,0,1,.45.45Z"/><path class="cls-9" d="M395,144.57a1.1,1.1,0,1,1-1.09-1.09,1.09,1.09,0,0,1,1.09,1.09Z"/><path class="cls-9" d="M398.58,147.31a1.13,1.13,0,1,1-1.13-1.13,1.13,1.13,0,0,1,1.13,1.13Z"/><path class="cls-9" d="M402.57,144.68a1.2,1.2,0,1,1-1.2-1.2,1.2,1.2,0,0,1,1.2,1.2Z"/><path class="cls-9" d="M407,144a.49.49,0,1,1-.49-.49.49.49,0,0,1,.49.49Z"/><path class="cls-9" d="M410.56,143a1.14,1.14,0,1,1-2.27,0,1.14,1.14,0,0,1,2.27,0Z"/><path class="cls-9" d="M412,145.79a.84.84,0,1,1-.84-.84.85.85,0,0,1,.84.84Z"/><path class="cls-33" d="M391.1,111.29c-.9-3,1.48-6.86,4.18-8.92,1.28-1,3.34-1.63,4.86-.75a18.93,18.93,0,0,1,4.87,4.8,32.84,32.84,0,0,0,3.44,3.88c3.89,3.56,8.11,3.63,12.59,3.69a74.57,74.57,0,0,0,14.89-1.8c6.4-1.22,12.45-2.37,18.5-1.3,17.27,3.07,25.69,20.65,31.64,37.44.7,2,1.32,3.7,1.82,5.38,2,6.78,1.84,11.38-5.06,14.85-9,4.54-20.52,6.19-32.4,4.64a62.09,62.09,0,0,1-14.34-3.63c-.33-.13-.69-.25-1-.38-1.14-.39-2.56-.87-2.85-1.56h0c-.33-1.12.27-4,.63-5.7.22-1,.41-1.95.49-2.63a14,14,0,0,1,1.2-5,3.37,3.37,0,0,1,2.87-1.95l1-3.63c-6.56-3.22-10.36-8.91-14.38-14.93-.77-1.15-1.54-2.31-2.34-3.47-3.46-5-9-11.83-17-13.7a37.47,37.47,0,0,0-4.42-.67c-2.93-.33-5.71-.64-7.58-2.32a5.12,5.12,0,0,1-1.55-2.33Z"/><path class="cls-30" d="M417.94,120.16l.7-.3a3.45,3.45,0,0,1-1.68-2.17c-3.2-1.17-6.25-3.13-9.57-3.91-2.74-.64-5.53-.49-8.19-1.51-5.63-2.14-5.5-8.47.42-10a3.06,3.06,0,0,1,1.51,0,9.72,9.72,0,0,0-1-.69c-1.52-.88-3.58-.23-4.86.75-2.7,2.06-5.08,5.89-4.18,8.92a5.12,5.12,0,0,0,1.55,2.33c1.87,1.68,4.65,2,7.58,2.32a37.47,37.47,0,0,1,4.42.67A24,24,0,0,1,416,123.43a3.19,3.19,0,0,1,1.94-3.27Z"/><path class="cls-34" d="M483.69,170.28c10.39-5.23,7.4-13.45,4.16-22.59-5.73-16.16-14.38-35.36-33.11-38.68-11.18-2-22.36,3.23-33.69,3.06-2.91,0-5.48-.1-7.85-1-1.89,2.63-2.33,6.69-2.56,10.35a38.64,38.64,0,0,1,9.44,10c5.18,7.48,9.15,14.95,17.46,19a5.16,5.16,0,0,0-4.69,2.93,15.49,15.49,0,0,0-1.42,5.69c-.26,2.22-1.84,7.27-1,9.32.76,1.81,3.23,2.32,5,3a64.55,64.55,0,0,0,14.77,3.74c11.14,1.45,23.39.26,33.49-4.82Z"/><path class="cls-11" d="M483.69,170.28a16.1,16.1,0,0,0,4-2.75c-3.87,2.27-8.43,3.28-13.26,4.17-5.86,1.08-13.42,2.66-19.08-.1-6.79-3.31-5.93-11.27-.7-14.92a14.89,14.89,0,0,1-3.92-11.09c.16-1.93,1.65-9.21,4.09-8.87-6.83-1-13.43-1.08-19.79-4.23A96.6,96.6,0,0,1,412.25,116a3.18,3.18,0,0,1-.75-1.06,36.06,36.06,0,0,0-.86,6.42,38.64,38.64,0,0,1,9.44,10c5.18,7.48,9.15,14.95,17.46,19a5.16,5.16,0,0,0-4.69,2.93,15.49,15.49,0,0,0-1.42,5.69c-.26,2.22-1.84,7.27-1,9.32.76,1.81,3.23,2.32,5,3a64.55,64.55,0,0,0,14.77,3.74c11.14,1.45,23.39.26,33.49-4.82Z"/><path class="cls-35" d="M427.77,123.68a1.44,1.44,0,1,1,1-1.79,1.43,1.43,0,0,1-1,1.79Z"/><path class="cls-35" d="M432,127.36a.66.66,0,0,1-.37-1.26.66.66,0,0,1,.81.45.65.65,0,0,1-.44.81Z"/><path class="cls-35" d="M435.11,124.09a1.24,1.24,0,1,1,.81-1.54,1.23,1.23,0,0,1-.81,1.54Z"/><path class="cls-35" d="M439,127.18a.66.66,0,0,1-.38-1.26.66.66,0,0,1,.81.45.65.65,0,0,1-.43.81Z"/><path class="cls-35" d="M441.92,131a1.06,1.06,0,0,1-1.32-.73,1.06,1.06,0,1,1,1.32.73Z"/><polygon class="cls-35" points="446.73 127.34 446.16 127.03 446.46 126.46 447.03 126.77 446.73 127.34 446.73 127.34"/><path class="cls-35" d="M449.33,123.41a.58.58,0,0,1-.73-.4.59.59,0,0,1,.39-.73.59.59,0,0,1,.34,1.13Z"/><path class="cls-35" d="M451.31,131.13a.9.9,0,0,1-.51-1.72.9.9,0,0,1,.51,1.72Z"/><path class="cls-35" d="M447.89,133.56a.67.67,0,0,1-.39-1.29.67.67,0,0,1,.39,1.29Z"/><path class="cls-35" d="M456.57,134.12a1.11,1.11,0,0,1-1.38-.75,1.13,1.13,0,0,1,.74-1.39,1.12,1.12,0,0,1,.64,2.14Z"/><path class="cls-35" d="M458.15,129.1a1.4,1.4,0,1,1,.92-1.73,1.4,1.4,0,0,1-.92,1.73Z"/><path class="cls-35" d="M463.2,135.57a1.64,1.64,0,1,1,1.08-2,1.63,1.63,0,0,1-1.08,2Z"/><path class="cls-35" d="M458.72,138.58a.8.8,0,0,1-.46-1.54.78.78,0,0,1,1,.54.79.79,0,0,1-.52,1Z"/><path class="cls-35" d="M458.19,146.37a2,2,0,1,1,1.3-2.44,2,2,0,0,1-1.3,2.44Z"/><path class="cls-35" d="M454.29,145.48a1.58,1.58,0,1,1,1-1.95,1.57,1.57,0,0,1-1,1.95Z"/><path class="cls-35" d="M456.87,150.73a.59.59,0,1,1,.38-.73.58.58,0,0,1-.38.73Z"/><path class="cls-35" d="M463.15,145.57a.65.65,0,0,1-.38-1.25.64.64,0,0,1,.81.44.65.65,0,0,1-.43.81Z"/><path class="cls-35" d="M467.51,147.56a2.23,2.23,0,1,1,1.47-2.77,2.22,2.22,0,0,1-1.47,2.77Z"/><path class="cls-35" d="M463.47,153.08a1.22,1.22,0,1,1,.79-1.51,1.21,1.21,0,0,1-.79,1.51Z"/><path class="cls-35" d="M457.47,160a1.11,1.11,0,0,1-1.37-.76,1.1,1.1,0,1,1,1.37.76Z"/><path class="cls-35" d="M464.57,161.61a1.79,1.79,0,1,1,1.18-2.22,1.78,1.78,0,0,1-1.18,2.22Z"/><path class="cls-35" d="M459.61,164.84a.84.84,0,0,1-.48-1.61.84.84,0,0,1,.48,1.61Z"/><path class="cls-35" d="M456.67,167.63a1.34,1.34,0,1,1,.88-1.66,1.33,1.33,0,0,1-.88,1.66Z"/><path class="cls-35" d="M464.41,171.07a2,2,0,1,1,1.3-2.44,2,2,0,0,1-1.3,2.44Z"/><path class="cls-35" d="M470.23,171.12a1.19,1.19,0,1,1,.77-1.47,1.19,1.19,0,0,1-.77,1.47Z"/><path class="cls-35" d="M468.32,167a1.1,1.1,0,1,1,.72-1.36,1.08,1.08,0,0,1-.72,1.36Z"/><path class="cls-35" d="M422.63,123a.72.72,0,1,1,.48-.9.72.72,0,0,1-.48.9Z"/><path class="cls-20" d="M276.33,106.6c-14.49-4-43.64-6.29-58.11-3.23l-1.53-4.66c15.7-3.31,46-.93,61.58,3.33l-1.94,4.56Z"/><path class="cls-20" d="M282.05,110.48c-14.61-4-44.05-6.34-58.69-3.25l-1-3.1c15.54-3.29,45.55-.92,61,3.3l-1.29,3Z"/><path class="cls-20" d="M288.52,109c-12.86-6.75-40.45-14.84-55.63-14.84h-.21l0-3.21h.23c16.11,0,44.24,8.23,57.83,15.36l-2.2,2.69Z"/><path class="cls-6" d="M268.77,115.28c-11.64-3.59-1.49-26.26,10.57-21.75,7.55,2.83,67.39,28.31,66.22,31.59s-67.48-7-76.79-9.84Z"/><path class="cls-7" d="M340.15,123.79c-9.59-2.88-20.57-3.54-30.47-6-6.17-1.52-12.28-3.23-18.37-4.93-4.85-1.36-9.91-3.63-15.08-3.93-5.82-.34-9.67-3-11.56-6.41-2,5.27-1.31,11.06,4.1,12.73,9.31,2.87,75.61,13.12,76.79,9.84.05-.15-.07-.37-.27-.62a16.13,16.13,0,0,1-5.14-.71Z"/><path class="cls-7" d="M280.45,113.06l3.83.89c-2.24-.52,1.31-7.52,1.72-8.31-1.41,1.11-3.62,2.33-4.52,3.74a21.34,21.34,0,0,0-1,3.68Z"/><path class="cls-7" d="M307.87,112.78c-1.74,1.45-1.62,4-2.59,5.72-1.9-1.9,1-4.41,2.59-5.72Z"/><path class="cls-7" d="M299.4,104.65c-.81.47-3,4.22-3.69,3.83-1.19-.66,3-3.43,3.69-3.83Z"/><path class="cls-7" d="M273.51,105.17c.64-1.59,2.89-2.82,3.67-4.37-2-.75-3.24,3.3-3.67,4.37Z"/><path class="cls-7" d="M321,112.19l-.23.2a26.1,26.1,0,0,0-2.23,2.37c-.31-1,1.68-2,2.46-2.57Z"/><path class="cls-7" d="M309.35,116.37l.79,0a6.27,6.27,0,0,0,2.1-3.1c-1.13-.37-3.23,2.72-2.89,3.05Z"/><path class="cls-7" d="M305.42,105c.13,1-.81,1.9-1.69,2.64-.33.29-2.76,2.79-2.71,1.32,0-.94,1.86-2,2.67-2.57.39-.24,1.79-.9,1.73-1.39Z"/><path class="cls-7" d="M287.36,97.61c-.91.5-3.48,4.76-4.49,4s3.72-3.59,4.49-4Z"/><path class="cls-20" d="M266.64,122.64c-13.51-5.76-41.83-11.77-56.73-10.6l-.58-4.8c16.16-1.26,45.59,5,60.13,11.14l-2.82,4.26Z"/><path class="cls-20" d="M271.52,127.2c-13.64-5.81-42.23-11.87-57.3-10.69l-.39-3.2c16-1.25,45.16,4.91,59.57,11.06l-1.88,2.83Z"/><path class="cls-20" d="M278.2,126.56c-11.35-8.3-37-19.81-52-21.74l-.2,0,.61-3.18.23,0c15.9,2.06,42,13.77,54,22.55l-2.7,2.37Z"/><path class="cls-6" d="M257.45,130.25c-10.78-5,3.74-26.11,14.75-20.12,6.9,3.75,60.92,36.55,59.11,39.64s-65.24-15.5-73.86-19.52Z"/><path class="cls-7" d="M326.23,147.76c-8.89-4.07-19.6-6.12-28.89-9.78-5.79-2.28-11.49-4.75-17.16-7.22-4.52-2-9.06-4.83-14.1-5.79-5.68-1.08-8.95-4.24-10.15-7.81-3,4.94-3.49,10.75,1.52,13.09,8.62,4,72.05,22.61,73.86,19.52.08-.15,0-.38-.14-.65a15.42,15.42,0,0,1-4.94-1.36Z"/><path class="cls-7" d="M269.42,129.55l3.61,1.37c-2.11-.81,2.79-7.27,3.35-8-1.62.92-4,1.84-5.21,3.12a24.71,24.71,0,0,0-1.75,3.5Z"/><path class="cls-7" d="M296.55,132.77c-2,1.21-2.4,3.79-3.69,5.32-1.5-2.12,1.87-4.22,3.69-5.32Z"/><path class="cls-7" d="M289.8,123.66c-.89.37-3.76,3.8-4.4,3.31-1-.8,3.65-3,4.4-3.31Z"/><path class="cls-7" d="M264.14,120.87c.95-1.48,3.41-2.42,4.49-3.84-1.86-1-3.85,2.85-4.49,3.84Z"/><path class="cls-7" d="M309.67,133.87l-.27.17a27.27,27.27,0,0,0-2.66,2.06c-.12-1,2-1.73,2.93-2.23Z"/><path class="cls-7" d="M297.3,136.51l.77.15a7,7,0,0,0,2.69-2.8c-1-.51-3.73,2.28-3.46,2.65Z"/><path class="cls-7" d="M295.68,124.76c-.07,1-1.17,1.77-2.19,2.4-.39.23-3.28,2.39-2.94,1,.22-.93,2.24-1.79,3.15-2.19.43-.2,1.95-.67,2-1.16Z"/><path class="cls-7" d="M279.32,115.18c-1,.37-4.39,4.25-5.23,3.38s4.38-3.07,5.23-3.38Z"/><path class="cls-36" d="M217,84.8a4.34,4.34,0,0,1-3.47,1.94,4.18,4.18,0,0,1-4.13-4.13V82.5l.07-.68-15.26-6.06L180.14,86.23c.4,2.3-.9,5-3.91,5a4.1,4.1,0,0,1-2-.53l-10.69,8C166,100.73,165.2,106,161,106a3.75,3.75,0,0,1-3.76-2.7L142.87,114a4,4,0,0,1-3.93,4.82,4.09,4.09,0,0,1-1.92-.46l-4.58,3.4L238,93.15,217,84.8Z"/><path class="cls-8" d="M237.71,101.94l.31-8.79L132.44,121.72l.22,4.85a2,2,0,0,1,1.19,1.88v.25a2,2,0,0,1-1,1.77v0a5.57,5.57,0,0,1,.35,7.77l.19,4.18h.06c3.85,0,3.9,5.81.22,6.06l.13,2.88c5,1,5.14,8.58.45,10l.08,1.68a2.18,2.18,0,0,1,3.35,1.79v.26A2.17,2.17,0,0,1,134.5,167l.41,9,101-22.87.19-5.52a2.19,2.19,0,0,1,.15-4.16l.34-9.73-.1,0c-2.82,0-2.82-4.38,0-4.38l.25.05.06-1.47a4.26,4.26,0,0,1-3.16-4v-.25a4.13,4.13,0,0,1,3.45-4l.29-8.34a3.77,3.77,0,0,1-2.92,1.23c-5.32,0-5.31-8.26,0-8.26a4,4,0,0,1,1.79.4,2.16,2.16,0,0,1,1.46-2.67Z"/><path class="cls-8" d="M181.17,102.2c0,1.91-3.39,3.46-7.58,3.46S166,104.11,166,102.2s3.39-3.45,7.57-3.45,7.58,1.54,7.58,3.45Z"/><path class="cls-8" d="M161.75,108.5c0,.62-1.05,1.14-2.34,1.14s-2.34-.52-2.34-1.14,1.05-1.15,2.34-1.15,2.34.52,2.34,1.15Z"/><path class="cls-8" d="M170,108.27c0,.5-.89.91-2,.91s-2-.41-2-.91.88-.92,2-.92,2,.41,2,.92Z"/><path class="cls-8" d="M199.71,92c0,1.67-3.44,3-7.69,3s-7.7-1.35-7.7-3,3.45-3,7.7-3,7.69,1.35,7.69,3Z"/><path class="cls-8" d="M205.64,87.06c0,.63-1.33,1.14-3,1.14s-3-.51-3-1.14,1.33-1.14,3-1.14,3,.51,3,1.14Z"/><path class="cls-8" d="M193.1,99.2c0,.66-1.25,1.2-2.79,1.2s-2.8-.54-2.8-1.2,1.25-1.19,2.8-1.19,2.79.53,2.79,1.19Z"/><path class="cls-8" d="M225.25,92c0,1.67-3.34,3-7.47,3s-7.46-1.35-7.46-3,3.34-3,7.46-3,7.47,1.35,7.47,3Z"/><path class="cls-8" d="M197.43,81.87c0,.48-.84.86-1.88.86s-1.88-.38-1.88-.86.84-.85,1.88-.85,1.88.38,1.88.85Z"/><path class="cls-8" d="M208.15,97.15c0,.47-.89.86-2,.86s-2-.39-2-.86.89-.85,2-.85,2,.38,2,.85Z"/><path class="cls-8" d="M151.48,113.4c0,.69-1.12,1.25-2.5,1.25s-2.51-.56-2.51-1.25,1.12-1.26,2.51-1.26,2.5.57,2.5,1.26Z"/><path class="cls-6" d="M171.36,137.44c0-4.75,3.39-8.61,7.58-8.61s7.59,3.86,7.59,8.61-3.4,8.6-7.59,8.6-7.58-3.85-7.58-8.6Z"/><path class="cls-6" d="M219,106a3.39,3.39,0,1,1,3.36,3.81A3.61,3.61,0,0,1,219,106Z"/><path class="cls-6" d="M150.24,151.51c0-3.86,2.76-7,6.17-7s6.16,3.13,6.16,7-2.76,7-6.16,7-6.17-3.13-6.17-7Z"/><path class="cls-6" d="M206.23,148.42c0-4.08,2.91-7.39,6.51-7.39s6.51,3.31,6.51,7.39-2.91,7.39-6.51,7.39-6.51-3.31-6.51-7.39Z"/><path class="cls-6" d="M177.86,161.13a2.33,2.33,0,1,1,2.31,2.63,2.48,2.48,0,0,1-2.31-2.63Z"/><path class="cls-6" d="M187.51,114.65a3.66,3.66,0,1,1,3.64,4.12,3.91,3.91,0,0,1-3.64-4.12Z"/><path class="cls-6" d="M155.81,131.35c0-3.29,2.36-6,5.26-6s5.25,2.67,5.25,6-2.35,6-5.25,6-5.26-2.67-5.26-6Z"/><path class="cls-6" d="M137.39,146.53a1.67,1.67,0,1,1,1.66,1.89,1.79,1.79,0,0,1-1.66-1.89Z"/><path class="cls-6" d="M147.32,159.52a2.91,2.91,0,1,1,2.89,3.27,3.09,3.09,0,0,1-2.89-3.27Z"/><path class="cls-6" d="M214.94,119.92c0-3.66,2.61-6.62,5.84-6.62s5.83,3,5.83,6.62-2.61,6.62-5.83,6.62-5.84-3-5.84-6.62Z"/><path class="cls-6" d="M220.78,143.05a3.09,3.09,0,1,1,3.06,3.48,3.29,3.29,0,0,1-3.06-3.48Z"/><path class="cls-6" d="M137.91,128.83a3.31,3.31,0,1,1,3.28,3.73,3.52,3.52,0,0,1-3.28-3.73Z"/><path class="cls-6" d="M198.25,131a2.43,2.43,0,1,1,2.41,2.73,2.59,2.59,0,0,1-2.41-2.73Z"/><path class="cls-6" d="M206.6,118.13a3.09,3.09,0,1,1,3.07,3.48,3.3,3.3,0,0,1-3.07-3.48Z"/><path class="cls-6" d="M184.45,141.17a3.09,3.09,0,1,1,3.06,3.47,3.29,3.29,0,0,1-3.06-3.47Z"/><path class="cls-6" d="M170.53,159.72a3.09,3.09,0,1,1,3.06,3.48,3.29,3.29,0,0,1-3.06-3.48Z"/><path class="cls-6" d="M165,123.78a1.82,1.82,0,1,1,1.81,2,1.95,1.95,0,0,1-1.81-2Z"/><path class="cls-8" d="M388.65,168.59c0,24.37-39.6,44.13-88.45,44.13S211.74,193,211.74,168.59s39.61-44.13,88.46-44.13,88.45,19.75,88.45,44.13Z"/><path class="cls-6" d="M300.2,124.46c-1,0-2.05,0-3.07,0,47,.8,84.48,15.79,84.48,34.18,0,18.89-39.6,34.22-88.45,34.22-36.27,0-67.42-8.45-81.07-20.53,3.85,22.6,41.81,40.35,88.11,40.35,48.85,0,88.45-19.76,88.45-44.13s-39.6-44.13-88.45-44.13Z"/><path class="cls-6" d="M240.14,163.85c.55,3,1,4.74,1,4.74s.82-1.61,1.95-4.44c.59-1.39,1.16-3.21,2-5s1.66-3.94,2.6-6.16c1.09-2.2,2.07-4.62,3.26-7.06s2.38-5,3.93-7.48c.76-1.23,1.39-2.55,2.16-3.81s1.64-2.45,2.41-3.72a12.77,12.77,0,0,1,1.21-1.79,119,119,0,0,0-18.93,6.36c-.7,2.39-1.13,4.77-1.65,7-.55,3-.72,6-.95,8.6-.07,2.7,0,5.19.16,7.34a37.3,37.3,0,0,0,.77,5.45Z"/><path class="cls-6" d="M304.87,174.46c.1,1,.15,1.56.15,1.56l.86-1.31c.52-.87,1.38-2.12,2.27-3.76s2.06-3.6,3.23-5.91,2.78-4.56,4.25-7.15,3.23-5.34,5-8.25c.95-1.42,1.66-3,2.72-4.43s2-3,3-4.48c1.86-3.12,4.3-6,6.4-9.13a37.39,37.39,0,0,1,2.7-3.49,160,160,0,0,0-19.31-2.93c-.4.72-.83,1.44-1.22,2.15a42.21,42.21,0,0,0-2.73,5.68,73.85,73.85,0,0,0-4.09,11.12,71.08,71.08,0,0,0-2.4,10.34c-.5,3.28-.89,6.26-1.12,8.87-.05,2.58,0,4.86.08,6.74s.18,3.37.22,4.38Z"/><path class="cls-6" d="M275.72,126.18v0l-1.47,2.61c-.45.89-.79,1.81-1.18,2.7-.75,1.79-1.49,3.55-2.15,5.32a34.73,34.73,0,0,0-1.65,5.23c-.44,1.74-.91,3.42-1.27,5.08a65.84,65.84,0,0,0-1.42,9.48,52.81,52.81,0,0,0-.37,8c.07,2.33.27,4.39.4,6.08s.35,3,.45,4,.22,1.41.22,1.41l.79-1.18c.47-.79,1.26-1.92,2.07-3.4s1.87-3.27,2.91-5.35,2.38-4.27,3.67-6.66,2.46-5,4.12-7.58,2.93-5.51,4.7-8.21,3.27-5.67,5.28-8.27c.92-1.36,1.91-2.68,2.78-4.09l3.07-3.83,1.49-2,1-1a172.1,172.1,0,0,0-23.39,1.71Z"/><path class="cls-6" d="M351.36,132.6c-.76,1.65-1.44,3.31-2,5a64.45,64.45,0,0,0-2.8,9c-.34,1.46-.73,2.85-1,4.24s-.45,2.77-.6,4.08a67.08,67.08,0,0,0-.64,7.09c0,2.09.08,3.94.13,5.47s.21,2.74.27,3.56.15,1.29.15,1.29l.84-1c.5-.65,1.34-1.58,2.19-2.82s2-2.73,3.13-4.48l3.84-5.6c1.3-2,2.7-4.22,4.26-6.49s3-4.74,4.63-7.14c.82-1.2,1.6-2.45,2.37-3.71.32-.45.63-.92.95-1.37a95.36,95.36,0,0,0-15.7-7.11Z"/><path class="cls-36" d="M243,164.13c.46-1.4.86-3.23,1.56-5.1s1.39-4,2.15-6.32l2.88-7.29c1.21-2.49,2.25-5.18,3.69-7.76.7-1.3,1.34-2.66,2.11-4s1.61-2.5,2.36-3.81q-4.11,1.13-7.93,2.46c-.49,1.06-.95,2.13-1.43,3.17a85.41,85.41,0,0,0-3.18,8.53c-.86,2.76-1.42,5.44-2.07,7.88-.49,2.48-.83,4.77-1.19,6.79s-.42,3.8-.6,5.26c-.27,2.92-.43,4.59-.43,4.59l.61.06s.59-1.63,1.47-4.49Z"/><path class="cls-36" d="M358.59,135.46l-.66,1.13q-1.08,2.15-2.11,4.23c-1.46,2.74-2.6,5.52-3.69,8.14l-1.6,3.82-1.3,3.64c-.81,2.34-1.62,4.48-2.17,6.4s-1,3.62-1.41,5c-.78,2.77-1.23,4.35-1.23,4.35l.87.27s1.12-1.38,2.77-3.89c.82-1.26,1.85-2.77,2.86-4.56s2.39-3.59,3.58-5.7c2.48-4.09,5.42-8.92,8.52-13.85l2.34-3.78c.33-.45.63-.92.95-1.37a84.09,84.09,0,0,0-7.72-3.83Z"/><path class="cls-36" d="M306.23,174.8c.47-.88,1.28-2.14,2.09-3.8s1.92-3.65,3-6c1.24-2.2,2.67-4.6,4-7.26s3.14-5.38,4.77-8.37,3.7-5.91,5.58-9,4.35-6,6.36-9.25a29.9,29.9,0,0,1,2.4-3.22c-3.14-.66-6.38-1.22-9.68-1.69a115.52,115.52,0,0,0-6.15,10.3,93,93,0,0,0-4.89,10.1A90.4,90.4,0,0,0,310,156c-1,3-1.85,5.68-2.62,8.09-.58,2.45-1.09,4.59-1.5,6.35-.83,3.51-1.3,5.53-1.3,5.53l.88.22.77-1.34Z"/><path class="cls-36" d="M285.89,125l-.43.57-2.93,4.73c-2.09,3.06-3.41,6.45-5,9.55s-2.56,6.39-3.78,9.34-1.89,6-2.74,8.61a69.23,69.23,0,0,0-2,7.36c-.46,2.21-.85,4.14-1.18,5.73l-1,5,.89.19.7-1.21c.43-.79,1.17-1.93,1.9-3.43s1.72-3.3,2.64-5.41,2.26-4.3,3.4-6.74l1.88-3.74c.6-1.29,1.24-2.63,2-4l2.25-4.11c.79-1.38,1.39-2.88,2.3-4.23,1.7-2.76,3.31-5.71,5.24-8.4l2.76-4.17,3.15-3.85,1.49-2,.36-.39c-4,.05-8,.24-11.91.55Z"/><path class="cls-36" d="M234.34,176.56a1.46,1.46,0,1,1-1.46-1.46,1.46,1.46,0,0,1,1.46,1.46Z"/><path class="cls-36" d="M242.11,176.56a1.46,1.46,0,1,1-1.46-1.46,1.47,1.47,0,0,1,1.46,1.46Z"/><path class="cls-36" d="M246,182.6a1.46,1.46,0,1,1-1.46-1.46A1.46,1.46,0,0,1,246,182.6Z"/><path class="cls-36" d="M253.05,179.27a1.88,1.88,0,1,1-1.88-1.88,1.88,1.88,0,0,1,1.88,1.88Z"/><path class="cls-36" d="M253.25,185.1a1,1,0,1,1-2.08,0,1,1,0,0,1,2.08,0Z"/><path class="cls-36" d="M260.74,186a1.95,1.95,0,1,1-1.95-1.94,1.95,1.95,0,0,1,1.95,1.94Z"/><path class="cls-36" d="M266.64,181.66a2.4,2.4,0,1,1-2.39-2.39,2.39,2.39,0,0,1,2.39,2.39Z"/><path class="cls-36" d="M277.06,189.3a1.36,1.36,0,1,1-1.35-1.35,1.35,1.35,0,0,1,1.35,1.35Z"/><path class="cls-36" d="M282.31,180.12a2.11,2.11,0,1,1-2.1-2.1,2.1,2.1,0,0,1,2.1,2.1Z"/><path class="cls-36" d="M285.82,187.74a1.6,1.6,0,1,1-1.6-1.6,1.6,1.6,0,0,1,1.6,1.6Z"/><path class="cls-36" d="M294.57,186.77a1.67,1.67,0,1,1-1.67-1.67,1.67,1.67,0,0,1,1.67,1.67Z"/><path class="cls-36" d="M299.11,178.83a2.27,2.27,0,1,1-2.27-2.27,2.27,2.27,0,0,1,2.27,2.27Z"/><path class="cls-36" d="M308.53,187.05a1,1,0,1,1-1-1.05,1,1,0,0,1,1,1.05Z"/><path class="cls-36" d="M318.33,185.42a1.36,1.36,0,1,1-1.36-1.36,1.36,1.36,0,0,1,1.36,1.36Z"/><path class="cls-36" d="M320.83,181.37a1.25,1.25,0,1,1-1.25-1.25,1.25,1.25,0,0,1,1.25,1.25Z"/><path class="cls-36" d="M334.39,178.75a2.2,2.2,0,1,1-2.2-2.19,2.19,2.19,0,0,1,2.2,2.19Z"/><path class="cls-36" d="M342.5,183a1.67,1.67,0,1,1-1.67-1.67A1.66,1.66,0,0,1,342.5,183Z"/><polygon class="cls-36" points="349.59 178.64 348.96 179.27 348.34 178.64 348.96 178.01 349.59 178.64 349.59 178.64"/><path class="cls-36" d="M359,177.6a2.5,2.5,0,1,1-2.5-2.5,2.5,2.5,0,0,1,2.5,2.5Z"/><path class="cls-36" d="M366.31,172a1.28,1.28,0,1,1-1.27-1.28,1.28,1.28,0,0,1,1.27,1.28Z"/><path class="cls-14" d="M223.07,174.28a23.4,23.4,0,0,1-46.72,0c-.94-12.55,9.51-23.55,23.36-23.55s24.3,11,23.36,23.55Z"/><path class="cls-13" d="M206,151.55a4.71,4.71,0,0,0-.6-.18,25.39,25.39,0,0,0-5.69-.64c-3.51,0-18.43,2.37-13.88,8.59a7.73,7.73,0,0,0,4,2.52,17.8,17.8,0,0,0,13.85-1c2.35-1.23,5.52-2.77,8.24-1.64,3.39,1.41,4,6.67,4,9.86a19.67,19.67,0,0,1-39.33.74,21.18,21.18,0,0,0-.15,4.44,23.4,23.4,0,0,0,46.72,0c.79-10.56-6.49-20-17.07-22.73Z"/><path class="cls-37" d="M196,155.84l-.11-.57c-.06-.38-.19-.85-.33-1.39a16.42,16.42,0,0,0-.65-1.89,15.78,15.78,0,0,0-1-2,12,12,0,0,0-2.57-3.08,8.22,8.22,0,0,0-1-.72L190,146l-.06,0a2.09,2.09,0,1,1,2-3.68l.27.18.58.44a12.24,12.24,0,0,1,1.31,1.27,15.66,15.66,0,0,1,2.71,4.42,19.58,19.58,0,0,1,.84,2.56,22.41,22.41,0,0,1,.42,2.27c.08.69.14,1.26.14,1.61s0,.58,0,.58a1.11,1.11,0,0,1-2.2.26Z"/><path class="cls-20" d="M204.93,148.76c2.59-1.51,5.64-1,8.54-1,1.19,0,6.73-.29,6.93-2.15-.46,4.21-2.33,9.83-6.88,10.92a18.77,18.77,0,0,1-6.39.08l-8.94-.89a20.45,20.45,0,0,1,5.91-6.44c.28-.2.56-.37.83-.53Z"/><path class="cls-38" d="M184.58,163.4a1.19,1.19,0,1,1-1.19-1.19,1.19,1.19,0,0,1,1.19,1.19Z"/><path class="cls-38" d="M186.64,168.33a1.23,1.23,0,1,1-1.23-1.22,1.23,1.23,0,0,1,1.23,1.22Z"/><path class="cls-38" d="M184,168.67a.9.9,0,1,1-.9-.9.89.89,0,0,1,.9.9Z"/><path class="cls-38" d="M189.52,173.27a2.06,2.06,0,1,1-2.06-2.06,2.05,2.05,0,0,1,2.06,2.06Z"/><path class="cls-38" d="M190.54,170.25a.7.7,0,1,1-.69-.69.69.69,0,0,1,.69.69Z"/><path class="cls-38" d="M183.86,172.94a1.2,1.2,0,1,1-1.2-1.2,1.2,1.2,0,0,1,1.2,1.2Z"/><path class="cls-38" d="M194.71,173.66a1.26,1.26,0,1,1-1.25-1.25,1.25,1.25,0,0,1,1.25,1.25Z"/><path class="cls-38" d="M198.19,171.86a.91.91,0,1,1-.91-.91.91.91,0,0,1,.91.91Z"/><path class="cls-38" d="M191.67,177.16a.91.91,0,1,1-1.82,0,.91.91,0,1,1,1.82,0Z"/><path class="cls-39" d="M381.08,175.79a14.79,14.79,0,0,1,2.8-4.09,4,4,0,0,1,3.24-1.27c1.41.34,1.7,2,1.23,3.18a24,24,0,0,1,5.17-7.73,11,11,0,0,1,4-2.43c1.91-.63,3-.08,3.08,2,0-.56,1.54-1.89,1.92-2.26a16.17,16.17,0,0,1,2.59-2.08c1.43-.92,8.66-4.27,8.37-.09.06-.9,3.79-1.92,4.49-2.07a5.69,5.69,0,0,1,4.77.94,3.37,3.37,0,0,1,.68,4.69c2.24-.22,3.74,2.63,3.11,4.78s-2.55,3.63-4.36,5c-4.53,3.33-9,6.62-13.2,10.29-3.35,2.92-9.34,3.43-13.61,4.08a78.37,78.37,0,0,1-16.05.78,75.42,75.42,0,0,1-8.21-.87c-2.17-.35-5.09-1.65-7.23-1.52A21.06,21.06,0,0,0,377.19,181a20.35,20.35,0,0,0,3.89-5.17Z"/><path class="cls-39" d="M380.1,203a14.78,14.78,0,0,0,2.94,4,4,4,0,0,0,3.29,1.15c1.39-.38,1.62-2,1.12-3.21a23.8,23.8,0,0,0,5.44,7.52,10.78,10.78,0,0,0,4.08,2.29c1.94.56,3,0,3-2.06,0,.55,1.61,1.83,2,2.19a16.63,16.63,0,0,0,2.67,2c1.46.87,8.8,4,8.37-.21.09.89,3.85,1.78,4.56,1.9a5.61,5.61,0,0,0,4.73-1.12,3.35,3.35,0,0,0,.51-4.7c2.24.14,3.64-2.77,2.93-4.89s-2.68-3.54-4.53-4.8c-4.65-3.16-9.23-6.28-13.57-9.8-3.46-2.8-9.46-3.09-13.75-3.58a78.46,78.46,0,0,0-16.07-.2,80.33,80.33,0,0,0-8.17,1.17c-2.16.43-5,1.83-7.17,1.78A21.12,21.12,0,0,1,376,198a20.43,20.43,0,0,1,4.08,5Z"/><path class="cls-28" d="M396.3,202.58a14.48,14.48,0,0,1-6.37-1,17.4,17.4,0,0,1-4.49-2.84c-1.37-1.08-2.43-2.7-4.06-3.42a25.32,25.32,0,0,0-5.85-1.25c-5.62-1-11.51-3.89-16.92-5.72,2.05.69,6.26-.56,8.38-.88,4.33-.65,8.86-1.25,12.84-3.32a53.82,53.82,0,0,0,6.36-3.93c1.79-1.29,3.72-2.12,5.91-1.14a12.51,12.51,0,0,1,8.15-6.89c1.36-.36,3.07-.35,3.87.81-.51-.74,4.07-3.23,4.6-3.42a32.38,32.38,0,0,1,5.28-1.85,3.92,3.92,0,0,1,3,.29c.84.58,1,2.09.09,2.52a19.5,19.5,0,0,1,9.77-3.1,6.27,6.27,0,0,1,4.33,1.09c1.16,1,1.47,3,.27,4,1.18-.92,4.17-.64,5.54-.48a14.53,14.53,0,0,1,12.51,11.76c.86,3.58-.21,7.44-3.84,9a8,8,0,0,1-12.14,5.38,9,9,0,0,1-15,3.73,12.48,12.48,0,0,1-18-.32,13.39,13.39,0,0,1-4.17,1Z"/><path class="cls-40" d="M359.39,203.9a130.4,130.4,0,0,1,21.54-4.72c3.25-.47,14.62-1.32,14.7-5.4.09-4.82-20.6-1.89-23.48-1.74a64.48,64.48,0,0,1-9.72.19c-2.7-.27-5.62-1.19-8.3-.19-3.16,1.19-3.78,6.22-2.69,9a5.46,5.46,0,0,0,3.5,3.42,8.26,8.26,0,0,0,4.45-.56Z"/><path class="cls-8" d="M355.67,196.76c-.29-1.72-1.19-3.08-2.88-2.7-1.85.42-2.24,2.55-2.36,4.18a4.53,4.53,0,0,0,.81,3,2.4,2.4,0,0,0,3.3.66c1-.8,1.46-3.21,1.13-5.17Z"/><path class="cls-41" d="M422.86,186c1-.65,1.94-1.36,2.93-2a74.06,74.06,0,0,1,13.63-6.57,53,53,0,0,1,14.72-3.19,42.6,42.6,0,0,1,7.39.15c2.44.28,4.76,1.31,7.22,1.41A51,51,0,0,0,449.6,179l-20.73,7.33a35.76,35.76,0,0,0,18-.16c-10.92,4-22.36,4.27-33.82,4.13a63.39,63.39,0,0,1,6.68-2.63,12.38,12.38,0,0,0,3.13-1.61Z"/><path class="cls-41" d="M438.37,168a53,53,0,0,1-26,19.5,68.29,68.29,0,0,1-16.25,3.25c-5.34.48-10.88-.1-16.15.58,15.55-5.24,30.89-10.91,45.9-17.56,2.15-1,4.3-1.93,6.43-2.92,1.39-.64,5.21-1.63,6.06-2.85Z"/><path class="cls-41" d="M413.66,194.74A104.13,104.13,0,0,0,425.5,194,89.49,89.49,0,0,0,456,183.58c-1.63.89-3.17,3-4.61,4.28-1.68,1.42-3.42,2.78-5.22,4.06a62.69,62.69,0,0,1-24.59,10.86c-9.85,1.84-20.49.61-30.2-1.48q-4.12-.9-8.16-2.13c-1.4-.43-2.78-.9-4.16-1.39-.94-.33-2.5-1.33-3.47-1.32,3.56,0,7.13.18,10.69.07,5.23-.16,10.48-1.09,15.71-1.43,3.9-.25,7.81-.27,11.71-.36Z"/><path class="cls-42" d="M398.63,188.08c12.07-3.09,24.16-6.19,36.5-7.93,14.58-2.07,29.88-1.59,44.66-2.1a97.87,97.87,0,0,0-26,3.91c-8.6,2.47-16.67,6.28-25,9.33a84.41,84.41,0,0,1-30.1,5.08,81.84,81.84,0,0,1-12.7-1.18c-3.49-.6-7.92-2.47-11.48-1.84,8.2-1.45,16.07-3.2,24.12-5.27Z"/><circle class="cls-43" cx="285.03" cy="282.85" r="70.41" transform="translate(-76.91 108.93) rotate(-19.11)"/><circle class="cls-44" cx="285.03" cy="282.85" r="67.95" transform="translate(-116.53 284.39) rotate(-45)"/><circle class="cls-45" cx="285.03" cy="282.85" r="67.95" transform="translate(-116.53 284.39) rotate(-45)"/><path class="cls-46" d="M230.05,242.9l4.46-1.17c-5.21,9.53-7.12,26-7.12,26-4.44,7.78-10.06,21.15-10.06,21.15S214.46,266.22,230.05,242.9Z"/><path class="cls-46" d="M225.72,316A80.76,80.76,0,0,0,242,326.11s6.44,10.11,13.16,13.61l-1,3.71S232.33,331.38,225.72,316Z"/><path class="cls-46" d="M250.74,313.16s-7.16-22.44-5.83-31.85c0,0,27.24-19.13,28.38-19.33l26.22,24.92-15.68,30.76A113.75,113.75,0,0,1,250.74,313.16Z"/><path class="cls-46" d="M301.75,348.72s-6.14-1.21-10-5c0,0,8.17-4,10.28-10.64,0,0,25.74-5.89,27.82-10.9,0,0,1.23,10.77.16,11.7S311.48,347,301.75,348.72Z"/><path class="cls-46" d="M346.57,254s-10.92-4.64-16.77-3.68c0,0,1.28,15.9-1.81,24.92,0,0,11.69,9.46,15.48,21,0,0,6.55-1.34,9.41-9.3C352.88,287,351.78,261.5,346.57,254Z"/><path class="cls-46" d="M267.89,217.1c-.35.07-4.95,8-5.72,12l18.24,9.72,28.9-5.29-1.54-14.73S288.63,212.39,267.89,217.1Z"/><line class="cls-47" x1="242.03" y1="326.11" x2="250.74" y2="313.16"/><path class="cls-47" d="M227.39,267.73s9.94,10,17.52,13.58"/><path class="cls-47" d="M232.27,242.75s10.11-11.39,32.14-14.66"/><line class="cls-45" x1="272.45" y1="264.71" x2="281.25" y2="236.1"/><path class="cls-47" d="M307.26,231.86A87.62,87.62,0,0,1,331.85,252"/><path class="cls-47" d="M299.51,286.9s23.88-8.28,28.48-11.64"/><path class="cls-47" d="M327.7,325.93s10.13-11.1,17.7-33.53"/><path class="cls-47" d="M251.82,339.71s21.68,9.7,44.4,3.41"/><path class="cls-47" d="M283.83,317.66s5,6.56,18.16,15.39"/><path class="cls-48" d="M309.8,412.17h0a8.77,8.77,0,0,0,1.44-8.56L361.56,342a21.4,21.4,0,0,1,5.07-4.51c8.89-5.69,36.2-22.32,59.42-27.57,17.61-2.2,35.54-11.89,48.8-28.14,24.42-29.91,23.94-70.86-1.07-91.27s-65.22-12.69-89.64,17.23c-13.26,16.23-19.16,35.71-17.8,53.4-.69,24.06-11.35,53.93-15.11,63.76a21.56,21.56,0,0,1-3.42,5.91L297.5,392.4a8.81,8.81,0,0,0-8.1,3.12,3.56,3.56,0,0,0,.51,5l14.9,12.17A3.55,3.55,0,0,0,309.8,412.17Zm51-80.48L358,329.4a2.13,2.13,0,0,1-.63-2.47,204.23,204.23,0,0,0,12.09-41.09,2.18,2.18,0,0,1,4-.71A49.37,49.37,0,0,0,401,307.63a2.17,2.17,0,0,1,.11,4.08,202.59,202.59,0,0,0-37.72,20.11A2.15,2.15,0,0,1,360.83,331.69Zm28.22-37.42c-22.41-18.29-22.5-55.4-.2-82.72s58.67-34.66,81.08-16.36,22.51,55.4.21,82.72S411.46,312.57,389.05,294.27Z"/><g class="cls-49"><path class="cls-1" d="M428.52,152.59l-3.66,4.87c-2.36,3.06-5.68,7.49-9.76,12.72s-8.85,11.33-14,17.81c-2.59,3.23-5.27,6.58-8,10l-8.31,10.26-8.38,10.19-8.17,9.84c-5.31,6.37-10.31,12.27-14.63,17.31s-8,9.18-10.52,12.11l-4,4.55,3.65-4.87c2.36-3.06,5.68-7.5,9.76-12.73s8.86-11.32,14-17.8l8-10c2.74-3.38,5.53-6.81,8.31-10.25l8.39-10.19,8.17-9.84c5.31-6.36,10.31-12.27,14.63-17.31s8-9.18,10.52-12.11Z"/><path class="cls-1" d="M438.68,160.88l-3.75,4.79-10,12.57-14.18,17.68L394.43,216.1l-16.5,20.08-14.48,17.43-10.33,12.27-3.94,4.64,3.75-4.79c2.4-3,5.84-7.37,10-12.57l14.18-17.69,16.36-20.18,16.5-20.07,14.48-17.44,10.32-12.27Z"/><path class="cls-1" d="M448.84,169.18,445.18,174c-2.36,3.07-5.67,7.5-9.76,12.73s-8.85,11.33-14,17.81c-2.6,3.23-5.28,6.58-8,10l-8.32,10.26L396.71,235c-2.79,3.35-5.52,6.65-8.17,9.84-5.32,6.36-10.32,12.27-14.64,17.31s-8,9.18-10.52,12.11l-4,4.55,3.66-4.87c2.36-3.07,5.67-7.5,9.76-12.73s8.85-11.32,14-17.8l8-10,8.32-10.25L411.48,213l8.17-9.84c5.31-6.36,10.31-12.27,14.64-17.31s8-9.18,10.51-12.11Z"/><path class="cls-1" d="M459,177.47l-3.65,4.87c-2.37,3.07-5.68,7.5-9.77,12.73s-8.85,11.32-14,17.8l-8,10c-2.74,3.38-5.53,6.81-8.31,10.25s-5.62,6.83-8.38,10.2l-8.17,9.83c-5.32,6.37-10.32,12.28-14.64,17.31s-8,9.18-10.52,12.11l-4,4.55,3.66-4.86c2.36-3.07,5.67-7.5,9.76-12.73s8.85-11.33,14-17.81c2.6-3.23,5.28-6.58,8-10l8.32-10.25c2.81-3.42,5.61-6.84,8.38-10.2l8.17-9.83c5.31-6.37,10.31-12.28,14.64-17.31S452.43,185,455,182Z"/><path class="cls-1" d="M469.16,185.77l-3.65,4.86c-2.37,3.07-5.68,7.5-9.77,12.73s-8.85,11.33-14,17.81c-2.6,3.23-5.28,6.58-8,10l-8.31,10.25L417,251.59l-8.17,9.84c-5.32,6.36-10.32,12.27-14.64,17.31s-8,9.18-10.52,12.11-4,4.55-4,4.55l3.65-4.87c2.36-3.07,5.67-7.5,9.76-12.73s8.85-11.32,14-17.8l8-10,8.31-10.25,8.38-10.2,8.17-9.83c5.31-6.37,10.31-12.27,14.64-17.31s8-9.18,10.51-12.11Z"/><path class="cls-1" d="M479.32,194.06l-3.65,4.87c-2.36,3.07-5.68,7.49-9.76,12.72s-8.86,11.33-14,17.81l-8,10c-2.74,3.38-5.53,6.81-8.31,10.25s-5.62,6.83-8.38,10.2L419,269.72C413.71,276.09,408.7,282,404.38,287s-8,9.18-10.51,12.11l-4,4.55,3.65-4.87c2.36-3.06,5.67-7.49,9.76-12.72s8.85-11.33,14-17.81c2.59-3.23,5.27-6.58,8-10s5.52-6.82,8.31-10.25l8.38-10.2,8.17-9.83c5.31-6.37,10.31-12.28,14.64-17.31s8-9.19,10.51-12.12Z"/><path class="cls-1" d="M489.48,202.35l-3.65,4.87c-2.36,3.07-5.68,7.5-9.76,12.73s-8.86,11.33-14,17.81c-2.6,3.23-5.28,6.57-8,10L445.73,258l-8.38,10.2L429.18,278c-5.31,6.37-10.31,12.28-14.64,17.31s-8,9.19-10.51,12.12L400,312l3.65-4.87c2.36-3.07,5.68-7.5,9.76-12.73s8.85-11.33,14-17.81l8-10c2.74-3.38,5.52-6.82,8.31-10.25s5.62-6.83,8.38-10.2l8.17-9.83c5.32-6.37,10.32-12.27,14.64-17.31s8-9.18,10.51-12.11Z"/><path class="cls-1" d="M499.64,210.65,496,215.52c-2.36,3.06-5.68,7.49-9.76,12.72s-8.86,11.33-14,17.81c-2.59,3.24-5.27,6.58-8,10l-8.31,10.26-8.38,10.19-8.17,9.84C434,292.68,429,298.58,424.7,303.62s-8,9.18-10.51,12.11l-4,4.55,3.65-4.87c2.36-3.06,5.68-7.49,9.76-12.72s8.85-11.33,14-17.81c2.59-3.24,5.27-6.58,8-10l8.31-10.26,8.38-10.19,8.17-9.84c5.32-6.36,10.32-12.27,14.64-17.3s8-9.19,10.51-12.12Z"/><path class="cls-1" d="M509.8,218.94s-1.36,1.75-3.75,4.79L496.1,236.3,481.92,254c-5.22,6.45-10.8,13.32-16.37,20.19l-16.49,20.07-14.49,17.44L424.25,324l-3.94,4.63,3.75-4.79L434,311.22c4.15-5.18,9-11.21,14.18-17.68s10.8-13.32,16.37-20.19l16.5-20.07,14.48-17.43,10.32-12.27Z"/><path class="cls-1" d="M520,227.24l-3.65,4.87c-2.36,3.06-5.68,7.49-9.76,12.72s-8.86,11.33-14,17.81c-2.59,3.23-5.27,6.58-8,10l-8.31,10.26-8.38,10.19-8.17,9.84c-5.31,6.37-10.31,12.27-14.63,17.31s-8,9.18-10.52,12.11l-4,4.55,3.65-4.87c2.36-3.06,5.68-7.5,9.76-12.73s8.86-11.32,14-17.8l8-10c2.74-3.38,5.53-6.81,8.31-10.25l8.38-10.19c2.79-3.35,5.52-6.65,8.17-9.84,5.32-6.36,10.32-12.27,14.64-17.31s8-9.18,10.52-12.11Z"/><path class="cls-1" d="M337.35,245.71l4.79,3.75,12.57,10,17.68,14.18L392.57,290l20.08,16.49,17.43,14.49,12.27,10.32L447,335.2l-4.79-3.75-12.56-9.95-17.69-14.18L391.76,291l-20.07-16.5L354.25,260,342,249.65Z"/><path class="cls-1" d="M345.65,235.55l4.86,3.65c3.07,2.36,7.5,5.68,12.73,9.76s11.33,8.86,17.81,14l10,8,10.25,8.31,10.2,8.38,9.84,8.17c6.36,5.31,12.27,10.31,17.31,14.64s9.18,8,12.11,10.51l4.55,4-4.87-3.65c-3.07-2.36-7.5-5.68-12.73-9.76s-11.32-8.86-17.81-14l-10-8-10.25-8.31-10.2-8.38c-3.34-2.79-6.64-5.52-9.83-8.17-6.37-5.32-12.27-10.32-17.31-14.64s-9.18-8-12.11-10.52Z"/><path class="cls-1" d="M353.94,225.39l4.87,3.65c3.07,2.36,7.49,5.68,12.72,9.76s11.33,8.85,17.81,14l10,8,10.25,8.31,10.2,8.38,9.83,8.17C436,291,441.88,296,446.91,300.32s9.18,8,12.11,10.52l4.55,4-4.87-3.65c-3.06-2.36-7.49-5.68-12.72-9.76s-11.33-8.86-17.81-14l-10-8-10.26-8.31-10.19-8.38-9.83-8.17c-6.37-5.32-12.28-10.32-17.31-14.64s-9.19-8-12.12-10.52S353.94,225.39,353.94,225.39Z"/><path class="cls-1" d="M362.23,215.22l4.87,3.66c3.07,2.36,7.5,5.68,12.73,9.76s11.33,8.85,17.81,14l10,8L417.86,259l10.2,8.38,9.83,8.17c6.37,5.31,12.28,10.31,17.31,14.63s9.19,8,12.12,10.52l4.55,4L467,301.07c-3.07-2.37-7.5-5.68-12.73-9.76s-11.33-8.86-17.81-14l-10-8L416.24,261,406,252.58l-9.83-8.17c-6.37-5.31-12.28-10.31-17.31-14.63s-9.18-8-12.11-10.52Z"/><path class="cls-1" d="M370.53,205.06l4.87,3.66c3.06,2.36,7.49,5.67,12.72,9.76s11.33,8.85,17.81,14l10,8,10.26,8.32,10.19,8.38,9.84,8.16c6.37,5.32,12.27,10.32,17.31,14.64s9.18,8,12.11,10.52l4.55,4-4.87-3.65c-3.06-2.37-7.49-5.68-12.72-9.76s-11.33-8.86-17.81-14l-10-8-10.26-8.32-10.19-8.38-9.84-8.17c-6.36-5.31-12.27-10.31-17.31-14.63s-9.18-8-12.11-10.52Z"/><path class="cls-1" d="M378.82,194.9l4.87,3.65c3.07,2.37,7.5,5.68,12.73,9.77s11.32,8.85,17.81,14l10,8,10.25,8.31,10.2,8.38,9.83,8.17c6.37,5.32,12.28,10.32,17.31,14.64s9.19,8,12.11,10.52l4.56,4-4.87-3.66c-3.07-2.36-7.5-5.67-12.73-9.76s-11.33-8.85-17.81-14l-10-8-10.25-8.32-10.2-8.38-9.83-8.17c-6.37-5.31-12.28-10.31-17.31-14.64s-9.18-8-12.11-10.51Z"/><path class="cls-1" d="M387.12,184.74l4.87,3.65c3.06,2.37,7.49,5.68,12.72,9.77s11.33,8.85,17.81,14l10,8,10.26,8.31,10.19,8.38,9.84,8.17c6.37,5.32,12.27,10.32,17.31,14.64s9.18,8,12.11,10.52l4.55,4-4.87-3.66c-3.07-2.36-7.5-5.67-12.73-9.76s-11.32-8.85-17.8-14l-10-8-10.25-8.32-10.19-8.38-9.84-8.17c-6.36-5.31-12.27-10.31-17.31-14.64s-9.18-8-12.11-10.51Z"/><path class="cls-1" d="M395.41,174.58l4.87,3.65c3.07,2.36,7.5,5.68,12.73,9.76s11.32,8.86,17.8,14l10,8L451,218.33l10.2,8.38,9.83,8.17c6.37,5.31,12.28,10.32,17.31,14.64s9.18,8,12.11,10.52l4.56,4-4.87-3.65c-3.07-2.36-7.5-5.67-12.73-9.76s-11.33-8.85-17.81-14l-10-8-10.25-8.31-10.2-8.38-9.83-8.17c-6.37-5.31-12.28-10.31-17.31-14.64s-9.19-8-12.11-10.51Z"/><path class="cls-1" d="M403.71,164.42l4.86,3.65c3.07,2.36,7.5,5.68,12.73,9.76s11.33,8.86,17.81,14l10,8,10.26,8.31,10.19,8.38,9.84,8.17c6.36,5.31,12.27,10.31,17.31,14.64s9.18,8,12.11,10.51l4.55,4-4.87-3.65c-3.07-2.36-7.5-5.67-12.73-9.76s-11.32-8.85-17.8-14l-10-8-10.25-8.31-10.19-8.38-9.84-8.17c-6.36-5.31-12.27-10.32-17.31-14.64s-9.18-8-12.11-10.51Z"/><path class="cls-1" d="M412,154.26l4.79,3.75,12.57,10L447,182.14l20.18,16.37L487.3,215l17.43,14.49L517,239.81l4.63,3.94L516.84,240l-12.56-9.95-17.69-14.18L466.41,199.5,446.34,183,428.9,168.52,416.63,158.2Z"/></g><ellipse class="cls-1" cx="429.49" cy="244.73" rx="66.99" ry="55.51" transform="translate(-31.69 422.69) rotate(-50.78)"/><path class="cls-50" d="M474.85,281.75c24.42-29.91,23.94-70.86-1.07-91.27s-65.22-12.69-89.64,17.23c-13.26,16.23-19.16,35.71-17.8,53.4-.69,24.06-11.35,53.93-15.11,63.76a21.56,21.56,0,0,1-3.42,5.91L297,393a4.16,4.16,0,0,0,.59,5.86l7.28,6a4.17,4.17,0,0,0,5.87-.6L361.56,342a21.4,21.4,0,0,1,5.07-4.51c8.89-5.69,36.2-22.32,59.42-27.57C443.66,307.69,461.59,298,474.85,281.75Zm-114,49.94L358,329.4a2.13,2.13,0,0,1-.63-2.47,204.23,204.23,0,0,0,12.09-41.09,2.18,2.18,0,0,1,4-.71A49.37,49.37,0,0,0,401,307.63a2.17,2.17,0,0,1,.11,4.08,202.59,202.59,0,0,0-37.72,20.11A2.15,2.15,0,0,1,360.83,331.69Zm28.22-37.42c-22.41-18.29-22.5-55.4-.2-82.72s58.67-34.66,81.08-16.36,22.51,55.4.21,82.72S411.46,312.57,389.05,294.27Z"/><path class="cls-46" d="M304.81,412.68l-14.9-12.17a3.56,3.56,0,0,1-.51-5h0a8.82,8.82,0,0,1,12.38-1.25l6.77,5.53a8.81,8.81,0,0,1,1.25,12.37h0A3.55,3.55,0,0,1,304.81,412.68Z"/><g class="cls-51"><polyline class="cls-52" points="43.32 387.73 34.99 373.63 52.25 375.98 48.56 387.73"/><path class="cls-53" d="M56.73,274.32l6.37,24.47s1,6-1.18,8.21-12.4,13.74-12.4,13.74L43.83,332l33,18.77,39.38-10.56L115,312.53s-20.16-1.29-31.92-10.11c-2.31-1.74-4.27-21.9-4.27-21.9Z"/><path class="cls-52" d="M79.93,289.42c-.62-4.51-1.13-9.06-1.13-9.06l-22.11-6.2L58.46,281s6.92,4.51,9.08,5.46A42.31,42.31,0,0,0,79.93,289.42Z"/><path class="cls-53" d="M43.71,264.16s12.8,22.77,51,22.78c15.8,0,21.67-3.69,22.56-8.82,5.6-32.23-6.31-73-22.84-85.45-14.5-10.92-65.91,30.38-65.91,30.38l11,24.58s-11.17-12.07-15.64-5.37,9.72,20.89,9.72,20.89S39.92,268,43.71,264.16Z"/><path class="cls-53" d="M120.06,315.82c3.79-2,7.2,2.73,7.2,2.73L165.81,386l-33.27,59.69s11.17,18.77,5.58,27.26l7.71,7.71s1.23,4.13-4.36,4.13S122.71,475,122.71,475l1.53-42.08,24.84-44.79-22.82-33.93-7.13-6.32S113,319.57,120.06,315.82Z"/><path class="cls-54" d="M46.84,255c6.48,2.68.9-8.94.9-8.94s-.62-11.64-3.91-13.63a47.43,47.43,0,0,1-7.2-5.87l61.82-42.38s6.26-8.72-8-14.08A17,17,0,0,0,73.09,165s-6.25-7.48-15.3-.61c0,0-18.21-1.06-22.34,7.88a6.8,6.8,0,0,0-6.7,3.79s-3.8,1.46-4.53,4.53c0,0-9.21,3.63-9.77,9.77,0,0-5,7-1,12.74,0,0-2.65,5,.78,8.43,0,0-7.7,8.43,0,13.68,0,0-1.89,5.48,9.39,7.71L27,239.8s3.22-1.46,12.51,7.83Z"/><path class="cls-55" d="M93.74,221.81c5.13,4.9,13.08,14.48,14,27.38,0,0-11.84,4.24-15.86,4.24"/><ellipse class="cls-56" cx="70.4" cy="227.97" rx="3.01" ry="4.11" transform="translate(-53.43 24.03) rotate(-14.1)"/><path class="cls-57" d="M67.32,228s.44-10.55,10-4.86"/><ellipse class="cls-56" cx="97.48" cy="220.65" rx="3.01" ry="4.11" transform="translate(-50.83 30.41) rotate(-14.1)"/><path class="cls-57" d="M94.4,219s2.79-10.18,10.83-2.5"/><path class="cls-52" d="M39,261.59s-.34-14.66-11.65-18.18"/><path class="cls-58" d="M49.52,320.74s-10.73,3.95-15.73,8.95c0,0,30.09,43.62,9.53,58,0,0,18.94,36.17,16.93,43.54S24.6,532.53,24.6,532.53s103.88-1.84,107.58-69.76l-4.91-39.1a328,328,0,0,0,2.9-39.65c.22-19.08-1.87-41-3.4-56a24.16,24.16,0,0,0-7-15.19l-9.78-.91s7.71,25.88-10.15,28.33C90.16,341.6,67,344.71,49.52,320.74Z"/><path class="cls-58" d="M49.52,320.74s-10.73,3.95-15.73,8.95c0,0,30.09,43.62,9.53,58,0,0,18.94,36.17,16.93,43.54S24.6,532.53,24.6,532.53s103.88-1.84,107.58-69.76l-4.91-39.1a328,328,0,0,0,2.9-39.65c.22-19.08-1.87-41-3.4-56a24.16,24.16,0,0,0-7-15.19l-9.78-.91s7.71,25.88-10.15,28.33C90.16,341.6,67,344.71,49.52,320.74Z"/><path class="cls-59" d="M57.94,438.86s54.77,7.3,70-10.13c0,0,1.65-3.44-.64-5.06.33,3.22-25.73,17.26-67,8.38C60.25,432.05,55.26,433.84,57.94,438.86Z"/><circle class="cls-60" cx="103.43" cy="436.23" r="12.78"/><g class="cls-61"><path class="cls-62" d="M42.77,189.09s-5.48,6.65,1.48,11.09c2.43,1.56-7.21,9-7.21,9l-3.9,21.86s5-2,8.39-2l17.63,20.2-11.31,7.07L11.77,232l-24-46.39,30.94-28.09,33.85-7.88-5.95,11.79s-14.37,8.78-8.88,15.1C34.28,179,33.61,188.45,42.77,189.09Z"/></g><path class="cls-44" d="M27.13,239.8s-6.48-2.9-6.48-8.26,25.24-56.08,78-47.36c0,0,8.15,5.69,5.36,8.49,0,0,5,6.24,1,9.59S81.41,200.7,27.13,239.8Z"/><path class="cls-63" d="M30,228s33.74-41.11,69.82-35.75C99.79,192.22,66.17,194,30,228Z"/><path class="cls-64" d="M105.7,444.67S92.8,446,95.82,432"/><path class="cls-65" d="M101.34,427.67s12.91-1.27,9.81,12.71"/><path class="cls-52" d="M93.27,266.21l8.26-4,3.82-1.85,1.91-.92a3.54,3.54,0,0,0,2.55-2.54c-1.41,1.33.72,3.45,2.12,2.12,2.33-2.2-.51-4.31-2.85-3.72-2.65.67-5.34,2.51-7.79,3.7l-9.54,4.61c-1.74.84-.22,3.42,1.52,2.59Z"/><path class="cls-53" d="M38.38,327.07S22.6,336,21.15,337.44,18.29,358,18.29,358l7.82,18.32,61.33,14.43,19.5,2.69,7.12-74-15.9-4.06L93.8,371.62l-33.95-8.94-11-24.35-6-13.18Z"/><path class="cls-53" d="M113.46,320.22c1.57-2.26,5.71-8.69,7.94-10.16,3.83-2.52.88-7.15,1.22-7.75a6,6,0,0,0,1-4.64c-.68-2.86-2-.83-1.55-3.71a6.28,6.28,0,0,0,0-2.6c-1.13-2.12-2.59-.54-2.56-3,0-1.4,1.74-5.52,2.78-8.23a7.46,7.46,0,0,0-.88-5.85,2.22,2.22,0,0,0-2.79-.81c-1.56,1-2,3.88-3.06,5.4-2.44,3.41-2.73,3.17-5.77,6-1.16,1.09-6.45,8.13-8.18,7.88-1.52-.21-3.53-5.84-6.2-5.84-4.49,0-8-.53-8-.29,0,2.2,2.76,10.3,3.59,11.13,1.09,1.09,5.41,6.77,5.87,10.67s1.79,6.63,1.14,10.48Z"/><path class="cls-55" d="M87.44,286.65S90,296.79,91,297.78,96.9,305,96.9,308.45c0,0,1.53,7.52,1.14,10.48s-4.24,52.69-4.24,52.69l-33.95-8.94s-12.05-4.47-14.63-11.95"/><path class="cls-55" d="M101.6,292.78s12.26-9.62,16.31-18.62a1.56,1.56,0,0,1,2.44-.88"/><path class="cls-66" d="M107.16,276.49s3.69-8.49,8.21-6.84"/><path class="cls-58" d="M33.79,329.69s17,9.09,21.52,21S46.54,322,46.54,322,38.15,325.34,33.79,329.69Z"/><path class="cls-67" d="M65.39,161.45a10.8,10.8,0,0,1,7.7,3.51,18.68,18.68,0,0,1,4.67-.61,17,17,0,0,1,12.65,5.75c13.89,5.21,8.38,13.59,8.06,14.06l.15,0s8.15,5.69,5.36,8.49c0,0,5,6.24,1,9.59a4.52,4.52,0,0,1-1.46.74c10.86,16.91,17.55,46.13,14.33,71.22a3,3,0,0,1,.75-.71,1.66,1.66,0,0,1,.86-.23,2.47,2.47,0,0,1,1.93,1,7.46,7.46,0,0,1,.88,5.85c-1,2.71-2.77,6.83-2.78,8.23,0,2.42,1.43.84,2.56,3a6.28,6.28,0,0,1,0,2.6c-.45,2.88.87.85,1.55,3.71a6,6,0,0,1-1,4.64c-.34.6,2.61,5.23-1.22,7.75a13.94,13.94,0,0,0-2.64,2.71l1,.09a25.12,25.12,0,0,1,2.17,2.47H122c2.94,0,5.26,3.22,5.26,3.22L165.81,386l-33.27,59.69s11.17,18.77,5.58,27.26l7.71,7.71s1.23,4.13-4.36,4.13c-1.66,0-4-.88-6.47-2.11a422.1,422.1,0,0,1,1.54,43.73,43.51,43.51,0,0,0-4.5-.67l0,2.85h0c-.11,19.83,0,48.48,1.12,55,1.85,10.22,0,15.25,0,15.25s5,79.54,5,80.15,7,9.66,7,9.66,9.3,7.32,16.55,13.14h0s4.36,1.13,6.06,2.56a6,6,0,0,1,1.83,3.8c.48.33,1.28.87,2.19,1.53a23.26,23.26,0,0,0,6.29,1.17c1,1,0,2.08-1.3,3,.73.77,1.16,1.45,1,1.89-.47,1.74-7.21,8.83-19.39,8.83-.69,0-1.39,0-2.11-.07-12.79-.83-30.52-14.46-32-18.26a11.3,11.3,0,0,1,.19-7.65c0-3.24,2-7.11,3-9.05,1.68-3,2.85-11.56,2.85-11.56-18.43-64.68-7.87-73.78-9.88-78.47-1.28-3-12.67-45.32-20.8-75.78h0s0-.07,0-.1c-.48-1.77-.94-3.51-1.39-5.19a21.87,21.87,0,0,1-4.2-2.49A132.51,132.51,0,0,1,72,524.71l-24.3,60.93S43.57,601,38.63,605.92A217.65,217.65,0,0,1,26.4,641.27C18,660,14.34,685.84,14.34,685.84s6,15.25,6.7,24.77c7.06,9.66,13.4,21.59,5,25.11a48.32,48.32,0,0,1-18.29,3.22c-10.13,0-19.22-2.38-21.34-4.5-3.4-3.4,6.26-29.21,6.26-29.21.3-2.34,1-4.61,2.32-5.56,3.35-2.35,7.38-8,7.38-8s-1.26-3.35,2.26-7.87,8.71-33.54,8.71-37.34-4.69-32.17,11-43.34c0,0,1.79-36.28,6.37-62.52h0c.5-3,1-5.82,1.63-8.47-4.8.4-7.68.45-7.68.45s25.1-70.06,33.23-93.89c-2.07-4.16,1.18-6,2.15-6.48.12-.37.21-.67.27-.89,2-7.37-16.93-43.54-16.93-43.54l-5-8.56-12.16-2.86L18.29,358s1.41-19.1,2.86-20.55c.94-.94,7.87-5,12.64-7.75h0c5-5,15.73-8.95,15.73-8.95S59.74,309.18,61.92,307s1.18-8.21,1.18-8.21l-5.6-21.5c-9.89-6.21-13.79-13.13-13.79-13.13a5,5,0,0,1-3.64,1.46c-3.25,0-6.52-2.47-6.52-2.47S19.36,249,23.83,242.26a4.22,4.22,0,0,1,3.68-2c2.92,0,6.4,2.41,8.86,4.47-5-4.39-7.73-5-8.82-5l-.34,0-.08.06-.07,0-.1,0-.05-.1c-1.06-.53-5.8-3.14-6.22-7.55-8-2.51-6.47-7-6.47-7-7.7-5.25,0-13.68,0-13.68-3.43-3.44-.78-8.43-.78-8.43-4-5.7,1-12.74,1-12.74.56-6.14,9.77-9.77,9.77-9.77.73-3.07,4.53-4.53,4.53-4.53a6.72,6.72,0,0,1,6.19-3.82,3.62,3.62,0,0,1,.51,0c3.34-7.23,15.87-7.92,20.55-7.92,1.12,0,1.79,0,1.79,0a12.54,12.54,0,0,1,7.6-2.9m36.3,131.34c1.68,0,6.19-5.83,7.77-7.55-3.42,1.06-8.12,1.68-14.41,1.7h.35c2.67,0,4.68,5.63,6.2,5.84h.09m-21.76-3.37h0c.79,5.65,2,12.06,3.21,13A46.19,46.19,0,0,0,97,309.08l-.09-.63c-.46-3.9-4.78-9.58-5.87-10.67-.83-.83-3.57-8.93-3.59-11.13h0a80.8,80.8,0,0,1-8-1.06c.15,1.2.32,2.51.5,3.83m48.47,136,20.68-37.29-19.66-29.24c.52,8.39.84,17,.75,25.14a328,328,0,0,1-2.9,39.65,2.78,2.78,0,0,1,1.13,1.74m40.74,282.46h0M65.39,155.45h0A17.65,17.65,0,0,0,56,158.31c-6.82,0-18.23,1.16-24,8.21a12.39,12.39,0,0,0-7.47,4.91,13.68,13.68,0,0,0-4.88,4.63c-3.46,1.8-9.47,5.75-10.91,12.05-2.16,3.64-4.13,9.67-1.83,15.41a13.7,13.7,0,0,0,.2,7.67,16,16,0,0,0-2.23,9.59A12.49,12.49,0,0,0,8.28,228a11,11,0,0,0,.93,2.71,13.51,13.51,0,0,0,6.52,6,14.9,14.9,0,0,0,2.32,3.67c-2.33,4.82-1,11,4,18.29a68.26,68.26,0,0,0,7.25,8.8l.29.29.34.25c.81.62,5.12,3.68,10.13,3.68a11.91,11.91,0,0,0,1.59-.1A52.89,52.89,0,0,0,52.27,281l4.94,19a12,12,0,0,1,0,3.22c-2.38,2.49-8.71,9.61-11.24,12.46-3.28,1.32-11,4.72-15.82,9.18-11.63,6.71-12.57,7.65-13.26,8.34-1.49,1.49-3,3-4.6,24.36L12.2,359l.57,1.35,7.82,18.32,1.19,2.79,3,.69,9.66,2.27,3.68,6.23c.57,1.1,4.63,9,8.57,17.61,5.86,12.93,7.31,18.47,7.65,20.61a10.17,10.17,0,0,0-2.59,4,10.07,10.07,0,0,0-.23,5.85C42.82,463.87,19.19,529.83,19,530.51L16,538.69l8.69-.16h.2c0,.18-.07.37-.1.56l-.29.87.06.47c-3.81,22.33-5.65,50.8-6.15,59.65C4.5,612.56,6.51,636.4,7.19,644.51c.06.73.14,1.65.14,1.91-.1,4.22-5.09,29.81-7.5,33.72a16.08,16.08,0,0,0-3.7,9.78,28.12,28.12,0,0,1-4.59,4.83c-2.52,1.76-4.07,4.71-4.73,9-.66,1.82-2.62,7.29-4.32,13.13-3.67,12.67-3.75,18.37-.33,21.8,4.29,4.29,16.27,6.25,25.58,6.25a54.13,54.13,0,0,0,20.61-3.68,11.91,11.91,0,0,0,7.21-7.93c1.72-6.18-1.05-14.12-8.71-24.92-1-8.37-4.85-19.22-6.34-23.22.92-5.66,4.56-26.23,11.37-41.47a227.39,227.39,0,0,0,12.23-35c4.93-6.17,8.43-18,9.32-21.21l23.12-58A139.59,139.59,0,0,0,93.37,523l.58,2.16v.05c17,63.84,20.06,73.83,20.86,76,0,.47-.19,1.3-.3,2-1.27,7.62-4.24,25.37,9.81,75.13a40.46,40.46,0,0,1-2,8.25c-2.29,4.11-3.52,7.67-3.75,10.84a17.07,17.07,0,0,0,.17,10.91c1.93,5,11.28,11.34,14.1,13.15,4.83,3.1,14.25,8.38,23.09,9,.83.06,1.67.08,2.5.08,14.36,0,23.88-8.5,25.18-13.26a6.54,6.54,0,0,0,.2-2.48,7.18,7.18,0,0,0-1.49-8.17L180.71,705l-2.33-.1a20.78,20.78,0,0,1-3.52-.5,10.87,10.87,0,0,0-3.2-4.62,21.92,21.92,0,0,0-7.11-3.4c-6-4.78-13-10.34-15.06-12-2.06-2.66-4.35-5.69-5.43-7.23-.27-4.49-1.25-20.36-4.87-77.67.62-2.55,1.44-8.16-.15-17-.38-2.08-1.2-11-1.06-49.38l4.38,1.38.18-8c0-.81.38-17.49-.86-35.76,4.72-.06,7.24-2.11,8.52-3.83a9.27,9.27,0,0,0,1.38-8l-.43-1.46-1.08-1.08-4.92-4.92c2.11-8.88-2.77-20.09-5.75-25.79L171.05,389l1.65-3L171,383.05l-38.55-67.48-.16-.27-.18-.26a15.89,15.89,0,0,0-3.92-3.74,11.5,11.5,0,0,0,.73-8.2,11.19,11.19,0,0,0,.53-6.81,9.76,9.76,0,0,0-1.28-3.1,8.11,8.11,0,0,0-.84-4.66,8.44,8.44,0,0,0-1.2-1.74c.37-1,.8-2.09,1.09-2.84.23-.58.45-1.14.64-1.65A13.31,13.31,0,0,0,126.35,271a8.37,8.37,0,0,0-1.95-2c1.5-22.08-3.63-47.24-13.22-64.77,2.26-3.8,1.53-8.48-.63-12.41a9.49,9.49,0,0,0,0-1.19c-.29-3.26-2.56-6.21-4.93-8.43a13.06,13.06,0,0,0-.39-6.33c-1.44-4.59-5.25-8.2-11.32-10.76a22.94,22.94,0,0,0-16.13-6.68,22.44,22.44,0,0,0-2.94.19,16.19,16.19,0,0,0-9.43-3.09Zm70.2,244.62c.3-4.91.52-10.31.58-16,0-1.42,0-2.89,0-4.4l5.87,8.73-6.46,11.65Z"/><path class="cls-55" d="M87.44,286.65a3,3,0,0,1,2.24-2.09,5.31,5.31,0,0,1,3,.36A53.28,53.28,0,0,1,99,288.59"/></g></svg>