<svg id="Camada_1" data-name="Camada 1" xmlns="http://www.w3.org/2000/svg" xmlns:xlink="http://www.w3.org/1999/xlink" viewBox="0 0 710.8 222.39"><defs><style>.cls-1{fill:none;}.cls-2{fill:#ffd478;}.cls-3{fill:#027e8f;}.cls-4{fill:#f9f9f9;}.cls-5{clip-path:url(#clip-path);}.cls-6{fill:#eac2a7;}.cls-7{fill:#c9a68f;}.cls-8{fill:#d6aa8b;}.cls-9{fill:#d6d6d6;}.cls-10{fill:#c99f4b;}.cls-11{fill:#6d5f56;}.cls-12{fill:#493e38;}.cls-13{clip-path:url(#clip-path-2);}.cls-14{fill:#fcfcfc;}.cls-15{fill:#d32222;}.cls-16{fill:#f4f4f4;}.cls-17{clip-path:url(#clip-path-3);}.cls-18{fill:#b7b7b7;}.cls-19{fill:#6d472e;}.cls-20{fill:#c99e32;}.cls-21{clip-path:url(#clip-path-4);}.cls-22{fill:#aa7e30;}.cls-23{fill:#fff;}.cls-24{fill:#ddd;}.cls-25{fill:#846829;}.cls-26{fill:#e8cd95;}.cls-27{fill:#eaa000;}</style><clipPath id="clip-path"><path class="cls-1" d="M132.48,205.6s-28.07,21.32-75.08,3.8-47-152.1-47-152.1S50.2,0,86.1,0c9.83,0,43.26,7.4,43.26,28.13s25.1,113.81,25.1,113.81,10.54,40.81,5.27,43.92"/></clipPath><clipPath id="clip-path-2"><path class="cls-1" d="M94.18,62.93c-.23-.23,13.33.85,18.51-3,0,0,1,10.31-3.6,11.44S98.84,70.67,94.18,62.93Z"/></clipPath><clipPath id="clip-path-3"><path class="cls-1" d="M101.85,215.62c3.15,6.25,25.3,7.57,27.13,8.15,0,0,.58-25.08-3-39.17S101.85,215.62,101.85,215.62Z"/></clipPath><clipPath id="clip-path-4"><path class="cls-1" d="M74.92,60.18c3.91,1.61.54-5.39.54-5.39s-.37-7-2.36-8.21A29,29,0,0,1,68.77,43l10-6.84L106,17.49s3.77-5.25-4.84-8.48a10.28,10.28,0,0,0-10.44-3.1S87,1.4,81.52,5.54c0,0-11-.64-13.47,4.75a4.09,4.09,0,0,0-4,2.29s-2.28.87-2.72,2.72c0,0-5.56,2.19-5.89,5.9,0,0-3,4.24-.61,7.67,0,0-1.6,3,.47,5.08,0,0-4.64,5.09,0,8.25,0,0-1.14,3.3,5.66,4.65l2,4.17s1.94-.88,7.54,4.71Z"/></clipPath></defs><title>2-info</title><path class="cls-2" d="M132.86,70.16H700.8a10,10,0,0,1,10,10V187a10,10,0,0,1-10,10H132.86a0,0,0,0,1,0,0V70.16A0,0,0,0,1,132.86,70.16Z"/><path class="cls-3" d="M223.23,99.78h-5.67v5.31h6.53l.09-1.91h1V106h-10.3v-.77l1.55-.12v-11L214.88,94v-.78h10.25V96h-1L224,94.08h-6.48v4.81h5.67Z"/><path class="cls-3" d="M227.13,105.21l1.54-.12V97.37l-1.54-.12v-.78h2.55l.1,1.66a3.5,3.5,0,0,1,1.34-1.36,3.94,3.94,0,0,1,2-.48,3.29,3.29,0,0,1,2.54.95,4.24,4.24,0,0,1,.87,3v4.9l1.55.12V106h-4.23v-.77l1.54-.12V100.2a3.3,3.3,0,0,0-.66-2.32,2.49,2.49,0,0,0-1.87-.67,3.08,3.08,0,0,0-1.95.58,3.28,3.28,0,0,0-1.09,1.55v5.75l1.55.12V106h-4.23Z"/><path class="cls-3" d="M242.46,94v2.44h2.26v.86h-2.26v6.2a1.93,1.93,0,0,0,.37,1.32,1.27,1.27,0,0,0,1,.39l.54,0,.6-.08.17.79a3.48,3.48,0,0,1-.69.17,5.55,5.55,0,0,1-.82.06,2.21,2.21,0,0,1-1.68-.63,2.83,2.83,0,0,1-.6-2v-6.2h-1.77v-.86h1.77V94Z"/><path class="cls-3" d="M251.34,106.16a4.27,4.27,0,0,1-3.21-1.31,4.6,4.6,0,0,1-1.27-3.34V101a4.7,4.7,0,0,1,1.27-3.38,4,4,0,0,1,3.06-1.35,4,4,0,0,1,3,1.11,4,4,0,0,1,1.08,2.95v.9H248v.26a4,4,0,0,0,.92,2.68,3.06,3.06,0,0,0,2.43,1.09,5.08,5.08,0,0,0,1.8-.28,3.53,3.53,0,0,0,1.28-.78l.49.72a4.18,4.18,0,0,1-1.46.89A6,6,0,0,1,251.34,106.16Zm-.15-9a2.82,2.82,0,0,0-2.11.89,3.69,3.69,0,0,0-1,2.24l0,0h6v-.26a2.86,2.86,0,0,0-.79-2.07A2.76,2.76,0,0,0,251.19,97.19Z"/><path class="cls-3" d="M257.06,105.21l1.55-.12V97.37l-1.55-.12v-.78h2.56l.1,1.66a3.48,3.48,0,0,1,1.33-1.36,4,4,0,0,1,2-.48,3.31,3.31,0,0,1,2.55.95,4.24,4.24,0,0,1,.87,3v4.9l1.55.12V106h-4.24v-.77l1.55-.12V100.2a3.3,3.3,0,0,0-.66-2.32,2.49,2.49,0,0,0-1.87-.67,3.13,3.13,0,0,0-2,.58,3.26,3.26,0,0,0-1.08,1.55v5.75l1.55.12V106h-4.24Z"/><path class="cls-3" d="M276.83,104.61a3.41,3.41,0,0,1-1.32,1.15,4.15,4.15,0,0,1-1.89.4,3.53,3.53,0,0,1-2.89-1.27,5.22,5.22,0,0,1-1-3.4v-.19a5.89,5.89,0,0,1,1-3.64,3.45,3.45,0,0,1,2.9-1.37,3.87,3.87,0,0,1,1.86.42,3.56,3.56,0,0,1,1.31,1.19V93.16l-1.54-.11v-.78h2.68v12.82l1.55.12V106h-2.56Zm-6-3.12a4.52,4.52,0,0,0,.75,2.74,2.59,2.59,0,0,0,2.24,1,3.36,3.36,0,0,0,1.83-.46,3.06,3.06,0,0,0,1.14-1.25V99a3.26,3.26,0,0,0-1.09-1.32,3.15,3.15,0,0,0-1.86-.51,2.51,2.51,0,0,0-2.25,1.14,5.27,5.27,0,0,0-.76,3Z"/><path class="cls-3" d="M285.76,106.16a4.23,4.23,0,0,1-3.2-1.31,4.61,4.61,0,0,1-1.28-3.34V101a4.74,4.74,0,0,1,1.27-3.38,4.06,4.06,0,0,1,3.06-1.35,4,4,0,0,1,3,1.11,4,4,0,0,1,1.08,2.95v.9h-7.25v.26a4,4,0,0,0,.93,2.68,3,3,0,0,0,2.42,1.09,5.1,5.1,0,0,0,1.81-.28,3.61,3.61,0,0,0,1.28-.78l.48.72a4,4,0,0,1-1.46.89A6,6,0,0,1,285.76,106.16Zm-.15-9a2.83,2.83,0,0,0-2.11.89,3.68,3.68,0,0,0-1,2.24l0,0h6v-.26a2.9,2.9,0,0,0-.79-2.07A2.8,2.8,0,0,0,285.61,97.19Z"/><path class="cls-3" d="M296.77,101h-4.53v-.89h4.53Z"/><path class="cls-3" d="M306.67,99.41h-.93l-.13-1.35a2.75,2.75,0,0,0-1.08-.64,4.53,4.53,0,0,0-1.49-.23,3,3,0,0,0-1.87.5,1.47,1.47,0,0,0-.62,1.16,1.34,1.34,0,0,0,.54,1.09,5.47,5.47,0,0,0,2.14.76,7.23,7.23,0,0,1,2.74,1,2.08,2.08,0,0,1,.91,1.78,2.24,2.24,0,0,1-1,1.92,4.65,4.65,0,0,1-2.74.73,6.79,6.79,0,0,1-2.08-.29,5.16,5.16,0,0,1-1.62-.83v-1.92h.92l.17,1.36a2.7,2.7,0,0,0,1.15.61,5.78,5.78,0,0,0,1.46.19,3.34,3.34,0,0,0,1.94-.5,1.45,1.45,0,0,0,.71-1.22,1.5,1.5,0,0,0-.59-1.17,5.11,5.11,0,0,0-2.14-.81,7.77,7.77,0,0,1-2.72-1,2,2,0,0,1-.89-1.71,2.25,2.25,0,0,1,1-1.84,4.19,4.19,0,0,1,2.63-.76,6.4,6.4,0,0,1,2.06.32,4.42,4.42,0,0,1,1.53.87Z"/><path class="cls-3" d="M313.48,106.16a4.27,4.27,0,0,1-3.21-1.31,4.6,4.6,0,0,1-1.27-3.34V101a4.7,4.7,0,0,1,1.27-3.38,4,4,0,0,1,3.06-1.35,4,4,0,0,1,3,1.11,4,4,0,0,1,1.08,2.95v.9h-7.25v.26a4,4,0,0,0,.92,2.68,3.06,3.06,0,0,0,2.43,1.09,5.08,5.08,0,0,0,1.8-.28,3.53,3.53,0,0,0,1.28-.78l.49.72a4.18,4.18,0,0,1-1.46.89A6.07,6.07,0,0,1,313.48,106.16Zm-.15-9a2.85,2.85,0,0,0-2.12.89,3.74,3.74,0,0,0-1,2.24l0,0h6v-.26a2.86,2.86,0,0,0-.79-2.07A2.76,2.76,0,0,0,313.33,97.19Z"/><path class="cls-3" d="M323.83,97.25v-.78h2.5l.14,1.48a3.59,3.59,0,0,1,1.34-1.23,4.07,4.07,0,0,1,1.9-.43,3.43,3.43,0,0,1,2.89,1.37,5.83,5.83,0,0,1,1,3.64v.19a5.16,5.16,0,0,1-1,3.4,3.49,3.49,0,0,1-2.87,1.27,4.39,4.39,0,0,1-1.9-.38,3.41,3.41,0,0,1-1.32-1.08v4l1.55.11v.79h-4.23v-.79l1.55-.11V97.37Zm8.68,4a5.14,5.14,0,0,0-.78-3,2.59,2.59,0,0,0-2.28-1.14,3.2,3.2,0,0,0-1.86.5A3.16,3.16,0,0,0,326.51,99v4.57a3,3,0,0,0,1.12,1.23,3.48,3.48,0,0,0,1.84.45,2.68,2.68,0,0,0,2.27-1,4.53,4.53,0,0,0,.77-2.75Z"/><path class="cls-3" d="M335.5,101.08a4.84,4.84,0,0,1,1.24-3.44,4.71,4.71,0,0,1,6.6,0,4.84,4.84,0,0,1,1.24,3.44v.29a4.85,4.85,0,0,1-1.24,3.45,4.23,4.23,0,0,1-3.29,1.34,4.27,4.27,0,0,1-3.31-1.34,4.85,4.85,0,0,1-1.24-3.45Zm1.14.29a4.3,4.3,0,0,0,.9,2.78,3.33,3.33,0,0,0,5,0,4.3,4.3,0,0,0,.9-2.78v-.29a4.32,4.32,0,0,0-.9-2.76,3.33,3.33,0,0,0-5,0,4.32,4.32,0,0,0-.9,2.76Z"/><path class="cls-3" d="M348.89,96.47l.14,1.58v.12a3.43,3.43,0,0,1,1.19-1.38,3.21,3.21,0,0,1,1.79-.5,3,3,0,0,1,.43,0l.33.07-.15,1-.84-.05a2.69,2.69,0,0,0-1.76.56,3.05,3.05,0,0,0-1,1.53v5.68l1.55.12V106h-4.22v-.77l1.54-.12V97.37l-1.54-.12v-.78h2.53Z"/><path class="cls-3" d="M364.79,93.19a5.57,5.57,0,0,1,3.46.93,3.11,3.11,0,0,1,1.21,2.63,2.63,2.63,0,0,1-.56,1.65,3.78,3.78,0,0,1-1.61,1.14,2.81,2.81,0,0,1,1.63,1.11,3.48,3.48,0,0,1,.5,1.91v1a1.79,1.79,0,0,0,.16.87.67.67,0,0,0,.53.33l.46.06V106h-1a1.73,1.73,0,0,1-1.55-.7,3,3,0,0,1-.46-1.71v-1a2.21,2.21,0,0,0-.66-1.68,2.41,2.41,0,0,0-1.75-.63h-3v4.36l1.55.24V106h-5v-1.11l1.55-.24V94.54l-1.55-.24V93.19h6.07Zm-2.65,5.71h2.46a3.75,3.75,0,0,0,2.28-.55,1.94,1.94,0,0,0,.71-1.62,2,2,0,0,0-.69-1.6,3.18,3.18,0,0,0-2.11-.59h-2.65Z"/><path class="cls-3" d="M376.74,106.16a4.5,4.5,0,0,1-3.41-1.32,4.72,4.72,0,0,1-1.27-3.43V101a4.67,4.67,0,0,1,1.3-3.38,4.16,4.16,0,0,1,3.09-1.35,4.07,4.07,0,0,1,3.14,1.16,4.42,4.42,0,0,1,1.07,3.1v1.08H374l0,0a3.59,3.59,0,0,0,.75,2.26,2.45,2.45,0,0,0,2,.88,4.91,4.91,0,0,0,1.66-.25,4,4,0,0,0,1.24-.69l.73,1.12a4.35,4.35,0,0,1-1.45.83A6.16,6.16,0,0,1,376.74,106.16Zm-.29-8.5a2.08,2.08,0,0,0-1.6.73,3.35,3.35,0,0,0-.82,1.84l0,0h4.74v-.23a2.56,2.56,0,0,0-.59-1.71A2.16,2.16,0,0,0,376.45,97.66Z"/><path class="cls-3" d="M387.11,104.81a2.68,2.68,0,0,0,1.64-.53,1.6,1.6,0,0,0,.71-1.31h1.68l0,.06a2.61,2.61,0,0,1-1.19,2.18,4.5,4.5,0,0,1-2.86,1,4.31,4.31,0,0,1-3.42-1.35,5,5,0,0,1-1.18-3.4V101a4.94,4.94,0,0,1,1.19-3.39,4.31,4.31,0,0,1,3.41-1.36,6.23,6.23,0,0,1,2.22.38,4.52,4.52,0,0,1,1.63,1l.08,2.11h-1.49l-.41-1.5a2.4,2.4,0,0,0-.85-.48,3.61,3.61,0,0,0-1.18-.18,2.29,2.29,0,0,0-2.1,1,4.33,4.33,0,0,0-.63,2.4v.37a4.39,4.39,0,0,0,.63,2.43A2.29,2.29,0,0,0,387.11,104.81Z"/><path class="cls-3" d="M393,101.14a5,5,0,0,1,1.23-3.48,4.29,4.29,0,0,1,3.35-1.37,4.33,4.33,0,0,1,3.37,1.37,5,5,0,0,1,1.24,3.48v.19a5,5,0,0,1-1.24,3.48,4.86,4.86,0,0,1-6.72,0,5,5,0,0,1-1.23-3.48Zm1.87.19a4.26,4.26,0,0,0,.69,2.5,2.59,2.59,0,0,0,4.06,0,4.27,4.27,0,0,0,.7-2.5v-.19a4.26,4.26,0,0,0-.7-2.49,2.59,2.59,0,0,0-4.07,0,4.32,4.32,0,0,0-.68,2.49Z"/><path class="cls-3" d="M403.61,104.87l1.54-.24v-6.8l-1.54-.24V96.47h3.22l.13,1.41A3.54,3.54,0,0,1,410,96.29a3.51,3.51,0,0,1,2.57.9,3.82,3.82,0,0,1,.91,2.79v4.65l1.55.24V106h-5v-1.11l1.55-.24V100a2.41,2.41,0,0,0-.54-1.78,2.24,2.24,0,0,0-1.64-.53A2.75,2.75,0,0,0,407,99v5.59l1.55.24V106h-5Z"/><path class="cls-3" d="M416.14,104.87l1.54-.24v-11l-1.54-.25V92.27h3.41v5.47a3.72,3.72,0,0,1,1.3-1.07,3.9,3.9,0,0,1,1.71-.38,3.44,3.44,0,0,1,2.56.92A3.82,3.82,0,0,1,426,100v4.61l1.54.24V106h-5v-1.11l1.55-.24V100a2.45,2.45,0,0,0-.55-1.74A2.19,2.19,0,0,0,422,97.7a2.87,2.87,0,0,0-1.4.34,3,3,0,0,0-1,.92v5.67l1.55.24V106h-5Z"/><path class="cls-3" d="M433.53,106.16a4.51,4.51,0,0,1-3.41-1.32,4.76,4.76,0,0,1-1.26-3.43V101a4.67,4.67,0,0,1,1.3-3.38,4.16,4.16,0,0,1,3.09-1.35,4.07,4.07,0,0,1,3.14,1.16,4.42,4.42,0,0,1,1.06,3.1v1.08h-6.66l0,0a3.59,3.59,0,0,0,.75,2.26,2.46,2.46,0,0,0,2,.88,5,5,0,0,0,1.67-.25,4,4,0,0,0,1.24-.69l.73,1.12a4.41,4.41,0,0,1-1.46.83A6.12,6.12,0,0,1,433.53,106.16Zm-.28-8.5a2.06,2.06,0,0,0-1.6.73,3.29,3.29,0,0,0-.82,1.84l0,0h4.73v-.23a2.55,2.55,0,0,0-.58-1.71A2.18,2.18,0,0,0,433.25,97.66Z"/><path class="cls-3" d="M443.91,104.81a2.7,2.7,0,0,0,1.64-.53,1.59,1.59,0,0,0,.7-1.31h1.68l0,.06a2.6,2.6,0,0,1-1.18,2.18,4.5,4.5,0,0,1-2.86,1,4.29,4.29,0,0,1-3.42-1.35,5,5,0,0,1-1.18-3.4V101a5,5,0,0,1,1.18-3.39,4.31,4.31,0,0,1,3.42-1.36,6.23,6.23,0,0,1,2.22.38,4.48,4.48,0,0,1,1.62,1l.09,2.11h-1.49l-.41-1.5a2.49,2.49,0,0,0-.85-.48,3.61,3.61,0,0,0-1.18-.18,2.29,2.29,0,0,0-2.1,1,4.33,4.33,0,0,0-.63,2.4v.37a4.39,4.39,0,0,0,.62,2.43A2.31,2.31,0,0,0,443.91,104.81Z"/><path class="cls-3" d="M449.77,104.87l1.55-.24v-6.8l-1.55-.24V96.47h3.42v8.16l1.55.24V106h-5ZM453.19,94h-1.87V92.27h1.87Z"/><path class="cls-3" d="M455.79,104.87l1.55-.24v-6.8l-1.55-.24V96.47H459l.12,1.24a3.42,3.42,0,0,1,1.27-1,4.27,4.27,0,0,1,1.81-.37,3.4,3.4,0,0,1,1.76.44,2.72,2.72,0,0,1,1.1,1.32,3.6,3.6,0,0,1,1.29-1.28,3.53,3.53,0,0,1,1.86-.48,3.21,3.21,0,0,1,2.48,1,4.32,4.32,0,0,1,.91,3v4.34l1.55.24V106h-5v-1.11l1.54-.24v-4.35a3,3,0,0,0-.52-2,2,2,0,0,0-1.54-.58,2,2,0,0,0-1.58.64,2.66,2.66,0,0,0-.68,1.6v4.69l1.54.24V106h-5v-1.11l1.55-.24v-4.35a2.92,2.92,0,0,0-.54-2,2,2,0,0,0-1.55-.62,2.72,2.72,0,0,0-1.41.33,2.18,2.18,0,0,0-.84.91v5.69l1.55.24V106h-5Z"/><path class="cls-3" d="M479.12,106.16a4.5,4.5,0,0,1-3.41-1.32,4.72,4.72,0,0,1-1.27-3.43V101a4.68,4.68,0,0,1,1.31-3.38,4.16,4.16,0,0,1,3.09-1.35A4,4,0,0,1,482,97.45a4.38,4.38,0,0,1,1.07,3.1v1.08h-6.66l0,0a3.59,3.59,0,0,0,.75,2.26,2.45,2.45,0,0,0,2,.88,5,5,0,0,0,1.67-.25,4,4,0,0,0,1.24-.69l.73,1.12a4.51,4.51,0,0,1-1.46.83A6.12,6.12,0,0,1,479.12,106.16Zm-.28-8.5a2.1,2.1,0,0,0-1.61.73,3.34,3.34,0,0,0-.81,1.84l0,0h4.73v-.23a2.51,2.51,0,0,0-.59-1.71A2.15,2.15,0,0,0,478.84,97.66Z"/><path class="cls-3" d="M484.61,104.87l1.54-.24v-6.8l-1.54-.24V96.47h3.22l.13,1.41A3.54,3.54,0,0,1,491,96.29a3.51,3.51,0,0,1,2.57.9,3.82,3.82,0,0,1,.91,2.79v4.65l1.55.24V106h-5v-1.11l1.55-.24V100a2.41,2.41,0,0,0-.54-1.78,2.24,2.24,0,0,0-1.64-.53A2.75,2.75,0,0,0,488,99v5.59l1.55.24V106h-5Z"/><path class="cls-3" d="M500.66,94.18v2.29h1.94v1.28h-1.94v5.78a1.23,1.23,0,0,0,.3.94,1.13,1.13,0,0,0,.79.27,4,4,0,0,0,.56,0l.51-.08.26,1.18a2.52,2.52,0,0,1-.78.26,5.07,5.07,0,0,1-1,.1,2.56,2.56,0,0,1-1.81-.63,2.64,2.64,0,0,1-.67-2V97.75h-1.62V96.47h1.62V94.18Z"/><path class="cls-3" d="M504.33,101.14a5,5,0,0,1,1.23-3.48,4.81,4.81,0,0,1,6.72,0,5,5,0,0,1,1.24,3.48v.19a4.93,4.93,0,0,1-1.24,3.48,4.31,4.31,0,0,1-3.35,1.35,4.36,4.36,0,0,1-3.37-1.35,5,5,0,0,1-1.23-3.48Zm1.87.19a4.26,4.26,0,0,0,.69,2.5,2.6,2.6,0,0,0,4.07,0,4.26,4.26,0,0,0,.69-2.5v-.19a4.25,4.25,0,0,0-.69-2.49,2.36,2.36,0,0,0-2-1,2.32,2.32,0,0,0-2,1,4.32,4.32,0,0,0-.68,2.49Z"/><path class="cls-3" d="M527,104.85a3.33,3.33,0,0,1-1.23,1,4.08,4.08,0,0,1-1.69.33,3.64,3.64,0,0,1-2.94-1.26,5,5,0,0,1-1-3.32v-.18a6,6,0,0,1,1-3.7,3.5,3.5,0,0,1,3-1.41,3.85,3.85,0,0,1,1.61.32,3.16,3.16,0,0,1,1.19.9V93.63l-1.55-.25V92.27h3.42v12.36l1.55.24V106h-3.17Zm-5-3.27a3.85,3.85,0,0,0,.63,2.31,2.28,2.28,0,0,0,2,.87,2.67,2.67,0,0,0,1.4-.35,2.83,2.83,0,0,0,.94-1V99a2.76,2.76,0,0,0-.94-1,2.64,2.64,0,0,0-1.38-.35,2.15,2.15,0,0,0-2,1,4.93,4.93,0,0,0-.64,2.67Z"/><path class="cls-3" d="M536.41,106.16a4.5,4.5,0,0,1-3.41-1.32,4.72,4.72,0,0,1-1.27-3.43V101A4.68,4.68,0,0,1,533,97.64a4.16,4.16,0,0,1,3.09-1.35,4,4,0,0,1,3.13,1.16,4.38,4.38,0,0,1,1.07,3.1v1.08h-6.66l0,0a3.59,3.59,0,0,0,.75,2.26,2.45,2.45,0,0,0,2,.88,5,5,0,0,0,1.67-.25,4,4,0,0,0,1.23-.69l.74,1.12a4.51,4.51,0,0,1-1.46.83A6.16,6.16,0,0,1,536.41,106.16Zm-.28-8.5a2.1,2.1,0,0,0-1.61.73,3.34,3.34,0,0,0-.81,1.84l0,0h4.73v-.23a2.51,2.51,0,0,0-.59-1.71A2.15,2.15,0,0,0,536.13,97.66Z"/><path class="cls-3" d="M553.18,93.18a5.08,5.08,0,0,1,3.44,1.06,3.76,3.76,0,0,1,0,5.56,5.13,5.13,0,0,1-3.44,1h-2.93v3.78l1.55.24V106h-5v-1.11l1.55-.24V94.54l-1.55-.24V93.18h6.35Zm-2.93,6.31h2.93a2.82,2.82,0,0,0,2.1-.7A2.36,2.36,0,0,0,556,97a2.4,2.4,0,0,0-.7-1.77,2.78,2.78,0,0,0-2.1-.72h-2.93Z"/><path class="cls-3" d="M566,106c-.06-.26-.1-.49-.14-.7s0-.41-.06-.61a4.5,4.5,0,0,1-1.35,1.07,3.75,3.75,0,0,1-1.74.42,3.64,3.64,0,0,1-2.44-.72,2.58,2.58,0,0,1-.83-2,2.31,2.31,0,0,1,1.18-2.09,6.12,6.12,0,0,1,3.24-.74h1.93v-1.1a1.67,1.67,0,0,0-.57-1.33,2.4,2.4,0,0,0-1.59-.48,4.17,4.17,0,0,0-1.23.16,2.39,2.39,0,0,0-.87.46l-.2,1h-1.44V97.44a5.33,5.33,0,0,1,1.69-.83,7.2,7.2,0,0,1,2.17-.32,4.55,4.55,0,0,1,2.83.83,2.8,2.8,0,0,1,1.08,2.36v4.94c0,.12,0,.24,0,.36l.76.09V106Zm-3-1.27a3.48,3.48,0,0,0,1.7-.41,2.69,2.69,0,0,0,1.1-1v-1.57h-2a3,3,0,0,0-1.82.5,1.42,1.42,0,0,0-.67,1.19,1.13,1.13,0,0,0,.42.95A2,2,0,0,0,562.94,104.71Z"/><path class="cls-3" d="M576.87,104.85a3.17,3.17,0,0,1-1.23,1,4,4,0,0,1-1.68.33A3.64,3.64,0,0,1,571,104.9a5,5,0,0,1-1.06-3.32v-.18A6,6,0,0,1,571,97.7a3.49,3.49,0,0,1,3-1.41,3.92,3.92,0,0,1,1.61.32,3.16,3.16,0,0,1,1.19.9V93.63l-1.55-.25V92.27h3.42v12.36l1.54.24V106H577Zm-5-3.27a3.79,3.79,0,0,0,.64,2.31,2.27,2.27,0,0,0,2,.87,2.68,2.68,0,0,0,1.41-.35,2.83,2.83,0,0,0,.94-1V99a2.85,2.85,0,0,0-.94-1,2.68,2.68,0,0,0-1.39-.35,2.17,2.17,0,0,0-2,1,5,5,0,0,0-.64,2.67Z"/><path class="cls-3" d="M581.62,97.59V96.47h3.22l.18,1.38a3.36,3.36,0,0,1,1.07-1.14,2.63,2.63,0,0,1,1.47-.42l.45,0,.36.07L588.12,98l-1.06,0a2.24,2.24,0,0,0-1.25.32,2.15,2.15,0,0,0-.78.9v5.46l1.55.24V106h-5v-1.11l1.54-.24v-6.8Z"/><path class="cls-3" d="M589.48,101.14a5,5,0,0,1,1.23-3.48,4.29,4.29,0,0,1,3.35-1.37,4.33,4.33,0,0,1,3.37,1.37,5,5,0,0,1,1.23,3.48v.19a5,5,0,0,1-1.23,3.48,4.86,4.86,0,0,1-6.72,0,5,5,0,0,1-1.23-3.48Zm7.79-8.51a1.95,1.95,0,0,1-2,2,2.93,2.93,0,0,1-1.41-.41,2.69,2.69,0,0,0-1.21-.41.91.91,0,0,0-.68.29.94.94,0,0,0-.28.69l-1-.23a2,2,0,0,1,.56-1.42,1.84,1.84,0,0,1,1.42-.6,3,3,0,0,1,1.32.41,3.15,3.15,0,0,0,1.3.41.92.92,0,0,0,.67-.28,1,1,0,0,0,.28-.7Zm-5.92,8.7a4.34,4.34,0,0,0,.68,2.5,2.36,2.36,0,0,0,2.05,1,2.32,2.32,0,0,0,2-1,4.26,4.26,0,0,0,.69-2.5v-.19a4.25,4.25,0,0,0-.69-2.49,2.59,2.59,0,0,0-4.07,0,4.25,4.25,0,0,0-.68,2.49Z"/><path class="cls-3" d="M605.06,106.16a4.5,4.5,0,0,1-3.41-1.32,4.72,4.72,0,0,1-1.27-3.43V101a4.68,4.68,0,0,1,1.31-3.38,4.16,4.16,0,0,1,3.09-1.35,4,4,0,0,1,3.13,1.16,4.38,4.38,0,0,1,1.07,3.1v1.08h-6.66l0,0a3.59,3.59,0,0,0,.75,2.26,2.45,2.45,0,0,0,2,.88,5,5,0,0,0,1.67-.25,4.14,4.14,0,0,0,1.24-.69l.73,1.12a4.51,4.51,0,0,1-1.46.83A6.12,6.12,0,0,1,605.06,106.16Zm-.28-8.5a2.1,2.1,0,0,0-1.61.73,3.34,3.34,0,0,0-.81,1.84l0,0h4.73v-.23a2.51,2.51,0,0,0-.59-1.71A2.15,2.15,0,0,0,604.78,97.66Z"/><path class="cls-3" d="M618.68,99.46h-1.4L617,98.32a2.44,2.44,0,0,0-.86-.48,3.51,3.51,0,0,0-1.17-.18,2.27,2.27,0,0,0-1.48.4,1.24,1.24,0,0,0-.48,1,1,1,0,0,0,.42.88,4.67,4.67,0,0,0,1.74.58,8,8,0,0,1,2.9,1,2.08,2.08,0,0,1,.94,1.78,2.38,2.38,0,0,1-1.1,2,4.91,4.91,0,0,1-2.89.78,8,8,0,0,1-2.1-.25,5.8,5.8,0,0,1-1.66-.72V103h1.41l.35,1.27a2,2,0,0,0,.87.4,5.45,5.45,0,0,0,1.14.12,2.81,2.81,0,0,0,1.56-.37,1.13,1.13,0,0,0,.57-1,1.15,1.15,0,0,0-.47-.94,4.75,4.75,0,0,0-1.78-.65,7.82,7.82,0,0,1-2.82-1,2,2,0,0,1-.95-1.76,2.42,2.42,0,0,1,1.07-2,4.45,4.45,0,0,1,2.77-.82,7.52,7.52,0,0,1,2.1.28,4.44,4.44,0,0,1,1.55.79Z"/><path class="cls-3" d="M632.62,106c-.07-.32-.13-.6-.16-.84a5.53,5.53,0,0,1,0-.71,4.48,4.48,0,0,1-1.52,1.24,4.59,4.59,0,0,1-2.14.49,3.44,3.44,0,0,1-2.33-.72,2.46,2.46,0,0,1-.83-2,2.37,2.37,0,0,1,1.23-2.09,6.11,6.11,0,0,1,3.32-.77h2.27V99.37a2,2,0,0,0-.71-1.6,3,3,0,0,0-2-.58,5.11,5.11,0,0,0-1.56.22A3.43,3.43,0,0,0,627,98l-.1,1.27H626V97.44a6,6,0,0,1,1.71-.83,6.9,6.9,0,0,1,2.11-.32,4.36,4.36,0,0,1,2.73.8,2.75,2.75,0,0,1,1,2.3v4.67c0,.2,0,.38,0,.56a4.35,4.35,0,0,0,.06.52l1,.07V106Zm-3.73-.75a4.28,4.28,0,0,0,2.17-.53,3.24,3.24,0,0,0,1.36-1.36v-1.9h-2.29a4.47,4.47,0,0,0-2.47.59,1.73,1.73,0,0,0-.93,1.5,1.51,1.51,0,0,0,.57,1.23A2.41,2.41,0,0,0,628.89,105.23Z"/><path class="cls-3" d="M222.22,127.58a7.1,7.1,0,0,1-.16-.84A5.52,5.52,0,0,1,222,126a4.38,4.38,0,0,1-1.52,1.24,4.52,4.52,0,0,1-2.13.49A3.45,3.45,0,0,1,216,127a2.45,2.45,0,0,1-.82-2,2.36,2.36,0,0,1,1.22-2.09,6.14,6.14,0,0,1,3.32-.77H222V121a1.94,1.94,0,0,0-.71-1.6,3,3,0,0,0-2-.58,5.57,5.57,0,0,0-1.57.21,3.73,3.73,0,0,0-1.18.59l-.09,1.27h-.94V119a6,6,0,0,1,1.7-.83,7,7,0,0,1,2.11-.32,4.37,4.37,0,0,1,2.74.8,2.74,2.74,0,0,1,1,2.3v4.67c0,.2,0,.38,0,.56a3,3,0,0,0,.07.52l1,.07v.77Zm-3.74-.75a4.26,4.26,0,0,0,2.17-.53,3.18,3.18,0,0,0,1.36-1.36V123h-2.29a4.49,4.49,0,0,0-2.47.6,1.72,1.72,0,0,0-.92,1.5,1.51,1.51,0,0,0,.57,1.23A2.38,2.38,0,0,0,218.48,126.83Z"/><path class="cls-3" d="M233.31,121h-.93l-.14-1.34a2.78,2.78,0,0,0-1.07-.64,4.63,4.63,0,0,0-1.5-.23,2.93,2.93,0,0,0-1.86.5,1.45,1.45,0,0,0-.63,1.16,1.34,1.34,0,0,0,.54,1.09,5.47,5.47,0,0,0,2.14.76,7.16,7.16,0,0,1,2.74,1,2.08,2.08,0,0,1,.91,1.78,2.25,2.25,0,0,1-1,1.92,4.68,4.68,0,0,1-2.75.73,7.16,7.16,0,0,1-2.08-.29,5,5,0,0,1-1.61-.83v-1.92H227l.16,1.36a2.76,2.76,0,0,0,1.15.61,5.84,5.84,0,0,0,1.46.19,3.26,3.26,0,0,0,1.94-.51,1.44,1.44,0,0,0,.72-1.21,1.51,1.51,0,0,0-.6-1.17,5,5,0,0,0-2.14-.81,7.77,7.77,0,0,1-2.72-1,2,2,0,0,1-.89-1.71,2.25,2.25,0,0,1,1-1.84,4.21,4.21,0,0,1,2.63-.76,6.4,6.4,0,0,1,2.06.32,4.33,4.33,0,0,1,1.53.87Z"/><path class="cls-3" d="M243,121h-.93l-.13-1.34a2.75,2.75,0,0,0-1.08-.64,4.53,4.53,0,0,0-1.49-.23,3,3,0,0,0-1.87.5,1.47,1.47,0,0,0-.62,1.16,1.34,1.34,0,0,0,.54,1.09,5.47,5.47,0,0,0,2.14.76,7.23,7.23,0,0,1,2.74,1,2.08,2.08,0,0,1,.91,1.78,2.24,2.24,0,0,1-1,1.92,4.63,4.63,0,0,1-2.74.73,7.16,7.16,0,0,1-2.08-.29,5.16,5.16,0,0,1-1.62-.83v-1.92h.92l.17,1.36a2.7,2.7,0,0,0,1.15.61,5.78,5.78,0,0,0,1.46.19,3.26,3.26,0,0,0,1.94-.51,1.43,1.43,0,0,0,.71-1.21,1.5,1.5,0,0,0-.59-1.17,5.11,5.11,0,0,0-2.14-.81,7.77,7.77,0,0,1-2.72-1,2,2,0,0,1-.89-1.71,2.25,2.25,0,0,1,1-1.84,4.19,4.19,0,0,1,2.63-.76,6.4,6.4,0,0,1,2.06.32,4.42,4.42,0,0,1,1.53.87Z"/><path class="cls-3" d="M245.31,122.68a4.85,4.85,0,0,1,1.25-3.44,4.7,4.7,0,0,1,6.59,0,4.85,4.85,0,0,1,1.25,3.44V123a4.9,4.9,0,0,1-1.24,3.45,4.73,4.73,0,0,1-6.6,0,4.86,4.86,0,0,1-1.25-3.45Zm1.14.29a4.32,4.32,0,0,0,.9,2.78,3,3,0,0,0,2.52,1.13,3,3,0,0,0,2.48-1.13,4.27,4.27,0,0,0,.91-2.78v-.29a4.32,4.32,0,0,0-.91-2.76,3.33,3.33,0,0,0-5,0,4.32,4.32,0,0,0-.9,2.76Z"/><path class="cls-3" d="M260.63,126.88a3.39,3.39,0,0,0,2-.6,1.9,1.9,0,0,0,.87-1.66h1l0,0a2.55,2.55,0,0,1-1.13,2.21,4.45,4.45,0,0,1-2.75.88,4.05,4.05,0,0,1-3.24-1.33,5.08,5.08,0,0,1-1.14-3.42v-.37a5.07,5.07,0,0,1,1.14-3.41,4.05,4.05,0,0,1,3.23-1.34,5.54,5.54,0,0,1,2.18.42,4.27,4.27,0,0,1,1.6,1.12l.05,2.08h-1l-.18-1.69a3.15,3.15,0,0,0-1.14-.75,3.92,3.92,0,0,0-1.54-.28,2.83,2.83,0,0,0-2.44,1.09,4.57,4.57,0,0,0-.79,2.76V123a4.68,4.68,0,0,0,.78,2.78A2.86,2.86,0,0,0,260.63,126.88Z"/><path class="cls-3" d="M266.55,126.81l1.55-.12V119l-1.55-.12v-.78h2.68v8.62l1.55.12v.77h-4.23Zm2.68-11.47H268.1v-1.47h1.13Z"/><path class="cls-3" d="M279.77,127.58c-.07-.32-.13-.6-.16-.84a5.53,5.53,0,0,1,0-.71,4.48,4.48,0,0,1-1.52,1.24,4.59,4.59,0,0,1-2.14.49,3.44,3.44,0,0,1-2.33-.72,2.46,2.46,0,0,1-.83-2A2.37,2.37,0,0,1,274,123a6.11,6.11,0,0,1,3.32-.77h2.27V121a2,2,0,0,0-.71-1.6,3,3,0,0,0-2-.58,5.45,5.45,0,0,0-1.56.21,3.62,3.62,0,0,0-1.18.59l-.1,1.27h-.94V119a6,6,0,0,1,1.71-.83,6.9,6.9,0,0,1,2.11-.32,4.36,4.36,0,0,1,2.73.8,2.75,2.75,0,0,1,1,2.3v4.67c0,.2,0,.38,0,.56a4.35,4.35,0,0,0,.06.52l1,.07v.77Zm-3.73-.75a4.28,4.28,0,0,0,2.17-.53,3.24,3.24,0,0,0,1.36-1.36V123h-2.29a4.47,4.47,0,0,0-2.47.6,1.73,1.73,0,0,0-.93,1.5,1.51,1.51,0,0,0,.57,1.23A2.41,2.41,0,0,0,276,126.83Z"/><path class="cls-3" d="M287.79,126.88a3.42,3.42,0,0,0,2-.6,1.92,1.92,0,0,0,.86-1.66h1l0,0a2.56,2.56,0,0,1-1.14,2.21,4.45,4.45,0,0,1-2.75.88,4,4,0,0,1-3.23-1.33,5,5,0,0,1-1.15-3.42v-.37a5,5,0,0,1,1.15-3.41,4,4,0,0,1,3.23-1.34,5.49,5.49,0,0,1,2.17.42,4.19,4.19,0,0,1,1.6,1.12l.05,2.08h-1l-.18-1.69a3.11,3.11,0,0,0-1.13-.75,4,4,0,0,0-1.54-.28,2.84,2.84,0,0,0-2.45,1.09,4.57,4.57,0,0,0-.79,2.76V123a4.62,4.62,0,0,0,.79,2.78A2.83,2.83,0,0,0,287.79,126.88Zm.3.78-.11.56a2.27,2.27,0,0,1,1.21.43,1.25,1.25,0,0,1,.47,1.07,1.45,1.45,0,0,1-.75,1.28,4,4,0,0,1-2.15.48l-.07-.68a3.38,3.38,0,0,0,1.43-.27.86.86,0,0,0,.59-.79.72.72,0,0,0-.39-.7,4.1,4.1,0,0,0-1.38-.27l.27-1.11Z"/><path class="cls-3" d="M300.88,127.58c-.07-.32-.13-.6-.16-.84a5.52,5.52,0,0,1-.05-.71,4.44,4.44,0,0,1-1.51,1.24,4.59,4.59,0,0,1-2.14.49,3.42,3.42,0,0,1-2.33-.72,2.43,2.43,0,0,1-.83-2,2.38,2.38,0,0,1,1.22-2.09,6.17,6.17,0,0,1,3.33-.77h2.26V121a2,2,0,0,0-.7-1.6,3,3,0,0,0-2-.58,5.45,5.45,0,0,0-1.56.21,3.62,3.62,0,0,0-1.18.59l-.1,1.27h-.94V119a6,6,0,0,1,1.7-.83,7,7,0,0,1,2.12-.32,4.36,4.36,0,0,1,2.73.8,2.74,2.74,0,0,1,1,2.3v4.67c0,.2,0,.38,0,.56a4.35,4.35,0,0,0,.06.52l1,.07v.77Zm.41-13.18a1.72,1.72,0,0,1-.52,1.29,1.79,1.79,0,0,1-1.3.51,2.52,2.52,0,0,1-1.43-.49,2.44,2.44,0,0,0-1.25-.48,1,1,0,0,0-.75.31,1.06,1.06,0,0,0-.3.78l-.75-.16a1.74,1.74,0,0,1,1.8-1.78,2.76,2.76,0,0,1,1.4.48,2.65,2.65,0,0,0,1.28.48,1,1,0,0,0,.75-.31,1.09,1.09,0,0,0,.31-.8Zm-4.15,12.43a4.29,4.29,0,0,0,2.18-.53,3.16,3.16,0,0,0,1.35-1.36V123h-2.28a4.53,4.53,0,0,0-2.48.6,1.74,1.74,0,0,0-.92,1.5,1.51,1.51,0,0,0,.57,1.23A2.4,2.4,0,0,0,297.14,126.83Z"/><path class="cls-3" d="M304.52,122.68a4.84,4.84,0,0,1,1.24-3.44,4.71,4.71,0,0,1,6.6,0,4.84,4.84,0,0,1,1.24,3.44V123a4.85,4.85,0,0,1-1.24,3.45,4.23,4.23,0,0,1-3.29,1.34,4.27,4.27,0,0,1-3.31-1.34,4.85,4.85,0,0,1-1.24-3.45Zm1.14.29a4.32,4.32,0,0,0,.9,2.78,3.33,3.33,0,0,0,5,0,4.32,4.32,0,0,0,.9-2.78v-.29a4.32,4.32,0,0,0-.9-2.76,3.33,3.33,0,0,0-5,0,4.32,4.32,0,0,0-.9,2.76Z"/><path class="cls-3" d="M327.32,126.21a3.56,3.56,0,0,1-1.32,1.15,4.19,4.19,0,0,1-1.9.4,3.5,3.5,0,0,1-2.88-1.27,5.23,5.23,0,0,1-1-3.4v-.19a5.89,5.89,0,0,1,1-3.64,3.44,3.44,0,0,1,2.9-1.37,3.93,3.93,0,0,1,1.86.42,3.72,3.72,0,0,1,1.31,1.19v-4.74l-1.55-.11v-.78h2.69v12.82l1.54.12v.77h-2.56Zm-6-3.12a4.59,4.59,0,0,0,.74,2.74,2.61,2.61,0,0,0,2.25,1,3.35,3.35,0,0,0,1.82-.46,3.09,3.09,0,0,0,1.15-1.25v-4.5a3.37,3.37,0,0,0-1.1-1.32,3.11,3.11,0,0,0-1.85-.51,2.53,2.53,0,0,0-2.26,1.14,5.25,5.25,0,0,0-.75,3Z"/><path class="cls-3" d="M336.25,127.76a4.27,4.27,0,0,1-3.21-1.31,4.6,4.6,0,0,1-1.27-3.34v-.49a4.7,4.7,0,0,1,1.27-3.38,4,4,0,0,1,3.06-1.35,4,4,0,0,1,3,1.11,4,4,0,0,1,1.08,3v.9H332.9v.26a4,4,0,0,0,.92,2.68,3.06,3.06,0,0,0,2.43,1.09,5.32,5.32,0,0,0,1.8-.28,3.53,3.53,0,0,0,1.28-.78l.49.72a4.13,4.13,0,0,1-1.47.89A6,6,0,0,1,336.25,127.76Zm-.15-9a2.85,2.85,0,0,0-2.12.89,3.74,3.74,0,0,0-1,2.24l0,0h6v-.26a2.9,2.9,0,0,0-.79-2.08A2.81,2.81,0,0,0,336.1,118.79Z"/><path class="cls-3" d="M354,127.58a7.1,7.1,0,0,1-.16-.84,4.17,4.17,0,0,1,0-.71,4.48,4.48,0,0,1-1.52,1.24,4.56,4.56,0,0,1-2.14.49,3.44,3.44,0,0,1-2.33-.72,2.46,2.46,0,0,1-.83-2A2.37,2.37,0,0,1,348.2,123a6.11,6.11,0,0,1,3.32-.77h2.27V121a2,2,0,0,0-.71-1.6,3,3,0,0,0-2-.58,5.45,5.45,0,0,0-1.56.21,3.62,3.62,0,0,0-1.18.59l-.1,1.27h-.94V119a6.18,6.18,0,0,1,1.71-.83,6.9,6.9,0,0,1,2.11-.32,4.36,4.36,0,0,1,2.73.8,2.75,2.75,0,0,1,1,2.3v4.67c0,.2,0,.38,0,.56a4.35,4.35,0,0,0,.06.52l1,.07v.77Zm-3.74-.75a4.28,4.28,0,0,0,2.17-.53,3.18,3.18,0,0,0,1.36-1.36V123H351.5a4.47,4.47,0,0,0-2.47.6,1.73,1.73,0,0,0-.93,1.5,1.49,1.49,0,0,0,.58,1.23A2.38,2.38,0,0,0,350.26,126.83Z"/><path class="cls-3" d="M357.4,114.65v-.78h2.68v12.82l1.55.12v.77H357.4v-.77l1.55-.12V114.76Z"/><path class="cls-3" d="M363.37,122.9a5.83,5.83,0,0,1,1.05-3.64,3.47,3.47,0,0,1,2.91-1.37,3.84,3.84,0,0,1,1.9.45,3.66,3.66,0,0,1,1.32,1.25l.13-1.52h1v9.39a3.93,3.93,0,0,1-1.07,2.9,4.06,4.06,0,0,1-3,1.06,8.19,8.19,0,0,1-1.58-.17,6.71,6.71,0,0,1-1.47-.45l.31-.89a7,7,0,0,0,1.29.42,6.6,6.6,0,0,0,1.43.15,2.86,2.86,0,0,0,2.2-.8,3.1,3.1,0,0,0,.74-2.22v-1.21a3.48,3.48,0,0,1-1.32,1.12,4.19,4.19,0,0,1-1.87.39,3.52,3.52,0,0,1-2.89-1.27,5.18,5.18,0,0,1-1.05-3.4Zm1.14.19a4.44,4.44,0,0,0,.76,2.73,2.59,2.59,0,0,0,2.25,1,3.41,3.41,0,0,0,1.85-.47,3,3,0,0,0,1.13-1.28v-4.41a3.32,3.32,0,0,0-1.09-1.36,3.07,3.07,0,0,0-1.87-.52,2.54,2.54,0,0,0-2.26,1.14,5.21,5.21,0,0,0-.77,3Z"/><path class="cls-3" d="M381.77,126a3.46,3.46,0,0,1-1.33,1.3,4.13,4.13,0,0,1-2,.45,3.22,3.22,0,0,1-2.53-1,4.57,4.57,0,0,1-.92-3.16V119l-1.27-.12v-.78h2.4v5.53a3.82,3.82,0,0,0,.64,2.49,2.24,2.24,0,0,0,1.82.76,3.56,3.56,0,0,0,2-.53,2.81,2.81,0,0,0,1.08-1.46V119l-1.46-.12v-.78h2.6v8.62l1.37.12v.77h-2.37Z"/><path class="cls-3" d="M385.67,118.85v-.78h2.55l.11,1.57a3.52,3.52,0,0,1,1.31-1.29,4.1,4.1,0,0,1,2-.46,3.45,3.45,0,0,1,2,.53,2.9,2.9,0,0,1,1.13,1.63,3.76,3.76,0,0,1,1.33-1.58,3.69,3.69,0,0,1,2.09-.58,3.23,3.23,0,0,1,2.54,1,4.62,4.62,0,0,1,.9,3.13v4.65l1.54.13v.77h-4.24v-.77l1.55-.13V122a3.69,3.69,0,0,0-.67-2.49,2.43,2.43,0,0,0-1.87-.72,2.64,2.64,0,0,0-2,.78,3.65,3.65,0,0,0-.89,2,.61.61,0,0,0,0,.14v5l1.55.12v.77h-4.23v-.77l1.54-.12V122a3.59,3.59,0,0,0-.68-2.47,2.4,2.4,0,0,0-1.86-.74,3,3,0,0,0-1.92.56,3,3,0,0,0-1,1.53v5.79l1.55.12v.77h-4.23v-.77l1.55-.12V119Z"/><path class="cls-3" d="M409.24,122.68a4.84,4.84,0,0,1,1.24-3.44,4.71,4.71,0,0,1,6.6,0,4.89,4.89,0,0,1,1.24,3.44V123a4.85,4.85,0,0,1-1.24,3.45,4.73,4.73,0,0,1-6.6,0,4.85,4.85,0,0,1-1.24-3.45Zm1.13.29a4.32,4.32,0,0,0,.91,2.78,3.33,3.33,0,0,0,5,0,4.32,4.32,0,0,0,.9-2.78v-.29a4.27,4.27,0,0,0-.91-2.76,3.32,3.32,0,0,0-5,0,4.32,4.32,0,0,0-.91,2.76Z"/><path class="cls-3" d="M429,123.09a5.16,5.16,0,0,1-1.05,3.4,3.49,3.49,0,0,1-2.87,1.27,4.32,4.32,0,0,1-1.95-.41,3.46,3.46,0,0,1-1.32-1.2l-.12,1.43h-1V114.76l-1.55-.11v-.78h2.68v5.69a3.59,3.59,0,0,1,1.31-1.23,3.89,3.89,0,0,1,1.9-.44,3.43,3.43,0,0,1,2.89,1.37A5.83,5.83,0,0,1,429,122.9Zm-1.15-.19a5.25,5.25,0,0,0-.76-3,2.52,2.52,0,0,0-2.24-1.14,3.12,3.12,0,0,0-1.92.54,3.24,3.24,0,0,0-1.08,1.4v4.3a3,3,0,0,0,1.13,1.31,3.38,3.38,0,0,0,1.89.49,2.6,2.6,0,0,0,2.23-1,4.52,4.52,0,0,0,.75-2.74Z"/><path class="cls-3" d="M433.82,128.36a3.17,3.17,0,0,1-.76,2.26,2.8,2.8,0,0,1-2.12.8,3,3,0,0,1-.54,0,3.59,3.59,0,0,1-.52-.13l.12-.89.41.09a2.79,2.79,0,0,0,.47.05,1.66,1.66,0,0,0,1.32-.54,2.35,2.35,0,0,0,.48-1.6V119l-1.55-.12v-.78h2.69Zm-.06-13.05h-1.14v-1.44h1.14Z"/><path class="cls-3" d="M440.78,127.76a4.23,4.23,0,0,1-3.2-1.31,4.61,4.61,0,0,1-1.28-3.34v-.49a4.74,4.74,0,0,1,1.27-3.38,4.06,4.06,0,0,1,3.06-1.35,4,4,0,0,1,3,1.11,4,4,0,0,1,1.08,3v.9h-7.25v.26a4,4,0,0,0,.93,2.68,3,3,0,0,0,2.42,1.09,5.34,5.34,0,0,0,1.81-.28,3.61,3.61,0,0,0,1.28-.78l.48.72a4,4,0,0,1-1.46.89A6,6,0,0,1,440.78,127.76Zm-.15-9a2.83,2.83,0,0,0-2.11.89,3.68,3.68,0,0,0-1,2.24l0,0h6v-.26a2.94,2.94,0,0,0-.79-2.08A2.83,2.83,0,0,0,440.63,118.79Z"/><path class="cls-3" d="M449.33,115.63v2.44h2.26v.86h-2.26v6.2a1.93,1.93,0,0,0,.36,1.32,1.27,1.27,0,0,0,1,.39l.54,0c.17,0,.38,0,.6-.08l.17.79a3.48,3.48,0,0,1-.69.17,5.52,5.52,0,0,1-.81.06,2.22,2.22,0,0,1-1.69-.63,2.83,2.83,0,0,1-.6-2v-6.2h-1.77v-.86h1.77v-2.44Z"/><path class="cls-3" d="M453.48,122.68a4.85,4.85,0,0,1,1.25-3.44,4.7,4.7,0,0,1,6.59,0,4.85,4.85,0,0,1,1.25,3.44V123a4.9,4.9,0,0,1-1.24,3.45,4.73,4.73,0,0,1-6.6,0,4.86,4.86,0,0,1-1.25-3.45Zm1.14.29a4.32,4.32,0,0,0,.9,2.78,3,3,0,0,0,2.52,1.13,3,3,0,0,0,2.48-1.13,4.27,4.27,0,0,0,.91-2.78v-.29a4.32,4.32,0,0,0-.91-2.76,3.33,3.33,0,0,0-5,0,4.32,4.32,0,0,0-.9,2.76Z"/><path class="cls-3" d="M469.3,122.41a12.18,12.18,0,0,1,1.32-5.72,7.44,7.44,0,0,1,2.94-3.38h.05l.25.64a7.14,7.14,0,0,0-2.4,3.21,12.67,12.67,0,0,0-1,5.22v.18a12.63,12.63,0,0,0,1,5.22,7.41,7.41,0,0,0,2.4,3.25l-.25.62h-.05a7.72,7.72,0,0,1-2.95-3.36,12.16,12.16,0,0,1-1.31-5.75Z"/><path class="cls-3" d="M475.18,122.68a4.84,4.84,0,0,1,1.24-3.44,4.71,4.71,0,0,1,6.6,0,4.84,4.84,0,0,1,1.24,3.44V123a4.85,4.85,0,0,1-1.24,3.45,4.23,4.23,0,0,1-3.29,1.34,4.27,4.27,0,0,1-3.31-1.34,4.85,4.85,0,0,1-1.24-3.45Zm1.14.29a4.32,4.32,0,0,0,.9,2.78,3.33,3.33,0,0,0,5,0,4.32,4.32,0,0,0,.9-2.78v-.29a4.32,4.32,0,0,0-.9-2.76,3.33,3.33,0,0,0-5,0,4.32,4.32,0,0,0-.9,2.76Z"/><path class="cls-3" d="M493.66,126a3.39,3.39,0,0,1-1.33,1.3,4.13,4.13,0,0,1-2,.45,3.22,3.22,0,0,1-2.53-1,4.62,4.62,0,0,1-.92-3.16V119l-1.27-.12v-.78H488v5.53a3.82,3.82,0,0,0,.64,2.49,2.24,2.24,0,0,0,1.82.76,3.56,3.56,0,0,0,2.05-.53,2.81,2.81,0,0,0,1.08-1.46V119l-1.46-.12v-.78h2.6v8.62l1.38.12v.77h-2.38Z"/><path class="cls-3" d="M502.23,118.85v-.78h2.5l.14,1.48a3.64,3.64,0,0,1,1.33-1.23,4.09,4.09,0,0,1,1.9-.43,3.45,3.45,0,0,1,2.9,1.37,5.89,5.89,0,0,1,1,3.64v.19a5.21,5.21,0,0,1-1,3.4,3.53,3.53,0,0,1-2.88,1.27,4.31,4.31,0,0,1-1.89-.38,3.51,3.51,0,0,1-1.33-1.08v4l1.55.11v.79h-4.22v-.79l1.55-.11V119Zm8.67,4.05a5.21,5.21,0,0,0-.77-3,2.59,2.59,0,0,0-2.28-1.14,3,3,0,0,0-3,1.82v4.57a3,3,0,0,0,1.13,1.23,3.46,3.46,0,0,0,1.84.45,2.66,2.66,0,0,0,2.26-1,4.46,4.46,0,0,0,.77-2.75Z"/><path class="cls-3" d="M521,127.58c-.07-.32-.13-.6-.16-.84a5.52,5.52,0,0,1-.05-.71,4.44,4.44,0,0,1-1.51,1.24,4.59,4.59,0,0,1-2.14.49,3.42,3.42,0,0,1-2.33-.72,2.46,2.46,0,0,1-.83-2,2.38,2.38,0,0,1,1.22-2.09,6.17,6.17,0,0,1,3.33-.77h2.26V121a2,2,0,0,0-.7-1.6,3,3,0,0,0-2-.58,5.45,5.45,0,0,0-1.56.21,3.62,3.62,0,0,0-1.18.59l-.1,1.27h-.94V119a6.12,6.12,0,0,1,1.7-.83,7,7,0,0,1,2.12-.32,4.36,4.36,0,0,1,2.73.8,2.74,2.74,0,0,1,1,2.3v4.67c0,.2,0,.38,0,.56a4.35,4.35,0,0,0,.06.52l1,.07v.77Zm-3.74-.75a4.29,4.29,0,0,0,2.18-.53,3.16,3.16,0,0,0,1.35-1.36V123h-2.28a4.47,4.47,0,0,0-2.47.6,1.73,1.73,0,0,0-.93,1.5,1.51,1.51,0,0,0,.57,1.23A2.4,2.4,0,0,0,517.24,126.83Z"/><path class="cls-3" d="M527.08,118.07l.14,1.58v.12a3.43,3.43,0,0,1,1.19-1.38,3.19,3.19,0,0,1,1.79-.5,2.86,2.86,0,0,1,.42,0l.34.07-.15,1-.85,0a2.73,2.73,0,0,0-1.76.56,3,3,0,0,0-1,1.53v5.68l1.55.12v.77h-4.23v-.77l1.55-.12V119l-1.55-.12v-.78h2.54Z"/><path class="cls-3" d="M535.34,115.63v2.44h2.26v.86h-2.26v6.2a1.93,1.93,0,0,0,.37,1.32,1.27,1.27,0,0,0,1,.39l.54,0,.6-.08.17.79a3.48,3.48,0,0,1-.69.17,5.66,5.66,0,0,1-.82.06,2.21,2.21,0,0,1-1.68-.63,2.83,2.83,0,0,1-.61-2v-6.2h-1.76v-.86h1.76v-2.44Z"/><path class="cls-3" d="M544.22,127.76a4.27,4.27,0,0,1-3.21-1.31,4.6,4.6,0,0,1-1.27-3.34v-.49a4.7,4.7,0,0,1,1.27-3.38,4,4,0,0,1,3.06-1.35,4,4,0,0,1,3,1.11,4,4,0,0,1,1.08,3v.9h-7.25v.26a4,4,0,0,0,.92,2.68,3.06,3.06,0,0,0,2.43,1.09,5.32,5.32,0,0,0,1.8-.28,3.53,3.53,0,0,0,1.28-.78l.49.72a4.13,4.13,0,0,1-1.47.89A6,6,0,0,1,544.22,127.76Zm-.15-9a2.85,2.85,0,0,0-2.12.89,3.74,3.74,0,0,0-1,2.24l0,0h6v-.26a2.9,2.9,0,0,0-.79-2.08A2.81,2.81,0,0,0,544.07,118.79Z"/><path class="cls-3" d="M562,126.21a3.41,3.41,0,0,1-1.32,1.15,4.15,4.15,0,0,1-1.89.4,3.5,3.5,0,0,1-2.88-1.27,5.17,5.17,0,0,1-1-3.4v-.19a5.83,5.83,0,0,1,1-3.64,3.42,3.42,0,0,1,2.89-1.37,3.94,3.94,0,0,1,1.87.42,3.61,3.61,0,0,1,1.3,1.19v-4.74l-1.54-.11v-.78h2.68v12.82l1.55.12v.77h-2.56Zm-6-3.12a4.52,4.52,0,0,0,.75,2.74,2.59,2.59,0,0,0,2.24,1,3.36,3.36,0,0,0,1.83-.46,3.06,3.06,0,0,0,1.14-1.25v-4.5a3.26,3.26,0,0,0-1.09-1.32,3.15,3.15,0,0,0-1.86-.51,2.51,2.51,0,0,0-2.25,1.14,5.25,5.25,0,0,0-.76,3Z"/><path class="cls-3" d="M570.94,127.76a4.23,4.23,0,0,1-3.2-1.31,4.61,4.61,0,0,1-1.28-3.34v-.49a4.74,4.74,0,0,1,1.27-3.38,4.06,4.06,0,0,1,3.06-1.35,4,4,0,0,1,3,1.11,4.05,4.05,0,0,1,1.09,3v.9h-7.26v.26a4,4,0,0,0,.93,2.68,3,3,0,0,0,2.42,1.09,5.34,5.34,0,0,0,1.81-.28,3.61,3.61,0,0,0,1.28-.78l.48.72a4,4,0,0,1-1.46.89A6,6,0,0,1,570.94,127.76Zm-.15-9a2.83,2.83,0,0,0-2.11.89,3.68,3.68,0,0,0-1,2.24l0,0h6v-.26a2.94,2.94,0,0,0-.79-2.08A2.83,2.83,0,0,0,570.79,118.79Z"/><path class="cls-3" d="M576.65,114.65v-.78h2.67v12.82l1.55.12v.77h-4.22v-.77l1.55-.12V114.76Z"/><path class="cls-3" d="M587.19,127.76a4.23,4.23,0,0,1-3.2-1.31,4.61,4.61,0,0,1-1.28-3.34v-.49a4.74,4.74,0,0,1,1.27-3.38,4.06,4.06,0,0,1,3.06-1.35,4,4,0,0,1,3,1.11,4,4,0,0,1,1.08,3v.9h-7.25v.26a4,4,0,0,0,.93,2.68,3,3,0,0,0,2.42,1.09,5.34,5.34,0,0,0,1.81-.28,3.61,3.61,0,0,0,1.28-.78l.48.72a4,4,0,0,1-1.46.89A6,6,0,0,1,587.19,127.76Zm-.15-9a2.83,2.83,0,0,0-2.11.89,3.68,3.68,0,0,0-1,2.24l0,0h6v-.26a2.94,2.94,0,0,0-.79-2.08A2.83,2.83,0,0,0,587,118.79Z"/><path class="cls-3" d="M596.86,122.54a12,12,0,0,1-1.31,5.75,7.84,7.84,0,0,1-2.95,3.36h-.05l-.24-.61a7.21,7.21,0,0,0,2.4-3.22,13,13,0,0,0,1-5.25v-.18a12.66,12.66,0,0,0-1-5.23,7.57,7.57,0,0,0-2.38-3.24l.24-.6h.05a7.65,7.65,0,0,1,2.94,3.39,12.18,12.18,0,0,1,1.32,5.72Z"/><path class="cls-3" d="M600.75,127.16a3.71,3.71,0,0,1-.36,1.58,4,4,0,0,1-1,1.31l-.68-.46a4.39,4.39,0,0,0,.66-1.15,3.42,3.42,0,0,0,.22-1.27v-1.24h1.13Z"/><path class="cls-3" d="M217.74,137.24v2.43H220v.86h-2.26v6.2a1.88,1.88,0,0,0,.37,1.32,1.25,1.25,0,0,0,1,.39l.53,0a5.41,5.41,0,0,0,.61-.08l.17.79a3.48,3.48,0,0,1-.69.17,5.76,5.76,0,0,1-.82.06,2.25,2.25,0,0,1-1.69-.63,2.83,2.83,0,0,1-.6-2v-6.2h-1.76v-.86h1.76v-2.43Z"/><path class="cls-3" d="M229.18,149.18a7.1,7.1,0,0,1-.16-.84,4.17,4.17,0,0,1-.05-.71,4.48,4.48,0,0,1-1.52,1.24,4.56,4.56,0,0,1-2.14.49,3.44,3.44,0,0,1-2.33-.72,2.46,2.46,0,0,1-.83-1.95,2.37,2.37,0,0,1,1.23-2.09,6.11,6.11,0,0,1,3.32-.77H229v-1.26a2,2,0,0,0-.71-1.6,3,3,0,0,0-2-.58,5.11,5.11,0,0,0-1.56.22,3.52,3.52,0,0,0-1.18.58l-.1,1.27h-.94v-1.82a6.18,6.18,0,0,1,1.71-.83,6.9,6.9,0,0,1,2.11-.32,4.36,4.36,0,0,1,2.73.8,2.75,2.75,0,0,1,1,2.3v4.67c0,.2,0,.38,0,.56a4.35,4.35,0,0,0,.06.52l1,.07v.77Zm-3.74-.75a4.38,4.38,0,0,0,2.17-.52,3.26,3.26,0,0,0,1.36-1.37v-1.9h-2.29a4.49,4.49,0,0,0-2.47.59,1.73,1.73,0,0,0-.93,1.5,1.49,1.49,0,0,0,.58,1.23A2.38,2.38,0,0,0,225.44,148.43Z"/><path class="cls-3" d="M232.6,148.41l1.55-.12v-7.72l-1.55-.12v-.78h2.56l.1,1.66a3.48,3.48,0,0,1,1.33-1.36,4,4,0,0,1,2-.48,3.31,3.31,0,0,1,2.55.95,4.24,4.24,0,0,1,.87,2.95v4.9l1.55.12v.77h-4.24v-.77l1.55-.12V143.4a3.3,3.3,0,0,0-.66-2.32,2.49,2.49,0,0,0-1.87-.67,3.08,3.08,0,0,0-2,.58,3.21,3.21,0,0,0-1.09,1.55v5.75l1.55.12v.77H232.6Z"/><path class="cls-3" d="M245.28,144.5a5.83,5.83,0,0,1,1.05-3.64,3.47,3.47,0,0,1,2.91-1.37,3.84,3.84,0,0,1,1.9.45,3.66,3.66,0,0,1,1.32,1.25l.13-1.52h1v9.39a3.93,3.93,0,0,1-1.07,2.9,4.06,4.06,0,0,1-3,1.06,8.27,8.27,0,0,1-1.58-.17,6.71,6.71,0,0,1-1.47-.45l.31-.89a7,7,0,0,0,1.29.42,6.6,6.6,0,0,0,1.43.15,2.86,2.86,0,0,0,2.2-.8,3.15,3.15,0,0,0,.74-2.22v-1.21a3.48,3.48,0,0,1-1.32,1.12,4.19,4.19,0,0,1-1.87.39,3.52,3.52,0,0,1-2.89-1.27,5.18,5.18,0,0,1-1.05-3.4Zm1.14.19a4.49,4.49,0,0,0,.76,2.74,2.61,2.61,0,0,0,2.25,1,3.41,3.41,0,0,0,1.85-.47,3,3,0,0,0,1.13-1.28v-4.41a3.4,3.4,0,0,0-1.09-1.36,3.07,3.07,0,0,0-1.87-.52,2.54,2.54,0,0,0-2.26,1.14,5.21,5.21,0,0,0-.77,2.95Z"/><path class="cls-3" d="M256.07,140.45v-.78h2.67v8.62l1.55.12v.77h-4.22v-.77l1.54-.12v-7.72Zm3.15-4.3h1.39l0,0-2.36,2.28h-1Z"/><path class="cls-3" d="M265.16,140.45l-1.28.09,2.56,6.26.33,1.11h.06l.36-1.11,2.52-6.26-1.28-.09v-.78h3.46v.78l-1,.08-3.62,8.65h-.91l-3.64-8.65-1-.08v-.78h3.46Z"/><path class="cls-3" d="M277.54,149.36a4.23,4.23,0,0,1-3.2-1.31,4.61,4.61,0,0,1-1.28-3.34v-.49a4.76,4.76,0,0,1,1.27-3.38,4.06,4.06,0,0,1,3.06-1.35,4,4,0,0,1,3,1.11,4.05,4.05,0,0,1,1.09,3v.9h-7.26v.26a4,4,0,0,0,.93,2.68,3,3,0,0,0,2.42,1.09,5.1,5.1,0,0,0,1.81-.28,3.61,3.61,0,0,0,1.28-.78l.48.72a4,4,0,0,1-1.46.89A6,6,0,0,1,277.54,149.36Zm-.15-9a2.83,2.83,0,0,0-2.11.89,3.68,3.68,0,0,0-1,2.24l0,0h6v-.26a2.9,2.9,0,0,0-.79-2.07A2.8,2.8,0,0,0,277.39,140.39Z"/><path class="cls-3" d="M283.25,136.25v-.78h2.68v12.82l1.54.12v.77h-4.22v-.77l1.55-.12V136.36Z"/><path class="cls-3" d="M294,144.28a4.87,4.87,0,0,1,1.25-3.44,4.7,4.7,0,0,1,6.59,0,4.87,4.87,0,0,1,1.25,3.44v.29a4.9,4.9,0,0,1-1.24,3.45,4.73,4.73,0,0,1-6.6,0,4.86,4.86,0,0,1-1.25-3.45Zm1.14.29a4.3,4.3,0,0,0,.9,2.78,3.34,3.34,0,0,0,5,0,4.3,4.3,0,0,0,.9-2.78v-.29a4.32,4.32,0,0,0-.91-2.76,3.33,3.33,0,0,0-5,0,4.32,4.32,0,0,0-.9,2.76Z"/><path class="cls-3" d="M312.47,147.61a3.37,3.37,0,0,1-1.32,1.3,4.13,4.13,0,0,1-2,.45,3.24,3.24,0,0,1-2.54-1,4.62,4.62,0,0,1-.92-3.16v-4.61l-1.27-.12v-.78h2.4v5.53a3.88,3.88,0,0,0,.64,2.49,2.25,2.25,0,0,0,1.82.76,3.59,3.59,0,0,0,2.06-.53,2.74,2.74,0,0,0,1.07-1.46v-5.89l-1.46-.12v-.78h2.6v8.62l1.38.12v.77h-2.37Z"/><path class="cls-3" d="M325.73,148.48a3.44,3.44,0,0,0,2-.6,1.92,1.92,0,0,0,.86-1.66h1l0,.05a2.53,2.53,0,0,1-1.13,2.21,4.45,4.45,0,0,1-2.75.88A4,4,0,0,1,322.5,148a5,5,0,0,1-1.15-3.42v-.37a5,5,0,0,1,1.15-3.41,4,4,0,0,1,3.22-1.34,5.54,5.54,0,0,1,2.18.42,4.27,4.27,0,0,1,1.6,1.12l.05,2.08h-1l-.18-1.69a3.06,3.06,0,0,0-1.14-.75,3.92,3.92,0,0,0-1.54-.28,2.83,2.83,0,0,0-2.44,1.09,4.57,4.57,0,0,0-.79,2.76v.37a4.68,4.68,0,0,0,.78,2.78A2.86,2.86,0,0,0,325.73,148.48Z"/><path class="cls-3" d="M331.73,144.28a4.86,4.86,0,0,1,1.24-3.44,4.71,4.71,0,0,1,6.6,0,4.86,4.86,0,0,1,1.24,3.44v.29a4.85,4.85,0,0,1-1.24,3.45,4.22,4.22,0,0,1-3.28,1.34A4.3,4.3,0,0,1,333,148a4.85,4.85,0,0,1-1.24-3.45Zm1.14.29a4.3,4.3,0,0,0,.9,2.78,3,3,0,0,0,2.52,1.13,3,3,0,0,0,2.48-1.13,4.3,4.3,0,0,0,.9-2.78v-.29a4.32,4.32,0,0,0-.9-2.76,3.33,3.33,0,0,0-5,0,4.32,4.32,0,0,0-.9,2.76Z"/><path class="cls-3" d="M342.46,148.41l1.54-.12v-7.72l-1.54-.12v-.78H345l.1,1.66a3.5,3.5,0,0,1,1.34-1.36,3.92,3.92,0,0,1,2-.48,3.3,3.3,0,0,1,2.55.95,4.24,4.24,0,0,1,.87,2.95v4.9l1.55.12v.77h-4.23v-.77l1.54-.12V143.4a3.3,3.3,0,0,0-.66-2.32,2.49,2.49,0,0,0-1.87-.67,3.08,3.08,0,0,0-1.95.58,3.28,3.28,0,0,0-1.09,1.55v5.75l1.55.12v.77h-4.23Z"/><path class="cls-3" d="M359.47,148.48a3.42,3.42,0,0,0,2-.6,1.92,1.92,0,0,0,.86-1.66h1v.05a2.53,2.53,0,0,1-1.13,2.21,4.45,4.45,0,0,1-2.75.88,4,4,0,0,1-3.23-1.33,5,5,0,0,1-1.15-3.42v-.37a5,5,0,0,1,1.15-3.41,4,4,0,0,1,3.22-1.34,5.54,5.54,0,0,1,2.18.42,4.19,4.19,0,0,1,1.6,1.12l.05,2.08h-1l-.18-1.69a3.11,3.11,0,0,0-1.13-.75,4,4,0,0,0-1.55-.28,2.83,2.83,0,0,0-2.44,1.09,4.57,4.57,0,0,0-.79,2.76v.37a4.62,4.62,0,0,0,.79,2.78A2.83,2.83,0,0,0,359.47,148.48Z"/><path class="cls-3" d="M370,149.36a4.27,4.27,0,0,1-3.21-1.31,4.6,4.6,0,0,1-1.27-3.34v-.49a4.72,4.72,0,0,1,1.27-3.38,4,4,0,0,1,3.06-1.35,4,4,0,0,1,3,1.11,4,4,0,0,1,1.08,3v.9h-7.25v.26a4,4,0,0,0,.92,2.68,3.06,3.06,0,0,0,2.43,1.09,5.08,5.08,0,0,0,1.8-.28,3.53,3.53,0,0,0,1.28-.78l.49.72a4.18,4.18,0,0,1-1.46.89A6,6,0,0,1,370,149.36Zm-.15-9a2.82,2.82,0,0,0-2.11.89,3.69,3.69,0,0,0-1,2.24l0,0h6v-.26a2.86,2.86,0,0,0-.79-2.07A2.76,2.76,0,0,0,369.85,140.39Z"/><path class="cls-3" d="M375.85,148.41l1.55-.12v-7.72l-1.55-.12v-.78h2.68v8.62l1.55.12v.77h-4.23ZM378.53,137H377.4v-1.48h1.13Z"/><path class="cls-3" d="M384.6,137.24v2.43h2.26v.86H384.6v6.2a1.93,1.93,0,0,0,.36,1.32,1.28,1.28,0,0,0,1,.39l.54,0a5.26,5.26,0,0,0,.6-.08l.17.79a3.31,3.31,0,0,1-.69.17,5.52,5.52,0,0,1-.81.06,2.22,2.22,0,0,1-1.69-.63,2.83,2.83,0,0,1-.6-2v-6.2h-1.77v-.86h1.77v-2.43Z"/><path class="cls-3" d="M396.49,147.61a3.37,3.37,0,0,1-1.32,1.3,4.16,4.16,0,0,1-2,.45,3.23,3.23,0,0,1-2.54-1,4.62,4.62,0,0,1-.92-3.16v-4.61l-1.27-.12v-.78h2.4v5.53a3.82,3.82,0,0,0,.64,2.49,2.24,2.24,0,0,0,1.82.76,3.56,3.56,0,0,0,2.05-.53,2.81,2.81,0,0,0,1.08-1.46v-5.89l-1.46-.12v-.78h2.6v8.62l1.38.12v.77h-2.38Z"/><path class="cls-3" d="M407.73,149.18a7.1,7.1,0,0,1-.16-.84,4.17,4.17,0,0,1-.05-.71,4.48,4.48,0,0,1-1.52,1.24,4.56,4.56,0,0,1-2.14.49,3.44,3.44,0,0,1-2.33-.72,2.46,2.46,0,0,1-.83-1.95,2.37,2.37,0,0,1,1.23-2.09,6.11,6.11,0,0,1,3.32-.77h2.27v-1.26a2,2,0,0,0-.71-1.6,3,3,0,0,0-2-.58,5.11,5.11,0,0,0-1.56.22,3.52,3.52,0,0,0-1.18.58l-.1,1.27h-.94v-1.82a6.18,6.18,0,0,1,1.71-.83,6.9,6.9,0,0,1,2.11-.32,4.36,4.36,0,0,1,2.73.8,2.75,2.75,0,0,1,1,2.3v4.67c0,.2,0,.38,0,.56a4.35,4.35,0,0,0,.06.52l1,.07v.77Zm-3.74-.75a4.38,4.38,0,0,0,2.17-.52,3.26,3.26,0,0,0,1.36-1.37v-1.9h-2.29a4.49,4.49,0,0,0-2.47.59,1.73,1.73,0,0,0-.93,1.5,1.49,1.49,0,0,0,.58,1.23A2.38,2.38,0,0,0,404,148.43Z"/><path class="cls-3" d="M411.13,136.25v-.78h2.68v12.82l1.55.12v.77h-4.23v-.77l1.55-.12V136.36Z"/><path class="cls-3" d="M418.8,148.76a3.86,3.86,0,0,1-.35,1.58,3.76,3.76,0,0,1-1,1.31l-.67-.46a4.24,4.24,0,0,0,.66-1.15,3.62,3.62,0,0,0,.21-1.26v-1.25h1.13Z"/><path class="cls-3" d="M430,148.48a3.42,3.42,0,0,0,2-.6,1.92,1.92,0,0,0,.86-1.66h1l0,.05a2.56,2.56,0,0,1-1.14,2.21,4.45,4.45,0,0,1-2.75.88,4,4,0,0,1-3.23-1.33,5,5,0,0,1-1.15-3.42v-.37a5,5,0,0,1,1.15-3.41,4,4,0,0,1,3.22-1.34,5.5,5.5,0,0,1,2.18.42,4.19,4.19,0,0,1,1.6,1.12l.05,2.08h-1l-.18-1.69a3.11,3.11,0,0,0-1.13-.75,4,4,0,0,0-1.55-.28,2.83,2.83,0,0,0-2.44,1.09,4.57,4.57,0,0,0-.79,2.76v.37a4.62,4.62,0,0,0,.79,2.78A2.83,2.83,0,0,0,430,148.48Z"/><path class="cls-3" d="M436,144.28a4.87,4.87,0,0,1,1.25-3.44,4.7,4.7,0,0,1,6.59,0,4.87,4.87,0,0,1,1.25,3.44v.29a4.9,4.9,0,0,1-1.24,3.45,4.73,4.73,0,0,1-6.6,0,4.86,4.86,0,0,1-1.25-3.45Zm1.14.29a4.3,4.3,0,0,0,.9,2.78,3,3,0,0,0,2.52,1.13,3,3,0,0,0,2.48-1.13,4.25,4.25,0,0,0,.91-2.78v-.29a4.32,4.32,0,0,0-.91-2.76,3.33,3.33,0,0,0-5,0,4.32,4.32,0,0,0-.9,2.76Z"/><path class="cls-3" d="M446.67,140.45v-.78h2.55l.11,1.57a3.55,3.55,0,0,1,1.32-1.29,4,4,0,0,1,2-.46,3.43,3.43,0,0,1,2,.54,2.93,2.93,0,0,1,1.13,1.62,3.74,3.74,0,0,1,1.32-1.58,3.69,3.69,0,0,1,2.09-.58,3.23,3.23,0,0,1,2.54,1,4.62,4.62,0,0,1,.9,3.13v4.65l1.54.13v.77h-4.24v-.77l1.55-.13v-4.66a3.64,3.64,0,0,0-.67-2.49,2.43,2.43,0,0,0-1.86-.72,2.65,2.65,0,0,0-2.05.78,3.65,3.65,0,0,0-.89,2,.57.57,0,0,0,0,.13v5l1.55.12v.77h-4.23v-.77l1.54-.12v-4.67a3.59,3.59,0,0,0-.68-2.47,2.4,2.4,0,0,0-1.86-.74,2.74,2.74,0,0,0-2.91,2.09v5.79l1.54.12v.77h-4.23v-.77l1.55-.12v-7.72Z"/><path class="cls-3" d="M469.93,140.45v-.78h2.5l.14,1.48a3.64,3.64,0,0,1,1.33-1.23,4.14,4.14,0,0,1,1.91-.43,3.43,3.43,0,0,1,2.89,1.37,5.83,5.83,0,0,1,1.05,3.64v.19a5.16,5.16,0,0,1-1.05,3.4,3.49,3.49,0,0,1-2.87,1.27,4.36,4.36,0,0,1-1.9-.38,3.41,3.41,0,0,1-1.32-1.08v4l1.55.11v.79h-4.23v-.79l1.55-.11V140.57Zm8.68,4.05a5.14,5.14,0,0,0-.78-2.95,2.59,2.59,0,0,0-2.28-1.14,3.2,3.2,0,0,0-1.86.5,3.16,3.16,0,0,0-1.08,1.32v4.57a3,3,0,0,0,1.12,1.23,3.48,3.48,0,0,0,1.84.45,2.64,2.64,0,0,0,2.26-1,4.46,4.46,0,0,0,.78-2.75Z"/><path class="cls-3" d="M488.69,149.18a7.1,7.1,0,0,1-.16-.84,4.17,4.17,0,0,1,0-.71,4.48,4.48,0,0,1-1.52,1.24,4.53,4.53,0,0,1-2.14.49,3.44,3.44,0,0,1-2.33-.72,2.46,2.46,0,0,1-.83-1.95,2.37,2.37,0,0,1,1.23-2.09,6.11,6.11,0,0,1,3.32-.77h2.27v-1.26a2,2,0,0,0-.71-1.6,3,3,0,0,0-2-.58,5.11,5.11,0,0,0-1.56.22,3.52,3.52,0,0,0-1.18.58l-.09,1.27H482v-1.82a6.18,6.18,0,0,1,1.71-.83,6.9,6.9,0,0,1,2.11-.32,4.36,4.36,0,0,1,2.73.8,2.75,2.75,0,0,1,1,2.3v4.67c0,.2,0,.38,0,.56a4.35,4.35,0,0,0,.06.52l1,.07v.77Zm-3.74-.75a4.36,4.36,0,0,0,2.17-.52,3.26,3.26,0,0,0,1.36-1.37v-1.9h-2.29a4.49,4.49,0,0,0-2.47.59,1.73,1.73,0,0,0-.93,1.5,1.49,1.49,0,0,0,.58,1.23A2.38,2.38,0,0,0,485,148.43Z"/><path class="cls-3" d="M499.46,147.81a3.41,3.41,0,0,1-1.32,1.15,4.19,4.19,0,0,1-1.9.4,3.51,3.51,0,0,1-2.88-1.27,5.23,5.23,0,0,1-1-3.4v-.19a5.89,5.89,0,0,1,1-3.64,3.44,3.44,0,0,1,2.9-1.37,3.87,3.87,0,0,1,1.86.42,3.64,3.64,0,0,1,1.31,1.19v-4.74l-1.55-.11v-.78h2.69v12.82l1.55.12v.77h-2.56Zm-6-3.12a4.52,4.52,0,0,0,.75,2.74,2.58,2.58,0,0,0,2.24,1,3.36,3.36,0,0,0,1.83-.46,3.06,3.06,0,0,0,1.14-1.25v-4.5a3.34,3.34,0,0,0-1.09-1.32,3.15,3.15,0,0,0-1.86-.51,2.51,2.51,0,0,0-2.25,1.14,5.19,5.19,0,0,0-.76,2.95Z"/><path class="cls-3" d="M506.32,139.67l.14,1.58v.12a3.5,3.5,0,0,1,1.19-1.38,3.21,3.21,0,0,1,1.79-.5,2,2,0,0,1,.43,0l.33.06-.15,1-.84,0a2.69,2.69,0,0,0-1.76.56,3.05,3.05,0,0,0-1,1.53v5.68l1.55.12v.77h-4.22v-.77l1.54-.12v-7.72l-1.54-.12v-.78h2.53Z"/><path class="cls-3" d="M511.49,144.28a4.86,4.86,0,0,1,1.24-3.44,4.71,4.71,0,0,1,6.6,0,4.91,4.91,0,0,1,1.24,3.44v.29a4.85,4.85,0,0,1-1.24,3.45,4.73,4.73,0,0,1-6.6,0,4.85,4.85,0,0,1-1.24-3.45Zm1.13.29a4.3,4.3,0,0,0,.91,2.78,3.33,3.33,0,0,0,5,0,4.3,4.3,0,0,0,.9-2.78v-.29a4.27,4.27,0,0,0-.91-2.76,3.32,3.32,0,0,0-5,0,4.32,4.32,0,0,0-.91,2.76Zm6.69-8.56a1.73,1.73,0,0,1-.53,1.29,1.77,1.77,0,0,1-1.3.51,2.56,2.56,0,0,1-1.43-.49,2.41,2.41,0,0,0-1.24-.48,1,1,0,0,0-.75.31,1,1,0,0,0-.31.78l-.75-.16a1.73,1.73,0,0,1,.51-1.27,1.76,1.76,0,0,1,1.3-.51,2.79,2.79,0,0,1,1.4.48,2.62,2.62,0,0,0,1.27.48,1,1,0,0,0,.75-.31,1.09,1.09,0,0,0,.32-.8Z"/><path class="cls-3" d="M527,149.36a4.27,4.27,0,0,1-3.21-1.31,4.6,4.6,0,0,1-1.27-3.34v-.49a4.75,4.75,0,0,1,1.26-3.38,4.06,4.06,0,0,1,3.06-1.35,4,4,0,0,1,3,1.11,4,4,0,0,1,1.08,3v.9H523.6v.26a4,4,0,0,0,.92,2.68,3.06,3.06,0,0,0,2.43,1.09,5.08,5.08,0,0,0,1.8-.28,3.53,3.53,0,0,0,1.28-.78l.49.72a4.13,4.13,0,0,1-1.47.89A6,6,0,0,1,527,149.36Zm-.16-9a2.85,2.85,0,0,0-2.11.89,3.74,3.74,0,0,0-1,2.24l0,0h6v-.26a2.86,2.86,0,0,0-.79-2.07A2.8,2.8,0,0,0,526.79,140.39Z"/><path class="cls-3" d="M540.33,142.61h-.93l-.13-1.35a3,3,0,0,0-1.08-.64,4.55,4.55,0,0,0-1.5-.23,2.93,2.93,0,0,0-1.86.5,1.44,1.44,0,0,0-.62,1.16,1.36,1.36,0,0,0,.53,1.09,5.47,5.47,0,0,0,2.14.76,7.29,7.29,0,0,1,2.75,1,2.1,2.1,0,0,1,.91,1.78,2.26,2.26,0,0,1-1,1.92,4.66,4.66,0,0,1-2.75.73,6.73,6.73,0,0,1-2.07-.29,5,5,0,0,1-1.62-.83v-1.92H534l.16,1.36a2.76,2.76,0,0,0,1.15.61,5.84,5.84,0,0,0,1.46.19,3.39,3.39,0,0,0,2-.5,1.48,1.48,0,0,0,.71-1.22,1.51,1.51,0,0,0-.6-1.17,5,5,0,0,0-2.14-.81,7.71,7.71,0,0,1-2.71-1,2,2,0,0,1-.89-1.71,2.23,2.23,0,0,1,1-1.84,4.21,4.21,0,0,1,2.63-.76,6.47,6.47,0,0,1,2.07.32,4.37,4.37,0,0,1,1.52.87Z"/><path class="cls-3" d="M547.17,140.53v-.86h1.7v-1.39a3,3,0,0,1,.78-2.21,2.89,2.89,0,0,1,2.17-.79,4.7,4.7,0,0,1,.63.05l.65.12-.14.87-.46-.08a4.61,4.61,0,0,0-.56,0,1.85,1.85,0,0,0-1.43.54,2.18,2.18,0,0,0-.5,1.53v1.39h2.45v.86H550v7.76l1.55.12v.77h-4.24v-.77l1.55-.12v-7.76Z"/><path class="cls-3" d="M561.3,149.18c-.07-.32-.13-.6-.16-.84a5.53,5.53,0,0,1,0-.71,4.48,4.48,0,0,1-1.52,1.24,4.59,4.59,0,0,1-2.14.49,3.42,3.42,0,0,1-2.33-.72,2.46,2.46,0,0,1-.83-1.95,2.37,2.37,0,0,1,1.23-2.09,6.11,6.11,0,0,1,3.32-.77h2.27v-1.26a2,2,0,0,0-.71-1.6,3,3,0,0,0-2-.58,5.11,5.11,0,0,0-1.56.22,3.43,3.43,0,0,0-1.18.58l-.1,1.27h-.94v-1.82a6,6,0,0,1,1.71-.83,6.9,6.9,0,0,1,2.11-.32,4.36,4.36,0,0,1,2.73.8,2.75,2.75,0,0,1,1,2.3v4.67c0,.2,0,.38,0,.56a4.35,4.35,0,0,0,.06.52l1,.07v.77Zm-3.74-.75a4.39,4.39,0,0,0,2.18-.52,3.32,3.32,0,0,0,1.36-1.37v-1.9h-2.29a4.47,4.47,0,0,0-2.47.59,1.73,1.73,0,0,0-.93,1.5A1.51,1.51,0,0,0,556,148,2.4,2.4,0,0,0,557.56,148.43Z"/><path class="cls-3" d="M564.69,140.45v-.78h2.55l.11,1.57a3.55,3.55,0,0,1,1.32-1.29,4,4,0,0,1,2-.46,3.41,3.41,0,0,1,2,.54,2.93,2.93,0,0,1,1.13,1.62,3.74,3.74,0,0,1,1.32-1.58,3.69,3.69,0,0,1,2.09-.58,3.21,3.21,0,0,1,2.54,1,4.62,4.62,0,0,1,.9,3.13v4.65l1.55.13v.77h-4.25v-.77l1.55-.13v-4.66a3.64,3.64,0,0,0-.67-2.49,2.41,2.41,0,0,0-1.86-.72,2.65,2.65,0,0,0-2,.78,3.57,3.57,0,0,0-.88,2v5.1l1.55.12v.77h-4.23v-.77l1.55-.12v-4.67a3.65,3.65,0,0,0-.68-2.47,2.44,2.44,0,0,0-1.87-.74,2.74,2.74,0,0,0-2.91,2.09v5.79l1.55.12v.77h-4.24v-.77l1.55-.12v-7.72Z"/><path class="cls-3" d="M583.46,148.41l1.54-.12v-7.72l-1.54-.12v-.78h2.67v8.62l1.55.12v.77h-4.22ZM586.13,137H585v-1.48h1.13Z"/><path class="cls-3" d="M589.36,136.25v-.78H592v12.82l1.54.12v.77h-4.22v-.77l1.55-.12V136.36Z"/><path class="cls-3" d="M595.3,148.41l1.55-.12v-7.72l-1.55-.12v-.78H598v8.62l1.55.12v.77H595.3ZM598,137h-1.13v-1.48H598Z"/><path class="cls-3" d="M608.52,149.18c-.07-.32-.13-.6-.16-.84a5.52,5.52,0,0,1-.05-.71,4.44,4.44,0,0,1-1.51,1.24,4.59,4.59,0,0,1-2.14.49,3.42,3.42,0,0,1-2.33-.72,2.46,2.46,0,0,1-.83-1.95,2.37,2.37,0,0,1,1.23-2.09,6.11,6.11,0,0,1,3.32-.77h2.26v-1.26a2,2,0,0,0-.7-1.6,3,3,0,0,0-2-.58,5.11,5.11,0,0,0-1.56.22,3.43,3.43,0,0,0-1.18.58l-.1,1.27h-.94v-1.82a6.12,6.12,0,0,1,1.7-.83,7,7,0,0,1,2.12-.32,4.36,4.36,0,0,1,2.73.8,2.74,2.74,0,0,1,1,2.3v4.67c0,.2,0,.38,0,.56a4.35,4.35,0,0,0,.06.52l1,.07v.77Zm-3.74-.75a4.39,4.39,0,0,0,2.18-.52,3.23,3.23,0,0,0,1.35-1.37v-1.9H606a4.47,4.47,0,0,0-2.47.59,1.73,1.73,0,0,0-.93,1.5,1.51,1.51,0,0,0,.57,1.23A2.4,2.4,0,0,0,604.78,148.43Z"/><path class="cls-3" d="M614.62,139.67l.14,1.58v.12A3.43,3.43,0,0,1,616,140a3.19,3.19,0,0,1,1.79-.5,1.93,1.93,0,0,1,.42,0l.34.06-.15,1-.85,0a2.73,2.73,0,0,0-1.76.56,3,3,0,0,0-1,1.53v5.68l1.55.12v.77h-4.23v-.77l1.55-.12v-7.72l-1.55-.12v-.78h2.54Z"/><path class="cls-3" d="M624.32,149.36a4.27,4.27,0,0,1-3.21-1.31,4.6,4.6,0,0,1-1.27-3.34v-.49a4.75,4.75,0,0,1,1.26-3.38,4.06,4.06,0,0,1,3.06-1.35,4,4,0,0,1,3,1.11,4,4,0,0,1,1.08,3v.9H621v.26a4,4,0,0,0,.92,2.68,3.06,3.06,0,0,0,2.43,1.09,5.08,5.08,0,0,0,1.8-.28,3.53,3.53,0,0,0,1.28-.78l.49.72a4.13,4.13,0,0,1-1.47.89A6,6,0,0,1,624.32,149.36Zm-.16-9a2.85,2.85,0,0,0-2.11.89,3.74,3.74,0,0,0-1,2.24l0,0h6v-.26a2.86,2.86,0,0,0-.79-2.07A2.8,2.8,0,0,0,624.16,140.39Z"/><path class="cls-3" d="M637.7,142.61h-.93l-.13-1.35a3,3,0,0,0-1.08-.64,4.55,4.55,0,0,0-1.5-.23,2.93,2.93,0,0,0-1.86.5,1.44,1.44,0,0,0-.62,1.16,1.36,1.36,0,0,0,.53,1.09,5.47,5.47,0,0,0,2.14.76,7.22,7.22,0,0,1,2.75,1,2.1,2.1,0,0,1,.91,1.78,2.26,2.26,0,0,1-1,1.92,4.66,4.66,0,0,1-2.75.73,6.73,6.73,0,0,1-2.07-.29,5,5,0,0,1-1.62-.83v-1.92h.92l.16,1.36a2.76,2.76,0,0,0,1.15.61,5.84,5.84,0,0,0,1.46.19,3.39,3.39,0,0,0,2-.5,1.48,1.48,0,0,0,.71-1.22,1.51,1.51,0,0,0-.6-1.17,5,5,0,0,0-2.14-.81,7.71,7.71,0,0,1-2.71-1,2,2,0,0,1-.89-1.71,2.23,2.23,0,0,1,1-1.84,4.23,4.23,0,0,1,2.63-.76,6.47,6.47,0,0,1,2.07.32,4.37,4.37,0,0,1,1.52.87Z"/><path class="cls-3" d="M644.7,144.5a5.89,5.89,0,0,1,1-3.64,3.44,3.44,0,0,1,2.9-1.37,4,4,0,0,1,1.85.41,3.66,3.66,0,0,1,1.3,1.18l.12-1.41h1v12.27l1.55.11v.79h-4.23v-.79l1.55-.11v-4a3.41,3.41,0,0,1-1.32,1.06,4.18,4.18,0,0,1-1.83.37,3.51,3.51,0,0,1-2.88-1.27,5.23,5.23,0,0,1-1-3.4Zm1.15.19a4.55,4.55,0,0,0,.75,2.75,2.57,2.57,0,0,0,2.24,1,3.33,3.33,0,0,0,1.79-.45,3.16,3.16,0,0,0,1.14-1.21v-4.65a3.61,3.61,0,0,0-1.11-1.28,3.06,3.06,0,0,0-1.8-.5,2.5,2.5,0,0,0-2.25,1.15,5.22,5.22,0,0,0-.76,3Z"/><path class="cls-3" d="M663.11,147.61a3.46,3.46,0,0,1-1.33,1.3,4.13,4.13,0,0,1-2,.45,3.22,3.22,0,0,1-2.53-1,4.57,4.57,0,0,1-.92-3.16v-4.61l-1.27-.12v-.78h2.4v5.53a3.82,3.82,0,0,0,.64,2.49,2.24,2.24,0,0,0,1.82.76,3.56,3.56,0,0,0,2-.53,2.81,2.81,0,0,0,1.08-1.46v-5.89l-1.46-.12v-.78h2.6v8.62l1.37.12v.77h-2.37Z"/><path class="cls-3" d="M671.78,149.36a4.27,4.27,0,0,1-3.21-1.31,4.64,4.64,0,0,1-1.27-3.34v-.49a4.76,4.76,0,0,1,1.27-3.38,4,4,0,0,1,3.06-1.35,4,4,0,0,1,3,1.11,4,4,0,0,1,1.08,3v.9h-7.25v.26a4,4,0,0,0,.93,2.68,3,3,0,0,0,2.42,1.09,5.14,5.14,0,0,0,1.81-.28,3.61,3.61,0,0,0,1.28-.78l.48.72a4,4,0,0,1-1.46.89A6,6,0,0,1,671.78,149.36Zm-.15-9a2.83,2.83,0,0,0-2.11.89,3.68,3.68,0,0,0-1,2.24l0,0h6v-.26a2.89,2.89,0,0,0-.78-2.07A2.8,2.8,0,0,0,671.63,140.39Z"/><path class="cls-3" d="M214.83,162.05v-.78h2.49l.14,1.48a3.67,3.67,0,0,1,1.34-1.23,4.07,4.07,0,0,1,1.9-.43,3.45,3.45,0,0,1,2.9,1.37,5.89,5.89,0,0,1,1,3.64v.19a5.21,5.21,0,0,1-1,3.4,3.53,3.53,0,0,1-2.88,1.27,4.31,4.31,0,0,1-1.89-.38,3.44,3.44,0,0,1-1.33-1.08v4l1.55.11v.79h-4.22v-.79l1.54-.11V162.17Zm8.67,4a5.14,5.14,0,0,0-.78-2.95,2.58,2.58,0,0,0-2.27-1.14,3.23,3.23,0,0,0-1.87.5,3.16,3.16,0,0,0-1.08,1.32v4.57a3,3,0,0,0,1.13,1.23,3.45,3.45,0,0,0,1.83.45,2.66,2.66,0,0,0,2.27-1,4.53,4.53,0,0,0,.77-2.75Z"/><path class="cls-3" d="M231,171a4.27,4.27,0,0,1-3.21-1.31,4.6,4.6,0,0,1-1.27-3.34v-.49a4.7,4.7,0,0,1,1.27-3.38,4,4,0,0,1,3.06-1.35,4,4,0,0,1,3,1.11,4,4,0,0,1,1.08,3v.9h-7.25v.26a4,4,0,0,0,.92,2.68,3.06,3.06,0,0,0,2.43,1.09,5.08,5.08,0,0,0,1.8-.28,3.53,3.53,0,0,0,1.28-.78l.49.72a4.18,4.18,0,0,1-1.46.89A6.07,6.07,0,0,1,231,171Zm-.15-9a2.85,2.85,0,0,0-2.12.89,3.74,3.74,0,0,0-1,2.24l0,0h6v-.26a2.9,2.9,0,0,0-.79-2.08A2.81,2.81,0,0,0,230.87,162Z"/><path class="cls-3" d="M239.41,161.27l.14,1.58V163a3.43,3.43,0,0,1,1.19-1.38,3.21,3.21,0,0,1,1.79-.5,2.77,2.77,0,0,1,.42,0l.34.07-.15,1-.85,0a2.73,2.73,0,0,0-1.76.56,3,3,0,0,0-1,1.53v5.68l1.55.12v.77h-4.23V170l1.55-.12v-7.72l-1.55-.12v-.78h2.54Z"/><path class="cls-3" d="M244.51,162.05v-.78h2.56l.1,1.57a3.55,3.55,0,0,1,1.32-1.29,4.07,4.07,0,0,1,2-.46,3.45,3.45,0,0,1,2,.53,3,3,0,0,1,1.13,1.63,3.55,3.55,0,0,1,3.42-2.16,3.24,3.24,0,0,1,2.54,1,4.68,4.68,0,0,1,.89,3.13v4.65L262,170v.77h-4.24V170l1.54-.13v-4.66a3.7,3.7,0,0,0-.66-2.49,2.43,2.43,0,0,0-1.87-.72,2.65,2.65,0,0,0-2.05.78,3.64,3.64,0,0,0-.88,2v.14a.66.66,0,0,1,0,.15v4.82l1.54.12v.77h-4.23V170l1.55-.12v-4.67a3.65,3.65,0,0,0-.68-2.47,2.41,2.41,0,0,0-1.87-.74,2.74,2.74,0,0,0-2.91,2.09v5.79l1.55.12v.77h-4.24V170l1.55-.12v-7.72Z"/><path class="cls-3" d="M263.28,170l1.55-.12v-7.72l-1.55-.12v-.78H266v8.62l1.54.12v.77h-4.22ZM266,158.54h-1.13v-1.47H266Z"/><path class="cls-3" d="M272,158.83v2.44h2.26v.86H272v6.2a1.88,1.88,0,0,0,.37,1.32,1.25,1.25,0,0,0,1,.39l.53,0,.61-.08.17.79a3.48,3.48,0,0,1-.69.17,5.76,5.76,0,0,1-.82.06,2.25,2.25,0,0,1-1.69-.63,2.83,2.83,0,0,1-.6-2v-6.2h-1.76v-.86h1.76v-2.44Z"/><path class="cls-3" d="M283.46,170.78a7.1,7.1,0,0,1-.16-.84,4.17,4.17,0,0,1-.05-.71,4.48,4.48,0,0,1-1.52,1.24,4.56,4.56,0,0,1-2.14.49,3.44,3.44,0,0,1-2.33-.72,2.46,2.46,0,0,1-.83-2,2.37,2.37,0,0,1,1.23-2.09,6.11,6.11,0,0,1,3.32-.77h2.27v-1.26a2,2,0,0,0-.71-1.6,3,3,0,0,0-2-.58,5.45,5.45,0,0,0-1.56.21,3.73,3.73,0,0,0-1.18.59l-.1,1.27h-.94v-1.82a6.18,6.18,0,0,1,1.71-.83,6.9,6.9,0,0,1,2.11-.32,4.36,4.36,0,0,1,2.73.8,2.75,2.75,0,0,1,1,2.3v4.67c0,.2,0,.38,0,.56a4.35,4.35,0,0,0,.06.52l1,.07v.77Zm-3.74-.75a4.28,4.28,0,0,0,2.17-.53,3.18,3.18,0,0,0,1.36-1.36v-1.9H281a4.47,4.47,0,0,0-2.47.59,1.73,1.73,0,0,0-.93,1.5,1.49,1.49,0,0,0,.58,1.23A2.38,2.38,0,0,0,279.72,170Z"/><path class="cls-3" d="M286.85,162.05v-.78h2.55l.1,1.57a3.55,3.55,0,0,1,1.32-1.29,4.07,4.07,0,0,1,2-.46,3.45,3.45,0,0,1,2,.53,3,3,0,0,1,1.13,1.63,3.55,3.55,0,0,1,3.42-2.16,3.24,3.24,0,0,1,2.54,1,4.68,4.68,0,0,1,.89,3.13v4.65l1.55.13v.77H300V170l1.54-.13v-4.66a3.7,3.7,0,0,0-.66-2.49,2.43,2.43,0,0,0-1.87-.72,2.61,2.61,0,0,0-2,.78,3.58,3.58,0,0,0-.89,2v.14a.66.66,0,0,1,0,.15v4.82l1.54.12v.77h-4.23V170l1.55-.12v-4.67a3.65,3.65,0,0,0-.68-2.47,2.4,2.4,0,0,0-1.86-.74,3.06,3.06,0,0,0-1.93.56,3,3,0,0,0-1,1.53v5.79l1.55.12v.77h-4.23V170l1.54-.12v-7.72Z"/><path class="cls-3" d="M310.34,170l1.54-.12v-7.72l-1.54-.12v-.78H313v8.62l1.55.12v.77h-4.22ZM313,158.54h-1.13v-1.47H313Z"/><path class="cls-3" d="M323.6,169.41a3.45,3.45,0,0,1-1.31,1.15,4.22,4.22,0,0,1-1.9.4,3.5,3.5,0,0,1-2.88-1.27,5.17,5.17,0,0,1-1-3.4v-.19a5.83,5.83,0,0,1,1-3.64,3.44,3.44,0,0,1,2.9-1.37,3.93,3.93,0,0,1,1.86.42,3.72,3.72,0,0,1,1.31,1.19V158l-1.55-.11v-.78h2.68v12.82l1.55.12v.77H323.7Zm-6-3.12a4.52,4.52,0,0,0,.74,2.74,2.61,2.61,0,0,0,2.24,1,3.36,3.36,0,0,0,1.83-.46,3.16,3.16,0,0,0,1.15-1.25v-4.5a3.37,3.37,0,0,0-1.1-1.32,3.15,3.15,0,0,0-1.86-.51,2.51,2.51,0,0,0-2.25,1.14,5.27,5.27,0,0,0-.75,2.95Z"/><path class="cls-3" d="M332.54,171a4.27,4.27,0,0,1-3.21-1.31,4.6,4.6,0,0,1-1.27-3.34v-.49a4.73,4.73,0,0,1,1.26-3.38,4.06,4.06,0,0,1,3.06-1.35,4,4,0,0,1,3,1.11,4,4,0,0,1,1.09,3v.9h-7.25v.26a4,4,0,0,0,.92,2.68,3.06,3.06,0,0,0,2.43,1.09,5.08,5.08,0,0,0,1.8-.28,3.53,3.53,0,0,0,1.28-.78l.48.72a4,4,0,0,1-1.46.89A6,6,0,0,1,332.54,171Zm-.16-9a2.83,2.83,0,0,0-2.11.89,3.74,3.74,0,0,0-1,2.24l0,0h6v-.26a2.94,2.94,0,0,0-.79-2.08A2.83,2.83,0,0,0,332.38,162Z"/><path class="cls-3" d="M338.26,170l1.55-.12v-7.72l-1.55-.12v-.78h2.55l.11,1.66a3.48,3.48,0,0,1,1.33-1.36,3.94,3.94,0,0,1,2-.48,3.29,3.29,0,0,1,2.54.95,4.24,4.24,0,0,1,.88,3v4.9l1.54.12v.77H345V170l1.55-.12V165a3.3,3.3,0,0,0-.66-2.32A2.51,2.51,0,0,0,344,162a3.1,3.1,0,0,0-2,.58,3.26,3.26,0,0,0-1.08,1.55v5.75l1.54.12v.77h-4.23Z"/><path class="cls-3" d="M353.6,158.83v2.44h2.26v.86H353.6v6.2a1.93,1.93,0,0,0,.36,1.32,1.29,1.29,0,0,0,1,.39l.53,0c.17,0,.38,0,.6-.08l.17.79a3.31,3.31,0,0,1-.69.17,5.52,5.52,0,0,1-.81.06,2.22,2.22,0,0,1-1.69-.63,2.83,2.83,0,0,1-.6-2v-6.2h-1.77v-.86h1.77v-2.44Z"/><path class="cls-3" d="M357.87,170l1.55-.12v-7.72l-1.55-.12v-.78h2.68v8.62l1.54.12v.77h-4.22Zm2.68-11.47h-1.13v-1.47h1.13Z"/><path class="cls-3" d="M363.79,170l1.55-.12v-7.76h-1.7v-.86h1.7v-1.21a3,3,0,0,1,.9-2.35,3.63,3.63,0,0,1,2.52-.83A6.42,6.42,0,0,1,370,157a7.88,7.88,0,0,1,1.33.38l-.19.91a8,8,0,0,0-1.12-.35,5.79,5.79,0,0,0-1.24-.12,2.44,2.44,0,0,0-1.75.57,2.2,2.2,0,0,0-.59,1.65v1.21h5.89v8.62l1.55.12v.77h-4.23V170l1.55-.12v-7.76h-4.76v7.76L368,170v.77h-4.23Z"/><path class="cls-3" d="M379.86,170.08a3.39,3.39,0,0,0,2-.6,1.9,1.9,0,0,0,.87-1.66h1l0,.05a2.58,2.58,0,0,1-1.13,2.21,4.47,4.47,0,0,1-2.75.88,4.05,4.05,0,0,1-3.24-1.33,5.08,5.08,0,0,1-1.14-3.42v-.37a5.07,5.07,0,0,1,1.14-3.41,4,4,0,0,1,3.23-1.34,5.45,5.45,0,0,1,2.17.42,4.23,4.23,0,0,1,1.61,1.12l.05,2.08h-1l-.18-1.69a3.15,3.15,0,0,0-1.14-.75,3.92,3.92,0,0,0-1.54-.28,2.82,2.82,0,0,0-2.44,1.09,4.58,4.58,0,0,0-.8,2.76v.37a4.69,4.69,0,0,0,.79,2.78A2.86,2.86,0,0,0,379.86,170.08Z"/><path class="cls-3" d="M393,170.78a7.1,7.1,0,0,1-.16-.84,5.52,5.52,0,0,1-.05-.71,4.57,4.57,0,0,1-3.65,1.73,3.45,3.45,0,0,1-2.34-.72,2.45,2.45,0,0,1-.82-2,2.36,2.36,0,0,1,1.22-2.09,6.14,6.14,0,0,1,3.32-.77h2.27v-1.26a2,2,0,0,0-.71-1.6,3,3,0,0,0-2-.58,5.45,5.45,0,0,0-1.56.21,3.73,3.73,0,0,0-1.18.59l-.09,1.27h-.94v-1.82a6,6,0,0,1,1.7-.83,6.9,6.9,0,0,1,2.11-.32,4.36,4.36,0,0,1,2.73.8,2.75,2.75,0,0,1,1,2.3v4.67c0,.2,0,.38,0,.56a4.35,4.35,0,0,0,.06.52l1,.07v.77Zm-3.74-.75a4.26,4.26,0,0,0,2.17-.53,3.18,3.18,0,0,0,1.36-1.36v-1.9h-2.29a4.49,4.49,0,0,0-2.47.59,1.73,1.73,0,0,0-.93,1.5,1.52,1.52,0,0,0,.58,1.23A2.38,2.38,0,0,0,389.21,170Zm1.93-12.39h1.39l0,.05L390.2,160h-1Z"/><path class="cls-3" d="M401.66,165.77h-4.54v-.89h4.54Z"/><path class="cls-3" d="M403.88,157.85v-.78h2.68v12.82l1.54.12v.77h-4.22V170l1.55-.12V158Z"/><path class="cls-3" d="M409.71,165.88a4.84,4.84,0,0,1,1.24-3.44,4.71,4.71,0,0,1,6.6,0,4.84,4.84,0,0,1,1.24,3.44v.29a4.89,4.89,0,0,1-1.23,3.45,4.75,4.75,0,0,1-6.61,0,4.85,4.85,0,0,1-1.24-3.45Zm1.14.29a4.3,4.3,0,0,0,.9,2.78,3,3,0,0,0,2.52,1.13,3,3,0,0,0,2.48-1.13,4.3,4.3,0,0,0,.9-2.78v-.29a4.32,4.32,0,0,0-.9-2.76,3.33,3.33,0,0,0-5,0,4.32,4.32,0,0,0-.9,2.76Z"/><path class="cls-3" d="M429.9,171a4.27,4.27,0,0,1-3.21-1.31,4.6,4.6,0,0,1-1.27-3.34v-.49a4.73,4.73,0,0,1,1.26-3.38,4.07,4.07,0,0,1,3.07-1.35,4,4,0,0,1,3,1.11,4,4,0,0,1,1.08,3v.9h-7.25v.26a4,4,0,0,0,.92,2.68,3.06,3.06,0,0,0,2.43,1.09,5.08,5.08,0,0,0,1.8-.28A3.53,3.53,0,0,0,433,169l.49.72a4.13,4.13,0,0,1-1.47.89A6,6,0,0,1,429.9,171Zm-.15-9a2.85,2.85,0,0,0-2.12.89,3.74,3.74,0,0,0-1,2.24l0,0h6v-.26a2.9,2.9,0,0,0-.79-2.08A2.81,2.81,0,0,0,429.75,162Z"/><path class="cls-3" d="M444.94,170.08a3.39,3.39,0,0,0,2-.6,1.9,1.9,0,0,0,.87-1.66h1l0,.05a2.55,2.55,0,0,1-1.13,2.21,4.47,4.47,0,0,1-2.75.88,4.05,4.05,0,0,1-3.24-1.33,5.08,5.08,0,0,1-1.14-3.42v-.37a5.07,5.07,0,0,1,1.14-3.41,4.05,4.05,0,0,1,3.23-1.34,5.45,5.45,0,0,1,2.17.42,4.23,4.23,0,0,1,1.61,1.12l.05,2.08h-1l-.18-1.69a3.15,3.15,0,0,0-1.14-.75,3.92,3.92,0,0,0-1.54-.28,2.83,2.83,0,0,0-2.44,1.09,4.58,4.58,0,0,0-.8,2.76v.37a4.69,4.69,0,0,0,.79,2.78A2.86,2.86,0,0,0,444.94,170.08Z"/><path class="cls-3" d="M450.71,157.85v-.78h2.68v12.82l1.54.12v.77h-4.22V170l1.55-.12V158Z"/><path class="cls-3" d="M463.82,170.78a7.1,7.1,0,0,1-.16-.84,5.52,5.52,0,0,1-.05-.71,4.38,4.38,0,0,1-1.52,1.24A4.52,4.52,0,0,1,460,171a3.45,3.45,0,0,1-2.34-.72,2.45,2.45,0,0,1-.82-2A2.36,2.36,0,0,1,458,166.2a6.14,6.14,0,0,1,3.32-.77h2.27v-1.26a1.94,1.94,0,0,0-.71-1.6,3,3,0,0,0-2-.58,5.47,5.47,0,0,0-1.57.21,3.73,3.73,0,0,0-1.18.59l-.09,1.27h-.94v-1.82a6,6,0,0,1,1.7-.83,7,7,0,0,1,2.11-.32,4.39,4.39,0,0,1,2.74.8,2.77,2.77,0,0,1,1,2.3v4.67c0,.2,0,.38,0,.56a3,3,0,0,0,.07.52l1,.07v.77Zm-3.74-.75a4.26,4.26,0,0,0,2.17-.53,3.18,3.18,0,0,0,1.36-1.36v-1.9h-2.29a4.49,4.49,0,0,0-2.47.59,1.72,1.72,0,0,0-.92,1.5,1.51,1.51,0,0,0,.57,1.23A2.38,2.38,0,0,0,460.08,170Z"/><path class="cls-3" d="M474.9,164.2H474l-.14-1.34a2.78,2.78,0,0,0-1.07-.64,4.63,4.63,0,0,0-1.5-.23,3,3,0,0,0-1.87.5,1.47,1.47,0,0,0-.62,1.16,1.34,1.34,0,0,0,.54,1.09,5.47,5.47,0,0,0,2.14.76,7.16,7.16,0,0,1,2.74,1,2.08,2.08,0,0,1,.91,1.78,2.24,2.24,0,0,1-1,1.92,4.63,4.63,0,0,1-2.74.73,7.16,7.16,0,0,1-2.08-.29,5.16,5.16,0,0,1-1.62-.83v-1.92h.93l.16,1.36a2.7,2.7,0,0,0,1.15.61,5.78,5.78,0,0,0,1.46.19,3.26,3.26,0,0,0,1.94-.51,1.43,1.43,0,0,0,.71-1.21,1.5,1.5,0,0,0-.59-1.17,5,5,0,0,0-2.14-.81,7.77,7.77,0,0,1-2.72-1,2,2,0,0,1-.89-1.71,2.25,2.25,0,0,1,1-1.84,4.21,4.21,0,0,1,2.63-.76,6.4,6.4,0,0,1,2.06.32,4.33,4.33,0,0,1,1.53.87Z"/><path class="cls-3" d="M484.63,164.2h-.93l-.13-1.34a2.75,2.75,0,0,0-1.08-.64A4.53,4.53,0,0,0,481,162a3,3,0,0,0-1.87.5,1.47,1.47,0,0,0-.62,1.16,1.34,1.34,0,0,0,.54,1.09,5.47,5.47,0,0,0,2.14.76,7.23,7.23,0,0,1,2.74,1,2.08,2.08,0,0,1,.91,1.78,2.24,2.24,0,0,1-1,1.92,4.65,4.65,0,0,1-2.74.73,7.11,7.11,0,0,1-2.08-.29,5.16,5.16,0,0,1-1.62-.83v-1.92h.92l.16,1.36a2.8,2.8,0,0,0,1.16.61,5.78,5.78,0,0,0,1.46.19,3.26,3.26,0,0,0,1.94-.51,1.43,1.43,0,0,0,.71-1.21,1.5,1.5,0,0,0-.59-1.17,5.11,5.11,0,0,0-2.14-.81,7.77,7.77,0,0,1-2.72-1,2,2,0,0,1-.89-1.71,2.22,2.22,0,0,1,1-1.84,4.19,4.19,0,0,1,2.63-.76,6.4,6.4,0,0,1,2.06.32,4.42,4.42,0,0,1,1.53.87Z"/><path class="cls-3" d="M486.84,170l1.54-.12v-7.72l-1.54-.12v-.78h2.67v8.62l1.55.12v.77h-4.22Zm2.67-11.47h-1.13v-1.47h1.13Z"/><path class="cls-3" d="M492.76,170l1.55-.12v-7.76h-1.7v-.86h1.7v-1.21a3,3,0,0,1,.9-2.35,3.6,3.6,0,0,1,2.51-.83A6.27,6.27,0,0,1,499,157a7.62,7.62,0,0,1,1.33.38l-.18.91A8.46,8.46,0,0,0,499,158a5.86,5.86,0,0,0-1.24-.12,2.43,2.43,0,0,0-1.75.57,2.17,2.17,0,0,0-.6,1.65v1.21h5.9v8.62l1.55.12v.77h-4.23V170l1.55-.12v-7.76h-4.77v7.76L497,170v.77h-4.23Z"/><path class="cls-3" d="M508.83,170.08a3.41,3.41,0,0,0,2-.6,1.92,1.92,0,0,0,.86-1.66h1l0,.05a2.56,2.56,0,0,1-1.14,2.21,4.42,4.42,0,0,1-2.74.88,4,4,0,0,1-3.24-1.33,5,5,0,0,1-1.15-3.42v-.37a5,5,0,0,1,1.15-3.41,4,4,0,0,1,3.23-1.34,5.49,5.49,0,0,1,2.17.42,4.19,4.19,0,0,1,1.6,1.12l0,2.08h-1l-.18-1.69a3.11,3.11,0,0,0-1.13-.75,4,4,0,0,0-1.54-.28,2.85,2.85,0,0,0-2.45,1.09,4.57,4.57,0,0,0-.79,2.76v.37a4.62,4.62,0,0,0,.79,2.78A2.83,2.83,0,0,0,508.83,170.08Z"/><path class="cls-3" d="M521.92,170.78c-.08-.32-.13-.6-.17-.84a5.53,5.53,0,0,1,0-.71,4.48,4.48,0,0,1-1.52,1.24,4.56,4.56,0,0,1-2.14.49,3.44,3.44,0,0,1-2.33-.72,2.46,2.46,0,0,1-.83-2,2.37,2.37,0,0,1,1.23-2.09,6.11,6.11,0,0,1,3.32-.77h2.27v-1.26a2,2,0,0,0-.71-1.6,3,3,0,0,0-2-.58,5.45,5.45,0,0,0-1.56.21,3.62,3.62,0,0,0-1.18.59l-.1,1.27h-.94v-1.82a6.18,6.18,0,0,1,1.71-.83,6.9,6.9,0,0,1,2.11-.32,4.36,4.36,0,0,1,2.73.8,2.75,2.75,0,0,1,1,2.3v4.67c0,.2,0,.38,0,.56a4.35,4.35,0,0,0,.06.52l1,.07v.77Zm-3.74-.75a4.28,4.28,0,0,0,2.17-.53,3.18,3.18,0,0,0,1.36-1.36v-1.9h-2.29a4.47,4.47,0,0,0-2.47.59,1.73,1.73,0,0,0-.93,1.5,1.49,1.49,0,0,0,.58,1.23A2.38,2.38,0,0,0,518.18,170Zm1.92-12.39h1.4l0,.05L519.16,160h-1Z"/><path class="cls-3" d="M530.63,165.77h-4.54v-.89h4.54Z"/><path class="cls-3" d="M532.85,157.85v-.78h2.67v12.82l1.55.12v.77h-4.22V170l1.55-.12V158Z"/><path class="cls-3" d="M538.68,165.88a4.84,4.84,0,0,1,1.24-3.44,4.71,4.71,0,0,1,6.6,0,4.89,4.89,0,0,1,1.24,3.44v.29a4.85,4.85,0,0,1-1.24,3.45,4.73,4.73,0,0,1-6.6,0,4.85,4.85,0,0,1-1.24-3.45Zm1.13.29a4.3,4.3,0,0,0,.91,2.78,3.33,3.33,0,0,0,5,0,4.3,4.3,0,0,0,.9-2.78v-.29a4.27,4.27,0,0,0-.91-2.76,3.32,3.32,0,0,0-5,0,4.32,4.32,0,0,0-.91,2.76Z"/><path class="cls-3" d="M551.37,170.78h-1.31v-1.44h1.31Z"/><circle class="cls-4" cx="92.11" cy="131.39" r="88"/><path class="cls-3" d="M92.11,46.39a85,85,0,1,1-85,85,85,85,0,0,1,85-85m0-6a91,91,0,1,0,91,91,91.11,91.11,0,0,0-91-91Z"/><path class="cls-2" d="M91.89,46.55a84.78,84.78,0,1,0,84.77,84.77A84.77,84.77,0,0,0,91.89,46.55Zm0,163.9A79.13,79.13,0,1,1,171,131.32,79.13,79.13,0,0,1,91.89,210.45Z"/><path class="cls-2" d="M131.9,69.74a2.86,2.86,0,0,0-2.13-.4A2.9,2.9,0,0,0,128,70.56l-4.62,7.11a2.81,2.81,0,0,0-.39,2.17,2.87,2.87,0,0,0,1.29,1.79,38.71,38.71,0,0,1,3.17,2.25c.63.49,1.27,1,1.77,1.33.88.72,1.72,1.48,2.56,2.25l-2,2a56.11,56.11,0,0,0-12.39-8.48l5.78-13a2.79,2.79,0,0,0,.06-2.16,2.83,2.83,0,0,0-1.49-1.57,73.88,73.88,0,0,0-26-6.2,2.82,2.82,0,0,0-3,2.67l-.44,8.47a2.83,2.83,0,0,0,2.67,3l3,.15,3.17.48,1.22.19c.61.09,1.22.17,1.76.3l.39.09-.74,2.77a57.91,57.91,0,0,0-15-1.21L87.33,60.77a2.82,2.82,0,0,0-1-1.9,2.78,2.78,0,0,0-2.07-.62A72.94,72.94,0,0,0,58.54,65.9a2.83,2.83,0,0,0-1.23,3.8l3.86,7.55a2.81,2.81,0,0,0,3.7,1.28c.57-.26,1.13-.54,1.7-.81a29.87,29.87,0,0,1,4-1.74l.73-.27c.85-.31,1.67-.62,2.49-.89l.73,2.73c-.69.24-1.37.49-2,.74l-.67.25a26.7,26.7,0,0,0-4,1.71l-1.7.82-4.79,2.76L61,84,52.68,72.56a2.83,2.83,0,0,0-1.85-1.13,2.77,2.77,0,0,0-2.1.51A73.54,73.54,0,0,0,30.3,91.31a2.85,2.85,0,0,0,.83,3.92l7.11,4.62a2.8,2.8,0,0,0,2.16.39A2.84,2.84,0,0,0,42.19,99c.7-1.09,1.45-2.14,2.25-3.16.49-.64,1-1.28,1.33-1.78.72-.87,1.48-1.72,2.25-2.56l2,2a56.15,56.15,0,0,0-8.49,12.39l-13-5.78a2.83,2.83,0,0,0-3.74,1.43,74.15,74.15,0,0,0-6.2,26,2.84,2.84,0,0,0,2.68,3l8.47.43a2.79,2.79,0,0,0,3-2.66l.15-3,.48-3.17c.08-.4.14-.81.19-1.22.09-.62.18-1.23.3-1.76l.1-.39,2.77.74a57.48,57.48,0,0,0-1.22,15l-14.14,1.47a2.85,2.85,0,0,0-1.9,1,2.82,2.82,0,0,0-.61,2.07,73.63,73.63,0,0,0,7.65,25.68,2.8,2.8,0,0,0,1.64,1.4,2.84,2.84,0,0,0,2.16-.17l7.55-3.85a2.83,2.83,0,0,0,1.27-3.71c-.26-.56-.53-1.11-.8-1.67a28.51,28.51,0,0,1-1.74-4.06l-.28-.75c-.32-.84-.62-1.66-.89-2.47l2.77-.74a56.06,56.06,0,0,0,6.45,13.53l-11.48,8.35a2.82,2.82,0,0,0-.62,3.95,73.73,73.73,0,0,0,19.38,18.43,2.81,2.81,0,0,0,3.91-.83l4.62-7.1a2.83,2.83,0,0,0-.89-4,35.65,35.65,0,0,1-3.17-2.26c-.64-.49-1.28-1-1.77-1.32-.88-.72-1.72-1.48-2.56-2.25l2-2c.75.69,1.53,1.39,2.47,2.16.55.39,1.09.8,1.62,1.21a34.36,34.36,0,0,0,3.15,2.22l5.05,2.89.06,0-5.79,13a2.91,2.91,0,0,0-.06,2.17A2.82,2.82,0,0,0,62,198.41a73.94,73.94,0,0,0,26,6.21h.15A2.83,2.83,0,0,0,91,201.94l.44-8.46a2.82,2.82,0,0,0-2.67-3l-3-.15-3.17-.49-1.22-.18c-.62-.09-1.23-.18-1.76-.3l-.39-.1.74-2.77a57.88,57.88,0,0,0,15,1.22l1.46,14.13a2.81,2.81,0,0,0,3.11,2.52,72.73,72.73,0,0,0,25.68-7.65,2.82,2.82,0,0,0,1.23-3.8l-3.86-7.55a2.83,2.83,0,0,0-3.7-1.28l-1.7.82a28.22,28.22,0,0,1-4,1.73l-.72.27c-.85.32-1.67.62-2.49.9l-.74-2.77a56,56,0,0,0,13.52-6.45l8.36,11.48a2.82,2.82,0,0,0,3.94.62,73.41,73.41,0,0,0,18.43-19.38,2.82,2.82,0,0,0-.82-3.91l-7.11-4.63a2.85,2.85,0,0,0-2.17-.38,2.81,2.81,0,0,0-1.78,1.28c-.7,1.1-1.45,2.15-2.25,3.17-.49.64-1,1.28-1.33,1.78-.72.87-1.49,1.71-2.26,2.55l-1.95-1.95a56.49,56.49,0,0,0,8.49-12.39l13,5.78A2.83,2.83,0,0,0,159,161.2a73.72,73.72,0,0,0,6.2-26,2.82,2.82,0,0,0-2.67-3l-8.47-.44a2.85,2.85,0,0,0-3,2.67l-.15,3-.48,3.16c-.07.41-.13.82-.19,1.23-.09.61-.17,1.22-.29,1.75l-.1.39-2.73-.72,0-.07c.16-.66.25-1.33.35-2,0-.32.08-.63.14-1l.44-2.78,0-.29.14-3v-5.91l14.2-1.47a2.82,2.82,0,0,0,1.9-1,2.88,2.88,0,0,0,.62-2.08A73.86,73.86,0,0,0,157.31,98a2.82,2.82,0,0,0-3.8-1.23L146,100.6a2.82,2.82,0,0,0-1.28,3.71c.26.56.53,1.11.8,1.67a28.07,28.07,0,0,1,1.75,4.06l.27.74c.32.85.62,1.66.89,2.47l-2.77.74a55.8,55.8,0,0,0-6.45-13.52l11.48-8.36a2.82,2.82,0,0,0,.63-3.94A73.57,73.57,0,0,0,131.9,69.74Zm1.72,27.78a2.83,2.83,0,0,0-1.13,1.85,2.77,2.77,0,0,0,.51,2.1,50.48,50.48,0,0,1,8,16.69,2.85,2.85,0,0,0,3.46,2l8.19-2.19a2.83,2.83,0,0,0,2-3.32,40.85,40.85,0,0,0-1.85-5.84l-.22-.61a29.72,29.72,0,0,0-1.59-3.83l2.52-1.29A68,68,0,0,1,159,121.44l-14,1.45a2.82,2.82,0,0,0-2.53,3l.14,2.74V134l-.14,2.66-.4,2.6c-.07.37-.12.74-.17,1.11s-.14,1-.24,1.42l-.7,2.72a2.82,2.82,0,0,0,2,3.44l8.2,2.19a2.82,2.82,0,0,0,3.46-2l.83-3.23c.17-.75.29-1.52.4-2.28.05-.37.1-.73.17-1.13l.52-3.5,0-.43,2.77.14a68.19,68.19,0,0,1-4.42,18.61l-12.85-5.73a2.84,2.84,0,0,0-2.16-.05,2.8,2.8,0,0,0-1.57,1.49,50.66,50.66,0,0,1-10.48,15.29,2.84,2.84,0,0,0,0,4l6,6a2.76,2.76,0,0,0,2.08.83,2.83,2.83,0,0,0,2-1l1.53-1.68c1-1.07,2-2.13,3-3.4.43-.61.88-1.2,1.33-1.79.32-.41.64-.83,1-1.25l2.38,1.54A67.63,67.63,0,0,1,134,184.43l-8.28-11.38a2.82,2.82,0,0,0-4-.62,50.32,50.32,0,0,1-16.69,8,2.81,2.81,0,0,0-2,3.46l2.19,8.19a2.82,2.82,0,0,0,3.32,2,41.93,41.93,0,0,0,5.86-1.85L115,192a27.29,27.29,0,0,0,3.83-1.58l1.29,2.52a68.82,68.82,0,0,1-18.35,5.47l-1.45-14a2.78,2.78,0,0,0-3.08-2.52,52,52,0,0,1-18.51-1.51,2.82,2.82,0,0,0-3.46,2l-2.19,8.19a2.82,2.82,0,0,0,2,3.47l3.21.82c.76.18,1.53.29,2.3.4l1.12.17,3.49.52.44,0-.15,2.77a68.5,68.5,0,0,1-18.6-4.43l5.73-12.84a2.84,2.84,0,0,0-1.35-3.7L69,176.68l-4.82-2.77a27.21,27.21,0,0,1-2.57-1.83c-.6-.46-1.2-.92-1.64-1.22-.82-.67-1.6-1.39-2.38-2.11-.58-.53-1.16-1.06-1.76-1.59a2.84,2.84,0,0,0-3.86.13l-6,6a2.82,2.82,0,0,0,.12,4.11c.56.49,1.11,1,1.66,1.51,1.07,1,2.15,2,3.42,3,.61.43,1.2.88,1.78,1.33l1.27,1-1.55,2.37a67.58,67.58,0,0,1-13.85-13.17l11.38-8.28a2.82,2.82,0,0,0,.62-3.95,50.56,50.56,0,0,1-8-16.7,2.83,2.83,0,0,0-3.45-2l-8.19,2.19a2.84,2.84,0,0,0-2,3.33A42.41,42.41,0,0,0,31,153.83l.23.61a31.16,31.16,0,0,0,1.58,3.83l-2.51,1.29a68.48,68.48,0,0,1-5.48-18.35l14-1.45a2.83,2.83,0,0,0,2.52-3.09,51.75,51.75,0,0,1,1.5-18.5,2.79,2.79,0,0,0-.28-2.15,2.83,2.83,0,0,0-1.72-1.32l-8.19-2.18a2.79,2.79,0,0,0-2.15.29,2.84,2.84,0,0,0-1.32,1.73l-.82,3.23c-.18.75-.29,1.51-.4,2.28-.05.36-.1.72-.17,1.13l-.52,3.49,0,.43L24.44,125a68.42,68.42,0,0,1,4.43-18.6l12.84,5.72a2.82,2.82,0,0,0,2.17.06,2.87,2.87,0,0,0,1.57-1.49,50.68,50.68,0,0,1,10.47-15.3,2.82,2.82,0,0,0,0-4l-6-6a2.84,2.84,0,0,0-4.11.12c-.5.57-1,1.13-1.53,1.69-1,1.06-2,2.13-3,3.4-.43.61-.89,1.2-1.34,1.79l-1,1.25-2.37-1.54A67.89,67.89,0,0,1,49.8,78.21l8.29,11.38a2.82,2.82,0,0,0,3.95.62l.66-.49a8.67,8.67,0,0,1,1.38-1l4.63-2.68c.54-.25,1.08-.51,1.61-.78a22.85,22.85,0,0,1,3.31-1.41l.85-.31a27.78,27.78,0,0,1,4.09-1.3,2.83,2.83,0,0,0,2.16-3.5L78.54,70.6a2.82,2.82,0,0,0-3.32-2,41.11,41.11,0,0,0-5.86,1.85l-.59.22a28.32,28.32,0,0,0-3.83,1.58L63.66,69.7A68.65,68.65,0,0,1,82,64.23l1.45,14a2.79,2.79,0,0,0,3.08,2.52A52,52,0,0,1,105,82.25a2.88,2.88,0,0,0,2.15-.28,2.83,2.83,0,0,0,1.31-1.72l2.19-8.19a2.83,2.83,0,0,0-2-3.47l-3.22-.82c-.76-.18-1.52-.29-2.29-.4L102,67.19l-3.49-.52-.44,0,.15-2.77a68,68,0,0,1,18.6,4.42l-5.72,12.85a2.8,2.8,0,0,0,1.44,3.73,51,51,0,0,1,15.29,10.48,2.82,2.82,0,0,0,4,0l6-6a2.79,2.79,0,0,0,.82-2.08,2.82,2.82,0,0,0-.94-2c-.56-.49-1.11-1-1.66-1.51-1.08-1-2.15-2-3.43-3-.6-.43-1.19-.89-1.78-1.34l-1.26-1,1.55-2.37A67.84,67.84,0,0,1,145,89.24Z"/><path class="cls-2" d="M91.89,86.11a45.12,45.12,0,0,0-39,68,2.75,2.75,0,0,0,.17.29,45.58,45.58,0,0,0,11.53,12.9c.07.05.11.12.19.17l.06,0a44.88,44.88,0,0,0,54.06,0s0,0,.07,0,.13-.12.2-.17a45.4,45.4,0,0,0,11.52-12.9,1.75,1.75,0,0,0,.18-.29,45.13,45.13,0,0,0-39-68Zm-5.1,6L55.43,146.68A39.53,39.53,0,0,1,86.79,92.13ZM69.92,164.21l22-38.19,22,38.19a39.48,39.48,0,0,1-43.93,0Zm48.42-3.55L95.56,121.08a4.24,4.24,0,0,0-7.35,0L65.44,160.66a39.8,39.8,0,0,1-6.88-8.1l33.33-58,6.46,11.21c0,.08.08.17.13.25l26.73,46.5a39.75,39.75,0,0,1-6.87,8.1Zm10-14-24.84-43.21a2.1,2.1,0,0,0-.13-.26L97,92.13a39.53,39.53,0,0,1,31.36,54.55Z"/><g class="cls-5"><path class="cls-6" d="M80.88,71.82l3.84,14.75s.6,3.63-.71,4.94-7.47,8.28-7.47,8.28l-3.44,6.77L93,117.87l23.73-6.36L116,94.85s-12.15-.78-19.24-6.1c-1.39-1-2.57-13.19-2.57-13.19Z"/><path class="cls-7" d="M94.86,80.92c-.37-2.72-.68-5.46-.68-5.46L80.85,71.72l1.07,4.11s4.18,2.72,5.47,3.29A25.37,25.37,0,0,0,94.86,80.92Z"/><path class="cls-6" d="M69.82,103.61s-9.51,5.37-10.38,6.25-7.67,7-7.67,7l-.26,22.07-8.83-21L35,121.27,45.93,154l6,9.31L56.48,165l6.69-30.9,9.63,6,11.82-8.63L76.13,110.4l-3.63-8Z"/><path class="cls-6" d="M34.69,121.17a10.38,10.38,0,0,1-4.54-3.8,37.79,37.79,0,0,1-4.75.24.7.7,0,0,1-.43-.09.81.81,0,0,1-.25-.53,45.87,45.87,0,0,0-2.45-8.6,1.44,1.44,0,0,1-.14-.76c.1-.46.64-.67,1.11-.72a2.76,2.76,0,0,0,1.38-.27c.52-.36.68-1.16,1.28-1.36s1,.17,1.49,0,.6-.82.93-1.23a3.28,3.28,0,0,1,2.05-.81A14.59,14.59,0,0,0,34,101.77a.35.35,0,0,0,.21-.18.5.5,0,0,0,0-.21c-.56-2.58-1.73-5.17-2.28-7.75a58.26,58.26,0,0,1-.94-7.4A3.92,3.92,0,0,1,33,83.74a.83.83,0,0,1,.76-.1c.29.13.39.48.46.8.62,2.88,2.31,10.19,2.94,13.07.39,1.84,3.72,6.43,4.43,7s.82,1.23,1.62,1.84a1.69,1.69,0,0,1,.56.57,1.83,1.83,0,0,1,.15.81l.12,4.88c0,1.9,0,4-1.33,5.37Z"/><path class="cls-7" d="M41.32,104.08c-1-.27-1.94-.9-3-.72a6.84,6.84,0,0,0-2.44,1.26c-2.15,1.47-3.69,3.72-6,4.94a1,1,0,0,0-.19,1.49c1.32,1.28,3.23,2.8,5.19,2.36a6.06,6.06,0,0,0,4.06-3.79l-1.4.56a7.51,7.51,0,0,0,2,1.06c1.15.44,1.62-1.38.5-1.83-3.73-1.5-5.28,3.37-4,6,.52,1.1,2.16.14,1.64-1-.59-1.25-.26-4.12,1.87-3.26l.5-1.83a4.53,4.53,0,0,1-1.51-.86,1,1,0,0,0-1.39.56c-1.14,3-4.19,2.44-6.08.6l-.19,1.49A19.8,19.8,0,0,0,35,107.77a15,15,0,0,1,2.4-1.87c1.14-.71,2.2-.33,3.43,0a1,1,0,0,0,.5-1.83Z"/><path class="cls-7" d="M33.76,107.69l-.43-2.2-1.83.5a2.53,2.53,0,0,0,1.39,1.71,1,1,0,0,0,1.3-.34,1,1,0,0,0-.34-1.3.74.74,0,0,1-.52-.57.95.95,0,1,0-1.83.5l.43,2.21a.95.95,0,0,0,1.83-.51Z"/><path class="cls-6" d="M73,65.7s7.71,13.72,30.73,13.73c9.52,0,13.06-2.23,13.6-5.32,3.37-19.43-3.81-44-13.77-51.5C94.87,16,63.88,40.92,63.88,40.92l6.6,14.81s-6.73-7.27-9.43-3.23,5.86,12.59,5.86,12.59S70.75,68,73,65.7Z"/><path class="cls-6" d="M119.05,96.83c2.28-1.21,4.34,1.65,4.34,1.65l23.23,40.66-20.05,36s6.73,11.31,3.36,16.43l4.65,4.64s.74,2.49-2.63,2.49-11.31-5.92-11.31-5.92l.93-25.36,15-27L122.79,120l-4.3-3.81S114.78,99.09,119.05,96.83Z"/><path class="cls-6" d="M94.92,210.66,75.46,259.45S73,268.69,70,271.67A131.62,131.62,0,0,1,62.6,293c-5.05,11.31-7.27,26.86-7.27,26.86s4.6,11.66,4,16.91c0,0,4.39,6.06,2.63,9.54s-8.69,1.42-8.69,1.42S41.75,349.22,40,346.34s2.17-10.6,2.17-10.6-.55-6.16,1.47-7.57a25.2,25.2,0,0,0,4.44-4.85s-.76-2,1.36-4.75,5.25-20.21,5.25-22.5S51.9,276.68,61.32,270c0,0,2.29-46.45,8.75-52.91s24.85-10.3,24.85-10.3Z"/><path class="cls-8" d="M94.92,210.66l-6.22,15.6s-8.61,3.84-10.79,4.38c-1.61.39-13.13,4-12.75,1.63,1.21-7.26,2.89-13.21,4.91-15.23,6.47-6.47,24.85-10.3,24.85-10.3Z"/><path class="cls-6" d="M101.85,203.44s16.29,61.53,17.5,64.36-5.15,8.31,6,47.29c0,0-.71,5.15-1.71,7s-3.34,6.46-.41,8.08,12.42,9.69,16.46,10.4,11.61-2.83,11.61-2.83,4-1.51,2.78-2.78c0,0-3.68-.15-4.9-1.36s-14.94-12-14.94-12S130,316.1,130,315.73s-3-48.3-3-48.3,1.11-3,0-9.19-.57-45-.57-45Z"/><path class="cls-8" d="M101.85,203.44s3.83,14.43,5,18.69c.44,1.63,19.43,3,19.43,3l.11-11.81Z"/><path class="cls-9" d="M101.85,215.62c3.15,6.25,25.3,7.57,27.13,8.15,0,0,.58-25.08-3-39.17S101.85,215.62,101.85,215.62Z"/><path class="cls-10" d="M74.92,60.18c3.91,1.61.54-5.39.54-5.39s-.37-7-2.36-8.21A29,29,0,0,1,68.77,43L106,17.49s3.77-5.25-4.84-8.48a10.28,10.28,0,0,0-10.44-3.1S87,1.4,81.52,5.54c0,0-11-.64-13.47,4.75a4.09,4.09,0,0,0-4,2.29s-2.28.87-2.72,2.72c0,0-5.56,2.19-5.89,5.9,0,0-3,4.24-.61,7.67,0,0-1.6,3,.47,5.08,0,0-4.64,5.09,0,8.25,0,0-1.14,3.3,5.66,4.65l2,4.17s1.94-.88,7.54,4.71Z"/><path class="cls-7" d="M102.05,60.73a1.5,1.5,0,0,1,0-3c1.38,0,5.23-1.15,8-2.08-.88-6.81-5.24-11.9-7.85-14.39a1.5,1.5,0,0,1,2.07-2.17c3.07,2.93,8.3,9.1,8.89,17.48l.08,1.13-1.07.39C111.36,58.36,104.66,60.73,102.05,60.73Z"/><ellipse class="cls-11" cx="90.04" cy="45.67" rx="1.81" ry="2.47" transform="translate(-8.41 23.32) rotate(-14.1)"/><path class="cls-11" d="M87.26,45.38h-.07a1.5,1.5,0,0,1-1.43-1.56c0-.36.22-3.62,2.6-4.9,1.55-.84,3.46-.58,5.7.75a1.5,1.5,0,0,1-1.54,2.58c-1.21-.72-2.2-1-2.73-.69-.7.37-1,1.78-1,2.4A1.5,1.5,0,0,1,87.26,45.38Z"/><ellipse class="cls-11" cx="106.83" cy="40.6" rx="1.81" ry="2.47" transform="translate(-6.67 27.26) rotate(-14.1)"/><path class="cls-11" d="M103.58,40a1.41,1.41,0,0,1-.4-.05,1.49,1.49,0,0,1-1.05-1.84c.1-.36,1-3.48,3.64-4.2,1.69-.47,3.5.2,5.38,2a1.5,1.5,0,0,1-2.08,2.17c-1-1-1.93-1.44-2.5-1.28-.8.22-1.41,1.62-1.54,2.1A1.5,1.5,0,0,1,103.58,40Z"/><path class="cls-12" d="M94.18,62.93c-.23-.23,13.33.85,18.51-3,0,0,1,10.31-3.6,11.44S98.84,70.67,94.18,62.93Z"/><g class="cls-13"><path class="cls-14" d="M93.29,64.55s12.68,3.62,18.32-2L110.9,60,92.31,61.22Z"/><path class="cls-15" d="M95.52,69.2s4.07-3.94,10.57-1.32,0,7.38,0,7.38Z"/></g><path class="cls-7" d="M106.3,72.79c-7.76,0-12.94-9.27-13-9.38l-.86-1.57,1.79.09c.12,0,12.51.6,17.93-2.81a1,1,0,0,1,1.06,1.69C108.57,63.74,99.87,64,96,64c2,3,7.16,8.91,13.69,6.06a1,1,0,1,1,.8,1.84A10.47,10.47,0,0,1,106.3,72.79Z"/><path class="cls-7" d="M70.17,64.15s-.2-8.84-7-11"/><path class="cls-7" d="M63.17,134.13s5.82-7.8,5-6.62c-4.26,6.6,10.92,14.22,14.48,10.15a9.11,9.11,0,0,1-9.9,2.51Z"/><path class="cls-16" d="M76.54,99.79s-6.47,2.39-9.48,5.4c0,0,18.13,26.29,5.74,35,0,0,11.41,21.8,10.2,26.24s-21.48,61-21.48,61,62.6-1.11,64.84-42.05l-3-23.56a196.21,196.21,0,0,0,1.75-23.9c.13-11.49-1.13-24.71-2-33.73a14.55,14.55,0,0,0-4.25-9.15L113,94.5s4.65,15.59-6.12,17.07C101,112.37,87,114.24,76.54,99.79Z"/><g class="cls-17"><path class="cls-18" d="M63.85,229s62.61-1.11,64.84-42Z"/></g><path class="cls-16" d="M76.54,99.79s-6.47,2.39-9.48,5.4c0,0,18.13,26.29,5.74,35,0,0,11.41,21.8,10.2,26.24s-21.48,61-21.48,61,62.6-1.11,64.84-42.05l-3-23.56a196.21,196.21,0,0,0,1.75-23.9c.13-11.49-1.13-24.71-2-33.73a14.55,14.55,0,0,0-4.25-9.15L113,94.5s4.65,15.59-6.12,17.07C101,112.37,87,114.24,76.54,99.79Z"/><path class="cls-19" d="M81.61,171s33,4.39,42.17-6.11c0,0,1-2.07-.39-3,.2,1.94-15.5,10.4-40.39,5A2.71,2.71,0,0,0,81.61,171Z"/><circle class="cls-20" cx="109.03" cy="169.4" r="7.7"/><g class="cls-21"><path class="cls-22" d="M72.47,20.46s-3.3,4,.89,6.68c1.46.93-4.35,5.45-4.35,5.45L66.67,45.77a17.55,17.55,0,0,1,5-1.22L82.34,56.72,75.53,61,53.78,46.33l-14.47-28L58,1.44,78.35-3.31l-3.58,7.1s-8.66,5.3-5.35,9.11C67.35,14.36,66.94,20.07,72.47,20.46Z"/></g><path class="cls-23" d="M63,51s-3.91-1.75-3.91-5,15.22-33.8,47-28.55c0,0,4.92,3.44,3.24,5.12,0,0,3,3.76.6,5.78S95.76,27.45,63,51Z"/><path class="cls-24" d="M64.76,43.89s20.33-24.78,42.07-21.55C106.83,22.34,86.57,23.43,64.76,43.89Z"/><path class="cls-25" d="M109.88,176a7.66,7.66,0,0,1-5.64-2.2c-1.52-1.69-1.94-4.13-1.27-7.26a1.5,1.5,0,0,1,2.93.63c-.46,2.13-.27,3.68.56,4.62,1.27,1.42,3.76,1.2,3.79,1.2a1.5,1.5,0,0,1,.3,3S110.27,176,109.88,176Z"/><path class="cls-26" d="M113.68,173.4a1.12,1.12,0,0,1-.32,0,1.49,1.49,0,0,1-1.14-1.78c.47-2.14.29-3.69-.55-4.63-1.25-1.42-3.73-1.22-3.76-1.21a1.5,1.5,0,1,1-.29-3c.16,0,4-.36,6.3,2.21,1.5,1.7,1.92,4.14,1.22,7.26A1.49,1.49,0,0,1,113.68,173.4Z"/><path class="cls-7" d="M30.48,117.93a2.1,2.1,0,0,0,0-3.59c-.86-.65-2,.79-1.15,1.49a3.89,3.89,0,0,0,3.18,1.3A2.65,2.65,0,0,0,34.62,115l-1.39.56a3,3,0,0,0,3.09.1c1.09-.55.13-2.19-1-1.64a1.06,1.06,0,0,1-1.17-.1,1,1,0,0,0-1.4.57c-.26,1.35-1.46.51-2.08,0L29.56,116l0,.31c-1,.69-.05,2.34,1,1.64Z"/><path class="cls-7" d="M25.14,105.77q.66,3.08,1.47,6.13a1,1,0,0,0,1.83-.51q-.81-3-1.47-6.13c-.26-1.19-2.09-.69-1.83.51Z"/><path class="cls-7" d="M50.46,138.65a19,19,0,0,1,2.15,7.46c.1,1.21,2,1.22,1.9,0a21.43,21.43,0,0,0-2.41-8.42c-.57-1.08-2.21-.12-1.64,1Z"/><path class="cls-27" d="M86.1,3.79a6.54,6.54,0,0,1,4.64,2.12,11.2,11.2,0,0,1,2.81-.37A10.25,10.25,0,0,1,101.18,9c8.37,3.14,5,8.19,4.85,8.47h.1s4.91,3.44,3.23,5.12c0,0,3,3.76.6,5.78a2.52,2.52,0,0,1-.87.44c6.88,10.73,11,29.67,8.28,45.28-.54,3.09-4.07,5.32-13.59,5.32h0a50.45,50.45,0,0,1-9.21-.82c.09.73.19,1.52.3,2.31h0c.48,3.4,1.18,7.26,1.93,7.83,4.86,3.65,12.1,5.16,16.17,5.75l5.89.55a14,14,0,0,1,1.31,1.49h.07c1.77,0,3.17,2,3.17,2l23.23,40.66-20.05,36s6.73,11.31,3.36,16.43l4.65,4.64s.74,2.49-2.63,2.49a10.1,10.1,0,0,1-3.9-1.27,255.26,255.26,0,0,1,.93,26.36,25.23,25.23,0,0,0-2.71-.41l0,1.72h0c-.07,11.95,0,29.22.68,33.16,1.11,6.16,0,9.19,0,9.19s3,47.93,3,48.3,4.24,5.82,4.24,5.82,5.61,4.42,10,7.92h0a12.66,12.66,0,0,1,3.66,1.54,3.67,3.67,0,0,1,1.1,2.3c.29.19.77.52,1.32.92a14.11,14.11,0,0,0,3.79.7c.6.6,0,1.26-.78,1.78.44.47.7.87.62,1.14-.28,1-4.34,5.32-11.68,5.32-.42,0-.84,0-1.28,0-7.7-.5-18.39-8.72-19.27-11a6.82,6.82,0,0,1,.12-4.61,12.71,12.71,0,0,1,1.83-5.45c1-1.82,1.71-7,1.71-7-11.11-39-4.74-44.47-6-47.29-.81-1.91-8.47-30.43-13.38-48.86a13.63,13.63,0,0,1-2.53-1.5,80.13,80.13,0,0,1-13.33,5.28l-1.41,3.54L75.46,259.45S73,268.69,70,271.67A131.27,131.27,0,0,1,62.6,293c-5.05,11.31-7.27,26.86-7.27,26.86s3.62,9.18,4,14.92c4.26,5.83,8.08,13,3,15.14a29.17,29.17,0,0,1-11,1.94c-6.11,0-11.59-1.44-12.87-2.71-2.05-2.05,3.78-17.61,3.78-17.61.18-1.41.57-2.78,1.4-3.35a25.2,25.2,0,0,0,4.44-4.85s-.76-2,1.36-4.75,5.25-20.21,5.25-22.5S51.9,276.68,61.32,270c0,0,1.08-21.86,3.84-37.68h0c.3-1.79.63-3.51,1-5.1-2.89.24-4.62.27-4.62.27s15.12-42.23,20-56.59a2.65,2.65,0,0,1,1.3-3.9c.07-.22.12-.41.16-.54,1.21-4.44-10.2-26.24-10.2-26.24l-9.63-6L56.48,165l-4.54-1.72-6-9.31L35,121.27l-.32-.1a10.38,10.38,0,0,1-4.54-3.8,38.07,38.07,0,0,1-4.27.25H25.4a.7.7,0,0,1-.43-.09.81.81,0,0,1-.25-.53,45.87,45.87,0,0,0-2.45-8.6,1.44,1.44,0,0,1-.14-.76c.1-.46.64-.67,1.12-.72a2.74,2.74,0,0,0,1.37-.27c.52-.36.68-1.16,1.28-1.36a1,1,0,0,1,.3,0c.28,0,.57.08.84.08a.83.83,0,0,0,.35-.06c.48-.2.6-.82.93-1.23a3.28,3.28,0,0,1,2.05-.81A14.59,14.59,0,0,0,34,101.77a.35.35,0,0,0,.21-.18.5.5,0,0,0,0-.21c-.56-2.58-1.73-5.17-2.28-7.75a58.26,58.26,0,0,1-.94-7.4A3.92,3.92,0,0,1,33,83.74a1.09,1.09,0,0,1,.52-.16.53.53,0,0,1,.24.06c.29.13.39.48.46.8.62,2.88,2.31,10.19,2.94,13.07.39,1.84,3.72,6.43,4.43,7s.82,1.23,1.62,1.84a1.69,1.69,0,0,1,.56.57,1.83,1.83,0,0,1,.15.81l.12,4.88c0,1.9,0,4-1.33,5.37h0l8.73,20.8-.17-.59.23.46.26-21.8s6.79-6.1,7.67-7c.56-.57,4.74-3,7.62-4.67h0c3-3,9.48-5.4,9.48-5.4s6.16-7,7.47-8.28.71-4.94.71-4.94l-3.38-13A25.5,25.5,0,0,1,73,65.7a3,3,0,0,1-2.2.88,7.73,7.73,0,0,1-3.93-1.49s-8.55-8.55-5.86-12.59a2.54,2.54,0,0,1,2.22-1.22c1.76,0,3.86,1.45,5.34,2.7-3-2.65-4.66-3-5.31-3h-.21L63,51l0,0-.06,0,0-.07c-.64-.31-3.5-1.88-3.75-4.55-4.83-1.51-3.9-4.2-3.9-4.2-4.64-3.16,0-8.25,0-8.25-2.07-2.07-.47-5.08-.47-5.08-2.42-3.43.61-7.67.61-7.67.33-3.71,5.89-5.9,5.89-5.9.44-1.85,2.73-2.72,2.73-2.72a4,4,0,0,1,3.73-2.3h.3c2-4.35,9.57-4.77,12.39-4.77.67,0,1.08,0,1.08,0A7.54,7.54,0,0,1,86.1,3.79m38,159.09,12.47-22.48-11.85-17.62c.31,5.06.51,10.26.45,15.15a196.21,196.21,0,0,1-1.75,23.9,1.65,1.65,0,0,1,.68,1m24.56,170.23h0M86.1,0h0a10.74,10.74,0,0,0-5.72,1.73c-4.14,0-11,.71-14.5,5a7.64,7.64,0,0,0-4.53,3,8.32,8.32,0,0,0-2.94,2.79c-2.12,1.1-5.73,3.51-6.62,7.33-1.31,2.22-2.49,5.87-1.12,9.37a8.37,8.37,0,0,0,.11,4.59,9.71,9.71,0,0,0-1.32,5.82A7.59,7.59,0,0,0,51.52,44a6.58,6.58,0,0,0,.56,1.63,8.3,8.3,0,0,0,4,3.64,9.12,9.12,0,0,0,1.33,2.11C56,54.3,56.82,58,59.84,62.45a39.79,39.79,0,0,0,4.39,5.32l.18.19.21.16a11.31,11.31,0,0,0,6.22,2.25,8.33,8.33,0,0,0,.88-.05A32.32,32.32,0,0,0,78,76L81,87.33a8,8,0,0,1,0,1.82c-1.46,1.53-5.19,5.72-6.72,7.44-2,.81-6.63,2.86-9.53,5.54-7,4.05-7.59,4.62-8,5.05s-4.92,4.49-7.51,6.82L48,115.11l0,1.67,0,3.79L47,118.33a13.36,13.36,0,0,0,.87-5.85l-.13-4.87a5.31,5.31,0,0,0-.58-2.49,5.24,5.24,0,0,0-1.51-1.74l0-.08a7.26,7.26,0,0,0-1.51-1.71,24.13,24.13,0,0,1-3.2-4.93c-.32-1.47-.91-4-1.48-6.54s-1.15-5.07-1.46-6.48a4.6,4.6,0,0,0-2.56-3.44,4.33,4.33,0,0,0-1.84-.41,4.76,4.76,0,0,0-2.35.63,7.48,7.48,0,0,0-4,5.39c-.22,2,1,8.55,1,8.61a39,39,0,0,0,1.25,4.29c.09.26.17.51.25.77l-.09,0-.24,0a6.38,6.38,0,0,0-3.88,1.95,4.94,4.94,0,0,0-.76.18,4.8,4.8,0,0,0-2.2,1.51,4.77,4.77,0,0,0-4.11,3.66,5,5,0,0,0,.32,2.94,42.19,42.19,0,0,1,2.25,7.9,4.4,4.4,0,0,0,1.83,3,4.46,4.46,0,0,0,2.53.77h.53c.86,0,1.72,0,2.58-.08A14.7,14.7,0,0,0,31.93,124L42.34,155.2l.15.46.26.4,6,9.31.68,1,1.17.44,4.54,1.72,4.12,1.55.93-4.3,5.54-25.61,4.18,2.61c.86,1.7,2.81,5.56,4.71,9.74,3.48,7.65,4.38,11,4.6,12.33a6.42,6.42,0,0,0-1.54,2.39,6.26,6.26,0,0,0-.15,3.58c-5.23,15.22-19.44,54.88-19.59,55.29l-1.85,5.17,5.4-.1-.06.33-.11.55v.08c-2.29,13.4-3.4,30.46-3.71,35.87-8.4,7.6-7.19,22-6.78,26.88,0,.44.09,1,.09,1.14-.07,2.51-3.06,17.84-4.49,20.22a9.84,9.84,0,0,0-2.26,5.93,16.53,16.53,0,0,1-2.69,2.83c-1.56,1.09-2.51,2.9-2.92,5.53-.41,1.12-1.6,4.45-2.62,8-2.22,7.68-2.25,11.15-.14,13.26,2.63,2.62,9.9,3.82,15.55,3.82a32.79,32.79,0,0,0,12.48-2.23,7.4,7.4,0,0,0,4.45-4.9c1.06-3.77-.61-8.59-5.24-15.13a72,72,0,0,0-3.82-13.94c.57-3.48,2.76-15.78,6.84-24.91a137.14,137.14,0,0,0,7.37-21c3-3.76,5.08-10.86,5.62-12.81l13.16-33,.74-1.85a85.93,85.93,0,0,0,9.89-3.86c10.42,39.07,12.34,45.49,12.86,46.93,0,.28-.11.75-.18,1.15-.77,4.6-2.55,15.32,5.91,45.31a24.45,24.45,0,0,1-1.16,4.88,16.26,16.26,0,0,0-2.29,6.62,10.44,10.44,0,0,0,.12,6.64c1.18,3.09,6.86,6.91,8.57,8,2.92,1.88,8.63,5.08,14,5.43.5,0,1,.05,1.52.05,8.74,0,14.55-5.21,15.35-8.13a4.07,4.07,0,0,0,.12-1.51,4.47,4.47,0,0,0,.39-1.43,4.53,4.53,0,0,0-1.33-3.65l-1-1.05-1.48-.06a12.49,12.49,0,0,1-2-.27,6.7,6.7,0,0,0-2-2.77A13.32,13.32,0,0,0,146,326c-3.58-2.86-7.79-6.19-9-7.17-1.22-1.58-2.57-3.37-3.22-4.29-.17-2.79-.77-12.45-2.93-46.74a25.43,25.43,0,0,0-.1-10.27c-.22-1.24-.72-6.59-.63-29.48l2.63.83.11-5c0-.49.23-10.44-.5-21.39a6.2,6.2,0,0,0,5.09-2.37,5.8,5.8,0,0,0,.86-5l-.28-.92-.68-.68-2.89-2.9c1.21-5.35-1.67-12-3.46-15.48l19-34.14,1-1.87-1.07-1.86L126.68,96.59l-.1-.17-.11-.16a9.09,9.09,0,0,0-4.29-3.21c-.21-.23-.43-.46-.65-.68l-1-1-1.36-.13-5.8-.54c-3.42-.5-9.52-1.74-13.7-4.56A27.22,27.22,0,0,1,99,83c1.56.12,3.14.19,4.75.19,3.93,0,15.87,0,17.34-8.46,2.51-14.49-.5-32.91-7.21-45.23,1.33-2.31.89-5.14-.4-7.52a5.3,5.3,0,0,0,0-.69,8.55,8.55,0,0,0-3-5.13,8,8,0,0,0-.25-3.8c-.88-2.81-3.2-5-6.89-6.59a14,14,0,0,0-9.83-4,14.29,14.29,0,0,0-1.72.1A10,10,0,0,0,86.1,0Zm42.53,146.83c.16-2.75.27-5.73.31-8.85,0-.67,0-1.36,0-2.06l3.14,4.67-3.46,6.24Z"/><polyline class="cls-6" points="34.69 121.17 35.21 121.47 43.24 118.2"/></g></svg>