<svg id="Camada_1" data-name="Camada 1" xmlns="http://www.w3.org/2000/svg" xmlns:xlink="http://www.w3.org/1999/xlink" viewBox="0 0 881 246.95"><defs><style>.cls-1{fill:none;}.cls-2{fill:#65c4d1;}.cls-3{fill:#f9f9f9;}.cls-4{fill:#97d8dd;}.cls-5{clip-path:url(#clip-path);}.cls-6{fill:#eaa000;}.cls-7{fill:#eac2a7;}.cls-8{fill:#c9a68f;}.cls-9{fill:#d6aa8b;}.cls-10{fill:#d6d6d6;}.cls-11{fill:#c99f4b;}.cls-12{fill:#6d5f56;}.cls-13{fill:#493e38;}.cls-14{clip-path:url(#clip-path-2);}.cls-15{fill:#fcfcfc;}.cls-16{fill:#d32222;}.cls-17{fill:#f4f4f4;}.cls-18{clip-path:url(#clip-path-3);}.cls-19{fill:#b7b7b7;}.cls-20{fill:#6d472e;}.cls-21{fill:#c99e32;}.cls-22{clip-path:url(#clip-path-4);}.cls-23{fill:#aa7e30;}.cls-24{fill:#fff;}.cls-25{fill:#ddd;}.cls-26{fill:#846829;}.cls-27{fill:#e8cd95;}</style><clipPath id="clip-path"><path class="cls-1" d="M149.31,228.48s-31.64,24-84.64,4.29S18.54,61.32,18.54,61.32,44.5,0,93.78,0c11.07,0,52,5.07,52,28.44s28.29,128.28,28.29,128.28,11.88,46,5.94,49.51"/></clipPath><clipPath id="clip-path-2"><path class="cls-1" d="M98.42,68.73c-.23-.33,16.36,3.89,23.59.27,0,0-.93,13-6.9,13.42C109,82.85,102.55,79.32,98.42,68.73Z"/></clipPath><clipPath id="clip-path-3"><path class="cls-1" d="M111.7,244.64c3.59,7.11,28.79,8.61,30.88,9.27,0,0,.66-28.54-3.37-44.58S111.7,244.64,111.7,244.64Z"/></clipPath><clipPath id="clip-path-4"><path class="cls-1" d="M81.05,67.73c4.45,1.84.62-6.13.62-6.13s-.42-8-2.68-9.35a32.26,32.26,0,0,1-4.94-4l11.36-7.78,31-21.29s4.29-6-5.51-9.65A11.66,11.66,0,0,0,99.06,6S94.77.84,88.56,5.56c0,0-12.49-.73-15.32,5.4a4.66,4.66,0,0,0-4.6,2.6s-2.6,1-3.1,3.1c0,0-6.32,2.49-6.7,6.71,0,0-3.45,4.83-.69,8.73,0,0-1.82,3.43.53,5.79,0,0-5.28,5.78,0,9.38,0,0-1.3,3.76,6.44,5.29l2.3,4.75s2.21-1,8.58,5.36S81.05,67.73,81.05,67.73Z"/></clipPath></defs><title>4-intro</title><path class="cls-2" d="M871,192.52H152V105.16H871a10,10,0,0,1,10,10v67.36A10,10,0,0,1,871,192.52Z"/><circle class="cls-3" cx="106" cy="140.95" r="103"/><path class="cls-2" d="M106,41A100,100,0,1,1,6,141,100,100,0,0,1,106,41m0-6A106,106,0,1,0,212,141,106.12,106.12,0,0,0,106,35Z"/><path class="cls-4" d="M105.74,41.13a99.74,99.74,0,1,0,99.74,99.74A99.73,99.73,0,0,0,105.74,41.13Zm0,192.82a93.09,93.09,0,1,1,93.09-93.08A93.08,93.08,0,0,1,105.74,234Z"/><path class="cls-4" d="M152.81,68.42a3.32,3.32,0,0,0-2.51-.48,3.42,3.42,0,0,0-2.1,1.44l-5.43,8.37a3.32,3.32,0,0,0,1,4.65,42.72,42.72,0,0,1,3.73,2.66c.75.57,1.5,1.14,2.08,1.55,1,.85,2,1.75,3,2.65l-2.3,2.3a66.67,66.67,0,0,0-14.57-10l6.8-15.24a3.32,3.32,0,0,0-1.69-4.4,86.89,86.89,0,0,0-30.63-7.29,3.3,3.3,0,0,0-3.49,3.14l-.52,10a3.33,3.33,0,0,0,3.14,3.49l3.5.17,3.73.57,1.44.22c.72.11,1.44.21,2.07.35l.45.12-.87,3.25a67.61,67.61,0,0,0-17.61-1.42l-1.72-16.64a3.31,3.31,0,0,0-3.66-3,85.73,85.73,0,0,0-30.2,9,3.32,3.32,0,0,0-1.45,4.47l4.54,8.88A3.32,3.32,0,0,0,74,78.76c.67-.31,1.33-.63,2-1a34.31,34.31,0,0,1,4.75-2l.85-.32c1-.37,2-.73,2.93-1l.86,3.22c-.82.27-1.61.57-2.4.86l-.79.3a32.12,32.12,0,0,0-4.72,2c-.57.28-1.14.57-2,1L69.8,85l-.38.21L59.61,71.73a3.35,3.35,0,0,0-2.17-1.33A3.3,3.3,0,0,0,55,71,86.67,86.67,0,0,0,33.28,93.8a3.33,3.33,0,0,0,1,4.6l8.36,5.44a3.36,3.36,0,0,0,2.55.46,3.32,3.32,0,0,0,2.1-1.52q1.23-1.92,2.65-3.72c.58-.75,1.15-1.51,1.56-2.09.85-1,1.75-2,2.65-3l2.3,2.3a66.28,66.28,0,0,0-10,14.57L31.2,104a3.34,3.34,0,0,0-4.4,1.69,86.94,86.94,0,0,0-7.29,30.64,3.34,3.34,0,0,0,3.15,3.49l10,.51a3.3,3.3,0,0,0,3.49-3.14l.18-3.5.56-3.73c.09-.47.16-1,.22-1.44.11-.72.21-1.44.35-2.06l.12-.46,3.25.87a67.61,67.61,0,0,0-1.42,17.61l-16.64,1.73a3.33,3.33,0,0,0-3,3.65,86.8,86.8,0,0,0,9,30.21,3.31,3.31,0,0,0,4.47,1.44L42.12,177a3.32,3.32,0,0,0,1.51-4.36c-.31-.66-.63-1.31-1-2a34.73,34.73,0,0,1-2-4.78L40.3,165c-.37-1-.72-1.95-1-2.91l3.26-.87a65.78,65.78,0,0,0,7.59,15.92L36.6,187a3.32,3.32,0,0,0-.73,4.65,86.47,86.47,0,0,0,22.8,21.68,3.32,3.32,0,0,0,4.6-1L68.71,204a3.32,3.32,0,0,0-1.06-4.66c-1.28-.82-2.53-1.7-3.73-2.65-.74-.58-1.49-1.15-2.08-1.56-1-.85-2-1.74-3-2.65l2.35-2.35c.89.81,1.81,1.63,2.92,2.54.64.46,1.27.94,1.9,1.43a39.8,39.8,0,0,0,3.71,2.6l5.93,3.41.08,0-6.81,15.27a3.29,3.29,0,0,0-.07,2.54,3.34,3.34,0,0,0,1.75,1.85,87,87,0,0,0,30.64,7.29h.17a3.33,3.33,0,0,0,3.32-3.15l.51-10a3.32,3.32,0,0,0-3.14-3.5l-3.49-.17-3.73-.57-1.44-.22c-.72-.1-1.44-.21-2.07-.35l-.46-.12.88-3.25a67.57,67.57,0,0,0,17.6,1.42l1.73,16.64a3.31,3.31,0,0,0,3.65,3,85.57,85.57,0,0,0,30.21-9,3.32,3.32,0,0,0,1.45-4.47l-4.54-8.88a3.32,3.32,0,0,0-4.35-1.51c-.67.31-1.33.64-2,1a34.31,34.31,0,0,1-4.75,2l-.85.32c-1,.37-2,.73-2.93,1.05l-.88-3.26A65.23,65.23,0,0,0,142,196.49L151.87,210a3.32,3.32,0,0,0,4.64.73,86.32,86.32,0,0,0,21.68-22.8,3.32,3.32,0,0,0-1-4.6l-8.36-5.44a3.32,3.32,0,0,0-2.55-.45,3.28,3.28,0,0,0-2.1,1.51,42.46,42.46,0,0,1-2.65,3.72c-.58.75-1.15,1.51-1.56,2.09-.85,1-1.75,2-2.66,3l-2.29-2.3a66.28,66.28,0,0,0,10-14.57l15.25,6.8a3.33,3.33,0,0,0,4.39-1.69,87,87,0,0,0,7.3-30.64,3.32,3.32,0,0,0-3.15-3.48l-10-.52a3.35,3.35,0,0,0-3.49,3.14l-.18,3.5-.57,3.73c-.08.48-.15,1-.22,1.44-.1.72-.2,1.44-.35,2.06l-.11.46-3.21-.86,0-.08a23.08,23.08,0,0,0,.41-2.35c.05-.37.1-.74.17-1.15l.51-3.27c0-.11,0-.22,0-.34l.17-3.48v-6.94l16.7-1.73a3.33,3.33,0,0,0,3-3.66,86.8,86.8,0,0,0-9-30.21,3.32,3.32,0,0,0-4.47-1.44l-8.88,4.53a3.33,3.33,0,0,0-1.51,4.36c.31.66.63,1.31.95,2a34.73,34.73,0,0,1,2.05,4.78l.33.88c.37,1,.73,2,1.05,2.91l-3.26.87a66.08,66.08,0,0,0-7.59-15.91l13.5-9.83a3.31,3.31,0,0,0,1.33-2.17,3.37,3.37,0,0,0-.59-2.48A86.59,86.59,0,0,0,152.81,68.42Zm2,32.68a3.34,3.34,0,0,0-.73,4.64,59.27,59.27,0,0,1,9.37,19.65,3.34,3.34,0,0,0,4.07,2.35l9.64-2.58a3.31,3.31,0,0,0,2.39-3.9,48.49,48.49,0,0,0-2.17-6.87l-.26-.72a35.41,35.41,0,0,0-1.87-4.51l3-1.51a80.26,80.26,0,0,1,6.44,21.58l-16.46,1.71a3.34,3.34,0,0,0-3,3.48l.17,3.23V144l-.17,3.14-.47,3.05c-.07.43-.14.87-.2,1.31-.08.59-.16,1.18-.27,1.67l-.83,3.2a3.32,3.32,0,0,0,2.36,4l9.63,2.57a3.32,3.32,0,0,0,4.08-2.38l1-3.79c.2-.89.33-1.79.46-2.69.06-.43.12-.85.2-1.33l.62-4.11,0-.51,3.27.17a80.93,80.93,0,0,1-5.21,21.89l-15.11-6.74a3.36,3.36,0,0,0-2.55-.07,3.33,3.33,0,0,0-1.85,1.76,59.41,59.41,0,0,1-12.32,18,3.33,3.33,0,0,0,0,4.7l7.05,7.05a3.26,3.26,0,0,0,2.45,1,3.32,3.32,0,0,0,2.38-1.12l1.8-2c1.16-1.25,2.31-2.5,3.53-4,.5-.71,1-1.41,1.57-2.1.37-.49.74-1,1.11-1.48l2.8,1.82a79.87,79.87,0,0,1-15.5,16.3L145.5,190a3.31,3.31,0,0,0-4.64-.73,59.12,59.12,0,0,1-19.64,9.37,3.34,3.34,0,0,0-2.36,4.07l2.58,9.64a3.33,3.33,0,0,0,3.91,2.39,48.78,48.78,0,0,0,6.89-2.18l.69-.26a33.42,33.42,0,0,0,4.51-1.86l1.51,3a80.26,80.26,0,0,1-21.58,6.44l-1.71-16.46a3.3,3.3,0,0,0-3.63-3,60.77,60.77,0,0,1-21.77-1.77A3.32,3.32,0,0,0,86.19,201l-2.58,9.64a3.32,3.32,0,0,0,.34,2.54,3.37,3.37,0,0,0,2,1.54l3.79,1c.89.21,1.8.34,2.7.47l1.32.2,4.11.61.51,0-.17,3.27A80.77,80.77,0,0,1,76.37,215L83.1,199.9a3.31,3.31,0,0,0-1.59-4.35l-2.76-1.32L73.08,191a32,32,0,0,1-3-2.16c-.7-.54-1.41-1.08-1.92-1.43-1-.79-1.88-1.64-2.8-2.48-.68-.63-1.37-1.26-2.07-1.87a3.33,3.33,0,0,0-4.54.15l-7,7.06a3.33,3.33,0,0,0-1,2.44,3.36,3.36,0,0,0,1.12,2.39l1.95,1.77c1.27,1.16,2.53,2.32,4,3.56.71.5,1.4,1,2.1,1.56l1.48,1.12-1.82,2.8a79.82,79.82,0,0,1-16.29-15.5l13.38-9.74A3.28,3.28,0,0,0,58,178.47a3.33,3.33,0,0,0-.59-2.48A59.34,59.34,0,0,1,48,156.35,3.32,3.32,0,0,0,43.94,154l-9.64,2.57a3.33,3.33,0,0,0-2.39,3.91,48.45,48.45,0,0,0,2.16,6.87l.27.71a34.77,34.77,0,0,0,1.86,4.51l-3,1.51A80.51,80.51,0,0,1,26.8,152.5l16.46-1.71a3.33,3.33,0,0,0,3-3.63A61.22,61.22,0,0,1,48,125.39a3.33,3.33,0,0,0-2.35-4.08L36,118.74a3.29,3.29,0,0,0-2.53.34,3.35,3.35,0,0,0-1.55,2l-1,3.79c-.2.89-.34,1.79-.47,2.69-.06.43-.12.85-.2,1.33L29.68,133l0,.51-3.26-.17a80.54,80.54,0,0,1,5.2-21.89l15.12,6.74a3.31,3.31,0,0,0,4.39-1.69,59.62,59.62,0,0,1,12.33-18,3.33,3.33,0,0,0,0-4.7l-7.05-7a3.34,3.34,0,0,0-4.84.14c-.59.67-1.19,1.32-1.8,2-1.15,1.25-2.3,2.51-3.52,4-.51.71-1,1.41-1.57,2.11-.37.48-.75,1-1.12,1.47l-2.79-1.82a79.87,79.87,0,0,1,15.5-16.3L66,91.77a3.33,3.33,0,0,0,4.65.73l.77-.58A12.74,12.74,0,0,1,73,90.8l5.44-3.15c.64-.29,1.28-.6,1.91-.91a26.19,26.19,0,0,1,3.89-1.67l1-.37a34.11,34.11,0,0,1,4.82-1.52,3.32,3.32,0,0,0,2.54-4.12L90,69.43A3.34,3.34,0,0,0,86.12,67a50.55,50.55,0,0,0-6.89,2.18l-.69.26A34.64,34.64,0,0,0,74,71.33l-1.52-3a80.69,80.69,0,0,1,21.59-6.44l1.7,16.46a3.31,3.31,0,0,0,3.63,3,61.2,61.2,0,0,1,21.77,1.77,3.34,3.34,0,0,0,2.53-.33,3.3,3.3,0,0,0,1.54-2l2.58-9.64a3.33,3.33,0,0,0-2.38-4.08l-3.78-1c-.9-.2-1.8-.34-2.71-.47l-1.32-.2-4.1-.61-.52,0,.17-3.26a80.45,80.45,0,0,1,21.89,5.2l-6.74,15.12a3.32,3.32,0,0,0,1.7,4.39,59.74,59.74,0,0,1,18,12.33,3.33,3.33,0,0,0,4.7,0l7.05-7a3.34,3.34,0,0,0-.14-4.84c-.66-.58-1.31-1.18-2-1.77-1.26-1.16-2.52-2.32-4-3.55-.71-.51-1.4-1-2.09-1.57l-1.48-1.12,1.81-2.79a79.61,79.61,0,0,1,16.3,15.5Z"/><path class="cls-4" d="M105.74,87.67a53.09,53.09,0,0,0-45.87,80,4,4,0,0,0,.2.35,53.87,53.87,0,0,0,13.56,15.17c.09.06.14.14.23.2l.07,0a52.79,52.79,0,0,0,63.6,0l.09,0c.09-.06.14-.14.22-.2A53.56,53.56,0,0,0,151.4,168a2.5,2.5,0,0,0,.21-.35,53.09,53.09,0,0,0-45.87-80Zm-6,7.08-36.9,64.18a46.5,46.5,0,0,1,36.9-64.18ZM79.9,179.55l25.84-44.92,25.84,44.92a46.4,46.4,0,0,1-51.68,0Zm56.95-4.17-26.79-46.57a5,5,0,0,0-8.65,0L74.62,175.38a46.7,46.7,0,0,1-8.09-9.53l39.21-68.19,7.6,13.19.15.29,31.45,54.71a46.7,46.7,0,0,1-8.09,9.53Zm11.78-16.45-29.22-50.84c0-.1-.1-.2-.15-.3l-7.52-13a46.5,46.5,0,0,1,36.89,64.17Z"/><g class="cls-5"><path class="cls-6" d="M93.78,3.56A7.45,7.45,0,0,1,99.06,6a12.52,12.52,0,0,1,3.2-.42,11.67,11.67,0,0,1,8.68,3.94c9.53,3.58,5.74,9.32,5.52,9.64h.11s5.59,3.91,3.68,5.83c0,0,3.44,4.28.69,6.58a3.21,3.21,0,0,1-1,.5c7.83,12.21,12.51,33.76,9.42,51.53-.61,3.52-4.63,6-15.46,6h0a57.36,57.36,0,0,1-10.48-.93c.1.83.22,1.73.34,2.63h0c.54,3.87,1.33,8.27,2.2,8.91,5.52,4.15,13.76,5.87,18.39,6.54l6.71.63a17.28,17.28,0,0,1,1.49,1.69h.07c2,0,3.61,2.21,3.61,2.21l26.44,46.28-22.82,41s7.66,12.87,3.83,18.69l5.29,5.29s.84,2.83-3,2.83a11.48,11.48,0,0,1-4.44-1.44,291,291,0,0,1,1.06,30,29.15,29.15,0,0,0-3.09-.46l0,2h0c-.08,13.6,0,33.25.77,37.73,1.27,7,0,10.46,0,10.46s3.45,54.55,3.45,55,4.83,6.63,4.83,6.63,6.38,5,11.35,9h0A14.43,14.43,0,0,1,164,376a4.09,4.09,0,0,1,1.25,2.61c.33.22.88.59,1.51,1a16,16,0,0,0,4.31.81c.68.68,0,1.42-.89,2,.5.53.79,1,.71,1.29-.32,1.2-4.95,6.06-13.3,6.06-.47,0-1,0-1.45,0-8.77-.58-20.93-9.93-21.93-12.53a7.72,7.72,0,0,1,.13-5.25c0-2.22,1.34-4.88,2.08-6.21,1.15-2.06,2-7.93,2-7.93-12.64-44.36-5.4-50.6-6.78-53.82-.87-2-8.68-31.08-14.26-52h0l0-.1c-.32-1.21-.63-2.39-.94-3.54a14.5,14.5,0,0,1-2.88-1.7,90.8,90.8,0,0,1-15.17,6l-1.61,4L81.67,294.52S78.81,305,75.42,308.43A149.55,149.55,0,0,1,67,332.68c-5.74,12.87-8.27,30.57-8.27,30.57s4.12,10.45,4.6,17c4.84,6.63,9.19,14.81,3.42,17.23a33.22,33.22,0,0,1-12.54,2.2c-7,0-13.19-1.63-14.64-3.08-2.34-2.33,4.29-20,4.29-20,.21-1.6.66-3.16,1.6-3.81,2.29-1.61,5-5.52,5-5.52s-.86-2.3,1.55-5.4,6-23,6-25.61-3.22-22.07,7.51-29.73c0,0,1.22-24.88,4.37-42.88h0c.34-2,.71-4,1.12-5.81-3.3.27-5.27.31-5.27.31s3.18-8.88,7.25-20.3c-3.47-.33-1.19-5.71-1.19-5.71a29.52,29.52,0,0,0,4.08-2.4l1.33-3.75C76.12,223.1,79,214.3,79,214.3l-10.54-7.94L37.84,183.27s24.6-58,25.59-59c.65-.64,5.4-3.42,8.68-5.31,3.42-3.43,10.78-6.14,10.78-6.14s7-7.93,8.51-9.42.8-5.64.8-5.64L88.36,83c-6.78-4.26-9.45-9-9.45-9a3.41,3.41,0,0,1-2.5,1,8.77,8.77,0,0,1-4.47-1.7S62.21,63.59,65.27,59a2.89,2.89,0,0,1,2.53-1.39c2,0,4.39,1.65,6.07,3.07-3.45-3-5.3-3.43-6.05-3.43l-.23,0-.06,0,0,0-.07,0,0-.07c-.72-.36-4-2.15-4.26-5.18-5.5-1.72-4.44-4.79-4.44-4.79-5.28-3.6,0-9.38,0-9.38-2.35-2.36-.53-5.79-.53-5.79-2.76-3.9.69-8.73.69-8.73.38-4.22,6.7-6.71,6.7-6.71.5-2.1,3.1-3.1,3.1-3.1a4.6,4.6,0,0,1,4.25-2.62,2.55,2.55,0,0,1,.35,0c2.29-5,10.88-5.43,14.1-5.43.76,0,1.22,0,1.22,0a8.59,8.59,0,0,1,5.22-2M137,184.61,151.18,159,137.69,139c.36,5.76.58,11.68.52,17.25a223.7,223.7,0,0,1-2,27.19,1.91,1.91,0,0,1,.77,1.19M85.13,203.67c1.37-3.92,2.57-7.36,3.46-10a3,3,0,0,1,1.48-4.44c.08-.26.14-.46.18-.62,1.38-5-11.61-29.86-11.61-29.86l-11-6.87L52.3,180.81l24.58,17.12,8.25,5.74m79.81,174.68h0M93.78,0h0a11.67,11.67,0,0,0-6.3,2h-.14c-4.62,0-12.4.78-16.16,5.58a8,8,0,0,0-5.06,3.3A9,9,0,0,0,62.81,14c-2.28,1.16-6.45,3.81-7.37,8.06-1.46,2.41-2.81,6.49-1.2,10.32a8.79,8.79,0,0,0,.18,5.37,10.57,10.57,0,0,0-1.6,6.45,8,8,0,0,0,2.3,4.72,6.17,6.17,0,0,0,.62,1.88,8.79,8.79,0,0,0,4.4,3.93A9.45,9.45,0,0,0,62,57.57c-1.73,3.17-.88,7.31,2.54,12.32a44.69,44.69,0,0,0,4.91,6l.37.33a12.07,12.07,0,0,0,6.62,2.41,8.23,8.23,0,0,0,1.33-.11,36,36,0,0,0,7.52,6.78l3.45,13.23a8.74,8.74,0,0,1,0,2.59c-1.56,1.6-6.18,6.81-7.89,8.74-2.16.86-7.56,3.2-10.85,6.28-8,4.59-8.61,5.24-9,5.66-.69.69-1.11,1.11-13.92,31-6.21,14.46-12.37,29-12.43,29.14l1.14,4.24L66.31,209.2l8.54,6.45c-.88,3.17-1.71,7.18-1.29,10.07L73,227.39a29.18,29.18,0,0,1-2.64,1.47l-1.75,1.82c-.48,1.15-1.93,5.1-.17,8a4.52,4.52,0,0,0,.34.51c-3.61,10.12-6.31,17.66-6.31,17.66l3.42,4.76.81,0L66.43,263h0c-2.72,15.57-4,35.82-4.33,41.67-9.53,8.34-8.16,24.64-7.7,30.17.05.55.1,1.17.1,1.35,0,2.9-3.57,20.92-5.24,23.44a10.72,10.72,0,0,0-2.43,6.59,20.71,20.71,0,0,1-3.39,3.58c-1.61,1.12-2.6,3-3,5.86-.44,1.19-1.8,5-3,9-2.42,8.35-2.52,12.25-.37,14.4,2.71,2.71,10.68,4.13,17.16,4.13a36.69,36.69,0,0,0,13.92-2.48,7.67,7.67,0,0,0,4.63-5.08c1.14-4.09-.76-9.42-6-16.74-.67-5.8-3.4-13.45-4.38-16.07.59-3.7,3.11-18.08,7.86-28.73a156,156,0,0,0,8.39-24c3.36-4.12,5.78-12.32,6.37-14.48l15-37.58,1-2.45a94.26,94.26,0,0,0,12.24-4.81l.1.05.53,2V253c12.08,45.25,13.87,51,14.33,52.2,0,.32-.13,1-.22,1.52-.87,5.2-2.89,17.31,6.75,51.4a27.64,27.64,0,0,1-1.44,6,18.07,18.07,0,0,0-2.5,7.28,11.08,11.08,0,0,0,.08,7.18c1.3,3.39,8.1,7.89,9.46,8.75,3.26,2.1,9.63,5.67,15.57,6.06q.84.06,1.68.06c9.57,0,15.89-5.57,16.74-8.69a4,4,0,0,0,.1-1.66,4.35,4.35,0,0,0-.84-5.11l-2.37-1a14,14,0,0,1-2.81-.44,7,7,0,0,0-2.13-3.2,14.44,14.44,0,0,0-4.78-2.26c-4.16-3.33-9.13-7.25-10.46-8.3-1.49-1.92-3.15-4.13-3.87-5.16-.17-2.83-.82-13.36-3.36-53.53.4-1.63,1-5.46-.09-11.47-.56-3.12-.82-16.32-.72-36.29l3.11-2.23c0-.56.27-12.33-.63-25.08l.45,0c3.1,0,4.73-1.31,5.55-2.4a5.83,5.83,0,0,0,.86-5l-.9-1.5-3.59-3.59c.85-3.14.4-7.13-1.35-11.93a50.58,50.58,0,0,0-2.62-5.93l21.86-39.22,0-3.5-26.44-46.29-.2-.31a9.47,9.47,0,0,0-4.69-3.44c-.28-.3-.56-.6-.86-.9l-2.19-1-6.61-.62c-4-.59-11.25-2.06-16.15-5.46a32.18,32.18,0,0,1-1-4.89q3.09.3,6.31.3c4.31,0,17.42,0,19-9,2.87-16.49-.62-37.5-8.33-51.37,1.66-2.51,1.15-5.71-.35-8.36a4.41,4.41,0,0,0,0-.89c-.19-2.18-1.81-4.17-3.43-5.65a8.54,8.54,0,0,0-.19-4.36c-.95-3-3.48-5.38-7.54-7.08A15.45,15.45,0,0,0,102.26,2a15.9,15.9,0,0,0-2.16.15A10.64,10.64,0,0,0,93.78,0Zm47.44,169.65c.28-4,.5-8.54.56-13.38,0-1.55,0-3.16,0-4.85l5.24,7.79-5.78,10.44Zm-84.29,10L69,157l6.89,4.32c1,1.86,3.3,6.49,5.57,11.51,4.23,9.33,5.1,13.08,5.26,14.42a6.49,6.49,0,0,0-1.84,2.69,6.38,6.38,0,0,0-.1,3.85c-.44,1.26-.93,2.7-1.5,4.32L78.92,195l-22-15.31Z"/><path class="cls-7" d="M87.84,81,92.2,97.76s.69,4.14-.8,5.64-8.51,9.42-8.51,9.42l-3.9,7.7,22.64,12.87,27-7.24-.8-19s-13.83-.88-21.89-6.94c-1.59-1.18-2.93-15-2.93-15Z"/><path class="cls-8" d="M103.75,91.34c-.42-3.1-.77-6.21-.77-6.21L87.81,80.87,89,85.55s4.75,3.09,6.23,3.74A29,29,0,0,0,103.75,91.34Z"/><path class="cls-7" d="M75.25,117.17s-10.82,6.11-11.82,7.1-25.59,59-25.59,59l30.61,23.09L79,214.3s-3.34,10.23-1.38,12.18-5.75,5.6-5.75,5.6-3,7,3.07,5.51S89.18,232,89.18,232l4.06-22.68L76.88,197.93,52.3,180.81,67.68,151.9l11,6.87L92.09,149l-9.66-24.06-4.13-9Z"/><path class="cls-7" d="M78.91,74s8.78,15.63,35,15.63c10.84,0,14.86-2.53,15.47-6C133.2,61.48,125,33.51,113.69,25c-9.94-7.49-45.2,20.84-45.2,20.84L76,62.67S68.34,54.4,65.27,59s6.67,14.32,6.67,14.32S76.3,76.62,78.91,74Z"/><path class="cls-7" d="M131.27,109.45c2.61-1.38,4.94,1.87,4.94,1.87l26.44,46.28-22.82,41s7.66,12.87,3.83,18.69l5.29,5.29s.84,2.83-3,2.83-12.87-6.74-12.87-6.74l1-28.86,17-30.73-15.65-23.26-4.89-4.34S126.41,112,131.27,109.45Z"/><path class="cls-7" d="M103.81,239,81.67,294.52S78.81,305,75.42,308.43A149.55,149.55,0,0,1,67,332.68c-5.74,12.87-8.27,30.57-8.27,30.57s5.23,13.27,4.6,19.25c0,0,5,6.89,3,10.86S56.46,395,56.46,395s-13.16,1.72-15.11-1.56,2.47-12.06,2.47-12.06-.63-7,1.67-8.62,5-5.52,5-5.52-.86-2.3,1.55-5.4,6-23,6-25.61-3.22-22.07,7.51-29.73c0,0,2.6-52.86,10-60.22s28.27-11.72,28.27-11.72Z"/><path class="cls-9" d="M103.81,239l-7.08,17.76s-9.79,4.37-12.27,5c-1.84.45-14.95,4.5-14.51,1.86,1.38-8.26,3.28-15,5.59-17.34,7.35-7.35,28.27-11.72,28.27-11.72Z"/><path class="cls-7" d="M111.7,230.77s18.54,70,19.92,73.25-5.86,9.46,6.78,53.82c0,0-.8,5.87-2,7.93s-3.79,7.36-.46,9.2,14.14,11,18.73,11.84,13.22-3.22,13.22-3.22,4.6-1.73,3.16-3.16c0,0-4.19-.17-5.57-1.55s-17-13.68-17-13.68-4.83-6.21-4.83-6.63-3.45-55-3.45-55,1.27-3.45,0-10.46-.65-51.18-.65-51.18Z"/><path class="cls-9" d="M111.7,230.77l5.66,21.28c.5,1.86,22.11,3.36,22.11,3.36l.12-13.45Z"/><path class="cls-10" d="M111.7,244.64c3.59,7.11,28.79,8.61,30.88,9.27,0,0,.66-28.54-3.37-44.58S111.7,244.64,111.7,244.64Z"/><path class="cls-11" d="M81.05,67.73c4.45,1.84.62-6.13.62-6.13s-.42-8-2.68-9.35a32.26,32.26,0,0,1-4.94-4l42.4-29.07s4.29-6-5.51-9.65A11.66,11.66,0,0,0,99.06,6S94.77.84,88.56,5.56c0,0-12.49-.73-15.32,5.4a4.66,4.66,0,0,0-4.6,2.6s-2.6,1-3.1,3.1c0,0-6.32,2.49-6.7,6.71,0,0-3.45,4.83-.69,8.73,0,0-1.82,3.43.53,5.79,0,0-5.28,5.78,0,9.38,0,0-1.3,3.76,6.44,5.29l2.3,4.75s2.21-1,8.58,5.36S81.05,67.73,81.05,67.73Z"/><path class="cls-8" d="M111.93,68.16a1.5,1.5,0,0,1,0-3c1.62,0,6.15-1.37,9.28-2.44-1-7.89-6-13.79-9-16.67a1.5,1.5,0,0,1,2.07-2.17c3.47,3.32,9.39,10.29,10,19.76l.08,1.13-1.07.39C122.46,65.47,114.87,68.16,111.93,68.16Z"/><path class="cls-12" d="M100.08,55.52H100A1.49,1.49,0,0,1,98.58,54c0-.43.25-4.29,3-5.75,1.75-.93,3.92-.61,6.45.95a1.5,1.5,0,1,1-1.57,2.56c-1.52-.94-2.75-1.24-3.47-.86-1.08.57-1.38,2.69-1.41,3.22A1.49,1.49,0,0,1,100.08,55.52Z"/><path class="cls-12" d="M117.5,48.77a1.5,1.5,0,0,1-1.35-2.15c1-2.13,2.34-3.26,3.94-3.36,2.62-.18,4.53,2.65,4.74,3a1.5,1.5,0,0,1-2.52,1.63c-.45-.69-1.42-1.62-2-1.62-.31,0-.86.47-1.43,1.66A1.49,1.49,0,0,1,117.5,48.77Z"/><path class="cls-13" d="M98.42,68.73c-.23-.33,16.36,3.89,23.59.27,0,0-.93,13-6.9,13.42C109,82.85,102.55,79.32,98.42,68.73Z"/><g class="cls-14"><path class="cls-15" d="M97,70.56s15,7.18,23.15,1.39l-.33-3.33-23.32-2.4Z"/><path class="cls-16" d="M98.76,76.79s5.88-4,13.38.62-1.57,9.14-1.57,9.14Z"/></g><path class="cls-8" d="M113.46,83.46c-10.89,0-15.93-14.24-16-14.4l-.58-1.7,1.75.4c.15,0,15.46,3.43,23,.31a1,1,0,0,1,.77,1.85c-6.55,2.71-17.87,1-22.33.17,1.8,3.93,7.11,13.25,16.17,11a1,1,0,1,1,.48,1.94A13.58,13.58,0,0,1,113.46,83.46Z"/><path class="cls-8" d="M75.65,72.25s-.23-10.06-8-12.47"/><path class="cls-8" d="M67.68,151.9s6.62-8.88,5.75-7.53c-4.85,7.51,12.42,16.18,16.47,11.55a10.35,10.35,0,0,1-11.26,2.85Z"/><path class="cls-17" d="M82.89,112.82s-7.36,2.71-10.78,6.14c0,0,20.63,29.92,6.53,39.81,0,0,13,24.81,11.61,29.86S65.8,258.09,65.8,258.09s71.25-1.27,73.79-47.85l-3.37-26.82a223.7,223.7,0,0,0,2-27.19c.15-13.09-1.28-28.13-2.33-38.4A16.6,16.6,0,0,0,131,107.42l-6.71-.63s5.3,17.75-7,19.43C110.76,127.13,94.85,129.26,82.89,112.82Z"/><g class="cls-18"><path class="cls-19" d="M68.45,259.83s71.26-1.26,73.79-47.85Z"/></g><path class="cls-17" d="M82.89,112.82s-7.36,2.71-10.78,6.14c0,0,20.63,29.92,6.53,39.81,0,0,13,24.81,11.61,29.86S65.8,258.09,65.8,258.09s71.25-1.27,73.79-47.85l-3.37-26.82a223.7,223.7,0,0,0,2-27.19c.15-13.09-1.28-28.13-2.33-38.4A16.6,16.6,0,0,0,131,107.42l-6.71-.63s5.3,17.75-7,19.43C110.76,127.13,94.85,129.26,82.89,112.82Z"/><path class="cls-7" d="M68.45,206.36,79,214.3s-3.34,10.23-1.38,12.18-5.75,5.6-5.75,5.6-3,7,3.07,5.51S89.18,232,89.18,232l3.44-19.24s1.06-3.77-3.24-6.29c-3.32-1.95-12.5-8.54-12.5-8.54Z"/><path class="cls-20" d="M88.67,193.84s37.56,5,48-7c0,0,1.13-2.36-.44-3.47.22,2.21-17.65,11.84-46,5.75A3.08,3.08,0,0,0,88.67,193.84Z"/><circle class="cls-21" cx="119.87" cy="192.03" r="8.76"/><g class="cls-22"><path class="cls-23" d="M78.26,22.53s-3.76,4.55,1,7.6c1.68,1.07-4.94,6.21-4.94,6.21l-2.67,15A20.09,20.09,0,0,1,77.41,50L89.5,63.8l-7.76,4.85L57,52,40.52,20.15,61.75.88,85-4.52,80.88,3.56s-9.85,6-6.09,10.37C72.44,15.58,72,22.09,78.26,22.53Z"/></g><path class="cls-24" d="M67.53,57.31s-4.44-2-4.44-5.67S80.4,13.18,116.57,19.15c0,0,5.59,3.91,3.68,5.83,0,0,3.44,4.28.69,6.58S104.77,30.49,67.53,57.31Z"/><path class="cls-25" d="M69.49,49.19S92.62,21,117.37,24.67C117.37,24.67,94.31,25.91,69.49,49.19Z"/><path class="cls-26" d="M120.84,199.35a8.5,8.5,0,0,1-6.27-2.43c-1.67-1.87-2.14-4.59-1.39-8.08a1.5,1.5,0,0,1,2.93.63c-.53,2.49-.3,4.32.69,5.43,1.51,1.7,4.45,1.44,4.48,1.44a1.5,1.5,0,1,1,.3,3S121.26,199.35,120.84,199.35Z"/><path class="cls-27" d="M125.17,196.38a1.84,1.84,0,0,1-.33,0,1.5,1.5,0,0,1-1.14-1.79c.55-2.5.33-4.33-.66-5.45-1.5-1.69-4.43-1.45-4.46-1.45a1.5,1.5,0,1,1-.29-3c.18,0,4.47-.4,7,2.45,1.67,1.88,2.12,4.6,1.35,8.09A1.49,1.49,0,0,1,125.17,196.38Z"/><path class="cls-12" d="M97.88,46.17c.51-1.78,2-3,3.44-4,.9-.69,0-2.24-.9-1.54-1.81,1.37-3.61,2.83-4.26,5.1a.89.89,0,0,0,1.72.47Z"/><path class="cls-12" d="M116.8,38.19a3.78,3.78,0,0,1,3.17,1.1c.82.8,2.08-.46,1.26-1.26a5.72,5.72,0,0,0-4.9-1.56c-1.13.15-.65,1.87.47,1.72Z"/></g><path class="cls-24" d="M256.53,139v-1.48l1.91-.32V123.74l-1.91-.32v-1.49h13.1V126h-2l-.19-2.29h-6.71v5.52h6.52v1.82h-6.52v6.11h6.85l.19-2.29h2V139ZM264,117.63h2.7l0,.07-3.15,3h-1.72Z"/><path class="cls-24" d="M277.69,137.51l1.91-.32V122.52l-1.91-.32v-1.49h4.22V128a4.71,4.71,0,0,1,1.6-1.42,4.41,4.41,0,0,1,2.11-.5,4.11,4.11,0,0,1,3.17,1.21,5.41,5.41,0,0,1,1.12,3.75v6.15l1.91.32V139h-6.13v-1.48l1.91-.32V131a3.38,3.38,0,0,0-.67-2.32,2.57,2.57,0,0,0-2-.75,3.41,3.41,0,0,0-1.73.45,3.76,3.76,0,0,0-1.28,1.23v7.56l1.91.32V139h-6.13Z"/><path class="cls-24" d="M293.39,132.53a7,7,0,0,1,1.53-4.63,5.07,5.07,0,0,1,4.13-1.82,5.16,5.16,0,0,1,4.16,1.81,7,7,0,0,1,1.53,4.64v.26a6.92,6.92,0,0,1-1.53,4.64,5.65,5.65,0,0,1-8.29,0,7,7,0,0,1-1.53-4.64Zm2.31.26a6.1,6.1,0,0,0,.85,3.33,2.83,2.83,0,0,0,2.53,1.31,2.8,2.8,0,0,0,2.49-1.31,6,6,0,0,0,.86-3.33v-.26a6,6,0,0,0-.86-3.31,2.8,2.8,0,0,0-2.52-1.33,2.76,2.76,0,0,0-2.5,1.33,6,6,0,0,0-.85,3.31Z"/><path class="cls-24" d="M306.85,127.8v-1.49h4l.22,1.84a4.32,4.32,0,0,1,1.33-1.52,3.07,3.07,0,0,1,1.81-.55,3.6,3.6,0,0,1,.56,0,2.52,2.52,0,0,1,.44.08l-.31,2.15-1.31-.07a2.58,2.58,0,0,0-1.53.43,2.63,2.63,0,0,0-1,1.2v7.28l1.91.32V139h-6.13v-1.48l1.91-.32v-9.06Z"/><path class="cls-24" d="M325.05,139c-.07-.34-.13-.65-.17-.93s-.06-.54-.08-.82a5.66,5.66,0,0,1-1.67,1.43,4.77,4.77,0,0,1-5.15-.4,3.55,3.55,0,0,1-1-2.73,3.14,3.14,0,0,1,1.46-2.78,7.1,7.1,0,0,1,4-1h2.38v-1.47a2.3,2.3,0,0,0-.71-1.77,2.77,2.77,0,0,0-1.95-.65,5,5,0,0,0-1.53.22,3,3,0,0,0-1.07.61l-.25,1.34H317.5V127.6a7,7,0,0,1,2.1-1.11,8.21,8.21,0,0,1,2.67-.41,5.27,5.27,0,0,1,3.49,1.1,3.84,3.84,0,0,1,1.34,3.15v6.59l0,.46.94.13V139Zm-3.72-1.69a4.07,4.07,0,0,0,2.1-.55,3.53,3.53,0,0,0,1.36-1.32v-2.09h-2.46a3.5,3.5,0,0,0-2.25.66,2,2,0,0,0-.82,1.59,1.57,1.57,0,0,0,.51,1.27A2.34,2.34,0,0,0,321.33,137.3Z"/><path class="cls-24" d="M344.5,137.48a4.13,4.13,0,0,1-1.52,1.31,4.58,4.58,0,0,1-2.08.45,4.33,4.33,0,0,1-3.63-1.69,7,7,0,0,1-1.3-4.42v-.25a8.48,8.48,0,0,1,1.3-4.93,4.21,4.21,0,0,1,3.65-1.87,4.48,4.48,0,0,1,2,.41,4.06,4.06,0,0,1,1.47,1.2v-5.17l-1.91-.32v-1.49h4.22v16.48l1.91.32V139h-3.91Zm-6.22-4.35a5.41,5.41,0,0,0,.78,3.07,2.73,2.73,0,0,0,2.43,1.16,3.08,3.08,0,0,0,1.73-.47,3.49,3.49,0,0,0,1.16-1.32v-5.88a3.48,3.48,0,0,0-1.16-1.27,3.06,3.06,0,0,0-1.71-.47,2.62,2.62,0,0,0-2.44,1.37,7.06,7.06,0,0,0-.79,3.56Z"/><path class="cls-24" d="M356.15,139.24a5.36,5.36,0,0,1-4.22-1.77,6.63,6.63,0,0,1-1.56-4.57v-.52a6.54,6.54,0,0,1,1.61-4.51,5,5,0,0,1,3.82-1.79,4.81,4.81,0,0,1,3.87,1.54,6.15,6.15,0,0,1,1.32,4.13v1.44h-8.23l0,.06a5,5,0,0,0,.92,3,3,3,0,0,0,2.5,1.18,5.84,5.84,0,0,0,2.05-.33,4.88,4.88,0,0,0,1.53-.92l.91,1.5a5.8,5.8,0,0,1-1.8,1.1A7,7,0,0,1,356.15,139.24Zm-.35-11.35a2.49,2.49,0,0,0-2,1,4.56,4.56,0,0,0-1,2.46l0,0h5.85v-.3a3.49,3.49,0,0,0-.73-2.27A2.58,2.58,0,0,0,355.8,127.89Z"/><path class="cls-24" d="M374.92,137.43a3.11,3.11,0,0,0,2-.71,2.17,2.17,0,0,0,.88-1.74h2.07l0,.07a3.51,3.51,0,0,1-1.46,2.91,5.33,5.33,0,0,1-3.53,1.28,5.12,5.12,0,0,1-4.22-1.81,6.92,6.92,0,0,1-1.46-4.53v-.5a7,7,0,0,1,1.46-4.51,5.1,5.1,0,0,1,4.22-1.81,7,7,0,0,1,2.74.5,5.62,5.62,0,0,1,2,1.38l.1,2.81h-1.84l-.5-2a3.06,3.06,0,0,0-1.06-.64,3.9,3.9,0,0,0-1.45-.25,2.77,2.77,0,0,0-2.59,1.31,6.14,6.14,0,0,0-.78,3.2v.5a6.22,6.22,0,0,0,.77,3.24A2.78,2.78,0,0,0,374.92,137.43Z"/><path class="cls-24" d="M382.17,132.53a7,7,0,0,1,1.53-4.63,5.07,5.07,0,0,1,4.13-1.82,5.16,5.16,0,0,1,4.16,1.81,7,7,0,0,1,1.53,4.64v.26a7,7,0,0,1-1.52,4.64,5.66,5.66,0,0,1-8.3,0,7,7,0,0,1-1.53-4.64Zm2.31.26a6.1,6.1,0,0,0,.85,3.33,2.83,2.83,0,0,0,2.53,1.31,2.8,2.8,0,0,0,2.49-1.31,6,6,0,0,0,.86-3.33v-.26a6,6,0,0,0-.86-3.31,2.8,2.8,0,0,0-2.52-1.33,2.77,2.77,0,0,0-2.5,1.33,6,6,0,0,0-.85,3.31Z"/><path class="cls-24" d="M395.29,137.51l1.91-.32v-9.06l-1.91-.33v-1.49h4l.16,1.89a4.67,4.67,0,0,1,1.59-1.57,4.26,4.26,0,0,1,2.18-.55,4.14,4.14,0,0,1,3.17,1.2,5.26,5.26,0,0,1,1.13,3.71v6.2l1.91.32V139h-6.13v-1.48l1.91-.32V131a3.46,3.46,0,0,0-.66-2.38,2.69,2.69,0,0,0-2-.7,3.26,3.26,0,0,0-1.77.48,3.5,3.5,0,0,0-1.22,1.31v7.45l1.91.32V139h-6.13Z"/><path class="cls-24" d="M410.85,128v-1.71h2V124.7a4.33,4.33,0,0,1,1.06-3.13,3.9,3.9,0,0,1,3-1.11,4.33,4.33,0,0,1,.8.07q.41.06.9.18l-.28,1.76-.51-.09c-.2,0-.41,0-.62,0a1.84,1.84,0,0,0-1.51.6,2.72,2.72,0,0,0-.49,1.75v1.61h2.65V128h-2.65v9.17l1.91.32V139h-6.13v-1.48l1.91-.32V128Z"/><path class="cls-24" d="M425.11,139.24a5.34,5.34,0,0,1-4.21-1.77,6.64,6.64,0,0,1-1.57-4.57v-.52a6.5,6.5,0,0,1,1.62-4.51,5,5,0,0,1,3.81-1.79,4.81,4.81,0,0,1,3.87,1.54,6.15,6.15,0,0,1,1.32,4.13v1.44h-8.22l0,.06a4.92,4.92,0,0,0,.93,3,2.92,2.92,0,0,0,2.49,1.18,5.9,5.9,0,0,0,2.06-.33,4.88,4.88,0,0,0,1.53-.92l.9,1.5a5.57,5.57,0,0,1-1.8,1.1A7,7,0,0,1,425.11,139.24Zm-.35-11.35a2.52,2.52,0,0,0-2,1,4.64,4.64,0,0,0-1,2.46l0,0h5.84v-.3a3.54,3.54,0,0,0-.72-2.27A2.61,2.61,0,0,0,424.76,127.89Z"/><path class="cls-24" d="M432.23,127.8v-1.49h4l.22,1.84a4.32,4.32,0,0,1,1.33-1.52,3.07,3.07,0,0,1,1.81-.55,3.6,3.6,0,0,1,.56,0,2.52,2.52,0,0,1,.44.08l-.31,2.15-1.31-.07a2.58,2.58,0,0,0-1.53.43,2.71,2.71,0,0,0-1,1.2v7.28l1.91.32V139h-6.12v-1.48l1.91-.32v-9.06Z"/><path class="cls-24" d="M442.15,137.51l1.91-.32v-9.06l-1.91-.33v-1.49h4.22v10.88l1.91.32V139h-6.13Zm4.22-14.45h-2.31v-2.35h2.31Z"/><path class="cls-24" d="M450,127.8v-1.49h4l.22,1.84a4.42,4.42,0,0,1,1.33-1.52,3.07,3.07,0,0,1,1.81-.55,3.6,3.6,0,0,1,.56,0,2.52,2.52,0,0,1,.44.08l-.3,2.15-1.32-.07a2.58,2.58,0,0,0-1.53.43,2.63,2.63,0,0,0-1,1.2v7.28l1.91.32V139H450v-1.48l1.91-.32v-9.06Z"/><path class="cls-24" d="M474.2,139c-.07-.34-.12-.65-.16-.93a7.34,7.34,0,0,1-.08-.82,5.79,5.79,0,0,1-1.67,1.43,4.77,4.77,0,0,1-5.15-.4,3.56,3.56,0,0,1-1-2.73,3.16,3.16,0,0,1,1.46-2.78,7.16,7.16,0,0,1,4-1h2.37v-1.47a2.29,2.29,0,0,0-.7-1.77,2.79,2.79,0,0,0-2-.65,5.13,5.13,0,0,0-1.53.22,3.07,3.07,0,0,0-1.07.61l-.24,1.34h-1.78V127.6a6.8,6.8,0,0,1,2.09-1.11,8.21,8.21,0,0,1,2.67-.41,5.3,5.3,0,0,1,3.5,1.1,3.84,3.84,0,0,1,1.33,3.15v6.11c0,.16,0,.32,0,.48a3.55,3.55,0,0,0,0,.46l.94.13V139Zm-3.71-1.69a4.06,4.06,0,0,0,2.09-.55,3.4,3.4,0,0,0,1.36-1.32v-2.09h-2.46a3.49,3.49,0,0,0-2.24.66,2,2,0,0,0-.83,1.59,1.55,1.55,0,0,0,.52,1.27A2.31,2.31,0,0,0,470.49,137.3Z"/><path class="cls-24" d="M478.83,122.2v-1.49h4.22v16.48l1.91.32V139h-6.13v-1.48l1.91-.32V122.52Z"/><path class="cls-24" d="M486.6,132.88a8.34,8.34,0,0,1,1.34-4.93,4.28,4.28,0,0,1,3.69-1.87,4.57,4.57,0,0,1,2.1.46,4.26,4.26,0,0,1,1.51,1.36l.21-1.59h1.94v12.52A5.29,5.29,0,0,1,496,142.7a5.18,5.18,0,0,1-3.9,1.41,8.52,8.52,0,0,1-2-.25,7.82,7.82,0,0,1-1.88-.69l.6-1.79a7.74,7.74,0,0,0,3.24.79,2.76,2.76,0,0,0,2.26-.87,3.77,3.77,0,0,0,.72-2.47v-1.21a4.19,4.19,0,0,1-1.48,1.21,4.7,4.7,0,0,1-2,.41,4.43,4.43,0,0,1-3.66-1.69,6.93,6.93,0,0,1-1.34-4.42Zm2.31.25a5.26,5.26,0,0,0,.81,3.07,2.81,2.81,0,0,0,2.46,1.16,3.07,3.07,0,0,0,1.74-.47,3.59,3.59,0,0,0,1.16-1.35v-5.83a3.42,3.42,0,0,0-1.16-1.28,3,3,0,0,0-1.72-.48,2.69,2.69,0,0,0-2.47,1.38,6.88,6.88,0,0,0-.82,3.55Z"/><path class="cls-24" d="M509.24,137.11a4.09,4.09,0,0,1-3.71,2.13,4.09,4.09,0,0,1-3.23-1.33,6.16,6.16,0,0,1-1.16-4.12v-5.66l-1.45-.33v-1.49h3.76v7.5a4.72,4.72,0,0,0,.6,2.79,2.22,2.22,0,0,0,1.86.76,3.85,3.85,0,0,0,2-.5,3.1,3.1,0,0,0,1.21-1.41v-7.32l-1.7-.33v-1.49h4v10.88l1.45.32V139h-3.53Z"/><path class="cls-24" d="M514.41,137.51l1.91-.32v-9.06l-1.91-.33v-1.49h4l.17,1.89a4.56,4.56,0,0,1,1.58-1.57,4.28,4.28,0,0,1,2.18-.55,4.14,4.14,0,0,1,3.17,1.2,5.26,5.26,0,0,1,1.13,3.71v6.2l1.91.32V139h-6.13v-1.48l1.91-.32V131a3.46,3.46,0,0,0-.66-2.38,2.69,2.69,0,0,0-2-.7,3.26,3.26,0,0,0-1.77.48,3.5,3.5,0,0,0-1.22,1.31v7.45l1.91.32V139h-6.13Z"/><path class="cls-24" d="M539.9,130.29h-1.74l-.37-1.52a3.26,3.26,0,0,0-1.06-.64,4.12,4.12,0,0,0-1.45-.24,2.67,2.67,0,0,0-1.83.54,1.68,1.68,0,0,0-.6,1.3,1.47,1.47,0,0,0,.53,1.19,5.7,5.7,0,0,0,2.15.77,9.16,9.16,0,0,1,3.57,1.4,2.82,2.82,0,0,1,1.17,2.37,3.26,3.26,0,0,1-1.36,2.73,5.69,5.69,0,0,1-3.57,1.05,9.34,9.34,0,0,1-2.59-.34,6.79,6.79,0,0,1-2-1V135h1.73l.43,1.7a2.47,2.47,0,0,0,1.09.53,6,6,0,0,0,1.4.16,3.23,3.23,0,0,0,1.93-.5,1.52,1.52,0,0,0,.69-1.3,1.57,1.57,0,0,0-.58-1.26,5.37,5.37,0,0,0-2.19-.85,9.42,9.42,0,0,1-3.48-1.37,2.76,2.76,0,0,1-1.18-2.35,3.29,3.29,0,0,1,1.32-2.63,5.19,5.19,0,0,1,3.43-1.09,8.35,8.35,0,0,1,2.59.37,5.46,5.46,0,0,1,1.91,1Z"/><path class="cls-24" d="M554.18,139.24a5.34,5.34,0,0,1-4.21-1.77,6.63,6.63,0,0,1-1.56-4.57v-.52a6.49,6.49,0,0,1,1.61-4.51,5,5,0,0,1,3.81-1.79,4.79,4.79,0,0,1,3.87,1.54,6.15,6.15,0,0,1,1.32,4.13v1.44H550.8l0,.06a4.92,4.92,0,0,0,.93,3,2.92,2.92,0,0,0,2.49,1.18,5.9,5.9,0,0,0,2.06-.33,4.88,4.88,0,0,0,1.53-.92l.9,1.5a5.57,5.57,0,0,1-1.8,1.1A7,7,0,0,1,554.18,139.24Zm-.35-11.35a2.52,2.52,0,0,0-2,1,4.64,4.64,0,0,0-1,2.46l0,0h5.84v-.3a3.54,3.54,0,0,0-.72-2.27A2.61,2.61,0,0,0,553.83,127.89Z"/><path class="cls-24" d="M561,137.51l1.36-.27,3.74-4.66-3.62-4.51-1.36-.27v-1.49h5v1.49l-1.15.14,2.36,3.05,2.38-3.06-1.13-.13v-1.49h5v1.49l-1.36.27-3.62,4.51,3.73,4.66,1.37.27V139h-5v-1.48l1.12-.13-2.48-3.18-2.49,3.18,1.14.13V139h-5Z"/><path class="cls-24" d="M580.82,139.24a5.32,5.32,0,0,1-4.21-1.77A6.59,6.59,0,0,1,575,132.9v-.52a6.54,6.54,0,0,1,1.61-4.51,5,5,0,0,1,3.82-1.79,4.81,4.81,0,0,1,3.87,1.54,6.15,6.15,0,0,1,1.32,4.13v1.44h-8.23l0,.06a5,5,0,0,0,.92,3,3,3,0,0,0,2.5,1.18,5.9,5.9,0,0,0,2.06-.33,4.88,4.88,0,0,0,1.53-.92l.9,1.5a5.8,5.8,0,0,1-1.8,1.1A7,7,0,0,1,580.82,139.24Zm-.35-11.35a2.49,2.49,0,0,0-2,1,4.56,4.56,0,0,0-1,2.46l0,0h5.85v-.3a3.49,3.49,0,0,0-.73-2.27A2.58,2.58,0,0,0,580.47,127.89Z"/><path class="cls-24" d="M587.48,137.51l1.91-.32v-9.06l-1.91-.33v-1.49h4l.15,1.65a4.2,4.2,0,0,1,1.57-1.39,4.82,4.82,0,0,1,2.23-.49,3.91,3.91,0,0,1,2.17.58,3.57,3.57,0,0,1,1.37,1.76,4.65,4.65,0,0,1,1.58-1.71,4.18,4.18,0,0,1,2.3-.63,3.81,3.81,0,0,1,3.07,1.33,6.06,6.06,0,0,1,1.12,4v5.78l1.91.32V139h-6.14v-1.48l1.91-.32v-5.81a4.2,4.2,0,0,0-.64-2.65,2.34,2.34,0,0,0-1.91-.78,2.42,2.42,0,0,0-1.94.85,3.71,3.71,0,0,0-.85,2.14v6.25l1.91.32V139h-6.13v-1.48l1.91-.32v-5.81a4.16,4.16,0,0,0-.66-2.6,2.32,2.32,0,0,0-1.92-.83,3.24,3.24,0,0,0-1.73.43,2.85,2.85,0,0,0-1,1.22v7.59l1.91.32V139h-6.12Z"/><path class="cls-24" d="M610.33,142.38l1.91-.33V128.13l-1.91-.33v-1.49h3.89l.21,1.55a4.26,4.26,0,0,1,1.54-1.33,4.7,4.7,0,0,1,2.1-.45,4.24,4.24,0,0,1,3.67,1.86,8.49,8.49,0,0,1,1.3,4.94v.25a7,7,0,0,1-1.31,4.42,4.33,4.33,0,0,1-3.62,1.69,4.92,4.92,0,0,1-2.06-.4,4,4,0,0,1-1.5-1.16v4.37l1.91.33v1.48h-6.13Zm10.39-9.5a6.78,6.78,0,0,0-.84-3.55,2.75,2.75,0,0,0-2.51-1.38,3.07,3.07,0,0,0-1.69.45,3.21,3.21,0,0,0-1.13,1.21v6.18a3.07,3.07,0,0,0,1.13,1.21,3.15,3.15,0,0,0,1.71.43,2.86,2.86,0,0,0,2.49-1.19,5.31,5.31,0,0,0,.84-3.11Z"/><path class="cls-24" d="M624.71,122.2v-1.49h4.21v16.48l1.91.32V139h-6.12v-1.48l1.91-.32V122.52Z"/><path class="cls-24" d="M632.36,132.53a7,7,0,0,1,1.52-4.63,5.64,5.64,0,0,1,8.29,0,7,7,0,0,1,1.53,4.64v.26a7,7,0,0,1-1.52,4.64,5.66,5.66,0,0,1-8.3,0,7,7,0,0,1-1.52-4.64Zm2.31.26a6,6,0,0,0,.85,3.33,3.06,3.06,0,0,0,5,0,6,6,0,0,0,.85-3.33v-.26a6,6,0,0,0-.85-3.31,3,3,0,0,0-5,0,6,6,0,0,0-.84,3.31Z"/><path class="cls-24" d="M655.51,130.29h-1.73l-.37-1.52a3.31,3.31,0,0,0-1.07-.64,4,4,0,0,0-1.44-.24,2.67,2.67,0,0,0-1.83.54,1.68,1.68,0,0,0-.6,1.3,1.47,1.47,0,0,0,.53,1.19,5.71,5.71,0,0,0,2.14.77,9.15,9.15,0,0,1,3.58,1.4,2.82,2.82,0,0,1,1.17,2.37,3.27,3.27,0,0,1-1.37,2.73,5.68,5.68,0,0,1-3.56,1.05,9.34,9.34,0,0,1-2.59-.34,6.79,6.79,0,0,1-2-1l0-2.9H648l.43,1.7a2.47,2.47,0,0,0,1.09.53,5.89,5.89,0,0,0,1.4.16,3.18,3.18,0,0,0,1.92-.5,1.51,1.51,0,0,0,.7-1.3,1.57,1.57,0,0,0-.58-1.26,5.43,5.43,0,0,0-2.2-.85,9.42,9.42,0,0,1-3.48-1.37,2.77,2.77,0,0,1-1.17-2.35,3.29,3.29,0,0,1,1.32-2.63,5.19,5.19,0,0,1,3.43-1.09,8.35,8.35,0,0,1,2.59.37,5.55,5.55,0,0,1,1.91,1Z"/><path class="cls-24" d="M672.55,137.48a4.1,4.1,0,0,1-1.51,1.31,4.58,4.58,0,0,1-2.08.45,4.32,4.32,0,0,1-3.63-1.69,7,7,0,0,1-1.31-4.42v-.25a8.48,8.48,0,0,1,1.31-4.93,4.2,4.2,0,0,1,3.65-1.87,4.51,4.51,0,0,1,2,.41,4.23,4.23,0,0,1,1.47,1.2v-5.17l-1.91-.32v-1.49h4.22v16.48l1.91.32V139h-3.92Zm-6.22-4.35a5.34,5.34,0,0,0,.79,3.07,2.72,2.72,0,0,0,2.42,1.16,3.09,3.09,0,0,0,1.74-.47,3.58,3.58,0,0,0,1.16-1.32v-5.88a3.56,3.56,0,0,0-1.16-1.27,3.09,3.09,0,0,0-1.71-.47,2.64,2.64,0,0,0-2.45,1.37,7.06,7.06,0,0,0-.79,3.56Z"/><path class="cls-24" d="M678.42,132.53A7,7,0,0,1,680,127.9a5.07,5.07,0,0,1,4.13-1.82,5.16,5.16,0,0,1,4.16,1.81,7,7,0,0,1,1.53,4.64v.26a7,7,0,0,1-1.52,4.64,5.66,5.66,0,0,1-8.3,0,7,7,0,0,1-1.53-4.64Zm2.31.26a6.1,6.1,0,0,0,.85,3.33,2.83,2.83,0,0,0,2.53,1.31,2.8,2.8,0,0,0,2.49-1.31,6,6,0,0,0,.86-3.33v-.26a6,6,0,0,0-.86-3.31,2.8,2.8,0,0,0-2.52-1.33,2.77,2.77,0,0,0-2.5,1.33,6,6,0,0,0-.85,3.31Z"/><path class="cls-24" d="M697.56,142.38l1.91-.33V128.13l-1.91-.33v-1.49h3.89l.21,1.55a4.35,4.35,0,0,1,1.54-1.33,4.71,4.71,0,0,1,2.11-.45,4.22,4.22,0,0,1,3.66,1.86,8.49,8.49,0,0,1,1.31,4.94v.25a6.94,6.94,0,0,1-1.32,4.42,4.31,4.31,0,0,1-3.62,1.69,4.87,4.87,0,0,1-2.05-.4,4,4,0,0,1-1.51-1.16v4.37l1.91.33v1.48h-6.13Zm10.4-9.5a6.78,6.78,0,0,0-.85-3.55A2.75,2.75,0,0,0,704.6,128a3.06,3.06,0,0,0-1.68.45,3.32,3.32,0,0,0-1.14,1.21v6.18a3,3,0,0,0,2.85,1.64,2.85,2.85,0,0,0,2.48-1.19,5.32,5.32,0,0,0,.85-3.11Z"/><path class="cls-24" d="M712.37,137.51l1.91-.32v-9.06l-1.91-.33v-1.49h4.22v10.88l1.91.32V139h-6.13Zm4.22-14.45h-2.31v-2.35h2.31Z"/><path class="cls-24" d="M719.94,122.2v-1.49h4.22v16.48l1.91.32V139h-6.13v-1.48l1.91-.32V122.52Z"/><path class="cls-24" d="M736.09,139c-.07-.34-.12-.65-.16-.93a7.34,7.34,0,0,1-.08-.82,5.79,5.79,0,0,1-1.67,1.43,4.77,4.77,0,0,1-5.15-.4,3.55,3.55,0,0,1-1-2.73,3.15,3.15,0,0,1,1.45-2.78,7.16,7.16,0,0,1,4-1h2.37v-1.47a2.29,2.29,0,0,0-.7-1.77,2.79,2.79,0,0,0-2-.65,5,5,0,0,0-1.52.22,3,3,0,0,0-1.08.61l-.24,1.34h-1.78V127.6a6.8,6.8,0,0,1,2.09-1.11,8.23,8.23,0,0,1,2.68-.41,5.29,5.29,0,0,1,3.49,1.1,3.84,3.84,0,0,1,1.33,3.15v6.11c0,.16,0,.32,0,.48a3.55,3.55,0,0,0,0,.46l.94.13V139Zm-3.71-1.69a4.12,4.12,0,0,0,2.1-.55,3.43,3.43,0,0,0,1.35-1.32v-2.09h-2.46a3.49,3.49,0,0,0-2.24.66,2,2,0,0,0-.83,1.59,1.58,1.58,0,0,0,.52,1.27A2.31,2.31,0,0,0,732.38,137.3Z"/><path class="cls-24" d="M741,127.8v-1.49h4l.22,1.84a4.42,4.42,0,0,1,1.33-1.52,3.07,3.07,0,0,1,1.81-.55,3.6,3.6,0,0,1,.56,0,2.52,2.52,0,0,1,.44.08l-.3,2.15-1.32-.07a2.58,2.58,0,0,0-1.53.43,2.63,2.63,0,0,0-1,1.2v7.28l1.91.32V139H741v-1.48l1.91-.32v-9.06Z"/><path class="cls-24" d="M264,150.74a6.5,6.5,0,0,1,4.28,1.24,4.3,4.3,0,0,1,1.49,3.5,3.7,3.7,0,0,1-.69,2.21,4.6,4.6,0,0,1-2,1.51,3.46,3.46,0,0,1,2,1.49,4.88,4.88,0,0,1,.61,2.54v1.37a2.59,2.59,0,0,0,.2,1.16.86.86,0,0,0,.66.45l.56.07v1.51h-1.24a2.06,2.06,0,0,1-1.92-.94,4.27,4.27,0,0,1-.57-2.27v-1.33a3.07,3.07,0,0,0-.8-2.23,2.85,2.85,0,0,0-2.17-.85h-3.7V166l1.91.33v1.48h-6.13v-1.48l1.91-.33V152.54l-1.91-.32v-1.48H264Zm-3.26,7.62h3a4.34,4.34,0,0,0,2.81-.74,2.64,2.64,0,0,0,.88-2.16,2.76,2.76,0,0,0-.84-2.13,3.76,3.76,0,0,0-2.62-.79h-3.26Z"/><path class="cls-24" d="M278.77,168a5.32,5.32,0,0,1-4.21-1.77A6.59,6.59,0,0,1,273,161.7v-.52a6.54,6.54,0,0,1,1.61-4.51,5,5,0,0,1,3.82-1.79,4.81,4.81,0,0,1,3.87,1.54,6.15,6.15,0,0,1,1.32,4.13V162h-8.23l0,.06a5,5,0,0,0,.92,3,3,3,0,0,0,2.5,1.18,5.9,5.9,0,0,0,2.06-.33,4.94,4.94,0,0,0,1.52-.92l.91,1.5a5.8,5.8,0,0,1-1.8,1.1A7,7,0,0,1,278.77,168Zm-.35-11.35a2.49,2.49,0,0,0-2,1,4.56,4.56,0,0,0-1,2.46l0,.05h5.85v-.3a3.49,3.49,0,0,0-.73-2.27A2.58,2.58,0,0,0,278.42,156.69Z"/><path class="cls-24" d="M291.58,166.23a3.13,3.13,0,0,0,2-.71,2.16,2.16,0,0,0,.87-1.74h2.08l0,.07a3.54,3.54,0,0,1-1.46,2.91,5.33,5.33,0,0,1-3.53,1.28,5.14,5.14,0,0,1-4.23-1.81,7,7,0,0,1-1.46-4.53v-.5a6.91,6.91,0,0,1,1.47-4.51,5.09,5.09,0,0,1,4.22-1.81,7,7,0,0,1,2.73.5,5.62,5.62,0,0,1,2,1.38l.11,2.81h-1.84l-.51-2a3,3,0,0,0-1.05-.64,3.9,3.9,0,0,0-1.45-.25A2.79,2.79,0,0,0,289,158a6.14,6.14,0,0,0-.78,3.2v.5a6.22,6.22,0,0,0,.78,3.24A2.78,2.78,0,0,0,291.58,166.23Z"/><path class="cls-24" d="M298.83,161.33a7,7,0,0,1,1.52-4.63,5.65,5.65,0,0,1,8.3,0,7,7,0,0,1,1.52,4.64v.26a6.92,6.92,0,0,1-1.52,4.64,5.13,5.13,0,0,1-4.14,1.81,5.19,5.19,0,0,1-4.16-1.81,7,7,0,0,1-1.52-4.64Zm2.31.26a6,6,0,0,0,.85,3.33,3.06,3.06,0,0,0,5,0,6,6,0,0,0,.86-3.33v-.26A6,6,0,0,0,307,158a3,3,0,0,0-5,0,6,6,0,0,0-.84,3.31Z"/><path class="cls-24" d="M311.94,166.31l1.91-.33v-9l-1.91-.33v-1.49h4l.16,1.89a4.5,4.5,0,0,1,1.59-1.57,4.24,4.24,0,0,1,2.17-.55,4.15,4.15,0,0,1,3.18,1.2,5.26,5.26,0,0,1,1.12,3.71V166l1.91.33v1.48h-6.13v-1.48l1.91-.33v-6.15a3.46,3.46,0,0,0-.66-2.38,2.64,2.64,0,0,0-2-.7,3.25,3.25,0,0,0-1.76.48,3.61,3.61,0,0,0-1.23,1.31V166l1.91.33v1.48h-6.13Z"/><path class="cls-24" d="M327.41,166.31l1.91-.33V151.32l-1.91-.32v-1.49h4.22v7.29a4.65,4.65,0,0,1,1.61-1.42,4.36,4.36,0,0,1,2.11-.5,4.09,4.09,0,0,1,3.16,1.21,5.41,5.41,0,0,1,1.13,3.75V166l1.91.33v1.48h-6.13v-1.48l1.91-.33v-6.16a3.38,3.38,0,0,0-.68-2.32,2.57,2.57,0,0,0-2-.75,3.41,3.41,0,0,0-1.73.45,3.85,3.85,0,0,0-1.28,1.23V166l1.91.33v1.48h-6.13Z"/><path class="cls-24" d="M348.89,168a5.34,5.34,0,0,1-4.21-1.77,6.63,6.63,0,0,1-1.56-4.57v-.52a6.49,6.49,0,0,1,1.61-4.51,5,5,0,0,1,3.81-1.79,4.78,4.78,0,0,1,3.87,1.54,6.15,6.15,0,0,1,1.32,4.13V162h-8.22l0,.06a5,5,0,0,0,.93,3,2.92,2.92,0,0,0,2.49,1.18,5.9,5.9,0,0,0,2.06-.33,4.88,4.88,0,0,0,1.53-.92l.9,1.5a5.57,5.57,0,0,1-1.8,1.1A7,7,0,0,1,348.89,168Zm-.35-11.35a2.52,2.52,0,0,0-2,1,4.64,4.64,0,0,0-1,2.46l0,.05h5.84v-.3a3.54,3.54,0,0,0-.72-2.27A2.6,2.6,0,0,0,348.54,156.69Z"/><path class="cls-24" d="M361.7,166.23a3.11,3.11,0,0,0,2-.71,2.14,2.14,0,0,0,.88-1.74h2.07l0,.07a3.53,3.53,0,0,1-1.45,2.91A5.35,5.35,0,0,1,361.7,168a5.12,5.12,0,0,1-4.22-1.81A6.92,6.92,0,0,1,356,161.7v-.5a7,7,0,0,1,1.46-4.51,5.12,5.12,0,0,1,4.22-1.81,7,7,0,0,1,2.74.5,5.62,5.62,0,0,1,2,1.38l.1,2.81h-1.84l-.5-2a3.11,3.11,0,0,0-1-.64,4,4,0,0,0-1.46-.25,2.78,2.78,0,0,0-2.59,1.31,6.14,6.14,0,0,0-.78,3.2v.5a6.22,6.22,0,0,0,.77,3.24A2.79,2.79,0,0,0,361.7,166.23Z"/><path class="cls-24" d="M368.94,166.31l1.91-.33v-9l-1.91-.33v-1.49h4.22V166l1.91.33v1.48h-6.13Zm4.22-14.45h-2.31v-2.35h2.31Z"/><path class="cls-24" d="M376.37,166.31l1.91-.33v-9l-1.91-.33v-1.49h4l.15,1.65a4.2,4.2,0,0,1,1.57-1.39,4.79,4.79,0,0,1,2.23-.49,3.91,3.91,0,0,1,2.17.58,3.57,3.57,0,0,1,1.37,1.76,4.65,4.65,0,0,1,1.58-1.71,4.15,4.15,0,0,1,2.3-.63,3.81,3.81,0,0,1,3.07,1.33,6.06,6.06,0,0,1,1.12,4V166l1.91.33v1.48h-6.14v-1.48l1.91-.33v-5.8a4.2,4.2,0,0,0-.64-2.65,2.34,2.34,0,0,0-1.91-.78,2.41,2.41,0,0,0-1.94.85,3.64,3.64,0,0,0-.85,2.14V166l1.91.33v1.48H384v-1.48L386,166v-5.8a4.16,4.16,0,0,0-.66-2.6,2.33,2.33,0,0,0-1.92-.83,3.24,3.24,0,0,0-1.73.43,2.79,2.79,0,0,0-1.05,1.22V166l1.91.33v1.48h-6.13Z"/><path class="cls-24" d="M405.18,168a5.32,5.32,0,0,1-4.21-1.77,6.59,6.59,0,0,1-1.57-4.57v-.52a6.54,6.54,0,0,1,1.61-4.51,5,5,0,0,1,3.82-1.79,4.81,4.81,0,0,1,3.87,1.54,6.15,6.15,0,0,1,1.32,4.13V162h-8.23l0,.06a5,5,0,0,0,.92,3,3,3,0,0,0,2.5,1.18,5.9,5.9,0,0,0,2.06-.33,4.83,4.83,0,0,0,1.52-.92l.91,1.5a5.8,5.8,0,0,1-1.8,1.1A7,7,0,0,1,405.18,168Zm-.35-11.35a2.49,2.49,0,0,0-2,1,4.56,4.56,0,0,0-1,2.46l0,.05h5.85v-.3a3.49,3.49,0,0,0-.73-2.27A2.58,2.58,0,0,0,404.83,156.69Z"/><path class="cls-24" d="M412,166.31l1.91-.33v-9L412,156.6v-1.49h4l.17,1.89a4.5,4.5,0,0,1,1.59-1.57,4.22,4.22,0,0,1,2.17-.55,4.15,4.15,0,0,1,3.18,1.2,5.26,5.26,0,0,1,1.12,3.71V166l1.91.33v1.48h-6.13v-1.48l1.91-.33v-6.15a3.46,3.46,0,0,0-.66-2.38,2.64,2.64,0,0,0-2-.7,3.25,3.25,0,0,0-1.76.48,3.52,3.52,0,0,0-1.23,1.31V166l1.91.33v1.48H412Z"/><path class="cls-24" d="M431.77,152.05v3.06h2.4v1.71h-2.4v7.7a1.7,1.7,0,0,0,.37,1.25,1.3,1.3,0,0,0,1,.37,4.37,4.37,0,0,0,.68-.06,5.55,5.55,0,0,0,.64-.11l.32,1.59a3,3,0,0,1-1,.34,6.17,6.17,0,0,1-1.27.14,3,3,0,0,1-2.24-.85,3.73,3.73,0,0,1-.83-2.67v-7.7h-2v-1.71h2v-3.06Z"/><path class="cls-24" d="M436.3,161.33a7,7,0,0,1,1.53-4.63,5.07,5.07,0,0,1,4.13-1.82,5.16,5.16,0,0,1,4.16,1.81,7,7,0,0,1,1.53,4.64v.26a6.92,6.92,0,0,1-1.53,4.64,5.65,5.65,0,0,1-8.29,0,7,7,0,0,1-1.53-4.64Zm2.31.26a6.1,6.1,0,0,0,.85,3.33,2.83,2.83,0,0,0,2.53,1.31,2.8,2.8,0,0,0,2.49-1.31,6,6,0,0,0,.86-3.33v-.26a6,6,0,0,0-.86-3.31,2.8,2.8,0,0,0-2.52-1.33,2.76,2.76,0,0,0-2.5,1.33,6,6,0,0,0-.85,3.31Z"/><path class="cls-24" d="M464.26,166.28a4.1,4.1,0,0,1-1.51,1.31,4.58,4.58,0,0,1-2.08.45,4.32,4.32,0,0,1-3.63-1.69,7,7,0,0,1-1.31-4.42v-.25a8.48,8.48,0,0,1,1.31-4.93,4.2,4.2,0,0,1,3.65-1.87,4.51,4.51,0,0,1,2,.41,4.23,4.23,0,0,1,1.47,1.2v-5.17l-1.91-.32v-1.49h4.22V166l1.91.33v1.48h-3.92ZM458,161.93a5.34,5.34,0,0,0,.79,3.07,2.72,2.72,0,0,0,2.42,1.16,3.09,3.09,0,0,0,1.74-.47,3.58,3.58,0,0,0,1.16-1.32v-5.89a3.62,3.62,0,0,0-1.16-1.26,3.09,3.09,0,0,0-1.71-.47,2.64,2.64,0,0,0-2.45,1.37,7.16,7.16,0,0,0-.79,3.56Z"/><path class="cls-24" d="M475.91,168a5.34,5.34,0,0,1-4.21-1.77,6.63,6.63,0,0,1-1.56-4.57v-.52a6.49,6.49,0,0,1,1.61-4.51,5,5,0,0,1,3.81-1.79,4.79,4.79,0,0,1,3.87,1.54,6.15,6.15,0,0,1,1.32,4.13V162h-8.22l0,.06a4.92,4.92,0,0,0,.93,3,2.92,2.92,0,0,0,2.49,1.18,5.9,5.9,0,0,0,2.06-.33,4.88,4.88,0,0,0,1.53-.92l.9,1.5a5.57,5.57,0,0,1-1.8,1.1A7,7,0,0,1,475.91,168Zm-.35-11.35a2.52,2.52,0,0,0-2,1,4.64,4.64,0,0,0-1,2.46l0,.05h5.84v-.3a3.54,3.54,0,0,0-.72-2.27A2.61,2.61,0,0,0,475.56,156.69Z"/><path class="cls-24" d="M496.62,150.73a6,6,0,0,1,4.25,1.4,5.29,5.29,0,0,1,0,7.42,6,6,0,0,1-4.25,1.4H493v5l1.91.33v1.48h-6.13v-1.48l1.91-.33V152.54l-1.91-.32v-1.49h7.84ZM493,159.14h3.62a3.38,3.38,0,0,0,2.6-.93,3.34,3.34,0,0,0,.86-2.35,3.42,3.42,0,0,0-.86-2.37,3.35,3.35,0,0,0-2.6-1H493Z"/><path class="cls-24" d="M512.38,167.79c-.07-.34-.12-.65-.16-.93a7.34,7.34,0,0,1-.08-.82,5.79,5.79,0,0,1-1.67,1.43,4.77,4.77,0,0,1-5.15-.4,3.56,3.56,0,0,1-1-2.73,3.16,3.16,0,0,1,1.46-2.78,7.16,7.16,0,0,1,4-1h2.37v-1.47a2.29,2.29,0,0,0-.7-1.77,2.79,2.79,0,0,0-2-.65,5.13,5.13,0,0,0-1.53.22,3.07,3.07,0,0,0-1.07.61l-.24,1.34h-1.79V156.4a7,7,0,0,1,2.1-1.11,8.21,8.21,0,0,1,2.67-.41,5.3,5.3,0,0,1,3.5,1.1,3.84,3.84,0,0,1,1.33,3.15v6.1c0,.17,0,.33,0,.49a3.55,3.55,0,0,0,0,.46l.94.13v1.48Zm-3.71-1.69a4.06,4.06,0,0,0,2.09-.55,3.4,3.4,0,0,0,1.36-1.32v-2.09h-2.46a3.49,3.49,0,0,0-2.24.66,2,2,0,0,0-.83,1.59,1.55,1.55,0,0,0,.52,1.27A2.31,2.31,0,0,0,508.67,166.1Z"/><path class="cls-24" d="M525.87,166.28a4.06,4.06,0,0,1-1.52,1.31,4.58,4.58,0,0,1-2.08.45,4.31,4.31,0,0,1-3.62-1.69,6.94,6.94,0,0,1-1.31-4.42v-.25a8.4,8.4,0,0,1,1.31-4.93,4.18,4.18,0,0,1,3.65-1.87,4.44,4.44,0,0,1,2,.41,4.06,4.06,0,0,1,1.47,1.2v-5.17l-1.91-.32v-1.49h4.22V166l1.91.33v1.48h-3.91Zm-6.22-4.35a5.41,5.41,0,0,0,.78,3.07,2.74,2.74,0,0,0,2.43,1.16,3.06,3.06,0,0,0,1.73-.47,3.49,3.49,0,0,0,1.16-1.32v-5.89a3.44,3.44,0,0,0-1.16-1.26,3,3,0,0,0-1.71-.47,2.63,2.63,0,0,0-2.44,1.37,7.06,7.06,0,0,0-.79,3.56Z"/><path class="cls-24" d="M531.73,156.6v-1.49h4l.22,1.84a4.42,4.42,0,0,1,1.33-1.52,3.1,3.1,0,0,1,1.82-.55,3.48,3.48,0,0,1,.55,0,2.52,2.52,0,0,1,.44.08l-.3,2.15-1.32-.07a2.58,2.58,0,0,0-1.53.43,2.69,2.69,0,0,0-1,1.2V166l1.91.33v1.48h-6.13v-1.48l1.91-.33v-9Z"/><path class="cls-24" d="M541.43,161.33A7,7,0,0,1,543,156.7a5.07,5.07,0,0,1,4.13-1.82,5.16,5.16,0,0,1,4.16,1.81,7,7,0,0,1,1.53,4.64v.26a6.92,6.92,0,0,1-1.53,4.64,5.65,5.65,0,0,1-8.29,0,7,7,0,0,1-1.53-4.64ZM551.05,150a2.68,2.68,0,0,1-.69,1.86,2.28,2.28,0,0,1-1.76.76,3.38,3.38,0,0,1-1.73-.54,3.15,3.15,0,0,0-1.5-.55,1.1,1.1,0,0,0-.84.38,1.34,1.34,0,0,0-.34.92l-1.26-.3a2.79,2.79,0,0,1,.69-1.89,2.19,2.19,0,0,1,1.75-.81,3.57,3.57,0,0,1,1.64.56,3.65,3.65,0,0,0,1.59.55,1.13,1.13,0,0,0,.84-.38,1.37,1.37,0,0,0,.35-.94Zm-7.31,11.6a6,6,0,0,0,.85,3.33,2.83,2.83,0,0,0,2.53,1.31,2.8,2.8,0,0,0,2.49-1.31,6,6,0,0,0,.86-3.33v-.26a6,6,0,0,0-.86-3.31,3,3,0,0,0-5,0,6,6,0,0,0-.84,3.31Z"/><path class="cls-24" d="M560.67,168a5.34,5.34,0,0,1-4.21-1.77,6.63,6.63,0,0,1-1.56-4.57v-.52a6.49,6.49,0,0,1,1.61-4.51,5,5,0,0,1,3.81-1.79,4.81,4.81,0,0,1,3.88,1.54,6.14,6.14,0,0,1,1.31,4.13V162h-8.22l0,.06a5,5,0,0,0,.93,3,2.92,2.92,0,0,0,2.49,1.18,5.86,5.86,0,0,0,2.06-.33,4.88,4.88,0,0,0,1.53-.92l.9,1.5a5.57,5.57,0,0,1-1.8,1.1A7,7,0,0,1,560.67,168Zm-.35-11.35a2.52,2.52,0,0,0-2,1,4.72,4.72,0,0,0-1,2.46l0,.05h5.85v-.3a3.55,3.55,0,0,0-.73-2.27A2.58,2.58,0,0,0,560.32,156.69Z"/><path class="cls-24" d="M577.49,159.09h-1.73l-.38-1.52a3.16,3.16,0,0,0-1.06-.64,4.08,4.08,0,0,0-1.45-.24,2.62,2.62,0,0,0-1.82.54,1.68,1.68,0,0,0-.6,1.3,1.44,1.44,0,0,0,.53,1.19,5.64,5.64,0,0,0,2.14.77,9.16,9.16,0,0,1,3.57,1.4,2.8,2.8,0,0,1,1.18,2.37A3.27,3.27,0,0,1,576.5,167a5.69,5.69,0,0,1-3.57,1,9.39,9.39,0,0,1-2.59-.34,6.68,6.68,0,0,1-2.05-1v-2.89H570l.44,1.7a2.43,2.43,0,0,0,1.08.53,6,6,0,0,0,1.4.16,3.21,3.21,0,0,0,1.93-.5,1.51,1.51,0,0,0,.7-1.3,1.6,1.6,0,0,0-.58-1.26,5.43,5.43,0,0,0-2.2-.85A9.42,9.42,0,0,1,569.3,161a2.77,2.77,0,0,1-1.17-2.35,3.29,3.29,0,0,1,1.32-2.63,5.18,5.18,0,0,1,3.42-1.09,8.31,8.31,0,0,1,2.59.37,5.37,5.37,0,0,1,1.91,1Z"/><path class="cls-24" d="M583,167.79h-2.31v-2.37H583Z"/></svg>