<svg id="Camada_1" data-name="Camada 1" xmlns="http://www.w3.org/2000/svg" xmlns:xlink="http://www.w3.org/1999/xlink" viewBox="0 0 881 251.02"><defs><style>.cls-1{fill:none;}.cls-2{fill:#65c4d1;}.cls-3{fill:#f9f9f9;}.cls-4{fill:#97d8dd;}.cls-5{clip-path:url(#clip-path);}.cls-6{fill:#eaa000;}.cls-7{fill:#eac2a7;}.cls-8{fill:#c9a68f;}.cls-9{fill:#d6aa8b;}.cls-10{fill:#d6d6d6;}.cls-11{fill:#c99f4b;}.cls-12{fill:#6d5f56;}.cls-13{fill:#493e38;}.cls-14{clip-path:url(#clip-path-2);}.cls-15{fill:#fcfcfc;}.cls-16{fill:#d32222;}.cls-17{fill:#f4f4f4;}.cls-18{clip-path:url(#clip-path-3);}.cls-19{fill:#b7b7b7;}.cls-20{fill:#6d472e;}.cls-21{fill:#c99e32;}.cls-22{clip-path:url(#clip-path-4);}.cls-23{fill:#aa7e30;}.cls-24{fill:#fff;}.cls-25{fill:#ddd;}.cls-26{fill:#846829;}.cls-27{fill:#e8cd95;}</style><clipPath id="clip-path"><path class="cls-1" d="M240.19,117c0-70.11-80.8-122.8-153-116.46C14.73,6.88,15.41,40.76,15.41,110.88S36.5,243.93,109,243.93,240.19,187.09,240.19,117Z"/></clipPath><clipPath id="clip-path-2"><path class="cls-1" d="M95.75,66.9c-.24-.25,14.12.9,19.61-3.14,0,0,1.08,10.93-3.82,12.12S100.69,75.1,95.75,66.9Z"/></clipPath><clipPath id="clip-path-3"><path class="cls-1" d="M103.88,228.61c3.33,6.62,26.79,8,28.73,8.63,0,0,.61-26.57-3.13-41.49S103.88,228.61,103.88,228.61Z"/></clipPath><clipPath id="clip-path-4"><path class="cls-1" d="M75.36,64c4.13,1.71.57-5.71.57-5.71s-.39-7.43-2.5-8.7a30.14,30.14,0,0,1-4.59-3.75l10.57-7.24L108.3,18.78s4-5.56-5.14-9a10.86,10.86,0,0,0-11-3.28s-4-4.78-9.77-.39c0,0-11.62-.68-14.26,5a4.34,4.34,0,0,0-4.27,2.43s-2.43.92-2.89,2.89c0,0-5.88,2.31-6.24,6.23,0,0-3.21,4.5-.64,8.13,0,0-1.69,3.19.5,5.38,0,0-4.92,5.39,0,8.74,0,0-1.21,3.49,6,4.92l2.14,4.42s2-.94,8,5Z"/></clipPath></defs><title>1-intro</title><path class="cls-2" d="M871,216.48H182.84V81.34H871a10,10,0,0,1,10,10V206.48A10,10,0,0,1,871,216.48Z"/><path class="cls-3" d="M232.34,111.41l1.26-.18,6-15.41h2l5.86,15.41,1.25.18v1.47h-4.9v-1.47l1.29-.23L243.93,108H237.1l-1.16,3.14,1.29.23v1.47h-4.89Zm5.47-5.3h5.42l-2.65-7.33h-.07Z"/><path class="cls-3" d="M250,111.41l1.91-.33V102l-1.91-.33V100.2h4l.16,1.89a4.68,4.68,0,0,1,1.59-1.57,4.24,4.24,0,0,1,2.17-.55,4.15,4.15,0,0,1,3.18,1.2,5.28,5.28,0,0,1,1.12,3.71v6.2l1.91.33v1.47H258v-1.47l1.91-.33v-6.16a3.36,3.36,0,0,0-.67-2.37,2.64,2.64,0,0,0-2-.71,3.25,3.25,0,0,0-1.76.48,3.56,3.56,0,0,0-1.23,1.32v7.44l1.91.33v1.47H250Z"/><path class="cls-3" d="M269.79,97.14v3.06h2.4v1.71h-2.4v7.7a1.77,1.77,0,0,0,.37,1.26,1.35,1.35,0,0,0,1,.36,6.21,6.21,0,0,0,.69,0l.63-.11.32,1.58a3,3,0,0,1-1,.34,6,6,0,0,1-1.27.14,3,3,0,0,1-2.23-.85,3.69,3.69,0,0,1-.84-2.67v-7.7h-2V100.2h2V97.14Z"/><path class="cls-3" d="M280.34,113.13a5.32,5.32,0,0,1-4.21-1.77,6.59,6.59,0,0,1-1.57-4.57v-.52a6.52,6.52,0,0,1,1.61-4.5A5,5,0,0,1,280,100a4.81,4.81,0,0,1,3.87,1.54,6.17,6.17,0,0,1,1.32,4.13v1.44H277l0,.06a5,5,0,0,0,.92,3,3,3,0,0,0,2.5,1.17,5.9,5.9,0,0,0,2.06-.33,4.55,4.55,0,0,0,1.52-.92l.91,1.5a5.63,5.63,0,0,1-1.8,1.11A7.21,7.21,0,0,1,280.34,113.13ZM280,101.78a2.49,2.49,0,0,0-2,1,4.6,4.6,0,0,0-1,2.46l0,.06h5.85V105a3.51,3.51,0,0,0-.73-2.27A2.58,2.58,0,0,0,280,101.78Z"/><path class="cls-3" d="M297.16,104.19h-1.74l-.37-1.53A3.37,3.37,0,0,0,294,102a4.12,4.12,0,0,0-1.45-.24,2.67,2.67,0,0,0-1.83.54,1.7,1.7,0,0,0-.6,1.3,1.47,1.47,0,0,0,.53,1.19,5.54,5.54,0,0,0,2.14.77,9.15,9.15,0,0,1,3.58,1.4,2.82,2.82,0,0,1,1.17,2.37,3.26,3.26,0,0,1-1.36,2.73,5.71,5.71,0,0,1-3.57,1,9,9,0,0,1-2.59-.34,6.79,6.79,0,0,1-2.05-1l0-2.9h1.74l.43,1.7a2.47,2.47,0,0,0,1.09.53,5.89,5.89,0,0,0,1.4.16,3.25,3.25,0,0,0,1.92-.49,1.54,1.54,0,0,0,.7-1.31,1.57,1.57,0,0,0-.58-1.26,5.58,5.58,0,0,0-2.2-.85A9.39,9.39,0,0,1,289,106a2.77,2.77,0,0,1-1.17-2.35,3.29,3.29,0,0,1,1.32-2.63,5.19,5.19,0,0,1,3.43-1.09,8.35,8.35,0,0,1,2.59.37,5.4,5.4,0,0,1,1.91,1Z"/><path class="cls-3" d="M314.19,111.37a4,4,0,0,1-1.51,1.31,4.58,4.58,0,0,1-2.08.45,4.34,4.34,0,0,1-3.63-1.68,7,7,0,0,1-1.31-4.43v-.24a8.49,8.49,0,0,1,1.31-4.94,4.2,4.2,0,0,1,3.65-1.87,4.65,4.65,0,0,1,2,.41,4.23,4.23,0,0,1,1.47,1.2V96.42l-1.91-.33V94.6h4.22v16.48l1.91.33v1.47h-3.92ZM308,107a5.31,5.31,0,0,0,.79,3.07,2.7,2.7,0,0,0,2.42,1.16,3,3,0,0,0,1.74-.47,3.58,3.58,0,0,0,1.16-1.32v-5.88a3.65,3.65,0,0,0-1.16-1.27,3.09,3.09,0,0,0-1.71-.47,2.64,2.64,0,0,0-2.45,1.37,7.2,7.2,0,0,0-.79,3.57Z"/><path class="cls-3" d="M325.84,113.13a5.34,5.34,0,0,1-4.21-1.77,6.63,6.63,0,0,1-1.56-4.57v-.52a6.47,6.47,0,0,1,1.61-4.5,5,5,0,0,1,3.81-1.8,4.79,4.79,0,0,1,3.87,1.54,6.17,6.17,0,0,1,1.32,4.13v1.44h-8.22l0,.06a5,5,0,0,0,.93,3,2.94,2.94,0,0,0,2.49,1.17,5.9,5.9,0,0,0,2.06-.33,4.7,4.7,0,0,0,1.53-.92l.9,1.5a5.42,5.42,0,0,1-1.8,1.11A7.18,7.18,0,0,1,325.84,113.13Zm-.35-11.35a2.52,2.52,0,0,0-2,1,4.68,4.68,0,0,0-1,2.46l0,.06h5.84V105a3.56,3.56,0,0,0-.72-2.27A2.61,2.61,0,0,0,325.49,101.78Z"/><path class="cls-3" d="M344.62,111.32a3.08,3.08,0,0,0,2-.71,2.16,2.16,0,0,0,.87-1.74h2.07l0,.07a3.57,3.57,0,0,1-1.46,2.92,5.37,5.37,0,0,1-3.53,1.27,5.1,5.1,0,0,1-4.23-1.81,7,7,0,0,1-1.46-4.53v-.49a6.94,6.94,0,0,1,1.47-4.52,5.09,5.09,0,0,1,4.22-1.81,7.18,7.18,0,0,1,2.73.5,5.62,5.62,0,0,1,2,1.38l.11,2.82h-1.84l-.51-2a3,3,0,0,0-1.05-.64,4.12,4.12,0,0,0-1.45-.25,2.79,2.79,0,0,0-2.6,1.31,6.16,6.16,0,0,0-.78,3.21v.49A6.29,6.29,0,0,0,342,110,2.81,2.81,0,0,0,344.62,111.32Z"/><path class="cls-3" d="M351.87,106.42a7,7,0,0,1,1.52-4.63,5.64,5.64,0,0,1,8.29,0,7,7,0,0,1,1.53,4.64v.26a6.92,6.92,0,0,1-1.52,4.64,5.12,5.12,0,0,1-4.14,1.81,5.19,5.19,0,0,1-4.16-1.81,7,7,0,0,1-1.52-4.64Zm2.31.26A6,6,0,0,0,355,110a3.06,3.06,0,0,0,5,0,6,6,0,0,0,.86-3.33v-.26a6,6,0,0,0-.86-3.31,3,3,0,0,0-5,0,6.07,6.07,0,0,0-.84,3.31Z"/><path class="cls-3" d="M364.87,111.41l1.91-.33V102l-1.91-.33V100.2h4l.15,1.65a4.2,4.2,0,0,1,1.57-1.39,4.82,4.82,0,0,1,2.23-.49,3.91,3.91,0,0,1,2.17.58,3.57,3.57,0,0,1,1.37,1.76,4.65,4.65,0,0,1,1.58-1.71,4.18,4.18,0,0,1,2.3-.63,3.81,3.81,0,0,1,3.07,1.33,6.06,6.06,0,0,1,1.12,4v5.78l1.91.33v1.47h-6.14v-1.47l1.91-.33v-5.8a4.24,4.24,0,0,0-.64-2.66,2.34,2.34,0,0,0-1.91-.78,2.45,2.45,0,0,0-1.94.85,3.71,3.71,0,0,0-.85,2.14v6.25l1.91.33v1.47h-6.13v-1.47l1.91-.33v-5.8a4.17,4.17,0,0,0-.66-2.61,2.32,2.32,0,0,0-1.92-.83,3.15,3.15,0,0,0-1.73.44,2.79,2.79,0,0,0-1.05,1.22v7.58l1.92.33v1.47h-6.13Z"/><path class="cls-3" d="M393.67,113.13a5.34,5.34,0,0,1-4.21-1.77,6.64,6.64,0,0,1-1.57-4.57v-.52a6.52,6.52,0,0,1,1.61-4.5,5,5,0,0,1,3.82-1.8,4.81,4.81,0,0,1,3.87,1.54,6.17,6.17,0,0,1,1.32,4.13v1.44h-8.23l0,.06a5,5,0,0,0,.92,3,3,3,0,0,0,2.5,1.17,5.9,5.9,0,0,0,2.06-.33,4.7,4.7,0,0,0,1.53-.92l.9,1.5a5.42,5.42,0,0,1-1.8,1.11A7.21,7.21,0,0,1,393.67,113.13Zm-.35-11.35a2.52,2.52,0,0,0-2,1,4.68,4.68,0,0,0-1,2.46l0,.06h5.85V105a3.56,3.56,0,0,0-.72-2.27A2.61,2.61,0,0,0,393.32,101.78Z"/><path class="cls-3" d="M406.48,111.32a3.06,3.06,0,0,0,2-.71,2.16,2.16,0,0,0,.87-1.74h2.08l0,.07a3.57,3.57,0,0,1-1.46,2.92,5.37,5.37,0,0,1-3.53,1.27,5.12,5.12,0,0,1-4.23-1.81,7,7,0,0,1-1.45-4.53v-.49a6.93,6.93,0,0,1,1.46-4.52,5.1,5.1,0,0,1,4.22-1.81,7.19,7.19,0,0,1,2.74.5,5.8,5.8,0,0,1,2,1.38l.1,2.82h-1.84l-.5-2a3.16,3.16,0,0,0-1.06-.64,4.12,4.12,0,0,0-1.45-.25,2.79,2.79,0,0,0-2.6,1.31,6.16,6.16,0,0,0-.78,3.21v.49a6.19,6.19,0,0,0,.78,3.24A2.78,2.78,0,0,0,406.48,111.32Zm.09,1.67-.14.61a2.33,2.33,0,0,1,1.27.61,1.88,1.88,0,0,1,.5,1.41,2.13,2.13,0,0,1-.92,1.8,4.53,4.53,0,0,1-2.65.66l-.08-1.27a2.76,2.76,0,0,0,1.35-.29.93.93,0,0,0,.51-.86.82.82,0,0,0-.42-.79,4.13,4.13,0,0,0-1.44-.3l.37-1.58Z"/><path class="cls-3" d="M422,112.88c-.08-.34-.13-.65-.17-.92a7.84,7.84,0,0,1-.08-.82,5.63,5.63,0,0,1-1.67,1.42,4.77,4.77,0,0,1-5.15-.4,3.53,3.53,0,0,1-1-2.72,3.15,3.15,0,0,1,1.46-2.79,7.1,7.1,0,0,1,4-1h2.38V104.2a2.31,2.31,0,0,0-.71-1.77,2.77,2.77,0,0,0-1.95-.65,4.73,4.73,0,0,0-1.53.23,2.84,2.84,0,0,0-1.07.61l-.25,1.33h-1.78v-2.46a7,7,0,0,1,2.1-1.11,8.49,8.49,0,0,1,2.67-.41,5.27,5.27,0,0,1,3.49,1.1,3.84,3.84,0,0,1,1.34,3.15v6.59l0,.47.94.13v1.47Zm-3.72-1.69a4.07,4.07,0,0,0,2.1-.55,3.46,3.46,0,0,0,1.36-1.32v-2.09h-2.46a3.5,3.5,0,0,0-2.25.66,2,2,0,0,0-.82,1.59,1.57,1.57,0,0,0,.51,1.27A2.32,2.32,0,0,0,418.28,111.19Z"/><path class="cls-3" d="M426.94,101.69V100.2h4l.23,1.84a4.41,4.41,0,0,1,1.33-1.52,3.05,3.05,0,0,1,1.81-.55,3.48,3.48,0,0,1,.55,0l.44.09-.3,2.14-1.31-.07a2.61,2.61,0,0,0-1.54.43,2.76,2.76,0,0,0-1,1.2v7.28l1.91.33v1.47h-6.13v-1.47l1.91-.33V102Z"/><path class="cls-3" d="M436.41,111.41l1.91-.33V102l-1.91-.33V100.2h4l.16,1.65a4.12,4.12,0,0,1,1.57-1.39,4.78,4.78,0,0,1,2.22-.49,3.94,3.94,0,0,1,2.18.58,3.55,3.55,0,0,1,1.36,1.76,4.74,4.74,0,0,1,1.58-1.71,4.2,4.2,0,0,1,2.3-.63,3.79,3.79,0,0,1,3.07,1.33,6.06,6.06,0,0,1,1.13,4v5.78l1.91.33v1.47h-6.14v-1.47l1.91-.33v-5.8a4.23,4.23,0,0,0-.65-2.66,2.34,2.34,0,0,0-1.91-.78,2.46,2.46,0,0,0-1.94.85,3.71,3.71,0,0,0-.85,2.14v6.25l1.91.33v1.47h-6.13v-1.47l1.91-.33v-5.8a4.17,4.17,0,0,0-.66-2.61,2.31,2.31,0,0,0-1.91-.83,3.16,3.16,0,0,0-1.74.44,2.77,2.77,0,0,0-1,1.22v7.58l1.91.33v1.47h-6.13Z"/><path class="cls-3" d="M459.44,106.42a6.94,6.94,0,0,1,1.52-4.63,5.64,5.64,0,0,1,8.29,0,7,7,0,0,1,1.53,4.64v.26a7,7,0,0,1-1.52,4.64,5.66,5.66,0,0,1-8.3,0,6.93,6.93,0,0,1-1.52-4.64Zm2.31.26a6,6,0,0,0,.84,3.33,3.07,3.07,0,0,0,5,0,6,6,0,0,0,.85-3.33v-.26a6,6,0,0,0-.85-3.31,3,3,0,0,0-5,0,6.07,6.07,0,0,0-.84,3.31Z"/><path class="cls-3" d="M482.59,104.19h-1.73l-.38-1.53a3.16,3.16,0,0,0-1.06-.64,4.06,4.06,0,0,0-1.44-.24,2.67,2.67,0,0,0-1.83.54,1.7,1.7,0,0,0-.6,1.3,1.47,1.47,0,0,0,.53,1.19,5.47,5.47,0,0,0,2.14.77,9.28,9.28,0,0,1,3.58,1.4,2.82,2.82,0,0,1,1.17,2.37,3.27,3.27,0,0,1-1.37,2.73,5.69,5.69,0,0,1-3.57,1,9,9,0,0,1-2.59-.34,7,7,0,0,1-2.05-1v-2.9h1.74l.43,1.7a2.49,2.49,0,0,0,1.08.53,6,6,0,0,0,1.4.16,3.28,3.28,0,0,0,1.93-.49,1.54,1.54,0,0,0,.7-1.31,1.57,1.57,0,0,0-.58-1.26,5.58,5.58,0,0,0-2.2-.85A9.25,9.25,0,0,1,474.4,106a2.77,2.77,0,0,1-1.17-2.35,3.29,3.29,0,0,1,1.32-2.63A5.19,5.19,0,0,1,478,100a8.35,8.35,0,0,1,2.59.37,5.4,5.4,0,0,1,1.91,1Z"/><path class="cls-3" d="M499.36,112.88c-.07-.34-.12-.65-.16-.92a7.84,7.84,0,0,1-.08-.82,5.76,5.76,0,0,1-1.67,1.42,4.26,4.26,0,0,1-2.14.57,4.21,4.21,0,0,1-3-1,3.53,3.53,0,0,1-1-2.72,3.17,3.17,0,0,1,1.46-2.79,7.16,7.16,0,0,1,4-1h2.37V104.2a2.31,2.31,0,0,0-.7-1.77,2.79,2.79,0,0,0-2-.65,4.71,4.71,0,0,0-1.52.23,2.88,2.88,0,0,0-1.08.61L493.6,104h-1.78v-2.46a6.8,6.8,0,0,1,2.09-1.11,8.49,8.49,0,0,1,2.67-.41,5.3,5.3,0,0,1,3.5,1.1,3.84,3.84,0,0,1,1.33,3.15v6.11c0,.16,0,.32,0,.48a3.83,3.83,0,0,0,0,.47l.94.13v1.47Zm-3.71-1.69a4.12,4.12,0,0,0,2.1-.55,3.37,3.37,0,0,0,1.35-1.32v-2.09h-2.46a3.49,3.49,0,0,0-2.24.66,2,2,0,0,0-.83,1.59,1.58,1.58,0,0,0,.52,1.27A2.31,2.31,0,0,0,495.65,111.19Z"/><path class="cls-3" d="M510.05,101.91V100.2h2V98.6a4.36,4.36,0,0,1,1.06-3.14,3.9,3.9,0,0,1,3-1.11,5.4,5.4,0,0,1,.8.07q.4.06.9.18l-.28,1.76a4.6,4.6,0,0,0-.51-.08,4.21,4.21,0,0,0-.62,0,1.84,1.84,0,0,0-1.51.6,2.73,2.73,0,0,0-.49,1.76v1.6H517v1.71h-2.65v9.17l1.91.33v1.47h-6.13v-1.47l1.91-.33v-9.17Z"/><path class="cls-3" d="M527.08,112.88c-.07-.34-.13-.65-.17-.92s-.06-.55-.08-.82a5.51,5.51,0,0,1-1.67,1.42,4.77,4.77,0,0,1-5.15-.4,3.53,3.53,0,0,1-1-2.72,3.17,3.17,0,0,1,1.46-2.79,7.13,7.13,0,0,1,4-1h2.38V104.2a2.34,2.34,0,0,0-.7-1.77,2.79,2.79,0,0,0-2-.65,4.73,4.73,0,0,0-1.53.23,2.84,2.84,0,0,0-1.07.61l-.25,1.33h-1.78v-2.46a7,7,0,0,1,2.1-1.11,8.49,8.49,0,0,1,2.67-.41,5.27,5.27,0,0,1,3.49,1.1,3.84,3.84,0,0,1,1.34,3.15v6.59l0,.47.94.13v1.47Zm-3.72-1.69a4.07,4.07,0,0,0,2.1-.55,3.4,3.4,0,0,0,1.36-1.32v-2.09h-2.46a3.52,3.52,0,0,0-2.25.66,2,2,0,0,0-.82,1.59,1.57,1.57,0,0,0,.51,1.27A2.34,2.34,0,0,0,523.36,111.19Z"/><path class="cls-3" d="M531.71,96.09V94.6h4.21v16.48l1.91.33v1.47h-6.12v-1.47l1.91-.33V96.42Z"/><path class="cls-3" d="M547.85,112.88c-.07-.34-.12-.65-.16-.92a7.84,7.84,0,0,1-.08-.82,5.63,5.63,0,0,1-1.67,1.42,4.77,4.77,0,0,1-5.15-.4,3.53,3.53,0,0,1-1-2.72,3.15,3.15,0,0,1,1.46-2.79,7.1,7.1,0,0,1,4-1h2.38V104.2a2.31,2.31,0,0,0-.71-1.77,2.78,2.78,0,0,0-1.95-.65,4.73,4.73,0,0,0-1.53.23,3,3,0,0,0-1.08.61l-.24,1.33h-1.78v-2.46a6.85,6.85,0,0,1,2.1-1.11,8.49,8.49,0,0,1,2.67-.41,5.29,5.29,0,0,1,3.49,1.1,3.84,3.84,0,0,1,1.34,3.15v6.59c0,.15,0,.31,0,.47l.94.13v1.47Zm-3.71-1.69a4.09,4.09,0,0,0,2.1-.55,3.46,3.46,0,0,0,1.36-1.32v-2.09h-2.46a3.5,3.5,0,0,0-2.25.66,2,2,0,0,0-.82,1.59,1.57,1.57,0,0,0,.51,1.27A2.31,2.31,0,0,0,544.14,111.19Z"/><path class="cls-3" d="M552.8,101.69V100.2h4L557,102a4.31,4.31,0,0,1,1.33-1.52,3.05,3.05,0,0,1,1.81-.55,3.48,3.48,0,0,1,.55,0l.44.09-.3,2.14-1.32-.07a2.6,2.6,0,0,0-1.53.43,2.76,2.76,0,0,0-1,1.2v7.28l1.91.33v1.47H552.8v-1.47l1.91-.33V102Z"/><path class="cls-3" d="M578.39,104.19h-1.73l-.38-1.53a3.16,3.16,0,0,0-1.06-.64,4,4,0,0,0-1.44-.24,2.67,2.67,0,0,0-1.83.54,1.7,1.7,0,0,0-.6,1.3,1.47,1.47,0,0,0,.53,1.19,5.47,5.47,0,0,0,2.14.77,9.21,9.21,0,0,1,3.58,1.4,2.82,2.82,0,0,1,1.17,2.37,3.27,3.27,0,0,1-1.37,2.73,5.69,5.69,0,0,1-3.57,1,8.91,8.91,0,0,1-2.58-.34,7,7,0,0,1-2.06-1v-2.9h1.74l.43,1.7a2.49,2.49,0,0,0,1.08.53,6,6,0,0,0,1.4.16,3.26,3.26,0,0,0,1.93-.49,1.54,1.54,0,0,0,.7-1.31,1.57,1.57,0,0,0-.58-1.26,5.58,5.58,0,0,0-2.2-.85A9.25,9.25,0,0,1,570.2,106a2.77,2.77,0,0,1-1.17-2.35,3.29,3.29,0,0,1,1.32-2.63,5.19,5.19,0,0,1,3.43-1.09,8.35,8.35,0,0,1,2.59.37,5.4,5.4,0,0,1,1.91,1Z"/><path class="cls-3" d="M580.94,106.42a6.94,6.94,0,0,1,1.52-4.63,5.64,5.64,0,0,1,8.29,0,7,7,0,0,1,1.53,4.64v.26a7,7,0,0,1-1.52,4.64,5.66,5.66,0,0,1-8.3,0,6.93,6.93,0,0,1-1.52-4.64Zm2.31.26a6,6,0,0,0,.84,3.33,3.07,3.07,0,0,0,5,0,6,6,0,0,0,.85-3.33v-.26a6,6,0,0,0-.85-3.31,3,3,0,0,0-5,0,6.07,6.07,0,0,0-.84,3.31Z"/><path class="cls-3" d="M606,107a7,7,0,0,1-1.32,4.43,4.36,4.36,0,0,1-3.62,1.68,4.59,4.59,0,0,1-2.16-.48,3.91,3.91,0,0,1-1.52-1.4l-.21,1.63h-2V96.42l-1.91-.33V94.6h4.22v7.1a4.06,4.06,0,0,1,1.48-1.29A4.64,4.64,0,0,1,601,100a4.22,4.22,0,0,1,3.66,1.87,8.49,8.49,0,0,1,1.31,4.94Zm-2.32-.24a7,7,0,0,0-.8-3.57,2.63,2.63,0,0,0-2.43-1.37,3,3,0,0,0-1.8.52,3.6,3.6,0,0,0-1.17,1.38v5.6a3.6,3.6,0,0,0,1.18,1.4,3.13,3.13,0,0,0,1.81.51,2.71,2.71,0,0,0,2.42-1.16,5.31,5.31,0,0,0,.79-3.07Z"/><path class="cls-3" d="M608.29,101.69V100.2h4l.22,1.84a4.51,4.51,0,0,1,1.33-1.52,3.07,3.07,0,0,1,1.81-.55,3.6,3.6,0,0,1,.56,0l.44.09-.3,2.14-1.32-.07a2.58,2.58,0,0,0-1.53.43,2.63,2.63,0,0,0-1,1.2v7.28l1.91.33v1.47h-6.13v-1.47l1.91-.33V102Z"/><path class="cls-3" d="M623.78,113.13a5.32,5.32,0,0,1-4.21-1.77,6.59,6.59,0,0,1-1.57-4.57v-.52a6.52,6.52,0,0,1,1.61-4.5,5,5,0,0,1,3.82-1.8,4.81,4.81,0,0,1,3.87,1.54,6.17,6.17,0,0,1,1.32,4.13v1.44h-8.23l0,.06a5,5,0,0,0,.92,3,3,3,0,0,0,2.5,1.17,5.9,5.9,0,0,0,2.06-.33,4.7,4.7,0,0,0,1.53-.92l.9,1.5a5.42,5.42,0,0,1-1.8,1.11A7.21,7.21,0,0,1,623.78,113.13Zm-.35-11.35a2.52,2.52,0,0,0-2,1,4.68,4.68,0,0,0-1,2.46l0,.06h5.85V105a3.51,3.51,0,0,0-.73-2.27A2.58,2.58,0,0,0,623.43,101.78Z"/><path class="cls-3" d="M636.52,111.41l1.91-.33V102l-1.91-.33V100.2h4l.17,1.89a4.74,4.74,0,0,1,1.58-1.57,4.26,4.26,0,0,1,2.18-.55,4.14,4.14,0,0,1,3.17,1.2,5.28,5.28,0,0,1,1.13,3.71v6.2l1.91.33v1.47H644.5v-1.47l1.91-.33v-6.16a3.41,3.41,0,0,0-.66-2.37,2.65,2.65,0,0,0-2-.71,3.26,3.26,0,0,0-1.77.48,3.45,3.45,0,0,0-1.22,1.32v7.44l1.91.33v1.47h-6.13Z"/><path class="cls-3" d="M652.2,106.42a7,7,0,0,1,1.52-4.63,5.64,5.64,0,0,1,8.29,0,7,7,0,0,1,1.53,4.64v.26a7,7,0,0,1-1.52,4.64,5.66,5.66,0,0,1-8.3,0,7,7,0,0,1-1.52-4.64Zm2.31.26a6,6,0,0,0,.85,3.33,3.06,3.06,0,0,0,5,0,6,6,0,0,0,.85-3.33v-.26a6,6,0,0,0-.85-3.31,3,3,0,0,0-5,0,6.07,6.07,0,0,0-.84,3.31Z"/><path class="cls-3" d="M675.35,104.19h-1.73l-.37-1.53a3.31,3.31,0,0,0-1.07-.64,4,4,0,0,0-1.44-.24,2.67,2.67,0,0,0-1.83.54,1.7,1.7,0,0,0-.6,1.3,1.47,1.47,0,0,0,.53,1.19,5.54,5.54,0,0,0,2.14.77,9.21,9.21,0,0,1,3.58,1.4,2.82,2.82,0,0,1,1.17,2.37,3.27,3.27,0,0,1-1.37,2.73,5.68,5.68,0,0,1-3.56,1,8.93,8.93,0,0,1-2.59-.34,6.79,6.79,0,0,1-2.05-1l0-2.9h1.74l.43,1.7a2.47,2.47,0,0,0,1.09.53,5.89,5.89,0,0,0,1.4.16,3.25,3.25,0,0,0,1.92-.49,1.54,1.54,0,0,0,.7-1.31,1.57,1.57,0,0,0-.58-1.26,5.58,5.58,0,0,0-2.2-.85,9.25,9.25,0,0,1-3.48-1.37,2.77,2.77,0,0,1-1.17-2.35,3.29,3.29,0,0,1,1.32-2.63,5.19,5.19,0,0,1,3.43-1.09,8.35,8.35,0,0,1,2.59.37,5.4,5.4,0,0,1,1.91,1Z"/><path class="cls-3" d="M687.59,104.19h-1.74l-.37-1.53a3.26,3.26,0,0,0-1.06-.64,4.12,4.12,0,0,0-1.45-.24,2.67,2.67,0,0,0-1.83.54,1.72,1.72,0,0,0-.59,1.3,1.46,1.46,0,0,0,.52,1.19,5.53,5.53,0,0,0,2.15.77,9.16,9.16,0,0,1,3.57,1.4,2.82,2.82,0,0,1,1.17,2.37,3.26,3.26,0,0,1-1.36,2.73,5.69,5.69,0,0,1-3.57,1,9,9,0,0,1-2.59-.34,6.79,6.79,0,0,1-2.05-1v-2.9h1.73l.44,1.7a2.38,2.38,0,0,0,1.08.53,6,6,0,0,0,1.4.16,3.3,3.3,0,0,0,1.93-.49,1.56,1.56,0,0,0,.7-1.31,1.6,1.6,0,0,0-.58-1.26,5.58,5.58,0,0,0-2.2-.85A9.25,9.25,0,0,1,679.4,106a2.77,2.77,0,0,1-1.17-2.35,3.31,3.31,0,0,1,1.31-2.63A5.2,5.2,0,0,1,683,100a8.31,8.31,0,0,1,2.59.37,5.32,5.32,0,0,1,1.91,1Z"/><path class="cls-3" d="M690.13,106.42a7,7,0,0,1,1.53-4.63,5.1,5.1,0,0,1,4.13-1.82,5.16,5.16,0,0,1,4.16,1.81,7,7,0,0,1,1.53,4.64v.26a6.92,6.92,0,0,1-1.53,4.64,5.1,5.1,0,0,1-4.13,1.81,5.16,5.16,0,0,1-4.16-1.81,6.94,6.94,0,0,1-1.53-4.64Zm2.31.26a6,6,0,0,0,.85,3.33,2.81,2.81,0,0,0,2.53,1.31,2.78,2.78,0,0,0,2.49-1.31,6,6,0,0,0,.86-3.33v-.26a6,6,0,0,0-.86-3.31,3,3,0,0,0-5,0,6.07,6.07,0,0,0-.84,3.31Z"/><path class="cls-3" d="M715.34,113.13a5.32,5.32,0,0,1-4.21-1.77,6.59,6.59,0,0,1-1.57-4.57v-.52a6.52,6.52,0,0,1,1.61-4.5A5,5,0,0,1,715,100a4.81,4.81,0,0,1,3.87,1.54,6.17,6.17,0,0,1,1.32,4.13v1.44H712l0,.06a5,5,0,0,0,.92,3,3,3,0,0,0,2.5,1.17,5.9,5.9,0,0,0,2.06-.33,4.55,4.55,0,0,0,1.52-.92l.91,1.5a5.63,5.63,0,0,1-1.8,1.11A7.21,7.21,0,0,1,715.34,113.13ZM715,101.78a2.49,2.49,0,0,0-2,1,4.6,4.6,0,0,0-1,2.46l0,.06h5.85V105a3.51,3.51,0,0,0-.73-2.27A2.58,2.58,0,0,0,715,101.78Z"/><path class="cls-3" d="M732.16,104.19h-1.74l-.37-1.53A3.37,3.37,0,0,0,729,102a4.12,4.12,0,0,0-1.45-.24,2.67,2.67,0,0,0-1.83.54,1.7,1.7,0,0,0-.6,1.3,1.47,1.47,0,0,0,.53,1.19,5.54,5.54,0,0,0,2.14.77,9.15,9.15,0,0,1,3.58,1.4,2.82,2.82,0,0,1,1.17,2.37,3.26,3.26,0,0,1-1.36,2.73,5.71,5.71,0,0,1-3.57,1,9,9,0,0,1-2.59-.34,6.79,6.79,0,0,1-2-1l0-2.9h1.74l.43,1.7a2.47,2.47,0,0,0,1.09.53,5.89,5.89,0,0,0,1.4.16,3.25,3.25,0,0,0,1.92-.49,1.54,1.54,0,0,0,.7-1.31,1.57,1.57,0,0,0-.58-1.26,5.58,5.58,0,0,0-2.2-.85A9.39,9.39,0,0,1,724,106a2.77,2.77,0,0,1-1.17-2.35,3.29,3.29,0,0,1,1.32-2.63,5.19,5.19,0,0,1,3.43-1.09,8.35,8.35,0,0,1,2.59.37,5.4,5.4,0,0,1,1.91,1Z"/><path class="cls-3" d="M738.72,97.14v3.06h2.4v1.71h-2.4v7.7a1.73,1.73,0,0,0,.37,1.26,1.33,1.33,0,0,0,1,.36,5.89,5.89,0,0,0,.68,0l.64-.11.32,1.58a3,3,0,0,1-1,.34,6.17,6.17,0,0,1-1.27.14,3,3,0,0,1-2.24-.85,3.73,3.73,0,0,1-.83-2.67v-7.7h-2V100.2h2V97.14Z"/><path class="cls-3" d="M752.55,111a4.32,4.32,0,0,1-1.55,1.57,4.27,4.27,0,0,1-2.17.55,4,4,0,0,1-3.22-1.33,6.09,6.09,0,0,1-1.16-4.12V102l-1.45-.33V100.2h3.76v7.5a4.81,4.81,0,0,0,.59,2.79,2.22,2.22,0,0,0,1.87.76,3.7,3.7,0,0,0,2-.5,3,3,0,0,0,1.21-1.41V102l-1.7-.33V100.2h4v10.88l1.46.33v1.47H752.7Z"/><path class="cls-3" d="M766.6,111.37a4,4,0,0,1-1.52,1.31,4.58,4.58,0,0,1-2.08.45,4.34,4.34,0,0,1-3.63-1.68,7,7,0,0,1-1.3-4.43v-.24a8.49,8.49,0,0,1,1.3-4.94A4.2,4.2,0,0,1,763,100a4.65,4.65,0,0,1,2,.41,4.23,4.23,0,0,1,1.47,1.2V96.42l-1.91-.33V94.6h4.22v16.48l1.91.33v1.47h-3.92ZM760.37,107a5.39,5.39,0,0,0,.79,3.07,2.7,2.7,0,0,0,2.42,1.16,3,3,0,0,0,1.74-.47,3.58,3.58,0,0,0,1.16-1.32v-5.88a3.56,3.56,0,0,0-1.16-1.27,3.09,3.09,0,0,0-1.71-.47,2.62,2.62,0,0,0-2.44,1.37,7.09,7.09,0,0,0-.8,3.57Z"/><path class="cls-3" d="M772.47,106.42a7,7,0,0,1,1.52-4.63,5.64,5.64,0,0,1,8.29,0,7,7,0,0,1,1.53,4.64v.26a7,7,0,0,1-1.52,4.64,5.66,5.66,0,0,1-8.3,0,7,7,0,0,1-1.52-4.64Zm2.31.26a6,6,0,0,0,.85,3.33,3.06,3.06,0,0,0,5,0,6,6,0,0,0,.85-3.33v-.26a6,6,0,0,0-.85-3.31,3,3,0,0,0-5,0,6.07,6.07,0,0,0-.84,3.31Z"/><path class="cls-3" d="M800.43,111.37a4,4,0,0,1-1.52,1.31,4.58,4.58,0,0,1-2.08.45,4.35,4.35,0,0,1-3.63-1.68,7,7,0,0,1-1.3-4.43v-.24a8.49,8.49,0,0,1,1.3-4.94,4.21,4.21,0,0,1,3.65-1.87,4.62,4.62,0,0,1,2,.41,4.06,4.06,0,0,1,1.47,1.2V96.42l-1.91-.33V94.6h4.22v16.48l1.91.33v1.47h-3.91ZM794.21,107a5.39,5.39,0,0,0,.78,3.07,2.71,2.71,0,0,0,2.43,1.16,3,3,0,0,0,1.73-.47,3.49,3.49,0,0,0,1.16-1.32v-5.88a3.56,3.56,0,0,0-1.16-1.27,3.09,3.09,0,0,0-1.71-.47,2.62,2.62,0,0,0-2.44,1.37,7.1,7.1,0,0,0-.79,3.57Z"/><path class="cls-3" d="M806.3,106.42a7,7,0,0,1,1.52-4.63,5.64,5.64,0,0,1,8.29,0,7,7,0,0,1,1.53,4.64v.26a6.92,6.92,0,0,1-1.52,4.64,5.12,5.12,0,0,1-4.14,1.81,5.19,5.19,0,0,1-4.16-1.81,7,7,0,0,1-1.52-4.64Zm2.31.26a6,6,0,0,0,.85,3.33,3.06,3.06,0,0,0,5,0,6,6,0,0,0,.85-3.33v-.26a6,6,0,0,0-.85-3.31,3,3,0,0,0-5,0,6.07,6.07,0,0,0-.84,3.31Z"/><path class="cls-3" d="M240.37,124.62a6,6,0,0,1,4.24,1.41,5.28,5.28,0,0,1,0,7.41,6,6,0,0,1-4.24,1.4h-3.62v5l1.91.33v1.47h-6.13v-1.47l1.91-.33V126.44l-1.91-.33v-1.49h7.84ZM236.75,133h3.62a3.36,3.36,0,0,0,2.59-.93,3.29,3.29,0,0,0,.86-2.35,3.39,3.39,0,0,0-.86-2.37,3.33,3.33,0,0,0-2.59-.94h-3.62Z"/><path class="cls-3" d="M248,140.21l1.91-.33v-9.06l-1.91-.33V129h4.22v10.88l1.91.33v1.47H248Zm4.22-14.45h-2.31V123.4h2.31Z"/><path class="cls-3" d="M255.55,124.89V123.4h4.22v16.48l1.91.33v1.47h-6.13v-1.47l1.91-.33V125.22Z"/><path class="cls-3" d="M271.7,141.68c-.07-.34-.12-.65-.16-.92a7.84,7.84,0,0,1-.08-.82,5.76,5.76,0,0,1-1.67,1.42,4.26,4.26,0,0,1-2.14.57,4.21,4.21,0,0,1-3-1,3.53,3.53,0,0,1-1-2.72,3.17,3.17,0,0,1,1.46-2.79,7.16,7.16,0,0,1,4-1h2.37V133a2.31,2.31,0,0,0-.7-1.77,2.79,2.79,0,0,0-2-.65,4.82,4.82,0,0,0-1.53.23,2.92,2.92,0,0,0-1.07.61l-.24,1.33h-1.78v-2.46a6.8,6.8,0,0,1,2.09-1.11,8.49,8.49,0,0,1,2.67-.41,5.3,5.3,0,0,1,3.5,1.1,3.84,3.84,0,0,1,1.33,3.15v6.11c0,.16,0,.32,0,.48a3.83,3.83,0,0,0,0,.47l.94.13v1.47ZM268,140a4.06,4.06,0,0,0,2.09-.55,3.33,3.33,0,0,0,1.36-1.32V136H269a3.49,3.49,0,0,0-2.24.66,2,2,0,0,0-.83,1.59,1.55,1.55,0,0,0,.52,1.27A2.31,2.31,0,0,0,268,140Z"/><path class="cls-3" d="M276.65,130.49V129h4l.22,1.84a4.51,4.51,0,0,1,1.33-1.52,3.07,3.07,0,0,1,1.81-.55,3.6,3.6,0,0,1,.56,0l.44.09-.31,2.14-1.31-.07a2.58,2.58,0,0,0-1.53.43,2.63,2.63,0,0,0-1,1.2v7.28l1.91.33v1.47h-6.13v-1.47l1.91-.33v-9.06Z"/><path class="cls-3" d="M299.82,124.63a6.49,6.49,0,0,1,4.27,1.24,4.3,4.3,0,0,1,1.49,3.51,3.67,3.67,0,0,1-.69,2.2,4.6,4.6,0,0,1-2,1.51,3.5,3.5,0,0,1,2,1.49,4.9,4.9,0,0,1,.61,2.54v1.37a2.59,2.59,0,0,0,.2,1.16.86.86,0,0,0,.66.45l.56.07v1.51h-1.24a2.06,2.06,0,0,1-1.92-.94,4.37,4.37,0,0,1-.56-2.27v-1.32a3.1,3.1,0,0,0-.81-2.24,2.88,2.88,0,0,0-2.17-.85h-3.7v5.82l1.91.33v1.47h-6.13v-1.47l1.91-.33V126.44l-1.91-.33v-1.48h7.49Zm-3.27,7.62h3a4.34,4.34,0,0,0,2.81-.74,2.64,2.64,0,0,0,.88-2.16,2.78,2.78,0,0,0-.84-2.13,3.74,3.74,0,0,0-2.61-.78h-3.27Z"/><path class="cls-3" d="M314.57,141.93a5.32,5.32,0,0,1-4.21-1.77,6.59,6.59,0,0,1-1.57-4.57v-.52a6.52,6.52,0,0,1,1.61-4.5,5,5,0,0,1,3.82-1.8,4.81,4.81,0,0,1,3.87,1.54,6.17,6.17,0,0,1,1.32,4.13v1.44h-8.23l0,.06a5,5,0,0,0,.92,3,3,3,0,0,0,2.5,1.17,5.9,5.9,0,0,0,2.06-.33,4.7,4.7,0,0,0,1.53-.92l.9,1.5a5.63,5.63,0,0,1-1.8,1.11A7.21,7.21,0,0,1,314.57,141.93Zm-.35-11.35a2.49,2.49,0,0,0-2,1,4.56,4.56,0,0,0-1,2.46l0,.06h5.85v-.31a3.51,3.51,0,0,0-.73-2.27A2.58,2.58,0,0,0,314.22,130.58Z"/><path class="cls-3" d="M327.38,140.12a3.08,3.08,0,0,0,2-.71,2.16,2.16,0,0,0,.87-1.74h2.08l0,.07a3.57,3.57,0,0,1-1.46,2.92,5.37,5.37,0,0,1-3.53,1.27,5.11,5.11,0,0,1-4.23-1.81,7,7,0,0,1-1.46-4.53v-.49a6.94,6.94,0,0,1,1.47-4.52,5.1,5.1,0,0,1,4.22-1.81,7.14,7.14,0,0,1,2.73.5,5.62,5.62,0,0,1,2,1.38l.11,2.82h-1.84l-.5-2a3.16,3.16,0,0,0-1.06-.64,4.12,4.12,0,0,0-1.45-.25,2.79,2.79,0,0,0-2.6,1.31,6.16,6.16,0,0,0-.78,3.21v.49a6.22,6.22,0,0,0,.78,3.24A2.78,2.78,0,0,0,327.38,140.12Z"/><path class="cls-3" d="M334.63,135.22a7,7,0,0,1,1.53-4.63,5.1,5.1,0,0,1,4.13-1.82,5.16,5.16,0,0,1,4.16,1.81,7,7,0,0,1,1.53,4.64v.26a6.92,6.92,0,0,1-1.53,4.64,5.1,5.1,0,0,1-4.13,1.81,5.16,5.16,0,0,1-4.16-1.81,6.94,6.94,0,0,1-1.53-4.64Zm2.31.26a6,6,0,0,0,.85,3.33,2.81,2.81,0,0,0,2.53,1.31,2.78,2.78,0,0,0,2.49-1.31,6,6,0,0,0,.86-3.33v-.26a6,6,0,0,0-.86-3.31,3,3,0,0,0-5,0,6.07,6.07,0,0,0-.84,3.31Z"/><path class="cls-3" d="M347.75,140.21l1.91-.33v-9.06l-1.91-.33V129h4l.16,1.89a4.68,4.68,0,0,1,1.59-1.57,4.24,4.24,0,0,1,2.17-.55,4.15,4.15,0,0,1,3.18,1.2,5.28,5.28,0,0,1,1.12,3.71v6.2l1.91.33v1.47h-6.12v-1.47l1.91-.33v-6.16a3.36,3.36,0,0,0-.67-2.37,2.64,2.64,0,0,0-2-.71,3.25,3.25,0,0,0-1.76.48,3.56,3.56,0,0,0-1.23,1.32v7.44l1.91.33v1.47h-6.12Z"/><path class="cls-3" d="M363.21,140.21l1.91-.33V125.22l-1.91-.33V123.4h4.22v7.29a4.74,4.74,0,0,1,1.61-1.42,4.47,4.47,0,0,1,2.11-.5,4.06,4.06,0,0,1,3.16,1.22,5.37,5.37,0,0,1,1.13,3.75v6.14l1.91.33v1.47h-6.13v-1.47l1.91-.33v-6.17a3.4,3.4,0,0,0-.68-2.32,2.57,2.57,0,0,0-2-.75,3.37,3.37,0,0,0-1.72.45,3.79,3.79,0,0,0-1.29,1.23v7.56l1.91.33v1.47h-6.13Z"/><path class="cls-3" d="M384.69,141.93a5.34,5.34,0,0,1-4.21-1.77,6.63,6.63,0,0,1-1.56-4.57v-.52a6.47,6.47,0,0,1,1.61-4.5,5,5,0,0,1,3.81-1.8,4.81,4.81,0,0,1,3.88,1.54,6.22,6.22,0,0,1,1.31,4.13v1.44h-8.22l0,.06a5,5,0,0,0,.93,3,2.94,2.94,0,0,0,2.49,1.17,5.86,5.86,0,0,0,2.06-.33,4.7,4.7,0,0,0,1.53-.92l.9,1.5a5.42,5.42,0,0,1-1.8,1.11A7.18,7.18,0,0,1,384.69,141.93Zm-.35-11.35a2.52,2.52,0,0,0-2,1,4.72,4.72,0,0,0-1,2.46l0,.06h5.85v-.31a3.57,3.57,0,0,0-.73-2.27A2.6,2.6,0,0,0,384.34,130.58Z"/><path class="cls-3" d="M397.5,140.12a3.06,3.06,0,0,0,2-.71,2.14,2.14,0,0,0,.88-1.74h2.07l0,.07a3.6,3.6,0,0,1-1.46,2.92,5.4,5.4,0,0,1-3.54,1.27,5.09,5.09,0,0,1-4.22-1.81,7,7,0,0,1-1.46-4.53v-.49a7,7,0,0,1,1.46-4.52,5.12,5.12,0,0,1,4.22-1.81,7.19,7.19,0,0,1,2.74.5,5.62,5.62,0,0,1,2,1.38l.1,2.82h-1.84l-.5-2a3,3,0,0,0-1.05-.64,4.18,4.18,0,0,0-1.46-.25,2.78,2.78,0,0,0-2.59,1.31,6.16,6.16,0,0,0-.78,3.21v.49a6.32,6.32,0,0,0,.77,3.24A2.79,2.79,0,0,0,397.5,140.12Z"/><path class="cls-3" d="M404.75,140.21l1.91-.33v-9.06l-1.91-.33V129H409v10.88l1.91.33v1.47h-6.12ZM409,125.76h-2.3V123.4H409Z"/><path class="cls-3" d="M412.17,140.21l1.91-.33v-9.06l-1.91-.33V129h4l.15,1.65a4.2,4.2,0,0,1,1.57-1.39,4.79,4.79,0,0,1,2.23-.49,3.91,3.91,0,0,1,2.17.58,3.57,3.57,0,0,1,1.37,1.76,4.65,4.65,0,0,1,1.58-1.71,4.18,4.18,0,0,1,2.3-.63,3.81,3.81,0,0,1,3.07,1.33,6.06,6.06,0,0,1,1.12,4v5.78l1.91.33v1.47h-6.14v-1.47l1.91-.33v-5.8a4.24,4.24,0,0,0-.64-2.66,2.34,2.34,0,0,0-1.91-.78,2.45,2.45,0,0,0-1.94.85,3.71,3.71,0,0,0-.85,2.14v6.25l1.91.33v1.47h-6.13v-1.47l1.91-.33v-5.8a4.17,4.17,0,0,0-.66-2.61,2.32,2.32,0,0,0-1.92-.83,3.15,3.15,0,0,0-1.73.44,2.82,2.82,0,0,0-1.05,1.21v7.59l1.91.33v1.47h-6.13Z"/><path class="cls-3" d="M441,141.93a5.32,5.32,0,0,1-4.21-1.77,6.59,6.59,0,0,1-1.57-4.57v-.52a6.52,6.52,0,0,1,1.61-4.5,5,5,0,0,1,3.82-1.8,4.81,4.81,0,0,1,3.87,1.54,6.17,6.17,0,0,1,1.32,4.13v1.44h-8.23l0,.06a5,5,0,0,0,.92,3,3,3,0,0,0,2.5,1.17,5.9,5.9,0,0,0,2.06-.33,4.7,4.7,0,0,0,1.53-.92l.9,1.5a5.52,5.52,0,0,1-1.8,1.11A7.21,7.21,0,0,1,441,141.93Zm-.35-11.35a2.49,2.49,0,0,0-2,1,4.56,4.56,0,0,0-1,2.46l0,.06h5.85v-.31a3.51,3.51,0,0,0-.73-2.27A2.58,2.58,0,0,0,440.63,130.58Z"/><path class="cls-3" d="M447.75,140.21l1.91-.33v-9.06l-1.91-.33V129h4l.16,1.89a4.68,4.68,0,0,1,1.59-1.57,4.22,4.22,0,0,1,2.17-.55,4.15,4.15,0,0,1,3.18,1.2,5.28,5.28,0,0,1,1.12,3.71v6.2l1.91.33v1.47h-6.13v-1.47l1.91-.33v-6.16a3.41,3.41,0,0,0-.66-2.37,2.64,2.64,0,0,0-2-.71,3.25,3.25,0,0,0-1.76.48,3.48,3.48,0,0,0-1.23,1.32v7.44l1.91.33v1.47h-6.13Z"/><path class="cls-3" d="M467.57,125.94V129H470v1.71h-2.4v7.7a1.73,1.73,0,0,0,.37,1.26,1.33,1.33,0,0,0,1,.36,5.89,5.89,0,0,0,.68-.05l.64-.11.32,1.58a3,3,0,0,1-1,.34,6.17,6.17,0,0,1-1.27.14,3,3,0,0,1-2.24-.85,3.73,3.73,0,0,1-.83-2.67v-7.7h-2V129h2v-3.06Z"/><path class="cls-3" d="M472.1,135.22a7,7,0,0,1,1.53-4.63,5.1,5.1,0,0,1,4.13-1.82,5.16,5.16,0,0,1,4.16,1.81,7,7,0,0,1,1.53,4.64v.26a6.92,6.92,0,0,1-1.53,4.64,5.1,5.1,0,0,1-4.13,1.81,5.16,5.16,0,0,1-4.16-1.81,6.94,6.94,0,0,1-1.53-4.64Zm2.31.26a6,6,0,0,0,.85,3.33,2.81,2.81,0,0,0,2.53,1.31,2.78,2.78,0,0,0,2.49-1.31,6,6,0,0,0,.86-3.33v-.26a6,6,0,0,0-.86-3.31,2.82,2.82,0,0,0-2.52-1.33,2.79,2.79,0,0,0-2.5,1.33,6,6,0,0,0-.85,3.31Z"/><path class="cls-3" d="M500.07,140.17a4,4,0,0,1-1.52,1.31,4.58,4.58,0,0,1-2.08.45,4.34,4.34,0,0,1-3.63-1.68,7,7,0,0,1-1.31-4.43v-.24a8.49,8.49,0,0,1,1.31-4.94,4.2,4.2,0,0,1,3.65-1.87,4.65,4.65,0,0,1,2,.41,4.23,4.23,0,0,1,1.47,1.2v-5.16l-1.91-.33V123.4h4.22v16.48l1.91.33v1.47h-3.92Zm-6.23-4.35a5.31,5.31,0,0,0,.79,3.07,2.7,2.7,0,0,0,2.42,1.16,3,3,0,0,0,1.74-.47,3.58,3.58,0,0,0,1.16-1.32v-5.88a3.65,3.65,0,0,0-1.16-1.27,3.09,3.09,0,0,0-1.71-.47,2.65,2.65,0,0,0-2.45,1.37,7.2,7.2,0,0,0-.79,3.57Z"/><path class="cls-3" d="M511.71,141.93a5.34,5.34,0,0,1-4.21-1.77,6.63,6.63,0,0,1-1.56-4.57v-.52a6.47,6.47,0,0,1,1.61-4.5,5,5,0,0,1,3.81-1.8,4.81,4.81,0,0,1,3.88,1.54,6.22,6.22,0,0,1,1.31,4.13v1.44h-8.22l0,.06a5,5,0,0,0,.93,3,2.94,2.94,0,0,0,2.49,1.17,5.86,5.86,0,0,0,2.06-.33,4.7,4.7,0,0,0,1.53-.92l.9,1.5a5.42,5.42,0,0,1-1.8,1.11A7.18,7.18,0,0,1,511.71,141.93Zm-.35-11.35a2.52,2.52,0,0,0-2,1,4.64,4.64,0,0,0-1,2.46l0,.06h5.85v-.31a3.57,3.57,0,0,0-.73-2.27A2.6,2.6,0,0,0,511.36,130.58Z"/><path class="cls-3" d="M532.42,124.62a6,6,0,0,1,4.25,1.41,5.28,5.28,0,0,1,0,7.41,6,6,0,0,1-4.25,1.4H528.8v5l1.91.33v1.47h-6.13v-1.47l1.91-.33V126.44l-1.91-.33v-1.49h7.84ZM528.8,133h3.62a3.38,3.38,0,0,0,2.6-.93,3.34,3.34,0,0,0,.86-2.35,3.44,3.44,0,0,0-.86-2.37,3.35,3.35,0,0,0-2.6-.94H528.8Z"/><path class="cls-3" d="M548.18,141.68c-.07-.34-.12-.65-.16-.92a7.84,7.84,0,0,1-.08-.82,5.76,5.76,0,0,1-1.67,1.42,4.26,4.26,0,0,1-2.14.57,4.21,4.21,0,0,1-3-1,3.53,3.53,0,0,1-1-2.72,3.17,3.17,0,0,1,1.46-2.79,7.16,7.16,0,0,1,4-1h2.37V133a2.31,2.31,0,0,0-.7-1.77,2.79,2.79,0,0,0-2-.65,4.71,4.71,0,0,0-1.52.23,2.88,2.88,0,0,0-1.08.61l-.24,1.33h-1.78v-2.46a6.8,6.8,0,0,1,2.09-1.11,8.51,8.51,0,0,1,2.68-.41,5.29,5.29,0,0,1,3.49,1.1,3.84,3.84,0,0,1,1.33,3.15v6.11c0,.16,0,.32,0,.48a3.83,3.83,0,0,0,0,.47l.94.13v1.47ZM544.47,140a4.12,4.12,0,0,0,2.1-.55,3.37,3.37,0,0,0,1.35-1.32V136h-2.46a3.49,3.49,0,0,0-2.24.66,2,2,0,0,0-.83,1.59,1.58,1.58,0,0,0,.52,1.27A2.31,2.31,0,0,0,544.47,140Z"/><path class="cls-3" d="M561.67,140.17a4,4,0,0,1-1.52,1.31,4.55,4.55,0,0,1-2.08.45,4.33,4.33,0,0,1-3.62-1.68,7,7,0,0,1-1.31-4.43v-.24a8.49,8.49,0,0,1,1.31-4.94,4.18,4.18,0,0,1,3.65-1.87,4.58,4.58,0,0,1,2,.41,4.06,4.06,0,0,1,1.47,1.2v-5.16l-1.91-.33V123.4h4.22v16.48l1.91.33v1.47h-3.91Zm-6.22-4.35a5.39,5.39,0,0,0,.78,3.07,2.73,2.73,0,0,0,2.43,1.16,3,3,0,0,0,1.73-.47,3.49,3.49,0,0,0,1.16-1.32v-5.88a3.47,3.47,0,0,0-1.16-1.27,3,3,0,0,0-1.71-.47,2.63,2.63,0,0,0-2.44,1.37,7.1,7.1,0,0,0-.79,3.57Z"/><path class="cls-3" d="M567.53,130.49V129h4l.23,1.84a4.31,4.31,0,0,1,1.33-1.52,3.05,3.05,0,0,1,1.81-.55,3.48,3.48,0,0,1,.55,0l.44.09-.3,2.14-1.31-.07a2.61,2.61,0,0,0-1.54.43,2.76,2.76,0,0,0-1,1.2v7.28l1.91.33v1.47h-6.13v-1.47l1.91-.33v-9.06Z"/><path class="cls-3" d="M577.23,135.22a7,7,0,0,1,1.53-4.63,5.1,5.1,0,0,1,4.13-1.82,5.16,5.16,0,0,1,4.16,1.81,7,7,0,0,1,1.53,4.64v.26a6.92,6.92,0,0,1-1.53,4.64,5.1,5.1,0,0,1-4.13,1.81,5.16,5.16,0,0,1-4.16-1.81,6.94,6.94,0,0,1-1.53-4.64Zm9.62-11.34a2.64,2.64,0,0,1-.69,1.86,2.28,2.28,0,0,1-1.75.77,3.4,3.4,0,0,1-1.74-.55,3.11,3.11,0,0,0-1.5-.54,1.07,1.07,0,0,0-.84.38,1.31,1.31,0,0,0-.34.92l-1.26-.31a2.81,2.81,0,0,1,.69-1.89,2.19,2.19,0,0,1,1.75-.8,3.5,3.5,0,0,1,1.64.55,3.64,3.64,0,0,0,1.6.55,1.11,1.11,0,0,0,.83-.38,1.36,1.36,0,0,0,.35-.93Zm-7.31,11.6a6,6,0,0,0,.85,3.33,2.81,2.81,0,0,0,2.53,1.31,2.78,2.78,0,0,0,2.49-1.31,6,6,0,0,0,.86-3.33v-.26a6,6,0,0,0-.86-3.31,2.82,2.82,0,0,0-2.52-1.33,2.78,2.78,0,0,0-2.5,1.33,6,6,0,0,0-.85,3.31Z"/><path class="cls-3" d="M596.48,141.93a5.36,5.36,0,0,1-4.22-1.77,6.63,6.63,0,0,1-1.56-4.57v-.52a6.52,6.52,0,0,1,1.61-4.5,5,5,0,0,1,3.81-1.8,4.81,4.81,0,0,1,3.88,1.54,6.17,6.17,0,0,1,1.32,4.13v1.44h-8.23l0,.06a5.11,5.11,0,0,0,.93,3,3,3,0,0,0,2.5,1.17,5.84,5.84,0,0,0,2-.33,4.7,4.7,0,0,0,1.53-.92l.9,1.5a5.47,5.47,0,0,1-1.79,1.11A7.25,7.25,0,0,1,596.48,141.93Zm-.36-11.35a2.52,2.52,0,0,0-2,1,4.63,4.63,0,0,0-1,2.46l0,.06H599v-.31a3.57,3.57,0,0,0-.73-2.27A2.58,2.58,0,0,0,596.12,130.58Z"/><path class="cls-3" d="M613.29,133h-1.73l-.38-1.53a3.16,3.16,0,0,0-1.06-.64,4.08,4.08,0,0,0-1.45-.24,2.64,2.64,0,0,0-1.82.54,1.7,1.7,0,0,0-.6,1.3,1.44,1.44,0,0,0,.53,1.19,5.47,5.47,0,0,0,2.14.77,9.28,9.28,0,0,1,3.58,1.4,2.82,2.82,0,0,1,1.17,2.37,3.27,3.27,0,0,1-1.37,2.73,5.69,5.69,0,0,1-3.57,1.05,9,9,0,0,1-2.59-.34,6.9,6.9,0,0,1-2-1v-2.9h1.74l.43,1.7a2.43,2.43,0,0,0,1.08.53,6,6,0,0,0,1.4.16,3.28,3.28,0,0,0,1.93-.49,1.54,1.54,0,0,0,.7-1.31,1.57,1.57,0,0,0-.58-1.26,5.58,5.58,0,0,0-2.2-.85,9.25,9.25,0,0,1-3.48-1.37,2.77,2.77,0,0,1-1.17-2.35,3.29,3.29,0,0,1,1.32-2.63,5.18,5.18,0,0,1,3.42-1.09,8.26,8.26,0,0,1,2.59.37,5.23,5.23,0,0,1,1.91,1.05Z"/><path class="cls-3" d="M618.47,140.84a5.83,5.83,0,0,1-.57,2.4,6.08,6.08,0,0,1-1.55,2.09l-1.3-.87a7.15,7.15,0,0,0,.83-1.72,6,6,0,0,0,.28-1.87v-1.78h2.31Z"/><path class="cls-3" d="M630.87,130.49l-1.52.23,2.61,7.22.21.92h.07l.22-.92,2.54-7.22-1.54-.23V129h4.9v1.49l-1,.18-4.26,11h-1.74l-4.31-11-1-.18V129h4.9Z"/><path class="cls-3" d="M648,141.68c-.07-.34-.12-.65-.16-.92a7.84,7.84,0,0,1-.08-.82,5.63,5.63,0,0,1-1.67,1.42A4.77,4.77,0,0,1,641,141a3.53,3.53,0,0,1-1-2.72,3.15,3.15,0,0,1,1.46-2.79,7.1,7.1,0,0,1,4-1h2.38V133a2.31,2.31,0,0,0-.71-1.77,2.78,2.78,0,0,0-1.95-.65,4.73,4.73,0,0,0-1.53.23,2.84,2.84,0,0,0-1.07.61l-.25,1.33h-1.78v-2.46a7,7,0,0,1,2.1-1.11,8.49,8.49,0,0,1,2.67-.41,5.29,5.29,0,0,1,3.49,1.1,3.84,3.84,0,0,1,1.34,3.15v6.59c0,.15,0,.31,0,.47l.94.13v1.47ZM644.3,140a4.09,4.09,0,0,0,2.1-.55,3.46,3.46,0,0,0,1.36-1.32V136H645.3a3.5,3.5,0,0,0-2.25.66,2,2,0,0,0-.82,1.59,1.57,1.57,0,0,0,.51,1.27A2.31,2.31,0,0,0,644.3,140Z"/><path class="cls-3" d="M652.5,140.21l1.91-.33v-9.06l-1.91-.33V129h4l.15,1.65a4.2,4.2,0,0,1,1.57-1.39,4.79,4.79,0,0,1,2.23-.49,3.93,3.93,0,0,1,2.17.58,3.57,3.57,0,0,1,1.37,1.76,4.57,4.57,0,0,1,1.58-1.71,4.14,4.14,0,0,1,2.29-.63,3.79,3.79,0,0,1,3.07,1.33,6.06,6.06,0,0,1,1.13,4v5.78l1.91.33v1.47h-6.14v-1.47l1.91-.33v-5.8a4.23,4.23,0,0,0-.65-2.66,2.31,2.31,0,0,0-1.91-.78,2.43,2.43,0,0,0-1.93.85,3.64,3.64,0,0,0-.85,2.14v6.25l1.91.33v1.47h-6.13v-1.47l1.91-.33v-5.8a4.17,4.17,0,0,0-.66-2.61,2.34,2.34,0,0,0-1.92-.83,3.21,3.21,0,0,0-1.74.44,2.8,2.8,0,0,0-1,1.21v7.59l1.91.33v1.47H652.5Z"/><path class="cls-3" d="M675.53,135.22a7,7,0,0,1,1.52-4.63,5.64,5.64,0,0,1,8.29,0,7,7,0,0,1,1.53,4.64v.26a6.92,6.92,0,0,1-1.52,4.64,5.12,5.12,0,0,1-4.14,1.81,5.19,5.19,0,0,1-4.16-1.81,7,7,0,0,1-1.52-4.64Zm2.31.26a6,6,0,0,0,.85,3.33,3.06,3.06,0,0,0,5,0,6,6,0,0,0,.86-3.33v-.26a6,6,0,0,0-.86-3.31,3,3,0,0,0-5,0,6.07,6.07,0,0,0-.84,3.31Z"/><path class="cls-3" d="M698.69,133H697l-.37-1.53a3.26,3.26,0,0,0-1.06-.64,4.12,4.12,0,0,0-1.45-.24,2.67,2.67,0,0,0-1.83.54,1.7,1.7,0,0,0-.6,1.3,1.47,1.47,0,0,0,.53,1.19,5.53,5.53,0,0,0,2.15.77,9.16,9.16,0,0,1,3.57,1.4,2.82,2.82,0,0,1,1.17,2.37,3.26,3.26,0,0,1-1.36,2.73,5.69,5.69,0,0,1-3.57,1.05,9,9,0,0,1-2.59-.34,6.79,6.79,0,0,1-2-1v-2.9h1.73l.43,1.7a2.47,2.47,0,0,0,1.09.53,5.89,5.89,0,0,0,1.4.16,3.3,3.3,0,0,0,1.93-.49,1.55,1.55,0,0,0,.69-1.31,1.57,1.57,0,0,0-.58-1.26,5.52,5.52,0,0,0-2.19-.85,9.25,9.25,0,0,1-3.48-1.37,2.76,2.76,0,0,1-1.18-2.35,3.29,3.29,0,0,1,1.32-2.63,5.19,5.19,0,0,1,3.43-1.09,8.35,8.35,0,0,1,2.59.37,5.4,5.4,0,0,1,1.91,1.05Z"/><path class="cls-3" d="M718.78,135.82a7,7,0,0,1-1.31,4.43,4.36,4.36,0,0,1-3.63,1.68,4.59,4.59,0,0,1-2.16-.48,4,4,0,0,1-1.52-1.4l-.21,1.63h-2V125.22l-1.91-.33V123.4h4.21v7.1a4.09,4.09,0,0,1,1.49-1.29,4.64,4.64,0,0,1,2.07-.44,4.2,4.2,0,0,1,3.65,1.87,8.42,8.42,0,0,1,1.31,4.94Zm-2.32-.24a7.1,7.1,0,0,0-.79-3.57,2.64,2.64,0,0,0-2.44-1.37,3,3,0,0,0-1.8.52,3.6,3.6,0,0,0-1.17,1.38v5.6a3.69,3.69,0,0,0,1.18,1.4,3.13,3.13,0,0,0,1.81.51,2.7,2.7,0,0,0,2.42-1.16,5.31,5.31,0,0,0,.79-3.07Z"/><path class="cls-3" d="M721.08,130.49V129h4l.23,1.84a4.41,4.41,0,0,1,1.33-1.52,3.05,3.05,0,0,1,1.81-.55,3.48,3.48,0,0,1,.55,0,3.27,3.27,0,0,1,.44.09l-.3,2.14L727.8,131a2.61,2.61,0,0,0-1.54.43,2.76,2.76,0,0,0-1,1.2v7.28l1.91.33v1.47h-6.13v-1.47l1.91-.33v-9.06Z"/><path class="cls-3" d="M731,140.21l1.91-.33v-9.06l-1.91-.33V129h4.22v10.88l1.91.33v1.47H731Zm4.22-14.45h-2.31V123.4h2.31Z"/><path class="cls-3" d="M738.55,140.21l1.91-.33v-9.06l-1.91-.33V129h4l.16,1.89a4.68,4.68,0,0,1,1.59-1.57,4.24,4.24,0,0,1,2.17-.55,4.15,4.15,0,0,1,3.18,1.2,5.28,5.28,0,0,1,1.12,3.71v6.2l1.91.33v1.47h-6.13v-1.47l1.91-.33v-6.16a3.41,3.41,0,0,0-.66-2.37,2.64,2.64,0,0,0-2-.71,3.25,3.25,0,0,0-1.76.48,3.56,3.56,0,0,0-1.23,1.32v7.44l1.91.33v1.47h-6.13Z"/><path class="cls-3" d="M759.92,140.12a3.08,3.08,0,0,0,2-.71,2.16,2.16,0,0,0,.87-1.74h2.08l0,.07a3.57,3.57,0,0,1-1.46,2.92,5.37,5.37,0,0,1-3.53,1.27,5.11,5.11,0,0,1-4.23-1.81,7,7,0,0,1-1.46-4.53v-.49a6.94,6.94,0,0,1,1.47-4.52,5.09,5.09,0,0,1,4.22-1.81,7.18,7.18,0,0,1,2.73.5,5.62,5.62,0,0,1,2,1.38l.11,2.82h-1.84l-.51-2a3,3,0,0,0-1-.64,4.12,4.12,0,0,0-1.45-.25,2.79,2.79,0,0,0-2.6,1.31,6.16,6.16,0,0,0-.78,3.21v.49a6.22,6.22,0,0,0,.78,3.24A2.78,2.78,0,0,0,759.92,140.12Z"/><path class="cls-3" d="M775.43,141.68c-.07-.34-.12-.65-.16-.92a7.84,7.84,0,0,1-.08-.82,5.76,5.76,0,0,1-1.67,1.42,4.26,4.26,0,0,1-2.14.57,4.21,4.21,0,0,1-3-1,3.53,3.53,0,0,1-1-2.72,3.17,3.17,0,0,1,1.46-2.79,7.16,7.16,0,0,1,4-1h2.37V133a2.31,2.31,0,0,0-.7-1.77,2.79,2.79,0,0,0-2-.65,4.71,4.71,0,0,0-1.52.23,2.88,2.88,0,0,0-1.08.61l-.24,1.33h-1.78v-2.46a6.8,6.8,0,0,1,2.09-1.11,8.51,8.51,0,0,1,2.68-.41,5.29,5.29,0,0,1,3.49,1.1,3.84,3.84,0,0,1,1.33,3.15v6.11c0,.16,0,.32,0,.48a3.83,3.83,0,0,0,0,.47l.94.13v1.47ZM771.72,140a4.12,4.12,0,0,0,2.1-.55,3.37,3.37,0,0,0,1.35-1.32V136h-2.46a3.49,3.49,0,0,0-2.24.66,2,2,0,0,0-.83,1.59,1.58,1.58,0,0,0,.52,1.27A2.31,2.31,0,0,0,771.72,140Z"/><path class="cls-3" d="M780.38,130.49V129h4l.22,1.84a4.51,4.51,0,0,1,1.33-1.52,3.07,3.07,0,0,1,1.81-.55,3.6,3.6,0,0,1,.56,0l.44.09-.3,2.14-1.32-.07a2.58,2.58,0,0,0-1.53.43,2.63,2.63,0,0,0-1,1.2v7.28l1.91.33v1.47h-6.13v-1.47l1.91-.33v-9.06Z"/><path class="cls-3" d="M802,140.12a3.1,3.1,0,0,0,2-.71,2.16,2.16,0,0,0,.87-1.74h2.07l0,.07a3.57,3.57,0,0,1-1.46,2.92,5.38,5.38,0,0,1-3.54,1.27,5.09,5.09,0,0,1-4.22-1.81,7,7,0,0,1-1.46-4.53v-.49a6.94,6.94,0,0,1,1.47-4.52,5.08,5.08,0,0,1,4.21-1.81,7.19,7.19,0,0,1,2.74.5,5.62,5.62,0,0,1,2,1.38l.11,2.82H805l-.51-2a3,3,0,0,0-1.05-.64,4.18,4.18,0,0,0-1.46-.25,2.78,2.78,0,0,0-2.59,1.31,6.16,6.16,0,0,0-.78,3.21v.49a6.32,6.32,0,0,0,.77,3.24A2.8,2.8,0,0,0,802,140.12Z"/><path class="cls-3" d="M809.22,135.22a7,7,0,0,1,1.52-4.63,5.64,5.64,0,0,1,8.29,0,7,7,0,0,1,1.53,4.64v.26a7,7,0,0,1-1.52,4.64,5.66,5.66,0,0,1-8.3,0,7,7,0,0,1-1.52-4.64Zm2.31.26a6,6,0,0,0,.85,3.33,3.06,3.06,0,0,0,5,0,6,6,0,0,0,.85-3.33v-.26a6,6,0,0,0-.85-3.31,3,3,0,0,0-5,0,6.07,6.07,0,0,0-.84,3.31Z"/><path class="cls-3" d="M822.21,140.21l1.91-.33v-9.06l-1.91-.33V129h4l.15,1.65a4.2,4.2,0,0,1,1.57-1.39,4.79,4.79,0,0,1,2.23-.49,3.91,3.91,0,0,1,2.17.58,3.57,3.57,0,0,1,1.37,1.76,4.57,4.57,0,0,1,1.58-1.71,4.15,4.15,0,0,1,2.3-.63,3.81,3.81,0,0,1,3.07,1.33,6.06,6.06,0,0,1,1.12,4v5.78l1.91.33v1.47h-6.14v-1.47l1.91-.33v-5.8a4.24,4.24,0,0,0-.64-2.66,2.34,2.34,0,0,0-1.91-.78,2.44,2.44,0,0,0-1.94.85,3.64,3.64,0,0,0-.85,2.14v6.25l1.91.33v1.47h-6.13v-1.47l1.91-.33v-5.8a4.17,4.17,0,0,0-.66-2.61,2.33,2.33,0,0,0-1.92-.83,3.15,3.15,0,0,0-1.73.44,2.76,2.76,0,0,0-1.05,1.21v7.59l1.91.33v1.47h-6.13Z"/><path class="cls-3" d="M241.81,168.61a4.11,4.11,0,0,1-3.72,2.12,4,4,0,0,1-3.22-1.33,6.14,6.14,0,0,1-1.16-4.12v-5.66l-1.45-.33V157.8H236v7.5a4.72,4.72,0,0,0,.6,2.79,2.2,2.2,0,0,0,1.86.76,3.7,3.7,0,0,0,2-.5,3.12,3.12,0,0,0,1.22-1.41v-7.32l-1.7-.33V157.8h4v10.88l1.46.32v1.48H242Z"/><path class="cls-3" d="M246.86,169l1.91-.32v-9.06l-1.91-.33V157.8h4l.16,1.65a4.05,4.05,0,0,1,1.57-1.39,4.78,4.78,0,0,1,2.22-.49,3.94,3.94,0,0,1,2.18.58,3.55,3.55,0,0,1,1.36,1.76,4.74,4.74,0,0,1,1.58-1.71,4.18,4.18,0,0,1,2.3-.63,3.79,3.79,0,0,1,3.07,1.33,6.06,6.06,0,0,1,1.13,4v5.78l1.91.32v1.48h-6.15V169l1.91-.32v-5.8a4.24,4.24,0,0,0-.64-2.66,2.34,2.34,0,0,0-1.91-.78,2.46,2.46,0,0,0-1.94.85,3.71,3.71,0,0,0-.85,2.14v6.25l1.91.32v1.48h-6.13V169l1.91-.32v-5.8a4.17,4.17,0,0,0-.66-2.61,2.32,2.32,0,0,0-1.92-.83,3.15,3.15,0,0,0-1.73.44,2.8,2.8,0,0,0-1,1.21v7.59L253,169v1.48h-6.13Z"/><path class="cls-3" d="M279.88,171.52a4.18,4.18,0,0,1-1,3,3.66,3.66,0,0,1-2.8,1.06,4.72,4.72,0,0,1-.68,0,5.83,5.83,0,0,1-.63-.16l.15-1.81a2.76,2.76,0,0,0,.48.09,4,4,0,0,0,.52.05,1.54,1.54,0,0,0,1.21-.52,2.52,2.52,0,0,0,.45-1.68v-11.9l-1.91-.33V157.8h4.22Zm-.07-17H277.5V152.2h2.31Z"/><path class="cls-3" d="M282.66,164a7,7,0,0,1,1.52-4.63,5.64,5.64,0,0,1,8.29,0A7,7,0,0,1,294,164v.26a6.92,6.92,0,0,1-1.52,4.64,5.66,5.66,0,0,1-8.3,0,7,7,0,0,1-1.52-4.64Zm2.31.26a6,6,0,0,0,.85,3.33,3.06,3.06,0,0,0,5,0,6,6,0,0,0,.85-3.33V164a6,6,0,0,0-.85-3.31,3,3,0,0,0-5,0A6.07,6.07,0,0,0,285,164Z"/><path class="cls-3" d="M296.12,164.38a8.35,8.35,0,0,1,1.34-4.94,4.28,4.28,0,0,1,3.69-1.87,4.4,4.4,0,0,1,2.1.47,4.08,4.08,0,0,1,1.51,1.36l.21-1.6h1.95v12.52a5.33,5.33,0,0,1-1.37,3.87,5.22,5.22,0,0,1-3.91,1.41,8.52,8.52,0,0,1-2-.25,8.19,8.19,0,0,1-1.87-.68l.6-1.8a6.27,6.27,0,0,0,1.52.56,7,7,0,0,0,1.71.23,2.78,2.78,0,0,0,2.27-.87,3.77,3.77,0,0,0,.72-2.47v-1.21a4.22,4.22,0,0,1-1.49,1.21,4.65,4.65,0,0,1-2,.41,4.41,4.41,0,0,1-3.67-1.69,6.91,6.91,0,0,1-1.34-4.42Zm2.31.24a5.24,5.24,0,0,0,.81,3.07,2.78,2.78,0,0,0,2.46,1.16,3.11,3.11,0,0,0,1.75-.47,3.73,3.73,0,0,0,1.16-1.34V161.2a3.6,3.6,0,0,0-1.16-1.28,3,3,0,0,0-1.72-.48,2.69,2.69,0,0,0-2.48,1.39,6.93,6.93,0,0,0-.82,3.55Z"/><path class="cls-3" d="M309.71,164a6.94,6.94,0,0,1,1.52-4.63,5.64,5.64,0,0,1,8.29,0,7,7,0,0,1,1.53,4.64v.26a7,7,0,0,1-1.52,4.64,5.66,5.66,0,0,1-8.3,0,6.93,6.93,0,0,1-1.52-4.64Zm2.3.26a6,6,0,0,0,.85,3.33,3.07,3.07,0,0,0,5,0,6,6,0,0,0,.85-3.33V164a6,6,0,0,0-.85-3.31,3,3,0,0,0-5,0A6.07,6.07,0,0,0,312,164Z"/><path class="cls-3" d="M334.91,170.73A5.34,5.34,0,0,1,330.7,169a6.63,6.63,0,0,1-1.56-4.57v-.52a6.47,6.47,0,0,1,1.61-4.5,5,5,0,0,1,3.81-1.8,4.79,4.79,0,0,1,3.87,1.54,6.17,6.17,0,0,1,1.32,4.13v1.44h-8.22l0,.06a5,5,0,0,0,.93,3,2.94,2.94,0,0,0,2.49,1.17,5.9,5.9,0,0,0,2.06-.33,4.7,4.7,0,0,0,1.53-.92l.9,1.5a5.42,5.42,0,0,1-1.8,1.11A7.18,7.18,0,0,1,334.91,170.73Zm-.35-11.35a2.52,2.52,0,0,0-2,1,4.64,4.64,0,0,0-1,2.46l0,.06h5.84v-.31a3.56,3.56,0,0,0-.72-2.27A2.61,2.61,0,0,0,334.56,159.38Z"/><path class="cls-3" d="M341.57,169l1.91-.32v-9.06l-1.91-.33V157.8h4l.16,1.65a4.12,4.12,0,0,1,1.57-1.39,4.78,4.78,0,0,1,2.22-.49,3.94,3.94,0,0,1,2.18.58,3.55,3.55,0,0,1,1.36,1.76,4.74,4.74,0,0,1,1.58-1.71,4.2,4.2,0,0,1,2.3-.63A3.79,3.79,0,0,1,360,158.9a6.06,6.06,0,0,1,1.13,4v5.78L363,169v1.48h-6.14V169l1.91-.32v-5.8a4.23,4.23,0,0,0-.65-2.66,2.34,2.34,0,0,0-1.91-.78,2.46,2.46,0,0,0-1.94.85,3.71,3.71,0,0,0-.85,2.14v6.25l1.91.32v1.48h-6.13V169l1.91-.32v-5.8a4.17,4.17,0,0,0-.66-2.61,2.31,2.31,0,0,0-1.91-.83,3.16,3.16,0,0,0-1.74.44,2.8,2.8,0,0,0-1,1.21v7.59l1.91.32v1.48h-6.13Z"/><path class="cls-3" d="M370.68,164.38a8.42,8.42,0,0,1,1.31-4.94,4.18,4.18,0,0,1,3.65-1.87,4.64,4.64,0,0,1,2,.41,4.1,4.1,0,0,1,1.47,1.22l.19-1.4h2v15.74l1.91.33v1.49h-6.13v-1.49l1.91-.33v-4.25a3.88,3.88,0,0,1-1.44,1.07,4.65,4.65,0,0,1-1.91.37,4.33,4.33,0,0,1-3.62-1.68,7,7,0,0,1-1.31-4.43Zm2.31.24a5.58,5.58,0,0,0,.78,3.11,2.7,2.7,0,0,0,2.43,1.19,3,3,0,0,0,1.63-.42,3.41,3.41,0,0,0,1.13-1.19v-6.37a3.59,3.59,0,0,0-1.13-1.13,2.94,2.94,0,0,0-1.61-.43,2.62,2.62,0,0,0-2.44,1.4,7.27,7.27,0,0,0-.79,3.6Z"/><path class="cls-3" d="M393.27,168.61a4.11,4.11,0,0,1-3.71,2.12,4.06,4.06,0,0,1-3.23-1.33,6.14,6.14,0,0,1-1.16-4.12v-5.66l-1.45-.33V157.8h3.76v7.5a4.72,4.72,0,0,0,.6,2.79,2.22,2.22,0,0,0,1.86.76,3.76,3.76,0,0,0,2-.5,3.1,3.1,0,0,0,1.21-1.41v-7.32l-1.7-.33V157.8h4v10.88L397,169v1.48h-3.53Z"/><path class="cls-3" d="M404.57,170.73a5.32,5.32,0,0,1-4.21-1.77,6.59,6.59,0,0,1-1.57-4.57v-.52a6.52,6.52,0,0,1,1.61-4.5,5,5,0,0,1,3.82-1.8,4.81,4.81,0,0,1,3.87,1.54,6.17,6.17,0,0,1,1.32,4.13v1.44h-8.23l0,.06a5,5,0,0,0,.92,3,3,3,0,0,0,2.5,1.17,5.9,5.9,0,0,0,2.06-.33,4.7,4.7,0,0,0,1.53-.92l.9,1.5a5.63,5.63,0,0,1-1.8,1.11A7.21,7.21,0,0,1,404.57,170.73Zm-.35-11.35a2.49,2.49,0,0,0-2,1,4.56,4.56,0,0,0-1,2.46l0,.06h5.85v-.31a3.51,3.51,0,0,0-.73-2.27A2.58,2.58,0,0,0,404.22,159.38Z"/><path class="cls-3" d="M417.66,164a7,7,0,0,1,1.52-4.63,5.64,5.64,0,0,1,8.29,0A7,7,0,0,1,429,164v.26a6.92,6.92,0,0,1-1.52,4.64,5.66,5.66,0,0,1-8.3,0,7,7,0,0,1-1.52-4.64Zm2.31.26a6,6,0,0,0,.85,3.33,3.06,3.06,0,0,0,5,0,6,6,0,0,0,.85-3.33V164a6,6,0,0,0-.85-3.31,3,3,0,0,0-5,0A6.07,6.07,0,0,0,420,164Z"/><path class="cls-3" d="M437.08,159.29V157.8h4l.22,1.84a4.51,4.51,0,0,1,1.33-1.52,3.07,3.07,0,0,1,1.81-.55,3.6,3.6,0,0,1,.56,0l.44.09-.31,2.14-1.31-.07a2.58,2.58,0,0,0-1.53.43,2.63,2.63,0,0,0-1,1.2v7.28l1.91.32v1.48h-6.13V169l1.91-.32v-9.06Z"/><path class="cls-3" d="M452.57,170.73a5.32,5.32,0,0,1-4.21-1.77,6.59,6.59,0,0,1-1.57-4.57v-.52a6.52,6.52,0,0,1,1.61-4.5,5,5,0,0,1,3.82-1.8,4.81,4.81,0,0,1,3.87,1.54,6.17,6.17,0,0,1,1.32,4.13v1.44h-8.23l0,.06a5,5,0,0,0,.92,3,3,3,0,0,0,2.5,1.17,5.9,5.9,0,0,0,2.06-.33,4.7,4.7,0,0,0,1.53-.92l.9,1.5a5.63,5.63,0,0,1-1.8,1.11A7.21,7.21,0,0,1,452.57,170.73Zm-.35-11.35a2.49,2.49,0,0,0-2,1,4.56,4.56,0,0,0-1,2.46l0,.06h5.85v-.31a3.51,3.51,0,0,0-.73-2.27A2.58,2.58,0,0,0,452.22,159.38Z"/><path class="cls-3" d="M465.38,168.92a3.08,3.08,0,0,0,2-.71,2.16,2.16,0,0,0,.87-1.74h2.08l0,.07a3.57,3.57,0,0,1-1.46,2.92,5.37,5.37,0,0,1-3.53,1.27,5.11,5.11,0,0,1-4.23-1.81,7,7,0,0,1-1.46-4.53v-.49a6.92,6.92,0,0,1,1.47-4.52,5.1,5.1,0,0,1,4.22-1.81,7.14,7.14,0,0,1,2.73.5,5.62,5.62,0,0,1,2,1.38l.11,2.82h-1.84l-.5-2a3.16,3.16,0,0,0-1.06-.64,4.12,4.12,0,0,0-1.45-.25,2.79,2.79,0,0,0-2.6,1.31,6.16,6.16,0,0,0-.78,3.21v.49a6.22,6.22,0,0,0,.78,3.24A2.78,2.78,0,0,0,465.38,168.92Z"/><path class="cls-3" d="M472.63,164a7,7,0,0,1,1.53-4.63,5.07,5.07,0,0,1,4.13-1.82,5.16,5.16,0,0,1,4.16,1.81A7,7,0,0,1,484,164v.26a6.92,6.92,0,0,1-1.53,4.64,5.1,5.1,0,0,1-4.13,1.81,5.16,5.16,0,0,1-4.16-1.81,6.94,6.94,0,0,1-1.53-4.64Zm2.31.26a6,6,0,0,0,.85,3.33,2.81,2.81,0,0,0,2.53,1.31,2.78,2.78,0,0,0,2.49-1.31,6,6,0,0,0,.86-3.33V164a6,6,0,0,0-.86-3.31,3,3,0,0,0-5,0,6.07,6.07,0,0,0-.84,3.31Z"/><path class="cls-3" d="M485.75,169l1.91-.32v-9.06l-1.91-.33V157.8h4l.16,1.89a4.68,4.68,0,0,1,1.59-1.57,4.24,4.24,0,0,1,2.17-.55,4.15,4.15,0,0,1,3.18,1.2,5.28,5.28,0,0,1,1.12,3.71v6.2l1.91.32v1.48h-6.12V169l1.91-.32v-6.16a3.36,3.36,0,0,0-.67-2.37,2.64,2.64,0,0,0-2-.71,3.25,3.25,0,0,0-1.76.48,3.56,3.56,0,0,0-1.23,1.32v7.44l1.91.32v1.48h-6.12Z"/><path class="cls-3" d="M501.21,169l1.91-.32V154l-1.91-.33V152.2h4.22v7.29a4.74,4.74,0,0,1,1.61-1.42,4.47,4.47,0,0,1,2.11-.5,4.06,4.06,0,0,1,3.16,1.22,5.37,5.37,0,0,1,1.13,3.75v6.14l1.91.32v1.48h-6.13V169l1.91-.32v-6.17a3.4,3.4,0,0,0-.68-2.32,2.57,2.57,0,0,0-2-.75,3.37,3.37,0,0,0-1.72.45,3.79,3.79,0,0,0-1.29,1.23v7.56l1.91.32v1.48h-6.13Z"/><path class="cls-3" d="M522.69,170.73a5.34,5.34,0,0,1-4.21-1.77,6.63,6.63,0,0,1-1.56-4.57v-.52a6.47,6.47,0,0,1,1.61-4.5,5,5,0,0,1,3.81-1.8,4.81,4.81,0,0,1,3.88,1.54,6.22,6.22,0,0,1,1.31,4.13v1.44h-8.22l0,.06a5,5,0,0,0,.93,3,2.94,2.94,0,0,0,2.49,1.17,5.86,5.86,0,0,0,2.06-.33,4.7,4.7,0,0,0,1.53-.92l.9,1.5a5.42,5.42,0,0,1-1.8,1.11A7.18,7.18,0,0,1,522.69,170.73Zm-.35-11.35a2.52,2.52,0,0,0-2,1,4.72,4.72,0,0,0-1,2.46l0,.06h5.85v-.31a3.57,3.57,0,0,0-.73-2.27A2.6,2.6,0,0,0,522.34,159.38Z"/><path class="cls-3" d="M535.5,168.92a3.06,3.06,0,0,0,2-.71,2.14,2.14,0,0,0,.88-1.74h2.07l0,.07a3.6,3.6,0,0,1-1.46,2.92,5.4,5.4,0,0,1-3.54,1.27,5.09,5.09,0,0,1-4.22-1.81,7,7,0,0,1-1.46-4.53v-.49a7,7,0,0,1,1.46-4.52,5.12,5.12,0,0,1,4.22-1.81,7.19,7.19,0,0,1,2.74.5,5.62,5.62,0,0,1,2,1.38l.1,2.82h-1.84l-.5-2a3,3,0,0,0-1-.64,4.18,4.18,0,0,0-1.46-.25,2.78,2.78,0,0,0-2.59,1.31,6.16,6.16,0,0,0-.78,3.21v.49a6.32,6.32,0,0,0,.77,3.24A2.79,2.79,0,0,0,535.5,168.92Z"/><path class="cls-3" d="M542.75,169l1.91-.32v-9.06l-1.91-.33V157.8H547v10.88l1.91.32v1.48h-6.12ZM547,154.56h-2.3V152.2H547Z"/><path class="cls-3" d="M550.17,169l1.91-.32v-9.06l-1.91-.33V157.8h4l.15,1.65a4.2,4.2,0,0,1,1.57-1.39,4.79,4.79,0,0,1,2.23-.49,3.91,3.91,0,0,1,2.17.58,3.57,3.57,0,0,1,1.37,1.76,4.65,4.65,0,0,1,1.58-1.71,4.18,4.18,0,0,1,2.3-.63,3.81,3.81,0,0,1,3.07,1.33,6.06,6.06,0,0,1,1.12,4v5.78l1.91.32v1.48h-6.14V169l1.91-.32v-5.8a4.24,4.24,0,0,0-.64-2.66,2.34,2.34,0,0,0-1.91-.78,2.45,2.45,0,0,0-1.94.85,3.71,3.71,0,0,0-.85,2.14v6.25L564,169v1.48h-6.13V169l1.91-.32v-5.8a4.17,4.17,0,0,0-.66-2.61,2.32,2.32,0,0,0-1.92-.83,3.15,3.15,0,0,0-1.73.44,2.82,2.82,0,0,0-1.05,1.21v7.59l1.91.32v1.48h-6.13Z"/><path class="cls-3" d="M579,170.73a5.32,5.32,0,0,1-4.21-1.77,6.59,6.59,0,0,1-1.57-4.57v-.52a6.52,6.52,0,0,1,1.61-4.5,5,5,0,0,1,3.82-1.8,4.81,4.81,0,0,1,3.87,1.54,6.17,6.17,0,0,1,1.32,4.13v1.44h-8.23l0,.06a5,5,0,0,0,.92,3,3,3,0,0,0,2.5,1.17,5.9,5.9,0,0,0,2.06-.33,4.7,4.7,0,0,0,1.53-.92l.9,1.5a5.52,5.52,0,0,1-1.8,1.11A7.21,7.21,0,0,1,579,170.73Zm-.35-11.35a2.49,2.49,0,0,0-2,1,4.56,4.56,0,0,0-1,2.46l0,.06h5.85v-.31a3.51,3.51,0,0,0-.73-2.27A2.58,2.58,0,0,0,578.63,159.38Z"/><path class="cls-3" d="M585.75,169l1.91-.32v-9.06l-1.91-.33V157.8h4l.16,1.89a4.68,4.68,0,0,1,1.59-1.57,4.22,4.22,0,0,1,2.17-.55,4.15,4.15,0,0,1,3.18,1.2,5.28,5.28,0,0,1,1.12,3.71v6.2l1.91.32v1.48h-6.13V169l1.91-.32v-6.16a3.41,3.41,0,0,0-.66-2.37,2.64,2.64,0,0,0-2-.71,3.25,3.25,0,0,0-1.76.48,3.48,3.48,0,0,0-1.23,1.32v7.44l1.91.32v1.48h-6.13Z"/><path class="cls-3" d="M605.57,154.74v3.06H608v1.71h-2.4v7.7a1.73,1.73,0,0,0,.37,1.26,1.33,1.33,0,0,0,1,.36,5.89,5.89,0,0,0,.68-.05l.64-.11.32,1.58a3,3,0,0,1-1,.34,6.17,6.17,0,0,1-1.27.14,3,3,0,0,1-2.24-.85,3.73,3.73,0,0,1-.83-2.67v-7.7h-2V157.8h2v-3.06Z"/><path class="cls-3" d="M610.1,164a7,7,0,0,1,1.53-4.63,5.07,5.07,0,0,1,4.13-1.82,5.16,5.16,0,0,1,4.16,1.81,7,7,0,0,1,1.53,4.64v.26a6.92,6.92,0,0,1-1.53,4.64,5.1,5.1,0,0,1-4.13,1.81,5.16,5.16,0,0,1-4.16-1.81,6.94,6.94,0,0,1-1.53-4.64Zm2.31.26a6,6,0,0,0,.85,3.33,2.81,2.81,0,0,0,2.53,1.31,2.78,2.78,0,0,0,2.49-1.31,6,6,0,0,0,.86-3.33V164a6,6,0,0,0-.86-3.31,2.82,2.82,0,0,0-2.52-1.33,2.79,2.79,0,0,0-2.5,1.33,6,6,0,0,0-.85,3.31Z"/><path class="cls-3" d="M638.07,169a4,4,0,0,1-1.52,1.31,4.58,4.58,0,0,1-2.08.45,4.34,4.34,0,0,1-3.63-1.68,7.05,7.05,0,0,1-1.31-4.43v-.24a8.49,8.49,0,0,1,1.31-4.94,4.2,4.2,0,0,1,3.65-1.87,4.65,4.65,0,0,1,2,.41,4.23,4.23,0,0,1,1.47,1.2V154l-1.91-.33V152.2h4.22v16.48l1.91.32v1.48h-3.92Zm-6.23-4.35a5.31,5.31,0,0,0,.79,3.07,2.7,2.7,0,0,0,2.42,1.16,3,3,0,0,0,1.74-.47,3.58,3.58,0,0,0,1.16-1.32v-5.88a3.65,3.65,0,0,0-1.16-1.27,3.09,3.09,0,0,0-1.71-.47,2.65,2.65,0,0,0-2.45,1.37,7.2,7.2,0,0,0-.79,3.57Z"/><path class="cls-3" d="M649.71,170.73A5.34,5.34,0,0,1,645.5,169a6.63,6.63,0,0,1-1.56-4.57v-.52a6.47,6.47,0,0,1,1.61-4.5,5,5,0,0,1,3.81-1.8,4.81,4.81,0,0,1,3.88,1.54,6.22,6.22,0,0,1,1.31,4.13v1.44h-8.22l0,.06a5,5,0,0,0,.93,3,2.94,2.94,0,0,0,2.49,1.17,5.86,5.86,0,0,0,2.06-.33,4.7,4.7,0,0,0,1.53-.92l.9,1.5a5.42,5.42,0,0,1-1.8,1.11A7.18,7.18,0,0,1,649.71,170.73Zm-.35-11.35a2.52,2.52,0,0,0-2,1,4.64,4.64,0,0,0-1,2.46l0,.06h5.85v-.31a3.57,3.57,0,0,0-.73-2.27A2.6,2.6,0,0,0,649.36,159.38Z"/><path class="cls-3" d="M662.51,173.87l1.91-.33V159.62l-1.91-.33V157.8h3.89l.21,1.55a4.35,4.35,0,0,1,1.54-1.33,4.71,4.71,0,0,1,2.11-.45,4.2,4.2,0,0,1,3.66,1.87,8.45,8.45,0,0,1,1.31,4.94v.24a7,7,0,0,1-1.32,4.43,4.33,4.33,0,0,1-3.62,1.68,4.87,4.87,0,0,1-2-.4,4,4,0,0,1-1.51-1.16v4.37l1.91.33v1.49h-6.13Zm10.4-9.49a6.73,6.73,0,0,0-.85-3.55,2.74,2.74,0,0,0-2.51-1.39,3,3,0,0,0-1.68.45,3.27,3.27,0,0,0-1.14,1.22v6.17a3.25,3.25,0,0,0,1.13,1.22,3.3,3.3,0,0,0,1.72.42,2.85,2.85,0,0,0,2.48-1.19,5.3,5.3,0,0,0,.85-3.11Z"/><path class="cls-3" d="M685.6,170.48c-.07-.34-.13-.65-.17-.92s-.06-.55-.08-.82a5.51,5.51,0,0,1-1.67,1.42,4.77,4.77,0,0,1-5.15-.4,3.53,3.53,0,0,1-1-2.72,3.17,3.17,0,0,1,1.46-2.79,7.1,7.1,0,0,1,4-1h2.38V161.8a2.34,2.34,0,0,0-.7-1.77,2.81,2.81,0,0,0-2-.65,4.73,4.73,0,0,0-1.53.23,2.71,2.71,0,0,0-1.07.61l-.25,1.33h-1.78v-2.46a7,7,0,0,1,2.1-1.11,8.49,8.49,0,0,1,2.67-.41,5.27,5.27,0,0,1,3.49,1.1,3.84,3.84,0,0,1,1.34,3.15v6.59l0,.47.94.12v1.48Zm-3.72-1.69a4.07,4.07,0,0,0,2.1-.55,3.4,3.4,0,0,0,1.36-1.32v-2.09h-2.46a3.5,3.5,0,0,0-2.25.66,2,2,0,0,0-.82,1.59,1.57,1.57,0,0,0,.51,1.27A2.34,2.34,0,0,0,681.88,168.79Z"/><path class="cls-3" d="M699.08,169a3.94,3.94,0,0,1-1.51,1.31,4.58,4.58,0,0,1-2.08.45,4.34,4.34,0,0,1-3.63-1.68,7.05,7.05,0,0,1-1.31-4.43v-.24a8.49,8.49,0,0,1,1.31-4.94,4.2,4.2,0,0,1,3.65-1.87,4.65,4.65,0,0,1,2,.41,4.23,4.23,0,0,1,1.47,1.2V154l-1.91-.33V152.2h4.22v16.48l1.91.32v1.48h-3.92Zm-6.22-4.35a5.31,5.31,0,0,0,.79,3.07,2.7,2.7,0,0,0,2.42,1.16,3,3,0,0,0,1.74-.47,3.58,3.58,0,0,0,1.16-1.32v-5.88a3.65,3.65,0,0,0-1.16-1.27,3.09,3.09,0,0,0-1.71-.47,2.65,2.65,0,0,0-2.45,1.37,7.2,7.2,0,0,0-.79,3.57Z"/><path class="cls-3" d="M704.94,159.29V157.8h4l.22,1.84a4.41,4.41,0,0,1,1.33-1.52,3.07,3.07,0,0,1,1.81-.55,3.6,3.6,0,0,1,.56,0l.44.09-.31,2.14-1.31-.07a2.64,2.64,0,0,0-1.54.43,2.76,2.76,0,0,0-1,1.2v7.28l1.91.32v1.48h-6.13V169l1.91-.32v-9.06Z"/><path class="cls-3" d="M714.65,164a7,7,0,0,1,1.52-4.63,5.64,5.64,0,0,1,8.29,0A7,7,0,0,1,726,164v.26a7,7,0,0,1-1.52,4.64,5.66,5.66,0,0,1-8.3,0,7,7,0,0,1-1.52-4.64Zm9.62-11.34a2.61,2.61,0,0,1-.7,1.86,2.27,2.27,0,0,1-1.75.77,3.43,3.43,0,0,1-1.74-.55,3.11,3.11,0,0,0-1.5-.54,1.07,1.07,0,0,0-.83.38,1.32,1.32,0,0,0-.35.92l-1.25-.31a2.85,2.85,0,0,1,.68-1.89,2.19,2.19,0,0,1,1.75-.8,3.57,3.57,0,0,1,1.65.55,3.57,3.57,0,0,0,1.59.55,1.1,1.1,0,0,0,.83-.38,1.32,1.32,0,0,0,.35-.93ZM717,164.28a6,6,0,0,0,.85,3.33,3.06,3.06,0,0,0,5,0,6,6,0,0,0,.85-3.33V164a6,6,0,0,0-.85-3.31,3,3,0,0,0-5,0A6.07,6.07,0,0,0,717,164Z"/><path class="cls-3" d="M733.89,170.73a5.32,5.32,0,0,1-4.21-1.77,6.59,6.59,0,0,1-1.57-4.57v-.52a6.52,6.52,0,0,1,1.61-4.5,5,5,0,0,1,3.82-1.8,4.81,4.81,0,0,1,3.87,1.54,6.17,6.17,0,0,1,1.32,4.13v1.44H730.5l0,.06a5,5,0,0,0,.92,3,3,3,0,0,0,2.5,1.17,5.9,5.9,0,0,0,2.06-.33,4.7,4.7,0,0,0,1.53-.92l.9,1.5a5.52,5.52,0,0,1-1.8,1.11A7.21,7.21,0,0,1,733.89,170.73Zm-.35-11.35a2.49,2.49,0,0,0-2,1,4.56,4.56,0,0,0-1,2.46l0,.06h5.85v-.31a3.51,3.51,0,0,0-.73-2.27A2.58,2.58,0,0,0,733.54,159.38Z"/><path class="cls-3" d="M750.71,161.79H749l-.37-1.53a3.26,3.26,0,0,0-1.06-.64,4.12,4.12,0,0,0-1.45-.24,2.67,2.67,0,0,0-1.83.54,1.7,1.7,0,0,0-.6,1.3,1.47,1.47,0,0,0,.53,1.19,5.54,5.54,0,0,0,2.14.77,9.15,9.15,0,0,1,3.58,1.4,2.82,2.82,0,0,1,1.17,2.37,3.26,3.26,0,0,1-1.36,2.73,5.69,5.69,0,0,1-3.57,1,9,9,0,0,1-2.59-.34,6.79,6.79,0,0,1-2-1v-2.9h1.73l.43,1.7a2.47,2.47,0,0,0,1.09.53,5.89,5.89,0,0,0,1.4.16,3.23,3.23,0,0,0,1.93-.5,1.52,1.52,0,0,0,.69-1.3,1.57,1.57,0,0,0-.58-1.26A5.52,5.52,0,0,0,746,165a9.37,9.37,0,0,1-3.49-1.37,2.77,2.77,0,0,1-1.17-2.35,3.29,3.29,0,0,1,1.32-2.63,5.19,5.19,0,0,1,3.43-1.09,8.35,8.35,0,0,1,2.59.37,5.4,5.4,0,0,1,1.91,1.05Z"/><path class="cls-3" d="M758.92,173.87l1.91-.33V159.62l-1.91-.33V157.8h3.89l.21,1.55a4.35,4.35,0,0,1,1.54-1.33,4.71,4.71,0,0,1,2.11-.45,4.2,4.2,0,0,1,3.66,1.87,8.45,8.45,0,0,1,1.31,4.94v.24a7,7,0,0,1-1.32,4.43,4.33,4.33,0,0,1-3.62,1.68,4.87,4.87,0,0,1-2.05-.4,4,4,0,0,1-1.51-1.16v4.37l1.91.33v1.49h-6.13Zm10.4-9.49a6.73,6.73,0,0,0-.85-3.55,2.74,2.74,0,0,0-2.51-1.39,3.06,3.06,0,0,0-1.68.45,3.27,3.27,0,0,0-1.14,1.22v6.17a3.25,3.25,0,0,0,1.13,1.22,3.3,3.3,0,0,0,1.72.42,2.85,2.85,0,0,0,2.48-1.19,5.3,5.3,0,0,0,.85-3.11Z"/><path class="cls-3" d="M773.75,164a6.94,6.94,0,0,1,1.52-4.63,5.08,5.08,0,0,1,4.14-1.82,5.14,5.14,0,0,1,4.15,1.81,7,7,0,0,1,1.53,4.64v.26a7,7,0,0,1-1.52,4.64,5.66,5.66,0,0,1-8.3,0,6.93,6.93,0,0,1-1.52-4.64Zm2.3.26a6,6,0,0,0,.85,3.33,2.81,2.81,0,0,0,2.53,1.31,2.78,2.78,0,0,0,2.49-1.31,5.89,5.89,0,0,0,.86-3.33V164a5.91,5.91,0,0,0-.86-3.31,3,3,0,0,0-5,0,6,6,0,0,0-.85,3.31Z"/><path class="cls-3" d="M795.74,169a4,4,0,0,1-1.52,1.31,4.55,4.55,0,0,1-2.08.45,4.33,4.33,0,0,1-3.62-1.68,7.05,7.05,0,0,1-1.31-4.43v-.24a8.49,8.49,0,0,1,1.31-4.94,4.18,4.18,0,0,1,3.65-1.87,4.58,4.58,0,0,1,2,.41,4.06,4.06,0,0,1,1.47,1.2V154l-1.91-.33V152.2h4.22v16.48l1.91.32v1.48h-3.91Zm-6.22-4.35a5.39,5.39,0,0,0,.78,3.07,2.73,2.73,0,0,0,2.43,1.16,3,3,0,0,0,1.73-.47,3.49,3.49,0,0,0,1.16-1.32v-5.88a3.47,3.47,0,0,0-1.16-1.27,3,3,0,0,0-1.71-.47,2.63,2.63,0,0,0-2.44,1.37,7.1,7.1,0,0,0-.79,3.57Z"/><path class="cls-3" d="M807.39,170.73a5.32,5.32,0,0,1-4.21-1.77,6.59,6.59,0,0,1-1.57-4.57v-.52a6.52,6.52,0,0,1,1.61-4.5,5,5,0,0,1,3.82-1.8,4.81,4.81,0,0,1,3.87,1.54,6.17,6.17,0,0,1,1.32,4.13v1.44H804l0,.06a5,5,0,0,0,.92,3,3,3,0,0,0,2.5,1.17,5.9,5.9,0,0,0,2.06-.33,4.7,4.7,0,0,0,1.53-.92l.9,1.5a5.52,5.52,0,0,1-1.8,1.11A7.21,7.21,0,0,1,807.39,170.73ZM807,159.38a2.49,2.49,0,0,0-2,1,4.56,4.56,0,0,0-1,2.46l0,.06h5.85v-.31a3.51,3.51,0,0,0-.73-2.27A2.58,2.58,0,0,0,807,159.38Z"/><path class="cls-3" d="M830.17,161.79h-1.73l-.38-1.53a3.16,3.16,0,0,0-1.06-.64,4.08,4.08,0,0,0-1.45-.24,2.62,2.62,0,0,0-1.82.54,1.7,1.7,0,0,0-.6,1.3,1.44,1.44,0,0,0,.53,1.19,5.47,5.47,0,0,0,2.14.77,9.16,9.16,0,0,1,3.57,1.4,2.8,2.8,0,0,1,1.18,2.37,3.27,3.27,0,0,1-1.37,2.73,5.69,5.69,0,0,1-3.57,1,9,9,0,0,1-2.59-.34,6.9,6.9,0,0,1-2-1v-2.9h1.73l.44,1.7a2.38,2.38,0,0,0,1.08.53,6,6,0,0,0,1.4.16,3.21,3.21,0,0,0,1.93-.5,1.53,1.53,0,0,0,.7-1.3,1.6,1.6,0,0,0-.58-1.26,5.58,5.58,0,0,0-2.2-.85,9.25,9.25,0,0,1-3.48-1.37,2.77,2.77,0,0,1-1.17-2.35,3.29,3.29,0,0,1,1.32-2.63,5.16,5.16,0,0,1,3.42-1.09,8.31,8.31,0,0,1,2.59.37,5.23,5.23,0,0,1,1.91,1.05Z"/><path class="cls-3" d="M838.49,170.73a5.34,5.34,0,0,1-4.21-1.77,6.64,6.64,0,0,1-1.57-4.57v-.52a6.48,6.48,0,0,1,1.62-4.5,5,5,0,0,1,3.81-1.8,4.81,4.81,0,0,1,3.87,1.54,6.17,6.17,0,0,1,1.32,4.13v1.44H835.1l0,.06a5,5,0,0,0,.93,3,2.94,2.94,0,0,0,2.49,1.17,5.9,5.9,0,0,0,2.06-.33,4.7,4.7,0,0,0,1.53-.92l.9,1.5a5.42,5.42,0,0,1-1.8,1.11A7.21,7.21,0,0,1,838.49,170.73Zm-.35-11.35a2.52,2.52,0,0,0-2,1,4.64,4.64,0,0,0-1,2.46l0,.06H841v-.31a3.56,3.56,0,0,0-.72-2.27A2.61,2.61,0,0,0,838.14,159.38Z"/><path class="cls-3" d="M845.6,159.29V157.8h4l.22,1.84a4.41,4.41,0,0,1,1.33-1.52,3.07,3.07,0,0,1,1.81-.55,3.6,3.6,0,0,1,.56,0l.44.09-.31,2.14-1.31-.07a2.64,2.64,0,0,0-1.54.43,2.76,2.76,0,0,0-1,1.2v7.28l1.91.32v1.48H845.6V169l1.91-.32v-9.06Z"/><path class="cls-3" d="M241.28,197.77a4,4,0,0,1-1.52,1.31,4.55,4.55,0,0,1-2.08.45,4.33,4.33,0,0,1-3.62-1.68,7,7,0,0,1-1.31-4.43v-.24a8.42,8.42,0,0,1,1.31-4.94,4.18,4.18,0,0,1,3.65-1.87,4.58,4.58,0,0,1,2,.41,4,4,0,0,1,1.47,1.21v-5.17l-1.91-.33V181h4.22v16.48l1.91.33v1.47h-3.91Zm-6.22-4.35a5.39,5.39,0,0,0,.78,3.07,2.72,2.72,0,0,0,2.43,1.16,3,3,0,0,0,1.73-.47,3.49,3.49,0,0,0,1.16-1.32V190a3.47,3.47,0,0,0-1.16-1.27,3,3,0,0,0-1.71-.47,2.63,2.63,0,0,0-2.44,1.37,7.1,7.1,0,0,0-.79,3.57Z"/><path class="cls-3" d="M247.14,197.81l1.91-.33v-9.06l-1.91-.33V186.6h4.22v10.88l1.91.33v1.47h-6.13Zm4.22-14.45h-2.31V181h2.31Z"/><path class="cls-3" d="M259.37,188.09l-1.52.24,2.61,7.21.21.92h.08l.22-.92,2.53-7.21-1.54-.24V186.6h4.9v1.49l-1,.18-4.25,11h-1.75l-4.3-11-1-.18V186.6h4.89Z"/><path class="cls-3" d="M274.06,199.53a5.36,5.36,0,0,1-4.22-1.77,6.63,6.63,0,0,1-1.56-4.57v-.52a6.52,6.52,0,0,1,1.61-4.5,5,5,0,0,1,3.82-1.8,4.78,4.78,0,0,1,3.87,1.55A6.12,6.12,0,0,1,278.9,192v1.44h-8.23l0,.06a5,5,0,0,0,.92,3,3,3,0,0,0,2.5,1.17,5.84,5.84,0,0,0,2.05-.33,4.7,4.7,0,0,0,1.53-.92l.91,1.5a5.63,5.63,0,0,1-1.8,1.11A7.25,7.25,0,0,1,274.06,199.53Zm-.35-11.35a2.49,2.49,0,0,0-2,1,4.6,4.6,0,0,0-1,2.46l0,.06h5.85v-.31a3.51,3.51,0,0,0-.73-2.27A2.58,2.58,0,0,0,273.71,188.18Z"/><path class="cls-3" d="M281.17,188.09V186.6h4l.23,1.84a4.41,4.41,0,0,1,1.33-1.52,3.05,3.05,0,0,1,1.81-.55,3.48,3.48,0,0,1,.55,0l.44.09-.3,2.14-1.31-.07a2.61,2.61,0,0,0-1.54.43,2.76,2.76,0,0,0-1,1.2v7.28l1.91.33v1.47h-6.13v-1.47l1.91-.33v-9.06Z"/><path class="cls-3" d="M295.5,183.54v3.06h2.41v1.71H295.5V196a1.77,1.77,0,0,0,.37,1.26,1.35,1.35,0,0,0,1,.36,6.21,6.21,0,0,0,.69,0l.63-.11.32,1.58a3,3,0,0,1-1,.34,6,6,0,0,1-1.27.14,3,3,0,0,1-2.23-.85,3.69,3.69,0,0,1-.84-2.67v-7.7h-2V186.6h2v-3.06Z"/><path class="cls-3" d="M300.26,197.81l1.91-.33v-9.06l-1.91-.33V186.6h4.22v10.88l1.91.33v1.47h-6.13Zm4.22-14.45h-2.31V181h2.31Z"/><path class="cls-3" d="M316.69,197.77a4,4,0,0,1-1.52,1.31,4.55,4.55,0,0,1-2.08.45,4.33,4.33,0,0,1-3.62-1.68,7,7,0,0,1-1.31-4.43v-.24a8.42,8.42,0,0,1,1.31-4.94,4.18,4.18,0,0,1,3.65-1.87,4.58,4.58,0,0,1,2,.41,4,4,0,0,1,1.47,1.21v-5.17l-1.91-.33V181h4.22v16.48l1.91.33v1.47h-3.91Zm-6.22-4.35a5.39,5.39,0,0,0,.78,3.07,2.72,2.72,0,0,0,2.43,1.16,3,3,0,0,0,1.73-.47,3.49,3.49,0,0,0,1.16-1.32V190a3.47,3.47,0,0,0-1.16-1.27,3,3,0,0,0-1.71-.47,2.63,2.63,0,0,0-2.44,1.37,7.1,7.1,0,0,0-.79,3.57Z"/><path class="cls-3" d="M322.56,192.83a7,7,0,0,1,1.52-4.64,5.65,5.65,0,0,1,8.3,0,7,7,0,0,1,1.53,4.65v.25a6.92,6.92,0,0,1-1.53,4.64,5.1,5.1,0,0,1-4.13,1.81,5.19,5.19,0,0,1-4.17-1.81,7,7,0,0,1-1.52-4.64Zm2.31.25a6,6,0,0,0,.85,3.33,2.81,2.81,0,0,0,2.53,1.31,2.78,2.78,0,0,0,2.49-1.31,6,6,0,0,0,.86-3.33v-.25a6,6,0,0,0-.86-3.32,3,3,0,0,0-5,0,6.08,6.08,0,0,0-.84,3.32Z"/><path class="cls-3" d="M339,199.28h-2.31v-2.36H339Z"/><circle class="cls-3" cx="106" cy="145.02" r="103"/><path class="cls-2" d="M106,45A100,100,0,1,1,6,145,100,100,0,0,1,106,45m0-6A106,106,0,1,0,212,145,106.12,106.12,0,0,0,106,39Z"/><path class="cls-4" d="M105.74,45.2a99.74,99.74,0,1,0,99.74,99.74A99.73,99.73,0,0,0,105.74,45.2Zm0,192.82a93.09,93.09,0,1,1,93.09-93.08A93.08,93.08,0,0,1,105.74,238Z"/><path class="cls-4" d="M152.81,72.49A3.32,3.32,0,0,0,150.3,72a3.38,3.38,0,0,0-2.1,1.44l-5.43,8.37a3.32,3.32,0,0,0,1,4.65,42.72,42.72,0,0,1,3.73,2.66c.75.57,1.5,1.14,2.08,1.55,1,.85,2,1.75,3,2.65l-2.3,2.3a66.67,66.67,0,0,0-14.57-10l6.8-15.24a3.32,3.32,0,0,0-1.69-4.4,86.89,86.89,0,0,0-30.63-7.29,3.3,3.3,0,0,0-3.49,3.14l-.52,10a3.33,3.33,0,0,0,3.14,3.49l3.5.17,3.73.57,1.44.22c.72.11,1.44.21,2.07.35l.45.12L119.7,80a67.61,67.61,0,0,0-17.61-1.42l-1.72-16.64a3.31,3.31,0,0,0-3.66-3,85.73,85.73,0,0,0-30.2,9,3.32,3.32,0,0,0-1.45,4.47l4.54,8.88A3.32,3.32,0,0,0,74,82.83c.67-.31,1.33-.63,2-1a34.31,34.31,0,0,1,4.75-2l.85-.32c1-.37,2-.73,2.93-1.05l.86,3.22c-.82.27-1.61.57-2.4.86l-.79.3a32.12,32.12,0,0,0-4.72,2c-.57.28-1.14.57-2,1L69.8,89.06l-.38.21L59.61,75.8a3.35,3.35,0,0,0-2.17-1.33,3.3,3.3,0,0,0-2.47.6,86.67,86.67,0,0,0-21.69,22.8,3.33,3.33,0,0,0,1,4.6l8.36,5.44a3.31,3.31,0,0,0,2.55.45,3.27,3.27,0,0,0,2.1-1.51q1.23-1.92,2.65-3.72c.58-.75,1.15-1.51,1.56-2.09.85-1,1.75-2,2.65-3l2.3,2.3a66.28,66.28,0,0,0-10,14.57L31.2,108.1a3.34,3.34,0,0,0-4.4,1.69,86.94,86.94,0,0,0-7.29,30.64,3.34,3.34,0,0,0,3.15,3.49l10,.51a3.3,3.3,0,0,0,3.49-3.14l.18-3.5.56-3.73c.09-.47.16-1,.22-1.44.11-.72.21-1.44.35-2.06l.12-.46,3.25.87a67.61,67.61,0,0,0-1.42,17.61l-16.64,1.73a3.33,3.33,0,0,0-3,3.65,86.8,86.8,0,0,0,9,30.21,3.34,3.34,0,0,0,1.94,1.65,3.28,3.28,0,0,0,2.53-.21l8.88-4.53a3.32,3.32,0,0,0,1.51-4.36c-.31-.66-.63-1.31-1-2a34.73,34.73,0,0,1-2-4.78l-.33-.88c-.37-1-.72-1.95-1-2.91l3.26-.87a65.78,65.78,0,0,0,7.59,15.92L36.6,191.06a3.32,3.32,0,0,0-.73,4.65,86.47,86.47,0,0,0,22.8,21.68,3.32,3.32,0,0,0,4.6-1l5.44-8.36a3.32,3.32,0,0,0-1.06-4.66c-1.28-.82-2.53-1.7-3.73-2.65-.74-.58-1.49-1.15-2.08-1.56-1-.85-2-1.74-3-2.65l2.35-2.35c.89.81,1.81,1.63,2.92,2.54.64.46,1.27.94,1.9,1.43a39.8,39.8,0,0,0,3.71,2.6l5.93,3.41.08,0-6.81,15.27a3.29,3.29,0,0,0-.07,2.54,3.34,3.34,0,0,0,1.75,1.85,87,87,0,0,0,30.64,7.29h.17a3.33,3.33,0,0,0,3.32-3.15l.51-10a3.32,3.32,0,0,0-3.14-3.5l-3.49-.17-3.73-.57-1.44-.22c-.72-.1-1.44-.21-2.07-.35l-.46-.12.88-3.25a67.57,67.57,0,0,0,17.6,1.42l1.73,16.64a3.31,3.31,0,0,0,3.65,3,85.57,85.57,0,0,0,30.21-9,3.32,3.32,0,0,0,1.45-4.47l-4.54-8.88a3.32,3.32,0,0,0-4.35-1.51c-.67.31-1.33.64-2,1a34.31,34.31,0,0,1-4.75,2l-.85.32c-1,.37-2,.73-2.93,1l-.88-3.26A65.23,65.23,0,0,0,142,200.56l9.83,13.51a3.32,3.32,0,0,0,4.64.73A86.32,86.32,0,0,0,178.19,192a3.32,3.32,0,0,0-1-4.6L168.86,182a3.32,3.32,0,0,0-2.55-.45,3.28,3.28,0,0,0-2.1,1.51,42.46,42.46,0,0,1-2.65,3.72c-.58.75-1.15,1.51-1.56,2.09-.85,1-1.75,2-2.66,3l-2.29-2.3A66.28,66.28,0,0,0,165,175l15.25,6.8a3.33,3.33,0,0,0,4.39-1.69,87,87,0,0,0,7.3-30.64,3.32,3.32,0,0,0-3.15-3.48l-10-.52a3.35,3.35,0,0,0-3.49,3.14l-.18,3.5-.57,3.73c-.08.48-.15,1-.22,1.44-.1.72-.2,1.44-.35,2.06l-.11.46-3.21-.86,0-.08a23.08,23.08,0,0,0,.41-2.35c.05-.37.1-.74.17-1.15l.51-3.27c0-.11,0-.22,0-.34l.17-3.48V141.3l16.7-1.73a3.33,3.33,0,0,0,3-3.66,86.8,86.8,0,0,0-9-30.21,3.32,3.32,0,0,0-4.47-1.44l-8.88,4.53a3.33,3.33,0,0,0-1.51,4.36c.31.66.63,1.31.95,2a34.73,34.73,0,0,1,2.05,4.78l.33.88c.37,1,.73,2,1,2.91l-3.25.87a66.08,66.08,0,0,0-7.59-15.91l13.5-9.83a3.31,3.31,0,0,0,1.33-2.17,3.37,3.37,0,0,0-.59-2.48A86.59,86.59,0,0,0,152.81,72.49Zm2,32.68a3.31,3.31,0,0,0-.73,4.64,59.27,59.27,0,0,1,9.37,19.65,3.34,3.34,0,0,0,4.07,2.35l9.64-2.58a3.31,3.31,0,0,0,2.39-3.9,48.49,48.49,0,0,0-2.17-6.87l-.26-.72a35.41,35.41,0,0,0-1.87-4.51l3-1.51a80.26,80.26,0,0,1,6.44,21.58L168.21,135a3.34,3.34,0,0,0-3,3.48l.17,3.23v6.35l-.17,3.14-.47,3c-.07.43-.14.87-.2,1.31s-.16,1.18-.27,1.67l-.83,3.2a3.32,3.32,0,0,0,2.36,4.05l9.63,2.57a3.32,3.32,0,0,0,4.08-2.38l1-3.79c.2-.89.33-1.79.46-2.69.06-.43.12-.85.2-1.33l.62-4.11,0-.51,3.27.17a80.93,80.93,0,0,1-5.21,21.89l-15.11-6.74a3.36,3.36,0,0,0-2.55-.07,3.33,3.33,0,0,0-1.85,1.76,59.41,59.41,0,0,1-12.32,18,3.33,3.33,0,0,0,0,4.7l7.05,7.05a3.26,3.26,0,0,0,2.45,1,3.32,3.32,0,0,0,2.38-1.12l1.8-2c1.16-1.25,2.31-2.5,3.53-4,.5-.71,1-1.41,1.57-2.1.37-.49.74-1,1.11-1.48l2.8,1.82a79.87,79.87,0,0,1-15.5,16.3L145.5,194a3.31,3.31,0,0,0-4.64-.73,59.12,59.12,0,0,1-19.64,9.37,3.34,3.34,0,0,0-2.36,4.07l2.58,9.64a3.33,3.33,0,0,0,3.91,2.39,48.78,48.78,0,0,0,6.89-2.18l.69-.26a33.42,33.42,0,0,0,4.51-1.86l1.51,3a80.26,80.26,0,0,1-21.58,6.44l-1.71-16.46a3.3,3.3,0,0,0-3.63-3,60.77,60.77,0,0,1-21.77-1.77A3.32,3.32,0,0,0,86.19,205l-2.58,9.64A3.32,3.32,0,0,0,84,217.2a3.37,3.37,0,0,0,2,1.54l3.79,1c.89.21,1.8.34,2.7.47l1.32.2,4.11.61.51,0-.17,3.27a80.77,80.77,0,0,1-21.88-5.21L83.1,204a3.32,3.32,0,0,0-1.59-4.35l-2.76-1.32L73.08,195a32,32,0,0,1-3-2.16c-.7-.54-1.41-1.08-1.92-1.43-1-.79-1.88-1.64-2.8-2.48-.68-.63-1.37-1.26-2.07-1.87a3.33,3.33,0,0,0-4.54.15l-7,7.06a3.33,3.33,0,0,0-1,2.44,3.36,3.36,0,0,0,1.12,2.39l1.95,1.77c1.27,1.16,2.53,2.32,4,3.56.71.5,1.4,1,2.1,1.56l1.48,1.12L59.55,210a79.82,79.82,0,0,1-16.29-15.5l13.38-9.74A3.28,3.28,0,0,0,58,182.54a3.33,3.33,0,0,0-.59-2.48A59.34,59.34,0,0,1,48,160.42a3.32,3.32,0,0,0-4.06-2.35l-9.64,2.57a3.33,3.33,0,0,0-2.39,3.91,48.45,48.45,0,0,0,2.16,6.87l.27.71a34.77,34.77,0,0,0,1.86,4.51l-3,1.51a80.51,80.51,0,0,1-6.44-21.58l16.46-1.71a3.33,3.33,0,0,0,3-3.63A61,61,0,0,1,48,129.46a3.33,3.33,0,0,0-2.35-4.08L36,122.81a3.29,3.29,0,0,0-2.53.34,3.35,3.35,0,0,0-1.55,2L31,129c-.2.89-.34,1.79-.47,2.69-.06.43-.12.85-.2,1.33l-.61,4.11,0,.51-3.26-.17a80.54,80.54,0,0,1,5.2-21.89l15.12,6.74a3.31,3.31,0,0,0,4.39-1.69,59.62,59.62,0,0,1,12.33-18,3.33,3.33,0,0,0,0-4.7l-7.05-7a3.34,3.34,0,0,0-4.84.14c-.59.67-1.19,1.32-1.8,2-1.15,1.25-2.3,2.51-3.52,4-.51.71-1,1.41-1.57,2.11-.37.48-.75,1-1.12,1.47l-2.79-1.82a79.87,79.87,0,0,1,15.5-16.3L66,95.84a3.33,3.33,0,0,0,4.65.73l.77-.58A12.07,12.07,0,0,1,73,94.87l5.44-3.15c.64-.29,1.28-.6,1.91-.91a26.19,26.19,0,0,1,3.89-1.67l1-.37a34.11,34.11,0,0,1,4.82-1.52,3.36,3.36,0,0,0,2.16-1.51,3.32,3.32,0,0,0,.38-2.61L90,73.5a3.34,3.34,0,0,0-3.91-2.4,50.55,50.55,0,0,0-6.89,2.18l-.69.26A34.64,34.64,0,0,0,74,75.4l-1.52-3A80.69,80.69,0,0,1,94.11,66l1.7,16.46A3.23,3.23,0,0,0,97,84.7a3.3,3.3,0,0,0,2.43.73,61.2,61.2,0,0,1,21.77,1.77,3.34,3.34,0,0,0,2.53-.33,3.3,3.3,0,0,0,1.54-2l2.58-9.64a3.33,3.33,0,0,0-2.38-4.08l-3.78-1c-.9-.2-1.8-.34-2.71-.47l-1.32-.2-4.1-.61-.52,0,.17-3.26a80.45,80.45,0,0,1,21.89,5.2l-6.74,15.12a3.33,3.33,0,0,0,1.69,4.39,59.66,59.66,0,0,1,18,12.33,3.33,3.33,0,0,0,4.7,0l7.05-7.05a3.34,3.34,0,0,0-.14-4.84c-.66-.58-1.31-1.18-2-1.77-1.26-1.16-2.52-2.32-4-3.55-.71-.51-1.4-1-2.09-1.57l-1.48-1.12,1.81-2.79a79.61,79.61,0,0,1,16.3,15.5Z"/><path class="cls-4" d="M105.74,91.74a53.09,53.09,0,0,0-45.87,80,4,4,0,0,0,.2.35,53.87,53.87,0,0,0,13.56,15.17c.09.06.14.14.23.2l.07,0a52.79,52.79,0,0,0,63.6,0l.09,0c.09-.06.14-.14.22-.2a53.56,53.56,0,0,0,13.56-15.17,2.5,2.5,0,0,0,.21-.35,53.09,53.09,0,0,0-45.87-80Zm-6,7.08L62.84,163a46.5,46.5,0,0,1,36.9-64.18ZM79.9,183.62l25.84-44.92,25.84,44.92a46.4,46.4,0,0,1-51.68,0Zm56.95-4.17-26.79-46.57a5,5,0,0,0-8.65,0L74.62,179.45a46.7,46.7,0,0,1-8.09-9.53l39.21-68.19,7.6,13.19.15.29,31.45,54.71a46.7,46.7,0,0,1-8.09,9.53ZM148.63,163l-29.22-50.84c0-.1-.1-.2-.15-.3l-7.52-13A46.5,46.5,0,0,1,148.63,163Z"/><g class="cls-5"><path class="cls-6" d="M87.2,4.28a6.87,6.87,0,0,1,4.91,2.24,11.69,11.69,0,0,1,3-.39,10.85,10.85,0,0,1,8.07,3.67c8.87,3.33,5.35,8.67,5.15,9h.09s5.21,3.64,3.43,5.42c0,0,3.21,4,.64,6.13a2.88,2.88,0,0,1-.93.46c7.29,11.36,11.64,31.42,8.77,47.95-.57,3.28-4.31,5.63-14.39,5.63h0a53.34,53.34,0,0,1-9.75-.86c.09.77.2,1.61.32,2.44h0c.5,3.6,1.24,7.7,2,8.3,5.15,3.86,12.81,5.46,17.12,6.09l6.24.58a14.71,14.71,0,0,1,3.24,4.76h0l36.43,33.82,28.75-24.31s1.91-7.51,12.55-7.51a27.41,27.41,0,0,1,4.38.38c14.51,2.35-1.32,4.06-1.32,4.06s1.65-.14,4.07-.14c3.64,0,9,.31,13.26,1.85l2.19,2.68-5,5s-11.59,1.61-18.22,1.61c-2.11,0-3.72-.17-4.3-.59a.39.39,0,0,0-.25-.07c-3.95,0-36.43,30.63-36.43,30.63l-33.44-27c.5,6.64.85,13.73.78,20.29a209.71,209.71,0,0,1-1.86,25.3c1.46,1,.41,3.23.41,3.23l2.73,21.73c0,.16,0,.32,0,.48,3.39,15.11,2.82,40.16,2.82,40.16a26.18,26.18,0,0,0-2.87-.43l0,1.82h0c-.07,12.66,0,30.94.72,35.11,1.18,6.53,0,9.73,0,9.73s3.21,50.77,3.21,51.16,4.49,6.17,4.49,6.17,5.94,4.67,10.57,8.38h0a13.52,13.52,0,0,1,3.87,1.64,3.74,3.74,0,0,1,1.16,2.43c.31.2.82.55,1.4,1a15,15,0,0,0,4,.75c.63.63,0,1.32-.83,1.88.46.49.74.92.66,1.2-.3,1.12-4.6,5.64-12.38,5.64-.43,0-.88,0-1.34,0-8.17-.54-19.48-9.23-20.41-11.66a7.18,7.18,0,0,1,.12-4.88c0-2.07,1.25-4.54,1.94-5.78,1.06-1.92,1.81-7.38,1.81-7.38-11.76-41.28-5-47.09-6.31-50.08-.81-1.91-8.08-28.93-13.27-48.37h0l0-.06c-.3-1.13-.59-2.24-.88-3.32a14.36,14.36,0,0,1-2.68-1.58,84.58,84.58,0,0,1-14.12,5.59L75.93,275s-2.66,9.78-5.81,12.94a139.28,139.28,0,0,1-7.81,22.56c-5.35,12-7.7,28.45-7.7,28.45s3.83,9.73,4.28,15.81c4.51,6.17,8.55,13.78,3.19,16a30.77,30.77,0,0,1-11.68,2.06c-6.47,0-12.27-1.52-13.62-2.87-2.17-2.17,4-18.64,4-18.64.19-1.5.61-2.95,1.48-3.56a26.24,26.24,0,0,0,4.7-5.13s-.8-2.14,1.45-5S54,316.24,54,313.81s-3-20.53,7-27.66c0,0,1.14-23.16,4.06-39.91h0c.32-1.9.67-3.71,1-5.4-3.06.25-4.9.29-4.9.29s3-8.26,6.75-18.89c-3.23-.31-1.11-5.32-1.11-5.32a26.92,26.92,0,0,0,3.79-2.23c.41-1.16.83-2.32,1.24-3.49-1.07-2.63,1.6-10.82,1.6-10.82l-9.8-7.4L35.15,171.5S58,117.53,59,116.6c.6-.6,5-3.19,8.07-4.94,3.19-3.19,10-5.72,10-5.72s6.52-7.38,7.91-8.77.75-5.24.75-5.24L82.16,78.21c-6.31-4-8.8-8.38-8.8-8.38a3.15,3.15,0,0,1-2.32.93,8.23,8.23,0,0,1-4.17-1.57s-9.05-9-6.2-13.33A2.69,2.69,0,0,1,63,54.56c1.86,0,4.09,1.54,5.65,2.86-3.21-2.8-4.93-3.19-5.62-3.19l-.22,0-.06,0,0,0-.06,0,0-.07c-.67-.34-3.7-2-4-4.82C53.55,47.8,54.54,45,54.54,45c-4.92-3.35,0-8.74,0-8.74C52.35,34,54,30.83,54,30.83c-2.57-3.63.64-8.13.64-8.13.36-3.92,6.24-6.23,6.24-6.23.46-2,2.89-2.89,2.89-2.89a4.27,4.27,0,0,1,4-2.44h.32C70.22,6.54,78.21,6.1,81.21,6.1c.71,0,1.13,0,1.13,0A8,8,0,0,1,87.2,4.28m-8,186.21c1.28-3.66,2.39-6.85,3.22-9.29a2.81,2.81,0,0,1,1.37-4.14c.08-.23.13-.43.17-.57,1.29-4.7-10.8-27.79-10.8-27.79l-10.2-6.39L48.6,169.21l22.87,15.93,7.68,5.35M153.42,353h0M87.2.52h0a11.22,11.22,0,0,0-6,1.82h0c-4.35,0-11.64.74-15.29,5.23a7.94,7.94,0,0,0-4.76,3.13,8.67,8.67,0,0,0-3.11,3c-2.2,1.14-6,3.65-6.95,7.66-1.37,2.31-2.63,6.15-1.16,9.81a8.58,8.58,0,0,0,.14,4.9,10.07,10.07,0,0,0-1.43,6.11,7.86,7.86,0,0,0,2.16,4.56,6.69,6.69,0,0,0,.59,1.73,8.63,8.63,0,0,0,4.16,3.79,9.12,9.12,0,0,0,1.51,2.38c-1.51,3.06-.66,7,2.53,11.64a43.63,43.63,0,0,0,4.61,5.61l.19.18.21.16A11.7,11.7,0,0,0,71,74.52a7.17,7.17,0,0,0,1-.07,33.42,33.42,0,0,0,6.81,6.11L82,92.69a8.24,8.24,0,0,1,0,2.1c-1.52,1.58-5.59,6.16-7.2,8-2.09.84-7,3-10.1,5.86-7.42,4.28-8,4.88-8.46,5.31-.73.73-1.09,1.1-13,29-5.77,13.46-11.51,27-11.57,27.11l-1.14,2.71,2.34,1.76L61.37,196l7.71,5.81c-.79,2.9-1.5,6.48-1.15,9.15l-.47,1.32c-1.12.7-2.25,1.24-2.27,1.25l-1.29.61-.56,1.32c-.47,1.11-1.87,5-.13,7.88l.2.31c-3.31,9.31-5.79,16.22-5.79,16.22L55.78,245l5.45-.1h.21l-.12.74v0c-2.5,14.34-3.7,32.92-4,38.6-8.89,7.94-7.61,23.15-7.17,28.32,0,.47.09,1.06.09,1.23-.06,2.7-3.25,19.07-4.8,21.56a10.12,10.12,0,0,0-2.35,6.23,18.33,18.33,0,0,1-3,3.11c-1.59,1.12-2.57,3-3,5.71-.42,1.16-1.68,4.65-2.76,8.39C32,366.87,32,370.5,34.12,372.66c2.73,2.73,10.35,4,16.28,4a34.39,34.39,0,0,0,13.13-2.35,7.53,7.53,0,0,0,4.56-5c1.09-3.92-.67-9-5.56-15.86-.65-5.35-3.11-12.3-4.05-14.84.58-3.59,2.91-16.75,7.26-26.51a145.08,145.08,0,0,0,7.81-22.3c3.14-3.93,5.38-11.49,6-13.54l14.77-37A89.12,89.12,0,0,0,105.1,235l.39,1.46v0c10.92,40.92,12.82,47.16,13.32,48.54,0,.3-.12.83-.2,1.28-.81,4.86-2.7,16.18,6.27,47.93a26,26,0,0,1-1.27,5.31,17.09,17.09,0,0,0-2.39,6.9,10.87,10.87,0,0,0,.11,6.92c1.22,3.2,7.17,7.21,9,8.36,3.08,2,9.08,5.34,14.7,5.71.53,0,1.07.05,1.59.05,9.13,0,15.19-5.39,16-8.41a4.23,4.23,0,0,0,.12-1.58,4.78,4.78,0,0,0,.42-1.5,4.55,4.55,0,0,0-1.34-3.65l-1-1-1.46-.06a12.14,12.14,0,0,1-2.29-.33,7,7,0,0,0-2-2.95,13.89,13.89,0,0,0-4.53-2.16c-3.81-3.06-8.33-6.62-9.63-7.64-1.32-1.71-2.79-3.66-3.48-4.64-.17-2.84-.79-12.92-3.11-49.61a26.41,26.41,0,0,0-.1-10.8c-.24-1.33-.77-7.06-.67-31.63l2.79.88.12-5c0-1,.53-25.09-2.79-40.51h0l0-.33,0-.34-2.62-20.84a6.62,6.62,0,0,0-.32-4.67,213.52,213.52,0,0,0,1.68-24.24c0-3.66,0-7.64-.25-12L158.85,156l2.55,2.07,2.39-2.26c13.32-12.56,29.38-26.72,33.88-29.35a19.11,19.11,0,0,0,4.52.4c6.81,0,18.25-1.57,18.73-1.63l1.25-.18.89-.89,5-5,2.41-2.4-2.16-2.64-2.19-2.67-.66-.8-1-.35a34.93,34.93,0,0,0-7.65-1.7c-.41-1.11-1.42-2.26-3.61-3a34.18,34.18,0,0,0-5.43-1.22,31.43,31.43,0,0,0-5-.43c-10.63,0-14.51,6.23-15.72,9l-25.47,21.53-33.44-31a18.93,18.93,0,0,0-3.69-5.16l-1-1-1.35-.13-6.14-.57c-3.67-.54-10.23-1.87-14.71-4.92a31.85,31.85,0,0,1-.81-3.78c1.75.15,3.54.23,5.35.23,4.11,0,16.59,0,18.1-8.74,2.67-15.35-.55-34.87-7.67-47.86,1.45-2.42,1-5.4-.39-7.91a6.45,6.45,0,0,0,0-.76c-.19-2.08-1.64-3.95-3.16-5.37a8.23,8.23,0,0,0-.23-4c-.92-2.91-3.34-5.2-7.2-6.83A14.56,14.56,0,0,0,95.09,2.37a15.27,15.27,0,0,0-1.9.12,10.26,10.26,0,0,0-6-2ZM53.49,168l10.84-20.39,5.91,3.7c.91,1.77,3,5.94,5.06,10.46,3.77,8.3,4.68,11.84,4.89,13.19a6.45,6.45,0,0,0-1.66,2.52,6.37,6.37,0,0,0-.14,3.71c-.34,1-.73,2.12-1.16,3.35l-3.61-2.51L53.49,168ZM137.4,334.62Z"/><path class="cls-7" d="M125.12,105.67l36.43,33.82,28.75-24.31s2.41-9.49,16.93-7.13-1.32,4.06-1.32,4.06,10.27-.85,17.33,1.71l2.19,2.68-5,5s-20.11,2.78-22.52,1-36.68,30.56-36.68,30.56l-33.44-27-6.57-5.6Z"/><path class="cls-7" d="M81.67,76.32l4.06,15.61s.64,3.85-.75,5.24-7.91,8.77-7.91,8.77l-3.64,7.17,21.07,12,25.13-6.74-.75-17.65S106,99.88,98.51,94.25c-1.47-1.11-2.73-14-2.73-14Z"/><path class="cls-8" d="M96.48,86c-.4-2.88-.72-5.78-.72-5.78l-14.12-4,1.13,4.34s4.42,2.88,5.8,3.49A26.73,26.73,0,0,0,96.48,86Z"/><path class="cls-7" d="M70,110s-10.06,5.69-11,6.61-23.81,54.9-23.81,54.9L63.63,193l9.8,7.4s-3.1,9.52-1.28,11.33-5.35,5.21-5.35,5.21-2.78,6.56,2.85,5.13a83.44,83.44,0,0,0,13.26-5.2l3.78-21.11-15.22-10.6L48.6,169.21l14.31-26.9,10.2,6.39,12.51-9.14-9-22.39-3.85-8.41Z"/><path class="cls-7" d="M73.36,69.83s8.17,14.54,32.55,14.54c10.09,0,13.83-2.35,14.4-5.63,3.57-20.57-4-46.6-14.58-54.54-9.25-7-42.07,19.39-42.07,19.39l7,15.69s-7.13-7.7-10-3.42,6.2,13.33,6.2,13.33S70.94,72.26,73.36,69.83Z"/><path class="cls-7" d="M96.53,223.36,75.93,275s-2.66,9.78-5.81,12.94a139.28,139.28,0,0,1-7.81,22.56c-5.35,12-7.7,28.45-7.7,28.45s4.87,12.35,4.28,17.91c0,0,4.65,6.42,2.78,10.11s-9.2,1.5-9.2,1.5-12.24,1.6-14.06-1.45,2.3-11.23,2.3-11.23-.59-6.52,1.55-8a26.24,26.24,0,0,0,4.7-5.13s-.8-2.14,1.45-5S54,316.24,54,313.81s-3-20.53,7-27.66c0,0,2.42-49.2,9.26-56S96.53,219.2,96.53,219.2Z"/><path class="cls-9" d="M96.53,223.36,90,239.88s-9.12,4.06-11.43,4.63c-1.71.42-13.91,4.19-13.5,1.73,1.29-7.69,3.06-14,5.2-16.13,6.85-6.85,26.31-10.91,26.31-10.91Z"/><path class="cls-7" d="M103.88,215.71s17.25,65.16,18.53,68.16-5.45,8.8,6.31,50.08c0,0-.75,5.46-1.81,7.38s-3.53,6.85-.43,8.56,13.15,10.27,17.43,11,12.3-3,12.3-3,4.28-1.6,2.94-2.94c0,0-3.9-.16-5.19-1.45s-15.83-12.72-15.83-12.72-4.49-5.78-4.49-6.17-3.21-51.16-3.21-51.16,1.18-3.2,0-9.73-.6-47.62-.6-47.62Z"/><path class="cls-9" d="M103.88,215.71l5.26,19.79c.46,1.73,20.58,3.13,20.58,3.13l.11-12.51Z"/><path class="cls-10" d="M103.88,228.61c3.33,6.62,26.79,8,28.73,8.63,0,0,.61-26.57-3.13-41.49S103.88,228.61,103.88,228.61Z"/><path class="cls-11" d="M75.36,64c4.13,1.71.57-5.71.57-5.71s-.39-7.43-2.5-8.7a30.14,30.14,0,0,1-4.59-3.75l39.46-27s4-5.56-5.14-9a10.86,10.86,0,0,0-11-3.28s-4-4.78-9.77-.39c0,0-11.62-.68-14.26,5a4.34,4.34,0,0,0-4.27,2.43s-2.43.92-2.89,2.89c0,0-5.88,2.31-6.24,6.23,0,0-3.21,4.5-.64,8.13,0,0-1.69,3.19.5,5.38,0,0-4.92,5.39,0,8.74,0,0-1.21,3.49,6,4.92l2.14,4.42s2-.94,8,5Z"/><ellipse class="cls-12" cx="93.05" cy="49.57" rx="1.92" ry="2.62" transform="translate(-9.27 24.17) rotate(-14.1)"/><path class="cls-12" d="M90.59,48.23h-.07a1.49,1.49,0,0,1-1.43-1.56c0-.38.23-3.78,2.71-5.12,1.6-.86,3.6-.6,5.94.8a1.5,1.5,0,1,1-1.54,2.57c-1.32-.79-2.38-1.05-3-.73-.79.42-1.11,1.94-1.15,2.62A1.49,1.49,0,0,1,90.59,48.23Z"/><ellipse class="cls-12" cx="110.48" cy="45.34" rx="1.92" ry="2.62" transform="translate(-7.72 28.29) rotate(-14.1)"/><path class="cls-12" d="M108.44,43.78a1.39,1.39,0,0,1-.4-.06A1.5,1.5,0,0,1,107,41.88c.11-.37,1.07-3.63,3.79-4.38,1.76-.49,3.65.22,5.61,2.1a1.5,1.5,0,0,1-2.07,2.17c-1.12-1.07-2.09-1.56-2.74-1.38-.85.23-1.51,1.64-1.69,2.29A1.52,1.52,0,0,1,108.44,43.78Z"/><path class="cls-13" d="M95.75,66.9c-.24-.25,14.12.9,19.61-3.14,0,0,1.08,10.93-3.82,12.12S100.69,75.1,95.75,66.9Z"/><g class="cls-14"><path class="cls-15" d="M94.81,68.62s13.43,3.83,19.4-2.14l-.75-2.72L93.78,65.09Z"/><path class="cls-16" d="M97.17,73.54s4.32-4.17,11.2-1.39,0,7.81,0,7.81Z"/></g><path class="cls-8" d="M108.59,77.29c-8.18,0-13.66-9.79-13.72-9.91L94,65.81l1.79.09c.13,0,13.27.65,19-3a1,1,0,1,1,1.07,1.69c-5,3.12-14.29,3.38-18.3,3.34,2.13,3.12,7.61,9.59,14.63,6.54a1,1,0,1,1,.8,1.83A10.94,10.94,0,0,1,108.59,77.29Z"/><path class="cls-8" d="M70.33,68.19s-.21-9.36-7.43-11.6"/><path class="cls-8" d="M62.91,142.31s6.17-8.27,5.35-7c-4.51,7,11.56,15.06,15.33,10.75a9.64,9.64,0,0,1-10.48,2.65Z"/><path class="cls-17" d="M77.07,105.94s-6.85,2.53-10,5.72c0,0,19.2,27.84,6.08,37,0,0,12.09,23.09,10.8,27.79s-22.75,64.64-22.75,64.64,66.31-1.18,68.67-44.53l-3.14-25a209.71,209.71,0,0,0,1.86-25.3c.13-12.18-1.2-26.18-2.18-35.73a15.36,15.36,0,0,0-4.5-9.69l-6.24-.58s4.92,16.51-6.48,18.08C103,119.26,88.19,121.24,77.07,105.94Z"/><g class="cls-18"><path class="cls-19" d="M63.63,242.75s66.31-1.18,68.67-44.53Z"/></g><path class="cls-17" d="M77.07,105.94s-6.85,2.53-10,5.72c0,0,19.2,27.84,6.08,37,0,0,12.09,23.09,10.8,27.79s-22.75,64.64-22.75,64.64,66.31-1.18,68.67-44.53l-3.14-25a209.71,209.71,0,0,0,1.86-25.3c.13-12.18-1.2-26.18-2.18-35.73a15.36,15.36,0,0,0-4.5-9.69l-6.24-.58s4.92,16.51-6.48,18.08C103,119.26,88.19,121.24,77.07,105.94Z"/><path class="cls-7" d="M63.63,193l9.8,7.4s-3.1,9.52-1.28,11.33-5.35,5.21-5.35,5.21-2.78,6.56,2.85,5.13a83.44,83.44,0,0,0,13.26-5.2L86.12,199s1-3.52-3-5.86c-3.09-1.82-11.64-8-11.64-8Z"/><path class="cls-20" d="M82.44,181.34s35,4.66,44.66-6.47c0,0,1.05-2.19-.41-3.23.21,2.06-16.42,11-42.78,5.35A2.87,2.87,0,0,0,82.44,181.34Z"/><circle class="cls-21" cx="111.48" cy="179.66" r="8.15"/><g class="cls-22"><path class="cls-23" d="M72.76,21.92s-3.5,4.24.94,7.08c1.56,1-4.6,5.77-4.6,5.77l-2.49,14A18.72,18.72,0,0,1,72,47.44L83.22,60.33,76,64.84,53,49.32,37.64,19.71,57.39,1.78l21.6-5L75.2,4.28S66,9.88,69.53,13.92C67.34,15.46,66.91,21.51,72.76,21.92Z"/></g><path class="cls-24" d="M62.77,54.29S58.64,52.44,58.64,49,74.75,13.22,108.4,18.78c0,0,5.21,3.64,3.43,5.42,0,0,3.21,4,.64,6.13S97.42,29.33,62.77,54.29Z"/><path class="cls-25" d="M64.59,46.74s21.53-26.25,44.56-22.82C109.15,23.92,87.69,25.07,64.59,46.74Z"/><path class="cls-26" d="M112.38,186.57a8,8,0,0,1-5.91-2.3c-1.58-1.77-2-4.33-1.32-7.61a1.5,1.5,0,0,1,2.93.63c-.49,2.28-.28,4,.62,5,1.36,1.53,4,1.3,4.08,1.3a1.5,1.5,0,0,1,.3,3S112.78,186.57,112.38,186.57Z"/><path class="cls-27" d="M116.41,183.81a1.24,1.24,0,0,1-.33,0,1.5,1.5,0,0,1-1.14-1.79c.51-2.28.31-4-.59-5-1.36-1.53-4-1.31-4.06-1.31a1.5,1.5,0,0,1-.3-3c.18,0,4.21-.39,6.6,2.3,1.58,1.78,2,4.34,1.28,7.62A1.51,1.51,0,0,1,116.41,183.81Z"/><path class="cls-8" d="M104.09,64.49a1.5,1.5,0,0,1,0-3c1.48,0,5.62-1.25,8.52-2.24-.92-7.27-5.57-12.7-8.35-15.36a1.5,1.5,0,1,1,2.07-2.17c3.24,3.09,8.76,9.61,9.38,18.45l.08,1.14-1.07.38C113.92,62,106.84,64.49,104.09,64.49Z"/><path class="cls-8" d="M201.82,116.36a4.59,4.59,0,0,1-.73-.06,1.5,1.5,0,1,1,.52-3c1.1.21,2.57-1.34,3.07-2.07a1.5,1.5,0,1,1,2.47,1.69C206.9,113.33,204.74,116.36,201.82,116.36Z"/><path class="cls-8" d="M212.62,121.74a1.07,1.07,0,0,1-.35-.06,1,1,0,0,1-.59-1.29c.7-1.93-1.65-5.24-2.53-6.25a1,1,0,1,1,1.51-1.31c.43.49,4.13,4.87,2.9,8.25A1,1,0,0,1,212.62,121.74Z"/></g></svg>