<svg id="Camada_1" data-name="Camada 1" xmlns="http://www.w3.org/2000/svg" xmlns:xlink="http://www.w3.org/1999/xlink" viewBox="0 0 881 250.5"><defs><style>.cls-1{fill:none;}.cls-2{fill:#65c4d1;}.cls-3{fill:#f9f9f9;}.cls-4{fill:#97d8dd;}.cls-5{clip-path:url(#clip-path);}.cls-6{fill:#eaa000;}.cls-7{fill:#eac2a7;}.cls-8{fill:#c9a68f;}.cls-9{fill:#d6aa8b;}.cls-10{fill:#d6d6d6;}.cls-11{fill:#c99f4b;}.cls-12{fill:#6d5f56;}.cls-13{fill:#493e38;}.cls-14{clip-path:url(#clip-path-2);}.cls-15{fill:#fcfcfc;}.cls-16{fill:#d32222;}.cls-17{fill:#f4f4f4;}.cls-18{clip-path:url(#clip-path-3);}.cls-19{fill:#b7b7b7;}.cls-20{fill:#6d472e;}.cls-21{fill:#c99e32;}.cls-22{clip-path:url(#clip-path-4);}.cls-23{fill:#aa7e30;}.cls-24{fill:#fff;}.cls-25{fill:#ddd;}.cls-26{fill:#846829;}.cls-27{fill:#e8cd95;}</style><clipPath id="clip-path"><path class="cls-1" d="M240.19,116.46C240.19,46.35,159.67,0,87.2,0S10.43,49.28,10.43,119.4s26.07,124,98.54,124S240.19,186.58,240.19,116.46Z"/></clipPath><clipPath id="clip-path-2"><path class="cls-1" d="M95.75,66.38c-.24-.24,14.12.9,19.61-3.13,0,0,1.08,10.92-3.82,12.12S100.69,74.58,95.75,66.38Z"/></clipPath><clipPath id="clip-path-3"><path class="cls-1" d="M103.88,228.09c3.33,6.62,26.79,8,28.73,8.63,0,0,.61-26.56-3.13-41.48S103.88,228.09,103.88,228.09Z"/></clipPath><clipPath id="clip-path-4"><path class="cls-1" d="M75.36,63.47c4.13,1.71.57-5.71.57-5.71s-.39-7.43-2.5-8.69a30.8,30.8,0,0,1-4.59-3.75l10.57-7.25,28.89-19.8s4-5.57-5.14-9A10.86,10.86,0,0,0,92.11,6s-4-4.77-9.77-.39c0,0-11.62-.68-14.26,5a4.32,4.32,0,0,0-4.27,2.42S61.38,14,60.92,16c0,0-5.88,2.32-6.24,6.24,0,0-3.21,4.49-.64,8.13,0,0-1.69,3.19.5,5.38,0,0-4.92,5.38,0,8.73,0,0-1.21,3.5,6,4.92l2.14,4.42s2-.93,8,5Z"/></clipPath></defs><title>2-intro</title><path class="cls-2" d="M871,187.72H182.84V109.06H871a10,10,0,0,1,10,10v58.66A10,10,0,0,1,871,187.72Z"/><circle class="cls-3" cx="106" cy="144.5" r="103"/><path class="cls-2" d="M106,44.5A100,100,0,1,1,6,144.5a100,100,0,0,1,100-100m0-6a106,106,0,1,0,106,106,106.12,106.12,0,0,0-106-106Z"/><path class="cls-4" d="M105.74,44.68a99.74,99.74,0,1,0,99.74,99.74A99.73,99.73,0,0,0,105.74,44.68Zm0,192.83a93.09,93.09,0,1,1,93.09-93.09A93.09,93.09,0,0,1,105.74,237.51Z"/><path class="cls-4" d="M152.81,72a3.33,3.33,0,0,0-4.61,1l-5.43,8.36a3.32,3.32,0,0,0,1,4.65,42.72,42.72,0,0,1,3.73,2.66c.75.57,1.5,1.14,2.08,1.55,1,.85,2,1.75,3,2.65l-2.3,2.3a66.28,66.28,0,0,0-14.57-10l6.8-15.25a3.31,3.31,0,0,0-1.69-4.39,86.9,86.9,0,0,0-30.63-7.3,3.32,3.32,0,0,0-3.49,3.15l-.52,10a3.33,3.33,0,0,0,3.14,3.49l3.5.18,3.73.57,1.44.22c.72.1,1.44.2,2.07.34l.45.12-.87,3.26a68.05,68.05,0,0,0-17.61-1.43l-1.72-16.63a3.33,3.33,0,0,0-3.66-3,85.73,85.73,0,0,0-30.2,9,3.33,3.33,0,0,0-1.45,4.48l4.54,8.88A3.31,3.31,0,0,0,74,82.31c.67-.3,1.33-.63,2-1a34.37,34.37,0,0,1,4.75-2l.85-.31c1-.37,2-.73,2.93-1.06l.86,3.22c-.82.28-1.61.57-2.4.87l-.79.3a30.1,30.1,0,0,0-4.72,2l-2,1L69.8,88.54c-.13.07-.26.14-.38.22L59.61,75.28A3.31,3.31,0,0,0,55,74.55a86.67,86.67,0,0,0-21.69,22.8,3.33,3.33,0,0,0,1,4.6l8.36,5.44a3.32,3.32,0,0,0,4.65-1,42.46,42.46,0,0,1,2.65-3.72c.58-.76,1.15-1.51,1.56-2.1.85-1,1.75-2,2.65-3l2.3,2.31a66.28,66.28,0,0,0-10,14.57l-15.25-6.8a3.33,3.33,0,0,0-4.4,1.68,87,87,0,0,0-7.29,30.64,3.32,3.32,0,0,0,3.15,3.49l10,.51a3.3,3.3,0,0,0,3.49-3.14l.18-3.49.56-3.73c.09-.48.16-1,.22-1.45.11-.71.21-1.44.35-2.06l.12-.46,3.25.88a67.54,67.54,0,0,0-1.42,17.6l-16.64,1.73a3.33,3.33,0,0,0-3,3.65,86.68,86.68,0,0,0,9,30.21,3.33,3.33,0,0,0,4.47,1.45l8.88-4.54a3.32,3.32,0,0,0,1.51-4.36c-.31-.66-.63-1.31-1-2a34.21,34.21,0,0,1-2-4.78l-.33-.88c-.37-1-.72-2-1-2.9l3.26-.87a65.71,65.71,0,0,0,7.59,15.91L36.6,190.55a3.31,3.31,0,0,0-1.33,2.17,3.34,3.34,0,0,0,.6,2.47,86.47,86.47,0,0,0,22.8,21.68,3.32,3.32,0,0,0,4.6-1l5.44-8.36a3.31,3.31,0,0,0-1.06-4.65c-1.28-.82-2.53-1.71-3.73-2.66-.74-.57-1.49-1.14-2.08-1.55-1-.86-2-1.75-3-2.66l2.35-2.35c.89.82,1.81,1.64,2.92,2.54.64.46,1.27.95,1.9,1.43a39.9,39.9,0,0,0,3.71,2.61l5.93,3.41.08,0L68.91,219a3.32,3.32,0,0,0,1.68,4.39,87,87,0,0,0,30.64,7.3h.17a3.33,3.33,0,0,0,3.32-3.15l.51-10a3.31,3.31,0,0,0-3.14-3.49l-3.49-.18-3.73-.57-1.44-.22c-.72-.1-1.44-.2-2.07-.35l-.46-.11.88-3.26a68,68,0,0,0,17.6,1.43l1.73,16.63a3.31,3.31,0,0,0,3.65,3,85.55,85.55,0,0,0,30.21-9,3.33,3.33,0,0,0,1.45-4.48L141.88,208a3.31,3.31,0,0,0-4.35-1.5c-.67.3-1.33.63-2,.95a34.37,34.37,0,0,1-4.75,2.05l-.85.31c-1,.37-2,.73-2.93,1.06l-.88-3.26A66,66,0,0,0,142,200.05l9.83,13.5a3.32,3.32,0,0,0,4.64.74,86.47,86.47,0,0,0,21.68-22.8,3.33,3.33,0,0,0-1-4.61l-8.36-5.44a3.33,3.33,0,0,0-4.65,1.06,42.46,42.46,0,0,1-2.65,3.72c-.58.76-1.15,1.51-1.56,2.1-.85,1-1.75,2-2.66,3L155,189a66,66,0,0,0,10-14.57l15.25,6.8a3.33,3.33,0,0,0,4.39-1.68,87,87,0,0,0,7.3-30.64,3.32,3.32,0,0,0-3.15-3.49l-10-.52a3.35,3.35,0,0,0-3.49,3.14l-.18,3.5-.57,3.73c-.08.48-.15,1-.22,1.44-.1.72-.2,1.44-.35,2.06l-.11.46-3.21-.85,0-.08c.18-.78.3-1.57.41-2.36.05-.37.1-.73.17-1.15l.51-3.26c0-.12,0-.23,0-.34l.17-3.48v-6.95l16.7-1.73a3.31,3.31,0,0,0,3-3.65,86.68,86.68,0,0,0-9-30.21,3.32,3.32,0,0,0-4.47-1.45l-8.88,4.54a3.33,3.33,0,0,0-1.51,4.36c.31.66.63,1.31.95,2a34.21,34.21,0,0,1,2.05,4.78l.33.87c.37,1,.73,2,1,2.91L169,124a66.08,66.08,0,0,0-7.59-15.91l13.5-9.83a3.33,3.33,0,0,0,.74-4.64A86.47,86.47,0,0,0,152.81,72Zm2,32.68a3.32,3.32,0,0,0-.73,4.65,59.12,59.12,0,0,1,9.37,19.64,3.33,3.33,0,0,0,4.07,2.35l9.64-2.57a3.33,3.33,0,0,0,2.39-3.91,48.49,48.49,0,0,0-2.17-6.87l-.26-.71a34.25,34.25,0,0,0-1.87-4.51l3-1.51a80.15,80.15,0,0,1,6.44,21.58l-16.46,1.71a3.33,3.33,0,0,0-3,3.48l.17,3.22v6.36l-.17,3.13-.47,3.05c-.07.44-.14.87-.2,1.31s-.16,1.18-.27,1.68l-.83,3.19a3.32,3.32,0,0,0,2.36,4.05l9.63,2.58a3.37,3.37,0,0,0,2.54-.35,3.31,3.31,0,0,0,1.54-2l1-3.79c.2-.89.33-1.79.46-2.69.06-.43.12-.85.2-1.33l.62-4.11,0-.51,3.27.17a80.84,80.84,0,0,1-5.21,21.89l-15.11-6.74a3.35,3.35,0,0,0-4.4,1.69,59.45,59.45,0,0,1-12.32,18,3.33,3.33,0,0,0,0,4.69l7.06,7.06a3.25,3.25,0,0,0,2.45,1,3.35,3.35,0,0,0,2.38-1.11l1.8-2c1.16-1.25,2.31-2.5,3.53-4,.5-.71,1-1.4,1.57-2.1q.56-.72,1.11-1.47l2.8,1.82a79.82,79.82,0,0,1-15.5,16.29l-9.75-13.39a3.31,3.31,0,0,0-4.64-.73,59.12,59.12,0,0,1-19.64,9.37,3.34,3.34,0,0,0-2.36,4.08l2.58,9.63a3.32,3.32,0,0,0,3.91,2.39,48.74,48.74,0,0,0,6.89-2.17l.69-.26a34.82,34.82,0,0,0,4.51-1.87l1.51,3a80.6,80.6,0,0,1-21.58,6.43l-1.71-16.46a3.26,3.26,0,0,0-1.19-2.23,3.31,3.31,0,0,0-2.44-.73,61,61,0,0,1-21.77-1.78,3.36,3.36,0,0,0-2.52.34,3.31,3.31,0,0,0-1.55,2l-2.58,9.63A3.32,3.32,0,0,0,86,218.22l3.79,1c.89.21,1.8.34,2.7.48.42.05.85.12,1.32.2l4.11.61.51,0-.17,3.26a80.4,80.4,0,0,1-21.88-5.21l6.73-15.11a3.33,3.33,0,0,0-1.59-4.35l-2.76-1.32-5.67-3.26a32,32,0,0,1-3-2.16c-.7-.54-1.41-1.08-1.92-1.43-1-.79-1.88-1.63-2.8-2.47-.68-.63-1.37-1.26-2.07-1.88a3.34,3.34,0,0,0-4.54.16l-7,7a3.3,3.3,0,0,0,.14,4.83l1.95,1.78c1.27,1.16,2.53,2.32,4,3.55.71.5,1.4,1,2.1,1.56.48.38,1,.75,1.48,1.13l-1.82,2.79a79.82,79.82,0,0,1-16.29-15.5l13.38-9.74a3.33,3.33,0,0,0,.74-4.64A59.49,59.49,0,0,1,48,159.9a3.32,3.32,0,0,0-4.06-2.35l-9.64,2.57A3.33,3.33,0,0,0,31.91,164a48.45,48.45,0,0,0,2.16,6.87l.27.71a34.9,34.9,0,0,0,1.86,4.52l-3,1.51a80.69,80.69,0,0,1-6.44-21.59l16.46-1.71a3.33,3.33,0,0,0,3-3.63A61,61,0,0,1,48,128.94a3.32,3.32,0,0,0-2.35-4.07L36,122.29a3.29,3.29,0,0,0-2.53.35,3.33,3.33,0,0,0-1.55,2l-1,3.79c-.2.88-.34,1.79-.47,2.69-.06.42-.12.85-.2,1.33l-.61,4.1,0,.51-3.26-.16a80.36,80.36,0,0,1,5.2-21.89l15.12,6.74a3.33,3.33,0,0,0,4.39-1.69,59.66,59.66,0,0,1,12.33-18,3.33,3.33,0,0,0,0-4.7l-7.05-7.05a3.34,3.34,0,0,0-4.84.14q-.89,1-1.8,2c-1.15,1.26-2.3,2.51-3.52,4-.51.72-1,1.41-1.57,2.11-.37.48-.75,1-1.12,1.47l-2.79-1.82A80,80,0,0,1,56.22,81.94L66,95.32a3.33,3.33,0,0,0,4.65.73l.77-.58A12.07,12.07,0,0,1,73,94.35l5.44-3.14,1.91-.92a26.19,26.19,0,0,1,3.89-1.67l1-.36a34.15,34.15,0,0,1,4.82-1.53,3.32,3.32,0,0,0,2.54-4.11L90,73a3.33,3.33,0,0,0-3.91-2.39,49.15,49.15,0,0,0-6.89,2.17l-.69.26A34.69,34.69,0,0,0,74,74.89l-1.52-3a80.67,80.67,0,0,1,21.59-6.43L95.81,82a3.29,3.29,0,0,0,3.63,3,61,61,0,0,1,21.77,1.78,3.39,3.39,0,0,0,2.53-.34,3.3,3.3,0,0,0,1.54-2l2.58-9.63a3.32,3.32,0,0,0-2.38-4.08l-3.78-1c-.9-.2-1.8-.34-2.71-.47l-1.32-.2-4.1-.61-.52,0,.17-3.26a80.1,80.1,0,0,1,21.89,5.21l-6.74,15.11a3.33,3.33,0,0,0,1.69,4.39,59.66,59.66,0,0,1,18,12.33,3.33,3.33,0,0,0,4.7,0l7.05-7a3.33,3.33,0,0,0-.14-4.83l-2-1.78c-1.26-1.16-2.52-2.32-4-3.55-.71-.5-1.4-1-2.09-1.56L150.1,82.2l1.82-2.79a79.61,79.61,0,0,1,16.3,15.5Z"/><path class="cls-4" d="M105.74,91.23a53.09,53.09,0,0,0-45.87,80,3.79,3.79,0,0,0,.2.34,53.59,53.59,0,0,0,13.56,15.17c.09.06.14.15.23.2l.07,0a52.77,52.77,0,0,0,63.6,0l.09,0c.09-.05.14-.14.22-.2a53.29,53.29,0,0,0,13.56-15.17,2.39,2.39,0,0,0,.21-.34,53.09,53.09,0,0,0-45.87-80Zm-6,7.08-36.9,64.17a46.5,46.5,0,0,1,36.9-64.17ZM79.9,183.11l25.84-44.92,25.84,44.91a46.4,46.4,0,0,1-51.68,0Zm56.95-4.17-26.79-46.57a5,5,0,0,0-8.65,0L74.62,178.94a47,47,0,0,1-8.09-9.53l39.21-68.2,7.6,13.19.15.29,31.45,54.72a47,47,0,0,1-8.09,9.53Zm11.78-16.46-29.22-50.83a3,3,0,0,0-.15-.31l-7.52-13a46.5,46.5,0,0,1,36.89,64.17Z"/><g class="cls-5"><path class="cls-6" d="M87.2,3.76A6.87,6.87,0,0,1,92.11,6a12.15,12.15,0,0,1,3-.39,10.85,10.85,0,0,1,8.07,3.67c8.87,3.33,5.35,8.67,5.15,9l.09,0s5.21,3.63,3.43,5.41c0,0,3.21,4,.64,6.13a2.88,2.88,0,0,1-.93.47c7.29,11.36,11.64,31.41,8.77,48-.57,3.27-4.31,5.63-14.39,5.63h0A53.29,53.29,0,0,1,96.16,83c.09.77.2,1.61.32,2.45h0c.5,3.6,1.24,7.69,2,8.29,5.14,3.87,12.81,5.46,17.12,6.09l6.24.58a14.83,14.83,0,0,1,3.24,4.76h0L161.55,139l28.75-24.31s1.91-7.5,12.55-7.5a27.32,27.32,0,0,1,4.38.37c14.51,2.35-1.32,4.07-1.32,4.07s1.65-.14,4.07-.14c3.64,0,9,.31,13.26,1.85l2.19,2.67-5,5s-11.59,1.6-18.22,1.6c-2.11,0-3.72-.16-4.3-.59a.46.46,0,0,0-.25-.07c-3.95,0-36.43,30.63-36.43,30.63l-33.44-27c.5,6.63.85,13.72.78,20.28a210,210,0,0,1-1.86,25.31c1.46,1,.41,3.23.41,3.23l2.73,21.72c0,.16,0,.32,0,.48,3.39,15.11,2.82,40.16,2.82,40.16-.35-.11-1.39-.24-2.87-.43l0,1.82h0c-.07,12.66,0,30.95.72,35.12,1.18,6.52,0,9.73,0,9.73s3.21,50.76,3.21,51.15,4.49,6.17,4.49,6.17,5.94,4.68,10.57,8.38h0a13.52,13.52,0,0,1,3.87,1.64,3.74,3.74,0,0,1,1.16,2.43c.31.21.82.55,1.4,1a15,15,0,0,0,4,.75c.63.64,0,1.33-.83,1.88.46.5.74.93.66,1.21-.3,1.11-4.6,5.64-12.38,5.64-.43,0-.88,0-1.34-.05-8.17-.53-19.48-9.23-20.41-11.65a7.21,7.21,0,0,1,.12-4.89c0-2.06,1.25-4.54,1.94-5.77,1.06-1.93,1.81-7.38,1.81-7.38-11.76-41.28-5-47.1-6.31-50.09-.81-1.9-8.08-28.93-13.27-48.37h0l0-.06c-.3-1.13-.59-2.24-.88-3.31a14.37,14.37,0,0,1-2.68-1.59,84.58,84.58,0,0,1-14.12,5.59l-15.51,38.9s-2.66,9.79-5.81,12.94A139.19,139.19,0,0,1,62.31,310c-5.35,12-7.7,28.44-7.7,28.44s3.83,9.73,4.28,15.81c4.51,6.17,8.55,13.78,3.19,16a31,31,0,0,1-11.68,2.05c-6.47,0-12.27-1.52-13.62-2.87-2.17-2.17,4-18.64,4-18.64.19-1.5.61-2.94,1.48-3.55a26.49,26.49,0,0,0,4.7-5.14s-.8-2.14,1.45-5S54,315.72,54,313.3s-3-20.54,7-27.67c0,0,1.15-23.15,4.07-39.9h0c.32-1.9.67-3.72,1-5.41-3.06.26-4.9.29-4.9.29s3-8.26,6.75-18.89c-3.23-.31-1.11-5.32-1.11-5.32a25.85,25.85,0,0,0,3.79-2.23l1.24-3.48c-1.07-2.64,1.6-10.83,1.6-10.83l-9.8-7.39L35.15,171S58,117,59,116.09c.6-.6,5-3.19,8.07-5,3.19-3.19,10-5.71,10-5.71s6.52-7.38,7.91-8.77.75-5.24.75-5.24L82.16,77.7c-6.31-4-8.8-8.38-8.8-8.38a3.19,3.19,0,0,1-2.32.93,8.2,8.2,0,0,1-4.17-1.58s-9.05-9.05-6.2-13.33A2.68,2.68,0,0,1,63,54.05c1.86,0,4.09,1.53,5.65,2.85-3.21-2.8-4.93-3.18-5.62-3.18h-.22l-.06,0,0,0-.06,0,0-.07c-.67-.33-3.7-2-4-4.82-5.12-1.6-4.13-4.45-4.13-4.45-4.92-3.35,0-8.73,0-8.73-2.19-2.19-.5-5.38-.5-5.38-2.57-3.64.64-8.13.64-8.13C55,18.27,60.92,16,60.92,16c.46-2,2.89-2.89,2.89-2.89a4.29,4.29,0,0,1,4-2.44,2.15,2.15,0,0,1,.32,0C70.22,6,78.21,5.59,81.21,5.59c.71,0,1.13,0,1.13,0A8,8,0,0,1,87.2,3.76M79.15,190c1.28-3.65,2.39-6.85,3.22-9.29a2.8,2.8,0,0,1,1.37-4.13c.08-.24.13-.43.17-.57,1.29-4.71-10.8-27.79-10.8-27.79l-10.2-6.4L48.6,168.69l22.87,15.93L79.15,190m74.27,162.55h0M87.2,0h0a11.15,11.15,0,0,0-6,1.83h0c-4.35,0-11.64.73-15.29,5.23a7.88,7.88,0,0,0-4.76,3.12,8.85,8.85,0,0,0-3.11,3c-2.2,1.14-6,3.65-6.95,7.66-1.37,2.32-2.63,6.16-1.16,9.81a8.58,8.58,0,0,0,.14,4.9,10.09,10.09,0,0,0-1.43,6.11,7.86,7.86,0,0,0,2.16,4.56,6.57,6.57,0,0,0,.59,1.73,8.49,8.49,0,0,0,4.16,3.79,9.12,9.12,0,0,0,1.51,2.38c-1.51,3.06-.66,7,2.53,11.65a44,44,0,0,0,4.61,5.6l.19.19.21.15A11.68,11.68,0,0,0,71,74a8.93,8.93,0,0,0,1-.07A33.43,33.43,0,0,0,78.89,80L82,92.17a8.32,8.32,0,0,1,0,2.11c-1.52,1.57-5.59,6.16-7.2,8-2.09.84-7,3-10.1,5.86-7.42,4.28-8,4.88-8.46,5.32-.73.72-1.09,1.09-13,29-5.77,13.46-11.51,27-11.57,27.12l-1.14,2.7L32.88,174l28.49,21.48,7.71,5.82c-.79,2.89-1.5,6.47-1.15,9.14l-.47,1.32A23.28,23.28,0,0,1,65.19,213l-1.29.62-.56,1.32c-.47,1.1-1.87,4.95-.13,7.87.06.11.13.21.2.32-3.31,9.3-5.79,16.21-5.79,16.21l-1.84,5.13,5.45-.1h.21l-.12.75v0c-2.5,14.35-3.7,32.93-4,38.61-8.89,7.93-7.61,23.14-7.17,28.31,0,.47.09,1.06.09,1.23-.06,2.7-3.25,19.07-4.8,21.56a10.12,10.12,0,0,0-2.35,6.23,18.43,18.43,0,0,1-3,3.12c-1.59,1.11-2.57,3-3,5.7-.42,1.16-1.68,4.66-2.76,8.39C32,366.36,32,370,34.12,372.14c2.73,2.73,10.35,4,16.28,4a34.58,34.58,0,0,0,13.13-2.34,7.54,7.54,0,0,0,4.56-5c1.09-3.92-.68-9-5.56-15.86-.65-5.35-3.11-12.3-4.05-14.83.58-3.6,2.91-16.76,7.26-26.51a145.44,145.44,0,0,0,7.81-22.31c3.14-3.93,5.38-11.49,6-13.53l14.77-37a89.12,89.12,0,0,0,10.83-4.24l.39,1.46v0c10.92,40.92,12.82,47.17,13.32,48.54,0,.3-.12.84-.2,1.28-.81,4.86-2.7,16.19,6.27,47.94a25.69,25.69,0,0,1-1.27,5.3,17.14,17.14,0,0,0-2.39,6.9,10.9,10.9,0,0,0,.11,6.93c1.22,3.2,7.17,7.2,9,8.36,3.08,2,9.08,5.34,14.7,5.7.53,0,1.07.06,1.59.06,9.13,0,15.19-5.4,16-8.42a4.22,4.22,0,0,0,.12-1.58,4.8,4.8,0,0,0,.42-1.49,4.57,4.57,0,0,0-1.34-3.66l-1-1-1.46-.06a13.1,13.1,0,0,1-2.29-.34,6.93,6.93,0,0,0-2-2.94,13.92,13.92,0,0,0-4.53-2.17c-3.81-3.05-8.33-6.62-9.63-7.64C139.5,335.9,138,334,137.34,333c-.17-2.83-.79-12.92-3.11-49.61a26.41,26.41,0,0,0-.1-10.8c-.24-1.33-.77-7.06-.67-31.63l2.79.88.12-5c0-1,.53-25.1-2.79-40.51h0l0-.34,0-.34-2.62-20.83a6.62,6.62,0,0,0-.32-4.67,213.76,213.76,0,0,0,1.68-24.25c0-3.65,0-7.63-.25-12l26.8,21.67,2.55,2.07,2.39-2.25c13.32-12.56,29.38-26.73,33.88-29.36a19,19,0,0,0,4.52.41,177.65,177.65,0,0,0,18.73-1.64l1.25-.17.89-.9,5-5,2.41-2.41-2.16-2.63-2.19-2.68-.66-.79-1-.36a34.35,34.35,0,0,0-7.65-1.69c-.42-1.12-1.42-2.27-3.61-3a34.18,34.18,0,0,0-5.43-1.22,31.38,31.38,0,0,0-5-.42c-10.63,0-14.51,6.23-15.72,9L161.66,134l-33.44-31a18.82,18.82,0,0,0-3.69-5.17l-1-1-1.35-.12-6.14-.57c-3.67-.54-10.23-1.88-14.71-4.93a31.85,31.85,0,0,1-.81-3.78c1.75.16,3.54.23,5.35.24,4.11,0,16.59,0,18.1-8.75,2.67-15.34-.55-34.86-7.67-47.86,1.45-2.41,1-5.39-.39-7.9a6.62,6.62,0,0,0,0-.77c-.19-2.08-1.64-3.95-3.16-5.36a8.35,8.35,0,0,0-.23-4c-.92-2.91-3.34-5.21-7.2-6.83A14.52,14.52,0,0,0,95.09,1.85a15.27,15.27,0,0,0-1.9.12,10.33,10.33,0,0,0-6-2ZM53.49,167.51l10.84-20.39,5.91,3.71c.91,1.77,3,5.94,5.06,10.45,3.77,8.31,4.68,11.84,4.89,13.19A6.52,6.52,0,0,0,78.53,177a6.41,6.41,0,0,0-.14,3.72c-.34,1-.73,2.11-1.16,3.34l-3.61-2.51-20.13-14Zm83.91,166.6Z"/><path class="cls-7" d="M125.12,105.16,161.55,139l28.75-24.31s2.41-9.48,16.93-7.13-1.32,4.07-1.32,4.07,10.27-.86,17.33,1.71l2.19,2.67-5,5s-20.11,2.78-22.52,1-36.68,30.56-36.68,30.56l-33.44-27-6.57-5.6Z"/><path class="cls-7" d="M81.67,75.8l4.06,15.62s.64,3.85-.75,5.24-7.91,8.77-7.91,8.77l-3.64,7.16,21.07,12,25.13-6.74-.75-17.64S106,99.37,98.51,93.73c-1.47-1.1-2.73-14-2.73-14Z"/><path class="cls-8" d="M96.48,85.44c-.4-2.88-.72-5.78-.72-5.78l-14.12-4,1.13,4.35s4.42,2.88,5.8,3.48A26.92,26.92,0,0,0,96.48,85.44Z"/><path class="cls-7" d="M70,109.47s-10.06,5.69-11,6.62S35.15,171,35.15,171l28.48,21.48,9.8,7.39s-3.1,9.52-1.28,11.34-5.35,5.2-5.35,5.2S64,223,69.65,221.54a84.11,84.11,0,0,0,13.26-5.21l3.78-21.1L71.47,184.62,48.6,168.69l14.31-26.9,10.2,6.4L85.62,139l-9-22.38-3.85-8.42Z"/><path class="cls-7" d="M73.36,69.32s8.17,14.53,32.55,14.54c10.09,0,13.83-2.36,14.4-5.63,3.57-20.58-4-46.6-14.58-54.55-9.25-7-42.07,19.4-42.07,19.4l7,15.68s-7.13-7.7-10-3.42,6.2,13.33,6.2,13.33S70.94,71.74,73.36,69.32Z"/><path class="cls-7" d="M96.53,222.84l-20.6,51.67s-2.66,9.79-5.81,12.94A139.19,139.19,0,0,1,62.31,310c-5.35,12-7.7,28.44-7.7,28.44s4.87,12.36,4.28,17.92c0,0,4.65,6.41,2.78,10.1s-9.2,1.5-9.2,1.5-12.24,1.6-14.06-1.44,2.3-11.23,2.3-11.23-.59-6.53,1.55-8a26.49,26.49,0,0,0,4.7-5.14s-.8-2.14,1.45-5S54,315.72,54,313.3s-3-20.54,7-27.67c0,0,2.43-49.19,9.27-56s26.31-10.91,26.31-10.91Z"/><path class="cls-9" d="M96.53,222.84,90,239.36s-9.12,4.07-11.43,4.63c-1.71.43-13.91,4.2-13.5,1.74,1.29-7.69,3.06-14,5.2-16.14,6.85-6.84,26.31-10.91,26.31-10.91Z"/><path class="cls-7" d="M103.88,215.19s17.25,65.17,18.53,68.16-5.45,8.81,6.31,50.09c0,0-.75,5.45-1.81,7.38s-3.53,6.84-.43,8.55,13.15,10.27,17.43,11,12.3-3,12.3-3,4.28-1.6,2.94-2.94c0,0-3.9-.16-5.19-1.44s-15.83-12.73-15.83-12.73-4.49-5.77-4.49-6.17S130.43,283,130.43,283s1.18-3.21,0-9.73-.6-47.63-.6-47.63Z"/><path class="cls-9" d="M103.88,215.19,109.14,235c.46,1.74,20.58,3.13,20.58,3.13l.11-12.51Z"/><path class="cls-10" d="M103.88,228.09c3.33,6.62,26.79,8,28.73,8.63,0,0,.61-26.56-3.13-41.48S103.88,228.09,103.88,228.09Z"/><path class="cls-11" d="M75.36,63.47c4.13,1.71.57-5.71.57-5.71s-.39-7.43-2.5-8.69a30.8,30.8,0,0,1-4.59-3.75l39.46-27s4-5.57-5.14-9A10.86,10.86,0,0,0,92.11,6s-4-4.77-9.77-.39c0,0-11.62-.68-14.26,5a4.32,4.32,0,0,0-4.27,2.42S61.38,14,60.92,16c0,0-5.88,2.32-6.24,6.24,0,0-3.21,4.49-.64,8.13,0,0-1.69,3.19.5,5.38,0,0-4.92,5.38,0,8.73,0,0-1.21,3.5,6,4.92l2.14,4.42s2-.93,8,5Z"/><ellipse class="cls-12" cx="93.05" cy="49.05" rx="1.92" ry="2.62" transform="translate(-9.15 24.15) rotate(-14.1)"/><path class="cls-12" d="M90.59,47.72h-.07a1.48,1.48,0,0,1-1.43-1.55c0-.39.23-3.79,2.71-5.13,1.6-.86,3.6-.59,5.94.8a1.5,1.5,0,0,1-1.54,2.58c-1.32-.79-2.38-1-3-.74-.79.42-1.11,1.95-1.15,2.62A1.5,1.5,0,0,1,90.59,47.72Z"/><ellipse class="cls-12" cx="110.48" cy="44.82" rx="1.92" ry="2.62" transform="translate(-7.59 28.27) rotate(-14.1)"/><path class="cls-12" d="M108.44,43.26a1.39,1.39,0,0,1-.4-.06A1.5,1.5,0,0,1,107,41.37c.11-.37,1.07-3.64,3.79-4.39,1.76-.49,3.65.22,5.61,2.1a1.5,1.5,0,1,1-2.07,2.17c-1.12-1.07-2.09-1.56-2.74-1.38-.85.23-1.51,1.65-1.69,2.3A1.51,1.51,0,0,1,108.44,43.26Z"/><path class="cls-13" d="M95.75,66.38c-.24-.24,14.12.9,19.61-3.13,0,0,1.08,10.92-3.82,12.12S100.69,74.58,95.75,66.38Z"/><g class="cls-14"><path class="cls-15" d="M94.81,68.1s13.43,3.84,19.4-2.14l-.75-2.71L93.78,64.57Z"/><path class="cls-16" d="M97.17,73s4.32-4.17,11.2-1.39,0,7.81,0,7.81Z"/></g><path class="cls-8" d="M108.59,76.77c-8.18,0-13.66-9.79-13.72-9.91L94,65.29l1.79.09c.13,0,13.27.65,19-3a1,1,0,0,1,1.38.31,1,1,0,0,1-.31,1.38c-5,3.13-14.29,3.4-18.3,3.34,2.13,3.12,7.61,9.6,14.63,6.54a1,1,0,1,1,.8,1.84A11.09,11.09,0,0,1,108.59,76.77Z"/><path class="cls-8" d="M70.33,67.68s-.21-9.36-7.43-11.61"/><path class="cls-8" d="M62.91,141.79s6.17-8.26,5.35-7c-4.51,7,11.56,15.06,15.33,10.75a9.63,9.63,0,0,1-10.48,2.66Z"/><path class="cls-17" d="M77.07,105.43s-6.85,2.52-10,5.71c0,0,19.2,27.85,6.08,37.05,0,0,12.09,23.08,10.8,27.79s-22.75,64.63-22.75,64.63,66.31-1.18,68.67-44.53l-3.14-25a210,210,0,0,0,1.86-25.31c.13-12.18-1.2-26.17-2.18-35.73a15.42,15.42,0,0,0-4.5-9.69l-6.24-.58s4.92,16.52-6.48,18.08C103,118.74,88.19,120.73,77.07,105.43Z"/><g class="cls-18"><path class="cls-19" d="M63.63,242.23s66.31-1.18,68.67-44.53Z"/></g><path class="cls-17" d="M77.07,105.43s-6.85,2.52-10,5.71c0,0,19.2,27.85,6.08,37.05,0,0,12.09,23.08,10.8,27.79s-22.75,64.63-22.75,64.63,66.31-1.18,68.67-44.53l-3.14-25a210,210,0,0,0,1.86-25.31c.13-12.18-1.2-26.17-2.18-35.73a15.42,15.42,0,0,0-4.5-9.69l-6.24-.58s4.92,16.52-6.48,18.08C103,118.74,88.19,120.73,77.07,105.43Z"/><path class="cls-7" d="M63.63,192.47l9.8,7.39s-3.1,9.52-1.28,11.34-5.35,5.2-5.35,5.2S64,223,69.65,221.54a84.11,84.11,0,0,0,13.26-5.21l3.21-17.9s1-3.51-3-5.86c-3.09-1.81-11.64-7.95-11.64-7.95Z"/><path class="cls-20" d="M82.44,180.82s35,4.66,44.66-6.46c0,0,1.05-2.2-.41-3.23.21,2.05-16.42,11-42.78,5.35A2.86,2.86,0,0,0,82.44,180.82Z"/><circle class="cls-21" cx="111.48" cy="179.14" r="8.15"/><g class="cls-22"><path class="cls-23" d="M72.76,21.4s-3.5,4.25.94,7.08c1.55,1-4.6,5.77-4.6,5.77l-2.49,14A18.72,18.72,0,0,1,72,46.92L83.22,59.81,76,64.32,53,48.8,37.64,19.19,57.39,1.26l21.6-5L75.2,3.76S66,9.36,69.53,13.4C67.34,14.94,66.91,21,72.76,21.4Z"/></g><path class="cls-24" d="M62.77,53.77s-4.13-1.85-4.13-5.27S74.75,12.7,108.4,18.27c0,0,5.21,3.63,3.43,5.41,0,0,3.21,4,.64,6.13S97.42,28.81,62.77,53.77Z"/><path class="cls-25" d="M64.59,46.22S86.12,20,109.15,23.4C109.15,23.4,87.69,24.55,64.59,46.22Z"/><path class="cls-26" d="M112.38,186.05a8,8,0,0,1-5.91-2.3c-1.58-1.76-2-4.32-1.32-7.61a1.5,1.5,0,1,1,2.93.64c-.49,2.29-.28,4,.62,5,1.37,1.53,4,1.29,4.07,1.29a1.5,1.5,0,1,1,.31,3A5.49,5.49,0,0,1,112.38,186.05Z"/><path class="cls-27" d="M116.41,183.29a1.84,1.84,0,0,1-.33,0,1.5,1.5,0,0,1-1.14-1.79c.51-2.28.31-3.95-.59-5-1.35-1.55-4-1.33-4.07-1.33a1.5,1.5,0,0,1-.29-3c.18,0,4.22-.38,6.6,2.31,1.58,1.77,2,4.34,1.28,7.62A1.5,1.5,0,0,1,116.41,183.29Z"/><path class="cls-8" d="M104.09,64a1.5,1.5,0,0,1,0-3c1.48,0,5.62-1.25,8.52-2.24-.92-7.27-5.57-12.7-8.35-15.36a1.5,1.5,0,0,1,2.07-2.17c3.24,3.1,8.76,9.61,9.38,18.46l.08,1.13-1.07.38C113.92,61.46,106.84,64,104.09,64Z"/><path class="cls-8" d="M201.82,115.85a3.68,3.68,0,0,1-.73-.07,1.5,1.5,0,1,1,.52-3c1.09.19,2.54-1.32,3.07-2.08a1.5,1.5,0,0,1,2.47,1.69C206.9,112.81,204.74,115.85,201.82,115.85Z"/><path class="cls-8" d="M212.62,121.22a1.07,1.07,0,0,1-.35-.06,1,1,0,0,1-.59-1.28c.7-1.93-1.65-5.25-2.53-6.25a1,1,0,0,1,1.51-1.32c.43.49,4.13,4.87,2.9,8.26A1,1,0,0,1,212.62,121.22Z"/></g><path class="cls-24" d="M270.38,124.18l-1.56.25,3.82,11.08.39,1.35h.07l.39-1.35,3.8-11.1-1.53-.23v-1.49h5.38v1.49l-1.37.19-5.72,15.38h-2l-5.72-15.38-1.36-.19v-1.49h5.39Z"/><path class="cls-24" d="M288,140a5.36,5.36,0,0,1-4.21-1.76,6.67,6.67,0,0,1-1.57-4.58v-.51a6.48,6.48,0,0,1,1.62-4.51,5,5,0,0,1,3.81-1.8,4.81,4.81,0,0,1,3.87,1.55,6.12,6.12,0,0,1,1.32,4.12V134H284.6l0,.06a5,5,0,0,0,.93,3A3,3,0,0,0,288,138.2a5.89,5.89,0,0,0,2.06-.34,4.7,4.7,0,0,0,1.53-.92l.9,1.5a5.42,5.42,0,0,1-1.8,1.11A7.18,7.18,0,0,1,288,140Zm-.35-11.34a2.49,2.49,0,0,0-2,1,4.64,4.64,0,0,0-1,2.45l0,.06h5.84v-.31a3.56,3.56,0,0,0-.72-2.27A2.6,2.6,0,0,0,287.63,128.66Z"/><path class="cls-24" d="M294.76,138.28l1.91-.33v-9.06l-1.91-.33v-1.48h4l.16,1.88a4.56,4.56,0,0,1,1.59-1.56,4.25,4.25,0,0,1,2.17-.56,4.15,4.15,0,0,1,3.18,1.2,5.28,5.28,0,0,1,1.12,3.71V138l1.91.33v1.47h-6.12v-1.47l1.91-.33V131.8a3.39,3.39,0,0,0-.67-2.38,2.64,2.64,0,0,0-2-.7,3.25,3.25,0,0,0-1.76.48,3.53,3.53,0,0,0-1.23,1.31V138l1.91.33v1.47h-6.12Z"/><path class="cls-24" d="M310.22,138.28l1.91-.33V123.29l-1.91-.33v-1.49h4.22v7.29a4.74,4.74,0,0,1,1.61-1.42,4.47,4.47,0,0,1,2.11-.5,4.09,4.09,0,0,1,3.16,1.22,5.37,5.37,0,0,1,1.13,3.75V138l1.91.33v1.47h-6.13v-1.47l1.91-.33v-6.16a3.38,3.38,0,0,0-.68-2.32,2.54,2.54,0,0,0-2-.75,3.37,3.37,0,0,0-1.72.45,3.86,3.86,0,0,0-1.29,1.22V138l1.91.33v1.47h-6.13Z"/><path class="cls-24" d="M334.31,139.75c-.07-.34-.13-.65-.17-.92s-.06-.55-.08-.82a5.63,5.63,0,0,1-1.67,1.42,4.77,4.77,0,0,1-5.15-.4,3.53,3.53,0,0,1-1-2.72,3.16,3.16,0,0,1,1.46-2.78,7,7,0,0,1,4-1h2.38v-1.48a2.3,2.3,0,0,0-.7-1.76,2.76,2.76,0,0,0-2-.65,4.75,4.75,0,0,0-1.53.22,2.84,2.84,0,0,0-1.07.61l-.25,1.34h-1.78v-2.47a6.74,6.74,0,0,1,2.1-1.1,8.21,8.21,0,0,1,2.67-.42,5.32,5.32,0,0,1,3.49,1.1,3.87,3.87,0,0,1,1.34,3.15v6.59l0,.47.94.13v1.47Zm-3.72-1.68a4.16,4.16,0,0,0,2.1-.55,3.42,3.42,0,0,0,1.36-1.33v-2.08h-2.46a3.56,3.56,0,0,0-2.25.65,2,2,0,0,0-.82,1.6,1.6,1.6,0,0,0,.51,1.27A2.4,2.4,0,0,0,330.59,138.07Z"/><path class="cls-24" d="M342.19,134.15h-2.31V122.69h2.31Zm0,5.6h-2.31v-2.39h2.31Z"/><path class="cls-24" d="M350.48,138.28l1.26-.18,6-15.41h2l5.86,15.41,1.25.18v1.47h-4.9v-1.47l1.29-.22-1.12-3.15h-6.83l-1.16,3.15,1.28.22v1.47h-4.88ZM356,133h5.41l-2.64-7.32h-.07Z"/><path class="cls-24" d="M368.47,133.65a8.31,8.31,0,0,1,1.33-4.93,4.29,4.29,0,0,1,3.69-1.88,4.52,4.52,0,0,1,2.1.47,4.09,4.09,0,0,1,1.51,1.36l.21-1.59h1.95v12.51a5.33,5.33,0,0,1-1.37,3.87,5.18,5.18,0,0,1-3.9,1.42,8.56,8.56,0,0,1-2-.26,7.28,7.28,0,0,1-1.88-.68l.6-1.79a7.44,7.44,0,0,0,1.52.56,6.92,6.92,0,0,0,1.71.22,2.78,2.78,0,0,0,2.27-.87,3.75,3.75,0,0,0,.72-2.47v-1.21a4,4,0,0,1-1.49,1.21,4.65,4.65,0,0,1-2,.41,4.42,4.42,0,0,1-3.67-1.69,6.88,6.88,0,0,1-1.33-4.41Zm2.31.25a5.28,5.28,0,0,0,.8,3.07,2.81,2.81,0,0,0,2.46,1.16,3,3,0,0,0,1.75-.48,3.56,3.56,0,0,0,1.16-1.34v-5.84a3.59,3.59,0,0,0-1.16-1.28,3,3,0,0,0-1.72-.47,2.68,2.68,0,0,0-2.47,1.38,6.83,6.83,0,0,0-.82,3.55Z"/><path class="cls-24" d="M382.05,133.3a7,7,0,0,1,1.52-4.64,5.63,5.63,0,0,1,8.29,0,6.94,6.94,0,0,1,1.53,4.64v.26a7,7,0,0,1-1.52,4.64,5.67,5.67,0,0,1-8.3,0,7,7,0,0,1-1.52-4.63Zm2.31.26a6,6,0,0,0,.85,3.32,3,3,0,0,0,5,0,6,6,0,0,0,.85-3.32v-.26a6,6,0,0,0-.85-3.32,3.06,3.06,0,0,0-5,0,6.08,6.08,0,0,0-.84,3.32Z"/><path class="cls-24" d="M395.5,128.56v-1.48h4l.23,1.83a4.5,4.5,0,0,1,1.33-1.52,3.05,3.05,0,0,1,1.81-.55,3.48,3.48,0,0,1,.55,0,3.27,3.27,0,0,1,.44.09l-.3,2.14-1.31-.07a2.71,2.71,0,0,0-1.54.43,2.88,2.88,0,0,0-1,1.2V138l1.91.33v1.47H395.5v-1.47l1.91-.33v-9.06Z"/><path class="cls-24" d="M413.7,139.75c-.07-.34-.12-.65-.16-.92s-.07-.55-.09-.82a5.51,5.51,0,0,1-1.67,1.42,4.77,4.77,0,0,1-5.15-.4,3.56,3.56,0,0,1-1-2.72,3.16,3.16,0,0,1,1.46-2.78,7,7,0,0,1,4-1h2.38v-1.48a2.27,2.27,0,0,0-.7-1.76,2.75,2.75,0,0,0-2-.65,4.79,4.79,0,0,0-1.53.22,2.84,2.84,0,0,0-1.07.61l-.24,1.34h-1.79v-2.47a6.74,6.74,0,0,1,2.1-1.1,8.21,8.21,0,0,1,2.67-.42,5.35,5.35,0,0,1,3.5,1.1,3.86,3.86,0,0,1,1.33,3.15v6.11c0,.16,0,.32,0,.48a3.71,3.71,0,0,0,0,.47l.93.13v1.47ZM410,138.07a4.15,4.15,0,0,0,2.09-.55,3.35,3.35,0,0,0,1.36-1.33v-2.08H411a3.55,3.55,0,0,0-2.24.65,2,2,0,0,0-.83,1.6,1.57,1.57,0,0,0,.52,1.27A2.36,2.36,0,0,0,410,138.07Z"/><path class="cls-24" d="M429,128.56l-1.52.24,2.61,7.22.21.91h.07l.22-.91,2.53-7.22-1.53-.24v-1.48h4.9v1.48l-1.05.18-4.25,11H429.4l-4.3-11-1-.18v-1.48H429Z"/><path class="cls-24" d="M446.1,139.75c-.07-.34-.12-.65-.16-.92a7.58,7.58,0,0,1-.08-.82,5.63,5.63,0,0,1-1.67,1.42,4.26,4.26,0,0,1-2.14.57,4.21,4.21,0,0,1-3-1,3.53,3.53,0,0,1-1-2.72,3.15,3.15,0,0,1,1.45-2.78,7.08,7.08,0,0,1,4-1h2.38v-1.48a2.28,2.28,0,0,0-.71-1.76,2.74,2.74,0,0,0-1.95-.65,4.75,4.75,0,0,0-1.53.22,2.88,2.88,0,0,0-1.08.61l-.24,1.34h-1.78v-2.47a6.58,6.58,0,0,1,2.09-1.1,8.23,8.23,0,0,1,2.68-.42,5.34,5.34,0,0,1,3.49,1.1,3.86,3.86,0,0,1,1.33,3.15v6.11c0,.16,0,.32,0,.48a3.71,3.71,0,0,0,0,.47l.94.13v1.47Zm-3.71-1.68a4.22,4.22,0,0,0,2.1-.55,3.48,3.48,0,0,0,1.36-1.33v-2.08h-2.47a3.55,3.55,0,0,0-2.24.65,2,2,0,0,0-.83,1.6,1.61,1.61,0,0,0,.52,1.27A2.36,2.36,0,0,0,442.39,138.07Z"/><path class="cls-24" d="M450.59,138.28l1.91-.33v-9.06l-1.91-.33v-1.48h4l.15,1.65a4.15,4.15,0,0,1,1.57-1.4,4.79,4.79,0,0,1,2.23-.49,3.94,3.94,0,0,1,2.17.59,3.52,3.52,0,0,1,1.36,1.75,4.84,4.84,0,0,1,1.59-1.71,4.14,4.14,0,0,1,2.29-.63,3.79,3.79,0,0,1,3.07,1.33,6.08,6.08,0,0,1,1.13,4V138l1.91.33v1.47h-6.14v-1.47l1.91-.33v-5.8a4.23,4.23,0,0,0-.65-2.66,2.35,2.35,0,0,0-1.91-.77,2.43,2.43,0,0,0-1.94.85,3.72,3.72,0,0,0-.85,2.13V138l1.91.33v1.47h-6.12v-1.47l1.91-.33v-5.8a4.1,4.1,0,0,0-.67-2.61,2.3,2.3,0,0,0-1.91-.82,3.18,3.18,0,0,0-1.74.43,2.77,2.77,0,0,0-1,1.22V138l1.91.33v1.47h-6.13Z"/><path class="cls-24" d="M473.62,133.3a7,7,0,0,1,1.52-4.64,5.63,5.63,0,0,1,8.29,0A6.94,6.94,0,0,1,485,133.3v.26a7,7,0,0,1-1.52,4.64,5.67,5.67,0,0,1-8.3,0,7,7,0,0,1-1.52-4.63Zm2.31.26a6,6,0,0,0,.85,3.32,3,3,0,0,0,5,0,6,6,0,0,0,.85-3.32v-.26a6,6,0,0,0-.85-3.32,3.06,3.06,0,0,0-5,0,6.08,6.08,0,0,0-.84,3.32Z"/><path class="cls-24" d="M496.78,131.06H495l-.37-1.52a3.19,3.19,0,0,0-1.06-.64,4.12,4.12,0,0,0-1.45-.24,2.67,2.67,0,0,0-1.83.54,1.68,1.68,0,0,0-.6,1.3,1.45,1.45,0,0,0,.53,1.18,5.37,5.37,0,0,0,2.14.77,9.3,9.3,0,0,1,3.58,1.4,2.84,2.84,0,0,1,1.17,2.38,3.27,3.27,0,0,1-1.37,2.73,5.72,5.72,0,0,1-3.56,1,9.35,9.35,0,0,1-2.59-.33,7.06,7.06,0,0,1-2.05-1l0-2.89h1.74l.43,1.69a2.37,2.37,0,0,0,1.09.53,5.9,5.9,0,0,0,1.4.17,3.25,3.25,0,0,0,1.92-.5,1.53,1.53,0,0,0,.7-1.31,1.55,1.55,0,0,0-.58-1.25,5.41,5.41,0,0,0-2.2-.86,9.15,9.15,0,0,1-3.48-1.37,2.77,2.77,0,0,1-1.17-2.34,3.32,3.32,0,0,1,1.32-2.64,5.19,5.19,0,0,1,3.43-1.09,8.34,8.34,0,0,1,2.59.38,5.39,5.39,0,0,1,1.91,1Z"/><path class="cls-24" d="M504.93,138.28l1.91-.33v-9.06l-1.91-.33v-1.48h4l.17,1.88a4.56,4.56,0,0,1,1.59-1.56,4.22,4.22,0,0,1,2.17-.56A4.15,4.15,0,0,1,516,128a5.28,5.28,0,0,1,1.12,3.71V138l1.91.33v1.47h-6.13v-1.47l1.91-.33V131.8a3.44,3.44,0,0,0-.66-2.38,2.65,2.65,0,0,0-2-.7,3.28,3.28,0,0,0-1.77.48,3.43,3.43,0,0,0-1.22,1.31V138l1.91.33v1.47h-6.13Z"/><path class="cls-24" d="M520.61,133.3a7,7,0,0,1,1.52-4.64,5.64,5.64,0,0,1,8.3,0A6.93,6.93,0,0,1,532,133.3v.26a6.93,6.93,0,0,1-1.52,4.64,5.67,5.67,0,0,1-8.3,0,7,7,0,0,1-1.52-4.63Zm2.31.26a6,6,0,0,0,.85,3.32,3,3,0,0,0,5,0,6,6,0,0,0,.86-3.32v-.26a6,6,0,0,0-.86-3.32,3.06,3.06,0,0,0-5,0,6.08,6.08,0,0,0-.84,3.32Z"/><path class="cls-24" d="M543.77,131.06H542l-.37-1.52a3.1,3.1,0,0,0-1.06-.64,4.12,4.12,0,0,0-1.45-.24,2.67,2.67,0,0,0-1.83.54,1.68,1.68,0,0,0-.6,1.3,1.45,1.45,0,0,0,.53,1.18,5.37,5.37,0,0,0,2.15.77,9.31,9.31,0,0,1,3.57,1.4,2.84,2.84,0,0,1,1.17,2.38,3.28,3.28,0,0,1-1.36,2.73,5.75,5.75,0,0,1-3.57,1,9.35,9.35,0,0,1-2.59-.33,7.06,7.06,0,0,1-2-1v-2.89h1.73l.43,1.69a2.37,2.37,0,0,0,1.09.53,6,6,0,0,0,1.4.17,3.3,3.3,0,0,0,1.93-.5,1.61,1.61,0,0,0,.11-2.56,5.35,5.35,0,0,0-2.19-.86,9.08,9.08,0,0,1-3.48-1.37,2.75,2.75,0,0,1-1.18-2.34,3.32,3.32,0,0,1,1.32-2.64,5.19,5.19,0,0,1,3.43-1.09,8.34,8.34,0,0,1,2.59.38,5.3,5.3,0,0,1,1.91,1Z"/><path class="cls-24" d="M560.54,139.75c-.07-.34-.13-.65-.17-.92s-.06-.55-.08-.82a5.51,5.51,0,0,1-1.67,1.42,4.77,4.77,0,0,1-5.15-.4,3.53,3.53,0,0,1-1-2.72,3.16,3.16,0,0,1,1.46-2.78,7,7,0,0,1,4-1h2.38v-1.48a2.3,2.3,0,0,0-.7-1.76,2.76,2.76,0,0,0-2-.65,4.75,4.75,0,0,0-1.53.22,2.84,2.84,0,0,0-1.07.61l-.25,1.34H553v-2.47a6.74,6.74,0,0,1,2.1-1.1,8.21,8.21,0,0,1,2.67-.42,5.32,5.32,0,0,1,3.49,1.1,3.87,3.87,0,0,1,1.34,3.15v6.59l0,.47.94.13v1.47Zm-3.72-1.68a4.16,4.16,0,0,0,2.1-.55,3.42,3.42,0,0,0,1.36-1.33v-2.08h-2.46a3.56,3.56,0,0,0-2.25.65,2,2,0,0,0-.82,1.6,1.6,1.6,0,0,0,.51,1.27A2.4,2.4,0,0,0,556.82,138.07Z"/><path class="cls-24" d="M565.2,143.14l1.91-.33V128.89l-1.91-.33v-1.48h3.89l.21,1.54a4.22,4.22,0,0,1,1.54-1.32,4.58,4.58,0,0,1,2.11-.46,4.2,4.2,0,0,1,3.66,1.87,8.47,8.47,0,0,1,1.31,4.94v.25a7,7,0,0,1-1.32,4.42A4.33,4.33,0,0,1,573,140a5,5,0,0,1-2.05-.39,3.91,3.91,0,0,1-1.51-1.17v4.37l1.91.33v1.49H565.2Zm10.4-9.49a6.73,6.73,0,0,0-.85-3.55,2.75,2.75,0,0,0-2.51-1.38,3.05,3.05,0,0,0-1.68.44,3.35,3.35,0,0,0-1.14,1.22v6.18a3,3,0,0,0,2.85,1.64,2.84,2.84,0,0,0,2.48-1.2,5.28,5.28,0,0,0,.85-3.1Z"/><path class="cls-24" d="M580,128.56v-1.48h4l.22,1.83a4.5,4.5,0,0,1,1.33-1.52,3.07,3.07,0,0,1,1.81-.55,3.69,3.69,0,0,1,.56,0l.44.09-.31,2.14-1.31-.07a2.71,2.71,0,0,0-1.54.43,2.88,2.88,0,0,0-1,1.2V138l1.91.33v1.47H580v-1.47l1.91-.33v-9.06Z"/><path class="cls-24" d="M589.72,133.3a7,7,0,0,1,1.52-4.64,5.63,5.63,0,0,1,8.29,0,6.94,6.94,0,0,1,1.53,4.64v.26a7,7,0,0,1-1.52,4.64,5.67,5.67,0,0,1-8.3,0,6.92,6.92,0,0,1-1.52-4.63Zm2.31.26a6,6,0,0,0,.84,3.32,3.06,3.06,0,0,0,5,0,6,6,0,0,0,.85-3.32v-.26a6,6,0,0,0-.85-3.32,3.06,3.06,0,0,0-5,0,6.08,6.08,0,0,0-.84,3.32Z"/><path class="cls-24" d="M603,128.79v-1.71h2v-1.61a4.36,4.36,0,0,1,1.06-3.14,3.93,3.93,0,0,1,3-1.1,5.49,5.49,0,0,1,.8.06c.27,0,.57.11.9.18l-.29,1.76a4.79,4.79,0,0,0-.5-.08c-.2,0-.41,0-.62,0a1.85,1.85,0,0,0-1.51.61,2.68,2.68,0,0,0-.49,1.75v1.61h2.64v1.71h-2.64V138l1.91.33v1.47H603v-1.47l1.91-.33v-9.16Z"/><path class="cls-24" d="M620.77,137.88a4.3,4.3,0,0,1-1.54,1.57,4.19,4.19,0,0,1-2.17.55,4.08,4.08,0,0,1-3.23-1.32,6.19,6.19,0,0,1-1.16-4.13v-5.66l-1.45-.33v-1.48H615v7.5a4.66,4.66,0,0,0,.6,2.78,2.22,2.22,0,0,0,1.86.77,3.85,3.85,0,0,0,2-.5,3.1,3.1,0,0,0,1.21-1.41v-7.33l-1.7-.33v-1.48h4V138l1.45.33v1.47h-3.53Z"/><path class="cls-24" d="M625.94,138.28l1.91-.33v-9.06l-1.91-.33v-1.48h4l.17,1.88a4.62,4.62,0,0,1,1.58-1.56,4.29,4.29,0,0,1,2.18-.56A4.14,4.14,0,0,1,637,128a5.28,5.28,0,0,1,1.13,3.71V138l1.91.33v1.47h-6.13v-1.47l1.91-.33V131.8a3.44,3.44,0,0,0-.66-2.38,2.65,2.65,0,0,0-2-.7,3.26,3.26,0,0,0-1.77.48,3.43,3.43,0,0,0-1.22,1.31V138l1.91.33v1.47h-6.13Z"/><path class="cls-24" d="M650.15,138.24a4.08,4.08,0,0,1-1.52,1.32,4.72,4.72,0,0,1-2.08.44,4.33,4.33,0,0,1-3.62-1.68,7,7,0,0,1-1.31-4.42v-.25a8.38,8.38,0,0,1,1.31-4.93,4.19,4.19,0,0,1,3.65-1.88,4.44,4.44,0,0,1,2,.42,3.87,3.87,0,0,1,1.47,1.2v-5.17l-1.91-.33v-1.49h4.22V138l1.91.33v1.47h-3.91Zm-6.22-4.34a5.44,5.44,0,0,0,.78,3.07,2.74,2.74,0,0,0,2.43,1.16,3.06,3.06,0,0,0,1.73-.47,3.6,3.6,0,0,0,1.16-1.33v-5.88a3.55,3.55,0,0,0-1.16-1.27,3,3,0,0,0-1.71-.46,2.62,2.62,0,0,0-2.44,1.37,7,7,0,0,0-.79,3.56Z"/><path class="cls-24" d="M664.28,139.75c-.07-.34-.12-.65-.16-.92A7.58,7.58,0,0,1,664,138a5.76,5.76,0,0,1-1.67,1.42,4.26,4.26,0,0,1-2.14.57,4.21,4.21,0,0,1-3-1,3.53,3.53,0,0,1-1-2.72,3.15,3.15,0,0,1,1.45-2.78,7.08,7.08,0,0,1,4-1H664v-1.48a2.28,2.28,0,0,0-.71-1.76,2.75,2.75,0,0,0-2-.65,4.72,4.72,0,0,0-1.52.22,2.88,2.88,0,0,0-1.08.61l-.24,1.34h-1.78v-2.47a6.58,6.58,0,0,1,2.09-1.1,8.23,8.23,0,0,1,2.68-.42,5.34,5.34,0,0,1,3.49,1.1,3.86,3.86,0,0,1,1.33,3.15v6.11c0,.16,0,.32,0,.48a3.71,3.71,0,0,0,0,.47l.94.13v1.47Zm-3.71-1.68a4.22,4.22,0,0,0,2.1-.55,3.48,3.48,0,0,0,1.36-1.33v-2.08h-2.47a3.55,3.55,0,0,0-2.24.65,2,2,0,0,0-.83,1.6,1.61,1.61,0,0,0,.52,1.27A2.36,2.36,0,0,0,660.57,138.07Z"/><path class="cls-24" d="M669.23,128.56v-1.48h4l.22,1.83a4.61,4.61,0,0,1,1.33-1.52,3.07,3.07,0,0,1,1.81-.55,3.6,3.6,0,0,1,.56,0l.44.09-.3,2.14-1.32-.07a2.65,2.65,0,0,0-1.53.43,2.73,2.73,0,0,0-1,1.2V138l1.91.33v1.47h-6.13v-1.47l1.91-.33v-9.06Z"/><path class="cls-24" d="M684.66,138.28l1.91-.33v-9.06l-1.91-.33v-1.48h4l.15,1.65a4.15,4.15,0,0,1,1.57-1.4,4.79,4.79,0,0,1,2.23-.49,3.94,3.94,0,0,1,2.17.59,3.52,3.52,0,0,1,1.36,1.75,4.84,4.84,0,0,1,1.59-1.71,4.14,4.14,0,0,1,2.29-.63,3.79,3.79,0,0,1,3.07,1.33,6.08,6.08,0,0,1,1.13,4V138l1.91.33v1.47H700v-1.47l1.91-.33v-5.8a4.23,4.23,0,0,0-.65-2.66,2.35,2.35,0,0,0-1.91-.77,2.43,2.43,0,0,0-1.94.85,3.72,3.72,0,0,0-.85,2.13V138l1.91.33v1.47h-6.12v-1.47l1.91-.33v-5.8a4.1,4.1,0,0,0-.67-2.61,2.3,2.3,0,0,0-1.91-.82,3.18,3.18,0,0,0-1.74.43,2.77,2.77,0,0,0-1,1.22V138l1.91.33v1.47h-6.13Z"/><path class="cls-24" d="M716.07,139.75c-.07-.34-.13-.65-.17-.92s-.06-.55-.08-.82a5.51,5.51,0,0,1-1.67,1.42A4.77,4.77,0,0,1,709,139a3.53,3.53,0,0,1-1-2.72,3.16,3.16,0,0,1,1.46-2.78,7,7,0,0,1,4-1h2.38v-1.48a2.27,2.27,0,0,0-.7-1.76,2.75,2.75,0,0,0-2-.65,4.75,4.75,0,0,0-1.53.22,2.84,2.84,0,0,0-1.07.61l-.25,1.34h-1.78v-2.47a6.74,6.74,0,0,1,2.1-1.1,8.21,8.21,0,0,1,2.67-.42,5.32,5.32,0,0,1,3.49,1.1,3.87,3.87,0,0,1,1.34,3.15v6.59l0,.47.94.13v1.47Zm-3.72-1.68a4.16,4.16,0,0,0,2.1-.55,3.42,3.42,0,0,0,1.36-1.33v-2.08h-2.46a3.53,3.53,0,0,0-2.24.65,2,2,0,0,0-.83,1.6,1.6,1.6,0,0,0,.51,1.27A2.4,2.4,0,0,0,712.35,138.07Z"/><path class="cls-24" d="M721,138.28l1.91-.33v-9.06l-1.91-.33v-1.48h4.22V138l1.91.33v1.47H721Zm4.22-14.45h-2.31v-2.36h2.31Z"/><path class="cls-24" d="M738.6,131.06h-1.73l-.38-1.52a3,3,0,0,0-1.06-.64,4,4,0,0,0-1.44-.24,2.67,2.67,0,0,0-1.83.54,1.68,1.68,0,0,0-.6,1.3,1.45,1.45,0,0,0,.53,1.18,5.31,5.31,0,0,0,2.14.77,9.37,9.37,0,0,1,3.58,1.4,2.84,2.84,0,0,1,1.17,2.38,3.29,3.29,0,0,1-1.37,2.73,5.75,5.75,0,0,1-3.57,1,9.41,9.41,0,0,1-2.59-.33,7.31,7.31,0,0,1-2.05-1v-2.89h1.74l.43,1.69a2.38,2.38,0,0,0,1.08.53,6,6,0,0,0,1.4.17,3.28,3.28,0,0,0,1.93-.5,1.53,1.53,0,0,0,.7-1.31,1.55,1.55,0,0,0-.58-1.25,5.41,5.41,0,0,0-2.2-.86,9.08,9.08,0,0,1-3.48-1.37,2.77,2.77,0,0,1-1.17-2.34,3.32,3.32,0,0,1,1.32-2.64,5.19,5.19,0,0,1,3.43-1.09,8.34,8.34,0,0,1,2.59.38,5.39,5.39,0,0,1,1.91,1Z"/><path class="cls-24" d="M746.76,138.28l1.91-.33v-9.06l-1.91-.33v-1.48h4l.17,1.88a4.62,4.62,0,0,1,1.58-1.56,4.29,4.29,0,0,1,2.18-.56,4.12,4.12,0,0,1,3.17,1.2,5.28,5.28,0,0,1,1.13,3.71V138l1.91.33v1.47h-6.13v-1.47l1.91-.33V131.8a3.44,3.44,0,0,0-.66-2.38,2.65,2.65,0,0,0-2-.7,3.26,3.26,0,0,0-1.77.48,3.43,3.43,0,0,0-1.22,1.31V138l1.91.33v1.47h-6.13Z"/><path class="cls-24" d="M762.44,133.3a7,7,0,0,1,1.52-4.64,5.63,5.63,0,0,1,8.29,0,6.94,6.94,0,0,1,1.53,4.64v.26a6.93,6.93,0,0,1-1.52,4.64,5.67,5.67,0,0,1-8.3,0,7,7,0,0,1-1.52-4.63Zm2.31.26a6,6,0,0,0,.85,3.32,3,3,0,0,0,5,0,6,6,0,0,0,.85-3.32v-.26a6,6,0,0,0-.85-3.32,3.06,3.06,0,0,0-5,0,6.08,6.08,0,0,0-.84,3.32Z"/><path class="cls-24" d="M781.58,143.14l1.91-.33V128.89l-1.91-.33v-1.48h3.89l.21,1.54a4.14,4.14,0,0,1,1.54-1.32,4.54,4.54,0,0,1,2.1-.46,4.2,4.2,0,0,1,3.66,1.87,8.39,8.39,0,0,1,1.31,4.94v.25a7,7,0,0,1-1.31,4.42,4.34,4.34,0,0,1-3.62,1.68,5.08,5.08,0,0,1-2.06-.39,4,4,0,0,1-1.51-1.17v4.37l1.91.33v1.49h-6.12ZM792,133.65a6.74,6.74,0,0,0-.84-3.55,2.76,2.76,0,0,0-2.51-1.38,3.06,3.06,0,0,0-1.69.44,3.35,3.35,0,0,0-1.14,1.22v6.18a3.05,3.05,0,0,0,2.85,1.64,2.85,2.85,0,0,0,2.49-1.2,5.28,5.28,0,0,0,.84-3.1Z"/><path class="cls-24" d="M796.39,138.28l1.91-.33v-9.06l-1.91-.33v-1.48h4.22V138l1.91.33v1.47h-6.13Zm4.22-14.45H798.3v-2.36h2.31Z"/><path class="cls-24" d="M804,123v-1.49h4.22V138l1.91.33v1.47H804v-1.47l1.91-.33V123.29Z"/><path class="cls-24" d="M820.11,139.75c-.07-.34-.13-.65-.17-.92s-.06-.55-.08-.82a5.51,5.51,0,0,1-1.67,1.42A4.77,4.77,0,0,1,813,139a3.53,3.53,0,0,1-1-2.72,3.16,3.16,0,0,1,1.46-2.78,7,7,0,0,1,4-1h2.38v-1.48a2.3,2.3,0,0,0-.7-1.76,2.75,2.75,0,0,0-2-.65,4.75,4.75,0,0,0-1.53.22,2.84,2.84,0,0,0-1.07.61l-.25,1.34h-1.78v-2.47a6.74,6.74,0,0,1,2.1-1.1,8.21,8.21,0,0,1,2.67-.42,5.32,5.32,0,0,1,3.49,1.1,3.87,3.87,0,0,1,1.34,3.15v6.59l0,.47.94.13v1.47Zm-3.72-1.68a4.16,4.16,0,0,0,2.1-.55,3.42,3.42,0,0,0,1.36-1.33v-2.08h-2.46a3.58,3.58,0,0,0-2.25.65,2,2,0,0,0-.82,1.6,1.6,1.6,0,0,0,.51,1.27A2.4,2.4,0,0,0,816.39,138.07Z"/><path class="cls-24" d="M825.05,128.56v-1.48h4l.22,1.83a4.5,4.5,0,0,1,1.33-1.52,3.07,3.07,0,0,1,1.81-.55,3.69,3.69,0,0,1,.56,0l.43.09-.3,2.14-1.31-.07a2.71,2.71,0,0,0-1.54.43,2.88,2.88,0,0,0-1,1.2V138l1.91.33v1.47h-6.13v-1.47L827,138v-9.06Z"/><path class="cls-24" d="M272.76,151.5a6.58,6.58,0,0,1,4.28,1.24,4.3,4.3,0,0,1,1.49,3.51,3.67,3.67,0,0,1-.7,2.2,4.52,4.52,0,0,1-2,1.51,3.54,3.54,0,0,1,2,1.49,4.91,4.91,0,0,1,.62,2.55v1.37a2.49,2.49,0,0,0,.2,1.16.81.81,0,0,0,.65.44l.57.07v1.51h-1.25a2.07,2.07,0,0,1-1.91-.93,4.33,4.33,0,0,1-.57-2.28V164a3.1,3.1,0,0,0-.81-2.24,2.87,2.87,0,0,0-2.17-.84h-3.7v5.81l1.91.33v1.47h-6.13v-1.47l1.91-.33V153.31l-1.91-.33V151.5h7.49Zm-3.27,7.62h3a4.37,4.37,0,0,0,2.81-.74,2.67,2.67,0,0,0,.88-2.15,2.77,2.77,0,0,0-.85-2.14,3.74,3.74,0,0,0-2.61-.78h-3.27Z"/><path class="cls-24" d="M287.51,168.8A5.36,5.36,0,0,1,283.3,167a6.66,6.66,0,0,1-1.56-4.58V162a6.48,6.48,0,0,1,1.61-4.51,5,5,0,0,1,3.81-1.8,4.8,4.8,0,0,1,3.87,1.55,6.12,6.12,0,0,1,1.32,4.12v1.44h-8.22l0,.06a5,5,0,0,0,.93,3,3,3,0,0,0,2.49,1.18,5.89,5.89,0,0,0,2.06-.34,4.7,4.7,0,0,0,1.53-.92l.9,1.5a5.42,5.42,0,0,1-1.8,1.11A7.18,7.18,0,0,1,287.51,168.8Zm-.35-11.34a2.49,2.49,0,0,0-2,1,4.64,4.64,0,0,0-1,2.45l0,.06H290v-.31a3.56,3.56,0,0,0-.72-2.27A2.6,2.6,0,0,0,287.16,157.46Z"/><path class="cls-24" d="M300.32,167a3.11,3.11,0,0,0,2-.71,2.17,2.17,0,0,0,.88-1.74h2.07l0,.07a3.55,3.55,0,0,1-1.45,2.91,5.34,5.34,0,0,1-3.54,1.27,5.11,5.11,0,0,1-4.22-1.8,7,7,0,0,1-1.46-4.54V162a7,7,0,0,1,1.46-4.52,5.12,5.12,0,0,1,4.22-1.81,7.19,7.19,0,0,1,2.74.5,5.52,5.52,0,0,1,2,1.39l.1,2.81h-1.84l-.5-2a3.12,3.12,0,0,0-1.05-.65,4.18,4.18,0,0,0-1.46-.24,2.77,2.77,0,0,0-2.59,1.3A6.16,6.16,0,0,0,297,162v.49a6.17,6.17,0,0,0,.77,3.24A2.8,2.8,0,0,0,300.32,167Z"/><path class="cls-24" d="M307.58,162.1a7,7,0,0,1,1.52-4.64,5.63,5.63,0,0,1,8.29,0,6.94,6.94,0,0,1,1.53,4.64v.26A7,7,0,0,1,317.4,167a5.67,5.67,0,0,1-8.3,0,6.92,6.92,0,0,1-1.52-4.63Zm2.3.26a6,6,0,0,0,.85,3.32,3.06,3.06,0,0,0,5,0,6,6,0,0,0,.85-3.32v-.26a6,6,0,0,0-.85-3.32,3.06,3.06,0,0,0-5,0,6.08,6.08,0,0,0-.85,3.32Z"/><path class="cls-24" d="M320.69,167.08l1.91-.33v-9.06l-1.91-.33v-1.49h4l.17,1.89a4.62,4.62,0,0,1,1.58-1.56,4.29,4.29,0,0,1,2.18-.56,4.14,4.14,0,0,1,3.17,1.2,5.28,5.28,0,0,1,1.13,3.71v6.2l1.91.33v1.47h-6.13v-1.47l1.91-.33V160.6a3.44,3.44,0,0,0-.66-2.38,2.65,2.65,0,0,0-2-.7,3.26,3.26,0,0,0-1.77.48,3.43,3.43,0,0,0-1.22,1.31v7.44l1.91.33v1.47h-6.13Z"/><path class="cls-24" d="M336.16,167.08l1.91-.33V152.09l-1.91-.33v-1.49h4.22v7.29a4.62,4.62,0,0,1,1.6-1.42,4.5,4.5,0,0,1,2.11-.5,4.11,4.11,0,0,1,3.17,1.22,5.37,5.37,0,0,1,1.12,3.75v6.14l1.91.33v1.47h-6.13v-1.47l1.91-.33v-6.16a3.38,3.38,0,0,0-.67-2.32,2.57,2.57,0,0,0-2-.75,3.41,3.41,0,0,0-1.73.45,3.73,3.73,0,0,0-1.28,1.22v7.56l1.91.33v1.47h-6.13Z"/><path class="cls-24" d="M357.64,168.8a5.35,5.35,0,0,1-4.21-1.76,6.62,6.62,0,0,1-1.57-4.58V162a6.52,6.52,0,0,1,1.61-4.51,5,5,0,0,1,3.82-1.8,4.81,4.81,0,0,1,3.87,1.55,6.12,6.12,0,0,1,1.32,4.12v1.44h-8.23l0,.06a5,5,0,0,0,.92,3,3,3,0,0,0,2.5,1.18,5.89,5.89,0,0,0,2.06-.34,4.76,4.76,0,0,0,1.52-.92l.91,1.5a5.63,5.63,0,0,1-1.8,1.11A7.21,7.21,0,0,1,357.64,168.8Zm-.35-11.34a2.46,2.46,0,0,0-2,1,4.56,4.56,0,0,0-1,2.45l0,.06h5.85v-.31a3.51,3.51,0,0,0-.73-2.27A2.57,2.57,0,0,0,357.29,157.46Z"/><path class="cls-24" d="M370.45,167a3.13,3.13,0,0,0,2-.71,2.19,2.19,0,0,0,.87-1.74h2.08l0,.07a3.56,3.56,0,0,1-1.46,2.91,5.32,5.32,0,0,1-3.53,1.27,5.13,5.13,0,0,1-4.23-1.8,7,7,0,0,1-1.46-4.54V162a6.94,6.94,0,0,1,1.47-4.52,5.09,5.09,0,0,1,4.22-1.81,7.18,7.18,0,0,1,2.73.5,5.52,5.52,0,0,1,2,1.39l.11,2.81h-1.84l-.51-2a3,3,0,0,0-1.05-.65,4.12,4.12,0,0,0-1.45-.24,2.79,2.79,0,0,0-2.6,1.3,6.16,6.16,0,0,0-.78,3.21v.49a6.17,6.17,0,0,0,.78,3.24A2.79,2.79,0,0,0,370.45,167Z"/><path class="cls-24" d="M377.69,167.08l1.91-.33v-9.06l-1.91-.33v-1.49h4.22v10.88l1.91.33v1.47h-6.13Zm4.22-14.45H379.6v-2.36h2.31Z"/><path class="cls-24" d="M385.12,167.08l1.91-.33v-9.06l-1.91-.33v-1.49h4l.16,1.66a4.15,4.15,0,0,1,1.57-1.4,4.78,4.78,0,0,1,2.22-.49,4,4,0,0,1,2.18.59,3.52,3.52,0,0,1,1.36,1.75,4.91,4.91,0,0,1,1.58-1.71,4.2,4.2,0,0,1,2.3-.63,3.79,3.79,0,0,1,3.07,1.33,6.08,6.08,0,0,1,1.13,4v5.78l1.91.33v1.47h-6.14v-1.47l1.91-.33V161a4.23,4.23,0,0,0-.65-2.66,2.36,2.36,0,0,0-1.91-.77,2.43,2.43,0,0,0-1.94.85,3.65,3.65,0,0,0-.85,2.13v6.25l1.91.33v1.47h-6.13v-1.47l1.91-.33V161a4.17,4.17,0,0,0-.66-2.61,2.31,2.31,0,0,0-1.92-.82,3.15,3.15,0,0,0-1.73.43,2.77,2.77,0,0,0-1,1.22v7.58l1.91.33v1.47h-6.13Z"/><path class="cls-24" d="M413.92,168.8a5.36,5.36,0,0,1-4.21-1.76,6.66,6.66,0,0,1-1.56-4.58V162a6.48,6.48,0,0,1,1.61-4.51,5,5,0,0,1,3.81-1.8,4.82,4.82,0,0,1,3.88,1.55,6.17,6.17,0,0,1,1.31,4.12v1.44h-8.22l0,.06a5,5,0,0,0,.93,3,3,3,0,0,0,2.49,1.18,5.89,5.89,0,0,0,2.06-.34,4.7,4.7,0,0,0,1.53-.92l.9,1.5a5.42,5.42,0,0,1-1.8,1.11A7.18,7.18,0,0,1,413.92,168.8Zm-.35-11.34a2.49,2.49,0,0,0-2,1,4.64,4.64,0,0,0-1,2.45l0,.06h5.84v-.31a3.56,3.56,0,0,0-.72-2.27A2.59,2.59,0,0,0,413.57,157.46Z"/><path class="cls-24" d="M420.7,167.08l1.91-.33v-9.06l-1.91-.33v-1.49h4l.16,1.89a4.64,4.64,0,0,1,1.59-1.56,4.26,4.26,0,0,1,2.18-.56,4.14,4.14,0,0,1,3.17,1.2,5.28,5.28,0,0,1,1.13,3.71v6.2l1.91.33v1.47h-6.13v-1.47l1.91-.33V160.6a3.44,3.44,0,0,0-.66-2.38,2.67,2.67,0,0,0-2-.7,3.25,3.25,0,0,0-1.76.48,3.43,3.43,0,0,0-1.22,1.31v7.44l1.91.33v1.47H420.7Z"/><path class="cls-24" d="M440.51,152.82v3.05h2.41v1.72h-2.41v7.69a1.75,1.75,0,0,0,.37,1.26,1.35,1.35,0,0,0,1,.36,6.21,6.21,0,0,0,.69-.05l.64-.11.31,1.58a3,3,0,0,1-1,.35,6,6,0,0,1-1.26.13A3,3,0,0,1,439,168a3.67,3.67,0,0,1-.84-2.67v-7.69h-2v-1.72h2v-3.05Z"/><path class="cls-24" d="M445.05,162.1a7,7,0,0,1,1.52-4.64,5.63,5.63,0,0,1,8.29,0,6.94,6.94,0,0,1,1.53,4.64v.26a7,7,0,0,1-1.52,4.64,5.67,5.67,0,0,1-8.3,0,7,7,0,0,1-1.52-4.63Zm2.31.26a6,6,0,0,0,.85,3.32,3,3,0,0,0,5,0,6,6,0,0,0,.85-3.32v-.26a6,6,0,0,0-.85-3.32,3.06,3.06,0,0,0-5,0,6.08,6.08,0,0,0-.84,3.32Z"/><path class="cls-24" d="M473,167a4.08,4.08,0,0,1-1.52,1.32,4.72,4.72,0,0,1-2.08.44,4.35,4.35,0,0,1-3.63-1.68,7,7,0,0,1-1.3-4.42v-.25a8.46,8.46,0,0,1,1.3-4.93,4.22,4.22,0,0,1,3.66-1.88,4.44,4.44,0,0,1,2,.42,3.87,3.87,0,0,1,1.47,1.2v-5.17l-1.91-.33v-1.49h4.22v16.48l1.91.33v1.47H473.2Zm-6.22-4.34a5.44,5.44,0,0,0,.78,3.07,2.74,2.74,0,0,0,2.43,1.16,3.06,3.06,0,0,0,1.73-.47,3.6,3.6,0,0,0,1.16-1.33v-5.88a3.55,3.55,0,0,0-1.16-1.27,3,3,0,0,0-1.71-.46,2.62,2.62,0,0,0-2.44,1.37,7,7,0,0,0-.79,3.56Z"/><path class="cls-24" d="M484.66,168.8a5.35,5.35,0,0,1-4.21-1.76,6.62,6.62,0,0,1-1.57-4.58V162a6.52,6.52,0,0,1,1.61-4.51,5,5,0,0,1,3.82-1.8,4.81,4.81,0,0,1,3.87,1.55,6.12,6.12,0,0,1,1.32,4.12v1.44h-8.23l0,.06a5,5,0,0,0,.92,3,3,3,0,0,0,2.5,1.18,5.83,5.83,0,0,0,2-.34,4.7,4.7,0,0,0,1.53-.92l.91,1.5a5.63,5.63,0,0,1-1.8,1.11A7.25,7.25,0,0,1,484.66,168.8Zm-.35-11.34a2.46,2.46,0,0,0-2,1,4.56,4.56,0,0,0-1,2.45l0,.06h5.85v-.31a3.51,3.51,0,0,0-.73-2.27A2.57,2.57,0,0,0,484.31,157.46Z"/><path class="cls-24" d="M505.36,151.49a6,6,0,0,1,4.25,1.41,5.29,5.29,0,0,1,0,7.42,6,6,0,0,1-4.25,1.39h-3.62v5l1.91.33v1.47h-6.12v-1.47l1.91-.33V153.31l-1.91-.33v-1.49h7.83Zm-3.62,8.42h3.62a3.12,3.12,0,0,0,3.46-3.29,3.4,3.4,0,0,0-.86-2.36,3.31,3.31,0,0,0-2.6-.95h-3.62Z"/><path class="cls-24" d="M521.13,168.55c-.07-.34-.13-.65-.17-.92s-.06-.55-.08-.82a5.51,5.51,0,0,1-1.67,1.42,4.77,4.77,0,0,1-5.15-.4,3.53,3.53,0,0,1-1-2.72,3.16,3.16,0,0,1,1.46-2.78,7,7,0,0,1,4-1h2.38v-1.48a2.3,2.3,0,0,0-.7-1.76,2.76,2.76,0,0,0-2-.65,4.75,4.75,0,0,0-1.53.22,2.84,2.84,0,0,0-1.07.61l-.25,1.33h-1.78v-2.46a6.74,6.74,0,0,1,2.1-1.1,8.21,8.21,0,0,1,2.67-.42,5.32,5.32,0,0,1,3.49,1.1,3.87,3.87,0,0,1,1.34,3.15v6.59l0,.47.94.13v1.47Zm-3.72-1.68a4.16,4.16,0,0,0,2.1-.55,3.42,3.42,0,0,0,1.36-1.33v-2.08h-2.46a3.5,3.5,0,0,0-2.25.65,2,2,0,0,0-.82,1.6,1.6,1.6,0,0,0,.51,1.27A2.4,2.4,0,0,0,517.41,166.87Z"/><path class="cls-24" d="M534.61,167a4.05,4.05,0,0,1-1.51,1.32,4.72,4.72,0,0,1-2.08.44,4.34,4.34,0,0,1-3.63-1.68,7,7,0,0,1-1.31-4.42v-.25a8.46,8.46,0,0,1,1.31-4.93,4.2,4.2,0,0,1,3.65-1.88,4.51,4.51,0,0,1,2,.42,4,4,0,0,1,1.47,1.2v-5.17l-1.91-.33v-1.49h4.22v16.48l1.91.33v1.47H534.8Zm-6.22-4.34a5.36,5.36,0,0,0,.79,3.07,2.72,2.72,0,0,0,2.42,1.16,3.09,3.09,0,0,0,1.74-.47,3.69,3.69,0,0,0,1.16-1.33v-5.88a3.74,3.74,0,0,0-1.16-1.27,3.08,3.08,0,0,0-1.71-.46,2.63,2.63,0,0,0-2.45,1.37,7.14,7.14,0,0,0-.79,3.56Z"/><path class="cls-24" d="M540.47,157.36v-1.49h4l.22,1.84a4.5,4.5,0,0,1,1.33-1.52,3.07,3.07,0,0,1,1.81-.55,3.6,3.6,0,0,1,.56,0l.44.09-.31,2.14-1.31-.07a2.71,2.71,0,0,0-1.54.43,2.88,2.88,0,0,0-1,1.2v7.28l1.91.33v1.47h-6.13v-1.47l1.91-.33v-9.06Z"/><path class="cls-24" d="M550.18,162.1a7,7,0,0,1,1.52-4.64,5.63,5.63,0,0,1,8.29,0,6.94,6.94,0,0,1,1.53,4.64v.26A7,7,0,0,1,560,167a5.67,5.67,0,0,1-8.3,0,7,7,0,0,1-1.52-4.63Zm9.62-11.35a2.65,2.65,0,0,1-.7,1.87,2.29,2.29,0,0,1-1.75.76,3.34,3.34,0,0,1-1.74-.55,3.11,3.11,0,0,0-1.5-.54,1.1,1.1,0,0,0-.83.38,1.32,1.32,0,0,0-.35.92l-1.25-.31a2.87,2.87,0,0,1,.68-1.89,2.22,2.22,0,0,1,1.75-.8,3.57,3.57,0,0,1,1.65.55,3.45,3.45,0,0,0,1.59.55,1.1,1.1,0,0,0,.83-.38,1.28,1.28,0,0,0,.35-.93Zm-7.31,11.61a6,6,0,0,0,.85,3.32,3,3,0,0,0,5,0,6,6,0,0,0,.85-3.32v-.26a6,6,0,0,0-.85-3.32,3.06,3.06,0,0,0-5,0,6.08,6.08,0,0,0-.84,3.32Z"/><path class="cls-24" d="M569.42,168.8a5.35,5.35,0,0,1-4.21-1.76,6.62,6.62,0,0,1-1.57-4.58V162a6.52,6.52,0,0,1,1.61-4.51,5,5,0,0,1,3.82-1.8,4.81,4.81,0,0,1,3.87,1.55,6.12,6.12,0,0,1,1.32,4.12v1.44H566l0,.06a5,5,0,0,0,.92,3,3,3,0,0,0,2.5,1.18,5.89,5.89,0,0,0,2.06-.34,4.7,4.7,0,0,0,1.53-.92l.9,1.5a5.52,5.52,0,0,1-1.8,1.11A7.21,7.21,0,0,1,569.42,168.8Zm-.35-11.34a2.46,2.46,0,0,0-2,1,4.56,4.56,0,0,0-1,2.45l0,.06H572v-.31a3.51,3.51,0,0,0-.73-2.27A2.57,2.57,0,0,0,569.07,157.46Z"/><path class="cls-24" d="M586.24,159.86H584.5l-.37-1.52a3.1,3.1,0,0,0-1.06-.64,4.12,4.12,0,0,0-1.45-.24,2.67,2.67,0,0,0-1.83.54,1.68,1.68,0,0,0-.6,1.3,1.45,1.45,0,0,0,.53,1.18,5.37,5.37,0,0,0,2.14.77,9.3,9.3,0,0,1,3.58,1.4,2.83,2.83,0,0,1,1.17,2.38,3.28,3.28,0,0,1-1.36,2.73,5.75,5.75,0,0,1-3.57,1,9.35,9.35,0,0,1-2.59-.33,7.06,7.06,0,0,1-2.05-1v-2.89h1.73l.43,1.69a2.37,2.37,0,0,0,1.09.53,5.9,5.9,0,0,0,1.4.17,3.3,3.3,0,0,0,1.93-.5,1.61,1.61,0,0,0,.11-2.56,5.35,5.35,0,0,0-2.19-.86,9.21,9.21,0,0,1-3.49-1.37,2.77,2.77,0,0,1-1.17-2.34,3.32,3.32,0,0,1,1.32-2.64,5.19,5.19,0,0,1,3.43-1.09,8.34,8.34,0,0,1,2.59.38,5.39,5.39,0,0,1,1.91,1Z"/><path class="cls-24" d="M591.71,163H589.4V151.49h2.31Zm0,5.6H589.4v-2.39h2.31Z"/></svg>