<svg xmlns="http://www.w3.org/2000/svg" xmlns:xlink="http://www.w3.org/1999/xlink" viewBox="0 0 604.47 505.47"><defs><style>.cls-1{fill:url(#Gradiente_sem_nome_36);}.cls-2{fill:#557ad8;}.cls-3{fill:#fff;}.cls-4{fill:#34495e;}.cls-5{fill:#f1c40f;}.cls-6{fill:#e67e22;}.cls-7{fill:#e74c3c;}.cls-8{fill:#2ecc71;}.cls-9{fill:#3498db;}.cls-10{fill:#9b59b6;}</style><radialGradient id="Gradiente_sem_nome_36" cx="302.23" cy="252.74" r="498.58" gradientUnits="userSpaceOnUse"><stop offset="0" stop-color="#fff"/><stop offset="0.03" stop-color="#edf0ff"/><stop offset="0.11" stop-color="#cad3ff"/><stop offset="0.2" stop-color="#acbaff"/><stop offset="0.29" stop-color="#94a6ff"/><stop offset="0.4" stop-color="#8197ff"/><stop offset="0.52" stop-color="#748cff"/><stop offset="0.68" stop-color="#6c86ff"/><stop offset="1" stop-color="#6a84ff"/></radialGradient></defs><title>6-prob2</title><g id="Camada_2" data-name="Camada 2"><g id="Camada_1-2" data-name="Camada 1"><rect class="cls-1" x="1.5" y="1.5" width="601.47" height="502.47"/><path class="cls-2" d="M601.47,3V502.47H3V3H601.47m3-3H0V505.47H604.47V0Z"/><polygon class="cls-3" points="224.58 381.3 224.58 280.08 174.13 228.79 277 126.44 429.25 278.68 429.25 381.3 224.58 381.3"/><path class="cls-2" d="M277,128.55,427.75,279.3V379.8H226.08V279.47L176.25,228.8,277,128.55m0-4.23-2.12,2.11L174.13,226.68l-2.11,2.1,2.09,2.13,49,49.79V382.8H430.75V278.06l-.88-.88L279.12,126.43,277,124.32Z"/><polygon class="cls-4" points="586.5 480.23 536.3 430.03 435.85 430.03 486.07 480.25 586.5 480.23"/><polygon class="cls-5" points="115.92 480.25 15.48 379.8 15.48 480.25 115.92 480.25"/><polygon class="cls-6" points="157.5 153.4 15.48 11.37 15.48 153.4 157.5 153.4"/><polygon class="cls-7" points="157.5 341.19 15.48 199.17 15.48 341.19 157.5 341.19"/><polygon class="cls-8" points="582.2 82.4 511.17 11.37 511.17 82.4 582.2 82.4"/><polygon class="cls-9" points="582.2 213.12 511.17 142.1 511.17 213.12 582.2 213.12"/><rect class="cls-10" x="511.17" y="288.82" width="71.03" height="71.03" transform="translate(1093.37 648.67) rotate(-180)"/></g></g></svg>