<svg id="Camada_1" data-name="Camada 1" xmlns="http://www.w3.org/2000/svg" xmlns:xlink="http://www.w3.org/1999/xlink" viewBox="0 0 849.53 508.08"><defs><style>.cls-1{fill:none;}.cls-2{clip-path:url(#clip-path);}.cls-3{fill:#eaa000;}.cls-4{fill:#6d472e;}.cls-5{fill:#eac2a7;}.cls-6{fill:#97d8dd;}.cls-7{fill:#027e8f;}.cls-8{fill:#65c4d1;}.cls-9{fill:#ffd478;}.cls-10{fill:#fff;}.cls-11{clip-path:url(#clip-path-2);}.cls-12{fill:#c9a68f;}.cls-13{fill:#d6aa8b;}.cls-14{fill:#d6d6d6;}.cls-15{fill:#c99f4b;}.cls-16{fill:#6d5f56;}.cls-17{fill:#493e38;}.cls-18{clip-path:url(#clip-path-3);}.cls-19{fill:#fcfcfc;}.cls-20{fill:#d32222;}.cls-21{fill:#f4f4f4;}.cls-22{clip-path:url(#clip-path-4);}.cls-23{fill:#b7b7b7;}.cls-24{fill:#c99e32;}.cls-25{clip-path:url(#clip-path-5);}.cls-26{fill:#aa7e30;}.cls-27{fill:#ddd;}.cls-28{fill:#846829;}.cls-29{fill:#e8cd95;}</style><clipPath id="clip-path"><path class="cls-1" d="M246.15-94.87s-47.6,36.16-127.34,6.45S39.08-346.37,39.08-346.37s73.34-109,89.74-106.08,112,21.45,112,56.62,42.56,193,42.56,193,17.88,69.22,8.94,74.49"/></clipPath><clipPath id="clip-path-2"><path class="cls-1" d="M244.49,482.52s-47.6,36.16-127.33,6.45S37.43,231,37.43,231s73.34-109,89.74-106.08,112,21.46,112,56.62,42.56,193,42.56,193,17.88,69.22,8.94,74.49"/></clipPath><clipPath id="clip-path-3"><path class="cls-1" d="M167.93,242.17c-.34-.51,24.61,5.85,35.49.39,0,0-1.4,19.58-10.38,20.2C183.79,263.41,174.15,258.1,167.93,242.17Z"/></clipPath><clipPath id="clip-path-4"><path class="cls-1" d="M187.92,506.83c5.39,10.69,43.31,12.95,46.45,13.94,0,0,1-42.94-5.06-67.07S187.92,506.83,187.92,506.83Z"/></clipPath><clipPath id="clip-path-5"><path class="cls-1" d="M141.81,240.66c6.68,2.77.92-9.22.92-9.22s-.63-12-4-14.06a49.13,49.13,0,0,1-7.42-6.07l17.09-11.71,46.7-32s6.46-9-8.3-14.53a17.55,17.55,0,0,0-17.86-5.3s-6.46-7.72-15.8-.63c0,0-18.79-1.1-23,8.12a7,7,0,0,0-6.92,3.92s-3.92,1.5-4.67,4.67c0,0-9.51,3.75-10.08,10.09,0,0-5.19,7.26-1,13.14,0,0-2.74,5.16.81,8.7,0,0-8,8.7,0,14.12,0,0-2,5.65,9.68,8l3.46,7.14s3.33-1.51,12.91,8.07Z"/></clipPath></defs><title>Fala1</title><g class="cls-2"><path class="cls-3" d="M162.6-433.26a11.16,11.16,0,0,1,8,3.63,18.92,18.92,0,0,1,4.81-.64,17.57,17.57,0,0,1,13.06,5.94c14.34,5.38,8.64,14,8.31,14.5l.16,0s8.41,5.88,5.53,8.76c0,0,5.19,6.45,1,9.91a4.77,4.77,0,0,1-1.5.75c11.79,18.37,18.82,50.79,14.18,77.53-.92,5.29-7,9.1-23.27,9.1h0a85.67,85.67,0,0,1-15.76-1.4c.15,1.25.33,2.6.52,4h0c.81,5.83,2,12.44,3.3,13.42,8.32,6.24,20.71,8.83,27.68,9.84l10.09.94a25.3,25.3,0,0,1,2.24,2.54H221c3,0,5.43,3.33,5.43,3.33l39.77,69.63-34.33,61.6s11.53,19.37,5.77,28.13l8,8s1.27,4.27-4.5,4.27c-1.72,0-4.13-.91-6.68-2.17A434.2,434.2,0,0,1,236-56.61a43.08,43.08,0,0,0-4.64-.7l0,3h0c-.11,20.47-.05,50,1.17,56.77,1.9,10.55,0,15.73,0,15.73s5.18,82.08,5.18,82.71,7.27,10,7.27,10,9.6,7.56,17.08,13.56h0s4.49,1.17,6.25,2.64a6.13,6.13,0,0,1,1.89,3.93c.49.33,1.32.9,2.26,1.58a24.45,24.45,0,0,0,6.49,1.2c1,1,0,2.15-1.34,3.05.75.79,1.2,1.49,1.07,1.94-.49,1.8-7.44,9.12-20,9.12-.71,0-1.43,0-2.18-.07-13.19-.86-31.49-14.93-33-18.85a11.64,11.64,0,0,1,.19-7.89c0-3.34,2-7.34,3.13-9.34,1.73-3.11,2.94-11.93,2.94-11.93-19-66.75-8.13-76.14-10.2-81-1.32-3.08-13.07-46.77-21.46-78.2h0l0-.14c-.48-1.82-1-3.6-1.42-5.32a22.5,22.5,0,0,1-4.34-2.57,135.4,135.4,0,0,1-22.82,9.05l-2.42,6L144.38,4.48S140.09,20.31,135,25.41a225.34,225.34,0,0,1-12.63,36.48c-8.64,19.37-12.45,46-12.45,46s6.2,15.73,6.93,25.56c7.28,10,13.82,22.28,5.14,25.91a49.74,49.74,0,0,1-18.87,3.33c-10.46,0-19.84-2.46-22-4.64-3.52-3.52,6.46-30.15,6.46-30.15.31-2.42,1-4.75,2.39-5.74,3.46-2.42,7.61-8.3,7.61-8.3s-1.3-3.46,2.34-8.13,9-34.61,9-38.53S104,34,120.17,22.47c0,0,1.85-37.44,6.58-64.52h0c.51-3.07,1.07-6,1.68-8.74-5,.41-7.93.47-7.93.47s4.79-13.36,10.91-30.54c-5.22-.5-1.78-8.6-1.78-8.6a43.86,43.86,0,0,0,6.13-3.61q1-2.81,2-5.63c-1.73-4.26,2.59-17.51,2.59-17.51l-15.85-12-46-34.73s37-87.26,38.5-88.76c1-1,8.11-5.16,13-8,5.16-5.15,16.24-9.24,16.24-9.24s10.54-11.93,12.79-14.17,1.21-8.48,1.21-8.48l-5.77-22.18c-10.2-6.41-14.23-13.55-14.23-13.55a5.12,5.12,0,0,1-3.76,1.51c-3.35,0-6.73-2.55-6.73-2.55s-14.64-14.64-10-21.55a4.35,4.35,0,0,1,3.8-2.1c3,0,6.61,2.49,9.14,4.62-5.19-4.53-8-5.15-9.1-5.15l-.35,0-.09.07-.07,0-.1,0,0-.11c-1.09-.55-6-3.24-6.42-7.79-8.27-2.59-6.67-7.2-6.67-7.2-8-5.42,0-14.12,0-14.12-3.55-3.55-.81-8.71-.81-8.71-4.15-5.87,1-13.14,1-13.14.58-6.34,10.09-10.08,10.09-10.08.75-3.17,4.66-4.67,4.66-4.67a6.93,6.93,0,0,1,6.39-3.94c.33,0,.53,0,.53,0,3.45-7.45,16.38-8.17,21.21-8.17,1.15,0,1.85,0,1.85,0a12.87,12.87,0,0,1,7.84-3m65,272.39L249-199.35l-20.29-30.18c.54,8.67.88,17.57.78,25.95a339.5,339.5,0,0,1-3,40.92,2.82,2.82,0,0,1,1.16,1.79m-78,28.67c2.07-5.9,3.86-11.07,5.21-15-2.14-4.29,1.21-6.21,2.22-6.68.12-.38.21-.69.27-.92,2.08-7.61-17.46-44.93-17.46-44.93l-16.5-10.34L100.2-166.6l37,25.76,12.41,8.64M269.67,130.61h0M162.6-438.63h0a17.5,17.5,0,0,0-9.47,3h-.22c-6.95,0-18.65,1.17-24.31,8.39a12,12,0,0,0-7.61,5,13.51,13.51,0,0,0-5,4.74c-3.43,1.75-9.7,5.73-11.09,12.13-2.19,3.63-4.23,9.77-1.8,15.53a13.15,13.15,0,0,0,.26,8.08,16,16,0,0,0-2.4,9.7,12,12,0,0,0,3.46,7.11,9.68,9.68,0,0,0,.93,2.82,13.2,13.2,0,0,0,6.63,5.92,14.2,14.2,0,0,0,2.75,4.27c-2.6,4.77-1.32,11,3.82,18.54a69,69,0,0,0,7.38,9l.56.49c.8.61,5.06,3.63,10,3.63a11.91,11.91,0,0,0,2-.17,53.91,53.91,0,0,0,11.32,10.2L155-290.45a12.29,12.29,0,0,1,0,3.88c-2.33,2.42-9.29,10.25-11.87,13.15-3.25,1.3-11.36,4.82-16.32,9.45-12,6.91-13,7.88-13.6,8.53-1,1-1.66,1.66-21,46.62C82.87-187.06,73.6-165.2,73.51-165l1.71,6.38,46.05,34.73,12.86,9.7c-1.34,4.77-2.59,10.81-1.95,15.15l-.89,2.52a42.38,42.38,0,0,1-4,2.2l-2.64,2.75c-.73,1.72-2.9,7.66-.26,12.09a8,8,0,0,0,.52.77c-5.43,15.22-9.49,26.57-9.49,26.57L120.6-45l1.22,0-.36,2.07h0c-4.09,23.43-6,53.9-6.51,62.7-14.35,12.54-12.29,37.08-11.59,45.39.07.82.15,1.76.15,2-.06,4.36-5.38,31.47-7.88,35.26A16.14,16.14,0,0,0,92,112.38a30.61,30.61,0,0,1-5.09,5.38c-2.42,1.69-3.91,4.58-4.55,8.82-.66,1.78-2.71,7.48-4.47,13.58-3.64,12.56-3.79,18.44-.56,21.67,4.08,4.08,16.08,6.21,25.82,6.21a54.87,54.87,0,0,0,20.94-3.74,11.47,11.47,0,0,0,7-7.64c1.71-6.14-1.14-14.17-9-25.18-1-8.73-5.12-20.23-6.6-24.18.89-5.56,4.68-27.2,11.83-43.22A233,233,0,0,0,139.88,28c5.06-6.2,8.7-18.53,9.59-21.78L172-50.36,173.49-54a142.9,142.9,0,0,0,18.43-7.25l.14.08.8,3,0,.08V-58C211.07,10,213.76,18.66,214.45,20.49c0,.49-.2,1.48-.34,2.29-1.3,7.82-4.34,26,10.16,77.34-.55,3.54-1.5,7.78-2.16,9-2.29,4.13-3.55,7.81-3.77,11a16.68,16.68,0,0,0,.13,10.8c1.95,5.1,12.19,11.86,14.22,13.17,4.92,3.15,14.5,8.53,23.43,9.11.85.06,1.7.09,2.53.09,14.4,0,23.91-8.39,25.19-13.08a6.12,6.12,0,0,0,.15-2.49,6.6,6.6,0,0,0,.69-2.37,6.5,6.5,0,0,0-1.95-5.33l-3.57-1.56a20.77,20.77,0,0,1-4.22-.67,10.58,10.58,0,0,0-3.21-4.8,21.77,21.77,0,0,0-7.19-3.4c-6.27-5-13.74-10.91-15.75-12.49-2.24-2.9-4.74-6.21-5.82-7.77-.25-4.25-1.23-20.1-5.05-80.54.6-2.44,1.5-8.21-.13-17.25-.85-4.69-1.24-24.56-1.09-54.6l4.69-3.35c0-.84.4-18.56-.95-37.73.23,0,.45,0,.67,0,4.67,0,7.11-2,8.34-3.61a8.69,8.69,0,0,0,1.3-7.54l-1.35-2.27L244-113c1.28-4.72.6-10.73-2-17.94a75.93,75.93,0,0,0-3.95-8.92l32.89-59,0-5.27L231.1-273.8l-.3-.48a14.27,14.27,0,0,0-7.06-5.17c-.41-.45-.83-.9-1.28-1.35l-3.3-1.55-9.95-.93c-6.05-.88-16.92-3.1-24.29-8.22a48.74,48.74,0,0,1-1.56-7.36c3.1.31,6.27.46,9.49.46,6.5,0,26.22,0,28.57-13.54,4.31-24.82-.94-56.42-12.53-77.29,2.49-3.78,1.73-8.59-.53-12.59a7.39,7.39,0,0,0,0-1.33c-.29-3.28-2.72-6.27-5.17-8.49a12.76,12.76,0,0,0-.29-6.57c-1.42-4.52-5.23-8.1-11.34-10.64a23.16,23.16,0,0,0-16.19-6.78,24,24,0,0,0-3.26.23,16,16,0,0,0-9.51-3.23ZM234-183.39c.43-6,.76-12.84.85-20.13,0-2.32,0-4.75,0-7.28l7.88,11.71L234-183.39Zm-126.8,15.11,18.19-34.21,10.38,6.5c1.43,2.79,5,9.77,8.37,17.31,6.37,14,7.68,19.69,7.92,21.69a9.84,9.84,0,0,0-2.77,4.05,9.7,9.7,0,0,0-.16,5.79q-1,2.85-2.25,6.51l-6.61-4.6-33.07-23Z"/><path class="cls-4" d="M223.67,121a11.64,11.64,0,0,0-.19,7.89c1.5,3.92,19.8,18,33,18.85,13.95.91,21.68-7.15,22.19-9.05s-9-8.11-9-8.11Z"/><path class="cls-4" d="M87.55,127.89s-10,26.63-6.46,30.15,25.6,7.71,40.89,1.31-16.69-39.76-16.69-39.76Z"/><path class="cls-5" d="M177.7-79,144.38,4.48S140.09,20.31,135,25.41a225.34,225.34,0,0,1-12.63,36.48c-8.64,19.37-12.45,46-12.45,46s7.87,20,6.92,29c0,0,7.52,10.37,4.5,16.34s-14.87,2.42-14.87,2.42-19.8,2.59-22.74-2.34,3.72-18.15,3.72-18.15-1-10.55,2.5-13,7.61-8.3,7.61-8.3-1.3-3.46,2.34-8.13,9-34.61,9-38.53S104,34,120.17,22.47c0,0,3.92-79.54,15-90.61S177.7-85.77,177.7-85.77Z"/><path class="cls-5" d="M189.57-91.42s27.89,105.36,30,110.2-8.82,14.23,10.2,81c0,0-1.21,8.82-2.94,11.93s-5.7,11.06-.69,13.83,21.27,16.6,28.18,17.81,19.89-4.84,19.89-4.84,6.92-2.59,4.75-4.76c0,0-6.31-.25-8.38-2.33S245,110.82,245,110.82s-7.27-9.33-7.27-10-5.18-82.71-5.18-82.71,1.9-5.18,0-15.73-1-77-1-77Z"/><path class="cls-4" d="M82.38,148.2s19.8-8.47,39.6-2a8.68,8.68,0,0,0-1.47-4.84c-1.64-2.59-26.46-6.57-37,2.12C83.51,143.49,81.26,146.73,82.38,148.2Z"/><path class="cls-4" d="M249.81,141.61s.78-17.44,19.86-11l.51.43a6.19,6.19,0,0,0-1.89-4c-1.76-1.47-6.25-2.64-6.25-2.64s-17.49-4.31-17.23,14.27C244.81,138.65,247.54,142.48,249.81,141.61Z"/></g><path class="cls-3" d="M176.61,157.85C270.08,158,345.82,234.5,345.93,329S270.12,500,176.61,500,7.29,423.44,7.29,329s75.81-171.1,169.32-171.1m0-8h0a174.69,174.69,0,0,0-69.05,14.09,176.7,176.7,0,0,0-56.36,38.4,180.11,180.11,0,0,0,0,253.21A176.53,176.53,0,0,0,107.56,494a176.24,176.24,0,0,0,138.1,0A178.86,178.86,0,0,0,340,398.63,180.09,180.09,0,0,0,302,202.4,176.72,176.72,0,0,0,245.63,164a174.9,174.9,0,0,0-69-14.15Z"/><path class="cls-6" d="M176.61,157.85C83.1,157.85,7.29,234.45,7.29,329S83.1,500,176.61,500,345.93,423.44,345.93,329,270.08,158,176.61,157.85Zm0,330.78c-87.28,0-158-71.49-158-159.68s70.75-159.69,158-159.69,158,71.49,158,159.69S263.85,488.53,176.61,488.63Z"/><path class="cls-6" d="M256.52,204.66a5.62,5.62,0,0,0-7.82,1.67l-9.23,14.34a5.73,5.73,0,0,0,1.79,8,74.63,74.63,0,0,1,6.33,4.56c1.27,1,2.54,2,3.54,2.66,1.75,1.46,3.43,3,5.1,4.55l-3.9,4a112.35,112.35,0,0,0-24.74-17.13l11.54-26.16a5.72,5.72,0,0,0-2.86-7.54,146.5,146.5,0,0,0-52-12.51,5.57,5.57,0,0,0-4.07,1.45,5.67,5.67,0,0,0-1.85,4l-.88,17.08a5.69,5.69,0,0,0,5.33,6l5.94.31,6.34,1c.81.14,1.62.26,2.43.38,1.23.18,2.45.35,3.52.6l.78.2-1.49,5.58a114.09,114.09,0,0,0-29.89-2.44l-2.92-28.54a5.76,5.76,0,0,0-2.06-3.84,5.63,5.63,0,0,0-4.15-1.24A144.31,144.31,0,0,0,110,196.92a5.74,5.74,0,0,0-2.46,7.67l7.7,15.24a5.63,5.63,0,0,0,7.4,2.58c1.14-.53,2.26-1.09,3.39-1.64a58.13,58.13,0,0,1,8.06-3.51l1.44-.54c1.7-.63,3.35-1.25,5-1.81l1.46,5.52c-1.39.48-2.74,1-4.08,1.48l-1.34.52a53.78,53.78,0,0,0-8,3.43c-1,.49-1.93,1-3.39,1.67l-9.56,5.56-.65.37L98.3,210.35a5.6,5.6,0,0,0-7.88-1.26A147.89,147.89,0,0,0,53.61,248.2a5.76,5.76,0,0,0-.79,4.3,5.68,5.68,0,0,0,2.45,3.6l14.19,9.33a5.61,5.61,0,0,0,4.33.78,5.7,5.7,0,0,0,3.57-2.59,71,71,0,0,1,4.49-6.38c1-1.3,2-2.59,2.65-3.6,1.44-1.76,3-3.46,4.5-5.15l3.91,3.94a113.64,113.64,0,0,0-17,25L50.07,265.76a5.63,5.63,0,0,0-7.46,2.9,150.25,150.25,0,0,0-12.38,52.56,5.67,5.67,0,0,0,5.34,6l16.91.88a5.58,5.58,0,0,0,4.08-1.44,5.71,5.71,0,0,0,1.85-3.95l.3-6,1-6.39c.14-.82.26-1.65.37-2.48.18-1.23.35-2.47.59-3.53l.2-.79L66.36,305a117.35,117.35,0,0,0-2.43,30.2l-28.23,3a5.65,5.65,0,0,0-3.8,2.08,5.78,5.78,0,0,0-1.23,4.19A150.08,150.08,0,0,0,46,396.25a5.61,5.61,0,0,0,7.59,2.48L68.62,391a5.73,5.73,0,0,0,2.55-7.48c-.52-1.13-1.06-2.25-1.6-3.37a58.7,58.7,0,0,1-3.49-8.2l-.55-1.5c-.63-1.7-1.24-3.35-1.78-5l5.53-1.49a113.71,113.71,0,0,0,12.89,27.3L59.25,408.07A5.67,5.67,0,0,0,57,411.8,5.76,5.76,0,0,0,58,416a147.51,147.51,0,0,0,38.7,37.19A5.6,5.6,0,0,0,101,454a5.67,5.67,0,0,0,3.57-2.47l9.23-14.35a5.79,5.79,0,0,0,.78-4.37,5.73,5.73,0,0,0-2.57-3.61,72.47,72.47,0,0,1-6.33-4.56c-1.27-1-2.54-2-3.54-2.66-1.75-1.46-3.43-3-5.11-4.55l4-4c1.51,1.39,3.06,2.8,5,4.36,1.1.78,2.17,1.61,3.24,2.44a68.86,68.86,0,0,0,6.28,4.48l10.08,5.84.12.06-11.55,26.19a5.72,5.72,0,0,0,2.86,7.54,146.24,146.24,0,0,0,52,12.51h.3a5.67,5.67,0,0,0,5.63-5.41l.87-17.08a5.68,5.68,0,0,0-5.33-6l-5.94-.31-6.33-1c-.81-.14-1.62-.26-2.43-.38-1.23-.17-2.45-.35-3.52-.6l-.78-.19,1.49-5.59a114.09,114.09,0,0,0,29.89,2.44l2.92,28.54a5.74,5.74,0,0,0,2.06,3.84,5.63,5.63,0,0,0,4.15,1.24A144.41,144.41,0,0,0,243.22,461a5.74,5.74,0,0,0,2.45-7.68L238,438.07a5.63,5.63,0,0,0-7.4-2.59c-1.13.53-2.26,1.09-3.38,1.65a58.2,58.2,0,0,1-8.07,3.5l-1.44.55c-1.7.63-3.35,1.25-5,1.8l-1.48-5.59a110.7,110.7,0,0,0,27-13l16.69,23.17a5.6,5.6,0,0,0,7.88,1.26,147.89,147.89,0,0,0,36.81-39.11,5.75,5.75,0,0,0-1.65-7.9l-14.2-9.33a5.59,5.59,0,0,0-4.32-.78,5.67,5.67,0,0,0-3.58,2.6,74,74,0,0,1-4.49,6.38c-1,1.29-1.95,2.58-2.65,3.59-1.44,1.77-3,3.47-4.5,5.16l-3.91-4a113.82,113.82,0,0,0,16.95-25l25.89,11.66a5.63,5.63,0,0,0,7.46-2.89A150.3,150.3,0,0,0,323,336.68a5.67,5.67,0,0,0-5.34-6l-16.91-.89a5.71,5.71,0,0,0-5.93,5.39l-.3,6-1,6.39c-.14.83-.26,1.65-.38,2.48-.17,1.23-.34,2.47-.58,3.54l-.2.79L287,352.93l0-.14c.31-1.33.5-2.68.69-4,.09-.63.17-1.27.29-2l.87-5.61c0-.19.05-.38.06-.58l.3-6V323.27a2.81,2.81,0,0,0,0-.29l0-.27,28.35-3a5.63,5.63,0,0,0,3.8-2.08,5.72,5.72,0,0,0,1.23-4.19,149.58,149.58,0,0,0-15.28-51.82,5.62,5.62,0,0,0-7.59-2.48L284.59,267a5.74,5.74,0,0,0-2.55,7.48c.52,1.13,1.07,2.24,1.61,3.36a59.16,59.16,0,0,1,3.48,8.2l.56,1.5c.62,1.7,1.23,3.35,1.77,5L283.93,294A113.47,113.47,0,0,0,271,266.68L294,249.82a5.71,5.71,0,0,0,2.26-3.72,5.78,5.78,0,0,0-1-4.25A147.51,147.51,0,0,0,256.52,204.66ZM260,260.73a5.67,5.67,0,0,0-2.26,3.72,5.74,5.74,0,0,0,1,4.25,102.19,102.19,0,0,1,15.91,33.69,5.67,5.67,0,0,0,6.91,4L297.89,302a5.7,5.7,0,0,0,4.06-6.7,84.76,84.76,0,0,0-3.68-11.79l-.45-1.22a58.48,58.48,0,0,0-3.17-7.74l5-2.59a138.87,138.87,0,0,1,10.93,37l-27.95,2.93a5.7,5.7,0,0,0-5.05,6l.29,5.53v10.91l-.27,5.37-.81,5.24c-.12.74-.23,1.49-.34,2.24-.13,1-.26,2-.46,2.88l-1.41,5.48a5.72,5.72,0,0,0,4,6.95L295,366.9a5.63,5.63,0,0,0,4.3-.58,5.72,5.72,0,0,0,2.62-3.51l1.65-6.5c.35-1.52.58-3.07.8-4.61.1-.74.2-1.46.34-2.29l1-7,0-.87,5.54.28a139.31,139.31,0,0,1-8.83,37.55l-25.66-11.56a5.61,5.61,0,0,0-4.33-.11,5.67,5.67,0,0,0-3.13,3,102.32,102.32,0,0,1-20.92,30.87,5.75,5.75,0,0,0,0,8.06l12,12.1a5.47,5.47,0,0,0,4.16,1.66,5.59,5.59,0,0,0,4.05-1.91q1.51-1.71,3.06-3.4c1.95-2.14,3.9-4.29,6-6.86.86-1.22,1.76-2.41,2.67-3.61.62-.83,1.26-1.66,1.89-2.52l4.74,3.11a136.37,136.37,0,0,1-26.31,28l-16.54-23a5.67,5.67,0,0,0-3.69-2.28,5.59,5.59,0,0,0-4.19,1A100.21,100.21,0,0,1,202.89,428a5.65,5.65,0,0,0-3.43,2.66,5.79,5.79,0,0,0-.57,4.33l4.38,16.53a5.63,5.63,0,0,0,6.64,4.1,83.31,83.31,0,0,0,11.7-3.73l1.17-.44a57.54,57.54,0,0,0,7.65-3.21l2.56,5.09a135.53,135.53,0,0,1-36.64,11l-2.89-28.23a5.7,5.7,0,0,0-2-3.84A5.55,5.55,0,0,0,187.3,431a102.62,102.62,0,0,1-37-3,5.6,5.6,0,0,0-4.29.57,5.74,5.74,0,0,0-2.63,3.46l-4.37,16.53a5.78,5.78,0,0,0,.58,4.36,5.67,5.67,0,0,0,3.46,2.64l6.43,1.67c1.52.35,3,.58,4.59.81.71.1,1.43.2,2.24.34l7,1.05.87.05-.29,5.6a135.61,135.61,0,0,1-37.15-8.94l11.43-25.92a5.72,5.72,0,0,0-2.7-7.46l-4.69-2.27-9.62-5.59a56.16,56.16,0,0,1-5.14-3.7c-1.2-.93-2.4-1.85-3.27-2.45-1.63-1.36-3.19-2.81-4.75-4.25-1.16-1.08-2.32-2.16-3.52-3.22a5.61,5.61,0,0,0-7.7.27l-12,12.1a5.74,5.74,0,0,0,.24,8.29c1.11,1,2.21,2,3.32,3,2.14,2,4.29,4,6.84,6.09,1.2.87,2.38,1.78,3.55,2.69.83.64,1.67,1.29,2.52,1.93l-3.09,4.79a136.16,136.16,0,0,1-27.66-26.59l22.73-16.71a5.74,5.74,0,0,0,1.24-8,102.33,102.33,0,0,1-15.91-33.7,5.66,5.66,0,0,0-6.91-4l-16.36,4.42a5.7,5.7,0,0,0-4.06,6.7A84.76,84.76,0,0,0,55,374.38l.45,1.22a58.48,58.48,0,0,0,3.17,7.74l-5,2.59a139.31,139.31,0,0,1-10.93-37L70.55,346a5.7,5.7,0,0,0,5-6.23,105.59,105.59,0,0,1,3-37.34,5.82,5.82,0,0,0-.57-4.34,5.63,5.63,0,0,0-3.43-2.65L58.24,291a5.59,5.59,0,0,0-4.3.59,5.73,5.73,0,0,0-2.62,3.5l-1.65,6.5c-.35,1.52-.58,3.07-.8,4.62-.1.73-.2,1.46-.34,2.28l-1,7-.05.87-5.54-.28a139.7,139.7,0,0,1,8.84-37.55L76.4,290.12a5.56,5.56,0,0,0,4.33.11,5.67,5.67,0,0,0,3.13-3,102.26,102.26,0,0,1,20.92-30.87,5.74,5.74,0,0,0,0-8.05l-12-12.1a5.6,5.6,0,0,0-8.21.24q-1.52,1.71-3.06,3.4c-2,2.15-3.9,4.3-6,6.86-.86,1.22-1.76,2.42-2.67,3.61-.63.83-1.26,1.67-1.89,2.53l-4.74-3.12a136.37,136.37,0,0,1,26.31-28l16.54,23A5.61,5.61,0,0,0,117,246l1.31-1a19.44,19.44,0,0,1,2.76-1.92l9.24-5.4c1.08-.5,2.16-1,3.23-1.57a46,46,0,0,1,6.61-2.86l1.68-.62A56,56,0,0,1,150,230a5.71,5.71,0,0,0,4.31-7.06L150,206.4a5.64,5.64,0,0,0-6.64-4.1,82.89,82.89,0,0,0-11.7,3.73l-1.17.44a57.49,57.49,0,0,0-7.65,3.2l-2.57-5.08a135.62,135.62,0,0,1,36.65-11.05l2.89,28.24a5.64,5.64,0,0,0,2,3.84,5.52,5.52,0,0,0,4.13,1.25,102.62,102.62,0,0,1,37,3,5.61,5.61,0,0,0,4.28-.57,5.68,5.68,0,0,0,2.63-3.47l4.38-16.53a5.75,5.75,0,0,0-.58-4.35,5.63,5.63,0,0,0-3.47-2.64l-6.42-1.67c-1.52-.36-3-.59-4.59-.81-.71-.1-1.43-.21-2.24-.35l-7-1-.87,0,.29-5.6a135.32,135.32,0,0,1,37.15,8.93L215,227.69a5.75,5.75,0,0,0-.11,4.37,5.66,5.66,0,0,0,3,3.16,101.36,101.36,0,0,1,30.55,21.15,5.61,5.61,0,0,0,8,0l12-12.1a5.74,5.74,0,0,0-.24-8.29c-1.11-1-2.21-2-3.32-3.05-2.14-2-4.29-4-6.84-6.09-1.2-.86-2.38-1.77-3.55-2.68-.83-.64-1.67-1.29-2.52-1.93l3.09-4.79A136.16,136.16,0,0,1,282.68,244Z"/><path class="cls-6" d="M176.61,237.7a90,90,0,0,0-78.36,45.76,91.89,91.89,0,0,0,.49,91.46,4.25,4.25,0,0,0,.35.58,91.36,91.36,0,0,0,23,26c.14.1.23.25.38.34l.12,0a88.88,88.88,0,0,0,108,0s.1,0,.15-.06.24-.24.38-.34a91.36,91.36,0,0,0,23-26,5.65,5.65,0,0,0,.36-.58,91.94,91.94,0,0,0,.48-91.46A90,90,0,0,0,176.61,237.7Zm-10.17,12.15L103.79,359.93a80.52,80.52,0,0,1,4.31-70.74A78.88,78.88,0,0,1,166.44,249.85Zm-33.7,145.46,43.87-77.06,43.87,77.06a78.14,78.14,0,0,1-87.74,0Zm96.69-7.15L184,308.27a8.42,8.42,0,0,0-14.68,0l-45.48,79.89a80.27,80.27,0,0,1-13.73-16.35l66.55-117,12.91,22.63c.08.17.16.34.26.51l53.38,93.85a80.27,80.27,0,0,1-13.73,16.35Zm20-28.23-49.61-87.2a3.16,3.16,0,0,0-.26-.52L186.8,249.85a78.92,78.92,0,0,1,58.32,39.35,80.53,80.53,0,0,1,4.31,70.73Z"/><path class="cls-7" d="M595.47,33.21c-131.18,0-239,88.6-251.44,202l-74.66,29.74s-4.88,1.8-4.39,8.8a9.53,9.53,0,0,0,5.57,8.17l78.17,23.46C373.61,405.81,474.62,481,595.47,481,735,481,848.12,380.77,848.12,257.11S735,33.21,595.47,33.21Z"/><path class="cls-8" d="M597.59,0c-131.17,0-239,88.6-251.43,202l-74.67,29.74s-4.88,1.81-4.39,8.81a9.53,9.53,0,0,0,5.58,8.16l78.16,23.46c24.89,100.47,125.91,175.67,246.75,175.67,139.54,0,252.65-100.24,252.65-223.9S737.13,0,597.59,0Z"/><path class="cls-9" d="M537,77.3v5.14H526.86v21.89h-6.07v-27Z"/><path class="cls-9" d="M552.34,103a15.2,15.2,0,0,1-7.62,1.8c-4.25,0-8.81-1.56-8.81-6A5,5,0,0,1,540.16,94v-.2c-2.11-.69-3.34-2.17-3.34-4.1,0-2.68,2.66-5.45,8.46-5.45a12.06,12.06,0,0,1,6.5,1.49l-1,3.84a10.36,10.36,0,0,0-4.56-1.12c-2.11,0-3.3.76-3.3,1.89s1.63,1.72,4.45,1.72h1.9v4h-1.86c-2.82,0-5,.44-5,2s1.86,2.2,3.89,2.2a13.3,13.3,0,0,0,5.2-1.2Z"/><path class="cls-9" d="M561.35,98.24c0,1.48.55,2,1.82,1.88l-.32,4.25a7.3,7.3,0,0,1-2.54.4c-3.13,0-5-1.32-5-6V84.72h6Z"/><path class="cls-9" d="M585.12,84.72c-.28,3.09-.56,8.62-.56,12.79,0,2.21.76,2.77,1.83,2.69l-.36,4.25a6.26,6.26,0,0,1-2.1.32c-2.27,0-3.65-1.2-4.21-3.57h-.08a7,7,0,0,1-6.23,3.57c-4.49,0-8.1-3.81-8.1-9.82,0-6.62,4.45-10.67,8.81-10.67a5.73,5.73,0,0,1,5.32,3h.16a19.72,19.72,0,0,1,.48-2.57Zm-10,15.24c1.74,0,3.13-1.72,3.53-3.65a15.63,15.63,0,0,0,.12-2,10.28,10.28,0,0,0-.08-1.65c-.36-2.24-1.71-3.77-3.41-3.77-2.35,0-3.81,2.61-3.81,5.7S572.93,100,575.08,100Z"/><path class="cls-9" d="M618.09,88.69c-1,0-2.26-.08-4.2-.28l0,.2a8.51,8.51,0,0,1,2.54,6c0,7-4.77,10.14-9.89,10.14-5.67,0-10-3.69-10-10s4.09-10.47,10.76-10.47h11.15Zm-7.66,5.78c0-2.89-1.07-5.86-3.73-5.86-2.93,0-4,3-4,5.9,0,3.37,1.39,5.89,3.89,5.89C608.92,100.4,610.43,98,610.43,94.47Z"/><path class="cls-9" d="M640.31,94.31c0,7.17-5,10.46-10.24,10.46-5.67,0-10-3.77-10-10.1s4.13-10.39,10.36-10.39C636.34,84.28,640.31,88.41,640.31,94.31Zm-14,.2c0,3.37,1.39,5.89,4,5.89,2.35,0,3.85-2.36,3.85-5.89,0-2.93-1.11-5.9-3.85-5.9S626.26,91.62,626.26,94.51Z"/><path class="cls-9" d="M660.79,84.72a18.75,18.75,0,0,1,1.47,7.46c0,6.14-2.38,12.59-9.93,12.59-4.8,0-8.61-2.72-8.61-8.46V91.22a27.26,27.26,0,0,0-.47-6.5h5.91c.44.48.59,1.57.59,3.81v7.38c0,2.61,1.39,3.93,3.06,3.93,2.54,0,3.53-3.33,3.53-7.26a25.66,25.66,0,0,0-1.19-7.86Z"/><path class="cls-9" d="M665.51,101.12a3.55,3.55,0,1,1,7.1,0,3.55,3.55,0,1,1-7.1,0Zm1.31-5.65-.91-18.17h6.3l-.87,18.17Z"/><path class="cls-10" d="M446.51,211.86a9.31,9.31,0,0,1-2,6.25,6.56,6.56,0,0,1-5.28,2.41,6.44,6.44,0,0,1-5.2-2.41,9.49,9.49,0,0,1-2-6.25v-.22a9.51,9.51,0,0,1,2-6.25,6.4,6.4,0,0,1,5.2-2.42,6.56,6.56,0,0,1,5.28,2.42,9.41,9.41,0,0,1,2,6.25Zm-1.39-.24a8.47,8.47,0,0,0-1.6-5.37,5.19,5.19,0,0,0-4.32-2.05,5.06,5.06,0,0,0-4.25,2.05,8.71,8.71,0,0,0-1.55,5.37v.24a8.65,8.65,0,0,0,1.56,5.39,5.06,5.06,0,0,0,4.24,2.05,5.2,5.2,0,0,0,4.34-2,8.6,8.6,0,0,0,1.58-5.4Z"/><path class="cls-10" d="M448.65,203v-1h3.27v17.09l1.89.16v1h-5.16v-1l1.89-.16v-15.9Z"/><path class="cls-10" d="M464.66,220.28c-.09-.43-.16-.8-.2-1.12s0-.63,0-.95a5.65,5.65,0,0,1-1.86,1.66,5.26,5.26,0,0,1-2.61.65,4,4,0,0,1-2.85-1,3.43,3.43,0,0,1-1-2.6,3.23,3.23,0,0,1,1.5-2.79,7,7,0,0,1,4.05-1h2.78v-1.68a2.72,2.72,0,0,0-.87-2.13,3.51,3.51,0,0,0-2.42-.77,5.74,5.74,0,0,0-1.9.29,4.43,4.43,0,0,0-1.45.77l-.11,1.7h-1.15v-2.43a7.21,7.21,0,0,1,2.08-1.11,7.84,7.84,0,0,1,2.58-.42,5,5,0,0,1,3.34,1.07,3.76,3.76,0,0,1,1.27,3.06v6.23c0,.26,0,.51,0,.75a5.2,5.2,0,0,0,.08.69l1.25.09v1Zm-4.57-1a5,5,0,0,0,2.66-.7,4.2,4.2,0,0,0,1.66-1.82v-2.54h-2.8a5.15,5.15,0,0,0-3,.79,2.37,2.37,0,0,0-1.13,2,2.07,2.07,0,0,0,.7,1.64A2.79,2.79,0,0,0,460.09,219.28Zm2.36-16.52h1.7l0,.07-2.89,3h-1.24Z"/><path class="cls-10" d="M471.28,220.28h-1.64v-2h1.64Zm-.14-5.6h-1.38V203.21h1.38Z"/><path class="cls-10" d="M491.81,208.28h-1.14l-.19-2.42a4.28,4.28,0,0,0-1.71-1.25,6.53,6.53,0,0,0-2.53-.45,5.15,5.15,0,0,0-3.25.92,2.77,2.77,0,0,0-1.17,2.27,2.66,2.66,0,0,0,1.05,2.15,9.68,9.68,0,0,0,3.64,1.52,10.49,10.49,0,0,1,4.15,1.9,3.93,3.93,0,0,1,1.42,3.15,3.83,3.83,0,0,1-1.65,3.25,7,7,0,0,1-4.21,1.2,8.63,8.63,0,0,1-3.36-.64,6.41,6.41,0,0,1-2.53-1.84v-3h1.13l.2,2.5a4.88,4.88,0,0,0,2,1.33,7.11,7.11,0,0,0,2.6.46,5.42,5.42,0,0,0,3.23-.89,2.79,2.79,0,0,0,1.24-2.36,2.87,2.87,0,0,0-1-2.28,9.38,9.38,0,0,0-3.59-1.56,11.32,11.32,0,0,1-4.2-1.83,3.66,3.66,0,0,1-1.43-3,3.81,3.81,0,0,1,1.63-3.19,6.72,6.72,0,0,1,4.18-1.23,8,8,0,0,1,3.29.64,5.71,5.71,0,0,1,2.28,1.75Z"/><path class="cls-10" d="M499.87,220.52a5,5,0,0,1-3.92-1.75,6.45,6.45,0,0,1-1.55-4.46v-.64a6.59,6.59,0,0,1,1.55-4.51,4.75,4.75,0,0,1,3.73-1.8,4.6,4.6,0,0,1,3.63,1.48,5.65,5.65,0,0,1,1.33,3.94V214h-8.86v.34a5.6,5.6,0,0,0,1.13,3.58,3.56,3.56,0,0,0,3,1.45,6,6,0,0,0,2.2-.36,4.38,4.38,0,0,0,1.57-1l.59,1a5,5,0,0,1-1.78,1.19A6.7,6.7,0,0,1,499.87,220.52Zm-.19-12a3.29,3.29,0,0,0-2.58,1.19,5.12,5.12,0,0,0-1.22,3l0,.06h7.36v-.35a4.05,4.05,0,0,0-1-2.77A3.27,3.27,0,0,0,499.68,208.56Z"/><path class="cls-10" d="M510.66,221.32a4.45,4.45,0,0,1-.93,3,3.28,3.28,0,0,1-2.59,1.06,3.55,3.55,0,0,1-.67-.06,5.83,5.83,0,0,1-.63-.16L506,224a3.71,3.71,0,0,0,.5.12,3.07,3.07,0,0,0,.57.06,2,2,0,0,0,1.62-.72,3.32,3.32,0,0,0,.58-2.13V208.79l-1.89-.15v-1h3.29Zm-.07-17.4H509.2V202h1.39Z"/><path class="cls-10" d="M522.3,220.28c-.09-.43-.16-.8-.2-1.12a7.46,7.46,0,0,1-.06-.95,5.51,5.51,0,0,1-1.85,1.66,5.29,5.29,0,0,1-2.61.65,4,4,0,0,1-2.85-1,3.4,3.4,0,0,1-1-2.6,3.24,3.24,0,0,1,1.49-2.79,7,7,0,0,1,4.06-1H522v-1.68a2.71,2.71,0,0,0-.86-2.13,3.53,3.53,0,0,0-2.42-.77,5.84,5.84,0,0,0-1.91.29,4.48,4.48,0,0,0-1.44.77l-.12,1.7h-1.14v-2.43a7.21,7.21,0,0,1,2.08-1.11,7.84,7.84,0,0,1,2.58-.42,5,5,0,0,1,3.34,1.07,3.78,3.78,0,0,1,1.26,3.06v6.23c0,.26,0,.51,0,.75a5.2,5.2,0,0,0,.08.69l1.25.09v1Zm-4.57-1a5,5,0,0,0,2.65-.7,4.14,4.14,0,0,0,1.66-1.82v-2.54h-2.79a5.15,5.15,0,0,0-3,.79,2.35,2.35,0,0,0-1.13,2,2.07,2.07,0,0,0,.7,1.64A2.79,2.79,0,0,0,517.73,219.28Z"/><path class="cls-10" d="M543.3,214.29a7.37,7.37,0,0,1-1.27,4.54,4.16,4.16,0,0,1-3.52,1.69,4.84,4.84,0,0,1-2.38-.55,4.33,4.33,0,0,1-1.61-1.6l-.15,1.91h-1.18V203.19L531.3,203v-1h3.27v7.59a4.61,4.61,0,0,1,1.6-1.65,4.51,4.51,0,0,1,2.32-.58,4.08,4.08,0,0,1,3.54,1.83A8.29,8.29,0,0,1,543.3,214Zm-1.4-.25a7.46,7.46,0,0,0-.93-3.94,3,3,0,0,0-2.74-1.52,3.59,3.59,0,0,0-2.35.73,4.32,4.32,0,0,0-1.31,1.86v5.73a4,4,0,0,0,1.38,1.75,3.89,3.89,0,0,0,2.31.65,3.06,3.06,0,0,0,2.72-1.36,6.42,6.42,0,0,0,.92-3.65Z"/><path class="cls-10" d="M551.19,220.52a5,5,0,0,1-3.92-1.75,6.45,6.45,0,0,1-1.56-4.46v-.64a6.64,6.64,0,0,1,1.55-4.51,4.77,4.77,0,0,1,3.74-1.8,4.6,4.6,0,0,1,3.63,1.48,5.69,5.69,0,0,1,1.32,3.94V214h-8.86v.34a5.65,5.65,0,0,0,1.13,3.58,3.58,3.58,0,0,0,3,1.45,6,6,0,0,0,2.2-.36,4.47,4.47,0,0,0,1.57-1l.59,1a5,5,0,0,1-1.79,1.19A6.64,6.64,0,0,1,551.19,220.52Zm-.19-12a3.29,3.29,0,0,0-2.58,1.19,5.05,5.05,0,0,0-1.22,3l0,.06h7.35v-.35a4.1,4.1,0,0,0-1-2.77A3.27,3.27,0,0,0,551,208.56Z"/><path class="cls-10" d="M558.13,208.64v-1h3.12l.13,2.09A4.46,4.46,0,0,1,563,208a4.65,4.65,0,0,1,2.4-.61,3.64,3.64,0,0,1,3.79,2.87,4.82,4.82,0,0,1,1.61-2.1,4.23,4.23,0,0,1,2.56-.77,3.76,3.76,0,0,1,3.1,1.35,6.56,6.56,0,0,1,1.1,4.17v6.2l1.89.17v1h-5.19v-1l1.89-.17v-6.22a5.21,5.21,0,0,0-.81-3.31,2.82,2.82,0,0,0-2.28-1,3.08,3.08,0,0,0-2.5,1,5,5,0,0,0-1.09,2.66c0,.07,0,.13,0,.18s0,.13,0,.21v6.42l1.89.16v1H566.2v-1l1.88-.16v-6.23a5.17,5.17,0,0,0-.82-3.29,2.83,2.83,0,0,0-2.28-1,3.41,3.41,0,0,0-2.35.76,4,4,0,0,0-1.21,2v7.72l1.89.16v1h-5.18v-1l1.9-.16v-10.3Z"/><path class="cls-10" d="M587.36,213.6h-5.54v-1.19h5.54Z"/><path class="cls-10" d="M594,208.64l-1.56.12,3.13,8.34.4,1.49H596l.44-1.49,3.09-8.34-1.57-.12v-1h4.22v1l-1.22.11-4.44,11.53h-1.11L591,208.75l-1.23-.11v-1H594Z"/><path class="cls-10" d="M603.65,219.25l1.89-.16v-10.3l-1.89-.15v-1h3.27v11.49l1.89.16v1h-5.16ZM606.92,204h-1.38v-2h1.38Z"/><path class="cls-10" d="M610.89,219.25l1.89-.16v-10.3l-1.89-.15v-1H614l.13,2.21a4.48,4.48,0,0,1,1.63-1.81,4.54,4.54,0,0,1,2.43-.64,3.83,3.83,0,0,1,3.1,1.26,6,6,0,0,1,1.07,3.93v6.54l1.89.16v1h-5.17v-1l1.89-.16v-6.52a4.64,4.64,0,0,0-.81-3.09,2.9,2.9,0,0,0-2.29-.9,3.57,3.57,0,0,0-2.38.78,4.31,4.31,0,0,0-1.33,2.07v7.66l1.89.16v1h-5.17Z"/><path class="cls-10" d="M635.05,218.45a4.44,4.44,0,0,1-1.61,1.53,4.79,4.79,0,0,1-2.32.54,4.12,4.12,0,0,1-3.52-1.7,7.36,7.36,0,0,1-1.27-4.53V214a8.29,8.29,0,0,1,1.27-4.85,4.05,4.05,0,0,1,3.54-1.83,4.3,4.3,0,0,1,3.87,2.15v-6.32l-1.89-.15v-1h3.28v17.09l1.89.16v1h-3.13Zm-7.32-4.16a6.43,6.43,0,0,0,.91,3.65,3.07,3.07,0,0,0,2.74,1.36,3.89,3.89,0,0,0,2.24-.61A4,4,0,0,0,635,217v-6a4.29,4.29,0,0,0-1.34-1.76,3.61,3.61,0,0,0-2.27-.68,3,3,0,0,0-2.75,1.52,7.56,7.56,0,0,0-.92,3.94Z"/><path class="cls-10" d="M640.43,213.75a6.8,6.8,0,0,1,1.52-4.59,5.41,5.41,0,0,1,8.06,0,6.85,6.85,0,0,1,1.52,4.59v.39a6.9,6.9,0,0,1-1.52,4.6,5.45,5.45,0,0,1-8.06,0,6.84,6.84,0,0,1-1.52-4.6Zm1.39.39a6.12,6.12,0,0,0,1.1,3.7,3.6,3.6,0,0,0,3.07,1.5,3.56,3.56,0,0,0,3-1.5,6.06,6.06,0,0,0,1.1-3.7v-.39a6,6,0,0,0-1.1-3.68,3.85,3.85,0,0,0-6.11,0,6.1,6.1,0,0,0-1.1,3.68Z"/><path class="cls-10" d="M668.28,218.45a4.29,4.29,0,0,1-1.61,1.53,4.74,4.74,0,0,1-2.32.54,4.13,4.13,0,0,1-3.52-1.7,7.42,7.42,0,0,1-1.27-4.53V214a8.37,8.37,0,0,1,1.27-4.85,4.08,4.08,0,0,1,3.55-1.83,4.47,4.47,0,0,1,2.27.56,4.59,4.59,0,0,1,1.6,1.59v-6.32l-1.89-.15v-1h3.28v17.09l1.89.16v1H668.4ZM661,214.29a6.43,6.43,0,0,0,.91,3.65,3.06,3.06,0,0,0,2.74,1.36,3.85,3.85,0,0,0,2.23-.61,4,4,0,0,0,1.4-1.67v-6a4.38,4.38,0,0,0-1.34-1.76,3.61,3.61,0,0,0-2.27-.68,3,3,0,0,0-2.75,1.52A7.56,7.56,0,0,0,661,214Z"/><path class="cls-10" d="M679.2,220.52a5,5,0,0,1-3.92-1.75,6.45,6.45,0,0,1-1.56-4.46v-.64a6.64,6.64,0,0,1,1.55-4.51,4.77,4.77,0,0,1,3.74-1.8,4.6,4.6,0,0,1,3.63,1.48,5.69,5.69,0,0,1,1.32,3.94V214H675.1v.34a5.65,5.65,0,0,0,1.13,3.58,3.59,3.59,0,0,0,3,1.45,6,6,0,0,0,2.2-.36,4.47,4.47,0,0,0,1.57-1l.59,1a5,5,0,0,1-1.79,1.19A6.64,6.64,0,0,1,679.2,220.52Zm-.19-12a3.29,3.29,0,0,0-2.58,1.19,5.05,5.05,0,0,0-1.22,3l0,.06h7.35v-.35a4.1,4.1,0,0,0-1-2.77A3.27,3.27,0,0,0,679,208.56Z"/><path class="cls-10" d="M695.86,208.64l-1.56.12,3.13,8.34.41,1.49h.06l.45-1.49,3.08-8.34-1.56-.12v-1h4.22v1l-1.23.11-4.43,11.53h-1.12l-4.44-11.53-1.23-.11v-1h4.22Z"/><path class="cls-10" d="M705.44,213.75a6.85,6.85,0,0,1,1.52-4.59,5.41,5.41,0,0,1,8.06,0,6.85,6.85,0,0,1,1.52,4.59v.39a6.89,6.89,0,0,1-1.51,4.6,5.46,5.46,0,0,1-8.07,0,6.9,6.9,0,0,1-1.52-4.6Zm1.39.39a6.06,6.06,0,0,0,1.11,3.7,3.86,3.86,0,0,0,6.11,0,6.12,6.12,0,0,0,1.1-3.7v-.39a6,6,0,0,0-1.11-3.68,3.84,3.84,0,0,0-6.1,0,6,6,0,0,0-1.11,3.68Z"/><path class="cls-10" d="M718.29,203v-1h3.27v17.09l1.89.16v1h-5.16v-1l1.89-.16v-15.9Z"/><path class="cls-10" d="M728.83,204.35v3.25h2.76v1.15h-2.76V217a2.7,2.7,0,0,0,.45,1.76,1.48,1.48,0,0,0,1.19.52c.22,0,.44,0,.65,0s.46,0,.74-.1l.21,1.05a3.47,3.47,0,0,1-.85.23,5.51,5.51,0,0,1-1,.08,2.58,2.58,0,0,1-2.06-.84,4,4,0,0,1-.74-2.67v-8.26h-2.16V207.6h2.16v-3.25Z"/><path class="cls-10" d="M742.81,220.28c-.09-.43-.16-.8-.2-1.12a7.46,7.46,0,0,1-.06-.95,5.51,5.51,0,0,1-1.85,1.66,5.29,5.29,0,0,1-2.61.65,4,4,0,0,1-2.85-1,3.4,3.4,0,0,1-1-2.6,3.24,3.24,0,0,1,1.49-2.79,7,7,0,0,1,4.06-1h2.77v-1.68a2.71,2.71,0,0,0-.86-2.13,3.53,3.53,0,0,0-2.42-.77,5.84,5.84,0,0,0-1.91.29,4.48,4.48,0,0,0-1.44.77l-.12,1.7h-1.14v-2.43a7.21,7.21,0,0,1,2.08-1.11,7.84,7.84,0,0,1,2.58-.42,5,5,0,0,1,3.34,1.07,3.78,3.78,0,0,1,1.26,3.06v6.23c0,.26,0,.51,0,.75a5.2,5.2,0,0,0,.08.69l1.25.09v1Zm-4.57-1a5,5,0,0,0,2.65-.7,4.14,4.14,0,0,0,1.66-1.82v-2.54h-2.79a5.15,5.15,0,0,0-3,.79,2.35,2.35,0,0,0-1.13,2,2.07,2.07,0,0,0,.7,1.64A2.79,2.79,0,0,0,738.24,219.28Z"/><path class="cls-10" d="M749.43,220.28h-1.65v-2h1.65Zm-.14-5.6h-1.38V203.21h1.38Z"/><g class="cls-11"><path class="cls-3" d="M161,144.12a11.16,11.16,0,0,1,8,3.63,19.34,19.34,0,0,1,4.81-.63,17.54,17.54,0,0,1,13,5.93c14.34,5.38,8.65,14,8.32,14.5l.16,0s8.41,5.88,5.53,8.76c0,0,5.19,6.44,1,9.9a4.57,4.57,0,0,1-1.5.76c11.79,18.36,18.82,50.79,14.18,77.52-.92,5.3-7,9.1-23.27,9.1h0a86.51,86.51,0,0,1-15.76-1.39c.15,1.24.33,2.59.51,3.95h0c.81,5.82,2,12.44,3.3,13.41,8.32,6.25,20.71,8.83,27.68,9.84l10.09.94a25.6,25.6,0,0,1,2.24,2.55h.11c3,0,5.43,3.32,5.43,3.32l39.78,69.64-34.33,61.6s11.53,19.36,5.76,28.12l8,8s1.27,4.26-4.5,4.26c-1.72,0-4.13-.9-6.68-2.17a434.2,434.2,0,0,1,1.59,45.12c-.56-.17-2.24-.39-4.64-.69l0,2.94h0c-.11,20.47-.05,50,1.17,56.77,1.9,10.55,0,15.74,0,15.74S236,677.6,236,678.24s7.26,10,7.26,10,9.61,7.55,17.08,13.55h0s4.5,1.17,6.26,2.64a6.14,6.14,0,0,1,1.88,3.93c.5.34,1.32.9,2.27,1.58a24.15,24.15,0,0,0,6.49,1.21c1,1,0,2.14-1.34,3,.75.8,1.2,1.49,1.07,1.94-.49,1.81-7.44,9.13-20,9.13-.71,0-1.44,0-2.18-.08-13.2-.86-31.5-14.92-33-18.84a11.68,11.68,0,0,1,.19-7.9c0-3.34,2-7.34,3.13-9.34,1.73-3.11,2.94-11.93,2.94-11.93-19-66.74-8.13-76.14-10.2-81-1.32-3.08-13.07-46.77-21.46-78.2h0s0-.09,0-.14c-.48-1.82-1-3.59-1.42-5.32a23,23,0,0,1-4.34-2.56,136.2,136.2,0,0,1-22.82,9L165.39,525l-22.66,56.83s-4.29,15.82-9.4,20.92a224.31,224.31,0,0,1-12.62,36.48c-8.64,19.37-12.45,46-12.45,46s6.2,15.73,6.92,25.55c7.29,10,13.83,22.29,5.15,25.92a49.76,49.76,0,0,1-18.87,3.32c-10.46,0-19.84-2.45-22-4.64-3.51-3.51,6.47-30.14,6.47-30.14.31-2.42,1-4.76,2.39-5.75,3.46-2.42,7.61-8.3,7.61-8.3s-1.3-3.45,2.33-8.12,9-34.61,9-38.53-4.85-33.2,11.29-44.73c0,0,1.85-37.44,6.58-64.51h0c.51-3.07,1.07-6,1.68-8.74-5,.41-7.93.47-7.93.47s4.79-13.36,10.91-30.54c-5.22-.49-1.79-8.6-1.79-8.6a42.59,42.59,0,0,0,6.14-3.61l2-5.63c-1.73-4.26,2.58-17.5,2.58-17.5l-15.84-12L76.79,414.49s37-87.26,38.5-88.76c1-1,8.12-5.16,13-8,5.16-5.16,16.23-9.24,16.23-9.24s10.55-11.93,12.8-14.18,1.21-8.47,1.21-8.47l-5.77-22.19c-10.21-6.41-14.23-13.55-14.23-13.55a5.12,5.12,0,0,1-3.76,1.51c-3.36,0-6.73-2.54-6.73-2.54s-14.64-14.64-10-21.56a4.35,4.35,0,0,1,3.8-2.09c3,0,6.61,2.48,9.14,4.62-5.2-4.54-8-5.16-9.1-5.16a1.69,1.69,0,0,0-.35,0l-.09.06-.07,0a.26.26,0,0,0-.1,0l-.05-.11c-1.09-.54-6-3.23-6.42-7.79-8.27-2.59-6.67-7.2-6.67-7.2-8-5.42,0-14.12,0-14.12-3.55-3.54-.81-8.7-.81-8.7-4.15-5.88,1-13.14,1-13.14.57-6.34,10.08-10.09,10.08-10.09.75-3.17,4.67-4.67,4.67-4.67a6.93,6.93,0,0,1,6.39-3.94c.33,0,.53,0,.53,0,3.45-7.45,16.38-8.16,21.21-8.16,1.15,0,1.84,0,1.84,0a12.94,12.94,0,0,1,7.85-3m65,272.39L247.31,378,227,347.86c.54,8.66.87,17.57.78,25.94a338.19,338.19,0,0,1-3,40.92,2.89,2.89,0,0,1,1.17,1.79m-78,28.68c2.06-5.91,3.86-11.08,5.21-15-2.14-4.29,1.21-6.22,2.22-6.69.11-.38.21-.69.27-.92,2.07-7.61-17.46-44.93-17.46-44.93l-16.5-10.33L98.55,410.78l37,25.76,12.41,8.65M268,708h0M161,138.76h0a17.46,17.46,0,0,0-9.47,3h-.22c-6.95,0-18.65,1.17-24.31,8.39a12.09,12.09,0,0,0-7.62,5,13.61,13.61,0,0,0-5,4.75c-3.43,1.74-9.7,5.73-11.09,12.12-2.19,3.64-4.23,9.77-1.8,15.54a13.12,13.12,0,0,0,.26,8.07,16,16,0,0,0-2.4,9.71,12.05,12.05,0,0,0,3.45,7.11,10.14,10.14,0,0,0,.94,2.82,13.24,13.24,0,0,0,6.62,5.91,14.22,14.22,0,0,0,2.76,4.27c-2.61,4.77-1.32,11,3.81,18.54a69.07,69.07,0,0,0,7.39,9l.56.49c.8.6,5.06,3.62,10,3.62a11,11,0,0,0,2-.17A53.91,53.91,0,0,0,148.14,267l5.18,19.91a12.36,12.36,0,0,1,0,3.89C151,293.23,144,301.06,141.42,304c-3.25,1.29-11.37,4.82-16.32,9.45-12,6.91-12.95,7.88-13.6,8.52-1,1-1.66,1.67-21,46.62C81.22,390.32,72,412.18,71.86,412.4l1.7,6.37,46.06,34.74,12.86,9.7c-1.34,4.76-2.59,10.8-1.95,15.15l-.89,2.51a42.38,42.38,0,0,1-4,2.2L123,485.83c-.73,1.71-2.9,7.66-.26,12.08a6.92,6.92,0,0,0,.52.77c-5.43,15.23-9.5,26.57-9.5,26.57l5.15,7.17,1.21,0c-.12.68-.24,1.37-.35,2.07h0c-4.09,23.42-6,53.89-6.51,62.7C99,609.7,101,634.23,101.71,642.54c.07.83.15,1.76.15,2-.06,4.36-5.38,31.48-7.89,35.27a16.1,16.1,0,0,0-3.66,9.91,30.26,30.26,0,0,1-5.09,5.38c-2.42,1.69-3.91,4.58-4.55,8.82-.66,1.79-2.71,7.48-4.47,13.58-3.64,12.57-3.79,18.44-.56,21.67,4.08,4.08,16.08,6.21,25.82,6.21a55.06,55.06,0,0,0,20.94-3.73,11.52,11.52,0,0,0,7-7.64c1.71-6.15-1.15-14.18-9-25.19-1-8.72-5.12-20.23-6.6-24.18.89-5.56,4.68-27.2,11.83-43.22a233.43,233.43,0,0,0,12.62-36.1c5.06-6.21,8.7-18.54,9.59-21.78L170.37,527l1.47-3.67a142.75,142.75,0,0,0,18.42-7.24l.14.08.81,3,0,.08v0c18.17,68.09,20.86,76.72,21.56,78.55,0,.48-.2,1.47-.34,2.29-1.3,7.81-4.34,26,10.16,77.33-.56,3.54-1.5,7.78-2.16,9-2.29,4.12-3.56,7.8-3.77,10.95a16.61,16.61,0,0,0,.13,10.8c1.94,5.1,12.19,11.87,14.22,13.17,4.91,3.15,14.49,8.53,23.43,9.12.84,0,1.69.08,2.53.08,14.4,0,23.91-8.38,25.19-13.07a6.17,6.17,0,0,0,.15-2.5,6.6,6.6,0,0,0,.69-2.37,6.5,6.5,0,0,0-2-5.32l-3.56-1.57a20.78,20.78,0,0,1-4.23-.66,10.5,10.5,0,0,0-3.2-4.81,21.77,21.77,0,0,0-7.19-3.4c-6.27-5-13.74-10.91-15.75-12.49-2.24-2.89-4.74-6.21-5.82-7.77-.25-4.24-1.23-20.09-5-80.53.59-2.45,1.49-8.22-.14-17.26-.84-4.68-1.24-24.55-1.08-54.59l4.68-3.35c0-.85.41-18.56-.94-37.74l.67,0c4.67,0,7.11-2,8.34-3.62a8.72,8.72,0,0,0,1.3-7.54l-1.35-2.27-5.4-5.4c1.27-4.72.6-10.73-2-17.94a76.69,76.69,0,0,0-3.95-8.92l32.89-59,0-5.27-39.78-69.64-.3-.47a14.21,14.21,0,0,0-7.06-5.17c-.41-.46-.83-.91-1.28-1.36l-3.3-1.55-9.95-.93c-6.05-.88-16.92-3.1-24.3-8.22a49.4,49.4,0,0,1-1.55-7.36c3.1.31,6.27.47,9.49.47,6.5,0,26.22,0,28.57-13.55,4.31-24.81-.94-56.41-12.53-77.29,2.49-3.78,1.72-8.58-.53-12.58a8.57,8.57,0,0,0,0-1.34c-.28-3.28-2.71-6.27-5.16-8.49a12.76,12.76,0,0,0-.29-6.57c-1.42-4.52-5.23-8.1-11.34-10.64a23.21,23.21,0,0,0-16.2-6.78,23.9,23.9,0,0,0-3.25.23,15.91,15.91,0,0,0-9.51-3.22ZM232.32,394c.42-6,.76-12.84.84-20.14q0-3.48,0-7.28L241,378.3,232.32,394Zm-126.8,15.1,18.19-34.2,10.38,6.5c1.43,2.79,4.95,9.76,8.37,17.3,6.36,14.05,7.67,19.69,7.92,21.7a9.78,9.78,0,0,0-2.77,4.05,9.61,9.61,0,0,0-.16,5.79c-.65,1.89-1.4,4.07-2.25,6.51l-6.61-4.61-33.07-23Z"/><path class="cls-5" d="M152,260.6l6.57,25.25s1,6.22-1.21,8.47-12.8,14.18-12.8,14.18l-5.88,11.58,34.07,19.37,40.63-10.89L212.18,300s-20.81-1.33-32.94-10.44c-2.38-1.79-4.41-22.59-4.41-22.59Z"/><path class="cls-12" d="M176,276.18c-.64-4.66-1.16-9.35-1.16-9.35L152,260.43l1.83,7s7.14,4.66,9.36,5.64A43.65,43.65,0,0,0,176,276.18Z"/><path class="cls-5" d="M133.07,315s-16.28,9.19-17.78,10.69-38.5,88.76-38.5,88.76l46.06,34.73,15.84,12s-5,15.39-2.07,18.33-8.65,8.41-8.65,8.41-4.49,10.61,4.62,8.3S154,487.81,154,487.81l6.11-34.13-24.61-17.14-37-25.76,23.13-43.48,16.5,10.33,20.23-14.78-14.53-36.2-6.22-13.6Z"/><path class="cls-5" d="M138.58,250.11s13.2,23.51,52.62,23.51c16.31,0,22.37-3.8,23.29-9.1,5.77-33.26-6.52-75.34-23.58-88.18-14.95-11.26-68,31.35-68,31.35l11.3,25.36s-11.53-12.45-16.14-5.53,10,21.56,10,21.56S134.66,254,138.58,250.11Z"/><path class="cls-5" d="M217.36,303.43c3.92-2.08,7.43,2.81,7.43,2.81l39.78,69.64-34.33,61.6s11.53,19.36,5.76,28.12l8,8s1.27,4.26-4.5,4.26-19.36-10.14-19.36-10.14l1.57-43.43L247.31,378l-23.54-35-7.36-6.52S210.05,307.3,217.36,303.43Z"/><path class="cls-5" d="M176,498.33l-33.31,83.54s-4.29,15.82-9.4,20.92a224.31,224.31,0,0,1-12.62,36.48c-8.64,19.37-12.45,46-12.45,46s7.87,20,6.92,29c0,0,7.52,10.38,4.49,16.34S104.8,733,104.8,733s-19.79,2.6-22.73-2.33,3.71-18.16,3.71-18.16-1-10.55,2.51-13,7.61-8.3,7.61-8.3-1.3-3.45,2.33-8.12,9-34.61,9-38.53-4.85-33.2,11.29-44.73c0,0,3.92-79.54,15-90.6S176,491.61,176,491.61Z"/><path class="cls-13" d="M176,498.33,165.39,525s-14.73,6.58-18.46,7.49c-2.77.68-22.49,6.78-21.83,2.8,2.07-12.43,4.93-22.61,8.41-26.08C144.57,498.18,176,491.61,176,491.61Z"/><path class="cls-5" d="M187.92,486s27.89,105.36,30,110.2-8.82,14.24,10.2,81c0,0-1.21,8.82-2.94,11.93s-5.71,11.07-.69,13.84,21.27,16.59,28.18,17.8,19.89-4.84,19.89-4.84,6.91-2.59,4.75-4.75c0,0-6.31-.26-8.38-2.34s-25.6-20.57-25.6-20.57-7.26-9.34-7.26-10-5.18-82.71-5.18-82.71,1.9-5.19,0-15.74-1-77-1-77Z"/><path class="cls-13" d="M187.92,486s6.56,24.71,8.51,32c.75,2.81,33.27,5.06,33.27,5.06l.18-20.23Z"/><path class="cls-14" d="M187.92,506.83c5.39,10.69,43.31,12.95,46.45,13.94,0,0,1-42.94-5.06-67.07S187.92,506.83,187.92,506.83Z"/><path class="cls-15" d="M141.81,240.66c6.68,2.77.92-9.22.92-9.22s-.63-12-4-14.06a49.13,49.13,0,0,1-7.42-6.07l63.79-43.73s6.46-9-8.3-14.53a17.55,17.55,0,0,0-17.86-5.3s-6.46-7.72-15.8-.63c0,0-18.79-1.1-23,8.12a7,7,0,0,0-6.92,3.92s-3.92,1.5-4.67,4.67c0,0-9.51,3.75-10.08,10.09,0,0-5.19,7.26-1,13.14,0,0-2.74,5.16.81,8.7,0,0-8,8.7,0,14.12,0,0-2,5.65,9.68,8l3.46,7.14s3.33-1.51,12.91,8.07Z"/><path class="cls-12" d="M188.26,241.3a2.26,2.26,0,0,1,0-4.51c2.44,0,9.25-2.06,14-3.67-1.45-11.87-9-20.74-13.57-25.08a2.25,2.25,0,1,1,3.11-3.26c5.22,5,14.13,15.48,15.12,29.73l.12,1.7-1.61.58C204.1,237.25,192.68,241.3,188.26,241.3Z"/><path class="cls-16" d="M170.42,222.29h-.09a2.25,2.25,0,0,1-2.16-2.34c0-.66.38-6.46,4.51-8.66,2.62-1.4,5.88-.91,9.7,1.43a2.26,2.26,0,1,1-2.36,3.85c-2.29-1.41-4.15-1.87-5.22-1.3-1.63.87-2.09,4.06-2.12,4.86A2.26,2.26,0,0,1,170.42,222.29Z"/><path class="cls-16" d="M196.64,212.13a2.22,2.22,0,0,1-1-.22,2.26,2.26,0,0,1-1.07-3c1.53-3.2,3.53-4.91,5.94-5.06,3.93-.28,6.82,4,7.13,4.48a2.26,2.26,0,1,1-3.79,2.45c-.68-1-2.17-2.45-3-2.43-.48,0-1.3.71-2.15,2.5A2.27,2.27,0,0,1,196.64,212.13Z"/><path class="cls-17" d="M167.93,242.17c-.34-.51,24.61,5.85,35.49.39,0,0-1.4,19.58-10.38,20.2C183.79,263.41,174.15,258.1,167.93,242.17Z"/><g class="cls-18"><path class="cls-19" d="M165.75,244.91s22.51,10.81,34.84,2.1l-.5-5L165,238.38Z"/><path class="cls-20" d="M168.44,254.29s8.86-6,20.14.93S186.22,269,186.22,269Z"/></g><path class="cls-12" d="M190.56,264.32c-16.39,0-24-21.42-24.05-21.66l-.88-2.55,2.63.59c.23.05,23.26,5.16,34.58.47a1.52,1.52,0,0,1,2,.82,1.49,1.49,0,0,1-.82,2c-9.85,4.09-26.88,1.51-33.59.25,2.71,5.92,10.68,19.94,24.33,16.59a1.5,1.5,0,0,1,.72,2.92A20.45,20.45,0,0,1,190.56,264.32Z"/><path class="cls-12" d="M133.68,247.46s-.35-15.13-12-18.76"/><path class="cls-12" d="M121.68,367.3s10-13.37,8.66-11.34C123,367.26,149,380.3,155.12,373.34c0,0-6.05,7.72-16.94,4.29Z"/><path class="cls-21" d="M144.57,308.5s-11.07,4.08-16.23,9.24c0,0,31,45,9.84,59.89,0,0,19.53,37.32,17.46,44.93s-36.79,104.5-36.79,104.5,107.21-1.91,111-72l-5.08-40.35a338.19,338.19,0,0,0,3-40.92c.22-19.69-1.93-42.31-3.52-57.76A24.88,24.88,0,0,0,217,300.37l-10.09-.94s8,26.71-10.47,29.23C186.5,330,162.56,333.24,144.57,308.5Z"/><g class="cls-22"><path class="cls-23" d="M122.85,529.68s107.2-1.9,111-72Z"/></g><path class="cls-21" d="M144.57,308.5s-11.07,4.08-16.23,9.24c0,0,31,45,9.84,59.89,0,0,19.53,37.32,17.46,44.93s-36.79,104.5-36.79,104.5,107.21-1.91,111-72l-5.08-40.35a338.19,338.19,0,0,0,3-40.92c.22-19.69-1.93-42.31-3.52-57.76A24.88,24.88,0,0,0,217,300.37l-10.09-.94s8,26.71-10.47,29.23C186.5,330,162.56,333.24,144.57,308.5Z"/><path class="cls-5" d="M122.85,449.22l15.84,12s-5,15.39-2.07,18.33-8.65,8.41-8.65,8.41-4.49,10.61,4.62,8.3S154,487.81,154,487.81l5.18-28.95s1.59-5.68-4.87-9.47c-5-2.93-18.81-12.85-18.81-12.85Z"/><path class="cls-4" d="M153.26,430.4s56.52,7.53,72.2-10.46c0,0,1.71-3.55-.66-5.22.34,3.33-26.54,17.81-69.16,8.65C155.64,423.37,150.49,425.21,153.26,430.4Z"/><circle class="cls-24" cx="200.21" cy="427.68" r="13.18"/><g class="cls-25"><path class="cls-26" d="M137.61,172.65s-5.66,6.86,1.52,11.44c2.51,1.61-7.44,9.34-7.44,9.34l-4,22.56s5.19-2.08,8.65-2.08l18.2,20.84L142.84,242,105.61,217,80.83,169.08l31.93-29L147.69,132l-6.14,12.16s-14.83,9.06-9.17,15.59C128.84,162.2,128.15,172,137.61,172.65Z"/></g><path class="cls-10" d="M121.46,225s-6.68-3-6.68-8.53,26.05-57.86,80.46-48.87c0,0,8.41,5.88,5.53,8.76,0,0,5.19,6.44,1,9.9S177.48,184.63,121.46,225Z"/><path class="cls-27" d="M124.4,212.77s34.81-42.43,72-36.89C196.45,175.88,161.75,177.74,124.4,212.77Z"/><path class="cls-28" d="M201.66,438.69c-2.07,0-6.51-.42-9.42-3.67-2.53-2.81-3.23-6.9-2.1-12.15a2.26,2.26,0,1,1,4.41.95c-.81,3.76-.46,6.51,1,8.19,2.26,2.53,6.67,2.15,6.71,2.14a2.26,2.26,0,1,1,.47,4.49A10.13,10.13,0,0,1,201.66,438.69Z"/><path class="cls-29" d="M208.17,434.22a2.81,2.81,0,0,1-.49-.05,2.27,2.27,0,0,1-1.71-2.7c.83-3.75.49-6.51-1-8.19-2.25-2.54-6.66-2.19-6.7-2.18a2.27,2.27,0,0,1-2.47-2,2.25,2.25,0,0,1,2-2.46c.28,0,6.73-.61,10.53,3.67,2.5,2.83,3.19,6.92,2,12.17A2.25,2.25,0,0,1,208.17,434.22Z"/><path class="cls-16" d="M167.11,208.22c.77-2.67,3.06-4.45,5.19-6.07,1.35-1,0-3.35-1.36-2.31-2.72,2.06-5.43,4.26-6.41,7.67a1.34,1.34,0,0,0,2.58.71Z"/><path class="cls-16" d="M195.59,196.21a5.73,5.73,0,0,1,4.76,1.66c1.24,1.21,3.14-.68,1.9-1.89a8.58,8.58,0,0,0-7.37-2.36c-1.7.24-1,2.82.71,2.59Z"/></g></svg>