<svg id="Camada_1" data-name="Camada 1" xmlns="http://www.w3.org/2000/svg" xmlns:xlink="http://www.w3.org/1999/xlink" viewBox="0 0 849.96 508"><defs><style>.cls-1{fill:none;}.cls-2{clip-path:url(#clip-path);}.cls-3{fill:#eaa000;}.cls-4{fill:#6d472e;}.cls-5{fill:#eac2a7;}.cls-6{fill:#97d8dd;}.cls-7{fill:#027e8f;}.cls-8{fill:#65c4d1;}.cls-9{fill:#fff;}.cls-10{clip-path:url(#clip-path-2);}.cls-11{fill:#c9a68f;}.cls-12{fill:#d6aa8b;}.cls-13{fill:#d6d6d6;}.cls-14{fill:#c99f4b;}.cls-15{fill:#6d5f56;}.cls-16{fill:#493e38;}.cls-17{clip-path:url(#clip-path-3);}.cls-18{fill:#fcfcfc;}.cls-19{fill:#d32222;}.cls-20{fill:#f4f4f4;}.cls-21{clip-path:url(#clip-path-4);}.cls-22{fill:#b7b7b7;}.cls-23{fill:#c99e32;}.cls-24{clip-path:url(#clip-path-5);}.cls-25{fill:#aa7e30;}.cls-26{fill:#ddd;}.cls-27{fill:#846829;}.cls-28{fill:#e8cd95;}</style><clipPath id="clip-path"><path class="cls-1" d="M380.59-292.37c0-48.34-120.84-59.14-145.68-96.75-29.64-44.88-64.33-67.67-88.72-67.67-48.59,0-33.12,8.79-67.42,37.62-42.33,35.59-32.34,73.1-32.34,132.28,0,61.55-29.89,110.92,15.4,146.46A197.31,197.31,0,0,0,184-98.37C292.59-98.37,380.59-185.23,380.59-292.37Z"/></clipPath><clipPath id="clip-path-2"><path class="cls-1" d="M380.59,305.42c0-48.34-120.84-59.13-145.68-96.74C205.27,163.8,170.58,141,146.19,141c-48.59,0-33.12,8.79-67.42,37.63-42.33,35.59-32.34,73.09-32.34,132.28,0,61.55-29.89,110.92,15.4,146.46A197.31,197.31,0,0,0,184,499.43C292.59,499.43,380.59,412.57,380.59,305.42Z"/></clipPath><clipPath id="clip-path-3"><path class="cls-1" d="M160.1,249.89c-.38-.41,23,1.48,31.88-5.16,0,0,1.76,18-6.21,19.92C177.58,266.67,168.12,263.36,160.1,249.89Z"/></clipPath><clipPath id="clip-path-4"><path class="cls-1" d="M173.31,515.57c5.42,10.87,43.56,13.16,46.72,14.17,0,0,1-43.64-5.09-68.16S173.31,515.57,173.31,515.57Z"/></clipPath><clipPath id="clip-path-5"><path class="cls-1" d="M126.94,245.1c6.73,2.81.93-9.37.93-9.37s-.63-12.21-4.06-14.29a49.19,49.19,0,0,1-7.46-6.17l17.18-11.9,47-32.54s6.49-9.13-8.35-14.75a17.55,17.55,0,0,0-18-5.39s-6.5-7.85-15.89-.65c0,0-18.89-1.11-23.18,8.26a7.06,7.06,0,0,0-7,4s-3.94,1.53-4.69,4.75c0,0-9.56,3.8-10.14,10.25,0,0-5.22,7.38-1,13.35,0,0-2.75,5.24.82,8.84,0,0-8,8.85,0,14.35,0,0-2,5.74,9.73,8.09l3.48,7.26s3.35-1.54,13,8.2S126.94,245.1,126.94,245.1Z"/></clipPath></defs><title>Fala5</title><g class="cls-2"><path class="cls-3" d="M146.19-450.79a11.21,11.21,0,0,1,8,3.68,19.08,19.08,0,0,1,4.84-.64,17.56,17.56,0,0,1,13.12,6c14.42,5.46,8.7,14.25,8.37,14.74l.15,0s8.47,6,5.57,8.9c0,0,5.22,6.55,1,10.06a4.35,4.35,0,0,1-1.51.77c11.86,18.67,18.93,51.61,14.26,78.78-.92,5.38-7,9.25-23.4,9.25h0a85.75,85.75,0,0,1-15.86-1.42c.16,1.26.34,2.64.52,4h0c.82,5.92,2,12.65,3.33,13.64,8.36,6.34,20.82,9,27.83,10l10.15,1a24.62,24.62,0,0,1,5.27,7.82h0l59.23,55.56,46.75-39.94s3.1-12.33,20.4-12.33a44.74,44.74,0,0,1,7.12.61c23.6,3.87-2.14,6.68-2.14,6.68s2.67-.22,6.61-.22c5.91,0,14.68.5,21.56,3l3.57,4.4-8.18,8.25s-18.83,2.64-29.62,2.64c-3.42,0-6-.27-7-1a.72.72,0,0,0-.42-.11c-6.42,0-59.22,50.32-59.22,50.32l-54.37-44.44c.81,10.91,1.38,22.55,1.26,33.33a347.74,347.74,0,0,1-3,41.58c2.37,1.7.66,5.3.66,5.3l4.44,35.7c0,.26,0,.52-.06.79,5.51,24.82,4.58,66,4.58,66a44.17,44.17,0,0,0-4.67-.7l0,3h0c-.11,20.8,0,50.84,1.17,57.69,1.92,10.72,0,16,0,16s5.22,83.4,5.22,84,7.3,10.13,7.3,10.13,9.66,7.68,17.18,13.78h0s4.52,1.19,6.29,2.68a6.24,6.24,0,0,1,1.89,4c.5.35,1.33.92,2.28,1.61a24.41,24.41,0,0,0,6.53,1.23c1,1,0,2.17-1.35,3.09.75.81,1.2,1.51,1.08,2-.49,1.83-7.49,9.27-20.13,9.27-.71,0-1.44,0-2.19-.07-13.27-.88-31.67-15.17-33.18-19.15a11.94,11.94,0,0,1,.2-8c0-3.39,2-7.45,3.14-9.49,1.74-3.16,3-12.12,3-12.12C194.58,23,205.54,13.47,203.45,8.55,202.13,5.42,190.31-39,181.87-70.91h0l0-.1q-.75-2.79-1.44-5.45A22.85,22.85,0,0,1,176-79.07a135.44,135.44,0,0,1-22.95,9.2L127.87-6s-4.32,16.07-9.45,21.26a230.82,230.82,0,0,1-12.69,37.07C97,72,93.21,99.1,93.21,99.1s6.23,16,7,26c7.33,10.13,13.91,22.64,5.18,26.33-5.81,2.46-12.6,3.37-19,3.37-10.52,0-20-2.49-22.15-4.71-3.53-3.57,6.5-30.63,6.5-30.63.31-2.46,1-4.83,2.41-5.84,3.48-2.46,7.65-8.43,7.65-8.43s-1.31-3.51,2.35-8.26,9-35.17,9-39.15S87.3,24,103.53,12.3c0,0,1.85-38,6.61-65.56h0c.52-3.12,1.08-6.11,1.69-8.88-5,.42-8,.47-8,.47s4.81-13.57,11-31c-5.25-.5-1.8-8.74-1.8-8.74a43.38,43.38,0,0,0,6.17-3.67q1-2.83,2-5.72c-1.73-4.33,2.6-17.78,2.6-17.78l-15.93-12.15L61.56-176s37.22-88.68,38.72-90.2c1-1,8.17-5.24,13.12-8.13h0c5.19-5.23,16.33-9.38,16.33-9.38s10.6-12.13,12.86-14.41,1.22-8.61,1.22-8.61L138-329.32c-10.25-6.52-14.3-13.77-14.3-13.77a5.12,5.12,0,0,1-3.78,1.53c-3.38,0-6.77-2.59-6.77-2.59S98.43-359,103.06-366a4.37,4.37,0,0,1,3.82-2.13c3,0,6.65,2.53,9.19,4.7-5.22-4.61-8-5.24-9.14-5.24a1.79,1.79,0,0,0-.36,0l-.09.06-.07,0a.26.26,0,0,0-.1,0l0-.11c-1.1-.55-6-3.29-6.45-7.92C91.49-379.29,93.1-384,93.1-384c-8-5.51,0-14.35,0-14.35-3.57-3.6-.82-8.84-.82-8.84-4.17-6,1-13.36,1-13.36.58-6.44,10.14-10.25,10.14-10.25.75-3.22,4.69-4.74,4.69-4.74a7,7,0,0,1,6.43-4,4,4,0,0,1,.53,0c3.47-7.58,16.47-8.3,21.33-8.3,1.16,0,1.85,0,1.85,0a12.83,12.83,0,0,1,7.89-3M133.11-144.86c2.08-6,3.88-11.26,5.24-15.27-2.15-4.35,1.22-6.31,2.23-6.79.12-.39.21-.7.27-.94,2.09-7.73-17.56-45.65-17.56-45.65L106.7-224,83.44-179.82l37.19,26.17,12.48,8.79M253.86,122.19h0m-107.67-579h0a17.87,17.87,0,0,0-9.71,3h0c-7.06,0-18.92,1.2-24.81,8.58a12.68,12.68,0,0,0-7.74,5.15,14.21,14.21,0,0,0-5,4.82c-3.56,1.85-9.82,6-11.28,12.53-2.22,3.77-4.27,10.06-1.86,16a14.05,14.05,0,0,0,.24,8.12,16.66,16.66,0,0,0-2.36,10,12.85,12.85,0,0,0,3.5,7.4,10.73,10.73,0,0,0,1,2.89,13.82,13.82,0,0,0,6.71,6.13,15,15,0,0,0,2.54,4c-2.49,5-1.14,11.37,4,19a72.37,72.37,0,0,0,7.49,9.19l.3.29.33.26c.84.63,5.27,3.81,10.41,3.81a12.22,12.22,0,0,0,1.72-.12,54.58,54.58,0,0,0,11.13,10.08l5.15,20a13.07,13.07,0,0,1,0,3.6c-2.43,2.55-9.14,10.18-11.75,13.17-3.38,1.37-11.43,4.93-16.43,9.62-12.06,7-13,8-13.73,8.72-1.13,1.14-1.75,1.77-21.18,47.54C65.45-200.81,56.13-178.6,56-178.38l-1.79,4.28,3.69,2.82L104.24-136l12.64,9.64c-1.3,4.78-2.49,10.73-1.89,15.13l-.8,2.28c-1.85,1.17-3.73,2.08-3.75,2.09l-2,1-.89,2.1c-.76,1.81-3,8.07-.2,12.78l.36.56c-5.41,15.34-9.45,26.74-9.45,26.75l-2.9,8.16,8.66-.16h.5c-.06.32-.11.64-.17,1l-.16.47v.47c-4,23.58-6,53.92-6.46,63.09C83.23,22.29,85.31,47.24,86,55.72c.06.78.14,1.76.15,2-.09,4.46-5.29,31.47-7.84,35.54a16.55,16.55,0,0,0-3.78,10.19,30.25,30.25,0,0,1-4.89,5.21c-2.55,1.8-4.12,4.84-4.79,9.27-.68,1.87-2.73,7.63-4.49,13.78-3.77,13.15-3.88,19-.42,22.53,4.22,4.26,16.48,6.49,26.41,6.49a55.56,55.56,0,0,0,21.31-3.84,12.19,12.19,0,0,0,7.33-8.09c1.79-6.39-1.08-14.66-9-25.95-1-8.82-5.08-20.32-6.61-24.44.93-5.82,4.72-27.56,11.84-43.66a240.73,240.73,0,0,0,12.69-36.67c5.11-6.41,8.75-18.86,9.66-22.2L157.62-65a143,143,0,0,0,17.75-7l.67,2.55,0,.11C194-1.59,197,8.23,197.72,10.36c-.05.5-.2,1.42-.32,2.18-1.32,8-4.39,26.54,10.19,78.7-.59,3.84-1.52,7.78-2.09,8.83-2.36,4.29-3.63,8-3.86,11.27a17.76,17.76,0,0,0,.16,11.26c2,5.2,11.62,11.76,14.53,13.65,5,3.24,14.73,8.76,23.87,9.36.86.06,1.73.09,2.58.09,14.8,0,24.59-8.79,25.92-13.7a6.64,6.64,0,0,0,.18-2.58,7.1,7.1,0,0,0,.68-2.44,7.2,7.2,0,0,0-2.12-5.83l-1.65-1.68-2.35-.1a20.42,20.42,0,0,1-3.8-.56,11.16,11.16,0,0,0-3.29-4.85,22.41,22.41,0,0,0-7.34-3.54c-6.22-5-13.6-10.91-15.69-12.57-2.18-2.85-4.6-6.09-5.71-7.7-.27-4.55-1.27-21-5.07-81.63.62-2.58,1.49-8.5-.14-17.66-.39-2.19-1.26-11.65-1.1-52.21l4.54,1.45.19-8c0-1.69.87-41.23-4.53-66.53v-.06l0-.53-.07-.52-4.26-34.29a10.75,10.75,0,0,0-.52-7.6,358.8,358.8,0,0,0,2.74-39.88c.07-6.09-.07-12.72-.43-20.06l43.74,35.74,4.11,3.36,3.83-3.66c21.69-20.66,47.84-44,55.13-48.26a30,30,0,0,0,7.35.68c11.08,0,29.67-2.58,30.46-2.69l2-.29,1.43-1.44,8.17-8.25L379-266l-3.39-4.18L372-274.6l-1-1.28-1.55-.57a55.7,55.7,0,0,0-12.5-2.79c-.63-1.82-2.24-3.71-5.82-5a55.08,55.08,0,0,0-8.81-2,50.51,50.51,0,0,0-8.09-.69c-17.29,0-23.56,10.25-25.49,14.78L267.26-236.7l-54.45-51.08a30.52,30.52,0,0,0-6-8.46l-1.54-1.55-2.16-.2-10-.94c-6-.89-16.68-3.1-24-8.14a49.86,49.86,0,0,1-1.38-6.53c2.89.26,5.84.4,8.84.4,6.66,0,26.88,0,29.32-14.23,4.34-25.21-.91-57.29-12.51-78.6,2.4-3.93,1.64-8.82-.61-12.92a8.07,8.07,0,0,0,0-1.3c-.3-3.38-2.69-6.45-5.15-8.76a13.5,13.5,0,0,0-.37-6.68c-1.48-4.71-5.38-8.43-11.61-11.08a23.88,23.88,0,0,0-16.65-7,25.07,25.07,0,0,0-3.1.2,16.56,16.56,0,0,0-9.74-3.24Zm-55,275.1L109-215.47l9.72,6.15c1.47,2.9,4.92,9.81,8.28,17.29,6.2,13.82,7.64,19.62,8,21.78a10.35,10.35,0,0,0-2.72,4.11,10.48,10.48,0,0,0-.22,6.07c-.57,1.69-1.22,3.6-2,5.71l-6-4.19L91.21-181.69Z"/><path class="cls-4" d="M207.61,112.45a12,12,0,0,0-.2,8c1.51,4,19.91,18.27,33.18,19.15,14,.93,21.8-7.26,22.32-9.2s-9.05-8.24-9.05-8.24Z"/><path class="cls-4" d="M70.72,119.43s-10,27.06-6.5,30.63S90,157.9,105.35,151.4,88.56,111,88.56,111Z"/><path class="cls-5" d="M161.37-90.86,127.87-6s-4.32,16.07-9.45,21.26a230.82,230.82,0,0,1-12.69,37.07C97,72,93.21,99.1,93.21,99.1s7.91,20.29,7,29.43c0,0,7.56,10.54,4.52,16.6s-15,2.46-15,2.46-19.91,2.64-22.86-2.37,3.74-18.45,3.74-18.45-1-10.72,2.52-13.18,7.65-8.43,7.65-8.43-1.31-3.51,2.35-8.26,9-35.17,9-39.15S87.3,24,103.53,12.3c0,0,3.94-80.82,15.07-92.07s42.77-17.92,42.77-17.92Z"/><path class="cls-5" d="M173.31-103.43s28.06,107.06,30.14,112S194.58,23,213.71,90.84c0,0-1.22,9-3,12.12S205,114.21,210.06,117s21.39,16.87,28.34,18.1,20-4.92,20-4.92,7-2.64,4.78-4.83c0,0-6.35-.27-8.43-2.38S229,102.08,229,102.08s-7.3-9.48-7.3-10.13-5.22-84-5.22-84,1.92-5.27,0-16-1-78.25-1-78.25Z"/><path class="cls-4" d="M65.52,140.07s19.91-8.61,39.82-2a8.81,8.81,0,0,0-1.47-4.92c-1.66-2.64-26.61-6.68-37.21,2.15C66.66,135.28,64.39,138.57,65.52,140.07Z"/><path class="cls-4" d="M233.9,133.37s.77-17.72,20-11.18l.52.43a6.38,6.38,0,0,0-1.9-4.08c-1.77-1.49-6.29-2.68-6.29-2.68s-17.59-4.38-17.33,14.5C228.86,130.36,231.6,134.25,233.9,133.37Z"/></g><path class="cls-3" d="M178.5,157.82c93.46.1,169.21,76.64,169.31,171.09S272,500,178.5,500,9.18,423.4,9.18,328.91,85,157.82,178.5,157.82m0-8h0a174.9,174.9,0,0,0-69.06,14.08,176.81,176.81,0,0,0-56.36,38.4,180.13,180.13,0,0,0,0,253.22,176.62,176.62,0,0,0,56.36,38.39,176.26,176.26,0,0,0,138.11,0,176.62,176.62,0,0,0,56.36-38.39,180.08,180.08,0,0,0-.06-253.16A176.68,176.68,0,0,0,247.52,164a174.73,174.73,0,0,0-69-14.14Z"/><path class="cls-6" d="M178.49,157.82C85,157.82,9.18,234.42,9.18,328.91S85,500,178.49,500s169.32-76.6,169.32-171.09S272,157.92,178.49,157.82Zm0,330.77c-87.27,0-158-71.49-158-159.68s70.75-159.69,158-159.69,158,71.49,158,159.69S265.73,488.49,178.49,488.59Z"/><path class="cls-6" d="M258.4,204.63a5.59,5.59,0,0,0-7.81,1.66l-9.24,14.34a5.74,5.74,0,0,0-.77,4.37,5.67,5.67,0,0,0,2.57,3.61,76.27,76.27,0,0,1,6.33,4.56c1.27,1,2.54,2,3.53,2.67,1.75,1.45,3.44,3,5.11,4.54l-3.9,4a112.82,112.82,0,0,0-24.74-17.13L241,201a5.73,5.73,0,0,0,.11-4.36,5.61,5.61,0,0,0-3-3.17,146.35,146.35,0,0,0-52-12.52,5.59,5.59,0,0,0-4.08,1.45,5.73,5.73,0,0,0-1.85,3.95l-.87,17.09a5.69,5.69,0,0,0,5.33,6l5.94.3,6.33,1c.81.14,1.63.26,2.44.38,1.22.18,2.44.35,3.51.6l.78.2-1.48,5.59a114.13,114.13,0,0,0-29.89-2.45l-2.93-28.53a5.7,5.7,0,0,0-2.06-3.85,5.62,5.62,0,0,0-4.15-1.24,144.31,144.31,0,0,0-51.28,15.44,5.73,5.73,0,0,0-2.45,7.67l7.7,15.24a5.61,5.61,0,0,0,7.4,2.58c1.13-.53,2.25-1.09,3.38-1.64a57.74,57.74,0,0,1,8.07-3.51l1.44-.54c1.7-.63,3.34-1.25,5-1.81l1.46,5.52c-1.39.48-2.74,1-4.08,1.49l-1.34.51a52,52,0,0,0-8,3.44c-1,.48-1.93,1-3.4,1.66l-9.56,5.57-.65.36-16.64-23.11a5.6,5.6,0,0,0-7.89-1.25,147.55,147.55,0,0,0-36.8,39.11,5.72,5.72,0,0,0,1.65,7.89l14.19,9.34a5.63,5.63,0,0,0,7.9-1.82,74.64,74.64,0,0,1,4.49-6.38c1-1.29,2-2.59,2.65-3.59,1.45-1.77,3-3.47,4.51-5.16l3.9,4a113.35,113.35,0,0,0-17,25L52,265.73a5.63,5.63,0,0,0-7.46,2.89,150.47,150.47,0,0,0-12.38,52.56,5.68,5.68,0,0,0,5.35,6l16.91.88a5.56,5.56,0,0,0,4.07-1.44,5.71,5.71,0,0,0,1.85-3.94l.3-6,1-6.39c.15-.82.26-1.65.38-2.48.17-1.23.34-2.47.59-3.53l.19-.79,5.54,1.5a116.84,116.84,0,0,0-2.43,30.2l-28.24,3a5.69,5.69,0,0,0-5,6.27,149.65,149.65,0,0,0,15.28,51.82,5.6,5.6,0,0,0,7.59,2.48l15.07-7.78a5.74,5.74,0,0,0,2.56-7.48c-.52-1.13-1.07-2.25-1.61-3.36a60.45,60.45,0,0,1-3.49-8.2l-.55-1.51c-.63-1.7-1.23-3.35-1.77-5l5.53-1.5a113.68,113.68,0,0,0,12.88,27.3L61.13,408a5.73,5.73,0,0,0-1.24,8,147.36,147.36,0,0,0,38.7,37.19,5.59,5.59,0,0,0,4.25.81,5.65,5.65,0,0,0,3.56-2.47l9.23-14.34a5.74,5.74,0,0,0-1.79-8,72.36,72.36,0,0,1-6.33-4.55c-1.27-1-2.54-2-3.53-2.67-1.76-1.46-3.44-3-5.11-4.55l4-4c1.51,1.39,3.06,2.8,4.94,4.36,1.1.78,2.17,1.61,3.24,2.44a67.64,67.64,0,0,0,6.29,4.48l10.08,5.84.12.06L116,456.78a5.74,5.74,0,0,0,2.86,7.53,146.3,146.3,0,0,0,52,12.52h.29a5.67,5.67,0,0,0,5.63-5.41l.88-17.08a5.68,5.68,0,0,0-5.33-6l-5.94-.3-6.33-1c-.81-.14-1.63-.26-2.44-.37-1.22-.18-2.44-.36-3.51-.6l-.78-.2,1.48-5.59a114.13,114.13,0,0,0,29.89,2.45l2.93,28.53a5.7,5.7,0,0,0,2.06,3.84,5.57,5.57,0,0,0,4.15,1.24,144.29,144.29,0,0,0,51.28-15.43,5.74,5.74,0,0,0,2.46-7.67L239.85,438a5.61,5.61,0,0,0-7.39-2.58c-1.14.53-2.26,1.08-3.39,1.64a58.08,58.08,0,0,1-8.06,3.5l-1.44.55c-1.7.63-3.35,1.25-5,1.8l-1.49-5.59a110.77,110.77,0,0,0,27-13L256.8,447.5a5.61,5.61,0,0,0,7.89,1.26,147.9,147.9,0,0,0,36.81-39.11,5.78,5.78,0,0,0,.79-4.29,5.7,5.7,0,0,0-2.45-3.61l-14.19-9.33a5.61,5.61,0,0,0-7.9,1.82,76.25,76.25,0,0,1-4.49,6.38c-1,1.29-2,2.58-2.65,3.59-1.45,1.77-3,3.47-4.51,5.16l-3.9-3.95a113.58,113.58,0,0,0,16.95-25L305,392.09a5.62,5.62,0,0,0,7.45-2.89,150.31,150.31,0,0,0,12.39-52.56,5.69,5.69,0,0,0-5.35-6l-16.91-.89a5.71,5.71,0,0,0-5.92,5.39l-.3,6-1,6.39c-.15.82-.26,1.65-.38,2.47-.18,1.24-.35,2.47-.59,3.54l-.2.79-5.44-1.47,0-.14c.3-1.33.5-2.68.68-4,.09-.63.17-1.26.3-2l.86-5.61a5.42,5.42,0,0,0,.06-.58l.3-6V322.94l0-.27,28.35-3a5.68,5.68,0,0,0,3.8-2.08,5.8,5.8,0,0,0,1.23-4.19,150,150,0,0,0-15.28-51.82,5.62,5.62,0,0,0-7.59-2.48l-15.08,7.78a5.73,5.73,0,0,0-2.55,7.48c.52,1.13,1.06,2.24,1.6,3.36A58,58,0,0,1,289,286l.55,1.51c.63,1.7,1.24,3.35,1.78,5l-5.53,1.49a113.47,113.47,0,0,0-12.89-27.29l22.93-16.86a5.73,5.73,0,0,0,1.24-8A147.16,147.16,0,0,0,258.4,204.63Zm3.44,56.06a5.74,5.74,0,0,0-1.25,8,102.11,102.11,0,0,1,15.92,33.69,5.65,5.65,0,0,0,6.9,4L299.77,302a5.71,5.71,0,0,0,4.07-6.7,83.35,83.35,0,0,0-3.69-11.78l-.45-1.23a59.68,59.68,0,0,0-3.16-7.73l5-2.6a138.89,138.89,0,0,1,10.94,37l-27.95,2.94a5.67,5.67,0,0,0-5.05,6l.28,5.53v10.91l-.28,5.37-.8,5.24c-.13.75-.23,1.49-.34,2.24-.14,1-.27,2-.46,2.88l-1.41,5.48a5.71,5.71,0,0,0,4,6.95l16.36,4.41a5.61,5.61,0,0,0,4.31-.58,5.68,5.68,0,0,0,2.61-3.5l1.66-6.51c.35-1.52.57-3.06.79-4.61.11-.73.2-1.46.34-2.28l1-7.05.05-.87,5.54.28a139.15,139.15,0,0,1-8.84,37.55L278.7,367.73a5.63,5.63,0,0,0-4.32-.11,5.69,5.69,0,0,0-3.14,3,102.14,102.14,0,0,1-20.92,30.87,5.76,5.76,0,0,0,0,8.06l12,12.1a5.5,5.5,0,0,0,4.15,1.67,5.64,5.64,0,0,0,4.05-1.91c1-1.15,2-2.28,3.06-3.41,2-2.14,3.91-4.29,6-6.86.86-1.22,1.77-2.41,2.67-3.61.63-.83,1.27-1.66,1.89-2.52l4.74,3.12a136.26,136.26,0,0,1-26.3,27.95l-16.55-23a5.6,5.6,0,0,0-7.88-1.26A100.42,100.42,0,0,1,204.77,428a5.63,5.63,0,0,0-3.43,2.65,5.74,5.74,0,0,0-.56,4.33l4.37,16.53a5.64,5.64,0,0,0,6.64,4.1,82.89,82.89,0,0,0,11.7-3.73l1.17-.44a58.84,58.84,0,0,0,7.65-3.2l2.57,5.08a135.29,135.29,0,0,1-36.64,11l-2.9-28.23a5.62,5.62,0,0,0-2-3.84,5.52,5.52,0,0,0-4.13-1.25,102.62,102.62,0,0,1-37-3,5.58,5.58,0,0,0-4.28.57,5.7,5.7,0,0,0-2.63,3.46l-4.38,16.54a5.75,5.75,0,0,0,.58,4.35,5.66,5.66,0,0,0,3.47,2.64l6.43,1.67c1.51.35,3,.58,4.58.81.72.1,1.43.2,2.24.34l7,1.05.87.05-.29,5.6a135.68,135.68,0,0,1-37.16-8.94l11.44-25.92a5.73,5.73,0,0,0-2.7-7.46l-4.69-2.27-9.63-5.59a56,56,0,0,1-5.13-3.7c-1.2-.93-2.4-1.85-3.28-2.45-1.63-1.36-3.18-2.81-4.74-4.25-1.16-1.08-2.33-2.16-3.52-3.21a5.6,5.6,0,0,0-7.7.26l-12,12.1a5.73,5.73,0,0,0,.23,8.29c1.12,1,2.22,2,3.32,3.05,2.14,2,4.29,4,6.84,6.09,1.21.86,2.38,1.77,3.56,2.68.82.64,1.66,1.29,2.52,1.93l-3.09,4.79a135.9,135.9,0,0,1-27.66-26.59l22.72-16.71a5.73,5.73,0,0,0,1.25-8,102.36,102.36,0,0,1-15.92-33.7,5.64,5.64,0,0,0-6.9-4l-16.36,4.42a5.71,5.71,0,0,0-4.07,6.7,84.8,84.8,0,0,0,3.69,11.79l.45,1.22a59.81,59.81,0,0,0,3.16,7.74l-5,2.59a139,139,0,0,1-10.94-37l27.95-2.93a5.68,5.68,0,0,0,5-6.22,105.63,105.63,0,0,1,3-37.35,5.74,5.74,0,0,0-.56-4.33,5.67,5.67,0,0,0-3.44-2.66L60.13,291a5.61,5.61,0,0,0-4.31.59A5.73,5.73,0,0,0,53.2,295l-1.65,6.51c-.35,1.52-.57,3.06-.79,4.61-.11.73-.21,1.46-.34,2.28l-1,7-.05.88-5.54-.29a139.33,139.33,0,0,1,8.84-37.55l25.66,11.56a5.54,5.54,0,0,0,4.32.11,5.6,5.6,0,0,0,3.13-3,102.29,102.29,0,0,1,20.93-30.87,5.75,5.75,0,0,0,0-8.05l-12-12.1a5.59,5.59,0,0,0-8.2.24c-1,1.15-2,2.27-3.06,3.4-2,2.15-3.91,4.3-6,6.86-.87,1.22-1.77,2.42-2.67,3.61-.63.83-1.27,1.67-1.89,2.53l-4.75-3.12a136.07,136.07,0,0,1,26.31-28l16.55,23a5.6,5.6,0,0,0,7.89,1.25l1.31-1A18.68,18.68,0,0,1,123,243l9.23-5.41c1.09-.5,2.16-1,3.24-1.57A43.92,43.92,0,0,1,142,233.2l1.68-.63a56.29,56.29,0,0,1,8.17-2.62,5.64,5.64,0,0,0,3.67-2.59,5.79,5.79,0,0,0,.65-4.47l-4.38-16.53a5.63,5.63,0,0,0-6.63-4.1A83,83,0,0,0,133.49,206l-1.16.44a56.94,56.94,0,0,0-7.65,3.2l-2.57-5.08a135.18,135.18,0,0,1,36.64-11l2.89,28.23a5.64,5.64,0,0,0,2,3.84,5.55,5.55,0,0,0,4.13,1.25,102.88,102.88,0,0,1,37,3,5.58,5.58,0,0,0,4.28-.57,5.73,5.73,0,0,0,2.63-3.47l4.37-16.53a5.8,5.8,0,0,0-.57-4.35,5.66,5.66,0,0,0-3.47-2.64l-6.42-1.67c-1.52-.35-3.05-.59-4.59-.81-.72-.1-1.43-.21-2.25-.35l-7-1-.87-.05.29-5.6a135.3,135.3,0,0,1,37.16,8.93l-11.44,25.93a5.75,5.75,0,0,0-.11,4.37,5.66,5.66,0,0,0,3,3.17,101.33,101.33,0,0,1,30.55,21.14,5.6,5.6,0,0,0,8,0l12-12.1a5.73,5.73,0,0,0-.23-8.29c-1.12-1-2.22-2-3.32-3-2.15-2-4.29-4-6.84-6.1-1.21-.86-2.38-1.77-3.56-2.68-.82-.64-1.66-1.29-2.52-1.93l3.09-4.79A135.9,135.9,0,0,1,284.56,244Z"/><path class="cls-6" d="M178.49,237.66a90,90,0,0,0-78.36,45.77,91.9,91.9,0,0,0,.49,91.45c.11.2.22.4.35.59a91.61,91.61,0,0,0,23,26c.15.1.23.25.39.34s.08,0,.12,0a88.86,88.86,0,0,0,108,0,.67.67,0,0,0,.15-.06c.16-.09.24-.24.38-.34a91.49,91.49,0,0,0,23-26c.13-.19.24-.39.35-.59a91.87,91.87,0,0,0,.48-91.45A90,90,0,0,0,178.49,237.66Zm-10.17,12.15L105.67,359.9A80.51,80.51,0,0,1,110,289.16,78.89,78.89,0,0,1,168.32,249.81ZM134.63,395.27l43.86-77.06,43.87,77.06a78.09,78.09,0,0,1-87.73,0Zm96.69-7.15-45.48-79.89a8.44,8.44,0,0,0-14.69,0l-45.48,79.89a80,80,0,0,1-13.73-16.35l66.56-117,12.91,22.62c.07.17.16.34.25.51l53.39,93.85a80.32,80.32,0,0,1-13.73,16.35Zm20-28.23-49.6-87.2a5.12,5.12,0,0,0-.27-.52l-12.75-22.36A78.88,78.88,0,0,1,247,289.16a80.49,80.49,0,0,1,4.31,70.73Z"/><path class="cls-7" d="M597.35,33.17c-131.17,0-239,88.6-251.43,202l-74.67,29.74s-4.88,1.81-4.39,8.81a9.53,9.53,0,0,0,5.58,8.16L350.6,305.3C375.49,405.77,476.51,481,597.35,481,736.89,481,850,380.73,850,257.07S736.89,33.17,597.35,33.17Z"/><path class="cls-8" d="M597.31,0c-131.17,0-239,88.6-251.43,202L271.21,231.7s-4.88,1.81-4.39,8.81a9.53,9.53,0,0,0,5.58,8.16l78.16,23.46C375.45,372.6,476.47,447.81,597.31,447.81,736.85,447.81,850,347.56,850,223.9S736.85,0,597.31,0Z"/><path class="cls-9" d="M416,197.51l-1.51.12,4.47,12.46.32,1.09h.06l.33-1.09,4.45-12.46-1.51-.12v-1h4.2v1l-1.25.1-5.63,15.25h-1.25L413,197.61l-1.24-.1v-1H416Z"/><path class="cls-9" d="M436.24,212.86c-.09-.41-.15-.77-.19-1.07a6.85,6.85,0,0,1-.05-.91,5.25,5.25,0,0,1-1.78,1.58,5,5,0,0,1-2.5.63,3.8,3.8,0,0,1-2.74-.92,3.28,3.28,0,0,1-1-2.49,3.07,3.07,0,0,1,1.43-2.67,6.75,6.75,0,0,1,3.89-1H436v-1.61a2.59,2.59,0,0,0-.83-2,3.33,3.33,0,0,0-2.32-.74,5.86,5.86,0,0,0-1.83.27,4.14,4.14,0,0,0-1.38.75l-.11,1.63h-1.1v-2.34a7,7,0,0,1,2-1.05,7.5,7.5,0,0,1,2.48-.41,4.82,4.82,0,0,1,3.2,1,3.61,3.61,0,0,1,1.21,2.93v6c0,.25,0,.48,0,.71a4.9,4.9,0,0,0,.07.67l1.2.08v1Zm-4.38-1a4.81,4.81,0,0,0,2.55-.67,4,4,0,0,0,1.59-1.74v-2.44h-2.68a4.93,4.93,0,0,0-2.9.76,2.25,2.25,0,0,0-1.08,1.91,2,2,0,0,0,.67,1.58A2.69,2.69,0,0,0,431.86,211.9Z"/><path class="cls-9" d="M440.21,201.71v-1h3l.12,2a4.19,4.19,0,0,1,1.55-1.65,4.35,4.35,0,0,1,2.3-.59,3.82,3.82,0,0,1,2.3.68,3.77,3.77,0,0,1,1.32,2.07,4.7,4.7,0,0,1,1.55-2,4,4,0,0,1,2.45-.74,3.61,3.61,0,0,1,3,1.29,6.29,6.29,0,0,1,1.05,4v5.94l1.81.16v1h-5v-1l1.81-.16v-6a4.88,4.88,0,0,0-.79-3.17,2.69,2.69,0,0,0-2.18-.93,2.93,2.93,0,0,0-2.39,1,4.82,4.82,0,0,0-1,2.55v.17a1.15,1.15,0,0,1,0,.2v6.15l1.81.15v1h-5v-1l1.81-.15v-6a4.91,4.91,0,0,0-.79-3.15,2.71,2.71,0,0,0-2.18-.95,3.35,3.35,0,0,0-2.26.72,4,4,0,0,0-1.16,1.95v7.4l1.82.15v1h-5v-1l1.81-.15v-9.87Z"/><path class="cls-9" d="M462.16,206.6a6.57,6.57,0,0,1,1.45-4.4,5.2,5.2,0,0,1,7.73,0,6.57,6.57,0,0,1,1.45,4.4V207a6.57,6.57,0,0,1-1.45,4.41,4.79,4.79,0,0,1-3.85,1.71,4.86,4.86,0,0,1-3.88-1.71,6.57,6.57,0,0,1-1.45-4.41Zm1.33.37a5.8,5.8,0,0,0,1.06,3.55,3.69,3.69,0,0,0,5.85,0,5.8,5.8,0,0,0,1.06-3.55v-.37a5.77,5.77,0,0,0-1.06-3.52,3.68,3.68,0,0,0-5.85,0,5.77,5.77,0,0,0-1.06,3.52Z"/><path class="cls-9" d="M483.69,204.46H482.6l-.16-1.72a3.28,3.28,0,0,0-1.26-.82,4.76,4.76,0,0,0-1.75-.29,3.24,3.24,0,0,0-2.18.63,1.91,1.91,0,0,0-.73,1.49,1.78,1.78,0,0,0,.62,1.39,6.11,6.11,0,0,0,2.51,1,8.07,8.07,0,0,1,3.21,1.32,2.73,2.73,0,0,1,1.07,2.27,3,3,0,0,1-1.22,2.46,5.14,5.14,0,0,1-3.21.93,7.47,7.47,0,0,1-2.43-.37,6,6,0,0,1-1.9-1.06v-2.45h1.08l.19,1.73a3.13,3.13,0,0,0,1.35.78,6,6,0,0,0,1.71.24,3.6,3.6,0,0,0,2.27-.64,1.9,1.9,0,0,0,.84-1.55,1.94,1.94,0,0,0-.7-1.49,5.57,5.57,0,0,0-2.5-1.05,8.41,8.41,0,0,1-3.19-1.25,2.58,2.58,0,0,1-1-2.18,3,3,0,0,1,1.17-2.36,4.69,4.69,0,0,1,3.08-1,6.94,6.94,0,0,1,2.42.41,4.87,4.87,0,0,1,1.78,1.11Z"/><path class="cls-9" d="M500.19,212.86c-.09-.41-.15-.77-.19-1.07a6.85,6.85,0,0,1-.05-.91,5.25,5.25,0,0,1-1.78,1.58,5,5,0,0,1-2.5.63,3.8,3.8,0,0,1-2.74-.92,3.28,3.28,0,0,1-1-2.49A3.07,3.07,0,0,1,493.4,207a6.73,6.73,0,0,1,3.89-1H500v-1.61a2.59,2.59,0,0,0-.83-2,3.33,3.33,0,0,0-2.32-.74,5.86,5.86,0,0,0-1.83.27,4.14,4.14,0,0,0-1.38.75l-.11,1.63h-1.1v-2.34a7,7,0,0,1,2-1.05,7.5,7.5,0,0,1,2.48-.41,4.82,4.82,0,0,1,3.2,1,3.64,3.64,0,0,1,1.21,2.93v6c0,.25,0,.48,0,.71s0,.45.08.67l1.2.08v1Zm-4.38-1a4.81,4.81,0,0,0,2.55-.67,4,4,0,0,0,1.59-1.74v-2.44h-2.68a4.93,4.93,0,0,0-2.9.76,2.25,2.25,0,0,0-1.08,1.91,2,2,0,0,0,.67,1.58A2.69,2.69,0,0,0,495.81,211.9Z"/><path class="cls-9" d="M504.09,201.71v-1H507l.17,1.88a4.19,4.19,0,0,1,3.79-2.11,3.89,3.89,0,0,1,3.39,1.75,8,8,0,0,1,1.22,4.65v.24a7.08,7.08,0,0,1-1.22,4.35,4,4,0,0,1-3.37,1.62,4.71,4.71,0,0,1-2.21-.49,4.06,4.06,0,0,1-1.56-1.38v5.16l1.82.15v1h-5v-1l1.81-.15V201.85Zm10.16,5.17a7.08,7.08,0,0,0-.91-3.77,3,3,0,0,0-2.67-1.46,3.41,3.41,0,0,0-2.18.65,4.07,4.07,0,0,0-1.27,1.67v5.84a3.53,3.53,0,0,0,3.47,2.15,3,3,0,0,0,2.65-1.33,6.05,6.05,0,0,0,.91-3.51Z"/><path class="cls-9" d="M520.63,200.71l.17,2v.14a4.29,4.29,0,0,1,1.39-1.75,3.47,3.47,0,0,1,2.1-.64,2.63,2.63,0,0,1,.49,0l.39.09-.17,1.25-1-.06a3,3,0,0,0-2.06.71,3.83,3.83,0,0,0-1.15,2v7.25l1.81.15v1h-5v-1l1.81-.15v-9.87l-1.81-.14v-1h3Z"/><path class="cls-9" d="M532,213.09a4.8,4.8,0,0,1-3.76-1.68,6.19,6.19,0,0,1-1.49-4.27v-.62a6.38,6.38,0,0,1,1.48-4.32,4.58,4.58,0,0,1,3.59-1.72,4.43,4.43,0,0,1,3.48,1.42,5.45,5.45,0,0,1,1.26,3.77v1.15h-8.49v.32a5.36,5.36,0,0,0,1.09,3.43A3.42,3.42,0,0,0,532,212a5.79,5.79,0,0,0,2.11-.35,4.16,4.16,0,0,0,1.5-1l.57.92a4.88,4.88,0,0,1-1.72,1.14A6.53,6.53,0,0,1,532,213.09Zm-.18-11.46a3.16,3.16,0,0,0-2.47,1.14,4.84,4.84,0,0,0-1.18,2.86l0,.05h7.05v-.34a4,4,0,0,0-.92-2.65A3.14,3.14,0,0,0,531.81,201.63Z"/><path class="cls-9" d="M538.69,211.87l1.81-.15v-9.87l-1.81-.14v-1h3l.12,2.12a4.33,4.33,0,0,1,1.56-1.74,4.4,4.4,0,0,1,2.33-.61,3.68,3.68,0,0,1,3,1.21,5.76,5.76,0,0,1,1,3.77v6.26l1.81.15v1h-5v-1l1.81-.15v-6.25a4.43,4.43,0,0,0-.78-3,2.79,2.79,0,0,0-2.19-.86,3.43,3.43,0,0,0-2.29.75,4.15,4.15,0,0,0-1.27,2v7.34l1.81.15v1h-4.95Z"/><path class="cls-9" d="M561.84,211.11a4.28,4.28,0,0,1-1.55,1.47,4.61,4.61,0,0,1-2.22.51,4,4,0,0,1-3.37-1.63,7.07,7.07,0,0,1-1.22-4.34v-.24a8,8,0,0,1,1.22-4.65,3.89,3.89,0,0,1,3.39-1.75,4.08,4.08,0,0,1,3.71,2.06v-6.06l-1.81-.14v-1h3.15v16.38l1.81.15v1h-3Zm-7-4a6.21,6.21,0,0,0,.87,3.5,3,3,0,0,0,2.63,1.31,3.74,3.74,0,0,0,2.14-.59,3.82,3.82,0,0,0,1.33-1.6V204a4.16,4.16,0,0,0-1.28-1.69,3.46,3.46,0,0,0-2.17-.65,2.89,2.89,0,0,0-2.64,1.45,7.2,7.2,0,0,0-.88,3.78Z"/><path class="cls-9" d="M572.3,213.09a4.81,4.81,0,0,1-3.76-1.68,6.19,6.19,0,0,1-1.49-4.27v-.62a6.43,6.43,0,0,1,1.48-4.32,4.58,4.58,0,0,1,3.59-1.72,4.43,4.43,0,0,1,3.48,1.42,5.45,5.45,0,0,1,1.26,3.77v1.15h-8.49v.32a5.36,5.36,0,0,0,1.09,3.43A3.42,3.42,0,0,0,572.3,212a5.79,5.79,0,0,0,2.11-.35,4.16,4.16,0,0,0,1.5-1l.57.92a4.88,4.88,0,0,1-1.72,1.14A6.53,6.53,0,0,1,572.3,213.09Zm-.18-11.46a3.16,3.16,0,0,0-2.47,1.14,4.84,4.84,0,0,0-1.18,2.86l0,.05h7v-.34a4,4,0,0,0-.92-2.65A3.14,3.14,0,0,0,572.12,201.63Z"/><path class="cls-9" d="M582.12,200.71l.17,2v.14a4.29,4.29,0,0,1,1.39-1.75,3.47,3.47,0,0,1,2.1-.64,2.63,2.63,0,0,1,.49,0l.4.09-.18,1.25-1-.06a3,3,0,0,0-2.06.71,3.9,3.9,0,0,0-1.15,2v7.25l1.81.15v1h-5v-1l1.81-.15v-9.87l-1.81-.14v-1h3Z"/><path class="cls-9" d="M602.76,210.86a4.18,4.18,0,0,1-1.55,1.65,4.47,4.47,0,0,1-2.32.58,3.63,3.63,0,0,1-3-1.3,6.27,6.27,0,0,1-1.07-4v-5.9l-1.49-.14v-1h2.81v7.06a5.27,5.27,0,0,0,.75,3.19,2.55,2.55,0,0,0,2.13,1,3.89,3.89,0,0,0,2.4-.68,3.53,3.53,0,0,0,1.26-1.86v-7.54l-1.71-.14v-1h3v11l1.61.15v1h-2.78Z"/><path class="cls-9" d="M607.33,201.71v-1h3l.12,2a4.17,4.17,0,0,1,1.54-1.65,4.4,4.4,0,0,1,2.3-.59,3.83,3.83,0,0,1,2.31.68,3.77,3.77,0,0,1,1.32,2.07,4.7,4.7,0,0,1,1.55-2,4,4,0,0,1,2.45-.74,3.61,3.61,0,0,1,3,1.29,6.29,6.29,0,0,1,1,4v5.94l1.81.16v1h-5v-1l1.81-.16v-6a4.88,4.88,0,0,0-.79-3.17,2.69,2.69,0,0,0-2.18-.93,3,3,0,0,0-2.4,1,4.9,4.9,0,0,0-1,2.55v.17s0,.12,0,.2v6.15l1.81.15v1h-5v-1l1.81-.15v-6a4.91,4.91,0,0,0-.79-3.15,2.71,2.71,0,0,0-2.19-.95,3.34,3.34,0,0,0-2.25.72,3.92,3.92,0,0,0-1.16,1.95v7.4l1.81.15v1h-4.95v-1l1.81-.15v-9.87Z"/><path class="cls-9" d="M634.57,201.71v-1h2.92l.17,1.88a4.19,4.19,0,0,1,3.79-2.11,3.91,3.91,0,0,1,3.39,1.75,8,8,0,0,1,1.22,4.65v.24a7.08,7.08,0,0,1-1.22,4.35,4,4,0,0,1-3.37,1.62,4.78,4.78,0,0,1-2.22-.49,4,4,0,0,1-1.55-1.38v5.16l1.81.15v1h-4.94v-1l1.81-.15V201.85Zm10.16,5.17a7,7,0,0,0-.92-3.77,2.94,2.94,0,0,0-2.66-1.46,3.44,3.44,0,0,0-2.19.65A4,4,0,0,0,637.7,204v5.84a3.53,3.53,0,0,0,3.47,2.15,3,3,0,0,0,2.65-1.33,6.13,6.13,0,0,0,.91-3.51Z"/><path class="cls-9" d="M648.23,206.6a6.57,6.57,0,0,1,1.45-4.4,5.2,5.2,0,0,1,7.73,0,6.57,6.57,0,0,1,1.45,4.4V207a6.57,6.57,0,0,1-1.45,4.41,4.79,4.79,0,0,1-3.85,1.71,4.85,4.85,0,0,1-3.88-1.71,6.57,6.57,0,0,1-1.45-4.41Zm1.33.37a5.8,5.8,0,0,0,1.06,3.55,3.69,3.69,0,0,0,5.85,0,5.8,5.8,0,0,0,1.06-3.55v-.37a5.77,5.77,0,0,0-1.06-3.52,3.68,3.68,0,0,0-5.85,0,5.77,5.77,0,0,0-1.06,3.52Z"/><path class="cls-9" d="M669.87,210.86a4.18,4.18,0,0,1-1.55,1.65,4.47,4.47,0,0,1-2.32.58,3.62,3.62,0,0,1-3-1.3,6.27,6.27,0,0,1-1.08-4v-5.9l-1.49-.14v-1h2.82v7.06A5.27,5.27,0,0,0,664,211a2.55,2.55,0,0,0,2.12,1,3.92,3.92,0,0,0,2.41-.68,3.53,3.53,0,0,0,1.26-1.86v-7.54l-1.71-.14v-1h3v11l1.61.15v1H670Z"/><path class="cls-9" d="M679.86,212a3.81,3.81,0,0,0,2.33-.76,2.5,2.5,0,0,0,1-2.13h1.18l0,.07a3.34,3.34,0,0,1-1.33,2.82,4.93,4.93,0,0,1-3.21,1.13,4.53,4.53,0,0,1-3.79-1.7,6.81,6.81,0,0,1-1.35-4.37v-.47a6.82,6.82,0,0,1,1.35-4.36,4.52,4.52,0,0,1,3.78-1.71,6.08,6.08,0,0,1,2.54.53,5,5,0,0,1,1.88,1.44l.06,2.65h-1.14l-.21-2.16a3.86,3.86,0,0,0-1.33-1,4.48,4.48,0,0,0-1.8-.35A3.19,3.19,0,0,0,677,203a6.29,6.29,0,0,0-.92,3.52V207a6.27,6.27,0,0,0,.92,3.55A3.19,3.19,0,0,0,679.86,212Z"/><path class="cls-9" d="M686.88,206.6a6.58,6.58,0,0,1,1.46-4.4,5.19,5.19,0,0,1,7.72,0,6.58,6.58,0,0,1,1.46,4.4V207a6.62,6.62,0,0,1-1.45,4.41,5.22,5.22,0,0,1-7.73,0,6.57,6.57,0,0,1-1.46-4.41Zm1.33.37a5.86,5.86,0,0,0,1.06,3.55,3.7,3.7,0,0,0,5.86,0,5.86,5.86,0,0,0,1-3.55v-.37a5.77,5.77,0,0,0-1.06-3.52,3.68,3.68,0,0,0-5.85,0,5.83,5.83,0,0,0-1.06,3.52Z"/><path class="cls-9" d="M704.93,201.71v-1h3l.12,2a4.19,4.19,0,0,1,1.55-1.65,4.35,4.35,0,0,1,2.3-.59,3.46,3.46,0,0,1,3.62,2.75,4.7,4.7,0,0,1,1.55-2,4,4,0,0,1,2.45-.74,3.61,3.61,0,0,1,3,1.29,6.29,6.29,0,0,1,1,4v5.94l1.82.16v1h-5v-1l1.81-.16v-6a5,5,0,0,0-.78-3.17,2.71,2.71,0,0,0-2.19-.93,2.93,2.93,0,0,0-2.39,1,4.82,4.82,0,0,0-1,2.55v.17a1.15,1.15,0,0,1,0,.2v6.15l1.81.15v1h-5v-1l1.82-.15v-6a4.91,4.91,0,0,0-.8-3.15,2.71,2.71,0,0,0-2.18-.95,3.3,3.3,0,0,0-2.25.72,3.85,3.85,0,0,0-1.16,1.95v7.4l1.81.15v1h-5v-1l1.81-.15v-9.87Z"/><path class="cls-9" d="M735.29,212.86c-.09-.41-.15-.77-.19-1.07a9.08,9.08,0,0,1-.05-.91,5.25,5.25,0,0,1-1.78,1.58,5,5,0,0,1-2.5.63,3.76,3.76,0,0,1-2.73-.92,3.25,3.25,0,0,1-1-2.49A3.1,3.1,0,0,1,728.5,207a6.75,6.75,0,0,1,3.89-1h2.66v-1.61a2.59,2.59,0,0,0-.83-2,3.32,3.32,0,0,0-2.32-.74,5.84,5.84,0,0,0-1.82.27,4.09,4.09,0,0,0-1.39.75l-.11,1.63h-1.1v-2.34a7,7,0,0,1,2-1.05,7.44,7.44,0,0,1,2.47-.41,4.8,4.8,0,0,1,3.2,1,3.61,3.61,0,0,1,1.21,2.93v6c0,.25,0,.48,0,.71a4.9,4.9,0,0,0,.07.67l1.2.08v1Zm-4.38-1a4.76,4.76,0,0,0,2.55-.67,4,4,0,0,0,1.59-1.74v-2.44h-2.68a5,5,0,0,0-2.9.76,2.25,2.25,0,0,0-1.08,1.91,2,2,0,0,0,.67,1.58A2.69,2.69,0,0,0,730.91,211.9Z"/><path class="cls-9" d="M739.46,211.87l1.81-.15v-9.87l-1.81-.14v-1h3.13v11l1.82.15v1h-4.95Zm3.13-14.65h-1.32v-1.88h1.32Z"/><path class="cls-9" d="M755.37,204.46h-1.09l-.16-1.72a3.28,3.28,0,0,0-1.26-.82,4.76,4.76,0,0,0-1.75-.29,3.29,3.29,0,0,0-2.19.63,1.93,1.93,0,0,0-.72,1.49,1.78,1.78,0,0,0,.62,1.39,6.11,6.11,0,0,0,2.51,1,8.07,8.07,0,0,1,3.21,1.32,2.73,2.73,0,0,1,1.07,2.27,3,3,0,0,1-1.22,2.46,5.15,5.15,0,0,1-3.22.93,7.45,7.45,0,0,1-2.42-.37,5.85,5.85,0,0,1-1.9-1.06v-2.45h1.08l.19,1.73a3,3,0,0,0,1.35.78,6,6,0,0,0,1.7.24,3.61,3.61,0,0,0,2.28-.64,1.9,1.9,0,0,0,.84-1.55,1.94,1.94,0,0,0-.7-1.49,5.57,5.57,0,0,0-2.5-1.05A8.35,8.35,0,0,1,747.9,206a2.58,2.58,0,0,1-1-2.18,3,3,0,0,1,1.17-2.36,4.69,4.69,0,0,1,3.08-1,6.94,6.94,0,0,1,2.42.41,5,5,0,0,1,1.78,1.11Z"/><path class="cls-9" d="M421,232.06h-1.09l-.15-1.72a3.44,3.44,0,0,0-1.26-.82,4.76,4.76,0,0,0-1.75-.29,3.29,3.29,0,0,0-2.19.63,1.94,1.94,0,0,0-.73,1.49,1.76,1.76,0,0,0,.63,1.39,6.11,6.11,0,0,0,2.51,1,8.07,8.07,0,0,1,3.21,1.32,2.73,2.73,0,0,1,1.07,2.27,3,3,0,0,1-1.22,2.45,5.09,5.09,0,0,1-3.22.94,7.47,7.47,0,0,1-2.43-.37,5.8,5.8,0,0,1-1.89-1.06v-2.45h1.08l.19,1.73a3,3,0,0,0,1.35.78,6,6,0,0,0,1.7.24,3.61,3.61,0,0,0,2.28-.64,1.9,1.9,0,0,0,.83-1.55,2,2,0,0,0-.69-1.49,5.56,5.56,0,0,0-2.51-1,8.29,8.29,0,0,1-3.18-1.25,2.59,2.59,0,0,1-1-2.19,2.94,2.94,0,0,1,1.17-2.35,4.69,4.69,0,0,1,3.08-1,6.89,6.89,0,0,1,2.41.41A4.79,4.79,0,0,1,421,229.6Z"/><path class="cls-9" d="M423.67,234.2a6.58,6.58,0,0,1,1.46-4.4,5.19,5.19,0,0,1,7.72,0,6.58,6.58,0,0,1,1.46,4.4v.37a6.62,6.62,0,0,1-1.45,4.41,5.22,5.22,0,0,1-7.73,0,6.57,6.57,0,0,1-1.46-4.41Zm1.33.37a5.86,5.86,0,0,0,1.06,3.55,3.7,3.7,0,0,0,5.86,0,5.86,5.86,0,0,0,1.05-3.55v-.37a5.77,5.77,0,0,0-1.06-3.52,3.68,3.68,0,0,0-5.85,0A5.83,5.83,0,0,0,425,234.2Z"/><path class="cls-9" d="M446.81,234.72a7.08,7.08,0,0,1-1.22,4.35,4,4,0,0,1-3.37,1.62,4.68,4.68,0,0,1-2.28-.53,4.11,4.11,0,0,1-1.54-1.53l-.15,1.83h-1.13V224.08l-1.81-.14v-1h3.13v7.27a4.12,4.12,0,0,1,3.76-2.13,3.91,3.91,0,0,1,3.39,1.75,8,8,0,0,1,1.22,4.65Zm-1.35-.24a7.1,7.1,0,0,0-.89-3.78,2.87,2.87,0,0,0-2.62-1.45,3.42,3.42,0,0,0-2.25.7,4,4,0,0,0-1.26,1.78v5.49a3.78,3.78,0,0,0,1.33,1.68,3.69,3.69,0,0,0,2.2.63,3,3,0,0,0,2.62-1.31,6.21,6.21,0,0,0,.87-3.5Z"/><path class="cls-9" d="M451.94,228.31l.17,2v.14a4.3,4.3,0,0,1,1.39-1.75,3.47,3.47,0,0,1,2.1-.64,2.63,2.63,0,0,1,.49,0,2.69,2.69,0,0,1,.4.09l-.18,1.25-1-.07a3,3,0,0,0-2.06.72,3.9,3.9,0,0,0-1.15,2v7.25l1.81.15v1H449v-1l1.81-.15v-9.87L449,229.3v-1h3Z"/><path class="cls-9" d="M463.3,240.69a4.79,4.79,0,0,1-3.75-1.68,6.16,6.16,0,0,1-1.49-4.27v-.62a6.38,6.38,0,0,1,1.48-4.32,4.56,4.56,0,0,1,3.58-1.72,4.4,4.4,0,0,1,3.48,1.42,5.41,5.41,0,0,1,1.27,3.77v1.15h-8.49v.32a5.41,5.41,0,0,0,1.08,3.43,3.42,3.42,0,0,0,2.84,1.39,5.75,5.75,0,0,0,2.11-.35,4,4,0,0,0,1.5-1l.57.92a4.75,4.75,0,0,1-1.71,1.14A6.55,6.55,0,0,1,463.3,240.69Zm-.18-11.46a3.18,3.18,0,0,0-2.47,1.14,4.9,4.9,0,0,0-1.17,2.85l0,.06h7.05v-.34a3.9,3.9,0,0,0-.93-2.65A3.12,3.12,0,0,0,463.12,229.23Z"/><path class="cls-9" d="M475.78,234.2a6.58,6.58,0,0,1,1.46-4.4,5.19,5.19,0,0,1,7.72,0,6.58,6.58,0,0,1,1.46,4.4v.37A6.62,6.62,0,0,1,485,239a5.22,5.22,0,0,1-7.73,0,6.57,6.57,0,0,1-1.46-4.41Zm1.34.37a5.86,5.86,0,0,0,1.05,3.55,3.46,3.46,0,0,0,2.95,1.44,3.43,3.43,0,0,0,2.91-1.44,5.86,5.86,0,0,0,1.06-3.55v-.37a5.77,5.77,0,0,0-1.07-3.52,3.68,3.68,0,0,0-5.85,0,5.83,5.83,0,0,0-1.05,3.52Z"/><path class="cls-9" d="M497,228.31l.17,2v.14a4.22,4.22,0,0,1,1.39-1.75,3.47,3.47,0,0,1,2.1-.64,2.63,2.63,0,0,1,.49,0,2.28,2.28,0,0,1,.39.09l-.17,1.25-1-.07a3,3,0,0,0-2.06.72,3.83,3.83,0,0,0-1.15,2v7.25l1.81.15v1h-5v-1l1.81-.15v-9.87L494,229.3v-1h3Z"/><path class="cls-9" d="M508.36,240.69A4.81,4.81,0,0,1,504.6,239a6.21,6.21,0,0,1-1.49-4.27v-.62a6.43,6.43,0,0,1,1.48-4.32,4.58,4.58,0,0,1,3.59-1.72,4.43,4.43,0,0,1,3.48,1.42,5.45,5.45,0,0,1,1.26,3.77v1.15h-8.49v.32a5.41,5.41,0,0,0,1.09,3.43,3.42,3.42,0,0,0,2.84,1.39,5.79,5.79,0,0,0,2.11-.35,4.16,4.16,0,0,0,1.5-1l.57.92a4.88,4.88,0,0,1-1.72,1.14A6.53,6.53,0,0,1,508.36,240.69Zm-.18-11.46a3.16,3.16,0,0,0-2.47,1.14,4.9,4.9,0,0,0-1.18,2.85l0,.06h7v-.34a3.89,3.89,0,0,0-.92-2.65A3.14,3.14,0,0,0,508.18,229.23Z"/><path class="cls-9" d="M520.44,239.56a3.81,3.81,0,0,0,2.33-.76,2.5,2.5,0,0,0,1-2.13H525l0,.07a3.34,3.34,0,0,1-1.33,2.82,4.93,4.93,0,0,1-3.21,1.13,4.53,4.53,0,0,1-3.79-1.7,6.81,6.81,0,0,1-1.35-4.37v-.47a6.82,6.82,0,0,1,1.35-4.36,4.52,4.52,0,0,1,3.78-1.71,6.08,6.08,0,0,1,2.54.53,5,5,0,0,1,1.88,1.44l.06,2.65h-1.14l-.21-2.16a3.86,3.86,0,0,0-1.33-1,4.32,4.32,0,0,0-1.8-.35,3.19,3.19,0,0,0-2.87,1.4,6.29,6.29,0,0,0-.92,3.52v.47a6.29,6.29,0,0,0,.92,3.55A3.21,3.21,0,0,0,520.44,239.56Z"/><path class="cls-9" d="M527.46,234.2a6.58,6.58,0,0,1,1.46-4.4,5.19,5.19,0,0,1,7.72,0,6.58,6.58,0,0,1,1.46,4.4v.37a6.62,6.62,0,0,1-1.45,4.41,5.22,5.22,0,0,1-7.73,0,6.57,6.57,0,0,1-1.46-4.41Zm1.34.37a5.86,5.86,0,0,0,1.05,3.55,3.7,3.7,0,0,0,5.86,0,5.86,5.86,0,0,0,1-3.55v-.37a5.77,5.77,0,0,0-1.06-3.52,3.68,3.68,0,0,0-5.85,0,5.83,5.83,0,0,0-1.05,3.52Z"/><path class="cls-9" d="M540,239.47l1.81-.15v-9.87L540,229.3v-1h3l.12,2.12a4.12,4.12,0,0,1,3.89-2.35,3.66,3.66,0,0,1,3,1.21,5.76,5.76,0,0,1,1,3.77v6.26l1.81.15v1h-5v-1l1.81-.15v-6.25a4.47,4.47,0,0,0-.77-3,2.83,2.83,0,0,0-2.2-.86,3.4,3.4,0,0,0-2.28.75,4.1,4.1,0,0,0-1.28,2v7.34l1.82.15v1h-5Z"/><path class="cls-9" d="M554.53,223.94v-1h3.14v7.44a4.42,4.42,0,0,1,1.6-1.69,4.35,4.35,0,0,1,2.33-.61,3.64,3.64,0,0,1,2.92,1.19,5.62,5.62,0,0,1,1,3.7v6.35l1.81.15v1h-5v-1l1.81-.15v-6.38a4.17,4.17,0,0,0-.77-2.83,2.71,2.71,0,0,0-2.13-.86A3.57,3.57,0,0,0,559,230a4.28,4.28,0,0,0-1.35,1.93v7.42l1.81.15v1h-5v-1l1.82-.15V224.08Z"/><path class="cls-9" d="M574.54,240.69a4.81,4.81,0,0,1-3.76-1.68,6.21,6.21,0,0,1-1.49-4.27v-.62a6.39,6.39,0,0,1,1.49-4.32,4.56,4.56,0,0,1,3.58-1.72,4.4,4.4,0,0,1,3.48,1.42,5.46,5.46,0,0,1,1.27,3.77v1.15h-8.49v.32a5.41,5.41,0,0,0,1.08,3.43,3.42,3.42,0,0,0,2.84,1.39,5.79,5.79,0,0,0,2.11-.35,4,4,0,0,0,1.5-1l.57.92a4.75,4.75,0,0,1-1.71,1.14A6.58,6.58,0,0,1,574.54,240.69Zm-.18-11.46a3.16,3.16,0,0,0-2.47,1.14,4.9,4.9,0,0,0-1.17,2.85l0,.06h7v-.34a3.89,3.89,0,0,0-.92-2.65A3.13,3.13,0,0,0,574.36,229.23Z"/><path class="cls-9" d="M586.62,239.56a3.81,3.81,0,0,0,2.33-.76,2.5,2.5,0,0,0,1-2.13h1.18l0,.07a3.35,3.35,0,0,1-1.32,2.82,5,5,0,0,1-3.22,1.13,4.54,4.54,0,0,1-3.79-1.7,6.81,6.81,0,0,1-1.35-4.37v-.47a6.82,6.82,0,0,1,1.35-4.36,4.54,4.54,0,0,1,3.78-1.71,6.08,6.08,0,0,1,2.54.53,5,5,0,0,1,1.88,1.44l.06,2.65H590l-.21-2.16a3.86,3.86,0,0,0-1.33-1,4.32,4.32,0,0,0-1.8-.35,3.17,3.17,0,0,0-2.86,1.4,6.21,6.21,0,0,0-.93,3.52v.47a6.37,6.37,0,0,0,.92,3.55A3.23,3.23,0,0,0,586.62,239.56Z"/><path class="cls-9" d="M593.55,239.47l1.82-.15v-9.87l-1.82-.15v-1h3.14v11l1.81.15v1h-5Zm3.14-14.65h-1.32v-1.88h1.32Z"/><path class="cls-9" d="M600.44,229.3v-1h3l.13,2a4.1,4.1,0,0,1,1.54-1.65,4.37,4.37,0,0,1,2.3-.59,3.78,3.78,0,0,1,2.3.68,3.67,3.67,0,0,1,1.32,2.07,4.72,4.72,0,0,1,1.56-2,4,4,0,0,1,2.45-.74,3.61,3.61,0,0,1,3,1.29,6.29,6.29,0,0,1,1,4v5.94l1.81.16v1h-5v-1l1.81-.16v-6a5,5,0,0,0-.78-3.17,2.69,2.69,0,0,0-2.18-.93,3,3,0,0,0-2.4,1,4.87,4.87,0,0,0-1,2.55,1,1,0,0,0,0,.17v6.35l1.82.15v1h-5v-1l1.81-.15v-6a5,5,0,0,0-.79-3.15,2.71,2.71,0,0,0-2.19-.95,3.3,3.3,0,0,0-2.25.72,3.92,3.92,0,0,0-1.16,1.95v7.4l1.81.15v1h-5v-1l1.82-.15v-9.87Z"/><path class="cls-9" d="M627.7,240.69a4.8,4.8,0,0,1-3.76-1.68,6.21,6.21,0,0,1-1.49-4.27v-.62a6.38,6.38,0,0,1,1.48-4.32,4.58,4.58,0,0,1,3.59-1.72A4.43,4.43,0,0,1,631,229.5a5.45,5.45,0,0,1,1.26,3.77v1.15h-8.49v.32a5.36,5.36,0,0,0,1.09,3.43,3.42,3.42,0,0,0,2.84,1.39,5.79,5.79,0,0,0,2.11-.35,4.16,4.16,0,0,0,1.5-1l.57.92a4.88,4.88,0,0,1-1.72,1.14A6.53,6.53,0,0,1,627.7,240.69Zm-.18-11.46a3.16,3.16,0,0,0-2.47,1.14,4.84,4.84,0,0,0-1.18,2.85l0,.06h7.05v-.34a3.94,3.94,0,0,0-.92-2.65A3.14,3.14,0,0,0,627.52,229.23Z"/><path class="cls-9" d="M634.4,239.47l1.81-.15v-9.87l-1.81-.15v-1h3l.12,2.12a4.33,4.33,0,0,1,1.56-1.74,4.4,4.4,0,0,1,2.33-.61,3.68,3.68,0,0,1,3,1.21,5.76,5.76,0,0,1,1,3.77v6.26l1.81.15v1h-5v-1l1.82-.15v-6.25a4.41,4.41,0,0,0-.78-3,2.79,2.79,0,0,0-2.19-.86,3.43,3.43,0,0,0-2.29.75,4.15,4.15,0,0,0-1.27,2v7.34l1.81.15v1h-5Z"/><path class="cls-9" d="M652.36,225.2v3.11H655v1.1h-2.64v7.91a2.56,2.56,0,0,0,.43,1.69,1.38,1.38,0,0,0,1.13.5l.63,0c.21,0,.44-.05.71-.1l.2,1a3.27,3.27,0,0,1-.81.22,5.18,5.18,0,0,1-1,.08,2.48,2.48,0,0,1-2-.81,3.82,3.82,0,0,1-.71-2.56v-7.91H649v-1.1H651V225.2Z"/><path class="cls-9" d="M657.22,234.2a6.58,6.58,0,0,1,1.46-4.4,5.19,5.19,0,0,1,7.72,0,6.53,6.53,0,0,1,1.46,4.4v.37a6.57,6.57,0,0,1-1.45,4.41,5.22,5.22,0,0,1-7.73,0,6.57,6.57,0,0,1-1.46-4.41Zm1.34.37a5.86,5.86,0,0,0,1.05,3.55,3.46,3.46,0,0,0,2.95,1.44,3.4,3.4,0,0,0,2.91-1.44,5.86,5.86,0,0,0,1.06-3.55v-.37a5.83,5.83,0,0,0-1.06-3.52,3.69,3.69,0,0,0-5.86,0,5.83,5.83,0,0,0-1.05,3.52Z"/><path class="cls-9" d="M683.92,238.71a4.33,4.33,0,0,1-1.54,1.47,4.65,4.65,0,0,1-2.23.51,4,4,0,0,1-3.37-1.63,7.07,7.07,0,0,1-1.22-4.34v-.24a8,8,0,0,1,1.22-4.65,3.89,3.89,0,0,1,3.39-1.75,4.32,4.32,0,0,1,2.18.53,4.42,4.42,0,0,1,1.54,1.53v-6.06l-1.81-.14v-1h3.14v16.38l1.81.15v1h-3Zm-7-4a6.21,6.21,0,0,0,.87,3.5,3,3,0,0,0,2.63,1.31,3.74,3.74,0,0,0,2.14-.59,3.91,3.91,0,0,0,1.34-1.6v-5.75a4.27,4.27,0,0,0-1.29-1.69,3.46,3.46,0,0,0-2.17-.65,2.89,2.89,0,0,0-2.64,1.45,7.2,7.2,0,0,0-.88,3.78Z"/><path class="cls-9" d="M694.38,240.69a4.81,4.81,0,0,1-3.76-1.68,6.21,6.21,0,0,1-1.49-4.27v-.62a6.39,6.39,0,0,1,1.49-4.32,4.56,4.56,0,0,1,3.58-1.72,4.42,4.42,0,0,1,3.48,1.42,5.46,5.46,0,0,1,1.27,3.77v1.15h-8.49v.32a5.41,5.41,0,0,0,1.08,3.43,3.42,3.42,0,0,0,2.84,1.39,5.79,5.79,0,0,0,2.11-.35,4,4,0,0,0,1.5-1l.57.92a4.75,4.75,0,0,1-1.71,1.14A6.58,6.58,0,0,1,694.38,240.69Zm-.18-11.46a3.16,3.16,0,0,0-2.47,1.14,4.9,4.9,0,0,0-1.17,2.85l0,.06h7v-.34a3.89,3.89,0,0,0-.92-2.65A3.13,3.13,0,0,0,694.2,229.23Z"/><path class="cls-9" d="M411.92,256.91v-1h2.93l.16,1.88a4.19,4.19,0,0,1,3.79-2.11,3.89,3.89,0,0,1,3.39,1.75,7.9,7.9,0,0,1,1.22,4.65v.24a7,7,0,0,1-1.22,4.35,4,4,0,0,1-3.37,1.62,4.71,4.71,0,0,1-2.21-.49,4,4,0,0,1-1.55-1.38v5.16l1.81.15v1h-4.95v-1l1.81-.15V257.05Zm10.16,5.17a7,7,0,0,0-.91-3.77,3,3,0,0,0-2.67-1.46,3.43,3.43,0,0,0-2.18.65,4,4,0,0,0-1.26,1.67V265a3.7,3.7,0,0,0,1.31,1.58,3.85,3.85,0,0,0,2.15.57,3,3,0,0,0,2.65-1.33,6.05,6.05,0,0,0,.91-3.51Z"/><path class="cls-9" d="M433.88,268.06c-.08-.41-.15-.77-.18-1.07a6.84,6.84,0,0,1-.06-.91,5.28,5.28,0,0,1-1.78,1.59,5.06,5.06,0,0,1-2.5.62,3.76,3.76,0,0,1-2.73-.92,3.25,3.25,0,0,1-1-2.49,3.1,3.1,0,0,1,1.43-2.67,6.77,6.77,0,0,1,3.89-1h2.66v-1.61a2.59,2.59,0,0,0-.83-2,3.32,3.32,0,0,0-2.32-.74,5.84,5.84,0,0,0-1.82.27,4.09,4.09,0,0,0-1.39.75l-.11,1.63h-1.1v-2.34a7,7,0,0,1,2-1.05,7.44,7.44,0,0,1,2.47-.41,4.8,4.8,0,0,1,3.2,1,3.61,3.61,0,0,1,1.21,2.93v6c0,.25,0,.48,0,.71a4.9,4.9,0,0,0,.07.67l1.2.08v1Zm-4.38-1a4.76,4.76,0,0,0,2.55-.67,4,4,0,0,0,1.59-1.74v-2.44H431a4.9,4.9,0,0,0-2.89.76,2.24,2.24,0,0,0-1.09,1.91,2,2,0,0,0,.67,1.58A2.69,2.69,0,0,0,429.5,267.1Z"/><path class="cls-9" d="M446.5,266.31a4.28,4.28,0,0,1-1.55,1.47,4.61,4.61,0,0,1-2.22.51,4,4,0,0,1-3.37-1.62,7.12,7.12,0,0,1-1.22-4.35v-.24a8,8,0,0,1,1.22-4.65,3.89,3.89,0,0,1,3.39-1.75,4.08,4.08,0,0,1,3.71,2.06v-6.06l-1.81-.14v-1h3.15v16.38l1.81.15v1h-3Zm-7-4a6.21,6.21,0,0,0,.87,3.5,3,3,0,0,0,2.63,1.31,3.74,3.74,0,0,0,2.14-.59,3.82,3.82,0,0,0,1.33-1.6v-5.75a4.16,4.16,0,0,0-1.28-1.69,3.46,3.46,0,0,0-2.17-.65,2.89,2.89,0,0,0-2.64,1.45,7.2,7.2,0,0,0-.88,3.78Z"/><path class="cls-9" d="M454.53,255.91l.17,2v.14a4.37,4.37,0,0,1,1.39-1.75,3.47,3.47,0,0,1,2.1-.64,2.56,2.56,0,0,1,.49,0l.4.09-.18,1.25-1-.06a3,3,0,0,0-2.06.71,3.9,3.9,0,0,0-1.15,2v7.25l1.81.15v1h-4.94v-1l1.81-.15v-9.87l-1.81-.14v-1h3Z"/><path class="cls-9" d="M460.58,261.8a6.53,6.53,0,0,1,1.46-4.4,5.19,5.19,0,0,1,7.72,0,6.57,6.57,0,0,1,1.45,4.4v.37a6.57,6.57,0,0,1-1.45,4.41,5.21,5.21,0,0,1-7.72,0,6.52,6.52,0,0,1-1.46-4.41Zm1.33.37a5.8,5.8,0,0,0,1.06,3.55,3.7,3.7,0,0,0,5.86,0,5.86,5.86,0,0,0,1.05-3.55v-.37a5.77,5.77,0,0,0-1.06-3.52,3.68,3.68,0,0,0-5.85,0,5.77,5.77,0,0,0-1.06,3.52Zm7.83-10.94a2.33,2.33,0,0,1-.61,1.64,2,2,0,0,1-1.53.66,2.91,2.91,0,0,1-1.68-.62,2.67,2.67,0,0,0-1.45-.62,1.15,1.15,0,0,0-.88.39,1.44,1.44,0,0,0-.35,1l-.88-.2a2.36,2.36,0,0,1,.59-1.62,2,2,0,0,1,1.52-.66,3.06,3.06,0,0,1,1.64.62,3,3,0,0,0,1.49.62,1.15,1.15,0,0,0,.88-.41,1.44,1.44,0,0,0,.37-1Z"/><path class="cls-9" d="M478.68,268.29a4.79,4.79,0,0,1-3.75-1.68,6.14,6.14,0,0,1-1.49-4.27v-.62a6.38,6.38,0,0,1,1.48-4.32,4.56,4.56,0,0,1,3.58-1.72A4.4,4.4,0,0,1,482,257.1a5.41,5.41,0,0,1,1.27,3.77V262h-8.49v.32a5.41,5.41,0,0,0,1.08,3.43,3.43,3.43,0,0,0,2.84,1.39,5.81,5.81,0,0,0,2.12-.35,4.16,4.16,0,0,0,1.5-1l.56.92a4.75,4.75,0,0,1-1.71,1.14A6.55,6.55,0,0,1,478.68,268.29Zm-.18-11.46A3.18,3.18,0,0,0,476,258a4.9,4.9,0,0,0-1.17,2.86l0,.05h7.05v-.34a4,4,0,0,0-.92-2.65A3.15,3.15,0,0,0,478.5,256.83Z"/><path class="cls-9" d="M494.35,259.66h-1.09l-.15-1.72a3.36,3.36,0,0,0-1.26-.82,4.76,4.76,0,0,0-1.75-.29,3.29,3.29,0,0,0-2.19.63,1.94,1.94,0,0,0-.73,1.49,1.76,1.76,0,0,0,.63,1.39,6.11,6.11,0,0,0,2.51,1,8.07,8.07,0,0,1,3.21,1.32,2.73,2.73,0,0,1,1.07,2.27,3,3,0,0,1-1.22,2.46,5.15,5.15,0,0,1-3.22.93,7.36,7.36,0,0,1-2.42-.37,5.74,5.74,0,0,1-1.9-1.06v-2.45h1.08l.19,1.73a3,3,0,0,0,1.35.78,6,6,0,0,0,1.7.24,3.61,3.61,0,0,0,2.28-.64,1.9,1.9,0,0,0,.84-1.55,2,2,0,0,0-.7-1.49,5.56,5.56,0,0,0-2.51-1.05,8.29,8.29,0,0,1-3.18-1.25,2.58,2.58,0,0,1-1-2.18,3,3,0,0,1,1.17-2.36,4.69,4.69,0,0,1,3.08-1,6.89,6.89,0,0,1,2.41.41,4.91,4.91,0,0,1,1.79,1.11Z"/><path class="cls-9" d="M500,263.52a6.22,6.22,0,0,1,.25-2,5,5,0,0,1,1.27-1.53,14.92,14.92,0,0,0,1.74-2.1,3.89,3.89,0,0,0,.56-2.16,3.08,3.08,0,0,0-.76-2.22,2.82,2.82,0,0,0-2.16-.79,3,3,0,0,0-2.11.77,2.81,2.81,0,0,0-.81,2.08H496.7l0-.06a3.6,3.6,0,0,1,1.15-2.92,4.36,4.36,0,0,1,3-1.07,3.91,3.91,0,0,1,4.25,4.2,5,5,0,0,1-.74,2.69,13,13,0,0,1-2.09,2.45,2.53,2.53,0,0,0-.84,1.12,6.12,6.12,0,0,0-.15,1.59Zm1.51,4.54h-1.54v-1.73h1.54Z"/><g class="cls-10"><path class="cls-3" d="M146.19,147a11.2,11.2,0,0,1,8,3.69A19.12,19.12,0,0,1,159,150a17.56,17.56,0,0,1,13.12,6c14.42,5.46,8.7,14.24,8.37,14.73l.15,0s8.47,6,5.57,8.91c0,0,5.22,6.54,1,10.06a4.72,4.72,0,0,1-1.51.77c11.86,18.66,18.93,51.61,14.26,78.78-.92,5.38-7,9.24-23.4,9.24h0a85.75,85.75,0,0,1-15.86-1.42c.16,1.27.34,2.64.52,4h0c.82,5.92,2,12.64,3.33,13.63,8.36,6.35,20.82,9,27.83,10l10.15,1a24.54,24.54,0,0,1,5.27,7.81h0l59.23,55.56,46.75-39.95s3.1-12.33,20.4-12.33a43.69,43.69,0,0,1,7.12.62c23.6,3.87-2.14,6.68-2.14,6.68s2.67-.23,6.61-.23c5.91,0,14.68.51,21.56,3l3.57,4.39-8.18,8.26s-18.83,2.63-29.62,2.63c-3.42,0-6-.26-7-1a.66.66,0,0,0-.42-.12c-6.42,0-59.22,50.32-59.22,50.32l-54.37-44.43c.81,10.9,1.38,22.55,1.26,33.33a347.44,347.44,0,0,1-3,41.57c2.37,1.7.66,5.31.66,5.31L215.51,463c0,.27,0,.53-.06.79,5.51,24.83,4.58,66,4.58,66a46,46,0,0,0-4.67-.71l0,3h0c-.11,20.8,0,50.85,1.17,57.69,1.92,10.72,0,16,0,16s5.22,83.4,5.22,84,7.3,10.13,7.3,10.13,9.66,7.68,17.18,13.77h0s4.52,1.2,6.29,2.69a6.22,6.22,0,0,1,1.89,4c.5.34,1.33.91,2.28,1.6a24,24,0,0,0,6.53,1.23c1,1,0,2.18-1.35,3.09.75.81,1.2,1.52,1.08,2-.49,1.83-7.49,9.27-20.13,9.27-.71,0-1.44,0-2.19-.08-13.27-.88-31.67-15.17-33.18-19.15a11.92,11.92,0,0,1,.2-8c0-3.39,2-7.46,3.14-9.49,1.74-3.16,3-12.12,3-12.12-19.13-67.83-8.17-77.37-10.26-82.29-1.32-3.13-13.14-47.53-21.58-79.46h0l0-.1q-.75-2.81-1.44-5.46a22.83,22.83,0,0,1-4.37-2.6,136.22,136.22,0,0,1-22.95,9.19l-25.22,63.9s-4.32,16.08-9.45,21.26a230.73,230.73,0,0,1-12.69,37.08C97,669.83,93.21,696.89,93.21,696.89s6.23,16,7,26c7.33,10.14,13.91,22.65,5.18,26.34a49.78,49.78,0,0,1-19,3.37c-10.52,0-20-2.49-22.15-4.71-3.53-3.57,6.5-30.64,6.5-30.64.31-2.46,1-4.83,2.41-5.83,3.48-2.46,7.65-8.43,7.65-8.43s-1.31-3.52,2.35-8.26,9-35.17,9-39.16-4.87-33.73,11.36-45.44c0,0,1.85-38.05,6.61-65.56h0c.52-3.12,1.08-6.1,1.69-8.87-5,.41-8,.47-8,.47s4.81-13.57,11-31c-5.25-.51-1.8-8.74-1.8-8.74a43.38,43.38,0,0,0,6.17-3.67l2-5.72c-1.73-4.33,2.6-17.79,2.6-17.79L107.88,457,61.56,421.74s37.22-88.67,38.72-90.19c1-1,8.17-5.25,13.12-8.13h0c5.19-5.24,16.33-9.39,16.33-9.39s10.6-12.12,12.86-14.4,1.22-8.61,1.22-8.61L138,268.47c-10.25-6.51-14.3-13.77-14.3-13.77a5.14,5.14,0,0,1-3.78,1.54c-3.38,0-6.77-2.59-6.77-2.59s-14.72-14.88-10.09-21.9a4.37,4.37,0,0,1,3.82-2.13c3,0,6.65,2.53,9.19,4.69-5.22-4.6-8-5.23-9.14-5.23l-.36,0-.09.07-.07,0-.1,0,0-.12c-1.1-.55-6-3.28-6.45-7.91-8.32-2.63-6.71-7.32-6.71-7.32-8-5.5,0-14.35,0-14.35-3.57-3.6-.82-8.84-.82-8.84-4.17-6,1-13.35,1-13.35.58-6.45,10.14-10.25,10.14-10.25.75-3.22,4.69-4.75,4.69-4.75a7,7,0,0,1,6.43-4c.33,0,.53,0,.53,0,3.47-7.57,16.47-8.3,21.33-8.3,1.16,0,1.85,0,1.85,0a13,13,0,0,1,7.89-3M133.11,452.93c2.08-6,3.88-11.25,5.24-15.26-2.15-4.36,1.22-6.32,2.23-6.79.12-.39.21-.71.27-.94,2.09-7.73-17.56-45.65-17.56-45.65L106.7,373.78,83.44,418l37.19,26.18,12.48,8.78M253.86,720h0M146.19,141h0a18,18,0,0,0-9.71,3h0c-7.06,0-18.92,1.2-24.81,8.59a12.7,12.7,0,0,0-7.74,5.14,14.39,14.39,0,0,0-5,4.82c-3.56,1.85-9.82,6-11.28,12.54-2.22,3.77-4.27,10-1.86,16a14.09,14.09,0,0,0,.24,8.13,16.64,16.64,0,0,0-2.36,10,12.8,12.8,0,0,0,3.5,7.39,10.51,10.51,0,0,0,1,2.89,13.84,13.84,0,0,0,6.71,6.14,15.13,15.13,0,0,0,2.54,4c-2.49,5-1.14,11.38,4,19.05a72.71,72.71,0,0,0,7.49,9.18l.3.3.33.25c.84.64,5.27,3.82,10.41,3.82a12.22,12.22,0,0,0,1.72-.12,54.87,54.87,0,0,0,11.13,10.08l5.15,20a13.15,13.15,0,0,1,0,3.61c-2.43,2.55-9.14,10.18-11.75,13.16-3.38,1.37-11.43,4.94-16.43,9.62-12.06,7-13,8-13.73,8.73-1.13,1.14-1.75,1.76-21.18,47.54C65.45,397,56.13,419.2,56,419.42l-1.79,4.28,3.69,2.81,46.31,35.3,12.64,9.63c-1.3,4.79-2.49,10.74-1.89,15.14l-.8,2.27c-1.85,1.18-3.73,2.08-3.75,2.1l-2,1L107.5,494c-.76,1.8-3,8.07-.2,12.77.12.2.24.38.36.56-5.41,15.35-9.45,26.75-9.45,26.75l-2.9,8.17,8.66-.16.5,0c-.06.32-.11.65-.17,1l-.16.48V544c-4,23.58-6,53.93-6.46,63.09C83.23,620.08,85.31,645,86,653.52c.06.78.14,1.75.15,2C86.08,660,80.88,687,78.33,691.1a16.51,16.51,0,0,0-3.78,10.19,30.15,30.15,0,0,1-4.89,5.2c-2.55,1.81-4.12,4.84-4.79,9.27-.68,1.88-2.73,7.63-4.49,13.79-3.77,13.14-3.88,19-.42,22.53,4.22,4.26,16.48,6.49,26.41,6.49a55.37,55.37,0,0,0,21.31-3.85,12.17,12.17,0,0,0,7.33-8.09c1.79-6.38-1.08-14.65-9-26-1-8.81-5.08-20.31-6.61-24.43.93-5.83,4.72-27.56,11.84-43.67a240.75,240.75,0,0,0,12.69-36.66c5.11-6.42,8.75-18.86,9.66-22.21l24.05-60.92a144.53,144.53,0,0,0,17.75-7l.67,2.55,0,.1C194,596.21,197,606,197.72,608.16c-.05.49-.2,1.41-.32,2.18-1.32,8-4.39,26.54,10.19,78.69-.59,3.85-1.52,7.79-2.09,8.84-2.36,4.29-3.63,8-3.86,11.27a17.76,17.76,0,0,0,.16,11.26c2,5.2,11.62,11.76,14.53,13.65,5,3.23,14.73,8.76,23.87,9.36.86.06,1.73.09,2.58.09,14.8,0,24.59-8.79,25.92-13.71a6.57,6.57,0,0,0,.18-2.57,7.23,7.23,0,0,0-1.44-8.28l-1.65-1.67-2.35-.1a21.38,21.38,0,0,1-3.8-.57,11.22,11.22,0,0,0-3.29-4.85,22.58,22.58,0,0,0-7.34-3.53c-6.22-5-13.6-10.91-15.69-12.58-2.18-2.84-4.6-6.09-5.71-7.69-.27-4.55-1.27-21-5.07-81.63.62-2.58,1.49-8.5-.14-17.66-.39-2.19-1.26-11.65-1.1-52.22l4.54,1.46.19-8c0-1.69.87-41.24-4.53-66.54v0l0-.53-.07-.53L217.2,428a10.78,10.78,0,0,0-.52-7.61,358.59,358.59,0,0,0,2.74-39.88c.07-6.08-.07-12.72-.43-20.06l43.74,35.75,4.11,3.35,3.83-3.65c21.69-20.67,47.84-44,55.13-48.26a30.1,30.1,0,0,0,7.35.67c11.08,0,29.67-2.58,30.46-2.69l2-.28,1.43-1.44,8.17-8.26,3.79-3.82-3.39-4.18L372,323.2l-1-1.28-1.55-.57a55.15,55.15,0,0,0-12.5-2.79c-.63-1.82-2.24-3.72-5.82-5a54,54,0,0,0-8.81-2,50.57,50.57,0,0,0-8.09-.7c-17.29,0-23.56,10.26-25.49,14.78L267.26,361.1,212.81,310a30.52,30.52,0,0,0-6-8.46L205.3,300l-2.16-.21-10-.94c-6-.88-16.68-3.09-24-8.13a49.76,49.76,0,0,1-1.38-6.54q4.33.4,8.84.4c6.66,0,26.88,0,29.32-14.23,4.34-25.2-.91-57.29-12.51-78.6,2.4-3.93,1.64-8.82-.61-12.92a8.08,8.08,0,0,0,0-1.3c-.3-3.38-2.69-6.44-5.15-8.75a13.5,13.5,0,0,0-.37-6.68c-1.48-4.72-5.38-8.44-11.61-11.08A23.88,23.88,0,0,0,159,144a23.29,23.29,0,0,0-3.1.21,16.56,16.56,0,0,0-9.74-3.25Zm-55,275.1L109,382.33l9.72,6.15c1.47,2.89,4.92,9.81,8.28,17.29,6.2,13.82,7.64,19.61,8,21.78A10.15,10.15,0,0,0,132,437.72c-.57,1.69-1.22,3.6-2,5.71l-6-4.19L91.21,416.1Z"/><path class="cls-5" d="M207.85,313.59l59.23,55.56,46.75-39.95s3.92-15.58,27.52-11.71-2.14,6.68-2.14,6.68,16.7-1.41,28.17,2.81l3.57,4.39-8.18,8.26s-32.68,4.57-36.6,1.67-59.64,50.2-59.64,50.2l-54.37-44.43-10.68-9.2Z"/><path class="cls-5" d="M137.2,265.36,143.81,291s1,6.32-1.22,8.61S129.73,314,129.73,314l-5.92,11.78,34.26,19.67,40.86-11.06-1.22-29s-20.92-1.34-33.12-10.6c-2.4-1.82-4.43-23-4.43-23Z"/><path class="cls-11" d="M161.28,281.19c-.64-4.73-1.17-9.5-1.17-9.5l-23-6.5,1.84,7.15s7.18,4.73,9.42,5.72A43.22,43.22,0,0,0,161.28,281.19Z"/><path class="cls-5" d="M118.16,320.68s-16.37,9.34-17.88,10.87-38.72,90.19-38.72,90.19L107.88,457l15.93,12.15s-5,15.64-2.08,18.63-8.7,8.55-8.7,8.55-4.52,10.77,4.64,8.43,21.56-8.55,21.56-8.55l6.15-34.67-24.75-17.42L83.44,418l23.26-44.19,16.59,10.51,20.35-15L129,332.48l-6.26-13.82Z"/><path class="cls-5" d="M123.7,254.7s13.28,23.89,52.92,23.89c16.4,0,22.49-3.86,23.41-9.24,5.81-33.81-6.55-76.56-23.7-89.61-15-11.45-68.4,31.86-68.4,31.86l11.36,25.77s-11.59-12.65-16.23-5.62,10.09,21.9,10.09,21.9S119.76,258.69,123.7,254.7Z"/><path class="cls-5" d="M161.37,506.93l-33.5,84.89s-4.32,16.08-9.45,21.26a230.73,230.73,0,0,1-12.69,37.08C97,669.83,93.21,696.89,93.21,696.89s7.91,20.3,7,29.43c0,0,7.56,10.55,4.52,16.61s-15,2.46-15,2.46S69.82,748,66.87,743s3.74-18.45,3.74-18.45-1-10.72,2.52-13.18S80.78,703,80.78,703s-1.31-3.52,2.35-8.26,9-35.17,9-39.16-4.87-33.73,11.36-45.44c0,0,3.94-80.83,15.07-92.07s42.77-17.93,42.77-17.93Z"/><path class="cls-12" d="M161.37,506.93l-10.71,27.14s-14.82,6.69-18.57,7.62c-2.78.69-22.62,6.89-22,2.84,2.09-12.63,5-23,8.46-26.5,11.13-11.25,42.77-17.93,42.77-17.93Z"/><path class="cls-5" d="M173.31,494.36s28.06,107.07,30.14,112-8.87,14.46,10.26,82.29c0,0-1.22,9-3,12.12S205,712,210.06,714.82s21.39,16.86,28.34,18.09,20-4.92,20-4.92,7-2.63,4.78-4.83c0,0-6.35-.26-8.43-2.37S229,699.88,229,699.88s-7.3-9.49-7.3-10.13-5.22-84-5.22-84,1.92-5.27,0-16-1-78.24-1-78.24Z"/><path class="cls-12" d="M173.31,494.36s6.6,25.11,8.56,32.53c.75,2.84,33.46,5.13,33.46,5.13l.18-20.55Z"/><path class="cls-13" d="M173.31,515.57c5.42,10.87,43.56,13.16,46.72,14.17,0,0,1-43.64-5.09-68.16S173.31,515.57,173.31,515.57Z"/><path class="cls-14" d="M126.94,245.1c6.73,2.81.93-9.37.93-9.37s-.63-12.21-4.06-14.29a49.19,49.19,0,0,1-7.46-6.17l64.15-44.44s6.49-9.13-8.35-14.75a17.55,17.55,0,0,0-18-5.39s-6.5-7.85-15.89-.65c0,0-18.89-1.11-23.18,8.26a7.06,7.06,0,0,0-7,4s-3.94,1.53-4.69,4.75c0,0-9.56,3.8-10.14,10.25,0,0-5.22,7.38-1,13.35,0,0-2.75,5.24.82,8.84,0,0-8,8.85,0,14.35,0,0-2,5.74,9.73,8.09l3.48,7.26s3.35-1.54,13,8.2S126.94,245.1,126.94,245.1Z"/><ellipse class="cls-15" cx="155.72" cy="221.41" rx="3.12" ry="4.3" transform="translate(-47.85 43) rotate(-13.65)"/><path class="cls-15" d="M151.71,218.26h-.07a1.5,1.5,0,0,1-1.43-1.56c0-.23.28-5.66,3.93-7.62,2.3-1.24,5.23-.8,8.72,1.3a1.5,1.5,0,1,1-1.55,2.57c-1.73-1-4.13-2.1-5.75-1.23-1.79,1-2.31,4.08-2.36,5.1A1.49,1.49,0,0,1,151.71,218.26Z"/><ellipse class="cls-15" cx="184.04" cy="214.47" rx="3.12" ry="4.3" transform="translate(-45.41 49.49) rotate(-13.65)"/><path class="cls-15" d="M180.73,210.94a1.32,1.32,0,0,1-.39-.06,1.49,1.49,0,0,1-1.05-1.83c.06-.23,1.52-5.44,5.51-6.54,2.52-.69,5.28.39,8.22,3.23a1.5,1.5,0,0,1-2.09,2.15c-1.45-1.4-3.55-3-5.33-2.49-1.94.53-3.13,3.38-3.42,4.44A1.51,1.51,0,0,1,180.73,210.94Z"/><path class="cls-16" d="M160.1,249.89c-.38-.41,23,1.48,31.88-5.16,0,0,1.76,18-6.21,19.92C177.58,266.67,168.12,263.36,160.1,249.89Z"/><g class="cls-17"><path class="cls-18" d="M158.57,252.71s21.84,6.3,31.55-3.51l-1.22-4.47-32,2.18Z"/><path class="cls-19" d="M162.42,260.8s7-6.86,18.2-2.29,0,12.83,0,12.83Z"/></g><path class="cls-11" d="M181,266.3c-12.94,0-21.66-15.75-21.76-15.93l-.85-1.57,1.78.09c.22,0,21.76,1.07,31.29-5a1,1,0,0,1,1.07,1.69c-8.46,5.39-25,5.5-30.59,5.37,3,4.59,12.72,17.49,25.21,12a1,1,0,1,1,.81,1.83A17.13,17.13,0,0,1,181,266.3Z"/><path class="cls-11" d="M118.77,252s-.35-15.37-12.08-19.06"/><path class="cls-11" d="M106.7,373.78s10-13.58,8.71-11.52c-7.34,11.49,18.79,24.74,24.92,17.66,0,0-6.08,7.85-17,4.37Z"/><path class="cls-20" d="M129.73,314s-11.14,4.15-16.33,9.39c0,0,31.22,45.75,9.89,60.87,0,0,19.65,37.92,17.56,45.65s-37,106.19-37,106.19S211.67,534.19,215.51,463l-5.1-41a347.44,347.44,0,0,0,3-41.57c.22-20-1.94-43-3.53-58.7a25.4,25.4,0,0,0-7.32-15.92l-10.15-1s8,27.14-10.53,29.7C171.89,335.91,147.81,339.17,129.73,314Z"/><g class="cls-21"><path class="cls-22" d="M107.88,538.79s107.8-1.94,111.64-73.15Z"/></g><path class="cls-20" d="M129.73,314s-11.14,4.15-16.33,9.39c0,0,31.22,45.75,9.89,60.87,0,0,19.65,37.92,17.56,45.65s-37,106.19-37,106.19S211.67,534.19,215.51,463l-5.1-41a347.44,347.44,0,0,0,3-41.57c.22-20-1.94-43-3.53-58.7a25.4,25.4,0,0,0-7.32-15.92l-10.15-1s8,27.14-10.53,29.7C171.89,335.91,147.81,339.17,129.73,314Z"/><path class="cls-5" d="M107.88,457l15.93,12.15s-5,15.64-2.08,18.63-8.7,8.55-8.7,8.55-4.52,10.77,4.64,8.43,21.56-8.55,21.56-8.55l5.21-29.41s1.6-5.77-4.9-9.63c-5-3-18.91-13.05-18.91-13.05Z"/><path class="cls-4" d="M138.46,437.91s56.83,7.64,72.61-10.63c0,0,1.71-3.61-.66-5.31.34,3.38-26.7,18.1-69.56,8.79C140.85,430.76,135.68,432.63,138.46,437.91Z"/><ellipse class="cls-23" cx="185.67" cy="435.14" rx="13.26" ry="13.4"/><g class="cls-24"><path class="cls-25" d="M122.72,176s-5.69,7,1.53,11.62c2.53,1.64-7.48,9.49-7.48,9.49l-4,22.93s5.22-2.12,8.7-2.12l18.29,21.19L128,246.5,90.54,221,65.62,172.36,97.73,142.9l35.13-8.26L126.68,147s-14.91,9.21-9.21,15.84C113.9,165.37,113.21,175.32,122.72,176Z"/></g><path class="cls-9" d="M106.48,229.17s-6.72-3-6.72-8.67,26.2-58.8,80.91-49.67c0,0,8.47,6,5.57,8.91,0,0,5.22,6.54,1,10.06S162.82,188.16,106.48,229.17Z"/><path class="cls-26" d="M109.44,216.76s35-43.11,72.45-37.49C181.89,179.27,147,181.16,109.44,216.76Z"/><path class="cls-27" d="M187.11,445.53c-2,0-6.11-.38-8.84-3.42-2.4-2.66-3.06-6.59-2-11.69a1.5,1.5,0,0,1,2.93.63c-.87,4.1-.45,7.15,1.27,9.06,2.58,2.86,7.32,2.4,7.37,2.39a1.5,1.5,0,1,1,.31,3A10.67,10.67,0,0,1,187.11,445.53Z"/><path class="cls-28" d="M193.68,441l-.32,0a1.5,1.5,0,0,1-1.14-1.79c.9-4.1.49-7.15-1.22-9.06-2.56-2.89-7.3-2.45-7.35-2.45a1.5,1.5,0,1,1-.3-3c.25,0,6.33-.58,9.9,3.43,2.37,2.67,3,6.61,1.9,11.7A1.51,1.51,0,0,1,193.68,441Z"/><path class="cls-11" d="M173.66,245a1.5,1.5,0,0,1,0-3c2.91,0,10.91-2.59,14.87-4-1.29-12.64-9.24-22-14-26.6a1.5,1.5,0,0,1,2.09-2.16c5.16,5,14,15.48,15,29.68l.08,1.13-1.07.39C189.35,240.88,178,245,173.66,245Z"/><path class="cls-11" d="M332.54,330.18a5.83,5.83,0,0,1-1-.09,1.49,1.49,0,0,1-1.21-1.74,1.51,1.51,0,0,1,1.74-1.21c2.42.42,5.15-2.69,5.91-3.81a1.5,1.5,0,0,1,2.49,1.67C340.3,325.23,336.91,330.18,332.54,330.18Z"/><path class="cls-11" d="M350.11,339.34a1,1,0,0,1-.34-.06,1,1,0,0,1-.6-1.28c1.26-3.48-2.62-9.06-4.22-10.92a1,1,0,1,1,1.51-1.31c.27.31,6.51,7.62,4.59,12.91A1,1,0,0,1,350.11,339.34Z"/></g></svg>